G04*
G04 #@! TF.GenerationSoftware,Altium Limited,Altium Designer,25.8.1 (18)*
G04*
G04 Layer_Physical_Order=1*
G04 Layer_Color=255*
%FSLAX44Y44*%
%MOMM*%
G71*
G04*
G04 #@! TF.SameCoordinates,7D67BA09-2431-4C98-8CAE-14AC2A5FFEDF*
G04*
G04*
G04 #@! TF.FilePolarity,Positive*
G04*
G01*
G75*
%ADD11C,0.2500*%
%ADD14C,0.2000*%
%ADD19C,0.3000*%
%ADD20R,0.6725X0.7154*%
%ADD21R,0.7154X0.6725*%
%ADD22R,2.7000X2.7000*%
G04:AMPARAMS|DCode=23|XSize=0.8mm|YSize=0.35mm|CornerRadius=0.175mm|HoleSize=0mm|Usage=FLASHONLY|Rotation=270.000|XOffset=0mm|YOffset=0mm|HoleType=Round|Shape=RoundedRectangle|*
%AMROUNDEDRECTD23*
21,1,0.8000,0.0000,0,0,270.0*
21,1,0.4500,0.3500,0,0,270.0*
1,1,0.3500,0.0000,-0.2250*
1,1,0.3500,0.0000,0.2250*
1,1,0.3500,0.0000,0.2250*
1,1,0.3500,0.0000,-0.2250*
%
%ADD23ROUNDEDRECTD23*%
G04:AMPARAMS|DCode=24|XSize=0.95mm|YSize=0.8mm|CornerRadius=0.1mm|HoleSize=0mm|Usage=FLASHONLY|Rotation=180.000|XOffset=0mm|YOffset=0mm|HoleType=Round|Shape=RoundedRectangle|*
%AMROUNDEDRECTD24*
21,1,0.9500,0.6000,0,0,180.0*
21,1,0.7500,0.8000,0,0,180.0*
1,1,0.2000,-0.3750,0.3000*
1,1,0.2000,0.3750,0.3000*
1,1,0.2000,0.3750,-0.3000*
1,1,0.2000,-0.3750,-0.3000*
%
%ADD24ROUNDEDRECTD24*%
%ADD25R,1.4562X1.2546*%
%ADD26R,2.7062X1.5533*%
G04:AMPARAMS|DCode=27|XSize=0.95mm|YSize=0.8mm|CornerRadius=0.1mm|HoleSize=0mm|Usage=FLASHONLY|Rotation=270.000|XOffset=0mm|YOffset=0mm|HoleType=Round|Shape=RoundedRectangle|*
%AMROUNDEDRECTD27*
21,1,0.9500,0.6000,0,0,270.0*
21,1,0.7500,0.8000,0,0,270.0*
1,1,0.2000,-0.3000,-0.3750*
1,1,0.2000,-0.3000,0.3750*
1,1,0.2000,0.3000,0.3750*
1,1,0.2000,0.3000,-0.3750*
%
%ADD27ROUNDEDRECTD27*%
%ADD28R,0.7000X0.7000*%
%ADD29R,1.0000X0.7000*%
%ADD30R,2.5000X1.0000*%
%ADD31R,0.6500X0.3500*%
%ADD32R,1.5500X2.4000*%
%ADD33R,1.3500X0.9500*%
%ADD34R,0.4000X0.8000*%
G04:AMPARAMS|DCode=35|XSize=0.35mm|YSize=0.8mm|CornerRadius=0.175mm|HoleSize=0mm|Usage=FLASHONLY|Rotation=270.000|XOffset=0mm|YOffset=0mm|HoleType=Round|Shape=RoundedRectangle|*
%AMROUNDEDRECTD35*
21,1,0.3500,0.4500,0,0,270.0*
21,1,0.0000,0.8000,0,0,270.0*
1,1,0.3500,-0.2250,0.0000*
1,1,0.3500,-0.2250,0.0000*
1,1,0.3500,0.2250,0.0000*
1,1,0.3500,0.2250,0.0000*
%
%ADD35ROUNDEDRECTD35*%
%ADD36R,2.2000X8.0000*%
%ADD37R,0.8000X0.5000*%
%ADD38R,1.6000X5.7000*%
G04:AMPARAMS|DCode=39|XSize=1.75mm|YSize=1.2mm|CornerRadius=0.15mm|HoleSize=0mm|Usage=FLASHONLY|Rotation=270.000|XOffset=0mm|YOffset=0mm|HoleType=Round|Shape=RoundedRectangle|*
%AMROUNDEDRECTD39*
21,1,1.7500,0.9000,0,0,270.0*
21,1,1.4500,1.2000,0,0,270.0*
1,1,0.3000,-0.4500,-0.7250*
1,1,0.3000,-0.4500,0.7250*
1,1,0.3000,0.4500,0.7250*
1,1,0.3000,0.4500,-0.7250*
%
%ADD39ROUNDEDRECTD39*%
%ADD40R,8.0000X2.2000*%
%ADD41R,1.0000X2.5000*%
%ADD42R,1.2500X1.6500*%
%ADD43R,0.5000X0.3500*%
%ADD57C,1.5748*%
G04:AMPARAMS|DCode=58|XSize=3.2mm|YSize=1.6mm|CornerRadius=0.8mm|HoleSize=0mm|Usage=FLASHONLY|Rotation=90.000|XOffset=0mm|YOffset=0mm|HoleType=Round|Shape=RoundedRectangle|*
%AMROUNDEDRECTD58*
21,1,3.2000,0.0000,0,0,90.0*
21,1,1.6000,1.6000,0,0,90.0*
1,1,1.6000,0.0000,0.8000*
1,1,1.6000,0.0000,-0.8000*
1,1,1.6000,0.0000,-0.8000*
1,1,1.6000,0.0000,0.8000*
%
%ADD58ROUNDEDRECTD58*%
G04:AMPARAMS|DCode=59|XSize=1.6mm|YSize=3.2mm|CornerRadius=0.8mm|HoleSize=0mm|Usage=FLASHONLY|Rotation=90.000|XOffset=0mm|YOffset=0mm|HoleType=Round|Shape=RoundedRectangle|*
%AMROUNDEDRECTD59*
21,1,1.6000,1.6000,0,0,90.0*
21,1,0.0000,3.2000,0,0,90.0*
1,1,1.6000,0.8000,0.0000*
1,1,1.6000,0.8000,0.0000*
1,1,1.6000,-0.8000,0.0000*
1,1,1.6000,-0.8000,0.0000*
%
%ADD59ROUNDEDRECTD59*%
%ADD60C,1.5700*%
%ADD64R,1.3100X1.3100*%
%ADD66C,1.3100*%
%ADD68R,1.6000X3.2000*%
%ADD70C,0.2174*%
%ADD71R,0.3000X0.8000*%
%AMCUSTOMSHAPE72*
4,1,28,1.1400,-1.2250,0.7250,-1.2250,0.7250,-1.6050,0.2950,-1.6050,0.2950,-1.2250,-0.8400,-1.2250,-0.8400,-1.1750,-1.1400,-1.1750,-1.1400,-0.7750,-0.8400,-0.7750,-0.8400,-0.5250,-1.1400,-0.5250,-1.1400,-0.1250,-0.8400,-0.1250,-0.8400,0.1250,-1.1400,0.1250,-1.1400,0.5250,-0.8400,0.5250,-0.8400,0.7750,-1.1400,0.7750,-1.1400,1.1750,-0.8400,1.1750,-0.8400,1.2250,0.2950,1.2250,0.2950,1.6050,0.7250,1.6050,0.7250,1.2250,1.1400,1.2250,1.1400,-1.2250,0.0*%
%ADD72CUSTOMSHAPE72*%

%ADD73C,0.6000*%
%ADD74C,0.7500*%
%ADD75C,0.5000*%
%ADD76C,5.0000*%
%ADD77C,2.5500*%
%ADD78C,2.1000*%
%ADD79C,1.2000*%
%ADD80R,1.4000X1.4000*%
%ADD81C,1.4000*%
%ADD82R,1.4000X1.4000*%
%ADD83C,0.6600*%
G36*
X720000Y757961D02*
X722488D01*
X727422Y757311D01*
X732228Y756023D01*
X736826Y754119D01*
X741135Y751631D01*
X745083Y748602D01*
X748602Y745083D01*
X751631Y741135D01*
X754119Y736826D01*
X756023Y732228D01*
X757311Y727422D01*
X757961Y722488D01*
X757961Y720000D01*
X757961Y-0D01*
X757961Y-2488D01*
X757311Y-7422D01*
X756023Y-12228D01*
X754119Y-16826D01*
X751631Y-21135D01*
X748602Y-25083D01*
X745083Y-28602D01*
X741135Y-31631D01*
X736826Y-34119D01*
X732228Y-36023D01*
X727422Y-37311D01*
X722488Y-37961D01*
X720000D01*
X306348Y-37961D01*
X305516Y-37516D01*
X305516Y-36945D01*
Y-33008D01*
X299484D01*
Y-36945D01*
X298652Y-37961D01*
X181348D01*
X180516Y-37516D01*
X180516Y-36945D01*
Y-33008D01*
X174484D01*
Y-36945D01*
X173652Y-37961D01*
X0D01*
X-2488D01*
X-7422Y-37311D01*
X-12228Y-36023D01*
X-16826Y-34119D01*
X-21135Y-31631D01*
X-25083Y-28602D01*
X-28602Y-25083D01*
X-31631Y-21135D01*
X-34119Y-16826D01*
X-36023Y-12228D01*
X-37311Y-7422D01*
X-37961Y-2488D01*
X-37961Y0D01*
X-37961Y720000D01*
Y722488D01*
X-37311Y727422D01*
X-36023Y732228D01*
X-34119Y736826D01*
X-31631Y741135D01*
X-28602Y745083D01*
X-25083Y748602D01*
X-21135Y751631D01*
X-16826Y754119D01*
X-12228Y756023D01*
X-7422Y757311D01*
X-2488Y757961D01*
X0Y757961D01*
X720000Y757961D01*
D02*
G37*
%LPC*%
G36*
X722168Y747540D02*
X721270D01*
Y721270D01*
X747540D01*
Y722168D01*
X746862Y726449D01*
X745522Y730572D01*
X743554Y734434D01*
X741006Y737941D01*
X737941Y741006D01*
X734434Y743554D01*
X730572Y745522D01*
X726449Y746862D01*
X722168Y747540D01*
D02*
G37*
G36*
X718730D02*
X717832D01*
X713551Y746862D01*
X709428Y745522D01*
X705566Y743554D01*
X702059Y741006D01*
X698994Y737941D01*
X696446Y734434D01*
X694478Y730572D01*
X693138Y726449D01*
X692460Y722168D01*
Y721270D01*
X718730D01*
Y747540D01*
D02*
G37*
G36*
X2167D02*
X1270D01*
Y721270D01*
X27540D01*
Y722168D01*
X26862Y726449D01*
X25522Y730572D01*
X23554Y734434D01*
X21006Y737941D01*
X17941Y741006D01*
X14434Y743554D01*
X10572Y745522D01*
X6449Y746862D01*
X2167Y747540D01*
D02*
G37*
G36*
X-1270D02*
X-2167D01*
X-6449Y746862D01*
X-10572Y745522D01*
X-14434Y743554D01*
X-17941Y741006D01*
X-21006Y737941D01*
X-23554Y734434D01*
X-25522Y730572D01*
X-26862Y726449D01*
X-27540Y722168D01*
Y721270D01*
X-1270D01*
Y747540D01*
D02*
G37*
G36*
X384000Y712056D02*
X384000Y712056D01*
X327500D01*
X327500Y712056D01*
X326713Y711899D01*
X326046Y711453D01*
X326046Y711453D01*
X307551Y692959D01*
X307106Y692292D01*
X306949Y691505D01*
X306950Y691505D01*
Y669016D01*
X302989D01*
Y661100D01*
X189404D01*
X189000Y661704D01*
Y663296D01*
X188391Y664766D01*
X187266Y665891D01*
X185796Y666500D01*
X184204D01*
X182734Y665891D01*
X181609Y664766D01*
X181000Y663296D01*
Y661704D01*
X181609Y660234D01*
X182734Y659109D01*
X182945Y659022D01*
Y652891D01*
X180484D01*
Y649412D01*
X180212Y648425D01*
X179977Y648249D01*
X179706Y648137D01*
X179652Y648005D01*
X179538Y647920D01*
X179054Y647105D01*
X179013Y646814D01*
X178900Y646544D01*
Y621100D01*
X160000D01*
X159222Y620778D01*
X158900Y620000D01*
Y605265D01*
X131228D01*
X128611Y607882D01*
X128866Y608833D01*
Y611167D01*
X128262Y613422D01*
X127095Y615444D01*
X125444Y617095D01*
X123422Y618262D01*
X121167Y618866D01*
X118833D01*
X116578Y618262D01*
X114556Y617095D01*
X112905Y615444D01*
X111738Y613422D01*
X111134Y611167D01*
Y608833D01*
X111738Y606578D01*
X112905Y604556D01*
X114556Y602905D01*
X116578Y601738D01*
X118833Y601134D01*
X121167D01*
X123422Y601738D01*
X125444Y602905D01*
X125888Y603350D01*
X128351Y600886D01*
X129184Y600330D01*
X130166Y600135D01*
X158900D01*
Y590000D01*
X159128Y589450D01*
X158900Y588900D01*
Y579865D01*
X130166D01*
X129184Y579670D01*
X128352Y579114D01*
X125888Y576650D01*
X125444Y577095D01*
X123422Y578262D01*
X121167Y578866D01*
X118833D01*
X116578Y578262D01*
X114556Y577095D01*
X112905Y575444D01*
X111738Y573422D01*
X111134Y571167D01*
Y568833D01*
X111738Y566578D01*
X112905Y564556D01*
X114556Y562905D01*
X116578Y561738D01*
X118833Y561134D01*
X121167D01*
X123422Y561738D01*
X125444Y562905D01*
X127095Y564556D01*
X128262Y566578D01*
X128866Y568833D01*
Y571167D01*
X128611Y572118D01*
X131228Y574735D01*
X158900D01*
Y560000D01*
X159222Y559222D01*
X160000Y558900D01*
X178900D01*
Y553707D01*
X179013Y553436D01*
X179054Y553145D01*
X179538Y552330D01*
X179652Y552245D01*
X179706Y552113D01*
X179977Y552001D01*
X180212Y551825D01*
X180484Y550838D01*
Y549412D01*
X180212Y548425D01*
X179977Y548249D01*
X179706Y548137D01*
X179652Y548005D01*
X179538Y547920D01*
X179054Y547105D01*
X179013Y546814D01*
X178900Y546544D01*
Y435000D01*
X179222Y434222D01*
X180000Y433900D01*
X438900D01*
Y229000D01*
X439222Y228222D01*
X440000Y227900D01*
X440577D01*
X441643Y227459D01*
X442459Y226643D01*
X442900Y225577D01*
Y224423D01*
X442459Y223357D01*
X441758Y222657D01*
X441649Y222394D01*
X441475Y222169D01*
X441303Y221540D01*
X441340Y221250D01*
X441303Y220960D01*
X441475Y220331D01*
X441649Y220106D01*
X441758Y219844D01*
X442459Y219143D01*
X442900Y218077D01*
Y216923D01*
X442459Y215857D01*
X441643Y215041D01*
X440577Y214600D01*
X440000D01*
X439222Y214278D01*
X438900Y213500D01*
Y142500D01*
X439222Y141722D01*
X446722Y134222D01*
X447500Y133900D01*
X488900D01*
X489450Y134128D01*
X490000Y133900D01*
X522500D01*
X523278Y134222D01*
X523600Y135000D01*
Y145596D01*
X524204Y146000D01*
X525796D01*
X527266Y146609D01*
X528391Y147734D01*
X529000Y149204D01*
Y150796D01*
X528391Y152266D01*
X527266Y153391D01*
X525796Y154000D01*
X524204D01*
X523600Y154404D01*
Y168900D01*
X523372Y169450D01*
X523600Y170000D01*
Y185596D01*
X524204Y186000D01*
X525796D01*
X527266Y186609D01*
X528391Y187734D01*
X529000Y189204D01*
Y190796D01*
X528391Y192266D01*
X527266Y193391D01*
X525796Y194000D01*
X524204D01*
X523600Y194404D01*
Y203900D01*
X536400D01*
Y194404D01*
X535796Y194000D01*
X534204D01*
X532734Y193391D01*
X531609Y192266D01*
X531000Y190796D01*
Y189204D01*
X531609Y187734D01*
X532734Y186609D01*
X534204Y186000D01*
X535796D01*
X536400Y185596D01*
Y170000D01*
X536628Y169450D01*
X536400Y168900D01*
Y154404D01*
X535796Y154000D01*
X534204D01*
X532734Y153391D01*
X531609Y152266D01*
X531000Y150796D01*
Y149204D01*
X531609Y147734D01*
X532734Y146609D01*
X534204Y146000D01*
X535796D01*
X536400Y145596D01*
Y135000D01*
X536722Y134222D01*
X537500Y133900D01*
X605000D01*
X605778Y134222D01*
X606100Y135000D01*
Y220000D01*
X605778Y220778D01*
X605000Y221100D01*
X571100D01*
Y245000D01*
X570778Y245778D01*
X570000Y246100D01*
X491100D01*
Y276484D01*
X571016D01*
Y300516D01*
X491100D01*
Y319484D01*
X571016D01*
Y343516D01*
X491100D01*
Y373900D01*
X570000D01*
X570778Y374222D01*
X571100Y375000D01*
Y398900D01*
X605000D01*
X605778Y399222D01*
X606100Y400000D01*
Y485000D01*
X605778Y485778D01*
X605000Y486100D01*
X537500D01*
X536722Y485778D01*
X536400Y485000D01*
Y474404D01*
X535796Y474000D01*
X534204D01*
X532734Y473391D01*
X531609Y472266D01*
X531000Y470796D01*
Y469204D01*
X531609Y467734D01*
X532734Y466609D01*
X534204Y466000D01*
X535796D01*
X536400Y465596D01*
Y451100D01*
X536628Y450550D01*
X536400Y450000D01*
Y434404D01*
X535796Y434000D01*
X534204D01*
X532734Y433391D01*
X531609Y432266D01*
X531000Y430796D01*
Y429204D01*
X531609Y427734D01*
X532734Y426609D01*
X534204Y426000D01*
X535796D01*
X536400Y425596D01*
Y416100D01*
X523600D01*
Y425596D01*
X524204Y426000D01*
X525796D01*
X527266Y426609D01*
X528391Y427734D01*
X529000Y429204D01*
Y430796D01*
X528391Y432266D01*
X527266Y433391D01*
X525796Y434000D01*
X524204D01*
X523600Y434404D01*
Y450000D01*
X523372Y450550D01*
X523600Y451100D01*
Y465596D01*
X524204Y466000D01*
X525796D01*
X527266Y466609D01*
X528391Y467734D01*
X529000Y469204D01*
Y470796D01*
X528391Y472266D01*
X527266Y473391D01*
X525796Y474000D01*
X524204D01*
X523600Y474404D01*
Y485000D01*
X523278Y485778D01*
X522500Y486100D01*
X490000D01*
X489450Y485872D01*
X488900Y486100D01*
X231100D01*
Y588900D01*
X230872Y589450D01*
X231100Y590000D01*
Y628900D01*
X315000D01*
X315778Y629222D01*
X316100Y630000D01*
Y659984D01*
X315778Y660762D01*
X315021Y661075D01*
Y669016D01*
X311061D01*
Y680622D01*
X314292D01*
Y677138D01*
X314487Y676156D01*
X315043Y675324D01*
X324979Y665388D01*
Y661075D01*
X324222Y660762D01*
X323900Y659984D01*
Y650016D01*
X324222Y649238D01*
X324979Y648925D01*
Y646008D01*
X330995D01*
Y645500D01*
X331503D01*
Y640984D01*
X336400D01*
Y640000D01*
X336722Y639222D01*
X337500Y638900D01*
X365000D01*
X365778Y639222D01*
X366100Y640000D01*
Y700000D01*
X365778Y700778D01*
X365000Y701100D01*
X337500D01*
X336722Y700778D01*
X336400Y700000D01*
Y687565D01*
X329378D01*
Y689378D01*
X320193D01*
Y689378D01*
X319807D01*
Y689378D01*
X311061D01*
Y690654D01*
X328351Y707944D01*
X383148D01*
X393900Y697193D01*
Y640000D01*
X394222Y639222D01*
X395000Y638900D01*
X420000D01*
X420778Y639222D01*
X420780Y639228D01*
X421703Y639453D01*
X421703Y639453D01*
X429492D01*
Y646742D01*
X430000D01*
Y647250D01*
X438297D01*
Y653900D01*
X440000D01*
X440778Y654222D01*
X441100Y655000D01*
Y677435D01*
X471509D01*
X471738Y676578D01*
X472905Y674556D01*
X474556Y672905D01*
X476578Y671738D01*
X478833Y671134D01*
X481167D01*
X483422Y671738D01*
X485444Y672905D01*
X487095Y674556D01*
X488262Y676578D01*
X488866Y678833D01*
Y681167D01*
X488262Y683422D01*
X487095Y685444D01*
X485444Y687095D01*
X483422Y688262D01*
X481167Y688866D01*
X478833D01*
X476578Y688262D01*
X474556Y687095D01*
X472905Y685444D01*
X471738Y683422D01*
X471509Y682565D01*
X441100D01*
Y685000D01*
X440778Y685778D01*
X440000Y686100D01*
X438297D01*
Y692750D01*
X430000D01*
Y693258D01*
X429492D01*
Y700547D01*
X421703D01*
X421703Y700547D01*
Y700547D01*
X420746Y700791D01*
X420000Y701100D01*
X395807D01*
X385453Y711453D01*
X384787Y711899D01*
X384656Y711925D01*
X384000Y712056D01*
D02*
G37*
G36*
X438297Y700547D02*
X430508D01*
Y693766D01*
X438297D01*
Y700547D01*
D02*
G37*
G36*
X747540Y718730D02*
X721270D01*
Y692460D01*
X722168D01*
X726449Y693138D01*
X730572Y694478D01*
X734434Y696446D01*
X737941Y698994D01*
X741006Y702059D01*
X743554Y705566D01*
X745522Y709428D01*
X746862Y713551D01*
X747540Y717832D01*
Y718730D01*
D02*
G37*
G36*
X718730D02*
X692460D01*
Y717832D01*
X693138Y713551D01*
X694478Y709428D01*
X696446Y705566D01*
X698994Y702059D01*
X702059Y698994D01*
X705566Y696446D01*
X709428Y694478D01*
X713551Y693138D01*
X717832Y692460D01*
X718730D01*
Y718730D01*
D02*
G37*
G36*
X27540D02*
X1270D01*
Y692460D01*
X2167D01*
X6449Y693138D01*
X10572Y694478D01*
X14434Y696446D01*
X17941Y698994D01*
X21006Y702059D01*
X23554Y705566D01*
X25522Y709428D01*
X26862Y713551D01*
X27540Y717832D01*
Y718730D01*
D02*
G37*
G36*
X-1270D02*
X-27540D01*
Y717832D01*
X-26862Y713551D01*
X-25522Y709428D01*
X-23554Y705566D01*
X-21006Y702059D01*
X-17941Y698994D01*
X-14434Y696446D01*
X-10572Y694478D01*
X-6449Y693138D01*
X-2167Y692460D01*
X-1270D01*
Y718730D01*
D02*
G37*
G36*
X293516Y681016D02*
X280508D01*
Y675508D01*
X293516D01*
Y681016D01*
D02*
G37*
G36*
X279492D02*
X266484D01*
Y675508D01*
X279492D01*
Y681016D01*
D02*
G37*
G36*
X258516D02*
X245508D01*
Y675508D01*
X258516D01*
Y681016D01*
D02*
G37*
G36*
X244492D02*
X231484D01*
Y675508D01*
X244492D01*
Y681016D01*
D02*
G37*
G36*
X644706Y674378D02*
X640622D01*
Y670508D01*
X644706D01*
Y674378D01*
D02*
G37*
G36*
X293516Y674492D02*
X280508D01*
Y668984D01*
X293516D01*
Y674492D01*
D02*
G37*
G36*
X279492D02*
X266484D01*
Y668984D01*
X279492D01*
Y674492D01*
D02*
G37*
G36*
X258516Y674492D02*
X245508D01*
Y668984D01*
X258516D01*
Y674492D01*
D02*
G37*
G36*
X244492D02*
X231484D01*
Y668984D01*
X244492D01*
Y674492D01*
D02*
G37*
G36*
X644706Y669492D02*
X640622D01*
Y665622D01*
X644706D01*
Y669492D01*
D02*
G37*
G36*
X660000Y688600D02*
X650000D01*
X649222Y688278D01*
X648900Y687500D01*
Y674378D01*
X645722D01*
Y670000D01*
Y665622D01*
X648900D01*
Y645362D01*
X647884Y644819D01*
X647829Y644855D01*
X647258Y644969D01*
Y640000D01*
X646242D01*
Y644969D01*
X645671Y644855D01*
X644756Y644244D01*
X644145Y643329D01*
X644018Y642693D01*
X642982D01*
X642856Y643329D01*
X642244Y644244D01*
X641329Y644855D01*
X640358Y645049D01*
X634453Y650954D01*
X633787Y651399D01*
X633000Y651556D01*
X633000Y651555D01*
X631185D01*
X630891Y652266D01*
X629766Y653391D01*
X628296Y654000D01*
X626704D01*
X625234Y653391D01*
X624109Y652266D01*
X623500Y650796D01*
Y649204D01*
X624109Y647734D01*
X625234Y646609D01*
X626704Y646000D01*
X628296D01*
X629766Y646609D01*
X630601Y647445D01*
X632149D01*
X637430Y642163D01*
Y637750D01*
X637645Y636671D01*
X638256Y635756D01*
X638591Y635532D01*
X638283Y634516D01*
X635484D01*
Y631717D01*
X634468Y631409D01*
X634244Y631744D01*
X633329Y632355D01*
X632250Y632570D01*
X627837D01*
X622555Y637851D01*
Y639399D01*
X623391Y640234D01*
X624000Y641704D01*
Y643296D01*
X623391Y644766D01*
X622266Y645891D01*
X620796Y646500D01*
X619204D01*
X617734Y645891D01*
X616609Y644766D01*
X616000Y643296D01*
Y641704D01*
X616609Y640234D01*
X617734Y639109D01*
X618445Y638815D01*
Y637000D01*
X618444Y637000D01*
X618601Y636213D01*
X619047Y635547D01*
X624951Y629642D01*
X625145Y628671D01*
X625756Y627756D01*
X626671Y627145D01*
X627307Y627018D01*
Y625982D01*
X626671Y625855D01*
X625848Y625305D01*
X605806D01*
Y626500D01*
X605649Y627287D01*
X605204Y627953D01*
X604537Y628399D01*
X603750Y628555D01*
X596250D01*
X595463Y628399D01*
X594796Y627953D01*
X594351Y627287D01*
X594194Y626500D01*
Y620500D01*
X594351Y619713D01*
X594796Y619047D01*
X595463Y618601D01*
X596250Y618445D01*
X603750D01*
X604537Y618601D01*
X605204Y619047D01*
X605649Y619713D01*
X605806Y620500D01*
Y621194D01*
X625848D01*
X626671Y620644D01*
X627307Y620518D01*
Y619482D01*
X626671Y619356D01*
X625848Y618806D01*
X620750D01*
X620750Y618806D01*
X619963Y618649D01*
X619296Y618204D01*
X619296Y618203D01*
X598975Y597882D01*
X598530Y597215D01*
X598373Y596429D01*
X598373Y596429D01*
Y574378D01*
X595622D01*
Y565622D01*
X598159D01*
Y561555D01*
X593750D01*
X592963Y561399D01*
X592296Y560953D01*
X591851Y560287D01*
X591694Y559500D01*
Y553500D01*
X591851Y552713D01*
X592296Y552047D01*
X592963Y551601D01*
X593750Y551445D01*
X601250D01*
X602037Y551601D01*
X602704Y552047D01*
X603149Y552713D01*
X603306Y553500D01*
Y559500D01*
X603149Y560287D01*
X602704Y560953D01*
X602270Y561243D01*
Y564903D01*
X602988Y565622D01*
X604807Y565622D01*
X605823Y565622D01*
X607730D01*
Y561243D01*
X607296Y560953D01*
X606851Y560287D01*
X606694Y559500D01*
Y553500D01*
X606851Y552713D01*
X607296Y552047D01*
X607963Y551601D01*
X608750Y551445D01*
X616250D01*
X617037Y551601D01*
X617704Y552047D01*
X618149Y552713D01*
X618306Y553500D01*
Y559500D01*
X618149Y560287D01*
X617704Y560953D01*
X617037Y561399D01*
X616250Y561555D01*
X611841D01*
Y565622D01*
X614378D01*
Y574378D01*
X611841D01*
Y594934D01*
X625101Y608195D01*
X625848D01*
X626671Y607645D01*
X627750Y607430D01*
X632250D01*
X633329Y607645D01*
X634244Y608256D01*
X634468Y608591D01*
X635484Y608283D01*
Y605484D01*
X638283D01*
X638591Y604468D01*
X638256Y604244D01*
X637645Y603329D01*
X637430Y602250D01*
Y597750D01*
X637645Y596671D01*
X638195Y595848D01*
Y589291D01*
X628975Y580071D01*
X628530Y579404D01*
X628373Y578618D01*
X628373Y578618D01*
Y574378D01*
X625622D01*
Y565622D01*
X628159D01*
Y561555D01*
X623750D01*
X622963Y561399D01*
X622296Y560953D01*
X621851Y560287D01*
X621694Y559500D01*
Y553500D01*
X621851Y552713D01*
X622296Y552047D01*
X622963Y551601D01*
X623750Y551445D01*
X631250D01*
X632037Y551601D01*
X632704Y552047D01*
X633149Y552713D01*
X633306Y553500D01*
Y559500D01*
X633149Y560287D01*
X632704Y560953D01*
X632270Y561243D01*
Y564903D01*
X632988Y565622D01*
X634807Y565622D01*
X635823Y565622D01*
X637730D01*
Y561243D01*
X637296Y560953D01*
X636851Y560287D01*
X636694Y559500D01*
Y553500D01*
X636851Y552713D01*
X637296Y552047D01*
X637963Y551601D01*
X638750Y551445D01*
X646250D01*
X647037Y551601D01*
X647703Y552047D01*
X648149Y552713D01*
X648306Y553500D01*
Y559500D01*
X648149Y560287D01*
X647703Y560953D01*
X647037Y561399D01*
X646250Y561555D01*
X641841D01*
Y565622D01*
X644378D01*
Y574378D01*
X641841D01*
Y577934D01*
X648204Y584296D01*
X648649Y584963D01*
X648805Y585750D01*
X648805Y585750D01*
Y595848D01*
X649355Y596671D01*
X649482Y597307D01*
X650518D01*
X650645Y596671D01*
X651195Y595848D01*
Y585750D01*
X651195Y585750D01*
X651351Y584963D01*
X651796Y584296D01*
X658159Y577934D01*
Y574378D01*
X655622D01*
Y565622D01*
X658159D01*
Y561555D01*
X653750D01*
X652963Y561399D01*
X652297Y560953D01*
X651851Y560287D01*
X651694Y559500D01*
Y553500D01*
X651851Y552713D01*
X652297Y552047D01*
X652963Y551601D01*
X653750Y551445D01*
X661250D01*
X662037Y551601D01*
X662703Y552047D01*
X663149Y552713D01*
X663306Y553500D01*
Y559500D01*
X663149Y560287D01*
X662703Y560953D01*
X662270Y561243D01*
Y564903D01*
X662988Y565622D01*
X664807Y565622D01*
X665823Y565622D01*
X667730D01*
Y561243D01*
X667297Y560953D01*
X666851Y560287D01*
X666694Y559500D01*
Y553500D01*
X666851Y552713D01*
X667297Y552047D01*
X667963Y551601D01*
X668750Y551445D01*
X676250D01*
X677037Y551601D01*
X677703Y552047D01*
X678149Y552713D01*
X678306Y553500D01*
Y559500D01*
X678149Y560287D01*
X677703Y560953D01*
X677037Y561399D01*
X676250Y561555D01*
X671841D01*
Y565622D01*
X674378D01*
Y574378D01*
X671841D01*
Y578403D01*
X671841Y578404D01*
X671685Y579190D01*
X671239Y579857D01*
X661805Y589291D01*
Y595848D01*
X662355Y596671D01*
X662570Y597750D01*
Y602250D01*
X662355Y603329D01*
X661744Y604244D01*
X661409Y604468D01*
X661717Y605484D01*
X664516D01*
Y608283D01*
X665532Y608591D01*
X665756Y608256D01*
X666671Y607645D01*
X667750Y607430D01*
X672250D01*
X673329Y607645D01*
X674152Y608195D01*
X674899D01*
X688159Y594934D01*
Y574378D01*
X685622D01*
Y565622D01*
X688159D01*
Y561555D01*
X683750D01*
X682963Y561399D01*
X682297Y560953D01*
X681851Y560287D01*
X681694Y559500D01*
Y553500D01*
X681851Y552713D01*
X682297Y552047D01*
X682963Y551601D01*
X683750Y551445D01*
X691250D01*
X692037Y551601D01*
X692703Y552047D01*
X693149Y552713D01*
X693306Y553500D01*
Y559500D01*
X693149Y560287D01*
X692703Y560953D01*
X692270Y561243D01*
Y564903D01*
X692988Y565622D01*
X694807Y565622D01*
X695823Y565622D01*
X697944D01*
Y561386D01*
X697297Y560953D01*
X696851Y560287D01*
X696694Y559500D01*
Y553500D01*
X696851Y552713D01*
X697297Y552047D01*
X697963Y551601D01*
X698750Y551445D01*
X706250D01*
X707037Y551601D01*
X707703Y552047D01*
X708149Y552713D01*
X708306Y553500D01*
Y559500D01*
X708149Y560287D01*
X707703Y560953D01*
X707037Y561399D01*
X706250Y561555D01*
X702056D01*
Y565622D01*
X704378D01*
Y574378D01*
X701627D01*
Y596429D01*
X701627Y596429D01*
X701470Y597215D01*
X701025Y597882D01*
X701025Y597882D01*
X681023Y617884D01*
X681443Y618900D01*
X717500D01*
X718278Y619222D01*
X718600Y620000D01*
Y630000D01*
X718278Y630778D01*
X717500Y631100D01*
X704378D01*
Y634277D01*
X700000D01*
X695622D01*
Y631100D01*
X694556D01*
Y640149D01*
X697703Y643297D01*
X697703Y643297D01*
X697802Y643445D01*
X703750D01*
X704537Y643601D01*
X705203Y644047D01*
X705649Y644713D01*
X705806Y645500D01*
Y651500D01*
X705649Y652287D01*
X705203Y652953D01*
X704537Y653399D01*
X703750Y653556D01*
X696399D01*
X696136Y653910D01*
X695936Y654529D01*
X697703Y656297D01*
X697802Y656444D01*
X703750D01*
X704537Y656601D01*
X705203Y657047D01*
X705649Y657713D01*
X705806Y658500D01*
Y664500D01*
X705649Y665287D01*
X705203Y665954D01*
X704537Y666399D01*
X703750Y666555D01*
X696250D01*
X695463Y666399D01*
X694797Y665954D01*
X694351Y665287D01*
X694194Y664500D01*
Y658602D01*
X670797Y635204D01*
X670351Y634537D01*
X670194Y633750D01*
X670194Y633750D01*
Y632570D01*
X667750D01*
X666671Y632355D01*
X665756Y631744D01*
X665532Y631409D01*
X664516Y631717D01*
Y634516D01*
X661717D01*
X661409Y635532D01*
X661744Y635756D01*
X662355Y636671D01*
X662570Y637750D01*
Y638151D01*
X663328Y638773D01*
X664115Y638929D01*
X664782Y639375D01*
X682953Y657546D01*
X682953Y657546D01*
X683399Y658213D01*
X683556Y659000D01*
Y664194D01*
X684500D01*
X685287Y664351D01*
X685954Y664797D01*
X686399Y665463D01*
X686555Y666250D01*
Y673750D01*
X686399Y674537D01*
X685954Y675203D01*
X685287Y675649D01*
X684500Y675806D01*
X678500D01*
X677713Y675649D01*
X677047Y675203D01*
X676601Y674537D01*
X676444Y673750D01*
Y666250D01*
X676601Y665463D01*
X677047Y664797D01*
X677713Y664351D01*
X678500Y664194D01*
X679445D01*
Y659851D01*
X663259Y643666D01*
X663234Y643657D01*
X662007Y643851D01*
X661744Y644244D01*
X660905Y644805D01*
X660920Y644840D01*
X661094Y645167D01*
X661078Y645222D01*
X661100Y645275D01*
Y667944D01*
X663445D01*
Y666250D01*
X663601Y665463D01*
X664047Y664797D01*
X664713Y664351D01*
X665500Y664194D01*
X671500D01*
X672287Y664351D01*
X672953Y664797D01*
X673399Y665463D01*
X673556Y666250D01*
Y673750D01*
X673399Y674537D01*
X672953Y675203D01*
X672287Y675649D01*
X671500Y675806D01*
X665500D01*
X664713Y675649D01*
X664047Y675203D01*
X663601Y674537D01*
X663445Y673750D01*
Y672056D01*
X661100D01*
Y687500D01*
X660778Y688278D01*
X660000Y688600D01*
D02*
G37*
G36*
X330487Y644992D02*
X324979D01*
Y640984D01*
X330487D01*
Y644992D01*
D02*
G37*
G36*
X438297Y646234D02*
X430508D01*
Y639453D01*
X438297D01*
Y646234D01*
D02*
G37*
G36*
X603750Y641555D02*
X600508D01*
Y637008D01*
X605806D01*
Y639500D01*
X605649Y640287D01*
X605204Y640954D01*
X604537Y641399D01*
X603750Y641555D01*
D02*
G37*
G36*
X599492D02*
X596250D01*
X595463Y641399D01*
X594796Y640954D01*
X594351Y640287D01*
X594194Y639500D01*
Y637008D01*
X599492D01*
Y641555D01*
D02*
G37*
G36*
X704378Y639378D02*
X700508D01*
Y635293D01*
X704378D01*
Y639378D01*
D02*
G37*
G36*
X699492D02*
X695622D01*
Y635293D01*
X699492D01*
Y639378D01*
D02*
G37*
G36*
X605806Y635992D02*
X600508D01*
Y631445D01*
X603750D01*
X604537Y631601D01*
X605204Y632047D01*
X605649Y632713D01*
X605806Y633500D01*
Y635992D01*
D02*
G37*
G36*
X599492D02*
X594194D01*
Y633500D01*
X594351Y632713D01*
X594796Y632047D01*
X595463Y631601D01*
X596250Y631445D01*
X599492D01*
Y635992D01*
D02*
G37*
G36*
X110000Y656100D02*
X50000D01*
X49222Y655778D01*
X48900Y655000D01*
Y625000D01*
X49222Y624222D01*
X50000Y623900D01*
X110000D01*
X110778Y624222D01*
X111100Y625000D01*
Y655000D01*
X110778Y655778D01*
X110000Y656100D01*
D02*
G37*
G36*
X172150Y657525D02*
X167850D01*
X167072Y657203D01*
X166750Y656425D01*
Y656100D01*
X130000D01*
X129222Y655778D01*
X128900Y655000D01*
Y625000D01*
X129222Y624222D01*
X130000Y623900D01*
X166926D01*
X167072Y623547D01*
X167850Y623225D01*
X172150D01*
X172928Y623547D01*
X173074Y623900D01*
X175000D01*
X175778Y624222D01*
X176100Y625000D01*
Y627025D01*
X176300D01*
X177078Y627347D01*
X177400Y628125D01*
Y652625D01*
X177078Y653403D01*
X176300Y653725D01*
X176100D01*
Y655000D01*
X175778Y655778D01*
X175000Y656100D01*
X173250D01*
Y656425D01*
X172928Y657203D01*
X172150Y657525D01*
D02*
G37*
G36*
X310000Y616100D02*
X252500D01*
X251722Y615778D01*
X251400Y615000D01*
Y610991D01*
X250384Y610683D01*
X250203Y610953D01*
X249537Y611399D01*
X248750Y611555D01*
X241250D01*
X240463Y611399D01*
X239797Y610953D01*
X239351Y610287D01*
X239195Y609500D01*
Y603500D01*
X239351Y602713D01*
X239797Y602047D01*
X240463Y601601D01*
X241250Y601445D01*
X248750D01*
X249537Y601601D01*
X250203Y602047D01*
X250384Y602317D01*
X251400Y602009D01*
Y601733D01*
X251457Y601596D01*
X251437Y601450D01*
X251612Y601221D01*
X251722Y600955D01*
X252053Y599960D01*
X250109Y598016D01*
X249537Y598399D01*
X248750Y598555D01*
X241250D01*
X240463Y598399D01*
X239797Y597953D01*
X239351Y597287D01*
X239195Y596500D01*
Y590500D01*
X239351Y589713D01*
X239797Y589047D01*
X240463Y588601D01*
X241250Y588445D01*
X248750D01*
X249537Y588601D01*
X250203Y589047D01*
X250649Y589713D01*
X250805Y590500D01*
Y592911D01*
X250954Y593898D01*
X251740Y594054D01*
X252407Y594500D01*
X255117Y597211D01*
X257234D01*
Y593008D01*
X265000D01*
X272766D01*
Y597211D01*
X277234D01*
Y593008D01*
X285000D01*
X292766D01*
Y597211D01*
X294883D01*
X296797Y595297D01*
X297463Y594851D01*
X298250Y594695D01*
X298250Y594695D01*
X299493D01*
X300234Y593984D01*
Y593016D01*
X300234Y592968D01*
Y590758D01*
X304500D01*
X308766D01*
Y592968D01*
X308766Y593016D01*
Y593984D01*
X308766Y594032D01*
Y598900D01*
X310000D01*
X310218Y598991D01*
X311234Y598351D01*
Y586984D01*
X319492D01*
Y600000D01*
Y613016D01*
X311234Y613016D01*
X311100Y613976D01*
Y615000D01*
X310778Y615778D01*
X310000Y616100D01*
D02*
G37*
G36*
X11170Y618890D02*
X10508D01*
Y610508D01*
X18890D01*
Y611170D01*
X18284Y613431D01*
X17114Y615459D01*
X15459Y617114D01*
X13431Y618284D01*
X11170Y618890D01*
D02*
G37*
G36*
X9492D02*
X8830D01*
X6569Y618284D01*
X4541Y617114D01*
X2886Y615459D01*
X1716Y613431D01*
X1110Y611170D01*
Y610508D01*
X9492D01*
Y618890D01*
D02*
G37*
G36*
X410000Y631100D02*
X330000D01*
X329222Y630778D01*
X328900Y630000D01*
Y613976D01*
X328766Y613016D01*
X327884Y613016D01*
X320508D01*
Y600508D01*
X328766D01*
Y603351D01*
X329782Y603991D01*
X330000Y603900D01*
X331234D01*
Y600532D01*
X331234Y600484D01*
Y599516D01*
X331234Y599468D01*
Y594032D01*
X331234Y593984D01*
Y593016D01*
X331234Y592968D01*
Y587484D01*
X339428D01*
X339766Y587484D01*
X340444Y586749D01*
Y583351D01*
X330317Y573224D01*
X329378Y573613D01*
Y574378D01*
X320823D01*
X320193Y574378D01*
X319177Y574378D01*
X315722D01*
Y570000D01*
Y565622D01*
X319177D01*
X319807Y565622D01*
X320823Y565622D01*
X329378D01*
Y567549D01*
X330191Y568135D01*
X330977Y568292D01*
X331644Y568737D01*
X343954Y581046D01*
X344399Y581713D01*
X344437Y581904D01*
X345453Y581804D01*
Y577963D01*
X359492D01*
Y586746D01*
Y595528D01*
X345453D01*
Y595524D01*
X344437Y595424D01*
X344399Y595615D01*
X343954Y596282D01*
X343953Y596282D01*
X342782Y597453D01*
X342115Y597899D01*
X341329Y598055D01*
X341328Y598055D01*
X339766D01*
Y599468D01*
X339766Y599516D01*
Y600484D01*
X340507Y601194D01*
X340899D01*
X343547Y598546D01*
X344213Y598101D01*
X345000Y597944D01*
X345000Y597944D01*
X409899D01*
X414194Y593649D01*
Y588500D01*
X414351Y587713D01*
X414797Y587047D01*
X415463Y586601D01*
X416250Y586445D01*
X423750D01*
X424537Y586601D01*
X425204Y587047D01*
X425649Y587713D01*
X425806Y588500D01*
Y594500D01*
X425649Y595287D01*
X425204Y595953D01*
X424537Y596399D01*
X423750Y596555D01*
X422056D01*
Y598445D01*
X423750D01*
X424537Y598601D01*
X425204Y599047D01*
X425649Y599713D01*
X425806Y600500D01*
Y606500D01*
X425649Y607287D01*
X425204Y607953D01*
X424537Y608399D01*
X423750Y608555D01*
X416250D01*
X415463Y608399D01*
X414797Y607953D01*
X414351Y607287D01*
X414194Y606500D01*
Y600899D01*
X413194Y600463D01*
X412203Y601454D01*
X411537Y601899D01*
X411100Y602056D01*
Y614190D01*
X414194D01*
Y613500D01*
X414351Y612713D01*
X414797Y612047D01*
X415463Y611601D01*
X416250Y611445D01*
X423750D01*
X424537Y611601D01*
X425204Y612047D01*
X425649Y612713D01*
X425806Y613500D01*
Y619500D01*
X425649Y620287D01*
X425204Y620953D01*
X424537Y621399D01*
X424438Y621419D01*
X424538Y622435D01*
X463937D01*
X472182Y614190D01*
X471738Y613422D01*
X471134Y611167D01*
Y608833D01*
X471738Y606578D01*
X472905Y604556D01*
X474556Y602905D01*
X476578Y601738D01*
X478833Y601134D01*
X481167D01*
X483422Y601738D01*
X485444Y602905D01*
X487095Y604556D01*
X488262Y606578D01*
X488866Y608833D01*
Y611167D01*
X488262Y613422D01*
X487095Y615444D01*
X485444Y617094D01*
X483422Y618262D01*
X481167Y618866D01*
X478833D01*
X476578Y618262D01*
X475810Y617818D01*
X466814Y626814D01*
X465982Y627370D01*
X465000Y627565D01*
X411100D01*
Y630000D01*
X410778Y630778D01*
X410000Y631100D01*
D02*
G37*
G36*
X18890Y609492D02*
X10508D01*
Y601110D01*
X11170D01*
X13431Y601716D01*
X15459Y602886D01*
X17114Y604541D01*
X18284Y606569D01*
X18890Y608830D01*
Y609492D01*
D02*
G37*
G36*
X9492D02*
X1110D01*
Y608830D01*
X1716Y606569D01*
X2886Y604541D01*
X4541Y602886D01*
X6569Y601716D01*
X8830Y601110D01*
X9492D01*
Y609492D01*
D02*
G37*
G36*
X308766Y589742D02*
X305008D01*
Y587484D01*
X308766D01*
Y589742D01*
D02*
G37*
G36*
X303992D02*
X300234D01*
Y587484D01*
X303992D01*
Y589742D01*
D02*
G37*
G36*
X374547Y595528D02*
X360508D01*
Y587254D01*
X374547D01*
Y595528D01*
D02*
G37*
G36*
X409547D02*
X395508D01*
Y587253D01*
X409547D01*
Y595528D01*
D02*
G37*
G36*
X394492D02*
X380453D01*
Y587253D01*
X394492D01*
Y595528D01*
D02*
G37*
G36*
X328766Y599492D02*
X320508D01*
Y586984D01*
X328766D01*
Y599492D01*
D02*
G37*
G36*
X292766Y591992D02*
X285508D01*
Y586734D01*
X292766D01*
Y591992D01*
D02*
G37*
G36*
X284492D02*
X277234D01*
Y586734D01*
X284492D01*
Y591992D01*
D02*
G37*
G36*
X272766Y591992D02*
X265508D01*
Y586734D01*
X272766D01*
Y591992D01*
D02*
G37*
G36*
X264492D02*
X257234D01*
Y586734D01*
X264492D01*
Y591992D01*
D02*
G37*
G36*
X423750Y583555D02*
X420508D01*
Y579008D01*
X425806D01*
Y581500D01*
X425649Y582287D01*
X425204Y582953D01*
X424537Y583399D01*
X423750Y583555D01*
D02*
G37*
G36*
X419492D02*
X416250D01*
X415463Y583399D01*
X414797Y582953D01*
X414351Y582287D01*
X414194Y581500D01*
Y579008D01*
X419492D01*
Y583555D01*
D02*
G37*
G36*
X409547Y586237D02*
X395508D01*
Y577963D01*
X409547D01*
Y586237D01*
D02*
G37*
G36*
X394492D02*
X380453D01*
Y577963D01*
X394492D01*
Y586237D01*
D02*
G37*
G36*
X374547Y586238D02*
X360508D01*
Y577963D01*
X374547D01*
Y586238D01*
D02*
G37*
G36*
X425806Y577992D02*
X420508D01*
Y573445D01*
X423750D01*
X424537Y573601D01*
X425204Y574047D01*
X425649Y574713D01*
X425806Y575500D01*
Y577992D01*
D02*
G37*
G36*
X419492D02*
X414194D01*
Y575500D01*
X414351Y574713D01*
X414797Y574047D01*
X415463Y573601D01*
X416250Y573445D01*
X419492D01*
Y577992D01*
D02*
G37*
G36*
X314706Y574378D02*
X310622D01*
Y570508D01*
X314706D01*
Y574378D01*
D02*
G37*
G36*
Y569492D02*
X310622D01*
Y565622D01*
X314706D01*
Y569492D01*
D02*
G37*
G36*
X310000Y546100D02*
X252500D01*
X251722Y545778D01*
X251400Y545000D01*
Y540991D01*
X250384Y540683D01*
X250203Y540953D01*
X249537Y541399D01*
X248750Y541555D01*
X241250D01*
X240463Y541399D01*
X239797Y540953D01*
X239351Y540287D01*
X239195Y539500D01*
Y533500D01*
X239351Y532713D01*
X239797Y532047D01*
X240463Y531601D01*
X241250Y531445D01*
X248750D01*
X249537Y531601D01*
X250203Y532047D01*
X250384Y532317D01*
X251400Y532009D01*
Y531732D01*
X251457Y531596D01*
X251437Y531450D01*
X251612Y531221D01*
X251722Y530955D01*
X252053Y529960D01*
X250109Y528016D01*
X249537Y528399D01*
X248750Y528555D01*
X241250D01*
X240463Y528399D01*
X239797Y527953D01*
X239351Y527287D01*
X239195Y526500D01*
Y520500D01*
X239351Y519713D01*
X239797Y519047D01*
X240463Y518601D01*
X241250Y518445D01*
X248750D01*
X249537Y518601D01*
X250203Y519047D01*
X250649Y519713D01*
X250805Y520500D01*
Y522911D01*
X250954Y523898D01*
X251740Y524054D01*
X252407Y524500D01*
X255117Y527211D01*
X257234D01*
Y523008D01*
X265000D01*
Y522500D01*
D01*
Y523008D01*
X272766D01*
Y527211D01*
X277234D01*
Y523008D01*
X285000D01*
X292766D01*
Y527211D01*
X294883D01*
X296796Y525297D01*
X296797Y525297D01*
X297463Y524851D01*
X298250Y524695D01*
X298250Y524695D01*
X299493D01*
X300234Y523984D01*
Y523016D01*
X300234Y522968D01*
Y520758D01*
X304500D01*
X308766D01*
Y522968D01*
X308766Y523016D01*
Y523984D01*
X308766Y524032D01*
Y528900D01*
X310000D01*
X310218Y528991D01*
X311234Y528351D01*
Y516984D01*
X319492D01*
Y530000D01*
Y543016D01*
X311234Y543016D01*
X311100Y543976D01*
Y545000D01*
X310778Y545778D01*
X310000Y546100D01*
D02*
G37*
G36*
X706250Y548555D02*
X698750D01*
X697963Y548399D01*
X697297Y547953D01*
X696851Y547287D01*
X696694Y546500D01*
Y542351D01*
X696609Y542266D01*
X696000Y540796D01*
Y539204D01*
X696609Y537734D01*
X697734Y536609D01*
X699204Y536000D01*
X700796D01*
X702266Y536609D01*
X703391Y537734D01*
X703685Y538445D01*
X706250D01*
X707037Y538601D01*
X707703Y539047D01*
X708149Y539713D01*
X708306Y540500D01*
Y546500D01*
X708149Y547287D01*
X707703Y547953D01*
X707037Y548399D01*
X706250Y548555D01*
D02*
G37*
G36*
X676250D02*
X668750D01*
X667963Y548399D01*
X667297Y547953D01*
X666851Y547287D01*
X666694Y546500D01*
Y542351D01*
X666609Y542266D01*
X666000Y540796D01*
Y539204D01*
X666609Y537734D01*
X667734Y536609D01*
X669204Y536000D01*
X670796D01*
X672266Y536609D01*
X673391Y537734D01*
X673685Y538445D01*
X676250D01*
X677037Y538601D01*
X677703Y539047D01*
X678149Y539713D01*
X678306Y540500D01*
Y546500D01*
X678149Y547287D01*
X677703Y547953D01*
X677037Y548399D01*
X676250Y548555D01*
D02*
G37*
G36*
X631250D02*
X623750D01*
X622963Y548399D01*
X622296Y547953D01*
X621851Y547287D01*
X621694Y546500D01*
Y540500D01*
X621851Y539713D01*
X622296Y539047D01*
X622963Y538601D01*
X623750Y538445D01*
X626315D01*
X626609Y537734D01*
X627734Y536609D01*
X629204Y536000D01*
X630796D01*
X632266Y536609D01*
X633391Y537734D01*
X634000Y539204D01*
Y540796D01*
X633391Y542266D01*
X633306Y542351D01*
Y546500D01*
X633149Y547287D01*
X632704Y547953D01*
X632037Y548399D01*
X631250Y548555D01*
D02*
G37*
G36*
X601250D02*
X593750D01*
X592963Y548399D01*
X592296Y547953D01*
X591851Y547287D01*
X591694Y546500D01*
Y540500D01*
X591851Y539713D01*
X592296Y539047D01*
X592963Y538601D01*
X593750Y538445D01*
X596315D01*
X596609Y537734D01*
X597734Y536609D01*
X599204Y536000D01*
X600796D01*
X602266Y536609D01*
X603391Y537734D01*
X604000Y539204D01*
Y540796D01*
X603391Y542266D01*
X603306Y542351D01*
Y546500D01*
X603149Y547287D01*
X602704Y547953D01*
X602037Y548399D01*
X601250Y548555D01*
D02*
G37*
G36*
X646250D02*
X638750D01*
X637963Y548399D01*
X637296Y547953D01*
X636851Y547287D01*
X636694Y546500D01*
Y542351D01*
X636609Y542266D01*
X636000Y540796D01*
Y539204D01*
X636609Y537734D01*
X637734Y536609D01*
X637944Y536522D01*
Y535097D01*
X637226Y534378D01*
X635193Y534378D01*
X634177Y534378D01*
X630722D01*
Y530000D01*
Y525622D01*
X634177D01*
X634807Y525622D01*
X635823Y525622D01*
X644378D01*
Y534378D01*
X642056D01*
Y536522D01*
X642266Y536609D01*
X643391Y537734D01*
X643685Y538445D01*
X646250D01*
X647037Y538601D01*
X647703Y539047D01*
X648149Y539713D01*
X648306Y540500D01*
Y546500D01*
X648149Y547287D01*
X647703Y547953D01*
X647037Y548399D01*
X646250Y548555D01*
D02*
G37*
G36*
X616250D02*
X608750D01*
X607963Y548399D01*
X607296Y547953D01*
X606851Y547287D01*
X606694Y546500D01*
Y542351D01*
X606609Y542266D01*
X606000Y540796D01*
Y539204D01*
X606609Y537734D01*
X607734Y536609D01*
X607944Y536522D01*
Y535097D01*
X607226Y534378D01*
X605193Y534378D01*
X604177Y534378D01*
X600722D01*
Y530000D01*
Y525622D01*
X604177D01*
X604807Y525622D01*
X605823Y525622D01*
X614378D01*
Y534378D01*
X612056D01*
Y536522D01*
X612266Y536609D01*
X613391Y537734D01*
X613685Y538445D01*
X616250D01*
X617037Y538601D01*
X617704Y539047D01*
X618149Y539713D01*
X618306Y540500D01*
Y546500D01*
X618149Y547287D01*
X617704Y547953D01*
X617037Y548399D01*
X616250Y548555D01*
D02*
G37*
G36*
X410000Y561100D02*
X330000D01*
X329222Y560778D01*
X328900Y560000D01*
Y543976D01*
X328766Y543016D01*
X327884Y543016D01*
X320508D01*
Y530508D01*
X328766D01*
Y533351D01*
X329782Y533991D01*
X330000Y533900D01*
X331234D01*
Y530532D01*
X331234Y530484D01*
Y529516D01*
X331234Y529468D01*
Y524032D01*
X331234Y523984D01*
Y523016D01*
X331234Y522968D01*
Y517484D01*
X339428D01*
X339766Y517484D01*
X340444Y516749D01*
Y513351D01*
X330317Y503224D01*
X329378Y503613D01*
Y504378D01*
X320823D01*
X320193Y504378D01*
X319177Y504378D01*
X315722D01*
Y500000D01*
Y495622D01*
X319177D01*
X319807Y495622D01*
X320823Y495622D01*
X329378D01*
Y497549D01*
X330191Y498135D01*
X330977Y498292D01*
X331644Y498737D01*
X343954Y511046D01*
X344399Y511713D01*
X344437Y511904D01*
X345453Y511804D01*
Y507963D01*
X359492D01*
Y516746D01*
Y525528D01*
X345453D01*
Y525524D01*
X344437Y525424D01*
X344399Y525615D01*
X343954Y526282D01*
X343953Y526282D01*
X342782Y527453D01*
X342115Y527899D01*
X341329Y528055D01*
X341328Y528055D01*
X339766D01*
Y529468D01*
X339766Y529516D01*
Y530484D01*
X340507Y531194D01*
X340899D01*
X343547Y528546D01*
X344213Y528101D01*
X345000Y527944D01*
X345000Y527944D01*
X409899D01*
X414194Y523649D01*
Y518500D01*
X414351Y517713D01*
X414797Y517047D01*
X415463Y516601D01*
X416250Y516445D01*
X423750D01*
X424537Y516601D01*
X425204Y517047D01*
X425649Y517713D01*
X425806Y518500D01*
Y524500D01*
X425649Y525287D01*
X425204Y525953D01*
X424537Y526399D01*
X423750Y526555D01*
X422056D01*
Y528445D01*
X423750D01*
X424537Y528601D01*
X425204Y529047D01*
X425649Y529713D01*
X425806Y530500D01*
Y536500D01*
X425649Y537287D01*
X425204Y537953D01*
X424537Y538399D01*
X423750Y538555D01*
X416250D01*
X415463Y538399D01*
X414797Y537953D01*
X414351Y537287D01*
X414194Y536500D01*
Y530899D01*
X413194Y530463D01*
X412203Y531454D01*
X411537Y531899D01*
X411100Y532056D01*
Y544356D01*
X414194D01*
Y543500D01*
X414351Y542713D01*
X414797Y542047D01*
X415463Y541601D01*
X416250Y541445D01*
X423750D01*
X424537Y541601D01*
X425204Y542047D01*
X425649Y542713D01*
X425806Y543500D01*
Y549500D01*
X425649Y550287D01*
X425204Y550953D01*
X424537Y551399D01*
X424438Y551419D01*
X424538Y552435D01*
X463937D01*
X472182Y544190D01*
X471738Y543422D01*
X471134Y541167D01*
Y538833D01*
X471738Y536578D01*
X472905Y534556D01*
X474556Y532905D01*
X476578Y531738D01*
X478833Y531134D01*
X481167D01*
X483422Y531738D01*
X485444Y532905D01*
X487095Y534556D01*
X488262Y536578D01*
X488866Y538833D01*
Y541167D01*
X488262Y543422D01*
X487095Y545444D01*
X485444Y547095D01*
X483422Y548262D01*
X481167Y548866D01*
X478833D01*
X476578Y548262D01*
X475810Y547818D01*
X466814Y556814D01*
X465982Y557370D01*
X465000Y557565D01*
X411100D01*
Y560000D01*
X410778Y560778D01*
X410000Y561100D01*
D02*
G37*
G36*
X700294Y534378D02*
Y530508D01*
X704378D01*
Y534378D01*
X700294D01*
D02*
G37*
G36*
X670294D02*
Y530508D01*
X674378D01*
Y534378D01*
X670294D01*
D02*
G37*
G36*
X629706D02*
X625622D01*
Y530508D01*
X629706D01*
Y534378D01*
D02*
G37*
G36*
X599706D02*
X595622D01*
Y530508D01*
X599706D01*
Y534378D01*
D02*
G37*
G36*
X704378Y529492D02*
X700294D01*
Y525622D01*
X704378D01*
Y529492D01*
D02*
G37*
G36*
X674378D02*
X670294D01*
Y525622D01*
X674378D01*
Y529492D01*
D02*
G37*
G36*
X629706D02*
X625622D01*
Y525622D01*
X629706D01*
Y529492D01*
D02*
G37*
G36*
X599706D02*
X595622D01*
Y525622D01*
X599706D01*
Y529492D01*
D02*
G37*
G36*
X691250Y548555D02*
X683750D01*
X682963Y548399D01*
X682297Y547953D01*
X681851Y547287D01*
X681694Y546500D01*
Y540500D01*
X681851Y539713D01*
X682297Y539047D01*
X682963Y538601D01*
X683750Y538445D01*
X686315D01*
X686609Y537734D01*
X687734Y536609D01*
X687944Y536522D01*
Y534378D01*
X685622D01*
Y525622D01*
X694177D01*
X694807Y525622D01*
X695823Y525622D01*
X699278D01*
Y530000D01*
Y534378D01*
X695823D01*
X695193Y534378D01*
X694177Y534378D01*
X692056D01*
Y536522D01*
X692266Y536609D01*
X693391Y537734D01*
X694000Y539204D01*
Y540796D01*
X693391Y542266D01*
X693306Y542351D01*
Y546500D01*
X693149Y547287D01*
X692703Y547953D01*
X692037Y548399D01*
X691250Y548555D01*
D02*
G37*
G36*
X661250D02*
X653750D01*
X652963Y548399D01*
X652297Y547953D01*
X651851Y547287D01*
X651694Y546500D01*
Y540500D01*
X651851Y539713D01*
X652297Y539047D01*
X652963Y538601D01*
X653750Y538445D01*
X656315D01*
X656609Y537734D01*
X657734Y536609D01*
X657944Y536522D01*
Y534378D01*
X655622D01*
Y525622D01*
X664177D01*
X664807Y525622D01*
X665823Y525622D01*
X669278D01*
Y530000D01*
Y534378D01*
X665823D01*
X665193Y534378D01*
X664177Y534378D01*
X662056D01*
Y536522D01*
X662266Y536609D01*
X663391Y537734D01*
X664000Y539204D01*
Y540796D01*
X663391Y542266D01*
X663306Y542351D01*
Y546500D01*
X663149Y547287D01*
X662703Y547953D01*
X662037Y548399D01*
X661250Y548555D01*
D02*
G37*
G36*
X172150Y557525D02*
X167850D01*
X167072Y557203D01*
X166750Y556425D01*
Y556100D01*
X130000D01*
X129222Y555778D01*
X128900Y555000D01*
Y525000D01*
X129222Y524222D01*
X130000Y523900D01*
X166926D01*
X167072Y523547D01*
X167850Y523225D01*
X172150D01*
X172928Y523547D01*
X173074Y523900D01*
X175000D01*
X175778Y524222D01*
X176100Y525000D01*
Y527025D01*
X176300D01*
X177078Y527347D01*
X177400Y528125D01*
Y552625D01*
X177078Y553403D01*
X176300Y553725D01*
X176100D01*
Y555000D01*
X175778Y555778D01*
X175000Y556100D01*
X173250D01*
Y556425D01*
X172928Y557203D01*
X172150Y557525D01*
D02*
G37*
G36*
X308766Y519742D02*
X305008D01*
Y517484D01*
X308766D01*
Y519742D01*
D02*
G37*
G36*
X303992D02*
X300234D01*
Y517484D01*
X303992D01*
Y519742D01*
D02*
G37*
G36*
X374547Y525528D02*
X360508D01*
Y517254D01*
X374547D01*
Y525528D01*
D02*
G37*
G36*
X409547D02*
X395508D01*
Y517254D01*
X409547D01*
Y525528D01*
D02*
G37*
G36*
X394492D02*
X380453D01*
Y517254D01*
X394492D01*
Y525528D01*
D02*
G37*
G36*
X328766Y529492D02*
X320508D01*
Y516984D01*
X328766D01*
Y529492D01*
D02*
G37*
G36*
X292766Y521992D02*
X285508D01*
Y516734D01*
X292766D01*
Y521992D01*
D02*
G37*
G36*
X284492D02*
X277234D01*
Y516734D01*
X284492D01*
Y521992D01*
D02*
G37*
G36*
X272766Y521992D02*
X265508D01*
Y516734D01*
X272766D01*
Y521992D01*
D02*
G37*
G36*
X264492D02*
X257234D01*
Y516734D01*
X264492D01*
Y521992D01*
D02*
G37*
G36*
X11170Y518890D02*
X10508D01*
Y510508D01*
X18890D01*
Y511170D01*
X18284Y513431D01*
X17114Y515459D01*
X15459Y517114D01*
X13431Y518284D01*
X11170Y518890D01*
D02*
G37*
G36*
X9492D02*
X8830D01*
X6569Y518284D01*
X4541Y517114D01*
X2886Y515459D01*
X1716Y513431D01*
X1110Y511170D01*
Y510508D01*
X9492D01*
Y518890D01*
D02*
G37*
G36*
X423750Y513555D02*
X420508D01*
Y509008D01*
X425806D01*
Y511500D01*
X425649Y512287D01*
X425204Y512953D01*
X424537Y513399D01*
X423750Y513555D01*
D02*
G37*
G36*
X419492D02*
X416250D01*
X415463Y513399D01*
X414797Y512953D01*
X414351Y512287D01*
X414194Y511500D01*
Y509008D01*
X419492D01*
Y513555D01*
D02*
G37*
G36*
X409547Y516238D02*
X395508D01*
Y507963D01*
X409547D01*
Y516238D01*
D02*
G37*
G36*
X394492D02*
X380453D01*
Y507963D01*
X394492D01*
Y516238D01*
D02*
G37*
G36*
X374547Y516238D02*
X360508D01*
Y507963D01*
X374547D01*
Y516238D01*
D02*
G37*
G36*
X425806Y507992D02*
X420508D01*
Y503445D01*
X423750D01*
X424537Y503601D01*
X425204Y504047D01*
X425649Y504713D01*
X425806Y505500D01*
Y507992D01*
D02*
G37*
G36*
X419492D02*
X414194D01*
Y505500D01*
X414351Y504713D01*
X414797Y504047D01*
X415463Y503601D01*
X416250Y503445D01*
X419492D01*
Y507992D01*
D02*
G37*
G36*
X18890Y509492D02*
X10508D01*
Y501110D01*
X11170D01*
X13431Y501716D01*
X15459Y502886D01*
X17114Y504541D01*
X18284Y506569D01*
X18890Y508830D01*
Y509492D01*
D02*
G37*
G36*
X9492D02*
X1110D01*
Y508830D01*
X1716Y506569D01*
X2886Y504541D01*
X4541Y502886D01*
X6569Y501716D01*
X8830Y501110D01*
X9492D01*
Y509492D01*
D02*
G37*
G36*
X314706Y504378D02*
X310622D01*
Y500508D01*
X314706D01*
Y504378D01*
D02*
G37*
G36*
Y499492D02*
X310622D01*
Y495622D01*
X314706D01*
Y499492D01*
D02*
G37*
G36*
X722168Y477540D02*
X721270D01*
Y451270D01*
X747540D01*
Y452168D01*
X746862Y456449D01*
X745522Y460572D01*
X743554Y464434D01*
X741006Y467941D01*
X737941Y471006D01*
X734434Y473554D01*
X730572Y475522D01*
X726449Y476862D01*
X722168Y477540D01*
D02*
G37*
G36*
X718730D02*
X717832D01*
X713551Y476862D01*
X709428Y475522D01*
X705566Y473554D01*
X702059Y471006D01*
X698994Y467941D01*
X696446Y464434D01*
X694478Y460572D01*
X693138Y456449D01*
X692460Y452168D01*
Y451270D01*
X718730D01*
Y477540D01*
D02*
G37*
G36*
X35508Y457027D02*
Y440508D01*
X44094D01*
Y448000D01*
X43784Y450354D01*
X42875Y452547D01*
X41430Y454430D01*
X39547Y455875D01*
X37354Y456784D01*
X35508Y457027D01*
D02*
G37*
G36*
X34492Y457027D02*
X32646Y456784D01*
X30453Y455875D01*
X28570Y454430D01*
X27125Y452547D01*
X26216Y450354D01*
X25906Y448000D01*
Y440508D01*
X34492D01*
Y457027D01*
D02*
G37*
G36*
Y439492D02*
X25906D01*
Y432000D01*
X26216Y429646D01*
X27125Y427453D01*
X28570Y425570D01*
X30453Y424124D01*
X32646Y423216D01*
X34492Y422973D01*
Y439492D01*
D02*
G37*
G36*
X44094D02*
X35508D01*
Y422973D01*
X37354Y423216D01*
X39547Y424124D01*
X41430Y425570D01*
X42875Y427453D01*
X43784Y429646D01*
X44094Y432000D01*
Y439492D01*
D02*
G37*
G36*
X747540Y448730D02*
X721270D01*
Y422460D01*
X722168D01*
X726449Y423138D01*
X730572Y424478D01*
X734434Y426446D01*
X737941Y428994D01*
X741006Y432059D01*
X743554Y435566D01*
X745522Y439428D01*
X746862Y443551D01*
X747540Y447833D01*
Y448730D01*
D02*
G37*
G36*
X718730D02*
X692460D01*
Y447833D01*
X693138Y443551D01*
X694478Y439428D01*
X696446Y435566D01*
X698994Y432059D01*
X702059Y428994D01*
X705566Y426446D01*
X709428Y424478D01*
X713551Y423138D01*
X717832Y422460D01*
X718730D01*
Y448730D01*
D02*
G37*
G36*
X388968Y420588D02*
X388968Y420588D01*
X361032D01*
X361032Y420588D01*
X360245Y420431D01*
X359579Y419986D01*
X359579Y419985D01*
X338547Y398954D01*
X338101Y398287D01*
X337944Y397500D01*
X337944Y397500D01*
Y380978D01*
X337734Y380891D01*
X336609Y379766D01*
X336000Y378296D01*
Y376704D01*
X335596Y376100D01*
X310000D01*
X309222Y375778D01*
X308900Y375000D01*
Y335456D01*
X284222Y310778D01*
X283900Y310000D01*
X284222Y309222D01*
X308900Y284545D01*
Y242500D01*
X309222Y241722D01*
X310000Y241400D01*
X320000D01*
X320778Y241722D01*
X325778Y246722D01*
X326100Y247500D01*
Y250622D01*
X329278D01*
Y255000D01*
Y259378D01*
X326100D01*
Y265622D01*
X329278D01*
Y270000D01*
Y274378D01*
X326100D01*
Y292500D01*
X325778Y293278D01*
X309055Y310000D01*
X325778Y326722D01*
X326100Y327500D01*
Y330622D01*
X329278D01*
Y335000D01*
Y339378D01*
X326100D01*
Y345622D01*
X329278D01*
Y350000D01*
X329786D01*
Y350508D01*
X334378D01*
Y353900D01*
X338122D01*
Y350508D01*
X342714D01*
Y350000D01*
X343222D01*
Y345622D01*
X346400D01*
Y339378D01*
X343222D01*
Y335000D01*
Y330622D01*
X346400D01*
Y330000D01*
X346722Y329222D01*
X347500Y328900D01*
X362500D01*
X363122Y328485D01*
Y325622D01*
X367206D01*
Y330000D01*
X368222D01*
Y325622D01*
X371400D01*
Y290156D01*
X371039Y289696D01*
X370545Y289378D01*
X368222D01*
Y285000D01*
X367206D01*
Y289378D01*
X363600D01*
Y290000D01*
X363278Y290778D01*
X362500Y291100D01*
X347500D01*
X346722Y290778D01*
X346400Y290000D01*
Y274378D01*
X343222D01*
Y270000D01*
Y265622D01*
X346400D01*
Y259378D01*
X343222D01*
Y255000D01*
Y250622D01*
X346400D01*
Y250000D01*
X346722Y249222D01*
X347500Y248900D01*
X370000D01*
X370778Y249222D01*
X371100Y250000D01*
Y252945D01*
X383445D01*
Y251250D01*
X383601Y250463D01*
X384047Y249797D01*
X384713Y249351D01*
X385500Y249195D01*
X391500D01*
X392287Y249351D01*
X392953Y249797D01*
X393399Y250463D01*
X393555Y251250D01*
Y258750D01*
X393399Y259537D01*
X392953Y260203D01*
X392287Y260649D01*
X391500Y260805D01*
X385500D01*
X384713Y260649D01*
X384047Y260203D01*
X383601Y259537D01*
X383445Y258750D01*
Y257055D01*
X371100D01*
Y263518D01*
X372116Y264059D01*
X372500Y263900D01*
X385000D01*
X385550Y264128D01*
X386100Y263900D01*
X395000D01*
X395778Y264222D01*
X396100Y265000D01*
Y265622D01*
X399278D01*
Y270000D01*
Y274378D01*
X396100D01*
Y280622D01*
X399278D01*
Y285000D01*
Y289378D01*
X396100D01*
Y295622D01*
X399278D01*
Y300000D01*
Y304378D01*
X396100D01*
Y306400D01*
X395872Y306950D01*
X396100Y307500D01*
Y310622D01*
X399278D01*
Y315000D01*
Y319378D01*
X396100D01*
Y325622D01*
X399278D01*
Y330000D01*
Y334378D01*
X396100D01*
Y340622D01*
X399278D01*
Y345000D01*
Y349378D01*
X396100D01*
Y357500D01*
X395778Y358278D01*
X395000Y358600D01*
X388600D01*
Y404666D01*
X389538Y405055D01*
X423993Y370601D01*
Y329242D01*
X423054Y328853D01*
X420453Y331454D01*
X419787Y331899D01*
X419000Y332056D01*
X419000Y332056D01*
X418478D01*
X418391Y332266D01*
X417266Y333391D01*
X415796Y334000D01*
X414939D01*
X414168Y334168D01*
X414000Y334939D01*
Y335796D01*
X413391Y337266D01*
X412266Y338391D01*
X410796Y339000D01*
X409204D01*
X407734Y338391D01*
X406609Y337266D01*
X406000Y335796D01*
Y334204D01*
X406609Y332734D01*
X407734Y331609D01*
X409204Y331000D01*
X410061D01*
X410437Y330918D01*
X410945Y329899D01*
X410757Y329151D01*
X410061Y329000D01*
X409204D01*
X407734Y328391D01*
X406609Y327266D01*
X406000Y325796D01*
Y324204D01*
X406609Y322734D01*
X407734Y321609D01*
X409204Y321000D01*
X409997D01*
X410822Y320820D01*
X410936Y320061D01*
Y319204D01*
X411545Y317734D01*
X412670Y316609D01*
X414140Y316000D01*
X414944D01*
Y73000D01*
X414944Y73000D01*
X415101Y72213D01*
X415546Y71547D01*
X482944Y4149D01*
Y-6765D01*
X482944Y-6765D01*
X483101Y-7552D01*
X483546Y-8219D01*
X490866Y-15538D01*
X490477Y-16477D01*
X437483D01*
X426116Y-5109D01*
Y8016D01*
X410084D01*
Y-8016D01*
X423209D01*
X435178Y-19985D01*
X435178Y-19986D01*
X435845Y-20431D01*
X436632Y-20587D01*
X436632Y-20587D01*
X633068D01*
X633068Y-20587D01*
X633855Y-20431D01*
X634521Y-19986D01*
X646941Y-7566D01*
X659166D01*
Y7566D01*
X644034D01*
Y-4659D01*
X632217Y-16477D01*
X613958D01*
X613569Y-15538D01*
X622504Y-6603D01*
X623280Y-7050D01*
X625204Y-7566D01*
X627196D01*
X629120Y-7050D01*
X630846Y-6054D01*
X632254Y-4646D01*
X633250Y-2920D01*
X633766Y-996D01*
Y996D01*
X633250Y2920D01*
X632254Y4646D01*
X630846Y6054D01*
X629120Y7050D01*
X627196Y7566D01*
X625204D01*
X623280Y7050D01*
X621554Y6054D01*
X620146Y4646D01*
X619150Y2920D01*
X618634Y996D01*
Y-996D01*
X619150Y-2920D01*
X619597Y-3696D01*
X609833Y-13461D01*
X591574D01*
X591185Y-12522D01*
X597104Y-6603D01*
X597880Y-7050D01*
X599804Y-7566D01*
X601796D01*
X603720Y-7050D01*
X605446Y-6054D01*
X606854Y-4646D01*
X607850Y-2920D01*
X608366Y-996D01*
Y996D01*
X607850Y2920D01*
X606854Y4646D01*
X605446Y6054D01*
X603720Y7050D01*
X601796Y7566D01*
X599804D01*
X597880Y7050D01*
X596154Y6054D01*
X594746Y4646D01*
X593750Y2920D01*
X593234Y996D01*
Y-996D01*
X593750Y-2920D01*
X594197Y-3696D01*
X587449Y-10445D01*
X495851D01*
X490071Y-4665D01*
Y4894D01*
X491010Y5283D01*
X492597Y3696D01*
X492150Y2920D01*
X491634Y996D01*
Y-996D01*
X492150Y-2920D01*
X493146Y-4646D01*
X494554Y-6054D01*
X496280Y-7050D01*
X498204Y-7566D01*
X500196D01*
X502120Y-7050D01*
X503846Y-6054D01*
X505254Y-4646D01*
X506250Y-2920D01*
X506766Y-996D01*
Y996D01*
X506250Y2920D01*
X505254Y4646D01*
X503846Y6054D01*
X503225Y6413D01*
X503497Y7429D01*
X514265D01*
X517997Y3696D01*
X517550Y2920D01*
X517034Y996D01*
Y-996D01*
X517550Y-2920D01*
X518546Y-4646D01*
X519954Y-6054D01*
X521680Y-7050D01*
X523604Y-7566D01*
X525596D01*
X527520Y-7050D01*
X529246Y-6054D01*
X530654Y-4646D01*
X531650Y-2920D01*
X532166Y-996D01*
Y996D01*
X531650Y2920D01*
X530654Y4646D01*
X529246Y6054D01*
X527520Y7050D01*
X525596Y7566D01*
X523604D01*
X521680Y7050D01*
X520904Y6603D01*
X518001Y9506D01*
X518390Y10445D01*
X536649D01*
X543397Y3696D01*
X542950Y2920D01*
X542434Y996D01*
Y-996D01*
X542950Y-2920D01*
X543946Y-4646D01*
X545354Y-6054D01*
X547080Y-7050D01*
X549004Y-7566D01*
X550996D01*
X552920Y-7050D01*
X554646Y-6054D01*
X556054Y-4646D01*
X557050Y-2920D01*
X557566Y-996D01*
Y996D01*
X557050Y2920D01*
X556054Y4646D01*
X554646Y6054D01*
X552920Y7050D01*
X550996Y7566D01*
X549004D01*
X547080Y7050D01*
X546304Y6603D01*
X538954Y13953D01*
X538287Y14399D01*
X538138Y14428D01*
X538238Y15445D01*
X557048D01*
X568797Y3696D01*
X568350Y2920D01*
X567834Y996D01*
Y-996D01*
X568350Y-2920D01*
X569346Y-4646D01*
X570754Y-6054D01*
X572480Y-7050D01*
X574404Y-7566D01*
X576396D01*
X578320Y-7050D01*
X580046Y-6054D01*
X581454Y-4646D01*
X582450Y-2920D01*
X582966Y-996D01*
Y996D01*
X582450Y2920D01*
X581454Y4646D01*
X580046Y6054D01*
X578320Y7050D01*
X576396Y7566D01*
X574404D01*
X572480Y7050D01*
X571704Y6603D01*
X559353Y18953D01*
X558687Y19399D01*
X557900Y19555D01*
X557900Y19555D01*
X498351D01*
X434136Y83771D01*
Y375420D01*
X434136Y375420D01*
X433979Y376207D01*
X433533Y376874D01*
X433533Y376874D01*
X390421Y419986D01*
X389755Y420431D01*
X389624Y420457D01*
X388968Y420588D01*
D02*
G37*
G36*
X110000Y556100D02*
X50000D01*
X49222Y555778D01*
X48900Y555000D01*
Y525000D01*
X49222Y524222D01*
X50000Y523900D01*
X78900D01*
Y420000D01*
X79222Y419222D01*
X80000Y418900D01*
X110000D01*
X110778Y419222D01*
X111100Y420000D01*
Y555000D01*
X110778Y555778D01*
X110000Y556100D01*
D02*
G37*
G36*
X660516Y481016D02*
X636484D01*
Y398984D01*
X660516D01*
Y481016D01*
D02*
G37*
G36*
X73000Y402094D02*
X65508D01*
Y393508D01*
X82027D01*
X81784Y395354D01*
X80876Y397547D01*
X79430Y399430D01*
X77547Y400875D01*
X75354Y401784D01*
X73000Y402094D01*
D02*
G37*
G36*
X64492D02*
X57000D01*
X54646Y401784D01*
X52453Y400875D01*
X50570Y399430D01*
X49124Y397547D01*
X48216Y395354D01*
X47973Y393508D01*
X64492D01*
Y402094D01*
D02*
G37*
G36*
X82027Y392492D02*
X65508D01*
Y383906D01*
X73000D01*
X75354Y384216D01*
X77547Y385125D01*
X79430Y386570D01*
X80876Y388453D01*
X81784Y390646D01*
X82027Y392492D01*
D02*
G37*
G36*
X64492D02*
X47973D01*
X48216Y390646D01*
X49124Y388453D01*
X50570Y386570D01*
X52453Y385125D01*
X54646Y384216D01*
X57000Y383906D01*
X64492D01*
Y392492D01*
D02*
G37*
G36*
X687812Y369516D02*
X686508D01*
Y356258D01*
X699766D01*
Y357562D01*
X698828Y361063D01*
X697016Y364202D01*
X694453Y366766D01*
X691313Y368578D01*
X687812Y369516D01*
D02*
G37*
G36*
X685492D02*
X684188D01*
X680686Y368578D01*
X677548Y366766D01*
X674985Y364202D01*
X673172Y361063D01*
X672234Y357562D01*
Y356258D01*
X685492D01*
Y369516D01*
D02*
G37*
G36*
X606812D02*
X605508D01*
Y356258D01*
X618766D01*
Y357562D01*
X617828Y361063D01*
X616016Y364202D01*
X613452Y366766D01*
X610313Y368578D01*
X606812Y369516D01*
D02*
G37*
G36*
X604492D02*
X603188D01*
X599687Y368578D01*
X596548Y366766D01*
X593984Y364202D01*
X592172Y361063D01*
X591234Y357562D01*
Y356258D01*
X604492D01*
Y369516D01*
D02*
G37*
G36*
X342206Y349492D02*
X338122D01*
Y345622D01*
X342206D01*
Y349492D01*
D02*
G37*
G36*
X334378Y349492D02*
X330294D01*
Y345622D01*
X334378D01*
Y349492D01*
D02*
G37*
G36*
X404378Y349378D02*
X400294D01*
Y345508D01*
X404378D01*
Y349378D01*
D02*
G37*
G36*
X699766Y355242D02*
X686508D01*
Y341984D01*
X687812D01*
X691313Y342922D01*
X694453Y344734D01*
X697016Y347298D01*
X698828Y350437D01*
X699766Y353938D01*
Y355242D01*
D02*
G37*
G36*
X685492D02*
X672234D01*
Y353938D01*
X673172Y350437D01*
X674985Y347298D01*
X677548Y344734D01*
X680686Y342922D01*
X684188Y341984D01*
X685492D01*
Y355242D01*
D02*
G37*
G36*
X618766D02*
X605508D01*
Y341984D01*
X606812D01*
X610313Y342922D01*
X613452Y344734D01*
X616016Y347298D01*
X617828Y350437D01*
X618766Y353938D01*
Y355242D01*
D02*
G37*
G36*
X604492D02*
X591234D01*
Y353938D01*
X592172Y350437D01*
X593984Y347298D01*
X596548Y344734D01*
X599687Y342922D01*
X603188Y341984D01*
X604492D01*
Y355242D01*
D02*
G37*
G36*
X404378Y344492D02*
X400294D01*
Y340622D01*
X404378D01*
Y344492D01*
D02*
G37*
G36*
X334378Y339378D02*
X330294D01*
Y335508D01*
X334378D01*
Y339378D01*
D02*
G37*
G36*
X342206D02*
X338122D01*
Y335508D01*
X342206D01*
Y339378D01*
D02*
G37*
G36*
Y334492D02*
X338122D01*
Y330622D01*
X342206D01*
Y334492D01*
D02*
G37*
G36*
X334378Y334492D02*
X330294D01*
Y330622D01*
X334378D01*
Y334492D01*
D02*
G37*
G36*
X404378Y334378D02*
X400294D01*
Y330508D01*
X404378D01*
Y334378D01*
D02*
G37*
G36*
Y329492D02*
X400294D01*
Y325622D01*
X404378D01*
Y329492D01*
D02*
G37*
G36*
X662348Y341000D02*
X659452D01*
X656654Y340250D01*
X654146Y338802D01*
X652098Y336754D01*
X650650Y334246D01*
X649900Y331448D01*
Y328552D01*
X650650Y325754D01*
X652098Y323246D01*
X654146Y321198D01*
X656654Y319750D01*
X659452Y319000D01*
X662348D01*
X665146Y319750D01*
X667654Y321198D01*
X669702Y323246D01*
X671150Y325754D01*
X671900Y328552D01*
Y331448D01*
X671150Y334246D01*
X669702Y336754D01*
X667654Y338802D01*
X665146Y340250D01*
X662348Y341000D01*
D02*
G37*
G36*
X622348D02*
X619452D01*
X616654Y340250D01*
X614146Y338802D01*
X612098Y336754D01*
X610650Y334246D01*
X609900Y331448D01*
Y328552D01*
X610650Y325754D01*
X612098Y323246D01*
X614146Y321198D01*
X616654Y319750D01*
X619452Y319000D01*
X622348D01*
X625146Y319750D01*
X627654Y321198D01*
X629702Y323246D01*
X631150Y325754D01*
X631900Y328552D01*
Y331448D01*
X631150Y334246D01*
X629702Y336754D01*
X627654Y338802D01*
X625146Y340250D01*
X622348Y341000D01*
D02*
G37*
G36*
X100716Y333016D02*
X84684D01*
Y316984D01*
X100716D01*
Y333016D01*
D02*
G37*
G36*
X1167Y333866D02*
X-1167D01*
X-3422Y333262D01*
X-5444Y332095D01*
X-7095Y330444D01*
X-8262Y328422D01*
X-8866Y326167D01*
Y323833D01*
X-8262Y321578D01*
X-7095Y319556D01*
X-5444Y317905D01*
X-3422Y316738D01*
X-1167Y316134D01*
X1167D01*
X3422Y316738D01*
X4866Y317572D01*
X6391Y316047D01*
X7058Y315601D01*
X7844Y315445D01*
X7844Y315445D01*
X23444D01*
Y313750D01*
X23601Y312963D01*
X24046Y312297D01*
X24713Y311851D01*
X25500Y311695D01*
X31500D01*
X32287Y311851D01*
X32954Y312297D01*
X33399Y312963D01*
X33556Y313750D01*
Y320399D01*
X35673Y322516D01*
X36550Y322063D01*
X36579Y321928D01*
X36444Y321250D01*
Y313750D01*
X36601Y312963D01*
X37046Y312297D01*
X37713Y311851D01*
X38500Y311695D01*
X40458D01*
X41022Y310850D01*
X41000Y310796D01*
Y309204D01*
X41022Y309150D01*
X40458Y308305D01*
X38500D01*
X37713Y308149D01*
X37046Y307703D01*
X36601Y307037D01*
X36444Y306250D01*
Y298750D01*
X36579Y298072D01*
X36550Y297937D01*
X35673Y297484D01*
X33556Y299601D01*
Y306250D01*
X33399Y307037D01*
X32954Y307703D01*
X32287Y308149D01*
X31500Y308305D01*
X25500D01*
X24713Y308149D01*
X24046Y307703D01*
X23601Y307037D01*
X23444Y306250D01*
Y304555D01*
X17500D01*
X17500Y304556D01*
X16713Y304399D01*
X16047Y303953D01*
X4647Y292554D01*
X3422Y293262D01*
X1167Y293866D01*
X-1167D01*
X-3422Y293262D01*
X-5444Y292095D01*
X-7095Y290444D01*
X-8262Y288422D01*
X-8866Y286167D01*
Y283833D01*
X-8262Y281578D01*
X-7095Y279556D01*
X-5444Y277905D01*
X-3422Y276738D01*
X-1167Y276134D01*
X1167D01*
X3422Y276738D01*
X5444Y277905D01*
X7095Y279556D01*
X8262Y281578D01*
X8866Y283833D01*
Y286167D01*
X8262Y288422D01*
X7554Y289647D01*
X18352Y300445D01*
X23444D01*
Y298750D01*
X23601Y297963D01*
X24046Y297297D01*
X24713Y296851D01*
X25500Y296695D01*
X30649D01*
X33797Y293547D01*
X33797Y293547D01*
X34463Y293101D01*
X35250Y292945D01*
X59552D01*
X59830Y291906D01*
X60886Y290078D01*
X62378Y288586D01*
X64206Y287530D01*
X66245Y286984D01*
X68355D01*
X70394Y287530D01*
X72222Y288586D01*
X73714Y290078D01*
X74770Y291906D01*
X75316Y293945D01*
Y296055D01*
X74770Y298094D01*
X73714Y299922D01*
X72222Y301414D01*
X70394Y302470D01*
X68355Y303016D01*
X66245D01*
X64206Y302470D01*
X62378Y301414D01*
X60886Y299922D01*
X59830Y298094D01*
X59552Y297055D01*
X47014D01*
X46467Y297864D01*
X46420Y298072D01*
X46556Y298750D01*
Y306250D01*
X46544Y306310D01*
X47266Y306609D01*
X48391Y307734D01*
X49000Y309204D01*
Y310796D01*
X48391Y312266D01*
X47266Y313391D01*
X46544Y313690D01*
X46556Y313750D01*
Y321250D01*
X46420Y321928D01*
X46467Y322136D01*
X47014Y322944D01*
X59552D01*
X59830Y321906D01*
X60886Y320078D01*
X62378Y318586D01*
X64206Y317530D01*
X66245Y316984D01*
X68355D01*
X70394Y317530D01*
X72222Y318586D01*
X73714Y320078D01*
X74770Y321906D01*
X75316Y323945D01*
Y326055D01*
X74770Y328094D01*
X73714Y329922D01*
X72222Y331414D01*
X70394Y332470D01*
X68355Y333016D01*
X66245D01*
X64206Y332470D01*
X62378Y331414D01*
X60886Y329922D01*
X59830Y328094D01*
X59552Y327056D01*
X35250D01*
X35250Y327056D01*
X34463Y326899D01*
X33797Y326454D01*
X30649Y323306D01*
X25500D01*
X24713Y323149D01*
X24046Y322704D01*
X23601Y322037D01*
X23444Y321250D01*
Y319555D01*
X8696D01*
X7680Y320571D01*
X8262Y321578D01*
X8866Y323833D01*
Y326167D01*
X8262Y328422D01*
X7095Y330444D01*
X5444Y332095D01*
X3422Y333262D01*
X1167Y333866D01*
D02*
G37*
G36*
X404378Y319378D02*
X400294D01*
Y315508D01*
X404378D01*
Y319378D01*
D02*
G37*
G36*
Y314492D02*
X400294D01*
Y310622D01*
X404378D01*
Y314492D01*
D02*
G37*
G36*
X641516Y321516D02*
X640508D01*
Y310508D01*
X651516D01*
Y311516D01*
X650731Y314445D01*
X649215Y317071D01*
X647071Y319215D01*
X644445Y320731D01*
X641516Y321516D01*
D02*
G37*
G36*
X639492D02*
X638484D01*
X635555Y320731D01*
X632929Y319215D01*
X630785Y317071D01*
X629269Y314445D01*
X628484Y311516D01*
Y310508D01*
X639492D01*
Y321516D01*
D02*
G37*
G36*
X370016Y304516D02*
X366008D01*
Y300508D01*
X370016D01*
Y304516D01*
D02*
G37*
G36*
X404378Y304378D02*
X400294D01*
Y300508D01*
X404378D01*
Y304378D01*
D02*
G37*
G36*
X364992Y304516D02*
X360984D01*
Y300508D01*
X364992D01*
Y304516D01*
D02*
G37*
G36*
X651516Y309492D02*
X640508D01*
Y298484D01*
X641516D01*
X644445Y299269D01*
X647071Y300785D01*
X649215Y302929D01*
X650731Y305555D01*
X651516Y308484D01*
Y309492D01*
D02*
G37*
G36*
X639492D02*
X628484D01*
Y308484D01*
X629269Y305555D01*
X630785Y302929D01*
X632929Y300785D01*
X635555Y299269D01*
X638484Y298484D01*
X639492D01*
Y309492D01*
D02*
G37*
G36*
X404378Y299492D02*
X400294D01*
Y295622D01*
X404378D01*
Y299492D01*
D02*
G37*
G36*
X370016D02*
X366008D01*
Y295484D01*
X370016D01*
Y299492D01*
D02*
G37*
G36*
X364992D02*
X360984D01*
Y295484D01*
X364992D01*
Y299492D01*
D02*
G37*
G36*
X100716Y303016D02*
X84684D01*
Y286984D01*
X100716D01*
Y303016D01*
D02*
G37*
G36*
X345016Y289516D02*
X341008D01*
Y285508D01*
X345016D01*
Y289516D01*
D02*
G37*
G36*
X404378Y289378D02*
X400294D01*
Y285508D01*
X404378D01*
Y289378D01*
D02*
G37*
G36*
X331492Y289516D02*
X327484D01*
Y285508D01*
X331492D01*
Y289516D01*
D02*
G37*
G36*
X404378Y284492D02*
X400294D01*
Y280622D01*
X404378D01*
Y284492D01*
D02*
G37*
G36*
X345016D02*
X341008D01*
Y280484D01*
X345016D01*
Y284492D01*
D02*
G37*
G36*
X339992Y289516D02*
X332508D01*
Y285000D01*
Y280484D01*
X339992D01*
Y285000D01*
X340500D01*
D01*
X339992D01*
Y289516D01*
D02*
G37*
G36*
X331492Y284492D02*
X327484D01*
Y280484D01*
X331492D01*
Y284492D01*
D02*
G37*
G36*
X662348Y301000D02*
X659452D01*
X656654Y300250D01*
X654146Y298802D01*
X652098Y296754D01*
X650650Y294246D01*
X649900Y291448D01*
Y288552D01*
X650650Y285754D01*
X652098Y283246D01*
X654146Y281198D01*
X656654Y279750D01*
X659452Y279000D01*
X662348D01*
X665146Y279750D01*
X667654Y281198D01*
X669702Y283246D01*
X671150Y285754D01*
X671900Y288552D01*
Y291448D01*
X671150Y294246D01*
X669702Y296754D01*
X667654Y298802D01*
X665146Y300250D01*
X662348Y301000D01*
D02*
G37*
G36*
X622348Y301000D02*
X619452D01*
X616654Y300250D01*
X614146Y298802D01*
X612098Y296754D01*
X610650Y294246D01*
X609900Y291448D01*
Y288552D01*
X610650Y285754D01*
X612098Y283246D01*
X614146Y281198D01*
X616654Y279750D01*
X619452Y279000D01*
X622348D01*
X625146Y279750D01*
X627654Y281198D01*
X629702Y283246D01*
X631150Y285754D01*
X631900Y288552D01*
Y291448D01*
X631150Y294246D01*
X629702Y296754D01*
X627654Y298802D01*
X625146Y300250D01*
X622348Y301000D01*
D02*
G37*
G36*
X334378Y274378D02*
X330294D01*
Y270508D01*
X334378D01*
Y274378D01*
D02*
G37*
G36*
X404378D02*
X400294D01*
Y270508D01*
X404378D01*
Y274378D01*
D02*
G37*
G36*
X342206D02*
X338122D01*
Y270508D01*
X342206D01*
Y274378D01*
D02*
G37*
G36*
X404378Y269492D02*
X400294D01*
Y265622D01*
X404378D01*
Y269492D01*
D02*
G37*
G36*
X342206Y269492D02*
X338122D01*
Y265622D01*
X342206D01*
Y269492D01*
D02*
G37*
G36*
X334378Y269492D02*
X330294D01*
Y265622D01*
X334378D01*
Y269492D01*
D02*
G37*
G36*
X687812Y278016D02*
X686508D01*
Y264758D01*
X699766D01*
Y266062D01*
X698828Y269564D01*
X697016Y272703D01*
X694453Y275266D01*
X691313Y277078D01*
X687812Y278016D01*
D02*
G37*
G36*
X685492D02*
X684188D01*
X680686Y277078D01*
X677548Y275266D01*
X674985Y272703D01*
X673172Y269564D01*
X672234Y266062D01*
Y264758D01*
X685492D01*
Y278016D01*
D02*
G37*
G36*
X606812D02*
X605508D01*
Y264758D01*
X618766D01*
Y266062D01*
X617828Y269564D01*
X616016Y272703D01*
X613452Y275266D01*
X610313Y277078D01*
X606812Y278016D01*
D02*
G37*
G36*
X604492D02*
X603188D01*
X599687Y277078D01*
X596548Y275266D01*
X593984Y272703D01*
X592172Y269564D01*
X591234Y266062D01*
Y264758D01*
X604492D01*
Y278016D01*
D02*
G37*
G36*
X275987Y307500D02*
X274013D01*
X272105Y306989D01*
X270395Y306001D01*
X268999Y304605D01*
X268963Y304543D01*
X267045D01*
X264670Y304071D01*
X262656Y302726D01*
X258937Y299007D01*
X257592Y296993D01*
X257120Y294618D01*
Y263031D01*
X256314Y262412D01*
X255987Y262500D01*
X254013D01*
X252105Y261989D01*
X250395Y261001D01*
X248999Y259605D01*
X248963Y259543D01*
X246271D01*
X243896Y259071D01*
X241883Y257726D01*
X235438Y251280D01*
X234309Y249592D01*
X233293Y249900D01*
Y254460D01*
X234300Y255966D01*
X234772Y258341D01*
Y262500D01*
X235987D01*
X237895Y263011D01*
X239605Y263999D01*
X241001Y265395D01*
X241989Y267105D01*
X242500Y269013D01*
Y270987D01*
X241989Y272895D01*
X241495Y273750D01*
X241989Y274605D01*
X242500Y276513D01*
Y278487D01*
X241989Y280395D01*
X241001Y282105D01*
X239605Y283501D01*
X237895Y284489D01*
X235987Y285000D01*
X234013D01*
X232105Y284489D01*
X230395Y283501D01*
X228999Y282105D01*
X228963Y282043D01*
X227510D01*
X225135Y281571D01*
X223122Y280226D01*
X218524Y275628D01*
X217179Y273615D01*
X216707Y271240D01*
Y240552D01*
X215987Y240000D01*
X214013D01*
X212105Y239489D01*
X210395Y238501D01*
X208999Y237105D01*
X208963Y237043D01*
X207510D01*
X205135Y236571D01*
X203122Y235225D01*
X199403Y231507D01*
X198058Y229493D01*
X197585Y227118D01*
Y217906D01*
X196779Y217288D01*
X195987Y217500D01*
X194013D01*
X192105Y216989D01*
X190395Y216001D01*
X188999Y214605D01*
X188963Y214543D01*
X186271D01*
X183896Y214071D01*
X181883Y212726D01*
X177438Y208280D01*
X176092Y206267D01*
X175620Y203892D01*
Y115000D01*
Y25000D01*
Y19271D01*
X176092Y16896D01*
X177438Y14883D01*
X186707Y5613D01*
Y-1975D01*
X186707Y-1975D01*
Y-2484D01*
X184984D01*
Y-12516D01*
X189051D01*
X190125Y-13234D01*
X192500Y-13706D01*
X194875Y-13234D01*
X195000Y-13150D01*
X195125Y-13234D01*
X197500Y-13706D01*
X199875Y-13234D01*
X200949Y-12516D01*
X204051D01*
X205125Y-13234D01*
X207500Y-13706D01*
X209875Y-13234D01*
X210000Y-13150D01*
X210125Y-13234D01*
X212500Y-13706D01*
X214875Y-13234D01*
X215949Y-12516D01*
X219051D01*
X220125Y-13234D01*
X222500Y-13706D01*
X224875Y-13234D01*
X225000Y-13150D01*
X225125Y-13234D01*
X227500Y-13706D01*
X229875Y-13234D01*
X230949Y-12516D01*
X234051D01*
X235125Y-13234D01*
X237500Y-13706D01*
X239875Y-13234D01*
X240000Y-13150D01*
X240125Y-13234D01*
X242500Y-13706D01*
X244875Y-13234D01*
X245949Y-12516D01*
X249051D01*
X250125Y-13234D01*
X252500Y-13706D01*
X254875Y-13234D01*
X255000Y-13150D01*
X255125Y-13234D01*
X257500Y-13706D01*
X259875Y-13234D01*
X260949Y-12516D01*
X264924D01*
X265816Y-12871D01*
X265972Y-13658D01*
X266418Y-14325D01*
X271546Y-19453D01*
X271546Y-19454D01*
X272213Y-19899D01*
X273000Y-20055D01*
X273000Y-20055D01*
X374700D01*
X374700Y-20055D01*
X375487Y-19899D01*
X376153Y-19454D01*
X388675Y-6932D01*
X389606Y-7470D01*
X391645Y-8016D01*
X393755D01*
X395794Y-7470D01*
X397622Y-6414D01*
X399114Y-4922D01*
X400170Y-3094D01*
X400716Y-1055D01*
Y1055D01*
X400170Y3094D01*
X399114Y4922D01*
X397622Y6414D01*
X395794Y7470D01*
X393755Y8016D01*
X391645D01*
X389606Y7470D01*
X387778Y6414D01*
X386286Y4922D01*
X385230Y3094D01*
X384684Y1055D01*
Y-1055D01*
X385230Y-3094D01*
X385768Y-4025D01*
X373849Y-15944D01*
X355590D01*
X355201Y-15006D01*
X366282Y-3925D01*
X366501Y-4016D01*
X368099D01*
X369575Y-3405D01*
X370705Y-2275D01*
X371316Y-799D01*
Y799D01*
X370705Y2275D01*
X369575Y3405D01*
X368099Y4016D01*
X366501D01*
X365025Y3405D01*
X363895Y2275D01*
X363284Y799D01*
Y-799D01*
X363375Y-1018D01*
X351465Y-12929D01*
X295861D01*
X295016Y-12516D01*
Y-7748D01*
X295065Y-7500D01*
Y-3563D01*
X296063Y-2565D01*
X338786D01*
X339625Y-3405D01*
X341101Y-4016D01*
X342699D01*
X344175Y-3405D01*
X345305Y-2275D01*
X345916Y-799D01*
Y799D01*
X345305Y2275D01*
X344175Y3405D01*
X342699Y4016D01*
X341101D01*
X339625Y3405D01*
X338786Y2565D01*
X295000D01*
X294018Y2370D01*
X293186Y1814D01*
X290686Y-686D01*
X290571Y-857D01*
X289555Y-549D01*
Y3337D01*
X289719Y3500D01*
X290796D01*
X292266Y4109D01*
X293391Y5234D01*
X294000Y6704D01*
Y8296D01*
X293391Y9766D01*
X292266Y10891D01*
X290796Y11500D01*
X289204D01*
X287734Y10891D01*
X286879Y10036D01*
X286250Y9864D01*
X285621Y10036D01*
X284766Y10891D01*
X283296Y11500D01*
X281704D01*
X280234Y10891D01*
X279109Y9766D01*
X278500Y8296D01*
Y6704D01*
X279109Y5234D01*
X280234Y4109D01*
X280445Y4022D01*
Y-2484D01*
X278008D01*
Y-7500D01*
X276992D01*
Y-2484D01*
X263293D01*
Y5398D01*
X271889Y13993D01*
X273234Y16007D01*
X273706Y18382D01*
Y87144D01*
Y97714D01*
X277645D01*
X278101Y97804D01*
X280323Y98097D01*
X282819Y99131D01*
X284963Y100776D01*
X286607Y102919D01*
X287641Y105415D01*
X287934Y107637D01*
X288025Y108094D01*
Y115348D01*
X287934Y115804D01*
X287641Y118027D01*
X286607Y120523D01*
X284963Y122666D01*
X283223Y124001D01*
X284585Y125775D01*
X285618Y128271D01*
X285911Y130493D01*
X286002Y130950D01*
Y138204D01*
X285911Y138660D01*
X285618Y140883D01*
X284585Y143379D01*
X282940Y145522D01*
X280796Y147167D01*
X278300Y148201D01*
X276078Y148493D01*
X275622Y148584D01*
X273706D01*
Y155255D01*
Y273990D01*
Y278450D01*
X274713Y279957D01*
X275185Y282332D01*
Y285000D01*
X275987D01*
X277895Y285511D01*
X279605Y286499D01*
X281001Y287895D01*
X281989Y289605D01*
X282500Y291513D01*
Y293487D01*
X281989Y295395D01*
X281495Y296250D01*
X281989Y297105D01*
X282500Y299013D01*
Y300987D01*
X281989Y302895D01*
X281001Y304605D01*
X279605Y306001D01*
X277895Y306989D01*
X275987Y307500D01*
D02*
G37*
G36*
X334378Y259378D02*
X330294D01*
Y255508D01*
X334378D01*
Y259378D01*
D02*
G37*
G36*
X342206D02*
X338122D01*
Y255508D01*
X342206D01*
Y259378D01*
D02*
G37*
G36*
Y254492D02*
X338122D01*
Y250622D01*
X342206D01*
Y254492D01*
D02*
G37*
G36*
X334378D02*
X330294D01*
Y250622D01*
X334378D01*
Y254492D01*
D02*
G37*
G36*
X699766Y263742D02*
X686508D01*
Y250484D01*
X687812D01*
X691313Y251422D01*
X694453Y253235D01*
X697016Y255798D01*
X698828Y258937D01*
X699766Y262438D01*
Y263742D01*
D02*
G37*
G36*
X685492D02*
X672234D01*
Y262438D01*
X673172Y258937D01*
X674985Y255798D01*
X677548Y253235D01*
X680686Y251422D01*
X684188Y250484D01*
X685492D01*
Y263742D01*
D02*
G37*
G36*
X618766D02*
X605508D01*
Y250484D01*
X606812D01*
X610313Y251422D01*
X613452Y253235D01*
X616016Y255798D01*
X617828Y258937D01*
X618766Y262438D01*
Y263742D01*
D02*
G37*
G36*
X604492D02*
X591234D01*
Y262438D01*
X592172Y258937D01*
X593984Y255798D01*
X596548Y253235D01*
X599687Y251422D01*
X603188Y250484D01*
X604492D01*
Y263742D01*
D02*
G37*
G36*
X355796Y246500D02*
X354204D01*
X352734Y245891D01*
X351879Y245036D01*
X351250Y244864D01*
X350621Y245036D01*
X349766Y245891D01*
X348296Y246500D01*
X346704D01*
X345234Y245891D01*
X344109Y244766D01*
X343500Y243296D01*
Y241704D01*
X344109Y240234D01*
X345234Y239109D01*
X346704Y238500D01*
X348296D01*
X348506Y238587D01*
X349944Y237149D01*
Y96400D01*
X349944Y96400D01*
X350101Y95613D01*
X350546Y94946D01*
X441797Y3696D01*
X441350Y2920D01*
X440834Y996D01*
Y-996D01*
X441350Y-2920D01*
X442346Y-4646D01*
X443754Y-6054D01*
X445480Y-7050D01*
X447404Y-7566D01*
X449396D01*
X451320Y-7050D01*
X453046Y-6054D01*
X454454Y-4646D01*
X455450Y-2920D01*
X455966Y-996D01*
Y996D01*
X455450Y2920D01*
X454454Y4646D01*
X453046Y6054D01*
X451320Y7050D01*
X449396Y7566D01*
X447404D01*
X445480Y7050D01*
X444704Y6603D01*
X354055Y97251D01*
Y115510D01*
X354994Y115899D01*
X467197Y3696D01*
X466750Y2920D01*
X466234Y996D01*
Y-996D01*
X466750Y-2920D01*
X467746Y-4646D01*
X469154Y-6054D01*
X470880Y-7050D01*
X472804Y-7566D01*
X474796D01*
X476720Y-7050D01*
X478446Y-6054D01*
X479854Y-4646D01*
X480850Y-2920D01*
X481366Y-996D01*
Y996D01*
X480850Y2920D01*
X479854Y4646D01*
X478446Y6054D01*
X476720Y7050D01*
X474796Y7566D01*
X472804D01*
X470880Y7050D01*
X470104Y6603D01*
X357071Y119635D01*
Y239028D01*
X357266Y239109D01*
X358391Y240234D01*
X359000Y241704D01*
Y243296D01*
X358391Y244766D01*
X357266Y245891D01*
X355796Y246500D01*
D02*
G37*
G36*
X404500Y260805D02*
X398500D01*
X397713Y260649D01*
X397047Y260203D01*
X396601Y259537D01*
X396445Y258750D01*
Y251250D01*
X396601Y250463D01*
X396883Y250042D01*
Y247290D01*
X373506Y223913D01*
X373296Y224000D01*
X371704D01*
X370234Y223391D01*
X369109Y222266D01*
X368500Y220796D01*
Y219204D01*
X369109Y217734D01*
X370234Y216609D01*
X371704Y216000D01*
X373296D01*
X374766Y216609D01*
X375891Y217734D01*
X376500Y219204D01*
Y220796D01*
X376413Y221006D01*
X400392Y244985D01*
X400837Y245652D01*
X400994Y246438D01*
Y249195D01*
X404500D01*
X405287Y249351D01*
X405953Y249797D01*
X406399Y250463D01*
X406555Y251250D01*
Y258750D01*
X406399Y259537D01*
X405953Y260203D01*
X405287Y260649D01*
X404500Y260805D01*
D02*
G37*
G36*
X100716Y233016D02*
X84684D01*
Y216984D01*
X100716D01*
Y233016D01*
D02*
G37*
G36*
X1167Y233866D02*
X-1167D01*
X-3422Y233262D01*
X-5444Y232095D01*
X-7095Y230444D01*
X-8262Y228422D01*
X-8866Y226167D01*
Y223833D01*
X-8262Y221578D01*
X-7095Y219556D01*
X-5444Y217905D01*
X-3422Y216738D01*
X-1167Y216134D01*
X1167D01*
X3422Y216738D01*
X4866Y217572D01*
X6391Y216047D01*
X7058Y215601D01*
X7844Y215445D01*
X7844Y215445D01*
X23444D01*
Y213750D01*
X23601Y212963D01*
X24046Y212297D01*
X24713Y211851D01*
X25500Y211695D01*
X31500D01*
X32287Y211851D01*
X32954Y212297D01*
X33399Y212963D01*
X33556Y213750D01*
Y220399D01*
X35673Y222516D01*
X36550Y222063D01*
X36579Y221929D01*
X36444Y221250D01*
Y213750D01*
X36601Y212963D01*
X37046Y212297D01*
X37713Y211851D01*
X38500Y211695D01*
X40458D01*
X41022Y210850D01*
X41000Y210796D01*
Y209204D01*
X41022Y209150D01*
X40458Y208305D01*
X38500D01*
X37713Y208149D01*
X37046Y207703D01*
X36601Y207037D01*
X36444Y206250D01*
Y198750D01*
X36579Y198072D01*
X36550Y197937D01*
X35673Y197484D01*
X33556Y199601D01*
Y206250D01*
X33399Y207037D01*
X32954Y207703D01*
X32287Y208149D01*
X31500Y208305D01*
X25500D01*
X24713Y208149D01*
X24046Y207703D01*
X23601Y207037D01*
X23444Y206250D01*
Y204555D01*
X17500D01*
X17500Y204555D01*
X16713Y204399D01*
X16047Y203953D01*
X16047Y203953D01*
X4647Y192554D01*
X3422Y193262D01*
X1167Y193866D01*
X-1167D01*
X-3422Y193262D01*
X-5444Y192095D01*
X-7095Y190444D01*
X-8262Y188422D01*
X-8866Y186167D01*
Y183833D01*
X-8262Y181578D01*
X-7095Y179556D01*
X-5444Y177905D01*
X-3422Y176738D01*
X-1167Y176134D01*
X1167D01*
X3422Y176738D01*
X5444Y177905D01*
X7095Y179556D01*
X8262Y181578D01*
X8866Y183833D01*
Y186167D01*
X8262Y188422D01*
X7554Y189647D01*
X18351Y200445D01*
X23444D01*
Y198750D01*
X23601Y197963D01*
X24046Y197297D01*
X24713Y196851D01*
X25500Y196695D01*
X30649D01*
X33797Y193547D01*
X33797Y193547D01*
X34463Y193101D01*
X35250Y192945D01*
X59552D01*
X59830Y191906D01*
X60886Y190078D01*
X62378Y188586D01*
X64206Y187530D01*
X66245Y186984D01*
X68355D01*
X70394Y187530D01*
X72222Y188586D01*
X73714Y190078D01*
X74770Y191906D01*
X75316Y193945D01*
Y196055D01*
X74770Y198094D01*
X73714Y199922D01*
X72222Y201414D01*
X70394Y202470D01*
X68355Y203016D01*
X66245D01*
X64206Y202470D01*
X62378Y201414D01*
X60886Y199922D01*
X59830Y198094D01*
X59552Y197055D01*
X47014D01*
X46467Y197864D01*
X46420Y198072D01*
X46556Y198750D01*
Y206250D01*
X46544Y206310D01*
X47266Y206609D01*
X48391Y207734D01*
X49000Y209204D01*
Y210796D01*
X48391Y212266D01*
X47266Y213391D01*
X46544Y213690D01*
X46556Y213750D01*
Y221250D01*
X46420Y221929D01*
X46467Y222136D01*
X47014Y222945D01*
X59552D01*
X59830Y221906D01*
X60886Y220078D01*
X62378Y218586D01*
X64206Y217530D01*
X66245Y216984D01*
X68355D01*
X70394Y217530D01*
X72222Y218586D01*
X73714Y220078D01*
X74770Y221906D01*
X75316Y223945D01*
Y226055D01*
X74770Y228094D01*
X73714Y229922D01*
X72222Y231414D01*
X70394Y232470D01*
X68355Y233016D01*
X66245D01*
X64206Y232470D01*
X62378Y231414D01*
X60886Y229922D01*
X59830Y228094D01*
X59552Y227055D01*
X35250D01*
X35250Y227056D01*
X34463Y226899D01*
X33797Y226453D01*
X30649Y223305D01*
X25500D01*
X24713Y223149D01*
X24046Y222703D01*
X23601Y222037D01*
X23444Y221250D01*
Y219555D01*
X8696D01*
X7680Y220571D01*
X8262Y221578D01*
X8866Y223833D01*
Y226167D01*
X8262Y228422D01*
X7095Y230444D01*
X5444Y232095D01*
X3422Y233262D01*
X1167Y233866D01*
D02*
G37*
G36*
X100716Y203016D02*
X84684D01*
Y186984D01*
X100716D01*
Y203016D01*
D02*
G37*
G36*
X726500Y183305D02*
X720500D01*
X719713Y183149D01*
X719046Y182703D01*
X718601Y182037D01*
X718445Y181250D01*
Y176556D01*
X713016D01*
Y178016D01*
X702984D01*
Y170984D01*
X713016D01*
Y172444D01*
X718948D01*
X719046Y172297D01*
X719713Y171851D01*
X720500Y171695D01*
X726500D01*
X727287Y171851D01*
X727953Y172297D01*
X728399Y172963D01*
X728556Y173750D01*
Y181250D01*
X728399Y182037D01*
X727953Y182703D01*
X727287Y183149D01*
X726500Y183305D01*
D02*
G37*
G36*
X739500D02*
X733500D01*
X732713Y183149D01*
X732047Y182703D01*
X731601Y182037D01*
X731444Y181250D01*
Y173750D01*
X731601Y172963D01*
X732047Y172297D01*
X732713Y171851D01*
X733500Y171695D01*
X739500D01*
X740287Y171851D01*
X740954Y172297D01*
X741399Y172963D01*
X741555Y173750D01*
Y181250D01*
X741399Y182037D01*
X740954Y182703D01*
X740287Y183149D01*
X739500Y183305D01*
D02*
G37*
G36*
Y168305D02*
X737008D01*
Y163008D01*
X741555D01*
Y166250D01*
X741399Y167037D01*
X740954Y167703D01*
X740287Y168149D01*
X739500Y168305D01*
D02*
G37*
G36*
X735992D02*
X733500D01*
X732713Y168149D01*
X732047Y167703D01*
X731601Y167037D01*
X731444Y166250D01*
Y163008D01*
X735992D01*
Y168305D01*
D02*
G37*
G36*
X741555Y161992D02*
X737008D01*
Y156694D01*
X739500D01*
X740287Y156851D01*
X740954Y157296D01*
X741399Y157963D01*
X741555Y158750D01*
Y161992D01*
D02*
G37*
G36*
X735992D02*
X731444D01*
Y158750D01*
X731601Y157963D01*
X732047Y157296D01*
X732713Y156851D01*
X733500Y156694D01*
X735992D01*
Y161992D01*
D02*
G37*
G36*
X697016Y178016D02*
X686984D01*
Y170984D01*
X694109D01*
X695138Y169955D01*
X694750Y169016D01*
X686984D01*
Y161984D01*
X689945D01*
Y127851D01*
X646006Y83913D01*
X645796Y84000D01*
X644204D01*
X642734Y83391D01*
X641609Y82266D01*
X641000Y80796D01*
Y79204D01*
X641469Y78071D01*
X640960Y77056D01*
X612500D01*
X612500Y77056D01*
X611713Y76899D01*
X611046Y76453D01*
X608506Y73913D01*
X608296Y74000D01*
X606704D01*
X605234Y73391D01*
X604109Y72266D01*
X603500Y70796D01*
Y69204D01*
X604109Y67734D01*
X605234Y66609D01*
X606704Y66000D01*
X608296D01*
X609766Y66609D01*
X610891Y67734D01*
X611500Y69204D01*
Y70796D01*
X611413Y71006D01*
X613351Y72944D01*
X648000D01*
X648000Y72944D01*
X648787Y73101D01*
X649454Y73547D01*
X651453Y75546D01*
X651453Y75546D01*
X651899Y76213D01*
X652056Y77000D01*
Y79883D01*
X701453Y129281D01*
X701899Y129948D01*
X702056Y130735D01*
X702056Y130735D01*
Y161773D01*
X702984Y161984D01*
X703072Y161984D01*
X713016D01*
Y163319D01*
X718445D01*
Y158750D01*
X718601Y157963D01*
X719046Y157296D01*
X719713Y156851D01*
X720500Y156694D01*
X726500D01*
X727287Y156851D01*
X727953Y157296D01*
X728399Y157963D01*
X728556Y158750D01*
Y166250D01*
X728399Y167037D01*
X727953Y167703D01*
X727287Y168149D01*
X726500Y168305D01*
X720500D01*
X719713Y168149D01*
X719046Y167703D01*
X718864Y167430D01*
X713016D01*
Y169016D01*
X702984D01*
Y168540D01*
X701968Y168440D01*
X701899Y168787D01*
X701453Y169454D01*
X697056Y173851D01*
Y175000D01*
X697016Y175199D01*
Y178016D01*
D02*
G37*
G36*
X660516Y221016D02*
X636484D01*
Y138984D01*
X660516D01*
Y221016D01*
D02*
G37*
G36*
X1167Y78866D02*
X508D01*
Y70508D01*
X8866D01*
Y71167D01*
X8262Y73422D01*
X7095Y75444D01*
X5444Y77095D01*
X3422Y78262D01*
X1167Y78866D01*
D02*
G37*
G36*
X-508D02*
X-1167D01*
X-3422Y78262D01*
X-5444Y77095D01*
X-7095Y75444D01*
X-8262Y73422D01*
X-8866Y71167D01*
Y70508D01*
X-508D01*
Y78866D01*
D02*
G37*
G36*
X8866Y69492D02*
X508D01*
Y61134D01*
X1167D01*
X3422Y61738D01*
X5444Y62905D01*
X7095Y64556D01*
X8262Y66578D01*
X8866Y68833D01*
Y69492D01*
D02*
G37*
G36*
X-508D02*
X-8866D01*
Y68833D01*
X-8262Y66578D01*
X-7095Y64556D01*
X-5444Y62905D01*
X-3422Y61738D01*
X-1167Y61134D01*
X-508D01*
Y69492D01*
D02*
G37*
G36*
X722168Y27540D02*
X721270D01*
Y1270D01*
X747540D01*
Y2167D01*
X746862Y6449D01*
X745522Y10572D01*
X743554Y14434D01*
X741006Y17941D01*
X737941Y21006D01*
X734434Y23554D01*
X730572Y25522D01*
X726449Y26862D01*
X722168Y27540D01*
D02*
G37*
G36*
X718730D02*
X717832D01*
X713551Y26862D01*
X709428Y25522D01*
X705566Y23554D01*
X702059Y21006D01*
X698994Y17941D01*
X696446Y14434D01*
X694478Y10572D01*
X693138Y6449D01*
X692460Y2167D01*
Y1270D01*
X718730D01*
Y27540D01*
D02*
G37*
G36*
X2167D02*
X1270D01*
Y1270D01*
X27540D01*
Y2167D01*
X26862Y6449D01*
X25522Y10572D01*
X23554Y14434D01*
X21006Y17941D01*
X17941Y21006D01*
X14434Y23554D01*
X10572Y25522D01*
X6449Y26862D01*
X2167Y27540D01*
D02*
G37*
G36*
X-1270D02*
X-2167D01*
X-6449Y26862D01*
X-10572Y25522D01*
X-14434Y23554D01*
X-17941Y21006D01*
X-21006Y17941D01*
X-23554Y14434D01*
X-25522Y10572D01*
X-26862Y6449D01*
X-27540Y2167D01*
Y1270D01*
X-1270D01*
Y27540D01*
D02*
G37*
G36*
X747540Y-1270D02*
X721270D01*
Y-27540D01*
X722168D01*
X726449Y-26862D01*
X730572Y-25522D01*
X734434Y-23554D01*
X737941Y-21006D01*
X741006Y-17941D01*
X743554Y-14434D01*
X745522Y-10572D01*
X746862Y-6449D01*
X747540Y-2167D01*
Y-1270D01*
D02*
G37*
G36*
X718730D02*
X692460D01*
Y-2167D01*
X693138Y-6449D01*
X694478Y-10572D01*
X696446Y-14434D01*
X698994Y-17941D01*
X702059Y-21006D01*
X705566Y-23554D01*
X709428Y-25522D01*
X713551Y-26862D01*
X717832Y-27540D01*
X718730D01*
Y-1270D01*
D02*
G37*
G36*
X27540D02*
X1270D01*
Y-27540D01*
X2167D01*
X6449Y-26862D01*
X10572Y-25522D01*
X14434Y-23554D01*
X17941Y-21006D01*
X21006Y-17941D01*
X23554Y-14434D01*
X25522Y-10572D01*
X26862Y-6449D01*
X27540Y-2167D01*
Y-1270D01*
D02*
G37*
G36*
X-1270D02*
X-27540D01*
Y-2167D01*
X-26862Y-6449D01*
X-25522Y-10572D01*
X-23554Y-14434D01*
X-21006Y-17941D01*
X-17941Y-21006D01*
X-14434Y-23554D01*
X-10572Y-25522D01*
X-6449Y-26862D01*
X-2167Y-27540D01*
X-1270D01*
Y-1270D01*
D02*
G37*
G36*
X305516Y-27484D02*
X303008D01*
Y-31992D01*
X305516D01*
Y-27484D01*
D02*
G37*
G36*
X301992D02*
X299484D01*
Y-31992D01*
X301992D01*
Y-27484D01*
D02*
G37*
G36*
X180516D02*
X178008D01*
Y-31992D01*
X180516D01*
Y-27484D01*
D02*
G37*
G36*
X176992D02*
X174484D01*
Y-31992D01*
X176992D01*
Y-27484D01*
D02*
G37*
%LPD*%
G36*
X420000Y685000D02*
X440000D01*
Y655000D01*
X420000D01*
Y640000D01*
X395000D01*
Y700000D01*
X420000D01*
Y685000D01*
D02*
G37*
G36*
X365000Y640000D02*
X337500D01*
Y650000D01*
X337011D01*
Y650016D01*
X325000D01*
Y659984D01*
X337011D01*
Y660000D01*
X337500D01*
Y700000D01*
X365000D01*
Y640000D01*
D02*
G37*
G36*
X302989Y659984D02*
X315000D01*
Y630000D01*
X230000D01*
Y590000D01*
X160000D01*
Y620000D01*
X180000D01*
Y646544D01*
X180484Y647359D01*
X187516D01*
Y652891D01*
X187055D01*
Y659022D01*
X187266Y659109D01*
X188157Y660000D01*
X302989D01*
Y659984D01*
D02*
G37*
G36*
X522500Y451100D02*
X490000D01*
Y485000D01*
X522500D01*
Y451100D01*
D02*
G37*
G36*
Y415000D02*
X490000D01*
Y450000D01*
X522500D01*
Y415000D01*
D02*
G37*
G36*
X605000Y400000D02*
X571100D01*
Y450000D01*
X570778Y450778D01*
X570000Y451100D01*
X537500D01*
Y485000D01*
X605000D01*
Y400000D01*
D02*
G37*
G36*
X570000Y375000D02*
X490000D01*
Y413900D01*
X522500D01*
X523278Y414222D01*
X523600Y415000D01*
X537500D01*
Y450000D01*
X570000D01*
Y375000D01*
D02*
G37*
G36*
Y170000D02*
X537500D01*
Y205000D01*
X490000D01*
Y245000D01*
X570000D01*
Y170000D01*
D02*
G37*
G36*
X522500D02*
X490000D01*
Y203900D01*
X522500D01*
Y170000D01*
D02*
G37*
G36*
X605000Y135000D02*
X537500D01*
Y168900D01*
X570000D01*
X570778Y169222D01*
X571100Y170000D01*
Y220000D01*
X605000D01*
Y135000D01*
D02*
G37*
G36*
X522500D02*
X490000D01*
Y168900D01*
X522500D01*
Y135000D01*
D02*
G37*
G36*
X230000Y485000D02*
X488900D01*
Y451100D01*
X489128Y450550D01*
X488900Y450000D01*
Y415000D01*
X489128Y414450D01*
X488900Y413900D01*
Y375000D01*
X489222Y374222D01*
X490000Y373900D01*
Y343516D01*
X488984D01*
Y319484D01*
X490000D01*
Y300516D01*
X488984D01*
Y276484D01*
X490000D01*
Y246100D01*
X489222Y245778D01*
X488900Y245000D01*
Y205000D01*
X489128Y204450D01*
X488900Y203900D01*
Y170000D01*
X489128Y169450D01*
X488900Y168900D01*
Y135000D01*
X447500D01*
X440000Y142500D01*
Y213500D01*
X440796D01*
X442266Y214109D01*
X443391Y215234D01*
X444000Y216704D01*
Y218296D01*
X443391Y219766D01*
X442536Y220621D01*
X442364Y221250D01*
X442536Y221879D01*
X443391Y222734D01*
X444000Y224204D01*
Y225796D01*
X443391Y227266D01*
X442266Y228391D01*
X440796Y229000D01*
X440000D01*
Y435000D01*
X180000D01*
Y546544D01*
X180484Y547359D01*
X181016Y547359D01*
X187516D01*
Y552891D01*
X187055D01*
Y559022D01*
X187266Y559109D01*
X188391Y560234D01*
X189000Y561704D01*
Y563296D01*
X188391Y564766D01*
X187266Y565891D01*
X185796Y566500D01*
X184204D01*
X182734Y565891D01*
X181609Y564766D01*
X181000Y563296D01*
Y561704D01*
X181609Y560234D01*
X182734Y559109D01*
X182945Y559022D01*
Y553609D01*
X182226Y552891D01*
X180484Y552891D01*
X180000Y553707D01*
Y560000D01*
X160000D01*
Y588900D01*
X230000D01*
Y485000D01*
D02*
G37*
G36*
X660000Y645275D02*
X659750Y645070D01*
X658671Y644855D01*
X657756Y644244D01*
X657144Y643329D01*
X656930Y642250D01*
Y637750D01*
X657144Y636671D01*
X657500Y636139D01*
Y635000D01*
X650000D01*
Y687500D01*
X660000D01*
Y645275D01*
D02*
G37*
G36*
X693840Y651614D02*
X694194Y651351D01*
Y645601D01*
X691047Y642454D01*
X690601Y641787D01*
X690444Y641000D01*
X690444Y641000D01*
Y631100D01*
X675275D01*
X675222Y631078D01*
X675167Y631094D01*
X675068Y631041D01*
X674305Y631747D01*
Y632899D01*
X693221Y651814D01*
X693840Y651614D01*
D02*
G37*
G36*
X717500Y620000D02*
X665000D01*
Y627500D01*
X666139D01*
X666671Y627145D01*
X667750Y626930D01*
X672250D01*
X673329Y627145D01*
X674244Y627756D01*
X674855Y628671D01*
X675070Y629750D01*
X675275Y630000D01*
X717500D01*
Y620000D01*
D02*
G37*
G36*
X110000Y625000D02*
X50000D01*
Y655000D01*
X110000D01*
Y625000D01*
D02*
G37*
G36*
X175000D02*
X130000D01*
Y655000D01*
X175000D01*
Y625000D01*
D02*
G37*
G36*
X310000Y600000D02*
X297907D01*
X297188Y600719D01*
X296521Y601165D01*
X295734Y601321D01*
X295734Y601321D01*
X254266D01*
X253516Y601172D01*
X253475Y601167D01*
X252500Y601733D01*
Y615000D01*
X310000D01*
Y600000D01*
D02*
G37*
G36*
X410000Y602056D02*
X345852D01*
X343204Y604703D01*
X342537Y605149D01*
X342406Y605175D01*
X341750Y605305D01*
X341750Y605305D01*
X339766D01*
Y606016D01*
X331234D01*
Y605000D01*
X330000D01*
Y630000D01*
X410000D01*
Y602056D01*
D02*
G37*
G36*
X310000Y530000D02*
X297907D01*
X297188Y530719D01*
X296521Y531165D01*
X295734Y531321D01*
X295734Y531321D01*
X254266D01*
X253516Y531172D01*
X253475Y531167D01*
X252500Y531732D01*
Y545000D01*
X310000D01*
Y530000D01*
D02*
G37*
G36*
X410000Y532056D02*
X345852D01*
X343204Y534703D01*
X342537Y535149D01*
X342406Y535175D01*
X341750Y535305D01*
X341750Y535305D01*
X339766D01*
Y536016D01*
X331234D01*
Y535000D01*
X330000D01*
Y560000D01*
X410000D01*
Y532056D01*
D02*
G37*
G36*
X175000Y525000D02*
X130000D01*
Y555000D01*
X175000D01*
Y525000D01*
D02*
G37*
G36*
X361400Y350000D02*
X361722Y349222D01*
X362500Y348900D01*
Y330000D01*
X347500D01*
Y355000D01*
X325000D01*
Y327500D01*
X307500Y310000D01*
X325000Y292500D01*
Y247500D01*
X320000Y242500D01*
X310000D01*
Y285000D01*
X285000Y310000D01*
X310000Y335000D01*
Y375000D01*
X336843D01*
X337734Y374109D01*
X339204Y373500D01*
X340796D01*
X342266Y374109D01*
X343157Y375000D01*
X344343D01*
X345234Y374109D01*
X346704Y373500D01*
X348296D01*
X349766Y374109D01*
X350657Y375000D01*
X351843D01*
X352734Y374109D01*
X354204Y373500D01*
X355796D01*
X357266Y374109D01*
X358157Y375000D01*
X361400D01*
Y350000D01*
D02*
G37*
G36*
X395000Y307500D02*
X386100D01*
Y356400D01*
X387500D01*
X388278Y356722D01*
X388600Y357500D01*
X395000D01*
Y307500D01*
D02*
G37*
G36*
Y265000D02*
X386100D01*
Y266843D01*
X385778Y267621D01*
X385041Y268357D01*
X385000Y268457D01*
Y271543D01*
X385041Y271643D01*
X385778Y272379D01*
X386100Y273157D01*
Y306400D01*
X395000D01*
Y265000D01*
D02*
G37*
G36*
X387500Y407093D02*
Y357500D01*
X385000D01*
Y273157D01*
X384109Y272266D01*
X383500Y270796D01*
Y269204D01*
X384109Y267734D01*
X385000Y266843D01*
Y265000D01*
X372500D01*
Y269629D01*
X372574Y270000D01*
Y289786D01*
X372500Y290156D01*
Y327344D01*
X372574Y327714D01*
Y330000D01*
X372552Y330107D01*
X372574Y330214D01*
Y345000D01*
X372500Y345371D01*
Y350000D01*
X362500D01*
Y407093D01*
X365851Y410444D01*
X384149D01*
X387500Y407093D01*
D02*
G37*
G36*
X362500Y265000D02*
X370000D01*
Y250000D01*
X347500D01*
Y290000D01*
X362500D01*
Y265000D01*
D02*
G37*
G36*
X110000Y420000D02*
X80000D01*
Y525000D01*
X50000D01*
Y555000D01*
X110000D01*
Y420000D01*
D02*
G37*
G36*
X197712Y194410D02*
X198058Y192674D01*
X199403Y190661D01*
X201707Y188357D01*
Y176980D01*
Y166410D01*
X199848D01*
X199391Y166319D01*
X197169Y166026D01*
X194673Y164992D01*
X193222Y163879D01*
X192206Y164380D01*
Y182646D01*
Y187106D01*
X193213Y188612D01*
X193685Y190987D01*
Y194749D01*
X194013Y195000D01*
X195987D01*
X196654Y195179D01*
X197712Y194410D01*
D02*
G37*
D11*
X395000Y613254D02*
X398246Y616500D01*
X420000D01*
D14*
X181500Y-7500D02*
X187500D01*
X181000Y-8000D02*
X181500Y-7500D01*
X187000Y-16000D02*
X187500Y-15500D01*
Y-7500D01*
X277500Y500D02*
X278000Y1000D01*
X277500Y-7500D02*
Y500D01*
X262000Y-16000D02*
X262500Y-15500D01*
Y-7500D01*
X247000Y-16000D02*
X247500Y-15500D01*
Y-7500D01*
X232000Y-16000D02*
X232500Y-15500D01*
Y-7500D01*
X217000Y-16000D02*
X217500Y-15500D01*
Y-7500D01*
X202000Y-16000D02*
X202500Y-15500D01*
Y-7500D01*
X274984Y-14984D02*
X352316D01*
X272500Y-12500D02*
X274984Y-14984D01*
X352316D02*
X367300Y0D01*
X273000Y-18000D02*
X374700D01*
X392700Y0D01*
X267871Y-12871D02*
X273000Y-18000D01*
X0Y325000D02*
X344D01*
X7844Y317500D01*
X28500D01*
X0Y285000D02*
X17500Y302500D01*
X28500D01*
X0Y185000D02*
X17500Y202500D01*
X28500D01*
X0Y225000D02*
X344D01*
X7844Y217500D01*
X28500D01*
X695000Y173000D02*
Y175000D01*
X365000Y255000D02*
X388500D01*
X257500Y607500D02*
X265000D01*
X256688D02*
X257500D01*
X245000Y536500D02*
X264000D01*
X607500Y70000D02*
X612500Y75000D01*
X648000D01*
X650000Y77000D01*
Y80735D01*
X645000Y80000D02*
X692000Y127000D01*
X700000Y130735D02*
Y168000D01*
X692000Y127000D02*
Y165500D01*
X650000Y80735D02*
X700000Y130735D01*
X418100Y0D02*
X436632Y-18532D01*
X633068D01*
X651600Y0D01*
X493751Y-15516D02*
X610684D01*
X588300Y-12500D02*
X600800Y0D01*
X610684Y-15516D02*
X626200Y0D01*
X495000Y-12500D02*
X588300D01*
X485000Y-6765D02*
X493751Y-15516D01*
X485000Y-6765D02*
Y5000D01*
X488016Y-5516D02*
X495000Y-12500D01*
X488016Y-5516D02*
Y6919D01*
X417000Y73000D02*
X485000Y5000D01*
X420016Y74919D02*
X488016Y6919D01*
X557900Y17500D02*
X575400Y0D01*
X497500Y17500D02*
X557900D01*
X432080Y82920D02*
X497500Y17500D01*
X432080Y82920D02*
Y375420D01*
X497500Y12500D02*
X537500D01*
X495516Y9484D02*
X515116D01*
X524600Y0D01*
X426048Y78952D02*
X495516Y9484D01*
X429064Y80936D02*
X497500Y12500D01*
X423032Y76168D02*
X499200Y0D01*
X537500Y12500D02*
X550000Y0D01*
X429064Y80936D02*
Y373436D01*
X420016Y74919D02*
Y322055D01*
X423032Y76168D02*
Y325968D01*
X417000Y73000D02*
Y317328D01*
X426048Y78952D02*
Y371452D01*
X414936Y319392D02*
X417000Y317328D01*
X414936Y319392D02*
Y320000D01*
X355016Y118784D02*
X473800Y0D01*
X355016Y118784D02*
Y242484D01*
X352000Y96400D02*
Y238000D01*
Y96400D02*
X448400Y0D01*
X282500Y-7500D02*
Y7500D01*
X290000Y6688D02*
Y7500D01*
X287500Y4188D02*
X290000Y6688D01*
X287500Y-7500D02*
Y4188D01*
X272500Y-12500D02*
Y-7500D01*
X267500D02*
X267871Y-7871D01*
Y-12871D02*
Y-7871D01*
X620500Y637000D02*
Y642000D01*
X620000Y642500D02*
X620500Y642000D01*
X660000Y530214D02*
Y540000D01*
Y530214D02*
X660214Y530000D01*
X640000Y530214D02*
Y540000D01*
X639786Y530000D02*
X640000Y530214D01*
X654786Y670000D02*
X668500D01*
X681500Y659000D02*
Y670000D01*
X690000Y530214D02*
Y540000D01*
Y530214D02*
X690214Y530000D01*
X696250Y644750D02*
Y645500D01*
X699250Y648500D01*
X696250Y657750D02*
Y658500D01*
X692500Y641000D02*
X696250Y644750D01*
X692500Y625000D02*
Y641000D01*
X696250Y658500D02*
X699250Y661500D01*
X700000D01*
X699250Y648500D02*
X700000D01*
X627750Y629750D02*
X630000D01*
X600250Y623250D02*
X630000D01*
X600000Y623500D02*
X600250Y623250D01*
X620500Y637000D02*
X627750Y629750D01*
X609786Y595786D02*
X624250Y610250D01*
X600429Y596429D02*
X620750Y616750D01*
X627500Y650000D02*
X628000Y649500D01*
X633000D01*
X659750Y640000D02*
Y640135D01*
X633000Y649500D02*
X640250Y642250D01*
Y640000D02*
Y642250D01*
X659750Y640135D02*
X660443Y640828D01*
X679250Y616750D02*
X699571Y596429D01*
X670000Y616750D02*
X679250D01*
X675750Y610250D02*
X690214Y595786D01*
X670000Y629750D02*
X671557D01*
X672250Y630443D01*
X670000Y610250D02*
X675750D01*
X672250Y630443D02*
Y633750D01*
X660443Y640828D02*
X663328D01*
X624250Y610250D02*
X630000D01*
X620750Y616750D02*
X630000D01*
X663328Y640828D02*
X681500Y659000D01*
X672250Y633750D02*
X696250Y657750D01*
X609786Y559214D02*
X612500Y556500D01*
X597500D02*
X600214Y559214D01*
X699571Y570429D02*
Y596429D01*
X690214Y570000D02*
Y595786D01*
X699571Y570429D02*
X700000Y570000D01*
X639786Y559214D02*
Y578786D01*
X630214Y559214D02*
Y570000D01*
X630429D02*
Y578618D01*
X639786Y559214D02*
X642500Y556500D01*
X627500D02*
X630214Y559214D01*
X639786Y578786D02*
X646750Y585750D01*
X653250D02*
Y600000D01*
X640250Y588439D02*
Y600000D01*
X659750Y588439D02*
Y600000D01*
X646750Y585750D02*
Y600000D01*
X653250Y585750D02*
X660214Y578786D01*
X659750Y588439D02*
X669786Y578404D01*
X630429Y578618D02*
X640250Y588439D01*
X660214Y559214D02*
Y578786D01*
X657500Y556500D02*
X660214Y559214D01*
X669786D02*
X672500Y556500D01*
X669786Y559214D02*
Y578404D01*
X600214Y559214D02*
Y570000D01*
X609786Y559214D02*
Y595786D01*
X600429Y570000D02*
Y596429D01*
X690214Y559214D02*
Y570000D01*
X687500Y556500D02*
X690214Y559214D01*
X700000Y559000D02*
X702500Y556500D01*
X700000Y559000D02*
Y570000D01*
X609786Y530000D02*
X610000Y530214D01*
Y540000D01*
X347500Y242500D02*
X352000Y238000D01*
X355000Y242500D02*
X355016Y242484D01*
X340000Y377500D02*
Y397500D01*
X361032Y418532D01*
X388968D01*
X432080Y375420D01*
X347500Y377500D02*
Y400000D01*
X363016Y415516D01*
X355000Y377500D02*
Y402500D01*
X365000Y412500D01*
X385000D01*
X363016Y415516D02*
X386984D01*
X429064Y373436D01*
X385000Y412500D02*
X426048Y371452D01*
X41500Y202500D02*
X44426Y205426D01*
Y209426D01*
X45000Y210000D01*
X41500Y217500D02*
X44426Y214574D01*
Y210574D02*
Y214574D01*
Y210574D02*
X45000Y210000D01*
X41500Y302500D02*
X44426Y305426D01*
Y309426D01*
X45000Y310000D01*
X41500Y317500D02*
X44426Y314574D01*
Y310574D02*
Y314574D01*
Y310574D02*
X45000Y310000D01*
X245000Y606500D02*
X255688D01*
X256688Y607500D01*
X264000Y536500D02*
X265000Y537500D01*
X695000Y173000D02*
X700000Y168000D01*
X720625Y165375D02*
X723500Y162500D01*
X708125Y165375D02*
X720625D01*
X708000Y165500D02*
X708125Y165375D01*
X708000Y174500D02*
X720500D01*
X723500Y177500D01*
X384000Y710000D02*
X403500Y690500D01*
X327500Y710000D02*
X384000D01*
X309005Y691505D02*
X327500Y710000D01*
X309005Y664500D02*
Y691505D01*
X403500Y670000D02*
Y690500D01*
X410000Y325000D02*
X417071D01*
X419000Y330000D02*
X423032Y325968D01*
X415000Y330000D02*
X419000D01*
X417071Y325000D02*
X420016Y322055D01*
X535000Y430000D02*
X544500D01*
X515500D02*
X525000D01*
X515500Y470000D02*
X525000D01*
X535000D02*
X544500D01*
X515500Y150000D02*
X525000D01*
X535000D02*
X544500D01*
X535000Y190000D02*
X544500D01*
X515500D02*
X525000D01*
X398938Y252438D02*
X401500Y255000D01*
X398938Y246438D02*
Y252438D01*
X372500Y220000D02*
X398938Y246438D01*
X35250Y195000D02*
X67300D01*
X28500Y201750D02*
X35250Y195000D01*
X35250Y225000D02*
X67300D01*
X28500Y218250D02*
X35250Y225000D01*
X28500Y318250D02*
X35250Y325000D01*
X67300D01*
X28500Y301750D02*
X35250Y295000D01*
X67300D01*
X324786Y570000D02*
X324976Y570191D01*
X330191D01*
X184000Y650125D02*
X184250D01*
X185000Y650875D01*
Y662500D01*
Y550875D02*
Y562500D01*
X184250Y550125D02*
X185000Y550875D01*
X184000Y550125D02*
X184250D01*
X335500Y533250D02*
X341750D01*
X345000Y530000D01*
X410750D01*
X419250Y521500D01*
X420000Y522250D02*
Y533500D01*
X419250Y521500D02*
X420000Y522250D01*
X342500Y512500D02*
Y524828D01*
X324976Y500191D02*
X330191D01*
X342500Y512500D01*
X324786Y500000D02*
X324976Y500191D01*
X341329Y526000D02*
X342500Y524828D01*
X336250Y526000D02*
X341329D01*
X335500Y526750D02*
X336250Y526000D01*
Y596000D02*
X341329D01*
X342500Y582500D02*
Y594828D01*
X341329Y596000D02*
X342500Y594828D01*
X330191Y570191D02*
X342500Y582500D01*
X335500Y596750D02*
X336250Y596000D01*
X419250Y591500D02*
X420000Y592250D01*
Y603500D01*
X410750Y600000D02*
X419250Y591500D01*
X345000Y600000D02*
X410750D01*
X341750Y603250D02*
X345000Y600000D01*
X335500Y603250D02*
X341750D01*
X298250Y596750D02*
X304500D01*
X295734Y599266D02*
X298250Y596750D01*
X254266Y599266D02*
X295734D01*
X247453Y525953D02*
X250954D01*
X254266Y529266D02*
X295734D01*
X250954Y525953D02*
X254266Y529266D01*
X245000Y523500D02*
X247453Y525953D01*
X245000Y593500D02*
X247453Y595953D01*
X250953D02*
X254266Y599266D01*
X247453Y595953D02*
X250953D01*
X298250Y526750D02*
X304500D01*
X295734Y529266D02*
X298250Y526750D01*
D19*
X646750Y640000D02*
Y648250D01*
Y623250D02*
X650000Y620000D01*
X645000Y650000D02*
X646750Y648250D01*
Y623250D02*
Y640000D01*
X295000Y0D02*
X341900D01*
X292500Y-2500D02*
X295000Y0D01*
X292500Y-7500D02*
Y-2500D01*
X367500Y555000D02*
X465000D01*
X480000Y540000D01*
X402500Y625000D02*
X465000D01*
X480000Y610000D01*
X430000Y677500D02*
X432500Y680000D01*
X480000D01*
X120000Y610000D02*
X122865D01*
X130166Y602700D01*
X170000D01*
X120000Y570000D02*
X122865D01*
X130166Y577300D01*
X170000D01*
X356500Y670000D02*
Y678500D01*
X350000Y685000D02*
X356500Y678500D01*
X324786Y685000D02*
X350000D01*
X315214D02*
X316857Y683357D01*
Y677138D02*
Y683357D01*
Y677138D02*
X329495Y664500D01*
X330995D01*
D20*
X700000Y634786D02*
D03*
Y625214D02*
D03*
D21*
X645214Y670000D02*
D03*
X699786Y530000D02*
D03*
X669786D02*
D03*
X600214D02*
D03*
X630214D02*
D03*
X399786Y345000D02*
D03*
Y330000D02*
D03*
X367714Y345000D02*
D03*
Y330000D02*
D03*
X399786Y315000D02*
D03*
X342714Y350000D02*
D03*
Y335000D02*
D03*
X399786Y300000D02*
D03*
Y285000D02*
D03*
X367714D02*
D03*
Y270000D02*
D03*
X399786D02*
D03*
X342714D02*
D03*
Y255000D02*
D03*
X315214Y570000D02*
D03*
X329786Y335000D02*
D03*
Y350000D02*
D03*
X315214Y500000D02*
D03*
X329786Y270000D02*
D03*
Y255000D02*
D03*
X654786Y670000D02*
D03*
X660214Y530000D02*
D03*
X669786Y570000D02*
D03*
X660214D02*
D03*
X630214D02*
D03*
X639786D02*
D03*
Y530000D02*
D03*
X699786Y570000D02*
D03*
X690214D02*
D03*
Y530000D02*
D03*
X609786D02*
D03*
X600214Y570000D02*
D03*
X609786D02*
D03*
X352286Y270000D02*
D03*
Y255000D02*
D03*
X377286Y345000D02*
D03*
Y330000D02*
D03*
Y270000D02*
D03*
Y285000D02*
D03*
X320214Y350000D02*
D03*
Y335000D02*
D03*
X352286Y350000D02*
D03*
Y335000D02*
D03*
X320214Y255000D02*
D03*
Y270000D02*
D03*
X390214Y345000D02*
D03*
Y330000D02*
D03*
Y315000D02*
D03*
Y270000D02*
D03*
Y285000D02*
D03*
Y300000D02*
D03*
X324786Y500000D02*
D03*
Y570000D02*
D03*
X324786Y685000D02*
D03*
X315214D02*
D03*
D22*
X650000Y620000D02*
D03*
D23*
X646750Y640000D02*
D03*
X659750D02*
D03*
X640250D02*
D03*
Y600000D02*
D03*
X646750D02*
D03*
X653250D02*
D03*
X659750D02*
D03*
X653250Y640000D02*
D03*
D24*
X600000Y636500D02*
D03*
X420000Y578500D02*
D03*
Y508500D02*
D03*
X657500Y543500D02*
D03*
Y556500D02*
D03*
X627500Y543500D02*
D03*
Y556500D02*
D03*
X642500Y543500D02*
D03*
Y556500D02*
D03*
X700000Y661500D02*
D03*
Y648500D02*
D03*
X672500Y543500D02*
D03*
Y556500D02*
D03*
X702500Y543500D02*
D03*
Y556500D02*
D03*
X687500Y543500D02*
D03*
Y556500D02*
D03*
X600000Y623500D02*
D03*
X612500Y543500D02*
D03*
Y556500D02*
D03*
X597500Y543500D02*
D03*
Y556500D02*
D03*
X245000Y606500D02*
D03*
Y536500D02*
D03*
X420000Y616500D02*
D03*
Y546500D02*
D03*
Y533500D02*
D03*
X245000Y523500D02*
D03*
X420000Y521500D02*
D03*
Y603500D02*
D03*
X245000Y593500D02*
D03*
X420000Y591500D02*
D03*
D25*
X430000Y646742D02*
D03*
Y693258D02*
D03*
Y676742D02*
D03*
Y663258D02*
D03*
D26*
X395000Y586746D02*
D03*
Y516746D02*
D03*
X360000Y586746D02*
D03*
Y516746D02*
D03*
X395000Y613254D02*
D03*
X360000D02*
D03*
X395000Y543254D02*
D03*
X360000D02*
D03*
D27*
X736500Y162500D02*
D03*
X681500Y670000D02*
D03*
X668500D02*
D03*
X736500Y177500D02*
D03*
X723500D02*
D03*
Y162500D02*
D03*
X388500Y255000D02*
D03*
X41500Y217500D02*
D03*
Y202500D02*
D03*
Y302500D02*
D03*
Y317500D02*
D03*
X401500Y255000D02*
D03*
X28500Y202500D02*
D03*
Y217500D02*
D03*
Y317500D02*
D03*
Y302500D02*
D03*
D28*
X365500Y300000D02*
D03*
X332000Y285000D02*
D03*
X340500D02*
D03*
X354500D02*
D03*
X379500Y300000D02*
D03*
X318000Y285000D02*
D03*
D29*
X330995Y645500D02*
D03*
X309005Y664500D02*
D03*
X330995D02*
D03*
Y655000D02*
D03*
X309005Y645500D02*
D03*
Y655000D02*
D03*
D30*
X280000Y675000D02*
D03*
X245000D02*
D03*
X280000Y645000D02*
D03*
X245000D02*
D03*
D31*
X304500Y590250D02*
D03*
Y520250D02*
D03*
Y609750D02*
D03*
Y603250D02*
D03*
Y539750D02*
D03*
Y533250D02*
D03*
X335500Y609750D02*
D03*
Y539750D02*
D03*
X304500Y526750D02*
D03*
X335500Y520250D02*
D03*
Y526750D02*
D03*
Y533250D02*
D03*
X304500Y596750D02*
D03*
X335500Y590250D02*
D03*
Y596750D02*
D03*
Y603250D02*
D03*
D32*
X320000Y600000D02*
D03*
Y530000D02*
D03*
D33*
X265000Y592500D02*
D03*
X285000D02*
D03*
X265000Y522500D02*
D03*
X285000D02*
D03*
Y607500D02*
D03*
X265000D02*
D03*
Y537500D02*
D03*
X285000D02*
D03*
D34*
X302500Y-32500D02*
D03*
X177500D02*
D03*
D35*
X630000Y629750D02*
D03*
Y623250D02*
D03*
Y616750D02*
D03*
Y610250D02*
D03*
X670000D02*
D03*
Y616750D02*
D03*
Y629750D02*
D03*
Y623250D02*
D03*
D36*
X648500Y180000D02*
D03*
X591500Y440000D02*
D03*
Y180000D02*
D03*
X648500Y440000D02*
D03*
D37*
X708000Y174500D02*
D03*
X692000Y165500D02*
D03*
X708000D02*
D03*
X692000Y174500D02*
D03*
D38*
X403500Y670000D02*
D03*
X356500D02*
D03*
D39*
X515500Y470000D02*
D03*
X544500D02*
D03*
Y190000D02*
D03*
X515500D02*
D03*
X544500Y430000D02*
D03*
X515500D02*
D03*
X544500Y150000D02*
D03*
X515500D02*
D03*
D40*
X530000Y231500D02*
D03*
Y288500D02*
D03*
Y388500D02*
D03*
Y331500D02*
D03*
D41*
X465000Y470000D02*
D03*
X495000D02*
D03*
X465000Y190000D02*
D03*
X495000D02*
D03*
X465000Y430000D02*
D03*
X495000D02*
D03*
X465000Y150000D02*
D03*
X495000D02*
D03*
D42*
X137250Y640000D02*
D03*
X102750D02*
D03*
X137250Y540000D02*
D03*
X102750D02*
D03*
D43*
X184000Y650125D02*
D03*
Y643625D02*
D03*
Y637125D02*
D03*
Y630625D02*
D03*
Y550125D02*
D03*
Y543625D02*
D03*
Y537125D02*
D03*
Y530625D02*
D03*
D57*
X10000Y610000D02*
D03*
Y510000D02*
D03*
X62000Y645000D02*
D03*
Y545000D02*
D03*
D58*
X35000Y440000D02*
D03*
D59*
X65000Y393000D02*
D03*
D60*
X0Y70000D02*
D03*
Y225000D02*
D03*
Y185000D02*
D03*
Y325000D02*
D03*
Y285000D02*
D03*
X480000Y680000D02*
D03*
Y610000D02*
D03*
Y540000D02*
D03*
X120000Y570000D02*
D03*
Y610000D02*
D03*
D64*
X651600Y0D02*
D03*
D66*
X473800D02*
D03*
X550000D02*
D03*
X524600D02*
D03*
X626200D02*
D03*
X575400D02*
D03*
X499200D02*
D03*
X448400D02*
D03*
X600800D02*
D03*
D68*
X95000Y440000D02*
D03*
D70*
X229261Y110368D02*
G03*
X222913Y104020I0J-6348D01*
G01*
X221521Y121796D02*
G03*
X225695Y117622I4174J0D01*
G01*
Y133224D02*
G03*
X221521Y129050I0J-4174D01*
G01*
X222913Y146826D02*
G03*
X229261Y140478I6348J0D01*
G01*
Y106194D02*
G03*
X227087Y104020I0J-2174D01*
G01*
X229261Y106194D02*
G03*
X233435Y110368I0J4174D01*
G01*
Y117622D02*
G03*
X229261Y121796I-4174J0D01*
G01*
X230837Y129050D02*
G03*
X235011Y133224I0J4174D01*
G01*
Y140478D02*
G03*
X230837Y144652I-4174J0D01*
G01*
X227087Y146826D02*
G03*
X229261Y144652I2174J0D01*
G01*
X207913Y142427D02*
G03*
X205739Y144601I-2174J0D01*
G01*
X195674Y148775D02*
G03*
X199848Y144601I4174J0D01*
G01*
Y160203D02*
G03*
X195674Y156029I0J-4174D01*
G01*
X205739Y160203D02*
G03*
X207913Y162377I0J2174D01*
G01*
X212087Y142427D02*
G03*
X205739Y148775I-6348J0D01*
G01*
Y156029D02*
G03*
X212087Y162377I0J6348D01*
G01*
X247826Y159639D02*
G03*
X245652Y161813I-2174J0D01*
G01*
X236518Y165987D02*
G03*
X240691Y161813I4174J0D01*
G01*
Y177415D02*
G03*
X236518Y173241I0J-4174D01*
G01*
X235099Y188843D02*
G03*
X239273Y184669I4174J0D01*
G01*
Y200271D02*
G03*
X235099Y196097I0J-4174D01*
G01*
X245652Y200271D02*
G03*
X247826Y202445I0J2174D01*
G01*
X252000Y159639D02*
G03*
X245652Y165987I-6348J0D01*
G01*
X249261Y173241D02*
G03*
X253435Y177415I0J4174D01*
G01*
Y184669D02*
G03*
X249261Y188843I-4174J0D01*
G01*
X245652Y196097D02*
G03*
X252000Y202445I0J6348D01*
G01*
X267500Y144552D02*
G03*
X269674Y142378I2174J0D01*
G01*
X279796Y138204D02*
G03*
X275622Y142378I-4174J0D01*
G01*
Y126776D02*
G03*
X279796Y130950I0J4174D01*
G01*
X281819Y115348D02*
G03*
X277645Y119522I-4174J0D01*
G01*
Y103920D02*
G03*
X281819Y108094I0J4174D01*
G01*
X269674Y103920D02*
G03*
X267500Y101746I0J-2174D01*
G01*
X263326Y144552D02*
G03*
X269674Y138204I6348J0D01*
G01*
X265176Y130950D02*
G03*
X261002Y126776I0J-4174D01*
G01*
Y119522D02*
G03*
X265176Y115348I4174J0D01*
G01*
X269674Y108094D02*
G03*
X263326Y101746I0J-6348D01*
G01*
X186000Y198241D02*
Y200000D01*
Y198241D02*
X187479D01*
Y190987D02*
Y198241D01*
X186000Y190987D02*
X187479D01*
X186000Y182646D02*
Y190987D01*
X227087Y265595D02*
Y267500D01*
Y265595D02*
X228566D01*
Y258341D02*
Y265595D01*
X227087Y258341D02*
X228566D01*
X227087Y250000D02*
Y258341D01*
X222913Y92363D02*
Y104020D01*
X229261Y110368D02*
X229261D01*
Y117622D01*
X225695D02*
X229261D01*
X221521Y121796D02*
Y129050D01*
X225695Y133224D02*
X230837D01*
Y140478D01*
X229261D02*
X230837D01*
X222913Y146826D02*
Y150000D01*
X227087Y92363D02*
X227087D01*
X227087D02*
Y104020D01*
X229261Y106194D02*
X229261D01*
X233435Y110368D02*
Y117622D01*
X225695Y121796D02*
X229261D01*
X225695D02*
Y129050D01*
X230837D01*
X235011Y133224D02*
Y140478D01*
X229261Y144652D02*
X230837D01*
X227087Y146826D02*
Y150000D01*
X227087D01*
X207913Y117500D02*
Y142427D01*
X199848Y144601D02*
X205739D01*
X195674Y148775D02*
Y156029D01*
X199848Y160203D02*
X205739D01*
X207913Y162377D02*
Y176980D01*
X212087Y117500D02*
X212087D01*
X212087D02*
Y142427D01*
X199848Y148775D02*
X205739D01*
X199848D02*
Y156029D01*
X205739D01*
X212087Y162377D02*
Y176980D01*
X212087D01*
X247826Y150303D02*
Y159639D01*
X240691Y161813D02*
X245652D01*
X236518Y165987D02*
Y173241D01*
X240691Y177415D02*
X249261D01*
Y184669D01*
X239273D02*
X249261D01*
X235099Y188843D02*
Y196097D01*
X239273Y200271D02*
X245652D01*
X247826Y202445D02*
Y216063D01*
X246841Y217047D02*
X247826Y216063D01*
X252000Y150303D02*
X252000D01*
X252000D02*
Y159639D01*
X240691Y165987D02*
X245652D01*
X240691D02*
Y173241D01*
X249261D01*
X253435Y177415D02*
Y184669D01*
X239273Y188843D02*
X249261D01*
X239273D02*
Y196097D01*
X245652D01*
X252000Y202445D02*
Y217047D01*
X252000D01*
X267500Y144552D02*
Y155255D01*
X269674Y142378D02*
X275622D01*
X279796Y130950D02*
Y138204D01*
X265176Y126776D02*
X275622D01*
X265176Y119522D02*
Y126776D01*
Y119522D02*
X277645D01*
X281819Y108094D02*
Y115348D01*
X269674Y103920D02*
X277645D01*
X267500Y87144D02*
Y101746D01*
X263326Y155255D02*
X263326D01*
Y144552D02*
Y155255D01*
X269674Y138204D02*
X275622D01*
Y130950D02*
Y138204D01*
X265176Y130950D02*
X275622D01*
X261002Y119522D02*
Y126776D01*
X265176Y115348D02*
X277645D01*
Y108094D02*
Y115348D01*
X269674Y108094D02*
X277645D01*
X263326Y87144D02*
Y101746D01*
X263326Y87144D02*
X263326D01*
X207913Y176980D02*
Y190928D01*
X212087Y176980D02*
Y192657D01*
X267500Y289586D02*
Y292046D01*
Y289586D02*
X268979D01*
Y282332D02*
Y289586D01*
X267500Y282332D02*
X268979D01*
X267500Y273990D02*
Y282332D01*
Y155255D02*
Y273990D01*
Y292046D02*
Y292889D01*
X247826Y24826D02*
Y150303D01*
X252000Y23097D02*
Y150303D01*
X239826Y224063D02*
X246841Y217047D01*
X252000D02*
Y217792D01*
X244000Y225792D02*
X252000Y217792D01*
X239826Y224063D02*
Y246892D01*
X244000Y245163D02*
X245837Y247000D01*
X244000Y241387D02*
Y245163D01*
Y241387D02*
X245479D01*
Y234133D02*
Y241387D01*
X244000Y234133D02*
X245479D01*
X244000Y225792D02*
Y234133D01*
X245837Y247000D02*
X248000Y249163D01*
X239826Y246892D02*
X246271Y253337D01*
X227087Y267500D02*
Y269511D01*
Y150000D02*
Y250000D01*
X207966Y220595D02*
Y222500D01*
Y220595D02*
X209444D01*
Y213341D02*
Y220595D01*
X207966Y213341D02*
X209444D01*
X207966Y205000D02*
Y213341D01*
Y222500D02*
Y225389D01*
Y196778D02*
Y205000D01*
X186000Y21000D02*
Y182646D01*
Y200000D02*
Y202163D01*
X181826Y25000D02*
Y115000D01*
X222913Y-7087D02*
Y92363D01*
X227087Y-1975D02*
Y92363D01*
X222913Y150000D02*
Y271240D01*
X263326Y155255D02*
Y294618D01*
X267500Y18382D02*
Y87144D01*
X263326Y20111D02*
Y87144D01*
X203792Y195049D02*
X207913Y190928D01*
X203792Y195049D02*
Y227118D01*
X207966Y196778D02*
X212087Y192657D01*
X207913Y-1975D02*
Y117500D01*
X212087Y-1975D02*
Y117500D01*
X181826Y19271D02*
Y25000D01*
Y115000D02*
Y203892D01*
X237913Y-1975D02*
Y14913D01*
X242087Y-7087D02*
Y13184D01*
X237913Y14913D02*
X247826Y24826D01*
X242087Y13184D02*
X252000Y23097D01*
X248000Y249163D02*
X252572D01*
X267500Y292889D02*
X268773Y294163D01*
X257087Y7969D02*
X267500Y18382D01*
X263326Y294618D02*
X267045Y298337D01*
X272572D01*
X252913Y9698D02*
X263326Y20111D01*
X268773Y294163D02*
X272572D01*
X222913Y271240D02*
X227510Y275837D01*
X227087Y269511D02*
X229239Y271663D01*
X227087Y-7087D02*
Y-1975D01*
X227087Y-1975D02*
X227087Y-1975D01*
Y-7087D02*
X227500Y-7500D01*
X222500D02*
X222913Y-7087D01*
X227510Y275837D02*
X232572D01*
X229239Y271663D02*
X232572D01*
X272572Y298337D02*
X274235Y300000D01*
X275000D01*
X252500Y-7500D02*
X252913Y-7087D01*
Y-1975D02*
X252913Y-1975D01*
Y9698D01*
X252913Y-7087D02*
Y-1975D01*
X274235Y292500D02*
X275000D01*
X272572Y294163D02*
X274235Y292500D01*
X257087Y-7087D02*
Y7969D01*
Y-7087D02*
X257500Y-7500D01*
X242087Y-7087D02*
X242500Y-7500D01*
X252572Y249163D02*
X254235Y247500D01*
X255000D01*
X237913Y-7087D02*
Y-1975D01*
X237913Y-1975D01*
X237500Y-7500D02*
X237913Y-7087D01*
X246271Y253337D02*
X252572D01*
X254235Y255000D02*
X255000D01*
X252572Y253337D02*
X254235Y255000D01*
X181826Y19271D02*
X192913Y8184D01*
X197087Y-1975D02*
Y9913D01*
X186000Y21000D02*
X197087Y9913D01*
X192913Y-1975D02*
Y8184D01*
X192913Y-7087D02*
Y-1975D01*
X192913Y-1975D01*
X192500Y-7500D02*
X192913Y-7087D01*
X181826Y203892D02*
X186271Y208337D01*
X192572D01*
X194235Y210000D02*
X195000D01*
X192572Y208337D02*
X194235Y210000D01*
X197087Y-1975D02*
X197087Y-1975D01*
Y-7087D02*
Y-1975D01*
Y-7087D02*
X197500Y-7500D01*
X186000Y202163D02*
X188000Y204163D01*
X194235Y202500D02*
X195000D01*
X192572Y204163D02*
X194235Y202500D01*
X188000Y204163D02*
X192572D01*
X207966Y225389D02*
X209239Y226663D01*
X203792Y227118D02*
X207510Y230837D01*
X214235Y232500D02*
X215000D01*
X207510Y230837D02*
X212572D01*
X214235Y232500D01*
X207500Y-7500D02*
X207913Y-7087D01*
Y-1975D02*
X207913Y-1975D01*
X207913Y-7087D02*
Y-1975D01*
X212572Y226663D02*
X214235Y225000D01*
X215000D01*
X209239Y226663D02*
X212572D01*
X212087Y-1975D02*
X212087Y-1975D01*
Y-7087D02*
X212500Y-7500D01*
X212087Y-7087D02*
Y-1975D01*
X234235Y277500D02*
X235000D01*
X232572Y275837D02*
X234235Y277500D01*
X232572Y271663D02*
X234235Y270000D01*
X235000D01*
X395000Y543254D02*
X398246Y546500D01*
X420000D01*
D71*
X277500Y-7500D02*
D03*
X262500D02*
D03*
X247500D02*
D03*
X217500D02*
D03*
X232500D02*
D03*
X187500D02*
D03*
X202500D02*
D03*
X207500D02*
D03*
X252500D02*
D03*
X212500D02*
D03*
X237500D02*
D03*
X257500D02*
D03*
X197500D02*
D03*
X242500D02*
D03*
X192500D02*
D03*
X222500D02*
D03*
X227500D02*
D03*
X292500D02*
D03*
X287500D02*
D03*
X282500D02*
D03*
X272500D02*
D03*
X267500D02*
D03*
D72*
X164900Y640375D02*
D03*
Y540375D02*
D03*
D73*
X341900Y0D02*
D03*
X367300D02*
D03*
D74*
X367714Y330214D02*
Y345000D01*
Y327714D02*
Y330000D01*
X355556Y317778D02*
X357778D01*
X367714Y327714D01*
X355000Y317500D02*
X355417Y317917D01*
X367714Y270000D02*
Y289786D01*
D75*
X733435Y733435D02*
D03*
X720000Y739000D02*
D03*
X739000Y720000D02*
D03*
X706565Y733435D02*
D03*
X701000Y720000D02*
D03*
X733435Y706565D02*
D03*
X720000Y701000D02*
D03*
X706565Y706565D02*
D03*
X733435Y463435D02*
D03*
X720000Y469000D02*
D03*
X739000Y450000D02*
D03*
X706565Y463435D02*
D03*
Y436565D02*
D03*
X733435D02*
D03*
X720000Y431000D02*
D03*
X701000Y450000D02*
D03*
X720000Y19000D02*
D03*
X733435Y13435D02*
D03*
X706565D02*
D03*
X701000Y0D02*
D03*
X739000D02*
D03*
X733435Y-13435D02*
D03*
X706565D02*
D03*
X720000Y-19000D02*
D03*
X19000Y720000D02*
D03*
X13435Y733435D02*
D03*
X0Y739000D02*
D03*
X-13435Y706565D02*
D03*
Y733435D02*
D03*
X-19000Y720000D02*
D03*
X13435Y706565D02*
D03*
X0Y701000D02*
D03*
X13435Y13435D02*
D03*
X0Y19000D02*
D03*
X-13435Y13435D02*
D03*
X-19000Y0D02*
D03*
X19000D02*
D03*
X13435Y-13435D02*
D03*
X-13435D02*
D03*
X0Y-19000D02*
D03*
X195000Y170000D02*
D03*
X310000Y110000D02*
D03*
X735000Y660000D02*
D03*
X667500Y655000D02*
D03*
X685000D02*
D03*
X660000Y710000D02*
D03*
X685000Y637500D02*
D03*
X732500Y395000D02*
D03*
X660000Y510000D02*
D03*
X650000Y620000D02*
D03*
X670000Y395000D02*
D03*
X610000Y710000D02*
D03*
X630000Y640000D02*
D03*
X510000Y710000D02*
D03*
X560000D02*
D03*
X510000Y610000D02*
D03*
X560000D02*
D03*
X460000Y710000D02*
D03*
X410000D02*
D03*
X370000Y705000D02*
D03*
X350000D02*
D03*
X360000D02*
D03*
X460000Y610000D02*
D03*
X380000Y705000D02*
D03*
X535000Y560000D02*
D03*
X485000D02*
D03*
X510000Y510000D02*
D03*
X610000D02*
D03*
X530000Y450000D02*
D03*
X460000Y510000D02*
D03*
X430000Y400000D02*
D03*
X570000Y252500D02*
D03*
X670000Y225000D02*
D03*
X570000Y367500D02*
D03*
X560000Y310000D02*
D03*
X732500Y225000D02*
D03*
X530000Y170000D02*
D03*
X460000Y110000D02*
D03*
X440000Y225000D02*
D03*
Y217500D02*
D03*
X735000Y60000D02*
D03*
X660000Y110000D02*
D03*
X650000Y70000D02*
D03*
X510000Y110000D02*
D03*
X610000D02*
D03*
X485000Y60000D02*
D03*
X535000D02*
D03*
X347778Y325556D02*
D03*
X355556Y317778D02*
D03*
X363335Y310000D02*
D03*
X347778D02*
D03*
X385000Y160000D02*
D03*
X355556Y302222D02*
D03*
X347778Y294444D02*
D03*
X340000Y302222D02*
D03*
Y286665D02*
D03*
X360000Y10000D02*
D03*
X340000Y705000D02*
D03*
X330000D02*
D03*
X322500Y697500D02*
D03*
X320000Y655000D02*
D03*
X310000Y710000D02*
D03*
X260000D02*
D03*
X340000Y333335D02*
D03*
X332222Y325556D02*
D03*
X324444Y317778D02*
D03*
X340000D02*
D03*
X332222Y294444D02*
D03*
Y310000D02*
D03*
X324444Y302222D02*
D03*
X316665Y310000D02*
D03*
X275000Y307500D02*
D03*
X235000Y360000D02*
D03*
X260000Y310000D02*
D03*
X160000Y710000D02*
D03*
X110000D02*
D03*
X210000D02*
D03*
X60000D02*
D03*
X35000Y660000D02*
D03*
X60000Y610000D02*
D03*
X210000Y410000D02*
D03*
X160000Y510000D02*
D03*
X185000Y360000D02*
D03*
X135000Y460000D02*
D03*
Y360000D02*
D03*
X210000Y310000D02*
D03*
X235000Y285000D02*
D03*
X110000Y310000D02*
D03*
X160000D02*
D03*
X60000Y510000D02*
D03*
X35000Y560000D02*
D03*
X10000Y410000D02*
D03*
X110000D02*
D03*
X60000D02*
D03*
X10000Y310000D02*
D03*
X335000Y160000D02*
D03*
X330000Y240000D02*
D03*
X335000Y60000D02*
D03*
X275000Y285000D02*
D03*
X255000Y262500D02*
D03*
X302500Y257500D02*
D03*
X235000Y262500D02*
D03*
X215000Y240000D02*
D03*
X300000Y220000D02*
D03*
X285000Y60000D02*
D03*
X255000Y240000D02*
D03*
X285000Y160000D02*
D03*
X310000Y10000D02*
D03*
X195000Y217500D02*
D03*
X185000Y260000D02*
D03*
X215000Y217500D02*
D03*
X135000Y260000D02*
D03*
X110000Y210000D02*
D03*
X195000Y195000D02*
D03*
X160000Y10000D02*
D03*
Y210000D02*
D03*
X60000Y10000D02*
D03*
Y110000D02*
D03*
X35000Y160000D02*
D03*
Y60000D02*
D03*
X10000Y210000D02*
D03*
X110000Y10000D02*
D03*
X645000Y80000D02*
D03*
X195000Y210000D02*
D03*
X290000Y7500D02*
D03*
X282500D02*
D03*
X600000Y540000D02*
D03*
X620000Y642500D02*
D03*
X655000Y682500D02*
D03*
X627500Y650000D02*
D03*
X610000Y540000D02*
D03*
X640000D02*
D03*
X660000D02*
D03*
X670000D02*
D03*
X630000D02*
D03*
X700000D02*
D03*
X690000D02*
D03*
X712500Y625000D02*
D03*
X653258Y165000D02*
D03*
Y455000D02*
D03*
X535000Y338258D02*
D03*
Y281742D02*
D03*
X390000Y352500D02*
D03*
X367500Y407500D02*
D03*
X375000D02*
D03*
X45000Y210000D02*
D03*
Y310000D02*
D03*
X430000Y662500D02*
D03*
Y677500D02*
D03*
Y670000D02*
D03*
X257500Y537500D02*
D03*
X272500D02*
D03*
X265000D02*
D03*
X257500Y607500D02*
D03*
X272500D02*
D03*
X265000D02*
D03*
X737500Y177500D02*
D03*
X607500Y70000D02*
D03*
X365000Y257500D02*
D03*
X410000Y325000D02*
D03*
X414936Y320000D02*
D03*
X535000Y470000D02*
D03*
X525000D02*
D03*
X535000Y430000D02*
D03*
X525000D02*
D03*
X535000Y150000D02*
D03*
X525000D02*
D03*
Y190000D02*
D03*
X535000D02*
D03*
X387500Y625000D02*
D03*
X395000D02*
D03*
X402500D02*
D03*
X372500Y220000D02*
D03*
X382500Y407500D02*
D03*
X330000Y370000D02*
D03*
X322500D02*
D03*
X315000D02*
D03*
X367500Y555000D02*
D03*
X352500D02*
D03*
X360000D02*
D03*
X275000Y292500D02*
D03*
X215000Y232500D02*
D03*
X320000Y247500D02*
D03*
X195000Y202500D02*
D03*
X215000Y225000D02*
D03*
X255000Y255000D02*
D03*
Y247500D02*
D03*
X235000Y277500D02*
D03*
Y270000D02*
D03*
X275000Y300000D02*
D03*
X379000Y355000D02*
D03*
X380000Y270000D02*
D03*
X320000Y362500D02*
D03*
X355000Y377500D02*
D03*
X410000Y335000D02*
D03*
X340000Y377500D02*
D03*
X415000Y330000D02*
D03*
X347500Y377500D02*
D03*
Y242500D02*
D03*
X355000D02*
D03*
X387500Y270000D02*
D03*
X195000Y640000D02*
D03*
Y540000D02*
D03*
X185000Y662500D02*
D03*
Y562500D02*
D03*
D76*
X720000Y720000D02*
D03*
Y450000D02*
D03*
Y0D02*
D03*
X0Y720000D02*
D03*
Y0D02*
D03*
D77*
X605000Y355750D02*
D03*
X686000D02*
D03*
Y264250D02*
D03*
X605000D02*
D03*
D78*
X640000Y310000D02*
D03*
D79*
X620900Y330000D02*
D03*
X660900D02*
D03*
Y290000D02*
D03*
X620900Y290000D02*
D03*
D80*
X418100Y0D02*
D03*
X92700Y225000D02*
D03*
Y195000D02*
D03*
Y325000D02*
D03*
Y295000D02*
D03*
D81*
X67300Y195000D02*
D03*
Y225000D02*
D03*
X170000Y577300D02*
D03*
X392700Y0D02*
D03*
X67300Y325000D02*
D03*
Y295000D02*
D03*
D82*
X170000Y602700D02*
D03*
D83*
X320000Y536000D02*
D03*
Y594000D02*
D03*
Y524000D02*
D03*
Y606000D02*
D03*
M02*
