G04*
G04 #@! TF.GenerationSoftware,Altium Limited,Altium Designer,25.8.1 (18)*
G04*
G04 Layer_Color=32896*
%FSLAX44Y44*%
%MOMM*%
G71*
G04*
G04 #@! TF.SameCoordinates,7D67BA09-2431-4C98-8CAE-14AC2A5FFEDF*
G04*
G04*
G04 #@! TF.FilePolarity,Positive*
G04*
G01*
G75*
%ADD11C,0.2500*%
%ADD13C,0.5080*%
%ADD14C,0.2000*%
D11*
X618250Y51500D02*
G03*
X618250Y51500I-1250J0D01*
G01*
X346907Y372933D02*
G03*
X346907Y372933I-1250J0D01*
G01*
X459750Y333500D02*
G03*
X459750Y333500I-1250J0D01*
G01*
X187600Y651600D02*
G03*
X187600Y651600I-1250J0D01*
G01*
Y551600D02*
G03*
X187600Y551600I-1250J0D01*
G01*
D13*
X65810Y702967D02*
G03*
X65810Y702967I-3810J0D01*
G01*
Y602966D02*
G03*
X65810Y602966I-3810J0D01*
G01*
D14*
X630469Y153719D02*
X659531D01*
X630469Y176281D02*
X659531D01*
X573000Y68000D02*
Y72000D01*
X587000Y68000D02*
Y72000D01*
X588000Y68000D02*
Y72000D01*
X602000Y68000D02*
Y72000D01*
X668000Y68000D02*
Y72000D01*
X682000Y68000D02*
Y72000D01*
X653000Y68000D02*
Y72000D01*
X667000Y68000D02*
Y72000D01*
X634000Y55000D02*
Y85000D01*
X626000Y55000D02*
Y85000D01*
X634000D01*
X626000Y55000D02*
X634000D01*
X448000Y282000D02*
X452000D01*
X448000Y268000D02*
X452000D01*
X340000Y369397D02*
X343005Y366392D01*
X336995D02*
X340000Y369397D01*
X280603Y310000D02*
X283608Y313005D01*
X280603Y310000D02*
X283608Y306995D01*
X336995Y253608D02*
X340000Y250603D01*
X343005Y253608D01*
X396392Y313005D02*
X399397Y310000D01*
X396392Y306995D02*
X399397Y310000D01*
X648000Y213000D02*
X652000D01*
X648000Y227000D02*
X652000D01*
X630469Y466281D02*
X659531D01*
X630469Y443719D02*
X659531D01*
X513000Y348000D02*
X517000D01*
X513000Y362000D02*
X517000D01*
X417638Y311638D02*
Y328362D01*
X432362Y311638D02*
Y328362D01*
Y291638D02*
Y308362D01*
X417638Y291638D02*
Y308362D01*
X468250Y294000D02*
Y326000D01*
X431750Y294000D02*
Y326000D01*
X390293Y363881D02*
X402119Y375707D01*
X379881Y374293D02*
X391707Y386119D01*
X404293Y349881D02*
X416119Y361707D01*
X393881Y360293D02*
X405707Y372119D01*
X414293Y339881D02*
X426119Y351707D01*
X403881Y350293D02*
X415707Y362119D01*
X323000Y393000D02*
X327000D01*
X323000Y407000D02*
X327000D01*
X348000Y393000D02*
X352000D01*
X348000Y407000D02*
X352000D01*
X323000Y213000D02*
X327000D01*
X323000Y227000D02*
X327000D01*
X513000Y258000D02*
X517000D01*
X513000Y272000D02*
X517000D01*
X397381Y263207D02*
X409207Y251381D01*
X407793Y273619D02*
X419619Y261793D01*
X418636Y384536D02*
X421465Y387364D01*
X428536Y374636D02*
X431364Y377464D01*
X380293Y373881D02*
X392119Y385707D01*
X369881Y384293D02*
X381707Y396119D01*
X432036Y248864D02*
X434864Y246036D01*
X422136Y238965D02*
X424964Y236136D01*
X418036Y234864D02*
X420864Y232036D01*
X408136Y224965D02*
X410965Y222136D01*
X383381Y249207D02*
X395207Y237381D01*
X393793Y259619D02*
X405619Y247793D01*
X523719Y315469D02*
Y344531D01*
X546281Y315469D02*
Y344531D01*
Y275469D02*
Y304531D01*
X523719Y275469D02*
Y304531D01*
X373381Y239207D02*
X385207Y227381D01*
X383793Y249619D02*
X395619Y237793D01*
X348000Y213000D02*
X352000D01*
X348000Y227000D02*
X352000D01*
X407381Y273207D02*
X419207Y261381D01*
X417793Y283619D02*
X429619Y271793D01*
X632622Y219894D02*
X632657Y219929D01*
X620071Y207343D02*
X620106Y207378D01*
X607343Y220071D02*
X620071Y207343D01*
X619894Y232622D02*
X619929Y232657D01*
X607343Y220071D02*
X607378Y220106D01*
X619929Y232657D02*
X632657Y219929D01*
X639300Y181650D02*
X650700D01*
X639300Y208350D02*
X650700D01*
X639300Y411650D02*
X650700D01*
X639300Y438350D02*
X650700D01*
X620071Y412657D02*
X620106Y412622D01*
X632622Y400106D02*
X632657Y400071D01*
X619929Y387343D02*
X632657Y400071D01*
X607343Y399929D02*
X607378Y399894D01*
X619894Y387378D02*
X619929Y387343D01*
X607343Y399929D02*
X620071Y412657D01*
X648000Y393000D02*
X652000D01*
X648000Y407000D02*
X652000D01*
X498850Y356000D02*
X498900D01*
X481100D02*
X481150D01*
X481100D02*
Y374000D01*
X498850D02*
X498900D01*
X481100D02*
X481150D01*
X498900Y356000D02*
Y374000D01*
X494300Y316650D02*
X505700D01*
X494300Y343350D02*
X505700D01*
X494300Y276650D02*
X505700D01*
X494300Y303350D02*
X505700D01*
X481100Y264000D02*
X481150D01*
X498850D02*
X498900D01*
Y246000D02*
Y264000D01*
X481100Y246000D02*
X481150D01*
X498850D02*
X498900D01*
X481100D02*
Y264000D01*
X404636Y398536D02*
X407464Y401364D01*
X414536Y388636D02*
X417364Y391465D01*
X168000Y667000D02*
X172000D01*
X168000Y653000D02*
X172000D01*
X177800Y632000D02*
Y648000D01*
X162200D02*
X177800D01*
X162200Y632000D02*
X177800D01*
X162200D02*
Y648000D01*
X168000Y567000D02*
X172000D01*
X168000Y553000D02*
X172000D01*
X177800Y532000D02*
Y548000D01*
X162200D02*
X177800D01*
X162200Y532000D02*
X177800D01*
X162200D02*
Y548000D01*
M02*
