G04*
G04 #@! TF.GenerationSoftware,Altium Limited,Altium Designer,25.8.1 (18)*
G04*
G04 Layer_Color=8421504*
%FSLAX44Y44*%
%MOMM*%
G71*
G04*
G04 #@! TF.SameCoordinates,7D67BA09-2431-4C98-8CAE-14AC2A5FFEDF*
G04*
G04*
G04 #@! TF.FilePolarity,Positive*
G04*
G01*
G75*
%ADD20R,0.6725X0.7154*%
%ADD21R,0.7154X0.6725*%
%ADD22R,2.7000X2.7000*%
G04:AMPARAMS|DCode=23|XSize=0.8mm|YSize=0.35mm|CornerRadius=0.175mm|HoleSize=0mm|Usage=FLASHONLY|Rotation=270.000|XOffset=0mm|YOffset=0mm|HoleType=Round|Shape=RoundedRectangle|*
%AMROUNDEDRECTD23*
21,1,0.8000,0.0000,0,0,270.0*
21,1,0.4500,0.3500,0,0,270.0*
1,1,0.3500,0.0000,-0.2250*
1,1,0.3500,0.0000,0.2250*
1,1,0.3500,0.0000,0.2250*
1,1,0.3500,0.0000,-0.2250*
%
%ADD23ROUNDEDRECTD23*%
G04:AMPARAMS|DCode=24|XSize=0.95mm|YSize=0.8mm|CornerRadius=0.1mm|HoleSize=0mm|Usage=FLASHONLY|Rotation=180.000|XOffset=0mm|YOffset=0mm|HoleType=Round|Shape=RoundedRectangle|*
%AMROUNDEDRECTD24*
21,1,0.9500,0.6000,0,0,180.0*
21,1,0.7500,0.8000,0,0,180.0*
1,1,0.2000,-0.3750,0.3000*
1,1,0.2000,0.3750,0.3000*
1,1,0.2000,0.3750,-0.3000*
1,1,0.2000,-0.3750,-0.3000*
%
%ADD24ROUNDEDRECTD24*%
%ADD25R,1.4562X1.2546*%
%ADD26R,2.7062X1.5533*%
G04:AMPARAMS|DCode=27|XSize=0.95mm|YSize=0.8mm|CornerRadius=0.1mm|HoleSize=0mm|Usage=FLASHONLY|Rotation=270.000|XOffset=0mm|YOffset=0mm|HoleType=Round|Shape=RoundedRectangle|*
%AMROUNDEDRECTD27*
21,1,0.9500,0.6000,0,0,270.0*
21,1,0.7500,0.8000,0,0,270.0*
1,1,0.2000,-0.3000,-0.3750*
1,1,0.2000,-0.3000,0.3750*
1,1,0.2000,0.3000,0.3750*
1,1,0.2000,0.3000,-0.3750*
%
%ADD27ROUNDEDRECTD27*%
%ADD28R,0.7000X0.7000*%
%ADD29R,1.0000X0.7000*%
%ADD30R,2.5000X1.0000*%
%ADD31R,0.6500X0.3500*%
%ADD32R,1.5500X2.4000*%
%ADD33R,1.3500X0.9500*%
%ADD34R,0.4000X0.8000*%
G04:AMPARAMS|DCode=35|XSize=0.35mm|YSize=0.8mm|CornerRadius=0.175mm|HoleSize=0mm|Usage=FLASHONLY|Rotation=270.000|XOffset=0mm|YOffset=0mm|HoleType=Round|Shape=RoundedRectangle|*
%AMROUNDEDRECTD35*
21,1,0.3500,0.4500,0,0,270.0*
21,1,0.0000,0.8000,0,0,270.0*
1,1,0.3500,-0.2250,0.0000*
1,1,0.3500,-0.2250,0.0000*
1,1,0.3500,0.2250,0.0000*
1,1,0.3500,0.2250,0.0000*
%
%ADD35ROUNDEDRECTD35*%
%ADD36R,2.2000X8.0000*%
%ADD37R,0.8000X0.5000*%
%ADD38R,1.6000X5.7000*%
G04:AMPARAMS|DCode=39|XSize=1.75mm|YSize=1.2mm|CornerRadius=0.15mm|HoleSize=0mm|Usage=FLASHONLY|Rotation=270.000|XOffset=0mm|YOffset=0mm|HoleType=Round|Shape=RoundedRectangle|*
%AMROUNDEDRECTD39*
21,1,1.7500,0.9000,0,0,270.0*
21,1,1.4500,1.2000,0,0,270.0*
1,1,0.3000,-0.4500,-0.7250*
1,1,0.3000,-0.4500,0.7250*
1,1,0.3000,0.4500,0.7250*
1,1,0.3000,0.4500,-0.7250*
%
%ADD39ROUNDEDRECTD39*%
%ADD40R,8.0000X2.2000*%
%ADD41R,1.0000X2.5000*%
%ADD42R,1.2500X1.6500*%
%ADD43R,0.5000X0.3500*%
G36*
X172150Y652625D02*
X176300D01*
Y628125D01*
X172150D01*
Y624325D01*
X167850D01*
Y628125D01*
X156500D01*
Y628625D01*
X153500D01*
Y632625D01*
X156500D01*
Y635125D01*
X153500D01*
Y639125D01*
X156500D01*
Y641625D01*
X153500D01*
Y645625D01*
X156500D01*
Y648125D01*
X153500D01*
Y652125D01*
X156500D01*
Y652625D01*
X167850D01*
Y656425D01*
X172150D01*
Y652625D01*
D02*
G37*
G36*
Y552625D02*
X176300D01*
Y528125D01*
X172150D01*
Y524325D01*
X167850D01*
Y528125D01*
X156500D01*
Y528625D01*
X153500D01*
Y532625D01*
X156500D01*
Y535125D01*
X153500D01*
Y539125D01*
X156500D01*
Y541625D01*
X153500D01*
Y545625D01*
X156500D01*
Y548125D01*
X153500D01*
Y552125D01*
X156500D01*
Y552625D01*
X167850D01*
Y556425D01*
X172150D01*
Y552625D01*
D02*
G37*
G36*
X293750Y-10000D02*
X291250D01*
Y-3500D01*
X293750D01*
Y-10000D01*
D02*
G37*
G36*
X288750D02*
X286250D01*
Y-3500D01*
X288750D01*
Y-10000D01*
D02*
G37*
G36*
X283750D02*
X281250D01*
Y-3500D01*
X283750D01*
Y-10000D01*
D02*
G37*
G36*
X278750D02*
X276250D01*
Y-3500D01*
X278750D01*
Y-10000D01*
D02*
G37*
G36*
X273750D02*
X271250D01*
Y-3500D01*
X273750D01*
Y-10000D01*
D02*
G37*
G36*
X268750D02*
X266250D01*
Y-3500D01*
X268750D01*
Y-10000D01*
D02*
G37*
G36*
X263750D02*
X261250D01*
Y-3500D01*
X263750D01*
Y-10000D01*
D02*
G37*
G36*
X258750D02*
X256250D01*
Y-3500D01*
X258750D01*
Y-10000D01*
D02*
G37*
G36*
X253750D02*
X251250D01*
Y-3500D01*
X253750D01*
Y-10000D01*
D02*
G37*
G36*
X248750D02*
X246250D01*
Y-3500D01*
X248750D01*
Y-10000D01*
D02*
G37*
G36*
X243750D02*
X241250D01*
Y-3500D01*
X243750D01*
Y-10000D01*
D02*
G37*
G36*
X238750D02*
X236250D01*
Y-3500D01*
X238750D01*
Y-10000D01*
D02*
G37*
G36*
X233750D02*
X231250D01*
Y-3500D01*
X233750D01*
Y-10000D01*
D02*
G37*
G36*
X228750D02*
X226250D01*
Y-3500D01*
X228750D01*
Y-10000D01*
D02*
G37*
G36*
X223750D02*
X221250D01*
Y-3500D01*
X223750D01*
Y-10000D01*
D02*
G37*
G36*
X218750D02*
X216250D01*
Y-3500D01*
X218750D01*
Y-10000D01*
D02*
G37*
G36*
X213750D02*
X211250D01*
Y-3500D01*
X213750D01*
Y-10000D01*
D02*
G37*
G36*
X208750D02*
X206250D01*
Y-3500D01*
X208750D01*
Y-10000D01*
D02*
G37*
G36*
X203750D02*
X201250D01*
Y-3500D01*
X203750D01*
Y-10000D01*
D02*
G37*
G36*
X198750D02*
X196250D01*
Y-3500D01*
X198750D01*
Y-10000D01*
D02*
G37*
G36*
X193750D02*
X191250D01*
Y-3500D01*
X193750D01*
Y-10000D01*
D02*
G37*
G36*
X188750D02*
X186250D01*
Y-3500D01*
X188750D01*
Y-10000D01*
D02*
G37*
D20*
X700000Y634786D02*
D03*
Y625214D02*
D03*
D21*
X645214Y670000D02*
D03*
X699786Y530000D02*
D03*
X669786D02*
D03*
X600214D02*
D03*
X630214D02*
D03*
X399786Y345000D02*
D03*
Y330000D02*
D03*
X367714Y345000D02*
D03*
Y330000D02*
D03*
X399786Y315000D02*
D03*
X342714Y350000D02*
D03*
Y335000D02*
D03*
X399786Y300000D02*
D03*
Y285000D02*
D03*
X367714D02*
D03*
Y270000D02*
D03*
X399786D02*
D03*
X342714D02*
D03*
Y255000D02*
D03*
X315214Y570000D02*
D03*
X329786Y335000D02*
D03*
Y350000D02*
D03*
X315214Y500000D02*
D03*
X329786Y270000D02*
D03*
Y255000D02*
D03*
X654786Y670000D02*
D03*
X660214Y530000D02*
D03*
X669786Y570000D02*
D03*
X660214D02*
D03*
X630214D02*
D03*
X639786D02*
D03*
Y530000D02*
D03*
X699786Y570000D02*
D03*
X690214D02*
D03*
Y530000D02*
D03*
X609786D02*
D03*
X600214Y570000D02*
D03*
X609786D02*
D03*
X352286Y270000D02*
D03*
Y255000D02*
D03*
X377286Y345000D02*
D03*
Y330000D02*
D03*
Y270000D02*
D03*
Y285000D02*
D03*
X320214Y350000D02*
D03*
Y335000D02*
D03*
X352286Y350000D02*
D03*
Y335000D02*
D03*
X320214Y255000D02*
D03*
Y270000D02*
D03*
X390214Y345000D02*
D03*
Y330000D02*
D03*
Y315000D02*
D03*
Y270000D02*
D03*
Y285000D02*
D03*
Y300000D02*
D03*
X324786Y500000D02*
D03*
Y570000D02*
D03*
X324786Y685000D02*
D03*
X315214D02*
D03*
D22*
X650000Y620000D02*
D03*
D23*
X646750Y640000D02*
D03*
X659750D02*
D03*
X640250D02*
D03*
Y600000D02*
D03*
X646750D02*
D03*
X653250D02*
D03*
X659750D02*
D03*
X653250Y640000D02*
D03*
D24*
X600000Y636500D02*
D03*
X420000Y578500D02*
D03*
Y508500D02*
D03*
X657500Y543500D02*
D03*
Y556500D02*
D03*
X627500Y543500D02*
D03*
Y556500D02*
D03*
X642500Y543500D02*
D03*
Y556500D02*
D03*
X700000Y661500D02*
D03*
Y648500D02*
D03*
X672500Y543500D02*
D03*
Y556500D02*
D03*
X702500Y543500D02*
D03*
Y556500D02*
D03*
X687500Y543500D02*
D03*
Y556500D02*
D03*
X600000Y623500D02*
D03*
X612500Y543500D02*
D03*
Y556500D02*
D03*
X597500Y543500D02*
D03*
Y556500D02*
D03*
X245000Y606500D02*
D03*
Y536500D02*
D03*
X420000Y616500D02*
D03*
Y546500D02*
D03*
Y533500D02*
D03*
X245000Y523500D02*
D03*
X420000Y521500D02*
D03*
Y603500D02*
D03*
X245000Y593500D02*
D03*
X420000Y591500D02*
D03*
D25*
X430000Y646742D02*
D03*
Y693258D02*
D03*
Y676742D02*
D03*
Y663258D02*
D03*
D26*
X395000Y586746D02*
D03*
Y516746D02*
D03*
X360000Y586746D02*
D03*
Y516746D02*
D03*
X395000Y613254D02*
D03*
X360000D02*
D03*
X395000Y543254D02*
D03*
X360000D02*
D03*
D27*
X736500Y162500D02*
D03*
X681500Y670000D02*
D03*
X668500D02*
D03*
X736500Y177500D02*
D03*
X723500D02*
D03*
Y162500D02*
D03*
X388500Y255000D02*
D03*
X41500Y217500D02*
D03*
Y202500D02*
D03*
Y302500D02*
D03*
Y317500D02*
D03*
X401500Y255000D02*
D03*
X28500Y202500D02*
D03*
Y217500D02*
D03*
Y317500D02*
D03*
Y302500D02*
D03*
D28*
X365500Y300000D02*
D03*
X332000Y285000D02*
D03*
X340500D02*
D03*
X354500D02*
D03*
X379500Y300000D02*
D03*
X318000Y285000D02*
D03*
D29*
X330995Y645500D02*
D03*
X309005Y664500D02*
D03*
X330995D02*
D03*
Y655000D02*
D03*
X309005Y645500D02*
D03*
Y655000D02*
D03*
D30*
X280000Y675000D02*
D03*
X245000D02*
D03*
X280000Y645000D02*
D03*
X245000D02*
D03*
D31*
X304500Y590250D02*
D03*
Y520250D02*
D03*
Y609750D02*
D03*
Y603250D02*
D03*
Y539750D02*
D03*
Y533250D02*
D03*
X335500Y609750D02*
D03*
Y539750D02*
D03*
X304500Y526750D02*
D03*
X335500Y520250D02*
D03*
Y526750D02*
D03*
Y533250D02*
D03*
X304500Y596750D02*
D03*
X335500Y590250D02*
D03*
Y596750D02*
D03*
Y603250D02*
D03*
D32*
X320000Y600000D02*
D03*
Y530000D02*
D03*
D33*
X265000Y592500D02*
D03*
X285000D02*
D03*
X265000Y522500D02*
D03*
X285000D02*
D03*
Y607500D02*
D03*
X265000D02*
D03*
Y537500D02*
D03*
X285000D02*
D03*
D34*
X302500Y-32500D02*
D03*
X177500D02*
D03*
D35*
X630000Y629750D02*
D03*
Y623250D02*
D03*
Y616750D02*
D03*
Y610250D02*
D03*
X670000D02*
D03*
Y616750D02*
D03*
Y629750D02*
D03*
Y623250D02*
D03*
D36*
X648500Y180000D02*
D03*
X591500Y440000D02*
D03*
Y180000D02*
D03*
X648500Y440000D02*
D03*
D37*
X708000Y174500D02*
D03*
X692000Y165500D02*
D03*
X708000D02*
D03*
X692000Y174500D02*
D03*
D38*
X403500Y670000D02*
D03*
X356500D02*
D03*
D39*
X515500Y470000D02*
D03*
X544500D02*
D03*
Y190000D02*
D03*
X515500D02*
D03*
X544500Y430000D02*
D03*
X515500D02*
D03*
X544500Y150000D02*
D03*
X515500D02*
D03*
D40*
X530000Y231500D02*
D03*
Y288500D02*
D03*
Y388500D02*
D03*
Y331500D02*
D03*
D41*
X465000Y470000D02*
D03*
X495000D02*
D03*
X465000Y190000D02*
D03*
X495000D02*
D03*
X465000Y430000D02*
D03*
X495000D02*
D03*
X465000Y150000D02*
D03*
X495000D02*
D03*
D42*
X137250Y640000D02*
D03*
X102750D02*
D03*
X137250Y540000D02*
D03*
X102750D02*
D03*
D43*
X184000Y650125D02*
D03*
Y643625D02*
D03*
Y637125D02*
D03*
Y630625D02*
D03*
Y550125D02*
D03*
Y543625D02*
D03*
Y537125D02*
D03*
Y530625D02*
D03*
M02*
