G04*
G04 #@! TF.GenerationSoftware,Altium Limited,Altium Designer,25.8.1 (18)*
G04*
G04 Layer_Physical_Order=2*
G04 Layer_Color=36540*
%FSLAX44Y44*%
%MOMM*%
G71*
G04*
G04 #@! TF.SameCoordinates,7D67BA09-2431-4C98-8CAE-14AC2A5FFEDF*
G04*
G04*
G04 #@! TF.FilePolarity,Positive*
G04*
G01*
G75*
%ADD14C,0.2000*%
%ADD18C,0.5000*%
G04:AMPARAMS|DCode=58|XSize=3.2mm|YSize=1.6mm|CornerRadius=0.8mm|HoleSize=0mm|Usage=FLASHONLY|Rotation=90.000|XOffset=0mm|YOffset=0mm|HoleType=Round|Shape=RoundedRectangle|*
%AMROUNDEDRECTD58*
21,1,3.2000,0.0000,0,0,90.0*
21,1,1.6000,1.6000,0,0,90.0*
1,1,1.6000,0.0000,0.8000*
1,1,1.6000,0.0000,-0.8000*
1,1,1.6000,0.0000,-0.8000*
1,1,1.6000,0.0000,0.8000*
%
%ADD58ROUNDEDRECTD58*%
G04:AMPARAMS|DCode=59|XSize=1.6mm|YSize=3.2mm|CornerRadius=0.8mm|HoleSize=0mm|Usage=FLASHONLY|Rotation=90.000|XOffset=0mm|YOffset=0mm|HoleType=Round|Shape=RoundedRectangle|*
%AMROUNDEDRECTD59*
21,1,1.6000,1.6000,0,0,90.0*
21,1,0.0000,3.2000,0,0,90.0*
1,1,1.6000,0.8000,0.0000*
1,1,1.6000,0.8000,0.0000*
1,1,1.6000,-0.8000,0.0000*
1,1,1.6000,-0.8000,0.0000*
%
%ADD59ROUNDEDRECTD59*%
%ADD60C,1.5700*%
%ADD64R,1.3100X1.3100*%
%ADD66C,1.3100*%
%ADD68R,1.6000X3.2000*%
%ADD75C,0.5000*%
%ADD76C,5.0000*%
%ADD77C,2.5500*%
%ADD78C,2.1000*%
%ADD79C,1.2000*%
%ADD80R,1.4000X1.4000*%
%ADD81C,1.4000*%
%ADD82R,1.4000X1.4000*%
%ADD83C,0.6600*%
%ADD84C,1.5240*%
G36*
X720000Y757961D02*
X722488D01*
X727422Y757311D01*
X732228Y756023D01*
X736826Y754119D01*
X741135Y751631D01*
X745083Y748602D01*
X748602Y745083D01*
X751631Y741135D01*
X754119Y736826D01*
X756023Y732228D01*
X757311Y727422D01*
X757961Y722488D01*
X757961Y720000D01*
X757961Y-0D01*
X757961Y-2488D01*
X757311Y-7422D01*
X756023Y-12228D01*
X754119Y-16826D01*
X751631Y-21135D01*
X748602Y-25083D01*
X745083Y-28602D01*
X741135Y-31631D01*
X736826Y-34119D01*
X732228Y-36023D01*
X727422Y-37311D01*
X722488Y-37961D01*
X720000D01*
X0Y-37961D01*
X-2488D01*
X-7422Y-37311D01*
X-12228Y-36023D01*
X-16826Y-34119D01*
X-21135Y-31631D01*
X-25083Y-28602D01*
X-28602Y-25083D01*
X-31631Y-21135D01*
X-34119Y-16826D01*
X-36023Y-12228D01*
X-37311Y-7422D01*
X-37961Y-2488D01*
X-37961Y0D01*
X-37961Y720000D01*
Y722488D01*
X-37311Y727422D01*
X-36023Y732228D01*
X-34119Y736826D01*
X-31631Y741135D01*
X-28602Y745083D01*
X-25083Y748602D01*
X-21135Y751631D01*
X-16826Y754119D01*
X-12228Y756023D01*
X-7422Y757311D01*
X-2488Y757961D01*
X0Y757961D01*
X720000Y757961D01*
D02*
G37*
%LPC*%
G36*
X722168Y747540D02*
X721270D01*
Y721270D01*
X747540D01*
Y722168D01*
X746862Y726449D01*
X745522Y730572D01*
X743554Y734434D01*
X741006Y737941D01*
X737941Y741006D01*
X734434Y743554D01*
X730572Y745522D01*
X726449Y746862D01*
X722168Y747540D01*
D02*
G37*
G36*
X718730D02*
X717832D01*
X713551Y746862D01*
X709428Y745522D01*
X705566Y743554D01*
X702059Y741006D01*
X698994Y737941D01*
X696446Y734434D01*
X694478Y730572D01*
X693138Y726449D01*
X692460Y722168D01*
Y721270D01*
X718730D01*
Y747540D01*
D02*
G37*
G36*
X2167D02*
X1270D01*
Y721270D01*
X27540D01*
Y722168D01*
X26862Y726449D01*
X25522Y730572D01*
X23554Y734434D01*
X21006Y737941D01*
X17941Y741006D01*
X14434Y743554D01*
X10572Y745522D01*
X6449Y746862D01*
X2167Y747540D01*
D02*
G37*
G36*
X-1270D02*
X-2167D01*
X-6449Y746862D01*
X-10572Y745522D01*
X-14434Y743554D01*
X-17941Y741006D01*
X-21006Y737941D01*
X-23554Y734434D01*
X-25522Y730572D01*
X-26862Y726449D01*
X-27540Y722168D01*
Y721270D01*
X-1270D01*
Y747540D01*
D02*
G37*
G36*
X747540Y718730D02*
X721270D01*
Y692460D01*
X722168D01*
X726449Y693138D01*
X730572Y694478D01*
X734434Y696446D01*
X737941Y698994D01*
X741006Y702059D01*
X743554Y705566D01*
X745522Y709428D01*
X746862Y713551D01*
X747540Y717832D01*
Y718730D01*
D02*
G37*
G36*
X718730D02*
X692460D01*
Y717832D01*
X693138Y713551D01*
X694478Y709428D01*
X696446Y705566D01*
X698994Y702059D01*
X702059Y698994D01*
X705566Y696446D01*
X709428Y694478D01*
X713551Y693138D01*
X717832Y692460D01*
X718730D01*
Y718730D01*
D02*
G37*
G36*
X27540D02*
X1270D01*
Y692460D01*
X2167D01*
X6449Y693138D01*
X10572Y694478D01*
X14434Y696446D01*
X17941Y698994D01*
X21006Y702059D01*
X23554Y705566D01*
X25522Y709428D01*
X26862Y713551D01*
X27540Y717832D01*
Y718730D01*
D02*
G37*
G36*
X-1270D02*
X-27540D01*
Y717832D01*
X-26862Y713551D01*
X-25522Y709428D01*
X-23554Y705566D01*
X-21006Y702059D01*
X-17941Y698994D01*
X-14434Y696446D01*
X-10572Y694478D01*
X-6449Y693138D01*
X-2167Y692460D01*
X-1270D01*
Y718730D01*
D02*
G37*
G36*
X185796Y666500D02*
X184204D01*
X182734Y665891D01*
X181609Y664766D01*
X181000Y663296D01*
Y661704D01*
X181609Y660234D01*
X182734Y659109D01*
X184204Y658500D01*
X185796D01*
X187266Y659109D01*
X188391Y660234D01*
X189000Y661704D01*
Y663296D01*
X188391Y664766D01*
X187266Y665891D01*
X185796Y666500D01*
D02*
G37*
G36*
X620796Y646500D02*
X619204D01*
X617734Y645891D01*
X616609Y644766D01*
X616000Y643296D01*
Y641704D01*
X616609Y640234D01*
X617734Y639109D01*
X619204Y638500D01*
X620796D01*
X622266Y639109D01*
X623391Y640234D01*
X624000Y641704D01*
Y643296D01*
X623391Y644766D01*
X622266Y645891D01*
X620796Y646500D01*
D02*
G37*
G36*
X63137Y653636D02*
X60863D01*
X58667Y653047D01*
X56697Y651911D01*
X55090Y650303D01*
X53952Y648333D01*
X53364Y646137D01*
Y643863D01*
X53952Y641667D01*
X55090Y639697D01*
X56697Y638089D01*
X58667Y636953D01*
X60863Y636364D01*
X63137D01*
X65333Y636953D01*
X67303Y638089D01*
X68910Y639697D01*
X70047Y641667D01*
X70636Y643863D01*
Y646137D01*
X70047Y648333D01*
X68910Y650303D01*
X67303Y651911D01*
X65333Y653047D01*
X63137Y653636D01*
D02*
G37*
G36*
X195796Y644000D02*
X194204D01*
X192734Y643391D01*
X191609Y642266D01*
X191000Y640796D01*
Y639204D01*
X191609Y637734D01*
X192734Y636609D01*
X194204Y636000D01*
X195796D01*
X197266Y636609D01*
X198391Y637734D01*
X199000Y639204D01*
Y640796D01*
X198391Y642266D01*
X197266Y643391D01*
X195796Y644000D01*
D02*
G37*
G36*
X11137Y618636D02*
X10508D01*
Y610508D01*
X18636D01*
Y611137D01*
X18047Y613333D01*
X16911Y615303D01*
X15303Y616911D01*
X13333Y618047D01*
X11137Y618636D01*
D02*
G37*
G36*
X9492D02*
X8863D01*
X6667Y618047D01*
X4697Y616911D01*
X3090Y615303D01*
X1953Y613333D01*
X1364Y611137D01*
Y610508D01*
X9492D01*
Y618636D01*
D02*
G37*
G36*
X18636Y609492D02*
X10508D01*
Y601364D01*
X11137D01*
X13333Y601953D01*
X15303Y603089D01*
X16911Y604697D01*
X18047Y606667D01*
X18636Y608863D01*
Y609492D01*
D02*
G37*
G36*
X9492D02*
X1364D01*
Y608863D01*
X1953Y606667D01*
X3090Y604697D01*
X4697Y603089D01*
X6667Y601953D01*
X8863Y601364D01*
X9492D01*
Y609492D01*
D02*
G37*
G36*
X121167Y618866D02*
X118833D01*
X116578Y618262D01*
X114556Y617095D01*
X112905Y615444D01*
X111738Y613422D01*
X111134Y611167D01*
Y608833D01*
X111738Y606578D01*
X112905Y604556D01*
X114556Y602905D01*
X116578Y601738D01*
X118833Y601134D01*
X121167D01*
X123422Y601738D01*
X125444Y602905D01*
X127095Y604556D01*
X128262Y606578D01*
X128866Y608833D01*
Y611167D01*
X128262Y613422D01*
X127095Y615444D01*
X125444Y617095D01*
X123422Y618262D01*
X121167Y618866D01*
D02*
G37*
G36*
X481167Y618866D02*
X478833D01*
X476578Y618262D01*
X474556Y617094D01*
X472905Y615444D01*
X471738Y613422D01*
X471134Y611167D01*
Y608833D01*
X471738Y606578D01*
X472905Y604556D01*
X474556Y602905D01*
X476578Y601738D01*
X478833Y601134D01*
X481167D01*
X483422Y601738D01*
X485444Y602905D01*
X487095Y604556D01*
X488262Y606578D01*
X488866Y608833D01*
Y611167D01*
X488262Y613422D01*
X487095Y615444D01*
X485444Y617094D01*
X483422Y618262D01*
X481167Y618866D01*
D02*
G37*
G36*
Y688866D02*
X478833D01*
X476578Y688262D01*
X474556Y687095D01*
X473561Y686100D01*
X245000D01*
X244222Y685778D01*
X243900Y685000D01*
Y533970D01*
X42465Y332535D01*
X41688Y331372D01*
X41415Y330000D01*
Y311798D01*
X41000Y310796D01*
Y309204D01*
X41415Y308202D01*
Y211798D01*
X41000Y210796D01*
Y209204D01*
X41609Y207734D01*
X42734Y206609D01*
X44204Y206000D01*
X45796D01*
X47266Y206609D01*
X48391Y207734D01*
X49000Y209204D01*
Y210796D01*
X48585Y211798D01*
Y308202D01*
X49000Y309204D01*
Y310796D01*
X48585Y311798D01*
Y328515D01*
X248970Y528900D01*
X253915D01*
Y342500D01*
X254188Y341128D01*
X254965Y339965D01*
X327465Y267465D01*
X328628Y266688D01*
X330000Y266415D01*
X351015D01*
X361194Y256236D01*
X361415Y255702D01*
Y215000D01*
X361688Y213628D01*
X362465Y212465D01*
X442465Y132465D01*
X443628Y131688D01*
X445000Y131415D01*
X541015D01*
X603694Y68736D01*
X604109Y67734D01*
X605234Y66609D01*
X606704Y66000D01*
X608296D01*
X609766Y66609D01*
X610891Y67734D01*
X611500Y69204D01*
Y70796D01*
X610891Y72266D01*
X609766Y73391D01*
X608764Y73806D01*
X545035Y137535D01*
X543872Y138312D01*
X542500Y138585D01*
X446485D01*
X369125Y215945D01*
X369180Y216226D01*
X370216Y216602D01*
X370288Y216587D01*
X371704Y216000D01*
X373296D01*
X374766Y216609D01*
X375891Y217734D01*
X376500Y219204D01*
Y220796D01*
X376413Y221006D01*
X403954Y248547D01*
X404399Y249213D01*
X404556Y250000D01*
X404556Y250000D01*
Y326649D01*
X405890Y327983D01*
X406609Y327266D01*
X406000Y325796D01*
Y324204D01*
X406609Y322734D01*
X407734Y321609D01*
X409204Y321000D01*
X409997D01*
X410822Y320820D01*
X410936Y320061D01*
Y319204D01*
X411545Y317734D01*
X412670Y316609D01*
X414140Y316000D01*
X415732D01*
X417202Y316609D01*
X418327Y317734D01*
X418936Y319204D01*
Y320796D01*
X418327Y322266D01*
X417202Y323391D01*
X415732Y324000D01*
X414939D01*
X414243Y324151D01*
X414064Y324897D01*
X414585Y325923D01*
X414939Y326000D01*
X415796D01*
X417266Y326609D01*
X418391Y327734D01*
X419000Y329204D01*
Y330796D01*
X418391Y332266D01*
X417266Y333391D01*
X415796Y334000D01*
X414939D01*
X414168Y334168D01*
X414000Y334939D01*
Y335796D01*
X413391Y337266D01*
X412266Y338391D01*
X410796Y339000D01*
X409204D01*
X407734Y338391D01*
X406609Y337266D01*
X406000Y335796D01*
Y334204D01*
X406087Y333994D01*
X401046Y328954D01*
X400601Y328287D01*
X400444Y327500D01*
X400444Y327500D01*
Y250851D01*
X373506Y223913D01*
X373296Y224000D01*
X371704D01*
X370234Y223391D01*
X369601Y222758D01*
X368585Y223179D01*
Y255702D01*
X369000Y256704D01*
Y258296D01*
X368391Y259766D01*
X367266Y260891D01*
X366264Y261306D01*
X355035Y272535D01*
X353872Y273312D01*
X352500Y273585D01*
X331485D01*
X261085Y343985D01*
Y528900D01*
X283900D01*
Y355000D01*
X284222Y354222D01*
X285000Y353900D01*
X335000D01*
X335778Y354222D01*
X336100Y355000D01*
Y374307D01*
X337116Y374728D01*
X337734Y374109D01*
X339204Y373500D01*
X340796D01*
X342266Y374109D01*
X343121Y374964D01*
X343750Y375136D01*
X344379Y374964D01*
X345234Y374109D01*
X346704Y373500D01*
X348296D01*
X349766Y374109D01*
X350621Y374964D01*
X351250Y375136D01*
X351879Y374964D01*
X352734Y374109D01*
X354204Y373500D01*
X355796D01*
X357266Y374109D01*
X358391Y375234D01*
X359000Y376704D01*
Y378296D01*
X358391Y379766D01*
X357266Y380891D01*
X355796Y381500D01*
X354204D01*
X352734Y380891D01*
X351879Y380036D01*
X351250Y379864D01*
X350621Y380036D01*
X349766Y380891D01*
X348296Y381500D01*
X346704D01*
X345234Y380891D01*
X344379Y380036D01*
X343750Y379864D01*
X343121Y380036D01*
X342266Y380891D01*
X340796Y381500D01*
X339204D01*
X337734Y380891D01*
X337116Y380273D01*
X336100Y380693D01*
X336100Y434544D01*
X360462Y458906D01*
X361400Y458518D01*
Y402500D01*
X361722Y401722D01*
X362500Y401400D01*
X425000D01*
X425778Y401722D01*
X426100Y402500D01*
Y628900D01*
X440000D01*
X440778Y629222D01*
X441100Y630000D01*
Y653900D01*
X624307D01*
X624727Y652884D01*
X624109Y652266D01*
X623500Y650796D01*
Y649204D01*
X624109Y647734D01*
X625234Y646609D01*
X626704Y646000D01*
X628296D01*
X629766Y646609D01*
X630891Y647734D01*
X631500Y649204D01*
Y650796D01*
X630891Y652266D01*
X630273Y652884D01*
X630693Y653900D01*
X642045D01*
X699222Y596722D01*
X700000Y596400D01*
X730000D01*
X730778Y596722D01*
X731100Y597500D01*
Y612500D01*
X730778Y613278D01*
X690218Y653837D01*
X690114Y653880D01*
X690051Y653974D01*
X689737Y654037D01*
X689440Y654159D01*
X689336Y654116D01*
X689226Y654138D01*
X688229Y653940D01*
X688136Y653878D01*
X688023D01*
X687796Y653651D01*
X687529Y653473D01*
X687518Y653417D01*
X686643Y652541D01*
X685577Y652100D01*
X684423D01*
X683357Y652541D01*
X682541Y653357D01*
X682100Y654423D01*
Y655577D01*
X682541Y656643D01*
X683417Y657518D01*
X683473Y657529D01*
X683651Y657796D01*
X683878Y658023D01*
Y658136D01*
X683940Y658229D01*
X684138Y659226D01*
X684116Y659336D01*
X684159Y659440D01*
X684037Y659737D01*
X683974Y660051D01*
X683880Y660114D01*
X683837Y660218D01*
X658278Y685778D01*
X657500Y686100D01*
X656762D01*
X655796Y686500D01*
X654204D01*
X653238Y686100D01*
X486439D01*
X485444Y687095D01*
X483422Y688262D01*
X481167Y688866D01*
D02*
G37*
G36*
X178016Y610716D02*
X161984D01*
Y594684D01*
X178016D01*
Y610716D01*
D02*
G37*
G36*
X171055Y585316D02*
X168945D01*
X166906Y584770D01*
X165078Y583714D01*
X163586Y582222D01*
X162530Y580394D01*
X161984Y578355D01*
Y576245D01*
X162530Y574206D01*
X163586Y572378D01*
X165078Y570886D01*
X166906Y569830D01*
X168945Y569284D01*
X171055D01*
X173094Y569830D01*
X174922Y570886D01*
X176414Y572378D01*
X177470Y574206D01*
X178016Y576245D01*
Y578355D01*
X177470Y580394D01*
X176414Y582222D01*
X174922Y583714D01*
X173094Y584770D01*
X171055Y585316D01*
D02*
G37*
G36*
X121167Y578866D02*
X118833D01*
X116578Y578262D01*
X114556Y577095D01*
X112905Y575444D01*
X111738Y573422D01*
X111134Y571167D01*
Y568833D01*
X111738Y566578D01*
X112905Y564556D01*
X114556Y562905D01*
X116578Y561738D01*
X118833Y561134D01*
X121167D01*
X123422Y561738D01*
X125444Y562905D01*
X127095Y564556D01*
X128262Y566578D01*
X128866Y568833D01*
Y571167D01*
X128262Y573422D01*
X127095Y575444D01*
X125444Y577095D01*
X123422Y578262D01*
X121167Y578866D01*
D02*
G37*
G36*
X185796Y566500D02*
X184204D01*
X182734Y565891D01*
X181609Y564766D01*
X181000Y563296D01*
Y561704D01*
X181609Y560234D01*
X182734Y559109D01*
X184204Y558500D01*
X185796D01*
X187266Y559109D01*
X188391Y560234D01*
X189000Y561704D01*
Y563296D01*
X188391Y564766D01*
X187266Y565891D01*
X185796Y566500D01*
D02*
G37*
G36*
X63137Y553636D02*
X60863D01*
X58667Y553047D01*
X56697Y551911D01*
X55090Y550303D01*
X53952Y548333D01*
X53364Y546137D01*
Y543863D01*
X53952Y541667D01*
X55090Y539697D01*
X56697Y538089D01*
X58667Y536953D01*
X60863Y536364D01*
X63137D01*
X65333Y536953D01*
X67303Y538089D01*
X68910Y539697D01*
X70047Y541667D01*
X70636Y543863D01*
Y546137D01*
X70047Y548333D01*
X68910Y550303D01*
X67303Y551911D01*
X65333Y553047D01*
X63137Y553636D01*
D02*
G37*
G36*
X700796Y544000D02*
X699204D01*
X697734Y543391D01*
X696609Y542266D01*
X696000Y540796D01*
Y539204D01*
X696609Y537734D01*
X697734Y536609D01*
X699204Y536000D01*
X700796D01*
X702266Y536609D01*
X703391Y537734D01*
X704000Y539204D01*
Y540796D01*
X703391Y542266D01*
X702266Y543391D01*
X700796Y544000D01*
D02*
G37*
G36*
X690796D02*
X689204D01*
X687734Y543391D01*
X686609Y542266D01*
X686000Y540796D01*
Y539204D01*
X686609Y537734D01*
X687734Y536609D01*
X689204Y536000D01*
X690796D01*
X692266Y536609D01*
X693391Y537734D01*
X694000Y539204D01*
Y540796D01*
X693391Y542266D01*
X692266Y543391D01*
X690796Y544000D01*
D02*
G37*
G36*
X670796D02*
X669204D01*
X667734Y543391D01*
X666609Y542266D01*
X666000Y540796D01*
Y539204D01*
X666609Y537734D01*
X667734Y536609D01*
X669204Y536000D01*
X670796D01*
X672266Y536609D01*
X673391Y537734D01*
X674000Y539204D01*
Y540796D01*
X673391Y542266D01*
X672266Y543391D01*
X670796Y544000D01*
D02*
G37*
G36*
X660796D02*
X659204D01*
X657734Y543391D01*
X656609Y542266D01*
X656000Y540796D01*
Y539204D01*
X656609Y537734D01*
X657734Y536609D01*
X659204Y536000D01*
X660796D01*
X662266Y536609D01*
X663391Y537734D01*
X664000Y539204D01*
Y540796D01*
X663391Y542266D01*
X662266Y543391D01*
X660796Y544000D01*
D02*
G37*
G36*
X640796D02*
X639204D01*
X637734Y543391D01*
X636609Y542266D01*
X636000Y540796D01*
Y539204D01*
X636609Y537734D01*
X637734Y536609D01*
X639204Y536000D01*
X640796D01*
X642266Y536609D01*
X643391Y537734D01*
X644000Y539204D01*
Y540796D01*
X643391Y542266D01*
X642266Y543391D01*
X640796Y544000D01*
D02*
G37*
G36*
X630796D02*
X629204D01*
X627734Y543391D01*
X626609Y542266D01*
X626000Y540796D01*
Y539204D01*
X626609Y537734D01*
X627734Y536609D01*
X629204Y536000D01*
X630796D01*
X632266Y536609D01*
X633391Y537734D01*
X634000Y539204D01*
Y540796D01*
X633391Y542266D01*
X632266Y543391D01*
X630796Y544000D01*
D02*
G37*
G36*
X610796D02*
X609204D01*
X607734Y543391D01*
X606609Y542266D01*
X606000Y540796D01*
Y539204D01*
X606609Y537734D01*
X607734Y536609D01*
X609204Y536000D01*
X610796D01*
X612266Y536609D01*
X613391Y537734D01*
X614000Y539204D01*
Y540796D01*
X613391Y542266D01*
X612266Y543391D01*
X610796Y544000D01*
D02*
G37*
G36*
X600796D02*
X599204D01*
X597734Y543391D01*
X596609Y542266D01*
X596000Y540796D01*
Y539204D01*
X596609Y537734D01*
X597734Y536609D01*
X599204Y536000D01*
X600796D01*
X602266Y536609D01*
X603391Y537734D01*
X604000Y539204D01*
Y540796D01*
X603391Y542266D01*
X602266Y543391D01*
X600796Y544000D01*
D02*
G37*
G36*
X195796D02*
X194204D01*
X192734Y543391D01*
X191609Y542266D01*
X191000Y540796D01*
Y539204D01*
X191609Y537734D01*
X192734Y536609D01*
X194204Y536000D01*
X195796D01*
X197266Y536609D01*
X198391Y537734D01*
X199000Y539204D01*
Y540796D01*
X198391Y542266D01*
X197266Y543391D01*
X195796Y544000D01*
D02*
G37*
G36*
X481167Y548866D02*
X478833D01*
X476578Y548262D01*
X474556Y547095D01*
X472905Y545444D01*
X471738Y543422D01*
X471134Y541167D01*
Y538833D01*
X471738Y536578D01*
X472905Y534556D01*
X474556Y532905D01*
X476578Y531738D01*
X478833Y531134D01*
X481167D01*
X483422Y531738D01*
X485444Y532905D01*
X487095Y534556D01*
X488262Y536578D01*
X488866Y538833D01*
Y541167D01*
X488262Y543422D01*
X487095Y545444D01*
X485444Y547095D01*
X483422Y548262D01*
X481167Y548866D01*
D02*
G37*
G36*
X11137Y518636D02*
X10508D01*
Y510508D01*
X18636D01*
Y511137D01*
X18047Y513333D01*
X16911Y515303D01*
X15303Y516911D01*
X13333Y518047D01*
X11137Y518636D01*
D02*
G37*
G36*
X9492D02*
X8863D01*
X6667Y518047D01*
X4697Y516911D01*
X3090Y515303D01*
X1953Y513333D01*
X1364Y511137D01*
Y510508D01*
X9492D01*
Y518636D01*
D02*
G37*
G36*
X18636Y509492D02*
X10508D01*
Y501364D01*
X11137D01*
X13333Y501953D01*
X15303Y503089D01*
X16911Y504697D01*
X18047Y506667D01*
X18636Y508863D01*
Y509492D01*
D02*
G37*
G36*
X9492D02*
X1364D01*
Y508863D01*
X1953Y506667D01*
X3090Y504697D01*
X4697Y503089D01*
X6667Y501953D01*
X8863Y501364D01*
X9492D01*
Y509492D01*
D02*
G37*
G36*
X535796Y474000D02*
X534204D01*
X532734Y473391D01*
X531609Y472266D01*
X531000Y470796D01*
Y469204D01*
X531609Y467734D01*
X532734Y466609D01*
X534204Y466000D01*
X535796D01*
X537266Y466609D01*
X538391Y467734D01*
X539000Y469204D01*
Y470796D01*
X538391Y472266D01*
X537266Y473391D01*
X535796Y474000D01*
D02*
G37*
G36*
X525796D02*
X524204D01*
X522734Y473391D01*
X521609Y472266D01*
X521000Y470796D01*
Y469204D01*
X521609Y467734D01*
X522734Y466609D01*
X524204Y466000D01*
X525796D01*
X527266Y466609D01*
X528391Y467734D01*
X529000Y469204D01*
Y470796D01*
X528391Y472266D01*
X527266Y473391D01*
X525796Y474000D01*
D02*
G37*
G36*
X722168Y477540D02*
X721270D01*
Y451270D01*
X747540D01*
Y452168D01*
X746862Y456449D01*
X745522Y460572D01*
X743554Y464434D01*
X741006Y467941D01*
X737941Y471006D01*
X734434Y473554D01*
X730572Y475522D01*
X726449Y476862D01*
X722168Y477540D01*
D02*
G37*
G36*
X718730D02*
X717832D01*
X713551Y476862D01*
X709428Y475522D01*
X705566Y473554D01*
X702059Y471006D01*
X698994Y467941D01*
X696446Y464434D01*
X694478Y460572D01*
X693138Y456449D01*
X692460Y452168D01*
Y451270D01*
X718730D01*
Y477540D01*
D02*
G37*
G36*
X654053Y459000D02*
X652462D01*
X650992Y458391D01*
X649867Y457266D01*
X649258Y455796D01*
Y454204D01*
X649867Y452734D01*
X650992Y451609D01*
X652462Y451000D01*
X654053D01*
X655524Y451609D01*
X656649Y452734D01*
X657258Y454204D01*
Y455796D01*
X656649Y457266D01*
X655524Y458391D01*
X654053Y459000D01*
D02*
G37*
G36*
X35508Y457027D02*
Y440508D01*
X44094D01*
Y448000D01*
X43784Y450354D01*
X42875Y452547D01*
X41430Y454430D01*
X39547Y455875D01*
X37354Y456784D01*
X35508Y457027D01*
D02*
G37*
G36*
X34492Y457027D02*
X32646Y456784D01*
X30453Y455875D01*
X28570Y454430D01*
X27125Y452547D01*
X26216Y450354D01*
X25906Y448000D01*
Y440508D01*
X34492D01*
Y457027D01*
D02*
G37*
G36*
X535796Y434000D02*
X534204D01*
X532734Y433391D01*
X531609Y432266D01*
X531000Y430796D01*
Y429204D01*
X531609Y427734D01*
X532734Y426609D01*
X534204Y426000D01*
X535796D01*
X537266Y426609D01*
X538391Y427734D01*
X539000Y429204D01*
Y430796D01*
X538391Y432266D01*
X537266Y433391D01*
X535796Y434000D01*
D02*
G37*
G36*
X525796D02*
X524204D01*
X522734Y433391D01*
X521609Y432266D01*
X521000Y430796D01*
Y429204D01*
X521609Y427734D01*
X522734Y426609D01*
X524204Y426000D01*
X525796D01*
X527266Y426609D01*
X528391Y427734D01*
X529000Y429204D01*
Y430796D01*
X528391Y432266D01*
X527266Y433391D01*
X525796Y434000D01*
D02*
G37*
G36*
X104016Y457016D02*
X85984D01*
Y422984D01*
X104016D01*
Y457016D01*
D02*
G37*
G36*
X34492Y439492D02*
X25906D01*
Y432000D01*
X26216Y429646D01*
X27125Y427453D01*
X28570Y425570D01*
X30453Y424124D01*
X32646Y423216D01*
X34492Y422973D01*
Y439492D01*
D02*
G37*
G36*
X44094D02*
X35508D01*
Y422973D01*
X37354Y423216D01*
X39547Y424124D01*
X41430Y425570D01*
X42875Y427453D01*
X43784Y429646D01*
X44094Y432000D01*
Y439492D01*
D02*
G37*
G36*
X747540Y448730D02*
X721270D01*
Y422460D01*
X722168D01*
X726449Y423138D01*
X730572Y424478D01*
X734434Y426446D01*
X737941Y428994D01*
X741006Y432059D01*
X743554Y435566D01*
X745522Y439428D01*
X746862Y443551D01*
X747540Y447833D01*
Y448730D01*
D02*
G37*
G36*
X718730D02*
X692460D01*
Y447833D01*
X693138Y443551D01*
X694478Y439428D01*
X696446Y435566D01*
X698994Y432059D01*
X702059Y428994D01*
X705566Y426446D01*
X709428Y424478D01*
X713551Y423138D01*
X717832Y422460D01*
X718730D01*
Y448730D01*
D02*
G37*
G36*
X73000Y402094D02*
X65508D01*
Y393508D01*
X82027D01*
X81784Y395354D01*
X80876Y397547D01*
X79430Y399430D01*
X77547Y400875D01*
X75354Y401784D01*
X73000Y402094D01*
D02*
G37*
G36*
X64492D02*
X57000D01*
X54646Y401784D01*
X52453Y400875D01*
X50570Y399430D01*
X49124Y397547D01*
X48216Y395354D01*
X47973Y393508D01*
X64492D01*
Y402094D01*
D02*
G37*
G36*
X82027Y392492D02*
X65508D01*
Y383906D01*
X73000D01*
X75354Y384216D01*
X77547Y385125D01*
X79430Y386570D01*
X80876Y388453D01*
X81784Y390646D01*
X82027Y392492D01*
D02*
G37*
G36*
X64492D02*
X47973D01*
X48216Y390646D01*
X49124Y388453D01*
X50570Y386570D01*
X52453Y385125D01*
X54646Y384216D01*
X57000Y383906D01*
X64492D01*
Y392492D01*
D02*
G37*
G36*
X687812Y369516D02*
X686508D01*
Y356258D01*
X699766D01*
Y357562D01*
X698828Y361063D01*
X697016Y364202D01*
X694453Y366766D01*
X691313Y368578D01*
X687812Y369516D01*
D02*
G37*
G36*
X685492D02*
X684188D01*
X680686Y368578D01*
X677548Y366766D01*
X674985Y364202D01*
X673172Y361063D01*
X672234Y357562D01*
Y356258D01*
X685492D01*
Y369516D01*
D02*
G37*
G36*
X606812D02*
X605508D01*
Y356258D01*
X618766D01*
Y357562D01*
X617828Y361063D01*
X616016Y364202D01*
X613452Y366766D01*
X610313Y368578D01*
X606812Y369516D01*
D02*
G37*
G36*
X604492D02*
X603188D01*
X599687Y368578D01*
X596548Y366766D01*
X593984Y364202D01*
X592172Y361063D01*
X591234Y357562D01*
Y356258D01*
X604492D01*
Y369516D01*
D02*
G37*
G36*
X379796Y359000D02*
X378204D01*
X376734Y358391D01*
X375609Y357266D01*
X375000Y355796D01*
Y354204D01*
X375609Y352734D01*
X376734Y351609D01*
X378204Y351000D01*
X379796D01*
X381266Y351609D01*
X382391Y352734D01*
X383000Y354204D01*
Y355796D01*
X382391Y357266D01*
X381266Y358391D01*
X379796Y359000D01*
D02*
G37*
G36*
X390796Y356500D02*
X389204D01*
X387734Y355891D01*
X386609Y354766D01*
X386000Y353296D01*
Y351704D01*
X386609Y350234D01*
X387734Y349109D01*
X389204Y348500D01*
X390796D01*
X392266Y349109D01*
X393391Y350234D01*
X394000Y351704D01*
Y353296D01*
X393391Y354766D01*
X392266Y355891D01*
X390796Y356500D01*
D02*
G37*
G36*
X699766Y355242D02*
X686508D01*
Y341984D01*
X687812D01*
X691313Y342922D01*
X694453Y344734D01*
X697016Y347298D01*
X698828Y350437D01*
X699766Y353938D01*
Y355242D01*
D02*
G37*
G36*
X685492D02*
X672234D01*
Y353938D01*
X673172Y350437D01*
X674985Y347298D01*
X677548Y344734D01*
X680686Y342922D01*
X684188Y341984D01*
X685492D01*
Y355242D01*
D02*
G37*
G36*
X618766D02*
X605508D01*
Y341984D01*
X606812D01*
X610313Y342922D01*
X613452Y344734D01*
X616016Y347298D01*
X617828Y350437D01*
X618766Y353938D01*
Y355242D01*
D02*
G37*
G36*
X604492D02*
X591234D01*
Y353938D01*
X592172Y350437D01*
X593984Y347298D01*
X596548Y344734D01*
X599687Y342922D01*
X603188Y341984D01*
X604492D01*
Y355242D01*
D02*
G37*
G36*
X535796Y342258D02*
X534204D01*
X532734Y341649D01*
X531609Y340524D01*
X531000Y339053D01*
Y337462D01*
X531609Y335992D01*
X532734Y334867D01*
X534204Y334258D01*
X535796D01*
X537266Y334867D01*
X538391Y335992D01*
X539000Y337462D01*
Y339053D01*
X538391Y340524D01*
X537266Y341649D01*
X535796Y342258D01*
D02*
G37*
G36*
X662348Y341000D02*
X659452D01*
X656654Y340250D01*
X654146Y338802D01*
X652098Y336754D01*
X650650Y334246D01*
X649900Y331448D01*
Y328552D01*
X650650Y325754D01*
X652098Y323246D01*
X654146Y321198D01*
X656654Y319750D01*
X659452Y319000D01*
X662348D01*
X665146Y319750D01*
X667654Y321198D01*
X669702Y323246D01*
X671150Y325754D01*
X671900Y328552D01*
Y331448D01*
X671150Y334246D01*
X669702Y336754D01*
X667654Y338802D01*
X665146Y340250D01*
X662348Y341000D01*
D02*
G37*
G36*
X622348D02*
X619452D01*
X616654Y340250D01*
X614146Y338802D01*
X612098Y336754D01*
X610650Y334246D01*
X609900Y331448D01*
Y328552D01*
X610650Y325754D01*
X612098Y323246D01*
X614146Y321198D01*
X616654Y319750D01*
X619452Y319000D01*
X622348D01*
X625146Y319750D01*
X627654Y321198D01*
X629702Y323246D01*
X631150Y325754D01*
X631900Y328552D01*
Y331448D01*
X631150Y334246D01*
X629702Y336754D01*
X627654Y338802D01*
X625146Y340250D01*
X622348Y341000D01*
D02*
G37*
G36*
X100716Y333016D02*
X84684D01*
Y316984D01*
X100716D01*
Y333016D01*
D02*
G37*
G36*
X68355D02*
X66245D01*
X64206Y332470D01*
X62378Y331414D01*
X60886Y329922D01*
X59830Y328094D01*
X59284Y326055D01*
Y323945D01*
X59830Y321906D01*
X60886Y320078D01*
X62378Y318586D01*
X64206Y317530D01*
X66245Y316984D01*
X68355D01*
X70394Y317530D01*
X72222Y318586D01*
X73714Y320078D01*
X74770Y321906D01*
X75316Y323945D01*
Y326055D01*
X74770Y328094D01*
X73714Y329922D01*
X72222Y331414D01*
X70394Y332470D01*
X68355Y333016D01*
D02*
G37*
G36*
X1167Y333866D02*
X-1167D01*
X-3422Y333262D01*
X-5444Y332095D01*
X-7095Y330444D01*
X-8262Y328422D01*
X-8866Y326167D01*
Y323833D01*
X-8262Y321578D01*
X-7095Y319556D01*
X-5444Y317905D01*
X-3422Y316738D01*
X-1167Y316134D01*
X1167D01*
X3422Y316738D01*
X5444Y317905D01*
X7095Y319556D01*
X8262Y321578D01*
X8866Y323833D01*
Y326167D01*
X8262Y328422D01*
X7095Y330444D01*
X5444Y332095D01*
X3422Y333262D01*
X1167Y333866D01*
D02*
G37*
G36*
X641516Y321516D02*
X640508D01*
Y310508D01*
X651516D01*
Y311516D01*
X650731Y314445D01*
X649215Y317071D01*
X647071Y319215D01*
X644445Y320731D01*
X641516Y321516D01*
D02*
G37*
G36*
X639492D02*
X638484D01*
X635555Y320731D01*
X632929Y319215D01*
X630785Y317071D01*
X629269Y314445D01*
X628484Y311516D01*
Y310508D01*
X639492D01*
Y321516D01*
D02*
G37*
G36*
X651516Y309492D02*
X640508D01*
Y298484D01*
X641516D01*
X644445Y299269D01*
X647071Y300785D01*
X649215Y302929D01*
X650731Y305555D01*
X651516Y308484D01*
Y309492D01*
D02*
G37*
G36*
X639492D02*
X628484D01*
Y308484D01*
X629269Y305555D01*
X630785Y302929D01*
X632929Y300785D01*
X635555Y299269D01*
X638484Y298484D01*
X639492D01*
Y309492D01*
D02*
G37*
G36*
X100716Y303016D02*
X84684D01*
Y286984D01*
X100716D01*
Y303016D01*
D02*
G37*
G36*
X68355D02*
X66245D01*
X64206Y302470D01*
X62378Y301414D01*
X60886Y299922D01*
X59830Y298094D01*
X59284Y296055D01*
Y293945D01*
X59830Y291906D01*
X60886Y290078D01*
X62378Y288586D01*
X64206Y287530D01*
X66245Y286984D01*
X68355D01*
X70394Y287530D01*
X72222Y288586D01*
X73714Y290078D01*
X74770Y291906D01*
X75316Y293945D01*
Y296055D01*
X74770Y298094D01*
X73714Y299922D01*
X72222Y301414D01*
X70394Y302470D01*
X68355Y303016D01*
D02*
G37*
G36*
X275987Y307500D02*
X274013D01*
X272105Y306989D01*
X270395Y306001D01*
X268999Y304605D01*
X268011Y302895D01*
X267500Y300987D01*
Y299013D01*
X268011Y297105D01*
X268505Y296250D01*
X268011Y295395D01*
X267500Y293487D01*
Y291513D01*
X268011Y289605D01*
X268999Y287895D01*
X270395Y286499D01*
X272105Y285511D01*
X274013Y285000D01*
X275987D01*
X277895Y285511D01*
X279605Y286499D01*
X281001Y287895D01*
X281989Y289605D01*
X282500Y291513D01*
Y293487D01*
X281989Y295395D01*
X281495Y296250D01*
X281989Y297105D01*
X282500Y299013D01*
Y300987D01*
X281989Y302895D01*
X281001Y304605D01*
X279605Y306001D01*
X277895Y306989D01*
X275987Y307500D01*
D02*
G37*
G36*
X662348Y301000D02*
X659452D01*
X656654Y300250D01*
X654146Y298802D01*
X652098Y296754D01*
X650650Y294246D01*
X649900Y291448D01*
Y288552D01*
X650650Y285754D01*
X652098Y283246D01*
X654146Y281198D01*
X656654Y279750D01*
X659452Y279000D01*
X662348D01*
X665146Y279750D01*
X667654Y281198D01*
X669702Y283246D01*
X671150Y285754D01*
X671900Y288552D01*
Y291448D01*
X671150Y294246D01*
X669702Y296754D01*
X667654Y298802D01*
X665146Y300250D01*
X662348Y301000D01*
D02*
G37*
G36*
X622348Y301000D02*
X619452D01*
X616654Y300250D01*
X614146Y298802D01*
X612098Y296754D01*
X610650Y294246D01*
X609900Y291448D01*
Y288552D01*
X610650Y285754D01*
X612098Y283246D01*
X614146Y281198D01*
X616654Y279750D01*
X619452Y279000D01*
X622348D01*
X625146Y279750D01*
X627654Y281198D01*
X629702Y283246D01*
X631150Y285754D01*
X631900Y288552D01*
Y291448D01*
X631150Y294246D01*
X629702Y296754D01*
X627654Y298802D01*
X625146Y300250D01*
X622348Y301000D01*
D02*
G37*
G36*
X535796Y285742D02*
X534204D01*
X532734Y285133D01*
X531609Y284008D01*
X531000Y282538D01*
Y280947D01*
X531609Y279476D01*
X532734Y278351D01*
X534204Y277742D01*
X535796D01*
X537266Y278351D01*
X538391Y279476D01*
X539000Y280947D01*
Y282538D01*
X538391Y284008D01*
X537266Y285133D01*
X535796Y285742D01*
D02*
G37*
G36*
X1167Y293866D02*
X-1167D01*
X-3422Y293262D01*
X-5444Y292095D01*
X-7095Y290444D01*
X-8262Y288422D01*
X-8866Y286167D01*
Y283833D01*
X-8262Y281578D01*
X-7095Y279556D01*
X-5444Y277905D01*
X-3422Y276738D01*
X-1167Y276134D01*
X1167D01*
X3422Y276738D01*
X5444Y277905D01*
X7095Y279556D01*
X8262Y281578D01*
X8866Y283833D01*
Y286167D01*
X8262Y288422D01*
X7095Y290444D01*
X5444Y292095D01*
X3422Y293262D01*
X1167Y293866D01*
D02*
G37*
G36*
X388296Y274000D02*
X386704D01*
X385234Y273391D01*
X384379Y272536D01*
X383750Y272364D01*
X383121Y272536D01*
X382266Y273391D01*
X380796Y274000D01*
X379204D01*
X377734Y273391D01*
X376609Y272266D01*
X376000Y270796D01*
Y269204D01*
X376609Y267734D01*
X377734Y266609D01*
X379204Y266000D01*
X380796D01*
X382266Y266609D01*
X383121Y267464D01*
X383750Y267636D01*
X384379Y267464D01*
X385234Y266609D01*
X386704Y266000D01*
X388296D01*
X389766Y266609D01*
X390891Y267734D01*
X391500Y269204D01*
Y270796D01*
X390891Y272266D01*
X389766Y273391D01*
X388296Y274000D01*
D02*
G37*
G36*
X687812Y278016D02*
X686508D01*
Y264758D01*
X699766D01*
Y266062D01*
X698828Y269564D01*
X697016Y272703D01*
X694453Y275266D01*
X691313Y277078D01*
X687812Y278016D01*
D02*
G37*
G36*
X685492D02*
X684188D01*
X680686Y277078D01*
X677548Y275266D01*
X674985Y272703D01*
X673172Y269564D01*
X672234Y266062D01*
Y264758D01*
X685492D01*
Y278016D01*
D02*
G37*
G36*
X606812D02*
X605508D01*
Y264758D01*
X618766D01*
Y266062D01*
X617828Y269564D01*
X616016Y272703D01*
X613452Y275266D01*
X610313Y277078D01*
X606812Y278016D01*
D02*
G37*
G36*
X604492D02*
X603188D01*
X599687Y277078D01*
X596548Y275266D01*
X593984Y272703D01*
X592172Y269564D01*
X591234Y266062D01*
Y264758D01*
X604492D01*
Y278016D01*
D02*
G37*
G36*
X235987Y285000D02*
X234013D01*
X232105Y284489D01*
X230395Y283501D01*
X228999Y282105D01*
X228011Y280395D01*
X227500Y278487D01*
Y276513D01*
X228011Y274605D01*
X228505Y273750D01*
X228011Y272895D01*
X227500Y270987D01*
Y269013D01*
X228011Y267105D01*
X228999Y265395D01*
X230395Y263999D01*
X232105Y263011D01*
X234013Y262500D01*
X235987D01*
X237895Y263011D01*
X239605Y263999D01*
X241001Y265395D01*
X241989Y267105D01*
X242500Y269013D01*
Y270987D01*
X241989Y272895D01*
X241495Y273750D01*
X241989Y274605D01*
X242500Y276513D01*
Y278487D01*
X241989Y280395D01*
X241001Y282105D01*
X239605Y283501D01*
X237895Y284489D01*
X235987Y285000D01*
D02*
G37*
G36*
X699766Y263742D02*
X686508D01*
Y250484D01*
X687812D01*
X691313Y251422D01*
X694453Y253235D01*
X697016Y255798D01*
X698828Y258937D01*
X699766Y262438D01*
Y263742D01*
D02*
G37*
G36*
X685492D02*
X672234D01*
Y262438D01*
X673172Y258937D01*
X674985Y255798D01*
X677548Y253235D01*
X680686Y251422D01*
X684188Y250484D01*
X685492D01*
Y263742D01*
D02*
G37*
G36*
X618766D02*
X605508D01*
Y250484D01*
X606812D01*
X610313Y251422D01*
X613452Y253235D01*
X616016Y255798D01*
X617828Y258937D01*
X618766Y262438D01*
Y263742D01*
D02*
G37*
G36*
X604492D02*
X591234D01*
Y262438D01*
X592172Y258937D01*
X593984Y255798D01*
X596548Y253235D01*
X599687Y251422D01*
X603188Y250484D01*
X604492D01*
Y263742D01*
D02*
G37*
G36*
X355796Y246500D02*
X354204D01*
X352734Y245891D01*
X351879Y245036D01*
X351250Y244864D01*
X350621Y245036D01*
X349766Y245891D01*
X348296Y246500D01*
X346704D01*
X345234Y245891D01*
X344109Y244766D01*
X343500Y243296D01*
Y241704D01*
X344109Y240234D01*
X345234Y239109D01*
X346704Y238500D01*
X348296D01*
X349766Y239109D01*
X350621Y239964D01*
X351250Y240136D01*
X351879Y239964D01*
X352734Y239109D01*
X354204Y238500D01*
X355796D01*
X357266Y239109D01*
X358391Y240234D01*
X359000Y241704D01*
Y243296D01*
X358391Y244766D01*
X357266Y245891D01*
X355796Y246500D01*
D02*
G37*
G36*
X320796Y251500D02*
X319204D01*
X317734Y250891D01*
X316609Y249766D01*
X316000Y248296D01*
Y246704D01*
X316609Y245234D01*
X317734Y244109D01*
X319204Y243500D01*
X320796D01*
X322266Y244109D01*
X323391Y245234D01*
X324000Y246704D01*
Y248296D01*
X323391Y249766D01*
X322266Y250891D01*
X320796Y251500D01*
D02*
G37*
G36*
X255987Y262500D02*
X254013D01*
X252105Y261989D01*
X250395Y261001D01*
X248999Y259605D01*
X248011Y257895D01*
X247500Y255987D01*
Y254013D01*
X248011Y252105D01*
X248505Y251250D01*
X248011Y250395D01*
X247500Y248487D01*
Y246513D01*
X248011Y244605D01*
X248999Y242895D01*
X250395Y241499D01*
X252105Y240511D01*
X254013Y240000D01*
X255987D01*
X257895Y240511D01*
X259605Y241499D01*
X261001Y242895D01*
X261989Y244605D01*
X262500Y246513D01*
Y248487D01*
X261989Y250395D01*
X261495Y251250D01*
X261989Y252105D01*
X262500Y254013D01*
Y255987D01*
X261989Y257895D01*
X261001Y259605D01*
X259605Y261001D01*
X257895Y261989D01*
X255987Y262500D01*
D02*
G37*
G36*
X215987Y240000D02*
X214013D01*
X212105Y239489D01*
X210395Y238501D01*
X208999Y237105D01*
X208011Y235395D01*
X207500Y233487D01*
Y231513D01*
X208011Y229605D01*
X208505Y228750D01*
X208011Y227895D01*
X207500Y225987D01*
Y224013D01*
X208011Y222105D01*
X208999Y220395D01*
X210395Y218999D01*
X212105Y218011D01*
X214013Y217500D01*
X215987D01*
X217895Y218011D01*
X219605Y218999D01*
X221001Y220395D01*
X221989Y222105D01*
X222500Y224013D01*
Y225987D01*
X221989Y227895D01*
X221495Y228750D01*
X221989Y229605D01*
X222500Y231513D01*
Y233487D01*
X221989Y235395D01*
X221001Y237105D01*
X219605Y238501D01*
X217895Y239489D01*
X215987Y240000D01*
D02*
G37*
G36*
X68355Y233016D02*
X66245D01*
X64206Y232470D01*
X62378Y231414D01*
X60886Y229922D01*
X59830Y228094D01*
X59284Y226055D01*
Y223945D01*
X59830Y221906D01*
X60886Y220078D01*
X62378Y218586D01*
X64206Y217530D01*
X66245Y216984D01*
X68355D01*
X70394Y217530D01*
X72222Y218586D01*
X73714Y220078D01*
X74770Y221906D01*
X75316Y223945D01*
Y226055D01*
X74770Y228094D01*
X73714Y229922D01*
X72222Y231414D01*
X70394Y232470D01*
X68355Y233016D01*
D02*
G37*
G36*
X1167Y233866D02*
X-1167D01*
X-3422Y233262D01*
X-5444Y232095D01*
X-7095Y230444D01*
X-8262Y228422D01*
X-8866Y226167D01*
Y223833D01*
X-8262Y221578D01*
X-7095Y219556D01*
X-5444Y217905D01*
X-3422Y216738D01*
X-1167Y216134D01*
X1167D01*
X3422Y216738D01*
X5444Y217905D01*
X7095Y219556D01*
X8262Y221578D01*
X8866Y223833D01*
Y226167D01*
X8262Y228422D01*
X7095Y230444D01*
X5444Y232095D01*
X3422Y233262D01*
X1167Y233866D01*
D02*
G37*
G36*
X195987Y217500D02*
X194013D01*
X192105Y216989D01*
X190395Y216001D01*
X188999Y214605D01*
X188011Y212895D01*
X187500Y210987D01*
Y209013D01*
X188011Y207105D01*
X188505Y206250D01*
X188011Y205395D01*
X187500Y203487D01*
Y201513D01*
X188011Y199605D01*
X188999Y197895D01*
X190395Y196499D01*
X192105Y195511D01*
X194013Y195000D01*
X195987D01*
X197895Y195511D01*
X199605Y196499D01*
X201001Y197895D01*
X201989Y199605D01*
X202500Y201513D01*
Y203487D01*
X201989Y205395D01*
X201495Y206250D01*
X201989Y207105D01*
X202500Y209013D01*
Y210987D01*
X201989Y212895D01*
X201001Y214605D01*
X199605Y216001D01*
X197895Y216989D01*
X195987Y217500D01*
D02*
G37*
G36*
X68355Y203016D02*
X66245D01*
X64206Y202470D01*
X62378Y201414D01*
X60886Y199922D01*
X59830Y198094D01*
X59284Y196055D01*
Y193945D01*
X59830Y191906D01*
X60886Y190078D01*
X62378Y188586D01*
X64206Y187530D01*
X66245Y186984D01*
X68355D01*
X70394Y187530D01*
X72222Y188586D01*
X73714Y190078D01*
X74770Y191906D01*
X75316Y193945D01*
Y196055D01*
X74770Y198094D01*
X73714Y199922D01*
X72222Y201414D01*
X70394Y202470D01*
X68355Y203016D01*
D02*
G37*
G36*
X535796Y194000D02*
X534204D01*
X532734Y193391D01*
X531609Y192266D01*
X531000Y190796D01*
Y189204D01*
X531609Y187734D01*
X532734Y186609D01*
X534204Y186000D01*
X535796D01*
X537266Y186609D01*
X538391Y187734D01*
X539000Y189204D01*
Y190796D01*
X538391Y192266D01*
X537266Y193391D01*
X535796Y194000D01*
D02*
G37*
G36*
X525796D02*
X524204D01*
X522734Y193391D01*
X521609Y192266D01*
X521000Y190796D01*
Y189204D01*
X521609Y187734D01*
X522734Y186609D01*
X524204Y186000D01*
X525796D01*
X527266Y186609D01*
X528391Y187734D01*
X529000Y189204D01*
Y190796D01*
X528391Y192266D01*
X527266Y193391D01*
X525796Y194000D01*
D02*
G37*
G36*
X1167Y193866D02*
X-1167D01*
X-3422Y193262D01*
X-5444Y192095D01*
X-7095Y190444D01*
X-8262Y188422D01*
X-8866Y186167D01*
Y183833D01*
X-8262Y181578D01*
X-7095Y179556D01*
X-5444Y177905D01*
X-3422Y176738D01*
X-1167Y176134D01*
X1167D01*
X3422Y176738D01*
X5444Y177905D01*
X7095Y179556D01*
X8262Y181578D01*
X8866Y183833D01*
Y186167D01*
X8262Y188422D01*
X7095Y190444D01*
X5444Y192095D01*
X3422Y193262D01*
X1167Y193866D01*
D02*
G37*
G36*
X738296Y181500D02*
X736704D01*
X735234Y180891D01*
X734109Y179766D01*
X733500Y178296D01*
Y176704D01*
X734109Y175234D01*
X735234Y174109D01*
X736704Y173500D01*
X738296D01*
X739766Y174109D01*
X740891Y175234D01*
X741500Y176704D01*
Y178296D01*
X740891Y179766D01*
X739766Y180891D01*
X738296Y181500D01*
D02*
G37*
G36*
X654053Y169000D02*
X652462D01*
X650992Y168391D01*
X649867Y167266D01*
X649258Y165796D01*
Y164204D01*
X649867Y162734D01*
X650992Y161609D01*
X652462Y161000D01*
X654053D01*
X655524Y161609D01*
X656649Y162734D01*
X657258Y164204D01*
Y165796D01*
X656649Y167266D01*
X655524Y168391D01*
X654053Y169000D01*
D02*
G37*
G36*
X535796Y154000D02*
X534204D01*
X532734Y153391D01*
X531609Y152266D01*
X531000Y150796D01*
Y149204D01*
X531609Y147734D01*
X532734Y146609D01*
X534204Y146000D01*
X535796D01*
X537266Y146609D01*
X538391Y147734D01*
X539000Y149204D01*
Y150796D01*
X538391Y152266D01*
X537266Y153391D01*
X535796Y154000D01*
D02*
G37*
G36*
X525796D02*
X524204D01*
X522734Y153391D01*
X521609Y152266D01*
X521000Y150796D01*
Y149204D01*
X521609Y147734D01*
X522734Y146609D01*
X524204Y146000D01*
X525796D01*
X527266Y146609D01*
X528391Y147734D01*
X529000Y149204D01*
Y150796D01*
X528391Y152266D01*
X527266Y153391D01*
X525796Y154000D01*
D02*
G37*
G36*
X645796Y84000D02*
X644204D01*
X642734Y83391D01*
X641609Y82266D01*
X641000Y80796D01*
Y79204D01*
X641609Y77734D01*
X642734Y76609D01*
X644204Y76000D01*
X645796D01*
X647266Y76609D01*
X648391Y77734D01*
X649000Y79204D01*
Y80796D01*
X648391Y82266D01*
X647266Y83391D01*
X645796Y84000D01*
D02*
G37*
G36*
X1167Y78866D02*
X508D01*
Y70508D01*
X8866D01*
Y71167D01*
X8262Y73422D01*
X7095Y75444D01*
X5444Y77095D01*
X3422Y78262D01*
X1167Y78866D01*
D02*
G37*
G36*
X-508D02*
X-1167D01*
X-3422Y78262D01*
X-5444Y77095D01*
X-7095Y75444D01*
X-8262Y73422D01*
X-8866Y71167D01*
Y70508D01*
X-508D01*
Y78866D01*
D02*
G37*
G36*
X8866Y69492D02*
X508D01*
Y61134D01*
X1167D01*
X3422Y61738D01*
X5444Y62905D01*
X7095Y64556D01*
X8262Y66578D01*
X8866Y68833D01*
Y69492D01*
D02*
G37*
G36*
X-508D02*
X-8866D01*
Y68833D01*
X-8262Y66578D01*
X-7095Y64556D01*
X-5444Y62905D01*
X-3422Y61738D01*
X-1167Y61134D01*
X-508D01*
Y69492D01*
D02*
G37*
G36*
X100716Y233016D02*
X84684D01*
Y216984D01*
X90645D01*
Y212565D01*
X90645Y212565D01*
X90801Y211779D01*
X91247Y211112D01*
X98404Y203955D01*
X98015Y203016D01*
X84684D01*
Y186984D01*
X100716D01*
Y192945D01*
X105148D01*
X280445Y17649D01*
Y10978D01*
X280234Y10891D01*
X279109Y9766D01*
X278500Y8296D01*
Y6704D01*
X279109Y5234D01*
X280234Y4109D01*
X281704Y3500D01*
X283296D01*
X284766Y4109D01*
X285621Y4964D01*
X286250Y5136D01*
X286879Y4964D01*
X287734Y4109D01*
X289204Y3500D01*
X290796D01*
X292266Y4109D01*
X293391Y5234D01*
X294000Y6704D01*
Y8296D01*
X293391Y9766D01*
X292266Y10891D01*
X292055Y10978D01*
Y15265D01*
X292055Y15265D01*
X291899Y16052D01*
X291453Y16719D01*
X291453Y16719D01*
X94755Y213417D01*
Y216984D01*
X100716D01*
Y233016D01*
D02*
G37*
G36*
X722168Y27540D02*
X721270D01*
Y1270D01*
X747540D01*
Y2167D01*
X746862Y6449D01*
X745522Y10572D01*
X743554Y14434D01*
X741006Y17941D01*
X737941Y21006D01*
X734434Y23554D01*
X730572Y25522D01*
X726449Y26862D01*
X722168Y27540D01*
D02*
G37*
G36*
X718730D02*
X717832D01*
X713551Y26862D01*
X709428Y25522D01*
X705566Y23554D01*
X702059Y21006D01*
X698994Y17941D01*
X696446Y14434D01*
X694478Y10572D01*
X693138Y6449D01*
X692460Y2167D01*
Y1270D01*
X718730D01*
Y27540D01*
D02*
G37*
G36*
X2167D02*
X1270D01*
Y1270D01*
X27540D01*
Y2167D01*
X26862Y6449D01*
X25522Y10572D01*
X23554Y14434D01*
X21006Y17941D01*
X17941Y21006D01*
X14434Y23554D01*
X10572Y25522D01*
X6449Y26862D01*
X2167Y27540D01*
D02*
G37*
G36*
X-1270D02*
X-2167D01*
X-6449Y26862D01*
X-10572Y25522D01*
X-14434Y23554D01*
X-17941Y21006D01*
X-21006Y17941D01*
X-23554Y14434D01*
X-25522Y10572D01*
X-26862Y6449D01*
X-27540Y2167D01*
Y1270D01*
X-1270D01*
Y27540D01*
D02*
G37*
G36*
X659166Y7566D02*
X644034D01*
Y-7566D01*
X659166D01*
Y7566D01*
D02*
G37*
G36*
X627196D02*
X625204D01*
X623280Y7050D01*
X621554Y6054D01*
X620146Y4646D01*
X619150Y2920D01*
X618634Y996D01*
Y-996D01*
X619150Y-2920D01*
X620146Y-4646D01*
X621554Y-6054D01*
X623280Y-7050D01*
X625204Y-7566D01*
X627196D01*
X629120Y-7050D01*
X630846Y-6054D01*
X632254Y-4646D01*
X633250Y-2920D01*
X633766Y-996D01*
Y996D01*
X633250Y2920D01*
X632254Y4646D01*
X630846Y6054D01*
X629120Y7050D01*
X627196Y7566D01*
D02*
G37*
G36*
X601796D02*
X599804D01*
X597880Y7050D01*
X596154Y6054D01*
X594746Y4646D01*
X593750Y2920D01*
X593234Y996D01*
Y-996D01*
X593750Y-2920D01*
X594746Y-4646D01*
X596154Y-6054D01*
X597880Y-7050D01*
X599804Y-7566D01*
X601796D01*
X603720Y-7050D01*
X605446Y-6054D01*
X606854Y-4646D01*
X607850Y-2920D01*
X608366Y-996D01*
Y996D01*
X607850Y2920D01*
X606854Y4646D01*
X605446Y6054D01*
X603720Y7050D01*
X601796Y7566D01*
D02*
G37*
G36*
X576396D02*
X574404D01*
X572480Y7050D01*
X570754Y6054D01*
X569346Y4646D01*
X568350Y2920D01*
X567834Y996D01*
Y-996D01*
X568350Y-2920D01*
X569346Y-4646D01*
X570754Y-6054D01*
X572480Y-7050D01*
X574404Y-7566D01*
X576396D01*
X578320Y-7050D01*
X580046Y-6054D01*
X581454Y-4646D01*
X582450Y-2920D01*
X582966Y-996D01*
Y996D01*
X582450Y2920D01*
X581454Y4646D01*
X580046Y6054D01*
X578320Y7050D01*
X576396Y7566D01*
D02*
G37*
G36*
X550996D02*
X549004D01*
X547080Y7050D01*
X545354Y6054D01*
X543946Y4646D01*
X542950Y2920D01*
X542434Y996D01*
Y-996D01*
X542950Y-2920D01*
X543946Y-4646D01*
X545354Y-6054D01*
X547080Y-7050D01*
X549004Y-7566D01*
X550996D01*
X552920Y-7050D01*
X554646Y-6054D01*
X556054Y-4646D01*
X557050Y-2920D01*
X557566Y-996D01*
Y996D01*
X557050Y2920D01*
X556054Y4646D01*
X554646Y6054D01*
X552920Y7050D01*
X550996Y7566D01*
D02*
G37*
G36*
X525596D02*
X523604D01*
X521680Y7050D01*
X519954Y6054D01*
X518546Y4646D01*
X517550Y2920D01*
X517034Y996D01*
Y-996D01*
X517550Y-2920D01*
X518546Y-4646D01*
X519954Y-6054D01*
X521680Y-7050D01*
X523604Y-7566D01*
X525596D01*
X527520Y-7050D01*
X529246Y-6054D01*
X530654Y-4646D01*
X531650Y-2920D01*
X532166Y-996D01*
Y996D01*
X531650Y2920D01*
X530654Y4646D01*
X529246Y6054D01*
X527520Y7050D01*
X525596Y7566D01*
D02*
G37*
G36*
X500196D02*
X498204D01*
X496280Y7050D01*
X494554Y6054D01*
X493146Y4646D01*
X492150Y2920D01*
X491634Y996D01*
Y-996D01*
X492150Y-2920D01*
X493146Y-4646D01*
X494554Y-6054D01*
X496280Y-7050D01*
X498204Y-7566D01*
X500196D01*
X502120Y-7050D01*
X503846Y-6054D01*
X505254Y-4646D01*
X506250Y-2920D01*
X506766Y-996D01*
Y996D01*
X506250Y2920D01*
X505254Y4646D01*
X503846Y6054D01*
X502120Y7050D01*
X500196Y7566D01*
D02*
G37*
G36*
X474796D02*
X472804D01*
X470880Y7050D01*
X469154Y6054D01*
X467746Y4646D01*
X466750Y2920D01*
X466234Y996D01*
Y-996D01*
X466750Y-2920D01*
X467746Y-4646D01*
X469154Y-6054D01*
X470880Y-7050D01*
X472804Y-7566D01*
X474796D01*
X476720Y-7050D01*
X478446Y-6054D01*
X479854Y-4646D01*
X480850Y-2920D01*
X481366Y-996D01*
Y996D01*
X480850Y2920D01*
X479854Y4646D01*
X478446Y6054D01*
X476720Y7050D01*
X474796Y7566D01*
D02*
G37*
G36*
X449396D02*
X447404D01*
X445480Y7050D01*
X443754Y6054D01*
X442346Y4646D01*
X441350Y2920D01*
X440834Y996D01*
Y-996D01*
X441350Y-2920D01*
X442346Y-4646D01*
X443754Y-6054D01*
X445480Y-7050D01*
X447404Y-7566D01*
X449396D01*
X451320Y-7050D01*
X453046Y-6054D01*
X454454Y-4646D01*
X455450Y-2920D01*
X455966Y-996D01*
Y996D01*
X455450Y2920D01*
X454454Y4646D01*
X453046Y6054D01*
X451320Y7050D01*
X449396Y7566D01*
D02*
G37*
G36*
X426116Y8016D02*
X410084D01*
Y-8016D01*
X426116D01*
Y8016D01*
D02*
G37*
G36*
X393755D02*
X391645D01*
X389606Y7470D01*
X387778Y6414D01*
X386286Y4922D01*
X385230Y3094D01*
X384684Y1055D01*
Y-1055D01*
X385230Y-3094D01*
X386286Y-4922D01*
X387778Y-6414D01*
X389606Y-7470D01*
X391645Y-8016D01*
X393755D01*
X395794Y-7470D01*
X397622Y-6414D01*
X399114Y-4922D01*
X400170Y-3094D01*
X400716Y-1055D01*
Y1055D01*
X400170Y3094D01*
X399114Y4922D01*
X397622Y6414D01*
X395794Y7470D01*
X393755Y8016D01*
D02*
G37*
G36*
X747540Y-1270D02*
X721270D01*
Y-27540D01*
X722168D01*
X726449Y-26862D01*
X730572Y-25522D01*
X734434Y-23554D01*
X737941Y-21006D01*
X741006Y-17941D01*
X743554Y-14434D01*
X745522Y-10572D01*
X746862Y-6449D01*
X747540Y-2167D01*
Y-1270D01*
D02*
G37*
G36*
X718730D02*
X692460D01*
Y-2167D01*
X693138Y-6449D01*
X694478Y-10572D01*
X696446Y-14434D01*
X698994Y-17941D01*
X702059Y-21006D01*
X705566Y-23554D01*
X709428Y-25522D01*
X713551Y-26862D01*
X717832Y-27540D01*
X718730D01*
Y-1270D01*
D02*
G37*
G36*
X27540D02*
X1270D01*
Y-27540D01*
X2167D01*
X6449Y-26862D01*
X10572Y-25522D01*
X14434Y-23554D01*
X17941Y-21006D01*
X21006Y-17941D01*
X23554Y-14434D01*
X25522Y-10572D01*
X26862Y-6449D01*
X27540Y-2167D01*
Y-1270D01*
D02*
G37*
G36*
X-1270D02*
X-27540D01*
Y-2167D01*
X-26862Y-6449D01*
X-25522Y-10572D01*
X-23554Y-14434D01*
X-21006Y-17941D01*
X-17941Y-21006D01*
X-14434Y-23554D01*
X-10572Y-25522D01*
X-6449Y-26862D01*
X-2167Y-27540D01*
X-1270D01*
Y-1270D01*
D02*
G37*
%LPD*%
G36*
X683060Y659440D02*
X682862Y658444D01*
X682734Y658391D01*
X681609Y657266D01*
X681000Y655796D01*
Y654204D01*
X681609Y652734D01*
X682734Y651609D01*
X684204Y651000D01*
X685796D01*
X687266Y651609D01*
X688391Y652734D01*
X688444Y652861D01*
X689440Y653060D01*
X730000Y612500D01*
Y597500D01*
X700000D01*
X642500Y655000D01*
X440000D01*
Y630000D01*
X426100D01*
X425778Y630778D01*
X425000Y631100D01*
X375000D01*
X374222Y630778D01*
X373900Y630000D01*
Y561100D01*
X285000D01*
X284222Y560778D01*
X283900Y560000D01*
Y530000D01*
X245000D01*
Y685000D01*
X657500D01*
X683060Y659440D01*
D02*
G37*
G36*
X425000Y402500D02*
X362500D01*
Y460945D01*
X375778Y474222D01*
X376100Y475000D01*
X376100Y560000D01*
X375778Y560778D01*
X375000Y561100D01*
Y630000D01*
X425000D01*
Y402500D01*
D02*
G37*
G36*
X375000Y475000D02*
X335000Y435000D01*
X335000Y355000D01*
X285000D01*
Y560000D01*
X375000D01*
X375000Y475000D01*
D02*
G37*
%LPC*%
G36*
X320796Y659000D02*
X319204D01*
X317734Y658391D01*
X316609Y657266D01*
X316000Y655796D01*
Y654204D01*
X316609Y652734D01*
X317734Y651609D01*
X319204Y651000D01*
X320796D01*
X322266Y651609D01*
X323391Y652734D01*
X324000Y654204D01*
Y655796D01*
X323391Y657266D01*
X322266Y658391D01*
X320796Y659000D01*
D02*
G37*
G36*
X668296Y659000D02*
X666704D01*
X665234Y658391D01*
X664109Y657266D01*
X663500Y655796D01*
Y654204D01*
X664109Y652734D01*
X665234Y651609D01*
X666704Y651000D01*
X668296D01*
X669766Y651609D01*
X670891Y652734D01*
X671500Y654204D01*
Y655796D01*
X670891Y657266D01*
X669766Y658391D01*
X668296Y659000D01*
D02*
G37*
G36*
X685796Y641500D02*
X684204D01*
X682734Y640891D01*
X681609Y639766D01*
X681000Y638296D01*
Y636704D01*
X681609Y635234D01*
X682734Y634109D01*
X684204Y633500D01*
X685796D01*
X687266Y634109D01*
X688391Y635234D01*
X689000Y636704D01*
Y638296D01*
X688391Y639766D01*
X687266Y640891D01*
X685796Y641500D01*
D02*
G37*
G36*
X320909Y610570D02*
X319091D01*
X317411Y609874D01*
X316126Y608589D01*
X315430Y606909D01*
Y605091D01*
X316126Y603411D01*
X317411Y602126D01*
X319091Y601430D01*
X320909D01*
X322589Y602126D01*
X323874Y603411D01*
X324570Y605091D01*
Y606909D01*
X323874Y608589D01*
X322589Y609874D01*
X320909Y610570D01*
D02*
G37*
G36*
Y598570D02*
X319091D01*
X317411Y597874D01*
X316126Y596589D01*
X315430Y594909D01*
Y593091D01*
X316126Y591411D01*
X317411Y590126D01*
X319091Y589430D01*
X320909D01*
X322589Y590126D01*
X323874Y591411D01*
X324570Y593091D01*
Y594909D01*
X323874Y596589D01*
X322589Y597874D01*
X320909Y598570D01*
D02*
G37*
G36*
Y540570D02*
X319091D01*
X317411Y539874D01*
X316126Y538589D01*
X315430Y536909D01*
Y535091D01*
X316126Y533411D01*
X317411Y532126D01*
X319091Y531430D01*
X320909D01*
X322589Y532126D01*
X323874Y533411D01*
X324570Y535091D01*
Y536909D01*
X323874Y538589D01*
X322589Y539874D01*
X320909Y540570D01*
D02*
G37*
G36*
Y528570D02*
X319091D01*
X317411Y527874D01*
X316126Y526589D01*
X315430Y524909D01*
Y523091D01*
X316126Y521411D01*
X317411Y520126D01*
X319091Y519430D01*
X320909D01*
X322589Y520126D01*
X323874Y521411D01*
X324570Y523091D01*
Y524909D01*
X323874Y526589D01*
X322589Y527874D01*
X320909Y528570D01*
D02*
G37*
%LPD*%
D14*
X282500Y7500D02*
Y18500D01*
X290000Y7500D02*
Y15265D01*
X92700Y212565D02*
Y225000D01*
Y212565D02*
X290000Y15265D01*
X106000Y195000D02*
X282500Y18500D01*
X92700Y195000D02*
X106000D01*
X402500Y327500D02*
X410000Y335000D01*
X402500Y250000D02*
Y327500D01*
X372500Y220000D02*
X402500Y250000D01*
D18*
X542500Y135000D02*
X607500Y70000D01*
X445000Y135000D02*
X542500D01*
X257500Y342500D02*
X330000Y270000D01*
X352500D01*
X365000Y257500D01*
Y215000D02*
X445000Y135000D01*
X365000Y215000D02*
Y257500D01*
X257500Y342500D02*
Y537500D01*
X252500D02*
X257500D01*
X45000Y310000D02*
Y330000D01*
X252500Y537500D01*
X45000Y210000D02*
Y310000D01*
D58*
X35000Y440000D02*
D03*
D59*
X65000Y393000D02*
D03*
D60*
X0Y70000D02*
D03*
Y225000D02*
D03*
Y185000D02*
D03*
Y325000D02*
D03*
Y285000D02*
D03*
X480000Y680000D02*
D03*
Y610000D02*
D03*
Y540000D02*
D03*
X120000Y570000D02*
D03*
Y610000D02*
D03*
D64*
X651600Y0D02*
D03*
D66*
X473800D02*
D03*
X550000D02*
D03*
X524600D02*
D03*
X626200D02*
D03*
X575400D02*
D03*
X499200D02*
D03*
X448400D02*
D03*
X600800D02*
D03*
D68*
X95000Y440000D02*
D03*
D75*
X733435Y733435D02*
D03*
X720000Y739000D02*
D03*
X739000Y720000D02*
D03*
X706565Y733435D02*
D03*
X701000Y720000D02*
D03*
X733435Y706565D02*
D03*
X720000Y701000D02*
D03*
X706565Y706565D02*
D03*
X733435Y463435D02*
D03*
X720000Y469000D02*
D03*
X739000Y450000D02*
D03*
X706565Y463435D02*
D03*
Y436565D02*
D03*
X733435D02*
D03*
X720000Y431000D02*
D03*
X701000Y450000D02*
D03*
X720000Y19000D02*
D03*
X733435Y13435D02*
D03*
X706565D02*
D03*
X701000Y0D02*
D03*
X739000D02*
D03*
X733435Y-13435D02*
D03*
X706565D02*
D03*
X720000Y-19000D02*
D03*
X19000Y720000D02*
D03*
X13435Y733435D02*
D03*
X0Y739000D02*
D03*
X-13435Y706565D02*
D03*
Y733435D02*
D03*
X-19000Y720000D02*
D03*
X13435Y706565D02*
D03*
X0Y701000D02*
D03*
X13435Y13435D02*
D03*
X0Y19000D02*
D03*
X-13435Y13435D02*
D03*
X-19000Y0D02*
D03*
X19000D02*
D03*
X13435Y-13435D02*
D03*
X-13435D02*
D03*
X0Y-19000D02*
D03*
X195000Y170000D02*
D03*
X310000Y110000D02*
D03*
X735000Y660000D02*
D03*
X667500Y655000D02*
D03*
X685000D02*
D03*
X660000Y710000D02*
D03*
X685000Y637500D02*
D03*
X732500Y395000D02*
D03*
X660000Y510000D02*
D03*
X650000Y620000D02*
D03*
X670000Y395000D02*
D03*
X610000Y710000D02*
D03*
X630000Y640000D02*
D03*
X510000Y710000D02*
D03*
X560000D02*
D03*
X510000Y610000D02*
D03*
X560000D02*
D03*
X460000Y710000D02*
D03*
X410000D02*
D03*
X370000Y705000D02*
D03*
X350000D02*
D03*
X360000D02*
D03*
X460000Y610000D02*
D03*
X380000Y705000D02*
D03*
X535000Y560000D02*
D03*
X485000D02*
D03*
X510000Y510000D02*
D03*
X610000D02*
D03*
X530000Y450000D02*
D03*
X460000Y510000D02*
D03*
X430000Y400000D02*
D03*
X570000Y252500D02*
D03*
X670000Y225000D02*
D03*
X570000Y367500D02*
D03*
X560000Y310000D02*
D03*
X732500Y225000D02*
D03*
X530000Y170000D02*
D03*
X460000Y110000D02*
D03*
X440000Y225000D02*
D03*
Y217500D02*
D03*
X735000Y60000D02*
D03*
X660000Y110000D02*
D03*
X650000Y70000D02*
D03*
X510000Y110000D02*
D03*
X610000D02*
D03*
X485000Y60000D02*
D03*
X535000D02*
D03*
X347778Y325556D02*
D03*
X355556Y317778D02*
D03*
X363335Y310000D02*
D03*
X347778D02*
D03*
X385000Y160000D02*
D03*
X355556Y302222D02*
D03*
X347778Y294444D02*
D03*
X340000Y302222D02*
D03*
Y286665D02*
D03*
X360000Y10000D02*
D03*
X340000Y705000D02*
D03*
X330000D02*
D03*
X322500Y697500D02*
D03*
X320000Y655000D02*
D03*
X310000Y710000D02*
D03*
X260000D02*
D03*
X340000Y333335D02*
D03*
X332222Y325556D02*
D03*
X324444Y317778D02*
D03*
X340000D02*
D03*
X332222Y294444D02*
D03*
Y310000D02*
D03*
X324444Y302222D02*
D03*
X316665Y310000D02*
D03*
X275000Y307500D02*
D03*
X235000Y360000D02*
D03*
X260000Y310000D02*
D03*
X160000Y710000D02*
D03*
X110000D02*
D03*
X210000D02*
D03*
X60000D02*
D03*
X35000Y660000D02*
D03*
X60000Y610000D02*
D03*
X210000Y410000D02*
D03*
X160000Y510000D02*
D03*
X185000Y360000D02*
D03*
X135000Y460000D02*
D03*
Y360000D02*
D03*
X210000Y310000D02*
D03*
X235000Y285000D02*
D03*
X110000Y310000D02*
D03*
X160000D02*
D03*
X60000Y510000D02*
D03*
X35000Y560000D02*
D03*
X10000Y410000D02*
D03*
X110000D02*
D03*
X60000D02*
D03*
X10000Y310000D02*
D03*
X335000Y160000D02*
D03*
X330000Y240000D02*
D03*
X335000Y60000D02*
D03*
X275000Y285000D02*
D03*
X255000Y262500D02*
D03*
X302500Y257500D02*
D03*
X235000Y262500D02*
D03*
X215000Y240000D02*
D03*
X300000Y220000D02*
D03*
X285000Y60000D02*
D03*
X255000Y240000D02*
D03*
X285000Y160000D02*
D03*
X310000Y10000D02*
D03*
X195000Y217500D02*
D03*
X185000Y260000D02*
D03*
X215000Y217500D02*
D03*
X135000Y260000D02*
D03*
X110000Y210000D02*
D03*
X195000Y195000D02*
D03*
X160000Y10000D02*
D03*
Y210000D02*
D03*
X60000Y10000D02*
D03*
Y110000D02*
D03*
X35000Y160000D02*
D03*
Y60000D02*
D03*
X10000Y210000D02*
D03*
X110000Y10000D02*
D03*
X645000Y80000D02*
D03*
X195000Y210000D02*
D03*
X290000Y7500D02*
D03*
X282500D02*
D03*
X600000Y540000D02*
D03*
X620000Y642500D02*
D03*
X655000Y682500D02*
D03*
X627500Y650000D02*
D03*
X610000Y540000D02*
D03*
X640000D02*
D03*
X660000D02*
D03*
X670000D02*
D03*
X630000D02*
D03*
X700000D02*
D03*
X690000D02*
D03*
X712500Y625000D02*
D03*
X653258Y165000D02*
D03*
Y455000D02*
D03*
X535000Y338258D02*
D03*
Y281742D02*
D03*
X390000Y352500D02*
D03*
X367500Y407500D02*
D03*
X375000D02*
D03*
X45000Y210000D02*
D03*
Y310000D02*
D03*
X430000Y662500D02*
D03*
Y677500D02*
D03*
Y670000D02*
D03*
X257500Y537500D02*
D03*
X272500D02*
D03*
X265000D02*
D03*
X257500Y607500D02*
D03*
X272500D02*
D03*
X265000D02*
D03*
X737500Y177500D02*
D03*
X607500Y70000D02*
D03*
X365000Y257500D02*
D03*
X410000Y325000D02*
D03*
X414936Y320000D02*
D03*
X535000Y470000D02*
D03*
X525000D02*
D03*
X535000Y430000D02*
D03*
X525000D02*
D03*
X535000Y150000D02*
D03*
X525000D02*
D03*
Y190000D02*
D03*
X535000D02*
D03*
X387500Y625000D02*
D03*
X395000D02*
D03*
X402500D02*
D03*
X372500Y220000D02*
D03*
X382500Y407500D02*
D03*
X330000Y370000D02*
D03*
X322500D02*
D03*
X315000D02*
D03*
X367500Y555000D02*
D03*
X352500D02*
D03*
X360000D02*
D03*
X275000Y292500D02*
D03*
X215000Y232500D02*
D03*
X320000Y247500D02*
D03*
X195000Y202500D02*
D03*
X215000Y225000D02*
D03*
X255000Y255000D02*
D03*
Y247500D02*
D03*
X235000Y277500D02*
D03*
Y270000D02*
D03*
X275000Y300000D02*
D03*
X379000Y355000D02*
D03*
X380000Y270000D02*
D03*
X320000Y362500D02*
D03*
X355000Y377500D02*
D03*
X410000Y335000D02*
D03*
X340000Y377500D02*
D03*
X415000Y330000D02*
D03*
X347500Y377500D02*
D03*
Y242500D02*
D03*
X355000D02*
D03*
X387500Y270000D02*
D03*
X195000Y640000D02*
D03*
Y540000D02*
D03*
X185000Y662500D02*
D03*
Y562500D02*
D03*
D76*
X720000Y720000D02*
D03*
Y450000D02*
D03*
Y0D02*
D03*
X0Y720000D02*
D03*
Y0D02*
D03*
D77*
X605000Y355750D02*
D03*
X686000D02*
D03*
Y264250D02*
D03*
X605000D02*
D03*
D78*
X640000Y310000D02*
D03*
D79*
X620900Y330000D02*
D03*
X660900D02*
D03*
Y290000D02*
D03*
X620900Y290000D02*
D03*
D80*
X418100Y0D02*
D03*
X92700Y225000D02*
D03*
Y195000D02*
D03*
Y325000D02*
D03*
Y295000D02*
D03*
D81*
X67300Y195000D02*
D03*
Y225000D02*
D03*
X170000Y577300D02*
D03*
X392700Y0D02*
D03*
X67300Y325000D02*
D03*
Y295000D02*
D03*
D82*
X170000Y602700D02*
D03*
D83*
X320000Y536000D02*
D03*
Y594000D02*
D03*
Y524000D02*
D03*
Y606000D02*
D03*
D84*
X10000Y610000D02*
D03*
Y510000D02*
D03*
X62000Y645000D02*
D03*
Y545000D02*
D03*
M02*
