G04*
G04 #@! TF.GenerationSoftware,Altium Limited,Altium Designer,25.8.1 (18)*
G04*
G04 Layer_Physical_Order=4*
G04 Layer_Color=16711680*
%FSLAX44Y44*%
%MOMM*%
G71*
G04*
G04 #@! TF.SameCoordinates,7D67BA09-2431-4C98-8CAE-14AC2A5FFEDF*
G04*
G04*
G04 #@! TF.FilePolarity,Positive*
G04*
G01*
G75*
%ADD11C,0.2500*%
%ADD14C,0.2000*%
%ADD20R,0.6725X0.7154*%
G04:AMPARAMS|DCode=24|XSize=0.95mm|YSize=0.8mm|CornerRadius=0.1mm|HoleSize=0mm|Usage=FLASHONLY|Rotation=180.000|XOffset=0mm|YOffset=0mm|HoleType=Round|Shape=RoundedRectangle|*
%AMROUNDEDRECTD24*
21,1,0.9500,0.6000,0,0,180.0*
21,1,0.7500,0.8000,0,0,180.0*
1,1,0.2000,-0.3750,0.3000*
1,1,0.2000,0.3750,0.3000*
1,1,0.2000,0.3750,-0.3000*
1,1,0.2000,-0.3750,-0.3000*
%
%ADD24ROUNDEDRECTD24*%
%ADD25R,1.4562X1.2546*%
G04:AMPARAMS|DCode=27|XSize=0.95mm|YSize=0.8mm|CornerRadius=0.1mm|HoleSize=0mm|Usage=FLASHONLY|Rotation=270.000|XOffset=0mm|YOffset=0mm|HoleType=Round|Shape=RoundedRectangle|*
%AMROUNDEDRECTD27*
21,1,0.9500,0.6000,0,0,270.0*
21,1,0.7500,0.8000,0,0,270.0*
1,1,0.2000,-0.3000,-0.3750*
1,1,0.2000,-0.3000,0.3750*
1,1,0.2000,0.3000,0.3750*
1,1,0.2000,0.3000,-0.3750*
%
%ADD27ROUNDEDRECTD27*%
%ADD57C,1.5748*%
G04:AMPARAMS|DCode=58|XSize=3.2mm|YSize=1.6mm|CornerRadius=0.8mm|HoleSize=0mm|Usage=FLASHONLY|Rotation=90.000|XOffset=0mm|YOffset=0mm|HoleType=Round|Shape=RoundedRectangle|*
%AMROUNDEDRECTD58*
21,1,3.2000,0.0000,0,0,90.0*
21,1,1.6000,1.6000,0,0,90.0*
1,1,1.6000,0.0000,0.8000*
1,1,1.6000,0.0000,-0.8000*
1,1,1.6000,0.0000,-0.8000*
1,1,1.6000,0.0000,0.8000*
%
%ADD58ROUNDEDRECTD58*%
G04:AMPARAMS|DCode=59|XSize=1.6mm|YSize=3.2mm|CornerRadius=0.8mm|HoleSize=0mm|Usage=FLASHONLY|Rotation=90.000|XOffset=0mm|YOffset=0mm|HoleType=Round|Shape=RoundedRectangle|*
%AMROUNDEDRECTD59*
21,1,1.6000,1.6000,0,0,90.0*
21,1,0.0000,3.2000,0,0,90.0*
1,1,1.6000,0.8000,0.0000*
1,1,1.6000,0.8000,0.0000*
1,1,1.6000,-0.8000,0.0000*
1,1,1.6000,-0.8000,0.0000*
%
%ADD59ROUNDEDRECTD59*%
%ADD60C,1.5700*%
%ADD64R,1.3100X1.3100*%
%ADD66C,1.3100*%
%ADD68R,1.6000X3.2000*%
%ADD70C,0.2174*%
%ADD75C,0.5000*%
%ADD76C,5.0000*%
%ADD77C,2.5500*%
%ADD78C,2.1000*%
%ADD79C,1.2000*%
%ADD80R,1.4000X1.4000*%
%ADD81C,1.4000*%
%ADD82R,1.4000X1.4000*%
%ADD83C,0.6600*%
%ADD85R,1.2546X1.4562*%
G04:AMPARAMS|DCode=86|XSize=0.95mm|YSize=0.8mm|CornerRadius=0.1mm|HoleSize=0mm|Usage=FLASHONLY|Rotation=135.000|XOffset=0mm|YOffset=0mm|HoleType=Round|Shape=RoundedRectangle|*
%AMROUNDEDRECTD86*
21,1,0.9500,0.6000,0,0,135.0*
21,1,0.7500,0.8000,0,0,135.0*
1,1,0.2000,-0.0530,0.4773*
1,1,0.2000,0.4773,-0.0530*
1,1,0.2000,0.0530,-0.4773*
1,1,0.2000,-0.4773,0.0530*
%
%ADD86ROUNDEDRECTD86*%
%ADD87R,1.2000X1.4000*%
%ADD88R,1.0000X0.7000*%
G04:AMPARAMS|DCode=89|XSize=0.95mm|YSize=0.8mm|CornerRadius=0.1mm|HoleSize=0mm|Usage=FLASHONLY|Rotation=45.000|XOffset=0mm|YOffset=0mm|HoleType=Round|Shape=RoundedRectangle|*
%AMROUNDEDRECTD89*
21,1,0.9500,0.6000,0,0,45.0*
21,1,0.7500,0.8000,0,0,45.0*
1,1,0.2000,0.4773,0.0530*
1,1,0.2000,-0.0530,-0.4773*
1,1,0.2000,-0.4773,-0.0530*
1,1,0.2000,0.0530,0.4773*
%
%ADD89ROUNDEDRECTD89*%
%ADD90P,6.6468X4X270.0*%
%ADD91R,0.6500X2.6500*%
G04:AMPARAMS|DCode=92|XSize=0.25mm|YSize=0.95mm|CornerRadius=0mm|HoleSize=0mm|Usage=FLASHONLY|Rotation=225.000|XOffset=0mm|YOffset=0mm|HoleType=Round|Shape=Round|*
%AMOVALD92*
21,1,0.7000,0.2500,0.0000,0.0000,315.0*
1,1,0.2500,-0.2475,0.2475*
1,1,0.2500,0.2475,-0.2475*
%
%ADD92OVALD92*%

G04:AMPARAMS|DCode=93|XSize=0.25mm|YSize=0.95mm|CornerRadius=0mm|HoleSize=0mm|Usage=FLASHONLY|Rotation=135.000|XOffset=0mm|YOffset=0mm|HoleType=Round|Shape=Round|*
%AMOVALD93*
21,1,0.7000,0.2500,0.0000,0.0000,225.0*
1,1,0.2500,0.2475,0.2475*
1,1,0.2500,-0.2475,-0.2475*
%
%ADD93OVALD93*%

G04:AMPARAMS|DCode=94|XSize=0.7154mm|YSize=0.6725mm|CornerRadius=0mm|HoleSize=0mm|Usage=FLASHONLY|Rotation=45.000|XOffset=0mm|YOffset=0mm|HoleType=Round|Shape=Rectangle|*
%AMROTATEDRECTD94*
4,1,4,-0.0152,-0.4907,-0.4907,-0.0152,0.0152,0.4907,0.4907,0.0152,-0.0152,-0.4907,0.0*
%
%ADD94ROTATEDRECTD94*%

G04:AMPARAMS|DCode=95|XSize=0.7154mm|YSize=0.6725mm|CornerRadius=0mm|HoleSize=0mm|Usage=FLASHONLY|Rotation=315.000|XOffset=0mm|YOffset=0mm|HoleType=Round|Shape=Rectangle|*
%AMROTATEDRECTD95*
4,1,4,-0.4907,0.0152,-0.0152,0.4907,0.4907,-0.0152,0.0152,-0.4907,-0.4907,0.0152,0.0*
%
%ADD95ROTATEDRECTD95*%

G04:AMPARAMS|DCode=96|XSize=0.64mm|YSize=1.02mm|CornerRadius=0mm|HoleSize=0mm|Usage=FLASHONLY|Rotation=135.000|XOffset=0mm|YOffset=0mm|HoleType=Round|Shape=Rectangle|*
%AMROTATEDRECTD96*
4,1,4,0.5869,0.1343,-0.1343,-0.5869,-0.5869,-0.1343,0.1343,0.5869,0.5869,0.1343,0.0*
%
%ADD96ROTATEDRECTD96*%

G04:AMPARAMS|DCode=97|XSize=0.64mm|YSize=1.02mm|CornerRadius=0mm|HoleSize=0mm|Usage=FLASHONLY|Rotation=225.000|XOffset=0mm|YOffset=0mm|HoleType=Round|Shape=Rectangle|*
%AMROTATEDRECTD97*
4,1,4,-0.1343,0.5869,0.5869,-0.1343,0.1343,-0.5869,-0.5869,0.1343,-0.1343,0.5869,0.0*
%
%ADD97ROTATEDRECTD97*%

%ADD98R,1.0200X0.6400*%
%ADD99R,0.9100X1.2200*%
%ADD100C,0.3421*%
G36*
X720000Y757961D02*
X722488D01*
X727422Y757311D01*
X732228Y756023D01*
X736826Y754119D01*
X741135Y751631D01*
X745083Y748602D01*
X748602Y745083D01*
X751631Y741135D01*
X754119Y736826D01*
X756023Y732228D01*
X757311Y727422D01*
X757961Y722488D01*
X757961Y720000D01*
X757961Y-0D01*
X757961Y-2488D01*
X757311Y-7422D01*
X756023Y-12228D01*
X754119Y-16826D01*
X751631Y-21135D01*
X748602Y-25083D01*
X745083Y-28602D01*
X741135Y-31631D01*
X736826Y-34119D01*
X732228Y-36023D01*
X727422Y-37311D01*
X722488Y-37961D01*
X720000D01*
X0Y-37961D01*
X-2488D01*
X-7422Y-37311D01*
X-12228Y-36023D01*
X-16826Y-34119D01*
X-21135Y-31631D01*
X-25083Y-28602D01*
X-28602Y-25083D01*
X-31631Y-21135D01*
X-34119Y-16826D01*
X-36023Y-12228D01*
X-37311Y-7422D01*
X-37961Y-2488D01*
X-37961Y0D01*
X-37961Y720000D01*
Y722488D01*
X-37311Y727422D01*
X-36023Y732228D01*
X-34119Y736826D01*
X-31631Y741135D01*
X-28602Y745083D01*
X-25083Y748602D01*
X-21135Y751631D01*
X-16826Y754119D01*
X-12228Y756023D01*
X-7422Y757311D01*
X-2488Y757961D01*
X0Y757961D01*
X720000Y757961D01*
D02*
G37*
%LPC*%
G36*
X722168Y747540D02*
X721270D01*
Y721270D01*
X747540D01*
Y722168D01*
X746862Y726449D01*
X745522Y730572D01*
X743554Y734434D01*
X741006Y737941D01*
X737941Y741006D01*
X734434Y743554D01*
X730572Y745522D01*
X726449Y746862D01*
X722168Y747540D01*
D02*
G37*
G36*
X718730D02*
X717832D01*
X713551Y746862D01*
X709428Y745522D01*
X705566Y743554D01*
X702059Y741006D01*
X698994Y737941D01*
X696446Y734434D01*
X694478Y730572D01*
X693138Y726449D01*
X692460Y722168D01*
Y721270D01*
X718730D01*
Y747540D01*
D02*
G37*
G36*
X2167D02*
X1270D01*
Y721270D01*
X27540D01*
Y722168D01*
X26862Y726449D01*
X25522Y730572D01*
X23554Y734434D01*
X21006Y737941D01*
X17941Y741006D01*
X14434Y743554D01*
X10572Y745522D01*
X6449Y746862D01*
X2167Y747540D01*
D02*
G37*
G36*
X-1270D02*
X-2167D01*
X-6449Y746862D01*
X-10572Y745522D01*
X-14434Y743554D01*
X-17941Y741006D01*
X-21006Y737941D01*
X-23554Y734434D01*
X-25522Y730572D01*
X-26862Y726449D01*
X-27540Y722168D01*
Y721270D01*
X-1270D01*
Y747540D01*
D02*
G37*
G36*
X747540Y718730D02*
X721270D01*
Y692460D01*
X722168D01*
X726449Y693138D01*
X730572Y694478D01*
X734434Y696446D01*
X737941Y698994D01*
X741006Y702059D01*
X743554Y705566D01*
X745522Y709428D01*
X746862Y713551D01*
X747540Y717832D01*
Y718730D01*
D02*
G37*
G36*
X718730D02*
X692460D01*
Y717832D01*
X693138Y713551D01*
X694478Y709428D01*
X696446Y705566D01*
X698994Y702059D01*
X702059Y698994D01*
X705566Y696446D01*
X709428Y694478D01*
X713551Y693138D01*
X717832Y692460D01*
X718730D01*
Y718730D01*
D02*
G37*
G36*
X27540D02*
X1270D01*
Y692460D01*
X2167D01*
X6449Y693138D01*
X10572Y694478D01*
X14434Y696446D01*
X17941Y698994D01*
X21006Y702059D01*
X23554Y705566D01*
X25522Y709428D01*
X26862Y713551D01*
X27540Y717832D01*
Y718730D01*
D02*
G37*
G36*
X-1270D02*
X-27540D01*
Y717832D01*
X-26862Y713551D01*
X-25522Y709428D01*
X-23554Y705566D01*
X-21006Y702059D01*
X-17941Y698994D01*
X-14434Y696446D01*
X-10572Y694478D01*
X-6449Y693138D01*
X-2167Y692460D01*
X-1270D01*
Y718730D01*
D02*
G37*
G36*
X655796Y686500D02*
X654204D01*
X652734Y685891D01*
X651609Y684766D01*
X651000Y683296D01*
Y681704D01*
X651609Y680234D01*
X652734Y679109D01*
X654204Y678500D01*
X655796D01*
X657266Y679109D01*
X658391Y680234D01*
X659000Y681704D01*
Y683296D01*
X658391Y684766D01*
X657266Y685891D01*
X655796Y686500D01*
D02*
G37*
G36*
X481167Y688866D02*
X478833D01*
X476578Y688262D01*
X474556Y687095D01*
X472905Y685444D01*
X471738Y683422D01*
X471134Y681167D01*
Y678833D01*
X471738Y676578D01*
X472905Y674556D01*
X474556Y672905D01*
X476578Y671738D01*
X478833Y671134D01*
X481167D01*
X483422Y671738D01*
X485444Y672905D01*
X487095Y674556D01*
X488262Y676578D01*
X488866Y678833D01*
Y681167D01*
X488262Y683422D01*
X487095Y685444D01*
X485444Y687095D01*
X483422Y688262D01*
X481167Y688866D01*
D02*
G37*
G36*
X185796Y666500D02*
X184204D01*
X182734Y665891D01*
X182124Y665281D01*
X180954Y665203D01*
X180813Y665297D01*
X180287Y665649D01*
X179500Y665806D01*
X173500D01*
X172713Y665649D01*
X172047Y665203D01*
X171601Y664537D01*
X171444Y663750D01*
Y657102D01*
X169244Y654901D01*
X168453Y655428D01*
X168406Y655500D01*
X168556Y656250D01*
Y659492D01*
X164008D01*
Y654194D01*
X166500D01*
X167250Y654344D01*
X167322Y654297D01*
X167849Y653506D01*
X161499Y647156D01*
X157200D01*
X157001Y647116D01*
X148084D01*
Y632884D01*
X159216D01*
Y643045D01*
X162350D01*
X162350Y643045D01*
X163137Y643201D01*
X163803Y643646D01*
X174351Y654194D01*
X179500D01*
X180287Y654351D01*
X180953Y654797D01*
X181399Y655463D01*
X181556Y656250D01*
Y658851D01*
X182572Y659272D01*
X182734Y659109D01*
X184204Y658500D01*
X185796D01*
X187266Y659109D01*
X188391Y660234D01*
X189000Y661704D01*
Y663296D01*
X188391Y664766D01*
X187266Y665891D01*
X185796Y666500D01*
D02*
G37*
G36*
X166500Y665806D02*
X164008D01*
Y660508D01*
X168556D01*
Y663750D01*
X168399Y664537D01*
X167953Y665203D01*
X167287Y665649D01*
X166500Y665806D01*
D02*
G37*
G36*
X162992D02*
X160500D01*
X159713Y665649D01*
X159046Y665203D01*
X158601Y664537D01*
X158444Y663750D01*
Y660508D01*
X162992D01*
Y665806D01*
D02*
G37*
G36*
X430796Y681500D02*
X429204D01*
X427734Y680891D01*
X426609Y679766D01*
X426000Y678296D01*
Y676704D01*
X426609Y675234D01*
X427464Y674379D01*
X427636Y673750D01*
X427464Y673121D01*
X426609Y672266D01*
X426000Y670796D01*
Y669204D01*
X426609Y667734D01*
X427464Y666879D01*
X427636Y666250D01*
X427464Y665621D01*
X426609Y664766D01*
X426000Y663296D01*
Y661704D01*
X426609Y660234D01*
X427734Y659109D01*
X429204Y658500D01*
X430796D01*
X432266Y659109D01*
X433391Y660234D01*
X434000Y661704D01*
Y663296D01*
X433391Y664766D01*
X432536Y665621D01*
X432364Y666250D01*
X432536Y666879D01*
X433391Y667734D01*
X434000Y669204D01*
Y670796D01*
X433391Y672266D01*
X432536Y673121D01*
X432364Y673750D01*
X432536Y674379D01*
X433391Y675234D01*
X434000Y676704D01*
Y678296D01*
X433391Y679766D01*
X432266Y680891D01*
X430796Y681500D01*
D02*
G37*
G36*
X162992Y659492D02*
X158444D01*
Y656250D01*
X158601Y655463D01*
X159046Y654797D01*
X159713Y654351D01*
X160500Y654194D01*
X162992D01*
Y659492D01*
D02*
G37*
G36*
X628296Y654000D02*
X626704D01*
X625234Y653391D01*
X624109Y652266D01*
X624022Y652056D01*
X617500D01*
X616713Y651899D01*
X616046Y651453D01*
X616046Y651453D01*
X612165Y647571D01*
X273751D01*
X273751Y647571D01*
X272964Y647415D01*
X272297Y646970D01*
X243031Y617703D01*
X242585Y617036D01*
X242428Y616249D01*
X242428Y616249D01*
Y507836D01*
X71649Y337056D01*
X64549D01*
X63763Y336899D01*
X63096Y336454D01*
X63096Y336453D01*
X56831Y330188D01*
X56385Y329521D01*
X56228Y328735D01*
X56228Y328734D01*
Y304016D01*
X56228Y304016D01*
X56385Y303229D01*
X56831Y302563D01*
X60368Y299025D01*
X59830Y298094D01*
X59284Y296055D01*
Y293945D01*
X59830Y291906D01*
X60886Y290078D01*
X62378Y288586D01*
X64206Y287530D01*
X66245Y286984D01*
X68355D01*
X70394Y287530D01*
X72222Y288586D01*
X73714Y290078D01*
X74770Y291906D01*
X75316Y293945D01*
Y296055D01*
X74770Y298094D01*
X73714Y299922D01*
X72222Y301414D01*
X70394Y302470D01*
X68355Y303016D01*
X66245D01*
X64206Y302470D01*
X63275Y301932D01*
X60339Y304867D01*
Y319187D01*
X61356Y319608D01*
X62378Y318586D01*
X64206Y317530D01*
X66245Y316984D01*
X68355D01*
X70394Y317530D01*
X72222Y318586D01*
X73714Y320078D01*
X74770Y321906D01*
X75316Y323945D01*
Y326055D01*
X74770Y328094D01*
X74232Y329025D01*
X248953Y503746D01*
X248953Y503747D01*
X249399Y504413D01*
X249555Y505200D01*
X249555Y505200D01*
Y614149D01*
X275851Y640444D01*
X616522D01*
X616609Y640234D01*
X617734Y639109D01*
X619204Y638500D01*
X620796D01*
X622266Y639109D01*
X623391Y640234D01*
X624000Y641704D01*
Y643296D01*
X623391Y644766D01*
X622266Y645891D01*
X620796Y646500D01*
X619204D01*
X617734Y645891D01*
X617017Y646610D01*
X618351Y647944D01*
X624022D01*
X624109Y647734D01*
X625234Y646609D01*
X626704Y646000D01*
X628296D01*
X629766Y646609D01*
X630891Y647734D01*
X631500Y649204D01*
Y650796D01*
X630891Y652266D01*
X629766Y653391D01*
X628296Y654000D01*
D02*
G37*
G36*
X63170Y653890D02*
X60830D01*
X58569Y653284D01*
X56541Y652114D01*
X54886Y650459D01*
X53716Y648431D01*
X53110Y646170D01*
Y643830D01*
X53716Y641569D01*
X54886Y639541D01*
X56541Y637886D01*
X58569Y636716D01*
X60830Y636110D01*
X63170D01*
X65431Y636716D01*
X67459Y637886D01*
X69114Y639541D01*
X70284Y641569D01*
X70890Y643830D01*
Y646170D01*
X70284Y648431D01*
X69114Y650459D01*
X67459Y652114D01*
X65431Y653284D01*
X63170Y653890D01*
D02*
G37*
G36*
X191916Y647116D02*
X180784D01*
Y632884D01*
X191916D01*
Y636100D01*
X192932Y636527D01*
X194204Y636000D01*
X195796D01*
X197266Y636609D01*
X198391Y637734D01*
X199000Y639204D01*
Y640796D01*
X198391Y642266D01*
X197266Y643391D01*
X195796Y644000D01*
X194204D01*
X192932Y643473D01*
X191916Y643900D01*
Y647116D01*
D02*
G37*
G36*
X403296Y629000D02*
X401704D01*
X400234Y628391D01*
X399379Y627536D01*
X398750Y627364D01*
X398121Y627536D01*
X397266Y628391D01*
X395796Y629000D01*
X394204D01*
X392734Y628391D01*
X391879Y627536D01*
X391250Y627364D01*
X390621Y627536D01*
X389766Y628391D01*
X388296Y629000D01*
X386704D01*
X385234Y628391D01*
X384109Y627266D01*
X383500Y625796D01*
Y624204D01*
X384109Y622734D01*
X385234Y621609D01*
X386704Y621000D01*
X388296D01*
X389766Y621609D01*
X390621Y622464D01*
X391250Y622636D01*
X391879Y622464D01*
X392734Y621609D01*
X394204Y621000D01*
X395796D01*
X397266Y621609D01*
X398121Y622464D01*
X398750Y622636D01*
X399379Y622464D01*
X400234Y621609D01*
X401704Y621000D01*
X403296D01*
X404766Y621609D01*
X405891Y622734D01*
X406500Y624204D01*
Y625796D01*
X405891Y627266D01*
X404766Y628391D01*
X403296Y629000D01*
D02*
G37*
G36*
X713296D02*
X711704D01*
X710234Y628391D01*
X709109Y627266D01*
X708500Y625796D01*
Y624204D01*
X709109Y622734D01*
X710234Y621609D01*
X711704Y621000D01*
X713296D01*
X714766Y621609D01*
X715891Y622734D01*
X716500Y624204D01*
Y625796D01*
X715891Y627266D01*
X714766Y628391D01*
X713296Y629000D01*
D02*
G37*
G36*
X11170Y618890D02*
X10508D01*
Y610508D01*
X18890D01*
Y611170D01*
X18284Y613431D01*
X17114Y615459D01*
X15459Y617114D01*
X13431Y618284D01*
X11170Y618890D01*
D02*
G37*
G36*
X9492D02*
X8830D01*
X6569Y618284D01*
X4541Y617114D01*
X2886Y615459D01*
X1716Y613431D01*
X1110Y611170D01*
Y610508D01*
X9492D01*
Y618890D01*
D02*
G37*
G36*
X273296Y611500D02*
X271704D01*
X270234Y610891D01*
X269379Y610036D01*
X268750Y609864D01*
X268121Y610036D01*
X267266Y610891D01*
X265796Y611500D01*
X264204D01*
X262734Y610891D01*
X261879Y610036D01*
X261250Y609864D01*
X260621Y610036D01*
X259766Y610891D01*
X258296Y611500D01*
X256704D01*
X255234Y610891D01*
X254109Y609766D01*
X253500Y608296D01*
Y606704D01*
X254109Y605234D01*
X255234Y604109D01*
X256704Y603500D01*
X258296D01*
X259766Y604109D01*
X260621Y604964D01*
X261250Y605136D01*
X261879Y604964D01*
X262734Y604109D01*
X264204Y603500D01*
X265796D01*
X267266Y604109D01*
X268121Y604964D01*
X268750Y605136D01*
X269379Y604964D01*
X270234Y604109D01*
X271704Y603500D01*
X273296D01*
X274766Y604109D01*
X275891Y605234D01*
X276500Y606704D01*
Y608296D01*
X275891Y609766D01*
X274766Y610891D01*
X273296Y611500D01*
D02*
G37*
G36*
X121167Y618866D02*
X118833D01*
X116578Y618262D01*
X114556Y617095D01*
X112905Y615444D01*
X111738Y613422D01*
X111134Y611167D01*
Y608833D01*
X111738Y606578D01*
X112905Y604556D01*
X114556Y602905D01*
X116578Y601738D01*
X118833Y601134D01*
X121167D01*
X123422Y601738D01*
X125444Y602905D01*
X127095Y604556D01*
X128262Y606578D01*
X128866Y608833D01*
Y611167D01*
X128262Y613422D01*
X127095Y615444D01*
X125444Y617095D01*
X123422Y618262D01*
X121167Y618866D01*
D02*
G37*
G36*
X481167Y618866D02*
X478833D01*
X476578Y618262D01*
X474556Y617094D01*
X472905Y615444D01*
X471738Y613422D01*
X471134Y611167D01*
Y608833D01*
X471738Y606578D01*
X472905Y604556D01*
X474556Y602905D01*
X476578Y601738D01*
X478833Y601134D01*
X481167D01*
X483422Y601738D01*
X485444Y602905D01*
X487095Y604556D01*
X488262Y606578D01*
X488866Y608833D01*
Y611167D01*
X488262Y613422D01*
X487095Y615444D01*
X485444Y617094D01*
X483422Y618262D01*
X481167Y618866D01*
D02*
G37*
G36*
X18890Y609492D02*
X10508D01*
Y601110D01*
X11170D01*
X13431Y601716D01*
X15459Y602886D01*
X17114Y604541D01*
X18284Y606569D01*
X18890Y608830D01*
Y609492D01*
D02*
G37*
G36*
X9492D02*
X1110D01*
Y608830D01*
X1716Y606569D01*
X2886Y604541D01*
X4541Y602886D01*
X6569Y601716D01*
X8830Y601110D01*
X9492D01*
Y609492D01*
D02*
G37*
G36*
X178016Y610716D02*
X161984D01*
Y594684D01*
X178016D01*
Y610716D01*
D02*
G37*
G36*
X171055Y585316D02*
X168945D01*
X166906Y584770D01*
X165078Y583714D01*
X163586Y582222D01*
X162530Y580394D01*
X161984Y578355D01*
Y576245D01*
X162530Y574206D01*
X163586Y572378D01*
X165078Y570886D01*
X166906Y569830D01*
X168945Y569284D01*
X171055D01*
X173094Y569830D01*
X174922Y570886D01*
X176414Y572378D01*
X177470Y574206D01*
X178016Y576245D01*
Y578355D01*
X177470Y580394D01*
X176414Y582222D01*
X174922Y583714D01*
X173094Y584770D01*
X171055Y585316D01*
D02*
G37*
G36*
X616527Y567571D02*
X616527Y567571D01*
X588751D01*
X588751Y567571D01*
X587964Y567415D01*
X587297Y566969D01*
X587297Y566969D01*
X527038Y506711D01*
X526593Y506044D01*
X526437Y505257D01*
X526437Y505257D01*
Y474810D01*
X525796Y474000D01*
X524204D01*
X522734Y473391D01*
X521609Y472266D01*
X521000Y470796D01*
Y469204D01*
X521609Y467734D01*
X522734Y466609D01*
X524204Y466000D01*
X525796D01*
X527266Y466609D01*
X528391Y467734D01*
X529000Y469204D01*
Y470796D01*
X529849Y471397D01*
X530151D01*
X530362Y471248D01*
X531000Y470507D01*
Y469204D01*
X531609Y467734D01*
X532734Y466609D01*
X534204Y466000D01*
X535796D01*
X537266Y466609D01*
X538391Y467734D01*
X539000Y469204D01*
Y470796D01*
X538391Y472266D01*
X537266Y473391D01*
X535796Y474000D01*
X534204D01*
X533563Y474810D01*
Y503157D01*
X590851Y560444D01*
X614427D01*
X629855Y545016D01*
X629434Y544000D01*
X629204D01*
X627734Y543391D01*
X626609Y542266D01*
X626000Y540796D01*
Y539204D01*
X626609Y537734D01*
X627734Y536609D01*
X629204Y536000D01*
X630796D01*
X632266Y536609D01*
X633391Y537734D01*
X634000Y539204D01*
Y540703D01*
X634354Y540936D01*
X635006Y541176D01*
X635152Y541078D01*
X636000Y540230D01*
Y539204D01*
X636609Y537734D01*
X637734Y536609D01*
X639204Y536000D01*
X640796D01*
X642266Y536609D01*
X643391Y537734D01*
X644000Y539204D01*
Y540796D01*
X643391Y542266D01*
X642266Y543391D01*
X640796Y544000D01*
X639204D01*
X638384Y543660D01*
X637962Y544083D01*
X637816Y544180D01*
X637343Y544652D01*
Y546755D01*
X637343Y546755D01*
X637187Y547542D01*
X636741Y548209D01*
X617981Y566969D01*
X617314Y567415D01*
X617183Y567441D01*
X616527Y567571D01*
D02*
G37*
G36*
X185796Y566500D02*
X184204D01*
X182734Y565891D01*
X182124Y565281D01*
X180954Y565204D01*
X180813Y565297D01*
X180287Y565649D01*
X179500Y565806D01*
X173500D01*
X172713Y565649D01*
X172047Y565204D01*
X171601Y564537D01*
X171444Y563750D01*
Y557102D01*
X169244Y554901D01*
X168453Y555428D01*
X168406Y555500D01*
X168556Y556250D01*
Y559492D01*
X164008D01*
Y554194D01*
X166500D01*
X167250Y554344D01*
X167322Y554297D01*
X167849Y553506D01*
X161499Y547155D01*
X157200D01*
X157001Y547116D01*
X148084D01*
Y532884D01*
X159216D01*
Y543045D01*
X162350D01*
X162350Y543045D01*
X163137Y543201D01*
X163803Y543647D01*
X174351Y554194D01*
X179500D01*
X180287Y554351D01*
X180953Y554796D01*
X181399Y555463D01*
X181556Y556250D01*
Y558851D01*
X182572Y559272D01*
X182734Y559109D01*
X184204Y558500D01*
X185796D01*
X187266Y559109D01*
X188391Y560234D01*
X189000Y561704D01*
Y563296D01*
X188391Y564766D01*
X187266Y565891D01*
X185796Y566500D01*
D02*
G37*
G36*
X121167Y578866D02*
X118833D01*
X116578Y578262D01*
X114556Y577095D01*
X112905Y575444D01*
X111738Y573422D01*
X111134Y571167D01*
Y568833D01*
X111738Y566578D01*
X112905Y564556D01*
X114556Y562905D01*
X116578Y561738D01*
X118833Y561134D01*
X121167D01*
X123422Y561738D01*
X125444Y562905D01*
X127095Y564556D01*
X128262Y566578D01*
X128866Y568833D01*
Y571167D01*
X128262Y573422D01*
X127095Y575444D01*
X125444Y577095D01*
X123422Y578262D01*
X121167Y578866D01*
D02*
G37*
G36*
X166500Y565806D02*
X164008D01*
Y560508D01*
X168556D01*
Y563750D01*
X168399Y564537D01*
X167953Y565204D01*
X167287Y565649D01*
X166500Y565806D01*
D02*
G37*
G36*
X162992D02*
X160500D01*
X159713Y565649D01*
X159046Y565204D01*
X158601Y564537D01*
X158444Y563750D01*
Y560508D01*
X162992D01*
Y565806D01*
D02*
G37*
G36*
X368296Y559000D02*
X366704D01*
X365234Y558391D01*
X364379Y557536D01*
X363750Y557364D01*
X363121Y557536D01*
X362266Y558391D01*
X360796Y559000D01*
X359204D01*
X357734Y558391D01*
X356879Y557536D01*
X356250Y557364D01*
X355621Y557536D01*
X354766Y558391D01*
X353296Y559000D01*
X351704D01*
X350234Y558391D01*
X349109Y557266D01*
X348500Y555796D01*
Y554204D01*
X349109Y552734D01*
X350234Y551609D01*
X351704Y551000D01*
X353296D01*
X354766Y551609D01*
X355621Y552464D01*
X356250Y552636D01*
X356879Y552464D01*
X357734Y551609D01*
X359204Y551000D01*
X360796D01*
X362266Y551609D01*
X363121Y552464D01*
X363750Y552636D01*
X364379Y552464D01*
X365234Y551609D01*
X366704Y551000D01*
X368296D01*
X369766Y551609D01*
X370891Y552734D01*
X371500Y554204D01*
Y555796D01*
X370891Y557266D01*
X369766Y558391D01*
X368296Y559000D01*
D02*
G37*
G36*
X162992Y559492D02*
X158444D01*
Y556250D01*
X158601Y555463D01*
X159046Y554796D01*
X159713Y554351D01*
X160500Y554194D01*
X162992D01*
Y559492D01*
D02*
G37*
G36*
X273296Y541500D02*
X271704D01*
X270234Y540891D01*
X269379Y540036D01*
X268750Y539864D01*
X268121Y540036D01*
X267266Y540891D01*
X265796Y541500D01*
X264204D01*
X262734Y540891D01*
X261879Y540036D01*
X261250Y539864D01*
X260621Y540036D01*
X259766Y540891D01*
X258296Y541500D01*
X256704D01*
X255234Y540891D01*
X254109Y539766D01*
X253500Y538296D01*
Y536704D01*
X254109Y535234D01*
X255234Y534109D01*
X256704Y533500D01*
X258296D01*
X259766Y534109D01*
X260621Y534964D01*
X261250Y535136D01*
X261879Y534964D01*
X262734Y534109D01*
X264204Y533500D01*
X265796D01*
X267266Y534109D01*
X268121Y534964D01*
X268750Y535136D01*
X269379Y534964D01*
X270234Y534109D01*
X271704Y533500D01*
X273296D01*
X273506Y533587D01*
X354445Y452649D01*
Y405806D01*
X353500D01*
X352713Y405649D01*
X352047Y405204D01*
X351601Y404537D01*
X351445Y403750D01*
Y396250D01*
X351594Y395500D01*
X351547Y395428D01*
X350756Y394901D01*
X348555Y397102D01*
Y403750D01*
X348399Y404537D01*
X347953Y405204D01*
X347287Y405649D01*
X346500Y405806D01*
X340500D01*
X339713Y405649D01*
X339047Y405204D01*
X338601Y404537D01*
X338445Y403750D01*
Y402056D01*
X336555D01*
Y403750D01*
X336399Y404537D01*
X335953Y405204D01*
X335287Y405649D01*
X334500Y405806D01*
X328500D01*
X327713Y405649D01*
X327047Y405204D01*
X326601Y404537D01*
X326445Y403750D01*
Y396250D01*
X326601Y395463D01*
X327047Y394797D01*
X327713Y394351D01*
X328500Y394194D01*
X334500D01*
X335287Y394351D01*
X335953Y394797D01*
X336399Y395463D01*
X336555Y396250D01*
Y397944D01*
X338445D01*
Y396250D01*
X338601Y395463D01*
X339047Y394797D01*
X339713Y394351D01*
X340500Y394194D01*
X345649D01*
X357426Y382417D01*
X357349Y381938D01*
X356228Y381321D01*
X355796Y381500D01*
X354204D01*
X352734Y380891D01*
X351879Y380036D01*
X351250Y379864D01*
X350621Y380036D01*
X349766Y380891D01*
X348296Y381500D01*
X346704D01*
X345234Y380891D01*
X344379Y380036D01*
X343750Y379864D01*
X343121Y380036D01*
X342266Y380891D01*
X340796Y381500D01*
X339204D01*
X337734Y380891D01*
X336609Y379766D01*
X336000Y378296D01*
Y376704D01*
X335596Y376100D01*
X325000D01*
X324222Y375778D01*
X322445Y374000D01*
X321704D01*
X320234Y373391D01*
X319379Y372536D01*
X318750Y372364D01*
X318121Y372536D01*
X317266Y373391D01*
X315796Y374000D01*
X314204D01*
X312734Y373391D01*
X311609Y372266D01*
X311000Y370796D01*
Y369204D01*
X311609Y367734D01*
X312734Y366609D01*
X313431Y366320D01*
X314153Y365825D01*
X313939Y365094D01*
X313900Y365000D01*
Y357500D01*
X314222Y356722D01*
X315000Y356400D01*
X323219D01*
X323724Y355785D01*
X323830Y355252D01*
X323775Y355144D01*
X323140Y354510D01*
X323032Y354454D01*
X322499Y354560D01*
X321615Y354384D01*
X320865Y353883D01*
X320365Y353134D01*
X320189Y352250D01*
X320295Y351717D01*
X320239Y351609D01*
X319604Y350974D01*
X319496Y350919D01*
X318964Y351025D01*
X318079Y350849D01*
X317330Y350348D01*
X316829Y349598D01*
X316653Y348714D01*
X316759Y348181D01*
X316704Y348073D01*
X316069Y347439D01*
X315961Y347383D01*
X315428Y347489D01*
X314544Y347313D01*
X313794Y346812D01*
X313293Y346063D01*
X313118Y345179D01*
X313224Y344646D01*
X313168Y344538D01*
X312533Y343903D01*
X312425Y343848D01*
X311893Y343954D01*
X311008Y343778D01*
X310259Y343277D01*
X309758Y342527D01*
X309582Y341643D01*
X309688Y341110D01*
X309632Y341002D01*
X308998Y340368D01*
X308890Y340312D01*
X308357Y340418D01*
X307473Y340242D01*
X306723Y339741D01*
X306222Y338992D01*
X306047Y338108D01*
X306153Y337575D01*
X306097Y337467D01*
X305462Y336832D01*
X305354Y336776D01*
X304821Y336882D01*
X303937Y336707D01*
X303188Y336206D01*
X302687Y335456D01*
X302511Y334572D01*
X302617Y334039D01*
X302561Y333931D01*
X301927Y333297D01*
X301819Y333241D01*
X301286Y333347D01*
X300402Y333171D01*
X299652Y332670D01*
X299151Y331921D01*
X298976Y331036D01*
X299081Y330504D01*
X299026Y330396D01*
X298391Y329761D01*
X298283Y329705D01*
X297750Y329811D01*
X296866Y329636D01*
X296117Y329135D01*
X295616Y328385D01*
X295440Y327501D01*
X295546Y326968D01*
X295490Y326860D01*
X294856Y326225D01*
X294748Y326170D01*
X294215Y326276D01*
X293331Y326100D01*
X292581Y325599D01*
X292080Y324850D01*
X291905Y323965D01*
X292010Y323433D01*
X291955Y323325D01*
X291320Y322690D01*
X291212Y322634D01*
X290679Y322740D01*
X289795Y322564D01*
X289046Y322064D01*
X288545Y321314D01*
X288369Y320430D01*
X288475Y319897D01*
X288419Y319789D01*
X287785Y319154D01*
X287677Y319099D01*
X287144Y319205D01*
X286260Y319029D01*
X285510Y318528D01*
X285009Y317778D01*
X284833Y316894D01*
X285009Y316010D01*
X285510Y315261D01*
X288327Y312444D01*
X288032Y311471D01*
X287244Y311315D01*
X285230Y309969D01*
X282693Y307432D01*
X281517Y305672D01*
X280726Y304881D01*
X279605Y306001D01*
X277895Y306989D01*
X275987Y307500D01*
X274013D01*
X272105Y306989D01*
X270395Y306001D01*
X268999Y304605D01*
X268011Y302895D01*
X267500Y300987D01*
Y299013D01*
X268011Y297105D01*
X268505Y296250D01*
X268011Y295395D01*
X267500Y293487D01*
Y291513D01*
X268011Y289605D01*
X268999Y287895D01*
X270395Y286499D01*
X272105Y285511D01*
X273648Y285098D01*
X274045Y284058D01*
X272031Y282043D01*
X241037D01*
X241001Y282105D01*
X239605Y283501D01*
X237895Y284489D01*
X235987Y285000D01*
X234013D01*
X232105Y284489D01*
X230395Y283501D01*
X228999Y282105D01*
X228011Y280395D01*
X227500Y278487D01*
Y276513D01*
X228011Y274605D01*
X228505Y273750D01*
X228011Y272895D01*
X227500Y270987D01*
Y269013D01*
X228011Y267105D01*
X228999Y265395D01*
X230395Y263999D01*
X232105Y263011D01*
X234013Y262500D01*
X235987D01*
X237895Y263011D01*
X239605Y263999D01*
X241001Y265395D01*
X241037Y265457D01*
X257500D01*
Y262929D01*
X256694Y262311D01*
X255987Y262500D01*
X254013D01*
X252105Y261989D01*
X250395Y261001D01*
X248999Y259605D01*
X248011Y257895D01*
X247500Y255987D01*
Y254013D01*
X248011Y252105D01*
X248505Y251250D01*
X248011Y250395D01*
X247500Y248487D01*
Y246513D01*
X248011Y244605D01*
X248999Y242895D01*
X250395Y241499D01*
X252105Y240511D01*
X254013Y240000D01*
X255987D01*
X256975Y239222D01*
X257004Y238732D01*
X255315Y237043D01*
X221037D01*
X221001Y237105D01*
X219605Y238501D01*
X217895Y239489D01*
X215987Y240000D01*
X214013D01*
X212105Y239489D01*
X210395Y238501D01*
X208999Y237105D01*
X208011Y235395D01*
X207500Y233487D01*
Y231513D01*
X208011Y229605D01*
X208505Y228750D01*
X208011Y227895D01*
X207500Y225987D01*
Y224013D01*
X208011Y222105D01*
X208999Y220395D01*
X210395Y218999D01*
X212105Y218011D01*
X214013Y217500D01*
X215987D01*
X216694Y217689D01*
X217500Y217071D01*
Y214543D01*
X201037D01*
X201001Y214605D01*
X199605Y216001D01*
X197895Y216989D01*
X195987Y217500D01*
X194013D01*
X192105Y216989D01*
X190395Y216001D01*
X188999Y214605D01*
X188011Y212895D01*
X187500Y210987D01*
Y209013D01*
X188011Y207105D01*
X188505Y206250D01*
X188011Y205395D01*
X187500Y203487D01*
Y201513D01*
X188011Y199605D01*
X188999Y197895D01*
X190395Y196499D01*
X192105Y195511D01*
X194013Y195000D01*
X195987D01*
X197895Y195511D01*
X199605Y196499D01*
X201001Y197895D01*
X201037Y197957D01*
X265399D01*
X267774Y198429D01*
X269787Y199774D01*
X315564Y245551D01*
X316560Y245352D01*
X316609Y245234D01*
X317734Y244109D01*
X319204Y243500D01*
X320796D01*
X322266Y244109D01*
X323391Y245234D01*
X324000Y246704D01*
Y248296D01*
X323391Y249766D01*
X322658Y250499D01*
X329873Y257715D01*
X330809Y257214D01*
X330795Y257144D01*
X330971Y256260D01*
X331472Y255510D01*
X332222Y255009D01*
X333106Y254834D01*
X333990Y255009D01*
X334739Y255510D01*
X335761Y256532D01*
X336945Y255348D01*
Y239851D01*
X332149Y235056D01*
X310735D01*
X310735Y235056D01*
X309948Y234899D01*
X309281Y234454D01*
X309281Y234453D01*
X305531Y230703D01*
X305085Y230036D01*
X304928Y229249D01*
X304928Y229249D01*
Y197835D01*
X271165Y164072D01*
X244751D01*
X244751Y164072D01*
X244670Y164056D01*
X101152D01*
X74232Y190975D01*
X74770Y191906D01*
X75316Y193945D01*
Y196055D01*
X74770Y198094D01*
X73714Y199922D01*
X72222Y201414D01*
X70394Y202470D01*
X68355Y203016D01*
X66245D01*
X64206Y202470D01*
X62378Y201414D01*
X61356Y200392D01*
X60339Y200813D01*
Y215133D01*
X63275Y218068D01*
X64206Y217530D01*
X66245Y216984D01*
X68355D01*
X70394Y217530D01*
X72222Y218586D01*
X73714Y220078D01*
X74770Y221906D01*
X75316Y223945D01*
Y226055D01*
X74770Y228094D01*
X73714Y229922D01*
X72222Y231414D01*
X70394Y232470D01*
X68355Y233016D01*
X66245D01*
X64206Y232470D01*
X62378Y231414D01*
X60886Y229922D01*
X59830Y228094D01*
X59284Y226055D01*
Y223945D01*
X59830Y221906D01*
X60368Y220975D01*
X56831Y217437D01*
X56385Y216771D01*
X56228Y215984D01*
X56228Y215984D01*
Y191266D01*
X56228Y191266D01*
X56385Y190479D01*
X56831Y189812D01*
X89112Y157531D01*
X89112Y157530D01*
X89779Y157085D01*
X90566Y156929D01*
X245984D01*
X245984Y156929D01*
X246065Y156945D01*
X274000D01*
X274000Y156945D01*
X274787Y157101D01*
X275453Y157547D01*
X311453Y193547D01*
X311453Y193547D01*
X311899Y194213D01*
X312055Y195000D01*
X312055Y195000D01*
Y227149D01*
X312835Y227929D01*
X334249D01*
X334249Y227929D01*
X335036Y228085D01*
X335703Y228531D01*
X343469Y236297D01*
X343470Y236297D01*
X343915Y236964D01*
X344072Y237751D01*
Y238835D01*
X345088Y239256D01*
X345234Y239109D01*
X346704Y238500D01*
X348296D01*
X349766Y239109D01*
X350621Y239964D01*
X351250Y240136D01*
X351879Y239964D01*
X352734Y239109D01*
X354204Y238500D01*
X355796D01*
X357192Y239079D01*
X357309Y239092D01*
X358302Y238708D01*
X358343Y238500D01*
X345649Y225805D01*
X340500D01*
X339713Y225649D01*
X339047Y225203D01*
X338601Y224537D01*
X338445Y223750D01*
Y222055D01*
X336555D01*
Y223750D01*
X336399Y224537D01*
X335953Y225203D01*
X335287Y225649D01*
X334500Y225805D01*
X328500D01*
X327713Y225649D01*
X327047Y225203D01*
X326601Y224537D01*
X326445Y223750D01*
Y216250D01*
X326601Y215463D01*
X327047Y214797D01*
X327713Y214351D01*
X328500Y214195D01*
X334500D01*
X335287Y214351D01*
X335953Y214797D01*
X336399Y215463D01*
X336555Y216250D01*
Y217945D01*
X338445D01*
Y216250D01*
X338601Y215463D01*
X339047Y214797D01*
X339713Y214351D01*
X340500Y214195D01*
X346500D01*
X347287Y214351D01*
X347953Y214797D01*
X348399Y215463D01*
X348555Y216250D01*
Y222899D01*
X350756Y225099D01*
X351547Y224572D01*
X351594Y224500D01*
X351445Y223750D01*
Y216250D01*
X351601Y215463D01*
X352047Y214797D01*
X352713Y214351D01*
X353500Y214195D01*
X359500D01*
X360287Y214351D01*
X360953Y214797D01*
X361399Y215463D01*
X361555Y216250D01*
Y222899D01*
X366453Y227796D01*
X366454Y227796D01*
X366899Y228463D01*
X367056Y229250D01*
Y252779D01*
X368072Y253200D01*
X374967Y246304D01*
X374758Y245253D01*
Y242036D01*
X375231Y239660D01*
X376576Y237647D01*
X376728Y237495D01*
X378741Y236150D01*
X381116Y235678D01*
X381116Y235118D01*
X381116Y235116D01*
X381169Y234710D01*
X381346Y233364D01*
X382022Y231732D01*
X383098Y230330D01*
X410714Y202714D01*
X412116Y201638D01*
X413748Y200962D01*
X415500Y200732D01*
X597500D01*
X599252Y200962D01*
X600884Y201638D01*
X602286Y202714D01*
X615959Y216387D01*
X616722Y215778D01*
X616400Y215000D01*
X616722Y214222D01*
X626400Y204545D01*
Y180000D01*
X626722Y179222D01*
X627500Y178900D01*
X637500D01*
X638278Y179222D01*
X638600Y180000D01*
Y204545D01*
X647884Y213829D01*
X648900Y213408D01*
Y176100D01*
X645000D01*
X644222Y175778D01*
X643900Y175000D01*
Y173297D01*
X637250D01*
Y165000D01*
Y156703D01*
X643900D01*
Y155000D01*
X644222Y154222D01*
X645000Y153900D01*
X662500D01*
X663278Y154222D01*
X663600Y155000D01*
Y225000D01*
X663278Y225778D01*
X662500Y226100D01*
X650000D01*
X649355Y225832D01*
X649222Y225778D01*
X648278D01*
X648145Y225832D01*
X647500Y226100D01*
X627500D01*
X626722Y225778D01*
X626113Y226541D01*
X665686Y266114D01*
X666762Y267516D01*
X667438Y269148D01*
X667668Y270900D01*
Y281212D01*
X669702Y283246D01*
X671150Y285754D01*
X671900Y288552D01*
Y291448D01*
X671150Y294246D01*
X669702Y296754D01*
X667654Y298802D01*
X665146Y300250D01*
X662348Y301000D01*
X659452D01*
X656654Y300250D01*
X654146Y298802D01*
X652098Y296754D01*
X650650Y294246D01*
X649900Y291448D01*
Y288552D01*
X650650Y285754D01*
X652098Y283246D01*
X654132Y281212D01*
Y273704D01*
X594697Y214268D01*
X418304D01*
X406379Y226193D01*
X406954Y227055D01*
X408152Y226558D01*
X408434Y226521D01*
X408585Y226420D01*
X409374Y226264D01*
X409779Y226344D01*
X409904Y226328D01*
X411656Y226558D01*
X413288Y227235D01*
X414690Y228310D01*
X415765Y229712D01*
X416442Y231344D01*
X416672Y233096D01*
X416656Y233221D01*
X416736Y233626D01*
X416580Y234415D01*
X416479Y234566D01*
X416442Y234848D01*
X415765Y236480D01*
X414690Y237882D01*
X402670Y249902D01*
X401268Y250978D01*
X399636Y251654D01*
X398290Y251831D01*
X397884Y251884D01*
X397882Y251884D01*
X397322Y251884D01*
X396850Y254259D01*
X395505Y256272D01*
X395353Y256424D01*
X393340Y257769D01*
X390965Y258242D01*
X387747D01*
X386696Y258033D01*
X381119Y263609D01*
Y266134D01*
X382266Y266609D01*
X383121Y267464D01*
X383750Y267636D01*
X384379Y267464D01*
X385234Y266609D01*
X386704Y266000D01*
X388296D01*
X389766Y266609D01*
X390891Y267734D01*
X391500Y269204D01*
Y270796D01*
X390891Y272266D01*
X389766Y273391D01*
X389457Y273519D01*
X389164Y274509D01*
X389692Y275497D01*
X393775D01*
X398967Y270304D01*
X398758Y269253D01*
Y266036D01*
X399231Y263661D01*
X400576Y261647D01*
X400728Y261495D01*
X402741Y260150D01*
X405116Y259678D01*
X405116Y259118D01*
X405116Y259116D01*
X405169Y258710D01*
X405346Y257364D01*
X406022Y255732D01*
X407098Y254330D01*
X419118Y242310D01*
X420520Y241235D01*
X422152Y240558D01*
X422435Y240521D01*
X422585Y240420D01*
X423373Y240264D01*
X423779Y240344D01*
X423904Y240328D01*
X425656Y240558D01*
X427288Y241235D01*
X428690Y242310D01*
X429765Y243712D01*
X430442Y245344D01*
X430672Y247096D01*
X430656Y247221D01*
X430736Y247626D01*
X430580Y248415D01*
X430479Y248566D01*
X430442Y248848D01*
X429945Y250046D01*
X430807Y250621D01*
X437564Y243864D01*
X438966Y242788D01*
X440598Y242112D01*
X442350Y241882D01*
X548650D01*
X550402Y242112D01*
X552034Y242788D01*
X553436Y243864D01*
X592804Y283232D01*
X612112D01*
X614146Y281198D01*
X616654Y279750D01*
X619452Y279000D01*
X622348D01*
X625146Y279750D01*
X627654Y281198D01*
X629702Y283246D01*
X631150Y285754D01*
X631900Y288552D01*
Y291448D01*
X631150Y294246D01*
X629702Y296754D01*
X627654Y298802D01*
X625146Y300250D01*
X622348Y301000D01*
X619452D01*
X616654Y300250D01*
X614146Y298802D01*
X612112Y296768D01*
X590000D01*
X588248Y296538D01*
X586616Y295862D01*
X585214Y294786D01*
X546082Y255654D01*
X545942Y255691D01*
X545782Y256694D01*
X545800Y256777D01*
X546100Y257500D01*
Y290000D01*
X545778Y290778D01*
X545000Y291100D01*
X543297D01*
Y297750D01*
X535000D01*
Y298258D01*
X534492D01*
Y305547D01*
X526703D01*
X526703Y305547D01*
Y305547D01*
X525746Y305791D01*
X525000Y306100D01*
X505000D01*
X504222Y305778D01*
X503900Y305000D01*
Y273600D01*
X496100D01*
Y305000D01*
X495778Y305778D01*
X495000Y306100D01*
X482500D01*
X481722Y305778D01*
X481400Y305000D01*
Y257500D01*
X481722Y256722D01*
X482500Y256400D01*
X482418Y255418D01*
X445154D01*
X426670Y273902D01*
X425268Y274978D01*
X423636Y275654D01*
X422290Y275831D01*
X421884Y275884D01*
X421882Y275884D01*
X421322Y275884D01*
X420850Y278259D01*
X419505Y280272D01*
X419353Y280424D01*
X417340Y281769D01*
X414964Y282242D01*
X411747D01*
X410696Y282033D01*
X404723Y288006D01*
X405111Y288944D01*
X413149D01*
X418546Y283547D01*
X418546Y283547D01*
X419213Y283101D01*
X420000Y282945D01*
X420000Y282945D01*
X432649D01*
X438445Y277149D01*
Y271250D01*
X438601Y270463D01*
X439047Y269797D01*
X439713Y269351D01*
X440500Y269195D01*
X446500D01*
X447287Y269351D01*
X447953Y269797D01*
X448399Y270463D01*
X448555Y271250D01*
Y278750D01*
X448399Y279537D01*
X447953Y280203D01*
X447287Y280649D01*
X446500Y280805D01*
X440601D01*
X434953Y286453D01*
X434287Y286899D01*
X433500Y287055D01*
X433500Y287055D01*
X420851D01*
X415453Y292453D01*
X414787Y292899D01*
X414000Y293055D01*
X414000Y293055D01*
X391671D01*
X388300Y296427D01*
X388800Y297363D01*
X389321Y297260D01*
X389993Y297394D01*
X392457Y294930D01*
X392457Y294930D01*
X393124Y294484D01*
X393911Y294328D01*
X393911Y294328D01*
X403728D01*
X403728Y294328D01*
X404514Y294484D01*
X405181Y294930D01*
X416688Y306437D01*
X420622D01*
Y300823D01*
X420622Y300193D01*
X420622Y299177D01*
Y295723D01*
X425000D01*
X429378D01*
Y299177D01*
X429378Y299807D01*
X429378Y300823D01*
Y306437D01*
X433749D01*
X433749Y306437D01*
X434484Y305547D01*
Y290984D01*
X448516D01*
Y307016D01*
X440303D01*
X439695Y307796D01*
X439539Y308583D01*
X439355Y308858D01*
X439849Y309874D01*
X450429D01*
X450429Y309874D01*
X451216Y310030D01*
X451883Y310476D01*
X454391Y312984D01*
X465516D01*
Y329016D01*
X451484D01*
Y315891D01*
X449578Y313985D01*
X448516D01*
Y320492D01*
X441500D01*
X434484D01*
Y314039D01*
X432976D01*
X432976Y314040D01*
X432189Y313883D01*
X431711Y313563D01*
X429378D01*
Y319177D01*
X429378Y319807D01*
X429378Y320823D01*
Y324278D01*
X425000D01*
X420622D01*
Y320823D01*
X420622Y320193D01*
X420622Y319177D01*
Y313563D01*
X414588D01*
X414587Y313563D01*
X413801Y313407D01*
X413134Y312962D01*
X413134Y312961D01*
X401627Y301455D01*
X396012D01*
X395033Y302433D01*
X395167Y303106D01*
X394991Y303990D01*
X394490Y304739D01*
X389900Y309329D01*
X389654Y310000D01*
X389900Y310671D01*
X394068Y314839D01*
X406894D01*
X406894Y314839D01*
X407681Y314995D01*
X408348Y315441D01*
X410287Y317381D01*
X411899D01*
X412670Y316609D01*
X414140Y316000D01*
X415732D01*
X417202Y316609D01*
X418327Y317734D01*
X418936Y319204D01*
Y320796D01*
X418327Y322266D01*
X417202Y323391D01*
X415732Y324000D01*
X414939D01*
X414243Y324151D01*
X414064Y324897D01*
X414585Y325923D01*
X414939Y326000D01*
X415796D01*
X417266Y326609D01*
X418391Y327734D01*
X419000Y329204D01*
Y330796D01*
X418391Y332266D01*
X417266Y333391D01*
X415796Y334000D01*
X414939D01*
X414168Y334168D01*
X414000Y334939D01*
Y335796D01*
X413391Y337266D01*
X412266Y338391D01*
X410796Y339000D01*
X409204D01*
X407734Y338391D01*
X406609Y337266D01*
X406284Y336482D01*
X405426D01*
X404639Y336325D01*
X403973Y335880D01*
X399149Y331055D01*
X397729D01*
X397421Y332071D01*
X398563Y332835D01*
X407196Y341467D01*
X408247Y341258D01*
X411465D01*
X413840Y341731D01*
X415853Y343076D01*
X416005Y343228D01*
X417350Y345241D01*
X417822Y347616D01*
X418382Y347616D01*
X418384Y347616D01*
X418790Y347669D01*
X420136Y347846D01*
X421768Y348522D01*
X423170Y349598D01*
X438154Y364582D01*
X482418D01*
X482500Y363600D01*
X481722Y363278D01*
X481400Y362500D01*
Y315000D01*
X481722Y314222D01*
X482500Y313900D01*
X495000D01*
X495778Y314222D01*
X496100Y315000D01*
Y346400D01*
X503900D01*
Y315000D01*
X504222Y314222D01*
X505000Y313900D01*
X525000D01*
X525778Y314222D01*
X525780Y314228D01*
X526703Y314453D01*
X526703Y314453D01*
X534492D01*
Y321742D01*
X535000D01*
Y322250D01*
X543297D01*
Y328900D01*
X545000D01*
X545778Y329222D01*
X546100Y330000D01*
Y362500D01*
X545800Y363223D01*
X545782Y363306D01*
X545942Y364310D01*
X546082Y364346D01*
X585214Y325214D01*
X586616Y324138D01*
X588248Y323462D01*
X590000Y323232D01*
X612112D01*
X614146Y321198D01*
X616654Y319750D01*
X619452Y319000D01*
X622348D01*
X625146Y319750D01*
X627654Y321198D01*
X629702Y323246D01*
X631150Y325754D01*
X631900Y328552D01*
Y331448D01*
X631150Y334246D01*
X629702Y336754D01*
X627654Y338802D01*
X625146Y340250D01*
X622348Y341000D01*
X619452D01*
X616654Y340250D01*
X614146Y338802D01*
X612112Y336768D01*
X592804D01*
X553436Y376136D01*
X552034Y377212D01*
X550402Y377888D01*
X548650Y378118D01*
X435350D01*
X433598Y377888D01*
X431966Y377212D01*
X430564Y376136D01*
X427307Y372879D01*
X426446Y373454D01*
X426942Y374652D01*
X426979Y374935D01*
X427080Y375085D01*
X427236Y375873D01*
X427156Y376279D01*
X427172Y376404D01*
X426942Y378156D01*
X426265Y379788D01*
X425190Y381190D01*
X423788Y382265D01*
X422156Y382942D01*
X420404Y383172D01*
X420279Y383156D01*
X419874Y383236D01*
X419085Y383080D01*
X418935Y382979D01*
X418652Y382942D01*
X417020Y382265D01*
X415618Y381190D01*
X403598Y369170D01*
X402522Y367768D01*
X401846Y366136D01*
X401669Y364790D01*
X401616Y364384D01*
X401616Y364382D01*
X401616Y363822D01*
X399241Y363350D01*
X397228Y362005D01*
X397076Y361853D01*
X395731Y359840D01*
X395258Y357464D01*
Y354247D01*
X395400Y353533D01*
X395016Y353186D01*
X394673Y353223D01*
X393902Y353532D01*
X393391Y354766D01*
X392266Y355891D01*
X390796Y356500D01*
X389204D01*
X387734Y355891D01*
X386609Y354766D01*
X386429Y354332D01*
X385557D01*
X384673Y354156D01*
X383923Y353655D01*
X383836Y353568D01*
X382975Y354143D01*
X383000Y354204D01*
Y355796D01*
X382391Y357266D01*
X381266Y358391D01*
X379796Y359000D01*
X378204D01*
X378021Y359122D01*
Y360293D01*
X383196Y365467D01*
X384247Y365258D01*
X387464D01*
X389840Y365731D01*
X391853Y367076D01*
X392005Y367228D01*
X393350Y369241D01*
X393822Y371616D01*
X394382Y371616D01*
X394384Y371616D01*
X394790Y371669D01*
X396136Y371846D01*
X397768Y372522D01*
X399170Y373598D01*
X411190Y385618D01*
X412265Y387020D01*
X412942Y388652D01*
X412979Y388935D01*
X413080Y389085D01*
X413236Y389874D01*
X413156Y390279D01*
X413172Y390404D01*
X412942Y392156D01*
X412265Y393788D01*
X411190Y395190D01*
X409788Y396265D01*
X408156Y396942D01*
X406404Y397172D01*
X406279Y397156D01*
X405873Y397236D01*
X405085Y397080D01*
X404935Y396979D01*
X404652Y396942D01*
X403454Y396445D01*
X402879Y397307D01*
X413804Y408232D01*
X592197D01*
X654132Y346297D01*
Y338788D01*
X652098Y336754D01*
X650650Y334246D01*
X649900Y331448D01*
Y328552D01*
X650650Y325754D01*
X652098Y323246D01*
X654146Y321198D01*
X656654Y319750D01*
X659452Y319000D01*
X662348D01*
X665146Y319750D01*
X667654Y321198D01*
X669702Y323246D01*
X671150Y325754D01*
X671900Y328552D01*
Y331448D01*
X671150Y334246D01*
X669702Y336754D01*
X667668Y338788D01*
Y349100D01*
X667438Y350852D01*
X666762Y352484D01*
X665686Y353886D01*
X626113Y393459D01*
X626722Y394222D01*
X627500Y393900D01*
X647500D01*
X648145Y394168D01*
X648278Y394222D01*
X649222D01*
X649355Y394168D01*
X650000Y393900D01*
X662500D01*
X663278Y394222D01*
X663600Y395000D01*
Y465000D01*
X663278Y465778D01*
X662500Y466100D01*
X645000D01*
X644222Y465778D01*
X643900Y465000D01*
Y463297D01*
X637250D01*
Y455000D01*
Y446703D01*
X643900D01*
Y445000D01*
X644222Y444222D01*
X645000Y443900D01*
X648900D01*
Y406592D01*
X647884Y406171D01*
X638600Y415456D01*
Y440000D01*
X638278Y440778D01*
X637500Y441100D01*
X627500D01*
X626722Y440778D01*
X626400Y440000D01*
Y415456D01*
X616722Y405778D01*
X616400Y405000D01*
X616722Y404222D01*
X615959Y403613D01*
X599786Y419786D01*
X598384Y420862D01*
X596752Y421538D01*
X595000Y421768D01*
X411000D01*
X409248Y421538D01*
X407616Y420862D01*
X406214Y419786D01*
X379598Y393170D01*
X378522Y391768D01*
X377846Y390136D01*
X377669Y388790D01*
X377616Y388384D01*
X377616Y388382D01*
X377616Y387822D01*
X375241Y387350D01*
X373228Y386005D01*
X373076Y385853D01*
X371731Y383839D01*
X371258Y381465D01*
Y378247D01*
X371467Y377196D01*
X363253Y368981D01*
X361907Y366968D01*
X361435Y364593D01*
Y357305D01*
X360495Y356366D01*
X359556Y356754D01*
Y371649D01*
X361454Y373546D01*
X361899Y374213D01*
X362056Y375000D01*
X362056Y375000D01*
Y382750D01*
X362056Y382750D01*
X361899Y383537D01*
X361454Y384203D01*
X352151Y393506D01*
X352678Y394297D01*
X352750Y394344D01*
X353500Y394194D01*
X359500D01*
X360287Y394351D01*
X360953Y394797D01*
X361399Y395463D01*
X361555Y396250D01*
Y403750D01*
X361399Y404537D01*
X360953Y405204D01*
X360287Y405649D01*
X359500Y405806D01*
X358555D01*
Y453500D01*
X358399Y454287D01*
X357953Y454953D01*
X357953Y454953D01*
X276413Y536494D01*
X276500Y536704D01*
Y538296D01*
X275891Y539766D01*
X274766Y540891D01*
X273296Y541500D01*
D02*
G37*
G36*
X63170Y553890D02*
X60830D01*
X58569Y553284D01*
X56541Y552114D01*
X54886Y550459D01*
X53716Y548431D01*
X53110Y546170D01*
Y543830D01*
X53716Y541569D01*
X54886Y539541D01*
X56541Y537886D01*
X58569Y536716D01*
X60830Y536110D01*
X63170D01*
X65431Y536716D01*
X67459Y537886D01*
X69114Y539541D01*
X70284Y541569D01*
X70890Y543830D01*
Y546170D01*
X70284Y548431D01*
X69114Y550459D01*
X67459Y552114D01*
X65431Y553284D01*
X63170Y553890D01*
D02*
G37*
G36*
X603527Y550572D02*
X603527Y550572D01*
X591751D01*
X590964Y550415D01*
X590297Y549969D01*
X590297Y549969D01*
X562352Y522024D01*
X561906Y521357D01*
X561750Y520570D01*
X561750Y520570D01*
Y474657D01*
X527038Y439945D01*
X526593Y439279D01*
X526437Y438492D01*
X526437Y438492D01*
Y434810D01*
X525796Y434000D01*
X524204D01*
X522734Y433391D01*
X521609Y432266D01*
X521000Y430796D01*
Y429204D01*
X521609Y427734D01*
X522734Y426609D01*
X524204Y426000D01*
X525796D01*
X527266Y426609D01*
X528391Y427734D01*
X529000Y429204D01*
Y430796D01*
X529849Y431397D01*
X530151D01*
X530362Y431248D01*
X531000Y430507D01*
Y429204D01*
X531609Y427734D01*
X532734Y426609D01*
X534204Y426000D01*
X535796D01*
X537266Y426609D01*
X538391Y427734D01*
X539000Y429204D01*
Y430796D01*
X538391Y432266D01*
X537266Y433391D01*
X535796Y434000D01*
X534204D01*
X533563Y434810D01*
Y436391D01*
X566508Y469336D01*
X566508Y469336D01*
X568274Y471102D01*
X568275Y471102D01*
X568720Y471769D01*
X568877Y472556D01*
Y518470D01*
X593851Y543445D01*
X596351D01*
X596772Y542429D01*
X596609Y542266D01*
X596000Y540796D01*
Y539204D01*
X596609Y537734D01*
X597734Y536609D01*
X599204Y536000D01*
X600796D01*
X602266Y536609D01*
X603391Y537734D01*
X604000Y539204D01*
Y540230D01*
X604156Y540386D01*
X605259D01*
X606000Y539645D01*
Y539204D01*
X606609Y537734D01*
X607734Y536609D01*
X609204Y536000D01*
X610796D01*
X612266Y536609D01*
X613391Y537734D01*
X614000Y539204D01*
Y540796D01*
X613391Y542266D01*
X612266Y543391D01*
X610796Y544000D01*
X609204D01*
X608563Y544428D01*
Y545535D01*
X608407Y546322D01*
X607961Y546989D01*
X607961Y546989D01*
X604981Y549969D01*
X604314Y550415D01*
X604184Y550441D01*
X603527Y550572D01*
D02*
G37*
G36*
X191916Y547116D02*
X180784D01*
Y532884D01*
X191916D01*
Y536100D01*
X192932Y536527D01*
X194204Y536000D01*
X195796D01*
X197266Y536609D01*
X198391Y537734D01*
X199000Y539204D01*
Y540796D01*
X198391Y542266D01*
X197266Y543391D01*
X195796Y544000D01*
X194204D01*
X192932Y543473D01*
X191916Y543900D01*
Y547116D01*
D02*
G37*
G36*
X481167Y548866D02*
X478833D01*
X476578Y548262D01*
X474556Y547095D01*
X472905Y545444D01*
X471738Y543422D01*
X471134Y541167D01*
Y538833D01*
X471738Y536578D01*
X472905Y534556D01*
X474556Y532905D01*
X476578Y531738D01*
X478833Y531134D01*
X481167D01*
X483422Y531738D01*
X485444Y532905D01*
X487095Y534556D01*
X488262Y536578D01*
X488866Y538833D01*
Y541167D01*
X488262Y543422D01*
X487095Y545444D01*
X485444Y547095D01*
X483422Y548262D01*
X481167Y548866D01*
D02*
G37*
G36*
X11170Y518890D02*
X10508D01*
Y510508D01*
X18890D01*
Y511170D01*
X18284Y513431D01*
X17114Y515459D01*
X15459Y517114D01*
X13431Y518284D01*
X11170Y518890D01*
D02*
G37*
G36*
X9492D02*
X8830D01*
X6569Y518284D01*
X4541Y517114D01*
X2886Y515459D01*
X1716Y513431D01*
X1110Y511170D01*
Y510508D01*
X9492D01*
Y518890D01*
D02*
G37*
G36*
X18890Y509492D02*
X10508D01*
Y501110D01*
X11170D01*
X13431Y501716D01*
X15459Y502886D01*
X17114Y504541D01*
X18284Y506569D01*
X18890Y508830D01*
Y509492D01*
D02*
G37*
G36*
X9492D02*
X1110D01*
Y508830D01*
X1716Y506569D01*
X2886Y504541D01*
X4541Y502886D01*
X6569Y501716D01*
X8830Y501110D01*
X9492D01*
Y509492D01*
D02*
G37*
G36*
X636234Y463297D02*
X629453D01*
Y455508D01*
X636234D01*
Y463297D01*
D02*
G37*
G36*
X722168Y477540D02*
X721270D01*
Y451270D01*
X747540D01*
Y452168D01*
X746862Y456449D01*
X745522Y460572D01*
X743554Y464434D01*
X741006Y467941D01*
X737941Y471006D01*
X734434Y473554D01*
X730572Y475522D01*
X726449Y476862D01*
X722168Y477540D01*
D02*
G37*
G36*
X728749Y570071D02*
X728749Y570071D01*
X678751D01*
X677964Y569915D01*
X677297Y569469D01*
X677297Y569469D01*
X662039Y554211D01*
X661593Y553544D01*
X661436Y552757D01*
X661436Y552757D01*
Y544810D01*
X660796Y544000D01*
X659204D01*
X657734Y543391D01*
X656609Y542266D01*
X656000Y540796D01*
Y539204D01*
X656609Y537734D01*
X657734Y536609D01*
X659204Y536000D01*
X660796D01*
X662266Y536609D01*
X663391Y537734D01*
X664000Y539204D01*
Y540796D01*
X664849Y541397D01*
X665151D01*
X665362Y541248D01*
X666000Y540507D01*
Y539204D01*
X666609Y537734D01*
X667734Y536609D01*
X669204Y536000D01*
X670796D01*
X672266Y536609D01*
X673391Y537734D01*
X674000Y539204D01*
Y540796D01*
X673391Y542266D01*
X672266Y543391D01*
X670796Y544000D01*
X669204D01*
X668564Y544810D01*
Y550657D01*
X680851Y562944D01*
X726649D01*
X732944Y556649D01*
Y513351D01*
X717663Y498070D01*
X717663Y498070D01*
X684797Y465204D01*
X684797Y465204D01*
X684797Y465204D01*
X683031Y463438D01*
X682585Y462771D01*
X682429Y461984D01*
X682429Y461984D01*
Y435516D01*
X682429Y435516D01*
X682585Y434729D01*
X683031Y434063D01*
X720444Y396649D01*
Y184351D01*
X668149Y132056D01*
X545668D01*
X533563Y144160D01*
Y145190D01*
X534204Y146000D01*
X535796D01*
X537266Y146609D01*
X538391Y147734D01*
X539000Y149204D01*
Y150796D01*
X538391Y152266D01*
X537266Y153391D01*
X535796Y154000D01*
X534204D01*
X532734Y153391D01*
X531609Y152266D01*
X531000Y150796D01*
Y149493D01*
X530362Y148752D01*
X530151Y148603D01*
X529849D01*
X529000Y149204D01*
Y150796D01*
X528391Y152266D01*
X527266Y153391D01*
X525796Y154000D01*
X524204D01*
X522734Y153391D01*
X521609Y152266D01*
X521000Y150796D01*
Y149204D01*
X521609Y147734D01*
X522734Y146609D01*
X524204Y146000D01*
X525796D01*
X526437Y145190D01*
Y142059D01*
X526437Y142059D01*
X526593Y141272D01*
X527038Y140605D01*
X542113Y125531D01*
X542113Y125531D01*
X542780Y125085D01*
X543567Y124929D01*
X670249D01*
X670249Y124929D01*
X671036Y125085D01*
X671703Y125531D01*
X726969Y180797D01*
X726970Y180797D01*
X727415Y181464D01*
X727571Y182251D01*
X727571Y182251D01*
Y398749D01*
X727415Y399536D01*
X726970Y400203D01*
X689556Y437617D01*
Y459883D01*
X698068Y468396D01*
X698844Y467734D01*
X696446Y464434D01*
X694478Y460572D01*
X693138Y456449D01*
X692460Y452168D01*
Y451270D01*
X718730D01*
Y477540D01*
X717832D01*
X713551Y476862D01*
X709428Y475522D01*
X705566Y473554D01*
X702266Y471157D01*
X701604Y471931D01*
X723586Y493914D01*
X723586Y493914D01*
X723586Y493914D01*
X739469Y509797D01*
X739470Y509797D01*
X739915Y510464D01*
X740071Y511251D01*
X740071Y511251D01*
Y558749D01*
X739915Y559536D01*
X739470Y560203D01*
X739469Y560203D01*
X730203Y569469D01*
X729536Y569915D01*
X729405Y569941D01*
X728749Y570071D01*
D02*
G37*
G36*
X636234Y454492D02*
X629453D01*
Y446703D01*
X636234D01*
Y454492D01*
D02*
G37*
G36*
X35508Y457027D02*
Y440508D01*
X44094D01*
Y448000D01*
X43784Y450354D01*
X42875Y452547D01*
X41430Y454430D01*
X39547Y455875D01*
X37354Y456784D01*
X35508Y457027D01*
D02*
G37*
G36*
X34492Y457027D02*
X32646Y456784D01*
X30453Y455875D01*
X28570Y454430D01*
X27125Y452547D01*
X26216Y450354D01*
X25906Y448000D01*
Y440508D01*
X34492D01*
Y457027D01*
D02*
G37*
G36*
X104016Y457016D02*
X85984D01*
Y422984D01*
X104016D01*
Y457016D01*
D02*
G37*
G36*
X34492Y439492D02*
X25906D01*
Y432000D01*
X26216Y429646D01*
X27125Y427453D01*
X28570Y425570D01*
X30453Y424124D01*
X32646Y423216D01*
X34492Y422973D01*
Y439492D01*
D02*
G37*
G36*
X44094D02*
X35508D01*
Y422973D01*
X37354Y423216D01*
X39547Y424124D01*
X41430Y425570D01*
X42875Y427453D01*
X43784Y429646D01*
X44094Y432000D01*
Y439492D01*
D02*
G37*
G36*
X747540Y448730D02*
X721270D01*
Y422460D01*
X722168D01*
X726449Y423138D01*
X730572Y424478D01*
X734434Y426446D01*
X737941Y428994D01*
X741006Y432059D01*
X743554Y435566D01*
X745522Y439428D01*
X746862Y443551D01*
X747540Y447833D01*
Y448730D01*
D02*
G37*
G36*
X718730D02*
X692460D01*
Y447833D01*
X693138Y443551D01*
X694478Y439428D01*
X696446Y435566D01*
X698994Y432059D01*
X702059Y428994D01*
X705566Y426446D01*
X709428Y424478D01*
X713551Y423138D01*
X717832Y422460D01*
X718730D01*
Y448730D01*
D02*
G37*
G36*
X383296Y411500D02*
X381704D01*
X380234Y410891D01*
X379379Y410036D01*
X378750Y409864D01*
X378121Y410036D01*
X377266Y410891D01*
X375796Y411500D01*
X374204D01*
X372734Y410891D01*
X371879Y410036D01*
X371250Y409864D01*
X370621Y410036D01*
X369766Y410891D01*
X368296Y411500D01*
X366704D01*
X365234Y410891D01*
X364109Y409766D01*
X363500Y408296D01*
Y406704D01*
X364109Y405234D01*
X365234Y404109D01*
X366704Y403500D01*
X368296D01*
X369766Y404109D01*
X370621Y404964D01*
X371250Y405136D01*
X371879Y404964D01*
X372734Y404109D01*
X374204Y403500D01*
X375796D01*
X377266Y404109D01*
X378121Y404964D01*
X378750Y405136D01*
X379379Y404964D01*
X380234Y404109D01*
X381704Y403500D01*
X383296D01*
X384766Y404109D01*
X385891Y405234D01*
X386500Y406704D01*
Y408296D01*
X385891Y409766D01*
X384766Y410891D01*
X383296Y411500D01*
D02*
G37*
G36*
X321500Y405806D02*
X319008D01*
Y400508D01*
X323555D01*
Y403750D01*
X323399Y404537D01*
X322953Y405204D01*
X322287Y405649D01*
X321500Y405806D01*
D02*
G37*
G36*
X317992D02*
X315500D01*
X314713Y405649D01*
X314047Y405204D01*
X313601Y404537D01*
X313444Y403750D01*
Y400508D01*
X317992D01*
Y405806D01*
D02*
G37*
G36*
X415066Y406425D02*
X414279Y406268D01*
X413613Y405823D01*
X411850Y404061D01*
X415596Y400315D01*
X418812Y403530D01*
X416519Y405823D01*
X415853Y406268D01*
X415066Y406425D01*
D02*
G37*
G36*
X411132Y403342D02*
X409370Y401580D01*
X408924Y400913D01*
X408768Y400127D01*
X408924Y399340D01*
X409370Y398673D01*
X411662Y396381D01*
X414878Y399596D01*
X411132Y403342D01*
D02*
G37*
G36*
X419530Y402812D02*
X416315Y399596D01*
X420061Y395850D01*
X421823Y397612D01*
X422268Y398279D01*
X422425Y399066D01*
X422268Y399852D01*
X421823Y400519D01*
X419530Y402812D01*
D02*
G37*
G36*
X323555Y399492D02*
X319008D01*
Y394194D01*
X321500D01*
X322287Y394351D01*
X322953Y394797D01*
X323399Y395463D01*
X323555Y396250D01*
Y399492D01*
D02*
G37*
G36*
X317992D02*
X313444D01*
Y396250D01*
X313601Y395463D01*
X314047Y394797D01*
X314713Y394351D01*
X315500Y394194D01*
X317992D01*
Y399492D01*
D02*
G37*
G36*
X73000Y402094D02*
X65508D01*
Y393508D01*
X82027D01*
X81784Y395354D01*
X80876Y397547D01*
X79430Y399430D01*
X77547Y400875D01*
X75354Y401784D01*
X73000Y402094D01*
D02*
G37*
G36*
X64492D02*
X57000D01*
X54646Y401784D01*
X52453Y400875D01*
X50570Y399430D01*
X49124Y397547D01*
X48216Y395354D01*
X47973Y393508D01*
X64492D01*
Y402094D01*
D02*
G37*
G36*
X415596Y398878D02*
X412381Y395662D01*
X414673Y393370D01*
X415340Y392924D01*
X416127Y392768D01*
X416913Y392924D01*
X417580Y393370D01*
X419342Y395132D01*
X415596Y398878D01*
D02*
G37*
G36*
X429066Y392425D02*
X428279Y392268D01*
X427612Y391823D01*
X425850Y390061D01*
X429596Y386315D01*
X432812Y389530D01*
X430519Y391823D01*
X429852Y392268D01*
X429066Y392425D01*
D02*
G37*
G36*
X82027Y392492D02*
X65508D01*
Y383906D01*
X73000D01*
X75354Y384216D01*
X77547Y385125D01*
X79430Y386570D01*
X80876Y388453D01*
X81784Y390646D01*
X82027Y392492D01*
D02*
G37*
G36*
X64492D02*
X47973D01*
X48216Y390646D01*
X49124Y388453D01*
X50570Y386570D01*
X52453Y385125D01*
X54646Y384216D01*
X57000Y383906D01*
X64492D01*
Y392492D01*
D02*
G37*
G36*
X425132Y389342D02*
X423370Y387580D01*
X422924Y386913D01*
X422768Y386127D01*
X422924Y385340D01*
X423370Y384673D01*
X425662Y382380D01*
X428878Y385596D01*
X425132Y389342D01*
D02*
G37*
G36*
X433530Y388812D02*
X430315Y385596D01*
X434061Y381850D01*
X435823Y383612D01*
X436268Y384279D01*
X436425Y385066D01*
X436268Y385853D01*
X435823Y386519D01*
X433530Y388812D01*
D02*
G37*
G36*
X429596Y384878D02*
X426381Y381662D01*
X428673Y379370D01*
X429340Y378924D01*
X430127Y378768D01*
X430913Y378924D01*
X431580Y379370D01*
X433342Y381132D01*
X429596Y384878D01*
D02*
G37*
G36*
X687812Y369516D02*
X686508D01*
Y356258D01*
X699766D01*
Y357562D01*
X698828Y361063D01*
X697016Y364202D01*
X694453Y366766D01*
X691313Y368578D01*
X687812Y369516D01*
D02*
G37*
G36*
X685492D02*
X684188D01*
X680686Y368578D01*
X677548Y366766D01*
X674985Y364202D01*
X673172Y361063D01*
X672234Y357562D01*
Y356258D01*
X685492D01*
Y369516D01*
D02*
G37*
G36*
X606812D02*
X605508D01*
Y356258D01*
X618766D01*
Y357562D01*
X617828Y361063D01*
X616016Y364202D01*
X613452Y366766D01*
X610313Y368578D01*
X606812Y369516D01*
D02*
G37*
G36*
X604492D02*
X603188D01*
X599687Y368578D01*
X596548Y366766D01*
X593984Y364202D01*
X592172Y361063D01*
X591234Y357562D01*
Y356258D01*
X604492D01*
Y369516D01*
D02*
G37*
G36*
X699766Y355242D02*
X686508D01*
Y341984D01*
X687812D01*
X691313Y342922D01*
X694453Y344734D01*
X697016Y347298D01*
X698828Y350437D01*
X699766Y353938D01*
Y355242D01*
D02*
G37*
G36*
X685492D02*
X672234D01*
Y353938D01*
X673172Y350437D01*
X674985Y347298D01*
X677548Y344734D01*
X680686Y342922D01*
X684188Y341984D01*
X685492D01*
Y355242D01*
D02*
G37*
G36*
X618766D02*
X605508D01*
Y341984D01*
X606812D01*
X610313Y342922D01*
X613452Y344734D01*
X616016Y347298D01*
X617828Y350437D01*
X618766Y353938D01*
Y355242D01*
D02*
G37*
G36*
X604492D02*
X591234D01*
Y353938D01*
X592172Y350437D01*
X593984Y347298D01*
X596548Y344734D01*
X599687Y342922D01*
X603188Y341984D01*
X604492D01*
Y355242D01*
D02*
G37*
G36*
X429378Y329378D02*
X425508D01*
Y325294D01*
X429378D01*
Y329378D01*
D02*
G37*
G36*
X424492D02*
X420622D01*
Y325294D01*
X424492D01*
Y329378D01*
D02*
G37*
G36*
X448516Y329016D02*
X442008D01*
Y321508D01*
X448516D01*
Y329016D01*
D02*
G37*
G36*
X440992D02*
X434484D01*
Y321508D01*
X440992D01*
Y329016D01*
D02*
G37*
G36*
X1167Y333866D02*
X-1167D01*
X-3422Y333262D01*
X-5444Y332095D01*
X-7095Y330444D01*
X-8262Y328422D01*
X-8866Y326167D01*
Y323833D01*
X-8262Y321578D01*
X-7095Y319556D01*
X-5444Y317905D01*
X-3422Y316738D01*
X-1167Y316134D01*
X1167D01*
X3422Y316738D01*
X5444Y317905D01*
X7095Y319556D01*
X8262Y321578D01*
X8866Y323833D01*
Y326167D01*
X8262Y328422D01*
X7095Y330444D01*
X5444Y332095D01*
X3422Y333262D01*
X1167Y333866D01*
D02*
G37*
G36*
X543297Y321234D02*
X535508D01*
Y314453D01*
X543297D01*
Y321234D01*
D02*
G37*
G36*
X641516Y321516D02*
X640508D01*
Y310508D01*
X651516D01*
Y311516D01*
X650731Y314445D01*
X649215Y317071D01*
X647071Y319215D01*
X644445Y320731D01*
X641516Y321516D01*
D02*
G37*
G36*
X639492D02*
X638484D01*
X635555Y320731D01*
X632929Y319215D01*
X630785Y317071D01*
X629269Y314445D01*
X628484Y311516D01*
Y310508D01*
X639492D01*
Y321516D01*
D02*
G37*
G36*
X45796Y314000D02*
X44204D01*
X42734Y313391D01*
X41609Y312266D01*
X41000Y310796D01*
Y309204D01*
X41609Y307734D01*
X42734Y306609D01*
X44204Y306000D01*
X45796D01*
X47266Y306609D01*
X48391Y307734D01*
X49000Y309204D01*
Y310796D01*
X48391Y312266D01*
X47266Y313391D01*
X45796Y314000D01*
D02*
G37*
G36*
X465516Y307016D02*
X459008D01*
Y299508D01*
X465516D01*
Y307016D01*
D02*
G37*
G36*
X457992D02*
X451484D01*
Y299508D01*
X457992D01*
Y307016D01*
D02*
G37*
G36*
X543297Y305547D02*
X535508D01*
Y298766D01*
X543297D01*
Y305547D01*
D02*
G37*
G36*
X651516Y309492D02*
X640508D01*
Y298484D01*
X641516D01*
X644445Y299269D01*
X647071Y300785D01*
X649215Y302929D01*
X650731Y305555D01*
X651516Y308484D01*
Y309492D01*
D02*
G37*
G36*
X639492D02*
X628484D01*
Y308484D01*
X629269Y305555D01*
X630785Y302929D01*
X632929Y300785D01*
X635555Y299269D01*
X638484Y298484D01*
X639492D01*
Y309492D01*
D02*
G37*
G36*
X465516Y298492D02*
X459008D01*
Y290984D01*
X465516D01*
Y298492D01*
D02*
G37*
G36*
X457992D02*
X451484D01*
Y290984D01*
X457992D01*
Y298492D01*
D02*
G37*
G36*
X429378Y294706D02*
X425508D01*
Y290622D01*
X429378D01*
Y294706D01*
D02*
G37*
G36*
X424492D02*
X420622D01*
Y290622D01*
X424492D01*
Y294706D01*
D02*
G37*
G36*
X1167Y293866D02*
X-1167D01*
X-3422Y293262D01*
X-5444Y292095D01*
X-7095Y290444D01*
X-8262Y288422D01*
X-8866Y286167D01*
Y283833D01*
X-8262Y281578D01*
X-7095Y279556D01*
X-5444Y277905D01*
X-3422Y276738D01*
X-1167Y276134D01*
X1167D01*
X3422Y276738D01*
X5444Y277905D01*
X7095Y279556D01*
X8262Y281578D01*
X8866Y283833D01*
Y286167D01*
X8262Y288422D01*
X7095Y290444D01*
X5444Y292095D01*
X3422Y293262D01*
X1167Y293866D01*
D02*
G37*
G36*
X459500Y280805D02*
X457008D01*
Y275508D01*
X461555D01*
Y278750D01*
X461399Y279537D01*
X460953Y280203D01*
X460287Y280649D01*
X459500Y280805D01*
D02*
G37*
G36*
X455992D02*
X453500D01*
X452713Y280649D01*
X452047Y280203D01*
X451601Y279537D01*
X451445Y278750D01*
Y275508D01*
X455992D01*
Y280805D01*
D02*
G37*
G36*
X461555Y274492D02*
X457008D01*
Y269195D01*
X459500D01*
X460287Y269351D01*
X460953Y269797D01*
X461399Y270463D01*
X461555Y271250D01*
Y274492D01*
D02*
G37*
G36*
X455992D02*
X451445D01*
Y271250D01*
X451601Y270463D01*
X452047Y269797D01*
X452713Y269351D01*
X453500Y269195D01*
X455992D01*
Y274492D01*
D02*
G37*
G36*
X687812Y278016D02*
X686508D01*
Y264758D01*
X699766D01*
Y266062D01*
X698828Y269564D01*
X697016Y272703D01*
X694453Y275266D01*
X691313Y277078D01*
X687812Y278016D01*
D02*
G37*
G36*
X685492D02*
X684188D01*
X680686Y277078D01*
X677548Y275266D01*
X674985Y272703D01*
X673172Y269564D01*
X672234Y266062D01*
Y264758D01*
X685492D01*
Y278016D01*
D02*
G37*
G36*
X606812D02*
X605508D01*
Y264758D01*
X618766D01*
Y266062D01*
X617828Y269564D01*
X616016Y272703D01*
X613452Y275266D01*
X610313Y277078D01*
X606812Y278016D01*
D02*
G37*
G36*
X604492D02*
X603188D01*
X599687Y277078D01*
X596548Y275266D01*
X593984Y272703D01*
X592172Y269564D01*
X591234Y266062D01*
Y264758D01*
X604492D01*
Y278016D01*
D02*
G37*
G36*
X699766Y263742D02*
X686508D01*
Y250484D01*
X687812D01*
X691313Y251422D01*
X694453Y253235D01*
X697016Y255798D01*
X698828Y258937D01*
X699766Y262438D01*
Y263742D01*
D02*
G37*
G36*
X685492D02*
X672234D01*
Y262438D01*
X673172Y258937D01*
X674985Y255798D01*
X677548Y253235D01*
X680686Y251422D01*
X684188Y250484D01*
X685492D01*
Y263742D01*
D02*
G37*
G36*
X618766D02*
X605508D01*
Y250484D01*
X606812D01*
X610313Y251422D01*
X613452Y253235D01*
X616016Y255798D01*
X617828Y258937D01*
X618766Y262438D01*
Y263742D01*
D02*
G37*
G36*
X604492D02*
X591234D01*
Y262438D01*
X592172Y258937D01*
X593984Y255798D01*
X596548Y253235D01*
X599687Y251422D01*
X603188Y250484D01*
X604492D01*
Y263742D01*
D02*
G37*
G36*
X433627Y244732D02*
X432840Y244576D01*
X432173Y244130D01*
X429881Y241838D01*
X433096Y238622D01*
X436842Y242368D01*
X435080Y244130D01*
X434413Y244576D01*
X433627Y244732D01*
D02*
G37*
G36*
X437561Y241650D02*
X433815Y237904D01*
X437030Y234688D01*
X439323Y236981D01*
X439768Y237648D01*
X439925Y238434D01*
X439768Y239221D01*
X439323Y239888D01*
X437561Y241650D01*
D02*
G37*
G36*
X429162Y241119D02*
X426870Y238827D01*
X426424Y238160D01*
X426268Y237374D01*
X426424Y236587D01*
X426870Y235920D01*
X428632Y234158D01*
X432378Y237904D01*
X429162Y241119D01*
D02*
G37*
G36*
X433096Y237185D02*
X429350Y233440D01*
X431112Y231677D01*
X431779Y231232D01*
X432566Y231075D01*
X433353Y231232D01*
X434019Y231677D01*
X436312Y233970D01*
X433096Y237185D01*
D02*
G37*
G36*
X419627Y230732D02*
X418840Y230576D01*
X418173Y230130D01*
X415881Y227838D01*
X419096Y224622D01*
X422842Y228368D01*
X421080Y230130D01*
X420413Y230576D01*
X419627Y230732D01*
D02*
G37*
G36*
X423560Y227650D02*
X419815Y223904D01*
X423030Y220688D01*
X425323Y222981D01*
X425768Y223648D01*
X425925Y224434D01*
X425768Y225221D01*
X425323Y225888D01*
X423560Y227650D01*
D02*
G37*
G36*
X321500Y225805D02*
X319008D01*
Y220508D01*
X323555D01*
Y223750D01*
X323399Y224537D01*
X322953Y225203D01*
X322287Y225649D01*
X321500Y225805D01*
D02*
G37*
G36*
X317992D02*
X315500D01*
X314713Y225649D01*
X314047Y225203D01*
X313601Y224537D01*
X313444Y223750D01*
Y220508D01*
X317992D01*
Y225805D01*
D02*
G37*
G36*
X415162Y227119D02*
X412870Y224827D01*
X412424Y224160D01*
X412268Y223374D01*
X412424Y222587D01*
X412870Y221920D01*
X414632Y220158D01*
X418378Y223904D01*
X415162Y227119D01*
D02*
G37*
G36*
X419096Y223185D02*
X415350Y219440D01*
X417112Y217677D01*
X417779Y217232D01*
X418566Y217075D01*
X419352Y217232D01*
X420019Y217677D01*
X422312Y219970D01*
X419096Y223185D01*
D02*
G37*
G36*
X1167Y233866D02*
X-1167D01*
X-3422Y233262D01*
X-5444Y232095D01*
X-7095Y230444D01*
X-8262Y228422D01*
X-8866Y226167D01*
Y223833D01*
X-8262Y221578D01*
X-7095Y219556D01*
X-5444Y217905D01*
X-3422Y216738D01*
X-1167Y216134D01*
X1167D01*
X3422Y216738D01*
X5444Y217905D01*
X7095Y219556D01*
X8262Y221578D01*
X8866Y223833D01*
Y226167D01*
X8262Y228422D01*
X7095Y230444D01*
X5444Y232095D01*
X3422Y233262D01*
X1167Y233866D01*
D02*
G37*
G36*
X323555Y219492D02*
X319008D01*
Y214195D01*
X321500D01*
X322287Y214351D01*
X322953Y214797D01*
X323399Y215463D01*
X323555Y216250D01*
Y219492D01*
D02*
G37*
G36*
X317992D02*
X313444D01*
Y216250D01*
X313601Y215463D01*
X314047Y214797D01*
X314713Y214351D01*
X315500Y214195D01*
X317992D01*
Y219492D01*
D02*
G37*
G36*
X45796Y214000D02*
X44204D01*
X42734Y213391D01*
X41609Y212266D01*
X41000Y210796D01*
Y209204D01*
X41609Y207734D01*
X42734Y206609D01*
X44204Y206000D01*
X45796D01*
X47266Y206609D01*
X48391Y207734D01*
X49000Y209204D01*
Y210796D01*
X48391Y212266D01*
X47266Y213391D01*
X45796Y214000D01*
D02*
G37*
G36*
X100716Y333016D02*
X84684D01*
Y316984D01*
X90645D01*
Y311851D01*
X90645Y311851D01*
X90801Y311064D01*
X91247Y310398D01*
X97690Y303955D01*
X97301Y303016D01*
X84684D01*
Y286984D01*
X90645D01*
Y243551D01*
X82231Y235138D01*
X81785Y234471D01*
X81629Y233684D01*
X81629Y233684D01*
Y204016D01*
X81629Y204016D01*
X81785Y203229D01*
X82231Y202563D01*
X84684Y200109D01*
Y186984D01*
X100716D01*
Y203016D01*
X87591D01*
X85739Y204867D01*
Y216984D01*
X100716D01*
Y233016D01*
X94755D01*
Y237583D01*
X97169Y239997D01*
X97170Y239997D01*
X97615Y240664D01*
X97772Y241451D01*
X97772Y241451D01*
Y279865D01*
X103169Y285263D01*
X103615Y285929D01*
X103771Y286716D01*
X103771Y286716D01*
Y302835D01*
X103771Y302835D01*
X103615Y303622D01*
X103169Y304289D01*
X103169Y304289D01*
X94755Y312703D01*
Y316984D01*
X100716D01*
Y333016D01*
D02*
G37*
G36*
X1167Y193866D02*
X-1167D01*
X-3422Y193262D01*
X-5444Y192095D01*
X-7095Y190444D01*
X-8262Y188422D01*
X-8866Y186167D01*
Y183833D01*
X-8262Y181578D01*
X-7095Y179556D01*
X-5444Y177905D01*
X-3422Y176738D01*
X-1167Y176134D01*
X1167D01*
X3422Y176738D01*
X5444Y177905D01*
X7095Y179556D01*
X8262Y181578D01*
X8866Y183833D01*
Y186167D01*
X8262Y188422D01*
X7095Y190444D01*
X5444Y192095D01*
X3422Y193262D01*
X1167Y193866D01*
D02*
G37*
G36*
X636234Y173297D02*
X629453D01*
Y165508D01*
X636234D01*
Y173297D01*
D02*
G37*
G36*
Y164492D02*
X629453D01*
Y156703D01*
X636234D01*
Y164492D01*
D02*
G37*
G36*
X718249Y550572D02*
X718249Y550572D01*
X696473D01*
X695686Y550415D01*
X695019Y549969D01*
X695019Y549969D01*
X692038Y546989D01*
X691593Y546322D01*
X691436Y545535D01*
X691436Y545535D01*
Y544428D01*
X690796Y544000D01*
X689204D01*
X687734Y543391D01*
X686609Y542266D01*
X686000Y540796D01*
Y539204D01*
X686609Y537734D01*
X687734Y536609D01*
X689204Y536000D01*
X690796D01*
X692266Y536609D01*
X693391Y537734D01*
X694000Y539204D01*
Y540230D01*
X694304Y540535D01*
X695110Y540535D01*
X696000Y539645D01*
Y539204D01*
X696609Y537734D01*
X697734Y536609D01*
X699204Y536000D01*
X700796D01*
X702266Y536609D01*
X703391Y537734D01*
X704000Y539204D01*
Y540796D01*
X703391Y542266D01*
X703228Y542429D01*
X703649Y543445D01*
X716149D01*
X717944Y541649D01*
Y515851D01*
X669797Y467704D01*
X669352Y467037D01*
X669195Y466251D01*
X669195Y466251D01*
Y428749D01*
X669195Y428749D01*
X669352Y427963D01*
X669797Y427296D01*
X705444Y391649D01*
Y193351D01*
X664149Y152056D01*
X568073D01*
X535145Y184984D01*
X535566Y186000D01*
X535796D01*
X537266Y186609D01*
X538391Y187734D01*
X539000Y189204D01*
Y190796D01*
X538391Y192266D01*
X537266Y193391D01*
X535796Y194000D01*
X534204D01*
X532734Y193391D01*
X531609Y192266D01*
X531000Y190796D01*
Y190355D01*
X530110Y189466D01*
X529304Y189466D01*
X529000Y189770D01*
Y190796D01*
X528391Y192266D01*
X527266Y193391D01*
X525796Y194000D01*
X524204D01*
X522734Y193391D01*
X521609Y192266D01*
X521000Y190796D01*
Y189204D01*
X521609Y187734D01*
X522734Y186609D01*
X524204Y186000D01*
X525796D01*
X526437Y185572D01*
Y184465D01*
X526437Y184465D01*
X526593Y183678D01*
X527038Y183011D01*
X564519Y145531D01*
X564519Y145531D01*
X565186Y145085D01*
X565973Y144929D01*
X666249D01*
X666249Y144929D01*
X667036Y145085D01*
X667703Y145531D01*
X711969Y189797D01*
X711970Y189797D01*
X712415Y190464D01*
X712571Y191251D01*
Y393749D01*
X712571Y393749D01*
X712415Y394536D01*
X711970Y395203D01*
X711969Y395203D01*
X676322Y430850D01*
Y464150D01*
X724470Y512297D01*
X724915Y512964D01*
X725071Y513751D01*
X725071Y513751D01*
Y543749D01*
X724915Y544536D01*
X724470Y545203D01*
X724469Y545203D01*
X719703Y549969D01*
X719036Y550415D01*
X718905Y550441D01*
X718249Y550572D01*
D02*
G37*
G36*
X738296Y181500D02*
X736704D01*
X735234Y180891D01*
X734109Y179766D01*
X733500Y178296D01*
Y176704D01*
X734109Y175234D01*
X735234Y174109D01*
X735444Y174022D01*
Y138351D01*
X689149Y92056D01*
X642149D01*
X641362Y91899D01*
X640695Y91454D01*
X640695Y91453D01*
X634530Y85288D01*
X634085Y84622D01*
X633928Y83835D01*
X633928Y83835D01*
Y65665D01*
X633928Y65665D01*
X634085Y64878D01*
X634530Y64212D01*
X635781Y62961D01*
X636448Y62515D01*
X636610Y62483D01*
X636984Y62109D01*
Y57039D01*
X624868D01*
X623016Y58891D01*
Y64468D01*
X623016Y65016D01*
X623016Y66032D01*
Y73968D01*
X623016Y74516D01*
X623016Y75532D01*
Y84016D01*
X610984D01*
Y81556D01*
X598000D01*
X598000Y81556D01*
X598000Y81556D01*
X591250D01*
X590463Y81399D01*
X589796Y80954D01*
X589351Y80287D01*
X589194Y79500D01*
Y78555D01*
X585806D01*
Y79500D01*
X585649Y80287D01*
X585204Y80954D01*
X584537Y81399D01*
X583750Y81556D01*
X576250D01*
X575463Y81399D01*
X574796Y80954D01*
X574351Y80287D01*
X574194Y79500D01*
Y73500D01*
X574351Y72713D01*
X574796Y72046D01*
X575463Y71601D01*
X576250Y71445D01*
X583750D01*
X584537Y71601D01*
X585204Y72046D01*
X585649Y72713D01*
X585806Y73500D01*
Y74444D01*
X589194D01*
Y73500D01*
X589351Y72713D01*
X589796Y72046D01*
X590463Y71601D01*
X591250Y71445D01*
X598750D01*
X599500Y71594D01*
X599572Y71547D01*
X600099Y70756D01*
X597899Y68555D01*
X591250D01*
X590463Y68399D01*
X589796Y67954D01*
X589351Y67287D01*
X589194Y66500D01*
Y60500D01*
X589351Y59713D01*
X589796Y59047D01*
X590463Y58601D01*
X591250Y58444D01*
X598750D01*
X599537Y58601D01*
X600204Y59047D01*
X600649Y59713D01*
X600806Y60500D01*
Y65649D01*
X603083Y67926D01*
X604070Y67829D01*
X604109Y67734D01*
X605234Y66609D01*
X606704Y66000D01*
X608296D01*
X609766Y66609D01*
X609968Y66811D01*
X610984Y66390D01*
X610984Y65484D01*
X610984Y64468D01*
Y55984D01*
X620109D01*
X622563Y53531D01*
X623229Y53085D01*
X624016Y52929D01*
X650734D01*
X650734Y52929D01*
X651521Y53085D01*
X652188Y53531D01*
X657101Y58444D01*
X663750D01*
X664537Y58601D01*
X665203Y59047D01*
X665649Y59713D01*
X665806Y60500D01*
Y61445D01*
X669194D01*
Y60500D01*
X669351Y59713D01*
X669797Y59047D01*
X670463Y58601D01*
X671250Y58444D01*
X678750D01*
X679710Y57600D01*
Y56452D01*
X633546Y10288D01*
X633101Y9621D01*
X632944Y8835D01*
X632944Y8834D01*
Y5392D01*
X631928Y4971D01*
X630846Y6054D01*
X629120Y7050D01*
X627196Y7566D01*
X625204D01*
X623280Y7050D01*
X622504Y6603D01*
X582056Y47051D01*
Y58444D01*
X583750D01*
X584537Y58601D01*
X585204Y59047D01*
X585649Y59713D01*
X585806Y60500D01*
Y66500D01*
X585649Y67287D01*
X585204Y67954D01*
X584537Y68399D01*
X583750Y68555D01*
X576250D01*
X575463Y68399D01*
X574796Y67954D01*
X574351Y67287D01*
X574194Y66500D01*
Y60500D01*
X574351Y59713D01*
X574796Y59047D01*
X575463Y58601D01*
X576250Y58444D01*
X577944D01*
Y46200D01*
X577944Y46200D01*
X578101Y45413D01*
X578546Y44746D01*
X619597Y3696D01*
X619150Y2920D01*
X618634Y996D01*
Y-996D01*
X619150Y-2920D01*
X620146Y-4646D01*
X620995Y-5494D01*
X620574Y-6510D01*
X610217D01*
X607403Y-3696D01*
X607850Y-2920D01*
X608366Y-996D01*
Y996D01*
X607850Y2920D01*
X606854Y4646D01*
X605446Y6054D01*
X603720Y7050D01*
X601796Y7566D01*
X599804D01*
X597880Y7050D01*
X596154Y6054D01*
X594746Y4646D01*
X593750Y2920D01*
X593234Y996D01*
Y-996D01*
X593750Y-2920D01*
X594746Y-4646D01*
X596154Y-6054D01*
X597880Y-7050D01*
X599804Y-7566D01*
X601796D01*
X603720Y-7050D01*
X604496Y-6603D01*
X607912Y-10020D01*
X608579Y-10465D01*
X609366Y-10622D01*
X609366Y-10622D01*
X629748D01*
X629748Y-10622D01*
X630535Y-10465D01*
X631202Y-10020D01*
X636453Y-4768D01*
X636454Y-4768D01*
X636899Y-4101D01*
X637056Y-3314D01*
Y7983D01*
X683219Y54147D01*
X683220Y54147D01*
X683665Y54814D01*
X683821Y55601D01*
X683821Y55601D01*
Y70484D01*
X683821Y70484D01*
X683665Y71271D01*
X683220Y71937D01*
X680806Y74351D01*
Y79500D01*
X680649Y80287D01*
X680203Y80954D01*
X679537Y81399D01*
X678750Y81556D01*
X671250D01*
X670463Y81399D01*
X669797Y80954D01*
X669351Y80287D01*
X669194Y79500D01*
Y73500D01*
X669351Y72713D01*
X669797Y72046D01*
X670463Y71601D01*
X671250Y71445D01*
X677899D01*
X679144Y70199D01*
X679105Y68868D01*
X678750Y68555D01*
X671250D01*
X670463Y68399D01*
X669797Y67954D01*
X669351Y67287D01*
X669194Y66500D01*
Y65556D01*
X665806D01*
Y66500D01*
X665649Y67287D01*
X665203Y67954D01*
X664537Y68399D01*
X663750Y68555D01*
X656250D01*
X655463Y68399D01*
X654797Y67954D01*
X654351Y67287D01*
X654194Y66500D01*
Y61351D01*
X650032Y57189D01*
X649016Y57400D01*
Y64468D01*
X649016Y65016D01*
X649016D01*
Y65484D01*
X649016D01*
Y69492D01*
X643000D01*
Y70508D01*
X649016D01*
Y74516D01*
X649016D01*
Y74984D01*
X649016D01*
Y84016D01*
X640399D01*
X640011Y84955D01*
X643000Y87944D01*
X690000D01*
X690000Y87944D01*
X690787Y88101D01*
X691453Y88546D01*
X738953Y136046D01*
X738953Y136046D01*
X739399Y136713D01*
X739556Y137500D01*
X739556Y137500D01*
Y174022D01*
X739766Y174109D01*
X740891Y175234D01*
X741500Y176704D01*
Y178296D01*
X740891Y179766D01*
X739766Y180891D01*
X738296Y181500D01*
D02*
G37*
G36*
X663750Y81556D02*
X660508D01*
Y77008D01*
X665806D01*
Y79500D01*
X665649Y80287D01*
X665203Y80954D01*
X664537Y81399D01*
X663750Y81556D01*
D02*
G37*
G36*
X659492D02*
X656250D01*
X655463Y81399D01*
X654797Y80954D01*
X654351Y80287D01*
X654194Y79500D01*
Y77008D01*
X659492D01*
Y81556D01*
D02*
G37*
G36*
X665806Y75992D02*
X660508D01*
Y71445D01*
X663750D01*
X664537Y71601D01*
X665203Y72046D01*
X665649Y72713D01*
X665806Y73500D01*
Y75992D01*
D02*
G37*
G36*
X659492D02*
X654194D01*
Y73500D01*
X654351Y72713D01*
X654797Y72046D01*
X655463Y71601D01*
X656250Y71445D01*
X659492D01*
Y75992D01*
D02*
G37*
G36*
X1167Y78866D02*
X508D01*
Y70508D01*
X8866D01*
Y71167D01*
X8262Y73422D01*
X7095Y75444D01*
X5444Y77095D01*
X3422Y78262D01*
X1167Y78866D01*
D02*
G37*
G36*
X-508D02*
X-1167D01*
X-3422Y78262D01*
X-5444Y77095D01*
X-7095Y75444D01*
X-8262Y73422D01*
X-8866Y71167D01*
Y70508D01*
X-508D01*
Y78866D01*
D02*
G37*
G36*
X8866Y69492D02*
X508D01*
Y61134D01*
X1167D01*
X3422Y61738D01*
X5444Y62905D01*
X7095Y64556D01*
X8262Y66578D01*
X8866Y68833D01*
Y69492D01*
D02*
G37*
G36*
X-508D02*
X-8866D01*
Y68833D01*
X-8262Y66578D01*
X-7095Y64556D01*
X-5444Y62905D01*
X-3422Y61738D01*
X-1167Y61134D01*
X-508D01*
Y69492D01*
D02*
G37*
G36*
X290796Y11500D02*
X289204D01*
X287734Y10891D01*
X286879Y10036D01*
X286250Y9864D01*
X285621Y10036D01*
X284766Y10891D01*
X283296Y11500D01*
X281704D01*
X280234Y10891D01*
X279109Y9766D01*
X278500Y8296D01*
Y6704D01*
X279109Y5234D01*
X280234Y4109D01*
X281704Y3500D01*
X283296D01*
X284766Y4109D01*
X285621Y4964D01*
X286250Y5136D01*
X286879Y4964D01*
X287734Y4109D01*
X289204Y3500D01*
X290796D01*
X292266Y4109D01*
X293391Y5234D01*
X294000Y6704D01*
Y8296D01*
X293391Y9766D01*
X292266Y10891D01*
X290796Y11500D01*
D02*
G37*
G36*
X722168Y27540D02*
X721270D01*
Y1270D01*
X747540D01*
Y2167D01*
X746862Y6449D01*
X745522Y10572D01*
X743554Y14434D01*
X741006Y17941D01*
X737941Y21006D01*
X734434Y23554D01*
X730572Y25522D01*
X726449Y26862D01*
X722168Y27540D01*
D02*
G37*
G36*
X718730D02*
X717832D01*
X713551Y26862D01*
X709428Y25522D01*
X705566Y23554D01*
X702059Y21006D01*
X698994Y17941D01*
X696446Y14434D01*
X694478Y10572D01*
X693138Y6449D01*
X692460Y2167D01*
Y1270D01*
X718730D01*
Y27540D01*
D02*
G37*
G36*
X2167D02*
X1270D01*
Y1270D01*
X27540D01*
Y2167D01*
X26862Y6449D01*
X25522Y10572D01*
X23554Y14434D01*
X21006Y17941D01*
X17941Y21006D01*
X14434Y23554D01*
X10572Y25522D01*
X6449Y26862D01*
X2167Y27540D01*
D02*
G37*
G36*
X-1270D02*
X-2167D01*
X-6449Y26862D01*
X-10572Y25522D01*
X-14434Y23554D01*
X-17941Y21006D01*
X-21006Y17941D01*
X-23554Y14434D01*
X-25522Y10572D01*
X-26862Y6449D01*
X-27540Y2167D01*
Y1270D01*
X-1270D01*
Y27540D01*
D02*
G37*
G36*
X659166Y7566D02*
X644034D01*
Y-7566D01*
X659166D01*
Y7566D01*
D02*
G37*
G36*
X576396D02*
X574404D01*
X572480Y7050D01*
X570754Y6054D01*
X569346Y4646D01*
X568350Y2920D01*
X567834Y996D01*
Y-996D01*
X568350Y-2920D01*
X569346Y-4646D01*
X570754Y-6054D01*
X572480Y-7050D01*
X574404Y-7566D01*
X576396D01*
X578320Y-7050D01*
X580046Y-6054D01*
X581454Y-4646D01*
X582450Y-2920D01*
X582966Y-996D01*
Y996D01*
X582450Y2920D01*
X581454Y4646D01*
X580046Y6054D01*
X578320Y7050D01*
X576396Y7566D01*
D02*
G37*
G36*
X550996D02*
X549004D01*
X547080Y7050D01*
X545354Y6054D01*
X543946Y4646D01*
X542950Y2920D01*
X542434Y996D01*
Y-996D01*
X542950Y-2920D01*
X543946Y-4646D01*
X545354Y-6054D01*
X547080Y-7050D01*
X549004Y-7566D01*
X550996D01*
X552920Y-7050D01*
X554646Y-6054D01*
X556054Y-4646D01*
X557050Y-2920D01*
X557566Y-996D01*
Y996D01*
X557050Y2920D01*
X556054Y4646D01*
X554646Y6054D01*
X552920Y7050D01*
X550996Y7566D01*
D02*
G37*
G36*
X525596D02*
X523604D01*
X521680Y7050D01*
X519954Y6054D01*
X518546Y4646D01*
X517550Y2920D01*
X517034Y996D01*
Y-996D01*
X517550Y-2920D01*
X518546Y-4646D01*
X519954Y-6054D01*
X521680Y-7050D01*
X523604Y-7566D01*
X525596D01*
X527520Y-7050D01*
X529246Y-6054D01*
X530654Y-4646D01*
X531650Y-2920D01*
X532166Y-996D01*
Y996D01*
X531650Y2920D01*
X530654Y4646D01*
X529246Y6054D01*
X527520Y7050D01*
X525596Y7566D01*
D02*
G37*
G36*
X500196D02*
X498204D01*
X496280Y7050D01*
X494554Y6054D01*
X493146Y4646D01*
X492150Y2920D01*
X491634Y996D01*
Y-996D01*
X492150Y-2920D01*
X493146Y-4646D01*
X494554Y-6054D01*
X496280Y-7050D01*
X498204Y-7566D01*
X500196D01*
X502120Y-7050D01*
X503846Y-6054D01*
X505254Y-4646D01*
X506250Y-2920D01*
X506766Y-996D01*
Y996D01*
X506250Y2920D01*
X505254Y4646D01*
X503846Y6054D01*
X502120Y7050D01*
X500196Y7566D01*
D02*
G37*
G36*
X474796D02*
X472804D01*
X470880Y7050D01*
X469154Y6054D01*
X467746Y4646D01*
X466750Y2920D01*
X466234Y996D01*
Y-996D01*
X466750Y-2920D01*
X467746Y-4646D01*
X469154Y-6054D01*
X470880Y-7050D01*
X472804Y-7566D01*
X474796D01*
X476720Y-7050D01*
X478446Y-6054D01*
X479854Y-4646D01*
X480850Y-2920D01*
X481366Y-996D01*
Y996D01*
X480850Y2920D01*
X479854Y4646D01*
X478446Y6054D01*
X476720Y7050D01*
X474796Y7566D01*
D02*
G37*
G36*
X449396D02*
X447404D01*
X445480Y7050D01*
X443754Y6054D01*
X442346Y4646D01*
X441350Y2920D01*
X440834Y996D01*
Y-996D01*
X441350Y-2920D01*
X442346Y-4646D01*
X443754Y-6054D01*
X445480Y-7050D01*
X447404Y-7566D01*
X449396D01*
X451320Y-7050D01*
X453046Y-6054D01*
X454454Y-4646D01*
X455450Y-2920D01*
X455966Y-996D01*
Y996D01*
X455450Y2920D01*
X454454Y4646D01*
X453046Y6054D01*
X451320Y7050D01*
X449396Y7566D01*
D02*
G37*
G36*
X373296Y224000D02*
X371704D01*
X370234Y223391D01*
X369109Y222266D01*
X368500Y220796D01*
Y219204D01*
X369109Y217734D01*
X370234Y216609D01*
X370644Y216439D01*
Y45400D01*
X370644Y45400D01*
X370801Y44613D01*
X371246Y43946D01*
X410084Y5109D01*
Y-8016D01*
X426116D01*
Y8016D01*
X412991D01*
X374756Y46251D01*
Y216605D01*
X374766Y216609D01*
X375891Y217734D01*
X376500Y219204D01*
Y220796D01*
X375891Y222266D01*
X374766Y223391D01*
X373296Y224000D01*
D02*
G37*
G36*
X393755Y8016D02*
X391645D01*
X389606Y7470D01*
X387778Y6414D01*
X386286Y4922D01*
X385230Y3094D01*
X384684Y1055D01*
Y-1055D01*
X385230Y-3094D01*
X386286Y-4922D01*
X387778Y-6414D01*
X389606Y-7470D01*
X391645Y-8016D01*
X393755D01*
X395794Y-7470D01*
X397622Y-6414D01*
X399114Y-4922D01*
X400170Y-3094D01*
X400716Y-1055D01*
Y1055D01*
X400170Y3094D01*
X399114Y4922D01*
X397622Y6414D01*
X395794Y7470D01*
X393755Y8016D01*
D02*
G37*
G36*
X747540Y-1270D02*
X721270D01*
Y-27540D01*
X722168D01*
X726449Y-26862D01*
X730572Y-25522D01*
X734434Y-23554D01*
X737941Y-21006D01*
X741006Y-17941D01*
X743554Y-14434D01*
X745522Y-10572D01*
X746862Y-6449D01*
X747540Y-2167D01*
Y-1270D01*
D02*
G37*
G36*
X718730D02*
X692460D01*
Y-2167D01*
X693138Y-6449D01*
X694478Y-10572D01*
X696446Y-14434D01*
X698994Y-17941D01*
X702059Y-21006D01*
X705566Y-23554D01*
X709428Y-25522D01*
X713551Y-26862D01*
X717832Y-27540D01*
X718730D01*
Y-1270D01*
D02*
G37*
G36*
X27540D02*
X1270D01*
Y-27540D01*
X2167D01*
X6449Y-26862D01*
X10572Y-25522D01*
X14434Y-23554D01*
X17941Y-21006D01*
X21006Y-17941D01*
X23554Y-14434D01*
X25522Y-10572D01*
X26862Y-6449D01*
X27540Y-2167D01*
Y-1270D01*
D02*
G37*
G36*
X-1270D02*
X-27540D01*
Y-2167D01*
X-26862Y-6449D01*
X-25522Y-10572D01*
X-23554Y-14434D01*
X-21006Y-17941D01*
X-17941Y-21006D01*
X-14434Y-23554D01*
X-10572Y-25522D01*
X-6449Y-26862D01*
X-2167Y-27540D01*
X-1270D01*
Y-1270D01*
D02*
G37*
%LPD*%
G36*
X662500Y395000D02*
X650000D01*
Y445000D01*
X645000D01*
Y465000D01*
X662500D01*
Y395000D01*
D02*
G37*
G36*
X637500Y415000D02*
X647500Y405000D01*
Y395000D01*
X627500D01*
X617500Y405000D01*
X627500Y415000D01*
Y440000D01*
X637500D01*
Y415000D01*
D02*
G37*
G36*
X342585Y355647D02*
X343220Y355012D01*
X343276Y354904D01*
X343170Y354371D01*
X343346Y353487D01*
X343846Y352737D01*
X344596Y352237D01*
X345480Y352061D01*
X346013Y352167D01*
X346121Y352111D01*
X346756Y351476D01*
X346811Y351368D01*
X346705Y350835D01*
X346881Y349951D01*
X347382Y349202D01*
X348131Y348701D01*
X349016Y348525D01*
X349548Y348631D01*
X349656Y348576D01*
X350291Y347941D01*
X350347Y347833D01*
X350241Y347300D01*
X350417Y346416D01*
X350918Y345666D01*
X351667Y345165D01*
X352551Y344990D01*
X352602Y345000D01*
X352828Y343864D01*
X354173Y341851D01*
X356187Y340505D01*
X356334Y340476D01*
X356363Y340329D01*
X357709Y338315D01*
X359722Y336970D01*
X360858Y336744D01*
X360847Y336693D01*
X361023Y335809D01*
X361524Y335060D01*
X362274Y334559D01*
X363158Y334383D01*
X363691Y334489D01*
X363799Y334433D01*
X364433Y333799D01*
X364489Y333691D01*
X364383Y333158D01*
X364559Y332274D01*
X365060Y331524D01*
X365809Y331023D01*
X366693Y330847D01*
X366744Y330858D01*
X366970Y329722D01*
X368315Y327709D01*
X370329Y326363D01*
X370476Y326334D01*
X370505Y326187D01*
X371851Y324173D01*
X373864Y322828D01*
X375000Y322602D01*
X374990Y322551D01*
X375165Y321667D01*
X375666Y320918D01*
X376416Y320417D01*
X377300Y320241D01*
X377833Y320347D01*
X377941Y320291D01*
X378575Y319657D01*
X378631Y319548D01*
X378525Y319016D01*
X378701Y318132D01*
X379202Y317382D01*
X379951Y316881D01*
X380835Y316705D01*
X381368Y316811D01*
X381476Y316756D01*
X382111Y316121D01*
X382167Y316013D01*
X382061Y315480D01*
X382236Y314596D01*
X382737Y313846D01*
X383487Y313346D01*
X384371Y313170D01*
X384904Y313276D01*
X385012Y313220D01*
X385647Y312585D01*
X385702Y312477D01*
X385596Y311945D01*
X385772Y311061D01*
X386273Y310311D01*
Y309689D01*
X385772Y308940D01*
X385596Y308055D01*
X385702Y307523D01*
X385647Y307415D01*
X385012Y306780D01*
X384904Y306724D01*
X384371Y306830D01*
X383487Y306654D01*
X382737Y306154D01*
X382236Y305404D01*
X382061Y304520D01*
X382167Y303987D01*
X382111Y303879D01*
X381476Y303244D01*
X381368Y303189D01*
X380835Y303295D01*
X379951Y303119D01*
X379202Y302618D01*
X378701Y301869D01*
X378525Y300984D01*
X378535Y300934D01*
X377400Y300708D01*
X375386Y299363D01*
X374041Y297349D01*
X374012Y297202D01*
X373864Y297172D01*
X371851Y295827D01*
X370505Y293813D01*
X370280Y292678D01*
X370229Y292688D01*
X369345Y292512D01*
X368595Y292012D01*
X368094Y291262D01*
X367919Y290378D01*
X368024Y289845D01*
X367969Y289737D01*
X367334Y289102D01*
X367226Y289047D01*
X366693Y289153D01*
X365809Y288977D01*
X365060Y288476D01*
X364559Y287726D01*
X364383Y286842D01*
X364393Y286792D01*
X363258Y286566D01*
X361244Y285220D01*
X359899Y283207D01*
X359869Y283060D01*
X359722Y283030D01*
X357709Y281685D01*
X356363Y279671D01*
X356138Y278536D01*
X356087Y278546D01*
X355202Y278370D01*
X354453Y277869D01*
X353952Y277120D01*
X353776Y276236D01*
X353882Y275703D01*
X353827Y275595D01*
X353192Y274960D01*
X353084Y274905D01*
X352551Y275011D01*
X351667Y274835D01*
X350918Y274334D01*
X350417Y273584D01*
X350241Y272700D01*
X350347Y272167D01*
X350291Y272059D01*
X349656Y271425D01*
X349548Y271369D01*
X349016Y271475D01*
X348131Y271299D01*
X347382Y270798D01*
X346881Y270049D01*
X346705Y269165D01*
X346811Y268632D01*
X346756Y268524D01*
X346121Y267889D01*
X346013Y267833D01*
X345480Y267939D01*
X344596Y267764D01*
X343846Y267263D01*
X343346Y266513D01*
X343170Y265629D01*
X343276Y265096D01*
X343220Y264988D01*
X342585Y264354D01*
X342477Y264298D01*
X341945Y264404D01*
X341060Y264228D01*
X340726Y264005D01*
X340000Y263810D01*
X339274Y264005D01*
X338940Y264228D01*
X338055Y264404D01*
X337523Y264298D01*
X337415Y264354D01*
X336780Y264988D01*
X336724Y265096D01*
X336830Y265629D01*
X336655Y266513D01*
X336154Y267263D01*
X335404Y267764D01*
X334520Y267939D01*
X334469Y267929D01*
X334243Y269065D01*
X332898Y271078D01*
X330885Y272424D01*
X330737Y272453D01*
X330708Y272600D01*
X329362Y274614D01*
X327349Y275959D01*
X326214Y276185D01*
X326224Y276236D01*
X326048Y277120D01*
X325547Y277869D01*
X324798Y278370D01*
X323913Y278546D01*
X323381Y278440D01*
X323272Y278496D01*
X322638Y279130D01*
X322582Y279238D01*
X322688Y279771D01*
X322512Y280655D01*
X322011Y281405D01*
X321262Y281906D01*
X320378Y282082D01*
X320327Y282071D01*
X320101Y283207D01*
X318756Y285220D01*
X316742Y286566D01*
X316595Y286595D01*
X316566Y286742D01*
X315220Y288756D01*
X313207Y290101D01*
X313060Y290131D01*
X313030Y290278D01*
X311685Y292291D01*
X309671Y293637D01*
X309524Y293666D01*
X309495Y293813D01*
X308149Y295827D01*
X306136Y297172D01*
X305988Y297202D01*
X305959Y297349D01*
X304614Y299363D01*
X302600Y300708D01*
X302453Y300737D01*
X302424Y300885D01*
X301078Y302898D01*
X299065Y304243D01*
X298917Y304273D01*
X298888Y304420D01*
X297543Y306434D01*
X295529Y307779D01*
X295382Y307808D01*
X295352Y307956D01*
X294007Y309969D01*
X293949Y310008D01*
X293727Y310311D01*
X294228Y311061D01*
X294404Y311945D01*
X294298Y312477D01*
X294354Y312585D01*
X294988Y313220D01*
X295096Y313276D01*
X295629Y313170D01*
X296513Y313346D01*
X297263Y313846D01*
X297764Y314596D01*
X297939Y315480D01*
X297833Y316013D01*
X297889Y316121D01*
X298524Y316756D01*
X298632Y316811D01*
X299165Y316705D01*
X300049Y316881D01*
X300798Y317382D01*
X301299Y318132D01*
X301475Y319016D01*
X301369Y319548D01*
X301425Y319657D01*
X302059Y320291D01*
X302167Y320347D01*
X302700Y320241D01*
X303584Y320417D01*
X304334Y320918D01*
X304835Y321667D01*
X305011Y322551D01*
X304905Y323084D01*
X304960Y323192D01*
X305595Y323827D01*
X305703Y323882D01*
X306236Y323776D01*
X307120Y323952D01*
X307869Y324453D01*
X308370Y325203D01*
X308546Y326087D01*
X308440Y326620D01*
X308496Y326728D01*
X309130Y327362D01*
X309238Y327418D01*
X309771Y327312D01*
X310655Y327488D01*
X311405Y327989D01*
X311906Y328738D01*
X312082Y329622D01*
X311976Y330155D01*
X312031Y330263D01*
X312666Y330898D01*
X312774Y330953D01*
X313307Y330847D01*
X314191Y331023D01*
X314940Y331524D01*
X315441Y332274D01*
X315617Y333158D01*
X315511Y333691D01*
X315567Y333799D01*
X316201Y334433D01*
X316309Y334489D01*
X316842Y334383D01*
X317726Y334559D01*
X318476Y335060D01*
X318977Y335809D01*
X319153Y336693D01*
X319047Y337226D01*
X319102Y337334D01*
X319737Y337969D01*
X319845Y338024D01*
X320378Y337919D01*
X321262Y338094D01*
X322011Y338595D01*
X322512Y339345D01*
X322688Y340229D01*
X322582Y340762D01*
X322638Y340870D01*
X323273Y341504D01*
X323381Y341560D01*
X323913Y341454D01*
X324798Y341630D01*
X325547Y342131D01*
X326048Y342880D01*
X326224Y343764D01*
X326118Y344297D01*
X326173Y344405D01*
X326808Y345040D01*
X326916Y345096D01*
X327449Y344990D01*
X328333Y345165D01*
X329083Y345666D01*
X329583Y346416D01*
X329759Y347300D01*
X329653Y347833D01*
X329709Y347941D01*
X330344Y348576D01*
X330452Y348631D01*
X330984Y348525D01*
X331869Y348701D01*
X332618Y349202D01*
X332693Y349314D01*
X333979Y349465D01*
X334222Y349222D01*
X335000Y348900D01*
X335778Y349222D01*
X340778Y354222D01*
X341100Y355000D01*
X341849Y355615D01*
X341945Y355596D01*
X342477Y355702D01*
X342585Y355647D01*
D02*
G37*
G36*
X337734Y374109D02*
X337944Y374022D01*
Y372500D01*
X337944Y372500D01*
X338075Y371844D01*
X338101Y371713D01*
X338547Y371047D01*
X340000Y369593D01*
Y360000D01*
Y359075D01*
X339810Y358791D01*
X339634Y357906D01*
X339810Y357022D01*
X340000Y356738D01*
Y355000D01*
X335000Y350000D01*
X332794Y352206D01*
X332618Y352469D01*
X327668Y357419D01*
X326919Y357920D01*
X326035Y358096D01*
X325150Y357920D01*
X324522Y357500D01*
X315000D01*
Y365000D01*
X325000Y375000D01*
X336843D01*
X337734Y374109D01*
D02*
G37*
G36*
X545000Y330000D02*
X525000D01*
Y315000D01*
X505000D01*
Y346400D01*
X512500D01*
X513278Y346722D01*
X513600Y347500D01*
Y362500D01*
X545000D01*
Y330000D01*
D02*
G37*
G36*
X512500Y347500D02*
X495000D01*
Y315000D01*
X482500D01*
Y362500D01*
X512500D01*
Y347500D01*
D02*
G37*
G36*
X525000Y290000D02*
X545000D01*
Y257500D01*
X513600D01*
Y272500D01*
X513278Y273278D01*
X512500Y273600D01*
X505000D01*
Y305000D01*
X525000D01*
Y290000D01*
D02*
G37*
G36*
X495000Y272500D02*
X512500D01*
Y257500D01*
X482500D01*
Y305000D01*
X495000D01*
Y272500D01*
D02*
G37*
G36*
X647500Y215000D02*
X637500Y205000D01*
Y180000D01*
X627500D01*
Y205000D01*
X617500Y215000D01*
X627500Y225000D01*
X647500D01*
Y215000D01*
D02*
G37*
G36*
X662500Y155000D02*
X645000D01*
Y175000D01*
X650000D01*
Y225000D01*
X662500D01*
Y155000D01*
D02*
G37*
%LPC*%
G36*
X340000Y344671D02*
X323024Y327695D01*
X340000Y310719D01*
X356976Y327695D01*
X340000Y344671D01*
D02*
G37*
G36*
X357695Y326976D02*
X340719Y310000D01*
X357695Y293024D01*
X374671Y310000D01*
X357695Y326976D01*
D02*
G37*
G36*
X322306Y326977D02*
X305329Y310000D01*
X322305Y293024D01*
X339282Y310000D01*
X322306Y326977D01*
D02*
G37*
G36*
X340000Y309282D02*
X323024Y292305D01*
X340000Y275329D01*
X356977Y292306D01*
X340000Y309282D01*
D02*
G37*
%LPD*%
D11*
X385557Y352022D02*
X389522D01*
X390000Y352500D01*
X369168Y335633D02*
X385557Y352022D01*
X365000Y257500D02*
Y267322D01*
X358562Y273761D02*
X365000Y267322D01*
X320000Y247500D02*
X320115Y247615D01*
Y251224D02*
X332045Y263154D01*
X320115Y247615D02*
Y251224D01*
X378522Y354522D02*
X379000Y355000D01*
X365633Y339168D02*
X378522Y352057D01*
Y354522D01*
X379522Y270478D02*
X380000Y270000D01*
X369168Y284368D02*
X379522Y274014D01*
Y270478D02*
Y274014D01*
X387022Y270478D02*
X387500Y270000D01*
X387022Y270478D02*
Y273585D01*
X372704Y287903D02*
X387022Y273585D01*
D14*
X669000Y130000D02*
X722500Y183500D01*
X531508Y143308D02*
X544816Y130000D01*
X543567Y126984D02*
X670249D01*
X725516Y182251D01*
X528492Y142059D02*
X543567Y126984D01*
X544816Y130000D02*
X669000D01*
X722500Y183500D02*
Y397500D01*
X725516Y182251D02*
Y398749D01*
X690000Y90000D02*
X737500Y137500D01*
X642149Y90000D02*
X690000D01*
X635984Y83835D02*
X642149Y90000D01*
X737500Y137500D02*
Y177500D01*
X635984Y65665D02*
Y83835D01*
Y65665D02*
X637235Y64414D01*
X637586D01*
X641500Y60500D01*
X643000D01*
X629748Y-8566D02*
X635000Y-3314D01*
Y8835D02*
X681766Y55601D01*
X635000Y-3314D02*
Y8835D01*
X675000Y76500D02*
X675750D01*
X681766Y70484D01*
Y55601D02*
Y70484D01*
X609366Y-8566D02*
X629748D01*
X600800Y0D02*
X609366Y-8566D01*
X580000Y46200D02*
X626200Y0D01*
X580000Y46200D02*
Y63500D01*
X372700Y45400D02*
X418100Y0D01*
X666508Y551508D02*
X680000Y565000D01*
X666508Y543492D02*
Y551508D01*
X680000Y565000D02*
X727500D01*
X663492Y552757D02*
X678751Y568016D01*
X666508Y543492D02*
X670000Y540000D01*
X678751Y568016D02*
X728749D01*
X660000Y540000D02*
X663492Y543492D01*
Y552757D01*
X728749Y568016D02*
X738016Y558749D01*
Y511251D02*
Y558749D01*
X722133Y495367D02*
X738016Y511251D01*
X727500Y565000D02*
X735000Y557500D01*
Y512500D02*
Y557500D01*
X718249Y548516D02*
X723016Y543749D01*
X690000Y540000D02*
X690812D01*
X692270Y541458D02*
X692320D01*
X693492Y545535D02*
X696473Y548516D01*
X692320Y541458D02*
X693492Y542629D01*
Y545535D01*
X696473Y548516D02*
X718249D01*
X690812Y540000D02*
X692270Y541458D01*
X674267Y465001D02*
X723016Y513751D01*
Y543749D01*
X717000Y545500D02*
X717500Y545000D01*
Y545000D02*
Y545000D01*
X696508Y544286D02*
X697722Y545500D01*
X696508Y542629D02*
X697680Y541458D01*
X697730D02*
X699188Y540000D01*
X697722Y545500D02*
X717000D01*
X699188Y540000D02*
X700000D01*
X696508Y542629D02*
Y544286D01*
X697680Y541458D02*
X697730D01*
X717500Y545000D02*
X720000Y542500D01*
Y515000D02*
Y542500D01*
X591751Y548516D02*
X603527D01*
X606508Y545535D01*
X607730Y541458D02*
X609188Y540000D01*
X606508Y542629D02*
Y545535D01*
X563805Y520570D02*
X591751Y548516D01*
X606508Y542629D02*
X607680Y541458D01*
X607730D01*
X609188Y540000D02*
X610000D01*
X600812D02*
X602270Y541458D01*
X602320D02*
X603492Y542629D01*
Y544286D01*
X602278Y545500D02*
X603492Y544286D01*
X593000Y545500D02*
X602278D01*
X602270Y541458D02*
X602320D01*
X600000Y540000D02*
X600812D01*
X566821Y519321D02*
X593000Y545500D01*
X563805Y473805D02*
Y520570D01*
X566821Y472556D02*
Y519321D01*
X531508Y473492D02*
Y504008D01*
X588751Y565516D02*
X616527D01*
X528492Y473492D02*
Y505257D01*
X590000Y562500D02*
X615278D01*
X531508Y504008D02*
X590000Y562500D01*
X528492Y505257D02*
X588751Y565516D01*
X635288Y543801D02*
X636460Y542629D01*
X630000Y540400D02*
X632272Y542672D01*
Y545506D01*
X615278Y562500D02*
X632272Y545506D01*
X635288Y543801D02*
Y546755D01*
X630000Y540000D02*
Y540400D01*
X636460Y542629D02*
X636508D01*
X616527Y565516D02*
X635288Y546755D01*
X637680Y541458D02*
X637730D01*
X639188Y540000D01*
X640000D01*
X636508Y542629D02*
X637680Y541458D01*
X617500Y650000D02*
X627500D01*
X613016Y645516D02*
X617500Y650000D01*
X273751Y645516D02*
X613016D01*
X244484Y616249D02*
X273751Y645516D01*
X247500Y615000D02*
X275000Y642500D01*
X620000D01*
X272500Y537500D02*
X356500Y453500D01*
Y400000D02*
Y453500D01*
X244484Y506984D02*
Y616249D01*
X247500Y505200D02*
Y615000D01*
X67300Y325000D02*
X247500Y505200D01*
X72500Y335000D02*
X244484Y506984D01*
X618500Y60500D02*
X624016Y54984D01*
X650734D01*
X617000Y60500D02*
X618500D01*
X674000Y63500D02*
X675000Y62500D01*
X660000Y63500D02*
X674000D01*
X658250Y62500D02*
X660000D01*
X650734Y54984D02*
X658250Y62500D01*
X710516Y191251D02*
Y393749D01*
X666249Y146984D02*
X710516Y191251D01*
X565973Y146984D02*
X666249D01*
X707500Y192500D02*
Y392500D01*
X567222Y150000D02*
X665000D01*
X707500Y192500D01*
X531508Y185714D02*
X567222Y150000D01*
X528492Y184465D02*
X565973Y146984D01*
X671251Y428749D02*
X707500Y392500D01*
X674267Y429999D02*
X710516Y393749D01*
X671251Y428749D02*
Y466251D01*
X674267Y429999D02*
Y465001D01*
X684484Y435516D02*
X722500Y397500D01*
X684484Y435516D02*
Y461984D01*
X687500Y436765D02*
X725516Y398749D01*
X687500Y436765D02*
Y460735D01*
X671251Y466251D02*
X720000Y515000D01*
X719117Y496617D02*
X735000Y512500D01*
X687500Y460735D02*
X722133Y495367D01*
X687500Y460735D02*
X687500D01*
X684484Y461984D02*
X686251Y463751D01*
X722133Y495367D02*
Y495367D01*
X686251Y463751D02*
X719117Y496617D01*
X686251Y463751D02*
X686251D01*
X719117Y496617D02*
Y496617D01*
X528492Y142059D02*
Y146508D01*
X525000Y150000D02*
X528492Y146508D01*
X531508Y143308D02*
Y146508D01*
X535000Y150000D01*
X525812Y190000D02*
X527270Y188542D01*
X528492Y184465D02*
Y187371D01*
X527270Y188542D02*
X527320D01*
X525000Y190000D02*
X525812D01*
X527320Y188542D02*
X528492Y187371D01*
X531508Y187371D02*
X532680Y188542D01*
X534188Y190000D02*
X535000D01*
X531508Y185714D02*
Y187371D01*
X532730Y188542D02*
X534188Y190000D01*
X532680Y188542D02*
X532730D01*
X531508Y437243D02*
X565054Y470789D01*
X563805Y473805D02*
X563805D01*
X565054Y470789D02*
X566821Y472556D01*
X531508Y433492D02*
Y437243D01*
X528492Y438492D02*
X563805Y473805D01*
X528492Y433492D02*
Y438492D01*
X565054Y470789D02*
X565054D01*
X525000Y430000D02*
X528492Y433492D01*
X531508Y433492D02*
X535000Y430000D01*
X525000Y470000D02*
X528492Y473492D01*
X531508Y473492D02*
X535000Y470000D01*
X607500Y70000D02*
X617000D01*
X602250D02*
X607500D01*
X595750Y63500D02*
X602250Y70000D01*
X595000Y63500D02*
X595750D01*
X595000Y76500D02*
X598000Y79500D01*
X617000D01*
X580000Y76500D02*
X595000D01*
X365000Y229250D02*
Y257500D01*
X356500Y220750D02*
X365000Y229250D01*
X356500Y220000D02*
Y220750D01*
X405430Y320430D02*
X410000Y325000D01*
X406894Y316894D02*
X409436Y319436D01*
X414372D02*
X414936Y320000D01*
X409436Y319436D02*
X414372D01*
X372700Y45400D02*
Y220000D01*
X95716Y280716D02*
X101716Y286716D01*
Y302835D01*
X95716Y241451D02*
Y280716D01*
X92700Y242700D02*
Y295000D01*
X83684Y233684D02*
X92700Y242700D01*
X83684Y204016D02*
Y233684D01*
X92700Y238435D02*
X95716Y241451D01*
X92700Y225000D02*
Y238435D01*
Y311851D02*
Y325000D01*
Y311851D02*
X101716Y302835D01*
X83684Y204016D02*
X92700Y195000D01*
X342016Y237751D02*
Y253680D01*
X346024Y257688D02*
Y258014D01*
X342016Y253680D02*
X346024Y257688D01*
X311984Y229984D02*
X334249D01*
X342016Y237751D01*
X333000Y233000D02*
X339000Y239000D01*
Y256199D01*
X310735Y233000D02*
X333000D01*
X344420Y259619D02*
X346024Y258014D01*
X335581Y259619D02*
X339000Y256199D01*
X310000Y228000D02*
X311984Y229984D01*
X306984Y229249D02*
X310735Y233000D01*
X310000Y195000D02*
Y228000D01*
X306984Y196984D02*
Y229249D01*
X274000Y159000D02*
X310000Y195000D01*
X272016Y162016D02*
X306984Y196984D01*
X58284Y215984D02*
X67300Y225000D01*
X58284Y191266D02*
Y215984D01*
Y191266D02*
X90566Y158984D01*
X245984D01*
X246000Y159000D01*
X274000D01*
X100300Y162000D02*
X244735D01*
X244751Y162016D02*
X272016D01*
X244735Y162000D02*
X244751Y162016D01*
X67300Y195000D02*
X100300Y162000D01*
X64549Y335000D02*
X72500D01*
X58284Y328735D02*
X64549Y335000D01*
X58284Y304016D02*
Y328735D01*
Y304016D02*
X67300Y295000D01*
X392856Y316894D02*
X406894D01*
X409426Y334426D02*
X410000Y335000D01*
X405426Y334426D02*
X409426D01*
X400000Y329000D02*
X405426Y334426D01*
X383884Y329000D02*
X400000D01*
X379910Y325026D02*
X383884Y329000D01*
X379775Y325026D02*
X379910D01*
X383446Y321491D02*
X386955Y325000D01*
X402000D01*
X383310Y321491D02*
X383446D01*
X390381Y314419D02*
X392856Y316894D01*
X407000Y330000D02*
X415000D01*
X402000Y325000D02*
X407000Y330000D01*
X389321Y320430D02*
X405430D01*
X386846Y317955D02*
X389321Y320430D01*
X414000Y291000D02*
X420000Y285000D01*
X433500D02*
X443500Y275000D01*
X420000Y285000D02*
X433500D01*
X390820Y291000D02*
X414000D01*
X383310Y298510D02*
X390820Y291000D01*
X390819Y299475D02*
X393911Y296383D01*
X395160Y299399D02*
X402478D01*
X414587Y311508D01*
X421508D02*
X425000Y315000D01*
X389416Y299475D02*
X390819D01*
X390381Y305581D02*
X392952Y303010D01*
X421508Y308492D02*
X425000Y305000D01*
X414587Y311508D02*
X421508D01*
X392952Y301607D02*
X395160Y299399D01*
X392952Y301607D02*
Y303010D01*
X393911Y296383D02*
X403728D01*
X415837Y308492D01*
X421508D01*
X331500Y400000D02*
X343500D01*
X340000Y372500D02*
Y377500D01*
X347500Y376688D02*
X350430Y373758D01*
X343500Y399250D02*
X360000Y382750D01*
X353965Y375654D02*
X355000Y376688D01*
Y377500D01*
X347500Y376688D02*
Y377500D01*
X353965Y356016D02*
Y375654D01*
X360000Y375000D02*
Y382750D01*
X357501Y372501D02*
X360000Y375000D01*
X355026Y349775D02*
X357501Y352250D01*
X351491Y353541D02*
X353965Y356016D01*
X344420Y360381D02*
Y360517D01*
X347264Y363361D01*
X347955Y356846D02*
X350430Y359321D01*
X351491Y353310D02*
Y353541D01*
X357501Y352250D02*
Y372501D01*
X340000Y372500D02*
X347264Y365236D01*
Y363361D02*
Y365236D01*
X386846Y302045D02*
X389416Y299475D01*
X437772Y311929D02*
X450429D01*
X458500Y320000D02*
Y321000D01*
X450429Y311929D02*
X458500Y320000D01*
X436468Y308968D02*
X437640Y307796D01*
X434225Y308968D02*
X436468D01*
X432500Y311508D02*
X432976Y311984D01*
X433749Y308492D02*
X434225Y308968D01*
X432976Y311984D02*
X437717D01*
X425000Y315000D02*
Y315214D01*
Y315000D02*
X428492Y311508D01*
X437640Y302861D02*
X441500Y299000D01*
X437640Y302861D02*
Y307796D01*
X425000Y304786D02*
Y305000D01*
X428492Y308492D01*
X437717Y311984D02*
X437772Y311929D01*
X428492Y311508D02*
X432500D01*
X428492Y308492D02*
X433749D01*
X361000Y238250D02*
Y254000D01*
X355026Y270090D02*
Y270225D01*
X343500Y220750D02*
X361000Y238250D01*
X347500Y242500D02*
Y243176D01*
X351491Y266555D02*
Y266690D01*
X350430Y246106D02*
Y260448D01*
X347955Y262923D02*
Y263154D01*
Y262923D02*
X350430Y260448D01*
X359000Y256000D02*
Y266116D01*
Y256000D02*
X361000Y254000D01*
X331500Y220000D02*
X343500D01*
Y220750D01*
X347500Y243176D02*
X350430Y246106D01*
X355000Y242500D02*
Y263045D01*
X355026Y270090D02*
X359000Y266116D01*
X351491Y266555D02*
X355000Y263045D01*
X350430Y359321D02*
Y373758D01*
X186350Y540000D02*
X195000D01*
X186350Y640000D02*
X195000D01*
X153650D02*
Y641550D01*
X157200Y645100D01*
X162350D01*
X176500Y659250D01*
Y660000D01*
X179000Y662500D02*
X185000D01*
X176500Y660000D02*
X179000Y662500D01*
X176500Y560000D02*
X179000Y562500D01*
X185000D01*
X176500Y559250D02*
Y560000D01*
X162350Y545100D02*
X176500Y559250D01*
X157200Y545100D02*
X162350D01*
X153650Y541550D02*
X157200Y545100D01*
X153650Y540000D02*
Y541550D01*
D20*
X425000Y324786D02*
D03*
Y295214D02*
D03*
Y315214D02*
D03*
Y304786D02*
D03*
D24*
X660000Y76500D02*
D03*
X580000D02*
D03*
Y63500D02*
D03*
X595000Y76500D02*
D03*
Y63500D02*
D03*
X675000D02*
D03*
Y76500D02*
D03*
X660000Y63500D02*
D03*
D25*
X535000Y321742D02*
D03*
Y298258D02*
D03*
Y338258D02*
D03*
Y281742D02*
D03*
D27*
X456500Y275000D02*
D03*
X318500Y400000D02*
D03*
X163500Y660000D02*
D03*
Y560000D02*
D03*
X318500Y220000D02*
D03*
X656500D02*
D03*
X356500D02*
D03*
Y400000D02*
D03*
X443500Y275000D02*
D03*
X643500Y220000D02*
D03*
X521500Y355000D02*
D03*
X508500D02*
D03*
X331500Y400000D02*
D03*
X343500D02*
D03*
X331500Y220000D02*
D03*
X521500Y265000D02*
D03*
X508500D02*
D03*
X343500Y220000D02*
D03*
X656500Y400000D02*
D03*
X643500D02*
D03*
X176500Y660000D02*
D03*
Y560000D02*
D03*
D57*
X10000Y610000D02*
D03*
Y510000D02*
D03*
X62000Y645000D02*
D03*
Y545000D02*
D03*
D58*
X35000Y440000D02*
D03*
D59*
X65000Y393000D02*
D03*
D60*
X0Y70000D02*
D03*
Y225000D02*
D03*
Y185000D02*
D03*
Y325000D02*
D03*
Y285000D02*
D03*
X480000Y680000D02*
D03*
Y610000D02*
D03*
Y540000D02*
D03*
X120000Y570000D02*
D03*
Y610000D02*
D03*
D64*
X651600Y0D02*
D03*
D66*
X473800D02*
D03*
X550000D02*
D03*
X524600D02*
D03*
X626200D02*
D03*
X575400D02*
D03*
X499200D02*
D03*
X448400D02*
D03*
X600800D02*
D03*
D68*
X95000Y440000D02*
D03*
D70*
X267972Y249163D02*
X304175Y285366D01*
X257428Y249163D02*
X267972D01*
X257428Y253337D02*
X266243D01*
X197428Y204163D02*
X265399D01*
X197428Y208337D02*
X263670D01*
X217428Y230837D02*
X257885D01*
X217428Y226663D02*
X259614D01*
X215765Y225000D02*
X217428Y226663D01*
X215000Y225000D02*
X215765D01*
X265399Y204163D02*
X325388Y264153D01*
X263670Y208337D02*
X322437Y267104D01*
X195765Y210000D02*
X197428Y208337D01*
X195765Y202500D02*
X197428Y204163D01*
X195000Y210000D02*
X195765D01*
X255765Y247500D02*
X257428Y249163D01*
X255000Y247500D02*
X255765D01*
X266243Y253337D02*
X301224Y288317D01*
X237428Y275837D02*
X274601D01*
X237428Y271663D02*
X276330D01*
X235765Y270000D02*
X237428Y271663D01*
X235000Y270000D02*
X235765D01*
X259614Y226663D02*
X311246Y278295D01*
X257885Y230837D02*
X308295Y281246D01*
X275000Y292500D02*
X275765D01*
X215000Y232500D02*
X215765D01*
X217428Y230837D01*
X325388Y264153D02*
X325972D01*
X195000Y202500D02*
X195765D01*
X325972Y264153D02*
X328510Y266690D01*
X322437Y267104D02*
Y267688D01*
X324974Y270225D01*
X311246Y278295D02*
X311830D01*
X314367Y280832D01*
X308295Y281830D02*
X310832Y284368D01*
X308295Y281246D02*
Y281830D01*
X304759Y285366D02*
X307296Y287903D01*
X304175Y285366D02*
X304759D01*
X255765Y255000D02*
X257428Y253337D01*
X255000Y255000D02*
X255765D01*
X301224Y288901D02*
X303761Y291439D01*
X301224Y288317D02*
Y288901D01*
X274601Y275837D02*
X294153Y295388D01*
X276330Y271663D02*
X297104Y292437D01*
X297688D01*
X300225Y294974D01*
X235000Y277500D02*
X235765D01*
X237428Y275837D01*
X294153Y295972D02*
X296690Y298510D01*
X294153Y295388D02*
Y295972D01*
X290033Y299508D02*
X290617D01*
X277428Y294163D02*
X284688D01*
X290617Y299508D02*
X293154Y302045D01*
X284688Y294163D02*
X290033Y299508D01*
X275765Y292500D02*
X277428Y294163D01*
X275765Y300000D02*
X277428Y298337D01*
X282959D01*
X287081Y302459D02*
Y303043D01*
X275000Y300000D02*
X275765D01*
X287081Y303043D02*
X289619Y305581D01*
X282959Y298337D02*
X287081Y302459D01*
X378479Y375431D02*
Y377232D01*
X367641Y364593D02*
X378479Y375431D01*
X377464Y378247D02*
Y381465D01*
X377616Y381616D01*
X377464Y378247D02*
X378479Y377232D01*
X401465Y354247D02*
X402479Y353232D01*
X401465Y354247D02*
Y357464D01*
X401616Y357616D01*
X411465Y347464D02*
X411616Y347616D01*
X405431Y348479D02*
X407232D01*
X408247Y347464D01*
X411465D01*
X402479Y351431D02*
Y353232D01*
X392445Y341397D02*
X402479Y351431D01*
X394174Y337223D02*
X405431Y348479D01*
X362097Y342704D02*
X364634Y345241D01*
Y345825D01*
X375825Y334634D02*
X382588Y341397D01*
X372704Y332097D02*
X375241Y334634D01*
X375825D01*
X382588Y341397D02*
X392445D01*
X384317Y337223D02*
X394174D01*
X378777Y331683D02*
X384317Y337223D01*
X361099Y348777D02*
X361683D01*
X364634Y345825D02*
X371815Y353006D01*
X361683Y348777D02*
X367641Y354735D01*
X358562Y346239D02*
X361099Y348777D01*
X381431Y372479D02*
X383232D01*
X371815Y362864D02*
X381431Y372479D01*
X387464Y371465D02*
X387616Y371616D01*
X384247Y371465D02*
X387464D01*
X383232Y372479D02*
X384247Y371465D01*
X367641Y354735D02*
Y364593D01*
X371815Y353006D02*
Y362864D01*
X378777Y331099D02*
Y331683D01*
X379775Y294974D02*
X382312Y292437D01*
X376239Y328562D02*
X378777Y331099D01*
X388288Y285877D02*
X398075D01*
X382312Y291853D02*
Y292437D01*
X376239Y291439D02*
X378777Y288901D01*
X379361D01*
X382312Y291853D02*
X388288Y285877D01*
X386559Y281703D02*
X396346D01*
X379361Y288901D02*
X386559Y281703D01*
X387747Y252036D02*
X390965D01*
X391116Y251884D01*
X370739Y259310D02*
X381979Y248069D01*
X374913Y261039D02*
X384931Y251021D01*
X386732D01*
X387747Y252036D01*
X381979Y246268D02*
Y248069D01*
X380965Y242036D02*
X381116Y241884D01*
X380965Y245253D02*
X381979Y246268D01*
X380965Y242036D02*
Y245253D01*
X364634Y274759D02*
X365218D01*
X362097Y277296D02*
X364634Y274759D01*
X370739Y259310D02*
Y269239D01*
X368170Y277711D02*
X374913Y270968D01*
Y261039D02*
Y270968D01*
X365218Y274759D02*
X370739Y269239D01*
X368170Y277711D02*
Y278295D01*
X414964Y276036D02*
X415116Y275884D01*
X404964Y269253D02*
X405979Y270268D01*
X411747Y276036D02*
X414964D01*
X410732Y275021D02*
X411747Y276036D01*
X408931Y275021D02*
X410732D01*
X405979Y270268D02*
Y272069D01*
X398075Y285877D02*
X408931Y275021D01*
X396346Y281703D02*
X405979Y272069D01*
X404964Y266036D02*
Y269253D01*
Y266036D02*
X405116Y265884D01*
X365633Y280832D02*
X368170Y278295D01*
D75*
X733435Y733435D02*
D03*
X720000Y739000D02*
D03*
X739000Y720000D02*
D03*
X706565Y733435D02*
D03*
X701000Y720000D02*
D03*
X733435Y706565D02*
D03*
X720000Y701000D02*
D03*
X706565Y706565D02*
D03*
X733435Y463435D02*
D03*
X720000Y469000D02*
D03*
X739000Y450000D02*
D03*
X706565Y463435D02*
D03*
Y436565D02*
D03*
X733435D02*
D03*
X720000Y431000D02*
D03*
X701000Y450000D02*
D03*
X720000Y19000D02*
D03*
X733435Y13435D02*
D03*
X706565D02*
D03*
X701000Y0D02*
D03*
X739000D02*
D03*
X733435Y-13435D02*
D03*
X706565D02*
D03*
X720000Y-19000D02*
D03*
X19000Y720000D02*
D03*
X13435Y733435D02*
D03*
X0Y739000D02*
D03*
X-13435Y706565D02*
D03*
Y733435D02*
D03*
X-19000Y720000D02*
D03*
X13435Y706565D02*
D03*
X0Y701000D02*
D03*
X13435Y13435D02*
D03*
X0Y19000D02*
D03*
X-13435Y13435D02*
D03*
X-19000Y0D02*
D03*
X19000D02*
D03*
X13435Y-13435D02*
D03*
X-13435D02*
D03*
X0Y-19000D02*
D03*
X195000Y170000D02*
D03*
X310000Y110000D02*
D03*
X735000Y660000D02*
D03*
X667500Y655000D02*
D03*
X685000D02*
D03*
X660000Y710000D02*
D03*
X685000Y637500D02*
D03*
X732500Y395000D02*
D03*
X660000Y510000D02*
D03*
X650000Y620000D02*
D03*
X670000Y395000D02*
D03*
X610000Y710000D02*
D03*
X630000Y640000D02*
D03*
X510000Y710000D02*
D03*
X560000D02*
D03*
X510000Y610000D02*
D03*
X560000D02*
D03*
X460000Y710000D02*
D03*
X410000D02*
D03*
X370000Y705000D02*
D03*
X350000D02*
D03*
X360000D02*
D03*
X460000Y610000D02*
D03*
X380000Y705000D02*
D03*
X535000Y560000D02*
D03*
X485000D02*
D03*
X510000Y510000D02*
D03*
X610000D02*
D03*
X530000Y450000D02*
D03*
X460000Y510000D02*
D03*
X430000Y400000D02*
D03*
X570000Y252500D02*
D03*
X670000Y225000D02*
D03*
X570000Y367500D02*
D03*
X560000Y310000D02*
D03*
X732500Y225000D02*
D03*
X530000Y170000D02*
D03*
X460000Y110000D02*
D03*
X440000Y225000D02*
D03*
Y217500D02*
D03*
X735000Y60000D02*
D03*
X660000Y110000D02*
D03*
X650000Y70000D02*
D03*
X510000Y110000D02*
D03*
X610000D02*
D03*
X485000Y60000D02*
D03*
X535000D02*
D03*
X347778Y325556D02*
D03*
X355556Y317778D02*
D03*
X363335Y310000D02*
D03*
X347778D02*
D03*
X385000Y160000D02*
D03*
X355556Y302222D02*
D03*
X347778Y294444D02*
D03*
X340000Y302222D02*
D03*
Y286665D02*
D03*
X360000Y10000D02*
D03*
X340000Y705000D02*
D03*
X330000D02*
D03*
X322500Y697500D02*
D03*
X320000Y655000D02*
D03*
X310000Y710000D02*
D03*
X260000D02*
D03*
X340000Y333335D02*
D03*
X332222Y325556D02*
D03*
X324444Y317778D02*
D03*
X340000D02*
D03*
X332222Y294444D02*
D03*
Y310000D02*
D03*
X324444Y302222D02*
D03*
X316665Y310000D02*
D03*
X275000Y307500D02*
D03*
X235000Y360000D02*
D03*
X260000Y310000D02*
D03*
X160000Y710000D02*
D03*
X110000D02*
D03*
X210000D02*
D03*
X60000D02*
D03*
X35000Y660000D02*
D03*
X60000Y610000D02*
D03*
X210000Y410000D02*
D03*
X160000Y510000D02*
D03*
X185000Y360000D02*
D03*
X135000Y460000D02*
D03*
Y360000D02*
D03*
X210000Y310000D02*
D03*
X235000Y285000D02*
D03*
X110000Y310000D02*
D03*
X160000D02*
D03*
X60000Y510000D02*
D03*
X35000Y560000D02*
D03*
X10000Y410000D02*
D03*
X110000D02*
D03*
X60000D02*
D03*
X10000Y310000D02*
D03*
X335000Y160000D02*
D03*
X330000Y240000D02*
D03*
X335000Y60000D02*
D03*
X275000Y285000D02*
D03*
X255000Y262500D02*
D03*
X302500Y257500D02*
D03*
X235000Y262500D02*
D03*
X215000Y240000D02*
D03*
X300000Y220000D02*
D03*
X285000Y60000D02*
D03*
X255000Y240000D02*
D03*
X285000Y160000D02*
D03*
X310000Y10000D02*
D03*
X195000Y217500D02*
D03*
X185000Y260000D02*
D03*
X215000Y217500D02*
D03*
X135000Y260000D02*
D03*
X110000Y210000D02*
D03*
X195000Y195000D02*
D03*
X160000Y10000D02*
D03*
Y210000D02*
D03*
X60000Y10000D02*
D03*
Y110000D02*
D03*
X35000Y160000D02*
D03*
Y60000D02*
D03*
X10000Y210000D02*
D03*
X110000Y10000D02*
D03*
X645000Y80000D02*
D03*
X195000Y210000D02*
D03*
X290000Y7500D02*
D03*
X282500D02*
D03*
X600000Y540000D02*
D03*
X620000Y642500D02*
D03*
X655000Y682500D02*
D03*
X627500Y650000D02*
D03*
X610000Y540000D02*
D03*
X640000D02*
D03*
X660000D02*
D03*
X670000D02*
D03*
X630000D02*
D03*
X700000D02*
D03*
X690000D02*
D03*
X712500Y625000D02*
D03*
X653258Y165000D02*
D03*
Y455000D02*
D03*
X535000Y338258D02*
D03*
Y281742D02*
D03*
X390000Y352500D02*
D03*
X367500Y407500D02*
D03*
X375000D02*
D03*
X45000Y210000D02*
D03*
Y310000D02*
D03*
X430000Y662500D02*
D03*
Y677500D02*
D03*
Y670000D02*
D03*
X257500Y537500D02*
D03*
X272500D02*
D03*
X265000D02*
D03*
X257500Y607500D02*
D03*
X272500D02*
D03*
X265000D02*
D03*
X737500Y177500D02*
D03*
X607500Y70000D02*
D03*
X365000Y257500D02*
D03*
X410000Y325000D02*
D03*
X414936Y320000D02*
D03*
X535000Y470000D02*
D03*
X525000D02*
D03*
X535000Y430000D02*
D03*
X525000D02*
D03*
X535000Y150000D02*
D03*
X525000D02*
D03*
Y190000D02*
D03*
X535000D02*
D03*
X387500Y625000D02*
D03*
X395000D02*
D03*
X402500D02*
D03*
X372500Y220000D02*
D03*
X382500Y407500D02*
D03*
X330000Y370000D02*
D03*
X322500D02*
D03*
X315000D02*
D03*
X367500Y555000D02*
D03*
X352500D02*
D03*
X360000D02*
D03*
X275000Y292500D02*
D03*
X215000Y232500D02*
D03*
X320000Y247500D02*
D03*
X195000Y202500D02*
D03*
X215000Y225000D02*
D03*
X255000Y255000D02*
D03*
Y247500D02*
D03*
X235000Y277500D02*
D03*
Y270000D02*
D03*
X275000Y300000D02*
D03*
X379000Y355000D02*
D03*
X380000Y270000D02*
D03*
X320000Y362500D02*
D03*
X355000Y377500D02*
D03*
X410000Y335000D02*
D03*
X340000Y377500D02*
D03*
X415000Y330000D02*
D03*
X347500Y377500D02*
D03*
Y242500D02*
D03*
X355000D02*
D03*
X387500Y270000D02*
D03*
X195000Y640000D02*
D03*
Y540000D02*
D03*
X185000Y662500D02*
D03*
Y562500D02*
D03*
D76*
X720000Y720000D02*
D03*
Y450000D02*
D03*
Y0D02*
D03*
X0Y720000D02*
D03*
Y0D02*
D03*
D77*
X605000Y355750D02*
D03*
X686000D02*
D03*
Y264250D02*
D03*
X605000D02*
D03*
D78*
X640000Y310000D02*
D03*
D79*
X620900Y330000D02*
D03*
X660900D02*
D03*
Y290000D02*
D03*
X620900Y290000D02*
D03*
D80*
X418100Y0D02*
D03*
X92700Y225000D02*
D03*
Y195000D02*
D03*
Y325000D02*
D03*
Y295000D02*
D03*
D81*
X67300Y195000D02*
D03*
Y225000D02*
D03*
X170000Y577300D02*
D03*
X392700Y0D02*
D03*
X67300Y325000D02*
D03*
Y295000D02*
D03*
D82*
X170000Y602700D02*
D03*
D83*
X320000Y536000D02*
D03*
Y594000D02*
D03*
Y524000D02*
D03*
Y606000D02*
D03*
D85*
X636742Y455000D02*
D03*
Y165000D02*
D03*
X653258D02*
D03*
Y455000D02*
D03*
D86*
X415596Y399596D02*
D03*
X429596Y385596D02*
D03*
X420404Y376404D02*
D03*
X406404Y390404D02*
D03*
D87*
X458500Y299000D02*
D03*
X441500Y321000D02*
D03*
Y299000D02*
D03*
X458500Y321000D02*
D03*
D88*
X643000Y70000D02*
D03*
Y60500D02*
D03*
Y79500D02*
D03*
X617000D02*
D03*
Y60500D02*
D03*
Y70000D02*
D03*
D89*
X433096Y237904D02*
D03*
X419096Y223904D02*
D03*
X423904Y247096D02*
D03*
X409904Y233096D02*
D03*
D90*
X340000Y310000D02*
D03*
D91*
X657700Y195000D02*
D03*
X632300D02*
D03*
Y425000D02*
D03*
X657700D02*
D03*
X487300Y330000D02*
D03*
X512700D02*
D03*
X487300Y290000D02*
D03*
X512700D02*
D03*
D92*
X358562Y273761D02*
D03*
X369168Y284368D02*
D03*
X332045Y356846D02*
D03*
X335581Y360381D02*
D03*
X390381Y305581D02*
D03*
X386846Y302045D02*
D03*
X383310Y298510D02*
D03*
X379775Y294974D02*
D03*
X376239Y291439D02*
D03*
X372704Y287903D02*
D03*
X365633Y280832D02*
D03*
X362097Y277296D02*
D03*
X355026Y270225D02*
D03*
X351491Y266690D02*
D03*
X347955Y263154D02*
D03*
X344420Y259619D02*
D03*
X289619Y314419D02*
D03*
X293154Y317955D02*
D03*
X296690Y321491D02*
D03*
X300225Y325026D02*
D03*
X303761Y328562D02*
D03*
X307296Y332097D02*
D03*
X310832Y335633D02*
D03*
X314367Y339168D02*
D03*
X317903Y342704D02*
D03*
X321438Y346239D02*
D03*
X324974Y349775D02*
D03*
X328510Y353310D02*
D03*
D93*
X365633Y339168D02*
D03*
X332045Y263154D02*
D03*
X344420Y360381D02*
D03*
X347955Y356846D02*
D03*
X351491Y353310D02*
D03*
X355026Y349775D02*
D03*
X358562Y346239D02*
D03*
X362097Y342704D02*
D03*
X369168Y335633D02*
D03*
X372704Y332097D02*
D03*
X376239Y328562D02*
D03*
X379775Y325026D02*
D03*
X383310Y321491D02*
D03*
X386846Y317955D02*
D03*
X390381Y314419D02*
D03*
X335581Y259619D02*
D03*
X328510Y266690D02*
D03*
X324974Y270225D02*
D03*
X321438Y273761D02*
D03*
X317903Y277296D02*
D03*
X314367Y280832D02*
D03*
X310832Y284368D02*
D03*
X307296Y287903D02*
D03*
X303761Y291439D02*
D03*
X300225Y294974D02*
D03*
X296690Y298510D02*
D03*
X293154Y302045D02*
D03*
X289619Y305581D02*
D03*
D94*
X394384Y378384D02*
D03*
X387616Y371616D02*
D03*
X408384Y364384D02*
D03*
X401616Y357616D02*
D03*
X418384Y354384D02*
D03*
X411616Y347616D02*
D03*
X384384Y388384D02*
D03*
X377616Y381616D02*
D03*
D95*
X411884Y259116D02*
D03*
X405116Y265884D02*
D03*
X397884Y245116D02*
D03*
X391116Y251884D02*
D03*
X387884Y235116D02*
D03*
X381116Y241884D02*
D03*
X421884Y269116D02*
D03*
X415116Y275884D02*
D03*
D96*
X615510Y224490D02*
D03*
X624490Y215510D02*
D03*
D97*
X615510Y395510D02*
D03*
X624490Y404490D02*
D03*
D98*
X490000Y371350D02*
D03*
Y358650D02*
D03*
Y248650D02*
D03*
Y261350D02*
D03*
D99*
X186350Y640000D02*
D03*
X153650D02*
D03*
X186350Y540000D02*
D03*
X153650D02*
D03*
D100*
X384384Y388384D02*
X411000Y415000D01*
X595000D01*
X394384Y378384D02*
X406404Y390404D01*
X408384Y364384D02*
X420404Y376404D01*
X490000Y371350D02*
X548650D01*
X595000Y415000D02*
X660900Y349100D01*
X435350Y371350D02*
X490000D01*
X418384Y354384D02*
X435350Y371350D01*
X660900Y330000D02*
Y349100D01*
X590000Y290000D02*
X620900D01*
X548650Y248650D02*
X590000Y290000D01*
X660900Y270900D02*
Y290000D01*
X490000Y248650D02*
X548650D01*
X415500Y207500D02*
X597500D01*
X660900Y270900D01*
X442350Y248650D02*
X490000D01*
X421884Y269116D02*
X442350Y248650D01*
X590000Y330000D02*
X620900D01*
X548650Y371350D02*
X590000Y330000D01*
X411884Y259116D02*
X423904Y247096D01*
X397884Y245116D02*
X409904Y233096D01*
X387884Y235116D02*
X415500Y207500D01*
M02*
