G04*
G04 #@! TF.GenerationSoftware,Altium Limited,Altium Designer,25.8.1 (18)*
G04*
G04 Layer_Color=8388736*
%FSLAX44Y44*%
%MOMM*%
G71*
G04*
G04 #@! TF.SameCoordinates,7D67BA09-2431-4C98-8CAE-14AC2A5FFEDF*
G04*
G04*
G04 #@! TF.FilePolarity,Negative*
G04*
G01*
G75*
%ADD20R,0.6725X0.7154*%
%ADD21R,0.7154X0.6725*%
%ADD22R,2.7000X2.7000*%
G04:AMPARAMS|DCode=23|XSize=0.8mm|YSize=0.35mm|CornerRadius=0.175mm|HoleSize=0mm|Usage=FLASHONLY|Rotation=270.000|XOffset=0mm|YOffset=0mm|HoleType=Round|Shape=RoundedRectangle|*
%AMROUNDEDRECTD23*
21,1,0.8000,0.0000,0,0,270.0*
21,1,0.4500,0.3500,0,0,270.0*
1,1,0.3500,0.0000,-0.2250*
1,1,0.3500,0.0000,0.2250*
1,1,0.3500,0.0000,0.2250*
1,1,0.3500,0.0000,-0.2250*
%
%ADD23ROUNDEDRECTD23*%
%ADD25R,1.4562X1.2546*%
%ADD26R,2.7062X1.5533*%
%ADD28R,0.7000X0.7000*%
%ADD29R,1.0000X0.7000*%
%ADD30R,2.5000X1.0000*%
%ADD33R,1.3500X0.9500*%
G04:AMPARAMS|DCode=35|XSize=0.35mm|YSize=0.8mm|CornerRadius=0.175mm|HoleSize=0mm|Usage=FLASHONLY|Rotation=270.000|XOffset=0mm|YOffset=0mm|HoleType=Round|Shape=RoundedRectangle|*
%AMROUNDEDRECTD35*
21,1,0.3500,0.4500,0,0,270.0*
21,1,0.0000,0.8000,0,0,270.0*
1,1,0.3500,-0.2250,0.0000*
1,1,0.3500,-0.2250,0.0000*
1,1,0.3500,0.2250,0.0000*
1,1,0.3500,0.2250,0.0000*
%
%ADD35ROUNDEDRECTD35*%
%ADD38R,1.6000X5.7000*%
%ADD41R,1.0000X2.5000*%
%ADD42R,1.2500X1.6500*%
%ADD43R,0.5000X0.3500*%
G04:AMPARAMS|DCode=44|XSize=1.1mm|YSize=0.95mm|CornerRadius=0.175mm|HoleSize=0mm|Usage=FLASHONLY|Rotation=180.000|XOffset=0mm|YOffset=0mm|HoleType=Round|Shape=RoundedRectangle|*
%AMROUNDEDRECTD44*
21,1,1.1000,0.6000,0,0,180.0*
21,1,0.7500,0.9500,0,0,180.0*
1,1,0.3500,-0.3750,0.3000*
1,1,0.3500,0.3750,0.3000*
1,1,0.3500,0.3750,-0.3000*
1,1,0.3500,-0.3750,-0.3000*
%
%ADD44ROUNDEDRECTD44*%
G04:AMPARAMS|DCode=45|XSize=1.1mm|YSize=0.95mm|CornerRadius=0.175mm|HoleSize=0mm|Usage=FLASHONLY|Rotation=270.000|XOffset=0mm|YOffset=0mm|HoleType=Round|Shape=RoundedRectangle|*
%AMROUNDEDRECTD45*
21,1,1.1000,0.6000,0,0,270.0*
21,1,0.7500,0.9500,0,0,270.0*
1,1,0.3500,-0.3000,-0.3750*
1,1,0.3500,-0.3000,0.3750*
1,1,0.3500,0.3000,0.3750*
1,1,0.3500,0.3000,-0.3750*
%
%ADD45ROUNDEDRECTD45*%
%ADD46R,0.8000X0.5000*%
%ADD47R,1.7000X2.5500*%
%ADD48R,0.4500X0.9500*%
%ADD49R,0.5500X0.9500*%
%ADD50R,2.3500X8.1500*%
%ADD51R,0.9500X0.6500*%
G04:AMPARAMS|DCode=52|XSize=1.9mm|YSize=1.35mm|CornerRadius=0.225mm|HoleSize=0mm|Usage=FLASHONLY|Rotation=270.000|XOffset=0mm|YOffset=0mm|HoleType=Round|Shape=RoundedRectangle|*
%AMROUNDEDRECTD52*
21,1,1.9000,0.9000,0,0,270.0*
21,1,1.4500,1.3500,0,0,270.0*
1,1,0.4500,-0.4500,-0.7250*
1,1,0.4500,-0.4500,0.7250*
1,1,0.4500,0.4500,0.7250*
1,1,0.4500,0.4500,-0.7250*
%
%ADD52ROUNDEDRECTD52*%
%ADD53R,8.1500X2.3500*%
%ADD54C,0.7500*%
%ADD55C,0.6500*%
%ADD56C,5.1500*%
%ADD57C,1.5748*%
G04:AMPARAMS|DCode=58|XSize=3.2mm|YSize=1.6mm|CornerRadius=0.8mm|HoleSize=0mm|Usage=FLASHONLY|Rotation=90.000|XOffset=0mm|YOffset=0mm|HoleType=Round|Shape=RoundedRectangle|*
%AMROUNDEDRECTD58*
21,1,3.2000,0.0000,0,0,90.0*
21,1,1.6000,1.6000,0,0,90.0*
1,1,1.6000,0.0000,0.8000*
1,1,1.6000,0.0000,-0.8000*
1,1,1.6000,0.0000,-0.8000*
1,1,1.6000,0.0000,0.8000*
%
%ADD58ROUNDEDRECTD58*%
G04:AMPARAMS|DCode=59|XSize=1.6mm|YSize=3.2mm|CornerRadius=0.8mm|HoleSize=0mm|Usage=FLASHONLY|Rotation=90.000|XOffset=0mm|YOffset=0mm|HoleType=Round|Shape=RoundedRectangle|*
%AMROUNDEDRECTD59*
21,1,1.6000,1.6000,0,0,90.0*
21,1,0.0000,3.2000,0,0,90.0*
1,1,1.6000,0.8000,0.0000*
1,1,1.6000,0.8000,0.0000*
1,1,1.6000,-0.8000,0.0000*
1,1,1.6000,-0.8000,0.0000*
%
%ADD59ROUNDEDRECTD59*%
%ADD60C,1.5700*%
%ADD61C,2.7000*%
%ADD62C,2.2500*%
%ADD63C,1.3500*%
%ADD64R,1.3100X1.3100*%
%ADD65R,1.5500X1.5500*%
%ADD66C,1.3100*%
%ADD67C,1.5500*%
%ADD68R,1.6000X3.2000*%
%ADD69R,1.5500X1.5500*%
G36*
X172150Y552625D02*
X176300D01*
Y528125D01*
X172150D01*
Y524325D01*
X167850D01*
Y528125D01*
X156500D01*
Y528625D01*
X153500D01*
Y532625D01*
X156500D01*
Y535125D01*
X153500D01*
Y539125D01*
X156500D01*
Y541625D01*
X153500D01*
Y545625D01*
X156500D01*
Y548125D01*
X153500D01*
Y552125D01*
X156500D01*
Y552625D01*
X167850D01*
Y556425D01*
X172150D01*
Y552625D01*
D02*
G37*
G36*
Y652625D02*
X176300D01*
Y628125D01*
X172150D01*
Y624325D01*
X167850D01*
Y628125D01*
X156500D01*
Y628625D01*
X153500D01*
Y632625D01*
X156500D01*
Y635125D01*
X153500D01*
Y639125D01*
X156500D01*
Y641625D01*
X153500D01*
Y645625D01*
X156500D01*
Y648125D01*
X153500D01*
Y652125D01*
X156500D01*
Y652625D01*
X167850D01*
Y656425D01*
X172150D01*
Y652625D01*
D02*
G37*
D20*
X700000Y634786D02*
D03*
Y625214D02*
D03*
D21*
X645214Y670000D02*
D03*
X699786Y530000D02*
D03*
X669786D02*
D03*
X600214D02*
D03*
X630214D02*
D03*
X399786Y345000D02*
D03*
Y330000D02*
D03*
X367714Y345000D02*
D03*
Y330000D02*
D03*
X399786Y315000D02*
D03*
X342714Y350000D02*
D03*
Y335000D02*
D03*
X399786Y300000D02*
D03*
Y285000D02*
D03*
X367714D02*
D03*
Y270000D02*
D03*
X399786D02*
D03*
X342714D02*
D03*
Y255000D02*
D03*
X315214Y570000D02*
D03*
X329786Y335000D02*
D03*
Y350000D02*
D03*
X315214Y500000D02*
D03*
X329786Y270000D02*
D03*
Y255000D02*
D03*
X654786Y670000D02*
D03*
X660214Y530000D02*
D03*
X669786Y570000D02*
D03*
X660214D02*
D03*
X630214D02*
D03*
X639786D02*
D03*
Y530000D02*
D03*
X699786Y570000D02*
D03*
X690214D02*
D03*
Y530000D02*
D03*
X609786D02*
D03*
X600214Y570000D02*
D03*
X609786D02*
D03*
X352286Y270000D02*
D03*
Y255000D02*
D03*
X377286Y345000D02*
D03*
Y330000D02*
D03*
Y270000D02*
D03*
Y285000D02*
D03*
X320214Y350000D02*
D03*
Y335000D02*
D03*
X352286Y350000D02*
D03*
Y335000D02*
D03*
X320214Y255000D02*
D03*
Y270000D02*
D03*
X390214Y345000D02*
D03*
Y330000D02*
D03*
Y315000D02*
D03*
Y270000D02*
D03*
Y285000D02*
D03*
Y300000D02*
D03*
X324786Y500000D02*
D03*
Y570000D02*
D03*
X324786Y685000D02*
D03*
X315214D02*
D03*
D22*
X650000Y620000D02*
D03*
D23*
X646750Y640000D02*
D03*
X659750D02*
D03*
X640250D02*
D03*
Y600000D02*
D03*
X646750D02*
D03*
X653250D02*
D03*
X659750D02*
D03*
X653250Y640000D02*
D03*
D25*
X430000Y646742D02*
D03*
Y693258D02*
D03*
Y676742D02*
D03*
Y663258D02*
D03*
D26*
X395000Y586746D02*
D03*
Y516746D02*
D03*
X360000Y586746D02*
D03*
Y516746D02*
D03*
X395000Y613254D02*
D03*
X360000D02*
D03*
X395000Y543254D02*
D03*
X360000D02*
D03*
D28*
X365500Y300000D02*
D03*
X332000Y285000D02*
D03*
X340500D02*
D03*
X354500D02*
D03*
X379500Y300000D02*
D03*
X318000Y285000D02*
D03*
D29*
X330995Y645500D02*
D03*
X309005Y664500D02*
D03*
X330995D02*
D03*
Y655000D02*
D03*
X309005Y645500D02*
D03*
Y655000D02*
D03*
D30*
X280000Y675000D02*
D03*
X245000D02*
D03*
X280000Y645000D02*
D03*
X245000D02*
D03*
D33*
X265000Y592500D02*
D03*
X285000D02*
D03*
X265000Y522500D02*
D03*
X285000D02*
D03*
Y607500D02*
D03*
X265000D02*
D03*
Y537500D02*
D03*
X285000D02*
D03*
D35*
X630000Y629750D02*
D03*
Y623250D02*
D03*
Y616750D02*
D03*
Y610250D02*
D03*
X670000D02*
D03*
Y616750D02*
D03*
Y629750D02*
D03*
Y623250D02*
D03*
D38*
X403500Y670000D02*
D03*
X356500D02*
D03*
D41*
X465000Y470000D02*
D03*
X495000D02*
D03*
X465000Y190000D02*
D03*
X495000D02*
D03*
X465000Y430000D02*
D03*
X495000D02*
D03*
X465000Y150000D02*
D03*
X495000D02*
D03*
D42*
X137250Y640000D02*
D03*
X102750D02*
D03*
X137250Y540000D02*
D03*
X102750D02*
D03*
D43*
X184000Y650125D02*
D03*
Y643625D02*
D03*
Y637125D02*
D03*
Y630625D02*
D03*
Y550125D02*
D03*
Y543625D02*
D03*
Y537125D02*
D03*
Y530625D02*
D03*
D44*
X600000Y636500D02*
D03*
X420000Y578500D02*
D03*
Y508500D02*
D03*
X657500Y543500D02*
D03*
Y556500D02*
D03*
X627500Y543500D02*
D03*
Y556500D02*
D03*
X642500Y543500D02*
D03*
Y556500D02*
D03*
X700000Y661500D02*
D03*
Y648500D02*
D03*
X672500Y543500D02*
D03*
Y556500D02*
D03*
X702500Y543500D02*
D03*
Y556500D02*
D03*
X687500Y543500D02*
D03*
Y556500D02*
D03*
X600000Y623500D02*
D03*
X612500Y543500D02*
D03*
Y556500D02*
D03*
X597500Y543500D02*
D03*
Y556500D02*
D03*
X245000Y606500D02*
D03*
Y536500D02*
D03*
X420000Y616500D02*
D03*
Y546500D02*
D03*
Y533500D02*
D03*
X245000Y523500D02*
D03*
X420000Y521500D02*
D03*
Y603500D02*
D03*
X245000Y593500D02*
D03*
X420000Y591500D02*
D03*
D45*
X736500Y162500D02*
D03*
X681500Y670000D02*
D03*
X668500D02*
D03*
X736500Y177500D02*
D03*
X723500D02*
D03*
Y162500D02*
D03*
X388500Y255000D02*
D03*
X41500Y217500D02*
D03*
Y202500D02*
D03*
Y302500D02*
D03*
Y317500D02*
D03*
X401500Y255000D02*
D03*
X28500Y202500D02*
D03*
Y217500D02*
D03*
Y317500D02*
D03*
Y302500D02*
D03*
D46*
X304500Y590250D02*
D03*
Y520250D02*
D03*
Y609750D02*
D03*
Y603250D02*
D03*
Y539750D02*
D03*
Y533250D02*
D03*
X335500Y609750D02*
D03*
Y539750D02*
D03*
X304500Y526750D02*
D03*
X335500Y520250D02*
D03*
Y526750D02*
D03*
Y533250D02*
D03*
X304500Y596750D02*
D03*
X335500Y590250D02*
D03*
Y596750D02*
D03*
Y603250D02*
D03*
D47*
X320000Y600000D02*
D03*
Y530000D02*
D03*
D48*
X277500Y-7500D02*
D03*
X262500D02*
D03*
X247500D02*
D03*
X217500D02*
D03*
X232500D02*
D03*
X187500D02*
D03*
X202500D02*
D03*
X207500D02*
D03*
X252500D02*
D03*
X212500D02*
D03*
X237500D02*
D03*
X257500D02*
D03*
X197500D02*
D03*
X242500D02*
D03*
X192500D02*
D03*
X222500D02*
D03*
X227500D02*
D03*
X292500D02*
D03*
X287500D02*
D03*
X282500D02*
D03*
X272500D02*
D03*
X267500D02*
D03*
D49*
X302500Y-32500D02*
D03*
X177500D02*
D03*
D50*
X648500Y180000D02*
D03*
X591500Y440000D02*
D03*
Y180000D02*
D03*
X648500Y440000D02*
D03*
D51*
X708000Y174500D02*
D03*
X692000Y165500D02*
D03*
X708000D02*
D03*
X692000Y174500D02*
D03*
D52*
X515500Y470000D02*
D03*
X544500D02*
D03*
Y190000D02*
D03*
X515500D02*
D03*
X544500Y430000D02*
D03*
X515500D02*
D03*
X544500Y150000D02*
D03*
X515500D02*
D03*
D53*
X530000Y231500D02*
D03*
Y288500D02*
D03*
Y388500D02*
D03*
Y331500D02*
D03*
D54*
X341900Y0D02*
D03*
X367300D02*
D03*
D55*
X733435Y733435D02*
D03*
X720000Y739000D02*
D03*
X739000Y720000D02*
D03*
X706565Y733435D02*
D03*
X701000Y720000D02*
D03*
X733435Y706565D02*
D03*
X720000Y701000D02*
D03*
X706565Y706565D02*
D03*
X733435Y463435D02*
D03*
X720000Y469000D02*
D03*
X739000Y450000D02*
D03*
X706565Y463435D02*
D03*
Y436565D02*
D03*
X733435D02*
D03*
X720000Y431000D02*
D03*
X701000Y450000D02*
D03*
X720000Y19000D02*
D03*
X733435Y13435D02*
D03*
X706565D02*
D03*
X701000Y0D02*
D03*
X739000D02*
D03*
X733435Y-13435D02*
D03*
X706565D02*
D03*
X720000Y-19000D02*
D03*
X19000Y720000D02*
D03*
X13435Y733435D02*
D03*
X0Y739000D02*
D03*
X-13435Y706565D02*
D03*
Y733435D02*
D03*
X-19000Y720000D02*
D03*
X13435Y706565D02*
D03*
X0Y701000D02*
D03*
X13435Y13435D02*
D03*
X0Y19000D02*
D03*
X-13435Y13435D02*
D03*
X-19000Y0D02*
D03*
X19000D02*
D03*
X13435Y-13435D02*
D03*
X-13435D02*
D03*
X0Y-19000D02*
D03*
D56*
X720000Y720000D02*
D03*
Y450000D02*
D03*
Y0D02*
D03*
X0Y720000D02*
D03*
Y0D02*
D03*
D57*
X10000Y610000D02*
D03*
Y510000D02*
D03*
X62000Y645000D02*
D03*
Y545000D02*
D03*
D58*
X35000Y440000D02*
D03*
D59*
X65000Y393000D02*
D03*
D60*
X0Y70000D02*
D03*
Y225000D02*
D03*
Y185000D02*
D03*
Y325000D02*
D03*
Y285000D02*
D03*
X480000Y680000D02*
D03*
Y610000D02*
D03*
Y540000D02*
D03*
X120000Y570000D02*
D03*
Y610000D02*
D03*
D61*
X605000Y355750D02*
D03*
X686000D02*
D03*
Y264250D02*
D03*
X605000D02*
D03*
D62*
X640000Y310000D02*
D03*
D63*
X620900Y330000D02*
D03*
X660900D02*
D03*
Y290000D02*
D03*
X620900Y290000D02*
D03*
D64*
X651600Y0D02*
D03*
D65*
X418100D02*
D03*
X92700Y225000D02*
D03*
Y195000D02*
D03*
Y325000D02*
D03*
Y295000D02*
D03*
D66*
X473800Y0D02*
D03*
X550000D02*
D03*
X524600D02*
D03*
X626200D02*
D03*
X575400D02*
D03*
X499200D02*
D03*
X448400D02*
D03*
X600800D02*
D03*
D67*
X67300Y195000D02*
D03*
Y225000D02*
D03*
X170000Y577300D02*
D03*
X392700Y0D02*
D03*
X67300Y325000D02*
D03*
Y295000D02*
D03*
D68*
X95000Y440000D02*
D03*
D69*
X170000Y602700D02*
D03*
M02*
