G04*
G04 #@! TF.GenerationSoftware,Altium Limited,Altium Designer,24.4.1 (13)*
G04*
G04 Layer_Color=2752767*
%FSLAX44Y44*%
%MOMM*%
G71*
G04*
G04 #@! TF.SameCoordinates,D7575A33-01EC-4171-9A11-0C774D8D2981*
G04*
G04*
G04 #@! TF.FilePolarity,Positive*
G04*
G01*
G75*
%ADD14C,0.1270*%
%ADD111C,0.1693*%
%ADD112C,0.1016*%
D14*
X522000Y757920D02*
X516920Y768080D01*
X527080D01*
X522000Y757920D01*
X480000D02*
X474920Y768080D01*
X485080D01*
X480000Y757920D01*
X438000D02*
X432920Y768080D01*
X443080D01*
X438000Y757920D01*
X522000Y799920D02*
X516920Y810080D01*
X527080D01*
X522000Y799920D01*
X480000D02*
X474920Y810080D01*
X485080D01*
X480000Y799920D01*
X438000D02*
X432920Y810080D01*
X443080D01*
X438000Y799920D01*
X187000Y662170D02*
X181920Y672330D01*
X192080D01*
X187000Y662170D01*
Y620170D02*
X181920Y630330D01*
X192080D01*
X187000Y620170D01*
Y578170D02*
X181920Y588330D01*
X192080D01*
X187000Y578170D01*
X145000Y662170D02*
X139920Y672330D01*
X150080D01*
X145000Y662170D01*
Y620170D02*
X139920Y630330D01*
X150080D01*
X145000Y620170D01*
Y578170D02*
X139920Y588330D01*
X150080D01*
X145000Y578170D01*
X738000Y799920D02*
X732920Y810080D01*
X743080D01*
X738000Y799920D01*
X780000D02*
X774920Y810080D01*
X785080D01*
X780000Y799920D01*
X822000D02*
X816920Y810080D01*
X827080D01*
X822000Y799920D01*
X738000Y757920D02*
X732920Y768080D01*
X743080D01*
X738000Y757920D01*
X780000D02*
X774920Y768080D01*
X785080D01*
X780000Y757920D01*
X822000D02*
X816920Y768080D01*
X827080D01*
X822000Y757920D01*
X759920Y274920D02*
Y285080D01*
X770080D01*
Y274920D01*
X759920D01*
X909920D02*
Y285080D01*
X920080D01*
Y274920D01*
X909920D01*
X517500Y181420D02*
X512420Y191580D01*
X522580D01*
X517500Y181420D01*
X559500D02*
X554420Y191580D01*
X564580D01*
X559500Y181420D01*
X601500D02*
X596420Y191580D01*
X606580D01*
X601500Y181420D01*
X643500D02*
X638420Y191580D01*
X648580D01*
X643500Y181420D01*
X517500Y139420D02*
X512420Y149580D01*
X522580D01*
X517500Y139420D01*
X559500D02*
X554420Y149580D01*
X564580D01*
X559500Y139420D01*
X601500D02*
X596420Y149580D01*
X606580D01*
X601500Y139420D01*
X643500D02*
X638420Y149580D01*
X648580D01*
X643500Y139420D01*
X813000Y471920D02*
X807920Y482080D01*
X818080D01*
X813000Y471920D01*
Y513920D02*
X807920Y524080D01*
X818080D01*
X813000Y513920D01*
Y555920D02*
X807920Y566080D01*
X818080D01*
X813000Y555920D01*
Y597920D02*
X807920Y608080D01*
X818080D01*
X813000Y597920D01*
X855000Y471920D02*
X849920Y482080D01*
X860080D01*
X855000Y471920D01*
Y513920D02*
X849920Y524080D01*
X860080D01*
X855000Y513920D01*
Y555920D02*
X849920Y566080D01*
X860080D01*
X855000Y555920D01*
Y597920D02*
X849920Y608080D01*
X860080D01*
X855000Y597920D01*
X52250Y181420D02*
X47170Y191580D01*
X57330D01*
X52250Y181420D01*
X94250D02*
X89170Y191580D01*
X99330D01*
X94250Y181420D01*
X136250D02*
X131170Y191580D01*
X141330D01*
X136250Y181420D01*
X178250D02*
X173170Y191580D01*
X183330D01*
X178250Y181420D01*
X52250Y139420D02*
X47170Y149580D01*
X57330D01*
X52250Y139420D01*
X94250D02*
X89170Y149580D01*
X99330D01*
X94250Y139420D01*
X136250D02*
X131170Y149580D01*
X141330D01*
X136250Y139420D01*
X178250D02*
X173170Y149580D01*
X183330D01*
X178250Y139420D01*
X285500Y181420D02*
X280420Y191580D01*
X290580D01*
X285500Y181420D01*
X327500D02*
X322420Y191580D01*
X332580D01*
X327500Y181420D01*
X369500D02*
X364420Y191580D01*
X374580D01*
X369500Y181420D01*
X411500D02*
X406420Y191580D01*
X416580D01*
X411500Y181420D01*
X285500Y139420D02*
X280420Y149580D01*
X290580D01*
X285500Y139420D01*
X327500D02*
X322420Y149580D01*
X332580D01*
X327500Y139420D01*
X369500D02*
X364420Y149580D01*
X374580D01*
X369500Y139420D01*
X411500D02*
X406420Y149580D01*
X416580D01*
X411500Y139420D01*
X799444Y705875D02*
X801984Y708415D01*
X804524D01*
X801984Y710955D01*
X804524Y713495D01*
X801984D01*
X799444Y716035D01*
X796904Y713495D01*
X794364D01*
X796904Y710955D01*
X794364Y708415D01*
X796904D01*
X799444Y705875D01*
Y663965D02*
X801984Y666505D01*
X804524D01*
X801984Y669045D01*
X804524Y671585D01*
X801984D01*
X799444Y674125D01*
X796904Y671585D01*
X794364D01*
X796904Y669045D01*
X794364Y666505D01*
X796904D01*
X799444Y663965D01*
X854562D02*
X857102Y666505D01*
X859642D01*
X857102Y669045D01*
X859642Y671585D01*
X857102D01*
X854562Y674125D01*
X852022Y671585D01*
X849482D01*
X852022Y669045D01*
X849482Y666505D01*
X852022D01*
X854562Y663965D01*
Y705875D02*
X857102Y708415D01*
X859642D01*
X857102Y710955D01*
X859642Y713495D01*
X857102D01*
X854562Y716035D01*
X852022Y713495D01*
X849482D01*
X852022Y710955D01*
X849482Y708415D01*
X852022D01*
X854562Y705875D01*
X922380Y684920D02*
X924920Y690000D01*
X922380Y695080D01*
X927460Y692540D01*
X932540Y695080D01*
X930000Y690000D01*
X932540Y684920D01*
X927460Y687460D01*
X922380Y684920D01*
X672000Y757920D02*
X666920Y768080D01*
X677080D01*
X672000Y757920D01*
X630000D02*
X624920Y768080D01*
X635080D01*
X630000Y757920D01*
X588000D02*
X582920Y768080D01*
X593080D01*
X588000Y757920D01*
X672000Y799920D02*
X666920Y810080D01*
X677080D01*
X672000Y799920D01*
X630000D02*
X624920Y810080D01*
X635080D01*
X630000Y799920D01*
X588000D02*
X582920Y810080D01*
X593080D01*
X588000Y799920D01*
X325000Y576170D02*
X319920Y586330D01*
X330080D01*
X325000Y576170D01*
Y578202D02*
X321952Y584298D01*
X328048D01*
X325000Y578202D01*
X90750Y555170D02*
X85670Y565330D01*
X95830D01*
X90750Y555170D01*
Y557202D02*
X87702Y563298D01*
X93798D01*
X90750Y557202D01*
X424500Y338170D02*
X427040Y340710D01*
X429580D01*
X427040Y343250D01*
X429580Y345790D01*
X427040D01*
X424500Y348330D01*
X421960Y345790D01*
X419420D01*
X421960Y343250D01*
X419420Y340710D01*
X421960D01*
X424500Y338170D01*
Y340202D02*
X426024Y341726D01*
X427548D01*
X426024Y343250D01*
X427548Y344774D01*
X426024D01*
X424500Y346298D01*
X422976Y344774D01*
X421452D01*
X422976Y343250D01*
X421452Y341726D01*
X422976D01*
X424500Y340202D01*
X191500Y338170D02*
X194040Y340710D01*
X196580D01*
X194040Y343250D01*
X196580Y345790D01*
X194040D01*
X191500Y348330D01*
X188960Y345790D01*
X186420D01*
X188960Y343250D01*
X186420Y340710D01*
X188960D01*
X191500Y338170D01*
Y340202D02*
X193024Y341726D01*
X194548D01*
X193024Y343250D01*
X194548Y344774D01*
X193024D01*
X191500Y346298D01*
X189976Y344774D01*
X188452D01*
X189976Y343250D01*
X188452Y341726D01*
X189976D01*
X191500Y340202D01*
X655130Y338170D02*
X657670Y340710D01*
X660210D01*
X657670Y343250D01*
X660210Y345790D01*
X657670D01*
X655130Y348330D01*
X652590Y345790D01*
X650050D01*
X652590Y343250D01*
X650050Y340710D01*
X652590D01*
X655130Y338170D01*
Y340202D02*
X656654Y341726D01*
X658178D01*
X656654Y343250D01*
X658178Y344774D01*
X656654D01*
X655130Y346298D01*
X653606Y344774D01*
X652082D01*
X653606Y343250D01*
X652082Y341726D01*
X653606D01*
X655130Y340202D01*
X589174Y709209D02*
X584095Y719369D01*
X594254D01*
X589174Y709209D01*
Y711241D02*
X586127Y717337D01*
X592223D01*
X589174Y711241D01*
X564674Y709209D02*
X559594Y719369D01*
X569754D01*
X564674Y709209D01*
Y711241D02*
X561627Y717337D01*
X567723D01*
X564674Y711241D01*
X605981Y619420D02*
X600901Y629580D01*
X611061D01*
X605981Y619420D01*
Y621452D02*
X602933Y627548D01*
X609029D01*
X605981Y621452D01*
X533250Y662920D02*
X528170Y673080D01*
X538330D01*
X533250Y662920D01*
Y664952D02*
X530202Y671048D01*
X536298D01*
X533250Y664952D01*
X506000Y638920D02*
X500920Y649080D01*
X511080D01*
X506000Y638920D01*
Y640952D02*
X502952Y647048D01*
X509048D01*
X506000Y640952D01*
X502750Y338170D02*
X505290Y340710D01*
X507830D01*
X505290Y343250D01*
X507830Y345790D01*
X505290D01*
X502750Y348330D01*
X500210Y345790D01*
X497670D01*
X500210Y343250D01*
X497670Y340710D01*
X500210D01*
X502750Y338170D01*
Y340202D02*
X504274Y341726D01*
X505798D01*
X504274Y343250D01*
X505798Y344774D01*
X504274D01*
X502750Y346298D01*
X501226Y344774D01*
X499702D01*
X501226Y343250D01*
X499702Y341726D01*
X501226D01*
X502750Y340202D01*
X580750Y337920D02*
X583290Y340460D01*
X585830D01*
X583290Y343000D01*
X585830Y345540D01*
X583290D01*
X580750Y348080D01*
X578210Y345540D01*
X575670D01*
X578210Y343000D01*
X575670Y340460D01*
X578210D01*
X580750Y337920D01*
Y339952D02*
X582274Y341476D01*
X583798D01*
X582274Y343000D01*
X583798Y344524D01*
X582274D01*
X580750Y346048D01*
X579226Y344524D01*
X577702D01*
X579226Y343000D01*
X577702Y341476D01*
X579226D01*
X580750Y339952D01*
X637650Y429170D02*
X632570Y439330D01*
X642730D01*
X637650Y429170D01*
Y431202D02*
X634602Y437298D01*
X640698D01*
X637650Y431202D01*
X523350Y429170D02*
X518270Y439330D01*
X528430D01*
X523350Y429170D01*
Y431202D02*
X520302Y437298D01*
X526398D01*
X523350Y431202D01*
X270751Y338170D02*
X273291Y340710D01*
X275830D01*
X273291Y343250D01*
X275830Y345790D01*
X273291D01*
X270751Y348330D01*
X268211Y345790D01*
X265671D01*
X268211Y343250D01*
X265671Y340710D01*
X268211D01*
X270751Y338170D01*
Y340202D02*
X272274Y341726D01*
X273799D01*
X272274Y343250D01*
X273799Y344774D01*
X272274D01*
X270751Y346298D01*
X269226Y344774D01*
X267703D01*
X269226Y343250D01*
X267703Y341726D01*
X269226D01*
X270751Y340202D01*
X348750Y337920D02*
X351290Y340460D01*
X353830D01*
X351290Y343000D01*
X353830Y345540D01*
X351290D01*
X348750Y348080D01*
X346210Y345540D01*
X343670D01*
X346210Y343000D01*
X343670Y340460D01*
X346210D01*
X348750Y337920D01*
Y339952D02*
X350274Y341476D01*
X351798D01*
X350274Y343000D01*
X351798Y344524D01*
X350274D01*
X348750Y346048D01*
X347226Y344524D01*
X345702D01*
X347226Y343000D01*
X345702Y341476D01*
X347226D01*
X348750Y339952D01*
X405650Y429170D02*
X400570Y439330D01*
X410730D01*
X405650Y429170D01*
Y431202D02*
X402602Y437298D01*
X408698D01*
X405650Y431202D01*
X291350Y429170D02*
X286270Y439330D01*
X296430D01*
X291350Y429170D01*
Y431202D02*
X288302Y437298D01*
X294398D01*
X291350Y431202D01*
X37500Y338170D02*
X40040Y340710D01*
X42580D01*
X40040Y343250D01*
X42580Y345790D01*
X40040D01*
X37500Y348330D01*
X34960Y345790D01*
X32420D01*
X34960Y343250D01*
X32420Y340710D01*
X34960D01*
X37500Y338170D01*
Y340202D02*
X39024Y341726D01*
X40548D01*
X39024Y343250D01*
X40548Y344774D01*
X39024D01*
X37500Y346298D01*
X35976Y344774D01*
X34452D01*
X35976Y343250D01*
X34452Y341726D01*
X35976D01*
X37500Y340202D01*
X115500Y337920D02*
X118040Y340460D01*
X120580D01*
X118040Y343000D01*
X120580Y345540D01*
X118040D01*
X115500Y348080D01*
X112960Y345540D01*
X110420D01*
X112960Y343000D01*
X110420Y340460D01*
X112960D01*
X115500Y337920D01*
Y339952D02*
X117024Y341476D01*
X118548D01*
X117024Y343000D01*
X118548Y344524D01*
X117024D01*
X115500Y346048D01*
X113976Y344524D01*
X112452D01*
X113976Y343000D01*
X112452Y341476D01*
X113976D01*
X115500Y339952D01*
X172400Y429170D02*
X167320Y439330D01*
X177480D01*
X172400Y429170D01*
Y431202D02*
X169352Y437298D01*
X175448D01*
X172400Y431202D01*
X58100Y429170D02*
X53020Y439330D01*
X63180D01*
X58100Y429170D01*
Y431202D02*
X55052Y437298D01*
X61148D01*
X58100Y431202D01*
X642437Y532420D02*
X644977Y534960D01*
X647517D01*
X644977Y537500D01*
X647517Y540040D01*
X644977D01*
X642437Y542580D01*
X639897Y540040D01*
X637357D01*
X639897Y537500D01*
X637357Y534960D01*
X639897D01*
X642437Y532420D01*
Y534452D02*
X643961Y535976D01*
X645485D01*
X643961Y537500D01*
X645485Y539024D01*
X643961D01*
X642437Y540548D01*
X640913Y539024D01*
X639389D01*
X640913Y537500D01*
X639389Y535976D01*
X640913D01*
X642437Y534452D01*
Y572170D02*
X644977Y574710D01*
X647517D01*
X644977Y577250D01*
X647517Y579790D01*
X644977D01*
X642437Y582330D01*
X639897Y579790D01*
X637357D01*
X639897Y577250D01*
X637357Y574710D01*
X639897D01*
X642437Y572170D01*
Y574202D02*
X643961Y575726D01*
X645485D01*
X643961Y577250D01*
X645485Y578774D01*
X643961D01*
X642437Y580298D01*
X640913Y578774D01*
X639389D01*
X640913Y577250D01*
X639389Y575726D01*
X640913D01*
X642437Y574202D01*
X628650Y661420D02*
X631190Y663960D01*
X633730D01*
X631190Y666500D01*
X633730Y669040D01*
X631190D01*
X628650Y671580D01*
X626110Y669040D01*
X623570D01*
X626110Y666500D01*
X623570Y663960D01*
X626110D01*
X628650Y661420D01*
Y663452D02*
X630174Y664976D01*
X631698D01*
X630174Y666500D01*
X631698Y668024D01*
X630174D01*
X628650Y669548D01*
X627126Y668024D01*
X625602D01*
X627126Y666500D01*
X625602Y664976D01*
X627126D01*
X628650Y663452D01*
Y701170D02*
X631190Y703710D01*
X633730D01*
X631190Y706250D01*
X633730Y708790D01*
X631190D01*
X628650Y711330D01*
X626110Y708790D01*
X623570D01*
X626110Y706250D01*
X623570Y703710D01*
X626110D01*
X628650Y701170D01*
Y703202D02*
X630174Y704726D01*
X631698D01*
X630174Y706250D01*
X631698Y707774D01*
X630174D01*
X628650Y709298D01*
X627126Y707774D01*
X625602D01*
X627126Y706250D01*
X625602Y704726D01*
X627126D01*
X628650Y703202D01*
X44920Y494920D02*
X47460Y500000D01*
X44920Y505080D01*
X50000Y502540D01*
X55080Y505080D01*
X52540Y500000D01*
X55080Y494920D01*
X50000Y497460D01*
X44920Y494920D01*
X46952Y496952D02*
X48476Y500000D01*
X46952Y503048D01*
X50000Y501524D01*
X53048Y503048D01*
X51524Y500000D01*
X53048Y496952D01*
X50000Y498476D01*
X46952Y496952D01*
X944920Y894920D02*
X947460Y900000D01*
X944920Y905080D01*
X950000Y902540D01*
X955080Y905080D01*
X952540Y900000D01*
X955080Y894920D01*
X950000Y897460D01*
X944920Y894920D01*
X946952Y896952D02*
X948476Y900000D01*
X946952Y903048D01*
X950000Y901524D01*
X953048Y903048D01*
X951524Y900000D01*
X953048Y896952D01*
X950000Y898476D01*
X946952Y896952D01*
X944920Y44920D02*
X947460Y50000D01*
X944920Y55080D01*
X950000Y52540D01*
X955080Y55080D01*
X952540Y50000D01*
X955080Y44920D01*
X950000Y47460D01*
X944920Y44920D01*
X946952Y46952D02*
X948476Y50000D01*
X946952Y53048D01*
X950000Y51524D01*
X953048Y53048D01*
X951524Y50000D01*
X953048Y46952D01*
X950000Y48476D01*
X946952Y46952D01*
X44920Y894920D02*
X47460Y900000D01*
X44920Y905080D01*
X50000Y902540D01*
X55080Y905080D01*
X52540Y900000D01*
X55080Y894920D01*
X50000Y897460D01*
X44920Y894920D01*
X46952Y896952D02*
X48476Y900000D01*
X46952Y903048D01*
X50000Y901524D01*
X53048Y903048D01*
X51524Y900000D01*
X53048Y896952D01*
X50000Y898476D01*
X46952Y896952D01*
D111*
X527080Y878000D02*
G03*
X527080Y878000I-5080J0D01*
G01*
X443080D02*
G03*
X443080Y878000I-5080J0D01*
G01*
X77080Y667250D02*
G03*
X77080Y667250I-5080J0D01*
G01*
Y583250D02*
G03*
X77080Y583250I-5080J0D01*
G01*
X743080Y878000D02*
G03*
X743080Y878000I-5080J0D01*
G01*
X827080D02*
G03*
X827080Y878000I-5080J0D01*
G01*
X522580Y71500D02*
G03*
X522580Y71500I-5080J0D01*
G01*
X648580D02*
G03*
X648580Y71500I-5080J0D01*
G01*
X933080Y477000D02*
G03*
X933080Y477000I-5080J0D01*
G01*
Y603000D02*
G03*
X933080Y603000I-5080J0D01*
G01*
X57330Y71500D02*
G03*
X57330Y71500I-5080J0D01*
G01*
X183330D02*
G03*
X183330Y71500I-5080J0D01*
G01*
X290580Y71500D02*
G03*
X290580Y71500I-5080J0D01*
G01*
X416580D02*
G03*
X416580Y71500I-5080J0D01*
G01*
X677080Y878000D02*
G03*
X677080Y878000I-5080J0D01*
G01*
X593080D02*
G03*
X593080Y878000I-5080J0D01*
G01*
X985080Y856000D02*
G03*
X985080Y856000I-5080J0D01*
G01*
Y796000D02*
G03*
X985080Y796000I-5080J0D01*
G01*
Y736000D02*
G03*
X985080Y736000I-5080J0D01*
G01*
Y676000D02*
G03*
X985080Y676000I-5080J0D01*
G01*
Y616000D02*
G03*
X985080Y616000I-5080J0D01*
G01*
Y556000D02*
G03*
X985080Y556000I-5080J0D01*
G01*
Y496000D02*
G03*
X985080Y496000I-5080J0D01*
G01*
Y436000D02*
G03*
X985080Y436000I-5080J0D01*
G01*
Y376000D02*
G03*
X985080Y376000I-5080J0D01*
G01*
Y316000D02*
G03*
X985080Y316000I-5080J0D01*
G01*
Y256000D02*
G03*
X985080Y256000I-5080J0D01*
G01*
Y196000D02*
G03*
X985080Y196000I-5080J0D01*
G01*
Y136000D02*
G03*
X985080Y136000I-5080J0D01*
G01*
X970080Y826000D02*
G03*
X970080Y826000I-5080J0D01*
G01*
X955080Y736000D02*
G03*
X955080Y736000I-5080J0D01*
G01*
Y676000D02*
G03*
X955080Y676000I-5080J0D01*
G01*
Y616000D02*
G03*
X955080Y616000I-5080J0D01*
G01*
Y556000D02*
G03*
X955080Y556000I-5080J0D01*
G01*
Y496000D02*
G03*
X955080Y496000I-5080J0D01*
G01*
Y436000D02*
G03*
X955080Y436000I-5080J0D01*
G01*
X970080Y406000D02*
G03*
X970080Y406000I-5080J0D01*
G01*
X955080Y376000D02*
G03*
X955080Y376000I-5080J0D01*
G01*
X970080Y346000D02*
G03*
X970080Y346000I-5080J0D01*
G01*
X955080Y316000D02*
G03*
X955080Y316000I-5080J0D01*
G01*
X970080Y286000D02*
G03*
X970080Y286000I-5080J0D01*
G01*
X955080Y256000D02*
G03*
X955080Y256000I-5080J0D01*
G01*
X970080Y226000D02*
G03*
X970080Y226000I-5080J0D01*
G01*
X955080Y196000D02*
G03*
X955080Y196000I-5080J0D01*
G01*
X970080Y166000D02*
G03*
X970080Y166000I-5080J0D01*
G01*
X955080Y136000D02*
G03*
X955080Y136000I-5080J0D01*
G01*
X970080Y106000D02*
G03*
X970080Y106000I-5080J0D01*
G01*
X940080Y766000D02*
G03*
X940080Y766000I-5080J0D01*
G01*
X925080Y736000D02*
G03*
X925080Y736000I-5080J0D01*
G01*
X940080Y646000D02*
G03*
X940080Y646000I-5080J0D01*
G01*
X925080Y556000D02*
G03*
X925080Y556000I-5080J0D01*
G01*
X940080Y526000D02*
G03*
X940080Y526000I-5080J0D01*
G01*
X925080Y496000D02*
G03*
X925080Y496000I-5080J0D01*
G01*
Y436000D02*
G03*
X925080Y436000I-5080J0D01*
G01*
X940080Y406000D02*
G03*
X940080Y406000I-5080J0D01*
G01*
X925080Y376000D02*
G03*
X925080Y376000I-5080J0D01*
G01*
X940080Y346000D02*
G03*
X940080Y346000I-5080J0D01*
G01*
Y226000D02*
G03*
X940080Y226000I-5080J0D01*
G01*
X925080Y196000D02*
G03*
X925080Y196000I-5080J0D01*
G01*
X940080Y166000D02*
G03*
X940080Y166000I-5080J0D01*
G01*
X925080Y136000D02*
G03*
X925080Y136000I-5080J0D01*
G01*
X940080Y106000D02*
G03*
X940080Y106000I-5080J0D01*
G01*
X895080Y916000D02*
G03*
X895080Y916000I-5080J0D01*
G01*
Y796000D02*
G03*
X895080Y796000I-5080J0D01*
G01*
X910080Y766000D02*
G03*
X910080Y766000I-5080J0D01*
G01*
X895080Y736000D02*
G03*
X895080Y736000I-5080J0D01*
G01*
X910080Y706000D02*
G03*
X910080Y706000I-5080J0D01*
G01*
Y646000D02*
G03*
X910080Y646000I-5080J0D01*
G01*
X895080Y616000D02*
G03*
X895080Y616000I-5080J0D01*
G01*
X910080Y586000D02*
G03*
X910080Y586000I-5080J0D01*
G01*
X895080Y556000D02*
G03*
X895080Y556000I-5080J0D01*
G01*
X910080Y526000D02*
G03*
X910080Y526000I-5080J0D01*
G01*
Y466000D02*
G03*
X910080Y466000I-5080J0D01*
G01*
X895080Y436000D02*
G03*
X895080Y436000I-5080J0D01*
G01*
X910080Y406000D02*
G03*
X910080Y406000I-5080J0D01*
G01*
X895080Y376000D02*
G03*
X895080Y376000I-5080J0D01*
G01*
X910080Y346000D02*
G03*
X910080Y346000I-5080J0D01*
G01*
Y226000D02*
G03*
X910080Y226000I-5080J0D01*
G01*
X895080Y196000D02*
G03*
X895080Y196000I-5080J0D01*
G01*
X910080Y166000D02*
G03*
X910080Y166000I-5080J0D01*
G01*
X895080Y136000D02*
G03*
X895080Y136000I-5080J0D01*
G01*
X910080Y106000D02*
G03*
X910080Y106000I-5080J0D01*
G01*
X895080Y16000D02*
G03*
X895080Y16000I-5080J0D01*
G01*
X880080Y886000D02*
G03*
X880080Y886000I-5080J0D01*
G01*
X865080Y856000D02*
G03*
X865080Y856000I-5080J0D01*
G01*
X880080Y826000D02*
G03*
X880080Y826000I-5080J0D01*
G01*
X865080Y796000D02*
G03*
X865080Y796000I-5080J0D01*
G01*
X880080Y766000D02*
G03*
X880080Y766000I-5080J0D01*
G01*
Y586000D02*
G03*
X880080Y586000I-5080J0D01*
G01*
Y406000D02*
G03*
X880080Y406000I-5080J0D01*
G01*
X865080Y376000D02*
G03*
X865080Y376000I-5080J0D01*
G01*
X880080Y346000D02*
G03*
X880080Y346000I-5080J0D01*
G01*
X865080Y316000D02*
G03*
X865080Y316000I-5080J0D01*
G01*
Y256000D02*
G03*
X865080Y256000I-5080J0D01*
G01*
X880080Y226000D02*
G03*
X880080Y226000I-5080J0D01*
G01*
X865080Y196000D02*
G03*
X865080Y196000I-5080J0D01*
G01*
X880080Y166000D02*
G03*
X880080Y166000I-5080J0D01*
G01*
X865080Y136000D02*
G03*
X865080Y136000I-5080J0D01*
G01*
X880080Y106000D02*
G03*
X880080Y106000I-5080J0D01*
G01*
X865080Y16000D02*
G03*
X865080Y16000I-5080J0D01*
G01*
X835080Y916000D02*
G03*
X835080Y916000I-5080J0D01*
G01*
X850080Y886000D02*
G03*
X850080Y886000I-5080J0D01*
G01*
X835080Y856000D02*
G03*
X835080Y856000I-5080J0D01*
G01*
X850080Y406000D02*
G03*
X850080Y406000I-5080J0D01*
G01*
X835080Y376000D02*
G03*
X835080Y376000I-5080J0D01*
G01*
X850080Y346000D02*
G03*
X850080Y346000I-5080J0D01*
G01*
X835080Y316000D02*
G03*
X835080Y316000I-5080J0D01*
G01*
X850080Y286000D02*
G03*
X850080Y286000I-5080J0D01*
G01*
X835080Y256000D02*
G03*
X835080Y256000I-5080J0D01*
G01*
X850080Y226000D02*
G03*
X850080Y226000I-5080J0D01*
G01*
X835080Y196000D02*
G03*
X835080Y196000I-5080J0D01*
G01*
X850080Y166000D02*
G03*
X850080Y166000I-5080J0D01*
G01*
X835080Y136000D02*
G03*
X835080Y136000I-5080J0D01*
G01*
X850080Y106000D02*
G03*
X850080Y106000I-5080J0D01*
G01*
X835080Y16000D02*
G03*
X835080Y16000I-5080J0D01*
G01*
X805080Y916000D02*
G03*
X805080Y916000I-5080J0D01*
G01*
Y856000D02*
G03*
X805080Y856000I-5080J0D01*
G01*
X820080Y406000D02*
G03*
X820080Y406000I-5080J0D01*
G01*
X805080Y376000D02*
G03*
X805080Y376000I-5080J0D01*
G01*
X820080Y346000D02*
G03*
X820080Y346000I-5080J0D01*
G01*
X805080Y316000D02*
G03*
X805080Y316000I-5080J0D01*
G01*
X820080Y286000D02*
G03*
X820080Y286000I-5080J0D01*
G01*
X805080Y256000D02*
G03*
X805080Y256000I-5080J0D01*
G01*
X820080Y226000D02*
G03*
X820080Y226000I-5080J0D01*
G01*
X805080Y196000D02*
G03*
X805080Y196000I-5080J0D01*
G01*
X820080Y166000D02*
G03*
X820080Y166000I-5080J0D01*
G01*
X805080Y136000D02*
G03*
X805080Y136000I-5080J0D01*
G01*
X820080Y106000D02*
G03*
X820080Y106000I-5080J0D01*
G01*
X805080Y16000D02*
G03*
X805080Y16000I-5080J0D01*
G01*
X775080Y916000D02*
G03*
X775080Y916000I-5080J0D01*
G01*
X790080Y886000D02*
G03*
X790080Y886000I-5080J0D01*
G01*
X775080Y856000D02*
G03*
X775080Y856000I-5080J0D01*
G01*
Y616000D02*
G03*
X775080Y616000I-5080J0D01*
G01*
Y556000D02*
G03*
X775080Y556000I-5080J0D01*
G01*
Y496000D02*
G03*
X775080Y496000I-5080J0D01*
G01*
X790080Y406000D02*
G03*
X790080Y406000I-5080J0D01*
G01*
Y346000D02*
G03*
X790080Y346000I-5080J0D01*
G01*
Y226000D02*
G03*
X790080Y226000I-5080J0D01*
G01*
X775080Y196000D02*
G03*
X775080Y196000I-5080J0D01*
G01*
X790080Y166000D02*
G03*
X790080Y166000I-5080J0D01*
G01*
X775080Y136000D02*
G03*
X775080Y136000I-5080J0D01*
G01*
X790080Y106000D02*
G03*
X790080Y106000I-5080J0D01*
G01*
X775080Y16000D02*
G03*
X775080Y16000I-5080J0D01*
G01*
X745080Y916000D02*
G03*
X745080Y916000I-5080J0D01*
G01*
Y856000D02*
G03*
X745080Y856000I-5080J0D01*
G01*
Y616000D02*
G03*
X745080Y616000I-5080J0D01*
G01*
X760080Y406000D02*
G03*
X760080Y406000I-5080J0D01*
G01*
X745080Y376000D02*
G03*
X745080Y376000I-5080J0D01*
G01*
X760080Y346000D02*
G03*
X760080Y346000I-5080J0D01*
G01*
Y226000D02*
G03*
X760080Y226000I-5080J0D01*
G01*
X745080Y196000D02*
G03*
X745080Y196000I-5080J0D01*
G01*
X760080Y166000D02*
G03*
X760080Y166000I-5080J0D01*
G01*
X745080Y136000D02*
G03*
X745080Y136000I-5080J0D01*
G01*
X760080Y106000D02*
G03*
X760080Y106000I-5080J0D01*
G01*
X745080Y16000D02*
G03*
X745080Y16000I-5080J0D01*
G01*
X715080Y916000D02*
G03*
X715080Y916000I-5080J0D01*
G01*
Y856000D02*
G03*
X715080Y856000I-5080J0D01*
G01*
Y496000D02*
G03*
X715080Y496000I-5080J0D01*
G01*
X730080Y406000D02*
G03*
X730080Y406000I-5080J0D01*
G01*
Y346000D02*
G03*
X730080Y346000I-5080J0D01*
G01*
X715080Y316000D02*
G03*
X715080Y316000I-5080J0D01*
G01*
Y256000D02*
G03*
X715080Y256000I-5080J0D01*
G01*
X730080Y226000D02*
G03*
X730080Y226000I-5080J0D01*
G01*
X715080Y196000D02*
G03*
X715080Y196000I-5080J0D01*
G01*
X730080Y166000D02*
G03*
X730080Y166000I-5080J0D01*
G01*
X715080Y136000D02*
G03*
X715080Y136000I-5080J0D01*
G01*
X730080Y106000D02*
G03*
X730080Y106000I-5080J0D01*
G01*
X715080Y16000D02*
G03*
X715080Y16000I-5080J0D01*
G01*
X685080Y916000D02*
G03*
X685080Y916000I-5080J0D01*
G01*
X700080Y886000D02*
G03*
X700080Y886000I-5080J0D01*
G01*
X685080Y856000D02*
G03*
X685080Y856000I-5080J0D01*
G01*
Y496000D02*
G03*
X685080Y496000I-5080J0D01*
G01*
Y316000D02*
G03*
X685080Y316000I-5080J0D01*
G01*
X700080Y286000D02*
G03*
X700080Y286000I-5080J0D01*
G01*
Y226000D02*
G03*
X700080Y226000I-5080J0D01*
G01*
X685080Y196000D02*
G03*
X685080Y196000I-5080J0D01*
G01*
X700080Y166000D02*
G03*
X700080Y166000I-5080J0D01*
G01*
Y106000D02*
G03*
X700080Y106000I-5080J0D01*
G01*
X685080Y76000D02*
G03*
X685080Y76000I-5080J0D01*
G01*
X700080Y46000D02*
G03*
X700080Y46000I-5080J0D01*
G01*
X685080Y16000D02*
G03*
X685080Y16000I-5080J0D01*
G01*
X655080Y916000D02*
G03*
X655080Y916000I-5080J0D01*
G01*
Y856000D02*
G03*
X655080Y856000I-5080J0D01*
G01*
Y496000D02*
G03*
X655080Y496000I-5080J0D01*
G01*
X670080Y466000D02*
G03*
X670080Y466000I-5080J0D01*
G01*
Y46000D02*
G03*
X670080Y46000I-5080J0D01*
G01*
X655080Y16000D02*
G03*
X655080Y16000I-5080J0D01*
G01*
X625080Y916000D02*
G03*
X625080Y916000I-5080J0D01*
G01*
X640080Y886000D02*
G03*
X640080Y886000I-5080J0D01*
G01*
X625080Y856000D02*
G03*
X625080Y856000I-5080J0D01*
G01*
Y496000D02*
G03*
X625080Y496000I-5080J0D01*
G01*
Y196000D02*
G03*
X625080Y196000I-5080J0D01*
G01*
Y76000D02*
G03*
X625080Y76000I-5080J0D01*
G01*
X640080Y46000D02*
G03*
X640080Y46000I-5080J0D01*
G01*
X625080Y16000D02*
G03*
X625080Y16000I-5080J0D01*
G01*
X595080Y916000D02*
G03*
X595080Y916000I-5080J0D01*
G01*
Y856000D02*
G03*
X595080Y856000I-5080J0D01*
G01*
X610080Y526000D02*
G03*
X610080Y526000I-5080J0D01*
G01*
X595080Y316000D02*
G03*
X595080Y316000I-5080J0D01*
G01*
Y76000D02*
G03*
X595080Y76000I-5080J0D01*
G01*
X610080Y46000D02*
G03*
X610080Y46000I-5080J0D01*
G01*
X595080Y16000D02*
G03*
X595080Y16000I-5080J0D01*
G01*
X565080Y916000D02*
G03*
X565080Y916000I-5080J0D01*
G01*
Y856000D02*
G03*
X565080Y856000I-5080J0D01*
G01*
Y76000D02*
G03*
X565080Y76000I-5080J0D01*
G01*
X580080Y46000D02*
G03*
X580080Y46000I-5080J0D01*
G01*
X565080Y16000D02*
G03*
X565080Y16000I-5080J0D01*
G01*
X535080Y916000D02*
G03*
X535080Y916000I-5080J0D01*
G01*
X550080Y886000D02*
G03*
X550080Y886000I-5080J0D01*
G01*
X535080Y856000D02*
G03*
X535080Y856000I-5080J0D01*
G01*
Y496000D02*
G03*
X535080Y496000I-5080J0D01*
G01*
X550080Y46000D02*
G03*
X550080Y46000I-5080J0D01*
G01*
X535080Y16000D02*
G03*
X535080Y16000I-5080J0D01*
G01*
X505080Y916000D02*
G03*
X505080Y916000I-5080J0D01*
G01*
Y856000D02*
G03*
X505080Y856000I-5080J0D01*
G01*
Y496000D02*
G03*
X505080Y496000I-5080J0D01*
G01*
Y436000D02*
G03*
X505080Y436000I-5080J0D01*
G01*
X520080Y46000D02*
G03*
X520080Y46000I-5080J0D01*
G01*
X505080Y16000D02*
G03*
X505080Y16000I-5080J0D01*
G01*
X475080Y916000D02*
G03*
X475080Y916000I-5080J0D01*
G01*
X490080Y886000D02*
G03*
X490080Y886000I-5080J0D01*
G01*
X475080Y856000D02*
G03*
X475080Y856000I-5080J0D01*
G01*
Y556000D02*
G03*
X475080Y556000I-5080J0D01*
G01*
X490080Y526000D02*
G03*
X490080Y526000I-5080J0D01*
G01*
X475080Y496000D02*
G03*
X475080Y496000I-5080J0D01*
G01*
X490080Y466000D02*
G03*
X490080Y466000I-5080J0D01*
G01*
X475080Y316000D02*
G03*
X475080Y316000I-5080J0D01*
G01*
Y256000D02*
G03*
X475080Y256000I-5080J0D01*
G01*
Y196000D02*
G03*
X475080Y196000I-5080J0D01*
G01*
Y136000D02*
G03*
X475080Y136000I-5080J0D01*
G01*
X490080Y106000D02*
G03*
X490080Y106000I-5080J0D01*
G01*
X475080Y76000D02*
G03*
X475080Y76000I-5080J0D01*
G01*
X490080Y46000D02*
G03*
X490080Y46000I-5080J0D01*
G01*
X475080Y16000D02*
G03*
X475080Y16000I-5080J0D01*
G01*
X445080Y916000D02*
G03*
X445080Y916000I-5080J0D01*
G01*
Y856000D02*
G03*
X445080Y856000I-5080J0D01*
G01*
X460080Y526000D02*
G03*
X460080Y526000I-5080J0D01*
G01*
X445080Y496000D02*
G03*
X445080Y496000I-5080J0D01*
G01*
X460080Y466000D02*
G03*
X460080Y466000I-5080J0D01*
G01*
Y286000D02*
G03*
X460080Y286000I-5080J0D01*
G01*
Y226000D02*
G03*
X460080Y226000I-5080J0D01*
G01*
X445080Y196000D02*
G03*
X445080Y196000I-5080J0D01*
G01*
X460080Y106000D02*
G03*
X460080Y106000I-5080J0D01*
G01*
X445080Y76000D02*
G03*
X445080Y76000I-5080J0D01*
G01*
X460080Y46000D02*
G03*
X460080Y46000I-5080J0D01*
G01*
X445080Y16000D02*
G03*
X445080Y16000I-5080J0D01*
G01*
X415080Y916000D02*
G03*
X415080Y916000I-5080J0D01*
G01*
Y856000D02*
G03*
X415080Y856000I-5080J0D01*
G01*
X430080Y526000D02*
G03*
X430080Y526000I-5080J0D01*
G01*
X415080Y496000D02*
G03*
X415080Y496000I-5080J0D01*
G01*
X430080Y466000D02*
G03*
X430080Y466000I-5080J0D01*
G01*
Y46000D02*
G03*
X430080Y46000I-5080J0D01*
G01*
X415080Y16000D02*
G03*
X415080Y16000I-5080J0D01*
G01*
X385080Y916000D02*
G03*
X385080Y916000I-5080J0D01*
G01*
X400080Y886000D02*
G03*
X400080Y886000I-5080J0D01*
G01*
X385080Y76000D02*
G03*
X385080Y76000I-5080J0D01*
G01*
X400080Y46000D02*
G03*
X400080Y46000I-5080J0D01*
G01*
X385080Y16000D02*
G03*
X385080Y16000I-5080J0D01*
G01*
X355080Y316000D02*
G03*
X355080Y316000I-5080J0D01*
G01*
Y196000D02*
G03*
X355080Y196000I-5080J0D01*
G01*
Y76000D02*
G03*
X355080Y76000I-5080J0D01*
G01*
X370080Y46000D02*
G03*
X370080Y46000I-5080J0D01*
G01*
X355080Y16000D02*
G03*
X355080Y16000I-5080J0D01*
G01*
X325080Y76000D02*
G03*
X325080Y76000I-5080J0D01*
G01*
X340080Y46000D02*
G03*
X340080Y46000I-5080J0D01*
G01*
X325080Y16000D02*
G03*
X325080Y16000I-5080J0D01*
G01*
X310080Y826000D02*
G03*
X310080Y826000I-5080J0D01*
G01*
Y46000D02*
G03*
X310080Y46000I-5080J0D01*
G01*
X295080Y16000D02*
G03*
X295080Y16000I-5080J0D01*
G01*
X265080Y856000D02*
G03*
X265080Y856000I-5080J0D01*
G01*
X280080Y826000D02*
G03*
X280080Y826000I-5080J0D01*
G01*
Y466000D02*
G03*
X280080Y466000I-5080J0D01*
G01*
X265080Y196000D02*
G03*
X265080Y196000I-5080J0D01*
G01*
Y76000D02*
G03*
X265080Y76000I-5080J0D01*
G01*
X280080Y46000D02*
G03*
X280080Y46000I-5080J0D01*
G01*
X265080Y16000D02*
G03*
X265080Y16000I-5080J0D01*
G01*
X235080Y916000D02*
G03*
X235080Y916000I-5080J0D01*
G01*
X250080Y886000D02*
G03*
X250080Y886000I-5080J0D01*
G01*
X235080Y316000D02*
G03*
X235080Y316000I-5080J0D01*
G01*
Y256000D02*
G03*
X235080Y256000I-5080J0D01*
G01*
Y196000D02*
G03*
X235080Y196000I-5080J0D01*
G01*
Y136000D02*
G03*
X235080Y136000I-5080J0D01*
G01*
X250080Y106000D02*
G03*
X250080Y106000I-5080J0D01*
G01*
X235080Y76000D02*
G03*
X235080Y76000I-5080J0D01*
G01*
X250080Y46000D02*
G03*
X250080Y46000I-5080J0D01*
G01*
X235080Y16000D02*
G03*
X235080Y16000I-5080J0D01*
G01*
X220080Y706000D02*
G03*
X220080Y706000I-5080J0D01*
G01*
X205080Y556000D02*
G03*
X205080Y556000I-5080J0D01*
G01*
X220080Y466000D02*
G03*
X220080Y466000I-5080J0D01*
G01*
Y106000D02*
G03*
X220080Y106000I-5080J0D01*
G01*
X205080Y76000D02*
G03*
X205080Y76000I-5080J0D01*
G01*
X220080Y46000D02*
G03*
X220080Y46000I-5080J0D01*
G01*
X205080Y16000D02*
G03*
X205080Y16000I-5080J0D01*
G01*
X175080Y556000D02*
G03*
X175080Y556000I-5080J0D01*
G01*
X190080Y466000D02*
G03*
X190080Y466000I-5080J0D01*
G01*
Y46000D02*
G03*
X190080Y46000I-5080J0D01*
G01*
X175080Y16000D02*
G03*
X175080Y16000I-5080J0D01*
G01*
X145080Y76000D02*
G03*
X145080Y76000I-5080J0D01*
G01*
X160080Y46000D02*
G03*
X160080Y46000I-5080J0D01*
G01*
X145080Y16000D02*
G03*
X145080Y16000I-5080J0D01*
G01*
X130080Y526000D02*
G03*
X130080Y526000I-5080J0D01*
G01*
X115080Y316000D02*
G03*
X115080Y316000I-5080J0D01*
G01*
Y76000D02*
G03*
X115080Y76000I-5080J0D01*
G01*
X130080Y46000D02*
G03*
X130080Y46000I-5080J0D01*
G01*
X115080Y16000D02*
G03*
X115080Y16000I-5080J0D01*
G01*
X85080Y616000D02*
G03*
X85080Y616000I-5080J0D01*
G01*
Y76000D02*
G03*
X85080Y76000I-5080J0D01*
G01*
X100080Y46000D02*
G03*
X100080Y46000I-5080J0D01*
G01*
X85080Y16000D02*
G03*
X85080Y16000I-5080J0D01*
G01*
X70080Y706000D02*
G03*
X70080Y706000I-5080J0D01*
G01*
X55080Y676000D02*
G03*
X55080Y676000I-5080J0D01*
G01*
Y616000D02*
G03*
X55080Y616000I-5080J0D01*
G01*
Y556000D02*
G03*
X55080Y556000I-5080J0D01*
G01*
X70080Y46000D02*
G03*
X70080Y46000I-5080J0D01*
G01*
X55080Y16000D02*
G03*
X55080Y16000I-5080J0D01*
G01*
X40080Y706000D02*
G03*
X40080Y706000I-5080J0D01*
G01*
Y646000D02*
G03*
X40080Y646000I-5080J0D01*
G01*
X25080Y616000D02*
G03*
X25080Y616000I-5080J0D01*
G01*
X40080Y586000D02*
G03*
X40080Y586000I-5080J0D01*
G01*
X25080Y556000D02*
G03*
X25080Y556000I-5080J0D01*
G01*
Y196000D02*
G03*
X25080Y196000I-5080J0D01*
G01*
Y76000D02*
G03*
X25080Y76000I-5080J0D01*
G01*
X40080Y46000D02*
G03*
X40080Y46000I-5080J0D01*
G01*
X25080Y16000D02*
G03*
X25080Y16000I-5080J0D01*
G01*
X126830Y882853D02*
G03*
X126830Y882853I-5080J0D01*
G01*
X108980Y785000D02*
G03*
X108980Y785000I-5080J0D01*
G01*
X560080Y600000D02*
G03*
X560080Y600000I-5080J0D01*
G01*
X266430Y647000D02*
G03*
X266430Y647000I-5080J0D01*
G01*
X678830Y356750D02*
G03*
X678830Y356750I-5080J0D01*
G01*
X678830Y394500D02*
G03*
X678830Y394500I-5080J0D01*
G01*
X491830Y365750D02*
G03*
X491830Y365750I-5080J0D01*
G01*
X491830Y403500D02*
G03*
X491830Y403500I-5080J0D01*
G01*
X446830Y356750D02*
G03*
X446830Y356750I-5080J0D01*
G01*
X259830Y365751D02*
G03*
X259830Y365751I-5080J0D01*
G01*
X259830Y403500D02*
G03*
X259830Y403500I-5080J0D01*
G01*
X446830Y394499D02*
G03*
X446830Y394499I-5080J0D01*
G01*
X213580Y403500D02*
G03*
X213580Y403500I-5080J0D01*
G01*
X26580Y356750D02*
G03*
X26580Y356750I-5080J0D01*
G01*
X213580Y394500D02*
G03*
X213580Y394500I-5080J0D01*
G01*
X213580Y356750D02*
G03*
X213580Y356750I-5080J0D01*
G01*
X26580Y403500D02*
G03*
X26580Y403500I-5080J0D01*
G01*
X26580Y365750D02*
G03*
X26580Y365750I-5080J0D01*
G01*
X360080Y803750D02*
G03*
X360080Y803750I-5080J0D01*
G01*
X723710Y633270D02*
G03*
X723710Y633270I-5080J0D01*
G01*
X706710D02*
G03*
X706710Y633270I-5080J0D01*
G01*
X360080Y815000D02*
G03*
X360080Y815000I-5080J0D01*
G01*
X238080Y758500D02*
G03*
X238080Y758500I-5080J0D01*
G01*
X216580Y758500D02*
G03*
X216580Y758500I-5080J0D01*
G01*
X193330Y755166D02*
G03*
X193330Y755166I-5080J0D01*
G01*
X175830Y732167D02*
G03*
X175830Y732167I-5080J0D01*
G01*
X355330Y530000D02*
G03*
X355330Y530000I-5080J0D01*
G01*
X350330Y535000D02*
G03*
X350330Y535000I-5080J0D01*
G01*
X181830Y318000D02*
G03*
X181830Y318000I-5080J0D01*
G01*
X426080Y716250D02*
G03*
X426080Y716250I-5080J0D01*
G01*
X173830Y279250D02*
G03*
X173830Y279250I-5080J0D01*
G01*
X182330Y255250D02*
G03*
X182330Y255250I-5080J0D01*
G01*
X58580Y255359D02*
G03*
X58580Y255359I-5080J0D01*
G01*
X94080Y255250D02*
G03*
X94080Y255250I-5080J0D01*
G01*
X67080Y278750D02*
G03*
X67080Y278750I-5080J0D01*
G01*
X415080Y318000D02*
G03*
X415080Y318000I-5080J0D01*
G01*
X407080Y279250D02*
G03*
X407080Y279250I-5080J0D01*
G01*
X415580Y255250D02*
G03*
X415580Y255250I-5080J0D01*
G01*
X291830Y255358D02*
G03*
X291830Y255358I-5080J0D01*
G01*
X327330Y255250D02*
G03*
X327330Y255250I-5080J0D01*
G01*
X300330Y278750D02*
G03*
X300330Y278750I-5080J0D01*
G01*
X532330Y278750D02*
G03*
X532330Y278750I-5080J0D01*
G01*
X559330Y255250D02*
G03*
X559330Y255250I-5080J0D01*
G01*
X523830Y255359D02*
G03*
X523830Y255359I-5080J0D01*
G01*
X647580Y255250D02*
G03*
X647580Y255250I-5080J0D01*
G01*
X639080Y279250D02*
G03*
X639080Y279250I-5080J0D01*
G01*
X524081Y318100D02*
G03*
X524081Y318100I-5080J0D01*
G01*
X647080Y318000D02*
G03*
X647080Y318000I-5080J0D01*
G01*
X67330Y360500D02*
G03*
X67330Y360500I-5080J0D01*
G01*
X104080Y360500D02*
G03*
X104080Y360500I-5080J0D01*
G01*
X300580Y360500D02*
G03*
X300580Y360500I-5080J0D01*
G01*
X337330Y360500D02*
G03*
X337330Y360500I-5080J0D01*
G01*
X569330Y360500D02*
G03*
X569330Y360500I-5080J0D01*
G01*
X532580Y360500D02*
G03*
X532580Y360500I-5080J0D01*
G01*
X293580Y318100D02*
G03*
X293580Y318100I-5080J0D01*
G01*
X58830Y318100D02*
G03*
X58830Y318100I-5080J0D01*
G01*
X146580Y255250D02*
G03*
X146580Y255250I-5080J0D01*
G01*
X379830Y255250D02*
G03*
X379830Y255250I-5080J0D01*
G01*
X611830Y255250D02*
G03*
X611830Y255250I-5080J0D01*
G01*
X605830Y651500D02*
G03*
X605830Y651500I-5080J0D01*
G01*
X224080Y622000D02*
G03*
X224080Y622000I-5080J0D01*
G01*
X194830Y801000D02*
G03*
X194830Y801000I-5080J0D01*
G01*
X190080Y827750D02*
G03*
X190080Y827750I-5080J0D01*
G01*
Y817250D02*
G03*
X190080Y817250I-5080J0D01*
G01*
X754941Y448496D02*
G03*
X754941Y448496I-5080J0D01*
G01*
X709830Y465000D02*
G03*
X709830Y465000I-5080J0D01*
G01*
X228580Y810250D02*
G03*
X228580Y810250I-5080J0D01*
G01*
X259080Y829000D02*
G03*
X259080Y829000I-5080J0D01*
G01*
X688180Y706250D02*
G03*
X688180Y706250I-5080J0D01*
G01*
X365330Y695750D02*
G03*
X365330Y695750I-5080J0D01*
G01*
X374580Y671250D02*
G03*
X374580Y671250I-5080J0D01*
G01*
X335080Y640500D02*
G03*
X335080Y640500I-5080J0D01*
G01*
X340080Y647000D02*
G03*
X340080Y647000I-5080J0D01*
G01*
X345080Y653500D02*
G03*
X345080Y653500I-5080J0D01*
G01*
X360080Y647000D02*
G03*
X360080Y647000I-5080J0D01*
G01*
X317830Y677900D02*
G03*
X317830Y677900I-5080J0D01*
G01*
X316580Y732250D02*
G03*
X316580Y732250I-5080J0D01*
G01*
X420080Y577000D02*
G03*
X420080Y577000I-5080J0D01*
G01*
X435080Y592000D02*
G03*
X435080Y592000I-5080J0D01*
G01*
X430080Y587000D02*
G03*
X430080Y587000I-5080J0D01*
G01*
X425080Y582000D02*
G03*
X425080Y582000I-5080J0D01*
G01*
X345330Y540000D02*
G03*
X345330Y540000I-5080J0D01*
G01*
X340330Y545000D02*
G03*
X340330Y545000I-5080J0D01*
G01*
X664580Y224250D02*
G03*
X664580Y224250I-5080J0D01*
G01*
X676580Y271100D02*
G03*
X676580Y271100I-5080J0D01*
G01*
X630080Y255250D02*
G03*
X630080Y255250I-5080J0D01*
G01*
X599830Y395500D02*
G03*
X599830Y395500I-5080J0D01*
G01*
X604630Y417500D02*
G03*
X604630Y417500I-5080J0D01*
G01*
X553830D02*
G03*
X553830Y417500I-5080J0D01*
G01*
X553830Y464000D02*
G03*
X553830Y464000I-5080J0D01*
G01*
X604580D02*
G03*
X604580Y464000I-5080J0D01*
G01*
X604630Y434250D02*
G03*
X604630Y434250I-5080J0D01*
G01*
X629580Y373500D02*
G03*
X629580Y373500I-5080J0D01*
G01*
X554080Y393500D02*
G03*
X554080Y393500I-5080J0D01*
G01*
X553830Y434250D02*
G03*
X553830Y434250I-5080J0D01*
G01*
X541080Y255350D02*
G03*
X541080Y255350I-5080J0D01*
G01*
X662830Y356750D02*
G03*
X662830Y356750I-5080J0D01*
G01*
Y365750D02*
G03*
X662830Y365750I-5080J0D01*
G01*
X662830Y394500D02*
G03*
X662830Y394500I-5080J0D01*
G01*
Y403500D02*
G03*
X662830Y403500I-5080J0D01*
G01*
X678830D02*
G03*
X678830Y403500I-5080J0D01*
G01*
X678830Y365750D02*
G03*
X678830Y365750I-5080J0D01*
G01*
X507830Y403500D02*
G03*
X507830Y403500I-5080J0D01*
G01*
Y394500D02*
G03*
X507830Y394500I-5080J0D01*
G01*
X507830Y365750D02*
G03*
X507830Y365750I-5080J0D01*
G01*
Y356750D02*
G03*
X507830Y356750I-5080J0D01*
G01*
X491830Y394500D02*
G03*
X491830Y394500I-5080J0D01*
G01*
X491830Y356750D02*
G03*
X491830Y356750I-5080J0D01*
G01*
X495080Y272100D02*
G03*
X495080Y272100I-5080J0D01*
G01*
X432580Y224250D02*
G03*
X432580Y224250I-5080J0D01*
G01*
X444580Y271100D02*
G03*
X444580Y271100I-5080J0D01*
G01*
X398080Y255250D02*
G03*
X398080Y255250I-5080J0D01*
G01*
X367830Y395500D02*
G03*
X367830Y395500I-5080J0D01*
G01*
X372630Y417500D02*
G03*
X372630Y417500I-5080J0D01*
G01*
X321830D02*
G03*
X321830Y417500I-5080J0D01*
G01*
X321830Y464000D02*
G03*
X321830Y464000I-5080J0D01*
G01*
X372580D02*
G03*
X372580Y464000I-5080J0D01*
G01*
X372630Y434250D02*
G03*
X372630Y434250I-5080J0D01*
G01*
X397580Y373500D02*
G03*
X397580Y373500I-5080J0D01*
G01*
X322080Y393500D02*
G03*
X322080Y393500I-5080J0D01*
G01*
X321830Y434250D02*
G03*
X321830Y434250I-5080J0D01*
G01*
X309080Y255350D02*
G03*
X309080Y255350I-5080J0D01*
G01*
X430830Y356750D02*
G03*
X430830Y356750I-5080J0D01*
G01*
Y365750D02*
G03*
X430830Y365750I-5080J0D01*
G01*
X430830Y394500D02*
G03*
X430830Y394500I-5080J0D01*
G01*
Y403500D02*
G03*
X430830Y403500I-5080J0D01*
G01*
X446830D02*
G03*
X446830Y403500I-5080J0D01*
G01*
X446830Y365750D02*
G03*
X446830Y365750I-5080J0D01*
G01*
X275830Y403500D02*
G03*
X275830Y403500I-5080J0D01*
G01*
Y394500D02*
G03*
X275830Y394500I-5080J0D01*
G01*
X275830Y365750D02*
G03*
X275830Y365750I-5080J0D01*
G01*
Y356750D02*
G03*
X275830Y356750I-5080J0D01*
G01*
X259830Y394500D02*
G03*
X259830Y394500I-5080J0D01*
G01*
X259830Y356750D02*
G03*
X259830Y356750I-5080J0D01*
G01*
X263080Y272100D02*
G03*
X263080Y272100I-5080J0D01*
G01*
X199330Y224250D02*
G03*
X199330Y224250I-5080J0D01*
G01*
X211330Y271100D02*
G03*
X211330Y271100I-5080J0D01*
G01*
X164830Y255250D02*
G03*
X164830Y255250I-5080J0D01*
G01*
X134580Y395500D02*
G03*
X134580Y395500I-5080J0D01*
G01*
X290330Y530000D02*
G03*
X290330Y530000I-5080J0D01*
G01*
X285330Y535000D02*
G03*
X285330Y535000I-5080J0D01*
G01*
X275330Y545000D02*
G03*
X275330Y545000I-5080J0D01*
G01*
X280330Y540000D02*
G03*
X280330Y540000I-5080J0D01*
G01*
X139380Y417500D02*
G03*
X139380Y417500I-5080J0D01*
G01*
X88580D02*
G03*
X88580Y417500I-5080J0D01*
G01*
X88580Y464000D02*
G03*
X88580Y464000I-5080J0D01*
G01*
X139330D02*
G03*
X139330Y464000I-5080J0D01*
G01*
X139380Y434250D02*
G03*
X139380Y434250I-5080J0D01*
G01*
X164330Y373500D02*
G03*
X164330Y373500I-5080J0D01*
G01*
X88830Y393500D02*
G03*
X88830Y393500I-5080J0D01*
G01*
X88580Y434250D02*
G03*
X88580Y434250I-5080J0D01*
G01*
X75830Y255350D02*
G03*
X75830Y255350I-5080J0D01*
G01*
X197580Y356750D02*
G03*
X197580Y356750I-5080J0D01*
G01*
Y365750D02*
G03*
X197580Y365750I-5080J0D01*
G01*
X197580Y394500D02*
G03*
X197580Y394500I-5080J0D01*
G01*
Y403500D02*
G03*
X197580Y403500I-5080J0D01*
G01*
X213580Y365750D02*
G03*
X213580Y365750I-5080J0D01*
G01*
X42580Y403500D02*
G03*
X42580Y403500I-5080J0D01*
G01*
Y394500D02*
G03*
X42580Y394500I-5080J0D01*
G01*
X42580Y365750D02*
G03*
X42580Y365750I-5080J0D01*
G01*
Y356750D02*
G03*
X42580Y356750I-5080J0D01*
G01*
X26580Y394500D02*
G03*
X26580Y394500I-5080J0D01*
G01*
X29830Y272100D02*
G03*
X29830Y272100I-5080J0D01*
G01*
X224080Y632750D02*
G03*
X224080Y632750I-5080J0D01*
G01*
X175830Y755166D02*
G03*
X175830Y755166I-5080J0D01*
G01*
X193330Y732167D02*
G03*
X193330Y732167I-5080J0D01*
G01*
X223205Y743750D02*
G03*
X223205Y743750I-5080J0D01*
G01*
X231455D02*
G03*
X231455Y743750I-5080J0D01*
G01*
X335080Y733750D02*
G03*
X335080Y733750I-5080J0D01*
G01*
X304030Y860000D02*
G03*
X304030Y860000I-5080J0D01*
G01*
X291330D02*
G03*
X291330Y860000I-5080J0D01*
G01*
Y900300D02*
G03*
X291330Y900300I-5080J0D01*
G01*
X304030D02*
G03*
X304030Y900300I-5080J0D01*
G01*
X316730D02*
G03*
X316730Y900300I-5080J0D01*
G01*
X329430D02*
G03*
X329430Y900300I-5080J0D01*
G01*
X342130D02*
G03*
X342130Y900300I-5080J0D01*
G01*
Y860000D02*
G03*
X342130Y860000I-5080J0D01*
G01*
X329430D02*
G03*
X329430Y860000I-5080J0D01*
G01*
X316730D02*
G03*
X316730Y860000I-5080J0D01*
G01*
X212580Y883700D02*
G03*
X212580Y883700I-5080J0D01*
G01*
X266430Y632000D02*
G03*
X266430Y632000I-5080J0D01*
G01*
X295330Y750000D02*
G03*
X295330Y750000I-5080J0D01*
G01*
X126580Y895500D02*
G03*
X126580Y895500I-5080J0D01*
G01*
X228580Y795000D02*
G03*
X228580Y795000I-5080J0D01*
G01*
X117380Y749250D02*
G03*
X117380Y749250I-5080J0D01*
G01*
X100606D02*
G03*
X100606Y749250I-5080J0D01*
G01*
X61080Y834500D02*
G03*
X61080Y834500I-5080J0D01*
G01*
Y825500D02*
G03*
X61080Y825500I-5080J0D01*
G01*
X45080Y834500D02*
G03*
X45080Y834500I-5080J0D01*
G01*
Y825500D02*
G03*
X45080Y825500I-5080J0D01*
G01*
X61080Y785250D02*
G03*
X61080Y785250I-5080J0D01*
G01*
Y794250D02*
G03*
X61080Y794250I-5080J0D01*
G01*
X45080D02*
G03*
X45080Y794250I-5080J0D01*
G01*
Y785250D02*
G03*
X45080Y785250I-5080J0D01*
G01*
X45080Y746000D02*
G03*
X45080Y746000I-5080J0D01*
G01*
Y755000D02*
G03*
X45080Y755000I-5080J0D01*
G01*
X61080D02*
G03*
X61080Y755000I-5080J0D01*
G01*
Y746000D02*
G03*
X61080Y746000I-5080J0D01*
G01*
X220528Y816501D02*
G03*
X220528Y816501I-5080J0D01*
G01*
Y803751D02*
G03*
X220528Y803751I-5080J0D01*
G01*
X159028Y815001D02*
G03*
X159028Y815001I-5080J0D01*
G01*
X266043Y604959D02*
G03*
X266043Y604959I-5080J0D01*
G01*
X300180Y596500D02*
G03*
X300180Y596500I-5080J0D01*
G01*
X266180Y595500D02*
G03*
X266180Y595500I-5080J0D01*
G01*
X270330Y578250D02*
G03*
X270330Y578250I-5080J0D01*
G01*
X371580Y578250D02*
G03*
X371580Y578250I-5080J0D01*
G01*
X384080D02*
G03*
X384080Y578250I-5080J0D01*
G01*
X401080Y716750D02*
G03*
X401080Y716750I-5080J0D01*
G01*
X266580Y695750D02*
G03*
X266580Y695750I-5080J0D01*
G01*
X266139Y675250D02*
G03*
X266139Y675250I-5080J0D01*
G01*
X163330Y896250D02*
G03*
X163330Y896250I-5080J0D01*
G01*
Y863750D02*
G03*
X163330Y863750I-5080J0D01*
G01*
X114080Y895500D02*
G03*
X114080Y895500I-5080J0D01*
G01*
X212580Y896250D02*
G03*
X212580Y896250I-5080J0D01*
G01*
X719330Y557500D02*
G03*
X719330Y557500I-5080J0D01*
G01*
X705080Y686500D02*
G03*
X705080Y686500I-5080J0D01*
G01*
X696080Y602500D02*
G03*
X696080Y602500I-5080J0D01*
G01*
X660830Y686000D02*
G03*
X660830Y686000I-5080J0D01*
G01*
X675080Y557250D02*
G03*
X675080Y557250I-5080J0D01*
G01*
X702017Y577250D02*
G03*
X702017Y577250I-5080J0D01*
G01*
X688080Y666500D02*
G03*
X688080Y666500I-5080J0D01*
G01*
X683080Y602500D02*
G03*
X683080Y602500I-5080J0D01*
G01*
X669080Y641250D02*
G03*
X669080Y641250I-5080J0D01*
G01*
D112*
X983048Y856000D02*
G03*
X983048Y856000I-3048J0D01*
G01*
Y796000D02*
G03*
X983048Y796000I-3048J0D01*
G01*
Y736000D02*
G03*
X983048Y736000I-3048J0D01*
G01*
Y676000D02*
G03*
X983048Y676000I-3048J0D01*
G01*
Y616000D02*
G03*
X983048Y616000I-3048J0D01*
G01*
Y556000D02*
G03*
X983048Y556000I-3048J0D01*
G01*
Y496000D02*
G03*
X983048Y496000I-3048J0D01*
G01*
Y436000D02*
G03*
X983048Y436000I-3048J0D01*
G01*
Y376000D02*
G03*
X983048Y376000I-3048J0D01*
G01*
Y316000D02*
G03*
X983048Y316000I-3048J0D01*
G01*
Y256000D02*
G03*
X983048Y256000I-3048J0D01*
G01*
Y196000D02*
G03*
X983048Y196000I-3048J0D01*
G01*
Y136000D02*
G03*
X983048Y136000I-3048J0D01*
G01*
X968048Y826000D02*
G03*
X968048Y826000I-3048J0D01*
G01*
X953048Y736000D02*
G03*
X953048Y736000I-3048J0D01*
G01*
Y676000D02*
G03*
X953048Y676000I-3048J0D01*
G01*
Y616000D02*
G03*
X953048Y616000I-3048J0D01*
G01*
Y556000D02*
G03*
X953048Y556000I-3048J0D01*
G01*
Y496000D02*
G03*
X953048Y496000I-3048J0D01*
G01*
Y436000D02*
G03*
X953048Y436000I-3048J0D01*
G01*
X968048Y406000D02*
G03*
X968048Y406000I-3048J0D01*
G01*
X953048Y376000D02*
G03*
X953048Y376000I-3048J0D01*
G01*
X968048Y346000D02*
G03*
X968048Y346000I-3048J0D01*
G01*
X953048Y316000D02*
G03*
X953048Y316000I-3048J0D01*
G01*
X968048Y286000D02*
G03*
X968048Y286000I-3048J0D01*
G01*
X953048Y256000D02*
G03*
X953048Y256000I-3048J0D01*
G01*
X968048Y226000D02*
G03*
X968048Y226000I-3048J0D01*
G01*
X953048Y196000D02*
G03*
X953048Y196000I-3048J0D01*
G01*
X968048Y166000D02*
G03*
X968048Y166000I-3048J0D01*
G01*
X953048Y136000D02*
G03*
X953048Y136000I-3048J0D01*
G01*
X968048Y106000D02*
G03*
X968048Y106000I-3048J0D01*
G01*
X938048Y766000D02*
G03*
X938048Y766000I-3048J0D01*
G01*
X923048Y736000D02*
G03*
X923048Y736000I-3048J0D01*
G01*
X938048Y646000D02*
G03*
X938048Y646000I-3048J0D01*
G01*
X923048Y556000D02*
G03*
X923048Y556000I-3048J0D01*
G01*
X938048Y526000D02*
G03*
X938048Y526000I-3048J0D01*
G01*
X923048Y496000D02*
G03*
X923048Y496000I-3048J0D01*
G01*
Y436000D02*
G03*
X923048Y436000I-3048J0D01*
G01*
X938048Y406000D02*
G03*
X938048Y406000I-3048J0D01*
G01*
X923048Y376000D02*
G03*
X923048Y376000I-3048J0D01*
G01*
X938048Y346000D02*
G03*
X938048Y346000I-3048J0D01*
G01*
Y226000D02*
G03*
X938048Y226000I-3048J0D01*
G01*
X923048Y196000D02*
G03*
X923048Y196000I-3048J0D01*
G01*
X938048Y166000D02*
G03*
X938048Y166000I-3048J0D01*
G01*
X923048Y136000D02*
G03*
X923048Y136000I-3048J0D01*
G01*
X938048Y106000D02*
G03*
X938048Y106000I-3048J0D01*
G01*
X893048Y916000D02*
G03*
X893048Y916000I-3048J0D01*
G01*
Y796000D02*
G03*
X893048Y796000I-3048J0D01*
G01*
X908048Y766000D02*
G03*
X908048Y766000I-3048J0D01*
G01*
X893048Y736000D02*
G03*
X893048Y736000I-3048J0D01*
G01*
X908048Y706000D02*
G03*
X908048Y706000I-3048J0D01*
G01*
Y646000D02*
G03*
X908048Y646000I-3048J0D01*
G01*
X893048Y616000D02*
G03*
X893048Y616000I-3048J0D01*
G01*
X908048Y586000D02*
G03*
X908048Y586000I-3048J0D01*
G01*
X893048Y556000D02*
G03*
X893048Y556000I-3048J0D01*
G01*
X908048Y526000D02*
G03*
X908048Y526000I-3048J0D01*
G01*
Y466000D02*
G03*
X908048Y466000I-3048J0D01*
G01*
X893048Y436000D02*
G03*
X893048Y436000I-3048J0D01*
G01*
X908048Y406000D02*
G03*
X908048Y406000I-3048J0D01*
G01*
X893048Y376000D02*
G03*
X893048Y376000I-3048J0D01*
G01*
X908048Y346000D02*
G03*
X908048Y346000I-3048J0D01*
G01*
Y226000D02*
G03*
X908048Y226000I-3048J0D01*
G01*
X893048Y196000D02*
G03*
X893048Y196000I-3048J0D01*
G01*
X908048Y166000D02*
G03*
X908048Y166000I-3048J0D01*
G01*
X893048Y136000D02*
G03*
X893048Y136000I-3048J0D01*
G01*
X908048Y106000D02*
G03*
X908048Y106000I-3048J0D01*
G01*
X893048Y16000D02*
G03*
X893048Y16000I-3048J0D01*
G01*
X878048Y886000D02*
G03*
X878048Y886000I-3048J0D01*
G01*
X863048Y856000D02*
G03*
X863048Y856000I-3048J0D01*
G01*
X878048Y826000D02*
G03*
X878048Y826000I-3048J0D01*
G01*
X863048Y796000D02*
G03*
X863048Y796000I-3048J0D01*
G01*
X878048Y766000D02*
G03*
X878048Y766000I-3048J0D01*
G01*
Y586000D02*
G03*
X878048Y586000I-3048J0D01*
G01*
Y406000D02*
G03*
X878048Y406000I-3048J0D01*
G01*
X863048Y376000D02*
G03*
X863048Y376000I-3048J0D01*
G01*
X878048Y346000D02*
G03*
X878048Y346000I-3048J0D01*
G01*
X863048Y316000D02*
G03*
X863048Y316000I-3048J0D01*
G01*
Y256000D02*
G03*
X863048Y256000I-3048J0D01*
G01*
X878048Y226000D02*
G03*
X878048Y226000I-3048J0D01*
G01*
X863048Y196000D02*
G03*
X863048Y196000I-3048J0D01*
G01*
X878048Y166000D02*
G03*
X878048Y166000I-3048J0D01*
G01*
X863048Y136000D02*
G03*
X863048Y136000I-3048J0D01*
G01*
X878048Y106000D02*
G03*
X878048Y106000I-3048J0D01*
G01*
X863048Y16000D02*
G03*
X863048Y16000I-3048J0D01*
G01*
X833048Y916000D02*
G03*
X833048Y916000I-3048J0D01*
G01*
X848048Y886000D02*
G03*
X848048Y886000I-3048J0D01*
G01*
X833048Y856000D02*
G03*
X833048Y856000I-3048J0D01*
G01*
X848048Y406000D02*
G03*
X848048Y406000I-3048J0D01*
G01*
X833048Y376000D02*
G03*
X833048Y376000I-3048J0D01*
G01*
X848048Y346000D02*
G03*
X848048Y346000I-3048J0D01*
G01*
X833048Y316000D02*
G03*
X833048Y316000I-3048J0D01*
G01*
X848048Y286000D02*
G03*
X848048Y286000I-3048J0D01*
G01*
X833048Y256000D02*
G03*
X833048Y256000I-3048J0D01*
G01*
X848048Y226000D02*
G03*
X848048Y226000I-3048J0D01*
G01*
X833048Y196000D02*
G03*
X833048Y196000I-3048J0D01*
G01*
X848048Y166000D02*
G03*
X848048Y166000I-3048J0D01*
G01*
X833048Y136000D02*
G03*
X833048Y136000I-3048J0D01*
G01*
X848048Y106000D02*
G03*
X848048Y106000I-3048J0D01*
G01*
X833048Y16000D02*
G03*
X833048Y16000I-3048J0D01*
G01*
X803048Y916000D02*
G03*
X803048Y916000I-3048J0D01*
G01*
Y856000D02*
G03*
X803048Y856000I-3048J0D01*
G01*
X818048Y406000D02*
G03*
X818048Y406000I-3048J0D01*
G01*
X803048Y376000D02*
G03*
X803048Y376000I-3048J0D01*
G01*
X818048Y346000D02*
G03*
X818048Y346000I-3048J0D01*
G01*
X803048Y316000D02*
G03*
X803048Y316000I-3048J0D01*
G01*
X818048Y286000D02*
G03*
X818048Y286000I-3048J0D01*
G01*
X803048Y256000D02*
G03*
X803048Y256000I-3048J0D01*
G01*
X818048Y226000D02*
G03*
X818048Y226000I-3048J0D01*
G01*
X803048Y196000D02*
G03*
X803048Y196000I-3048J0D01*
G01*
X818048Y166000D02*
G03*
X818048Y166000I-3048J0D01*
G01*
X803048Y136000D02*
G03*
X803048Y136000I-3048J0D01*
G01*
X818048Y106000D02*
G03*
X818048Y106000I-3048J0D01*
G01*
X803048Y16000D02*
G03*
X803048Y16000I-3048J0D01*
G01*
X773048Y916000D02*
G03*
X773048Y916000I-3048J0D01*
G01*
X788048Y886000D02*
G03*
X788048Y886000I-3048J0D01*
G01*
X773048Y856000D02*
G03*
X773048Y856000I-3048J0D01*
G01*
Y616000D02*
G03*
X773048Y616000I-3048J0D01*
G01*
Y556000D02*
G03*
X773048Y556000I-3048J0D01*
G01*
Y496000D02*
G03*
X773048Y496000I-3048J0D01*
G01*
X788048Y406000D02*
G03*
X788048Y406000I-3048J0D01*
G01*
Y346000D02*
G03*
X788048Y346000I-3048J0D01*
G01*
Y226000D02*
G03*
X788048Y226000I-3048J0D01*
G01*
X773048Y196000D02*
G03*
X773048Y196000I-3048J0D01*
G01*
X788048Y166000D02*
G03*
X788048Y166000I-3048J0D01*
G01*
X773048Y136000D02*
G03*
X773048Y136000I-3048J0D01*
G01*
X788048Y106000D02*
G03*
X788048Y106000I-3048J0D01*
G01*
X773048Y16000D02*
G03*
X773048Y16000I-3048J0D01*
G01*
X743048Y916000D02*
G03*
X743048Y916000I-3048J0D01*
G01*
Y856000D02*
G03*
X743048Y856000I-3048J0D01*
G01*
Y616000D02*
G03*
X743048Y616000I-3048J0D01*
G01*
X758048Y406000D02*
G03*
X758048Y406000I-3048J0D01*
G01*
X743048Y376000D02*
G03*
X743048Y376000I-3048J0D01*
G01*
X758048Y346000D02*
G03*
X758048Y346000I-3048J0D01*
G01*
Y226000D02*
G03*
X758048Y226000I-3048J0D01*
G01*
X743048Y196000D02*
G03*
X743048Y196000I-3048J0D01*
G01*
X758048Y166000D02*
G03*
X758048Y166000I-3048J0D01*
G01*
X743048Y136000D02*
G03*
X743048Y136000I-3048J0D01*
G01*
X758048Y106000D02*
G03*
X758048Y106000I-3048J0D01*
G01*
X743048Y16000D02*
G03*
X743048Y16000I-3048J0D01*
G01*
X713048Y916000D02*
G03*
X713048Y916000I-3048J0D01*
G01*
Y856000D02*
G03*
X713048Y856000I-3048J0D01*
G01*
Y496000D02*
G03*
X713048Y496000I-3048J0D01*
G01*
X728048Y406000D02*
G03*
X728048Y406000I-3048J0D01*
G01*
Y346000D02*
G03*
X728048Y346000I-3048J0D01*
G01*
X713048Y316000D02*
G03*
X713048Y316000I-3048J0D01*
G01*
Y256000D02*
G03*
X713048Y256000I-3048J0D01*
G01*
X728048Y226000D02*
G03*
X728048Y226000I-3048J0D01*
G01*
X713048Y196000D02*
G03*
X713048Y196000I-3048J0D01*
G01*
X728048Y166000D02*
G03*
X728048Y166000I-3048J0D01*
G01*
X713048Y136000D02*
G03*
X713048Y136000I-3048J0D01*
G01*
X728048Y106000D02*
G03*
X728048Y106000I-3048J0D01*
G01*
X713048Y16000D02*
G03*
X713048Y16000I-3048J0D01*
G01*
X683048Y916000D02*
G03*
X683048Y916000I-3048J0D01*
G01*
X698048Y886000D02*
G03*
X698048Y886000I-3048J0D01*
G01*
X683048Y856000D02*
G03*
X683048Y856000I-3048J0D01*
G01*
Y496000D02*
G03*
X683048Y496000I-3048J0D01*
G01*
Y316000D02*
G03*
X683048Y316000I-3048J0D01*
G01*
X698048Y286000D02*
G03*
X698048Y286000I-3048J0D01*
G01*
Y226000D02*
G03*
X698048Y226000I-3048J0D01*
G01*
X683048Y196000D02*
G03*
X683048Y196000I-3048J0D01*
G01*
X698048Y166000D02*
G03*
X698048Y166000I-3048J0D01*
G01*
Y106000D02*
G03*
X698048Y106000I-3048J0D01*
G01*
X683048Y76000D02*
G03*
X683048Y76000I-3048J0D01*
G01*
X698048Y46000D02*
G03*
X698048Y46000I-3048J0D01*
G01*
X683048Y16000D02*
G03*
X683048Y16000I-3048J0D01*
G01*
X653048Y916000D02*
G03*
X653048Y916000I-3048J0D01*
G01*
Y856000D02*
G03*
X653048Y856000I-3048J0D01*
G01*
Y496000D02*
G03*
X653048Y496000I-3048J0D01*
G01*
X668048Y466000D02*
G03*
X668048Y466000I-3048J0D01*
G01*
Y46000D02*
G03*
X668048Y46000I-3048J0D01*
G01*
X653048Y16000D02*
G03*
X653048Y16000I-3048J0D01*
G01*
X623048Y916000D02*
G03*
X623048Y916000I-3048J0D01*
G01*
X638048Y886000D02*
G03*
X638048Y886000I-3048J0D01*
G01*
X623048Y856000D02*
G03*
X623048Y856000I-3048J0D01*
G01*
Y496000D02*
G03*
X623048Y496000I-3048J0D01*
G01*
Y196000D02*
G03*
X623048Y196000I-3048J0D01*
G01*
Y76000D02*
G03*
X623048Y76000I-3048J0D01*
G01*
X638048Y46000D02*
G03*
X638048Y46000I-3048J0D01*
G01*
X623048Y16000D02*
G03*
X623048Y16000I-3048J0D01*
G01*
X593048Y916000D02*
G03*
X593048Y916000I-3048J0D01*
G01*
Y856000D02*
G03*
X593048Y856000I-3048J0D01*
G01*
X608048Y526000D02*
G03*
X608048Y526000I-3048J0D01*
G01*
X593048Y316000D02*
G03*
X593048Y316000I-3048J0D01*
G01*
Y76000D02*
G03*
X593048Y76000I-3048J0D01*
G01*
X608048Y46000D02*
G03*
X608048Y46000I-3048J0D01*
G01*
X593048Y16000D02*
G03*
X593048Y16000I-3048J0D01*
G01*
X563048Y916000D02*
G03*
X563048Y916000I-3048J0D01*
G01*
Y856000D02*
G03*
X563048Y856000I-3048J0D01*
G01*
Y76000D02*
G03*
X563048Y76000I-3048J0D01*
G01*
X578048Y46000D02*
G03*
X578048Y46000I-3048J0D01*
G01*
X563048Y16000D02*
G03*
X563048Y16000I-3048J0D01*
G01*
X533048Y916000D02*
G03*
X533048Y916000I-3048J0D01*
G01*
X548048Y886000D02*
G03*
X548048Y886000I-3048J0D01*
G01*
X533048Y856000D02*
G03*
X533048Y856000I-3048J0D01*
G01*
Y496000D02*
G03*
X533048Y496000I-3048J0D01*
G01*
X548048Y46000D02*
G03*
X548048Y46000I-3048J0D01*
G01*
X533048Y16000D02*
G03*
X533048Y16000I-3048J0D01*
G01*
X503048Y916000D02*
G03*
X503048Y916000I-3048J0D01*
G01*
Y856000D02*
G03*
X503048Y856000I-3048J0D01*
G01*
Y496000D02*
G03*
X503048Y496000I-3048J0D01*
G01*
Y436000D02*
G03*
X503048Y436000I-3048J0D01*
G01*
X518048Y46000D02*
G03*
X518048Y46000I-3048J0D01*
G01*
X503048Y16000D02*
G03*
X503048Y16000I-3048J0D01*
G01*
X473048Y916000D02*
G03*
X473048Y916000I-3048J0D01*
G01*
X488048Y886000D02*
G03*
X488048Y886000I-3048J0D01*
G01*
X473048Y856000D02*
G03*
X473048Y856000I-3048J0D01*
G01*
Y556000D02*
G03*
X473048Y556000I-3048J0D01*
G01*
X488048Y526000D02*
G03*
X488048Y526000I-3048J0D01*
G01*
X473048Y496000D02*
G03*
X473048Y496000I-3048J0D01*
G01*
X488048Y466000D02*
G03*
X488048Y466000I-3048J0D01*
G01*
X473048Y316000D02*
G03*
X473048Y316000I-3048J0D01*
G01*
Y256000D02*
G03*
X473048Y256000I-3048J0D01*
G01*
Y196000D02*
G03*
X473048Y196000I-3048J0D01*
G01*
Y136000D02*
G03*
X473048Y136000I-3048J0D01*
G01*
X488048Y106000D02*
G03*
X488048Y106000I-3048J0D01*
G01*
X473048Y76000D02*
G03*
X473048Y76000I-3048J0D01*
G01*
X488048Y46000D02*
G03*
X488048Y46000I-3048J0D01*
G01*
X473048Y16000D02*
G03*
X473048Y16000I-3048J0D01*
G01*
X443048Y916000D02*
G03*
X443048Y916000I-3048J0D01*
G01*
Y856000D02*
G03*
X443048Y856000I-3048J0D01*
G01*
X458048Y526000D02*
G03*
X458048Y526000I-3048J0D01*
G01*
X443048Y496000D02*
G03*
X443048Y496000I-3048J0D01*
G01*
X458048Y466000D02*
G03*
X458048Y466000I-3048J0D01*
G01*
Y286000D02*
G03*
X458048Y286000I-3048J0D01*
G01*
Y226000D02*
G03*
X458048Y226000I-3048J0D01*
G01*
X443048Y196000D02*
G03*
X443048Y196000I-3048J0D01*
G01*
X458048Y106000D02*
G03*
X458048Y106000I-3048J0D01*
G01*
X443048Y76000D02*
G03*
X443048Y76000I-3048J0D01*
G01*
X458048Y46000D02*
G03*
X458048Y46000I-3048J0D01*
G01*
X443048Y16000D02*
G03*
X443048Y16000I-3048J0D01*
G01*
X413048Y916000D02*
G03*
X413048Y916000I-3048J0D01*
G01*
Y856000D02*
G03*
X413048Y856000I-3048J0D01*
G01*
X428048Y526000D02*
G03*
X428048Y526000I-3048J0D01*
G01*
X413048Y496000D02*
G03*
X413048Y496000I-3048J0D01*
G01*
X428048Y466000D02*
G03*
X428048Y466000I-3048J0D01*
G01*
Y46000D02*
G03*
X428048Y46000I-3048J0D01*
G01*
X413048Y16000D02*
G03*
X413048Y16000I-3048J0D01*
G01*
X383048Y916000D02*
G03*
X383048Y916000I-3048J0D01*
G01*
X398048Y886000D02*
G03*
X398048Y886000I-3048J0D01*
G01*
X383048Y76000D02*
G03*
X383048Y76000I-3048J0D01*
G01*
X398048Y46000D02*
G03*
X398048Y46000I-3048J0D01*
G01*
X383048Y16000D02*
G03*
X383048Y16000I-3048J0D01*
G01*
X353048Y316000D02*
G03*
X353048Y316000I-3048J0D01*
G01*
Y196000D02*
G03*
X353048Y196000I-3048J0D01*
G01*
Y76000D02*
G03*
X353048Y76000I-3048J0D01*
G01*
X368048Y46000D02*
G03*
X368048Y46000I-3048J0D01*
G01*
X353048Y16000D02*
G03*
X353048Y16000I-3048J0D01*
G01*
X323048Y76000D02*
G03*
X323048Y76000I-3048J0D01*
G01*
X338048Y46000D02*
G03*
X338048Y46000I-3048J0D01*
G01*
X323048Y16000D02*
G03*
X323048Y16000I-3048J0D01*
G01*
X308048Y826000D02*
G03*
X308048Y826000I-3048J0D01*
G01*
Y46000D02*
G03*
X308048Y46000I-3048J0D01*
G01*
X293048Y16000D02*
G03*
X293048Y16000I-3048J0D01*
G01*
X263048Y856000D02*
G03*
X263048Y856000I-3048J0D01*
G01*
X278048Y826000D02*
G03*
X278048Y826000I-3048J0D01*
G01*
Y466000D02*
G03*
X278048Y466000I-3048J0D01*
G01*
X263048Y196000D02*
G03*
X263048Y196000I-3048J0D01*
G01*
Y76000D02*
G03*
X263048Y76000I-3048J0D01*
G01*
X278048Y46000D02*
G03*
X278048Y46000I-3048J0D01*
G01*
X263048Y16000D02*
G03*
X263048Y16000I-3048J0D01*
G01*
X233048Y916000D02*
G03*
X233048Y916000I-3048J0D01*
G01*
X248048Y886000D02*
G03*
X248048Y886000I-3048J0D01*
G01*
X233048Y316000D02*
G03*
X233048Y316000I-3048J0D01*
G01*
Y256000D02*
G03*
X233048Y256000I-3048J0D01*
G01*
Y196000D02*
G03*
X233048Y196000I-3048J0D01*
G01*
Y136000D02*
G03*
X233048Y136000I-3048J0D01*
G01*
X248048Y106000D02*
G03*
X248048Y106000I-3048J0D01*
G01*
X233048Y76000D02*
G03*
X233048Y76000I-3048J0D01*
G01*
X248048Y46000D02*
G03*
X248048Y46000I-3048J0D01*
G01*
X233048Y16000D02*
G03*
X233048Y16000I-3048J0D01*
G01*
X218048Y706000D02*
G03*
X218048Y706000I-3048J0D01*
G01*
X203048Y556000D02*
G03*
X203048Y556000I-3048J0D01*
G01*
X218048Y466000D02*
G03*
X218048Y466000I-3048J0D01*
G01*
Y106000D02*
G03*
X218048Y106000I-3048J0D01*
G01*
X203048Y76000D02*
G03*
X203048Y76000I-3048J0D01*
G01*
X218048Y46000D02*
G03*
X218048Y46000I-3048J0D01*
G01*
X203048Y16000D02*
G03*
X203048Y16000I-3048J0D01*
G01*
X173048Y556000D02*
G03*
X173048Y556000I-3048J0D01*
G01*
X188048Y466000D02*
G03*
X188048Y466000I-3048J0D01*
G01*
Y46000D02*
G03*
X188048Y46000I-3048J0D01*
G01*
X173048Y16000D02*
G03*
X173048Y16000I-3048J0D01*
G01*
X143048Y76000D02*
G03*
X143048Y76000I-3048J0D01*
G01*
X158048Y46000D02*
G03*
X158048Y46000I-3048J0D01*
G01*
X143048Y16000D02*
G03*
X143048Y16000I-3048J0D01*
G01*
X128048Y526000D02*
G03*
X128048Y526000I-3048J0D01*
G01*
X113048Y316000D02*
G03*
X113048Y316000I-3048J0D01*
G01*
Y76000D02*
G03*
X113048Y76000I-3048J0D01*
G01*
X128048Y46000D02*
G03*
X128048Y46000I-3048J0D01*
G01*
X113048Y16000D02*
G03*
X113048Y16000I-3048J0D01*
G01*
X83048Y616000D02*
G03*
X83048Y616000I-3048J0D01*
G01*
Y76000D02*
G03*
X83048Y76000I-3048J0D01*
G01*
X98048Y46000D02*
G03*
X98048Y46000I-3048J0D01*
G01*
X83048Y16000D02*
G03*
X83048Y16000I-3048J0D01*
G01*
X68048Y706000D02*
G03*
X68048Y706000I-3048J0D01*
G01*
X53048Y676000D02*
G03*
X53048Y676000I-3048J0D01*
G01*
Y616000D02*
G03*
X53048Y616000I-3048J0D01*
G01*
Y556000D02*
G03*
X53048Y556000I-3048J0D01*
G01*
X68048Y46000D02*
G03*
X68048Y46000I-3048J0D01*
G01*
X53048Y16000D02*
G03*
X53048Y16000I-3048J0D01*
G01*
X38048Y706000D02*
G03*
X38048Y706000I-3048J0D01*
G01*
Y646000D02*
G03*
X38048Y646000I-3048J0D01*
G01*
X23048Y616000D02*
G03*
X23048Y616000I-3048J0D01*
G01*
X38048Y586000D02*
G03*
X38048Y586000I-3048J0D01*
G01*
X23048Y556000D02*
G03*
X23048Y556000I-3048J0D01*
G01*
Y196000D02*
G03*
X23048Y196000I-3048J0D01*
G01*
Y76000D02*
G03*
X23048Y76000I-3048J0D01*
G01*
X38048Y46000D02*
G03*
X38048Y46000I-3048J0D01*
G01*
X23048Y16000D02*
G03*
X23048Y16000I-3048J0D01*
G01*
X124798Y882853D02*
G03*
X124798Y882853I-3048J0D01*
G01*
X106948Y785000D02*
G03*
X106948Y785000I-3048J0D01*
G01*
X558048Y600000D02*
G03*
X558048Y600000I-3048J0D01*
G01*
X264398Y647000D02*
G03*
X264398Y647000I-3048J0D01*
G01*
X676798Y356750D02*
G03*
X676798Y356750I-3048J0D01*
G01*
X676798Y394500D02*
G03*
X676798Y394500I-3048J0D01*
G01*
X489798Y365750D02*
G03*
X489798Y365750I-3048J0D01*
G01*
X489798Y403500D02*
G03*
X489798Y403500I-3048J0D01*
G01*
X444798Y356750D02*
G03*
X444798Y356750I-3048J0D01*
G01*
X257798Y365751D02*
G03*
X257798Y365751I-3048J0D01*
G01*
X257798Y403500D02*
G03*
X257798Y403500I-3048J0D01*
G01*
X444798Y394499D02*
G03*
X444798Y394499I-3048J0D01*
G01*
X211548Y403500D02*
G03*
X211548Y403500I-3048J0D01*
G01*
X24548Y356750D02*
G03*
X24548Y356750I-3048J0D01*
G01*
X211548Y394500D02*
G03*
X211548Y394500I-3048J0D01*
G01*
X211548Y356750D02*
G03*
X211548Y356750I-3048J0D01*
G01*
X24548Y403500D02*
G03*
X24548Y403500I-3048J0D01*
G01*
X24548Y365750D02*
G03*
X24548Y365750I-3048J0D01*
G01*
X358048Y803750D02*
G03*
X358048Y803750I-3048J0D01*
G01*
X721678Y633270D02*
G03*
X721678Y633270I-3048J0D01*
G01*
X704678D02*
G03*
X704678Y633270I-3048J0D01*
G01*
X358048Y815000D02*
G03*
X358048Y815000I-3048J0D01*
G01*
X236048Y758500D02*
G03*
X236048Y758500I-3048J0D01*
G01*
X214548Y758500D02*
G03*
X214548Y758500I-3048J0D01*
G01*
X191298Y755166D02*
G03*
X191298Y755166I-3048J0D01*
G01*
X173798Y732167D02*
G03*
X173798Y732167I-3048J0D01*
G01*
X353298Y530000D02*
G03*
X353298Y530000I-3048J0D01*
G01*
X348298Y535000D02*
G03*
X348298Y535000I-3048J0D01*
G01*
X179798Y318000D02*
G03*
X179798Y318000I-3048J0D01*
G01*
X424048Y716250D02*
G03*
X424048Y716250I-3048J0D01*
G01*
X171798Y279250D02*
G03*
X171798Y279250I-3048J0D01*
G01*
X180298Y255250D02*
G03*
X180298Y255250I-3048J0D01*
G01*
X56548Y255359D02*
G03*
X56548Y255359I-3048J0D01*
G01*
X92048Y255250D02*
G03*
X92048Y255250I-3048J0D01*
G01*
X65048Y278750D02*
G03*
X65048Y278750I-3048J0D01*
G01*
X413048Y318000D02*
G03*
X413048Y318000I-3048J0D01*
G01*
X405048Y279250D02*
G03*
X405048Y279250I-3048J0D01*
G01*
X413548Y255250D02*
G03*
X413548Y255250I-3048J0D01*
G01*
X289798Y255358D02*
G03*
X289798Y255358I-3048J0D01*
G01*
X325298Y255250D02*
G03*
X325298Y255250I-3048J0D01*
G01*
X298298Y278750D02*
G03*
X298298Y278750I-3048J0D01*
G01*
X530298Y278750D02*
G03*
X530298Y278750I-3048J0D01*
G01*
X557298Y255250D02*
G03*
X557298Y255250I-3048J0D01*
G01*
X521798Y255359D02*
G03*
X521798Y255359I-3048J0D01*
G01*
X645548Y255250D02*
G03*
X645548Y255250I-3048J0D01*
G01*
X637048Y279250D02*
G03*
X637048Y279250I-3048J0D01*
G01*
X522048Y318100D02*
G03*
X522048Y318100I-3048J0D01*
G01*
X645048Y318000D02*
G03*
X645048Y318000I-3048J0D01*
G01*
X65298Y360500D02*
G03*
X65298Y360500I-3048J0D01*
G01*
X102048Y360500D02*
G03*
X102048Y360500I-3048J0D01*
G01*
X298548Y360500D02*
G03*
X298548Y360500I-3048J0D01*
G01*
X335298Y360500D02*
G03*
X335298Y360500I-3048J0D01*
G01*
X567298Y360500D02*
G03*
X567298Y360500I-3048J0D01*
G01*
X530548Y360500D02*
G03*
X530548Y360500I-3048J0D01*
G01*
X291548Y318100D02*
G03*
X291548Y318100I-3048J0D01*
G01*
X56798Y318100D02*
G03*
X56798Y318100I-3048J0D01*
G01*
X144548Y255250D02*
G03*
X144548Y255250I-3048J0D01*
G01*
X377798Y255250D02*
G03*
X377798Y255250I-3048J0D01*
G01*
X609798Y255250D02*
G03*
X609798Y255250I-3048J0D01*
G01*
X603798Y651500D02*
G03*
X603798Y651500I-3048J0D01*
G01*
X222048Y622000D02*
G03*
X222048Y622000I-3048J0D01*
G01*
X192798Y801000D02*
G03*
X192798Y801000I-3048J0D01*
G01*
X188048Y827750D02*
G03*
X188048Y827750I-3048J0D01*
G01*
Y817250D02*
G03*
X188048Y817250I-3048J0D01*
G01*
X752909Y448496D02*
G03*
X752909Y448496I-3048J0D01*
G01*
X707798Y465000D02*
G03*
X707798Y465000I-3048J0D01*
G01*
X226548Y810250D02*
G03*
X226548Y810250I-3048J0D01*
G01*
X257048Y829000D02*
G03*
X257048Y829000I-3048J0D01*
G01*
X686148Y706250D02*
G03*
X686148Y706250I-3048J0D01*
G01*
X363298Y695750D02*
G03*
X363298Y695750I-3048J0D01*
G01*
X372548Y671250D02*
G03*
X372548Y671250I-3048J0D01*
G01*
X333048Y640500D02*
G03*
X333048Y640500I-3048J0D01*
G01*
X338048Y647000D02*
G03*
X338048Y647000I-3048J0D01*
G01*
X343048Y653500D02*
G03*
X343048Y653500I-3048J0D01*
G01*
X358048Y647000D02*
G03*
X358048Y647000I-3048J0D01*
G01*
X315798Y677900D02*
G03*
X315798Y677900I-3048J0D01*
G01*
X314548Y732250D02*
G03*
X314548Y732250I-3048J0D01*
G01*
X418048Y577000D02*
G03*
X418048Y577000I-3048J0D01*
G01*
X433048Y592000D02*
G03*
X433048Y592000I-3048J0D01*
G01*
X428048Y587000D02*
G03*
X428048Y587000I-3048J0D01*
G01*
X423048Y582000D02*
G03*
X423048Y582000I-3048J0D01*
G01*
X343298Y540000D02*
G03*
X343298Y540000I-3048J0D01*
G01*
X338298Y545000D02*
G03*
X338298Y545000I-3048J0D01*
G01*
X662548Y224250D02*
G03*
X662548Y224250I-3048J0D01*
G01*
X674548Y271100D02*
G03*
X674548Y271100I-3048J0D01*
G01*
X628048Y255250D02*
G03*
X628048Y255250I-3048J0D01*
G01*
X597798Y395500D02*
G03*
X597798Y395500I-3048J0D01*
G01*
X602598Y417500D02*
G03*
X602598Y417500I-3048J0D01*
G01*
X551798D02*
G03*
X551798Y417500I-3048J0D01*
G01*
X551798Y464000D02*
G03*
X551798Y464000I-3048J0D01*
G01*
X602548D02*
G03*
X602548Y464000I-3048J0D01*
G01*
X602598Y434250D02*
G03*
X602598Y434250I-3048J0D01*
G01*
X627548Y373500D02*
G03*
X627548Y373500I-3048J0D01*
G01*
X552048Y393500D02*
G03*
X552048Y393500I-3048J0D01*
G01*
X551798Y434250D02*
G03*
X551798Y434250I-3048J0D01*
G01*
X539048Y255350D02*
G03*
X539048Y255350I-3048J0D01*
G01*
X660798Y356750D02*
G03*
X660798Y356750I-3048J0D01*
G01*
Y365750D02*
G03*
X660798Y365750I-3048J0D01*
G01*
X660798Y394500D02*
G03*
X660798Y394500I-3048J0D01*
G01*
Y403500D02*
G03*
X660798Y403500I-3048J0D01*
G01*
X676798D02*
G03*
X676798Y403500I-3048J0D01*
G01*
X676798Y365750D02*
G03*
X676798Y365750I-3048J0D01*
G01*
X505798Y403500D02*
G03*
X505798Y403500I-3048J0D01*
G01*
Y394500D02*
G03*
X505798Y394500I-3048J0D01*
G01*
X505798Y365750D02*
G03*
X505798Y365750I-3048J0D01*
G01*
Y356750D02*
G03*
X505798Y356750I-3048J0D01*
G01*
X489798Y394500D02*
G03*
X489798Y394500I-3048J0D01*
G01*
X489798Y356750D02*
G03*
X489798Y356750I-3048J0D01*
G01*
X493048Y272100D02*
G03*
X493048Y272100I-3048J0D01*
G01*
X430548Y224250D02*
G03*
X430548Y224250I-3048J0D01*
G01*
X442548Y271100D02*
G03*
X442548Y271100I-3048J0D01*
G01*
X396048Y255250D02*
G03*
X396048Y255250I-3048J0D01*
G01*
X365798Y395500D02*
G03*
X365798Y395500I-3048J0D01*
G01*
X370598Y417500D02*
G03*
X370598Y417500I-3048J0D01*
G01*
X319798D02*
G03*
X319798Y417500I-3048J0D01*
G01*
X319798Y464000D02*
G03*
X319798Y464000I-3048J0D01*
G01*
X370548D02*
G03*
X370548Y464000I-3048J0D01*
G01*
X370598Y434250D02*
G03*
X370598Y434250I-3048J0D01*
G01*
X395548Y373500D02*
G03*
X395548Y373500I-3048J0D01*
G01*
X320048Y393500D02*
G03*
X320048Y393500I-3048J0D01*
G01*
X319798Y434250D02*
G03*
X319798Y434250I-3048J0D01*
G01*
X307048Y255350D02*
G03*
X307048Y255350I-3048J0D01*
G01*
X428798Y356750D02*
G03*
X428798Y356750I-3048J0D01*
G01*
Y365750D02*
G03*
X428798Y365750I-3048J0D01*
G01*
X428798Y394500D02*
G03*
X428798Y394500I-3048J0D01*
G01*
Y403500D02*
G03*
X428798Y403500I-3048J0D01*
G01*
X444798D02*
G03*
X444798Y403500I-3048J0D01*
G01*
X444798Y365750D02*
G03*
X444798Y365750I-3048J0D01*
G01*
X273798Y403500D02*
G03*
X273798Y403500I-3048J0D01*
G01*
Y394500D02*
G03*
X273798Y394500I-3048J0D01*
G01*
X273799Y365750D02*
G03*
X273799Y365750I-3048J0D01*
G01*
Y356750D02*
G03*
X273799Y356750I-3048J0D01*
G01*
X257798Y394500D02*
G03*
X257798Y394500I-3048J0D01*
G01*
X257798Y356750D02*
G03*
X257798Y356750I-3048J0D01*
G01*
X261048Y272100D02*
G03*
X261048Y272100I-3048J0D01*
G01*
X197298Y224250D02*
G03*
X197298Y224250I-3048J0D01*
G01*
X209298Y271100D02*
G03*
X209298Y271100I-3048J0D01*
G01*
X162798Y255250D02*
G03*
X162798Y255250I-3048J0D01*
G01*
X132548Y395500D02*
G03*
X132548Y395500I-3048J0D01*
G01*
X288298Y530000D02*
G03*
X288298Y530000I-3048J0D01*
G01*
X283298Y535000D02*
G03*
X283298Y535000I-3048J0D01*
G01*
X273298Y545000D02*
G03*
X273298Y545000I-3048J0D01*
G01*
X278298Y540000D02*
G03*
X278298Y540000I-3048J0D01*
G01*
X137348Y417500D02*
G03*
X137348Y417500I-3048J0D01*
G01*
X86548D02*
G03*
X86548Y417500I-3048J0D01*
G01*
X86548Y464000D02*
G03*
X86548Y464000I-3048J0D01*
G01*
X137298D02*
G03*
X137298Y464000I-3048J0D01*
G01*
X137348Y434250D02*
G03*
X137348Y434250I-3048J0D01*
G01*
X162298Y373500D02*
G03*
X162298Y373500I-3048J0D01*
G01*
X86798Y393500D02*
G03*
X86798Y393500I-3048J0D01*
G01*
X86548Y434250D02*
G03*
X86548Y434250I-3048J0D01*
G01*
X73798Y255350D02*
G03*
X73798Y255350I-3048J0D01*
G01*
X195548Y356750D02*
G03*
X195548Y356750I-3048J0D01*
G01*
Y365750D02*
G03*
X195548Y365750I-3048J0D01*
G01*
X195548Y394500D02*
G03*
X195548Y394500I-3048J0D01*
G01*
Y403500D02*
G03*
X195548Y403500I-3048J0D01*
G01*
X211548Y365750D02*
G03*
X211548Y365750I-3048J0D01*
G01*
X40548Y403500D02*
G03*
X40548Y403500I-3048J0D01*
G01*
Y394500D02*
G03*
X40548Y394500I-3048J0D01*
G01*
X40548Y365750D02*
G03*
X40548Y365750I-3048J0D01*
G01*
Y356750D02*
G03*
X40548Y356750I-3048J0D01*
G01*
X24548Y394500D02*
G03*
X24548Y394500I-3048J0D01*
G01*
X27798Y272100D02*
G03*
X27798Y272100I-3048J0D01*
G01*
X222048Y632750D02*
G03*
X222048Y632750I-3048J0D01*
G01*
X173798Y755166D02*
G03*
X173798Y755166I-3048J0D01*
G01*
X191298Y732167D02*
G03*
X191298Y732167I-3048J0D01*
G01*
X221173Y743750D02*
G03*
X221173Y743750I-3048J0D01*
G01*
X229423D02*
G03*
X229423Y743750I-3048J0D01*
G01*
X333048Y733750D02*
G03*
X333048Y733750I-3048J0D01*
G01*
X301998Y860000D02*
G03*
X301998Y860000I-3048J0D01*
G01*
X289298D02*
G03*
X289298Y860000I-3048J0D01*
G01*
Y900300D02*
G03*
X289298Y900300I-3048J0D01*
G01*
X301998D02*
G03*
X301998Y900300I-3048J0D01*
G01*
X314698D02*
G03*
X314698Y900300I-3048J0D01*
G01*
X327398D02*
G03*
X327398Y900300I-3048J0D01*
G01*
X340098D02*
G03*
X340098Y900300I-3048J0D01*
G01*
Y860000D02*
G03*
X340098Y860000I-3048J0D01*
G01*
X327398D02*
G03*
X327398Y860000I-3048J0D01*
G01*
X314698D02*
G03*
X314698Y860000I-3048J0D01*
G01*
X210548Y883700D02*
G03*
X210548Y883700I-3048J0D01*
G01*
X264398Y632000D02*
G03*
X264398Y632000I-3048J0D01*
G01*
X293298Y750000D02*
G03*
X293298Y750000I-3048J0D01*
G01*
X124548Y895500D02*
G03*
X124548Y895500I-3048J0D01*
G01*
X226548Y795000D02*
G03*
X226548Y795000I-3048J0D01*
G01*
X115348Y749250D02*
G03*
X115348Y749250I-3048J0D01*
G01*
X98574D02*
G03*
X98574Y749250I-3048J0D01*
G01*
X59048Y834500D02*
G03*
X59048Y834500I-3048J0D01*
G01*
Y825500D02*
G03*
X59048Y825500I-3048J0D01*
G01*
X43048Y834500D02*
G03*
X43048Y834500I-3048J0D01*
G01*
Y825500D02*
G03*
X43048Y825500I-3048J0D01*
G01*
X59048Y785250D02*
G03*
X59048Y785250I-3048J0D01*
G01*
Y794250D02*
G03*
X59048Y794250I-3048J0D01*
G01*
X43048D02*
G03*
X43048Y794250I-3048J0D01*
G01*
Y785250D02*
G03*
X43048Y785250I-3048J0D01*
G01*
X43048Y746000D02*
G03*
X43048Y746000I-3048J0D01*
G01*
Y755000D02*
G03*
X43048Y755000I-3048J0D01*
G01*
X59048D02*
G03*
X59048Y755000I-3048J0D01*
G01*
Y746000D02*
G03*
X59048Y746000I-3048J0D01*
G01*
X218496Y816501D02*
G03*
X218496Y816501I-3048J0D01*
G01*
Y803751D02*
G03*
X218496Y803751I-3048J0D01*
G01*
X156996Y815001D02*
G03*
X156996Y815001I-3048J0D01*
G01*
X264011Y604959D02*
G03*
X264011Y604959I-3048J0D01*
G01*
X298148Y596500D02*
G03*
X298148Y596500I-3048J0D01*
G01*
X264148Y595500D02*
G03*
X264148Y595500I-3048J0D01*
G01*
X268298Y578250D02*
G03*
X268298Y578250I-3048J0D01*
G01*
X369548Y578250D02*
G03*
X369548Y578250I-3048J0D01*
G01*
X382048D02*
G03*
X382048Y578250I-3048J0D01*
G01*
X399048Y716750D02*
G03*
X399048Y716750I-3048J0D01*
G01*
X264548Y695750D02*
G03*
X264548Y695750I-3048J0D01*
G01*
X264107Y675250D02*
G03*
X264107Y675250I-3048J0D01*
G01*
X161298Y896250D02*
G03*
X161298Y896250I-3048J0D01*
G01*
Y863750D02*
G03*
X161298Y863750I-3048J0D01*
G01*
X112048Y895500D02*
G03*
X112048Y895500I-3048J0D01*
G01*
X210548Y896250D02*
G03*
X210548Y896250I-3048J0D01*
G01*
X717298Y557500D02*
G03*
X717298Y557500I-3048J0D01*
G01*
X703048Y686500D02*
G03*
X703048Y686500I-3048J0D01*
G01*
X694048Y602500D02*
G03*
X694048Y602500I-3048J0D01*
G01*
X658798Y686000D02*
G03*
X658798Y686000I-3048J0D01*
G01*
X673048Y557250D02*
G03*
X673048Y557250I-3048J0D01*
G01*
X699985Y577250D02*
G03*
X699985Y577250I-3048J0D01*
G01*
X686048Y666500D02*
G03*
X686048Y666500I-3048J0D01*
G01*
X681048Y602500D02*
G03*
X681048Y602500I-3048J0D01*
G01*
X667048Y641250D02*
G03*
X667048Y641250I-3048J0D01*
G01*
M02*
