G04*
G04 #@! TF.GenerationSoftware,Altium Limited,Altium Designer,24.4.1 (13)*
G04*
G04 Layer_Color=16711935*
%FSLAX44Y44*%
%MOMM*%
G71*
G04*
G04 #@! TF.SameCoordinates,756635CD-87F4-41CE-B67A-FD93177F9C21*
G04*
G04*
G04 #@! TF.FilePolarity,Positive*
G04*
G01*
G75*
%ADD25C,0.2540*%
D25*
X20000Y240000D02*
G03*
X-96Y165000I129904J-75000D01*
G01*
X92071Y351589D02*
G03*
X88411Y347929I5000J-8660D01*
G01*
X150000Y380000D02*
G03*
X145000Y378660I0J-10000D01*
G01*
X0Y50000D02*
G03*
X50000Y0I50000J0D01*
G01*
X360000Y370000D02*
G03*
X350000Y380000I-10000J0D01*
G01*
X360000Y355000D02*
G03*
X380000Y335000I20000J0D01*
G01*
X460000Y325000D02*
G03*
X450000Y335000I-10000J0D01*
G01*
Y65000D02*
G03*
X460000Y75000I0J10000D01*
G01*
X380000Y65000D02*
G03*
X360000Y45000I0J-20000D01*
G01*
X350000Y30000D02*
G03*
X360000Y40000I0J10000D01*
G01*
X280000Y30000D02*
G03*
X270000Y20000I0J-10000D01*
G01*
X260000Y0D02*
G03*
X270000Y10000I0J10000D01*
G01*
X92071Y351589D02*
X145000Y378660D01*
X20000Y240000D02*
X88411Y347929D01*
X0Y50000D02*
Y165000D01*
X380000Y335000D02*
X450000D01*
X360000Y350000D02*
Y370000D01*
Y40000D02*
Y45000D01*
X460000Y75000D02*
Y325000D01*
X270000Y10000D02*
Y20000D01*
X380000Y65000D02*
X450000D01*
X150000Y380000D02*
X350000D01*
X50000Y-0D02*
X260000Y0D01*
X280000Y30000D02*
X350000D01*
M02*
