G04*
G04 #@! TF.GenerationSoftware,Altium Limited,Altium Designer,24.4.1 (13)*
G04*
G04 Layer_Color=8388736*
%FSLAX44Y44*%
%MOMM*%
G71*
G04*
G04 #@! TF.SameCoordinates,756635CD-87F4-41CE-B67A-FD93177F9C21*
G04*
G04*
G04 #@! TF.FilePolarity,Negative*
G04*
G01*
G75*
%ADD12R,0.7000X1.0000*%
G04:AMPARAMS|DCode=13|XSize=1mm|YSize=0.7mm|CornerRadius=0mm|HoleSize=0mm|Usage=FLASHONLY|Rotation=45.000|XOffset=0mm|YOffset=0mm|HoleType=Round|Shape=Rectangle|*
%AMROTATEDRECTD13*
4,1,4,-0.1061,-0.6010,-0.6010,-0.1061,0.1061,0.6010,0.6010,0.1061,-0.1061,-0.6010,0.0*
%
%ADD13ROTATEDRECTD13*%

%ADD14R,1.0000X0.7000*%
%ADD15R,0.8500X0.6500*%
G04:AMPARAMS|DCode=16|XSize=0.65mm|YSize=0.85mm|CornerRadius=0mm|HoleSize=0mm|Usage=FLASHONLY|Rotation=45.000|XOffset=0mm|YOffset=0mm|HoleType=Round|Shape=Rectangle|*
%AMROTATEDRECTD16*
4,1,4,0.0707,-0.5303,-0.5303,0.0707,-0.0707,0.5303,0.5303,-0.0707,0.0707,-0.5303,0.0*
%
%ADD16ROTATEDRECTD16*%

%ADD17R,0.6500X0.8500*%
%ADD18C,0.6500*%
G04:AMPARAMS|DCode=19|XSize=0.65mm|YSize=0.65mm|CornerRadius=0.2mm|HoleSize=0mm|Usage=FLASHONLY|Rotation=45.000|XOffset=0mm|YOffset=0mm|HoleType=Round|Shape=RoundedRectangle|*
%AMROUNDEDRECTD19*
21,1,0.6500,0.2500,0,0,45.0*
21,1,0.2500,0.6500,0,0,45.0*
1,1,0.4000,0.1768,0.0000*
1,1,0.4000,0.0000,-0.1768*
1,1,0.4000,-0.1768,0.0000*
1,1,0.4000,0.0000,0.1768*
%
%ADD19ROUNDEDRECTD19*%
D12*
X121500Y180000D02*
D03*
Y240000D02*
D03*
X158500Y180000D02*
D03*
Y240000D02*
D03*
X381500Y180000D02*
D03*
Y240000D02*
D03*
X418500Y180000D02*
D03*
Y240000D02*
D03*
D13*
X95705Y311868D02*
D03*
X138132Y354295D02*
D03*
X121868Y285705D02*
D03*
X164295Y328132D02*
D03*
D14*
X20000Y138500D02*
D03*
X80000D02*
D03*
X20000Y101500D02*
D03*
X80000D02*
D03*
X85000Y58500D02*
D03*
X145000D02*
D03*
X85000Y21500D02*
D03*
X145000D02*
D03*
X240000Y98500D02*
D03*
X300000D02*
D03*
X240000Y61500D02*
D03*
X300000D02*
D03*
X240000Y228500D02*
D03*
X300000D02*
D03*
X240000Y191500D02*
D03*
X300000D02*
D03*
X240000Y358500D02*
D03*
X300000D02*
D03*
X240000Y321500D02*
D03*
X300000D02*
D03*
D15*
X222250Y269250D02*
D03*
Y260750D02*
D03*
X207750Y269250D02*
D03*
Y260750D02*
D03*
X57250Y31750D02*
D03*
Y23250D02*
D03*
X42750Y31750D02*
D03*
Y23250D02*
D03*
X277250Y124250D02*
D03*
Y115750D02*
D03*
X262750Y124250D02*
D03*
Y115750D02*
D03*
X37250Y164250D02*
D03*
Y155750D02*
D03*
X22750Y164250D02*
D03*
Y155750D02*
D03*
X277250Y304250D02*
D03*
Y295750D02*
D03*
X262750Y304250D02*
D03*
Y295750D02*
D03*
D16*
X98132Y277879D02*
D03*
X92121Y271868D02*
D03*
X87879Y288132D02*
D03*
X81868Y282121D02*
D03*
D17*
X364250Y202750D02*
D03*
X355750D02*
D03*
X364250Y217250D02*
D03*
X355750D02*
D03*
X184250Y202750D02*
D03*
X175750D02*
D03*
X184250Y217250D02*
D03*
X175750D02*
D03*
D18*
X330000Y280000D02*
D03*
X432500Y215000D02*
D03*
Y225000D02*
D03*
X339997Y259998D02*
D03*
X65000Y75000D02*
D03*
Y120000D02*
D03*
X99997Y139998D02*
D03*
X84997Y169998D02*
D03*
X24997Y49998D02*
D03*
X297500Y302500D02*
D03*
X307500Y287500D02*
D03*
X320000Y302500D02*
D03*
X350000Y242500D02*
D03*
X80000Y270000D02*
D03*
X429997Y319998D02*
D03*
X444997Y289998D02*
D03*
Y109998D02*
D03*
X429997Y79998D02*
D03*
X399997Y319998D02*
D03*
Y79998D02*
D03*
X369997Y319998D02*
D03*
Y79998D02*
D03*
X354997Y349998D02*
D03*
X339997Y319998D02*
D03*
Y199998D02*
D03*
Y139998D02*
D03*
Y79998D02*
D03*
X354997Y49998D02*
D03*
X324997Y349998D02*
D03*
X309997Y199998D02*
D03*
Y139998D02*
D03*
Y79998D02*
D03*
X279997Y199998D02*
D03*
Y139998D02*
D03*
Y79998D02*
D03*
X249997Y19998D02*
D03*
X219997Y139998D02*
D03*
Y19998D02*
D03*
X204997Y289998D02*
D03*
X189997Y19998D02*
D03*
X174997Y289998D02*
D03*
X159997Y139998D02*
D03*
X174997Y109998D02*
D03*
X159997Y79998D02*
D03*
Y19998D02*
D03*
X129997Y139998D02*
D03*
Y79998D02*
D03*
Y19998D02*
D03*
X99997Y199998D02*
D03*
X114997Y109998D02*
D03*
X84997Y229998D02*
D03*
X69997Y199998D02*
D03*
X39997Y259998D02*
D03*
X54997Y169998D02*
D03*
X24997Y229998D02*
D03*
X9997Y199998D02*
D03*
X262750Y295750D02*
D03*
X95705Y311868D02*
D03*
X122929Y291716D02*
D03*
X37250Y164250D02*
D03*
X57250Y31750D02*
D03*
X262750Y115750D02*
D03*
X277250Y124250D02*
D03*
X262750D02*
D03*
X98132Y277879D02*
D03*
X240000Y261000D02*
D03*
X184250Y202750D02*
D03*
Y217250D02*
D03*
X175750D02*
D03*
X207750Y260750D02*
D03*
Y269250D02*
D03*
X222250D02*
D03*
X262750Y304250D02*
D03*
X277250D02*
D03*
X368000Y235000D02*
D03*
Y245000D02*
D03*
X92121Y271868D02*
D03*
X277250Y295750D02*
D03*
X355750Y202750D02*
D03*
X367500Y185000D02*
D03*
Y175000D02*
D03*
Y165000D02*
D03*
Y155000D02*
D03*
X432639Y164861D02*
D03*
X432500Y175000D02*
D03*
Y155000D02*
D03*
Y205000D02*
D03*
Y195000D02*
D03*
Y185000D02*
D03*
D19*
X140000Y120000D02*
D03*
M02*
