G04*
G04 #@! TF.GenerationSoftware,Altium Limited,Altium Designer,24.4.1 (13)*
G04*
G04 Layer_Color=65535*
%FSLAX44Y44*%
%MOMM*%
G71*
G04*
G04 #@! TF.SameCoordinates,2EB5ED4D-3302-4EB3-8F75-9365195E6A89*
G04*
G04*
G04 #@! TF.FilePolarity,Positive*
G04*
G01*
G75*
%ADD10C,0.2500*%
%ADD11C,0.1500*%
%ADD12C,0.6000*%
%ADD13C,0.2000*%
%ADD14C,0.2540*%
%ADD15C,0.3500*%
G36*
X314780Y125226D02*
X314892D01*
Y125114D01*
X315116D01*
Y125002D01*
X315229D01*
Y124890D01*
X315453D01*
Y124777D01*
X315565D01*
Y124665D01*
X315678D01*
Y124553D01*
X315790D01*
Y124441D01*
X315902D01*
Y124328D01*
X316015D01*
Y124216D01*
X316127D01*
Y124104D01*
X316239D01*
Y123879D01*
X316351D01*
Y123767D01*
X316464D01*
Y123542D01*
X316576D01*
Y123430D01*
X316688D01*
Y123206D01*
X316800D01*
Y122757D01*
X316913D01*
Y122308D01*
X317025D01*
Y122195D01*
X317250D01*
Y122083D01*
X317474D01*
Y121971D01*
X317586D01*
Y121859D01*
X317699D01*
Y121746D01*
X317811D01*
Y121634D01*
X318035D01*
Y121522D01*
X318148D01*
Y121409D01*
X318260D01*
Y121297D01*
X318372D01*
Y121185D01*
X318484D01*
Y120960D01*
X318597D01*
Y120848D01*
X318709D01*
Y120624D01*
X318821D01*
Y120175D01*
X318934D01*
Y118940D01*
X318821D01*
Y118266D01*
X318709D01*
Y117929D01*
X318934D01*
Y117817D01*
X319270D01*
Y117705D01*
X319382D01*
Y117592D01*
X319607D01*
Y117480D01*
X319719D01*
Y117256D01*
X319832D01*
Y117143D01*
X319944D01*
Y116919D01*
X320056D01*
Y116582D01*
X320168D01*
Y116021D01*
X319944D01*
Y116133D01*
X319832D01*
Y116357D01*
X319719D01*
Y116582D01*
X319607D01*
Y116694D01*
X319495D01*
Y116919D01*
X319382D01*
Y117031D01*
X319270D01*
Y117143D01*
X319158D01*
Y117256D01*
X319046D01*
Y117368D01*
X318934D01*
Y117480D01*
X318821D01*
Y117592D01*
X318709D01*
Y117705D01*
X318484D01*
Y117592D01*
X318372D01*
Y117480D01*
X318260D01*
Y117368D01*
X318148D01*
Y117143D01*
X318035D01*
Y117031D01*
X317923D01*
Y116919D01*
X317811D01*
Y116806D01*
X317699D01*
Y116582D01*
X317586D01*
Y116470D01*
X317474D01*
Y116357D01*
X317362D01*
Y116133D01*
X317250D01*
Y116021D01*
X317137D01*
Y115796D01*
X317025D01*
Y115684D01*
X316913D01*
Y115459D01*
X316800D01*
Y115235D01*
X316688D01*
Y115010D01*
X316576D01*
Y114674D01*
X316464D01*
Y114449D01*
X316351D01*
Y114112D01*
X316239D01*
Y113663D01*
X316127D01*
Y113214D01*
X316015D01*
Y112765D01*
X315902D01*
Y112316D01*
X315790D01*
Y111755D01*
X315678D01*
Y111081D01*
X315565D01*
Y110407D01*
X315453D01*
Y109621D01*
X315341D01*
Y108499D01*
X315229D01*
Y106478D01*
X315116D01*
Y99293D01*
X315229D01*
Y98283D01*
X315341D01*
Y97497D01*
X315453D01*
Y96823D01*
X315565D01*
Y96262D01*
X315678D01*
Y95813D01*
X315790D01*
Y95476D01*
X315902D01*
Y95139D01*
X316015D01*
Y94802D01*
X316127D01*
Y94578D01*
X316239D01*
Y94353D01*
X316351D01*
Y94129D01*
X316464D01*
Y93904D01*
X316576D01*
Y93792D01*
X316688D01*
Y93567D01*
X316800D01*
Y93455D01*
X316913D01*
Y93343D01*
X317025D01*
Y93231D01*
X317137D01*
Y93006D01*
X317250D01*
Y92894D01*
X317362D01*
Y92782D01*
X317474D01*
Y92669D01*
X317586D01*
Y92557D01*
X317699D01*
Y92445D01*
X317923D01*
Y92333D01*
X318035D01*
Y92220D01*
X318148D01*
Y92108D01*
X318260D01*
Y91996D01*
X318484D01*
Y91883D01*
X318597D01*
Y91771D01*
X318821D01*
Y91659D01*
X318934D01*
Y91547D01*
X319158D01*
Y91434D01*
X319270D01*
Y91322D01*
X319495D01*
Y91210D01*
X319719D01*
Y91098D01*
X319944D01*
Y90985D01*
X320056D01*
Y90873D01*
X320281D01*
Y90761D01*
X320505D01*
Y90649D01*
X320730D01*
Y90536D01*
X320954D01*
Y90424D01*
X321179D01*
Y90312D01*
X321291D01*
Y90199D01*
X321516D01*
Y90087D01*
X321740D01*
Y89975D01*
X321965D01*
Y89863D01*
X322189D01*
Y89750D01*
X322414D01*
Y89638D01*
X322638D01*
Y89526D01*
X322863D01*
Y89414D01*
X322975D01*
Y89301D01*
X323200D01*
Y89189D01*
X323424D01*
Y89077D01*
X323649D01*
Y88965D01*
X323873D01*
Y88852D01*
X324098D01*
Y88740D01*
X324322D01*
Y88628D01*
X324435D01*
Y88516D01*
X324659D01*
Y88403D01*
X324884D01*
Y88291D01*
X325108D01*
Y88179D01*
X325220D01*
Y88067D01*
X325445D01*
Y87954D01*
X325557D01*
Y87842D01*
X325669D01*
Y87730D01*
X325894D01*
Y87617D01*
X326006D01*
Y87505D01*
X326119D01*
Y87393D01*
X326231D01*
Y87281D01*
X326343D01*
Y87168D01*
X326455D01*
Y87056D01*
X326567D01*
Y86944D01*
X326680D01*
Y86832D01*
X326792D01*
Y86719D01*
X326904D01*
Y86607D01*
X327017D01*
Y86495D01*
X327129D01*
Y86383D01*
X327241D01*
Y86270D01*
X327353D01*
Y86046D01*
X327466D01*
Y85933D01*
X327578D01*
Y85821D01*
X327690D01*
Y85709D01*
X327803D01*
Y85597D01*
X327915D01*
Y85484D01*
X328027D01*
Y85260D01*
X328139D01*
Y85148D01*
X328251D01*
Y85035D01*
X328364D01*
Y84811D01*
X328476D01*
Y84698D01*
X328588D01*
Y84586D01*
X328701D01*
Y84362D01*
X328813D01*
Y84249D01*
X328925D01*
Y84137D01*
X329037D01*
Y83913D01*
X329150D01*
Y83800D01*
X329262D01*
Y83688D01*
X329374D01*
Y83576D01*
X329487D01*
Y83351D01*
X329599D01*
Y83239D01*
X329711D01*
Y83127D01*
X329823D01*
Y83014D01*
X329935D01*
Y82902D01*
X330048D01*
Y82790D01*
X330160D01*
Y82678D01*
X330272D01*
Y82453D01*
X330385D01*
Y82341D01*
X330497D01*
Y82229D01*
X330609D01*
Y82116D01*
X330721D01*
Y82004D01*
X330834D01*
Y81892D01*
X330946D01*
Y81780D01*
X331058D01*
Y81667D01*
X331171D01*
Y81555D01*
X331283D01*
Y81443D01*
X331395D01*
Y81330D01*
X331507D01*
Y81218D01*
X331619D01*
Y81106D01*
X331732D01*
Y80994D01*
X331844D01*
Y80881D01*
X331956D01*
Y80769D01*
X332069D01*
Y80657D01*
X332181D01*
Y80545D01*
X332293D01*
Y80432D01*
X332405D01*
Y80320D01*
X332518D01*
Y80208D01*
X332630D01*
Y80096D01*
X332742D01*
Y79983D01*
X332854D01*
Y79871D01*
X332967D01*
Y79759D01*
X333079D01*
Y79647D01*
X333191D01*
Y79534D01*
X333303D01*
Y79422D01*
X333416D01*
Y79310D01*
X333528D01*
Y79198D01*
X333640D01*
Y79085D01*
X333753D01*
Y78973D01*
X333865D01*
Y78861D01*
X333977D01*
Y78748D01*
X334089D01*
Y78636D01*
X334202D01*
Y78524D01*
X334314D01*
Y78412D01*
X334426D01*
Y78299D01*
X334538D01*
Y78187D01*
X334651D01*
Y78075D01*
X334763D01*
Y77963D01*
X334875D01*
Y77850D01*
X334987D01*
Y77738D01*
X335100D01*
Y77626D01*
X335212D01*
Y77513D01*
X335324D01*
Y77401D01*
X335437D01*
Y77289D01*
X335549D01*
Y77177D01*
X335661D01*
Y77064D01*
X335886D01*
Y76952D01*
X335998D01*
Y76840D01*
X336110D01*
Y76728D01*
X336222D01*
Y76615D01*
X336335D01*
Y76503D01*
X336447D01*
Y76391D01*
X336559D01*
Y76279D01*
X336671D01*
Y76166D01*
X336784D01*
Y76054D01*
X336896D01*
Y75942D01*
X337008D01*
Y75830D01*
X337121D01*
Y75717D01*
X337233D01*
Y75605D01*
X337345D01*
Y75493D01*
X337457D01*
Y75380D01*
X337570D01*
Y75268D01*
X337682D01*
Y75156D01*
X337794D01*
Y75044D01*
X337906D01*
Y74931D01*
X338019D01*
Y74819D01*
X338131D01*
Y74707D01*
X338243D01*
Y74595D01*
X338355D01*
Y74482D01*
X338580D01*
Y74370D01*
X338692D01*
Y74258D01*
X338805D01*
Y74145D01*
X338917D01*
Y74033D01*
X339029D01*
Y73921D01*
X339141D01*
Y73809D01*
X339254D01*
Y73696D01*
X339366D01*
Y73584D01*
X339478D01*
Y73472D01*
X339590D01*
Y73360D01*
X339703D01*
Y73247D01*
X339815D01*
Y73135D01*
X339927D01*
Y73023D01*
X340039D01*
Y72911D01*
X340152D01*
Y72798D01*
X340264D01*
Y72686D01*
X340376D01*
Y72574D01*
X340489D01*
Y72462D01*
X340601D01*
Y72349D01*
X340713D01*
Y72237D01*
X340825D01*
Y72125D01*
X340938D01*
Y72013D01*
X341050D01*
Y71900D01*
X341162D01*
Y71788D01*
X341274D01*
Y71676D01*
X341387D01*
Y71563D01*
X341499D01*
Y71451D01*
X341611D01*
Y71339D01*
X341723D01*
Y71227D01*
X341836D01*
Y71114D01*
X341948D01*
Y71002D01*
X342060D01*
Y70890D01*
X342173D01*
Y70778D01*
X342285D01*
Y70665D01*
X342397D01*
Y70441D01*
X342509D01*
Y70328D01*
X342622D01*
Y70216D01*
X342734D01*
Y70104D01*
X342846D01*
Y69992D01*
X342958D01*
Y69879D01*
X343071D01*
Y69767D01*
X343183D01*
Y69543D01*
X343295D01*
Y69430D01*
X343407D01*
Y69318D01*
X343520D01*
Y69206D01*
X343632D01*
Y68981D01*
X343744D01*
Y68869D01*
X343857D01*
Y68644D01*
X343969D01*
Y68532D01*
X344081D01*
Y68308D01*
X344193D01*
Y68195D01*
X344306D01*
Y67971D01*
X344418D01*
Y67746D01*
X344530D01*
Y67522D01*
X344642D01*
Y67297D01*
X344755D01*
Y67073D01*
X344867D01*
Y66736D01*
X344979D01*
Y66511D01*
X345091D01*
Y66175D01*
X345204D01*
Y65726D01*
X345316D01*
Y65276D01*
X345428D01*
Y64603D01*
X345541D01*
Y62582D01*
X345428D01*
Y62133D01*
X345316D01*
Y61796D01*
X345204D01*
Y61347D01*
X345316D01*
Y61123D01*
X345428D01*
Y60898D01*
X345541D01*
Y60786D01*
X345653D01*
Y60561D01*
X345765D01*
Y60449D01*
X345877D01*
Y60224D01*
X345989D01*
Y60000D01*
X346102D01*
Y59888D01*
X346214D01*
Y59663D01*
X346326D01*
Y59439D01*
X346439D01*
Y59214D01*
X346551D01*
Y58990D01*
X346663D01*
Y58765D01*
X346775D01*
Y58541D01*
X346888D01*
Y58316D01*
X347000D01*
Y58092D01*
X347112D01*
Y57867D01*
X347225D01*
Y57642D01*
X347337D01*
Y57418D01*
X347449D01*
Y57081D01*
X347561D01*
Y56857D01*
X347673D01*
Y56632D01*
X347786D01*
Y56295D01*
X347898D01*
Y55958D01*
X348010D01*
Y55734D01*
X348123D01*
Y55397D01*
X348235D01*
Y54948D01*
X348347D01*
Y54611D01*
X348459D01*
Y54162D01*
X348572D01*
Y53713D01*
X348684D01*
Y53152D01*
X348796D01*
Y52478D01*
X348908D01*
Y51131D01*
X349021D01*
Y50121D01*
X348908D01*
Y48998D01*
X348796D01*
Y48437D01*
X348684D01*
Y48100D01*
X348572D01*
Y47763D01*
X348459D01*
Y47538D01*
X348347D01*
Y47314D01*
X348235D01*
Y47089D01*
X348123D01*
Y46753D01*
X348010D01*
Y46640D01*
X347898D01*
Y46416D01*
X347786D01*
Y46191D01*
X347673D01*
Y45967D01*
X347561D01*
Y45855D01*
X347449D01*
Y45630D01*
X347337D01*
Y45518D01*
X347225D01*
Y45293D01*
X347112D01*
Y45181D01*
X347000D01*
Y44956D01*
X346888D01*
Y44844D01*
X346775D01*
Y44732D01*
X346663D01*
Y44620D01*
X346551D01*
Y44395D01*
X346439D01*
Y44283D01*
X346326D01*
Y44170D01*
X346214D01*
Y44058D01*
X346102D01*
Y43834D01*
X345989D01*
Y43721D01*
X345877D01*
Y43609D01*
X345765D01*
Y43497D01*
X345653D01*
Y43385D01*
X345541D01*
Y43272D01*
X345428D01*
Y43160D01*
X345316D01*
Y43048D01*
X345204D01*
Y42823D01*
X345091D01*
Y42711D01*
X344979D01*
Y42599D01*
X344867D01*
Y42150D01*
X344979D01*
Y41925D01*
X345091D01*
Y41813D01*
X345204D01*
Y41588D01*
X345316D01*
Y41476D01*
X345428D01*
Y41364D01*
X345541D01*
Y41252D01*
X345653D01*
Y41027D01*
X345765D01*
Y40915D01*
X345877D01*
Y40803D01*
X345989D01*
Y40690D01*
X346102D01*
Y40578D01*
X346214D01*
Y40466D01*
X346326D01*
Y40353D01*
X346439D01*
Y40241D01*
X346551D01*
Y40129D01*
X346663D01*
Y40017D01*
X346775D01*
Y39792D01*
X346888D01*
Y39680D01*
X347000D01*
Y39568D01*
X347112D01*
Y39455D01*
X347225D01*
Y39343D01*
X347337D01*
Y39231D01*
X347449D01*
Y39119D01*
X347561D01*
Y39006D01*
X347673D01*
Y38894D01*
X347786D01*
Y38782D01*
X347898D01*
Y38670D01*
X348123D01*
Y38557D01*
X348235D01*
Y38445D01*
X348347D01*
Y38333D01*
X348459D01*
Y38220D01*
X348572D01*
Y38108D01*
X348796D01*
Y37996D01*
X348908D01*
Y37884D01*
X349021D01*
Y37771D01*
X349245D01*
Y37659D01*
X349357D01*
Y37547D01*
X349582D01*
Y37435D01*
X349694D01*
Y37322D01*
X349919D01*
Y37210D01*
X350143D01*
Y37098D01*
X350480D01*
Y36985D01*
X350705D01*
Y36873D01*
X351041D01*
Y36761D01*
X351491D01*
Y36649D01*
X352725D01*
Y36537D01*
X354859D01*
Y36424D01*
X357104D01*
Y36312D01*
X358002D01*
Y36200D01*
X358227D01*
Y36087D01*
X358451D01*
Y35975D01*
X358563D01*
Y35751D01*
X358676D01*
Y35301D01*
X358788D01*
Y34852D01*
X358676D01*
Y34291D01*
X358563D01*
Y34067D01*
X358451D01*
Y33954D01*
X358339D01*
Y33730D01*
X358227D01*
Y33617D01*
X358114D01*
Y33505D01*
X358002D01*
Y33393D01*
X357890D01*
Y33281D01*
X357777D01*
Y33168D01*
X357665D01*
Y33056D01*
X357553D01*
Y32944D01*
X357441D01*
Y32832D01*
X357328D01*
Y32719D01*
X357216D01*
Y32607D01*
X357104D01*
Y32495D01*
X356879D01*
Y32383D01*
X356767D01*
Y32270D01*
X356543D01*
Y32158D01*
X356318D01*
Y32046D01*
X355981D01*
Y31934D01*
X355644D01*
Y31821D01*
X355308D01*
Y31709D01*
X355083D01*
Y31597D01*
X354746D01*
Y31484D01*
X354297D01*
Y31372D01*
X353960D01*
Y31260D01*
X353511D01*
Y31148D01*
X353062D01*
Y31035D01*
X352613D01*
Y30923D01*
X352052D01*
Y30811D01*
X351603D01*
Y30699D01*
X351041D01*
Y30586D01*
X350143D01*
Y30474D01*
X348572D01*
Y30586D01*
X347673D01*
Y30699D01*
X347000D01*
Y30811D01*
X346439D01*
Y30923D01*
X345877D01*
Y31035D01*
X345428D01*
Y31148D01*
X345091D01*
Y31260D01*
X344755D01*
Y31372D01*
X344418D01*
Y31484D01*
X344081D01*
Y31597D01*
X343857D01*
Y31709D01*
X343632D01*
Y31821D01*
X343407D01*
Y31934D01*
X343183D01*
Y32046D01*
X342958D01*
Y32158D01*
X342734D01*
Y32270D01*
X342509D01*
Y32383D01*
X342397D01*
Y32495D01*
X342173D01*
Y32607D01*
X342060D01*
Y32719D01*
X341836D01*
Y32832D01*
X341611D01*
Y32944D01*
X341499D01*
Y33056D01*
X341162D01*
Y32944D01*
X341050D01*
Y32495D01*
X340938D01*
Y32046D01*
X340825D01*
Y31484D01*
X340713D01*
Y31148D01*
X340825D01*
Y30811D01*
X340938D01*
Y30474D01*
X341050D01*
Y30137D01*
X341162D01*
Y29801D01*
X341274D01*
Y29351D01*
X341387D01*
Y29015D01*
X341499D01*
Y28678D01*
X341611D01*
Y28341D01*
X341723D01*
Y28004D01*
X341836D01*
Y27555D01*
X341948D01*
Y27106D01*
X342060D01*
Y26657D01*
X342173D01*
Y25871D01*
X342285D01*
Y23738D01*
X342173D01*
Y23289D01*
X342060D01*
Y23065D01*
X341948D01*
Y22952D01*
X341836D01*
Y22840D01*
X341723D01*
Y22615D01*
X341611D01*
Y22503D01*
X341499D01*
Y22391D01*
X341274D01*
Y22279D01*
X341162D01*
Y22166D01*
X340938D01*
Y22054D01*
X340713D01*
Y21942D01*
X340489D01*
Y21830D01*
X340152D01*
Y21717D01*
X339815D01*
Y21605D01*
X339254D01*
Y21493D01*
X338692D01*
Y21381D01*
X337682D01*
Y21268D01*
X336559D01*
Y21156D01*
X335437D01*
Y21044D01*
X334538D01*
Y20931D01*
X333977D01*
Y20819D01*
X333528D01*
Y20707D01*
X332967D01*
Y20595D01*
X332518D01*
Y20482D01*
X331956D01*
Y20370D01*
X331171D01*
Y20258D01*
X330385D01*
Y20146D01*
X329599D01*
Y20033D01*
X328701D01*
Y19921D01*
X327803D01*
Y19809D01*
X327129D01*
Y19697D01*
X326343D01*
Y19584D01*
X325557D01*
Y19472D01*
X324996D01*
Y19360D01*
X324435D01*
Y19247D01*
X323985D01*
Y19135D01*
X323536D01*
Y19023D01*
X322975D01*
Y18911D01*
X322526D01*
Y18799D01*
X322077D01*
Y18686D01*
X321628D01*
Y18574D01*
X321291D01*
Y18686D01*
X321067D01*
Y18799D01*
X320842D01*
Y18911D01*
X320730D01*
Y19023D01*
X320505D01*
Y19135D01*
X320393D01*
Y19247D01*
X320281D01*
Y19360D01*
X320168D01*
Y19472D01*
X320056D01*
Y19697D01*
X319944D01*
Y19809D01*
X319832D01*
Y19921D01*
X319719D01*
Y20146D01*
X319607D01*
Y20370D01*
X319495D01*
Y20595D01*
X319382D01*
Y20819D01*
X319270D01*
Y21156D01*
X319158D01*
Y21493D01*
X319046D01*
Y22615D01*
X318934D01*
Y23177D01*
X318372D01*
Y23065D01*
X315678D01*
Y23177D01*
X315116D01*
Y23289D01*
X314667D01*
Y23401D01*
X310289D01*
Y23289D01*
X309391D01*
Y23177D01*
X308605D01*
Y23065D01*
X307931D01*
Y22952D01*
X307258D01*
Y22840D01*
X306696D01*
Y22728D01*
X306247D01*
Y22615D01*
X305798D01*
Y22503D01*
X305349D01*
Y22391D01*
X304900D01*
Y22279D01*
X304451D01*
Y22166D01*
X304114D01*
Y22054D01*
X303778D01*
Y21942D01*
X303441D01*
Y21830D01*
X303104D01*
Y21717D01*
X302767D01*
Y21605D01*
X302430D01*
Y21493D01*
X302094D01*
Y21381D01*
X301757D01*
Y21268D01*
X301308D01*
Y21381D01*
X301196D01*
Y21493D01*
X301083D01*
Y21605D01*
X300971D01*
Y21717D01*
X300859D01*
Y21830D01*
X300746D01*
Y21942D01*
X300634D01*
Y22166D01*
X300522D01*
Y22279D01*
X300410D01*
Y22503D01*
X300297D01*
Y22728D01*
X300185D01*
Y22952D01*
X300073D01*
Y23065D01*
X299961D01*
Y23401D01*
X299848D01*
Y23626D01*
X299736D01*
Y23963D01*
X299624D01*
Y24412D01*
X299512D01*
Y25085D01*
X299399D01*
Y26096D01*
X299512D01*
Y26769D01*
X299624D01*
Y27218D01*
X299736D01*
Y27555D01*
X299848D01*
Y27892D01*
X299961D01*
Y28117D01*
X300073D01*
Y28341D01*
X300185D01*
Y28453D01*
X300297D01*
Y28678D01*
X300410D01*
Y28790D01*
X300522D01*
Y28902D01*
X300634D01*
Y29127D01*
X300746D01*
Y29239D01*
X300859D01*
Y29351D01*
X300971D01*
Y29464D01*
X301196D01*
Y29576D01*
X301308D01*
Y29688D01*
X301420D01*
Y29801D01*
X301644D01*
Y29913D01*
X301869D01*
Y30025D01*
X301981D01*
Y30137D01*
X302206D01*
Y30250D01*
X302543D01*
Y30362D01*
X302767D01*
Y30474D01*
X303104D01*
Y30586D01*
X303441D01*
Y30699D01*
X303778D01*
Y30811D01*
X304339D01*
Y30923D01*
X304900D01*
Y31035D01*
X305349D01*
Y31148D01*
X305574D01*
Y31260D01*
X305686D01*
Y31372D01*
X305798D01*
Y31484D01*
X305911D01*
Y31597D01*
X306135D01*
Y31709D01*
X306247D01*
Y31821D01*
X306360D01*
Y31934D01*
X306472D01*
Y32046D01*
X306696D01*
Y32158D01*
X306921D01*
Y32270D01*
X307146D01*
Y32383D01*
X307482D01*
Y32495D01*
X307595D01*
Y32719D01*
X307482D01*
Y32944D01*
X307370D01*
Y33168D01*
X307258D01*
Y33393D01*
X307146D01*
Y33617D01*
X307033D01*
Y33842D01*
X306921D01*
Y34067D01*
X306809D01*
Y34291D01*
X306696D01*
Y34516D01*
X306584D01*
Y34852D01*
X306472D01*
Y35077D01*
X306360D01*
Y35414D01*
X306247D01*
Y35751D01*
X306135D01*
Y36087D01*
X306023D01*
Y36424D01*
X305911D01*
Y36873D01*
X305798D01*
Y37210D01*
X305686D01*
Y37659D01*
X305574D01*
Y38108D01*
X305462D01*
Y38557D01*
X305349D01*
Y39006D01*
X305237D01*
Y39568D01*
X305125D01*
Y42711D01*
X305012D01*
Y43834D01*
X305125D01*
Y45518D01*
X305237D01*
Y46191D01*
X305349D01*
Y46865D01*
X305462D01*
Y47426D01*
X305574D01*
Y47875D01*
X305686D01*
Y48324D01*
X305798D01*
Y48773D01*
X305911D01*
Y49110D01*
X306023D01*
Y49559D01*
X306135D01*
Y49896D01*
X306247D01*
Y50233D01*
X306360D01*
Y50570D01*
X306472D01*
Y51019D01*
X306584D01*
Y51356D01*
X306247D01*
Y51468D01*
X305574D01*
Y51580D01*
X305012D01*
Y51692D01*
X304451D01*
Y51805D01*
X304002D01*
Y51917D01*
X303665D01*
Y52029D01*
X303328D01*
Y52141D01*
X303104D01*
Y52254D01*
X302880D01*
Y52366D01*
X302655D01*
Y52478D01*
X302430D01*
Y52590D01*
X302206D01*
Y52703D01*
X302094D01*
Y52815D01*
X301869D01*
Y52927D01*
X301757D01*
Y53039D01*
X301644D01*
Y53152D01*
X301532D01*
Y53264D01*
X301420D01*
Y53376D01*
X301308D01*
Y53489D01*
X301196D01*
Y53601D01*
X301083D01*
Y53713D01*
X300971D01*
Y53825D01*
X300859D01*
Y53938D01*
X300746D01*
Y54162D01*
X300634D01*
Y54275D01*
X300522D01*
Y54387D01*
X300410D01*
Y54611D01*
X300297D01*
Y54836D01*
X300185D01*
Y54948D01*
X300073D01*
Y55173D01*
X299961D01*
Y55397D01*
X299848D01*
Y55734D01*
X299736D01*
Y55958D01*
X299624D01*
Y56183D01*
X299512D01*
Y56520D01*
X299399D01*
Y56857D01*
X299287D01*
Y57193D01*
X299175D01*
Y57642D01*
X299062D01*
Y58316D01*
X298950D01*
Y59102D01*
X298838D01*
Y63929D01*
X298950D01*
Y64827D01*
X299062D01*
Y65389D01*
X299175D01*
Y65950D01*
X299287D01*
Y66287D01*
X299399D01*
Y66624D01*
X299512D01*
Y66961D01*
X299624D01*
Y67185D01*
X299736D01*
Y67522D01*
X299848D01*
Y67746D01*
X299961D01*
Y67971D01*
X300073D01*
Y68195D01*
X300185D01*
Y68308D01*
X300297D01*
Y68532D01*
X300410D01*
Y68757D01*
X300522D01*
Y68869D01*
X300634D01*
Y69093D01*
X300746D01*
Y69206D01*
X300859D01*
Y69430D01*
X300971D01*
Y69543D01*
X301083D01*
Y69655D01*
X301196D01*
Y69879D01*
X301308D01*
Y69992D01*
X301420D01*
Y70104D01*
X301532D01*
Y70216D01*
X301644D01*
Y70328D01*
X301757D01*
Y70441D01*
X301869D01*
Y70665D01*
X301981D01*
Y70778D01*
X302094D01*
Y70890D01*
X302206D01*
Y71002D01*
X302318D01*
Y71114D01*
X302430D01*
Y71227D01*
X302543D01*
Y71339D01*
X302655D01*
Y71451D01*
X302767D01*
Y71563D01*
X302992D01*
Y71676D01*
X303104D01*
Y71788D01*
X303216D01*
Y71900D01*
X303328D01*
Y72013D01*
X303441D01*
Y72125D01*
X303553D01*
Y72237D01*
X303778D01*
Y72349D01*
X303890D01*
Y72462D01*
X304002D01*
Y72574D01*
X304114D01*
Y72686D01*
X304339D01*
Y72798D01*
X304451D01*
Y72911D01*
X304563D01*
Y73023D01*
X304788D01*
Y73135D01*
X304900D01*
Y73247D01*
X305012D01*
Y73472D01*
X305125D01*
Y74931D01*
X305237D01*
Y77064D01*
X305349D01*
Y78187D01*
X305462D01*
Y79198D01*
X305574D01*
Y79983D01*
X305686D01*
Y80769D01*
X305798D01*
Y81330D01*
X305911D01*
Y82004D01*
X306023D01*
Y82565D01*
X306135D01*
Y83014D01*
X306247D01*
Y83464D01*
X306360D01*
Y84025D01*
X306472D01*
Y84586D01*
X306584D01*
Y84698D01*
X306472D01*
Y85035D01*
X306360D01*
Y85260D01*
X306247D01*
Y85372D01*
X306135D01*
Y85597D01*
X306023D01*
Y85821D01*
X305911D01*
Y85933D01*
X305798D01*
Y86158D01*
X305686D01*
Y86270D01*
X305574D01*
Y86495D01*
X305462D01*
Y86607D01*
X305349D01*
Y86832D01*
X305237D01*
Y87056D01*
X305125D01*
Y87168D01*
X305012D01*
Y87393D01*
X304900D01*
Y87617D01*
X304788D01*
Y87730D01*
X304676D01*
Y87954D01*
X304563D01*
Y88179D01*
X304451D01*
Y88291D01*
X304339D01*
Y88516D01*
X304227D01*
Y88740D01*
X304114D01*
Y88965D01*
X304002D01*
Y89189D01*
X303890D01*
Y89414D01*
X303778D01*
Y89526D01*
X303665D01*
Y89750D01*
X303553D01*
Y89975D01*
X303441D01*
Y90199D01*
X303328D01*
Y90424D01*
X303216D01*
Y90649D01*
X303104D01*
Y90873D01*
X302992D01*
Y91098D01*
X302880D01*
Y91322D01*
X302767D01*
Y91547D01*
X302655D01*
Y91771D01*
X302543D01*
Y91996D01*
X302430D01*
Y92220D01*
X302318D01*
Y92445D01*
X302206D01*
Y92669D01*
X302094D01*
Y92894D01*
X301981D01*
Y93118D01*
X301869D01*
Y93343D01*
X301757D01*
Y93567D01*
X301644D01*
Y93904D01*
X301532D01*
Y94129D01*
X301420D01*
Y94353D01*
X301308D01*
Y94578D01*
X301196D01*
Y94802D01*
X301083D01*
Y95027D01*
X300971D01*
Y95252D01*
X300859D01*
Y95588D01*
X300746D01*
Y95813D01*
X300634D01*
Y96037D01*
X300522D01*
Y96262D01*
X300410D01*
Y96599D01*
X300297D01*
Y96823D01*
X300185D01*
Y97048D01*
X300073D01*
Y97385D01*
X299961D01*
Y97609D01*
X299848D01*
Y97834D01*
X299736D01*
Y98058D01*
X299624D01*
Y98395D01*
X299512D01*
Y98619D01*
X299399D01*
Y98956D01*
X299287D01*
Y99181D01*
X299175D01*
Y99405D01*
X299062D01*
Y99742D01*
X298950D01*
Y99967D01*
X298838D01*
Y100303D01*
X298726D01*
Y100528D01*
X298613D01*
Y100865D01*
X298501D01*
Y101089D01*
X298389D01*
Y101426D01*
X298277D01*
Y101763D01*
X298164D01*
Y101987D01*
X298052D01*
Y102324D01*
X297940D01*
Y102661D01*
X297827D01*
Y102886D01*
X297715D01*
Y103222D01*
X297603D01*
Y103447D01*
X297491D01*
Y103784D01*
X297378D01*
Y104121D01*
X297266D01*
Y104457D01*
X297154D01*
Y104682D01*
X297042D01*
Y104794D01*
X296929D01*
Y104906D01*
X296817D01*
Y105019D01*
X296705D01*
Y105131D01*
X296593D01*
Y105243D01*
X296480D01*
Y105355D01*
X296256D01*
Y105468D01*
X296143D01*
Y105580D01*
X296031D01*
Y105692D01*
X295807D01*
Y105805D01*
X295695D01*
Y105917D01*
X295582D01*
Y106029D01*
X295358D01*
Y106141D01*
X295245D01*
Y106253D01*
X295133D01*
Y106366D01*
X295021D01*
Y106478D01*
X294909D01*
Y106590D01*
X294796D01*
Y106703D01*
X294684D01*
Y106815D01*
X294572D01*
Y106927D01*
X294459D01*
Y107039D01*
X294347D01*
Y107152D01*
X294235D01*
Y107264D01*
X294123D01*
Y107488D01*
X294011D01*
Y107601D01*
X293898D01*
Y107825D01*
X293786D01*
Y107937D01*
X293674D01*
Y108050D01*
X293561D01*
Y108274D01*
X293449D01*
Y108387D01*
X293337D01*
Y108611D01*
X293225D01*
Y108723D01*
X293112D01*
Y108836D01*
X293000D01*
Y108948D01*
X292888D01*
Y109060D01*
X292775D01*
Y109285D01*
X292663D01*
Y109397D01*
X292551D01*
Y109509D01*
X292439D01*
Y109621D01*
X292327D01*
Y109734D01*
X292214D01*
Y109846D01*
X292102D01*
Y109958D01*
X291990D01*
Y110071D01*
X291877D01*
Y110183D01*
X291765D01*
Y110295D01*
X291653D01*
Y110407D01*
X291428D01*
Y110295D01*
X291316D01*
Y110071D01*
X291204D01*
Y108387D01*
X291316D01*
Y107039D01*
X291428D01*
Y106478D01*
X291316D01*
Y106590D01*
X291204D01*
Y106815D01*
X291091D01*
Y107039D01*
X290979D01*
Y107376D01*
X290867D01*
Y107937D01*
X290755D01*
Y109172D01*
X290867D01*
Y110071D01*
X290979D01*
Y110183D01*
X290306D01*
Y109397D01*
X290193D01*
Y108948D01*
X290081D01*
Y108499D01*
X289969D01*
Y108050D01*
X289857D01*
Y107713D01*
X289744D01*
Y107488D01*
X289632D01*
Y107601D01*
X289520D01*
Y108162D01*
X289632D01*
Y108836D01*
X289744D01*
Y109285D01*
X289857D01*
Y109734D01*
X289969D01*
Y110183D01*
X289857D01*
Y110295D01*
X289744D01*
Y110407D01*
X289408D01*
Y110520D01*
X288958D01*
Y110632D01*
X288734D01*
Y110744D01*
X288509D01*
Y110856D01*
X288397D01*
Y110969D01*
X288285D01*
Y111081D01*
X288173D01*
Y111193D01*
X288060D01*
Y111306D01*
X287948D01*
Y111418D01*
X287836D01*
Y111530D01*
X287724D01*
Y111755D01*
X287611D01*
Y111867D01*
X287499D01*
Y112091D01*
X287387D01*
Y112316D01*
X287274D01*
Y112653D01*
X287162D01*
Y112990D01*
X287050D01*
Y113775D01*
X286938D01*
Y114561D01*
X287050D01*
Y115122D01*
X287162D01*
Y115459D01*
X287274D01*
Y115796D01*
X287387D01*
Y116021D01*
X287499D01*
Y116245D01*
X287611D01*
Y116357D01*
X287724D01*
Y116582D01*
X287836D01*
Y116694D01*
X287948D01*
Y116806D01*
X288060D01*
Y116919D01*
X288173D01*
Y117143D01*
X288285D01*
Y117256D01*
X288509D01*
Y117368D01*
X288622D01*
Y117480D01*
X288734D01*
Y117592D01*
X288846D01*
Y117929D01*
X288734D01*
Y118603D01*
X288622D01*
Y119725D01*
X288734D01*
Y119950D01*
X288846D01*
Y120175D01*
X288958D01*
Y120287D01*
X289071D01*
Y120399D01*
X289183D01*
Y120511D01*
X289295D01*
Y120624D01*
X289408D01*
Y120736D01*
X289632D01*
Y120848D01*
X289744D01*
Y120960D01*
X289969D01*
Y121073D01*
X290306D01*
Y121185D01*
X290418D01*
Y120960D01*
X290306D01*
Y120848D01*
X290193D01*
Y120736D01*
X290081D01*
Y120624D01*
X289969D01*
Y120511D01*
X289857D01*
Y120399D01*
X289744D01*
Y120287D01*
X289632D01*
Y120175D01*
X289520D01*
Y120062D01*
X289408D01*
Y119950D01*
X289295D01*
Y119725D01*
X289183D01*
Y119389D01*
X289071D01*
Y118041D01*
X289183D01*
Y117705D01*
X289408D01*
Y117817D01*
X289520D01*
Y117929D01*
X289632D01*
Y118154D01*
X289744D01*
Y118378D01*
X289857D01*
Y118490D01*
X289969D01*
Y118603D01*
X290081D01*
Y118715D01*
X290193D01*
Y118827D01*
X290306D01*
Y118940D01*
X290418D01*
Y119052D01*
X290530D01*
Y119164D01*
X290643D01*
Y119276D01*
X290755D01*
Y119389D01*
X290979D01*
Y119501D01*
X291091D01*
Y119613D01*
X291316D01*
Y119725D01*
X291653D01*
Y119838D01*
X291990D01*
Y119950D01*
X292439D01*
Y119838D01*
X292551D01*
Y119725D01*
X292439D01*
Y119613D01*
X292214D01*
Y119501D01*
X291990D01*
Y119389D01*
X291765D01*
Y119276D01*
X291541D01*
Y119164D01*
X291428D01*
Y119052D01*
X291204D01*
Y118940D01*
X291091D01*
Y118827D01*
X290867D01*
Y118715D01*
X290755D01*
Y118603D01*
X290530D01*
Y118490D01*
X290418D01*
Y118378D01*
X290306D01*
Y118266D01*
X290193D01*
Y118154D01*
X290081D01*
Y118041D01*
X289969D01*
Y117929D01*
X289857D01*
Y117817D01*
X289744D01*
Y117705D01*
X290081D01*
Y117592D01*
X290867D01*
Y117480D01*
X292214D01*
Y117368D01*
X293898D01*
Y117480D01*
X294123D01*
Y117592D01*
X294347D01*
Y117705D01*
X294572D01*
Y117817D01*
X294796D01*
Y117929D01*
X294909D01*
Y118041D01*
X295133D01*
Y118154D01*
X295358D01*
Y118266D01*
X295470D01*
Y118378D01*
X295695D01*
Y118490D01*
X295807D01*
Y118603D01*
X296031D01*
Y118715D01*
X296256D01*
Y118827D01*
X296368D01*
Y118940D01*
X296593D01*
Y119052D01*
X296705D01*
Y119164D01*
X296929D01*
Y119276D01*
X297042D01*
Y119389D01*
X297266D01*
Y119501D01*
X297378D01*
Y119613D01*
X297603D01*
Y119725D01*
X297827D01*
Y119838D01*
X298052D01*
Y119950D01*
X298164D01*
Y120062D01*
X298389D01*
Y120175D01*
X298501D01*
Y120287D01*
X298726D01*
Y120399D01*
X298950D01*
Y120511D01*
X299175D01*
Y120624D01*
X299399D01*
Y120736D01*
X299736D01*
Y120848D01*
X299961D01*
Y120960D01*
X300297D01*
Y121073D01*
X300634D01*
Y121185D01*
X300971D01*
Y121297D01*
X301420D01*
Y121409D01*
X301981D01*
Y121522D01*
X302655D01*
Y121634D01*
X303553D01*
Y121746D01*
X304900D01*
Y121859D01*
X305462D01*
Y121746D01*
X307819D01*
Y121634D01*
X308942D01*
Y121522D01*
X309840D01*
Y121409D01*
X310738D01*
Y121297D01*
X313657D01*
Y121409D01*
X313881D01*
Y121522D01*
X314106D01*
Y121634D01*
X314331D01*
Y121746D01*
X314555D01*
Y121859D01*
X314667D01*
Y121971D01*
X314892D01*
Y122083D01*
X315116D01*
Y122195D01*
X315341D01*
Y122308D01*
X315453D01*
Y122420D01*
X315116D01*
Y122532D01*
X314892D01*
Y122644D01*
X314667D01*
Y122757D01*
X313881D01*
Y122869D01*
X313657D01*
Y123093D01*
X313769D01*
Y123206D01*
X314892D01*
Y123093D01*
X315116D01*
Y122981D01*
X315341D01*
Y122869D01*
X315453D01*
Y122757D01*
X315565D01*
Y122644D01*
X315678D01*
Y122532D01*
X315902D01*
Y122420D01*
X316239D01*
Y122308D01*
X316576D01*
Y122420D01*
X316688D01*
Y122532D01*
X316576D01*
Y122757D01*
X316464D01*
Y122981D01*
X316351D01*
Y123093D01*
X316239D01*
Y123318D01*
X316127D01*
Y123430D01*
X316015D01*
Y123542D01*
X315902D01*
Y123655D01*
X315790D01*
Y123767D01*
X315678D01*
Y123879D01*
X315565D01*
Y124104D01*
X315453D01*
Y124216D01*
X315341D01*
Y124328D01*
X315229D01*
Y124441D01*
X315116D01*
Y124553D01*
X315004D01*
Y124665D01*
X314892D01*
Y124777D01*
X314667D01*
Y124890D01*
X314555D01*
Y125002D01*
X314443D01*
Y125114D01*
X314218D01*
Y125226D01*
X314106D01*
Y125339D01*
X314780D01*
Y125226D01*
D02*
G37*
G36*
X318597Y117143D02*
X318821D01*
Y117031D01*
X319046D01*
Y116919D01*
X319158D01*
Y116806D01*
X319270D01*
Y116694D01*
X319495D01*
Y116470D01*
X319607D01*
Y116357D01*
X319719D01*
Y116133D01*
X319832D01*
Y115796D01*
X319607D01*
Y115908D01*
X319495D01*
Y116021D01*
X319382D01*
Y116133D01*
X319270D01*
Y116245D01*
X319158D01*
Y116357D01*
X319046D01*
Y116470D01*
X318934D01*
Y116582D01*
X318821D01*
Y116694D01*
X318709D01*
Y116806D01*
X318597D01*
Y116919D01*
X318484D01*
Y117031D01*
X318372D01*
Y117143D01*
X318260D01*
Y117256D01*
X318597D01*
Y117143D01*
D02*
G37*
G36*
X80281Y143121D02*
X82310D01*
Y142986D01*
X83662D01*
Y142851D01*
X84880D01*
Y142716D01*
X85962D01*
Y142580D01*
X86909D01*
Y142445D01*
X87720D01*
Y142310D01*
X88532D01*
Y142174D01*
X89344D01*
Y142039D01*
X90020D01*
Y141904D01*
X90696D01*
Y141769D01*
X91373D01*
Y141633D01*
X91914D01*
Y141498D01*
X92455D01*
Y141363D01*
X92996D01*
Y141228D01*
X93537D01*
Y141092D01*
X93943D01*
Y140957D01*
X94484D01*
Y140822D01*
X94890D01*
Y140686D01*
X95431D01*
Y140551D01*
X95837D01*
Y140416D01*
X96243D01*
Y140281D01*
X96648D01*
Y140145D01*
X97054D01*
Y140010D01*
X97460D01*
Y139875D01*
X97866D01*
Y139740D01*
X98272D01*
Y139604D01*
X98542D01*
Y139469D01*
X98948D01*
Y139334D01*
X99354D01*
Y139199D01*
X99624D01*
Y139063D01*
X100030D01*
Y138928D01*
X100301D01*
Y138793D01*
X100571D01*
Y138657D01*
X100977D01*
Y138522D01*
X101248D01*
Y138387D01*
X101518D01*
Y138251D01*
X101789D01*
Y138116D01*
X102059D01*
Y137981D01*
X102330D01*
Y137846D01*
X102736D01*
Y137711D01*
X103006D01*
Y137575D01*
X103277D01*
Y137440D01*
X103412D01*
Y137305D01*
X103682D01*
Y137169D01*
X103953D01*
Y137034D01*
X104224D01*
Y136899D01*
X104494D01*
Y136764D01*
X104765D01*
Y136628D01*
X104900D01*
Y136493D01*
X105170D01*
Y136358D01*
X105441D01*
Y136222D01*
X105576D01*
Y136087D01*
X105847D01*
Y135952D01*
X106117D01*
Y135817D01*
X106253D01*
Y135681D01*
X106523D01*
Y135546D01*
X106658D01*
Y135411D01*
X106929D01*
Y135276D01*
X107064D01*
Y135140D01*
X107335D01*
Y135005D01*
X107470D01*
Y134870D01*
X107605D01*
Y134734D01*
X107876D01*
Y134599D01*
X108011D01*
Y134464D01*
X108146D01*
Y134329D01*
X108417D01*
Y134193D01*
X108552D01*
Y134058D01*
X108687D01*
Y133923D01*
X108958D01*
Y133788D01*
X109093D01*
Y133652D01*
X109229D01*
Y133517D01*
X109364D01*
Y133382D01*
X109499D01*
Y133246D01*
X109634D01*
Y133111D01*
X109905D01*
Y132976D01*
X110040D01*
Y132841D01*
X110176D01*
Y132705D01*
X110311D01*
Y132570D01*
X110446D01*
Y132435D01*
X110581D01*
Y132300D01*
X110717D01*
Y132164D01*
X110852D01*
Y132029D01*
X110987D01*
Y131894D01*
X111122D01*
Y131758D01*
X111258D01*
Y131623D01*
X111393D01*
Y131488D01*
X111528D01*
Y131217D01*
X111664D01*
Y131082D01*
X111799D01*
Y130947D01*
X111934D01*
Y130812D01*
X112069D01*
Y130676D01*
X112205D01*
Y130541D01*
X112340D01*
Y130271D01*
X112475D01*
Y130135D01*
X112610D01*
Y129865D01*
X112746D01*
Y129729D01*
X112881D01*
Y129594D01*
X113016D01*
Y129324D01*
X113152D01*
Y129188D01*
X113287D01*
Y128918D01*
X113422D01*
Y128647D01*
X113557D01*
Y128512D01*
X113693D01*
Y128242D01*
X113828D01*
Y127971D01*
X113963D01*
Y127700D01*
X114098D01*
Y127430D01*
X114234D01*
Y127159D01*
X114369D01*
Y126889D01*
X114504D01*
Y126483D01*
X114640D01*
Y126077D01*
X114775D01*
Y125671D01*
X114910D01*
Y125266D01*
X115045D01*
Y124589D01*
X115181D01*
Y123913D01*
X115316D01*
Y120531D01*
X115181D01*
Y119719D01*
X115045D01*
Y119178D01*
X114910D01*
Y118637D01*
X114775D01*
Y118231D01*
X114640D01*
Y117826D01*
X114504D01*
Y117555D01*
X114369D01*
Y117285D01*
X114234D01*
Y116879D01*
X114098D01*
Y116608D01*
X113963D01*
Y116338D01*
X113828D01*
Y116067D01*
X113693D01*
Y115932D01*
X113557D01*
Y115661D01*
X113422D01*
Y115391D01*
X113287D01*
Y115255D01*
X113152D01*
Y114985D01*
X113016D01*
Y114850D01*
X112881D01*
Y114579D01*
X112746D01*
Y114444D01*
X112610D01*
Y114309D01*
X112475D01*
Y114038D01*
X112340D01*
Y113903D01*
X112205D01*
Y113767D01*
X112069D01*
Y113497D01*
X111934D01*
Y113362D01*
X111799D01*
Y113226D01*
X111664D01*
Y113091D01*
X111528D01*
Y112956D01*
X111393D01*
Y112821D01*
X111258D01*
Y112685D01*
X111122D01*
Y112550D01*
X110987D01*
Y112280D01*
X110717D01*
Y112144D01*
X110581D01*
Y111874D01*
X110311D01*
Y111738D01*
X110176D01*
Y111603D01*
X110040D01*
Y111468D01*
X109905D01*
Y111333D01*
X109770D01*
Y111197D01*
X109634D01*
Y111062D01*
X109499D01*
Y110927D01*
X109364D01*
Y110792D01*
X109093D01*
Y110656D01*
X108958D01*
Y110521D01*
X108823D01*
Y110386D01*
X108687D01*
Y110250D01*
X108552D01*
Y110115D01*
X108282D01*
Y109980D01*
X108146D01*
Y109845D01*
X108011D01*
Y109709D01*
X107741D01*
Y109574D01*
X107605D01*
Y109439D01*
X107335D01*
Y109304D01*
X107200D01*
Y109168D01*
X107064D01*
Y109033D01*
X106794D01*
Y108898D01*
X106658D01*
Y108762D01*
X106388D01*
Y108627D01*
X106117D01*
Y108492D01*
X105982D01*
Y108357D01*
X105712D01*
Y108221D01*
X105576D01*
Y108086D01*
X105306D01*
Y107951D01*
X105035D01*
Y107816D01*
X104900D01*
Y107680D01*
X104629D01*
Y107545D01*
X104359D01*
Y107410D01*
X104088D01*
Y107275D01*
X103818D01*
Y107139D01*
X103547D01*
Y107004D01*
X103412D01*
Y106869D01*
X103141D01*
Y106733D01*
X102871D01*
Y106598D01*
X102600D01*
Y106463D01*
X102330D01*
Y106328D01*
X102059D01*
Y106192D01*
X101653D01*
Y106057D01*
X101383D01*
Y105922D01*
X101112D01*
Y105787D01*
X100842D01*
Y105651D01*
X100436D01*
Y105516D01*
X100166D01*
Y105381D01*
X99895D01*
Y105245D01*
X99489D01*
Y105110D01*
X99219D01*
Y104975D01*
X98813D01*
Y104840D01*
X98407D01*
Y104704D01*
X98136D01*
Y104569D01*
X97731D01*
Y104434D01*
X97325D01*
Y104298D01*
X96919D01*
Y104163D01*
X96513D01*
Y104028D01*
X96107D01*
Y103893D01*
X95702D01*
Y103757D01*
X95160D01*
Y103622D01*
X94755D01*
Y103487D01*
X94349D01*
Y103352D01*
X93808D01*
Y103216D01*
X93267D01*
Y103081D01*
X92726D01*
Y102946D01*
X92184D01*
Y102810D01*
X91643D01*
Y102675D01*
X91102D01*
Y102540D01*
X90426D01*
Y102405D01*
X89750D01*
Y102269D01*
X89073D01*
Y102134D01*
X88262D01*
Y101999D01*
X87450D01*
Y101864D01*
X86503D01*
Y101728D01*
X85556D01*
Y101593D01*
X84339D01*
Y101458D01*
X83121D01*
Y101322D01*
X81498D01*
Y101187D01*
X78928D01*
Y101052D01*
X73923D01*
Y101187D01*
X71217D01*
Y101322D01*
X69594D01*
Y101458D01*
X68377D01*
Y101593D01*
X67159D01*
Y101728D01*
X66212D01*
Y101864D01*
X65401D01*
Y101999D01*
X64454D01*
Y102134D01*
X63777D01*
Y102269D01*
X62966D01*
Y102405D01*
X62290D01*
Y102540D01*
X61613D01*
Y102675D01*
X61072D01*
Y102810D01*
X60531D01*
Y102946D01*
X59990D01*
Y103081D01*
X59449D01*
Y103216D01*
X58908D01*
Y103352D01*
X58502D01*
Y103487D01*
X57961D01*
Y103622D01*
X57555D01*
Y103757D01*
X57014D01*
Y103893D01*
X56608D01*
Y104028D01*
X56202D01*
Y104163D01*
X55796D01*
Y104298D01*
X55391D01*
Y104434D01*
X54985D01*
Y104569D01*
X54579D01*
Y104704D01*
X54309D01*
Y104840D01*
X53903D01*
Y104975D01*
X53632D01*
Y105110D01*
X53226D01*
Y105245D01*
X52956D01*
Y105381D01*
X52550D01*
Y105516D01*
X52280D01*
Y105651D01*
X51874D01*
Y105787D01*
X51603D01*
Y105922D01*
X51333D01*
Y106057D01*
X51062D01*
Y106192D01*
X50792D01*
Y106328D01*
X50521D01*
Y106463D01*
X50250D01*
Y106598D01*
X49980D01*
Y106733D01*
X49574D01*
Y106869D01*
X49303D01*
Y107004D01*
X49168D01*
Y107139D01*
X48898D01*
Y107275D01*
X48627D01*
Y107410D01*
X48357D01*
Y107545D01*
X48086D01*
Y107680D01*
X47815D01*
Y107816D01*
X47680D01*
Y107951D01*
X47410D01*
Y108086D01*
X47139D01*
Y108221D01*
X47004D01*
Y108357D01*
X46733D01*
Y108492D01*
X46598D01*
Y108627D01*
X46328D01*
Y108762D01*
X46192D01*
Y108898D01*
X45922D01*
Y109033D01*
X45786D01*
Y109168D01*
X45516D01*
Y109304D01*
X45381D01*
Y109439D01*
X45110D01*
Y109574D01*
X44975D01*
Y109709D01*
X44840D01*
Y109845D01*
X44569D01*
Y109980D01*
X44434D01*
Y110115D01*
X44299D01*
Y110250D01*
X44028D01*
Y110386D01*
X43893D01*
Y110521D01*
X43757D01*
Y110656D01*
X43622D01*
Y110792D01*
X43352D01*
Y110927D01*
X43216D01*
Y111062D01*
X43081D01*
Y111197D01*
X42946D01*
Y111333D01*
X42811D01*
Y111468D01*
X42675D01*
Y111603D01*
X42540D01*
Y111738D01*
X42405D01*
Y111874D01*
X42269D01*
Y112009D01*
X42134D01*
Y112144D01*
X41999D01*
Y112280D01*
X41864D01*
Y112415D01*
X41728D01*
Y112550D01*
X41593D01*
Y112685D01*
X41458D01*
Y112821D01*
X41322D01*
Y112956D01*
X41187D01*
Y113091D01*
X41052D01*
Y113226D01*
X40917D01*
Y113362D01*
X40781D01*
Y113632D01*
X40646D01*
Y113767D01*
X40511D01*
Y113903D01*
X40376D01*
Y114038D01*
X40240D01*
Y114309D01*
X40105D01*
Y114444D01*
X39970D01*
Y114579D01*
X39834D01*
Y114850D01*
X39699D01*
Y114985D01*
X39564D01*
Y115255D01*
X39429D01*
Y115391D01*
X39293D01*
Y115661D01*
X39158D01*
Y115932D01*
X39023D01*
Y116202D01*
X38888D01*
Y116338D01*
X38752D01*
Y116608D01*
X38617D01*
Y117014D01*
X38482D01*
Y117285D01*
X38347D01*
Y117555D01*
X38211D01*
Y117961D01*
X38076D01*
Y118231D01*
X37941D01*
Y118772D01*
X37806D01*
Y119178D01*
X37670D01*
Y119719D01*
X37535D01*
Y120531D01*
X37400D01*
Y123778D01*
X37535D01*
Y124589D01*
X37670D01*
Y125130D01*
X37806D01*
Y125671D01*
X37941D01*
Y126077D01*
X38076D01*
Y126483D01*
X38211D01*
Y126754D01*
X38347D01*
Y127159D01*
X38482D01*
Y127430D01*
X38617D01*
Y127700D01*
X38752D01*
Y127971D01*
X38888D01*
Y128242D01*
X39023D01*
Y128512D01*
X39158D01*
Y128647D01*
X39293D01*
Y128918D01*
X39429D01*
Y129188D01*
X39564D01*
Y129324D01*
X39699D01*
Y129459D01*
X39834D01*
Y129729D01*
X39970D01*
Y129865D01*
X40105D01*
Y130135D01*
X40240D01*
Y130271D01*
X40376D01*
Y130406D01*
X40511D01*
Y130676D01*
X40646D01*
Y130812D01*
X40781D01*
Y130947D01*
X40917D01*
Y131082D01*
X41052D01*
Y131217D01*
X41187D01*
Y131488D01*
X41322D01*
Y131623D01*
X41458D01*
Y131758D01*
X41593D01*
Y131894D01*
X41728D01*
Y132029D01*
X41864D01*
Y132164D01*
X41999D01*
Y132300D01*
X42134D01*
Y132435D01*
X42269D01*
Y132570D01*
X42405D01*
Y132705D01*
X42540D01*
Y132841D01*
X42675D01*
Y132976D01*
X42946D01*
Y133111D01*
X43081D01*
Y133246D01*
X43216D01*
Y133382D01*
X43352D01*
Y133517D01*
X43487D01*
Y133652D01*
X43622D01*
Y133788D01*
X43893D01*
Y133923D01*
X44028D01*
Y134058D01*
X44163D01*
Y134193D01*
X44299D01*
Y134329D01*
X44569D01*
Y134464D01*
X44704D01*
Y134599D01*
X44840D01*
Y134734D01*
X45110D01*
Y134870D01*
X45245D01*
Y135005D01*
X45516D01*
Y135140D01*
X45651D01*
Y135276D01*
X45786D01*
Y135411D01*
X46057D01*
Y135546D01*
X46192D01*
Y135681D01*
X46463D01*
Y135817D01*
X46733D01*
Y135952D01*
X46869D01*
Y136087D01*
X47139D01*
Y136222D01*
X47274D01*
Y136358D01*
X47545D01*
Y136493D01*
X47815D01*
Y136628D01*
X48086D01*
Y136764D01*
X48221D01*
Y136899D01*
X48492D01*
Y137034D01*
X48762D01*
Y137169D01*
X49033D01*
Y137305D01*
X49303D01*
Y137440D01*
X49574D01*
Y137575D01*
X49845D01*
Y137711D01*
X50115D01*
Y137846D01*
X50386D01*
Y137981D01*
X50656D01*
Y138116D01*
X50927D01*
Y138251D01*
X51197D01*
Y138387D01*
X51468D01*
Y138522D01*
X51738D01*
Y138657D01*
X52144D01*
Y138793D01*
X52415D01*
Y138928D01*
X52685D01*
Y139063D01*
X53091D01*
Y139199D01*
X53362D01*
Y139334D01*
X53767D01*
Y139469D01*
X54173D01*
Y139604D01*
X54444D01*
Y139740D01*
X54850D01*
Y139875D01*
X55255D01*
Y140010D01*
X55661D01*
Y140145D01*
X56067D01*
Y140281D01*
X56473D01*
Y140416D01*
X56879D01*
Y140551D01*
X57284D01*
Y140686D01*
X57826D01*
Y140822D01*
X58231D01*
Y140957D01*
X58773D01*
Y141092D01*
X59178D01*
Y141228D01*
X59719D01*
Y141363D01*
X60261D01*
Y141498D01*
X60802D01*
Y141633D01*
X61478D01*
Y141769D01*
X62019D01*
Y141904D01*
X62695D01*
Y142039D01*
X63372D01*
Y142174D01*
X64183D01*
Y142310D01*
X64995D01*
Y142445D01*
X65807D01*
Y142580D01*
X66754D01*
Y142716D01*
X67836D01*
Y142851D01*
X69053D01*
Y142986D01*
X70541D01*
Y143121D01*
X72435D01*
Y143257D01*
X80281D01*
Y143121D01*
D02*
G37*
G36*
X86638Y94288D02*
X86774D01*
Y94153D01*
X86909D01*
Y93883D01*
X87044D01*
Y93612D01*
X87179D01*
Y93342D01*
X87315D01*
Y93071D01*
X87450D01*
Y92936D01*
X87585D01*
Y92665D01*
X87720D01*
Y92395D01*
X87856D01*
Y92124D01*
X87991D01*
Y91854D01*
X88126D01*
Y91583D01*
X88262D01*
Y91313D01*
X88397D01*
Y91177D01*
X88532D01*
Y90907D01*
X88667D01*
Y90636D01*
X88803D01*
Y90366D01*
X88938D01*
Y90095D01*
X89073D01*
Y89824D01*
X89208D01*
Y89689D01*
X89344D01*
Y89419D01*
X89479D01*
Y89148D01*
X89614D01*
Y88878D01*
X89750D01*
Y88607D01*
X89885D01*
Y88336D01*
X90020D01*
Y88066D01*
X90155D01*
Y87931D01*
X90291D01*
Y87660D01*
X90426D01*
Y87390D01*
X90561D01*
Y87119D01*
X90696D01*
Y86848D01*
X90832D01*
Y86578D01*
X90967D01*
Y86307D01*
X91102D01*
Y86172D01*
X91238D01*
Y85902D01*
X91373D01*
Y85631D01*
X91508D01*
Y85360D01*
X91643D01*
Y85090D01*
X91779D01*
Y84819D01*
X91914D01*
Y84684D01*
X92049D01*
Y84414D01*
X92184D01*
Y84143D01*
X92320D01*
Y83873D01*
X92455D01*
Y83602D01*
X92590D01*
Y83331D01*
X92726D01*
Y83196D01*
X92861D01*
Y82926D01*
X92996D01*
Y82655D01*
X93131D01*
Y82385D01*
X93267D01*
Y82114D01*
X93402D01*
Y81843D01*
X93537D01*
Y81573D01*
X93672D01*
Y81438D01*
X93808D01*
Y81167D01*
X93943D01*
Y80897D01*
X94078D01*
Y80626D01*
X94213D01*
Y80491D01*
X89885D01*
Y80626D01*
X89750D01*
Y80897D01*
X89614D01*
Y81167D01*
X89479D01*
Y81302D01*
X89344D01*
Y81573D01*
X89208D01*
Y81843D01*
X89073D01*
Y82114D01*
X88938D01*
Y82385D01*
X88803D01*
Y82520D01*
X88667D01*
Y82790D01*
X80416D01*
Y82520D01*
X80281D01*
Y82249D01*
X80145D01*
Y81979D01*
X80010D01*
Y81708D01*
X79875D01*
Y81573D01*
X79739D01*
Y81302D01*
X79604D01*
Y81032D01*
X79469D01*
Y80761D01*
X79334D01*
Y80491D01*
X75140D01*
Y80761D01*
X75276D01*
Y81032D01*
X75411D01*
Y81302D01*
X75546D01*
Y81573D01*
X75681D01*
Y81708D01*
X75817D01*
Y81979D01*
X75952D01*
Y82249D01*
X76087D01*
Y82520D01*
X76222D01*
Y82790D01*
X76358D01*
Y83061D01*
X76493D01*
Y83196D01*
X76628D01*
Y83467D01*
X76764D01*
Y83737D01*
X76899D01*
Y84008D01*
X77034D01*
Y84278D01*
X77169D01*
Y84549D01*
X77305D01*
Y84819D01*
X77440D01*
Y84955D01*
X77575D01*
Y85225D01*
X77710D01*
Y85496D01*
X77846D01*
Y85766D01*
X77981D01*
Y86037D01*
X78116D01*
Y86307D01*
X78252D01*
Y86443D01*
X78387D01*
Y86713D01*
X78522D01*
Y86984D01*
X78657D01*
Y87254D01*
X78793D01*
Y87525D01*
X78928D01*
Y87795D01*
X79063D01*
Y88066D01*
X79198D01*
Y88336D01*
X79334D01*
Y88472D01*
X79469D01*
Y88742D01*
X79604D01*
Y89013D01*
X79739D01*
Y89283D01*
X79875D01*
Y89554D01*
X80010D01*
Y89824D01*
X80145D01*
Y89960D01*
X80281D01*
Y90230D01*
X80416D01*
Y90501D01*
X80551D01*
Y90771D01*
X80686D01*
Y91042D01*
X80822D01*
Y91313D01*
X80957D01*
Y91583D01*
X81092D01*
Y91718D01*
X81228D01*
Y91989D01*
X81363D01*
Y92259D01*
X81498D01*
Y92530D01*
X81633D01*
Y92800D01*
X81769D01*
Y93071D01*
X81904D01*
Y93206D01*
X82039D01*
Y93477D01*
X82174D01*
Y93747D01*
X82310D01*
Y94018D01*
X82445D01*
Y94288D01*
X82580D01*
Y94424D01*
X82716D01*
Y94288D01*
X84204D01*
Y94424D01*
X86233D01*
Y94288D01*
X86503D01*
Y94424D01*
X86638D01*
Y94288D01*
D02*
G37*
G36*
X44434Y84684D02*
X44569D01*
Y84414D01*
X44704D01*
Y84143D01*
X44840D01*
Y84008D01*
X45110D01*
Y83873D01*
X45381D01*
Y83737D01*
X52685D01*
Y83873D01*
X52956D01*
Y84008D01*
X53091D01*
Y84143D01*
X53226D01*
Y84278D01*
X53362D01*
Y84549D01*
X53497D01*
Y94288D01*
X57149D01*
Y83061D01*
X57014D01*
Y82520D01*
X56879D01*
Y82249D01*
X56743D01*
Y81979D01*
X56608D01*
Y81843D01*
X56473D01*
Y81708D01*
X56338D01*
Y81573D01*
X56202D01*
Y81438D01*
X56067D01*
Y81302D01*
X55932D01*
Y81167D01*
X55796D01*
Y81032D01*
X55526D01*
Y80897D01*
X55255D01*
Y80761D01*
X54850D01*
Y80626D01*
X54309D01*
Y80491D01*
X43622D01*
Y80626D01*
X43081D01*
Y80761D01*
X42675D01*
Y80897D01*
X42405D01*
Y81032D01*
X42134D01*
Y81167D01*
X41999D01*
Y81302D01*
X41864D01*
Y81438D01*
X41593D01*
Y81708D01*
X41458D01*
Y81843D01*
X41322D01*
Y81979D01*
X41187D01*
Y82249D01*
X41052D01*
Y82520D01*
X40917D01*
Y83061D01*
X40781D01*
Y87931D01*
Y88066D01*
Y94288D01*
X40917D01*
Y94424D01*
X41052D01*
Y94288D01*
X44299D01*
Y94424D01*
X44434D01*
Y84684D01*
D02*
G37*
G36*
X36723Y94153D02*
X37129D01*
Y94018D01*
X37535D01*
Y93883D01*
X37806D01*
Y93747D01*
X37941D01*
Y93612D01*
X38211D01*
Y93477D01*
X38347D01*
Y93342D01*
X38482D01*
Y93206D01*
X38617D01*
Y92936D01*
X38752D01*
Y92665D01*
X38888D01*
Y92259D01*
X39023D01*
Y90230D01*
X35235D01*
Y90501D01*
X35100D01*
Y90907D01*
X34965D01*
Y91042D01*
X34829D01*
Y91177D01*
X34694D01*
Y91313D01*
X34153D01*
Y91448D01*
X26848D01*
Y91313D01*
X26443D01*
Y91177D01*
X26307D01*
Y91042D01*
X26172D01*
Y90771D01*
X26037D01*
Y89554D01*
X26172D01*
Y89419D01*
X26307D01*
Y89283D01*
X26443D01*
Y89148D01*
X26848D01*
Y89013D01*
X29825D01*
Y88878D01*
X32800D01*
Y88742D01*
X35641D01*
Y88607D01*
X36318D01*
Y88472D01*
X36723D01*
Y88336D01*
X36994D01*
Y88201D01*
X37264D01*
Y88066D01*
X37535D01*
Y87931D01*
X37670D01*
Y87795D01*
X37941D01*
Y87660D01*
X38076D01*
Y87525D01*
X38211D01*
Y87254D01*
X38347D01*
Y87119D01*
X38482D01*
Y86848D01*
X38617D01*
Y86713D01*
X38752D01*
Y86307D01*
X38888D01*
Y85902D01*
X39023D01*
Y85090D01*
X39158D01*
Y83873D01*
X39023D01*
Y83061D01*
X38888D01*
Y82520D01*
X38752D01*
Y82249D01*
X38617D01*
Y81979D01*
X38482D01*
Y81708D01*
X38347D01*
Y81573D01*
X38211D01*
Y81438D01*
X38076D01*
Y81302D01*
X37941D01*
Y81167D01*
X37806D01*
Y81032D01*
X37535D01*
Y80897D01*
X37264D01*
Y80761D01*
X36994D01*
Y80626D01*
X36453D01*
Y80491D01*
X25090D01*
Y80626D01*
X24684D01*
Y80761D01*
X24278D01*
Y80897D01*
X24008D01*
Y81032D01*
X23737D01*
Y81167D01*
X23602D01*
Y81302D01*
X23467D01*
Y81438D01*
X23331D01*
Y81573D01*
X23196D01*
Y81708D01*
X23061D01*
Y81843D01*
X22926D01*
Y82114D01*
X22790D01*
Y82385D01*
X22655D01*
Y82790D01*
X22520D01*
Y84549D01*
X22385D01*
Y84684D01*
X22520D01*
Y84819D01*
X26307D01*
Y84278D01*
X26443D01*
Y83873D01*
X26578D01*
Y83737D01*
X26713D01*
Y83602D01*
X26848D01*
Y83467D01*
X27119D01*
Y83331D01*
X34829D01*
Y83467D01*
X35100D01*
Y83602D01*
X35235D01*
Y83737D01*
X35371D01*
Y84008D01*
X35506D01*
Y85360D01*
X35371D01*
Y85496D01*
X35235D01*
Y85631D01*
X35100D01*
Y85766D01*
X34829D01*
Y85902D01*
X30771D01*
Y86037D01*
X25902D01*
Y86172D01*
X25090D01*
Y86307D01*
X24684D01*
Y86443D01*
X24278D01*
Y86578D01*
X24008D01*
Y86713D01*
X23872D01*
Y86848D01*
X23602D01*
Y86984D01*
X23467D01*
Y87119D01*
X23331D01*
Y87390D01*
X23196D01*
Y87525D01*
X23061D01*
Y87660D01*
X22926D01*
Y87931D01*
X22790D01*
Y88201D01*
X22655D01*
Y88742D01*
X22520D01*
Y91177D01*
X22655D01*
Y91718D01*
X22790D01*
Y92124D01*
X22926D01*
Y92395D01*
X23061D01*
Y92665D01*
X23196D01*
Y92800D01*
X23331D01*
Y93071D01*
X23467D01*
Y93206D01*
X23602D01*
Y93342D01*
X23737D01*
Y93477D01*
X23872D01*
Y93612D01*
X24143D01*
Y93747D01*
X24414D01*
Y93883D01*
X24549D01*
Y94018D01*
X24955D01*
Y94153D01*
X25361D01*
Y94288D01*
X36723D01*
Y94153D01*
D02*
G37*
G36*
X125867Y94288D02*
X129249D01*
Y83061D01*
X129114D01*
Y82520D01*
X128978D01*
Y82249D01*
X128843D01*
Y81979D01*
X128708D01*
Y81843D01*
X128572D01*
Y81573D01*
X128437D01*
Y81438D01*
X128167D01*
Y81302D01*
X128031D01*
Y81167D01*
X127896D01*
Y81032D01*
X127626D01*
Y80897D01*
X127355D01*
Y80761D01*
X126949D01*
Y80626D01*
X126408D01*
Y80491D01*
X115722D01*
Y80626D01*
X115181D01*
Y80761D01*
X114775D01*
Y80897D01*
X114504D01*
Y81032D01*
X114234D01*
Y81167D01*
X114098D01*
Y81302D01*
X113963D01*
Y81438D01*
X113828D01*
Y81573D01*
X113693D01*
Y81708D01*
X113557D01*
Y81843D01*
X113422D01*
Y81979D01*
X113287D01*
Y82249D01*
X113152D01*
Y82655D01*
X113016D01*
Y83331D01*
X112881D01*
Y90771D01*
Y90907D01*
Y94288D01*
X113016D01*
Y94424D01*
X113152D01*
Y94288D01*
X116533D01*
Y84819D01*
X116669D01*
Y84414D01*
X116804D01*
Y84278D01*
X116939D01*
Y84008D01*
X117210D01*
Y83873D01*
X117480D01*
Y83737D01*
X124785D01*
Y83873D01*
X125055D01*
Y84008D01*
X125191D01*
Y84143D01*
X125326D01*
Y84278D01*
X125461D01*
Y84549D01*
X125596D01*
Y94288D01*
X125732D01*
Y94424D01*
X125867D01*
Y94288D01*
D02*
G37*
G36*
X131413Y82385D02*
X131684D01*
Y82249D01*
X131954D01*
Y81979D01*
X132089D01*
Y81032D01*
X131954D01*
Y80761D01*
X131819D01*
Y80626D01*
X131548D01*
Y80491D01*
X130737D01*
Y80626D01*
X130466D01*
Y80761D01*
X130331D01*
Y81032D01*
X130196D01*
Y81573D01*
Y81708D01*
Y81979D01*
X130331D01*
Y82114D01*
X130466D01*
Y82249D01*
X130602D01*
Y82385D01*
X130872D01*
Y82520D01*
X131413D01*
Y82385D01*
D02*
G37*
G36*
X108958Y94153D02*
X109364D01*
Y94018D01*
X109634D01*
Y93883D01*
X109770D01*
Y93747D01*
X110040D01*
Y93612D01*
X110176D01*
Y93477D01*
X110311D01*
Y93206D01*
X110446D01*
Y93071D01*
X110581D01*
Y92800D01*
X110717D01*
Y92530D01*
X110852D01*
Y92259D01*
X110987D01*
Y91718D01*
X111122D01*
Y90771D01*
X111258D01*
Y89554D01*
X111122D01*
Y88742D01*
X110987D01*
Y88336D01*
X110852D01*
Y88066D01*
X110717D01*
Y87795D01*
X110581D01*
Y87660D01*
X110446D01*
Y87525D01*
X110311D01*
Y87390D01*
X110176D01*
Y87254D01*
X110040D01*
Y87119D01*
X109905D01*
Y86984D01*
X110040D01*
Y86848D01*
X110176D01*
Y86713D01*
X110311D01*
Y86578D01*
X110446D01*
Y86307D01*
X110581D01*
Y86172D01*
X110717D01*
Y85902D01*
X110852D01*
Y85631D01*
X110987D01*
Y85225D01*
X111122D01*
Y84684D01*
X111258D01*
Y83737D01*
X111393D01*
Y80491D01*
X107741D01*
Y84278D01*
X107605D01*
Y84684D01*
X107470D01*
Y84955D01*
X107335D01*
Y85090D01*
X107200D01*
Y85225D01*
X106794D01*
Y85360D01*
X98813D01*
Y80491D01*
X95160D01*
Y94288D01*
X108958D01*
Y94153D01*
D02*
G37*
G36*
X72976D02*
X73382D01*
Y94018D01*
X73652D01*
Y93883D01*
X73923D01*
Y93747D01*
X74058D01*
Y93612D01*
X74193D01*
Y93477D01*
X74329D01*
Y93342D01*
X74464D01*
Y93206D01*
X74599D01*
Y93071D01*
Y92936D01*
X74735D01*
Y92665D01*
X74870D01*
Y92395D01*
X75005D01*
Y91989D01*
X75140D01*
Y89689D01*
X75005D01*
Y89283D01*
X74870D01*
Y89013D01*
X74735D01*
Y88742D01*
X74599D01*
Y88472D01*
X74464D01*
Y88336D01*
X74329D01*
Y88201D01*
X74193D01*
Y88066D01*
X73923D01*
Y87931D01*
X73788D01*
Y87795D01*
X74058D01*
Y87660D01*
X74193D01*
Y87525D01*
X74329D01*
Y87390D01*
X74464D01*
Y87254D01*
X74599D01*
Y87119D01*
X74735D01*
Y86848D01*
X74870D01*
Y86578D01*
X75005D01*
Y86172D01*
X75140D01*
Y85496D01*
X75276D01*
Y83467D01*
X75140D01*
Y82926D01*
X75005D01*
Y82520D01*
X74870D01*
Y82249D01*
X74735D01*
Y81979D01*
X74599D01*
Y81708D01*
X74464D01*
Y81573D01*
X74329D01*
Y81438D01*
X74193D01*
Y81302D01*
X74058D01*
Y81167D01*
X73923D01*
Y81032D01*
X73788D01*
Y80897D01*
X73652D01*
Y80761D01*
X73382D01*
Y80626D01*
X72976D01*
Y80491D01*
X59178D01*
Y94288D01*
X72976D01*
Y94153D01*
D02*
G37*
%LPC*%
G36*
X315341Y121634D02*
X315116D01*
Y121522D01*
X315341D01*
Y121634D01*
D02*
G37*
G36*
X315116Y121522D02*
X314892D01*
Y121409D01*
X314667D01*
Y121297D01*
X314443D01*
Y121185D01*
X314331D01*
Y121073D01*
X314106D01*
Y120960D01*
X313994D01*
Y120848D01*
X313881D01*
Y120736D01*
X313657D01*
Y120624D01*
X312871D01*
Y120736D01*
X311412D01*
Y120848D01*
X310401D01*
Y120960D01*
X309503D01*
Y121073D01*
X308830D01*
Y121185D01*
X303553D01*
Y121073D01*
X302430D01*
Y120960D01*
X301757D01*
Y120848D01*
X301196D01*
Y120736D01*
X300746D01*
Y120624D01*
X300522D01*
Y120511D01*
X300185D01*
Y120399D01*
X299848D01*
Y120287D01*
X299624D01*
Y120175D01*
X299287D01*
Y120062D01*
X299062D01*
Y119950D01*
X298950D01*
Y119838D01*
X298726D01*
Y119725D01*
X298501D01*
Y119613D01*
X298277D01*
Y119501D01*
X298164D01*
Y119389D01*
X297940D01*
Y119276D01*
X297715D01*
Y119164D01*
X297603D01*
Y119052D01*
X298164D01*
Y119164D01*
X298726D01*
Y119276D01*
X299512D01*
Y119389D01*
X302992D01*
Y119276D01*
X303890D01*
Y119164D01*
X304451D01*
Y119052D01*
X304788D01*
Y118940D01*
X305012D01*
Y118827D01*
X305237D01*
Y118715D01*
X305349D01*
Y118603D01*
X305462D01*
Y118490D01*
X305574D01*
Y118378D01*
X305686D01*
Y118266D01*
X305798D01*
Y118154D01*
X305911D01*
Y118041D01*
X306023D01*
Y117817D01*
X306135D01*
Y117705D01*
X306247D01*
Y117480D01*
X306360D01*
Y117143D01*
X306472D01*
Y116582D01*
X306584D01*
Y115572D01*
X306472D01*
Y115010D01*
X306360D01*
Y114674D01*
X306247D01*
Y114337D01*
X306135D01*
Y114112D01*
X306023D01*
Y114000D01*
X305911D01*
Y113775D01*
X305798D01*
Y113663D01*
X305686D01*
Y113551D01*
X305574D01*
Y113326D01*
X305462D01*
Y113214D01*
X305349D01*
Y113102D01*
X305237D01*
Y112990D01*
X305125D01*
Y112877D01*
X305012D01*
Y112765D01*
X304900D01*
Y112653D01*
X304788D01*
Y112540D01*
X304676D01*
Y112428D01*
X304563D01*
Y112316D01*
X304451D01*
Y112204D01*
X304339D01*
Y112091D01*
X304114D01*
Y111979D01*
X304002D01*
Y111867D01*
X303890D01*
Y111755D01*
X303778D01*
Y111642D01*
X303553D01*
Y111530D01*
X303328D01*
Y111418D01*
X303104D01*
Y111306D01*
X302880D01*
Y111193D01*
X302543D01*
Y111081D01*
X302094D01*
Y110969D01*
X301644D01*
Y110856D01*
X301083D01*
Y110969D01*
X300410D01*
Y111081D01*
X299848D01*
Y111193D01*
X299287D01*
Y111306D01*
X298726D01*
Y111418D01*
X298164D01*
Y111530D01*
X297715D01*
Y111642D01*
X297378D01*
Y111755D01*
X297154D01*
Y111867D01*
X296929D01*
Y111979D01*
X296817D01*
Y112091D01*
X296705D01*
Y112204D01*
X296593D01*
Y112316D01*
X296480D01*
Y112428D01*
X296368D01*
Y112540D01*
X296256D01*
Y112765D01*
X296143D01*
Y112990D01*
X296031D01*
Y113214D01*
X295919D01*
Y113551D01*
X295807D01*
Y113888D01*
X295695D01*
Y114337D01*
X295582D01*
Y115122D01*
X295470D01*
Y116133D01*
X295582D01*
Y116694D01*
X295695D01*
Y117143D01*
X295807D01*
Y117480D01*
X295919D01*
Y117705D01*
X296031D01*
Y117929D01*
X295807D01*
Y117817D01*
X295695D01*
Y117705D01*
X295470D01*
Y117592D01*
X295245D01*
Y117480D01*
X295133D01*
Y117368D01*
X294796D01*
Y117256D01*
X294572D01*
Y117143D01*
X294235D01*
Y117031D01*
X293898D01*
Y116919D01*
X293000D01*
Y116806D01*
X292439D01*
Y116919D01*
X291204D01*
Y117031D01*
X288958D01*
Y116919D01*
X288622D01*
Y116806D01*
X288509D01*
Y116694D01*
X288397D01*
Y116582D01*
X288846D01*
Y116694D01*
X290418D01*
Y116582D01*
X290643D01*
Y116470D01*
X290755D01*
Y116357D01*
X290979D01*
Y116245D01*
X291091D01*
Y116133D01*
X291204D01*
Y116021D01*
X291316D01*
Y115796D01*
X291428D01*
Y115572D01*
X291541D01*
Y115347D01*
X291653D01*
Y115010D01*
X291765D01*
Y114449D01*
X291877D01*
Y113775D01*
X291765D01*
Y113663D01*
X291653D01*
Y113551D01*
X291541D01*
Y113439D01*
X291428D01*
Y113326D01*
X291316D01*
Y113214D01*
X291204D01*
Y113102D01*
X290979D01*
Y112990D01*
X290867D01*
Y112877D01*
X290643D01*
Y112765D01*
X290530D01*
Y112653D01*
X290306D01*
Y112540D01*
X290081D01*
Y112428D01*
X289857D01*
Y112316D01*
X289632D01*
Y112204D01*
X289408D01*
Y112091D01*
X289183D01*
Y111979D01*
X288846D01*
Y111867D01*
X288622D01*
Y111755D01*
X288397D01*
Y111530D01*
X288509D01*
Y111418D01*
X288622D01*
Y111306D01*
X288846D01*
Y111193D01*
X289071D01*
Y111081D01*
X289295D01*
Y110969D01*
X289857D01*
Y110856D01*
X291204D01*
Y110969D01*
X291428D01*
Y112428D01*
X291541D01*
Y112540D01*
X291765D01*
Y112316D01*
X291877D01*
Y111755D01*
X291990D01*
Y111306D01*
X292102D01*
Y110969D01*
X292214D01*
Y110744D01*
X292327D01*
Y110520D01*
X292439D01*
Y110407D01*
X292551D01*
Y110183D01*
X292663D01*
Y110071D01*
X292775D01*
Y109958D01*
X292888D01*
Y109734D01*
X293000D01*
Y109621D01*
X293112D01*
Y109509D01*
X293225D01*
Y109397D01*
X293337D01*
Y109285D01*
X293449D01*
Y109172D01*
X293561D01*
Y108948D01*
X293674D01*
Y108836D01*
X293786D01*
Y108723D01*
X293898D01*
Y108499D01*
X294011D01*
Y108387D01*
X294123D01*
Y108162D01*
X294235D01*
Y108050D01*
X294347D01*
Y107825D01*
X294459D01*
Y107713D01*
X294572D01*
Y107601D01*
X294684D01*
Y107376D01*
X294796D01*
Y107264D01*
X294909D01*
Y107152D01*
X295021D01*
Y107039D01*
X295133D01*
Y106927D01*
X295245D01*
Y106815D01*
X295358D01*
Y106703D01*
X295470D01*
Y106590D01*
X295582D01*
Y106478D01*
X295807D01*
Y106366D01*
X295919D01*
Y106253D01*
X296031D01*
Y106141D01*
X296256D01*
Y106029D01*
X296368D01*
Y105917D01*
X296593D01*
Y105805D01*
X296705D01*
Y105692D01*
X296929D01*
Y105580D01*
X297154D01*
Y105468D01*
X297266D01*
Y105355D01*
X297491D01*
Y105131D01*
X297603D01*
Y104794D01*
X297715D01*
Y104457D01*
X297827D01*
Y104121D01*
X297940D01*
Y103784D01*
X298052D01*
Y103447D01*
X298164D01*
Y103110D01*
X298277D01*
Y102773D01*
X298389D01*
Y102437D01*
X298501D01*
Y102212D01*
X298613D01*
Y101875D01*
X298726D01*
Y101651D01*
X298838D01*
Y101314D01*
X298950D01*
Y101089D01*
X299062D01*
Y100752D01*
X299175D01*
Y100528D01*
X299287D01*
Y100191D01*
X299399D01*
Y99967D01*
X299512D01*
Y99630D01*
X299624D01*
Y99405D01*
X299736D01*
Y99068D01*
X299848D01*
Y98844D01*
X299961D01*
Y98619D01*
X300073D01*
Y98283D01*
X300185D01*
Y98058D01*
X300297D01*
Y97834D01*
X300410D01*
Y97497D01*
X300522D01*
Y97272D01*
X300634D01*
Y96936D01*
X300746D01*
Y96711D01*
X300859D01*
Y96486D01*
X300971D01*
Y96262D01*
X301083D01*
Y96037D01*
X301196D01*
Y95813D01*
X301308D01*
Y95476D01*
X301420D01*
Y95252D01*
X301532D01*
Y95027D01*
X301644D01*
Y94802D01*
X301757D01*
Y94466D01*
X301869D01*
Y94241D01*
X301981D01*
Y94017D01*
X302094D01*
Y93792D01*
X302206D01*
Y93567D01*
X302318D01*
Y93343D01*
X302430D01*
Y93118D01*
X302543D01*
Y92894D01*
X302655D01*
Y92669D01*
X302767D01*
Y92445D01*
X302880D01*
Y92220D01*
X302992D01*
Y91996D01*
X303104D01*
Y91771D01*
X303216D01*
Y91547D01*
X303328D01*
Y91322D01*
X303441D01*
Y91098D01*
X303553D01*
Y90873D01*
X303665D01*
Y90649D01*
X303778D01*
Y90424D01*
X303890D01*
Y90199D01*
X304002D01*
Y89975D01*
X304114D01*
Y89863D01*
X304227D01*
Y89638D01*
X304339D01*
Y89414D01*
X304451D01*
Y89189D01*
X304563D01*
Y88965D01*
X304676D01*
Y88852D01*
X304788D01*
Y88628D01*
X304900D01*
Y88403D01*
X305012D01*
Y88179D01*
X305125D01*
Y88067D01*
X305237D01*
Y87842D01*
X305349D01*
Y87617D01*
X305462D01*
Y87505D01*
X305574D01*
Y87281D01*
X305686D01*
Y87168D01*
X305798D01*
Y86944D01*
X305911D01*
Y86719D01*
X306023D01*
Y86607D01*
X306135D01*
Y86383D01*
X306247D01*
Y86270D01*
X306360D01*
Y86046D01*
X306472D01*
Y85933D01*
X306584D01*
Y85709D01*
X306696D01*
Y85597D01*
X306809D01*
Y85372D01*
X306921D01*
Y85260D01*
X307033D01*
Y85035D01*
X307146D01*
Y84586D01*
X307033D01*
Y84137D01*
X306921D01*
Y83688D01*
X306809D01*
Y83127D01*
X306696D01*
Y82678D01*
X306584D01*
Y82116D01*
X306472D01*
Y81555D01*
X306360D01*
Y80994D01*
X306247D01*
Y80320D01*
X306135D01*
Y79647D01*
X306023D01*
Y78748D01*
X305911D01*
Y77513D01*
X305798D01*
Y74707D01*
X305686D01*
Y73247D01*
X305798D01*
Y73135D01*
X306135D01*
Y73023D01*
X306584D01*
Y72911D01*
X306921D01*
Y72798D01*
X307258D01*
Y72686D01*
X307482D01*
Y72574D01*
X307819D01*
Y72462D01*
X308044D01*
Y72349D01*
X308268D01*
Y72237D01*
X308605D01*
Y72125D01*
X308830D01*
Y72013D01*
X308942D01*
Y71900D01*
X309279D01*
Y71788D01*
X309391D01*
Y71676D01*
X309615D01*
Y71563D01*
X309728D01*
Y71451D01*
X309840D01*
Y71339D01*
X310065D01*
Y71227D01*
X310177D01*
Y71114D01*
X310289D01*
Y71002D01*
X310401D01*
Y70890D01*
X310513D01*
Y70778D01*
X310626D01*
Y70665D01*
X310738D01*
Y70553D01*
X310850D01*
Y70441D01*
X310963D01*
Y70328D01*
X311075D01*
Y70216D01*
X311187D01*
Y70104D01*
X311299D01*
Y69992D01*
X311412D01*
Y69879D01*
X311524D01*
Y69767D01*
X311636D01*
Y69655D01*
X311748D01*
Y69543D01*
X311861D01*
Y69430D01*
X311973D01*
Y69318D01*
X312085D01*
Y69206D01*
X312197D01*
Y69093D01*
X312647D01*
Y69206D01*
X312871D01*
Y69318D01*
X313096D01*
Y69430D01*
X313432D01*
Y69543D01*
X313657D01*
Y69655D01*
X313994D01*
Y69767D01*
X314443D01*
Y69879D01*
X314892D01*
Y69992D01*
X315565D01*
Y70104D01*
X316576D01*
Y70216D01*
X317137D01*
Y70104D01*
X318821D01*
Y69992D01*
X319495D01*
Y69879D01*
X319944D01*
Y69767D01*
X320393D01*
Y69655D01*
X320842D01*
Y69543D01*
X320954D01*
Y69655D01*
X321179D01*
Y69767D01*
X321291D01*
Y69879D01*
X321403D01*
Y69992D01*
X321516D01*
Y70104D01*
X321628D01*
Y70216D01*
X321852D01*
Y70328D01*
X321965D01*
Y70441D01*
X322189D01*
Y70553D01*
X322638D01*
Y70665D01*
X322863D01*
Y70553D01*
X323312D01*
Y70441D01*
X323536D01*
Y70328D01*
X323761D01*
Y70216D01*
X323873D01*
Y70104D01*
X324098D01*
Y69992D01*
X324210D01*
Y69879D01*
X324435D01*
Y69767D01*
X324547D01*
Y69655D01*
X324771D01*
Y69543D01*
X324884D01*
Y69430D01*
X325108D01*
Y69318D01*
X325333D01*
Y69206D01*
X325557D01*
Y69093D01*
X326006D01*
Y68981D01*
X327803D01*
Y69093D01*
X328476D01*
Y69206D01*
X328701D01*
Y69318D01*
X328813D01*
Y69543D01*
X328701D01*
Y69655D01*
X328588D01*
Y69767D01*
X328476D01*
Y69879D01*
X328364D01*
Y69992D01*
X328139D01*
Y70104D01*
X328027D01*
Y70216D01*
X327915D01*
Y70328D01*
X327578D01*
Y70441D01*
X327353D01*
Y70553D01*
X326904D01*
Y70665D01*
X326455D01*
Y70778D01*
X326006D01*
Y70890D01*
X325669D01*
Y71002D01*
X325333D01*
Y71114D01*
X324996D01*
Y71227D01*
X324771D01*
Y71339D01*
X324547D01*
Y71451D01*
X324322D01*
Y71563D01*
X324098D01*
Y71676D01*
X323985D01*
Y71788D01*
X323761D01*
Y71900D01*
X323649D01*
Y72013D01*
X323536D01*
Y72125D01*
X323424D01*
Y72237D01*
X323312D01*
Y72349D01*
X323200D01*
Y72462D01*
X322975D01*
Y72574D01*
X322863D01*
Y72686D01*
X322751D01*
Y72798D01*
X322638D01*
Y72911D01*
X322526D01*
Y73023D01*
X322414D01*
Y73135D01*
X322301D01*
Y73247D01*
X322189D01*
Y73472D01*
X322077D01*
Y73584D01*
X321965D01*
Y73696D01*
X321852D01*
Y73809D01*
X321740D01*
Y73921D01*
X321628D01*
Y74033D01*
X321516D01*
Y74258D01*
X321403D01*
Y74370D01*
X321291D01*
Y74595D01*
X321179D01*
Y74819D01*
X321067D01*
Y75044D01*
X320954D01*
Y75268D01*
X320842D01*
Y75605D01*
X320730D01*
Y75942D01*
X320842D01*
Y75830D01*
X320954D01*
Y75605D01*
X321067D01*
Y75493D01*
X321179D01*
Y75268D01*
X321291D01*
Y75044D01*
X321403D01*
Y74931D01*
X321516D01*
Y74707D01*
X321628D01*
Y74595D01*
X321740D01*
Y74482D01*
X321852D01*
Y74258D01*
X321965D01*
Y74145D01*
X322077D01*
Y74033D01*
X322189D01*
Y73921D01*
X322301D01*
Y73809D01*
X322414D01*
Y73696D01*
X322526D01*
Y73584D01*
X322638D01*
Y73472D01*
X322751D01*
Y73360D01*
X322863D01*
Y73247D01*
X322975D01*
Y73135D01*
X323087D01*
Y73023D01*
X323200D01*
Y72911D01*
X323312D01*
Y72798D01*
X323424D01*
Y72686D01*
X323536D01*
Y72574D01*
X323761D01*
Y72462D01*
X323873D01*
Y72349D01*
X323985D01*
Y72237D01*
X324098D01*
Y72125D01*
X324322D01*
Y72013D01*
X324547D01*
Y71900D01*
X324659D01*
Y71788D01*
X324884D01*
Y71676D01*
X325108D01*
Y71563D01*
X325445D01*
Y71451D01*
X325669D01*
Y71339D01*
X326119D01*
Y71227D01*
X326567D01*
Y71114D01*
X326904D01*
Y71002D01*
X327129D01*
Y70890D01*
X327466D01*
Y70778D01*
X327690D01*
Y70665D01*
X327915D01*
Y70553D01*
X328027D01*
Y70441D01*
X328251D01*
Y70328D01*
X328364D01*
Y70216D01*
X328476D01*
Y70104D01*
X328588D01*
Y69992D01*
X328813D01*
Y69879D01*
X328925D01*
Y69767D01*
X329037D01*
Y69655D01*
X329150D01*
Y69543D01*
X329262D01*
Y69655D01*
X329487D01*
Y69767D01*
X329711D01*
Y69879D01*
X329823D01*
Y69992D01*
X330048D01*
Y70104D01*
X330272D01*
Y70216D01*
X330497D01*
Y70328D01*
X330721D01*
Y70441D01*
X330946D01*
Y70553D01*
X331171D01*
Y70665D01*
X331395D01*
Y70778D01*
X331732D01*
Y70890D01*
X332293D01*
Y71002D01*
X333528D01*
Y70890D01*
X334763D01*
Y70778D01*
X335212D01*
Y70665D01*
X335437D01*
Y70441D01*
X335324D01*
Y70328D01*
X334763D01*
Y70441D01*
X332181D01*
Y70328D01*
X331619D01*
Y70216D01*
X331395D01*
Y70104D01*
X331171D01*
Y69992D01*
X330946D01*
Y69879D01*
X330721D01*
Y69767D01*
X330497D01*
Y69655D01*
X330272D01*
Y69543D01*
X330160D01*
Y69430D01*
X329935D01*
Y69318D01*
X329711D01*
Y69206D01*
X329487D01*
Y69093D01*
X329262D01*
Y68981D01*
X329037D01*
Y68869D01*
X328813D01*
Y68757D01*
X328588D01*
Y68644D01*
X328251D01*
Y68532D01*
X327690D01*
Y68420D01*
X326567D01*
Y68532D01*
X325782D01*
Y68644D01*
X325333D01*
Y68757D01*
X325108D01*
Y68869D01*
X324884D01*
Y68981D01*
X324771D01*
Y69093D01*
X324547D01*
Y69206D01*
X324322D01*
Y69318D01*
X324210D01*
Y69430D01*
X323985D01*
Y69543D01*
X323873D01*
Y69655D01*
X323649D01*
Y69767D01*
X323536D01*
Y69879D01*
X323312D01*
Y69992D01*
X323087D01*
Y70104D01*
X322301D01*
Y69992D01*
X322077D01*
Y69879D01*
X321965D01*
Y69767D01*
X321852D01*
Y69655D01*
X321740D01*
Y69543D01*
X321628D01*
Y69318D01*
X321516D01*
Y68195D01*
X321628D01*
Y67859D01*
X321740D01*
Y67522D01*
X321852D01*
Y67297D01*
X321965D01*
Y66961D01*
X322077D01*
Y66736D01*
X322189D01*
Y66399D01*
X322301D01*
Y66062D01*
X322414D01*
Y65726D01*
X322526D01*
Y65276D01*
X322638D01*
Y64827D01*
X322751D01*
Y63705D01*
X322863D01*
Y63368D01*
X322751D01*
Y62133D01*
X322638D01*
Y61459D01*
X322526D01*
Y60898D01*
X322414D01*
Y60449D01*
X322301D01*
Y59888D01*
X322189D01*
Y59439D01*
X322077D01*
Y58990D01*
X321965D01*
Y58541D01*
X321852D01*
Y58092D01*
X321740D01*
Y57530D01*
X321628D01*
Y56857D01*
X321516D01*
Y55173D01*
X321628D01*
Y54948D01*
X321740D01*
Y54836D01*
X321852D01*
Y54611D01*
X321965D01*
Y54499D01*
X322077D01*
Y54387D01*
X322189D01*
Y54275D01*
X322301D01*
Y54162D01*
X322414D01*
Y54050D01*
X322526D01*
Y53938D01*
X322638D01*
Y53825D01*
X322751D01*
Y53713D01*
X322863D01*
Y53601D01*
X322975D01*
Y53489D01*
X323087D01*
Y53376D01*
X323200D01*
Y53264D01*
X323312D01*
Y53152D01*
X323424D01*
Y53039D01*
X323536D01*
Y52927D01*
X323761D01*
Y52815D01*
X323873D01*
Y52703D01*
X323985D01*
Y52590D01*
X324098D01*
Y52478D01*
X324322D01*
Y52366D01*
X324547D01*
Y52254D01*
X324659D01*
Y52141D01*
X324884D01*
Y52029D01*
X324996D01*
Y51917D01*
X325220D01*
Y51805D01*
X325445D01*
Y51692D01*
X325557D01*
Y51580D01*
X325782D01*
Y51468D01*
X326006D01*
Y51356D01*
X326231D01*
Y51243D01*
X326455D01*
Y51131D01*
X326680D01*
Y51019D01*
X327017D01*
Y50907D01*
X327353D01*
Y50794D01*
X327690D01*
Y50682D01*
X328139D01*
Y50570D01*
X328701D01*
Y50457D01*
X331395D01*
Y50570D01*
X332181D01*
Y50682D01*
X332630D01*
Y50794D01*
X332967D01*
Y50907D01*
X333303D01*
Y51019D01*
X333640D01*
Y51131D01*
X333865D01*
Y51243D01*
X334089D01*
Y51356D01*
X334314D01*
Y51468D01*
X334538D01*
Y51580D01*
X334763D01*
Y51692D01*
X334987D01*
Y51805D01*
X335212D01*
Y51917D01*
X335437D01*
Y52029D01*
X335549D01*
Y52141D01*
X335773D01*
Y52254D01*
X335886D01*
Y52366D01*
X336110D01*
Y52478D01*
X336222D01*
Y52590D01*
X336335D01*
Y52703D01*
X336447D01*
Y52815D01*
X336559D01*
Y52927D01*
X336784D01*
Y53039D01*
X336896D01*
Y53152D01*
X337008D01*
Y53264D01*
X337121D01*
Y53376D01*
X337233D01*
Y53489D01*
X337345D01*
Y53601D01*
X337457D01*
Y53713D01*
X337570D01*
Y53825D01*
X337682D01*
Y53938D01*
X337794D01*
Y54050D01*
X337906D01*
Y54162D01*
X338019D01*
Y54275D01*
X338131D01*
Y54387D01*
X338243D01*
Y54499D01*
X338355D01*
Y54611D01*
X338468D01*
Y54724D01*
X338580D01*
Y54836D01*
X338692D01*
Y54948D01*
X338805D01*
Y55060D01*
X338917D01*
Y55173D01*
X339029D01*
Y55285D01*
X339141D01*
Y55397D01*
X339254D01*
Y55509D01*
X339366D01*
Y55622D01*
X339478D01*
Y55734D01*
X339590D01*
Y55846D01*
X339703D01*
Y55958D01*
X339815D01*
Y56071D01*
X339927D01*
Y56183D01*
X340039D01*
Y56295D01*
X340152D01*
Y56407D01*
X340264D01*
Y56520D01*
X340376D01*
Y56632D01*
X340489D01*
Y56744D01*
X340601D01*
Y56969D01*
X340713D01*
Y57081D01*
X340825D01*
Y57193D01*
X340938D01*
Y57418D01*
X341050D01*
Y57755D01*
X341162D01*
Y58092D01*
X341274D01*
Y58428D01*
X341387D01*
Y58653D01*
X341499D01*
Y58765D01*
X341611D01*
Y58990D01*
X341723D01*
Y59102D01*
X341836D01*
Y59214D01*
X341948D01*
Y59439D01*
X342060D01*
Y59551D01*
X342173D01*
Y59663D01*
X342285D01*
Y59776D01*
X342397D01*
Y59888D01*
X342509D01*
Y60000D01*
X342622D01*
Y60112D01*
X342734D01*
Y60224D01*
X342846D01*
Y60337D01*
X342958D01*
Y60449D01*
X343183D01*
Y60561D01*
X343295D01*
Y60674D01*
X343407D01*
Y60786D01*
X343520D01*
Y60898D01*
X343744D01*
Y61010D01*
X343857D01*
Y61123D01*
X343969D01*
Y61235D01*
X344081D01*
Y61347D01*
X344306D01*
Y61459D01*
X344418D01*
Y61572D01*
X344530D01*
Y61684D01*
X344642D01*
Y61796D01*
X344755D01*
Y61908D01*
X344867D01*
Y62470D01*
X344979D01*
Y65613D01*
X344867D01*
Y65838D01*
X344755D01*
Y66175D01*
X344642D01*
Y66399D01*
X344530D01*
Y66624D01*
X344418D01*
Y66848D01*
X344306D01*
Y67073D01*
X344193D01*
Y67297D01*
X344081D01*
Y67522D01*
X343969D01*
Y67746D01*
X343857D01*
Y67971D01*
X343744D01*
Y68083D01*
X343632D01*
Y68308D01*
X343520D01*
Y68420D01*
X343407D01*
Y68644D01*
X343295D01*
Y68757D01*
X343183D01*
Y68869D01*
X343071D01*
Y69093D01*
X342958D01*
Y69206D01*
X342846D01*
Y69318D01*
X342734D01*
Y69430D01*
X342622D01*
Y69543D01*
X342509D01*
Y69655D01*
X342397D01*
Y69767D01*
X342285D01*
Y69879D01*
X342173D01*
Y70104D01*
X342060D01*
Y70216D01*
X341948D01*
Y70328D01*
X341836D01*
Y70441D01*
X341723D01*
Y70553D01*
X341611D01*
Y70665D01*
X341499D01*
Y70778D01*
X341387D01*
Y70890D01*
X341274D01*
Y71002D01*
X341162D01*
Y71114D01*
X341050D01*
Y71227D01*
X340938D01*
Y71339D01*
X340825D01*
Y71451D01*
X340713D01*
Y71563D01*
X340601D01*
Y71676D01*
X340489D01*
Y71788D01*
X340376D01*
Y71900D01*
X340264D01*
Y72013D01*
X340152D01*
Y72125D01*
X340039D01*
Y72237D01*
X339927D01*
Y72349D01*
X339815D01*
Y72462D01*
X339703D01*
Y72574D01*
X339590D01*
Y72686D01*
X339478D01*
Y72798D01*
X339366D01*
Y72911D01*
X339254D01*
Y73023D01*
X339141D01*
Y73135D01*
X339029D01*
Y73247D01*
X338917D01*
Y73360D01*
X338805D01*
Y73472D01*
X338692D01*
Y73584D01*
X338580D01*
Y73696D01*
X338468D01*
Y73809D01*
X338355D01*
Y73921D01*
X338243D01*
Y74033D01*
X338131D01*
Y74145D01*
X338019D01*
Y74258D01*
X337906D01*
Y74370D01*
X337794D01*
Y74482D01*
X337682D01*
Y74595D01*
X337570D01*
Y74707D01*
X337457D01*
Y74819D01*
X337345D01*
Y74931D01*
X337233D01*
Y75044D01*
X337121D01*
Y75156D01*
X337008D01*
Y75268D01*
X336896D01*
Y75380D01*
X336784D01*
Y75493D01*
X336671D01*
Y75605D01*
X336559D01*
Y75717D01*
X336447D01*
Y75830D01*
X336222D01*
Y75942D01*
X336110D01*
Y76054D01*
X335998D01*
Y76166D01*
X335886D01*
Y76279D01*
X335773D01*
Y76391D01*
X335661D01*
Y76503D01*
X335549D01*
Y76615D01*
X335437D01*
Y76728D01*
X335324D01*
Y76840D01*
X335212D01*
Y76952D01*
X335100D01*
Y77064D01*
X334987D01*
Y77177D01*
X334875D01*
Y77289D01*
X334763D01*
Y77401D01*
X334651D01*
Y77513D01*
X334538D01*
Y77626D01*
X334426D01*
Y77738D01*
X334314D01*
Y77850D01*
X334202D01*
Y77963D01*
X334089D01*
Y78075D01*
X333977D01*
Y78187D01*
X333865D01*
Y78299D01*
X333640D01*
Y78412D01*
X333528D01*
Y78524D01*
X333416D01*
Y78636D01*
X333303D01*
Y78748D01*
X333191D01*
Y78861D01*
X333079D01*
Y78973D01*
X332967D01*
Y79085D01*
X332854D01*
Y79198D01*
X332742D01*
Y79310D01*
X332630D01*
Y79422D01*
X332518D01*
Y79534D01*
X332405D01*
Y79647D01*
X332293D01*
Y79759D01*
X332181D01*
Y79871D01*
X332069D01*
Y79983D01*
X331956D01*
Y80096D01*
X331844D01*
Y80208D01*
X331732D01*
Y80320D01*
X331619D01*
Y80432D01*
X331507D01*
Y80545D01*
X331395D01*
Y80657D01*
X331283D01*
Y80769D01*
X331171D01*
Y80881D01*
X331058D01*
Y80994D01*
X330946D01*
Y81106D01*
X330834D01*
Y81218D01*
X330721D01*
Y81330D01*
X330609D01*
Y81555D01*
X330497D01*
Y81667D01*
X330385D01*
Y81780D01*
X330272D01*
Y81892D01*
X330160D01*
Y82004D01*
X330048D01*
Y82116D01*
X329935D01*
Y82229D01*
X329823D01*
Y82341D01*
X329711D01*
Y82453D01*
X329599D01*
Y82565D01*
X329487D01*
Y82678D01*
X329374D01*
Y82902D01*
X329262D01*
Y83014D01*
X329150D01*
Y83127D01*
X329037D01*
Y83239D01*
X328925D01*
Y83464D01*
X328813D01*
Y83576D01*
X328701D01*
Y83688D01*
X328588D01*
Y83913D01*
X328476D01*
Y84025D01*
X328364D01*
Y84137D01*
X328251D01*
Y84362D01*
X328139D01*
Y84474D01*
X328027D01*
Y84586D01*
X327915D01*
Y84811D01*
X327803D01*
Y84923D01*
X327690D01*
Y85035D01*
X327578D01*
Y85260D01*
X327466D01*
Y85372D01*
X327353D01*
Y85484D01*
X327241D01*
Y85709D01*
X327129D01*
Y85821D01*
X327017D01*
Y85933D01*
X326904D01*
Y86046D01*
X326792D01*
Y86158D01*
X326680D01*
Y86270D01*
X326567D01*
Y86495D01*
X326455D01*
Y86607D01*
X326231D01*
Y86719D01*
X326119D01*
Y86832D01*
X326006D01*
Y86944D01*
X325894D01*
Y87056D01*
X325782D01*
Y87168D01*
X325669D01*
Y87281D01*
X325445D01*
Y87393D01*
X325333D01*
Y87505D01*
X325108D01*
Y87617D01*
X324996D01*
Y87730D01*
X324771D01*
Y87842D01*
X324659D01*
Y87954D01*
X324435D01*
Y88067D01*
X324210D01*
Y88179D01*
X323985D01*
Y88291D01*
X323873D01*
Y88403D01*
X323649D01*
Y88516D01*
X323424D01*
Y88628D01*
X323200D01*
Y88740D01*
X322975D01*
Y88852D01*
X322751D01*
Y88965D01*
X322526D01*
Y89077D01*
X322301D01*
Y89189D01*
X322189D01*
Y89301D01*
X321965D01*
Y89414D01*
X321740D01*
Y89526D01*
X321516D01*
Y89638D01*
X321291D01*
Y89750D01*
X321067D01*
Y89863D01*
X320842D01*
Y89975D01*
X320617D01*
Y90087D01*
X320393D01*
Y90199D01*
X320281D01*
Y90312D01*
X320056D01*
Y90424D01*
X319832D01*
Y90536D01*
X319607D01*
Y90649D01*
X319382D01*
Y90761D01*
X319270D01*
Y90873D01*
X319046D01*
Y90985D01*
X318821D01*
Y91098D01*
X318709D01*
Y91210D01*
X318484D01*
Y91322D01*
X318372D01*
Y91434D01*
X318260D01*
Y91547D01*
X318035D01*
Y91659D01*
X317923D01*
Y91771D01*
X317811D01*
Y91883D01*
X317699D01*
Y91996D01*
X317474D01*
Y92108D01*
X317362D01*
Y92220D01*
X317250D01*
Y92333D01*
X317137D01*
Y92445D01*
X317025D01*
Y92557D01*
X316913D01*
Y92669D01*
X316800D01*
Y92782D01*
X316688D01*
Y92894D01*
X316576D01*
Y93006D01*
X316464D01*
Y93231D01*
X316351D01*
Y93343D01*
X316239D01*
Y93455D01*
X316127D01*
Y93680D01*
X316015D01*
Y93792D01*
X315902D01*
Y94017D01*
X315790D01*
Y94353D01*
X315678D01*
Y94578D01*
X315565D01*
Y94915D01*
X315453D01*
Y95252D01*
X315341D01*
Y95476D01*
X315229D01*
Y95925D01*
X315116D01*
Y96374D01*
X315004D01*
Y96936D01*
X314892D01*
Y97721D01*
X314780D01*
Y98732D01*
X314667D01*
Y100752D01*
X314555D01*
Y105580D01*
X314667D01*
Y107601D01*
X314780D01*
Y108948D01*
X314892D01*
Y109958D01*
X315004D01*
Y110744D01*
X315116D01*
Y111530D01*
X315229D01*
Y112091D01*
X315341D01*
Y112653D01*
X315453D01*
Y113102D01*
X315565D01*
Y113551D01*
X315678D01*
Y114000D01*
X315790D01*
Y114337D01*
X315902D01*
Y114674D01*
X316015D01*
Y114898D01*
X316127D01*
Y115235D01*
X316239D01*
Y115459D01*
X316351D01*
Y115684D01*
X316464D01*
Y115908D01*
X316576D01*
Y116133D01*
X316688D01*
Y116245D01*
X316800D01*
Y116357D01*
X316913D01*
Y116582D01*
X317025D01*
Y116694D01*
X317137D01*
Y116919D01*
X317250D01*
Y117031D01*
X317362D01*
Y117143D01*
X317474D01*
Y117368D01*
X317586D01*
Y117480D01*
X317699D01*
Y117705D01*
X317811D01*
Y117817D01*
X317923D01*
Y118041D01*
X318035D01*
Y118154D01*
X318148D01*
Y118378D01*
X318260D01*
Y118603D01*
X318372D01*
Y118827D01*
X317811D01*
Y118715D01*
X317362D01*
Y118603D01*
X316688D01*
Y118490D01*
X315453D01*
Y118603D01*
X314892D01*
Y118715D01*
X314555D01*
Y118827D01*
X314331D01*
Y118940D01*
X314218D01*
Y119950D01*
X314331D01*
Y120399D01*
X314443D01*
Y120736D01*
X314555D01*
Y120960D01*
X314667D01*
Y121073D01*
X314780D01*
Y121185D01*
X314892D01*
Y121297D01*
X315004D01*
Y121409D01*
X315116D01*
Y121522D01*
D02*
G37*
G36*
X317362D02*
X316688D01*
Y121409D01*
X316127D01*
Y121297D01*
X315790D01*
Y121185D01*
X315565D01*
Y121073D01*
X315341D01*
Y120960D01*
X315229D01*
Y120848D01*
X315116D01*
Y120736D01*
X315004D01*
Y120511D01*
X314892D01*
Y120287D01*
X314780D01*
Y119276D01*
X314892D01*
Y119164D01*
X315116D01*
Y119052D01*
X315453D01*
Y119276D01*
X315565D01*
Y119389D01*
Y119950D01*
X315678D01*
Y120062D01*
X315790D01*
Y120175D01*
X315902D01*
Y120287D01*
X316127D01*
Y120399D01*
X317137D01*
Y120287D01*
X317362D01*
Y120175D01*
X317474D01*
Y120062D01*
X317586D01*
Y119725D01*
X317699D01*
Y119389D01*
X318148D01*
Y119501D01*
X318372D01*
Y119613D01*
X318484D01*
Y120062D01*
X318372D01*
Y120399D01*
X318260D01*
Y120624D01*
X318148D01*
Y120736D01*
X318035D01*
Y120960D01*
X317923D01*
Y121073D01*
X317811D01*
Y121185D01*
X317699D01*
Y121297D01*
X317586D01*
Y121409D01*
X317362D01*
Y121522D01*
D02*
G37*
G36*
X317025Y119950D02*
X316239D01*
Y119838D01*
X316015D01*
Y119725D01*
X315902D01*
Y119501D01*
X315790D01*
Y119164D01*
X315678D01*
Y119052D01*
X315902D01*
Y119389D01*
X316015D01*
Y119501D01*
X316127D01*
Y119613D01*
X316239D01*
Y119725D01*
X316351D01*
Y119838D01*
X316576D01*
Y119725D01*
X316800D01*
Y119613D01*
X316913D01*
Y119501D01*
X317025D01*
Y119389D01*
X317137D01*
Y119276D01*
X317250D01*
Y119164D01*
X317362D01*
Y119501D01*
X317250D01*
Y119725D01*
X317137D01*
Y119838D01*
X317025D01*
Y119950D01*
D02*
G37*
G36*
X316688Y119164D02*
X316239D01*
Y119052D01*
Y118940D01*
X316576D01*
Y119052D01*
X316688D01*
Y119164D01*
D02*
G37*
G36*
X290306Y116133D02*
X288622D01*
Y116021D01*
X288285D01*
Y115908D01*
X288060D01*
Y115796D01*
X287948D01*
Y115684D01*
X287836D01*
Y115572D01*
X287724D01*
Y115347D01*
X287611D01*
Y112877D01*
X287724D01*
Y112428D01*
X287836D01*
Y112204D01*
X288285D01*
Y112316D01*
X288734D01*
Y112428D01*
X289071D01*
Y112540D01*
X289183D01*
Y112990D01*
X289071D01*
Y113102D01*
X288958D01*
Y113551D01*
X288846D01*
Y113888D01*
X288958D01*
Y114337D01*
X289071D01*
Y114449D01*
X289183D01*
Y114561D01*
X289295D01*
Y114674D01*
X289408D01*
Y114786D01*
X289744D01*
Y114898D01*
X290867D01*
Y114786D01*
X291091D01*
Y114674D01*
X291204D01*
Y114561D01*
X291316D01*
Y114898D01*
X291204D01*
Y115122D01*
X291091D01*
Y115347D01*
X290979D01*
Y115572D01*
X290867D01*
Y115684D01*
X290755D01*
Y115796D01*
X290643D01*
Y115908D01*
X290530D01*
Y116021D01*
X290306D01*
Y116133D01*
D02*
G37*
G36*
X290755Y114449D02*
X289744D01*
Y114337D01*
X289520D01*
Y114224D01*
X289408D01*
Y114000D01*
X289295D01*
Y113214D01*
X289408D01*
Y112990D01*
X289520D01*
Y112877D01*
X289744D01*
Y113102D01*
X289632D01*
Y113775D01*
X289744D01*
Y113888D01*
X289857D01*
Y114000D01*
X289969D01*
Y114112D01*
X290193D01*
Y114224D01*
X290643D01*
Y114112D01*
X290755D01*
Y114000D01*
X290979D01*
Y113888D01*
X291091D01*
Y114112D01*
X290979D01*
Y114224D01*
X290867D01*
Y114337D01*
X290755D01*
Y114449D01*
D02*
G37*
G36*
X290643Y113663D02*
X290193D01*
Y113551D01*
X290081D01*
Y113326D01*
X289969D01*
Y113214D01*
X290081D01*
Y113102D01*
X290418D01*
Y113214D01*
X290530D01*
Y113326D01*
X290643D01*
Y113439D01*
X290755D01*
Y113551D01*
X290643D01*
Y113663D01*
D02*
G37*
G36*
X304339Y118715D02*
X298501D01*
Y118603D01*
X297940D01*
Y118490D01*
X297715D01*
Y118378D01*
X297378D01*
Y118266D01*
X297154D01*
Y118154D01*
X297042D01*
Y118041D01*
X296929D01*
Y117929D01*
X296817D01*
Y117817D01*
X296705D01*
Y117705D01*
X296593D01*
Y117592D01*
X296480D01*
Y117480D01*
X296368D01*
Y117256D01*
X296256D01*
Y117143D01*
Y116919D01*
X296143D01*
Y116357D01*
X296031D01*
Y115122D01*
X296143D01*
Y114000D01*
X296256D01*
Y113663D01*
X296368D01*
Y113439D01*
X296480D01*
Y113214D01*
X296593D01*
Y112990D01*
X296705D01*
Y112765D01*
X296817D01*
Y112653D01*
X296929D01*
Y112540D01*
X297042D01*
Y112428D01*
X297154D01*
Y112316D01*
X297378D01*
Y112204D01*
X297603D01*
Y112091D01*
X297940D01*
Y111979D01*
X298277D01*
Y111867D01*
X298838D01*
Y111755D01*
X299512D01*
Y111642D01*
X300073D01*
Y111530D01*
X300746D01*
Y111418D01*
X301869D01*
Y111530D01*
X302318D01*
Y111642D01*
X302655D01*
Y111755D01*
X302880D01*
Y111867D01*
X303104D01*
Y111979D01*
X303328D01*
Y112091D01*
X303441D01*
Y112204D01*
X303553D01*
Y112316D01*
X303778D01*
Y112428D01*
X303890D01*
Y112540D01*
X304002D01*
Y112653D01*
X304114D01*
Y112765D01*
X304339D01*
Y112877D01*
X304451D01*
Y112990D01*
X304563D01*
Y113102D01*
X304676D01*
Y113214D01*
X304788D01*
Y113326D01*
X304900D01*
Y113439D01*
X305012D01*
Y113663D01*
X305125D01*
Y113775D01*
X305237D01*
Y113888D01*
X305349D01*
Y114000D01*
X305462D01*
Y114224D01*
X305574D01*
Y114337D01*
X305686D01*
Y114561D01*
X305798D01*
Y114786D01*
X305911D01*
Y115235D01*
X306023D01*
Y116806D01*
X305911D01*
Y117256D01*
X305798D01*
Y117480D01*
X305686D01*
Y117705D01*
X305574D01*
Y117817D01*
X305462D01*
Y117929D01*
X305349D01*
Y118041D01*
X305237D01*
Y118154D01*
X305125D01*
Y118266D01*
X305012D01*
Y118378D01*
X304788D01*
Y118490D01*
X304676D01*
Y118603D01*
X304339D01*
Y118715D01*
D02*
G37*
G36*
X305798Y72686D02*
X305349D01*
Y72574D01*
X305012D01*
Y72462D01*
X304788D01*
Y72349D01*
X304563D01*
Y72237D01*
X304451D01*
Y72125D01*
X304227D01*
Y72013D01*
X304114D01*
Y71900D01*
X303890D01*
Y71788D01*
X303778D01*
Y71676D01*
X303665D01*
Y71563D01*
X303553D01*
Y71451D01*
X303441D01*
Y71339D01*
X303216D01*
Y71227D01*
X303104D01*
Y71114D01*
X302992D01*
Y71002D01*
X302880D01*
Y70890D01*
X302767D01*
Y70778D01*
X302655D01*
Y70665D01*
X302543D01*
Y70553D01*
X302430D01*
Y70441D01*
X302318D01*
Y70328D01*
X302206D01*
Y70104D01*
X302094D01*
Y69992D01*
X301981D01*
Y69879D01*
X301869D01*
Y69767D01*
X301757D01*
Y69655D01*
X301644D01*
Y69543D01*
X301532D01*
Y69318D01*
X301420D01*
Y69206D01*
X301308D01*
Y69093D01*
X301196D01*
Y68869D01*
X301083D01*
Y68757D01*
X300971D01*
Y68532D01*
X300859D01*
Y68308D01*
X300746D01*
Y68195D01*
X300634D01*
Y67971D01*
X300522D01*
Y67746D01*
X300410D01*
Y67410D01*
X300297D01*
Y67185D01*
X300185D01*
Y66961D01*
X300073D01*
Y66736D01*
X299961D01*
Y66399D01*
X299848D01*
Y66062D01*
X299736D01*
Y65838D01*
X299848D01*
Y65950D01*
X299961D01*
Y66175D01*
X300073D01*
Y66287D01*
X300185D01*
Y66399D01*
X300297D01*
Y66624D01*
X300410D01*
Y66736D01*
X300522D01*
Y66848D01*
X300634D01*
Y66961D01*
X300746D01*
Y67073D01*
X300859D01*
Y67185D01*
X300971D01*
Y67297D01*
X301083D01*
Y67522D01*
X301196D01*
Y67634D01*
X301308D01*
Y67746D01*
X301420D01*
Y67859D01*
X301532D01*
Y67971D01*
X301644D01*
Y68083D01*
X301757D01*
Y68195D01*
X301869D01*
Y68308D01*
X301981D01*
Y68420D01*
X302094D01*
Y68532D01*
X302206D01*
Y68644D01*
X302318D01*
Y68757D01*
X302430D01*
Y68869D01*
X302543D01*
Y68981D01*
X302655D01*
Y69093D01*
X302767D01*
Y69206D01*
X302880D01*
Y68981D01*
X302767D01*
Y68757D01*
X302655D01*
Y68644D01*
X302543D01*
Y68532D01*
X302430D01*
Y68308D01*
X302318D01*
Y68195D01*
X302206D01*
Y68083D01*
X302094D01*
Y67971D01*
X301981D01*
Y67859D01*
X301869D01*
Y67634D01*
X301757D01*
Y67522D01*
X301644D01*
Y67410D01*
X301532D01*
Y67297D01*
X301420D01*
Y67185D01*
X301308D01*
Y66961D01*
X301196D01*
Y66848D01*
X301083D01*
Y66736D01*
X300971D01*
Y66624D01*
X300859D01*
Y66511D01*
X300746D01*
Y66287D01*
X300634D01*
Y66175D01*
X300522D01*
Y65950D01*
X300410D01*
Y65838D01*
X300297D01*
Y65613D01*
X300185D01*
Y65276D01*
X300073D01*
Y64827D01*
X299961D01*
Y61123D01*
X300073D01*
Y60337D01*
X300185D01*
Y59776D01*
X300297D01*
Y59326D01*
X300410D01*
Y58877D01*
X300522D01*
Y58541D01*
X300634D01*
Y58092D01*
X300746D01*
Y57867D01*
X300634D01*
Y57979D01*
X300522D01*
Y58204D01*
X300410D01*
Y58428D01*
X300297D01*
Y58653D01*
X300185D01*
Y58990D01*
X300073D01*
Y59214D01*
X299961D01*
Y59663D01*
X299848D01*
Y60000D01*
X299736D01*
Y60449D01*
X299624D01*
Y61010D01*
X299512D01*
Y61796D01*
X299399D01*
Y63031D01*
X299287D01*
Y59439D01*
X299399D01*
Y58428D01*
X299512D01*
Y57867D01*
X299624D01*
Y57418D01*
X299736D01*
Y56969D01*
X299848D01*
Y56632D01*
X299961D01*
Y56407D01*
X300073D01*
Y56071D01*
X300185D01*
Y55846D01*
X300297D01*
Y55622D01*
X300410D01*
Y55509D01*
X300522D01*
Y55285D01*
X300634D01*
Y55060D01*
X300746D01*
Y54836D01*
X300859D01*
Y54724D01*
X300971D01*
Y54499D01*
X301083D01*
Y54387D01*
X301196D01*
Y54275D01*
X301308D01*
Y54162D01*
X301420D01*
Y54050D01*
X301532D01*
Y53938D01*
X301644D01*
Y53825D01*
X301757D01*
Y53713D01*
X301869D01*
Y53601D01*
X301981D01*
Y53489D01*
X302094D01*
Y53376D01*
X302206D01*
Y53264D01*
X302430D01*
Y53152D01*
X302543D01*
Y53039D01*
X302655D01*
Y52927D01*
X302880D01*
Y52815D01*
X302992D01*
Y52703D01*
X303216D01*
Y52590D01*
X303441D01*
Y52478D01*
X303778D01*
Y52366D01*
X304114D01*
Y52254D01*
X304563D01*
Y52141D01*
X305237D01*
Y52029D01*
X306247D01*
Y51917D01*
X307033D01*
Y52141D01*
X307146D01*
Y52927D01*
X307033D01*
Y53152D01*
X306921D01*
Y53489D01*
X306809D01*
Y53825D01*
X306696D01*
Y54275D01*
X306809D01*
Y54611D01*
X306921D01*
Y54724D01*
X307033D01*
Y54836D01*
X307146D01*
Y54948D01*
X307258D01*
Y55060D01*
X307482D01*
Y55173D01*
X307595D01*
Y55285D01*
X307707D01*
Y55397D01*
X307931D01*
Y55509D01*
X308044D01*
Y55622D01*
X308268D01*
Y55734D01*
X308493D01*
Y55846D01*
X308605D01*
Y55958D01*
X308830D01*
Y56071D01*
X308942D01*
Y56183D01*
X309166D01*
Y56295D01*
X309391D01*
Y56407D01*
X309503D01*
Y56520D01*
X309728D01*
Y56632D01*
X309840D01*
Y56744D01*
X309952D01*
Y56857D01*
X310177D01*
Y56969D01*
X310289D01*
Y57081D01*
X310401D01*
Y57193D01*
X310513D01*
Y57306D01*
X310738D01*
Y57418D01*
X310850D01*
Y57530D01*
X310963D01*
Y57642D01*
X311075D01*
Y57755D01*
X311187D01*
Y58092D01*
X309840D01*
Y57979D01*
X308942D01*
Y57867D01*
X308381D01*
Y57755D01*
X308044D01*
Y57642D01*
X307595D01*
Y57530D01*
X307146D01*
Y57418D01*
X306584D01*
Y57306D01*
X304676D01*
Y57418D01*
X304227D01*
Y57530D01*
X303890D01*
Y57642D01*
X303553D01*
Y57755D01*
X303216D01*
Y57867D01*
X302880D01*
Y57979D01*
X302655D01*
Y58092D01*
X302430D01*
Y58204D01*
X302206D01*
Y58316D01*
X302094D01*
Y58428D01*
X301869D01*
Y58541D01*
X301757D01*
Y58653D01*
X301644D01*
Y58877D01*
X301532D01*
Y58990D01*
X301420D01*
Y59214D01*
X301308D01*
Y59439D01*
X301196D01*
Y59663D01*
X301083D01*
Y59888D01*
Y60000D01*
Y61235D01*
X301196D01*
Y61684D01*
X301308D01*
Y62021D01*
X301420D01*
Y62582D01*
X301308D01*
Y63031D01*
X301196D01*
Y64715D01*
X301308D01*
Y65164D01*
X301420D01*
Y65501D01*
X301532D01*
Y65838D01*
X301644D01*
Y66062D01*
X301757D01*
Y66287D01*
X301869D01*
Y66511D01*
X301981D01*
Y66736D01*
X302094D01*
Y66961D01*
X302206D01*
Y67185D01*
X302318D01*
Y67410D01*
X302430D01*
Y67634D01*
X302543D01*
Y67859D01*
X302655D01*
Y68083D01*
X302767D01*
Y68308D01*
X302880D01*
Y68532D01*
X302992D01*
Y68757D01*
X303104D01*
Y68981D01*
X303216D01*
Y69206D01*
X303328D01*
Y69318D01*
X303441D01*
Y69543D01*
X303553D01*
Y69767D01*
X303665D01*
Y69879D01*
X303778D01*
Y70104D01*
X303890D01*
Y70216D01*
X304002D01*
Y70328D01*
X304114D01*
Y70441D01*
X304227D01*
Y70553D01*
X304339D01*
Y70665D01*
X304451D01*
Y70778D01*
X304563D01*
Y70890D01*
X304676D01*
Y71002D01*
X304788D01*
Y71114D01*
X304900D01*
Y71227D01*
X305125D01*
Y71339D01*
X305237D01*
Y71451D01*
X305462D01*
Y71563D01*
X305798D01*
Y71676D01*
X306696D01*
Y71563D01*
X306921D01*
Y71451D01*
X307146D01*
Y71339D01*
X307258D01*
Y71227D01*
X307370D01*
Y71114D01*
X307482D01*
Y71002D01*
X307595D01*
Y70890D01*
X307707D01*
Y70778D01*
X307819D01*
Y70665D01*
X307931D01*
Y70553D01*
X308044D01*
Y70441D01*
X308156D01*
Y70328D01*
X308268D01*
Y70104D01*
X308381D01*
Y69992D01*
X308493D01*
Y69767D01*
X308605D01*
Y69655D01*
X308717D01*
Y69430D01*
X308830D01*
Y69206D01*
X308942D01*
Y69093D01*
X309054D01*
Y68869D01*
X309166D01*
Y68644D01*
X309279D01*
Y68420D01*
X309391D01*
Y68308D01*
X309503D01*
Y68083D01*
X309615D01*
Y67859D01*
X309728D01*
Y67634D01*
X309840D01*
Y67410D01*
X309952D01*
Y67297D01*
X310065D01*
Y67185D01*
X310177D01*
Y67297D01*
X310401D01*
Y67410D01*
X310513D01*
Y67522D01*
X310626D01*
Y67634D01*
X310738D01*
Y67746D01*
X310850D01*
Y67859D01*
X310963D01*
Y67971D01*
X311075D01*
Y68083D01*
X311187D01*
Y68195D01*
X311299D01*
Y68308D01*
X311412D01*
Y68420D01*
X311524D01*
Y68532D01*
X311748D01*
Y68644D01*
X311861D01*
Y68869D01*
X311748D01*
Y68981D01*
X311636D01*
Y69093D01*
X311524D01*
Y69206D01*
X311412D01*
Y69318D01*
X311299D01*
Y69430D01*
X311187D01*
Y69543D01*
X311075D01*
Y69655D01*
X310963D01*
Y69767D01*
X310850D01*
Y69879D01*
X310738D01*
Y69992D01*
X310626D01*
Y70104D01*
X310513D01*
Y70216D01*
X310401D01*
Y70328D01*
X310289D01*
Y70441D01*
X310177D01*
Y70553D01*
X310065D01*
Y70665D01*
X309952D01*
Y70778D01*
X309728D01*
Y70890D01*
X309615D01*
Y71002D01*
X309503D01*
Y71114D01*
X309391D01*
Y71227D01*
X309166D01*
Y71339D01*
X309054D01*
Y71451D01*
X308830D01*
Y71563D01*
X308605D01*
Y71676D01*
X308381D01*
Y71788D01*
X308156D01*
Y71900D01*
X307819D01*
Y72013D01*
X307595D01*
Y72125D01*
X307370D01*
Y72237D01*
X307033D01*
Y72349D01*
X306696D01*
Y72462D01*
X306360D01*
Y72574D01*
X305798D01*
Y72686D01*
D02*
G37*
G36*
X318260Y69543D02*
X315004D01*
Y69430D01*
X314555D01*
Y69318D01*
X314218D01*
Y69206D01*
X313881D01*
Y69093D01*
X313657D01*
Y68981D01*
X313432D01*
Y68869D01*
X313208D01*
Y68757D01*
X312983D01*
Y68644D01*
X312759D01*
Y68532D01*
X312534D01*
Y68420D01*
X312422D01*
Y68308D01*
X312197D01*
Y68195D01*
X312085D01*
Y68083D01*
X311973D01*
Y67971D01*
X311748D01*
Y67859D01*
X311636D01*
Y67746D01*
X311524D01*
Y67634D01*
X311412D01*
Y67522D01*
X311299D01*
Y67410D01*
X311075D01*
Y67297D01*
X310963D01*
Y67185D01*
X310850D01*
Y66961D01*
X310738D01*
Y66848D01*
X310626D01*
Y66736D01*
X310513D01*
Y66624D01*
X310401D01*
Y66399D01*
X310289D01*
Y66287D01*
X310177D01*
Y66062D01*
X310065D01*
Y65950D01*
X309952D01*
Y65726D01*
X309840D01*
Y65501D01*
X309728D01*
Y65276D01*
X309615D01*
Y65052D01*
X309503D01*
Y64827D01*
X309391D01*
Y64603D01*
X309279D01*
Y64491D01*
X309391D01*
Y64378D01*
X309728D01*
Y64491D01*
X310289D01*
Y64603D01*
X310738D01*
Y64715D01*
X311187D01*
Y64827D01*
X311524D01*
Y64940D01*
X311973D01*
Y65052D01*
X312534D01*
Y65164D01*
X313208D01*
Y65276D01*
X314667D01*
Y65389D01*
X317923D01*
Y65501D01*
X320168D01*
Y65613D01*
X321740D01*
Y65726D01*
X321965D01*
Y65950D01*
X321852D01*
Y66062D01*
X321740D01*
Y66175D01*
X321403D01*
Y66287D01*
X321067D01*
Y66399D01*
X320393D01*
Y66511D01*
X319607D01*
Y66624D01*
X318484D01*
Y66736D01*
X315678D01*
Y66624D01*
X314892D01*
Y66511D01*
X314443D01*
Y66399D01*
X313994D01*
Y66287D01*
X313657D01*
Y66175D01*
X313320D01*
Y66062D01*
X313096D01*
Y65950D01*
X312759D01*
Y65838D01*
X312534D01*
Y65726D01*
X312310D01*
Y65613D01*
X312197D01*
Y65501D01*
X311973D01*
Y65389D01*
X311748D01*
Y65501D01*
X311861D01*
Y65613D01*
X311973D01*
Y65726D01*
X312085D01*
Y65838D01*
X312197D01*
Y65950D01*
X312422D01*
Y66062D01*
X312647D01*
Y66175D01*
X312759D01*
Y66287D01*
X312983D01*
Y66399D01*
X313208D01*
Y66511D01*
X313432D01*
Y66624D01*
X313657D01*
Y66736D01*
X313881D01*
Y66848D01*
X314218D01*
Y66961D01*
X314555D01*
Y67073D01*
X315004D01*
Y67185D01*
X318934D01*
Y67073D01*
X319607D01*
Y66961D01*
X320056D01*
Y66848D01*
X320393D01*
Y66736D01*
X320842D01*
Y66624D01*
X321291D01*
Y66511D01*
X321628D01*
Y66736D01*
X321516D01*
Y67073D01*
X321403D01*
Y67297D01*
X321291D01*
Y67634D01*
X321179D01*
Y67971D01*
X321067D01*
Y68420D01*
X320954D01*
Y68981D01*
X320842D01*
Y69093D01*
X320730D01*
Y69206D01*
X320281D01*
Y69318D01*
X319832D01*
Y69430D01*
X318260D01*
Y69543D01*
D02*
G37*
G36*
X306696Y71114D02*
X305798D01*
Y71002D01*
X305462D01*
Y70890D01*
X305349D01*
Y70778D01*
X305125D01*
Y70665D01*
X305012D01*
Y70553D01*
X304900D01*
Y70441D01*
X304788D01*
Y70328D01*
X304676D01*
Y70216D01*
X304563D01*
Y70104D01*
X304451D01*
Y69992D01*
X304339D01*
Y69767D01*
X304227D01*
Y69655D01*
X304114D01*
Y69430D01*
X304002D01*
Y69318D01*
X303890D01*
Y69093D01*
X303778D01*
Y68869D01*
X303665D01*
Y68757D01*
X303553D01*
Y68420D01*
X303441D01*
Y68195D01*
X303778D01*
Y68083D01*
X304227D01*
Y67971D01*
X304676D01*
Y67859D01*
X305012D01*
Y67746D01*
X305462D01*
Y67634D01*
X305798D01*
Y67522D01*
X306135D01*
Y67410D01*
X306472D01*
Y67297D01*
X306696D01*
Y67185D01*
X306921D01*
Y67073D01*
X307146D01*
Y66961D01*
X307370D01*
Y66848D01*
X307482D01*
Y66736D01*
X307707D01*
Y66624D01*
X307819D01*
Y66511D01*
X308044D01*
Y66399D01*
X308156D01*
Y66287D01*
X308268D01*
Y66175D01*
X308493D01*
Y66062D01*
X308605D01*
Y65950D01*
X308830D01*
Y65838D01*
X308942D01*
Y65726D01*
X309279D01*
Y65838D01*
X309391D01*
Y66062D01*
X309503D01*
Y66287D01*
X309615D01*
Y66848D01*
X309503D01*
Y67073D01*
X309391D01*
Y67297D01*
X309279D01*
Y67522D01*
X309166D01*
Y67746D01*
X309054D01*
Y67859D01*
Y67971D01*
X308942D01*
Y68195D01*
X308830D01*
Y68420D01*
X308717D01*
Y68644D01*
X308605D01*
Y68757D01*
X308493D01*
Y68981D01*
X308381D01*
Y69206D01*
X308268D01*
Y69318D01*
X308156D01*
Y69543D01*
X308044D01*
Y69655D01*
X307931D01*
Y69879D01*
X307819D01*
Y69992D01*
X307707D01*
Y70216D01*
X307595D01*
Y70328D01*
X307482D01*
Y70441D01*
X307370D01*
Y70553D01*
X307258D01*
Y70665D01*
X307146D01*
Y70778D01*
X307033D01*
Y70890D01*
X306921D01*
Y71002D01*
X306696D01*
Y71114D01*
D02*
G37*
G36*
X315902Y64940D02*
X314555D01*
Y64827D01*
X313657D01*
Y64715D01*
X312871D01*
Y64603D01*
X312310D01*
Y64491D01*
X311861D01*
Y64378D01*
X311299D01*
Y64266D01*
X311187D01*
Y63929D01*
X311299D01*
Y63817D01*
X311412D01*
Y63705D01*
X311524D01*
Y63593D01*
X311636D01*
Y63480D01*
X311748D01*
Y63368D01*
X311861D01*
Y63256D01*
X311973D01*
Y63144D01*
X312085D01*
Y63031D01*
X312197D01*
Y62919D01*
X312310D01*
Y62694D01*
X312422D01*
Y62582D01*
X312534D01*
Y62470D01*
X312647D01*
Y62358D01*
X312983D01*
Y62470D01*
X313096D01*
Y62582D01*
X313208D01*
Y62694D01*
X313320D01*
Y62807D01*
X313432D01*
Y62919D01*
X313545D01*
Y63031D01*
X313657D01*
Y63144D01*
X313769D01*
Y63256D01*
X313881D01*
Y63368D01*
X313994D01*
Y63480D01*
X314106D01*
Y63593D01*
X314331D01*
Y63705D01*
X314443D01*
Y63817D01*
X314555D01*
Y63929D01*
X314667D01*
Y64042D01*
X314892D01*
Y64154D01*
X315004D01*
Y64266D01*
X315116D01*
Y64378D01*
X315341D01*
Y64491D01*
X315565D01*
Y64603D01*
X315678D01*
Y64715D01*
X315902D01*
Y64940D01*
D02*
G37*
G36*
X303778Y67634D02*
X303216D01*
Y67522D01*
X303104D01*
Y67410D01*
X302992D01*
Y67297D01*
X302880D01*
Y67073D01*
X302767D01*
Y66961D01*
X302655D01*
Y66736D01*
X302543D01*
Y66511D01*
X302430D01*
Y66287D01*
X302318D01*
Y66062D01*
X302206D01*
Y65838D01*
X302094D01*
Y65501D01*
X301981D01*
Y65276D01*
X301869D01*
Y64940D01*
X301757D01*
Y64491D01*
X301644D01*
Y63368D01*
X301757D01*
Y62919D01*
X301869D01*
Y62807D01*
X302430D01*
Y62919D01*
X302767D01*
Y63031D01*
X303216D01*
Y63144D01*
X303665D01*
Y63256D01*
X306023D01*
Y63144D01*
X306472D01*
Y63031D01*
X306809D01*
Y62919D01*
X307146D01*
Y62807D01*
X307370D01*
Y62694D01*
X307707D01*
Y62582D01*
X307931D01*
Y62470D01*
X308268D01*
Y62358D01*
X308717D01*
Y62245D01*
X309840D01*
Y62133D01*
X310401D01*
Y62021D01*
X310850D01*
Y61908D01*
X311299D01*
Y61796D01*
X311636D01*
Y61684D01*
X311973D01*
Y61572D01*
X312534D01*
Y61684D01*
X312422D01*
Y61908D01*
X312310D01*
Y62021D01*
X312197D01*
Y62245D01*
X312085D01*
Y62358D01*
X311973D01*
Y62470D01*
X311861D01*
Y62582D01*
X311748D01*
Y62807D01*
X311636D01*
Y62919D01*
X311524D01*
Y63031D01*
X311412D01*
Y63144D01*
X311299D01*
Y63256D01*
X311187D01*
Y63368D01*
X311075D01*
Y63480D01*
X310963D01*
Y63593D01*
X310850D01*
Y63705D01*
X310626D01*
Y63817D01*
X310513D01*
Y63929D01*
X309840D01*
Y63817D01*
X309391D01*
Y63705D01*
X308942D01*
Y63593D01*
X308493D01*
Y63705D01*
Y63929D01*
X308605D01*
Y64266D01*
X308717D01*
Y64603D01*
X308830D01*
Y64940D01*
X308942D01*
Y65164D01*
X308830D01*
Y65276D01*
X308605D01*
Y65389D01*
X308493D01*
Y65501D01*
X308381D01*
Y65613D01*
X308268D01*
Y65726D01*
X308044D01*
Y65838D01*
X307931D01*
Y65950D01*
X307819D01*
Y66062D01*
X307595D01*
Y66175D01*
X307482D01*
Y66287D01*
X307258D01*
Y66399D01*
X307033D01*
Y66511D01*
X306921D01*
Y66624D01*
X306696D01*
Y66736D01*
X306360D01*
Y66848D01*
X306135D01*
Y66961D01*
X305911D01*
Y67073D01*
X305574D01*
Y67185D01*
X305125D01*
Y67297D01*
X304788D01*
Y67410D01*
X304339D01*
Y67522D01*
X303778D01*
Y67634D01*
D02*
G37*
G36*
X321740Y65052D02*
X318709D01*
Y64940D01*
X318035D01*
Y64827D01*
X317586D01*
Y64715D01*
X317137D01*
Y64603D01*
X316800D01*
Y64491D01*
X316464D01*
Y64378D01*
X316239D01*
Y64266D01*
X316015D01*
Y64154D01*
X315790D01*
Y64042D01*
X315565D01*
Y63929D01*
X315341D01*
Y63817D01*
X315229D01*
Y63705D01*
X315004D01*
Y63593D01*
X314892D01*
Y63480D01*
X314780D01*
Y63368D01*
X314555D01*
Y63256D01*
X314443D01*
Y63144D01*
X314331D01*
Y63031D01*
X314218D01*
Y62919D01*
X314106D01*
Y62807D01*
X313994D01*
Y62694D01*
X313881D01*
Y62470D01*
X313769D01*
Y62358D01*
X313657D01*
Y62245D01*
X313545D01*
Y62133D01*
Y62021D01*
X313432D01*
Y61908D01*
X313320D01*
Y61684D01*
X313208D01*
Y61572D01*
X313096D01*
Y61347D01*
X312983D01*
Y61010D01*
X312871D01*
Y60674D01*
X312759D01*
Y60224D01*
X312647D01*
Y59326D01*
X312534D01*
Y57306D01*
X312647D01*
Y57418D01*
X312871D01*
Y57530D01*
X313096D01*
Y57642D01*
X313208D01*
Y57755D01*
X313432D01*
Y57867D01*
X313545D01*
Y57979D01*
X313769D01*
Y58092D01*
X313881D01*
Y58204D01*
X314106D01*
Y58316D01*
X314218D01*
Y58428D01*
X314443D01*
Y58541D01*
X314667D01*
Y58653D01*
X314892D01*
Y58765D01*
X315116D01*
Y58877D01*
X315341D01*
Y58990D01*
X315453D01*
Y59102D01*
X315678D01*
Y59214D01*
X315902D01*
Y59326D01*
X316127D01*
Y59439D01*
X316351D01*
Y59551D01*
X316688D01*
Y59663D01*
X316913D01*
Y59776D01*
X317137D01*
Y59888D01*
X317362D01*
Y60000D01*
X317699D01*
Y60112D01*
X317923D01*
Y60224D01*
X318372D01*
Y60337D01*
X318934D01*
Y60449D01*
X319719D01*
Y60561D01*
X320617D01*
Y60449D01*
X321291D01*
Y60337D01*
X321852D01*
Y60561D01*
X321965D01*
Y60898D01*
X322077D01*
Y61572D01*
X322189D01*
Y63144D01*
X322301D01*
Y64154D01*
X322189D01*
Y64940D01*
X321740D01*
Y65052D01*
D02*
G37*
G36*
X305798Y62807D02*
X304002D01*
Y62694D01*
X303328D01*
Y62582D01*
X302992D01*
Y62470D01*
X302655D01*
Y62358D01*
X302318D01*
Y62245D01*
X302206D01*
Y62133D01*
X302094D01*
Y62021D01*
X301981D01*
Y61908D01*
X301869D01*
Y61684D01*
X301757D01*
Y61347D01*
X301644D01*
Y60786D01*
X301532D01*
Y59888D01*
X301644D01*
Y59551D01*
X301757D01*
Y59326D01*
X301869D01*
Y59214D01*
X301981D01*
Y59102D01*
X302094D01*
Y58990D01*
X302206D01*
Y58877D01*
X302318D01*
Y58765D01*
X302430D01*
Y58653D01*
X302655D01*
Y58541D01*
X302767D01*
Y58428D01*
X303104D01*
Y58316D01*
X303328D01*
Y58204D01*
X303778D01*
Y58092D01*
X304227D01*
Y57979D01*
X304451D01*
Y58092D01*
X304563D01*
Y58204D01*
X304676D01*
Y58316D01*
X304788D01*
Y58428D01*
X304900D01*
Y58541D01*
X305125D01*
Y58653D01*
X305237D01*
Y58765D01*
X305349D01*
Y58877D01*
X305574D01*
Y58990D01*
X305798D01*
Y59102D01*
X306135D01*
Y59214D01*
X307258D01*
Y59102D01*
X307707D01*
Y58990D01*
X308156D01*
Y58877D01*
X308493D01*
Y58765D01*
X308830D01*
Y58653D01*
X309166D01*
Y58541D01*
X310177D01*
Y58653D01*
X310513D01*
Y58765D01*
X310626D01*
Y58877D01*
X310513D01*
Y59102D01*
X310401D01*
Y59326D01*
X310289D01*
Y59439D01*
X310177D01*
Y59663D01*
X310065D01*
Y59776D01*
X309952D01*
Y59888D01*
X309840D01*
Y60112D01*
X309728D01*
Y60224D01*
X309615D01*
Y60337D01*
X309503D01*
Y60449D01*
X309391D01*
Y60561D01*
X309279D01*
Y60674D01*
X309166D01*
Y60786D01*
X309054D01*
Y60898D01*
X308942D01*
Y61010D01*
X308830D01*
Y61123D01*
X308717D01*
Y61235D01*
X308605D01*
Y61347D01*
X308493D01*
Y61459D01*
X308381D01*
Y61572D01*
X308268D01*
Y61684D01*
X308044D01*
Y61796D01*
X307931D01*
Y61908D01*
X307707D01*
Y62021D01*
X307595D01*
Y62133D01*
X307370D01*
Y62245D01*
X307146D01*
Y62358D01*
X306921D01*
Y62470D01*
X306584D01*
Y62582D01*
X306247D01*
Y62694D01*
X305798D01*
Y62807D01*
D02*
G37*
G36*
X307707Y58653D02*
X306023D01*
Y58541D01*
X305798D01*
Y58428D01*
X305574D01*
Y58316D01*
X305349D01*
Y58204D01*
X305237D01*
Y58092D01*
X305125D01*
Y57867D01*
X305012D01*
Y57755D01*
X306247D01*
Y57867D01*
X306696D01*
Y57979D01*
X307258D01*
Y58092D01*
X307707D01*
Y58204D01*
X307931D01*
Y58316D01*
X308044D01*
Y58428D01*
X307931D01*
Y58541D01*
X307707D01*
Y58653D01*
D02*
G37*
G36*
X320954Y60000D02*
X319046D01*
Y59888D01*
X318484D01*
Y59776D01*
X318148D01*
Y59663D01*
X317811D01*
Y59551D01*
X317474D01*
Y59439D01*
X317250D01*
Y59326D01*
X316913D01*
Y59214D01*
X316688D01*
Y59102D01*
X316464D01*
Y58990D01*
X316239D01*
Y58877D01*
X316015D01*
Y58765D01*
X315902D01*
Y58653D01*
X315790D01*
Y58541D01*
X315678D01*
Y58428D01*
X315565D01*
Y58316D01*
X315453D01*
Y58204D01*
X315341D01*
Y57867D01*
X315229D01*
Y57642D01*
X315116D01*
Y57193D01*
X315004D01*
Y56520D01*
X315116D01*
Y56183D01*
X315229D01*
Y55958D01*
X315341D01*
Y55734D01*
X315453D01*
Y55622D01*
X315565D01*
Y55509D01*
X315678D01*
Y55397D01*
X315902D01*
Y55509D01*
X316127D01*
Y55622D01*
X316239D01*
Y55734D01*
X316351D01*
Y55846D01*
X316576D01*
Y55958D01*
X316688D01*
Y56071D01*
X317025D01*
Y56183D01*
X317474D01*
Y56295D01*
X320954D01*
Y56969D01*
X319944D01*
Y57081D01*
X318260D01*
Y56969D01*
X317250D01*
Y56857D01*
X316800D01*
Y56744D01*
X316351D01*
Y56632D01*
X316015D01*
Y56520D01*
X315790D01*
Y56632D01*
X315902D01*
Y56744D01*
X316015D01*
Y56857D01*
X316127D01*
Y56969D01*
X316351D01*
Y57081D01*
X316464D01*
Y57193D01*
X316800D01*
Y57306D01*
X317137D01*
Y57418D01*
X317699D01*
Y57530D01*
X319382D01*
Y57418D01*
X320168D01*
Y57306D01*
X321067D01*
Y57530D01*
X321179D01*
Y57867D01*
X321291D01*
Y58316D01*
X321403D01*
Y58541D01*
Y58653D01*
Y58877D01*
X321516D01*
Y59776D01*
X321403D01*
Y59888D01*
X320954D01*
Y60000D01*
D02*
G37*
G36*
X344306Y42150D02*
X344193D01*
Y42038D01*
X344081D01*
Y41925D01*
X343969D01*
Y41813D01*
X343857D01*
Y41701D01*
X343632D01*
Y41588D01*
X343520D01*
Y41476D01*
X343407D01*
Y41364D01*
X343295D01*
Y41252D01*
X343071D01*
Y41139D01*
X342958D01*
Y41027D01*
X342846D01*
Y40915D01*
X342622D01*
Y40803D01*
X342509D01*
Y40690D01*
X342397D01*
Y40578D01*
X342285D01*
Y40466D01*
X342060D01*
Y40353D01*
X341948D01*
Y40241D01*
X341836D01*
Y39904D01*
X341723D01*
Y39006D01*
X341611D01*
Y36761D01*
X341499D01*
Y35414D01*
X341387D01*
Y34403D01*
X341274D01*
Y33842D01*
X341387D01*
Y33730D01*
X341499D01*
Y33617D01*
X341611D01*
Y33505D01*
X341836D01*
Y33393D01*
X341948D01*
Y33281D01*
X342060D01*
Y33168D01*
X342285D01*
Y33056D01*
X342397D01*
Y32944D01*
X342622D01*
Y32832D01*
X342846D01*
Y32719D01*
X342958D01*
Y32607D01*
X343183D01*
Y32495D01*
X343407D01*
Y32383D01*
X343632D01*
Y32270D01*
X343857D01*
Y32158D01*
X344193D01*
Y32046D01*
X344418D01*
Y31934D01*
X344642D01*
Y31821D01*
X344979D01*
Y31709D01*
X345204D01*
Y31597D01*
X345541D01*
Y31484D01*
X345989D01*
Y31372D01*
X346439D01*
Y31260D01*
X347000D01*
Y31148D01*
X348235D01*
Y31035D01*
X351266D01*
Y31148D01*
X351715D01*
Y31260D01*
X352164D01*
Y31372D01*
X352613D01*
Y31484D01*
X352950D01*
Y31597D01*
X353287D01*
Y31709D01*
X353736D01*
Y31821D01*
X354185D01*
Y31934D01*
X354522D01*
Y32046D01*
X354859D01*
Y32158D01*
X355308D01*
Y32270D01*
X355532D01*
Y32383D01*
X355869D01*
Y32495D01*
X356093D01*
Y32607D01*
X356318D01*
Y32719D01*
X356543D01*
Y32832D01*
X356655D01*
Y32944D01*
X356767D01*
Y33056D01*
X356992D01*
Y33168D01*
X357104D01*
Y33281D01*
X357216D01*
Y33393D01*
X357328D01*
Y33505D01*
X357441D01*
Y33617D01*
X357553D01*
Y33730D01*
X357665D01*
Y33842D01*
X357777D01*
Y34067D01*
X357890D01*
Y34179D01*
X358002D01*
Y34403D01*
X358114D01*
Y34628D01*
X358227D01*
Y35526D01*
X358114D01*
Y35638D01*
X358002D01*
Y35751D01*
X357777D01*
Y35863D01*
X356767D01*
Y35975D01*
X354971D01*
Y36087D01*
X352838D01*
Y36200D01*
X351491D01*
Y36312D01*
X350929D01*
Y36424D01*
X350592D01*
Y36537D01*
X350368D01*
Y36649D01*
X350031D01*
Y36761D01*
X349807D01*
Y36873D01*
X349582D01*
Y36985D01*
X349357D01*
Y37098D01*
X349133D01*
Y37210D01*
X349021D01*
Y37322D01*
X348796D01*
Y37435D01*
X348684D01*
Y37547D01*
X348459D01*
Y37659D01*
X348347D01*
Y37771D01*
X348235D01*
Y37884D01*
X348123D01*
Y37996D01*
X348010D01*
Y38108D01*
X347898D01*
Y38220D01*
X347786D01*
Y38333D01*
X347673D01*
Y38445D01*
X347561D01*
Y38557D01*
X347449D01*
Y38670D01*
X347225D01*
Y38782D01*
Y38894D01*
X347112D01*
Y39006D01*
X347000D01*
Y39119D01*
X346888D01*
Y39231D01*
X346775D01*
Y39343D01*
X346663D01*
Y39455D01*
X346551D01*
Y39568D01*
X346439D01*
Y39680D01*
X346326D01*
Y39792D01*
X346214D01*
Y39904D01*
X346102D01*
Y40017D01*
X345989D01*
Y40129D01*
X345877D01*
Y40241D01*
X345765D01*
Y40353D01*
X345653D01*
Y40466D01*
X345541D01*
Y40578D01*
X345428D01*
Y40690D01*
X345316D01*
Y40915D01*
X345204D01*
Y41027D01*
X345091D01*
Y41139D01*
X344979D01*
Y41252D01*
X344867D01*
Y41364D01*
X344755D01*
Y41588D01*
X344642D01*
Y41701D01*
X344530D01*
Y41925D01*
X344418D01*
Y42038D01*
X344306D01*
Y42150D01*
D02*
G37*
G36*
X326455Y37435D02*
X324884D01*
Y37322D01*
X324322D01*
Y37210D01*
X323536D01*
Y37098D01*
X323087D01*
Y36985D01*
X322975D01*
Y36761D01*
X323087D01*
Y36537D01*
X323200D01*
Y36424D01*
X323312D01*
Y36312D01*
X323424D01*
Y36200D01*
X323536D01*
Y35975D01*
X323649D01*
Y35863D01*
X323761D01*
Y35751D01*
X323873D01*
Y35638D01*
X323985D01*
Y35526D01*
X324098D01*
Y35301D01*
X324210D01*
Y35189D01*
X324322D01*
Y35077D01*
X324435D01*
Y34965D01*
X324547D01*
Y34852D01*
X324659D01*
Y34740D01*
X324771D01*
Y34628D01*
X324884D01*
Y34403D01*
X324996D01*
Y34291D01*
X325108D01*
Y34179D01*
X325220D01*
Y33954D01*
X325333D01*
Y33842D01*
X325445D01*
Y33730D01*
X325557D01*
Y33505D01*
X325669D01*
Y33168D01*
X325782D01*
Y32607D01*
X325894D01*
Y31484D01*
X326006D01*
Y30474D01*
X326119D01*
Y30586D01*
X326231D01*
Y30811D01*
X326343D01*
Y31035D01*
X326455D01*
Y31372D01*
X326567D01*
Y31597D01*
X326680D01*
Y31821D01*
X326792D01*
Y32158D01*
X326904D01*
Y32719D01*
X327017D01*
Y35077D01*
Y35189D01*
Y36649D01*
X326904D01*
Y37210D01*
X326792D01*
Y37322D01*
X326455D01*
Y37435D01*
D02*
G37*
G36*
X310289Y61684D02*
X309166D01*
Y61572D01*
X309279D01*
Y61459D01*
X309391D01*
Y61347D01*
X309503D01*
Y61123D01*
X309615D01*
Y61010D01*
X309728D01*
Y60898D01*
X309840D01*
Y60786D01*
X309952D01*
Y60561D01*
X310065D01*
Y60449D01*
X310177D01*
Y60337D01*
X310289D01*
Y60112D01*
X310401D01*
Y60000D01*
X310513D01*
Y59776D01*
X310626D01*
Y59663D01*
X310738D01*
Y59439D01*
X310850D01*
Y59326D01*
X310963D01*
Y59214D01*
X311075D01*
Y58990D01*
X311187D01*
Y58877D01*
X311299D01*
Y58653D01*
X311412D01*
Y58428D01*
X311524D01*
Y58316D01*
X311636D01*
Y58092D01*
X311748D01*
Y57755D01*
X311636D01*
Y57642D01*
X311524D01*
Y57530D01*
X311412D01*
Y57306D01*
X311299D01*
Y57193D01*
X311187D01*
Y57081D01*
X311075D01*
Y56969D01*
X310963D01*
Y56857D01*
X310738D01*
Y56744D01*
X310626D01*
Y56632D01*
X310513D01*
Y56520D01*
X310401D01*
Y56407D01*
X310177D01*
Y56295D01*
X310065D01*
Y56183D01*
X309840D01*
Y56071D01*
X309728D01*
Y55958D01*
X309503D01*
Y55846D01*
X309391D01*
Y55734D01*
X309166D01*
Y55622D01*
X309054D01*
Y55509D01*
X308830D01*
Y55397D01*
X308717D01*
Y55285D01*
X308493D01*
Y55173D01*
X308268D01*
Y55060D01*
X308156D01*
Y54948D01*
X307931D01*
Y54836D01*
X307819D01*
Y54724D01*
X307707D01*
Y54611D01*
X307595D01*
Y54499D01*
X307482D01*
Y54387D01*
X307370D01*
Y54275D01*
X307258D01*
Y53713D01*
X307370D01*
Y53489D01*
X307482D01*
Y53152D01*
X307595D01*
Y52815D01*
X307707D01*
Y52366D01*
X307595D01*
Y51917D01*
X307482D01*
Y51692D01*
X307370D01*
Y51468D01*
X307258D01*
Y51131D01*
X307146D01*
Y50907D01*
X307033D01*
Y50682D01*
X306921D01*
Y50345D01*
X306809D01*
Y50008D01*
X306696D01*
Y49672D01*
X306584D01*
Y49335D01*
X306472D01*
Y48998D01*
X306360D01*
Y48549D01*
X306247D01*
Y48212D01*
X306135D01*
Y47651D01*
X306023D01*
Y47202D01*
X305911D01*
Y46640D01*
X305798D01*
Y45855D01*
X305686D01*
Y44620D01*
X305574D01*
Y40241D01*
X305686D01*
Y39343D01*
X305798D01*
Y38670D01*
X305911D01*
Y38220D01*
X306023D01*
Y37659D01*
X306135D01*
Y37322D01*
X306247D01*
Y36985D01*
X306360D01*
Y36649D01*
X306472D01*
Y36312D01*
X306584D01*
Y35975D01*
X306696D01*
Y35751D01*
X306809D01*
Y35414D01*
X306921D01*
Y35189D01*
X307033D01*
Y34852D01*
X307146D01*
Y34628D01*
X307258D01*
Y34403D01*
X307370D01*
Y34179D01*
X307482D01*
Y33954D01*
X307595D01*
Y33730D01*
X307707D01*
Y33505D01*
X307819D01*
Y33281D01*
X307931D01*
Y32944D01*
X308044D01*
Y32719D01*
X308156D01*
Y32495D01*
X308268D01*
Y32158D01*
X308156D01*
Y32046D01*
X307819D01*
Y31934D01*
X307482D01*
Y31821D01*
X307258D01*
Y31709D01*
X307033D01*
Y31597D01*
X306809D01*
Y31484D01*
X306584D01*
Y31372D01*
X306472D01*
Y31260D01*
X306360D01*
Y31148D01*
X306247D01*
Y30923D01*
X306472D01*
Y30811D01*
X306809D01*
Y30699D01*
X307370D01*
Y30586D01*
X307819D01*
Y30474D01*
X308268D01*
Y30362D01*
X308830D01*
Y30250D01*
X309279D01*
Y30137D01*
X309728D01*
Y30025D01*
X310177D01*
Y29913D01*
X310626D01*
Y29801D01*
X310963D01*
Y29688D01*
X311187D01*
Y29576D01*
X311524D01*
Y29464D01*
X311748D01*
Y29351D01*
X311973D01*
Y29239D01*
X312197D01*
Y29127D01*
X312422D01*
Y29015D01*
X312534D01*
Y28902D01*
X312759D01*
Y28790D01*
X312871D01*
Y28678D01*
X313096D01*
Y28566D01*
X313208D01*
Y28453D01*
X313320D01*
Y28341D01*
X313545D01*
Y28229D01*
X313657D01*
Y28117D01*
X313769D01*
Y28004D01*
X313881D01*
Y27892D01*
X313994D01*
Y27780D01*
X314106D01*
Y27668D01*
X314218D01*
Y27555D01*
X314331D01*
Y27443D01*
X314555D01*
Y27331D01*
X314667D01*
Y27218D01*
X314780D01*
Y27106D01*
X314892D01*
Y26994D01*
X315004D01*
Y26882D01*
X315116D01*
Y26769D01*
X315341D01*
Y26657D01*
X315453D01*
Y26545D01*
X315565D01*
Y26432D01*
X315790D01*
Y26320D01*
X315902D01*
Y26208D01*
X316127D01*
Y26096D01*
X316351D01*
Y25984D01*
X316576D01*
Y25871D01*
X316688D01*
Y25759D01*
X316913D01*
Y25647D01*
X317137D01*
Y25534D01*
X317362D01*
Y25422D01*
X317586D01*
Y25310D01*
X317811D01*
Y25198D01*
X318035D01*
Y25085D01*
X318260D01*
Y24973D01*
X318372D01*
Y24861D01*
X318597D01*
Y24636D01*
X318035D01*
Y24748D01*
X317699D01*
Y24861D01*
X317474D01*
Y24973D01*
X317137D01*
Y25085D01*
X316913D01*
Y25198D01*
X316688D01*
Y25310D01*
X316464D01*
Y25422D01*
X316239D01*
Y25534D01*
X316015D01*
Y25647D01*
X315678D01*
Y24861D01*
X315565D01*
Y24412D01*
X315453D01*
Y24187D01*
X315341D01*
Y23850D01*
X315229D01*
Y23738D01*
X315341D01*
Y23626D01*
X316015D01*
Y23514D01*
X318035D01*
Y23626D01*
X318484D01*
Y23738D01*
X318709D01*
Y23850D01*
X318821D01*
Y23963D01*
X318934D01*
Y24075D01*
X319046D01*
Y24187D01*
X319158D01*
Y24412D01*
X319270D01*
Y24524D01*
X319382D01*
Y24748D01*
X319495D01*
Y24861D01*
X319607D01*
Y25085D01*
X319719D01*
Y25310D01*
X319832D01*
Y25422D01*
X319944D01*
Y25534D01*
X320056D01*
Y25759D01*
X320168D01*
Y25871D01*
X320281D01*
Y25984D01*
X320393D01*
Y26096D01*
X320505D01*
Y26208D01*
X320617D01*
Y26320D01*
X320730D01*
Y26432D01*
X320842D01*
Y26545D01*
X320954D01*
Y26657D01*
X321179D01*
Y26769D01*
X321291D01*
Y26882D01*
X321516D01*
Y26994D01*
X321628D01*
Y27106D01*
X321852D01*
Y27218D01*
X322077D01*
Y27331D01*
X322301D01*
Y27443D01*
X322526D01*
Y27555D01*
X322863D01*
Y27668D01*
X323200D01*
Y27780D01*
X323424D01*
Y27892D01*
X323649D01*
Y28004D01*
X323761D01*
Y28117D01*
X323873D01*
Y28229D01*
X324098D01*
Y28341D01*
X324210D01*
Y28453D01*
X324322D01*
Y28566D01*
X324435D01*
Y28678D01*
X324547D01*
Y28790D01*
X324659D01*
Y28902D01*
X324771D01*
Y29015D01*
X324884D01*
Y29127D01*
X324996D01*
Y29239D01*
X325108D01*
Y29351D01*
X325220D01*
Y29464D01*
X325333D01*
Y29576D01*
X325445D01*
Y31597D01*
X325333D01*
Y32719D01*
X325220D01*
Y33168D01*
X325108D01*
Y33393D01*
X324996D01*
Y33617D01*
X324884D01*
Y33730D01*
X324771D01*
Y33954D01*
X324659D01*
Y34067D01*
X324547D01*
Y34179D01*
X324435D01*
Y34403D01*
X324322D01*
Y34516D01*
X324210D01*
Y34628D01*
X324098D01*
Y34740D01*
X323985D01*
Y34852D01*
X323873D01*
Y34965D01*
X323761D01*
Y35077D01*
X323649D01*
Y35301D01*
X323536D01*
Y35414D01*
X323424D01*
Y35526D01*
X323312D01*
Y35638D01*
X323200D01*
Y35751D01*
X323087D01*
Y35975D01*
X322975D01*
Y36087D01*
X322863D01*
Y36200D01*
X322751D01*
Y36312D01*
X322638D01*
Y36537D01*
X322526D01*
Y36649D01*
X322414D01*
Y36873D01*
X319158D01*
Y36985D01*
X318821D01*
Y37098D01*
X318484D01*
Y37210D01*
X318148D01*
Y37322D01*
X317811D01*
Y37435D01*
X317586D01*
Y37547D01*
X317250D01*
Y37659D01*
X316913D01*
Y37771D01*
X316688D01*
Y37884D01*
X316351D01*
Y37996D01*
X316127D01*
Y38108D01*
X315902D01*
Y38220D01*
X315678D01*
Y38333D01*
X315453D01*
Y38445D01*
X315229D01*
Y38557D01*
X315116D01*
Y38670D01*
X314892D01*
Y38782D01*
X314667D01*
Y38894D01*
X314555D01*
Y39006D01*
X314443D01*
Y39119D01*
X314218D01*
Y39231D01*
X314106D01*
Y39343D01*
X313994D01*
Y39455D01*
X313881D01*
Y39568D01*
X313657D01*
Y39680D01*
X313545D01*
Y39792D01*
X313432D01*
Y39904D01*
X313320D01*
Y40017D01*
X313096D01*
Y40129D01*
X312983D01*
Y40241D01*
X312871D01*
Y40353D01*
X312759D01*
Y40466D01*
X312647D01*
Y40578D01*
X312534D01*
Y40690D01*
X312422D01*
Y40803D01*
X312310D01*
Y40915D01*
X312197D01*
Y41027D01*
X312085D01*
Y41139D01*
X311973D01*
Y41252D01*
X311861D01*
Y41364D01*
X311748D01*
Y41476D01*
X311636D01*
Y41588D01*
X311524D01*
Y41813D01*
X311412D01*
Y41925D01*
X311299D01*
Y42038D01*
X311187D01*
Y42262D01*
X311075D01*
Y42374D01*
X310963D01*
Y42599D01*
X310850D01*
Y42711D01*
X310738D01*
Y42823D01*
X310626D01*
Y43048D01*
X310513D01*
Y43272D01*
X310401D01*
Y43385D01*
X310289D01*
Y43609D01*
X310177D01*
Y43834D01*
X310065D01*
Y43946D01*
X309952D01*
Y44170D01*
X309840D01*
Y44395D01*
X309728D01*
Y44620D01*
X309615D01*
Y44844D01*
X309503D01*
Y45069D01*
X309391D01*
Y45293D01*
X309279D01*
Y45518D01*
X309166D01*
Y45742D01*
X309054D01*
Y46079D01*
X308942D01*
Y46304D01*
X308830D01*
Y46640D01*
X308717D01*
Y46865D01*
X308605D01*
Y47202D01*
X308493D01*
Y47538D01*
X308381D01*
Y47875D01*
X308268D01*
Y48212D01*
X308156D01*
Y48773D01*
X308044D01*
Y49335D01*
X308381D01*
Y49222D01*
X308493D01*
Y48998D01*
X308605D01*
Y48437D01*
X308717D01*
Y48100D01*
X308830D01*
Y47763D01*
X308942D01*
Y47426D01*
X309054D01*
Y47089D01*
X309166D01*
Y46865D01*
X309279D01*
Y46640D01*
X309391D01*
Y46304D01*
X309503D01*
Y46079D01*
X309615D01*
Y45855D01*
X309728D01*
Y45630D01*
X309840D01*
Y45405D01*
X309952D01*
Y45181D01*
X310065D01*
Y44956D01*
X310177D01*
Y44732D01*
X310289D01*
Y44507D01*
X310401D01*
Y44283D01*
X310513D01*
Y44058D01*
X310626D01*
Y43834D01*
X310738D01*
Y43721D01*
X310850D01*
Y43497D01*
X310963D01*
Y43272D01*
X311075D01*
Y43160D01*
X311187D01*
Y42936D01*
X311299D01*
Y42823D01*
X311412D01*
Y42599D01*
X311524D01*
Y42487D01*
X311636D01*
Y42374D01*
X311748D01*
Y42150D01*
X311861D01*
Y42038D01*
X311973D01*
Y41925D01*
X312085D01*
Y41813D01*
X312197D01*
Y41701D01*
X312310D01*
Y41588D01*
X312422D01*
Y41476D01*
X312534D01*
Y41364D01*
X312647D01*
Y41252D01*
X312759D01*
Y41027D01*
X312871D01*
Y40915D01*
X313096D01*
Y40803D01*
X313208D01*
Y40690D01*
X313320D01*
Y40578D01*
X313432D01*
Y40466D01*
X313545D01*
Y40353D01*
X313657D01*
Y40241D01*
X313769D01*
Y40129D01*
X313881D01*
Y40017D01*
X314106D01*
Y39904D01*
X314218D01*
Y39792D01*
X314331D01*
Y39680D01*
X314443D01*
Y39568D01*
X314667D01*
Y39455D01*
X314780D01*
Y39343D01*
X315004D01*
Y39231D01*
X315116D01*
Y39119D01*
X315341D01*
Y39006D01*
X315453D01*
Y38894D01*
X315678D01*
Y38782D01*
X315902D01*
Y38670D01*
X316127D01*
Y38557D01*
X316351D01*
Y38445D01*
X316576D01*
Y38333D01*
X316800D01*
Y38220D01*
X317137D01*
Y38108D01*
X317362D01*
Y37996D01*
X317699D01*
Y37884D01*
X318148D01*
Y37771D01*
X318484D01*
Y37659D01*
X318934D01*
Y37547D01*
X319382D01*
Y37435D01*
X320281D01*
Y37322D01*
X321179D01*
Y37435D01*
X322189D01*
Y37547D01*
X323087D01*
Y37659D01*
X323761D01*
Y37771D01*
X324659D01*
Y37884D01*
X325782D01*
Y37996D01*
X326231D01*
Y37884D01*
X326792D01*
Y37771D01*
X326904D01*
Y37659D01*
X327129D01*
Y37435D01*
X327241D01*
Y37210D01*
X327353D01*
Y36873D01*
X327466D01*
Y36312D01*
X327578D01*
Y33281D01*
X327466D01*
Y32607D01*
X327353D01*
Y32046D01*
X327241D01*
Y31709D01*
X327129D01*
Y31372D01*
X327017D01*
Y31148D01*
X326904D01*
Y30811D01*
X326792D01*
Y30586D01*
X326680D01*
Y30474D01*
X326567D01*
Y30250D01*
X326455D01*
Y30137D01*
X326343D01*
Y29913D01*
X326231D01*
Y29801D01*
X326119D01*
Y29688D01*
X326006D01*
Y29464D01*
X325894D01*
Y29351D01*
X325782D01*
Y29239D01*
X325669D01*
Y29127D01*
X325557D01*
Y29015D01*
X325445D01*
Y28902D01*
X325333D01*
Y28790D01*
X325220D01*
Y28678D01*
X325108D01*
Y28566D01*
X324996D01*
Y28453D01*
X324884D01*
Y28341D01*
X324771D01*
Y28229D01*
X324659D01*
Y28117D01*
X324547D01*
Y28004D01*
X324435D01*
Y27780D01*
X324547D01*
Y27668D01*
X326343D01*
Y27555D01*
X329823D01*
Y27443D01*
X330721D01*
Y27331D01*
X331507D01*
Y27218D01*
X332181D01*
Y27106D01*
X332854D01*
Y26994D01*
X333416D01*
Y26882D01*
X333977D01*
Y26769D01*
X334426D01*
Y26657D01*
X334875D01*
Y26545D01*
X335212D01*
Y26432D01*
X335437D01*
Y26320D01*
X335661D01*
Y26208D01*
X335886D01*
Y26096D01*
X336110D01*
Y25984D01*
X336335D01*
Y25871D01*
X336447D01*
Y25759D01*
X336559D01*
Y25647D01*
X336784D01*
Y25534D01*
X336896D01*
Y25422D01*
X337008D01*
Y25310D01*
X337121D01*
Y25198D01*
X337233D01*
Y25085D01*
X337345D01*
Y24973D01*
X337457D01*
Y24861D01*
X337570D01*
Y24748D01*
X337682D01*
Y24636D01*
X337794D01*
Y24524D01*
X337906D01*
Y24412D01*
X338019D01*
Y24187D01*
X338131D01*
Y24075D01*
X338243D01*
Y23963D01*
X338355D01*
Y23850D01*
X338468D01*
Y23626D01*
X338580D01*
Y23514D01*
X338692D01*
Y23401D01*
X338805D01*
Y23177D01*
X338917D01*
Y23065D01*
X339029D01*
Y22952D01*
X339254D01*
Y22840D01*
X339478D01*
Y22728D01*
X339815D01*
Y22615D01*
X340264D01*
Y22503D01*
X340825D01*
Y22615D01*
X340938D01*
Y22728D01*
X341050D01*
Y22840D01*
X341162D01*
Y22952D01*
X341274D01*
Y23065D01*
X341387D01*
Y23177D01*
X341499D01*
Y23401D01*
X341611D01*
Y23514D01*
X341723D01*
Y24075D01*
X341836D01*
Y24861D01*
X341723D01*
Y26320D01*
X341611D01*
Y26994D01*
X341499D01*
Y27443D01*
X341387D01*
Y27892D01*
X341274D01*
Y28229D01*
X341162D01*
Y28566D01*
X341050D01*
Y28902D01*
X340938D01*
Y29239D01*
X340825D01*
Y29576D01*
X340713D01*
Y29913D01*
X340601D01*
Y30250D01*
X340489D01*
Y30586D01*
X340376D01*
Y30923D01*
X340264D01*
Y31597D01*
X340376D01*
Y32270D01*
X340489D01*
Y32944D01*
X340601D01*
Y33730D01*
X340713D01*
Y34403D01*
X340825D01*
Y34516D01*
Y35189D01*
X340938D01*
Y36087D01*
X341050D01*
Y37435D01*
X341162D01*
Y39792D01*
X341274D01*
Y40466D01*
X341387D01*
Y40578D01*
X341499D01*
Y40690D01*
X341611D01*
Y40803D01*
X341836D01*
Y40915D01*
X341948D01*
Y41027D01*
X342060D01*
Y41139D01*
X342285D01*
Y41252D01*
X342397D01*
Y41364D01*
X342509D01*
Y41476D01*
X342734D01*
Y41588D01*
X342846D01*
Y41701D01*
X342958D01*
Y41813D01*
X343183D01*
Y41925D01*
X343295D01*
Y42038D01*
X343407D01*
Y42150D01*
X343520D01*
Y42262D01*
X343632D01*
Y42374D01*
X343857D01*
Y42487D01*
X343969D01*
Y42599D01*
X344081D01*
Y42711D01*
X344193D01*
Y42823D01*
X344306D01*
Y42936D01*
X344418D01*
Y43048D01*
X344530D01*
Y43160D01*
X344642D01*
Y43272D01*
X344755D01*
Y43385D01*
X344867D01*
Y43497D01*
X344979D01*
Y43609D01*
X345091D01*
Y43721D01*
X345204D01*
Y43834D01*
X345316D01*
Y43946D01*
X345428D01*
Y44058D01*
X345541D01*
Y44170D01*
X345653D01*
Y44283D01*
X345765D01*
Y44395D01*
X345877D01*
Y44507D01*
X345989D01*
Y44620D01*
X346102D01*
Y44732D01*
X346214D01*
Y44956D01*
X346326D01*
Y45069D01*
X346439D01*
Y45181D01*
X346551D01*
Y45293D01*
X346663D01*
Y45518D01*
X346775D01*
Y45630D01*
X346888D01*
Y45855D01*
X347000D01*
Y46079D01*
X347112D01*
Y46191D01*
X347225D01*
Y46416D01*
X347337D01*
Y46640D01*
X347449D01*
Y46865D01*
X347561D01*
Y47089D01*
X347673D01*
Y47314D01*
X347786D01*
Y47538D01*
X347898D01*
Y47763D01*
X348010D01*
Y47988D01*
X348123D01*
Y48212D01*
X348235D01*
Y48549D01*
X348347D01*
Y49335D01*
X348459D01*
Y51805D01*
X348347D01*
Y53039D01*
X348235D01*
Y53601D01*
X348123D01*
Y54050D01*
X348010D01*
Y54387D01*
X347898D01*
Y54724D01*
X347786D01*
Y55173D01*
X347673D01*
Y55509D01*
X347561D01*
Y55734D01*
X347449D01*
Y56071D01*
X347337D01*
Y56295D01*
X347225D01*
Y56632D01*
X347112D01*
Y56857D01*
X347000D01*
Y57081D01*
X346888D01*
Y57306D01*
X346775D01*
Y57642D01*
X346663D01*
Y57867D01*
X346551D01*
Y58092D01*
X346439D01*
Y58316D01*
X346326D01*
Y58541D01*
X346214D01*
Y58765D01*
X346102D01*
Y58990D01*
X345989D01*
Y59102D01*
X345877D01*
Y59326D01*
X345765D01*
Y59551D01*
X345653D01*
Y59776D01*
X345541D01*
Y60000D01*
X345428D01*
Y60112D01*
X345316D01*
Y60337D01*
X345204D01*
Y60449D01*
X345091D01*
Y60674D01*
X344979D01*
Y60786D01*
X344867D01*
Y61010D01*
X344530D01*
Y60898D01*
X344418D01*
Y60786D01*
X344193D01*
Y60674D01*
X344081D01*
Y60561D01*
X343969D01*
Y60449D01*
X343744D01*
Y60337D01*
X343632D01*
Y60224D01*
X343520D01*
Y60112D01*
X343407D01*
Y60000D01*
X343295D01*
Y59888D01*
X343071D01*
Y59776D01*
X342958D01*
Y59663D01*
X342846D01*
Y59551D01*
X342734D01*
Y59439D01*
X342622D01*
Y59326D01*
X342509D01*
Y59214D01*
X342397D01*
Y59102D01*
X342285D01*
Y58990D01*
X342173D01*
Y58877D01*
X342060D01*
Y58653D01*
X341948D01*
Y58541D01*
X341836D01*
Y58316D01*
X341723D01*
Y57867D01*
X341611D01*
Y57530D01*
X341499D01*
Y57306D01*
X341387D01*
Y57081D01*
X341274D01*
Y56857D01*
X341162D01*
Y56744D01*
X341050D01*
Y56520D01*
X340938D01*
Y56407D01*
X340825D01*
Y56295D01*
X340713D01*
Y56183D01*
X340601D01*
Y56071D01*
X340489D01*
Y55958D01*
X340376D01*
Y55734D01*
X340264D01*
Y55622D01*
X340152D01*
Y55509D01*
X340039D01*
Y55397D01*
X339927D01*
Y55285D01*
X339815D01*
Y55173D01*
X339703D01*
Y55060D01*
X339590D01*
Y54948D01*
X339478D01*
Y54836D01*
X339366D01*
Y54724D01*
X339254D01*
Y54611D01*
X339141D01*
Y54499D01*
X339029D01*
Y54387D01*
X338917D01*
Y54275D01*
X338805D01*
Y54162D01*
X338692D01*
Y54050D01*
X338580D01*
Y53938D01*
X338468D01*
Y53825D01*
X338355D01*
Y53713D01*
X338243D01*
Y53601D01*
X338131D01*
Y53489D01*
X338019D01*
Y53376D01*
X337906D01*
Y53264D01*
X337794D01*
Y53152D01*
X337682D01*
Y53039D01*
X337570D01*
Y52927D01*
X337457D01*
Y52815D01*
X337233D01*
Y52703D01*
X337121D01*
Y52590D01*
X337008D01*
Y52478D01*
X336896D01*
Y52366D01*
X336671D01*
Y52254D01*
X336559D01*
Y52141D01*
X336447D01*
Y52029D01*
X336335D01*
Y51917D01*
X336110D01*
Y51805D01*
X335998D01*
Y51692D01*
X335773D01*
Y51580D01*
X335661D01*
Y51468D01*
X335437D01*
Y51356D01*
X335324D01*
Y51243D01*
X335100D01*
Y51131D01*
X334875D01*
Y51019D01*
X334651D01*
Y50907D01*
X334426D01*
Y50794D01*
X334202D01*
Y50682D01*
X333865D01*
Y50570D01*
X333528D01*
Y50457D01*
X333191D01*
Y50345D01*
X332854D01*
Y50233D01*
X332405D01*
Y50121D01*
X331844D01*
Y50008D01*
X330834D01*
Y49896D01*
X329711D01*
Y50008D01*
X328251D01*
Y50121D01*
X327803D01*
Y50233D01*
X327466D01*
Y50345D01*
X327129D01*
Y50457D01*
X326792D01*
Y50570D01*
X326567D01*
Y50682D01*
X326343D01*
Y50794D01*
X326119D01*
Y50907D01*
X325894D01*
Y51019D01*
X325669D01*
Y51131D01*
X325445D01*
Y51243D01*
X325220D01*
Y51356D01*
X324996D01*
Y51468D01*
X324884D01*
Y51580D01*
X324659D01*
Y51692D01*
X324435D01*
Y51805D01*
X324322D01*
Y51917D01*
X324098D01*
Y52029D01*
X323985D01*
Y52141D01*
X323761D01*
Y52254D01*
X323649D01*
Y52366D01*
X323536D01*
Y52478D01*
X323424D01*
Y52590D01*
X323200D01*
Y52703D01*
X323087D01*
Y52815D01*
X322975D01*
Y52927D01*
X322863D01*
Y53039D01*
X322751D01*
Y53152D01*
X322638D01*
Y53264D01*
X322526D01*
Y53376D01*
X322414D01*
Y53489D01*
X322301D01*
Y53601D01*
X322189D01*
Y53713D01*
X322077D01*
Y53825D01*
X321965D01*
Y53938D01*
X321852D01*
Y54050D01*
X321740D01*
Y54162D01*
X321628D01*
Y54275D01*
X321516D01*
Y54387D01*
X321403D01*
Y54611D01*
X321291D01*
Y54836D01*
X321179D01*
Y55060D01*
X321067D01*
Y55285D01*
X320954D01*
Y55509D01*
X320842D01*
Y55622D01*
X320730D01*
Y55734D01*
X320505D01*
Y55846D01*
X317699D01*
Y55734D01*
X317250D01*
Y55622D01*
X316913D01*
Y55509D01*
X316800D01*
Y55397D01*
X316688D01*
Y55285D01*
X316576D01*
Y55173D01*
X316464D01*
Y55060D01*
X316351D01*
Y54948D01*
X316239D01*
Y54836D01*
X316127D01*
Y54724D01*
X316015D01*
Y54836D01*
X315790D01*
Y54948D01*
X315565D01*
Y55060D01*
X315341D01*
Y55173D01*
X315229D01*
Y55285D01*
X315116D01*
Y55397D01*
X315004D01*
Y55509D01*
X314892D01*
Y55734D01*
X314780D01*
Y55958D01*
X314667D01*
Y56183D01*
X314555D01*
Y56520D01*
X314443D01*
Y56969D01*
X314555D01*
Y57530D01*
X314667D01*
Y57979D01*
X314443D01*
Y57867D01*
X314331D01*
Y57755D01*
X314106D01*
Y57642D01*
X313994D01*
Y57530D01*
X313769D01*
Y57418D01*
X313657D01*
Y57306D01*
X313545D01*
Y57193D01*
X313320D01*
Y57081D01*
X313208D01*
Y56969D01*
X312983D01*
Y56857D01*
X312871D01*
Y56744D01*
X312647D01*
Y56632D01*
X312534D01*
Y56520D01*
X312310D01*
Y56407D01*
X312085D01*
Y56857D01*
X311973D01*
Y59102D01*
X312085D01*
Y60224D01*
X312197D01*
Y60786D01*
X312085D01*
Y60898D01*
X311973D01*
Y61010D01*
X311861D01*
Y61123D01*
X311636D01*
Y61235D01*
X311299D01*
Y61347D01*
X311075D01*
Y61459D01*
X310738D01*
Y61572D01*
X310289D01*
Y61684D01*
D02*
G37*
G36*
X310513Y29351D02*
X309840D01*
Y29239D01*
X309279D01*
Y29127D01*
X308830D01*
Y29015D01*
X308493D01*
Y28902D01*
X308156D01*
Y28790D01*
X307931D01*
Y28678D01*
X307595D01*
Y28566D01*
X307370D01*
Y28453D01*
X307146D01*
Y28341D01*
X307033D01*
Y28229D01*
X306809D01*
Y28117D01*
X306584D01*
Y28004D01*
X306472D01*
Y27892D01*
X306247D01*
Y27780D01*
X306135D01*
Y27668D01*
X305911D01*
Y27555D01*
X305798D01*
Y27443D01*
X305686D01*
Y27331D01*
X305574D01*
Y27218D01*
X305349D01*
Y27106D01*
X305237D01*
Y26994D01*
X305125D01*
Y26882D01*
X305012D01*
Y26769D01*
X304900D01*
Y26657D01*
X304788D01*
Y26545D01*
X304676D01*
Y26432D01*
X304563D01*
Y26320D01*
X304451D01*
Y26208D01*
X304339D01*
Y25984D01*
X304227D01*
Y25871D01*
X304114D01*
Y25759D01*
X304002D01*
Y25647D01*
X303890D01*
Y25422D01*
X303778D01*
Y25310D01*
X303665D01*
Y25198D01*
X303553D01*
Y24973D01*
X303441D01*
Y24861D01*
X303328D01*
Y24636D01*
X303216D01*
Y24524D01*
X303104D01*
Y24299D01*
X302992D01*
Y24075D01*
X302880D01*
Y23963D01*
X302767D01*
Y23738D01*
X302655D01*
Y23514D01*
X302543D01*
Y23289D01*
X302430D01*
Y23065D01*
X302318D01*
Y22728D01*
X302206D01*
Y22503D01*
X302094D01*
Y22279D01*
X301981D01*
Y22054D01*
X302430D01*
Y22166D01*
X302767D01*
Y22279D01*
X303104D01*
Y22391D01*
X303553D01*
Y22503D01*
X303890D01*
Y22615D01*
X304339D01*
Y22728D01*
X304676D01*
Y22840D01*
X305125D01*
Y22952D01*
X305574D01*
Y23065D01*
X306023D01*
Y23177D01*
X306472D01*
Y23289D01*
X306921D01*
Y23401D01*
X307595D01*
Y23514D01*
X308044D01*
Y23626D01*
X308830D01*
Y23738D01*
X309615D01*
Y23850D01*
X310738D01*
Y23963D01*
X314555D01*
Y24075D01*
X314780D01*
Y24187D01*
X314892D01*
Y24412D01*
X315004D01*
Y24524D01*
X315116D01*
Y24861D01*
X315229D01*
Y25647D01*
X315116D01*
Y25871D01*
X315004D01*
Y26096D01*
X314892D01*
Y26208D01*
X314780D01*
Y26320D01*
X314667D01*
Y26545D01*
X314555D01*
Y26657D01*
X314443D01*
Y26769D01*
X314331D01*
Y26882D01*
X314218D01*
Y26994D01*
X314106D01*
Y27106D01*
X313994D01*
Y27218D01*
X313881D01*
Y27331D01*
X313769D01*
Y27443D01*
X313657D01*
Y27555D01*
X313545D01*
Y27668D01*
X313432D01*
Y27780D01*
X313208D01*
Y27892D01*
X313096D01*
Y28004D01*
X312983D01*
Y28117D01*
X312871D01*
Y28229D01*
X312647D01*
Y28341D01*
X312534D01*
Y28453D01*
X312310D01*
Y28566D01*
X312197D01*
Y28678D01*
X311973D01*
Y28790D01*
X311748D01*
Y28902D01*
X311524D01*
Y29015D01*
X311299D01*
Y29127D01*
X310963D01*
Y29239D01*
X310513D01*
Y29351D01*
D02*
G37*
G36*
X305574Y30586D02*
X305125D01*
Y30474D01*
X304563D01*
Y30362D01*
X304114D01*
Y30250D01*
X303665D01*
Y30137D01*
X303328D01*
Y30025D01*
X302880D01*
Y29913D01*
X302655D01*
Y29801D01*
X302318D01*
Y29688D01*
X302206D01*
Y29576D01*
X301981D01*
Y29464D01*
X301869D01*
Y29351D01*
X301644D01*
Y29239D01*
X301532D01*
Y29127D01*
X301420D01*
Y29015D01*
X301308D01*
Y28902D01*
X301196D01*
Y28790D01*
X301083D01*
Y28678D01*
X300971D01*
Y28566D01*
X300859D01*
Y28453D01*
X300746D01*
Y28229D01*
X300634D01*
Y28117D01*
X300522D01*
Y27892D01*
X300410D01*
Y27668D01*
X300297D01*
Y27331D01*
X300185D01*
Y26994D01*
X300073D01*
Y26432D01*
X299961D01*
Y25310D01*
Y25198D01*
Y24636D01*
X300073D01*
Y24187D01*
X300185D01*
Y23850D01*
X300297D01*
Y23514D01*
X300410D01*
Y23289D01*
X300522D01*
Y23065D01*
X300634D01*
Y22840D01*
X300746D01*
Y22615D01*
X300859D01*
Y22503D01*
X300971D01*
Y22391D01*
X301083D01*
Y22279D01*
X301196D01*
Y22054D01*
X301420D01*
Y22279D01*
X301532D01*
Y22503D01*
X301644D01*
Y22728D01*
X301757D01*
Y23065D01*
X301869D01*
Y23289D01*
X301981D01*
Y23514D01*
X302094D01*
Y23738D01*
X302206D01*
Y23850D01*
X302318D01*
Y24075D01*
X302430D01*
Y24299D01*
X302543D01*
Y24524D01*
X302655D01*
Y24636D01*
X302767D01*
Y24861D01*
X302880D01*
Y24973D01*
X302992D01*
Y25198D01*
X303104D01*
Y25310D01*
X303216D01*
Y25534D01*
X303328D01*
Y25647D01*
X303441D01*
Y25759D01*
X303553D01*
Y25984D01*
X303665D01*
Y26096D01*
X303778D01*
Y26208D01*
X303890D01*
Y26320D01*
X304002D01*
Y26432D01*
X304114D01*
Y26657D01*
X304227D01*
Y26769D01*
X304339D01*
Y26882D01*
X304451D01*
Y26994D01*
X304563D01*
Y27106D01*
X304676D01*
Y27218D01*
X304788D01*
Y27331D01*
X304900D01*
Y27443D01*
X305012D01*
Y27555D01*
X305125D01*
Y27668D01*
X305349D01*
Y27780D01*
X305462D01*
Y27892D01*
X305574D01*
Y28004D01*
X305686D01*
Y28117D01*
X305911D01*
Y28229D01*
X306023D01*
Y28341D01*
X306135D01*
Y28453D01*
X306360D01*
Y28566D01*
X306584D01*
Y28678D01*
X306696D01*
Y28790D01*
X306921D01*
Y28902D01*
X307146D01*
Y29015D01*
X307482D01*
Y29127D01*
X307707D01*
Y29239D01*
X307931D01*
Y29351D01*
X308268D01*
Y29464D01*
X308493D01*
Y29576D01*
X308717D01*
Y29688D01*
X308942D01*
Y29801D01*
X308605D01*
Y29913D01*
X308044D01*
Y30025D01*
X307482D01*
Y30137D01*
X307033D01*
Y30250D01*
X306584D01*
Y30362D01*
X306023D01*
Y30474D01*
X305574D01*
Y30586D01*
D02*
G37*
G36*
X336784Y24973D02*
X336671D01*
Y24075D01*
X336784D01*
Y23177D01*
X336671D01*
Y22840D01*
X336559D01*
Y22615D01*
X336447D01*
Y22503D01*
X336335D01*
Y22279D01*
X336222D01*
Y22166D01*
X336110D01*
Y22054D01*
X335998D01*
Y21942D01*
X335886D01*
Y21717D01*
X336896D01*
Y21830D01*
X338468D01*
Y21942D01*
X339254D01*
Y22054D01*
X339590D01*
Y22166D01*
X339478D01*
Y22279D01*
X339254D01*
Y22391D01*
X339029D01*
Y22503D01*
X338805D01*
Y22615D01*
X338692D01*
Y22728D01*
X338580D01*
Y22840D01*
X338468D01*
Y22952D01*
X338355D01*
Y23065D01*
X338243D01*
Y23289D01*
X338131D01*
Y23401D01*
X338019D01*
Y23514D01*
X337906D01*
Y23738D01*
X337794D01*
Y23850D01*
X337682D01*
Y23963D01*
X337570D01*
Y24075D01*
X337457D01*
Y24299D01*
X337345D01*
Y24412D01*
X337233D01*
Y24524D01*
X337121D01*
Y24636D01*
X337008D01*
Y24748D01*
X336896D01*
Y24861D01*
X336784D01*
Y24973D01*
D02*
G37*
G36*
X333191Y26545D02*
X332181D01*
Y26432D01*
X331844D01*
Y26320D01*
X331732D01*
Y26208D01*
X331507D01*
Y26096D01*
X331283D01*
Y25984D01*
X331058D01*
Y25871D01*
X330834D01*
Y25759D01*
X330721D01*
Y25647D01*
X330609D01*
Y25534D01*
X330385D01*
Y25422D01*
X330272D01*
Y25310D01*
X330160D01*
Y25198D01*
X329935D01*
Y25085D01*
X329823D01*
Y24973D01*
X329711D01*
Y24861D01*
X329599D01*
Y24748D01*
X329487D01*
Y24636D01*
X329374D01*
Y24524D01*
X329262D01*
Y24412D01*
X329150D01*
Y24299D01*
X329037D01*
Y24187D01*
X328925D01*
Y24075D01*
X328813D01*
Y23850D01*
X328701D01*
Y23738D01*
X328588D01*
Y23626D01*
X328476D01*
Y23514D01*
X328364D01*
Y23289D01*
X328251D01*
Y23177D01*
X328139D01*
Y23065D01*
X328027D01*
Y22840D01*
X327915D01*
Y22728D01*
X327803D01*
Y22503D01*
X327690D01*
Y22391D01*
X327578D01*
Y22166D01*
X327466D01*
Y21942D01*
X327353D01*
Y21830D01*
X327241D01*
Y21605D01*
X327129D01*
Y21493D01*
Y21381D01*
X327017D01*
Y21156D01*
X326904D01*
Y20931D01*
X326792D01*
Y20707D01*
X326680D01*
Y20370D01*
X328027D01*
Y20482D01*
X329037D01*
Y20595D01*
X329823D01*
Y20707D01*
X330609D01*
Y20819D01*
X331395D01*
Y20931D01*
X332069D01*
Y21044D01*
X332742D01*
Y21156D01*
X333303D01*
Y21268D01*
X333753D01*
Y21381D01*
X334202D01*
Y21493D01*
X334538D01*
Y21605D01*
X334763D01*
Y21717D01*
X334987D01*
Y21830D01*
X335100D01*
Y21942D01*
X335212D01*
Y22054D01*
X335437D01*
Y22166D01*
X335549D01*
Y22279D01*
X335661D01*
Y22391D01*
X335773D01*
Y22503D01*
X335886D01*
Y22728D01*
X335998D01*
Y22840D01*
X336110D01*
Y22952D01*
X336222D01*
Y23065D01*
X336335D01*
Y23289D01*
X336222D01*
Y24299D01*
X336110D01*
Y24973D01*
X335998D01*
Y25310D01*
X335886D01*
Y25534D01*
X335773D01*
Y25647D01*
X335661D01*
Y25759D01*
X335549D01*
Y25871D01*
X335324D01*
Y25984D01*
X335100D01*
Y26096D01*
X334763D01*
Y26208D01*
X334314D01*
Y26320D01*
X333753D01*
Y26432D01*
X333191D01*
Y26545D01*
D02*
G37*
G36*
X327129Y27218D02*
X326343D01*
Y27106D01*
X326231D01*
Y26994D01*
X326006D01*
Y26882D01*
X325894D01*
Y26769D01*
X325669D01*
Y26657D01*
X325557D01*
Y26545D01*
X325333D01*
Y26432D01*
X325220D01*
Y26320D01*
X325108D01*
Y26208D01*
X324884D01*
Y26096D01*
X324771D01*
Y25984D01*
X324659D01*
Y25871D01*
X324547D01*
Y25759D01*
X324435D01*
Y25647D01*
X324322D01*
Y25534D01*
X324210D01*
Y25310D01*
X324098D01*
Y25198D01*
X323985D01*
Y25085D01*
X323873D01*
Y24973D01*
X323761D01*
Y24748D01*
X323649D01*
Y24636D01*
X323536D01*
Y24412D01*
X323424D01*
Y24299D01*
X323312D01*
Y24075D01*
X323200D01*
Y23850D01*
X323087D01*
Y23626D01*
X322975D01*
Y23401D01*
X322863D01*
Y23177D01*
X322751D01*
Y22952D01*
X322638D01*
Y22615D01*
X322526D01*
Y22279D01*
X322414D01*
Y21942D01*
X322301D01*
Y21605D01*
X322189D01*
Y21156D01*
X322077D01*
Y20707D01*
X321965D01*
Y20146D01*
X321852D01*
Y19584D01*
X321740D01*
Y19360D01*
X322526D01*
Y19472D01*
X323087D01*
Y19584D01*
X323536D01*
Y19697D01*
X324210D01*
Y19809D01*
X324659D01*
Y19921D01*
X325108D01*
Y20033D01*
X325669D01*
Y20146D01*
X325894D01*
Y20258D01*
X326006D01*
Y20482D01*
X326119D01*
Y20707D01*
X326231D01*
Y20931D01*
X326343D01*
Y21156D01*
X326455D01*
Y21381D01*
X326567D01*
Y21605D01*
X326680D01*
Y21830D01*
X326792D01*
Y22054D01*
X326904D01*
Y22166D01*
X327017D01*
Y22391D01*
X327129D01*
Y22615D01*
X327241D01*
Y22840D01*
X327353D01*
Y22952D01*
X327466D01*
Y23177D01*
X327578D01*
Y23289D01*
X327690D01*
Y23514D01*
X327803D01*
Y23626D01*
X327915D01*
Y23738D01*
X328027D01*
Y23963D01*
X328139D01*
Y24075D01*
X328251D01*
Y24187D01*
X328364D01*
Y24299D01*
X328476D01*
Y24412D01*
X328588D01*
Y24524D01*
X328701D01*
Y24636D01*
X328813D01*
Y24748D01*
X328925D01*
Y24861D01*
X329037D01*
Y24973D01*
X329150D01*
Y25085D01*
X329262D01*
Y25198D01*
X329374D01*
Y25310D01*
X329487D01*
Y25422D01*
X329599D01*
Y25534D01*
X329711D01*
Y25647D01*
X329935D01*
Y25759D01*
X330048D01*
Y25871D01*
X330160D01*
Y25984D01*
X330272D01*
Y26096D01*
X330497D01*
Y26208D01*
X330609D01*
Y26320D01*
X330834D01*
Y26432D01*
X330946D01*
Y26545D01*
X331058D01*
Y26657D01*
X331171D01*
Y26769D01*
X330946D01*
Y26882D01*
X330272D01*
Y26994D01*
X329150D01*
Y27106D01*
X327129D01*
Y27218D01*
D02*
G37*
G36*
X324322D02*
X323087D01*
Y27106D01*
X322751D01*
Y26994D01*
X322526D01*
Y26882D01*
X322301D01*
Y26769D01*
X322077D01*
Y26657D01*
X321852D01*
Y26545D01*
X321740D01*
Y26432D01*
X321516D01*
Y26320D01*
X321403D01*
Y26208D01*
X321291D01*
Y26096D01*
X321179D01*
Y25984D01*
X321067D01*
Y25871D01*
X320954D01*
Y25759D01*
X320842D01*
Y25647D01*
X320730D01*
Y25534D01*
X320617D01*
Y25422D01*
X320505D01*
Y25310D01*
X320393D01*
Y25198D01*
X320281D01*
Y25085D01*
X320168D01*
Y24861D01*
X320056D01*
Y24636D01*
X319944D01*
Y24524D01*
X319832D01*
Y24187D01*
X319719D01*
Y23850D01*
X319607D01*
Y21493D01*
X319719D01*
Y21044D01*
X319832D01*
Y20707D01*
X319944D01*
Y20482D01*
X320056D01*
Y20370D01*
X320168D01*
Y20146D01*
X320281D01*
Y20033D01*
X320393D01*
Y19921D01*
X320505D01*
Y19697D01*
X320617D01*
Y19584D01*
X320730D01*
Y19472D01*
X320842D01*
Y19360D01*
X321067D01*
Y19247D01*
X321179D01*
Y19472D01*
X321291D01*
Y19809D01*
X321403D01*
Y20370D01*
X321516D01*
Y20931D01*
X321628D01*
Y21381D01*
X321740D01*
Y21830D01*
X321852D01*
Y22166D01*
X321965D01*
Y22503D01*
X322077D01*
Y22840D01*
X322189D01*
Y23065D01*
X322301D01*
Y23289D01*
X322414D01*
Y23626D01*
X322526D01*
Y23850D01*
X322638D01*
Y24075D01*
X322751D01*
Y24187D01*
X322863D01*
Y24412D01*
X322975D01*
Y24636D01*
X323087D01*
Y24748D01*
X323200D01*
Y24973D01*
X323312D01*
Y25085D01*
X323424D01*
Y25310D01*
X323536D01*
Y25422D01*
X323649D01*
Y25534D01*
X323761D01*
Y25759D01*
X323873D01*
Y25871D01*
X323985D01*
Y25984D01*
X324098D01*
Y26096D01*
X324210D01*
Y26208D01*
X324322D01*
Y26320D01*
X324435D01*
Y26432D01*
X324547D01*
Y26545D01*
X324659D01*
Y26657D01*
X324771D01*
Y26769D01*
X324884D01*
Y26882D01*
X324996D01*
Y26994D01*
X324771D01*
Y27106D01*
X324322D01*
Y27218D01*
D02*
G37*
%LPD*%
G36*
X311636Y114224D02*
X312085D01*
Y114112D01*
X312310D01*
Y114000D01*
X312534D01*
Y113775D01*
X312647D01*
Y113663D01*
X312759D01*
Y113439D01*
X312871D01*
Y112990D01*
X312983D01*
Y111979D01*
X312871D01*
Y111642D01*
X312759D01*
Y111418D01*
X312647D01*
Y111306D01*
X312534D01*
Y111193D01*
X312422D01*
Y111081D01*
X312197D01*
Y110969D01*
X311973D01*
Y110856D01*
X311524D01*
Y110744D01*
X310850D01*
Y110632D01*
X309615D01*
Y110520D01*
X308381D01*
Y110407D01*
X307595D01*
Y110295D01*
X306809D01*
Y110183D01*
X306360D01*
Y110071D01*
X305911D01*
Y109958D01*
X305686D01*
Y109621D01*
X305574D01*
Y108948D01*
X305462D01*
Y108611D01*
X305349D01*
Y108387D01*
X305237D01*
Y108162D01*
X305125D01*
Y108050D01*
X305012D01*
Y107937D01*
X304788D01*
Y107825D01*
X304676D01*
Y107713D01*
X304451D01*
Y107601D01*
X304339D01*
Y107488D01*
X304114D01*
Y107376D01*
X303890D01*
Y107264D01*
X303665D01*
Y107152D01*
X303328D01*
Y107039D01*
X303104D01*
Y106927D01*
X302880D01*
Y106815D01*
X302655D01*
Y106703D01*
X302318D01*
Y106590D01*
X301308D01*
Y106703D01*
X300971D01*
Y106815D01*
X300746D01*
Y106927D01*
X300522D01*
Y107039D01*
X300410D01*
Y107152D01*
X300297D01*
Y107264D01*
X300185D01*
Y107376D01*
X300073D01*
Y107488D01*
X299961D01*
Y107601D01*
X299848D01*
Y107713D01*
X299736D01*
Y107825D01*
X299624D01*
Y107937D01*
X299512D01*
Y108050D01*
X299399D01*
Y108162D01*
X299287D01*
Y108387D01*
X299175D01*
Y108499D01*
X299062D01*
Y108611D01*
X298950D01*
Y108723D01*
X298501D01*
Y108611D01*
X298164D01*
Y108499D01*
X297940D01*
Y108387D01*
X297827D01*
Y108274D01*
X297603D01*
Y108162D01*
X297378D01*
Y108050D01*
X297266D01*
Y107937D01*
X297042D01*
Y107825D01*
X296817D01*
Y107713D01*
X296705D01*
Y107601D01*
X296480D01*
Y107488D01*
X295919D01*
Y107601D01*
X295695D01*
Y107713D01*
X295582D01*
Y107825D01*
X295470D01*
Y107937D01*
X295358D01*
Y108050D01*
X295245D01*
Y108274D01*
X295133D01*
Y108387D01*
X295021D01*
Y108611D01*
X294909D01*
Y108836D01*
X294796D01*
Y109060D01*
X294684D01*
Y109958D01*
X294796D01*
Y110071D01*
X294909D01*
Y110183D01*
X295133D01*
Y110295D01*
X296256D01*
Y110183D01*
X296929D01*
Y110071D01*
X297827D01*
Y109958D01*
X300522D01*
Y110071D01*
X301083D01*
Y110183D01*
X301532D01*
Y110295D01*
X301981D01*
Y110407D01*
X302318D01*
Y110520D01*
X302655D01*
Y110632D01*
X302880D01*
Y110744D01*
X303104D01*
Y110856D01*
X303328D01*
Y110969D01*
X303665D01*
Y111081D01*
X303890D01*
Y111193D01*
X304114D01*
Y111306D01*
X304339D01*
Y111418D01*
X304563D01*
Y111530D01*
X304676D01*
Y111642D01*
X304900D01*
Y111755D01*
X305125D01*
Y111867D01*
X305349D01*
Y111979D01*
X305574D01*
Y112091D01*
X305686D01*
Y112204D01*
X305911D01*
Y112316D01*
X306135D01*
Y112428D01*
X306247D01*
Y112540D01*
X306472D01*
Y112653D01*
X306696D01*
Y112765D01*
X306921D01*
Y112877D01*
X307146D01*
Y112990D01*
X307370D01*
Y113102D01*
X307595D01*
Y113214D01*
X307819D01*
Y113326D01*
X308044D01*
Y113439D01*
X308268D01*
Y113551D01*
X308493D01*
Y113663D01*
X308717D01*
Y113775D01*
X309054D01*
Y113888D01*
X309279D01*
Y114000D01*
X309615D01*
Y114112D01*
X310065D01*
Y114224D01*
X310626D01*
Y114337D01*
X311636D01*
Y114224D01*
D02*
G37*
G36*
X323424Y68195D02*
X323649D01*
Y68083D01*
X323761D01*
Y67971D01*
X323873D01*
Y67859D01*
X323985D01*
Y67746D01*
X324098D01*
Y67634D01*
X324210D01*
Y67522D01*
X324322D01*
Y67410D01*
X324435D01*
Y67185D01*
X324547D01*
Y67073D01*
X324659D01*
Y66848D01*
X324771D01*
Y66624D01*
X324884D01*
Y66175D01*
X324996D01*
Y65501D01*
X325108D01*
Y64266D01*
X324996D01*
Y63368D01*
X324884D01*
Y62582D01*
X324771D01*
Y62021D01*
X324659D01*
Y61459D01*
X324547D01*
Y60898D01*
X324435D01*
Y60337D01*
X324322D01*
Y59663D01*
X324210D01*
Y59102D01*
X323985D01*
Y60224D01*
X324098D01*
Y61235D01*
X324210D01*
Y62021D01*
X324322D01*
Y62807D01*
X324435D01*
Y63593D01*
X324547D01*
Y66062D01*
X324435D01*
Y66511D01*
X324322D01*
Y66736D01*
X324210D01*
Y66961D01*
X324098D01*
Y67185D01*
X323985D01*
Y67410D01*
X323873D01*
Y67522D01*
X323761D01*
Y67634D01*
X323649D01*
Y67859D01*
X323536D01*
Y67971D01*
X323424D01*
Y68083D01*
X323312D01*
Y68195D01*
X323200D01*
Y68308D01*
X323424D01*
Y68195D01*
D02*
G37*
%LPC*%
G36*
X309166Y113326D02*
X308830D01*
Y113214D01*
X308605D01*
Y113102D01*
X308381D01*
Y112877D01*
X308830D01*
Y112990D01*
X309054D01*
Y113214D01*
X309166D01*
Y113326D01*
D02*
G37*
G36*
X307370Y112316D02*
X306921D01*
Y112204D01*
X306809D01*
Y112091D01*
X306584D01*
Y111979D01*
X306360D01*
Y111867D01*
X306247D01*
Y111755D01*
X306023D01*
Y111642D01*
X305911D01*
Y111418D01*
X306584D01*
Y111530D01*
X306809D01*
Y111642D01*
X306921D01*
Y111755D01*
X307033D01*
Y111867D01*
X307146D01*
Y111979D01*
X307258D01*
Y112204D01*
X307370D01*
Y112316D01*
D02*
G37*
G36*
X311524Y113888D02*
X310850D01*
Y113775D01*
X310289D01*
Y113663D01*
X309952D01*
Y113551D01*
X309840D01*
Y113439D01*
X309728D01*
Y113326D01*
X309615D01*
Y112990D01*
X309503D01*
Y112877D01*
X309391D01*
Y112653D01*
X309279D01*
Y112540D01*
X309054D01*
Y112428D01*
X307819D01*
Y112204D01*
X307707D01*
Y111867D01*
X307595D01*
Y111642D01*
X307482D01*
Y111530D01*
X307370D01*
Y111418D01*
X307258D01*
Y111306D01*
X307146D01*
Y111193D01*
X307033D01*
Y111081D01*
X306809D01*
Y110969D01*
X305574D01*
Y111081D01*
X305012D01*
Y110856D01*
X305125D01*
Y110407D01*
X305686D01*
Y110520D01*
X306247D01*
Y110632D01*
X306809D01*
Y110744D01*
X307370D01*
Y110856D01*
X308156D01*
Y110969D01*
X309279D01*
Y111081D01*
X310401D01*
Y111193D01*
X311187D01*
Y111306D01*
X311636D01*
Y111418D01*
X311973D01*
Y111530D01*
X312197D01*
Y111642D01*
X312310D01*
Y111867D01*
X312422D01*
Y112204D01*
X312534D01*
Y112653D01*
X312422D01*
Y113102D01*
X312310D01*
Y113439D01*
X312197D01*
Y113551D01*
X312085D01*
Y113663D01*
X311861D01*
Y113775D01*
X311524D01*
Y113888D01*
D02*
G37*
G36*
X296705Y109734D02*
X295133D01*
Y109285D01*
X295245D01*
Y109060D01*
X295358D01*
Y108836D01*
X295470D01*
Y108611D01*
X295582D01*
Y108499D01*
X295695D01*
Y108387D01*
X295807D01*
Y108162D01*
X296031D01*
Y108050D01*
X296368D01*
Y108162D01*
X296593D01*
Y108274D01*
X296817D01*
Y108387D01*
X296929D01*
Y108499D01*
X297154D01*
Y108611D01*
X297378D01*
Y108723D01*
X297491D01*
Y108836D01*
X297715D01*
Y108948D01*
X298052D01*
Y109060D01*
X298277D01*
Y109172D01*
X298501D01*
Y109397D01*
X297940D01*
Y109509D01*
X297266D01*
Y109621D01*
X296705D01*
Y109734D01*
D02*
G37*
G36*
X304563Y110744D02*
X304227D01*
Y110632D01*
X303890D01*
Y110520D01*
X303778D01*
Y110407D01*
X303441D01*
Y110295D01*
X303216D01*
Y110183D01*
X302992D01*
Y110071D01*
X302880D01*
Y109958D01*
X302655D01*
Y109509D01*
X302767D01*
Y109172D01*
X302880D01*
Y108836D01*
X302992D01*
Y108499D01*
X303104D01*
Y108162D01*
X303216D01*
Y108050D01*
Y107937D01*
X303328D01*
Y107713D01*
X303665D01*
Y107825D01*
X303890D01*
Y107937D01*
X304114D01*
Y108050D01*
X304227D01*
Y108162D01*
X304339D01*
Y108274D01*
X304563D01*
Y108387D01*
X304676D01*
Y108499D01*
X304788D01*
Y108611D01*
X304900D01*
Y108836D01*
X305012D01*
Y109621D01*
X304900D01*
Y109958D01*
X304788D01*
Y110183D01*
X304676D01*
Y110520D01*
X304563D01*
Y110744D01*
D02*
G37*
G36*
X301869Y109734D02*
X301644D01*
Y109621D01*
X300971D01*
Y109509D01*
X300410D01*
Y109397D01*
X299624D01*
Y109285D01*
X299399D01*
Y109060D01*
X299512D01*
Y108836D01*
X299624D01*
Y108611D01*
X299736D01*
Y108499D01*
X299848D01*
Y108274D01*
X299961D01*
Y108162D01*
X300073D01*
Y108050D01*
X300185D01*
Y107937D01*
X300297D01*
Y107825D01*
X300410D01*
Y107713D01*
X300522D01*
Y107601D01*
X300634D01*
Y107488D01*
X300859D01*
Y107376D01*
X300971D01*
Y107264D01*
X301083D01*
Y107152D01*
X301532D01*
Y107039D01*
X302206D01*
Y107152D01*
X302543D01*
Y107264D01*
X302655D01*
Y108274D01*
X302543D01*
Y108611D01*
X302430D01*
Y108836D01*
X302318D01*
Y109172D01*
X302206D01*
Y109397D01*
X302094D01*
Y109621D01*
X301869D01*
Y109734D01*
D02*
G37*
%LPD*%
G36*
X302992Y114674D02*
X303104D01*
Y114561D01*
X303216D01*
Y114449D01*
X303328D01*
Y114224D01*
Y114112D01*
Y113551D01*
X303216D01*
Y113439D01*
X302992D01*
Y113888D01*
X302880D01*
Y114112D01*
X302767D01*
Y114224D01*
X302543D01*
Y114112D01*
X302430D01*
Y114000D01*
X302318D01*
Y113888D01*
X302094D01*
Y113775D01*
X301981D01*
Y113888D01*
X301869D01*
Y114000D01*
X301981D01*
Y114224D01*
X302094D01*
Y114337D01*
X302206D01*
Y114449D01*
X302318D01*
Y114561D01*
X302430D01*
Y114674D01*
X302655D01*
Y114786D01*
X302992D01*
Y114674D01*
D02*
G37*
G36*
X298726Y113663D02*
X299062D01*
Y113551D01*
X299287D01*
Y113439D01*
X299399D01*
Y113326D01*
X299512D01*
Y113214D01*
X299624D01*
Y113102D01*
X299736D01*
Y112877D01*
X299624D01*
Y112990D01*
X299287D01*
Y113102D01*
X298950D01*
Y113214D01*
X298501D01*
Y113102D01*
X298613D01*
Y112990D01*
X298726D01*
Y112877D01*
X298838D01*
Y112765D01*
X298950D01*
Y112653D01*
X298501D01*
Y112765D01*
X298277D01*
Y112877D01*
X298164D01*
Y112990D01*
X298052D01*
Y113214D01*
X297940D01*
Y113551D01*
X298052D01*
Y113663D01*
X298164D01*
Y113775D01*
X298726D01*
Y113663D01*
D02*
G37*
G36*
X319832Y61684D02*
X321067D01*
Y61572D01*
X321628D01*
Y61459D01*
X321740D01*
Y61347D01*
X318821D01*
Y61235D01*
X317923D01*
Y61123D01*
X317474D01*
Y61010D01*
X317025D01*
Y60898D01*
X316576D01*
Y60786D01*
X316127D01*
Y60674D01*
X315902D01*
Y60561D01*
X315678D01*
Y60449D01*
X315453D01*
Y60337D01*
X315229D01*
Y60224D01*
X315004D01*
Y60112D01*
X314892D01*
Y60000D01*
X314667D01*
Y59888D01*
X314555D01*
Y59776D01*
X314443D01*
Y59663D01*
X314331D01*
Y59551D01*
X314218D01*
Y59439D01*
X314106D01*
Y59326D01*
X313994D01*
Y59214D01*
X313881D01*
Y59102D01*
X313769D01*
Y58990D01*
X313657D01*
Y58877D01*
X313432D01*
Y58765D01*
X313320D01*
Y58990D01*
X313432D01*
Y59214D01*
X313545D01*
Y59326D01*
X313657D01*
Y59551D01*
X313769D01*
Y59663D01*
X313881D01*
Y59776D01*
X313994D01*
Y59888D01*
X314106D01*
Y60000D01*
X314218D01*
Y60112D01*
X314331D01*
Y60224D01*
X314443D01*
Y60337D01*
X314555D01*
Y60449D01*
X314667D01*
Y60561D01*
X314892D01*
Y60674D01*
X315004D01*
Y60786D01*
X315229D01*
Y60898D01*
X315453D01*
Y61010D01*
X315790D01*
Y61123D01*
X316015D01*
Y61235D01*
X316351D01*
Y61347D01*
X316688D01*
Y61459D01*
X317025D01*
Y61572D01*
X317474D01*
Y61684D01*
X318148D01*
Y61796D01*
X319832D01*
Y61684D01*
D02*
G37*
G36*
X313320Y58653D02*
X313208D01*
Y58765D01*
X313320D01*
Y58653D01*
D02*
G37*
G36*
X315790Y56407D02*
X315678D01*
Y56520D01*
X315790D01*
Y56407D01*
D02*
G37*
G36*
X337570Y48100D02*
X337457D01*
Y48212D01*
X337570D01*
Y48100D01*
D02*
G37*
G36*
X337457Y47988D02*
X337345D01*
Y48100D01*
X337457D01*
Y47988D01*
D02*
G37*
G36*
X337345Y47875D02*
X337233D01*
Y47763D01*
X337121D01*
Y47651D01*
X337008D01*
Y47538D01*
X336784D01*
Y47426D01*
X336671D01*
Y47314D01*
X336559D01*
Y47202D01*
X336447D01*
Y47089D01*
X336222D01*
Y46977D01*
X336110D01*
Y46865D01*
X335998D01*
Y46753D01*
X335886D01*
Y46640D01*
X335661D01*
Y46528D01*
X335549D01*
Y46416D01*
X335437D01*
Y46304D01*
X335212D01*
Y46191D01*
X335100D01*
Y46079D01*
X334987D01*
Y45967D01*
X334763D01*
Y45855D01*
X334651D01*
Y45742D01*
X334538D01*
Y45630D01*
X334314D01*
Y45518D01*
X334202D01*
Y45405D01*
X334089D01*
Y45293D01*
X333865D01*
Y45181D01*
X333753D01*
Y45069D01*
X333640D01*
Y44956D01*
X333416D01*
Y44844D01*
X333303D01*
Y44732D01*
X333191D01*
Y44620D01*
X332967D01*
Y44507D01*
X332854D01*
Y44395D01*
X332630D01*
Y44283D01*
X332518D01*
Y44170D01*
X332405D01*
Y44058D01*
X332293D01*
Y43946D01*
X332069D01*
Y43834D01*
X331956D01*
Y43721D01*
X331844D01*
Y43609D01*
X331619D01*
Y43497D01*
X331507D01*
Y43385D01*
X331395D01*
Y43272D01*
X331171D01*
Y43160D01*
X331058D01*
Y43048D01*
X330946D01*
Y42936D01*
X330834D01*
Y42823D01*
X330721D01*
Y42711D01*
X330609D01*
Y42599D01*
X330497D01*
Y42487D01*
X330385D01*
Y42374D01*
X330272D01*
Y42262D01*
X330048D01*
Y42150D01*
X329935D01*
Y42038D01*
X329823D01*
Y41925D01*
X329711D01*
Y41813D01*
X329599D01*
Y41701D01*
X329487D01*
Y41476D01*
X329374D01*
Y41364D01*
X329262D01*
Y41252D01*
X329150D01*
Y41139D01*
X329037D01*
Y41027D01*
X328925D01*
Y40915D01*
X328813D01*
Y40803D01*
X328701D01*
Y40690D01*
X328588D01*
Y40466D01*
X328476D01*
Y40353D01*
X328364D01*
Y40241D01*
X328251D01*
Y40017D01*
X328139D01*
Y39904D01*
X328027D01*
Y39680D01*
X327915D01*
Y39568D01*
X327803D01*
Y39343D01*
X327690D01*
Y39231D01*
X327578D01*
Y39006D01*
X327466D01*
Y38782D01*
X327353D01*
Y38445D01*
X327241D01*
Y38108D01*
X327129D01*
Y38670D01*
X327241D01*
Y39006D01*
X327353D01*
Y39343D01*
X327466D01*
Y39568D01*
X327578D01*
Y39792D01*
X327690D01*
Y40017D01*
X327803D01*
Y40129D01*
X327915D01*
Y40353D01*
X328027D01*
Y40466D01*
X328139D01*
Y40690D01*
X328251D01*
Y40803D01*
X328364D01*
Y41027D01*
X328476D01*
Y41139D01*
X328588D01*
Y41252D01*
X328701D01*
Y41476D01*
X328813D01*
Y41588D01*
X328925D01*
Y41701D01*
X329037D01*
Y41813D01*
X329150D01*
Y42038D01*
X329262D01*
Y42150D01*
X329374D01*
Y42262D01*
X329487D01*
Y42374D01*
X329599D01*
Y42487D01*
X329711D01*
Y42599D01*
X329823D01*
Y42711D01*
X329935D01*
Y42823D01*
X330048D01*
Y42936D01*
X330160D01*
Y43048D01*
X330272D01*
Y43160D01*
X330385D01*
Y43272D01*
X330497D01*
Y43385D01*
X330609D01*
Y43497D01*
X330834D01*
Y43609D01*
X330946D01*
Y43721D01*
X331058D01*
Y43834D01*
X331283D01*
Y43946D01*
X331395D01*
Y44058D01*
X331507D01*
Y44170D01*
X331619D01*
Y44283D01*
X331844D01*
Y44395D01*
X331956D01*
Y44507D01*
X332181D01*
Y44620D01*
X332293D01*
Y44732D01*
X332518D01*
Y44844D01*
X332630D01*
Y44956D01*
X332742D01*
Y45069D01*
X332967D01*
Y45181D01*
X333079D01*
Y45293D01*
X333303D01*
Y45405D01*
X333416D01*
Y45518D01*
X333640D01*
Y45630D01*
X333753D01*
Y45742D01*
X333977D01*
Y45855D01*
X334089D01*
Y45967D01*
X334314D01*
Y46079D01*
X334426D01*
Y46191D01*
X334651D01*
Y46304D01*
X334763D01*
Y46416D01*
X334875D01*
Y46528D01*
X335100D01*
Y46640D01*
X335324D01*
Y46753D01*
X335437D01*
Y46865D01*
X335661D01*
Y46977D01*
X335773D01*
Y47089D01*
X335998D01*
Y47202D01*
X336110D01*
Y47314D01*
X336335D01*
Y47426D01*
X336447D01*
Y47538D01*
X336671D01*
Y47651D01*
X336784D01*
Y47763D01*
X337008D01*
Y47875D01*
X337121D01*
Y47988D01*
X337345D01*
Y47875D01*
D02*
G37*
G36*
X309279Y31372D02*
X309615D01*
Y31260D01*
X309952D01*
Y31148D01*
X310401D01*
Y31035D01*
X310850D01*
Y30923D01*
X311299D01*
Y30811D01*
X311636D01*
Y30699D01*
X312085D01*
Y30586D01*
X312422D01*
Y30474D01*
X312759D01*
Y30362D01*
X312983D01*
Y30250D01*
X313320D01*
Y30137D01*
X313545D01*
Y30025D01*
X313769D01*
Y29913D01*
X313881D01*
Y29801D01*
X314106D01*
Y29688D01*
X314218D01*
Y29576D01*
X314331D01*
Y29464D01*
X314443D01*
Y29351D01*
X314555D01*
Y29239D01*
X314667D01*
Y29127D01*
X314780D01*
Y29015D01*
X314892D01*
Y28902D01*
X315004D01*
Y28790D01*
X315116D01*
Y28678D01*
X315229D01*
Y28566D01*
X315341D01*
Y28341D01*
X315116D01*
Y28453D01*
X315004D01*
Y28566D01*
X314892D01*
Y28678D01*
X314780D01*
Y28790D01*
X314555D01*
Y28902D01*
X314443D01*
Y29015D01*
X314218D01*
Y29127D01*
X314106D01*
Y29239D01*
X313881D01*
Y29351D01*
X313657D01*
Y29464D01*
X313432D01*
Y29576D01*
X313208D01*
Y29688D01*
X312983D01*
Y29801D01*
X312759D01*
Y29913D01*
X312422D01*
Y30025D01*
X312085D01*
Y30137D01*
X311748D01*
Y30250D01*
X311524D01*
Y30362D01*
X311187D01*
Y30474D01*
X310850D01*
Y30586D01*
X310513D01*
Y30699D01*
X310177D01*
Y30811D01*
X309952D01*
Y30923D01*
X309615D01*
Y31035D01*
X309391D01*
Y31148D01*
X309166D01*
Y31260D01*
X309054D01*
Y31372D01*
X308942D01*
Y31484D01*
X309279D01*
Y31372D01*
D02*
G37*
G36*
X321403Y29127D02*
X321740D01*
Y29015D01*
X321965D01*
Y28902D01*
X322189D01*
Y28790D01*
X322301D01*
Y28678D01*
X322414D01*
Y28566D01*
X322526D01*
Y28453D01*
X322638D01*
Y28229D01*
X322414D01*
Y28341D01*
X322189D01*
Y28453D01*
X321852D01*
Y28566D01*
X321628D01*
Y28678D01*
X321403D01*
Y28790D01*
X321179D01*
Y28902D01*
X320954D01*
Y29015D01*
X320617D01*
Y29127D01*
X320505D01*
Y29239D01*
X321403D01*
Y29127D01*
D02*
G37*
G36*
X319832Y28341D02*
X320505D01*
Y28229D01*
X320730D01*
Y28117D01*
X320842D01*
Y28004D01*
X321067D01*
Y27892D01*
X321179D01*
Y27780D01*
X321291D01*
Y27555D01*
X321067D01*
Y27668D01*
X320730D01*
Y27780D01*
X320393D01*
Y27892D01*
X320168D01*
Y28004D01*
X319832D01*
Y28117D01*
X319607D01*
Y28229D01*
X319495D01*
Y28341D01*
X319719D01*
Y28453D01*
X319832D01*
Y28341D01*
D02*
G37*
G36*
X339029Y26320D02*
X339478D01*
Y26208D01*
X339815D01*
Y26096D01*
X340039D01*
Y25984D01*
X340152D01*
Y25871D01*
X340376D01*
Y25759D01*
X340489D01*
Y25647D01*
X340601D01*
Y25534D01*
X340713D01*
Y25422D01*
X340825D01*
Y25198D01*
X340938D01*
Y24861D01*
X340713D01*
Y24973D01*
X340601D01*
Y25085D01*
X340489D01*
Y25198D01*
X340264D01*
Y25310D01*
X340152D01*
Y25422D01*
X339927D01*
Y25534D01*
X339815D01*
Y25647D01*
X339703D01*
Y25759D01*
X339478D01*
Y25871D01*
X339366D01*
Y25984D01*
X339254D01*
Y26096D01*
X339029D01*
Y26208D01*
X338917D01*
Y26432D01*
X339029D01*
Y26320D01*
D02*
G37*
G36*
X338243Y25534D02*
X338468D01*
Y25422D01*
X338692D01*
Y25310D01*
X338805D01*
Y25198D01*
X338917D01*
Y25085D01*
X339029D01*
Y24973D01*
X339141D01*
Y24861D01*
X339254D01*
Y24748D01*
X339366D01*
Y24636D01*
X339478D01*
Y24412D01*
X339590D01*
Y24187D01*
X339703D01*
Y23850D01*
X339590D01*
Y23963D01*
X339366D01*
Y24075D01*
X339254D01*
Y24187D01*
X339141D01*
Y24299D01*
X339029D01*
Y24412D01*
X338917D01*
Y24524D01*
X338805D01*
Y24636D01*
X338692D01*
Y24748D01*
X338580D01*
Y24861D01*
X338468D01*
Y24973D01*
X338355D01*
Y25085D01*
X338243D01*
Y25198D01*
X338131D01*
Y25310D01*
X338019D01*
Y25534D01*
X337906D01*
Y25647D01*
X338243D01*
Y25534D01*
D02*
G37*
%LPC*%
G36*
X79739Y140686D02*
X73246D01*
Y140551D01*
X70947D01*
Y140416D01*
X69459D01*
Y140281D01*
X68242D01*
Y140145D01*
X67159D01*
Y140010D01*
X66212D01*
Y139875D01*
X65401D01*
Y139740D01*
X64589D01*
Y139604D01*
X63913D01*
Y139469D01*
X63236D01*
Y139334D01*
X62560D01*
Y139199D01*
X62019D01*
Y139063D01*
X61478D01*
Y138928D01*
X60802D01*
Y138793D01*
X60261D01*
Y138657D01*
X59855D01*
Y138522D01*
X59314D01*
Y138387D01*
X58773D01*
Y138251D01*
X58367D01*
Y138116D01*
X57961D01*
Y137981D01*
X57555D01*
Y137846D01*
X57149D01*
Y137711D01*
X56743D01*
Y137575D01*
X56338D01*
Y137440D01*
X55932D01*
Y137305D01*
X55526D01*
Y137169D01*
X55255D01*
Y137034D01*
X54850D01*
Y136899D01*
X54444D01*
Y136764D01*
X54173D01*
Y136628D01*
X53903D01*
Y136493D01*
X53497D01*
Y136358D01*
X53226D01*
Y136222D01*
X52956D01*
Y136087D01*
X52685D01*
Y135952D01*
X52280D01*
Y135817D01*
X52009D01*
Y135681D01*
X51738D01*
Y135546D01*
X51468D01*
Y135411D01*
X51197D01*
Y135276D01*
X50927D01*
Y135140D01*
X50656D01*
Y135005D01*
X50386D01*
Y134870D01*
X50250D01*
Y134734D01*
X49980D01*
Y134599D01*
X49709D01*
Y134464D01*
X49439D01*
Y134329D01*
X49303D01*
Y134193D01*
X49033D01*
Y134058D01*
X48762D01*
Y133923D01*
X48627D01*
Y133788D01*
X48357D01*
Y133652D01*
X48221D01*
Y133517D01*
X47951D01*
Y133382D01*
X47815D01*
Y133246D01*
X47545D01*
Y133111D01*
X47410D01*
Y132976D01*
X47274D01*
Y132841D01*
X47004D01*
Y132705D01*
X46869D01*
Y132570D01*
X46598D01*
Y132435D01*
X46463D01*
Y132300D01*
X46328D01*
Y132164D01*
X46192D01*
Y132029D01*
X45922D01*
Y131894D01*
X45786D01*
Y131758D01*
X45651D01*
Y131623D01*
X45516D01*
Y131488D01*
X45381D01*
Y131353D01*
X45245D01*
Y131217D01*
X45110D01*
Y131082D01*
X44975D01*
Y130947D01*
X44840D01*
Y130812D01*
X44704D01*
Y130676D01*
X44569D01*
Y130541D01*
X44434D01*
Y130406D01*
X44299D01*
Y130271D01*
X44163D01*
Y130135D01*
X44028D01*
Y130000D01*
X43893D01*
Y129865D01*
X43757D01*
Y129729D01*
X43622D01*
Y129594D01*
X43487D01*
Y129459D01*
X43352D01*
Y129188D01*
X43216D01*
Y129053D01*
X43081D01*
Y128918D01*
X42946D01*
Y128783D01*
X42811D01*
Y128512D01*
X42675D01*
Y128377D01*
X42540D01*
Y128106D01*
X42405D01*
Y127971D01*
X42269D01*
Y127836D01*
Y127700D01*
X42134D01*
Y127430D01*
X41999D01*
Y127295D01*
X41864D01*
Y127024D01*
X41728D01*
Y126754D01*
X41593D01*
Y126483D01*
X41458D01*
Y126077D01*
X41322D01*
Y125807D01*
X41187D01*
Y125401D01*
X41052D01*
Y124995D01*
X40917D01*
Y124589D01*
X40781D01*
Y123913D01*
X40646D01*
Y122831D01*
X40511D01*
Y121343D01*
X40646D01*
Y120396D01*
X40781D01*
Y119719D01*
X40917D01*
Y119314D01*
X41052D01*
Y118908D01*
X41187D01*
Y118502D01*
X41322D01*
Y118096D01*
X41458D01*
Y117826D01*
X41593D01*
Y117555D01*
X41728D01*
Y117285D01*
X41864D01*
Y117014D01*
X41999D01*
Y116743D01*
X42134D01*
Y116608D01*
X42269D01*
Y116338D01*
X42405D01*
Y116202D01*
X42540D01*
Y115932D01*
X42675D01*
Y115796D01*
X42811D01*
Y115526D01*
X42946D01*
Y115391D01*
X43081D01*
Y115255D01*
X43216D01*
Y114985D01*
X43352D01*
Y114850D01*
X43487D01*
Y114714D01*
X43622D01*
Y114579D01*
X43757D01*
Y114444D01*
X43893D01*
Y114173D01*
X44028D01*
Y114038D01*
X44163D01*
Y113903D01*
X44299D01*
Y113767D01*
X44434D01*
Y113632D01*
X44569D01*
Y113497D01*
X44704D01*
Y113362D01*
X44840D01*
Y113226D01*
X44975D01*
Y113091D01*
X45245D01*
Y112956D01*
X45381D01*
Y112821D01*
X45516D01*
Y112685D01*
X45651D01*
Y112550D01*
X45786D01*
Y112415D01*
X45922D01*
Y112280D01*
X46057D01*
Y112144D01*
X46328D01*
Y112009D01*
X46463D01*
Y111874D01*
X46598D01*
Y111738D01*
X46869D01*
Y111603D01*
X47004D01*
Y111468D01*
X47139D01*
Y111333D01*
X47410D01*
Y111197D01*
X47545D01*
Y111062D01*
X47815D01*
Y110927D01*
X47951D01*
Y110792D01*
X48221D01*
Y110656D01*
X48357D01*
Y110521D01*
X48627D01*
Y110386D01*
X48762D01*
Y110250D01*
X49033D01*
Y110115D01*
X49168D01*
Y109980D01*
X49439D01*
Y109845D01*
X49709D01*
Y109709D01*
X49980D01*
Y109574D01*
X50115D01*
Y109439D01*
X50386D01*
Y109304D01*
X50656D01*
Y109168D01*
X50927D01*
Y109033D01*
X51197D01*
Y108898D01*
X51468D01*
Y108762D01*
X51738D01*
Y108627D01*
X52009D01*
Y108492D01*
X52280D01*
Y108357D01*
X52550D01*
Y108221D01*
X52821D01*
Y108086D01*
X53226D01*
Y107951D01*
X53497D01*
Y107816D01*
X53767D01*
Y107680D01*
X54173D01*
Y107545D01*
X54444D01*
Y107410D01*
X54714D01*
Y107275D01*
X55120D01*
Y107139D01*
X55526D01*
Y107004D01*
X55932D01*
Y106869D01*
X56202D01*
Y106733D01*
X56608D01*
Y106598D01*
X57014D01*
Y106463D01*
X57420D01*
Y106328D01*
X57826D01*
Y106192D01*
X58367D01*
Y106057D01*
X58773D01*
Y105922D01*
X59178D01*
Y105787D01*
X59719D01*
Y105651D01*
X60261D01*
Y105516D01*
X60666D01*
Y105381D01*
X61343D01*
Y105245D01*
X61884D01*
Y105110D01*
X62560D01*
Y104975D01*
X63101D01*
Y104840D01*
X63777D01*
Y104704D01*
X64454D01*
Y104569D01*
X65265D01*
Y104434D01*
X66077D01*
Y104298D01*
X67024D01*
Y104163D01*
X67971D01*
Y104028D01*
X69188D01*
Y103893D01*
X70541D01*
Y103757D01*
X72841D01*
Y103622D01*
X80145D01*
Y103757D01*
X82310D01*
Y103893D01*
X83798D01*
Y104028D01*
X84880D01*
Y104163D01*
X85962D01*
Y104298D01*
X86774D01*
Y104434D01*
X87585D01*
Y104569D01*
X88397D01*
Y104704D01*
X89073D01*
Y104840D01*
X89750D01*
Y104975D01*
X90426D01*
Y105110D01*
X90967D01*
Y105245D01*
X91643D01*
Y105381D01*
X92184D01*
Y105516D01*
X92726D01*
Y105651D01*
X93267D01*
Y105787D01*
X93672D01*
Y105922D01*
X94213D01*
Y106057D01*
X94619D01*
Y106192D01*
X95025D01*
Y106328D01*
X95431D01*
Y106463D01*
X95837D01*
Y106598D01*
X96243D01*
Y106733D01*
X96648D01*
Y106869D01*
X97054D01*
Y107004D01*
X97325D01*
Y107139D01*
X97731D01*
Y107275D01*
X98136D01*
Y107410D01*
X98407D01*
Y107545D01*
X98813D01*
Y107680D01*
X99083D01*
Y107816D01*
X99489D01*
Y107951D01*
X99760D01*
Y108086D01*
X100030D01*
Y108221D01*
X100301D01*
Y108357D01*
X100571D01*
Y108492D01*
X100977D01*
Y108627D01*
X101248D01*
Y108762D01*
X101518D01*
Y108898D01*
X101789D01*
Y109033D01*
X101924D01*
Y109168D01*
X102194D01*
Y109304D01*
X102465D01*
Y109439D01*
X102736D01*
Y109574D01*
X103006D01*
Y109709D01*
X103141D01*
Y109845D01*
X103412D01*
Y109980D01*
X103682D01*
Y110115D01*
X103953D01*
Y110250D01*
X104088D01*
Y110386D01*
X104359D01*
Y110521D01*
X104494D01*
Y110656D01*
X104765D01*
Y110792D01*
X104900D01*
Y110927D01*
X105170D01*
Y111062D01*
X105306D01*
Y111197D01*
X105576D01*
Y111333D01*
X105712D01*
Y111468D01*
X105847D01*
Y111603D01*
X106117D01*
Y111738D01*
X106253D01*
Y111874D01*
X106388D01*
Y112009D01*
X106658D01*
Y112144D01*
X106794D01*
Y112280D01*
X106929D01*
Y112415D01*
X107064D01*
Y112550D01*
X107200D01*
Y112685D01*
X107470D01*
Y112821D01*
X107605D01*
Y112956D01*
X107741D01*
Y113091D01*
X107876D01*
Y113226D01*
X108011D01*
Y113362D01*
X108146D01*
Y113497D01*
X108282D01*
Y113632D01*
X108417D01*
Y113767D01*
X108552D01*
Y113903D01*
X108687D01*
Y114038D01*
X108823D01*
Y114173D01*
X108958D01*
Y114309D01*
X109093D01*
Y114444D01*
X109229D01*
Y114714D01*
X109364D01*
Y114850D01*
X109499D01*
Y114985D01*
X109634D01*
Y115120D01*
X109770D01*
Y115391D01*
X109905D01*
Y115526D01*
X110040D01*
Y115661D01*
X110176D01*
Y115932D01*
X110311D01*
Y116067D01*
X110446D01*
Y116338D01*
X110581D01*
Y116473D01*
X110717D01*
Y116743D01*
X110852D01*
Y117014D01*
X110987D01*
Y117149D01*
X111122D01*
Y117420D01*
X111258D01*
Y117690D01*
X111393D01*
Y118096D01*
X111528D01*
Y118367D01*
X111664D01*
Y118772D01*
X111799D01*
Y119178D01*
X111934D01*
Y119584D01*
X112069D01*
Y120125D01*
X112205D01*
Y121072D01*
X112340D01*
Y123237D01*
X112205D01*
Y124183D01*
X112069D01*
Y124724D01*
X111934D01*
Y125130D01*
X111799D01*
Y125536D01*
X111664D01*
Y125942D01*
X111528D01*
Y126212D01*
X111393D01*
Y126483D01*
X111258D01*
Y126889D01*
X111122D01*
Y127024D01*
X110987D01*
Y127295D01*
X110852D01*
Y127565D01*
X110717D01*
Y127836D01*
X110581D01*
Y127971D01*
X110446D01*
Y128242D01*
X110311D01*
Y128377D01*
X110176D01*
Y128647D01*
X110040D01*
Y128783D01*
X109905D01*
Y128918D01*
X109770D01*
Y129188D01*
X109634D01*
Y129324D01*
X109499D01*
Y129459D01*
X109364D01*
Y129594D01*
X109229D01*
Y129729D01*
X109093D01*
Y130000D01*
X108958D01*
Y130135D01*
X108823D01*
Y130271D01*
X108687D01*
Y130406D01*
X108552D01*
Y130541D01*
X108417D01*
Y130676D01*
X108282D01*
Y130812D01*
X108146D01*
Y130947D01*
X108011D01*
Y131082D01*
X107876D01*
Y131217D01*
X107741D01*
Y131353D01*
X107470D01*
Y131488D01*
X107335D01*
Y131623D01*
X107200D01*
Y131758D01*
X107064D01*
Y131894D01*
X106929D01*
Y132029D01*
X106794D01*
Y132164D01*
X106523D01*
Y132300D01*
X106388D01*
Y132435D01*
X106253D01*
Y132570D01*
X106117D01*
Y132705D01*
X105847D01*
Y132841D01*
X105712D01*
Y132976D01*
X105441D01*
Y133111D01*
X105306D01*
Y133246D01*
X105170D01*
Y133382D01*
X104900D01*
Y133517D01*
X104765D01*
Y133652D01*
X104494D01*
Y133788D01*
X104224D01*
Y133923D01*
X104088D01*
Y134058D01*
X103818D01*
Y134193D01*
X103682D01*
Y134329D01*
X103412D01*
Y134464D01*
X103141D01*
Y134599D01*
X103006D01*
Y134734D01*
X102736D01*
Y134870D01*
X102465D01*
Y135005D01*
X102194D01*
Y135140D01*
X101924D01*
Y135276D01*
X101653D01*
Y135411D01*
X101383D01*
Y135546D01*
X101112D01*
Y135681D01*
X100842D01*
Y135817D01*
X100571D01*
Y135952D01*
X100301D01*
Y136087D01*
X100030D01*
Y136222D01*
X99624D01*
Y136358D01*
X99354D01*
Y136493D01*
X99083D01*
Y136628D01*
X98678D01*
Y136764D01*
X98407D01*
Y136899D01*
X98001D01*
Y137034D01*
X97731D01*
Y137169D01*
X97325D01*
Y137305D01*
X96919D01*
Y137440D01*
X96648D01*
Y137575D01*
X96243D01*
Y137711D01*
X95837D01*
Y137846D01*
X95431D01*
Y137981D01*
X94890D01*
Y138116D01*
X94484D01*
Y138251D01*
X94078D01*
Y138387D01*
X93537D01*
Y138522D01*
X93131D01*
Y138657D01*
X92590D01*
Y138793D01*
X92049D01*
Y138928D01*
X91508D01*
Y139063D01*
X90967D01*
Y139199D01*
X90291D01*
Y139334D01*
X89614D01*
Y139469D01*
X88938D01*
Y139604D01*
X88262D01*
Y139740D01*
X87585D01*
Y139875D01*
X86638D01*
Y140010D01*
X85691D01*
Y140145D01*
X84609D01*
Y140281D01*
X83527D01*
Y140416D01*
X81769D01*
Y140551D01*
X79739D01*
Y140686D01*
D02*
G37*
%LPD*%
G36*
X65942Y138522D02*
X66077D01*
Y138251D01*
X66212D01*
Y137711D01*
X66348D01*
Y137305D01*
X66483D01*
Y136899D01*
X66618D01*
Y136493D01*
X66754D01*
Y135952D01*
X66889D01*
Y135546D01*
X67024D01*
Y135140D01*
X67159D01*
Y134734D01*
X67295D01*
Y134329D01*
X67430D01*
Y133923D01*
X67565D01*
Y133517D01*
X67700D01*
Y133111D01*
X67836D01*
Y132841D01*
X67971D01*
Y132435D01*
X68106D01*
Y132164D01*
X68242D01*
Y131894D01*
X68377D01*
Y131623D01*
X68512D01*
Y131488D01*
X68647D01*
Y131217D01*
X68783D01*
Y131082D01*
X68918D01*
Y130947D01*
X69053D01*
Y130812D01*
X69188D01*
Y130676D01*
X69324D01*
Y130541D01*
X69459D01*
Y130406D01*
X69594D01*
Y130271D01*
X69729D01*
Y130135D01*
X70000D01*
Y130000D01*
X70271D01*
Y129865D01*
X70676D01*
Y129729D01*
X71082D01*
Y129594D01*
X71488D01*
Y129459D01*
X72029D01*
Y129324D01*
X72705D01*
Y129188D01*
X73652D01*
Y129053D01*
X74599D01*
Y128918D01*
X75681D01*
Y128783D01*
X76764D01*
Y128647D01*
X77846D01*
Y128512D01*
X78928D01*
Y128377D01*
X80010D01*
Y128242D01*
X81092D01*
Y128106D01*
X82174D01*
Y127971D01*
X83257D01*
Y127836D01*
X84474D01*
Y127700D01*
X85691D01*
Y127565D01*
X86909D01*
Y127430D01*
X90696D01*
Y127565D01*
X91779D01*
Y127700D01*
X92726D01*
Y127836D01*
X94078D01*
Y127971D01*
X94890D01*
Y128106D01*
X95431D01*
Y128242D01*
X95837D01*
Y128377D01*
X95972D01*
Y128512D01*
X96243D01*
Y128647D01*
X96378D01*
Y128783D01*
X96513D01*
Y128918D01*
X96648D01*
Y129188D01*
X96784D01*
Y129324D01*
X96919D01*
Y129594D01*
X97054D01*
Y130000D01*
X97190D01*
Y130271D01*
X97325D01*
Y130676D01*
X97460D01*
Y131217D01*
X97595D01*
Y131623D01*
X97731D01*
Y131894D01*
X97866D01*
Y132029D01*
X98272D01*
Y131894D01*
X98407D01*
Y131623D01*
X98542D01*
Y131217D01*
X98678D01*
Y130812D01*
X98813D01*
Y130541D01*
X98948D01*
Y130135D01*
X99083D01*
Y129865D01*
X99219D01*
Y129459D01*
X99354D01*
Y129053D01*
X99489D01*
Y128918D01*
X99624D01*
Y128647D01*
X99895D01*
Y128512D01*
X100030D01*
Y128377D01*
X100301D01*
Y128242D01*
X100571D01*
Y128106D01*
X101112D01*
Y127971D01*
X102059D01*
Y127836D01*
X102871D01*
Y127700D01*
X103682D01*
Y127565D01*
X104629D01*
Y127430D01*
X105441D01*
Y127295D01*
X106253D01*
Y127159D01*
X106523D01*
Y127024D01*
X106658D01*
Y126618D01*
X106523D01*
Y126483D01*
X106253D01*
Y126348D01*
X105441D01*
Y126212D01*
X104629D01*
Y126077D01*
X103953D01*
Y125942D01*
X103141D01*
Y125807D01*
X102059D01*
Y125671D01*
X101248D01*
Y125536D01*
X100707D01*
Y125401D01*
X100301D01*
Y125266D01*
X100030D01*
Y125130D01*
X99895D01*
Y124995D01*
X99760D01*
Y124860D01*
X99624D01*
Y124724D01*
X99489D01*
Y124454D01*
X99354D01*
Y124048D01*
X99219D01*
Y123642D01*
X99083D01*
Y123237D01*
X98948D01*
Y122695D01*
X98813D01*
Y122290D01*
X98678D01*
Y121749D01*
X98542D01*
Y121343D01*
X98407D01*
Y121072D01*
X98272D01*
Y120937D01*
X97866D01*
Y121072D01*
X97731D01*
Y121207D01*
X97595D01*
Y121613D01*
X97460D01*
Y122154D01*
X97325D01*
Y122695D01*
X97190D01*
Y123237D01*
X97054D01*
Y123642D01*
X96919D01*
Y124048D01*
X96784D01*
Y124454D01*
X96648D01*
Y124724D01*
X96513D01*
Y124995D01*
X96378D01*
Y125130D01*
X96243D01*
Y125266D01*
X95972D01*
Y125401D01*
X95702D01*
Y125536D01*
X95160D01*
Y125671D01*
X94349D01*
Y125807D01*
X93267D01*
Y125942D01*
X91779D01*
Y126077D01*
X90291D01*
Y126212D01*
X88262D01*
Y126077D01*
X86097D01*
Y125942D01*
X84609D01*
Y125807D01*
X83257D01*
Y125671D01*
X82039D01*
Y125536D01*
X80822D01*
Y125401D01*
X79739D01*
Y125266D01*
X78657D01*
Y125130D01*
X77575D01*
Y124995D01*
X76493D01*
Y124860D01*
X75546D01*
Y124724D01*
X74464D01*
Y124589D01*
X73382D01*
Y124454D01*
X72570D01*
Y124319D01*
X71758D01*
Y124183D01*
X71217D01*
Y124048D01*
X70812D01*
Y123913D01*
X70541D01*
Y123778D01*
X70271D01*
Y123642D01*
X70000D01*
Y123507D01*
X69729D01*
Y123372D01*
X69594D01*
Y123237D01*
X69459D01*
Y123101D01*
X69324D01*
Y122966D01*
X69188D01*
Y122831D01*
X69053D01*
Y122695D01*
X68918D01*
Y122425D01*
X68783D01*
Y122290D01*
X68647D01*
Y122019D01*
X68512D01*
Y121749D01*
X68377D01*
Y121478D01*
X68242D01*
Y121072D01*
X68106D01*
Y120666D01*
X67971D01*
Y120260D01*
X67836D01*
Y119855D01*
X67700D01*
Y119314D01*
X67565D01*
Y118772D01*
X67430D01*
Y118367D01*
X67295D01*
Y117826D01*
X67159D01*
Y117285D01*
X67024D01*
Y116743D01*
X66889D01*
Y116338D01*
X66754D01*
Y115796D01*
X66618D01*
Y115255D01*
X66483D01*
Y114714D01*
X66348D01*
Y114173D01*
X66212D01*
Y113497D01*
X66077D01*
Y113091D01*
X65942D01*
Y112821D01*
X65807D01*
Y112685D01*
X65536D01*
Y112821D01*
X65265D01*
Y113091D01*
X65130D01*
Y113767D01*
X64995D01*
Y114309D01*
X64860D01*
Y114714D01*
X64724D01*
Y115391D01*
X64589D01*
Y115932D01*
X64454D01*
Y116473D01*
X64319D01*
Y117014D01*
X64183D01*
Y117690D01*
X64048D01*
Y118231D01*
X63913D01*
Y118772D01*
X63777D01*
Y119449D01*
X63642D01*
Y119855D01*
X63507D01*
Y120260D01*
X63372D01*
Y120666D01*
X63236D01*
Y121072D01*
X63101D01*
Y121343D01*
X62966D01*
Y121613D01*
X62831D01*
Y122019D01*
X62695D01*
Y122154D01*
X62560D01*
Y122425D01*
X62425D01*
Y122695D01*
X62290D01*
Y122831D01*
X62154D01*
Y122966D01*
X62019D01*
Y123101D01*
X61884D01*
Y123237D01*
X61748D01*
Y123372D01*
X61613D01*
Y123507D01*
X61478D01*
Y123642D01*
X61207D01*
Y123778D01*
X60802D01*
Y123913D01*
X60531D01*
Y124048D01*
X59990D01*
Y124183D01*
X59449D01*
Y124319D01*
X58773D01*
Y124454D01*
X57826D01*
Y124589D01*
X56879D01*
Y124724D01*
X55932D01*
Y124860D01*
X54985D01*
Y124995D01*
X54038D01*
Y125130D01*
X53091D01*
Y125266D01*
X52144D01*
Y125401D01*
X51197D01*
Y125536D01*
X50115D01*
Y125671D01*
X49168D01*
Y125807D01*
X48221D01*
Y125942D01*
X47004D01*
Y126077D01*
X46057D01*
Y126212D01*
X45110D01*
Y126348D01*
X44163D01*
Y126483D01*
X43893D01*
Y126618D01*
X43757D01*
Y127024D01*
X43893D01*
Y127159D01*
X44299D01*
Y127295D01*
X45381D01*
Y127430D01*
X46328D01*
Y127565D01*
X47410D01*
Y127700D01*
X48357D01*
Y127836D01*
X49303D01*
Y127971D01*
X50250D01*
Y128106D01*
X51197D01*
Y128242D01*
X52144D01*
Y128377D01*
X53091D01*
Y128512D01*
X54038D01*
Y128647D01*
X55120D01*
Y128783D01*
X56067D01*
Y128918D01*
X57149D01*
Y129053D01*
X58096D01*
Y129188D01*
X58773D01*
Y129324D01*
X59449D01*
Y129459D01*
X59990D01*
Y129594D01*
X60396D01*
Y129729D01*
X60666D01*
Y129865D01*
X61072D01*
Y130000D01*
X61343D01*
Y130135D01*
X61478D01*
Y130271D01*
X61748D01*
Y130406D01*
X61884D01*
Y130541D01*
X62019D01*
Y130676D01*
X62154D01*
Y130812D01*
X62290D01*
Y130947D01*
X62425D01*
Y131082D01*
X62560D01*
Y131353D01*
X62695D01*
Y131623D01*
X62831D01*
Y131894D01*
X62966D01*
Y132164D01*
X63101D01*
Y132435D01*
X63236D01*
Y132705D01*
X63372D01*
Y132841D01*
Y133111D01*
X63507D01*
Y133517D01*
X63642D01*
Y133923D01*
X63777D01*
Y134193D01*
X63913D01*
Y134599D01*
X64048D01*
Y135005D01*
X64183D01*
Y135411D01*
X64319D01*
Y135817D01*
X64454D01*
Y136222D01*
X64589D01*
Y136628D01*
X64724D01*
Y137034D01*
X64860D01*
Y137575D01*
X64995D01*
Y137981D01*
X65130D01*
Y138387D01*
X65265D01*
Y138657D01*
X65401D01*
Y138793D01*
X65942D01*
Y138522D01*
D02*
G37*
G36*
X87044Y124319D02*
X87179D01*
Y124048D01*
X87315D01*
Y123642D01*
X87450D01*
Y123237D01*
X87585D01*
Y122831D01*
X87720D01*
Y122425D01*
X87856D01*
Y122154D01*
X87991D01*
Y121884D01*
X88126D01*
Y121613D01*
X88262D01*
Y121343D01*
X88397D01*
Y121207D01*
X88532D01*
Y121072D01*
X88667D01*
Y120937D01*
X88803D01*
Y120802D01*
X89073D01*
Y120666D01*
X89479D01*
Y120531D01*
X90020D01*
Y120396D01*
X90696D01*
Y120260D01*
X91779D01*
Y120125D01*
X92861D01*
Y119990D01*
X93943D01*
Y119855D01*
X96919D01*
Y119990D01*
X97866D01*
Y120125D01*
X98678D01*
Y120260D01*
X99354D01*
Y120396D01*
X100030D01*
Y120531D01*
X100301D01*
Y120666D01*
X100571D01*
Y120802D01*
X100842D01*
Y120937D01*
X100977D01*
Y121072D01*
X101112D01*
Y121207D01*
X101248D01*
Y121478D01*
X101383D01*
Y121884D01*
X101518D01*
Y122154D01*
X101653D01*
Y122560D01*
X101789D01*
Y122966D01*
X101924D01*
Y123237D01*
X102059D01*
Y123507D01*
X102194D01*
Y123642D01*
X102330D01*
Y123778D01*
X102465D01*
Y123642D01*
X102736D01*
Y123372D01*
X102871D01*
Y123237D01*
X103006D01*
Y122831D01*
X103141D01*
Y122560D01*
X103277D01*
Y122154D01*
X103412D01*
Y121749D01*
X103547D01*
Y121478D01*
X103682D01*
Y121207D01*
X103818D01*
Y121072D01*
X103953D01*
Y120937D01*
X104088D01*
Y120802D01*
X104359D01*
Y120666D01*
X104765D01*
Y120531D01*
X105306D01*
Y120396D01*
X105982D01*
Y120260D01*
X106523D01*
Y120125D01*
X107200D01*
Y119990D01*
X107876D01*
Y119855D01*
X108823D01*
Y119719D01*
X109364D01*
Y119584D01*
X109634D01*
Y119043D01*
X109364D01*
Y118908D01*
X108823D01*
Y118772D01*
X107741D01*
Y118637D01*
X106794D01*
Y118502D01*
X106117D01*
Y118367D01*
X105441D01*
Y118231D01*
X104900D01*
Y118096D01*
X104494D01*
Y117961D01*
X104359D01*
Y117826D01*
X104088D01*
Y117690D01*
X103953D01*
Y117555D01*
X103818D01*
Y117285D01*
X103682D01*
Y117149D01*
X103547D01*
Y116743D01*
X103412D01*
Y116338D01*
X103277D01*
Y115932D01*
X103141D01*
Y115391D01*
X103006D01*
Y114850D01*
X102871D01*
Y114444D01*
X102736D01*
Y114309D01*
X102330D01*
Y114444D01*
X102194D01*
Y114714D01*
X102059D01*
Y114985D01*
X101924D01*
Y115391D01*
X101789D01*
Y115796D01*
X101653D01*
Y116338D01*
X101518D01*
Y116743D01*
X101383D01*
Y117149D01*
X101248D01*
Y117420D01*
X101112D01*
Y117555D01*
X100977D01*
Y117690D01*
X100842D01*
Y117826D01*
X100707D01*
Y117961D01*
X100436D01*
Y118096D01*
X100030D01*
Y118231D01*
X99219D01*
Y118367D01*
X98272D01*
Y118502D01*
X97325D01*
Y118637D01*
X94078D01*
Y118502D01*
X92996D01*
Y118367D01*
X92184D01*
Y118231D01*
X91373D01*
Y118096D01*
X90561D01*
Y117961D01*
X89750D01*
Y117826D01*
X89208D01*
Y117690D01*
X88803D01*
Y117555D01*
X88667D01*
Y117420D01*
X88532D01*
Y117285D01*
X88397D01*
Y117149D01*
X88262D01*
Y116879D01*
X88126D01*
Y116473D01*
X87991D01*
Y116202D01*
X87856D01*
Y115661D01*
X87720D01*
Y115255D01*
X87585D01*
Y114714D01*
X87450D01*
Y114173D01*
X87315D01*
Y113767D01*
X87179D01*
Y113362D01*
X87044D01*
Y113226D01*
X86638D01*
Y113362D01*
X86503D01*
Y113632D01*
X86368D01*
Y114038D01*
X86233D01*
Y114579D01*
X86097D01*
Y114985D01*
X85962D01*
Y115391D01*
X85827D01*
Y115932D01*
X85691D01*
Y116338D01*
X85556D01*
Y116743D01*
X85421D01*
Y117149D01*
X85286D01*
Y117285D01*
X85150D01*
Y117420D01*
X85015D01*
Y117555D01*
X84880D01*
Y117690D01*
X84609D01*
Y117826D01*
X84204D01*
Y117961D01*
X83527D01*
Y118096D01*
X82580D01*
Y118231D01*
X81633D01*
Y118367D01*
X80416D01*
Y118502D01*
X79469D01*
Y118637D01*
X78793D01*
Y118772D01*
X78116D01*
Y118908D01*
X77846D01*
Y119043D01*
X77575D01*
Y119449D01*
X77710D01*
Y119584D01*
X78116D01*
Y119719D01*
X78793D01*
Y119855D01*
X79739D01*
Y119990D01*
X80957D01*
Y120125D01*
X82310D01*
Y120260D01*
X83257D01*
Y120396D01*
X83798D01*
Y120531D01*
X84339D01*
Y120666D01*
X84609D01*
Y120802D01*
X84880D01*
Y120937D01*
X85150D01*
Y121207D01*
X85286D01*
Y121343D01*
X85421D01*
Y121613D01*
X85556D01*
Y121884D01*
X85691D01*
Y122290D01*
X85827D01*
Y122695D01*
X85962D01*
Y123101D01*
X86097D01*
Y123507D01*
X86233D01*
Y123913D01*
X86368D01*
Y124183D01*
X86503D01*
Y124454D01*
X86638D01*
Y124589D01*
X87044D01*
Y124319D01*
D02*
G37*
G36*
X75546Y116743D02*
X75681D01*
Y116473D01*
X75817D01*
Y116067D01*
X75952D01*
Y115661D01*
X76087D01*
Y115255D01*
X76222D01*
Y114850D01*
X76358D01*
Y114579D01*
X76493D01*
Y114309D01*
X76628D01*
Y114038D01*
X76764D01*
Y113767D01*
X76899D01*
Y113632D01*
X77034D01*
Y113497D01*
X77169D01*
Y113362D01*
X77305D01*
Y113226D01*
X77575D01*
Y113091D01*
X77846D01*
Y112956D01*
X78387D01*
Y112821D01*
X78928D01*
Y112685D01*
X80010D01*
Y112550D01*
X81092D01*
Y112415D01*
X82310D01*
Y112280D01*
X86368D01*
Y112415D01*
X87315D01*
Y112550D01*
X88126D01*
Y112685D01*
X88938D01*
Y112821D01*
X89614D01*
Y112956D01*
X90020D01*
Y113091D01*
X90291D01*
Y113226D01*
X90426D01*
Y113362D01*
X90561D01*
Y113632D01*
X90696D01*
Y113767D01*
X90832D01*
Y114038D01*
X90967D01*
Y114444D01*
X91102D01*
Y114850D01*
X91238D01*
Y115255D01*
X91373D01*
Y115661D01*
X91508D01*
Y116067D01*
X91643D01*
Y116338D01*
X92184D01*
Y116202D01*
X92320D01*
Y116067D01*
X92455D01*
Y115661D01*
X92590D01*
Y115255D01*
X92726D01*
Y114850D01*
X92861D01*
Y114444D01*
X92996D01*
Y114038D01*
X93131D01*
Y113767D01*
X93267D01*
Y113497D01*
X93402D01*
Y113362D01*
X93672D01*
Y113226D01*
X93808D01*
Y113091D01*
X94213D01*
Y112956D01*
X94755D01*
Y112821D01*
X95566D01*
Y112685D01*
X96513D01*
Y112550D01*
X97460D01*
Y112415D01*
X98542D01*
Y112280D01*
X99624D01*
Y112144D01*
X100301D01*
Y112009D01*
X100571D01*
Y111468D01*
X100301D01*
Y111333D01*
X99354D01*
Y111197D01*
X98407D01*
Y111062D01*
X97460D01*
Y110927D01*
X96513D01*
Y110792D01*
X95566D01*
Y110656D01*
X94755D01*
Y110521D01*
X94349D01*
Y110386D01*
X93943D01*
Y110250D01*
X93808D01*
Y110115D01*
X93672D01*
Y109980D01*
X93402D01*
Y109709D01*
X93267D01*
Y109439D01*
X93131D01*
Y109168D01*
X92996D01*
Y108762D01*
X92861D01*
Y108492D01*
X92726D01*
Y107951D01*
X92590D01*
Y107545D01*
X92455D01*
Y107275D01*
X92320D01*
Y107004D01*
X91779D01*
Y107139D01*
X91643D01*
Y107545D01*
X91508D01*
Y107951D01*
X91373D01*
Y108357D01*
X91238D01*
Y108762D01*
X91102D01*
Y109168D01*
X90967D01*
Y109439D01*
X90832D01*
Y109709D01*
X90696D01*
Y109980D01*
X90561D01*
Y110115D01*
X90426D01*
Y110250D01*
X90155D01*
Y110386D01*
X89750D01*
Y110521D01*
X89073D01*
Y110656D01*
X88262D01*
Y110792D01*
X87315D01*
Y110927D01*
X86368D01*
Y111062D01*
X82716D01*
Y110927D01*
X81633D01*
Y110792D01*
X80822D01*
Y110656D01*
X79875D01*
Y110521D01*
X79063D01*
Y110386D01*
X78252D01*
Y110250D01*
X77710D01*
Y110115D01*
X77440D01*
Y109980D01*
X77169D01*
Y109845D01*
X77034D01*
Y109709D01*
X76899D01*
Y109439D01*
X76764D01*
Y109168D01*
X76628D01*
Y108898D01*
X76493D01*
Y108492D01*
X76358D01*
Y107951D01*
X76222D01*
Y107545D01*
X76087D01*
Y107004D01*
X75952D01*
Y106463D01*
X75817D01*
Y106057D01*
X75681D01*
Y105787D01*
X75546D01*
Y105651D01*
X75276D01*
Y105787D01*
X75140D01*
Y105922D01*
X75005D01*
Y106328D01*
X74870D01*
Y106733D01*
X74735D01*
Y107139D01*
X74599D01*
Y107680D01*
X74464D01*
Y108086D01*
X74329D01*
Y108492D01*
X74193D01*
Y108898D01*
X74058D01*
Y109304D01*
X73923D01*
Y109574D01*
X73788D01*
Y109845D01*
X73652D01*
Y109980D01*
X73382D01*
Y110115D01*
X73111D01*
Y110250D01*
X72705D01*
Y110386D01*
X72029D01*
Y110521D01*
X71082D01*
Y110656D01*
X70000D01*
Y110792D01*
X68918D01*
Y110927D01*
X67971D01*
Y111062D01*
X67159D01*
Y111197D01*
X66618D01*
Y111333D01*
X66348D01*
Y111468D01*
X66212D01*
Y111603D01*
X66077D01*
Y111738D01*
X66212D01*
Y111874D01*
X66348D01*
Y112009D01*
X66889D01*
Y112144D01*
X67565D01*
Y112280D01*
X68647D01*
Y112415D01*
X70000D01*
Y112550D01*
X71082D01*
Y112685D01*
X72029D01*
Y112821D01*
X72570D01*
Y112956D01*
X72976D01*
Y113091D01*
X73382D01*
Y113226D01*
X73517D01*
Y113362D01*
X73652D01*
Y113497D01*
X73788D01*
Y113632D01*
X73923D01*
Y113903D01*
X74058D01*
Y114173D01*
X74193D01*
Y114444D01*
X74329D01*
Y114850D01*
X74464D01*
Y115255D01*
X74599D01*
Y115661D01*
X74735D01*
Y115796D01*
Y116067D01*
X74870D01*
Y116473D01*
X75005D01*
Y116743D01*
X75140D01*
Y116879D01*
X75546D01*
Y116743D01*
D02*
G37*
%LPC*%
G36*
X84609Y90636D02*
X84474D01*
Y90366D01*
X84339D01*
Y90095D01*
X84204D01*
Y89824D01*
X84068D01*
Y89554D01*
X83933D01*
Y89283D01*
X83798D01*
Y89148D01*
X83662D01*
Y88878D01*
X83527D01*
Y88607D01*
X83392D01*
Y88336D01*
X83257D01*
Y88066D01*
X83121D01*
Y87795D01*
X82986D01*
Y87525D01*
X82851D01*
Y87254D01*
X82716D01*
Y86984D01*
X82580D01*
Y86713D01*
X82445D01*
Y86578D01*
X82310D01*
Y86307D01*
X82174D01*
Y86037D01*
X82039D01*
Y85766D01*
X87044D01*
Y86037D01*
X86909D01*
Y86307D01*
X86774D01*
Y86578D01*
X86638D01*
Y86848D01*
X86503D01*
Y87119D01*
X86368D01*
Y87390D01*
X86233D01*
Y87525D01*
X86097D01*
Y87795D01*
X85962D01*
Y88066D01*
X85827D01*
Y88336D01*
X85691D01*
Y88607D01*
X85556D01*
Y88878D01*
X85421D01*
Y89148D01*
X85286D01*
Y89419D01*
X85150D01*
Y89689D01*
X85015D01*
Y89960D01*
X84880D01*
Y90230D01*
X84745D01*
Y90501D01*
X84609D01*
Y90636D01*
D02*
G37*
G36*
X131278Y82385D02*
X131007D01*
Y82249D01*
X130737D01*
Y82114D01*
X130602D01*
Y81979D01*
X130466D01*
Y81843D01*
X130331D01*
Y81167D01*
X130466D01*
Y80897D01*
X130602D01*
Y80761D01*
X130872D01*
Y80626D01*
X131413D01*
Y80761D01*
X131684D01*
Y80897D01*
X131819D01*
Y81167D01*
X131954D01*
Y81843D01*
X131819D01*
Y82114D01*
X131684D01*
Y82249D01*
X131278D01*
Y82385D01*
D02*
G37*
%LPD*%
G36*
Y81979D02*
X131548D01*
Y81573D01*
X131413D01*
Y81302D01*
X131548D01*
Y80897D01*
X131413D01*
Y81032D01*
X131278D01*
Y81302D01*
X131143D01*
Y81438D01*
X131007D01*
Y80897D01*
X130737D01*
Y81573D01*
Y81708D01*
Y81979D01*
X130872D01*
Y82114D01*
X131278D01*
Y81979D01*
D02*
G37*
%LPC*%
G36*
X131143D02*
X131007D01*
Y81843D01*
Y81573D01*
X131278D01*
Y81708D01*
X131413D01*
Y81843D01*
X131143D01*
Y81979D01*
D02*
G37*
G36*
X106658Y91313D02*
X98813D01*
Y88742D01*
X106929D01*
Y88878D01*
X107200D01*
Y89013D01*
X107335D01*
Y89148D01*
X107470D01*
Y89419D01*
X107605D01*
Y90636D01*
X107470D01*
Y90771D01*
X107335D01*
Y90907D01*
X107200D01*
Y91042D01*
X107064D01*
Y91177D01*
X106658D01*
Y91313D01*
D02*
G37*
G36*
X70947D02*
X62560D01*
Y88878D01*
X70812D01*
Y89013D01*
X71082D01*
Y89148D01*
X71217D01*
Y89283D01*
Y89419D01*
X71353D01*
Y89824D01*
X71488D01*
Y90501D01*
X71353D01*
Y90907D01*
X71217D01*
Y91042D01*
X71082D01*
Y91177D01*
X70947D01*
Y91313D01*
D02*
G37*
G36*
X70676Y86307D02*
X70000D01*
Y86172D01*
X69729D01*
Y86307D01*
X69594D01*
Y86172D01*
X69324D01*
Y86307D01*
X69188D01*
Y86172D01*
X68918D01*
Y86307D01*
X68783D01*
Y86172D01*
X68512D01*
Y86307D01*
X68377D01*
Y86172D01*
X67971D01*
Y86307D01*
X65942D01*
Y86172D01*
X65671D01*
Y86307D01*
X65536D01*
Y86172D01*
X65265D01*
Y86307D01*
X65130D01*
Y86172D01*
X64860D01*
Y86307D01*
X64724D01*
Y86172D01*
X64454D01*
Y86307D01*
X64319D01*
Y86172D01*
X63913D01*
Y86307D01*
X62695D01*
Y86172D01*
X62560D01*
Y83331D01*
X70947D01*
Y83467D01*
X71217D01*
Y83602D01*
X71353D01*
Y83737D01*
X71488D01*
Y84008D01*
X71623D01*
Y84414D01*
X71758D01*
Y85225D01*
X71623D01*
Y85631D01*
X71488D01*
Y85902D01*
X71353D01*
Y86037D01*
X71082D01*
Y86172D01*
X70676D01*
Y86307D01*
D02*
G37*
%LPD*%
D10*
X131250Y455250D02*
G03*
X131250Y455250I-1250J0D01*
G01*
X168250Y275000D02*
G03*
X168250Y275000I-1250J0D01*
G01*
X484250Y187500D02*
G03*
X484250Y187500I-1250J0D01*
G01*
X98623Y190607D02*
G03*
X98623Y190607I-1250J0D01*
G01*
X201250Y142500D02*
G03*
X201250Y142500I-1250J0D01*
G01*
X449000Y374500D02*
G03*
X449000Y374500I-1250J0D01*
G01*
X305500Y416250D02*
G03*
X305500Y416250I-1250J0D01*
G01*
D11*
X595250Y370000D02*
G03*
X595250Y370000I-750J0D01*
G01*
Y320000D02*
G03*
X595250Y320000I-750J0D01*
G01*
X496500Y42748D02*
X497750Y43998D01*
X500249D01*
X501498Y42748D01*
Y37750D01*
X500249Y36500D01*
X497750D01*
X496500Y37750D01*
Y42748D01*
X503998Y43998D02*
X508996D01*
Y42748D01*
X503998Y37750D01*
Y36500D01*
X511495D02*
X516494Y41498D01*
X518993Y42748D02*
X520242Y43998D01*
X522742D01*
X523991Y42748D01*
Y37750D01*
X522742Y36500D01*
X520242D01*
X518993Y37750D01*
Y42748D01*
X526490Y37750D02*
X527740Y36500D01*
X530239D01*
X531489Y37750D01*
Y42748D01*
X530239Y43998D01*
X527740D01*
X526490Y42748D01*
Y41498D01*
X527740Y40249D01*
X531489D01*
X533988Y36500D02*
X538986Y41498D01*
X546484Y36500D02*
X541486D01*
X546484Y41498D01*
Y42748D01*
X545234Y43998D01*
X542735D01*
X541486Y42748D01*
X548983D02*
X550233Y43998D01*
X552732D01*
X553982Y42748D01*
Y37750D01*
X552732Y36500D01*
X550233D01*
X548983Y37750D01*
Y42748D01*
X561479Y36500D02*
X556481D01*
X561479Y41498D01*
Y42748D01*
X560229Y43998D01*
X557730D01*
X556481Y42748D01*
X567727Y36500D02*
Y43998D01*
X563978Y40249D01*
X568977D01*
X496500Y58998D02*
Y53999D01*
X498999Y51500D01*
X501498Y53999D01*
Y58998D01*
X503998Y51500D02*
X506497D01*
X505247D01*
Y58998D01*
X503998Y57748D01*
X496500Y73998D02*
Y66500D01*
X500249D01*
X501498Y67750D01*
Y68999D01*
X500249Y70249D01*
X496500D01*
X500249D01*
X501498Y71498D01*
Y72748D01*
X500249Y73998D01*
X496500D01*
X503998Y66500D02*
Y73998D01*
X507746D01*
X508996Y72748D01*
Y70249D01*
X507746Y68999D01*
X503998D01*
X506497D02*
X508996Y66500D01*
X511495Y73998D02*
X516494D01*
Y72748D01*
X511495Y67750D01*
Y66500D01*
X516494D01*
D12*
X472000Y361000D02*
G03*
X472000Y361000I-3000J0D01*
G01*
D13*
X276750Y469250D02*
X315500D01*
X84500D02*
X123250D01*
X84500D02*
Y510750D01*
X276750D02*
X315500D01*
X84500D02*
X123250D01*
X315500Y469250D02*
Y510750D01*
X173500Y223500D02*
X177250D01*
X173500D02*
Y227250D01*
X222750Y223500D02*
X226500D01*
Y227250D01*
Y272750D02*
Y276500D01*
X222750D02*
X226500D01*
X173500D02*
X177250D01*
X173500Y272750D02*
Y276500D01*
X173250Y303638D02*
Y316362D01*
X159750Y303638D02*
Y316362D01*
X502755Y163000D02*
X507245D01*
X502755Y193000D02*
X507245D01*
X575469Y212719D02*
X604531D01*
X575469Y235281D02*
X604531D01*
X449719Y163469D02*
Y192531D01*
X472281Y163469D02*
Y192531D01*
X525250Y176638D02*
Y189362D01*
X538750Y176638D02*
Y189362D01*
X563250Y209000D02*
X586750D01*
X563250Y147000D02*
X586750D01*
X576469Y120719D02*
X605531D01*
X576469Y143281D02*
X605531D01*
X95782Y178409D02*
X118409Y155782D01*
X121591Y204218D02*
X144219Y181591D01*
X141053Y184714D02*
X153427Y172340D01*
X153057Y196794D02*
X165432Y184419D01*
X134656Y215238D02*
X147030Y202863D01*
X122652Y203158D02*
X135026Y190783D01*
X175250Y124500D02*
Y135500D01*
X204750Y124500D02*
Y135500D01*
X200000Y183638D02*
Y196362D01*
X186500Y183638D02*
Y196362D01*
X213500Y183638D02*
Y196362D01*
X200000Y183638D02*
Y196362D01*
X253638Y223000D02*
X266362D01*
X253638Y236500D02*
X266362D01*
X253638D02*
X266362D01*
X253638Y250000D02*
X266362D01*
X253638Y260000D02*
X266362D01*
X253638Y273500D02*
X266362D01*
X186750Y303638D02*
Y316362D01*
X173250Y303638D02*
Y316362D01*
X205000Y303638D02*
Y316362D01*
X191500Y303638D02*
Y316362D01*
X218500Y303638D02*
Y316362D01*
X205000Y303638D02*
Y316362D01*
X253638Y273500D02*
X266362D01*
X253638Y287000D02*
X266362D01*
X236750Y303638D02*
Y316362D01*
X223250Y303638D02*
Y316362D01*
X250250Y303638D02*
Y316362D01*
X236750Y303638D02*
Y316362D01*
X407500Y474000D02*
X407750D01*
X430250D02*
X430500D01*
Y507000D01*
X407500D02*
X407750D01*
X430250D02*
X430500D01*
X407500Y474000D02*
Y507000D01*
X348500Y473500D02*
X348750D01*
X371250D02*
X371500D01*
Y506500D01*
X348500D02*
X348750D01*
X371250D02*
X371500D01*
X348500Y473500D02*
Y506500D01*
X459000Y309000D02*
X521000D01*
X459000Y371000D02*
X521000D01*
Y309000D02*
Y371000D01*
X459000Y309000D02*
Y371000D01*
X476500Y413650D02*
X486500D01*
X476500Y426350D02*
X486500D01*
X403650Y328500D02*
Y338500D01*
X416350Y328500D02*
Y338500D01*
X521786Y253750D02*
X531786D01*
X521786Y239250D02*
X531786D01*
X502036Y224500D02*
Y235000D01*
X489536Y224500D02*
Y235000D01*
X521536Y253750D02*
X532036D01*
X521536Y266250D02*
X532036D01*
X576250Y358250D02*
Y368750D01*
X563750Y358250D02*
Y368750D01*
X498923Y253612D02*
X515648D01*
X498923Y238888D02*
X515648D01*
X458250Y426250D02*
X468750D01*
X458250Y413750D02*
X468750D01*
X501250Y266250D02*
X511750D01*
X501250Y253750D02*
X511750D01*
X388888Y363923D02*
Y380648D01*
X403612Y363923D02*
Y380648D01*
X475923Y238888D02*
X492648D01*
X475923Y253612D02*
X492648D01*
X403750Y366250D02*
Y376750D01*
X416250Y366250D02*
Y376750D01*
X479786Y253750D02*
X490286D01*
X479786Y266250D02*
X490286D01*
X311000Y443750D02*
X345000D01*
X311000Y406250D02*
X345000D01*
X366655Y426500D02*
X379655D01*
X366655Y407500D02*
X379655D01*
X329000Y393650D02*
X339000D01*
X329000Y406350D02*
X339000D01*
X353095Y392439D02*
X370216D01*
X353095Y407561D02*
X370216D01*
X376095D02*
X393216D01*
X376095Y392439D02*
X393216D01*
X311000Y406350D02*
X321000D01*
X311000Y393650D02*
X321000D01*
X268625Y373250D02*
X280625D01*
X268625Y360750D02*
X280625D01*
X267303Y373250D02*
X280028D01*
X267303Y386750D02*
X280028D01*
X45469Y196281D02*
X74531D01*
X45469Y173719D02*
X74531D01*
X415469Y411281D02*
X444531D01*
X415469Y388719D02*
X444531D01*
X295469Y353719D02*
X324531D01*
X295469Y376281D02*
X324531D01*
X377000Y63796D02*
Y73793D01*
X381998D01*
X383665Y72127D01*
Y68794D01*
X381998Y67128D01*
X377000D01*
X388663Y63796D02*
X391995D01*
X393661Y65462D01*
Y68794D01*
X391995Y70461D01*
X388663D01*
X386997Y68794D01*
Y65462D01*
X388663Y63796D01*
X403658Y72127D02*
X401992Y73793D01*
X398660D01*
X396993Y72127D01*
Y65462D01*
X398660Y63796D01*
X401992D01*
X403658Y65462D01*
X377000Y56997D02*
X383665D01*
X380332D01*
Y47000D01*
X386997D02*
Y53664D01*
X390329Y56997D01*
X393661Y53664D01*
Y47000D01*
Y51998D01*
X386997D01*
X396993Y47000D02*
Y56997D01*
X401992D01*
X403658Y55331D01*
Y51998D01*
X401992Y50332D01*
X396993D01*
X239630Y356515D02*
X242962D01*
X241296D01*
Y346518D01*
X239630D01*
X242962D01*
X252959Y356515D02*
X249627D01*
X247961Y354849D01*
Y348184D01*
X249627Y346518D01*
X252959D01*
X254625Y348184D01*
Y354849D01*
X252959Y356515D01*
X267954Y354849D02*
X269620Y356515D01*
X272953D01*
X274619Y354849D01*
Y348184D01*
X272953Y346518D01*
X269620D01*
X267954Y348184D01*
Y354849D01*
X239630Y342015D02*
X242962D01*
X241296D01*
Y332018D01*
X239630D01*
X242962D01*
X252959Y342015D02*
X249627D01*
X247961Y340349D01*
Y333684D01*
X249627Y332018D01*
X252959D01*
X254625Y333684D01*
Y340349D01*
X252959Y342015D01*
X267954Y332018D02*
X271287D01*
X269620D01*
Y342015D01*
X267954Y340349D01*
X28665Y253331D02*
X26998Y254997D01*
X23666D01*
X22000Y253331D01*
Y251665D01*
X23666Y249998D01*
X26998D01*
X28665Y248332D01*
Y246666D01*
X26998Y245000D01*
X23666D01*
X22000Y246666D01*
X38661Y253331D02*
X36995Y254997D01*
X33663D01*
X31997Y253331D01*
Y246666D01*
X33663Y245000D01*
X36995D01*
X38661Y246666D01*
X41994Y254997D02*
Y245000D01*
X48658D01*
X28665Y273331D02*
X26998Y274997D01*
X23666D01*
X22000Y273331D01*
Y271665D01*
X23666Y269998D01*
X26998D01*
X28665Y268332D01*
Y266666D01*
X26998Y265000D01*
X23666D01*
X22000Y266666D01*
X31997Y274997D02*
Y265000D01*
X36995D01*
X38661Y266666D01*
Y273331D01*
X36995Y274997D01*
X31997D01*
X41994Y265000D02*
Y271665D01*
X45326Y274997D01*
X48658Y271665D01*
Y265000D01*
Y269998D01*
X41994D01*
X299146Y337451D02*
X297480Y339117D01*
X294148D01*
X292482Y337451D01*
Y335784D01*
X294148Y334118D01*
X297480D01*
X299146Y332452D01*
Y330786D01*
X297480Y329120D01*
X294148D01*
X292482Y330786D01*
X302479Y339117D02*
Y329120D01*
X307477D01*
X309143Y330786D01*
Y337451D01*
X307477Y339117D01*
X302479D01*
X312475Y329120D02*
Y335784D01*
X315808Y339117D01*
X319140Y335784D01*
Y329120D01*
Y334118D01*
X312475D01*
X299146Y322951D02*
X297480Y324617D01*
X294148D01*
X292482Y322951D01*
Y321284D01*
X294148Y319618D01*
X297480D01*
X299146Y317952D01*
Y316286D01*
X297480Y314620D01*
X294148D01*
X292482Y316286D01*
X309143Y322951D02*
X307477Y324617D01*
X304145D01*
X302479Y322951D01*
Y316286D01*
X304145Y314620D01*
X307477D01*
X309143Y316286D01*
X312475Y324617D02*
Y314620D01*
X319140D01*
X427000Y44498D02*
Y37000D01*
X430749D01*
X431998Y38250D01*
Y43248D01*
X430749Y44498D01*
X427000D01*
X435747Y41998D02*
X438246D01*
X439496Y40749D01*
Y37000D01*
X435747D01*
X434498Y38250D01*
X435747Y39499D01*
X439496D01*
X443245Y43248D02*
Y41998D01*
X441995D01*
X444494D01*
X443245D01*
Y38250D01*
X444494Y37000D01*
X451992D02*
X449493D01*
X448243Y38250D01*
Y40749D01*
X449493Y41998D01*
X451992D01*
X453242Y40749D01*
Y39499D01*
X448243D01*
X455741Y41998D02*
X456990D01*
Y40749D01*
X455741D01*
Y41998D01*
Y38250D02*
X456990D01*
Y37000D01*
X455741D01*
Y38250D01*
X427000Y52000D02*
Y59498D01*
X430749D01*
X431998Y58248D01*
Y55749D01*
X430749Y54499D01*
X427000D01*
X429499D02*
X431998Y52000D01*
X438246D02*
X435747D01*
X434498Y53250D01*
Y55749D01*
X435747Y56998D01*
X438246D01*
X439496Y55749D01*
Y54499D01*
X434498D01*
X441995Y56998D02*
X444494Y52000D01*
X446994Y56998D01*
X449493Y52000D02*
X451992D01*
X450742D01*
Y56998D01*
X449493D01*
X455741Y52000D02*
X459490D01*
X460739Y53250D01*
X459490Y54499D01*
X456990D01*
X455741Y55749D01*
X456990Y56998D01*
X460739D01*
X463238Y52000D02*
X465738D01*
X464488D01*
Y56998D01*
X463238D01*
X470736Y52000D02*
X473235D01*
X474485Y53250D01*
Y55749D01*
X473235Y56998D01*
X470736D01*
X469486Y55749D01*
Y53250D01*
X470736Y52000D01*
X476984D02*
Y56998D01*
X480733D01*
X481982Y55749D01*
Y52000D01*
X484482Y56998D02*
X485731D01*
Y55749D01*
X484482D01*
Y56998D01*
Y53250D02*
X485731D01*
Y52000D01*
X484482D01*
Y53250D01*
X427000Y67499D02*
Y74997D01*
X430749D01*
X431998Y73747D01*
Y71248D01*
X430749Y69998D01*
X427000D01*
X434498Y72498D02*
Y67499D01*
Y69998D01*
X435747Y71248D01*
X436997Y72498D01*
X438246D01*
X443245Y67499D02*
X445744D01*
X446994Y68749D01*
Y71248D01*
X445744Y72498D01*
X443245D01*
X441995Y71248D01*
Y68749D01*
X443245Y67499D01*
X449493Y65000D02*
X450742D01*
X451992Y66250D01*
Y72498D01*
X460739Y67499D02*
X458240D01*
X456990Y68749D01*
Y71248D01*
X458240Y72498D01*
X460739D01*
X461989Y71248D01*
Y69998D01*
X456990D01*
X469486Y72498D02*
X465738D01*
X464488Y71248D01*
Y68749D01*
X465738Y67499D01*
X469486D01*
X473235Y73747D02*
Y72498D01*
X471986D01*
X474485D01*
X473235D01*
Y68749D01*
X474485Y67499D01*
X478234Y72498D02*
X479483D01*
Y71248D01*
X478234D01*
Y72498D01*
Y68749D02*
X479483D01*
Y67499D01*
X478234D01*
Y68749D01*
X597000Y387000D02*
Y396997D01*
X601998D01*
X603665Y395331D01*
Y391998D01*
X601998Y390332D01*
X597000D01*
X606997Y396997D02*
Y387000D01*
X610329Y390332D01*
X613661Y387000D01*
Y396997D01*
X616993Y387000D02*
Y396997D01*
X621992D01*
X623658Y395331D01*
Y391998D01*
X621992Y390332D01*
X616993D01*
X620326D02*
X623658Y387000D01*
X597000Y337000D02*
Y346997D01*
X600332Y343665D01*
X603665Y346997D01*
Y337000D01*
X613661Y345331D02*
X611995Y346997D01*
X608663D01*
X606997Y345331D01*
Y338666D01*
X608663Y337000D01*
X611995D01*
X613661Y338666D01*
X616993Y346997D02*
Y338666D01*
X618660Y337000D01*
X621992D01*
X623658Y338666D01*
Y346997D01*
X260331Y101335D02*
X261997Y103002D01*
Y106334D01*
X260331Y108000D01*
X253666D01*
X252000Y106334D01*
Y103002D01*
X253666Y101335D01*
X256998D01*
Y104668D01*
X252000Y98003D02*
X261997D01*
X258664Y94671D01*
X261997Y91339D01*
X252000D01*
X260331Y81342D02*
X261997Y83008D01*
Y86340D01*
X260331Y88006D01*
X258664D01*
X256998Y86340D01*
Y83008D01*
X255332Y81342D01*
X253666D01*
X252000Y83008D01*
Y86340D01*
X253666Y88006D01*
X261997Y78010D02*
X252000D01*
Y71345D01*
Y61348D02*
Y68013D01*
X258664Y61348D01*
X260331D01*
X261997Y63014D01*
Y66347D01*
X260331Y68013D01*
X261997Y43021D02*
Y46353D01*
X260331Y48019D01*
X253666D01*
X252000Y46353D01*
Y43021D01*
X253666Y41355D01*
X260331D01*
X261997Y43021D01*
Y38022D02*
X253666D01*
X252000Y36356D01*
Y33024D01*
X253666Y31358D01*
X261997D01*
Y28026D02*
Y21361D01*
Y24694D01*
X252000D01*
X88665Y530331D02*
X86998Y531997D01*
X83666D01*
X82000Y530331D01*
Y523666D01*
X83666Y522000D01*
X86998D01*
X88665Y523666D01*
X98661Y530331D02*
X96995Y531997D01*
X93663D01*
X91997Y530331D01*
Y528665D01*
X93663Y526998D01*
X96995D01*
X98661Y525332D01*
Y523666D01*
X96995Y522000D01*
X93663D01*
X91997Y523666D01*
X101994Y531997D02*
X105326D01*
X103660D01*
Y522000D01*
X101994D01*
X105326D01*
X110324Y526998D02*
X116989D01*
X126986Y522000D02*
X120321D01*
X126986Y528665D01*
Y530331D01*
X125319Y531997D01*
X121987D01*
X120321Y530331D01*
X143647Y522000D02*
X140315Y525332D01*
Y528665D01*
X143647Y531997D01*
X148645Y522000D02*
Y531997D01*
X153644D01*
X155310Y530331D01*
Y526998D01*
X153644Y525332D01*
X148645D01*
X151978D02*
X155310Y522000D01*
X158642D02*
Y531997D01*
X163640D01*
X165306Y530331D01*
Y526998D01*
X163640Y525332D01*
X158642D01*
X168639Y531997D02*
X171971D01*
X170305D01*
Y522000D01*
X168639D01*
X171971D01*
X176969D02*
X183634Y528665D01*
X193631Y531997D02*
X190299D01*
X191965D01*
Y523666D01*
X190299Y522000D01*
X188632D01*
X186966Y523666D01*
X203627Y531997D02*
X196963D01*
Y522000D01*
X203627D01*
X196963Y526998D02*
X200295D01*
X206960Y531997D02*
X213624D01*
X210292D01*
Y522000D01*
X223621Y530331D02*
X221955Y531997D01*
X218623D01*
X216957Y530331D01*
Y528665D01*
X218623Y526998D01*
X221955D01*
X223621Y525332D01*
Y523666D01*
X221955Y522000D01*
X218623D01*
X216957Y523666D01*
X231952Y531997D02*
X228619D01*
X226953Y530331D01*
Y523666D01*
X228619Y522000D01*
X231952D01*
X233618Y523666D01*
Y530331D01*
X231952Y531997D01*
X236950Y522000D02*
Y531997D01*
X243615Y522000D01*
Y531997D01*
X256944Y522000D02*
Y531997D01*
X261942D01*
X263608Y530331D01*
Y526998D01*
X261942Y525332D01*
X256944D01*
X266940Y531997D02*
X270273D01*
X268607D01*
Y522000D01*
X266940D01*
X270273D01*
X275271D02*
Y531997D01*
X281936Y522000D01*
Y531997D01*
X290266D02*
X286934D01*
X285268Y530331D01*
Y523666D01*
X286934Y522000D01*
X290266D01*
X291932Y523666D01*
Y530331D01*
X290266Y531997D01*
X295265D02*
Y523666D01*
X296931Y522000D01*
X300263D01*
X301929Y523666D01*
Y531997D01*
X305261D02*
X311926D01*
X308594D01*
Y522000D01*
X315258D02*
X318590Y525332D01*
Y528665D01*
X315258Y531997D01*
X457350D02*
Y522000D01*
X462348D01*
X464015Y523666D01*
Y530331D01*
X462348Y531997D01*
X457350D01*
X467347D02*
Y522000D01*
X472345D01*
X474011Y523666D01*
Y525332D01*
X472345Y526998D01*
X467347D01*
X472345D01*
X474011Y528665D01*
Y530331D01*
X472345Y531997D01*
X467347D01*
X484008Y530331D02*
X482342Y531997D01*
X479010D01*
X477344Y530331D01*
Y523666D01*
X479010Y522000D01*
X482342D01*
X484008Y523666D01*
Y526998D01*
X480676D01*
X406750Y515950D02*
Y525947D01*
X411749D01*
X413415Y524281D01*
Y520949D01*
X411749Y519283D01*
X406750D01*
X410083D02*
X413415Y515950D01*
X423411Y524281D02*
X421745Y525947D01*
X418413D01*
X416747Y524281D01*
Y522615D01*
X418413Y520949D01*
X421745D01*
X423411Y519283D01*
Y517617D01*
X421745Y515950D01*
X418413D01*
X416747Y517617D01*
X426744Y525947D02*
X433408D01*
X430076D01*
Y515950D01*
X341673Y525697D02*
Y515700D01*
X346671D01*
X348337Y517366D01*
Y519032D01*
X346671Y520699D01*
X341673D01*
X346671D01*
X348337Y522365D01*
Y524031D01*
X346671Y525697D01*
X341673D01*
X356668D02*
X353335D01*
X351669Y524031D01*
Y517366D01*
X353335Y515700D01*
X356668D01*
X358334Y517366D01*
Y524031D01*
X356668Y525697D01*
X366665D02*
X363332D01*
X361666Y524031D01*
Y517366D01*
X363332Y515700D01*
X366665D01*
X368331Y517366D01*
Y524031D01*
X366665Y525697D01*
X371663D02*
X378327D01*
X374995D01*
Y515700D01*
X22000Y213331D02*
X23666Y214997D01*
X26998D01*
X28665Y213331D01*
Y211665D01*
X26998Y209998D01*
X25332D01*
X26998D01*
X28665Y208332D01*
Y206666D01*
X26998Y205000D01*
X23666D01*
X22000Y206666D01*
X31997Y214997D02*
Y208332D01*
X35329Y205000D01*
X38661Y208332D01*
Y214997D01*
X41994Y213331D02*
X43660Y214997D01*
X46992D01*
X48658Y213331D01*
Y211665D01*
X46992Y209998D01*
X45326D01*
X46992D01*
X48658Y208332D01*
Y206666D01*
X46992Y205000D01*
X43660D01*
X41994Y206666D01*
X22000Y234997D02*
Y228332D01*
X25332Y225000D01*
X28665Y228332D01*
Y234997D01*
X31997Y225000D02*
Y234997D01*
X36995D01*
X38661Y233331D01*
Y229998D01*
X36995Y228332D01*
X31997D01*
X35329D02*
X38661Y225000D01*
X48658Y234997D02*
X41994D01*
Y225000D01*
X48658D01*
X41994Y229998D02*
X45326D01*
X58655Y234997D02*
X51990D01*
Y229998D01*
X55323D01*
X51990D01*
Y225000D01*
X22000Y285000D02*
Y294997D01*
X25332Y291665D01*
X28665Y294997D01*
Y285000D01*
X38661Y294997D02*
X31997D01*
Y289998D01*
X35329D01*
X31997D01*
Y285000D01*
X41994D02*
Y294997D01*
X46992D01*
X48658Y293331D01*
Y289998D01*
X46992Y288332D01*
X41994D01*
X51990Y293331D02*
X53657Y294997D01*
X56989D01*
X58655Y293331D01*
Y286666D01*
X56989Y285000D01*
X53657D01*
X51990Y286666D01*
Y293331D01*
X22000Y305000D02*
Y314997D01*
X25332Y311665D01*
X28665Y314997D01*
Y305000D01*
X38661Y314997D02*
X31997D01*
Y309998D01*
X35329D01*
X31997D01*
Y305000D01*
X41994D02*
Y314997D01*
X46992D01*
X48658Y313331D01*
Y309998D01*
X46992Y308332D01*
X41994D01*
X51990Y313331D02*
X53657Y314997D01*
X56989D01*
X58655Y313331D01*
Y311665D01*
X56989Y309998D01*
X58655Y308332D01*
Y306666D01*
X56989Y305000D01*
X53657D01*
X51990Y306666D01*
Y308332D01*
X53657Y309998D01*
X51990Y311665D01*
Y313331D01*
X53657Y309998D02*
X56989D01*
X22000Y325000D02*
Y334997D01*
X25332Y331665D01*
X28665Y334997D01*
Y325000D01*
X38661Y334997D02*
X31997D01*
Y329998D01*
X35329D01*
X31997D01*
Y325000D01*
X41994D02*
Y334997D01*
X46992D01*
X48658Y333331D01*
Y329998D01*
X46992Y328332D01*
X41994D01*
X51990Y334997D02*
X58655D01*
Y333331D01*
X51990Y326666D01*
Y325000D01*
X342000Y155002D02*
X345332D01*
X343666D01*
Y164998D01*
X342000Y163332D01*
X350331Y164998D02*
Y158334D01*
X353663Y155002D01*
X356995Y158334D01*
Y164998D01*
X360327Y163332D02*
X361994Y164998D01*
X365326D01*
X366992Y163332D01*
Y161666D01*
X365326Y160000D01*
X366992Y158334D01*
Y156668D01*
X365326Y155002D01*
X361994D01*
X360327Y156668D01*
Y158334D01*
X361994Y160000D01*
X360327Y161666D01*
Y163332D01*
X361994Y160000D02*
X365326D01*
X342000Y175000D02*
X345332D01*
X343666D01*
Y184997D01*
X342000Y183331D01*
X350331Y184997D02*
Y178332D01*
X353663Y175000D01*
X356995Y178332D01*
Y184997D01*
X366992Y175000D02*
X360327D01*
X366992Y181665D01*
Y183331D01*
X365326Y184997D01*
X361994D01*
X360327Y183331D01*
X342000Y205000D02*
Y214997D01*
X345332Y211665D01*
X348665Y214997D01*
Y205000D01*
X358661Y214997D02*
X351997D01*
Y209998D01*
X355329D01*
X351997D01*
Y205000D01*
X361994D02*
Y214997D01*
X366992D01*
X368658Y213331D01*
Y209998D01*
X366992Y208332D01*
X361994D01*
X371990Y213331D02*
X373657Y214997D01*
X376989D01*
X378655Y213331D01*
Y211665D01*
X376989Y209998D01*
X375323D01*
X376989D01*
X378655Y208332D01*
Y206666D01*
X376989Y205000D01*
X373657D01*
X371990Y206666D01*
X292000Y234997D02*
Y225000D01*
X296998D01*
X298665Y226666D01*
Y233331D01*
X296998Y234997D01*
X292000D01*
X308661Y225000D02*
X301997D01*
X308661Y231665D01*
Y233331D01*
X306995Y234997D01*
X303663D01*
X301997Y233331D01*
X311994Y225000D02*
Y234997D01*
X316992D01*
X318658Y233331D01*
Y229998D01*
X316992Y228332D01*
X311994D01*
X342000Y225000D02*
Y234997D01*
X345332Y231665D01*
X348665Y234997D01*
Y225000D01*
X358661Y234997D02*
X351997D01*
Y229998D01*
X355329D01*
X351997D01*
Y225000D01*
X361994D02*
Y234997D01*
X366992D01*
X368658Y233331D01*
Y229998D01*
X366992Y228332D01*
X361994D01*
X376989Y225000D02*
Y234997D01*
X371990Y229998D01*
X378655D01*
X292000Y249497D02*
Y239500D01*
X296998D01*
X298665Y241166D01*
Y247831D01*
X296998Y249497D01*
X292000D01*
X308661Y239500D02*
X301997D01*
X308661Y246164D01*
Y247831D01*
X306995Y249497D01*
X303663D01*
X301997Y247831D01*
X311994Y239500D02*
Y249497D01*
X318658Y239500D01*
Y249497D01*
X342000Y245000D02*
Y254997D01*
X345332Y251665D01*
X348665Y254997D01*
Y245000D01*
X358661Y254997D02*
X351997D01*
Y249998D01*
X355329D01*
X351997D01*
Y245000D01*
X361994D02*
Y254997D01*
X366992D01*
X368658Y253331D01*
Y249998D01*
X366992Y248332D01*
X361994D01*
X378655Y254997D02*
X371990D01*
Y249998D01*
X375323Y251665D01*
X376989D01*
X378655Y249998D01*
Y246666D01*
X376989Y245000D01*
X373657D01*
X371990Y246666D01*
X292000Y274997D02*
Y265000D01*
X296998D01*
X298665Y266666D01*
Y273331D01*
X296998Y274997D01*
X292000D01*
X301997Y273331D02*
X303663Y274997D01*
X306995D01*
X308661Y273331D01*
Y271665D01*
X306995Y269998D01*
X305329D01*
X306995D01*
X308661Y268332D01*
Y266666D01*
X306995Y265000D01*
X303663D01*
X301997Y266666D01*
X311994Y265000D02*
Y274997D01*
X316992D01*
X318658Y273331D01*
Y269998D01*
X316992Y268332D01*
X311994D01*
X342000Y265000D02*
Y274997D01*
X345332Y271665D01*
X348665Y274997D01*
Y265000D01*
X358661Y274997D02*
X351997D01*
Y269998D01*
X355329D01*
X351997D01*
Y265000D01*
X361994D02*
Y274997D01*
X366992D01*
X368658Y273331D01*
Y269998D01*
X366992Y268332D01*
X361994D01*
X378655Y274997D02*
X375323Y273331D01*
X371990Y269998D01*
Y266666D01*
X373657Y265000D01*
X376989D01*
X378655Y266666D01*
Y268332D01*
X376989Y269998D01*
X371990D01*
X292000Y289497D02*
Y279500D01*
X296998D01*
X298665Y281166D01*
Y287831D01*
X296998Y289497D01*
X292000D01*
X301997Y287831D02*
X303663Y289497D01*
X306995D01*
X308661Y287831D01*
Y286164D01*
X306995Y284498D01*
X305329D01*
X306995D01*
X308661Y282832D01*
Y281166D01*
X306995Y279500D01*
X303663D01*
X301997Y281166D01*
X311994Y279500D02*
Y289497D01*
X318658Y279500D01*
Y289497D01*
D14*
X155550Y25550D02*
Y114450D01*
Y25550D02*
Y114450D01*
Y25550D02*
X244450D01*
X155550D02*
X244450D01*
Y114450D01*
Y25550D02*
Y114450D01*
X155550D02*
X244450D01*
X155550D02*
X244450D01*
X155550Y6500D02*
X244450D01*
X155550D02*
X244450D01*
X155550D02*
Y25550D01*
Y6500D02*
Y25550D01*
X244450Y6500D02*
Y25550D01*
Y6500D02*
Y25550D01*
X456500Y465000D02*
X583500D01*
X456500Y515000D02*
X583500D01*
X456500Y465000D02*
Y515000D01*
X583500Y465000D02*
Y515000D01*
D15*
X428500Y88500D02*
Y103495D01*
X433498Y98497D01*
X438497Y103495D01*
Y88500D01*
X443495D02*
Y98497D01*
X448493Y103495D01*
X453492Y98497D01*
Y88500D01*
Y95997D01*
X443495D01*
X458490Y103495D02*
X468487Y88500D01*
Y103495D02*
X458490Y88500D01*
X473485Y90999D02*
X475985Y88500D01*
X480983D01*
X483482Y90999D01*
Y100996D01*
X480983Y103495D01*
X475985D01*
X473485Y100996D01*
Y98497D01*
X475985Y95997D01*
X483482D01*
X498477Y103495D02*
X493479Y100996D01*
X488480Y95997D01*
Y90999D01*
X490980Y88500D01*
X495978D01*
X498477Y90999D01*
Y93498D01*
X495978Y95997D01*
X488480D01*
X503476Y103495D02*
X513472D01*
Y100996D01*
X503476Y90999D01*
Y88500D01*
X518471D02*
X523469D01*
X520970D01*
Y103495D01*
X518471Y100996D01*
X530967Y103495D02*
X540964D01*
Y100996D01*
X530967Y90999D01*
Y88500D01*
X570954Y103495D02*
X560957D01*
Y88500D01*
X570954D01*
X560957Y95997D02*
X565956D01*
X575952Y103495D02*
Y93498D01*
X580951Y88500D01*
X585949Y93498D01*
Y103495D01*
X590947Y88500D02*
Y98497D01*
X595946Y103495D01*
X600944Y98497D01*
Y88500D01*
Y95997D01*
X590947D01*
X605942Y103495D02*
Y88500D01*
X615939D01*
M02*
