M48
;Layer_Color=9474304
;FILE_FORMAT=4:4
METRIC,LZ
;TYPE=PLATED
T01F00S00C0.3000
T02F00S00C0.5000
T03F00S00C0.7500
T04F00S00C1.7500
T05F00S00C1.8000
T06F00S00C2.5000
;TYPE=NON_PLATED
T07F00S00C2.8500
%
T01
X01059997Y00024998
X01074997Y00054998
X01059997Y00084998
X01044998Y00114998
X00984998
Y00174998
X01014998
X00935Y0013
X00915Y0006
X00825Y00055002
Y00045002
Y00115001
Y00125001
Y00205002
X00725Y002075
X00715Y00197502
X00707745Y00197256
X007Y001975
X007275Y001275
Y001125
X00725Y00055002
X007175
X0071
X0071Y00065002
X007075Y00037501
X007
X00715
X00725Y000475
X006595Y00088652
Y00139452
X0056495Y00128001
X0055395
X0054295
X0053195
X0052095
X0050995
X0049895
X0048795
X0047Y00116
X00519998Y00084998
Y00024998
X00549998
X00579998
X00609998
X00595Y0004
X00489998Y00024998
X00459998
X00429998
X00399998Y00084998
X00369998
X00339998
X00309998
X00294998Y00114998
X00324998
X00354998
X00384998
X00369998Y00144998
X00325Y00145
X00324998Y00174998
X00354998
X00384998
X00415Y00175
X00525Y001725
X00294998Y00174998
X00264998
X00279998Y00144998
X00219998
X00189998
X00204998Y00114998
Y00174998
X00144998
X00024998
X00009998Y00144998
X00024998Y00114998
X00009998Y00084998
X00024998Y00054998
X00054998
X00084998
X00114998
X00144998
X00174998
X00159998Y00024998
X00129998
X00189998
X00009998
Y00204998
X00035Y003125
X000225Y0033
X00055Y00325
X0006Y00375
X0005Y00385
Y00395
X000875Y00385
X000925Y0041
X000875Y00415
X000925Y0042
X0009Y004275
Y004425
X000875Y00455
X0005
Y00445
X00041
X000225Y0045
X00009998Y00504998
X00024998Y00534998
X00039998Y00564998
X00069998
X00099998
X00129998
X00159998
X00174998Y00594998
X00114998
X00084998
X00054998
X00024998
X00069998Y00504998
X00125Y004875
X00122501Y004575
X00137501
X00165Y004575
X00175
X0021Y0046
X00237502Y004575
X0023239Y00489875
X002525Y0048
X002Y004875
X0019
X00185053Y00492448
X00195Y004925
X00205
Y005
X00234998Y00534998
X00249998Y00564998
X00234998Y00594998
X00234139Y00422714
X00237502Y00413362
Y00388362
Y00365
Y003425
X0021Y0034
X00185
X00174998Y00354998
X00135Y003425
X00122501
X00122515Y00355264
X0012Y003975
Y00405
X001225Y004325
X0013Y0043258
X002075Y00395
X002275Y003075
X00235
X0023Y0026
X0016
X0014
X001275
X001273Y002773
X0013Y003025
X0014
X00135Y003075
X00158639Y00306139
X001Y002875
X001146Y002427
X00114998Y00534998
X00264998
X00279998Y00564998
X00309998
X00339998
X00324998Y00594998
X00294998
X00354998
Y00534998
X004175Y00515
Y005025
X00428Y00503
X00436
X00444
X00452Y00503001
X0045194Y00477076
X00444Y00477016
X00436
X00428
X004175Y00485
X004275Y004525
X00428161Y0041865
Y0040595
X00415Y00395
X00405Y0038
X004265
X00459998Y00384998
X0046Y0036
X0045Y0034
X00445Y00335
X0042
X00415Y0034
X00375Y003275
X00365
X0035
X003425Y0034
X003225
X003025
X002975Y00344984
X00275Y0034
Y0035
Y0036
X0027Y00365
Y00355
Y00345
X00265Y003075
X00285
X003Y003025
Y003125
X00324998Y00294998
X003225Y0026
X0034
X003575Y002725
X003675
X0037Y00305
X00385
X00399998Y00264998
X00425Y002825
X00495
X00515
X00533Y00268001
X00541
X00549
X00557Y00268002
X00568Y00268001
X00576
X00584
X006Y002775
X00594998Y00294998
Y00354998
X00615Y003475
Y00365
Y0038
Y0041
Y00425
X006075
X006
X00592Y00428002
X00584
X00576
X00568079Y00427607
X00557Y00428002
X00549
X00541
Y00402001
X00549
X00557041
X00568Y00402001
X00576Y00402001
X00584
X00592
X005325Y003925
X005175
X00509999Y00392499
X005Y004375
X00485
X0047
X00533Y00467
X00541
X00549
X00557
X00568Y00466887
X00576
Y00494548
X00584
X00568
X005569Y00494051
X00549Y00493
X00541
X00533
X005175Y005075
X005
X00497361Y00547361
X004975Y00555
Y005625
X005075Y00575
X005175
X00545Y005725
X005975Y0057
Y00555
Y0054
Y00525
X006185Y00555
X005975Y00585
Y006
Y006075
X004925Y00595
X004325Y005725
Y0056
Y005475
X00381839Y0044405
Y0043135
X003525Y0044
Y004175
X00365Y00385
X00339998Y00384998
X00315Y00395
X002725Y0041
X002675Y00405
Y00415
Y00425
X002725Y0042
Y0045
X002675Y00445
Y00455
X002725Y004625
X003025Y004525
X00385Y00395
X00308Y002645
Y002555
X0028Y0026
X00258Y002555
Y002645
X0048Y002625
Y002475
X00533Y00242001
X00541
X00549
X00557
X00568
X00576
X00584
X0059Y002325
X005275Y002225
X0055Y00345
X006595Y00299452
X00695Y002975
Y003125
X007Y003575
X007075Y00357501
X00715
X00725Y003675
X00725Y00375001
X007175
X0071
X0071Y00385001
X00685Y004
X006595Y00408652
X0066Y0049
X006925Y004875
X007Y005175
X00707746Y00517256
X00715Y00517501
X00725Y005275
X00725Y00535001
X007175
X0071
X0071Y00545001
X00705Y005675
X006595Y00568652
X007275Y005925
X00825Y00595001
Y00604484
Y00535001
Y00525001
Y00445001
Y00435001
Y00375001
Y00365001
Y00285002
Y00275002
Y00215002
X00915Y0022
Y002875
X00909998Y00324998
X00915Y0038
X009175Y00445
X00915Y0054
X00945Y0059
X007275Y00445
Y004325
Y002875
Y002725
X00725Y00215002
X007175
X0071
X0071Y00225002
X00684266Y00239787
X006595Y00248652
X01059997Y00684998
Y00744998
X01074997Y00774998
X01059997Y00804998
X01074997Y00834998
X01044998Y00774998
X01029998Y00744998
X01014998Y00714998
X01044998
X01029998Y00684998
X01044998Y00654998
X00945Y0064
X0087Y006575
X008225Y00650002
X0087Y007175
Y007325
Y007925
X009325Y008275
X00884161Y00945952
Y00958652
Y00971351
Y00984052
X00815Y0097
Y00960002
X0081Y00955002
X00805Y00960002
Y00950002
Y00940002
X00815
X0081Y00945002
X00815Y00950002
X007025Y009375
X0069Y00855
X007Y008425
Y00825
X00699998Y00804998
X007Y007875
X0066Y00855
X006595Y00619451
X006925Y006175
X00592Y00627
X00584
X00576
X00568Y00626999
X00557041Y00627
X00549
X00541
X005225Y006325
Y0064
Y006475
X00522361Y00655139
X005225Y006625
Y0062
X0047Y0063
X004795Y006455
Y006535
Y006615
X00479499Y006695
X004795Y00683
Y00691
Y00699
X00479499Y00707
X004875Y0072
X004975
X0045Y007
Y0069
X00425
X0042Y0065
X00428Y00643
X00436
X00444
X00452
Y00617
X00444
X00436
X00428Y00616999
X00339998Y00624998
X00309998
X00279998
X00264998Y00654998
X00279998Y00684998
X00294998Y00714998
X002625Y0074
X00278001Y00758
X00278Y00766
Y00774
Y00782
X00261Y00774
X003225Y007625
X003475
X0038Y007475
X00399998Y00744998
X00392Y00758
Y00766
Y00774
X00391999Y00782
X0038Y007925
X00417968Y00782
Y00774
X00418Y00766
Y00758
X00354998Y00714998
X00339998Y00684998
X00369998
X00354998Y00654998
X005575Y0067
X005775Y0069
Y006975
X00575Y00715
X005725Y0074
X0057Y0077
X005725Y0083
X00555
X005375
X005225
X005075
X00474998Y00894998
X00495Y009625
X00516839Y00958652
Y00971351
Y00984052
Y00945952
X00585Y00925002
X0059Y00920002
X00595Y00925002
X00605
X006Y00920002
X0061
Y00910002
Y00900002
Y00890002
Y00880002
Y00870002
X006
X00595Y00875002
X00605
X006Y00880002
X00605Y00885002
X00595
X0059Y00880002
X00585Y00885002
Y00895002
Y00905002
X0059Y00900002
Y00910002
X00585Y00915002
X00595
X006Y00910002
Y00900002
X00605Y00905002
X00595
Y00895002
X006Y00890002
X00605Y00895002
Y00915002
X0059Y00890002
X00585Y00875002
X0059Y00870002
X00585Y00865002
X00595
X00605
X00645Y00705
X00445Y009775
Y0099
Y010025
X002025Y008975
X0018Y00905
X001875Y008825
Y008575
X00215
Y008325
X00180301Y00820024
X001555Y008255
Y008145
X001445
Y008255
X001275Y008425
Y0085
X0015Y00855
X00085Y00865
X00084998Y00894998
X00039998Y00864998
X00024998Y00834998
X00054998
X001175Y0079
X001025Y00755
X00125Y0073
X001325Y00715
X0015Y0073
X00175
X001975
Y007575
X00195Y0079
X002025
X00252Y00782
Y00766
Y00758
X00249998Y00684998
X00234998Y00654998
X00249998Y00624998
X00159998
X00129998
X00114998Y00654998
X00129998Y00684998
X00159998
X00069998
X00039998
X00024998Y00654998
X00054998
X00039998Y00624998
X00069998
X00054998Y00714998
X00024998
X00084998
X0021809Y0105286
X001825Y01310002
X00175
X001675
X00165Y01300002
X00165002Y01292503
X001675Y01342502
Y01350002
Y01357502
X00175
Y01350002
X001825
Y01342502
X00175
X001825Y01357502
Y01390002
X00175
X001675
X00165Y01400002
X0014Y0137695
Y0136695
X0013
X00135Y0137195
X0013Y0137695
Y013325
X00135Y013275
X0013Y013225
X0014
Y013325
X0013Y012725
X00125Y012675
X00115
X0011Y012725
X0012
Y012625
X0011
X001
Y012725
X00105Y012675
X00095
X0009Y012725
Y012625
X00071839Y0125405
Y0124135
Y0122865
Y0121595
X000225Y012525
X0006Y0129
Y01307876
X000625Y01315
Y0134
Y014
X0002Y01395
X0013Y012625
X00324998Y01254998
X00339998Y01284998
X00324998Y01314998
X00354998
X00384998
X00414998
X00399998Y01344998
X00369998
X00339998
X00309998
X00279998
X00324998Y01374998
X00354998
X00384998
X00414998
X00444998
X00429998Y01344998
X00489998
X00519998
X00549998
X00579998
X00609998
X00639998
X00624998Y01314998
X00594998
X00564998
X00534998
X00504998
X00474998
X00504998Y01374998
X00534998
X00564998
X00594998
X00624998
X00609998Y01284998
X00579998
X00564998Y01254998
X00594998
X00579998Y01224998
X00609998
X00624998Y01194998
X00609998Y01164998
X00579998
X00549998
X00564998Y01194998
X00563161Y01124052
Y01111351
Y01098652
Y01085952
X00585Y011075
X00594998Y01134998
X00609998Y01044998
X00564998Y01014998
X00445Y01015
X00355Y01025
Y01035
X00489998Y01164998
X00654998Y01314998
X00815Y01382502
X00836839Y01378651
Y01391351
Y01365952
Y01264052
Y01251351
Y01238652
Y01225952
X00815Y01242502
X00819998Y01164998
X00836839Y01124052
Y01111351
Y01098652
Y01085952
X00815Y01102502
X009135Y011025
Y010875
X0092Y010775
Y010675
X00907498Y01047498
X00894998Y01134998
X00924998Y01142498
X00909998Y01164998
Y01284998
X00939998
X00924998Y01314998
X01074997
Y01254998
Y01374998
X01059997Y01404998
X01074997Y01434998
X01059997Y01464998
X01074997Y01494998
X01059997Y01524998
X01044998Y01494998
X01029998Y01464998
X01014998Y01434998
X00984998
X00954998
X009135Y01435
Y0142
X00909998Y01464998
X00969998
Y01404998
X01044998Y01434998
X00836839Y01404052
X00819998Y01464998
X00836839Y01505952
Y01518651
Y01531351
Y01544052
X00815Y01522502
X00654998Y01494998
X00624998
X00609998Y01464998
X00594998Y01434998
X00564998
X00549998Y01404998
X00579998
X00609998
X00489998
X00459998
X00429998
X00369998
X00339998
X00324998Y01434998
X00309998Y01524998
X00279998
X00339998
X00369998
X00399998
X00429998
X00459998
X00489998
X00519998
X00549998
X00579998
X00609998
X00564998Y01494998
X00249998Y01524998
X00219998
X00189998
X00159998
X00129998
X00099998
X00045Y01465
X00009998Y01464998
X0005Y0141
X00166156Y0140616
T02
X006975Y0063
X006575Y00694
X006425Y00695
X006075
X005725Y0073
X00543647Y00715
T03
X006775Y00037501
X00735Y00045002
Y00095001
Y00145001
Y00205002
X006775Y00197502
Y00152501
X007775Y00112501
Y00062502
Y00222502
Y00272502
X00735Y00255002
Y00305002
Y00365001
Y00415001
Y00465001
Y00525001
Y00575001
X007775Y00592501
Y00542501
Y00432501
Y00382501
X006775Y00357501
Y00312502
Y00472501
Y00517501
Y00632501
X00735048Y00624724
X00615Y00715
X00084484Y00935
X00035516
Y00995
X00084484
X00084484Y01055
X00035516
X0003775Y01115
X0008225
Y01175
X0011275Y01175
X0015725
X0017Y0112725
Y0108275
Y01054484
Y01005
X0023Y01080516
Y01129484
X0022Y01311747
X0022Y0135
X0022Y01388256
X0003775Y01175
X0029Y01129484
Y01080516
X0035Y010845
Y011255
X0041
Y010845
T04
X009605Y00170002
Y00210002
X010005Y00190002
X010405Y00170002
Y00210002
Y00250002
Y00290002
Y00330001
Y00370001
Y00410001
Y00450001
Y00490001
Y00530001
Y00570001
X010005Y00550001
Y00590001
X009605Y00570001
Y00530001
Y00490001
Y00450001
Y00410001
Y00370001
Y00330001
Y00290002
Y00250002
X010005Y00230002
Y00270002
Y00310002
Y00350001
Y00390001
Y00430001
Y00470001
Y00510001
X009605Y00610001
X010405
Y00950002
Y00990002
X010005Y00970002
X009605Y00950002
Y00990002
Y01030002
Y01070002
Y01110002
Y01150002
Y01190002
Y01230002
Y01270002
Y01310002
Y01350002
Y01390002
X010005Y01370002
Y01330002
Y01290002
Y01250002
Y01210002
Y01170002
Y01130002
Y01090002
Y01050002
Y01010002
X010405Y01030002
Y01070002
Y01110002
Y01150002
Y01190002
Y01230002
Y01270002
Y01310002
Y01350002
Y01390002
X006515Y01250002
Y01450002
T05
X006575Y00878001
Y00912001
X007325
Y00878001
X008675
Y00912001
X005225
Y00878001
Y01018001
Y01052001
X006575
Y01018001
X007325
Y01052001
Y01158001
Y01192001
Y01298002
Y01332001
X008675
Y01298002
Y01192001
Y01158001
Y01052001
Y01018001
Y01438002
Y01472001
X007325
Y01438002
T06
X0098Y0004
X0042Y0013
X0004Y0026
X0099Y0078
X0047
X0004
X0067Y0112
X0098Y0152
X0004Y01520002
T07
X010055Y00105001
Y00675002
Y00885002
Y01455002
M30
