G04*
G04 #@! TF.GenerationSoftware,Altium Limited,Altium Designer,25.6.2 (33)*
G04*
G04 Layer_Color=32896*
%FSLAX44Y44*%
%MOMM*%
G71*
G04*
G04 #@! TF.SameCoordinates,FE81BCBD-8BA5-4167-A0B7-8A0FD6AAC528*
G04*
G04*
G04 #@! TF.FilePolarity,Positive*
G04*
G01*
G75*
%ADD10C,0.2500*%
%ADD11C,0.2000*%
%ADD12C,0.2540*%
D10*
X175750Y343500D02*
G03*
X175750Y343500I-1250J0D01*
G01*
Y263500D02*
G03*
X175750Y263500I-1250J0D01*
G01*
D11*
X217362Y281638D02*
Y298362D01*
X202638Y281638D02*
Y298362D01*
X219061Y310939D02*
Y339061D01*
X200939Y310939D02*
Y339061D01*
X217362Y201638D02*
Y218362D01*
X202638Y201638D02*
Y218362D01*
X158000Y276500D02*
Y343500D01*
X132000Y276500D02*
Y343500D01*
X158000D01*
X132000Y276500D02*
X158000D01*
Y196500D02*
Y263500D01*
X132000Y196500D02*
Y263500D01*
X158000D01*
X132000Y196500D02*
X158000D01*
X228000Y243000D02*
Y247000D01*
X242000Y243000D02*
Y247000D01*
X219061Y230939D02*
Y259061D01*
X200939Y230939D02*
Y259061D01*
D12*
X239827Y129456D02*
X242367Y131996D01*
X247445D01*
X249984Y129456D01*
Y119300D01*
X247445Y116761D01*
X242367D01*
X239827Y119300D01*
X224592Y129456D02*
X227132Y131996D01*
X232210D01*
X234749Y129456D01*
Y126917D01*
X232210Y124378D01*
X227132D01*
X224592Y121839D01*
Y119300D01*
X227132Y116761D01*
X232210D01*
X234749Y119300D01*
X219514Y131996D02*
X214436D01*
X216975D01*
Y116761D01*
X219514D01*
X214436D01*
X191583D02*
Y126917D01*
X186505Y131996D01*
X181426Y126917D01*
Y116761D01*
Y124378D01*
X191583D01*
X176348Y131996D02*
Y116761D01*
X168730D01*
X166191Y119300D01*
Y129456D01*
X168730Y131996D01*
X176348D01*
X161113Y116761D02*
Y126917D01*
X156034Y131996D01*
X150956Y126917D01*
Y116761D01*
Y124378D01*
X161113D01*
X145878Y116761D02*
Y131996D01*
X138260D01*
X135721Y129456D01*
Y124378D01*
X138260Y121839D01*
X145878D01*
X130643Y131996D02*
X120486D01*
X125564D01*
Y116761D01*
X105251Y131996D02*
X115408D01*
Y116761D01*
X105251D01*
X115408Y124378D02*
X110329D01*
X100173Y116761D02*
Y131996D01*
X92555D01*
X90016Y129456D01*
Y124378D01*
X92555Y121839D01*
X100173D01*
X95094D02*
X90016Y116761D01*
X232210Y92382D02*
X242367D01*
X232210Y102539D01*
Y105078D01*
X234749Y107618D01*
X239827D01*
X242367Y105078D01*
X219514Y92382D02*
Y107618D01*
X227132Y100000D01*
X216975D01*
X211896Y92382D02*
Y107618D01*
X204279D01*
X201740Y105078D01*
Y100000D01*
X204279Y97461D01*
X211896D01*
X181426Y107618D02*
X171270D01*
X176348D01*
Y92382D01*
X158574Y107618D02*
X163652D01*
X166191Y105078D01*
Y94922D01*
X163652Y92382D01*
X158574D01*
X156034Y94922D01*
Y105078D01*
X158574Y107618D01*
X135721Y92382D02*
X130643D01*
X133182D01*
Y107618D01*
X135721Y105078D01*
X112868Y107618D02*
X123025D01*
Y100000D01*
X117947Y102539D01*
X115408D01*
X112868Y100000D01*
Y94922D01*
X115408Y92382D01*
X120486D01*
X123025Y94922D01*
X107790Y92382D02*
Y107618D01*
X100173D01*
X97633Y105078D01*
Y100000D01*
X100173Y97461D01*
X107790D01*
X314733Y83239D02*
X324890D01*
Y75622D01*
X319811D01*
X324890D01*
Y68004D01*
X302037Y83239D02*
X307116D01*
X309655Y80700D01*
Y70544D01*
X307116Y68004D01*
X302037D01*
X299498Y70544D01*
Y80700D01*
X302037Y83239D01*
X294420Y68004D02*
Y83239D01*
X286802D01*
X284263Y80700D01*
Y75622D01*
X286802Y73083D01*
X294420D01*
X289341D02*
X284263Y68004D01*
X263950D02*
Y78161D01*
X258871Y83239D01*
X253793Y78161D01*
Y68004D01*
Y75622D01*
X263950D01*
X248715Y83239D02*
Y68004D01*
X238558D01*
X233479Y83239D02*
X228401D01*
X230940D01*
Y68004D01*
X233479D01*
X228401D01*
X210627Y83239D02*
X220784D01*
Y68004D01*
X210627D01*
X220784Y75622D02*
X215705D01*
X205548Y83239D02*
X195392Y68004D01*
Y83239D02*
X205548Y68004D01*
X190313D02*
Y83239D01*
X182696D01*
X180157Y80700D01*
Y75622D01*
X182696Y73083D01*
X190313D01*
X175078Y68004D02*
Y83239D01*
X167461D01*
X164922Y80700D01*
Y75622D01*
X167461Y73083D01*
X175078D01*
X170000D02*
X164922Y68004D01*
X149686Y83239D02*
X159843D01*
Y68004D01*
X149686D01*
X159843Y75622D02*
X154765D01*
X134452Y80700D02*
X136991Y83239D01*
X142069D01*
X144608Y80700D01*
Y78161D01*
X142069Y75622D01*
X136991D01*
X134452Y73083D01*
Y70544D01*
X136991Y68004D01*
X142069D01*
X144608Y70544D01*
X119216Y80700D02*
X121756Y83239D01*
X126834D01*
X129373Y80700D01*
Y78161D01*
X126834Y75622D01*
X121756D01*
X119216Y73083D01*
Y70544D01*
X121756Y68004D01*
X126834D01*
X129373Y70544D01*
X98903Y83239D02*
X93825D01*
X96364D01*
Y68004D01*
X98903D01*
X93825D01*
X86207D02*
Y83239D01*
X81129Y78161D01*
X76050Y83239D01*
Y68004D01*
X70972Y83239D02*
X60815Y68004D01*
Y83239D02*
X70972Y68004D01*
X55737Y80700D02*
X53198Y83239D01*
X48119D01*
X45580Y80700D01*
Y78161D01*
X48119Y75622D01*
X50659D01*
X48119D01*
X45580Y73083D01*
Y70544D01*
X48119Y68004D01*
X53198D01*
X55737Y70544D01*
X40502Y80700D02*
X37963Y83239D01*
X32884D01*
X30345Y80700D01*
Y70544D01*
X32884Y68004D01*
X37963D01*
X40502Y70544D01*
Y80700D01*
X25267Y83239D02*
X15110D01*
Y80700D01*
X25267Y70544D01*
Y68004D01*
M02*
