G04*
G04 #@! TF.GenerationSoftware,Altium Limited,Altium Designer,23.4.1 (23)*
G04*
G04 Layer_Physical_Order=4*
G04 Layer_Color=3150156*
%FSLAX44Y44*%
%MOMM*%
G71*
G04*
G04 #@! TF.SameCoordinates,AADE7E44-117F-4E65-A716-1D38EB4515B9*
G04*
G04*
G04 #@! TF.FilePolarity,Positive*
G04*
G01*
G75*
%ADD13C,0.2540*%
%ADD62R,1.5700X1.5700*%
%ADD63C,1.5700*%
%ADD64C,3.0000*%
%ADD65R,2.7500X2.7500*%
%ADD66C,2.7500*%
%ADD67C,2.7534*%
%ADD68R,2.7534X2.7534*%
%ADD69C,2.9972*%
%ADD70R,2.7500X2.7500*%
%ADD71C,1.0200*%
%ADD72C,1.8000*%
%ADD80C,0.3000*%
%ADD87R,1.2000X1.2000*%
%ADD88C,1.2000*%
%ADD89C,1.2700*%
%ADD90C,4.0000*%
D13*
X898271Y637032D02*
Y879729D01*
X878586Y899414D02*
X898271Y879729D01*
X910288Y921512D02*
X925000Y906800D01*
X883412Y921512D02*
X910288D01*
X878586Y899414D02*
Y916686D01*
X883412Y921512D01*
X895000Y906800D02*
X945896Y855904D01*
Y637032D02*
Y855904D01*
X55500Y816000D02*
X64250Y824750D01*
X429250D01*
X450750Y803250D01*
X503050D02*
X514100Y814300D01*
Y814578D01*
X498300Y855500D02*
X514100Y839700D01*
X1155088Y342750D02*
X1175258Y322580D01*
X1004000Y342750D02*
X1155088D01*
X1194562Y322834D02*
Y348938D01*
X1020750Y522750D02*
X1194562Y348938D01*
X36800Y749000D02*
X445000D01*
X455900Y738100D01*
X25900D02*
X36800Y749000D01*
X331750Y768000D02*
X346000Y753750D01*
X84100Y763500D02*
X86168D01*
X90668Y768000D01*
X331750D01*
X554500Y789000D02*
X555000Y789500D01*
X574250D01*
X586500Y777250D01*
Y613500D02*
Y777250D01*
X760250Y439750D02*
X893250D01*
X586500Y613500D02*
X760250Y439750D01*
X592000Y615750D02*
Y780250D01*
Y615750D02*
X762750Y445000D01*
X901750D01*
X893250Y439750D02*
X1012750Y320250D01*
X1072000D01*
X901750Y445000D02*
X1004000Y342750D01*
X455900Y814300D02*
X467350Y825750D01*
X546500D01*
X592000Y780250D01*
X835230Y449830D02*
X844100Y458700D01*
X778030Y449830D02*
X835230D01*
X757860Y470000D02*
X778030Y449830D01*
X799150Y522750D02*
X1020750D01*
X785900Y509500D02*
X799150Y522750D01*
X958500Y272500D02*
Y296250D01*
X706750Y428750D02*
X826000D01*
X958500Y296250D01*
X1025750Y294000D02*
X1034500D01*
X708500Y433250D02*
X886500D01*
X1025750Y294000D01*
X1034500D02*
X1053750Y274750D01*
X526000Y609500D02*
X706750Y428750D01*
X526000Y609500D02*
Y749750D01*
X518500Y799000D02*
X530750Y786750D01*
Y611000D02*
X708500Y433250D01*
X530750Y611000D02*
Y786750D01*
X514100Y761650D02*
X526000Y749750D01*
X466000Y799000D02*
X518500D01*
X450750Y803250D02*
X503050D01*
X455900Y788900D02*
X466000Y799000D01*
X502950Y777750D02*
X514100Y788900D01*
X323250Y806500D02*
X352000Y777750D01*
X502950D01*
X514100Y761650D02*
Y763500D01*
X84100Y687300D02*
X335450D01*
X84100Y661900D02*
X338850D01*
X254000Y649000D02*
X262000Y641000D01*
X38400Y649000D02*
X254000D01*
X25900Y636500D02*
X38400Y649000D01*
X84100Y636500D02*
X234500D01*
X84100Y611100D02*
X85268D01*
X90668Y616500D02*
X334750D01*
X85268Y611100D02*
X90668Y616500D01*
X25900Y458700D02*
X56600Y428000D01*
X533000D02*
X553000Y448000D01*
X56600Y428000D02*
X533000D01*
X521500Y435500D02*
X539750Y453750D01*
X299550Y458700D02*
X322750Y435500D01*
X521500D01*
X84100Y458700D02*
X299550D01*
X539750Y453750D02*
Y474000D01*
X326725Y444000D02*
X518750D01*
X526250Y451500D01*
Y471710D01*
X514100Y483860D02*
X526250Y471710D01*
X286625Y484100D02*
X326725Y444000D01*
X84100Y484100D02*
X286625D01*
X13000Y852200D02*
X25900Y865100D01*
X13000Y810250D02*
Y852200D01*
X445000Y495000D02*
X455900Y484100D01*
Y483860D02*
Y484100D01*
X36800Y495000D02*
X445000D01*
X25900Y484100D02*
X36800Y495000D01*
X13000Y810250D02*
X19000Y804250D01*
X50250D02*
X55500Y809500D01*
X19000Y804250D02*
X50250D01*
X55500Y809500D02*
Y816000D01*
X342299Y798701D02*
X446099D01*
X455900Y788900D01*
X25900D02*
X36000Y799000D01*
X89250D02*
X103250Y813000D01*
X36000Y799000D02*
X89250D01*
X25900Y814300D02*
X41600Y830000D01*
X440200D01*
X455900Y814300D01*
X84100Y839700D02*
X93150Y848750D01*
X446850D02*
X455900Y839700D01*
X504100Y499500D02*
X514100Y509500D01*
X445900Y519500D02*
X455900Y509500D01*
X445450Y570750D02*
X455900Y560300D01*
X504300Y550500D02*
X514100Y560300D01*
X503700Y651500D02*
X514100Y661900D01*
X445800Y672000D02*
X455900Y661900D01*
X345750Y677000D02*
X503800D01*
X514100Y687300D01*
Y687320D01*
X36000Y672000D02*
X294500D01*
X445959Y697241D02*
X455900Y687300D01*
X299500Y667000D02*
X324500D01*
X294500Y672000D02*
X299500Y667000D01*
X324500D02*
X329500Y672000D01*
X445800D01*
X25900Y661900D02*
X36000Y672000D01*
X335450Y687300D02*
X345750Y677000D01*
X333750Y515000D02*
X349250Y499500D01*
X84100Y509500D02*
X85168D01*
X90668Y515000D01*
X333750D01*
X35900Y519500D02*
X286500D01*
X304000Y537000D01*
X25900Y509500D02*
X35900Y519500D01*
X304000Y537000D02*
X321250D01*
X338750Y519500D01*
X445900D01*
X349250Y524750D02*
X503950D01*
X332750Y541250D02*
X349250Y524750D01*
X503950D02*
X514100Y534900D01*
X86849D02*
X93199Y541250D01*
X332750D01*
X84100Y534900D02*
X86849D01*
X93900Y550500D02*
X504300D01*
X84100Y560300D02*
X93900Y550500D01*
X37750Y546750D02*
X444050D01*
X25900Y534900D02*
X37750Y546750D01*
X444050D02*
X455900Y534900D01*
X39100Y573500D02*
X261500D01*
X264250Y570750D02*
X445450D01*
X261500Y573500D02*
X264250Y570750D01*
X36950Y596750D02*
X444850D01*
X25900Y585700D02*
X36950Y596750D01*
X334750Y616500D02*
X350250Y601000D01*
X444850Y596750D02*
X455900Y585700D01*
X25900Y611100D02*
X36550Y621750D01*
X445250D01*
X234500Y636500D02*
X235890Y635110D01*
X343390D01*
X352250Y626250D01*
X344500Y641000D02*
X350750Y647250D01*
X445150D02*
X455900Y636500D01*
X350750Y647250D02*
X445150D01*
X262000Y641000D02*
X344500D01*
X338850Y661900D02*
X349250Y651500D01*
X249000Y700250D02*
X260250Y711500D01*
X286000D02*
X297250Y700250D01*
X260250Y711500D02*
X286000D01*
X297250Y700250D02*
Y700250D01*
X38850Y700250D02*
X249000D01*
X25900Y687300D02*
X38850Y700250D01*
X297250D02*
X300259Y697241D01*
X86368Y712700D02*
X90668Y717000D01*
X293000D01*
X36090Y722890D02*
X445710D01*
X25900Y712700D02*
X36090Y722890D01*
X84100Y712700D02*
X86368D01*
X445710Y722890D02*
X455900Y712700D01*
X293000Y717000D02*
X307500Y702500D01*
X84100Y738100D02*
X94200Y728000D01*
X504000D01*
X447010Y772390D02*
X455900Y763500D01*
X317500Y800750D02*
X345860Y772390D01*
X346000Y753750D02*
X504350D01*
X345860Y772390D02*
X447010D01*
X504350Y753750D02*
X514100Y763500D01*
X110750Y806500D02*
X323250D01*
X93150Y788900D02*
X110750Y806500D01*
X91500Y776250D02*
X116000Y800750D01*
X317500D01*
X103250Y813000D02*
X328000D01*
X342299Y798701D01*
X350250Y601000D02*
X504000D01*
X269500Y575000D02*
X503400D01*
X84100Y585700D02*
X258800D01*
X503400Y575000D02*
X514100Y585700D01*
X258800D02*
X269500Y575000D01*
X514100Y585700D02*
Y585743D01*
X503850Y626250D02*
X514100Y636500D01*
Y636640D01*
X504000Y728000D02*
X514100Y738100D01*
X349250Y499500D02*
X504100D01*
X25900Y560300D02*
X39100Y573500D01*
X504000Y601000D02*
X514100Y611100D01*
X445250Y621750D02*
X455900Y611100D01*
X352250Y626250D02*
X503850D01*
X349250Y651500D02*
X503700D01*
X300259Y697241D02*
X445959D01*
X503900Y702500D02*
X514100Y712700D01*
X307500Y702500D02*
X503900D01*
X25900Y763500D02*
X38650Y776250D01*
X91500D01*
X84100Y788900D02*
X93150D01*
X93150Y848750D02*
X446850D01*
X25900Y839700D02*
X41700Y855500D01*
X498300D01*
D62*
X895000Y906800D02*
D03*
D63*
X925000D02*
D03*
D64*
X910000Y950000D02*
D03*
X1004080Y927880D02*
D03*
X1088080D02*
D03*
X1350770Y457000D02*
D03*
Y583000D02*
D03*
X648390Y71850D02*
D03*
X774390D02*
D03*
X301450D02*
D03*
X175450D02*
D03*
X1155300Y927880D02*
D03*
X1239300D02*
D03*
X1306520D02*
D03*
X1390520D02*
D03*
X1121100Y71492D02*
D03*
X1247100D02*
D03*
D65*
X1004080Y854880D02*
D03*
X774390Y144850D02*
D03*
X301450D02*
D03*
X1155300Y854880D02*
D03*
X1306520D02*
D03*
X1247100Y144492D02*
D03*
D66*
X1046080Y854880D02*
D03*
X1088080D02*
D03*
X1004080Y812880D02*
D03*
X1046080D02*
D03*
X1088080D02*
D03*
X1235770Y457000D02*
D03*
Y499000D02*
D03*
Y541000D02*
D03*
Y583000D02*
D03*
X1277770Y457000D02*
D03*
Y499000D02*
D03*
Y541000D02*
D03*
X648390Y186850D02*
D03*
X690390D02*
D03*
X732390D02*
D03*
X774390D02*
D03*
X648390Y144850D02*
D03*
X690390D02*
D03*
X732390D02*
D03*
X259450D02*
D03*
X217450D02*
D03*
X175450D02*
D03*
X301450Y186850D02*
D03*
X259450D02*
D03*
X217450D02*
D03*
X175450D02*
D03*
X1197300Y854880D02*
D03*
X1239300D02*
D03*
X1155300Y812880D02*
D03*
X1197300D02*
D03*
X1239300D02*
D03*
X1348520Y854880D02*
D03*
X1390520D02*
D03*
X1306520Y812880D02*
D03*
X1348520D02*
D03*
X1390520D02*
D03*
X1121100Y186492D02*
D03*
X1163100D02*
D03*
X1205100D02*
D03*
X1247100D02*
D03*
X1121100Y144492D02*
D03*
X1163100D02*
D03*
X1205100D02*
D03*
D67*
X1222234Y691205D02*
D03*
Y649295D02*
D03*
X1277352D02*
D03*
D68*
Y691205D02*
D03*
D69*
X1350250Y670250D02*
D03*
D70*
X1277770Y583000D02*
D03*
D71*
X802300Y865100D02*
D03*
Y839700D02*
D03*
Y814300D02*
D03*
Y788900D02*
D03*
Y763500D02*
D03*
Y738100D02*
D03*
Y712700D02*
D03*
Y687300D02*
D03*
Y661900D02*
D03*
Y636500D02*
D03*
Y611100D02*
D03*
Y585700D02*
D03*
Y560300D02*
D03*
Y534900D02*
D03*
Y509500D02*
D03*
Y484100D02*
D03*
Y458700D02*
D03*
Y941300D02*
D03*
Y915900D02*
D03*
Y890500D02*
D03*
X827700Y941300D02*
D03*
Y915900D02*
D03*
Y890500D02*
D03*
Y865100D02*
D03*
Y839700D02*
D03*
Y814300D02*
D03*
Y788900D02*
D03*
Y763500D02*
D03*
Y738100D02*
D03*
Y712700D02*
D03*
Y687300D02*
D03*
Y661900D02*
D03*
Y636500D02*
D03*
Y611100D02*
D03*
Y585700D02*
D03*
Y560300D02*
D03*
Y534900D02*
D03*
Y509500D02*
D03*
Y484100D02*
D03*
Y458700D02*
D03*
X472300Y865100D02*
D03*
Y839700D02*
D03*
Y814300D02*
D03*
Y788900D02*
D03*
Y763500D02*
D03*
Y738100D02*
D03*
Y712700D02*
D03*
Y687300D02*
D03*
Y661900D02*
D03*
Y636500D02*
D03*
Y611100D02*
D03*
Y585700D02*
D03*
Y560300D02*
D03*
Y534900D02*
D03*
Y509500D02*
D03*
Y484100D02*
D03*
Y458700D02*
D03*
Y941300D02*
D03*
Y915900D02*
D03*
Y890500D02*
D03*
X497700Y941300D02*
D03*
Y915900D02*
D03*
Y890500D02*
D03*
Y865100D02*
D03*
Y839700D02*
D03*
Y814300D02*
D03*
Y788900D02*
D03*
Y763500D02*
D03*
Y738100D02*
D03*
Y712700D02*
D03*
Y687300D02*
D03*
Y661900D02*
D03*
Y636500D02*
D03*
Y611100D02*
D03*
Y585700D02*
D03*
Y560300D02*
D03*
Y534900D02*
D03*
Y509500D02*
D03*
Y484100D02*
D03*
Y458700D02*
D03*
X372300Y865100D02*
D03*
Y839700D02*
D03*
Y814300D02*
D03*
Y788900D02*
D03*
Y763500D02*
D03*
Y738100D02*
D03*
Y712700D02*
D03*
Y687300D02*
D03*
Y661900D02*
D03*
Y636500D02*
D03*
Y611100D02*
D03*
Y585700D02*
D03*
Y560300D02*
D03*
Y534900D02*
D03*
Y509500D02*
D03*
Y484100D02*
D03*
Y458700D02*
D03*
Y941300D02*
D03*
Y915900D02*
D03*
Y890500D02*
D03*
X397700Y941300D02*
D03*
Y915900D02*
D03*
Y890500D02*
D03*
Y865100D02*
D03*
Y839700D02*
D03*
Y814300D02*
D03*
Y788900D02*
D03*
Y763500D02*
D03*
Y738100D02*
D03*
Y712700D02*
D03*
Y687300D02*
D03*
Y661900D02*
D03*
Y636500D02*
D03*
Y611100D02*
D03*
Y585700D02*
D03*
Y560300D02*
D03*
Y534900D02*
D03*
Y509500D02*
D03*
Y484100D02*
D03*
Y458700D02*
D03*
X42300Y865100D02*
D03*
Y839700D02*
D03*
Y814300D02*
D03*
Y788900D02*
D03*
Y763500D02*
D03*
Y738100D02*
D03*
Y712700D02*
D03*
Y687300D02*
D03*
Y661900D02*
D03*
Y636500D02*
D03*
Y611100D02*
D03*
Y585700D02*
D03*
Y560300D02*
D03*
Y534900D02*
D03*
Y509500D02*
D03*
Y484100D02*
D03*
Y458700D02*
D03*
Y941300D02*
D03*
Y915900D02*
D03*
Y890500D02*
D03*
X67700Y941300D02*
D03*
Y915900D02*
D03*
Y890500D02*
D03*
Y865100D02*
D03*
Y839700D02*
D03*
Y814300D02*
D03*
Y788900D02*
D03*
Y763500D02*
D03*
Y738100D02*
D03*
Y712700D02*
D03*
Y687300D02*
D03*
Y661900D02*
D03*
Y636500D02*
D03*
Y611100D02*
D03*
Y585700D02*
D03*
Y560300D02*
D03*
Y534900D02*
D03*
Y509500D02*
D03*
Y484100D02*
D03*
Y458700D02*
D03*
D72*
X815000Y928600D02*
D03*
Y471400D02*
D03*
X485000Y928600D02*
D03*
Y471400D02*
D03*
X385000Y928600D02*
D03*
Y471400D02*
D03*
X55000Y928600D02*
D03*
Y471400D02*
D03*
D80*
X919734Y588010D02*
X955648D01*
X961212Y593574D01*
X998244D01*
X998982Y592836D01*
D87*
X274000Y700900D02*
D03*
X705000Y704650D02*
D03*
D88*
X274000Y652100D02*
D03*
X705000Y655850D02*
D03*
D89*
X927100Y261620D02*
D03*
X865886Y538774D02*
D03*
X898271Y637032D02*
D03*
X945896D02*
D03*
X414100Y814300D02*
D03*
X514100Y814578D02*
D03*
Y839700D02*
D03*
X743500Y791500D02*
D03*
X785900Y839700D02*
D03*
X844100D02*
D03*
Y788900D02*
D03*
X998982Y592836D02*
D03*
X919734Y588010D02*
D03*
X985520Y584454D02*
D03*
X1139180Y452318D02*
D03*
X1150096Y489592D02*
D03*
X1071460Y509436D02*
D03*
X20320Y278892D02*
D03*
X123190Y264160D02*
D03*
X100330Y261366D02*
D03*
X454406Y262128D02*
D03*
X589090Y274384D02*
D03*
X484250Y275250D02*
D03*
X465750Y276250D02*
D03*
X691388Y308610D02*
D03*
X702056Y323596D02*
D03*
X596900Y313182D02*
D03*
X1175258Y322580D02*
D03*
X1194562Y322834D02*
D03*
X1299250Y319500D02*
D03*
X1205230Y310388D02*
D03*
X1310000Y275250D02*
D03*
X1321816Y260858D02*
D03*
X810768Y309372D02*
D03*
X722884Y323088D02*
D03*
X638000Y789250D02*
D03*
X623250Y764000D02*
D03*
X194000Y758500D02*
D03*
X207750Y778250D02*
D03*
X554500Y789000D02*
D03*
X1164176Y309706D02*
D03*
X1072000Y320250D02*
D03*
X906926Y330969D02*
D03*
X958500Y272500D02*
D03*
X1053750Y274750D02*
D03*
X242500Y560719D02*
D03*
X836500Y270750D02*
D03*
X939250Y271750D02*
D03*
X84100Y687300D02*
D03*
X317250Y379500D02*
D03*
X757453Y355982D02*
D03*
X825500Y318500D02*
D03*
X844100Y534900D02*
D03*
X1032650Y543960D02*
D03*
X1142586Y379556D02*
D03*
X1146396Y356696D02*
D03*
X1263172Y332094D02*
D03*
X1400000Y330500D02*
D03*
X790543Y330492D02*
D03*
X670960Y378414D02*
D03*
X671030Y330064D02*
D03*
X674770Y355554D02*
D03*
X84100Y636500D02*
D03*
Y661900D02*
D03*
X556660Y308564D02*
D03*
X519830D02*
D03*
X84100Y611100D02*
D03*
X126000Y314000D02*
D03*
X363500Y266000D02*
D03*
X377250Y262250D02*
D03*
X351421Y314377D02*
D03*
X338000Y310500D02*
D03*
X249250Y323750D02*
D03*
X260135Y310500D02*
D03*
X216692Y309750D02*
D03*
X230000Y314000D02*
D03*
X139225Y309500D02*
D03*
X552850Y331424D02*
D03*
X169600Y444200D02*
D03*
X322500Y561719D02*
D03*
X311000Y676500D02*
D03*
X279500Y606500D02*
D03*
X965962Y604012D02*
D03*
X25900Y865100D02*
D03*
X757860Y470000D02*
D03*
X721250Y509248D02*
D03*
X455900Y483860D02*
D03*
X514100D02*
D03*
X785900Y484100D02*
D03*
X844100Y458700D02*
D03*
X414100D02*
D03*
X414100Y484080D02*
D03*
X844100Y484100D02*
D03*
X84100Y814300D02*
D03*
Y839700D02*
D03*
X455900D02*
D03*
X355900D02*
D03*
X414100D02*
D03*
X553000Y448000D02*
D03*
X539750Y474000D02*
D03*
X1019200Y673125D02*
D03*
X844100Y661860D02*
D03*
X1403000Y272500D02*
D03*
X566250Y176750D02*
D03*
X447000Y177250D02*
D03*
X1039750Y175750D02*
D03*
X710500Y610250D02*
D03*
X514100Y509500D02*
D03*
X455900D02*
D03*
X514100Y560300D02*
D03*
X455900D02*
D03*
X671750Y563140D02*
D03*
X751750Y563719D02*
D03*
X676000Y610250D02*
D03*
X742000Y680110D02*
D03*
X414100Y661900D02*
D03*
X455900D02*
D03*
X514100D02*
D03*
X414100Y687300D02*
D03*
X514100Y687320D02*
D03*
X455900Y687300D02*
D03*
X565750Y714000D02*
D03*
X785900Y763500D02*
D03*
X300500Y505250D02*
D03*
X414100Y534900D02*
D03*
X355900D02*
D03*
X245252Y606500D02*
D03*
X84100Y712700D02*
D03*
X135000Y737140D02*
D03*
X414100Y763500D02*
D03*
X355900D02*
D03*
X282500Y584250D02*
D03*
X311500Y526500D02*
D03*
X599600Y444200D02*
D03*
X1033150Y580750D02*
D03*
X844100Y636500D02*
D03*
X455900Y534900D02*
D03*
X514100D02*
D03*
X785900D02*
D03*
Y560300D02*
D03*
X514100Y585743D02*
D03*
X785900Y585700D02*
D03*
X514100Y636640D02*
D03*
X785900Y687320D02*
D03*
X414100Y712700D02*
D03*
X455900Y738100D02*
D03*
X514100D02*
D03*
X785900D02*
D03*
X414100Y738140D02*
D03*
X455900Y763500D02*
D03*
Y788900D02*
D03*
X514100D02*
D03*
X455900Y814300D02*
D03*
X785900Y814390D02*
D03*
X355900Y509500D02*
D03*
Y484100D02*
D03*
Y611100D02*
D03*
X414100D02*
D03*
X455900D02*
D03*
X355900Y636500D02*
D03*
X414100D02*
D03*
X455900D02*
D03*
X355900Y661900D02*
D03*
Y712700D02*
D03*
X455900D02*
D03*
X355900Y738140D02*
D03*
X84100Y738100D02*
D03*
X355900Y814300D02*
D03*
Y788900D02*
D03*
X84100Y915900D02*
D03*
X25900D02*
D03*
X84100Y941300D02*
D03*
X25900D02*
D03*
X514100Y915900D02*
D03*
Y941300D02*
D03*
X455900D02*
D03*
Y915900D02*
D03*
X844100Y814300D02*
D03*
X785900Y788900D02*
D03*
X844100Y763500D02*
D03*
Y738100D02*
D03*
Y712700D02*
D03*
X785900D02*
D03*
X844100Y687300D02*
D03*
X785900Y661900D02*
D03*
Y636500D02*
D03*
X844100Y611100D02*
D03*
X785900D02*
D03*
X844100Y585700D02*
D03*
Y560300D02*
D03*
X785900Y509500D02*
D03*
X514100Y458700D02*
D03*
X455900D02*
D03*
Y585700D02*
D03*
X514100Y611100D02*
D03*
Y712700D02*
D03*
Y763500D02*
D03*
X455900Y865100D02*
D03*
X414100Y788900D02*
D03*
X355900Y687300D02*
D03*
Y585700D02*
D03*
X414100D02*
D03*
Y560300D02*
D03*
X355900D02*
D03*
X25900Y458700D02*
D03*
X84100D02*
D03*
Y484100D02*
D03*
X25900D02*
D03*
Y509500D02*
D03*
X84100D02*
D03*
Y534900D02*
D03*
X25900D02*
D03*
X84100Y560300D02*
D03*
X25900D02*
D03*
X84100Y585700D02*
D03*
X25900D02*
D03*
Y611100D02*
D03*
Y636500D02*
D03*
Y661900D02*
D03*
Y687300D02*
D03*
Y712700D02*
D03*
Y738100D02*
D03*
Y763500D02*
D03*
X84100D02*
D03*
Y788900D02*
D03*
X25900D02*
D03*
Y814300D02*
D03*
Y839700D02*
D03*
X25440Y327737D02*
D03*
X43740Y283120D02*
D03*
X1019200Y710000D02*
D03*
X740830Y528750D02*
D03*
X711750Y586250D02*
D03*
X1017000Y644000D02*
D03*
X1051000Y607000D02*
D03*
X177482Y258980D02*
D03*
X159772Y331280D02*
D03*
X200342Y356770D02*
D03*
X196532Y379630D02*
D03*
X163512Y356770D02*
D03*
X196602Y331280D02*
D03*
X94170Y175260D02*
D03*
X61150Y210820D02*
D03*
X47180Y308610D02*
D03*
X80200Y331470D02*
D03*
X80270Y283120D02*
D03*
X84010Y308610D02*
D03*
X317385Y331862D02*
D03*
X284295Y357352D02*
D03*
X321125D02*
D03*
X280555Y331862D02*
D03*
X298265Y259562D02*
D03*
X397395Y283602D02*
D03*
X434225D02*
D03*
X415105Y211302D02*
D03*
X401135Y309092D02*
D03*
X437965D02*
D03*
X434155Y331952D02*
D03*
X651910Y257764D02*
D03*
X634200Y330064D02*
D03*
X612540Y308564D02*
D03*
X637940Y355554D02*
D03*
X794283Y355982D02*
D03*
X552920Y283074D02*
D03*
X574440Y261574D02*
D03*
X790473Y378842D02*
D03*
X494430Y261574D02*
D03*
X870166Y282619D02*
D03*
X910736Y308109D02*
D03*
X753713Y330492D02*
D03*
X732053Y308992D02*
D03*
X873906Y308109D02*
D03*
X848506Y261119D02*
D03*
X887876Y210319D02*
D03*
X917848Y173890D02*
D03*
X771423Y258192D02*
D03*
X906996Y282619D02*
D03*
X533800Y210774D02*
D03*
X516090Y283074D02*
D03*
X1390610Y174362D02*
D03*
X1029422Y308054D02*
D03*
X1047202Y261064D02*
D03*
X967192D02*
D03*
X1006562Y210264D02*
D03*
X988852Y282564D02*
D03*
X1025682D02*
D03*
X992592Y308054D02*
D03*
X1025612Y330914D02*
D03*
X1084166Y309706D02*
D03*
X1123536Y258906D02*
D03*
X1105826Y331206D02*
D03*
X1142656D02*
D03*
X1109566Y356696D02*
D03*
X1266912Y357584D02*
D03*
X1284692Y310594D02*
D03*
X1244052Y259794D02*
D03*
X1226342Y332094D02*
D03*
X1230082Y357584D02*
D03*
X1263102Y380444D02*
D03*
X1383752Y307966D02*
D03*
X1360892Y210176D02*
D03*
X1343182Y282476D02*
D03*
X1380012D02*
D03*
X1346922Y307966D02*
D03*
X1379942Y330826D02*
D03*
D90*
X740000Y920000D02*
D03*
X150000D02*
D03*
X1340000Y80000D02*
D03*
X80000D02*
D03*
M02*
