G04*
G04 #@! TF.GenerationSoftware,Altium Limited,Altium Designer,23.4.1 (23)*
G04*
G04 Layer_Physical_Order=5*
G04 Layer_Color=16737945*
%FSLAX44Y44*%
%MOMM*%
G71*
G04*
G04 #@! TF.SameCoordinates,AADE7E44-117F-4E65-A716-1D38EB4515B9*
G04*
G04*
G04 #@! TF.FilePolarity,Positive*
G04*
G01*
G75*
%ADD13C,0.2540*%
%ADD62R,1.5700X1.5700*%
%ADD63C,1.5700*%
%ADD64C,3.0000*%
%ADD65R,2.7500X2.7500*%
%ADD66C,2.7500*%
%ADD67C,2.7534*%
%ADD68R,2.7534X2.7534*%
%ADD69C,2.9972*%
%ADD70R,2.7500X2.7500*%
%ADD71C,1.0200*%
%ADD72C,1.8000*%
%ADD87R,1.2000X1.2000*%
%ADD88C,1.2000*%
%ADD89C,1.2700*%
%ADD90C,4.0000*%
D13*
X988920Y403000D02*
X1149250D01*
X847420Y544500D02*
X988920Y403000D01*
X795500Y544500D02*
X847420D01*
X1005332Y412750D02*
X1317750D01*
X844100Y560300D02*
X857782D01*
X1005332Y412750D01*
X975769Y697108D02*
X1067659D01*
X879010Y595500D02*
X977189Y693679D01*
X1030179Y756368D02*
Y796979D01*
X978609Y690250D02*
X1070500D01*
X844100Y611100D02*
X889761D01*
X795700Y595500D02*
X879010D01*
X844100Y585700D02*
X874059D01*
X977189Y693679D02*
X1069080D01*
X795550Y620750D02*
X894561D01*
X1030179Y756368D01*
X889761Y611100D02*
X975769Y697108D01*
X874059Y585700D02*
X978609Y690250D01*
X1026750Y759130D02*
Y835550D01*
X979870Y686500D02*
X1072000D01*
X796650Y647250D02*
X914870D01*
X1026750Y759130D01*
X862620Y569250D02*
X979870Y686500D01*
X794850Y569250D02*
X862620D01*
X785900Y585700D02*
X795700Y595500D01*
X414100Y814300D02*
X424400Y804000D01*
X677890Y782610D02*
X777822D01*
X661250Y799250D02*
X677890Y782610D01*
X777822D02*
X784112Y788900D01*
X776100Y849500D02*
X785900Y839700D01*
X834150Y829750D02*
X844100Y839700D01*
X828950Y773750D02*
X844100Y788900D01*
X16550Y285411D02*
X20320Y281641D01*
Y278892D02*
Y281641D01*
X98250Y289100D02*
Y546150D01*
Y289100D02*
X123190Y264160D01*
X16550Y285411D02*
Y550950D01*
X560500Y320250D02*
X589090Y291660D01*
Y274384D02*
Y291660D01*
X465750Y276250D02*
Y326000D01*
X596900Y313182D02*
Y315100D01*
X526250Y385750D02*
X596900Y315100D01*
X1261000Y275250D02*
X1310000D01*
X779750Y318500D02*
X825500D01*
X700250Y398000D02*
X779750Y318500D01*
X556250Y366500D02*
X679472D01*
X722884Y323088D01*
X573500Y344000D02*
X681652D01*
X702056Y323596D01*
X784112Y788900D02*
X785900D01*
X366650Y774250D02*
X668750D01*
X679500Y763500D01*
X785900D01*
X414100Y788900D02*
X423250Y779750D01*
X672500D01*
X678500Y773750D01*
X828950D01*
X366250Y799250D02*
X661250D01*
X514150Y788950D02*
X554450D01*
X514100Y788900D02*
X514150Y788950D01*
X554450D02*
X554500Y789000D01*
X112250Y676000D02*
X382250Y406000D01*
X852750D02*
X939250Y319500D01*
X382250Y406000D02*
X852750D01*
X25900Y763500D02*
X39650Y749750D01*
X89750D01*
X112250Y727250D01*
X84100Y814300D02*
X294800D01*
X335750Y855250D01*
X112250Y676000D02*
Y727250D01*
X84250Y675750D02*
X374250Y385750D01*
X526250D01*
X379000Y398000D02*
X700250D01*
X368750Y377250D02*
X440500D01*
X108250Y674500D02*
Y713950D01*
X377250Y394000D02*
X528750D01*
X104250Y672750D02*
X379000Y398000D01*
X96250Y669250D02*
X375750Y389750D01*
X37450Y675750D02*
X84250D01*
X375750Y389750D02*
X527750D01*
X100500Y670750D02*
X377250Y394000D01*
X84100Y661900D02*
X368750Y377250D01*
X108250Y674500D02*
X380500Y402250D01*
X100500Y670750D02*
Y696300D01*
X104250Y672750D02*
Y708000D01*
X96250Y669250D02*
Y692000D01*
X380500Y402250D02*
X781750D01*
X836500Y347500D01*
Y270750D02*
Y347500D01*
X939250Y271750D02*
Y319500D01*
X84100Y738100D02*
X108250Y713950D01*
X38500Y725500D02*
X86750D01*
X104250Y708000D01*
X25900Y738100D02*
X38500Y725500D01*
X25900Y687300D02*
X37450Y675750D01*
X367250Y357750D02*
X434000D01*
X365750Y368250D02*
X438500D01*
X90444Y634556D02*
X367250Y357750D01*
X38300Y649500D02*
X84500D01*
X84100Y636500D02*
X86044Y634556D01*
X84500Y649500D02*
X365750Y368250D01*
X86044Y634556D02*
X90444D01*
X92750Y624000D02*
X363500Y353250D01*
X84100Y611100D02*
X99150D01*
X351421Y358829D01*
X363500Y266000D02*
Y353250D01*
X38400Y624000D02*
X92750D01*
X351421Y314377D02*
Y358829D01*
X528750Y394000D02*
X556250Y366500D01*
X527750Y389750D02*
X573500Y344000D01*
X84100Y712700D02*
X100500Y696300D01*
X88250Y700000D02*
X96250Y692000D01*
X38600Y700000D02*
X88250D01*
X25900Y712700D02*
X38600Y700000D01*
X1317750Y412750D02*
X1400000Y330500D01*
X785900Y534900D02*
X795500Y544500D01*
X833200Y524000D02*
X844100Y534900D01*
X985250Y393750D01*
X1149250Y403000D02*
X1208000Y344250D01*
X1274500D01*
X985250Y393750D02*
X1142500D01*
X1261000Y275250D01*
X785900Y560300D02*
X794850Y569250D01*
X1274500Y344250D02*
X1299250Y319500D01*
X25900Y661900D02*
X38300Y649500D01*
X497500Y320250D02*
X560500D01*
X440500Y377250D02*
X497500Y320250D01*
X484250Y275250D02*
Y322500D01*
X438500Y368250D02*
X484250Y322500D01*
X434000Y357750D02*
X465750Y326000D01*
X25900Y636500D02*
X38400Y624000D01*
X84100Y585700D02*
X230000Y439800D01*
X126000Y314000D02*
Y538951D01*
X249250Y323750D02*
Y436500D01*
X230000Y314000D02*
Y439800D01*
X87500Y598250D02*
X249250Y436500D01*
X91951Y573000D02*
X126000Y538951D01*
X38600Y573000D02*
X91951D01*
X38750Y598250D02*
X87500D01*
X25900Y611100D02*
X38750Y598250D01*
X25900Y585700D02*
X38600Y573000D01*
X84100Y560300D02*
X98250Y546150D01*
X16550Y550950D02*
X25900Y560300D01*
X466600Y448000D02*
X553000D01*
X455900Y458700D02*
X466600Y448000D01*
X524450Y458700D02*
X539750Y474000D01*
X514100Y458700D02*
X524450D01*
X774249Y826041D02*
X785900Y814390D01*
X367641Y826041D02*
X774249D01*
X424050Y829750D02*
X834150D01*
X414100Y839700D02*
X424050Y829750D01*
X1313250Y791250D02*
X1328427Y806427D01*
X1171500Y791250D02*
X1313250D01*
X1328427Y806427D02*
Y834787D01*
X1072000Y686500D02*
X1173250Y787750D01*
X1070500Y690250D02*
X1171500Y791250D01*
X1069080Y693679D02*
X1183505Y808104D01*
X1067659Y697108D02*
X1177207Y806656D01*
X1173250Y787750D02*
X1323390D01*
X1348520Y812880D01*
X1192524Y808104D02*
X1197300Y812880D01*
X1183505Y808104D02*
X1192524D01*
X1177207Y806656D02*
Y834787D01*
X1328427D02*
X1348520Y854880D01*
X1177207Y834787D02*
X1197300Y854880D01*
X1030179Y796979D02*
X1046080Y812880D01*
X785900Y611100D02*
X795550Y620750D01*
X414100Y636500D02*
X424100Y626500D01*
X834100D02*
X844100Y636500D01*
X424100Y626500D02*
X834100D01*
X1026750Y835550D02*
X1046080Y854880D01*
X785900Y636500D02*
X796650Y647250D01*
X765750Y665500D02*
X779000Y652250D01*
X834450D01*
X844060Y661860D01*
X757860Y470000D02*
Y482640D01*
X747000Y493500D02*
X757860Y482640D01*
X372158Y500358D02*
X769642D01*
X749071Y496929D02*
X808000Y438000D01*
X414100Y458700D02*
X448900Y493500D01*
X355900Y484100D02*
X372158Y500358D01*
X448900Y493500D02*
X747000D01*
X414100Y484080D02*
X426949Y496929D01*
X769642Y500358D02*
X785900Y484100D01*
X426949Y496929D02*
X749071D01*
X808000Y438000D02*
X854000D01*
X862250Y446250D01*
X365900Y519500D02*
X725250D01*
X735250Y509500D02*
X785900D01*
X725250Y519500D02*
X735250Y509500D01*
X844900Y484100D02*
X862250Y466750D01*
Y446250D02*
Y466750D01*
X446050Y855250D02*
X455900Y865100D01*
X335750Y855250D02*
X446050D01*
X355900Y839700D02*
X365700Y849500D01*
X776100D01*
X844060Y661860D02*
X844100D01*
X424050Y702750D02*
X676500D01*
X689750Y716000D01*
X721000D01*
X734250Y702750D01*
X834150D01*
X728250Y524000D02*
X733750Y518500D01*
X747250D02*
X752750Y524000D01*
X733750Y518500D02*
X747250D01*
X752750Y524000D02*
X833200D01*
X425000D02*
X728250D01*
X414100Y534900D02*
X425000Y524000D01*
X355900Y509500D02*
X365900Y519500D01*
X775550Y545250D02*
X785900Y534900D01*
X366250Y545250D02*
X775550D01*
X355900Y534900D02*
X366250Y545250D01*
X414100Y560300D02*
X424650Y549750D01*
X622046D01*
Y549750D02*
X833550D01*
X414100Y585700D02*
X424550Y575250D01*
X833650D01*
X844100Y585700D01*
X648750Y570750D02*
X665250Y554250D01*
X366350Y570750D02*
X648750D01*
X785736Y560300D02*
X785900D01*
X779686Y554250D02*
X785736Y560300D01*
X665250Y554250D02*
X779686D01*
X775850Y595750D02*
X785900Y585700D01*
X365950Y595750D02*
X775850D01*
X833250Y600250D02*
X844100Y611100D01*
X424950Y600250D02*
X833250D01*
X366300Y621500D02*
X775500D01*
X785900Y611100D01*
X366250Y672250D02*
X733500D01*
X735250Y670500D02*
X777300D01*
X733500Y672250D02*
X735250Y670500D01*
X534250Y689500D02*
X758750D01*
X771250Y677000D01*
X522000Y677250D02*
X534250Y689500D01*
X777300Y670500D02*
X785900Y661900D01*
X355900D02*
X366250Y672250D01*
X414100Y661900D02*
X424250Y651750D01*
X685000D01*
X775900Y646500D02*
X785900Y636500D01*
X365900Y646500D02*
X775900D01*
X685000Y651750D02*
X698750Y665500D01*
X765750D01*
X523000Y698000D02*
X526500Y694500D01*
X764750D02*
X771930Y687320D01*
X526500Y694500D02*
X764750D01*
X414100Y687300D02*
X424150Y677250D01*
X522000D01*
X771250Y677000D02*
X833800D01*
X771930Y687320D02*
X785900D01*
X367600Y698000D02*
X523000D01*
X367100Y698500D02*
X367600Y698000D01*
X414100Y712700D02*
X424050Y702750D01*
X833800Y677000D02*
X844100Y687300D01*
X355900D02*
X367100Y698500D01*
X366260Y748500D02*
X645750D01*
X654750Y739500D02*
X784500D01*
X645750Y748500D02*
X654750Y739500D01*
X834100Y753500D02*
X844100Y763500D01*
X673250Y753500D02*
X834100D01*
X414100Y763500D02*
X423850Y753750D01*
X648750D01*
X653250Y758250D01*
X668500D01*
X673250Y753500D01*
X366200Y723000D02*
X775600D01*
X785900Y712700D01*
X355900D02*
X366200Y723000D01*
X834150Y702750D02*
X844100Y712700D01*
X450750Y727750D02*
X833750D01*
X844100Y738100D01*
X440360Y738140D02*
X450750Y727750D01*
X784500Y739500D02*
X785900Y738100D01*
X355900Y763500D02*
X366650Y774250D01*
X833550Y549750D02*
X844100Y560300D01*
X355900D02*
X366350Y570750D01*
X355900Y585700D02*
X365950Y595750D01*
X414100Y611100D02*
X424950Y600250D01*
X355900Y611100D02*
X366300Y621500D01*
X355900Y636500D02*
X365900Y646500D01*
X414100Y738140D02*
X440360D01*
X355900D02*
X366260Y748500D01*
X355900Y788900D02*
X366250Y799250D01*
X833800Y804000D02*
X844100Y814300D01*
X424400Y804000D02*
X833800D01*
X355900Y814300D02*
X367641Y826041D01*
D62*
X895000Y906800D02*
D03*
D63*
X925000D02*
D03*
D64*
X910000Y950000D02*
D03*
X1004080Y927880D02*
D03*
X1088080D02*
D03*
X1350770Y457000D02*
D03*
Y583000D02*
D03*
X648390Y71850D02*
D03*
X774390D02*
D03*
X301450D02*
D03*
X175450D02*
D03*
X1155300Y927880D02*
D03*
X1239300D02*
D03*
X1306520D02*
D03*
X1390520D02*
D03*
X1121100Y71492D02*
D03*
X1247100D02*
D03*
D65*
X1004080Y854880D02*
D03*
X774390Y144850D02*
D03*
X301450D02*
D03*
X1155300Y854880D02*
D03*
X1306520D02*
D03*
X1247100Y144492D02*
D03*
D66*
X1046080Y854880D02*
D03*
X1088080D02*
D03*
X1004080Y812880D02*
D03*
X1046080D02*
D03*
X1088080D02*
D03*
X1235770Y457000D02*
D03*
Y499000D02*
D03*
Y541000D02*
D03*
Y583000D02*
D03*
X1277770Y457000D02*
D03*
Y499000D02*
D03*
Y541000D02*
D03*
X648390Y186850D02*
D03*
X690390D02*
D03*
X732390D02*
D03*
X774390D02*
D03*
X648390Y144850D02*
D03*
X690390D02*
D03*
X732390D02*
D03*
X259450D02*
D03*
X217450D02*
D03*
X175450D02*
D03*
X301450Y186850D02*
D03*
X259450D02*
D03*
X217450D02*
D03*
X175450D02*
D03*
X1197300Y854880D02*
D03*
X1239300D02*
D03*
X1155300Y812880D02*
D03*
X1197300D02*
D03*
X1239300D02*
D03*
X1348520Y854880D02*
D03*
X1390520D02*
D03*
X1306520Y812880D02*
D03*
X1348520D02*
D03*
X1390520D02*
D03*
X1121100Y186492D02*
D03*
X1163100D02*
D03*
X1205100D02*
D03*
X1247100D02*
D03*
X1121100Y144492D02*
D03*
X1163100D02*
D03*
X1205100D02*
D03*
D67*
X1222234Y691205D02*
D03*
Y649295D02*
D03*
X1277352D02*
D03*
D68*
Y691205D02*
D03*
D69*
X1350250Y670250D02*
D03*
D70*
X1277770Y583000D02*
D03*
D71*
X802300Y865100D02*
D03*
Y839700D02*
D03*
Y814300D02*
D03*
Y788900D02*
D03*
Y763500D02*
D03*
Y738100D02*
D03*
Y712700D02*
D03*
Y687300D02*
D03*
Y661900D02*
D03*
Y636500D02*
D03*
Y611100D02*
D03*
Y585700D02*
D03*
Y560300D02*
D03*
Y534900D02*
D03*
Y509500D02*
D03*
Y484100D02*
D03*
Y458700D02*
D03*
Y941300D02*
D03*
Y915900D02*
D03*
Y890500D02*
D03*
X827700Y941300D02*
D03*
Y915900D02*
D03*
Y890500D02*
D03*
Y865100D02*
D03*
Y839700D02*
D03*
Y814300D02*
D03*
Y788900D02*
D03*
Y763500D02*
D03*
Y738100D02*
D03*
Y712700D02*
D03*
Y687300D02*
D03*
Y661900D02*
D03*
Y636500D02*
D03*
Y611100D02*
D03*
Y585700D02*
D03*
Y560300D02*
D03*
Y534900D02*
D03*
Y509500D02*
D03*
Y484100D02*
D03*
Y458700D02*
D03*
X472300Y865100D02*
D03*
Y839700D02*
D03*
Y814300D02*
D03*
Y788900D02*
D03*
Y763500D02*
D03*
Y738100D02*
D03*
Y712700D02*
D03*
Y687300D02*
D03*
Y661900D02*
D03*
Y636500D02*
D03*
Y611100D02*
D03*
Y585700D02*
D03*
Y560300D02*
D03*
Y534900D02*
D03*
Y509500D02*
D03*
Y484100D02*
D03*
Y458700D02*
D03*
Y941300D02*
D03*
Y915900D02*
D03*
Y890500D02*
D03*
X497700Y941300D02*
D03*
Y915900D02*
D03*
Y890500D02*
D03*
Y865100D02*
D03*
Y839700D02*
D03*
Y814300D02*
D03*
Y788900D02*
D03*
Y763500D02*
D03*
Y738100D02*
D03*
Y712700D02*
D03*
Y687300D02*
D03*
Y661900D02*
D03*
Y636500D02*
D03*
Y611100D02*
D03*
Y585700D02*
D03*
Y560300D02*
D03*
Y534900D02*
D03*
Y509500D02*
D03*
Y484100D02*
D03*
Y458700D02*
D03*
X372300Y865100D02*
D03*
Y839700D02*
D03*
Y814300D02*
D03*
Y788900D02*
D03*
Y763500D02*
D03*
Y738100D02*
D03*
Y712700D02*
D03*
Y687300D02*
D03*
Y661900D02*
D03*
Y636500D02*
D03*
Y611100D02*
D03*
Y585700D02*
D03*
Y560300D02*
D03*
Y534900D02*
D03*
Y509500D02*
D03*
Y484100D02*
D03*
Y458700D02*
D03*
Y941300D02*
D03*
Y915900D02*
D03*
Y890500D02*
D03*
X397700Y941300D02*
D03*
Y915900D02*
D03*
Y890500D02*
D03*
Y865100D02*
D03*
Y839700D02*
D03*
Y814300D02*
D03*
Y788900D02*
D03*
Y763500D02*
D03*
Y738100D02*
D03*
Y712700D02*
D03*
Y687300D02*
D03*
Y661900D02*
D03*
Y636500D02*
D03*
Y611100D02*
D03*
Y585700D02*
D03*
Y560300D02*
D03*
Y534900D02*
D03*
Y509500D02*
D03*
Y484100D02*
D03*
Y458700D02*
D03*
X42300Y865100D02*
D03*
Y839700D02*
D03*
Y814300D02*
D03*
Y788900D02*
D03*
Y763500D02*
D03*
Y738100D02*
D03*
Y712700D02*
D03*
Y687300D02*
D03*
Y661900D02*
D03*
Y636500D02*
D03*
Y611100D02*
D03*
Y585700D02*
D03*
Y560300D02*
D03*
Y534900D02*
D03*
Y509500D02*
D03*
Y484100D02*
D03*
Y458700D02*
D03*
Y941300D02*
D03*
Y915900D02*
D03*
Y890500D02*
D03*
X67700Y941300D02*
D03*
Y915900D02*
D03*
Y890500D02*
D03*
Y865100D02*
D03*
Y839700D02*
D03*
Y814300D02*
D03*
Y788900D02*
D03*
Y763500D02*
D03*
Y738100D02*
D03*
Y712700D02*
D03*
Y687300D02*
D03*
Y661900D02*
D03*
Y636500D02*
D03*
Y611100D02*
D03*
Y585700D02*
D03*
Y560300D02*
D03*
Y534900D02*
D03*
Y509500D02*
D03*
Y484100D02*
D03*
Y458700D02*
D03*
D72*
X815000Y928600D02*
D03*
Y471400D02*
D03*
X485000Y928600D02*
D03*
Y471400D02*
D03*
X385000Y928600D02*
D03*
Y471400D02*
D03*
X55000Y928600D02*
D03*
Y471400D02*
D03*
D87*
X274000Y700900D02*
D03*
X705000Y704650D02*
D03*
D88*
X274000Y652100D02*
D03*
X705000Y655850D02*
D03*
D89*
X927100Y261620D02*
D03*
X865886Y538774D02*
D03*
X898271Y637032D02*
D03*
X945896D02*
D03*
X414100Y814300D02*
D03*
X514100Y814578D02*
D03*
Y839700D02*
D03*
X743500Y791500D02*
D03*
X785900Y839700D02*
D03*
X844100D02*
D03*
Y788900D02*
D03*
X998982Y592836D02*
D03*
X919734Y588010D02*
D03*
X985520Y584454D02*
D03*
X1139180Y452318D02*
D03*
X1150096Y489592D02*
D03*
X1071460Y509436D02*
D03*
X20320Y278892D02*
D03*
X123190Y264160D02*
D03*
X100330Y261366D02*
D03*
X454406Y262128D02*
D03*
X589090Y274384D02*
D03*
X484250Y275250D02*
D03*
X465750Y276250D02*
D03*
X691388Y308610D02*
D03*
X702056Y323596D02*
D03*
X596900Y313182D02*
D03*
X1175258Y322580D02*
D03*
X1194562Y322834D02*
D03*
X1299250Y319500D02*
D03*
X1205230Y310388D02*
D03*
X1310000Y275250D02*
D03*
X1321816Y260858D02*
D03*
X810768Y309372D02*
D03*
X722884Y323088D02*
D03*
X638000Y789250D02*
D03*
X623250Y764000D02*
D03*
X194000Y758500D02*
D03*
X207750Y778250D02*
D03*
X554500Y789000D02*
D03*
X1164176Y309706D02*
D03*
X1072000Y320250D02*
D03*
X906926Y330969D02*
D03*
X958500Y272500D02*
D03*
X1053750Y274750D02*
D03*
X242500Y560719D02*
D03*
X836500Y270750D02*
D03*
X939250Y271750D02*
D03*
X84100Y687300D02*
D03*
X317250Y379500D02*
D03*
X757453Y355982D02*
D03*
X825500Y318500D02*
D03*
X844100Y534900D02*
D03*
X1032650Y543960D02*
D03*
X1142586Y379556D02*
D03*
X1146396Y356696D02*
D03*
X1263172Y332094D02*
D03*
X1400000Y330500D02*
D03*
X790543Y330492D02*
D03*
X670960Y378414D02*
D03*
X671030Y330064D02*
D03*
X674770Y355554D02*
D03*
X84100Y636500D02*
D03*
Y661900D02*
D03*
X556660Y308564D02*
D03*
X519830D02*
D03*
X84100Y611100D02*
D03*
X126000Y314000D02*
D03*
X363500Y266000D02*
D03*
X377250Y262250D02*
D03*
X351421Y314377D02*
D03*
X338000Y310500D02*
D03*
X249250Y323750D02*
D03*
X260135Y310500D02*
D03*
X216692Y309750D02*
D03*
X230000Y314000D02*
D03*
X139225Y309500D02*
D03*
X552850Y331424D02*
D03*
X169600Y444200D02*
D03*
X322500Y561719D02*
D03*
X311000Y676500D02*
D03*
X279500Y606500D02*
D03*
X965962Y604012D02*
D03*
X25900Y865100D02*
D03*
X757860Y470000D02*
D03*
X721250Y509248D02*
D03*
X455900Y483860D02*
D03*
X514100D02*
D03*
X785900Y484100D02*
D03*
X844100Y458700D02*
D03*
X414100D02*
D03*
X414100Y484080D02*
D03*
X844100Y484100D02*
D03*
X84100Y814300D02*
D03*
Y839700D02*
D03*
X455900D02*
D03*
X355900D02*
D03*
X414100D02*
D03*
X553000Y448000D02*
D03*
X539750Y474000D02*
D03*
X1019200Y673125D02*
D03*
X844100Y661860D02*
D03*
X1403000Y272500D02*
D03*
X566250Y176750D02*
D03*
X447000Y177250D02*
D03*
X1039750Y175750D02*
D03*
X710500Y610250D02*
D03*
X514100Y509500D02*
D03*
X455900D02*
D03*
X514100Y560300D02*
D03*
X455900D02*
D03*
X671750Y563140D02*
D03*
X751750Y563719D02*
D03*
X676000Y610250D02*
D03*
X742000Y680110D02*
D03*
X414100Y661900D02*
D03*
X455900D02*
D03*
X514100D02*
D03*
X414100Y687300D02*
D03*
X514100Y687320D02*
D03*
X455900Y687300D02*
D03*
X565750Y714000D02*
D03*
X785900Y763500D02*
D03*
X300500Y505250D02*
D03*
X414100Y534900D02*
D03*
X355900D02*
D03*
X245252Y606500D02*
D03*
X84100Y712700D02*
D03*
X135000Y737140D02*
D03*
X414100Y763500D02*
D03*
X355900D02*
D03*
X282500Y584250D02*
D03*
X311500Y526500D02*
D03*
X599600Y444200D02*
D03*
X1033150Y580750D02*
D03*
X844100Y636500D02*
D03*
X455900Y534900D02*
D03*
X514100D02*
D03*
X785900D02*
D03*
Y560300D02*
D03*
X514100Y585743D02*
D03*
X785900Y585700D02*
D03*
X514100Y636640D02*
D03*
X785900Y687320D02*
D03*
X414100Y712700D02*
D03*
X455900Y738100D02*
D03*
X514100D02*
D03*
X785900D02*
D03*
X414100Y738140D02*
D03*
X455900Y763500D02*
D03*
Y788900D02*
D03*
X514100D02*
D03*
X455900Y814300D02*
D03*
X785900Y814390D02*
D03*
X355900Y509500D02*
D03*
Y484100D02*
D03*
Y611100D02*
D03*
X414100D02*
D03*
X455900D02*
D03*
X355900Y636500D02*
D03*
X414100D02*
D03*
X455900D02*
D03*
X355900Y661900D02*
D03*
Y712700D02*
D03*
X455900D02*
D03*
X355900Y738140D02*
D03*
X84100Y738100D02*
D03*
X355900Y814300D02*
D03*
Y788900D02*
D03*
X84100Y915900D02*
D03*
X25900D02*
D03*
X84100Y941300D02*
D03*
X25900D02*
D03*
X514100Y915900D02*
D03*
Y941300D02*
D03*
X455900D02*
D03*
Y915900D02*
D03*
X844100Y814300D02*
D03*
X785900Y788900D02*
D03*
X844100Y763500D02*
D03*
Y738100D02*
D03*
Y712700D02*
D03*
X785900D02*
D03*
X844100Y687300D02*
D03*
X785900Y661900D02*
D03*
Y636500D02*
D03*
X844100Y611100D02*
D03*
X785900D02*
D03*
X844100Y585700D02*
D03*
Y560300D02*
D03*
X785900Y509500D02*
D03*
X514100Y458700D02*
D03*
X455900D02*
D03*
Y585700D02*
D03*
X514100Y611100D02*
D03*
Y712700D02*
D03*
Y763500D02*
D03*
X455900Y865100D02*
D03*
X414100Y788900D02*
D03*
X355900Y687300D02*
D03*
Y585700D02*
D03*
X414100D02*
D03*
Y560300D02*
D03*
X355900D02*
D03*
X25900Y458700D02*
D03*
X84100D02*
D03*
Y484100D02*
D03*
X25900D02*
D03*
Y509500D02*
D03*
X84100D02*
D03*
Y534900D02*
D03*
X25900D02*
D03*
X84100Y560300D02*
D03*
X25900D02*
D03*
X84100Y585700D02*
D03*
X25900D02*
D03*
Y611100D02*
D03*
Y636500D02*
D03*
Y661900D02*
D03*
Y687300D02*
D03*
Y712700D02*
D03*
Y738100D02*
D03*
Y763500D02*
D03*
X84100D02*
D03*
Y788900D02*
D03*
X25900D02*
D03*
Y814300D02*
D03*
Y839700D02*
D03*
X25440Y327737D02*
D03*
X43740Y283120D02*
D03*
X1019200Y710000D02*
D03*
X740830Y528750D02*
D03*
X711750Y586250D02*
D03*
X1017000Y644000D02*
D03*
X1051000Y607000D02*
D03*
X177482Y258980D02*
D03*
X159772Y331280D02*
D03*
X200342Y356770D02*
D03*
X196532Y379630D02*
D03*
X163512Y356770D02*
D03*
X196602Y331280D02*
D03*
X94170Y175260D02*
D03*
X61150Y210820D02*
D03*
X47180Y308610D02*
D03*
X80200Y331470D02*
D03*
X80270Y283120D02*
D03*
X84010Y308610D02*
D03*
X317385Y331862D02*
D03*
X284295Y357352D02*
D03*
X321125D02*
D03*
X280555Y331862D02*
D03*
X298265Y259562D02*
D03*
X397395Y283602D02*
D03*
X434225D02*
D03*
X415105Y211302D02*
D03*
X401135Y309092D02*
D03*
X437965D02*
D03*
X434155Y331952D02*
D03*
X651910Y257764D02*
D03*
X634200Y330064D02*
D03*
X612540Y308564D02*
D03*
X637940Y355554D02*
D03*
X794283Y355982D02*
D03*
X552920Y283074D02*
D03*
X574440Y261574D02*
D03*
X790473Y378842D02*
D03*
X494430Y261574D02*
D03*
X870166Y282619D02*
D03*
X910736Y308109D02*
D03*
X753713Y330492D02*
D03*
X732053Y308992D02*
D03*
X873906Y308109D02*
D03*
X848506Y261119D02*
D03*
X887876Y210319D02*
D03*
X917848Y173890D02*
D03*
X771423Y258192D02*
D03*
X906996Y282619D02*
D03*
X533800Y210774D02*
D03*
X516090Y283074D02*
D03*
X1390610Y174362D02*
D03*
X1029422Y308054D02*
D03*
X1047202Y261064D02*
D03*
X967192D02*
D03*
X1006562Y210264D02*
D03*
X988852Y282564D02*
D03*
X1025682D02*
D03*
X992592Y308054D02*
D03*
X1025612Y330914D02*
D03*
X1084166Y309706D02*
D03*
X1123536Y258906D02*
D03*
X1105826Y331206D02*
D03*
X1142656D02*
D03*
X1109566Y356696D02*
D03*
X1266912Y357584D02*
D03*
X1284692Y310594D02*
D03*
X1244052Y259794D02*
D03*
X1226342Y332094D02*
D03*
X1230082Y357584D02*
D03*
X1263102Y380444D02*
D03*
X1383752Y307966D02*
D03*
X1360892Y210176D02*
D03*
X1343182Y282476D02*
D03*
X1380012D02*
D03*
X1346922Y307966D02*
D03*
X1379942Y330826D02*
D03*
D90*
X740000Y920000D02*
D03*
X150000D02*
D03*
X1340000Y80000D02*
D03*
X80000D02*
D03*
M02*
