G04*
G04 #@! TF.GenerationSoftware,Altium Limited,Altium Designer,23.4.1 (23)*
G04*
G04 Layer_Color=8388736*
%FSLAX44Y44*%
%MOMM*%
G71*
G04*
G04 #@! TF.SameCoordinates,AADE7E44-117F-4E65-A716-1D38EB4515B9*
G04*
G04*
G04 #@! TF.FilePolarity,Negative*
G04*
G01*
G75*
%ADD20C,1.7397*%
%ADD21R,1.7300X0.5800*%
%ADD22R,1.3046X1.4562*%
%ADD23R,1.4562X1.3046*%
G04:AMPARAMS|DCode=24|XSize=1.3082mm|YSize=0.7621mm|CornerRadius=0.3811mm|HoleSize=0mm|Usage=FLASHONLY|Rotation=0.000|XOffset=0mm|YOffset=0mm|HoleType=Round|Shape=RoundedRectangle|*
%AMROUNDEDRECTD24*
21,1,1.3082,0.0000,0,0,0.0*
21,1,0.5461,0.7621,0,0,0.0*
1,1,0.7621,0.2730,0.0000*
1,1,0.7621,-0.2730,0.0000*
1,1,0.7621,-0.2730,0.0000*
1,1,0.7621,0.2730,0.0000*
%
%ADD24ROUNDEDRECTD24*%
%ADD25R,1.3082X0.7621*%
G04:AMPARAMS|DCode=26|XSize=1.2052mm|YSize=0.5298mm|CornerRadius=0.2649mm|HoleSize=0mm|Usage=FLASHONLY|Rotation=270.000|XOffset=0mm|YOffset=0mm|HoleType=Round|Shape=RoundedRectangle|*
%AMROUNDEDRECTD26*
21,1,1.2052,0.0000,0,0,270.0*
21,1,0.6754,0.5298,0,0,270.0*
1,1,0.5298,0.0000,-0.3377*
1,1,0.5298,0.0000,0.3377*
1,1,0.5298,0.0000,0.3377*
1,1,0.5298,0.0000,-0.3377*
%
%ADD26ROUNDEDRECTD26*%
%ADD27R,0.5298X1.2052*%
%ADD28R,0.5200X0.5200*%
G04:AMPARAMS|DCode=30|XSize=1.3082mm|YSize=0.7621mm|CornerRadius=0.3811mm|HoleSize=0mm|Usage=FLASHONLY|Rotation=90.000|XOffset=0mm|YOffset=0mm|HoleType=Round|Shape=RoundedRectangle|*
%AMROUNDEDRECTD30*
21,1,1.3082,0.0000,0,0,90.0*
21,1,0.5461,0.7621,0,0,90.0*
1,1,0.7621,0.0000,0.2730*
1,1,0.7621,0.0000,-0.2730*
1,1,0.7621,0.0000,-0.2730*
1,1,0.7621,0.0000,0.2730*
%
%ADD30ROUNDEDRECTD30*%
%ADD31R,0.7621X1.3082*%
%ADD32R,3.1000X3.5700*%
G04:AMPARAMS|DCode=33|XSize=1.9mm|YSize=0.6mm|CornerRadius=0.3mm|HoleSize=0mm|Usage=FLASHONLY|Rotation=270.000|XOffset=0mm|YOffset=0mm|HoleType=Round|Shape=RoundedRectangle|*
%AMROUNDEDRECTD33*
21,1,1.9000,0.0000,0,0,270.0*
21,1,1.3000,0.6000,0,0,270.0*
1,1,0.6000,0.0000,-0.6500*
1,1,0.6000,0.0000,0.6500*
1,1,0.6000,0.0000,0.6500*
1,1,0.6000,0.0000,-0.6500*
%
%ADD33ROUNDEDRECTD33*%
%ADD34R,1.4562X1.2546*%
%ADD35R,1.3500X0.9500*%
%ADD36R,4.0000X1.5000*%
%ADD37R,0.7000X1.0000*%
%ADD39R,1.2084X1.0121*%
%ADD41R,0.5000X0.3500*%
%ADD42R,1.9600X3.1500*%
%ADD45R,0.8000X0.4000*%
%ADD46R,0.3500X0.5000*%
%ADD47R,0.4000X0.8000*%
%ADD48R,1.7800X1.0200*%
%ADD49R,1.0121X1.2084*%
%ADD51R,1.0000X0.8500*%
G04:AMPARAMS|DCode=52|XSize=0.7mm|YSize=1.4mm|CornerRadius=0.1245mm|HoleSize=0mm|Usage=FLASHONLY|Rotation=90.000|XOffset=0mm|YOffset=0mm|HoleType=Round|Shape=RoundedRectangle|*
%AMROUNDEDRECTD52*
21,1,0.7000,1.1510,0,0,90.0*
21,1,0.4510,1.4000,0,0,90.0*
1,1,0.2490,0.5755,0.2255*
1,1,0.2490,0.5755,-0.2255*
1,1,0.2490,-0.5755,-0.2255*
1,1,0.2490,-0.5755,0.2255*
%
%ADD52ROUNDEDRECTD52*%
%ADD53R,1.0000X0.9000*%
%ADD54R,0.9000X1.0000*%
%ADD55R,1.7000X0.7500*%
%ADD56R,1.4200X1.8300*%
%ADD57R,0.8500X1.0000*%
%ADD58R,1.0600X1.3700*%
%ADD59R,1.2000X1.0500*%
%ADD60R,2.1000X1.4000*%
%ADD61R,1.3000X1.2000*%
%ADD62R,1.5700X1.5700*%
%ADD63C,1.5700*%
%ADD64C,3.0000*%
%ADD65R,2.7500X2.7500*%
%ADD66C,2.7500*%
%ADD67C,2.7534*%
%ADD68R,2.7534X2.7534*%
%ADD69C,2.9972*%
%ADD70R,2.7500X2.7500*%
%ADD71C,1.0200*%
%ADD72C,1.8000*%
%ADD73R,1.3500X1.3500*%
%ADD74C,1.3500*%
%ADD75C,1.4200*%
%ADD76C,4.1500*%
G36*
X1071568Y726793D02*
X1071682Y726766D01*
X1071792Y726720D01*
X1071892Y726659D01*
X1071982Y726582D01*
X1072059Y726492D01*
X1072120Y726392D01*
X1072165Y726283D01*
X1072193Y726168D01*
X1072202Y726050D01*
Y723002D01*
X1082800D01*
X1082918Y722993D01*
X1083033Y722965D01*
X1083141Y722920D01*
X1083242Y722859D01*
X1083332Y722782D01*
X1083409Y722692D01*
X1083470Y722591D01*
X1083507Y722502D01*
X1085800D01*
X1085918Y722493D01*
X1086032Y722466D01*
X1086142Y722420D01*
X1086242Y722359D01*
X1086332Y722282D01*
X1086409Y722192D01*
X1086470Y722092D01*
X1086516Y721982D01*
X1086543Y721868D01*
X1086552Y721750D01*
Y717750D01*
X1086543Y717632D01*
X1086516Y717517D01*
X1086470Y717408D01*
X1086409Y717308D01*
X1086332Y717218D01*
X1086242Y717141D01*
X1086142Y717080D01*
X1086032Y717035D01*
X1085918Y717007D01*
X1085800Y716998D01*
X1083552D01*
Y716002D01*
X1085800D01*
X1085918Y715993D01*
X1086032Y715965D01*
X1086142Y715920D01*
X1086242Y715859D01*
X1086332Y715782D01*
X1086409Y715692D01*
X1086470Y715592D01*
X1086516Y715482D01*
X1086543Y715368D01*
X1086552Y715250D01*
Y711250D01*
X1086543Y711132D01*
X1086516Y711018D01*
X1086470Y710909D01*
X1086409Y710808D01*
X1086332Y710718D01*
X1086242Y710641D01*
X1086142Y710580D01*
X1086032Y710535D01*
X1085918Y710507D01*
X1085800Y710498D01*
X1083552D01*
Y709502D01*
X1085800D01*
X1085918Y709493D01*
X1086032Y709465D01*
X1086142Y709420D01*
X1086242Y709359D01*
X1086332Y709282D01*
X1086409Y709192D01*
X1086470Y709091D01*
X1086516Y708982D01*
X1086543Y708868D01*
X1086552Y708750D01*
Y704750D01*
X1086543Y704632D01*
X1086516Y704518D01*
X1086470Y704408D01*
X1086409Y704308D01*
X1086332Y704218D01*
X1086242Y704141D01*
X1086142Y704080D01*
X1086032Y704035D01*
X1085918Y704007D01*
X1085800Y703998D01*
X1083552D01*
Y703002D01*
X1085800D01*
X1085918Y702993D01*
X1086032Y702965D01*
X1086142Y702920D01*
X1086242Y702859D01*
X1086332Y702782D01*
X1086409Y702692D01*
X1086470Y702592D01*
X1086516Y702483D01*
X1086543Y702368D01*
X1086552Y702250D01*
Y698250D01*
X1086543Y698132D01*
X1086516Y698018D01*
X1086470Y697908D01*
X1086409Y697808D01*
X1086332Y697718D01*
X1086242Y697641D01*
X1086142Y697580D01*
X1086032Y697534D01*
X1085918Y697507D01*
X1085800Y697498D01*
X1083507D01*
X1083470Y697409D01*
X1083409Y697308D01*
X1083332Y697218D01*
X1083242Y697141D01*
X1083141Y697080D01*
X1083033Y697035D01*
X1082918Y697007D01*
X1082800Y696998D01*
X1072202D01*
Y693950D01*
X1072193Y693832D01*
X1072165Y693717D01*
X1072120Y693608D01*
X1072059Y693508D01*
X1071982Y693418D01*
X1071892Y693341D01*
X1071792Y693280D01*
X1071682Y693234D01*
X1071568Y693207D01*
X1071450Y693198D01*
X1067150D01*
X1067032Y693207D01*
X1066917Y693234D01*
X1066808Y693280D01*
X1066708Y693341D01*
X1066618Y693418D01*
X1066541Y693508D01*
X1066480Y693608D01*
X1066434Y693717D01*
X1066407Y693832D01*
X1066398Y693950D01*
Y696998D01*
X1063000D01*
X1062882Y697007D01*
X1062767Y697035D01*
X1062658Y697080D01*
X1062558Y697141D01*
X1062468Y697218D01*
X1062391Y697308D01*
X1062330Y697409D01*
X1062284Y697517D01*
X1062257Y697632D01*
X1062248Y697750D01*
Y722250D01*
X1062257Y722368D01*
X1062284Y722483D01*
X1062330Y722591D01*
X1062391Y722692D01*
X1062468Y722782D01*
X1062558Y722859D01*
X1062658Y722920D01*
X1062767Y722965D01*
X1062882Y722993D01*
X1063000Y723002D01*
X1066398D01*
Y726050D01*
X1066407Y726168D01*
X1066434Y726283D01*
X1066480Y726392D01*
X1066541Y726492D01*
X1066618Y726582D01*
X1066708Y726659D01*
X1066808Y726720D01*
X1066917Y726766D01*
X1067032Y726793D01*
X1067150Y726802D01*
X1071450D01*
X1071568Y726793D01*
D02*
G37*
G36*
X1026568D02*
X1026683Y726766D01*
X1026792Y726720D01*
X1026892Y726659D01*
X1026982Y726582D01*
X1027059Y726492D01*
X1027120Y726392D01*
X1027166Y726283D01*
X1027193Y726168D01*
X1027202Y726050D01*
Y723002D01*
X1030600D01*
X1030718Y722993D01*
X1030832Y722965D01*
X1030941Y722920D01*
X1031042Y722859D01*
X1031132Y722782D01*
X1031209Y722692D01*
X1031270Y722591D01*
X1031315Y722483D01*
X1031343Y722368D01*
X1031352Y722250D01*
Y697750D01*
X1031343Y697632D01*
X1031315Y697517D01*
X1031270Y697409D01*
X1031209Y697308D01*
X1031132Y697218D01*
X1031042Y697141D01*
X1030941Y697080D01*
X1030832Y697035D01*
X1030718Y697007D01*
X1030600Y696998D01*
X1027202D01*
Y693950D01*
X1027193Y693832D01*
X1027166Y693717D01*
X1027120Y693608D01*
X1027059Y693508D01*
X1026982Y693418D01*
X1026892Y693341D01*
X1026792Y693280D01*
X1026683Y693234D01*
X1026568Y693207D01*
X1026450Y693198D01*
X1022150D01*
X1022032Y693207D01*
X1021917Y693234D01*
X1021808Y693280D01*
X1021708Y693341D01*
X1021618Y693418D01*
X1021541Y693508D01*
X1021480Y693608D01*
X1021434Y693717D01*
X1021407Y693832D01*
X1021398Y693950D01*
Y696998D01*
X1010800D01*
X1010682Y697007D01*
X1010567Y697035D01*
X1010458Y697080D01*
X1010358Y697141D01*
X1010268Y697218D01*
X1010191Y697308D01*
X1010130Y697409D01*
X1010093Y697498D01*
X1007800D01*
X1007682Y697507D01*
X1007568Y697534D01*
X1007458Y697580D01*
X1007358Y697641D01*
X1007268Y697718D01*
X1007191Y697808D01*
X1007130Y697908D01*
X1007085Y698018D01*
X1007057Y698132D01*
X1007048Y698250D01*
Y702250D01*
X1007057Y702368D01*
X1007085Y702483D01*
X1007130Y702592D01*
X1007191Y702692D01*
X1007268Y702782D01*
X1007358Y702859D01*
X1007458Y702920D01*
X1007568Y702965D01*
X1007682Y702993D01*
X1007800Y703002D01*
X1010048D01*
Y703998D01*
X1007800D01*
X1007682Y704007D01*
X1007568Y704035D01*
X1007458Y704080D01*
X1007358Y704141D01*
X1007268Y704218D01*
X1007191Y704308D01*
X1007130Y704408D01*
X1007085Y704518D01*
X1007057Y704632D01*
X1007048Y704750D01*
Y708750D01*
X1007057Y708868D01*
X1007085Y708982D01*
X1007130Y709091D01*
X1007191Y709192D01*
X1007268Y709282D01*
X1007358Y709359D01*
X1007458Y709420D01*
X1007568Y709465D01*
X1007682Y709493D01*
X1007800Y709502D01*
X1010048D01*
Y710498D01*
X1007800D01*
X1007682Y710507D01*
X1007568Y710535D01*
X1007458Y710580D01*
X1007358Y710641D01*
X1007268Y710718D01*
X1007191Y710808D01*
X1007130Y710909D01*
X1007085Y711018D01*
X1007057Y711132D01*
X1007048Y711250D01*
Y715250D01*
X1007057Y715368D01*
X1007085Y715482D01*
X1007130Y715592D01*
X1007191Y715692D01*
X1007268Y715782D01*
X1007358Y715859D01*
X1007458Y715920D01*
X1007568Y715965D01*
X1007682Y715993D01*
X1007800Y716002D01*
X1010048D01*
Y716998D01*
X1007800D01*
X1007682Y717007D01*
X1007568Y717035D01*
X1007458Y717080D01*
X1007358Y717141D01*
X1007268Y717218D01*
X1007191Y717308D01*
X1007130Y717408D01*
X1007085Y717517D01*
X1007057Y717632D01*
X1007048Y717750D01*
Y721750D01*
X1007057Y721868D01*
X1007085Y721982D01*
X1007130Y722092D01*
X1007191Y722192D01*
X1007268Y722282D01*
X1007358Y722359D01*
X1007458Y722420D01*
X1007568Y722466D01*
X1007682Y722493D01*
X1007800Y722502D01*
X1010093D01*
X1010130Y722591D01*
X1010191Y722692D01*
X1010268Y722782D01*
X1010358Y722859D01*
X1010458Y722920D01*
X1010567Y722965D01*
X1010682Y722993D01*
X1010800Y723002D01*
X1021398D01*
Y726050D01*
X1021407Y726168D01*
X1021434Y726283D01*
X1021480Y726392D01*
X1021541Y726492D01*
X1021618Y726582D01*
X1021708Y726659D01*
X1021808Y726720D01*
X1021917Y726766D01*
X1022032Y726793D01*
X1022150Y726802D01*
X1026450D01*
X1026568Y726793D01*
D02*
G37*
G36*
X1115518Y726668D02*
X1115632Y726640D01*
X1115742Y726595D01*
X1115842Y726534D01*
X1115932Y726457D01*
X1116009Y726367D01*
X1116070Y726266D01*
X1116115Y726158D01*
X1116143Y726043D01*
X1116152Y725925D01*
Y722877D01*
X1126750D01*
X1126868Y722868D01*
X1126982Y722840D01*
X1127092Y722795D01*
X1127192Y722734D01*
X1127282Y722657D01*
X1127359Y722567D01*
X1127420Y722467D01*
X1127457Y722377D01*
X1129750D01*
X1129868Y722368D01*
X1129983Y722340D01*
X1130091Y722295D01*
X1130192Y722234D01*
X1130282Y722157D01*
X1130359Y722067D01*
X1130420Y721966D01*
X1130465Y721858D01*
X1130493Y721743D01*
X1130502Y721625D01*
Y717625D01*
X1130493Y717507D01*
X1130465Y717393D01*
X1130420Y717283D01*
X1130359Y717183D01*
X1130282Y717093D01*
X1130192Y717016D01*
X1130091Y716955D01*
X1129983Y716909D01*
X1129868Y716882D01*
X1129750Y716873D01*
X1127502D01*
Y715877D01*
X1129750D01*
X1129868Y715868D01*
X1129983Y715841D01*
X1130091Y715795D01*
X1130192Y715734D01*
X1130282Y715657D01*
X1130359Y715567D01*
X1130420Y715467D01*
X1130465Y715358D01*
X1130493Y715243D01*
X1130502Y715125D01*
Y711125D01*
X1130493Y711007D01*
X1130465Y710892D01*
X1130420Y710783D01*
X1130359Y710683D01*
X1130282Y710593D01*
X1130192Y710516D01*
X1130091Y710455D01*
X1129983Y710409D01*
X1129868Y710382D01*
X1129750Y710373D01*
X1127502D01*
Y709377D01*
X1129750D01*
X1129868Y709368D01*
X1129983Y709341D01*
X1130091Y709295D01*
X1130192Y709234D01*
X1130282Y709157D01*
X1130359Y709067D01*
X1130420Y708967D01*
X1130465Y708857D01*
X1130493Y708743D01*
X1130502Y708625D01*
Y704625D01*
X1130493Y704507D01*
X1130465Y704392D01*
X1130420Y704283D01*
X1130359Y704183D01*
X1130282Y704093D01*
X1130192Y704016D01*
X1130091Y703955D01*
X1129983Y703910D01*
X1129868Y703882D01*
X1129750Y703873D01*
X1127502D01*
Y702877D01*
X1129750D01*
X1129868Y702868D01*
X1129983Y702840D01*
X1130091Y702795D01*
X1130192Y702734D01*
X1130282Y702657D01*
X1130359Y702567D01*
X1130420Y702467D01*
X1130465Y702357D01*
X1130493Y702243D01*
X1130502Y702125D01*
Y698125D01*
X1130493Y698007D01*
X1130465Y697893D01*
X1130420Y697783D01*
X1130359Y697683D01*
X1130282Y697593D01*
X1130192Y697516D01*
X1130091Y697455D01*
X1129983Y697410D01*
X1129868Y697382D01*
X1129750Y697373D01*
X1127457D01*
X1127420Y697283D01*
X1127359Y697183D01*
X1127282Y697093D01*
X1127192Y697016D01*
X1127092Y696955D01*
X1126982Y696909D01*
X1126868Y696882D01*
X1126750Y696873D01*
X1116152D01*
Y693825D01*
X1116143Y693707D01*
X1116115Y693593D01*
X1116070Y693483D01*
X1116009Y693383D01*
X1115932Y693293D01*
X1115842Y693216D01*
X1115742Y693155D01*
X1115632Y693110D01*
X1115518Y693082D01*
X1115400Y693073D01*
X1111100D01*
X1110982Y693082D01*
X1110867Y693110D01*
X1110758Y693155D01*
X1110658Y693216D01*
X1110568Y693293D01*
X1110491Y693383D01*
X1110430Y693483D01*
X1110385Y693593D01*
X1110357Y693707D01*
X1110348Y693825D01*
Y696873D01*
X1106950D01*
X1106832Y696882D01*
X1106718Y696909D01*
X1106609Y696955D01*
X1106508Y697016D01*
X1106418Y697093D01*
X1106341Y697183D01*
X1106280Y697283D01*
X1106235Y697393D01*
X1106207Y697507D01*
X1106198Y697625D01*
Y722125D01*
X1106207Y722243D01*
X1106235Y722357D01*
X1106280Y722467D01*
X1106341Y722567D01*
X1106418Y722657D01*
X1106508Y722734D01*
X1106609Y722795D01*
X1106718Y722840D01*
X1106832Y722868D01*
X1106950Y722877D01*
X1110348D01*
Y725925D01*
X1110357Y726043D01*
X1110385Y726158D01*
X1110430Y726266D01*
X1110491Y726367D01*
X1110568Y726457D01*
X1110658Y726534D01*
X1110758Y726595D01*
X1110867Y726640D01*
X1110982Y726668D01*
X1111100Y726677D01*
X1115400D01*
X1115518Y726668D01*
D02*
G37*
G36*
X1026568Y689918D02*
X1026683Y689891D01*
X1026792Y689845D01*
X1026892Y689784D01*
X1026982Y689707D01*
X1027059Y689617D01*
X1027120Y689517D01*
X1027166Y689408D01*
X1027193Y689293D01*
X1027202Y689175D01*
Y686127D01*
X1030600D01*
X1030718Y686118D01*
X1030832Y686090D01*
X1030941Y686045D01*
X1031042Y685984D01*
X1031132Y685907D01*
X1031209Y685817D01*
X1031270Y685717D01*
X1031315Y685608D01*
X1031343Y685493D01*
X1031352Y685375D01*
Y660875D01*
X1031343Y660757D01*
X1031315Y660642D01*
X1031270Y660534D01*
X1031209Y660433D01*
X1031132Y660343D01*
X1031042Y660266D01*
X1030941Y660205D01*
X1030832Y660160D01*
X1030718Y660132D01*
X1030600Y660123D01*
X1027202D01*
Y657075D01*
X1027193Y656957D01*
X1027166Y656842D01*
X1027120Y656733D01*
X1027059Y656633D01*
X1026982Y656543D01*
X1026892Y656466D01*
X1026792Y656405D01*
X1026683Y656359D01*
X1026568Y656332D01*
X1026450Y656323D01*
X1022150D01*
X1022032Y656332D01*
X1021917Y656359D01*
X1021808Y656405D01*
X1021708Y656466D01*
X1021618Y656543D01*
X1021541Y656633D01*
X1021480Y656733D01*
X1021434Y656842D01*
X1021407Y656957D01*
X1021398Y657075D01*
Y660123D01*
X1010800D01*
X1010682Y660132D01*
X1010567Y660160D01*
X1010458Y660205D01*
X1010358Y660266D01*
X1010268Y660343D01*
X1010191Y660433D01*
X1010130Y660534D01*
X1010093Y660623D01*
X1007800D01*
X1007682Y660632D01*
X1007568Y660659D01*
X1007458Y660705D01*
X1007358Y660766D01*
X1007268Y660843D01*
X1007191Y660933D01*
X1007130Y661033D01*
X1007085Y661143D01*
X1007057Y661257D01*
X1007048Y661375D01*
Y665375D01*
X1007057Y665493D01*
X1007085Y665608D01*
X1007130Y665717D01*
X1007191Y665817D01*
X1007268Y665907D01*
X1007358Y665984D01*
X1007458Y666045D01*
X1007568Y666090D01*
X1007682Y666118D01*
X1007800Y666127D01*
X1010048D01*
Y667123D01*
X1007800D01*
X1007682Y667132D01*
X1007568Y667160D01*
X1007458Y667205D01*
X1007358Y667266D01*
X1007268Y667343D01*
X1007191Y667433D01*
X1007130Y667533D01*
X1007085Y667643D01*
X1007057Y667757D01*
X1007048Y667875D01*
Y671875D01*
X1007057Y671993D01*
X1007085Y672107D01*
X1007130Y672217D01*
X1007191Y672317D01*
X1007268Y672407D01*
X1007358Y672484D01*
X1007458Y672545D01*
X1007568Y672590D01*
X1007682Y672618D01*
X1007800Y672627D01*
X1010048D01*
Y673623D01*
X1007800D01*
X1007682Y673632D01*
X1007568Y673660D01*
X1007458Y673705D01*
X1007358Y673766D01*
X1007268Y673843D01*
X1007191Y673933D01*
X1007130Y674034D01*
X1007085Y674143D01*
X1007057Y674257D01*
X1007048Y674375D01*
Y678375D01*
X1007057Y678493D01*
X1007085Y678607D01*
X1007130Y678717D01*
X1007191Y678817D01*
X1007268Y678907D01*
X1007358Y678984D01*
X1007458Y679045D01*
X1007568Y679090D01*
X1007682Y679118D01*
X1007800Y679127D01*
X1010048D01*
Y680123D01*
X1007800D01*
X1007682Y680132D01*
X1007568Y680160D01*
X1007458Y680205D01*
X1007358Y680266D01*
X1007268Y680343D01*
X1007191Y680433D01*
X1007130Y680534D01*
X1007085Y680642D01*
X1007057Y680757D01*
X1007048Y680875D01*
Y684875D01*
X1007057Y684993D01*
X1007085Y685107D01*
X1007130Y685217D01*
X1007191Y685317D01*
X1007268Y685407D01*
X1007358Y685484D01*
X1007458Y685545D01*
X1007568Y685591D01*
X1007682Y685618D01*
X1007800Y685627D01*
X1010093D01*
X1010130Y685717D01*
X1010191Y685817D01*
X1010268Y685907D01*
X1010358Y685984D01*
X1010458Y686045D01*
X1010567Y686090D01*
X1010682Y686118D01*
X1010800Y686127D01*
X1021398D01*
Y689175D01*
X1021407Y689293D01*
X1021434Y689408D01*
X1021480Y689517D01*
X1021541Y689617D01*
X1021618Y689707D01*
X1021708Y689784D01*
X1021808Y689845D01*
X1021917Y689891D01*
X1022032Y689918D01*
X1022150Y689927D01*
X1026450D01*
X1026568Y689918D01*
D02*
G37*
G36*
X1071568Y689793D02*
X1071682Y689765D01*
X1071792Y689720D01*
X1071892Y689659D01*
X1071982Y689582D01*
X1072059Y689492D01*
X1072120Y689392D01*
X1072165Y689283D01*
X1072193Y689168D01*
X1072202Y689050D01*
Y686002D01*
X1082800D01*
X1082918Y685993D01*
X1083033Y685965D01*
X1083141Y685920D01*
X1083242Y685859D01*
X1083332Y685782D01*
X1083409Y685692D01*
X1083470Y685592D01*
X1083507Y685502D01*
X1085800D01*
X1085918Y685493D01*
X1086032Y685465D01*
X1086142Y685420D01*
X1086242Y685359D01*
X1086332Y685282D01*
X1086409Y685192D01*
X1086470Y685092D01*
X1086516Y684983D01*
X1086543Y684868D01*
X1086552Y684750D01*
Y680750D01*
X1086543Y680632D01*
X1086516Y680518D01*
X1086470Y680408D01*
X1086409Y680308D01*
X1086332Y680218D01*
X1086242Y680141D01*
X1086142Y680080D01*
X1086032Y680034D01*
X1085918Y680007D01*
X1085800Y679998D01*
X1083552D01*
Y679002D01*
X1085800D01*
X1085918Y678993D01*
X1086032Y678966D01*
X1086142Y678920D01*
X1086242Y678859D01*
X1086332Y678782D01*
X1086409Y678692D01*
X1086470Y678592D01*
X1086516Y678483D01*
X1086543Y678368D01*
X1086552Y678250D01*
Y674250D01*
X1086543Y674132D01*
X1086516Y674017D01*
X1086470Y673908D01*
X1086409Y673808D01*
X1086332Y673718D01*
X1086242Y673641D01*
X1086142Y673580D01*
X1086032Y673534D01*
X1085918Y673507D01*
X1085800Y673498D01*
X1083552D01*
Y672502D01*
X1085800D01*
X1085918Y672493D01*
X1086032Y672466D01*
X1086142Y672420D01*
X1086242Y672359D01*
X1086332Y672282D01*
X1086409Y672192D01*
X1086470Y672092D01*
X1086516Y671982D01*
X1086543Y671868D01*
X1086552Y671750D01*
Y667750D01*
X1086543Y667632D01*
X1086516Y667517D01*
X1086470Y667409D01*
X1086409Y667308D01*
X1086332Y667218D01*
X1086242Y667141D01*
X1086142Y667080D01*
X1086032Y667035D01*
X1085918Y667007D01*
X1085800Y666998D01*
X1083552D01*
Y666002D01*
X1085800D01*
X1085918Y665993D01*
X1086032Y665965D01*
X1086142Y665920D01*
X1086242Y665859D01*
X1086332Y665782D01*
X1086409Y665692D01*
X1086470Y665592D01*
X1086516Y665482D01*
X1086543Y665368D01*
X1086552Y665250D01*
Y661250D01*
X1086543Y661132D01*
X1086516Y661018D01*
X1086470Y660909D01*
X1086409Y660808D01*
X1086332Y660718D01*
X1086242Y660641D01*
X1086142Y660580D01*
X1086032Y660535D01*
X1085918Y660507D01*
X1085800Y660498D01*
X1083507D01*
X1083470Y660408D01*
X1083409Y660308D01*
X1083332Y660218D01*
X1083242Y660141D01*
X1083141Y660080D01*
X1083033Y660034D01*
X1082918Y660007D01*
X1082800Y659998D01*
X1072202D01*
Y656950D01*
X1072193Y656832D01*
X1072165Y656718D01*
X1072120Y656609D01*
X1072059Y656508D01*
X1071982Y656418D01*
X1071892Y656341D01*
X1071792Y656280D01*
X1071682Y656235D01*
X1071568Y656207D01*
X1071450Y656198D01*
X1067150D01*
X1067032Y656207D01*
X1066917Y656235D01*
X1066808Y656280D01*
X1066708Y656341D01*
X1066618Y656418D01*
X1066541Y656508D01*
X1066480Y656609D01*
X1066434Y656718D01*
X1066407Y656832D01*
X1066398Y656950D01*
Y659998D01*
X1063000D01*
X1062882Y660007D01*
X1062767Y660034D01*
X1062658Y660080D01*
X1062558Y660141D01*
X1062468Y660218D01*
X1062391Y660308D01*
X1062330Y660408D01*
X1062284Y660518D01*
X1062257Y660632D01*
X1062248Y660750D01*
Y685250D01*
X1062257Y685368D01*
X1062284Y685482D01*
X1062330Y685592D01*
X1062391Y685692D01*
X1062468Y685782D01*
X1062558Y685859D01*
X1062658Y685920D01*
X1062767Y685965D01*
X1062882Y685993D01*
X1063000Y686002D01*
X1066398D01*
Y689050D01*
X1066407Y689168D01*
X1066434Y689283D01*
X1066480Y689392D01*
X1066541Y689492D01*
X1066618Y689582D01*
X1066708Y689659D01*
X1066808Y689720D01*
X1066917Y689765D01*
X1067032Y689793D01*
X1067150Y689802D01*
X1071450D01*
X1071568Y689793D01*
D02*
G37*
G36*
X1115518Y689793D02*
X1115632Y689765D01*
X1115742Y689720D01*
X1115842Y689659D01*
X1115932Y689582D01*
X1116009Y689492D01*
X1116070Y689392D01*
X1116115Y689283D01*
X1116143Y689168D01*
X1116152Y689050D01*
Y686002D01*
X1126750D01*
X1126868Y685993D01*
X1126982Y685965D01*
X1127092Y685920D01*
X1127192Y685859D01*
X1127282Y685782D01*
X1127359Y685692D01*
X1127420Y685592D01*
X1127457Y685502D01*
X1129750D01*
X1129868Y685493D01*
X1129983Y685465D01*
X1130091Y685420D01*
X1130192Y685359D01*
X1130282Y685282D01*
X1130359Y685192D01*
X1130420Y685091D01*
X1130465Y684983D01*
X1130493Y684868D01*
X1130502Y684750D01*
Y680750D01*
X1130493Y680632D01*
X1130465Y680518D01*
X1130420Y680408D01*
X1130359Y680308D01*
X1130282Y680218D01*
X1130192Y680141D01*
X1130091Y680080D01*
X1129983Y680034D01*
X1129868Y680007D01*
X1129750Y679998D01*
X1127502D01*
Y679002D01*
X1129750D01*
X1129868Y678993D01*
X1129983Y678966D01*
X1130091Y678920D01*
X1130192Y678859D01*
X1130282Y678782D01*
X1130359Y678692D01*
X1130420Y678592D01*
X1130465Y678483D01*
X1130493Y678368D01*
X1130502Y678250D01*
Y674250D01*
X1130493Y674132D01*
X1130465Y674017D01*
X1130420Y673908D01*
X1130359Y673808D01*
X1130282Y673718D01*
X1130192Y673641D01*
X1130091Y673580D01*
X1129983Y673534D01*
X1129868Y673507D01*
X1129750Y673498D01*
X1127502D01*
Y672502D01*
X1129750D01*
X1129868Y672493D01*
X1129983Y672466D01*
X1130091Y672420D01*
X1130192Y672359D01*
X1130282Y672282D01*
X1130359Y672192D01*
X1130420Y672092D01*
X1130465Y671982D01*
X1130493Y671868D01*
X1130502Y671750D01*
Y667750D01*
X1130493Y667632D01*
X1130465Y667517D01*
X1130420Y667408D01*
X1130359Y667308D01*
X1130282Y667218D01*
X1130192Y667141D01*
X1130091Y667080D01*
X1129983Y667035D01*
X1129868Y667007D01*
X1129750Y666998D01*
X1127502D01*
Y666002D01*
X1129750D01*
X1129868Y665993D01*
X1129983Y665965D01*
X1130091Y665920D01*
X1130192Y665859D01*
X1130282Y665782D01*
X1130359Y665692D01*
X1130420Y665592D01*
X1130465Y665482D01*
X1130493Y665368D01*
X1130502Y665250D01*
Y661250D01*
X1130493Y661132D01*
X1130465Y661018D01*
X1130420Y660909D01*
X1130359Y660808D01*
X1130282Y660718D01*
X1130192Y660641D01*
X1130091Y660580D01*
X1129983Y660535D01*
X1129868Y660507D01*
X1129750Y660498D01*
X1127457D01*
X1127420Y660408D01*
X1127359Y660308D01*
X1127282Y660218D01*
X1127192Y660141D01*
X1127092Y660080D01*
X1126982Y660034D01*
X1126868Y660007D01*
X1126750Y659998D01*
X1116152D01*
Y656950D01*
X1116143Y656832D01*
X1116115Y656718D01*
X1116070Y656608D01*
X1116009Y656508D01*
X1115932Y656418D01*
X1115842Y656341D01*
X1115742Y656280D01*
X1115632Y656235D01*
X1115518Y656207D01*
X1115400Y656198D01*
X1111100D01*
X1110982Y656207D01*
X1110867Y656235D01*
X1110758Y656280D01*
X1110658Y656341D01*
X1110568Y656418D01*
X1110491Y656508D01*
X1110430Y656608D01*
X1110385Y656718D01*
X1110357Y656832D01*
X1110348Y656950D01*
Y659998D01*
X1106950D01*
X1106832Y660007D01*
X1106718Y660034D01*
X1106609Y660080D01*
X1106508Y660141D01*
X1106418Y660218D01*
X1106341Y660308D01*
X1106280Y660408D01*
X1106235Y660518D01*
X1106207Y660632D01*
X1106198Y660750D01*
Y685250D01*
X1106207Y685368D01*
X1106235Y685482D01*
X1106280Y685592D01*
X1106341Y685692D01*
X1106418Y685782D01*
X1106508Y685859D01*
X1106609Y685920D01*
X1106718Y685965D01*
X1106832Y685993D01*
X1106950Y686002D01*
X1110348D01*
Y689050D01*
X1110357Y689168D01*
X1110385Y689283D01*
X1110430Y689392D01*
X1110491Y689492D01*
X1110568Y689582D01*
X1110658Y689659D01*
X1110758Y689720D01*
X1110867Y689765D01*
X1110982Y689793D01*
X1111100Y689802D01*
X1115400D01*
X1115518Y689793D01*
D02*
G37*
G36*
X1128518Y598043D02*
X1128633Y598016D01*
X1128742Y597970D01*
X1128842Y597909D01*
X1128932Y597832D01*
X1129009Y597742D01*
X1129070Y597641D01*
X1129116Y597533D01*
X1129143Y597418D01*
X1129152Y597300D01*
Y594252D01*
X1139750D01*
X1139868Y594243D01*
X1139983Y594215D01*
X1140091Y594170D01*
X1140192Y594109D01*
X1140282Y594032D01*
X1140359Y593942D01*
X1140420Y593842D01*
X1140457Y593752D01*
X1142750D01*
X1142868Y593743D01*
X1142982Y593715D01*
X1143092Y593670D01*
X1143192Y593609D01*
X1143282Y593532D01*
X1143359Y593442D01*
X1143420Y593341D01*
X1143465Y593232D01*
X1143493Y593118D01*
X1143502Y593000D01*
Y589000D01*
X1143493Y588882D01*
X1143465Y588768D01*
X1143420Y588658D01*
X1143359Y588558D01*
X1143282Y588468D01*
X1143192Y588391D01*
X1143092Y588330D01*
X1142982Y588284D01*
X1142868Y588257D01*
X1142750Y588248D01*
X1140502D01*
Y587252D01*
X1142750D01*
X1142868Y587243D01*
X1142982Y587215D01*
X1143092Y587170D01*
X1143192Y587109D01*
X1143282Y587032D01*
X1143359Y586942D01*
X1143420Y586842D01*
X1143465Y586732D01*
X1143493Y586618D01*
X1143502Y586500D01*
Y582500D01*
X1143493Y582382D01*
X1143465Y582267D01*
X1143420Y582158D01*
X1143359Y582058D01*
X1143282Y581968D01*
X1143192Y581891D01*
X1143092Y581830D01*
X1142982Y581785D01*
X1142868Y581757D01*
X1142750Y581748D01*
X1140502D01*
Y580752D01*
X1142750D01*
X1142868Y580743D01*
X1142982Y580715D01*
X1143092Y580670D01*
X1143192Y580609D01*
X1143282Y580532D01*
X1143359Y580442D01*
X1143420Y580341D01*
X1143465Y580232D01*
X1143493Y580118D01*
X1143502Y580000D01*
Y576000D01*
X1143493Y575882D01*
X1143465Y575768D01*
X1143420Y575658D01*
X1143359Y575558D01*
X1143282Y575468D01*
X1143192Y575391D01*
X1143092Y575330D01*
X1142982Y575285D01*
X1142868Y575257D01*
X1142750Y575248D01*
X1140502D01*
Y574252D01*
X1142750D01*
X1142868Y574243D01*
X1142982Y574216D01*
X1143092Y574170D01*
X1143192Y574109D01*
X1143282Y574032D01*
X1143359Y573942D01*
X1143420Y573842D01*
X1143465Y573732D01*
X1143493Y573618D01*
X1143502Y573500D01*
Y569500D01*
X1143493Y569382D01*
X1143465Y569268D01*
X1143420Y569158D01*
X1143359Y569058D01*
X1143282Y568968D01*
X1143192Y568891D01*
X1143092Y568830D01*
X1142982Y568784D01*
X1142868Y568757D01*
X1142750Y568748D01*
X1140457D01*
X1140420Y568658D01*
X1140359Y568558D01*
X1140282Y568468D01*
X1140192Y568391D01*
X1140091Y568330D01*
X1139983Y568284D01*
X1139868Y568257D01*
X1139750Y568248D01*
X1129152D01*
Y565200D01*
X1129143Y565082D01*
X1129116Y564967D01*
X1129070Y564858D01*
X1129009Y564758D01*
X1128932Y564668D01*
X1128842Y564591D01*
X1128742Y564530D01*
X1128633Y564484D01*
X1128518Y564457D01*
X1128400Y564448D01*
X1124100D01*
X1123982Y564457D01*
X1123867Y564484D01*
X1123758Y564530D01*
X1123658Y564591D01*
X1123568Y564668D01*
X1123491Y564758D01*
X1123430Y564858D01*
X1123384Y564967D01*
X1123357Y565082D01*
X1123348Y565200D01*
Y568248D01*
X1119950D01*
X1119832Y568257D01*
X1119717Y568284D01*
X1119609Y568330D01*
X1119508Y568391D01*
X1119418Y568468D01*
X1119341Y568558D01*
X1119280Y568658D01*
X1119234Y568768D01*
X1119207Y568882D01*
X1119198Y569000D01*
Y593500D01*
X1119207Y593618D01*
X1119234Y593732D01*
X1119280Y593842D01*
X1119341Y593942D01*
X1119418Y594032D01*
X1119508Y594109D01*
X1119609Y594170D01*
X1119717Y594215D01*
X1119832Y594243D01*
X1119950Y594252D01*
X1123348D01*
Y597300D01*
X1123357Y597418D01*
X1123384Y597533D01*
X1123430Y597641D01*
X1123491Y597742D01*
X1123568Y597832D01*
X1123658Y597909D01*
X1123758Y597970D01*
X1123867Y598016D01*
X1123982Y598043D01*
X1124100Y598052D01*
X1128400D01*
X1128518Y598043D01*
D02*
G37*
G36*
X1084518D02*
X1084632Y598016D01*
X1084742Y597970D01*
X1084842Y597909D01*
X1084932Y597832D01*
X1085009Y597742D01*
X1085070Y597641D01*
X1085116Y597533D01*
X1085143Y597418D01*
X1085152Y597300D01*
Y594252D01*
X1095750D01*
X1095868Y594243D01*
X1095983Y594215D01*
X1096092Y594170D01*
X1096192Y594109D01*
X1096282Y594032D01*
X1096359Y593942D01*
X1096420Y593842D01*
X1096457Y593752D01*
X1098750D01*
X1098868Y593743D01*
X1098982Y593715D01*
X1099092Y593670D01*
X1099192Y593609D01*
X1099282Y593532D01*
X1099359Y593442D01*
X1099420Y593341D01*
X1099465Y593232D01*
X1099493Y593118D01*
X1099502Y593000D01*
Y589000D01*
X1099493Y588882D01*
X1099465Y588768D01*
X1099420Y588658D01*
X1099359Y588558D01*
X1099282Y588468D01*
X1099192Y588391D01*
X1099092Y588330D01*
X1098982Y588284D01*
X1098868Y588257D01*
X1098750Y588248D01*
X1096502D01*
Y587252D01*
X1098750D01*
X1098868Y587243D01*
X1098982Y587215D01*
X1099092Y587170D01*
X1099192Y587109D01*
X1099282Y587032D01*
X1099359Y586942D01*
X1099420Y586842D01*
X1099465Y586732D01*
X1099493Y586618D01*
X1099502Y586500D01*
Y582500D01*
X1099493Y582382D01*
X1099465Y582267D01*
X1099420Y582158D01*
X1099359Y582058D01*
X1099282Y581968D01*
X1099192Y581891D01*
X1099092Y581830D01*
X1098982Y581785D01*
X1098868Y581757D01*
X1098750Y581748D01*
X1096502D01*
Y580752D01*
X1098750D01*
X1098868Y580743D01*
X1098982Y580715D01*
X1099092Y580670D01*
X1099192Y580609D01*
X1099282Y580532D01*
X1099359Y580442D01*
X1099420Y580341D01*
X1099465Y580232D01*
X1099493Y580118D01*
X1099502Y580000D01*
Y576000D01*
X1099493Y575882D01*
X1099465Y575768D01*
X1099420Y575658D01*
X1099359Y575558D01*
X1099282Y575468D01*
X1099192Y575391D01*
X1099092Y575330D01*
X1098982Y575285D01*
X1098868Y575257D01*
X1098750Y575248D01*
X1096502D01*
Y574252D01*
X1098750D01*
X1098868Y574243D01*
X1098982Y574216D01*
X1099092Y574170D01*
X1099192Y574109D01*
X1099282Y574032D01*
X1099359Y573942D01*
X1099420Y573842D01*
X1099465Y573732D01*
X1099493Y573618D01*
X1099502Y573500D01*
Y569500D01*
X1099493Y569382D01*
X1099465Y569268D01*
X1099420Y569158D01*
X1099359Y569058D01*
X1099282Y568968D01*
X1099192Y568891D01*
X1099092Y568830D01*
X1098982Y568784D01*
X1098868Y568757D01*
X1098750Y568748D01*
X1096457D01*
X1096420Y568658D01*
X1096359Y568558D01*
X1096282Y568468D01*
X1096192Y568391D01*
X1096092Y568330D01*
X1095983Y568284D01*
X1095868Y568257D01*
X1095750Y568248D01*
X1085152D01*
Y565200D01*
X1085143Y565082D01*
X1085116Y564967D01*
X1085070Y564858D01*
X1085009Y564758D01*
X1084932Y564668D01*
X1084842Y564591D01*
X1084742Y564530D01*
X1084632Y564484D01*
X1084518Y564457D01*
X1084400Y564448D01*
X1080100D01*
X1079982Y564457D01*
X1079867Y564484D01*
X1079758Y564530D01*
X1079658Y564591D01*
X1079568Y564668D01*
X1079491Y564758D01*
X1079430Y564858D01*
X1079385Y564967D01*
X1079357Y565082D01*
X1079348Y565200D01*
Y568248D01*
X1075950D01*
X1075832Y568257D01*
X1075717Y568284D01*
X1075609Y568330D01*
X1075508Y568391D01*
X1075418Y568468D01*
X1075341Y568558D01*
X1075280Y568658D01*
X1075235Y568768D01*
X1075207Y568882D01*
X1075198Y569000D01*
Y593500D01*
X1075207Y593618D01*
X1075235Y593732D01*
X1075280Y593842D01*
X1075341Y593942D01*
X1075418Y594032D01*
X1075508Y594109D01*
X1075609Y594170D01*
X1075717Y594215D01*
X1075832Y594243D01*
X1075950Y594252D01*
X1079348D01*
Y597300D01*
X1079357Y597418D01*
X1079385Y597533D01*
X1079430Y597641D01*
X1079491Y597742D01*
X1079568Y597832D01*
X1079658Y597909D01*
X1079758Y597970D01*
X1079867Y598016D01*
X1079982Y598043D01*
X1080100Y598052D01*
X1084400D01*
X1084518Y598043D01*
D02*
G37*
G36*
X1040518Y597543D02*
X1040632Y597515D01*
X1040742Y597470D01*
X1040842Y597409D01*
X1040932Y597332D01*
X1041009Y597242D01*
X1041070Y597141D01*
X1041115Y597032D01*
X1041143Y596918D01*
X1041152Y596800D01*
Y593752D01*
X1044550D01*
X1044668Y593743D01*
X1044782Y593715D01*
X1044892Y593670D01*
X1044992Y593609D01*
X1045082Y593532D01*
X1045159Y593442D01*
X1045220Y593341D01*
X1045266Y593232D01*
X1045293Y593118D01*
X1045302Y593000D01*
Y568500D01*
X1045293Y568382D01*
X1045266Y568268D01*
X1045220Y568158D01*
X1045159Y568058D01*
X1045082Y567968D01*
X1044992Y567891D01*
X1044892Y567830D01*
X1044782Y567785D01*
X1044668Y567757D01*
X1044550Y567748D01*
X1041152D01*
Y564700D01*
X1041143Y564582D01*
X1041115Y564468D01*
X1041070Y564358D01*
X1041009Y564258D01*
X1040932Y564168D01*
X1040842Y564091D01*
X1040742Y564030D01*
X1040632Y563984D01*
X1040518Y563957D01*
X1040400Y563948D01*
X1036100D01*
X1035982Y563957D01*
X1035867Y563984D01*
X1035759Y564030D01*
X1035658Y564091D01*
X1035568Y564168D01*
X1035491Y564258D01*
X1035430Y564358D01*
X1035385Y564468D01*
X1035357Y564582D01*
X1035348Y564700D01*
Y567748D01*
X1024750D01*
X1024632Y567757D01*
X1024518Y567785D01*
X1024408Y567830D01*
X1024308Y567891D01*
X1024218Y567968D01*
X1024141Y568058D01*
X1024080Y568158D01*
X1024043Y568248D01*
X1021750D01*
X1021632Y568257D01*
X1021517Y568284D01*
X1021408Y568330D01*
X1021308Y568391D01*
X1021218Y568468D01*
X1021141Y568558D01*
X1021080Y568658D01*
X1021034Y568768D01*
X1021007Y568882D01*
X1020998Y569000D01*
Y573000D01*
X1021007Y573118D01*
X1021034Y573232D01*
X1021080Y573341D01*
X1021141Y573442D01*
X1021218Y573532D01*
X1021308Y573609D01*
X1021408Y573670D01*
X1021517Y573715D01*
X1021632Y573743D01*
X1021750Y573752D01*
X1023998D01*
Y574748D01*
X1021750D01*
X1021632Y574757D01*
X1021517Y574784D01*
X1021408Y574830D01*
X1021308Y574891D01*
X1021218Y574968D01*
X1021141Y575058D01*
X1021080Y575158D01*
X1021034Y575267D01*
X1021007Y575382D01*
X1020998Y575500D01*
Y579500D01*
X1021007Y579618D01*
X1021034Y579732D01*
X1021080Y579841D01*
X1021141Y579942D01*
X1021218Y580032D01*
X1021308Y580109D01*
X1021408Y580170D01*
X1021517Y580215D01*
X1021632Y580243D01*
X1021750Y580252D01*
X1023998D01*
Y581248D01*
X1021750D01*
X1021632Y581257D01*
X1021517Y581284D01*
X1021408Y581330D01*
X1021308Y581391D01*
X1021218Y581468D01*
X1021141Y581558D01*
X1021080Y581658D01*
X1021034Y581768D01*
X1021007Y581882D01*
X1020998Y582000D01*
Y586000D01*
X1021007Y586118D01*
X1021034Y586232D01*
X1021080Y586342D01*
X1021141Y586442D01*
X1021218Y586532D01*
X1021308Y586609D01*
X1021408Y586670D01*
X1021517Y586715D01*
X1021632Y586743D01*
X1021750Y586752D01*
X1023998D01*
Y587748D01*
X1021750D01*
X1021632Y587757D01*
X1021517Y587784D01*
X1021408Y587830D01*
X1021308Y587891D01*
X1021218Y587968D01*
X1021141Y588058D01*
X1021080Y588158D01*
X1021034Y588268D01*
X1021007Y588382D01*
X1020998Y588500D01*
Y592500D01*
X1021007Y592618D01*
X1021034Y592732D01*
X1021080Y592841D01*
X1021141Y592942D01*
X1021218Y593032D01*
X1021308Y593109D01*
X1021408Y593170D01*
X1021517Y593215D01*
X1021632Y593243D01*
X1021750Y593252D01*
X1024043D01*
X1024080Y593341D01*
X1024141Y593442D01*
X1024218Y593532D01*
X1024308Y593609D01*
X1024408Y593670D01*
X1024518Y593715D01*
X1024632Y593743D01*
X1024750Y593752D01*
X1035348D01*
Y596800D01*
X1035357Y596918D01*
X1035385Y597032D01*
X1035430Y597141D01*
X1035491Y597242D01*
X1035568Y597332D01*
X1035658Y597409D01*
X1035759Y597470D01*
X1035867Y597515D01*
X1035982Y597543D01*
X1036100Y597552D01*
X1040400D01*
X1040518Y597543D01*
D02*
G37*
G36*
X1128518Y561043D02*
X1128633Y561016D01*
X1128742Y560970D01*
X1128842Y560909D01*
X1128932Y560832D01*
X1129009Y560742D01*
X1129070Y560642D01*
X1129116Y560532D01*
X1129143Y560418D01*
X1129152Y560300D01*
Y557252D01*
X1139750D01*
X1139868Y557243D01*
X1139983Y557215D01*
X1140091Y557170D01*
X1140192Y557109D01*
X1140282Y557032D01*
X1140359Y556942D01*
X1140420Y556842D01*
X1140457Y556752D01*
X1142750D01*
X1142868Y556743D01*
X1142982Y556715D01*
X1143092Y556670D01*
X1143192Y556609D01*
X1143282Y556532D01*
X1143359Y556442D01*
X1143420Y556342D01*
X1143465Y556232D01*
X1143493Y556118D01*
X1143502Y556000D01*
Y552000D01*
X1143493Y551882D01*
X1143465Y551768D01*
X1143420Y551658D01*
X1143359Y551558D01*
X1143282Y551468D01*
X1143192Y551391D01*
X1143092Y551330D01*
X1142982Y551284D01*
X1142868Y551257D01*
X1142750Y551248D01*
X1140502D01*
Y550252D01*
X1142750D01*
X1142868Y550243D01*
X1142982Y550215D01*
X1143092Y550170D01*
X1143192Y550109D01*
X1143282Y550032D01*
X1143359Y549942D01*
X1143420Y549841D01*
X1143465Y549733D01*
X1143493Y549618D01*
X1143502Y549500D01*
Y545500D01*
X1143493Y545382D01*
X1143465Y545267D01*
X1143420Y545158D01*
X1143359Y545058D01*
X1143282Y544968D01*
X1143192Y544891D01*
X1143092Y544830D01*
X1142982Y544785D01*
X1142868Y544757D01*
X1142750Y544748D01*
X1140502D01*
Y543752D01*
X1142750D01*
X1142868Y543743D01*
X1142982Y543715D01*
X1143092Y543670D01*
X1143192Y543609D01*
X1143282Y543532D01*
X1143359Y543442D01*
X1143420Y543341D01*
X1143465Y543232D01*
X1143493Y543118D01*
X1143502Y543000D01*
Y539000D01*
X1143493Y538882D01*
X1143465Y538768D01*
X1143420Y538658D01*
X1143359Y538558D01*
X1143282Y538468D01*
X1143192Y538391D01*
X1143092Y538330D01*
X1142982Y538284D01*
X1142868Y538257D01*
X1142750Y538248D01*
X1140502D01*
Y537252D01*
X1142750D01*
X1142868Y537243D01*
X1142982Y537215D01*
X1143092Y537170D01*
X1143192Y537109D01*
X1143282Y537032D01*
X1143359Y536942D01*
X1143420Y536842D01*
X1143465Y536732D01*
X1143493Y536618D01*
X1143502Y536500D01*
Y532500D01*
X1143493Y532382D01*
X1143465Y532267D01*
X1143420Y532158D01*
X1143359Y532058D01*
X1143282Y531968D01*
X1143192Y531891D01*
X1143092Y531830D01*
X1142982Y531785D01*
X1142868Y531757D01*
X1142750Y531748D01*
X1140457D01*
X1140420Y531658D01*
X1140359Y531558D01*
X1140282Y531468D01*
X1140192Y531391D01*
X1140091Y531330D01*
X1139983Y531284D01*
X1139868Y531257D01*
X1139750Y531248D01*
X1129152D01*
Y528200D01*
X1129143Y528082D01*
X1129116Y527967D01*
X1129070Y527858D01*
X1129009Y527758D01*
X1128932Y527668D01*
X1128842Y527591D01*
X1128742Y527530D01*
X1128633Y527485D01*
X1128518Y527457D01*
X1128400Y527448D01*
X1124100D01*
X1123982Y527457D01*
X1123867Y527485D01*
X1123758Y527530D01*
X1123658Y527591D01*
X1123568Y527668D01*
X1123491Y527758D01*
X1123430Y527858D01*
X1123384Y527967D01*
X1123357Y528082D01*
X1123348Y528200D01*
Y531248D01*
X1119950D01*
X1119832Y531257D01*
X1119717Y531284D01*
X1119609Y531330D01*
X1119508Y531391D01*
X1119418Y531468D01*
X1119341Y531558D01*
X1119280Y531658D01*
X1119234Y531768D01*
X1119207Y531882D01*
X1119198Y532000D01*
Y556500D01*
X1119207Y556618D01*
X1119234Y556732D01*
X1119280Y556842D01*
X1119341Y556942D01*
X1119418Y557032D01*
X1119508Y557109D01*
X1119609Y557170D01*
X1119717Y557215D01*
X1119832Y557243D01*
X1119950Y557252D01*
X1123348D01*
Y560300D01*
X1123357Y560418D01*
X1123384Y560532D01*
X1123430Y560642D01*
X1123491Y560742D01*
X1123568Y560832D01*
X1123658Y560909D01*
X1123758Y560970D01*
X1123867Y561016D01*
X1123982Y561043D01*
X1124100Y561052D01*
X1128400D01*
X1128518Y561043D01*
D02*
G37*
G36*
X1084518D02*
X1084632Y561016D01*
X1084742Y560970D01*
X1084842Y560909D01*
X1084932Y560832D01*
X1085009Y560742D01*
X1085070Y560642D01*
X1085116Y560532D01*
X1085143Y560418D01*
X1085152Y560300D01*
Y557252D01*
X1095750D01*
X1095868Y557243D01*
X1095983Y557215D01*
X1096092Y557170D01*
X1096192Y557109D01*
X1096282Y557032D01*
X1096359Y556942D01*
X1096420Y556842D01*
X1096457Y556752D01*
X1098750D01*
X1098868Y556743D01*
X1098982Y556715D01*
X1099092Y556670D01*
X1099192Y556609D01*
X1099282Y556532D01*
X1099359Y556442D01*
X1099420Y556342D01*
X1099465Y556232D01*
X1099493Y556118D01*
X1099502Y556000D01*
Y552000D01*
X1099493Y551882D01*
X1099465Y551768D01*
X1099420Y551658D01*
X1099359Y551558D01*
X1099282Y551468D01*
X1099192Y551391D01*
X1099092Y551330D01*
X1098982Y551284D01*
X1098868Y551257D01*
X1098750Y551248D01*
X1096502D01*
Y550252D01*
X1098750D01*
X1098868Y550243D01*
X1098982Y550215D01*
X1099092Y550170D01*
X1099192Y550109D01*
X1099282Y550032D01*
X1099359Y549942D01*
X1099420Y549841D01*
X1099465Y549733D01*
X1099493Y549618D01*
X1099502Y549500D01*
Y545500D01*
X1099493Y545382D01*
X1099465Y545267D01*
X1099420Y545158D01*
X1099359Y545058D01*
X1099282Y544968D01*
X1099192Y544891D01*
X1099092Y544830D01*
X1098982Y544785D01*
X1098868Y544757D01*
X1098750Y544748D01*
X1096502D01*
Y543752D01*
X1098750D01*
X1098868Y543743D01*
X1098982Y543715D01*
X1099092Y543670D01*
X1099192Y543609D01*
X1099282Y543532D01*
X1099359Y543442D01*
X1099420Y543341D01*
X1099465Y543232D01*
X1099493Y543118D01*
X1099502Y543000D01*
Y539000D01*
X1099493Y538882D01*
X1099465Y538768D01*
X1099420Y538658D01*
X1099359Y538558D01*
X1099282Y538468D01*
X1099192Y538391D01*
X1099092Y538330D01*
X1098982Y538284D01*
X1098868Y538257D01*
X1098750Y538248D01*
X1096502D01*
Y537252D01*
X1098750D01*
X1098868Y537243D01*
X1098982Y537215D01*
X1099092Y537170D01*
X1099192Y537109D01*
X1099282Y537032D01*
X1099359Y536942D01*
X1099420Y536842D01*
X1099465Y536732D01*
X1099493Y536618D01*
X1099502Y536500D01*
Y532500D01*
X1099493Y532382D01*
X1099465Y532267D01*
X1099420Y532158D01*
X1099359Y532058D01*
X1099282Y531968D01*
X1099192Y531891D01*
X1099092Y531830D01*
X1098982Y531785D01*
X1098868Y531757D01*
X1098750Y531748D01*
X1096457D01*
X1096420Y531658D01*
X1096359Y531558D01*
X1096282Y531468D01*
X1096192Y531391D01*
X1096092Y531330D01*
X1095983Y531284D01*
X1095868Y531257D01*
X1095750Y531248D01*
X1085152D01*
Y528200D01*
X1085143Y528082D01*
X1085116Y527967D01*
X1085070Y527858D01*
X1085009Y527758D01*
X1084932Y527668D01*
X1084842Y527591D01*
X1084742Y527530D01*
X1084632Y527485D01*
X1084518Y527457D01*
X1084400Y527448D01*
X1080100D01*
X1079982Y527457D01*
X1079867Y527485D01*
X1079758Y527530D01*
X1079658Y527591D01*
X1079568Y527668D01*
X1079491Y527758D01*
X1079430Y527858D01*
X1079385Y527967D01*
X1079357Y528082D01*
X1079348Y528200D01*
Y531248D01*
X1075950D01*
X1075832Y531257D01*
X1075717Y531284D01*
X1075609Y531330D01*
X1075508Y531391D01*
X1075418Y531468D01*
X1075341Y531558D01*
X1075280Y531658D01*
X1075235Y531768D01*
X1075207Y531882D01*
X1075198Y532000D01*
Y556500D01*
X1075207Y556618D01*
X1075235Y556732D01*
X1075280Y556842D01*
X1075341Y556942D01*
X1075418Y557032D01*
X1075508Y557109D01*
X1075609Y557170D01*
X1075717Y557215D01*
X1075832Y557243D01*
X1075950Y557252D01*
X1079348D01*
Y560300D01*
X1079357Y560418D01*
X1079385Y560532D01*
X1079430Y560642D01*
X1079491Y560742D01*
X1079568Y560832D01*
X1079658Y560909D01*
X1079758Y560970D01*
X1079867Y561016D01*
X1079982Y561043D01*
X1080100Y561052D01*
X1084400D01*
X1084518Y561043D01*
D02*
G37*
G36*
X1040518Y560753D02*
X1040632Y560725D01*
X1040742Y560680D01*
X1040842Y560619D01*
X1040932Y560542D01*
X1041009Y560452D01*
X1041070Y560351D01*
X1041115Y560242D01*
X1041143Y560128D01*
X1041152Y560010D01*
Y556962D01*
X1044550D01*
X1044668Y556953D01*
X1044782Y556925D01*
X1044892Y556880D01*
X1044992Y556819D01*
X1045082Y556742D01*
X1045159Y556652D01*
X1045220Y556552D01*
X1045266Y556442D01*
X1045293Y556328D01*
X1045302Y556210D01*
Y531710D01*
X1045293Y531592D01*
X1045266Y531478D01*
X1045220Y531368D01*
X1045159Y531268D01*
X1045082Y531178D01*
X1044992Y531101D01*
X1044892Y531040D01*
X1044782Y530994D01*
X1044668Y530967D01*
X1044550Y530958D01*
X1041152D01*
Y527910D01*
X1041143Y527792D01*
X1041115Y527677D01*
X1041070Y527568D01*
X1041009Y527468D01*
X1040932Y527378D01*
X1040842Y527301D01*
X1040742Y527240D01*
X1040632Y527194D01*
X1040518Y527167D01*
X1040400Y527158D01*
X1036100D01*
X1035982Y527167D01*
X1035867Y527194D01*
X1035759Y527240D01*
X1035658Y527301D01*
X1035568Y527378D01*
X1035491Y527468D01*
X1035430Y527568D01*
X1035385Y527677D01*
X1035357Y527792D01*
X1035348Y527910D01*
Y530958D01*
X1024750D01*
X1024632Y530967D01*
X1024518Y530994D01*
X1024408Y531040D01*
X1024308Y531101D01*
X1024218Y531178D01*
X1024141Y531268D01*
X1024080Y531368D01*
X1024043Y531458D01*
X1021750D01*
X1021632Y531467D01*
X1021517Y531494D01*
X1021408Y531540D01*
X1021308Y531601D01*
X1021218Y531678D01*
X1021141Y531768D01*
X1021080Y531868D01*
X1021034Y531978D01*
X1021007Y532092D01*
X1020998Y532210D01*
Y536210D01*
X1021007Y536328D01*
X1021034Y536442D01*
X1021080Y536552D01*
X1021141Y536652D01*
X1021218Y536742D01*
X1021308Y536819D01*
X1021408Y536880D01*
X1021517Y536925D01*
X1021632Y536953D01*
X1021750Y536962D01*
X1023998D01*
Y537958D01*
X1021750D01*
X1021632Y537967D01*
X1021517Y537994D01*
X1021408Y538040D01*
X1021308Y538101D01*
X1021218Y538178D01*
X1021141Y538268D01*
X1021080Y538368D01*
X1021034Y538478D01*
X1021007Y538592D01*
X1020998Y538710D01*
Y542710D01*
X1021007Y542828D01*
X1021034Y542942D01*
X1021080Y543051D01*
X1021141Y543152D01*
X1021218Y543242D01*
X1021308Y543319D01*
X1021408Y543380D01*
X1021517Y543425D01*
X1021632Y543453D01*
X1021750Y543462D01*
X1023998D01*
Y544458D01*
X1021750D01*
X1021632Y544467D01*
X1021517Y544495D01*
X1021408Y544540D01*
X1021308Y544601D01*
X1021218Y544678D01*
X1021141Y544768D01*
X1021080Y544868D01*
X1021034Y544977D01*
X1021007Y545092D01*
X1020998Y545210D01*
Y549210D01*
X1021007Y549328D01*
X1021034Y549442D01*
X1021080Y549552D01*
X1021141Y549652D01*
X1021218Y549742D01*
X1021308Y549819D01*
X1021408Y549880D01*
X1021517Y549925D01*
X1021632Y549953D01*
X1021750Y549962D01*
X1023998D01*
Y550958D01*
X1021750D01*
X1021632Y550967D01*
X1021517Y550994D01*
X1021408Y551040D01*
X1021308Y551101D01*
X1021218Y551178D01*
X1021141Y551268D01*
X1021080Y551368D01*
X1021034Y551478D01*
X1021007Y551592D01*
X1020998Y551710D01*
Y555710D01*
X1021007Y555828D01*
X1021034Y555942D01*
X1021080Y556051D01*
X1021141Y556152D01*
X1021218Y556242D01*
X1021308Y556319D01*
X1021408Y556380D01*
X1021517Y556425D01*
X1021632Y556453D01*
X1021750Y556462D01*
X1024043D01*
X1024080Y556552D01*
X1024141Y556652D01*
X1024218Y556742D01*
X1024308Y556819D01*
X1024408Y556880D01*
X1024518Y556925D01*
X1024632Y556953D01*
X1024750Y556962D01*
X1035348D01*
Y560010D01*
X1035357Y560128D01*
X1035385Y560242D01*
X1035430Y560351D01*
X1035491Y560452D01*
X1035568Y560542D01*
X1035658Y560619D01*
X1035759Y560680D01*
X1035867Y560725D01*
X1035982Y560753D01*
X1036100Y560762D01*
X1040400D01*
X1040518Y560753D01*
D02*
G37*
G36*
X1161556Y493392D02*
X1176556D01*
Y485792D01*
X1161556D01*
Y479927D01*
X1131256D01*
Y499257D01*
X1161556D01*
Y493392D01*
D02*
G37*
G36*
X1275540Y344237D02*
X1275655Y344210D01*
X1275763Y344164D01*
X1275864Y344103D01*
X1275954Y344026D01*
X1276031Y343936D01*
X1276092Y343835D01*
X1276137Y343727D01*
X1276165Y343612D01*
X1276174Y343494D01*
Y340096D01*
X1279222D01*
X1279340Y340087D01*
X1279454Y340060D01*
X1279564Y340014D01*
X1279664Y339953D01*
X1279754Y339876D01*
X1279831Y339786D01*
X1279892Y339686D01*
X1279938Y339576D01*
X1279965Y339462D01*
X1279974Y339344D01*
Y335044D01*
X1279965Y334926D01*
X1279938Y334812D01*
X1279892Y334702D01*
X1279831Y334602D01*
X1279754Y334512D01*
X1279664Y334435D01*
X1279564Y334374D01*
X1279454Y334328D01*
X1279340Y334301D01*
X1279222Y334292D01*
X1276174D01*
Y323694D01*
X1276165Y323576D01*
X1276137Y323461D01*
X1276092Y323352D01*
X1276031Y323252D01*
X1275954Y323162D01*
X1275864Y323085D01*
X1275763Y323024D01*
X1275674Y322987D01*
Y320694D01*
X1275665Y320576D01*
X1275638Y320462D01*
X1275592Y320352D01*
X1275531Y320252D01*
X1275454Y320162D01*
X1275364Y320085D01*
X1275264Y320024D01*
X1275154Y319979D01*
X1275040Y319951D01*
X1274922Y319942D01*
X1270922D01*
X1270804Y319951D01*
X1270689Y319979D01*
X1270580Y320024D01*
X1270480Y320085D01*
X1270390Y320162D01*
X1270313Y320252D01*
X1270252Y320352D01*
X1270207Y320462D01*
X1270179Y320576D01*
X1270170Y320694D01*
Y322942D01*
X1269174D01*
Y320694D01*
X1269165Y320576D01*
X1269137Y320462D01*
X1269092Y320352D01*
X1269031Y320252D01*
X1268954Y320162D01*
X1268864Y320085D01*
X1268764Y320024D01*
X1268654Y319979D01*
X1268540Y319951D01*
X1268422Y319942D01*
X1264422D01*
X1264304Y319951D01*
X1264190Y319979D01*
X1264081Y320024D01*
X1263980Y320085D01*
X1263890Y320162D01*
X1263813Y320252D01*
X1263752Y320352D01*
X1263707Y320462D01*
X1263679Y320576D01*
X1263670Y320694D01*
Y322942D01*
X1262674D01*
Y320694D01*
X1262665Y320576D01*
X1262637Y320462D01*
X1262592Y320352D01*
X1262531Y320252D01*
X1262454Y320162D01*
X1262364Y320085D01*
X1262263Y320024D01*
X1262154Y319979D01*
X1262040Y319951D01*
X1261922Y319942D01*
X1257922D01*
X1257804Y319951D01*
X1257690Y319979D01*
X1257580Y320024D01*
X1257480Y320085D01*
X1257390Y320162D01*
X1257313Y320252D01*
X1257252Y320352D01*
X1257206Y320462D01*
X1257179Y320576D01*
X1257170Y320694D01*
Y322942D01*
X1256174D01*
Y320694D01*
X1256165Y320576D01*
X1256137Y320462D01*
X1256092Y320352D01*
X1256031Y320252D01*
X1255954Y320162D01*
X1255864Y320085D01*
X1255764Y320024D01*
X1255655Y319979D01*
X1255540Y319951D01*
X1255422Y319942D01*
X1251422D01*
X1251304Y319951D01*
X1251189Y319979D01*
X1251080Y320024D01*
X1250980Y320085D01*
X1250890Y320162D01*
X1250813Y320252D01*
X1250752Y320352D01*
X1250706Y320462D01*
X1250679Y320576D01*
X1250670Y320694D01*
Y322987D01*
X1250581Y323024D01*
X1250480Y323085D01*
X1250390Y323162D01*
X1250313Y323252D01*
X1250252Y323352D01*
X1250207Y323461D01*
X1250179Y323576D01*
X1250170Y323694D01*
Y334292D01*
X1247122D01*
X1247004Y334301D01*
X1246889Y334328D01*
X1246780Y334374D01*
X1246680Y334435D01*
X1246590Y334512D01*
X1246513Y334602D01*
X1246452Y334702D01*
X1246406Y334812D01*
X1246379Y334926D01*
X1246370Y335044D01*
Y339344D01*
X1246379Y339462D01*
X1246406Y339576D01*
X1246452Y339686D01*
X1246513Y339786D01*
X1246590Y339876D01*
X1246680Y339953D01*
X1246780Y340014D01*
X1246889Y340060D01*
X1247004Y340087D01*
X1247122Y340096D01*
X1250170D01*
Y343494D01*
X1250179Y343612D01*
X1250207Y343727D01*
X1250252Y343835D01*
X1250313Y343936D01*
X1250390Y344026D01*
X1250480Y344103D01*
X1250581Y344164D01*
X1250689Y344210D01*
X1250804Y344237D01*
X1250922Y344246D01*
X1275422D01*
X1275540Y344237D01*
D02*
G37*
G36*
X1238710D02*
X1238824Y344210D01*
X1238933Y344164D01*
X1239034Y344103D01*
X1239124Y344026D01*
X1239201Y343936D01*
X1239262Y343835D01*
X1239307Y343727D01*
X1239335Y343612D01*
X1239344Y343494D01*
Y340096D01*
X1242392D01*
X1242510Y340087D01*
X1242625Y340060D01*
X1242734Y340014D01*
X1242834Y339953D01*
X1242924Y339876D01*
X1243001Y339786D01*
X1243062Y339686D01*
X1243108Y339576D01*
X1243135Y339462D01*
X1243144Y339344D01*
Y335044D01*
X1243135Y334926D01*
X1243108Y334812D01*
X1243062Y334702D01*
X1243001Y334602D01*
X1242924Y334512D01*
X1242834Y334435D01*
X1242734Y334374D01*
X1242625Y334328D01*
X1242510Y334301D01*
X1242392Y334292D01*
X1239344D01*
Y323694D01*
X1239335Y323576D01*
X1239307Y323461D01*
X1239262Y323352D01*
X1239201Y323252D01*
X1239124Y323162D01*
X1239034Y323085D01*
X1238933Y323024D01*
X1238844Y322987D01*
Y320694D01*
X1238835Y320576D01*
X1238808Y320462D01*
X1238762Y320352D01*
X1238701Y320252D01*
X1238624Y320162D01*
X1238534Y320085D01*
X1238434Y320024D01*
X1238325Y319979D01*
X1238210Y319951D01*
X1238092Y319942D01*
X1234092D01*
X1233974Y319951D01*
X1233859Y319979D01*
X1233750Y320024D01*
X1233650Y320085D01*
X1233560Y320162D01*
X1233483Y320252D01*
X1233422Y320352D01*
X1233376Y320462D01*
X1233349Y320576D01*
X1233340Y320694D01*
Y322942D01*
X1232344D01*
Y320694D01*
X1232335Y320576D01*
X1232308Y320462D01*
X1232262Y320352D01*
X1232201Y320252D01*
X1232124Y320162D01*
X1232034Y320085D01*
X1231934Y320024D01*
X1231824Y319979D01*
X1231710Y319951D01*
X1231592Y319942D01*
X1227592D01*
X1227474Y319951D01*
X1227359Y319979D01*
X1227251Y320024D01*
X1227150Y320085D01*
X1227060Y320162D01*
X1226983Y320252D01*
X1226922Y320352D01*
X1226877Y320462D01*
X1226849Y320576D01*
X1226840Y320694D01*
Y322942D01*
X1225844D01*
Y320694D01*
X1225835Y320576D01*
X1225807Y320462D01*
X1225762Y320352D01*
X1225701Y320252D01*
X1225624Y320162D01*
X1225534Y320085D01*
X1225434Y320024D01*
X1225324Y319979D01*
X1225210Y319951D01*
X1225092Y319942D01*
X1221092D01*
X1220974Y319951D01*
X1220860Y319979D01*
X1220750Y320024D01*
X1220650Y320085D01*
X1220560Y320162D01*
X1220483Y320252D01*
X1220422Y320352D01*
X1220377Y320462D01*
X1220349Y320576D01*
X1220340Y320694D01*
Y322942D01*
X1219344D01*
Y320694D01*
X1219335Y320576D01*
X1219307Y320462D01*
X1219262Y320352D01*
X1219201Y320252D01*
X1219124Y320162D01*
X1219034Y320085D01*
X1218934Y320024D01*
X1218824Y319979D01*
X1218710Y319951D01*
X1218592Y319942D01*
X1214592D01*
X1214474Y319951D01*
X1214360Y319979D01*
X1214250Y320024D01*
X1214150Y320085D01*
X1214060Y320162D01*
X1213983Y320252D01*
X1213922Y320352D01*
X1213876Y320462D01*
X1213849Y320576D01*
X1213840Y320694D01*
Y322987D01*
X1213751Y323024D01*
X1213650Y323085D01*
X1213560Y323162D01*
X1213483Y323252D01*
X1213422Y323352D01*
X1213376Y323461D01*
X1213349Y323576D01*
X1213340Y323694D01*
Y334292D01*
X1210292D01*
X1210174Y334301D01*
X1210060Y334328D01*
X1209950Y334374D01*
X1209850Y334435D01*
X1209760Y334512D01*
X1209683Y334602D01*
X1209622Y334702D01*
X1209576Y334812D01*
X1209549Y334926D01*
X1209540Y335044D01*
Y339344D01*
X1209549Y339462D01*
X1209576Y339576D01*
X1209622Y339686D01*
X1209683Y339786D01*
X1209760Y339876D01*
X1209850Y339953D01*
X1209950Y340014D01*
X1210060Y340060D01*
X1210174Y340087D01*
X1210292Y340096D01*
X1213340D01*
Y343494D01*
X1213349Y343612D01*
X1213376Y343727D01*
X1213422Y343835D01*
X1213483Y343936D01*
X1213560Y344026D01*
X1213650Y344103D01*
X1213751Y344164D01*
X1213859Y344210D01*
X1213974Y344237D01*
X1214092Y344246D01*
X1238592D01*
X1238710Y344237D01*
D02*
G37*
G36*
X329753Y344005D02*
X329868Y343978D01*
X329977Y343932D01*
X330077Y343871D01*
X330167Y343794D01*
X330244Y343704D01*
X330305Y343604D01*
X330350Y343494D01*
X330378Y343380D01*
X330387Y343262D01*
Y339864D01*
X333435D01*
X333553Y339855D01*
X333667Y339827D01*
X333777Y339782D01*
X333877Y339721D01*
X333967Y339644D01*
X334044Y339554D01*
X334105Y339454D01*
X334151Y339344D01*
X334178Y339230D01*
X334187Y339112D01*
Y334812D01*
X334178Y334694D01*
X334151Y334580D01*
X334105Y334470D01*
X334044Y334370D01*
X333967Y334280D01*
X333877Y334203D01*
X333777Y334142D01*
X333667Y334096D01*
X333553Y334069D01*
X333435Y334060D01*
X330387D01*
Y323462D01*
X330378Y323344D01*
X330350Y323229D01*
X330305Y323120D01*
X330244Y323020D01*
X330167Y322930D01*
X330077Y322853D01*
X329977Y322792D01*
X329887Y322755D01*
Y320462D01*
X329878Y320344D01*
X329851Y320229D01*
X329805Y320120D01*
X329744Y320020D01*
X329667Y319930D01*
X329577Y319853D01*
X329477Y319792D01*
X329367Y319746D01*
X329253Y319719D01*
X329135Y319710D01*
X325135D01*
X325017Y319719D01*
X324902Y319746D01*
X324793Y319792D01*
X324693Y319853D01*
X324603Y319930D01*
X324526Y320020D01*
X324465Y320120D01*
X324420Y320229D01*
X324392Y320344D01*
X324383Y320462D01*
Y322710D01*
X323387D01*
Y320462D01*
X323378Y320344D01*
X323350Y320229D01*
X323305Y320120D01*
X323244Y320020D01*
X323167Y319930D01*
X323077Y319853D01*
X322976Y319792D01*
X322868Y319746D01*
X322753Y319719D01*
X322635Y319710D01*
X318635D01*
X318517Y319719D01*
X318403Y319746D01*
X318293Y319792D01*
X318193Y319853D01*
X318103Y319930D01*
X318026Y320020D01*
X317965Y320120D01*
X317920Y320229D01*
X317892Y320344D01*
X317883Y320462D01*
Y322710D01*
X316887D01*
Y320462D01*
X316878Y320344D01*
X316850Y320229D01*
X316805Y320120D01*
X316744Y320020D01*
X316667Y319930D01*
X316577Y319853D01*
X316476Y319792D01*
X316367Y319746D01*
X316253Y319719D01*
X316135Y319710D01*
X312135D01*
X312017Y319719D01*
X311903Y319746D01*
X311793Y319792D01*
X311693Y319853D01*
X311603Y319930D01*
X311526Y320020D01*
X311465Y320120D01*
X311420Y320229D01*
X311392Y320344D01*
X311383Y320462D01*
Y322710D01*
X310387D01*
Y320462D01*
X310378Y320344D01*
X310350Y320229D01*
X310305Y320120D01*
X310244Y320020D01*
X310167Y319930D01*
X310077Y319853D01*
X309977Y319792D01*
X309867Y319746D01*
X309753Y319719D01*
X309635Y319710D01*
X305635D01*
X305517Y319719D01*
X305403Y319746D01*
X305293Y319792D01*
X305193Y319853D01*
X305103Y319930D01*
X305026Y320020D01*
X304965Y320120D01*
X304919Y320229D01*
X304892Y320344D01*
X304883Y320462D01*
Y322755D01*
X304793Y322792D01*
X304693Y322853D01*
X304603Y322930D01*
X304526Y323020D01*
X304465Y323120D01*
X304419Y323229D01*
X304392Y323344D01*
X304383Y323462D01*
Y334060D01*
X301335D01*
X301217Y334069D01*
X301103Y334096D01*
X300993Y334142D01*
X300893Y334203D01*
X300803Y334280D01*
X300726Y334370D01*
X300665Y334470D01*
X300620Y334580D01*
X300592Y334694D01*
X300583Y334812D01*
Y339112D01*
X300592Y339230D01*
X300620Y339344D01*
X300665Y339454D01*
X300726Y339554D01*
X300803Y339644D01*
X300893Y339721D01*
X300993Y339782D01*
X301103Y339827D01*
X301217Y339855D01*
X301335Y339864D01*
X304383D01*
Y343262D01*
X304392Y343380D01*
X304419Y343494D01*
X304465Y343604D01*
X304526Y343704D01*
X304603Y343794D01*
X304693Y343871D01*
X304793Y343932D01*
X304902Y343978D01*
X305017Y344005D01*
X305135Y344014D01*
X329635D01*
X329753Y344005D01*
D02*
G37*
G36*
X292923D02*
X293037Y343978D01*
X293146Y343932D01*
X293247Y343871D01*
X293337Y343794D01*
X293414Y343704D01*
X293475Y343604D01*
X293521Y343494D01*
X293548Y343380D01*
X293557Y343262D01*
Y339864D01*
X296605D01*
X296723Y339855D01*
X296838Y339827D01*
X296947Y339782D01*
X297047Y339721D01*
X297137Y339644D01*
X297214Y339554D01*
X297275Y339454D01*
X297320Y339344D01*
X297348Y339230D01*
X297357Y339112D01*
Y334812D01*
X297348Y334694D01*
X297320Y334580D01*
X297275Y334470D01*
X297214Y334370D01*
X297137Y334280D01*
X297047Y334203D01*
X296947Y334142D01*
X296838Y334096D01*
X296723Y334069D01*
X296605Y334060D01*
X293557D01*
Y323462D01*
X293548Y323344D01*
X293521Y323229D01*
X293475Y323120D01*
X293414Y323020D01*
X293337Y322930D01*
X293247Y322853D01*
X293146Y322792D01*
X293057Y322755D01*
Y320462D01*
X293048Y320344D01*
X293020Y320229D01*
X292975Y320120D01*
X292914Y320020D01*
X292837Y319930D01*
X292747Y319853D01*
X292647Y319792D01*
X292537Y319746D01*
X292423Y319719D01*
X292305Y319710D01*
X288305D01*
X288187Y319719D01*
X288072Y319746D01*
X287963Y319792D01*
X287863Y319853D01*
X287773Y319930D01*
X287696Y320020D01*
X287635Y320120D01*
X287589Y320229D01*
X287562Y320344D01*
X287553Y320462D01*
Y322710D01*
X286557D01*
Y320462D01*
X286548Y320344D01*
X286521Y320229D01*
X286475Y320120D01*
X286414Y320020D01*
X286337Y319930D01*
X286247Y319853D01*
X286147Y319792D01*
X286038Y319746D01*
X285923Y319719D01*
X285805Y319710D01*
X281805D01*
X281687Y319719D01*
X281572Y319746D01*
X281463Y319792D01*
X281363Y319853D01*
X281273Y319930D01*
X281196Y320020D01*
X281135Y320120D01*
X281089Y320229D01*
X281062Y320344D01*
X281053Y320462D01*
Y322710D01*
X280057D01*
Y320462D01*
X280048Y320344D01*
X280021Y320229D01*
X279975Y320120D01*
X279914Y320020D01*
X279837Y319930D01*
X279747Y319853D01*
X279646Y319792D01*
X279538Y319746D01*
X279423Y319719D01*
X279305Y319710D01*
X275305D01*
X275187Y319719D01*
X275072Y319746D01*
X274963Y319792D01*
X274863Y319853D01*
X274773Y319930D01*
X274696Y320020D01*
X274635Y320120D01*
X274590Y320229D01*
X274562Y320344D01*
X274553Y320462D01*
Y322710D01*
X273557D01*
Y320462D01*
X273548Y320344D01*
X273521Y320229D01*
X273475Y320120D01*
X273414Y320020D01*
X273337Y319930D01*
X273247Y319853D01*
X273146Y319792D01*
X273037Y319746D01*
X272923Y319719D01*
X272805Y319710D01*
X268805D01*
X268687Y319719D01*
X268573Y319746D01*
X268463Y319792D01*
X268363Y319853D01*
X268273Y319930D01*
X268196Y320020D01*
X268135Y320120D01*
X268090Y320229D01*
X268062Y320344D01*
X268053Y320462D01*
Y322755D01*
X267963Y322792D01*
X267863Y322853D01*
X267773Y322930D01*
X267696Y323020D01*
X267635Y323120D01*
X267589Y323229D01*
X267562Y323344D01*
X267553Y323462D01*
Y334060D01*
X264505D01*
X264387Y334069D01*
X264272Y334096D01*
X264163Y334142D01*
X264063Y334203D01*
X263973Y334280D01*
X263896Y334370D01*
X263835Y334470D01*
X263790Y334580D01*
X263762Y334694D01*
X263753Y334812D01*
Y339112D01*
X263762Y339230D01*
X263790Y339344D01*
X263835Y339454D01*
X263896Y339554D01*
X263973Y339644D01*
X264063Y339721D01*
X264163Y339782D01*
X264272Y339827D01*
X264387Y339855D01*
X264505Y339864D01*
X267553D01*
Y343262D01*
X267562Y343380D01*
X267589Y343494D01*
X267635Y343604D01*
X267696Y343704D01*
X267773Y343794D01*
X267863Y343871D01*
X267963Y343932D01*
X268072Y343978D01*
X268187Y344005D01*
X268305Y344014D01*
X292805D01*
X292923Y344005D01*
D02*
G37*
G36*
X208970Y343423D02*
X209084Y343396D01*
X209193Y343350D01*
X209294Y343289D01*
X209384Y343212D01*
X209461Y343122D01*
X209522Y343022D01*
X209568Y342912D01*
X209595Y342798D01*
X209604Y342680D01*
Y339282D01*
X212652D01*
X212770Y339273D01*
X212885Y339245D01*
X212994Y339200D01*
X213094Y339139D01*
X213184Y339062D01*
X213261Y338972D01*
X213322Y338872D01*
X213368Y338763D01*
X213395Y338648D01*
X213404Y338530D01*
Y334230D01*
X213395Y334112D01*
X213368Y333997D01*
X213322Y333889D01*
X213261Y333788D01*
X213184Y333698D01*
X213094Y333621D01*
X212994Y333560D01*
X212885Y333515D01*
X212770Y333487D01*
X212652Y333478D01*
X209604D01*
Y322880D01*
X209595Y322762D01*
X209568Y322648D01*
X209522Y322538D01*
X209461Y322438D01*
X209384Y322348D01*
X209294Y322271D01*
X209193Y322210D01*
X209104Y322173D01*
Y319880D01*
X209095Y319762D01*
X209067Y319648D01*
X209022Y319538D01*
X208961Y319438D01*
X208884Y319348D01*
X208794Y319271D01*
X208694Y319210D01*
X208584Y319165D01*
X208470Y319137D01*
X208352Y319128D01*
X204352D01*
X204234Y319137D01*
X204119Y319165D01*
X204010Y319210D01*
X203910Y319271D01*
X203820Y319348D01*
X203743Y319438D01*
X203682Y319538D01*
X203636Y319648D01*
X203609Y319762D01*
X203600Y319880D01*
Y322128D01*
X202604D01*
Y319880D01*
X202595Y319762D01*
X202568Y319648D01*
X202522Y319538D01*
X202461Y319438D01*
X202384Y319348D01*
X202294Y319271D01*
X202194Y319210D01*
X202085Y319165D01*
X201970Y319137D01*
X201852Y319128D01*
X197852D01*
X197734Y319137D01*
X197619Y319165D01*
X197511Y319210D01*
X197410Y319271D01*
X197320Y319348D01*
X197243Y319438D01*
X197182Y319538D01*
X197136Y319648D01*
X197109Y319762D01*
X197100Y319880D01*
Y322128D01*
X196104D01*
Y319880D01*
X196095Y319762D01*
X196068Y319648D01*
X196022Y319538D01*
X195961Y319438D01*
X195884Y319348D01*
X195794Y319271D01*
X195693Y319210D01*
X195585Y319165D01*
X195470Y319137D01*
X195352Y319128D01*
X191352D01*
X191234Y319137D01*
X191119Y319165D01*
X191010Y319210D01*
X190910Y319271D01*
X190820Y319348D01*
X190743Y319438D01*
X190682Y319538D01*
X190637Y319648D01*
X190609Y319762D01*
X190600Y319880D01*
Y322128D01*
X189604D01*
Y319880D01*
X189595Y319762D01*
X189568Y319648D01*
X189522Y319538D01*
X189461Y319438D01*
X189384Y319348D01*
X189294Y319271D01*
X189194Y319210D01*
X189084Y319165D01*
X188970Y319137D01*
X188852Y319128D01*
X184852D01*
X184734Y319137D01*
X184620Y319165D01*
X184510Y319210D01*
X184410Y319271D01*
X184320Y319348D01*
X184243Y319438D01*
X184182Y319538D01*
X184137Y319648D01*
X184109Y319762D01*
X184100Y319880D01*
Y322173D01*
X184011Y322210D01*
X183910Y322271D01*
X183820Y322348D01*
X183743Y322438D01*
X183682Y322538D01*
X183636Y322648D01*
X183609Y322762D01*
X183600Y322880D01*
Y333478D01*
X180552D01*
X180434Y333487D01*
X180319Y333515D01*
X180210Y333560D01*
X180110Y333621D01*
X180020Y333698D01*
X179943Y333788D01*
X179882Y333889D01*
X179837Y333997D01*
X179809Y334112D01*
X179800Y334230D01*
Y338530D01*
X179809Y338648D01*
X179837Y338763D01*
X179882Y338872D01*
X179943Y338972D01*
X180020Y339062D01*
X180110Y339139D01*
X180210Y339200D01*
X180319Y339245D01*
X180434Y339273D01*
X180552Y339282D01*
X183600D01*
Y342680D01*
X183609Y342798D01*
X183636Y342912D01*
X183682Y343022D01*
X183743Y343122D01*
X183820Y343212D01*
X183910Y343289D01*
X184011Y343350D01*
X184119Y343396D01*
X184234Y343423D01*
X184352Y343432D01*
X208852D01*
X208970Y343423D01*
D02*
G37*
G36*
X172140D02*
X172255Y343396D01*
X172363Y343350D01*
X172464Y343289D01*
X172554Y343212D01*
X172631Y343122D01*
X172692Y343022D01*
X172738Y342912D01*
X172765Y342798D01*
X172774Y342680D01*
Y339282D01*
X175822D01*
X175940Y339273D01*
X176054Y339245D01*
X176164Y339200D01*
X176264Y339139D01*
X176354Y339062D01*
X176431Y338972D01*
X176492Y338872D01*
X176537Y338763D01*
X176565Y338648D01*
X176574Y338530D01*
Y334230D01*
X176565Y334112D01*
X176537Y333997D01*
X176492Y333889D01*
X176431Y333788D01*
X176354Y333698D01*
X176264Y333621D01*
X176164Y333560D01*
X176054Y333515D01*
X175940Y333487D01*
X175822Y333478D01*
X172774D01*
Y322880D01*
X172765Y322762D01*
X172738Y322648D01*
X172692Y322538D01*
X172631Y322438D01*
X172554Y322348D01*
X172464Y322271D01*
X172363Y322210D01*
X172274Y322173D01*
Y319880D01*
X172265Y319762D01*
X172237Y319648D01*
X172192Y319538D01*
X172131Y319438D01*
X172054Y319348D01*
X171964Y319271D01*
X171863Y319210D01*
X171754Y319165D01*
X171640Y319137D01*
X171522Y319128D01*
X167522D01*
X167404Y319137D01*
X167290Y319165D01*
X167180Y319210D01*
X167080Y319271D01*
X166990Y319348D01*
X166913Y319438D01*
X166852Y319538D01*
X166807Y319648D01*
X166779Y319762D01*
X166770Y319880D01*
Y322128D01*
X165774D01*
Y319880D01*
X165765Y319762D01*
X165737Y319648D01*
X165692Y319538D01*
X165631Y319438D01*
X165554Y319348D01*
X165464Y319271D01*
X165364Y319210D01*
X165254Y319165D01*
X165140Y319137D01*
X165022Y319128D01*
X161022D01*
X160904Y319137D01*
X160790Y319165D01*
X160681Y319210D01*
X160580Y319271D01*
X160490Y319348D01*
X160413Y319438D01*
X160352Y319538D01*
X160306Y319648D01*
X160279Y319762D01*
X160270Y319880D01*
Y322128D01*
X159274D01*
Y319880D01*
X159265Y319762D01*
X159237Y319648D01*
X159192Y319538D01*
X159131Y319438D01*
X159054Y319348D01*
X158964Y319271D01*
X158863Y319210D01*
X158755Y319165D01*
X158640Y319137D01*
X158522Y319128D01*
X154522D01*
X154404Y319137D01*
X154290Y319165D01*
X154180Y319210D01*
X154080Y319271D01*
X153990Y319348D01*
X153913Y319438D01*
X153852Y319538D01*
X153806Y319648D01*
X153779Y319762D01*
X153770Y319880D01*
Y322128D01*
X152774D01*
Y319880D01*
X152765Y319762D01*
X152738Y319648D01*
X152692Y319538D01*
X152631Y319438D01*
X152554Y319348D01*
X152464Y319271D01*
X152364Y319210D01*
X152254Y319165D01*
X152140Y319137D01*
X152022Y319128D01*
X148022D01*
X147904Y319137D01*
X147789Y319165D01*
X147681Y319210D01*
X147580Y319271D01*
X147490Y319348D01*
X147413Y319438D01*
X147352Y319538D01*
X147306Y319648D01*
X147279Y319762D01*
X147270Y319880D01*
Y322173D01*
X147181Y322210D01*
X147080Y322271D01*
X146990Y322348D01*
X146913Y322438D01*
X146852Y322538D01*
X146806Y322648D01*
X146779Y322762D01*
X146770Y322880D01*
Y333478D01*
X143722D01*
X143604Y333487D01*
X143490Y333515D01*
X143380Y333560D01*
X143280Y333621D01*
X143190Y333698D01*
X143113Y333788D01*
X143052Y333889D01*
X143006Y333997D01*
X142979Y334112D01*
X142970Y334230D01*
Y338530D01*
X142979Y338648D01*
X143006Y338763D01*
X143052Y338872D01*
X143113Y338972D01*
X143190Y339062D01*
X143280Y339139D01*
X143380Y339200D01*
X143490Y339245D01*
X143604Y339273D01*
X143722Y339282D01*
X146770D01*
Y342680D01*
X146779Y342798D01*
X146806Y342912D01*
X146852Y343022D01*
X146913Y343122D01*
X146990Y343212D01*
X147080Y343289D01*
X147181Y343350D01*
X147289Y343396D01*
X147404Y343423D01*
X147522Y343432D01*
X172022D01*
X172140Y343423D01*
D02*
G37*
G36*
X1155024Y343349D02*
X1155138Y343321D01*
X1155248Y343276D01*
X1155348Y343215D01*
X1155438Y343138D01*
X1155515Y343048D01*
X1155576Y342948D01*
X1155621Y342839D01*
X1155649Y342724D01*
X1155658Y342606D01*
Y339208D01*
X1158706D01*
X1158824Y339199D01*
X1158939Y339171D01*
X1159048Y339126D01*
X1159148Y339065D01*
X1159238Y338988D01*
X1159315Y338898D01*
X1159376Y338797D01*
X1159421Y338689D01*
X1159449Y338574D01*
X1159458Y338456D01*
Y334156D01*
X1159449Y334038D01*
X1159421Y333923D01*
X1159376Y333814D01*
X1159315Y333714D01*
X1159238Y333624D01*
X1159148Y333547D01*
X1159048Y333486D01*
X1158939Y333441D01*
X1158824Y333413D01*
X1158706Y333404D01*
X1155658D01*
Y322806D01*
X1155649Y322688D01*
X1155621Y322574D01*
X1155576Y322464D01*
X1155515Y322364D01*
X1155438Y322274D01*
X1155348Y322197D01*
X1155248Y322136D01*
X1155158Y322099D01*
Y319806D01*
X1155149Y319688D01*
X1155122Y319573D01*
X1155076Y319464D01*
X1155015Y319364D01*
X1154938Y319274D01*
X1154848Y319197D01*
X1154748Y319136D01*
X1154639Y319090D01*
X1154524Y319063D01*
X1154406Y319054D01*
X1150406D01*
X1150288Y319063D01*
X1150173Y319090D01*
X1150064Y319136D01*
X1149964Y319197D01*
X1149874Y319274D01*
X1149797Y319364D01*
X1149736Y319464D01*
X1149690Y319573D01*
X1149663Y319688D01*
X1149654Y319806D01*
Y322054D01*
X1148658D01*
Y319806D01*
X1148649Y319688D01*
X1148622Y319573D01*
X1148576Y319464D01*
X1148515Y319364D01*
X1148438Y319274D01*
X1148348Y319197D01*
X1148248Y319136D01*
X1148139Y319090D01*
X1148024Y319063D01*
X1147906Y319054D01*
X1143906D01*
X1143788Y319063D01*
X1143674Y319090D01*
X1143565Y319136D01*
X1143464Y319197D01*
X1143374Y319274D01*
X1143297Y319364D01*
X1143236Y319464D01*
X1143191Y319573D01*
X1143163Y319688D01*
X1143154Y319806D01*
Y322054D01*
X1142158D01*
Y319806D01*
X1142149Y319688D01*
X1142122Y319573D01*
X1142076Y319464D01*
X1142015Y319364D01*
X1141938Y319274D01*
X1141848Y319197D01*
X1141748Y319136D01*
X1141638Y319090D01*
X1141524Y319063D01*
X1141406Y319054D01*
X1137406D01*
X1137288Y319063D01*
X1137173Y319090D01*
X1137065Y319136D01*
X1136964Y319197D01*
X1136874Y319274D01*
X1136797Y319364D01*
X1136736Y319464D01*
X1136691Y319573D01*
X1136663Y319688D01*
X1136654Y319806D01*
Y322054D01*
X1135658D01*
Y319806D01*
X1135649Y319688D01*
X1135621Y319573D01*
X1135576Y319464D01*
X1135515Y319364D01*
X1135438Y319274D01*
X1135348Y319197D01*
X1135248Y319136D01*
X1135138Y319090D01*
X1135024Y319063D01*
X1134906Y319054D01*
X1130906D01*
X1130788Y319063D01*
X1130674Y319090D01*
X1130564Y319136D01*
X1130464Y319197D01*
X1130374Y319274D01*
X1130297Y319364D01*
X1130236Y319464D01*
X1130191Y319573D01*
X1130163Y319688D01*
X1130154Y319806D01*
Y322099D01*
X1130064Y322136D01*
X1129964Y322197D01*
X1129874Y322274D01*
X1129797Y322364D01*
X1129736Y322464D01*
X1129691Y322574D01*
X1129663Y322688D01*
X1129654Y322806D01*
Y333404D01*
X1126606D01*
X1126488Y333413D01*
X1126374Y333441D01*
X1126264Y333486D01*
X1126164Y333547D01*
X1126074Y333624D01*
X1125997Y333714D01*
X1125936Y333814D01*
X1125891Y333923D01*
X1125863Y334038D01*
X1125854Y334156D01*
Y338456D01*
X1125863Y338574D01*
X1125891Y338689D01*
X1125936Y338797D01*
X1125997Y338898D01*
X1126074Y338988D01*
X1126164Y339065D01*
X1126264Y339126D01*
X1126374Y339171D01*
X1126488Y339199D01*
X1126606Y339208D01*
X1129654D01*
Y342606D01*
X1129663Y342724D01*
X1129691Y342839D01*
X1129736Y342948D01*
X1129797Y343048D01*
X1129874Y343138D01*
X1129964Y343215D01*
X1130064Y343276D01*
X1130174Y343321D01*
X1130288Y343349D01*
X1130406Y343358D01*
X1154906D01*
X1155024Y343349D01*
D02*
G37*
G36*
X1118194D02*
X1118308Y343321D01*
X1118418Y343276D01*
X1118518Y343215D01*
X1118608Y343138D01*
X1118685Y343048D01*
X1118746Y342948D01*
X1118792Y342839D01*
X1118819Y342724D01*
X1118828Y342606D01*
Y339208D01*
X1121876D01*
X1121994Y339199D01*
X1122109Y339171D01*
X1122218Y339126D01*
X1122318Y339065D01*
X1122408Y338988D01*
X1122485Y338898D01*
X1122546Y338797D01*
X1122591Y338689D01*
X1122619Y338574D01*
X1122628Y338456D01*
Y334156D01*
X1122619Y334038D01*
X1122591Y333923D01*
X1122546Y333814D01*
X1122485Y333714D01*
X1122408Y333624D01*
X1122318Y333547D01*
X1122218Y333486D01*
X1122109Y333441D01*
X1121994Y333413D01*
X1121876Y333404D01*
X1118828D01*
Y322806D01*
X1118819Y322688D01*
X1118792Y322574D01*
X1118746Y322464D01*
X1118685Y322364D01*
X1118608Y322274D01*
X1118518Y322197D01*
X1118418Y322136D01*
X1118328Y322099D01*
Y319806D01*
X1118319Y319688D01*
X1118291Y319573D01*
X1118246Y319464D01*
X1118185Y319364D01*
X1118108Y319274D01*
X1118018Y319197D01*
X1117918Y319136D01*
X1117809Y319090D01*
X1117694Y319063D01*
X1117576Y319054D01*
X1113576D01*
X1113458Y319063D01*
X1113344Y319090D01*
X1113234Y319136D01*
X1113134Y319197D01*
X1113044Y319274D01*
X1112967Y319364D01*
X1112906Y319464D01*
X1112860Y319573D01*
X1112833Y319688D01*
X1112824Y319806D01*
Y322054D01*
X1111828D01*
Y319806D01*
X1111819Y319688D01*
X1111792Y319573D01*
X1111746Y319464D01*
X1111685Y319364D01*
X1111608Y319274D01*
X1111518Y319197D01*
X1111418Y319136D01*
X1111309Y319090D01*
X1111194Y319063D01*
X1111076Y319054D01*
X1107076D01*
X1106958Y319063D01*
X1106844Y319090D01*
X1106734Y319136D01*
X1106634Y319197D01*
X1106544Y319274D01*
X1106467Y319364D01*
X1106406Y319464D01*
X1106361Y319573D01*
X1106333Y319688D01*
X1106324Y319806D01*
Y322054D01*
X1105328D01*
Y319806D01*
X1105319Y319688D01*
X1105292Y319573D01*
X1105246Y319464D01*
X1105185Y319364D01*
X1105108Y319274D01*
X1105018Y319197D01*
X1104918Y319136D01*
X1104809Y319090D01*
X1104694Y319063D01*
X1104576Y319054D01*
X1100576D01*
X1100458Y319063D01*
X1100343Y319090D01*
X1100235Y319136D01*
X1100134Y319197D01*
X1100044Y319274D01*
X1099967Y319364D01*
X1099906Y319464D01*
X1099861Y319573D01*
X1099833Y319688D01*
X1099824Y319806D01*
Y322054D01*
X1098828D01*
Y319806D01*
X1098819Y319688D01*
X1098792Y319573D01*
X1098746Y319464D01*
X1098685Y319364D01*
X1098608Y319274D01*
X1098518Y319197D01*
X1098418Y319136D01*
X1098308Y319090D01*
X1098194Y319063D01*
X1098076Y319054D01*
X1094076D01*
X1093958Y319063D01*
X1093844Y319090D01*
X1093735Y319136D01*
X1093634Y319197D01*
X1093544Y319274D01*
X1093467Y319364D01*
X1093406Y319464D01*
X1093361Y319573D01*
X1093333Y319688D01*
X1093324Y319806D01*
Y322099D01*
X1093234Y322136D01*
X1093134Y322197D01*
X1093044Y322274D01*
X1092967Y322364D01*
X1092906Y322464D01*
X1092861Y322574D01*
X1092833Y322688D01*
X1092824Y322806D01*
Y333404D01*
X1089776D01*
X1089658Y333413D01*
X1089544Y333441D01*
X1089435Y333486D01*
X1089334Y333547D01*
X1089244Y333624D01*
X1089167Y333714D01*
X1089106Y333814D01*
X1089061Y333923D01*
X1089033Y334038D01*
X1089024Y334156D01*
Y338456D01*
X1089033Y338574D01*
X1089061Y338689D01*
X1089106Y338797D01*
X1089167Y338898D01*
X1089244Y338988D01*
X1089334Y339065D01*
X1089435Y339126D01*
X1089544Y339171D01*
X1089658Y339199D01*
X1089776Y339208D01*
X1092824D01*
Y342606D01*
X1092833Y342724D01*
X1092861Y342839D01*
X1092906Y342948D01*
X1092967Y343048D01*
X1093044Y343138D01*
X1093134Y343215D01*
X1093234Y343276D01*
X1093344Y343321D01*
X1093458Y343349D01*
X1093576Y343358D01*
X1118076D01*
X1118194Y343349D01*
D02*
G37*
G36*
X802911Y342635D02*
X803026Y342607D01*
X803135Y342562D01*
X803235Y342501D01*
X803325Y342424D01*
X803402Y342334D01*
X803463Y342234D01*
X803509Y342124D01*
X803536Y342010D01*
X803545Y341892D01*
Y338494D01*
X806593D01*
X806711Y338485D01*
X806825Y338457D01*
X806935Y338412D01*
X807035Y338351D01*
X807125Y338274D01*
X807202Y338184D01*
X807263Y338084D01*
X807309Y337975D01*
X807336Y337860D01*
X807345Y337742D01*
Y333442D01*
X807336Y333324D01*
X807309Y333209D01*
X807263Y333101D01*
X807202Y333000D01*
X807125Y332910D01*
X807035Y332833D01*
X806935Y332772D01*
X806825Y332727D01*
X806711Y332699D01*
X806593Y332690D01*
X803545D01*
Y322092D01*
X803536Y321974D01*
X803509Y321860D01*
X803463Y321750D01*
X803402Y321650D01*
X803325Y321560D01*
X803235Y321483D01*
X803135Y321422D01*
X803045Y321385D01*
Y319092D01*
X803036Y318974D01*
X803008Y318860D01*
X802963Y318750D01*
X802902Y318650D01*
X802825Y318560D01*
X802735Y318483D01*
X802635Y318422D01*
X802525Y318377D01*
X802411Y318349D01*
X802293Y318340D01*
X798293D01*
X798175Y318349D01*
X798061Y318377D01*
X797951Y318422D01*
X797851Y318483D01*
X797761Y318560D01*
X797684Y318650D01*
X797623Y318750D01*
X797578Y318860D01*
X797550Y318974D01*
X797541Y319092D01*
Y321340D01*
X796545D01*
Y319092D01*
X796536Y318974D01*
X796508Y318860D01*
X796463Y318750D01*
X796402Y318650D01*
X796325Y318560D01*
X796235Y318483D01*
X796135Y318422D01*
X796025Y318377D01*
X795911Y318349D01*
X795793Y318340D01*
X791793D01*
X791675Y318349D01*
X791561Y318377D01*
X791451Y318422D01*
X791351Y318483D01*
X791261Y318560D01*
X791184Y318650D01*
X791123Y318750D01*
X791077Y318860D01*
X791050Y318974D01*
X791041Y319092D01*
Y321340D01*
X790045D01*
Y319092D01*
X790036Y318974D01*
X790008Y318860D01*
X789963Y318750D01*
X789902Y318650D01*
X789825Y318560D01*
X789735Y318483D01*
X789634Y318422D01*
X789526Y318377D01*
X789411Y318349D01*
X789293Y318340D01*
X785293D01*
X785175Y318349D01*
X785061Y318377D01*
X784951Y318422D01*
X784851Y318483D01*
X784761Y318560D01*
X784684Y318650D01*
X784623Y318750D01*
X784577Y318860D01*
X784550Y318974D01*
X784541Y319092D01*
Y321340D01*
X783545D01*
Y319092D01*
X783536Y318974D01*
X783509Y318860D01*
X783463Y318750D01*
X783402Y318650D01*
X783325Y318560D01*
X783235Y318483D01*
X783135Y318422D01*
X783026Y318377D01*
X782911Y318349D01*
X782793Y318340D01*
X778793D01*
X778675Y318349D01*
X778560Y318377D01*
X778452Y318422D01*
X778351Y318483D01*
X778261Y318560D01*
X778184Y318650D01*
X778123Y318750D01*
X778077Y318860D01*
X778050Y318974D01*
X778041Y319092D01*
Y321385D01*
X777952Y321422D01*
X777851Y321483D01*
X777761Y321560D01*
X777684Y321650D01*
X777623Y321750D01*
X777578Y321860D01*
X777550Y321974D01*
X777541Y322092D01*
Y332690D01*
X774493D01*
X774375Y332699D01*
X774260Y332727D01*
X774151Y332772D01*
X774051Y332833D01*
X773961Y332910D01*
X773884Y333000D01*
X773823Y333101D01*
X773777Y333209D01*
X773750Y333324D01*
X773741Y333442D01*
Y337742D01*
X773750Y337860D01*
X773777Y337975D01*
X773823Y338084D01*
X773884Y338184D01*
X773961Y338274D01*
X774051Y338351D01*
X774151Y338412D01*
X774260Y338457D01*
X774375Y338485D01*
X774493Y338494D01*
X777541D01*
Y341892D01*
X777550Y342010D01*
X777578Y342124D01*
X777623Y342234D01*
X777684Y342334D01*
X777761Y342424D01*
X777851Y342501D01*
X777952Y342562D01*
X778061Y342607D01*
X778175Y342635D01*
X778293Y342644D01*
X802793D01*
X802911Y342635D01*
D02*
G37*
G36*
X766081D02*
X766196Y342607D01*
X766304Y342562D01*
X766405Y342501D01*
X766495Y342424D01*
X766572Y342334D01*
X766633Y342234D01*
X766678Y342124D01*
X766706Y342010D01*
X766715Y341892D01*
Y338494D01*
X769763D01*
X769881Y338485D01*
X769995Y338457D01*
X770105Y338412D01*
X770205Y338351D01*
X770295Y338274D01*
X770372Y338184D01*
X770433Y338084D01*
X770479Y337975D01*
X770506Y337860D01*
X770515Y337742D01*
Y333442D01*
X770506Y333324D01*
X770479Y333209D01*
X770433Y333101D01*
X770372Y333000D01*
X770295Y332910D01*
X770205Y332833D01*
X770105Y332772D01*
X769995Y332727D01*
X769881Y332699D01*
X769763Y332690D01*
X766715D01*
Y322092D01*
X766706Y321974D01*
X766678Y321860D01*
X766633Y321750D01*
X766572Y321650D01*
X766495Y321560D01*
X766405Y321483D01*
X766304Y321422D01*
X766215Y321385D01*
Y319092D01*
X766206Y318974D01*
X766179Y318860D01*
X766133Y318750D01*
X766072Y318650D01*
X765995Y318560D01*
X765905Y318483D01*
X765805Y318422D01*
X765695Y318377D01*
X765581Y318349D01*
X765463Y318340D01*
X761463D01*
X761345Y318349D01*
X761230Y318377D01*
X761121Y318422D01*
X761021Y318483D01*
X760931Y318560D01*
X760854Y318650D01*
X760793Y318750D01*
X760748Y318860D01*
X760720Y318974D01*
X760711Y319092D01*
Y321340D01*
X759715D01*
Y319092D01*
X759706Y318974D01*
X759678Y318860D01*
X759633Y318750D01*
X759572Y318650D01*
X759495Y318560D01*
X759405Y318483D01*
X759305Y318422D01*
X759195Y318377D01*
X759081Y318349D01*
X758963Y318340D01*
X754963D01*
X754845Y318349D01*
X754731Y318377D01*
X754622Y318422D01*
X754521Y318483D01*
X754431Y318560D01*
X754354Y318650D01*
X754293Y318750D01*
X754248Y318860D01*
X754220Y318974D01*
X754211Y319092D01*
Y321340D01*
X753215D01*
Y319092D01*
X753206Y318974D01*
X753178Y318860D01*
X753133Y318750D01*
X753072Y318650D01*
X752995Y318560D01*
X752905Y318483D01*
X752804Y318422D01*
X752695Y318377D01*
X752581Y318349D01*
X752463Y318340D01*
X748463D01*
X748345Y318349D01*
X748231Y318377D01*
X748121Y318422D01*
X748021Y318483D01*
X747931Y318560D01*
X747854Y318650D01*
X747793Y318750D01*
X747747Y318860D01*
X747720Y318974D01*
X747711Y319092D01*
Y321340D01*
X746715D01*
Y319092D01*
X746706Y318974D01*
X746678Y318860D01*
X746633Y318750D01*
X746572Y318650D01*
X746495Y318560D01*
X746405Y318483D01*
X746305Y318422D01*
X746196Y318377D01*
X746081Y318349D01*
X745963Y318340D01*
X741963D01*
X741845Y318349D01*
X741730Y318377D01*
X741621Y318422D01*
X741521Y318483D01*
X741431Y318560D01*
X741354Y318650D01*
X741293Y318750D01*
X741247Y318860D01*
X741220Y318974D01*
X741211Y319092D01*
Y321385D01*
X741122Y321422D01*
X741021Y321483D01*
X740931Y321560D01*
X740854Y321650D01*
X740793Y321750D01*
X740748Y321860D01*
X740720Y321974D01*
X740711Y322092D01*
Y332690D01*
X737663D01*
X737545Y332699D01*
X737430Y332727D01*
X737321Y332772D01*
X737221Y332833D01*
X737131Y332910D01*
X737054Y333000D01*
X736993Y333101D01*
X736947Y333209D01*
X736920Y333324D01*
X736911Y333442D01*
Y337742D01*
X736920Y337860D01*
X736947Y337975D01*
X736993Y338084D01*
X737054Y338184D01*
X737131Y338274D01*
X737221Y338351D01*
X737321Y338412D01*
X737430Y338457D01*
X737545Y338485D01*
X737663Y338494D01*
X740711D01*
Y341892D01*
X740720Y342010D01*
X740748Y342124D01*
X740793Y342234D01*
X740854Y342334D01*
X740931Y342424D01*
X741021Y342501D01*
X741122Y342562D01*
X741230Y342607D01*
X741345Y342635D01*
X741463Y342644D01*
X765963D01*
X766081Y342635D01*
D02*
G37*
G36*
X683398Y342207D02*
X683512Y342179D01*
X683622Y342134D01*
X683722Y342073D01*
X683812Y341996D01*
X683889Y341906D01*
X683950Y341806D01*
X683996Y341697D01*
X684023Y341582D01*
X684032Y341464D01*
Y338066D01*
X687080D01*
X687198Y338057D01*
X687312Y338030D01*
X687422Y337984D01*
X687522Y337923D01*
X687612Y337846D01*
X687689Y337756D01*
X687750Y337656D01*
X687795Y337547D01*
X687823Y337432D01*
X687832Y337314D01*
Y333014D01*
X687823Y332896D01*
X687795Y332782D01*
X687750Y332673D01*
X687689Y332572D01*
X687612Y332482D01*
X687522Y332405D01*
X687422Y332344D01*
X687312Y332299D01*
X687198Y332271D01*
X687080Y332262D01*
X684032D01*
Y321664D01*
X684023Y321546D01*
X683996Y321432D01*
X683950Y321323D01*
X683889Y321222D01*
X683812Y321132D01*
X683722Y321055D01*
X683622Y320994D01*
X683532Y320957D01*
Y318664D01*
X683523Y318546D01*
X683495Y318431D01*
X683450Y318323D01*
X683389Y318222D01*
X683312Y318132D01*
X683222Y318055D01*
X683121Y317994D01*
X683012Y317948D01*
X682898Y317921D01*
X682780Y317912D01*
X678780D01*
X678662Y317921D01*
X678548Y317948D01*
X678438Y317994D01*
X678338Y318055D01*
X678248Y318132D01*
X678171Y318222D01*
X678110Y318323D01*
X678064Y318431D01*
X678037Y318546D01*
X678028Y318664D01*
Y320912D01*
X677032D01*
Y318664D01*
X677023Y318546D01*
X676995Y318431D01*
X676950Y318323D01*
X676889Y318222D01*
X676812Y318132D01*
X676722Y318055D01*
X676622Y317994D01*
X676513Y317948D01*
X676398Y317921D01*
X676280Y317912D01*
X672280D01*
X672162Y317921D01*
X672048Y317948D01*
X671938Y317994D01*
X671838Y318055D01*
X671748Y318132D01*
X671671Y318222D01*
X671610Y318323D01*
X671564Y318431D01*
X671537Y318546D01*
X671528Y318664D01*
Y320912D01*
X670532D01*
Y318664D01*
X670523Y318546D01*
X670496Y318431D01*
X670450Y318323D01*
X670389Y318222D01*
X670312Y318132D01*
X670222Y318055D01*
X670122Y317994D01*
X670013Y317948D01*
X669898Y317921D01*
X669780Y317912D01*
X665780D01*
X665662Y317921D01*
X665547Y317948D01*
X665438Y317994D01*
X665338Y318055D01*
X665248Y318132D01*
X665171Y318222D01*
X665110Y318323D01*
X665064Y318431D01*
X665037Y318546D01*
X665028Y318664D01*
Y320912D01*
X664032D01*
Y318664D01*
X664023Y318546D01*
X663996Y318431D01*
X663950Y318323D01*
X663889Y318222D01*
X663812Y318132D01*
X663722Y318055D01*
X663622Y317994D01*
X663512Y317948D01*
X663398Y317921D01*
X663280Y317912D01*
X659280D01*
X659162Y317921D01*
X659047Y317948D01*
X658939Y317994D01*
X658838Y318055D01*
X658748Y318132D01*
X658671Y318222D01*
X658610Y318323D01*
X658565Y318431D01*
X658537Y318546D01*
X658528Y318664D01*
Y320957D01*
X658438Y320994D01*
X658338Y321055D01*
X658248Y321132D01*
X658171Y321222D01*
X658110Y321323D01*
X658064Y321432D01*
X658037Y321546D01*
X658028Y321664D01*
Y332262D01*
X654980D01*
X654862Y332271D01*
X654747Y332299D01*
X654638Y332344D01*
X654538Y332405D01*
X654448Y332482D01*
X654371Y332572D01*
X654310Y332673D01*
X654265Y332782D01*
X654237Y332896D01*
X654228Y333014D01*
Y337314D01*
X654237Y337432D01*
X654265Y337547D01*
X654310Y337656D01*
X654371Y337756D01*
X654448Y337846D01*
X654538Y337923D01*
X654638Y337984D01*
X654747Y338030D01*
X654862Y338057D01*
X654980Y338066D01*
X658028D01*
Y341464D01*
X658037Y341582D01*
X658064Y341697D01*
X658110Y341806D01*
X658171Y341906D01*
X658248Y341996D01*
X658338Y342073D01*
X658438Y342134D01*
X658548Y342179D01*
X658662Y342207D01*
X658780Y342216D01*
X683280D01*
X683398Y342207D01*
D02*
G37*
G36*
X646568D02*
X646683Y342179D01*
X646792Y342134D01*
X646892Y342073D01*
X646982Y341996D01*
X647059Y341906D01*
X647120Y341806D01*
X647166Y341697D01*
X647193Y341582D01*
X647202Y341464D01*
Y338066D01*
X650250D01*
X650368Y338057D01*
X650482Y338030D01*
X650592Y337984D01*
X650692Y337923D01*
X650782Y337846D01*
X650859Y337756D01*
X650920Y337656D01*
X650965Y337547D01*
X650993Y337432D01*
X651002Y337314D01*
Y333014D01*
X650993Y332896D01*
X650965Y332782D01*
X650920Y332673D01*
X650859Y332572D01*
X650782Y332482D01*
X650692Y332405D01*
X650592Y332344D01*
X650482Y332299D01*
X650368Y332271D01*
X650250Y332262D01*
X647202D01*
Y321664D01*
X647193Y321546D01*
X647166Y321432D01*
X647120Y321323D01*
X647059Y321222D01*
X646982Y321132D01*
X646892Y321055D01*
X646792Y320994D01*
X646702Y320957D01*
Y318664D01*
X646693Y318546D01*
X646665Y318431D01*
X646620Y318323D01*
X646559Y318222D01*
X646482Y318132D01*
X646392Y318055D01*
X646292Y317994D01*
X646182Y317948D01*
X646068Y317921D01*
X645950Y317912D01*
X641950D01*
X641832Y317921D01*
X641718Y317948D01*
X641608Y317994D01*
X641508Y318055D01*
X641418Y318132D01*
X641341Y318222D01*
X641280Y318323D01*
X641235Y318431D01*
X641207Y318546D01*
X641198Y318664D01*
Y320912D01*
X640202D01*
Y318664D01*
X640193Y318546D01*
X640165Y318431D01*
X640120Y318323D01*
X640059Y318222D01*
X639982Y318132D01*
X639892Y318055D01*
X639792Y317994D01*
X639683Y317948D01*
X639568Y317921D01*
X639450Y317912D01*
X635450D01*
X635332Y317921D01*
X635218Y317948D01*
X635108Y317994D01*
X635008Y318055D01*
X634918Y318132D01*
X634841Y318222D01*
X634780Y318323D01*
X634734Y318431D01*
X634707Y318546D01*
X634698Y318664D01*
Y320912D01*
X633702D01*
Y318664D01*
X633693Y318546D01*
X633666Y318431D01*
X633620Y318323D01*
X633559Y318222D01*
X633482Y318132D01*
X633392Y318055D01*
X633292Y317994D01*
X633182Y317948D01*
X633068Y317921D01*
X632950Y317912D01*
X628950D01*
X628832Y317921D01*
X628717Y317948D01*
X628608Y317994D01*
X628508Y318055D01*
X628418Y318132D01*
X628341Y318222D01*
X628280Y318323D01*
X628234Y318431D01*
X628207Y318546D01*
X628198Y318664D01*
Y320912D01*
X627202D01*
Y318664D01*
X627193Y318546D01*
X627165Y318431D01*
X627120Y318323D01*
X627059Y318222D01*
X626982Y318132D01*
X626892Y318055D01*
X626792Y317994D01*
X626683Y317948D01*
X626568Y317921D01*
X626450Y317912D01*
X622450D01*
X622332Y317921D01*
X622217Y317948D01*
X622108Y317994D01*
X622008Y318055D01*
X621918Y318132D01*
X621841Y318222D01*
X621780Y318323D01*
X621735Y318431D01*
X621707Y318546D01*
X621698Y318664D01*
Y320957D01*
X621609Y320994D01*
X621508Y321055D01*
X621418Y321132D01*
X621341Y321222D01*
X621280Y321323D01*
X621235Y321432D01*
X621207Y321546D01*
X621198Y321664D01*
Y332262D01*
X618150D01*
X618032Y332271D01*
X617918Y332299D01*
X617808Y332344D01*
X617708Y332405D01*
X617618Y332482D01*
X617541Y332572D01*
X617480Y332673D01*
X617435Y332782D01*
X617407Y332896D01*
X617398Y333014D01*
Y337314D01*
X617407Y337432D01*
X617435Y337547D01*
X617480Y337656D01*
X617541Y337756D01*
X617618Y337846D01*
X617708Y337923D01*
X617808Y337984D01*
X617918Y338030D01*
X618032Y338057D01*
X618150Y338066D01*
X621198D01*
Y341464D01*
X621207Y341582D01*
X621235Y341697D01*
X621280Y341806D01*
X621341Y341906D01*
X621418Y341996D01*
X621508Y342073D01*
X621609Y342134D01*
X621717Y342179D01*
X621832Y342207D01*
X621950Y342216D01*
X646450D01*
X646568Y342207D01*
D02*
G37*
G36*
X446593Y295745D02*
X446707Y295718D01*
X446816Y295672D01*
X446917Y295611D01*
X447007Y295534D01*
X447084Y295444D01*
X447145Y295343D01*
X447191Y295235D01*
X447218Y295120D01*
X447227Y295002D01*
Y291604D01*
X450275D01*
X450393Y291595D01*
X450508Y291567D01*
X450616Y291522D01*
X450717Y291461D01*
X450807Y291384D01*
X450884Y291294D01*
X450945Y291194D01*
X450990Y291084D01*
X451018Y290970D01*
X451027Y290852D01*
Y286552D01*
X451018Y286434D01*
X450990Y286320D01*
X450945Y286210D01*
X450884Y286110D01*
X450807Y286020D01*
X450717Y285943D01*
X450616Y285882D01*
X450508Y285837D01*
X450393Y285809D01*
X450275Y285800D01*
X447227D01*
Y275202D01*
X447218Y275084D01*
X447191Y274970D01*
X447145Y274860D01*
X447084Y274760D01*
X447007Y274670D01*
X446917Y274593D01*
X446816Y274532D01*
X446727Y274495D01*
Y272202D01*
X446718Y272084D01*
X446690Y271970D01*
X446645Y271860D01*
X446584Y271760D01*
X446507Y271670D01*
X446417Y271593D01*
X446316Y271532D01*
X446208Y271486D01*
X446093Y271459D01*
X445975Y271450D01*
X441975D01*
X441857Y271459D01*
X441743Y271486D01*
X441633Y271532D01*
X441533Y271593D01*
X441443Y271670D01*
X441366Y271760D01*
X441305Y271860D01*
X441259Y271970D01*
X441232Y272084D01*
X441223Y272202D01*
Y274450D01*
X440227D01*
Y272202D01*
X440218Y272084D01*
X440191Y271970D01*
X440145Y271860D01*
X440084Y271760D01*
X440007Y271670D01*
X439917Y271593D01*
X439817Y271532D01*
X439707Y271486D01*
X439593Y271459D01*
X439475Y271450D01*
X435475D01*
X435357Y271459D01*
X435243Y271486D01*
X435133Y271532D01*
X435033Y271593D01*
X434943Y271670D01*
X434866Y271760D01*
X434805Y271860D01*
X434759Y271970D01*
X434732Y272084D01*
X434723Y272202D01*
Y274450D01*
X433727D01*
Y272202D01*
X433718Y272084D01*
X433690Y271970D01*
X433645Y271860D01*
X433584Y271760D01*
X433507Y271670D01*
X433417Y271593D01*
X433316Y271532D01*
X433208Y271486D01*
X433093Y271459D01*
X432975Y271450D01*
X428975D01*
X428857Y271459D01*
X428742Y271486D01*
X428633Y271532D01*
X428533Y271593D01*
X428443Y271670D01*
X428366Y271760D01*
X428305Y271860D01*
X428260Y271970D01*
X428232Y272084D01*
X428223Y272202D01*
Y274450D01*
X427227D01*
Y272202D01*
X427218Y272084D01*
X427191Y271970D01*
X427145Y271860D01*
X427084Y271760D01*
X427007Y271670D01*
X426917Y271593D01*
X426816Y271532D01*
X426707Y271486D01*
X426593Y271459D01*
X426475Y271450D01*
X422475D01*
X422357Y271459D01*
X422243Y271486D01*
X422133Y271532D01*
X422033Y271593D01*
X421943Y271670D01*
X421866Y271760D01*
X421805Y271860D01*
X421759Y271970D01*
X421732Y272084D01*
X421723Y272202D01*
Y274495D01*
X421633Y274532D01*
X421533Y274593D01*
X421443Y274670D01*
X421366Y274760D01*
X421305Y274860D01*
X421259Y274970D01*
X421232Y275084D01*
X421223Y275202D01*
Y285800D01*
X418175D01*
X418057Y285809D01*
X417943Y285837D01*
X417833Y285882D01*
X417733Y285943D01*
X417643Y286020D01*
X417566Y286110D01*
X417505Y286210D01*
X417459Y286320D01*
X417432Y286434D01*
X417423Y286552D01*
Y290852D01*
X417432Y290970D01*
X417459Y291084D01*
X417505Y291194D01*
X417566Y291294D01*
X417643Y291384D01*
X417733Y291461D01*
X417833Y291522D01*
X417943Y291567D01*
X418057Y291595D01*
X418175Y291604D01*
X421223D01*
Y295002D01*
X421232Y295120D01*
X421259Y295235D01*
X421305Y295343D01*
X421366Y295444D01*
X421443Y295534D01*
X421533Y295611D01*
X421633Y295672D01*
X421743Y295718D01*
X421857Y295745D01*
X421975Y295754D01*
X446475D01*
X446593Y295745D01*
D02*
G37*
G36*
X409763D02*
X409878Y295718D01*
X409986Y295672D01*
X410087Y295611D01*
X410177Y295534D01*
X410254Y295444D01*
X410315Y295343D01*
X410360Y295235D01*
X410388Y295120D01*
X410397Y295002D01*
Y291604D01*
X413445D01*
X413563Y291595D01*
X413677Y291567D01*
X413787Y291522D01*
X413887Y291461D01*
X413977Y291384D01*
X414054Y291294D01*
X414115Y291194D01*
X414160Y291084D01*
X414188Y290970D01*
X414197Y290852D01*
Y286552D01*
X414188Y286434D01*
X414160Y286320D01*
X414115Y286210D01*
X414054Y286110D01*
X413977Y286020D01*
X413887Y285943D01*
X413787Y285882D01*
X413677Y285837D01*
X413563Y285809D01*
X413445Y285800D01*
X410397D01*
Y275202D01*
X410388Y275084D01*
X410360Y274970D01*
X410315Y274860D01*
X410254Y274760D01*
X410177Y274670D01*
X410087Y274593D01*
X409986Y274532D01*
X409897Y274495D01*
Y272202D01*
X409888Y272084D01*
X409860Y271970D01*
X409815Y271860D01*
X409754Y271760D01*
X409677Y271670D01*
X409587Y271593D01*
X409487Y271532D01*
X409378Y271486D01*
X409263Y271459D01*
X409145Y271450D01*
X405145D01*
X405027Y271459D01*
X404912Y271486D01*
X404803Y271532D01*
X404703Y271593D01*
X404613Y271670D01*
X404536Y271760D01*
X404475Y271860D01*
X404430Y271970D01*
X404402Y272084D01*
X404393Y272202D01*
Y274450D01*
X403397D01*
Y272202D01*
X403388Y272084D01*
X403360Y271970D01*
X403315Y271860D01*
X403254Y271760D01*
X403177Y271670D01*
X403087Y271593D01*
X402986Y271532D01*
X402878Y271486D01*
X402763Y271459D01*
X402645Y271450D01*
X398645D01*
X398527Y271459D01*
X398413Y271486D01*
X398303Y271532D01*
X398203Y271593D01*
X398113Y271670D01*
X398036Y271760D01*
X397975Y271860D01*
X397929Y271970D01*
X397902Y272084D01*
X397893Y272202D01*
Y274450D01*
X396897D01*
Y272202D01*
X396888Y272084D01*
X396861Y271970D01*
X396815Y271860D01*
X396754Y271760D01*
X396677Y271670D01*
X396587Y271593D01*
X396487Y271532D01*
X396377Y271486D01*
X396263Y271459D01*
X396145Y271450D01*
X392145D01*
X392027Y271459D01*
X391912Y271486D01*
X391803Y271532D01*
X391703Y271593D01*
X391613Y271670D01*
X391536Y271760D01*
X391475Y271860D01*
X391429Y271970D01*
X391402Y272084D01*
X391393Y272202D01*
Y274450D01*
X390397D01*
Y272202D01*
X390388Y272084D01*
X390360Y271970D01*
X390315Y271860D01*
X390254Y271760D01*
X390177Y271670D01*
X390087Y271593D01*
X389986Y271532D01*
X389878Y271486D01*
X389763Y271459D01*
X389645Y271450D01*
X385645D01*
X385527Y271459D01*
X385412Y271486D01*
X385303Y271532D01*
X385203Y271593D01*
X385113Y271670D01*
X385036Y271760D01*
X384975Y271860D01*
X384930Y271970D01*
X384902Y272084D01*
X384893Y272202D01*
Y274495D01*
X384803Y274532D01*
X384703Y274593D01*
X384613Y274670D01*
X384536Y274760D01*
X384475Y274860D01*
X384430Y274970D01*
X384402Y275084D01*
X384393Y275202D01*
Y285800D01*
X381345D01*
X381227Y285809D01*
X381113Y285837D01*
X381003Y285882D01*
X380903Y285943D01*
X380813Y286020D01*
X380736Y286110D01*
X380675Y286210D01*
X380630Y286320D01*
X380602Y286434D01*
X380593Y286552D01*
Y290852D01*
X380602Y290970D01*
X380630Y291084D01*
X380675Y291194D01*
X380736Y291294D01*
X380813Y291384D01*
X380903Y291461D01*
X381003Y291522D01*
X381113Y291567D01*
X381227Y291595D01*
X381345Y291604D01*
X384393D01*
Y295002D01*
X384402Y295120D01*
X384430Y295235D01*
X384475Y295343D01*
X384536Y295444D01*
X384613Y295534D01*
X384703Y295611D01*
X384803Y295672D01*
X384912Y295718D01*
X385027Y295745D01*
X385145Y295754D01*
X409645D01*
X409763Y295745D01*
D02*
G37*
G36*
X92638Y295263D02*
X92753Y295236D01*
X92861Y295190D01*
X92962Y295129D01*
X93052Y295052D01*
X93129Y294962D01*
X93190Y294862D01*
X93236Y294753D01*
X93263Y294638D01*
X93272Y294520D01*
Y291122D01*
X96320D01*
X96438Y291113D01*
X96552Y291085D01*
X96662Y291040D01*
X96762Y290979D01*
X96852Y290902D01*
X96929Y290812D01*
X96990Y290712D01*
X97036Y290602D01*
X97063Y290488D01*
X97072Y290370D01*
Y286070D01*
X97063Y285952D01*
X97036Y285837D01*
X96990Y285728D01*
X96929Y285628D01*
X96852Y285538D01*
X96762Y285461D01*
X96662Y285400D01*
X96552Y285354D01*
X96438Y285327D01*
X96320Y285318D01*
X93272D01*
Y274720D01*
X93263Y274602D01*
X93236Y274487D01*
X93190Y274378D01*
X93129Y274278D01*
X93052Y274188D01*
X92962Y274111D01*
X92861Y274050D01*
X92772Y274013D01*
Y271720D01*
X92763Y271602D01*
X92736Y271488D01*
X92690Y271378D01*
X92629Y271278D01*
X92552Y271188D01*
X92462Y271111D01*
X92361Y271050D01*
X92253Y271005D01*
X92138Y270977D01*
X92020Y270968D01*
X88020D01*
X87902Y270977D01*
X87788Y271005D01*
X87678Y271050D01*
X87578Y271111D01*
X87488Y271188D01*
X87411Y271278D01*
X87350Y271378D01*
X87304Y271488D01*
X87277Y271602D01*
X87268Y271720D01*
Y273968D01*
X86272D01*
Y271720D01*
X86263Y271602D01*
X86236Y271488D01*
X86190Y271378D01*
X86129Y271278D01*
X86052Y271188D01*
X85962Y271111D01*
X85862Y271050D01*
X85752Y271005D01*
X85638Y270977D01*
X85520Y270968D01*
X81520D01*
X81402Y270977D01*
X81287Y271005D01*
X81179Y271050D01*
X81078Y271111D01*
X80988Y271188D01*
X80911Y271278D01*
X80850Y271378D01*
X80805Y271488D01*
X80777Y271602D01*
X80768Y271720D01*
Y273968D01*
X79772D01*
Y271720D01*
X79763Y271602D01*
X79735Y271488D01*
X79690Y271378D01*
X79629Y271278D01*
X79552Y271188D01*
X79462Y271111D01*
X79362Y271050D01*
X79253Y271005D01*
X79138Y270977D01*
X79020Y270968D01*
X75020D01*
X74902Y270977D01*
X74788Y271005D01*
X74678Y271050D01*
X74578Y271111D01*
X74488Y271188D01*
X74411Y271278D01*
X74350Y271378D01*
X74304Y271488D01*
X74277Y271602D01*
X74268Y271720D01*
Y273968D01*
X73272D01*
Y271720D01*
X73263Y271602D01*
X73236Y271488D01*
X73190Y271378D01*
X73129Y271278D01*
X73052Y271188D01*
X72962Y271111D01*
X72862Y271050D01*
X72752Y271005D01*
X72638Y270977D01*
X72520Y270968D01*
X68520D01*
X68402Y270977D01*
X68288Y271005D01*
X68179Y271050D01*
X68078Y271111D01*
X67988Y271188D01*
X67911Y271278D01*
X67850Y271378D01*
X67804Y271488D01*
X67777Y271602D01*
X67768Y271720D01*
Y274013D01*
X67678Y274050D01*
X67578Y274111D01*
X67488Y274188D01*
X67411Y274278D01*
X67350Y274378D01*
X67305Y274487D01*
X67277Y274602D01*
X67268Y274720D01*
Y285318D01*
X64220D01*
X64102Y285327D01*
X63987Y285354D01*
X63878Y285400D01*
X63778Y285461D01*
X63688Y285538D01*
X63611Y285628D01*
X63550Y285728D01*
X63505Y285837D01*
X63477Y285952D01*
X63468Y286070D01*
Y290370D01*
X63477Y290488D01*
X63505Y290602D01*
X63550Y290712D01*
X63611Y290812D01*
X63688Y290902D01*
X63778Y290979D01*
X63878Y291040D01*
X63987Y291085D01*
X64102Y291113D01*
X64220Y291122D01*
X67268D01*
Y294520D01*
X67277Y294638D01*
X67305Y294753D01*
X67350Y294862D01*
X67411Y294962D01*
X67488Y295052D01*
X67578Y295129D01*
X67678Y295190D01*
X67787Y295236D01*
X67902Y295263D01*
X68020Y295272D01*
X92520D01*
X92638Y295263D01*
D02*
G37*
G36*
X55808D02*
X55922Y295236D01*
X56031Y295190D01*
X56132Y295129D01*
X56222Y295052D01*
X56299Y294962D01*
X56360Y294862D01*
X56406Y294753D01*
X56433Y294638D01*
X56442Y294520D01*
Y291122D01*
X59490D01*
X59608Y291113D01*
X59722Y291085D01*
X59832Y291040D01*
X59932Y290979D01*
X60022Y290902D01*
X60099Y290812D01*
X60160Y290712D01*
X60205Y290602D01*
X60233Y290488D01*
X60242Y290370D01*
Y286070D01*
X60233Y285952D01*
X60205Y285837D01*
X60160Y285728D01*
X60099Y285628D01*
X60022Y285538D01*
X59932Y285461D01*
X59832Y285400D01*
X59722Y285354D01*
X59608Y285327D01*
X59490Y285318D01*
X56442D01*
Y274720D01*
X56433Y274602D01*
X56406Y274487D01*
X56360Y274378D01*
X56299Y274278D01*
X56222Y274188D01*
X56132Y274111D01*
X56031Y274050D01*
X55942Y274013D01*
Y271720D01*
X55933Y271602D01*
X55905Y271488D01*
X55860Y271378D01*
X55799Y271278D01*
X55722Y271188D01*
X55632Y271111D01*
X55532Y271050D01*
X55423Y271005D01*
X55308Y270977D01*
X55190Y270968D01*
X51190D01*
X51072Y270977D01*
X50957Y271005D01*
X50848Y271050D01*
X50748Y271111D01*
X50658Y271188D01*
X50581Y271278D01*
X50520Y271378D01*
X50475Y271488D01*
X50447Y271602D01*
X50438Y271720D01*
Y273968D01*
X49442D01*
Y271720D01*
X49433Y271602D01*
X49405Y271488D01*
X49360Y271378D01*
X49299Y271278D01*
X49222Y271188D01*
X49132Y271111D01*
X49032Y271050D01*
X48923Y271005D01*
X48808Y270977D01*
X48690Y270968D01*
X44690D01*
X44572Y270977D01*
X44458Y271005D01*
X44349Y271050D01*
X44248Y271111D01*
X44158Y271188D01*
X44081Y271278D01*
X44020Y271378D01*
X43974Y271488D01*
X43947Y271602D01*
X43938Y271720D01*
Y273968D01*
X42942D01*
Y271720D01*
X42933Y271602D01*
X42906Y271488D01*
X42860Y271378D01*
X42799Y271278D01*
X42722Y271188D01*
X42632Y271111D01*
X42531Y271050D01*
X42422Y271005D01*
X42308Y270977D01*
X42190Y270968D01*
X38190D01*
X38072Y270977D01*
X37957Y271005D01*
X37848Y271050D01*
X37748Y271111D01*
X37658Y271188D01*
X37581Y271278D01*
X37520Y271378D01*
X37475Y271488D01*
X37447Y271602D01*
X37438Y271720D01*
Y273968D01*
X36442D01*
Y271720D01*
X36433Y271602D01*
X36405Y271488D01*
X36360Y271378D01*
X36299Y271278D01*
X36222Y271188D01*
X36132Y271111D01*
X36032Y271050D01*
X35923Y271005D01*
X35808Y270977D01*
X35690Y270968D01*
X31690D01*
X31572Y270977D01*
X31458Y271005D01*
X31349Y271050D01*
X31248Y271111D01*
X31158Y271188D01*
X31081Y271278D01*
X31020Y271378D01*
X30975Y271488D01*
X30947Y271602D01*
X30938Y271720D01*
Y274013D01*
X30849Y274050D01*
X30748Y274111D01*
X30658Y274188D01*
X30581Y274278D01*
X30520Y274378D01*
X30475Y274487D01*
X30447Y274602D01*
X30438Y274720D01*
Y285318D01*
X27390D01*
X27272Y285327D01*
X27157Y285354D01*
X27048Y285400D01*
X26948Y285461D01*
X26858Y285538D01*
X26781Y285628D01*
X26720Y285728D01*
X26674Y285837D01*
X26647Y285952D01*
X26638Y286070D01*
Y290370D01*
X26647Y290488D01*
X26674Y290602D01*
X26720Y290712D01*
X26781Y290812D01*
X26858Y290902D01*
X26948Y290979D01*
X27048Y291040D01*
X27157Y291085D01*
X27272Y291113D01*
X27390Y291122D01*
X30438D01*
Y294520D01*
X30447Y294638D01*
X30475Y294753D01*
X30520Y294862D01*
X30581Y294962D01*
X30658Y295052D01*
X30748Y295129D01*
X30849Y295190D01*
X30958Y295236D01*
X31072Y295263D01*
X31190Y295272D01*
X55690D01*
X55808Y295263D01*
D02*
G37*
G36*
X565288Y295217D02*
X565402Y295189D01*
X565512Y295144D01*
X565612Y295083D01*
X565702Y295006D01*
X565779Y294916D01*
X565840Y294816D01*
X565886Y294706D01*
X565913Y294592D01*
X565922Y294474D01*
Y291076D01*
X568970D01*
X569088Y291067D01*
X569202Y291040D01*
X569312Y290994D01*
X569412Y290933D01*
X569502Y290856D01*
X569579Y290766D01*
X569640Y290666D01*
X569686Y290557D01*
X569713Y290442D01*
X569722Y290324D01*
Y286024D01*
X569713Y285906D01*
X569686Y285792D01*
X569640Y285683D01*
X569579Y285582D01*
X569502Y285492D01*
X569412Y285415D01*
X569312Y285354D01*
X569202Y285308D01*
X569088Y285281D01*
X568970Y285272D01*
X565922D01*
Y274674D01*
X565913Y274556D01*
X565886Y274442D01*
X565840Y274333D01*
X565779Y274232D01*
X565702Y274142D01*
X565612Y274065D01*
X565512Y274004D01*
X565422Y273967D01*
Y271674D01*
X565413Y271556D01*
X565386Y271441D01*
X565340Y271332D01*
X565279Y271232D01*
X565202Y271142D01*
X565112Y271065D01*
X565011Y271004D01*
X564902Y270958D01*
X564788Y270931D01*
X564670Y270922D01*
X560670D01*
X560552Y270931D01*
X560438Y270958D01*
X560328Y271004D01*
X560228Y271065D01*
X560138Y271142D01*
X560061Y271232D01*
X560000Y271332D01*
X559954Y271441D01*
X559927Y271556D01*
X559918Y271674D01*
Y273922D01*
X558922D01*
Y271674D01*
X558913Y271556D01*
X558885Y271441D01*
X558840Y271332D01*
X558779Y271232D01*
X558702Y271142D01*
X558612Y271065D01*
X558512Y271004D01*
X558402Y270958D01*
X558288Y270931D01*
X558170Y270922D01*
X554170D01*
X554052Y270931D01*
X553937Y270958D01*
X553829Y271004D01*
X553728Y271065D01*
X553638Y271142D01*
X553561Y271232D01*
X553500Y271332D01*
X553455Y271441D01*
X553427Y271556D01*
X553418Y271674D01*
Y273922D01*
X552422D01*
Y271674D01*
X552413Y271556D01*
X552385Y271441D01*
X552340Y271332D01*
X552279Y271232D01*
X552202Y271142D01*
X552112Y271065D01*
X552011Y271004D01*
X551903Y270958D01*
X551788Y270931D01*
X551670Y270922D01*
X547670D01*
X547552Y270931D01*
X547438Y270958D01*
X547328Y271004D01*
X547228Y271065D01*
X547138Y271142D01*
X547061Y271232D01*
X547000Y271332D01*
X546954Y271441D01*
X546927Y271556D01*
X546918Y271674D01*
Y273922D01*
X545922D01*
Y271674D01*
X545913Y271556D01*
X545886Y271441D01*
X545840Y271332D01*
X545779Y271232D01*
X545702Y271142D01*
X545612Y271065D01*
X545512Y271004D01*
X545402Y270958D01*
X545288Y270931D01*
X545170Y270922D01*
X541170D01*
X541052Y270931D01*
X540938Y270958D01*
X540829Y271004D01*
X540728Y271065D01*
X540638Y271142D01*
X540561Y271232D01*
X540500Y271332D01*
X540454Y271441D01*
X540427Y271556D01*
X540418Y271674D01*
Y273967D01*
X540328Y274004D01*
X540228Y274065D01*
X540138Y274142D01*
X540061Y274232D01*
X540000Y274333D01*
X539954Y274442D01*
X539927Y274556D01*
X539918Y274674D01*
Y285272D01*
X536870D01*
X536752Y285281D01*
X536637Y285308D01*
X536528Y285354D01*
X536428Y285415D01*
X536338Y285492D01*
X536261Y285582D01*
X536200Y285683D01*
X536155Y285792D01*
X536127Y285906D01*
X536118Y286024D01*
Y290324D01*
X536127Y290442D01*
X536155Y290557D01*
X536200Y290666D01*
X536261Y290766D01*
X536338Y290856D01*
X536428Y290933D01*
X536528Y290994D01*
X536637Y291040D01*
X536752Y291067D01*
X536870Y291076D01*
X539918D01*
Y294474D01*
X539927Y294592D01*
X539954Y294706D01*
X540000Y294816D01*
X540061Y294916D01*
X540138Y295006D01*
X540228Y295083D01*
X540328Y295144D01*
X540438Y295189D01*
X540552Y295217D01*
X540670Y295226D01*
X565170D01*
X565288Y295217D01*
D02*
G37*
G36*
X528458D02*
X528573Y295189D01*
X528681Y295144D01*
X528782Y295083D01*
X528872Y295006D01*
X528949Y294916D01*
X529010Y294816D01*
X529055Y294706D01*
X529083Y294592D01*
X529092Y294474D01*
Y291076D01*
X532140D01*
X532258Y291067D01*
X532373Y291040D01*
X532482Y290994D01*
X532582Y290933D01*
X532672Y290856D01*
X532749Y290766D01*
X532810Y290666D01*
X532855Y290557D01*
X532883Y290442D01*
X532892Y290324D01*
Y286024D01*
X532883Y285906D01*
X532855Y285792D01*
X532810Y285683D01*
X532749Y285582D01*
X532672Y285492D01*
X532582Y285415D01*
X532482Y285354D01*
X532373Y285308D01*
X532258Y285281D01*
X532140Y285272D01*
X529092D01*
Y274674D01*
X529083Y274556D01*
X529055Y274442D01*
X529010Y274333D01*
X528949Y274232D01*
X528872Y274142D01*
X528782Y274065D01*
X528681Y274004D01*
X528592Y273967D01*
Y271674D01*
X528583Y271556D01*
X528555Y271441D01*
X528510Y271332D01*
X528449Y271232D01*
X528372Y271142D01*
X528282Y271065D01*
X528181Y271004D01*
X528073Y270958D01*
X527958Y270931D01*
X527840Y270922D01*
X523840D01*
X523722Y270931D01*
X523607Y270958D01*
X523498Y271004D01*
X523398Y271065D01*
X523308Y271142D01*
X523231Y271232D01*
X523170Y271332D01*
X523125Y271441D01*
X523097Y271556D01*
X523088Y271674D01*
Y273922D01*
X522092D01*
Y271674D01*
X522083Y271556D01*
X522056Y271441D01*
X522010Y271332D01*
X521949Y271232D01*
X521872Y271142D01*
X521782Y271065D01*
X521682Y271004D01*
X521572Y270958D01*
X521458Y270931D01*
X521340Y270922D01*
X517340D01*
X517222Y270931D01*
X517108Y270958D01*
X516998Y271004D01*
X516898Y271065D01*
X516808Y271142D01*
X516731Y271232D01*
X516670Y271332D01*
X516624Y271441D01*
X516597Y271556D01*
X516588Y271674D01*
Y273922D01*
X515592D01*
Y271674D01*
X515583Y271556D01*
X515555Y271441D01*
X515510Y271332D01*
X515449Y271232D01*
X515372Y271142D01*
X515282Y271065D01*
X515182Y271004D01*
X515073Y270958D01*
X514958Y270931D01*
X514840Y270922D01*
X510840D01*
X510722Y270931D01*
X510607Y270958D01*
X510498Y271004D01*
X510398Y271065D01*
X510308Y271142D01*
X510231Y271232D01*
X510170Y271332D01*
X510125Y271441D01*
X510097Y271556D01*
X510088Y271674D01*
Y273922D01*
X509092D01*
Y271674D01*
X509083Y271556D01*
X509055Y271441D01*
X509010Y271332D01*
X508949Y271232D01*
X508872Y271142D01*
X508782Y271065D01*
X508682Y271004D01*
X508573Y270958D01*
X508458Y270931D01*
X508340Y270922D01*
X504340D01*
X504222Y270931D01*
X504108Y270958D01*
X503998Y271004D01*
X503898Y271065D01*
X503808Y271142D01*
X503731Y271232D01*
X503670Y271332D01*
X503624Y271441D01*
X503597Y271556D01*
X503588Y271674D01*
Y273967D01*
X503498Y274004D01*
X503398Y274065D01*
X503308Y274142D01*
X503231Y274232D01*
X503170Y274333D01*
X503125Y274442D01*
X503097Y274556D01*
X503088Y274674D01*
Y285272D01*
X500040D01*
X499922Y285281D01*
X499808Y285308D01*
X499698Y285354D01*
X499598Y285415D01*
X499508Y285492D01*
X499431Y285582D01*
X499370Y285683D01*
X499324Y285792D01*
X499297Y285906D01*
X499288Y286024D01*
Y290324D01*
X499297Y290442D01*
X499324Y290557D01*
X499370Y290666D01*
X499431Y290766D01*
X499508Y290856D01*
X499598Y290933D01*
X499698Y290994D01*
X499808Y291040D01*
X499922Y291067D01*
X500040Y291076D01*
X503088D01*
Y294474D01*
X503097Y294592D01*
X503125Y294706D01*
X503170Y294816D01*
X503231Y294916D01*
X503308Y295006D01*
X503398Y295083D01*
X503498Y295144D01*
X503607Y295189D01*
X503722Y295217D01*
X503840Y295226D01*
X528340D01*
X528458Y295217D01*
D02*
G37*
G36*
X919364Y294762D02*
X919479Y294734D01*
X919587Y294689D01*
X919688Y294628D01*
X919778Y294551D01*
X919855Y294461D01*
X919916Y294361D01*
X919961Y294251D01*
X919989Y294137D01*
X919998Y294019D01*
Y290621D01*
X923046D01*
X923164Y290612D01*
X923279Y290585D01*
X923388Y290539D01*
X923488Y290478D01*
X923578Y290401D01*
X923655Y290311D01*
X923716Y290211D01*
X923762Y290102D01*
X923789Y289987D01*
X923798Y289869D01*
Y285569D01*
X923789Y285451D01*
X923762Y285336D01*
X923716Y285228D01*
X923655Y285127D01*
X923578Y285037D01*
X923488Y284960D01*
X923388Y284899D01*
X923279Y284853D01*
X923164Y284826D01*
X923046Y284817D01*
X919998D01*
Y274219D01*
X919989Y274101D01*
X919961Y273986D01*
X919916Y273878D01*
X919855Y273777D01*
X919778Y273687D01*
X919688Y273610D01*
X919587Y273549D01*
X919498Y273512D01*
Y271219D01*
X919489Y271101D01*
X919462Y270986D01*
X919416Y270877D01*
X919355Y270777D01*
X919278Y270687D01*
X919188Y270610D01*
X919088Y270549D01*
X918979Y270504D01*
X918864Y270476D01*
X918746Y270467D01*
X914746D01*
X914628Y270476D01*
X914513Y270504D01*
X914404Y270549D01*
X914304Y270610D01*
X914214Y270687D01*
X914137Y270777D01*
X914076Y270877D01*
X914031Y270986D01*
X914003Y271101D01*
X913994Y271219D01*
Y273467D01*
X912998D01*
Y271219D01*
X912989Y271101D01*
X912962Y270986D01*
X912916Y270877D01*
X912855Y270777D01*
X912778Y270687D01*
X912688Y270610D01*
X912588Y270549D01*
X912478Y270504D01*
X912364Y270476D01*
X912246Y270467D01*
X908246D01*
X908128Y270476D01*
X908014Y270504D01*
X907905Y270549D01*
X907804Y270610D01*
X907714Y270687D01*
X907637Y270777D01*
X907576Y270877D01*
X907531Y270986D01*
X907503Y271101D01*
X907494Y271219D01*
Y273467D01*
X906498D01*
Y271219D01*
X906489Y271101D01*
X906461Y270986D01*
X906416Y270877D01*
X906355Y270777D01*
X906278Y270687D01*
X906188Y270610D01*
X906087Y270549D01*
X905978Y270504D01*
X905864Y270476D01*
X905746Y270467D01*
X901746D01*
X901628Y270476D01*
X901514Y270504D01*
X901404Y270549D01*
X901304Y270610D01*
X901214Y270687D01*
X901137Y270777D01*
X901076Y270877D01*
X901031Y270986D01*
X901003Y271101D01*
X900994Y271219D01*
Y273467D01*
X899998D01*
Y271219D01*
X899989Y271101D01*
X899961Y270986D01*
X899916Y270877D01*
X899855Y270777D01*
X899778Y270687D01*
X899688Y270610D01*
X899588Y270549D01*
X899479Y270504D01*
X899364Y270476D01*
X899246Y270467D01*
X895246D01*
X895128Y270476D01*
X895014Y270504D01*
X894904Y270549D01*
X894804Y270610D01*
X894714Y270687D01*
X894637Y270777D01*
X894576Y270877D01*
X894530Y270986D01*
X894503Y271101D01*
X894494Y271219D01*
Y273512D01*
X894405Y273549D01*
X894304Y273610D01*
X894214Y273687D01*
X894137Y273777D01*
X894076Y273878D01*
X894031Y273986D01*
X894003Y274101D01*
X893994Y274219D01*
Y284817D01*
X890946D01*
X890828Y284826D01*
X890714Y284853D01*
X890604Y284899D01*
X890504Y284960D01*
X890414Y285037D01*
X890337Y285127D01*
X890276Y285228D01*
X890230Y285336D01*
X890203Y285451D01*
X890194Y285569D01*
Y289869D01*
X890203Y289987D01*
X890230Y290102D01*
X890276Y290211D01*
X890337Y290311D01*
X890414Y290401D01*
X890504Y290478D01*
X890604Y290539D01*
X890714Y290585D01*
X890828Y290612D01*
X890946Y290621D01*
X893994D01*
Y294019D01*
X894003Y294137D01*
X894031Y294251D01*
X894076Y294361D01*
X894137Y294461D01*
X894214Y294551D01*
X894304Y294628D01*
X894405Y294689D01*
X894513Y294734D01*
X894628Y294762D01*
X894746Y294771D01*
X919246D01*
X919364Y294762D01*
D02*
G37*
G36*
X882534D02*
X882648Y294734D01*
X882757Y294689D01*
X882858Y294628D01*
X882948Y294551D01*
X883025Y294461D01*
X883086Y294361D01*
X883131Y294251D01*
X883159Y294137D01*
X883168Y294019D01*
Y290621D01*
X886216D01*
X886334Y290612D01*
X886449Y290585D01*
X886558Y290539D01*
X886658Y290478D01*
X886748Y290401D01*
X886825Y290311D01*
X886886Y290211D01*
X886932Y290102D01*
X886959Y289987D01*
X886968Y289869D01*
Y285569D01*
X886959Y285451D01*
X886932Y285336D01*
X886886Y285228D01*
X886825Y285127D01*
X886748Y285037D01*
X886658Y284960D01*
X886558Y284899D01*
X886449Y284853D01*
X886334Y284826D01*
X886216Y284817D01*
X883168D01*
Y274219D01*
X883159Y274101D01*
X883131Y273986D01*
X883086Y273878D01*
X883025Y273777D01*
X882948Y273687D01*
X882858Y273610D01*
X882757Y273549D01*
X882668Y273512D01*
Y271219D01*
X882659Y271101D01*
X882632Y270986D01*
X882586Y270877D01*
X882525Y270777D01*
X882448Y270687D01*
X882358Y270610D01*
X882258Y270549D01*
X882149Y270504D01*
X882034Y270476D01*
X881916Y270467D01*
X877916D01*
X877798Y270476D01*
X877683Y270504D01*
X877574Y270549D01*
X877474Y270610D01*
X877384Y270687D01*
X877307Y270777D01*
X877246Y270877D01*
X877200Y270986D01*
X877173Y271101D01*
X877164Y271219D01*
Y273467D01*
X876168D01*
Y271219D01*
X876159Y271101D01*
X876132Y270986D01*
X876086Y270877D01*
X876025Y270777D01*
X875948Y270687D01*
X875858Y270610D01*
X875758Y270549D01*
X875648Y270504D01*
X875534Y270476D01*
X875416Y270467D01*
X871416D01*
X871298Y270476D01*
X871183Y270504D01*
X871075Y270549D01*
X870974Y270610D01*
X870884Y270687D01*
X870807Y270777D01*
X870746Y270877D01*
X870701Y270986D01*
X870673Y271101D01*
X870664Y271219D01*
Y273467D01*
X869668D01*
Y271219D01*
X869659Y271101D01*
X869632Y270986D01*
X869586Y270877D01*
X869525Y270777D01*
X869448Y270687D01*
X869358Y270610D01*
X869258Y270549D01*
X869148Y270504D01*
X869034Y270476D01*
X868916Y270467D01*
X864916D01*
X864798Y270476D01*
X864684Y270504D01*
X864574Y270549D01*
X864474Y270610D01*
X864384Y270687D01*
X864307Y270777D01*
X864246Y270877D01*
X864201Y270986D01*
X864173Y271101D01*
X864164Y271219D01*
Y273467D01*
X863168D01*
Y271219D01*
X863159Y271101D01*
X863131Y270986D01*
X863086Y270877D01*
X863025Y270777D01*
X862948Y270687D01*
X862858Y270610D01*
X862758Y270549D01*
X862648Y270504D01*
X862534Y270476D01*
X862416Y270467D01*
X858416D01*
X858298Y270476D01*
X858184Y270504D01*
X858074Y270549D01*
X857974Y270610D01*
X857884Y270687D01*
X857807Y270777D01*
X857746Y270877D01*
X857701Y270986D01*
X857673Y271101D01*
X857664Y271219D01*
Y273512D01*
X857574Y273549D01*
X857474Y273610D01*
X857384Y273687D01*
X857307Y273777D01*
X857246Y273878D01*
X857200Y273986D01*
X857173Y274101D01*
X857164Y274219D01*
Y284817D01*
X854116D01*
X853998Y284826D01*
X853884Y284853D01*
X853774Y284899D01*
X853674Y284960D01*
X853584Y285037D01*
X853507Y285127D01*
X853446Y285228D01*
X853400Y285336D01*
X853373Y285451D01*
X853364Y285569D01*
Y289869D01*
X853373Y289987D01*
X853400Y290102D01*
X853446Y290211D01*
X853507Y290311D01*
X853584Y290401D01*
X853674Y290478D01*
X853774Y290539D01*
X853884Y290585D01*
X853998Y290612D01*
X854116Y290621D01*
X857164D01*
Y294019D01*
X857173Y294137D01*
X857200Y294251D01*
X857246Y294361D01*
X857307Y294461D01*
X857384Y294551D01*
X857474Y294628D01*
X857574Y294689D01*
X857683Y294734D01*
X857798Y294762D01*
X857916Y294771D01*
X882416D01*
X882534Y294762D01*
D02*
G37*
G36*
X1038050Y294707D02*
X1038165Y294680D01*
X1038273Y294634D01*
X1038374Y294573D01*
X1038464Y294496D01*
X1038541Y294406D01*
X1038602Y294305D01*
X1038648Y294196D01*
X1038675Y294082D01*
X1038684Y293964D01*
Y290566D01*
X1041732D01*
X1041850Y290557D01*
X1041964Y290529D01*
X1042074Y290484D01*
X1042174Y290423D01*
X1042264Y290346D01*
X1042341Y290256D01*
X1042402Y290156D01*
X1042448Y290047D01*
X1042475Y289932D01*
X1042484Y289814D01*
Y285514D01*
X1042475Y285396D01*
X1042448Y285282D01*
X1042402Y285173D01*
X1042341Y285072D01*
X1042264Y284982D01*
X1042174Y284905D01*
X1042074Y284844D01*
X1041964Y284799D01*
X1041850Y284771D01*
X1041732Y284762D01*
X1038684D01*
Y274164D01*
X1038675Y274046D01*
X1038648Y273932D01*
X1038602Y273822D01*
X1038541Y273722D01*
X1038464Y273632D01*
X1038374Y273555D01*
X1038273Y273494D01*
X1038184Y273457D01*
Y271164D01*
X1038175Y271046D01*
X1038148Y270931D01*
X1038102Y270822D01*
X1038041Y270722D01*
X1037964Y270632D01*
X1037874Y270555D01*
X1037774Y270494D01*
X1037664Y270448D01*
X1037550Y270421D01*
X1037432Y270412D01*
X1033432D01*
X1033314Y270421D01*
X1033199Y270448D01*
X1033090Y270494D01*
X1032990Y270555D01*
X1032900Y270632D01*
X1032823Y270722D01*
X1032762Y270822D01*
X1032717Y270931D01*
X1032689Y271046D01*
X1032680Y271164D01*
Y273412D01*
X1031684D01*
Y271164D01*
X1031675Y271046D01*
X1031647Y270931D01*
X1031602Y270822D01*
X1031541Y270722D01*
X1031464Y270632D01*
X1031374Y270555D01*
X1031274Y270494D01*
X1031164Y270448D01*
X1031050Y270421D01*
X1030932Y270412D01*
X1026932D01*
X1026814Y270421D01*
X1026700Y270448D01*
X1026590Y270494D01*
X1026490Y270555D01*
X1026400Y270632D01*
X1026323Y270722D01*
X1026262Y270822D01*
X1026217Y270931D01*
X1026189Y271046D01*
X1026180Y271164D01*
Y273412D01*
X1025184D01*
Y271164D01*
X1025175Y271046D01*
X1025147Y270931D01*
X1025102Y270822D01*
X1025041Y270722D01*
X1024964Y270632D01*
X1024874Y270555D01*
X1024773Y270494D01*
X1024665Y270448D01*
X1024550Y270421D01*
X1024432Y270412D01*
X1020432D01*
X1020314Y270421D01*
X1020200Y270448D01*
X1020090Y270494D01*
X1019990Y270555D01*
X1019900Y270632D01*
X1019823Y270722D01*
X1019762Y270822D01*
X1019716Y270931D01*
X1019689Y271046D01*
X1019680Y271164D01*
Y273412D01*
X1018684D01*
Y271164D01*
X1018675Y271046D01*
X1018648Y270931D01*
X1018602Y270822D01*
X1018541Y270722D01*
X1018464Y270632D01*
X1018374Y270555D01*
X1018274Y270494D01*
X1018165Y270448D01*
X1018050Y270421D01*
X1017932Y270412D01*
X1013932D01*
X1013814Y270421D01*
X1013699Y270448D01*
X1013590Y270494D01*
X1013490Y270555D01*
X1013400Y270632D01*
X1013323Y270722D01*
X1013262Y270822D01*
X1013216Y270931D01*
X1013189Y271046D01*
X1013180Y271164D01*
Y273457D01*
X1013091Y273494D01*
X1012990Y273555D01*
X1012900Y273632D01*
X1012823Y273722D01*
X1012762Y273822D01*
X1012717Y273932D01*
X1012689Y274046D01*
X1012680Y274164D01*
Y284762D01*
X1009632D01*
X1009514Y284771D01*
X1009399Y284799D01*
X1009290Y284844D01*
X1009190Y284905D01*
X1009100Y284982D01*
X1009023Y285072D01*
X1008962Y285173D01*
X1008916Y285282D01*
X1008889Y285396D01*
X1008880Y285514D01*
Y289814D01*
X1008889Y289932D01*
X1008916Y290047D01*
X1008962Y290156D01*
X1009023Y290256D01*
X1009100Y290346D01*
X1009190Y290423D01*
X1009290Y290484D01*
X1009399Y290529D01*
X1009514Y290557D01*
X1009632Y290566D01*
X1012680D01*
Y293964D01*
X1012689Y294082D01*
X1012717Y294196D01*
X1012762Y294305D01*
X1012823Y294406D01*
X1012900Y294496D01*
X1012990Y294573D01*
X1013091Y294634D01*
X1013199Y294680D01*
X1013314Y294707D01*
X1013432Y294716D01*
X1037932D01*
X1038050Y294707D01*
D02*
G37*
G36*
X1001220D02*
X1001335Y294680D01*
X1001443Y294634D01*
X1001544Y294573D01*
X1001634Y294496D01*
X1001711Y294406D01*
X1001772Y294305D01*
X1001817Y294196D01*
X1001845Y294082D01*
X1001854Y293964D01*
Y290566D01*
X1004902D01*
X1005020Y290557D01*
X1005135Y290529D01*
X1005244Y290484D01*
X1005344Y290423D01*
X1005434Y290346D01*
X1005511Y290256D01*
X1005572Y290156D01*
X1005618Y290047D01*
X1005645Y289932D01*
X1005654Y289814D01*
Y285514D01*
X1005645Y285396D01*
X1005618Y285282D01*
X1005572Y285173D01*
X1005511Y285072D01*
X1005434Y284982D01*
X1005344Y284905D01*
X1005244Y284844D01*
X1005135Y284799D01*
X1005020Y284771D01*
X1004902Y284762D01*
X1001854D01*
Y274164D01*
X1001845Y274046D01*
X1001817Y273932D01*
X1001772Y273822D01*
X1001711Y273722D01*
X1001634Y273632D01*
X1001544Y273555D01*
X1001443Y273494D01*
X1001354Y273457D01*
Y271164D01*
X1001345Y271046D01*
X1001318Y270931D01*
X1001272Y270822D01*
X1001211Y270722D01*
X1001134Y270632D01*
X1001044Y270555D01*
X1000944Y270494D01*
X1000835Y270448D01*
X1000720Y270421D01*
X1000602Y270412D01*
X996602D01*
X996484Y270421D01*
X996369Y270448D01*
X996260Y270494D01*
X996160Y270555D01*
X996070Y270632D01*
X995993Y270722D01*
X995932Y270822D01*
X995887Y270931D01*
X995859Y271046D01*
X995850Y271164D01*
Y273412D01*
X994854D01*
Y271164D01*
X994845Y271046D01*
X994818Y270931D01*
X994772Y270822D01*
X994711Y270722D01*
X994634Y270632D01*
X994544Y270555D01*
X994444Y270494D01*
X994334Y270448D01*
X994220Y270421D01*
X994102Y270412D01*
X990102D01*
X989984Y270421D01*
X989870Y270448D01*
X989761Y270494D01*
X989660Y270555D01*
X989570Y270632D01*
X989493Y270722D01*
X989432Y270822D01*
X989387Y270931D01*
X989359Y271046D01*
X989350Y271164D01*
Y273412D01*
X988354D01*
Y271164D01*
X988345Y271046D01*
X988317Y270931D01*
X988272Y270822D01*
X988211Y270722D01*
X988134Y270632D01*
X988044Y270555D01*
X987943Y270494D01*
X987834Y270448D01*
X987720Y270421D01*
X987602Y270412D01*
X983602D01*
X983484Y270421D01*
X983370Y270448D01*
X983260Y270494D01*
X983160Y270555D01*
X983070Y270632D01*
X982993Y270722D01*
X982932Y270822D01*
X982887Y270931D01*
X982859Y271046D01*
X982850Y271164D01*
Y273412D01*
X981854D01*
Y271164D01*
X981845Y271046D01*
X981817Y270931D01*
X981772Y270822D01*
X981711Y270722D01*
X981634Y270632D01*
X981544Y270555D01*
X981444Y270494D01*
X981335Y270448D01*
X981220Y270421D01*
X981102Y270412D01*
X977102D01*
X976984Y270421D01*
X976870Y270448D01*
X976760Y270494D01*
X976660Y270555D01*
X976570Y270632D01*
X976493Y270722D01*
X976432Y270822D01*
X976386Y270931D01*
X976359Y271046D01*
X976350Y271164D01*
Y273457D01*
X976261Y273494D01*
X976160Y273555D01*
X976070Y273632D01*
X975993Y273722D01*
X975932Y273822D01*
X975887Y273932D01*
X975859Y274046D01*
X975850Y274164D01*
Y284762D01*
X972802D01*
X972684Y284771D01*
X972570Y284799D01*
X972460Y284844D01*
X972360Y284905D01*
X972270Y284982D01*
X972193Y285072D01*
X972132Y285173D01*
X972086Y285282D01*
X972059Y285396D01*
X972050Y285514D01*
Y289814D01*
X972059Y289932D01*
X972086Y290047D01*
X972132Y290156D01*
X972193Y290256D01*
X972270Y290346D01*
X972360Y290423D01*
X972460Y290484D01*
X972570Y290529D01*
X972684Y290557D01*
X972802Y290566D01*
X975850D01*
Y293964D01*
X975859Y294082D01*
X975887Y294196D01*
X975932Y294305D01*
X975993Y294406D01*
X976070Y294496D01*
X976160Y294573D01*
X976261Y294634D01*
X976369Y294680D01*
X976484Y294707D01*
X976602Y294716D01*
X1001102D01*
X1001220Y294707D01*
D02*
G37*
G36*
X1392380Y294619D02*
X1392495Y294592D01*
X1392603Y294546D01*
X1392704Y294485D01*
X1392794Y294408D01*
X1392871Y294318D01*
X1392932Y294217D01*
X1392977Y294109D01*
X1393005Y293994D01*
X1393014Y293876D01*
Y290478D01*
X1396062D01*
X1396180Y290469D01*
X1396295Y290441D01*
X1396404Y290396D01*
X1396504Y290335D01*
X1396594Y290258D01*
X1396671Y290168D01*
X1396732Y290068D01*
X1396777Y289958D01*
X1396805Y289844D01*
X1396814Y289726D01*
Y285426D01*
X1396805Y285308D01*
X1396777Y285194D01*
X1396732Y285084D01*
X1396671Y284984D01*
X1396594Y284894D01*
X1396504Y284817D01*
X1396404Y284756D01*
X1396295Y284711D01*
X1396180Y284683D01*
X1396062Y284674D01*
X1393014D01*
Y274076D01*
X1393005Y273958D01*
X1392977Y273843D01*
X1392932Y273734D01*
X1392871Y273634D01*
X1392794Y273544D01*
X1392704Y273467D01*
X1392603Y273406D01*
X1392514Y273369D01*
Y271076D01*
X1392505Y270958D01*
X1392478Y270844D01*
X1392432Y270735D01*
X1392371Y270634D01*
X1392294Y270544D01*
X1392204Y270467D01*
X1392103Y270406D01*
X1391994Y270361D01*
X1391880Y270333D01*
X1391762Y270324D01*
X1387762D01*
X1387644Y270333D01*
X1387529Y270361D01*
X1387420Y270406D01*
X1387320Y270467D01*
X1387230Y270544D01*
X1387153Y270634D01*
X1387092Y270735D01*
X1387047Y270844D01*
X1387019Y270958D01*
X1387010Y271076D01*
Y273324D01*
X1386014D01*
Y271076D01*
X1386005Y270958D01*
X1385977Y270844D01*
X1385932Y270735D01*
X1385871Y270634D01*
X1385794Y270544D01*
X1385704Y270467D01*
X1385604Y270406D01*
X1385495Y270361D01*
X1385380Y270333D01*
X1385262Y270324D01*
X1381262D01*
X1381144Y270333D01*
X1381030Y270361D01*
X1380921Y270406D01*
X1380820Y270467D01*
X1380730Y270544D01*
X1380653Y270634D01*
X1380592Y270735D01*
X1380547Y270844D01*
X1380519Y270958D01*
X1380510Y271076D01*
Y273324D01*
X1379514D01*
Y271076D01*
X1379505Y270958D01*
X1379478Y270844D01*
X1379432Y270735D01*
X1379371Y270634D01*
X1379294Y270544D01*
X1379204Y270467D01*
X1379104Y270406D01*
X1378994Y270361D01*
X1378880Y270333D01*
X1378762Y270324D01*
X1374762D01*
X1374644Y270333D01*
X1374530Y270361D01*
X1374420Y270406D01*
X1374320Y270467D01*
X1374230Y270544D01*
X1374153Y270634D01*
X1374092Y270735D01*
X1374046Y270844D01*
X1374019Y270958D01*
X1374010Y271076D01*
Y273324D01*
X1373014D01*
Y271076D01*
X1373005Y270958D01*
X1372977Y270844D01*
X1372932Y270735D01*
X1372871Y270634D01*
X1372794Y270544D01*
X1372704Y270467D01*
X1372604Y270406D01*
X1372495Y270361D01*
X1372380Y270333D01*
X1372262Y270324D01*
X1368262D01*
X1368144Y270333D01*
X1368029Y270361D01*
X1367921Y270406D01*
X1367820Y270467D01*
X1367730Y270544D01*
X1367653Y270634D01*
X1367592Y270735D01*
X1367547Y270844D01*
X1367519Y270958D01*
X1367510Y271076D01*
Y273369D01*
X1367421Y273406D01*
X1367320Y273467D01*
X1367230Y273544D01*
X1367153Y273634D01*
X1367092Y273734D01*
X1367047Y273843D01*
X1367019Y273958D01*
X1367010Y274076D01*
Y284674D01*
X1363962D01*
X1363844Y284683D01*
X1363730Y284711D01*
X1363620Y284756D01*
X1363520Y284817D01*
X1363430Y284894D01*
X1363353Y284984D01*
X1363292Y285084D01*
X1363246Y285194D01*
X1363219Y285308D01*
X1363210Y285426D01*
Y289726D01*
X1363219Y289844D01*
X1363246Y289958D01*
X1363292Y290068D01*
X1363353Y290168D01*
X1363430Y290258D01*
X1363520Y290335D01*
X1363620Y290396D01*
X1363730Y290441D01*
X1363844Y290469D01*
X1363962Y290478D01*
X1367010D01*
Y293876D01*
X1367019Y293994D01*
X1367047Y294109D01*
X1367092Y294217D01*
X1367153Y294318D01*
X1367230Y294408D01*
X1367320Y294485D01*
X1367421Y294546D01*
X1367529Y294592D01*
X1367644Y294619D01*
X1367762Y294628D01*
X1392262D01*
X1392380Y294619D01*
D02*
G37*
G36*
X1355550D02*
X1355665Y294592D01*
X1355773Y294546D01*
X1355874Y294485D01*
X1355964Y294408D01*
X1356041Y294318D01*
X1356102Y294217D01*
X1356147Y294109D01*
X1356175Y293994D01*
X1356184Y293876D01*
Y290478D01*
X1359232D01*
X1359350Y290469D01*
X1359465Y290441D01*
X1359574Y290396D01*
X1359674Y290335D01*
X1359764Y290258D01*
X1359841Y290168D01*
X1359902Y290068D01*
X1359948Y289958D01*
X1359975Y289844D01*
X1359984Y289726D01*
Y285426D01*
X1359975Y285308D01*
X1359948Y285194D01*
X1359902Y285084D01*
X1359841Y284984D01*
X1359764Y284894D01*
X1359674Y284817D01*
X1359574Y284756D01*
X1359465Y284711D01*
X1359350Y284683D01*
X1359232Y284674D01*
X1356184D01*
Y274076D01*
X1356175Y273958D01*
X1356147Y273843D01*
X1356102Y273734D01*
X1356041Y273634D01*
X1355964Y273544D01*
X1355874Y273467D01*
X1355773Y273406D01*
X1355684Y273369D01*
Y271076D01*
X1355675Y270958D01*
X1355647Y270844D01*
X1355602Y270735D01*
X1355541Y270634D01*
X1355464Y270544D01*
X1355374Y270467D01*
X1355273Y270406D01*
X1355164Y270361D01*
X1355050Y270333D01*
X1354932Y270324D01*
X1350932D01*
X1350814Y270333D01*
X1350699Y270361D01*
X1350590Y270406D01*
X1350490Y270467D01*
X1350400Y270544D01*
X1350323Y270634D01*
X1350262Y270735D01*
X1350217Y270844D01*
X1350189Y270958D01*
X1350180Y271076D01*
Y273324D01*
X1349184D01*
Y271076D01*
X1349175Y270958D01*
X1349147Y270844D01*
X1349102Y270735D01*
X1349041Y270634D01*
X1348964Y270544D01*
X1348874Y270467D01*
X1348774Y270406D01*
X1348665Y270361D01*
X1348550Y270333D01*
X1348432Y270324D01*
X1344432D01*
X1344314Y270333D01*
X1344200Y270361D01*
X1344091Y270406D01*
X1343990Y270467D01*
X1343900Y270544D01*
X1343823Y270634D01*
X1343762Y270735D01*
X1343716Y270844D01*
X1343689Y270958D01*
X1343680Y271076D01*
Y273324D01*
X1342684D01*
Y271076D01*
X1342675Y270958D01*
X1342648Y270844D01*
X1342602Y270735D01*
X1342541Y270634D01*
X1342464Y270544D01*
X1342374Y270467D01*
X1342274Y270406D01*
X1342164Y270361D01*
X1342050Y270333D01*
X1341932Y270324D01*
X1337932D01*
X1337814Y270333D01*
X1337699Y270361D01*
X1337590Y270406D01*
X1337490Y270467D01*
X1337400Y270544D01*
X1337323Y270634D01*
X1337262Y270735D01*
X1337216Y270844D01*
X1337189Y270958D01*
X1337180Y271076D01*
Y273324D01*
X1336184D01*
Y271076D01*
X1336175Y270958D01*
X1336147Y270844D01*
X1336102Y270735D01*
X1336041Y270634D01*
X1335964Y270544D01*
X1335874Y270467D01*
X1335774Y270406D01*
X1335665Y270361D01*
X1335550Y270333D01*
X1335432Y270324D01*
X1331432D01*
X1331314Y270333D01*
X1331199Y270361D01*
X1331091Y270406D01*
X1330990Y270467D01*
X1330900Y270544D01*
X1330823Y270634D01*
X1330762Y270735D01*
X1330717Y270844D01*
X1330689Y270958D01*
X1330680Y271076D01*
Y273369D01*
X1330591Y273406D01*
X1330490Y273467D01*
X1330400Y273544D01*
X1330323Y273634D01*
X1330262Y273734D01*
X1330217Y273843D01*
X1330189Y273958D01*
X1330180Y274076D01*
Y284674D01*
X1327132D01*
X1327014Y284683D01*
X1326900Y284711D01*
X1326790Y284756D01*
X1326690Y284817D01*
X1326600Y284894D01*
X1326523Y284984D01*
X1326462Y285084D01*
X1326416Y285194D01*
X1326389Y285308D01*
X1326380Y285426D01*
Y289726D01*
X1326389Y289844D01*
X1326416Y289958D01*
X1326462Y290068D01*
X1326523Y290168D01*
X1326600Y290258D01*
X1326690Y290335D01*
X1326790Y290396D01*
X1326900Y290441D01*
X1327014Y290469D01*
X1327132Y290478D01*
X1330180D01*
Y293876D01*
X1330189Y293994D01*
X1330217Y294109D01*
X1330262Y294217D01*
X1330323Y294318D01*
X1330400Y294408D01*
X1330490Y294485D01*
X1330591Y294546D01*
X1330699Y294592D01*
X1330814Y294619D01*
X1330932Y294628D01*
X1355432D01*
X1355550Y294619D01*
D02*
G37*
D20*
X1150096Y489592D02*
D03*
D21*
X1167906Y504592D02*
D03*
Y474592D02*
D03*
D22*
X1139180Y452318D02*
D03*
X1155296D02*
D03*
D23*
X1191006Y488004D02*
D03*
Y504120D02*
D03*
D24*
X1116292Y456692D02*
D03*
X902754Y527304D02*
D03*
D25*
X1079792Y456692D02*
D03*
X939254Y527304D02*
D03*
D26*
X1098906Y476667D02*
D03*
X1089406D02*
D03*
X1079906D02*
D03*
Y497677D02*
D03*
X1089406D02*
D03*
D27*
X1098906D02*
D03*
D28*
X638150Y774000D02*
D03*
Y766000D02*
D03*
X207750Y770250D02*
D03*
Y762250D02*
D03*
X257500Y533250D02*
D03*
Y525250D02*
D03*
X686750Y527250D02*
D03*
Y535250D02*
D03*
D30*
X990092Y570192D02*
D03*
X1116838Y504660D02*
D03*
D31*
X990092Y533692D02*
D03*
X1116838Y468160D02*
D03*
D32*
X352730Y182880D02*
D03*
X414730D02*
D03*
X154610Y226060D02*
D03*
X216610D02*
D03*
X628320Y224790D02*
D03*
X690320D02*
D03*
X61900Y182880D02*
D03*
X123900D02*
D03*
X322020Y226060D02*
D03*
X260020D02*
D03*
X887888Y182780D02*
D03*
X825888D02*
D03*
X795730Y224790D02*
D03*
X733730D02*
D03*
X535058Y182780D02*
D03*
X597058D02*
D03*
X1007820Y181982D02*
D03*
X1069820D02*
D03*
X1100530Y225162D02*
D03*
X1162530D02*
D03*
X1267940D02*
D03*
X1205940D02*
D03*
X1360650Y181982D02*
D03*
X1298650D02*
D03*
D33*
X236800Y722500D02*
D03*
X224100D02*
D03*
X211400D02*
D03*
X198700D02*
D03*
X186000D02*
D03*
X173300D02*
D03*
X160600D02*
D03*
X147900D02*
D03*
X135200D02*
D03*
Y628500D02*
D03*
X147900D02*
D03*
X160600D02*
D03*
X173300D02*
D03*
X186000D02*
D03*
X198700D02*
D03*
X211400D02*
D03*
X224100D02*
D03*
X236800D02*
D03*
X667200Y632250D02*
D03*
X654500D02*
D03*
X641800D02*
D03*
X629100D02*
D03*
X616400D02*
D03*
X603700D02*
D03*
X591000D02*
D03*
X578300D02*
D03*
X565600D02*
D03*
Y726250D02*
D03*
X578300D02*
D03*
X591000D02*
D03*
X603700D02*
D03*
X616400D02*
D03*
X629100D02*
D03*
X641800D02*
D03*
X654500D02*
D03*
X667200D02*
D03*
D34*
X242500Y583508D02*
D03*
Y566992D02*
D03*
X322500Y584508D02*
D03*
Y567992D02*
D03*
X671750Y568992D02*
D03*
Y585508D02*
D03*
X751750Y569992D02*
D03*
Y586508D02*
D03*
D35*
X311500Y506750D02*
D03*
Y521750D02*
D03*
X740830Y524000D02*
D03*
Y509000D02*
D03*
D36*
X282500Y548250D02*
D03*
Y584250D02*
D03*
X711750Y586250D02*
D03*
Y550250D02*
D03*
D37*
X273000Y503255D02*
D03*
X282500D02*
D03*
X292000D02*
D03*
Y525245D02*
D03*
X282500D02*
D03*
X273000D02*
D03*
X702250Y527245D02*
D03*
X711750D02*
D03*
X721250D02*
D03*
Y505255D02*
D03*
X711750D02*
D03*
X702250D02*
D03*
D39*
X270042Y606500D02*
D03*
X254005D02*
D03*
X685981Y610250D02*
D03*
X702019D02*
D03*
D41*
X1099250Y663250D02*
D03*
Y669750D02*
D03*
Y676250D02*
D03*
Y682750D02*
D03*
X1055300Y663250D02*
D03*
Y669750D02*
D03*
Y676250D02*
D03*
Y682750D02*
D03*
X1038300Y682875D02*
D03*
Y676375D02*
D03*
Y669875D02*
D03*
Y663375D02*
D03*
X1099250Y700125D02*
D03*
Y706625D02*
D03*
Y713125D02*
D03*
Y719625D02*
D03*
X1055300Y700250D02*
D03*
Y706750D02*
D03*
Y713250D02*
D03*
Y719750D02*
D03*
X1038300D02*
D03*
Y713250D02*
D03*
Y706750D02*
D03*
Y700250D02*
D03*
X1052250Y590500D02*
D03*
Y584000D02*
D03*
Y577500D02*
D03*
Y571000D02*
D03*
X1068250Y571500D02*
D03*
Y578000D02*
D03*
Y584500D02*
D03*
Y591000D02*
D03*
X1112250Y534500D02*
D03*
Y541000D02*
D03*
Y547500D02*
D03*
Y554000D02*
D03*
X1052250Y553710D02*
D03*
Y547210D02*
D03*
Y540710D02*
D03*
Y534210D02*
D03*
X1068250Y534500D02*
D03*
Y541000D02*
D03*
Y547500D02*
D03*
Y554000D02*
D03*
X1112250Y571500D02*
D03*
Y578000D02*
D03*
Y584500D02*
D03*
Y591000D02*
D03*
D42*
X1144700Y691500D02*
D03*
X1193800D02*
D03*
X1157700Y563000D02*
D03*
X1206800D02*
D03*
D45*
X1038500Y634500D02*
D03*
Y628000D02*
D03*
Y621500D02*
D03*
X1019500D02*
D03*
Y628000D02*
D03*
Y634500D02*
D03*
D46*
X150022Y350380D02*
D03*
X156522D02*
D03*
X163022D02*
D03*
X169522D02*
D03*
X186852D02*
D03*
X193352D02*
D03*
X199852D02*
D03*
X206352D02*
D03*
X33690Y302220D02*
D03*
X40190D02*
D03*
X46690D02*
D03*
X53190D02*
D03*
X70520D02*
D03*
X77020D02*
D03*
X83520D02*
D03*
X90020D02*
D03*
X270805Y350962D02*
D03*
X277305D02*
D03*
X283805D02*
D03*
X290305D02*
D03*
X307635D02*
D03*
X314135D02*
D03*
X320635D02*
D03*
X327135D02*
D03*
X424475Y302702D02*
D03*
X430975D02*
D03*
X437475D02*
D03*
X443975D02*
D03*
X387645D02*
D03*
X394145D02*
D03*
X400645D02*
D03*
X407145D02*
D03*
X624450Y349164D02*
D03*
X630950D02*
D03*
X637450D02*
D03*
X643950D02*
D03*
X661280D02*
D03*
X667780D02*
D03*
X674280D02*
D03*
X680780D02*
D03*
X506340Y302174D02*
D03*
X512840D02*
D03*
X519340D02*
D03*
X525840D02*
D03*
X543170D02*
D03*
X549670D02*
D03*
X556170D02*
D03*
X562670D02*
D03*
X743963Y349592D02*
D03*
X750463D02*
D03*
X756963D02*
D03*
X763463D02*
D03*
X780793D02*
D03*
X787293D02*
D03*
X793793D02*
D03*
X800293D02*
D03*
X897246Y301719D02*
D03*
X903746D02*
D03*
X910246D02*
D03*
X916746D02*
D03*
X860416D02*
D03*
X866916D02*
D03*
X873416D02*
D03*
X879916D02*
D03*
X1015932Y301664D02*
D03*
X1022432D02*
D03*
X1028932D02*
D03*
X1035432D02*
D03*
X979102D02*
D03*
X985602D02*
D03*
X992102D02*
D03*
X998602D02*
D03*
X1132906Y350306D02*
D03*
X1139406D02*
D03*
X1145906D02*
D03*
X1152406D02*
D03*
X1096076D02*
D03*
X1102576D02*
D03*
X1109076D02*
D03*
X1115576D02*
D03*
X1253422Y351194D02*
D03*
X1259922D02*
D03*
X1266422D02*
D03*
X1272922D02*
D03*
X1216592D02*
D03*
X1223092D02*
D03*
X1229592D02*
D03*
X1236092D02*
D03*
X1370262Y301576D02*
D03*
X1376762D02*
D03*
X1383262D02*
D03*
X1389762D02*
D03*
X1333432D02*
D03*
X1339932D02*
D03*
X1346432D02*
D03*
X1352932D02*
D03*
D47*
X182712Y400560D02*
D03*
X176212D02*
D03*
X169712D02*
D03*
Y381560D02*
D03*
X176212D02*
D03*
X182712D02*
D03*
X66380Y352400D02*
D03*
X59880D02*
D03*
X53380D02*
D03*
Y333400D02*
D03*
X59880D02*
D03*
X66380D02*
D03*
X303495Y401142D02*
D03*
X296995D02*
D03*
X290495D02*
D03*
Y382142D02*
D03*
X296995D02*
D03*
X303495D02*
D03*
X420335Y352882D02*
D03*
X413835D02*
D03*
X407335D02*
D03*
Y333882D02*
D03*
X413835D02*
D03*
X420335D02*
D03*
X657140Y399344D02*
D03*
X650640D02*
D03*
X644140D02*
D03*
Y380344D02*
D03*
X650640D02*
D03*
X657140D02*
D03*
X893106Y351899D02*
D03*
X886606D02*
D03*
X880106D02*
D03*
Y332899D02*
D03*
X886606D02*
D03*
X893106D02*
D03*
X776653Y399772D02*
D03*
X770153D02*
D03*
X763653D02*
D03*
Y380772D02*
D03*
X770153D02*
D03*
X776653D02*
D03*
X539030Y352354D02*
D03*
X532530D02*
D03*
X526030D02*
D03*
Y333354D02*
D03*
X532530D02*
D03*
X539030D02*
D03*
X1011792Y351844D02*
D03*
X1005292D02*
D03*
X998792D02*
D03*
Y332844D02*
D03*
X1005292D02*
D03*
X1011792D02*
D03*
X1128766Y400486D02*
D03*
X1122266D02*
D03*
X1115766D02*
D03*
Y381486D02*
D03*
X1122266D02*
D03*
X1128766D02*
D03*
X1249282Y401374D02*
D03*
X1242782D02*
D03*
X1236282D02*
D03*
Y382374D02*
D03*
X1242782D02*
D03*
X1249282D02*
D03*
X1366122Y351756D02*
D03*
X1359622D02*
D03*
X1353122D02*
D03*
Y332756D02*
D03*
X1359622D02*
D03*
X1366122D02*
D03*
D48*
X844100Y458700D02*
D03*
Y484100D02*
D03*
Y509500D02*
D03*
Y534900D02*
D03*
Y560300D02*
D03*
Y585700D02*
D03*
Y611100D02*
D03*
Y636500D02*
D03*
Y661900D02*
D03*
Y687300D02*
D03*
Y712700D02*
D03*
Y738100D02*
D03*
Y763500D02*
D03*
Y788900D02*
D03*
Y814300D02*
D03*
Y839700D02*
D03*
Y865100D02*
D03*
Y890500D02*
D03*
Y915900D02*
D03*
Y941300D02*
D03*
X785900Y458700D02*
D03*
Y484100D02*
D03*
Y509500D02*
D03*
Y534900D02*
D03*
Y560300D02*
D03*
Y585700D02*
D03*
Y611100D02*
D03*
Y636500D02*
D03*
Y661900D02*
D03*
Y687300D02*
D03*
Y712700D02*
D03*
Y738100D02*
D03*
Y763500D02*
D03*
Y788900D02*
D03*
Y814300D02*
D03*
Y839700D02*
D03*
Y865100D02*
D03*
Y890500D02*
D03*
Y915900D02*
D03*
Y941300D02*
D03*
X514100Y458700D02*
D03*
Y484100D02*
D03*
Y509500D02*
D03*
Y534900D02*
D03*
Y560300D02*
D03*
Y585700D02*
D03*
Y611100D02*
D03*
Y636500D02*
D03*
Y661900D02*
D03*
Y687300D02*
D03*
Y712700D02*
D03*
Y738100D02*
D03*
Y763500D02*
D03*
Y788900D02*
D03*
Y814300D02*
D03*
Y839700D02*
D03*
Y865100D02*
D03*
Y890500D02*
D03*
Y915900D02*
D03*
Y941300D02*
D03*
X455900Y458700D02*
D03*
Y484100D02*
D03*
Y509500D02*
D03*
Y534900D02*
D03*
Y560300D02*
D03*
Y585700D02*
D03*
Y611100D02*
D03*
Y636500D02*
D03*
Y661900D02*
D03*
Y687300D02*
D03*
Y712700D02*
D03*
Y738100D02*
D03*
Y763500D02*
D03*
Y788900D02*
D03*
Y814300D02*
D03*
Y839700D02*
D03*
Y865100D02*
D03*
Y890500D02*
D03*
Y915900D02*
D03*
Y941300D02*
D03*
X414100Y458700D02*
D03*
Y484100D02*
D03*
Y509500D02*
D03*
Y534900D02*
D03*
Y560300D02*
D03*
Y585700D02*
D03*
Y611100D02*
D03*
Y636500D02*
D03*
Y661900D02*
D03*
Y687300D02*
D03*
Y712700D02*
D03*
Y738100D02*
D03*
Y763500D02*
D03*
Y788900D02*
D03*
Y814300D02*
D03*
Y839700D02*
D03*
Y865100D02*
D03*
Y890500D02*
D03*
Y915900D02*
D03*
Y941300D02*
D03*
X355900Y458700D02*
D03*
Y484100D02*
D03*
Y509500D02*
D03*
Y534900D02*
D03*
Y560300D02*
D03*
Y585700D02*
D03*
Y611100D02*
D03*
Y636500D02*
D03*
Y661900D02*
D03*
Y687300D02*
D03*
Y712700D02*
D03*
Y738100D02*
D03*
Y763500D02*
D03*
Y788900D02*
D03*
Y814300D02*
D03*
Y839700D02*
D03*
Y865100D02*
D03*
Y890500D02*
D03*
Y915900D02*
D03*
Y941300D02*
D03*
X84100Y458700D02*
D03*
Y484100D02*
D03*
Y509500D02*
D03*
Y534900D02*
D03*
Y560300D02*
D03*
Y585700D02*
D03*
Y611100D02*
D03*
Y636500D02*
D03*
Y661900D02*
D03*
Y687300D02*
D03*
Y712700D02*
D03*
Y738100D02*
D03*
Y763500D02*
D03*
Y788900D02*
D03*
Y814300D02*
D03*
Y839700D02*
D03*
Y865100D02*
D03*
Y890500D02*
D03*
Y915900D02*
D03*
Y941300D02*
D03*
X25900Y458700D02*
D03*
Y484100D02*
D03*
Y509500D02*
D03*
Y534900D02*
D03*
Y560300D02*
D03*
Y585700D02*
D03*
Y611100D02*
D03*
Y636500D02*
D03*
Y661900D02*
D03*
Y687300D02*
D03*
Y712700D02*
D03*
Y738100D02*
D03*
Y763500D02*
D03*
Y788900D02*
D03*
Y814300D02*
D03*
Y839700D02*
D03*
Y865100D02*
D03*
Y890500D02*
D03*
Y915900D02*
D03*
Y941300D02*
D03*
D49*
X311000Y650481D02*
D03*
Y666519D02*
D03*
Y702519D02*
D03*
Y686481D02*
D03*
X742000Y656231D02*
D03*
Y672269D02*
D03*
Y705269D02*
D03*
Y689231D02*
D03*
D51*
X866252Y559248D02*
D03*
Y546748D02*
D03*
X1001000Y605750D02*
D03*
Y618250D02*
D03*
D52*
X893296Y622554D02*
D03*
Y609854D02*
D03*
Y597154D02*
D03*
Y584454D02*
D03*
Y571754D02*
D03*
Y559054D02*
D03*
Y546354D02*
D03*
X945796Y622554D02*
D03*
Y609854D02*
D03*
Y597154D02*
D03*
Y584454D02*
D03*
Y571754D02*
D03*
Y559054D02*
D03*
Y546354D02*
D03*
D53*
X1066292Y497736D02*
D03*
Y484736D02*
D03*
X878190Y545990D02*
D03*
Y558990D02*
D03*
X960418Y590950D02*
D03*
Y577950D02*
D03*
X963720Y554628D02*
D03*
Y541628D02*
D03*
X866252Y582612D02*
D03*
Y569612D02*
D03*
X878190Y582612D02*
D03*
Y569612D02*
D03*
X973118Y590950D02*
D03*
Y577950D02*
D03*
X997144Y702750D02*
D03*
Y715750D02*
D03*
X981144Y702750D02*
D03*
Y715750D02*
D03*
X975868Y554632D02*
D03*
Y541632D02*
D03*
X1051000Y627500D02*
D03*
Y614500D02*
D03*
X196532Y400100D02*
D03*
Y387100D02*
D03*
X80200Y351940D02*
D03*
Y338940D02*
D03*
X317315Y400682D02*
D03*
Y387682D02*
D03*
X434155Y352422D02*
D03*
Y339422D02*
D03*
X670960Y398884D02*
D03*
Y385884D02*
D03*
X906926Y351439D02*
D03*
Y338439D02*
D03*
X552850Y351894D02*
D03*
Y338894D02*
D03*
X790473Y399312D02*
D03*
Y386312D02*
D03*
X1025612Y351384D02*
D03*
Y338384D02*
D03*
X1142586Y400026D02*
D03*
Y387026D02*
D03*
X1263102Y400914D02*
D03*
Y387914D02*
D03*
X1379942Y351296D02*
D03*
Y338296D02*
D03*
X988000Y605500D02*
D03*
Y618500D02*
D03*
X1069000Y605500D02*
D03*
Y618500D02*
D03*
X1001000Y628500D02*
D03*
Y641500D02*
D03*
X965843Y612172D02*
D03*
Y625172D02*
D03*
X977590Y612200D02*
D03*
Y625200D02*
D03*
X535500Y903000D02*
D03*
Y916000D02*
D03*
X107000Y903000D02*
D03*
Y916000D02*
D03*
D54*
X975808Y566162D02*
D03*
X962808D02*
D03*
X735250Y791500D02*
D03*
X722250D02*
D03*
X937620Y637032D02*
D03*
X924620D02*
D03*
X901506D02*
D03*
X914506D02*
D03*
X1079604Y440944D02*
D03*
X1092604D02*
D03*
X240000Y801000D02*
D03*
X253000D02*
D03*
X1056500Y647000D02*
D03*
X1043500D02*
D03*
X163662Y365660D02*
D03*
X150662D02*
D03*
X200492D02*
D03*
X187492D02*
D03*
X84160Y317500D02*
D03*
X71160D02*
D03*
X47330D02*
D03*
X34330D02*
D03*
X284445Y366242D02*
D03*
X271445D02*
D03*
X321275D02*
D03*
X308275D02*
D03*
X401285Y317982D02*
D03*
X388285D02*
D03*
X438115D02*
D03*
X425115D02*
D03*
X638090Y364444D02*
D03*
X625090D02*
D03*
X674920D02*
D03*
X661920D02*
D03*
X874056Y316999D02*
D03*
X861056D02*
D03*
X910886D02*
D03*
X897886D02*
D03*
X519980Y317454D02*
D03*
X506980D02*
D03*
X757603Y364872D02*
D03*
X744603D02*
D03*
X794433D02*
D03*
X781433D02*
D03*
X556810Y317454D02*
D03*
X543810D02*
D03*
X1029572Y316944D02*
D03*
X1016572D02*
D03*
X992742D02*
D03*
X979742D02*
D03*
X1146546Y365586D02*
D03*
X1133546D02*
D03*
X1109716D02*
D03*
X1096716D02*
D03*
X1267062Y366474D02*
D03*
X1254062D02*
D03*
X1230232D02*
D03*
X1217232D02*
D03*
X1383902Y316856D02*
D03*
X1370902D02*
D03*
X1347072D02*
D03*
X1334072D02*
D03*
X1124750Y610000D02*
D03*
X1137750D02*
D03*
X1112500Y644000D02*
D03*
X1125500D02*
D03*
X236500Y606500D02*
D03*
X223500D02*
D03*
X667500Y610250D02*
D03*
X654500D02*
D03*
D55*
X654400Y791550D02*
D03*
Y778850D02*
D03*
Y766150D02*
D03*
Y753450D02*
D03*
X708400Y791550D02*
D03*
Y778850D02*
D03*
Y766150D02*
D03*
Y753450D02*
D03*
X224000Y787800D02*
D03*
Y775100D02*
D03*
Y762400D02*
D03*
Y749700D02*
D03*
X278000Y787800D02*
D03*
Y775100D02*
D03*
Y762400D02*
D03*
Y749700D02*
D03*
D56*
X650400Y444200D02*
D03*
Y498600D02*
D03*
X625000Y444200D02*
D03*
Y498600D02*
D03*
X599600Y444200D02*
D03*
Y498600D02*
D03*
X169600D02*
D03*
Y444200D02*
D03*
X195000Y498600D02*
D03*
Y444200D02*
D03*
X220400Y498600D02*
D03*
Y444200D02*
D03*
D57*
X1229750Y414000D02*
D03*
X1242250D02*
D03*
X1018750Y608000D02*
D03*
X1031250D02*
D03*
X46750Y365000D02*
D03*
X59250D02*
D03*
X162750Y413000D02*
D03*
X175250D02*
D03*
X283750D02*
D03*
X296250D02*
D03*
X400750Y365000D02*
D03*
X413250D02*
D03*
X519750Y364000D02*
D03*
X532250D02*
D03*
X637750Y411000D02*
D03*
X650250D02*
D03*
X756750Y412000D02*
D03*
X769250D02*
D03*
X872750Y364000D02*
D03*
X885250D02*
D03*
X991750D02*
D03*
X1004250D02*
D03*
X1108750Y413000D02*
D03*
X1121250D02*
D03*
X1345750Y364000D02*
D03*
X1358250D02*
D03*
D58*
X1100350Y644000D02*
D03*
X1067650D02*
D03*
X1113600Y610000D02*
D03*
X1080900D02*
D03*
D59*
X997144Y677750D02*
D03*
Y691250D02*
D03*
X981144Y677750D02*
D03*
Y691250D02*
D03*
X965843Y650422D02*
D03*
Y636922D02*
D03*
X977590Y650450D02*
D03*
Y636950D02*
D03*
D60*
X159315Y260386D02*
D03*
Y304386D02*
D03*
X196399Y260132D02*
D03*
Y304132D02*
D03*
X42983Y212226D02*
D03*
Y256226D02*
D03*
X80067Y211972D02*
D03*
Y255972D02*
D03*
X280098Y260968D02*
D03*
Y304968D02*
D03*
X317182Y260714D02*
D03*
Y304714D02*
D03*
X434022Y212454D02*
D03*
Y256454D02*
D03*
X396938Y212708D02*
D03*
Y256708D02*
D03*
X633743Y259170D02*
D03*
Y303170D02*
D03*
X670827Y258916D02*
D03*
Y302916D02*
D03*
X906793Y211471D02*
D03*
Y255471D02*
D03*
X552717Y211926D02*
D03*
Y255926D02*
D03*
X753256Y259598D02*
D03*
Y303598D02*
D03*
X869709Y211725D02*
D03*
Y255725D02*
D03*
X790340Y259344D02*
D03*
Y303344D02*
D03*
X515633Y212180D02*
D03*
Y256180D02*
D03*
X1025479Y211416D02*
D03*
Y255416D02*
D03*
X988395Y211670D02*
D03*
Y255670D02*
D03*
X1142453Y260058D02*
D03*
Y304058D02*
D03*
X1105369Y260312D02*
D03*
Y304312D02*
D03*
X1262969Y260946D02*
D03*
Y304946D02*
D03*
X1225885Y261200D02*
D03*
Y305200D02*
D03*
X1379809Y211328D02*
D03*
Y255328D02*
D03*
X1342725Y211582D02*
D03*
Y255582D02*
D03*
D61*
X918500Y881000D02*
D03*
X901500D02*
D03*
D62*
X895000Y906800D02*
D03*
D63*
X925000D02*
D03*
D64*
X910000Y950000D02*
D03*
X1004080Y927880D02*
D03*
X1088080D02*
D03*
X1350770Y457000D02*
D03*
Y583000D02*
D03*
X648390Y71850D02*
D03*
X774390D02*
D03*
X301450D02*
D03*
X175450D02*
D03*
X1155300Y927880D02*
D03*
X1239300D02*
D03*
X1306520D02*
D03*
X1390520D02*
D03*
X1121100Y71492D02*
D03*
X1247100D02*
D03*
D65*
X1004080Y854880D02*
D03*
X774390Y144850D02*
D03*
X301450D02*
D03*
X1155300Y854880D02*
D03*
X1306520D02*
D03*
X1247100Y144492D02*
D03*
D66*
X1046080Y854880D02*
D03*
X1088080D02*
D03*
X1004080Y812880D02*
D03*
X1046080D02*
D03*
X1088080D02*
D03*
X1235770Y457000D02*
D03*
Y499000D02*
D03*
Y541000D02*
D03*
Y583000D02*
D03*
X1277770Y457000D02*
D03*
Y499000D02*
D03*
Y541000D02*
D03*
X648390Y186850D02*
D03*
X690390D02*
D03*
X732390D02*
D03*
X774390D02*
D03*
X648390Y144850D02*
D03*
X690390D02*
D03*
X732390D02*
D03*
X259450D02*
D03*
X217450D02*
D03*
X175450D02*
D03*
X301450Y186850D02*
D03*
X259450D02*
D03*
X217450D02*
D03*
X175450D02*
D03*
X1197300Y854880D02*
D03*
X1239300D02*
D03*
X1155300Y812880D02*
D03*
X1197300D02*
D03*
X1239300D02*
D03*
X1348520Y854880D02*
D03*
X1390520D02*
D03*
X1306520Y812880D02*
D03*
X1348520D02*
D03*
X1390520D02*
D03*
X1121100Y186492D02*
D03*
X1163100D02*
D03*
X1205100D02*
D03*
X1247100D02*
D03*
X1121100Y144492D02*
D03*
X1163100D02*
D03*
X1205100D02*
D03*
D67*
X1222234Y691205D02*
D03*
Y649295D02*
D03*
X1277352D02*
D03*
D68*
Y691205D02*
D03*
D69*
X1350250Y670250D02*
D03*
D70*
X1277770Y583000D02*
D03*
D71*
X802300Y865100D02*
D03*
Y839700D02*
D03*
Y814300D02*
D03*
Y788900D02*
D03*
Y763500D02*
D03*
Y738100D02*
D03*
Y712700D02*
D03*
Y687300D02*
D03*
Y661900D02*
D03*
Y636500D02*
D03*
Y611100D02*
D03*
Y585700D02*
D03*
Y560300D02*
D03*
Y534900D02*
D03*
Y509500D02*
D03*
Y484100D02*
D03*
Y458700D02*
D03*
Y941300D02*
D03*
Y915900D02*
D03*
Y890500D02*
D03*
X827700Y941300D02*
D03*
Y915900D02*
D03*
Y890500D02*
D03*
Y865100D02*
D03*
Y839700D02*
D03*
Y814300D02*
D03*
Y788900D02*
D03*
Y763500D02*
D03*
Y738100D02*
D03*
Y712700D02*
D03*
Y687300D02*
D03*
Y661900D02*
D03*
Y636500D02*
D03*
Y611100D02*
D03*
Y585700D02*
D03*
Y560300D02*
D03*
Y534900D02*
D03*
Y509500D02*
D03*
Y484100D02*
D03*
Y458700D02*
D03*
X472300Y865100D02*
D03*
Y839700D02*
D03*
Y814300D02*
D03*
Y788900D02*
D03*
Y763500D02*
D03*
Y738100D02*
D03*
Y712700D02*
D03*
Y687300D02*
D03*
Y661900D02*
D03*
Y636500D02*
D03*
Y611100D02*
D03*
Y585700D02*
D03*
Y560300D02*
D03*
Y534900D02*
D03*
Y509500D02*
D03*
Y484100D02*
D03*
Y458700D02*
D03*
Y941300D02*
D03*
Y915900D02*
D03*
Y890500D02*
D03*
X497700Y941300D02*
D03*
Y915900D02*
D03*
Y890500D02*
D03*
Y865100D02*
D03*
Y839700D02*
D03*
Y814300D02*
D03*
Y788900D02*
D03*
Y763500D02*
D03*
Y738100D02*
D03*
Y712700D02*
D03*
Y687300D02*
D03*
Y661900D02*
D03*
Y636500D02*
D03*
Y611100D02*
D03*
Y585700D02*
D03*
Y560300D02*
D03*
Y534900D02*
D03*
Y509500D02*
D03*
Y484100D02*
D03*
Y458700D02*
D03*
X372300Y865100D02*
D03*
Y839700D02*
D03*
Y814300D02*
D03*
Y788900D02*
D03*
Y763500D02*
D03*
Y738100D02*
D03*
Y712700D02*
D03*
Y687300D02*
D03*
Y661900D02*
D03*
Y636500D02*
D03*
Y611100D02*
D03*
Y585700D02*
D03*
Y560300D02*
D03*
Y534900D02*
D03*
Y509500D02*
D03*
Y484100D02*
D03*
Y458700D02*
D03*
Y941300D02*
D03*
Y915900D02*
D03*
Y890500D02*
D03*
X397700Y941300D02*
D03*
Y915900D02*
D03*
Y890500D02*
D03*
Y865100D02*
D03*
Y839700D02*
D03*
Y814300D02*
D03*
Y788900D02*
D03*
Y763500D02*
D03*
Y738100D02*
D03*
Y712700D02*
D03*
Y687300D02*
D03*
Y661900D02*
D03*
Y636500D02*
D03*
Y611100D02*
D03*
Y585700D02*
D03*
Y560300D02*
D03*
Y534900D02*
D03*
Y509500D02*
D03*
Y484100D02*
D03*
Y458700D02*
D03*
X42300Y865100D02*
D03*
Y839700D02*
D03*
Y814300D02*
D03*
Y788900D02*
D03*
Y763500D02*
D03*
Y738100D02*
D03*
Y712700D02*
D03*
Y687300D02*
D03*
Y661900D02*
D03*
Y636500D02*
D03*
Y611100D02*
D03*
Y585700D02*
D03*
Y560300D02*
D03*
Y534900D02*
D03*
Y509500D02*
D03*
Y484100D02*
D03*
Y458700D02*
D03*
Y941300D02*
D03*
Y915900D02*
D03*
Y890500D02*
D03*
X67700Y941300D02*
D03*
Y915900D02*
D03*
Y890500D02*
D03*
Y865100D02*
D03*
Y839700D02*
D03*
Y814300D02*
D03*
Y788900D02*
D03*
Y763500D02*
D03*
Y738100D02*
D03*
Y712700D02*
D03*
Y687300D02*
D03*
Y661900D02*
D03*
Y636500D02*
D03*
Y611100D02*
D03*
Y585700D02*
D03*
Y560300D02*
D03*
Y534900D02*
D03*
Y509500D02*
D03*
Y484100D02*
D03*
Y458700D02*
D03*
D72*
X815000Y928600D02*
D03*
Y471400D02*
D03*
X485000Y928600D02*
D03*
Y471400D02*
D03*
X385000Y928600D02*
D03*
Y471400D02*
D03*
X55000Y928600D02*
D03*
Y471400D02*
D03*
D73*
X274000Y700900D02*
D03*
X705000Y704650D02*
D03*
D74*
X274000Y652100D02*
D03*
X705000Y655850D02*
D03*
D75*
X927100Y261620D02*
D03*
X865886Y538774D02*
D03*
X898271Y637032D02*
D03*
X945896D02*
D03*
X414100Y814300D02*
D03*
X514100Y814578D02*
D03*
Y839700D02*
D03*
X743500Y791500D02*
D03*
X785900Y839700D02*
D03*
X844100D02*
D03*
Y788900D02*
D03*
X998982Y592836D02*
D03*
X919734Y588010D02*
D03*
X985520Y584454D02*
D03*
X1139180Y452318D02*
D03*
X1150096Y489592D02*
D03*
X1071460Y509436D02*
D03*
X20320Y278892D02*
D03*
X123190Y264160D02*
D03*
X100330Y261366D02*
D03*
X454406Y262128D02*
D03*
X589090Y274384D02*
D03*
X484250Y275250D02*
D03*
X465750Y276250D02*
D03*
X691388Y308610D02*
D03*
X702056Y323596D02*
D03*
X596900Y313182D02*
D03*
X1175258Y322580D02*
D03*
X1194562Y322834D02*
D03*
X1299250Y319500D02*
D03*
X1205230Y310388D02*
D03*
X1310000Y275250D02*
D03*
X1321816Y260858D02*
D03*
X810768Y309372D02*
D03*
X722884Y323088D02*
D03*
X638000Y789250D02*
D03*
X623250Y764000D02*
D03*
X194000Y758500D02*
D03*
X207750Y778250D02*
D03*
X554500Y789000D02*
D03*
X1164176Y309706D02*
D03*
X1072000Y320250D02*
D03*
X906926Y330969D02*
D03*
X958500Y272500D02*
D03*
X1053750Y274750D02*
D03*
X242500Y560719D02*
D03*
X836500Y270750D02*
D03*
X939250Y271750D02*
D03*
X84100Y687300D02*
D03*
X317250Y379500D02*
D03*
X757453Y355982D02*
D03*
X825500Y318500D02*
D03*
X844100Y534900D02*
D03*
X1032650Y543960D02*
D03*
X1142586Y379556D02*
D03*
X1146396Y356696D02*
D03*
X1263172Y332094D02*
D03*
X1400000Y330500D02*
D03*
X790543Y330492D02*
D03*
X670960Y378414D02*
D03*
X671030Y330064D02*
D03*
X674770Y355554D02*
D03*
X84100Y636500D02*
D03*
Y661900D02*
D03*
X556660Y308564D02*
D03*
X519830D02*
D03*
X84100Y611100D02*
D03*
X126000Y314000D02*
D03*
X363500Y266000D02*
D03*
X377250Y262250D02*
D03*
X351421Y314377D02*
D03*
X338000Y310500D02*
D03*
X249250Y323750D02*
D03*
X260135Y310500D02*
D03*
X216692Y309750D02*
D03*
X230000Y314000D02*
D03*
X139225Y309500D02*
D03*
X552850Y331424D02*
D03*
X169600Y444200D02*
D03*
X322500Y561719D02*
D03*
X311000Y676500D02*
D03*
X279500Y606500D02*
D03*
X965962Y604012D02*
D03*
X25900Y865100D02*
D03*
X757860Y470000D02*
D03*
X721250Y509248D02*
D03*
X455900Y483860D02*
D03*
X514100D02*
D03*
X785900Y484100D02*
D03*
X844100Y458700D02*
D03*
X414100D02*
D03*
X414100Y484080D02*
D03*
X844100Y484100D02*
D03*
X84100Y814300D02*
D03*
Y839700D02*
D03*
X455900D02*
D03*
X355900D02*
D03*
X414100D02*
D03*
X553000Y448000D02*
D03*
X539750Y474000D02*
D03*
X1019200Y673125D02*
D03*
X844100Y661860D02*
D03*
X1403000Y272500D02*
D03*
X566250Y176750D02*
D03*
X447000Y177250D02*
D03*
X1039750Y175750D02*
D03*
X710500Y610250D02*
D03*
X514100Y509500D02*
D03*
X455900D02*
D03*
X514100Y560300D02*
D03*
X455900D02*
D03*
X671750Y563140D02*
D03*
X751750Y563719D02*
D03*
X676000Y610250D02*
D03*
X742000Y680110D02*
D03*
X414100Y661900D02*
D03*
X455900D02*
D03*
X514100D02*
D03*
X414100Y687300D02*
D03*
X514100Y687320D02*
D03*
X455900Y687300D02*
D03*
X565750Y714000D02*
D03*
X785900Y763500D02*
D03*
X300500Y505250D02*
D03*
X414100Y534900D02*
D03*
X355900D02*
D03*
X245252Y606500D02*
D03*
X84100Y712700D02*
D03*
X135000Y737140D02*
D03*
X414100Y763500D02*
D03*
X355900D02*
D03*
X282500Y584250D02*
D03*
X311500Y526500D02*
D03*
X599600Y444200D02*
D03*
X1033150Y580750D02*
D03*
X844100Y636500D02*
D03*
X455900Y534900D02*
D03*
X514100D02*
D03*
X785900D02*
D03*
Y560300D02*
D03*
X514100Y585743D02*
D03*
X785900Y585700D02*
D03*
X514100Y636640D02*
D03*
X785900Y687320D02*
D03*
X414100Y712700D02*
D03*
X455900Y738100D02*
D03*
X514100D02*
D03*
X785900D02*
D03*
X414100Y738140D02*
D03*
X455900Y763500D02*
D03*
Y788900D02*
D03*
X514100D02*
D03*
X455900Y814300D02*
D03*
X785900Y814390D02*
D03*
X355900Y509500D02*
D03*
Y484100D02*
D03*
Y611100D02*
D03*
X414100D02*
D03*
X455900D02*
D03*
X355900Y636500D02*
D03*
X414100D02*
D03*
X455900D02*
D03*
X355900Y661900D02*
D03*
Y712700D02*
D03*
X455900D02*
D03*
X355900Y738140D02*
D03*
X84100Y738100D02*
D03*
X355900Y814300D02*
D03*
Y788900D02*
D03*
X84100Y915900D02*
D03*
X25900D02*
D03*
X84100Y941300D02*
D03*
X25900D02*
D03*
X514100Y915900D02*
D03*
Y941300D02*
D03*
X455900D02*
D03*
Y915900D02*
D03*
X844100Y814300D02*
D03*
X785900Y788900D02*
D03*
X844100Y763500D02*
D03*
Y738100D02*
D03*
Y712700D02*
D03*
X785900D02*
D03*
X844100Y687300D02*
D03*
X785900Y661900D02*
D03*
Y636500D02*
D03*
X844100Y611100D02*
D03*
X785900D02*
D03*
X844100Y585700D02*
D03*
Y560300D02*
D03*
X785900Y509500D02*
D03*
X514100Y458700D02*
D03*
X455900D02*
D03*
Y585700D02*
D03*
X514100Y611100D02*
D03*
Y712700D02*
D03*
Y763500D02*
D03*
X455900Y865100D02*
D03*
X414100Y788900D02*
D03*
X355900Y687300D02*
D03*
Y585700D02*
D03*
X414100D02*
D03*
Y560300D02*
D03*
X355900D02*
D03*
X25900Y458700D02*
D03*
X84100D02*
D03*
Y484100D02*
D03*
X25900D02*
D03*
Y509500D02*
D03*
X84100D02*
D03*
Y534900D02*
D03*
X25900D02*
D03*
X84100Y560300D02*
D03*
X25900D02*
D03*
X84100Y585700D02*
D03*
X25900D02*
D03*
Y611100D02*
D03*
Y636500D02*
D03*
Y661900D02*
D03*
Y687300D02*
D03*
Y712700D02*
D03*
Y738100D02*
D03*
Y763500D02*
D03*
X84100D02*
D03*
Y788900D02*
D03*
X25900D02*
D03*
Y814300D02*
D03*
Y839700D02*
D03*
X25440Y327737D02*
D03*
X43740Y283120D02*
D03*
X1019200Y710000D02*
D03*
X740830Y528750D02*
D03*
X711750Y586250D02*
D03*
X1017000Y644000D02*
D03*
X1051000Y607000D02*
D03*
X177482Y258980D02*
D03*
X159772Y331280D02*
D03*
X200342Y356770D02*
D03*
X196532Y379630D02*
D03*
X163512Y356770D02*
D03*
X196602Y331280D02*
D03*
X94170Y175260D02*
D03*
X61150Y210820D02*
D03*
X47180Y308610D02*
D03*
X80200Y331470D02*
D03*
X80270Y283120D02*
D03*
X84010Y308610D02*
D03*
X317385Y331862D02*
D03*
X284295Y357352D02*
D03*
X321125D02*
D03*
X280555Y331862D02*
D03*
X298265Y259562D02*
D03*
X397395Y283602D02*
D03*
X434225D02*
D03*
X415105Y211302D02*
D03*
X401135Y309092D02*
D03*
X437965D02*
D03*
X434155Y331952D02*
D03*
X651910Y257764D02*
D03*
X634200Y330064D02*
D03*
X612540Y308564D02*
D03*
X637940Y355554D02*
D03*
X794283Y355982D02*
D03*
X552920Y283074D02*
D03*
X574440Y261574D02*
D03*
X790473Y378842D02*
D03*
X494430Y261574D02*
D03*
X870166Y282619D02*
D03*
X910736Y308109D02*
D03*
X753713Y330492D02*
D03*
X732053Y308992D02*
D03*
X873906Y308109D02*
D03*
X848506Y261119D02*
D03*
X887876Y210319D02*
D03*
X917848Y173890D02*
D03*
X771423Y258192D02*
D03*
X906996Y282619D02*
D03*
X533800Y210774D02*
D03*
X516090Y283074D02*
D03*
X1390610Y174362D02*
D03*
X1029422Y308054D02*
D03*
X1047202Y261064D02*
D03*
X967192D02*
D03*
X1006562Y210264D02*
D03*
X988852Y282564D02*
D03*
X1025682D02*
D03*
X992592Y308054D02*
D03*
X1025612Y330914D02*
D03*
X1084166Y309706D02*
D03*
X1123536Y258906D02*
D03*
X1105826Y331206D02*
D03*
X1142656D02*
D03*
X1109566Y356696D02*
D03*
X1266912Y357584D02*
D03*
X1284692Y310594D02*
D03*
X1244052Y259794D02*
D03*
X1226342Y332094D02*
D03*
X1230082Y357584D02*
D03*
X1263102Y380444D02*
D03*
X1383752Y307966D02*
D03*
X1360892Y210176D02*
D03*
X1343182Y282476D02*
D03*
X1380012D02*
D03*
X1346922Y307966D02*
D03*
X1379942Y330826D02*
D03*
D76*
X740000Y920000D02*
D03*
X150000D02*
D03*
X1340000Y80000D02*
D03*
X80000D02*
D03*
M02*
