G04*
G04 #@! TF.GenerationSoftware,Altium Limited,Altium Designer,23.4.1 (23)*
G04*
G04 Layer_Color=128*
%FSLAX44Y44*%
%MOMM*%
G71*
G04*
G04 #@! TF.SameCoordinates,AADE7E44-117F-4E65-A716-1D38EB4515B9*
G04*
G04*
G04 #@! TF.FilePolarity,Positive*
G04*
G01*
G75*
%ADD18R,0.8500X0.7500*%
%ADD19R,0.7500X0.8500*%
%ADD44R,1.0500X0.9000*%
%ADD91R,0.9000X1.0500*%
G04:AMPARAMS|DCode=92|XSize=0.55mm|YSize=1.25mm|CornerRadius=0.0495mm|HoleSize=0mm|Usage=FLASHONLY|Rotation=180.000|XOffset=0mm|YOffset=0mm|HoleType=Round|Shape=RoundedRectangle|*
%AMROUNDEDRECTD92*
21,1,0.5500,1.1510,0,0,180.0*
21,1,0.4510,1.2500,0,0,180.0*
1,1,0.0990,-0.2255,0.5755*
1,1,0.0990,0.2255,0.5755*
1,1,0.0990,0.2255,-0.5755*
1,1,0.0990,-0.2255,-0.5755*
%
%ADD92ROUNDEDRECTD92*%
%ADD93R,0.6000X0.8000*%
D18*
X704342Y304950D02*
D03*
Y291950D02*
D03*
X1298956Y306220D02*
D03*
Y293220D02*
D03*
X481584Y192174D02*
D03*
Y179174D02*
D03*
X351536Y305966D02*
D03*
Y292966D02*
D03*
X589280Y257960D02*
D03*
Y244960D02*
D03*
X832358Y222654D02*
D03*
Y209654D02*
D03*
X1302004Y218590D02*
D03*
Y205590D02*
D03*
X244856Y243736D02*
D03*
Y230736D02*
D03*
X358648Y225746D02*
D03*
Y212746D02*
D03*
X1190752Y240180D02*
D03*
Y227180D02*
D03*
X229870Y305458D02*
D03*
Y292458D02*
D03*
X954532Y190396D02*
D03*
Y177396D02*
D03*
X1400048Y321968D02*
D03*
Y308968D02*
D03*
X128270Y229766D02*
D03*
Y216766D02*
D03*
X600964Y238148D02*
D03*
Y225148D02*
D03*
X1073404Y243228D02*
D03*
Y230228D02*
D03*
X1176782Y306220D02*
D03*
Y293220D02*
D03*
X467360Y257452D02*
D03*
Y244452D02*
D03*
X940308Y256690D02*
D03*
Y243690D02*
D03*
X1060196Y258468D02*
D03*
Y245468D02*
D03*
X825246Y304950D02*
D03*
Y291950D02*
D03*
X718566Y240688D02*
D03*
Y227688D02*
D03*
X23500Y271500D02*
D03*
Y258500D02*
D03*
X125920Y305966D02*
D03*
Y292966D02*
D03*
X246703Y306548D02*
D03*
Y293548D02*
D03*
X363543Y258288D02*
D03*
Y245288D02*
D03*
X482238Y257760D02*
D03*
Y244760D02*
D03*
X596900Y304696D02*
D03*
Y291696D02*
D03*
X719861Y305178D02*
D03*
Y292178D02*
D03*
X836314Y257305D02*
D03*
Y244305D02*
D03*
X955000Y257250D02*
D03*
Y244250D02*
D03*
X1071974Y305892D02*
D03*
Y292892D02*
D03*
X1192490Y306780D02*
D03*
Y293780D02*
D03*
X1309330Y257162D02*
D03*
Y244162D02*
D03*
D19*
X124102Y245364D02*
D03*
X111102D02*
D03*
X11534Y165100D02*
D03*
X24534D02*
D03*
X168742Y258980D02*
D03*
X155742D02*
D03*
X165440Y214630D02*
D03*
X152440D02*
D03*
X52410Y210820D02*
D03*
X39410D02*
D03*
X49870Y165100D02*
D03*
X36870D02*
D03*
X260390Y213360D02*
D03*
X273390D02*
D03*
X289525Y259562D02*
D03*
X276525D02*
D03*
X377230Y166370D02*
D03*
X390230D02*
D03*
X406365Y211302D02*
D03*
X393365D02*
D03*
X643170Y257764D02*
D03*
X630170D02*
D03*
X640420Y212090D02*
D03*
X627420D02*
D03*
X732830Y213360D02*
D03*
X745830D02*
D03*
X521758Y166270D02*
D03*
X508758D02*
D03*
X850388Y165000D02*
D03*
X863388D02*
D03*
X762683Y258192D02*
D03*
X749683D02*
D03*
X879136Y210319D02*
D03*
X866136D02*
D03*
X525060Y210774D02*
D03*
X512060D02*
D03*
X997822Y210264D02*
D03*
X984822D02*
D03*
X994520Y165472D02*
D03*
X981520D02*
D03*
X1114796Y258906D02*
D03*
X1101796D02*
D03*
X1111360Y215002D02*
D03*
X1098360D02*
D03*
X1235312Y259794D02*
D03*
X1222312D02*
D03*
X1206310Y216272D02*
D03*
X1219310D02*
D03*
X1352152Y210176D02*
D03*
X1339152D02*
D03*
X1323150Y165472D02*
D03*
X1336150D02*
D03*
D44*
X1178306Y225922D02*
D03*
Y240422D02*
D03*
X686308Y321934D02*
D03*
Y336434D02*
D03*
X346456Y211996D02*
D03*
Y226496D02*
D03*
X469392Y178424D02*
D03*
Y192924D02*
D03*
X819658Y208904D02*
D03*
Y223404D02*
D03*
X1059180Y215254D02*
D03*
Y229754D02*
D03*
X941832Y176138D02*
D03*
Y190638D02*
D03*
X1288542Y204586D02*
D03*
Y219086D02*
D03*
X572516Y275198D02*
D03*
Y289698D02*
D03*
X116586Y215762D02*
D03*
Y230262D02*
D03*
X589026Y219318D02*
D03*
Y233818D02*
D03*
X232156Y229732D02*
D03*
Y244232D02*
D03*
X706882Y226430D02*
D03*
Y240930D02*
D03*
X20066Y309256D02*
D03*
Y294756D02*
D03*
X738124Y322696D02*
D03*
Y337196D02*
D03*
X854964Y274944D02*
D03*
Y289444D02*
D03*
X1325626Y274944D02*
D03*
Y289444D02*
D03*
D91*
X1038214Y291846D02*
D03*
X1052714D02*
D03*
X1380860Y347218D02*
D03*
X1395360D02*
D03*
X924930Y288798D02*
D03*
X939430D02*
D03*
X1160896Y337566D02*
D03*
X1175396D02*
D03*
X99684Y276860D02*
D03*
X114184D02*
D03*
X1284848Y335280D02*
D03*
X1299348D02*
D03*
X215508Y329946D02*
D03*
X230008D02*
D03*
X337174Y330454D02*
D03*
X351674D02*
D03*
X450966Y290322D02*
D03*
X465466D02*
D03*
X37984Y153416D02*
D03*
X23484D02*
D03*
X811138Y333248D02*
D03*
X825638D02*
D03*
X140600Y329692D02*
D03*
X126100D02*
D03*
X263790Y339852D02*
D03*
X249290D02*
D03*
X381646Y280416D02*
D03*
X367146D02*
D03*
X498994Y290576D02*
D03*
X484494D02*
D03*
X611770Y329692D02*
D03*
X597270D02*
D03*
X972958Y288544D02*
D03*
X958458D02*
D03*
X1086496Y336296D02*
D03*
X1071996D02*
D03*
X1208162Y338074D02*
D03*
X1193662D02*
D03*
X205052Y309780D02*
D03*
X190552D02*
D03*
X151182D02*
D03*
X165682D02*
D03*
X34850Y261620D02*
D03*
X49350D02*
D03*
X88720D02*
D03*
X74220D02*
D03*
X271965Y310362D02*
D03*
X286465D02*
D03*
X325835D02*
D03*
X311335D02*
D03*
X442675Y262102D02*
D03*
X428175D02*
D03*
X388805D02*
D03*
X403305D02*
D03*
X625610Y308564D02*
D03*
X640110D02*
D03*
X679480D02*
D03*
X664980D02*
D03*
X745123Y308992D02*
D03*
X759623D02*
D03*
X798993D02*
D03*
X784493D02*
D03*
X561370Y261574D02*
D03*
X546870D02*
D03*
X915446Y261119D02*
D03*
X900946D02*
D03*
X861576D02*
D03*
X876076D02*
D03*
X507500Y261574D02*
D03*
X522000D02*
D03*
X980262Y261064D02*
D03*
X994762D02*
D03*
X1034132D02*
D03*
X1019632D02*
D03*
X1097236Y309706D02*
D03*
X1111736D02*
D03*
X1151106D02*
D03*
X1136606D02*
D03*
X1217752Y310594D02*
D03*
X1232252D02*
D03*
X1271622D02*
D03*
X1257122D02*
D03*
X1334592Y260976D02*
D03*
X1349092D02*
D03*
X1388462D02*
D03*
X1373962D02*
D03*
D92*
X216090Y240858D02*
D03*
X203390D02*
D03*
X190690D02*
D03*
X177990D02*
D03*
X165290D02*
D03*
X152590D02*
D03*
X139890D02*
D03*
X216090Y293358D02*
D03*
X203390D02*
D03*
X190690D02*
D03*
X177990D02*
D03*
X165290D02*
D03*
X152590D02*
D03*
X139890D02*
D03*
X99758Y192698D02*
D03*
X87058D02*
D03*
X74358D02*
D03*
X61658D02*
D03*
X48958D02*
D03*
X36258D02*
D03*
X23558D02*
D03*
X99758Y245198D02*
D03*
X87058D02*
D03*
X74358D02*
D03*
X61658D02*
D03*
X48958D02*
D03*
X36258D02*
D03*
X23558D02*
D03*
X336873Y241440D02*
D03*
X324173D02*
D03*
X311473D02*
D03*
X298773D02*
D03*
X286073D02*
D03*
X273373D02*
D03*
X260673D02*
D03*
X336873Y293940D02*
D03*
X324173D02*
D03*
X311473D02*
D03*
X298773D02*
D03*
X286073D02*
D03*
X273373D02*
D03*
X260673D02*
D03*
X453713Y193180D02*
D03*
X441013D02*
D03*
X428313D02*
D03*
X415613D02*
D03*
X402913D02*
D03*
X390213D02*
D03*
X377513D02*
D03*
X453713Y245680D02*
D03*
X441013D02*
D03*
X428313D02*
D03*
X415613D02*
D03*
X402913D02*
D03*
X390213D02*
D03*
X377513D02*
D03*
X690518Y239642D02*
D03*
X677818D02*
D03*
X665118D02*
D03*
X652418D02*
D03*
X639718D02*
D03*
X627018D02*
D03*
X614318D02*
D03*
X690518Y292142D02*
D03*
X677818D02*
D03*
X665118D02*
D03*
X652418D02*
D03*
X639718D02*
D03*
X627018D02*
D03*
X614318D02*
D03*
X810031Y240070D02*
D03*
X797331D02*
D03*
X784631D02*
D03*
X771931D02*
D03*
X759231D02*
D03*
X746531D02*
D03*
X733831D02*
D03*
X810031Y292570D02*
D03*
X797331D02*
D03*
X784631D02*
D03*
X771931D02*
D03*
X759231D02*
D03*
X746531D02*
D03*
X733831D02*
D03*
X572408Y192652D02*
D03*
X559708D02*
D03*
X547008D02*
D03*
X534308D02*
D03*
X521608D02*
D03*
X508908D02*
D03*
X496208D02*
D03*
X572408Y245152D02*
D03*
X559708D02*
D03*
X547008D02*
D03*
X534308D02*
D03*
X521608D02*
D03*
X508908D02*
D03*
X496208D02*
D03*
X926484Y192197D02*
D03*
X913784D02*
D03*
X901084D02*
D03*
X888384D02*
D03*
X875684D02*
D03*
X862984D02*
D03*
X850284D02*
D03*
X926484Y244697D02*
D03*
X913784D02*
D03*
X901084D02*
D03*
X888384D02*
D03*
X875684D02*
D03*
X862984D02*
D03*
X850284D02*
D03*
X1045170Y192142D02*
D03*
X1032470D02*
D03*
X1019770D02*
D03*
X1007070D02*
D03*
X994370D02*
D03*
X981670D02*
D03*
X968970D02*
D03*
X1045170Y244642D02*
D03*
X1032470D02*
D03*
X1019770D02*
D03*
X1007070D02*
D03*
X994370D02*
D03*
X981670D02*
D03*
X968970D02*
D03*
X1162144Y240784D02*
D03*
X1149444D02*
D03*
X1136744D02*
D03*
X1124044D02*
D03*
X1111344D02*
D03*
X1098644D02*
D03*
X1085944D02*
D03*
X1162144Y293284D02*
D03*
X1149444D02*
D03*
X1136744D02*
D03*
X1124044D02*
D03*
X1111344D02*
D03*
X1098644D02*
D03*
X1085944D02*
D03*
X1282660Y241672D02*
D03*
X1269960D02*
D03*
X1257260D02*
D03*
X1244560D02*
D03*
X1231860D02*
D03*
X1219160D02*
D03*
X1206460D02*
D03*
X1282660Y294172D02*
D03*
X1269960D02*
D03*
X1257260D02*
D03*
X1244560D02*
D03*
X1231860D02*
D03*
X1219160D02*
D03*
X1206460D02*
D03*
X1399500Y192054D02*
D03*
X1386800D02*
D03*
X1374100D02*
D03*
X1361400D02*
D03*
X1348700D02*
D03*
X1336000D02*
D03*
X1323300D02*
D03*
X1399500Y244554D02*
D03*
X1386800D02*
D03*
X1374100D02*
D03*
X1361400D02*
D03*
X1348700D02*
D03*
X1336000D02*
D03*
X1323300D02*
D03*
D93*
X178140Y226214D02*
D03*
X165140D02*
D03*
X152740D02*
D03*
X139740D02*
D03*
X61808Y178054D02*
D03*
X48808D02*
D03*
X36408D02*
D03*
X23408D02*
D03*
X273523Y226796D02*
D03*
X260523D02*
D03*
X298923D02*
D03*
X285923D02*
D03*
X415763Y178536D02*
D03*
X402763D02*
D03*
X390363D02*
D03*
X377363D02*
D03*
X652568Y224998D02*
D03*
X639568D02*
D03*
X627168D02*
D03*
X614168D02*
D03*
X509058Y178008D02*
D03*
X496058D02*
D03*
X863134Y177553D02*
D03*
X850134D02*
D03*
X888534D02*
D03*
X875534D02*
D03*
X746681Y225426D02*
D03*
X733681D02*
D03*
X772081D02*
D03*
X759081D02*
D03*
X534458Y178008D02*
D03*
X521458D02*
D03*
X1007220Y177498D02*
D03*
X994220D02*
D03*
X981820D02*
D03*
X968820D02*
D03*
X1124194Y226140D02*
D03*
X1111194D02*
D03*
X1098794D02*
D03*
X1085794D02*
D03*
X1244710Y227028D02*
D03*
X1231710D02*
D03*
X1219310D02*
D03*
X1206310D02*
D03*
X1361550Y177410D02*
D03*
X1348550D02*
D03*
X1336150D02*
D03*
X1323150D02*
D03*
M02*
