M48
;Layer_Color=9474304
;FILE_FORMAT=4:4
METRIC,LZ
;TYPE=PLATED
T01F00S00C0.3000
T02F00S00C0.3300
T03F00S00C0.7000
T04F00S00C0.8900
T06F00S00C1.0160
T07F00S00C1.0200
T08F00S00C1.0668
T09F00S00C1.6000
T10F00S00C1.7400
T11F00S00C2.5000
;TYPE=NON_PLATED
T12F00S00C3.2500
%
T01
X01226565Y00026565
X0124Y00021
X01253435Y00026565
X01259Y0004
X01253435Y00053435
X0124Y00059
X01226565Y00053435
X01221Y0004
X01015Y001
X0099Y00095
X0097
Y0012
X009325
X009175
X009225Y0009
X009025Y0009
X008825Y0009
X00845Y00125
X009Y001475
X0094Y0016
X0095
X0096
X0097
X0098
X0102Y001425
X01035
X01075Y0016088
X00653435Y00053435
X00659Y0004
X00653435Y00026565
X0064Y00021
X00626565Y00026565
X00621Y0004
X00626565Y00053435
X0064Y00059
X002225Y0036
X00195
Y003525
Y003675
X002Y0041
X001775Y00415
X001625Y00395
X002025Y00435
X00195Y004525
Y0046
Y004675
X002225Y0046
X0021Y004975
X00195Y0052
X00265Y0055
X0027Y00545
X00275Y0055
X00305Y00535
X00245Y0041
X00053435Y00313435
X00059Y003
X00053435Y00286565
X0004Y00281
X00026565Y00286565
X00021Y003
X00026565Y00313435
X0004Y00319
X004225Y003875
X004375
X0043Y00395
Y00425
X004375Y004325
X004225
X0050818Y00421213
X00517019Y00412374
X00525858Y00403535
X00534697Y00394697
X00543535Y00385858
X0058Y003425
Y00325
Y003075
Y0029
X00595Y0032
X00605
X006Y00315
X006775
X00685Y0031
X006925Y00315
X006825Y004175
Y004275
X0066
X0065
X00652Y00472
X00644
X0064Y00465
X00625
X00628Y00472
Y00488
Y00496
Y00504
Y00512
X0062
X00612
X00605Y00505
Y0052
X00593414Y00522586
X0061Y00535
X00625
X0064
X006575
X00652Y00528
Y00512
X00636
Y0052
X00628
X00636Y00504
Y00496
X00644
Y00488
X00636
X00652
Y00496
X00668Y00504
Y00512
X00675Y0052
X00668Y00488
X00675Y00475
X00695Y00445
X0061Y00465
X00596Y00464
X00605Y00475
Y0049
X00612Y00488
X00588Y00448
X00545Y004675
X005375Y004725
X00588Y00552
X00692
X00415Y00545
X0041Y0054
X00405Y00545
X00385
X0038Y0054
X00375Y00545
X00355Y0053
X007125Y0049
X007275
Y00455
X007125
X007475Y00425
X007727Y004227
Y0041
Y003973
Y003846
X008073
X007727Y004354
X007975Y00495
Y005075
Y0052
Y005325
X00905Y00545
X00925Y005575
X009625Y0049
Y004825
X0099Y0049
X009925Y004475
X010075
X00985Y004
X010075Y003725
X0107Y0038
X009325Y003725
Y00395
Y00405
Y004475
X008975
Y0044
Y004325
X0089
X0088Y004125
X00885Y00315
X0086Y00285
X008525Y0023
Y002175
Y00205
Y001925
Y0018
Y001675
X00885Y001625
X009
Y001875
X00885
Y002175
X009
X009325Y0024
X009475
X009625
X010025
X0102Y002175
X01035
Y00195
X0102
Y00165
X01035
X0098Y0017
X0097
X0096
X0095
X0094
Y0018
Y0019
Y002
X0095
Y0019
Y0018
X0096
Y0019
Y002
X0097
Y0019
Y0018
X0098
Y0019
Y002
X01075Y0019912
X008225Y002175
X008375Y0024
X008125Y001675
X008025Y001675
X007925
X007825
X007725
X00775Y0032
X0078Y00315
X00785Y0032
X007275Y00315
X0072Y0031
X007125Y00315
X00715Y00375
Y00385
X00705
Y00375
X011673Y003846
X011035Y00471719
X0112Y0049
X011325Y005375
X011625Y005425
Y005575
X0118Y0017365
X011525Y006675
X0114
X011275
X01115
X011025
Y006825
X01115
X011275
X0114
X011525
X011275Y00705
X0113Y0072
Y0074
X0115Y007725
Y007875
Y0081
X011525Y008275
X0115Y008575
X0113Y00843
X01109Y0085
X01115Y0087
X0111Y0082
Y0081
X011
Y0082
Y008
Y0079
Y0078
X0111
Y0079
Y008
X01175Y007725
X011825
X0119
X0109Y0078
X0108
X0107
Y0079
X0108
X0109
Y008
X0108
X0107
Y0081
X0108
Y0082
X0107
X0109
Y0081
X01075Y0085
X0105
X0103Y008275
X010125Y008125
X0103Y00795
Y007175
X01075Y0074
X0109
Y007
Y006825
Y006675
X0088Y00715
X008425Y0073
X0083Y0074
X0079
X00775
X007825Y0072
X0073Y007175
X0073Y00795
Y008275
X007125Y008125
X0077Y0081
X0078
Y0082
X0077
Y008
X0078
Y0079
X0077
Y0078
X0078
X0079
X008
X0081
Y0079
X008
X0079
Y008
X008
X0081
Y0081
Y0082
X008
Y0081
X0079
Y0082
X00775Y0085
X0075
X00809
X00815Y0087
X0083Y00843
X0085Y008575
X008525Y008275
X0085Y0081
Y007875
Y007725
X00875
X008825
X0089
X00995Y0084
Y0085
Y0086
Y0087
Y0088
Y0089
X01035Y009
X00735
X00695Y0089
Y0088
Y0087
Y0086
Y0085
Y0084
X0069Y007725
Y00765
X006825Y007775
X006775Y00785
X0067Y0076
Y007525
X0059Y007725
X005825
X00575
X0055
Y007875
Y0081
X005525Y008275
X0055Y008575
X0053Y00843
X00509Y0085
X00515Y0087
X0051Y0082
Y0081
Y008
Y0079
Y0078
X005
X0049
X0048
X0047
Y0079
X0048
Y008
X0047
Y0081
Y0082
X0048
Y0081
X0049
Y0082
X005
Y0081
Y008
Y0079
X0049
Y008
Y0074
X00475
X0049Y00725
X0046
X004325Y007125
Y00705
Y006975
X00445Y006925
X005025Y0069
X005175
X005325
X005475
X005625
X005775
X006Y006575
X0061
X0064
X0065
X0066Y006575
X00665Y006525
X0067Y006475
X00675Y006425
X0068Y006375
X00685Y006325
X0063Y00635
X0062
X0063Y005625
X007025Y00565
X005375Y005675
X00532056Y00673055
X005025Y006735
X005325Y007225
X0053Y0074
X0043Y00795
Y008275
X004125Y008125
X00395Y0084
Y0085
Y0086
Y0087
Y0088
Y0089
X00435Y009
X0045Y0085
X00475
X0025Y008575
X002525Y008275
X0025Y0081
Y007875
Y007725
X00275
X002825
X0029
X0021Y0078
X002
X0019
X0018
X0017
Y0079
X0018
X0019
X002
X0021
Y008
X002
X0019
X0018
X0017
Y0081
X0018
Y0082
X0017
X0019
Y0081
X002
Y0082
X0021
Y0081
X00209Y0085
X00215Y0087
X0023Y00843
X00175Y0085
X0015
X0013Y008275
X001125Y008125
X0013Y00795
X000975Y007875
Y0078
Y007725
Y00765
X000775Y007575
Y0075
X0013Y007175
X0019Y00725
X0019Y0074
X00175
X0023
X0023Y00725
X0019Y00695
X002025Y0065
X0021
X002225
X002375
X002525
X002675
X002525Y0063
X002
X00095Y0084
Y0085
Y0086
Y0087
Y0088
Y0089
X00135Y009
X001025Y009725
Y009875
X000775
X00053435Y01046565
X0004Y01041
X00026565Y01046565
X00021Y0106
X00026565Y01073435
X0004Y01079
X00053435Y01073435
X00059Y0106
X0019Y0097
X003775Y009875
X004025
Y009725
X0049Y0097
X006775Y009875
X007025
Y009725
X00653435Y01046565
X0064Y01041
X00626565Y01046565
X00621Y0106
X00626565Y01073435
X0064Y01079
X00653435Y01073435
X00659Y0106
X00359
X00353435Y01046565
X0034Y01041
X00326565Y01046565
X00321Y0106
X00326565Y01073435
X0034Y01079
X00353435Y01073435
X0079Y0097
X009775Y009875
X010025
Y009725
X0109Y0097
X00953435Y01046565
X0094Y01041
X00926565Y01046565
X00921Y0106
X00926565Y01073435
X0094Y01079
X00953435Y01073435
X00959Y0106
X01221
X01226565Y01046565
X0124Y01041
X01253435Y01046565
X01259Y0106
X01253435Y01073435
X0124Y01079
X01226565Y01073435
T02
X0033Y00534
Y00546
X0064Y00316
Y00304
X0084
Y00316
T03
X0018Y01
X002
X0048
X005
X0078
X008
X0108Y01
X011
T04
X011211Y0012285
Y0014825
X011465Y0016095
Y0013555
Y0018635
Y0021175
Y0023715
X011211Y0022445
Y0019905
Y0017365
T06
X0096Y0004
X001Y003
X0033
X0111Y0059
X0115
X0107
X0103
X0033Y00595
X00265
X002
T07
X012354Y0011215
X012557
Y0024785
X012354
T08
X0005Y0048
X00102Y00515
T09
X011795Y0010255
Y0025745
T10
X01125Y009437
X01055
X00825Y009437
X00755
X00525
X00455
X00225
X00155
Y010187
X00225
X00455
X00525
X00755
X00825
X01055Y010187
X01125
T11
X0124Y0004
X0064
X0004Y003
Y0106
X0034
X0064
X0094
X0124
T12
X0121Y0012285
Y0023715
M30
