G04*
G04 #@! TF.GenerationSoftware,Altium Limited,Altium Designer,24.4.1 (13)*
G04*
G04 Layer_Color=32896*
%FSLAX44Y44*%
%MOMM*%
G71*
G04*
G04 #@! TF.SameCoordinates,67352877-1681-4123-B6E6-81FFD263FBCE*
G04*
G04*
G04 #@! TF.FilePolarity,Positive*
G04*
G01*
G75*
%ADD10C,0.2500*%
%ADD11C,0.2000*%
G36*
X-82469Y190683D02*
X-82293D01*
Y190506D01*
X-81940D01*
Y190330D01*
X-81764D01*
Y190153D01*
X-81411D01*
Y189977D01*
X-81235D01*
Y189801D01*
X-81058D01*
Y189624D01*
X-80882D01*
Y189448D01*
X-80705Y189448D01*
Y189272D01*
X-80529D01*
Y189095D01*
X-80353D01*
Y188919D01*
X-80176D01*
Y188566D01*
X-80000D01*
Y188390D01*
X-79824D01*
Y188037D01*
X-79647D01*
Y187860D01*
X-79471D01*
Y187508D01*
X-79295D01*
Y186802D01*
X-79118D01*
Y186097D01*
X-78942D01*
Y185920D01*
X-78589D01*
Y185744D01*
X-78236D01*
X-78236Y185567D01*
X-78060D01*
X-78060Y185391D01*
X-77883D01*
Y185215D01*
X-77707D01*
X-77707Y185038D01*
X-77354D01*
Y184862D01*
X-77178Y184862D01*
Y184686D01*
X-77002D01*
Y184509D01*
X-76825D01*
Y184333D01*
X-76649Y184333D01*
Y183980D01*
X-76472Y183980D01*
X-76472Y183804D01*
X-76296D01*
Y183451D01*
X-76120D01*
X-76120Y182745D01*
X-75943D01*
Y180805D01*
X-76120D01*
Y179747D01*
X-76296D01*
Y179218D01*
X-75943D01*
X-75943Y179041D01*
X-75414Y179041D01*
Y178865D01*
X-75238D01*
Y178689D01*
X-74885D01*
Y178512D01*
X-74709D01*
Y178160D01*
X-74532D01*
Y177983D01*
X-74356D01*
X-74356Y177630D01*
X-74180D01*
Y177101D01*
X-74003D01*
Y176219D01*
X-74356D01*
X-74356Y176396D01*
X-74532D01*
X-74532Y175867D01*
X-74885D01*
Y176043D01*
X-75061D01*
Y176219D01*
X-75238D01*
Y176396D01*
X-75414D01*
Y176572D01*
X-75591D01*
Y176749D01*
X-75767D01*
Y176925D01*
X-75943D01*
Y177101D01*
X-76120D01*
Y177278D01*
X-76296Y177278D01*
Y177454D01*
X-76472D01*
Y177630D01*
X-76649D01*
Y177807D01*
X-76825D01*
Y177983D01*
X-77002D01*
Y178160D01*
X-76472D01*
X-76472Y177983D01*
X-76120D01*
Y177807D01*
X-75767Y177807D01*
Y177630D01*
X-75591D01*
Y177454D01*
X-75414D01*
Y177278D01*
X-75061D01*
Y176925D01*
X-74885Y176925D01*
Y176749D01*
X-74709D01*
Y176396D01*
X-74532D01*
Y176749D01*
X-74709D01*
Y177101D01*
X-74885D01*
Y177278D01*
X-75061D01*
Y177630D01*
X-75238D01*
Y177807D01*
X-75414D01*
Y177983D01*
X-75591D01*
Y178160D01*
X-75767D01*
Y178336D01*
X-75943D01*
Y178512D01*
X-76120D01*
Y178689D01*
X-76296D01*
Y178865D01*
X-76649D01*
Y178689D01*
X-76825D01*
Y178512D01*
X-77002D01*
Y178336D01*
X-77178D01*
Y177983D01*
X-77354D01*
Y177807D01*
X-77531Y177807D01*
Y177630D01*
X-77707Y177630D01*
Y177454D01*
X-77883D01*
Y177101D01*
X-78060D01*
Y176925D01*
X-78236D01*
X-78236Y176749D01*
X-78413D01*
Y176396D01*
X-78589D01*
X-78589Y176219D01*
X-78765D01*
Y175867D01*
X-78942D01*
X-78942Y175690D01*
X-79118D01*
Y175337D01*
X-79295D01*
Y174985D01*
X-79471D01*
Y174632D01*
X-79647D01*
Y174103D01*
X-79824D01*
X-79824Y173750D01*
X-80000D01*
Y173221D01*
X-80176D01*
X-80176Y172515D01*
X-80353D01*
Y171810D01*
X-80529D01*
Y171104D01*
X-80705D01*
Y170399D01*
X-80882D01*
Y169517D01*
X-81058D01*
X-81058Y168459D01*
X-81235D01*
Y167400D01*
X-81411D01*
Y166166D01*
X-81587D01*
Y164402D01*
X-81764D01*
Y161227D01*
X-81940D01*
Y149939D01*
X-81764D01*
Y148351D01*
X-81587D01*
Y147117D01*
X-81411D01*
Y146058D01*
X-81235D01*
Y145176D01*
X-81058D01*
Y144471D01*
X-80882D01*
Y143942D01*
X-80705D01*
X-80706Y143413D01*
X-80529D01*
Y142883D01*
X-80353Y142883D01*
Y142531D01*
X-80176D01*
Y142178D01*
X-80000D01*
Y141825D01*
X-79824D01*
Y141472D01*
X-79647D01*
Y141296D01*
X-79471D01*
Y140943D01*
X-79295D01*
Y140767D01*
X-79118D01*
Y140590D01*
X-78942D01*
X-78942Y140414D01*
X-78765Y140414D01*
Y140061D01*
X-78589Y140061D01*
Y139885D01*
X-78413D01*
Y139709D01*
X-78236D01*
Y139532D01*
X-78060D01*
X-78060Y139356D01*
X-77883D01*
Y139179D01*
X-77531D01*
Y139003D01*
X-77354D01*
Y138827D01*
X-77178Y138827D01*
Y138650D01*
X-77002Y138650D01*
Y138474D01*
X-76649D01*
Y138298D01*
X-76472D01*
Y138121D01*
X-76120D01*
Y137945D01*
X-75943D01*
Y137768D01*
X-75591D01*
Y137592D01*
X-75414D01*
Y137416D01*
X-75061D01*
Y137239D01*
X-74709D01*
Y137063D01*
X-74356D01*
Y136887D01*
X-74180D01*
Y136710D01*
X-73827D01*
Y136534D01*
X-73474D01*
X-73474Y136357D01*
X-73121D01*
Y136181D01*
X-72768D01*
Y136005D01*
X-72416D01*
Y135828D01*
X-72239D01*
Y135652D01*
X-71887D01*
Y135476D01*
X-71534D01*
Y135299D01*
X-71181D01*
Y135123D01*
X-70828D01*
Y134946D01*
X-70475D01*
X-70475Y134770D01*
X-70123D01*
Y134594D01*
X-69770D01*
Y134417D01*
X-69594D01*
Y134241D01*
X-69241D01*
Y134064D01*
X-68888D01*
Y133888D01*
X-68535D01*
Y133712D01*
X-68183D01*
Y133535D01*
X-67830D01*
Y133359D01*
X-67477D01*
Y133182D01*
X-67301Y133182D01*
Y133006D01*
X-66948D01*
Y132830D01*
X-66595Y132830D01*
Y132653D01*
X-66242D01*
Y132477D01*
X-66066D01*
Y132301D01*
X-65713D01*
Y132124D01*
X-65537D01*
Y131948D01*
X-65360D01*
Y131771D01*
X-65008D01*
Y131595D01*
X-64831Y131595D01*
Y131419D01*
X-64655D01*
Y131242D01*
X-64479D01*
Y131066D01*
X-64302D01*
X-64302Y130890D01*
X-64126D01*
Y130713D01*
X-63949D01*
Y130537D01*
X-63773D01*
Y130360D01*
X-63597D01*
Y130184D01*
X-63420D01*
X-63420Y130008D01*
X-63244D01*
Y129831D01*
X-63067D01*
Y129655D01*
X-62891D01*
Y129479D01*
X-62715Y129479D01*
Y129126D01*
X-62538D01*
Y128949D01*
X-62362D01*
Y128773D01*
X-62186D01*
Y128597D01*
X-62009D01*
Y128420D01*
X-61833D01*
Y128244D01*
X-61656D01*
Y127891D01*
X-61480D01*
Y127715D01*
X-61304D01*
Y127538D01*
X-61127D01*
Y127186D01*
X-60951D01*
Y127009D01*
X-60774D01*
Y126833D01*
X-60598D01*
Y126480D01*
X-60422D01*
Y126304D01*
X-60245D01*
Y126127D01*
X-60069D01*
Y125775D01*
X-59893D01*
Y125598D01*
X-59716D01*
Y125422D01*
X-59540D01*
Y125245D01*
X-59363D01*
Y124893D01*
X-59187D01*
Y124716D01*
X-59011D01*
Y124540D01*
X-58834D01*
Y124363D01*
X-58658Y124363D01*
Y124187D01*
X-58482D01*
Y124011D01*
X-58305D01*
Y123834D01*
X-58129D01*
X-58129Y123482D01*
X-57952D01*
X-57952Y123305D01*
X-57776D01*
Y123129D01*
X-57600D01*
Y122952D01*
X-57423D01*
Y122776D01*
X-57247Y122776D01*
Y122600D01*
X-57070D01*
Y122423D01*
X-56894D01*
Y122247D01*
X-56718D01*
Y122071D01*
X-56541Y122071D01*
Y121894D01*
X-56365Y121894D01*
Y121718D01*
X-56189D01*
Y121541D01*
X-56012D01*
Y121365D01*
X-55836D01*
Y121189D01*
X-55659D01*
Y121012D01*
X-55483D01*
Y120836D01*
X-55307D01*
Y120660D01*
X-55130Y120660D01*
X-55130Y120483D01*
X-54954D01*
X-54954Y120307D01*
X-54778Y120307D01*
Y120130D01*
X-54601D01*
X-54601Y119954D01*
X-54425D01*
Y119778D01*
X-54248D01*
X-54248Y119601D01*
X-54072D01*
Y119425D01*
X-53896D01*
Y119249D01*
X-53719D01*
Y119072D01*
X-53543D01*
Y118896D01*
X-53366Y118896D01*
X-53367Y118719D01*
X-53190D01*
Y118543D01*
X-53014D01*
X-53014Y118367D01*
X-52837D01*
Y118190D01*
X-52661Y118190D01*
Y118014D01*
X-52485D01*
Y117837D01*
X-52308D01*
Y117661D01*
X-52132D01*
X-52132Y117485D01*
X-51955D01*
Y117308D01*
X-51779Y117308D01*
Y117132D01*
X-51603D01*
Y116955D01*
X-51426Y116955D01*
Y116779D01*
X-51250Y116779D01*
Y116603D01*
X-51074D01*
Y116426D01*
X-50897D01*
Y116250D01*
X-50721D01*
Y116074D01*
X-50545Y116074D01*
Y115897D01*
X-50368D01*
Y115721D01*
X-50192D01*
Y115545D01*
X-50015D01*
X-50015Y115368D01*
X-49839Y115368D01*
Y115192D01*
X-49663Y115192D01*
Y115015D01*
X-49310D01*
Y114839D01*
X-49133D01*
Y114663D01*
X-48957Y114663D01*
Y114486D01*
X-48781D01*
Y114310D01*
X-48604D01*
Y114134D01*
X-48428D01*
X-48428Y113957D01*
X-48252D01*
X-48252Y113781D01*
X-48075D01*
Y113604D01*
X-47899Y113604D01*
Y113428D01*
X-47722D01*
Y113251D01*
X-47546D01*
Y113075D01*
X-47370Y113075D01*
Y112899D01*
X-47193D01*
Y112722D01*
X-47017D01*
Y112546D01*
X-46841Y112546D01*
Y112370D01*
X-46664Y112370D01*
Y112193D01*
X-46488D01*
Y112017D01*
X-46311D01*
Y111840D01*
X-46135D01*
Y111664D01*
X-45959D01*
X-45959Y111488D01*
X-45782D01*
Y111311D01*
X-45606D01*
Y111135D01*
X-45430D01*
Y110959D01*
X-45077D01*
Y110782D01*
X-44900D01*
Y110606D01*
X-44724D01*
Y110429D01*
X-44548D01*
Y110253D01*
X-44371Y110253D01*
Y110077D01*
X-44195Y110077D01*
X-44195Y109900D01*
X-44018D01*
Y109724D01*
X-43842D01*
X-43842Y109548D01*
X-43666D01*
X-43666Y109371D01*
X-43489Y109371D01*
Y109195D01*
X-43313D01*
Y109018D01*
X-43137D01*
Y108842D01*
X-42960D01*
X-42960Y108666D01*
X-42784Y108666D01*
Y108489D01*
X-42607Y108489D01*
Y108313D01*
X-42431D01*
Y108137D01*
X-42255Y108137D01*
Y107960D01*
X-42078Y107960D01*
X-42078Y107784D01*
X-41902D01*
Y107607D01*
X-41726D01*
Y107431D01*
X-41549D01*
Y107255D01*
X-41373D01*
X-41373Y107078D01*
X-41196D01*
X-41196Y106902D01*
X-41020D01*
Y106726D01*
X-40844D01*
X-40844Y106549D01*
X-40667Y106549D01*
Y106373D01*
X-40491Y106373D01*
Y106196D01*
X-40314D01*
Y106020D01*
X-40138Y106020D01*
Y105844D01*
X-39962D01*
X-39962Y105667D01*
X-39785Y105667D01*
Y105491D01*
X-39609Y105491D01*
Y105314D01*
X-39432D01*
Y105138D01*
X-39256D01*
X-39256Y104962D01*
X-39080D01*
X-39080Y104609D01*
X-38903D01*
Y104432D01*
X-38727D01*
X-38727Y104256D01*
X-38551D01*
X-38551Y104080D01*
X-38374D01*
Y103903D01*
X-38198Y103903D01*
Y103727D01*
X-38022D01*
Y103551D01*
X-37845D01*
Y103198D01*
X-37669D01*
Y103021D01*
X-37492D01*
Y102845D01*
X-37316D01*
Y102669D01*
X-37140Y102669D01*
Y102316D01*
X-36963D01*
Y102140D01*
X-36787D01*
Y101787D01*
X-36610D01*
Y101610D01*
X-36434D01*
Y101258D01*
X-36258D01*
Y101081D01*
X-36081D01*
Y100729D01*
X-35905D01*
Y100376D01*
X-35728D01*
Y100023D01*
X-35552D01*
Y99670D01*
X-35376Y99670D01*
Y99318D01*
X-35199D01*
Y98788D01*
X-35023Y98788D01*
Y98436D01*
X-34847D01*
Y97907D01*
X-34670D01*
Y97201D01*
X-34494D01*
Y96495D01*
X-34318D01*
Y95437D01*
X-34141D01*
X-34141Y92262D01*
X-34318D01*
Y91557D01*
X-34494D01*
X-34494Y91028D01*
X-34670D01*
Y90322D01*
X-34494D01*
X-34494Y89969D01*
X-34318D01*
Y89617D01*
X-34141D01*
Y89440D01*
X-33965D01*
X-33965Y89087D01*
X-33788D01*
Y88911D01*
X-33612D01*
X-33612Y88558D01*
X-33436Y88558D01*
Y88205D01*
X-33259D01*
X-33259Y88029D01*
X-33083Y88029D01*
Y87676D01*
X-32906D01*
Y87324D01*
X-32730D01*
Y86971D01*
X-32554D01*
Y86618D01*
X-32377D01*
Y86265D01*
X-32201D01*
Y85913D01*
X-32025D01*
X-32025Y85560D01*
X-31848Y85560D01*
Y85207D01*
X-31672D01*
Y84854D01*
X-31495D01*
Y84501D01*
X-31319D01*
Y84149D01*
X-31143D01*
Y83620D01*
X-30966D01*
Y83267D01*
X-30790Y83267D01*
Y82914D01*
X-30614D01*
Y82385D01*
X-30437D01*
X-30437Y81856D01*
X-30261D01*
Y81503D01*
X-30084D01*
Y80974D01*
X-29908Y80974D01*
X-29908Y80268D01*
X-29732D01*
Y79739D01*
X-29555D01*
Y79034D01*
X-29379D01*
Y78328D01*
X-29202D01*
Y77446D01*
X-29026D01*
X-29026Y76388D01*
X-28850Y76388D01*
Y74271D01*
X-28673D01*
Y72684D01*
X-28850D01*
Y70920D01*
X-29026D01*
Y70038D01*
X-29202D01*
Y69509D01*
X-29379Y69509D01*
Y68980D01*
X-29555D01*
Y68627D01*
X-29732D01*
Y68274D01*
X-29908D01*
Y67922D01*
X-30084D01*
Y67393D01*
X-30261Y67393D01*
X-30261Y67216D01*
X-30437D01*
Y66863D01*
X-30614D01*
Y66511D01*
X-30790D01*
Y66158D01*
X-30966D01*
Y65982D01*
X-31143D01*
Y65629D01*
X-31319D01*
Y65452D01*
X-31495D01*
Y65100D01*
X-31672D01*
Y64923D01*
X-31848D01*
Y64571D01*
X-32025Y64571D01*
Y64394D01*
X-32201D01*
Y64218D01*
X-32377D01*
Y64042D01*
X-32554D01*
Y63689D01*
X-32730D01*
Y63512D01*
X-32906D01*
Y63336D01*
X-33083D01*
Y63159D01*
X-33259D01*
X-33259Y62807D01*
X-33436Y62807D01*
Y62630D01*
X-33612D01*
Y62454D01*
X-33788D01*
Y62278D01*
X-33965Y62278D01*
Y62101D01*
X-34141D01*
X-34141Y61925D01*
X-34318D01*
Y61748D01*
X-34494D01*
Y61572D01*
X-34670D01*
Y61219D01*
X-34847D01*
Y61043D01*
X-35023D01*
Y60867D01*
X-35199D01*
Y60161D01*
X-35023D01*
Y59808D01*
X-34847Y59808D01*
Y59632D01*
X-34670D01*
Y59279D01*
X-34494D01*
Y59103D01*
X-34318D01*
Y58926D01*
X-34141D01*
Y58750D01*
X-33965D01*
Y58397D01*
X-33788D01*
Y58221D01*
X-33612D01*
X-33612Y58045D01*
X-33436D01*
Y57868D01*
X-33259D01*
Y57692D01*
X-33083D01*
Y57515D01*
X-32906D01*
Y57339D01*
X-32730D01*
Y57163D01*
X-32554D01*
Y56986D01*
X-32377D01*
Y56810D01*
X-32201D01*
Y56457D01*
X-32025D01*
Y56281D01*
X-31848D01*
Y56104D01*
X-31672D01*
Y55928D01*
X-31495D01*
Y55752D01*
X-31319Y55752D01*
Y55575D01*
X-31143D01*
Y55399D01*
X-30966D01*
Y55222D01*
X-30790D01*
Y55046D01*
X-30614D01*
Y54870D01*
X-30437D01*
Y54693D01*
X-30084D01*
Y54517D01*
X-29908D01*
Y54341D01*
X-29732D01*
Y54164D01*
X-29555D01*
Y53988D01*
X-29379D01*
Y53811D01*
X-29026D01*
Y53635D01*
X-28850Y53635D01*
Y53459D01*
X-28673D01*
Y53282D01*
X-28321D01*
Y53106D01*
X-28144D01*
Y52930D01*
X-27791D01*
Y52753D01*
X-27615D01*
Y52577D01*
X-27262D01*
X-27262Y52400D01*
X-26909D01*
Y52224D01*
X-26380D01*
Y52048D01*
X-26028D01*
Y51871D01*
X-25498D01*
Y51695D01*
X-24793D01*
X-24793Y51518D01*
X-22853Y51518D01*
Y51342D01*
X-19502D01*
Y51166D01*
X-15974D01*
Y50989D01*
X-14563D01*
Y50813D01*
X-14210D01*
Y50637D01*
X-13857D01*
Y50460D01*
X-13681D01*
Y50107D01*
X-13505D01*
Y49402D01*
X-13328Y49402D01*
Y48696D01*
X-13505D01*
Y47814D01*
X-13681D01*
Y47462D01*
X-13857D01*
Y47285D01*
X-14034D01*
Y46933D01*
X-14210D01*
Y46756D01*
X-14387D01*
Y46580D01*
X-14563D01*
Y46403D01*
X-14739D01*
Y46227D01*
X-14916D01*
Y46051D01*
X-15092D01*
Y45874D01*
X-15268D01*
Y45698D01*
X-15445D01*
Y45521D01*
X-15621D01*
Y45345D01*
X-15798D01*
Y45169D01*
X-15974D01*
Y44992D01*
X-16327D01*
Y44816D01*
X-16503Y44816D01*
Y44640D01*
X-16856D01*
Y44463D01*
X-17209D01*
Y44287D01*
X-17738D01*
Y44110D01*
X-18267D01*
Y43934D01*
X-18796D01*
Y43758D01*
X-19149D01*
Y43581D01*
X-19678Y43581D01*
Y43405D01*
X-20383Y43405D01*
Y43229D01*
X-20913D01*
Y43052D01*
X-21618D01*
Y42876D01*
X-22324D01*
X-22324Y42699D01*
X-23029Y42699D01*
Y42523D01*
X-23911D01*
Y42347D01*
X-24617D01*
Y42170D01*
X-25498D01*
Y41994D01*
X-26909D01*
Y41817D01*
X-29379D01*
Y41994D01*
X-30790D01*
Y42170D01*
X-31848D01*
Y42347D01*
X-32730D01*
Y42523D01*
X-33612D01*
Y42699D01*
X-34318D01*
Y42876D01*
X-34847D01*
Y43052D01*
X-35376D01*
Y43229D01*
X-35905D01*
Y43405D01*
X-36434D01*
Y43581D01*
X-36787D01*
Y43758D01*
X-37140D01*
Y43934D01*
X-37492Y43934D01*
Y44110D01*
X-37845D01*
Y44287D01*
X-38198Y44287D01*
Y44463D01*
X-38551D01*
Y44640D01*
X-38903D01*
Y44816D01*
X-39080Y44816D01*
X-39080Y44992D01*
X-39432D01*
Y45169D01*
X-39609D01*
Y45345D01*
X-39962D01*
X-39962Y45521D01*
X-40314D01*
Y45698D01*
X-40491D01*
Y45874D01*
X-41020D01*
Y45698D01*
X-41196Y45698D01*
Y44992D01*
X-41373D01*
Y44287D01*
X-41549Y44287D01*
X-41549Y43405D01*
X-41726D01*
X-41726Y42876D01*
X-41549D01*
X-41549Y42347D01*
X-41373D01*
Y41817D01*
X-41196D01*
X-41196Y41288D01*
X-41020D01*
Y40759D01*
X-40844D01*
Y40054D01*
X-40667D01*
Y39525D01*
X-40491D01*
Y38995D01*
X-40314D01*
Y38466D01*
X-40138D01*
Y37937D01*
X-39962D01*
Y37232D01*
X-39785D01*
Y36526D01*
X-39609D01*
Y35821D01*
X-39432D01*
Y34586D01*
X-39256Y34586D01*
Y31235D01*
X-39432D01*
Y30529D01*
X-39609D01*
Y30176D01*
X-39785D01*
Y30000D01*
X-39962D01*
Y29824D01*
X-40138D01*
Y29471D01*
X-40314Y29471D01*
Y29295D01*
X-40491D01*
Y29118D01*
X-40844D01*
Y28942D01*
X-41020D01*
Y28765D01*
X-41373D01*
Y28589D01*
X-41726D01*
Y28413D01*
X-42078D01*
X-42078Y28236D01*
X-42607D01*
Y28060D01*
X-43137Y28060D01*
Y27883D01*
X-44018Y27884D01*
Y27707D01*
X-44900D01*
Y27531D01*
X-46488D01*
Y27354D01*
X-48252D01*
Y27178D01*
X-50015D01*
X-50015Y27002D01*
X-51426D01*
X-51426Y26825D01*
X-52308D01*
Y26649D01*
X-53014D01*
Y26472D01*
X-53896D01*
Y26296D01*
X-54601D01*
Y26120D01*
X-55483D01*
Y25943D01*
X-56718D01*
X-56718Y25767D01*
X-57952D01*
Y25591D01*
X-59187D01*
Y25414D01*
X-60598D01*
Y25238D01*
X-62009D01*
Y25061D01*
X-63067D01*
Y24885D01*
X-64302D01*
X-64302Y24709D01*
X-65537D01*
X-65537Y24532D01*
X-66419D01*
Y24356D01*
X-67301D01*
Y24179D01*
X-68006D01*
X-68006Y24003D01*
X-68712D01*
Y23827D01*
X-69594D01*
Y23650D01*
X-70299D01*
Y23474D01*
X-71005D01*
Y23298D01*
X-71710D01*
Y23121D01*
X-72239D01*
Y23298D01*
X-72592D01*
Y23474D01*
X-72945Y23474D01*
Y23650D01*
X-73121D01*
Y23827D01*
X-73474Y23827D01*
X-73474Y24003D01*
X-73650D01*
X-73650Y24179D01*
X-73827D01*
Y24356D01*
X-74003D01*
Y24532D01*
X-74180D01*
Y24885D01*
X-74356D01*
Y25061D01*
X-74532Y25061D01*
Y25238D01*
X-74709D01*
Y25591D01*
X-74885D01*
Y25943D01*
X-75061D01*
Y26296D01*
X-75238D01*
Y26649D01*
X-75414D01*
Y27178D01*
X-75591D01*
X-75591Y27707D01*
X-75767D01*
Y29471D01*
X-75943D01*
X-75943Y30353D01*
X-76825D01*
Y30176D01*
X-81058D01*
X-81058Y30353D01*
X-81940D01*
X-81940Y30529D01*
X-82646D01*
Y30705D01*
X-89525D01*
X-89524Y30529D01*
X-90936D01*
Y30353D01*
X-92170D01*
Y30176D01*
X-93229D01*
Y30000D01*
X-94287D01*
Y29824D01*
X-95169D01*
Y29647D01*
X-95874Y29647D01*
Y29471D01*
X-96580D01*
X-96580Y29295D01*
X-97285Y29295D01*
Y29118D01*
X-97991D01*
Y28942D01*
X-98696D01*
Y28765D01*
X-99226D01*
X-99226Y28589D01*
X-99755D01*
Y28413D01*
X-100284D01*
Y28236D01*
X-100813D01*
Y28060D01*
X-101342Y28060D01*
Y27883D01*
X-101871Y27884D01*
Y27707D01*
X-102400D01*
Y27531D01*
X-102929D01*
X-102929Y27354D01*
X-103635D01*
Y27531D01*
X-103811D01*
Y27707D01*
X-103988D01*
Y27884D01*
X-104164D01*
Y28060D01*
X-104340Y28060D01*
Y28236D01*
X-104517D01*
Y28413D01*
X-104693D01*
Y28765D01*
X-104870D01*
Y28942D01*
X-105046D01*
Y29295D01*
X-105222D01*
Y29647D01*
X-105399D01*
X-105399Y30000D01*
X-105575D01*
Y30176D01*
X-105751D01*
X-105751Y30705D01*
X-105928D01*
X-105928Y31058D01*
X-106104D01*
Y31587D01*
X-106281D01*
Y32293D01*
X-106457D01*
Y33351D01*
X-106633D01*
Y34939D01*
X-106457D01*
Y35997D01*
X-106281D01*
Y36702D01*
X-106104D01*
Y37232D01*
X-105928D01*
Y37761D01*
X-105751D01*
Y38114D01*
X-105575D01*
Y38466D01*
X-105399D01*
Y38643D01*
X-105222D01*
Y38995D01*
X-105046Y38995D01*
Y39172D01*
X-104870D01*
Y39348D01*
X-104693Y39348D01*
Y39701D01*
X-104517D01*
Y39877D01*
X-104340Y39877D01*
Y40054D01*
X-104164D01*
Y40230D01*
X-103811Y40230D01*
X-103811Y40406D01*
X-103635D01*
X-103635Y40583D01*
X-103459D01*
Y40759D01*
X-103106D01*
Y40936D01*
X-102753D01*
Y41112D01*
X-102577D01*
Y41288D01*
X-102224D01*
Y41465D01*
X-101695D01*
Y41641D01*
X-101342D01*
Y41817D01*
X-100813Y41817D01*
X-100813Y41994D01*
X-100284D01*
Y42170D01*
X-99755D01*
Y42347D01*
X-98873Y42347D01*
Y42523D01*
X-97991D01*
Y42699D01*
X-97285D01*
Y42876D01*
X-96932D01*
X-96932Y43052D01*
X-96756D01*
Y43229D01*
X-96580D01*
Y43405D01*
X-96403D01*
Y43581D01*
X-96051Y43581D01*
Y43758D01*
X-95874D01*
Y43934D01*
X-95698D01*
Y44110D01*
X-95521Y44110D01*
Y44287D01*
X-95169D01*
Y44463D01*
X-94816Y44463D01*
Y44640D01*
X-94463D01*
Y44816D01*
X-93934Y44816D01*
Y44992D01*
X-93758D01*
Y45345D01*
X-93934D01*
Y45698D01*
X-94110D01*
Y46051D01*
X-94287Y46051D01*
Y46403D01*
X-94463D01*
X-94463Y46756D01*
X-94640D01*
Y47109D01*
X-94816D01*
Y47462D01*
X-94992D01*
Y47814D01*
X-95169D01*
Y48167D01*
X-95345D01*
Y48696D01*
X-95521Y48696D01*
Y49049D01*
X-95698Y49049D01*
X-95698Y49578D01*
X-95874D01*
Y50107D01*
X-96051D01*
Y50637D01*
X-96227D01*
X-96227Y51166D01*
X-96403D01*
Y51871D01*
X-96580D01*
Y52400D01*
X-96756D01*
Y53106D01*
X-96932Y53106D01*
X-96932Y53811D01*
X-97109D01*
Y54517D01*
X-97285D01*
Y55222D01*
X-97462D01*
Y56104D01*
X-97638D01*
Y61043D01*
X-97814D01*
X-97814Y62807D01*
X-97638Y62807D01*
Y65452D01*
X-97462D01*
Y66511D01*
X-97285D01*
Y67569D01*
X-97109D01*
Y68451D01*
X-96932D01*
Y69156D01*
X-96756D01*
Y69862D01*
X-96580D01*
Y70567D01*
X-96403D01*
Y71097D01*
X-96227D01*
Y71802D01*
X-96051D01*
Y72331D01*
X-95874D01*
Y72860D01*
X-95698D01*
Y73390D01*
X-95521D01*
Y74095D01*
X-95345Y74095D01*
Y74624D01*
X-95874D01*
Y74801D01*
X-96932D01*
Y74977D01*
X-97814D01*
X-97814Y75153D01*
X-98696D01*
Y75330D01*
X-99402D01*
Y75506D01*
X-99931D01*
X-99931Y75683D01*
X-100460D01*
Y75859D01*
X-100813D01*
Y76035D01*
X-101166D01*
Y76212D01*
X-101518D01*
Y76388D01*
X-101871D01*
Y76564D01*
X-102224D01*
Y76741D01*
X-102400Y76741D01*
X-102400Y76917D01*
X-102753D01*
Y77094D01*
X-102929D01*
X-102929Y77270D01*
X-103106D01*
Y77446D01*
X-103282D01*
Y77623D01*
X-103459D01*
Y77799D01*
X-103635D01*
X-103635Y77976D01*
X-103811D01*
Y78152D01*
X-103988D01*
Y78328D01*
X-104164D01*
Y78505D01*
X-104340D01*
Y78681D01*
X-104517Y78681D01*
X-104517Y79034D01*
X-104693D01*
Y79210D01*
X-104870Y79210D01*
X-104870Y79387D01*
X-105046D01*
Y79739D01*
X-105222D01*
Y80092D01*
X-105399D01*
Y80268D01*
X-105575D01*
Y80621D01*
X-105751D01*
Y80974D01*
X-105928D01*
X-105928Y81503D01*
X-106104D01*
Y81856D01*
X-106281D01*
Y82209D01*
X-106457D01*
Y82738D01*
X-106633D01*
Y83267D01*
X-106810D01*
Y83796D01*
X-106986Y83796D01*
Y84501D01*
X-107163D01*
Y85560D01*
X-107339D01*
Y86795D01*
X-107515D01*
Y94379D01*
X-107339D01*
Y95790D01*
X-107163D01*
Y96672D01*
X-106986D01*
Y97554D01*
X-106810D01*
Y98083D01*
X-106633D01*
Y98612D01*
X-106457D01*
Y99141D01*
X-106281D01*
Y99494D01*
X-106104D01*
Y100023D01*
X-105928D01*
Y100376D01*
X-105751D01*
Y100729D01*
X-105575D01*
Y101081D01*
X-105399D01*
Y101258D01*
X-105222D01*
Y101610D01*
X-105046D01*
Y101963D01*
X-104870D01*
X-104870Y102140D01*
X-104693D01*
Y102492D01*
X-104517D01*
Y102669D01*
X-104340Y102669D01*
Y103021D01*
X-104164D01*
Y103198D01*
X-103988D01*
Y103374D01*
X-103811Y103374D01*
Y103727D01*
X-103635D01*
Y103903D01*
X-103459D01*
Y104080D01*
X-103282D01*
Y104256D01*
X-103106D01*
Y104432D01*
X-102929D01*
X-102929Y104609D01*
X-102753D01*
Y104962D01*
X-102577D01*
Y105138D01*
X-102400D01*
Y105314D01*
X-102224D01*
Y105491D01*
X-102048D01*
Y105667D01*
X-101871D01*
Y105844D01*
X-101695D01*
Y106020D01*
X-101518D01*
Y106196D01*
X-101342D01*
Y106373D01*
X-100989D01*
Y106549D01*
X-100813D01*
X-100813Y106726D01*
X-100637D01*
Y106902D01*
X-100460D01*
Y107078D01*
X-100284D01*
X-100284Y107255D01*
X-100107D01*
Y107431D01*
X-99755D01*
Y107607D01*
X-99578D01*
Y107784D01*
X-99402D01*
Y107960D01*
X-99226Y107960D01*
Y108137D01*
X-98873Y108137D01*
Y108313D01*
X-98696D01*
Y108489D01*
X-98520D01*
X-98520Y108666D01*
X-98167D01*
X-98167Y108842D01*
X-97991D01*
Y109018D01*
X-97814D01*
Y109371D01*
X-97638D01*
Y111664D01*
X-97462D01*
Y115015D01*
X-97285D01*
Y116779D01*
X-97109D01*
Y118367D01*
X-96932D01*
Y119601D01*
X-96756D01*
X-96756Y120836D01*
X-96580D01*
X-96580Y121718D01*
X-96403D01*
Y122776D01*
X-96227Y122776D01*
Y123658D01*
X-96051D01*
Y124363D01*
X-95874Y124363D01*
Y125069D01*
X-95698D01*
X-95698Y125951D01*
X-95521D01*
Y126833D01*
X-95345D01*
Y127009D01*
X-95521D01*
Y127538D01*
X-95698D01*
Y127891D01*
X-95874D01*
Y128068D01*
X-96051D01*
Y128420D01*
X-96227D01*
Y128773D01*
X-96403D01*
Y128949D01*
X-96580D01*
Y129302D01*
X-96756D01*
Y129479D01*
X-96932D01*
Y129831D01*
X-97109D01*
Y130008D01*
X-97285D01*
Y130360D01*
X-97462D01*
Y130713D01*
X-97638Y130713D01*
Y130890D01*
X-97814D01*
Y131242D01*
X-97991D01*
Y131595D01*
X-98167D01*
Y131771D01*
X-98343D01*
Y132124D01*
X-98520D01*
Y132477D01*
X-98696D01*
X-98696Y132653D01*
X-98873D01*
Y133006D01*
X-99049D01*
X-99049Y133359D01*
X-99226Y133359D01*
Y133712D01*
X-99402Y133712D01*
Y134064D01*
X-99578D01*
Y134417D01*
X-99755D01*
Y134594D01*
X-99931D01*
Y134946D01*
X-100107D01*
Y135299D01*
X-100284D01*
X-100284Y135652D01*
X-100460D01*
Y136005D01*
X-100637D01*
X-100637Y136357D01*
X-100813D01*
X-100813Y136710D01*
X-100989D01*
Y137063D01*
X-101166D01*
Y137416D01*
X-101342D01*
Y137768D01*
X-101518D01*
Y138121D01*
X-101695D01*
Y138474D01*
X-101871D01*
Y138827D01*
X-102048D01*
Y139179D01*
X-102224D01*
Y139532D01*
X-102400D01*
Y139885D01*
X-102577D01*
Y140238D01*
X-102753D01*
X-102753Y140590D01*
X-102929D01*
Y140943D01*
X-103106D01*
Y141472D01*
X-103282D01*
Y141825D01*
X-103459D01*
Y142178D01*
X-103635D01*
Y142531D01*
X-103811D01*
Y142883D01*
X-103988D01*
Y143236D01*
X-104164D01*
Y143589D01*
X-104340D01*
Y144118D01*
X-104517D01*
X-104517Y144471D01*
X-104693D01*
Y144824D01*
X-104870D01*
Y145176D01*
X-105046D01*
Y145705D01*
X-105222D01*
Y146058D01*
X-105399D01*
Y146411D01*
X-105575D01*
Y146940D01*
X-105751D01*
Y147293D01*
X-105928D01*
Y147646D01*
X-106104Y147646D01*
Y147999D01*
X-106281D01*
Y148528D01*
X-106457Y148528D01*
Y148880D01*
X-106633D01*
Y149410D01*
X-106810D01*
Y149762D01*
X-106986Y149762D01*
Y150115D01*
X-107163D01*
Y150644D01*
X-107339D01*
X-107339Y150997D01*
X-107515D01*
Y151526D01*
X-107692D01*
Y151879D01*
X-107868D01*
Y152408D01*
X-108045D01*
X-108045Y152761D01*
X-108221D01*
X-108221Y153290D01*
X-108397D01*
Y153819D01*
X-108574D01*
Y154172D01*
X-108750D01*
X-108750Y154701D01*
X-108926Y154701D01*
Y155230D01*
X-109103Y155230D01*
Y155583D01*
X-109279D01*
Y156112D01*
X-109455D01*
Y156465D01*
X-109632D01*
Y156994D01*
X-109808D01*
Y157523D01*
X-109985D01*
Y158052D01*
X-110161D01*
Y158405D01*
X-110337Y158405D01*
Y158581D01*
X-110514D01*
Y158758D01*
X-110690D01*
Y158934D01*
X-110866D01*
X-110867Y159110D01*
X-111043D01*
Y159287D01*
X-111219D01*
Y159463D01*
X-111572D01*
Y159640D01*
X-111749D01*
Y159816D01*
X-111925D01*
X-111925Y159992D01*
X-112278D01*
Y160169D01*
X-112454D01*
X-112454Y160345D01*
X-112630D01*
X-112630Y160522D01*
X-112983Y160522D01*
Y160698D01*
X-113160D01*
Y160874D01*
X-113336D01*
Y161051D01*
X-113512Y161051D01*
Y161227D01*
X-113689D01*
Y161403D01*
X-113865D01*
Y161580D01*
X-114041D01*
Y161756D01*
X-114218D01*
X-114218Y161933D01*
X-114394D01*
Y162109D01*
X-114571D01*
Y162285D01*
X-114747D01*
Y162462D01*
X-114923D01*
X-114923Y162814D01*
X-115100D01*
Y162991D01*
X-115276Y162991D01*
Y163344D01*
X-115452D01*
Y163520D01*
X-115629Y163520D01*
Y163696D01*
X-115805D01*
Y164049D01*
X-115982D01*
Y164226D01*
X-116158D01*
Y164578D01*
X-116334D01*
Y164755D01*
X-116511D01*
Y164931D01*
X-116687D01*
Y165107D01*
X-116863D01*
Y165284D01*
X-117040D01*
Y165637D01*
X-117216D01*
Y165813D01*
X-117393D01*
Y165989D01*
X-117569D01*
Y166166D01*
X-117745D01*
Y166342D01*
X-117922D01*
Y166518D01*
X-118098D01*
Y166695D01*
X-118274D01*
Y166871D01*
X-118451D01*
Y167048D01*
X-118627D01*
Y167224D01*
X-118804D01*
Y167400D01*
X-119156D01*
Y167224D01*
X-119333D01*
Y166871D01*
X-119509D01*
Y164226D01*
X-119333D01*
Y162109D01*
X-119156D01*
Y161227D01*
X-119333D01*
Y161403D01*
X-119509Y161403D01*
Y161756D01*
X-119686D01*
Y162109D01*
X-119862D01*
Y162638D01*
X-120038D01*
X-120038Y163520D01*
X-120215Y163520D01*
Y165460D01*
X-120038D01*
Y166871D01*
X-119862D01*
Y167048D01*
X-120920D01*
X-120920Y165813D01*
X-121097D01*
Y165107D01*
X-121273D01*
Y164402D01*
X-121449D01*
Y163696D01*
X-121626D01*
Y163167D01*
X-121802D01*
Y162814D01*
X-121979D01*
Y162991D01*
X-122155Y162991D01*
X-122155Y163873D01*
X-121979D01*
Y164931D01*
X-121802D01*
X-121802Y165637D01*
X-121626D01*
Y166342D01*
X-121449Y166342D01*
Y167048D01*
X-121626D01*
Y167224D01*
X-121802D01*
Y167400D01*
X-122331D01*
Y167577D01*
X-123037D01*
Y167753D01*
X-123390D01*
Y167929D01*
X-123742D01*
Y168106D01*
X-123919D01*
Y168282D01*
X-124095D01*
Y168459D01*
X-124271D01*
Y168635D01*
X-124448D01*
Y168811D01*
X-124624D01*
Y168988D01*
X-124801D01*
X-124801Y169164D01*
X-124977D01*
Y169517D01*
X-125153D01*
Y169693D01*
X-125330D01*
Y170046D01*
X-125506Y170046D01*
X-125506Y170399D01*
X-125682D01*
Y170928D01*
X-125859D01*
Y171457D01*
X-126035D01*
Y172692D01*
X-126212D01*
Y173926D01*
X-126035D01*
Y174808D01*
X-125859D01*
X-125859Y175337D01*
X-125682D01*
Y175867D01*
X-125506D01*
Y176219D01*
X-125330D01*
X-125330Y176572D01*
X-125153D01*
Y176749D01*
X-124977D01*
Y177101D01*
X-124801D01*
Y177278D01*
X-124624D01*
Y177454D01*
X-124448D01*
Y177630D01*
X-124271D01*
Y177983D01*
X-124095D01*
Y178160D01*
X-123742D01*
Y178336D01*
X-123566D01*
Y178512D01*
X-123390D01*
Y178689D01*
X-123213D01*
Y179218D01*
X-123390D01*
Y180276D01*
X-123566D01*
Y182040D01*
X-123390D01*
Y182393D01*
X-123213D01*
Y182745D01*
X-123037Y182745D01*
Y182922D01*
X-122860D01*
X-122860Y183098D01*
X-122684D01*
Y183274D01*
X-122508D01*
Y183451D01*
X-122331Y183451D01*
Y183627D01*
X-121979Y183627D01*
Y183804D01*
X-121802D01*
Y183980D01*
X-121449Y183980D01*
Y184156D01*
X-120920D01*
Y184333D01*
X-120744D01*
Y183980D01*
X-120920D01*
Y183804D01*
X-121097D01*
Y183627D01*
X-121273D01*
Y183451D01*
X-121449D01*
Y183274D01*
X-121626D01*
Y183098D01*
X-121802D01*
X-121802Y182922D01*
X-121979D01*
Y182745D01*
X-122155D01*
Y182569D01*
X-122331D01*
Y182393D01*
X-122508D01*
Y182040D01*
X-122684D01*
Y181511D01*
X-122860Y181511D01*
Y179394D01*
X-122684D01*
Y178865D01*
X-122331Y178865D01*
Y179041D01*
X-122155Y179041D01*
Y179218D01*
X-121979D01*
Y179571D01*
X-121802D01*
X-121802Y179923D01*
X-121626D01*
X-121626Y180100D01*
X-121449D01*
Y180276D01*
X-121273Y180276D01*
X-121273Y180452D01*
X-121097D01*
Y180629D01*
X-120920D01*
Y180805D01*
X-120744D01*
Y180982D01*
X-120568D01*
Y181158D01*
X-120391D01*
Y181334D01*
X-120215Y181334D01*
Y181511D01*
X-119862Y181511D01*
Y181687D01*
X-119686D01*
Y181863D01*
X-119333D01*
X-119333Y182040D01*
X-118804D01*
Y182216D01*
X-118274D01*
Y182393D01*
X-117569D01*
Y182216D01*
X-117393D01*
Y182040D01*
X-117569D01*
Y181863D01*
X-117922D01*
Y181687D01*
X-118274D01*
Y181511D01*
X-118627Y181511D01*
Y181334D01*
X-118980Y181334D01*
Y181158D01*
X-119156D01*
Y180982D01*
X-119509D01*
Y180805D01*
X-119686D01*
Y180629D01*
X-120038D01*
Y180452D01*
X-120215D01*
Y180276D01*
X-120568D01*
Y180100D01*
X-120744D01*
Y179923D01*
X-120920D01*
Y179747D01*
X-121097D01*
Y179571D01*
X-121273D01*
X-121273Y179394D01*
X-121449D01*
Y179218D01*
X-121626D01*
Y179041D01*
X-121802D01*
Y178865D01*
X-121273D01*
X-121273Y178689D01*
X-120038D01*
Y178512D01*
X-117922D01*
Y178336D01*
X-115276D01*
Y178512D01*
X-114923D01*
Y178689D01*
X-114571D01*
X-114571Y178865D01*
X-114218D01*
Y179041D01*
X-113865D01*
Y179218D01*
X-113689D01*
Y179394D01*
X-113336D01*
X-113336Y179571D01*
X-112983D01*
Y179747D01*
X-112807D01*
Y179923D01*
X-112454D01*
X-112454Y180100D01*
X-112278D01*
Y180276D01*
X-111925Y180276D01*
X-111925Y180452D01*
X-111572D01*
Y180629D01*
X-111396D01*
Y180805D01*
X-111043D01*
Y180982D01*
X-110867D01*
Y181158D01*
X-110514D01*
Y181334D01*
X-110337D01*
Y181511D01*
X-109985Y181511D01*
Y181687D01*
X-109808D01*
Y181863D01*
X-109455D01*
Y182040D01*
X-109103D01*
Y182216D01*
X-108750D01*
Y182393D01*
X-108574D01*
Y182569D01*
X-108221D01*
Y182745D01*
X-108045D01*
X-108045Y182922D01*
X-107692D01*
Y183098D01*
X-107339D01*
Y183274D01*
X-106986D01*
Y183451D01*
X-106633D01*
Y183627D01*
X-106104D01*
Y183804D01*
X-105751D01*
Y183980D01*
X-105222Y183980D01*
Y184156D01*
X-104693D01*
Y184333D01*
X-104164D01*
Y184509D01*
X-103459D01*
Y184686D01*
X-102577D01*
Y184862D01*
X-101518D01*
Y185038D01*
X-100107Y185038D01*
Y185215D01*
X-97991D01*
Y185391D01*
X-97109D01*
Y185215D01*
X-93405D01*
Y185038D01*
X-91641D01*
Y184862D01*
X-90230D01*
Y184686D01*
X-88819D01*
Y184509D01*
X-84233D01*
Y184686D01*
X-83880D01*
Y184862D01*
X-83528D01*
Y185038D01*
X-83175D01*
X-83175Y185215D01*
X-82822D01*
Y185391D01*
X-82646D01*
X-82646Y185567D01*
X-82293D01*
Y185744D01*
X-81940D01*
Y185920D01*
X-81587D01*
Y186097D01*
X-81411D01*
Y186273D01*
X-81940D01*
X-81940Y186449D01*
X-82293D01*
Y186626D01*
X-82646D01*
Y186802D01*
X-83880D01*
Y186978D01*
X-84233Y186978D01*
Y187331D01*
X-84057Y187331D01*
Y187508D01*
X-82293D01*
Y187331D01*
X-81940D01*
Y187155D01*
X-81587D01*
Y186978D01*
X-81411D01*
Y186802D01*
X-81235D01*
Y186626D01*
X-81058D01*
Y186449D01*
X-80705Y186449D01*
Y186273D01*
X-80176D01*
Y186097D01*
X-79647Y186097D01*
Y186273D01*
X-79471D01*
Y186449D01*
X-79647D01*
Y186802D01*
X-79824D01*
X-79824Y187155D01*
X-80000D01*
Y187331D01*
X-80176D01*
Y187684D01*
X-80353D01*
Y187860D01*
X-80529D01*
Y188037D01*
X-80706D01*
X-80705Y188213D01*
X-80882Y188213D01*
Y188390D01*
X-81058D01*
X-81058Y188566D01*
X-81235Y188566D01*
Y188919D01*
X-81411D01*
Y189095D01*
X-81587D01*
Y189272D01*
X-81764D01*
Y189448D01*
X-81940D01*
X-81940Y189624D01*
X-82116D01*
Y189801D01*
X-82293D01*
Y189977D01*
X-82646D01*
X-82646Y190153D01*
X-82822D01*
X-82822Y190330D01*
X-82999Y190330D01*
Y190506D01*
X-83351D01*
Y190683D01*
X-83528D01*
Y190859D01*
X-82469D01*
Y190683D01*
D02*
G37*
G36*
X-239895Y157063D02*
X-236516D01*
Y156822D01*
X-233862D01*
X-233862Y156580D01*
X-231689D01*
Y156339D01*
X-229759D01*
Y156098D01*
X-228069D01*
Y155856D01*
X-226621Y155856D01*
Y155615D01*
X-225173Y155615D01*
Y155374D01*
X-223725D01*
X-223725Y155132D01*
X-222518D01*
X-222518Y154891D01*
X-221311D01*
Y154650D01*
X-220346D01*
Y154408D01*
X-219139D01*
Y154167D01*
X-218174D01*
Y153926D01*
X-217208D01*
Y153684D01*
X-216243D01*
Y153443D01*
X-215519D01*
Y153202D01*
X-214554D01*
Y152960D01*
X-213830D01*
Y152719D01*
X-212864D01*
X-212864Y152478D01*
X-212140D01*
X-212140Y152236D01*
X-211416D01*
X-211416Y151995D01*
X-210692D01*
Y151753D01*
X-209968Y151753D01*
Y151512D01*
X-209244D01*
Y151271D01*
X-208520Y151271D01*
Y151029D01*
X-207796D01*
Y150788D01*
X-207313D01*
Y150547D01*
X-206589Y150547D01*
Y150305D01*
X-205865Y150305D01*
Y150064D01*
X-205382D01*
Y149823D01*
X-204658D01*
Y149581D01*
X-204176D01*
Y149340D01*
X-203693D01*
Y149099D01*
X-202969D01*
Y148857D01*
X-202486D01*
Y148616D01*
X-202003D01*
X-202003Y148375D01*
X-201521D01*
Y148133D01*
X-201038D01*
Y147892D01*
X-200555D01*
X-200555Y147650D01*
X-200073D01*
X-200073Y147409D01*
X-199590D01*
Y147168D01*
X-199107D01*
Y146926D01*
X-198625D01*
Y146685D01*
X-198142D01*
Y146444D01*
X-197659D01*
Y146202D01*
X-197176D01*
Y145961D01*
X-196694Y145961D01*
Y145720D01*
X-196452Y145720D01*
Y145478D01*
X-195970D01*
Y145237D01*
X-195487D01*
Y144996D01*
X-195004D01*
Y144754D01*
X-194763D01*
Y144513D01*
X-194280D01*
Y144272D01*
X-194039D01*
Y144030D01*
X-193556D01*
Y143789D01*
X-193074D01*
Y143547D01*
X-192832D01*
X-192832Y143306D01*
X-192349D01*
Y143065D01*
X-192108D01*
Y142823D01*
X-191867D01*
Y142582D01*
X-191384D01*
Y142341D01*
X-191143D01*
Y142099D01*
X-190660D01*
Y141858D01*
X-190419D01*
Y141617D01*
X-190177D01*
Y141375D01*
X-189695D01*
Y141134D01*
X-189453Y141134D01*
Y140893D01*
X-189212Y140893D01*
Y140651D01*
X-188971Y140651D01*
Y140410D01*
X-188488D01*
Y140169D01*
X-188247Y140169D01*
Y139927D01*
X-188005D01*
Y139686D01*
X-187764D01*
Y139445D01*
X-187523D01*
Y139203D01*
X-187281D01*
Y138962D01*
X-186798D01*
Y138721D01*
X-186557D01*
Y138479D01*
X-186316D01*
Y138238D01*
X-186074D01*
Y137997D01*
X-185833D01*
Y137755D01*
X-185592D01*
X-185592Y137514D01*
X-185350D01*
X-185350Y137273D01*
X-185109D01*
X-185109Y137031D01*
X-184868D01*
X-184868Y136790D01*
X-184626D01*
X-184626Y136548D01*
X-184385D01*
Y136307D01*
X-184144D01*
Y135824D01*
X-183902D01*
Y135583D01*
X-183661D01*
Y135342D01*
X-183419D01*
Y135100D01*
X-183178D01*
Y134859D01*
X-182937D01*
Y134376D01*
X-182696D01*
Y134135D01*
X-182454D01*
Y133894D01*
X-182213D01*
X-182213Y133411D01*
X-181971D01*
X-181971Y133169D01*
X-181730D01*
Y132687D01*
X-181489D01*
X-181489Y132445D01*
X-181247D01*
Y132204D01*
X-181006D01*
Y131721D01*
X-180765D01*
Y131239D01*
X-180523D01*
Y130997D01*
X-180282D01*
X-180282Y130515D01*
X-180041D01*
Y130032D01*
X-179799D01*
Y129549D01*
X-179558D01*
Y129067D01*
X-179317D01*
Y128584D01*
X-179075D01*
Y127860D01*
X-178834D01*
Y127377D01*
X-178593D01*
Y126653D01*
X-178351Y126653D01*
Y125929D01*
X-178110Y125929D01*
Y124964D01*
X-177868Y124964D01*
Y123998D01*
X-177627Y123998D01*
Y122550D01*
X-177386D01*
Y116758D01*
X-177627D01*
Y115310D01*
X-177868Y115310D01*
Y114344D01*
X-178110Y114344D01*
Y113620D01*
X-178351Y113620D01*
Y112655D01*
X-178593D01*
Y112172D01*
X-178834D01*
Y111448D01*
X-179075D01*
Y110965D01*
X-179317D01*
Y110483D01*
X-179558D01*
Y109759D01*
X-179799D01*
Y109276D01*
X-180041D01*
Y109035D01*
X-180282D01*
Y108552D01*
X-180523Y108552D01*
Y108069D01*
X-180765D01*
Y107586D01*
X-181006D01*
Y107345D01*
X-181247D01*
Y106862D01*
X-181489D01*
X-181489Y106621D01*
X-181730D01*
Y106138D01*
X-181971D01*
X-181971Y105897D01*
X-182213D01*
X-182213Y105656D01*
X-182454D01*
Y105173D01*
X-182696D01*
Y104932D01*
X-182937D01*
Y104690D01*
X-183178D01*
Y104449D01*
X-183419D01*
Y103966D01*
X-183661D01*
Y103725D01*
X-183902D01*
Y103483D01*
X-184144D01*
Y103242D01*
X-184385Y103242D01*
Y103001D01*
X-184626Y103001D01*
Y102760D01*
X-184868Y102760D01*
Y102518D01*
X-185109Y102518D01*
Y102277D01*
X-185350Y102277D01*
Y102036D01*
X-185592Y102036D01*
X-185592Y101794D01*
X-185833D01*
X-185833Y101553D01*
X-186074D01*
Y101311D01*
X-186316D01*
Y101070D01*
X-186557D01*
Y100829D01*
X-186798D01*
Y100587D01*
X-187040D01*
Y100346D01*
X-187281D01*
Y100105D01*
X-187523D01*
Y99863D01*
X-187764D01*
Y99622D01*
X-188005D01*
Y99381D01*
X-188488D01*
Y99139D01*
X-188729Y99139D01*
Y98898D01*
X-188971Y98898D01*
Y98657D01*
X-189212Y98657D01*
Y98415D01*
X-189695D01*
Y98174D01*
X-189936Y98174D01*
Y97933D01*
X-190177D01*
Y97691D01*
X-190660D01*
Y97450D01*
X-190901D01*
Y97208D01*
X-191143D01*
Y96967D01*
X-191625D01*
Y96726D01*
X-191867D01*
Y96484D01*
X-192349D01*
Y96243D01*
X-192591D01*
Y96002D01*
X-193074D01*
X-193074Y95760D01*
X-193315D01*
X-193315Y95519D01*
X-193798D01*
X-193798Y95278D01*
X-194039D01*
Y95036D01*
X-194522D01*
Y94795D01*
X-194763D01*
Y94554D01*
X-195246D01*
Y94312D01*
X-195728D01*
Y94071D01*
X-195970D01*
Y93830D01*
X-196452D01*
Y93588D01*
X-196935D01*
Y93347D01*
X-197418D01*
Y93105D01*
X-197901D01*
Y92864D01*
X-198383Y92864D01*
Y92623D01*
X-198625D01*
Y92381D01*
X-199107D01*
Y92140D01*
X-199831Y92140D01*
Y91899D01*
X-200314D01*
Y91657D01*
X-200797D01*
Y91416D01*
X-201279Y91416D01*
Y91175D01*
X-201762D01*
X-201762Y90933D01*
X-202245D01*
X-202245Y90692D01*
X-202728D01*
Y90451D01*
X-203210D01*
Y90209D01*
X-203934D01*
Y89968D01*
X-204417D01*
Y89727D01*
X-205141D01*
Y89485D01*
X-205624D01*
Y89244D01*
X-206348D01*
Y89003D01*
X-206830D01*
X-206831Y88761D01*
X-207554D01*
X-207554Y88520D01*
X-208037D01*
Y88279D01*
X-208761Y88279D01*
Y88037D01*
X-209485Y88037D01*
Y87796D01*
X-210209D01*
Y87555D01*
X-210933D01*
Y87313D01*
X-211657Y87313D01*
Y87072D01*
X-212381Y87072D01*
X-212381Y86830D01*
X-213347D01*
X-213347Y86589D01*
X-214071D01*
Y86348D01*
X-215036D01*
Y86106D01*
X-215760D01*
Y85865D01*
X-216726D01*
Y85624D01*
X-217691D01*
Y85382D01*
X-218657D01*
Y85141D01*
X-219622D01*
Y84900D01*
X-220587D01*
Y84658D01*
X-221794D01*
X-221794Y84417D01*
X-223001D01*
X-223001Y84176D01*
X-224449D01*
X-224449Y83934D01*
X-225656D01*
Y83693D01*
X-227345D01*
Y83452D01*
X-228793D01*
Y83210D01*
X-230483D01*
Y82969D01*
X-232655D01*
Y82727D01*
X-234827D01*
Y82486D01*
X-237723D01*
Y82245D01*
X-242550D01*
Y82003D01*
X-251480D01*
Y82245D01*
X-256066D01*
Y82486D01*
X-258962D01*
Y82727D01*
X-261134D01*
Y82969D01*
X-263306D01*
Y83210D01*
X-264996D01*
Y83452D01*
X-266685D01*
Y83693D01*
X-268133D01*
Y83934D01*
X-269581Y83934D01*
Y84176D01*
X-270788D01*
X-270788Y84417D01*
X-271995D01*
X-271995Y84658D01*
X-273202D01*
Y84900D01*
X-274167D01*
Y85141D01*
X-275132D01*
Y85382D01*
X-276098D01*
Y85624D01*
X-277063D01*
Y85865D01*
X-278029D01*
Y86106D01*
X-278994D01*
Y86348D01*
X-279718D01*
Y86589D01*
X-280442D01*
Y86830D01*
X-281407D01*
X-281407Y87072D01*
X-282132D01*
Y87313D01*
X-282855D01*
Y87555D01*
X-283580Y87555D01*
Y87796D01*
X-284304Y87796D01*
Y88037D01*
X-285028D01*
Y88279D01*
X-285752D01*
X-285752Y88520D01*
X-286234D01*
X-286234Y88761D01*
X-286959D01*
X-286959Y89003D01*
X-287682D01*
Y89244D01*
X-288165D01*
Y89485D01*
X-288889D01*
Y89727D01*
X-289372D01*
Y89968D01*
X-289855D01*
Y90209D01*
X-290579D01*
Y90451D01*
X-291061D01*
X-291061Y90692D01*
X-291544D01*
X-291544Y90933D01*
X-292027D01*
X-292027Y91175D01*
X-292751D01*
Y91416D01*
X-293234D01*
Y91657D01*
X-293716D01*
Y91899D01*
X-294199Y91899D01*
Y92140D01*
X-294682D01*
Y92381D01*
X-295164D01*
Y92623D01*
X-295406Y92623D01*
Y92864D01*
X-295888D01*
Y93105D01*
X-296371D01*
Y93347D01*
X-296854D01*
Y93588D01*
X-297337D01*
Y93830D01*
X-297819D01*
Y94071D01*
X-298060D01*
Y94312D01*
X-298543D01*
Y94554D01*
X-299026D01*
X-299026Y94795D01*
X-299267D01*
X-299267Y95036D01*
X-299750D01*
Y95278D01*
X-299991D01*
Y95519D01*
X-300474D01*
Y95760D01*
X-300957D01*
X-300957Y96002D01*
X-301198D01*
Y96243D01*
X-301681D01*
Y96484D01*
X-301922D01*
Y96726D01*
X-302164D01*
Y96967D01*
X-302646D01*
Y97208D01*
X-302887D01*
Y97450D01*
X-303370D01*
Y97691D01*
X-303612Y97691D01*
Y97933D01*
X-303853D01*
Y98174D01*
X-304336D01*
Y98415D01*
X-304577D01*
Y98657D01*
X-304818D01*
Y98898D01*
X-305060Y98898D01*
Y99139D01*
X-305301Y99139D01*
Y99381D01*
X-305784D01*
Y99622D01*
X-306025Y99622D01*
Y99863D01*
X-306266Y99863D01*
Y100105D01*
X-306508D01*
Y100346D01*
X-306749D01*
Y100587D01*
X-306990D01*
Y100829D01*
X-307232D01*
Y101070D01*
X-307473D01*
Y101311D01*
X-307956D01*
Y101794D01*
X-308197D01*
Y102036D01*
X-308680D01*
Y102518D01*
X-308921D01*
Y102760D01*
X-309163D01*
Y103001D01*
X-309404D01*
Y103242D01*
X-309645Y103242D01*
Y103483D01*
X-309887Y103483D01*
Y103725D01*
X-310128Y103725D01*
Y103966D01*
X-310369Y103966D01*
Y104208D01*
X-310611D01*
Y104690D01*
X-310852D01*
Y104932D01*
X-311093D01*
Y105173D01*
X-311335D01*
Y105656D01*
X-311576D01*
Y105897D01*
X-311817D01*
Y106138D01*
X-312059D01*
Y106621D01*
X-312300D01*
X-312300Y106862D01*
X-312542D01*
Y107345D01*
X-312783D01*
Y107586D01*
X-313024D01*
Y108069D01*
X-313265D01*
Y108552D01*
X-313507D01*
Y108793D01*
X-313748D01*
Y109276D01*
X-313990D01*
Y109759D01*
X-314231D01*
Y110241D01*
X-314472D01*
X-314472Y110965D01*
X-314714D01*
X-314714Y111448D01*
X-314955D01*
Y111931D01*
X-315196D01*
Y112655D01*
X-315438D01*
Y113379D01*
X-315679D01*
Y114344D01*
X-315920D01*
Y115310D01*
X-316162D01*
Y116758D01*
X-316403D01*
Y122792D01*
X-316162D01*
Y123998D01*
X-315920D01*
Y125205D01*
X-315679D01*
Y125929D01*
X-315438D01*
Y126653D01*
X-315196D01*
Y127377D01*
X-314955D01*
Y128101D01*
X-314714D01*
Y128584D01*
X-314472Y128584D01*
Y129067D01*
X-314231Y129067D01*
Y129549D01*
X-313990Y129549D01*
Y130032D01*
X-313748Y130032D01*
Y130515D01*
X-313507Y130515D01*
Y130997D01*
X-313265D01*
Y131239D01*
X-313024D01*
Y131721D01*
X-312783D01*
Y132204D01*
X-312542D01*
Y132445D01*
X-312300D01*
Y132928D01*
X-312059D01*
X-312059Y133169D01*
X-311817D01*
Y133411D01*
X-311576D01*
Y133894D01*
X-311335D01*
Y134135D01*
X-311093D01*
Y134618D01*
X-310852D01*
Y134859D01*
X-310611D01*
Y135100D01*
X-310369D01*
Y135342D01*
X-310128D01*
Y135583D01*
X-309887D01*
Y135824D01*
X-309645D01*
Y136307D01*
X-309404D01*
Y136548D01*
X-309163Y136548D01*
Y136790D01*
X-308921D01*
Y137031D01*
X-308680D01*
Y137273D01*
X-308438D01*
Y137514D01*
X-308197D01*
Y137755D01*
X-307956D01*
Y137997D01*
X-307715D01*
Y138238D01*
X-307473D01*
Y138479D01*
X-307232D01*
Y138721D01*
X-306990D01*
Y138962D01*
X-306749D01*
Y139203D01*
X-306266D01*
Y139445D01*
X-306025Y139445D01*
Y139686D01*
X-305784Y139686D01*
Y139927D01*
X-305542Y139927D01*
Y140169D01*
X-305301Y140169D01*
Y140410D01*
X-305060Y140410D01*
Y140651D01*
X-304577D01*
Y140893D01*
X-304336D01*
Y141134D01*
X-304094D01*
Y141375D01*
X-303612D01*
X-303612Y141617D01*
X-303370D01*
X-303370Y141858D01*
X-303129D01*
Y142099D01*
X-302646D01*
Y142341D01*
X-302405D01*
Y142582D01*
X-302164D01*
Y142823D01*
X-301681D01*
Y143065D01*
X-301439D01*
Y143306D01*
X-300957D01*
Y143547D01*
X-300715D01*
Y143789D01*
X-300233D01*
Y144030D01*
X-299991D01*
Y144272D01*
X-299509D01*
Y144513D01*
X-299026Y144513D01*
Y144754D01*
X-298785Y144754D01*
Y144996D01*
X-298302D01*
Y145237D01*
X-297819D01*
X-297819Y145478D01*
X-297578D01*
X-297578Y145720D01*
X-297095D01*
X-297095Y145961D01*
X-296612D01*
Y146202D01*
X-296130D01*
Y146444D01*
X-295647D01*
Y146685D01*
X-295164D01*
Y146926D01*
X-294923D01*
Y147168D01*
X-294440D01*
Y147409D01*
X-293958D01*
Y147650D01*
X-293234Y147650D01*
Y147892D01*
X-292751D01*
Y148133D01*
X-292268D01*
X-292268Y148375D01*
X-291785D01*
X-291785Y148616D01*
X-291303D01*
X-291303Y148857D01*
X-290820D01*
X-290820Y149099D01*
X-290096D01*
Y149340D01*
X-289613D01*
Y149581D01*
X-289131D01*
Y149823D01*
X-288407D01*
Y150064D01*
X-287924D01*
Y150305D01*
X-287200Y150305D01*
Y150547D01*
X-286476D01*
Y150788D01*
X-285993D01*
Y151029D01*
X-285269Y151029D01*
Y151271D01*
X-284545D01*
Y151512D01*
X-283821Y151512D01*
Y151753D01*
X-283097Y151753D01*
Y151995D01*
X-282373Y151995D01*
Y152236D01*
X-281649D01*
Y152478D01*
X-280925D01*
Y152719D01*
X-279959Y152719D01*
Y152960D01*
X-279235Y152960D01*
Y153202D01*
X-278270D01*
Y153443D01*
X-277546D01*
Y153684D01*
X-276580D01*
Y153926D01*
X-275615D01*
Y154167D01*
X-274650D01*
Y154408D01*
X-273684D01*
Y154650D01*
X-272477D01*
Y154891D01*
X-271271Y154891D01*
X-271271Y155132D01*
X-270064D01*
Y155374D01*
X-268616Y155374D01*
Y155615D01*
X-267168D01*
Y155856D01*
X-265720D01*
X-265720Y156098D01*
X-264030D01*
Y156339D01*
X-262099Y156339D01*
Y156580D01*
X-259927D01*
X-259927Y156822D01*
X-257514Y156822D01*
Y157063D01*
X-253894D01*
Y157304D01*
X-239895D01*
Y157063D01*
D02*
G37*
G36*
X-183661Y69936D02*
X-183419D01*
Y58834D01*
Y58593D01*
Y49904D01*
X-183661D01*
Y48939D01*
X-183902D01*
Y48456D01*
X-184144D01*
Y47973D01*
X-184385D01*
Y47732D01*
X-184626D01*
X-184626Y47491D01*
X-184868D01*
Y47008D01*
X-185350D01*
X-185350Y46767D01*
X-185592D01*
X-185592Y46525D01*
X-185833D01*
X-185833Y46284D01*
X-186316D01*
Y46042D01*
X-186798D01*
Y45801D01*
X-187523Y45801D01*
Y45560D01*
X-188488D01*
Y45318D01*
X-207554Y45318D01*
Y45560D01*
X-208520Y45560D01*
Y45801D01*
X-209244Y45801D01*
Y46042D01*
X-209727D01*
Y46284D01*
X-210209D01*
Y46525D01*
X-210451D01*
Y46767D01*
X-210692D01*
X-210692Y47008D01*
X-210933D01*
X-210933Y47249D01*
X-211175D01*
X-211175Y47491D01*
X-211416D01*
Y47732D01*
X-211657D01*
Y47973D01*
X-211899D01*
Y48456D01*
X-212140D01*
Y48939D01*
X-212381D01*
Y49904D01*
X-212623D01*
X-212623Y69936D01*
X-206106D01*
Y52559D01*
X-205865D01*
Y52076D01*
X-205624D01*
Y51835D01*
X-205382D01*
Y51593D01*
X-205141D01*
Y51352D01*
X-204658Y51352D01*
Y51111D01*
X-191625D01*
X-191625Y51352D01*
X-191143D01*
Y51593D01*
X-190660D01*
Y51835D01*
X-190419D01*
Y52318D01*
X-190177D01*
Y52800D01*
X-189936D01*
Y70177D01*
X-189695D01*
Y69936D01*
X-183902D01*
Y70177D01*
X-183661D01*
Y69936D01*
D02*
G37*
G36*
X-257997D02*
X-257755D01*
Y69453D01*
X-257514D01*
Y68971D01*
X-257272D01*
Y68488D01*
X-257031D01*
X-257031Y68005D01*
X-256790D01*
Y67764D01*
X-256548D01*
Y67281D01*
X-256307D01*
Y66799D01*
X-256066D01*
Y66316D01*
X-255824D01*
Y65833D01*
X-255583D01*
Y65350D01*
X-255342D01*
Y65109D01*
X-255100D01*
Y64626D01*
X-254859D01*
X-254859Y64144D01*
X-254618D01*
Y63661D01*
X-254376D01*
Y63178D01*
X-254135D01*
Y62695D01*
X-253894D01*
Y62213D01*
X-253652D01*
Y61971D01*
X-253411Y61972D01*
Y61489D01*
X-253169Y61489D01*
Y61006D01*
X-252928Y61006D01*
Y60523D01*
X-252687Y60523D01*
Y60041D01*
X-252446D01*
Y59558D01*
X-252204D01*
Y59317D01*
X-251963D01*
Y58834D01*
X-251721D01*
Y58351D01*
X-251480D01*
Y57868D01*
X-251239D01*
Y57386D01*
X-250997D01*
Y56903D01*
X-250756D01*
Y56420D01*
X-250515D01*
Y55938D01*
X-250273D01*
Y55696D01*
X-250032Y55696D01*
Y55214D01*
X-249791D01*
Y54731D01*
X-249549D01*
X-249549Y54248D01*
X-249308D01*
Y53766D01*
X-249067D01*
Y53283D01*
X-248825D01*
X-248825Y53042D01*
X-248584D01*
Y52559D01*
X-248342D01*
Y52076D01*
X-248101D01*
Y51593D01*
X-247860D01*
Y51111D01*
X-247619D01*
Y50628D01*
X-247377D01*
Y50145D01*
X-247136D01*
Y49904D01*
X-246894D01*
Y49421D01*
X-246653Y49421D01*
Y48939D01*
X-246412D01*
Y48456D01*
X-246170D01*
Y47973D01*
X-245929D01*
X-245929Y47491D01*
X-245688D01*
X-245688Y47249D01*
X-245446D01*
Y46767D01*
X-245205D01*
Y46284D01*
X-244964D01*
X-244964Y45801D01*
X-244722Y45801D01*
X-244722Y45318D01*
X-252204D01*
Y45801D01*
X-252446Y45801D01*
Y46284D01*
X-252687Y46284D01*
Y46766D01*
X-252928Y46767D01*
Y47249D01*
X-253169Y47249D01*
Y47491D01*
X-253411D01*
X-253411Y47973D01*
X-253652D01*
Y48456D01*
X-253894D01*
Y48939D01*
X-254135D01*
Y49421D01*
X-268857Y49421D01*
Y48939D01*
X-269099D01*
Y48697D01*
X-269340D01*
Y48215D01*
X-269581D01*
Y47732D01*
X-269823D01*
Y47249D01*
X-270064D01*
Y46767D01*
X-270305D01*
Y46525D01*
X-270547D01*
Y46042D01*
X-270788D01*
Y45560D01*
X-271029Y45560D01*
Y45318D01*
X-278753D01*
Y45560D01*
X-278511Y45560D01*
Y46042D01*
X-278270D01*
Y46525D01*
X-278029D01*
Y47008D01*
X-277787D01*
Y47249D01*
X-277546D01*
Y47732D01*
X-277304D01*
Y48215D01*
X-277063D01*
Y48697D01*
X-276822D01*
X-276822Y49180D01*
X-276580D01*
Y49663D01*
X-276339D01*
Y50145D01*
X-276098D01*
Y50387D01*
X-275856D01*
Y50869D01*
X-275615Y50869D01*
Y51352D01*
X-275374Y51352D01*
Y51835D01*
X-275132D01*
Y52318D01*
X-274891D01*
Y52800D01*
X-274650D01*
Y53042D01*
X-274408D01*
Y53524D01*
X-274167D01*
Y54007D01*
X-273926D01*
Y54490D01*
X-273684D01*
Y54972D01*
X-273443D01*
Y55455D01*
X-273202D01*
Y55696D01*
X-272960Y55696D01*
Y56179D01*
X-272719D01*
Y56662D01*
X-272477D01*
Y57144D01*
X-272236D01*
X-272236Y57627D01*
X-271995D01*
Y58110D01*
X-271753D01*
Y58593D01*
X-271512D01*
X-271512Y58834D01*
X-271271D01*
Y59317D01*
X-271029D01*
Y59799D01*
X-270788D01*
Y60282D01*
X-270547D01*
Y60765D01*
X-270305D01*
Y61247D01*
X-270064D01*
Y61730D01*
X-269823D01*
Y61972D01*
X-269581D01*
Y62454D01*
X-269340D01*
Y62937D01*
X-269099D01*
Y63420D01*
X-268857D01*
Y63902D01*
X-268616D01*
Y64385D01*
X-268375Y64385D01*
Y64626D01*
X-268133Y64626D01*
Y65109D01*
X-267892Y65109D01*
Y65592D01*
X-267651Y65592D01*
Y66074D01*
X-267409Y66074D01*
Y66557D01*
X-267168D01*
Y67040D01*
X-266926D01*
Y67523D01*
X-266685D01*
Y67764D01*
X-266444D01*
Y68246D01*
X-266202D01*
Y68729D01*
X-265961D01*
Y69212D01*
X-265720D01*
Y69695D01*
X-265478D01*
X-265478Y69936D01*
X-265237D01*
Y70177D01*
X-264996D01*
Y69936D01*
X-264513D01*
Y70177D01*
X-260893D01*
Y69936D01*
X-258238D01*
Y70177D01*
X-257997D01*
Y69936D01*
D02*
G37*
G36*
X-216243Y45318D02*
X-240861D01*
Y45560D01*
X-241585D01*
Y45801D01*
X-242068D01*
Y46042D01*
X-242309D01*
Y46284D01*
X-242550Y46284D01*
Y46525D01*
X-242792Y46525D01*
Y46767D01*
X-243033D01*
Y47008D01*
X-243274D01*
Y47249D01*
X-243516D01*
Y47491D01*
X-243757D01*
Y47973D01*
X-243998D01*
Y48456D01*
X-244240D01*
Y48939D01*
X-244481D01*
Y49663D01*
X-244722D01*
X-244722Y50628D01*
X-244964D01*
Y54248D01*
X-244722D01*
Y55455D01*
X-244481D01*
Y56179D01*
X-244240D01*
Y56662D01*
X-243998D01*
Y57144D01*
X-243757D01*
Y57386D01*
X-243516D01*
Y57627D01*
X-243274D01*
Y57868D01*
X-243033D01*
Y58110D01*
X-242792D01*
Y58351D01*
X-242309D01*
X-242309Y58593D01*
X-242550D01*
Y58834D01*
X-243033D01*
Y59075D01*
X-243274D01*
Y59317D01*
X-243516D01*
Y59558D01*
X-243757D01*
Y60041D01*
X-243998D01*
Y60523D01*
X-244240D01*
Y61006D01*
X-244481D01*
Y61730D01*
X-244722D01*
X-244722Y65833D01*
X-244481D01*
X-244481Y66557D01*
X-244240D01*
X-244240Y67040D01*
X-243998D01*
Y67523D01*
X-243757D01*
Y67764D01*
Y68005D01*
X-243516D01*
Y68246D01*
X-243274D01*
Y68488D01*
X-243033D01*
Y68729D01*
X-242792D01*
Y68971D01*
X-242550D01*
X-242550Y69212D01*
X-242068D01*
X-242068Y69453D01*
X-241585D01*
Y69695D01*
X-240861Y69695D01*
Y69936D01*
X-216243D01*
Y45318D01*
D02*
G37*
G36*
X-155906Y69695D02*
X-155182D01*
X-155182Y69453D01*
X-154458D01*
X-154458Y69212D01*
X-154216D01*
X-154216Y68971D01*
X-153734D01*
Y68729D01*
X-153251D01*
Y68488D01*
X-153010D01*
Y68246D01*
X-152768D01*
Y68005D01*
X-152527D01*
Y67764D01*
X-152285D01*
Y67281D01*
X-152044D01*
Y67040D01*
X-151803D01*
Y66557D01*
X-151561Y66557D01*
Y66074D01*
X-151320Y66074D01*
Y65350D01*
X-151079Y65350D01*
Y64385D01*
X-150837Y64385D01*
Y60041D01*
X-151079D01*
Y59075D01*
X-151320D01*
X-151320Y58593D01*
X-151561D01*
Y58110D01*
X-151803Y58110D01*
Y57868D01*
X-152044Y57868D01*
Y57627D01*
X-152285Y57627D01*
Y57144D01*
X-152527D01*
Y56903D01*
X-152768D01*
Y56662D01*
X-153251D01*
Y56420D01*
X-153492D01*
Y56179D01*
X-153975D01*
Y55938D01*
X-154699D01*
Y55696D01*
X-155423D01*
Y55455D01*
X-156871D01*
Y55214D01*
X-165560D01*
Y54972D01*
X-172800D01*
Y54731D01*
X-173283D01*
Y54490D01*
X-173524Y54490D01*
Y54248D01*
X-173766Y54248D01*
X-173766Y54007D01*
X-174007D01*
Y51593D01*
X-173766Y51593D01*
Y51111D01*
X-173524Y51111D01*
Y50869D01*
X-173283Y50869D01*
Y50628D01*
X-172800D01*
Y50387D01*
X-159043Y50387D01*
Y50628D01*
X-158561D01*
Y50869D01*
X-158319Y50869D01*
Y51111D01*
X-158078Y51111D01*
Y51352D01*
X-157837Y51352D01*
Y52076D01*
X-157595D01*
Y53042D01*
X-150837D01*
Y52800D01*
X-150596D01*
Y52559D01*
X-150837D01*
Y49421D01*
X-151079D01*
Y48697D01*
X-151320D01*
Y48215D01*
X-151561D01*
Y47732D01*
X-151803D01*
Y47491D01*
X-152044Y47491D01*
Y47249D01*
X-152285Y47249D01*
Y47008D01*
X-152527D01*
Y46767D01*
X-152768D01*
Y46525D01*
X-153010D01*
Y46284D01*
X-153492D01*
Y46042D01*
X-153975D01*
Y45801D01*
X-154699Y45801D01*
Y45560D01*
X-155423D01*
Y45318D01*
X-175696Y45318D01*
Y45560D01*
X-176662Y45560D01*
Y45801D01*
X-177145D01*
Y46042D01*
X-177627D01*
Y46284D01*
X-178110D01*
Y46525D01*
X-178351Y46525D01*
Y46766D01*
X-178593Y46767D01*
Y47008D01*
X-178834Y47008D01*
Y47249D01*
X-179075D01*
Y47491D01*
X-179317D01*
Y47973D01*
X-179558D01*
Y48456D01*
X-179799D01*
Y48939D01*
X-180041D01*
Y49904D01*
X-180282D01*
X-180282Y51352D01*
X-180523D01*
Y53524D01*
X-180282D01*
X-180282Y54972D01*
X-180041D01*
Y55696D01*
X-179799D01*
Y56420D01*
X-179558D01*
Y56662D01*
X-179317D01*
Y57144D01*
X-179075D01*
Y57386D01*
X-178834D01*
Y57868D01*
X-178593Y57868D01*
Y58110D01*
X-178351Y58110D01*
Y58351D01*
X-177868D01*
X-177868Y58593D01*
X-177627D01*
Y58834D01*
X-177145D01*
Y59075D01*
X-176662D01*
Y59317D01*
X-176179D01*
Y59558D01*
X-175455D01*
Y59799D01*
X-174248D01*
Y60041D01*
X-169180D01*
Y60282D01*
X-163870Y60282D01*
Y60523D01*
X-158561Y60523D01*
Y60765D01*
X-157837D01*
Y61006D01*
X-157595D01*
Y61247D01*
X-157354D01*
Y61489D01*
X-157113D01*
Y63661D01*
X-157354D01*
Y64144D01*
X-157595D01*
Y64385D01*
X-157837D01*
Y64626D01*
X-158561D01*
X-158561Y64868D01*
X-171593D01*
X-171593Y64626D01*
X-172559D01*
Y64385D01*
X-172800D01*
Y64144D01*
X-173041D01*
Y63902D01*
X-173283D01*
Y63178D01*
X-173524D01*
Y62695D01*
X-180282D01*
X-180282Y66316D01*
X-180041D01*
Y67040D01*
X-179799D01*
Y67523D01*
X-179558D01*
Y68005D01*
X-179317D01*
Y68246D01*
X-179075D01*
Y68488D01*
X-178834D01*
Y68729D01*
X-178351D01*
X-178351Y68971D01*
X-178110D01*
X-178110Y69212D01*
X-177627D01*
X-177627Y69453D01*
X-176903D01*
Y69695D01*
X-176179D01*
Y69936D01*
X-155906D01*
X-155906Y69695D01*
D02*
G37*
G36*
X-312300Y69936D02*
X-312059D01*
Y63902D01*
Y63661D01*
Y50387D01*
X-312300Y50387D01*
Y49180D01*
X-312542D01*
X-312542Y48456D01*
X-312783D01*
Y47973D01*
X-313024D01*
Y47732D01*
X-313265D01*
Y47491D01*
X-313507D01*
X-313507Y47249D01*
X-313748D01*
X-313748Y47008D01*
X-313990D01*
X-313990Y46767D01*
X-314231D01*
X-314231Y46525D01*
X-314472D01*
X-314472Y46284D01*
X-314955D01*
Y46042D01*
X-315438D01*
Y45801D01*
X-316162D01*
Y45560D01*
X-317127D01*
Y45318D01*
X-336194D01*
Y45560D01*
X-337159Y45560D01*
Y45801D01*
X-337883D01*
Y46042D01*
X-338366D01*
X-338366Y46284D01*
X-338849D01*
X-338848Y46525D01*
X-339090D01*
X-339090Y46767D01*
X-339331D01*
X-339331Y47008D01*
X-339814D01*
X-339814Y47249D01*
X-340055D01*
X-340055Y47732D01*
X-340297D01*
Y47973D01*
X-340538D01*
Y48456D01*
X-340779D01*
Y48939D01*
X-341021D01*
Y49904D01*
X-341262Y49904D01*
Y69936D01*
X-335228D01*
Y70177D01*
X-334987D01*
Y69936D01*
X-334746D01*
Y52559D01*
X-334504D01*
Y52076D01*
X-334263D01*
Y51835D01*
X-334022D01*
Y51593D01*
X-333780D01*
Y51352D01*
X-333298D01*
Y51111D01*
X-320265D01*
Y51352D01*
X-319782D01*
Y51593D01*
X-319299D01*
Y52076D01*
X-319058D01*
Y52318D01*
X-318817D01*
Y53042D01*
X-318575D01*
Y69936D01*
X-312542D01*
Y70177D01*
X-312300D01*
Y69936D01*
D02*
G37*
G36*
X-344158Y47973D02*
X-343917D01*
Y47491D01*
X-343917Y47249D01*
X-343917Y46042D01*
X-344400D01*
Y47008D01*
X-344641D01*
X-344641Y46767D01*
X-344882D01*
Y46284D01*
X-345124D01*
Y46042D01*
X-345365D01*
Y46767D01*
X-345124D01*
Y47249D01*
X-345365D01*
Y47973D01*
X-344882D01*
Y48215D01*
X-344158D01*
Y47973D01*
D02*
G37*
G36*
Y48697D02*
X-343676D01*
Y48456D01*
X-343434D01*
Y48215D01*
X-343193D01*
Y47973D01*
X-342952D01*
X-342952Y47491D01*
X-342952Y47249D01*
Y46284D01*
X-343193Y46284D01*
Y45801D01*
X-343434Y45801D01*
Y45560D01*
X-343917D01*
X-343917Y45318D01*
X-345365D01*
Y45560D01*
X-345848D01*
Y45801D01*
X-346089D01*
Y46284D01*
X-346330D01*
Y47973D01*
X-346089D01*
Y48456D01*
X-345606D01*
Y48215D01*
X-345848D01*
Y47732D01*
X-346089D01*
Y46525D01*
X-345848D01*
Y46042D01*
X-345606D01*
Y45801D01*
X-345124Y45801D01*
Y45560D01*
X-344158D01*
Y45801D01*
X-343676Y45801D01*
Y46042D01*
X-343434D01*
X-343434Y46525D01*
X-343193D01*
Y47732D01*
X-343434D01*
Y47973D01*
X-343676D01*
Y48215D01*
X-343917D01*
Y48456D01*
X-344400D01*
Y48697D01*
X-344882D01*
Y48456D01*
X-345606D01*
Y48697D01*
X-345124D01*
Y48939D01*
X-344158D01*
Y48697D01*
D02*
G37*
G36*
X-280442Y45318D02*
X-286959Y45318D01*
X-286959Y54007D01*
X-301198D01*
X-301198Y53766D01*
X-301922D01*
X-301922Y53524D01*
X-302164D01*
X-302164Y53283D01*
X-302405D01*
Y52800D01*
X-302646D01*
Y52076D01*
X-302887D01*
Y45318D01*
X-309404D01*
Y51111D01*
X-309163D01*
Y52800D01*
X-308921D01*
Y53766D01*
X-308680D01*
Y54490D01*
X-308438D01*
Y54972D01*
X-308197D01*
Y55455D01*
X-307956D01*
Y55696D01*
X-307715D01*
X-307715Y56179D01*
X-307473D01*
Y56420D01*
X-307232D01*
Y56662D01*
X-306990D01*
Y56903D01*
X-306749D01*
Y57144D01*
X-306990D01*
Y57386D01*
X-307232D01*
Y57627D01*
X-307473D01*
Y57868D01*
X-307715D01*
X-307715Y58110D01*
X-307956D01*
Y58351D01*
X-308197D01*
Y58834D01*
X-308438D01*
Y59317D01*
X-308680D01*
Y60041D01*
X-308921D01*
Y61489D01*
X-309163D01*
Y63661D01*
X-308921D01*
Y65350D01*
X-308680D01*
Y66316D01*
X-308438D01*
Y66799D01*
X-308197D01*
Y67281D01*
X-307956D01*
Y67764D01*
X-307715D01*
Y68005D01*
X-307473D01*
Y68488D01*
X-307232D01*
Y68729D01*
X-306990D01*
Y68971D01*
X-306508D01*
Y69212D01*
X-306266D01*
X-306266Y69453D01*
X-305784D01*
X-305784Y69695D01*
X-305060D01*
X-305060Y69936D01*
X-280442D01*
Y45318D01*
D02*
G37*
%LPC*%
G36*
X-81587Y185038D02*
X-81940D01*
Y184862D01*
X-81587D01*
Y185038D01*
D02*
G37*
G36*
X-81940Y184862D02*
X-82293D01*
Y184686D01*
X-82646D01*
Y184509D01*
X-82999D01*
Y184333D01*
X-83175D01*
Y184156D01*
X-83528D01*
Y183980D01*
X-83704D01*
Y183804D01*
X-83880D01*
Y183627D01*
X-84233D01*
Y183451D01*
X-85468D01*
Y183627D01*
X-87761D01*
Y183804D01*
X-89348D01*
Y183980D01*
X-90759D01*
Y184156D01*
X-91818D01*
Y184333D01*
X-100107D01*
Y184156D01*
X-101871D01*
Y183980D01*
X-102929D01*
Y183804D01*
X-103811D01*
Y183627D01*
X-104517D01*
Y183451D01*
X-104870D01*
Y183274D01*
X-105399D01*
Y183098D01*
X-105928D01*
Y182922D01*
X-106281D01*
Y182745D01*
X-106810D01*
Y182569D01*
X-107163D01*
Y182393D01*
X-107339D01*
Y182216D01*
X-107692D01*
Y182040D01*
X-108045D01*
Y181863D01*
X-108397D01*
Y181687D01*
X-108574D01*
Y181511D01*
X-108926D01*
Y181334D01*
X-109279D01*
Y181158D01*
X-109455D01*
Y180982D01*
X-108574D01*
Y181158D01*
X-107692D01*
Y181334D01*
X-106457D01*
Y181511D01*
X-100989D01*
Y181334D01*
X-99578D01*
Y181158D01*
X-98696D01*
Y180982D01*
X-98167D01*
Y180805D01*
X-97814D01*
Y180629D01*
X-97462D01*
Y180452D01*
X-97285D01*
Y180276D01*
X-97109D01*
Y180100D01*
X-96932D01*
Y179923D01*
X-96756D01*
Y179747D01*
X-96580D01*
Y179571D01*
X-96403D01*
Y179394D01*
X-96227D01*
Y179041D01*
X-96051D01*
Y178865D01*
X-95874D01*
Y178512D01*
X-95698D01*
Y177983D01*
X-95521D01*
Y177101D01*
X-95345D01*
Y175514D01*
X-95521D01*
Y174632D01*
X-95698D01*
Y174103D01*
X-95874D01*
Y173574D01*
X-96051D01*
Y173221D01*
X-96227D01*
Y173044D01*
X-96403D01*
Y172692D01*
X-96580D01*
Y172515D01*
X-96756D01*
Y172339D01*
X-96932D01*
Y171986D01*
X-97109D01*
Y171810D01*
X-97285D01*
Y171633D01*
X-97462D01*
Y171457D01*
X-97638D01*
Y171281D01*
X-97814D01*
Y171104D01*
X-97991D01*
Y170928D01*
X-98167D01*
Y170751D01*
X-98343D01*
Y170575D01*
X-98520D01*
Y170399D01*
X-98696D01*
Y170222D01*
X-98873D01*
Y170046D01*
X-99226D01*
Y169870D01*
X-99402D01*
Y169693D01*
X-99578D01*
Y169517D01*
X-99755D01*
Y169340D01*
X-100107D01*
Y169164D01*
X-100460D01*
Y168988D01*
X-100813D01*
Y168811D01*
X-101166D01*
Y168635D01*
X-101695D01*
Y168459D01*
X-102400D01*
Y168282D01*
X-103106D01*
Y168106D01*
X-103988D01*
Y168282D01*
X-105046D01*
Y168459D01*
X-105928D01*
Y168635D01*
X-106810D01*
Y168811D01*
X-107692D01*
Y168988D01*
X-108574D01*
Y169164D01*
X-109279D01*
Y169340D01*
X-109808D01*
Y169517D01*
X-110161D01*
Y169693D01*
X-110514D01*
Y169870D01*
X-110690D01*
Y170046D01*
X-110867D01*
Y170222D01*
X-111043D01*
Y170399D01*
X-111219D01*
Y170575D01*
X-111396D01*
Y170751D01*
X-111572D01*
Y171104D01*
X-111749D01*
Y171457D01*
X-111925D01*
Y171810D01*
X-112101D01*
Y172339D01*
X-112278D01*
Y172868D01*
X-112454D01*
Y173574D01*
X-112630D01*
Y174808D01*
X-112807D01*
Y176396D01*
X-112630D01*
Y177278D01*
X-112454D01*
Y177983D01*
X-112278D01*
Y178512D01*
X-112101D01*
Y178865D01*
X-111925D01*
Y179218D01*
X-112278D01*
Y179041D01*
X-112454D01*
Y178865D01*
X-112807D01*
Y178689D01*
X-113160D01*
Y178512D01*
X-113336D01*
Y178336D01*
X-113865D01*
Y178160D01*
X-114218D01*
Y177983D01*
X-114747D01*
Y177807D01*
X-115276D01*
Y177630D01*
X-116687D01*
Y177454D01*
X-117569D01*
Y177630D01*
X-119509D01*
Y177807D01*
X-123037D01*
Y177630D01*
X-123566D01*
Y177454D01*
X-123742D01*
Y177278D01*
X-123919D01*
Y177101D01*
X-123213D01*
Y177278D01*
X-120744D01*
Y177101D01*
X-120391D01*
Y176925D01*
X-120215D01*
Y176749D01*
X-119862D01*
Y176572D01*
X-119686D01*
Y176396D01*
X-119509D01*
Y176219D01*
X-119333D01*
Y175867D01*
X-119156D01*
Y175514D01*
X-118980D01*
Y175161D01*
X-118804D01*
Y174632D01*
X-118627D01*
Y173750D01*
X-118451D01*
Y172692D01*
X-118627D01*
Y172515D01*
X-118804D01*
Y172339D01*
X-118980D01*
Y172163D01*
X-119156D01*
Y171986D01*
X-119333D01*
Y171810D01*
X-119509D01*
Y171633D01*
X-119862D01*
Y171457D01*
X-120038D01*
Y171281D01*
X-120391D01*
Y171104D01*
X-120568D01*
Y170928D01*
X-120920D01*
Y170751D01*
X-121273D01*
Y170575D01*
X-121626D01*
Y170399D01*
X-121979D01*
Y170222D01*
X-122331D01*
Y170046D01*
X-122684D01*
Y169870D01*
X-123213D01*
Y169693D01*
X-123566D01*
Y169517D01*
X-123919D01*
Y169164D01*
X-123742D01*
Y168988D01*
X-123566D01*
Y168811D01*
X-123213D01*
Y168635D01*
X-122860D01*
Y168459D01*
X-122508D01*
Y168282D01*
X-121626D01*
Y168106D01*
X-119509D01*
Y168282D01*
X-119156D01*
Y170575D01*
X-118980D01*
Y170751D01*
X-118627D01*
Y170399D01*
X-118451D01*
Y169517D01*
X-118274D01*
Y168811D01*
X-118098D01*
Y168282D01*
X-117922D01*
Y167929D01*
X-117745D01*
Y167577D01*
X-117569D01*
Y167400D01*
X-117393D01*
Y167048D01*
X-117216D01*
Y166871D01*
X-117040D01*
Y166695D01*
X-116863D01*
Y166342D01*
X-116687D01*
Y166166D01*
X-116511D01*
Y165989D01*
X-116334D01*
Y165813D01*
X-116158D01*
Y165637D01*
X-115982D01*
Y165460D01*
X-115805D01*
Y165107D01*
X-115629D01*
Y164931D01*
X-115452D01*
Y164755D01*
X-115276D01*
Y164402D01*
X-115100D01*
Y164226D01*
X-114923D01*
Y163873D01*
X-114747D01*
Y163696D01*
X-114571D01*
Y163344D01*
X-114394D01*
Y163167D01*
X-114218D01*
Y162991D01*
X-114041D01*
Y162638D01*
X-113865D01*
Y162462D01*
X-113689D01*
Y162285D01*
X-113512D01*
Y162109D01*
X-113336D01*
Y161933D01*
X-113160D01*
Y161756D01*
X-112983D01*
Y161580D01*
X-112807D01*
Y161403D01*
X-112630D01*
Y161227D01*
X-112278D01*
Y161051D01*
X-112101D01*
Y160874D01*
X-111925D01*
Y160698D01*
X-111572D01*
Y160522D01*
X-111396D01*
Y160345D01*
X-111043D01*
Y160169D01*
X-110867D01*
Y159992D01*
X-110514D01*
Y159816D01*
X-110161D01*
Y159640D01*
X-109985D01*
Y159463D01*
X-109632D01*
Y159110D01*
X-109455D01*
Y158581D01*
X-109279D01*
Y158052D01*
X-109103D01*
Y157523D01*
X-108926D01*
Y156994D01*
X-108750D01*
Y156465D01*
X-108574D01*
Y155936D01*
X-108397D01*
Y155406D01*
X-108221D01*
Y154877D01*
X-108045D01*
Y154524D01*
X-107868D01*
Y153995D01*
X-107692D01*
Y153643D01*
X-107515D01*
Y153113D01*
X-107339D01*
Y152761D01*
X-107163D01*
Y152232D01*
X-106986D01*
Y151879D01*
X-106810D01*
Y151350D01*
X-106633D01*
Y150997D01*
X-106457D01*
Y150468D01*
X-106281D01*
Y150115D01*
X-106104D01*
Y149586D01*
X-105928D01*
Y149233D01*
X-105751D01*
Y148880D01*
X-105575D01*
Y148351D01*
X-105399D01*
Y147999D01*
X-105222D01*
Y147646D01*
X-105046D01*
Y147117D01*
X-104870D01*
Y146764D01*
X-104693D01*
Y146235D01*
X-104517D01*
Y145882D01*
X-104340D01*
Y145529D01*
X-104164D01*
Y145176D01*
X-103988D01*
Y144824D01*
X-103811D01*
Y144471D01*
X-103635D01*
Y143942D01*
X-103459D01*
Y143589D01*
X-103282D01*
Y143236D01*
X-103106D01*
Y142883D01*
X-102929D01*
Y142354D01*
X-102753D01*
Y142001D01*
X-102577D01*
Y141649D01*
X-102400D01*
Y141296D01*
X-102224D01*
Y140943D01*
X-102048D01*
Y140590D01*
X-101871D01*
Y140238D01*
X-101695D01*
Y139885D01*
X-101518D01*
Y139532D01*
X-101342D01*
Y139179D01*
X-101166D01*
Y138827D01*
X-100989D01*
Y138474D01*
X-100813D01*
Y138121D01*
X-100637D01*
Y137768D01*
X-100460D01*
Y137416D01*
X-100284D01*
Y137063D01*
X-100107D01*
Y136710D01*
X-99931D01*
Y136357D01*
X-99755D01*
Y136005D01*
X-99578D01*
Y135652D01*
X-99402D01*
Y135299D01*
X-99226D01*
Y135123D01*
X-99049D01*
Y134770D01*
X-98873D01*
Y134417D01*
X-98696D01*
Y134064D01*
X-98520D01*
Y133712D01*
X-98343D01*
Y133535D01*
X-98167D01*
Y133182D01*
X-97991D01*
Y132830D01*
X-97814D01*
Y132477D01*
X-97638D01*
Y132301D01*
X-97462D01*
Y131948D01*
X-97285D01*
Y131595D01*
X-97109D01*
Y131419D01*
X-96932D01*
Y131066D01*
X-96756D01*
Y130890D01*
X-96580D01*
Y130537D01*
X-96403D01*
Y130184D01*
X-96227D01*
Y130008D01*
X-96051D01*
Y129655D01*
X-95874D01*
Y129479D01*
X-95698D01*
Y129126D01*
X-95521D01*
Y128949D01*
X-95345D01*
Y128597D01*
X-95169D01*
Y128420D01*
X-94992D01*
Y128068D01*
X-94816D01*
Y127891D01*
X-94640D01*
Y127538D01*
X-94463D01*
Y126833D01*
X-94640D01*
Y126127D01*
X-94816D01*
Y125422D01*
X-94992D01*
Y124540D01*
X-95169D01*
Y123834D01*
X-95345D01*
Y122952D01*
X-95521D01*
Y122071D01*
X-95698D01*
Y121189D01*
X-95874D01*
Y120130D01*
X-96051D01*
Y119072D01*
X-96227D01*
Y117661D01*
X-96403D01*
Y115721D01*
X-96580D01*
Y111311D01*
X-96756D01*
Y109018D01*
X-96580D01*
Y108842D01*
X-96051D01*
Y108666D01*
X-95345D01*
Y108489D01*
X-94816D01*
Y108313D01*
X-94287D01*
Y108137D01*
X-93934D01*
Y107960D01*
X-93405D01*
Y107784D01*
X-93052D01*
Y107607D01*
X-92699D01*
Y107431D01*
X-92170D01*
Y107255D01*
X-91818D01*
Y107078D01*
X-91641D01*
Y106902D01*
X-91112D01*
Y106726D01*
X-90936D01*
Y106549D01*
X-90583D01*
Y106373D01*
X-90406D01*
Y106196D01*
X-90230D01*
Y106020D01*
X-89877D01*
Y105844D01*
X-89701D01*
Y105667D01*
X-89524D01*
Y105491D01*
X-89348D01*
Y105314D01*
X-89172D01*
Y105138D01*
X-88995D01*
Y104962D01*
X-88819D01*
Y104785D01*
X-88643D01*
Y104609D01*
X-88466D01*
Y104432D01*
X-88290D01*
Y104256D01*
X-88113D01*
Y104080D01*
X-87937D01*
Y103903D01*
X-87761D01*
Y103727D01*
X-87584D01*
Y103551D01*
X-87408D01*
Y103374D01*
X-87232D01*
Y103198D01*
X-87055D01*
Y103021D01*
X-86879D01*
Y102845D01*
X-86702D01*
Y102669D01*
X-86526D01*
Y102492D01*
X-85821D01*
Y102669D01*
X-85468D01*
Y102845D01*
X-85115D01*
Y103021D01*
X-84586D01*
Y103198D01*
X-84233D01*
Y103374D01*
X-83704D01*
Y103551D01*
X-82999D01*
Y103727D01*
X-82293D01*
Y103903D01*
X-81235D01*
Y104080D01*
X-79647D01*
Y104256D01*
X-78765D01*
Y104080D01*
X-76120D01*
Y103903D01*
X-75061D01*
Y103727D01*
X-74356D01*
Y103551D01*
X-73650D01*
Y103374D01*
X-72945D01*
Y103198D01*
X-72768D01*
Y103374D01*
X-72416D01*
Y103551D01*
X-72239D01*
Y103727D01*
X-72063D01*
Y103903D01*
X-71887D01*
Y104080D01*
X-71710D01*
Y104256D01*
X-71357D01*
Y104432D01*
X-71181D01*
Y104609D01*
X-70828D01*
Y104785D01*
X-70123D01*
Y104962D01*
X-69770D01*
Y104785D01*
X-69064D01*
Y104609D01*
X-68712D01*
Y104432D01*
X-68359D01*
Y104256D01*
X-68183D01*
Y104080D01*
X-67830D01*
Y103903D01*
X-67653D01*
Y103727D01*
X-67301D01*
Y103551D01*
X-67124D01*
Y103374D01*
X-66771D01*
Y103198D01*
X-66595D01*
Y103021D01*
X-66242D01*
Y102845D01*
X-65890D01*
Y102669D01*
X-65537D01*
Y102492D01*
X-64831D01*
Y102316D01*
X-62009D01*
Y102492D01*
X-60951D01*
Y102669D01*
X-60598D01*
Y102845D01*
X-60422D01*
Y103198D01*
X-60598D01*
Y103374D01*
X-60774D01*
Y103551D01*
X-60951D01*
Y103727D01*
X-61127D01*
Y103903D01*
X-61480D01*
Y104080D01*
X-61656D01*
Y104256D01*
X-61833D01*
Y104432D01*
X-62362D01*
Y104609D01*
X-62715D01*
Y104785D01*
X-63420D01*
Y104962D01*
X-64126D01*
Y105138D01*
X-64831D01*
Y105314D01*
X-65360D01*
Y105491D01*
X-65890D01*
Y105667D01*
X-66419D01*
Y105844D01*
X-66771D01*
Y106020D01*
X-67124D01*
Y106196D01*
X-67477D01*
Y106373D01*
X-67830D01*
Y106549D01*
X-68006D01*
Y106726D01*
X-68359D01*
Y106902D01*
X-68535D01*
Y107078D01*
X-68712D01*
Y107255D01*
X-68888D01*
Y107431D01*
X-69064D01*
Y107607D01*
X-69241D01*
Y107784D01*
X-69594D01*
Y107960D01*
X-69770D01*
Y108137D01*
X-69946D01*
Y108313D01*
X-70123D01*
Y108489D01*
X-70299D01*
Y108666D01*
X-70475D01*
Y108842D01*
X-70652D01*
Y109018D01*
X-70828D01*
Y109371D01*
X-71005D01*
Y109548D01*
X-71181D01*
Y109724D01*
X-71357D01*
Y109900D01*
X-71534D01*
Y110077D01*
X-71710D01*
Y110253D01*
X-71887D01*
Y110606D01*
X-72063D01*
Y110782D01*
X-72239D01*
Y111135D01*
X-72416D01*
Y111488D01*
X-72592D01*
Y111840D01*
X-72768D01*
Y112193D01*
X-72945D01*
Y112722D01*
X-73121D01*
Y113251D01*
X-72945D01*
Y113075D01*
X-72768D01*
Y112722D01*
X-72592D01*
Y112546D01*
X-72416D01*
Y112193D01*
X-72239D01*
Y111840D01*
X-72063D01*
Y111664D01*
X-71887D01*
Y111311D01*
X-71710D01*
Y111135D01*
X-71534D01*
Y110959D01*
X-71357D01*
Y110606D01*
X-71181D01*
Y110429D01*
X-71005D01*
Y110253D01*
X-70828D01*
Y110077D01*
X-70652D01*
Y109900D01*
X-70475D01*
Y109724D01*
X-70299D01*
Y109548D01*
X-70123D01*
Y109371D01*
X-69946D01*
Y109195D01*
X-69770D01*
Y109018D01*
X-69594D01*
Y108842D01*
X-69417D01*
Y108666D01*
X-69241D01*
Y108489D01*
X-69064D01*
Y108313D01*
X-68888D01*
Y108137D01*
X-68712D01*
Y107960D01*
X-68359D01*
Y107784D01*
X-68183D01*
Y107607D01*
X-68006D01*
Y107431D01*
X-67830D01*
Y107255D01*
X-67477D01*
Y107078D01*
X-67124D01*
Y106902D01*
X-66948D01*
Y106726D01*
X-66595D01*
Y106549D01*
X-66242D01*
Y106373D01*
X-65713D01*
Y106196D01*
X-65360D01*
Y106020D01*
X-64655D01*
Y105844D01*
X-63949D01*
Y105667D01*
X-63420D01*
Y105491D01*
X-63067D01*
Y105314D01*
X-62538D01*
Y105138D01*
X-62186D01*
Y104962D01*
X-61833D01*
Y104785D01*
X-61656D01*
Y104609D01*
X-61304D01*
Y104432D01*
X-61127D01*
Y104256D01*
X-60951D01*
Y104080D01*
X-60774D01*
Y103903D01*
X-60422D01*
Y103727D01*
X-60245D01*
Y103551D01*
X-60069D01*
Y103374D01*
X-59893D01*
Y103198D01*
X-59716D01*
Y103374D01*
X-59363D01*
Y103551D01*
X-59011D01*
Y103727D01*
X-58834D01*
Y103903D01*
X-58482D01*
Y104080D01*
X-58129D01*
Y104256D01*
X-57776D01*
Y104432D01*
X-57423D01*
Y104609D01*
X-57070D01*
Y104785D01*
X-56718D01*
Y104962D01*
X-56365D01*
Y105138D01*
X-55836D01*
Y105314D01*
X-54954D01*
Y105491D01*
X-53014D01*
Y105314D01*
X-51074D01*
Y105138D01*
X-50368D01*
Y104962D01*
X-50015D01*
Y104609D01*
X-50192D01*
Y104432D01*
X-51074D01*
Y104609D01*
X-55130D01*
Y104432D01*
X-56012D01*
Y104256D01*
X-56365D01*
Y104080D01*
X-56718D01*
Y103903D01*
X-57070D01*
Y103727D01*
X-57423D01*
Y103551D01*
X-57776D01*
Y103374D01*
X-58129D01*
Y103198D01*
X-58305D01*
Y103021D01*
X-58658D01*
Y102845D01*
X-59011D01*
Y102669D01*
X-59363D01*
Y102492D01*
X-59716D01*
Y102316D01*
X-60069D01*
Y102140D01*
X-60422D01*
Y101963D01*
X-60774D01*
Y101787D01*
X-61304D01*
Y101610D01*
X-62186D01*
Y101434D01*
X-63949D01*
Y101610D01*
X-65184D01*
Y101787D01*
X-65890D01*
Y101963D01*
X-66242D01*
Y102140D01*
X-66595D01*
Y102316D01*
X-66771D01*
Y102492D01*
X-67124D01*
Y102669D01*
X-67477D01*
Y102845D01*
X-67653D01*
Y103021D01*
X-68006D01*
Y103198D01*
X-68183D01*
Y103374D01*
X-68535D01*
Y103551D01*
X-68712D01*
Y103727D01*
X-69064D01*
Y103903D01*
X-69417D01*
Y104080D01*
X-70652D01*
Y103903D01*
X-71005D01*
Y103727D01*
X-71181D01*
Y103551D01*
X-71357D01*
Y103374D01*
X-71534D01*
Y103198D01*
X-71710D01*
Y102845D01*
X-71887D01*
Y101081D01*
X-71710D01*
Y100552D01*
X-71534D01*
Y100023D01*
X-71357D01*
Y99670D01*
X-71181D01*
Y99141D01*
X-71005D01*
Y98788D01*
X-70828D01*
Y98259D01*
X-70652D01*
Y97730D01*
X-70475D01*
Y97201D01*
X-70299D01*
Y96495D01*
X-70123D01*
Y95790D01*
X-69946D01*
Y94026D01*
X-69770D01*
Y93497D01*
X-69946D01*
Y91557D01*
X-70123D01*
Y90499D01*
X-70299D01*
Y89617D01*
X-70475D01*
Y88911D01*
X-70652D01*
Y88029D01*
X-70828D01*
Y87324D01*
X-71005D01*
Y86618D01*
X-71181D01*
Y85913D01*
X-71357D01*
Y85207D01*
X-71534D01*
Y84325D01*
X-71710D01*
Y83267D01*
X-71887D01*
Y80621D01*
X-71710D01*
Y80268D01*
X-71534D01*
Y80092D01*
X-71357D01*
Y79739D01*
X-71181D01*
Y79563D01*
X-71005D01*
Y79387D01*
X-70828D01*
Y79210D01*
X-70652D01*
Y79034D01*
X-70475D01*
Y78857D01*
X-70299D01*
Y78681D01*
X-70123D01*
Y78505D01*
X-69946D01*
Y78328D01*
X-69770D01*
Y78152D01*
X-69594D01*
Y77976D01*
X-69417D01*
Y77799D01*
X-69241D01*
Y77623D01*
X-69064D01*
Y77446D01*
X-68888D01*
Y77270D01*
X-68712D01*
Y77094D01*
X-68359D01*
Y76917D01*
X-68183D01*
Y76741D01*
X-68006D01*
Y76564D01*
X-67830D01*
Y76388D01*
X-67477D01*
Y76212D01*
X-67124D01*
Y76035D01*
X-66948D01*
Y75859D01*
X-66595D01*
Y75683D01*
X-66419D01*
Y75506D01*
X-66066D01*
Y75330D01*
X-65713D01*
Y75153D01*
X-65537D01*
Y74977D01*
X-65184D01*
Y74801D01*
X-64831D01*
Y74624D01*
X-64479D01*
Y74448D01*
X-64126D01*
Y74271D01*
X-63773D01*
Y74095D01*
X-63244D01*
Y73919D01*
X-62715D01*
Y73742D01*
X-62186D01*
Y73566D01*
X-61480D01*
Y73390D01*
X-60598D01*
Y73213D01*
X-56365D01*
Y73390D01*
X-55130D01*
Y73566D01*
X-54425D01*
Y73742D01*
X-53896D01*
Y73919D01*
X-53367D01*
Y74095D01*
X-52837D01*
Y74271D01*
X-52485D01*
Y74448D01*
X-52132D01*
Y74624D01*
X-51779D01*
Y74801D01*
X-51426D01*
Y74977D01*
X-51074D01*
Y75153D01*
X-50721D01*
Y75330D01*
X-50368D01*
Y75506D01*
X-50015D01*
Y75683D01*
X-49839D01*
Y75859D01*
X-49486D01*
Y76035D01*
X-49310D01*
Y76212D01*
X-48957D01*
Y76388D01*
X-48781D01*
Y76564D01*
X-48604D01*
Y76741D01*
X-48428D01*
Y76917D01*
X-48252D01*
Y77094D01*
X-47899D01*
Y77270D01*
X-47722D01*
Y77446D01*
X-47546D01*
Y77623D01*
X-47370D01*
Y77799D01*
X-47193D01*
Y77976D01*
X-47017D01*
Y78152D01*
X-46841D01*
Y78328D01*
X-46664D01*
Y78505D01*
X-46488D01*
Y78681D01*
X-46311D01*
Y78857D01*
X-46135D01*
Y79034D01*
X-45959D01*
Y79210D01*
X-45782D01*
Y79387D01*
X-45606D01*
Y79563D01*
X-45429D01*
Y79739D01*
X-45253D01*
Y79916D01*
X-45077D01*
Y80092D01*
X-44900D01*
Y80268D01*
X-44724D01*
Y80445D01*
X-44548D01*
Y80621D01*
X-44371D01*
Y80798D01*
X-44195D01*
Y80974D01*
X-44018D01*
Y81150D01*
X-43842D01*
Y81327D01*
X-43666D01*
Y81503D01*
X-43489D01*
Y81679D01*
X-43313D01*
Y81856D01*
X-43137D01*
Y82032D01*
X-42960D01*
Y82209D01*
X-42784D01*
Y82385D01*
X-42607D01*
Y82561D01*
X-42431D01*
Y82738D01*
X-42255D01*
Y82914D01*
X-42078D01*
Y83090D01*
X-41902D01*
Y83443D01*
X-41726D01*
Y83620D01*
X-41549D01*
Y83796D01*
X-41373D01*
Y84149D01*
X-41196D01*
Y84678D01*
X-41020D01*
Y85207D01*
X-40844D01*
Y85736D01*
X-40667D01*
Y86089D01*
X-40491D01*
Y86265D01*
X-40314D01*
Y86618D01*
X-40138D01*
Y86795D01*
X-39962D01*
Y86971D01*
X-39785D01*
Y87324D01*
X-39609D01*
Y87500D01*
X-39432D01*
Y87676D01*
X-39256D01*
Y87853D01*
X-39080D01*
Y88029D01*
X-38903D01*
Y88205D01*
X-38727D01*
Y88382D01*
X-38551D01*
Y88558D01*
X-38374D01*
Y88735D01*
X-38198D01*
Y88911D01*
X-37845D01*
Y89087D01*
X-37669D01*
Y89264D01*
X-37492D01*
Y89440D01*
X-37316D01*
Y89617D01*
X-36963D01*
Y89793D01*
X-36787D01*
Y89969D01*
X-36610D01*
Y90146D01*
X-36434D01*
Y90322D01*
X-36081D01*
Y90499D01*
X-35905D01*
Y90675D01*
X-35728D01*
Y90851D01*
X-35552D01*
Y91028D01*
X-35376D01*
Y91204D01*
X-35199D01*
Y92086D01*
X-35023D01*
Y97024D01*
X-35199D01*
Y97377D01*
X-35376D01*
Y97907D01*
X-35552D01*
Y98259D01*
X-35728D01*
Y98612D01*
X-35905D01*
Y98965D01*
X-36081D01*
Y99318D01*
X-36258D01*
Y99670D01*
X-36434D01*
Y100023D01*
X-36610D01*
Y100376D01*
X-36787D01*
Y100729D01*
X-36963D01*
Y100905D01*
X-37140D01*
Y101258D01*
X-37316D01*
Y101434D01*
X-37492D01*
Y101787D01*
X-37669D01*
Y101963D01*
X-37845D01*
Y102140D01*
X-38022D01*
Y102492D01*
X-38198D01*
Y102669D01*
X-38374D01*
Y102845D01*
X-38551D01*
Y103021D01*
X-38727D01*
Y103198D01*
X-38903D01*
Y103374D01*
X-39080D01*
Y103551D01*
X-39256D01*
Y103727D01*
X-39432D01*
Y104080D01*
X-39609D01*
Y104256D01*
X-39785D01*
Y104432D01*
X-39962D01*
Y104609D01*
X-40138D01*
Y104785D01*
X-40314D01*
Y104962D01*
X-40491D01*
Y105138D01*
X-40667D01*
Y105314D01*
X-40844D01*
Y105491D01*
X-41020D01*
Y105667D01*
X-41196D01*
Y105844D01*
X-41373D01*
Y106020D01*
X-41549D01*
Y106196D01*
X-41726D01*
Y106373D01*
X-41902D01*
Y106549D01*
X-42078D01*
Y106726D01*
X-42255D01*
Y106902D01*
X-42431D01*
Y107078D01*
X-42607D01*
Y107255D01*
X-42784D01*
Y107431D01*
X-42960D01*
Y107607D01*
X-43137D01*
Y107784D01*
X-43313D01*
Y107960D01*
X-43489D01*
Y108137D01*
X-43666D01*
Y108313D01*
X-43842D01*
Y108489D01*
X-44018D01*
Y108666D01*
X-44195D01*
Y108842D01*
X-44371D01*
Y109018D01*
X-44548D01*
Y109195D01*
X-44724D01*
Y109371D01*
X-44900D01*
Y109548D01*
X-45077D01*
Y109724D01*
X-45253D01*
Y109900D01*
X-45429D01*
Y110077D01*
X-45606D01*
Y110253D01*
X-45782D01*
Y110429D01*
X-45959D01*
Y110606D01*
X-46135D01*
Y110782D01*
X-46311D01*
Y110959D01*
X-46488D01*
Y111135D01*
X-46664D01*
Y111311D01*
X-46841D01*
Y111488D01*
X-47017D01*
Y111664D01*
X-47193D01*
Y111840D01*
X-47370D01*
Y112017D01*
X-47546D01*
Y112193D01*
X-47722D01*
Y112370D01*
X-47899D01*
Y112546D01*
X-48075D01*
Y112722D01*
X-48252D01*
Y112899D01*
X-48428D01*
Y113075D01*
X-48781D01*
Y113251D01*
X-48957D01*
Y113428D01*
X-49133D01*
Y113604D01*
X-49310D01*
Y113781D01*
X-49486D01*
Y113957D01*
X-49663D01*
Y114134D01*
X-49839D01*
Y114310D01*
X-50015D01*
Y114486D01*
X-50192D01*
Y114663D01*
X-50368D01*
Y114839D01*
X-50545D01*
Y115015D01*
X-50721D01*
Y115192D01*
X-50897D01*
Y115368D01*
X-51074D01*
Y115545D01*
X-51250D01*
Y115721D01*
X-51426D01*
Y115897D01*
X-51603D01*
Y116074D01*
X-51779D01*
Y116250D01*
X-51955D01*
Y116426D01*
X-52132D01*
Y116603D01*
X-52308D01*
Y116779D01*
X-52485D01*
Y116955D01*
X-52837D01*
Y117132D01*
X-53014D01*
Y117308D01*
X-53190D01*
Y117485D01*
X-53367D01*
Y117661D01*
X-53543D01*
Y117837D01*
X-53719D01*
Y118014D01*
X-53896D01*
Y118190D01*
X-54072D01*
Y118367D01*
X-54248D01*
Y118543D01*
X-54425D01*
Y118719D01*
X-54601D01*
Y118896D01*
X-54778D01*
Y119072D01*
X-54954D01*
Y119249D01*
X-55130D01*
Y119425D01*
X-55307D01*
Y119601D01*
X-55483D01*
Y119778D01*
X-55659D01*
Y119954D01*
X-55836D01*
Y120130D01*
X-56012D01*
Y120307D01*
X-56189D01*
Y120483D01*
X-56365D01*
Y120660D01*
X-56541D01*
Y120836D01*
X-56718D01*
Y121012D01*
X-56894D01*
Y121189D01*
X-57070D01*
Y121365D01*
X-57247D01*
Y121541D01*
X-57423D01*
Y121718D01*
X-57600D01*
Y122071D01*
X-57776D01*
Y122247D01*
X-57952D01*
Y122423D01*
X-58129D01*
Y122600D01*
X-58305D01*
Y122776D01*
X-58482D01*
Y122952D01*
X-58658D01*
Y123129D01*
X-58834D01*
Y123305D01*
X-59011D01*
Y123482D01*
X-59187D01*
Y123658D01*
X-59363D01*
Y123834D01*
X-59540D01*
Y124187D01*
X-59716D01*
Y124363D01*
X-59893D01*
Y124540D01*
X-60069D01*
Y124716D01*
X-60245D01*
Y125069D01*
X-60422D01*
Y125245D01*
X-60598D01*
Y125422D01*
X-60774D01*
Y125775D01*
X-60951D01*
Y125951D01*
X-61127D01*
Y126127D01*
X-61304D01*
Y126480D01*
X-61480D01*
Y126656D01*
X-61656D01*
Y126833D01*
X-61833D01*
Y127186D01*
X-62009D01*
Y127362D01*
X-62186D01*
Y127538D01*
X-62362D01*
Y127891D01*
X-62538D01*
Y128068D01*
X-62715D01*
Y128244D01*
X-62891D01*
Y128597D01*
X-63067D01*
Y128773D01*
X-63244D01*
Y128949D01*
X-63420D01*
Y129126D01*
X-63597D01*
Y129302D01*
X-63773D01*
Y129479D01*
X-63949D01*
Y129831D01*
X-64126D01*
Y130008D01*
X-64479D01*
Y130184D01*
X-64655D01*
Y130360D01*
X-64831D01*
Y130537D01*
X-65008D01*
Y130713D01*
X-65184D01*
Y130890D01*
X-65360D01*
Y131066D01*
X-65713D01*
Y131242D01*
X-65890D01*
Y131419D01*
X-66242D01*
Y131595D01*
X-66419D01*
Y131771D01*
X-66771D01*
Y131948D01*
X-66948D01*
Y132124D01*
X-67301D01*
Y132301D01*
X-67653D01*
Y132477D01*
X-68006D01*
Y132653D01*
X-68183D01*
Y132830D01*
X-68535D01*
Y133006D01*
X-68888D01*
Y133182D01*
X-69241D01*
Y133359D01*
X-69594D01*
Y133535D01*
X-69946D01*
Y133712D01*
X-70299D01*
Y133888D01*
X-70652D01*
Y134064D01*
X-70828D01*
Y134241D01*
X-71181D01*
Y134417D01*
X-71534D01*
Y134594D01*
X-71887D01*
Y134770D01*
X-72239D01*
Y134946D01*
X-72592D01*
Y135123D01*
X-72945D01*
Y135299D01*
X-73298D01*
Y135476D01*
X-73650D01*
Y135652D01*
X-73827D01*
Y135828D01*
X-74180D01*
Y136005D01*
X-74532D01*
Y136181D01*
X-74885D01*
Y136357D01*
X-75238D01*
Y136534D01*
X-75414D01*
Y136710D01*
X-75767D01*
Y136887D01*
X-76120D01*
Y137063D01*
X-76296D01*
Y137239D01*
X-76649D01*
Y137416D01*
X-76825D01*
Y137592D01*
X-77002D01*
Y137768D01*
X-77354D01*
Y137945D01*
X-77531D01*
Y138121D01*
X-77707D01*
Y138298D01*
X-77883D01*
Y138474D01*
X-78236D01*
Y138650D01*
X-78413D01*
Y138827D01*
X-78589D01*
Y139003D01*
X-78765D01*
Y139179D01*
X-78942D01*
Y139356D01*
X-79118D01*
Y139532D01*
X-79295D01*
Y139709D01*
X-79471D01*
Y139885D01*
X-79647D01*
Y140061D01*
X-79824D01*
Y140414D01*
X-80000D01*
Y140590D01*
X-80176D01*
Y140767D01*
X-80353D01*
Y141120D01*
X-80529D01*
Y141296D01*
X-80705D01*
Y141649D01*
X-80882D01*
Y142178D01*
X-81058D01*
Y142531D01*
X-81235D01*
Y143060D01*
X-81411D01*
Y143589D01*
X-81587D01*
Y143942D01*
X-81764D01*
Y144647D01*
X-81940D01*
Y145353D01*
X-82116D01*
Y146235D01*
X-82293D01*
Y147469D01*
X-82469D01*
Y149057D01*
X-82646D01*
Y152232D01*
X-82822D01*
Y159816D01*
X-82646D01*
Y162991D01*
X-82469D01*
Y165107D01*
X-82293D01*
Y166695D01*
X-82116D01*
Y167929D01*
X-81940D01*
Y169164D01*
X-81764D01*
Y170046D01*
X-81587D01*
Y170928D01*
X-81411D01*
Y171633D01*
X-81235D01*
Y172339D01*
X-81058D01*
Y173044D01*
X-80882D01*
Y173574D01*
X-80705D01*
Y174103D01*
X-80529D01*
Y174456D01*
X-80353D01*
Y174985D01*
X-80176D01*
Y175337D01*
X-80000D01*
Y175690D01*
X-79824D01*
Y176043D01*
X-79647D01*
Y176396D01*
X-79471D01*
Y176572D01*
X-79295D01*
Y176749D01*
X-79118D01*
Y177101D01*
X-78942D01*
Y177278D01*
X-78765D01*
Y177630D01*
X-78589D01*
Y177807D01*
X-78413D01*
Y177983D01*
X-78236D01*
Y178336D01*
X-78060D01*
Y178512D01*
X-77883D01*
Y178865D01*
X-77707D01*
Y179041D01*
X-77531D01*
Y179394D01*
X-77354D01*
Y179571D01*
X-77178D01*
Y179923D01*
X-77002D01*
Y180276D01*
X-76825D01*
Y180629D01*
X-77707D01*
Y180452D01*
X-78413D01*
Y180276D01*
X-79471D01*
Y180100D01*
X-81411D01*
Y180276D01*
X-82293D01*
Y180452D01*
X-82822D01*
Y180629D01*
X-83175D01*
Y180805D01*
X-83351D01*
Y182393D01*
X-83175D01*
Y183098D01*
X-82999D01*
Y183627D01*
X-82822D01*
Y183980D01*
X-82646D01*
Y184156D01*
X-82469D01*
Y184333D01*
X-82293D01*
Y184509D01*
X-82116D01*
Y184686D01*
X-81940D01*
Y184862D01*
D02*
G37*
G36*
X-78413D02*
X-79471D01*
Y184686D01*
X-80353D01*
Y184509D01*
X-80882D01*
Y184333D01*
X-81235D01*
Y184156D01*
X-81587D01*
Y183980D01*
X-81764D01*
Y183804D01*
X-81940D01*
Y183627D01*
X-82116D01*
Y183274D01*
X-82293D01*
Y182922D01*
X-82469D01*
Y181334D01*
X-82293D01*
Y181158D01*
X-81940D01*
Y180982D01*
X-81411D01*
Y181334D01*
X-81235D01*
Y181511D01*
Y182393D01*
X-81058D01*
Y182569D01*
X-80882D01*
Y182745D01*
X-80705D01*
Y182922D01*
X-80353D01*
Y183098D01*
X-78765D01*
Y182922D01*
X-78413D01*
Y182745D01*
X-78236D01*
Y182569D01*
X-78060D01*
Y182040D01*
X-77883D01*
Y181511D01*
X-77178D01*
Y181687D01*
X-76825D01*
Y181863D01*
X-76649D01*
Y182569D01*
X-76825D01*
Y183098D01*
X-77002D01*
Y183451D01*
X-77178D01*
Y183627D01*
X-77354D01*
Y183980D01*
X-77531D01*
Y184156D01*
X-77707D01*
Y184333D01*
X-77883D01*
Y184509D01*
X-78060D01*
Y184686D01*
X-78413D01*
Y184862D01*
D02*
G37*
G36*
X-78942Y182393D02*
X-80176D01*
Y182216D01*
X-80529D01*
Y182040D01*
X-80705D01*
Y181687D01*
X-80882D01*
Y181158D01*
X-81058D01*
Y180982D01*
X-80705D01*
Y181511D01*
X-80529D01*
Y181687D01*
X-80353D01*
Y181863D01*
X-80176D01*
Y182040D01*
X-80000D01*
Y182216D01*
X-79647D01*
Y182040D01*
X-79295D01*
Y181863D01*
X-79118D01*
Y181687D01*
X-78942D01*
Y181511D01*
X-78765D01*
Y181334D01*
X-78589D01*
Y181158D01*
X-78413D01*
Y181687D01*
X-78589D01*
Y182040D01*
X-78765D01*
Y182216D01*
X-78942D01*
Y182393D01*
D02*
G37*
G36*
X-79471Y181158D02*
X-80176D01*
Y180982D01*
Y180805D01*
X-79647D01*
Y180982D01*
X-79471D01*
Y181158D01*
D02*
G37*
G36*
X-98873Y180452D02*
X-108045D01*
Y180276D01*
X-108926D01*
Y180100D01*
X-109279D01*
Y179923D01*
X-109808D01*
Y179747D01*
X-110161D01*
Y179571D01*
X-110337D01*
Y179394D01*
X-110514D01*
Y179218D01*
X-110690D01*
Y179041D01*
X-110867D01*
Y178865D01*
X-111043D01*
Y178689D01*
X-111219D01*
Y178512D01*
X-111396D01*
Y178160D01*
X-111572D01*
Y177983D01*
Y177630D01*
X-111749D01*
Y176749D01*
X-111925D01*
Y174808D01*
X-111749D01*
Y173044D01*
X-111572D01*
Y172515D01*
X-111396D01*
Y172163D01*
X-111219D01*
Y171810D01*
X-111043D01*
Y171457D01*
X-110867D01*
Y171104D01*
X-110690D01*
Y170928D01*
X-110514D01*
Y170751D01*
X-110337D01*
Y170575D01*
X-110161D01*
Y170399D01*
X-109808D01*
Y170222D01*
X-109455D01*
Y170046D01*
X-108926D01*
Y169870D01*
X-108397D01*
Y169693D01*
X-107515D01*
Y169517D01*
X-106457D01*
Y169340D01*
X-105575D01*
Y169164D01*
X-104517D01*
Y168988D01*
X-102753D01*
Y169164D01*
X-102048D01*
Y169340D01*
X-101518D01*
Y169517D01*
X-101166D01*
Y169693D01*
X-100813D01*
Y169870D01*
X-100460D01*
Y170046D01*
X-100284D01*
Y170222D01*
X-100107D01*
Y170399D01*
X-99755D01*
Y170575D01*
X-99578D01*
Y170751D01*
X-99402D01*
Y170928D01*
X-99226D01*
Y171104D01*
X-98873D01*
Y171281D01*
X-98696D01*
Y171457D01*
X-98520D01*
Y171633D01*
X-98343D01*
Y171810D01*
X-98167D01*
Y171986D01*
X-97991D01*
Y172163D01*
X-97814D01*
Y172515D01*
X-97638D01*
Y172692D01*
X-97462D01*
Y172868D01*
X-97285D01*
Y173044D01*
X-97109D01*
Y173397D01*
X-96932D01*
Y173574D01*
X-96756D01*
Y173926D01*
X-96580D01*
Y174279D01*
X-96403D01*
Y174985D01*
X-96227D01*
Y177454D01*
X-96403D01*
Y178160D01*
X-96580D01*
Y178512D01*
X-96756D01*
Y178865D01*
X-96932D01*
Y179041D01*
X-97109D01*
Y179218D01*
X-97285D01*
Y179394D01*
X-97462D01*
Y179571D01*
X-97638D01*
Y179747D01*
X-97814D01*
Y179923D01*
X-98167D01*
Y180100D01*
X-98343D01*
Y180276D01*
X-98873D01*
Y180452D01*
D02*
G37*
G36*
X-120920Y176396D02*
X-123566D01*
Y176219D01*
X-124095D01*
Y176043D01*
X-124448D01*
Y175867D01*
X-124624D01*
Y175690D01*
X-124801D01*
Y175514D01*
X-124977D01*
Y175161D01*
X-125153D01*
Y171281D01*
X-124977D01*
Y170575D01*
X-124801D01*
Y170222D01*
X-124095D01*
Y170399D01*
X-123390D01*
Y170575D01*
X-122860D01*
Y170751D01*
X-122684D01*
Y171457D01*
X-122860D01*
Y171633D01*
X-123037D01*
Y172339D01*
X-123213D01*
Y172868D01*
X-123037D01*
Y173574D01*
X-122860D01*
Y173750D01*
X-122684D01*
Y173926D01*
X-122508D01*
Y174103D01*
X-122331D01*
Y174279D01*
X-121802D01*
Y174456D01*
X-120038D01*
Y174279D01*
X-119686D01*
Y174103D01*
X-119509D01*
Y173926D01*
X-119333D01*
Y174456D01*
X-119509D01*
Y174808D01*
X-119686D01*
Y175161D01*
X-119862D01*
Y175514D01*
X-120038D01*
Y175690D01*
X-120215D01*
Y175867D01*
X-120391D01*
Y176043D01*
X-120568D01*
Y176219D01*
X-120920D01*
Y176396D01*
D02*
G37*
G36*
X-120215Y173750D02*
X-121802D01*
Y173574D01*
X-122155D01*
Y173397D01*
X-122331D01*
Y173044D01*
X-122508D01*
Y171810D01*
X-122331D01*
Y171457D01*
X-122155D01*
Y171281D01*
X-121802D01*
Y171633D01*
X-121979D01*
Y172692D01*
X-121802D01*
Y172868D01*
X-121626D01*
Y173044D01*
X-121449D01*
Y173221D01*
X-121097D01*
Y173397D01*
X-120391D01*
Y173221D01*
X-120215D01*
Y173044D01*
X-119862D01*
Y172868D01*
X-119686D01*
Y173221D01*
X-119862D01*
Y173397D01*
X-120038D01*
Y173574D01*
X-120215D01*
Y173750D01*
D02*
G37*
G36*
X-120391Y172515D02*
X-121097D01*
Y172339D01*
X-121273D01*
Y171986D01*
X-121449D01*
Y171810D01*
X-121273D01*
Y171633D01*
X-120744D01*
Y171810D01*
X-120568D01*
Y171986D01*
X-120391D01*
Y172163D01*
X-120215D01*
Y172339D01*
X-120391D01*
Y172515D01*
D02*
G37*
G36*
X-77002Y103198D02*
X-82116D01*
Y103021D01*
X-82822D01*
Y102845D01*
X-83351D01*
Y102669D01*
X-83880D01*
Y102492D01*
X-84233D01*
Y102316D01*
X-84586D01*
Y102140D01*
X-84939D01*
Y101963D01*
X-85291D01*
Y101787D01*
X-85644D01*
Y101610D01*
X-85997D01*
Y101434D01*
X-86173D01*
Y101258D01*
X-86526D01*
Y101081D01*
X-86702D01*
Y100905D01*
X-86879D01*
Y100729D01*
X-87232D01*
Y100552D01*
X-87408D01*
Y100376D01*
X-87584D01*
Y100199D01*
X-87761D01*
Y100023D01*
X-87937D01*
Y99847D01*
X-88290D01*
Y99670D01*
X-88466D01*
Y99494D01*
X-88643D01*
Y99141D01*
X-88819D01*
Y98965D01*
X-88995D01*
Y98788D01*
X-89172D01*
Y98612D01*
X-89348D01*
Y98259D01*
X-89524D01*
Y98083D01*
X-89701D01*
Y97730D01*
X-89877D01*
Y97554D01*
X-90054D01*
Y97201D01*
X-90230D01*
Y96848D01*
X-90406D01*
Y96495D01*
X-90583D01*
Y96143D01*
X-90759D01*
Y95790D01*
X-90936D01*
Y95437D01*
X-91112D01*
Y95261D01*
X-90936D01*
Y95084D01*
X-90406D01*
Y95261D01*
X-89524D01*
Y95437D01*
X-88819D01*
Y95613D01*
X-88113D01*
Y95790D01*
X-87584D01*
Y95966D01*
X-86879D01*
Y96143D01*
X-85997D01*
Y96319D01*
X-84939D01*
Y96495D01*
X-82646D01*
Y96672D01*
X-77531D01*
Y96848D01*
X-74003D01*
Y97024D01*
X-71534D01*
Y97201D01*
X-71181D01*
Y97554D01*
X-71357D01*
Y97730D01*
X-71534D01*
Y97907D01*
X-72063D01*
Y98083D01*
X-72592D01*
Y98259D01*
X-73650D01*
Y98436D01*
X-74885D01*
Y98612D01*
X-76649D01*
Y98788D01*
X-81058D01*
Y98612D01*
X-82293D01*
Y98436D01*
X-82999D01*
Y98259D01*
X-83704D01*
Y98083D01*
X-84233D01*
Y97907D01*
X-84762D01*
Y97730D01*
X-85115D01*
Y97554D01*
X-85644D01*
Y97377D01*
X-85997D01*
Y97201D01*
X-86350D01*
Y97024D01*
X-86526D01*
Y96848D01*
X-86879D01*
Y96672D01*
X-87232D01*
Y96848D01*
X-87055D01*
Y97024D01*
X-86879D01*
Y97201D01*
X-86702D01*
Y97377D01*
X-86526D01*
Y97554D01*
X-86173D01*
Y97730D01*
X-85821D01*
Y97907D01*
X-85644D01*
Y98083D01*
X-85291D01*
Y98259D01*
X-84939D01*
Y98436D01*
X-84586D01*
Y98612D01*
X-84233D01*
Y98788D01*
X-83880D01*
Y98965D01*
X-83351D01*
Y99141D01*
X-82822D01*
Y99318D01*
X-82116D01*
Y99494D01*
X-75943D01*
Y99318D01*
X-74885D01*
Y99141D01*
X-74180D01*
Y98965D01*
X-73650D01*
Y98788D01*
X-72945D01*
Y98612D01*
X-72239D01*
Y98436D01*
X-71710D01*
Y98788D01*
X-71887D01*
Y99318D01*
X-72063D01*
Y99670D01*
X-72239D01*
Y100199D01*
X-72416D01*
Y100729D01*
X-72592D01*
Y101434D01*
X-72768D01*
Y102316D01*
X-72945D01*
Y102492D01*
X-73121D01*
Y102669D01*
X-73827D01*
Y102845D01*
X-74532D01*
Y103021D01*
X-77002D01*
Y103198D01*
D02*
G37*
G36*
X-96580Y108137D02*
X-97285D01*
Y107960D01*
X-97814D01*
Y107784D01*
X-98167D01*
Y107607D01*
X-98520D01*
Y107431D01*
X-98696D01*
Y107255D01*
X-99049D01*
Y107078D01*
X-99226D01*
Y106902D01*
X-99578D01*
Y106726D01*
X-99755D01*
Y106549D01*
X-99931D01*
Y106373D01*
X-100107D01*
Y106196D01*
X-100284D01*
Y106020D01*
X-100637D01*
Y105844D01*
X-100813D01*
Y105667D01*
X-100989D01*
Y105491D01*
X-101166D01*
Y105314D01*
X-101342D01*
Y105138D01*
X-101518D01*
Y104962D01*
X-101695D01*
Y104785D01*
X-101871D01*
Y104609D01*
X-102048D01*
Y104432D01*
X-102224D01*
Y104080D01*
X-102400D01*
Y103903D01*
X-102577D01*
Y103727D01*
X-102753D01*
Y103551D01*
X-102929D01*
Y103374D01*
X-103106D01*
Y103198D01*
X-103282D01*
Y102845D01*
X-103459D01*
Y102669D01*
X-103635D01*
Y102492D01*
X-103811D01*
Y102140D01*
X-103988D01*
Y101963D01*
X-104164D01*
Y101610D01*
X-104340D01*
Y101258D01*
X-104517D01*
Y101081D01*
X-104693D01*
Y100729D01*
X-104870D01*
Y100376D01*
X-105046D01*
Y99847D01*
X-105222D01*
Y99494D01*
X-105399D01*
Y99141D01*
X-105575D01*
Y98788D01*
X-105751D01*
Y98259D01*
X-105928D01*
Y97730D01*
X-106104D01*
Y97377D01*
X-105928D01*
Y97554D01*
X-105751D01*
Y97907D01*
X-105575D01*
Y98083D01*
X-105399D01*
Y98259D01*
X-105222D01*
Y98612D01*
X-105046D01*
Y98788D01*
X-104870D01*
Y98965D01*
X-104693D01*
Y99141D01*
X-104517D01*
Y99318D01*
X-104340D01*
Y99494D01*
X-104164D01*
Y99670D01*
X-103988D01*
Y100023D01*
X-103811D01*
Y100199D01*
X-103635D01*
Y100376D01*
X-103459D01*
Y100552D01*
X-103282D01*
Y100729D01*
X-103106D01*
Y100905D01*
X-102929D01*
Y101081D01*
X-102753D01*
Y101258D01*
X-102577D01*
Y101434D01*
X-102400D01*
Y101610D01*
X-102224D01*
Y101787D01*
X-102048D01*
Y101963D01*
X-101871D01*
Y102140D01*
X-101695D01*
Y102316D01*
X-101518D01*
Y102492D01*
X-101342D01*
Y102669D01*
X-101166D01*
Y102316D01*
X-101342D01*
Y101963D01*
X-101518D01*
Y101787D01*
X-101695D01*
Y101610D01*
X-101871D01*
Y101258D01*
X-102048D01*
Y101081D01*
X-102224D01*
Y100905D01*
X-102400D01*
Y100729D01*
X-102577D01*
Y100552D01*
X-102753D01*
Y100199D01*
X-102929D01*
Y100023D01*
X-103106D01*
Y99847D01*
X-103282D01*
Y99670D01*
X-103459D01*
Y99494D01*
X-103635D01*
Y99141D01*
X-103811D01*
Y98965D01*
X-103988D01*
Y98788D01*
X-104164D01*
Y98612D01*
X-104340D01*
Y98436D01*
X-104517D01*
Y98083D01*
X-104693D01*
Y97907D01*
X-104870D01*
Y97554D01*
X-105046D01*
Y97377D01*
X-105222D01*
Y97024D01*
X-105399D01*
Y96495D01*
X-105575D01*
Y95790D01*
X-105751D01*
Y89969D01*
X-105575D01*
Y88735D01*
X-105399D01*
Y87853D01*
X-105222D01*
Y87147D01*
X-105046D01*
Y86442D01*
X-104870D01*
Y85913D01*
X-104693D01*
Y85207D01*
X-104517D01*
Y84854D01*
X-104693D01*
Y85031D01*
X-104870D01*
Y85383D01*
X-105046D01*
Y85736D01*
X-105222D01*
Y86089D01*
X-105399D01*
Y86618D01*
X-105575D01*
Y86971D01*
X-105751D01*
Y87676D01*
X-105928D01*
Y88205D01*
X-106104D01*
Y88911D01*
X-106281D01*
Y89793D01*
X-106457D01*
Y91028D01*
X-106633D01*
Y92968D01*
X-106810D01*
Y87324D01*
X-106633D01*
Y85736D01*
X-106457D01*
Y84854D01*
X-106281D01*
Y84149D01*
X-106104D01*
Y83443D01*
X-105928D01*
Y82914D01*
X-105751D01*
Y82561D01*
X-105575D01*
Y82032D01*
X-105399D01*
Y81679D01*
X-105222D01*
Y81327D01*
X-105046D01*
Y81150D01*
X-104870D01*
Y80798D01*
X-104693D01*
Y80445D01*
X-104517D01*
Y80092D01*
X-104340D01*
Y79916D01*
X-104164D01*
Y79563D01*
X-103988D01*
Y79387D01*
X-103811D01*
Y79210D01*
X-103635D01*
Y79034D01*
X-103459D01*
Y78857D01*
X-103282D01*
Y78681D01*
X-103106D01*
Y78505D01*
X-102929D01*
Y78328D01*
X-102753D01*
Y78152D01*
X-102577D01*
Y77976D01*
X-102400D01*
Y77799D01*
X-102224D01*
Y77623D01*
X-101871D01*
Y77446D01*
X-101695D01*
Y77270D01*
X-101518D01*
Y77094D01*
X-101166D01*
Y76917D01*
X-100989D01*
Y76741D01*
X-100637D01*
Y76564D01*
X-100284D01*
Y76388D01*
X-99755D01*
Y76212D01*
X-99226D01*
Y76035D01*
X-98520D01*
Y75859D01*
X-97462D01*
Y75683D01*
X-95874D01*
Y75506D01*
X-94640D01*
Y75859D01*
X-94463D01*
Y77094D01*
X-94640D01*
Y77446D01*
X-94816D01*
Y77976D01*
X-94992D01*
Y78505D01*
X-95169D01*
Y79210D01*
X-94992D01*
Y79739D01*
X-94816D01*
Y79916D01*
X-94640D01*
Y80092D01*
X-94463D01*
Y80268D01*
X-94287D01*
Y80445D01*
X-93934D01*
Y80621D01*
X-93758D01*
Y80798D01*
X-93581D01*
Y80974D01*
X-93229D01*
Y81150D01*
X-93052D01*
Y81327D01*
X-92699D01*
Y81503D01*
X-92347D01*
Y81679D01*
X-92170D01*
Y81856D01*
X-91818D01*
Y82032D01*
X-91641D01*
Y82209D01*
X-91288D01*
Y82385D01*
X-90936D01*
Y82561D01*
X-90759D01*
Y82738D01*
X-90406D01*
Y82914D01*
X-90230D01*
Y83090D01*
X-90054D01*
Y83267D01*
X-89701D01*
Y83443D01*
X-89524D01*
Y83620D01*
X-89348D01*
Y83796D01*
X-89172D01*
Y83972D01*
X-88819D01*
Y84149D01*
X-88643D01*
Y84325D01*
X-88466D01*
Y84501D01*
X-88290D01*
Y84678D01*
X-88113D01*
Y85207D01*
X-90230D01*
Y85031D01*
X-91641D01*
Y84854D01*
X-92523D01*
Y84678D01*
X-93052D01*
Y84501D01*
X-93758D01*
Y84325D01*
X-94463D01*
Y84149D01*
X-95345D01*
Y83972D01*
X-98343D01*
Y84149D01*
X-99049D01*
Y84325D01*
X-99578D01*
Y84501D01*
X-100107D01*
Y84678D01*
X-100637D01*
Y84854D01*
X-101166D01*
Y85031D01*
X-101518D01*
Y85207D01*
X-101871D01*
Y85383D01*
X-102224D01*
Y85560D01*
X-102400D01*
Y85736D01*
X-102753D01*
Y85913D01*
X-102929D01*
Y86089D01*
X-103106D01*
Y86442D01*
X-103282D01*
Y86618D01*
X-103459D01*
Y86971D01*
X-103635D01*
Y87324D01*
X-103811D01*
Y87676D01*
X-103988D01*
Y88029D01*
Y88205D01*
Y90146D01*
X-103811D01*
Y90851D01*
X-103635D01*
Y91380D01*
X-103459D01*
Y92262D01*
X-103635D01*
Y92968D01*
X-103811D01*
Y95613D01*
X-103635D01*
Y96319D01*
X-103459D01*
Y96848D01*
X-103282D01*
Y97377D01*
X-103106D01*
Y97730D01*
X-102929D01*
Y98083D01*
X-102753D01*
Y98436D01*
X-102577D01*
Y98788D01*
X-102400D01*
Y99141D01*
X-102224D01*
Y99494D01*
X-102048D01*
Y99847D01*
X-101871D01*
Y100199D01*
X-101695D01*
Y100552D01*
X-101518D01*
Y100905D01*
X-101342D01*
Y101258D01*
X-101166D01*
Y101610D01*
X-100989D01*
Y101963D01*
X-100813D01*
Y102316D01*
X-100637D01*
Y102669D01*
X-100460D01*
Y102845D01*
X-100284D01*
Y103198D01*
X-100107D01*
Y103551D01*
X-99931D01*
Y103727D01*
X-99755D01*
Y104080D01*
X-99578D01*
Y104256D01*
X-99402D01*
Y104432D01*
X-99226D01*
Y104609D01*
X-99049D01*
Y104785D01*
X-98873D01*
Y104962D01*
X-98696D01*
Y105138D01*
X-98520D01*
Y105314D01*
X-98343D01*
Y105491D01*
X-98167D01*
Y105667D01*
X-97991D01*
Y105844D01*
X-97638D01*
Y106020D01*
X-97462D01*
Y106196D01*
X-97109D01*
Y106373D01*
X-96580D01*
Y106549D01*
X-95169D01*
Y106373D01*
X-94816D01*
Y106196D01*
X-94463D01*
Y106020D01*
X-94287D01*
Y105844D01*
X-94110D01*
Y105667D01*
X-93934D01*
Y105491D01*
X-93758D01*
Y105314D01*
X-93581D01*
Y105138D01*
X-93405D01*
Y104962D01*
X-93229D01*
Y104785D01*
X-93052D01*
Y104609D01*
X-92876D01*
Y104432D01*
X-92699D01*
Y104080D01*
X-92523D01*
Y103903D01*
X-92347D01*
Y103551D01*
X-92170D01*
Y103374D01*
X-91994D01*
Y103021D01*
X-91818D01*
Y102669D01*
X-91641D01*
Y102492D01*
X-91465D01*
Y102140D01*
X-91288D01*
Y101787D01*
X-91112D01*
Y101434D01*
X-90936D01*
Y101258D01*
X-90759D01*
Y100905D01*
X-90583D01*
Y100552D01*
X-90406D01*
Y100199D01*
X-90230D01*
Y99847D01*
X-90054D01*
Y99670D01*
X-89877D01*
Y99494D01*
X-89701D01*
Y99670D01*
X-89348D01*
Y99847D01*
X-89172D01*
Y100023D01*
X-88995D01*
Y100199D01*
X-88819D01*
Y100376D01*
X-88643D01*
Y100552D01*
X-88466D01*
Y100729D01*
X-88290D01*
Y100905D01*
X-88113D01*
Y101081D01*
X-87937D01*
Y101258D01*
X-87761D01*
Y101434D01*
X-87584D01*
Y101610D01*
X-87232D01*
Y101787D01*
X-87055D01*
Y102140D01*
X-87232D01*
Y102316D01*
X-87408D01*
Y102492D01*
X-87584D01*
Y102669D01*
X-87761D01*
Y102845D01*
X-87937D01*
Y103021D01*
X-88113D01*
Y103198D01*
X-88290D01*
Y103374D01*
X-88466D01*
Y103551D01*
X-88643D01*
Y103727D01*
X-88819D01*
Y103903D01*
X-88995D01*
Y104080D01*
X-89172D01*
Y104256D01*
X-89348D01*
Y104432D01*
X-89524D01*
Y104609D01*
X-89701D01*
Y104785D01*
X-89877D01*
Y104962D01*
X-90054D01*
Y105138D01*
X-90406D01*
Y105314D01*
X-90583D01*
Y105491D01*
X-90759D01*
Y105667D01*
X-90936D01*
Y105844D01*
X-91288D01*
Y106020D01*
X-91465D01*
Y106196D01*
X-91818D01*
Y106373D01*
X-92170D01*
Y106549D01*
X-92523D01*
Y106726D01*
X-92876D01*
Y106902D01*
X-93405D01*
Y107078D01*
X-93758D01*
Y107255D01*
X-94110D01*
Y107431D01*
X-94640D01*
Y107607D01*
X-95169D01*
Y107784D01*
X-95698D01*
Y107960D01*
X-96580D01*
Y108137D01*
D02*
G37*
G36*
X-95169Y105667D02*
X-96580D01*
Y105491D01*
X-97109D01*
Y105314D01*
X-97285D01*
Y105138D01*
X-97638D01*
Y104962D01*
X-97814D01*
Y104785D01*
X-97991D01*
Y104609D01*
X-98167D01*
Y104432D01*
X-98343D01*
Y104256D01*
X-98520D01*
Y104080D01*
X-98696D01*
Y103903D01*
X-98873D01*
Y103551D01*
X-99049D01*
Y103374D01*
X-99226D01*
Y103021D01*
X-99402D01*
Y102845D01*
X-99578D01*
Y102492D01*
X-99755D01*
Y102140D01*
X-99931D01*
Y101963D01*
X-100107D01*
Y101434D01*
X-100284D01*
Y101081D01*
X-99755D01*
Y100905D01*
X-99049D01*
Y100729D01*
X-98343D01*
Y100552D01*
X-97814D01*
Y100376D01*
X-97109D01*
Y100199D01*
X-96580D01*
Y100023D01*
X-96051D01*
Y99847D01*
X-95521D01*
Y99670D01*
X-95169D01*
Y99494D01*
X-94816D01*
Y99318D01*
X-94463D01*
Y99141D01*
X-94110D01*
Y98965D01*
X-93934D01*
Y98788D01*
X-93581D01*
Y98612D01*
X-93405D01*
Y98436D01*
X-93052D01*
Y98259D01*
X-92876D01*
Y98083D01*
X-92699D01*
Y97907D01*
X-92347D01*
Y97730D01*
X-92170D01*
Y97554D01*
X-91818D01*
Y97377D01*
X-91641D01*
Y97201D01*
X-91112D01*
Y97377D01*
X-90936D01*
Y97730D01*
X-90759D01*
Y98083D01*
X-90583D01*
Y98965D01*
X-90759D01*
Y99318D01*
X-90936D01*
Y99670D01*
X-91112D01*
Y100023D01*
X-91288D01*
Y100376D01*
X-91465D01*
Y100552D01*
Y100729D01*
X-91641D01*
Y101081D01*
X-91818D01*
Y101434D01*
X-91994D01*
Y101787D01*
X-92170D01*
Y101963D01*
X-92347D01*
Y102316D01*
X-92523D01*
Y102669D01*
X-92699D01*
Y102845D01*
X-92876D01*
Y103198D01*
X-93052D01*
Y103374D01*
X-93229D01*
Y103727D01*
X-93405D01*
Y103903D01*
X-93581D01*
Y104256D01*
X-93758D01*
Y104432D01*
X-93934D01*
Y104609D01*
X-94110D01*
Y104785D01*
X-94287D01*
Y104962D01*
X-94463D01*
Y105138D01*
X-94640D01*
Y105314D01*
X-94816D01*
Y105491D01*
X-95169D01*
Y105667D01*
D02*
G37*
G36*
X-99755Y100199D02*
X-100637D01*
Y100023D01*
X-100813D01*
Y99847D01*
X-100989D01*
Y99670D01*
X-101166D01*
Y99318D01*
X-101342D01*
Y99141D01*
X-101518D01*
Y98788D01*
X-101695D01*
Y98436D01*
X-101871D01*
Y98083D01*
X-102048D01*
Y97730D01*
X-102224D01*
Y97377D01*
X-102400D01*
Y96848D01*
X-102577D01*
Y96495D01*
X-102753D01*
Y95966D01*
X-102929D01*
Y95261D01*
X-103106D01*
Y93497D01*
X-102929D01*
Y92791D01*
X-102753D01*
Y92615D01*
X-101871D01*
Y92791D01*
X-101342D01*
Y92968D01*
X-100637D01*
Y93144D01*
X-99931D01*
Y93321D01*
X-96227D01*
Y93144D01*
X-95521D01*
Y92968D01*
X-94992D01*
Y92791D01*
X-94463D01*
Y92615D01*
X-94110D01*
Y92439D01*
X-93581D01*
Y92262D01*
X-93229D01*
Y92086D01*
X-92699D01*
Y91910D01*
X-91994D01*
Y91733D01*
X-90230D01*
Y91557D01*
X-89348D01*
Y91380D01*
X-88643D01*
Y91204D01*
X-87937D01*
Y91028D01*
X-87408D01*
Y90851D01*
X-86879D01*
Y90675D01*
X-85997D01*
Y90851D01*
X-86173D01*
Y91204D01*
X-86350D01*
Y91380D01*
X-86526D01*
Y91733D01*
X-86702D01*
Y91910D01*
X-86879D01*
Y92086D01*
X-87055D01*
Y92262D01*
X-87232D01*
Y92615D01*
X-87408D01*
Y92791D01*
X-87584D01*
Y92968D01*
X-87761D01*
Y93144D01*
X-87937D01*
Y93321D01*
X-88113D01*
Y93497D01*
X-88290D01*
Y93673D01*
X-88466D01*
Y93850D01*
X-88643D01*
Y94026D01*
X-88995D01*
Y94202D01*
X-89172D01*
Y94379D01*
X-90230D01*
Y94202D01*
X-90936D01*
Y94026D01*
X-91641D01*
Y93850D01*
X-92347D01*
Y94026D01*
Y94379D01*
X-92170D01*
Y94908D01*
X-91994D01*
Y95437D01*
X-91818D01*
Y95966D01*
X-91641D01*
Y96319D01*
X-91818D01*
Y96495D01*
X-92170D01*
Y96672D01*
X-92347D01*
Y96848D01*
X-92523D01*
Y97024D01*
X-92699D01*
Y97201D01*
X-93052D01*
Y97377D01*
X-93229D01*
Y97554D01*
X-93405D01*
Y97730D01*
X-93758D01*
Y97907D01*
X-93934D01*
Y98083D01*
X-94287D01*
Y98259D01*
X-94640D01*
Y98436D01*
X-94816D01*
Y98612D01*
X-95169D01*
Y98788D01*
X-95698D01*
Y98965D01*
X-96051D01*
Y99141D01*
X-96403D01*
Y99318D01*
X-96932D01*
Y99494D01*
X-97638D01*
Y99670D01*
X-98167D01*
Y99847D01*
X-98873D01*
Y100023D01*
X-99755D01*
Y100199D01*
D02*
G37*
G36*
X-80705Y95966D02*
X-82822D01*
Y95790D01*
X-84233D01*
Y95613D01*
X-85468D01*
Y95437D01*
X-86350D01*
Y95261D01*
X-87055D01*
Y95084D01*
X-87937D01*
Y94908D01*
X-88113D01*
Y94379D01*
X-87937D01*
Y94202D01*
X-87761D01*
Y94026D01*
X-87584D01*
Y93850D01*
X-87408D01*
Y93673D01*
X-87232D01*
Y93497D01*
X-87055D01*
Y93321D01*
X-86879D01*
Y93144D01*
X-86702D01*
Y92968D01*
X-86526D01*
Y92791D01*
X-86350D01*
Y92439D01*
X-86173D01*
Y92262D01*
X-85997D01*
Y92086D01*
X-85821D01*
Y91910D01*
X-85291D01*
Y92086D01*
X-85115D01*
Y92262D01*
X-84939D01*
Y92439D01*
X-84762D01*
Y92615D01*
X-84586D01*
Y92791D01*
X-84410D01*
Y92968D01*
X-84233D01*
Y93144D01*
X-84057D01*
Y93321D01*
X-83880D01*
Y93497D01*
X-83704D01*
Y93673D01*
X-83528D01*
Y93850D01*
X-83175D01*
Y94026D01*
X-82999D01*
Y94202D01*
X-82822D01*
Y94379D01*
X-82646D01*
Y94555D01*
X-82293D01*
Y94732D01*
X-82116D01*
Y94908D01*
X-81940D01*
Y95084D01*
X-81587D01*
Y95261D01*
X-81235D01*
Y95437D01*
X-81058D01*
Y95613D01*
X-80705D01*
Y95966D01*
D02*
G37*
G36*
X-71534Y96143D02*
X-76296D01*
Y95966D01*
X-77354D01*
Y95790D01*
X-78060D01*
Y95613D01*
X-78765D01*
Y95437D01*
X-79295D01*
Y95261D01*
X-79824D01*
Y95084D01*
X-80176D01*
Y94908D01*
X-80529D01*
Y94732D01*
X-80882D01*
Y94555D01*
X-81235D01*
Y94379D01*
X-81587D01*
Y94202D01*
X-81764D01*
Y94026D01*
X-82116D01*
Y93850D01*
X-82293D01*
Y93673D01*
X-82469D01*
Y93497D01*
X-82822D01*
Y93321D01*
X-82999D01*
Y93144D01*
X-83175D01*
Y92968D01*
X-83351D01*
Y92791D01*
X-83528D01*
Y92615D01*
X-83704D01*
Y92439D01*
X-83880D01*
Y92086D01*
X-84057D01*
Y91910D01*
X-84233D01*
Y91733D01*
X-84410D01*
Y91557D01*
Y91380D01*
X-84586D01*
Y91204D01*
X-84762D01*
Y90851D01*
X-84939D01*
Y90675D01*
X-85115D01*
Y90322D01*
X-85291D01*
Y89793D01*
X-85468D01*
Y89264D01*
X-85644D01*
Y88558D01*
X-85821D01*
Y87147D01*
X-85997D01*
Y83972D01*
X-85821D01*
Y84149D01*
X-85468D01*
Y84325D01*
X-85115D01*
Y84501D01*
X-84939D01*
Y84678D01*
X-84586D01*
Y84854D01*
X-84410D01*
Y85031D01*
X-84057D01*
Y85207D01*
X-83880D01*
Y85383D01*
X-83528D01*
Y85560D01*
X-83351D01*
Y85736D01*
X-82999D01*
Y85913D01*
X-82646D01*
Y86089D01*
X-82293D01*
Y86265D01*
X-81940D01*
Y86442D01*
X-81587D01*
Y86618D01*
X-81411D01*
Y86795D01*
X-81058D01*
Y86971D01*
X-80705D01*
Y87147D01*
X-80353D01*
Y87324D01*
X-80000D01*
Y87500D01*
X-79471D01*
Y87676D01*
X-79118D01*
Y87853D01*
X-78765D01*
Y88029D01*
X-78413D01*
Y88205D01*
X-77883D01*
Y88382D01*
X-77531D01*
Y88558D01*
X-76825D01*
Y88735D01*
X-75943D01*
Y88911D01*
X-74709D01*
Y89087D01*
X-73298D01*
Y88911D01*
X-72239D01*
Y88735D01*
X-71357D01*
Y89087D01*
X-71181D01*
Y89617D01*
X-71005D01*
Y90675D01*
X-70828D01*
Y93144D01*
X-70652D01*
Y94732D01*
X-70828D01*
Y95966D01*
X-71534D01*
Y96143D01*
D02*
G37*
G36*
X-72768Y88205D02*
X-75767D01*
Y88029D01*
X-76649D01*
Y87853D01*
X-77178D01*
Y87676D01*
X-77707D01*
Y87500D01*
X-78236D01*
Y87324D01*
X-78589D01*
Y87147D01*
X-79118D01*
Y86971D01*
X-79471D01*
Y86795D01*
X-79824D01*
Y86618D01*
X-80176D01*
Y86442D01*
X-80529D01*
Y86265D01*
X-80705D01*
Y86089D01*
X-80882D01*
Y85913D01*
X-81058D01*
Y85736D01*
X-81235D01*
Y85560D01*
X-81411D01*
Y85383D01*
X-81587D01*
Y84854D01*
X-81764D01*
Y84501D01*
X-81940D01*
Y83796D01*
X-82116D01*
Y82738D01*
X-81940D01*
Y82209D01*
X-81764D01*
Y81856D01*
X-81587D01*
Y81503D01*
X-81411D01*
Y81327D01*
X-81235D01*
Y81150D01*
X-81058D01*
Y80974D01*
X-80705D01*
Y81150D01*
X-80353D01*
Y81327D01*
X-80176D01*
Y81503D01*
X-80000D01*
Y81679D01*
X-79647D01*
Y81856D01*
X-79471D01*
Y82032D01*
X-78942D01*
Y82209D01*
X-78236D01*
Y82385D01*
X-72768D01*
Y83443D01*
X-74356D01*
Y83620D01*
X-77002D01*
Y83443D01*
X-78589D01*
Y83267D01*
X-79295D01*
Y83090D01*
X-80000D01*
Y82914D01*
X-80529D01*
Y82738D01*
X-80882D01*
Y82914D01*
X-80705D01*
Y83090D01*
X-80529D01*
Y83267D01*
X-80353D01*
Y83443D01*
X-80000D01*
Y83620D01*
X-79824D01*
Y83796D01*
X-79295D01*
Y83972D01*
X-78765D01*
Y84149D01*
X-77883D01*
Y84325D01*
X-75238D01*
Y84149D01*
X-74003D01*
Y83972D01*
X-72592D01*
Y84325D01*
X-72416D01*
Y84854D01*
X-72239D01*
Y85560D01*
X-72063D01*
Y85913D01*
Y86089D01*
Y86442D01*
X-71887D01*
Y87853D01*
X-72063D01*
Y88029D01*
X-72768D01*
Y88205D01*
D02*
G37*
G36*
X-96580Y92615D02*
X-99402D01*
Y92439D01*
X-100460D01*
Y92262D01*
X-100989D01*
Y92086D01*
X-101518D01*
Y91910D01*
X-102048D01*
Y91733D01*
X-102224D01*
Y91557D01*
X-102400D01*
Y91380D01*
X-102577D01*
Y91204D01*
X-102753D01*
Y90851D01*
X-102929D01*
Y90322D01*
X-103106D01*
Y89440D01*
X-103282D01*
Y88029D01*
X-103106D01*
Y87500D01*
X-102929D01*
Y87147D01*
X-102753D01*
Y86971D01*
X-102577D01*
Y86795D01*
X-102400D01*
Y86618D01*
X-102224D01*
Y86442D01*
X-102048D01*
Y86265D01*
X-101871D01*
Y86089D01*
X-101518D01*
Y85913D01*
X-101342D01*
Y85736D01*
X-100813D01*
Y85560D01*
X-100460D01*
Y85383D01*
X-99755D01*
Y85207D01*
X-99049D01*
Y85031D01*
X-98696D01*
Y85207D01*
X-98520D01*
Y85383D01*
X-98343D01*
Y85560D01*
X-98167D01*
Y85736D01*
X-97991D01*
Y85913D01*
X-97638D01*
Y86089D01*
X-97462D01*
Y86265D01*
X-97285D01*
Y86442D01*
X-96932D01*
Y86618D01*
X-96580D01*
Y86795D01*
X-96051D01*
Y86971D01*
X-94287D01*
Y86795D01*
X-93581D01*
Y86618D01*
X-92876D01*
Y86442D01*
X-92347D01*
Y86265D01*
X-91818D01*
Y86089D01*
X-91288D01*
Y85913D01*
X-89701D01*
Y86089D01*
X-89172D01*
Y86265D01*
X-88995D01*
Y86442D01*
X-89172D01*
Y86795D01*
X-89348D01*
Y87147D01*
X-89524D01*
Y87324D01*
X-89701D01*
Y87676D01*
X-89877D01*
Y87853D01*
X-90054D01*
Y88029D01*
X-90230D01*
Y88382D01*
X-90406D01*
Y88558D01*
X-90583D01*
Y88735D01*
X-90759D01*
Y88911D01*
X-90936D01*
Y89087D01*
X-91112D01*
Y89264D01*
X-91288D01*
Y89440D01*
X-91465D01*
Y89617D01*
X-91641D01*
Y89793D01*
X-91818D01*
Y89969D01*
X-91994D01*
Y90146D01*
X-92170D01*
Y90322D01*
X-92347D01*
Y90499D01*
X-92523D01*
Y90675D01*
X-92699D01*
Y90851D01*
X-93052D01*
Y91028D01*
X-93229D01*
Y91204D01*
X-93581D01*
Y91380D01*
X-93758D01*
Y91557D01*
X-94110D01*
Y91733D01*
X-94463D01*
Y91910D01*
X-94816D01*
Y92086D01*
X-95345D01*
Y92262D01*
X-95874D01*
Y92439D01*
X-96580D01*
Y92615D01*
D02*
G37*
G36*
X-96227Y86089D02*
Y85913D01*
X-96580D01*
Y85736D01*
X-96932D01*
Y85560D01*
X-97285D01*
Y85383D01*
X-97462D01*
Y85207D01*
X-97638D01*
Y84854D01*
X-97814D01*
Y84678D01*
X-95874D01*
Y84854D01*
X-95169D01*
Y85031D01*
X-94287D01*
Y85207D01*
X-93581D01*
Y85383D01*
X-93229D01*
Y85560D01*
X-93052D01*
Y85736D01*
X-93229D01*
Y85913D01*
X-93581D01*
Y86089D01*
X-96227D01*
D02*
G37*
G36*
X-89524Y90851D02*
X-91288D01*
Y90675D01*
X-91112D01*
Y90499D01*
X-90936D01*
Y90322D01*
X-90759D01*
Y89969D01*
X-90583D01*
Y89793D01*
X-90406D01*
Y89617D01*
X-90230D01*
Y89440D01*
X-90054D01*
Y89087D01*
X-89877D01*
Y88911D01*
X-89701D01*
Y88735D01*
X-89524D01*
Y88382D01*
X-89348D01*
Y88205D01*
X-89172D01*
Y87853D01*
X-88995D01*
Y87676D01*
X-88819D01*
Y87324D01*
X-88643D01*
Y87147D01*
X-88466D01*
Y86971D01*
X-88290D01*
Y86618D01*
X-88113D01*
Y86442D01*
X-87937D01*
Y86089D01*
X-87761D01*
Y85736D01*
X-87584D01*
Y85560D01*
X-87408D01*
Y85207D01*
X-87232D01*
Y84678D01*
X-87408D01*
Y84501D01*
X-87584D01*
Y84325D01*
X-87761D01*
Y83972D01*
X-87937D01*
Y83796D01*
X-88113D01*
Y83620D01*
X-88290D01*
Y83443D01*
X-88466D01*
Y83267D01*
X-88819D01*
Y83090D01*
X-88995D01*
Y82914D01*
X-89172D01*
Y82738D01*
X-89348D01*
Y82561D01*
X-89701D01*
Y82385D01*
X-89877D01*
Y82209D01*
X-90230D01*
Y82032D01*
X-90406D01*
Y81856D01*
X-90759D01*
Y81679D01*
X-90936D01*
Y81503D01*
X-91288D01*
Y81327D01*
X-91465D01*
Y81150D01*
X-91818D01*
Y80974D01*
X-91994D01*
Y80798D01*
X-92347D01*
Y80621D01*
X-92699D01*
Y80445D01*
X-92876D01*
Y80268D01*
X-93229D01*
Y80092D01*
X-93405D01*
Y79916D01*
X-93581D01*
Y79739D01*
X-93758D01*
Y79563D01*
X-93934D01*
Y79387D01*
X-94110D01*
Y79210D01*
X-94287D01*
Y78328D01*
X-94110D01*
Y77976D01*
X-93934D01*
Y77446D01*
X-93758D01*
Y76917D01*
X-93581D01*
Y76212D01*
X-93758D01*
Y75506D01*
X-93934D01*
Y75153D01*
X-94110D01*
Y74801D01*
X-94287D01*
Y74271D01*
X-94463D01*
Y73919D01*
X-94640D01*
Y73566D01*
X-94816D01*
Y73037D01*
X-94992D01*
Y72508D01*
X-95169D01*
Y71979D01*
X-95345D01*
Y71449D01*
X-95521D01*
Y70920D01*
X-95698D01*
Y70215D01*
X-95874D01*
Y69686D01*
X-96051D01*
Y68804D01*
X-96227D01*
Y68098D01*
X-96403D01*
Y67216D01*
X-96580D01*
Y65982D01*
X-96756D01*
Y64041D01*
X-96932D01*
Y57163D01*
X-96756D01*
Y55752D01*
X-96580D01*
Y54693D01*
X-96403D01*
Y53988D01*
X-96227D01*
Y53106D01*
X-96051D01*
Y52577D01*
X-95874D01*
Y52048D01*
X-95698D01*
Y51518D01*
X-95521D01*
Y50989D01*
X-95345D01*
Y50460D01*
X-95169D01*
Y50107D01*
X-94992D01*
Y49578D01*
X-94816D01*
Y49226D01*
X-94640D01*
Y48696D01*
X-94463D01*
Y48344D01*
X-94287D01*
Y47991D01*
X-94110D01*
Y47638D01*
X-93934D01*
Y47285D01*
X-93758D01*
Y46933D01*
X-93581D01*
Y46580D01*
X-93405D01*
Y46227D01*
X-93229D01*
Y45698D01*
X-93052D01*
Y45345D01*
X-92876D01*
Y44992D01*
X-92699D01*
Y44463D01*
X-92876D01*
Y44287D01*
X-93405D01*
Y44110D01*
X-93934D01*
Y43934D01*
X-94287D01*
Y43758D01*
X-94640D01*
Y43581D01*
X-94992D01*
Y43405D01*
X-95345D01*
Y43229D01*
X-95521D01*
Y43052D01*
X-95698D01*
Y42876D01*
X-95874D01*
Y42523D01*
X-95521D01*
Y42347D01*
X-94992D01*
Y42170D01*
X-94110D01*
Y41994D01*
X-93405D01*
Y41817D01*
X-92699D01*
Y41641D01*
X-91818D01*
Y41465D01*
X-91112D01*
Y41288D01*
X-90406D01*
Y41112D01*
X-89701D01*
Y40936D01*
X-88995D01*
Y40759D01*
X-88466D01*
Y40583D01*
X-88113D01*
Y40406D01*
X-87584D01*
Y40230D01*
X-87232D01*
Y40054D01*
X-86879D01*
Y39877D01*
X-86526D01*
Y39701D01*
X-86173D01*
Y39525D01*
X-85997D01*
Y39348D01*
X-85644D01*
Y39172D01*
X-85468D01*
Y38995D01*
X-85115D01*
Y38819D01*
X-84939D01*
Y38643D01*
X-84762D01*
Y38466D01*
X-84410D01*
Y38290D01*
X-84233D01*
Y38114D01*
X-84057D01*
Y37937D01*
X-83880D01*
Y37761D01*
X-83704D01*
Y37584D01*
X-83528D01*
Y37408D01*
X-83351D01*
Y37232D01*
X-83175D01*
Y37055D01*
X-82822D01*
Y36879D01*
X-82646D01*
Y36702D01*
X-82469D01*
Y36526D01*
X-82293D01*
Y36350D01*
X-82116D01*
Y36173D01*
X-81940D01*
Y35997D01*
X-81587D01*
Y35821D01*
X-81411D01*
Y35644D01*
X-81235D01*
Y35468D01*
X-80882D01*
Y35291D01*
X-80705D01*
Y35115D01*
X-80353D01*
Y34939D01*
X-80000D01*
Y34762D01*
X-79647D01*
Y34586D01*
X-79471D01*
Y34409D01*
X-79118D01*
Y34233D01*
X-78765D01*
Y34057D01*
X-78413D01*
Y33880D01*
X-78060D01*
Y33704D01*
X-77707D01*
Y33528D01*
X-77354D01*
Y33351D01*
X-77002D01*
Y33175D01*
X-76825D01*
Y32998D01*
X-76472D01*
Y32646D01*
X-77354D01*
Y32822D01*
X-77883D01*
Y32998D01*
X-78236D01*
Y33175D01*
X-78765D01*
Y33351D01*
X-79118D01*
Y33528D01*
X-79471D01*
Y33704D01*
X-79824D01*
Y33880D01*
X-80176D01*
Y34057D01*
X-80529D01*
Y34233D01*
X-81058D01*
Y32998D01*
X-81235D01*
Y32293D01*
X-81411D01*
Y31940D01*
X-81587D01*
Y31411D01*
X-81764D01*
Y31235D01*
X-81587D01*
Y31058D01*
X-80529D01*
Y30882D01*
X-77354D01*
Y31058D01*
X-76649D01*
Y31235D01*
X-76296D01*
Y31411D01*
X-76120D01*
Y31587D01*
X-75943D01*
Y31764D01*
X-75767D01*
Y31940D01*
X-75591D01*
Y32293D01*
X-75414D01*
Y32469D01*
X-75238D01*
Y32822D01*
X-75061D01*
Y32998D01*
X-74885D01*
Y33351D01*
X-74709D01*
Y33704D01*
X-74532D01*
Y33880D01*
X-74356D01*
Y34057D01*
X-74180D01*
Y34409D01*
X-74003D01*
Y34586D01*
X-73827D01*
Y34762D01*
X-73650D01*
Y34939D01*
X-73474D01*
Y35115D01*
X-73298D01*
Y35291D01*
X-73121D01*
Y35468D01*
X-72945D01*
Y35644D01*
X-72768D01*
Y35821D01*
X-72416D01*
Y35997D01*
X-72239D01*
Y36173D01*
X-71887D01*
Y36350D01*
X-71710D01*
Y36526D01*
X-71357D01*
Y36702D01*
X-71005D01*
Y36879D01*
X-70652D01*
Y37055D01*
X-70299D01*
Y37232D01*
X-69770D01*
Y37408D01*
X-69241D01*
Y37584D01*
X-68888D01*
Y37761D01*
X-68535D01*
Y37937D01*
X-68359D01*
Y38114D01*
X-68183D01*
Y38290D01*
X-67830D01*
Y38466D01*
X-67653D01*
Y38643D01*
X-67477D01*
Y38819D01*
X-67301D01*
Y38995D01*
X-67124D01*
Y39172D01*
X-66948D01*
Y39348D01*
X-66771D01*
Y39525D01*
X-66595D01*
Y39701D01*
X-66419D01*
Y39877D01*
X-66242D01*
Y40054D01*
X-66066D01*
Y40230D01*
X-65890D01*
Y40406D01*
X-65713D01*
Y43581D01*
X-65890D01*
Y45345D01*
X-66066D01*
Y46051D01*
X-66242D01*
Y46403D01*
X-66419D01*
Y46756D01*
X-66595D01*
Y46933D01*
X-66771D01*
Y47285D01*
X-66948D01*
Y47462D01*
X-67124D01*
Y47638D01*
X-67301D01*
Y47991D01*
X-67477D01*
Y48167D01*
X-67653D01*
Y48344D01*
X-67830D01*
Y48520D01*
X-68006D01*
Y48696D01*
X-68183D01*
Y48873D01*
X-68359D01*
Y49049D01*
X-68535D01*
Y49402D01*
X-68712D01*
Y49578D01*
X-68888D01*
Y49755D01*
X-69064D01*
Y49931D01*
X-69241D01*
Y50107D01*
X-69417D01*
Y50460D01*
X-69594D01*
Y50637D01*
X-69770D01*
Y50813D01*
X-69946D01*
Y50989D01*
X-70123D01*
Y51342D01*
X-70299D01*
Y51518D01*
X-70475D01*
Y51871D01*
X-75591D01*
Y52048D01*
X-76120D01*
Y52224D01*
X-76649D01*
Y52400D01*
X-77178D01*
Y52577D01*
X-77707D01*
Y52753D01*
X-78060D01*
Y52930D01*
X-78589D01*
Y53106D01*
X-79118D01*
Y53282D01*
X-79471D01*
Y53459D01*
X-80000D01*
Y53635D01*
X-80353D01*
Y53811D01*
X-80705D01*
Y53988D01*
X-81058D01*
Y54164D01*
X-81411D01*
Y54341D01*
X-81764D01*
Y54517D01*
X-81940D01*
Y54693D01*
X-82293D01*
Y54870D01*
X-82646D01*
Y55046D01*
X-82822D01*
Y55222D01*
X-82999D01*
Y55399D01*
X-83351D01*
Y55575D01*
X-83528D01*
Y55752D01*
X-83704D01*
Y55928D01*
X-83880D01*
Y56104D01*
X-84233D01*
Y56281D01*
X-84410D01*
Y56457D01*
X-84586D01*
Y56633D01*
X-84762D01*
Y56810D01*
X-85115D01*
Y56986D01*
X-85291D01*
Y57163D01*
X-85468D01*
Y57339D01*
X-85644D01*
Y57515D01*
X-85821D01*
Y57692D01*
X-85997D01*
Y57868D01*
X-86173D01*
Y58045D01*
X-86350D01*
Y58221D01*
X-86526D01*
Y58397D01*
X-86702D01*
Y58574D01*
X-86879D01*
Y58750D01*
X-87055D01*
Y58926D01*
X-87232D01*
Y59103D01*
X-87408D01*
Y59279D01*
X-87584D01*
Y59632D01*
X-87761D01*
Y59808D01*
X-87937D01*
Y59985D01*
X-88113D01*
Y60337D01*
X-88290D01*
Y60514D01*
X-88466D01*
Y60867D01*
X-88643D01*
Y61043D01*
X-88819D01*
Y61219D01*
X-88995D01*
Y61572D01*
X-89172D01*
Y61925D01*
X-89348D01*
Y62101D01*
X-89524D01*
Y62454D01*
X-89701D01*
Y62807D01*
X-89877D01*
Y62983D01*
X-90054D01*
Y63336D01*
X-90230D01*
Y63689D01*
X-90406D01*
Y64041D01*
X-90583D01*
Y64394D01*
X-90759D01*
Y64747D01*
X-90936D01*
Y65100D01*
X-91112D01*
Y65452D01*
X-91288D01*
Y65805D01*
X-91465D01*
Y66334D01*
X-91641D01*
Y66687D01*
X-91818D01*
Y67216D01*
X-91994D01*
Y67569D01*
X-92170D01*
Y68098D01*
X-92347D01*
Y68627D01*
X-92523D01*
Y69156D01*
X-92699D01*
Y69686D01*
X-92876D01*
Y70567D01*
X-93052D01*
Y71449D01*
X-92523D01*
Y71273D01*
X-92347D01*
Y70920D01*
X-92170D01*
Y70038D01*
X-91994D01*
Y69509D01*
X-91818D01*
Y68980D01*
X-91641D01*
Y68451D01*
X-91465D01*
Y67922D01*
X-91288D01*
Y67569D01*
X-91112D01*
Y67216D01*
X-90936D01*
Y66687D01*
X-90759D01*
Y66334D01*
X-90583D01*
Y65982D01*
X-90406D01*
Y65629D01*
X-90230D01*
Y65276D01*
X-90054D01*
Y64923D01*
X-89877D01*
Y64571D01*
X-89701D01*
Y64218D01*
X-89524D01*
Y63865D01*
X-89348D01*
Y63512D01*
X-89172D01*
Y63159D01*
X-88995D01*
Y62807D01*
X-88819D01*
Y62630D01*
X-88643D01*
Y62278D01*
X-88466D01*
Y61925D01*
X-88290D01*
Y61748D01*
X-88113D01*
Y61396D01*
X-87937D01*
Y61219D01*
X-87761D01*
Y60867D01*
X-87584D01*
Y60690D01*
X-87408D01*
Y60514D01*
X-87232D01*
Y60161D01*
X-87055D01*
Y59985D01*
X-86879D01*
Y59808D01*
X-86702D01*
Y59632D01*
X-86526D01*
Y59455D01*
X-86350D01*
Y59279D01*
X-86173D01*
Y59103D01*
X-85997D01*
Y58926D01*
X-85821D01*
Y58750D01*
X-85644D01*
Y58397D01*
X-85468D01*
Y58221D01*
X-85115D01*
Y58045D01*
X-84939D01*
Y57868D01*
X-84762D01*
Y57692D01*
X-84586D01*
Y57515D01*
X-84410D01*
Y57339D01*
X-84233D01*
Y57163D01*
X-84057D01*
Y56986D01*
X-83880D01*
Y56810D01*
X-83528D01*
Y56633D01*
X-83351D01*
Y56457D01*
X-83175D01*
Y56281D01*
X-82999D01*
Y56104D01*
X-82646D01*
Y55928D01*
X-82469D01*
Y55752D01*
X-82116D01*
Y55575D01*
X-81940D01*
Y55399D01*
X-81587D01*
Y55222D01*
X-81411D01*
Y55046D01*
X-81058D01*
Y54870D01*
X-80705D01*
Y54693D01*
X-80353D01*
Y54517D01*
X-80000D01*
Y54341D01*
X-79647D01*
Y54164D01*
X-79295D01*
Y53988D01*
X-78765D01*
Y53811D01*
X-78413D01*
Y53635D01*
X-77883D01*
Y53459D01*
X-77178D01*
Y53282D01*
X-76649D01*
Y53106D01*
X-75943D01*
Y52930D01*
X-75238D01*
Y52753D01*
X-73827D01*
Y52577D01*
X-72416D01*
Y52753D01*
X-70828D01*
Y52930D01*
X-69417D01*
Y53106D01*
X-68359D01*
Y53282D01*
X-66948D01*
Y53459D01*
X-65184D01*
Y53635D01*
X-64479D01*
Y53459D01*
X-63597D01*
Y53282D01*
X-63420D01*
Y53106D01*
X-63067D01*
Y52753D01*
X-62891D01*
Y52400D01*
X-62715D01*
Y51871D01*
X-62538D01*
Y50989D01*
X-62362D01*
Y46227D01*
X-62538D01*
Y45169D01*
X-62715D01*
Y44287D01*
X-62891D01*
Y43758D01*
X-63067D01*
Y43229D01*
X-63244D01*
Y42876D01*
X-63420D01*
Y42347D01*
X-63597D01*
Y41994D01*
X-63773D01*
Y41817D01*
X-63949D01*
Y41465D01*
X-64126D01*
Y41288D01*
X-64302D01*
Y40936D01*
X-64479D01*
Y40759D01*
X-64655D01*
Y40583D01*
X-64831D01*
Y40230D01*
X-65008D01*
Y40054D01*
X-65184D01*
Y39877D01*
X-65360D01*
Y39701D01*
X-65537D01*
Y39525D01*
X-65713D01*
Y39348D01*
X-65890D01*
Y39172D01*
X-66066D01*
Y38995D01*
X-66242D01*
Y38819D01*
X-66419D01*
Y38643D01*
X-66595D01*
Y38466D01*
X-66771D01*
Y38290D01*
X-66948D01*
Y38114D01*
X-67124D01*
Y37937D01*
X-67301D01*
Y37584D01*
X-67124D01*
Y37408D01*
X-64302D01*
Y37232D01*
X-58834D01*
Y37055D01*
X-57423D01*
Y36879D01*
X-56189D01*
Y36702D01*
X-55130D01*
Y36526D01*
X-54072D01*
Y36350D01*
X-53190D01*
Y36173D01*
X-52308D01*
Y35997D01*
X-51603D01*
Y35821D01*
X-50897D01*
Y35644D01*
X-50368D01*
Y35468D01*
X-50015D01*
Y35291D01*
X-49663D01*
Y35115D01*
X-49310D01*
Y34939D01*
X-48957D01*
Y34762D01*
X-48604D01*
Y34586D01*
X-48428D01*
Y34409D01*
X-48252D01*
Y34233D01*
X-47899D01*
Y34057D01*
X-47722D01*
Y33880D01*
X-47546D01*
Y33704D01*
X-47370D01*
Y33528D01*
X-47193D01*
Y33351D01*
X-47017D01*
Y33175D01*
X-46841D01*
Y32998D01*
X-46664D01*
Y32822D01*
X-46488D01*
Y32646D01*
X-46311D01*
Y32469D01*
X-46135D01*
Y32293D01*
X-45959D01*
Y31940D01*
X-45782D01*
Y31764D01*
X-45606D01*
Y31587D01*
X-45429D01*
Y31411D01*
X-45253D01*
Y31058D01*
X-45077D01*
Y30882D01*
X-44900D01*
Y30705D01*
X-44724D01*
Y30353D01*
X-44548D01*
Y30176D01*
X-44371D01*
Y30000D01*
X-44018D01*
Y29824D01*
X-43666D01*
Y29647D01*
X-43137D01*
Y29471D01*
X-42431D01*
Y29295D01*
X-41549D01*
Y29471D01*
X-41373D01*
Y29647D01*
X-41196D01*
Y29824D01*
X-41020D01*
Y30000D01*
X-40844D01*
Y30176D01*
X-40667D01*
Y30353D01*
X-40491D01*
Y30705D01*
X-40314D01*
Y30882D01*
X-40138D01*
Y31764D01*
X-39962D01*
Y32998D01*
X-40138D01*
Y35291D01*
X-40314D01*
Y36350D01*
X-40491D01*
Y37055D01*
X-40667D01*
Y37761D01*
X-40844D01*
Y38290D01*
X-41020D01*
Y38819D01*
X-41196D01*
Y39348D01*
X-41373D01*
Y39877D01*
X-41549D01*
Y40406D01*
X-41726D01*
Y40936D01*
X-41902D01*
Y41465D01*
X-42078D01*
Y41994D01*
X-42255D01*
Y42523D01*
X-42431D01*
Y43581D01*
X-42255D01*
Y44640D01*
X-42078D01*
Y45698D01*
X-41902D01*
Y46933D01*
X-41726D01*
Y47991D01*
X-41549D01*
Y48167D01*
Y49226D01*
X-41373D01*
Y50637D01*
X-41196D01*
Y52753D01*
X-41020D01*
Y56457D01*
X-40844D01*
Y57515D01*
X-40667D01*
Y57692D01*
X-40491D01*
Y57868D01*
X-40314D01*
Y58045D01*
X-39962D01*
Y58221D01*
X-39785D01*
Y58397D01*
X-39609D01*
Y58574D01*
X-39256D01*
Y58750D01*
X-39080D01*
Y58926D01*
X-38903D01*
Y59103D01*
X-38551D01*
Y59279D01*
X-38374D01*
Y59455D01*
X-38198D01*
Y59632D01*
X-37845D01*
Y59808D01*
X-37669D01*
Y59985D01*
X-37492D01*
Y60161D01*
X-37316D01*
Y60337D01*
X-37140D01*
Y60514D01*
X-36787D01*
Y60690D01*
X-36610D01*
Y60867D01*
X-36434D01*
Y61043D01*
X-36258D01*
Y61219D01*
X-36081D01*
Y61396D01*
X-35905D01*
Y61572D01*
X-35728D01*
Y61748D01*
X-35552D01*
Y61925D01*
X-35376D01*
Y62101D01*
X-35199D01*
Y62278D01*
X-35023D01*
Y62454D01*
X-34847D01*
Y62630D01*
X-34670D01*
Y62807D01*
X-34494D01*
Y62983D01*
X-34318D01*
Y63159D01*
X-34141D01*
Y63336D01*
X-33965D01*
Y63512D01*
X-33788D01*
Y63689D01*
X-33612D01*
Y63865D01*
X-33436D01*
Y64041D01*
X-33259D01*
Y64218D01*
X-33083D01*
Y64571D01*
X-32906D01*
Y64747D01*
X-32730D01*
Y64923D01*
X-32554D01*
Y65100D01*
X-32377D01*
Y65452D01*
X-32201D01*
Y65629D01*
X-32025D01*
Y65982D01*
X-31848D01*
Y66334D01*
X-31672D01*
Y66511D01*
X-31495D01*
Y66863D01*
X-31319D01*
Y67216D01*
X-31143D01*
Y67569D01*
X-30966D01*
Y67922D01*
X-30790D01*
Y68274D01*
X-30614D01*
Y68627D01*
X-30437D01*
Y68980D01*
X-30261D01*
Y69333D01*
X-30084D01*
Y69686D01*
X-29908D01*
Y70215D01*
X-29732D01*
Y71449D01*
X-29555D01*
Y75330D01*
X-29732D01*
Y77270D01*
X-29908D01*
Y78152D01*
X-30084D01*
Y78857D01*
X-30261D01*
Y79387D01*
X-30437D01*
Y79916D01*
X-30614D01*
Y80621D01*
X-30790D01*
Y81150D01*
X-30966D01*
Y81503D01*
X-31143D01*
Y82032D01*
X-31319D01*
Y82385D01*
X-31495D01*
Y82914D01*
X-31672D01*
Y83267D01*
X-31848D01*
Y83620D01*
X-32025D01*
Y83972D01*
X-32201D01*
Y84501D01*
X-32377D01*
Y84854D01*
X-32554D01*
Y85207D01*
X-32730D01*
Y85560D01*
X-32906D01*
Y85913D01*
X-33083D01*
Y86265D01*
X-33259D01*
Y86618D01*
X-33436D01*
Y86795D01*
X-33612D01*
Y87147D01*
X-33788D01*
Y87500D01*
X-33965D01*
Y87853D01*
X-34141D01*
Y88205D01*
X-34318D01*
Y88382D01*
X-34494D01*
Y88735D01*
X-34670D01*
Y88911D01*
X-34847D01*
Y89264D01*
X-35023D01*
Y89440D01*
X-35199D01*
Y89793D01*
X-35728D01*
Y89617D01*
X-35905D01*
Y89440D01*
X-36258D01*
Y89264D01*
X-36434D01*
Y89087D01*
X-36610D01*
Y88911D01*
X-36963D01*
Y88735D01*
X-37140D01*
Y88558D01*
X-37316D01*
Y88382D01*
X-37492D01*
Y88205D01*
X-37669D01*
Y88029D01*
X-38022D01*
Y87853D01*
X-38198D01*
Y87676D01*
X-38374D01*
Y87500D01*
X-38551D01*
Y87324D01*
X-38727D01*
Y87147D01*
X-38903D01*
Y86971D01*
X-39080D01*
Y86795D01*
X-39256D01*
Y86618D01*
X-39432D01*
Y86442D01*
X-39609D01*
Y86089D01*
X-39785D01*
Y85913D01*
X-39962D01*
Y85560D01*
X-40138D01*
Y84854D01*
X-40314D01*
Y84325D01*
X-40491D01*
Y83972D01*
X-40667D01*
Y83620D01*
X-40844D01*
Y83267D01*
X-41020D01*
Y83090D01*
X-41196D01*
Y82738D01*
X-41373D01*
Y82561D01*
X-41549D01*
Y82385D01*
X-41726D01*
Y82209D01*
X-41902D01*
Y82032D01*
X-42078D01*
Y81856D01*
X-42255D01*
Y81503D01*
X-42431D01*
Y81327D01*
X-42607D01*
Y81150D01*
X-42784D01*
Y80974D01*
X-42960D01*
Y80798D01*
X-43137D01*
Y80621D01*
X-43313D01*
Y80445D01*
X-43489D01*
Y80268D01*
X-43666D01*
Y80092D01*
X-43842D01*
Y79916D01*
X-44018D01*
Y79739D01*
X-44195D01*
Y79563D01*
X-44371D01*
Y79387D01*
X-44548D01*
Y79210D01*
X-44724D01*
Y79034D01*
X-44900D01*
Y78857D01*
X-45077D01*
Y78681D01*
X-45253D01*
Y78505D01*
X-45429D01*
Y78328D01*
X-45606D01*
Y78152D01*
X-45782D01*
Y77976D01*
X-45959D01*
Y77799D01*
X-46135D01*
Y77623D01*
X-46311D01*
Y77446D01*
X-46488D01*
Y77270D01*
X-46664D01*
Y77094D01*
X-46841D01*
Y76917D01*
X-47193D01*
Y76741D01*
X-47370D01*
Y76564D01*
X-47546D01*
Y76388D01*
X-47722D01*
Y76212D01*
X-48075D01*
Y76035D01*
X-48252D01*
Y75859D01*
X-48428D01*
Y75683D01*
X-48604D01*
Y75506D01*
X-48957D01*
Y75330D01*
X-49133D01*
Y75153D01*
X-49486D01*
Y74977D01*
X-49663D01*
Y74801D01*
X-50015D01*
Y74624D01*
X-50192D01*
Y74448D01*
X-50545D01*
Y74271D01*
X-50897D01*
Y74095D01*
X-51250D01*
Y73919D01*
X-51603D01*
Y73742D01*
X-51955D01*
Y73566D01*
X-52485D01*
Y73390D01*
X-53014D01*
Y73213D01*
X-53543D01*
Y73037D01*
X-54072D01*
Y72860D01*
X-54778D01*
Y72684D01*
X-55659D01*
Y72508D01*
X-57247D01*
Y72331D01*
X-59011D01*
Y72508D01*
X-61304D01*
Y72684D01*
X-62009D01*
Y72860D01*
X-62538D01*
Y73037D01*
X-63067D01*
Y73213D01*
X-63597D01*
Y73390D01*
X-63949D01*
Y73566D01*
X-64302D01*
Y73742D01*
X-64655D01*
Y73919D01*
X-65008D01*
Y74095D01*
X-65360D01*
Y74271D01*
X-65713D01*
Y74448D01*
X-66066D01*
Y74624D01*
X-66419D01*
Y74801D01*
X-66595D01*
Y74977D01*
X-66948D01*
Y75153D01*
X-67301D01*
Y75330D01*
X-67477D01*
Y75506D01*
X-67830D01*
Y75683D01*
X-68006D01*
Y75859D01*
X-68359D01*
Y76035D01*
X-68535D01*
Y76212D01*
X-68712D01*
Y76388D01*
X-68888D01*
Y76564D01*
X-69241D01*
Y76741D01*
X-69417D01*
Y76917D01*
X-69594D01*
Y77094D01*
X-69770D01*
Y77270D01*
X-69946D01*
Y77446D01*
X-70123D01*
Y77623D01*
X-70299D01*
Y77799D01*
X-70475D01*
Y77976D01*
X-70652D01*
Y78152D01*
X-70828D01*
Y78328D01*
X-71005D01*
Y78505D01*
X-71181D01*
Y78681D01*
X-71357D01*
Y78857D01*
X-71534D01*
Y79034D01*
X-71710D01*
Y79210D01*
X-71887D01*
Y79387D01*
X-72063D01*
Y79739D01*
X-72239D01*
Y80092D01*
X-72416D01*
Y80445D01*
X-72592D01*
Y80798D01*
X-72768D01*
Y81150D01*
X-72945D01*
Y81327D01*
X-73121D01*
Y81503D01*
X-73474D01*
Y81679D01*
X-77883D01*
Y81503D01*
X-78589D01*
Y81327D01*
X-79118D01*
Y81150D01*
X-79295D01*
Y80974D01*
X-79471D01*
Y80798D01*
X-79647D01*
Y80621D01*
X-79824D01*
Y80445D01*
X-80000D01*
Y80268D01*
X-80176D01*
Y80092D01*
X-80353D01*
Y79916D01*
X-80529D01*
Y80092D01*
X-80882D01*
Y80268D01*
X-81235D01*
Y80445D01*
X-81587D01*
Y80621D01*
X-81764D01*
Y80798D01*
X-81940D01*
Y80974D01*
X-82116D01*
Y81150D01*
X-82293D01*
Y81503D01*
X-82469D01*
Y81856D01*
X-82646D01*
Y82209D01*
X-82822D01*
Y82738D01*
X-82999D01*
Y83443D01*
X-82822D01*
Y84325D01*
X-82646D01*
Y85031D01*
X-82999D01*
Y84854D01*
X-83175D01*
Y84678D01*
X-83528D01*
Y84501D01*
X-83704D01*
Y84325D01*
X-84057D01*
Y84149D01*
X-84233D01*
Y83972D01*
X-84410D01*
Y83796D01*
X-84762D01*
Y83620D01*
X-84939D01*
Y83443D01*
X-85291D01*
Y83267D01*
X-85468D01*
Y83090D01*
X-85821D01*
Y82914D01*
X-85997D01*
Y82738D01*
X-86350D01*
Y82561D01*
X-86702D01*
Y83267D01*
X-86879D01*
Y86795D01*
X-86702D01*
Y88558D01*
X-86526D01*
Y89440D01*
X-86702D01*
Y89617D01*
X-86879D01*
Y89793D01*
X-87055D01*
Y89969D01*
X-87408D01*
Y90146D01*
X-87937D01*
Y90322D01*
X-88290D01*
Y90499D01*
X-88819D01*
Y90675D01*
X-89524D01*
Y90851D01*
D02*
G37*
G36*
X-36081Y60161D02*
X-36258D01*
Y59985D01*
X-36434D01*
Y59808D01*
X-36610D01*
Y59632D01*
X-36787D01*
Y59455D01*
X-37140D01*
Y59279D01*
X-37316D01*
Y59103D01*
X-37492D01*
Y58926D01*
X-37669D01*
Y58750D01*
X-38022D01*
Y58574D01*
X-38198D01*
Y58397D01*
X-38374D01*
Y58221D01*
X-38727D01*
Y58045D01*
X-38903D01*
Y57868D01*
X-39080D01*
Y57692D01*
X-39256D01*
Y57515D01*
X-39609D01*
Y57339D01*
X-39785D01*
Y57163D01*
X-39962D01*
Y56633D01*
X-40138D01*
Y55222D01*
X-40314D01*
Y51695D01*
X-40491D01*
Y49578D01*
X-40667D01*
Y47991D01*
X-40844D01*
Y47109D01*
X-40667D01*
Y46933D01*
X-40491D01*
Y46756D01*
X-40314D01*
Y46580D01*
X-39962D01*
Y46403D01*
X-39785D01*
Y46227D01*
X-39609D01*
Y46051D01*
X-39256D01*
Y45874D01*
X-39080D01*
Y45698D01*
X-38727D01*
Y45521D01*
X-38374D01*
Y45345D01*
X-38198D01*
Y45169D01*
X-37845D01*
Y44992D01*
X-37492D01*
Y44816D01*
X-37140D01*
Y44640D01*
X-36787D01*
Y44463D01*
X-36258D01*
Y44287D01*
X-35905D01*
Y44110D01*
X-35552D01*
Y43934D01*
X-35023D01*
Y43758D01*
X-34670D01*
Y43581D01*
X-34141D01*
Y43405D01*
X-33436D01*
Y43229D01*
X-32730D01*
Y43052D01*
X-31848D01*
Y42876D01*
X-29908D01*
Y42699D01*
X-25146D01*
Y42876D01*
X-24440D01*
Y43052D01*
X-23735D01*
Y43229D01*
X-23029D01*
Y43405D01*
X-22500D01*
Y43581D01*
X-21971D01*
Y43758D01*
X-21265D01*
Y43934D01*
X-20560D01*
Y44110D01*
X-20031D01*
Y44287D01*
X-19502D01*
Y44463D01*
X-18796D01*
Y44640D01*
X-18443D01*
Y44816D01*
X-17914D01*
Y44992D01*
X-17561D01*
Y45169D01*
X-17209D01*
Y45345D01*
X-16856D01*
Y45521D01*
X-16679D01*
Y45698D01*
X-16503D01*
Y45874D01*
X-16150D01*
Y46051D01*
X-15974D01*
Y46227D01*
X-15798D01*
Y46403D01*
X-15621D01*
Y46580D01*
X-15445D01*
Y46756D01*
X-15268D01*
Y46933D01*
X-15092D01*
Y47109D01*
X-14916D01*
Y47462D01*
X-14739D01*
Y47638D01*
X-14563D01*
Y47991D01*
X-14387D01*
Y48344D01*
X-14210D01*
Y49755D01*
X-14387D01*
Y49931D01*
X-14563D01*
Y50107D01*
X-14916D01*
Y50284D01*
X-16503D01*
Y50460D01*
X-19325D01*
Y50637D01*
X-22676D01*
Y50813D01*
X-24793D01*
Y50989D01*
X-25675D01*
Y51166D01*
X-26204D01*
Y51342D01*
X-26557D01*
Y51518D01*
X-27086D01*
Y51695D01*
X-27439D01*
Y51871D01*
X-27791D01*
Y52048D01*
X-28144D01*
Y52224D01*
X-28497D01*
Y52400D01*
X-28673D01*
Y52577D01*
X-29026D01*
Y52753D01*
X-29202D01*
Y52930D01*
X-29555D01*
Y53106D01*
X-29732D01*
Y53282D01*
X-29908D01*
Y53459D01*
X-30084D01*
Y53635D01*
X-30261D01*
Y53811D01*
X-30437D01*
Y53988D01*
X-30614D01*
Y54164D01*
X-30790D01*
Y54341D01*
X-30966D01*
Y54517D01*
X-31143D01*
Y54693D01*
X-31495D01*
Y54870D01*
Y55046D01*
X-31672D01*
Y55222D01*
X-31848D01*
Y55399D01*
X-32025D01*
Y55575D01*
X-32201D01*
Y55752D01*
X-32377D01*
Y55928D01*
X-32554D01*
Y56104D01*
X-32730D01*
Y56281D01*
X-32906D01*
Y56457D01*
X-33083D01*
Y56633D01*
X-33259D01*
Y56810D01*
X-33436D01*
Y56986D01*
X-33612D01*
Y57163D01*
X-33788D01*
Y57339D01*
X-33965D01*
Y57515D01*
X-34141D01*
Y57692D01*
X-34318D01*
Y57868D01*
X-34494D01*
Y58221D01*
X-34670D01*
Y58397D01*
X-34847D01*
Y58574D01*
X-35023D01*
Y58750D01*
X-35199D01*
Y58926D01*
X-35376D01*
Y59279D01*
X-35552D01*
Y59455D01*
X-35728D01*
Y59808D01*
X-35905D01*
Y59985D01*
X-36081D01*
Y60161D01*
D02*
G37*
G36*
X-64126Y52753D02*
X-66595D01*
Y52577D01*
X-67477D01*
Y52400D01*
X-68712D01*
Y52224D01*
X-69417D01*
Y52048D01*
X-69594D01*
Y51695D01*
X-69417D01*
Y51342D01*
X-69241D01*
Y51166D01*
X-69064D01*
Y50989D01*
X-68888D01*
Y50813D01*
X-68712D01*
Y50460D01*
X-68535D01*
Y50284D01*
X-68359D01*
Y50107D01*
X-68183D01*
Y49931D01*
X-68006D01*
Y49755D01*
X-67830D01*
Y49402D01*
X-67653D01*
Y49226D01*
X-67477D01*
Y49049D01*
X-67301D01*
Y48873D01*
X-67124D01*
Y48696D01*
X-66948D01*
Y48520D01*
X-66771D01*
Y48344D01*
X-66595D01*
Y47991D01*
X-66419D01*
Y47814D01*
X-66242D01*
Y47638D01*
X-66066D01*
Y47285D01*
X-65890D01*
Y47109D01*
X-65713D01*
Y46933D01*
X-65537D01*
Y46580D01*
X-65360D01*
Y46051D01*
X-65184D01*
Y45169D01*
X-65008D01*
Y43405D01*
X-64831D01*
Y41817D01*
X-64655D01*
Y41994D01*
X-64479D01*
Y42347D01*
X-64302D01*
Y42699D01*
X-64126D01*
Y43229D01*
X-63949D01*
Y43581D01*
X-63773D01*
Y43934D01*
X-63597D01*
Y44463D01*
X-63420D01*
Y45345D01*
X-63244D01*
Y49049D01*
Y49226D01*
Y51518D01*
X-63420D01*
Y52400D01*
X-63597D01*
Y52577D01*
X-64126D01*
Y52753D01*
D02*
G37*
G36*
X-96932Y41994D02*
X-97638D01*
Y41817D01*
X-98520D01*
Y41641D01*
X-99226D01*
Y41465D01*
X-99931D01*
Y41288D01*
X-100460D01*
Y41112D01*
X-101166D01*
Y40936D01*
X-101518D01*
Y40759D01*
X-102048D01*
Y40583D01*
X-102224D01*
Y40406D01*
X-102577D01*
Y40230D01*
X-102753D01*
Y40054D01*
X-103106D01*
Y39877D01*
X-103282D01*
Y39701D01*
X-103459D01*
Y39525D01*
X-103635D01*
Y39348D01*
X-103811D01*
Y39172D01*
X-103988D01*
Y38995D01*
X-104164D01*
Y38819D01*
X-104340D01*
Y38643D01*
X-104517D01*
Y38290D01*
X-104693D01*
Y38114D01*
X-104870D01*
Y37761D01*
X-105046D01*
Y37408D01*
X-105222D01*
Y36879D01*
X-105399D01*
Y36350D01*
X-105575D01*
Y35468D01*
X-105751D01*
Y33704D01*
Y33528D01*
Y32646D01*
X-105575D01*
Y31940D01*
X-105399D01*
Y31411D01*
X-105222D01*
Y30882D01*
X-105046D01*
Y30529D01*
X-104870D01*
Y30176D01*
X-104693D01*
Y29824D01*
X-104517D01*
Y29471D01*
X-104340D01*
Y29295D01*
X-104164D01*
Y29118D01*
X-103988D01*
Y28942D01*
X-103811D01*
Y28589D01*
X-103459D01*
Y28942D01*
X-103282D01*
Y29295D01*
X-103106D01*
Y29647D01*
X-102929D01*
Y30176D01*
X-102753D01*
Y30529D01*
X-102577D01*
Y30882D01*
X-102400D01*
Y31235D01*
X-102224D01*
Y31411D01*
X-102048D01*
Y31764D01*
X-101871D01*
Y32117D01*
X-101695D01*
Y32469D01*
X-101518D01*
Y32646D01*
X-101342D01*
Y32998D01*
X-101166D01*
Y33175D01*
X-100989D01*
Y33528D01*
X-100813D01*
Y33704D01*
X-100637D01*
Y34057D01*
X-100460D01*
Y34233D01*
X-100284D01*
Y34409D01*
X-100107D01*
Y34762D01*
X-99931D01*
Y34939D01*
X-99755D01*
Y35115D01*
X-99578D01*
Y35291D01*
X-99402D01*
Y35468D01*
X-99226D01*
Y35821D01*
X-99049D01*
Y35997D01*
X-98873D01*
Y36173D01*
X-98696D01*
Y36350D01*
X-98520D01*
Y36526D01*
X-98343D01*
Y36702D01*
X-98167D01*
Y36879D01*
X-97991D01*
Y37055D01*
X-97814D01*
Y37232D01*
X-97638D01*
Y37408D01*
X-97285D01*
Y37584D01*
X-97109D01*
Y37761D01*
X-96932D01*
Y37937D01*
X-96756D01*
Y38114D01*
X-96403D01*
Y38290D01*
X-96227D01*
Y38466D01*
X-96051D01*
Y38643D01*
X-95698D01*
Y38819D01*
X-95345D01*
Y38995D01*
X-95169D01*
Y39172D01*
X-94816D01*
Y39348D01*
X-94463D01*
Y39525D01*
X-93934D01*
Y39701D01*
X-93581D01*
Y39877D01*
X-93229D01*
Y40054D01*
X-92699D01*
Y40230D01*
X-92347D01*
Y40406D01*
X-91994D01*
Y40583D01*
X-91641D01*
Y40759D01*
X-92170D01*
Y40936D01*
X-93052D01*
Y41112D01*
X-93934D01*
Y41288D01*
X-94640D01*
Y41465D01*
X-95345D01*
Y41641D01*
X-96227D01*
Y41817D01*
X-96932D01*
Y41994D01*
D02*
G37*
G36*
X-63067Y36702D02*
X-64302D01*
Y36526D01*
X-64479D01*
Y36350D01*
X-64831D01*
Y36173D01*
X-65008D01*
Y35997D01*
X-65360D01*
Y35821D01*
X-65537D01*
Y35644D01*
X-65890D01*
Y35468D01*
X-66066D01*
Y35291D01*
X-66242D01*
Y35115D01*
X-66595D01*
Y34939D01*
X-66771D01*
Y34762D01*
X-66948D01*
Y34586D01*
X-67124D01*
Y34409D01*
X-67301D01*
Y34233D01*
X-67477D01*
Y34057D01*
X-67653D01*
Y33704D01*
X-67830D01*
Y33528D01*
X-68006D01*
Y33351D01*
X-68183D01*
Y33175D01*
X-68359D01*
Y32822D01*
X-68535D01*
Y32646D01*
X-68712D01*
Y32293D01*
X-68888D01*
Y32117D01*
X-69064D01*
Y31764D01*
X-69241D01*
Y31411D01*
X-69417D01*
Y31058D01*
X-69594D01*
Y30705D01*
X-69770D01*
Y30353D01*
X-69946D01*
Y30000D01*
X-70123D01*
Y29471D01*
X-70299D01*
Y28942D01*
X-70475D01*
Y28413D01*
X-70652D01*
Y27884D01*
X-70828D01*
Y27178D01*
X-71005D01*
Y26472D01*
X-71181D01*
Y25591D01*
X-71357D01*
Y24709D01*
X-71534D01*
Y24356D01*
X-70299D01*
Y24532D01*
X-69417D01*
Y24709D01*
X-68712D01*
Y24885D01*
X-67653D01*
Y25061D01*
X-66948D01*
Y25238D01*
X-66242D01*
Y25414D01*
X-65360D01*
Y25591D01*
X-65008D01*
Y25767D01*
X-64831D01*
Y26120D01*
X-64655D01*
Y26472D01*
X-64479D01*
Y26825D01*
X-64302D01*
Y27178D01*
X-64126D01*
Y27531D01*
X-63949D01*
Y27884D01*
X-63773D01*
Y28236D01*
X-63597D01*
Y28589D01*
X-63420D01*
Y28765D01*
X-63244D01*
Y29118D01*
X-63067D01*
Y29471D01*
X-62891D01*
Y29824D01*
X-62715D01*
Y30000D01*
X-62538D01*
Y30353D01*
X-62362D01*
Y30529D01*
X-62186D01*
Y30882D01*
X-62009D01*
Y31058D01*
X-61833D01*
Y31235D01*
X-61656D01*
Y31587D01*
X-61480D01*
Y31764D01*
X-61304D01*
Y31940D01*
X-61127D01*
Y32117D01*
X-60951D01*
Y32293D01*
X-60774D01*
Y32469D01*
X-60598D01*
Y32646D01*
X-60422D01*
Y32822D01*
X-60245D01*
Y32998D01*
X-60069D01*
Y33175D01*
X-59893D01*
Y33351D01*
X-59716D01*
Y33528D01*
X-59540D01*
Y33704D01*
X-59363D01*
Y33880D01*
X-59187D01*
Y34057D01*
X-59011D01*
Y34233D01*
X-58658D01*
Y34409D01*
X-58482D01*
Y34586D01*
X-58305D01*
Y34762D01*
X-58129D01*
Y34939D01*
X-57776D01*
Y35115D01*
X-57600D01*
Y35291D01*
X-57247D01*
Y35468D01*
X-57070D01*
Y35644D01*
X-56894D01*
Y35821D01*
X-56718D01*
Y35997D01*
X-57070D01*
Y36173D01*
X-58129D01*
Y36350D01*
X-59893D01*
Y36526D01*
X-63067D01*
Y36702D01*
D02*
G37*
G36*
X-53543Y35644D02*
X-55130D01*
Y35468D01*
X-55659D01*
Y35291D01*
X-55836D01*
Y35115D01*
X-56189D01*
Y34939D01*
X-56541D01*
Y34762D01*
X-56894D01*
Y34586D01*
X-57247D01*
Y34409D01*
X-57423D01*
Y34233D01*
X-57600D01*
Y34057D01*
X-57952D01*
Y33880D01*
X-58129D01*
Y33704D01*
X-58305D01*
Y33528D01*
X-58658D01*
Y33351D01*
X-58834D01*
Y33175D01*
X-59011D01*
Y32998D01*
X-59187D01*
Y32822D01*
X-59363D01*
Y32646D01*
X-59540D01*
Y32469D01*
X-59716D01*
Y32293D01*
X-59893D01*
Y32117D01*
X-60069D01*
Y31940D01*
X-60245D01*
Y31764D01*
X-60422D01*
Y31411D01*
X-60598D01*
Y31235D01*
X-60774D01*
Y31058D01*
X-60951D01*
Y30882D01*
X-61127D01*
Y30529D01*
X-61304D01*
Y30353D01*
X-61480D01*
Y30176D01*
X-61656D01*
Y29824D01*
X-61833D01*
Y29647D01*
X-62009D01*
Y29295D01*
X-62186D01*
Y29118D01*
X-62362D01*
Y28765D01*
X-62538D01*
Y28413D01*
X-62715D01*
Y28236D01*
X-62891D01*
Y27884D01*
X-63067D01*
Y27707D01*
Y27531D01*
X-63244D01*
Y27178D01*
X-63420D01*
Y26825D01*
X-63597D01*
Y26472D01*
X-63773D01*
Y25943D01*
X-61656D01*
Y26120D01*
X-60069D01*
Y26296D01*
X-58834D01*
Y26472D01*
X-57600D01*
Y26649D01*
X-56365D01*
Y26825D01*
X-55307D01*
Y27002D01*
X-54248D01*
Y27178D01*
X-53367D01*
Y27354D01*
X-52661D01*
Y27531D01*
X-51955D01*
Y27707D01*
X-51426D01*
Y27884D01*
X-51074D01*
Y28060D01*
X-50721D01*
Y28236D01*
X-50545D01*
Y28413D01*
X-50368D01*
Y28589D01*
X-50015D01*
Y28765D01*
X-49839D01*
Y28942D01*
X-49663D01*
Y29118D01*
X-49486D01*
Y29295D01*
X-49310D01*
Y29647D01*
X-49133D01*
Y29824D01*
X-48957D01*
Y30000D01*
X-48781D01*
Y30176D01*
X-48604D01*
Y30529D01*
X-48781D01*
Y32117D01*
X-48957D01*
Y33175D01*
X-49133D01*
Y33704D01*
X-49310D01*
Y34057D01*
X-49486D01*
Y34233D01*
X-49663D01*
Y34409D01*
X-49839D01*
Y34586D01*
X-50192D01*
Y34762D01*
X-50545D01*
Y34939D01*
X-51074D01*
Y35115D01*
X-51779D01*
Y35291D01*
X-52661D01*
Y35468D01*
X-53543D01*
Y35644D01*
D02*
G37*
G36*
X-89172Y40054D02*
X-90230D01*
Y39877D01*
X-91112D01*
Y39701D01*
X-91818D01*
Y39525D01*
X-92347D01*
Y39348D01*
X-92876D01*
Y39172D01*
X-93229D01*
Y38995D01*
X-93758D01*
Y38819D01*
X-94110D01*
Y38643D01*
X-94463D01*
Y38466D01*
X-94640D01*
Y38290D01*
X-94992D01*
Y38114D01*
X-95345D01*
Y37937D01*
X-95521D01*
Y37761D01*
X-95874D01*
Y37584D01*
X-96051D01*
Y37408D01*
X-96403D01*
Y37232D01*
X-96580D01*
Y37055D01*
X-96756D01*
Y36879D01*
X-96932D01*
Y36702D01*
X-97285D01*
Y36526D01*
X-97462D01*
Y36350D01*
X-97638D01*
Y36173D01*
X-97814D01*
Y35997D01*
X-97991D01*
Y35821D01*
X-98167D01*
Y35644D01*
X-98343D01*
Y35468D01*
X-98520D01*
Y35291D01*
X-98696D01*
Y35115D01*
X-98873D01*
Y34762D01*
X-99049D01*
Y34586D01*
X-99226D01*
Y34409D01*
X-99402D01*
Y34233D01*
X-99578D01*
Y33880D01*
X-99755D01*
Y33704D01*
X-99931D01*
Y33528D01*
X-100107D01*
Y33175D01*
X-100284D01*
Y32998D01*
X-100460D01*
Y32646D01*
X-100637D01*
Y32469D01*
X-100813D01*
Y32117D01*
X-100989D01*
Y31764D01*
X-101166D01*
Y31587D01*
X-101342D01*
Y31235D01*
X-101518D01*
Y30882D01*
X-101695D01*
Y30529D01*
X-101871D01*
Y30176D01*
X-102048D01*
Y29647D01*
X-102224D01*
Y29295D01*
X-102400D01*
Y28942D01*
X-102577D01*
Y28589D01*
X-101871D01*
Y28765D01*
X-101342D01*
Y28942D01*
X-100813D01*
Y29118D01*
X-100107D01*
Y29295D01*
X-99578D01*
Y29471D01*
X-98873D01*
Y29647D01*
X-98343D01*
Y29824D01*
X-97638D01*
Y30000D01*
X-96932D01*
Y30176D01*
X-96227D01*
Y30353D01*
X-95521D01*
Y30529D01*
X-94816D01*
Y30705D01*
X-93758D01*
Y30882D01*
X-93052D01*
Y31058D01*
X-91818D01*
Y31235D01*
X-90583D01*
Y31411D01*
X-88819D01*
Y31587D01*
X-82822D01*
Y31764D01*
X-82469D01*
Y31940D01*
X-82293D01*
Y32293D01*
X-82116D01*
Y32469D01*
X-81940D01*
Y32998D01*
X-81764D01*
Y34233D01*
X-81940D01*
Y34586D01*
X-82116D01*
Y34939D01*
X-82293D01*
Y35115D01*
X-82469D01*
Y35291D01*
X-82646D01*
Y35644D01*
X-82822D01*
Y35821D01*
X-82999D01*
Y35997D01*
X-83175D01*
Y36173D01*
X-83351D01*
Y36350D01*
X-83528D01*
Y36526D01*
X-83704D01*
Y36702D01*
X-83880D01*
Y36879D01*
X-84057D01*
Y37055D01*
X-84233D01*
Y37232D01*
X-84410D01*
Y37408D01*
X-84586D01*
Y37584D01*
X-84939D01*
Y37761D01*
X-85115D01*
Y37937D01*
X-85291D01*
Y38114D01*
X-85468D01*
Y38290D01*
X-85821D01*
Y38466D01*
X-85997D01*
Y38643D01*
X-86350D01*
Y38819D01*
X-86526D01*
Y38995D01*
X-86879D01*
Y39172D01*
X-87232D01*
Y39348D01*
X-87584D01*
Y39525D01*
X-87937D01*
Y39701D01*
X-88466D01*
Y39877D01*
X-89172D01*
Y40054D01*
D02*
G37*
G36*
X-67477Y36702D02*
X-69417D01*
Y36526D01*
X-69946D01*
Y36350D01*
X-70299D01*
Y36173D01*
X-70652D01*
Y35997D01*
X-71005D01*
Y35821D01*
X-71357D01*
Y35644D01*
X-71534D01*
Y35468D01*
X-71887D01*
Y35291D01*
X-72063D01*
Y35115D01*
X-72239D01*
Y34939D01*
X-72416D01*
Y34762D01*
X-72592D01*
Y34586D01*
X-72768D01*
Y34409D01*
X-72945D01*
Y34233D01*
X-73121D01*
Y34057D01*
X-73298D01*
Y33880D01*
X-73474D01*
Y33704D01*
X-73650D01*
Y33528D01*
X-73827D01*
Y33351D01*
X-74003D01*
Y32998D01*
X-74180D01*
Y32646D01*
X-74356D01*
Y32469D01*
X-74532D01*
Y31940D01*
X-74709D01*
Y31411D01*
X-74885D01*
Y27707D01*
X-74709D01*
Y27002D01*
X-74532D01*
Y26472D01*
X-74356D01*
Y26120D01*
X-74180D01*
Y25943D01*
X-74003D01*
Y25591D01*
X-73827D01*
Y25414D01*
X-73650D01*
Y25238D01*
X-73474D01*
Y24885D01*
X-73298D01*
Y24709D01*
X-73121D01*
Y24532D01*
X-72945D01*
Y24356D01*
X-72592D01*
Y24179D01*
X-72416D01*
Y24532D01*
X-72239D01*
Y25061D01*
X-72063D01*
Y25943D01*
X-71887D01*
Y26825D01*
X-71710D01*
Y27531D01*
X-71534D01*
Y28236D01*
X-71357D01*
Y28765D01*
X-71181D01*
Y29295D01*
X-71005D01*
Y29824D01*
X-70828D01*
Y30176D01*
X-70652D01*
Y30529D01*
X-70475D01*
Y31058D01*
X-70299D01*
Y31411D01*
X-70123D01*
Y31764D01*
X-69946D01*
Y31940D01*
X-69770D01*
Y32293D01*
X-69594D01*
Y32646D01*
X-69417D01*
Y32822D01*
X-69241D01*
Y33175D01*
X-69064D01*
Y33351D01*
X-68888D01*
Y33704D01*
X-68712D01*
Y33880D01*
X-68535D01*
Y34057D01*
X-68359D01*
Y34409D01*
X-68183D01*
Y34586D01*
X-68006D01*
Y34762D01*
X-67830D01*
Y34939D01*
X-67653D01*
Y35115D01*
X-67477D01*
Y35291D01*
X-67301D01*
Y35468D01*
X-67124D01*
Y35644D01*
X-66948D01*
Y35821D01*
X-66771D01*
Y35997D01*
X-66595D01*
Y36173D01*
X-66419D01*
Y36350D01*
X-66771D01*
Y36526D01*
X-67477D01*
Y36702D01*
D02*
G37*
G36*
X-47899Y33175D02*
X-48075D01*
Y31764D01*
X-47899D01*
Y30353D01*
X-48075D01*
Y29824D01*
X-48252D01*
Y29471D01*
X-48428D01*
Y29295D01*
X-48604D01*
Y28942D01*
X-48781D01*
Y28765D01*
X-48957D01*
Y28589D01*
X-49133D01*
Y28413D01*
X-49310D01*
Y28060D01*
X-47722D01*
Y28236D01*
X-45253D01*
Y28413D01*
X-44018D01*
Y28589D01*
X-43489D01*
Y28765D01*
X-43666D01*
Y28942D01*
X-44018D01*
Y29118D01*
X-44371D01*
Y29295D01*
X-44724D01*
Y29471D01*
X-44900D01*
Y29647D01*
X-45077D01*
Y29824D01*
X-45253D01*
Y30000D01*
X-45429D01*
Y30176D01*
X-45606D01*
Y30529D01*
X-45782D01*
Y30705D01*
X-45959D01*
Y30882D01*
X-46135D01*
Y31235D01*
X-46311D01*
Y31411D01*
X-46488D01*
Y31587D01*
X-46664D01*
Y31764D01*
X-46841D01*
Y32117D01*
X-47017D01*
Y32293D01*
X-47193D01*
Y32469D01*
X-47370D01*
Y32646D01*
X-47546D01*
Y32822D01*
X-47722D01*
Y32998D01*
X-47899D01*
Y33175D01*
D02*
G37*
%LPD*%
G36*
X-87408Y173397D02*
X-86702D01*
Y173221D01*
X-86350Y173221D01*
Y173044D01*
X-85997Y173044D01*
Y172692D01*
X-85821Y172692D01*
Y172515D01*
X-85644D01*
X-85644Y172163D01*
X-85468D01*
Y171457D01*
X-85291D01*
Y169870D01*
X-85468D01*
Y169340D01*
X-85644Y169340D01*
Y168988D01*
X-85821D01*
Y168811D01*
X-85997D01*
Y168635D01*
X-86173D01*
Y168459D01*
X-86526D01*
X-86526Y168282D01*
X-86879D01*
Y168106D01*
X-87584Y168106D01*
Y167929D01*
X-88643D01*
Y167753D01*
X-90583D01*
Y167577D01*
X-92523D01*
Y167400D01*
X-93758D01*
Y167224D01*
X-94992D01*
Y167048D01*
X-95698D01*
X-95698Y166871D01*
X-96403D01*
Y166695D01*
X-96756D01*
Y166166D01*
X-96932D01*
Y165107D01*
X-97109D01*
Y164578D01*
X-97285D01*
Y164226D01*
X-97462D01*
Y163873D01*
X-97638D01*
Y163696D01*
X-97814D01*
X-97814Y163520D01*
X-98167D01*
Y163344D01*
X-98343D01*
Y163167D01*
X-98696D01*
Y162991D01*
X-98873Y162991D01*
Y162814D01*
X-99226D01*
Y162638D01*
X-99578D01*
Y162462D01*
X-99931D01*
X-99931Y162285D01*
X-100460D01*
Y162109D01*
X-100813D01*
X-100813Y161933D01*
X-101166D01*
Y161756D01*
X-101518D01*
Y161580D01*
X-102048D01*
Y161403D01*
X-103635D01*
Y161580D01*
X-104164D01*
Y161756D01*
X-104517D01*
Y161933D01*
X-104870D01*
X-104870Y162109D01*
X-105046D01*
Y162285D01*
X-105222D01*
Y162462D01*
X-105399D01*
Y162638D01*
X-105575D01*
Y162814D01*
X-105751D01*
Y162991D01*
X-105928D01*
Y163167D01*
X-106104D01*
Y163344D01*
X-106281D01*
Y163520D01*
X-106457Y163520D01*
Y163696D01*
X-106633D01*
Y163873D01*
X-106810D01*
Y164226D01*
X-106986D01*
Y164402D01*
X-107163D01*
Y164578D01*
X-107339D01*
Y164755D01*
X-108045D01*
Y164578D01*
X-108574D01*
Y164402D01*
X-108926D01*
Y164226D01*
X-109103D01*
Y164049D01*
X-109455D01*
Y163873D01*
X-109808D01*
Y163696D01*
X-109985D01*
X-109985Y163520D01*
X-110337D01*
Y163344D01*
X-110690D01*
Y163167D01*
X-110867D01*
Y162991D01*
X-111219D01*
Y162814D01*
X-112101D01*
Y162991D01*
X-112454Y162991D01*
Y163167D01*
X-112630D01*
Y163344D01*
X-112807Y163344D01*
Y163520D01*
X-112983D01*
Y163696D01*
X-113160D01*
Y164049D01*
X-113336D01*
X-113336Y164226D01*
X-113512D01*
Y164578D01*
X-113689D01*
Y164931D01*
X-113865D01*
Y165284D01*
X-114041D01*
Y166695D01*
X-113865D01*
Y166871D01*
X-113689D01*
Y167048D01*
X-113336D01*
X-113336Y167224D01*
X-111572Y167224D01*
Y167048D01*
X-110514D01*
X-110514Y166871D01*
X-109103D01*
Y166695D01*
X-104870D01*
Y166871D01*
X-103988D01*
Y167048D01*
X-103282D01*
Y167224D01*
X-102577D01*
Y167400D01*
X-102048D01*
Y167577D01*
X-101518D01*
Y167753D01*
X-101166D01*
Y167929D01*
X-100813D01*
X-100813Y168106D01*
X-100460Y168106D01*
Y168282D01*
X-99931D01*
X-99931Y168459D01*
X-99578D01*
Y168635D01*
X-99226D01*
Y168811D01*
X-98873D01*
Y168988D01*
X-98520D01*
Y169164D01*
X-98343D01*
Y169340D01*
X-97991D01*
Y169517D01*
X-97638D01*
X-97638Y169693D01*
X-97285D01*
Y169870D01*
X-96932D01*
X-96932Y170046D01*
X-96756Y170046D01*
Y170222D01*
X-96403Y170222D01*
Y170399D01*
X-96051D01*
Y170575D01*
X-95874Y170575D01*
Y170751D01*
X-95521D01*
Y170928D01*
X-95169D01*
Y171104D01*
X-94816D01*
Y171281D01*
X-94463D01*
Y171457D01*
X-94110D01*
X-94110Y171633D01*
X-93758D01*
Y171810D01*
X-93405D01*
Y171986D01*
X-93052D01*
Y172162D01*
X-92699Y172163D01*
Y172339D01*
X-92347D01*
Y172515D01*
X-91994D01*
Y172692D01*
X-91465D01*
Y172868D01*
X-91112D01*
X-91112Y173044D01*
X-90583D01*
Y173221D01*
X-89877D01*
Y173397D01*
X-88995D01*
Y173574D01*
X-87408D01*
Y173397D01*
D02*
G37*
G36*
X-68888Y101081D02*
X-68535D01*
X-68535Y100905D01*
X-68359Y100905D01*
Y100729D01*
X-68183D01*
Y100552D01*
X-68006D01*
Y100376D01*
X-67830Y100376D01*
Y100199D01*
X-67653D01*
Y100023D01*
X-67477D01*
Y99847D01*
X-67301D01*
Y99494D01*
X-67124D01*
Y99318D01*
X-66948Y99318D01*
Y98965D01*
X-66771D01*
Y98612D01*
X-66595D01*
Y97907D01*
X-66419D01*
Y96848D01*
X-66242D01*
Y94908D01*
X-66419D01*
Y93497D01*
X-66595D01*
Y92262D01*
X-66771D01*
X-66771Y91380D01*
X-66948D01*
Y90498D01*
X-67124Y90499D01*
Y89617D01*
X-67301D01*
Y88735D01*
X-67477D01*
Y87676D01*
X-67653D01*
Y86795D01*
X-68006D01*
X-68006Y88558D01*
X-67830Y88558D01*
Y90146D01*
X-67653Y90146D01*
Y91380D01*
X-67477D01*
Y92615D01*
X-67301Y92615D01*
Y93850D01*
X-67124D01*
Y97730D01*
X-67301D01*
Y98436D01*
X-67477D01*
Y98788D01*
X-67653Y98788D01*
Y99141D01*
X-67830D01*
Y99494D01*
X-68006D01*
Y99847D01*
X-68183D01*
Y100023D01*
X-68359D01*
Y100199D01*
X-68535D01*
Y100552D01*
X-68712D01*
Y100729D01*
X-68888D01*
Y100905D01*
X-69064D01*
Y101081D01*
X-69241D01*
Y101258D01*
X-68888D01*
Y101081D01*
D02*
G37*
%LPC*%
G36*
X-91288Y171986D02*
X-91818D01*
Y171810D01*
X-92170D01*
Y171633D01*
X-92523D01*
Y171281D01*
X-91818D01*
Y171457D01*
X-91465D01*
Y171810D01*
X-91288D01*
Y171986D01*
D02*
G37*
G36*
X-94110Y170399D02*
X-94816D01*
Y170222D01*
X-94992D01*
Y170046D01*
X-95345D01*
Y169870D01*
X-95698D01*
Y169693D01*
X-95874D01*
Y169517D01*
X-96227D01*
Y169340D01*
X-96403D01*
Y168988D01*
X-95345D01*
Y169164D01*
X-94992D01*
Y169340D01*
X-94816D01*
Y169517D01*
X-94640D01*
Y169693D01*
X-94463D01*
Y169870D01*
X-94287D01*
Y170222D01*
X-94110D01*
Y170399D01*
D02*
G37*
G36*
X-87584Y172868D02*
X-88643D01*
Y172692D01*
X-89524D01*
Y172515D01*
X-90054D01*
Y172339D01*
X-90230D01*
Y172163D01*
X-90406D01*
Y171986D01*
X-90583D01*
Y171457D01*
X-90759D01*
Y171281D01*
X-90936D01*
Y170928D01*
X-91112D01*
Y170751D01*
X-91465D01*
Y170575D01*
X-93405D01*
Y170222D01*
X-93581D01*
Y169693D01*
X-93758D01*
Y169340D01*
X-93934D01*
Y169164D01*
X-94110D01*
Y168988D01*
X-94287D01*
Y168811D01*
X-94463D01*
Y168635D01*
X-94640D01*
Y168459D01*
X-94992D01*
Y168282D01*
X-96932D01*
Y168459D01*
X-97814D01*
Y168106D01*
X-97638D01*
Y167400D01*
X-96756D01*
Y167577D01*
X-95874D01*
Y167753D01*
X-94992D01*
Y167929D01*
X-94110D01*
Y168106D01*
X-92876D01*
Y168282D01*
X-91112D01*
Y168459D01*
X-89348D01*
Y168635D01*
X-88113D01*
Y168811D01*
X-87408D01*
Y168988D01*
X-86879D01*
Y169164D01*
X-86526D01*
Y169340D01*
X-86350D01*
Y169693D01*
X-86173D01*
Y170222D01*
X-85997D01*
Y170928D01*
X-86173D01*
Y171633D01*
X-86350D01*
Y172163D01*
X-86526D01*
Y172339D01*
X-86702D01*
Y172515D01*
X-87055D01*
Y172692D01*
X-87584D01*
Y172868D01*
D02*
G37*
G36*
X-98520Y167929D02*
X-99049D01*
Y167753D01*
X-99578D01*
Y167577D01*
X-99755D01*
Y167400D01*
X-100284D01*
Y167224D01*
X-100637D01*
Y167048D01*
X-100989D01*
Y166871D01*
X-101166D01*
Y166695D01*
X-101518D01*
Y165989D01*
X-101342D01*
Y165460D01*
X-101166D01*
Y164931D01*
X-100989D01*
Y164402D01*
X-100813D01*
Y163873D01*
X-100637D01*
Y163696D01*
Y163520D01*
X-100460D01*
Y163167D01*
X-99931D01*
Y163344D01*
X-99578D01*
Y163520D01*
X-99226D01*
Y163696D01*
X-99049D01*
Y163873D01*
X-98873D01*
Y164049D01*
X-98520D01*
Y164226D01*
X-98343D01*
Y164402D01*
X-98167D01*
Y164578D01*
X-97991D01*
Y164931D01*
X-97814D01*
Y166166D01*
X-97991D01*
Y166695D01*
X-98167D01*
Y167048D01*
X-98343D01*
Y167577D01*
X-98520D01*
Y167929D01*
D02*
G37*
G36*
X-110867Y166342D02*
X-113336D01*
Y165637D01*
X-113160D01*
Y165284D01*
X-112983D01*
Y164931D01*
X-112807D01*
Y164578D01*
X-112630D01*
Y164402D01*
X-112454D01*
Y164226D01*
X-112278D01*
Y163873D01*
X-111925D01*
Y163696D01*
X-111396D01*
Y163873D01*
X-111043D01*
Y164049D01*
X-110690D01*
Y164226D01*
X-110514D01*
Y164402D01*
X-110161D01*
Y164578D01*
X-109808D01*
Y164755D01*
X-109632D01*
Y164931D01*
X-109279D01*
Y165107D01*
X-108750D01*
Y165284D01*
X-108397D01*
Y165460D01*
X-108045D01*
Y165813D01*
X-108926D01*
Y165989D01*
X-109985D01*
Y166166D01*
X-110867D01*
Y166342D01*
D02*
G37*
G36*
X-102753D02*
X-103106D01*
Y166166D01*
X-104164D01*
Y165989D01*
X-105046D01*
Y165813D01*
X-106281D01*
Y165637D01*
X-106633D01*
Y165284D01*
X-106457D01*
Y164931D01*
X-106281D01*
Y164578D01*
X-106104D01*
Y164402D01*
X-105928D01*
Y164049D01*
X-105751D01*
Y163873D01*
X-105575D01*
Y163696D01*
X-105399D01*
Y163520D01*
X-105222D01*
Y163344D01*
X-105046D01*
Y163167D01*
X-104870D01*
Y162991D01*
X-104693D01*
Y162814D01*
X-104340D01*
Y162638D01*
X-104164D01*
Y162462D01*
X-103988D01*
Y162285D01*
X-103282D01*
Y162109D01*
X-102224D01*
Y162285D01*
X-101695D01*
Y162462D01*
X-101518D01*
Y164049D01*
X-101695D01*
Y164578D01*
X-101871D01*
Y164931D01*
X-102048D01*
Y165460D01*
X-102224D01*
Y165813D01*
X-102400D01*
Y166166D01*
X-102753D01*
Y166342D01*
D02*
G37*
%LPD*%
G36*
X-100989Y174103D02*
X-100813D01*
Y173926D01*
X-100637D01*
X-100637Y173750D01*
X-100460D01*
Y173397D01*
Y173221D01*
Y172339D01*
X-100637Y172339D01*
X-100637Y172163D01*
X-100989D01*
Y172868D01*
X-101166D01*
X-101166Y173221D01*
X-101342Y173221D01*
Y173397D01*
X-101695D01*
Y173221D01*
X-101871D01*
Y173044D01*
X-102048D01*
Y172868D01*
X-102400D01*
X-102400Y172692D01*
X-102577D01*
Y172868D01*
X-102753D01*
Y173044D01*
X-102577Y173044D01*
Y173397D01*
X-102400D01*
Y173574D01*
X-102224D01*
X-102224Y173750D01*
X-102048D01*
Y173926D01*
X-101871D01*
Y174103D01*
X-101518D01*
Y174279D01*
X-100989D01*
Y174103D01*
D02*
G37*
G36*
X-107692Y172515D02*
X-107163D01*
Y172339D01*
X-106810Y172339D01*
Y172162D01*
X-106633Y172163D01*
X-106633Y171986D01*
X-106457D01*
Y171810D01*
X-106281D01*
Y171633D01*
X-106104D01*
Y171281D01*
X-106281D01*
Y171457D01*
X-106810D01*
Y171633D01*
X-107339D01*
X-107339Y171810D01*
X-108045D01*
Y171633D01*
X-107868D01*
Y171457D01*
X-107692D01*
Y171281D01*
X-107515D01*
Y171104D01*
X-107339D01*
Y170928D01*
X-108045D01*
X-108045Y171104D01*
X-108397D01*
X-108397Y171281D01*
X-108574D01*
Y171457D01*
X-108750D01*
Y171810D01*
X-108926D01*
Y172339D01*
X-108750D01*
Y172515D01*
X-108574D01*
Y172692D01*
X-107692D01*
Y172515D01*
D02*
G37*
G36*
X-74532Y90851D02*
X-72592D01*
Y90675D01*
X-71710D01*
Y90499D01*
X-71534Y90498D01*
Y90322D01*
X-76120D01*
Y90146D01*
X-77531D01*
Y89969D01*
X-78236Y89969D01*
Y89793D01*
X-78942D01*
Y89617D01*
X-79647Y89616D01*
Y89440D01*
X-80353D01*
Y89264D01*
X-80705D01*
X-80706Y89087D01*
X-81058D01*
Y88911D01*
X-81411D01*
Y88735D01*
X-81764D01*
Y88558D01*
X-82116D01*
Y88382D01*
X-82293D01*
Y88205D01*
X-82646D01*
Y88029D01*
X-82822D01*
Y87853D01*
X-82999D01*
Y87676D01*
X-83175D01*
Y87500D01*
X-83351Y87500D01*
Y87324D01*
X-83528D01*
Y87147D01*
X-83704D01*
Y86971D01*
X-83880D01*
Y86795D01*
X-84057D01*
Y86618D01*
X-84233D01*
Y86442D01*
X-84586D01*
Y86265D01*
X-84762D01*
Y86618D01*
X-84586D01*
Y86971D01*
X-84410D01*
X-84410Y87147D01*
X-84233D01*
Y87500D01*
X-84057D01*
Y87676D01*
X-83880D01*
Y87853D01*
X-83704D01*
Y88029D01*
X-83528D01*
Y88205D01*
X-83351D01*
Y88382D01*
X-83175D01*
Y88558D01*
X-82999D01*
Y88735D01*
X-82822D01*
Y88911D01*
X-82646D01*
Y89087D01*
X-82293D01*
X-82293Y89264D01*
X-82116Y89264D01*
Y89440D01*
X-81764D01*
Y89617D01*
X-81411D01*
Y89793D01*
X-80882D01*
Y89969D01*
X-80529D01*
Y90146D01*
X-80000D01*
Y90322D01*
X-79471D01*
Y90499D01*
X-78942D01*
Y90675D01*
X-78236D01*
Y90851D01*
X-77178D01*
Y91028D01*
X-74532D01*
Y90851D01*
D02*
G37*
G36*
X-84762Y86089D02*
X-84939D01*
X-84939Y86265D01*
X-84762D01*
X-84762Y86089D01*
D02*
G37*
G36*
X-80882Y82561D02*
X-81058D01*
X-81058Y82738D01*
X-80882D01*
Y82561D01*
D02*
G37*
G36*
X-46664Y69509D02*
X-46841D01*
Y69686D01*
X-46664D01*
Y69509D01*
D02*
G37*
G36*
X-46841Y69333D02*
X-47017D01*
Y69509D01*
X-46841D01*
Y69333D01*
D02*
G37*
G36*
X-47017Y69156D02*
X-47193D01*
Y68980D01*
X-47370D01*
Y68804D01*
X-47546D01*
Y68627D01*
X-47899D01*
Y68451D01*
X-48075D01*
Y68274D01*
X-48252D01*
Y68098D01*
X-48428D01*
Y67922D01*
X-48781D01*
Y67745D01*
X-48957D01*
Y67569D01*
X-49133D01*
Y67393D01*
X-49310D01*
Y67216D01*
X-49663D01*
Y67040D01*
X-49839D01*
Y66863D01*
X-50015D01*
Y66687D01*
X-50368Y66687D01*
X-50368Y66511D01*
X-50545D01*
X-50545Y66334D01*
X-50721D01*
Y66158D01*
X-51074Y66158D01*
X-51074Y65982D01*
X-51250D01*
Y65805D01*
X-51426D01*
Y65629D01*
X-51779D01*
Y65452D01*
X-51955Y65452D01*
Y65276D01*
X-52132Y65276D01*
Y65100D01*
X-52485D01*
Y64923D01*
X-52661D01*
Y64747D01*
X-52837D01*
Y64571D01*
X-53190D01*
Y64394D01*
X-53367D01*
Y64218D01*
X-53543D01*
Y64042D01*
X-53896Y64041D01*
Y63865D01*
X-54072D01*
Y63689D01*
X-54425D01*
Y63512D01*
X-54601D01*
Y63336D01*
X-54778D01*
Y63159D01*
X-54954D01*
Y62983D01*
X-55307D01*
Y62807D01*
X-55483D01*
X-55483Y62630D01*
X-55659D01*
Y62454D01*
X-56012D01*
Y62278D01*
X-56189D01*
Y62101D01*
X-56365D01*
Y61925D01*
X-56718D01*
X-56718Y61748D01*
X-56894D01*
Y61572D01*
X-57070Y61572D01*
X-57070Y61396D01*
X-57247D01*
X-57247Y61219D01*
X-57423D01*
Y61043D01*
X-57600D01*
X-57600Y60867D01*
X-57776D01*
Y60690D01*
X-57952D01*
X-57952Y60514D01*
X-58129D01*
Y60337D01*
X-58482Y60337D01*
Y60161D01*
X-58658D01*
Y59985D01*
X-58834Y59985D01*
Y59808D01*
X-59011D01*
Y59632D01*
X-59187D01*
Y59456D01*
X-59363D01*
Y59103D01*
X-59540D01*
Y58926D01*
X-59716D01*
Y58750D01*
X-59893D01*
Y58574D01*
X-60069D01*
X-60069Y58397D01*
X-60245D01*
X-60245Y58221D01*
X-60422Y58221D01*
Y58045D01*
X-60598D01*
Y57868D01*
X-60774Y57868D01*
Y57515D01*
X-60951D01*
Y57339D01*
X-61127D01*
Y57163D01*
X-61304D01*
Y56810D01*
X-61480D01*
Y56633D01*
X-61656D01*
Y56281D01*
X-61833D01*
Y56104D01*
X-62009D01*
Y55752D01*
X-62186D01*
Y55575D01*
X-62362D01*
Y55222D01*
X-62538D01*
Y54870D01*
X-62715Y54870D01*
Y54341D01*
X-62891D01*
Y53811D01*
X-63067D01*
Y54693D01*
X-62891D01*
Y55222D01*
X-62715D01*
Y55752D01*
X-62538D01*
Y56104D01*
X-62362Y56104D01*
Y56457D01*
X-62186D01*
Y56810D01*
X-62009D01*
Y56986D01*
X-61833Y56986D01*
Y57339D01*
X-61656D01*
Y57515D01*
X-61480D01*
Y57868D01*
X-61304D01*
X-61304Y58045D01*
X-61127D01*
Y58397D01*
X-60951D01*
Y58574D01*
X-60774D01*
Y58750D01*
X-60598D01*
Y59103D01*
X-60422D01*
Y59279D01*
X-60245D01*
Y59455D01*
X-60069D01*
Y59632D01*
X-59893D01*
Y59985D01*
X-59716D01*
Y60161D01*
X-59540D01*
Y60337D01*
X-59363D01*
Y60514D01*
X-59187D01*
Y60690D01*
X-59011Y60690D01*
Y60867D01*
X-58834D01*
Y61043D01*
X-58658D01*
Y61219D01*
X-58482D01*
Y61396D01*
X-58305D01*
Y61572D01*
X-58129D01*
Y61748D01*
X-57952D01*
X-57952Y61925D01*
X-57776D01*
Y62101D01*
X-57600D01*
X-57600Y62278D01*
X-57247D01*
Y62454D01*
X-57070D01*
Y62630D01*
X-56894D01*
Y62807D01*
X-56541D01*
Y62983D01*
X-56365D01*
Y63159D01*
X-56189D01*
Y63336D01*
X-56012D01*
Y63512D01*
X-55659D01*
Y63689D01*
X-55483D01*
Y63865D01*
X-55130D01*
X-55130Y64042D01*
X-54954D01*
Y64218D01*
X-54601D01*
X-54601Y64394D01*
X-54425D01*
Y64571D01*
X-54248D01*
X-54248Y64747D01*
X-53896D01*
Y64923D01*
X-53719D01*
Y65100D01*
X-53366D01*
Y65276D01*
X-53190D01*
Y65452D01*
X-52837D01*
Y65629D01*
X-52661D01*
Y65805D01*
X-52308D01*
Y65982D01*
X-52132D01*
Y66158D01*
X-51779D01*
Y66334D01*
X-51603D01*
Y66511D01*
X-51250D01*
Y66687D01*
X-51074D01*
Y66863D01*
X-50897D01*
Y67040D01*
X-50545Y67040D01*
Y67216D01*
X-50192D01*
Y67393D01*
X-50015D01*
Y67569D01*
X-49663D01*
Y67745D01*
X-49486D01*
Y67922D01*
X-49133D01*
Y68098D01*
X-48957D01*
X-48957Y68275D01*
X-48604Y68274D01*
Y68451D01*
X-48428D01*
Y68627D01*
X-48075D01*
Y68804D01*
X-47899D01*
X-47899Y68980D01*
X-47546D01*
Y69156D01*
X-47370D01*
Y69333D01*
X-47017D01*
Y69156D01*
D02*
G37*
G36*
X-91112Y43229D02*
X-90583D01*
Y43052D01*
X-90054D01*
Y42876D01*
X-89348D01*
X-89348Y42699D01*
X-88643Y42699D01*
Y42523D01*
X-87937D01*
Y42347D01*
X-87408Y42347D01*
Y42170D01*
X-86702D01*
Y41994D01*
X-86173D01*
Y41817D01*
X-85644D01*
X-85644Y41641D01*
X-85291D01*
Y41465D01*
X-84762Y41465D01*
X-84762Y41288D01*
X-84410D01*
Y41112D01*
X-84057D01*
Y40936D01*
X-83880D01*
Y40759D01*
X-83528D01*
Y40583D01*
X-83351D01*
Y40406D01*
X-83175D01*
Y40230D01*
X-82999D01*
Y40054D01*
X-82822D01*
Y39877D01*
X-82646D01*
Y39701D01*
X-82469D01*
Y39525D01*
X-82293D01*
Y39348D01*
X-82116D01*
Y39172D01*
X-81940D01*
Y38995D01*
X-81764D01*
Y38819D01*
X-81587D01*
Y38466D01*
X-81940D01*
Y38643D01*
X-82116D01*
Y38819D01*
X-82293D01*
Y38995D01*
X-82469D01*
Y39172D01*
X-82822D01*
Y39348D01*
X-82999Y39348D01*
Y39525D01*
X-83351D01*
Y39701D01*
X-83528Y39701D01*
Y39877D01*
X-83880D01*
Y40054D01*
X-84233D01*
Y40230D01*
X-84586Y40230D01*
Y40406D01*
X-84939D01*
Y40583D01*
X-85291D01*
Y40759D01*
X-85644D01*
Y40936D01*
X-86173D01*
Y41112D01*
X-86702D01*
Y41288D01*
X-87232D01*
Y41465D01*
X-87584D01*
Y41641D01*
X-88113D01*
Y41817D01*
X-88643D01*
Y41994D01*
X-89172D01*
Y42170D01*
X-89701D01*
Y42347D01*
X-90054D01*
Y42523D01*
X-90583D01*
Y42699D01*
X-90936Y42699D01*
X-90936Y42876D01*
X-91288D01*
Y43052D01*
X-91465D01*
Y43229D01*
X-91641D01*
X-91641Y43405D01*
X-91112D01*
Y43229D01*
D02*
G37*
G36*
X-72063Y39701D02*
X-71534Y39701D01*
Y39525D01*
X-71181D01*
Y39348D01*
X-70828Y39348D01*
Y39172D01*
X-70652D01*
Y38995D01*
X-70475D01*
X-70475Y38819D01*
X-70299D01*
Y38643D01*
X-70123D01*
Y38290D01*
X-70475D01*
Y38466D01*
X-70828D01*
Y38643D01*
X-71357D01*
Y38819D01*
X-71710D01*
Y38995D01*
X-72063Y38995D01*
Y39172D01*
X-72416D01*
Y39348D01*
X-72768D01*
Y39525D01*
X-73298D01*
Y39701D01*
X-73474D01*
Y39877D01*
X-72063D01*
Y39701D01*
D02*
G37*
G36*
X-74532Y38466D02*
X-73474D01*
Y38290D01*
X-73121D01*
X-73121Y38114D01*
X-72945D01*
Y37937D01*
X-72592D01*
Y37761D01*
X-72416D01*
Y37584D01*
X-72239D01*
Y37232D01*
X-72592D01*
Y37408D01*
X-73121D01*
Y37584D01*
X-73650D01*
Y37761D01*
X-73827Y37761D01*
X-74003D01*
Y37937D01*
X-74532D01*
Y38114D01*
X-74885D01*
Y38290D01*
X-75061D01*
Y38466D01*
X-74709D01*
Y38643D01*
X-74532D01*
Y38466D01*
D02*
G37*
G36*
X-44371Y35291D02*
X-43666Y35291D01*
Y35115D01*
X-43137Y35115D01*
Y34939D01*
X-42784D01*
Y34762D01*
X-42607D01*
Y34586D01*
X-42255Y34586D01*
Y34409D01*
X-42078D01*
X-42078Y34233D01*
X-41902D01*
Y34057D01*
X-41726D01*
Y33880D01*
X-41549D01*
Y33528D01*
X-41373D01*
Y32998D01*
X-41726D01*
Y33175D01*
X-41902D01*
Y33351D01*
X-42078D01*
Y33528D01*
X-42431D01*
Y33704D01*
X-42607D01*
Y33880D01*
X-42960Y33880D01*
Y34057D01*
X-43137D01*
Y34233D01*
X-43313D01*
Y34409D01*
X-43666D01*
X-43666Y34586D01*
X-43842D01*
X-43842Y34762D01*
X-44018Y34762D01*
Y34939D01*
X-44371D01*
Y35115D01*
X-44548Y35115D01*
Y35468D01*
X-44371D01*
Y35291D01*
D02*
G37*
G36*
X-45606Y34057D02*
X-45253D01*
Y33880D01*
X-44900D01*
Y33704D01*
X-44724D01*
Y33528D01*
X-44548D01*
Y33351D01*
X-44371D01*
Y33175D01*
X-44195D01*
Y32998D01*
X-44018D01*
Y32822D01*
X-43842D01*
Y32646D01*
X-43666D01*
Y32293D01*
X-43489D01*
Y31940D01*
X-43313D01*
Y31411D01*
X-43489D01*
Y31587D01*
X-43842D01*
X-43842Y31764D01*
X-44018Y31764D01*
Y31940D01*
X-44195D01*
X-44195Y32117D01*
X-44371Y32116D01*
Y32293D01*
X-44548Y32293D01*
Y32469D01*
X-44724D01*
Y32646D01*
X-44900D01*
Y32822D01*
X-45077D01*
Y32998D01*
X-45253Y32998D01*
Y33175D01*
X-45430Y33175D01*
X-45429Y33351D01*
X-45606D01*
Y33528D01*
X-45782D01*
X-45782Y33704D01*
X-45959D01*
X-45959Y34057D01*
X-46135D01*
Y34233D01*
X-45606D01*
Y34057D01*
D02*
G37*
%LPC*%
G36*
X-241343Y152719D02*
X-252928D01*
Y152478D01*
X-256548D01*
Y152236D01*
X-259686D01*
Y151995D01*
X-261617D01*
Y151753D01*
X-263547D01*
Y151512D01*
X-265237D01*
Y151271D01*
X-266926D01*
Y151029D01*
X-268133D01*
Y150788D01*
X-269340D01*
Y150547D01*
X-270547D01*
Y150305D01*
X-271753D01*
Y150064D01*
X-272960D01*
Y149823D01*
X-273926D01*
Y149581D01*
X-274891D01*
Y149340D01*
X-275856D01*
Y149099D01*
X-276822D01*
Y148857D01*
X-277546D01*
Y148616D01*
X-278511D01*
Y148375D01*
X-279235D01*
Y148133D01*
X-279959D01*
Y147892D01*
X-280925D01*
Y147650D01*
X-281649D01*
Y147409D01*
X-282373D01*
Y147168D01*
X-283097D01*
Y146926D01*
X-283580D01*
Y146685D01*
X-284304D01*
Y146444D01*
X-285028D01*
Y146202D01*
X-285510D01*
Y145961D01*
X-286234D01*
Y145720D01*
X-286717D01*
Y145478D01*
X-287441D01*
Y145237D01*
X-287924D01*
Y144996D01*
X-288407D01*
Y144754D01*
X-289131D01*
Y144513D01*
X-289613D01*
Y144272D01*
X-290096D01*
Y144030D01*
X-290579D01*
Y143789D01*
X-291061D01*
Y143547D01*
X-291544D01*
Y143306D01*
X-292027D01*
Y143065D01*
X-292509D01*
Y142823D01*
X-292992D01*
Y142582D01*
X-293475D01*
Y142341D01*
X-293958D01*
Y142099D01*
X-294440D01*
Y141858D01*
X-294682D01*
Y141617D01*
X-295164D01*
Y141375D01*
X-295647D01*
Y141134D01*
X-295888D01*
Y140893D01*
X-296371D01*
Y140651D01*
X-296612D01*
Y140410D01*
X-297095D01*
Y140169D01*
X-297578D01*
Y139927D01*
X-297819D01*
Y139686D01*
X-298302D01*
Y139445D01*
X-298543D01*
Y139203D01*
X-298785D01*
Y138962D01*
X-299267D01*
Y138721D01*
X-299509D01*
Y138479D01*
X-299991D01*
Y138238D01*
X-300233D01*
Y137997D01*
X-300474D01*
Y137755D01*
X-300715D01*
Y137514D01*
X-301198D01*
Y137273D01*
X-301439D01*
Y137031D01*
X-301681D01*
Y136790D01*
X-301922D01*
Y136548D01*
X-302164D01*
Y136307D01*
X-302405D01*
Y136066D01*
X-302887D01*
Y135824D01*
X-303129D01*
Y135583D01*
X-303370D01*
Y135342D01*
X-303612D01*
Y135100D01*
X-303853D01*
Y134859D01*
X-304094D01*
Y134618D01*
X-304336D01*
Y134376D01*
X-304577D01*
Y134135D01*
X-304818D01*
Y133894D01*
X-305060D01*
Y133652D01*
X-305301D01*
Y133169D01*
X-305542D01*
Y132928D01*
X-305784D01*
Y132687D01*
X-306025D01*
Y132445D01*
X-306266D01*
Y132204D01*
X-306508D01*
Y131721D01*
X-306749D01*
Y131480D01*
X-306990D01*
Y131239D01*
X-307232D01*
Y130756D01*
X-307473D01*
Y130515D01*
X-307715D01*
Y130032D01*
X-307956D01*
Y129791D01*
X-308197D01*
Y129308D01*
X-308438D01*
Y128825D01*
X-308680D01*
Y128343D01*
X-308921D01*
Y128101D01*
X-309163D01*
Y127377D01*
X-309404D01*
Y126894D01*
X-309645D01*
Y126412D01*
X-309887D01*
Y125688D01*
X-310128D01*
Y124964D01*
X-310369D01*
Y124240D01*
X-310611D01*
Y123274D01*
X-310852D01*
Y121585D01*
X-311093D01*
Y117723D01*
X-310852D01*
Y116034D01*
X-310611D01*
Y115068D01*
X-310369D01*
Y114344D01*
X-310128D01*
Y113620D01*
X-309887D01*
Y112896D01*
X-309645D01*
Y112414D01*
X-309404D01*
Y111689D01*
X-309163D01*
Y111207D01*
X-308921D01*
Y110724D01*
X-308680D01*
Y110483D01*
X-308438D01*
Y110000D01*
X-308197D01*
Y109517D01*
X-307956D01*
Y109276D01*
X-307715D01*
Y108793D01*
X-307473D01*
Y108552D01*
X-307232D01*
Y108069D01*
X-306990D01*
Y107828D01*
X-306749D01*
Y107586D01*
X-306508D01*
Y107104D01*
X-306266D01*
Y106862D01*
X-306025D01*
Y106621D01*
X-305784D01*
Y106380D01*
X-305542D01*
Y105897D01*
X-305301D01*
Y105656D01*
X-305060D01*
Y105414D01*
X-304818D01*
Y105173D01*
X-304577D01*
Y104932D01*
X-304336D01*
Y104690D01*
X-304094D01*
Y104449D01*
X-303853D01*
Y104208D01*
X-303612D01*
Y103966D01*
X-303370D01*
Y103725D01*
X-303129D01*
Y103483D01*
X-302887D01*
Y103242D01*
X-302646D01*
Y103001D01*
X-302405D01*
Y102760D01*
X-301922D01*
Y102518D01*
X-301681D01*
Y102277D01*
X-301439D01*
Y102036D01*
X-301198D01*
Y101794D01*
X-300957D01*
Y101553D01*
X-300474D01*
Y101311D01*
X-300233D01*
Y101070D01*
X-299991D01*
Y100829D01*
X-299509D01*
Y100587D01*
X-299267D01*
Y100346D01*
X-299026D01*
Y100105D01*
X-298543D01*
Y99863D01*
X-298302D01*
Y99622D01*
X-297819D01*
Y99381D01*
X-297578D01*
Y99139D01*
X-297095D01*
Y98898D01*
X-296854D01*
Y98657D01*
X-296371D01*
Y98415D01*
X-296130D01*
Y98174D01*
X-295647D01*
Y97933D01*
X-295164D01*
Y97691D01*
X-294682D01*
Y97450D01*
X-294440D01*
Y97208D01*
X-293958D01*
Y96967D01*
X-293475D01*
Y96726D01*
X-292992D01*
Y96484D01*
X-292509D01*
Y96243D01*
X-292268D01*
Y96002D01*
X-291785D01*
Y95760D01*
X-291303D01*
Y95519D01*
X-290820D01*
Y95278D01*
X-290096D01*
Y95036D01*
X-289613D01*
Y94795D01*
X-289131D01*
Y94554D01*
X-288648D01*
Y94312D01*
X-288165D01*
Y94071D01*
X-287441D01*
Y93830D01*
X-286959D01*
Y93588D01*
X-286234D01*
Y93347D01*
X-285752D01*
Y93105D01*
X-285028D01*
Y92864D01*
X-284304D01*
Y92623D01*
X-283821D01*
Y92381D01*
X-283097D01*
Y92140D01*
X-282373D01*
Y91899D01*
X-281649D01*
Y91657D01*
X-280925D01*
Y91416D01*
X-280201D01*
Y91175D01*
X-279477D01*
Y90933D01*
X-278753D01*
Y90692D01*
X-277787D01*
Y90451D01*
X-277063D01*
Y90209D01*
X-276098D01*
Y89968D01*
X-275132D01*
Y89727D01*
X-274167D01*
Y89485D01*
X-272960D01*
Y89244D01*
X-271995D01*
Y89003D01*
X-270788D01*
Y88761D01*
X-269581D01*
Y88520D01*
X-268375D01*
Y88279D01*
X-266926D01*
Y88037D01*
X-265478D01*
Y87796D01*
X-264030D01*
Y87555D01*
X-262099D01*
Y87313D01*
X-260169D01*
Y87072D01*
X-257514D01*
Y86830D01*
X-253652D01*
Y86589D01*
X-240619D01*
Y86830D01*
X-236516D01*
Y87072D01*
X-234103D01*
Y87313D01*
X-231931D01*
Y87555D01*
X-230241D01*
Y87796D01*
X-228552D01*
Y88037D01*
X-227104D01*
Y88279D01*
X-225656D01*
Y88520D01*
X-224449D01*
Y88761D01*
X-223242D01*
Y89003D01*
X-222277D01*
Y89244D01*
X-221070D01*
Y89485D01*
X-220105D01*
Y89727D01*
X-218898D01*
Y89968D01*
X-218174D01*
Y90209D01*
X-217208D01*
Y90451D01*
X-216243D01*
Y90692D01*
X-215519D01*
Y90933D01*
X-214795D01*
Y91175D01*
X-213830D01*
Y91416D01*
X-213106D01*
Y91657D01*
X-212381D01*
Y91899D01*
X-211657D01*
Y92140D01*
X-210933D01*
Y92381D01*
X-210451D01*
Y92623D01*
X-209727D01*
Y92864D01*
X-209003D01*
Y93105D01*
X-208279D01*
Y93347D01*
X-207796D01*
Y93588D01*
X-207313D01*
Y93830D01*
X-206589D01*
Y94071D01*
X-206106D01*
Y94312D01*
X-205624D01*
Y94554D01*
X-204900D01*
Y94795D01*
X-204417D01*
Y95036D01*
X-203934D01*
Y95278D01*
X-203452D01*
Y95519D01*
X-202969D01*
Y95760D01*
X-202486D01*
Y96002D01*
X-202003D01*
Y96243D01*
X-201521D01*
Y96484D01*
X-201038D01*
Y96726D01*
X-200555D01*
Y96967D01*
X-200073D01*
Y97208D01*
X-199831D01*
Y97450D01*
X-199349D01*
Y97691D01*
X-198866D01*
Y97933D01*
X-198383D01*
Y98174D01*
X-198142D01*
Y98415D01*
X-197659D01*
Y98657D01*
X-197418D01*
Y98898D01*
X-196935D01*
Y99139D01*
X-196694D01*
Y99381D01*
X-196211D01*
Y99622D01*
X-195970D01*
Y99863D01*
X-195487D01*
Y100105D01*
X-195246D01*
Y100346D01*
X-194763D01*
Y100587D01*
X-194522D01*
Y100829D01*
X-194280D01*
Y101070D01*
X-193798D01*
Y101311D01*
X-193556D01*
Y101553D01*
X-193315D01*
Y101794D01*
X-192832D01*
Y102036D01*
X-192591D01*
Y102277D01*
X-192349D01*
Y102518D01*
X-192108D01*
Y102760D01*
X-191867D01*
Y103001D01*
X-191625D01*
Y103242D01*
X-191384D01*
Y103483D01*
X-190901D01*
Y103725D01*
X-190660D01*
Y103966D01*
X-190419D01*
Y104208D01*
X-190177D01*
Y104449D01*
X-189936D01*
Y104690D01*
X-189695D01*
Y104932D01*
X-189453D01*
Y105173D01*
X-189212D01*
Y105414D01*
X-188971D01*
Y105897D01*
X-188729D01*
Y106138D01*
X-188488D01*
Y106380D01*
X-188247D01*
Y106621D01*
X-188005D01*
Y106862D01*
X-187764D01*
Y107345D01*
X-187523D01*
Y107586D01*
X-187281D01*
Y107828D01*
X-187040D01*
Y108311D01*
X-186798D01*
Y108552D01*
X-186557D01*
Y109035D01*
X-186316D01*
Y109276D01*
X-186074D01*
Y109759D01*
X-185833D01*
Y110000D01*
X-185592D01*
Y110483D01*
X-185350D01*
Y110965D01*
X-185109D01*
Y111448D01*
X-184868D01*
Y111931D01*
X-184626D01*
Y112414D01*
X-184385D01*
Y113138D01*
X-184144D01*
Y113862D01*
X-183902D01*
Y114586D01*
X-183661D01*
Y115310D01*
X-183419D01*
Y116516D01*
X-183178D01*
Y118206D01*
X-182937D01*
Y120861D01*
X-183178D01*
Y122792D01*
X-183419D01*
Y123998D01*
X-183661D01*
Y124722D01*
X-183902D01*
Y125446D01*
X-184144D01*
Y126170D01*
X-184385D01*
Y126653D01*
X-184626D01*
Y127377D01*
X-184868D01*
Y127860D01*
X-185109D01*
Y128343D01*
X-185350D01*
Y128825D01*
X-185592D01*
Y129067D01*
X-185833D01*
Y129549D01*
X-186074D01*
Y129791D01*
Y130032D01*
X-186316D01*
Y130273D01*
X-186557D01*
Y130756D01*
X-186798D01*
Y130997D01*
X-187040D01*
Y131480D01*
X-187281D01*
Y131721D01*
X-187523D01*
Y131963D01*
X-187764D01*
Y132204D01*
X-188005D01*
Y132687D01*
X-188247D01*
Y132928D01*
X-188488D01*
Y133169D01*
X-188729D01*
Y133411D01*
X-188971D01*
Y133652D01*
X-189212D01*
Y133894D01*
X-189453D01*
Y134135D01*
X-189695D01*
Y134376D01*
X-189936D01*
Y134618D01*
X-190177D01*
Y134859D01*
X-190419D01*
Y135100D01*
X-190660D01*
Y135342D01*
X-190901D01*
Y135583D01*
X-191143D01*
Y135824D01*
X-191384D01*
Y136066D01*
X-191625D01*
Y136307D01*
X-191867D01*
Y136548D01*
X-192108D01*
Y136790D01*
X-192349D01*
Y137031D01*
X-192591D01*
Y137273D01*
X-193074D01*
Y137514D01*
X-193315D01*
Y137755D01*
X-193556D01*
Y137997D01*
X-193798D01*
Y138238D01*
X-194280D01*
Y138479D01*
X-194522D01*
Y138721D01*
X-195004D01*
Y138962D01*
X-195246D01*
Y139203D01*
X-195487D01*
Y139445D01*
X-195970D01*
Y139686D01*
X-196211D01*
Y139927D01*
X-196694D01*
Y140169D01*
X-196935D01*
Y140410D01*
X-197418D01*
Y140651D01*
X-197659D01*
Y140893D01*
X-198142D01*
Y141134D01*
X-198625D01*
Y141375D01*
X-198866D01*
Y141617D01*
X-199349D01*
Y141858D01*
X-199831D01*
Y142099D01*
X-200314D01*
Y142341D01*
X-200555D01*
Y142582D01*
X-201038D01*
Y142823D01*
X-201521D01*
Y143065D01*
X-202003D01*
Y143306D01*
X-202486D01*
Y143547D01*
X-202969D01*
Y143789D01*
X-203452D01*
Y144030D01*
X-203934D01*
Y144272D01*
X-204658D01*
Y144513D01*
X-205141D01*
Y144754D01*
X-205624D01*
Y144996D01*
X-206106D01*
Y145237D01*
X-206830D01*
Y145478D01*
X-207313D01*
Y145720D01*
X-207796D01*
Y145961D01*
X-208520D01*
Y146202D01*
X-209244D01*
Y146444D01*
X-209727D01*
Y146685D01*
X-210451D01*
Y146926D01*
X-211175D01*
Y147168D01*
X-211899D01*
Y147409D01*
X-212623D01*
Y147650D01*
X-213347D01*
Y147892D01*
X-214071D01*
Y148133D01*
X-214795D01*
Y148375D01*
X-215519D01*
Y148616D01*
X-216484D01*
Y148857D01*
X-217450D01*
Y149099D01*
X-218174D01*
Y149340D01*
X-219139D01*
Y149581D01*
X-220346D01*
Y149823D01*
X-221311D01*
Y150064D01*
X-222277D01*
Y150305D01*
X-223484D01*
Y150547D01*
X-224690D01*
Y150788D01*
X-225897D01*
Y151029D01*
X-227345D01*
Y151271D01*
X-228793D01*
Y151512D01*
X-230483D01*
Y151753D01*
X-232414D01*
Y151995D01*
X-234586D01*
Y152236D01*
X-237240D01*
Y152478D01*
X-241343D01*
Y152719D01*
D02*
G37*
%LPD*%
G36*
X-227345Y149099D02*
X-227104D01*
X-227104Y148616D01*
X-226863D01*
X-226863Y147892D01*
X-226621D01*
Y147168D01*
X-226380D01*
Y146202D01*
X-226138D01*
Y145478D01*
X-225897Y145478D01*
Y144754D01*
X-225656D01*
Y144030D01*
X-225414D01*
Y143306D01*
X-225173D01*
Y142582D01*
X-224932D01*
Y141858D01*
X-224690D01*
Y141134D01*
X-224449D01*
X-224449Y140651D01*
X-224208Y140651D01*
Y139927D01*
X-223966Y139927D01*
Y139203D01*
X-223725D01*
X-223725Y138721D01*
Y138479D01*
X-223484D01*
Y137997D01*
X-223242D01*
X-223242Y137514D01*
X-223001D01*
Y137031D01*
X-222759D01*
Y136548D01*
X-222518D01*
X-222518Y136066D01*
X-222277D01*
Y135583D01*
X-222035D01*
Y135342D01*
X-221794D01*
Y135100D01*
X-221553D01*
Y134859D01*
X-221311D01*
Y134618D01*
X-221070D01*
Y134376D01*
X-220829D01*
Y134135D01*
X-220346D01*
Y133894D01*
X-220105D01*
Y133652D01*
X-219622D01*
X-219622Y133411D01*
X-218898D01*
Y133169D01*
X-218415D01*
X-218415Y132928D01*
X-217691D01*
X-217691Y132687D01*
X-216726D01*
Y132445D01*
X-215519D01*
Y132204D01*
X-214312D01*
Y131963D01*
X-212623D01*
Y131721D01*
X-210692D01*
Y131480D01*
X-209003D01*
Y131239D01*
X-207072D01*
Y130997D01*
X-205382D01*
Y130756D01*
X-203693D01*
Y130515D01*
X-202003D01*
X-202003Y130273D01*
X-200314D01*
Y130032D01*
X-198625Y130032D01*
Y129791D01*
X-196935Y129791D01*
Y129549D01*
X-195246D01*
Y129308D01*
X-193315Y129308D01*
Y129067D01*
X-191625D01*
X-191625Y128825D01*
X-189695D01*
Y128584D01*
X-188971Y128584D01*
Y128343D01*
X-188729Y128343D01*
Y127619D01*
X-188971D01*
Y127377D01*
X-189453D01*
Y127136D01*
X-191143D01*
Y126894D01*
X-192832D01*
X-192832Y126653D01*
X-194522D01*
Y126412D01*
X-196694D01*
X-196694Y126170D01*
X-198383D01*
Y125929D01*
X-200073Y125929D01*
Y125688D01*
X-202003D01*
X-202003Y125446D01*
X-203693D01*
Y125205D01*
X-205382D01*
Y124964D01*
X-207072D01*
Y124722D01*
X-208761D01*
Y124481D01*
X-210451D01*
Y124240D01*
X-212140D01*
X-212140Y123998D01*
X-213830D01*
Y123757D01*
X-215519D01*
Y123516D01*
X-216726D01*
Y123274D01*
X-217691D01*
Y123033D01*
X-218657D01*
Y122792D01*
X-219139D01*
Y122550D01*
X-219863D01*
X-219863Y122309D01*
X-220346D01*
X-220346Y122067D01*
X-220587D01*
Y121826D01*
X-220829D01*
Y121585D01*
X-221070D01*
Y121343D01*
X-221311D01*
Y121102D01*
X-221553D01*
Y120861D01*
X-221794D01*
Y120619D01*
X-222035D01*
Y120137D01*
X-222277D01*
Y119654D01*
X-222518Y119654D01*
Y119413D01*
X-222759Y119413D01*
Y118689D01*
X-223001Y118688D01*
Y118206D01*
X-223242D01*
Y117723D01*
X-223484D01*
X-223484Y116999D01*
X-223725D01*
X-223725Y116275D01*
X-223966D01*
X-223966Y115551D01*
X-224208D01*
X-224208Y114827D01*
X-224449D01*
Y113620D01*
X-224690D01*
Y112655D01*
X-224932D01*
Y111689D01*
X-225173D01*
Y110483D01*
X-225414D01*
Y109517D01*
X-225656D01*
Y108552D01*
X-225897D01*
Y107586D01*
X-226138D01*
X-226138Y106380D01*
X-226380D01*
Y105656D01*
X-226621D01*
Y104690D01*
X-226863D01*
Y103483D01*
X-227104Y103483D01*
Y103001D01*
X-227586Y103001D01*
Y102760D01*
X-228069D01*
Y103001D01*
X-228311D01*
X-228311Y103483D01*
X-228552D01*
X-228552Y104208D01*
X-228793D01*
Y105414D01*
X-229035D01*
Y106380D01*
X-229276D01*
Y107345D01*
X-229517D01*
Y108311D01*
X-229759D01*
Y109276D01*
X-230000D01*
Y110000D01*
X-230241D01*
X-230241Y110965D01*
X-230483D01*
Y111931D01*
X-230724D01*
Y112896D01*
X-230965Y112896D01*
Y113620D01*
X-231207Y113620D01*
Y114586D01*
X-231448Y114586D01*
Y115551D01*
X-231689Y115551D01*
Y116275D01*
X-231931D01*
Y116999D01*
X-232172D01*
Y117723D01*
X-232414D01*
Y118447D01*
X-232655D01*
Y118930D01*
X-232896D01*
Y119413D01*
X-233137Y119413D01*
Y119895D01*
X-233379D01*
Y120137D01*
X-233620D01*
Y120619D01*
X-233862D01*
Y120861D01*
X-234103D01*
Y121102D01*
X-234344D01*
Y121343D01*
X-234586D01*
X-234586Y121585D01*
X-234827D01*
X-234827Y121826D01*
X-235068D01*
X-235068Y122067D01*
X-235551D01*
X-235551Y122309D01*
X-236034D01*
Y122550D01*
X-236516D01*
Y122792D01*
X-236999D01*
Y123033D01*
X-237723D01*
Y123274D01*
X-238689D01*
Y123516D01*
X-240137D01*
Y123757D01*
X-241585D01*
Y123998D01*
X-243516Y123998D01*
Y124240D01*
X-245446D01*
Y124481D01*
X-247136Y124481D01*
Y124722D01*
X-249067D01*
Y124964D01*
X-250997Y124964D01*
Y125205D01*
X-252928D01*
Y125446D01*
X-254859D01*
X-254859Y125688D01*
X-257031D01*
Y125929D01*
X-259203Y125929D01*
Y126170D01*
X-261617D01*
X-261617Y126412D01*
X-264272D01*
X-264272Y126653D01*
X-268133Y126653D01*
Y126894D01*
X-271753D01*
Y126653D01*
X-274408D01*
Y126412D01*
X-277063D01*
X-277063Y126170D01*
X-278994Y126170D01*
Y125929D01*
X-280442D01*
Y125688D01*
X-281407D01*
X-281407Y125446D01*
X-281890D01*
Y125205D01*
X-282373D01*
Y124964D01*
X-282614D01*
Y124722D01*
X-282855D01*
Y124240D01*
X-283097Y124240D01*
Y123757D01*
X-283338D01*
Y123033D01*
X-283580D01*
Y122309D01*
X-283821D01*
X-283821Y121585D01*
X-284062D01*
X-284062Y120619D01*
X-284304D01*
Y119654D01*
X-284545D01*
Y118689D01*
X-284786D01*
Y117964D01*
X-285028D01*
Y117723D01*
X-285269D01*
Y117482D01*
X-285993D01*
X-285993Y117723D01*
X-286234D01*
Y118206D01*
X-286476D01*
Y118930D01*
X-286717Y118930D01*
Y119895D01*
X-286959D01*
Y120619D01*
X-287200D01*
Y121585D01*
X-287441D01*
X-287441Y122309D01*
X-287682D01*
X-287682Y123033D01*
X-287924D01*
Y123757D01*
X-288165D01*
Y124240D01*
X-288407D01*
Y124481D01*
X-288648D01*
Y124722D01*
X-288889D01*
Y124964D01*
X-289131D01*
Y125205D01*
X-289613D01*
Y125446D01*
X-290337D01*
Y125688D01*
X-291303Y125688D01*
X-291303Y125929D01*
X-292751D01*
Y126170D01*
X-294682Y126170D01*
Y126412D01*
X-296130D01*
Y126653D01*
X-297337D01*
X-297337Y126894D01*
X-298785D01*
Y127136D01*
X-300233D01*
Y127377D01*
X-300715D01*
Y127619D01*
X-300957D01*
Y128343D01*
X-300715D01*
Y128584D01*
X-300233D01*
Y128825D01*
X-298785D01*
Y129067D01*
X-297337Y129067D01*
X-297337Y129308D01*
X-295647D01*
Y129549D01*
X-294199Y129549D01*
Y129791D01*
X-292751D01*
Y130032D01*
X-291061D01*
Y130273D01*
X-290096D01*
Y130515D01*
X-289613D01*
Y130756D01*
X-289131D01*
Y130997D01*
X-288889D01*
Y131239D01*
X-288407D01*
Y131721D01*
X-288165D01*
Y131963D01*
X-287924D01*
Y132687D01*
X-287682D01*
X-287682Y133411D01*
X-287441D01*
X-287441Y133894D01*
X-287200D01*
Y134618D01*
X-286959D01*
Y135100D01*
X-286717D01*
Y135824D01*
X-286476D01*
X-286476Y136548D01*
X-286234D01*
Y137031D01*
X-285993D01*
X-285993Y137273D01*
X-285269D01*
Y137031D01*
X-285028D01*
Y136548D01*
X-284786D01*
Y135824D01*
X-284545D01*
Y134859D01*
X-284304D01*
Y134135D01*
X-284062D01*
Y133652D01*
X-283821D01*
Y132928D01*
X-283580Y132928D01*
X-283580Y132445D01*
X-283338D01*
Y132204D01*
X-283097D01*
Y131721D01*
X-282855D01*
Y131480D01*
X-282614D01*
Y131239D01*
X-282373D01*
Y130997D01*
X-281890D01*
Y130756D01*
X-281649D01*
Y130515D01*
X-280925D01*
Y130273D01*
X-279959D01*
Y130032D01*
X-278511Y130032D01*
Y129791D01*
X-276098Y129791D01*
Y129549D01*
X-274408D01*
Y129308D01*
X-272477Y129308D01*
Y129067D01*
X-265720D01*
X-265720Y129308D01*
X-263547D01*
Y129549D01*
X-261375D01*
Y129791D01*
X-259203Y129791D01*
Y130032D01*
X-257272Y130032D01*
Y130273D01*
X-255342D01*
Y130515D01*
X-253411Y130515D01*
Y130756D01*
X-251480D01*
Y130997D01*
X-249549D01*
Y131239D01*
X-247619D01*
Y131480D01*
X-245688D01*
Y131721D01*
X-243757D01*
Y131963D01*
X-242068D01*
Y132204D01*
X-240378D01*
Y132445D01*
X-239171D01*
X-239171Y132687D01*
X-238206D01*
X-238206Y132928D01*
X-237482D01*
X-237482Y133169D01*
X-236758D01*
Y133411D01*
X-236034D01*
Y133652D01*
X-235551D01*
Y133894D01*
X-235068D01*
Y134135D01*
X-234827D01*
Y134376D01*
X-234586D01*
Y134618D01*
X-234344D01*
Y134859D01*
X-234103D01*
Y135100D01*
X-233862D01*
Y135342D01*
X-233620D01*
Y135583D01*
X-233379D01*
Y135824D01*
X-233137D01*
Y136307D01*
X-232896D01*
X-232896Y136548D01*
X-232655D01*
Y137031D01*
X-232414D01*
Y137514D01*
X-232172D01*
Y137997D01*
X-231931D01*
Y138721D01*
X-231689D01*
Y139203D01*
X-231448D01*
Y139927D01*
X-231207Y139927D01*
Y140651D01*
X-230965Y140651D01*
Y141375D01*
X-230724Y141375D01*
Y142099D01*
X-230483D01*
Y142823D01*
X-230241D01*
Y143548D01*
X-230000Y143547D01*
Y144272D01*
X-229759D01*
Y145237D01*
X-229517D01*
Y145961D01*
X-229276D01*
Y146685D01*
X-229035D01*
Y147409D01*
X-228793D01*
Y148375D01*
X-228552D01*
Y148857D01*
X-228311D01*
Y149340D01*
X-227345D01*
Y149099D01*
D02*
G37*
G36*
X-265237Y123998D02*
Y123757D01*
X-264996D01*
Y123274D01*
X-264754D01*
Y122792D01*
X-264513D01*
X-264513Y122067D01*
X-264272D01*
X-264272Y121343D01*
X-264030D01*
Y120619D01*
X-263789D01*
Y119895D01*
X-263547D01*
Y119171D01*
X-263306D01*
Y118689D01*
X-263065D01*
Y118206D01*
X-262824D01*
Y117964D01*
X-262582D01*
Y117482D01*
X-262099D01*
Y117240D01*
X-261617D01*
X-261617Y116999D01*
X-261134D01*
X-261134Y116758D01*
X-260169D01*
Y116516D01*
X-259203D01*
Y116275D01*
X-257514D01*
Y116034D01*
X-255100D01*
Y115792D01*
X-252928D01*
Y115551D01*
X-251239D01*
Y115310D01*
X-250032D01*
X-250032Y115068D01*
X-249308D01*
X-249308Y114827D01*
X-249067D01*
X-249067Y114103D01*
X-249549Y114103D01*
Y113862D01*
X-250032D01*
Y113620D01*
X-251239D01*
Y113379D01*
X-252446D01*
Y113138D01*
X-254135Y113138D01*
Y112896D01*
X-256307D01*
Y112655D01*
X-257997D01*
Y112414D01*
X-259686D01*
Y112172D01*
X-260893D01*
Y111931D01*
X-261617D01*
Y111689D01*
X-262099D01*
Y111448D01*
X-262341D01*
Y111207D01*
X-262582D01*
Y110965D01*
X-262824D01*
Y110724D01*
X-263065D01*
Y110000D01*
X-263306D01*
Y109276D01*
X-263547D01*
Y108552D01*
X-263789Y108552D01*
Y107586D01*
X-264030D01*
X-264030Y106862D01*
X-264272D01*
X-264272Y106138D01*
X-264513D01*
Y105173D01*
X-264754D01*
Y104449D01*
X-264996Y104449D01*
Y103966D01*
X-265237D01*
X-265237Y103725D01*
X-265961D01*
X-265961Y103966D01*
X-266202D01*
Y104690D01*
X-266444D01*
Y105414D01*
X-266685D01*
Y106380D01*
X-266926D01*
Y107345D01*
X-267168D01*
Y108069D01*
X-267409D01*
Y109035D01*
X-267651D01*
Y109517D01*
X-267892D01*
Y110241D01*
X-268133Y110241D01*
Y110724D01*
X-268375Y110724D01*
Y110965D01*
X-268616Y110965D01*
Y111207D01*
X-268857Y111207D01*
Y111448D01*
X-269099D01*
Y111689D01*
X-269823D01*
Y111931D01*
X-270788D01*
Y112172D01*
X-272236D01*
Y112414D01*
X-273684D01*
Y112655D01*
X-275132D01*
Y112896D01*
X-276580D01*
X-276580Y113138D01*
X-278511D01*
Y113379D01*
X-284304D01*
Y113138D01*
X-285993D01*
X-285993Y112896D01*
X-287682D01*
Y112655D01*
X-289131D01*
Y112414D01*
X-289855D01*
Y112172D01*
X-290337D01*
Y111931D01*
X-290579D01*
Y111689D01*
X-290820D01*
Y111448D01*
X-291061D01*
X-291061Y111207D01*
X-291303D01*
Y110724D01*
X-291544D01*
Y110000D01*
X-291785D01*
Y109276D01*
X-292027D01*
Y108311D01*
X-292268D01*
Y107586D01*
X-292509D01*
Y106862D01*
X-292751D01*
Y106380D01*
X-292992D01*
Y105897D01*
X-293234D01*
Y105656D01*
X-293958D01*
Y105897D01*
X-294199Y105897D01*
Y106621D01*
X-294440Y106621D01*
Y107586D01*
X-294682D01*
Y108552D01*
X-294923Y108552D01*
Y109276D01*
X-295164D01*
Y110000D01*
X-295406D01*
Y110724D01*
X-295647D01*
Y110965D01*
X-295888D01*
Y111448D01*
X-296130D01*
Y111689D01*
X-296371D01*
Y111931D01*
X-296854D01*
Y112172D01*
X-297095D01*
Y112414D01*
X-297819D01*
Y112655D01*
X-298785D01*
Y112896D01*
X-299991Y112896D01*
Y113138D01*
X-301198Y113138D01*
Y113379D01*
X-302887D01*
Y113620D01*
X-304818Y113620D01*
Y113862D01*
X-305784Y113862D01*
Y114103D01*
X-306266D01*
Y115068D01*
X-305784D01*
Y115310D01*
X-304818D01*
Y115551D01*
X-303129D01*
X-303129Y115792D01*
X-301922D01*
Y116034D01*
X-300715D01*
Y116275D01*
X-299750D01*
Y116516D01*
X-298543D01*
Y116758D01*
X-297578D01*
Y116999D01*
X-296854D01*
X-296854Y117240D01*
X-296371D01*
Y117482D01*
X-296130D01*
Y117723D01*
X-295888D01*
Y117964D01*
X-295647D01*
Y118447D01*
X-295406D01*
Y118930D01*
X-295164D01*
Y119654D01*
X-294923Y119654D01*
Y120378D01*
X-294682D01*
Y120861D01*
X-294440D01*
Y121585D01*
X-294199Y121585D01*
X-294199Y121826D01*
X-293958D01*
Y122309D01*
X-293475D01*
Y122550D01*
X-293234D01*
Y122309D01*
X-292992D01*
Y122067D01*
X-292751D01*
Y121585D01*
X-292509D01*
Y121102D01*
X-292268D01*
Y120378D01*
X-292027D01*
X-292027Y119654D01*
X-291785D01*
Y119171D01*
X-291544D01*
X-291544Y118447D01*
X-291303Y118447D01*
Y117964D01*
X-291061D01*
X-291061Y117723D01*
X-290820D01*
X-290820Y117482D01*
X-290579D01*
X-290579Y117240D01*
X-290096D01*
X-290096Y116999D01*
X-289613D01*
Y116758D01*
X-289131D01*
Y116516D01*
X-287924D01*
Y116275D01*
X-286717D01*
Y116034D01*
X-285269D01*
Y115792D01*
X-283580D01*
Y115551D01*
X-278270Y115551D01*
Y115792D01*
X-276339D01*
Y116034D01*
X-274408D01*
Y116275D01*
X-272477D01*
Y116516D01*
X-271271D01*
Y116758D01*
X-270305D01*
Y116999D01*
X-269581D01*
Y117240D01*
X-269099D01*
Y117482D01*
X-268857D01*
Y117723D01*
X-268616Y117723D01*
Y117965D01*
X-268375Y117964D01*
Y118206D01*
X-268133Y118206D01*
Y118688D01*
X-267892Y118689D01*
Y119171D01*
X-267651Y119171D01*
Y119654D01*
X-267409Y119654D01*
Y120137D01*
X-267168D01*
Y120861D01*
X-266926D01*
Y121585D01*
X-266685D01*
Y122309D01*
X-266444D01*
Y123033D01*
X-266202D01*
Y123516D01*
X-265961D01*
Y123998D01*
X-265237Y123998D01*
D02*
G37*
G36*
X-244722Y110000D02*
X-244481D01*
Y109517D01*
X-244240D01*
Y108793D01*
X-243998D01*
Y108311D01*
Y108069D01*
X-243757D01*
Y107345D01*
X-243516D01*
Y106621D01*
X-243274D01*
Y105897D01*
X-243033D01*
Y105414D01*
X-242792D01*
Y104932D01*
X-242550D01*
Y104449D01*
X-242309Y104449D01*
Y104208D01*
X-242068Y104208D01*
Y103966D01*
X-241826Y103966D01*
Y103725D01*
X-241585Y103725D01*
Y103483D01*
X-240861Y103483D01*
Y103242D01*
X-240137D01*
Y103001D01*
X-239171D01*
X-239171Y102760D01*
X-237482D01*
Y102518D01*
X-235551Y102518D01*
Y102277D01*
X-233137Y102277D01*
X-233138Y102036D01*
X-231207D01*
Y101794D01*
X-230000Y101794D01*
Y101553D01*
X-229035D01*
Y101311D01*
X-228793D01*
Y101070D01*
X-228552D01*
Y100829D01*
X-228793D01*
Y100587D01*
X-229035D01*
Y100346D01*
X-229517D01*
Y100105D01*
X-230483D01*
Y99863D01*
X-231931Y99863D01*
Y99622D01*
X-233620D01*
X-233620Y99381D01*
X-235551D01*
X-235551Y99139D01*
X-237482D01*
Y98898D01*
X-239171D01*
Y98657D01*
X-240378Y98657D01*
Y98415D01*
X-241102D01*
Y98174D01*
X-241585D01*
Y97933D01*
X-242068D01*
Y97691D01*
X-242309Y97691D01*
Y97208D01*
X-242550D01*
Y96726D01*
X-242792D01*
Y96002D01*
X-243033D01*
Y95278D01*
X-243274D01*
Y94554D01*
X-243516D01*
Y93830D01*
X-243757D01*
Y92864D01*
X-243998D01*
X-243998Y92140D01*
X-244240Y92140D01*
X-244240Y91416D01*
X-244481D01*
X-244481Y90692D01*
X-244722D01*
Y90451D01*
X-244964D01*
Y90209D01*
X-245446D01*
Y90451D01*
X-245688D01*
Y90933D01*
X-245929Y90933D01*
Y91657D01*
X-246170Y91657D01*
Y92623D01*
X-246412Y92623D01*
Y93588D01*
X-246653D01*
Y94312D01*
X-246894D01*
Y95278D01*
X-247136D01*
Y96002D01*
X-247377D01*
Y96484D01*
X-247619D01*
Y96967D01*
X-247860D01*
Y97450D01*
X-248101D01*
Y97691D01*
X-248342Y97691D01*
Y97933D01*
X-248825D01*
Y98174D01*
X-249308D01*
Y98415D01*
X-250273Y98415D01*
Y98657D01*
X-251721D01*
Y98898D01*
X-253169D01*
Y99139D01*
X-254859D01*
X-254859Y99381D01*
X-256307D01*
Y99622D01*
X-258238D01*
Y99863D01*
X-264754D01*
X-264754Y99622D01*
X-266444D01*
Y99381D01*
X-268133D01*
Y99139D01*
X-269581Y99139D01*
Y98898D01*
X-270788Y98898D01*
Y98657D01*
X-271512D01*
X-271512Y98415D01*
X-271995Y98415D01*
Y98174D01*
X-272236Y98174D01*
Y97933D01*
X-272477Y97933D01*
Y97450D01*
X-272719D01*
Y96967D01*
X-272960D01*
Y96484D01*
X-273202D01*
Y95760D01*
X-273443D01*
Y95036D01*
X-273684D01*
Y94312D01*
X-273926D01*
Y93588D01*
X-274167D01*
Y92864D01*
X-274408D01*
Y92623D01*
X-275374D01*
Y93105D01*
X-275615Y93105D01*
Y93588D01*
X-275856D01*
Y94312D01*
X-276098D01*
Y95278D01*
X-276339D01*
Y95760D01*
X-276580D01*
Y96484D01*
X-276822D01*
Y96967D01*
X-277063D01*
Y97450D01*
X-277304D01*
Y97933D01*
X-277787D01*
Y98174D01*
X-278029D01*
Y98415D01*
X-278270D01*
Y98657D01*
X-278994D01*
Y98898D01*
X-279718Y98898D01*
Y99139D01*
X-281166D01*
X-281166Y99381D01*
X-282855D01*
Y99622D01*
X-284545Y99622D01*
Y99863D01*
X-286234D01*
X-286234Y100105D01*
X-287924D01*
Y100346D01*
X-289613D01*
Y100587D01*
X-290096D01*
Y101553D01*
X-289613D01*
Y101794D01*
X-288407D01*
Y102036D01*
X-286476D01*
X-286476Y102277D01*
X-284545D01*
Y102518D01*
X-282855D01*
Y102760D01*
X-281166Y102760D01*
X-281166Y103001D01*
X-279718Y103001D01*
Y103242D01*
X-278753D01*
Y103483D01*
X-278029D01*
Y103725D01*
X-277787D01*
Y103966D01*
X-277304D01*
Y104208D01*
X-277063Y104208D01*
Y104690D01*
X-276822D01*
Y105173D01*
X-276580D01*
X-276580Y105897D01*
X-276339D01*
X-276339Y106621D01*
X-276098D01*
Y107345D01*
X-275856D01*
Y108069D01*
X-275615D01*
Y108793D01*
X-275374D01*
Y109035D01*
X-275132D01*
Y109276D01*
X-274167D01*
Y108793D01*
X-273926D01*
Y108069D01*
X-273684D01*
Y107345D01*
X-273443D01*
Y106621D01*
X-273202D01*
Y105897D01*
X-272960D01*
Y105173D01*
X-272719D01*
Y104690D01*
X-272477D01*
Y104449D01*
X-272236Y104449D01*
Y103966D01*
X-271995Y103966D01*
Y103725D01*
X-271753Y103725D01*
Y103483D01*
X-271271D01*
X-271271Y103242D01*
X-270547D01*
Y103001D01*
X-269340D01*
Y102760D01*
X-267892D01*
Y102518D01*
X-266444Y102518D01*
Y102277D01*
X-264754Y102277D01*
Y102036D01*
X-257514Y102036D01*
Y102277D01*
X-255342D01*
Y102518D01*
X-253411D01*
Y102760D01*
X-251480Y102760D01*
Y103001D01*
X-250515D01*
X-250515Y103242D01*
X-249549D01*
Y103483D01*
X-249067Y103483D01*
Y103725D01*
X-248584D01*
Y103966D01*
X-248342Y103966D01*
Y104208D01*
X-248101Y104208D01*
Y104449D01*
X-247860D01*
Y104690D01*
X-247619D01*
Y105173D01*
X-247377D01*
Y105656D01*
X-247136D01*
Y106138D01*
X-246894D01*
Y106621D01*
X-246653D01*
Y107345D01*
X-246412D01*
Y108069D01*
X-246170D01*
Y108793D01*
X-245929D01*
Y109517D01*
X-245688D01*
Y110000D01*
X-245446D01*
Y110241D01*
X-244722D01*
Y110000D01*
D02*
G37*
%LPC*%
G36*
X-261375Y63420D02*
X-261617D01*
Y63178D01*
X-261858D01*
Y62695D01*
X-262099D01*
Y62213D01*
X-262341D01*
Y61730D01*
X-262582D01*
Y61247D01*
X-262824D01*
Y60765D01*
X-263065D01*
Y60282D01*
X-263306D01*
Y59799D01*
X-263547D01*
Y59317D01*
X-263789D01*
Y58834D01*
X-264030D01*
Y58351D01*
X-264272D01*
Y57868D01*
X-264513D01*
Y57627D01*
X-264754D01*
Y57144D01*
X-264996D01*
Y56662D01*
X-265237D01*
Y56179D01*
X-265478D01*
Y55696D01*
X-265720D01*
Y55214D01*
X-265961D01*
Y54731D01*
X-257031D01*
Y55214D01*
X-257272D01*
Y55696D01*
X-257514D01*
Y56179D01*
X-257755D01*
Y56420D01*
X-257997D01*
Y56903D01*
X-258238D01*
Y57386D01*
X-258479D01*
Y57868D01*
X-258721D01*
Y58351D01*
X-258962D01*
Y58834D01*
X-259203D01*
Y59317D01*
X-259445D01*
Y59799D01*
X-259686D01*
Y60282D01*
X-259927D01*
Y60765D01*
X-260169D01*
Y61006D01*
X-260410D01*
Y61489D01*
X-260651D01*
Y61972D01*
X-260893D01*
Y62454D01*
X-261134D01*
Y62937D01*
X-261375D01*
Y63420D01*
D02*
G37*
G36*
X-222277Y64626D02*
X-237240D01*
Y64385D01*
X-237482D01*
Y64144D01*
X-237723D01*
Y63902D01*
X-237964D01*
Y63178D01*
X-238206D01*
Y61972D01*
X-237964D01*
Y61247D01*
X-237723D01*
Y61006D01*
Y60765D01*
X-237482D01*
Y60523D01*
X-236999D01*
Y60282D01*
X-222277D01*
Y64626D01*
D02*
G37*
G36*
X-222518Y55696D02*
X-224690D01*
Y55455D01*
X-225414D01*
Y55696D01*
X-225656D01*
Y55455D01*
X-226138D01*
Y55696D01*
X-226380D01*
Y55455D01*
X-226863D01*
Y55696D01*
X-227104D01*
Y55455D01*
X-227586D01*
Y55696D01*
X-227828D01*
Y55455D01*
X-228311D01*
Y55696D01*
X-231931D01*
Y55455D01*
X-232655D01*
Y55696D01*
X-232896D01*
Y55455D01*
X-233379D01*
Y55696D01*
X-233620D01*
Y55455D01*
X-234103D01*
Y55696D01*
X-234344D01*
Y55455D01*
X-234827D01*
Y55696D01*
X-235068D01*
Y55455D01*
X-235551D01*
Y55696D01*
X-236758D01*
Y55455D01*
X-237482D01*
Y55214D01*
X-237964D01*
Y54972D01*
X-238206D01*
Y54490D01*
X-238447D01*
Y53766D01*
X-238689D01*
Y52318D01*
X-238447D01*
Y51593D01*
X-238206D01*
Y51111D01*
X-237964D01*
Y50869D01*
X-237723D01*
Y50628D01*
X-237240D01*
Y50387D01*
X-222277D01*
Y55455D01*
X-222518D01*
Y55696D01*
D02*
G37*
G36*
X-344400Y47973D02*
X-344641D01*
Y47732D01*
X-345124D01*
Y47491D01*
X-344882D01*
Y47249D01*
X-344400D01*
Y47732D01*
Y47973D01*
D02*
G37*
G36*
X-286959Y64626D02*
X-300957D01*
Y64385D01*
X-301681D01*
Y64144D01*
X-301922D01*
Y63902D01*
X-302164D01*
Y63661D01*
X-302405D01*
Y63420D01*
X-302646D01*
Y61247D01*
X-302405D01*
Y60765D01*
X-302164D01*
Y60523D01*
X-301922D01*
Y60282D01*
X-301439D01*
Y60041D01*
X-286959D01*
Y64626D01*
D02*
G37*
%LPD*%
D10*
X-351000Y245000D02*
G03*
X-351000Y245000I-1250J0D01*
G01*
D11*
X-432450Y262500D02*
X-416750D01*
X-391250D02*
X-357350D01*
Y137500D02*
Y262500D01*
X-432450Y137500D02*
X-416750D01*
X-391250D02*
X-357350D01*
X-432450D02*
Y148250D01*
Y251750D02*
Y262500D01*
M02*
