G04*
G04 #@! TF.GenerationSoftware,Altium Limited,Altium Designer,25.4.2 (15)*
G04*
G04 Layer_Color=16711935*
%FSLAX44Y44*%
%MOMM*%
G71*
G04*
G04 #@! TF.SameCoordinates,0D90D8C6-8642-40C6-9E08-F82A929EB935*
G04*
G04*
G04 #@! TF.FilePolarity,Negative*
G04*
G01*
G75*
G04:AMPARAMS|DCode=24|XSize=1.8741mm|YSize=0.5421mm|CornerRadius=0.2711mm|HoleSize=0mm|Usage=FLASHONLY|Rotation=180.000|XOffset=0mm|YOffset=0mm|HoleType=Round|Shape=RoundedRectangle|*
%AMROUNDEDRECTD24*
21,1,1.8741,0.0000,0,0,180.0*
21,1,1.3319,0.5421,0,0,180.0*
1,1,0.5421,-0.6660,0.0000*
1,1,0.5421,0.6660,0.0000*
1,1,0.5421,0.6660,0.0000*
1,1,0.5421,-0.6660,0.0000*
%
%ADD24ROUNDEDRECTD24*%
%ADD35R,0.7154X0.6725*%
%ADD38R,0.6725X0.7154*%
%ADD39R,1.3000X4.5000*%
%ADD40R,0.9531X5.4031*%
%ADD41R,5.4031X0.9531*%
%ADD46R,2.7062X1.5533*%
%ADD47R,4.7500X1.7500*%
%ADD48R,4.5000X1.3000*%
%ADD60R,0.3000X0.4500*%
%ADD64R,1.1430X2.0320*%
%ADD67R,1.8741X0.5421*%
%ADD74R,0.5000X0.3500*%
%ADD75R,1.8796X1.6764*%
G04:AMPARAMS|DCode=83|XSize=1.1mm|YSize=0.95mm|CornerRadius=0.175mm|HoleSize=0mm|Usage=FLASHONLY|Rotation=180.000|XOffset=0mm|YOffset=0mm|HoleType=Round|Shape=RoundedRectangle|*
%AMROUNDEDRECTD83*
21,1,1.1000,0.6000,0,0,180.0*
21,1,0.7500,0.9500,0,0,180.0*
1,1,0.3500,-0.3750,0.3000*
1,1,0.3500,0.3750,0.3000*
1,1,0.3500,0.3750,-0.3000*
1,1,0.3500,-0.3750,-0.3000*
%
%ADD83ROUNDEDRECTD83*%
%ADD84R,0.5500X0.6300*%
%ADD85R,0.6300X0.5500*%
%ADD91O,0.5000X1.5500*%
G04:AMPARAMS|DCode=92|XSize=1.1mm|YSize=0.95mm|CornerRadius=0.175mm|HoleSize=0mm|Usage=FLASHONLY|Rotation=90.000|XOffset=0mm|YOffset=0mm|HoleType=Round|Shape=RoundedRectangle|*
%AMROUNDEDRECTD92*
21,1,1.1000,0.6000,0,0,90.0*
21,1,0.7500,0.9500,0,0,90.0*
1,1,0.3500,0.3000,0.3750*
1,1,0.3500,0.3000,-0.3750*
1,1,0.3500,-0.3000,-0.3750*
1,1,0.3500,-0.3000,0.3750*
%
%ADD92ROUNDEDRECTD92*%
%ADD102R,0.8000X0.8000*%
%ADD105C,2.8500*%
%ADD106R,2.6500X2.6500*%
%ADD107C,2.6500*%
%ADD108C,2.3000*%
%ADD110C,4.1500*%
%ADD123R,1.3500X0.9500*%
%ADD124R,1.6000X1.0000*%
%ADD125R,5.5031X2.0821*%
%ADD126R,2.1500X3.2500*%
%ADD127R,2.1500X0.9500*%
%ADD128R,2.5000X1.0000*%
%ADD132R,0.7000X0.4200*%
%ADD134R,1.5000X1.0000*%
%ADD135R,1.3082X0.7621*%
G04:AMPARAMS|DCode=136|XSize=1.3082mm|YSize=0.7621mm|CornerRadius=0.3811mm|HoleSize=0mm|Usage=FLASHONLY|Rotation=180.000|XOffset=0mm|YOffset=0mm|HoleType=Round|Shape=RoundedRectangle|*
%AMROUNDEDRECTD136*
21,1,1.3082,0.0000,0,0,180.0*
21,1,0.5461,0.7621,0,0,180.0*
1,1,0.7621,-0.2730,0.0000*
1,1,0.7621,0.2730,0.0000*
1,1,0.7621,0.2730,0.0000*
1,1,0.7621,-0.2730,0.0000*
%
%ADD136ROUNDEDRECTD136*%
%ADD140R,1.0500X0.8500*%
%ADD141R,0.4500X0.9000*%
%ADD142R,0.3500X0.9000*%
%ADD143R,1.1000X1.2000*%
%ADD144R,1.0600X1.3700*%
%ADD145R,0.1500X0.1500*%
G36*
X812250Y928001D02*
X823600D01*
Y927502D01*
X826600D01*
Y923502D01*
X823600D01*
Y921002D01*
X826600D01*
Y917001D01*
X823600D01*
Y914501D01*
X826600D01*
Y910501D01*
X823600D01*
Y908001D01*
X826600D01*
Y904001D01*
X823600D01*
Y903502D01*
X812250D01*
Y899702D01*
X807950D01*
Y903502D01*
X803800D01*
Y928001D01*
X807950D01*
Y931802D01*
X812250D01*
Y928001D01*
D02*
G37*
G36*
X767250Y927252D02*
X771400D01*
Y902751D01*
X767250D01*
Y898951D01*
X762950D01*
Y902751D01*
X751600D01*
Y903251D01*
X748600D01*
Y907252D01*
X751600D01*
Y909752D01*
X748600D01*
Y913752D01*
X751600D01*
Y916252D01*
X748600D01*
Y920251D01*
X751600D01*
Y922751D01*
X748600D01*
Y926751D01*
X751600D01*
Y927252D01*
X762950D01*
Y931051D01*
X767250D01*
Y927252D01*
D02*
G37*
G36*
X812250Y888001D02*
X823600D01*
Y887502D01*
X826600D01*
Y883502D01*
X823600D01*
Y881002D01*
X826600D01*
Y877001D01*
X823600D01*
Y874501D01*
X826600D01*
Y870501D01*
X823600D01*
Y868001D01*
X826600D01*
Y864001D01*
X823600D01*
Y863502D01*
X812250D01*
Y859702D01*
X807950D01*
Y863502D01*
X803800D01*
Y888001D01*
X807950D01*
Y891802D01*
X812250D01*
Y888001D01*
D02*
G37*
G36*
X767250Y887252D02*
X771400D01*
Y862751D01*
X767250D01*
Y858951D01*
X762950D01*
Y862751D01*
X751600D01*
Y863251D01*
X748600D01*
Y867252D01*
X751600D01*
Y869752D01*
X748600D01*
Y873752D01*
X751600D01*
Y876252D01*
X748600D01*
Y880251D01*
X751600D01*
Y882751D01*
X748600D01*
Y886751D01*
X751600D01*
Y887252D01*
X762950D01*
Y891051D01*
X767250D01*
Y887252D01*
D02*
G37*
G36*
X897150Y792626D02*
X908500D01*
Y792126D01*
X911500D01*
Y788127D01*
X908500D01*
Y785627D01*
X911500D01*
Y781627D01*
X908500D01*
Y779127D01*
X911500D01*
Y775126D01*
X908500D01*
Y772626D01*
X911500D01*
Y768626D01*
X908500D01*
Y768127D01*
X897150D01*
Y764326D01*
X892850D01*
Y768127D01*
X888700D01*
Y792626D01*
X892850D01*
Y796426D01*
X897150D01*
Y792626D01*
D02*
G37*
G36*
Y717626D02*
X908500D01*
Y717126D01*
X911500D01*
Y713127D01*
X908500D01*
Y710627D01*
X911500D01*
Y706627D01*
X908500D01*
Y704127D01*
X911500D01*
Y700126D01*
X908500D01*
Y697626D01*
X911500D01*
Y693626D01*
X908500D01*
Y693127D01*
X897150D01*
Y689326D01*
X892850D01*
Y693127D01*
X888700D01*
Y717626D01*
X892850D01*
Y721426D01*
X897150D01*
Y717626D01*
D02*
G37*
D24*
X843161Y609052D02*
D03*
Y539052D02*
D03*
Y449052D02*
D03*
Y129052D02*
D03*
Y59051D02*
D03*
Y289051D02*
D03*
Y219051D02*
D03*
Y379052D02*
D03*
X796839Y353652D02*
D03*
Y366352D02*
D03*
Y379052D02*
D03*
X843161Y366352D02*
D03*
Y353652D02*
D03*
Y340951D02*
D03*
X796839Y193652D02*
D03*
Y206352D02*
D03*
Y219051D02*
D03*
X843161Y206352D02*
D03*
Y193652D02*
D03*
Y180951D02*
D03*
X796839Y263652D02*
D03*
Y276352D02*
D03*
Y289051D02*
D03*
X843161Y276352D02*
D03*
Y263652D02*
D03*
Y250951D02*
D03*
X796839Y33651D02*
D03*
Y46351D02*
D03*
Y59051D02*
D03*
X843161Y46351D02*
D03*
Y33651D02*
D03*
Y20951D02*
D03*
X796839Y103652D02*
D03*
Y116351D02*
D03*
Y129052D02*
D03*
X843161Y116351D02*
D03*
Y103652D02*
D03*
Y90951D02*
D03*
X796839Y423652D02*
D03*
Y436352D02*
D03*
Y449052D02*
D03*
X843161Y436352D02*
D03*
Y423652D02*
D03*
Y410951D02*
D03*
Y513652D02*
D03*
X796839Y539052D02*
D03*
Y526352D02*
D03*
X843161D02*
D03*
Y500951D02*
D03*
X796839Y513652D02*
D03*
X843161Y583652D02*
D03*
Y596352D02*
D03*
Y570951D02*
D03*
X796839Y596352D02*
D03*
Y609052D02*
D03*
Y583652D02*
D03*
D35*
X179786Y1485000D02*
D03*
X322714Y787500D02*
D03*
Y750000D02*
D03*
Y775000D02*
D03*
X529786Y155000D02*
D03*
Y140000D02*
D03*
X99786Y1220000D02*
D03*
X544786Y950002D02*
D03*
X864786Y1090002D02*
D03*
Y1230002D02*
D03*
Y1375002D02*
D03*
Y1510002D02*
D03*
X535214Y1120002D02*
D03*
X1074786Y415000D02*
D03*
X1074786Y365000D02*
D03*
X879786Y580001D02*
D03*
Y510001D02*
D03*
X719786Y580001D02*
D03*
Y420001D02*
D03*
X680214Y210002D02*
D03*
Y370001D02*
D03*
Y342501D02*
D03*
Y182502D02*
D03*
X719786Y260002D02*
D03*
Y100001D02*
D03*
X680214Y50002D02*
D03*
Y22501D02*
D03*
X879786Y190002D02*
D03*
Y260002D02*
D03*
Y100001D02*
D03*
Y30001D02*
D03*
X680214Y530001D02*
D03*
Y502501D02*
D03*
X879786Y420001D02*
D03*
Y350001D02*
D03*
X855214Y980002D02*
D03*
X1065214Y415000D02*
D03*
X1065214Y365000D02*
D03*
X170214Y1485000D02*
D03*
X332286Y787500D02*
D03*
Y750000D02*
D03*
Y775000D02*
D03*
X520214Y155000D02*
D03*
Y140000D02*
D03*
X90214Y1220000D02*
D03*
X535214Y950002D02*
D03*
X855214Y1090002D02*
D03*
Y1230002D02*
D03*
Y1375002D02*
D03*
Y1510002D02*
D03*
X544786Y1120002D02*
D03*
X864786Y980002D02*
D03*
X870214Y350001D02*
D03*
Y420001D02*
D03*
X689786Y502501D02*
D03*
Y530001D02*
D03*
X870214Y30001D02*
D03*
Y100001D02*
D03*
Y260002D02*
D03*
Y190002D02*
D03*
X689786Y22501D02*
D03*
Y50002D02*
D03*
X710214Y100001D02*
D03*
Y260002D02*
D03*
X689786Y182502D02*
D03*
Y342501D02*
D03*
Y370001D02*
D03*
Y210002D02*
D03*
X710214Y420001D02*
D03*
Y580001D02*
D03*
X870214Y510001D02*
D03*
Y580001D02*
D03*
D38*
X450000Y709786D02*
D03*
X425000D02*
D03*
X465000D02*
D03*
X457500Y572286D02*
D03*
X420000D02*
D03*
X445000D02*
D03*
X65000Y445214D02*
D03*
Y325214D02*
D03*
X237502Y445214D02*
D03*
Y432286D02*
D03*
Y400214D02*
D03*
Y352714D02*
D03*
Y375214D02*
D03*
Y330214D02*
D03*
X222502Y400214D02*
D03*
Y432286D02*
D03*
Y375214D02*
D03*
Y352714D02*
D03*
X152501Y445214D02*
D03*
X137501D02*
D03*
X122501D02*
D03*
X137501Y367286D02*
D03*
X122501D02*
D03*
Y330214D02*
D03*
X450000Y700214D02*
D03*
X425000D02*
D03*
X465000D02*
D03*
X457500Y562714D02*
D03*
X420000D02*
D03*
X445000D02*
D03*
X65000Y454786D02*
D03*
Y394786D02*
D03*
Y385214D02*
D03*
Y334786D02*
D03*
X122501Y339786D02*
D03*
Y454786D02*
D03*
X237502Y339786D02*
D03*
X222502Y384786D02*
D03*
Y362286D02*
D03*
X207502Y400214D02*
D03*
X237502Y362286D02*
D03*
Y384786D02*
D03*
Y454786D02*
D03*
X122501Y357714D02*
D03*
X207502Y409786D02*
D03*
X137501Y357714D02*
D03*
X222502Y409786D02*
D03*
X237502D02*
D03*
X222502Y422714D02*
D03*
X137501Y454786D02*
D03*
X152501D02*
D03*
X237502Y422714D02*
D03*
D39*
X163750Y1175000D02*
D03*
X31250Y1175000D02*
D03*
Y1115000D02*
D03*
X106250Y1175000D02*
D03*
X88750Y1175000D02*
D03*
Y1115000D02*
D03*
D40*
X30750Y995000D02*
D03*
Y935000D02*
D03*
X30750Y1055000D02*
D03*
X89250Y995000D02*
D03*
Y935000D02*
D03*
X89250Y1055000D02*
D03*
D41*
X170000Y1000750D02*
D03*
X290000Y1134250D02*
D03*
X230000D02*
D03*
X170000Y1059250D02*
D03*
X290000Y1075750D02*
D03*
X230000D02*
D03*
D46*
X220000Y1338256D02*
D03*
Y1361747D02*
D03*
Y1388256D02*
D03*
Y1311747D02*
D03*
D47*
X350000Y1134250D02*
D03*
X410000D02*
D03*
X350000Y1075750D02*
D03*
X410000D02*
D03*
D48*
X170000Y1133750D02*
D03*
Y1076250D02*
D03*
D60*
X865000Y663251D02*
D03*
Y738251D02*
D03*
X860000D02*
D03*
X855000D02*
D03*
Y751751D02*
D03*
X860000D02*
D03*
X865000D02*
D03*
X860000Y663251D02*
D03*
X855000D02*
D03*
Y676751D02*
D03*
X860000D02*
D03*
X865000D02*
D03*
D64*
X761665Y705002D02*
D03*
X903335Y235002D02*
D03*
Y75002D02*
D03*
Y465001D02*
D03*
Y305002D02*
D03*
Y145001D02*
D03*
X761665Y780002D02*
D03*
X903335Y395001D02*
D03*
X788335Y780002D02*
D03*
Y705002D02*
D03*
X876665Y305002D02*
D03*
Y395001D02*
D03*
Y235002D02*
D03*
Y465001D02*
D03*
X903335Y555001D02*
D03*
X876665D02*
D03*
Y145001D02*
D03*
Y625001D02*
D03*
X903335D02*
D03*
X876665Y75002D02*
D03*
D67*
X796839Y340951D02*
D03*
Y180951D02*
D03*
Y250951D02*
D03*
Y20951D02*
D03*
Y90951D02*
D03*
Y410951D02*
D03*
Y500951D02*
D03*
Y570951D02*
D03*
D74*
X796100Y925501D02*
D03*
Y885501D02*
D03*
X779100Y911751D02*
D03*
Y918251D02*
D03*
Y924752D02*
D03*
X796100Y919001D02*
D03*
Y912502D02*
D03*
Y906002D02*
D03*
Y879001D02*
D03*
Y872502D02*
D03*
Y866002D02*
D03*
X779100Y871751D02*
D03*
Y878251D02*
D03*
Y884752D02*
D03*
Y865251D02*
D03*
Y905251D02*
D03*
X881000Y770627D02*
D03*
Y777126D02*
D03*
Y783626D02*
D03*
Y790126D02*
D03*
Y695627D02*
D03*
Y702126D02*
D03*
Y708626D02*
D03*
Y715126D02*
D03*
D75*
X857098Y780002D02*
D03*
X812902D02*
D03*
X857098Y705002D02*
D03*
X812902D02*
D03*
D83*
X732500Y961000D02*
D03*
X35000Y383500D02*
D03*
X915000Y1223500D02*
D03*
Y1401500D02*
D03*
X785000Y976000D02*
D03*
Y989000D02*
D03*
X115000Y266500D02*
D03*
Y253500D02*
D03*
X347500Y773500D02*
D03*
Y786500D02*
D03*
X717500Y961000D02*
D03*
Y948000D02*
D03*
X785000Y948500D02*
D03*
Y961500D02*
D03*
X732500Y948000D02*
D03*
X565000Y98500D02*
D03*
Y111500D02*
D03*
X550000Y98500D02*
D03*
Y111500D02*
D03*
X535000Y98500D02*
D03*
Y111500D02*
D03*
X520000Y98500D02*
D03*
Y111500D02*
D03*
X505000Y98500D02*
D03*
Y111500D02*
D03*
X490000Y98500D02*
D03*
Y111500D02*
D03*
X35000Y443500D02*
D03*
Y456500D02*
D03*
X50000Y456500D02*
D03*
Y443500D02*
D03*
Y396500D02*
D03*
Y383500D02*
D03*
X35000Y396500D02*
D03*
X35000Y336500D02*
D03*
Y323500D02*
D03*
X50000Y336500D02*
D03*
Y323500D02*
D03*
X915000Y1236500D02*
D03*
Y1388500D02*
D03*
X900000Y751501D02*
D03*
Y738502D02*
D03*
X885000Y738502D02*
D03*
Y751501D02*
D03*
Y663502D02*
D03*
Y676501D02*
D03*
X900000Y676501D02*
D03*
Y663502D02*
D03*
X692500Y408502D02*
D03*
Y421502D02*
D03*
Y248501D02*
D03*
Y261502D02*
D03*
Y88502D02*
D03*
Y101502D02*
D03*
Y568502D02*
D03*
Y581502D02*
D03*
D84*
X925000Y526600D02*
D03*
Y596600D02*
D03*
Y366600D02*
D03*
Y436600D02*
D03*
Y206600D02*
D03*
Y276600D02*
D03*
Y116600D02*
D03*
Y46600D02*
D03*
X572500Y473400D02*
D03*
X582500D02*
D03*
X592500D02*
D03*
X532500D02*
D03*
X542500D02*
D03*
X552500D02*
D03*
X562500D02*
D03*
X552500Y646600D02*
D03*
X542500D02*
D03*
X532500D02*
D03*
X592500D02*
D03*
X582500D02*
D03*
X572500D02*
D03*
X562500D02*
D03*
X455000Y583400D02*
D03*
X445000D02*
D03*
X435000D02*
D03*
X425000D02*
D03*
Y536600D02*
D03*
X435000D02*
D03*
X445000D02*
D03*
X455000D02*
D03*
X495000Y981601D02*
D03*
X815000Y1121601D02*
D03*
Y1261601D02*
D03*
Y1401602D02*
D03*
Y1541602D02*
D03*
X585000Y1088401D02*
D03*
X562500Y421601D02*
D03*
X572500D02*
D03*
X582500D02*
D03*
X592500D02*
D03*
X532500D02*
D03*
X542500D02*
D03*
X552500D02*
D03*
X562500Y248402D02*
D03*
X552500D02*
D03*
X542500D02*
D03*
X532500D02*
D03*
X592500D02*
D03*
X582500D02*
D03*
X572500D02*
D03*
X925000Y513400D02*
D03*
Y583400D02*
D03*
Y353400D02*
D03*
Y423400D02*
D03*
Y193400D02*
D03*
Y263400D02*
D03*
Y103400D02*
D03*
Y33400D02*
D03*
X572500Y486600D02*
D03*
X582500D02*
D03*
X592500D02*
D03*
X532500D02*
D03*
X542500D02*
D03*
X552500D02*
D03*
X562500D02*
D03*
X552500Y633400D02*
D03*
X542500D02*
D03*
X532500D02*
D03*
X592500D02*
D03*
X582500D02*
D03*
X572500D02*
D03*
X562500D02*
D03*
X455000Y596600D02*
D03*
X445000D02*
D03*
X435000D02*
D03*
X425000D02*
D03*
Y523400D02*
D03*
X435000D02*
D03*
X445000D02*
D03*
X455000D02*
D03*
X495000Y968401D02*
D03*
X815000Y1108401D02*
D03*
Y1248401D02*
D03*
Y1388401D02*
D03*
Y1528401D02*
D03*
X585000Y1101601D02*
D03*
X562500Y408401D02*
D03*
X572500D02*
D03*
X582500D02*
D03*
X592500D02*
D03*
X532500D02*
D03*
X542500D02*
D03*
X552500D02*
D03*
X562500Y261602D02*
D03*
X552500D02*
D03*
X542500D02*
D03*
X532500D02*
D03*
X592500D02*
D03*
X582500D02*
D03*
X572500D02*
D03*
D85*
X803400Y1010000D02*
D03*
X311600Y785000D02*
D03*
Y775000D02*
D03*
Y765000D02*
D03*
Y755000D02*
D03*
X358400D02*
D03*
Y765000D02*
D03*
Y775000D02*
D03*
Y785000D02*
D03*
X499100Y710000D02*
D03*
Y690000D02*
D03*
Y700000D02*
D03*
Y680000D02*
D03*
Y640000D02*
D03*
Y650000D02*
D03*
Y660000D02*
D03*
Y670000D02*
D03*
X816600Y1010000D02*
D03*
X298400Y785000D02*
D03*
Y775000D02*
D03*
Y765000D02*
D03*
Y755000D02*
D03*
X371600D02*
D03*
Y765000D02*
D03*
Y775000D02*
D03*
Y785000D02*
D03*
X485900Y710000D02*
D03*
Y690000D02*
D03*
Y700000D02*
D03*
Y680000D02*
D03*
Y640000D02*
D03*
Y650000D02*
D03*
Y660000D02*
D03*
Y670000D02*
D03*
D91*
X720250Y558002D02*
D03*
X733250Y502001D02*
D03*
X720250Y238001D02*
D03*
X733250Y182001D02*
D03*
Y22002D02*
D03*
X720250Y78001D02*
D03*
Y398002D02*
D03*
X733250Y342001D02*
D03*
X720250D02*
D03*
X707250Y398002D02*
D03*
X726750D02*
D03*
X733250D02*
D03*
X739750D02*
D03*
X746250D02*
D03*
X752750D02*
D03*
X707250Y342001D02*
D03*
X713750D02*
D03*
X726750D02*
D03*
X739750D02*
D03*
X746250D02*
D03*
X752750D02*
D03*
X713750Y398002D02*
D03*
X720250Y22002D02*
D03*
X707250Y78001D02*
D03*
X726750D02*
D03*
X733250D02*
D03*
X739750D02*
D03*
X746250D02*
D03*
X752750D02*
D03*
X707250Y22002D02*
D03*
X713750D02*
D03*
X726750D02*
D03*
X739750D02*
D03*
X746250D02*
D03*
X752750D02*
D03*
X713750Y78001D02*
D03*
X720250Y182001D02*
D03*
X707250Y238001D02*
D03*
X726750D02*
D03*
X733250D02*
D03*
X739750D02*
D03*
X746250D02*
D03*
X752750D02*
D03*
X707250Y182001D02*
D03*
X713750D02*
D03*
X726750D02*
D03*
X739750D02*
D03*
X746250D02*
D03*
X752750D02*
D03*
X713750Y238001D02*
D03*
X752750Y502001D02*
D03*
X746250D02*
D03*
X739750D02*
D03*
X726750D02*
D03*
X720250D02*
D03*
X713750D02*
D03*
X707250D02*
D03*
X752750Y558002D02*
D03*
X746250D02*
D03*
X739750D02*
D03*
X726750D02*
D03*
X707250D02*
D03*
X733250D02*
D03*
X713750D02*
D03*
D92*
X803500Y995000D02*
D03*
X54000Y1250000D02*
D03*
X243500Y270000D02*
D03*
X906500Y600001D02*
D03*
Y530001D02*
D03*
Y280002D02*
D03*
Y120001D02*
D03*
Y210002D02*
D03*
Y50002D02*
D03*
Y440001D02*
D03*
Y370001D02*
D03*
X803500Y660001D02*
D03*
X803500Y675002D02*
D03*
Y750002D02*
D03*
X803500Y735002D02*
D03*
X723500Y845000D02*
D03*
X466500Y685000D02*
D03*
X453500D02*
D03*
X803500Y980000D02*
D03*
X816500D02*
D03*
Y995000D02*
D03*
X866500Y965000D02*
D03*
X853500D02*
D03*
X853500Y1245000D02*
D03*
X866500D02*
D03*
X41000Y1250000D02*
D03*
X54000Y1265000D02*
D03*
X41000D02*
D03*
X443500Y547500D02*
D03*
X456500D02*
D03*
X54000Y1235000D02*
D03*
X41000D02*
D03*
X88500D02*
D03*
X101500D02*
D03*
X546500Y965000D02*
D03*
X533500D02*
D03*
X866500Y1105000D02*
D03*
X853500D02*
D03*
X866500Y1390000D02*
D03*
X853500D02*
D03*
Y1525000D02*
D03*
X866500D02*
D03*
X546500Y980000D02*
D03*
X533500D02*
D03*
X866500Y1120000D02*
D03*
X853500D02*
D03*
X866500Y1215000D02*
D03*
X853500D02*
D03*
X866500Y1405000D02*
D03*
X853500D02*
D03*
X816500Y1510000D02*
D03*
X803500D02*
D03*
X533500Y1105000D02*
D03*
X546500D02*
D03*
X533500Y1090000D02*
D03*
X546500D02*
D03*
X306500Y270000D02*
D03*
X293500D02*
D03*
Y250000D02*
D03*
X306500D02*
D03*
X256500Y270000D02*
D03*
X243500Y250000D02*
D03*
X256500D02*
D03*
X866500Y950002D02*
D03*
X853500D02*
D03*
X736500Y845000D02*
D03*
X828500Y750002D02*
D03*
X841500D02*
D03*
X828500Y735002D02*
D03*
X841500D02*
D03*
X816500D02*
D03*
X816500Y750002D02*
D03*
Y675002D02*
D03*
X816500Y660001D02*
D03*
X828500D02*
D03*
X841500D02*
D03*
X828500Y675002D02*
D03*
X841500D02*
D03*
X906500Y420001D02*
D03*
X893500D02*
D03*
X893500Y370001D02*
D03*
Y440001D02*
D03*
X893500Y510001D02*
D03*
X906500D02*
D03*
X881500Y440001D02*
D03*
X868500D02*
D03*
Y530001D02*
D03*
X881500D02*
D03*
X678500Y550001D02*
D03*
X691500D02*
D03*
X906500Y30001D02*
D03*
X893500D02*
D03*
X906500Y100001D02*
D03*
X893500D02*
D03*
X881500Y50002D02*
D03*
X868500D02*
D03*
X881500Y120001D02*
D03*
X868500D02*
D03*
X893500Y50002D02*
D03*
X906500Y190002D02*
D03*
X893500D02*
D03*
X881500Y210002D02*
D03*
X868500D02*
D03*
X893500D02*
D03*
Y120001D02*
D03*
X906500Y260002D02*
D03*
X893500D02*
D03*
X893500Y280002D02*
D03*
X906500Y350001D02*
D03*
X893500D02*
D03*
X881500Y280002D02*
D03*
X868500D02*
D03*
X881500Y370001D02*
D03*
X868500D02*
D03*
X678500Y70002D02*
D03*
X691500D02*
D03*
X678500Y230002D02*
D03*
X691500D02*
D03*
X678500Y390001D02*
D03*
X691500D02*
D03*
X906500Y580001D02*
D03*
X893500D02*
D03*
X881500Y600001D02*
D03*
X868500D02*
D03*
X893500Y530001D02*
D03*
Y600001D02*
D03*
D102*
X555000Y215000D02*
D03*
Y205000D02*
D03*
X480000Y215000D02*
D03*
Y205000D02*
D03*
X495000Y215000D02*
D03*
Y205000D02*
D03*
X510000Y215000D02*
D03*
Y205000D02*
D03*
X540000Y215000D02*
D03*
Y205000D02*
D03*
X570000Y215000D02*
D03*
Y205000D02*
D03*
D105*
X1005500Y885002D02*
D03*
Y1455002D02*
D03*
Y105001D02*
D03*
Y675002D02*
D03*
D106*
X960500Y950002D02*
D03*
Y170002D02*
D03*
D107*
Y990002D02*
D03*
Y1110002D02*
D03*
Y1150002D02*
D03*
Y1190002D02*
D03*
Y1230002D02*
D03*
Y1270002D02*
D03*
Y1310002D02*
D03*
Y1350002D02*
D03*
Y1390002D02*
D03*
X1000500Y970002D02*
D03*
Y1010002D02*
D03*
Y1210002D02*
D03*
Y1250002D02*
D03*
Y1290002D02*
D03*
X1040500Y950002D02*
D03*
Y990002D02*
D03*
Y1110002D02*
D03*
Y1150002D02*
D03*
Y1190002D02*
D03*
Y1230002D02*
D03*
Y1270002D02*
D03*
Y1310002D02*
D03*
Y1350002D02*
D03*
Y1390002D02*
D03*
X960500Y1030002D02*
D03*
Y1070002D02*
D03*
X1000500Y1050002D02*
D03*
Y1090002D02*
D03*
Y1130002D02*
D03*
Y1170002D02*
D03*
Y1330002D02*
D03*
Y1370002D02*
D03*
X1040500Y1030002D02*
D03*
Y1070002D02*
D03*
X1000500Y230002D02*
D03*
Y270002D02*
D03*
Y310002D02*
D03*
Y350001D02*
D03*
Y390001D02*
D03*
Y430001D02*
D03*
Y470001D02*
D03*
Y510001D02*
D03*
X1040500Y290002D02*
D03*
Y330001D02*
D03*
Y450001D02*
D03*
Y490001D02*
D03*
Y530001D02*
D03*
X960500Y210002D02*
D03*
Y250002D02*
D03*
Y290002D02*
D03*
Y330001D02*
D03*
Y370001D02*
D03*
Y410001D02*
D03*
Y450001D02*
D03*
Y490001D02*
D03*
Y530001D02*
D03*
Y570001D02*
D03*
Y610001D02*
D03*
X1000500Y190002D02*
D03*
Y550001D02*
D03*
Y590001D02*
D03*
X1040500Y170002D02*
D03*
Y210002D02*
D03*
Y250002D02*
D03*
Y370001D02*
D03*
Y410001D02*
D03*
Y570001D02*
D03*
Y610001D02*
D03*
D108*
X867500Y912001D02*
D03*
Y878001D02*
D03*
X522500D02*
D03*
Y912001D02*
D03*
X657500D02*
D03*
Y878001D02*
D03*
X867500Y1052001D02*
D03*
Y1018001D02*
D03*
X732500D02*
D03*
Y1052001D02*
D03*
X867500Y1192001D02*
D03*
Y1158001D02*
D03*
X732500D02*
D03*
Y1192001D02*
D03*
X867500Y1332001D02*
D03*
Y1298002D02*
D03*
X732500D02*
D03*
Y1332001D02*
D03*
Y1472001D02*
D03*
Y1438002D02*
D03*
X867500D02*
D03*
Y1472001D02*
D03*
X522500Y1018001D02*
D03*
Y1052001D02*
D03*
X657500D02*
D03*
Y1018001D02*
D03*
X732500Y878001D02*
D03*
Y912001D02*
D03*
D110*
X670000Y1130000D02*
D03*
X470000Y780000D02*
D03*
X980000Y40000D02*
D03*
X40000Y260000D02*
D03*
Y780000D02*
D03*
Y1520002D02*
D03*
X980000Y1520000D02*
D03*
X990000Y780000D02*
D03*
D123*
X915000Y1357500D02*
D03*
Y1267500D02*
D03*
Y1252500D02*
D03*
Y1372500D02*
D03*
D124*
X890000Y1355000D02*
D03*
Y1240000D02*
D03*
Y1385000D02*
D03*
Y1270000D02*
D03*
D125*
X700000Y1358898D02*
D03*
X765000D02*
D03*
X700000Y1218898D02*
D03*
X765000D02*
D03*
Y1411102D02*
D03*
X700000D02*
D03*
X765000Y1271102D02*
D03*
X700000D02*
D03*
D126*
X81000Y1460000D02*
D03*
D127*
X139000D02*
D03*
Y1437000D02*
D03*
Y1483000D02*
D03*
D128*
X175000Y1467000D02*
D03*
Y1437000D02*
D03*
D132*
X1080000Y390000D02*
D03*
X1060000Y396500D02*
D03*
Y383500D02*
D03*
D134*
X470000Y116000D02*
D03*
Y94000D02*
D03*
X665000Y716000D02*
D03*
Y694000D02*
D03*
X600000Y716000D02*
D03*
Y694000D02*
D03*
Y756000D02*
D03*
Y734000D02*
D03*
X632500Y716000D02*
D03*
Y694000D02*
D03*
D135*
X878250Y845000D02*
D03*
D136*
X841750D02*
D03*
D140*
X750500Y961500D02*
D03*
Y948500D02*
D03*
X769500Y955000D02*
D03*
D141*
X505000Y173500D02*
D03*
Y186500D02*
D03*
X545000Y173500D02*
D03*
Y186500D02*
D03*
D142*
X540000Y173500D02*
D03*
Y186500D02*
D03*
X515000Y173500D02*
D03*
X510000D02*
D03*
X500000D02*
D03*
X495000D02*
D03*
X515000Y186500D02*
D03*
X510000D02*
D03*
X500000D02*
D03*
X495000D02*
D03*
X555000Y173500D02*
D03*
X550000D02*
D03*
X535000D02*
D03*
X555000Y186500D02*
D03*
X550000D02*
D03*
X535000D02*
D03*
D143*
X712000Y600001D02*
D03*
Y280002D02*
D03*
Y120001D02*
D03*
Y440001D02*
D03*
X698000D02*
D03*
Y120001D02*
D03*
Y280002D02*
D03*
Y600001D02*
D03*
D144*
X786350Y845002D02*
D03*
X753650D02*
D03*
D145*
X405000Y905000D02*
D03*
X285000D02*
D03*
M02*
