M48
;Layer_Color=9474304
;FILE_FORMAT=4:4
METRIC,LZ
;TYPE=PLATED
T1F00S00C0.7000
T2F00S00C0.7112
T3F00S00C1.0200
T4F00S00C1.1000
T5F00S00C2.5000
;TYPE=NON_PLATED
T6F00S00C3.0000
%
T01
X0060409Y00467075
X0065289
T02
X00506343Y00428
X00506592Y004965
X00666Y00621
X00677566Y00677
X0070125Y00664
X0073Y00598
X00650345Y00710355
T03
X0079649Y0069874
X0082649
Y0072874
X0079649
X005812Y0072898
Y0069898
X005512
Y0072898
X005512Y0058396
Y0055396
T04
X0090297Y0042291
Y0044831
Y0047371
Y0049911
Y0052451
Y0054991
Y0057531
Y0060071
Y0062611
T05
X008Y006
X0068Y0075
X00545Y0047
T06
X0086969Y0071374
X00508Y0071398
Y0056896
M30
