M48
;Layer_Color=9474304
;FILE_FORMAT=4:4
METRIC,LZ
;TYPE=PLATED
T1F00S00C0.7000
T2F00S00C0.7112
T3F00S00C1.0200
T4F00S00C1.8000
T5F00S00C1.8034
T6F00S00C3.2000
;TYPE=NON_PLATED
T7F00S00C1.0200
T8F00S00C1.8000
T9F00S00C2.9972
T10F00S00C3.0000
%
T01
X00274Y006521
Y007009
X00705Y0070465
Y0065585
T02
X0139061Y00174362
X01360892Y00210176
X01343182Y00282476
X01346922Y00307966
X01383752
X01379942Y00330826
X014Y003305
X01403Y002725
X01380012Y00282476
X0131Y0027525
X01321816Y00260858
X01244052Y00259794
X0120523Y00310388
X01194562Y00322834
X01175258Y0032258
X01164176Y00309706
X01142656Y00331206
X01146396Y00356696
X01142586Y00379556
X01109566Y00356696
X01105826Y00331206
X01084166Y00309706
X01072Y0032025
X01029422Y00308054
X01025612Y00330914
X01025682Y00282564
X0105375Y0027475
X01047202Y00261064
X01123536Y00258906
X00988852Y00282564
X00992592Y00308054
X009585Y002725
X00967192Y00261064
X01006562Y00210264
X0103975Y0017575
X01226342Y00332094
X01230082Y00357584
X01266912
X01263102Y00380444
X01263172Y00332094
X01284692Y00310594
X0129925Y003195
X0113918Y00452318
X01150096Y00489592
X0107146Y00509436
X00865886Y00538774
X008441Y005349
Y004841
Y004587
X007859Y004841
Y005095
Y005349
X0074083Y0052875
X0072125Y00509248
X0075786Y0047
X00757453Y00355982
X00753713Y00330492
X00790543
X00794283Y00355982
X00790473Y00378842
X00810768Y00309372
X008255Y003185
X008365Y0027075
X00848506Y00261119
X00870166Y00282619
X00873906Y00308109
X00910736
X00906926Y00330969
X00906996Y00282619
X009271Y0026162
X0093925Y0027175
X00887876Y00210319
X00917848Y0017389
X00771423Y00258192
X00732053Y00308992
X00722884Y00323088
X00702056Y00323596
X00691388Y0030861
X0067103Y00330064
X0067477Y00355554
X0067096Y00378414
X0063794Y00355554
X006342Y00330064
X0061254Y00308564
X005969Y00313182
X0055666Y00308564
X0055285Y00331424
X0055292Y00283074
X0057444Y00261574
X0058909Y00274384
X0065191Y00257764
X0056625Y0017675
X00553Y00448
X005996Y004442
X0053975Y00474
X005141Y0048386
Y004587
Y005095
Y005349
X004559
Y005095
Y0048386
Y004587
X004141
X004141Y0048408
X004141Y005349
X003559
Y005095
Y004841
X003005Y0050525
X003115Y005265
X0031725Y003795
X00321125Y00357352
X00317385Y00331862
X00280555
X00284295Y00357352
X0024925Y0032375
X00260135Y003105
X0023Y00314
X00216692Y0030975
X00196602Y0033128
X00200342Y0035677
X00196532Y0037963
X00163512Y0035677
X00159772Y0033128
X00177482Y0025898
X00298265Y00259562
X003635Y00266
X0037725Y0026225
X00397395Y00283602
X00401135Y00309092
X00437965
X00434155Y00331952
X00434225Y00283602
X0046575Y0027625
X0048425Y0027525
X0049443Y00261574
X00454406Y00262128
X0051609Y00283074
X0051983Y00308564
X005338Y00210774
X00415105Y00211302
X00447Y0017725
X00351421Y00314377
X00338Y003105
X001696Y004442
X000841Y004587
Y004841
Y005095
Y005349
X000259
Y005095
Y004841
Y004587
X0002544Y00327737
X0004718Y0030861
X0004374Y0028312
X0002032Y00278892
X0008027Y0028312
X0008401Y0030861
X000802Y0033147
X00126Y00314
X00139225Y003095
X0012319Y0026416
X0010033Y00261366
X0006115Y0021082
X0009417Y0017526
X000841Y005603
Y005857
Y006111
Y006365
Y006619
Y006873
Y007127
Y007381
Y007635
Y007889
Y008143
Y008397
X000259
Y008651
Y009159
X000841
X000259Y008143
Y007889
Y007635
Y007381
Y007127
Y006873
Y006619
Y006365
Y006111
Y005857
Y005603
X00135Y0073714
X00194Y007585
X0020775Y0077825
X003559Y007889
Y007635
Y0073814
Y007127
Y006873
Y006619
Y006365
Y006111
Y005857
Y005603
X003225Y00561719
X002825Y0058425
X002795Y006065
X00245252
X002425Y00560719
X004141Y005603
Y005857
Y006111
Y006365
Y006619
Y006873
Y007127
Y0073814
Y007635
Y007889
Y008143
Y008397
X004559
Y008143
Y007889
Y007635
Y007381
Y007127
Y006873
Y006619
Y006365
Y006111
Y005857
Y005603
X005141
Y00585743
Y006111
Y0063664
Y006619
Y0068732
Y007127
Y007381
Y007635
Y007889
Y00814578
Y008397
Y009159
X004559
Y008651
X003559Y008397
Y008143
X00311Y006765
X0056575Y00714
X005545Y00789
X00638Y0078925
X0062325Y00764
X007435Y007915
X007859Y007889
Y007635
Y007381
Y007127
Y0068732
Y006619
Y006365
Y006111
Y005857
Y005603
X0075175Y00563719
X0071175Y0058625
X007105Y0061025
X00676Y0061025
X0067175Y0056314
X008441Y005603
Y005857
Y006111
Y006365
Y0066186
Y006873
Y007127
Y007381
Y007635
Y007889
Y008143
Y008397
X007859
Y0081439
X00742Y0068011
X00898271Y00637032
X00919734Y0058801
X00965962Y00604012
X0098552Y00584454
X00998982Y00592836
X0103315Y0058075
X0103265Y0054396
X01051Y00607
X01017Y00644
X010192Y00673125
Y0071
X00945896Y00637032
X005141Y009413
X004559
X000841
X000259
T03
X00895Y009068
X00925
T04
X011211Y00144492
Y00186492
X011631
Y00144492
X012051
Y00186492
X012471
Y00144492
X0123577Y00457
Y00499
X0127777
Y00457
X0077439Y0018685
X0073239
Y0014485
X0077439
X0069039
Y0018685
X0064839
Y0014485
X0030145
X0025945
Y0018685
X0030145
X0021745
Y0014485
X0017545
Y0018685
X0123577Y00541
Y00583
X0127777
Y00541
X0130652Y0081288
Y0085488
X012393
X011973
X011553
Y0081288
X011973
X012393
X0108808
Y0085488
X0104608
X0100408
Y0081288
X0104608
X0134852
Y0085488
X0139052
Y0081288
T05
X01222234Y00649295
Y00691205
X01277352
Y00649295
T06
X0008Y0008
X0134
X0015Y0092
X0074
T07
X008023Y004587
Y004841
Y005095
Y005349
X008277
Y005095
Y004841
Y004587
X004977
X004723
Y004841
Y005095
Y005349
X004977
Y005095
Y004841
X003977
X003723
Y005095
Y005349
X003977
Y005095
Y004587
X003723
X000677
X000423
Y004841
Y005095
Y005349
X000677
Y005095
Y004841
Y005603
X000423
Y005857
Y006111
Y006365
Y006619
Y006873
Y007127
Y007381
Y007635
Y007889
Y008143
Y008397
Y008651
Y008905
Y009159
X000677
Y008905
Y008651
Y008397
Y008143
Y007889
Y007635
Y007381
Y007127
Y006873
Y006619
Y006365
Y006111
Y005857
X003723
Y006111
Y006365
Y006619
Y006873
Y007127
Y007381
Y007635
Y007889
Y008143
Y008397
Y008651
Y008905
Y009159
X003977
Y008905
Y008651
Y008397
Y008143
Y007889
Y007635
Y007381
Y007127
Y006873
Y006619
Y006365
Y006111
Y005857
Y005603
X003723
X004723
Y005857
Y006111
Y006365
Y006619
Y006873
Y007127
Y007381
Y007635
Y007889
Y008143
Y008397
Y008651
Y008905
Y009159
X004977
Y008905
Y008651
Y008397
Y008143
Y007889
Y007635
Y007381
Y007127
Y006873
Y006619
Y006365
Y006111
Y005857
Y005603
X008023
Y005857
Y006111
Y006365
Y006619
Y006873
Y007127
Y007381
Y007635
Y007889
Y008143
Y008397
Y008651
Y008905
Y009159
X008277
Y008905
Y008651
Y008397
Y008143
Y007889
Y007635
Y007381
Y007127
Y006873
Y006619
Y006365
Y006111
Y005857
Y005603
Y009413
X008023
X004977
X004723
X003977
X003723
X000677
X000423
T08
X00815Y004714
X00485
X00385
X00055
Y009286
X00385
X00485
X00815
T09
X0135025Y0067025
T10
X0017545Y0007185
X0030145
X0064839
X0077439
X011211Y00071492
X012471
X0135077Y00457
X0130652Y0092788
X012393
X011553
X0108808
X0100408
X0139052
X0135077Y00583
X0091Y0095
M30
