G04*
G04 #@! TF.GenerationSoftware,Altium Limited,Altium Designer,25.6.2 (33)*
G04*
G04 Layer_Color=8388736*
%FSLAX44Y44*%
%MOMM*%
G71*
G04*
G04 #@! TF.SameCoordinates,8C2F84DF-90BC-4741-85DC-F4CD892757E3*
G04*
G04*
G04 #@! TF.FilePolarity,Negative*
G04*
G01*
G75*
%ADD16R,5.3000X2.0000*%
%ADD18R,0.6725X0.7154*%
%ADD19R,1.2000X1.4000*%
%ADD24R,0.6000X1.6500*%
%ADD25R,0.6000X1.8500*%
G04:AMPARAMS|DCode=27|XSize=0.565mm|YSize=0.2mm|CornerRadius=0.05mm|HoleSize=0mm|Usage=FLASHONLY|Rotation=270.000|XOffset=0mm|YOffset=0mm|HoleType=Round|Shape=RoundedRectangle|*
%AMROUNDEDRECTD27*
21,1,0.5650,0.1000,0,0,270.0*
21,1,0.4650,0.2000,0,0,270.0*
1,1,0.1000,-0.0500,-0.2325*
1,1,0.1000,-0.0500,0.2325*
1,1,0.1000,0.0500,0.2325*
1,1,0.1000,0.0500,-0.2325*
%
%ADD27ROUNDEDRECTD27*%
%ADD28R,0.6400X1.0200*%
%ADD29R,0.6500X2.6500*%
%ADD30R,1.4562X1.2546*%
%ADD33R,1.0000X0.7000*%
%ADD34R,1.2500X2.0000*%
G04:AMPARAMS|DCode=35|XSize=1.1mm|YSize=0.95mm|CornerRadius=0.175mm|HoleSize=0mm|Usage=FLASHONLY|Rotation=270.000|XOffset=0mm|YOffset=0mm|HoleType=Round|Shape=RoundedRectangle|*
%AMROUNDEDRECTD35*
21,1,1.1000,0.6000,0,0,270.0*
21,1,0.7500,0.9500,0,0,270.0*
1,1,0.3500,-0.3000,-0.3750*
1,1,0.3500,-0.3000,0.3750*
1,1,0.3500,0.3000,0.3750*
1,1,0.3500,0.3000,-0.3750*
%
%ADD35ROUNDEDRECTD35*%
G04:AMPARAMS|DCode=36|XSize=1.1mm|YSize=0.95mm|CornerRadius=0.175mm|HoleSize=0mm|Usage=FLASHONLY|Rotation=0.000|XOffset=0mm|YOffset=0mm|HoleType=Round|Shape=RoundedRectangle|*
%AMROUNDEDRECTD36*
21,1,1.1000,0.6000,0,0,0.0*
21,1,0.7500,0.9500,0,0,0.0*
1,1,0.3500,0.3750,-0.3000*
1,1,0.3500,-0.3750,-0.3000*
1,1,0.3500,-0.3750,0.3000*
1,1,0.3500,0.3750,0.3000*
%
%ADD36ROUNDEDRECTD36*%
%ADD37R,3.2500X3.2500*%
%ADD38O,0.4000X1.0000*%
%ADD39O,1.0000X0.4000*%
%ADD40R,0.9500X0.6500*%
G04:AMPARAMS|DCode=41|XSize=0.565mm|YSize=0.4mm|CornerRadius=0.05mm|HoleSize=0mm|Usage=FLASHONLY|Rotation=270.000|XOffset=0mm|YOffset=0mm|HoleType=Round|Shape=RoundedRectangle|*
%AMROUNDEDRECTD41*
21,1,0.5650,0.3000,0,0,270.0*
21,1,0.4650,0.4000,0,0,270.0*
1,1,0.1000,-0.1500,-0.2325*
1,1,0.1000,-0.1500,0.2325*
1,1,0.1000,0.1500,0.2325*
1,1,0.1000,0.1500,-0.2325*
%
%ADD41ROUNDEDRECTD41*%
%ADD42R,1.4500X0.8500*%
%ADD43R,0.7500X1.3500*%
%ADD44C,2.6900*%
%ADD45C,2.0550*%
%ADD46C,0.6500*%
D16*
X37500Y255500D02*
D03*
Y189500D02*
D03*
D18*
X340000Y165214D02*
D03*
Y174786D02*
D03*
X102500Y117286D02*
D03*
Y107714D02*
D03*
X117500Y117286D02*
D03*
Y107714D02*
D03*
X172500Y117286D02*
D03*
Y107714D02*
D03*
X187500Y117286D02*
D03*
Y107714D02*
D03*
X137500Y117286D02*
D03*
Y107714D02*
D03*
X157500Y224786D02*
D03*
Y215214D02*
D03*
X152500Y117286D02*
D03*
Y107714D02*
D03*
X142500Y224786D02*
D03*
Y215214D02*
D03*
X200000Y224786D02*
D03*
Y215214D02*
D03*
Y190214D02*
D03*
Y199786D02*
D03*
X315000Y119786D02*
D03*
Y110214D02*
D03*
X385000Y119786D02*
D03*
Y110214D02*
D03*
X322500Y60214D02*
D03*
Y69786D02*
D03*
X377500Y60214D02*
D03*
Y69786D02*
D03*
D19*
X221500Y199000D02*
D03*
Y221000D02*
D03*
X238500D02*
D03*
Y199000D02*
D03*
D24*
X210000Y72500D02*
D03*
X200000D02*
D03*
X190000D02*
D03*
X180000D02*
D03*
X170000D02*
D03*
X160000D02*
D03*
X150000D02*
D03*
X140000D02*
D03*
X130000D02*
D03*
X120000D02*
D03*
X110000D02*
D03*
X100000D02*
D03*
X90000D02*
D03*
X80000D02*
D03*
X70000D02*
D03*
D25*
X210000Y35000D02*
D03*
X200000D02*
D03*
X190000D02*
D03*
X180000D02*
D03*
X170000D02*
D03*
X160000D02*
D03*
X150000D02*
D03*
X140000D02*
D03*
X130000D02*
D03*
X120000D02*
D03*
X110000D02*
D03*
X100000D02*
D03*
X90000D02*
D03*
X80000D02*
D03*
X70000D02*
D03*
D27*
X160000Y270825D02*
D03*
X155000D02*
D03*
X145000D02*
D03*
X140000D02*
D03*
Y279175D02*
D03*
X145000D02*
D03*
X155000D02*
D03*
X160000D02*
D03*
D28*
X156350Y250000D02*
D03*
X143650D02*
D03*
D29*
X130200D02*
D03*
X104800D02*
D03*
D30*
X85000Y273258D02*
D03*
Y256742D02*
D03*
X390000Y218258D02*
D03*
Y201742D02*
D03*
X315000Y178258D02*
D03*
Y161742D02*
D03*
X290000Y178258D02*
D03*
Y161742D02*
D03*
D33*
X339005Y200500D02*
D03*
Y210000D02*
D03*
Y219500D02*
D03*
X360995D02*
D03*
Y210000D02*
D03*
Y200500D02*
D03*
D34*
X287250Y210000D02*
D03*
X312750D02*
D03*
D35*
X111000Y275000D02*
D03*
X124000D02*
D03*
D36*
X220000Y158500D02*
D03*
Y171500D02*
D03*
X240000Y158500D02*
D03*
Y171500D02*
D03*
X100000Y146000D02*
D03*
Y159000D02*
D03*
Y171000D02*
D03*
Y184000D02*
D03*
Y209000D02*
D03*
Y196000D02*
D03*
X85000Y159000D02*
D03*
Y146000D02*
D03*
Y184000D02*
D03*
Y171000D02*
D03*
Y196000D02*
D03*
Y209000D02*
D03*
X220000Y108500D02*
D03*
Y121500D02*
D03*
X220000Y133500D02*
D03*
Y146500D02*
D03*
X240000Y108500D02*
D03*
Y121500D02*
D03*
X120000Y226500D02*
D03*
Y213500D02*
D03*
X240000Y133500D02*
D03*
Y146500D02*
D03*
X180000Y213500D02*
D03*
Y226500D02*
D03*
X200000Y133500D02*
D03*
Y146500D02*
D03*
D37*
X150000Y170000D02*
D03*
D38*
X167500Y146000D02*
D03*
X162500D02*
D03*
X157500D02*
D03*
X152500D02*
D03*
X147500D02*
D03*
X142500D02*
D03*
X137500D02*
D03*
X132500D02*
D03*
Y194000D02*
D03*
X137500D02*
D03*
X142500D02*
D03*
X147500D02*
D03*
X152500D02*
D03*
X157500D02*
D03*
X162500D02*
D03*
X167500D02*
D03*
D39*
X126000Y152500D02*
D03*
Y157500D02*
D03*
Y162500D02*
D03*
Y167500D02*
D03*
Y172500D02*
D03*
Y177500D02*
D03*
Y182500D02*
D03*
Y187500D02*
D03*
X174000D02*
D03*
Y182500D02*
D03*
Y177500D02*
D03*
Y172500D02*
D03*
Y167500D02*
D03*
Y162500D02*
D03*
Y157500D02*
D03*
Y152500D02*
D03*
D40*
X222000Y279500D02*
D03*
X238000D02*
D03*
X222000Y270500D02*
D03*
X238000D02*
D03*
D41*
X150000Y270825D02*
D03*
Y279175D02*
D03*
D42*
X362000Y110500D02*
D03*
Y120000D02*
D03*
Y129500D02*
D03*
X338000D02*
D03*
Y110500D02*
D03*
D43*
X359000Y78000D02*
D03*
X341000D02*
D03*
X350000Y52000D02*
D03*
D44*
X124600Y324600D02*
D03*
X175400D02*
D03*
Y375400D02*
D03*
X124600D02*
D03*
D45*
X150000Y350000D02*
D03*
D46*
X170000Y35000D02*
D03*
X210000D02*
D03*
Y72500D02*
D03*
X136250Y90000D02*
D03*
X153750Y10000D02*
D03*
X148750Y15000D02*
D03*
X141250D02*
D03*
X136250Y10000D02*
D03*
X118750Y15000D02*
D03*
X111250D02*
D03*
X106250Y10000D02*
D03*
X123750D02*
D03*
X93750D02*
D03*
X76250D02*
D03*
X81250Y15000D02*
D03*
X88750D02*
D03*
X113750Y95000D02*
D03*
X106250D02*
D03*
X101250Y90000D02*
D03*
X118750D02*
D03*
X183750Y95000D02*
D03*
X176250D02*
D03*
X171250Y90000D02*
D03*
X188750D02*
D03*
X153750D02*
D03*
X141250Y95000D02*
D03*
X148750D02*
D03*
X82500Y217500D02*
D03*
M02*
