G04*
G04 #@! TF.GenerationSoftware,Altium Limited,Altium Designer,25.6.2 (33)*
G04*
G04 Layer_Color=32896*
%FSLAX44Y44*%
%MOMM*%
G71*
G04*
G04 #@! TF.SameCoordinates,8C2F84DF-90BC-4741-85DC-F4CD892757E3*
G04*
G04*
G04 #@! TF.FilePolarity,Positive*
G04*
G01*
G75*
%ADD10C,0.2500*%
%ADD12C,0.2000*%
D10*
X282250Y262000D02*
G03*
X282250Y262000I-1250J0D01*
G01*
D12*
X212638Y39138D02*
Y55862D01*
X227362Y39138D02*
Y55862D01*
Y61638D02*
Y78362D01*
X212638Y61638D02*
Y78362D01*
X198000Y113000D02*
Y117000D01*
X212000Y113000D02*
Y117000D01*
X299500Y253000D02*
Y257000D01*
X285500Y253000D02*
Y257000D01*
Y278000D02*
Y282000D01*
X299500Y278000D02*
Y282000D01*
X210500Y259500D02*
X214500D01*
X210500Y245500D02*
X214500D01*
X244500Y258000D02*
Y262000D01*
X230500Y258000D02*
Y262000D01*
X247500Y279000D02*
X277500D01*
X247500Y271000D02*
X277500D01*
X247500D02*
Y279000D01*
X277500Y271000D02*
Y279000D01*
X210500Y289500D02*
X214500D01*
X210500Y275500D02*
X214500D01*
X210500Y274500D02*
X214500D01*
X210500Y260500D02*
X214500D01*
X94138Y197362D02*
X110862D01*
X94138Y182638D02*
X110862D01*
X94138Y212362D02*
X110862D01*
X94138Y197638D02*
X110862D01*
X161638D02*
X178362D01*
X161638Y212362D02*
X178362D01*
X161638Y182638D02*
X178362D01*
X161638Y197362D02*
X178362D01*
X139138Y197638D02*
X155862D01*
X139138Y212362D02*
X155862D01*
X139138Y212638D02*
X155862D01*
X139138Y227362D02*
X155862D01*
X139138Y182638D02*
X155862D01*
X139138Y197362D02*
X155862D01*
X116638Y212362D02*
X133362D01*
X116638Y197638D02*
X133362D01*
X116638Y197362D02*
X133362D01*
X116638Y182638D02*
X133362D01*
M02*
