G04*
G04 #@! TF.GenerationSoftware,Altium Limited,Altium Designer,24.4.1 (13)*
G04*
G04 Layer_Color=16711935*
%FSLAX44Y44*%
%MOMM*%
G71*
G04*
G04 #@! TF.SameCoordinates,A59C2C85-A93C-4369-95B1-CFFD4854EA8D*
G04*
G04*
G04 #@! TF.FilePolarity,Negative*
G04*
G01*
G75*
G04:AMPARAMS|DCode=23|XSize=0.7154mm|YSize=0.6725mm|CornerRadius=0mm|HoleSize=0mm|Usage=FLASHONLY|Rotation=45.000|XOffset=0mm|YOffset=0mm|HoleType=Round|Shape=Rectangle|*
%AMROTATEDRECTD23*
4,1,4,-0.0152,-0.4907,-0.4907,-0.0152,0.0152,0.4907,0.4907,0.0152,-0.0152,-0.4907,0.0*
%
%ADD23ROTATEDRECTD23*%

G04:AMPARAMS|DCode=24|XSize=0.7154mm|YSize=0.6725mm|CornerRadius=0mm|HoleSize=0mm|Usage=FLASHONLY|Rotation=315.000|XOffset=0mm|YOffset=0mm|HoleType=Round|Shape=Rectangle|*
%AMROTATEDRECTD24*
4,1,4,-0.4907,0.0152,-0.0152,0.4907,0.4907,-0.0152,0.0152,-0.4907,-0.4907,0.0152,0.0*
%
%ADD24ROTATEDRECTD24*%

%ADD40R,0.7154X0.6725*%
G04:AMPARAMS|DCode=46|XSize=1mm|YSize=0.85mm|CornerRadius=0mm|HoleSize=0mm|Usage=FLASHONLY|Rotation=135.000|XOffset=0mm|YOffset=0mm|HoleType=Round|Shape=Rectangle|*
%AMROTATEDRECTD46*
4,1,4,0.6541,-0.0530,0.0530,-0.6541,-0.6541,0.0530,-0.0530,0.6541,0.6541,-0.0530,0.0*
%
%ADD46ROTATEDRECTD46*%

%ADD53C,1.3500*%
%ADD54C,2.2500*%
%ADD55C,2.7000*%
%ADD56C,1.5500*%
%ADD57R,1.5500X1.5500*%
%ADD58C,1.3100*%
%ADD59R,1.3100X1.3100*%
%ADD60C,1.5748*%
%ADD61C,0.6500*%
%ADD62C,1.1500*%
%ADD63C,5.1500*%
%ADD87R,1.4562X1.2546*%
%ADD88R,0.9000X0.6500*%
%ADD89R,2.6500X0.6500*%
G04:AMPARAMS|DCode=91|XSize=0.64mm|YSize=1.02mm|CornerRadius=0mm|HoleSize=0mm|Usage=FLASHONLY|Rotation=135.000|XOffset=0mm|YOffset=0mm|HoleType=Round|Shape=Rectangle|*
%AMROTATEDRECTD91*
4,1,4,0.5869,0.1343,-0.1343,-0.5869,-0.5869,-0.1343,0.1343,0.5869,0.5869,0.1343,0.0*
%
%ADD91ROTATEDRECTD91*%

G04:AMPARAMS|DCode=92|XSize=0.64mm|YSize=1.02mm|CornerRadius=0mm|HoleSize=0mm|Usage=FLASHONLY|Rotation=45.000|XOffset=0mm|YOffset=0mm|HoleType=Round|Shape=Rectangle|*
%AMROTATEDRECTD92*
4,1,4,0.1343,-0.5869,-0.5869,0.1343,-0.1343,0.5869,0.5869,-0.1343,0.1343,-0.5869,0.0*
%
%ADD92ROTATEDRECTD92*%

G04:AMPARAMS|DCode=93|XSize=0.565mm|YSize=0.2mm|CornerRadius=0.05mm|HoleSize=0mm|Usage=FLASHONLY|Rotation=225.000|XOffset=0mm|YOffset=0mm|HoleType=Round|Shape=RoundedRectangle|*
%AMROUNDEDRECTD93*
21,1,0.5650,0.1000,0,0,225.0*
21,1,0.4650,0.2000,0,0,225.0*
1,1,0.1000,-0.1998,-0.1291*
1,1,0.1000,0.1291,0.1998*
1,1,0.1000,0.1998,0.1291*
1,1,0.1000,-0.1291,-0.1998*
%
%ADD93ROUNDEDRECTD93*%
G04:AMPARAMS|DCode=94|XSize=0.565mm|YSize=0.4mm|CornerRadius=0.05mm|HoleSize=0mm|Usage=FLASHONLY|Rotation=225.000|XOffset=0mm|YOffset=0mm|HoleType=Round|Shape=RoundedRectangle|*
%AMROUNDEDRECTD94*
21,1,0.5650,0.3000,0,0,225.0*
21,1,0.4650,0.4000,0,0,225.0*
1,1,0.1000,-0.2705,-0.0583*
1,1,0.1000,0.0583,0.2705*
1,1,0.1000,0.2705,0.0583*
1,1,0.1000,-0.0583,-0.2705*
%
%ADD94ROUNDEDRECTD94*%
G04:AMPARAMS|DCode=95|XSize=0.565mm|YSize=0.2mm|CornerRadius=0.05mm|HoleSize=0mm|Usage=FLASHONLY|Rotation=90.000|XOffset=0mm|YOffset=0mm|HoleType=Round|Shape=RoundedRectangle|*
%AMROUNDEDRECTD95*
21,1,0.5650,0.1000,0,0,90.0*
21,1,0.4650,0.2000,0,0,90.0*
1,1,0.1000,0.0500,0.2325*
1,1,0.1000,0.0500,-0.2325*
1,1,0.1000,-0.0500,-0.2325*
1,1,0.1000,-0.0500,0.2325*
%
%ADD95ROUNDEDRECTD95*%
G04:AMPARAMS|DCode=96|XSize=0.565mm|YSize=0.4mm|CornerRadius=0.05mm|HoleSize=0mm|Usage=FLASHONLY|Rotation=90.000|XOffset=0mm|YOffset=0mm|HoleType=Round|Shape=RoundedRectangle|*
%AMROUNDEDRECTD96*
21,1,0.5650,0.3000,0,0,90.0*
21,1,0.4650,0.4000,0,0,90.0*
1,1,0.1000,0.1500,0.2325*
1,1,0.1000,0.1500,-0.2325*
1,1,0.1000,-0.1500,-0.2325*
1,1,0.1000,-0.1500,0.2325*
%
%ADD96ROUNDEDRECTD96*%
G04:AMPARAMS|DCode=97|XSize=0.565mm|YSize=0.2mm|CornerRadius=0.05mm|HoleSize=0mm|Usage=FLASHONLY|Rotation=315.000|XOffset=0mm|YOffset=0mm|HoleType=Round|Shape=RoundedRectangle|*
%AMROUNDEDRECTD97*
21,1,0.5650,0.1000,0,0,315.0*
21,1,0.4650,0.2000,0,0,315.0*
1,1,0.1000,0.1291,-0.1998*
1,1,0.1000,-0.1998,0.1291*
1,1,0.1000,-0.1291,0.1998*
1,1,0.1000,0.1998,-0.1291*
%
%ADD97ROUNDEDRECTD97*%
G04:AMPARAMS|DCode=98|XSize=0.565mm|YSize=0.4mm|CornerRadius=0.05mm|HoleSize=0mm|Usage=FLASHONLY|Rotation=315.000|XOffset=0mm|YOffset=0mm|HoleType=Round|Shape=RoundedRectangle|*
%AMROUNDEDRECTD98*
21,1,0.5650,0.3000,0,0,315.0*
21,1,0.4650,0.4000,0,0,315.0*
1,1,0.1000,0.0583,-0.2705*
1,1,0.1000,-0.2705,0.0583*
1,1,0.1000,-0.0583,0.2705*
1,1,0.1000,0.2705,-0.0583*
%
%ADD98ROUNDEDRECTD98*%
%ADD101R,1.2000X1.4000*%
%ADD106R,1.0000X0.9000*%
G04:AMPARAMS|DCode=107|XSize=1.2mm|YSize=1.05mm|CornerRadius=0mm|HoleSize=0mm|Usage=FLASHONLY|Rotation=135.000|XOffset=0mm|YOffset=0mm|HoleType=Round|Shape=Rectangle|*
%AMROTATEDRECTD107*
4,1,4,0.7955,-0.0530,0.0530,-0.7955,-0.7955,0.0530,-0.0530,0.7955,0.7955,-0.0530,0.0*
%
%ADD107ROTATEDRECTD107*%

G04:AMPARAMS|DCode=108|XSize=1.2mm|YSize=1.05mm|CornerRadius=0mm|HoleSize=0mm|Usage=FLASHONLY|Rotation=225.000|XOffset=0mm|YOffset=0mm|HoleType=Round|Shape=Rectangle|*
%AMROTATEDRECTD108*
4,1,4,0.0530,0.7955,0.7955,0.0530,-0.0530,-0.7955,-0.7955,-0.0530,0.0530,0.7955,0.0*
%
%ADD108ROTATEDRECTD108*%

G04:AMPARAMS|DCode=109|XSize=0.4mm|YSize=1.1mm|CornerRadius=0mm|HoleSize=0mm|Usage=FLASHONLY|Rotation=225.000|XOffset=0mm|YOffset=0mm|HoleType=Round|Shape=Round|*
%AMOVALD109*
21,1,0.7000,0.4000,0.0000,0.0000,315.0*
1,1,0.4000,-0.2475,0.2475*
1,1,0.4000,0.2475,-0.2475*
%
%ADD109OVALD109*%

G04:AMPARAMS|DCode=110|XSize=0.4mm|YSize=1.1mm|CornerRadius=0mm|HoleSize=0mm|Usage=FLASHONLY|Rotation=315.000|XOffset=0mm|YOffset=0mm|HoleType=Round|Shape=Round|*
%AMOVALD110*
21,1,0.7000,0.4000,0.0000,0.0000,45.0*
1,1,0.4000,-0.2475,-0.2475*
1,1,0.4000,0.2475,0.2475*
%
%ADD110OVALD110*%

%ADD111P,6.8589X4X360.0*%
D23*
X439493Y255143D02*
D03*
X432725Y248375D02*
D03*
X453635Y241001D02*
D03*
X446867Y234233D02*
D03*
X425351Y269285D02*
D03*
X418583Y262517D02*
D03*
X411209Y283427D02*
D03*
X404441Y276659D02*
D03*
X560004Y474649D02*
D03*
X566772Y481417D02*
D03*
X326204Y368128D02*
D03*
X319436Y361360D02*
D03*
X340347Y353986D02*
D03*
X333579Y347218D02*
D03*
X297920Y396413D02*
D03*
X291152Y389645D02*
D03*
X545862Y488791D02*
D03*
X552630Y495559D02*
D03*
X531720Y502933D02*
D03*
X538488Y509701D02*
D03*
X517578Y517076D02*
D03*
X524346Y523843D02*
D03*
X368782Y325853D02*
D03*
X362015Y319086D02*
D03*
X354640Y339996D02*
D03*
X347872Y333228D02*
D03*
X397067Y297569D02*
D03*
X390299Y290801D02*
D03*
X382924Y311711D02*
D03*
X376157Y304943D02*
D03*
X312062Y382270D02*
D03*
X305294Y375503D02*
D03*
D24*
X538999Y283424D02*
D03*
X545767Y276656D02*
D03*
X496365Y241001D02*
D03*
X503133Y234233D02*
D03*
X552933Y297569D02*
D03*
X559701Y290801D02*
D03*
X510507Y255143D02*
D03*
X517275Y248375D02*
D03*
X524857Y269281D02*
D03*
X531625Y262514D02*
D03*
X567076Y311711D02*
D03*
X573843Y304943D02*
D03*
X581218Y325854D02*
D03*
X587985Y319086D02*
D03*
X595360Y339996D02*
D03*
X602128Y333228D02*
D03*
X609502Y354138D02*
D03*
X616270Y347370D02*
D03*
X623644Y368280D02*
D03*
X630412Y361512D02*
D03*
X651928Y396564D02*
D03*
X658696Y389796D02*
D03*
X637786Y382422D02*
D03*
X644554Y375654D02*
D03*
X386460Y471114D02*
D03*
X379692Y477881D02*
D03*
X428886Y513540D02*
D03*
X422119Y520308D02*
D03*
X400602Y485256D02*
D03*
X393834Y492024D02*
D03*
X414744Y499398D02*
D03*
X407976Y506166D02*
D03*
D40*
X490644Y509853D02*
D03*
X481072D02*
D03*
X456072D02*
D03*
X465644D02*
D03*
D46*
X567808Y447097D02*
D03*
X558969Y438258D02*
D03*
X579829Y435076D02*
D03*
X570990Y426237D02*
D03*
D53*
X495000Y730900D02*
D03*
X495000Y770900D02*
D03*
X455000D02*
D03*
Y730900D02*
D03*
D54*
X475000Y750000D02*
D03*
D55*
X520750Y715000D02*
D03*
Y796000D02*
D03*
X429250D02*
D03*
Y715000D02*
D03*
D56*
X760000Y407300D02*
D03*
Y502700D02*
D03*
D57*
Y432700D02*
D03*
Y477300D02*
D03*
D58*
X50000Y783200D02*
D03*
Y757800D02*
D03*
Y732400D02*
D03*
Y707000D02*
D03*
Y681600D02*
D03*
Y656200D02*
D03*
Y630800D02*
D03*
Y605400D02*
D03*
D59*
Y580000D02*
D03*
D60*
X890000Y640000D02*
D03*
X838000Y605000D02*
D03*
Y735000D02*
D03*
X890000Y770000D02*
D03*
X838000Y475000D02*
D03*
X890000Y510000D02*
D03*
D61*
X382536Y249536D02*
D03*
X107005Y282995D02*
D03*
X101755Y288245D02*
D03*
X666000Y106000D02*
D03*
X660750Y100750D02*
D03*
X635000Y327500D02*
D03*
X650000Y342500D02*
D03*
X616000Y455000D02*
D03*
X395097Y415808D02*
D03*
X295214Y493000D02*
D03*
Y413000D02*
D03*
X880000Y155000D02*
D03*
X889000Y180000D02*
D03*
X70000Y105000D02*
D03*
Y155000D02*
D03*
X880000Y105000D02*
D03*
X782448Y257699D02*
D03*
X777145Y305429D02*
D03*
X770074Y298358D02*
D03*
X763002Y291287D02*
D03*
X278284Y146716D02*
D03*
X160000Y75000D02*
D03*
Y90000D02*
D03*
Y105000D02*
D03*
Y120000D02*
D03*
X271213Y153787D02*
D03*
X264142Y160858D02*
D03*
X257071Y167929D02*
D03*
X554903Y422879D02*
D03*
X545004Y432778D02*
D03*
X540054Y437778D02*
D03*
X535104Y442728D02*
D03*
X491264Y494477D02*
D03*
X513891Y476619D02*
D03*
X450908Y478740D02*
D03*
X405000Y435000D02*
D03*
X410000Y440000D02*
D03*
X790000Y135000D02*
D03*
Y150000D02*
D03*
Y165000D02*
D03*
Y180000D02*
D03*
X600000Y451750D02*
D03*
X605000Y420000D02*
D03*
X600000Y476250D02*
D03*
X465858Y493589D02*
D03*
X455908Y483690D02*
D03*
X460858Y488640D02*
D03*
X415000Y445000D02*
D03*
X420000Y450000D02*
D03*
X643038Y325462D02*
D03*
X652214Y334286D02*
D03*
X883840Y324091D02*
D03*
X878590Y318841D02*
D03*
X857377Y297628D02*
D03*
X862627Y302878D02*
D03*
X708463Y148463D02*
D03*
X703213Y143213D02*
D03*
X682000Y122000D02*
D03*
X687250Y127250D02*
D03*
X149468Y240532D02*
D03*
X144218Y245782D02*
D03*
X123005Y266995D02*
D03*
X128255Y261745D02*
D03*
X302250Y87750D02*
D03*
X297000Y93000D02*
D03*
X318213Y71787D02*
D03*
X323463Y66537D02*
D03*
X391536Y240536D02*
D03*
X451665Y425000D02*
D03*
X459444Y417222D02*
D03*
X467222Y409444D02*
D03*
X475000Y401665D02*
D03*
X459444Y432778D02*
D03*
X467222Y425000D02*
D03*
X475000Y417222D02*
D03*
X482778Y409444D02*
D03*
X467222Y440556D02*
D03*
X475000Y432778D02*
D03*
X482778Y425000D02*
D03*
X490556Y417222D02*
D03*
X475000Y448335D02*
D03*
X482778Y440556D02*
D03*
X490556Y432778D02*
D03*
X498335Y425000D02*
D03*
X553337Y452729D02*
D03*
X512477Y465305D02*
D03*
X429038Y466012D02*
D03*
X438938Y465305D02*
D03*
X404289Y425000D02*
D03*
X549953Y427828D02*
D03*
X545711Y410858D02*
D03*
D62*
X384781Y632258D02*
D03*
X565000Y632258D02*
D03*
X512000Y580758D02*
D03*
X438000Y580758D02*
D03*
D63*
X50000Y850000D02*
D03*
X900000D02*
D03*
Y50000D02*
D03*
X50000D02*
D03*
D87*
X384781Y615742D02*
D03*
Y632258D02*
D03*
X438000Y564242D02*
D03*
X438000Y580758D02*
D03*
X565000Y615742D02*
D03*
X565000Y632258D02*
D03*
X512000Y564242D02*
D03*
Y580758D02*
D03*
D88*
X567781Y663250D02*
D03*
Y648750D02*
D03*
X435000Y611800D02*
D03*
Y597300D02*
D03*
X382000Y663250D02*
D03*
X382000Y648750D02*
D03*
X515000Y611800D02*
D03*
Y597300D02*
D03*
D89*
X545000Y674150D02*
D03*
Y648750D02*
D03*
X458000Y622700D02*
D03*
Y597300D02*
D03*
X405000Y674150D02*
D03*
Y648750D02*
D03*
X492000Y622700D02*
D03*
Y597300D02*
D03*
D91*
X380490Y677510D02*
D03*
X371510Y686490D02*
D03*
X452490Y637510D02*
D03*
X443510Y646490D02*
D03*
D92*
X497510Y637510D02*
D03*
X506490Y646490D02*
D03*
X569510Y677510D02*
D03*
X578490Y686490D02*
D03*
D93*
X377881Y721023D02*
D03*
X381417Y717488D02*
D03*
X388488Y710417D02*
D03*
X392023Y706881D02*
D03*
X386119Y700977D02*
D03*
X382583Y704512D02*
D03*
X375512Y711583D02*
D03*
X371977Y715119D02*
D03*
D94*
X384952Y713952D02*
D03*
X379048Y708048D02*
D03*
D95*
X455000Y671825D02*
D03*
X450000D02*
D03*
X440000D02*
D03*
X435000D02*
D03*
Y680175D02*
D03*
X440000D02*
D03*
X450000D02*
D03*
X455000D02*
D03*
X515000Y671825D02*
D03*
X510000D02*
D03*
X500000D02*
D03*
X495000D02*
D03*
Y680175D02*
D03*
X500000D02*
D03*
X510000D02*
D03*
X515000D02*
D03*
D96*
X445000Y671825D02*
D03*
Y680175D02*
D03*
X505000Y671825D02*
D03*
Y680175D02*
D03*
D97*
X557977Y706881D02*
D03*
X561512Y710417D02*
D03*
X568583Y717488D02*
D03*
X572119Y721023D02*
D03*
X578023Y715119D02*
D03*
X574488Y711583D02*
D03*
X567417Y704512D02*
D03*
X563881Y700977D02*
D03*
D98*
X565048Y713952D02*
D03*
X570952Y708048D02*
D03*
D101*
X466500Y541279D02*
D03*
Y563279D02*
D03*
X483500D02*
D03*
Y541279D02*
D03*
D106*
X600000Y476250D02*
D03*
Y463250D02*
D03*
D107*
X566747Y509676D02*
D03*
X577000Y519929D02*
D03*
X552605Y523818D02*
D03*
X562858Y534071D02*
D03*
D108*
X393683Y520459D02*
D03*
X383430Y530713D02*
D03*
X379541Y506317D02*
D03*
X369287Y516570D02*
D03*
D109*
X424619Y429419D02*
D03*
X428154Y432955D02*
D03*
X431690Y436491D02*
D03*
X435225Y440026D02*
D03*
X438761Y443562D02*
D03*
X442296Y447097D02*
D03*
X445832Y450633D02*
D03*
X449367Y454168D02*
D03*
X452903Y457704D02*
D03*
X456438Y461239D02*
D03*
X459974Y464775D02*
D03*
X463509Y468310D02*
D03*
X467045Y471846D02*
D03*
X470580Y475381D02*
D03*
X525381Y420581D02*
D03*
X521846Y417045D02*
D03*
X518310Y413509D02*
D03*
X514775Y409974D02*
D03*
X511239Y406438D02*
D03*
X507704Y402903D02*
D03*
X504168Y399367D02*
D03*
X500633Y395832D02*
D03*
X497097Y392296D02*
D03*
X493562Y388761D02*
D03*
X490026Y385225D02*
D03*
X486491Y381690D02*
D03*
X482955Y378154D02*
D03*
X479419Y374619D02*
D03*
D110*
Y475381D02*
D03*
X482955Y471846D02*
D03*
X486491Y468310D02*
D03*
X490026Y464775D02*
D03*
X493562Y461239D02*
D03*
X497097Y457704D02*
D03*
X500633Y454168D02*
D03*
X504168Y450633D02*
D03*
X507704Y447097D02*
D03*
X511239Y443562D02*
D03*
X514775Y440026D02*
D03*
X518310Y436491D02*
D03*
X521846Y432955D02*
D03*
X525381Y429419D02*
D03*
X470580Y374619D02*
D03*
X467045Y378154D02*
D03*
X463509Y381690D02*
D03*
X459974Y385225D02*
D03*
X456438Y388761D02*
D03*
X452903Y392296D02*
D03*
X449367Y395832D02*
D03*
X445832Y399367D02*
D03*
X442296Y402903D02*
D03*
X438761Y406438D02*
D03*
X435225Y409974D02*
D03*
X431690Y413509D02*
D03*
X428154Y417045D02*
D03*
X424619Y420581D02*
D03*
D111*
X475000Y425000D02*
D03*
M02*
