G04*
G04 #@! TF.GenerationSoftware,Altium Limited,Altium Designer,24.4.1 (13)*
G04*
G04 Layer_Color=65535*
%FSLAX44Y44*%
%MOMM*%
G71*
G04*
G04 #@! TF.SameCoordinates,A59C2C85-A93C-4369-95B1-CFFD4854EA8D*
G04*
G04*
G04 #@! TF.FilePolarity,Positive*
G04*
G01*
G75*
%ADD10C,0.1000*%
%ADD11C,0.2500*%
%ADD12C,0.5080*%
%ADD13C,0.2000*%
%ADD14C,0.1500*%
%ADD15C,0.2540*%
%ADD16C,0.1524*%
%ADD17C,0.4000*%
G36*
X605930Y867760D02*
X606058D01*
Y867631D01*
X606316D01*
Y867503D01*
X606445D01*
Y867374D01*
X606702D01*
Y867245D01*
X606831D01*
Y867116D01*
X606959D01*
Y866988D01*
X607088D01*
Y866859D01*
X607217D01*
Y866730D01*
X607346D01*
Y866601D01*
X607474D01*
Y866473D01*
X607603D01*
Y866215D01*
X607732D01*
Y866087D01*
X607860D01*
Y865829D01*
X607989D01*
Y865701D01*
X608118D01*
Y865443D01*
X608247D01*
Y864928D01*
X608375D01*
Y864413D01*
X608504D01*
Y864285D01*
X608761D01*
Y864156D01*
X609019D01*
Y864027D01*
X609148D01*
Y863898D01*
X609277D01*
Y863770D01*
X609405D01*
Y863641D01*
X609663D01*
Y863512D01*
X609791D01*
Y863383D01*
X609920D01*
Y863255D01*
X610049D01*
Y863126D01*
X610177D01*
Y862868D01*
X610306D01*
Y862740D01*
X610435D01*
Y862482D01*
X610564D01*
Y861967D01*
X610692D01*
Y860551D01*
X610564D01*
Y859779D01*
X610435D01*
Y859393D01*
X610692D01*
Y859264D01*
X611079D01*
Y859135D01*
X611207D01*
Y859007D01*
X611465D01*
Y858878D01*
X611594D01*
Y858621D01*
X611722D01*
Y858492D01*
X611851D01*
Y858234D01*
X611980D01*
Y857848D01*
X612108D01*
Y857205D01*
X611851D01*
Y857333D01*
X611722D01*
Y857591D01*
X611594D01*
Y857848D01*
X611465D01*
Y857977D01*
X611336D01*
Y858234D01*
X611207D01*
Y858363D01*
X611079D01*
Y858492D01*
X610950D01*
Y858621D01*
X610821D01*
Y858749D01*
X610692D01*
Y858878D01*
X610564D01*
Y859007D01*
X610435D01*
Y859135D01*
X610177D01*
Y859007D01*
X610049D01*
Y858878D01*
X609920D01*
Y858749D01*
X609791D01*
Y858492D01*
X609663D01*
Y858363D01*
X609534D01*
Y858234D01*
X609405D01*
Y858106D01*
X609277D01*
Y857848D01*
X609148D01*
Y857719D01*
X609019D01*
Y857591D01*
X608890D01*
Y857333D01*
X608761D01*
Y857205D01*
X608633D01*
Y856947D01*
X608504D01*
Y856818D01*
X608375D01*
Y856561D01*
X608247D01*
Y856303D01*
X608118D01*
Y856046D01*
X607989D01*
Y855660D01*
X607860D01*
Y855402D01*
X607732D01*
Y855016D01*
X607603D01*
Y854501D01*
X607474D01*
Y853986D01*
X607346D01*
Y853472D01*
X607217D01*
Y852957D01*
X607088D01*
Y852313D01*
X606959D01*
Y851541D01*
X606831D01*
Y850768D01*
X606702D01*
Y849867D01*
X606573D01*
Y848580D01*
X606445D01*
Y846263D01*
X606316D01*
Y838024D01*
X606445D01*
Y836866D01*
X606573D01*
Y835965D01*
X606702D01*
Y835192D01*
X606831D01*
Y834549D01*
X606959D01*
Y834034D01*
X607088D01*
Y833648D01*
X607217D01*
Y833261D01*
X607346D01*
Y832875D01*
X607474D01*
Y832618D01*
X607603D01*
Y832360D01*
X607732D01*
Y832103D01*
X607860D01*
Y831845D01*
X607989D01*
Y831717D01*
X608118D01*
Y831459D01*
X608247D01*
Y831331D01*
X608375D01*
Y831202D01*
X608504D01*
Y831073D01*
X608633D01*
Y830816D01*
X608761D01*
Y830687D01*
X608890D01*
Y830558D01*
X609019D01*
Y830430D01*
X609148D01*
Y830301D01*
X609277D01*
Y830172D01*
X609534D01*
Y830043D01*
X609663D01*
Y829915D01*
X609791D01*
Y829786D01*
X609920D01*
Y829657D01*
X610177D01*
Y829528D01*
X610306D01*
Y829400D01*
X610564D01*
Y829271D01*
X610692D01*
Y829142D01*
X610950D01*
Y829014D01*
X611079D01*
Y828885D01*
X611336D01*
Y828756D01*
X611594D01*
Y828627D01*
X611851D01*
Y828499D01*
X611980D01*
Y828370D01*
X612237D01*
Y828241D01*
X612495D01*
Y828112D01*
X612752D01*
Y827984D01*
X613009D01*
Y827855D01*
X613267D01*
Y827726D01*
X613396D01*
Y827598D01*
X613653D01*
Y827469D01*
X613911D01*
Y827340D01*
X614168D01*
Y827211D01*
X614426D01*
Y827083D01*
X614683D01*
Y826954D01*
X614940D01*
Y826825D01*
X615198D01*
Y826696D01*
X615327D01*
Y826568D01*
X615584D01*
Y826439D01*
X615841D01*
Y826310D01*
X616099D01*
Y826181D01*
X616356D01*
Y826053D01*
X616614D01*
Y825924D01*
X616871D01*
Y825795D01*
X617000D01*
Y825667D01*
X617257D01*
Y825538D01*
X617515D01*
Y825409D01*
X617772D01*
Y825280D01*
X617901D01*
Y825152D01*
X618159D01*
Y825023D01*
X618287D01*
Y824894D01*
X618416D01*
Y824766D01*
X618674D01*
Y824637D01*
X618802D01*
Y824508D01*
X618931D01*
Y824379D01*
X619060D01*
Y824251D01*
X619188D01*
Y824122D01*
X619317D01*
Y823993D01*
X619446D01*
Y823865D01*
X619575D01*
Y823736D01*
X619703D01*
Y823607D01*
X619832D01*
Y823478D01*
X619961D01*
Y823350D01*
X620089D01*
Y823221D01*
X620218D01*
Y823092D01*
X620347D01*
Y822835D01*
X620476D01*
Y822706D01*
X620604D01*
Y822577D01*
X620733D01*
Y822449D01*
X620862D01*
Y822320D01*
X620990D01*
Y822191D01*
X621119D01*
Y821934D01*
X621248D01*
Y821805D01*
X621377D01*
Y821676D01*
X621505D01*
Y821419D01*
X621634D01*
Y821290D01*
X621763D01*
Y821161D01*
X621892D01*
Y820904D01*
X622020D01*
Y820775D01*
X622149D01*
Y820646D01*
X622278D01*
Y820389D01*
X622407D01*
Y820260D01*
X622535D01*
Y820131D01*
X622664D01*
Y820003D01*
X622793D01*
Y819745D01*
X622921D01*
Y819616D01*
X623050D01*
Y819488D01*
X623179D01*
Y819359D01*
X623308D01*
Y819230D01*
X623436D01*
Y819102D01*
X623565D01*
Y818973D01*
X623694D01*
Y818715D01*
X623823D01*
Y818587D01*
X623951D01*
Y818458D01*
X624080D01*
Y818329D01*
X624209D01*
Y818201D01*
X624337D01*
Y818072D01*
X624466D01*
Y817943D01*
X624595D01*
Y817814D01*
X624724D01*
Y817686D01*
X624852D01*
Y817557D01*
X624981D01*
Y817428D01*
X625110D01*
Y817299D01*
X625238D01*
Y817171D01*
X625367D01*
Y817042D01*
X625496D01*
Y816913D01*
X625625D01*
Y816785D01*
X625753D01*
Y816656D01*
X625882D01*
Y816527D01*
X626011D01*
Y816398D01*
X626140D01*
Y816270D01*
X626268D01*
Y816141D01*
X626397D01*
Y816012D01*
X626526D01*
Y815883D01*
X626655D01*
Y815755D01*
X626783D01*
Y815626D01*
X626912D01*
Y815497D01*
X627041D01*
Y815368D01*
X627169D01*
Y815240D01*
X627298D01*
Y815111D01*
X627427D01*
Y814982D01*
X627556D01*
Y814854D01*
X627684D01*
Y814725D01*
X627813D01*
Y814596D01*
X627942D01*
Y814467D01*
X628070D01*
Y814339D01*
X628199D01*
Y814210D01*
X628328D01*
Y814081D01*
X628457D01*
Y813953D01*
X628585D01*
Y813824D01*
X628714D01*
Y813695D01*
X628843D01*
Y813566D01*
X628971D01*
Y813438D01*
X629100D01*
Y813309D01*
X629229D01*
Y813180D01*
X629358D01*
Y813052D01*
X629487D01*
Y812923D01*
X629615D01*
Y812794D01*
X629744D01*
Y812665D01*
X629873D01*
Y812537D01*
X630130D01*
Y812408D01*
X630259D01*
Y812279D01*
X630387D01*
Y812150D01*
X630516D01*
Y812022D01*
X630645D01*
Y811893D01*
X630774D01*
Y811764D01*
X630902D01*
Y811636D01*
X631031D01*
Y811507D01*
X631160D01*
Y811378D01*
X631289D01*
Y811249D01*
X631417D01*
Y811121D01*
X631546D01*
Y810992D01*
X631675D01*
Y810863D01*
X631804D01*
Y810734D01*
X631932D01*
Y810606D01*
X632061D01*
Y810477D01*
X632190D01*
Y810348D01*
X632318D01*
Y810219D01*
X632447D01*
Y810091D01*
X632576D01*
Y809962D01*
X632705D01*
Y809833D01*
X632833D01*
Y809705D01*
X632962D01*
Y809576D01*
X633219D01*
Y809447D01*
X633348D01*
Y809318D01*
X633477D01*
Y809190D01*
X633606D01*
Y809061D01*
X633734D01*
Y808932D01*
X633863D01*
Y808803D01*
X633992D01*
Y808675D01*
X634121D01*
Y808546D01*
X634249D01*
Y808417D01*
X634378D01*
Y808289D01*
X634507D01*
Y808160D01*
X634636D01*
Y808031D01*
X634764D01*
Y807902D01*
X634893D01*
Y807774D01*
X635022D01*
Y807645D01*
X635150D01*
Y807516D01*
X635279D01*
Y807387D01*
X635408D01*
Y807259D01*
X635537D01*
Y807130D01*
X635665D01*
Y807001D01*
X635794D01*
Y806873D01*
X635923D01*
Y806744D01*
X636051D01*
Y806615D01*
X636180D01*
Y806486D01*
X636309D01*
Y806358D01*
X636438D01*
Y806229D01*
X636566D01*
Y806100D01*
X636695D01*
Y805972D01*
X636824D01*
Y805843D01*
X636953D01*
Y805714D01*
X637081D01*
Y805585D01*
X637210D01*
Y805457D01*
X637339D01*
Y805328D01*
X637467D01*
Y805199D01*
X637596D01*
Y804942D01*
X637725D01*
Y804813D01*
X637854D01*
Y804684D01*
X637982D01*
Y804556D01*
X638111D01*
Y804427D01*
X638240D01*
Y804298D01*
X638368D01*
Y804169D01*
X638497D01*
Y803912D01*
X638626D01*
Y803783D01*
X638755D01*
Y803654D01*
X638884D01*
Y803526D01*
X639012D01*
Y803268D01*
X639141D01*
Y803140D01*
X639270D01*
Y802882D01*
X639398D01*
Y802753D01*
X639527D01*
Y802496D01*
X639656D01*
Y802367D01*
X639785D01*
Y802110D01*
X639913D01*
Y801852D01*
X640042D01*
Y801595D01*
X640171D01*
Y801337D01*
X640300D01*
Y801080D01*
X640428D01*
Y800694D01*
X640557D01*
Y800436D01*
X640686D01*
Y800050D01*
X640814D01*
Y799535D01*
X640943D01*
Y799020D01*
X641072D01*
Y798248D01*
X641200D01*
Y795931D01*
X641072D01*
Y795416D01*
X640943D01*
Y795030D01*
X640814D01*
Y794515D01*
X640943D01*
Y794258D01*
X641072D01*
Y794000D01*
X641200D01*
Y793871D01*
X641329D01*
Y793614D01*
X641458D01*
Y793485D01*
X641587D01*
Y793228D01*
X641715D01*
Y792970D01*
X641844D01*
Y792841D01*
X641973D01*
Y792584D01*
X642102D01*
Y792327D01*
X642230D01*
Y792069D01*
X642359D01*
Y791812D01*
X642488D01*
Y791554D01*
X642617D01*
Y791297D01*
X642745D01*
Y791039D01*
X642874D01*
Y790782D01*
X643003D01*
Y790524D01*
X643131D01*
Y790267D01*
X643260D01*
Y790010D01*
X643389D01*
Y789623D01*
X643518D01*
Y789366D01*
X643646D01*
Y789108D01*
X643775D01*
Y788722D01*
X643904D01*
Y788336D01*
X644033D01*
Y788079D01*
X644161D01*
Y787692D01*
X644290D01*
Y787178D01*
X644419D01*
Y786791D01*
X644547D01*
Y786276D01*
X644676D01*
Y785761D01*
X644805D01*
Y785118D01*
X644934D01*
Y784346D01*
X645062D01*
Y782801D01*
X645191D01*
Y781642D01*
X645062D01*
Y780355D01*
X644934D01*
Y779711D01*
X644805D01*
Y779325D01*
X644676D01*
Y778939D01*
X644547D01*
Y778682D01*
X644419D01*
Y778424D01*
X644290D01*
Y778167D01*
X644161D01*
Y777781D01*
X644033D01*
Y777652D01*
X643904D01*
Y777394D01*
X643775D01*
Y777137D01*
X643646D01*
Y776879D01*
X643518D01*
Y776751D01*
X643389D01*
Y776493D01*
X643260D01*
Y776365D01*
X643131D01*
Y776107D01*
X643003D01*
Y775978D01*
X642874D01*
Y775721D01*
X642745D01*
Y775592D01*
X642617D01*
Y775463D01*
X642488D01*
Y775335D01*
X642359D01*
Y775077D01*
X642230D01*
Y774949D01*
X642102D01*
Y774820D01*
X641973D01*
Y774691D01*
X641844D01*
Y774434D01*
X641715D01*
Y774305D01*
X641587D01*
Y774176D01*
X641458D01*
Y774047D01*
X641329D01*
Y773919D01*
X641200D01*
Y773790D01*
X641072D01*
Y773661D01*
X640943D01*
Y773533D01*
X640814D01*
Y773275D01*
X640686D01*
Y773146D01*
X640557D01*
Y773018D01*
X640428D01*
Y772503D01*
X640557D01*
Y772245D01*
X640686D01*
Y772117D01*
X640814D01*
Y771859D01*
X640943D01*
Y771730D01*
X641072D01*
Y771602D01*
X641200D01*
Y771473D01*
X641329D01*
Y771216D01*
X641458D01*
Y771087D01*
X641587D01*
Y770958D01*
X641715D01*
Y770829D01*
X641844D01*
Y770701D01*
X641973D01*
Y770572D01*
X642102D01*
Y770443D01*
X642230D01*
Y770314D01*
X642359D01*
Y770186D01*
X642488D01*
Y770057D01*
X642617D01*
Y769799D01*
X642745D01*
Y769671D01*
X642874D01*
Y769542D01*
X643003D01*
Y769413D01*
X643131D01*
Y769285D01*
X643260D01*
Y769156D01*
X643389D01*
Y769027D01*
X643518D01*
Y768898D01*
X643646D01*
Y768770D01*
X643775D01*
Y768641D01*
X643904D01*
Y768512D01*
X644161D01*
Y768383D01*
X644290D01*
Y768255D01*
X644419D01*
Y768126D01*
X644547D01*
Y767997D01*
X644676D01*
Y767869D01*
X644934D01*
Y767740D01*
X645062D01*
Y767611D01*
X645191D01*
Y767483D01*
X645449D01*
Y767354D01*
X645577D01*
Y767225D01*
X645835D01*
Y767096D01*
X645963D01*
Y766967D01*
X646221D01*
Y766839D01*
X646478D01*
Y766710D01*
X646864D01*
Y766581D01*
X647122D01*
Y766453D01*
X647508D01*
Y766324D01*
X648023D01*
Y766195D01*
X649439D01*
Y766067D01*
X651885D01*
Y765938D01*
X654459D01*
Y765809D01*
X655489D01*
Y765680D01*
X655747D01*
Y765552D01*
X656004D01*
Y765423D01*
X656133D01*
Y765165D01*
X656262D01*
Y764650D01*
X656390D01*
Y764136D01*
X656262D01*
Y763492D01*
X656133D01*
Y763234D01*
X656004D01*
Y763106D01*
X655875D01*
Y762848D01*
X655747D01*
Y762720D01*
X655618D01*
Y762591D01*
X655489D01*
Y762462D01*
X655360D01*
Y762333D01*
X655232D01*
Y762205D01*
X655103D01*
Y762076D01*
X654974D01*
Y761947D01*
X654846D01*
Y761818D01*
X654717D01*
Y761690D01*
X654588D01*
Y761561D01*
X654459D01*
Y761432D01*
X654202D01*
Y761304D01*
X654073D01*
Y761175D01*
X653816D01*
Y761046D01*
X653558D01*
Y760917D01*
X653172D01*
Y760789D01*
X652786D01*
Y760660D01*
X652400D01*
Y760531D01*
X652142D01*
Y760403D01*
X651756D01*
Y760274D01*
X651241D01*
Y760145D01*
X650855D01*
Y760016D01*
X650340D01*
Y759888D01*
X649825D01*
Y759759D01*
X649310D01*
Y759630D01*
X648667D01*
Y759501D01*
X648152D01*
Y759373D01*
X647508D01*
Y759244D01*
X646478D01*
Y759115D01*
X644676D01*
Y759244D01*
X643646D01*
Y759373D01*
X642874D01*
Y759501D01*
X642230D01*
Y759630D01*
X641587D01*
Y759759D01*
X641072D01*
Y759888D01*
X640686D01*
Y760016D01*
X640300D01*
Y760145D01*
X639913D01*
Y760274D01*
X639527D01*
Y760403D01*
X639270D01*
Y760531D01*
X639012D01*
Y760660D01*
X638755D01*
Y760789D01*
X638497D01*
Y760917D01*
X638240D01*
Y761046D01*
X637982D01*
Y761175D01*
X637725D01*
Y761304D01*
X637596D01*
Y761432D01*
X637339D01*
Y761561D01*
X637210D01*
Y761690D01*
X636953D01*
Y761818D01*
X636695D01*
Y761947D01*
X636566D01*
Y762076D01*
X636180D01*
Y761947D01*
X636051D01*
Y761432D01*
X635923D01*
Y760917D01*
X635794D01*
Y760274D01*
X635665D01*
Y759888D01*
X635794D01*
Y759501D01*
X635923D01*
Y759115D01*
X636051D01*
Y758729D01*
X636180D01*
Y758343D01*
X636309D01*
Y757828D01*
X636438D01*
Y757442D01*
X636566D01*
Y757056D01*
X636695D01*
Y756669D01*
X636824D01*
Y756283D01*
X636953D01*
Y755768D01*
X637081D01*
Y755254D01*
X637210D01*
Y754738D01*
X637339D01*
Y753838D01*
X637467D01*
Y751392D01*
X637339D01*
Y750877D01*
X637210D01*
Y750619D01*
X637081D01*
Y750491D01*
X636953D01*
Y750362D01*
X636824D01*
Y750104D01*
X636695D01*
Y749976D01*
X636566D01*
Y749847D01*
X636309D01*
Y749718D01*
X636180D01*
Y749589D01*
X635923D01*
Y749461D01*
X635665D01*
Y749332D01*
X635408D01*
Y749203D01*
X635022D01*
Y749075D01*
X634636D01*
Y748946D01*
X633992D01*
Y748817D01*
X633348D01*
Y748688D01*
X632190D01*
Y748560D01*
X630902D01*
Y748431D01*
X629615D01*
Y748302D01*
X628585D01*
Y748174D01*
X627942D01*
Y748045D01*
X627427D01*
Y747916D01*
X626783D01*
Y747787D01*
X626268D01*
Y747659D01*
X625625D01*
Y747530D01*
X624724D01*
Y747401D01*
X623823D01*
Y747272D01*
X622921D01*
Y747144D01*
X621892D01*
Y747015D01*
X620862D01*
Y746886D01*
X620089D01*
Y746758D01*
X619188D01*
Y746629D01*
X618287D01*
Y746500D01*
X617644D01*
Y746371D01*
X617000D01*
Y746243D01*
X616485D01*
Y746114D01*
X615970D01*
Y745985D01*
X615327D01*
Y745856D01*
X614812D01*
Y745728D01*
X614297D01*
Y745599D01*
X613782D01*
Y745470D01*
X613396D01*
Y745599D01*
X613138D01*
Y745728D01*
X612881D01*
Y745856D01*
X612752D01*
Y745985D01*
X612495D01*
Y746114D01*
X612366D01*
Y746243D01*
X612237D01*
Y746371D01*
X612108D01*
Y746500D01*
X611980D01*
Y746758D01*
X611851D01*
Y746886D01*
X611722D01*
Y747015D01*
X611594D01*
Y747272D01*
X611465D01*
Y747530D01*
X611336D01*
Y747787D01*
X611207D01*
Y748045D01*
X611079D01*
Y748431D01*
X610950D01*
Y748817D01*
X610821D01*
Y750104D01*
X610692D01*
Y750748D01*
X610049D01*
Y750619D01*
X606959D01*
Y750748D01*
X606316D01*
Y750877D01*
X605801D01*
Y751005D01*
X600780D01*
Y750877D01*
X599751D01*
Y750748D01*
X598850D01*
Y750619D01*
X598077D01*
Y750491D01*
X597305D01*
Y750362D01*
X596661D01*
Y750233D01*
X596146D01*
Y750104D01*
X595631D01*
Y749976D01*
X595117D01*
Y749847D01*
X594602D01*
Y749718D01*
X594087D01*
Y749589D01*
X593701D01*
Y749461D01*
X593314D01*
Y749332D01*
X592928D01*
Y749203D01*
X592542D01*
Y749075D01*
X592156D01*
Y748946D01*
X591770D01*
Y748817D01*
X591384D01*
Y748688D01*
X590997D01*
Y748560D01*
X590482D01*
Y748688D01*
X590354D01*
Y748817D01*
X590225D01*
Y748946D01*
X590096D01*
Y749075D01*
X589968D01*
Y749203D01*
X589839D01*
Y749332D01*
X589710D01*
Y749589D01*
X589581D01*
Y749718D01*
X589453D01*
Y749976D01*
X589324D01*
Y750233D01*
X589195D01*
Y750491D01*
X589067D01*
Y750619D01*
X588938D01*
Y751005D01*
X588809D01*
Y751263D01*
X588680D01*
Y751649D01*
X588552D01*
Y752164D01*
X588423D01*
Y752936D01*
X588294D01*
Y754095D01*
X588423D01*
Y754867D01*
X588552D01*
Y755382D01*
X588680D01*
Y755768D01*
X588809D01*
Y756154D01*
X588938D01*
Y756412D01*
X589067D01*
Y756669D01*
X589195D01*
Y756798D01*
X589324D01*
Y757056D01*
X589453D01*
Y757184D01*
X589581D01*
Y757313D01*
X589710D01*
Y757570D01*
X589839D01*
Y757699D01*
X589968D01*
Y757828D01*
X590096D01*
Y757957D01*
X590354D01*
Y758085D01*
X590482D01*
Y758214D01*
X590611D01*
Y758343D01*
X590869D01*
Y758472D01*
X591126D01*
Y758600D01*
X591255D01*
Y758729D01*
X591512D01*
Y758858D01*
X591898D01*
Y758987D01*
X592156D01*
Y759115D01*
X592542D01*
Y759244D01*
X592928D01*
Y759373D01*
X593314D01*
Y759501D01*
X593958D01*
Y759630D01*
X594602D01*
Y759759D01*
X595117D01*
Y759888D01*
X595374D01*
Y760016D01*
X595503D01*
Y760145D01*
X595631D01*
Y760274D01*
X595760D01*
Y760403D01*
X596018D01*
Y760531D01*
X596146D01*
Y760660D01*
X596275D01*
Y760789D01*
X596404D01*
Y760917D01*
X596661D01*
Y761046D01*
X596919D01*
Y761175D01*
X597176D01*
Y761304D01*
X597562D01*
Y761432D01*
X597691D01*
Y761690D01*
X597562D01*
Y761947D01*
X597434D01*
Y762205D01*
X597305D01*
Y762462D01*
X597176D01*
Y762720D01*
X597048D01*
Y762977D01*
X596919D01*
Y763234D01*
X596790D01*
Y763492D01*
X596661D01*
Y763749D01*
X596533D01*
Y764136D01*
X596404D01*
Y764393D01*
X596275D01*
Y764779D01*
X596146D01*
Y765165D01*
X596018D01*
Y765552D01*
X595889D01*
Y765938D01*
X595760D01*
Y766453D01*
X595631D01*
Y766839D01*
X595503D01*
Y767354D01*
X595374D01*
Y767869D01*
X595245D01*
Y768383D01*
X595117D01*
Y768898D01*
X594988D01*
Y769542D01*
X594859D01*
Y773146D01*
X594730D01*
Y774434D01*
X594859D01*
Y776365D01*
X594988D01*
Y777137D01*
X595117D01*
Y777909D01*
X595245D01*
Y778553D01*
X595374D01*
Y779068D01*
X595503D01*
Y779583D01*
X595631D01*
Y780098D01*
X595760D01*
Y780484D01*
X595889D01*
Y780999D01*
X596018D01*
Y781385D01*
X596146D01*
Y781771D01*
X596275D01*
Y782157D01*
X596404D01*
Y782672D01*
X596533D01*
Y783058D01*
X596146D01*
Y783187D01*
X595374D01*
Y783316D01*
X594730D01*
Y783445D01*
X594087D01*
Y783573D01*
X593572D01*
Y783702D01*
X593186D01*
Y783831D01*
X592799D01*
Y783959D01*
X592542D01*
Y784088D01*
X592285D01*
Y784217D01*
X592027D01*
Y784346D01*
X591770D01*
Y784474D01*
X591512D01*
Y784603D01*
X591384D01*
Y784732D01*
X591126D01*
Y784861D01*
X590997D01*
Y784989D01*
X590869D01*
Y785118D01*
X590740D01*
Y785247D01*
X590611D01*
Y785375D01*
X590482D01*
Y785504D01*
X590354D01*
Y785633D01*
X590225D01*
Y785761D01*
X590096D01*
Y785890D01*
X589968D01*
Y786019D01*
X589839D01*
Y786276D01*
X589710D01*
Y786405D01*
X589581D01*
Y786534D01*
X589453D01*
Y786791D01*
X589324D01*
Y787049D01*
X589195D01*
Y787178D01*
X589067D01*
Y787435D01*
X588938D01*
Y787692D01*
X588809D01*
Y788079D01*
X588680D01*
Y788336D01*
X588552D01*
Y788594D01*
X588423D01*
Y788980D01*
X588294D01*
Y789366D01*
X588165D01*
Y789752D01*
X588037D01*
Y790267D01*
X587908D01*
Y791039D01*
X587779D01*
Y791940D01*
X587650D01*
Y797476D01*
X587779D01*
Y798505D01*
X587908D01*
Y799149D01*
X588037D01*
Y799793D01*
X588165D01*
Y800179D01*
X588294D01*
Y800565D01*
X588423D01*
Y800951D01*
X588552D01*
Y801209D01*
X588680D01*
Y801595D01*
X588809D01*
Y801852D01*
X588938D01*
Y802110D01*
X589067D01*
Y802367D01*
X589195D01*
Y802496D01*
X589324D01*
Y802753D01*
X589453D01*
Y803011D01*
X589581D01*
Y803140D01*
X589710D01*
Y803397D01*
X589839D01*
Y803526D01*
X589968D01*
Y803783D01*
X590096D01*
Y803912D01*
X590225D01*
Y804041D01*
X590354D01*
Y804298D01*
X590482D01*
Y804427D01*
X590611D01*
Y804556D01*
X590740D01*
Y804684D01*
X590869D01*
Y804813D01*
X590997D01*
Y804942D01*
X591126D01*
Y805199D01*
X591255D01*
Y805328D01*
X591384D01*
Y805457D01*
X591512D01*
Y805585D01*
X591641D01*
Y805714D01*
X591770D01*
Y805843D01*
X591898D01*
Y805972D01*
X592027D01*
Y806100D01*
X592156D01*
Y806229D01*
X592413D01*
Y806358D01*
X592542D01*
Y806486D01*
X592671D01*
Y806615D01*
X592799D01*
Y806744D01*
X592928D01*
Y806873D01*
X593057D01*
Y807001D01*
X593314D01*
Y807130D01*
X593443D01*
Y807259D01*
X593572D01*
Y807387D01*
X593701D01*
Y807516D01*
X593958D01*
Y807645D01*
X594087D01*
Y807774D01*
X594216D01*
Y807902D01*
X594473D01*
Y808031D01*
X594602D01*
Y808160D01*
X594730D01*
Y808417D01*
X594859D01*
Y810091D01*
X594988D01*
Y812537D01*
X595117D01*
Y813824D01*
X595245D01*
Y814982D01*
X595374D01*
Y815883D01*
X595503D01*
Y816785D01*
X595631D01*
Y817428D01*
X595760D01*
Y818201D01*
X595889D01*
Y818844D01*
X596018D01*
Y819359D01*
X596146D01*
Y819874D01*
X596275D01*
Y820518D01*
X596404D01*
Y821161D01*
X596533D01*
Y821290D01*
X596404D01*
Y821676D01*
X596275D01*
Y821934D01*
X596146D01*
Y822062D01*
X596018D01*
Y822320D01*
X595889D01*
Y822577D01*
X595760D01*
Y822706D01*
X595631D01*
Y822963D01*
X595503D01*
Y823092D01*
X595374D01*
Y823350D01*
X595245D01*
Y823478D01*
X595117D01*
Y823736D01*
X594988D01*
Y823993D01*
X594859D01*
Y824122D01*
X594730D01*
Y824379D01*
X594602D01*
Y824637D01*
X594473D01*
Y824766D01*
X594344D01*
Y825023D01*
X594216D01*
Y825280D01*
X594087D01*
Y825409D01*
X593958D01*
Y825667D01*
X593829D01*
Y825924D01*
X593701D01*
Y826181D01*
X593572D01*
Y826439D01*
X593443D01*
Y826696D01*
X593314D01*
Y826825D01*
X593186D01*
Y827083D01*
X593057D01*
Y827340D01*
X592928D01*
Y827598D01*
X592799D01*
Y827855D01*
X592671D01*
Y828112D01*
X592542D01*
Y828370D01*
X592413D01*
Y828627D01*
X592285D01*
Y828885D01*
X592156D01*
Y829142D01*
X592027D01*
Y829400D01*
X591898D01*
Y829657D01*
X591770D01*
Y829915D01*
X591641D01*
Y830172D01*
X591512D01*
Y830430D01*
X591384D01*
Y830687D01*
X591255D01*
Y830944D01*
X591126D01*
Y831202D01*
X590997D01*
Y831459D01*
X590869D01*
Y831845D01*
X590740D01*
Y832103D01*
X590611D01*
Y832360D01*
X590482D01*
Y832618D01*
X590354D01*
Y832875D01*
X590225D01*
Y833133D01*
X590096D01*
Y833390D01*
X589968D01*
Y833776D01*
X589839D01*
Y834034D01*
X589710D01*
Y834291D01*
X589581D01*
Y834549D01*
X589453D01*
Y834935D01*
X589324D01*
Y835192D01*
X589195D01*
Y835450D01*
X589067D01*
Y835836D01*
X588938D01*
Y836094D01*
X588809D01*
Y836351D01*
X588680D01*
Y836608D01*
X588552D01*
Y836994D01*
X588423D01*
Y837252D01*
X588294D01*
Y837638D01*
X588165D01*
Y837896D01*
X588037D01*
Y838153D01*
X587908D01*
Y838539D01*
X587779D01*
Y838797D01*
X587650D01*
Y839183D01*
X587522D01*
Y839440D01*
X587393D01*
Y839827D01*
X587264D01*
Y840084D01*
X587136D01*
Y840470D01*
X587007D01*
Y840856D01*
X586878D01*
Y841114D01*
X586749D01*
Y841500D01*
X586621D01*
Y841886D01*
X586492D01*
Y842144D01*
X586363D01*
Y842530D01*
X586235D01*
Y842787D01*
X586106D01*
Y843173D01*
X585977D01*
Y843560D01*
X585848D01*
Y843946D01*
X585720D01*
Y844203D01*
X585591D01*
Y844332D01*
X585462D01*
Y844461D01*
X585333D01*
Y844589D01*
X585205D01*
Y844718D01*
X585076D01*
Y844847D01*
X584947D01*
Y844976D01*
X584690D01*
Y845104D01*
X584561D01*
Y845233D01*
X584432D01*
Y845362D01*
X584175D01*
Y845490D01*
X584046D01*
Y845619D01*
X583917D01*
Y845748D01*
X583660D01*
Y845877D01*
X583531D01*
Y846005D01*
X583402D01*
Y846134D01*
X583274D01*
Y846263D01*
X583145D01*
Y846392D01*
X583016D01*
Y846520D01*
X582888D01*
Y846649D01*
X582759D01*
Y846778D01*
X582630D01*
Y846906D01*
X582501D01*
Y847035D01*
X582373D01*
Y847164D01*
X582244D01*
Y847421D01*
X582115D01*
Y847550D01*
X581987D01*
Y847807D01*
X581858D01*
Y847936D01*
X581729D01*
Y848065D01*
X581600D01*
Y848322D01*
X581472D01*
Y848451D01*
X581343D01*
Y848709D01*
X581214D01*
Y848837D01*
X581085D01*
Y848966D01*
X580957D01*
Y849095D01*
X580828D01*
Y849223D01*
X580699D01*
Y849481D01*
X580570D01*
Y849610D01*
X580442D01*
Y849738D01*
X580313D01*
Y849867D01*
X580184D01*
Y849996D01*
X580056D01*
Y850125D01*
X579927D01*
Y850253D01*
X579798D01*
Y850382D01*
X579669D01*
Y850511D01*
X579541D01*
Y850639D01*
X579412D01*
Y850768D01*
X579155D01*
Y850639D01*
X579026D01*
Y850382D01*
X578897D01*
Y848451D01*
X579026D01*
Y846906D01*
X579155D01*
Y846263D01*
X579026D01*
Y846392D01*
X578897D01*
Y846649D01*
X578768D01*
Y846906D01*
X578640D01*
Y847293D01*
X578511D01*
Y847936D01*
X578382D01*
Y849352D01*
X578511D01*
Y850382D01*
X578640D01*
Y850511D01*
X577867D01*
Y849610D01*
X577739D01*
Y849095D01*
X577610D01*
Y848580D01*
X577481D01*
Y848065D01*
X577352D01*
Y847679D01*
X577224D01*
Y847421D01*
X577095D01*
Y847550D01*
X576966D01*
Y848194D01*
X577095D01*
Y848966D01*
X577224D01*
Y849481D01*
X577352D01*
Y849996D01*
X577481D01*
Y850511D01*
X577352D01*
Y850639D01*
X577224D01*
Y850768D01*
X576838D01*
Y850897D01*
X576323D01*
Y851026D01*
X576065D01*
Y851154D01*
X575808D01*
Y851283D01*
X575679D01*
Y851412D01*
X575550D01*
Y851541D01*
X575421D01*
Y851669D01*
X575293D01*
Y851798D01*
X575164D01*
Y851927D01*
X575035D01*
Y852056D01*
X574907D01*
Y852313D01*
X574778D01*
Y852442D01*
X574649D01*
Y852699D01*
X574520D01*
Y852957D01*
X574392D01*
Y853343D01*
X574263D01*
Y853729D01*
X574134D01*
Y854630D01*
X574006D01*
Y855531D01*
X574134D01*
Y856175D01*
X574263D01*
Y856561D01*
X574392D01*
Y856947D01*
X574520D01*
Y857205D01*
X574649D01*
Y857462D01*
X574778D01*
Y857591D01*
X574907D01*
Y857848D01*
X575035D01*
Y857977D01*
X575164D01*
Y858106D01*
X575293D01*
Y858234D01*
X575421D01*
Y858492D01*
X575550D01*
Y858621D01*
X575808D01*
Y858749D01*
X575936D01*
Y858878D01*
X576065D01*
Y859007D01*
X576194D01*
Y859393D01*
X576065D01*
Y860165D01*
X575936D01*
Y861452D01*
X576065D01*
Y861710D01*
X576194D01*
Y861967D01*
X576323D01*
Y862096D01*
X576451D01*
Y862225D01*
X576580D01*
Y862354D01*
X576709D01*
Y862482D01*
X576838D01*
Y862611D01*
X577095D01*
Y862740D01*
X577224D01*
Y862868D01*
X577481D01*
Y862997D01*
X577867D01*
Y863126D01*
X577996D01*
Y862868D01*
X577867D01*
Y862740D01*
X577739D01*
Y862611D01*
X577610D01*
Y862482D01*
X577481D01*
Y862354D01*
X577352D01*
Y862225D01*
X577224D01*
Y862096D01*
X577095D01*
Y861967D01*
X576966D01*
Y861839D01*
X576838D01*
Y861710D01*
X576709D01*
Y861452D01*
X576580D01*
Y861066D01*
X576451D01*
Y859522D01*
X576580D01*
Y859135D01*
X576838D01*
Y859264D01*
X576966D01*
Y859393D01*
X577095D01*
Y859650D01*
X577224D01*
Y859908D01*
X577352D01*
Y860036D01*
X577481D01*
Y860165D01*
X577610D01*
Y860294D01*
X577739D01*
Y860423D01*
X577867D01*
Y860551D01*
X577996D01*
Y860680D01*
X578125D01*
Y860809D01*
X578254D01*
Y860938D01*
X578382D01*
Y861066D01*
X578640D01*
Y861195D01*
X578768D01*
Y861324D01*
X579026D01*
Y861452D01*
X579412D01*
Y861581D01*
X579798D01*
Y861710D01*
X580313D01*
Y861581D01*
X580442D01*
Y861452D01*
X580313D01*
Y861324D01*
X580056D01*
Y861195D01*
X579798D01*
Y861066D01*
X579541D01*
Y860938D01*
X579283D01*
Y860809D01*
X579155D01*
Y860680D01*
X578897D01*
Y860551D01*
X578768D01*
Y860423D01*
X578511D01*
Y860294D01*
X578382D01*
Y860165D01*
X578125D01*
Y860036D01*
X577996D01*
Y859908D01*
X577867D01*
Y859779D01*
X577739D01*
Y859650D01*
X577610D01*
Y859522D01*
X577481D01*
Y859393D01*
X577352D01*
Y859264D01*
X577224D01*
Y859135D01*
X577610D01*
Y859007D01*
X578511D01*
Y858878D01*
X580056D01*
Y858749D01*
X581987D01*
Y858878D01*
X582244D01*
Y859007D01*
X582501D01*
Y859135D01*
X582759D01*
Y859264D01*
X583016D01*
Y859393D01*
X583145D01*
Y859522D01*
X583402D01*
Y859650D01*
X583660D01*
Y859779D01*
X583789D01*
Y859908D01*
X584046D01*
Y860036D01*
X584175D01*
Y860165D01*
X584432D01*
Y860294D01*
X584690D01*
Y860423D01*
X584818D01*
Y860551D01*
X585076D01*
Y860680D01*
X585205D01*
Y860809D01*
X585462D01*
Y860938D01*
X585591D01*
Y861066D01*
X585848D01*
Y861195D01*
X585977D01*
Y861324D01*
X586235D01*
Y861452D01*
X586492D01*
Y861581D01*
X586749D01*
Y861710D01*
X586878D01*
Y861839D01*
X587136D01*
Y861967D01*
X587264D01*
Y862096D01*
X587522D01*
Y862225D01*
X587779D01*
Y862354D01*
X588037D01*
Y862482D01*
X588294D01*
Y862611D01*
X588680D01*
Y862740D01*
X588938D01*
Y862868D01*
X589324D01*
Y862997D01*
X589710D01*
Y863126D01*
X590096D01*
Y863255D01*
X590611D01*
Y863383D01*
X591255D01*
Y863512D01*
X592027D01*
Y863641D01*
X593057D01*
Y863770D01*
X594602D01*
Y863898D01*
X595245D01*
Y863770D01*
X597949D01*
Y863641D01*
X599236D01*
Y863512D01*
X600266D01*
Y863383D01*
X601295D01*
Y863255D01*
X604642D01*
Y863383D01*
X604900D01*
Y863512D01*
X605157D01*
Y863641D01*
X605415D01*
Y863770D01*
X605672D01*
Y863898D01*
X605801D01*
Y864027D01*
X606058D01*
Y864156D01*
X606316D01*
Y864285D01*
X606573D01*
Y864413D01*
X606702D01*
Y864542D01*
X606316D01*
Y864671D01*
X606058D01*
Y864799D01*
X605801D01*
Y864928D01*
X604900D01*
Y865057D01*
X604642D01*
Y865314D01*
X604771D01*
Y865443D01*
X606058D01*
Y865314D01*
X606316D01*
Y865185D01*
X606573D01*
Y865057D01*
X606702D01*
Y864928D01*
X606831D01*
Y864799D01*
X606959D01*
Y864671D01*
X607217D01*
Y864542D01*
X607603D01*
Y864413D01*
X607989D01*
Y864542D01*
X608118D01*
Y864671D01*
X607989D01*
Y864928D01*
X607860D01*
Y865185D01*
X607732D01*
Y865314D01*
X607603D01*
Y865572D01*
X607474D01*
Y865701D01*
X607346D01*
Y865829D01*
X607217D01*
Y865958D01*
X607088D01*
Y866087D01*
X606959D01*
Y866215D01*
X606831D01*
Y866473D01*
X606702D01*
Y866601D01*
X606573D01*
Y866730D01*
X606445D01*
Y866859D01*
X606316D01*
Y866988D01*
X606187D01*
Y867116D01*
X606058D01*
Y867245D01*
X605801D01*
Y867374D01*
X605672D01*
Y867503D01*
X605543D01*
Y867631D01*
X605286D01*
Y867760D01*
X605157D01*
Y867889D01*
X605930D01*
Y867760D01*
D02*
G37*
G36*
X610306Y858492D02*
X610564D01*
Y858363D01*
X610821D01*
Y858234D01*
X610950D01*
Y858106D01*
X611079D01*
Y857977D01*
X611336D01*
Y857719D01*
X611465D01*
Y857591D01*
X611594D01*
Y857333D01*
X611722D01*
Y856947D01*
X611465D01*
Y857076D01*
X611336D01*
Y857205D01*
X611207D01*
Y857333D01*
X611079D01*
Y857462D01*
X610950D01*
Y857591D01*
X610821D01*
Y857719D01*
X610692D01*
Y857848D01*
X610564D01*
Y857977D01*
X610435D01*
Y858106D01*
X610306D01*
Y858234D01*
X610177D01*
Y858363D01*
X610049D01*
Y858492D01*
X609920D01*
Y858621D01*
X610306D01*
Y858492D01*
D02*
G37*
%LPC*%
G36*
X606573Y863641D02*
X606316D01*
Y863512D01*
X606573D01*
Y863641D01*
D02*
G37*
G36*
X606316Y863512D02*
X606058D01*
Y863383D01*
X605801D01*
Y863255D01*
X605543D01*
Y863126D01*
X605415D01*
Y862997D01*
X605157D01*
Y862868D01*
X605028D01*
Y862740D01*
X604900D01*
Y862611D01*
X604642D01*
Y862482D01*
X603741D01*
Y862611D01*
X602068D01*
Y862740D01*
X600909D01*
Y862868D01*
X599879D01*
Y862997D01*
X599107D01*
Y863126D01*
X593057D01*
Y862997D01*
X591770D01*
Y862868D01*
X590997D01*
Y862740D01*
X590354D01*
Y862611D01*
X589839D01*
Y862482D01*
X589581D01*
Y862354D01*
X589195D01*
Y862225D01*
X588809D01*
Y862096D01*
X588552D01*
Y861967D01*
X588165D01*
Y861839D01*
X587908D01*
Y861710D01*
X587779D01*
Y861581D01*
X587522D01*
Y861452D01*
X587264D01*
Y861324D01*
X587007D01*
Y861195D01*
X586878D01*
Y861066D01*
X586621D01*
Y860938D01*
X586363D01*
Y860809D01*
X586235D01*
Y860680D01*
X586878D01*
Y860809D01*
X587522D01*
Y860938D01*
X588423D01*
Y861066D01*
X592413D01*
Y860938D01*
X593443D01*
Y860809D01*
X594087D01*
Y860680D01*
X594473D01*
Y860551D01*
X594730D01*
Y860423D01*
X594988D01*
Y860294D01*
X595117D01*
Y860165D01*
X595245D01*
Y860036D01*
X595374D01*
Y859908D01*
X595503D01*
Y859779D01*
X595631D01*
Y859650D01*
X595760D01*
Y859522D01*
X595889D01*
Y859264D01*
X596018D01*
Y859135D01*
X596146D01*
Y858878D01*
X596275D01*
Y858492D01*
X596404D01*
Y857848D01*
X596533D01*
Y856690D01*
X596404D01*
Y856046D01*
X596275D01*
Y855660D01*
X596146D01*
Y855274D01*
X596018D01*
Y855016D01*
X595889D01*
Y854887D01*
X595760D01*
Y854630D01*
X595631D01*
Y854501D01*
X595503D01*
Y854373D01*
X595374D01*
Y854115D01*
X595245D01*
Y853986D01*
X595117D01*
Y853858D01*
X594988D01*
Y853729D01*
X594859D01*
Y853600D01*
X594730D01*
Y853472D01*
X594602D01*
Y853343D01*
X594473D01*
Y853214D01*
X594344D01*
Y853085D01*
X594216D01*
Y852957D01*
X594087D01*
Y852828D01*
X593958D01*
Y852699D01*
X593701D01*
Y852570D01*
X593572D01*
Y852442D01*
X593443D01*
Y852313D01*
X593314D01*
Y852184D01*
X593057D01*
Y852056D01*
X592799D01*
Y851927D01*
X592542D01*
Y851798D01*
X592285D01*
Y851669D01*
X591898D01*
Y851541D01*
X591384D01*
Y851412D01*
X590869D01*
Y851283D01*
X590225D01*
Y851412D01*
X589453D01*
Y851541D01*
X588809D01*
Y851669D01*
X588165D01*
Y851798D01*
X587522D01*
Y851927D01*
X586878D01*
Y852056D01*
X586363D01*
Y852184D01*
X585977D01*
Y852313D01*
X585720D01*
Y852442D01*
X585462D01*
Y852570D01*
X585333D01*
Y852699D01*
X585205D01*
Y852828D01*
X585076D01*
Y852957D01*
X584947D01*
Y853085D01*
X584818D01*
Y853214D01*
X584690D01*
Y853472D01*
X584561D01*
Y853729D01*
X584432D01*
Y853986D01*
X584304D01*
Y854373D01*
X584175D01*
Y854759D01*
X584046D01*
Y855274D01*
X583917D01*
Y856175D01*
X583789D01*
Y857333D01*
X583917D01*
Y857977D01*
X584046D01*
Y858492D01*
X584175D01*
Y858878D01*
X584304D01*
Y859135D01*
X584432D01*
Y859393D01*
X584175D01*
Y859264D01*
X584046D01*
Y859135D01*
X583789D01*
Y859007D01*
X583531D01*
Y858878D01*
X583402D01*
Y858749D01*
X583016D01*
Y858621D01*
X582759D01*
Y858492D01*
X582373D01*
Y858363D01*
X581987D01*
Y858234D01*
X580957D01*
Y858106D01*
X580313D01*
Y858234D01*
X578897D01*
Y858363D01*
X576323D01*
Y858234D01*
X575936D01*
Y858106D01*
X575808D01*
Y857977D01*
X575679D01*
Y857848D01*
X576194D01*
Y857977D01*
X577996D01*
Y857848D01*
X578254D01*
Y857719D01*
X578382D01*
Y857591D01*
X578640D01*
Y857462D01*
X578768D01*
Y857333D01*
X578897D01*
Y857205D01*
X579026D01*
Y856947D01*
X579155D01*
Y856690D01*
X579283D01*
Y856432D01*
X579412D01*
Y856046D01*
X579541D01*
Y855402D01*
X579669D01*
Y854630D01*
X579541D01*
Y854501D01*
X579412D01*
Y854373D01*
X579283D01*
Y854244D01*
X579155D01*
Y854115D01*
X579026D01*
Y853986D01*
X578897D01*
Y853858D01*
X578640D01*
Y853729D01*
X578511D01*
Y853600D01*
X578254D01*
Y853472D01*
X578125D01*
Y853343D01*
X577867D01*
Y853214D01*
X577610D01*
Y853085D01*
X577352D01*
Y852957D01*
X577095D01*
Y852828D01*
X576838D01*
Y852699D01*
X576580D01*
Y852570D01*
X576194D01*
Y852442D01*
X575936D01*
Y852313D01*
X575679D01*
Y852056D01*
X575808D01*
Y851927D01*
X575936D01*
Y851798D01*
X576194D01*
Y851669D01*
X576451D01*
Y851541D01*
X576709D01*
Y851412D01*
X577352D01*
Y851283D01*
X578897D01*
Y851412D01*
X579155D01*
Y853085D01*
X579283D01*
Y853214D01*
X579541D01*
Y852957D01*
X579669D01*
Y852313D01*
X579798D01*
Y851798D01*
X579927D01*
Y851412D01*
X580056D01*
Y851154D01*
X580184D01*
Y850897D01*
X580313D01*
Y850768D01*
X580442D01*
Y850511D01*
X580570D01*
Y850382D01*
X580699D01*
Y850253D01*
X580828D01*
Y849996D01*
X580957D01*
Y849867D01*
X581085D01*
Y849738D01*
X581214D01*
Y849610D01*
X581343D01*
Y849481D01*
X581472D01*
Y849352D01*
X581600D01*
Y849095D01*
X581729D01*
Y848966D01*
X581858D01*
Y848837D01*
X581987D01*
Y848580D01*
X582115D01*
Y848451D01*
X582244D01*
Y848194D01*
X582373D01*
Y848065D01*
X582501D01*
Y847807D01*
X582630D01*
Y847679D01*
X582759D01*
Y847550D01*
X582888D01*
Y847293D01*
X583016D01*
Y847164D01*
X583145D01*
Y847035D01*
X583274D01*
Y846906D01*
X583402D01*
Y846778D01*
X583531D01*
Y846649D01*
X583660D01*
Y846520D01*
X583789D01*
Y846392D01*
X583917D01*
Y846263D01*
X584175D01*
Y846134D01*
X584304D01*
Y846005D01*
X584432D01*
Y845877D01*
X584690D01*
Y845748D01*
X584818D01*
Y845619D01*
X585076D01*
Y845490D01*
X585205D01*
Y845362D01*
X585462D01*
Y845233D01*
X585720D01*
Y845104D01*
X585848D01*
Y844976D01*
X586106D01*
Y844718D01*
X586235D01*
Y844332D01*
X586363D01*
Y843946D01*
X586492D01*
Y843560D01*
X586621D01*
Y843173D01*
X586749D01*
Y842787D01*
X586878D01*
Y842401D01*
X587007D01*
Y842015D01*
X587136D01*
Y841629D01*
X587264D01*
Y841371D01*
X587393D01*
Y840985D01*
X587522D01*
Y840728D01*
X587650D01*
Y840341D01*
X587779D01*
Y840084D01*
X587908D01*
Y839698D01*
X588037D01*
Y839440D01*
X588165D01*
Y839054D01*
X588294D01*
Y838797D01*
X588423D01*
Y838410D01*
X588552D01*
Y838153D01*
X588680D01*
Y837767D01*
X588809D01*
Y837509D01*
X588938D01*
Y837252D01*
X589067D01*
Y836866D01*
X589195D01*
Y836608D01*
X589324D01*
Y836351D01*
X589453D01*
Y835965D01*
X589581D01*
Y835707D01*
X589710D01*
Y835321D01*
X589839D01*
Y835064D01*
X589968D01*
Y834806D01*
X590096D01*
Y834549D01*
X590225D01*
Y834291D01*
X590354D01*
Y834034D01*
X590482D01*
Y833648D01*
X590611D01*
Y833390D01*
X590740D01*
Y833133D01*
X590869D01*
Y832875D01*
X590997D01*
Y832489D01*
X591126D01*
Y832232D01*
X591255D01*
Y831974D01*
X591384D01*
Y831717D01*
X591512D01*
Y831459D01*
X591641D01*
Y831202D01*
X591770D01*
Y830944D01*
X591898D01*
Y830687D01*
X592027D01*
Y830430D01*
X592156D01*
Y830172D01*
X592285D01*
Y829915D01*
X592413D01*
Y829657D01*
X592542D01*
Y829400D01*
X592671D01*
Y829142D01*
X592799D01*
Y828885D01*
X592928D01*
Y828627D01*
X593057D01*
Y828370D01*
X593186D01*
Y828112D01*
X593314D01*
Y827855D01*
X593443D01*
Y827598D01*
X593572D01*
Y827340D01*
X593701D01*
Y827211D01*
X593829D01*
Y826954D01*
X593958D01*
Y826696D01*
X594087D01*
Y826439D01*
X594216D01*
Y826181D01*
X594344D01*
Y826053D01*
X594473D01*
Y825795D01*
X594602D01*
Y825538D01*
X594730D01*
Y825280D01*
X594859D01*
Y825152D01*
X594988D01*
Y824894D01*
X595117D01*
Y824637D01*
X595245D01*
Y824508D01*
X595374D01*
Y824251D01*
X595503D01*
Y824122D01*
X595631D01*
Y823865D01*
X595760D01*
Y823607D01*
X595889D01*
Y823478D01*
X596018D01*
Y823221D01*
X596146D01*
Y823092D01*
X596275D01*
Y822835D01*
X596404D01*
Y822706D01*
X596533D01*
Y822449D01*
X596661D01*
Y822320D01*
X596790D01*
Y822062D01*
X596919D01*
Y821934D01*
X597048D01*
Y821676D01*
X597176D01*
Y821161D01*
X597048D01*
Y820646D01*
X596919D01*
Y820131D01*
X596790D01*
Y819488D01*
X596661D01*
Y818973D01*
X596533D01*
Y818329D01*
X596404D01*
Y817686D01*
X596275D01*
Y817042D01*
X596146D01*
Y816270D01*
X596018D01*
Y815497D01*
X595889D01*
Y814467D01*
X595760D01*
Y813052D01*
X595631D01*
Y809833D01*
X595503D01*
Y808160D01*
X595631D01*
Y808031D01*
X596018D01*
Y807902D01*
X596533D01*
Y807774D01*
X596919D01*
Y807645D01*
X597305D01*
Y807516D01*
X597562D01*
Y807387D01*
X597949D01*
Y807259D01*
X598206D01*
Y807130D01*
X598464D01*
Y807001D01*
X598850D01*
Y806873D01*
X599107D01*
Y806744D01*
X599236D01*
Y806615D01*
X599622D01*
Y806486D01*
X599751D01*
Y806358D01*
X600008D01*
Y806229D01*
X600137D01*
Y806100D01*
X600266D01*
Y805972D01*
X600523D01*
Y805843D01*
X600652D01*
Y805714D01*
X600780D01*
Y805585D01*
X600909D01*
Y805457D01*
X601038D01*
Y805328D01*
X601167D01*
Y805199D01*
X601295D01*
Y805070D01*
X601424D01*
Y804942D01*
X601553D01*
Y804813D01*
X601682D01*
Y804684D01*
X601810D01*
Y804556D01*
X601939D01*
Y804427D01*
X602068D01*
Y804298D01*
X602197D01*
Y804169D01*
X602325D01*
Y804041D01*
X602454D01*
Y803912D01*
X602583D01*
Y803783D01*
X602711D01*
Y803654D01*
X602840D01*
Y803526D01*
X602969D01*
Y803397D01*
X603484D01*
Y803526D01*
X603741D01*
Y803654D01*
X603999D01*
Y803783D01*
X604385D01*
Y803912D01*
X604642D01*
Y804041D01*
X605028D01*
Y804169D01*
X605543D01*
Y804298D01*
X606058D01*
Y804427D01*
X606831D01*
Y804556D01*
X607989D01*
Y804684D01*
X608633D01*
Y804556D01*
X610564D01*
Y804427D01*
X611336D01*
Y804298D01*
X611851D01*
Y804169D01*
X612366D01*
Y804041D01*
X612881D01*
Y803912D01*
X613009D01*
Y804041D01*
X613267D01*
Y804169D01*
X613396D01*
Y804298D01*
X613524D01*
Y804427D01*
X613653D01*
Y804556D01*
X613782D01*
Y804684D01*
X614039D01*
Y804813D01*
X614168D01*
Y804942D01*
X614426D01*
Y805070D01*
X614940D01*
Y805199D01*
X615198D01*
Y805070D01*
X615713D01*
Y804942D01*
X615970D01*
Y804813D01*
X616228D01*
Y804684D01*
X616356D01*
Y804556D01*
X616614D01*
Y804427D01*
X616743D01*
Y804298D01*
X617000D01*
Y804169D01*
X617129D01*
Y804041D01*
X617386D01*
Y803912D01*
X617515D01*
Y803783D01*
X617772D01*
Y803654D01*
X618030D01*
Y803526D01*
X618287D01*
Y803397D01*
X618802D01*
Y803268D01*
X620862D01*
Y803397D01*
X621634D01*
Y803526D01*
X621892D01*
Y803654D01*
X622020D01*
Y803912D01*
X621892D01*
Y804041D01*
X621763D01*
Y804169D01*
X621634D01*
Y804298D01*
X621505D01*
Y804427D01*
X621248D01*
Y804556D01*
X621119D01*
Y804684D01*
X620990D01*
Y804813D01*
X620604D01*
Y804942D01*
X620347D01*
Y805070D01*
X619832D01*
Y805199D01*
X619317D01*
Y805328D01*
X618802D01*
Y805457D01*
X618416D01*
Y805585D01*
X618030D01*
Y805714D01*
X617644D01*
Y805843D01*
X617386D01*
Y805972D01*
X617129D01*
Y806100D01*
X616871D01*
Y806229D01*
X616614D01*
Y806358D01*
X616485D01*
Y806486D01*
X616228D01*
Y806615D01*
X616099D01*
Y806744D01*
X615970D01*
Y806873D01*
X615841D01*
Y807001D01*
X615713D01*
Y807130D01*
X615584D01*
Y807259D01*
X615327D01*
Y807387D01*
X615198D01*
Y807516D01*
X615069D01*
Y807645D01*
X614940D01*
Y807774D01*
X614812D01*
Y807902D01*
X614683D01*
Y808031D01*
X614554D01*
Y808160D01*
X614426D01*
Y808417D01*
X614297D01*
Y808546D01*
X614168D01*
Y808675D01*
X614039D01*
Y808803D01*
X613911D01*
Y808932D01*
X613782D01*
Y809061D01*
X613653D01*
Y809318D01*
X613524D01*
Y809447D01*
X613396D01*
Y809705D01*
X613267D01*
Y809962D01*
X613138D01*
Y810219D01*
X613009D01*
Y810477D01*
X612881D01*
Y810863D01*
X612752D01*
Y811249D01*
X612881D01*
Y811121D01*
X613009D01*
Y810863D01*
X613138D01*
Y810734D01*
X613267D01*
Y810477D01*
X613396D01*
Y810219D01*
X613524D01*
Y810091D01*
X613653D01*
Y809833D01*
X613782D01*
Y809705D01*
X613911D01*
Y809576D01*
X614039D01*
Y809318D01*
X614168D01*
Y809190D01*
X614297D01*
Y809061D01*
X614426D01*
Y808932D01*
X614554D01*
Y808803D01*
X614683D01*
Y808675D01*
X614812D01*
Y808546D01*
X614940D01*
Y808417D01*
X615069D01*
Y808289D01*
X615198D01*
Y808160D01*
X615327D01*
Y808031D01*
X615455D01*
Y807902D01*
X615584D01*
Y807774D01*
X615713D01*
Y807645D01*
X615841D01*
Y807516D01*
X615970D01*
Y807387D01*
X616228D01*
Y807259D01*
X616356D01*
Y807130D01*
X616485D01*
Y807001D01*
X616614D01*
Y806873D01*
X616871D01*
Y806744D01*
X617129D01*
Y806615D01*
X617257D01*
Y806486D01*
X617515D01*
Y806358D01*
X617772D01*
Y806229D01*
X618159D01*
Y806100D01*
X618416D01*
Y805972D01*
X618931D01*
Y805843D01*
X619446D01*
Y805714D01*
X619832D01*
Y805585D01*
X620089D01*
Y805457D01*
X620476D01*
Y805328D01*
X620733D01*
Y805199D01*
X620990D01*
Y805070D01*
X621119D01*
Y804942D01*
X621377D01*
Y804813D01*
X621505D01*
Y804684D01*
X621634D01*
Y804556D01*
X621763D01*
Y804427D01*
X622020D01*
Y804298D01*
X622149D01*
Y804169D01*
X622278D01*
Y804041D01*
X622407D01*
Y803912D01*
X622535D01*
Y804041D01*
X622793D01*
Y804169D01*
X623050D01*
Y804298D01*
X623179D01*
Y804427D01*
X623436D01*
Y804556D01*
X623694D01*
Y804684D01*
X623951D01*
Y804813D01*
X624209D01*
Y804942D01*
X624466D01*
Y805070D01*
X624724D01*
Y805199D01*
X624981D01*
Y805328D01*
X625367D01*
Y805457D01*
X626011D01*
Y805585D01*
X627427D01*
Y805457D01*
X628843D01*
Y805328D01*
X629358D01*
Y805199D01*
X629615D01*
Y804942D01*
X629487D01*
Y804813D01*
X628843D01*
Y804942D01*
X625882D01*
Y804813D01*
X625238D01*
Y804684D01*
X624981D01*
Y804556D01*
X624724D01*
Y804427D01*
X624466D01*
Y804298D01*
X624209D01*
Y804169D01*
X623951D01*
Y804041D01*
X623694D01*
Y803912D01*
X623565D01*
Y803783D01*
X623308D01*
Y803654D01*
X623050D01*
Y803526D01*
X622793D01*
Y803397D01*
X622535D01*
Y803268D01*
X622278D01*
Y803140D01*
X622020D01*
Y803011D01*
X621763D01*
Y802882D01*
X621377D01*
Y802753D01*
X620733D01*
Y802625D01*
X619446D01*
Y802753D01*
X618545D01*
Y802882D01*
X618030D01*
Y803011D01*
X617772D01*
Y803140D01*
X617515D01*
Y803268D01*
X617386D01*
Y803397D01*
X617129D01*
Y803526D01*
X616871D01*
Y803654D01*
X616743D01*
Y803783D01*
X616485D01*
Y803912D01*
X616356D01*
Y804041D01*
X616099D01*
Y804169D01*
X615970D01*
Y804298D01*
X615713D01*
Y804427D01*
X615455D01*
Y804556D01*
X614554D01*
Y804427D01*
X614297D01*
Y804298D01*
X614168D01*
Y804169D01*
X614039D01*
Y804041D01*
X613911D01*
Y803912D01*
X613782D01*
Y803654D01*
X613653D01*
Y802367D01*
X613782D01*
Y801981D01*
X613911D01*
Y801595D01*
X614039D01*
Y801337D01*
X614168D01*
Y800951D01*
X614297D01*
Y800694D01*
X614426D01*
Y800308D01*
X614554D01*
Y799921D01*
X614683D01*
Y799535D01*
X614812D01*
Y799020D01*
X614940D01*
Y798505D01*
X615069D01*
Y797218D01*
X615198D01*
Y796832D01*
X615069D01*
Y795416D01*
X614940D01*
Y794644D01*
X614812D01*
Y794000D01*
X614683D01*
Y793485D01*
X614554D01*
Y792841D01*
X614426D01*
Y792327D01*
X614297D01*
Y791812D01*
X614168D01*
Y791297D01*
X614039D01*
Y790782D01*
X613911D01*
Y790138D01*
X613782D01*
Y789366D01*
X613653D01*
Y787435D01*
X613782D01*
Y787178D01*
X613911D01*
Y787049D01*
X614039D01*
Y786791D01*
X614168D01*
Y786663D01*
X614297D01*
Y786534D01*
X614426D01*
Y786405D01*
X614554D01*
Y786276D01*
X614683D01*
Y786148D01*
X614812D01*
Y786019D01*
X614940D01*
Y785890D01*
X615069D01*
Y785761D01*
X615198D01*
Y785633D01*
X615327D01*
Y785504D01*
X615455D01*
Y785375D01*
X615584D01*
Y785247D01*
X615713D01*
Y785118D01*
X615841D01*
Y784989D01*
X615970D01*
Y784861D01*
X616228D01*
Y784732D01*
X616356D01*
Y784603D01*
X616485D01*
Y784474D01*
X616614D01*
Y784346D01*
X616871D01*
Y784217D01*
X617129D01*
Y784088D01*
X617257D01*
Y783959D01*
X617515D01*
Y783831D01*
X617644D01*
Y783702D01*
X617901D01*
Y783573D01*
X618159D01*
Y783445D01*
X618287D01*
Y783316D01*
X618545D01*
Y783187D01*
X618802D01*
Y783058D01*
X619060D01*
Y782930D01*
X619317D01*
Y782801D01*
X619575D01*
Y782672D01*
X619961D01*
Y782543D01*
X620347D01*
Y782415D01*
X620733D01*
Y782286D01*
X621248D01*
Y782157D01*
X621892D01*
Y782029D01*
X624981D01*
Y782157D01*
X625882D01*
Y782286D01*
X626397D01*
Y782415D01*
X626783D01*
Y782543D01*
X627169D01*
Y782672D01*
X627556D01*
Y782801D01*
X627813D01*
Y782930D01*
X628070D01*
Y783058D01*
X628328D01*
Y783187D01*
X628585D01*
Y783316D01*
X628843D01*
Y783445D01*
X629100D01*
Y783573D01*
X629358D01*
Y783702D01*
X629615D01*
Y783831D01*
X629744D01*
Y783959D01*
X630001D01*
Y784088D01*
X630130D01*
Y784217D01*
X630387D01*
Y784346D01*
X630516D01*
Y784474D01*
X630645D01*
Y784603D01*
X630774D01*
Y784732D01*
X630902D01*
Y784861D01*
X631160D01*
Y784989D01*
X631289D01*
Y785118D01*
X631417D01*
Y785247D01*
X631546D01*
Y785375D01*
X631675D01*
Y785504D01*
X631804D01*
Y785633D01*
X631932D01*
Y785761D01*
X632061D01*
Y785890D01*
X632190D01*
Y786019D01*
X632318D01*
Y786148D01*
X632447D01*
Y786276D01*
X632576D01*
Y786405D01*
X632705D01*
Y786534D01*
X632833D01*
Y786663D01*
X632962D01*
Y786791D01*
X633091D01*
Y786920D01*
X633219D01*
Y787049D01*
X633348D01*
Y787178D01*
X633477D01*
Y787306D01*
X633606D01*
Y787435D01*
X633734D01*
Y787564D01*
X633863D01*
Y787692D01*
X633992D01*
Y787821D01*
X634121D01*
Y787950D01*
X634249D01*
Y788079D01*
X634378D01*
Y788207D01*
X634507D01*
Y788336D01*
X634636D01*
Y788465D01*
X634764D01*
Y788594D01*
X634893D01*
Y788722D01*
X635022D01*
Y788851D01*
X635150D01*
Y788980D01*
X635279D01*
Y789108D01*
X635408D01*
Y789237D01*
X635537D01*
Y789495D01*
X635665D01*
Y789623D01*
X635794D01*
Y789752D01*
X635923D01*
Y790010D01*
X636051D01*
Y790396D01*
X636180D01*
Y790782D01*
X636309D01*
Y791168D01*
X636438D01*
Y791425D01*
X636566D01*
Y791554D01*
X636695D01*
Y791812D01*
X636824D01*
Y791940D01*
X636953D01*
Y792069D01*
X637081D01*
Y792327D01*
X637210D01*
Y792455D01*
X637339D01*
Y792584D01*
X637467D01*
Y792713D01*
X637596D01*
Y792841D01*
X637725D01*
Y792970D01*
X637854D01*
Y793099D01*
X637982D01*
Y793228D01*
X638111D01*
Y793356D01*
X638240D01*
Y793485D01*
X638497D01*
Y793614D01*
X638626D01*
Y793743D01*
X638755D01*
Y793871D01*
X638884D01*
Y794000D01*
X639141D01*
Y794129D01*
X639270D01*
Y794258D01*
X639398D01*
Y794386D01*
X639527D01*
Y794515D01*
X639785D01*
Y794644D01*
X639913D01*
Y794772D01*
X640042D01*
Y794901D01*
X640171D01*
Y795030D01*
X640300D01*
Y795159D01*
X640428D01*
Y795802D01*
X640557D01*
Y799407D01*
X640428D01*
Y799664D01*
X640300D01*
Y800050D01*
X640171D01*
Y800308D01*
X640042D01*
Y800565D01*
X639913D01*
Y800823D01*
X639785D01*
Y801080D01*
X639656D01*
Y801337D01*
X639527D01*
Y801595D01*
X639398D01*
Y801852D01*
X639270D01*
Y802110D01*
X639141D01*
Y802238D01*
X639012D01*
Y802496D01*
X638884D01*
Y802625D01*
X638755D01*
Y802882D01*
X638626D01*
Y803011D01*
X638497D01*
Y803140D01*
X638368D01*
Y803397D01*
X638240D01*
Y803526D01*
X638111D01*
Y803654D01*
X637982D01*
Y803783D01*
X637854D01*
Y803912D01*
X637725D01*
Y804041D01*
X637596D01*
Y804169D01*
X637467D01*
Y804298D01*
X637339D01*
Y804556D01*
X637210D01*
Y804684D01*
X637081D01*
Y804813D01*
X636953D01*
Y804942D01*
X636824D01*
Y805070D01*
X636695D01*
Y805199D01*
X636566D01*
Y805328D01*
X636438D01*
Y805457D01*
X636309D01*
Y805585D01*
X636180D01*
Y805714D01*
X636051D01*
Y805843D01*
X635923D01*
Y805972D01*
X635794D01*
Y806100D01*
X635665D01*
Y806229D01*
X635537D01*
Y806358D01*
X635408D01*
Y806486D01*
X635279D01*
Y806615D01*
X635150D01*
Y806744D01*
X635022D01*
Y806873D01*
X634893D01*
Y807001D01*
X634764D01*
Y807130D01*
X634636D01*
Y807259D01*
X634507D01*
Y807387D01*
X634378D01*
Y807516D01*
X634249D01*
Y807645D01*
X634121D01*
Y807774D01*
X633992D01*
Y807902D01*
X633863D01*
Y808031D01*
X633734D01*
Y808160D01*
X633606D01*
Y808289D01*
X633477D01*
Y808417D01*
X633348D01*
Y808546D01*
X633219D01*
Y808675D01*
X633091D01*
Y808803D01*
X632962D01*
Y808932D01*
X632833D01*
Y809061D01*
X632705D01*
Y809190D01*
X632576D01*
Y809318D01*
X632447D01*
Y809447D01*
X632318D01*
Y809576D01*
X632190D01*
Y809705D01*
X632061D01*
Y809833D01*
X631932D01*
Y809962D01*
X631804D01*
Y810091D01*
X631675D01*
Y810219D01*
X631546D01*
Y810348D01*
X631417D01*
Y810477D01*
X631289D01*
Y810606D01*
X631160D01*
Y810734D01*
X631031D01*
Y810863D01*
X630902D01*
Y810992D01*
X630774D01*
Y811121D01*
X630516D01*
Y811249D01*
X630387D01*
Y811378D01*
X630259D01*
Y811507D01*
X630130D01*
Y811636D01*
X630001D01*
Y811764D01*
X629873D01*
Y811893D01*
X629744D01*
Y812022D01*
X629615D01*
Y812150D01*
X629487D01*
Y812279D01*
X629358D01*
Y812408D01*
X629229D01*
Y812537D01*
X629100D01*
Y812665D01*
X628971D01*
Y812794D01*
X628843D01*
Y812923D01*
X628714D01*
Y813052D01*
X628585D01*
Y813180D01*
X628457D01*
Y813309D01*
X628328D01*
Y813438D01*
X628199D01*
Y813566D01*
X628070D01*
Y813695D01*
X627942D01*
Y813824D01*
X627813D01*
Y813953D01*
X627556D01*
Y814081D01*
X627427D01*
Y814210D01*
X627298D01*
Y814339D01*
X627169D01*
Y814467D01*
X627041D01*
Y814596D01*
X626912D01*
Y814725D01*
X626783D01*
Y814854D01*
X626655D01*
Y814982D01*
X626526D01*
Y815111D01*
X626397D01*
Y815240D01*
X626268D01*
Y815368D01*
X626140D01*
Y815497D01*
X626011D01*
Y815626D01*
X625882D01*
Y815755D01*
X625753D01*
Y815883D01*
X625625D01*
Y816012D01*
X625496D01*
Y816141D01*
X625367D01*
Y816270D01*
X625238D01*
Y816398D01*
X625110D01*
Y816527D01*
X624981D01*
Y816656D01*
X624852D01*
Y816785D01*
X624724D01*
Y816913D01*
X624595D01*
Y817042D01*
X624466D01*
Y817171D01*
X624337D01*
Y817299D01*
X624209D01*
Y817428D01*
X624080D01*
Y817686D01*
X623951D01*
Y817814D01*
X623823D01*
Y817943D01*
X623694D01*
Y818072D01*
X623565D01*
Y818201D01*
X623436D01*
Y818329D01*
X623308D01*
Y818458D01*
X623179D01*
Y818587D01*
X623050D01*
Y818715D01*
X622921D01*
Y818844D01*
X622793D01*
Y818973D01*
X622664D01*
Y819230D01*
X622535D01*
Y819359D01*
X622407D01*
Y819488D01*
X622278D01*
Y819616D01*
X622149D01*
Y819874D01*
X622020D01*
Y820003D01*
X621892D01*
Y820131D01*
X621763D01*
Y820389D01*
X621634D01*
Y820518D01*
X621505D01*
Y820646D01*
X621377D01*
Y820904D01*
X621248D01*
Y821032D01*
X621119D01*
Y821161D01*
X620990D01*
Y821419D01*
X620862D01*
Y821547D01*
X620733D01*
Y821676D01*
X620604D01*
Y821934D01*
X620476D01*
Y822062D01*
X620347D01*
Y822191D01*
X620218D01*
Y822449D01*
X620089D01*
Y822577D01*
X619961D01*
Y822706D01*
X619832D01*
Y822835D01*
X619703D01*
Y822963D01*
X619575D01*
Y823092D01*
X619446D01*
Y823350D01*
X619317D01*
Y823478D01*
X619060D01*
Y823607D01*
X618931D01*
Y823736D01*
X618802D01*
Y823865D01*
X618674D01*
Y823993D01*
X618545D01*
Y824122D01*
X618416D01*
Y824251D01*
X618159D01*
Y824379D01*
X618030D01*
Y824508D01*
X617772D01*
Y824637D01*
X617644D01*
Y824766D01*
X617386D01*
Y824894D01*
X617257D01*
Y825023D01*
X617000D01*
Y825152D01*
X616743D01*
Y825280D01*
X616485D01*
Y825409D01*
X616356D01*
Y825538D01*
X616099D01*
Y825667D01*
X615841D01*
Y825795D01*
X615584D01*
Y825924D01*
X615327D01*
Y826053D01*
X615069D01*
Y826181D01*
X614812D01*
Y826310D01*
X614554D01*
Y826439D01*
X614426D01*
Y826568D01*
X614168D01*
Y826696D01*
X613911D01*
Y826825D01*
X613653D01*
Y826954D01*
X613396D01*
Y827083D01*
X613138D01*
Y827211D01*
X612881D01*
Y827340D01*
X612623D01*
Y827469D01*
X612366D01*
Y827598D01*
X612237D01*
Y827726D01*
X611980D01*
Y827855D01*
X611722D01*
Y827984D01*
X611465D01*
Y828112D01*
X611207D01*
Y828241D01*
X611079D01*
Y828370D01*
X610821D01*
Y828499D01*
X610564D01*
Y828627D01*
X610435D01*
Y828756D01*
X610177D01*
Y828885D01*
X610049D01*
Y829014D01*
X609920D01*
Y829142D01*
X609663D01*
Y829271D01*
X609534D01*
Y829400D01*
X609405D01*
Y829528D01*
X609277D01*
Y829657D01*
X609019D01*
Y829786D01*
X608890D01*
Y829915D01*
X608761D01*
Y830043D01*
X608633D01*
Y830172D01*
X608504D01*
Y830301D01*
X608375D01*
Y830430D01*
X608247D01*
Y830558D01*
X608118D01*
Y830687D01*
X607989D01*
Y830816D01*
X607860D01*
Y831073D01*
X607732D01*
Y831202D01*
X607603D01*
Y831331D01*
X607474D01*
Y831588D01*
X607346D01*
Y831717D01*
X607217D01*
Y831974D01*
X607088D01*
Y832360D01*
X606959D01*
Y832618D01*
X606831D01*
Y833004D01*
X606702D01*
Y833390D01*
X606573D01*
Y833648D01*
X606445D01*
Y834163D01*
X606316D01*
Y834678D01*
X606187D01*
Y835321D01*
X606058D01*
Y836222D01*
X605930D01*
Y837381D01*
X605801D01*
Y839698D01*
X605672D01*
Y845233D01*
X605801D01*
Y847550D01*
X605930D01*
Y849095D01*
X606058D01*
Y850253D01*
X606187D01*
Y851154D01*
X606316D01*
Y852056D01*
X606445D01*
Y852699D01*
X606573D01*
Y853343D01*
X606702D01*
Y853858D01*
X606831D01*
Y854373D01*
X606959D01*
Y854887D01*
X607088D01*
Y855274D01*
X607217D01*
Y855660D01*
X607346D01*
Y855917D01*
X607474D01*
Y856303D01*
X607603D01*
Y856561D01*
X607732D01*
Y856818D01*
X607860D01*
Y857076D01*
X607989D01*
Y857333D01*
X608118D01*
Y857462D01*
X608247D01*
Y857591D01*
X608375D01*
Y857848D01*
X608504D01*
Y857977D01*
X608633D01*
Y858234D01*
X608761D01*
Y858363D01*
X608890D01*
Y858492D01*
X609019D01*
Y858749D01*
X609148D01*
Y858878D01*
X609277D01*
Y859135D01*
X609405D01*
Y859264D01*
X609534D01*
Y859522D01*
X609663D01*
Y859650D01*
X609791D01*
Y859908D01*
X609920D01*
Y860165D01*
X610049D01*
Y860423D01*
X609405D01*
Y860294D01*
X608890D01*
Y860165D01*
X608118D01*
Y860036D01*
X606702D01*
Y860165D01*
X606058D01*
Y860294D01*
X605672D01*
Y860423D01*
X605415D01*
Y860551D01*
X605286D01*
Y861710D01*
X605415D01*
Y862225D01*
X605543D01*
Y862611D01*
X605672D01*
Y862868D01*
X605801D01*
Y862997D01*
X605930D01*
Y863126D01*
X606058D01*
Y863255D01*
X606187D01*
Y863383D01*
X606316D01*
Y863512D01*
D02*
G37*
G36*
X608890D02*
X608118D01*
Y863383D01*
X607474D01*
Y863255D01*
X607088D01*
Y863126D01*
X606831D01*
Y862997D01*
X606573D01*
Y862868D01*
X606445D01*
Y862740D01*
X606316D01*
Y862611D01*
X606187D01*
Y862354D01*
X606058D01*
Y862096D01*
X605930D01*
Y860938D01*
X606058D01*
Y860809D01*
X606316D01*
Y860680D01*
X606702D01*
Y860938D01*
X606831D01*
Y861066D01*
Y861710D01*
X606959D01*
Y861839D01*
X607088D01*
Y861967D01*
X607217D01*
Y862096D01*
X607474D01*
Y862225D01*
X608633D01*
Y862096D01*
X608890D01*
Y861967D01*
X609019D01*
Y861839D01*
X609148D01*
Y861452D01*
X609277D01*
Y861066D01*
X609791D01*
Y861195D01*
X610049D01*
Y861324D01*
X610177D01*
Y861839D01*
X610049D01*
Y862225D01*
X609920D01*
Y862482D01*
X609791D01*
Y862611D01*
X609663D01*
Y862868D01*
X609534D01*
Y862997D01*
X609405D01*
Y863126D01*
X609277D01*
Y863255D01*
X609148D01*
Y863383D01*
X608890D01*
Y863512D01*
D02*
G37*
G36*
X608504Y861710D02*
X607603D01*
Y861581D01*
X607346D01*
Y861452D01*
X607217D01*
Y861195D01*
X607088D01*
Y860809D01*
X606959D01*
Y860680D01*
X607217D01*
Y861066D01*
X607346D01*
Y861195D01*
X607474D01*
Y861324D01*
X607603D01*
Y861452D01*
X607732D01*
Y861581D01*
X607989D01*
Y861452D01*
X608247D01*
Y861324D01*
X608375D01*
Y861195D01*
X608504D01*
Y861066D01*
X608633D01*
Y860938D01*
X608761D01*
Y860809D01*
X608890D01*
Y861195D01*
X608761D01*
Y861452D01*
X608633D01*
Y861581D01*
X608504D01*
Y861710D01*
D02*
G37*
G36*
X608118Y860809D02*
X607603D01*
Y860680D01*
Y860551D01*
X607989D01*
Y860680D01*
X608118D01*
Y860809D01*
D02*
G37*
G36*
X577867Y857333D02*
X575936D01*
Y857205D01*
X575550D01*
Y857076D01*
X575293D01*
Y856947D01*
X575164D01*
Y856818D01*
X575035D01*
Y856690D01*
X574907D01*
Y856432D01*
X574778D01*
Y853600D01*
X574907D01*
Y853085D01*
X575035D01*
Y852828D01*
X575550D01*
Y852957D01*
X576065D01*
Y853085D01*
X576451D01*
Y853214D01*
X576580D01*
Y853729D01*
X576451D01*
Y853858D01*
X576323D01*
Y854373D01*
X576194D01*
Y854759D01*
X576323D01*
Y855274D01*
X576451D01*
Y855402D01*
X576580D01*
Y855531D01*
X576709D01*
Y855660D01*
X576838D01*
Y855788D01*
X577224D01*
Y855917D01*
X578511D01*
Y855788D01*
X578768D01*
Y855660D01*
X578897D01*
Y855531D01*
X579026D01*
Y855917D01*
X578897D01*
Y856175D01*
X578768D01*
Y856432D01*
X578640D01*
Y856690D01*
X578511D01*
Y856818D01*
X578382D01*
Y856947D01*
X578254D01*
Y857076D01*
X578125D01*
Y857205D01*
X577867D01*
Y857333D01*
D02*
G37*
G36*
X578382Y855402D02*
X577224D01*
Y855274D01*
X576966D01*
Y855145D01*
X576838D01*
Y854887D01*
X576709D01*
Y853986D01*
X576838D01*
Y853729D01*
X576966D01*
Y853600D01*
X577224D01*
Y853858D01*
X577095D01*
Y854630D01*
X577224D01*
Y854759D01*
X577352D01*
Y854887D01*
X577481D01*
Y855016D01*
X577739D01*
Y855145D01*
X578254D01*
Y855016D01*
X578382D01*
Y854887D01*
X578640D01*
Y854759D01*
X578768D01*
Y855016D01*
X578640D01*
Y855145D01*
X578511D01*
Y855274D01*
X578382D01*
Y855402D01*
D02*
G37*
G36*
X578254Y854501D02*
X577739D01*
Y854373D01*
X577610D01*
Y854115D01*
X577481D01*
Y853986D01*
X577610D01*
Y853858D01*
X577996D01*
Y853986D01*
X578125D01*
Y854115D01*
X578254D01*
Y854244D01*
X578382D01*
Y854373D01*
X578254D01*
Y854501D01*
D02*
G37*
G36*
X593958Y860294D02*
X587264D01*
Y860165D01*
X586621D01*
Y860036D01*
X586363D01*
Y859908D01*
X585977D01*
Y859779D01*
X585720D01*
Y859650D01*
X585591D01*
Y859522D01*
X585462D01*
Y859393D01*
X585333D01*
Y859264D01*
X585205D01*
Y859135D01*
X585076D01*
Y859007D01*
X584947D01*
Y858878D01*
X584818D01*
Y858621D01*
X584690D01*
Y858492D01*
Y858234D01*
X584561D01*
Y857591D01*
X584432D01*
Y856175D01*
X584561D01*
Y854887D01*
X584690D01*
Y854501D01*
X584818D01*
Y854244D01*
X584947D01*
Y853986D01*
X585076D01*
Y853729D01*
X585205D01*
Y853472D01*
X585333D01*
Y853343D01*
X585462D01*
Y853214D01*
X585591D01*
Y853085D01*
X585720D01*
Y852957D01*
X585977D01*
Y852828D01*
X586235D01*
Y852699D01*
X586621D01*
Y852570D01*
X587007D01*
Y852442D01*
X587650D01*
Y852313D01*
X588423D01*
Y852184D01*
X589067D01*
Y852056D01*
X589839D01*
Y851927D01*
X591126D01*
Y852056D01*
X591641D01*
Y852184D01*
X592027D01*
Y852313D01*
X592285D01*
Y852442D01*
X592542D01*
Y852570D01*
X592799D01*
Y852699D01*
X592928D01*
Y852828D01*
X593057D01*
Y852957D01*
X593314D01*
Y853085D01*
X593443D01*
Y853214D01*
X593572D01*
Y853343D01*
X593701D01*
Y853472D01*
X593958D01*
Y853600D01*
X594087D01*
Y853729D01*
X594216D01*
Y853858D01*
X594344D01*
Y853986D01*
X594473D01*
Y854115D01*
X594602D01*
Y854244D01*
X594730D01*
Y854501D01*
X594859D01*
Y854630D01*
X594988D01*
Y854759D01*
X595117D01*
Y854887D01*
X595245D01*
Y855145D01*
X595374D01*
Y855274D01*
X595503D01*
Y855531D01*
X595631D01*
Y855788D01*
X595760D01*
Y856303D01*
X595889D01*
Y858106D01*
X595760D01*
Y858621D01*
X595631D01*
Y858878D01*
X595503D01*
Y859135D01*
X595374D01*
Y859264D01*
X595245D01*
Y859393D01*
X595117D01*
Y859522D01*
X594988D01*
Y859650D01*
X594859D01*
Y859779D01*
X594730D01*
Y859908D01*
X594473D01*
Y860036D01*
X594344D01*
Y860165D01*
X593958D01*
Y860294D01*
D02*
G37*
G36*
X595631Y807516D02*
X595117D01*
Y807387D01*
X594730D01*
Y807259D01*
X594473D01*
Y807130D01*
X594216D01*
Y807001D01*
X594087D01*
Y806873D01*
X593829D01*
Y806744D01*
X593701D01*
Y806615D01*
X593443D01*
Y806486D01*
X593314D01*
Y806358D01*
X593186D01*
Y806229D01*
X593057D01*
Y806100D01*
X592928D01*
Y805972D01*
X592671D01*
Y805843D01*
X592542D01*
Y805714D01*
X592413D01*
Y805585D01*
X592285D01*
Y805457D01*
X592156D01*
Y805328D01*
X592027D01*
Y805199D01*
X591898D01*
Y805070D01*
X591770D01*
Y804942D01*
X591641D01*
Y804813D01*
X591512D01*
Y804556D01*
X591384D01*
Y804427D01*
X591255D01*
Y804298D01*
X591126D01*
Y804169D01*
X590997D01*
Y804041D01*
X590869D01*
Y803912D01*
X590740D01*
Y803654D01*
X590611D01*
Y803526D01*
X590482D01*
Y803397D01*
X590354D01*
Y803140D01*
X590225D01*
Y803011D01*
X590096D01*
Y802753D01*
X589968D01*
Y802496D01*
X589839D01*
Y802367D01*
X589710D01*
Y802110D01*
X589581D01*
Y801852D01*
X589453D01*
Y801466D01*
X589324D01*
Y801209D01*
X589195D01*
Y800951D01*
X589067D01*
Y800694D01*
X588938D01*
Y800308D01*
X588809D01*
Y799921D01*
X588680D01*
Y799664D01*
X588809D01*
Y799793D01*
X588938D01*
Y800050D01*
X589067D01*
Y800179D01*
X589195D01*
Y800308D01*
X589324D01*
Y800565D01*
X589453D01*
Y800694D01*
X589581D01*
Y800823D01*
X589710D01*
Y800951D01*
X589839D01*
Y801080D01*
X589968D01*
Y801209D01*
X590096D01*
Y801337D01*
X590225D01*
Y801595D01*
X590354D01*
Y801724D01*
X590482D01*
Y801852D01*
X590611D01*
Y801981D01*
X590740D01*
Y802110D01*
X590869D01*
Y802238D01*
X590997D01*
Y802367D01*
X591126D01*
Y802496D01*
X591255D01*
Y802625D01*
X591384D01*
Y802753D01*
X591512D01*
Y802882D01*
X591641D01*
Y803011D01*
X591770D01*
Y803140D01*
X591898D01*
Y803268D01*
X592027D01*
Y803397D01*
X592156D01*
Y803526D01*
X592285D01*
Y803268D01*
X592156D01*
Y803011D01*
X592027D01*
Y802882D01*
X591898D01*
Y802753D01*
X591770D01*
Y802496D01*
X591641D01*
Y802367D01*
X591512D01*
Y802238D01*
X591384D01*
Y802110D01*
X591255D01*
Y801981D01*
X591126D01*
Y801724D01*
X590997D01*
Y801595D01*
X590869D01*
Y801466D01*
X590740D01*
Y801337D01*
X590611D01*
Y801209D01*
X590482D01*
Y800951D01*
X590354D01*
Y800823D01*
X590225D01*
Y800694D01*
X590096D01*
Y800565D01*
X589968D01*
Y800436D01*
X589839D01*
Y800179D01*
X589710D01*
Y800050D01*
X589581D01*
Y799793D01*
X589453D01*
Y799664D01*
X589324D01*
Y799407D01*
X589195D01*
Y799020D01*
X589067D01*
Y798505D01*
X588938D01*
Y794258D01*
X589067D01*
Y793356D01*
X589195D01*
Y792713D01*
X589324D01*
Y792198D01*
X589453D01*
Y791683D01*
X589581D01*
Y791297D01*
X589710D01*
Y790782D01*
X589839D01*
Y790524D01*
X589710D01*
Y790653D01*
X589581D01*
Y790911D01*
X589453D01*
Y791168D01*
X589324D01*
Y791425D01*
X589195D01*
Y791812D01*
X589067D01*
Y792069D01*
X588938D01*
Y792584D01*
X588809D01*
Y792970D01*
X588680D01*
Y793485D01*
X588552D01*
Y794129D01*
X588423D01*
Y795030D01*
X588294D01*
Y796446D01*
X588165D01*
Y792327D01*
X588294D01*
Y791168D01*
X588423D01*
Y790524D01*
X588552D01*
Y790010D01*
X588680D01*
Y789495D01*
X588809D01*
Y789108D01*
X588938D01*
Y788851D01*
X589067D01*
Y788465D01*
X589195D01*
Y788207D01*
X589324D01*
Y787950D01*
X589453D01*
Y787821D01*
X589581D01*
Y787564D01*
X589710D01*
Y787306D01*
X589839D01*
Y787049D01*
X589968D01*
Y786920D01*
X590096D01*
Y786663D01*
X590225D01*
Y786534D01*
X590354D01*
Y786405D01*
X590482D01*
Y786276D01*
X590611D01*
Y786148D01*
X590740D01*
Y786019D01*
X590869D01*
Y785890D01*
X590997D01*
Y785761D01*
X591126D01*
Y785633D01*
X591255D01*
Y785504D01*
X591384D01*
Y785375D01*
X591512D01*
Y785247D01*
X591770D01*
Y785118D01*
X591898D01*
Y784989D01*
X592027D01*
Y784861D01*
X592285D01*
Y784732D01*
X592413D01*
Y784603D01*
X592671D01*
Y784474D01*
X592928D01*
Y784346D01*
X593314D01*
Y784217D01*
X593701D01*
Y784088D01*
X594216D01*
Y783959D01*
X594988D01*
Y783831D01*
X596146D01*
Y783702D01*
X597048D01*
Y783959D01*
X597176D01*
Y784861D01*
X597048D01*
Y785118D01*
X596919D01*
Y785504D01*
X596790D01*
Y785890D01*
X596661D01*
Y786405D01*
X596790D01*
Y786791D01*
X596919D01*
Y786920D01*
X597048D01*
Y787049D01*
X597176D01*
Y787178D01*
X597305D01*
Y787306D01*
X597562D01*
Y787435D01*
X597691D01*
Y787564D01*
X597820D01*
Y787692D01*
X598077D01*
Y787821D01*
X598206D01*
Y787950D01*
X598464D01*
Y788079D01*
X598721D01*
Y788207D01*
X598850D01*
Y788336D01*
X599107D01*
Y788465D01*
X599236D01*
Y788594D01*
X599493D01*
Y788722D01*
X599751D01*
Y788851D01*
X599879D01*
Y788980D01*
X600137D01*
Y789108D01*
X600266D01*
Y789237D01*
X600394D01*
Y789366D01*
X600652D01*
Y789495D01*
X600780D01*
Y789623D01*
X600909D01*
Y789752D01*
X601038D01*
Y789881D01*
X601295D01*
Y790010D01*
X601424D01*
Y790138D01*
X601553D01*
Y790267D01*
X601682D01*
Y790396D01*
X601810D01*
Y790782D01*
X600266D01*
Y790653D01*
X599236D01*
Y790524D01*
X598592D01*
Y790396D01*
X598206D01*
Y790267D01*
X597691D01*
Y790138D01*
X597176D01*
Y790010D01*
X596533D01*
Y789881D01*
X594344D01*
Y790010D01*
X593829D01*
Y790138D01*
X593443D01*
Y790267D01*
X593057D01*
Y790396D01*
X592671D01*
Y790524D01*
X592285D01*
Y790653D01*
X592027D01*
Y790782D01*
X591770D01*
Y790911D01*
X591512D01*
Y791039D01*
X591384D01*
Y791168D01*
X591126D01*
Y791297D01*
X590997D01*
Y791425D01*
X590869D01*
Y791683D01*
X590740D01*
Y791812D01*
X590611D01*
Y792069D01*
X590482D01*
Y792327D01*
X590354D01*
Y792584D01*
X590225D01*
Y792841D01*
Y792970D01*
Y794386D01*
X590354D01*
Y794901D01*
X590482D01*
Y795287D01*
X590611D01*
Y795931D01*
X590482D01*
Y796446D01*
X590354D01*
Y798377D01*
X590482D01*
Y798892D01*
X590611D01*
Y799278D01*
X590740D01*
Y799664D01*
X590869D01*
Y799921D01*
X590997D01*
Y800179D01*
X591126D01*
Y800436D01*
X591255D01*
Y800694D01*
X591384D01*
Y800951D01*
X591512D01*
Y801209D01*
X591641D01*
Y801466D01*
X591770D01*
Y801724D01*
X591898D01*
Y801981D01*
X592027D01*
Y802238D01*
X592156D01*
Y802496D01*
X592285D01*
Y802753D01*
X592413D01*
Y803011D01*
X592542D01*
Y803268D01*
X592671D01*
Y803526D01*
X592799D01*
Y803654D01*
X592928D01*
Y803912D01*
X593057D01*
Y804169D01*
X593186D01*
Y804298D01*
X593314D01*
Y804556D01*
X593443D01*
Y804684D01*
X593572D01*
Y804813D01*
X593701D01*
Y804942D01*
X593829D01*
Y805070D01*
X593958D01*
Y805199D01*
X594087D01*
Y805328D01*
X594216D01*
Y805457D01*
X594344D01*
Y805585D01*
X594473D01*
Y805714D01*
X594602D01*
Y805843D01*
X594859D01*
Y805972D01*
X594988D01*
Y806100D01*
X595245D01*
Y806229D01*
X595631D01*
Y806358D01*
X596661D01*
Y806229D01*
X596919D01*
Y806100D01*
X597176D01*
Y805972D01*
X597305D01*
Y805843D01*
X597434D01*
Y805714D01*
X597562D01*
Y805585D01*
X597691D01*
Y805457D01*
X597820D01*
Y805328D01*
X597949D01*
Y805199D01*
X598077D01*
Y805070D01*
X598206D01*
Y804942D01*
X598335D01*
Y804813D01*
X598464D01*
Y804556D01*
X598592D01*
Y804427D01*
X598721D01*
Y804169D01*
X598850D01*
Y804041D01*
X598978D01*
Y803783D01*
X599107D01*
Y803526D01*
X599236D01*
Y803397D01*
X599365D01*
Y803140D01*
X599493D01*
Y802882D01*
X599622D01*
Y802625D01*
X599751D01*
Y802496D01*
X599879D01*
Y802238D01*
X600008D01*
Y801981D01*
X600137D01*
Y801724D01*
X600266D01*
Y801466D01*
X600394D01*
Y801337D01*
X600523D01*
Y801209D01*
X600652D01*
Y801337D01*
X600909D01*
Y801466D01*
X601038D01*
Y801595D01*
X601167D01*
Y801724D01*
X601295D01*
Y801852D01*
X601424D01*
Y801981D01*
X601553D01*
Y802110D01*
X601682D01*
Y802238D01*
X601810D01*
Y802367D01*
X601939D01*
Y802496D01*
X602068D01*
Y802625D01*
X602197D01*
Y802753D01*
X602454D01*
Y802882D01*
X602583D01*
Y803140D01*
X602454D01*
Y803268D01*
X602325D01*
Y803397D01*
X602197D01*
Y803526D01*
X602068D01*
Y803654D01*
X601939D01*
Y803783D01*
X601810D01*
Y803912D01*
X601682D01*
Y804041D01*
X601553D01*
Y804169D01*
X601424D01*
Y804298D01*
X601295D01*
Y804427D01*
X601167D01*
Y804556D01*
X601038D01*
Y804684D01*
X600909D01*
Y804813D01*
X600780D01*
Y804942D01*
X600652D01*
Y805070D01*
X600523D01*
Y805199D01*
X600394D01*
Y805328D01*
X600137D01*
Y805457D01*
X600008D01*
Y805585D01*
X599879D01*
Y805714D01*
X599751D01*
Y805843D01*
X599493D01*
Y805972D01*
X599365D01*
Y806100D01*
X599107D01*
Y806229D01*
X598850D01*
Y806358D01*
X598592D01*
Y806486D01*
X598335D01*
Y806615D01*
X597949D01*
Y806744D01*
X597691D01*
Y806873D01*
X597434D01*
Y807001D01*
X597048D01*
Y807130D01*
X596661D01*
Y807259D01*
X596275D01*
Y807387D01*
X595631D01*
Y807516D01*
D02*
G37*
G36*
X609920Y803912D02*
X606187D01*
Y803783D01*
X605672D01*
Y803654D01*
X605286D01*
Y803526D01*
X604900D01*
Y803397D01*
X604642D01*
Y803268D01*
X604385D01*
Y803140D01*
X604127D01*
Y803011D01*
X603870D01*
Y802882D01*
X603613D01*
Y802753D01*
X603355D01*
Y802625D01*
X603226D01*
Y802496D01*
X602969D01*
Y802367D01*
X602840D01*
Y802238D01*
X602711D01*
Y802110D01*
X602454D01*
Y801981D01*
X602325D01*
Y801852D01*
X602197D01*
Y801724D01*
X602068D01*
Y801595D01*
X601939D01*
Y801466D01*
X601682D01*
Y801337D01*
X601553D01*
Y801209D01*
X601424D01*
Y800951D01*
X601295D01*
Y800823D01*
X601167D01*
Y800694D01*
X601038D01*
Y800565D01*
X600909D01*
Y800308D01*
X600780D01*
Y800179D01*
X600652D01*
Y799921D01*
X600523D01*
Y799793D01*
X600394D01*
Y799535D01*
X600266D01*
Y799278D01*
X600137D01*
Y799020D01*
X600008D01*
Y798763D01*
X599879D01*
Y798505D01*
X599751D01*
Y798248D01*
X599622D01*
Y798119D01*
X599751D01*
Y797990D01*
X600137D01*
Y798119D01*
X600780D01*
Y798248D01*
X601295D01*
Y798377D01*
X601810D01*
Y798505D01*
X602197D01*
Y798634D01*
X602711D01*
Y798763D01*
X603355D01*
Y798892D01*
X604127D01*
Y799020D01*
X605801D01*
Y799149D01*
X609534D01*
Y799278D01*
X612108D01*
Y799407D01*
X613911D01*
Y799535D01*
X614168D01*
Y799793D01*
X614039D01*
Y799921D01*
X613911D01*
Y800050D01*
X613524D01*
Y800179D01*
X613138D01*
Y800308D01*
X612366D01*
Y800436D01*
X611465D01*
Y800565D01*
X610177D01*
Y800694D01*
X606959D01*
Y800565D01*
X606058D01*
Y800436D01*
X605543D01*
Y800308D01*
X605028D01*
Y800179D01*
X604642D01*
Y800050D01*
X604256D01*
Y799921D01*
X603999D01*
Y799793D01*
X603613D01*
Y799664D01*
X603355D01*
Y799535D01*
X603098D01*
Y799407D01*
X602969D01*
Y799278D01*
X602711D01*
Y799149D01*
X602454D01*
Y799278D01*
X602583D01*
Y799407D01*
X602711D01*
Y799535D01*
X602840D01*
Y799664D01*
X602969D01*
Y799793D01*
X603226D01*
Y799921D01*
X603484D01*
Y800050D01*
X603613D01*
Y800179D01*
X603870D01*
Y800308D01*
X604127D01*
Y800436D01*
X604385D01*
Y800565D01*
X604642D01*
Y800694D01*
X604900D01*
Y800823D01*
X605286D01*
Y800951D01*
X605672D01*
Y801080D01*
X606187D01*
Y801209D01*
X610692D01*
Y801080D01*
X611465D01*
Y800951D01*
X611980D01*
Y800823D01*
X612366D01*
Y800694D01*
X612881D01*
Y800565D01*
X613396D01*
Y800436D01*
X613782D01*
Y800694D01*
X613653D01*
Y801080D01*
X613524D01*
Y801337D01*
X613396D01*
Y801724D01*
X613267D01*
Y802110D01*
X613138D01*
Y802625D01*
X613009D01*
Y803268D01*
X612881D01*
Y803397D01*
X612752D01*
Y803526D01*
X612237D01*
Y803654D01*
X611722D01*
Y803783D01*
X609920D01*
Y803912D01*
D02*
G37*
G36*
X596661Y805714D02*
X595631D01*
Y805585D01*
X595245D01*
Y805457D01*
X595117D01*
Y805328D01*
X594859D01*
Y805199D01*
X594730D01*
Y805070D01*
X594602D01*
Y804942D01*
X594473D01*
Y804813D01*
X594344D01*
Y804684D01*
X594216D01*
Y804556D01*
X594087D01*
Y804427D01*
X593958D01*
Y804169D01*
X593829D01*
Y804041D01*
X593701D01*
Y803783D01*
X593572D01*
Y803654D01*
X593443D01*
Y803397D01*
X593314D01*
Y803140D01*
X593186D01*
Y803011D01*
X593057D01*
Y802625D01*
X592928D01*
Y802367D01*
X593314D01*
Y802238D01*
X593829D01*
Y802110D01*
X594344D01*
Y801981D01*
X594730D01*
Y801852D01*
X595245D01*
Y801724D01*
X595631D01*
Y801595D01*
X596018D01*
Y801466D01*
X596404D01*
Y801337D01*
X596661D01*
Y801209D01*
X596919D01*
Y801080D01*
X597176D01*
Y800951D01*
X597434D01*
Y800823D01*
X597562D01*
Y800694D01*
X597820D01*
Y800565D01*
X597949D01*
Y800436D01*
X598206D01*
Y800308D01*
X598335D01*
Y800179D01*
X598464D01*
Y800050D01*
X598721D01*
Y799921D01*
X598850D01*
Y799793D01*
X599107D01*
Y799664D01*
X599236D01*
Y799535D01*
X599622D01*
Y799664D01*
X599751D01*
Y799921D01*
X599879D01*
Y800179D01*
X600008D01*
Y800823D01*
X599879D01*
Y801080D01*
X599751D01*
Y801337D01*
X599622D01*
Y801595D01*
X599493D01*
Y801852D01*
X599365D01*
Y801981D01*
Y802110D01*
X599236D01*
Y802367D01*
X599107D01*
Y802625D01*
X598978D01*
Y802882D01*
X598850D01*
Y803011D01*
X598721D01*
Y803268D01*
X598592D01*
Y803526D01*
X598464D01*
Y803654D01*
X598335D01*
Y803912D01*
X598206D01*
Y804041D01*
X598077D01*
Y804298D01*
X597949D01*
Y804427D01*
X597820D01*
Y804684D01*
X597691D01*
Y804813D01*
X597562D01*
Y804942D01*
X597434D01*
Y805070D01*
X597305D01*
Y805199D01*
X597176D01*
Y805328D01*
X597048D01*
Y805457D01*
X596919D01*
Y805585D01*
X596661D01*
Y805714D01*
D02*
G37*
G36*
X607217Y798634D02*
X605672D01*
Y798505D01*
X604642D01*
Y798377D01*
X603741D01*
Y798248D01*
X603098D01*
Y798119D01*
X602583D01*
Y797990D01*
X601939D01*
Y797862D01*
X601810D01*
Y797476D01*
X601939D01*
Y797347D01*
X602068D01*
Y797218D01*
X602197D01*
Y797089D01*
X602325D01*
Y796961D01*
X602454D01*
Y796832D01*
X602583D01*
Y796703D01*
X602711D01*
Y796574D01*
X602840D01*
Y796446D01*
X602969D01*
Y796317D01*
X603098D01*
Y796060D01*
X603226D01*
Y795931D01*
X603355D01*
Y795802D01*
X603484D01*
Y795673D01*
X603870D01*
Y795802D01*
X603999D01*
Y795931D01*
X604127D01*
Y796060D01*
X604256D01*
Y796188D01*
X604385D01*
Y796317D01*
X604514D01*
Y796446D01*
X604642D01*
Y796574D01*
X604771D01*
Y796703D01*
X604900D01*
Y796832D01*
X605028D01*
Y796961D01*
X605157D01*
Y797089D01*
X605415D01*
Y797218D01*
X605543D01*
Y797347D01*
X605672D01*
Y797476D01*
X605801D01*
Y797604D01*
X606058D01*
Y797733D01*
X606187D01*
Y797862D01*
X606316D01*
Y797990D01*
X606573D01*
Y798119D01*
X606831D01*
Y798248D01*
X606959D01*
Y798377D01*
X607217D01*
Y798634D01*
D02*
G37*
G36*
X593314Y801724D02*
X592671D01*
Y801595D01*
X592542D01*
Y801466D01*
X592413D01*
Y801337D01*
X592285D01*
Y801080D01*
X592156D01*
Y800951D01*
X592027D01*
Y800694D01*
X591898D01*
Y800436D01*
X591770D01*
Y800179D01*
X591641D01*
Y799921D01*
X591512D01*
Y799664D01*
X591384D01*
Y799278D01*
X591255D01*
Y799020D01*
X591126D01*
Y798634D01*
X590997D01*
Y798119D01*
X590869D01*
Y796832D01*
X590997D01*
Y796317D01*
X591126D01*
Y796188D01*
X591770D01*
Y796317D01*
X592156D01*
Y796446D01*
X592671D01*
Y796574D01*
X593186D01*
Y796703D01*
X595889D01*
Y796574D01*
X596404D01*
Y796446D01*
X596790D01*
Y796317D01*
X597176D01*
Y796188D01*
X597434D01*
Y796060D01*
X597820D01*
Y795931D01*
X598077D01*
Y795802D01*
X598464D01*
Y795673D01*
X598978D01*
Y795545D01*
X600266D01*
Y795416D01*
X600909D01*
Y795287D01*
X601424D01*
Y795159D01*
X601939D01*
Y795030D01*
X602325D01*
Y794901D01*
X602711D01*
Y794772D01*
X603355D01*
Y794901D01*
X603226D01*
Y795159D01*
X603098D01*
Y795287D01*
X602969D01*
Y795545D01*
X602840D01*
Y795673D01*
X602711D01*
Y795802D01*
X602583D01*
Y795931D01*
X602454D01*
Y796188D01*
X602325D01*
Y796317D01*
X602197D01*
Y796446D01*
X602068D01*
Y796574D01*
X601939D01*
Y796703D01*
X601810D01*
Y796832D01*
X601682D01*
Y796961D01*
X601553D01*
Y797089D01*
X601424D01*
Y797218D01*
X601167D01*
Y797347D01*
X601038D01*
Y797476D01*
X600266D01*
Y797347D01*
X599751D01*
Y797218D01*
X599236D01*
Y797089D01*
X598721D01*
Y797218D01*
Y797476D01*
X598850D01*
Y797862D01*
X598978D01*
Y798248D01*
X599107D01*
Y798634D01*
X599236D01*
Y798892D01*
X599107D01*
Y799020D01*
X598850D01*
Y799149D01*
X598721D01*
Y799278D01*
X598592D01*
Y799407D01*
X598464D01*
Y799535D01*
X598206D01*
Y799664D01*
X598077D01*
Y799793D01*
X597949D01*
Y799921D01*
X597691D01*
Y800050D01*
X597562D01*
Y800179D01*
X597305D01*
Y800308D01*
X597048D01*
Y800436D01*
X596919D01*
Y800565D01*
X596661D01*
Y800694D01*
X596275D01*
Y800823D01*
X596018D01*
Y800951D01*
X595760D01*
Y801080D01*
X595374D01*
Y801209D01*
X594859D01*
Y801337D01*
X594473D01*
Y801466D01*
X593958D01*
Y801595D01*
X593314D01*
Y801724D01*
D02*
G37*
G36*
X613911Y798763D02*
X610435D01*
Y798634D01*
X609663D01*
Y798505D01*
X609148D01*
Y798377D01*
X608633D01*
Y798248D01*
X608247D01*
Y798119D01*
X607860D01*
Y797990D01*
X607603D01*
Y797862D01*
X607346D01*
Y797733D01*
X607088D01*
Y797604D01*
X606831D01*
Y797476D01*
X606573D01*
Y797347D01*
X606445D01*
Y797218D01*
X606187D01*
Y797089D01*
X606058D01*
Y796961D01*
X605930D01*
Y796832D01*
X605672D01*
Y796703D01*
X605543D01*
Y796574D01*
X605415D01*
Y796446D01*
X605286D01*
Y796317D01*
X605157D01*
Y796188D01*
X605028D01*
Y796060D01*
X604900D01*
Y795802D01*
X604771D01*
Y795673D01*
X604642D01*
Y795545D01*
X604514D01*
Y795416D01*
Y795287D01*
X604385D01*
Y795159D01*
X604256D01*
Y794901D01*
X604127D01*
Y794772D01*
X603999D01*
Y794515D01*
X603870D01*
Y794129D01*
X603741D01*
Y793743D01*
X603613D01*
Y793228D01*
X603484D01*
Y792198D01*
X603355D01*
Y789881D01*
X603484D01*
Y790010D01*
X603741D01*
Y790138D01*
X603999D01*
Y790267D01*
X604127D01*
Y790396D01*
X604385D01*
Y790524D01*
X604514D01*
Y790653D01*
X604771D01*
Y790782D01*
X604900D01*
Y790911D01*
X605157D01*
Y791039D01*
X605286D01*
Y791168D01*
X605543D01*
Y791297D01*
X605801D01*
Y791425D01*
X606058D01*
Y791554D01*
X606316D01*
Y791683D01*
X606573D01*
Y791812D01*
X606702D01*
Y791940D01*
X606959D01*
Y792069D01*
X607217D01*
Y792198D01*
X607474D01*
Y792327D01*
X607732D01*
Y792455D01*
X608118D01*
Y792584D01*
X608375D01*
Y792713D01*
X608633D01*
Y792841D01*
X608890D01*
Y792970D01*
X609277D01*
Y793099D01*
X609534D01*
Y793228D01*
X610049D01*
Y793356D01*
X610692D01*
Y793485D01*
X611594D01*
Y793614D01*
X612623D01*
Y793485D01*
X613396D01*
Y793356D01*
X614039D01*
Y793614D01*
X614168D01*
Y794000D01*
X614297D01*
Y794772D01*
X614426D01*
Y796574D01*
X614554D01*
Y797733D01*
X614426D01*
Y798634D01*
X613911D01*
Y798763D01*
D02*
G37*
G36*
X595631Y796188D02*
X593572D01*
Y796060D01*
X592799D01*
Y795931D01*
X592413D01*
Y795802D01*
X592027D01*
Y795673D01*
X591641D01*
Y795545D01*
X591512D01*
Y795416D01*
X591384D01*
Y795287D01*
X591255D01*
Y795159D01*
X591126D01*
Y794901D01*
X590997D01*
Y794515D01*
X590869D01*
Y793871D01*
X590740D01*
Y792841D01*
X590869D01*
Y792455D01*
X590997D01*
Y792198D01*
X591126D01*
Y792069D01*
X591255D01*
Y791940D01*
X591384D01*
Y791812D01*
X591512D01*
Y791683D01*
X591641D01*
Y791554D01*
X591770D01*
Y791425D01*
X592027D01*
Y791297D01*
X592156D01*
Y791168D01*
X592542D01*
Y791039D01*
X592799D01*
Y790911D01*
X593314D01*
Y790782D01*
X593829D01*
Y790653D01*
X594087D01*
Y790782D01*
X594216D01*
Y790911D01*
X594344D01*
Y791039D01*
X594473D01*
Y791168D01*
X594602D01*
Y791297D01*
X594859D01*
Y791425D01*
X594988D01*
Y791554D01*
X595117D01*
Y791683D01*
X595374D01*
Y791812D01*
X595631D01*
Y791940D01*
X596018D01*
Y792069D01*
X597305D01*
Y791940D01*
X597820D01*
Y791812D01*
X598335D01*
Y791683D01*
X598721D01*
Y791554D01*
X599107D01*
Y791425D01*
X599493D01*
Y791297D01*
X600652D01*
Y791425D01*
X601038D01*
Y791554D01*
X601167D01*
Y791683D01*
X601038D01*
Y791940D01*
X600909D01*
Y792198D01*
X600780D01*
Y792327D01*
X600652D01*
Y792584D01*
X600523D01*
Y792713D01*
X600394D01*
Y792841D01*
X600266D01*
Y793099D01*
X600137D01*
Y793228D01*
X600008D01*
Y793356D01*
X599879D01*
Y793485D01*
X599751D01*
Y793614D01*
X599622D01*
Y793743D01*
X599493D01*
Y793871D01*
X599365D01*
Y794000D01*
X599236D01*
Y794129D01*
X599107D01*
Y794258D01*
X598978D01*
Y794386D01*
X598850D01*
Y794515D01*
X598721D01*
Y794644D01*
X598592D01*
Y794772D01*
X598464D01*
Y794901D01*
X598206D01*
Y795030D01*
X598077D01*
Y795159D01*
X597820D01*
Y795287D01*
X597691D01*
Y795416D01*
X597434D01*
Y795545D01*
X597176D01*
Y795673D01*
X596919D01*
Y795802D01*
X596533D01*
Y795931D01*
X596146D01*
Y796060D01*
X595631D01*
Y796188D01*
D02*
G37*
G36*
X597820Y791425D02*
X595889D01*
Y791297D01*
X595631D01*
Y791168D01*
X595374D01*
Y791039D01*
X595117D01*
Y790911D01*
X594988D01*
Y790782D01*
X594859D01*
Y790524D01*
X594730D01*
Y790396D01*
X596146D01*
Y790524D01*
X596661D01*
Y790653D01*
X597305D01*
Y790782D01*
X597820D01*
Y790911D01*
X598077D01*
Y791039D01*
X598206D01*
Y791168D01*
X598077D01*
Y791297D01*
X597820D01*
Y791425D01*
D02*
G37*
G36*
X613009Y792970D02*
X610821D01*
Y792841D01*
X610177D01*
Y792713D01*
X609791D01*
Y792584D01*
X609405D01*
Y792455D01*
X609019D01*
Y792327D01*
X608761D01*
Y792198D01*
X608375D01*
Y792069D01*
X608118D01*
Y791940D01*
X607860D01*
Y791812D01*
X607603D01*
Y791683D01*
X607346D01*
Y791554D01*
X607217D01*
Y791425D01*
X607088D01*
Y791297D01*
X606959D01*
Y791168D01*
X606831D01*
Y791039D01*
X606702D01*
Y790911D01*
X606573D01*
Y790524D01*
X606445D01*
Y790267D01*
X606316D01*
Y789752D01*
X606187D01*
Y788980D01*
X606316D01*
Y788594D01*
X606445D01*
Y788336D01*
X606573D01*
Y788079D01*
X606702D01*
Y787950D01*
X606831D01*
Y787821D01*
X606959D01*
Y787692D01*
X607217D01*
Y787821D01*
X607474D01*
Y787950D01*
X607603D01*
Y788079D01*
X607732D01*
Y788207D01*
X607989D01*
Y788336D01*
X608118D01*
Y788465D01*
X608504D01*
Y788594D01*
X609019D01*
Y788722D01*
X613009D01*
Y789495D01*
X611851D01*
Y789623D01*
X609920D01*
Y789495D01*
X608761D01*
Y789366D01*
X608247D01*
Y789237D01*
X607732D01*
Y789108D01*
X607346D01*
Y788980D01*
X607088D01*
Y789108D01*
X607217D01*
Y789237D01*
X607346D01*
Y789366D01*
X607474D01*
Y789495D01*
X607732D01*
Y789623D01*
X607860D01*
Y789752D01*
X608247D01*
Y789881D01*
X608633D01*
Y790010D01*
X609277D01*
Y790138D01*
X611207D01*
Y790010D01*
X612108D01*
Y789881D01*
X613138D01*
Y790138D01*
X613267D01*
Y790524D01*
X613396D01*
Y791039D01*
X613524D01*
Y791297D01*
Y791425D01*
Y791683D01*
X613653D01*
Y792713D01*
X613524D01*
Y792841D01*
X613009D01*
Y792970D01*
D02*
G37*
G36*
X639785Y772503D02*
X639656D01*
Y772374D01*
X639527D01*
Y772245D01*
X639398D01*
Y772117D01*
X639270D01*
Y771988D01*
X639012D01*
Y771859D01*
X638884D01*
Y771730D01*
X638755D01*
Y771602D01*
X638626D01*
Y771473D01*
X638368D01*
Y771344D01*
X638240D01*
Y771216D01*
X638111D01*
Y771087D01*
X637854D01*
Y770958D01*
X637725D01*
Y770829D01*
X637596D01*
Y770701D01*
X637467D01*
Y770572D01*
X637210D01*
Y770443D01*
X637081D01*
Y770314D01*
X636953D01*
Y769928D01*
X636824D01*
Y768898D01*
X636695D01*
Y766324D01*
X636566D01*
Y764779D01*
X636438D01*
Y763621D01*
X636309D01*
Y762977D01*
X636438D01*
Y762848D01*
X636566D01*
Y762720D01*
X636695D01*
Y762591D01*
X636953D01*
Y762462D01*
X637081D01*
Y762333D01*
X637210D01*
Y762205D01*
X637467D01*
Y762076D01*
X637596D01*
Y761947D01*
X637854D01*
Y761818D01*
X638111D01*
Y761690D01*
X638240D01*
Y761561D01*
X638497D01*
Y761432D01*
X638755D01*
Y761304D01*
X639012D01*
Y761175D01*
X639270D01*
Y761046D01*
X639656D01*
Y760917D01*
X639913D01*
Y760789D01*
X640171D01*
Y760660D01*
X640557D01*
Y760531D01*
X640814D01*
Y760403D01*
X641200D01*
Y760274D01*
X641715D01*
Y760145D01*
X642230D01*
Y760016D01*
X642874D01*
Y759888D01*
X644290D01*
Y759759D01*
X647766D01*
Y759888D01*
X648280D01*
Y760016D01*
X648795D01*
Y760145D01*
X649310D01*
Y760274D01*
X649697D01*
Y760403D01*
X650083D01*
Y760531D01*
X650598D01*
Y760660D01*
X651112D01*
Y760789D01*
X651499D01*
Y760917D01*
X651885D01*
Y761046D01*
X652400D01*
Y761175D01*
X652657D01*
Y761304D01*
X653043D01*
Y761432D01*
X653301D01*
Y761561D01*
X653558D01*
Y761690D01*
X653816D01*
Y761818D01*
X653944D01*
Y761947D01*
X654073D01*
Y762076D01*
X654331D01*
Y762205D01*
X654459D01*
Y762333D01*
X654588D01*
Y762462D01*
X654717D01*
Y762591D01*
X654846D01*
Y762720D01*
X654974D01*
Y762848D01*
X655103D01*
Y762977D01*
X655232D01*
Y763234D01*
X655360D01*
Y763363D01*
X655489D01*
Y763621D01*
X655618D01*
Y763878D01*
X655747D01*
Y764908D01*
X655618D01*
Y765037D01*
X655489D01*
Y765165D01*
X655232D01*
Y765294D01*
X654073D01*
Y765423D01*
X652014D01*
Y765552D01*
X649568D01*
Y765680D01*
X648023D01*
Y765809D01*
X647379D01*
Y765938D01*
X646993D01*
Y766067D01*
X646736D01*
Y766195D01*
X646350D01*
Y766324D01*
X646092D01*
Y766453D01*
X645835D01*
Y766581D01*
X645577D01*
Y766710D01*
X645320D01*
Y766839D01*
X645191D01*
Y766967D01*
X644934D01*
Y767096D01*
X644805D01*
Y767225D01*
X644547D01*
Y767354D01*
X644419D01*
Y767483D01*
X644290D01*
Y767611D01*
X644161D01*
Y767740D01*
X644033D01*
Y767869D01*
X643904D01*
Y767997D01*
X643775D01*
Y768126D01*
X643646D01*
Y768255D01*
X643518D01*
Y768383D01*
X643389D01*
Y768512D01*
X643131D01*
Y768641D01*
Y768770D01*
X643003D01*
Y768898D01*
X642874D01*
Y769027D01*
X642745D01*
Y769156D01*
X642617D01*
Y769285D01*
X642488D01*
Y769413D01*
X642359D01*
Y769542D01*
X642230D01*
Y769671D01*
X642102D01*
Y769799D01*
X641973D01*
Y769928D01*
X641844D01*
Y770057D01*
X641715D01*
Y770186D01*
X641587D01*
Y770314D01*
X641458D01*
Y770443D01*
X641329D01*
Y770572D01*
X641200D01*
Y770701D01*
X641072D01*
Y770829D01*
X640943D01*
Y771087D01*
X640814D01*
Y771216D01*
X640686D01*
Y771344D01*
X640557D01*
Y771473D01*
X640428D01*
Y771602D01*
X640300D01*
Y771859D01*
X640171D01*
Y771988D01*
X640042D01*
Y772245D01*
X639913D01*
Y772374D01*
X639785D01*
Y772503D01*
D02*
G37*
G36*
X619317Y767096D02*
X617515D01*
Y766967D01*
X616871D01*
Y766839D01*
X615970D01*
Y766710D01*
X615455D01*
Y766581D01*
X615327D01*
Y766324D01*
X615455D01*
Y766067D01*
X615584D01*
Y765938D01*
X615713D01*
Y765809D01*
X615841D01*
Y765680D01*
X615970D01*
Y765423D01*
X616099D01*
Y765294D01*
X616228D01*
Y765165D01*
X616356D01*
Y765037D01*
X616485D01*
Y764908D01*
X616614D01*
Y764650D01*
X616743D01*
Y764522D01*
X616871D01*
Y764393D01*
X617000D01*
Y764264D01*
X617129D01*
Y764136D01*
X617257D01*
Y764007D01*
X617386D01*
Y763878D01*
X617515D01*
Y763621D01*
X617644D01*
Y763492D01*
X617772D01*
Y763363D01*
X617901D01*
Y763106D01*
X618030D01*
Y762977D01*
X618159D01*
Y762848D01*
X618287D01*
Y762591D01*
X618416D01*
Y762205D01*
X618545D01*
Y761561D01*
X618674D01*
Y760274D01*
X618802D01*
Y759115D01*
X618931D01*
Y759244D01*
X619060D01*
Y759501D01*
X619188D01*
Y759759D01*
X619317D01*
Y760145D01*
X619446D01*
Y760403D01*
X619575D01*
Y760660D01*
X619703D01*
Y761046D01*
X619832D01*
Y761690D01*
X619961D01*
Y764393D01*
Y764522D01*
Y766195D01*
X619832D01*
Y766839D01*
X619703D01*
Y766967D01*
X619317D01*
Y767096D01*
D02*
G37*
G36*
X600780Y794901D02*
X599493D01*
Y794772D01*
X599622D01*
Y794644D01*
X599751D01*
Y794515D01*
X599879D01*
Y794258D01*
X600008D01*
Y794129D01*
X600137D01*
Y794000D01*
X600266D01*
Y793871D01*
X600394D01*
Y793614D01*
X600523D01*
Y793485D01*
X600652D01*
Y793356D01*
X600780D01*
Y793099D01*
X600909D01*
Y792970D01*
X601038D01*
Y792713D01*
X601167D01*
Y792584D01*
X601295D01*
Y792327D01*
X601424D01*
Y792198D01*
X601553D01*
Y792069D01*
X601682D01*
Y791812D01*
X601810D01*
Y791683D01*
X601939D01*
Y791425D01*
X602068D01*
Y791168D01*
X602197D01*
Y791039D01*
X602325D01*
Y790782D01*
X602454D01*
Y790396D01*
X602325D01*
Y790267D01*
X602197D01*
Y790138D01*
X602068D01*
Y789881D01*
X601939D01*
Y789752D01*
X601810D01*
Y789623D01*
X601682D01*
Y789495D01*
X601553D01*
Y789366D01*
X601295D01*
Y789237D01*
X601167D01*
Y789108D01*
X601038D01*
Y788980D01*
X600909D01*
Y788851D01*
X600652D01*
Y788722D01*
X600523D01*
Y788594D01*
X600266D01*
Y788465D01*
X600137D01*
Y788336D01*
X599879D01*
Y788207D01*
X599751D01*
Y788079D01*
X599493D01*
Y787950D01*
X599365D01*
Y787821D01*
X599107D01*
Y787692D01*
X598978D01*
Y787564D01*
X598721D01*
Y787435D01*
X598464D01*
Y787306D01*
X598335D01*
Y787178D01*
X598077D01*
Y787049D01*
X597949D01*
Y786920D01*
X597820D01*
Y786791D01*
X597691D01*
Y786663D01*
X597562D01*
Y786534D01*
X597434D01*
Y786405D01*
X597305D01*
Y785761D01*
X597434D01*
Y785504D01*
X597562D01*
Y785118D01*
X597691D01*
Y784732D01*
X597820D01*
Y784217D01*
X597691D01*
Y783702D01*
X597562D01*
Y783445D01*
X597434D01*
Y783187D01*
X597305D01*
Y782801D01*
X597176D01*
Y782543D01*
X597048D01*
Y782286D01*
X596919D01*
Y781900D01*
X596790D01*
Y781514D01*
X596661D01*
Y781127D01*
X596533D01*
Y780741D01*
X596404D01*
Y780355D01*
X596275D01*
Y779840D01*
X596146D01*
Y779454D01*
X596018D01*
Y778810D01*
X595889D01*
Y778295D01*
X595760D01*
Y777652D01*
X595631D01*
Y776751D01*
X595503D01*
Y775335D01*
X595374D01*
Y770314D01*
X595503D01*
Y769285D01*
X595631D01*
Y768512D01*
X595760D01*
Y767997D01*
X595889D01*
Y767354D01*
X596018D01*
Y766967D01*
X596146D01*
Y766581D01*
X596275D01*
Y766195D01*
X596404D01*
Y765809D01*
X596533D01*
Y765423D01*
X596661D01*
Y765165D01*
X596790D01*
Y764779D01*
X596919D01*
Y764522D01*
X597048D01*
Y764136D01*
X597176D01*
Y763878D01*
X597305D01*
Y763621D01*
X597434D01*
Y763363D01*
X597562D01*
Y763106D01*
X597691D01*
Y762848D01*
X597820D01*
Y762591D01*
X597949D01*
Y762333D01*
X598077D01*
Y761947D01*
X598206D01*
Y761690D01*
X598335D01*
Y761432D01*
X598464D01*
Y761046D01*
X598335D01*
Y760917D01*
X597949D01*
Y760789D01*
X597562D01*
Y760660D01*
X597305D01*
Y760531D01*
X597048D01*
Y760403D01*
X596790D01*
Y760274D01*
X596533D01*
Y760145D01*
X596404D01*
Y760016D01*
X596275D01*
Y759888D01*
X596146D01*
Y759630D01*
X596404D01*
Y759501D01*
X596790D01*
Y759373D01*
X597434D01*
Y759244D01*
X597949D01*
Y759115D01*
X598464D01*
Y758987D01*
X599107D01*
Y758858D01*
X599622D01*
Y758729D01*
X600137D01*
Y758600D01*
X600652D01*
Y758472D01*
X601167D01*
Y758343D01*
X601553D01*
Y758214D01*
X601810D01*
Y758085D01*
X602197D01*
Y757957D01*
X602454D01*
Y757828D01*
X602711D01*
Y757699D01*
X602969D01*
Y757570D01*
X603226D01*
Y757442D01*
X603355D01*
Y757313D01*
X603613D01*
Y757184D01*
X603741D01*
Y757056D01*
X603999D01*
Y756927D01*
X604127D01*
Y756798D01*
X604256D01*
Y756669D01*
X604514D01*
Y756541D01*
X604642D01*
Y756412D01*
X604771D01*
Y756283D01*
X604900D01*
Y756154D01*
X605028D01*
Y756026D01*
X605157D01*
Y755897D01*
X605286D01*
Y755768D01*
X605415D01*
Y755640D01*
X605672D01*
Y755511D01*
X605801D01*
Y755382D01*
X605930D01*
Y755254D01*
X606058D01*
Y755125D01*
X606187D01*
Y754996D01*
X606316D01*
Y754867D01*
X606573D01*
Y754738D01*
X606702D01*
Y754610D01*
X606831D01*
Y754481D01*
X607088D01*
Y754352D01*
X607217D01*
Y754224D01*
X607474D01*
Y754095D01*
X607732D01*
Y753966D01*
X607989D01*
Y753838D01*
X608118D01*
Y753709D01*
X608375D01*
Y753580D01*
X608633D01*
Y753451D01*
X608890D01*
Y753323D01*
X609148D01*
Y753194D01*
X609405D01*
Y753065D01*
X609663D01*
Y752936D01*
X609920D01*
Y752808D01*
X610049D01*
Y752679D01*
X610306D01*
Y752421D01*
X609663D01*
Y752550D01*
X609277D01*
Y752679D01*
X609019D01*
Y752808D01*
X608633D01*
Y752936D01*
X608375D01*
Y753065D01*
X608118D01*
Y753194D01*
X607860D01*
Y753323D01*
X607603D01*
Y753451D01*
X607346D01*
Y753580D01*
X606959D01*
Y752679D01*
X606831D01*
Y752164D01*
X606702D01*
Y751907D01*
X606573D01*
Y751520D01*
X606445D01*
Y751392D01*
X606573D01*
Y751263D01*
X607346D01*
Y751134D01*
X609663D01*
Y751263D01*
X610177D01*
Y751392D01*
X610435D01*
Y751520D01*
X610564D01*
Y751649D01*
X610692D01*
Y751778D01*
X610821D01*
Y751907D01*
X610950D01*
Y752164D01*
X611079D01*
Y752293D01*
X611207D01*
Y752550D01*
X611336D01*
Y752679D01*
X611465D01*
Y752936D01*
X611594D01*
Y753194D01*
X611722D01*
Y753323D01*
X611851D01*
Y753451D01*
X611980D01*
Y753709D01*
X612108D01*
Y753838D01*
X612237D01*
Y753966D01*
X612366D01*
Y754095D01*
X612495D01*
Y754224D01*
X612623D01*
Y754352D01*
X612752D01*
Y754481D01*
X612881D01*
Y754610D01*
X613009D01*
Y754738D01*
X613267D01*
Y754867D01*
X613396D01*
Y754996D01*
X613653D01*
Y755125D01*
X613782D01*
Y755254D01*
X614039D01*
Y755382D01*
X614297D01*
Y755511D01*
X614554D01*
Y755640D01*
X614812D01*
Y755768D01*
X615198D01*
Y755897D01*
X615584D01*
Y756026D01*
X615841D01*
Y756154D01*
X616099D01*
Y756283D01*
X616228D01*
Y756412D01*
X616356D01*
Y756541D01*
X616614D01*
Y756669D01*
X616743D01*
Y756798D01*
X616871D01*
Y756927D01*
X617000D01*
Y757056D01*
X617129D01*
Y757184D01*
X617257D01*
Y757313D01*
X617386D01*
Y757442D01*
X617515D01*
Y757570D01*
X617644D01*
Y757699D01*
X617772D01*
Y757828D01*
X617901D01*
Y757957D01*
X618030D01*
Y758085D01*
X618159D01*
Y760403D01*
X618030D01*
Y761690D01*
X617901D01*
Y762205D01*
X617772D01*
Y762462D01*
X617644D01*
Y762720D01*
X617515D01*
Y762848D01*
X617386D01*
Y763106D01*
X617257D01*
Y763234D01*
X617129D01*
Y763363D01*
X617000D01*
Y763621D01*
X616871D01*
Y763749D01*
X616743D01*
Y763878D01*
X616614D01*
Y764007D01*
X616485D01*
Y764136D01*
X616356D01*
Y764264D01*
X616228D01*
Y764393D01*
X616099D01*
Y764650D01*
X615970D01*
Y764779D01*
X615841D01*
Y764908D01*
X615713D01*
Y765037D01*
X615584D01*
Y765165D01*
X615455D01*
Y765423D01*
X615327D01*
Y765552D01*
X615198D01*
Y765680D01*
X615069D01*
Y765809D01*
X614940D01*
Y766067D01*
X614812D01*
Y766195D01*
X614683D01*
Y766453D01*
X610950D01*
Y766581D01*
X610564D01*
Y766710D01*
X610177D01*
Y766839D01*
X609791D01*
Y766967D01*
X609405D01*
Y767096D01*
X609148D01*
Y767225D01*
X608761D01*
Y767354D01*
X608375D01*
Y767483D01*
X608118D01*
Y767611D01*
X607732D01*
Y767740D01*
X607474D01*
Y767869D01*
X607217D01*
Y767997D01*
X606959D01*
Y768126D01*
X606702D01*
Y768255D01*
X606445D01*
Y768383D01*
X606316D01*
Y768512D01*
X606058D01*
Y768641D01*
X605801D01*
Y768770D01*
X605672D01*
Y768898D01*
X605543D01*
Y769027D01*
X605286D01*
Y769156D01*
X605157D01*
Y769285D01*
X605028D01*
Y769413D01*
X604900D01*
Y769542D01*
X604642D01*
Y769671D01*
X604514D01*
Y769799D01*
X604385D01*
Y769928D01*
X604256D01*
Y770057D01*
X603999D01*
Y770186D01*
X603870D01*
Y770314D01*
X603741D01*
Y770443D01*
X603613D01*
Y770572D01*
X603484D01*
Y770701D01*
X603355D01*
Y770829D01*
X603226D01*
Y770958D01*
X603098D01*
Y771087D01*
X602969D01*
Y771216D01*
X602840D01*
Y771344D01*
X602711D01*
Y771473D01*
X602583D01*
Y771602D01*
X602454D01*
Y771730D01*
X602325D01*
Y771859D01*
X602197D01*
Y772117D01*
X602068D01*
Y772245D01*
X601939D01*
Y772374D01*
X601810D01*
Y772632D01*
X601682D01*
Y772760D01*
X601553D01*
Y773018D01*
X601424D01*
Y773146D01*
X601295D01*
Y773275D01*
X601167D01*
Y773533D01*
X601038D01*
Y773790D01*
X600909D01*
Y773919D01*
X600780D01*
Y774176D01*
X600652D01*
Y774434D01*
X600523D01*
Y774562D01*
X600394D01*
Y774820D01*
X600266D01*
Y775077D01*
X600137D01*
Y775335D01*
X600008D01*
Y775592D01*
X599879D01*
Y775850D01*
X599751D01*
Y776107D01*
X599622D01*
Y776365D01*
X599493D01*
Y776622D01*
X599365D01*
Y777008D01*
X599236D01*
Y777266D01*
X599107D01*
Y777652D01*
X598978D01*
Y777909D01*
X598850D01*
Y778295D01*
X598721D01*
Y778682D01*
X598592D01*
Y779068D01*
X598464D01*
Y779454D01*
X598335D01*
Y780098D01*
X598206D01*
Y780741D01*
X598592D01*
Y780612D01*
X598721D01*
Y780355D01*
X598850D01*
Y779711D01*
X598978D01*
Y779325D01*
X599107D01*
Y778939D01*
X599236D01*
Y778553D01*
X599365D01*
Y778167D01*
X599493D01*
Y777909D01*
X599622D01*
Y777652D01*
X599751D01*
Y777266D01*
X599879D01*
Y777008D01*
X600008D01*
Y776751D01*
X600137D01*
Y776493D01*
X600266D01*
Y776236D01*
X600394D01*
Y775978D01*
X600523D01*
Y775721D01*
X600652D01*
Y775463D01*
X600780D01*
Y775206D01*
X600909D01*
Y774949D01*
X601038D01*
Y774691D01*
X601167D01*
Y774434D01*
X601295D01*
Y774305D01*
X601424D01*
Y774047D01*
X601553D01*
Y773790D01*
X601682D01*
Y773661D01*
X601810D01*
Y773404D01*
X601939D01*
Y773275D01*
X602068D01*
Y773018D01*
X602197D01*
Y772889D01*
X602325D01*
Y772760D01*
X602454D01*
Y772503D01*
X602583D01*
Y772374D01*
X602711D01*
Y772245D01*
X602840D01*
Y772117D01*
X602969D01*
Y771988D01*
X603098D01*
Y771859D01*
X603226D01*
Y771730D01*
X603355D01*
Y771602D01*
X603484D01*
Y771473D01*
X603613D01*
Y771216D01*
X603741D01*
Y771087D01*
X603999D01*
Y770958D01*
X604127D01*
Y770829D01*
X604256D01*
Y770701D01*
X604385D01*
Y770572D01*
X604514D01*
Y770443D01*
X604642D01*
Y770314D01*
X604771D01*
Y770186D01*
X604900D01*
Y770057D01*
X605157D01*
Y769928D01*
X605286D01*
Y769799D01*
X605415D01*
Y769671D01*
X605543D01*
Y769542D01*
X605801D01*
Y769413D01*
X605930D01*
Y769285D01*
X606187D01*
Y769156D01*
X606316D01*
Y769027D01*
X606573D01*
Y768898D01*
X606702D01*
Y768770D01*
X606959D01*
Y768641D01*
X607217D01*
Y768512D01*
X607474D01*
Y768383D01*
X607732D01*
Y768255D01*
X607989D01*
Y768126D01*
X608247D01*
Y767997D01*
X608633D01*
Y767869D01*
X608890D01*
Y767740D01*
X609277D01*
Y767611D01*
X609791D01*
Y767483D01*
X610177D01*
Y767354D01*
X610692D01*
Y767225D01*
X611207D01*
Y767096D01*
X612237D01*
Y766967D01*
X613267D01*
Y767096D01*
X614426D01*
Y767225D01*
X615455D01*
Y767354D01*
X616228D01*
Y767483D01*
X617257D01*
Y767611D01*
X618545D01*
Y767740D01*
X619060D01*
Y767611D01*
X619703D01*
Y767483D01*
X619832D01*
Y767354D01*
X620089D01*
Y767096D01*
X620218D01*
Y766839D01*
X620347D01*
Y766453D01*
X620476D01*
Y765809D01*
X620604D01*
Y762333D01*
X620476D01*
Y761561D01*
X620347D01*
Y760917D01*
X620218D01*
Y760531D01*
X620089D01*
Y760145D01*
X619961D01*
Y759888D01*
X619832D01*
Y759501D01*
X619703D01*
Y759244D01*
X619575D01*
Y759115D01*
X619446D01*
Y758858D01*
X619317D01*
Y758729D01*
X619188D01*
Y758472D01*
X619060D01*
Y758343D01*
X618931D01*
Y758214D01*
X618802D01*
Y757957D01*
X618674D01*
Y757828D01*
X618545D01*
Y757699D01*
X618416D01*
Y757570D01*
X618287D01*
Y757442D01*
X618159D01*
Y757313D01*
X618030D01*
Y757184D01*
X617901D01*
Y757056D01*
X617772D01*
Y756927D01*
X617644D01*
Y756798D01*
X617515D01*
Y756669D01*
X617386D01*
Y756541D01*
X617257D01*
Y756412D01*
X617129D01*
Y756283D01*
X617000D01*
Y756026D01*
X617129D01*
Y755897D01*
X619188D01*
Y755768D01*
X623179D01*
Y755640D01*
X624209D01*
Y755511D01*
X625110D01*
Y755382D01*
X625882D01*
Y755254D01*
X626655D01*
Y755125D01*
X627298D01*
Y754996D01*
X627942D01*
Y754867D01*
X628457D01*
Y754738D01*
X628971D01*
Y754610D01*
X629358D01*
Y754481D01*
X629615D01*
Y754352D01*
X629873D01*
Y754224D01*
X630130D01*
Y754095D01*
X630387D01*
Y753966D01*
X630645D01*
Y753838D01*
X630774D01*
Y753709D01*
X630902D01*
Y753580D01*
X631160D01*
Y753451D01*
X631289D01*
Y753323D01*
X631417D01*
Y753194D01*
X631546D01*
Y753065D01*
X631675D01*
Y752936D01*
X631804D01*
Y752808D01*
X631932D01*
Y752679D01*
X632061D01*
Y752550D01*
X632190D01*
Y752421D01*
X632318D01*
Y752293D01*
X632447D01*
Y752164D01*
X632576D01*
Y751907D01*
X632705D01*
Y751778D01*
X632833D01*
Y751649D01*
X632962D01*
Y751520D01*
X633091D01*
Y751263D01*
X633219D01*
Y751134D01*
X633348D01*
Y751005D01*
X633477D01*
Y750748D01*
X633606D01*
Y750619D01*
X633734D01*
Y750491D01*
X633992D01*
Y750362D01*
X634249D01*
Y750233D01*
X634636D01*
Y750104D01*
X635150D01*
Y749976D01*
X635794D01*
Y750104D01*
X635923D01*
Y750233D01*
X636051D01*
Y750362D01*
X636180D01*
Y750491D01*
X636309D01*
Y750619D01*
X636438D01*
Y750748D01*
X636566D01*
Y751005D01*
X636695D01*
Y751134D01*
X636824D01*
Y751778D01*
X636953D01*
Y752679D01*
X636824D01*
Y754352D01*
X636695D01*
Y755125D01*
X636566D01*
Y755640D01*
X636438D01*
Y756154D01*
X636309D01*
Y756541D01*
X636180D01*
Y756927D01*
X636051D01*
Y757313D01*
X635923D01*
Y757699D01*
X635794D01*
Y758085D01*
X635665D01*
Y758472D01*
X635537D01*
Y758858D01*
X635408D01*
Y759244D01*
X635279D01*
Y759630D01*
X635150D01*
Y760403D01*
X635279D01*
Y761175D01*
X635408D01*
Y761947D01*
X635537D01*
Y762848D01*
X635665D01*
Y763621D01*
X635794D01*
Y763749D01*
Y764522D01*
X635923D01*
Y765552D01*
X636051D01*
Y767096D01*
X636180D01*
Y769799D01*
X636309D01*
Y770572D01*
X636438D01*
Y770701D01*
X636566D01*
Y770829D01*
X636695D01*
Y770958D01*
X636953D01*
Y771087D01*
X637081D01*
Y771216D01*
X637210D01*
Y771344D01*
X637467D01*
Y771473D01*
X637596D01*
Y771602D01*
X637725D01*
Y771730D01*
X637982D01*
Y771859D01*
X638111D01*
Y771988D01*
X638240D01*
Y772117D01*
X638497D01*
Y772245D01*
X638626D01*
Y772374D01*
X638755D01*
Y772503D01*
X638884D01*
Y772632D01*
X639012D01*
Y772760D01*
X639270D01*
Y772889D01*
X639398D01*
Y773018D01*
X639527D01*
Y773146D01*
X639656D01*
Y773275D01*
X639785D01*
Y773404D01*
X639913D01*
Y773533D01*
X640042D01*
Y773661D01*
X640171D01*
Y773790D01*
X640300D01*
Y773919D01*
X640428D01*
Y774047D01*
X640557D01*
Y774176D01*
X640686D01*
Y774305D01*
X640814D01*
Y774434D01*
X640943D01*
Y774562D01*
X641072D01*
Y774691D01*
X641200D01*
Y774820D01*
X641329D01*
Y774949D01*
X641458D01*
Y775077D01*
X641587D01*
Y775206D01*
X641715D01*
Y775335D01*
X641844D01*
Y775463D01*
X641973D01*
Y775721D01*
X642102D01*
Y775850D01*
X642230D01*
Y775978D01*
X642359D01*
Y776107D01*
X642488D01*
Y776365D01*
X642617D01*
Y776493D01*
X642745D01*
Y776751D01*
X642874D01*
Y777008D01*
X643003D01*
Y777137D01*
X643131D01*
Y777394D01*
X643260D01*
Y777652D01*
X643389D01*
Y777909D01*
X643518D01*
Y778167D01*
X643646D01*
Y778424D01*
X643775D01*
Y778682D01*
X643904D01*
Y778939D01*
X644033D01*
Y779196D01*
X644161D01*
Y779454D01*
X644290D01*
Y779840D01*
X644419D01*
Y780741D01*
X644547D01*
Y783573D01*
X644419D01*
Y784989D01*
X644290D01*
Y785633D01*
X644161D01*
Y786148D01*
X644033D01*
Y786534D01*
X643904D01*
Y786920D01*
X643775D01*
Y787435D01*
X643646D01*
Y787821D01*
X643518D01*
Y788079D01*
X643389D01*
Y788465D01*
X643260D01*
Y788722D01*
X643131D01*
Y789108D01*
X643003D01*
Y789366D01*
X642874D01*
Y789623D01*
X642745D01*
Y789881D01*
X642617D01*
Y790267D01*
X642488D01*
Y790524D01*
X642359D01*
Y790782D01*
X642230D01*
Y791039D01*
X642102D01*
Y791297D01*
X641973D01*
Y791554D01*
X641844D01*
Y791812D01*
X641715D01*
Y791940D01*
X641587D01*
Y792198D01*
X641458D01*
Y792455D01*
X641329D01*
Y792713D01*
X641200D01*
Y792970D01*
X641072D01*
Y793099D01*
X640943D01*
Y793356D01*
X640814D01*
Y793485D01*
X640686D01*
Y793743D01*
X640557D01*
Y793871D01*
X640428D01*
Y794129D01*
X640042D01*
Y794000D01*
X639913D01*
Y793871D01*
X639656D01*
Y793743D01*
X639527D01*
Y793614D01*
X639398D01*
Y793485D01*
X639141D01*
Y793356D01*
X639012D01*
Y793228D01*
X638884D01*
Y793099D01*
X638755D01*
Y792970D01*
X638626D01*
Y792841D01*
X638368D01*
Y792713D01*
X638240D01*
Y792584D01*
X638111D01*
Y792455D01*
X637982D01*
Y792327D01*
X637854D01*
Y792198D01*
X637725D01*
Y792069D01*
X637596D01*
Y791940D01*
X637467D01*
Y791812D01*
X637339D01*
Y791683D01*
X637210D01*
Y791425D01*
X637081D01*
Y791297D01*
X636953D01*
Y791039D01*
X636824D01*
Y790524D01*
X636695D01*
Y790138D01*
X636566D01*
Y789881D01*
X636438D01*
Y789623D01*
X636309D01*
Y789366D01*
X636180D01*
Y789237D01*
X636051D01*
Y788980D01*
X635923D01*
Y788851D01*
X635794D01*
Y788722D01*
X635665D01*
Y788594D01*
X635537D01*
Y788465D01*
X635408D01*
Y788336D01*
X635279D01*
Y788079D01*
X635150D01*
Y787950D01*
X635022D01*
Y787821D01*
X634893D01*
Y787692D01*
X634764D01*
Y787564D01*
X634636D01*
Y787435D01*
X634507D01*
Y787306D01*
X634378D01*
Y787178D01*
X634249D01*
Y787049D01*
X634121D01*
Y786920D01*
X633992D01*
Y786791D01*
X633863D01*
Y786663D01*
X633734D01*
Y786534D01*
X633606D01*
Y786405D01*
X633477D01*
Y786276D01*
X633348D01*
Y786148D01*
X633219D01*
Y786019D01*
X633091D01*
Y785890D01*
X632962D01*
Y785761D01*
X632833D01*
Y785633D01*
X632705D01*
Y785504D01*
X632576D01*
Y785375D01*
X632447D01*
Y785247D01*
X632318D01*
Y785118D01*
X632190D01*
Y784989D01*
X632061D01*
Y784861D01*
X631932D01*
Y784732D01*
X631675D01*
Y784603D01*
X631546D01*
Y784474D01*
X631417D01*
Y784346D01*
X631289D01*
Y784217D01*
X631031D01*
Y784088D01*
X630902D01*
Y783959D01*
X630774D01*
Y783831D01*
X630645D01*
Y783702D01*
X630387D01*
Y783573D01*
X630259D01*
Y783445D01*
X630001D01*
Y783316D01*
X629873D01*
Y783187D01*
X629615D01*
Y783058D01*
X629487D01*
Y782930D01*
X629229D01*
Y782801D01*
X628971D01*
Y782672D01*
X628714D01*
Y782543D01*
X628457D01*
Y782415D01*
X628199D01*
Y782286D01*
X627813D01*
Y782157D01*
X627427D01*
Y782029D01*
X627041D01*
Y781900D01*
X626655D01*
Y781771D01*
X626140D01*
Y781642D01*
X625496D01*
Y781514D01*
X624337D01*
Y781385D01*
X623050D01*
Y781514D01*
X621377D01*
Y781642D01*
X620862D01*
Y781771D01*
X620476D01*
Y781900D01*
X620089D01*
Y782029D01*
X619703D01*
Y782157D01*
X619446D01*
Y782286D01*
X619188D01*
Y782415D01*
X618931D01*
Y782543D01*
X618674D01*
Y782672D01*
X618416D01*
Y782801D01*
X618159D01*
Y782930D01*
X617901D01*
Y783058D01*
X617644D01*
Y783187D01*
X617515D01*
Y783316D01*
X617257D01*
Y783445D01*
X617000D01*
Y783573D01*
X616871D01*
Y783702D01*
X616614D01*
Y783831D01*
X616485D01*
Y783959D01*
X616228D01*
Y784088D01*
X616099D01*
Y784217D01*
X615970D01*
Y784346D01*
X615841D01*
Y784474D01*
X615584D01*
Y784603D01*
X615455D01*
Y784732D01*
X615327D01*
Y784861D01*
X615198D01*
Y784989D01*
X615069D01*
Y785118D01*
X614940D01*
Y785247D01*
X614812D01*
Y785375D01*
X614683D01*
Y785504D01*
X614554D01*
Y785633D01*
X614426D01*
Y785761D01*
X614297D01*
Y785890D01*
X614168D01*
Y786019D01*
X614039D01*
Y786148D01*
X613911D01*
Y786276D01*
X613782D01*
Y786405D01*
X613653D01*
Y786534D01*
X613524D01*
Y786791D01*
X613396D01*
Y787049D01*
X613267D01*
Y787306D01*
X613138D01*
Y787564D01*
X613009D01*
Y787821D01*
X612881D01*
Y787950D01*
X612752D01*
Y788079D01*
X612495D01*
Y788207D01*
X609277D01*
Y788079D01*
X608761D01*
Y787950D01*
X608375D01*
Y787821D01*
X608247D01*
Y787692D01*
X608118D01*
Y787564D01*
X607989D01*
Y787435D01*
X607860D01*
Y787306D01*
X607732D01*
Y787178D01*
X607603D01*
Y787049D01*
X607474D01*
Y786920D01*
X607346D01*
Y787049D01*
X607088D01*
Y787178D01*
X606831D01*
Y787306D01*
X606573D01*
Y787435D01*
X606445D01*
Y787564D01*
X606316D01*
Y787692D01*
X606187D01*
Y787821D01*
X606058D01*
Y788079D01*
X605930D01*
Y788336D01*
X605801D01*
Y788594D01*
X605672D01*
Y788980D01*
X605543D01*
Y789495D01*
X605672D01*
Y790138D01*
X605801D01*
Y790653D01*
X605543D01*
Y790524D01*
X605415D01*
Y790396D01*
X605157D01*
Y790267D01*
X605028D01*
Y790138D01*
X604771D01*
Y790010D01*
X604642D01*
Y789881D01*
X604514D01*
Y789752D01*
X604256D01*
Y789623D01*
X604127D01*
Y789495D01*
X603870D01*
Y789366D01*
X603741D01*
Y789237D01*
X603484D01*
Y789108D01*
X603355D01*
Y788980D01*
X603098D01*
Y788851D01*
X602840D01*
Y789366D01*
X602711D01*
Y791940D01*
X602840D01*
Y793228D01*
X602969D01*
Y793871D01*
X602840D01*
Y794000D01*
X602711D01*
Y794129D01*
X602583D01*
Y794258D01*
X602325D01*
Y794386D01*
X601939D01*
Y794515D01*
X601682D01*
Y794644D01*
X601295D01*
Y794772D01*
X600780D01*
Y794901D01*
D02*
G37*
G36*
X601038Y757828D02*
X600266D01*
Y757699D01*
X599622D01*
Y757570D01*
X599107D01*
Y757442D01*
X598721D01*
Y757313D01*
X598335D01*
Y757184D01*
X598077D01*
Y757056D01*
X597691D01*
Y756927D01*
X597434D01*
Y756798D01*
X597176D01*
Y756669D01*
X597048D01*
Y756541D01*
X596790D01*
Y756412D01*
X596533D01*
Y756283D01*
X596404D01*
Y756154D01*
X596146D01*
Y756026D01*
X596018D01*
Y755897D01*
X595760D01*
Y755768D01*
X595631D01*
Y755640D01*
X595503D01*
Y755511D01*
X595374D01*
Y755382D01*
X595117D01*
Y755254D01*
X594988D01*
Y755125D01*
X594859D01*
Y754996D01*
X594730D01*
Y754867D01*
X594602D01*
Y754738D01*
X594473D01*
Y754610D01*
X594344D01*
Y754481D01*
X594216D01*
Y754352D01*
X594087D01*
Y754224D01*
X593958D01*
Y753966D01*
X593829D01*
Y753838D01*
X593701D01*
Y753709D01*
X593572D01*
Y753580D01*
X593443D01*
Y753323D01*
X593314D01*
Y753194D01*
X593186D01*
Y753065D01*
X593057D01*
Y752808D01*
X592928D01*
Y752679D01*
X592799D01*
Y752421D01*
X592671D01*
Y752293D01*
X592542D01*
Y752035D01*
X592413D01*
Y751778D01*
X592285D01*
Y751649D01*
X592156D01*
Y751392D01*
X592027D01*
Y751134D01*
X591898D01*
Y750877D01*
X591770D01*
Y750619D01*
X591641D01*
Y750233D01*
X591512D01*
Y749976D01*
X591384D01*
Y749718D01*
X591255D01*
Y749461D01*
X591770D01*
Y749589D01*
X592156D01*
Y749718D01*
X592542D01*
Y749847D01*
X593057D01*
Y749976D01*
X593443D01*
Y750104D01*
X593958D01*
Y750233D01*
X594344D01*
Y750362D01*
X594859D01*
Y750491D01*
X595374D01*
Y750619D01*
X595889D01*
Y750748D01*
X596404D01*
Y750877D01*
X596919D01*
Y751005D01*
X597691D01*
Y751134D01*
X598206D01*
Y751263D01*
X599107D01*
Y751392D01*
X600008D01*
Y751520D01*
X601295D01*
Y751649D01*
X605672D01*
Y751778D01*
X605930D01*
Y751907D01*
X606058D01*
Y752164D01*
X606187D01*
Y752293D01*
X606316D01*
Y752679D01*
X606445D01*
Y753580D01*
X606316D01*
Y753838D01*
X606187D01*
Y754095D01*
X606058D01*
Y754224D01*
X605930D01*
Y754352D01*
X605801D01*
Y754610D01*
X605672D01*
Y754738D01*
X605543D01*
Y754867D01*
X605415D01*
Y754996D01*
X605286D01*
Y755125D01*
X605157D01*
Y755254D01*
X605028D01*
Y755382D01*
X604900D01*
Y755511D01*
X604771D01*
Y755640D01*
X604642D01*
Y755768D01*
X604514D01*
Y755897D01*
X604385D01*
Y756026D01*
X604127D01*
Y756154D01*
X603999D01*
Y756283D01*
X603870D01*
Y756412D01*
X603741D01*
Y756541D01*
X603484D01*
Y756669D01*
X603355D01*
Y756798D01*
X603098D01*
Y756927D01*
X602969D01*
Y757056D01*
X602711D01*
Y757184D01*
X602454D01*
Y757313D01*
X602197D01*
Y757442D01*
X601939D01*
Y757570D01*
X601553D01*
Y757699D01*
X601038D01*
Y757828D01*
D02*
G37*
G36*
X595374Y759244D02*
X594859D01*
Y759115D01*
X594216D01*
Y758987D01*
X593701D01*
Y758858D01*
X593186D01*
Y758729D01*
X592799D01*
Y758600D01*
X592285D01*
Y758472D01*
X592027D01*
Y758343D01*
X591641D01*
Y758214D01*
X591512D01*
Y758085D01*
X591255D01*
Y757957D01*
X591126D01*
Y757828D01*
X590869D01*
Y757699D01*
X590740D01*
Y757570D01*
X590611D01*
Y757442D01*
X590482D01*
Y757313D01*
X590354D01*
Y757184D01*
X590225D01*
Y757056D01*
X590096D01*
Y756927D01*
X589968D01*
Y756798D01*
X589839D01*
Y756541D01*
X589710D01*
Y756412D01*
X589581D01*
Y756154D01*
X589453D01*
Y755897D01*
X589324D01*
Y755511D01*
X589195D01*
Y755125D01*
X589067D01*
Y754481D01*
X588938D01*
Y753194D01*
Y753065D01*
Y752421D01*
X589067D01*
Y751907D01*
X589195D01*
Y751520D01*
X589324D01*
Y751134D01*
X589453D01*
Y750877D01*
X589581D01*
Y750619D01*
X589710D01*
Y750362D01*
X589839D01*
Y750104D01*
X589968D01*
Y749976D01*
X590096D01*
Y749847D01*
X590225D01*
Y749718D01*
X590354D01*
Y749461D01*
X590611D01*
Y749718D01*
X590740D01*
Y749976D01*
X590869D01*
Y750233D01*
X590997D01*
Y750619D01*
X591126D01*
Y750877D01*
X591255D01*
Y751134D01*
X591384D01*
Y751392D01*
X591512D01*
Y751520D01*
X591641D01*
Y751778D01*
X591770D01*
Y752035D01*
X591898D01*
Y752293D01*
X592027D01*
Y752421D01*
X592156D01*
Y752679D01*
X592285D01*
Y752808D01*
X592413D01*
Y753065D01*
X592542D01*
Y753194D01*
X592671D01*
Y753451D01*
X592799D01*
Y753580D01*
X592928D01*
Y753709D01*
X593057D01*
Y753966D01*
X593186D01*
Y754095D01*
X593314D01*
Y754224D01*
X593443D01*
Y754352D01*
X593572D01*
Y754481D01*
X593701D01*
Y754738D01*
X593829D01*
Y754867D01*
X593958D01*
Y754996D01*
X594087D01*
Y755125D01*
X594216D01*
Y755254D01*
X594344D01*
Y755382D01*
X594473D01*
Y755511D01*
X594602D01*
Y755640D01*
X594730D01*
Y755768D01*
X594859D01*
Y755897D01*
X595117D01*
Y756026D01*
X595245D01*
Y756154D01*
X595374D01*
Y756283D01*
X595503D01*
Y756412D01*
X595760D01*
Y756541D01*
X595889D01*
Y756669D01*
X596018D01*
Y756798D01*
X596275D01*
Y756927D01*
X596533D01*
Y757056D01*
X596661D01*
Y757184D01*
X596919D01*
Y757313D01*
X597176D01*
Y757442D01*
X597562D01*
Y757570D01*
X597820D01*
Y757699D01*
X598077D01*
Y757828D01*
X598464D01*
Y757957D01*
X598721D01*
Y758085D01*
X598978D01*
Y758214D01*
X599236D01*
Y758343D01*
X598850D01*
Y758472D01*
X598206D01*
Y758600D01*
X597562D01*
Y758729D01*
X597048D01*
Y758858D01*
X596533D01*
Y758987D01*
X595889D01*
Y759115D01*
X595374D01*
Y759244D01*
D02*
G37*
G36*
X631160Y752808D02*
X631031D01*
Y751778D01*
X631160D01*
Y750748D01*
X631031D01*
Y750362D01*
X630902D01*
Y750104D01*
X630774D01*
Y749976D01*
X630645D01*
Y749718D01*
X630516D01*
Y749589D01*
X630387D01*
Y749461D01*
X630259D01*
Y749332D01*
X630130D01*
Y749075D01*
X631289D01*
Y749203D01*
X633091D01*
Y749332D01*
X633992D01*
Y749461D01*
X634378D01*
Y749589D01*
X634249D01*
Y749718D01*
X633992D01*
Y749847D01*
X633734D01*
Y749976D01*
X633477D01*
Y750104D01*
X633348D01*
Y750233D01*
X633219D01*
Y750362D01*
X633091D01*
Y750491D01*
X632962D01*
Y750619D01*
X632833D01*
Y750877D01*
X632705D01*
Y751005D01*
X632576D01*
Y751134D01*
X632447D01*
Y751392D01*
X632318D01*
Y751520D01*
X632190D01*
Y751649D01*
X632061D01*
Y751778D01*
X631932D01*
Y752035D01*
X631804D01*
Y752164D01*
X631675D01*
Y752293D01*
X631546D01*
Y752421D01*
X631417D01*
Y752550D01*
X631289D01*
Y752679D01*
X631160D01*
Y752808D01*
D02*
G37*
G36*
X627041Y754610D02*
X625882D01*
Y754481D01*
X625496D01*
Y754352D01*
X625367D01*
Y754224D01*
X625110D01*
Y754095D01*
X624852D01*
Y753966D01*
X624595D01*
Y753838D01*
X624337D01*
Y753709D01*
X624209D01*
Y753580D01*
X624080D01*
Y753451D01*
X623823D01*
Y753323D01*
X623694D01*
Y753194D01*
X623565D01*
Y753065D01*
X623308D01*
Y752936D01*
X623179D01*
Y752808D01*
X623050D01*
Y752679D01*
X622921D01*
Y752550D01*
X622793D01*
Y752421D01*
X622664D01*
Y752293D01*
X622535D01*
Y752164D01*
X622407D01*
Y752035D01*
X622278D01*
Y751907D01*
X622149D01*
Y751778D01*
X622020D01*
Y751520D01*
X621892D01*
Y751392D01*
X621763D01*
Y751263D01*
X621634D01*
Y751134D01*
X621505D01*
Y750877D01*
X621377D01*
Y750748D01*
X621248D01*
Y750619D01*
X621119D01*
Y750362D01*
X620990D01*
Y750233D01*
X620862D01*
Y749976D01*
X620733D01*
Y749847D01*
X620604D01*
Y749589D01*
X620476D01*
Y749332D01*
X620347D01*
Y749203D01*
X620218D01*
Y748946D01*
X620089D01*
Y748817D01*
Y748688D01*
X619961D01*
Y748431D01*
X619832D01*
Y748174D01*
X619703D01*
Y747916D01*
X619575D01*
Y747530D01*
X621119D01*
Y747659D01*
X622278D01*
Y747787D01*
X623179D01*
Y747916D01*
X624080D01*
Y748045D01*
X624981D01*
Y748174D01*
X625753D01*
Y748302D01*
X626526D01*
Y748431D01*
X627169D01*
Y748560D01*
X627684D01*
Y748688D01*
X628199D01*
Y748817D01*
X628585D01*
Y748946D01*
X628843D01*
Y749075D01*
X629100D01*
Y749203D01*
X629229D01*
Y749332D01*
X629358D01*
Y749461D01*
X629615D01*
Y749589D01*
X629744D01*
Y749718D01*
X629873D01*
Y749847D01*
X630001D01*
Y749976D01*
X630130D01*
Y750233D01*
X630259D01*
Y750362D01*
X630387D01*
Y750491D01*
X630516D01*
Y750619D01*
X630645D01*
Y750877D01*
X630516D01*
Y752035D01*
X630387D01*
Y752808D01*
X630259D01*
Y753194D01*
X630130D01*
Y753451D01*
X630001D01*
Y753580D01*
X629873D01*
Y753709D01*
X629744D01*
Y753838D01*
X629487D01*
Y753966D01*
X629229D01*
Y754095D01*
X628843D01*
Y754224D01*
X628328D01*
Y754352D01*
X627684D01*
Y754481D01*
X627041D01*
Y754610D01*
D02*
G37*
G36*
X620089Y755382D02*
X619188D01*
Y755254D01*
X619060D01*
Y755125D01*
X618802D01*
Y754996D01*
X618674D01*
Y754867D01*
X618416D01*
Y754738D01*
X618287D01*
Y754610D01*
X618030D01*
Y754481D01*
X617901D01*
Y754352D01*
X617772D01*
Y754224D01*
X617515D01*
Y754095D01*
X617386D01*
Y753966D01*
X617257D01*
Y753838D01*
X617129D01*
Y753709D01*
X617000D01*
Y753580D01*
X616871D01*
Y753451D01*
X616743D01*
Y753194D01*
X616614D01*
Y753065D01*
X616485D01*
Y752936D01*
X616356D01*
Y752808D01*
X616228D01*
Y752550D01*
X616099D01*
Y752421D01*
X615970D01*
Y752164D01*
X615841D01*
Y752035D01*
X615713D01*
Y751778D01*
X615584D01*
Y751520D01*
X615455D01*
Y751263D01*
X615327D01*
Y751005D01*
X615198D01*
Y750748D01*
X615069D01*
Y750491D01*
X614940D01*
Y750104D01*
X614812D01*
Y749718D01*
X614683D01*
Y749332D01*
X614554D01*
Y748946D01*
X614426D01*
Y748431D01*
X614297D01*
Y747916D01*
X614168D01*
Y747272D01*
X614039D01*
Y746629D01*
X613911D01*
Y746371D01*
X614812D01*
Y746500D01*
X615455D01*
Y746629D01*
X615970D01*
Y746758D01*
X616743D01*
Y746886D01*
X617257D01*
Y747015D01*
X617772D01*
Y747144D01*
X618416D01*
Y747272D01*
X618674D01*
Y747401D01*
X618802D01*
Y747659D01*
X618931D01*
Y747916D01*
X619060D01*
Y748174D01*
X619188D01*
Y748431D01*
X619317D01*
Y748688D01*
X619446D01*
Y748946D01*
X619575D01*
Y749203D01*
X619703D01*
Y749461D01*
X619832D01*
Y749589D01*
X619961D01*
Y749847D01*
X620089D01*
Y750104D01*
X620218D01*
Y750362D01*
X620347D01*
Y750491D01*
X620476D01*
Y750748D01*
X620604D01*
Y750877D01*
X620733D01*
Y751134D01*
X620862D01*
Y751263D01*
X620990D01*
Y751392D01*
X621119D01*
Y751649D01*
X621248D01*
Y751778D01*
X621377D01*
Y751907D01*
X621505D01*
Y752035D01*
X621634D01*
Y752164D01*
X621763D01*
Y752293D01*
X621892D01*
Y752421D01*
X622020D01*
Y752550D01*
X622149D01*
Y752679D01*
X622278D01*
Y752808D01*
X622407D01*
Y752936D01*
X622535D01*
Y753065D01*
X622664D01*
Y753194D01*
X622793D01*
Y753323D01*
X622921D01*
Y753451D01*
X623050D01*
Y753580D01*
X623308D01*
Y753709D01*
X623436D01*
Y753838D01*
X623565D01*
Y753966D01*
X623694D01*
Y754095D01*
X623951D01*
Y754224D01*
X624080D01*
Y754352D01*
X624337D01*
Y754481D01*
X624466D01*
Y754610D01*
X624595D01*
Y754738D01*
X624724D01*
Y754867D01*
X624466D01*
Y754996D01*
X623694D01*
Y755125D01*
X622407D01*
Y755254D01*
X620089D01*
Y755382D01*
D02*
G37*
G36*
X616871D02*
X615455D01*
Y755254D01*
X615069D01*
Y755125D01*
X614812D01*
Y754996D01*
X614554D01*
Y754867D01*
X614297D01*
Y754738D01*
X614039D01*
Y754610D01*
X613911D01*
Y754481D01*
X613653D01*
Y754352D01*
X613524D01*
Y754224D01*
X613396D01*
Y754095D01*
X613267D01*
Y753966D01*
X613138D01*
Y753838D01*
X613009D01*
Y753709D01*
X612881D01*
Y753580D01*
X612752D01*
Y753451D01*
X612623D01*
Y753323D01*
X612495D01*
Y753194D01*
X612366D01*
Y753065D01*
X612237D01*
Y752936D01*
X612108D01*
Y752679D01*
X611980D01*
Y752421D01*
X611851D01*
Y752293D01*
X611722D01*
Y751907D01*
X611594D01*
Y751520D01*
X611465D01*
Y748817D01*
X611594D01*
Y748302D01*
X611722D01*
Y747916D01*
X611851D01*
Y747659D01*
X611980D01*
Y747530D01*
X612108D01*
Y747272D01*
X612237D01*
Y747144D01*
X612366D01*
Y747015D01*
X612495D01*
Y746758D01*
X612623D01*
Y746629D01*
X612752D01*
Y746500D01*
X612881D01*
Y746371D01*
X613138D01*
Y746243D01*
X613267D01*
Y746500D01*
X613396D01*
Y746886D01*
X613524D01*
Y747530D01*
X613653D01*
Y748174D01*
X613782D01*
Y748688D01*
X613911D01*
Y749203D01*
X614039D01*
Y749589D01*
X614168D01*
Y749976D01*
X614297D01*
Y750362D01*
X614426D01*
Y750619D01*
X614554D01*
Y750877D01*
X614683D01*
Y751263D01*
X614812D01*
Y751520D01*
X614940D01*
Y751778D01*
X615069D01*
Y751907D01*
X615198D01*
Y752164D01*
X615327D01*
Y752421D01*
X615455D01*
Y752550D01*
X615584D01*
Y752808D01*
X615713D01*
Y752936D01*
X615841D01*
Y753194D01*
X615970D01*
Y753323D01*
X616099D01*
Y753451D01*
X616228D01*
Y753709D01*
X616356D01*
Y753838D01*
X616485D01*
Y753966D01*
X616614D01*
Y754095D01*
X616743D01*
Y754224D01*
X616871D01*
Y754352D01*
X617000D01*
Y754481D01*
X617129D01*
Y754610D01*
X617257D01*
Y754738D01*
X617386D01*
Y754867D01*
X617515D01*
Y754996D01*
X617644D01*
Y755125D01*
X617386D01*
Y755254D01*
X616871D01*
Y755382D01*
D02*
G37*
%LPD*%
G36*
X602325Y855145D02*
X602840D01*
Y855016D01*
X603098D01*
Y854887D01*
X603355D01*
Y854630D01*
X603484D01*
Y854501D01*
X603613D01*
Y854244D01*
X603741D01*
Y853729D01*
X603870D01*
Y852570D01*
X603741D01*
Y852184D01*
X603613D01*
Y851927D01*
X603484D01*
Y851798D01*
X603355D01*
Y851669D01*
X603226D01*
Y851541D01*
X602969D01*
Y851412D01*
X602711D01*
Y851283D01*
X602197D01*
Y851154D01*
X601424D01*
Y851026D01*
X600008D01*
Y850897D01*
X598592D01*
Y850768D01*
X597691D01*
Y850639D01*
X596790D01*
Y850511D01*
X596275D01*
Y850382D01*
X595760D01*
Y850253D01*
X595503D01*
Y849867D01*
X595374D01*
Y849095D01*
X595245D01*
Y848709D01*
X595117D01*
Y848451D01*
X594988D01*
Y848194D01*
X594859D01*
Y848065D01*
X594730D01*
Y847936D01*
X594473D01*
Y847807D01*
X594344D01*
Y847679D01*
X594087D01*
Y847550D01*
X593958D01*
Y847421D01*
X593701D01*
Y847293D01*
X593443D01*
Y847164D01*
X593186D01*
Y847035D01*
X592799D01*
Y846906D01*
X592542D01*
Y846778D01*
X592285D01*
Y846649D01*
X592027D01*
Y846520D01*
X591641D01*
Y846392D01*
X590482D01*
Y846520D01*
X590096D01*
Y846649D01*
X589839D01*
Y846778D01*
X589581D01*
Y846906D01*
X589453D01*
Y847035D01*
X589324D01*
Y847164D01*
X589195D01*
Y847293D01*
X589067D01*
Y847421D01*
X588938D01*
Y847550D01*
X588809D01*
Y847679D01*
X588680D01*
Y847807D01*
X588552D01*
Y847936D01*
X588423D01*
Y848065D01*
X588294D01*
Y848194D01*
X588165D01*
Y848451D01*
X588037D01*
Y848580D01*
X587908D01*
Y848709D01*
X587779D01*
Y848837D01*
X587264D01*
Y848709D01*
X586878D01*
Y848580D01*
X586621D01*
Y848451D01*
X586492D01*
Y848322D01*
X586235D01*
Y848194D01*
X585977D01*
Y848065D01*
X585848D01*
Y847936D01*
X585591D01*
Y847807D01*
X585333D01*
Y847679D01*
X585205D01*
Y847550D01*
X584947D01*
Y847421D01*
X584304D01*
Y847550D01*
X584046D01*
Y847679D01*
X583917D01*
Y847807D01*
X583789D01*
Y847936D01*
X583660D01*
Y848065D01*
X583531D01*
Y848322D01*
X583402D01*
Y848451D01*
X583274D01*
Y848709D01*
X583145D01*
Y848966D01*
X583016D01*
Y849223D01*
X582888D01*
Y850253D01*
X583016D01*
Y850382D01*
X583145D01*
Y850511D01*
X583402D01*
Y850639D01*
X584690D01*
Y850511D01*
X585462D01*
Y850382D01*
X586492D01*
Y850253D01*
X589581D01*
Y850382D01*
X590225D01*
Y850511D01*
X590740D01*
Y850639D01*
X591255D01*
Y850768D01*
X591641D01*
Y850897D01*
X592027D01*
Y851026D01*
X592285D01*
Y851154D01*
X592542D01*
Y851283D01*
X592799D01*
Y851412D01*
X593186D01*
Y851541D01*
X593443D01*
Y851669D01*
X593701D01*
Y851798D01*
X593958D01*
Y851927D01*
X594216D01*
Y852056D01*
X594344D01*
Y852184D01*
X594602D01*
Y852313D01*
X594859D01*
Y852442D01*
X595117D01*
Y852570D01*
X595374D01*
Y852699D01*
X595503D01*
Y852828D01*
X595760D01*
Y852957D01*
X596018D01*
Y853085D01*
X596146D01*
Y853214D01*
X596404D01*
Y853343D01*
X596661D01*
Y853472D01*
X596919D01*
Y853600D01*
X597176D01*
Y853729D01*
X597434D01*
Y853858D01*
X597691D01*
Y853986D01*
X597949D01*
Y854115D01*
X598206D01*
Y854244D01*
X598464D01*
Y854373D01*
X598721D01*
Y854501D01*
X598978D01*
Y854630D01*
X599365D01*
Y854759D01*
X599622D01*
Y854887D01*
X600008D01*
Y855016D01*
X600523D01*
Y855145D01*
X601167D01*
Y855274D01*
X602325D01*
Y855145D01*
D02*
G37*
G36*
X615841Y802367D02*
X616099D01*
Y802238D01*
X616228D01*
Y802110D01*
X616356D01*
Y801981D01*
X616485D01*
Y801852D01*
X616614D01*
Y801724D01*
X616743D01*
Y801595D01*
X616871D01*
Y801466D01*
X617000D01*
Y801209D01*
X617129D01*
Y801080D01*
X617257D01*
Y800823D01*
X617386D01*
Y800565D01*
X617515D01*
Y800050D01*
X617644D01*
Y799278D01*
X617772D01*
Y797862D01*
X617644D01*
Y796832D01*
X617515D01*
Y795931D01*
X617386D01*
Y795287D01*
X617257D01*
Y794644D01*
X617129D01*
Y794000D01*
X617000D01*
Y793356D01*
X616871D01*
Y792584D01*
X616743D01*
Y791940D01*
X616485D01*
Y793228D01*
X616614D01*
Y794386D01*
X616743D01*
Y795287D01*
X616871D01*
Y796188D01*
X617000D01*
Y797089D01*
X617129D01*
Y799921D01*
X617000D01*
Y800436D01*
X616871D01*
Y800694D01*
X616743D01*
Y800951D01*
X616614D01*
Y801209D01*
X616485D01*
Y801466D01*
X616356D01*
Y801595D01*
X616228D01*
Y801724D01*
X616099D01*
Y801981D01*
X615970D01*
Y802110D01*
X615841D01*
Y802238D01*
X615713D01*
Y802367D01*
X615584D01*
Y802496D01*
X615841D01*
Y802367D01*
D02*
G37*
%LPC*%
G36*
X599493Y854115D02*
X599107D01*
Y853986D01*
X598850D01*
Y853858D01*
X598592D01*
Y853600D01*
X599107D01*
Y853729D01*
X599365D01*
Y853986D01*
X599493D01*
Y854115D01*
D02*
G37*
G36*
X597434Y852957D02*
X596919D01*
Y852828D01*
X596790D01*
Y852699D01*
X596533D01*
Y852570D01*
X596275D01*
Y852442D01*
X596146D01*
Y852313D01*
X595889D01*
Y852184D01*
X595760D01*
Y851927D01*
X596533D01*
Y852056D01*
X596790D01*
Y852184D01*
X596919D01*
Y852313D01*
X597048D01*
Y852442D01*
X597176D01*
Y852570D01*
X597305D01*
Y852828D01*
X597434D01*
Y852957D01*
D02*
G37*
G36*
X602197Y854759D02*
X601424D01*
Y854630D01*
X600780D01*
Y854501D01*
X600394D01*
Y854373D01*
X600266D01*
Y854244D01*
X600137D01*
Y854115D01*
X600008D01*
Y853729D01*
X599879D01*
Y853600D01*
X599751D01*
Y853343D01*
X599622D01*
Y853214D01*
X599365D01*
Y853085D01*
X597949D01*
Y852828D01*
X597820D01*
Y852442D01*
X597691D01*
Y852184D01*
X597562D01*
Y852056D01*
X597434D01*
Y851927D01*
X597305D01*
Y851798D01*
X597176D01*
Y851669D01*
X597048D01*
Y851541D01*
X596790D01*
Y851412D01*
X595374D01*
Y851541D01*
X594730D01*
Y851283D01*
X594859D01*
Y850768D01*
X595503D01*
Y850897D01*
X596146D01*
Y851026D01*
X596790D01*
Y851154D01*
X597434D01*
Y851283D01*
X598335D01*
Y851412D01*
X599622D01*
Y851541D01*
X600909D01*
Y851669D01*
X601810D01*
Y851798D01*
X602325D01*
Y851927D01*
X602711D01*
Y852056D01*
X602969D01*
Y852184D01*
X603098D01*
Y852442D01*
X603226D01*
Y852828D01*
X603355D01*
Y853343D01*
X603226D01*
Y853858D01*
X603098D01*
Y854244D01*
X602969D01*
Y854373D01*
X602840D01*
Y854501D01*
X602583D01*
Y854630D01*
X602197D01*
Y854759D01*
D02*
G37*
G36*
X585205Y849996D02*
X583402D01*
Y849481D01*
X583531D01*
Y849223D01*
X583660D01*
Y848966D01*
X583789D01*
Y848709D01*
X583917D01*
Y848580D01*
X584046D01*
Y848451D01*
X584175D01*
Y848194D01*
X584432D01*
Y848065D01*
X584818D01*
Y848194D01*
X585076D01*
Y848322D01*
X585333D01*
Y848451D01*
X585462D01*
Y848580D01*
X585720D01*
Y848709D01*
X585977D01*
Y848837D01*
X586106D01*
Y848966D01*
X586363D01*
Y849095D01*
X586749D01*
Y849223D01*
X587007D01*
Y849352D01*
X587264D01*
Y849610D01*
X586621D01*
Y849738D01*
X585848D01*
Y849867D01*
X585205D01*
Y849996D01*
D02*
G37*
G36*
X594216Y851154D02*
X593829D01*
Y851026D01*
X593443D01*
Y850897D01*
X593314D01*
Y850768D01*
X592928D01*
Y850639D01*
X592671D01*
Y850511D01*
X592413D01*
Y850382D01*
X592285D01*
Y850253D01*
X592027D01*
Y849738D01*
X592156D01*
Y849352D01*
X592285D01*
Y848966D01*
X592413D01*
Y848580D01*
X592542D01*
Y848194D01*
X592671D01*
Y848065D01*
Y847936D01*
X592799D01*
Y847679D01*
X593186D01*
Y847807D01*
X593443D01*
Y847936D01*
X593701D01*
Y848065D01*
X593829D01*
Y848194D01*
X593958D01*
Y848322D01*
X594216D01*
Y848451D01*
X594344D01*
Y848580D01*
X594473D01*
Y848709D01*
X594602D01*
Y848966D01*
X594730D01*
Y849867D01*
X594602D01*
Y850253D01*
X594473D01*
Y850511D01*
X594344D01*
Y850897D01*
X594216D01*
Y851154D01*
D02*
G37*
G36*
X591126Y849996D02*
X590869D01*
Y849867D01*
X590096D01*
Y849738D01*
X589453D01*
Y849610D01*
X588552D01*
Y849481D01*
X588294D01*
Y849223D01*
X588423D01*
Y848966D01*
X588552D01*
Y848709D01*
X588680D01*
Y848580D01*
X588809D01*
Y848322D01*
X588938D01*
Y848194D01*
X589067D01*
Y848065D01*
X589195D01*
Y847936D01*
X589324D01*
Y847807D01*
X589453D01*
Y847679D01*
X589581D01*
Y847550D01*
X589710D01*
Y847421D01*
X589968D01*
Y847293D01*
X590096D01*
Y847164D01*
X590225D01*
Y847035D01*
X590740D01*
Y846906D01*
X591512D01*
Y847035D01*
X591898D01*
Y847164D01*
X592027D01*
Y848322D01*
X591898D01*
Y848709D01*
X591770D01*
Y848966D01*
X591641D01*
Y849352D01*
X591512D01*
Y849610D01*
X591384D01*
Y849867D01*
X591126D01*
Y849996D01*
D02*
G37*
%LPD*%
G36*
X592413Y855660D02*
X592542D01*
Y855531D01*
X592671D01*
Y855402D01*
X592799D01*
Y855145D01*
Y855016D01*
Y854373D01*
X592671D01*
Y854244D01*
X592413D01*
Y854759D01*
X592285D01*
Y855016D01*
X592156D01*
Y855145D01*
X591898D01*
Y855016D01*
X591770D01*
Y854887D01*
X591641D01*
Y854759D01*
X591384D01*
Y854630D01*
X591255D01*
Y854759D01*
X591126D01*
Y854887D01*
X591255D01*
Y855145D01*
X591384D01*
Y855274D01*
X591512D01*
Y855402D01*
X591641D01*
Y855531D01*
X591770D01*
Y855660D01*
X592027D01*
Y855788D01*
X592413D01*
Y855660D01*
D02*
G37*
G36*
X587522Y854501D02*
X587908D01*
Y854373D01*
X588165D01*
Y854244D01*
X588294D01*
Y854115D01*
X588423D01*
Y853986D01*
X588552D01*
Y853858D01*
X588680D01*
Y853600D01*
X588552D01*
Y853729D01*
X588165D01*
Y853858D01*
X587779D01*
Y853986D01*
X587264D01*
Y853858D01*
X587393D01*
Y853729D01*
X587522D01*
Y853600D01*
X587650D01*
Y853472D01*
X587779D01*
Y853343D01*
X587264D01*
Y853472D01*
X587007D01*
Y853600D01*
X586878D01*
Y853729D01*
X586749D01*
Y853986D01*
X586621D01*
Y854373D01*
X586749D01*
Y854501D01*
X586878D01*
Y854630D01*
X587522D01*
Y854501D01*
D02*
G37*
G36*
X611722Y794901D02*
X613138D01*
Y794772D01*
X613782D01*
Y794644D01*
X613911D01*
Y794515D01*
X610564D01*
Y794386D01*
X609534D01*
Y794258D01*
X609019D01*
Y794129D01*
X608504D01*
Y794000D01*
X607989D01*
Y793871D01*
X607474D01*
Y793743D01*
X607217D01*
Y793614D01*
X606959D01*
Y793485D01*
X606702D01*
Y793356D01*
X606445D01*
Y793228D01*
X606187D01*
Y793099D01*
X606058D01*
Y792970D01*
X605801D01*
Y792841D01*
X605672D01*
Y792713D01*
X605543D01*
Y792584D01*
X605415D01*
Y792455D01*
X605286D01*
Y792327D01*
X605157D01*
Y792198D01*
X605028D01*
Y792069D01*
X604900D01*
Y791940D01*
X604771D01*
Y791812D01*
X604642D01*
Y791683D01*
X604385D01*
Y791554D01*
X604256D01*
Y791812D01*
X604385D01*
Y792069D01*
X604514D01*
Y792198D01*
X604642D01*
Y792455D01*
X604771D01*
Y792584D01*
X604900D01*
Y792713D01*
X605028D01*
Y792841D01*
X605157D01*
Y792970D01*
X605286D01*
Y793099D01*
X605415D01*
Y793228D01*
X605543D01*
Y793356D01*
X605672D01*
Y793485D01*
X605801D01*
Y793614D01*
X606058D01*
Y793743D01*
X606187D01*
Y793871D01*
X606445D01*
Y794000D01*
X606702D01*
Y794129D01*
X607088D01*
Y794258D01*
X607346D01*
Y794386D01*
X607732D01*
Y794515D01*
X608118D01*
Y794644D01*
X608504D01*
Y794772D01*
X609019D01*
Y794901D01*
X609791D01*
Y795030D01*
X611722D01*
Y794901D01*
D02*
G37*
G36*
X604256Y791425D02*
X604127D01*
Y791554D01*
X604256D01*
Y791425D01*
D02*
G37*
G36*
X607088Y788851D02*
X606959D01*
Y788980D01*
X607088D01*
Y788851D01*
D02*
G37*
G36*
X632061Y779325D02*
X631932D01*
Y779454D01*
X632061D01*
Y779325D01*
D02*
G37*
G36*
X631932Y779196D02*
X631804D01*
Y779325D01*
X631932D01*
Y779196D01*
D02*
G37*
G36*
X631804Y779068D02*
X631675D01*
Y778939D01*
X631546D01*
Y778810D01*
X631417D01*
Y778682D01*
X631160D01*
Y778553D01*
X631031D01*
Y778424D01*
X630902D01*
Y778295D01*
X630774D01*
Y778167D01*
X630516D01*
Y778038D01*
X630387D01*
Y777909D01*
X630259D01*
Y777781D01*
X630130D01*
Y777652D01*
X629873D01*
Y777523D01*
X629744D01*
Y777394D01*
X629615D01*
Y777266D01*
X629358D01*
Y777137D01*
X629229D01*
Y777008D01*
X629100D01*
Y776879D01*
X628843D01*
Y776751D01*
X628714D01*
Y776622D01*
X628585D01*
Y776493D01*
X628328D01*
Y776365D01*
X628199D01*
Y776236D01*
X628070D01*
Y776107D01*
X627813D01*
Y775978D01*
X627684D01*
Y775850D01*
X627556D01*
Y775721D01*
X627298D01*
Y775592D01*
X627169D01*
Y775463D01*
X627041D01*
Y775335D01*
X626783D01*
Y775206D01*
X626655D01*
Y775077D01*
X626397D01*
Y774949D01*
X626268D01*
Y774820D01*
X626140D01*
Y774691D01*
X626011D01*
Y774562D01*
X625753D01*
Y774434D01*
X625625D01*
Y774305D01*
X625496D01*
Y774176D01*
X625238D01*
Y774047D01*
X625110D01*
Y773919D01*
X624981D01*
Y773790D01*
X624724D01*
Y773661D01*
X624595D01*
Y773533D01*
X624466D01*
Y773404D01*
X624337D01*
Y773275D01*
X624209D01*
Y773146D01*
X624080D01*
Y773018D01*
X623951D01*
Y772889D01*
X623823D01*
Y772760D01*
X623694D01*
Y772632D01*
X623436D01*
Y772503D01*
X623308D01*
Y772374D01*
X623179D01*
Y772245D01*
X623050D01*
Y772117D01*
X622921D01*
Y771988D01*
X622793D01*
Y771730D01*
X622664D01*
Y771602D01*
X622535D01*
Y771473D01*
X622407D01*
Y771344D01*
X622278D01*
Y771216D01*
X622149D01*
Y771087D01*
X622020D01*
Y770958D01*
X621892D01*
Y770829D01*
X621763D01*
Y770572D01*
X621634D01*
Y770443D01*
X621505D01*
Y770314D01*
X621377D01*
Y770057D01*
X621248D01*
Y769928D01*
X621119D01*
Y769671D01*
X620990D01*
Y769542D01*
X620862D01*
Y769285D01*
X620733D01*
Y769156D01*
X620604D01*
Y768898D01*
X620476D01*
Y768641D01*
X620347D01*
Y768255D01*
X620218D01*
Y767869D01*
X620089D01*
Y768512D01*
X620218D01*
Y768898D01*
X620347D01*
Y769285D01*
X620476D01*
Y769542D01*
X620604D01*
Y769799D01*
X620733D01*
Y770057D01*
X620862D01*
Y770186D01*
X620990D01*
Y770443D01*
X621119D01*
Y770572D01*
X621248D01*
Y770829D01*
X621377D01*
Y770958D01*
X621505D01*
Y771216D01*
X621634D01*
Y771344D01*
X621763D01*
Y771473D01*
X621892D01*
Y771730D01*
X622020D01*
Y771859D01*
X622149D01*
Y771988D01*
X622278D01*
Y772117D01*
X622407D01*
Y772374D01*
X622535D01*
Y772503D01*
X622664D01*
Y772632D01*
X622793D01*
Y772760D01*
X622921D01*
Y772889D01*
X623050D01*
Y773018D01*
X623179D01*
Y773146D01*
X623308D01*
Y773275D01*
X623436D01*
Y773404D01*
X623565D01*
Y773533D01*
X623694D01*
Y773661D01*
X623823D01*
Y773790D01*
X623951D01*
Y773919D01*
X624080D01*
Y774047D01*
X624337D01*
Y774176D01*
X624466D01*
Y774305D01*
X624595D01*
Y774434D01*
X624852D01*
Y774562D01*
X624981D01*
Y774691D01*
X625110D01*
Y774820D01*
X625238D01*
Y774949D01*
X625496D01*
Y775077D01*
X625625D01*
Y775206D01*
X625882D01*
Y775335D01*
X626011D01*
Y775463D01*
X626268D01*
Y775592D01*
X626397D01*
Y775721D01*
X626526D01*
Y775850D01*
X626783D01*
Y775978D01*
X626912D01*
Y776107D01*
X627169D01*
Y776236D01*
X627298D01*
Y776365D01*
X627556D01*
Y776493D01*
X627684D01*
Y776622D01*
X627942D01*
Y776751D01*
X628070D01*
Y776879D01*
X628328D01*
Y777008D01*
X628457D01*
Y777137D01*
X628714D01*
Y777266D01*
X628843D01*
Y777394D01*
X628971D01*
Y777523D01*
X629229D01*
Y777652D01*
X629487D01*
Y777781D01*
X629615D01*
Y777909D01*
X629873D01*
Y778038D01*
X630001D01*
Y778167D01*
X630259D01*
Y778295D01*
X630387D01*
Y778424D01*
X630645D01*
Y778553D01*
X630774D01*
Y778682D01*
X631031D01*
Y778810D01*
X631160D01*
Y778939D01*
X631417D01*
Y779068D01*
X631546D01*
Y779196D01*
X631804D01*
Y779068D01*
D02*
G37*
G36*
X599622Y760145D02*
X600008D01*
Y760016D01*
X600394D01*
Y759888D01*
X600909D01*
Y759759D01*
X601424D01*
Y759630D01*
X601939D01*
Y759501D01*
X602325D01*
Y759373D01*
X602840D01*
Y759244D01*
X603226D01*
Y759115D01*
X603613D01*
Y758987D01*
X603870D01*
Y758858D01*
X604256D01*
Y758729D01*
X604514D01*
Y758600D01*
X604771D01*
Y758472D01*
X604900D01*
Y758343D01*
X605157D01*
Y758214D01*
X605286D01*
Y758085D01*
X605415D01*
Y757957D01*
X605543D01*
Y757828D01*
X605672D01*
Y757699D01*
X605801D01*
Y757570D01*
X605930D01*
Y757442D01*
X606058D01*
Y757313D01*
X606187D01*
Y757184D01*
X606316D01*
Y757056D01*
X606445D01*
Y756927D01*
X606573D01*
Y756669D01*
X606316D01*
Y756798D01*
X606187D01*
Y756927D01*
X606058D01*
Y757056D01*
X605930D01*
Y757184D01*
X605672D01*
Y757313D01*
X605543D01*
Y757442D01*
X605286D01*
Y757570D01*
X605157D01*
Y757699D01*
X604900D01*
Y757828D01*
X604642D01*
Y757957D01*
X604385D01*
Y758085D01*
X604127D01*
Y758214D01*
X603870D01*
Y758343D01*
X603613D01*
Y758472D01*
X603226D01*
Y758600D01*
X602840D01*
Y758729D01*
X602454D01*
Y758858D01*
X602197D01*
Y758987D01*
X601810D01*
Y759115D01*
X601424D01*
Y759244D01*
X601038D01*
Y759373D01*
X600652D01*
Y759501D01*
X600394D01*
Y759630D01*
X600008D01*
Y759759D01*
X599751D01*
Y759888D01*
X599493D01*
Y760016D01*
X599365D01*
Y760145D01*
X599236D01*
Y760274D01*
X599622D01*
Y760145D01*
D02*
G37*
G36*
X613524Y757570D02*
X613911D01*
Y757442D01*
X614168D01*
Y757313D01*
X614426D01*
Y757184D01*
X614554D01*
Y757056D01*
X614683D01*
Y756927D01*
X614812D01*
Y756798D01*
X614940D01*
Y756541D01*
X614683D01*
Y756669D01*
X614426D01*
Y756798D01*
X614039D01*
Y756927D01*
X613782D01*
Y757056D01*
X613524D01*
Y757184D01*
X613267D01*
Y757313D01*
X613009D01*
Y757442D01*
X612623D01*
Y757570D01*
X612495D01*
Y757699D01*
X613524D01*
Y757570D01*
D02*
G37*
G36*
X611722Y756669D02*
X612495D01*
Y756541D01*
X612752D01*
Y756412D01*
X612881D01*
Y756283D01*
X613138D01*
Y756154D01*
X613267D01*
Y756026D01*
X613396D01*
Y755768D01*
X613138D01*
Y755897D01*
X612752D01*
Y756026D01*
X612366D01*
Y756154D01*
X612108D01*
Y756283D01*
X611722D01*
Y756412D01*
X611465D01*
Y756541D01*
X611336D01*
Y756669D01*
X611594D01*
Y756798D01*
X611722D01*
Y756669D01*
D02*
G37*
G36*
X633734Y754352D02*
X634249D01*
Y754224D01*
X634636D01*
Y754095D01*
X634893D01*
Y753966D01*
X635022D01*
Y753838D01*
X635279D01*
Y753709D01*
X635408D01*
Y753580D01*
X635537D01*
Y753451D01*
X635665D01*
Y753323D01*
X635794D01*
Y753065D01*
X635923D01*
Y752679D01*
X635665D01*
Y752808D01*
X635537D01*
Y752936D01*
X635408D01*
Y753065D01*
X635150D01*
Y753194D01*
X635022D01*
Y753323D01*
X634764D01*
Y753451D01*
X634636D01*
Y753580D01*
X634507D01*
Y753709D01*
X634249D01*
Y753838D01*
X634121D01*
Y753966D01*
X633992D01*
Y754095D01*
X633734D01*
Y754224D01*
X633606D01*
Y754481D01*
X633734D01*
Y754352D01*
D02*
G37*
G36*
X632833Y753451D02*
X633091D01*
Y753323D01*
X633348D01*
Y753194D01*
X633477D01*
Y753065D01*
X633606D01*
Y752936D01*
X633734D01*
Y752808D01*
X633863D01*
Y752679D01*
X633992D01*
Y752550D01*
X634121D01*
Y752421D01*
X634249D01*
Y752164D01*
X634378D01*
Y751907D01*
X634507D01*
Y751520D01*
X634378D01*
Y751649D01*
X634121D01*
Y751778D01*
X633992D01*
Y751907D01*
X633863D01*
Y752035D01*
X633734D01*
Y752164D01*
X633606D01*
Y752293D01*
X633477D01*
Y752421D01*
X633348D01*
Y752550D01*
X633219D01*
Y752679D01*
X633091D01*
Y752808D01*
X632962D01*
Y752936D01*
X632833D01*
Y753065D01*
X632705D01*
Y753194D01*
X632576D01*
Y753451D01*
X632447D01*
Y753580D01*
X632833D01*
Y753451D01*
D02*
G37*
D10*
X495000Y691000D02*
G03*
X495000Y692000I0J500D01*
G01*
D02*
G03*
X495000Y691000I0J-500D01*
G01*
D11*
X272250Y590000D02*
G03*
X272250Y590000I-1250J0D01*
G01*
Y700000D02*
G03*
X272250Y700000I-1250J0D01*
G01*
X680250Y590000D02*
G03*
X680250Y590000I-1250J0D01*
G01*
Y700000D02*
G03*
X680250Y700000I-1250J0D01*
G01*
X779450Y432700D02*
G03*
X779450Y432700I-1250J0D01*
G01*
X51250Y560150D02*
G03*
X51250Y560150I-1250J0D01*
G01*
X743050Y477300D02*
G03*
X743050Y477300I-1250J0D01*
G01*
X663299Y210941D02*
G03*
X663299Y210941I-1250J0D01*
G01*
X838676Y386569D02*
G03*
X838676Y386569I-1250J0D01*
G01*
X213196Y286946D02*
G03*
X213196Y286946I-1250J0D01*
G01*
X387191Y112951D02*
G03*
X387191Y112951I-1250J0D01*
G01*
X260750Y436500D02*
G03*
X260750Y436500I-1250J0D01*
G01*
Y356500D02*
G03*
X260750Y356500I-1250J0D01*
G01*
D12*
X841810Y547034D02*
G03*
X841810Y547034I-3810J0D01*
G01*
Y677033D02*
G03*
X841810Y677033I-3810J0D01*
G01*
Y417034D02*
G03*
X841810Y417034I-3810J0D01*
G01*
D13*
X410000Y810000D02*
X415000D01*
X410000D02*
Y922500D01*
X540000D01*
Y810000D02*
Y922500D01*
X535000Y810000D02*
X540000D01*
X535000Y725000D02*
Y785000D01*
X415000Y725000D02*
Y785000D01*
Y697000D02*
X535000D01*
X440000Y810000D02*
X510000D01*
X285000Y564000D02*
X309000Y540000D01*
Y640000D02*
X351000D01*
X309000Y540000D02*
X351000D01*
X375000Y564000D01*
X351000Y640000D02*
X375000Y616000D01*
X285000D02*
X309000Y640000D01*
X285000Y674000D02*
X309000Y650000D01*
Y750000D02*
X351000D01*
X309000Y650000D02*
X351000D01*
X375000Y674000D01*
X351000Y750000D02*
X375000Y726000D01*
X285000D02*
X309000Y750000D01*
X641000Y640000D02*
X665000Y616000D01*
X599000Y540000D02*
X641000D01*
X599000Y640000D02*
X641000D01*
X575000Y616000D02*
X599000Y640000D01*
X575000Y564000D02*
X599000Y540000D01*
X641000D02*
X665000Y564000D01*
X641000Y750000D02*
X665000Y726000D01*
X599000Y650000D02*
X641000D01*
X599000Y750000D02*
X641000D01*
X575000Y726000D02*
X599000Y750000D01*
X575000Y674000D02*
X599000Y650000D01*
X641000D02*
X665000Y674000D01*
X771700Y396650D02*
Y443350D01*
X748300Y396650D02*
Y443350D01*
X200750Y672800D02*
X239250Y672800D01*
X200750Y727200D02*
X239250Y727200D01*
X34100Y592700D02*
X65900D01*
X34100Y566150D02*
X65900D01*
Y797050D01*
X34100D02*
X65900D01*
X34100Y566150D02*
Y797050D01*
X748300Y466650D02*
Y513350D01*
X771700Y466650D02*
Y513350D01*
X740469Y668781D02*
X769531D01*
X740469Y646219D02*
X769531D01*
X200750Y617200D02*
X239250Y617200D01*
X200750Y562800D02*
X239250Y562800D01*
X710750D02*
X749250Y562800D01*
X710750Y617200D02*
X749250D01*
X710750Y672800D02*
X749250Y672800D01*
X710750Y727200D02*
X749250D01*
X359035Y432973D02*
X370861Y444799D01*
X348623Y443385D02*
X360449Y455211D01*
X419182Y485660D02*
X431008Y497486D01*
X429594Y475248D02*
X441420Y487074D01*
X379735Y446213D02*
X391561Y458039D01*
X390147Y435801D02*
X401973Y447627D01*
X365582Y460355D02*
X377408Y472181D01*
X375994Y449943D02*
X387820Y461769D01*
X373177Y418831D02*
X385003Y430657D01*
X362765Y429243D02*
X374591Y441069D01*
X538834Y456820D02*
X550660Y444994D01*
X549246Y467232D02*
X561072Y455406D01*
X552976Y470962D02*
X564803Y459136D01*
X563388Y481374D02*
X575215Y469548D01*
X566379Y371606D02*
X578205Y383433D01*
X555967Y382018D02*
X567793Y393845D01*
X552226Y385748D02*
X564052Y397574D01*
X541814Y396160D02*
X553640Y407986D01*
X532276Y484202D02*
X544102Y472376D01*
X521864Y473790D02*
X533690Y461964D01*
X412785Y458429D02*
X424611Y470255D01*
X402373Y468841D02*
X414199Y480667D01*
X404888Y499650D02*
X416714Y511476D01*
X415300Y489238D02*
X427126Y501064D01*
X398632Y472571D02*
X410459Y484397D01*
X388220Y482983D02*
X400047Y494809D01*
X546418Y498344D02*
X558244Y486518D01*
X536006Y487933D02*
X547832Y476106D01*
X504893Y490761D02*
X516719Y478935D01*
X515305Y501173D02*
X527131Y489347D01*
X519035Y504903D02*
X530861Y493077D01*
X529447Y515315D02*
X541273Y503489D01*
X540780Y69873D02*
X570125Y40528D01*
X706066Y176470D02*
X733466Y203870D01*
X570125Y40528D02*
X597525Y67929D01*
X704121Y233215D02*
X733466Y203870D01*
X676721Y205815D02*
X704121Y233215D01*
X540780Y69873D02*
X568180Y97274D01*
X716157Y245502D02*
X745502Y216157D01*
X881443Y352098D02*
X908843Y379498D01*
X745502Y216157D02*
X772902Y243557D01*
X879498Y408843D02*
X908843Y379498D01*
X852098Y381443D02*
X879498Y408843D01*
X716157Y245502D02*
X743557Y272902D01*
X816130Y851745D02*
X823870D01*
X816130Y868255D02*
X823870D01*
X771500Y746500D02*
X771500Y756500D01*
X758500Y733500D02*
X771500Y746500D01*
X758500Y801500D02*
X771500Y788500D01*
Y778500D02*
Y788500D01*
X703500Y733500D02*
X758500D01*
X703500Y756500D02*
X703500Y733500D01*
X703500Y801500D02*
X703500Y778500D01*
X703500Y801500D02*
X758500Y801500D01*
X178500Y778500D02*
X178500Y788500D01*
X191500Y801500D01*
X178500Y746500D02*
X191500Y733500D01*
X178500Y746500D02*
Y756500D01*
X191500Y801500D02*
X246500D01*
X246500Y778500D01*
X246500Y756500D02*
X246500Y733500D01*
X191500Y733500D02*
X246500Y733500D01*
X740469Y643781D02*
X769531D01*
X740469Y621219D02*
X769531D01*
X180469D02*
X209531D01*
X180469Y643781D02*
X209531D01*
X180469Y646219D02*
X209531D01*
X180469Y668781D02*
X209531D01*
X530293Y124881D02*
X542119Y136707D01*
X519881Y135293D02*
X531707Y147119D01*
X543293Y111881D02*
X555119Y123707D01*
X532881Y122293D02*
X544707Y134119D01*
X706793Y301381D02*
X718619Y313207D01*
X696381Y311793D02*
X708207Y323619D01*
X719293Y288881D02*
X731119Y300707D01*
X708881Y299293D02*
X720707Y311119D01*
X41534Y378870D02*
X70879Y408215D01*
X177475Y242929D02*
X204875Y215529D01*
X41534Y378870D02*
X68934Y351470D01*
X204875Y215529D02*
X234220Y244873D01*
X206820Y272274D02*
X234220Y244873D01*
X70879Y408215D02*
X98279Y380815D01*
X215529Y204875D02*
X244873Y234220D01*
X351470Y68934D02*
X378870Y41533D01*
X215529Y204875D02*
X242929Y177475D01*
X378870Y41533D02*
X408215Y70879D01*
X380815Y98279D02*
X408215Y70879D01*
X244873Y234220D02*
X272274Y206820D01*
X167362Y371638D02*
Y388362D01*
X152638Y371638D02*
Y388362D01*
X147362Y371638D02*
Y388362D01*
X132638Y371638D02*
Y388362D01*
X342362Y196638D02*
Y213362D01*
X327638Y196638D02*
Y213362D01*
X322362Y196638D02*
Y213362D01*
X307638Y196638D02*
Y213362D01*
X243000Y436500D02*
Y503500D01*
X217000Y436500D02*
Y503500D01*
Y436500D02*
X243000D01*
X217000Y503500D02*
X243000D01*
X309061Y445939D02*
Y474061D01*
X290939Y445939D02*
Y474061D01*
X291638Y485638D02*
X308362D01*
X291638Y500362D02*
X308362D01*
X243000Y356500D02*
Y423500D01*
X217000Y356500D02*
Y423500D01*
Y356500D02*
X243000D01*
X217000Y423500D02*
X243000D01*
X309061Y365939D02*
Y394061D01*
X290939Y365939D02*
Y394061D01*
X291638Y405638D02*
X308362D01*
X291638Y420362D02*
X308362D01*
X697677Y382464D02*
X696011Y384130D01*
X692678D01*
X691012Y382464D01*
Y375799D01*
X692678Y374133D01*
X696011D01*
X697677Y375799D01*
X706007Y384130D02*
X702675D01*
X701009Y382464D01*
Y375799D01*
X702675Y374133D01*
X706007D01*
X707673Y375799D01*
Y382464D01*
X706007Y384130D01*
X711006Y374133D02*
Y384130D01*
X717670Y374133D01*
Y384130D01*
X727667D02*
X721002D01*
Y379132D01*
X724335D01*
X721002D01*
Y374133D01*
X740996Y384130D02*
X744328D01*
X742662D01*
Y374133D01*
X740996D01*
X744328D01*
X755991D02*
X749327D01*
X755991Y380798D01*
Y382464D01*
X754325Y384130D01*
X750993D01*
X749327Y382464D01*
X765988D02*
X764322Y384130D01*
X760990D01*
X759323Y382464D01*
Y375799D01*
X760990Y374133D01*
X764322D01*
X765988Y375799D01*
X715171Y551464D02*
X716837Y553130D01*
X720169D01*
X721835Y551464D01*
Y549798D01*
X720169Y548132D01*
X718503D01*
X720169D01*
X721835Y546465D01*
Y544799D01*
X720169Y543133D01*
X716837D01*
X715171Y544799D01*
X725168Y553130D02*
Y546465D01*
X728500Y543133D01*
X731832Y546465D01*
Y553130D01*
X735164Y551464D02*
X736831Y553130D01*
X740163D01*
X741829Y551464D01*
Y549798D01*
X740163Y548132D01*
X738497D01*
X740163D01*
X741829Y546465D01*
Y544799D01*
X740163Y543133D01*
X736831D01*
X735164Y544799D01*
X700176Y536334D02*
Y526337D01*
X705174D01*
X706840Y528003D01*
Y529669D01*
X705174Y531335D01*
X700176D01*
X705174D01*
X706840Y533002D01*
Y534668D01*
X705174Y536334D01*
X700176D01*
X710173D02*
Y534668D01*
X713505Y531335D01*
X716837Y534668D01*
Y536334D01*
X713505Y531335D02*
Y526337D01*
X720169D02*
Y536334D01*
X725168D01*
X726834Y534668D01*
Y531335D01*
X725168Y529669D01*
X720169D01*
X730166Y526337D02*
Y533002D01*
X733498Y536334D01*
X736831Y533002D01*
Y526337D01*
Y531335D01*
X730166D01*
X746827Y534668D02*
X745161Y536334D01*
X741829D01*
X740163Y534668D01*
Y533002D01*
X741829Y531335D01*
X745161D01*
X746827Y529669D01*
Y528003D01*
X745161Y526337D01*
X741829D01*
X740163Y528003D01*
X756824Y534668D02*
X755158Y536334D01*
X751826D01*
X750160Y534668D01*
Y533002D01*
X751826Y531335D01*
X755158D01*
X756824Y529669D01*
Y528003D01*
X755158Y526337D01*
X751826D01*
X750160Y528003D01*
X72000Y575002D02*
Y581666D01*
X76998D01*
X78664Y580000D01*
Y575002D01*
X81997D02*
Y584998D01*
X86995D01*
X88661Y583332D01*
Y580000D01*
X86995Y578334D01*
X81997D01*
X91994Y584998D02*
Y575002D01*
X95326Y578334D01*
X98658Y575002D01*
Y584998D01*
X101990D02*
Y575002D01*
X106989D01*
X108655Y576668D01*
Y583332D01*
X106989Y584998D01*
X101990D01*
X111987Y575002D02*
Y584998D01*
X118652Y575002D01*
Y584998D01*
X72000Y600402D02*
Y610398D01*
X75332Y607066D01*
X78664Y610398D01*
Y600402D01*
X88661Y610398D02*
X81997D01*
Y605400D01*
X85329D01*
X81997D01*
Y600402D01*
X91994D02*
Y610398D01*
X96992D01*
X98658Y608732D01*
Y605400D01*
X96992Y603734D01*
X91994D01*
X101990Y608732D02*
X103657Y610398D01*
X106989D01*
X108655Y608732D01*
Y602068D01*
X106989Y600402D01*
X103657D01*
X101990Y602068D01*
Y608732D01*
X72000Y625802D02*
Y635798D01*
X75332Y632466D01*
X78664Y635798D01*
Y625802D01*
X88661Y635798D02*
X81997D01*
Y630800D01*
X85329D01*
X81997D01*
Y625802D01*
X91994D02*
Y635798D01*
X96992D01*
X98658Y634132D01*
Y630800D01*
X96992Y629134D01*
X91994D01*
X101990Y625802D02*
X105323D01*
X103657D01*
Y635798D01*
X101990Y634132D01*
X72000Y651202D02*
Y661198D01*
X75332Y657866D01*
X78664Y661198D01*
Y651202D01*
X88661Y661198D02*
X81997D01*
Y656200D01*
X85329D01*
X81997D01*
Y651202D01*
X91994D02*
Y661198D01*
X96992D01*
X98658Y659532D01*
Y656200D01*
X96992Y654534D01*
X91994D01*
X108655Y651202D02*
X101990D01*
X108655Y657866D01*
Y659532D01*
X106989Y661198D01*
X103657D01*
X101990Y659532D01*
X72000Y676602D02*
Y686598D01*
X75332Y683266D01*
X78664Y686598D01*
Y676602D01*
X88661Y686598D02*
X81997D01*
Y681600D01*
X85329D01*
X81997D01*
Y676602D01*
X91994D02*
Y686598D01*
X96992D01*
X98658Y684932D01*
Y681600D01*
X96992Y679934D01*
X91994D01*
X101990Y684932D02*
X103657Y686598D01*
X106989D01*
X108655Y684932D01*
Y683266D01*
X106989Y681600D01*
X105323D01*
X106989D01*
X108655Y679934D01*
Y678268D01*
X106989Y676602D01*
X103657D01*
X101990Y678268D01*
X72000Y702002D02*
Y711998D01*
X75332Y708666D01*
X78664Y711998D01*
Y702002D01*
X88661Y711998D02*
X81997D01*
Y707000D01*
X85329D01*
X81997D01*
Y702002D01*
X91994D02*
Y711998D01*
X96992D01*
X98658Y710332D01*
Y707000D01*
X96992Y705334D01*
X91994D01*
X106989Y702002D02*
Y711998D01*
X101990Y707000D01*
X108655D01*
X72000Y727402D02*
Y737398D01*
X75332Y734066D01*
X78664Y737398D01*
Y727402D01*
X88661Y737398D02*
X81997D01*
Y732400D01*
X85329D01*
X81997D01*
Y727402D01*
X91994D02*
Y737398D01*
X96992D01*
X98658Y735732D01*
Y732400D01*
X96992Y730734D01*
X91994D01*
X108655Y737398D02*
X101990D01*
Y732400D01*
X105323Y734066D01*
X106989D01*
X108655Y732400D01*
Y729068D01*
X106989Y727402D01*
X103657D01*
X101990Y729068D01*
X72000Y752802D02*
Y762798D01*
X75332Y759466D01*
X78664Y762798D01*
Y752802D01*
X88661Y762798D02*
X81997D01*
Y757800D01*
X85329D01*
X81997D01*
Y752802D01*
X91994D02*
Y762798D01*
X96992D01*
X98658Y761132D01*
Y757800D01*
X96992Y756134D01*
X91994D01*
X101990Y762798D02*
X108655D01*
Y761132D01*
X101990Y754468D01*
Y752802D01*
X72000Y778202D02*
Y788198D01*
X75332Y784866D01*
X78664Y788198D01*
Y778202D01*
X88661Y788198D02*
X81997D01*
Y783200D01*
X85329D01*
X81997D01*
Y778202D01*
X91994D02*
Y788198D01*
X96992D01*
X98658Y786532D01*
Y783200D01*
X96992Y781534D01*
X91994D01*
X101990Y786532D02*
X103657Y788198D01*
X106989D01*
X108655Y786532D01*
Y784866D01*
X106989Y783200D01*
X108655Y781534D01*
Y779868D01*
X106989Y778202D01*
X103657D01*
X101990Y779868D01*
Y781534D01*
X103657Y783200D01*
X101990Y784866D01*
Y786532D01*
X103657Y783200D02*
X106989D01*
X753008Y124998D02*
X756340D01*
X754674D01*
Y115002D01*
X753008D01*
X756340D01*
X766337Y124998D02*
X763005D01*
X761339Y123332D01*
Y116668D01*
X763005Y115002D01*
X766337D01*
X768003Y116668D01*
Y123332D01*
X766337Y124998D01*
X771336Y123332D02*
X773002Y124998D01*
X776334D01*
X778000Y123332D01*
Y116668D01*
X776334Y115002D01*
X773002D01*
X771336Y116668D01*
Y123332D01*
X756340Y109998D02*
X759673D01*
X758007D01*
Y100002D01*
X756340D01*
X759673D01*
X769669Y109998D02*
X766337D01*
X764671Y108332D01*
Y101668D01*
X766337Y100002D01*
X769669D01*
X771336Y101668D01*
Y108332D01*
X769669Y109998D01*
X774668Y100002D02*
X778000D01*
X776334D01*
Y109998D01*
X774668Y108332D01*
X758006Y93332D02*
X756340Y94998D01*
X753008D01*
X751342Y93332D01*
Y91666D01*
X753008Y90000D01*
X756340D01*
X758006Y88334D01*
Y86668D01*
X756340Y85002D01*
X753008D01*
X751342Y86668D01*
X768003Y93332D02*
X766337Y94998D01*
X763005D01*
X761339Y93332D01*
Y86668D01*
X763005Y85002D01*
X766337D01*
X768003Y86668D01*
X771336Y94998D02*
Y85002D01*
X778000D01*
X758006Y78332D02*
X756340Y79998D01*
X753008D01*
X751342Y78332D01*
Y76666D01*
X753008Y75000D01*
X756340D01*
X758006Y73334D01*
Y71668D01*
X756340Y70002D01*
X753008D01*
X751342Y71668D01*
X761339Y79998D02*
Y70002D01*
X766337D01*
X768003Y71668D01*
Y78332D01*
X766337Y79998D01*
X761339D01*
X771336Y70002D02*
Y76666D01*
X774668Y79998D01*
X778000Y76666D01*
Y70002D01*
Y75000D01*
X771336D01*
X810331Y113328D02*
X811997Y114994D01*
Y118327D01*
X810331Y119993D01*
X803666D01*
X802000Y118327D01*
Y114994D01*
X803666Y113328D01*
X810331Y103331D02*
X811997Y104998D01*
Y108330D01*
X810331Y109996D01*
X808664D01*
X806998Y108330D01*
Y104998D01*
X805332Y103331D01*
X803666D01*
X802000Y104998D01*
Y108330D01*
X803666Y109996D01*
X811997Y99999D02*
Y96667D01*
Y98333D01*
X802000D01*
Y99999D01*
Y96667D01*
X810331Y91669D02*
X811997Y90002D01*
Y86670D01*
X810331Y85004D01*
X803666D01*
X802000Y86670D01*
Y90002D01*
X803666Y91669D01*
X810331D01*
X811997Y81672D02*
X802000D01*
Y76673D01*
X803666Y75007D01*
X805332D01*
X806998Y76673D01*
Y81672D01*
Y76673D01*
X808664Y75007D01*
X810331D01*
X811997Y76673D01*
Y81672D01*
X810331Y173328D02*
X811997Y174994D01*
Y178326D01*
X810331Y179993D01*
X803666D01*
X802000Y178326D01*
Y174994D01*
X803666Y173328D01*
X810331Y163331D02*
X811997Y164998D01*
Y168330D01*
X810331Y169996D01*
X808664D01*
X806998Y168330D01*
Y164998D01*
X805332Y163331D01*
X803666D01*
X802000Y164998D01*
Y168330D01*
X803666Y169996D01*
X811997Y159999D02*
Y156667D01*
Y158333D01*
X802000D01*
Y159999D01*
Y156667D01*
X810331Y151669D02*
X811997Y150002D01*
Y146670D01*
X810331Y145004D01*
X803666D01*
X802000Y146670D01*
Y150002D01*
X803666Y151669D01*
X810331D01*
X802000Y141672D02*
X808664D01*
X811997Y138339D01*
X808664Y135007D01*
X802000D01*
X806998D01*
Y141672D01*
X838347Y170331D02*
X836681Y171997D01*
X833348D01*
X831682Y170331D01*
Y168664D01*
X833348Y166998D01*
X836681D01*
X838347Y165332D01*
Y163666D01*
X836681Y162000D01*
X833348D01*
X831682Y163666D01*
X841679Y171997D02*
Y162000D01*
X846677D01*
X848344Y163666D01*
Y170331D01*
X846677Y171997D01*
X841679D01*
X851676Y162000D02*
Y168664D01*
X855008Y171997D01*
X858340Y168664D01*
Y162000D01*
Y166998D01*
X851676D01*
X878334Y170331D02*
X876668Y171997D01*
X873335D01*
X871669Y170331D01*
Y168664D01*
X873335Y166998D01*
X876668D01*
X878334Y165332D01*
Y163666D01*
X876668Y162000D01*
X873335D01*
X871669Y163666D01*
X888331Y171997D02*
X881666D01*
Y162000D01*
X888331D01*
X881666Y166998D02*
X884998D01*
X891663Y171997D02*
Y162000D01*
X898327D01*
X908324Y171997D02*
X901660D01*
Y162000D01*
X908324D01*
X901660Y166998D02*
X904992D01*
X918321Y170331D02*
X916655Y171997D01*
X913323D01*
X911656Y170331D01*
Y163666D01*
X913323Y162000D01*
X916655D01*
X918321Y163666D01*
X921653Y171997D02*
X928318D01*
X924986D01*
Y162000D01*
X856668Y137000D02*
Y143665D01*
X860000Y146997D01*
X863332Y143665D01*
Y137000D01*
Y141998D01*
X856668D01*
X896668Y146997D02*
Y137000D01*
X901666D01*
X903332Y138666D01*
Y140332D01*
X901666Y141998D01*
X896668D01*
X901666D01*
X903332Y143665D01*
Y145331D01*
X901666Y146997D01*
X896668D01*
Y96997D02*
Y87000D01*
X901666D01*
X903332Y88666D01*
Y90332D01*
X901666Y91998D01*
X896668D01*
X901666D01*
X903332Y93665D01*
Y95331D01*
X901666Y96997D01*
X896668D01*
X856668Y87000D02*
Y93665D01*
X860000Y96997D01*
X863332Y93665D01*
Y87000D01*
Y91998D01*
X856668D01*
X838347Y120331D02*
X836681Y121997D01*
X833348D01*
X831682Y120331D01*
Y118665D01*
X833348Y116998D01*
X836681D01*
X838347Y115332D01*
Y113666D01*
X836681Y112000D01*
X833348D01*
X831682Y113666D01*
X848344Y120331D02*
X846677Y121997D01*
X843345D01*
X841679Y120331D01*
Y113666D01*
X843345Y112000D01*
X846677D01*
X848344Y113666D01*
X851676Y121997D02*
Y112000D01*
X858340D01*
X878334Y120331D02*
X876668Y121997D01*
X873335D01*
X871669Y120331D01*
Y118665D01*
X873335Y116998D01*
X876668D01*
X878334Y115332D01*
Y113666D01*
X876668Y112000D01*
X873335D01*
X871669Y113666D01*
X888331Y121997D02*
X881666D01*
Y112000D01*
X888331D01*
X881666Y116998D02*
X884998D01*
X891663Y121997D02*
Y112000D01*
X898327D01*
X908324Y121997D02*
X901660D01*
Y112000D01*
X908324D01*
X901660Y116998D02*
X904992D01*
X918321Y120331D02*
X916655Y121997D01*
X913323D01*
X911656Y120331D01*
Y113666D01*
X913323Y112000D01*
X916655D01*
X918321Y113666D01*
X921653Y121997D02*
X928318D01*
X924986D01*
Y112000D01*
X28347Y120331D02*
X26681Y121997D01*
X23348D01*
X21682Y120331D01*
Y118665D01*
X23348Y116998D01*
X26681D01*
X28347Y115332D01*
Y113666D01*
X26681Y112000D01*
X23348D01*
X21682Y113666D01*
X38344Y120331D02*
X36677Y121997D01*
X33345D01*
X31679Y120331D01*
Y113666D01*
X33345Y112000D01*
X36677D01*
X38344Y113666D01*
X41676Y121997D02*
Y112000D01*
X48340D01*
X68334Y120331D02*
X66668Y121997D01*
X63335D01*
X61669Y120331D01*
Y118665D01*
X63335Y116998D01*
X66668D01*
X68334Y115332D01*
Y113666D01*
X66668Y112000D01*
X63335D01*
X61669Y113666D01*
X78331Y121997D02*
X71666D01*
Y112000D01*
X78331D01*
X71666Y116998D02*
X74998D01*
X81663Y121997D02*
Y112000D01*
X88327D01*
X98324Y121997D02*
X91660D01*
Y112000D01*
X98324D01*
X91660Y116998D02*
X94992D01*
X108321Y120331D02*
X106655Y121997D01*
X103323D01*
X101657Y120331D01*
Y113666D01*
X103323Y112000D01*
X106655D01*
X108321Y113666D01*
X111653Y121997D02*
X118318D01*
X114986D01*
Y112000D01*
X46668Y87000D02*
Y93665D01*
X50000Y96997D01*
X53332Y93665D01*
Y87000D01*
Y91998D01*
X46668D01*
X86668Y96997D02*
Y87000D01*
X91666D01*
X93332Y88666D01*
Y90332D01*
X91666Y91998D01*
X86668D01*
X91666D01*
X93332Y93665D01*
Y95331D01*
X91666Y96997D01*
X86668D01*
Y146997D02*
Y137000D01*
X91666D01*
X93332Y138666D01*
Y140332D01*
X91666Y141998D01*
X86668D01*
X91666D01*
X93332Y143665D01*
Y145331D01*
X91666Y146997D01*
X86668D01*
X46668Y137000D02*
Y143665D01*
X50000Y146997D01*
X53332Y143665D01*
Y137000D01*
Y141998D01*
X46668D01*
X28347Y170331D02*
X26681Y171997D01*
X23348D01*
X21682Y170331D01*
Y168664D01*
X23348Y166998D01*
X26681D01*
X28347Y165332D01*
Y163666D01*
X26681Y162000D01*
X23348D01*
X21682Y163666D01*
X31679Y171997D02*
Y162000D01*
X36677D01*
X38344Y163666D01*
Y170331D01*
X36677Y171997D01*
X31679D01*
X41676Y162000D02*
Y168664D01*
X45008Y171997D01*
X48340Y168664D01*
Y162000D01*
Y166998D01*
X41676D01*
X68334Y170331D02*
X66668Y171997D01*
X63335D01*
X61669Y170331D01*
Y168664D01*
X63335Y166998D01*
X66668D01*
X68334Y165332D01*
Y163666D01*
X66668Y162000D01*
X63335D01*
X61669Y163666D01*
X78331Y171997D02*
X71666D01*
Y162000D01*
X78331D01*
X71666Y166998D02*
X74998D01*
X81663Y171997D02*
Y162000D01*
X88327D01*
X98324Y171997D02*
X91660D01*
Y162000D01*
X98324D01*
X91660Y166998D02*
X94992D01*
X108321Y170331D02*
X106655Y171997D01*
X103323D01*
X101657Y170331D01*
Y163666D01*
X103323Y162000D01*
X106655D01*
X108321Y163666D01*
X111653Y171997D02*
X118318D01*
X114986D01*
Y162000D01*
X139669Y142505D02*
X138003Y140839D01*
Y137507D01*
X139669Y135840D01*
X146334D01*
X148000Y137507D01*
Y140839D01*
X146334Y142505D01*
X139669Y152502D02*
X138003Y150836D01*
Y147503D01*
X139669Y145837D01*
X141335D01*
X143002Y147503D01*
Y150836D01*
X144668Y152502D01*
X146334D01*
X148000Y150836D01*
Y147503D01*
X146334Y145837D01*
X138003Y155834D02*
Y159166D01*
Y157500D01*
X148000D01*
Y155834D01*
Y159166D01*
Y164165D02*
Y167497D01*
Y165831D01*
X138003D01*
X139669Y164165D01*
X138003Y172495D02*
X148000D01*
Y177494D01*
X146334Y179160D01*
X144668D01*
X143002Y177494D01*
Y172495D01*
Y177494D01*
X141335Y179160D01*
X139669D01*
X138003Y177494D01*
Y172495D01*
X139669Y82505D02*
X138003Y80839D01*
Y77506D01*
X139669Y75840D01*
X146334D01*
X148000Y77506D01*
Y80839D01*
X146334Y82505D01*
X139669Y92502D02*
X138003Y90836D01*
Y87503D01*
X139669Y85837D01*
X141335D01*
X143002Y87503D01*
Y90836D01*
X144668Y92502D01*
X146334D01*
X148000Y90836D01*
Y87503D01*
X146334Y85837D01*
X138003Y95834D02*
Y99166D01*
Y97500D01*
X148000D01*
Y95834D01*
Y99166D01*
Y104165D02*
Y107497D01*
Y105831D01*
X138003D01*
X139669Y104165D01*
X148000Y112495D02*
X141335D01*
X138003Y115828D01*
X141335Y119160D01*
X148000D01*
X143002D01*
Y112495D01*
X178664Y123332D02*
X176998Y124999D01*
X173666D01*
X172000Y123332D01*
Y121666D01*
X173666Y120000D01*
X176998D01*
X178664Y118334D01*
Y116668D01*
X176998Y115002D01*
X173666D01*
X172000Y116668D01*
X181997Y124999D02*
Y115002D01*
X186995D01*
X188661Y116668D01*
Y123332D01*
X186995Y124999D01*
X181997D01*
X191994Y115002D02*
Y121666D01*
X195326Y124999D01*
X198658Y121666D01*
Y115002D01*
Y120000D01*
X191994D01*
X178664Y108332D02*
X176998Y109999D01*
X173666D01*
X172000Y108332D01*
Y106666D01*
X173666Y105000D01*
X176998D01*
X178664Y103334D01*
Y101668D01*
X176998Y100002D01*
X173666D01*
X172000Y101668D01*
X188661Y108332D02*
X186995Y109999D01*
X183663D01*
X181997Y108332D01*
Y101668D01*
X183663Y100002D01*
X186995D01*
X188661Y101668D01*
X191994Y109999D02*
Y100002D01*
X198658D01*
X172000Y94999D02*
X175332D01*
X173666D01*
Y85002D01*
X172000D01*
X175332D01*
X185329Y94999D02*
X181997D01*
X180331Y93332D01*
Y86668D01*
X181997Y85002D01*
X185329D01*
X186995Y86668D01*
Y93332D01*
X185329Y94999D01*
X190327Y85002D02*
X193660D01*
X191994D01*
Y94999D01*
X190327Y93332D01*
X172000Y79998D02*
X175332D01*
X173666D01*
Y70002D01*
X172000D01*
X175332D01*
X185329Y79998D02*
X181997D01*
X180331Y78332D01*
Y71668D01*
X181997Y70002D01*
X185329D01*
X186995Y71668D01*
Y78332D01*
X185329Y79998D01*
X190327Y78332D02*
X191994Y79998D01*
X195326D01*
X196992Y78332D01*
Y71668D01*
X195326Y70002D01*
X191994D01*
X190327Y71668D01*
Y78332D01*
X172000Y139998D02*
X175332D01*
X173666D01*
Y130002D01*
X172000D01*
X175332D01*
X185329Y139998D02*
X181997D01*
X180331Y138332D01*
Y131668D01*
X181997Y130002D01*
X185329D01*
X186995Y131668D01*
Y138332D01*
X185329Y139998D01*
X190327Y138332D02*
X191994Y139998D01*
X195326D01*
X196992Y138332D01*
Y131668D01*
X195326Y130002D01*
X191994D01*
X190327Y131668D01*
Y138332D01*
X172000Y154998D02*
X175332D01*
X173666D01*
Y145002D01*
X172000D01*
X175332D01*
X185329Y154998D02*
X181997D01*
X180331Y153332D01*
Y146668D01*
X181997Y145002D01*
X185329D01*
X186995Y146668D01*
Y153332D01*
X185329Y154998D01*
X190327Y145002D02*
X193660D01*
X191994D01*
Y154998D01*
X190327Y153332D01*
X178664Y168332D02*
X176998Y169998D01*
X173666D01*
X172000Y168332D01*
Y166666D01*
X173666Y165000D01*
X176998D01*
X178664Y163334D01*
Y161668D01*
X176998Y160002D01*
X173666D01*
X172000Y161668D01*
X188661Y168332D02*
X186995Y169998D01*
X183663D01*
X181997Y168332D01*
Y161668D01*
X183663Y160002D01*
X186995D01*
X188661Y161668D01*
X191994Y169998D02*
Y160002D01*
X198658D01*
X178664Y183332D02*
X176998Y184998D01*
X173666D01*
X172000Y183332D01*
Y181666D01*
X173666Y180000D01*
X176998D01*
X178664Y178334D01*
Y176668D01*
X176998Y175002D01*
X173666D01*
X172000Y176668D01*
X181997Y184998D02*
Y175002D01*
X186995D01*
X188661Y176668D01*
Y183332D01*
X186995Y184998D01*
X181997D01*
X191994Y175002D02*
Y181666D01*
X195326Y184998D01*
X198658Y181666D01*
Y175002D01*
Y180000D01*
X191994D01*
X758006Y138332D02*
X756340Y139998D01*
X753008D01*
X751342Y138332D01*
Y136666D01*
X753008Y135000D01*
X756340D01*
X758006Y133334D01*
Y131668D01*
X756340Y130002D01*
X753008D01*
X751342Y131668D01*
X761339Y139998D02*
Y130002D01*
X766337D01*
X768003Y131668D01*
Y138332D01*
X766337Y139998D01*
X761339D01*
X771336Y130002D02*
Y136666D01*
X774668Y139998D01*
X778000Y136666D01*
Y130002D01*
Y135000D01*
X771336D01*
X758006Y153332D02*
X756340Y154998D01*
X753008D01*
X751342Y153332D01*
Y151666D01*
X753008Y150000D01*
X756340D01*
X758006Y148334D01*
Y146668D01*
X756340Y145002D01*
X753008D01*
X751342Y146668D01*
X768003Y153332D02*
X766337Y154998D01*
X763005D01*
X761339Y153332D01*
Y146668D01*
X763005Y145002D01*
X766337D01*
X768003Y146668D01*
X771336Y154998D02*
Y145002D01*
X778000D01*
X756340Y169998D02*
X759673D01*
X758007D01*
Y160002D01*
X756340D01*
X759673D01*
X769669Y169998D02*
X766337D01*
X764671Y168332D01*
Y161668D01*
X766337Y160002D01*
X769669D01*
X771336Y161668D01*
Y168332D01*
X769669Y169998D01*
X774668Y160002D02*
X778000D01*
X776334D01*
Y169998D01*
X774668Y168332D01*
X753008Y184998D02*
X756340D01*
X754674D01*
Y175002D01*
X753008D01*
X756340D01*
X766337Y184998D02*
X763005D01*
X761339Y183332D01*
Y176668D01*
X763005Y175002D01*
X766337D01*
X768003Y176668D01*
Y183332D01*
X766337Y184998D01*
X771336Y183332D02*
X773002Y184998D01*
X776334D01*
X778000Y183332D01*
Y176668D01*
X776334Y175002D01*
X773002D01*
X771336Y176668D01*
Y183332D01*
X447000Y350002D02*
Y359998D01*
X450332Y356666D01*
X453665Y359998D01*
Y350002D01*
X463661Y359998D02*
X456997D01*
Y355000D01*
X460329D01*
X456997D01*
Y350002D01*
X466994D02*
Y359998D01*
X471992D01*
X473658Y358332D01*
Y355000D01*
X471992Y353334D01*
X466994D01*
X476990Y358332D02*
X478657Y359998D01*
X481989D01*
X483655Y358332D01*
Y351668D01*
X481989Y350002D01*
X478657D01*
X476990Y351668D01*
Y358332D01*
X447000Y365002D02*
Y374998D01*
X450332Y371666D01*
X453665Y374998D01*
Y365002D01*
X463661Y374998D02*
X456997D01*
Y370000D01*
X460329D01*
X456997D01*
Y365002D01*
X466994D02*
Y374998D01*
X471992D01*
X473658Y373332D01*
Y370000D01*
X471992Y368334D01*
X466994D01*
X476990Y365002D02*
X480323D01*
X478657D01*
Y374998D01*
X476990Y373332D01*
X447000Y380002D02*
Y389998D01*
X450332Y386666D01*
X453665Y389998D01*
Y380002D01*
X463661Y389998D02*
X456997D01*
Y385000D01*
X460329D01*
X456997D01*
Y380002D01*
X466994D02*
Y389998D01*
X471992D01*
X473658Y388332D01*
Y385000D01*
X471992Y383334D01*
X466994D01*
X483655Y380002D02*
X476990D01*
X483655Y386666D01*
Y388332D01*
X481989Y389998D01*
X478657D01*
X476990Y388332D01*
X618665Y423332D02*
X616998Y424998D01*
X613666D01*
X612000Y423332D01*
Y416668D01*
X613666Y415002D01*
X616998D01*
X618665Y416668D01*
X628661Y424998D02*
X621997D01*
Y420000D01*
X625329D01*
X621997D01*
Y415002D01*
X638658Y423332D02*
X636992Y424998D01*
X633660D01*
X631994Y423332D01*
Y416668D01*
X633660Y415002D01*
X636992D01*
X638658Y416668D01*
Y420000D01*
X635326D01*
X641990Y423332D02*
X643656Y424998D01*
X646989D01*
X648655Y423332D01*
Y416668D01*
X646989Y415002D01*
X643656D01*
X641990Y416668D01*
Y423332D01*
X618665Y408332D02*
X616998Y409998D01*
X613666D01*
X612000Y408332D01*
Y401668D01*
X613666Y400002D01*
X616998D01*
X618665Y401668D01*
X628661Y409998D02*
X621997D01*
Y405000D01*
X625329D01*
X621997D01*
Y400002D01*
X638658Y408332D02*
X636992Y409998D01*
X633660D01*
X631994Y408332D01*
Y401668D01*
X633660Y400002D01*
X636992D01*
X638658Y401668D01*
Y405000D01*
X635326D01*
X641990Y400002D02*
X645323D01*
X643656D01*
Y409998D01*
X641990Y408332D01*
X447000Y505002D02*
Y511666D01*
X451998D01*
X453665Y510000D01*
Y505002D01*
X456997D02*
Y514998D01*
X461995D01*
X463661Y513332D01*
Y510000D01*
X461995Y508334D01*
X456997D01*
X466994Y514998D02*
Y505002D01*
X470326Y508334D01*
X473658Y505002D01*
Y514998D01*
X476990D02*
Y505002D01*
X481989D01*
X483655Y506668D01*
Y513332D01*
X481989Y514998D01*
X476990D01*
X486987Y505002D02*
Y514998D01*
X493652Y505002D01*
Y514998D01*
X447000Y520002D02*
Y529998D01*
X450332Y526666D01*
X453665Y529998D01*
Y520002D01*
X463661Y529998D02*
X456997D01*
Y525000D01*
X460329D01*
X456997D01*
Y520002D01*
X466994D02*
Y529998D01*
X471992D01*
X473658Y528332D01*
Y525000D01*
X471992Y523334D01*
X466994D01*
X476990Y528332D02*
X478657Y529998D01*
X481989D01*
X483655Y528332D01*
Y526666D01*
X481989Y525000D01*
X480323D01*
X481989D01*
X483655Y523334D01*
Y521668D01*
X481989Y520002D01*
X478657D01*
X476990Y521668D01*
X447000Y550002D02*
Y559998D01*
X450332Y556666D01*
X453665Y559998D01*
Y550002D01*
X463661Y559998D02*
X456997D01*
Y555000D01*
X460329D01*
X456997D01*
Y550002D01*
X466994D02*
Y559998D01*
X471992D01*
X473658Y558332D01*
Y555000D01*
X471992Y553334D01*
X466994D01*
X483655Y559998D02*
X476990D01*
Y555000D01*
X480323Y556666D01*
X481989D01*
X483655Y555000D01*
Y551668D01*
X481989Y550002D01*
X478657D01*
X476990Y551668D01*
X447000Y535002D02*
Y544998D01*
X450332Y541666D01*
X453665Y544998D01*
Y535002D01*
X463661Y544998D02*
X456997D01*
Y540000D01*
X460329D01*
X456997D01*
Y535002D01*
X466994D02*
Y544998D01*
X471992D01*
X473658Y543332D01*
Y540000D01*
X471992Y538334D01*
X466994D01*
X481989Y535002D02*
Y544998D01*
X476990Y540000D01*
X483655D01*
X705345Y480332D02*
X707011Y481998D01*
X710344D01*
X712010Y480332D01*
Y478666D01*
X710344Y477000D01*
X708677D01*
X710344D01*
X712010Y475334D01*
Y473668D01*
X710344Y472002D01*
X707011D01*
X705345Y473668D01*
X715342Y481998D02*
Y475334D01*
X718674Y472002D01*
X722007Y475334D01*
Y481998D01*
X725339Y480332D02*
X727005Y481998D01*
X730337D01*
X732003Y480332D01*
Y478666D01*
X730337Y477000D01*
X728671D01*
X730337D01*
X732003Y475334D01*
Y473668D01*
X730337Y472002D01*
X727005D01*
X725339Y473668D01*
X685352Y508831D02*
Y498835D01*
X692016D01*
X700347Y508831D02*
X697014D01*
X695348Y507165D01*
Y500501D01*
X697014Y498835D01*
X700347D01*
X702013Y500501D01*
Y507165D01*
X700347Y508831D01*
X705345Y497169D02*
X712010D01*
X715342Y508831D02*
Y502167D01*
X718674Y498835D01*
X722007Y502167D01*
Y508831D01*
X732003Y507165D02*
X730337Y508831D01*
X727005D01*
X725339Y507165D01*
Y500501D01*
X727005Y498835D01*
X730337D01*
X732003Y500501D01*
X742000Y507165D02*
X740334Y508831D01*
X737002D01*
X735335Y507165D01*
Y500501D01*
X737002Y498835D01*
X740334D01*
X742000Y500501D01*
X722007Y410332D02*
X720340Y411998D01*
X717008D01*
X715342Y410332D01*
Y408666D01*
X717008Y407000D01*
X720340D01*
X722007Y405334D01*
Y403668D01*
X720340Y402002D01*
X717008D01*
X715342Y403668D01*
X732003Y410332D02*
X730337Y411998D01*
X727005D01*
X725339Y410332D01*
Y403668D01*
X727005Y402002D01*
X730337D01*
X732003Y403668D01*
X735335Y411998D02*
Y402002D01*
X742000D01*
X722007Y436332D02*
X720340Y437998D01*
X717008D01*
X715342Y436332D01*
Y434666D01*
X717008Y433000D01*
X720340D01*
X722007Y431334D01*
Y429668D01*
X720340Y428002D01*
X717008D01*
X715342Y429668D01*
X725339Y437998D02*
Y428002D01*
X730337D01*
X732003Y429668D01*
Y436332D01*
X730337Y437998D01*
X725339D01*
X735335Y428002D02*
Y434666D01*
X738668Y437998D01*
X742000Y434666D01*
Y428002D01*
Y433000D01*
X735335D01*
X623663Y348332D02*
X621997Y349998D01*
X618665D01*
X616998Y348332D01*
Y346666D01*
X618665Y345000D01*
X621997D01*
X623663Y343334D01*
Y341668D01*
X621997Y340002D01*
X618665D01*
X616998Y341668D01*
X633660Y348332D02*
X631994Y349998D01*
X628661D01*
X626995Y348332D01*
Y341668D01*
X628661Y340002D01*
X631994D01*
X633660Y341668D01*
X636992Y349998D02*
Y340002D01*
X643656D01*
X623663Y363332D02*
X621997Y364998D01*
X618665D01*
X616998Y363332D01*
Y361666D01*
X618665Y360000D01*
X621997D01*
X623663Y358334D01*
Y356668D01*
X621997Y355002D01*
X618665D01*
X616998Y356668D01*
X626995Y364998D02*
Y355002D01*
X631994D01*
X633660Y356668D01*
Y363332D01*
X631994Y364998D01*
X626995D01*
X636992Y355002D02*
Y361666D01*
X640324Y364998D01*
X643656Y361666D01*
Y355002D01*
Y360000D01*
X636992D01*
X612000Y370002D02*
Y379998D01*
X615332Y376666D01*
X618665Y379998D01*
Y370002D01*
X628661Y379998D02*
X621997D01*
Y375000D01*
X625329D01*
X621997D01*
Y370002D01*
X631994D02*
Y379998D01*
X636992D01*
X638658Y378332D01*
Y375000D01*
X636992Y373334D01*
X631994D01*
X641990Y378332D02*
X643656Y379998D01*
X646989D01*
X648655Y378332D01*
Y376666D01*
X646989Y375000D01*
X648655Y373334D01*
Y371668D01*
X646989Y370002D01*
X643656D01*
X641990Y371668D01*
Y373334D01*
X643656Y375000D01*
X641990Y376666D01*
Y378332D01*
X643656Y375000D02*
X646989D01*
X612000Y385002D02*
Y394998D01*
X615332Y391666D01*
X618665Y394998D01*
Y385002D01*
X628661Y394998D02*
X621997D01*
Y390000D01*
X625329D01*
X621997D01*
Y385002D01*
X631994D02*
Y394998D01*
X636992D01*
X638658Y393332D01*
Y390000D01*
X636992Y388334D01*
X631994D01*
X641990Y394998D02*
X648655D01*
Y393332D01*
X641990Y386668D01*
Y385002D01*
D14*
X800000Y70000D02*
Y125000D01*
Y130000D02*
Y185000D01*
X150000Y130000D02*
Y185000D01*
Y70000D02*
Y125000D01*
D15*
X685000Y390000D02*
X772000D01*
X685000Y520000D02*
X772000D01*
X792540Y477618D02*
X802697D01*
X797618Y482697D02*
Y472540D01*
X792540Y512540D02*
X802697D01*
X792540Y607618D02*
X802697D01*
X797618Y612697D02*
Y602540D01*
X792540Y642540D02*
X802697D01*
X792540Y772540D02*
X802697D01*
X792540Y737618D02*
X802697D01*
X797618Y742697D02*
Y732540D01*
X897540Y545236D02*
X900079Y547775D01*
X905157D01*
X907697Y545236D01*
Y542697D01*
X905157Y540158D01*
X902618D01*
X905157D01*
X907697Y537618D01*
Y535079D01*
X905157Y532540D01*
X900079D01*
X897540Y535079D01*
X912775Y547775D02*
Y537618D01*
X917853Y532540D01*
X922932Y537618D01*
Y547775D01*
X928010Y545236D02*
X930549Y547775D01*
X935628D01*
X938167Y545236D01*
Y542697D01*
X935628Y540158D01*
X933089D01*
X935628D01*
X938167Y537618D01*
Y535079D01*
X935628Y532540D01*
X930549D01*
X928010Y535079D01*
X852540Y680314D02*
Y665079D01*
X862697D01*
X867775Y680314D02*
Y670157D01*
X872853Y665079D01*
X877932Y670157D01*
Y680314D01*
X883010Y662540D02*
X893167D01*
X898245Y680314D02*
Y670157D01*
X903324Y665079D01*
X908402Y670157D01*
Y680314D01*
X923637Y677775D02*
X921098Y680314D01*
X916020D01*
X913480Y677775D01*
Y667618D01*
X916020Y665079D01*
X921098D01*
X923637Y667618D01*
X938872Y677775D02*
X936333Y680314D01*
X931255D01*
X928715Y677775D01*
Y667618D01*
X931255Y665079D01*
X936333D01*
X938872Y667618D01*
X837540Y795079D02*
Y810314D01*
X845157D01*
X847697Y807775D01*
Y802697D01*
X845157Y800157D01*
X837540D01*
X855314Y795079D02*
X860393D01*
X862932Y797618D01*
Y802697D01*
X860393Y805236D01*
X855314D01*
X852775Y802697D01*
Y797618D01*
X855314Y795079D01*
X878167Y807775D02*
X875628Y810314D01*
X870549D01*
X868010Y807775D01*
Y797618D01*
X870549Y795079D01*
X875628D01*
X878167Y797618D01*
X883245Y792540D02*
X893402D01*
X898480Y810314D02*
Y800157D01*
X903559Y795079D01*
X908637Y800157D01*
Y810314D01*
X923872Y807775D02*
X921333Y810314D01*
X916255D01*
X913715Y807775D01*
Y797618D01*
X916255Y795079D01*
X921333D01*
X923872Y797618D01*
X939107Y807775D02*
X936568Y810314D01*
X931490D01*
X928950Y807775D01*
Y797618D01*
X931490Y795079D01*
X936568D01*
X939107Y797618D01*
D16*
X814730Y564813D02*
X940206D01*
X814730D02*
Y657270D01*
X940206D01*
Y564813D02*
Y657270D01*
Y694814D02*
Y787270D01*
X814730D02*
X940206D01*
X814730Y694814D02*
Y787270D01*
Y694814D02*
X940206D01*
Y434813D02*
Y527270D01*
X814730D02*
X940206D01*
X814730Y434813D02*
Y527270D01*
Y434813D02*
X940206D01*
D17*
X783499Y733500D02*
Y801500D01*
X166501Y733500D02*
Y801500D01*
M02*
