G04*
G04 #@! TF.GenerationSoftware,Altium Limited,Altium Designer,24.4.1 (13)*
G04*
G04 Layer_Physical_Order=4*
G04 Layer_Color=16711680*
%FSLAX44Y44*%
%MOMM*%
G71*
G04*
G04 #@! TF.SameCoordinates,A59C2C85-A93C-4369-95B1-CFFD4854EA8D*
G04*
G04*
G04 #@! TF.FilePolarity,Positive*
G04*
G01*
G75*
%ADD11C,0.2500*%
%ADD13C,0.2000*%
%ADD15C,0.2540*%
G04:AMPARAMS|DCode=23|XSize=0.7154mm|YSize=0.6725mm|CornerRadius=0mm|HoleSize=0mm|Usage=FLASHONLY|Rotation=45.000|XOffset=0mm|YOffset=0mm|HoleType=Round|Shape=Rectangle|*
%AMROTATEDRECTD23*
4,1,4,-0.0152,-0.4907,-0.4907,-0.0152,0.0152,0.4907,0.4907,0.0152,-0.0152,-0.4907,0.0*
%
%ADD23ROTATEDRECTD23*%

G04:AMPARAMS|DCode=24|XSize=0.7154mm|YSize=0.6725mm|CornerRadius=0mm|HoleSize=0mm|Usage=FLASHONLY|Rotation=315.000|XOffset=0mm|YOffset=0mm|HoleType=Round|Shape=Rectangle|*
%AMROTATEDRECTD24*
4,1,4,-0.4907,0.0152,-0.0152,0.4907,0.4907,-0.0152,0.0152,-0.4907,-0.4907,0.0152,0.0*
%
%ADD24ROTATEDRECTD24*%

G04:AMPARAMS|DCode=27|XSize=0.85mm|YSize=0.7mm|CornerRadius=0mm|HoleSize=0mm|Usage=FLASHONLY|Rotation=135.000|XOffset=0mm|YOffset=0mm|HoleType=Round|Shape=Rectangle|*
%AMROTATEDRECTD27*
4,1,4,0.5480,-0.0530,0.0530,-0.5480,-0.5480,0.0530,-0.0530,0.5480,0.5480,-0.0530,0.0*
%
%ADD27ROTATEDRECTD27*%

%ADD40R,0.7154X0.6725*%
%ADD58C,1.3100*%
%ADD59R,1.3100X1.3100*%
%ADD60C,1.5748*%
%ADD65C,0.1519*%
%ADD66C,0.1724*%
%ADD71C,0.3000*%
%ADD77C,1.2000*%
%ADD78C,2.1000*%
%ADD79C,2.5500*%
%ADD80C,1.4000*%
%ADD81R,1.4000X1.4000*%
%ADD82C,0.5000*%
%ADD83C,1.0000*%
%ADD84C,5.0000*%
%ADD86C,0.2614*%
%ADD87R,1.4562X1.2546*%
%ADD88R,0.9000X0.6500*%
%ADD89R,2.6500X0.6500*%
%ADD90R,0.8500X0.7500*%
G04:AMPARAMS|DCode=91|XSize=0.64mm|YSize=1.02mm|CornerRadius=0mm|HoleSize=0mm|Usage=FLASHONLY|Rotation=135.000|XOffset=0mm|YOffset=0mm|HoleType=Round|Shape=Rectangle|*
%AMROTATEDRECTD91*
4,1,4,0.5869,0.1343,-0.1343,-0.5869,-0.5869,-0.1343,0.1343,0.5869,0.5869,0.1343,0.0*
%
%ADD91ROTATEDRECTD91*%

G04:AMPARAMS|DCode=92|XSize=0.64mm|YSize=1.02mm|CornerRadius=0mm|HoleSize=0mm|Usage=FLASHONLY|Rotation=45.000|XOffset=0mm|YOffset=0mm|HoleType=Round|Shape=Rectangle|*
%AMROTATEDRECTD92*
4,1,4,0.1343,-0.5869,-0.5869,0.1343,-0.1343,0.5869,0.5869,-0.1343,0.1343,-0.5869,0.0*
%
%ADD92ROTATEDRECTD92*%

G04:AMPARAMS|DCode=93|XSize=0.565mm|YSize=0.2mm|CornerRadius=0.05mm|HoleSize=0mm|Usage=FLASHONLY|Rotation=225.000|XOffset=0mm|YOffset=0mm|HoleType=Round|Shape=RoundedRectangle|*
%AMROUNDEDRECTD93*
21,1,0.5650,0.1000,0,0,225.0*
21,1,0.4650,0.2000,0,0,225.0*
1,1,0.1000,-0.1998,-0.1291*
1,1,0.1000,0.1291,0.1998*
1,1,0.1000,0.1998,0.1291*
1,1,0.1000,-0.1291,-0.1998*
%
%ADD93ROUNDEDRECTD93*%
G04:AMPARAMS|DCode=94|XSize=0.565mm|YSize=0.4mm|CornerRadius=0.05mm|HoleSize=0mm|Usage=FLASHONLY|Rotation=225.000|XOffset=0mm|YOffset=0mm|HoleType=Round|Shape=RoundedRectangle|*
%AMROUNDEDRECTD94*
21,1,0.5650,0.3000,0,0,225.0*
21,1,0.4650,0.4000,0,0,225.0*
1,1,0.1000,-0.2705,-0.0583*
1,1,0.1000,0.0583,0.2705*
1,1,0.1000,0.2705,0.0583*
1,1,0.1000,-0.0583,-0.2705*
%
%ADD94ROUNDEDRECTD94*%
G04:AMPARAMS|DCode=95|XSize=0.565mm|YSize=0.2mm|CornerRadius=0.05mm|HoleSize=0mm|Usage=FLASHONLY|Rotation=90.000|XOffset=0mm|YOffset=0mm|HoleType=Round|Shape=RoundedRectangle|*
%AMROUNDEDRECTD95*
21,1,0.5650,0.1000,0,0,90.0*
21,1,0.4650,0.2000,0,0,90.0*
1,1,0.1000,0.0500,0.2325*
1,1,0.1000,0.0500,-0.2325*
1,1,0.1000,-0.0500,-0.2325*
1,1,0.1000,-0.0500,0.2325*
%
%ADD95ROUNDEDRECTD95*%
G04:AMPARAMS|DCode=96|XSize=0.565mm|YSize=0.4mm|CornerRadius=0.05mm|HoleSize=0mm|Usage=FLASHONLY|Rotation=90.000|XOffset=0mm|YOffset=0mm|HoleType=Round|Shape=RoundedRectangle|*
%AMROUNDEDRECTD96*
21,1,0.5650,0.3000,0,0,90.0*
21,1,0.4650,0.4000,0,0,90.0*
1,1,0.1000,0.1500,0.2325*
1,1,0.1000,0.1500,-0.2325*
1,1,0.1000,-0.1500,-0.2325*
1,1,0.1000,-0.1500,0.2325*
%
%ADD96ROUNDEDRECTD96*%
G04:AMPARAMS|DCode=97|XSize=0.565mm|YSize=0.2mm|CornerRadius=0.05mm|HoleSize=0mm|Usage=FLASHONLY|Rotation=315.000|XOffset=0mm|YOffset=0mm|HoleType=Round|Shape=RoundedRectangle|*
%AMROUNDEDRECTD97*
21,1,0.5650,0.1000,0,0,315.0*
21,1,0.4650,0.2000,0,0,315.0*
1,1,0.1000,0.1291,-0.1998*
1,1,0.1000,-0.1998,0.1291*
1,1,0.1000,-0.1291,0.1998*
1,1,0.1000,0.1998,-0.1291*
%
%ADD97ROUNDEDRECTD97*%
G04:AMPARAMS|DCode=98|XSize=0.565mm|YSize=0.4mm|CornerRadius=0.05mm|HoleSize=0mm|Usage=FLASHONLY|Rotation=315.000|XOffset=0mm|YOffset=0mm|HoleType=Round|Shape=RoundedRectangle|*
%AMROUNDEDRECTD98*
21,1,0.5650,0.3000,0,0,315.0*
21,1,0.4650,0.4000,0,0,315.0*
1,1,0.1000,0.0583,-0.2705*
1,1,0.1000,-0.2705,0.0583*
1,1,0.1000,-0.0583,0.2705*
1,1,0.1000,0.2705,-0.0583*
%
%ADD98ROUNDEDRECTD98*%
G04:AMPARAMS|DCode=99|XSize=1.05mm|YSize=0.9mm|CornerRadius=0mm|HoleSize=0mm|Usage=FLASHONLY|Rotation=135.000|XOffset=0mm|YOffset=0mm|HoleType=Round|Shape=Rectangle|*
%AMROTATEDRECTD99*
4,1,4,0.6894,-0.0530,0.0530,-0.6894,-0.6894,0.0530,-0.0530,0.6894,0.6894,-0.0530,0.0*
%
%ADD99ROTATEDRECTD99*%

G04:AMPARAMS|DCode=100|XSize=1.05mm|YSize=0.9mm|CornerRadius=0mm|HoleSize=0mm|Usage=FLASHONLY|Rotation=225.000|XOffset=0mm|YOffset=0mm|HoleType=Round|Shape=Rectangle|*
%AMROTATEDRECTD100*
4,1,4,0.0530,0.6894,0.6894,0.0530,-0.0530,-0.6894,-0.6894,-0.0530,0.0530,0.6894,0.0*
%
%ADD100ROTATEDRECTD100*%

%ADD101R,1.2000X1.4000*%
G04:AMPARAMS|DCode=102|XSize=0.25mm|YSize=0.95mm|CornerRadius=0mm|HoleSize=0mm|Usage=FLASHONLY|Rotation=225.000|XOffset=0mm|YOffset=0mm|HoleType=Round|Shape=Round|*
%AMOVALD102*
21,1,0.7000,0.2500,0.0000,0.0000,315.0*
1,1,0.2500,-0.2475,0.2475*
1,1,0.2500,0.2475,-0.2475*
%
%ADD102OVALD102*%

G04:AMPARAMS|DCode=103|XSize=0.25mm|YSize=0.95mm|CornerRadius=0mm|HoleSize=0mm|Usage=FLASHONLY|Rotation=315.000|XOffset=0mm|YOffset=0mm|HoleType=Round|Shape=Round|*
%AMOVALD103*
21,1,0.7000,0.2500,0.0000,0.0000,45.0*
1,1,0.2500,-0.2475,-0.2475*
1,1,0.2500,0.2475,0.2475*
%
%ADD103OVALD103*%

%ADD104P,6.6468X4X360.0*%
%ADD105C,1.0000*%
G36*
X909377Y897140D02*
X915450Y895513D01*
X921258Y893107D01*
X926703Y889964D01*
X931691Y886136D01*
X936136Y881691D01*
X939964Y876703D01*
X943107Y871258D01*
X945513Y865450D01*
X947140Y859377D01*
X947961Y853143D01*
Y850000D01*
Y50000D01*
Y46856D01*
X947140Y40623D01*
X945513Y34550D01*
X943107Y28742D01*
X939964Y23297D01*
X936136Y18309D01*
X931691Y13864D01*
X926703Y10036D01*
X921258Y6893D01*
X915450Y4487D01*
X909377Y2860D01*
X903143Y2039D01*
X46856D01*
X40623Y2860D01*
X34550Y4487D01*
X28742Y6893D01*
X23297Y10036D01*
X18309Y13864D01*
X13864Y18309D01*
X10036Y23297D01*
X6893Y28742D01*
X4487Y34550D01*
X2860Y40623D01*
X2039Y46856D01*
Y50000D01*
Y850000D01*
Y853143D01*
X2860Y859377D01*
X4487Y865450D01*
X6893Y871258D01*
X10036Y876703D01*
X13864Y881691D01*
X18309Y886136D01*
X23297Y889964D01*
X28742Y893107D01*
X34550Y895513D01*
X40623Y897140D01*
X46856Y897961D01*
X903143D01*
X909377Y897140D01*
D02*
G37*
%LPC*%
G36*
X431062Y809766D02*
X429757D01*
Y796507D01*
X443016D01*
Y797812D01*
X442078Y801313D01*
X440266Y804453D01*
X437702Y807016D01*
X434563Y808828D01*
X431062Y809766D01*
D02*
G37*
G36*
X428741D02*
X427438D01*
X423937Y808828D01*
X420798Y807016D01*
X418234Y804453D01*
X416422Y801313D01*
X415484Y797812D01*
Y796507D01*
X428741D01*
Y809766D01*
D02*
G37*
G36*
X522562D02*
X521258D01*
Y796507D01*
X534516D01*
Y797812D01*
X533578Y801313D01*
X531766Y804453D01*
X529202Y807016D01*
X526063Y808828D01*
X522562Y809766D01*
D02*
G37*
G36*
X520242D02*
X518938D01*
X515437Y808828D01*
X512298Y807016D01*
X509734Y804453D01*
X507922Y801313D01*
X506984Y797812D01*
Y796507D01*
X520242D01*
Y809766D01*
D02*
G37*
G36*
X534516Y795491D02*
X521258D01*
Y782234D01*
X522562D01*
X526063Y783172D01*
X529202Y784984D01*
X531766Y787548D01*
X533578Y790686D01*
X534516Y794188D01*
Y795491D01*
D02*
G37*
G36*
X520242D02*
X506984D01*
Y794188D01*
X507922Y790686D01*
X509734Y787548D01*
X512298Y784984D01*
X515437Y783172D01*
X518938Y782234D01*
X520242D01*
Y795491D01*
D02*
G37*
G36*
X443016Y795491D02*
X429757D01*
Y782234D01*
X431062D01*
X434563Y783172D01*
X437702Y784984D01*
X440266Y787548D01*
X442078Y790686D01*
X443016Y794188D01*
Y795491D01*
D02*
G37*
G36*
X428741D02*
X415484D01*
Y794188D01*
X416422Y790686D01*
X418234Y787548D01*
X420798Y784984D01*
X423937Y783172D01*
X427438Y782234D01*
X428741D01*
Y795491D01*
D02*
G37*
G36*
X50996Y790766D02*
X49004D01*
X47080Y790250D01*
X45354Y789254D01*
X43946Y787846D01*
X42950Y786120D01*
X42434Y784196D01*
Y782204D01*
X42950Y780280D01*
X43946Y778554D01*
X45354Y777146D01*
X47080Y776150D01*
X49004Y775634D01*
X50996D01*
X52920Y776150D01*
X54646Y777146D01*
X56054Y778554D01*
X57050Y780280D01*
X57566Y782204D01*
Y784196D01*
X57050Y786120D01*
X56054Y787846D01*
X54646Y789254D01*
X52920Y790250D01*
X50996Y790766D01*
D02*
G37*
G36*
X495987Y778400D02*
X494013D01*
X492105Y777889D01*
X490395Y776901D01*
X488998Y775505D01*
X488011Y773795D01*
X487500Y771887D01*
Y769913D01*
X488011Y768005D01*
X488998Y766295D01*
X490395Y764899D01*
X492105Y763911D01*
X494013Y763400D01*
X495987D01*
X497222Y763731D01*
X571809Y689143D01*
X570500Y687834D01*
X579834Y678500D01*
X581143Y679809D01*
X587537Y673416D01*
X587641Y673346D01*
X590370Y670021D01*
X592456Y666118D01*
X593741Y661883D01*
X594163Y657602D01*
X594138Y657479D01*
Y522000D01*
X594161Y521883D01*
X593747Y517674D01*
X592485Y513515D01*
X590436Y509682D01*
X588320Y507103D01*
X587654Y506346D01*
Y506346D01*
X586949Y505641D01*
X568338Y487030D01*
X566924Y488445D01*
X559744Y481265D01*
X556203Y477724D01*
X554267Y479660D01*
X553519Y480160D01*
X552638Y480335D01*
X551548D01*
Y481425D01*
X551373Y482306D01*
X550874Y483054D01*
X548937Y484990D01*
X552890Y488943D01*
X552548Y489285D01*
X558974Y495711D01*
X557231Y497453D01*
X564201Y504422D01*
X567277Y501345D01*
X575078Y509146D01*
X566217Y518007D01*
X558416Y510206D01*
X561493Y507129D01*
X554524Y500160D01*
X552782Y501903D01*
X546356Y495477D01*
X546014Y495819D01*
X538834Y488640D01*
X543955Y483518D01*
X544082Y483330D01*
X546616Y480795D01*
X538492Y472671D01*
X538255Y472513D01*
X534065Y468323D01*
X520955D01*
X520074Y468147D01*
X519326Y467648D01*
X517415Y465737D01*
X516437Y466196D01*
X515868Y467571D01*
X514743Y468696D01*
X513385Y469258D01*
X512933Y470244D01*
X515068Y472379D01*
X515436Y472929D01*
X516157Y473228D01*
X517282Y474353D01*
X517891Y475823D01*
Y477414D01*
X517282Y478885D01*
X516157Y480010D01*
X514687Y480619D01*
X513095D01*
X511625Y480010D01*
X511339Y479724D01*
X510323Y480144D01*
Y490285D01*
X519308Y499271D01*
X519308Y499271D01*
X523724Y503687D01*
X526259Y501153D01*
X526447Y501027D01*
X531569Y495905D01*
X538748Y503085D01*
X538406Y503427D01*
X544832Y509853D01*
X543089Y511595D01*
X550058Y518564D01*
X553135Y515487D01*
X560936Y523288D01*
X552075Y532149D01*
X544274Y524348D01*
X547351Y521272D01*
X540382Y514303D01*
X538640Y516045D01*
X532214Y509619D01*
X531872Y509961D01*
X527919Y506008D01*
X525983Y507945D01*
X525235Y508444D01*
X524353Y508619D01*
X523264D01*
Y509709D01*
X523089Y510591D01*
X522589Y511338D01*
X520653Y513274D01*
X524194Y516815D01*
X531374Y523995D01*
X529959Y525409D01*
X530597Y526047D01*
X531330Y526728D01*
X531331Y526728D01*
X531984Y527473D01*
X535031Y530948D01*
X538150Y535616D01*
X540632Y540650D01*
X542437Y545965D01*
X543532Y551470D01*
X543899Y557071D01*
X543862Y557083D01*
Y601479D01*
X543894D01*
X543546Y605905D01*
X542509Y610222D01*
X540810Y614324D01*
X538490Y618110D01*
X535607Y621486D01*
X535584Y621463D01*
X513191Y643857D01*
X514480Y645147D01*
X505147Y654480D01*
X504426Y653759D01*
X503411Y653809D01*
X501630Y655979D01*
X499544Y659882D01*
X498259Y664117D01*
X497934Y667418D01*
X498886Y668113D01*
X499500Y667859D01*
X500500D01*
X501660Y668340D01*
X502340Y668340D01*
X503500Y667859D01*
X504491D01*
Y671825D01*
X505507D01*
Y667859D01*
X506500D01*
X507660Y668340D01*
X508340Y668340D01*
X509500Y667859D01*
X510500D01*
X511660Y668340D01*
X511950Y669040D01*
X513050D01*
X513340Y668340D01*
X514500Y667859D01*
X515500D01*
X516660Y668340D01*
X517141Y669500D01*
Y674150D01*
X516660Y675310D01*
X516323Y675450D01*
Y676550D01*
X516660Y676690D01*
X517141Y677850D01*
Y682500D01*
X516660Y683660D01*
X515500Y684141D01*
X514500D01*
X513340Y683660D01*
X513050Y682961D01*
X511950D01*
X511660Y683660D01*
X510500Y684141D01*
X509500D01*
X508340Y683660D01*
X507660Y683660D01*
X506500Y684141D01*
X505508D01*
Y680175D01*
X504492D01*
Y684141D01*
X503500D01*
X502340Y683660D01*
X501660Y683660D01*
X500500Y684141D01*
X499500D01*
X498878Y683883D01*
X497862Y684510D01*
Y723902D01*
X497895Y723911D01*
X499605Y724899D01*
X501002Y726295D01*
X501989Y728005D01*
X502500Y729913D01*
Y731887D01*
X501989Y733795D01*
X501002Y735505D01*
X499605Y736901D01*
X497895Y737889D01*
X495987Y738400D01*
X494013D01*
X492105Y737889D01*
X490395Y736901D01*
X488998Y735505D01*
X488011Y733795D01*
X487500Y731887D01*
Y729913D01*
X488011Y728005D01*
X488998Y726295D01*
X490395Y724899D01*
X492105Y723911D01*
X492138Y723902D01*
Y668521D01*
X492106D01*
X492454Y664095D01*
X493491Y659778D01*
X495190Y655676D01*
X497509Y651890D01*
X499834Y649168D01*
X498500Y647834D01*
X507834Y638500D01*
X509143Y639809D01*
X531537Y617416D01*
X531641Y617346D01*
X534370Y614021D01*
X536456Y610118D01*
X537741Y605883D01*
X538163Y601602D01*
X538138Y601479D01*
Y557089D01*
X538138Y557077D01*
X538138Y557071D01*
X538102Y556070D01*
X537723Y551253D01*
X536360Y545578D01*
X534127Y540186D01*
X531077Y535210D01*
X527387Y530889D01*
X527257Y530802D01*
X525912Y529457D01*
X524497Y530871D01*
X517729Y524104D01*
X510550Y516924D01*
X515671Y511803D01*
X515797Y511614D01*
X518332Y509080D01*
X513031Y503779D01*
X513031Y503779D01*
X503371Y494119D01*
X502872Y493372D01*
X502696Y492490D01*
Y479302D01*
X493302Y469908D01*
X493058Y469943D01*
X492501Y470053D01*
X492407Y470035D01*
X492336Y470045D01*
X491847Y470959D01*
X496153Y475265D01*
X496568Y475886D01*
X496713Y476619D01*
Y490942D01*
X496568Y491674D01*
X496153Y492295D01*
X495118Y493330D01*
X495263Y493681D01*
Y495273D01*
X494655Y496743D01*
X493529Y497868D01*
X492059Y498477D01*
X490468D01*
X488998Y497868D01*
X487872Y496743D01*
X487263Y495273D01*
Y493681D01*
X487872Y492211D01*
X488998Y491086D01*
X490468Y490477D01*
X492059D01*
X492884Y489769D01*
Y477412D01*
X489100Y473627D01*
X488639Y473634D01*
X487740Y474321D01*
X487564Y475205D01*
X487508Y475289D01*
X489499Y477281D01*
X489914Y477902D01*
X490060Y478634D01*
Y486617D01*
X489914Y487350D01*
X489499Y487971D01*
X476642Y500827D01*
Y505438D01*
X478572D01*
X478757Y505474D01*
X485035D01*
X485665Y505474D01*
X486681Y505474D01*
X490135D01*
Y509853D01*
Y514231D01*
X486681D01*
X486051Y514231D01*
X485035Y514231D01*
X476642D01*
Y527643D01*
X476976Y527977D01*
X477391Y528598D01*
X477537Y529330D01*
Y533263D01*
X482992D01*
Y541279D01*
Y549295D01*
X476484D01*
X476292Y550232D01*
Y552364D01*
X479192Y555263D01*
X490516D01*
Y571295D01*
X476484D01*
Y557971D01*
X474532Y556019D01*
X473516Y556440D01*
Y562771D01*
X467007D01*
Y555263D01*
X472340D01*
X472548Y555034D01*
X472848Y554247D01*
X472609Y553890D01*
X472463Y553157D01*
Y549295D01*
X459484D01*
Y533263D01*
X470968D01*
Y531258D01*
X470634Y530924D01*
X470219Y530303D01*
X470074Y529571D01*
Y514231D01*
X461681D01*
X461051Y514231D01*
X460035Y514231D01*
X456580D01*
Y509853D01*
Y505474D01*
X460035D01*
X460665Y505474D01*
X461681Y505474D01*
X467959D01*
X468144Y505438D01*
X470074D01*
Y498899D01*
X470219Y498167D01*
X470634Y497546D01*
X483491Y484689D01*
Y480684D01*
X483238Y480438D01*
X482705Y480005D01*
X481894Y480167D01*
X481010Y479991D01*
X480261Y479490D01*
X475671Y474900D01*
X475000Y474654D01*
X474329Y474900D01*
X469739Y479490D01*
X468990Y479991D01*
X468850Y480019D01*
X467863Y481006D01*
Y485951D01*
X467913Y486204D01*
X467913Y486204D01*
Y490111D01*
X468124Y490198D01*
X469249Y491324D01*
X469858Y492794D01*
Y494385D01*
X469249Y495855D01*
X468124Y496980D01*
X466654Y497589D01*
X465062D01*
X463592Y496980D01*
X462467Y495855D01*
X461858Y494385D01*
Y493578D01*
X461681Y492765D01*
X460919Y492640D01*
X460062D01*
X458592Y492031D01*
X457467Y490905D01*
X456858Y489435D01*
Y488629D01*
X456726Y487822D01*
X455919Y487690D01*
X455112D01*
X453642Y487081D01*
X452517Y485956D01*
X451908Y484486D01*
Y483679D01*
X451731Y482865D01*
X450970Y482740D01*
X450112D01*
X448642Y482131D01*
X447517Y481006D01*
X446908Y479536D01*
Y477944D01*
X447517Y476474D01*
X448642Y475349D01*
X449427Y475024D01*
Y473267D01*
X449427Y473266D01*
X449583Y472480D01*
X450029Y471813D01*
X454188Y467653D01*
X453806Y466690D01*
X452958Y466577D01*
X443573Y475962D01*
Y489250D01*
X443397Y490132D01*
X442898Y490880D01*
X431117Y502661D01*
X430814Y502863D01*
X428133Y505544D01*
X430667Y508078D01*
X430793Y508267D01*
X435914Y513388D01*
X428735Y520568D01*
X421967Y527336D01*
X420552Y525921D01*
X418463Y528011D01*
X418358Y528081D01*
X415630Y531406D01*
X413544Y535308D01*
X412259Y539543D01*
X411837Y543824D01*
X411862Y543947D01*
Y601479D01*
X411837Y601602D01*
X412259Y605883D01*
X413544Y610118D01*
X415630Y614021D01*
X418358Y617346D01*
X418463Y617416D01*
X440857Y639809D01*
X442166Y638500D01*
X451500Y647834D01*
X450166Y649168D01*
X452491Y651890D01*
X454810Y655676D01*
X456509Y659778D01*
X457546Y664095D01*
X457894Y668521D01*
X457862D01*
Y723902D01*
X457895Y723911D01*
X459605Y724899D01*
X461002Y726295D01*
X461989Y728005D01*
X462500Y729913D01*
Y731887D01*
X461989Y733795D01*
X461002Y735505D01*
X459605Y736901D01*
X457895Y737889D01*
X455987Y738400D01*
X454013D01*
X452105Y737889D01*
X450395Y736901D01*
X448998Y735505D01*
X448011Y733795D01*
X447500Y731887D01*
Y729913D01*
X448011Y728005D01*
X448998Y726295D01*
X450395Y724899D01*
X452105Y723911D01*
X452138Y723902D01*
Y684510D01*
X451122Y683883D01*
X450500Y684141D01*
X449500D01*
X448340Y683660D01*
X447660Y683660D01*
X446500Y684141D01*
X445508D01*
Y680176D01*
X444492D01*
Y684141D01*
X443500D01*
X442340Y683660D01*
X441660Y683660D01*
X440500Y684141D01*
X439500D01*
X438340Y683660D01*
X438050Y682961D01*
X436950D01*
X436660Y683660D01*
X435500Y684141D01*
X434500D01*
X433340Y683660D01*
X432859Y682500D01*
Y677850D01*
X433340Y676690D01*
X433677Y676550D01*
Y675450D01*
X433340Y675310D01*
X432859Y674150D01*
Y669500D01*
X433340Y668340D01*
X434500Y667859D01*
X435500D01*
X436660Y668340D01*
X436950Y669040D01*
X438050D01*
X438340Y668340D01*
X439500Y667859D01*
X440500D01*
X441660Y668340D01*
X442340Y668340D01*
X443500Y667859D01*
X444491D01*
Y671825D01*
X445507D01*
Y667859D01*
X446500D01*
X447660Y668340D01*
X448340Y668340D01*
X449500Y667859D01*
X450500D01*
X451114Y668113D01*
X452066Y667418D01*
X451741Y664117D01*
X450456Y659882D01*
X448370Y655979D01*
X446589Y653809D01*
X445574Y653759D01*
X444853Y654481D01*
X435520Y645147D01*
X436809Y643857D01*
X414416Y621463D01*
X414393Y621486D01*
X411510Y618110D01*
X409190Y614324D01*
X407491Y610222D01*
X406454Y605905D01*
X406106Y601479D01*
X406138D01*
Y543947D01*
X406106D01*
X406454Y539521D01*
X407491Y535204D01*
X409190Y531102D01*
X411510Y527317D01*
X414393Y523940D01*
X414416Y523963D01*
X416505Y521874D01*
X415091Y520459D01*
X421858Y513691D01*
X425811Y509739D01*
X423875Y507802D01*
X423376Y507055D01*
X423200Y506173D01*
Y505084D01*
X422111D01*
X421229Y504909D01*
X420482Y504409D01*
X418546Y502473D01*
X414593Y506426D01*
X414250Y506083D01*
X407825Y512509D01*
X406083Y510767D01*
X398937Y517913D01*
X402014Y520990D01*
X394213Y528791D01*
X385352Y519929D01*
X393152Y512128D01*
X396229Y515205D01*
X403375Y508060D01*
X401633Y506317D01*
X408059Y499892D01*
X407716Y499549D01*
X414896Y492370D01*
X420017Y497491D01*
X420206Y497617D01*
X422740Y500151D01*
X426508Y496384D01*
X426810Y496181D01*
X435946Y487046D01*
Y473757D01*
X436122Y472876D01*
X436621Y472128D01*
X438506Y470244D01*
X438047Y469266D01*
X436672Y468696D01*
X435546Y467571D01*
X434976Y466193D01*
X433999Y465733D01*
X433038Y466694D01*
Y466808D01*
X432429Y468278D01*
X431304Y469403D01*
X429834Y470012D01*
X428242D01*
X426772Y469403D01*
X425647Y468278D01*
X425038Y466808D01*
Y465216D01*
X425162Y464918D01*
X424597Y464073D01*
X412935D01*
X403568Y473440D01*
X403366Y473742D01*
X399849Y477260D01*
X402383Y479794D01*
X402509Y479983D01*
X407630Y485104D01*
X400451Y492284D01*
X400108Y491941D01*
X393683Y498367D01*
X391940Y496625D01*
X384795Y503771D01*
X387872Y506848D01*
X380071Y514648D01*
X371209Y505787D01*
X379010Y497986D01*
X382087Y501063D01*
X389233Y493917D01*
X387491Y492175D01*
X393916Y485750D01*
X393574Y485407D01*
X397527Y481454D01*
X395591Y479518D01*
X395091Y478771D01*
X394916Y477889D01*
Y476800D01*
X393827D01*
X392945Y476624D01*
X392198Y476125D01*
X390261Y474189D01*
X386309Y478142D01*
X379541Y484909D01*
X378126Y483495D01*
X357463Y504158D01*
X357359Y504228D01*
X354630Y507553D01*
X352544Y511456D01*
X351259Y515690D01*
X350837Y519971D01*
X350862Y520095D01*
Y652479D01*
X350837Y652602D01*
X351259Y656883D01*
X352544Y661118D01*
X354630Y665021D01*
X357359Y668346D01*
X357463Y668416D01*
X368857Y679809D01*
X370166Y678500D01*
X379500Y687834D01*
X378191Y689143D01*
X452778Y763731D01*
X454013Y763400D01*
X455987D01*
X457895Y763911D01*
X459605Y764899D01*
X461002Y766295D01*
X461989Y768005D01*
X462500Y769913D01*
Y771887D01*
X461989Y773795D01*
X461002Y775505D01*
X459605Y776901D01*
X457895Y777889D01*
X455987Y778400D01*
X454013D01*
X452105Y777889D01*
X450395Y776901D01*
X448998Y775505D01*
X448011Y773795D01*
X447500Y771887D01*
Y769913D01*
X448011Y768005D01*
X448358Y767405D01*
X393060Y712107D01*
X391862Y712346D01*
X391646Y712867D01*
X390938Y713575D01*
X390137Y713906D01*
X389298Y714536D01*
X388817Y715696D01*
X388116Y716397D01*
X385312Y713593D01*
X384594Y714311D01*
X387398Y717115D01*
X386696Y717817D01*
X385536Y718298D01*
X384907Y719137D01*
X384575Y719939D01*
X383867Y720646D01*
X382707Y721126D01*
X382007Y720836D01*
X381230Y721614D01*
X381520Y722314D01*
X381039Y723474D01*
X380332Y724181D01*
X379172Y724662D01*
X378011Y724181D01*
X374723Y720893D01*
X374243Y719733D01*
X374382Y719395D01*
X373605Y718618D01*
X373267Y718757D01*
X372107Y718277D01*
X368819Y714989D01*
X368338Y713828D01*
X368819Y712668D01*
X369526Y711961D01*
X370686Y711480D01*
X371386Y711770D01*
X372164Y710993D01*
X371874Y710293D01*
X372354Y709133D01*
X373061Y708426D01*
X373863Y708093D01*
X374702Y707464D01*
X375183Y706304D01*
X375884Y705603D01*
X378688Y708407D01*
X379407Y707688D01*
X376603Y704884D01*
X377304Y704183D01*
X378464Y703702D01*
X379094Y702863D01*
X379426Y702061D01*
X380133Y701354D01*
X380654Y701138D01*
X380892Y699940D01*
X374143Y693191D01*
X372853Y694480D01*
X363520Y685147D01*
X364809Y683857D01*
X353416Y672463D01*
X353393Y672486D01*
X350509Y669110D01*
X348190Y665324D01*
X346491Y661222D01*
X345454Y656905D01*
X345106Y652479D01*
X345138D01*
Y520095D01*
X345106D01*
X345454Y515668D01*
X346491Y511351D01*
X348190Y507249D01*
X350509Y503464D01*
X353393Y500088D01*
X353416Y500110D01*
X374079Y479448D01*
X372664Y478033D01*
X379432Y471265D01*
X386612Y464086D01*
X391733Y469207D01*
X391922Y469333D01*
X394456Y471867D01*
X396887Y469436D01*
X397089Y469133D01*
X409101Y457121D01*
X409849Y456622D01*
X410731Y456446D01*
X424019D01*
X433423Y447042D01*
X433310Y446193D01*
X432347Y445812D01*
X426954Y451205D01*
X426287Y451650D01*
X425500Y451807D01*
X425500Y451807D01*
X423581D01*
X423391Y452266D01*
X422266Y453391D01*
X420796Y454000D01*
X419204D01*
X417734Y453391D01*
X416609Y452266D01*
X416000Y450796D01*
Y449939D01*
X415832Y449168D01*
X415061Y449000D01*
X414204D01*
X412734Y448391D01*
X411609Y447266D01*
X411000Y445796D01*
Y444939D01*
X410832Y444168D01*
X410061Y444000D01*
X409204D01*
X407734Y443391D01*
X406609Y442266D01*
X406000Y440796D01*
Y439939D01*
X405832Y439168D01*
X405061Y439000D01*
X404204D01*
X402734Y438391D01*
X401609Y437266D01*
X401000Y435796D01*
Y434204D01*
X401609Y432734D01*
X402734Y431609D01*
X404204Y431000D01*
X405796D01*
X407266Y431609D01*
X408391Y432734D01*
X408478Y432944D01*
X418187D01*
X419981Y431150D01*
X420009Y431010D01*
X420510Y430261D01*
X425100Y425671D01*
X425181Y425450D01*
Y424550D01*
X425100Y424329D01*
X423057Y422287D01*
X422971Y422229D01*
X421002Y420260D01*
X412326D01*
X408289Y424296D01*
Y425796D01*
X407680Y427266D01*
X406555Y428391D01*
X405085Y429000D01*
X403494D01*
X402024Y428391D01*
X400898Y427266D01*
X400289Y425796D01*
Y424204D01*
X400898Y422734D01*
X402024Y421609D01*
X403494Y421000D01*
X404993D01*
X409667Y416326D01*
X409655Y416133D01*
X409336Y415310D01*
X399097D01*
Y416603D01*
X398488Y418073D01*
X397363Y419199D01*
X395893Y419808D01*
X394301D01*
X392831Y419199D01*
X391706Y418073D01*
X391097Y416603D01*
Y415012D01*
X391706Y413542D01*
X392831Y412417D01*
X394301Y411808D01*
X395801D01*
X396277Y411331D01*
X397033Y410826D01*
X397925Y410648D01*
X424088D01*
X424980Y410826D01*
X426057Y410371D01*
X426153Y410008D01*
X426108Y409785D01*
X420377Y404054D01*
X314730D01*
X313849Y403878D01*
X313102Y403379D01*
X305649Y395926D01*
X303382Y398193D01*
X303193Y398319D01*
X298072Y403441D01*
X291304Y396673D01*
X284124Y389493D01*
X291001Y382617D01*
X291119Y382735D01*
X291910Y381945D01*
X271597Y361632D01*
X117665D01*
X116743Y361448D01*
X115962Y360926D01*
X67297Y312262D01*
X66775Y311480D01*
X66592Y310559D01*
Y280441D01*
X66775Y279520D01*
X67297Y278738D01*
X91462Y254574D01*
X92243Y254052D01*
X93165Y253868D01*
X119816D01*
X120737Y254052D01*
X121519Y254574D01*
X125644Y258699D01*
X125989Y258354D01*
X127459Y257745D01*
X129051D01*
X130521Y258354D01*
X131646Y259479D01*
X132255Y260949D01*
Y262541D01*
X131646Y264011D01*
X130521Y265136D01*
X129051Y265745D01*
X127916D01*
X127308Y266048D01*
X127005Y266656D01*
Y267791D01*
X126396Y269261D01*
X125271Y270386D01*
X123801Y270995D01*
X122209D01*
X120739Y270386D01*
X119614Y269261D01*
X119005Y267791D01*
Y266199D01*
X119614Y264729D01*
X119959Y264384D01*
X117483Y261908D01*
X115658D01*
Y264388D01*
X115475Y265310D01*
X114953Y266091D01*
X114172Y266613D01*
X113250Y266796D01*
X108987D01*
X108065Y266613D01*
X107284Y266091D01*
X106762Y265310D01*
X106579Y264388D01*
Y261908D01*
X95498D01*
X74632Y282774D01*
Y308226D01*
X119997Y353592D01*
X273929D01*
X274851Y353775D01*
X275632Y354297D01*
X297595Y376260D01*
X298385Y375470D01*
X298266Y375351D01*
X305143Y368475D01*
X311911Y375242D01*
X319090Y382422D01*
X313969Y387543D01*
X313843Y387732D01*
X311041Y390533D01*
X316935Y396427D01*
X422581D01*
X423463Y396603D01*
X424211Y397102D01*
X431961Y404852D01*
X432598Y404726D01*
X432966Y404500D01*
X433287Y404179D01*
X433512Y403811D01*
X433639Y403174D01*
X416769Y386304D01*
X354231D01*
X354231Y386304D01*
X353349Y386128D01*
X352602Y385629D01*
X340590Y373617D01*
X340147Y373322D01*
X334200Y367375D01*
X331666Y369909D01*
X331477Y370035D01*
X326356Y375156D01*
X319177Y367977D01*
X312409Y361209D01*
X319285Y354332D01*
X319405Y354453D01*
X320342Y353516D01*
X292955Y326129D01*
X193638D01*
Y326144D01*
X191863Y325910D01*
X190210Y325225D01*
X188790Y324136D01*
X188361Y323576D01*
X187345Y323921D01*
Y326765D01*
X187404D01*
X186994Y328824D01*
X185828Y330570D01*
X184081Y331737D01*
X182022Y332146D01*
Y332087D01*
X177963D01*
Y332146D01*
X175903Y331737D01*
X174157Y330570D01*
X173771Y329991D01*
X172652Y330145D01*
X171672Y331612D01*
X169926Y332779D01*
X167866Y333188D01*
Y333129D01*
X163807D01*
Y333188D01*
X161747Y332779D01*
X160002Y331612D01*
X158835Y329866D01*
X158425Y327807D01*
X158484D01*
Y326129D01*
X107556D01*
X106674Y325954D01*
X105927Y325454D01*
X84352Y303880D01*
X83853Y303132D01*
X83677Y302250D01*
Y287750D01*
X83853Y286868D01*
X84352Y286120D01*
X91654Y278818D01*
X92401Y278319D01*
X93283Y278144D01*
X101342D01*
X102224Y278319D01*
X102971Y278818D01*
X104248Y280095D01*
X104739Y279604D01*
X106209Y278995D01*
X107801D01*
X109271Y279604D01*
X110396Y280729D01*
X111005Y282199D01*
Y283791D01*
X110396Y285261D01*
X109271Y286386D01*
X107801Y286995D01*
X106666D01*
X106058Y287298D01*
X105755Y287906D01*
Y289041D01*
X105146Y290511D01*
X104021Y291636D01*
X102551Y292245D01*
X100959D01*
X99489Y291636D01*
X98364Y290511D01*
X97755Y289041D01*
Y287449D01*
X98030Y286786D01*
X97351Y285770D01*
X95488D01*
X91304Y289954D01*
Y299650D01*
X91828Y300014D01*
X92237Y300154D01*
X93444Y298947D01*
X94191Y298448D01*
X95073Y298272D01*
X95954Y298448D01*
X96702Y298947D01*
X99572Y301817D01*
X100071Y302565D01*
X100247Y303446D01*
X100071Y304328D01*
X99572Y305075D01*
X97953Y306695D01*
X103629Y312371D01*
X109761Y318503D01*
X159269D01*
Y318488D01*
X161044Y318722D01*
X162697Y319407D01*
X164117Y320496D01*
X164546Y321056D01*
X165562Y320711D01*
Y316825D01*
X165503D01*
X165913Y314766D01*
X167080Y313020D01*
X168825Y311853D01*
X170885Y311444D01*
Y311503D01*
X174944D01*
Y311444D01*
X177004Y311853D01*
X178750Y313020D01*
X179916Y314766D01*
X180048Y315430D01*
X181127Y315644D01*
X181235Y315482D01*
X182981Y314315D01*
X185041Y313905D01*
Y313965D01*
X189100D01*
Y313905D01*
X191159Y314315D01*
X192906Y315482D01*
X194072Y317228D01*
X194326Y318503D01*
X295159D01*
X296041Y318678D01*
X296789Y319177D01*
X325734Y348123D01*
X326671Y347187D01*
X326551Y347067D01*
X333427Y340190D01*
X340195Y346958D01*
X347375Y354138D01*
X342253Y359259D01*
X342127Y359448D01*
X339593Y361982D01*
X344360Y366749D01*
X344803Y367045D01*
X356435Y378677D01*
X418974D01*
X419855Y378853D01*
X420603Y379352D01*
X439032Y397781D01*
X439669Y397655D01*
X440037Y397429D01*
X440357Y397108D01*
X440583Y396740D01*
X440710Y396103D01*
X413295Y368688D01*
X393036D01*
X392155Y368513D01*
X391407Y368013D01*
X382511Y359117D01*
X381648Y358748D01*
X379902Y359915D01*
X377843Y360324D01*
X375783Y359915D01*
X374833Y359280D01*
X374037Y358748D01*
X374037Y358748D01*
X373378Y358005D01*
X371209Y355836D01*
X371209Y355836D01*
X371167Y355878D01*
X370000Y354132D01*
X369591Y352072D01*
X370000Y350013D01*
X371167Y348267D01*
X370798Y347404D01*
X362636Y339242D01*
X360102Y341776D01*
X359913Y341902D01*
X354792Y347024D01*
X347612Y339844D01*
X340844Y333076D01*
X347721Y326200D01*
X347840Y326319D01*
X348630Y325528D01*
X290664Y267562D01*
X243404D01*
X242482Y267379D01*
X241701Y266856D01*
X238422Y263578D01*
X238422Y263578D01*
X220489Y245644D01*
X219729Y245025D01*
X217882Y246259D01*
X215703Y246693D01*
X213524Y246259D01*
X212492Y245570D01*
X211676Y245025D01*
X211002Y244261D01*
X208696Y241955D01*
X208682Y241954D01*
X208647Y241988D01*
X207427Y240162D01*
X206993Y237983D01*
X207150Y237194D01*
X206232Y236601D01*
X204217Y237002D01*
X202037Y236569D01*
X201006Y235880D01*
X200190Y235334D01*
X199516Y234571D01*
X197209Y232264D01*
X197195Y232263D01*
X197160Y232298D01*
X195941Y230472D01*
X195507Y228293D01*
X195941Y226113D01*
X197175Y224266D01*
X197175Y224266D01*
X197264Y224266D01*
X198187Y223343D01*
X196922Y222078D01*
X196922Y222078D01*
X179753Y204908D01*
X154497D01*
X145419Y213987D01*
Y225717D01*
X147898D01*
X148820Y225901D01*
X149601Y226423D01*
X150123Y227204D01*
X150307Y228125D01*
Y232389D01*
X150123Y233311D01*
X149601Y234092D01*
X148820Y234614D01*
X147898Y234797D01*
X145419D01*
Y236047D01*
X146857Y237486D01*
X147202Y237141D01*
X148673Y236532D01*
X150264D01*
X151734Y237141D01*
X152859Y238266D01*
X153468Y239736D01*
Y241327D01*
X152859Y242798D01*
X151734Y243923D01*
X150264Y244532D01*
X149130D01*
X148521Y244835D01*
X148218Y245443D01*
Y246577D01*
X147609Y248048D01*
X146484Y249173D01*
X145014Y249782D01*
X143423D01*
X141952Y249173D01*
X140827Y248048D01*
X140218Y246577D01*
Y244986D01*
X140827Y243516D01*
X141172Y243171D01*
X138084Y240082D01*
X137562Y239301D01*
X137379Y238380D01*
Y211654D01*
X137562Y210733D01*
X138084Y209952D01*
X141768Y206268D01*
X141768Y206268D01*
X150462Y197574D01*
X151243Y197052D01*
X152165Y196868D01*
X182085D01*
X183007Y197052D01*
X183788Y197574D01*
X202607Y216393D01*
X202607Y216393D01*
X203638Y217424D01*
X204368Y218130D01*
X204368Y218130D01*
X205540Y219657D01*
X206276Y221435D01*
X206527Y223343D01*
X206404Y224277D01*
X207367Y224752D01*
X210134Y221985D01*
X210089Y221940D01*
X211937Y220705D01*
X214116Y220272D01*
X216295Y220705D01*
X218121Y221925D01*
X218086Y221960D01*
X218088Y221974D01*
X220395Y224281D01*
X221158Y224955D01*
X221158Y224955D01*
X221703Y225771D01*
X222392Y226802D01*
X222826Y228981D01*
X222392Y231161D01*
X221158Y233008D01*
X221158Y233008D01*
X220395Y233682D01*
X218346Y235731D01*
X218820Y236693D01*
X219755Y236570D01*
X221663Y236821D01*
X223441Y237558D01*
X224967Y238729D01*
X224956Y238741D01*
X244107Y257893D01*
X245736Y259522D01*
X292996D01*
X293918Y259705D01*
X294699Y260227D01*
X354315Y319843D01*
X355105Y319053D01*
X354986Y318934D01*
X361863Y312057D01*
X369043Y319237D01*
X375810Y326005D01*
X370689Y331126D01*
X370563Y331315D01*
X368029Y333849D01*
X377393Y343214D01*
X377413Y343214D01*
X378503Y344633D01*
X379188Y346287D01*
X379422Y348062D01*
X379188Y349836D01*
X379066Y350130D01*
X379785Y350849D01*
X380079Y350727D01*
X381853Y350493D01*
X383628Y350727D01*
X385281Y351412D01*
X386701Y352501D01*
X386691Y352511D01*
X395241Y361062D01*
X415500D01*
X416382Y361237D01*
X417129Y361736D01*
X446103Y390710D01*
X446740Y390583D01*
X447108Y390357D01*
X447429Y390037D01*
X447654Y389669D01*
X447781Y389032D01*
X433117Y374368D01*
X433117Y374367D01*
X418371Y359622D01*
X417872Y358874D01*
X417696Y357993D01*
Y337734D01*
X411493Y331531D01*
X410630Y331161D01*
X408884Y332328D01*
X406825Y332738D01*
X404765Y332328D01*
X403815Y331693D01*
X403019Y331161D01*
X403019Y331161D01*
X402360Y330418D01*
X400191Y328249D01*
X400191Y328249D01*
X400149Y328291D01*
X398982Y326545D01*
X398573Y324486D01*
X398982Y322426D01*
X400149Y320680D01*
X399780Y319817D01*
X390920Y310958D01*
X388386Y313492D01*
X388197Y313618D01*
X383076Y318739D01*
X375896Y311560D01*
X369129Y304792D01*
X374170Y299750D01*
X374302Y299553D01*
X376763Y297092D01*
X300074Y220403D01*
X299552Y219622D01*
X299368Y218701D01*
Y212000D01*
X299368Y212000D01*
Y209526D01*
X299352D01*
X299603Y207618D01*
X300339Y205840D01*
X301511Y204314D01*
X302259Y203740D01*
X301914Y202724D01*
X298000D01*
Y202787D01*
X295821Y202353D01*
X293973Y201119D01*
X292739Y199271D01*
X292305Y197092D01*
X292368D01*
Y192829D01*
X292305D01*
X292739Y190649D01*
X293973Y188802D01*
X295111Y188042D01*
Y186820D01*
X294101Y186145D01*
X292866Y184297D01*
X292433Y182118D01*
X292496D01*
Y177854D01*
X292433D01*
X292866Y175675D01*
X294101Y173828D01*
X295948Y172593D01*
X298127Y172160D01*
Y172223D01*
X299368D01*
Y148000D01*
X299368Y148000D01*
Y146333D01*
X267074Y114038D01*
X266552Y113257D01*
X266368Y112335D01*
Y92665D01*
X266552Y91743D01*
X267074Y90962D01*
X278962Y79074D01*
X279743Y78552D01*
X280665Y78368D01*
X292306D01*
X293227Y78552D01*
X294009Y79074D01*
X299639Y84704D01*
X299984Y84359D01*
X301454Y83750D01*
X303046D01*
X304516Y84359D01*
X305641Y85484D01*
X306250Y86954D01*
Y88546D01*
X305641Y90016D01*
X304516Y91141D01*
X303046Y91750D01*
X301912D01*
X301303Y92053D01*
X301000Y92662D01*
Y93796D01*
X300391Y95266D01*
X299266Y96391D01*
X297796Y97000D01*
X296204D01*
X294734Y96391D01*
X293609Y95266D01*
X293000Y93796D01*
Y92204D01*
X293609Y90734D01*
X293954Y90389D01*
X289973Y86408D01*
X283573D01*
X283013Y87284D01*
X284445Y88717D01*
X284967Y89498D01*
X285150Y90420D01*
X284967Y91341D01*
X284445Y92122D01*
X281430Y95137D01*
X280649Y95659D01*
X279727Y95842D01*
X278806Y95659D01*
X278025Y95137D01*
X276147Y93259D01*
X274408Y94997D01*
Y110002D01*
X306703Y142297D01*
X307225Y143078D01*
X307408Y144000D01*
Y148000D01*
Y172907D01*
X307425D01*
X307174Y174815D01*
X306437Y176593D01*
X305266Y178120D01*
X304518Y178694D01*
X304863Y179710D01*
X308776D01*
Y179647D01*
X310956Y180080D01*
X312803Y181315D01*
X314038Y183162D01*
X314471Y185341D01*
X314408D01*
Y189605D01*
X314471D01*
X314038Y191784D01*
X312803Y193632D01*
X311729Y194349D01*
Y195571D01*
X312803Y196289D01*
X314038Y198136D01*
X314471Y200316D01*
X314408D01*
Y204579D01*
X314471D01*
X314038Y206758D01*
X312803Y208606D01*
X310956Y209841D01*
X308776Y210274D01*
Y210211D01*
X307408D01*
Y216368D01*
X382448Y291407D01*
X384908Y288947D01*
X385106Y288815D01*
X390147Y283773D01*
X396915Y290541D01*
X404095Y297721D01*
X398973Y302842D01*
X398847Y303031D01*
X396313Y305565D01*
X406375Y315627D01*
X406396Y315627D01*
X407485Y317047D01*
X408170Y318701D01*
X408404Y320475D01*
X408170Y322249D01*
X408048Y322544D01*
X408767Y323262D01*
X409061Y323140D01*
X410835Y322907D01*
X412610Y323140D01*
X414263Y323825D01*
X415683Y324915D01*
X415673Y324925D01*
X424648Y333900D01*
X425147Y334647D01*
X425323Y335529D01*
Y355788D01*
X437625Y368090D01*
X437625Y368091D01*
X453174Y383639D01*
X453811Y383512D01*
X454179Y383286D01*
X454500Y382966D01*
X454726Y382598D01*
X454852Y381961D01*
X438352Y365461D01*
X437853Y364713D01*
X437677Y363831D01*
Y301185D01*
X426281Y289790D01*
X426203Y289671D01*
X419205Y282673D01*
X416670Y285208D01*
X416482Y285334D01*
X411360Y290455D01*
X404181Y283276D01*
X397413Y276508D01*
X402455Y271466D01*
X402587Y271268D01*
X405047Y268808D01*
X395667Y259428D01*
X395514Y259198D01*
X387578Y251263D01*
X386835Y251760D01*
X385913Y251944D01*
X385784D01*
X384801Y252927D01*
X383331Y253536D01*
X381740D01*
X380270Y252927D01*
X379145Y251801D01*
X378536Y250331D01*
Y248740D01*
X379145Y247270D01*
X380270Y246145D01*
X381740Y245536D01*
X383331D01*
X384801Y246145D01*
X385386Y246729D01*
X385949Y246353D01*
X386871Y246170D01*
X388170D01*
Y244871D01*
X388353Y243949D01*
X388729Y243386D01*
X388144Y242801D01*
X387536Y241331D01*
Y239740D01*
X388144Y238270D01*
X389270Y237145D01*
X390740Y236536D01*
X392331D01*
X393801Y237145D01*
X394927Y238270D01*
X395536Y239740D01*
Y241331D01*
X394927Y242801D01*
X393944Y243784D01*
Y243913D01*
X393760Y244835D01*
X393263Y245578D01*
X396757Y249072D01*
X397366Y249681D01*
X397366Y249681D01*
X398678Y250993D01*
X400479Y249192D01*
X401260Y248670D01*
X402182Y248487D01*
X403103Y248670D01*
X403885Y249192D01*
X406899Y252207D01*
X407421Y252988D01*
X407605Y253910D01*
X407421Y254831D01*
X406899Y255613D01*
X405060Y257452D01*
X407008Y259400D01*
X407009Y259400D01*
X410732Y263123D01*
X413192Y260663D01*
X413389Y260531D01*
X418432Y255489D01*
X425199Y262257D01*
X432379Y269436D01*
X427258Y274558D01*
X427132Y274746D01*
X424597Y277281D01*
X432558Y285242D01*
X432637Y285360D01*
X444629Y297351D01*
X445128Y298099D01*
X445304Y298981D01*
Y361627D01*
X460245Y376568D01*
X460882Y376441D01*
X461250Y376215D01*
X461571Y375895D01*
X461797Y375527D01*
X461923Y374890D01*
X459371Y372337D01*
X458872Y371590D01*
X458696Y370708D01*
Y265224D01*
X447675Y254203D01*
X444955Y256923D01*
X444766Y257050D01*
X439645Y262171D01*
X432877Y255403D01*
X425697Y248223D01*
X430739Y243182D01*
X430871Y242984D01*
X433331Y240524D01*
X372297Y179490D01*
X371775Y178708D01*
X371592Y177787D01*
Y170000D01*
X371592Y170000D01*
Y167526D01*
X371575D01*
X371826Y165618D01*
X372563Y163840D01*
X373734Y162314D01*
X374482Y161740D01*
X374137Y160724D01*
X370224D01*
Y160787D01*
X368044Y160353D01*
X366197Y159119D01*
X364962Y157271D01*
X364529Y155092D01*
X364592D01*
Y150829D01*
X364529D01*
X364962Y148649D01*
X366197Y146802D01*
X368044Y145567D01*
X368541Y145469D01*
X368739Y144472D01*
X368249Y144145D01*
X367015Y142297D01*
X366581Y140118D01*
X366645D01*
Y135854D01*
X366581D01*
X367015Y133675D01*
X368249Y131828D01*
X370097Y130593D01*
X371592Y130296D01*
Y109000D01*
X371592Y109000D01*
Y79997D01*
X337551Y45956D01*
X330530D01*
Y48436D01*
X330347Y49358D01*
X329825Y50139D01*
X329044Y50661D01*
X328122Y50844D01*
X323859D01*
X322937Y50661D01*
X322156Y50139D01*
X321634Y49358D01*
X321451Y48436D01*
Y48282D01*
X320512Y47893D01*
X317408Y50997D01*
Y60047D01*
X320852Y63491D01*
X321197Y63146D01*
X322668Y62537D01*
X324259D01*
X325729Y63146D01*
X326854Y64271D01*
X327463Y65741D01*
Y67332D01*
X326854Y68803D01*
X325729Y69928D01*
X324259Y70537D01*
X323125D01*
X322516Y70840D01*
X322213Y71448D01*
Y72582D01*
X321604Y74053D01*
X320479Y75178D01*
X319009Y75787D01*
X317418D01*
X315947Y75178D01*
X314822Y74053D01*
X314213Y72582D01*
Y70991D01*
X314822Y69521D01*
X315167Y69176D01*
X310074Y64082D01*
X309552Y63301D01*
X309368Y62379D01*
Y48665D01*
X309552Y47743D01*
X310074Y46962D01*
X318414Y38622D01*
X319195Y38100D01*
X320117Y37916D01*
X339883D01*
X340805Y38100D01*
X341586Y38622D01*
X378926Y75962D01*
X379448Y76743D01*
X379632Y77665D01*
Y109000D01*
Y130907D01*
X379648D01*
X379397Y132815D01*
X378661Y134593D01*
X377489Y136120D01*
X376741Y136694D01*
X377086Y137710D01*
X380686D01*
Y137647D01*
X382865Y138080D01*
X384713Y139315D01*
X385947Y141162D01*
X386381Y143342D01*
X386318D01*
Y147605D01*
X386381D01*
X385947Y149784D01*
X384713Y151632D01*
X383796Y152245D01*
Y153467D01*
X385027Y154289D01*
X386261Y156136D01*
X386695Y158316D01*
X386632D01*
Y162579D01*
X386695D01*
X386261Y164758D01*
X385027Y166606D01*
X383179Y167840D01*
X381000Y168274D01*
Y168211D01*
X379632D01*
Y175454D01*
X439016Y234839D01*
X441477Y232378D01*
X441674Y232246D01*
X446716Y227205D01*
X453895Y234384D01*
X460663Y241152D01*
X455542Y246273D01*
X455416Y246462D01*
X453068Y248810D01*
X465648Y261390D01*
X466147Y262137D01*
X466323Y263019D01*
Y368504D01*
X467316Y369497D01*
X468106Y369340D01*
X469179Y369553D01*
X470088Y370161D01*
X475000Y375073D01*
X479912Y370161D01*
X480821Y369553D01*
X481894Y369340D01*
X482684Y369497D01*
X489062Y363119D01*
Y258115D01*
X489237Y257233D01*
X489737Y256486D01*
X497172Y249050D01*
X494584Y246462D01*
X494458Y246273D01*
X489337Y241152D01*
X496516Y233973D01*
X503284Y227205D01*
X510161Y234081D01*
X508988Y235254D01*
X509949Y236216D01*
X558489Y187676D01*
X600583Y145582D01*
X606368Y139796D01*
Y92665D01*
X606552Y91743D01*
X607074Y90962D01*
X637100Y60936D01*
X637881Y60414D01*
X638803Y60230D01*
X664197D01*
X665119Y60414D01*
X665900Y60936D01*
X696442Y91478D01*
X696964Y92259D01*
X697148Y93181D01*
Y116790D01*
X696964Y117711D01*
X696442Y118493D01*
X690296Y124639D01*
X690641Y124984D01*
X691250Y126454D01*
Y128046D01*
X690641Y129516D01*
X689516Y130641D01*
X688046Y131250D01*
X686454D01*
X684984Y130641D01*
X683859Y129516D01*
X683250Y128046D01*
Y126911D01*
X682947Y126303D01*
X682338Y126000D01*
X681204D01*
X679734Y125391D01*
X678609Y124266D01*
X678000Y122796D01*
Y121204D01*
X678609Y119734D01*
X679734Y118609D01*
X681204Y118000D01*
X682796D01*
X684266Y118609D01*
X684611Y118954D01*
X689000Y114565D01*
X689000Y114555D01*
X688847Y113549D01*
X686457D01*
X685535Y113366D01*
X684754Y112844D01*
X684232Y112063D01*
X684049Y111141D01*
Y106878D01*
X684232Y105956D01*
X684754Y105175D01*
X685535Y104653D01*
X686457Y104470D01*
X689108D01*
Y95513D01*
X661864Y68270D01*
X641135D01*
X614408Y94997D01*
Y142129D01*
X614225Y143051D01*
X613703Y143832D01*
X606267Y151267D01*
X564174Y193361D01*
X564174Y193361D01*
X517046Y240488D01*
X517525Y241446D01*
X524303Y248223D01*
X517123Y255403D01*
X510355Y262171D01*
X505234Y257050D01*
X505045Y256923D01*
X502565Y254443D01*
X496688Y260319D01*
Y365324D01*
X496513Y366205D01*
X496014Y366953D01*
X488077Y374890D01*
X488203Y375527D01*
X488429Y375895D01*
X488750Y376215D01*
X489118Y376441D01*
X489755Y376568D01*
X506946Y359377D01*
Y296980D01*
X507122Y296099D01*
X507621Y295352D01*
X522001Y280972D01*
X522171Y280717D01*
X525611Y277277D01*
X523077Y274743D01*
X522950Y274554D01*
X517829Y269433D01*
X524597Y262665D01*
X531777Y255485D01*
X538653Y262362D01*
X536692Y264323D01*
X537629Y265259D01*
X555944Y246944D01*
X557548Y245340D01*
X557538Y245329D01*
X558958Y244240D01*
X560612Y243555D01*
X562386Y243321D01*
X563085Y243413D01*
X563560Y242451D01*
X561522Y240413D01*
X560770Y239745D01*
X559604Y237999D01*
X559194Y235940D01*
X559604Y233880D01*
X560239Y232930D01*
X560770Y232134D01*
X560771Y232134D01*
X561514Y231475D01*
X563683Y229306D01*
X563641Y229264D01*
X565387Y228097D01*
X567446Y227688D01*
X569506Y228097D01*
X570059Y228467D01*
X570904Y227903D01*
X570836Y227562D01*
X571246Y225503D01*
X571881Y224552D01*
X572412Y223757D01*
X572412Y223757D01*
X573156Y223097D01*
X575324Y220928D01*
X575283Y220886D01*
X577029Y219720D01*
X579088Y219310D01*
X581148Y219720D01*
X582359Y220529D01*
X603444Y199444D01*
X603444Y199444D01*
X631696Y171192D01*
Y93730D01*
X631872Y92849D01*
X632371Y92101D01*
X645120Y79352D01*
X645868Y78853D01*
X646749Y78677D01*
X658251D01*
X659132Y78853D01*
X659880Y79352D01*
X670176Y89649D01*
X670676Y90396D01*
X670851Y91278D01*
Y100337D01*
X670676Y101219D01*
X670176Y101966D01*
X668900Y103243D01*
X669391Y103734D01*
X670000Y105204D01*
Y106796D01*
X669391Y108266D01*
X668266Y109391D01*
X666796Y110000D01*
X665204D01*
X663734Y109391D01*
X662609Y108266D01*
X662000Y106796D01*
Y105661D01*
X661697Y105053D01*
X661088Y104750D01*
X659954D01*
X658484Y104141D01*
X657359Y103016D01*
X656750Y101546D01*
Y99954D01*
X657359Y98484D01*
X658484Y97359D01*
X659954Y96750D01*
X661546D01*
X662209Y97025D01*
X663225Y96346D01*
Y93483D01*
X656046Y86304D01*
X651036D01*
X650532Y87237D01*
X651492Y88197D01*
X651991Y88944D01*
X652167Y89826D01*
X651991Y90708D01*
X651492Y91455D01*
X648622Y94325D01*
X647874Y94824D01*
X646993Y95000D01*
X646111Y94824D01*
X645364Y94325D01*
X643148Y92110D01*
X639323Y95935D01*
Y173396D01*
X639147Y174278D01*
X638648Y175025D01*
X608837Y204837D01*
X586801Y226872D01*
X586054Y227371D01*
X586035Y227375D01*
X585834Y227530D01*
X584180Y228214D01*
X582406Y228448D01*
X581707Y228356D01*
X581232Y229318D01*
X583279Y231365D01*
X584021Y232024D01*
X584022Y232024D01*
X584553Y232820D01*
X585188Y233770D01*
X585598Y235830D01*
X585188Y237889D01*
X584954Y238240D01*
X584921Y238404D01*
X584626Y238845D01*
X584422Y239151D01*
X584022Y239635D01*
X583261Y240312D01*
X581828Y241745D01*
X581152Y242505D01*
X581151Y242505D01*
X581151Y242506D01*
X580667Y242906D01*
X580433Y243063D01*
X579920Y243405D01*
X579756Y243438D01*
X579405Y243672D01*
X577346Y244082D01*
X576230Y243860D01*
X575366Y244724D01*
X575588Y245839D01*
X575178Y247899D01*
X574944Y248249D01*
X574911Y248414D01*
X574617Y248855D01*
X574412Y249161D01*
X574012Y249645D01*
X573251Y250322D01*
X571818Y251755D01*
X571142Y252515D01*
X571142Y252515D01*
X571141Y252516D01*
X570658Y252915D01*
X570423Y253072D01*
X569910Y253415D01*
X569746Y253447D01*
X569396Y253682D01*
X567336Y254091D01*
X565276Y253682D01*
X564326Y253047D01*
X563530Y252515D01*
X563530Y252515D01*
X563091Y252020D01*
X561884Y251789D01*
X543022Y270652D01*
X543958Y271588D01*
X545919Y269628D01*
X552795Y276504D01*
X546027Y283272D01*
X538848Y290452D01*
X533727Y285330D01*
X533538Y285204D01*
X531003Y282670D01*
X528619Y285055D01*
X528448Y285310D01*
X514573Y299185D01*
Y361581D01*
X514397Y362463D01*
X513898Y363210D01*
X495148Y381961D01*
X495274Y382598D01*
X495500Y382966D01*
X495821Y383286D01*
X496189Y383512D01*
X496826Y383639D01*
X524446Y356019D01*
Y335731D01*
X524622Y334849D01*
X525121Y334102D01*
X527611Y331611D01*
X527611Y331611D01*
X535427Y323795D01*
X534267Y322059D01*
X533857Y320000D01*
X534267Y317940D01*
X534902Y316990D01*
X535434Y316194D01*
X535434Y316194D01*
X536177Y315535D01*
X538346Y313366D01*
X538304Y313324D01*
X540050Y312157D01*
X542109Y311748D01*
X544169Y312157D01*
X545905Y313317D01*
X552008Y307215D01*
X552096Y307156D01*
X553687Y305565D01*
X551153Y303031D01*
X551027Y302842D01*
X545905Y297721D01*
X553085Y290541D01*
X559853Y283773D01*
X564894Y288815D01*
X565092Y288947D01*
X567552Y291407D01*
X576480Y282480D01*
X613980Y244980D01*
X632450Y226509D01*
X633231Y225987D01*
X634153Y225804D01*
X653732D01*
X658545Y220991D01*
X659005Y220507D01*
X659005Y220507D01*
X660532Y219335D01*
X662310Y218599D01*
X664218Y218348D01*
X665152Y218471D01*
X665627Y217508D01*
X663580Y215462D01*
X662837Y214800D01*
X662815Y214786D01*
X662296Y214009D01*
X661580Y212938D01*
X661147Y210759D01*
X661580Y208580D01*
X662815Y206732D01*
X662831Y206721D01*
X663592Y206045D01*
X665142Y204494D01*
X665818Y203734D01*
X665830Y203717D01*
X666630Y203183D01*
X667677Y202483D01*
X669856Y202049D01*
X671123Y202301D01*
X671987Y201437D01*
X671735Y200171D01*
X672169Y197991D01*
X673403Y196144D01*
X673420Y196133D01*
X674180Y195456D01*
X675730Y193906D01*
X676407Y193146D01*
X676418Y193129D01*
X677218Y192594D01*
X678265Y191895D01*
X680445Y191461D01*
X682624Y191895D01*
X682954Y192115D01*
X683086Y192082D01*
X683557Y191743D01*
X683850Y191409D01*
X683775Y191034D01*
X684208Y188855D01*
X685443Y187007D01*
X685460Y186996D01*
X686220Y186319D01*
X687770Y184769D01*
X688447Y184009D01*
X688458Y183992D01*
X689258Y183457D01*
X690305Y182758D01*
X692484Y182324D01*
X694664Y182758D01*
X695931Y183605D01*
X709491Y170045D01*
X709491Y170045D01*
X710768Y168768D01*
X710768Y168768D01*
X713901Y165635D01*
X713901Y165635D01*
X714510Y165025D01*
X714511Y165025D01*
X715822Y163713D01*
X714069Y161960D01*
X713547Y161178D01*
X713363Y160257D01*
X713547Y159335D01*
X714069Y158554D01*
X717084Y155540D01*
X717084Y155539D01*
X717865Y155017D01*
X718786Y154834D01*
X719708Y155017D01*
X719826Y155096D01*
X720842Y154553D01*
Y152747D01*
X713885Y145790D01*
X712774D01*
X712106Y146806D01*
X712463Y147668D01*
Y149259D01*
X711854Y150729D01*
X710729Y151854D01*
X709259Y152463D01*
X707667D01*
X706197Y151854D01*
X705072Y150729D01*
X704463Y149259D01*
Y148125D01*
X704160Y147516D01*
X703552Y147213D01*
X702418D01*
X700947Y146604D01*
X699822Y145479D01*
X699213Y144009D01*
Y142417D01*
X699822Y140947D01*
X700947Y139822D01*
X702418Y139213D01*
X704009D01*
X705479Y139822D01*
X705824Y140167D01*
X707536Y138456D01*
X708317Y137934D01*
X709239Y137750D01*
X716217D01*
X717139Y137934D01*
X717920Y138456D01*
X728176Y148712D01*
X728698Y149493D01*
X728882Y150415D01*
Y161026D01*
X728698Y161948D01*
X728176Y162729D01*
X725703Y165203D01*
X725703Y165203D01*
X716453Y174453D01*
X716452Y174453D01*
X701889Y189017D01*
X701184Y189722D01*
X701196Y189734D01*
X700712Y190194D01*
X700439Y190376D01*
X699930Y190716D01*
X699910Y190720D01*
X699669Y190905D01*
X697891Y191642D01*
X695983Y191893D01*
X695048Y191770D01*
X694574Y192732D01*
X695280Y193438D01*
X696024Y194094D01*
X696024Y194094D01*
X696556Y194889D01*
X697259Y195941D01*
X697692Y198120D01*
X697259Y200300D01*
X696024Y202147D01*
X695980Y202103D01*
X695980D01*
X695980Y202103D01*
X692965Y205117D01*
X692965Y205117D01*
X693010Y205162D01*
X691162Y206397D01*
X688983Y206830D01*
X688573Y206748D01*
X688240Y206987D01*
X688007Y207257D01*
X687867Y207644D01*
X688032Y207891D01*
X688465Y210070D01*
X688032Y212249D01*
X686797Y214097D01*
X686753Y214052D01*
X686753D01*
X686753Y214052D01*
X683738Y217067D01*
X683738Y217067D01*
X683783Y217112D01*
X681935Y218346D01*
X679756Y218780D01*
X678489Y218528D01*
X677625Y219392D01*
X677877Y220658D01*
X677444Y222838D01*
X676209Y224685D01*
X676165Y224641D01*
X676164D01*
X676164Y224641D01*
X673150Y227655D01*
X673150Y227655D01*
X673194Y227700D01*
X671347Y228934D01*
X669168Y229368D01*
X666988Y228934D01*
X665957Y228245D01*
X665141Y227700D01*
X665141Y227700D01*
X665185Y227655D01*
X665185Y227655D01*
X664218Y226688D01*
X662953Y227952D01*
X662953Y227953D01*
X657767Y233139D01*
X656986Y233661D01*
X656064Y233844D01*
X636486D01*
X619665Y250665D01*
X582165Y288165D01*
X573237Y297092D01*
X575698Y299553D01*
X575830Y299750D01*
X580871Y304792D01*
X574103Y311560D01*
X574104Y311560D01*
X566924Y318739D01*
X561803Y313618D01*
X561614Y313492D01*
X559080Y310958D01*
X556545Y313492D01*
X556457Y313551D01*
X550261Y319747D01*
X549513Y320247D01*
X549494Y320251D01*
X549293Y320405D01*
X547640Y321090D01*
X545865Y321324D01*
X544090Y321090D01*
X543796Y320968D01*
X543078Y321686D01*
X543200Y321981D01*
X543433Y323755D01*
X543200Y325530D01*
X542515Y327183D01*
X542360Y327384D01*
X542356Y327403D01*
X541857Y328151D01*
X532073Y337935D01*
Y358224D01*
X531897Y359105D01*
X531398Y359853D01*
X502219Y389032D01*
X502345Y389669D01*
X502571Y390037D01*
X502892Y390357D01*
X503260Y390583D01*
X503897Y390710D01*
X534236Y360371D01*
X534984Y359872D01*
X535865Y359696D01*
X556124D01*
X559910Y355910D01*
X559910Y355910D01*
X564325Y351495D01*
X563160Y349752D01*
X562750Y347692D01*
X563160Y345633D01*
X563795Y344683D01*
X564327Y343887D01*
X564327Y343887D01*
X565070Y343227D01*
X567239Y341059D01*
X567197Y341017D01*
X568943Y339850D01*
X571002Y339440D01*
X573062Y339850D01*
X574805Y341015D01*
X581971Y333849D01*
X579437Y331315D01*
X579311Y331126D01*
X574190Y326005D01*
X580957Y319237D01*
X588137Y312057D01*
X595014Y318934D01*
X593126Y320821D01*
X593917Y321611D01*
X647731Y267797D01*
X648512Y267275D01*
X649434Y267092D01*
X855059D01*
X855980Y267275D01*
X856761Y267797D01*
X867953Y278988D01*
X868475Y279770D01*
X868658Y280691D01*
Y296284D01*
X868475Y297206D01*
X867953Y297987D01*
X865673Y300267D01*
X866018Y300612D01*
X866627Y302083D01*
Y303674D01*
X866018Y305144D01*
X864893Y306269D01*
X863422Y306878D01*
X861831D01*
X860361Y306269D01*
X859236Y305144D01*
X858627Y303674D01*
Y302540D01*
X858324Y301931D01*
X857715Y301628D01*
X856581D01*
X855111Y301019D01*
X853986Y299894D01*
X853377Y298424D01*
Y296833D01*
X853986Y295362D01*
X855111Y294237D01*
X856581Y293628D01*
X858173D01*
X859643Y294237D01*
X859776Y294370D01*
X860618Y293776D01*
Y283024D01*
X853299Y275704D01*
X853291Y275704D01*
X852283Y275928D01*
Y277905D01*
X852099Y278826D01*
X851577Y279607D01*
X850796Y280129D01*
X849875Y280313D01*
X845611D01*
X844689Y280129D01*
X843908Y279607D01*
X843386Y278826D01*
X843203Y277905D01*
Y275132D01*
X651767D01*
X599602Y327296D01*
X600392Y328087D01*
X602279Y326200D01*
X609156Y333076D01*
X602388Y339844D01*
X595208Y347024D01*
X590087Y341902D01*
X589898Y341776D01*
X587364Y339242D01*
X579160Y347446D01*
X578412Y347946D01*
X578393Y347949D01*
X578192Y348104D01*
X576539Y348789D01*
X574764Y349022D01*
X572990Y348789D01*
X572695Y348667D01*
X571977Y349385D01*
X572099Y349679D01*
X572332Y351454D01*
X572099Y353228D01*
X571414Y354882D01*
X571259Y355083D01*
X571256Y355102D01*
X570756Y355850D01*
X565303Y361303D01*
X559958Y366648D01*
X559211Y367147D01*
X558329Y367323D01*
X538070D01*
X509290Y396103D01*
X509417Y396740D01*
X509642Y397108D01*
X509963Y397429D01*
X510331Y397655D01*
X510968Y397781D01*
X529397Y379352D01*
X530145Y378853D01*
X531026Y378677D01*
X594045D01*
X610422Y362300D01*
X607721Y359599D01*
X607595Y359411D01*
X602474Y354289D01*
X609653Y347110D01*
X609653Y347110D01*
X616421Y340342D01*
X621463Y345384D01*
X621660Y345516D01*
X624121Y347976D01*
X633225Y338872D01*
X633230Y338844D01*
X633752Y338063D01*
X641480Y330335D01*
X641335Y330189D01*
X640813Y329408D01*
X640686Y328767D01*
X639647Y327728D01*
X639038Y326258D01*
Y324667D01*
X639647Y323196D01*
X640772Y322071D01*
X642242Y321462D01*
X643833D01*
X645303Y322071D01*
X646429Y323196D01*
X647038Y324667D01*
Y326258D01*
X646429Y327728D01*
X646021Y328136D01*
X646397Y328699D01*
X646580Y329621D01*
Y330920D01*
X647879D01*
X648801Y331103D01*
X649364Y331479D01*
X649949Y330895D01*
X651419Y330285D01*
X653010D01*
X654480Y330895D01*
X655605Y332020D01*
X656214Y333490D01*
Y335081D01*
X655605Y336551D01*
X654480Y337677D01*
X653010Y338285D01*
X651419D01*
X649949Y337677D01*
X648966Y336694D01*
X648837D01*
X647915Y336510D01*
X647172Y336013D01*
X645920Y337265D01*
X647140Y338485D01*
X647662Y339266D01*
X647845Y340187D01*
X647662Y341109D01*
X647140Y341890D01*
X644125Y344905D01*
X644125Y344905D01*
X643344Y345427D01*
X642422Y345610D01*
X641501Y345427D01*
X640720Y344905D01*
X639641Y343826D01*
X632843Y350624D01*
X632843Y350624D01*
X632233Y351233D01*
X632233Y351233D01*
X629806Y353661D01*
X632266Y356121D01*
X632398Y356319D01*
X637440Y361360D01*
X630672Y368128D01*
X623492Y375308D01*
X618371Y370187D01*
X618182Y370061D01*
X615815Y367693D01*
X597879Y385629D01*
X597132Y386128D01*
X596250Y386304D01*
X533231D01*
X516361Y403174D01*
X516488Y403811D01*
X516714Y404179D01*
X517034Y404500D01*
X517402Y404726D01*
X518039Y404852D01*
X518816Y404076D01*
X518816Y404075D01*
X525789Y397102D01*
X526537Y396603D01*
X527419Y396427D01*
X632565D01*
X638557Y390435D01*
X636006Y387884D01*
X635879Y387695D01*
X630758Y382574D01*
X637526Y375806D01*
X644706Y368626D01*
X649747Y373668D01*
X649945Y373800D01*
X652405Y376260D01*
X663104Y365561D01*
X663886Y365039D01*
X664807Y364856D01*
X801000D01*
X801000Y364856D01*
X803474D01*
Y364839D01*
X805382Y365090D01*
X807160Y365826D01*
X808686Y366998D01*
X809858Y368525D01*
X810044Y368975D01*
X811061D01*
X811247Y368525D01*
X812419Y366998D01*
X813945Y365826D01*
X815723Y365090D01*
X817631Y364839D01*
Y364856D01*
X842000D01*
X842000Y364856D01*
X869680D01*
X880824Y353712D01*
X880824Y353712D01*
X888774Y345762D01*
X888774Y345762D01*
X889383Y345152D01*
X889383Y345152D01*
X890695Y343840D01*
X887663Y340808D01*
X887141Y340027D01*
X886958Y339106D01*
X887141Y338184D01*
X887663Y337403D01*
X890678Y334388D01*
X890678Y334388D01*
X891459Y333866D01*
X892381Y333683D01*
X893119Y333830D01*
X893788Y333463D01*
X894118Y333190D01*
Y326465D01*
X889063Y321409D01*
X888057Y321473D01*
X887468Y322398D01*
X887840Y323296D01*
Y324887D01*
X887231Y326357D01*
X886106Y327482D01*
X884636Y328091D01*
X883044D01*
X881574Y327482D01*
X880449Y326357D01*
X879840Y324887D01*
Y323753D01*
X879537Y323145D01*
X878929Y322841D01*
X877794D01*
X876324Y322232D01*
X875199Y321107D01*
X874590Y319637D01*
Y318046D01*
X875199Y316576D01*
X876324Y315450D01*
X877794Y314841D01*
X879386D01*
X880856Y315450D01*
X881201Y315795D01*
X882949Y314047D01*
X883730Y313525D01*
X884652Y313342D01*
X891368D01*
X892289Y313525D01*
X893070Y314047D01*
X901453Y322430D01*
X901975Y323211D01*
X902158Y324132D01*
Y342750D01*
X901975Y343671D01*
X901453Y344453D01*
X887453Y358453D01*
X887453Y358453D01*
X873716Y372190D01*
X872934Y372712D01*
X872013Y372895D01*
X818316D01*
Y374264D01*
X818379D01*
X817946Y376443D01*
X816711Y378290D01*
X814864Y379525D01*
X812684Y379958D01*
Y379895D01*
X808421D01*
Y379958D01*
X806242Y379525D01*
X804394Y378290D01*
X803159Y376443D01*
X802726Y374264D01*
X802789D01*
Y372895D01*
X667140D01*
X658090Y381945D01*
X660551Y384406D01*
X660682Y384603D01*
X665724Y389645D01*
X658545Y396824D01*
X651777Y403592D01*
X646656Y398471D01*
X646467Y398345D01*
X643950Y395828D01*
X636399Y403379D01*
X635651Y403878D01*
X634770Y404054D01*
X529623D01*
X525093Y408584D01*
X525093Y408584D01*
X523934Y409743D01*
X524019Y410168D01*
X525122Y410501D01*
X526399Y409224D01*
X527149Y408723D01*
X528033Y408548D01*
X542364D01*
X543445Y407467D01*
X544915Y406858D01*
X546506D01*
X547976Y407467D01*
X549102Y408592D01*
X549711Y410062D01*
Y411654D01*
X549102Y413124D01*
X547976Y414249D01*
X546506Y414858D01*
X544915D01*
X543445Y414249D01*
X542364Y413168D01*
X528990D01*
X527285Y414873D01*
X527786Y415809D01*
X527856Y415795D01*
X528740Y415971D01*
X529490Y416472D01*
X529991Y417221D01*
X530167Y418106D01*
X530031Y418788D01*
X532016Y420773D01*
X551446D01*
X551512Y420613D01*
X552637Y419488D01*
X554107Y418879D01*
X555699D01*
X557169Y419488D01*
X558294Y420613D01*
X558903Y422083D01*
Y423674D01*
X558816Y423885D01*
X559644Y424712D01*
X566128D01*
X571520Y419320D01*
X577907Y425707D01*
X570459Y433154D01*
X566128Y428823D01*
X558792D01*
X558005Y428667D01*
X557339Y428221D01*
X557339Y428221D01*
X555909Y426791D01*
X555699Y426879D01*
X554892D01*
X554086Y427011D01*
X553953Y427817D01*
Y428624D01*
X553866Y428834D01*
X557936Y432904D01*
X559499Y431341D01*
X565886Y437728D01*
X558439Y445175D01*
X552052Y438788D01*
X555029Y435811D01*
X550959Y431741D01*
X550749Y431828D01*
X549942D01*
X549136Y431961D01*
X549004Y432767D01*
Y433574D01*
X548395Y435044D01*
X547269Y436169D01*
X545799Y436778D01*
X544992D01*
X544179Y436955D01*
X544054Y437717D01*
Y438574D01*
X543445Y440044D01*
X542320Y441169D01*
X540849Y441778D01*
X540043D01*
X539236Y441911D01*
X539104Y442717D01*
Y443523D01*
X538495Y444994D01*
X537370Y446119D01*
X536687Y446402D01*
X536889Y447418D01*
X549692D01*
X550584Y447595D01*
X551340Y448101D01*
X552136Y448897D01*
X552542Y448729D01*
X554133D01*
X555603Y449338D01*
X556728Y450463D01*
X557337Y451933D01*
Y453524D01*
X556728Y454995D01*
X555603Y456120D01*
X554133Y456729D01*
X552542D01*
X551072Y456120D01*
X549946Y454995D01*
X549337Y453524D01*
Y452691D01*
X548726Y452080D01*
X517426D01*
X516535Y451902D01*
X515778Y451397D01*
X514533Y450151D01*
X513426Y450482D01*
X513344Y450880D01*
X523160Y460696D01*
X536269D01*
X537151Y460872D01*
X537898Y461371D01*
X542606Y466078D01*
X542842Y466236D01*
X552009Y475403D01*
X554543Y472868D01*
X554732Y472742D01*
X559853Y467621D01*
X567032Y474801D01*
X573800Y481568D01*
X572386Y482983D01*
X591701Y502299D01*
X591701Y502299D01*
X591723Y502277D01*
X594566Y505605D01*
X596853Y509337D01*
X598528Y513381D01*
X599550Y517637D01*
X599893Y522000D01*
X599862D01*
Y657479D01*
X599894D01*
X599546Y661905D01*
X598509Y666222D01*
X596810Y670324D01*
X594491Y674110D01*
X591607Y677486D01*
X591584Y677463D01*
X585191Y683857D01*
X586480Y685147D01*
X577147Y694480D01*
X575857Y693191D01*
X569108Y699940D01*
X569346Y701138D01*
X569867Y701354D01*
X570574Y702061D01*
X570906Y702863D01*
X571536Y703702D01*
X572696Y704183D01*
X573397Y704884D01*
X570593Y707689D01*
X571311Y708407D01*
X574116Y705603D01*
X574817Y706304D01*
X575298Y707464D01*
X576137Y708093D01*
X576939Y708426D01*
X577646Y709133D01*
X578126Y710293D01*
X577836Y710993D01*
X578614Y711770D01*
X579314Y711480D01*
X580474Y711961D01*
X581181Y712668D01*
X581662Y713828D01*
X581181Y714989D01*
X577893Y718277D01*
X576733Y718757D01*
X576395Y718618D01*
X575618Y719395D01*
X575757Y719733D01*
X575277Y720893D01*
X571989Y724181D01*
X570828Y724662D01*
X569668Y724181D01*
X568961Y723474D01*
X568480Y722314D01*
X568770Y721614D01*
X567993Y720836D01*
X567293Y721126D01*
X566133Y720646D01*
X565425Y719939D01*
X565093Y719137D01*
X564464Y718298D01*
X563304Y717817D01*
X562603Y717116D01*
X565407Y714311D01*
X564689Y713593D01*
X561884Y716397D01*
X561183Y715696D01*
X560702Y714536D01*
X559863Y713906D01*
X559062Y713575D01*
X558354Y712867D01*
X558138Y712346D01*
X556940Y712107D01*
X501642Y767405D01*
X501989Y768005D01*
X502500Y769913D01*
Y771887D01*
X501989Y773795D01*
X501002Y775505D01*
X499605Y776901D01*
X497895Y777889D01*
X495987Y778400D01*
D02*
G37*
G36*
X476516Y761516D02*
X475508D01*
Y750508D01*
X486516D01*
Y751516D01*
X485731Y754445D01*
X484215Y757071D01*
X482071Y759215D01*
X479445Y760731D01*
X476516Y761516D01*
D02*
G37*
G36*
X474492D02*
X473484D01*
X470555Y760731D01*
X467929Y759215D01*
X465785Y757071D01*
X464269Y754445D01*
X463484Y751516D01*
Y750508D01*
X474492D01*
Y761516D01*
D02*
G37*
G36*
X50996Y765366D02*
X49004D01*
X47080Y764850D01*
X45354Y763854D01*
X43946Y762446D01*
X42950Y760720D01*
X42434Y758796D01*
Y756804D01*
X42950Y754880D01*
X43946Y753154D01*
X45354Y751746D01*
X47080Y750750D01*
X49004Y750234D01*
X50996D01*
X52920Y750750D01*
X54646Y751746D01*
X56054Y753154D01*
X57050Y754880D01*
X57566Y756804D01*
Y758796D01*
X57050Y760720D01*
X56054Y762446D01*
X54646Y763854D01*
X52920Y764850D01*
X50996Y765366D01*
D02*
G37*
G36*
X486516Y749492D02*
X475508D01*
Y738484D01*
X476516D01*
X479445Y739269D01*
X482071Y740785D01*
X484215Y742929D01*
X485731Y745555D01*
X486516Y748484D01*
Y749492D01*
D02*
G37*
G36*
X474492D02*
X463484D01*
Y748484D01*
X464269Y745555D01*
X465785Y742929D01*
X467929Y740785D01*
X470555Y739269D01*
X473484Y738484D01*
X474492D01*
Y749492D01*
D02*
G37*
G36*
X839170Y743890D02*
X836830D01*
X834569Y743284D01*
X832541Y742114D01*
X830886Y740459D01*
X829716Y738431D01*
X829110Y736170D01*
Y733830D01*
X829716Y731569D01*
X830886Y729541D01*
X832541Y727886D01*
X834569Y726716D01*
X836830Y726110D01*
X839170D01*
X841431Y726716D01*
X843459Y727886D01*
X845114Y729541D01*
X846284Y731569D01*
X846890Y733830D01*
Y736170D01*
X846284Y738431D01*
X845114Y740459D01*
X843459Y742114D01*
X841431Y743284D01*
X839170Y743890D01*
D02*
G37*
G36*
X50996Y739966D02*
X49004D01*
X47080Y739450D01*
X45354Y738454D01*
X43946Y737046D01*
X42950Y735320D01*
X42434Y733396D01*
Y731404D01*
X42950Y729480D01*
X43946Y727754D01*
X45354Y726346D01*
X47080Y725350D01*
X49004Y724834D01*
X50996D01*
X52920Y725350D01*
X54646Y726346D01*
X56054Y727754D01*
X57050Y729480D01*
X57566Y731404D01*
Y733396D01*
X57050Y735320D01*
X56054Y737046D01*
X54646Y738454D01*
X52920Y739450D01*
X50996Y739966D01*
D02*
G37*
G36*
X431062Y728766D02*
X429759D01*
Y715508D01*
X443016D01*
Y716812D01*
X442078Y720313D01*
X440266Y723453D01*
X437702Y726015D01*
X434563Y727828D01*
X431062Y728766D01*
D02*
G37*
G36*
X428743D02*
X427438D01*
X423937Y727828D01*
X420798Y726015D01*
X418234Y723453D01*
X416422Y720313D01*
X415484Y716812D01*
Y715508D01*
X428743D01*
Y728766D01*
D02*
G37*
G36*
X522562D02*
X521259D01*
Y715508D01*
X534516D01*
Y716812D01*
X533578Y720313D01*
X531766Y723453D01*
X529202Y726015D01*
X526063Y727828D01*
X522562Y728766D01*
D02*
G37*
G36*
X520243D02*
X518938D01*
X515437Y727828D01*
X512298Y726015D01*
X509734Y723453D01*
X507922Y720313D01*
X506984Y716812D01*
Y715508D01*
X520243D01*
Y728766D01*
D02*
G37*
G36*
X534516Y714492D02*
X521259D01*
Y701234D01*
X522562D01*
X526063Y702172D01*
X529202Y703984D01*
X531766Y706547D01*
X533578Y709687D01*
X534516Y713188D01*
Y714492D01*
D02*
G37*
G36*
X520243D02*
X506984D01*
Y713188D01*
X507922Y709687D01*
X509734Y706547D01*
X512298Y703984D01*
X515437Y702172D01*
X518938Y701234D01*
X520243D01*
Y714492D01*
D02*
G37*
G36*
X443016Y714492D02*
X429759D01*
Y701234D01*
X431062D01*
X434563Y702172D01*
X437702Y703984D01*
X440266Y706547D01*
X442078Y709687D01*
X443016Y713188D01*
Y714492D01*
D02*
G37*
G36*
X428743D02*
X415484D01*
Y713188D01*
X416422Y709687D01*
X418234Y706547D01*
X420798Y703984D01*
X423937Y702172D01*
X427438Y701234D01*
X428743D01*
Y714492D01*
D02*
G37*
G36*
X50996Y714566D02*
X49004D01*
X47080Y714050D01*
X45354Y713054D01*
X43946Y711646D01*
X42950Y709920D01*
X42434Y707996D01*
Y706004D01*
X42950Y704080D01*
X43946Y702354D01*
X45354Y700946D01*
X47080Y699950D01*
X49004Y699434D01*
X50996D01*
X52920Y699950D01*
X54646Y700946D01*
X56054Y702354D01*
X57050Y704080D01*
X57566Y706004D01*
Y707996D01*
X57050Y709920D01*
X56054Y711646D01*
X54646Y713054D01*
X52920Y714050D01*
X50996Y714566D01*
D02*
G37*
G36*
Y689166D02*
X49004D01*
X47080Y688650D01*
X45354Y687654D01*
X43946Y686246D01*
X42950Y684520D01*
X42434Y682596D01*
Y680604D01*
X42950Y678680D01*
X43946Y676954D01*
X45354Y675546D01*
X47080Y674550D01*
X49004Y674034D01*
X50996D01*
X52920Y674550D01*
X54646Y675546D01*
X56054Y676954D01*
X57050Y678680D01*
X57566Y680604D01*
Y682596D01*
X57050Y684520D01*
X56054Y686246D01*
X54646Y687654D01*
X52920Y688650D01*
X50996Y689166D01*
D02*
G37*
G36*
X568166Y684816D02*
X567824Y684473D01*
X567824D01*
X567824Y684473D01*
X566901Y684286D01*
X531572Y678485D01*
X531460Y678416D01*
X530734D01*
Y677602D01*
X530650Y677400D01*
Y670900D01*
X530734Y670698D01*
Y669884D01*
X531364D01*
X531391Y669861D01*
X562265Y659188D01*
Y658984D01*
X562922Y658961D01*
X563108Y658972D01*
X563281Y658900D01*
X572281D01*
X572483Y658984D01*
X573297D01*
Y659798D01*
X573381Y660000D01*
Y666328D01*
X576401Y675751D01*
X576816Y676166D01*
X576357Y676670D01*
X576223Y676783D01*
X576157Y676944D01*
X568944Y684156D01*
X568857Y684192D01*
X568808Y684272D01*
X568166Y684816D01*
D02*
G37*
G36*
X381834D02*
X381192Y684272D01*
X381143Y684192D01*
X381056Y684156D01*
X373843Y676944D01*
X373777Y676783D01*
X373643Y676670D01*
X373184Y676166D01*
X373599Y675751D01*
X376484Y666750D01*
Y658984D01*
X377517D01*
X377719Y658900D01*
X386535D01*
X386719Y658900D01*
X387516Y658984D01*
Y659112D01*
X418609Y669861D01*
X418636Y669884D01*
X419266D01*
Y670698D01*
X419350Y670900D01*
Y677400D01*
X419266Y677602D01*
Y678416D01*
X418540D01*
X418428Y678485D01*
X383099Y684286D01*
X382177Y684473D01*
X382176Y684473D01*
X382176D01*
X381947Y684703D01*
X381834Y684816D01*
D02*
G37*
G36*
X50996Y663766D02*
X49004D01*
X47080Y663250D01*
X45354Y662254D01*
X43946Y660846D01*
X42950Y659120D01*
X42434Y657196D01*
Y655204D01*
X42950Y653280D01*
X43946Y651554D01*
X45354Y650146D01*
X47080Y649150D01*
X49004Y648634D01*
X50996D01*
X52920Y649150D01*
X54646Y650146D01*
X56054Y651554D01*
X57050Y653280D01*
X57566Y655204D01*
Y657196D01*
X57050Y659120D01*
X56054Y660846D01*
X54646Y662254D01*
X52920Y663250D01*
X50996Y663766D01*
D02*
G37*
G36*
X418250Y653100D02*
X377719D01*
X377517Y653016D01*
X376484D01*
Y644484D01*
X376619D01*
Y639547D01*
X376484D01*
Y624969D01*
X377517D01*
X377719Y624885D01*
X392281D01*
X392483Y624969D01*
X393078D01*
Y625208D01*
X418029Y643959D01*
X418812Y644484D01*
X418812D01*
Y644484D01*
X419266D01*
X419339Y645346D01*
X419319Y645425D01*
X419350Y645500D01*
Y652000D01*
X419266Y652202D01*
Y653016D01*
X418452D01*
X418250Y653100D01*
D02*
G37*
G36*
X572281Y653100D02*
X531750D01*
X531548Y653016D01*
X530734D01*
Y652202D01*
X530650Y652000D01*
Y645500D01*
X530681Y645425D01*
X530661Y645346D01*
X530734Y644484D01*
X531188D01*
Y644484D01*
X531188D01*
X531971Y643959D01*
X556703Y625373D01*
Y624969D01*
X557517D01*
X557719Y624885D01*
X572281D01*
X572483Y624969D01*
X573297D01*
Y625782D01*
X573381Y625985D01*
Y652000D01*
X573297Y652202D01*
Y653016D01*
X572483D01*
X572281Y653100D01*
D02*
G37*
G36*
X50996Y638366D02*
X49004D01*
X47080Y637850D01*
X45354Y636854D01*
X43946Y635446D01*
X42950Y633720D01*
X42434Y631796D01*
Y629804D01*
X42950Y627880D01*
X43946Y626154D01*
X45354Y624746D01*
X47080Y623750D01*
X49004Y623234D01*
X50996D01*
X52920Y623750D01*
X54646Y624746D01*
X56054Y626154D01*
X57050Y627880D01*
X57566Y629804D01*
Y631796D01*
X57050Y633720D01*
X56054Y635446D01*
X54646Y636854D01*
X52920Y637850D01*
X50996Y638366D01*
D02*
G37*
G36*
X393078Y623031D02*
X385288D01*
Y616251D01*
X393078D01*
Y623031D01*
D02*
G37*
G36*
X384272D02*
X376484D01*
Y616251D01*
X384272D01*
Y623031D01*
D02*
G37*
G36*
X573297Y623031D02*
X565509D01*
Y616249D01*
X573297D01*
Y623031D01*
D02*
G37*
G36*
X564493D02*
X556703D01*
Y616249D01*
X564493D01*
Y623031D01*
D02*
G37*
G36*
X453834Y644816D02*
X453258Y644240D01*
X453056Y644156D01*
X445844Y636944D01*
X445760Y636742D01*
X445184Y636166D01*
X445454Y635897D01*
X443818Y626966D01*
X443734D01*
Y626557D01*
X430708Y616594D01*
X429926Y616066D01*
X429925D01*
Y616066D01*
X429484D01*
X429410Y615195D01*
X429430Y615121D01*
X429400Y615050D01*
Y608550D01*
X429484Y608348D01*
Y607534D01*
X430298D01*
X430500Y607450D01*
X439500D01*
X439672Y607522D01*
X439857Y607510D01*
X440516Y607534D01*
Y607736D01*
X471607Y618410D01*
X471634Y618434D01*
X472266D01*
Y619248D01*
X472350Y619450D01*
Y625950D01*
X472266Y626152D01*
Y626966D01*
X471789D01*
X459146Y639610D01*
X459137Y639631D01*
X454611Y644156D01*
X454409Y644240D01*
X453834Y644816D01*
D02*
G37*
G36*
X393078Y615235D02*
X385288D01*
Y608453D01*
X393078D01*
Y615235D01*
D02*
G37*
G36*
X384272D02*
X376484D01*
Y608453D01*
X384272D01*
Y615235D01*
D02*
G37*
G36*
X573297Y615233D02*
X565509D01*
Y608453D01*
X573297D01*
Y615233D01*
D02*
G37*
G36*
X564493D02*
X556703D01*
Y608453D01*
X564493D01*
Y615233D01*
D02*
G37*
G36*
X496166Y644816D02*
X495591Y644240D01*
X495389Y644156D01*
X490863Y639631D01*
X490854Y639610D01*
X478211Y626966D01*
X477734D01*
Y626152D01*
X477650Y625950D01*
Y619450D01*
X477734Y619248D01*
Y618434D01*
X478366D01*
X478393Y618410D01*
X509484Y607736D01*
Y607534D01*
X510143Y607510D01*
X510328Y607521D01*
X510500Y607450D01*
X519500D01*
X519702Y607534D01*
X520516D01*
Y608348D01*
X520600Y608550D01*
Y615050D01*
X520570Y615121D01*
X520590Y615195D01*
X520516Y616066D01*
X520075D01*
Y616066D01*
X520074D01*
X519292Y616594D01*
X506266Y626557D01*
Y626966D01*
X506182D01*
X504546Y635897D01*
X504816Y636166D01*
X504240Y636742D01*
X504156Y636944D01*
X496944Y644156D01*
X496742Y644240D01*
X496166Y644816D01*
D02*
G37*
G36*
X50996Y612966D02*
X49004D01*
X47080Y612450D01*
X45354Y611454D01*
X43946Y610046D01*
X42950Y608320D01*
X42434Y606396D01*
Y604404D01*
X42950Y602480D01*
X43946Y600754D01*
X45354Y599346D01*
X47080Y598350D01*
X49004Y597834D01*
X50996D01*
X52920Y598350D01*
X54646Y599346D01*
X56054Y600754D01*
X57050Y602480D01*
X57566Y604404D01*
Y606396D01*
X57050Y608320D01*
X56054Y610046D01*
X54646Y611454D01*
X52920Y612450D01*
X50996Y612966D01*
D02*
G37*
G36*
X839170Y613890D02*
X836830D01*
X834569Y613284D01*
X832541Y612114D01*
X830886Y610458D01*
X829716Y608431D01*
X829110Y606170D01*
Y603830D01*
X829716Y601568D01*
X830886Y599541D01*
X832541Y597886D01*
X834569Y596716D01*
X836830Y596110D01*
X839170D01*
X841431Y596716D01*
X843459Y597886D01*
X845114Y599541D01*
X846284Y601568D01*
X846890Y603830D01*
Y606170D01*
X846284Y608431D01*
X845114Y610458D01*
X843459Y612114D01*
X841431Y613284D01*
X839170Y613890D01*
D02*
G37*
G36*
X471250Y601650D02*
X430719D01*
X430517Y601566D01*
X429484D01*
Y593034D01*
X429619D01*
Y574535D01*
X429703Y574332D01*
Y573469D01*
X430638D01*
X430719Y573435D01*
X445281D01*
X445362Y573469D01*
X446297D01*
Y573923D01*
X471029Y592509D01*
X471812Y593034D01*
X471812D01*
Y593034D01*
X472266D01*
X472339Y593895D01*
X472318Y593975D01*
X472350Y594050D01*
Y600550D01*
X472266Y600752D01*
Y601566D01*
X471452D01*
X471250Y601650D01*
D02*
G37*
G36*
X519281Y601650D02*
X478750D01*
X478548Y601566D01*
X477734D01*
Y600752D01*
X477650Y600550D01*
Y594050D01*
X477682Y593975D01*
X477661Y593895D01*
X477734Y593034D01*
X478188D01*
Y593034D01*
X478188D01*
X478971Y592509D01*
X503703Y573923D01*
Y573469D01*
X504638D01*
X504719Y573435D01*
X519281D01*
X519362Y573469D01*
X520297D01*
Y574332D01*
X520381Y574535D01*
Y593034D01*
X520516D01*
Y601566D01*
X519483D01*
X519281Y601650D01*
D02*
G37*
G36*
X57566Y587566D02*
X42434D01*
Y572434D01*
X57566D01*
Y587566D01*
D02*
G37*
G36*
X446297Y571531D02*
X438508D01*
Y564750D01*
X446297D01*
Y571531D01*
D02*
G37*
G36*
X437492D02*
X429703D01*
Y564750D01*
X437492D01*
Y571531D01*
D02*
G37*
G36*
X520297Y571531D02*
X512508D01*
Y564750D01*
X520297D01*
Y571531D01*
D02*
G37*
G36*
X511492D02*
X503703D01*
Y564750D01*
X511492D01*
Y571531D01*
D02*
G37*
G36*
X473516Y571295D02*
X467007D01*
Y563787D01*
X473516D01*
Y571295D01*
D02*
G37*
G36*
X465991D02*
X459484D01*
Y563787D01*
X465991D01*
Y571295D01*
D02*
G37*
G36*
X520297Y563734D02*
X512508D01*
Y556953D01*
X520297D01*
Y563734D01*
D02*
G37*
G36*
X511492D02*
X503703D01*
Y556953D01*
X511492D01*
Y563734D01*
D02*
G37*
G36*
X446297Y563734D02*
X438508D01*
Y556953D01*
X446297D01*
Y563734D01*
D02*
G37*
G36*
X437492D02*
X429703D01*
Y556953D01*
X437492D01*
Y563734D01*
D02*
G37*
G36*
X465991Y562771D02*
X459484D01*
Y555263D01*
X465991D01*
Y562771D01*
D02*
G37*
G36*
X484008Y549295D02*
Y541787D01*
X490516D01*
Y549295D01*
X484008D01*
D02*
G37*
G36*
X562328Y542402D02*
X558787Y538861D01*
X562858Y534790D01*
X566399Y538331D01*
X562328Y542402D01*
D02*
G37*
G36*
X490516Y540771D02*
X484008D01*
Y533263D01*
X490516D01*
Y540771D01*
D02*
G37*
G36*
X383960Y539044D02*
X379888Y534972D01*
X383429Y531431D01*
X387501Y535503D01*
X383960Y539044D01*
D02*
G37*
G36*
X558068Y538143D02*
X554527Y534602D01*
X558599Y530530D01*
X562140Y534071D01*
X558068Y538143D01*
D02*
G37*
G36*
X567118Y537612D02*
X563577Y534071D01*
X567648Y530000D01*
X571189Y533541D01*
X567118Y537612D01*
D02*
G37*
G36*
X388219Y534785D02*
X384147Y530713D01*
X387689Y527171D01*
X391761Y531243D01*
X388219Y534785D01*
D02*
G37*
G36*
X379170Y534253D02*
X375098Y530182D01*
X378639Y526641D01*
X382710Y530713D01*
X379170Y534253D01*
D02*
G37*
G36*
X562858Y533353D02*
X559317Y529811D01*
X563388Y525740D01*
X566930Y529281D01*
X562858Y533353D01*
D02*
G37*
G36*
X383429Y529994D02*
X379358Y525923D01*
X382899Y522381D01*
X386971Y526453D01*
X383429Y529994D01*
D02*
G37*
G36*
X576470Y528260D02*
X572928Y524718D01*
X577000Y520647D01*
X580541Y524188D01*
X576470Y528260D01*
D02*
G37*
G36*
X369818Y524902D02*
X365746Y520830D01*
X369288Y517288D01*
X373359Y521360D01*
X369818Y524902D01*
D02*
G37*
G36*
X572210Y524000D02*
X568669Y520459D01*
X572741Y516388D01*
X576281Y519928D01*
X572210Y524000D01*
D02*
G37*
G36*
X581260Y523470D02*
X577718Y519928D01*
X581789Y515857D01*
X585331Y519399D01*
X581260Y523470D01*
D02*
G37*
G36*
X374078Y520642D02*
X370006Y516570D01*
X373547Y513029D01*
X377619Y517101D01*
X374078Y520642D01*
D02*
G37*
G36*
X365028Y520111D02*
X360956Y516040D01*
X364498Y512499D01*
X368569Y516570D01*
X365028Y520111D01*
D02*
G37*
G36*
X577000Y519210D02*
X573459Y515669D01*
X577531Y511598D01*
X581071Y515138D01*
X577000Y519210D01*
D02*
G37*
G36*
X491151Y514231D02*
Y510361D01*
X495236D01*
Y514231D01*
X491151D01*
D02*
G37*
G36*
X455564D02*
X451479D01*
Y510361D01*
X455564D01*
Y514231D01*
D02*
G37*
G36*
X369288Y515851D02*
X365216Y511780D01*
X368757Y508239D01*
X372828Y512310D01*
X369288Y515851D01*
D02*
G37*
G36*
X495236Y509345D02*
X491151D01*
Y505474D01*
X495236D01*
Y509345D01*
D02*
G37*
G36*
X455564Y509345D02*
X451479D01*
Y505474D01*
X455564D01*
Y509345D01*
D02*
G37*
G36*
X761055Y510716D02*
X758945D01*
X756906Y510170D01*
X755078Y509114D01*
X753586Y507622D01*
X752530Y505794D01*
X751984Y503755D01*
Y501645D01*
X752530Y499606D01*
X753586Y497778D01*
X755078Y496286D01*
X756906Y495230D01*
X758945Y494684D01*
X761055D01*
X763094Y495230D01*
X764922Y496286D01*
X766414Y497778D01*
X767470Y499606D01*
X768016Y501645D01*
Y503755D01*
X767470Y505794D01*
X766414Y507622D01*
X764922Y509114D01*
X763094Y510170D01*
X761055Y510716D01*
D02*
G37*
G36*
X768016Y485316D02*
X751984D01*
Y469284D01*
X768016D01*
Y485316D01*
D02*
G37*
G36*
X839170Y483890D02*
X836830D01*
X834569Y483284D01*
X832541Y482114D01*
X830886Y480458D01*
X829716Y478431D01*
X829110Y476170D01*
Y473830D01*
X829716Y471568D01*
X830886Y469541D01*
X832541Y467886D01*
X834569Y466716D01*
X836830Y466110D01*
X839170D01*
X841431Y466716D01*
X843459Y467886D01*
X845114Y469541D01*
X846284Y471568D01*
X846890Y473830D01*
Y476170D01*
X846284Y478431D01*
X845114Y480458D01*
X843459Y482114D01*
X841431Y483284D01*
X839170Y483890D01*
D02*
G37*
G36*
X605266Y481016D02*
X594734D01*
Y474612D01*
X570707Y450585D01*
X567277Y454014D01*
X560891Y447627D01*
X568338Y440180D01*
X569717Y441559D01*
X574291Y436986D01*
X572912Y435607D01*
X580359Y428159D01*
X586745Y434546D01*
X579298Y441993D01*
X577919Y440614D01*
X573345Y445187D01*
X574725Y446567D01*
X574335Y446957D01*
X593795Y466417D01*
X594734Y466029D01*
Y458484D01*
X605266D01*
Y461194D01*
X606899D01*
X612087Y456006D01*
X612000Y455796D01*
Y454204D01*
X612609Y452734D01*
X613734Y451609D01*
X615204Y451000D01*
X616796D01*
X618266Y451609D01*
X619391Y452734D01*
X620000Y454204D01*
Y455796D01*
X619391Y457266D01*
X618266Y458391D01*
X616796Y459000D01*
X615204D01*
X614994Y458913D01*
X609203Y464703D01*
X608537Y465149D01*
X607750Y465305D01*
X607750Y465305D01*
X605266D01*
Y468016D01*
X596721D01*
X596333Y468955D01*
X598862Y471484D01*
X605266D01*
Y481016D01*
D02*
G37*
G36*
X600796Y455750D02*
X599204D01*
X597734Y455141D01*
X596609Y454016D01*
X596000Y452546D01*
Y450954D01*
X596609Y449484D01*
X597734Y448359D01*
X599204Y447750D01*
X600796D01*
X602266Y448359D01*
X603391Y449484D01*
X604000Y450954D01*
Y452546D01*
X603391Y454016D01*
X602266Y455141D01*
X600796Y455750D01*
D02*
G37*
G36*
X768016Y440716D02*
X751984D01*
Y424684D01*
X768016D01*
Y440716D01*
D02*
G37*
G36*
X605796Y424000D02*
X604204D01*
X602734Y423391D01*
X601609Y422266D01*
X601000Y420796D01*
Y419204D01*
X601609Y417734D01*
X602734Y416609D01*
X604204Y416000D01*
X605796D01*
X607266Y416609D01*
X608391Y417734D01*
X609000Y419204D01*
Y420796D01*
X608391Y422266D01*
X607266Y423391D01*
X605796Y424000D01*
D02*
G37*
G36*
X295214Y499134D02*
X292867Y498667D01*
X290877Y497337D01*
X289547Y495347D01*
X289081Y493000D01*
Y413000D01*
X289547Y410653D01*
X290877Y408663D01*
X292867Y407333D01*
X295214Y406866D01*
X297562Y407333D01*
X299552Y408663D01*
X300881Y410653D01*
X301348Y413000D01*
Y493000D01*
X300881Y495347D01*
X299552Y497337D01*
X297562Y498667D01*
X295214Y499134D01*
D02*
G37*
G36*
X761055Y415316D02*
X758945D01*
X756906Y414770D01*
X755078Y413714D01*
X753586Y412222D01*
X752530Y410394D01*
X751984Y408355D01*
Y406245D01*
X752530Y404206D01*
X753586Y402378D01*
X755078Y400886D01*
X756906Y399830D01*
X758945Y399284D01*
X761055D01*
X763094Y399830D01*
X764922Y400886D01*
X766414Y402378D01*
X767470Y404206D01*
X768016Y406245D01*
Y408355D01*
X767470Y410394D01*
X766414Y412222D01*
X764922Y413714D01*
X763094Y414770D01*
X761055Y415316D01*
D02*
G37*
G36*
X777940Y309429D02*
X776349D01*
X774879Y308820D01*
X773754Y307695D01*
X773145Y306225D01*
Y304633D01*
X773754Y303163D01*
X774879Y302038D01*
X776349Y301429D01*
X777940D01*
X779410Y302038D01*
X780536Y303163D01*
X781145Y304633D01*
Y306225D01*
X780536Y307695D01*
X779410Y308820D01*
X777940Y309429D01*
D02*
G37*
G36*
X770869Y302358D02*
X769278D01*
X767808Y301749D01*
X766683Y300624D01*
X766074Y299153D01*
Y297562D01*
X766683Y296092D01*
X767808Y294967D01*
X769278Y294358D01*
X770869D01*
X772339Y294967D01*
X773465Y296092D01*
X774074Y297562D01*
Y299153D01*
X773465Y300624D01*
X772339Y301749D01*
X770869Y302358D01*
D02*
G37*
G36*
X763798Y295287D02*
X762207D01*
X760737Y294678D01*
X759612Y293553D01*
X759003Y292082D01*
Y290491D01*
X759612Y289021D01*
X760737Y287896D01*
X762207Y287287D01*
X763798D01*
X765268Y287896D01*
X766394Y289021D01*
X767002Y290491D01*
Y292082D01*
X766394Y293553D01*
X765268Y294678D01*
X763798Y295287D01*
D02*
G37*
G36*
X783244Y261699D02*
X781652D01*
X780182Y261090D01*
X779057Y259965D01*
X778448Y258495D01*
Y256904D01*
X779057Y255433D01*
X780182Y254308D01*
X781652Y253699D01*
X783244D01*
X784714Y254308D01*
X785839Y255433D01*
X786448Y256904D01*
Y258495D01*
X785839Y259965D01*
X784714Y261090D01*
X783244Y261699D01*
D02*
G37*
G36*
X889796Y184000D02*
X888204D01*
X886734Y183391D01*
X885609Y182266D01*
X885000Y180796D01*
Y179204D01*
X885609Y177734D01*
X886734Y176609D01*
X888204Y176000D01*
X889796D01*
X891266Y176609D01*
X892391Y177734D01*
X893000Y179204D01*
Y180796D01*
X892391Y182266D01*
X891266Y183391D01*
X889796Y184000D01*
D02*
G37*
G36*
X790796D02*
X789204D01*
X787734Y183391D01*
X786609Y182266D01*
X786000Y180796D01*
Y179204D01*
X786609Y177734D01*
X787734Y176609D01*
X789204Y176000D01*
X790796D01*
X792266Y176609D01*
X793391Y177734D01*
X794000Y179204D01*
Y180796D01*
X793391Y182266D01*
X792266Y183391D01*
X790796Y184000D01*
D02*
G37*
G36*
X257867Y171929D02*
X256275D01*
X254805Y171320D01*
X253680Y170195D01*
X253071Y168725D01*
Y167133D01*
X253680Y165663D01*
X254805Y164538D01*
X256275Y163929D01*
X257867D01*
X259337Y164538D01*
X260462Y165663D01*
X261071Y167133D01*
Y168725D01*
X260462Y170195D01*
X259337Y171320D01*
X257867Y171929D01*
D02*
G37*
G36*
X790796Y169000D02*
X789204D01*
X787734Y168391D01*
X786609Y167266D01*
X786000Y165796D01*
Y164204D01*
X786609Y162734D01*
X787734Y161609D01*
X789204Y161000D01*
X790796D01*
X792266Y161609D01*
X793391Y162734D01*
X794000Y164204D01*
Y165796D01*
X793391Y167266D01*
X792266Y168391D01*
X790796Y169000D01*
D02*
G37*
G36*
X264938Y164858D02*
X263347D01*
X261876Y164249D01*
X260751Y163124D01*
X260142Y161653D01*
Y160062D01*
X260751Y158592D01*
X261876Y157467D01*
X263347Y156858D01*
X264938D01*
X266408Y157467D01*
X267533Y158592D01*
X268142Y160062D01*
Y161653D01*
X267533Y163124D01*
X266408Y164249D01*
X264938Y164858D01*
D02*
G37*
G36*
X70796Y159000D02*
X69204D01*
X67734Y158391D01*
X66609Y157266D01*
X66000Y155796D01*
Y154204D01*
X66609Y152734D01*
X67734Y151609D01*
X69204Y151000D01*
X70796D01*
X72266Y151609D01*
X73391Y152734D01*
X74000Y154204D01*
Y155796D01*
X73391Y157266D01*
X72266Y158391D01*
X70796Y159000D01*
D02*
G37*
G36*
X880796Y159000D02*
X879204D01*
X877734Y158391D01*
X876609Y157266D01*
X876000Y155796D01*
Y154204D01*
X876609Y152734D01*
X877734Y151609D01*
X879204Y151000D01*
X880796D01*
X882266Y151609D01*
X883391Y152734D01*
X884000Y154204D01*
Y155796D01*
X883391Y157266D01*
X882266Y158391D01*
X880796Y159000D01*
D02*
G37*
G36*
X272009Y157787D02*
X270417D01*
X268947Y157178D01*
X267822Y156053D01*
X267213Y154582D01*
Y152991D01*
X267822Y151521D01*
X268947Y150396D01*
X270417Y149787D01*
X272009D01*
X273479Y150396D01*
X274604Y151521D01*
X275213Y152991D01*
Y154582D01*
X274604Y156053D01*
X273479Y157178D01*
X272009Y157787D01*
D02*
G37*
G36*
X790796Y154000D02*
X789204D01*
X787734Y153391D01*
X786609Y152266D01*
X786000Y150796D01*
Y149204D01*
X786609Y147734D01*
X787734Y146609D01*
X789204Y146000D01*
X790796D01*
X792266Y146609D01*
X793391Y147734D01*
X794000Y149204D01*
Y150796D01*
X793391Y152266D01*
X792266Y153391D01*
X790796Y154000D01*
D02*
G37*
G36*
X279080Y150716D02*
X277489D01*
X276018Y150107D01*
X274893Y148982D01*
X274284Y147511D01*
Y145920D01*
X274893Y144450D01*
X276018Y143325D01*
X277489Y142716D01*
X279080D01*
X280550Y143325D01*
X281675Y144450D01*
X282284Y145920D01*
Y147511D01*
X281675Y148982D01*
X280550Y150107D01*
X279080Y150716D01*
D02*
G37*
G36*
X790796Y139000D02*
X789204D01*
X787734Y138391D01*
X786609Y137266D01*
X786000Y135796D01*
Y134204D01*
X786609Y132734D01*
X787734Y131609D01*
X789204Y131000D01*
X790796D01*
X792266Y131609D01*
X793391Y132734D01*
X794000Y134204D01*
Y135796D01*
X793391Y137266D01*
X792266Y138391D01*
X790796Y139000D01*
D02*
G37*
G36*
X160796Y124000D02*
X159204D01*
X157734Y123391D01*
X156609Y122266D01*
X156000Y120796D01*
Y119204D01*
X156609Y117734D01*
X157734Y116609D01*
X159204Y116000D01*
X160796D01*
X162266Y116609D01*
X163391Y117734D01*
X164000Y119204D01*
Y120796D01*
X163391Y122266D01*
X162266Y123391D01*
X160796Y124000D01*
D02*
G37*
G36*
X880796Y109000D02*
X879204D01*
X877734Y108391D01*
X876609Y107266D01*
X876000Y105796D01*
Y104204D01*
X876609Y102734D01*
X877734Y101609D01*
X879204Y101000D01*
X880796D01*
X882266Y101609D01*
X883391Y102734D01*
X884000Y104204D01*
Y105796D01*
X883391Y107266D01*
X882266Y108391D01*
X880796Y109000D01*
D02*
G37*
G36*
X160796D02*
X159204D01*
X157734Y108391D01*
X156609Y107266D01*
X156000Y105796D01*
Y104204D01*
X156609Y102734D01*
X157734Y101609D01*
X159204Y101000D01*
X160796D01*
X162266Y101609D01*
X163391Y102734D01*
X164000Y104204D01*
Y105796D01*
X163391Y107266D01*
X162266Y108391D01*
X160796Y109000D01*
D02*
G37*
G36*
X70796D02*
X69204D01*
X67734Y108391D01*
X66609Y107266D01*
X66000Y105796D01*
Y104204D01*
X66609Y102734D01*
X67734Y101609D01*
X69204Y101000D01*
X70796D01*
X72266Y101609D01*
X73391Y102734D01*
X74000Y104204D01*
Y105796D01*
X73391Y107266D01*
X72266Y108391D01*
X70796Y109000D01*
D02*
G37*
G36*
X160796Y94000D02*
X159204D01*
X157734Y93391D01*
X156609Y92266D01*
X156000Y90796D01*
Y89204D01*
X156609Y87734D01*
X157734Y86609D01*
X159204Y86000D01*
X160796D01*
X162266Y86609D01*
X163391Y87734D01*
X164000Y89204D01*
Y90796D01*
X163391Y92266D01*
X162266Y93391D01*
X160796Y94000D01*
D02*
G37*
G36*
Y79000D02*
X159204D01*
X157734Y78391D01*
X156609Y77266D01*
X156000Y75796D01*
Y74204D01*
X156609Y72734D01*
X157734Y71609D01*
X159204Y71000D01*
X160796D01*
X162266Y71609D01*
X163391Y72734D01*
X164000Y74204D01*
Y75796D01*
X163391Y77266D01*
X162266Y78391D01*
X160796Y79000D01*
D02*
G37*
%LPD*%
G36*
X475726Y470995D02*
X476060Y470772D01*
X476945Y470596D01*
X477477Y470702D01*
X477585Y470647D01*
X478220Y470012D01*
X478276Y469904D01*
X478170Y469371D01*
X478345Y468487D01*
X478846Y467737D01*
X479596Y467236D01*
X480480Y467061D01*
X481013Y467167D01*
X481121Y467111D01*
X481756Y466476D01*
X481811Y466368D01*
X481705Y465835D01*
X481881Y464951D01*
X482382Y464202D01*
X483131Y463701D01*
X483957Y463537D01*
X484027Y463512D01*
X484817Y462648D01*
X484747Y462300D01*
X484961Y461227D01*
X485569Y460317D01*
X486478Y459709D01*
X487398Y459526D01*
X487767Y459300D01*
X488087Y458980D01*
X488313Y458612D01*
X488496Y457691D01*
X489104Y456782D01*
X490014Y456174D01*
X491087Y455961D01*
X491435Y456030D01*
X492299Y455241D01*
X492323Y455171D01*
X492488Y454345D01*
X492989Y453595D01*
X493738Y453094D01*
X494622Y452918D01*
X495155Y453024D01*
X495263Y452969D01*
X495898Y452334D01*
X495953Y452226D01*
X495847Y451693D01*
X496023Y450809D01*
X496524Y450060D01*
X497274Y449559D01*
X498100Y449394D01*
X498170Y449370D01*
X498959Y448506D01*
X498889Y448158D01*
X499103Y447085D01*
X499711Y446175D01*
X500620Y445567D01*
X501541Y445384D01*
X501909Y445158D01*
X502229Y444838D01*
X502455Y444469D01*
X502638Y443549D01*
X503246Y442640D01*
X504156Y442032D01*
X505229Y441818D01*
X505577Y441888D01*
X506441Y441098D01*
X506465Y441028D01*
X506630Y440202D01*
X507131Y439453D01*
X507880Y438952D01*
X508764Y438776D01*
X509297Y438882D01*
X509405Y438827D01*
X510040Y438192D01*
X510095Y438084D01*
X509990Y437551D01*
X510165Y436667D01*
X510666Y435917D01*
X511416Y435417D01*
X512300Y435241D01*
X512833Y435347D01*
X512941Y435291D01*
X513575Y434656D01*
X513631Y434548D01*
X513525Y434016D01*
X513701Y433131D01*
X514202Y432382D01*
X514951Y431881D01*
X515835Y431705D01*
X516368Y431811D01*
X516476Y431756D01*
X517111Y431121D01*
X517166Y431013D01*
X517061Y430480D01*
X517236Y429596D01*
X517737Y428846D01*
X518487Y428345D01*
X519371Y428170D01*
X519904Y428276D01*
X520012Y428220D01*
X520646Y427585D01*
X520702Y427477D01*
X520596Y426945D01*
X520772Y426060D01*
X520995Y425726D01*
X521190Y425000D01*
X520995Y424274D01*
X520772Y423940D01*
X520596Y423055D01*
X520702Y422523D01*
X520646Y422415D01*
X520012Y421780D01*
X519904Y421724D01*
X519371Y421830D01*
X518487Y421655D01*
X517737Y421154D01*
X517236Y420404D01*
X517072Y419578D01*
X517048Y419508D01*
X516184Y418719D01*
X515835Y418788D01*
X514762Y418575D01*
X513853Y417967D01*
X513245Y417057D01*
X513062Y416137D01*
X512836Y415769D01*
X512515Y415448D01*
X512147Y415222D01*
X511227Y415039D01*
X510317Y414431D01*
X509709Y413522D01*
X509526Y412602D01*
X509300Y412233D01*
X508980Y411913D01*
X508612Y411687D01*
X507691Y411504D01*
X506782Y410896D01*
X506174Y409986D01*
X505991Y409066D01*
X505765Y408698D01*
X505444Y408377D01*
X505076Y408151D01*
X504156Y407968D01*
X503246Y407360D01*
X502638Y406451D01*
X502455Y405531D01*
X502229Y405162D01*
X501909Y404842D01*
X501541Y404616D01*
X500620Y404433D01*
X499711Y403825D01*
X499103Y402915D01*
X498920Y401995D01*
X498694Y401627D01*
X498373Y401306D01*
X498005Y401080D01*
X497085Y400897D01*
X496175Y400289D01*
X495567Y399380D01*
X495384Y398459D01*
X495158Y398091D01*
X494838Y397771D01*
X494469Y397545D01*
X493549Y397362D01*
X492640Y396754D01*
X492032Y395844D01*
X491849Y394924D01*
X491623Y394556D01*
X491302Y394235D01*
X490934Y394009D01*
X490014Y393826D01*
X489104Y393218D01*
X488496Y392309D01*
X488313Y391388D01*
X488087Y391020D01*
X487767Y390700D01*
X487398Y390474D01*
X486478Y390291D01*
X485569Y389683D01*
X484961Y388773D01*
X484778Y387853D01*
X484552Y387485D01*
X484231Y387164D01*
X483863Y386938D01*
X482943Y386755D01*
X482033Y386147D01*
X481425Y385238D01*
X481242Y384317D01*
X481016Y383949D01*
X480695Y383629D01*
X480327Y383402D01*
X479407Y383219D01*
X478497Y382612D01*
X477890Y381702D01*
X477707Y380782D01*
X477481Y380414D01*
X477160Y380093D01*
X476792Y379867D01*
X475872Y379684D01*
X475000Y379102D01*
X474128Y379684D01*
X473208Y379867D01*
X472840Y380093D01*
X472519Y380414D01*
X472293Y380782D01*
X472110Y381702D01*
X471503Y382612D01*
X470593Y383219D01*
X469673Y383402D01*
X469305Y383629D01*
X468984Y383949D01*
X468758Y384317D01*
X468575Y385238D01*
X467967Y386147D01*
X467057Y386755D01*
X466137Y386938D01*
X465769Y387164D01*
X465448Y387485D01*
X465222Y387853D01*
X465039Y388773D01*
X464431Y389683D01*
X463522Y390291D01*
X462602Y390474D01*
X462233Y390700D01*
X461913Y391020D01*
X461687Y391388D01*
X461504Y392309D01*
X460896Y393218D01*
X459986Y393826D01*
X459066Y394009D01*
X458698Y394235D01*
X458377Y394556D01*
X458151Y394924D01*
X457968Y395844D01*
X457360Y396754D01*
X456451Y397362D01*
X455530Y397545D01*
X455162Y397771D01*
X454842Y398091D01*
X454616Y398459D01*
X454433Y399380D01*
X453825Y400289D01*
X452915Y400897D01*
X451995Y401080D01*
X451627Y401306D01*
X451306Y401627D01*
X451080Y401995D01*
X450897Y402915D01*
X450289Y403825D01*
X449380Y404433D01*
X448459Y404616D01*
X448091Y404842D01*
X447771Y405162D01*
X447545Y405531D01*
X447362Y406451D01*
X446754Y407360D01*
X445844Y407968D01*
X444924Y408151D01*
X444556Y408377D01*
X444235Y408698D01*
X444009Y409066D01*
X443826Y409986D01*
X443218Y410896D01*
X442309Y411504D01*
X441388Y411687D01*
X441020Y411913D01*
X440700Y412233D01*
X440474Y412602D01*
X440290Y413522D01*
X439683Y414431D01*
X438773Y415039D01*
X437853Y415222D01*
X437485Y415448D01*
X437164Y415769D01*
X436938Y416137D01*
X436755Y417057D01*
X436147Y417967D01*
X435238Y418575D01*
X434165Y418788D01*
X433816Y418719D01*
X432952Y419508D01*
X432928Y419578D01*
X432763Y420404D01*
X432263Y421154D01*
X431513Y421655D01*
X430629Y421830D01*
X430096Y421724D01*
X429988Y421780D01*
X429353Y422415D01*
X429298Y422523D01*
X429404Y423055D01*
X429228Y423940D01*
X429005Y424274D01*
X428810Y425000D01*
X429005Y425726D01*
X429228Y426060D01*
X429404Y426945D01*
X429298Y427477D01*
X429353Y427585D01*
X429988Y428220D01*
X430096Y428276D01*
X430629Y428170D01*
X431513Y428345D01*
X432263Y428846D01*
X432763Y429596D01*
X432939Y430480D01*
X432833Y431013D01*
X432889Y431121D01*
X433524Y431756D01*
X433632Y431811D01*
X434165Y431705D01*
X435049Y431881D01*
X435798Y432382D01*
X436299Y433131D01*
X436475Y434016D01*
X436369Y434548D01*
X436425Y434656D01*
X437059Y435291D01*
X437167Y435347D01*
X437700Y435241D01*
X438584Y435417D01*
X439334Y435917D01*
X439835Y436667D01*
X439999Y437493D01*
X440023Y437563D01*
X440887Y438352D01*
X441236Y438283D01*
X442309Y438496D01*
X443218Y439104D01*
X443826Y440014D01*
X444009Y440934D01*
X444235Y441302D01*
X444556Y441623D01*
X444924Y441849D01*
X445844Y442032D01*
X446754Y442640D01*
X447362Y443549D01*
X447575Y444622D01*
X447506Y444971D01*
X448295Y445834D01*
X448365Y445859D01*
X449191Y446023D01*
X449940Y446524D01*
X450441Y447274D01*
X450617Y448158D01*
X450511Y448691D01*
X450567Y448799D01*
X451201Y449433D01*
X451309Y449489D01*
X451842Y449383D01*
X452726Y449559D01*
X453476Y450060D01*
X453977Y450809D01*
X454141Y451635D01*
X454165Y451705D01*
X455029Y452494D01*
X455378Y452425D01*
X456451Y452638D01*
X457360Y453246D01*
X457968Y454156D01*
X458151Y455076D01*
X458377Y455444D01*
X458698Y455765D01*
X459066Y455991D01*
X459986Y456174D01*
X460896Y456782D01*
X461504Y457691D01*
X461717Y458764D01*
X461648Y459113D01*
X462437Y459977D01*
X462507Y460001D01*
X463333Y460165D01*
X464082Y460666D01*
X464583Y461416D01*
X464759Y462300D01*
X464653Y462833D01*
X464709Y462941D01*
X465344Y463575D01*
X465452Y463631D01*
X465984Y463525D01*
X466869Y463701D01*
X467618Y464202D01*
X468119Y464951D01*
X468295Y465835D01*
X468189Y466368D01*
X468244Y466476D01*
X468879Y467111D01*
X468987Y467167D01*
X469520Y467061D01*
X470404Y467236D01*
X471154Y467737D01*
X471655Y468487D01*
X471830Y469371D01*
X471724Y469904D01*
X471780Y470012D01*
X472415Y470647D01*
X472523Y470702D01*
X473055Y470596D01*
X473940Y470772D01*
X474274Y470995D01*
X475000Y471190D01*
X475726Y470995D01*
D02*
G37*
%LPC*%
G36*
X475000Y459671D02*
X458024Y442695D01*
X475000Y425719D01*
X491976Y442695D01*
X475000Y459671D01*
D02*
G37*
G36*
X492695Y441976D02*
X475718Y425000D01*
X492695Y408024D01*
X509671Y425000D01*
X492695Y441976D01*
D02*
G37*
G36*
X457305Y441976D02*
X440329Y425000D01*
X457305Y408024D01*
X474282Y425000D01*
X457305Y441976D01*
D02*
G37*
G36*
X475000Y424282D02*
X458024Y407305D01*
X475000Y390329D01*
X491976Y407305D01*
X475000Y424282D01*
D02*
G37*
%LPD*%
G36*
X575379Y676166D02*
X572281Y666500D01*
Y660000D01*
X563281D01*
X531750Y670900D01*
Y677400D01*
X568166Y683379D01*
X575379Y676166D01*
D02*
G37*
G36*
X418250Y677400D02*
Y670900D01*
X386719Y660000D01*
X377719D01*
Y666500D01*
X374621Y676166D01*
X381834Y683379D01*
X418250Y677400D01*
D02*
G37*
G36*
Y645500D02*
X392281Y625985D01*
X377719D01*
Y652000D01*
X418250D01*
Y645500D01*
D02*
G37*
G36*
X572281Y625985D02*
X557719D01*
X531750Y645500D01*
Y652000D01*
X572281D01*
Y625985D01*
D02*
G37*
G36*
X458359Y638853D02*
Y638841D01*
X471250Y625950D01*
Y619450D01*
X439500Y608550D01*
X430500D01*
Y615050D01*
X444750Y625950D01*
X446621Y636166D01*
X453834Y643379D01*
X458359Y638853D01*
D02*
G37*
G36*
X503379Y636166D02*
X505250Y625950D01*
Y625950D01*
X519500Y615050D01*
Y608550D01*
X510500D01*
X478750Y619450D01*
Y619450D01*
Y625950D01*
X491641Y638841D01*
Y638853D01*
X496166Y643379D01*
X503379Y636166D01*
D02*
G37*
G36*
X471250Y594050D02*
X445281Y574535D01*
X430719D01*
Y600550D01*
X471250D01*
Y594050D01*
D02*
G37*
G36*
X519281Y574535D02*
X504719D01*
X478750Y594050D01*
Y600550D01*
X519281D01*
Y574535D01*
D02*
G37*
D11*
X430931Y465534D02*
X445832Y450633D01*
X438938Y465305D02*
X439416Y464827D01*
Y464120D02*
Y464827D01*
Y464120D02*
X449367Y454168D01*
X429038Y466012D02*
X429516Y465534D01*
X430931D01*
X521846Y417045D02*
X528033Y410858D01*
X545711D01*
D13*
X420249Y449751D02*
X425500D01*
X435225Y440026D01*
X420000Y450000D02*
X420249Y449751D01*
X600000Y463250D02*
X607750D01*
X616000Y455000D01*
X554903Y422879D02*
X558792Y426768D01*
X531165Y422828D02*
X553539D01*
X554903Y422879D02*
X554903D01*
X532276Y432778D02*
X545004D01*
X533005Y437728D02*
X540004D01*
X540054Y437778D01*
X533028Y443992D02*
X534292Y442728D01*
X530884Y439849D02*
X533005Y437728D01*
X521804Y439849D02*
X530884D01*
X534292Y442728D02*
X535104D01*
X451482Y473266D02*
Y478166D01*
X450908Y478740D02*
X451482Y478166D01*
X405000Y435000D02*
X419038D01*
X410000Y440000D02*
X421109D01*
X419038Y435000D02*
X424619Y429419D01*
X465858Y486204D02*
Y493589D01*
X455908Y475912D02*
Y483690D01*
X460908Y477983D02*
X467045Y471846D01*
X460908Y477983D02*
Y488589D01*
X460858Y488640D02*
X460908Y488589D01*
X455908Y483690D02*
X455908Y483690D01*
X465808Y486154D02*
X465858Y486204D01*
X465808Y480154D02*
Y486154D01*
Y480154D02*
X470580Y475381D01*
Y475381D02*
Y475381D01*
X415000Y445000D02*
X423180D01*
X431690Y436491D01*
X421109Y440000D02*
X428154Y432955D01*
X549953Y427828D02*
X559146Y437021D01*
Y438435D01*
X558792Y426768D02*
X568692D01*
X569045Y427121D01*
X455908Y475912D02*
X463509Y468310D01*
X451482Y473266D02*
X459974Y464775D01*
X527312Y431024D02*
X530558Y427778D01*
X527312Y418976D02*
X531165Y422828D01*
X525381Y420581D02*
X526986Y418976D01*
Y431024D02*
X527312D01*
X526986Y418976D02*
X527312D01*
X525381Y429419D02*
X526986Y431024D01*
X530558Y427778D02*
X548568D01*
X524770Y435526D02*
X524851Y435607D01*
X524416Y435526D02*
X524770D01*
X521846Y432955D02*
X524416Y435526D01*
X521682Y443992D02*
X533028D01*
X524851Y435607D02*
X529447D01*
X532276Y432778D01*
X514775Y440026D02*
X517345Y442597D01*
X518310Y436491D02*
X518446D01*
X520286Y442597D02*
X521682Y443992D01*
X517345Y442597D02*
X520286D01*
X518446Y436491D02*
X521804Y439849D01*
D15*
X395097Y415808D02*
X397925Y412979D01*
X424088D01*
X513420Y476148D02*
X513891Y476619D01*
X513420Y474027D02*
Y476148D01*
X497097Y457704D02*
X513420Y474027D01*
X552672Y452729D02*
X553337D01*
X549692Y449749D02*
X552672Y452729D01*
X424088Y412979D02*
X428154Y417045D01*
X421967Y417929D02*
X424619Y420581D01*
X404289Y425000D02*
X411360Y417929D01*
X421967D01*
X517426Y449749D02*
X549692D01*
X511299Y464834D02*
X512006D01*
X512477Y465305D01*
X500633Y454168D02*
X511299Y464834D01*
X511239Y443562D02*
X517426Y449749D01*
D23*
X439493Y255143D02*
D03*
X432725Y248375D02*
D03*
X453635Y241001D02*
D03*
X446867Y234233D02*
D03*
X425351Y269285D02*
D03*
X418583Y262517D02*
D03*
X411209Y283427D02*
D03*
X404441Y276659D02*
D03*
X560004Y474649D02*
D03*
X566772Y481417D02*
D03*
X326204Y368128D02*
D03*
X319436Y361360D02*
D03*
X340347Y353986D02*
D03*
X333579Y347218D02*
D03*
X297920Y396413D02*
D03*
X291152Y389645D02*
D03*
X545862Y488791D02*
D03*
X552630Y495559D02*
D03*
X531720Y502933D02*
D03*
X538488Y509701D02*
D03*
X517578Y517076D02*
D03*
X524346Y523843D02*
D03*
X368782Y325853D02*
D03*
X362015Y319086D02*
D03*
X354640Y339996D02*
D03*
X347872Y333228D02*
D03*
X397067Y297569D02*
D03*
X390299Y290801D02*
D03*
X382924Y311711D02*
D03*
X376157Y304943D02*
D03*
X312062Y382270D02*
D03*
X305294Y375503D02*
D03*
D24*
X538999Y283424D02*
D03*
X545767Y276656D02*
D03*
X496365Y241001D02*
D03*
X503133Y234233D02*
D03*
X552933Y297569D02*
D03*
X559701Y290801D02*
D03*
X510507Y255143D02*
D03*
X517275Y248375D02*
D03*
X524857Y269281D02*
D03*
X531625Y262514D02*
D03*
X567076Y311711D02*
D03*
X573843Y304943D02*
D03*
X581218Y325854D02*
D03*
X587985Y319086D02*
D03*
X595360Y339996D02*
D03*
X602128Y333228D02*
D03*
X609502Y354138D02*
D03*
X616270Y347370D02*
D03*
X623644Y368280D02*
D03*
X630412Y361512D02*
D03*
X651928Y396564D02*
D03*
X658696Y389796D02*
D03*
X637786Y382422D02*
D03*
X644554Y375654D02*
D03*
X386460Y471114D02*
D03*
X379692Y477881D02*
D03*
X428886Y513540D02*
D03*
X422119Y520308D02*
D03*
X400602Y485256D02*
D03*
X393834Y492024D02*
D03*
X414744Y499398D02*
D03*
X407976Y506166D02*
D03*
D27*
X567808Y447097D02*
D03*
X558969Y438258D02*
D03*
X579829Y435076D02*
D03*
X570990Y426237D02*
D03*
D40*
X490644Y509853D02*
D03*
X481072D02*
D03*
X456072D02*
D03*
X465644D02*
D03*
D58*
X50000Y783200D02*
D03*
Y757800D02*
D03*
Y732400D02*
D03*
Y707000D02*
D03*
Y681600D02*
D03*
Y656200D02*
D03*
Y630800D02*
D03*
Y605400D02*
D03*
D59*
Y580000D02*
D03*
D60*
X890000Y640000D02*
D03*
X838000Y605000D02*
D03*
Y735000D02*
D03*
X890000Y770000D02*
D03*
X838000Y475000D02*
D03*
X890000Y510000D02*
D03*
D65*
X568685Y348245D02*
G03*
X569127Y354149I-3209J3209D01*
G01*
X577459Y345817D02*
G03*
X571555Y345375I-2695J-3651D01*
G01*
X566542Y352536D02*
G03*
X566546Y352533I1075J1059D01*
G01*
X566550Y350380D02*
G03*
X566546Y352533I-1074J1074D01*
G01*
X566006Y349835D02*
G03*
X565998Y345558I2127J-2143D01*
G01*
X568868Y342687D02*
G03*
X573137Y342687I2135J2135D01*
G01*
X575843Y343236D02*
G03*
X573690Y343240I-1079J-1069D01*
G01*
X575843Y343236D02*
G03*
X575846Y343232I1063J1072D01*
G01*
X539786Y320546D02*
G03*
X540228Y326450I-3209J3209D01*
G01*
X548560Y318118D02*
G03*
X542656Y317676I-2695J-3651D01*
G01*
X537643Y324837D02*
G03*
X537647Y324834I1075J1059D01*
G01*
X537651Y322681D02*
G03*
X537647Y324834I-1074J1074D01*
G01*
X537113Y322142D02*
G03*
X537105Y317865I2127J-2143D01*
G01*
X539975Y314995D02*
G03*
X544244Y314995I2135J2135D01*
G01*
X546944Y315537D02*
G03*
X544791Y315541I-1079J-1069D01*
G01*
X546944Y315537D02*
G03*
X546947Y315534I1063J1072D01*
G01*
X407626Y326554D02*
G03*
X414044Y326554I3209J3209D01*
G01*
X404756Y317266D02*
G03*
X405199Y323170I-3209J3209D01*
G01*
X409761Y328689D02*
G03*
X411909Y328689I1074J1074D01*
G01*
X408960Y329491D02*
G03*
X404690Y329491I-2135J-2135D01*
G01*
X401820Y326620D02*
G03*
X401820Y322351I2135J-2135D01*
G01*
X402614Y321557D02*
G03*
X402617Y321554I1075J1059D01*
G01*
X402622Y319401D02*
G03*
X402617Y321554I-1074J1074D01*
G01*
X378644Y354141D02*
G03*
X385062Y354141I3209J3209D01*
G01*
X375774Y344853D02*
G03*
X376216Y350757I-3209J3209D01*
G01*
X380779Y356275D02*
G03*
X382927Y356275I1074J1074D01*
G01*
X379977Y357077D02*
G03*
X375708Y357077I-2135J-2135D01*
G01*
X372838Y354207D02*
G03*
X372838Y349937I2135J-2135D01*
G01*
X373632Y349144D02*
G03*
X373635Y349140I1075J1059D01*
G01*
X373640Y346987D02*
G03*
X373635Y349140I-1074J1074D01*
G01*
X193638Y320806D02*
G03*
X192119Y319287I0J-1519D01*
G01*
X189100Y316268D02*
G03*
X192119Y319287I0J3019D01*
G01*
X182022D02*
G03*
X185041Y316268I3019J0D01*
G01*
X174944Y313806D02*
G03*
X177963Y316825I0J3019D01*
G01*
X167866D02*
G03*
X170885Y313806I3019J0D01*
G01*
X159269Y320806D02*
G03*
X163807Y325344I0J4538D01*
G01*
X193638Y323825D02*
G03*
X189100Y319287I0J-4538D01*
G01*
X185041Y326765D02*
G03*
X182022Y329784I-3019J0D01*
G01*
X177963D02*
G03*
X174944Y326765I0J-3019D01*
G01*
X170885Y327807D02*
G03*
X167866Y330826I-3019J0D01*
G01*
X163807D02*
G03*
X160788Y327807I0J-3019D01*
G01*
X159269Y323825D02*
G03*
X160788Y325344I0J1519D01*
G01*
X583484Y222661D02*
G03*
X583488Y222658I1063J1072D01*
G01*
X583484Y222661D02*
G03*
X581332Y222666I-1079J-1069D01*
G01*
X576953Y222557D02*
G03*
X581223Y222557I2135J2135D01*
G01*
X574083Y229697D02*
G03*
X574083Y225427I2135J-2135D01*
G01*
X580208Y235837D02*
G03*
X580216Y235830I1075J1059D01*
G01*
X577346Y238700D02*
G03*
X577354Y238692I1067J1067D01*
G01*
X565312Y230935D02*
G03*
X569581Y230935I2135J2135D01*
G01*
X562441Y238074D02*
G03*
X562441Y233805I2135J-2135D01*
G01*
X562447Y238080D02*
G03*
X562441Y238074I1061J-1073D01*
G01*
X570198Y245847D02*
G03*
X570206Y245839I1075J1059D01*
G01*
X567336Y248709D02*
G03*
X567344Y248702I1067J1067D01*
G01*
X559177Y246968D02*
G03*
X565595Y246968I3209J3209D01*
G01*
X585101Y225243D02*
G03*
X579197Y224801I-2695J-3651D01*
G01*
X582351Y233695D02*
G03*
X582793Y237402I-2135J2135D01*
G01*
X582354Y237961D02*
G03*
X582351Y237964I-2138J-2132D01*
G01*
X579481Y240834D02*
G03*
X579477Y240838I-2135J-2135D01*
G01*
X578919Y241277D02*
G03*
X575211Y240834I-1573J-2577D01*
G01*
D02*
G03*
X575205Y240828I1067J-1067D01*
G01*
X572341Y243705D02*
G03*
X572783Y247412I-2135J2135D01*
G01*
X572344Y247971D02*
G03*
X572341Y247974I-2138J-2132D01*
G01*
X569471Y250844D02*
G03*
X569468Y250847I-2135J-2135D01*
G01*
X568909Y251286D02*
G03*
X565201Y250844I-1573J-2577D01*
G01*
D02*
G03*
X565195Y250838I1067J-1067D01*
G01*
X561312Y249103D02*
G03*
X563460Y249103I1074J1074D01*
G01*
X439981Y300231D02*
Y363831D01*
X443000Y298981D02*
Y362581D01*
X527419Y398731D02*
X633519D01*
X528669Y401750D02*
X634770D01*
X595000Y380981D02*
X613051Y362929D01*
X596250Y384000D02*
X615186Y365064D01*
X563674Y359674D02*
X569127Y354221D01*
Y354149D02*
Y354221D01*
X568685Y348245D02*
X568685D01*
X568132Y347692D02*
X568685Y348245D01*
X568132Y347692D02*
X571002Y344822D01*
X571555Y345375D01*
X577459Y345817D02*
X577531D01*
X579577Y343771D01*
X561539Y357539D02*
X566542Y352536D01*
X566006Y349835D02*
X566550Y350380D01*
X565998Y345558D02*
X568868Y342687D01*
X573137D02*
X573690Y343240D01*
X575846Y343232D02*
X577443Y341636D01*
X558329Y365019D02*
X563674Y359674D01*
X579577Y343771D02*
X586735Y336613D01*
X557078Y362000D02*
X561539Y357539D01*
X577443Y341636D02*
X584600Y334478D01*
X504696Y393169D02*
X535865Y362000D01*
X537116Y365019D02*
X558329D01*
X535865Y362000D02*
X557078D01*
X506831Y395304D02*
X537116Y365019D01*
X531375Y335375D02*
X540228Y326522D01*
Y326450D02*
Y326522D01*
X539786Y320546D02*
X539786D01*
X539239Y320000D02*
X539786Y320546D01*
X539239Y320000D02*
X542109Y317130D01*
X542656Y317676D01*
X548560Y318118D02*
X548632D01*
X550678Y316072D01*
X529240Y333240D02*
X537643Y324837D01*
X537113Y322142D02*
X537651Y322681D01*
X537105Y317865D02*
X539975Y314995D01*
X544244D02*
X544791Y315541D01*
X546947Y315534D02*
X548544Y313937D01*
X529769Y336981D02*
X531375Y335375D01*
X550678Y316072D02*
X554887Y311863D01*
X526750Y335731D02*
X529240Y333240D01*
X548544Y313937D02*
X553637Y308844D01*
X512269Y298231D02*
Y361581D01*
X509250Y296980D02*
Y360331D01*
X494385Y259365D02*
Y365324D01*
X491366Y258115D02*
Y364073D01*
X464019Y263019D02*
Y369458D01*
X461000Y264270D02*
Y370708D01*
X430929Y286910D02*
X443000Y298981D01*
X430929Y286871D02*
Y286910D01*
X421968Y277910D02*
X430929Y286871D01*
X427910Y288160D02*
X439981Y300231D01*
X427910Y288121D02*
Y288160D01*
X419834Y280045D02*
X427910Y288121D01*
X414044Y326554D02*
X420245Y332755D01*
X406825Y327356D02*
X407626Y326554D01*
X403955Y324486D02*
X406825Y327356D01*
X403955Y324486D02*
X405199Y323242D01*
Y323170D02*
Y323242D01*
X403152Y315662D02*
X404756Y317266D01*
X411909Y328689D02*
X418110Y334890D01*
X408960Y329491D02*
X409761Y328689D01*
X408960Y329491D02*
X408960Y329491D01*
X401820Y326620D02*
X404690Y329491D01*
X401820Y322351D02*
X402614Y321557D01*
X401017Y317796D02*
X402622Y319401D01*
X420245Y332755D02*
X423019Y335529D01*
X393684Y306194D02*
X403152Y315662D01*
X418110Y334890D02*
X420000Y336779D01*
X391549Y308329D02*
X401017Y317796D01*
X423019Y356742D02*
X435996Y369720D01*
X423019Y335529D02*
Y356742D01*
X420000Y336779D02*
Y357993D01*
X434746Y372738D01*
X385062Y354141D02*
X392961Y362039D01*
X377843Y354942D02*
X378644Y354141D01*
X374973Y352072D02*
X377843Y354942D01*
X374973Y352072D02*
X376216Y350828D01*
Y350757D02*
Y350828D01*
X374170Y343248D02*
X375774Y344853D01*
X382927Y356275D02*
X390826Y364174D01*
X379977Y357077D02*
X380779Y356275D01*
X379977Y357077D02*
X379977Y357077D01*
X372838Y354207D02*
X375708Y357077D01*
X372838Y349937D02*
X373632Y349144D01*
X372035Y345383D02*
X373640Y346987D01*
X392961Y362039D02*
X394287Y363365D01*
X365400Y334478D02*
X374170Y343248D01*
X390826Y364174D02*
X393036Y366384D01*
X363265Y336613D02*
X372035Y345383D01*
X355481Y380981D02*
X418974D01*
X354231Y384000D02*
X417723D01*
X315981Y398731D02*
X422581D01*
X314730Y401750D02*
X421331D01*
X193638Y320806D02*
X244000D01*
X192119Y319287D02*
Y319287D01*
X185041Y316268D02*
X189100D01*
X182022Y319287D02*
Y326764D01*
X177963D02*
X182022D01*
X177963Y316825D02*
Y326764D01*
X170885Y313806D02*
X174944D01*
X167866Y316825D02*
Y327807D01*
X163807D02*
X167866D01*
X163807Y325344D02*
Y327807D01*
X157000Y320806D02*
X159269D01*
X193638Y323825D02*
X244000D01*
X189100Y319287D02*
Y319287D01*
X185041Y319287D02*
X189100D01*
X185041D02*
Y326765D01*
X177963Y329784D02*
X182022D01*
X174944Y316825D02*
Y326765D01*
X170885Y316825D02*
X174944D01*
X170885D02*
Y327807D01*
X163807Y330826D02*
X167866D01*
X160788Y325344D02*
Y327807D01*
X157000Y323825D02*
X159269D01*
X244000Y320806D02*
X295159D01*
X108806D02*
X157000D01*
X244000Y323825D02*
X293909D01*
X107556D02*
X157000D01*
X94695Y306695D02*
X102000Y314000D01*
X94695Y306695D02*
X97943Y303446D01*
X95073Y300576D02*
X97943Y303446D01*
X91870Y303779D02*
X95073Y300576D01*
X89000Y300909D02*
X91870Y303779D01*
X89000Y299834D02*
Y300909D01*
X102000Y314000D02*
X108806Y320806D01*
X89000Y289000D02*
Y299834D01*
X583488Y222658D02*
X605073Y201073D01*
X581223Y222557D02*
X581332Y222666D01*
X574083Y225427D02*
X576953Y222557D01*
X574083Y229697D02*
X580216Y235830D01*
X577354Y238692D02*
X580208Y235837D01*
X569581Y230935D02*
X577346Y238700D01*
X562441Y233805D02*
X565312Y230935D01*
X562447Y238080D02*
X570206Y245839D01*
X567344Y248702D02*
X570198Y245847D01*
X565595Y246968D02*
X567336Y248709D01*
X557573Y248573D02*
X559177Y246968D01*
X585173Y225243D02*
X607208Y203208D01*
X585101Y225243D02*
X585173D01*
X579088Y224692D02*
X579197Y224801D01*
X576218Y227562D02*
X579088Y224692D01*
X576218Y227562D02*
X582351Y233695D01*
X582793Y237402D02*
Y237522D01*
X582354Y237961D02*
X582793Y237522D01*
X579481Y240834D02*
X582351Y237964D01*
X579038Y241277D02*
X579477Y240838D01*
X578919Y241277D02*
X579038D01*
X567446Y233070D02*
X575205Y240828D01*
X564576Y235940D02*
X567446Y233070D01*
X564576Y235940D02*
X572341Y243705D01*
X572783Y247412D02*
Y247532D01*
X572344Y247971D02*
X572783Y247532D01*
X569471Y250844D02*
X572341Y247974D01*
X569029Y251286D02*
X569468Y250847D01*
X568909Y251286D02*
X569029D01*
X563460Y249103D02*
X565195Y250838D01*
X559708Y250708D02*
X561312Y249103D01*
X605073Y201073D02*
X634000Y172146D01*
X538258Y267888D02*
X557573Y248573D01*
X607208Y203208D02*
X637019Y173396D01*
X540393Y270023D02*
X559708Y250708D01*
X637019Y94981D02*
X637556Y94444D01*
X643148Y88852D01*
X646993Y92696D01*
X649863Y89826D01*
X646907Y86870D02*
X649863Y89826D01*
X646907Y86870D02*
X649777Y84000D01*
X650852D01*
X657000D01*
X531026Y380981D02*
X595000D01*
X532277Y384000D02*
X596250D01*
X464019Y369458D02*
X466517Y371956D01*
X448304Y251574D02*
X461000Y264270D01*
Y370708D02*
X464383Y374091D01*
X450439Y249439D02*
X464019Y263019D01*
X394287Y363365D02*
X415500D01*
X393036Y366384D02*
X414249D01*
X658251Y80981D02*
X668548Y91278D01*
X665528Y92528D02*
Y99087D01*
X668548Y91278D02*
Y100337D01*
X657000Y84000D02*
X665528Y92528D01*
X666000Y106000D02*
X666302Y105698D01*
Y102582D02*
Y105698D01*
Y102582D02*
X668548Y100337D01*
X660750Y100750D02*
X661052Y100448D01*
X664167D01*
X665528Y99087D01*
X646749Y80981D02*
X658251D01*
X634000Y93730D02*
X646749Y80981D01*
X637019Y94981D02*
Y173396D01*
X531625Y262514D02*
X537000Y267888D01*
X531625Y262514D02*
X531625D01*
X540393Y270023D02*
Y271281D01*
X634000Y93730D02*
Y172146D01*
X540393Y271281D02*
X545767Y276656D01*
X537000Y267888D02*
X538258D01*
X101342Y280448D02*
X103588Y282693D01*
X93283Y280448D02*
X101342D01*
X89000Y289000D02*
X94534Y283466D01*
X100092D01*
X85981Y287750D02*
X93283Y280448D01*
X106703Y282693D02*
X107005Y282995D01*
X103588Y282693D02*
X106703D01*
X100092Y283466D02*
X101453Y284827D01*
Y287943D02*
X101755Y288245D01*
X101453Y284827D02*
Y287943D01*
X85981Y287750D02*
Y302250D01*
X107556Y323825D01*
X322971Y352887D02*
Y354145D01*
X293909Y323825D02*
X322971Y352887D01*
X319436Y357679D02*
X322971Y354145D01*
X319436Y357679D02*
Y361360D01*
X325105Y350752D02*
X326364D01*
X329898Y347218D02*
X333579D01*
X295159Y320806D02*
X325105Y350752D01*
X326364D02*
X329898Y347218D01*
X301753Y396564D02*
X305019Y393297D01*
X306278D01*
X308413Y389904D02*
Y391163D01*
Y389904D02*
X312214Y386103D01*
X306278Y393297D02*
X314730Y401750D01*
X308413Y391163D02*
X315981Y398731D01*
X298072Y396564D02*
X301753D01*
X312214Y382422D02*
Y386103D01*
X312062Y382270D02*
X312214Y382422D01*
X297920Y396413D02*
X298072Y396564D01*
X431162Y407311D02*
X432563D01*
X422581Y398731D02*
X431162Y407311D01*
X429027Y410847D02*
X431690Y413509D01*
X421331Y401750D02*
X429027Y409446D01*
X432563Y407311D02*
X435225Y409974D01*
X429027Y409446D02*
Y410847D01*
X637635Y386255D02*
X641186Y389806D01*
X643320Y393199D02*
X644579D01*
X641186Y389806D02*
Y391064D01*
X633519Y398731D02*
X641186Y391064D01*
X634770Y401750D02*
X643320Y393199D01*
X644579D02*
X648096Y396716D01*
X637635Y382574D02*
X637786Y382422D01*
X637635Y382574D02*
Y386255D01*
X651777Y396716D02*
X651928Y396564D01*
X648096Y396716D02*
X651777D01*
X520445Y405704D02*
X527419Y398731D01*
X523464Y406955D02*
X528669Y401750D01*
X520973Y409446D02*
Y410847D01*
Y409446D02*
X523464Y406955D01*
Y406955D02*
Y406955D01*
X518310Y413509D02*
X520973Y410847D01*
X517437Y407311D02*
X518838D01*
X520445Y405704D01*
Y405704D02*
Y405704D01*
X514775Y409974D02*
X517437Y407311D01*
X609350Y357970D02*
X613051Y361671D01*
Y362929D01*
X616444Y365064D02*
X619811Y368432D01*
X615186Y365064D02*
X616444D01*
X609350Y354289D02*
X609502Y354138D01*
X609350Y354289D02*
Y357970D01*
X623492Y368432D02*
X623644Y368280D01*
X619811Y368432D02*
X623492D01*
X513902Y402375D02*
Y403776D01*
Y402375D02*
X532277Y384000D01*
X507704Y402903D02*
X510366Y400240D01*
X511239Y406438D02*
X513902Y403776D01*
X510366Y400240D02*
X511767D01*
X531026Y380981D01*
X581066Y326005D02*
Y329686D01*
X587993Y336613D02*
X591527Y340147D01*
X586735Y336613D02*
X587993D01*
X584600Y333220D02*
Y334478D01*
X591527Y340147D02*
X595208D01*
X581066Y329686D02*
X584600Y333220D01*
X595208Y340147D02*
X595360Y339996D01*
X581066Y326005D02*
X581218Y325854D01*
X506831Y395304D02*
Y396705D01*
X504168Y399367D02*
X506831Y396705D01*
X500633Y395832D02*
X503295Y393169D01*
X504696D01*
X552782Y297721D02*
X552933Y297569D01*
X552782Y297721D02*
Y301402D01*
X556316Y304936D01*
Y306194D01*
X553666Y308844D02*
X556316Y306194D01*
X554887Y311863D02*
X554916D01*
X558451Y308329D02*
X559709D01*
X563243Y311863D02*
X566924D01*
X554916D02*
X558451Y308329D01*
X559709D02*
X563243Y311863D01*
X566924D02*
X567076Y311711D01*
X553637Y308844D02*
X553666D01*
X499760Y388233D02*
X529769Y358224D01*
Y336981D02*
Y358224D01*
X493562Y388761D02*
X496224Y386098D01*
X497625D02*
X526750Y356973D01*
Y335731D02*
Y356973D01*
X497097Y392296D02*
X499760Y389634D01*
Y388233D02*
Y389634D01*
X496224Y386098D02*
X497625D01*
X524706Y269433D02*
X524857Y269281D01*
X524706Y269433D02*
Y273114D01*
X528240Y276648D01*
Y277906D01*
X523800Y282346D02*
X528240Y277906D01*
X538848Y283575D02*
X538999Y283424D01*
X509250Y296980D02*
X523800Y282430D01*
Y282346D02*
Y282430D01*
X512269Y298231D02*
X526819Y283681D01*
X530374Y280041D02*
X531633D01*
X526819Y283596D02*
Y283681D01*
X535167Y283575D02*
X538848D01*
X531633Y280041D02*
X535167Y283575D01*
X526819Y283596D02*
X530374Y280041D01*
X486491Y381690D02*
X489153Y379027D01*
X490554D01*
X509250Y360331D01*
X490026Y385225D02*
X492688Y382563D01*
Y381162D02*
Y382563D01*
Y381162D02*
X512269Y361581D01*
X479419Y374619D02*
X482082Y371956D01*
X485617Y374091D02*
X494385Y365324D01*
X482955Y378154D02*
X485617Y375492D01*
X483483Y371956D02*
X491366Y364073D01*
X485617Y374091D02*
Y375492D01*
X482082Y371956D02*
X483483D01*
X503194Y251814D02*
X506674Y255294D01*
X496213Y244833D02*
X499801Y248421D01*
X491366Y258115D02*
X499801Y249680D01*
Y248421D02*
Y249680D01*
X494385Y259365D02*
X501936Y251814D01*
X503194D01*
X496213Y241152D02*
Y244833D01*
X506674Y255294D02*
X510355D01*
X510507Y255143D01*
X496213Y241152D02*
X496365Y241001D01*
X450439Y248181D02*
X453787Y244833D01*
X443326Y255294D02*
X447046Y251574D01*
X450439Y248181D02*
Y249439D01*
X447046Y251574D02*
X448304D01*
X439493Y255143D02*
X439645Y255294D01*
X443326D01*
X453787Y241152D02*
Y244833D01*
X453635Y241001D02*
X453787Y241152D01*
X466517Y371956D02*
X467918D01*
X464383Y374091D02*
Y375492D01*
X467918Y371956D02*
X470580Y374619D01*
X464383Y375492D02*
X467045Y378154D01*
X411209Y283427D02*
X411360Y283579D01*
X415041D01*
X418575Y280045D01*
X419834D01*
X421968Y276651D02*
Y277910D01*
X425351Y269285D02*
X425503Y269436D01*
Y273118D01*
X421968Y276651D02*
X425503Y273118D01*
X457311Y382563D02*
X459974Y385225D01*
X457311Y381162D02*
Y382563D01*
X460847Y379027D02*
X463509Y381690D01*
X459446Y379027D02*
X460847D01*
X443000Y362581D02*
X459446Y379027D01*
X439981Y363831D02*
X457311Y381162D01*
X382924Y311711D02*
X383076Y311863D01*
X386757D01*
X390291Y308329D01*
X391549D01*
X393684Y304936D02*
Y306194D01*
X397218Y297721D02*
Y301402D01*
X393684Y304936D02*
X397218Y301402D01*
X397067Y297569D02*
X397218Y297721D01*
X435996Y369720D02*
X452375Y386098D01*
X435996Y369720D02*
X435996D01*
X450240Y389634D02*
X452903Y392296D01*
X453776Y386098D02*
X456438Y388761D01*
X452375Y386098D02*
X453776D01*
X450240Y388233D02*
Y389634D01*
X434746Y372738D02*
X450240Y388233D01*
X434746Y372738D02*
X434746D01*
X368934Y326005D02*
Y329686D01*
X365400Y333220D02*
X368934Y329686D01*
X354640Y339996D02*
X354792Y340147D01*
X368782Y325853D02*
X368934Y326005D01*
X354792Y340147D02*
X358473D01*
X365400Y333220D02*
Y334478D01*
X358473Y340147D02*
X362007Y336613D01*
X363265D01*
X414249Y366384D02*
X443169Y395304D01*
Y396705D01*
X445832Y399367D01*
X445304Y393169D02*
X446705D01*
X449367Y395832D01*
X415500Y363365D02*
X445304Y393169D01*
X326204Y368128D02*
X326356Y368280D01*
X330037D01*
X333571Y364746D01*
X334829D01*
X341776Y371693D01*
X343027Y368674D02*
X343174D01*
X336964Y361353D02*
Y362611D01*
X340498Y354138D02*
Y357819D01*
X336964Y362611D02*
X343027Y368674D01*
X336964Y361353D02*
X340498Y357819D01*
X340347Y353986D02*
X340498Y354138D01*
X341776Y371693D02*
X341923D01*
X343174Y368674D02*
X355481Y380981D01*
X341923Y371693D02*
X354231Y384000D01*
X438233Y400240D02*
X439634D01*
X418974Y380981D02*
X438233Y400240D01*
X436098Y403776D02*
X438761Y406438D01*
X436098Y402375D02*
Y403776D01*
X417723Y384000D02*
X436098Y402375D01*
X439634Y400240D02*
X442296Y402903D01*
X535019Y466019D02*
X539884Y470884D01*
X539963D02*
X549245Y480166D01*
X539884Y470884D02*
X539963D01*
X549245Y480166D02*
Y481425D01*
X551379Y478032D02*
X552638D01*
X556172Y474497D01*
X541135Y467865D02*
X541213D01*
X551379Y478032D01*
X559853Y474497D02*
X560004Y474649D01*
X556172Y474497D02*
X559853D01*
X545711Y488640D02*
X545862Y488791D01*
X545711Y484959D02*
Y488640D01*
Y484959D02*
X549245Y481425D01*
X536269Y463000D02*
X541135Y467865D01*
X510366Y451160D02*
X522206Y463000D01*
X536269D01*
X520955Y466019D02*
X535019D01*
X508232Y453295D02*
X520955Y466019D01*
X506831Y453295D02*
X508232D01*
X504168Y450633D02*
X506831Y453295D01*
X510366Y449760D02*
Y451160D01*
X507704Y447097D02*
X510366Y449760D01*
X505000Y492490D02*
X514660Y502150D01*
Y502150D01*
X508019Y477098D02*
Y491240D01*
X505000Y478348D02*
Y492490D01*
X517679Y500900D02*
Y500900D01*
X508019Y491240D02*
X517679Y500900D01*
X514660Y502150D02*
X520960Y508451D01*
X531568Y502782D02*
X531720Y502933D01*
X527887Y502782D02*
X531568D01*
X524353Y506316D02*
X527887Y502782D01*
X523095Y506316D02*
X524353D01*
X520960Y508451D02*
Y509709D01*
X517426Y513243D02*
X520960Y509709D01*
X517426Y513243D02*
Y516924D01*
X517578Y517076D01*
X517679Y500900D02*
X523095Y506316D01*
X494089Y467437D02*
X505000Y478348D01*
X493562Y461239D02*
X496224Y463902D01*
X490026Y464775D02*
X492688Y467437D01*
X494089D01*
X496224Y463902D02*
Y465303D01*
X508019Y477098D01*
X429488Y501032D02*
X441269Y489250D01*
Y475008D02*
X452375Y463902D01*
X441269Y475008D02*
Y489250D01*
X438250Y473757D02*
Y488000D01*
X428237Y498013D02*
X438250Y488000D01*
Y473757D02*
X450240Y461767D01*
X428137Y498013D02*
X428237D01*
X423369Y502780D02*
X428137Y498013D01*
X422111Y502780D02*
X423369D01*
X418577Y499246D02*
X422111Y502780D01*
X425504Y504915D02*
Y506173D01*
X429387Y501032D02*
X429488D01*
X414744Y499398D02*
X414896Y499246D01*
X428886Y513540D02*
X429038Y513388D01*
Y509707D02*
Y513388D01*
X425504Y506173D02*
X429038Y509707D01*
X425504Y504915D02*
X429387Y501032D01*
X414896Y499246D02*
X418577D01*
X452375Y463902D02*
X453776D01*
X456438Y461239D01*
X450240Y460366D02*
Y461767D01*
Y460366D02*
X452903Y457704D01*
X400602Y485256D02*
X400754Y485104D01*
Y481423D02*
Y485104D01*
X397220Y477889D02*
X400754Y481423D01*
X397220Y476631D02*
Y477889D01*
Y476631D02*
X401737Y472113D01*
X393827Y474496D02*
X395085D01*
X386612Y470962D02*
X390293D01*
X401737Y472013D02*
X411981Y461769D01*
X398718Y470762D02*
X410731Y458750D01*
X398718Y470762D02*
Y470863D01*
X395085Y474496D02*
X398718Y470863D01*
X390293Y470962D02*
X393827Y474496D01*
X386460Y471114D02*
X386612Y470962D01*
X401737Y472013D02*
Y472113D01*
X410731Y458750D02*
X424973D01*
X411981Y461769D02*
X426224D01*
X424973Y458750D02*
X436098Y447625D01*
X426224Y461769D02*
X438233Y449760D01*
X439634D02*
X442296Y447097D01*
X438233Y449760D02*
X439634D01*
X436098Y446224D02*
X438761Y443562D01*
X436098Y446224D02*
Y447625D01*
D66*
X374000Y130907D02*
G03*
X372276Y132631I-1724J0D01*
G01*
X369053Y135854D02*
G03*
X372276Y132631I3223J0D01*
G01*
Y143342D02*
G03*
X369053Y140118I0J-3223D01*
G01*
X367000Y150829D02*
G03*
X370224Y147605I3223J0D01*
G01*
Y158316D02*
G03*
X367000Y155092I0J-3223D01*
G01*
X374000Y167526D02*
G03*
X378947Y162579I4947J0D01*
G01*
X377224Y130907D02*
G03*
X372276Y135854I-4947J0D01*
G01*
X380686Y140118D02*
G03*
X383910Y143342I0J3223D01*
G01*
Y147605D02*
G03*
X380686Y150829I-3223J0D01*
G01*
X381000Y155092D02*
G03*
X384224Y158316I0J3223D01*
G01*
Y162579D02*
G03*
X381000Y165803I-3223J0D01*
G01*
X377224Y167526D02*
G03*
X378947Y165803I1724J0D01*
G01*
X301776Y172907D02*
G03*
X300053Y174631I-1724J0D01*
G01*
X294904Y177854D02*
G03*
X298127Y174631I3223J0D01*
G01*
Y185341D02*
G03*
X294904Y182118I0J-3223D01*
G01*
X294776Y192829D02*
G03*
X298000Y189605I3223J0D01*
G01*
Y200316D02*
G03*
X294776Y197092I0J-3223D01*
G01*
X301776Y209526D02*
G03*
X306723Y204579I4947J0D01*
G01*
X305000Y172907D02*
G03*
X300053Y177854I-4947J0D01*
G01*
X308776Y182118D02*
G03*
X312000Y185341I0J3223D01*
G01*
Y189605D02*
G03*
X308776Y192829I-3223J0D01*
G01*
Y197092D02*
G03*
X312000Y200316I0J3223D01*
G01*
Y204579D02*
G03*
X308776Y207803I-3223J0D01*
G01*
X305000Y209526D02*
G03*
X306723Y207803I1724J0D01*
G01*
X216257Y240444D02*
G03*
X223253Y240444I3498J3498D01*
G01*
X219410Y226702D02*
G03*
X219410Y231261I-2279J2279D01*
G01*
X211837Y223687D02*
G03*
X216385Y223677I2279J2279D01*
G01*
X202661Y226833D02*
G03*
X202654Y226841I-3506J-3490D01*
G01*
Y219845D02*
G03*
X203126Y226294I-3498J3498D01*
G01*
X218536Y242723D02*
G03*
X220973Y242723I1219J1219D01*
G01*
X217982Y243277D02*
G03*
X213423Y243277I-2279J-2279D01*
G01*
X210398Y240252D02*
G03*
X210409Y235704I2290J-2269D01*
G01*
X206496Y233587D02*
G03*
X201937Y233587I-2279J-2279D01*
G01*
X198912Y230562D02*
G03*
X198923Y226013I2290J-2269D01*
G01*
X200365Y224571D02*
G03*
X200369Y224567I1149J1130D01*
G01*
X200374Y222124D02*
G03*
X200369Y224567I-1219J1219D01*
G01*
X697207Y185735D02*
G03*
X697211Y185731I1134J1145D01*
G01*
X697207Y185735D02*
G03*
X694764Y185740I-1224J-1213D01*
G01*
X694756Y185732D02*
G03*
X694764Y185740I-1132J1147D01*
G01*
X690197Y185748D02*
G03*
X694756Y185732I2287J2271D01*
G01*
X690196Y185749D02*
G03*
X690197Y185748I1149J1130D01*
G01*
X687198Y188746D02*
G03*
X687199Y188745I1132J1147D01*
G01*
X687190Y193313D02*
G03*
X687198Y188746I2279J-2279D01*
G01*
X678158Y194884D02*
G03*
X682124Y194404I2287J2271D01*
G01*
X678156Y194886D02*
G03*
X678158Y194884I1149J1130D01*
G01*
X675158Y197883D02*
G03*
X675160Y197882I1132J1147D01*
G01*
X675161Y202460D02*
G03*
X675158Y197883I2269J-2290D01*
G01*
X682771Y210070D02*
G03*
X682763Y210063I1140J-1140D01*
G01*
X667569Y205473D02*
G03*
X671536Y204993I2287J2271D01*
G01*
X667568Y205474D02*
G03*
X667569Y205473I1149J1130D01*
G01*
X664570Y208472D02*
G03*
X664572Y208470I1132J1147D01*
G01*
X664573Y213049D02*
G03*
X664570Y208472I2269J-2290D01*
G01*
X672182Y220658D02*
G03*
X672175Y220651I1140J-1140D01*
G01*
X660720Y222222D02*
G03*
X667716Y222222I3498J3498D01*
G01*
X699481Y188019D02*
G03*
X699473Y188027I-3498J-3498D01*
G01*
X698934Y188491D02*
G03*
X692492Y188026I-2952J-3970D01*
G01*
D02*
G03*
X692484Y188019I1133J-1147D01*
G01*
X694277Y195841D02*
G03*
X694277Y200400I-2279J2279D01*
G01*
X691262Y203415D02*
G03*
X686703Y203415I-2279J-2279D01*
G01*
X680452Y197163D02*
G03*
X680445Y197156I1132J-1147D01*
G01*
X685522Y208391D02*
G03*
X685050Y212349I-2752J1679D01*
G01*
X682035Y215364D02*
G03*
X677477Y215364I-2279J-2279D01*
G01*
X669864Y207752D02*
G03*
X669856Y207744I1132J-1147D01*
G01*
X674934Y218979D02*
G03*
X674462Y222938I-2752J1679D01*
G01*
X671447Y225953D02*
G03*
X666888Y225952I-2279J-2279D01*
G01*
X662999Y224501D02*
G03*
X665436Y224501I1219J1219D01*
G01*
X812684Y372211D02*
G03*
X817631Y367264I4947J0D01*
G01*
X803474D02*
G03*
X808421Y372211I0J4947D01*
G01*
X815908D02*
G03*
X817631Y370487I1724J0D01*
G01*
X815908Y374264D02*
G03*
X812684Y377487I-3223J0D01*
G01*
X808421D02*
G03*
X805197Y374264I0J-3223D01*
G01*
X803474Y370487D02*
G03*
X805197Y372211I0J1724D01*
G01*
X401655Y257452D02*
X405306Y261102D01*
X401655Y257452D02*
X405197Y253910D01*
X402182Y250895D02*
X405197Y253910D01*
X398678Y254399D02*
X402182Y250895D01*
X395663Y251384D02*
X398678Y254399D01*
X395663Y251384D02*
X395663Y251384D01*
X395054Y250774D02*
X395663Y251384D01*
X405306Y261102D02*
X410018Y265815D01*
X390578Y246299D02*
X395054Y250774D01*
X510834Y238736D02*
X560192Y189379D01*
X512942Y241187D02*
X562471Y191658D01*
X374000Y109000D02*
X374000D01*
X374000D02*
Y130907D01*
X372276Y132631D02*
X372276D01*
X369053Y135854D02*
Y140118D01*
X372276Y143342D02*
X380686D01*
Y147605D01*
X370224D02*
X380686D01*
X367000Y150829D02*
Y155092D01*
X370224Y158316D02*
X381000D01*
Y162579D01*
X378947D02*
X381000D01*
X374000Y167526D02*
Y170000D01*
X374000D01*
X377224Y109000D02*
Y130907D01*
X372276Y135854D02*
X372276D01*
X372276D02*
Y140118D01*
X380686D01*
X383910Y143342D02*
Y147605D01*
X370224Y150829D02*
X380686D01*
X370224D02*
Y155092D01*
X381000D01*
X384224Y158316D02*
Y162579D01*
X378947Y165803D02*
X381000D01*
X377224Y167526D02*
Y170000D01*
X374000Y79000D02*
Y109000D01*
Y170000D02*
Y177787D01*
X377224Y77665D02*
Y109000D01*
Y170000D02*
Y176452D01*
X301776Y148000D02*
X301777D01*
X301776D02*
Y172907D01*
X298127Y174631D02*
X300053D01*
X294904Y177854D02*
Y182118D01*
X298127Y185341D02*
X308776D01*
Y189605D01*
X298000D02*
X308776D01*
X294776Y192829D02*
Y197092D01*
X298000Y200316D02*
X308776D01*
Y204579D01*
X306723D02*
X308776D01*
X301776Y209526D02*
Y212000D01*
X301777D01*
X305000Y148000D02*
Y172907D01*
X298127Y177854D02*
X300053D01*
X298127D02*
Y182118D01*
X308776D01*
X312000Y185341D02*
Y189605D01*
X298000Y192829D02*
X308776D01*
X298000D02*
Y197092D01*
X308776D01*
X312000Y200316D02*
Y204579D01*
X306723Y207803D02*
X308776D01*
X305000Y209526D02*
Y212000D01*
X301777Y145335D02*
Y148000D01*
Y212000D02*
Y218701D01*
X305000Y144000D02*
Y148000D01*
Y212000D02*
Y217365D01*
X242404Y259596D02*
X242404D01*
X223253Y240444D02*
X242404Y259596D01*
X216257Y240444D02*
X216257Y240444D01*
X215703Y240998D02*
X216257Y240444D01*
X212688Y237983D02*
X215703Y240998D01*
X212688Y237983D02*
X219410Y231261D01*
X219410Y226702D02*
X219410D01*
X216385Y223677D02*
X219410Y226702D01*
X204217Y231307D02*
X211837Y223687D01*
X201202Y228293D02*
X204217Y231307D01*
X201202Y228293D02*
X202654Y226841D01*
X202661Y226833D02*
X203126Y226369D01*
Y226294D02*
Y226369D01*
X202654Y219845D02*
X202654D01*
X200904Y218096D02*
X202654Y219845D01*
X200904Y218096D02*
X200904D01*
X240125Y261875D02*
X240125Y261875D01*
X220973Y242723D02*
X240125Y261875D01*
X220973Y242723D02*
X220973D01*
X217982Y243277D02*
X218536Y242723D01*
X213423Y243277D02*
Y243277D01*
X210398Y240252D02*
X213423Y243277D01*
X210409Y235704D02*
X217131Y228981D01*
X214116Y225967D02*
X217131Y228981D01*
X206496Y233587D02*
X214116Y225967D01*
X201937Y233587D02*
Y233587D01*
X198912Y230562D02*
X201937Y233587D01*
X198923Y226013D02*
X200365Y224571D01*
X200374Y222124D02*
Y222124D01*
X198625Y220375D02*
X200374Y222124D01*
X198625Y220375D02*
X198625Y220375D01*
X242404Y259596D02*
X244739Y261930D01*
X182085Y199277D02*
X200904Y218096D01*
X240125Y261875D02*
X243404Y265154D01*
X180750Y202500D02*
X198625Y220375D01*
X143471Y207971D02*
X152165Y199277D01*
X152165D01*
X119000Y356000D02*
X273929D01*
X117665Y359224D02*
X272594D01*
X294601Y381231D01*
X72224Y309223D02*
X119000Y356000D01*
X69000Y310559D02*
X117665Y359224D01*
X273929Y356000D02*
X296881Y378952D01*
X100000Y259500D02*
X108987D01*
Y264388D01*
X113250D01*
Y259500D02*
Y264388D01*
Y259500D02*
X118376D01*
X118481D01*
X122618Y263637D01*
X94500Y259500D02*
X100000D01*
X143010Y232389D02*
Y234000D01*
Y232389D02*
X147898D01*
Y228125D02*
Y232389D01*
X143010Y228125D02*
X147898D01*
X143010Y223000D02*
Y228125D01*
Y234000D02*
Y237045D01*
Y212990D02*
Y223000D01*
X272000Y94000D02*
X272609Y93391D01*
X276147Y89853D01*
X279727Y93434D01*
X282742Y90420D01*
X279338Y87015D02*
X282742Y90420D01*
X279338Y87015D02*
X282352Y84000D01*
X282352Y84000D02*
X282352Y84000D01*
X282352Y84000D02*
X283571D01*
X290971D01*
X321452Y43548D02*
X323859D01*
Y48436D01*
X328122D01*
Y43548D02*
Y48436D01*
Y43548D02*
X333248D01*
X338548D01*
X560192Y189379D02*
X602285Y147285D01*
X578183Y284183D02*
X615683Y246682D01*
X634153Y228212D01*
X580462Y286462D02*
X617962Y248962D01*
X635488Y231436D01*
X649434Y269500D02*
X855059D01*
X650769Y272724D02*
X837000D01*
X562471Y191658D02*
X604565Y149565D01*
X602285Y147285D02*
X608777Y140794D01*
X604565Y149565D02*
X612000Y142129D01*
X711194Y171748D02*
X712471Y170471D01*
X711194Y171748D02*
X711194D01*
X697211Y185731D02*
X711194Y171747D01*
X687199Y188745D02*
X690196Y185749D01*
X687190Y193313D02*
X691998Y198120D01*
X688983Y201135D02*
X691998Y198120D01*
X682252Y194404D02*
X688983Y201135D01*
X682124Y194404D02*
X682252D01*
X675160Y197882D02*
X678156Y194886D01*
X675161Y202460D02*
X682763Y210063D01*
X679756Y213085D02*
X682771Y210070D01*
X671664Y204993D02*
X679756Y213085D01*
X671536Y204993D02*
X671664D01*
X664572Y208470D02*
X667568Y205474D01*
X664573Y213049D02*
X672175Y220651D01*
X669168Y223673D02*
X672182Y220658D01*
X667716Y222222D02*
X669168Y223673D01*
X660720Y222222D02*
X660720Y222222D01*
X660248Y222694D02*
X660720Y222222D01*
X660248Y222694D02*
Y222694D01*
X658971Y223971D02*
X660248Y222694D01*
X714750Y172750D02*
X714750Y172750D01*
X713473Y174027D02*
X714750Y172750D01*
X699481Y188019D02*
X713473Y174027D01*
X699009Y188491D02*
X699473Y188027D01*
X698934Y188491D02*
X699009D01*
X689470Y191034D02*
X692484Y188019D01*
X689470Y191034D02*
X694277Y195841D01*
X691262Y203415D02*
X694277Y200400D01*
X686703Y203415D02*
Y203415D01*
X680452Y197163D02*
X686703Y203415D01*
X677430Y200171D02*
X680445Y197156D01*
X677430Y200171D02*
X685522Y208263D01*
Y208391D01*
X682035Y215364D02*
X685050Y212349D01*
X677477Y215364D02*
Y215364D01*
X669864Y207752D02*
X677477Y215364D01*
X666842Y210759D02*
X669856Y207744D01*
X666842Y210759D02*
X674934Y218851D01*
Y218979D01*
X671447Y225952D02*
X674462Y222938D01*
X666888Y225952D02*
Y225952D01*
X665437Y224501D02*
X666888Y225952D01*
X665436Y224501D02*
X665437D01*
X662527Y224973D02*
X662999Y224501D01*
X661250Y226250D02*
X662527Y224973D01*
X661250Y226250D02*
X661250Y226250D01*
X712471Y170471D02*
X715604Y167337D01*
X654729Y228212D02*
X658971Y223971D01*
X714750Y172750D02*
X724000Y163500D01*
X656064Y231436D02*
X661250Y226250D01*
X842000Y367264D02*
Y367264D01*
X817631Y367264D02*
X842000D01*
X812684Y372211D02*
Y374264D01*
X808421D02*
X812684D01*
X808421Y372211D02*
Y374264D01*
X801000Y367264D02*
X803474D01*
X801000D02*
Y367264D01*
X817631Y370487D02*
X842000D01*
X815908Y372211D02*
Y374264D01*
X808421Y377487D02*
X812684D01*
X805197Y372211D02*
Y374264D01*
X801000Y370487D02*
X803474D01*
X842000Y367264D02*
X870678D01*
X664807D02*
X801000D01*
X842000Y370487D02*
X872013D01*
X666142D02*
X801000D01*
X691516Y103000D02*
Y106878D01*
X686457D02*
X691516D01*
X686457D02*
Y111141D01*
X691516D01*
Y115455D01*
X690704Y116267D02*
X691516Y115455D01*
X685358Y121613D02*
X690704Y116267D01*
X691516Y94516D02*
Y103000D01*
X722641Y160301D02*
X723250Y159691D01*
X722243Y160699D02*
X722641Y160301D01*
X718786Y157242D02*
X722243Y160699D01*
X715771Y160257D02*
X718786Y157242D01*
X715771Y160257D02*
X719228Y163713D01*
X716213Y166728D02*
X719228Y163713D01*
X716213Y166728D02*
X716213Y166728D01*
X715604Y167337D02*
X716213Y166728D01*
X624835Y350667D02*
X635455Y340047D01*
X630531Y349531D02*
X631140Y348921D01*
X638679Y341383D01*
Y341383D02*
Y341383D01*
Y341383D02*
X639641Y340420D01*
X642422Y343202D01*
X645437Y340187D01*
X642514Y337265D02*
X645437Y340187D01*
X642514Y337265D02*
X645529Y334250D01*
X645529Y334250D02*
X645529Y334250D01*
X645529Y334250D02*
X646139Y333641D01*
X627114Y352947D02*
X630531Y349531D01*
X646139Y333641D02*
X646451Y333328D01*
X647879D01*
X648837Y334286D01*
X652214D01*
X644172Y329621D02*
Y331049D01*
X635455Y339766D02*
X644172Y331049D01*
X635455Y339766D02*
Y340047D01*
X643038Y328486D02*
X644172Y329621D01*
X643038Y325462D02*
Y328486D01*
X855000Y274000D02*
X863026Y282026D01*
X837000Y272724D02*
X845611D01*
Y277905D01*
X849875D01*
Y273138D02*
Y277905D01*
Y273138D02*
X854138D01*
X855000Y274000D01*
X863026Y282026D02*
Y294949D01*
X855059Y269500D02*
X866250Y280691D01*
Y296284D01*
X882526Y355415D02*
X890477Y347465D01*
X896526Y335331D02*
Y337799D01*
X895308Y339018D02*
X896526Y337799D01*
X892381Y336091D02*
X895308Y339018D01*
X889366Y339106D02*
X892381Y336091D01*
X889366Y339106D02*
X894101Y343840D01*
X891086Y346855D02*
X894101Y343840D01*
X891086Y346855D02*
X891086Y346855D01*
X891086Y346855D02*
X891086Y346855D01*
X890477Y347465D02*
X891086Y346855D01*
X896526Y325468D02*
Y335331D01*
X339883Y40324D02*
X377224Y77665D01*
X338548Y43548D02*
X374000Y79000D01*
X377224Y176452D02*
X438302Y237530D01*
X374000Y177787D02*
X436023Y239810D01*
X305000Y217365D02*
X381734Y294099D01*
X301777Y218701D02*
X379454Y296378D01*
X268776Y112335D02*
X301777Y145335D01*
X272000Y111000D02*
X305000Y144000D01*
X311777Y48665D02*
Y62379D01*
Y48665D02*
X320117Y40324D01*
X339883D01*
X315000Y50000D02*
Y61044D01*
Y50000D02*
X321452Y43548D01*
X315000Y61044D02*
X320106Y66150D01*
X311777Y62379D02*
X317826Y68429D01*
X292306Y80777D02*
X298892Y87363D01*
X268776Y92665D02*
X280665Y80777D01*
X292306D01*
X290971Y84000D02*
X296613Y89642D01*
X272000Y94000D02*
Y111000D01*
X268776Y92665D02*
Y112335D01*
X640138Y65862D02*
X662862D01*
X608777Y92665D02*
X638803Y62638D01*
X664197D01*
X608777Y92665D02*
Y140794D01*
X612000Y94000D02*
Y142129D01*
Y94000D02*
X640138Y65862D01*
X664197Y62638D02*
X694740Y93181D01*
X662862Y65862D02*
X691516Y94516D01*
X694740Y93181D02*
Y116790D01*
X512942Y241187D02*
Y242615D01*
X517275Y246947D01*
Y248375D01*
X504561Y234233D02*
X509064Y238736D01*
X687637Y123892D02*
Y126863D01*
X682387Y121613D02*
X685358D01*
X503133Y234233D02*
X504561D01*
X687637Y123892D02*
X694740Y116790D01*
X682000Y122000D02*
X682387Y121613D01*
X509064Y238736D02*
X510834D01*
X687250Y127250D02*
X687637Y126863D01*
X69000Y280441D02*
X93165Y256276D01*
X72224Y281777D02*
X94500Y259500D01*
X69000Y280441D02*
Y310559D01*
X72224Y281777D02*
Y309223D01*
X93165Y256276D02*
X119816D01*
X568266Y294099D02*
X578183Y284183D01*
X570546Y296378D02*
X580462Y286462D01*
X153500Y202500D02*
X180750D01*
X152165Y199277D02*
X182085D01*
X596910Y326582D02*
X650769Y272724D01*
X594631Y324303D02*
X649434Y269500D01*
X491264Y494477D02*
X494799Y490942D01*
Y476619D02*
Y490942D01*
X708850Y145106D02*
Y148076D01*
X703600Y142826D02*
X706571D01*
X703213Y143213D02*
X703600Y142826D01*
X714882Y143382D02*
X723250Y151750D01*
X726473Y150415D02*
Y161026D01*
X716217Y140159D02*
X726473Y150415D01*
X709239Y140159D02*
X716217D01*
X706571Y142826D02*
X709239Y140159D01*
X710574Y143382D02*
X714882D01*
X708463Y148463D02*
X708850Y148076D01*
Y145106D02*
X710574Y143382D01*
X724000Y163500D02*
X726473Y161026D01*
X723250Y151750D02*
Y159691D01*
X724000Y163500D02*
Y163500D01*
X566838Y294099D02*
X568266D01*
X559853Y290650D02*
X563389D01*
X566838Y294099D01*
X573995Y301255D02*
Y304792D01*
X570546Y297806D02*
X573995Y301255D01*
X570546Y296378D02*
Y297806D01*
X634153Y228212D02*
X654729D01*
X573843Y304943D02*
X573995Y304792D01*
X635488Y231436D02*
X656064D01*
X559701Y290801D02*
X559853Y290650D01*
X860734Y297241D02*
X863026Y294949D01*
X863014Y299520D02*
X866250Y296284D01*
X890032Y318974D02*
X896526Y325468D01*
X891368Y315750D02*
X899750Y324132D01*
Y342750D01*
X885750Y356750D02*
X899750Y342750D01*
X882526Y355415D02*
Y355415D01*
X885750Y356750D02*
Y356750D01*
X872013Y370487D02*
X885750Y356750D01*
X870678Y367264D02*
X882526Y355415D01*
X884652Y315750D02*
X891368D01*
X885987Y318974D02*
X890032D01*
X881948Y318454D02*
X884652Y315750D01*
X884227Y320734D02*
X885987Y318974D01*
X883840Y324091D02*
X884227Y323704D01*
X878977Y318454D02*
X881948D01*
X878590Y318841D02*
X878977Y318454D01*
X884227Y320734D02*
Y323704D01*
X862627Y302878D02*
X863014Y302491D01*
X857764Y297241D02*
X860734D01*
X857377Y297628D02*
X857764Y297241D01*
X863014Y299520D02*
Y302491D01*
X587985Y319086D02*
X593203Y324303D01*
X594631D01*
X602128Y333228D02*
Y333228D01*
X596910Y328010D02*
X602128Y333228D01*
X596910Y326582D02*
Y328010D01*
X648242Y375503D02*
X651691Y378952D01*
X653119D01*
X644706Y375503D02*
X648242D01*
X655398Y382659D02*
X658848Y386108D01*
X653119Y378952D02*
X664807Y367264D01*
X644554Y375654D02*
X644706Y375503D01*
X658696Y389796D02*
X658848Y389645D01*
Y386108D02*
Y389645D01*
X655398Y381231D02*
Y382659D01*
Y381231D02*
X666142Y370487D01*
X619958Y347218D02*
X623407Y350667D01*
X624835D01*
X616270Y347370D02*
X616421Y347218D01*
X630563Y357824D02*
Y361360D01*
X627114Y352947D02*
Y354375D01*
X630563Y357824D01*
X630412Y361512D02*
X630563Y361360D01*
X616421Y347218D02*
X619958D01*
X124897Y261358D02*
X127868D01*
X128255Y261745D01*
X122618Y266608D02*
X123005Y266995D01*
X122618Y263637D02*
Y266608D01*
X119816Y256276D02*
X124897Y261358D01*
X294601Y381231D02*
Y382659D01*
X298309Y378952D02*
X301758Y375502D01*
X296881Y378952D02*
X298309D01*
X305294Y375502D02*
X305294Y375503D01*
X301758Y375502D02*
X305294D01*
X291152Y386108D02*
Y389645D01*
Y386108D02*
X294601Y382659D01*
X149081Y240145D02*
X149468Y240532D01*
X146111Y240145D02*
X149081D01*
X143010Y237045D02*
X146111Y240145D01*
X139787Y211654D02*
Y238380D01*
X143831Y242424D01*
Y245395D01*
X139787Y211654D02*
X143471Y207971D01*
X143831Y245395D02*
X144218Y245782D01*
X143471Y207971D02*
Y207971D01*
X143010Y212990D02*
X153500Y202500D01*
X243404Y265154D02*
X291661D01*
X355029Y322535D02*
X358478Y319086D01*
X291661Y265154D02*
X351322Y324814D01*
X292996Y261930D02*
X353601Y322535D01*
X244739Y261930D02*
X292996D01*
X347872Y329691D02*
Y333228D01*
Y329691D02*
X351322Y326242D01*
X353601Y322535D02*
X355029D01*
X351322Y324814D02*
Y326242D01*
X358478Y319086D02*
X362015D01*
X301863Y87363D02*
X302250Y87750D01*
X296613Y89642D02*
Y92613D01*
X298892Y87363D02*
X301863D01*
X296613Y92613D02*
X297000Y93000D01*
X376005Y301255D02*
Y304792D01*
X381734Y294099D02*
X383162D01*
X386611Y290650D01*
X390147D01*
X376005Y301255D02*
X379454Y297806D01*
X390147Y290650D02*
X390299Y290801D01*
X376005Y304792D02*
X376157Y304943D01*
X379454Y296378D02*
Y297806D01*
X320106Y66150D02*
X323076D01*
X323463Y66537D01*
X317826Y71400D02*
X318213Y71787D01*
X317826Y68429D02*
Y71400D01*
X436023Y239810D02*
Y241238D01*
X432574Y244687D02*
Y248223D01*
X443179Y234081D02*
X446716D01*
X432574Y244687D02*
X436023Y241238D01*
X438302Y237530D02*
X439730D01*
X443179Y234081D01*
X432574Y248223D02*
X432725Y248375D01*
X446716Y234081D02*
X446867Y234233D01*
X404289Y272971D02*
Y276508D01*
Y272971D02*
X407739Y269522D01*
X391536Y240536D02*
Y243913D01*
X404289Y276508D02*
X404441Y276659D01*
X397370Y257649D02*
Y257725D01*
X388298Y248578D02*
X397370Y257649D01*
X386871Y248578D02*
X388298D01*
X407739Y268094D02*
Y269522D01*
X397370Y257725D02*
X407739Y268094D01*
X411446Y265815D02*
X414895Y262365D01*
X418432D01*
X410018Y265815D02*
X411446D01*
X418432Y262365D02*
X418583Y262517D01*
X390578Y244871D02*
Y246299D01*
Y244871D02*
X391536Y243913D01*
X385913Y249536D02*
X386871Y248578D01*
X382536Y249536D02*
X385913D01*
X466500Y540279D02*
X471638Y535141D01*
X474378Y536511D02*
X475622Y535266D01*
Y529330D02*
Y535266D01*
X471988Y529571D02*
X472883Y530465D01*
X471638Y535141D02*
X471873D01*
X474728Y528436D02*
X475622Y529330D01*
X474378Y553157D02*
X483500Y562279D01*
X474378Y536511D02*
Y553157D01*
X483500Y562279D02*
Y563279D01*
X552605Y523818D02*
X552605D01*
X538488Y509701D02*
X552605Y523818D01*
X471988Y511719D02*
Y529571D01*
X474728Y511719D02*
Y528436D01*
X471873Y535141D02*
X472883Y534131D01*
X466500Y540279D02*
Y541279D01*
X472883Y530465D02*
Y534131D01*
X465644Y509853D02*
X468144Y507352D01*
X471988Y498899D02*
Y506343D01*
X470979Y507352D02*
X471988Y506343D01*
X468144Y507352D02*
X470979D01*
Y510709D02*
X471988Y511719D01*
X379541Y506317D02*
X393834Y492024D01*
X566747Y509676D02*
X566747D01*
X552630Y495559D02*
X566747Y509676D01*
X474728Y506343D02*
X475737Y507352D01*
X478572D01*
X474728Y500034D02*
Y506343D01*
Y511719D02*
X475737Y510709D01*
X480216D02*
X481072Y509853D01*
X475737Y510709D02*
X480216D01*
X478572Y507352D02*
X481072Y509853D01*
X466500Y510709D02*
X470979D01*
X465644Y509853D02*
X466500Y510709D01*
X393683Y520459D02*
X407976Y506166D01*
X471988Y498899D02*
X485405Y485482D01*
X474728Y500034D02*
X488145Y486617D01*
Y478634D02*
Y486617D01*
X485405Y479769D02*
Y485482D01*
X486491Y468310D02*
X494799Y476619D01*
X485578Y476068D02*
X488145Y478634D01*
X483641Y478005D02*
X485405Y479769D01*
X482043Y478005D02*
X483641D01*
X482955Y471846D02*
X485578Y474469D01*
X479419Y475381D02*
X482043Y478005D01*
X485578Y474469D02*
Y476068D01*
D71*
X567913Y446992D02*
X570742D01*
X567808Y447097D02*
X567913Y446992D01*
X570742D02*
X600000Y476250D01*
X567808Y447097D02*
X579829Y435076D01*
D77*
X495000Y730900D02*
D03*
X495000Y770900D02*
D03*
X455000D02*
D03*
Y730900D02*
D03*
D78*
X475000Y750000D02*
D03*
D79*
X520750Y715000D02*
D03*
Y796000D02*
D03*
X429250D02*
D03*
Y715000D02*
D03*
D80*
X760000Y407300D02*
D03*
Y502700D02*
D03*
D81*
Y432700D02*
D03*
Y477300D02*
D03*
D82*
X382536Y249536D02*
D03*
X671250Y111250D02*
D03*
X107005Y282995D02*
D03*
X112255Y277745D02*
D03*
X101755Y288245D02*
D03*
X97888Y293495D02*
D03*
X655500Y95500D02*
D03*
X666000Y106000D02*
D03*
X660750Y100750D02*
D03*
X635000Y327500D02*
D03*
X650000Y342500D02*
D03*
X616000Y455000D02*
D03*
X395097Y415808D02*
D03*
X295214Y493000D02*
D03*
Y413000D02*
D03*
X880000Y155000D02*
D03*
X889000Y180000D02*
D03*
X70000Y105000D02*
D03*
Y155000D02*
D03*
X880000Y105000D02*
D03*
X782448Y257699D02*
D03*
X777145Y305429D02*
D03*
X770074Y298358D02*
D03*
X763002Y291287D02*
D03*
X278284Y146716D02*
D03*
X160000Y75000D02*
D03*
Y90000D02*
D03*
Y105000D02*
D03*
Y120000D02*
D03*
X271213Y153787D02*
D03*
X264142Y160858D02*
D03*
X257071Y167929D02*
D03*
X554903Y422879D02*
D03*
X545004Y432778D02*
D03*
X540054Y437778D02*
D03*
X535104Y442728D02*
D03*
X491264Y494477D02*
D03*
X513891Y476619D02*
D03*
X450908Y478740D02*
D03*
X405000Y435000D02*
D03*
X410000Y440000D02*
D03*
X790000Y135000D02*
D03*
Y150000D02*
D03*
Y165000D02*
D03*
Y180000D02*
D03*
X600000Y451750D02*
D03*
X605000Y420000D02*
D03*
X600000Y476250D02*
D03*
X465858Y493589D02*
D03*
X455908Y483690D02*
D03*
X460858Y488640D02*
D03*
X415000Y445000D02*
D03*
X420000Y450000D02*
D03*
X643038Y325462D02*
D03*
X652214Y334286D02*
D03*
X873377Y313628D02*
D03*
X883840Y324091D02*
D03*
X878590Y318841D02*
D03*
X857377Y297628D02*
D03*
X862627Y302878D02*
D03*
X889127Y329378D02*
D03*
X867877Y308128D02*
D03*
X852127Y292378D02*
D03*
X698000Y138000D02*
D03*
X708463Y148463D02*
D03*
X703213Y143213D02*
D03*
X682000Y122000D02*
D03*
X687250Y127250D02*
D03*
X713750Y153750D02*
D03*
X692500Y132500D02*
D03*
X676750Y116750D02*
D03*
X139005Y250995D02*
D03*
X149468Y240532D02*
D03*
X144218Y245782D02*
D03*
X123005Y266995D02*
D03*
X128255Y261745D02*
D03*
X154755Y235245D02*
D03*
X133505Y256495D02*
D03*
X117755Y272245D02*
D03*
X291750Y98250D02*
D03*
X307500Y82500D02*
D03*
X328750Y61250D02*
D03*
X302250Y87750D02*
D03*
X389313Y256687D02*
D03*
X297000Y93000D02*
D03*
X318213Y71787D02*
D03*
X323463Y66537D02*
D03*
X313000Y77000D02*
D03*
X391536Y240536D02*
D03*
X398750Y247250D02*
D03*
X451665Y425000D02*
D03*
X459444Y417222D02*
D03*
X467222Y409444D02*
D03*
X475000Y401665D02*
D03*
X459444Y432778D02*
D03*
X467222Y425000D02*
D03*
X475000Y417222D02*
D03*
X482778Y409444D02*
D03*
X467222Y440556D02*
D03*
X475000Y432778D02*
D03*
X482778Y425000D02*
D03*
X490556Y417222D02*
D03*
X475000Y448335D02*
D03*
X482778Y440556D02*
D03*
X490556Y432778D02*
D03*
X498335Y425000D02*
D03*
X553337Y452729D02*
D03*
X512477Y465305D02*
D03*
X429038Y466012D02*
D03*
X438938Y465305D02*
D03*
X404289Y425000D02*
D03*
X549953Y427828D02*
D03*
X545711Y410858D02*
D03*
D83*
X384781Y632258D02*
D03*
X565000Y632258D02*
D03*
X512000Y580758D02*
D03*
X438000Y580758D02*
D03*
D84*
X50000Y850000D02*
D03*
X900000D02*
D03*
Y50000D02*
D03*
X50000D02*
D03*
D86*
X597000Y657479D02*
G03*
X589561Y675440I-25400J0D01*
G01*
X589678Y504322D02*
G03*
X597000Y522000I-17678J17678D01*
G01*
X355439Y670440D02*
G03*
X348000Y652479I17960J-17960D01*
G01*
Y520095D02*
G03*
X355439Y502134I25400J0D01*
G01*
X529281Y528778D02*
G03*
X541000Y557071I-28293J28293D01*
G01*
Y601479D02*
G03*
X533560Y619440I-25400J0D01*
G01*
X495000Y668521D02*
G03*
X502439Y650561I25400J0D01*
G01*
X447561D02*
G03*
X455000Y668521I-17960J17960D01*
G01*
X416440Y619440D02*
G03*
X409000Y601479I17960J-17960D01*
G01*
Y543947D02*
G03*
X416440Y525987I25400J0D01*
G01*
X495000Y770000D02*
X589561Y675440D01*
X597000Y522000D02*
Y657479D01*
X566772Y481417D02*
X589678Y504322D01*
X355439Y670440D02*
X455000Y770000D01*
X348000Y520095D02*
Y652479D01*
X355439Y502134D02*
X379692Y477881D01*
X541000Y557071D02*
X541000Y557082D01*
Y601479D01*
X524076Y523574D02*
X529281Y528778D01*
X495000Y668521D02*
Y730000D01*
X502439Y650561D02*
X533560Y619440D01*
X416440D02*
X447561Y650561D01*
X409000Y543947D02*
Y601479D01*
X416440Y525987D02*
X422119Y520308D01*
X455000Y668521D02*
Y730000D01*
D87*
X384781Y615742D02*
D03*
Y632258D02*
D03*
X438000Y564242D02*
D03*
X438000Y580758D02*
D03*
X565000Y615742D02*
D03*
X565000Y632258D02*
D03*
X512000Y564242D02*
D03*
Y580758D02*
D03*
D88*
X567781Y663250D02*
D03*
Y648750D02*
D03*
X435000Y611800D02*
D03*
Y597300D02*
D03*
X382000Y663250D02*
D03*
X382000Y648750D02*
D03*
X515000Y611800D02*
D03*
Y597300D02*
D03*
D89*
X545000Y674150D02*
D03*
Y648750D02*
D03*
X458000Y622700D02*
D03*
Y597300D02*
D03*
X405000Y674150D02*
D03*
Y648750D02*
D03*
X492000Y622700D02*
D03*
Y597300D02*
D03*
D90*
X600000Y476250D02*
D03*
Y463250D02*
D03*
D91*
X380490Y677510D02*
D03*
X371510Y686490D02*
D03*
X452490Y637510D02*
D03*
X443510Y646490D02*
D03*
D92*
X497510Y637510D02*
D03*
X506490Y646490D02*
D03*
X569510Y677510D02*
D03*
X578490Y686490D02*
D03*
D93*
X377881Y721023D02*
D03*
X381417Y717488D02*
D03*
X388488Y710417D02*
D03*
X392023Y706881D02*
D03*
X386119Y700977D02*
D03*
X382583Y704512D02*
D03*
X375512Y711583D02*
D03*
X371977Y715119D02*
D03*
D94*
X384952Y713952D02*
D03*
X379048Y708048D02*
D03*
D95*
X455000Y671825D02*
D03*
X450000D02*
D03*
X440000D02*
D03*
X435000D02*
D03*
Y680175D02*
D03*
X440000D02*
D03*
X450000D02*
D03*
X455000D02*
D03*
X515000Y671825D02*
D03*
X510000D02*
D03*
X500000D02*
D03*
X495000D02*
D03*
Y680175D02*
D03*
X500000D02*
D03*
X510000D02*
D03*
X515000D02*
D03*
D96*
X445000Y671825D02*
D03*
Y680175D02*
D03*
X505000Y671825D02*
D03*
Y680175D02*
D03*
D97*
X557977Y706881D02*
D03*
X561512Y710417D02*
D03*
X568583Y717488D02*
D03*
X572119Y721023D02*
D03*
X578023Y715119D02*
D03*
X574488Y711583D02*
D03*
X567417Y704512D02*
D03*
X563881Y700977D02*
D03*
D98*
X565048Y713952D02*
D03*
X570952Y708048D02*
D03*
D99*
X566747Y509676D02*
D03*
X577000Y519929D02*
D03*
X552605Y523818D02*
D03*
X562858Y534071D02*
D03*
D100*
X393683Y520459D02*
D03*
X383430Y530713D02*
D03*
X379541Y506317D02*
D03*
X369287Y516570D02*
D03*
D101*
X466500Y541279D02*
D03*
Y563279D02*
D03*
X483500D02*
D03*
Y541279D02*
D03*
D102*
X424619Y429419D02*
D03*
X428154Y432955D02*
D03*
X431690Y436491D02*
D03*
X435225Y440026D02*
D03*
X438761Y443562D02*
D03*
X442296Y447097D02*
D03*
X445832Y450633D02*
D03*
X449367Y454168D02*
D03*
X452903Y457704D02*
D03*
X456438Y461239D02*
D03*
X459974Y464775D02*
D03*
X463509Y468310D02*
D03*
X467045Y471846D02*
D03*
X470580Y475381D02*
D03*
X525381Y420581D02*
D03*
X521846Y417045D02*
D03*
X518310Y413509D02*
D03*
X514775Y409974D02*
D03*
X511239Y406438D02*
D03*
X507704Y402903D02*
D03*
X504168Y399367D02*
D03*
X500633Y395832D02*
D03*
X497097Y392296D02*
D03*
X493562Y388761D02*
D03*
X490026Y385225D02*
D03*
X486491Y381690D02*
D03*
X482955Y378154D02*
D03*
X479419Y374619D02*
D03*
D103*
Y475381D02*
D03*
X482955Y471846D02*
D03*
X486491Y468310D02*
D03*
X490026Y464775D02*
D03*
X493562Y461239D02*
D03*
X497097Y457704D02*
D03*
X500633Y454168D02*
D03*
X504168Y450633D02*
D03*
X507704Y447097D02*
D03*
X511239Y443562D02*
D03*
X514775Y440026D02*
D03*
X518310Y436491D02*
D03*
X521846Y432955D02*
D03*
X525381Y429419D02*
D03*
X470580Y374619D02*
D03*
X467045Y378154D02*
D03*
X463509Y381690D02*
D03*
X459974Y385225D02*
D03*
X456438Y388761D02*
D03*
X452903Y392296D02*
D03*
X449367Y395832D02*
D03*
X445832Y399367D02*
D03*
X442296Y402903D02*
D03*
X438761Y406438D02*
D03*
X435225Y409974D02*
D03*
X431690Y413509D02*
D03*
X428154Y417045D02*
D03*
X424619Y420581D02*
D03*
D104*
X475000Y425000D02*
D03*
D105*
X295214Y413000D02*
Y493000D01*
M02*
