M48
;Layer_Color=9474304
;FILE_FORMAT=4:4
METRIC,LZ
;TYPE=PLATED
T01F00S00C0.3000
T02F00S00C0.3300
T03F00S00C0.8900
T05F00S00C1.0160
T06F00S00C1.0668
T07F00S00C1.1000
T08F00S00C1.1684
T09F00S00C1.7018
T10F00S00C2.5000
%
T01
X00026565Y00026565
X0004Y00021
X00053435Y00026565
X00059Y0004
X00053435Y00053435
X0004Y00059
X00026565Y00053435
X00021Y0004
X00055Y0008
X0008Y0023
X0003
X0018Y002275
X001625Y002525
X00225Y002175
X00235
X00245
Y002
X00225
Y001525
X00235
X00245
Y00135
X00225
X0033Y0015
X0034
X0035
X0034Y0017
X00305Y0018
X0033Y00215
X0034
X0035
X00355Y0025
X00325Y002425
X00405Y00235
X00415
X0041518Y0022768
X004275Y00215
X00435
X00439Y00239
X0045
X00461
Y0025
X0045
X00439
Y00261
X0045
X00461
X00485Y002575
Y0025
Y002425
Y00235
X004875Y001875
X0048
X004725
X00465
X0044Y001825
Y001575
Y001225
Y00105
X0043625Y000875
X0042875
X0042125
X0041375
X0044375
X0045125
X0045875
X0046625
X0048Y000675
X0047Y0005
X0044
X0041
X0038
X00355Y0008
X00313435Y00053435
X003Y00059
X00286565Y00053435
X00281Y0004
X00286565Y00026565
X003Y00021
X00313435Y00026565
X00319Y0004
X003925Y001125
X004Y00165
X0039Y00195
Y0022
X00405Y0025
X00415Y00255
Y002625
X0049Y0017
X00515Y0019
X0056Y0015
X00555Y0008
X0052Y00105
X0053Y0003
X005Y0029
Y003175
X0048
X004675Y0029
X0046
X0044
X00415Y003
X004175Y0032
X00415Y0034
X0041Y0038
X003775
X0034
Y00441
X00353435Y00446565
X00359Y0046
X00353435Y00473435
X0034Y00479
X00326565Y00473435
X00321Y0046
X00326565Y00446565
X0028Y0043
X0038
X0053
X00546565Y00446565
X0056Y00441
X00573435Y00446565
X00579Y0046
X00573435Y00473435
X0056Y00479
X00546565Y00473435
X00541Y0046
X0052Y004025
Y003775
X0051Y0038
X00552193Y0039
X005225Y003175
X00475Y003575
X00415Y0027
X003975Y00275
X0039
X003825
X0024Y0029
X0021
X002025Y0034
X0018Y0043
X00105Y0038
X00055
X00053435Y00446565
X0004Y00441
X00026565Y00446565
X00021Y0046
X00026565Y00473435
X0004Y00479
X00053435Y00473435
X00059Y0046
X0008Y0033
X0003
X00055Y0028
T02
X0028Y00139
Y00151
Y00204
Y00216
T03
X00475Y001073
X005
Y001327
X00475
X0056
Y001073
X002827Y0046
X002573
T05
X0004Y0009
Y00135
Y0018
X00245Y001775
X00405Y0021
Y00145
X00245Y003225
T06
X0005Y0023
X00102Y00265
T07
X0056Y001738
Y001992
Y002246
Y0025
Y002754
Y003008
Y003262
T08
X0045Y0045
T09
X004246Y004246
Y004754
X004754
Y004246
T10
X0004Y0004
X003
X0034Y0046
X0056
X0004
M30
