G04*
G04 #@! TF.GenerationSoftware,Altium Limited,Altium Designer,25.6.2 (33)*
G04*
G04 Layer_Color=16711935*
%FSLAX44Y44*%
%MOMM*%
G71*
G04*
G04 #@! TF.SameCoordinates,A62BF475-C4B3-4E42-B244-03EA918739BB*
G04*
G04*
G04 #@! TF.FilePolarity,Negative*
G04*
G01*
G75*
%ADD28R,0.7154X0.6725*%
%ADD29R,1.4562X1.2546*%
%ADD32R,0.6725X0.7154*%
%ADD40R,0.8000X0.8000*%
G04:AMPARAMS|DCode=43|XSize=1.1mm|YSize=0.95mm|CornerRadius=0.175mm|HoleSize=0mm|Usage=FLASHONLY|Rotation=180.000|XOffset=0mm|YOffset=0mm|HoleType=Round|Shape=RoundedRectangle|*
%AMROUNDEDRECTD43*
21,1,1.1000,0.6000,0,0,180.0*
21,1,0.7500,0.9500,0,0,180.0*
1,1,0.3500,-0.3750,0.3000*
1,1,0.3500,0.3750,0.3000*
1,1,0.3500,0.3750,-0.3000*
1,1,0.3500,-0.3750,-0.3000*
%
%ADD43ROUNDEDRECTD43*%
G04:AMPARAMS|DCode=44|XSize=1.1mm|YSize=0.95mm|CornerRadius=0.175mm|HoleSize=0mm|Usage=FLASHONLY|Rotation=270.000|XOffset=0mm|YOffset=0mm|HoleType=Round|Shape=RoundedRectangle|*
%AMROUNDEDRECTD44*
21,1,1.1000,0.6000,0,0,270.0*
21,1,0.7500,0.9500,0,0,270.0*
1,1,0.3500,-0.3000,-0.3750*
1,1,0.3500,-0.3000,0.3750*
1,1,0.3500,0.3000,0.3750*
1,1,0.3500,0.3000,-0.3750*
%
%ADD44ROUNDEDRECTD44*%
%ADD47R,1.5500X1.5500*%
%ADD48C,1.5500*%
%ADD49C,1.3500*%
%ADD50O,1.4500X3.9500*%
%ADD51C,2.3000*%
%ADD52C,2.8500*%
%ADD53C,2.6500*%
%ADD54R,2.6500X2.6500*%
%ADD55C,5.1500*%
%ADD56C,1.4000*%
%ADD57R,1.4000X1.4000*%
%ADD58C,1.8000*%
G04:AMPARAMS|DCode=59|XSize=1.8mm|YSize=1.8mm|CornerRadius=0.4875mm|HoleSize=0mm|Usage=FLASHONLY|Rotation=90.000|XOffset=0mm|YOffset=0mm|HoleType=Round|Shape=RoundedRectangle|*
%AMROUNDEDRECTD59*
21,1,1.8000,0.8250,0,0,90.0*
21,1,0.8250,1.8000,0,0,90.0*
1,1,0.9750,0.4125,0.4125*
1,1,0.9750,0.4125,-0.4125*
1,1,0.9750,-0.4125,-0.4125*
1,1,0.9750,-0.4125,0.4125*
%
%ADD59ROUNDEDRECTD59*%
%ADD60C,2.6900*%
%ADD61C,2.0550*%
%ADD62C,0.6500*%
%ADD84R,1.5000X4.0000*%
%ADD85R,1.2084X1.0121*%
%ADD88R,1.0000X0.7000*%
%ADD89R,1.2546X1.4562*%
%ADD91R,5.3000X2.0000*%
%ADD93R,1.2000X1.4000*%
%ADD94R,1.8741X0.5421*%
G04:AMPARAMS|DCode=95|XSize=1.8741mm|YSize=0.5421mm|CornerRadius=0.2711mm|HoleSize=0mm|Usage=FLASHONLY|Rotation=180.000|XOffset=0mm|YOffset=0mm|HoleType=Round|Shape=RoundedRectangle|*
%AMROUNDEDRECTD95*
21,1,1.8741,0.0000,0,0,180.0*
21,1,1.3319,0.5421,0,0,180.0*
1,1,0.5421,-0.6660,0.0000*
1,1,0.5421,0.6660,0.0000*
1,1,0.5421,0.6660,0.0000*
1,1,0.5421,-0.6660,0.0000*
%
%ADD95ROUNDEDRECTD95*%
%ADD98R,1.3082X0.7621*%
G04:AMPARAMS|DCode=99|XSize=1.3082mm|YSize=0.7621mm|CornerRadius=0.3811mm|HoleSize=0mm|Usage=FLASHONLY|Rotation=0.000|XOffset=0mm|YOffset=0mm|HoleType=Round|Shape=RoundedRectangle|*
%AMROUNDEDRECTD99*
21,1,1.3082,0.0000,0,0,0.0*
21,1,0.5461,0.7621,0,0,0.0*
1,1,0.7621,0.2730,0.0000*
1,1,0.7621,-0.2730,0.0000*
1,1,0.7621,-0.2730,0.0000*
1,1,0.7621,0.2730,0.0000*
%
%ADD99ROUNDEDRECTD99*%
%ADD100R,0.3048X0.9779*%
%ADD101R,0.4200X0.7000*%
%ADD102C,0.9900*%
%ADD103C,0.9698*%
G04:AMPARAMS|DCode=104|XSize=0.565mm|YSize=0.2mm|CornerRadius=0.05mm|HoleSize=0mm|Usage=FLASHONLY|Rotation=180.000|XOffset=0mm|YOffset=0mm|HoleType=Round|Shape=RoundedRectangle|*
%AMROUNDEDRECTD104*
21,1,0.5650,0.1000,0,0,180.0*
21,1,0.4650,0.2000,0,0,180.0*
1,1,0.1000,-0.2325,0.0500*
1,1,0.1000,0.2325,0.0500*
1,1,0.1000,0.2325,-0.0500*
1,1,0.1000,-0.2325,-0.0500*
%
%ADD104ROUNDEDRECTD104*%
G04:AMPARAMS|DCode=105|XSize=0.565mm|YSize=0.4mm|CornerRadius=0.05mm|HoleSize=0mm|Usage=FLASHONLY|Rotation=180.000|XOffset=0mm|YOffset=0mm|HoleType=Round|Shape=RoundedRectangle|*
%AMROUNDEDRECTD105*
21,1,0.5650,0.3000,0,0,180.0*
21,1,0.4650,0.4000,0,0,180.0*
1,1,0.1000,-0.2325,0.1500*
1,1,0.1000,0.2325,0.1500*
1,1,0.1000,0.2325,-0.1500*
1,1,0.1000,-0.2325,-0.1500*
%
%ADD105ROUNDEDRECTD105*%
%ADD106R,1.4000X1.2000*%
%ADD107R,1.0200X0.6400*%
%ADD111R,3.4500X2.8500*%
%ADD112R,1.1500X2.8500*%
%ADD113R,0.6300X0.5500*%
%ADD114O,1.5500X0.5000*%
%ADD115R,1.3700X1.0600*%
%ADD116R,0.8500X1.0500*%
%ADD117R,4.8500X4.8500*%
%ADD118O,1.1000X0.4000*%
%ADD119O,0.4000X1.1000*%
G36*
X930500Y516000D02*
Y509000D01*
X917000D01*
Y520000D01*
X925500D01*
X930500Y516000D01*
D02*
G37*
G36*
X953000Y509000D02*
X939500D01*
Y516000D01*
X944500Y520000D01*
X953000D01*
Y509000D01*
D02*
G37*
G36*
X930500Y554000D02*
X925500Y550000D01*
X917000D01*
Y561000D01*
X930500D01*
Y554000D01*
D02*
G37*
G36*
X953000Y550000D02*
X944500D01*
X939500Y554000D01*
Y561000D01*
X953000D01*
Y550000D01*
D02*
G37*
D28*
X244786Y765000D02*
D03*
X235214D02*
D03*
X159786D02*
D03*
X150214D02*
D03*
X320214Y830000D02*
D03*
X329786D02*
D03*
X1302286Y345000D02*
D03*
X1292714D02*
D03*
X894786Y522500D02*
D03*
X885214D02*
D03*
X919786Y595000D02*
D03*
X910214D02*
D03*
X959786D02*
D03*
X950214D02*
D03*
X942714Y420000D02*
D03*
X952286D02*
D03*
X927286D02*
D03*
X917714D02*
D03*
X549786Y772500D02*
D03*
X540214D02*
D03*
X517714D02*
D03*
X527286D02*
D03*
X517714Y737500D02*
D03*
X527286D02*
D03*
X517714Y722500D02*
D03*
X527286D02*
D03*
D29*
X365000Y808258D02*
D03*
Y791742D02*
D03*
X240000Y808258D02*
D03*
Y791742D02*
D03*
D32*
X80000Y585214D02*
D03*
Y594786D02*
D03*
X95000Y585214D02*
D03*
Y594786D02*
D03*
X140000Y585214D02*
D03*
Y594786D02*
D03*
X987500Y380214D02*
D03*
Y389786D02*
D03*
Y339786D02*
D03*
Y330214D02*
D03*
X890000Y390214D02*
D03*
Y399786D02*
D03*
X935000Y599786D02*
D03*
Y590214D02*
D03*
X442500Y664786D02*
D03*
Y655214D02*
D03*
X397500Y664786D02*
D03*
Y655214D02*
D03*
X412500Y664786D02*
D03*
Y655214D02*
D03*
X427500Y664786D02*
D03*
Y655214D02*
D03*
X457500Y664786D02*
D03*
Y655214D02*
D03*
X472500Y664786D02*
D03*
Y655214D02*
D03*
D40*
X517500Y692500D02*
D03*
X527500D02*
D03*
X517500Y705000D02*
D03*
X527500D02*
D03*
X517500Y680000D02*
D03*
X527500D02*
D03*
X517500Y667500D02*
D03*
X527500D02*
D03*
D43*
X272500Y736000D02*
D03*
Y749000D02*
D03*
Y706000D02*
D03*
Y719000D02*
D03*
X287500Y706000D02*
D03*
Y719000D02*
D03*
Y736000D02*
D03*
Y749000D02*
D03*
X987500Y353500D02*
D03*
Y366500D02*
D03*
X1332500Y469000D02*
D03*
Y456000D02*
D03*
X370000Y736000D02*
D03*
Y749000D02*
D03*
X325000Y736000D02*
D03*
Y749000D02*
D03*
X370000Y706000D02*
D03*
Y719000D02*
D03*
X325000Y706000D02*
D03*
Y719000D02*
D03*
X467500Y803500D02*
D03*
Y816500D02*
D03*
D44*
X1278500Y407500D02*
D03*
X1291500D02*
D03*
X206500Y785000D02*
D03*
X193500D02*
D03*
X638500Y75000D02*
D03*
X651500D02*
D03*
X638500Y90000D02*
D03*
X651500D02*
D03*
X73500Y165000D02*
D03*
X86500D02*
D03*
X73500Y180000D02*
D03*
X86500D02*
D03*
X124000Y590000D02*
D03*
X111000D02*
D03*
X863500Y355000D02*
D03*
X876500D02*
D03*
X863500Y340000D02*
D03*
X876500D02*
D03*
X863500Y325000D02*
D03*
X876500D02*
D03*
X1291000Y360000D02*
D03*
X1304000D02*
D03*
X1303500Y407500D02*
D03*
X1316500D02*
D03*
X904000Y420000D02*
D03*
X891000D02*
D03*
X896500Y492500D02*
D03*
X883500D02*
D03*
X883500Y507500D02*
D03*
X896500D02*
D03*
X926500Y575000D02*
D03*
X913500D02*
D03*
X956500D02*
D03*
X943500D02*
D03*
X529000Y755000D02*
D03*
X516000D02*
D03*
X556500Y737500D02*
D03*
X543500D02*
D03*
D47*
X737500Y655250D02*
D03*
D48*
X762500D02*
D03*
D49*
X975000Y99500D02*
D03*
X925000D02*
D03*
X795000D02*
D03*
X745000D02*
D03*
D50*
X886000Y104500D02*
D03*
X1014000D02*
D03*
X706000D02*
D03*
X834000D02*
D03*
D51*
X1327000Y637500D02*
D03*
X1293000D02*
D03*
Y502500D02*
D03*
X1327000D02*
D03*
D52*
X855000Y761000D02*
D03*
X1265000D02*
D03*
D53*
X920000Y796000D02*
D03*
X960000D02*
D03*
X1000000D02*
D03*
X1040000D02*
D03*
X1080000D02*
D03*
X1120000D02*
D03*
X1160000D02*
D03*
X1200000D02*
D03*
X940000Y756000D02*
D03*
X980000D02*
D03*
X1020000D02*
D03*
X1060000D02*
D03*
X1100000D02*
D03*
X1140000D02*
D03*
X1180000D02*
D03*
X920000Y716000D02*
D03*
X960000D02*
D03*
X1000000D02*
D03*
X1040000D02*
D03*
X1080000D02*
D03*
X1120000D02*
D03*
X1160000D02*
D03*
D54*
X1200000D02*
D03*
D55*
X525000Y615000D02*
D03*
Y35000D02*
D03*
X35000D02*
D03*
Y615000D02*
D03*
X1335000Y30000D02*
D03*
D56*
X997500Y655250D02*
D03*
X972500D02*
D03*
X947500D02*
D03*
X922500D02*
D03*
X897500D02*
D03*
X872500D02*
D03*
X847500D02*
D03*
X1227500D02*
D03*
X1202500D02*
D03*
X1177500D02*
D03*
X1152500D02*
D03*
X1127500D02*
D03*
X1102500D02*
D03*
X1077500D02*
D03*
X627500D02*
D03*
X652500D02*
D03*
X677500D02*
D03*
D57*
X822500D02*
D03*
X1052500D02*
D03*
X602500D02*
D03*
D58*
X22300Y490100D02*
D03*
X47700D02*
D03*
X22300Y439300D02*
D03*
X47700D02*
D03*
X22300Y388500D02*
D03*
X47700D02*
D03*
X22300Y312300D02*
D03*
X47700D02*
D03*
X22300Y261500D02*
D03*
X47700D02*
D03*
X22300Y210700D02*
D03*
X47700D02*
D03*
X22300Y185300D02*
D03*
X47700D02*
D03*
X22300Y109100D02*
D03*
X47700D02*
D03*
X22300Y83700D02*
D03*
X47700Y134500D02*
D03*
X22300D02*
D03*
X47700Y159900D02*
D03*
X22300D02*
D03*
X47700Y236100D02*
D03*
X22300D02*
D03*
X47700Y286900D02*
D03*
X22300D02*
D03*
X47700Y337700D02*
D03*
X22300D02*
D03*
X47700Y363100D02*
D03*
X22300D02*
D03*
X47700Y413900D02*
D03*
X22300D02*
D03*
X47700Y464700D02*
D03*
X22300D02*
D03*
X47700Y515500D02*
D03*
Y540900D02*
D03*
Y566300D02*
D03*
X22300Y515500D02*
D03*
Y540900D02*
D03*
Y566300D02*
D03*
D59*
X47700Y83700D02*
D03*
D60*
X634600Y764600D02*
D03*
X685400D02*
D03*
Y815400D02*
D03*
X634600D02*
D03*
D61*
X660000Y790000D02*
D03*
D62*
X122500Y570000D02*
D03*
D84*
X257000Y800000D02*
D03*
X293000D02*
D03*
D85*
X208019Y765000D02*
D03*
X191981D02*
D03*
X123019Y765000D02*
D03*
X106981D02*
D03*
D88*
X335995Y809500D02*
D03*
Y800000D02*
D03*
Y790500D02*
D03*
X314005D02*
D03*
Y800000D02*
D03*
Y809500D02*
D03*
D89*
X283258Y770000D02*
D03*
X266742D02*
D03*
D91*
X605000Y588000D02*
D03*
Y522000D02*
D03*
X915000Y222000D02*
D03*
Y288000D02*
D03*
X735000Y222000D02*
D03*
Y288000D02*
D03*
D93*
X1009000Y349000D02*
D03*
Y371000D02*
D03*
X1026000D02*
D03*
Y349000D02*
D03*
D94*
X958161Y398100D02*
D03*
D95*
Y385400D02*
D03*
Y372700D02*
D03*
Y360000D02*
D03*
Y347300D02*
D03*
Y334600D02*
D03*
Y321900D02*
D03*
X911839D02*
D03*
Y334600D02*
D03*
Y347300D02*
D03*
Y360000D02*
D03*
Y372700D02*
D03*
Y385400D02*
D03*
Y398100D02*
D03*
D98*
X916750Y492500D02*
D03*
D99*
X953250D02*
D03*
D100*
X950004Y439570D02*
D03*
X945003D02*
D03*
X940001D02*
D03*
X935000D02*
D03*
X929999D02*
D03*
X924997D02*
D03*
X919996D02*
D03*
Y470430D02*
D03*
X924997D02*
D03*
X929999D02*
D03*
X935000D02*
D03*
X940001D02*
D03*
X945003D02*
D03*
X950004D02*
D03*
D101*
X928500Y635000D02*
D03*
X941500D02*
D03*
X935000Y615000D02*
D03*
D102*
X947500Y555500D02*
D03*
Y514500D02*
D03*
D103*
X923750D02*
D03*
Y555500D02*
D03*
D104*
X604175Y790000D02*
D03*
Y785000D02*
D03*
Y775000D02*
D03*
Y770000D02*
D03*
X595825D02*
D03*
Y775000D02*
D03*
Y785000D02*
D03*
Y790000D02*
D03*
D105*
X604175Y780000D02*
D03*
X595825D02*
D03*
D106*
X524000Y806000D02*
D03*
X546000D02*
D03*
Y789000D02*
D03*
X524000D02*
D03*
D107*
X550000Y708650D02*
D03*
Y721350D02*
D03*
D111*
X215000Y675500D02*
D03*
X130000Y675500D02*
D03*
D112*
X238000Y734500D02*
D03*
X215000D02*
D03*
X192000D02*
D03*
X153000Y734500D02*
D03*
X130000D02*
D03*
X107000D02*
D03*
D113*
X73400Y150000D02*
D03*
X86600D02*
D03*
X73400Y195000D02*
D03*
X86600D02*
D03*
D114*
X138000Y572750D02*
D03*
Y566250D02*
D03*
Y559750D02*
D03*
Y553250D02*
D03*
Y546750D02*
D03*
Y540250D02*
D03*
Y533750D02*
D03*
Y527250D02*
D03*
X82000Y572750D02*
D03*
Y566250D02*
D03*
Y559750D02*
D03*
Y553250D02*
D03*
Y546750D02*
D03*
Y540250D02*
D03*
Y533750D02*
D03*
Y527250D02*
D03*
D115*
X1332500Y408650D02*
D03*
Y441350D02*
D03*
D116*
X1304000Y375500D02*
D03*
X1291000D02*
D03*
X1297500Y394500D02*
D03*
D117*
X450000Y735000D02*
D03*
D118*
X411250Y767500D02*
D03*
Y762500D02*
D03*
Y757500D02*
D03*
Y752500D02*
D03*
Y747500D02*
D03*
Y742500D02*
D03*
Y737500D02*
D03*
Y732500D02*
D03*
Y727500D02*
D03*
Y722500D02*
D03*
Y717500D02*
D03*
Y712500D02*
D03*
Y707500D02*
D03*
Y702500D02*
D03*
X488750D02*
D03*
Y707500D02*
D03*
Y712500D02*
D03*
Y717500D02*
D03*
Y722500D02*
D03*
Y727500D02*
D03*
Y732500D02*
D03*
Y737500D02*
D03*
Y742500D02*
D03*
Y747500D02*
D03*
Y752500D02*
D03*
Y757500D02*
D03*
Y762500D02*
D03*
Y767500D02*
D03*
D119*
X417500Y696250D02*
D03*
X422500D02*
D03*
X427500D02*
D03*
X432500D02*
D03*
X437500D02*
D03*
X442500D02*
D03*
X447500D02*
D03*
X452500D02*
D03*
X457500D02*
D03*
X462500D02*
D03*
X467500D02*
D03*
X472500D02*
D03*
X477500D02*
D03*
X482500D02*
D03*
Y773750D02*
D03*
X477500D02*
D03*
X472500D02*
D03*
X467500D02*
D03*
X462500D02*
D03*
X457500D02*
D03*
X452500D02*
D03*
X447500D02*
D03*
X442500D02*
D03*
X437500D02*
D03*
X432500D02*
D03*
X427500D02*
D03*
X422500D02*
D03*
X417500D02*
D03*
M02*
