G04*
G04 #@! TF.GenerationSoftware,Altium Limited,Altium Designer,25.8.1 (18)*
G04*
G04 Layer_Physical_Order=3*
G04 Layer_Color=3150156*
%FSLAX44Y44*%
%MOMM*%
G71*
G04*
G04 #@! TF.SameCoordinates,09717A42-CF54-47D0-A9E9-54450B3338D6*
G04*
G04*
G04 #@! TF.FilePolarity,Positive*
G04*
G01*
G75*
%ADD14C,0.2000*%
%ADD50C,1.5700*%
G04:AMPARAMS|DCode=51|XSize=3.2mm|YSize=1.6mm|CornerRadius=0.8mm|HoleSize=0mm|Usage=FLASHONLY|Rotation=90.000|XOffset=0mm|YOffset=0mm|HoleType=Round|Shape=RoundedRectangle|*
%AMROUNDEDRECTD51*
21,1,3.2000,0.0000,0,0,90.0*
21,1,1.6000,1.6000,0,0,90.0*
1,1,1.6000,0.0000,0.8000*
1,1,1.6000,0.0000,-0.8000*
1,1,1.6000,0.0000,-0.8000*
1,1,1.6000,0.0000,0.8000*
%
%ADD51ROUNDEDRECTD51*%
G04:AMPARAMS|DCode=52|XSize=1.6mm|YSize=3.2mm|CornerRadius=0.8mm|HoleSize=0mm|Usage=FLASHONLY|Rotation=90.000|XOffset=0mm|YOffset=0mm|HoleType=Round|Shape=RoundedRectangle|*
%AMROUNDEDRECTD52*
21,1,1.6000,1.6000,0,0,90.0*
21,1,0.0000,3.2000,0,0,90.0*
1,1,1.6000,0.8000,0.0000*
1,1,1.6000,0.8000,0.0000*
1,1,1.6000,-0.8000,0.0000*
1,1,1.6000,-0.8000,0.0000*
%
%ADD52ROUNDEDRECTD52*%
%ADD55R,1.6000X3.2000*%
%ADD65C,5.0000*%
%ADD66C,0.5000*%
%ADD67C,1.4000*%
%ADD68C,2.5400*%
%ADD69C,1.6000*%
%ADD70C,1.9050*%
%ADD71R,1.4000X1.4000*%
%ADD72R,1.4000X1.4000*%
G04:AMPARAMS|DCode=73|XSize=1.6mm|YSize=1.6mm|CornerRadius=0.4mm|HoleSize=0mm|Usage=FLASHONLY|Rotation=270.000|XOffset=0mm|YOffset=0mm|HoleType=Round|Shape=RoundedRectangle|*
%AMROUNDEDRECTD73*
21,1,1.6000,0.8000,0,0,270.0*
21,1,0.8000,1.6000,0,0,270.0*
1,1,0.8000,-0.4000,-0.4000*
1,1,0.8000,-0.4000,0.4000*
1,1,0.8000,0.4000,0.4000*
1,1,0.8000,0.4000,-0.4000*
%
%ADD73ROUNDEDRECTD73*%
%ADD74C,0.6600*%
%ADD75C,1.5240*%
G36*
X567422Y497311D02*
X572229Y496023D01*
X576826Y494119D01*
X581135Y491631D01*
X585083Y488602D01*
X588602Y485083D01*
X591631Y481135D01*
X594119Y476826D01*
X596023Y472228D01*
X597312Y467422D01*
X597961Y462488D01*
Y460000D01*
X597961Y60000D01*
X597961Y40000D01*
X597961Y37512D01*
X597311Y32578D01*
X596023Y27772D01*
X594119Y23174D01*
X591631Y18865D01*
X588602Y14917D01*
X585083Y11398D01*
X581135Y8369D01*
X576826Y5881D01*
X572228Y3977D01*
X567422Y2689D01*
X562488Y2039D01*
X560000Y2039D01*
X40000Y2039D01*
X37512D01*
X32578Y2688D01*
X27772Y3976D01*
X23174Y5881D01*
X18865Y8369D01*
X14917Y11398D01*
X11398Y14917D01*
X8369Y18865D01*
X5881Y23174D01*
X3977Y27772D01*
X2689Y32578D01*
X2039Y37512D01*
Y40000D01*
Y460000D01*
Y462488D01*
X2689Y467422D01*
X3977Y472228D01*
X5881Y476826D01*
X8369Y481135D01*
X11398Y485083D01*
X14917Y488602D01*
X18865Y491631D01*
X23174Y494119D01*
X27772Y496023D01*
X32578Y497311D01*
X37512Y497961D01*
X562488D01*
X567422Y497311D01*
D02*
G37*
%LPC*%
G36*
X477206Y489116D02*
X475908D01*
Y475908D01*
X489116D01*
Y477206D01*
X488181Y480694D01*
X486376Y483822D01*
X483822Y486376D01*
X480694Y488181D01*
X477206Y489116D01*
D02*
G37*
G36*
X474892D02*
X473594D01*
X470106Y488181D01*
X466978Y486376D01*
X464425Y483822D01*
X462619Y480694D01*
X461684Y477206D01*
Y475908D01*
X474892D01*
Y489116D01*
D02*
G37*
G36*
X426406D02*
X425108D01*
Y475908D01*
X438316D01*
Y477206D01*
X437381Y480694D01*
X435576Y483822D01*
X433022Y486376D01*
X429894Y488181D01*
X426406Y489116D01*
D02*
G37*
G36*
X424092D02*
X422794D01*
X419306Y488181D01*
X416178Y486376D01*
X413624Y483822D01*
X411819Y480694D01*
X410884Y477206D01*
Y475908D01*
X424092D01*
Y489116D01*
D02*
G37*
G36*
X489116Y474892D02*
X475908D01*
Y461684D01*
X477206D01*
X480694Y462619D01*
X483822Y464425D01*
X486376Y466978D01*
X488181Y470106D01*
X489116Y473594D01*
Y474892D01*
D02*
G37*
G36*
X474892D02*
X461684D01*
Y473594D01*
X462619Y470106D01*
X464425Y466978D01*
X466978Y464425D01*
X470106Y462619D01*
X473594Y461684D01*
X474892D01*
Y474892D01*
D02*
G37*
G36*
X438316D02*
X425108D01*
Y461684D01*
X426406D01*
X429894Y462619D01*
X433022Y464425D01*
X435576Y466978D01*
X437381Y470106D01*
X438316Y473594D01*
Y474892D01*
D02*
G37*
G36*
X424092D02*
X410884D01*
Y473594D01*
X411819Y470106D01*
X413624Y466978D01*
X416178Y464425D01*
X419306Y462619D01*
X422794Y461684D01*
X424092D01*
Y474892D01*
D02*
G37*
G36*
X42168Y487540D02*
X41270D01*
Y461270D01*
X67540D01*
Y462168D01*
X66862Y466449D01*
X65522Y470572D01*
X63554Y474434D01*
X61006Y477941D01*
X57941Y481006D01*
X54434Y483554D01*
X50572Y485522D01*
X46449Y486862D01*
X42168Y487540D01*
D02*
G37*
G36*
X38730D02*
X37833D01*
X33551Y486862D01*
X29428Y485522D01*
X25566Y483554D01*
X22059Y481006D01*
X18994Y477941D01*
X16446Y474434D01*
X14478Y470572D01*
X13138Y466449D01*
X12460Y462168D01*
Y461270D01*
X38730D01*
Y487540D01*
D02*
G37*
G36*
X342168D02*
X341270D01*
Y461270D01*
X367540D01*
Y462168D01*
X366862Y466449D01*
X365522Y470572D01*
X363554Y474434D01*
X361006Y477941D01*
X357941Y481006D01*
X354434Y483554D01*
X350572Y485522D01*
X346449Y486862D01*
X342168Y487540D01*
D02*
G37*
G36*
X338730D02*
X337832D01*
X333551Y486862D01*
X329428Y485522D01*
X325566Y483554D01*
X322059Y481006D01*
X318994Y477941D01*
X316446Y474434D01*
X314478Y470572D01*
X313138Y466449D01*
X312460Y462168D01*
Y461270D01*
X338730D01*
Y487540D01*
D02*
G37*
G36*
X562168D02*
X561270D01*
Y461270D01*
X587540D01*
Y462168D01*
X586862Y466449D01*
X585522Y470572D01*
X583554Y474434D01*
X581006Y477941D01*
X577941Y481006D01*
X574434Y483554D01*
X570572Y485522D01*
X566449Y486862D01*
X562168Y487540D01*
D02*
G37*
G36*
X558730D02*
X557833D01*
X553551Y486862D01*
X549428Y485522D01*
X545566Y483554D01*
X542059Y481006D01*
X538994Y477941D01*
X536446Y474434D01*
X534478Y470572D01*
X533138Y466449D01*
X532460Y462168D01*
Y461270D01*
X558730D01*
Y487540D01*
D02*
G37*
G36*
X283755Y468016D02*
X283208D01*
Y460508D01*
X290716D01*
Y461055D01*
X290170Y463094D01*
X289114Y464922D01*
X287622Y466414D01*
X285794Y467470D01*
X283755Y468016D01*
D02*
G37*
G36*
X282192D02*
X281645D01*
X279606Y467470D01*
X277778Y466414D01*
X276286Y464922D01*
X275230Y463094D01*
X274684Y461055D01*
Y460508D01*
X282192D01*
Y468016D01*
D02*
G37*
G36*
X290716Y459492D02*
X283208D01*
Y451984D01*
X283755D01*
X285794Y452530D01*
X287622Y453586D01*
X289114Y455078D01*
X290170Y456906D01*
X290716Y458945D01*
Y459492D01*
D02*
G37*
G36*
X282192D02*
X274684D01*
Y458945D01*
X275230Y456906D01*
X276286Y455078D01*
X277778Y453586D01*
X279606Y452530D01*
X281645Y451984D01*
X282192D01*
Y459492D01*
D02*
G37*
G36*
X451912Y464525D02*
X448088D01*
X444394Y463535D01*
X441082Y461623D01*
X438377Y458919D01*
X436465Y455606D01*
X435475Y451912D01*
Y448088D01*
X436465Y444394D01*
X438377Y441082D01*
X441082Y438377D01*
X444394Y436465D01*
X448088Y435475D01*
X451912D01*
X455606Y436465D01*
X458919Y438377D01*
X461623Y441082D01*
X463535Y444394D01*
X464525Y448088D01*
Y451912D01*
X463535Y455606D01*
X461623Y458919D01*
X458919Y461623D01*
X455606Y463535D01*
X451912Y464525D01*
D02*
G37*
G36*
X587540Y458730D02*
X561270D01*
Y432460D01*
X562168D01*
X566449Y433138D01*
X570572Y434478D01*
X574434Y436446D01*
X577941Y438994D01*
X581006Y442059D01*
X583554Y445566D01*
X585522Y449428D01*
X586862Y453551D01*
X587540Y457832D01*
Y458730D01*
D02*
G37*
G36*
X558730D02*
X532460D01*
Y457832D01*
X533138Y453551D01*
X534478Y449428D01*
X536446Y445566D01*
X538994Y442059D01*
X542059Y438994D01*
X545566Y436446D01*
X549428Y434478D01*
X553551Y433138D01*
X557833Y432460D01*
X558730D01*
Y458730D01*
D02*
G37*
G36*
X367540Y458730D02*
X341270D01*
Y432460D01*
X342168D01*
X346449Y433138D01*
X350572Y434478D01*
X354434Y436446D01*
X357941Y438994D01*
X361006Y442059D01*
X363554Y445566D01*
X365522Y449428D01*
X366862Y453551D01*
X367540Y457832D01*
Y458730D01*
D02*
G37*
G36*
X338730D02*
X312460D01*
Y457832D01*
X313138Y453551D01*
X314478Y449428D01*
X316446Y445566D01*
X318994Y442059D01*
X322059Y438994D01*
X325566Y436446D01*
X329428Y434478D01*
X333551Y433138D01*
X337832Y432460D01*
X338730D01*
Y458730D01*
D02*
G37*
G36*
X67540Y458730D02*
X41270D01*
Y432460D01*
X42168D01*
X46449Y433138D01*
X50572Y434478D01*
X54434Y436446D01*
X57941Y438994D01*
X61006Y442059D01*
X63554Y445566D01*
X65522Y449428D01*
X66862Y453551D01*
X67540Y457832D01*
Y458730D01*
D02*
G37*
G36*
X38730D02*
X12460D01*
Y457832D01*
X13138Y453551D01*
X14478Y449428D01*
X16446Y445566D01*
X18994Y442059D01*
X22059Y438994D01*
X25566Y436446D01*
X29428Y434478D01*
X33551Y433138D01*
X37833Y432460D01*
X38730D01*
Y458730D01*
D02*
G37*
G36*
X477206Y438316D02*
X475908D01*
Y425108D01*
X489116D01*
Y426406D01*
X488181Y429894D01*
X486376Y433022D01*
X483822Y435576D01*
X480694Y437381D01*
X477206Y438316D01*
D02*
G37*
G36*
X474892D02*
X473594D01*
X470106Y437381D01*
X466978Y435576D01*
X464425Y433022D01*
X462619Y429894D01*
X461684Y426406D01*
Y425108D01*
X474892D01*
Y438316D01*
D02*
G37*
G36*
X426406D02*
X425108D01*
Y425108D01*
X438316D01*
Y426406D01*
X437381Y429894D01*
X435576Y433022D01*
X433022Y435576D01*
X429894Y437381D01*
X426406Y438316D01*
D02*
G37*
G36*
X424092D02*
X422794D01*
X419306Y437381D01*
X416178Y435576D01*
X413624Y433022D01*
X411819Y429894D01*
X410884Y426406D01*
Y425108D01*
X424092D01*
Y438316D01*
D02*
G37*
G36*
X489116Y424092D02*
X475908D01*
Y410884D01*
X477206D01*
X480694Y411819D01*
X483822Y413624D01*
X486376Y416178D01*
X488181Y419306D01*
X489116Y422794D01*
Y424092D01*
D02*
G37*
G36*
X474892D02*
X461684D01*
Y422794D01*
X462619Y419306D01*
X464425Y416178D01*
X466978Y413624D01*
X470106Y411819D01*
X473594Y410884D01*
X474892D01*
Y424092D01*
D02*
G37*
G36*
X438316D02*
X425108D01*
Y410884D01*
X426406D01*
X429894Y411819D01*
X433022Y413624D01*
X435576Y416178D01*
X437381Y419306D01*
X438316Y422794D01*
Y424092D01*
D02*
G37*
G36*
X424092D02*
X410884D01*
Y422794D01*
X411819Y419306D01*
X413624Y416178D01*
X416178Y413624D01*
X419306Y411819D01*
X422794Y410884D01*
X424092D01*
Y424092D01*
D02*
G37*
G36*
X520796Y406500D02*
X519204D01*
X517734Y405891D01*
X516609Y404766D01*
X516000Y403296D01*
Y401704D01*
X516609Y400234D01*
X517734Y399109D01*
X519204Y398500D01*
X520796D01*
X522266Y399109D01*
X523391Y400234D01*
X524000Y401704D01*
Y403296D01*
X523391Y404766D01*
X522266Y405891D01*
X520796Y406500D01*
D02*
G37*
G36*
X552988Y394000D02*
X551397D01*
X549927Y393391D01*
X548802Y392266D01*
X548193Y390796D01*
Y389204D01*
X548802Y387734D01*
X549927Y386609D01*
X551397Y386000D01*
X552988D01*
X554459Y386609D01*
X555584Y387734D01*
X556193Y389204D01*
Y390796D01*
X555584Y392266D01*
X554459Y393391D01*
X552988Y394000D01*
D02*
G37*
G36*
X378296Y384000D02*
X376704D01*
X375234Y383391D01*
X374109Y382266D01*
X373500Y380796D01*
Y379204D01*
X374109Y377734D01*
X375234Y376609D01*
X376704Y376000D01*
X378296D01*
X379766Y376609D01*
X380891Y377734D01*
X381500Y379204D01*
Y380796D01*
X380891Y382266D01*
X379766Y383391D01*
X378296Y384000D01*
D02*
G37*
G36*
X520796Y381500D02*
X519204D01*
X517734Y380891D01*
X516609Y379766D01*
X516000Y378296D01*
Y376704D01*
X516609Y375234D01*
X517734Y374109D01*
X519204Y373500D01*
X520796D01*
X522266Y374109D01*
X523391Y375234D01*
X524000Y376704D01*
Y378296D01*
X523391Y379766D01*
X522266Y380891D01*
X520796Y381500D01*
D02*
G37*
G36*
X75508Y387027D02*
Y370508D01*
X84094D01*
Y378000D01*
X83784Y380354D01*
X82875Y382547D01*
X81430Y384430D01*
X79547Y385876D01*
X77354Y386784D01*
X75508Y387027D01*
D02*
G37*
G36*
X74492D02*
X72646Y386784D01*
X70453Y385876D01*
X68570Y384430D01*
X67125Y382547D01*
X66216Y380354D01*
X65906Y378000D01*
Y370508D01*
X74492D01*
Y387027D01*
D02*
G37*
G36*
X144016Y387016D02*
X125984D01*
Y352984D01*
X144016D01*
Y387016D01*
D02*
G37*
G36*
X74492Y369492D02*
X65906D01*
Y362000D01*
X66216Y359646D01*
X67125Y357453D01*
X68570Y355570D01*
X70453Y354124D01*
X72646Y353216D01*
X74492Y352973D01*
Y369492D01*
D02*
G37*
G36*
X84094D02*
X75508D01*
Y352973D01*
X77354Y353216D01*
X79547Y354124D01*
X81430Y355570D01*
X82875Y357453D01*
X83784Y359646D01*
X84094Y362000D01*
Y369492D01*
D02*
G37*
G36*
X113000Y332094D02*
X105508D01*
Y323508D01*
X122027D01*
X121784Y325354D01*
X120876Y327547D01*
X119430Y329430D01*
X117547Y330875D01*
X115354Y331784D01*
X113000Y332094D01*
D02*
G37*
G36*
X104492D02*
X97000D01*
X94646Y331784D01*
X92453Y330875D01*
X90570Y329430D01*
X89125Y327547D01*
X88216Y325354D01*
X87973Y323508D01*
X104492D01*
Y332094D01*
D02*
G37*
G36*
X564000Y335314D02*
X556000D01*
X554043Y334925D01*
X552384Y333816D01*
X551275Y332157D01*
X550886Y330200D01*
Y322200D01*
X551275Y320243D01*
X552384Y318584D01*
X554043Y317475D01*
X556000Y317086D01*
X564000D01*
X565957Y317475D01*
X567616Y318584D01*
X568725Y320243D01*
X569114Y322200D01*
Y330200D01*
X568725Y332157D01*
X567616Y333816D01*
X565957Y334925D01*
X564000Y335314D01*
D02*
G37*
G36*
X122027Y322492D02*
X105508D01*
Y313906D01*
X113000D01*
X115354Y314216D01*
X117547Y315124D01*
X119430Y316570D01*
X120876Y318453D01*
X121784Y320646D01*
X122027Y322492D01*
D02*
G37*
G36*
X104492D02*
X87973D01*
X88216Y320646D01*
X89125Y318453D01*
X90570Y316570D01*
X92453Y315124D01*
X94646Y314216D01*
X97000Y313906D01*
X104492D01*
Y322492D01*
D02*
G37*
G36*
X246167Y331366D02*
X243833D01*
X241578Y330762D01*
X239556Y329595D01*
X237905Y327944D01*
X236738Y325922D01*
X236134Y323667D01*
Y321333D01*
X236738Y319078D01*
X237905Y317056D01*
X239556Y315405D01*
X241578Y314238D01*
X243833Y313634D01*
X246167D01*
X248422Y314238D01*
X250444Y315405D01*
X252095Y317056D01*
X253262Y319078D01*
X253866Y321333D01*
Y323667D01*
X253262Y325922D01*
X252095Y327944D01*
X250444Y329595D01*
X248422Y330762D01*
X246167Y331366D01*
D02*
G37*
G36*
X468296Y294000D02*
X466704D01*
X465234Y293391D01*
X464379Y292536D01*
X463750Y292364D01*
X463121Y292536D01*
X462266Y293391D01*
X460796Y294000D01*
X459204D01*
X457734Y293391D01*
X456609Y292266D01*
X456000Y290796D01*
Y289204D01*
X456609Y287734D01*
X457734Y286609D01*
X459204Y286000D01*
X460796D01*
X462266Y286609D01*
X463121Y287464D01*
X463750Y287636D01*
X464379Y287464D01*
X465234Y286609D01*
X466704Y286000D01*
X468296D01*
X469766Y286609D01*
X470891Y287734D01*
X471500Y289204D01*
Y290796D01*
X470891Y292266D01*
X469766Y293391D01*
X468296Y294000D01*
D02*
G37*
G36*
X561187Y309816D02*
X558813D01*
X556520Y309202D01*
X554464Y308015D01*
X552785Y306336D01*
X551598Y304280D01*
X550984Y301987D01*
Y299613D01*
X551598Y297320D01*
X552785Y295264D01*
X554464Y293585D01*
X556520Y292398D01*
X558813Y291784D01*
X561187D01*
X563480Y292398D01*
X565536Y293585D01*
X567215Y295264D01*
X568402Y297320D01*
X569016Y299613D01*
Y301987D01*
X568402Y304280D01*
X567215Y306336D01*
X565536Y308015D01*
X563480Y309202D01*
X561187Y309816D01*
D02*
G37*
G36*
X500796Y294000D02*
X499204D01*
X497734Y293391D01*
X496609Y292266D01*
X496000Y290796D01*
Y289204D01*
X496609Y287734D01*
X497734Y286609D01*
X499204Y286000D01*
X500796D01*
X502266Y286609D01*
X503391Y287734D01*
X504000Y289204D01*
Y290796D01*
X503391Y292266D01*
X502266Y293391D01*
X500796Y294000D01*
D02*
G37*
G36*
X440796D02*
X439204D01*
X437734Y293391D01*
X436609Y292266D01*
X436000Y290796D01*
Y289204D01*
X436609Y287734D01*
X437734Y286609D01*
X439204Y286000D01*
X440796D01*
X442266Y286609D01*
X443391Y287734D01*
X444000Y289204D01*
Y290796D01*
X443391Y292266D01*
X442266Y293391D01*
X440796Y294000D01*
D02*
G37*
G36*
X398296Y279000D02*
X396704D01*
X395234Y278391D01*
X394379Y277536D01*
X393750Y277364D01*
X393121Y277536D01*
X392266Y278391D01*
X390796Y279000D01*
X389204D01*
X387734Y278391D01*
X386879Y277536D01*
X386250Y277364D01*
X385621Y277536D01*
X384766Y278391D01*
X383296Y279000D01*
X381704D01*
X380234Y278391D01*
X379109Y277266D01*
X378500Y275796D01*
Y274204D01*
X379109Y272734D01*
X380234Y271609D01*
X381704Y271000D01*
X383296D01*
X384766Y271609D01*
X385621Y272464D01*
X386250Y272636D01*
X386879Y272464D01*
X387734Y271609D01*
X389204Y271000D01*
X390796D01*
X392266Y271609D01*
X393121Y272464D01*
X393750Y272636D01*
X394379Y272464D01*
X395234Y271609D01*
X396704Y271000D01*
X398296D01*
X399766Y271609D01*
X400891Y272734D01*
X401500Y274204D01*
Y275796D01*
X400891Y277266D01*
X399766Y278391D01*
X398296Y279000D01*
D02*
G37*
G36*
X561187Y284416D02*
X558813D01*
X556520Y283802D01*
X554464Y282615D01*
X552785Y280936D01*
X551598Y278880D01*
X550984Y276587D01*
Y274213D01*
X551598Y271920D01*
X552785Y269864D01*
X554464Y268185D01*
X556520Y266998D01*
X558813Y266384D01*
X561187D01*
X563480Y266998D01*
X565536Y268185D01*
X567215Y269864D01*
X568402Y271920D01*
X569016Y274213D01*
Y276587D01*
X568402Y278880D01*
X567215Y280936D01*
X565536Y282615D01*
X563480Y283802D01*
X561187Y284416D01*
D02*
G37*
G36*
X103137Y273636D02*
X100863D01*
X98667Y273048D01*
X96697Y271911D01*
X95090Y270303D01*
X93953Y268333D01*
X93364Y266137D01*
Y263863D01*
X93953Y261667D01*
X95090Y259697D01*
X96697Y258090D01*
X98667Y256952D01*
X100863Y256364D01*
X103137D01*
X105333Y256952D01*
X107303Y258090D01*
X108911Y259697D01*
X110048Y261667D01*
X110636Y263863D01*
Y266137D01*
X110048Y268333D01*
X108911Y270303D01*
X107303Y271911D01*
X105333Y273048D01*
X103137Y273636D01*
D02*
G37*
G36*
X415796Y266500D02*
X414204D01*
X412734Y265891D01*
X411609Y264766D01*
X411000Y263296D01*
Y261704D01*
X411609Y260234D01*
X412464Y259379D01*
X412636Y258750D01*
X412464Y258121D01*
X411609Y257266D01*
X411000Y255796D01*
Y254204D01*
X411609Y252734D01*
X412734Y251609D01*
X414204Y251000D01*
X415796D01*
X417266Y251609D01*
X418391Y252734D01*
X419000Y254204D01*
Y255796D01*
X418391Y257266D01*
X417536Y258121D01*
X417364Y258750D01*
X417536Y259379D01*
X418391Y260234D01*
X419000Y261704D01*
Y263296D01*
X418391Y264766D01*
X417266Y265891D01*
X415796Y266500D01*
D02*
G37*
G36*
X163296Y256500D02*
X161704D01*
X160234Y255891D01*
X159109Y254766D01*
X158500Y253296D01*
Y251704D01*
X159109Y250234D01*
X160234Y249109D01*
X161704Y248500D01*
X163296D01*
X164766Y249109D01*
X165891Y250234D01*
X166500Y251704D01*
Y253296D01*
X165891Y254766D01*
X164766Y255891D01*
X163296Y256500D01*
D02*
G37*
G36*
X355796Y254000D02*
X354204D01*
X352734Y253391D01*
X351609Y252266D01*
X351000Y250796D01*
Y249204D01*
X351609Y247734D01*
X352734Y246609D01*
X354204Y246000D01*
X355796D01*
X357266Y246609D01*
X358391Y247734D01*
X359000Y249204D01*
Y250796D01*
X358391Y252266D01*
X357266Y253391D01*
X355796Y254000D01*
D02*
G37*
G36*
X561187Y259016D02*
X558813D01*
X556520Y258402D01*
X554464Y257215D01*
X552785Y255536D01*
X551598Y253480D01*
X550984Y251187D01*
Y248813D01*
X551598Y246520D01*
X552785Y244464D01*
X554464Y242785D01*
X556520Y241598D01*
X558813Y240984D01*
X561187D01*
X563480Y241598D01*
X565536Y242785D01*
X567215Y244464D01*
X568402Y246520D01*
X569016Y248813D01*
Y251187D01*
X568402Y253480D01*
X567215Y255536D01*
X565536Y257215D01*
X563480Y258402D01*
X561187Y259016D01*
D02*
G37*
G36*
X485796Y261500D02*
X484204D01*
X482734Y260891D01*
X481609Y259766D01*
X481000Y258296D01*
Y256704D01*
X481609Y255234D01*
X482464Y254379D01*
X482636Y253750D01*
X482464Y253121D01*
X481609Y252266D01*
X481000Y250796D01*
Y249204D01*
X481609Y247734D01*
X482464Y246879D01*
X482636Y246250D01*
X482464Y245621D01*
X481609Y244766D01*
X481000Y243296D01*
Y241704D01*
X481609Y240234D01*
X482464Y239379D01*
X482636Y238750D01*
X482464Y238121D01*
X481609Y237266D01*
X481000Y235796D01*
Y234204D01*
X481609Y232734D01*
X482734Y231609D01*
X484204Y231000D01*
X485796D01*
X487266Y231609D01*
X488391Y232734D01*
X489000Y234204D01*
Y235796D01*
X488391Y237266D01*
X487536Y238121D01*
X487364Y238750D01*
X487536Y239379D01*
X488391Y240234D01*
X489000Y241704D01*
Y243296D01*
X488391Y244766D01*
X487536Y245621D01*
X487364Y246250D01*
X487536Y246879D01*
X488391Y247734D01*
X489000Y249204D01*
Y250796D01*
X488391Y252266D01*
X487536Y253121D01*
X487364Y253750D01*
X487536Y254379D01*
X488391Y255234D01*
X489000Y256704D01*
Y258296D01*
X488391Y259766D01*
X487266Y260891D01*
X485796Y261500D01*
D02*
G37*
G36*
X51137Y238636D02*
X50508D01*
Y230508D01*
X58636D01*
Y231137D01*
X58047Y233333D01*
X56911Y235303D01*
X55303Y236910D01*
X53333Y238048D01*
X51137Y238636D01*
D02*
G37*
G36*
X49492D02*
X48863D01*
X46667Y238048D01*
X44697Y236910D01*
X43089Y235303D01*
X41953Y233333D01*
X41364Y231137D01*
Y230508D01*
X49492D01*
Y238636D01*
D02*
G37*
G36*
X265316Y468016D02*
X249284D01*
Y451984D01*
X255245D01*
Y335200D01*
X255245Y335200D01*
X255401Y334413D01*
X255847Y333747D01*
X363367Y226227D01*
X363367Y226227D01*
X364033Y225781D01*
X364820Y225625D01*
X411702D01*
X411789Y225414D01*
X412914Y224289D01*
X414384Y223680D01*
X415976D01*
X417446Y224289D01*
X418571Y225414D01*
X419180Y226884D01*
Y228476D01*
X418571Y229946D01*
X417751Y230766D01*
X417487Y231224D01*
X417716Y232059D01*
X418391Y232734D01*
X419000Y234204D01*
Y235796D01*
X418391Y237266D01*
X417266Y238391D01*
X415796Y239000D01*
X414204D01*
X412734Y238391D01*
X411609Y237266D01*
X411000Y235796D01*
Y234204D01*
X411609Y232734D01*
X412429Y231914D01*
X412692Y231456D01*
X412464Y230621D01*
X411789Y229946D01*
X411702Y229736D01*
X365672D01*
X259356Y336051D01*
Y451984D01*
X265316D01*
Y468016D01*
D02*
G37*
G36*
X180796Y231500D02*
X179204D01*
X177734Y230891D01*
X176609Y229766D01*
X176000Y228296D01*
Y226704D01*
X176609Y225234D01*
X177734Y224109D01*
X179204Y223500D01*
X180796D01*
X182266Y224109D01*
X183391Y225234D01*
X184000Y226704D01*
Y228296D01*
X183391Y229766D01*
X182266Y230891D01*
X180796Y231500D01*
D02*
G37*
G36*
X58636Y229492D02*
X50508D01*
Y221364D01*
X51137D01*
X53333Y221952D01*
X55303Y223090D01*
X56911Y224697D01*
X58047Y226667D01*
X58636Y228863D01*
Y229492D01*
D02*
G37*
G36*
X49492D02*
X41364D01*
Y228863D01*
X41953Y226667D01*
X43089Y224697D01*
X44697Y223090D01*
X46667Y221952D01*
X48863Y221364D01*
X49492D01*
Y229492D01*
D02*
G37*
G36*
X435796Y219000D02*
X434204D01*
X432734Y218391D01*
X431879Y217536D01*
X431250Y217364D01*
X430621Y217536D01*
X429766Y218391D01*
X428296Y219000D01*
X426704D01*
X425234Y218391D01*
X424109Y217266D01*
X423500Y215796D01*
Y214204D01*
X424109Y212734D01*
X425234Y211609D01*
X426704Y211000D01*
X428296D01*
X429766Y211609D01*
X430621Y212464D01*
X431250Y212636D01*
X431879Y212464D01*
X432734Y211609D01*
X434204Y211000D01*
X435796D01*
X437266Y211609D01*
X438391Y212734D01*
X439000Y214204D01*
Y215796D01*
X438391Y217266D01*
X437266Y218391D01*
X435796Y219000D01*
D02*
G37*
G36*
X561187Y233616D02*
X558813D01*
X556520Y233002D01*
X554464Y231815D01*
X552785Y230136D01*
X551598Y228080D01*
X550984Y225787D01*
Y223413D01*
X551598Y221120D01*
X552785Y219064D01*
X554464Y217385D01*
X556520Y216198D01*
X558813Y215584D01*
X561187D01*
X563480Y216198D01*
X565536Y217385D01*
X567215Y219064D01*
X568402Y221120D01*
X569016Y223413D01*
Y225787D01*
X568402Y228080D01*
X567215Y230136D01*
X565536Y231815D01*
X563480Y233002D01*
X561187Y233616D01*
D02*
G37*
G36*
X245796Y221500D02*
X244204D01*
X242734Y220891D01*
X241609Y219766D01*
X241000Y218296D01*
Y216704D01*
X241609Y215234D01*
X242734Y214109D01*
X244204Y213500D01*
X245796D01*
X247266Y214109D01*
X248391Y215234D01*
X249000Y216704D01*
Y218296D01*
X248391Y219766D01*
X247266Y220891D01*
X245796Y221500D01*
D02*
G37*
G36*
X235796D02*
X234204D01*
X232734Y220891D01*
X231609Y219766D01*
X231000Y218296D01*
Y216704D01*
X231609Y215234D01*
X232734Y214109D01*
X234204Y213500D01*
X235796D01*
X237266Y214109D01*
X238391Y215234D01*
X239000Y216704D01*
Y218296D01*
X238391Y219766D01*
X237266Y220891D01*
X235796Y221500D01*
D02*
G37*
G36*
X225796D02*
X224204D01*
X222734Y220891D01*
X221609Y219766D01*
X221000Y218296D01*
Y216704D01*
X221609Y215234D01*
X222734Y214109D01*
X224204Y213500D01*
X225796D01*
X227266Y214109D01*
X228391Y215234D01*
X229000Y216704D01*
Y218296D01*
X228391Y219766D01*
X227266Y220891D01*
X225796Y221500D01*
D02*
G37*
G36*
X350796Y219000D02*
X349204D01*
X347734Y218391D01*
X346609Y217266D01*
X346000Y215796D01*
Y214204D01*
X346609Y212734D01*
X347734Y211609D01*
X349204Y211000D01*
X350796D01*
X352266Y211609D01*
X353391Y212734D01*
X354000Y214204D01*
Y215796D01*
X353391Y217266D01*
X352266Y218391D01*
X350796Y219000D01*
D02*
G37*
G36*
X340796D02*
X339204D01*
X337734Y218391D01*
X336609Y217266D01*
X336000Y215796D01*
Y214204D01*
X336609Y212734D01*
X337734Y211609D01*
X339204Y211000D01*
X340796D01*
X342266Y211609D01*
X343391Y212734D01*
X344000Y214204D01*
Y215796D01*
X343391Y217266D01*
X342266Y218391D01*
X340796Y219000D01*
D02*
G37*
G36*
X330796D02*
X329204D01*
X327734Y218391D01*
X326609Y217266D01*
X326000Y215796D01*
Y214204D01*
X326609Y212734D01*
X327734Y211609D01*
X329204Y211000D01*
X330796D01*
X332266Y211609D01*
X333391Y212734D01*
X334000Y214204D01*
Y215796D01*
X333391Y217266D01*
X332266Y218391D01*
X330796Y219000D01*
D02*
G37*
G36*
X406167Y218866D02*
X403833D01*
X401578Y218262D01*
X399556Y217095D01*
X397905Y215444D01*
X396738Y213422D01*
X396134Y211167D01*
Y208833D01*
X396738Y206578D01*
X397905Y204556D01*
X399556Y202905D01*
X401578Y201738D01*
X403833Y201134D01*
X406167D01*
X408422Y201738D01*
X410444Y202905D01*
X412095Y204556D01*
X413262Y206578D01*
X413866Y208833D01*
Y211167D01*
X413262Y213422D01*
X412095Y215444D01*
X410444Y217095D01*
X408422Y218262D01*
X406167Y218866D01*
D02*
G37*
G36*
X480987Y195000D02*
X479013D01*
X477105Y194489D01*
X476250Y193995D01*
X475395Y194489D01*
X473487Y195000D01*
X471513D01*
X469605Y194489D01*
X467895Y193501D01*
X466498Y192105D01*
X465511Y190395D01*
X465000Y188487D01*
Y186513D01*
X465511Y184605D01*
X466498Y182895D01*
X467895Y181499D01*
X469605Y180511D01*
X471513Y180000D01*
X473487D01*
X475395Y180511D01*
X476250Y181005D01*
X477105Y180511D01*
X479013Y180000D01*
X480987D01*
X482895Y180511D01*
X484605Y181499D01*
X486002Y182895D01*
X486989Y184605D01*
X487500Y186513D01*
Y188487D01*
X486989Y190395D01*
X486002Y192105D01*
X484605Y193501D01*
X482895Y194489D01*
X480987Y195000D01*
D02*
G37*
G36*
X561187Y208216D02*
X558813D01*
X556520Y207602D01*
X554464Y206415D01*
X552785Y204736D01*
X551598Y202680D01*
X550984Y200387D01*
Y198013D01*
X551598Y195720D01*
X552785Y193664D01*
X554464Y191985D01*
X556520Y190798D01*
X558813Y190184D01*
X561187D01*
X563480Y190798D01*
X565536Y191985D01*
X567215Y193664D01*
X568402Y195720D01*
X569016Y198013D01*
Y200387D01*
X568402Y202680D01*
X567215Y204736D01*
X565536Y206415D01*
X563480Y207602D01*
X561187Y208216D01*
D02*
G37*
G36*
X515796Y194000D02*
X514204D01*
X512734Y193391D01*
X511609Y192266D01*
X511000Y190796D01*
Y189204D01*
X511609Y187734D01*
X512734Y186609D01*
X514204Y186000D01*
X515796D01*
X517266Y186609D01*
X518391Y187734D01*
X519000Y189204D01*
Y190796D01*
X518391Y192266D01*
X517266Y193391D01*
X515796Y194000D01*
D02*
G37*
G36*
X41167Y188866D02*
X38833D01*
X36578Y188262D01*
X34556Y187095D01*
X32905Y185444D01*
X31738Y183422D01*
X31134Y181167D01*
Y178833D01*
X31738Y176578D01*
X32905Y174556D01*
X34556Y172905D01*
X36578Y171738D01*
X38833Y171134D01*
X41167D01*
X43422Y171738D01*
X45444Y172905D01*
X47095Y174556D01*
X48262Y176578D01*
X48866Y178833D01*
Y181167D01*
X48262Y183422D01*
X47095Y185444D01*
X45444Y187095D01*
X43422Y188262D01*
X41167Y188866D01*
D02*
G37*
G36*
X246167Y186366D02*
X243833D01*
X241578Y185762D01*
X239556Y184595D01*
X237905Y182944D01*
X236738Y180922D01*
X236134Y178667D01*
Y176333D01*
X236738Y174078D01*
X237905Y172056D01*
X239556Y170405D01*
X241578Y169238D01*
X243833Y168634D01*
X246167D01*
X248422Y169238D01*
X250444Y170405D01*
X252095Y172056D01*
X253262Y174078D01*
X253866Y176333D01*
Y178667D01*
X253262Y180922D01*
X252095Y182944D01*
X250444Y184595D01*
X248422Y185762D01*
X246167Y186366D01*
D02*
G37*
G36*
X561187Y182816D02*
X558813D01*
X556520Y182202D01*
X554464Y181015D01*
X552785Y179336D01*
X551598Y177280D01*
X550984Y174987D01*
Y172613D01*
X551598Y170320D01*
X552785Y168264D01*
X554464Y166585D01*
X556520Y165398D01*
X558813Y164784D01*
X561187D01*
X563480Y165398D01*
X565536Y166585D01*
X567215Y168264D01*
X568402Y170320D01*
X569016Y172613D01*
Y174987D01*
X568402Y177280D01*
X567215Y179336D01*
X565536Y181015D01*
X563480Y182202D01*
X561187Y182816D01*
D02*
G37*
G36*
X245796Y156500D02*
X244204D01*
X242734Y155891D01*
X241609Y154766D01*
X241000Y153296D01*
Y151704D01*
X241609Y150234D01*
X242734Y149109D01*
X244204Y148500D01*
X245796D01*
X247266Y149109D01*
X248391Y150234D01*
X249000Y151704D01*
Y153296D01*
X248391Y154766D01*
X247266Y155891D01*
X245796Y156500D01*
D02*
G37*
G36*
X235796D02*
X234204D01*
X232734Y155891D01*
X231609Y154766D01*
X231000Y153296D01*
Y151704D01*
X231609Y150234D01*
X232734Y149109D01*
X234204Y148500D01*
X235796D01*
X237266Y149109D01*
X238391Y150234D01*
X239000Y151704D01*
Y153296D01*
X238391Y154766D01*
X237266Y155891D01*
X235796Y156500D01*
D02*
G37*
G36*
X225796D02*
X224204D01*
X222734Y155891D01*
X221609Y154766D01*
X221000Y153296D01*
Y151704D01*
X221609Y150234D01*
X222734Y149109D01*
X224204Y148500D01*
X225796D01*
X227266Y149109D01*
X228391Y150234D01*
X229000Y151704D01*
Y153296D01*
X228391Y154766D01*
X227266Y155891D01*
X225796Y156500D01*
D02*
G37*
G36*
X350796Y154000D02*
X349204D01*
X347734Y153391D01*
X346609Y152266D01*
X346000Y150796D01*
Y149204D01*
X346609Y147734D01*
X347734Y146609D01*
X349204Y146000D01*
X350796D01*
X352266Y146609D01*
X353391Y147734D01*
X354000Y149204D01*
Y150796D01*
X353391Y152266D01*
X352266Y153391D01*
X350796Y154000D01*
D02*
G37*
G36*
X340796D02*
X339204D01*
X337734Y153391D01*
X336609Y152266D01*
X336000Y150796D01*
Y149204D01*
X336609Y147734D01*
X337734Y146609D01*
X339204Y146000D01*
X340796D01*
X342266Y146609D01*
X343391Y147734D01*
X344000Y149204D01*
Y150796D01*
X343391Y152266D01*
X342266Y153391D01*
X340796Y154000D01*
D02*
G37*
G36*
X330796D02*
X329204D01*
X327734Y153391D01*
X326609Y152266D01*
X326000Y150796D01*
Y149204D01*
X326609Y147734D01*
X327734Y146609D01*
X329204Y146000D01*
X330796D01*
X332266Y146609D01*
X333391Y147734D01*
X334000Y149204D01*
Y150796D01*
X333391Y152266D01*
X332266Y153391D01*
X330796Y154000D01*
D02*
G37*
G36*
X406167Y153866D02*
X403833D01*
X401578Y153262D01*
X399556Y152095D01*
X397905Y150444D01*
X396738Y148422D01*
X396134Y146167D01*
Y143833D01*
X396738Y141578D01*
X397905Y139556D01*
X399556Y137905D01*
X401578Y136738D01*
X403833Y136134D01*
X406167D01*
X408422Y136738D01*
X410444Y137905D01*
X412095Y139556D01*
X413262Y141578D01*
X413866Y143833D01*
Y146167D01*
X413262Y148422D01*
X412095Y150444D01*
X410444Y152095D01*
X408422Y153262D01*
X406167Y153866D01*
D02*
G37*
G36*
X41167Y143866D02*
X38833D01*
X36578Y143262D01*
X34556Y142095D01*
X32905Y140444D01*
X31738Y138422D01*
X31134Y136167D01*
Y133833D01*
X31738Y131578D01*
X32905Y129556D01*
X34556Y127905D01*
X36578Y126738D01*
X38833Y126134D01*
X41167D01*
X43422Y126738D01*
X45444Y127905D01*
X47095Y129556D01*
X48262Y131578D01*
X48866Y133833D01*
Y136167D01*
X48262Y138422D01*
X47095Y140444D01*
X45444Y142095D01*
X43422Y143262D01*
X41167Y143866D01*
D02*
G37*
G36*
X561055Y140716D02*
X558945D01*
X556906Y140170D01*
X555078Y139114D01*
X553586Y137622D01*
X552530Y135794D01*
X551984Y133755D01*
Y131645D01*
X552530Y129606D01*
X553586Y127778D01*
X555078Y126286D01*
X556906Y125230D01*
X558945Y124684D01*
X561055D01*
X563094Y125230D01*
X564922Y126286D01*
X566414Y127778D01*
X567470Y129606D01*
X568016Y131645D01*
Y133755D01*
X567470Y135794D01*
X566414Y137622D01*
X564922Y139114D01*
X563094Y140170D01*
X561055Y140716D01*
D02*
G37*
G36*
X501055D02*
X498945D01*
X496906Y140170D01*
X495078Y139114D01*
X493586Y137622D01*
X492530Y135794D01*
X491984Y133755D01*
Y131645D01*
X492530Y129606D01*
X493586Y127778D01*
X495078Y126286D01*
X496906Y125230D01*
X498945Y124684D01*
X501055D01*
X503094Y125230D01*
X504922Y126286D01*
X506414Y127778D01*
X507470Y129606D01*
X508016Y131645D01*
Y133755D01*
X507470Y135794D01*
X506414Y137622D01*
X504922Y139114D01*
X503094Y140170D01*
X501055Y140716D01*
D02*
G37*
G36*
X476055D02*
X473945D01*
X471906Y140170D01*
X470078Y139114D01*
X468586Y137622D01*
X467530Y135794D01*
X466984Y133755D01*
Y131645D01*
X467530Y129606D01*
X468586Y127778D01*
X470078Y126286D01*
X471906Y125230D01*
X473945Y124684D01*
X476055D01*
X478094Y125230D01*
X479922Y126286D01*
X481414Y127778D01*
X482470Y129606D01*
X483016Y131645D01*
Y133755D01*
X482470Y135794D01*
X481414Y137622D01*
X479922Y139114D01*
X478094Y140170D01*
X476055Y140716D01*
D02*
G37*
G36*
X520796Y109000D02*
X519204D01*
X517734Y108391D01*
X516609Y107266D01*
X516000Y105796D01*
Y104204D01*
X516609Y102734D01*
X517734Y101609D01*
X519204Y101000D01*
X520796D01*
X522266Y101609D01*
X523391Y102734D01*
X524000Y104204D01*
Y105796D01*
X523391Y107266D01*
X522266Y108391D01*
X520796Y109000D01*
D02*
G37*
G36*
X568016Y115316D02*
X551984D01*
Y99284D01*
X568016D01*
Y115316D01*
D02*
G37*
G36*
X508016D02*
X491984D01*
Y99284D01*
X508016D01*
Y115316D01*
D02*
G37*
G36*
X483016D02*
X466984D01*
Y99284D01*
X483016D01*
Y115316D01*
D02*
G37*
G36*
X459737Y95000D02*
X457763D01*
X455855Y94489D01*
X455000Y93995D01*
X454145Y94489D01*
X452237Y95000D01*
X450263D01*
X448355Y94489D01*
X446645Y93502D01*
X445248Y92105D01*
X444261Y90395D01*
X443750Y88487D01*
Y86513D01*
X444261Y84605D01*
X445248Y82895D01*
X446645Y81498D01*
X448355Y80511D01*
X450263Y80000D01*
X452237D01*
X454145Y80511D01*
X455000Y81005D01*
X455855Y80511D01*
X457763Y80000D01*
X459737D01*
X461645Y80511D01*
X463355Y81498D01*
X464752Y82895D01*
X465739Y84605D01*
X466250Y86513D01*
Y88487D01*
X465739Y90395D01*
X464752Y92105D01*
X463355Y93502D01*
X461645Y94489D01*
X459737Y95000D01*
D02*
G37*
G36*
X429737D02*
X427763D01*
X425855Y94489D01*
X425000Y93995D01*
X424145Y94489D01*
X422237Y95000D01*
X420263D01*
X418355Y94489D01*
X416645Y93502D01*
X415248Y92105D01*
X414261Y90395D01*
X413750Y88487D01*
Y86513D01*
X414261Y84605D01*
X415248Y82895D01*
X416645Y81498D01*
X418355Y80511D01*
X420263Y80000D01*
X422237D01*
X424145Y80511D01*
X425000Y81005D01*
X425855Y80511D01*
X427763Y80000D01*
X429737D01*
X431645Y80511D01*
X433355Y81498D01*
X434752Y82895D01*
X435739Y84605D01*
X436250Y86513D01*
Y88487D01*
X435739Y90395D01*
X434752Y92105D01*
X433355Y93502D01*
X431645Y94489D01*
X429737Y95000D01*
D02*
G37*
G36*
X41167Y98866D02*
X40508D01*
Y90508D01*
X48866D01*
Y91167D01*
X48262Y93422D01*
X47095Y95444D01*
X45444Y97095D01*
X43422Y98262D01*
X41167Y98866D01*
D02*
G37*
G36*
X39492D02*
X38833D01*
X36578Y98262D01*
X34556Y97095D01*
X32905Y95444D01*
X31738Y93422D01*
X31134Y91167D01*
Y90508D01*
X39492D01*
Y98866D01*
D02*
G37*
G36*
X48866Y89492D02*
X40508D01*
Y81134D01*
X41167D01*
X43422Y81738D01*
X45444Y82905D01*
X47095Y84556D01*
X48262Y86578D01*
X48866Y88833D01*
Y89492D01*
D02*
G37*
G36*
X39492D02*
X31134D01*
Y88833D01*
X31738Y86578D01*
X32905Y84556D01*
X34556Y82905D01*
X36578Y81738D01*
X38833Y81134D01*
X39492D01*
Y89492D01*
D02*
G37*
G36*
X480796Y71500D02*
X479204D01*
X477734Y70891D01*
X476609Y69766D01*
X476000Y68296D01*
Y66704D01*
X476609Y65234D01*
X477734Y64109D01*
X479204Y63500D01*
X480796D01*
X482266Y64109D01*
X483391Y65234D01*
X484000Y66704D01*
Y68296D01*
X483391Y69766D01*
X482266Y70891D01*
X480796Y71500D01*
D02*
G37*
G36*
X42168Y67540D02*
X41270D01*
Y41270D01*
X67540D01*
Y42168D01*
X66862Y46449D01*
X65522Y50572D01*
X63554Y54434D01*
X61006Y57941D01*
X57941Y61006D01*
X54434Y63554D01*
X50572Y65522D01*
X46449Y66862D01*
X42168Y67540D01*
D02*
G37*
G36*
X38730D02*
X37833D01*
X33551Y66862D01*
X29428Y65522D01*
X25566Y63554D01*
X22059Y61006D01*
X18994Y57941D01*
X16446Y54434D01*
X14478Y50572D01*
X13138Y46449D01*
X12460Y42168D01*
Y41270D01*
X38730D01*
Y67540D01*
D02*
G37*
G36*
X302167D02*
X301270D01*
Y41270D01*
X327540D01*
Y42168D01*
X326862Y46449D01*
X325522Y50572D01*
X323554Y54434D01*
X321006Y57941D01*
X317941Y61006D01*
X314434Y63554D01*
X310572Y65522D01*
X306449Y66862D01*
X302167Y67540D01*
D02*
G37*
G36*
X298730D02*
X297833D01*
X293551Y66862D01*
X289428Y65522D01*
X285566Y63554D01*
X282059Y61006D01*
X278994Y57941D01*
X276446Y54434D01*
X274478Y50572D01*
X273138Y46449D01*
X272460Y42168D01*
Y41270D01*
X298730D01*
Y67540D01*
D02*
G37*
G36*
X327540Y38730D02*
X301270D01*
Y12460D01*
X302167D01*
X306449Y13138D01*
X310572Y14478D01*
X314434Y16446D01*
X317941Y18994D01*
X321006Y22059D01*
X323554Y25566D01*
X325522Y29428D01*
X326862Y33551D01*
X327540Y37833D01*
Y38730D01*
D02*
G37*
G36*
X298730D02*
X272460D01*
Y37833D01*
X273138Y33551D01*
X274478Y29428D01*
X276446Y25566D01*
X278994Y22059D01*
X282059Y18994D01*
X285566Y16446D01*
X289428Y14478D01*
X293551Y13138D01*
X297833Y12460D01*
X298730D01*
Y38730D01*
D02*
G37*
G36*
X67540Y38730D02*
X41270D01*
Y12460D01*
X42168D01*
X46449Y13138D01*
X50572Y14478D01*
X54434Y16446D01*
X57941Y18994D01*
X61006Y22059D01*
X63554Y25566D01*
X65522Y29428D01*
X66862Y33551D01*
X67540Y37833D01*
Y38730D01*
D02*
G37*
G36*
X38730D02*
X12460D01*
Y37833D01*
X13138Y33551D01*
X14478Y29428D01*
X16446Y25566D01*
X18994Y22059D01*
X22059Y18994D01*
X25566Y16446D01*
X29428Y14478D01*
X33551Y13138D01*
X37833Y12460D01*
X38730D01*
Y38730D01*
D02*
G37*
%LPD*%
D14*
X364820Y227680D02*
X415180D01*
X257300Y335200D02*
Y460000D01*
Y335200D02*
X364820Y227680D01*
D50*
X40000Y90000D02*
D03*
X245000Y322500D02*
D03*
X405000Y210000D02*
D03*
X245000Y177500D02*
D03*
X405000Y145000D02*
D03*
X40000Y180000D02*
D03*
Y135000D02*
D03*
D51*
X75000Y370000D02*
D03*
D52*
X105000Y323000D02*
D03*
D55*
X135000Y370000D02*
D03*
D65*
X300000Y40000D02*
D03*
X560000Y460000D02*
D03*
X340000D02*
D03*
X40000D02*
D03*
Y40000D02*
D03*
D66*
X281000D02*
D03*
X286565Y53435D02*
D03*
X300000Y59000D02*
D03*
X313435Y53435D02*
D03*
X319000Y40000D02*
D03*
X313435Y26565D02*
D03*
X300000Y21000D02*
D03*
X286565Y26565D02*
D03*
X573435Y446565D02*
D03*
X560000Y441000D02*
D03*
X546565Y446565D02*
D03*
X579000Y460000D02*
D03*
X573435Y473435D02*
D03*
X560000Y479000D02*
D03*
X546565Y473435D02*
D03*
X541000Y460000D02*
D03*
X353435Y446565D02*
D03*
X340000Y441000D02*
D03*
X326565Y446565D02*
D03*
X359000Y460000D02*
D03*
X353435Y473435D02*
D03*
X340000Y479000D02*
D03*
X326565Y473435D02*
D03*
X321000Y460000D02*
D03*
X53435Y446565D02*
D03*
X40000Y441000D02*
D03*
X26565Y446565D02*
D03*
X59000Y460000D02*
D03*
X53435Y473435D02*
D03*
X40000Y479000D02*
D03*
X26565Y473435D02*
D03*
X21000Y460000D02*
D03*
X53435Y26565D02*
D03*
X40000Y21000D02*
D03*
X26565Y26565D02*
D03*
X59000Y40000D02*
D03*
X53435Y53435D02*
D03*
X40000Y59000D02*
D03*
X26565Y53435D02*
D03*
X21000Y40000D02*
D03*
X440000Y182500D02*
D03*
X428750Y87500D02*
D03*
X421250D02*
D03*
X458750D02*
D03*
X451250D02*
D03*
X480000Y187500D02*
D03*
X472500D02*
D03*
X522500Y317500D02*
D03*
X500000D02*
D03*
X417500Y320000D02*
D03*
X480000Y317500D02*
D03*
X475000Y357500D02*
D03*
X410000Y380000D02*
D03*
X340000D02*
D03*
X202500Y340000D02*
D03*
X325000Y242500D02*
D03*
X340000Y170000D02*
D03*
X390000Y220000D02*
D03*
Y195000D02*
D03*
X400000Y165000D02*
D03*
X392500Y112500D02*
D03*
X560000Y150000D02*
D03*
X490000Y170000D02*
D03*
X440000Y105000D02*
D03*
Y122500D02*
D03*
Y157500D02*
D03*
X245000Y135000D02*
D03*
X225000D02*
D03*
X245000Y200000D02*
D03*
X225000D02*
D03*
X240000Y290000D02*
D03*
X210000D02*
D03*
X415000Y340000D02*
D03*
X552193Y390000D02*
D03*
X530000Y430000D02*
D03*
X555000Y80000D02*
D03*
X530000Y30000D02*
D03*
X380000Y430000D02*
D03*
X355000Y80000D02*
D03*
X280000Y430000D02*
D03*
X305000Y180000D02*
D03*
X180000Y430000D02*
D03*
X105000Y380000D02*
D03*
X80000Y330000D02*
D03*
Y230000D02*
D03*
X55000Y380000D02*
D03*
X30000Y330000D02*
D03*
X55000Y280000D02*
D03*
X30000Y230000D02*
D03*
X55000Y80000D02*
D03*
X500000Y290000D02*
D03*
X377500Y380000D02*
D03*
X515000Y190000D02*
D03*
X510000Y380000D02*
D03*
X439000Y239000D02*
D03*
X450000D02*
D03*
X461000D02*
D03*
X439000Y250000D02*
D03*
X450000D02*
D03*
X461000D02*
D03*
X439000Y261000D02*
D03*
X450000D02*
D03*
X461000D02*
D03*
X180000Y227500D02*
D03*
X485000Y250000D02*
D03*
X355000D02*
D03*
X427500Y215000D02*
D03*
X435000D02*
D03*
X415180Y227680D02*
D03*
X350000Y150000D02*
D03*
X330000D02*
D03*
X340000D02*
D03*
X350000Y215000D02*
D03*
X330000D02*
D03*
X340000D02*
D03*
X245000Y152500D02*
D03*
X225000D02*
D03*
X235000D02*
D03*
X245000Y217500D02*
D03*
X225000D02*
D03*
X235000D02*
D03*
X397500Y275000D02*
D03*
X382500D02*
D03*
X390000D02*
D03*
X405000Y250000D02*
D03*
X520000Y377500D02*
D03*
Y402500D02*
D03*
X485000Y257500D02*
D03*
Y242500D02*
D03*
Y235000D02*
D03*
X415000Y300000D02*
D03*
Y270000D02*
D03*
X405000Y235000D02*
D03*
X520000Y105000D02*
D03*
X470000Y50000D02*
D03*
X380000D02*
D03*
X410000D02*
D03*
X440000D02*
D03*
X487500Y187500D02*
D03*
X465000D02*
D03*
X413750Y87500D02*
D03*
X436250D02*
D03*
X443750D02*
D03*
X466250D02*
D03*
X480000Y67500D02*
D03*
X162500Y252500D02*
D03*
X440000Y290000D02*
D03*
X415000Y235000D02*
D03*
X460000Y290000D02*
D03*
X415000Y255000D02*
D03*
Y262500D02*
D03*
X467500Y290000D02*
D03*
D67*
X282700Y460000D02*
D03*
X500000Y132700D02*
D03*
X475000D02*
D03*
X560000D02*
D03*
D68*
X424600Y475400D02*
D03*
X475400D02*
D03*
Y424600D02*
D03*
X424600D02*
D03*
D69*
X560000Y300800D02*
D03*
Y173800D02*
D03*
Y199200D02*
D03*
Y250000D02*
D03*
Y275400D02*
D03*
Y224600D02*
D03*
D70*
X450000Y450000D02*
D03*
D71*
X500000Y107300D02*
D03*
X475000D02*
D03*
X560000D02*
D03*
D72*
X257300Y460000D02*
D03*
D73*
X560000Y326200D02*
D03*
D74*
X280000Y204000D02*
D03*
Y216000D02*
D03*
Y139000D02*
D03*
Y151000D02*
D03*
D75*
X50000Y230000D02*
D03*
X102000Y265000D02*
D03*
M02*
