G04*
G04 #@! TF.GenerationSoftware,Altium Limited,Altium Designer,25.8.1 (18)*
G04*
G04 Layer_Physical_Order=1*
G04 Layer_Color=255*
%FSLAX44Y44*%
%MOMM*%
G71*
G04*
G04 #@! TF.SameCoordinates,09717A42-CF54-47D0-A9E9-54450B3338D6*
G04*
G04*
G04 #@! TF.FilePolarity,Positive*
G04*
G01*
G75*
%ADD14C,0.2000*%
G04:AMPARAMS|DCode=18|XSize=0.95mm|YSize=0.8mm|CornerRadius=0.1mm|HoleSize=0mm|Usage=FLASHONLY|Rotation=270.000|XOffset=0mm|YOffset=0mm|HoleType=Round|Shape=RoundedRectangle|*
%AMROUNDEDRECTD18*
21,1,0.9500,0.6000,0,0,270.0*
21,1,0.7500,0.8000,0,0,270.0*
1,1,0.2000,-0.3000,-0.3750*
1,1,0.2000,-0.3000,0.3750*
1,1,0.2000,0.3000,0.3750*
1,1,0.2000,0.3000,-0.3750*
%
%ADD18ROUNDEDRECTD18*%
%ADD19R,2.7062X1.5533*%
%ADD20R,0.6725X0.7154*%
%ADD21R,1.4562X1.2546*%
%ADD22R,2.5000X1.0000*%
%ADD23R,1.0000X0.7000*%
%ADD24R,0.4800X0.4000*%
%ADD25R,0.7154X0.6725*%
%ADD26R,0.6000X1.8500*%
%ADD27R,0.6000X1.6500*%
G04:AMPARAMS|DCode=28|XSize=0.95mm|YSize=0.8mm|CornerRadius=0.1mm|HoleSize=0mm|Usage=FLASHONLY|Rotation=180.000|XOffset=0mm|YOffset=0mm|HoleType=Round|Shape=RoundedRectangle|*
%AMROUNDEDRECTD28*
21,1,0.9500,0.6000,0,0,180.0*
21,1,0.7500,0.8000,0,0,180.0*
1,1,0.2000,-0.3750,0.3000*
1,1,0.2000,0.3750,0.3000*
1,1,0.2000,0.3750,-0.3000*
1,1,0.2000,-0.3750,-0.3000*
%
%ADD28ROUNDEDRECTD28*%
%ADD29R,1.3500X0.9500*%
%ADD30R,1.5500X2.4000*%
%ADD31R,0.6500X0.3500*%
%ADD32R,2.0000X5.3000*%
%ADD33R,0.5000X0.3500*%
%ADD34R,1.6500X1.2500*%
%ADD35R,2.2000X8.0000*%
%ADD36R,0.8000X0.5000*%
%ADD37R,1.6000X5.7000*%
%ADD50C,1.5700*%
G04:AMPARAMS|DCode=51|XSize=3.2mm|YSize=1.6mm|CornerRadius=0.8mm|HoleSize=0mm|Usage=FLASHONLY|Rotation=90.000|XOffset=0mm|YOffset=0mm|HoleType=Round|Shape=RoundedRectangle|*
%AMROUNDEDRECTD51*
21,1,3.2000,0.0000,0,0,90.0*
21,1,1.6000,1.6000,0,0,90.0*
1,1,1.6000,0.0000,0.8000*
1,1,1.6000,0.0000,-0.8000*
1,1,1.6000,0.0000,-0.8000*
1,1,1.6000,0.0000,0.8000*
%
%ADD51ROUNDEDRECTD51*%
G04:AMPARAMS|DCode=52|XSize=1.6mm|YSize=3.2mm|CornerRadius=0.8mm|HoleSize=0mm|Usage=FLASHONLY|Rotation=90.000|XOffset=0mm|YOffset=0mm|HoleType=Round|Shape=RoundedRectangle|*
%AMROUNDEDRECTD52*
21,1,1.6000,1.6000,0,0,90.0*
21,1,0.0000,3.2000,0,0,90.0*
1,1,1.6000,0.8000,0.0000*
1,1,1.6000,0.8000,0.0000*
1,1,1.6000,-0.8000,0.0000*
1,1,1.6000,-0.8000,0.0000*
%
%ADD52ROUNDEDRECTD52*%
%ADD53C,1.5748*%
%ADD55R,1.6000X3.2000*%
%AMCUSTOMSHAPE60*
4,1,28,1.1400,-1.2250,0.7250,-1.2250,0.7250,-1.6050,0.2950,-1.6050,0.2950,-1.2250,-0.8400,-1.2250,-0.8400,-1.1750,-1.1400,-1.1750,-1.1400,-0.7750,-0.8400,-0.7750,-0.8400,-0.5250,-1.1400,-0.5250,-1.1400,-0.1250,-0.8400,-0.1250,-0.8400,0.1250,-1.1400,0.1250,-1.1400,0.5250,-0.8400,0.5250,-0.8400,0.7750,-1.1400,0.7750,-1.1400,1.1750,-0.8400,1.1750,-0.8400,1.2250,0.2950,1.2250,0.2950,1.6050,0.7250,1.6050,0.7250,1.2250,1.1400,1.2250,1.1400,-1.2250,0.0*%
%ADD60CUSTOMSHAPE60*%

%ADD61C,0.6000*%
%ADD62C,0.2174*%
%ADD63C,0.5000*%
%ADD64C,0.3000*%
%ADD65C,5.0000*%
%ADD66C,0.5000*%
%ADD67C,1.4000*%
%ADD68C,2.5400*%
%ADD69C,1.6000*%
%ADD70C,1.9050*%
%ADD71R,1.4000X1.4000*%
%ADD72R,1.4000X1.4000*%
G04:AMPARAMS|DCode=73|XSize=1.6mm|YSize=1.6mm|CornerRadius=0.4mm|HoleSize=0mm|Usage=FLASHONLY|Rotation=270.000|XOffset=0mm|YOffset=0mm|HoleType=Round|Shape=RoundedRectangle|*
%AMROUNDEDRECTD73*
21,1,1.6000,0.8000,0,0,270.0*
21,1,0.8000,1.6000,0,0,270.0*
1,1,0.8000,-0.4000,-0.4000*
1,1,0.8000,-0.4000,0.4000*
1,1,0.8000,0.4000,0.4000*
1,1,0.8000,0.4000,-0.4000*
%
%ADD73ROUNDEDRECTD73*%
%ADD74C,0.6600*%
G36*
X567422Y497311D02*
X572229Y496023D01*
X576826Y494119D01*
X581135Y491631D01*
X585083Y488602D01*
X588602Y485083D01*
X591631Y481135D01*
X594119Y476826D01*
X596023Y472228D01*
X597312Y467422D01*
X597961Y462488D01*
Y460000D01*
X597961Y60000D01*
X597961Y40000D01*
X597961Y37512D01*
X597311Y32578D01*
X596023Y27772D01*
X594119Y23174D01*
X591631Y18865D01*
X588602Y14917D01*
X585083Y11398D01*
X581135Y8369D01*
X576826Y5881D01*
X572228Y3977D01*
X567422Y2689D01*
X562488Y2039D01*
X560000Y2039D01*
X40000Y2039D01*
X37512D01*
X32578Y2688D01*
X27772Y3976D01*
X23174Y5881D01*
X18865Y8369D01*
X14917Y11398D01*
X11398Y14917D01*
X8369Y18865D01*
X5881Y23174D01*
X3977Y27772D01*
X2689Y32578D01*
X2039Y37512D01*
Y40000D01*
Y460000D01*
Y462488D01*
X2689Y467422D01*
X3977Y472228D01*
X5881Y476826D01*
X8369Y481135D01*
X11398Y485083D01*
X14917Y488602D01*
X18865Y491631D01*
X23174Y494119D01*
X27772Y496023D01*
X32578Y497311D01*
X37512Y497961D01*
X562488D01*
X567422Y497311D01*
D02*
G37*
%LPC*%
G36*
X477206Y489116D02*
X475908D01*
Y475908D01*
X489116D01*
Y477206D01*
X488181Y480694D01*
X486376Y483822D01*
X483822Y486376D01*
X480694Y488181D01*
X477206Y489116D01*
D02*
G37*
G36*
X474892D02*
X473594D01*
X470106Y488181D01*
X466978Y486376D01*
X464425Y483822D01*
X462619Y480694D01*
X461684Y477206D01*
Y475908D01*
X474892D01*
Y489116D01*
D02*
G37*
G36*
X426406D02*
X425108D01*
Y475908D01*
X438316D01*
Y477206D01*
X437381Y480694D01*
X435576Y483822D01*
X433022Y486376D01*
X429894Y488181D01*
X426406Y489116D01*
D02*
G37*
G36*
X424092D02*
X422794D01*
X419306Y488181D01*
X416178Y486376D01*
X413624Y483822D01*
X411819Y480694D01*
X410884Y477206D01*
Y475908D01*
X424092D01*
Y489116D01*
D02*
G37*
G36*
X489116Y474892D02*
X475908D01*
Y461684D01*
X477206D01*
X480694Y462619D01*
X483822Y464425D01*
X486376Y466978D01*
X488181Y470106D01*
X489116Y473594D01*
Y474892D01*
D02*
G37*
G36*
X474892D02*
X461684D01*
Y473594D01*
X462619Y470106D01*
X464425Y466978D01*
X466978Y464425D01*
X470106Y462619D01*
X473594Y461684D01*
X474892D01*
Y474892D01*
D02*
G37*
G36*
X438316D02*
X425108D01*
Y461684D01*
X426406D01*
X429894Y462619D01*
X433022Y464425D01*
X435576Y466978D01*
X437381Y470106D01*
X438316Y473594D01*
Y474892D01*
D02*
G37*
G36*
X424092D02*
X410884D01*
Y473594D01*
X411819Y470106D01*
X413624Y466978D01*
X416178Y464425D01*
X419306Y462619D01*
X422794Y461684D01*
X424092D01*
Y474892D01*
D02*
G37*
G36*
X42168Y487540D02*
X41270D01*
Y461270D01*
X67540D01*
Y462168D01*
X66862Y466449D01*
X65522Y470572D01*
X63554Y474434D01*
X61006Y477941D01*
X57941Y481006D01*
X54434Y483554D01*
X50572Y485522D01*
X46449Y486862D01*
X42168Y487540D01*
D02*
G37*
G36*
X38730D02*
X37833D01*
X33551Y486862D01*
X29428Y485522D01*
X25566Y483554D01*
X22059Y481006D01*
X18994Y477941D01*
X16446Y474434D01*
X14478Y470572D01*
X13138Y466449D01*
X12460Y462168D01*
Y461270D01*
X38730D01*
Y487540D01*
D02*
G37*
G36*
X342168D02*
X341270D01*
Y461270D01*
X367540D01*
Y462168D01*
X366862Y466449D01*
X365522Y470572D01*
X363554Y474434D01*
X361006Y477941D01*
X357941Y481006D01*
X354434Y483554D01*
X350572Y485522D01*
X346449Y486862D01*
X342168Y487540D01*
D02*
G37*
G36*
X338730D02*
X337832D01*
X333551Y486862D01*
X329428Y485522D01*
X325566Y483554D01*
X322059Y481006D01*
X318994Y477941D01*
X316446Y474434D01*
X314478Y470572D01*
X313138Y466449D01*
X312460Y462168D01*
Y461270D01*
X338730D01*
Y487540D01*
D02*
G37*
G36*
X562168D02*
X561270D01*
Y461270D01*
X587540D01*
Y462168D01*
X586862Y466449D01*
X585522Y470572D01*
X583554Y474434D01*
X581006Y477941D01*
X577941Y481006D01*
X574434Y483554D01*
X570572Y485522D01*
X566449Y486862D01*
X562168Y487540D01*
D02*
G37*
G36*
X558730D02*
X557833D01*
X553551Y486862D01*
X549428Y485522D01*
X545566Y483554D01*
X542059Y481006D01*
X538994Y477941D01*
X536446Y474434D01*
X534478Y470572D01*
X533138Y466449D01*
X532460Y462168D01*
Y461270D01*
X558730D01*
Y487540D01*
D02*
G37*
G36*
X283755Y468016D02*
X283208D01*
Y460508D01*
X290716D01*
Y461055D01*
X290170Y463094D01*
X289114Y464922D01*
X287622Y466414D01*
X285794Y467470D01*
X283755Y468016D01*
D02*
G37*
G36*
X282192D02*
X281645D01*
X279606Y467470D01*
X277778Y466414D01*
X276286Y464922D01*
X275230Y463094D01*
X274684Y461055D01*
Y460508D01*
X282192D01*
Y468016D01*
D02*
G37*
G36*
X290716Y459492D02*
X283208D01*
Y451984D01*
X283755D01*
X285794Y452530D01*
X287622Y453586D01*
X289114Y455078D01*
X290170Y456906D01*
X290716Y458945D01*
Y459492D01*
D02*
G37*
G36*
X282192D02*
X274684D01*
Y458945D01*
X275230Y456906D01*
X276286Y455078D01*
X277778Y453586D01*
X279606Y452530D01*
X281645Y451984D01*
X282192D01*
Y459492D01*
D02*
G37*
G36*
X265316Y468016D02*
X249284D01*
Y451984D01*
X265316D01*
Y468016D01*
D02*
G37*
G36*
X221816Y443016D02*
X218908D01*
Y440508D01*
X221816D01*
Y443016D01*
D02*
G37*
G36*
X217892D02*
X214984D01*
Y440508D01*
X217892D01*
Y443016D01*
D02*
G37*
G36*
X221816Y439492D02*
X218908D01*
Y436984D01*
X221816D01*
Y439492D01*
D02*
G37*
G36*
X217892D02*
X214984D01*
Y436984D01*
X217892D01*
Y439492D01*
D02*
G37*
G36*
X451912Y464525D02*
X448088D01*
X444394Y463535D01*
X441082Y461623D01*
X438377Y458919D01*
X436465Y455606D01*
X435475Y451912D01*
Y448088D01*
X436465Y444394D01*
X438377Y441082D01*
X441082Y438377D01*
X444394Y436465D01*
X448088Y435475D01*
X451912D01*
X455606Y436465D01*
X458919Y438377D01*
X461623Y441082D01*
X463535Y444394D01*
X464525Y448088D01*
Y451912D01*
X463535Y455606D01*
X461623Y458919D01*
X458919Y461623D01*
X455606Y463535D01*
X451912Y464525D01*
D02*
G37*
G36*
X587540Y458730D02*
X561270D01*
Y432460D01*
X562168D01*
X566449Y433138D01*
X570572Y434478D01*
X574434Y436446D01*
X577941Y438994D01*
X581006Y442059D01*
X583554Y445566D01*
X585522Y449428D01*
X586862Y453551D01*
X587540Y457832D01*
Y458730D01*
D02*
G37*
G36*
X558730D02*
X532460D01*
Y457832D01*
X533138Y453551D01*
X534478Y449428D01*
X536446Y445566D01*
X538994Y442059D01*
X542059Y438994D01*
X545566Y436446D01*
X549428Y434478D01*
X553551Y433138D01*
X557833Y432460D01*
X558730D01*
Y458730D01*
D02*
G37*
G36*
X367540Y458730D02*
X341270D01*
Y432460D01*
X342168D01*
X346449Y433138D01*
X350572Y434478D01*
X354434Y436446D01*
X357941Y438994D01*
X361006Y442059D01*
X363554Y445566D01*
X365522Y449428D01*
X366862Y453551D01*
X367540Y457832D01*
Y458730D01*
D02*
G37*
G36*
X338730D02*
X312460D01*
Y457832D01*
X313138Y453551D01*
X314478Y449428D01*
X316446Y445566D01*
X318994Y442059D01*
X322059Y438994D01*
X325566Y436446D01*
X329428Y434478D01*
X333551Y433138D01*
X337832Y432460D01*
X338730D01*
Y458730D01*
D02*
G37*
G36*
X67540Y458730D02*
X41270D01*
Y432460D01*
X42168D01*
X46449Y433138D01*
X50572Y434478D01*
X54434Y436446D01*
X57941Y438994D01*
X61006Y442059D01*
X63554Y445566D01*
X65522Y449428D01*
X66862Y453551D01*
X67540Y457832D01*
Y458730D01*
D02*
G37*
G36*
X38730D02*
X12460D01*
Y457832D01*
X13138Y453551D01*
X14478Y449428D01*
X16446Y445566D01*
X18994Y442059D01*
X22059Y438994D01*
X25566Y436446D01*
X29428Y434478D01*
X33551Y433138D01*
X37833Y432460D01*
X38730D01*
Y458730D01*
D02*
G37*
G36*
X264500Y430806D02*
X262008D01*
Y425508D01*
X266556D01*
Y428750D01*
X266399Y429537D01*
X265954Y430204D01*
X265287Y430649D01*
X264500Y430806D01*
D02*
G37*
G36*
X260992D02*
X258500D01*
X257713Y430649D01*
X257047Y430204D01*
X256601Y429537D01*
X256444Y428750D01*
Y425508D01*
X260992D01*
Y430806D01*
D02*
G37*
G36*
X477206Y438316D02*
X475908D01*
Y425108D01*
X489116D01*
Y426406D01*
X488181Y429894D01*
X486376Y433022D01*
X483822Y435576D01*
X480694Y437381D01*
X477206Y438316D01*
D02*
G37*
G36*
X474892D02*
X473594D01*
X470106Y437381D01*
X466978Y435576D01*
X464425Y433022D01*
X462619Y429894D01*
X461684Y426406D01*
Y425108D01*
X474892D01*
Y438316D01*
D02*
G37*
G36*
X426406D02*
X425108D01*
Y425108D01*
X438316D01*
Y426406D01*
X437381Y429894D01*
X435576Y433022D01*
X433022Y435576D01*
X429894Y437381D01*
X426406Y438316D01*
D02*
G37*
G36*
X424092D02*
X422794D01*
X419306Y437381D01*
X416178Y435576D01*
X413624Y433022D01*
X411819Y429894D01*
X410884Y426406D01*
Y425108D01*
X424092D01*
Y438316D01*
D02*
G37*
G36*
X489116Y424092D02*
X475908D01*
Y410884D01*
X477206D01*
X480694Y411819D01*
X483822Y413624D01*
X486376Y416178D01*
X488181Y419306D01*
X489116Y422794D01*
Y424092D01*
D02*
G37*
G36*
X474892D02*
X461684D01*
Y422794D01*
X462619Y419306D01*
X464425Y416178D01*
X466978Y413624D01*
X470106Y411819D01*
X473594Y410884D01*
X474892D01*
Y424092D01*
D02*
G37*
G36*
X438316D02*
X425108D01*
Y410884D01*
X426406D01*
X429894Y411819D01*
X433022Y413624D01*
X435576Y416178D01*
X437381Y419306D01*
X438316Y422794D01*
Y424092D01*
D02*
G37*
G36*
X424092D02*
X410884D01*
Y422794D01*
X411819Y419306D01*
X413624Y416178D01*
X416178Y413624D01*
X419306Y411819D01*
X422794Y410884D01*
X424092D01*
Y424092D01*
D02*
G37*
G36*
X563998Y409338D02*
X563998Y409338D01*
X524782D01*
X524782Y409338D01*
X523995Y409181D01*
X523329Y408736D01*
X523329Y408735D01*
X521006Y406413D01*
X520796Y406500D01*
X519204D01*
X517734Y405891D01*
X516609Y404766D01*
X516000Y403296D01*
Y401704D01*
X516609Y400234D01*
X517734Y399109D01*
X519204Y398500D01*
X520796D01*
X521123Y398636D01*
X521315Y398612D01*
X521984Y397892D01*
X521984Y397123D01*
Y390984D01*
X532016D01*
Y395109D01*
X539117Y402211D01*
X552600D01*
X553445Y401250D01*
Y399556D01*
X547172D01*
X547172Y399556D01*
X546385Y399399D01*
X545718Y398954D01*
X545718Y398953D01*
X544781Y398016D01*
X537984D01*
Y390984D01*
X547254D01*
X548046Y390825D01*
X548193Y390041D01*
Y389959D01*
X548046Y389175D01*
X547254Y389016D01*
X537984D01*
Y381984D01*
X544781D01*
X545718Y381047D01*
X545718Y381046D01*
X546385Y380601D01*
X547172Y380444D01*
X547172Y380444D01*
X553445D01*
Y378750D01*
X553601Y377963D01*
X554047Y377296D01*
X554713Y376851D01*
X555500Y376694D01*
X561500D01*
X562287Y376851D01*
X562953Y377296D01*
X563399Y377963D01*
X563555Y378750D01*
Y386250D01*
X563399Y387037D01*
X563245Y387268D01*
X562985Y387756D01*
X563465Y388541D01*
X563489Y388567D01*
X565969Y391047D01*
X565970Y391047D01*
X566357Y391628D01*
X566457Y391725D01*
X567506Y391990D01*
X567713Y391851D01*
X568500Y391694D01*
X574500D01*
X575287Y391851D01*
X575953Y392296D01*
X576399Y392963D01*
X576555Y393750D01*
Y401250D01*
X576399Y402037D01*
X575953Y402704D01*
X575287Y403149D01*
X574500Y403306D01*
X570451D01*
X570399Y403567D01*
X569953Y404234D01*
X569953Y404234D01*
X565452Y408736D01*
X564785Y409181D01*
X564655Y409207D01*
X563998Y409338D01*
D02*
G37*
G36*
X574500Y388306D02*
X572008D01*
Y383008D01*
X576555D01*
Y386250D01*
X576399Y387037D01*
X575953Y387704D01*
X575287Y388149D01*
X574500Y388306D01*
D02*
G37*
G36*
X570992D02*
X568500D01*
X567713Y388149D01*
X567047Y387704D01*
X566601Y387037D01*
X566445Y386250D01*
Y383008D01*
X570992D01*
Y388306D01*
D02*
G37*
G36*
X576555Y381992D02*
X572008D01*
Y376694D01*
X574500D01*
X575287Y376851D01*
X575953Y377296D01*
X576399Y377963D01*
X576555Y378750D01*
Y381992D01*
D02*
G37*
G36*
X570992D02*
X566445D01*
Y378750D01*
X566601Y377963D01*
X567047Y377296D01*
X567713Y376851D01*
X568500Y376694D01*
X570992D01*
Y381992D01*
D02*
G37*
G36*
X532016Y389016D02*
X521984D01*
Y384199D01*
X521944Y384000D01*
X521945Y384000D01*
Y383351D01*
X520093Y381500D01*
X519204D01*
X517734Y380891D01*
X516609Y379766D01*
X516000Y378296D01*
Y376704D01*
X516609Y375234D01*
X517734Y374109D01*
X519204Y373500D01*
X520796D01*
X522266Y374109D01*
X523391Y375234D01*
X524000Y376704D01*
Y378296D01*
X523620Y379213D01*
X525453Y381046D01*
X525899Y381713D01*
X525953Y381984D01*
X532016D01*
Y389016D01*
D02*
G37*
G36*
X75508Y387027D02*
Y370508D01*
X84094D01*
Y378000D01*
X83784Y380354D01*
X82875Y382547D01*
X81430Y384430D01*
X79547Y385876D01*
X77354Y386784D01*
X75508Y387027D01*
D02*
G37*
G36*
X74492D02*
X72646Y386784D01*
X70453Y385876D01*
X68570Y384430D01*
X67125Y382547D01*
X66216Y380354D01*
X65906Y378000D01*
Y370508D01*
X74492D01*
Y387027D01*
D02*
G37*
G36*
Y369492D02*
X65906D01*
Y362000D01*
X66216Y359646D01*
X67125Y357453D01*
X68570Y355570D01*
X70453Y354124D01*
X72646Y353216D01*
X74492Y352973D01*
Y369492D01*
D02*
G37*
G36*
X84094D02*
X75508D01*
Y352973D01*
X77354Y353216D01*
X79547Y354124D01*
X81430Y355570D01*
X82875Y357453D01*
X83784Y359646D01*
X84094Y362000D01*
Y369492D01*
D02*
G37*
G36*
X380516Y421016D02*
X356484D01*
Y338984D01*
X380516D01*
Y377359D01*
X380891Y377734D01*
X381500Y379204D01*
Y380796D01*
X380891Y382266D01*
X380516Y382641D01*
Y421016D01*
D02*
G37*
G36*
X266556Y424492D02*
X261500D01*
X256444D01*
Y421250D01*
X256601Y420463D01*
X257047Y419796D01*
X257713Y419351D01*
X258500Y419194D01*
X261400D01*
Y337500D01*
X261722Y336722D01*
X262500Y336400D01*
X325000D01*
X325778Y336722D01*
X326100Y337500D01*
Y422500D01*
X325778Y423278D01*
X325000Y423600D01*
X266556D01*
Y424492D01*
D02*
G37*
G36*
X104492Y332094D02*
X97000D01*
X94646Y331784D01*
X92453Y330875D01*
X90570Y329430D01*
X89125Y327547D01*
X88216Y325354D01*
X87973Y323508D01*
X104492D01*
Y332094D01*
D02*
G37*
G36*
Y322492D02*
X87973D01*
X88216Y320646D01*
X89125Y318453D01*
X90570Y316570D01*
X92453Y315124D01*
X94646Y314216D01*
X97000Y313906D01*
X104492D01*
Y322492D01*
D02*
G37*
G36*
X235016Y443016D02*
X228184D01*
Y436984D01*
X229545D01*
Y430806D01*
X228500D01*
X227713Y430649D01*
X227047Y430204D01*
X226601Y429537D01*
X226444Y428750D01*
Y421250D01*
X226601Y420463D01*
X227047Y419796D01*
X227713Y419351D01*
X228500Y419194D01*
X234399D01*
X237945Y415649D01*
Y350000D01*
X237945Y350000D01*
X238101Y349213D01*
X238547Y348546D01*
X261047Y326046D01*
X261713Y325601D01*
X262500Y325444D01*
X286634D01*
X287023Y324506D01*
X267551Y305034D01*
X267106Y304367D01*
X266950Y303581D01*
X266950Y303581D01*
Y284016D01*
X262989D01*
Y276100D01*
X195000D01*
X194641Y275951D01*
X194282Y276100D01*
X191818Y276100D01*
X191100Y276818D01*
Y348900D01*
X213530D01*
X236690Y325741D01*
X236134Y323667D01*
Y321333D01*
X236738Y319078D01*
X237905Y317056D01*
X239556Y315405D01*
X241578Y314238D01*
X243833Y313634D01*
X246167D01*
X248422Y314238D01*
X250444Y315405D01*
X252095Y317056D01*
X253262Y319078D01*
X253866Y321333D01*
Y323667D01*
X253262Y325922D01*
X252095Y327944D01*
X250444Y329595D01*
X248422Y330762D01*
X246167Y331366D01*
X243833D01*
X241759Y330810D01*
X221100Y351470D01*
Y410000D01*
X220778Y410778D01*
X220555Y410870D01*
Y419194D01*
X221500D01*
X222287Y419351D01*
X222953Y419796D01*
X223399Y420463D01*
X223556Y421250D01*
Y428750D01*
X223399Y429537D01*
X222953Y430204D01*
X222287Y430649D01*
X221500Y430806D01*
X215500D01*
X214713Y430649D01*
X214047Y430204D01*
X213601Y429537D01*
X213444Y428750D01*
Y421250D01*
X213601Y420463D01*
X214047Y419796D01*
X214713Y419351D01*
X215500Y419194D01*
X216444D01*
Y411100D01*
X160000D01*
X159222Y410778D01*
X158900Y410000D01*
Y391818D01*
X158182Y391100D01*
X120000D01*
X119222Y390778D01*
X118900Y390000D01*
Y330985D01*
X117989Y330536D01*
X117547Y330875D01*
X115354Y331784D01*
X113000Y332094D01*
X105508D01*
Y323000D01*
Y313906D01*
X113000D01*
X115354Y314216D01*
X117547Y315124D01*
X117989Y315464D01*
X118900Y315014D01*
Y311100D01*
X90000D01*
X89222Y310778D01*
X88900Y310000D01*
Y250000D01*
X89222Y249222D01*
X90000Y248900D01*
X128900D01*
Y210000D01*
X129222Y209222D01*
X130000Y208900D01*
X160000D01*
X160778Y209222D01*
X161798Y209032D01*
X162116Y208900D01*
X190000Y208900D01*
X190778Y209222D01*
X191100Y210000D01*
Y243900D01*
X275000D01*
X275778Y244222D01*
X276100Y245000D01*
Y274984D01*
X275778Y275762D01*
X275021Y276075D01*
Y284016D01*
X271061D01*
Y295622D01*
X272706D01*
Y292704D01*
X272979Y291332D01*
X273756Y290169D01*
X284979Y278946D01*
Y276075D01*
X284222Y275762D01*
X283900Y274984D01*
Y265016D01*
X284222Y264238D01*
X284979Y263925D01*
Y261008D01*
X290995D01*
Y260500D01*
X291503D01*
Y255984D01*
X296400D01*
Y255000D01*
X296722Y254222D01*
X297500Y253900D01*
X325000D01*
X325778Y254222D01*
X326100Y255000D01*
Y315000D01*
X325778Y315778D01*
X325000Y316100D01*
X297500D01*
X296722Y315778D01*
X296400Y315000D01*
Y303585D01*
X289378D01*
Y304378D01*
X280193D01*
X280193Y304379D01*
X279807D01*
Y304378D01*
X279177Y304378D01*
X274037D01*
X273648Y305317D01*
X290760Y322429D01*
X343665D01*
X353900Y312193D01*
Y255000D01*
X353939Y254906D01*
X354153Y254175D01*
X353436Y253682D01*
X352734Y253391D01*
X351609Y252266D01*
X351000Y250796D01*
Y249204D01*
X351609Y247734D01*
X352734Y246609D01*
X354204Y246000D01*
X355796D01*
X357266Y246609D01*
X358391Y247734D01*
X359000Y249204D01*
Y250796D01*
X358391Y252266D01*
X357772Y252884D01*
X358193Y253900D01*
X380000D01*
X380778Y254222D01*
X380780Y254228D01*
X381703Y254453D01*
X381703Y254453D01*
X389492D01*
Y261742D01*
X390000D01*
Y262250D01*
X398297D01*
Y268900D01*
X400000D01*
X400778Y269222D01*
X401100Y270000D01*
Y273238D01*
X401500Y274204D01*
Y275796D01*
X401100Y276762D01*
Y300000D01*
X400778Y300778D01*
X400000Y301100D01*
X398297D01*
Y307750D01*
X390000D01*
Y308258D01*
X389492D01*
Y315547D01*
X381703D01*
X381703Y315547D01*
Y315547D01*
X380746Y315791D01*
X380000Y316100D01*
X355807D01*
X347401Y324506D01*
X347790Y325444D01*
X532449D01*
X552336Y305557D01*
X551598Y304280D01*
X550984Y301987D01*
Y299613D01*
X551598Y297320D01*
X552785Y295264D01*
X554464Y293585D01*
X556520Y292398D01*
X558813Y291784D01*
X561187D01*
X563480Y292398D01*
X564757Y293136D01*
X569929Y287965D01*
Y277107D01*
X568913Y276973D01*
X568402Y278880D01*
X567215Y280936D01*
X565536Y282615D01*
X563480Y283802D01*
X561187Y284416D01*
X558813D01*
X556520Y283802D01*
X554464Y282615D01*
X552785Y280936D01*
X551598Y278880D01*
X550984Y276587D01*
Y274213D01*
X551598Y271920D01*
X552336Y270643D01*
X541249Y259555D01*
X488478D01*
X488391Y259766D01*
X487266Y260891D01*
X485796Y261500D01*
X484204D01*
X482734Y260891D01*
X481609Y259766D01*
X481000Y258296D01*
Y256704D01*
X481609Y255234D01*
X482464Y254379D01*
X482636Y253750D01*
X482464Y253121D01*
X481609Y252266D01*
X481000Y250796D01*
Y249204D01*
X481609Y247734D01*
X482464Y246879D01*
X482636Y246250D01*
X482464Y245621D01*
X481609Y244766D01*
X481000Y243296D01*
Y241704D01*
X481609Y240234D01*
X482464Y239379D01*
X482636Y238750D01*
X482464Y238121D01*
X481609Y237266D01*
X481000Y235796D01*
Y234204D01*
X481609Y232734D01*
X482734Y231609D01*
X484204Y231000D01*
X485796D01*
X487266Y231609D01*
X488391Y232734D01*
X488478Y232945D01*
X548749D01*
X552336Y229357D01*
X551598Y228080D01*
X550984Y225787D01*
Y223413D01*
X551598Y221120D01*
X552785Y219064D01*
X554464Y217385D01*
X556520Y216198D01*
X558813Y215584D01*
X561187D01*
X563480Y216198D01*
X565536Y217385D01*
X567215Y219064D01*
X568402Y221120D01*
X569016Y223413D01*
Y225787D01*
X568402Y228080D01*
X567215Y230136D01*
X565536Y231815D01*
X563480Y233002D01*
X561187Y233616D01*
X558813D01*
X556520Y233002D01*
X555243Y232264D01*
X551054Y236453D01*
X550387Y236899D01*
X549600Y237055D01*
X549600Y237055D01*
X488478D01*
X488391Y237266D01*
X487536Y238121D01*
X487364Y238750D01*
X487536Y239379D01*
X488391Y240234D01*
X488478Y240445D01*
X550796D01*
X550796Y240445D01*
X551582Y240601D01*
X552249Y241047D01*
X554226Y243023D01*
X554464Y242785D01*
X556520Y241598D01*
X558813Y240984D01*
X561187D01*
X563480Y241598D01*
X565536Y242785D01*
X567215Y244464D01*
X568402Y246520D01*
X569016Y248813D01*
Y251187D01*
X568402Y253480D01*
X567215Y255536D01*
X565536Y257215D01*
X563480Y258402D01*
X561187Y259016D01*
X558813D01*
X556520Y258402D01*
X554464Y257215D01*
X552785Y255536D01*
X551598Y253480D01*
X550984Y251187D01*
Y248813D01*
X551598Y246520D01*
X551712Y246323D01*
X549944Y244555D01*
X488478D01*
X488391Y244766D01*
X487536Y245621D01*
X487364Y246250D01*
X487536Y246879D01*
X488391Y247734D01*
X488478Y247945D01*
X542500D01*
X542500Y247945D01*
X543287Y248101D01*
X543954Y248547D01*
X555851Y260445D01*
X565000D01*
X565000Y260445D01*
X565787Y260601D01*
X566454Y261047D01*
X572006Y266599D01*
X572944Y266210D01*
Y220851D01*
X566648Y214555D01*
X555851D01*
X541454Y228953D01*
X540787Y229399D01*
X540000Y229555D01*
X540000Y229555D01*
X423351D01*
X418913Y233994D01*
X419000Y234204D01*
Y235796D01*
X418391Y237266D01*
X417266Y238391D01*
X415796Y239000D01*
X414204D01*
X413072Y238531D01*
X412056Y239040D01*
Y249149D01*
X413994Y251087D01*
X414204Y251000D01*
X415796D01*
X417266Y251609D01*
X418391Y252734D01*
X419000Y254204D01*
Y255796D01*
X418391Y257266D01*
X417536Y258121D01*
X417364Y258750D01*
X417536Y259379D01*
X418391Y260234D01*
X419000Y261704D01*
Y263296D01*
X418391Y264766D01*
X417266Y265891D01*
X415796Y266500D01*
X414204D01*
X412734Y265891D01*
X411609Y264766D01*
X411522Y264555D01*
X407500D01*
X407500Y264555D01*
X406713Y264399D01*
X406047Y263953D01*
X406046Y263953D01*
X399313Y257220D01*
X398297Y257641D01*
Y261234D01*
X390508D01*
Y254453D01*
X397944D01*
Y231000D01*
X397944Y231000D01*
X398101Y230213D01*
X398546Y229547D01*
X408980Y219113D01*
X408422Y218262D01*
X406167Y218866D01*
X403833D01*
X401578Y218262D01*
X399556Y217095D01*
X397905Y215444D01*
X396738Y213422D01*
X396134Y211167D01*
Y208833D01*
X396738Y206578D01*
X397905Y204556D01*
X399556Y202905D01*
X401578Y201738D01*
X403833Y201134D01*
X406167D01*
X408422Y201738D01*
X410444Y202905D01*
X412095Y204556D01*
X413262Y206578D01*
X413866Y208833D01*
Y211167D01*
X413262Y213422D01*
X414113Y213980D01*
X426595Y201499D01*
X427261Y201053D01*
X428048Y200896D01*
X488931D01*
X494929Y194899D01*
Y155535D01*
X479025Y139632D01*
X478094Y140170D01*
X476055Y140716D01*
X473945D01*
X471906Y140170D01*
X470078Y139114D01*
X468586Y137622D01*
X467530Y135794D01*
X466984Y133755D01*
Y131645D01*
X467530Y129606D01*
X468586Y127778D01*
X470078Y126286D01*
X471906Y125230D01*
X473945Y124684D01*
X476055D01*
X478094Y125230D01*
X479025Y125768D01*
X486246Y118547D01*
X486246Y118546D01*
X486913Y118101D01*
X487700Y117944D01*
X487700Y117944D01*
X509250D01*
X509250Y117944D01*
X510037Y118101D01*
X510703Y118546D01*
X521351Y129194D01*
X526500D01*
X526974Y129289D01*
X527475Y128352D01*
X524928Y125806D01*
X520500D01*
X519713Y125649D01*
X519047Y125204D01*
X518601Y124537D01*
X518445Y123750D01*
Y116250D01*
X518601Y115463D01*
X519047Y114796D01*
X519713Y114351D01*
X520500Y114194D01*
X521792D01*
Y109378D01*
X520622D01*
Y109000D01*
X519204D01*
X517734Y108391D01*
X516609Y107266D01*
X516000Y105796D01*
Y104204D01*
X516609Y102734D01*
X517734Y101609D01*
X519204Y101000D01*
X520622D01*
Y100622D01*
X521629D01*
Y94378D01*
X520622D01*
Y90691D01*
X517465Y87535D01*
X516688Y86372D01*
X516415Y85000D01*
Y76766D01*
X515984D01*
Y58234D01*
X516415D01*
Y40266D01*
X515984D01*
Y20789D01*
X514016D01*
Y40266D01*
X512565D01*
Y58234D01*
X514016D01*
Y76766D01*
X512056D01*
Y97300D01*
X512056Y97300D01*
X511899Y98087D01*
X511454Y98753D01*
X511453Y98753D01*
X508016Y102191D01*
Y115316D01*
X491984D01*
Y99284D01*
X505109D01*
X507944Y96448D01*
Y76766D01*
X505984D01*
Y58234D01*
X507435D01*
Y40266D01*
X505984D01*
Y20789D01*
X504016D01*
Y40266D01*
X502056D01*
Y58234D01*
X504016D01*
Y76766D01*
X502056D01*
Y82300D01*
X502056Y82300D01*
X501899Y83087D01*
X501454Y83753D01*
X483016Y102191D01*
Y115316D01*
X466984D01*
Y99284D01*
X480109D01*
X497944Y81448D01*
Y76766D01*
X495984D01*
Y58234D01*
X497944D01*
Y40266D01*
X495984D01*
Y22110D01*
X494968Y21689D01*
X494016Y22641D01*
Y40266D01*
X492056D01*
Y58234D01*
X494016D01*
Y76766D01*
X485984D01*
Y58234D01*
X487944D01*
Y40266D01*
X485984D01*
Y19734D01*
X491109D01*
X493563Y17281D01*
X494229Y16835D01*
X495016Y16679D01*
X495016Y16679D01*
X553734D01*
X553734Y16679D01*
X554521Y16835D01*
X555187Y17281D01*
X583982Y46075D01*
X584201Y45984D01*
X585799D01*
X587275Y46595D01*
X588405Y47725D01*
X589016Y49201D01*
Y50799D01*
X588405Y52275D01*
X587275Y53405D01*
X585799Y54016D01*
X584201D01*
X582725Y53405D01*
X581595Y52275D01*
X580984Y50799D01*
Y49201D01*
X581075Y48982D01*
X552883Y20789D01*
X524016D01*
Y40266D01*
X523585D01*
Y58234D01*
X524016D01*
Y76766D01*
X523585D01*
Y83515D01*
X525691Y85622D01*
X529177D01*
X529807Y85622D01*
X530823Y85622D01*
X534278D01*
Y90000D01*
Y94378D01*
X530823D01*
X530193Y94378D01*
X529518D01*
X528799Y95097D01*
Y99903D01*
X529518Y100622D01*
X530823Y100622D01*
X534278D01*
Y105000D01*
Y109378D01*
X530823D01*
X530193Y109378D01*
X529177Y109378D01*
X526922D01*
Y114278D01*
X527287Y114351D01*
X527953Y114796D01*
X528399Y115463D01*
X528555Y116250D01*
Y122178D01*
X530478Y124100D01*
X531162Y123852D01*
X531445Y123630D01*
Y116250D01*
X531601Y115463D01*
X532047Y114796D01*
X532713Y114351D01*
X533500Y114194D01*
X539500D01*
X540287Y114351D01*
X540953Y114796D01*
X541399Y115463D01*
X541555Y116250D01*
Y117944D01*
X546449D01*
X551984Y112409D01*
Y99284D01*
X568016D01*
Y115316D01*
X554891D01*
X548754Y121454D01*
X548087Y121899D01*
X547300Y122056D01*
X547300Y122056D01*
X541555D01*
Y123750D01*
X541399Y124537D01*
X540953Y125204D01*
X540287Y125649D01*
X539500Y125806D01*
X533620D01*
X533398Y126088D01*
X533150Y126772D01*
X535572Y129194D01*
X539500D01*
X540287Y129351D01*
X540953Y129796D01*
X541399Y130463D01*
X541555Y131250D01*
Y138750D01*
X541399Y139537D01*
X540953Y140204D01*
X540287Y140649D01*
X539500Y140806D01*
X539065D01*
Y144194D01*
X539500D01*
X540287Y144351D01*
X540953Y144796D01*
X541399Y145463D01*
X541555Y146250D01*
Y153750D01*
X541399Y154537D01*
X540953Y155204D01*
X540287Y155649D01*
X539500Y155806D01*
X533500D01*
X532713Y155649D01*
X532047Y155204D01*
X531601Y154537D01*
X531445Y153750D01*
Y146250D01*
X531601Y145463D01*
X532047Y144796D01*
X532713Y144351D01*
X533500Y144194D01*
X533935D01*
Y140806D01*
X533500D01*
X532713Y140649D01*
X532047Y140204D01*
X531601Y139537D01*
X531445Y138750D01*
Y132549D01*
X531435Y132500D01*
Y132312D01*
X529398Y130275D01*
X528461Y130776D01*
X528555Y131250D01*
Y138750D01*
X528399Y139537D01*
X527953Y140204D01*
X527287Y140649D01*
X526500Y140806D01*
X520500D01*
X519713Y140649D01*
X519047Y140204D01*
X518601Y139537D01*
X518445Y138750D01*
Y132101D01*
X508399Y122056D01*
X488551D01*
X481932Y128675D01*
X482470Y129606D01*
X483016Y131645D01*
Y133755D01*
X482470Y135794D01*
X481932Y136725D01*
X497006Y151799D01*
X497944Y151410D01*
Y140448D01*
X496906Y140170D01*
X495078Y139114D01*
X493586Y137622D01*
X492530Y135794D01*
X491984Y133755D01*
Y131645D01*
X492530Y129606D01*
X493586Y127778D01*
X495078Y126286D01*
X496906Y125230D01*
X498945Y124684D01*
X501055D01*
X503094Y125230D01*
X504922Y126286D01*
X506414Y127778D01*
X507470Y129606D01*
X508016Y131645D01*
Y133755D01*
X507470Y135794D01*
X506932Y136725D01*
X517429Y147222D01*
X518445Y146801D01*
Y146250D01*
X518601Y145463D01*
X519047Y144796D01*
X519713Y144351D01*
X520500Y144194D01*
X526500D01*
X527287Y144351D01*
X527953Y144796D01*
X528399Y145463D01*
X528555Y146250D01*
Y153750D01*
X528399Y154537D01*
X527953Y155204D01*
X527287Y155649D01*
X526500Y155806D01*
X520500D01*
X519713Y155649D01*
X519047Y155204D01*
X518601Y154537D01*
X518445Y153750D01*
Y152056D01*
X517300D01*
X516513Y151899D01*
X515846Y151454D01*
X504025Y139632D01*
X503094Y140170D01*
X502056Y140448D01*
Y197000D01*
X501899Y197787D01*
X501454Y198454D01*
X501453Y198454D01*
X493917Y205990D01*
X494306Y206929D01*
X523965D01*
X552336Y178557D01*
X551598Y177280D01*
X550984Y174987D01*
Y172613D01*
X551598Y170320D01*
X552785Y168264D01*
X554464Y166585D01*
X556520Y165398D01*
X558813Y164784D01*
X561187D01*
X563480Y165398D01*
X565536Y166585D01*
X567215Y168264D01*
X568402Y170320D01*
X569016Y172613D01*
Y174987D01*
X568402Y177280D01*
X567215Y179336D01*
X565536Y181015D01*
X563480Y182202D01*
X561187Y182816D01*
X558813D01*
X556520Y182202D01*
X555243Y181464D01*
X527701Y209006D01*
X528090Y209944D01*
X546349D01*
X552336Y203957D01*
X551598Y202680D01*
X550984Y200387D01*
Y198013D01*
X551598Y195720D01*
X552785Y193664D01*
X554464Y191985D01*
X556520Y190798D01*
X558813Y190184D01*
X561187D01*
X563480Y190798D01*
X565536Y191985D01*
X567215Y193664D01*
X568402Y195720D01*
X569016Y198013D01*
Y200387D01*
X568402Y202680D01*
X567215Y204736D01*
X565536Y206415D01*
X563480Y207602D01*
X561187Y208216D01*
X558813D01*
X556520Y207602D01*
X555243Y206864D01*
X548653Y213454D01*
X547987Y213899D01*
X547200Y214056D01*
X547200Y214056D01*
X439100D01*
X439000Y214204D01*
Y215796D01*
X438391Y217266D01*
X437266Y218391D01*
X435796Y219000D01*
X434204D01*
X432734Y218391D01*
X431879Y217536D01*
X431250Y217364D01*
X430621Y217536D01*
X429766Y218391D01*
X428296Y219000D01*
X426704D01*
X425234Y218391D01*
X424109Y217266D01*
X423592Y216017D01*
X422858Y215728D01*
X422484Y215688D01*
X415431Y222741D01*
X415820Y223680D01*
X415976D01*
X417446Y224289D01*
X418571Y225414D01*
X419061Y226596D01*
X420119Y226975D01*
X421046Y226047D01*
X421047Y226047D01*
X421713Y225601D01*
X422500Y225445D01*
X539149D01*
X553546Y211047D01*
X553546Y211047D01*
X554213Y210601D01*
X555000Y210445D01*
X566648D01*
X572944Y204149D01*
Y148551D01*
X564025Y139632D01*
X563094Y140170D01*
X561055Y140716D01*
X558945D01*
X556906Y140170D01*
X555078Y139114D01*
X553586Y137622D01*
X552530Y135794D01*
X551984Y133755D01*
Y131645D01*
X552530Y129606D01*
X553586Y127778D01*
X555078Y126286D01*
X556906Y125230D01*
X558945Y124684D01*
X561055D01*
X563094Y125230D01*
X564922Y126286D01*
X566414Y127778D01*
X567470Y129606D01*
X568016Y131645D01*
Y133755D01*
X567470Y135794D01*
X566932Y136725D01*
X576453Y146247D01*
X576454Y146247D01*
X576899Y146913D01*
X577056Y147700D01*
Y205000D01*
X576899Y205787D01*
X576454Y206453D01*
X576453Y206453D01*
X570407Y212500D01*
X576453Y218547D01*
X576454Y218547D01*
X576899Y219213D01*
X577056Y220000D01*
Y311200D01*
X576899Y311987D01*
X576454Y312654D01*
X576453Y312654D01*
X568748Y320359D01*
X569114Y322200D01*
Y330200D01*
X568725Y332157D01*
X567616Y333816D01*
X565957Y334925D01*
X564000Y335314D01*
X556000D01*
X554043Y334925D01*
X552384Y333816D01*
X551275Y332157D01*
X550886Y330200D01*
Y322200D01*
X551275Y320243D01*
X552384Y318584D01*
X554043Y317475D01*
X556000Y317086D01*
X564000D01*
X565841Y317452D01*
X572944Y310349D01*
Y292090D01*
X572006Y291701D01*
X567664Y296043D01*
X568402Y297320D01*
X569016Y299613D01*
Y301987D01*
X568402Y304280D01*
X567215Y306336D01*
X565536Y308015D01*
X563480Y309202D01*
X561187Y309816D01*
X558813D01*
X556520Y309202D01*
X555243Y308464D01*
X534753Y328954D01*
X534087Y329399D01*
X533300Y329556D01*
X533300Y329556D01*
X263351D01*
X242055Y350851D01*
Y416500D01*
X241899Y417287D01*
X241453Y417953D01*
X241453Y417953D01*
X237478Y421928D01*
X237899Y422944D01*
X243444D01*
Y421250D01*
X243601Y420463D01*
X244047Y419796D01*
X244713Y419351D01*
X245500Y419194D01*
X251500D01*
X252287Y419351D01*
X252953Y419796D01*
X253399Y420463D01*
X253556Y421250D01*
Y428750D01*
X253399Y429537D01*
X252953Y430204D01*
X252287Y430649D01*
X251500Y430806D01*
X245500D01*
X244713Y430649D01*
X244047Y430204D01*
X243601Y429537D01*
X243444Y428750D01*
Y427056D01*
X236556D01*
Y428750D01*
X236399Y429537D01*
X235954Y430204D01*
X235287Y430649D01*
X234500Y430806D01*
X233655D01*
Y436984D01*
X235016D01*
Y443016D01*
D02*
G37*
G36*
X398297Y315547D02*
X390508D01*
Y308766D01*
X398297D01*
Y315547D01*
D02*
G37*
G36*
X489378Y304378D02*
X485508D01*
Y300294D01*
X489378D01*
Y304378D01*
D02*
G37*
G36*
X484492D02*
X480622D01*
Y300294D01*
X484492D01*
Y304378D01*
D02*
G37*
G36*
X444378D02*
X440508D01*
Y300294D01*
X444378D01*
Y304378D01*
D02*
G37*
G36*
X439492D02*
X435622D01*
Y300294D01*
X439492D01*
Y304378D01*
D02*
G37*
G36*
X474378D02*
X470508D01*
Y300294D01*
X474378D01*
Y304378D01*
D02*
G37*
G36*
X469492D02*
X465622D01*
Y300294D01*
X469492D01*
Y304378D01*
D02*
G37*
G36*
X429378D02*
X425508D01*
Y300294D01*
X429378D01*
Y304378D01*
D02*
G37*
G36*
X424492D02*
X420622D01*
Y300294D01*
X424492D01*
Y304378D01*
D02*
G37*
G36*
X459378Y304164D02*
X455508D01*
Y300079D01*
X459378D01*
Y304164D01*
D02*
G37*
G36*
X454492D02*
X450622D01*
Y300079D01*
X454492D01*
Y304164D01*
D02*
G37*
G36*
X470000Y299786D02*
D01*
Y299278D01*
X465622D01*
Y296100D01*
X462500D01*
X461950Y295872D01*
X461400Y296100D01*
X459378D01*
Y299063D01*
X455000D01*
X450622D01*
Y296100D01*
X447500D01*
X446950Y295872D01*
X446400Y296100D01*
X444378D01*
Y299278D01*
X440000D01*
X435622D01*
Y296100D01*
X429378D01*
Y299277D01*
X425000D01*
X420622D01*
Y296100D01*
X417500D01*
X416722Y295778D01*
X416400Y295000D01*
Y282500D01*
X416722Y281722D01*
X417500Y281400D01*
X431400D01*
Y272500D01*
X431722Y271722D01*
X432500Y271400D01*
X435622D01*
Y268222D01*
X440000D01*
X444378D01*
Y271400D01*
X446400D01*
X446950Y271628D01*
X447500Y271400D01*
X450622D01*
Y268222D01*
X455000D01*
X459378D01*
Y271400D01*
X465622D01*
Y268223D01*
X470000D01*
X474378D01*
Y271400D01*
X476400D01*
X476950Y271628D01*
X477500Y271400D01*
X480622D01*
Y268222D01*
X485000D01*
X489378D01*
Y271400D01*
X492500D01*
X493278Y271722D01*
X493600Y272500D01*
Y295000D01*
X493278Y295778D01*
X492500Y296100D01*
X489378D01*
Y299278D01*
X485000D01*
X480622D01*
Y296100D01*
X474378D01*
Y299278D01*
X470000D01*
Y299786D01*
D02*
G37*
G36*
X223516Y296016D02*
X210508D01*
Y290508D01*
X223516D01*
Y296016D01*
D02*
G37*
G36*
X209492D02*
X196484D01*
Y290508D01*
X209492D01*
Y296016D01*
D02*
G37*
G36*
X253516D02*
X240508D01*
Y290508D01*
X253516D01*
Y296016D01*
D02*
G37*
G36*
X239492D02*
X226484D01*
Y290508D01*
X239492D01*
Y296016D01*
D02*
G37*
G36*
X500796Y294000D02*
X499204D01*
X497734Y293391D01*
X496609Y292266D01*
X496000Y290796D01*
Y289204D01*
X496609Y287734D01*
X497734Y286609D01*
X499204Y286000D01*
X500796D01*
X502266Y286609D01*
X503391Y287734D01*
X504000Y289204D01*
Y290796D01*
X503391Y292266D01*
X502266Y293391D01*
X500796Y294000D01*
D02*
G37*
G36*
X253516Y289492D02*
X240508D01*
Y283984D01*
X253516D01*
Y289492D01*
D02*
G37*
G36*
X239492D02*
X226484D01*
Y283984D01*
X239492D01*
Y289492D01*
D02*
G37*
G36*
X223516Y289492D02*
X210508D01*
Y283984D01*
X223516D01*
Y289492D01*
D02*
G37*
G36*
X209492D02*
X196484D01*
Y283984D01*
X209492D01*
Y289492D01*
D02*
G37*
G36*
X489378Y267206D02*
X485508D01*
Y263122D01*
X489378D01*
Y267206D01*
D02*
G37*
G36*
X484492D02*
X480622D01*
Y263122D01*
X484492D01*
Y267206D01*
D02*
G37*
G36*
X474378Y267206D02*
X470508D01*
Y263122D01*
X474378D01*
Y267206D01*
D02*
G37*
G36*
X469492D02*
X465622D01*
Y263122D01*
X469492D01*
Y267206D01*
D02*
G37*
G36*
X459378Y267206D02*
X455508D01*
Y263122D01*
X459378D01*
Y267206D01*
D02*
G37*
G36*
X454492D02*
X450622D01*
Y263122D01*
X454492D01*
Y267206D01*
D02*
G37*
G36*
X444378Y267206D02*
X440508D01*
Y263122D01*
X444378D01*
Y267206D01*
D02*
G37*
G36*
X439492D02*
X435622D01*
Y263122D01*
X439492D01*
Y267206D01*
D02*
G37*
G36*
X290487Y259992D02*
X284979D01*
Y255984D01*
X290487D01*
Y259992D01*
D02*
G37*
G36*
X51170Y238890D02*
X50508D01*
Y230508D01*
X58890D01*
Y231170D01*
X58284Y233431D01*
X57114Y235459D01*
X55459Y237114D01*
X53431Y238284D01*
X51170Y238890D01*
D02*
G37*
G36*
X49492D02*
X48830D01*
X46569Y238284D01*
X44541Y237114D01*
X42886Y235459D01*
X41716Y233431D01*
X41110Y231170D01*
Y230508D01*
X49492D01*
Y238890D01*
D02*
G37*
G36*
X370000Y226100D02*
X290000D01*
X289222Y225778D01*
X288900Y225000D01*
Y223976D01*
X288766Y223016D01*
X287884Y223016D01*
X280508D01*
Y210508D01*
X288766D01*
Y213351D01*
X289782Y213991D01*
X290000Y213900D01*
X291234D01*
Y210532D01*
X291234Y210484D01*
X291234D01*
Y209516D01*
X291234D01*
Y204032D01*
X291234Y203984D01*
X291234D01*
Y203016D01*
X291234D01*
Y197484D01*
X298350D01*
X298561Y196468D01*
X286471Y184378D01*
X280823D01*
X280193Y184378D01*
X279177Y184378D01*
X275723D01*
Y180000D01*
Y175622D01*
X279177D01*
X279807Y175622D01*
X280823Y175622D01*
X289378D01*
Y181471D01*
X302220Y194313D01*
X302665Y194979D01*
X302822Y195766D01*
Y202984D01*
X302822Y202984D01*
X302796Y203110D01*
X303733Y203610D01*
X308797Y198547D01*
X308797Y198547D01*
X309463Y198101D01*
X310250Y197945D01*
X310250Y197945D01*
X369898D01*
X374194Y193649D01*
Y188500D01*
X374351Y187713D01*
X374796Y187047D01*
X375463Y186601D01*
X376250Y186444D01*
X383750D01*
X384537Y186601D01*
X385204Y187047D01*
X385649Y187713D01*
X385806Y188500D01*
Y194500D01*
X385649Y195287D01*
X385204Y195954D01*
X384537Y196399D01*
X383750Y196556D01*
X382056D01*
Y198444D01*
X383750D01*
X384537Y198601D01*
X385204Y199046D01*
X385649Y199713D01*
X385806Y200500D01*
Y206500D01*
X385649Y207287D01*
X385204Y207953D01*
X384537Y208399D01*
X383750Y208556D01*
X376250D01*
X375463Y208399D01*
X374796Y207953D01*
X374351Y207287D01*
X374194Y206500D01*
Y200899D01*
X373194Y200463D01*
X372203Y201453D01*
X371537Y201899D01*
X371100Y202056D01*
Y214445D01*
X374194D01*
Y213500D01*
X374351Y212713D01*
X374796Y212047D01*
X375463Y211601D01*
X376250Y211444D01*
X383750D01*
X384537Y211601D01*
X385204Y212047D01*
X385649Y212713D01*
X385806Y213500D01*
Y219500D01*
X385649Y220287D01*
X385204Y220954D01*
X384537Y221399D01*
X383750Y221556D01*
X376250D01*
X375463Y221399D01*
X374796Y220954D01*
X374351Y220287D01*
X374194Y219500D01*
Y218556D01*
X371100D01*
Y225000D01*
X370778Y225778D01*
X370000Y226100D01*
D02*
G37*
G36*
X58890Y229492D02*
X50508D01*
Y221110D01*
X51170D01*
X53431Y221716D01*
X55459Y222886D01*
X57114Y224541D01*
X58284Y226569D01*
X58890Y228830D01*
Y229492D01*
D02*
G37*
G36*
X49492D02*
X41110D01*
Y228830D01*
X41716Y226569D01*
X42886Y224541D01*
X44541Y222886D01*
X46569Y221716D01*
X48830Y221110D01*
X49492D01*
Y229492D01*
D02*
G37*
G36*
X270000Y228600D02*
X215000D01*
X214222Y228278D01*
X213900Y227500D01*
Y218556D01*
X210805D01*
Y219500D01*
X210649Y220287D01*
X210203Y220954D01*
X209537Y221399D01*
X208750Y221556D01*
X201250D01*
X200463Y221399D01*
X199797Y220954D01*
X199351Y220287D01*
X199195Y219500D01*
Y213500D01*
X199351Y212713D01*
X199797Y212047D01*
X200463Y211601D01*
X201250Y211444D01*
X208750D01*
X209537Y211601D01*
X210203Y212047D01*
X210649Y212713D01*
X210805Y213500D01*
Y214445D01*
X213900D01*
Y211322D01*
X211516D01*
X210729Y211165D01*
X210063Y210720D01*
X210062Y210719D01*
X207899Y208556D01*
X201250D01*
X200463Y208399D01*
X199797Y207953D01*
X199351Y207287D01*
X199195Y206500D01*
Y200500D01*
X199351Y199713D01*
X199797Y199047D01*
X200463Y198601D01*
X201250Y198444D01*
X208750D01*
X209537Y198601D01*
X210203Y199047D01*
X210649Y199713D01*
X210805Y200500D01*
Y205649D01*
X212367Y207211D01*
X217234D01*
Y203008D01*
X225000D01*
X232766D01*
Y207211D01*
X237234D01*
Y203008D01*
X245000D01*
X252766D01*
Y204926D01*
X253782Y205207D01*
X254314Y204851D01*
X255101Y204694D01*
X255101Y204694D01*
X259493D01*
X260234Y203984D01*
Y203016D01*
X260234Y202968D01*
Y200758D01*
X264500D01*
X268766D01*
Y202968D01*
X268766Y203016D01*
Y203984D01*
X268766Y204032D01*
Y208900D01*
X270000D01*
X270218Y208991D01*
X271234Y208351D01*
Y196984D01*
X279492D01*
Y210000D01*
Y223016D01*
X271234Y223016D01*
X271100Y223976D01*
Y227500D01*
X270778Y228278D01*
X270000Y228600D01*
D02*
G37*
G36*
X268766Y199742D02*
X265008D01*
Y197484D01*
X268766D01*
Y199742D01*
D02*
G37*
G36*
X263992D02*
X260234D01*
Y197484D01*
X263992D01*
Y199742D01*
D02*
G37*
G36*
X288766Y209492D02*
X280508D01*
Y196984D01*
X288766D01*
Y209492D01*
D02*
G37*
G36*
X252766Y201992D02*
X245508D01*
Y196734D01*
X252766D01*
Y201992D01*
D02*
G37*
G36*
X244492D02*
X237234D01*
Y196734D01*
X244492D01*
Y201992D01*
D02*
G37*
G36*
X232766Y201992D02*
X225508D01*
Y196734D01*
X232766D01*
Y201992D01*
D02*
G37*
G36*
X224492D02*
X217234D01*
Y196734D01*
X224492D01*
Y201992D01*
D02*
G37*
G36*
X480987Y195000D02*
X479013D01*
X477105Y194489D01*
X476250Y193995D01*
X475395Y194489D01*
X473487Y195000D01*
X471513D01*
X469605Y194489D01*
X467895Y193501D01*
X466498Y192105D01*
X465511Y190395D01*
X465000Y188487D01*
Y186513D01*
X465511Y184605D01*
X466498Y182895D01*
X467895Y181499D01*
X467957Y181463D01*
Y179234D01*
X456834Y168111D01*
X456834Y168111D01*
X388525Y99802D01*
X387179Y97788D01*
X386707Y95413D01*
Y78234D01*
X385611Y77139D01*
X385032Y76271D01*
X384016Y76579D01*
Y76766D01*
X380508D01*
Y67500D01*
Y58234D01*
X384016D01*
Y58421D01*
X385032Y58729D01*
X385611Y57861D01*
X386707Y56766D01*
Y41734D01*
X385611Y40638D01*
X385032Y39771D01*
X384016Y40079D01*
Y40266D01*
X380508D01*
Y30000D01*
Y19734D01*
X384016D01*
Y26171D01*
X385032Y26479D01*
X385611Y25612D01*
X385980Y25365D01*
Y19730D01*
X394020D01*
Y25365D01*
X394388Y25612D01*
X395398Y25508D01*
X395980Y24946D01*
Y19730D01*
X404020D01*
Y25365D01*
X404389Y25612D01*
X404968Y26479D01*
X405984Y26171D01*
Y19734D01*
X409492D01*
Y30000D01*
Y40266D01*
X405984D01*
Y40079D01*
X404968Y39771D01*
X404389Y40638D01*
X403293Y41734D01*
Y56766D01*
X404389Y57861D01*
X404968Y58729D01*
X405984Y58421D01*
Y58234D01*
X409492D01*
Y67500D01*
Y76766D01*
X405984D01*
Y76579D01*
X404968Y76271D01*
X404389Y77139D01*
X403293Y78234D01*
Y91113D01*
X467340Y155160D01*
X482725Y170546D01*
X484071Y172559D01*
X484543Y174934D01*
Y181463D01*
X484605Y181499D01*
X486002Y182895D01*
X486989Y184605D01*
X487500Y186513D01*
Y188487D01*
X486989Y190395D01*
X486002Y192105D01*
X484605Y193501D01*
X482895Y194489D01*
X480987Y195000D01*
D02*
G37*
G36*
X324492Y195528D02*
X310453D01*
Y187254D01*
X324492D01*
Y195528D01*
D02*
G37*
G36*
X355508D02*
Y187253D01*
X369547D01*
Y195528D01*
X355508D01*
D02*
G37*
G36*
X515796Y194000D02*
X514204D01*
X512734Y193391D01*
X511609Y192266D01*
X511000Y190796D01*
Y189204D01*
X511609Y187734D01*
X512734Y186609D01*
X514204Y186000D01*
X515796D01*
X517266Y186609D01*
X518391Y187734D01*
X519000Y189204D01*
Y190796D01*
X518391Y192266D01*
X517266Y193391D01*
X515796Y194000D01*
D02*
G37*
G36*
X274707Y184378D02*
X270622D01*
Y180508D01*
X274707D01*
Y184378D01*
D02*
G37*
G36*
X383750Y183556D02*
X380508D01*
Y179008D01*
X385806D01*
Y181500D01*
X385649Y182287D01*
X385204Y182953D01*
X384537Y183399D01*
X383750Y183556D01*
D02*
G37*
G36*
X379492D02*
X376250D01*
X375463Y183399D01*
X374796Y182953D01*
X374351Y182287D01*
X374194Y181500D01*
Y179008D01*
X379492D01*
Y183556D01*
D02*
G37*
G36*
X369547Y186238D02*
X355508D01*
Y177963D01*
X369547D01*
Y186238D01*
D02*
G37*
G36*
X324492Y186238D02*
X310453D01*
Y177963D01*
X324492D01*
Y186238D01*
D02*
G37*
G36*
X340453Y195528D02*
X339547D01*
X339437Y195528D01*
X325508D01*
Y186746D01*
Y177963D01*
X339437D01*
X339547Y177963D01*
X340453D01*
X340563Y177963D01*
X354492D01*
Y186745D01*
Y195528D01*
X340563D01*
X340453Y195528D01*
D02*
G37*
G36*
X274707Y179492D02*
X270622D01*
Y175622D01*
X274707D01*
Y179492D01*
D02*
G37*
G36*
X385806Y177992D02*
X380508D01*
Y173444D01*
X383750D01*
X384537Y173601D01*
X385204Y174046D01*
X385649Y174713D01*
X385806Y175500D01*
Y177992D01*
D02*
G37*
G36*
X379492D02*
X374194D01*
Y175500D01*
X374351Y174713D01*
X374796Y174046D01*
X375463Y173601D01*
X376250Y173444D01*
X379492D01*
Y177992D01*
D02*
G37*
G36*
X41167Y188866D02*
X38833D01*
X36578Y188262D01*
X34556Y187095D01*
X32905Y185444D01*
X31738Y183422D01*
X31134Y181167D01*
Y178833D01*
X31738Y176578D01*
X32905Y174556D01*
X34556Y172905D01*
X36578Y171738D01*
X38833Y171134D01*
X41167D01*
X43422Y171738D01*
X45444Y172905D01*
X47095Y174556D01*
X48262Y176578D01*
X48866Y178833D01*
Y181167D01*
X48262Y183422D01*
X47095Y185444D01*
X45444Y187095D01*
X43422Y188262D01*
X41167Y188866D01*
D02*
G37*
G36*
X246167Y186366D02*
X243833D01*
X241578Y185762D01*
X239556Y184595D01*
X237905Y182944D01*
X236738Y180922D01*
X236134Y178667D01*
Y176333D01*
X236738Y174078D01*
X237905Y172056D01*
X239556Y170405D01*
X241578Y169238D01*
X243833Y168634D01*
X246167D01*
X248422Y169238D01*
X250444Y170405D01*
X252095Y172056D01*
X253262Y174078D01*
X253866Y176333D01*
Y178667D01*
X253262Y180922D01*
X252095Y182944D01*
X250444Y184595D01*
X248422Y185762D01*
X246167Y186366D01*
D02*
G37*
G36*
X370000Y161100D02*
X290000D01*
X289222Y160778D01*
X288900Y160000D01*
Y158976D01*
X288766Y158016D01*
X287884Y158016D01*
X280508D01*
Y145508D01*
X288766D01*
Y148351D01*
X289782Y148991D01*
X290000Y148900D01*
X291234D01*
Y145532D01*
X291234Y145484D01*
X291234D01*
Y144516D01*
X291234D01*
Y139032D01*
X291234Y138984D01*
X291234D01*
Y138016D01*
X291234D01*
Y132484D01*
X298350D01*
X298561Y131468D01*
X286471Y119378D01*
X280823D01*
X280193Y119378D01*
X279177Y119378D01*
X275723D01*
Y115000D01*
X275215D01*
D01*
X275723D01*
Y110622D01*
X279177D01*
X279807Y110622D01*
X280823Y110622D01*
X289378D01*
Y116471D01*
X302220Y129313D01*
X302665Y129979D01*
X302822Y130766D01*
Y137984D01*
X302822Y137984D01*
X302796Y138110D01*
X303733Y138610D01*
X308797Y133547D01*
X308797Y133547D01*
X309463Y133101D01*
X310250Y132944D01*
X310250Y132944D01*
X369898D01*
X374194Y128649D01*
Y123500D01*
X374351Y122713D01*
X374796Y122046D01*
X375463Y121601D01*
X376250Y121445D01*
X383750D01*
X384537Y121601D01*
X385204Y122046D01*
X385649Y122713D01*
X385806Y123500D01*
Y129500D01*
X385649Y130287D01*
X385204Y130954D01*
X384537Y131399D01*
X383750Y131556D01*
X382056D01*
Y133444D01*
X383750D01*
X384537Y133601D01*
X385204Y134046D01*
X385649Y134713D01*
X385806Y135500D01*
Y141500D01*
X385649Y142287D01*
X385204Y142954D01*
X384537Y143399D01*
X383750Y143555D01*
X376250D01*
X375463Y143399D01*
X374796Y142954D01*
X374351Y142287D01*
X374194Y141500D01*
Y135899D01*
X373194Y135463D01*
X372203Y136454D01*
X371537Y136899D01*
X371100Y137056D01*
Y149445D01*
X374194D01*
Y148500D01*
X374351Y147713D01*
X374796Y147046D01*
X375463Y146601D01*
X376250Y146445D01*
X383750D01*
X384537Y146601D01*
X385204Y147046D01*
X385649Y147713D01*
X385806Y148500D01*
Y154500D01*
X385649Y155287D01*
X385204Y155954D01*
X384537Y156399D01*
X383750Y156556D01*
X376250D01*
X375463Y156399D01*
X374796Y155954D01*
X374351Y155287D01*
X374194Y154500D01*
Y153555D01*
X371100D01*
Y160000D01*
X370778Y160778D01*
X370000Y161100D01*
D02*
G37*
G36*
X270000Y163600D02*
X215000D01*
X214222Y163278D01*
X213900Y162500D01*
Y153555D01*
X210805D01*
Y154500D01*
X210649Y155287D01*
X210203Y155954D01*
X209537Y156399D01*
X208750Y156556D01*
X201250D01*
X200463Y156399D01*
X199797Y155954D01*
X199351Y155287D01*
X199195Y154500D01*
Y148500D01*
X199351Y147713D01*
X199797Y147047D01*
X200463Y146601D01*
X201250Y146445D01*
X208750D01*
X209537Y146601D01*
X210203Y147047D01*
X210649Y147713D01*
X210805Y148500D01*
Y149445D01*
X213900D01*
Y146321D01*
X211516D01*
X210729Y146165D01*
X210063Y145719D01*
X210062Y145719D01*
X207899Y143555D01*
X201250D01*
X200463Y143399D01*
X199797Y142954D01*
X199351Y142287D01*
X199195Y141500D01*
Y135500D01*
X199351Y134713D01*
X199797Y134047D01*
X200463Y133601D01*
X201250Y133444D01*
X208750D01*
X209537Y133601D01*
X210203Y134047D01*
X210649Y134713D01*
X210805Y135500D01*
Y140649D01*
X212367Y142211D01*
X217234D01*
Y138008D01*
X225000D01*
X232766D01*
Y142211D01*
X237234D01*
Y138008D01*
X245000D01*
X252766D01*
Y139926D01*
X253782Y140207D01*
X254314Y139851D01*
X255101Y139694D01*
X255101Y139694D01*
X259493D01*
X260234Y138984D01*
Y138016D01*
X260234Y137968D01*
Y135758D01*
X264500D01*
X268766D01*
Y137968D01*
X268766Y138016D01*
Y138984D01*
X268766Y139032D01*
Y143900D01*
X270000D01*
X270218Y143991D01*
X271234Y143351D01*
Y131984D01*
X279492D01*
Y145000D01*
Y158016D01*
X271234Y158016D01*
X271100Y158976D01*
Y162500D01*
X270778Y163278D01*
X270000Y163600D01*
D02*
G37*
G36*
X406167Y153866D02*
X403833D01*
X401578Y153262D01*
X399556Y152095D01*
X397905Y150444D01*
X396738Y148422D01*
X396134Y146167D01*
Y143833D01*
X396738Y141578D01*
X397905Y139556D01*
X399556Y137905D01*
X401578Y136738D01*
X403833Y136134D01*
X406167D01*
X408422Y136738D01*
X410444Y137905D01*
X412095Y139556D01*
X413262Y141578D01*
X413866Y143833D01*
Y146167D01*
X413262Y148422D01*
X412095Y150444D01*
X410444Y152095D01*
X408422Y153262D01*
X406167Y153866D01*
D02*
G37*
G36*
X268766Y134742D02*
X265008D01*
Y132484D01*
X268766D01*
Y134742D01*
D02*
G37*
G36*
X263992D02*
X260234D01*
Y132484D01*
X263992D01*
Y134742D01*
D02*
G37*
G36*
X288766Y144492D02*
X280508D01*
Y131984D01*
X288766D01*
Y144492D01*
D02*
G37*
G36*
X252766Y136992D02*
X245508D01*
Y131734D01*
X252766D01*
Y136992D01*
D02*
G37*
G36*
X244492D02*
X237234D01*
Y131734D01*
X244492D01*
Y136992D01*
D02*
G37*
G36*
X232766Y136992D02*
X225508D01*
Y131734D01*
X232766D01*
Y136992D01*
D02*
G37*
G36*
X224492D02*
X217234D01*
Y131734D01*
X224492D01*
Y136992D01*
D02*
G37*
G36*
X41167Y143866D02*
X38833D01*
X36578Y143262D01*
X34556Y142095D01*
X32905Y140444D01*
X31738Y138422D01*
X31134Y136167D01*
Y133833D01*
X31738Y131578D01*
X32905Y129556D01*
X34556Y127905D01*
X36578Y126738D01*
X38833Y126134D01*
X41167D01*
X43422Y126738D01*
X45444Y127905D01*
X47095Y129556D01*
X48262Y131578D01*
X48866Y133833D01*
Y136167D01*
X48262Y138422D01*
X47095Y140444D01*
X45444Y142095D01*
X43422Y143262D01*
X41167Y143866D01*
D02*
G37*
G36*
X324492Y130528D02*
X310453D01*
Y122254D01*
X324492D01*
Y130528D01*
D02*
G37*
G36*
X355508D02*
Y122254D01*
X369547D01*
Y130528D01*
X355508D01*
D02*
G37*
G36*
X274707Y119378D02*
X270622D01*
Y115508D01*
X274707D01*
Y119378D01*
D02*
G37*
G36*
X383750Y118555D02*
X380508D01*
Y114008D01*
X385806D01*
Y116500D01*
X385649Y117287D01*
X385204Y117954D01*
X384537Y118399D01*
X383750Y118555D01*
D02*
G37*
G36*
X379492D02*
X376250D01*
X375463Y118399D01*
X374796Y117954D01*
X374351Y117287D01*
X374194Y116500D01*
Y114008D01*
X379492D01*
Y118555D01*
D02*
G37*
G36*
X369547Y121237D02*
X355508D01*
Y112963D01*
X369547D01*
Y121237D01*
D02*
G37*
G36*
X324492Y121238D02*
X310453D01*
Y112963D01*
X324492D01*
Y121238D01*
D02*
G37*
G36*
X340453Y130528D02*
X339547D01*
X339437Y130528D01*
X325508D01*
Y121746D01*
Y112963D01*
X339437D01*
X339547Y112963D01*
X340453D01*
X340563Y112963D01*
X354492D01*
Y121746D01*
Y130528D01*
X340563D01*
X340453Y130528D01*
D02*
G37*
G36*
X274707Y114492D02*
X270622D01*
Y110622D01*
X274707D01*
Y114492D01*
D02*
G37*
G36*
X385806Y112992D02*
X380508D01*
Y108444D01*
X383750D01*
X384537Y108601D01*
X385204Y109046D01*
X385649Y109713D01*
X385806Y110500D01*
Y112992D01*
D02*
G37*
G36*
X379492D02*
X374194D01*
Y110500D01*
X374351Y109713D01*
X374796Y109046D01*
X375463Y108601D01*
X376250Y108444D01*
X379492D01*
Y112992D01*
D02*
G37*
G36*
X535294Y109378D02*
Y105508D01*
X539378D01*
Y109378D01*
X535294D01*
D02*
G37*
G36*
X539378Y104492D02*
X535294D01*
Y100622D01*
X539378D01*
Y104492D01*
D02*
G37*
G36*
X459737Y95000D02*
X457763D01*
X455855Y94489D01*
X455000Y93995D01*
X454145Y94489D01*
X452237Y95000D01*
X450263D01*
X448355Y94489D01*
X446645Y93502D01*
X445248Y92105D01*
X444261Y90395D01*
X443750Y88487D01*
Y86513D01*
X444261Y84605D01*
X445248Y82895D01*
X446645Y81498D01*
X446707Y81463D01*
Y78234D01*
X445612Y77139D01*
X445032Y76271D01*
X444016Y76579D01*
Y76766D01*
X440508D01*
Y67500D01*
Y58234D01*
X444016D01*
Y58421D01*
X445032Y58729D01*
X445612Y57861D01*
X446707Y56766D01*
Y41734D01*
X445612Y40638D01*
X445032Y39771D01*
X444016Y40079D01*
Y40266D01*
X440508D01*
Y30000D01*
Y19734D01*
X444016D01*
Y26171D01*
X445032Y26479D01*
X445612Y25612D01*
X445980Y25365D01*
Y19730D01*
X454020D01*
Y25365D01*
X454388Y25612D01*
X455398Y25508D01*
X455980Y24946D01*
Y19730D01*
X464020D01*
Y25365D01*
X464389Y25612D01*
X464968Y26479D01*
X465984Y26171D01*
Y19734D01*
X469492D01*
Y30000D01*
Y40266D01*
X465984D01*
Y40079D01*
X464968Y39771D01*
X464389Y40638D01*
X463293Y41734D01*
Y56766D01*
X464389Y57861D01*
X464968Y58729D01*
X465984Y58421D01*
Y58234D01*
X469492D01*
Y67500D01*
Y76766D01*
X465984D01*
Y76579D01*
X464968Y76271D01*
X464389Y77139D01*
X463293Y78234D01*
Y81463D01*
X463355Y81498D01*
X464752Y82895D01*
X465739Y84605D01*
X466250Y86513D01*
Y88487D01*
X465739Y90395D01*
X464752Y92105D01*
X463355Y93502D01*
X461645Y94489D01*
X459737Y95000D01*
D02*
G37*
G36*
X429737D02*
X427763D01*
X425855Y94489D01*
X425000Y93995D01*
X424145Y94489D01*
X422237Y95000D01*
X420263D01*
X418355Y94489D01*
X416645Y93502D01*
X415248Y92105D01*
X414261Y90395D01*
X413750Y88487D01*
Y86513D01*
X414261Y84605D01*
X415248Y82895D01*
X416645Y81498D01*
X416707Y81463D01*
Y78234D01*
X415612Y77139D01*
X415032Y76271D01*
X414016Y76579D01*
Y76766D01*
X410508D01*
Y67500D01*
Y58234D01*
X414016D01*
Y58421D01*
X415032Y58729D01*
X415612Y57861D01*
X416707Y56766D01*
Y41734D01*
X415612Y40638D01*
X415032Y39771D01*
X414016Y40079D01*
Y40266D01*
X410508D01*
Y30000D01*
Y19734D01*
X414016D01*
Y26171D01*
X415032Y26479D01*
X415612Y25612D01*
X415980Y25365D01*
Y19730D01*
X424020D01*
Y25365D01*
X424389Y25612D01*
X425398Y25508D01*
X425980Y24946D01*
Y19730D01*
X434020D01*
Y25365D01*
X434389Y25612D01*
X434968Y26479D01*
X435984Y26171D01*
Y19734D01*
X439492D01*
Y30000D01*
Y40266D01*
X435984D01*
Y40079D01*
X434968Y39771D01*
X434389Y40638D01*
X433293Y41734D01*
Y56766D01*
X434389Y57861D01*
X434968Y58729D01*
X435984Y58421D01*
Y58234D01*
X439492D01*
Y67500D01*
Y76766D01*
X435984D01*
Y76579D01*
X434968Y76271D01*
X434389Y77139D01*
X433293Y78234D01*
Y81463D01*
X433355Y81498D01*
X434752Y82895D01*
X435739Y84605D01*
X436250Y86513D01*
Y88487D01*
X435739Y90395D01*
X434752Y92105D01*
X433355Y93502D01*
X431645Y94489D01*
X429737Y95000D01*
D02*
G37*
G36*
X535294Y94378D02*
Y90508D01*
X539378D01*
Y94378D01*
X535294D01*
D02*
G37*
G36*
X41167Y98866D02*
X40508D01*
Y90508D01*
X48866D01*
Y91167D01*
X48262Y93422D01*
X47095Y95444D01*
X45444Y97095D01*
X43422Y98262D01*
X41167Y98866D01*
D02*
G37*
G36*
X39492D02*
X38833D01*
X36578Y98262D01*
X34556Y97095D01*
X32905Y95444D01*
X31738Y93422D01*
X31134Y91167D01*
Y90508D01*
X39492D01*
Y98866D01*
D02*
G37*
G36*
X539378Y89492D02*
X535294D01*
Y85622D01*
X539378D01*
Y89492D01*
D02*
G37*
G36*
X48866D02*
X40508D01*
Y81134D01*
X41167D01*
X43422Y81738D01*
X45444Y82905D01*
X47095Y84556D01*
X48262Y86578D01*
X48866Y88833D01*
Y89492D01*
D02*
G37*
G36*
X39492D02*
X31134D01*
Y88833D01*
X31738Y86578D01*
X32905Y84556D01*
X34556Y82905D01*
X36578Y81738D01*
X38833Y81134D01*
X39492D01*
Y89492D01*
D02*
G37*
G36*
X474016Y76766D02*
X470508D01*
Y68008D01*
X474016D01*
Y76766D01*
D02*
G37*
G36*
X379492D02*
X375984D01*
Y68008D01*
X379492D01*
Y76766D01*
D02*
G37*
G36*
X474016Y66992D02*
X470508D01*
Y58234D01*
X474016D01*
Y66992D01*
D02*
G37*
G36*
X379492D02*
X375984D01*
Y58234D01*
X379492D01*
Y66992D01*
D02*
G37*
G36*
X42168Y67540D02*
X41270D01*
Y41270D01*
X67540D01*
Y42168D01*
X66862Y46449D01*
X65522Y50572D01*
X63554Y54434D01*
X61006Y57941D01*
X57941Y61006D01*
X54434Y63554D01*
X50572Y65522D01*
X46449Y66862D01*
X42168Y67540D01*
D02*
G37*
G36*
X38730D02*
X37833D01*
X33551Y66862D01*
X29428Y65522D01*
X25566Y63554D01*
X22059Y61006D01*
X18994Y57941D01*
X16446Y54434D01*
X14478Y50572D01*
X13138Y46449D01*
X12460Y42168D01*
Y41270D01*
X38730D01*
Y67540D01*
D02*
G37*
G36*
X302167D02*
X301270D01*
Y41270D01*
X327540D01*
Y42168D01*
X326862Y46449D01*
X325522Y50572D01*
X323554Y54434D01*
X321006Y57941D01*
X317941Y61006D01*
X314434Y63554D01*
X310572Y65522D01*
X306449Y66862D01*
X302167Y67540D01*
D02*
G37*
G36*
X298730D02*
X297833D01*
X293551Y66862D01*
X289428Y65522D01*
X285566Y63554D01*
X282059Y61006D01*
X278994Y57941D01*
X276446Y54434D01*
X274478Y50572D01*
X273138Y46449D01*
X272460Y42168D01*
Y41270D01*
X298730D01*
Y67540D01*
D02*
G37*
G36*
X474016Y40266D02*
X470508D01*
Y30508D01*
X474016D01*
Y40266D01*
D02*
G37*
G36*
X379492D02*
X375984D01*
Y30508D01*
X379492D01*
Y40266D01*
D02*
G37*
G36*
X484016Y76766D02*
X475984D01*
Y58234D01*
X477944D01*
Y40266D01*
X475984D01*
Y19734D01*
X484016D01*
Y40266D01*
X482056D01*
Y58234D01*
X484016D01*
Y76766D01*
D02*
G37*
G36*
X474016Y29492D02*
X470508D01*
Y19734D01*
X474016D01*
Y29492D01*
D02*
G37*
G36*
X379492D02*
X375984D01*
Y19734D01*
X379492D01*
Y29492D01*
D02*
G37*
G36*
X327540Y38730D02*
X301270D01*
Y12460D01*
X302167D01*
X306449Y13138D01*
X310572Y14478D01*
X314434Y16446D01*
X317941Y18994D01*
X321006Y22059D01*
X323554Y25566D01*
X325522Y29428D01*
X326862Y33551D01*
X327540Y37833D01*
Y38730D01*
D02*
G37*
G36*
X298730D02*
X272460D01*
Y37833D01*
X273138Y33551D01*
X274478Y29428D01*
X276446Y25566D01*
X278994Y22059D01*
X282059Y18994D01*
X285566Y16446D01*
X289428Y14478D01*
X293551Y13138D01*
X297833Y12460D01*
X298730D01*
Y38730D01*
D02*
G37*
G36*
X67540Y38730D02*
X41270D01*
Y12460D01*
X42168D01*
X46449Y13138D01*
X50572Y14478D01*
X54434Y16446D01*
X57941Y18994D01*
X61006Y22059D01*
X63554Y25566D01*
X65522Y29428D01*
X66862Y33551D01*
X67540Y37833D01*
Y38730D01*
D02*
G37*
G36*
X38730D02*
X12460D01*
Y37833D01*
X13138Y33551D01*
X14478Y29428D01*
X16446Y25566D01*
X18994Y22059D01*
X22059Y18994D01*
X25566Y16446D01*
X29428Y14478D01*
X33551Y13138D01*
X37833Y12460D01*
X38730D01*
Y38730D01*
D02*
G37*
%LPD*%
G36*
X325000Y337500D02*
X262500D01*
Y419194D01*
X264500D01*
X265287Y419351D01*
X265954Y419796D01*
X266399Y420463D01*
X266556Y421250D01*
Y422500D01*
X325000D01*
Y337500D01*
D02*
G37*
G36*
X380000Y300000D02*
X400000D01*
Y270000D01*
X380000D01*
Y255000D01*
X355000D01*
Y315000D01*
X380000D01*
Y300000D01*
D02*
G37*
G36*
X325000Y255000D02*
X297500D01*
Y265000D01*
X297011D01*
Y265016D01*
X285000D01*
Y274984D01*
X297011D01*
Y275000D01*
X297500D01*
Y315000D01*
X325000D01*
Y255000D01*
D02*
G37*
G36*
X160000Y271100D02*
X130000D01*
X129222Y270778D01*
X128900Y270000D01*
Y250000D01*
X90000D01*
Y310000D01*
X120000D01*
Y317312D01*
X120876Y318453D01*
X121784Y320646D01*
X122094Y323000D01*
X121784Y325354D01*
X120876Y327547D01*
X120000Y328688D01*
Y390000D01*
X160000D01*
Y271100D01*
D02*
G37*
G36*
X411609Y260234D02*
X412464Y259379D01*
X412636Y258750D01*
X412464Y258121D01*
X411609Y257266D01*
X411000Y255796D01*
Y254204D01*
X411087Y253994D01*
X408546Y251453D01*
X408101Y250787D01*
X407944Y250000D01*
X407944Y250000D01*
Y227290D01*
X407006Y226901D01*
X402056Y231852D01*
Y254149D01*
X408351Y260445D01*
X411522D01*
X411609Y260234D01*
D02*
G37*
G36*
X160000Y255657D02*
X159109Y254766D01*
X158500Y253296D01*
Y251704D01*
X159109Y250234D01*
X160000Y249343D01*
Y210000D01*
X130000D01*
Y270000D01*
X160000D01*
Y255657D01*
D02*
G37*
G36*
X220000Y350000D02*
X190000D01*
Y275000D01*
X194282Y275000D01*
X195000Y274282D01*
Y275000D01*
X262989D01*
Y274984D01*
X275000D01*
Y245000D01*
X190000D01*
Y210000D01*
X162116Y210000D01*
X161100Y211016D01*
Y237359D01*
X167516D01*
Y242891D01*
X165130D01*
Y249473D01*
X165891Y250234D01*
X166500Y251704D01*
Y253296D01*
X165891Y254766D01*
X164766Y255891D01*
X163296Y256500D01*
X161704D01*
X161100Y256904D01*
Y270000D01*
X160872Y270550D01*
X161100Y271100D01*
Y390000D01*
X160778Y390778D01*
X160000Y391100D01*
X160000Y392116D01*
Y410000D01*
X220000D01*
Y350000D01*
D02*
G37*
G36*
X461400Y293157D02*
X461722Y292379D01*
X462459Y291643D01*
X462500Y291543D01*
Y288457D01*
X462459Y288357D01*
X461722Y287621D01*
X461400Y286843D01*
Y282500D01*
X461722Y281722D01*
X462500Y281400D01*
X476400D01*
Y272500D01*
X447500D01*
Y295000D01*
X450622D01*
Y294979D01*
X459378D01*
Y295000D01*
X461400D01*
Y293157D01*
D02*
G37*
G36*
X492500Y272500D02*
X477500D01*
Y282500D01*
X462500D01*
Y286843D01*
X463391Y287734D01*
X464000Y289204D01*
Y290796D01*
X463391Y292266D01*
X462500Y293157D01*
Y295000D01*
X492500D01*
Y272500D01*
D02*
G37*
G36*
X446400D02*
X432500D01*
Y282500D01*
X417500D01*
Y295000D01*
X446400D01*
Y272500D01*
D02*
G37*
G36*
X370000Y202055D02*
X311101D01*
X299766Y213391D01*
Y216016D01*
X291234D01*
Y215000D01*
X290000D01*
Y225000D01*
X370000D01*
Y202055D01*
D02*
G37*
G36*
X270000Y210000D02*
X254758D01*
X254039Y210720D01*
X253372Y211165D01*
X253241Y211191D01*
X252585Y211322D01*
X252585Y211322D01*
X215000D01*
Y227500D01*
X270000D01*
Y210000D01*
D02*
G37*
G36*
X370000Y137056D02*
X311101D01*
X299766Y148391D01*
Y151016D01*
X291234D01*
Y150000D01*
X290000D01*
Y160000D01*
X370000D01*
Y137056D01*
D02*
G37*
G36*
X270000Y145000D02*
X254758D01*
X254039Y145719D01*
X253372Y146165D01*
X253241Y146191D01*
X252585Y146321D01*
X252585Y146321D01*
X215000D01*
Y162500D01*
X270000D01*
Y145000D01*
D02*
G37*
D14*
X543000Y385500D02*
X544500D01*
X546000Y383672D02*
Y384000D01*
X547172Y382500D02*
X558500D01*
X546000Y383672D02*
X547172Y382500D01*
X544500Y385500D02*
X546000Y384000D01*
Y396000D02*
Y396328D01*
X544500Y394500D02*
X546000Y396000D01*
Y396328D02*
X547172Y397500D01*
X543000Y394500D02*
X544500D01*
X547172Y397500D02*
X558500D01*
X552193Y390000D02*
X562015D01*
X564516Y392501D01*
Y402499D01*
X355000Y213254D02*
X358246Y216500D01*
X380000D01*
X355000Y148254D02*
X358246Y151500D01*
X380000D01*
X240000Y350000D02*
Y416500D01*
X262500Y327500D02*
X533300D01*
X240000Y350000D02*
X262500Y327500D01*
X533300D02*
X560000Y300800D01*
X344516Y324484D02*
X363500Y305500D01*
X269005Y303581D02*
X289908Y324484D01*
X344516D01*
X231500Y425000D02*
X240000Y416500D01*
X567500Y212500D02*
X575000Y220000D01*
Y311200D01*
X438000Y212000D02*
X547200D01*
X433516Y208984D02*
X524816D01*
X547200Y212000D02*
X560000Y199200D01*
X435000Y215000D02*
X438000Y212000D01*
X524816Y208984D02*
X560000Y173800D01*
X427500Y215000D02*
X433516Y208984D01*
X231500Y425000D02*
X248500D01*
X231500D02*
X231600Y425100D01*
Y440000D01*
X207000Y380000D02*
Y396500D01*
X218500Y408000D01*
Y425000D01*
X571984Y269484D02*
Y288816D01*
X560000Y300800D02*
X571984Y288816D01*
X565000Y262500D02*
X571984Y269484D01*
X555000Y262500D02*
X565000D01*
X542500Y250000D02*
X555000Y262500D01*
X485000Y250000D02*
X542500D01*
X422000Y213265D02*
Y213265D01*
X410000Y225265D02*
Y250000D01*
Y225265D02*
X422000Y213265D01*
X429297Y205968D02*
X491032D01*
X422000Y213265D02*
X429297Y205968D01*
X400000Y231000D02*
X428048Y202952D01*
X489783D01*
X400000Y231000D02*
Y255000D01*
X491032Y205968D02*
X500000Y197000D01*
X489783Y202952D02*
X496984Y195751D01*
X422500Y227500D02*
X540000D01*
X415000Y235000D02*
X422500Y227500D01*
X500000Y132700D02*
Y197000D01*
X496984Y154684D02*
Y195751D01*
X410000Y250000D02*
X415000Y255000D01*
X475000Y132700D02*
X496984Y154684D01*
X407500Y262500D02*
X415000D01*
X400000Y255000D02*
X407500Y262500D01*
X568500Y400500D02*
X571500Y397500D01*
X568500Y400500D02*
Y402780D01*
X563998Y407282D02*
X568500Y402780D01*
X524782Y407282D02*
X563998D01*
X520000Y402500D02*
X524782Y407282D01*
X528500Y394500D02*
X538266Y404266D01*
X562749D01*
X527000Y394500D02*
X528500D01*
X524000Y384000D02*
X525500Y385500D01*
X520574Y378074D02*
Y379074D01*
X524000Y382500D02*
Y384000D01*
X525500Y385500D02*
X527000D01*
X520574Y379074D02*
X524000Y382500D01*
X520000Y377500D02*
X520574Y378074D01*
X562749Y404266D02*
X564516Y402499D01*
X560000Y326200D02*
X575000Y311200D01*
X560000Y132700D02*
X575000Y147700D01*
Y205000D01*
X567500Y212500D02*
X575000Y205000D01*
X555000Y212500D02*
X567500D01*
X540000Y227500D02*
X555000Y212500D01*
X549600Y235000D02*
X560000Y224600D01*
X485000Y235000D02*
X549600D01*
X558296Y250000D02*
X560000D01*
X550796Y242500D02*
X558296Y250000D01*
X485000Y242500D02*
X550796D01*
X542100Y257500D02*
X560000Y275400D01*
X485000Y257500D02*
X542100D01*
X553734Y18734D02*
X585000Y50000D01*
X495016Y18734D02*
X553734D01*
X490000Y23750D02*
X495016Y18734D01*
X490000Y23750D02*
Y30000D01*
X547300Y120000D02*
X560000Y107300D01*
X536500Y120000D02*
X547300D01*
X480000Y30000D02*
Y67500D01*
X490000Y30000D02*
Y67500D01*
X500000Y30000D02*
Y67500D01*
X509250Y120000D02*
X523500Y134250D01*
X487700Y120000D02*
X509250D01*
X475000Y132700D02*
X487700Y120000D01*
X523500Y134250D02*
Y135000D01*
X500000Y132700D02*
X517300Y150000D01*
X523500D01*
X500000Y107300D02*
X510000Y97300D01*
Y67500D02*
Y97300D01*
X475000Y107300D02*
X500000Y82300D01*
Y67500D02*
Y82300D01*
X163824Y240125D02*
X164000D01*
X163074Y240875D02*
X163824Y240125D01*
X162500Y252500D02*
X163074Y251926D01*
Y240875D02*
Y251926D01*
X379250Y126500D02*
X380000D01*
Y138500D01*
X370750Y135000D02*
X379250Y126500D01*
X310250Y135000D02*
X370750D01*
X297000Y148250D02*
X310250Y135000D01*
X297000Y141750D02*
X300766Y137984D01*
X295500Y148250D02*
X297000D01*
X295500Y141750D02*
X297000D01*
X300766Y130766D02*
Y137984D01*
X252585Y144266D02*
X255101Y141750D01*
X264500D01*
X205000Y138500D02*
X205750D01*
X211516Y144266D01*
X252585D01*
X224000Y151500D02*
X225000Y152500D01*
X205000Y151500D02*
X224000D01*
X284786Y115000D02*
X285000D01*
X300766Y130766D01*
X284786Y180000D02*
X285000D01*
X255101Y206750D02*
X264500D01*
X370750Y200000D02*
X379250Y191500D01*
X380000D02*
Y203500D01*
X205000Y216500D02*
X224000D01*
X205000Y203500D02*
X205750D01*
X252585Y209266D02*
X255101Y206750D01*
X211516Y209266D02*
X252585D01*
X285000Y180000D02*
X300766Y195766D01*
X379250Y191500D02*
X380000D01*
X310250Y200000D02*
X370750D01*
X300766Y195766D02*
Y202984D01*
X295500Y213250D02*
X297000D01*
X295500Y206750D02*
X297000D01*
X300766Y202984D01*
X297000Y213250D02*
X310250Y200000D01*
X224000Y216500D02*
X225000Y217500D01*
X205750Y203500D02*
X211516Y209266D01*
X363500Y285000D02*
Y305500D01*
X269005Y279500D02*
Y303581D01*
D18*
X231500Y425000D02*
D03*
X218500D02*
D03*
X261500D02*
D03*
X248500D02*
D03*
X571500Y382500D02*
D03*
X523500Y120000D02*
D03*
X536500D02*
D03*
X536500Y150000D02*
D03*
X523500D02*
D03*
X536500Y135000D02*
D03*
X523500D02*
D03*
X558500Y397500D02*
D03*
X571500D02*
D03*
X558500Y382500D02*
D03*
D19*
X325000Y121746D02*
D03*
Y186746D02*
D03*
X355000D02*
D03*
Y121746D02*
D03*
Y148254D02*
D03*
X325000D02*
D03*
Y213254D02*
D03*
X355000D02*
D03*
D20*
X485000Y267714D02*
D03*
X425000Y299786D02*
D03*
X470000Y267714D02*
D03*
X455000D02*
D03*
Y299571D02*
D03*
X485000Y299786D02*
D03*
X470000D02*
D03*
X440000Y267714D02*
D03*
Y299786D02*
D03*
X425000Y290214D02*
D03*
X440000Y277286D02*
D03*
Y290214D02*
D03*
X485000Y277286D02*
D03*
X470000Y290214D02*
D03*
X485000D02*
D03*
X455000Y290000D02*
D03*
Y277286D02*
D03*
X470000D02*
D03*
D21*
X390000Y308258D02*
D03*
Y261742D02*
D03*
Y278258D02*
D03*
Y291742D02*
D03*
D22*
X240000Y290000D02*
D03*
X210000D02*
D03*
X240000Y260000D02*
D03*
X210000D02*
D03*
D23*
X290995Y260500D02*
D03*
X269005Y270000D02*
D03*
Y260500D02*
D03*
X290995Y279500D02*
D03*
Y270000D02*
D03*
X269005Y279500D02*
D03*
D24*
X218400Y440000D02*
D03*
X231600D02*
D03*
D25*
X534786Y90000D02*
D03*
Y105000D02*
D03*
X275214Y180000D02*
D03*
Y115000D02*
D03*
X284786D02*
D03*
Y180000D02*
D03*
X525214Y105000D02*
D03*
Y90000D02*
D03*
X284786Y300000D02*
D03*
X275214D02*
D03*
D26*
X380000Y30000D02*
D03*
X410000D02*
D03*
X440000D02*
D03*
X470000D02*
D03*
X520000D02*
D03*
X510000D02*
D03*
X500000D02*
D03*
X490000D02*
D03*
X480000D02*
D03*
X460000D02*
D03*
X450000D02*
D03*
X430000D02*
D03*
X420000D02*
D03*
X400000D02*
D03*
X390000D02*
D03*
D27*
X380000Y67500D02*
D03*
X410000D02*
D03*
X440000D02*
D03*
X470000D02*
D03*
X520000D02*
D03*
X510000D02*
D03*
X500000D02*
D03*
X490000D02*
D03*
X480000D02*
D03*
X460000D02*
D03*
X450000D02*
D03*
X430000D02*
D03*
X420000D02*
D03*
X400000D02*
D03*
X390000D02*
D03*
D28*
X380000Y178500D02*
D03*
Y113500D02*
D03*
Y126500D02*
D03*
Y138500D02*
D03*
Y151500D02*
D03*
X205000Y151500D02*
D03*
Y138500D02*
D03*
X380000Y191500D02*
D03*
Y203500D02*
D03*
Y216500D02*
D03*
X205000Y216500D02*
D03*
Y203500D02*
D03*
D29*
X245000Y202500D02*
D03*
X225000D02*
D03*
X245000Y137500D02*
D03*
X225000D02*
D03*
X245000Y152500D02*
D03*
X225000D02*
D03*
Y217500D02*
D03*
X245000D02*
D03*
D30*
X280000Y210000D02*
D03*
Y145000D02*
D03*
D31*
X264500Y200250D02*
D03*
Y135250D02*
D03*
X295500Y154750D02*
D03*
Y148250D02*
D03*
Y141750D02*
D03*
Y135250D02*
D03*
X264500Y141750D02*
D03*
Y148250D02*
D03*
Y154750D02*
D03*
X295500Y219750D02*
D03*
Y213250D02*
D03*
Y206750D02*
D03*
Y200250D02*
D03*
X264500Y206750D02*
D03*
Y213250D02*
D03*
Y219750D02*
D03*
D32*
X273000Y380000D02*
D03*
X207000D02*
D03*
D33*
X164000Y220625D02*
D03*
Y227125D02*
D03*
Y233625D02*
D03*
Y240125D02*
D03*
D34*
X140000Y297250D02*
D03*
Y262750D02*
D03*
D35*
X311500Y380000D02*
D03*
X368500D02*
D03*
D36*
X543000Y385500D02*
D03*
X527000D02*
D03*
X543000Y394500D02*
D03*
X527000D02*
D03*
D37*
X363500Y285000D02*
D03*
X316500D02*
D03*
D50*
X40000Y90000D02*
D03*
X245000Y322500D02*
D03*
X405000Y210000D02*
D03*
X245000Y177500D02*
D03*
X405000Y145000D02*
D03*
X40000Y180000D02*
D03*
Y135000D02*
D03*
D51*
X75000Y370000D02*
D03*
D52*
X105000Y323000D02*
D03*
D53*
X50000Y230000D02*
D03*
X102000Y265000D02*
D03*
D55*
X135000Y370000D02*
D03*
D60*
X144900Y230375D02*
D03*
D61*
X585000Y50000D02*
D03*
D62*
X397087Y93684D02*
X462952Y159549D01*
X392913Y95413D02*
X461223Y163723D01*
X427087Y85072D02*
X428750Y86735D01*
X427087Y75663D02*
X430000Y72750D01*
X428750Y86735D02*
Y87500D01*
X427087Y75663D02*
Y85072D01*
X430000Y67500D02*
Y72750D01*
X420000Y67500D02*
Y72750D01*
X421250Y86735D02*
Y87500D01*
X422913Y75663D02*
Y85072D01*
X421250Y86735D02*
X422913Y85072D01*
X420000Y72750D02*
X422913Y75663D01*
X420000Y62250D02*
Y67500D01*
X422913Y39163D02*
Y59337D01*
X420000Y62250D02*
X422913Y59337D01*
X420000Y30000D02*
Y36250D01*
X422913Y39163D01*
X427087Y59337D02*
X430000Y62250D01*
X427087Y39163D02*
X430000Y36250D01*
Y62250D02*
Y67500D01*
X427087Y39163D02*
Y59337D01*
X430000Y30000D02*
Y36250D01*
X457087Y59337D02*
X460000Y62250D01*
X457087Y39163D02*
X460000Y36250D01*
Y62250D02*
Y67500D01*
X457087Y39163D02*
Y59337D01*
X460000Y30000D02*
Y36250D01*
X450000Y30000D02*
Y36250D01*
Y62250D02*
Y67500D01*
X452913Y39163D02*
Y59337D01*
X450000Y62250D02*
X452913Y59337D01*
X450000Y36250D02*
X452913Y39163D01*
X450000Y67500D02*
Y72750D01*
X451250Y86735D02*
Y87500D01*
X452913Y75663D02*
Y85072D01*
X451250Y86735D02*
X452913Y85072D01*
X450000Y72750D02*
X452913Y75663D01*
X457087Y85072D02*
X458750Y86735D01*
X457087Y75663D02*
X460000Y72750D01*
X458750Y86735D02*
Y87500D01*
X457087Y75663D02*
Y85072D01*
X460000Y67500D02*
Y72750D01*
X400000Y62250D02*
Y67500D01*
X397087Y39163D02*
Y59337D01*
Y39163D02*
X400000Y36250D01*
Y30000D02*
Y36250D01*
X397087Y59337D02*
X400000Y62250D01*
X390000D02*
Y67500D01*
Y62250D02*
X392913Y59337D01*
Y39163D02*
Y59337D01*
X390000Y30000D02*
Y36250D01*
X392913Y39163D01*
Y75663D02*
Y95413D01*
X390000Y72750D02*
X392913Y75663D01*
X390000Y67500D02*
Y72750D01*
X461223Y163723D02*
X461223D01*
X472500Y186735D02*
Y187500D01*
X474163Y176663D02*
Y185072D01*
X472500Y186735D02*
X474163Y185072D01*
X461223Y163723D02*
X474163Y176663D01*
X397087Y75663D02*
Y93684D01*
Y75663D02*
X400000Y72750D01*
Y67500D02*
Y72750D01*
X478337Y185072D02*
X480000Y186735D01*
X462952Y159549D02*
X478337Y174934D01*
X480000Y186735D02*
Y187500D01*
X478337Y174934D02*
Y185072D01*
X462952Y159549D02*
X462952D01*
D63*
X207000Y380000D02*
X214500Y372500D01*
Y353000D02*
Y372500D01*
Y353000D02*
X245000Y322500D01*
X524357Y105220D02*
Y105857D01*
X524138Y105000D02*
X524357Y105220D01*
X520000Y105000D02*
X524138D01*
X520000Y30000D02*
Y67500D01*
X525214Y90000D02*
Y105000D01*
X525000Y90000D02*
X525214D01*
X520000Y85000D02*
X525000Y90000D01*
X520000Y67500D02*
Y85000D01*
X276291Y292704D02*
Y299138D01*
X288495Y280500D02*
Y280500D01*
X276291Y292704D02*
X288495Y280500D01*
X289495Y279500D02*
X290995D01*
X288495Y280500D02*
X289495Y279500D01*
X275429Y300000D02*
X276291Y299138D01*
X275214Y300000D02*
X275429D01*
X284786D02*
X302500D01*
D64*
X510000Y30000D02*
Y67500D01*
X523500Y120000D02*
X524357Y119143D01*
Y105857D02*
Y119143D01*
X536500Y135000D02*
Y150000D01*
X534000Y132500D02*
X536500Y135000D01*
X534000Y131250D02*
Y132500D01*
X523500Y120750D02*
X534000Y131250D01*
D65*
X300000Y40000D02*
D03*
X560000Y460000D02*
D03*
X340000D02*
D03*
X40000D02*
D03*
Y40000D02*
D03*
D66*
X281000D02*
D03*
X286565Y53435D02*
D03*
X300000Y59000D02*
D03*
X313435Y53435D02*
D03*
X319000Y40000D02*
D03*
X313435Y26565D02*
D03*
X300000Y21000D02*
D03*
X286565Y26565D02*
D03*
X573435Y446565D02*
D03*
X560000Y441000D02*
D03*
X546565Y446565D02*
D03*
X579000Y460000D02*
D03*
X573435Y473435D02*
D03*
X560000Y479000D02*
D03*
X546565Y473435D02*
D03*
X541000Y460000D02*
D03*
X353435Y446565D02*
D03*
X340000Y441000D02*
D03*
X326565Y446565D02*
D03*
X359000Y460000D02*
D03*
X353435Y473435D02*
D03*
X340000Y479000D02*
D03*
X326565Y473435D02*
D03*
X321000Y460000D02*
D03*
X53435Y446565D02*
D03*
X40000Y441000D02*
D03*
X26565Y446565D02*
D03*
X59000Y460000D02*
D03*
X53435Y473435D02*
D03*
X40000Y479000D02*
D03*
X26565Y473435D02*
D03*
X21000Y460000D02*
D03*
X53435Y26565D02*
D03*
X40000Y21000D02*
D03*
X26565Y26565D02*
D03*
X59000Y40000D02*
D03*
X53435Y53435D02*
D03*
X40000Y59000D02*
D03*
X26565Y53435D02*
D03*
X21000Y40000D02*
D03*
X440000Y182500D02*
D03*
X428750Y87500D02*
D03*
X421250D02*
D03*
X458750D02*
D03*
X451250D02*
D03*
X480000Y187500D02*
D03*
X472500D02*
D03*
X522500Y317500D02*
D03*
X500000D02*
D03*
X417500Y320000D02*
D03*
X480000Y317500D02*
D03*
X475000Y357500D02*
D03*
X410000Y380000D02*
D03*
X340000D02*
D03*
X202500Y340000D02*
D03*
X325000Y242500D02*
D03*
X340000Y170000D02*
D03*
X390000Y220000D02*
D03*
Y195000D02*
D03*
X400000Y165000D02*
D03*
X392500Y112500D02*
D03*
X560000Y150000D02*
D03*
X490000Y170000D02*
D03*
X440000Y105000D02*
D03*
Y122500D02*
D03*
Y157500D02*
D03*
X245000Y135000D02*
D03*
X225000D02*
D03*
X245000Y200000D02*
D03*
X225000D02*
D03*
X240000Y290000D02*
D03*
X210000D02*
D03*
X415000Y340000D02*
D03*
X552193Y390000D02*
D03*
X530000Y430000D02*
D03*
X555000Y80000D02*
D03*
X530000Y30000D02*
D03*
X380000Y430000D02*
D03*
X355000Y80000D02*
D03*
X280000Y430000D02*
D03*
X305000Y180000D02*
D03*
X180000Y430000D02*
D03*
X105000Y380000D02*
D03*
X80000Y330000D02*
D03*
Y230000D02*
D03*
X55000Y380000D02*
D03*
X30000Y330000D02*
D03*
X55000Y280000D02*
D03*
X30000Y230000D02*
D03*
X55000Y80000D02*
D03*
X500000Y290000D02*
D03*
X377500Y380000D02*
D03*
X515000Y190000D02*
D03*
X510000Y380000D02*
D03*
X439000Y239000D02*
D03*
X450000D02*
D03*
X461000D02*
D03*
X439000Y250000D02*
D03*
X450000D02*
D03*
X461000D02*
D03*
X439000Y261000D02*
D03*
X450000D02*
D03*
X461000D02*
D03*
X180000Y227500D02*
D03*
X485000Y250000D02*
D03*
X355000D02*
D03*
X427500Y215000D02*
D03*
X435000D02*
D03*
X415180Y227680D02*
D03*
X350000Y150000D02*
D03*
X330000D02*
D03*
X340000D02*
D03*
X350000Y215000D02*
D03*
X330000D02*
D03*
X340000D02*
D03*
X245000Y152500D02*
D03*
X225000D02*
D03*
X235000D02*
D03*
X245000Y217500D02*
D03*
X225000D02*
D03*
X235000D02*
D03*
X397500Y275000D02*
D03*
X382500D02*
D03*
X390000D02*
D03*
X405000Y250000D02*
D03*
X520000Y377500D02*
D03*
Y402500D02*
D03*
X485000Y257500D02*
D03*
Y242500D02*
D03*
Y235000D02*
D03*
X415000Y300000D02*
D03*
Y270000D02*
D03*
X405000Y235000D02*
D03*
X520000Y105000D02*
D03*
X470000Y50000D02*
D03*
X380000D02*
D03*
X410000D02*
D03*
X440000D02*
D03*
X487500Y187500D02*
D03*
X465000D02*
D03*
X413750Y87500D02*
D03*
X436250D02*
D03*
X443750D02*
D03*
X466250D02*
D03*
X480000Y67500D02*
D03*
X162500Y252500D02*
D03*
X440000Y290000D02*
D03*
X415000Y235000D02*
D03*
X460000Y290000D02*
D03*
X415000Y255000D02*
D03*
Y262500D02*
D03*
X467500Y290000D02*
D03*
D67*
X282700Y460000D02*
D03*
X500000Y132700D02*
D03*
X475000D02*
D03*
X560000D02*
D03*
D68*
X424600Y475400D02*
D03*
X475400D02*
D03*
Y424600D02*
D03*
X424600D02*
D03*
D69*
X560000Y300800D02*
D03*
Y173800D02*
D03*
Y199200D02*
D03*
Y250000D02*
D03*
Y275400D02*
D03*
Y224600D02*
D03*
D70*
X450000Y450000D02*
D03*
D71*
X500000Y107300D02*
D03*
X475000D02*
D03*
X560000D02*
D03*
D72*
X257300Y460000D02*
D03*
D73*
X560000Y326200D02*
D03*
D74*
X280000Y204000D02*
D03*
Y216000D02*
D03*
Y139000D02*
D03*
Y151000D02*
D03*
M02*
