G04*
G04 #@! TF.GenerationSoftware,Altium Limited,Altium Designer,25.8.1 (18)*
G04*
G04 Layer_Color=8421504*
%FSLAX44Y44*%
%MOMM*%
G71*
G04*
G04 #@! TF.SameCoordinates,09717A42-CF54-47D0-A9E9-54450B3338D6*
G04*
G04*
G04 #@! TF.FilePolarity,Positive*
G04*
G01*
G75*
G04:AMPARAMS|DCode=18|XSize=0.95mm|YSize=0.8mm|CornerRadius=0.1mm|HoleSize=0mm|Usage=FLASHONLY|Rotation=270.000|XOffset=0mm|YOffset=0mm|HoleType=Round|Shape=RoundedRectangle|*
%AMROUNDEDRECTD18*
21,1,0.9500,0.6000,0,0,270.0*
21,1,0.7500,0.8000,0,0,270.0*
1,1,0.2000,-0.3000,-0.3750*
1,1,0.2000,-0.3000,0.3750*
1,1,0.2000,0.3000,0.3750*
1,1,0.2000,0.3000,-0.3750*
%
%ADD18ROUNDEDRECTD18*%
%ADD19R,2.7062X1.5533*%
%ADD20R,0.6725X0.7154*%
%ADD21R,1.4562X1.2546*%
%ADD22R,2.5000X1.0000*%
%ADD23R,1.0000X0.7000*%
%ADD24R,0.4800X0.4000*%
%ADD25R,0.7154X0.6725*%
%ADD26R,0.6000X1.8500*%
%ADD27R,0.6000X1.6500*%
G04:AMPARAMS|DCode=28|XSize=0.95mm|YSize=0.8mm|CornerRadius=0.1mm|HoleSize=0mm|Usage=FLASHONLY|Rotation=180.000|XOffset=0mm|YOffset=0mm|HoleType=Round|Shape=RoundedRectangle|*
%AMROUNDEDRECTD28*
21,1,0.9500,0.6000,0,0,180.0*
21,1,0.7500,0.8000,0,0,180.0*
1,1,0.2000,-0.3750,0.3000*
1,1,0.2000,0.3750,0.3000*
1,1,0.2000,0.3750,-0.3000*
1,1,0.2000,-0.3750,-0.3000*
%
%ADD28ROUNDEDRECTD28*%
%ADD29R,1.3500X0.9500*%
%ADD30R,1.5500X2.4000*%
%ADD31R,0.6500X0.3500*%
%ADD32R,2.0000X5.3000*%
%ADD33R,0.5000X0.3500*%
%ADD34R,1.6500X1.2500*%
%ADD35R,2.2000X8.0000*%
%ADD36R,0.8000X0.5000*%
%ADD37R,1.6000X5.7000*%
G36*
X152150Y242625D02*
X156300D01*
Y218125D01*
X152150D01*
Y214325D01*
X147850D01*
Y218125D01*
X136500D01*
Y218625D01*
X133500D01*
Y222625D01*
X136500D01*
Y225125D01*
X133500D01*
Y229125D01*
X136500D01*
Y231625D01*
X133500D01*
Y235625D01*
X136500D01*
Y238125D01*
X133500D01*
Y242125D01*
X136500D01*
Y242625D01*
X147850D01*
Y246425D01*
X152150D01*
Y242625D01*
D02*
G37*
D18*
X231500Y425000D02*
D03*
X218500D02*
D03*
X261500D02*
D03*
X248500D02*
D03*
X571500Y382500D02*
D03*
X523500Y120000D02*
D03*
X536500D02*
D03*
X536500Y150000D02*
D03*
X523500D02*
D03*
X536500Y135000D02*
D03*
X523500D02*
D03*
X558500Y397500D02*
D03*
X571500D02*
D03*
X558500Y382500D02*
D03*
D19*
X325000Y121746D02*
D03*
Y186746D02*
D03*
X355000D02*
D03*
Y121746D02*
D03*
Y148254D02*
D03*
X325000D02*
D03*
Y213254D02*
D03*
X355000D02*
D03*
D20*
X485000Y267714D02*
D03*
X425000Y299786D02*
D03*
X470000Y267714D02*
D03*
X455000D02*
D03*
Y299571D02*
D03*
X485000Y299786D02*
D03*
X470000D02*
D03*
X440000Y267714D02*
D03*
Y299786D02*
D03*
X425000Y290214D02*
D03*
X440000Y277286D02*
D03*
Y290214D02*
D03*
X485000Y277286D02*
D03*
X470000Y290214D02*
D03*
X485000D02*
D03*
X455000Y290000D02*
D03*
Y277286D02*
D03*
X470000D02*
D03*
D21*
X390000Y308258D02*
D03*
Y261742D02*
D03*
Y278258D02*
D03*
Y291742D02*
D03*
D22*
X240000Y290000D02*
D03*
X210000D02*
D03*
X240000Y260000D02*
D03*
X210000D02*
D03*
D23*
X290995Y260500D02*
D03*
X269005Y270000D02*
D03*
Y260500D02*
D03*
X290995Y279500D02*
D03*
Y270000D02*
D03*
X269005Y279500D02*
D03*
D24*
X218400Y440000D02*
D03*
X231600D02*
D03*
D25*
X534786Y90000D02*
D03*
Y105000D02*
D03*
X275214Y180000D02*
D03*
Y115000D02*
D03*
X284786D02*
D03*
Y180000D02*
D03*
X525214Y105000D02*
D03*
Y90000D02*
D03*
X284786Y300000D02*
D03*
X275214D02*
D03*
D26*
X380000Y30000D02*
D03*
X410000D02*
D03*
X440000D02*
D03*
X470000D02*
D03*
X520000D02*
D03*
X510000D02*
D03*
X500000D02*
D03*
X490000D02*
D03*
X480000D02*
D03*
X460000D02*
D03*
X450000D02*
D03*
X430000D02*
D03*
X420000D02*
D03*
X400000D02*
D03*
X390000D02*
D03*
D27*
X380000Y67500D02*
D03*
X410000D02*
D03*
X440000D02*
D03*
X470000D02*
D03*
X520000D02*
D03*
X510000D02*
D03*
X500000D02*
D03*
X490000D02*
D03*
X480000D02*
D03*
X460000D02*
D03*
X450000D02*
D03*
X430000D02*
D03*
X420000D02*
D03*
X400000D02*
D03*
X390000D02*
D03*
D28*
X380000Y178500D02*
D03*
Y113500D02*
D03*
Y126500D02*
D03*
Y138500D02*
D03*
Y151500D02*
D03*
X205000Y151500D02*
D03*
Y138500D02*
D03*
X380000Y191500D02*
D03*
Y203500D02*
D03*
Y216500D02*
D03*
X205000Y216500D02*
D03*
Y203500D02*
D03*
D29*
X245000Y202500D02*
D03*
X225000D02*
D03*
X245000Y137500D02*
D03*
X225000D02*
D03*
X245000Y152500D02*
D03*
X225000D02*
D03*
Y217500D02*
D03*
X245000D02*
D03*
D30*
X280000Y210000D02*
D03*
Y145000D02*
D03*
D31*
X264500Y200250D02*
D03*
Y135250D02*
D03*
X295500Y154750D02*
D03*
Y148250D02*
D03*
Y141750D02*
D03*
Y135250D02*
D03*
X264500Y141750D02*
D03*
Y148250D02*
D03*
Y154750D02*
D03*
X295500Y219750D02*
D03*
Y213250D02*
D03*
Y206750D02*
D03*
Y200250D02*
D03*
X264500Y206750D02*
D03*
Y213250D02*
D03*
Y219750D02*
D03*
D32*
X273000Y380000D02*
D03*
X207000D02*
D03*
D33*
X164000Y220625D02*
D03*
Y227125D02*
D03*
Y233625D02*
D03*
Y240125D02*
D03*
D34*
X140000Y297250D02*
D03*
Y262750D02*
D03*
D35*
X311500Y380000D02*
D03*
X368500D02*
D03*
D36*
X543000Y385500D02*
D03*
X527000D02*
D03*
X543000Y394500D02*
D03*
X527000D02*
D03*
D37*
X363500Y285000D02*
D03*
X316500D02*
D03*
M02*
