G04*
G04 #@! TF.GenerationSoftware,Altium Limited,Altium Designer,25.8.1 (18)*
G04*
G04 Layer_Color=32896*
%FSLAX44Y44*%
%MOMM*%
G71*
G04*
G04 #@! TF.SameCoordinates,09717A42-CF54-47D0-A9E9-54450B3338D6*
G04*
G04*
G04 #@! TF.FilePolarity,Positive*
G04*
G01*
G75*
%ADD10C,0.5080*%
%ADD11C,0.2500*%
%ADD13C,0.1000*%
%ADD14C,0.2000*%
D10*
X105810Y322966D02*
G03*
X105810Y322966I-3810J0D01*
G01*
D11*
X554250Y408500D02*
G03*
X554250Y408500I-1250J0D01*
G01*
X177600Y241600D02*
G03*
X177600Y241600I-1250J0D01*
G01*
X358623Y309393D02*
G03*
X358623Y309393I-1250J0D01*
G01*
X418250Y225000D02*
G03*
X418250Y225000I-1250J0D01*
G01*
D13*
X536500Y233000D02*
G03*
X536500Y233000I-500J0D01*
G01*
Y288000D02*
G03*
X536500Y288000I-500J0D01*
G01*
D14*
X522000Y213000D02*
Y217000D01*
X508000Y213000D02*
Y217000D01*
X522000Y238000D02*
Y242000D01*
X508000Y238000D02*
Y242000D01*
X533998Y239260D02*
Y240740D01*
X526000Y239260D02*
Y240740D01*
X533998Y294260D02*
Y295740D01*
X526000Y294260D02*
Y295740D01*
X522000Y293000D02*
Y297000D01*
X508000Y293000D02*
Y297000D01*
X522000Y268000D02*
Y272000D01*
X508000Y268000D02*
Y272000D01*
X577000Y388000D02*
Y392000D01*
X563000Y388000D02*
Y392000D01*
X578000Y388000D02*
Y392000D01*
X592000Y388000D02*
Y392000D01*
X488000Y388000D02*
Y392000D01*
X502000Y388000D02*
Y392000D01*
X536000Y375000D02*
Y405000D01*
X544000Y375000D02*
Y405000D01*
X536000Y375000D02*
X544000D01*
X536000Y405000D02*
X544000D01*
X517000Y388000D02*
Y392000D01*
X503000Y388000D02*
Y392000D01*
X167800Y222000D02*
Y238000D01*
X152200D02*
X167800D01*
X152200Y222000D02*
X167800D01*
X152200D02*
Y238000D01*
X148000Y257000D02*
X152000D01*
X148000Y243000D02*
X152000D01*
X355469Y368719D02*
X384531D01*
X355469Y391281D02*
X384531D01*
X413000Y348000D02*
X417000D01*
X413000Y362000D02*
X417000D01*
X404300Y366650D02*
X415700D01*
X404300Y393350D02*
X415700D01*
X433500Y371100D02*
X451500D01*
Y388850D02*
Y388900D01*
Y371100D02*
Y371150D01*
X433500Y388900D02*
X451500D01*
X433500Y388850D02*
Y388900D01*
Y371100D02*
Y371150D01*
X492638Y264138D02*
Y280862D01*
X507362Y264138D02*
Y280862D01*
X492638Y286638D02*
Y303362D01*
X507362Y286638D02*
Y303362D01*
X477638Y286638D02*
Y303362D01*
X492362Y286638D02*
Y303362D01*
X464500Y333000D02*
Y337000D01*
X450500Y333000D02*
Y337000D01*
X363000Y228000D02*
X367000D01*
X363000Y242000D02*
X367000D01*
X391793Y281381D02*
X403619Y293207D01*
X381381Y291793D02*
X393207Y303619D01*
X396381Y306793D02*
X408207Y318619D01*
X406793Y296381D02*
X418619Y308207D01*
X388000Y243000D02*
X392000D01*
X388000Y257000D02*
X392000D01*
X381591Y295782D02*
X404218Y318409D01*
X355782Y321591D02*
X378409Y344218D01*
X388000Y228000D02*
X392000D01*
X388000Y242000D02*
X392000D01*
X363000Y243000D02*
X367000D01*
X363000Y257000D02*
X367000D01*
X363000Y213000D02*
X367000D01*
X363000Y227000D02*
X367000D01*
X450138Y301638D02*
Y318362D01*
X464862Y301638D02*
Y318362D01*
X434500Y308000D02*
Y312000D01*
X420500Y308000D02*
Y312000D01*
X435138Y301638D02*
Y318362D01*
X449862Y301638D02*
Y318362D01*
X423500Y223500D02*
Y227250D01*
Y223500D02*
X427250D01*
X472750D02*
X476500D01*
Y227250D01*
Y272750D02*
Y276500D01*
X472750D02*
X476500D01*
X423500Y272750D02*
Y276500D01*
X427250D01*
M02*
