G04*
G04 #@! TF.GenerationSoftware,Altium Limited,Altium Designer,25.6.2 (33)*
G04*
G04 Layer_Color=8388736*
%FSLAX44Y44*%
%MOMM*%
G71*
G04*
G04 #@! TF.SameCoordinates,FD8B08EC-7B00-4729-BADC-752F63F13CD6*
G04*
G04*
G04 #@! TF.FilePolarity,Negative*
G04*
G01*
G75*
G04:AMPARAMS|DCode=24|XSize=1.8741mm|YSize=0.5421mm|CornerRadius=0.2711mm|HoleSize=0mm|Usage=FLASHONLY|Rotation=180.000|XOffset=0mm|YOffset=0mm|HoleType=Round|Shape=RoundedRectangle|*
%AMROUNDEDRECTD24*
21,1,1.8741,0.0000,0,0,180.0*
21,1,1.3319,0.5421,0,0,180.0*
1,1,0.5421,-0.6660,0.0000*
1,1,0.5421,0.6660,0.0000*
1,1,0.5421,0.6660,0.0000*
1,1,0.5421,-0.6660,0.0000*
%
%ADD24ROUNDEDRECTD24*%
%ADD26R,1.0000X2.5000*%
%ADD29R,1.2000X1.4000*%
%ADD35R,0.7154X0.6725*%
%ADD38R,0.6725X0.7154*%
%ADD39R,1.3000X4.5000*%
%ADD40R,0.9531X5.4031*%
%ADD41R,5.4031X0.9531*%
%ADD45R,2.2860X1.3970*%
%ADD46R,2.7062X1.5533*%
%ADD47R,4.7500X1.7500*%
%ADD48R,4.5000X1.3000*%
%ADD50R,1.2084X1.0121*%
%ADD51R,0.5500X1.5000*%
%ADD52R,1.2000X1.5000*%
G04:AMPARAMS|DCode=55|XSize=0.2125mm|YSize=1.3552mm|CornerRadius=0.1062mm|HoleSize=0mm|Usage=FLASHONLY|Rotation=180.000|XOffset=0mm|YOffset=0mm|HoleType=Round|Shape=RoundedRectangle|*
%AMROUNDEDRECTD55*
21,1,0.2125,1.1428,0,0,180.0*
21,1,0.0000,1.3552,0,0,180.0*
1,1,0.2125,0.0000,0.5714*
1,1,0.2125,0.0000,0.5714*
1,1,0.2125,0.0000,-0.5714*
1,1,0.2125,0.0000,-0.5714*
%
%ADD55ROUNDEDRECTD55*%
G04:AMPARAMS|DCode=56|XSize=1.3552mm|YSize=0.2125mm|CornerRadius=0.1062mm|HoleSize=0mm|Usage=FLASHONLY|Rotation=180.000|XOffset=0mm|YOffset=0mm|HoleType=Round|Shape=RoundedRectangle|*
%AMROUNDEDRECTD56*
21,1,1.3552,0.0000,0,0,180.0*
21,1,1.1428,0.2125,0,0,180.0*
1,1,0.2125,-0.5714,0.0000*
1,1,0.2125,0.5714,0.0000*
1,1,0.2125,0.5714,0.0000*
1,1,0.2125,-0.5714,0.0000*
%
%ADD56ROUNDEDRECTD56*%
%ADD57R,0.3048X0.9779*%
G04:AMPARAMS|DCode=58|XSize=1.8741mm|YSize=0.5449mm|CornerRadius=0.2725mm|HoleSize=0mm|Usage=FLASHONLY|Rotation=0.000|XOffset=0mm|YOffset=0mm|HoleType=Round|Shape=RoundedRectangle|*
%AMROUNDEDRECTD58*
21,1,1.8741,0.0000,0,0,0.0*
21,1,1.3291,0.5449,0,0,0.0*
1,1,0.5449,0.6646,0.0000*
1,1,0.5449,-0.6646,0.0000*
1,1,0.5449,-0.6646,0.0000*
1,1,0.5449,0.6646,0.0000*
%
%ADD58ROUNDEDRECTD58*%
%ADD60R,0.3000X0.4500*%
G04:AMPARAMS|DCode=61|XSize=2.4741mm|YSize=0.6221mm|CornerRadius=0.3111mm|HoleSize=0mm|Usage=FLASHONLY|Rotation=0.000|XOffset=0mm|YOffset=0mm|HoleType=Round|Shape=RoundedRectangle|*
%AMROUNDEDRECTD61*
21,1,2.4741,0.0000,0,0,0.0*
21,1,1.8519,0.6221,0,0,0.0*
1,1,0.6221,0.9260,0.0000*
1,1,0.6221,-0.9260,0.0000*
1,1,0.6221,-0.9260,0.0000*
1,1,0.6221,0.9260,0.0000*
%
%ADD61ROUNDEDRECTD61*%
%ADD64R,1.1430X2.0320*%
%ADD65C,0.9698*%
%ADD66C,0.9900*%
%ADD67R,1.8741X0.5421*%
%ADD68R,6.6000X1.0000*%
%ADD69R,6.1800X5.6900*%
%ADD72R,3.3000X1.5000*%
%ADD73R,2.4741X0.6221*%
%ADD74R,0.5000X0.3500*%
%ADD75R,1.8796X1.6764*%
%ADD76R,2.7940X0.9906*%
%ADD77R,1.8741X0.5449*%
%ADD79R,1.3552X0.2125*%
%ADD80R,1.1400X0.5750*%
%ADD81R,0.5750X1.0500*%
%ADD82R,6.1500X6.1500*%
G04:AMPARAMS|DCode=83|XSize=1.1mm|YSize=0.95mm|CornerRadius=0.175mm|HoleSize=0mm|Usage=FLASHONLY|Rotation=180.000|XOffset=0mm|YOffset=0mm|HoleType=Round|Shape=RoundedRectangle|*
%AMROUNDEDRECTD83*
21,1,1.1000,0.6000,0,0,180.0*
21,1,0.7500,0.9500,0,0,180.0*
1,1,0.3500,-0.3750,0.3000*
1,1,0.3500,0.3750,0.3000*
1,1,0.3500,0.3750,-0.3000*
1,1,0.3500,-0.3750,-0.3000*
%
%ADD83ROUNDEDRECTD83*%
%ADD84R,0.5500X0.6300*%
%ADD85R,0.6300X0.5500*%
G04:AMPARAMS|DCode=86|XSize=1.72mm|YSize=0.53mm|CornerRadius=0.1225mm|HoleSize=0mm|Usage=FLASHONLY|Rotation=0.000|XOffset=0mm|YOffset=0mm|HoleType=Round|Shape=RoundedRectangle|*
%AMROUNDEDRECTD86*
21,1,1.7200,0.2850,0,0,0.0*
21,1,1.4750,0.5300,0,0,0.0*
1,1,0.2450,0.7375,-0.1425*
1,1,0.2450,-0.7375,-0.1425*
1,1,0.2450,-0.7375,0.1425*
1,1,0.2450,0.7375,0.1425*
%
%ADD86ROUNDEDRECTD86*%
%ADD87O,1.5500X0.5000*%
G04:AMPARAMS|DCode=88|XSize=0.8mm|YSize=2.35mm|CornerRadius=0.2375mm|HoleSize=0mm|Usage=FLASHONLY|Rotation=0.000|XOffset=0mm|YOffset=0mm|HoleType=Round|Shape=RoundedRectangle|*
%AMROUNDEDRECTD88*
21,1,0.8000,1.8750,0,0,0.0*
21,1,0.3250,2.3500,0,0,0.0*
1,1,0.4750,0.1625,-0.9375*
1,1,0.4750,-0.1625,-0.9375*
1,1,0.4750,-0.1625,0.9375*
1,1,0.4750,0.1625,0.9375*
%
%ADD88ROUNDEDRECTD88*%
%ADD89O,0.6000X2.2500*%
%ADD90R,0.8000X0.8000*%
%ADD91O,0.5000X1.5500*%
G04:AMPARAMS|DCode=92|XSize=1.1mm|YSize=0.95mm|CornerRadius=0.175mm|HoleSize=0mm|Usage=FLASHONLY|Rotation=90.000|XOffset=0mm|YOffset=0mm|HoleType=Round|Shape=RoundedRectangle|*
%AMROUNDEDRECTD92*
21,1,1.1000,0.6000,0,0,90.0*
21,1,0.7500,0.9500,0,0,90.0*
1,1,0.3500,0.3000,0.3750*
1,1,0.3500,0.3000,-0.3750*
1,1,0.3500,-0.3000,-0.3750*
1,1,0.3500,-0.3000,0.3750*
%
%ADD92ROUNDEDRECTD92*%
%ADD93O,0.4000X1.1500*%
%ADD94O,1.1500X0.4000*%
%ADD95R,2.1500X2.1500*%
%ADD96R,1.1500X2.5500*%
%ADD97R,0.9500X1.6500*%
%ADD98R,1.6000X2.1500*%
%ADD99O,2.1000X0.7500*%
%ADD100R,8.2100X2.5600*%
%ADD101R,1.0500X0.5750*%
%ADD102R,0.8000X0.8000*%
%ADD103R,3.4500X2.5500*%
%ADD104R,0.9500X0.6500*%
%ADD105C,2.8500*%
%ADD106R,2.6500X2.6500*%
%ADD107C,2.6500*%
%ADD108C,2.3000*%
%ADD109R,6.1500X15.1500*%
%ADD110C,4.1500*%
%ADD111C,2.1500*%
%ADD112C,0.6500*%
%ADD113C,1.1500*%
%ADD114C,0.9000*%
G36*
X897150Y756877D02*
X908500D01*
Y756376D01*
X911500D01*
Y752376D01*
X908500D01*
Y749876D01*
X911500D01*
Y745876D01*
X908500D01*
Y743376D01*
X911500D01*
Y739377D01*
X908500D01*
Y736877D01*
X911500D01*
Y732877D01*
X908500D01*
Y732376D01*
X897150D01*
Y728577D01*
X892850D01*
Y732376D01*
X888700D01*
Y756877D01*
X892850D01*
Y760676D01*
X897150D01*
Y756877D01*
D02*
G37*
G36*
Y681877D02*
X908500D01*
Y681376D01*
X911500D01*
Y677376D01*
X908500D01*
Y674876D01*
X911500D01*
Y670876D01*
X908500D01*
Y668376D01*
X911500D01*
Y664377D01*
X908500D01*
Y661877D01*
X911500D01*
Y657877D01*
X908500D01*
Y657376D01*
X897150D01*
Y653577D01*
X892850D01*
Y657376D01*
X888700D01*
Y681877D01*
X892850D01*
Y685676D01*
X897150D01*
Y681877D01*
D02*
G37*
G36*
X443000Y295000D02*
X434500D01*
X429500Y299000D01*
Y306000D01*
X443000D01*
Y295000D01*
D02*
G37*
G36*
X420500Y299000D02*
X415500Y295000D01*
X407000D01*
Y306000D01*
X420500D01*
Y299000D01*
D02*
G37*
G36*
X443000Y254000D02*
X429500D01*
Y261000D01*
X434500Y265000D01*
X443000D01*
Y254000D01*
D02*
G37*
G36*
X420500Y261000D02*
Y254000D01*
X407000D01*
Y265000D01*
X415500D01*
X420500Y261000D01*
D02*
G37*
D24*
X883161Y1124052D02*
D03*
Y1111351D02*
D03*
X71839Y1254050D02*
D03*
X516839Y984052D02*
D03*
X836839Y1124052D02*
D03*
Y1264052D02*
D03*
Y1404052D02*
D03*
Y1544052D02*
D03*
X563161Y1085952D02*
D03*
X843161Y590951D02*
D03*
Y520951D02*
D03*
Y430951D02*
D03*
Y360951D02*
D03*
Y270951D02*
D03*
Y200951D02*
D03*
Y110951D02*
D03*
Y40951D02*
D03*
X883161Y1264052D02*
D03*
Y1251351D02*
D03*
Y1404052D02*
D03*
Y1391351D02*
D03*
Y1531351D02*
D03*
Y1544052D02*
D03*
X71839Y1215950D02*
D03*
Y1228650D02*
D03*
Y1241350D02*
D03*
X118161Y1254050D02*
D03*
Y1241350D02*
D03*
Y1228650D02*
D03*
X563161Y958652D02*
D03*
Y971351D02*
D03*
Y984052D02*
D03*
X516839Y971351D02*
D03*
Y958652D02*
D03*
Y945952D02*
D03*
X883161Y1098652D02*
D03*
X836839Y1111351D02*
D03*
Y1098652D02*
D03*
Y1085952D02*
D03*
X883161Y1238652D02*
D03*
X836839Y1251351D02*
D03*
Y1238652D02*
D03*
Y1225952D02*
D03*
X883161Y1378651D02*
D03*
X836839Y1391351D02*
D03*
Y1378651D02*
D03*
Y1365952D02*
D03*
Y1505952D02*
D03*
Y1518651D02*
D03*
Y1531351D02*
D03*
X883161Y1518651D02*
D03*
X516839Y1111351D02*
D03*
Y1098652D02*
D03*
Y1085952D02*
D03*
X563161Y1098652D02*
D03*
Y1111351D02*
D03*
Y1124052D02*
D03*
X843161Y79051D02*
D03*
Y66351D02*
D03*
Y53651D02*
D03*
X796839Y40951D02*
D03*
Y53651D02*
D03*
Y66351D02*
D03*
X843161Y149052D02*
D03*
Y136351D02*
D03*
Y123652D02*
D03*
X796839Y110951D02*
D03*
Y123652D02*
D03*
Y136351D02*
D03*
X843161Y239051D02*
D03*
Y226352D02*
D03*
Y213652D02*
D03*
X796839Y200951D02*
D03*
Y213652D02*
D03*
Y226352D02*
D03*
X843161Y309051D02*
D03*
Y296352D02*
D03*
Y283652D02*
D03*
X796839Y270951D02*
D03*
Y283652D02*
D03*
Y296352D02*
D03*
X843161Y399052D02*
D03*
Y386352D02*
D03*
Y373652D02*
D03*
X796839Y360951D02*
D03*
Y373652D02*
D03*
Y386352D02*
D03*
X843161Y469052D02*
D03*
Y456352D02*
D03*
Y443652D02*
D03*
X796839Y430951D02*
D03*
Y443652D02*
D03*
Y456352D02*
D03*
Y533652D02*
D03*
Y520951D02*
D03*
X843161Y546352D02*
D03*
Y533652D02*
D03*
Y559052D02*
D03*
X796839Y546352D02*
D03*
Y603652D02*
D03*
Y590951D02*
D03*
X843161Y616352D02*
D03*
Y603652D02*
D03*
Y629052D02*
D03*
X796839Y616352D02*
D03*
D26*
X60000Y1465000D02*
D03*
X30000D02*
D03*
D29*
X328500Y438500D02*
D03*
X311500Y416500D02*
D03*
X328500D02*
D03*
X311500Y438500D02*
D03*
D35*
X487714Y630000D02*
D03*
X639786Y715000D02*
D03*
X389786Y340000D02*
D03*
X355214D02*
D03*
Y260000D02*
D03*
X569786Y715000D02*
D03*
X879786Y620001D02*
D03*
Y550001D02*
D03*
Y460001D02*
D03*
Y390001D02*
D03*
Y300002D02*
D03*
Y230002D02*
D03*
Y140001D02*
D03*
Y70002D02*
D03*
X30214Y1410002D02*
D03*
Y1275002D02*
D03*
Y1290002D02*
D03*
Y1305002D02*
D03*
X39786Y1245002D02*
D03*
X30214Y1335002D02*
D03*
Y1320002D02*
D03*
Y1425002D02*
D03*
X30214Y1380002D02*
D03*
X39786Y1335002D02*
D03*
X497286Y630000D02*
D03*
X630214Y715000D02*
D03*
X145214Y1450002D02*
D03*
X154786D02*
D03*
X145214Y1435002D02*
D03*
X154786D02*
D03*
X145214Y1265002D02*
D03*
X154786D02*
D03*
X145214Y1250002D02*
D03*
X154786D02*
D03*
X39786Y1425002D02*
D03*
X30214Y1395002D02*
D03*
X39786D02*
D03*
X39786Y1320002D02*
D03*
X30214Y1245002D02*
D03*
X39786Y1380002D02*
D03*
X39786Y1305002D02*
D03*
Y1290002D02*
D03*
Y1275002D02*
D03*
Y1410002D02*
D03*
X870214Y70002D02*
D03*
Y140001D02*
D03*
Y230002D02*
D03*
Y300002D02*
D03*
Y390001D02*
D03*
Y460001D02*
D03*
Y550001D02*
D03*
Y620001D02*
D03*
X560214Y715000D02*
D03*
X364786Y340000D02*
D03*
X380214D02*
D03*
X364786Y260000D02*
D03*
D38*
X120000Y750214D02*
D03*
X135000D02*
D03*
X165000D02*
D03*
X180000D02*
D03*
X150000Y869786D02*
D03*
X135000D02*
D03*
X432500Y344786D02*
D03*
X290000Y407714D02*
D03*
Y447286D02*
D03*
X290000Y387286D02*
D03*
Y352714D02*
D03*
X455000Y435214D02*
D03*
X515000Y419787D02*
D03*
X120000Y759786D02*
D03*
X135000D02*
D03*
X165000D02*
D03*
X180000D02*
D03*
X190000Y809786D02*
D03*
Y800214D02*
D03*
X165000Y860214D02*
D03*
Y869786D02*
D03*
X150000Y860214D02*
D03*
X135000D02*
D03*
X515000Y410216D02*
D03*
X455000Y444786D02*
D03*
X290000Y362286D02*
D03*
Y377714D02*
D03*
X290000Y417286D02*
D03*
Y437714D02*
D03*
X432500Y335214D02*
D03*
D39*
X31250Y1115000D02*
D03*
Y1175000D02*
D03*
X163750Y1175000D02*
D03*
X88750Y1115000D02*
D03*
Y1175000D02*
D03*
X106250Y1175000D02*
D03*
D40*
X30750Y935000D02*
D03*
X30750Y1055000D02*
D03*
X30750Y995000D02*
D03*
X89250Y935000D02*
D03*
X89250Y1055000D02*
D03*
X89250Y995000D02*
D03*
D41*
X230000Y1134250D02*
D03*
X290000D02*
D03*
X170000Y1000750D02*
D03*
X230000Y1075750D02*
D03*
X290000D02*
D03*
X170000Y1059250D02*
D03*
D45*
X218090Y1007140D02*
D03*
X214350Y962860D02*
D03*
Y917140D02*
D03*
X218090Y1052860D02*
D03*
D46*
X415000Y1016746D02*
D03*
X220000Y1338256D02*
D03*
Y1361747D02*
D03*
X415000Y1043254D02*
D03*
X220000Y1388256D02*
D03*
Y1311747D02*
D03*
D47*
X410000Y1134250D02*
D03*
X350000D02*
D03*
X410000Y1075750D02*
D03*
X350000D02*
D03*
D48*
X170000Y1133750D02*
D03*
Y1076250D02*
D03*
D50*
X521981Y715000D02*
D03*
X591981D02*
D03*
X538019D02*
D03*
X608019D02*
D03*
D51*
X33750Y330000D02*
D03*
Y450000D02*
D03*
X66250Y330000D02*
D03*
X33750Y390000D02*
D03*
X66250Y450000D02*
D03*
Y390000D02*
D03*
D52*
X587000Y748000D02*
D03*
X633000D02*
D03*
X610000D02*
D03*
D55*
X240002Y475755D02*
D03*
X235002Y324245D02*
D03*
X125001Y475755D02*
D03*
X140001D02*
D03*
X175002D02*
D03*
X120001D02*
D03*
X240002Y324245D02*
D03*
X235002Y475755D02*
D03*
X230002Y324245D02*
D03*
X225002D02*
D03*
X220002D02*
D03*
X215002D02*
D03*
X210002D02*
D03*
X205002D02*
D03*
X200002D02*
D03*
X195002D02*
D03*
X190002D02*
D03*
X185002D02*
D03*
X180002D02*
D03*
X175002D02*
D03*
X170002D02*
D03*
X165002D02*
D03*
X160002D02*
D03*
X155001D02*
D03*
X150001D02*
D03*
X145001D02*
D03*
X140001D02*
D03*
X135001D02*
D03*
X130001D02*
D03*
X125001D02*
D03*
X120001D02*
D03*
X130001Y475755D02*
D03*
X135001D02*
D03*
X145001D02*
D03*
X150001D02*
D03*
X155001D02*
D03*
X160002D02*
D03*
X165002D02*
D03*
X170002D02*
D03*
X180002D02*
D03*
X185002D02*
D03*
X190002D02*
D03*
X195002D02*
D03*
X200002D02*
D03*
X205002D02*
D03*
X210002D02*
D03*
X215002D02*
D03*
X220002D02*
D03*
X225002D02*
D03*
X230002D02*
D03*
D56*
X255756Y430000D02*
D03*
Y385000D02*
D03*
X104247Y345000D02*
D03*
Y450000D02*
D03*
Y420000D02*
D03*
X255756D02*
D03*
Y425000D02*
D03*
X104247Y340000D02*
D03*
X255756Y365000D02*
D03*
Y390000D02*
D03*
X104247Y350000D02*
D03*
Y355000D02*
D03*
Y360000D02*
D03*
Y365000D02*
D03*
Y370000D02*
D03*
Y375000D02*
D03*
Y380000D02*
D03*
Y385000D02*
D03*
Y390000D02*
D03*
Y395000D02*
D03*
Y400000D02*
D03*
Y405000D02*
D03*
Y410000D02*
D03*
Y415000D02*
D03*
Y425000D02*
D03*
Y430000D02*
D03*
Y435000D02*
D03*
Y440000D02*
D03*
Y445000D02*
D03*
Y455000D02*
D03*
Y460000D02*
D03*
X255756D02*
D03*
Y455000D02*
D03*
Y450000D02*
D03*
Y445000D02*
D03*
Y440000D02*
D03*
Y435000D02*
D03*
Y415000D02*
D03*
Y410000D02*
D03*
Y405000D02*
D03*
Y400000D02*
D03*
Y395000D02*
D03*
Y380000D02*
D03*
Y375000D02*
D03*
Y370000D02*
D03*
Y360000D02*
D03*
Y355000D02*
D03*
Y350000D02*
D03*
Y345000D02*
D03*
D57*
X380003Y315431D02*
D03*
X364999D02*
D03*
X385004Y284569D02*
D03*
X380003D02*
D03*
X375001D02*
D03*
X370000D02*
D03*
X364999D02*
D03*
X359997D02*
D03*
X354996D02*
D03*
Y315431D02*
D03*
X359997D02*
D03*
X370000D02*
D03*
X375001D02*
D03*
X385004D02*
D03*
D58*
X381839Y405950D02*
D03*
Y431350D02*
D03*
Y418650D02*
D03*
X428161Y405950D02*
D03*
Y418650D02*
D03*
Y431350D02*
D03*
Y444050D02*
D03*
D60*
X865000Y711751D02*
D03*
Y786751D02*
D03*
X860000D02*
D03*
X855000D02*
D03*
Y773251D02*
D03*
X860000D02*
D03*
X865000D02*
D03*
X860000Y711751D02*
D03*
X855000D02*
D03*
Y698251D02*
D03*
X860000D02*
D03*
X865000D02*
D03*
D61*
X884161Y945952D02*
D03*
X835839D02*
D03*
Y958652D02*
D03*
X884161Y984052D02*
D03*
Y971351D02*
D03*
Y958652D02*
D03*
X835839Y971351D02*
D03*
D64*
X903335Y255002D02*
D03*
X761665Y745002D02*
D03*
X903335Y95001D02*
D03*
Y345001D02*
D03*
X761665Y670002D02*
D03*
X903335Y185002D02*
D03*
Y25001D02*
D03*
Y415001D02*
D03*
X788335Y745002D02*
D03*
Y670002D02*
D03*
X876665Y25001D02*
D03*
Y95001D02*
D03*
Y185002D02*
D03*
Y345001D02*
D03*
Y505001D02*
D03*
X903335D02*
D03*
X876665Y255002D02*
D03*
Y415001D02*
D03*
Y575001D02*
D03*
X903335D02*
D03*
D65*
X436250Y300500D02*
D03*
Y259500D02*
D03*
D66*
X412500Y300500D02*
D03*
Y259500D02*
D03*
D67*
X118161Y1215950D02*
D03*
X563161Y945952D02*
D03*
X883161Y1085952D02*
D03*
Y1225952D02*
D03*
Y1365952D02*
D03*
Y1505952D02*
D03*
X516839Y1124052D02*
D03*
X796839Y79051D02*
D03*
Y149052D02*
D03*
Y239051D02*
D03*
Y309051D02*
D03*
Y399052D02*
D03*
Y469052D02*
D03*
Y559052D02*
D03*
Y629052D02*
D03*
D68*
X355000Y1014000D02*
D03*
Y1046000D02*
D03*
D69*
X150000Y940000D02*
D03*
X282440Y1030000D02*
D03*
D72*
X610000Y812000D02*
D03*
D73*
X835839Y984052D02*
D03*
D74*
X881000Y754377D02*
D03*
Y747877D02*
D03*
Y741376D02*
D03*
Y734876D02*
D03*
Y679377D02*
D03*
Y672877D02*
D03*
Y666376D02*
D03*
Y659876D02*
D03*
D75*
X857098Y745002D02*
D03*
X812902D02*
D03*
X857098Y670002D02*
D03*
X812902D02*
D03*
D76*
X670000Y785014D02*
D03*
Y814986D02*
D03*
D77*
X381839Y444050D02*
D03*
D79*
X255756Y340000D02*
D03*
D80*
X320000Y365875D02*
D03*
Y374125D02*
D03*
D81*
X584000Y648500D02*
D03*
X557000D02*
D03*
X541000D02*
D03*
X576000D02*
D03*
X549000D02*
D03*
X592000D02*
D03*
X568000D02*
D03*
X533000Y471500D02*
D03*
X568000Y246502D02*
D03*
X557000D02*
D03*
X557000Y423502D02*
D03*
X584000Y246502D02*
D03*
X541000Y471500D02*
D03*
Y246502D02*
D03*
X592000Y423502D02*
D03*
X533000Y246502D02*
D03*
X568000Y471500D02*
D03*
X584000Y423502D02*
D03*
X557000Y471500D02*
D03*
X549000Y246502D02*
D03*
X576000Y423502D02*
D03*
Y246502D02*
D03*
X568000Y423502D02*
D03*
X592000Y471500D02*
D03*
X584000D02*
D03*
X576000D02*
D03*
X568000Y488500D02*
D03*
X576000D02*
D03*
X584000D02*
D03*
X592000Y488501D02*
D03*
X549000Y471500D02*
D03*
X533000Y488500D02*
D03*
X541000D02*
D03*
X549000D02*
D03*
X557000Y488501D02*
D03*
X533000Y648500D02*
D03*
Y631499D02*
D03*
X541000Y631500D02*
D03*
X557000D02*
D03*
X549000D02*
D03*
X568000Y631499D02*
D03*
X584000Y631500D02*
D03*
X576000D02*
D03*
X592000D02*
D03*
X428000Y621499D02*
D03*
X436000Y621500D02*
D03*
X444000D02*
D03*
X452000D02*
D03*
Y638500D02*
D03*
X444000D02*
D03*
X436000D02*
D03*
X428000D02*
D03*
X452000Y498501D02*
D03*
X444000Y498500D02*
D03*
X436000D02*
D03*
X428000D02*
D03*
Y481500D02*
D03*
X436000D02*
D03*
X444000D02*
D03*
X452000D02*
D03*
X592000Y263502D02*
D03*
X584000Y263501D02*
D03*
X576000D02*
D03*
X568000D02*
D03*
X592000Y246502D02*
D03*
X557000Y263502D02*
D03*
X549000Y263501D02*
D03*
X541000D02*
D03*
X533000D02*
D03*
X533000Y406501D02*
D03*
X541000Y406502D02*
D03*
X549000D02*
D03*
X557000D02*
D03*
X549000Y423502D02*
D03*
X541000D02*
D03*
X533000D02*
D03*
X568000Y406501D02*
D03*
X576000Y406502D02*
D03*
X584000D02*
D03*
X592000D02*
D03*
D82*
X651500Y1450002D02*
D03*
Y1250002D02*
D03*
X518500Y1450002D02*
D03*
Y1250002D02*
D03*
D83*
X815000Y1083502D02*
D03*
X150000Y748500D02*
D03*
X495000Y981501D02*
D03*
X815000Y1121501D02*
D03*
Y1261501D02*
D03*
Y1401501D02*
D03*
Y1541501D02*
D03*
X585000Y1088502D02*
D03*
X815000Y1223502D02*
D03*
Y1363501D02*
D03*
Y1503501D02*
D03*
X480000Y421500D02*
D03*
Y408500D02*
D03*
X495000Y421500D02*
D03*
Y408500D02*
D03*
X485000Y521500D02*
D03*
Y508500D02*
D03*
X150000Y761500D02*
D03*
X495000Y943502D02*
D03*
Y956501D02*
D03*
X815000Y1096501D02*
D03*
Y1236501D02*
D03*
Y1376501D02*
D03*
Y1516501D02*
D03*
X495000Y968502D02*
D03*
X815000Y1108502D02*
D03*
Y1248502D02*
D03*
Y1388501D02*
D03*
Y1528501D02*
D03*
X585000Y1126501D02*
D03*
Y1113502D02*
D03*
Y1101501D02*
D03*
X210000Y811500D02*
D03*
Y798500D02*
D03*
X485000Y283501D02*
D03*
Y296502D02*
D03*
X885000Y786501D02*
D03*
Y773502D02*
D03*
X900000Y773502D02*
D03*
Y786501D02*
D03*
X885000Y711501D02*
D03*
Y698502D02*
D03*
X900000Y698502D02*
D03*
Y711501D02*
D03*
D84*
X925000Y53400D02*
D03*
Y123400D02*
D03*
Y213400D02*
D03*
Y283400D02*
D03*
Y373400D02*
D03*
Y443400D02*
D03*
Y533400D02*
D03*
X570000Y683400D02*
D03*
X490000Y756600D02*
D03*
X925000Y66600D02*
D03*
Y136600D02*
D03*
Y226600D02*
D03*
Y296600D02*
D03*
Y386600D02*
D03*
Y456600D02*
D03*
Y546600D02*
D03*
X570000Y696600D02*
D03*
X490000Y743400D02*
D03*
D85*
X881600Y635000D02*
D03*
X868400D02*
D03*
D86*
X77800Y1403976D02*
D03*
Y1346826D02*
D03*
Y1340477D02*
D03*
Y1321427D02*
D03*
Y1315076D02*
D03*
X152200Y1296026D02*
D03*
Y1302377D02*
D03*
Y1346826D02*
D03*
Y1353177D02*
D03*
Y1397626D02*
D03*
Y1403976D02*
D03*
Y1416676D02*
D03*
Y1410327D02*
D03*
Y1391277D02*
D03*
Y1384926D02*
D03*
Y1378577D02*
D03*
Y1372227D02*
D03*
Y1365876D02*
D03*
Y1359527D02*
D03*
Y1340477D02*
D03*
Y1334126D02*
D03*
Y1327776D02*
D03*
Y1321427D02*
D03*
Y1315076D02*
D03*
Y1308727D02*
D03*
Y1289677D02*
D03*
Y1283327D02*
D03*
X77800D02*
D03*
Y1289677D02*
D03*
Y1296026D02*
D03*
Y1302377D02*
D03*
Y1308727D02*
D03*
Y1327776D02*
D03*
Y1334126D02*
D03*
Y1353177D02*
D03*
Y1359527D02*
D03*
Y1365876D02*
D03*
Y1372227D02*
D03*
Y1378577D02*
D03*
Y1384926D02*
D03*
Y1391277D02*
D03*
Y1397626D02*
D03*
Y1410327D02*
D03*
Y1416676D02*
D03*
D87*
X363000Y760250D02*
D03*
X307000Y773250D02*
D03*
X363000Y747250D02*
D03*
Y753750D02*
D03*
Y766750D02*
D03*
Y773250D02*
D03*
Y779750D02*
D03*
Y786250D02*
D03*
Y792750D02*
D03*
X307000Y747250D02*
D03*
Y753750D02*
D03*
Y760250D02*
D03*
Y766750D02*
D03*
Y779750D02*
D03*
Y786250D02*
D03*
Y792750D02*
D03*
D88*
X127300Y242700D02*
D03*
X140000D02*
D03*
X152700D02*
D03*
X165400D02*
D03*
X114600Y277300D02*
D03*
X127300D02*
D03*
X140000D02*
D03*
X152700D02*
D03*
X165400D02*
D03*
X114600Y242700D02*
D03*
D89*
X528750Y594500D02*
D03*
Y369501D02*
D03*
X541750Y594500D02*
D03*
X535250D02*
D03*
X522250D02*
D03*
X515750D02*
D03*
X509250D02*
D03*
X502750D02*
D03*
X587250Y525500D02*
D03*
X580750D02*
D03*
X574250D02*
D03*
X567750D02*
D03*
X561250D02*
D03*
X554750D02*
D03*
X548250D02*
D03*
X541750D02*
D03*
X535250D02*
D03*
X528750D02*
D03*
X522250D02*
D03*
X515750D02*
D03*
X509250D02*
D03*
X502750D02*
D03*
X567750Y594500D02*
D03*
X580750D02*
D03*
X548250D02*
D03*
X561250D02*
D03*
X574250D02*
D03*
X587250D02*
D03*
X554750D02*
D03*
X502750Y300501D02*
D03*
X509250D02*
D03*
X515750D02*
D03*
X522250D02*
D03*
X528750D02*
D03*
X535250D02*
D03*
X541750D02*
D03*
X548250D02*
D03*
X554750D02*
D03*
X561250D02*
D03*
X567750D02*
D03*
X574250D02*
D03*
X580750D02*
D03*
X587250D02*
D03*
X502750Y369501D02*
D03*
X509250D02*
D03*
X515750D02*
D03*
X522250D02*
D03*
X535250D02*
D03*
X541750D02*
D03*
X548250D02*
D03*
X554750D02*
D03*
X561250D02*
D03*
X567750D02*
D03*
X574250D02*
D03*
X580750D02*
D03*
X587250D02*
D03*
D90*
X480000Y465000D02*
D03*
Y480000D02*
D03*
Y495000D02*
D03*
Y270002D02*
D03*
Y255002D02*
D03*
Y240002D02*
D03*
X490000Y465000D02*
D03*
Y480000D02*
D03*
Y495000D02*
D03*
Y240002D02*
D03*
Y255002D02*
D03*
Y270002D02*
D03*
D91*
X443250Y723000D02*
D03*
X430250Y667000D02*
D03*
Y532000D02*
D03*
X443250Y588000D02*
D03*
X462750Y723000D02*
D03*
X456250D02*
D03*
X449750D02*
D03*
X436750D02*
D03*
X430250D02*
D03*
X423750D02*
D03*
X417250D02*
D03*
X462750Y667000D02*
D03*
X456250D02*
D03*
X449750D02*
D03*
X443250D02*
D03*
X436750D02*
D03*
X423750D02*
D03*
X417250D02*
D03*
Y532000D02*
D03*
X423750D02*
D03*
X436750D02*
D03*
X443250D02*
D03*
X449750D02*
D03*
X456250D02*
D03*
X462750D02*
D03*
X417250Y588000D02*
D03*
X423750D02*
D03*
X430250D02*
D03*
X436750D02*
D03*
X449750D02*
D03*
X456250D02*
D03*
X462750D02*
D03*
D92*
X531500Y680000D02*
D03*
X98500Y810000D02*
D03*
X543500Y680000D02*
D03*
X906500Y600001D02*
D03*
Y530001D02*
D03*
Y440001D02*
D03*
Y370001D02*
D03*
Y280002D02*
D03*
Y210002D02*
D03*
Y120001D02*
D03*
Y50002D02*
D03*
X803500Y715002D02*
D03*
X803500Y700002D02*
D03*
X803500Y790002D02*
D03*
X803500Y775002D02*
D03*
X28500Y1365002D02*
D03*
Y1350002D02*
D03*
X451500Y320000D02*
D03*
X413500D02*
D03*
X618500Y120000D02*
D03*
X631500D02*
D03*
X618500Y60000D02*
D03*
X631500D02*
D03*
X631500Y295000D02*
D03*
X618500D02*
D03*
X631500Y235000D02*
D03*
X618500D02*
D03*
X503500Y465000D02*
D03*
X516500D02*
D03*
X503500Y495000D02*
D03*
X516500D02*
D03*
X503500Y480000D02*
D03*
X516500D02*
D03*
X518500Y695000D02*
D03*
X531500D02*
D03*
X518500Y680000D02*
D03*
X146500Y780000D02*
D03*
X133500D02*
D03*
X176500D02*
D03*
X163500D02*
D03*
X98500Y830000D02*
D03*
X111500D02*
D03*
Y810000D02*
D03*
X556500Y695000D02*
D03*
X543500D02*
D03*
X556500Y680000D02*
D03*
X41500Y1350002D02*
D03*
Y1365002D02*
D03*
X41500Y1260002D02*
D03*
X28500D02*
D03*
X41500Y1440002D02*
D03*
X28500D02*
D03*
X516500Y240002D02*
D03*
X503500D02*
D03*
X516500Y255002D02*
D03*
X503500D02*
D03*
X516500Y270002D02*
D03*
X503500D02*
D03*
X816500Y775002D02*
D03*
X816500Y790002D02*
D03*
X828500D02*
D03*
X841500D02*
D03*
X828500Y775002D02*
D03*
X841500D02*
D03*
X816500Y700002D02*
D03*
X816500Y715002D02*
D03*
X828500D02*
D03*
X841500D02*
D03*
X828500Y700002D02*
D03*
X841500D02*
D03*
X868500Y120001D02*
D03*
X881500D02*
D03*
X868500Y280002D02*
D03*
X881500D02*
D03*
X868500Y440001D02*
D03*
X881500D02*
D03*
Y600001D02*
D03*
X868500D02*
D03*
X893500Y70002D02*
D03*
X906500D02*
D03*
X893500Y50002D02*
D03*
X868500D02*
D03*
X881500D02*
D03*
X893500Y120001D02*
D03*
X618500Y135000D02*
D03*
X631500D02*
D03*
X631500Y45002D02*
D03*
X618500D02*
D03*
X631500Y90001D02*
D03*
X618500D02*
D03*
X631500Y105001D02*
D03*
X618500D02*
D03*
X618500Y75000D02*
D03*
X631500D02*
D03*
X893500Y140001D02*
D03*
X906500D02*
D03*
X893500Y230002D02*
D03*
X906500D02*
D03*
X893500Y210002D02*
D03*
X868500D02*
D03*
X881500D02*
D03*
X893500Y280002D02*
D03*
X631500Y205002D02*
D03*
X618500D02*
D03*
X631500Y150001D02*
D03*
X618500D02*
D03*
X631500Y265002D02*
D03*
X618500D02*
D03*
X631500Y280000D02*
D03*
X618500D02*
D03*
X631500Y220000D02*
D03*
X618500D02*
D03*
X631500Y250002D02*
D03*
X618500D02*
D03*
X893500Y300002D02*
D03*
X906500D02*
D03*
X893500Y370001D02*
D03*
X893500Y390001D02*
D03*
X906500D02*
D03*
X893500Y440001D02*
D03*
X893500Y460001D02*
D03*
X906500D02*
D03*
X868500Y370001D02*
D03*
X881500D02*
D03*
X893500Y530001D02*
D03*
X893500Y550001D02*
D03*
X906500D02*
D03*
X893500Y600001D02*
D03*
X906500Y620001D02*
D03*
X893500D02*
D03*
X881500Y530001D02*
D03*
X868500D02*
D03*
X631500Y310002D02*
D03*
X618500D02*
D03*
X631500Y365001D02*
D03*
X618500D02*
D03*
X631500Y440000D02*
D03*
X618500D02*
D03*
X618500Y455000D02*
D03*
X631500D02*
D03*
X631500Y410001D02*
D03*
X618500D02*
D03*
X631500Y425001D02*
D03*
X618500D02*
D03*
X631500Y380001D02*
D03*
X618500D02*
D03*
X618500Y395001D02*
D03*
X631500D02*
D03*
X631500Y470001D02*
D03*
X618500D02*
D03*
Y525001D02*
D03*
X631500D02*
D03*
X618500Y600000D02*
D03*
X631500D02*
D03*
X618500Y615000D02*
D03*
X631500D02*
D03*
X618500Y570001D02*
D03*
X631500D02*
D03*
X618500Y585001D02*
D03*
X631500D02*
D03*
X618500Y555000D02*
D03*
X631500D02*
D03*
X618500Y630001D02*
D03*
X631500D02*
D03*
X618500Y540000D02*
D03*
X631500D02*
D03*
X396500Y380000D02*
D03*
X413500D02*
D03*
X426500D02*
D03*
X383500D02*
D03*
X438500Y320000D02*
D03*
X426500D02*
D03*
D93*
X140000Y837750D02*
D03*
X155000Y802250D02*
D03*
X160000Y837750D02*
D03*
X155000D02*
D03*
X150000D02*
D03*
X145000D02*
D03*
X140000Y802250D02*
D03*
X145000D02*
D03*
X150000D02*
D03*
X160000D02*
D03*
D94*
X132250Y815000D02*
D03*
X167750Y810000D02*
D03*
Y815000D02*
D03*
Y820000D02*
D03*
Y825000D02*
D03*
Y830000D02*
D03*
X132250D02*
D03*
Y825000D02*
D03*
Y820000D02*
D03*
Y810000D02*
D03*
D95*
X150000Y820000D02*
D03*
D96*
X512000Y751000D02*
D03*
X535000D02*
D03*
X558000D02*
D03*
D97*
X542950Y145501D02*
D03*
X564950D02*
D03*
X553950D02*
D03*
X531950D02*
D03*
X520950D02*
D03*
X509950D02*
D03*
X498950D02*
D03*
X487950D02*
D03*
D98*
X451250Y171502D02*
D03*
X588750D02*
D03*
X451250Y88502D02*
D03*
X588750D02*
D03*
D99*
X659500Y619451D02*
D03*
Y568652D02*
D03*
Y408652D02*
D03*
Y459451D02*
D03*
Y248652D02*
D03*
Y299452D02*
D03*
Y139452D02*
D03*
Y88652D02*
D03*
Y152151D02*
D03*
Y37852D02*
D03*
X750500Y152151D02*
D03*
Y139452D02*
D03*
Y101351D02*
D03*
Y88652D02*
D03*
Y50552D02*
D03*
Y37852D02*
D03*
Y63252D02*
D03*
Y75951D02*
D03*
Y114052D02*
D03*
Y126751D02*
D03*
X659500Y50552D02*
D03*
Y63252D02*
D03*
Y75951D02*
D03*
Y101351D02*
D03*
Y114052D02*
D03*
Y126751D02*
D03*
Y312152D02*
D03*
Y197852D02*
D03*
X750500Y312152D02*
D03*
Y299452D02*
D03*
Y261352D02*
D03*
Y248652D02*
D03*
Y210551D02*
D03*
Y197852D02*
D03*
Y223251D02*
D03*
Y235951D02*
D03*
Y274051D02*
D03*
Y286751D02*
D03*
X659500Y210551D02*
D03*
Y223251D02*
D03*
Y235951D02*
D03*
Y261352D02*
D03*
Y274051D02*
D03*
Y286751D02*
D03*
Y472151D02*
D03*
Y357851D02*
D03*
X750500Y472151D02*
D03*
Y459451D02*
D03*
Y421352D02*
D03*
Y408652D02*
D03*
Y370551D02*
D03*
Y357851D02*
D03*
Y383251D02*
D03*
Y395951D02*
D03*
Y434052D02*
D03*
Y446752D02*
D03*
X659500Y370551D02*
D03*
Y383251D02*
D03*
Y395951D02*
D03*
Y421352D02*
D03*
Y434052D02*
D03*
Y446752D02*
D03*
X750500Y517851D02*
D03*
Y530551D02*
D03*
Y543251D02*
D03*
Y555951D02*
D03*
Y568652D02*
D03*
Y581352D02*
D03*
Y594052D02*
D03*
Y606752D02*
D03*
Y619451D02*
D03*
Y632151D02*
D03*
X659500Y517851D02*
D03*
Y530551D02*
D03*
Y543251D02*
D03*
Y555951D02*
D03*
Y581352D02*
D03*
Y594052D02*
D03*
Y606752D02*
D03*
Y632151D02*
D03*
D100*
X412250Y1250002D02*
D03*
Y1450002D02*
D03*
X267750D02*
D03*
Y1250002D02*
D03*
D101*
X501000Y699000D02*
D03*
Y707000D02*
D03*
X273501Y758000D02*
D03*
X273500Y766000D02*
D03*
Y774000D02*
D03*
Y782000D02*
D03*
X256500D02*
D03*
Y774000D02*
D03*
Y766000D02*
D03*
Y758000D02*
D03*
X396499Y782000D02*
D03*
X396500Y774000D02*
D03*
Y766000D02*
D03*
Y758000D02*
D03*
X413500D02*
D03*
Y766000D02*
D03*
Y774000D02*
D03*
Y782000D02*
D03*
X483999Y669500D02*
D03*
X484000Y661500D02*
D03*
Y653500D02*
D03*
Y645500D02*
D03*
X501000D02*
D03*
Y653500D02*
D03*
Y661500D02*
D03*
Y669500D02*
D03*
X483999Y707000D02*
D03*
X484000Y699000D02*
D03*
Y691000D02*
D03*
Y683000D02*
D03*
X501000D02*
D03*
Y691000D02*
D03*
D102*
X120000Y860000D02*
D03*
Y870000D02*
D03*
D103*
X535000Y809000D02*
D03*
D104*
X292000Y255500D02*
D03*
Y264500D02*
D03*
X242000Y255500D02*
D03*
Y264500D02*
D03*
X308000Y255500D02*
D03*
Y264500D02*
D03*
X258000Y255500D02*
D03*
Y264500D02*
D03*
D105*
X1005500Y885002D02*
D03*
Y1455002D02*
D03*
Y105001D02*
D03*
Y675002D02*
D03*
D106*
X960500Y950002D02*
D03*
Y170002D02*
D03*
D107*
Y990002D02*
D03*
Y1110002D02*
D03*
Y1150002D02*
D03*
Y1190002D02*
D03*
Y1230002D02*
D03*
Y1270002D02*
D03*
Y1310002D02*
D03*
Y1350002D02*
D03*
Y1390002D02*
D03*
X1000500Y970002D02*
D03*
Y1010002D02*
D03*
Y1210002D02*
D03*
Y1250002D02*
D03*
Y1290002D02*
D03*
X1040500Y950002D02*
D03*
Y990002D02*
D03*
Y1110002D02*
D03*
Y1150002D02*
D03*
Y1190002D02*
D03*
Y1230002D02*
D03*
Y1270002D02*
D03*
Y1310002D02*
D03*
Y1350002D02*
D03*
Y1390002D02*
D03*
X960500Y1030002D02*
D03*
Y1070002D02*
D03*
X1000500Y1050002D02*
D03*
Y1090002D02*
D03*
Y1130002D02*
D03*
Y1170002D02*
D03*
Y1330002D02*
D03*
Y1370002D02*
D03*
X1040500Y1030002D02*
D03*
Y1070002D02*
D03*
X1000500Y230002D02*
D03*
Y270002D02*
D03*
Y310002D02*
D03*
Y350001D02*
D03*
Y390001D02*
D03*
Y430001D02*
D03*
Y470001D02*
D03*
Y510001D02*
D03*
X1040500Y290002D02*
D03*
Y330001D02*
D03*
Y450001D02*
D03*
Y490001D02*
D03*
Y530001D02*
D03*
X960500Y210002D02*
D03*
Y250002D02*
D03*
Y290002D02*
D03*
Y330001D02*
D03*
Y370001D02*
D03*
Y410001D02*
D03*
Y450001D02*
D03*
Y490001D02*
D03*
Y530001D02*
D03*
Y570001D02*
D03*
Y610001D02*
D03*
X1000500Y190002D02*
D03*
Y550001D02*
D03*
Y590001D02*
D03*
X1040500Y170002D02*
D03*
Y210002D02*
D03*
Y250002D02*
D03*
Y370001D02*
D03*
Y410001D02*
D03*
Y570001D02*
D03*
Y610001D02*
D03*
D108*
X867500Y912001D02*
D03*
Y878001D02*
D03*
X522500D02*
D03*
Y912001D02*
D03*
X657500D02*
D03*
Y878001D02*
D03*
X867500Y1052001D02*
D03*
Y1018001D02*
D03*
X732500D02*
D03*
Y1052001D02*
D03*
X867500Y1192001D02*
D03*
Y1158001D02*
D03*
X732500D02*
D03*
Y1192001D02*
D03*
X867500Y1332001D02*
D03*
Y1298002D02*
D03*
X732500D02*
D03*
Y1332001D02*
D03*
Y1472001D02*
D03*
Y1438002D02*
D03*
X867500D02*
D03*
Y1472001D02*
D03*
X522500Y1018001D02*
D03*
Y1052001D02*
D03*
X657500D02*
D03*
Y1018001D02*
D03*
X732500Y878001D02*
D03*
Y912001D02*
D03*
D109*
X405000Y905000D02*
D03*
X285000D02*
D03*
D110*
X670000Y1130000D02*
D03*
X470000Y780000D02*
D03*
X980000Y40000D02*
D03*
X40000Y260000D02*
D03*
Y780000D02*
D03*
Y1520002D02*
D03*
X980000Y1520000D02*
D03*
X990000Y780000D02*
D03*
D111*
X651500Y1450002D02*
D03*
Y1250002D02*
D03*
D112*
X165000Y457500D02*
D03*
X920000Y1077500D02*
D03*
X487500Y720000D02*
D03*
X175000Y457500D02*
D03*
X130000Y432580D02*
D03*
X122500Y432500D02*
D03*
X920000Y1067500D02*
D03*
X497500Y720000D02*
D03*
X825000Y604484D02*
D03*
X470000Y116000D02*
D03*
X261000Y774000D02*
D03*
X278000Y782000D02*
D03*
X615000Y347500D02*
D03*
X618500Y555000D02*
D03*
X822500Y650002D02*
D03*
X725000Y535001D02*
D03*
X717500D02*
D03*
X725000Y527500D02*
D03*
X725000Y55002D02*
D03*
X717500D02*
D03*
X725000Y47500D02*
D03*
X717500Y215002D02*
D03*
X725000D02*
D03*
X725000Y207500D02*
D03*
Y367500D02*
D03*
X717500Y375001D02*
D03*
X725000D02*
D03*
X597500Y600000D02*
D03*
Y607500D02*
D03*
Y525000D02*
D03*
Y540000D02*
D03*
Y570000D02*
D03*
Y585000D02*
D03*
X710000Y535001D02*
D03*
X700000Y197500D02*
D03*
X707745Y197256D02*
D03*
X710000Y215002D02*
D03*
X700000Y357500D02*
D03*
X684266Y239787D02*
D03*
X685000Y400000D02*
D03*
X700000Y517500D02*
D03*
X707746Y517256D02*
D03*
X710000Y375001D02*
D03*
X710000Y385001D02*
D03*
X517500Y575000D02*
D03*
X522500Y620000D02*
D03*
X570000Y770000D02*
D03*
X533000Y467000D02*
D03*
X568000Y242001D02*
D03*
X557000D02*
D03*
X557000Y428002D02*
D03*
X584000Y242001D02*
D03*
X445000Y335000D02*
D03*
X541000Y467000D02*
D03*
Y242001D02*
D03*
X592000Y428002D02*
D03*
X420000Y335000D02*
D03*
X533000Y242001D02*
D03*
X568000Y466887D02*
D03*
X584000Y428002D02*
D03*
X557000Y467000D02*
D03*
X549000Y242001D02*
D03*
X576000Y428002D02*
D03*
Y242001D02*
D03*
X568079Y427607D02*
D03*
X22500Y1252500D02*
D03*
X45000Y1465000D02*
D03*
X50000Y1410000D02*
D03*
X815000Y970000D02*
D03*
X825000Y125001D02*
D03*
X479499Y707000D02*
D03*
X375000Y327500D02*
D03*
X180301Y820024D02*
D03*
X150000Y855000D02*
D03*
X541000Y402001D02*
D03*
X592000Y627000D02*
D03*
X522500Y632500D02*
D03*
X517500Y507500D02*
D03*
X500000D02*
D03*
X230000Y260000D02*
D03*
X35000Y312500D02*
D03*
X122515Y355264D02*
D03*
X41000Y445000D02*
D03*
X120000Y405000D02*
D03*
X207500Y395000D02*
D03*
X825000Y285002D02*
D03*
Y445001D02*
D03*
X532500Y392500D02*
D03*
X427500Y452500D02*
D03*
X405000Y380000D02*
D03*
X350000Y327500D02*
D03*
X365000D02*
D03*
X280000Y260000D02*
D03*
X60000Y375000D02*
D03*
X234139Y422714D02*
D03*
X180000Y905000D02*
D03*
X585000Y925002D02*
D03*
X595000D02*
D03*
X605000D02*
D03*
X702500Y937500D02*
D03*
X357500Y272500D02*
D03*
X50000Y445000D02*
D03*
X55000Y325000D02*
D03*
X367500Y272500D02*
D03*
X932500Y827500D02*
D03*
X127300Y277300D02*
D03*
X100000Y287500D02*
D03*
X135000Y342500D02*
D03*
X267500Y425000D02*
D03*
X272500Y420000D02*
D03*
Y410000D02*
D03*
X237502Y413362D02*
D03*
X60000Y1307876D02*
D03*
Y1290000D02*
D03*
X815000Y1102502D02*
D03*
X210000Y460000D02*
D03*
X278001Y758000D02*
D03*
X20000Y1395000D02*
D03*
X120000Y397500D02*
D03*
X90000Y427500D02*
D03*
X87500Y415000D02*
D03*
X92500Y420000D02*
D03*
X90000Y442500D02*
D03*
X185053Y492448D02*
D03*
X200000Y487500D02*
D03*
X190000D02*
D03*
X380000Y792500D02*
D03*
X884161Y958652D02*
D03*
X836839Y1111351D02*
D03*
Y1251351D02*
D03*
Y1391351D02*
D03*
Y1531351D02*
D03*
X516839Y971351D02*
D03*
X563161Y1098652D02*
D03*
X195000Y492500D02*
D03*
X392000Y774000D02*
D03*
X417968D02*
D03*
Y782000D02*
D03*
X418000Y766000D02*
D03*
Y758000D02*
D03*
X252000Y782000D02*
D03*
Y758000D02*
D03*
Y766000D02*
D03*
X278000Y774000D02*
D03*
Y766000D02*
D03*
X322500Y762500D02*
D03*
X347500D02*
D03*
X380000Y747500D02*
D03*
X391999Y782000D02*
D03*
X392000Y758000D02*
D03*
Y766000D02*
D03*
X417500Y515000D02*
D03*
X420000Y650000D02*
D03*
X272500Y450000D02*
D03*
X267500Y415000D02*
D03*
X497361Y547361D02*
D03*
X497500Y555000D02*
D03*
Y562500D02*
D03*
X272500Y462500D02*
D03*
X428000Y477016D02*
D03*
X451940Y477076D02*
D03*
X436000Y477016D02*
D03*
X444000D02*
D03*
X452000Y503001D02*
D03*
X232390Y489875D02*
D03*
X205000Y492500D02*
D03*
X549000Y493000D02*
D03*
X556900Y494051D02*
D03*
X576000Y466887D02*
D03*
Y494548D02*
D03*
X568000D02*
D03*
X584000D02*
D03*
X705000Y567500D02*
D03*
X87500Y385000D02*
D03*
X595000Y40000D02*
D03*
X715000Y197502D02*
D03*
X710000Y225002D02*
D03*
X235000Y307500D02*
D03*
X227500D02*
D03*
X615000Y365000D02*
D03*
Y380000D02*
D03*
Y410000D02*
D03*
Y425000D02*
D03*
X607500D02*
D03*
X600000D02*
D03*
X592000Y402001D02*
D03*
X50000Y395000D02*
D03*
X210000Y340000D02*
D03*
X275000Y360000D02*
D03*
X381839Y444050D02*
D03*
X297500Y344984D02*
D03*
X426500Y380000D02*
D03*
X428161Y405950D02*
D03*
Y418650D02*
D03*
X381839Y431350D02*
D03*
X302500Y340000D02*
D03*
X270000Y345000D02*
D03*
X275000Y340000D02*
D03*
X270000Y365000D02*
D03*
Y355000D02*
D03*
X275000Y350000D02*
D03*
X158639Y306139D02*
D03*
X140000Y302500D02*
D03*
Y260000D02*
D03*
X160000D02*
D03*
X130000Y302500D02*
D03*
X185000Y340000D02*
D03*
X515000Y282500D02*
D03*
X533000Y268001D02*
D03*
X87500Y455000D02*
D03*
X267500D02*
D03*
Y445000D02*
D03*
Y405000D02*
D03*
X92500Y410000D02*
D03*
X495000Y282500D02*
D03*
X509999Y392499D02*
D03*
X517500Y392500D02*
D03*
X507500Y575000D02*
D03*
X385000Y305000D02*
D03*
X370000D02*
D03*
X300000Y302500D02*
D03*
Y312500D02*
D03*
X715000Y517501D02*
D03*
X700000Y37501D02*
D03*
X707500D02*
D03*
X715000D02*
D03*
Y357501D02*
D03*
X135000Y307500D02*
D03*
X428000Y616999D02*
D03*
X425000Y690000D02*
D03*
X428000Y643000D02*
D03*
X522361Y655139D02*
D03*
X522500Y647500D02*
D03*
Y662500D02*
D03*
X479500Y645500D02*
D03*
Y653500D02*
D03*
Y661500D02*
D03*
X479499Y669500D02*
D03*
X479500Y683000D02*
D03*
Y691000D02*
D03*
Y699000D02*
D03*
X452000Y643000D02*
D03*
X557041Y627000D02*
D03*
X584000D02*
D03*
X549000Y467000D02*
D03*
X541000Y493000D02*
D03*
X568000Y626999D02*
D03*
X541000Y627000D02*
D03*
X549000D02*
D03*
X576000D02*
D03*
X533000Y493000D02*
D03*
X450000Y700000D02*
D03*
Y690000D02*
D03*
X884161Y971351D02*
D03*
Y984052D02*
D03*
X516839Y945952D02*
D03*
Y958652D02*
D03*
X495000Y962500D02*
D03*
X585000Y1107500D02*
D03*
X563161Y1111351D02*
D03*
Y1124052D02*
D03*
X444000Y643000D02*
D03*
X436000D02*
D03*
X432500Y547500D02*
D03*
Y572500D02*
D03*
X428000Y503000D02*
D03*
X436000D02*
D03*
X444000D02*
D03*
X436000Y617000D02*
D03*
X444000D02*
D03*
X452000D02*
D03*
X114600Y242700D02*
D03*
X487950Y128001D02*
D03*
X564950D02*
D03*
X553950D02*
D03*
X531950D02*
D03*
X520950D02*
D03*
X509950D02*
D03*
X498950D02*
D03*
X218090Y1052860D02*
D03*
X355000Y1025000D02*
D03*
Y1035000D02*
D03*
X202500Y790000D02*
D03*
X195000D02*
D03*
X127500Y842500D02*
D03*
X140000Y1376950D02*
D03*
Y1366950D02*
D03*
X135000Y1371950D02*
D03*
X130000Y1376950D02*
D03*
Y1366950D02*
D03*
X175000Y1342502D02*
D03*
X167500D02*
D03*
X175000Y1357502D02*
D03*
X167500D02*
D03*
Y1310002D02*
D03*
X175000D02*
D03*
X90000Y1272500D02*
D03*
X95000Y1267500D02*
D03*
X100000Y1272500D02*
D03*
X167500Y1390002D02*
D03*
X175000D02*
D03*
X130000Y1322500D02*
D03*
Y1332500D02*
D03*
X135000Y1327500D02*
D03*
X140000Y1322500D02*
D03*
Y1332500D02*
D03*
X90000Y1262500D02*
D03*
X100000D02*
D03*
X105000Y1267500D02*
D03*
X110000Y1262500D02*
D03*
Y1272500D02*
D03*
X115000Y1267500D02*
D03*
X120000Y1262500D02*
D03*
Y1272500D02*
D03*
X130000D02*
D03*
X125000Y1267500D02*
D03*
X130000Y1262500D02*
D03*
X71839Y1241350D02*
D03*
Y1228650D02*
D03*
Y1215950D02*
D03*
X815000Y1242502D02*
D03*
Y1382502D02*
D03*
Y1522502D02*
D03*
X836839Y1098652D02*
D03*
Y1238652D02*
D03*
Y1378651D02*
D03*
Y1518651D02*
D03*
Y1085952D02*
D03*
Y1365952D02*
D03*
Y1505952D02*
D03*
Y1225952D02*
D03*
X549000Y428002D02*
D03*
X541000D02*
D03*
X707500Y357501D02*
D03*
X308000Y255500D02*
D03*
Y264500D02*
D03*
X258000Y255500D02*
D03*
Y264500D02*
D03*
X50000Y455000D02*
D03*
Y385000D02*
D03*
X568000Y402001D02*
D03*
X576000Y402001D02*
D03*
X584000D02*
D03*
X549000D02*
D03*
X557041D02*
D03*
X557000Y268002D02*
D03*
X549000Y268001D02*
D03*
X541000D02*
D03*
X584000D02*
D03*
X576000D02*
D03*
X568000D02*
D03*
X182500Y1390002D02*
D03*
Y1342502D02*
D03*
Y1357502D02*
D03*
Y1310002D02*
D03*
X610000Y870002D02*
D03*
Y880002D02*
D03*
Y890002D02*
D03*
Y900002D02*
D03*
Y910002D02*
D03*
Y920002D02*
D03*
X600000D02*
D03*
X590000D02*
D03*
X600000Y880002D02*
D03*
X590000D02*
D03*
X600000Y900002D02*
D03*
X590000D02*
D03*
X585000Y915002D02*
D03*
X590000Y910002D02*
D03*
X595000Y915002D02*
D03*
X600000Y910002D02*
D03*
X605000Y915002D02*
D03*
Y905002D02*
D03*
X595000D02*
D03*
X585000D02*
D03*
Y895002D02*
D03*
X590000Y890002D02*
D03*
X595000Y895002D02*
D03*
X600000Y890002D02*
D03*
X605000Y895002D02*
D03*
Y885002D02*
D03*
X595000D02*
D03*
X585000D02*
D03*
Y875002D02*
D03*
X590000Y870002D02*
D03*
X595000Y875002D02*
D03*
X600000Y870002D02*
D03*
X605000Y875002D02*
D03*
Y865002D02*
D03*
X595000D02*
D03*
X585000D02*
D03*
X805000Y960002D02*
D03*
Y950002D02*
D03*
Y940002D02*
D03*
X815000D02*
D03*
X810000Y945002D02*
D03*
X815000Y950002D02*
D03*
X810000Y955002D02*
D03*
X815000Y960002D02*
D03*
X710000Y55002D02*
D03*
X825000Y55002D02*
D03*
X710000Y65002D02*
D03*
X825000Y215002D02*
D03*
Y375001D02*
D03*
Y535001D02*
D03*
X710000Y545001D02*
D03*
X122501Y342500D02*
D03*
Y457500D02*
D03*
X237502Y342500D02*
D03*
Y365000D02*
D03*
Y388362D02*
D03*
Y457500D02*
D03*
X137501D02*
D03*
D113*
X735048Y624724D02*
D03*
X735000Y365001D02*
D03*
X677500Y472501D02*
D03*
X735000Y465001D02*
D03*
X677500Y517501D02*
D03*
X777500Y62502D02*
D03*
Y222502D02*
D03*
X220000Y1311747D02*
D03*
Y1388256D02*
D03*
X545000Y715000D02*
D03*
X615000D02*
D03*
X677500Y37501D02*
D03*
X350000Y1084500D02*
D03*
X410000D02*
D03*
X84484Y935000D02*
D03*
Y995000D02*
D03*
X170000Y1054484D02*
D03*
X290000Y1080516D02*
D03*
X230000D02*
D03*
X170000Y1082750D02*
D03*
X84484Y1055000D02*
D03*
X82250Y1115000D02*
D03*
Y1175000D02*
D03*
X112750Y1175000D02*
D03*
X735000Y575001D02*
D03*
X677500Y197502D02*
D03*
Y357501D02*
D03*
X735000Y45002D02*
D03*
Y95001D02*
D03*
X777500Y112501D02*
D03*
Y272502D02*
D03*
X735000Y145001D02*
D03*
X677500Y152501D02*
D03*
X735000Y205002D02*
D03*
Y255002D02*
D03*
Y305002D02*
D03*
X677500Y312502D02*
D03*
X777500Y382501D02*
D03*
X735000Y415001D02*
D03*
X777500Y432501D02*
D03*
Y592501D02*
D03*
X735000Y525001D02*
D03*
X777500Y542501D02*
D03*
X677500Y632501D02*
D03*
D114*
X572500Y730000D02*
D03*
X697500Y630000D02*
D03*
X600000Y694000D02*
D03*
X632500D02*
D03*
X665000D02*
D03*
M02*
