M48
;Layer_Color=9474304
;FILE_FORMAT=4:4
METRIC,LZ
;TYPE=PLATED
T01F00S00C0.3000
T03F00S00C0.7500
T04F00S00C0.9000
T05F00S00C1.0000
T06F00S00C1.1000
T07F00S00C1.1684
T08F00S00C1.7018
T09F00S00C1.7500
T10F00S00C1.8000
T11F00S00C2.5000
;TYPE=NON_PLATED
T12F00S00C1.2000
T13F00S00C2.8500
%
T01
X013Y0005
X01325Y001
X01275
X013Y0015
X01075Y001
X0105Y0005
X01
X009
X0085
X008
X00781Y00115
X00805Y001365
X00939Y00115
X0094625
X0095375
X00961
X00985Y001365
X0077375Y00115
X0076625
X00759
X007Y0015
X0067Y001
X006325Y00075
Y00065
X00585
Y00075
Y00095
X00435Y0010875
Y0011625
Y0012375
Y0013125
X00455Y0013875
Y0014625
Y0015375
Y0016125
X00475Y0016875
Y0017625
Y0018375
X004Y0015
Y0005
X0045
X0035
X003
X0025
X002
X0015
X001325Y0008
X00125
Y000875
X001325
Y00095
X00125
X001175
Y000875
Y0008
X0011
X001025
Y000875
X0011
Y00095
X001025
Y001025
X0011
Y0011
X001025
X001175
Y001025
X00125
X001325
Y0011
X00125
X00175Y001
X00225
X00275
X00325
X00375
X0035Y0015
X003
X0025
X002
X000865Y00165
Y0018
X00175Y002
X00225
X00275
X00325
X0035Y0025
X003
X0025
X002
X00225Y004
X00175
X001255
X00075
X001Y0045
X0015
X002
X00225Y005
X0025Y0055
X003
X002
X0015Y005425
X00155Y00535
X0015Y005275
X00155Y0052
X0015Y005125
X00125Y005
X00075
X001225Y0057
X0015Y00575
X00035Y0058
X0036Y004375
Y0043
Y004225
Y00415
X0039Y004375
X0042
X0045
X004825
Y0043
Y004225
Y00415
X005725Y0039
Y003825
X00573064Y003075
X005725Y003
X00649786Y0026
X007Y0023
X00675Y002
X00756Y002
X00772Y00229
X00755Y0039
Y00415
Y00435
X00705
Y00415
Y0039
X00649786Y00405
X0062Y0047
X006125
X00605
X005975
X0059
Y004775
Y00485
X005975
X00605
X006125
X0062
Y004925
Y005
X006125
Y004925
X00605
X005975
Y005
X00605
X0059
Y004925
X005975Y004775
X00605
X006125
X0062
X006Y0055
X0065
X00705Y0058
X00755
X005Y0055
X0045Y0054
X0042
X0039
Y0029
X0042
X0045
Y0026
X0042
X0039
Y0023
X0042
X0045
Y002
X0042
X0039
X00475Y0019125
X005Y0025
X00805Y00225
Y00205
X0083Y002525
X00875Y002
X0099Y00195
X009825Y0023
Y0024
X009775Y00245
Y00235
Y00255
X009825Y0025
X00985Y00265
X00975
Y00275
Y00285
X00985
Y00275
X00995
Y00285
X01005
X01015
X01025
Y00275
Y00265
X01035
X01045
X01055
Y00275
X01045
X01035
Y00285
X01045
X01055
X01065
Y00275
Y00265
X01075
X01085
Y00275
X01075
Y00285
X01085
Y00295
X01075
Y00305
X01085
Y00315
X01075
Y00325
Y00335
X01085
Y00325
X01095
Y00335
X01105
Y00325
X01115
Y00335
X01125
Y00325
Y00315
Y00305
Y00295
X01135
X01145
X01155
Y00305
X01145
X01135
Y00315
X01145
X01155
Y00325
Y00335
X01145
Y00325
X01135
Y00335
X01165
Y00325
Y00315
Y00305
Y00295
Y00285
Y00275
Y00265
X01155Y00265
Y00275
Y00285
X01145
X01135
X01125
X01115
X01105
Y00295
X01115
Y00305
X01105
X01095
Y00295
Y00285
Y00275
X01105
X01115
X01125
X01135
X01145
Y00265
X01135
X01125
X01115
X01105
X01095
X0109Y00235
Y00215
X0114
Y00235
X01115Y00315
X01105
X01095
X01065
Y00325
Y00335
Y00305
Y00295
X01015Y00275
X01005
Y00265
X01015
X00995
X010304Y002415
X010475Y002
X0109Y0037
Y0039
Y00425
Y00445
Y00465
X01095Y00475
X01105
X01115
X01125
X01135
X01145
X01155
Y00485
X01145
X01135
X01125
X01115
X01105
X01095
Y00495
X01105
X01115
X01125
X01135
X01145
X01155
Y00505
Y00515
Y00525
Y00535
Y00545
X01145
Y00535
X01135
Y00545
X01125
Y00535
X01115
Y00545
X01105
Y00535
X01095
Y00545
X01085
Y00535
X01075
Y00545
X01065
Y00535
Y00525
Y00515
Y00505
X01075
X01085
X01095
Y00515
Y00525
X01105
X01115
X01125
X01135
X01145
Y00515
X01135
X01125
X01115
X01105
Y00505
X01115
X01125
X01135
X01145
X01165
Y00495
Y00485
Y00475
Y00465
Y00455
Y00445
Y00439
Y00425
Y00415
Y00405
Y00395
Y00385
Y00375
Y00365
Y00355
Y00345
X0114Y0037
Y0039
X01155Y004025
Y0041
X0114Y00425
Y00445
Y00465
X01085Y00475
X01075
Y00485
X01085
Y00495
X01075
X01065
Y00485
Y00475
X01055
Y00485
Y00495
X01045
X01035
X01025
X01015
X01005
Y00485
X01015
Y00475
X01005
X00995
Y00485
Y00495
X00985
X00975
Y00485
X00985
Y00475
X00975
X009775Y00465
X009825Y0046
Y0045
X009775Y00445
Y00455
X009825Y0044
X009975Y0042
X010285
X010304Y004515
X01035Y00475
X01045
Y00485
X01035
X01025
Y00475
X01075Y00515
X01085
Y00525
X01075
X01165
Y00535
Y00545
Y00555
Y00565
Y00575
Y00515
X00965Y004075
X00952286Y0042
X00942714
X00917714
X00922Y00406
X0092121Y003854
Y003727
Y0036
Y003473
Y003346
Y003219
X00945Y0036
X009Y004075
X008875Y0042
X008625Y004325
X008475
Y004575
X008625
X0083Y0046
X00805Y00435
Y00415
Y0039
X008625Y003375
X00805Y0058
X01175Y00575
Y00565
X01185
Y00575
X01195
Y00565
X01205
Y00575
X01215
Y00565
X01225
X01235
Y00575
X01225
Y00555
X01235
X01245
Y00565
Y00575
X01255
Y00565
X01265
Y00575
Y00555
Y00545
Y00535
Y00525
Y00515
Y00505
Y00495
Y00485
Y00475
Y00465
Y00455
Y00445
Y00439
X01255
Y00445
Y00455
Y00465
Y00475
Y00485
Y00495
X01245
X01235
X01225
X01215
X01205
X01195
X01185
X01175
Y00485
X01185
X01195
X01205
X01215
X01225
X01235
X01245
Y00475
Y00465
X01235
Y00475
X01225
Y00465
X01215
Y00475
X01205
Y00465
X01195
Y00475
X01185
X01175
Y00465
X01185
Y00455
X01175
Y00445
Y00439
X01185
Y00445
X01195
Y00439
X01205
Y00445
Y00455
X01215
X01225
X01235
X01245
Y00445
Y00439
X01235
Y00445
X01225
Y00439
X01215
Y00445
Y00425
X01225
X01235
Y00415
X01225
X01215
X01205
Y00425
X01195
X01185
X01175
Y00415
X01185
X01195
Y00405
Y00395
X01185
Y00405
X01175
Y00395
Y00385
X01185
X01195
X01205
Y00395
Y00405
X01215
Y00395
X01225
Y00405
X01235
Y00395
X01245
Y00405
Y00415
Y00425
X01255
X01265
Y00415
Y00405
Y00395
X0127Y004
X01275Y004075
X01255Y00405
Y00395
Y00385
X01265
Y00375
Y00365
Y00355
Y00345036
Y00335
Y00325
X01275
X01285
Y00315
X01275
X01265
X01255
Y00325
Y00335
Y00345
Y00355
Y00365
Y00375
X01245
Y00385
X01235
X01225
X01215
Y00375
X01225
X01235
Y00365
Y00355
X01225
Y00365
X01215
Y00355
X01205
Y00365
Y00375
X01195
X01185
X01175
Y00365
Y00355
X01185
Y00365
X01195
Y00355
Y00345
X01185
X01175
Y00335
X01185
Y00325
X01175
Y00315
X01185
X01195
Y00325
Y00335
X01205
Y00325
X01215
Y00335
Y00345
X01225
X01235
X01245
Y00355
Y00365
Y00335
Y00325
X01235
Y00335
X01225
Y00325
Y00315
X01235
X01245
Y00305
X01255
X01265
X01275
X01285
Y00295
X01275
X01265
Y00285
X01275
X01285
X01295
Y00295
X01305
Y00305
X01295
Y00315
X01305
Y00325
X01295
X0132179Y0031345
Y0035155
X013325Y004075
X0135
X01255Y00415
Y00505
Y00515
Y00525
Y00535
Y00545
Y00555
X01245Y00545
Y00535
X01235
Y00545
X01225
Y00535
X01215
Y00545
Y00555
X01205
X01195
X01185
X01175
Y00545
X01185
Y00535
X01175
Y00525
X01185
X01195
Y00535
Y00545
X01205
Y00535
Y00525
X01215
X01225
X01235
X01245
Y00515
X01235
X01225
X01215
X01205
X01195
X01185
X01175
Y00505
X01185
X01195
X01205
X01215
X01225
X01235
X01245
X01195Y00455
X01205Y00345
Y00315
X01215
Y00305
X01225
X01235
Y00295
X01225
Y00285
X01235
Y00275
X01225
Y00265
X01235
X01245
X01255
X01265
X01275
X01285
Y00275
X01275
X01265
X01255
X01245
Y00285
X01255
Y00295
X01245
X01215
Y00285
Y00275
Y00265
X01205
X01195
X01185
X01175
Y00275
X01185
X01195
X01205
Y00285
X01195
X01185
X01175
Y00295
X01185
Y00305
X01175
X01195
X01205
Y00295
X01195
X0119Y0025125
X01175Y002
X01225
X01325
X01305Y00265
Y00275
Y00285
X01295Y00275
Y00265
X013Y0055
X01265Y00585
Y00595
Y00605
Y00615
Y00625
Y00635
Y00645
Y00655
Y00665
X01255
Y00655
X01245
Y00665
X01235
X01215
Y00655
Y00645
Y00635
Y00625
Y00615
Y00605
Y00595
Y00585
X01205
X01195
X01185
X01175
Y00595
X01185
X01195
X01205
Y00605
Y00615
X01195
Y00605
X01185
X01175
Y00615
X01185
Y00625
X01175
Y00635
X01185
X01195
Y00645
Y00665
Y00625
X01205
Y00635
X01225
X01235
Y00645
X01245
X01255
Y00635
Y00625
Y00615
Y00605
Y00595
Y00585
X01245
X01235
X01225
Y00595
X01235
X01245
Y00605
Y00615
X01235
Y00605
X01225
Y00615
Y00625
X01235
X01245
Y00635
X01165
X01155
X01145
X01135
X01125
X01115
X01105
X01095
X01085
X01075
X01065
X01055
X01045
X01035
X01025
Y00625
X01015
Y00615
X01025
X01035
X01045
Y00625
X01035
X01055
X01065
X01075
X01085
Y00615
X01075
X01065
X01055
X01095
Y00625
X01105
X01115
X01125
X01135
X01145
X01155
Y00615
X01145
X01135
X01125
X01115
X01105
X01165
Y00605
Y00595
Y00585
Y00625
X01005
X00995
Y00615
X01005
X00985
X00975
Y00625
X00965
Y00615
X00985Y00625
X00805Y006
X00825Y007
X0075Y0075
X00725Y008
X006Y0075
X005Y007475
X00500139Y00739861
X005Y00719
X005025Y006975
X004775Y00685
X004665Y007185
Y007295
Y007405
Y007515
X004555
Y007405
Y007295
Y007185
X004445
Y007295
Y007405
Y007515
X004335
Y007405
Y007295
Y007185
X004225Y007075
X003975Y007325
Y0074
X0039
X004Y007625
Y0077
X004475Y00785
X00455
X004675
X00535Y00705
Y0068
X0055Y006923
X00559936Y00670044
X005675Y0067
X0045Y0063
X0042
X0039
X00705Y006
X00755
X00375Y006
X00325
X00275
X00225
X003Y0065
X003375Y007075
X00345Y0077
X003525
X00305
X00295
X00125Y008
X00075
X0005Y0075
X00075Y007
X001Y0065
X0005
T03
X00915Y001205
X00735
X00655Y00588
X00422Y00805
X00365Y00791742
X002675Y0077
X00215Y006755
X0013Y006755
T04
X011775Y0065525
X012025
X012275
X011525
X011275
X011025
X010775
X010525
X009975
X009725
X009475
X009225
X008975
X008725
X008475
X008225
X006775
X006525
X006275
X006025
T05
X007375Y0065525
X007625
T06
X000223Y000837
Y001091
X000477
Y000837
Y001345
X000223
Y001599
Y001853
X000477
Y001599
Y002107
X000223
Y002361
Y002615
X000477
Y002361
Y002869
Y003123
X000223
Y002869
Y003377
X000477
Y003631
Y003885
X000223
Y003631
Y004139
Y004393
X000477
Y004139
Y004647
Y004901
X000223
Y004647
Y005155
X000477
Y005409
Y005663
X000223
Y005409
T07
X0066Y0079
T08
X006346Y007646
X006854
Y008154
X006346
T09
X012Y00716
X0118Y00756
X012Y00796
X0116
X0112
X0108
X0104
X01
X0096
X0092
X0094Y00756
X0098
X0102
X0106
X011
X0114
X0112Y00716
X0108
X0104
X01
X0096
X0092
X0116
T10
X01293Y005025
X01327
Y006375
X01293
T11
X01335Y0003
X00525Y00035
X00035
X00525Y00615
X00035
T12
X00795Y000995
X00925
X00975
X00745
T13
X01265Y00761
X00855
M30
