G04*
G04 #@! TF.GenerationSoftware,Altium Limited,Altium Designer,24.4.1 (13)*
G04*
G04 Layer_Physical_Order=4*
G04 Layer_Color=16711680*
%FSLAX44Y44*%
%MOMM*%
G71*
G04*
G04 #@! TF.SameCoordinates,D7575A33-01EC-4171-9A11-0C774D8D2981*
G04*
G04*
G04 #@! TF.FilePolarity,Positive*
G04*
G01*
G75*
%ADD13C,0.5000*%
%ADD15C,0.2000*%
%ADD20C,0.3000*%
%ADD25R,0.5200X0.5200*%
%ADD27R,0.5200X0.5200*%
%ADD33R,0.9500X0.8000*%
%ADD35R,0.5500X0.5500*%
%ADD43R,0.7500X0.8500*%
%ADD44R,0.7000X0.8500*%
%ADD45R,0.8000X0.4000*%
%ADD50C,0.7500*%
%ADD60C,2.7500*%
%ADD61R,2.7500X2.7500*%
%ADD62C,3.0000*%
%ADD64R,2.7500X2.7500*%
%ADD66C,2.7534*%
%ADD67R,2.7534X2.7534*%
%ADD68C,2.9972*%
%ADD74R,0.6500X2.7700*%
%ADD75C,1.5080*%
%ADD76C,0.5000*%
%ADD77C,1.2700*%
%ADD78C,1.0000*%
%ADD79C,4.0000*%
%ADD80R,0.3500X0.4500*%
%ADD81R,0.8500X0.7500*%
%ADD82R,0.4000X0.5000*%
%ADD83R,0.8000X0.9500*%
%ADD84R,0.8500X0.7000*%
%ADD85R,0.7000X0.4200*%
%ADD86O,1.4000X0.3500*%
%ADD87R,1.0500X1.1500*%
%ADD88R,1.3082X0.7621*%
G04:AMPARAMS|DCode=89|XSize=1.3082mm|YSize=0.7621mm|CornerRadius=0.3811mm|HoleSize=0mm|Usage=FLASHONLY|Rotation=0.000|XOffset=0mm|YOffset=0mm|HoleType=Round|Shape=RoundedRectangle|*
%AMROUNDEDRECTD89*
21,1,1.3082,0.0000,0,0,0.0*
21,1,0.5461,0.7621,0,0,0.0*
1,1,0.7621,0.2730,0.0000*
1,1,0.7621,-0.2730,0.0000*
1,1,0.7621,-0.2730,0.0000*
1,1,0.7621,0.2730,0.0000*
%
%ADD89ROUNDEDRECTD89*%
%ADD90R,1.3500X0.9500*%
%ADD91R,1.0000X1.2500*%
%ADD92R,0.5000X0.4000*%
%ADD93R,0.6725X0.7154*%
%ADD94R,0.7154X0.6725*%
%ADD95R,1.4562X1.2546*%
%ADD96R,0.9500X1.0500*%
%ADD97R,0.8621X0.7565*%
G04:AMPARAMS|DCode=98|XSize=0.55mm|YSize=1.25mm|CornerRadius=0.0495mm|HoleSize=0mm|Usage=FLASHONLY|Rotation=90.000|XOffset=0mm|YOffset=0mm|HoleType=Round|Shape=RoundedRectangle|*
%AMROUNDEDRECTD98*
21,1,0.5500,1.1510,0,0,90.0*
21,1,0.4510,1.2500,0,0,90.0*
1,1,0.0990,0.5755,0.2255*
1,1,0.0990,0.5755,-0.2255*
1,1,0.0990,-0.5755,-0.2255*
1,1,0.0990,-0.5755,0.2255*
%
%ADD98ROUNDEDRECTD98*%
G04:AMPARAMS|DCode=99|XSize=1.3082mm|YSize=0.7621mm|CornerRadius=0.3811mm|HoleSize=0mm|Usage=FLASHONLY|Rotation=90.000|XOffset=0mm|YOffset=0mm|HoleType=Round|Shape=RoundedRectangle|*
%AMROUNDEDRECTD99*
21,1,1.3082,0.0000,0,0,90.0*
21,1,0.5461,0.7621,0,0,90.0*
1,1,0.7621,0.0000,0.2730*
1,1,0.7621,0.0000,-0.2730*
1,1,0.7621,0.0000,-0.2730*
1,1,0.7621,0.0000,0.2730*
%
%ADD99ROUNDEDRECTD99*%
%ADD100R,0.7621X1.3082*%
%ADD101R,0.9100X1.2200*%
G36*
X959377Y947140D02*
X965450Y945513D01*
X971258Y943107D01*
X976703Y939964D01*
X981691Y936136D01*
X986136Y931691D01*
X989964Y926703D01*
X993107Y921258D01*
X995513Y915450D01*
X997140Y909377D01*
X997961Y903143D01*
Y900000D01*
Y50000D01*
Y46856D01*
X997140Y40623D01*
X995513Y34550D01*
X993107Y28742D01*
X989964Y23297D01*
X986136Y18309D01*
X981691Y13864D01*
X976703Y10036D01*
X971258Y6893D01*
X965450Y4487D01*
X959377Y2860D01*
X953143Y2039D01*
X46856D01*
X40623Y2860D01*
X34550Y4487D01*
X28742Y6893D01*
X23297Y10036D01*
X18309Y13864D01*
X13864Y18309D01*
X10036Y23297D01*
X6893Y28742D01*
X4487Y34550D01*
X2860Y40623D01*
X2039Y46856D01*
Y50000D01*
X2039Y900000D01*
Y903143D01*
X2860Y909377D01*
X4487Y915450D01*
X6893Y921258D01*
X10036Y926703D01*
X13864Y931691D01*
X18309Y936136D01*
X23297Y939964D01*
X28742Y943107D01*
X34550Y945513D01*
X40623Y947140D01*
X46856Y947961D01*
X50000Y947961D01*
X953143D01*
X959377Y947140D01*
D02*
G37*
%LPC*%
G36*
X163016Y901516D02*
X153484D01*
Y890984D01*
X163016D01*
Y901516D01*
D02*
G37*
G36*
X113516Y900766D02*
X104484D01*
Y890234D01*
X104484D01*
X103984Y888119D01*
X103984Y888119D01*
X103984Y887441D01*
Y877587D01*
X103984D01*
X105134Y875366D01*
Y868134D01*
X112366D01*
Y875366D01*
X113516Y877587D01*
X113516D01*
Y888119D01*
X113516D01*
X113516Y890234D01*
X113516D01*
Y900766D01*
D02*
G37*
G36*
X341316Y915166D02*
X332784D01*
Y885434D01*
X341316D01*
Y915166D01*
D02*
G37*
G36*
X303216D02*
X294684D01*
Y885434D01*
X303216D01*
Y915166D01*
D02*
G37*
G36*
X290516D02*
X281984D01*
Y885434D01*
X290516D01*
Y915166D01*
D02*
G37*
G36*
X212266Y901516D02*
X202734D01*
Y891966D01*
X202734Y890984D01*
X202734Y888221D01*
Y878434D01*
X212266D01*
Y887984D01*
X212266Y888966D01*
X212266Y891966D01*
Y901516D01*
D02*
G37*
G36*
X126016Y900766D02*
X116984D01*
Y891119D01*
X116984Y888119D01*
X116984Y887234D01*
Y877587D01*
X126516D01*
Y887441D01*
X126516Y888119D01*
X126016Y890912D01*
Y891119D01*
Y900766D01*
D02*
G37*
G36*
X823724Y895500D02*
X820276D01*
X816896Y894828D01*
X813711Y893509D01*
X810844Y891593D01*
X808407Y889156D01*
X806492Y886290D01*
X805173Y883105D01*
X804500Y879724D01*
Y876277D01*
X805173Y872896D01*
X806492Y869711D01*
X808407Y866845D01*
X810844Y864407D01*
X813711Y862492D01*
X816896Y861173D01*
X820276Y860500D01*
X823724D01*
X827105Y861173D01*
X830290Y862492D01*
X833156Y864407D01*
X835593Y866845D01*
X837508Y869711D01*
X838828Y872896D01*
X839500Y876277D01*
Y879724D01*
X838828Y883105D01*
X837508Y886290D01*
X835593Y889156D01*
X833156Y891593D01*
X830290Y893509D01*
X827105Y894828D01*
X823724Y895500D01*
D02*
G37*
G36*
X739723D02*
X736276D01*
X732895Y894828D01*
X729710Y893509D01*
X726844Y891593D01*
X724407Y889156D01*
X722492Y886290D01*
X721172Y883105D01*
X720500Y879724D01*
Y876277D01*
X721172Y872896D01*
X722492Y869711D01*
X724407Y866845D01*
X726844Y864407D01*
X729710Y862492D01*
X732895Y861173D01*
X736276Y860500D01*
X739723D01*
X743104Y861173D01*
X746289Y862492D01*
X749155Y864407D01*
X751593Y866845D01*
X753508Y869711D01*
X754827Y872896D01*
X755500Y876277D01*
Y879724D01*
X754827Y883105D01*
X753508Y886290D01*
X751593Y889156D01*
X749155Y891593D01*
X746289Y893509D01*
X743104Y894828D01*
X739723Y895500D01*
D02*
G37*
G36*
X523724D02*
X520276D01*
X516895Y894828D01*
X513711Y893509D01*
X510844Y891593D01*
X508407Y889156D01*
X506492Y886290D01*
X505173Y883105D01*
X504500Y879724D01*
Y876277D01*
X505173Y872896D01*
X506492Y869711D01*
X508407Y866845D01*
X510844Y864407D01*
X513711Y862492D01*
X516895Y861173D01*
X520276Y860500D01*
X523724D01*
X527105Y861173D01*
X530289Y862492D01*
X533156Y864407D01*
X535593Y866845D01*
X537508Y869711D01*
X538828Y872896D01*
X539500Y876277D01*
Y879724D01*
X538828Y883105D01*
X537508Y886290D01*
X535593Y889156D01*
X533156Y891593D01*
X530289Y893509D01*
X527105Y894828D01*
X523724Y895500D01*
D02*
G37*
G36*
X439724D02*
X436277D01*
X432896Y894828D01*
X429711Y893509D01*
X426845Y891593D01*
X424407Y889156D01*
X422492Y886290D01*
X421173Y883105D01*
X420500Y879724D01*
Y876277D01*
X421173Y872896D01*
X422492Y869711D01*
X424407Y866845D01*
X426845Y864407D01*
X429711Y862492D01*
X432896Y861173D01*
X436277Y860500D01*
X439724D01*
X443105Y861173D01*
X446290Y862492D01*
X449156Y864407D01*
X451593Y866845D01*
X453508Y869711D01*
X454828Y872896D01*
X455500Y876277D01*
Y879724D01*
X454828Y883105D01*
X453508Y886290D01*
X451593Y889156D01*
X449156Y891593D01*
X446290Y893509D01*
X443105Y894828D01*
X439724Y895500D01*
D02*
G37*
G36*
X673723Y895500D02*
X670276D01*
X666895Y894828D01*
X663710Y893509D01*
X660844Y891593D01*
X658407Y889156D01*
X656491Y886290D01*
X655172Y883105D01*
X654500Y879724D01*
Y876277D01*
X655172Y872896D01*
X656491Y869711D01*
X658407Y866845D01*
X660844Y864407D01*
X663710Y862492D01*
X666895Y861173D01*
X670276Y860500D01*
X673723D01*
X677104Y861173D01*
X680289Y862492D01*
X683155Y864407D01*
X685593Y866845D01*
X687508Y869711D01*
X688827Y872896D01*
X689500Y876277D01*
Y879724D01*
X688827Y883105D01*
X687508Y886290D01*
X685593Y889156D01*
X683155Y891593D01*
X680289Y893509D01*
X677104Y894828D01*
X673723Y895500D01*
D02*
G37*
G36*
X589724D02*
X586276D01*
X582895Y894828D01*
X579711Y893509D01*
X576844Y891593D01*
X574407Y889156D01*
X572492Y886290D01*
X571172Y883105D01*
X570500Y879724D01*
Y876277D01*
X571172Y872896D01*
X572492Y869711D01*
X574407Y866845D01*
X576844Y864407D01*
X579711Y862492D01*
X582895Y861173D01*
X586276Y860500D01*
X589724D01*
X593105Y861173D01*
X596289Y862492D01*
X599156Y864407D01*
X601593Y866845D01*
X603508Y869711D01*
X604827Y872896D01*
X605500Y876277D01*
Y879724D01*
X604827Y883105D01*
X603508Y886290D01*
X601593Y889156D01*
X599156Y891593D01*
X596289Y893509D01*
X593105Y894828D01*
X589724Y895500D01*
D02*
G37*
G36*
X341316Y874866D02*
X332784D01*
Y845134D01*
X341316D01*
Y874866D01*
D02*
G37*
G36*
X303216D02*
X294684D01*
Y845134D01*
X303216D01*
Y874866D01*
D02*
G37*
G36*
X328616D02*
X320084D01*
Y845134D01*
X320454D01*
X322295Y842900D01*
X322451Y842113D01*
X322896Y841447D01*
X325484Y838859D01*
Y831734D01*
X336016D01*
Y841266D01*
X330775D01*
X328405Y844065D01*
X328616Y845134D01*
X328616D01*
Y874866D01*
D02*
G37*
G36*
X103516Y845266D02*
X94484D01*
Y834809D01*
X94484Y834734D01*
X94984Y831941D01*
X94984Y831734D01*
Y828267D01*
X91984Y826664D01*
X91516Y826976D01*
Y831941D01*
X91516Y832016D01*
X91516Y832016D01*
X91016Y834734D01*
X91016D01*
Y845266D01*
X81984D01*
Y834734D01*
X81984D01*
X81984Y832016D01*
X81984D01*
Y821484D01*
X88609D01*
X90827Y819266D01*
X90664Y817843D01*
X89516Y816266D01*
X87484Y816266D01*
X83984D01*
Y815055D01*
X61750D01*
X61750Y815055D01*
X60963Y814899D01*
X60297Y814454D01*
X48016Y802173D01*
X45016Y802266D01*
X44520Y802266D01*
X34984D01*
Y791766D01*
X34984Y790734D01*
X34984Y787867D01*
Y777234D01*
X43945D01*
X45016Y777234D01*
X46944Y775033D01*
Y765217D01*
X45016Y763016D01*
X43945Y763016D01*
X34984D01*
Y752516D01*
X34984Y749516D01*
X34984Y748484D01*
Y737984D01*
X45016D01*
Y748484D01*
X45016Y751484D01*
X45016Y752516D01*
Y758934D01*
X46168Y759668D01*
X48016Y760077D01*
X52087Y756006D01*
X52000Y755796D01*
Y754204D01*
X52609Y752734D01*
X53007Y752336D01*
X53460Y750500D01*
X53007Y748663D01*
X52609Y748265D01*
X52000Y746795D01*
Y745204D01*
X52609Y743734D01*
X53734Y742609D01*
X55204Y742000D01*
X56796D01*
X58266Y742609D01*
X59391Y743734D01*
X60000Y745204D01*
Y746795D01*
X59913Y747006D01*
X100957Y788050D01*
X100957Y788050D01*
X101403Y788717D01*
X101559Y789503D01*
Y790234D01*
X102516D01*
Y796766D01*
X100915D01*
X99673Y799766D01*
X109851Y809945D01*
X112000D01*
X112000Y809944D01*
X112199Y809984D01*
X119441D01*
X120016Y809984D01*
X120016Y809984D01*
X122234Y810484D01*
Y810484D01*
X131266D01*
Y821016D01*
X124634D01*
X122234Y821016D01*
X121871Y821299D01*
X120016Y823138D01*
X120016Y825953D01*
Y832516D01*
X109484D01*
Y828805D01*
X104516D01*
Y832016D01*
X104197D01*
X103516Y834734D01*
X103516Y834945D01*
X103688Y837944D01*
X153545D01*
X154788Y834945D01*
X140859Y821016D01*
X134734D01*
Y810484D01*
X141331D01*
X142509Y810484D01*
X143304Y809841D01*
X144709Y807875D01*
X144694Y807803D01*
X144694Y807803D01*
Y713327D01*
X139193D01*
Y703673D01*
X154307D01*
Y713327D01*
X148806D01*
Y717495D01*
X150000Y720000D01*
X151805Y720000D01*
X250000D01*
Y770000D01*
X151805D01*
X150000Y770000D01*
X148806Y772505D01*
Y806952D01*
X152942Y811088D01*
X153153Y811001D01*
X154744D01*
X155671Y811385D01*
X157564D01*
Y813279D01*
X157948Y814206D01*
Y815797D01*
X157564Y816724D01*
Y818617D01*
X155671D01*
X154744Y819001D01*
X153153D01*
X152226Y818617D01*
X150332D01*
Y816724D01*
X149948Y815797D01*
Y814206D01*
X150035Y813995D01*
X146766Y810726D01*
X143766Y811969D01*
X143766Y812963D01*
Y818109D01*
X158351Y832694D01*
X206149D01*
X215342Y823501D01*
X214991Y821975D01*
X214261Y820339D01*
X213725Y820117D01*
X211832D01*
Y818224D01*
X211448Y817297D01*
Y815706D01*
X211832Y814779D01*
Y812885D01*
X213725D01*
X214653Y812501D01*
X216244D01*
X218429Y810334D01*
X218439Y809981D01*
X217357Y808881D01*
X215797Y807751D01*
X214653D01*
X213725Y807367D01*
X211832D01*
Y805474D01*
X211448Y804547D01*
Y802956D01*
X211832Y802029D01*
Y800135D01*
X213725D01*
X214653Y799751D01*
X216244D01*
X216333Y799788D01*
X216355Y799794D01*
X217776Y800004D01*
X218220Y799890D01*
X218568Y799764D01*
X220000Y797415D01*
X219746Y796394D01*
X219710Y796303D01*
X219500Y795796D01*
Y794204D01*
X220109Y792734D01*
X221234Y791609D01*
X222704Y791000D01*
X224296D01*
X225766Y791609D01*
X226891Y792734D01*
X227500Y794204D01*
Y795796D01*
X227413Y796006D01*
X232453Y801047D01*
X232899Y801713D01*
X233055Y802500D01*
X233055Y802500D01*
Y820500D01*
X232899Y821287D01*
X232453Y821954D01*
X232453Y821954D01*
X212953Y841453D01*
X212287Y841899D01*
X211500Y842056D01*
X211500Y842056D01*
X103516D01*
Y845266D01*
D02*
G37*
G36*
X56796Y838500D02*
X55204D01*
X53734Y837891D01*
X52609Y836766D01*
X52000Y835295D01*
Y833704D01*
X52609Y832234D01*
X53093Y831750D01*
X53485Y830000D01*
X53093Y828250D01*
X52609Y827766D01*
X52000Y826296D01*
Y824704D01*
X52609Y823234D01*
X53734Y822109D01*
X55204Y821500D01*
X56796D01*
X58266Y822109D01*
X59391Y823234D01*
X60000Y824704D01*
Y826296D01*
X59391Y827766D01*
X58907Y828250D01*
X58514Y830000D01*
X58907Y831750D01*
X59391Y832234D01*
X60000Y833704D01*
Y835295D01*
X59391Y836766D01*
X58266Y837891D01*
X56796Y838500D01*
D02*
G37*
G36*
X45016Y842266D02*
X34984D01*
Y832162D01*
X34984Y830734D01*
X35234Y827838D01*
Y818734D01*
X44766D01*
Y827838D01*
X45016Y830734D01*
X45016Y832162D01*
Y842266D01*
D02*
G37*
G36*
X336016Y828266D02*
X325484D01*
Y818734D01*
X332388D01*
X337553Y813569D01*
X338386Y813013D01*
X339367Y812817D01*
X351575D01*
X351609Y812734D01*
X352734Y811609D01*
X354204Y811000D01*
X355796D01*
X357266Y811609D01*
X358391Y812734D01*
X359000Y814204D01*
Y815796D01*
X358391Y817266D01*
X357266Y818391D01*
X355796Y819000D01*
X354204D01*
X352734Y818391D01*
X352291Y817948D01*
X340430D01*
X336016Y822362D01*
Y828266D01*
D02*
G37*
G36*
X355796Y807750D02*
X354204D01*
X352734Y807141D01*
X351609Y806016D01*
X351000Y804546D01*
Y802954D01*
X351609Y801484D01*
X352734Y800359D01*
X354204Y799750D01*
X355796D01*
X357266Y800359D01*
X358391Y801484D01*
X359000Y802954D01*
Y804546D01*
X358391Y806016D01*
X357266Y807141D01*
X355796Y807750D01*
D02*
G37*
G36*
X823454Y819766D02*
X820546D01*
X817693Y819199D01*
X815006Y818085D01*
X812587Y816470D01*
X810531Y814413D01*
X808915Y811994D01*
X807802Y809307D01*
X807234Y806454D01*
Y803546D01*
X807802Y800693D01*
X808915Y798006D01*
X810531Y795587D01*
X812587Y793531D01*
X815006Y791915D01*
X817693Y790801D01*
X820546Y790234D01*
X823454D01*
X826307Y790801D01*
X828994Y791915D01*
X831413Y793531D01*
X833470Y795587D01*
X835086Y798006D01*
X836199Y800693D01*
X836766Y803546D01*
Y806454D01*
X836199Y809307D01*
X835086Y811994D01*
X833470Y814413D01*
X831413Y816470D01*
X828994Y818085D01*
X826307Y819199D01*
X823454Y819766D01*
D02*
G37*
G36*
X781454D02*
X778546D01*
X775693Y819199D01*
X773006Y818085D01*
X770587Y816470D01*
X768531Y814413D01*
X766915Y811994D01*
X765802Y809307D01*
X765234Y806454D01*
Y803546D01*
X765802Y800693D01*
X766915Y798006D01*
X768531Y795587D01*
X770587Y793531D01*
X773006Y791915D01*
X775693Y790801D01*
X778546Y790234D01*
X781454D01*
X784307Y790801D01*
X786994Y791915D01*
X789413Y793531D01*
X791470Y795587D01*
X793086Y798006D01*
X794199Y800693D01*
X794766Y803546D01*
Y806454D01*
X794199Y809307D01*
X793086Y811994D01*
X791470Y814413D01*
X789413Y816470D01*
X786994Y818085D01*
X784307Y819199D01*
X781454Y819766D01*
D02*
G37*
G36*
X752766D02*
X723234D01*
Y790234D01*
X752766D01*
Y819766D01*
D02*
G37*
G36*
X523454D02*
X520546D01*
X517693Y819199D01*
X515006Y818085D01*
X512587Y816470D01*
X510531Y814413D01*
X508915Y811994D01*
X507802Y809307D01*
X507234Y806454D01*
Y803546D01*
X507802Y800693D01*
X508915Y798006D01*
X510531Y795587D01*
X512587Y793531D01*
X515006Y791915D01*
X517693Y790801D01*
X520546Y790234D01*
X523454D01*
X526307Y790801D01*
X528994Y791915D01*
X531413Y793531D01*
X533470Y795587D01*
X535085Y798006D01*
X536199Y800693D01*
X536766Y803546D01*
Y806454D01*
X536199Y809307D01*
X535085Y811994D01*
X533470Y814413D01*
X531413Y816470D01*
X528994Y818085D01*
X526307Y819199D01*
X523454Y819766D01*
D02*
G37*
G36*
X481454D02*
X478546D01*
X475693Y819199D01*
X473006Y818085D01*
X470587Y816470D01*
X468531Y814413D01*
X466915Y811994D01*
X465802Y809307D01*
X465234Y806454D01*
Y803546D01*
X465802Y800693D01*
X466915Y798006D01*
X468531Y795587D01*
X470587Y793531D01*
X473006Y791915D01*
X475693Y790801D01*
X478546Y790234D01*
X481454D01*
X484307Y790801D01*
X486994Y791915D01*
X489413Y793531D01*
X491470Y795587D01*
X493086Y798006D01*
X494199Y800693D01*
X494766Y803546D01*
Y806454D01*
X494199Y809307D01*
X493086Y811994D01*
X491470Y814413D01*
X489413Y816470D01*
X486994Y818085D01*
X484307Y819199D01*
X481454Y819766D01*
D02*
G37*
G36*
X452766D02*
X423234D01*
Y790234D01*
X452766D01*
Y819766D01*
D02*
G37*
G36*
X673454Y819766D02*
X670546D01*
X667693Y819199D01*
X665005Y818085D01*
X662587Y816470D01*
X660530Y814413D01*
X658914Y811994D01*
X657801Y809307D01*
X657234Y806454D01*
Y803546D01*
X657801Y800693D01*
X658914Y798006D01*
X660530Y795587D01*
X662587Y793531D01*
X665005Y791915D01*
X667693Y790801D01*
X670546Y790234D01*
X673454D01*
X676307Y790801D01*
X678994Y791915D01*
X681413Y793531D01*
X683469Y795587D01*
X685085Y798006D01*
X686198Y800693D01*
X686766Y803546D01*
Y806454D01*
X686198Y809307D01*
X685085Y811994D01*
X683469Y814413D01*
X681413Y816470D01*
X678994Y818085D01*
X676307Y819199D01*
X673454Y819766D01*
D02*
G37*
G36*
X631454D02*
X628546D01*
X625693Y819199D01*
X623006Y818085D01*
X620587Y816470D01*
X618530Y814413D01*
X616914Y811994D01*
X615801Y809307D01*
X615234Y806454D01*
Y803546D01*
X615801Y800693D01*
X616914Y798006D01*
X618530Y795587D01*
X620587Y793531D01*
X623006Y791915D01*
X625693Y790801D01*
X628546Y790234D01*
X631454D01*
X634307Y790801D01*
X636994Y791915D01*
X639413Y793531D01*
X641469Y795587D01*
X643085Y798006D01*
X644199Y800693D01*
X644766Y803546D01*
Y806454D01*
X644199Y809307D01*
X643085Y811994D01*
X641469Y814413D01*
X639413Y816470D01*
X636994Y818085D01*
X634307Y819199D01*
X631454Y819766D01*
D02*
G37*
G36*
X602766D02*
X573234D01*
Y790234D01*
X602766D01*
Y819766D01*
D02*
G37*
G36*
X781454Y777766D02*
X778546D01*
X775693Y777199D01*
X773006Y776086D01*
X770587Y774470D01*
X768531Y772413D01*
X766915Y769995D01*
X765802Y767307D01*
X765234Y764454D01*
Y761546D01*
X765802Y758693D01*
X766915Y756006D01*
X768531Y753587D01*
X770587Y751531D01*
X773006Y749915D01*
X775693Y748802D01*
X778546Y748234D01*
X781454D01*
X784307Y748802D01*
X786994Y749915D01*
X789413Y751531D01*
X791470Y753587D01*
X793086Y756006D01*
X794199Y758693D01*
X794766Y761546D01*
Y764454D01*
X794199Y767307D01*
X793086Y769995D01*
X791470Y772413D01*
X789413Y774470D01*
X786994Y776086D01*
X784307Y777199D01*
X781454Y777766D01*
D02*
G37*
G36*
X481454D02*
X478546D01*
X475693Y777199D01*
X473006Y776086D01*
X470587Y774470D01*
X468531Y772413D01*
X466915Y769995D01*
X465802Y767307D01*
X465234Y764454D01*
Y761546D01*
X465802Y758693D01*
X466915Y756006D01*
X468531Y753587D01*
X470587Y751531D01*
X473006Y749915D01*
X475693Y748802D01*
X478546Y748234D01*
X481454D01*
X484307Y748802D01*
X486994Y749915D01*
X489413Y751531D01*
X491470Y753587D01*
X493086Y756006D01*
X494199Y758693D01*
X494766Y761546D01*
Y764454D01*
X494199Y767307D01*
X493086Y769995D01*
X491470Y772413D01*
X489413Y774470D01*
X486994Y776086D01*
X484307Y777199D01*
X481454Y777766D01*
D02*
G37*
G36*
X631454Y777766D02*
X628546D01*
X625693Y777199D01*
X623006Y776086D01*
X620587Y774470D01*
X618530Y772413D01*
X616914Y769995D01*
X615801Y767307D01*
X615234Y764454D01*
Y761546D01*
X615801Y758693D01*
X616914Y756006D01*
X618530Y753587D01*
X620587Y751531D01*
X623006Y749915D01*
X625693Y748802D01*
X628546Y748234D01*
X631454D01*
X634307Y748802D01*
X636994Y749915D01*
X639413Y751531D01*
X641469Y753587D01*
X643085Y756006D01*
X644199Y758693D01*
X644766Y761546D01*
Y764454D01*
X644199Y767307D01*
X643085Y769995D01*
X641469Y772413D01*
X639413Y774470D01*
X636994Y776086D01*
X634307Y777199D01*
X631454Y777766D01*
D02*
G37*
G36*
X315916Y874866D02*
X307384D01*
Y845134D01*
X309445D01*
Y735728D01*
X309234Y735641D01*
X308109Y734516D01*
X307500Y733046D01*
Y731454D01*
X308109Y729984D01*
X309234Y728859D01*
X310704Y728250D01*
X312296D01*
X313766Y728859D01*
X314891Y729984D01*
X315500Y731454D01*
Y733046D01*
X314891Y734516D01*
X313766Y735641D01*
X313556Y735728D01*
Y845134D01*
X315916D01*
Y874866D01*
D02*
G37*
G36*
X421796Y720250D02*
X420204D01*
X418734Y719641D01*
X418359Y719266D01*
X417484D01*
Y718815D01*
X412016D01*
Y719266D01*
X404984D01*
Y713234D01*
X412016D01*
Y713685D01*
X417484D01*
Y713234D01*
X418359D01*
X418734Y712859D01*
X420204Y712250D01*
X421796D01*
X423266Y712859D01*
X423641Y713234D01*
X424516D01*
Y714286D01*
X425000Y715454D01*
Y717046D01*
X424516Y718214D01*
Y719266D01*
X423641D01*
X423266Y719641D01*
X421796Y720250D01*
D02*
G37*
G36*
X572971Y721578D02*
X556377D01*
Y716344D01*
X551266D01*
Y719016D01*
X540734D01*
Y709484D01*
X551266D01*
Y712233D01*
X556377D01*
Y707000D01*
X572971D01*
Y721578D01*
D02*
G37*
G36*
X396796Y720750D02*
X395204D01*
X393734Y720141D01*
X393359Y719766D01*
X392484D01*
Y718714D01*
X392000Y717546D01*
Y715954D01*
X392484Y714786D01*
Y713734D01*
X393359D01*
X393734Y713359D01*
X395204Y712750D01*
X396796D01*
X398266Y713359D01*
X398641Y713734D01*
X399516D01*
Y714786D01*
X400000Y715954D01*
Y717546D01*
X399516Y718714D01*
Y719766D01*
X398641D01*
X398266Y720141D01*
X396796Y720750D01*
D02*
G37*
G36*
X597472Y721578D02*
X580877D01*
Y707000D01*
X597472D01*
Y721578D01*
D02*
G37*
G36*
X176016Y901516D02*
X166484D01*
Y890984D01*
X166484D01*
X166484Y889016D01*
X166484D01*
Y878484D01*
X167528D01*
X168016Y877724D01*
X168386Y876406D01*
X168278Y876160D01*
X166438Y873805D01*
X161866D01*
Y875366D01*
X154634D01*
X154634Y868134D01*
X154514Y865184D01*
X154250Y864546D01*
Y862954D01*
X154634Y862027D01*
Y860134D01*
X156527D01*
X157454Y859750D01*
X159046D01*
X159973Y860134D01*
X161866D01*
Y862027D01*
X162250Y862954D01*
Y864546D01*
X161986Y865184D01*
X161898Y867353D01*
X163507Y869433D01*
X166543Y869550D01*
X169796Y866297D01*
X169796Y866297D01*
X184797Y851296D01*
X185463Y850851D01*
X186250Y850695D01*
X186250Y850695D01*
X208649D01*
X284889Y774454D01*
X286234Y772016D01*
X286234D01*
X286234Y772016D01*
X286234Y763750D01*
X286234Y761484D01*
Y755484D01*
X285484Y755266D01*
Y744734D01*
X291334D01*
X292577Y741734D01*
X282047Y731204D01*
X281601Y730537D01*
X281444Y729750D01*
X281444Y729750D01*
Y648250D01*
X281601Y647463D01*
X282047Y646796D01*
X282084Y646771D01*
X282084Y644484D01*
Y643427D01*
X279963Y641305D01*
X266654D01*
X266350Y641305D01*
X264770Y643041D01*
X264366Y644159D01*
X264366Y644359D01*
X264741Y644734D01*
X265350Y646204D01*
Y647795D01*
X264741Y649266D01*
X264366Y649641D01*
Y650516D01*
X263314D01*
X262146Y651000D01*
X260554D01*
X259386Y650516D01*
X258334D01*
Y649641D01*
X258258Y649565D01*
X254764D01*
Y650516D01*
X248731D01*
Y643484D01*
X254764D01*
Y644435D01*
X258258D01*
X258334Y644359D01*
Y643484D01*
X259386D01*
X260554Y643000D01*
X262143Y643000D01*
X262163Y642978D01*
X263663Y641060D01*
X263706Y640648D01*
X263561Y640322D01*
X263561Y640322D01*
X263365Y640127D01*
X260997Y637758D01*
X260551Y637091D01*
X260394Y636304D01*
X257734Y635616D01*
Y633723D01*
X257350Y632796D01*
Y631204D01*
X257734Y630277D01*
Y628384D01*
X259627D01*
X260554Y628000D01*
X262146D01*
X263073Y628384D01*
X264966D01*
Y630277D01*
X265350Y631204D01*
Y632796D01*
X264966Y633723D01*
Y635616D01*
X267312Y637195D01*
X282084D01*
Y635484D01*
X289616D01*
X289616Y643750D01*
X289616Y646016D01*
Y652016D01*
X285555D01*
Y728899D01*
X299203Y742546D01*
X299203Y742546D01*
X299649Y743213D01*
X299806Y744000D01*
X299806Y744000D01*
Y769750D01*
X299806Y769750D01*
X299649Y770537D01*
X299203Y771204D01*
X299203Y771204D01*
X288305Y782101D01*
Y845134D01*
X290516D01*
Y874866D01*
X287289D01*
X285685Y877866D01*
X285738Y877944D01*
X358899D01*
X395047Y841796D01*
X395713Y841351D01*
X396500Y841195D01*
X396500Y841195D01*
X682399D01*
X703195Y820399D01*
Y718851D01*
X690100Y705757D01*
X687100Y707000D01*
Y707046D01*
X686491Y708516D01*
X685366Y709641D01*
X683896Y710250D01*
X682304D01*
X682094Y710163D01*
X658304Y733953D01*
X657637Y734399D01*
X656850Y734556D01*
X656850Y734556D01*
X516500D01*
X515713Y734399D01*
X515047Y733953D01*
X515047Y733953D01*
X502547Y721453D01*
X502101Y720787D01*
X501945Y720000D01*
X499268Y719016D01*
X492734D01*
Y709309D01*
X492734Y708484D01*
X492734Y708484D01*
X493234Y706516D01*
X493234Y706516D01*
Y703306D01*
X485250D01*
X485250Y703306D01*
X484463Y703149D01*
X483797Y702703D01*
X483797Y702703D01*
X417149Y636055D01*
X376652D01*
X375829Y636605D01*
X374750Y636820D01*
X364250D01*
X363171Y636605D01*
X362256Y635994D01*
X361645Y635079D01*
X361430Y634000D01*
X361645Y632921D01*
X361817Y632662D01*
X362256Y631834D01*
Y629666D01*
X361817Y628838D01*
X361645Y628579D01*
X361430Y627500D01*
X361645Y626421D01*
X361817Y626162D01*
X362256Y625334D01*
Y623166D01*
X361817Y622338D01*
X361645Y622079D01*
X361430Y621000D01*
X361645Y619921D01*
X361817Y619662D01*
X362256Y618834D01*
Y616666D01*
X361817Y615838D01*
X361645Y615579D01*
X361430Y614500D01*
X361645Y613421D01*
X361817Y613162D01*
X362256Y612334D01*
Y610166D01*
X361817Y609338D01*
X361645Y609079D01*
X361430Y608000D01*
X361568Y607305D01*
X361264Y606379D01*
X359812Y604305D01*
X344101D01*
X325953Y622453D01*
X325287Y622899D01*
X324500Y623056D01*
X324500Y623055D01*
X320652D01*
X319829Y623605D01*
X318750Y623820D01*
X308250D01*
X307171Y623605D01*
X306256Y622994D01*
X305644Y622079D01*
X305430Y621000D01*
X305644Y619921D01*
X305817Y619662D01*
X306256Y618834D01*
Y616666D01*
X305817Y615838D01*
X305644Y615579D01*
X305430Y614500D01*
X305644Y613421D01*
X305817Y613162D01*
X306256Y612334D01*
Y610166D01*
X305817Y609338D01*
X305644Y609079D01*
X305430Y608000D01*
X305644Y606921D01*
X306256Y606006D01*
X307171Y605395D01*
X308250Y605180D01*
X310637D01*
Y541044D01*
X294894Y525301D01*
X292554Y526860D01*
X292420Y527070D01*
X292556Y527750D01*
X292556Y527750D01*
Y532250D01*
X292556Y532250D01*
X292399Y533037D01*
X291954Y533703D01*
X279203Y546454D01*
X278537Y546899D01*
X277750Y547056D01*
X277750Y547056D01*
X273728D01*
X273641Y547266D01*
X272516Y548391D01*
X271046Y549000D01*
X269454D01*
X267984Y548391D01*
X266859Y547266D01*
X266250Y545796D01*
Y544204D01*
X263893Y542056D01*
X169750D01*
X168963Y541899D01*
X168297Y541454D01*
X168297Y541453D01*
X92766Y465923D01*
X89766Y467166D01*
Y470766D01*
X77234D01*
Y457234D01*
X89766Y457234D01*
X90039Y454347D01*
Y441489D01*
X88766Y439016D01*
X87039Y439016D01*
X78234D01*
Y429484D01*
X86124Y429484D01*
X87126Y427750D01*
X86124Y426016D01*
X78234D01*
Y424835D01*
X58331D01*
X57066Y426420D01*
X58594Y429230D01*
X59099D01*
X60944Y429995D01*
X62356Y431407D01*
X63120Y433252D01*
Y435249D01*
X62356Y437094D01*
X60944Y438506D01*
X59099Y439270D01*
X57101D01*
X55256Y438506D01*
X53844Y437094D01*
X53080Y435249D01*
Y433675D01*
X51951Y432825D01*
X50308Y432204D01*
X45335Y437177D01*
Y447515D01*
X93285Y495465D01*
X94062Y496628D01*
X94335Y498000D01*
Y556735D01*
X95006Y557406D01*
X95770Y559252D01*
Y561249D01*
X95006Y563094D01*
X93594Y564506D01*
X91749Y565270D01*
X89752D01*
X87906Y564506D01*
X86494Y563094D01*
X85730Y561249D01*
Y559252D01*
X86494Y557406D01*
X87165Y556735D01*
Y499485D01*
X39215Y451535D01*
X38438Y450372D01*
X38165Y449000D01*
Y435692D01*
X38438Y434320D01*
X39215Y433157D01*
X53657Y418715D01*
X54820Y417938D01*
X56192Y417665D01*
X78234D01*
Y416484D01*
X79446D01*
X79694Y416236D01*
X80109Y415234D01*
X81234Y414109D01*
X82704Y413500D01*
X84296D01*
X85766Y414109D01*
X86699Y415042D01*
X88245Y414873D01*
X89810Y414455D01*
X90039Y414011D01*
Y401739D01*
X88766Y399266D01*
X87039Y399266D01*
X78734D01*
Y387734D01*
X88078Y387734D01*
X89743Y385139D01*
X88927Y382570D01*
X82000D01*
X80921Y382355D01*
X80006Y381744D01*
X79395Y380829D01*
X79180Y379750D01*
X79395Y378671D01*
X79626Y378324D01*
X80006Y377600D01*
Y375400D01*
X79626Y374676D01*
X79395Y374329D01*
X79180Y373250D01*
X79395Y372171D01*
X79626Y371824D01*
X80006Y371100D01*
Y368900D01*
X79626Y368176D01*
X79395Y367829D01*
X79180Y366750D01*
X79395Y365671D01*
X79568Y365412D01*
X79572Y365392D01*
X78794Y363135D01*
X78246Y362401D01*
X73866D01*
Y364116D01*
X72305D01*
Y369634D01*
X73866D01*
Y376866D01*
X72305D01*
Y387734D01*
X75266D01*
Y399266D01*
X65234D01*
Y387734D01*
X68194D01*
Y376866D01*
X66634D01*
Y369634D01*
X68194D01*
Y364116D01*
X66634D01*
Y356884D01*
X73866D01*
Y358290D01*
X79983D01*
X80006Y358256D01*
X80921Y357644D01*
X82000Y357430D01*
X92500D01*
X93579Y357644D01*
X94494Y358256D01*
X95106Y359171D01*
X95320Y360250D01*
X95106Y361329D01*
X94933Y361588D01*
X94757Y361919D01*
X94784Y362436D01*
X95091Y363957D01*
X95514Y365170D01*
X95703Y365297D01*
X103453Y373047D01*
X103454Y373047D01*
X103899Y373713D01*
X104056Y374500D01*
X104056Y374500D01*
Y395795D01*
X107056Y397038D01*
X125796Y378297D01*
X125797Y378297D01*
X126463Y377851D01*
X127250Y377694D01*
X134310D01*
X135002Y376694D01*
X135633Y374712D01*
X135567Y374588D01*
X135394Y374329D01*
X135180Y373250D01*
X135394Y372171D01*
X136006Y371256D01*
X136921Y370645D01*
X138000Y370430D01*
X148500D01*
X149579Y370645D01*
X149782Y370780D01*
X155634D01*
Y369884D01*
X157527D01*
X158454Y369500D01*
X160046D01*
X160973Y369884D01*
X162866D01*
Y371777D01*
X163250Y372704D01*
Y374296D01*
X162866Y375223D01*
Y377116D01*
X160973D01*
X160046Y377500D01*
X158454D01*
X157527Y377116D01*
X155634D01*
Y375911D01*
X152722D01*
X151190Y378527D01*
X151153Y378911D01*
X151320Y379750D01*
X151105Y380829D01*
X150494Y381744D01*
X149579Y382355D01*
X148500Y382570D01*
X138000D01*
X136921Y382355D01*
X136098Y381805D01*
X128102D01*
X123630Y386277D01*
X124916Y389234D01*
X126245Y389234D01*
X134734D01*
X135266Y389234D01*
X137734D01*
X138266Y389234D01*
X149266D01*
Y394194D01*
X154984D01*
Y391734D01*
X165516D01*
Y394194D01*
X168750D01*
X168750Y394194D01*
X169537Y394351D01*
X170203Y394796D01*
X314146Y538739D01*
X314146Y538740D01*
X314592Y539406D01*
X314748Y540193D01*
Y605180D01*
X318750D01*
X319829Y605395D01*
X320744Y606006D01*
X321355Y606921D01*
X323909Y608363D01*
X324486Y608453D01*
X325195Y608033D01*
Y593531D01*
X325195Y593531D01*
X325351Y592745D01*
X325797Y592078D01*
X391445Y526430D01*
Y400766D01*
X388234D01*
Y398306D01*
X382516D01*
Y401766D01*
X371516D01*
X370984Y401766D01*
X368516D01*
X367984Y401766D01*
X356984D01*
Y391946D01*
X356984Y390415D01*
X354027Y389129D01*
X348555Y394601D01*
Y427236D01*
X351555Y428425D01*
X362284Y417696D01*
Y416484D01*
X363496D01*
X363744Y416236D01*
X364159Y415234D01*
X365284Y414109D01*
X366754Y413500D01*
X368346D01*
X369816Y414109D01*
X370941Y415234D01*
X371459Y416484D01*
X372816D01*
Y426016D01*
X366689D01*
X366376Y426484D01*
X367980Y429484D01*
X372816D01*
Y439016D01*
X362284D01*
Y432078D01*
X359284Y430836D01*
X356835Y433285D01*
Y515765D01*
X363785Y522715D01*
X364562Y523878D01*
X364835Y525250D01*
Y545000D01*
X364562Y546372D01*
X363785Y547535D01*
X330020Y581300D01*
Y582248D01*
X329256Y584094D01*
X327844Y585506D01*
X325999Y586270D01*
X324002D01*
X322156Y585506D01*
X320744Y584094D01*
X319980Y582248D01*
Y580251D01*
X320744Y578406D01*
X322156Y576994D01*
X324002Y576230D01*
X324950D01*
X357665Y543515D01*
Y537411D01*
X354893Y536263D01*
X344703Y546454D01*
X344037Y546899D01*
X343250Y547056D01*
X343250Y547056D01*
X338728D01*
X338641Y547266D01*
X337516Y548391D01*
X336046Y549000D01*
X334454D01*
X332984Y548391D01*
X331859Y547266D01*
X331250Y545796D01*
Y544204D01*
X331859Y542734D01*
X332984Y541609D01*
X334204Y541104D01*
X334786Y539879D01*
X335343Y538000D01*
X326297Y528954D01*
X325851Y528287D01*
X325695Y527500D01*
X325695Y527500D01*
Y471543D01*
X323016Y470766D01*
X322695Y470766D01*
X310484D01*
Y457234D01*
X322695D01*
X323016Y457234D01*
X325695Y456456D01*
Y382570D01*
X315250D01*
X314171Y382355D01*
X313256Y381744D01*
X312645Y380829D01*
X312430Y379750D01*
X312645Y378671D01*
X312876Y378324D01*
X313256Y377600D01*
Y375400D01*
X312876Y374676D01*
X312645Y374329D01*
X312430Y373250D01*
X312645Y372171D01*
X312876Y371824D01*
X313256Y371100D01*
Y368900D01*
X312876Y368176D01*
X312645Y367829D01*
X312430Y366750D01*
X312645Y365671D01*
X312818Y365412D01*
X312824Y365399D01*
X312045Y363135D01*
X311496Y362401D01*
X307116D01*
Y364116D01*
X305556D01*
Y369634D01*
X307116D01*
Y376866D01*
X305556D01*
Y387734D01*
X308516D01*
Y399266D01*
X298484D01*
Y387734D01*
X301445D01*
Y376866D01*
X299884D01*
Y369634D01*
X301445D01*
Y364116D01*
X299884D01*
Y356884D01*
X307116D01*
Y358290D01*
X313233D01*
X313256Y358256D01*
X314171Y357644D01*
X315250Y357430D01*
X325750D01*
X326829Y357644D01*
X327744Y358256D01*
X328356Y359170D01*
X328570Y360250D01*
X328356Y361329D01*
X328183Y361588D01*
X328134Y361871D01*
X328277Y362971D01*
X328544Y363705D01*
X329253Y364844D01*
X329287Y364851D01*
X329954Y365297D01*
X341454Y376796D01*
X341899Y377463D01*
X342056Y378250D01*
X342056Y378250D01*
Y391553D01*
X345010Y392287D01*
X345056Y392288D01*
X359047Y378296D01*
X359047Y378296D01*
X359714Y377851D01*
X360500Y377694D01*
X360500Y377694D01*
X367560D01*
X368253Y376693D01*
X368854Y374803D01*
X368817Y374588D01*
X368645Y374329D01*
X368430Y373250D01*
X368645Y372171D01*
X369256Y371256D01*
X370171Y370644D01*
X371250Y370430D01*
X381750D01*
X382829Y370644D01*
X383033Y370780D01*
X388884D01*
Y369884D01*
X390777D01*
X391704Y369500D01*
X393296D01*
X394223Y369884D01*
X396116D01*
Y371777D01*
X396500Y372704D01*
Y374296D01*
X396116Y375223D01*
Y377116D01*
X394223D01*
X393296Y377500D01*
X391704D01*
X390777Y377116D01*
X388884D01*
Y375911D01*
X385972D01*
X384440Y378527D01*
X384403Y378911D01*
X384570Y379750D01*
X384356Y380829D01*
X383744Y381744D01*
X382829Y382355D01*
X381750Y382570D01*
X371250D01*
X370171Y382355D01*
X369348Y381805D01*
X361352D01*
X356880Y386277D01*
X358166Y389234D01*
X359495Y389234D01*
X367984D01*
X368516Y389234D01*
X370984D01*
X371516Y389234D01*
X382516D01*
Y394194D01*
X388234D01*
Y391734D01*
X398766D01*
Y400766D01*
X395555D01*
Y527281D01*
X395555Y527281D01*
X395399Y528068D01*
X394953Y528735D01*
X351454Y572234D01*
X352697Y575234D01*
X357516D01*
Y575685D01*
X362984D01*
Y575234D01*
X363859D01*
X364234Y574859D01*
X365704Y574250D01*
X367296D01*
X368766Y574859D01*
X369141Y575234D01*
X370016D01*
Y576286D01*
X370500Y577454D01*
Y579046D01*
X370016Y580214D01*
Y581266D01*
X369141D01*
X368766Y581641D01*
X367296Y582250D01*
X365704D01*
X364234Y581641D01*
X363859Y581266D01*
X362984D01*
Y580815D01*
X357516D01*
Y581266D01*
X350484D01*
Y577447D01*
X347484Y576204D01*
X329305Y594383D01*
Y609045D01*
X332279Y610314D01*
X341796Y600797D01*
X341796Y600797D01*
X342463Y600351D01*
X343250Y600195D01*
X343250Y600195D01*
X421045D01*
X422288Y597195D01*
X413546Y588453D01*
X413101Y587787D01*
X412944Y587000D01*
X412944Y587000D01*
Y580478D01*
X412734Y580391D01*
X411609Y579266D01*
X411000Y577796D01*
Y576204D01*
X411609Y574734D01*
X412734Y573609D01*
X414204Y573000D01*
X415796D01*
X417266Y573609D01*
X418391Y574734D01*
X419000Y576204D01*
X419184Y577817D01*
X420796Y578000D01*
X422266Y578609D01*
X423391Y579734D01*
X423478Y579944D01*
X458649D01*
X554695Y483899D01*
Y470766D01*
X542484D01*
Y457234D01*
X554695D01*
Y441735D01*
X554016Y439016D01*
X551695Y439016D01*
X543484D01*
Y429484D01*
X551030Y429484D01*
X552042Y427750D01*
X551030Y426017D01*
X543484D01*
Y416484D01*
X544841D01*
X545359Y415234D01*
X546484Y414109D01*
X547954Y413500D01*
X549546D01*
X551016Y414109D01*
X551695Y414788D01*
X553806Y414343D01*
X554665Y413884D01*
X554695Y413765D01*
Y401985D01*
X554016Y399266D01*
X551695Y399266D01*
X543984D01*
Y387734D01*
X552821Y387734D01*
X554170Y384798D01*
X553056Y382570D01*
X547250D01*
X546171Y382355D01*
X545256Y381744D01*
X544645Y380829D01*
X544430Y379750D01*
X544645Y378671D01*
X544877Y378324D01*
X545256Y377600D01*
Y375400D01*
X544877Y374676D01*
X544645Y374329D01*
X544430Y373250D01*
X544645Y372170D01*
X544876Y371824D01*
X545256Y371100D01*
Y368899D01*
X544876Y368176D01*
X544645Y367829D01*
X544430Y366750D01*
X544645Y365671D01*
X544817Y365412D01*
X544824Y365399D01*
X544043Y363134D01*
X543496Y362401D01*
X539116D01*
Y364116D01*
X537555D01*
Y369634D01*
X539116D01*
Y376866D01*
X537556D01*
Y387734D01*
X540516D01*
Y399266D01*
X530484D01*
Y387734D01*
X533445D01*
Y376866D01*
X531884D01*
Y369634D01*
X533444D01*
Y364116D01*
X531884D01*
Y356884D01*
X539116D01*
Y358290D01*
X545233D01*
X545256Y358256D01*
X546171Y357644D01*
X547250Y357430D01*
X557750D01*
X558829Y357644D01*
X559744Y358256D01*
X560356Y359171D01*
X560570Y360250D01*
X560356Y361329D01*
X560183Y361587D01*
X560146Y361803D01*
X560748Y363693D01*
X561441Y364694D01*
X565000D01*
X565000Y364694D01*
X565786Y364851D01*
X566453Y365296D01*
X571203Y370047D01*
X571203Y370047D01*
X571649Y370713D01*
X571805Y371500D01*
Y386053D01*
X574760Y386787D01*
X574805Y386788D01*
X583297Y378297D01*
X583297Y378297D01*
X583963Y377851D01*
X584750Y377694D01*
X584750Y377694D01*
X599560D01*
X600253Y376692D01*
X600854Y374803D01*
X600817Y374588D01*
X600644Y374329D01*
X600430Y373250D01*
X600644Y372170D01*
X601256Y371255D01*
X602171Y370644D01*
X603250Y370429D01*
X613750D01*
X614829Y370644D01*
X615033Y370780D01*
X620884D01*
Y369884D01*
X622777D01*
X623704Y369500D01*
X625296D01*
X626223Y369884D01*
X628116D01*
Y371777D01*
X628500Y372704D01*
Y374296D01*
X628116Y375223D01*
Y377116D01*
X626223D01*
X625296Y377500D01*
X623704D01*
X622777Y377116D01*
X620884D01*
Y375910D01*
X617971D01*
X616439Y378528D01*
X616403Y378910D01*
X616570Y379750D01*
X616356Y380829D01*
X615744Y381744D01*
X614829Y382355D01*
X613750Y382570D01*
X603250D01*
X602171Y382355D01*
X601348Y381805D01*
X585602D01*
X578306Y389101D01*
Y487500D01*
X578306Y487500D01*
X578149Y488287D01*
X577704Y488954D01*
X577703Y488954D01*
X469462Y597195D01*
X470705Y600195D01*
X491649D01*
X623445Y468399D01*
Y400766D01*
X620234D01*
Y397556D01*
X614516D01*
Y401766D01*
X603516D01*
X602984Y401766D01*
X600516D01*
X599984Y401766D01*
X588984D01*
Y389234D01*
X599984D01*
X600516Y389234D01*
X602984D01*
X603516Y389234D01*
X614516D01*
Y393445D01*
X620234D01*
Y391734D01*
X630766D01*
Y400766D01*
X627556D01*
Y469250D01*
X627399Y470037D01*
X626954Y470704D01*
X626953Y470704D01*
X527028Y570629D01*
X528047Y572977D01*
X528455Y573445D01*
X577984D01*
Y570234D01*
X577984D01*
X577984Y568266D01*
X577984D01*
Y557734D01*
X587516D01*
Y567441D01*
X587516Y568266D01*
X587516Y568266D01*
X587016Y570234D01*
X587016Y570234D01*
Y580766D01*
X577984D01*
Y577556D01*
X529101D01*
X497212Y609445D01*
X497213Y609490D01*
X497947Y612445D01*
X498250D01*
X498250Y612444D01*
X499037Y612601D01*
X499703Y613047D01*
X547453Y660797D01*
X547899Y661463D01*
X548055Y662250D01*
X548055Y662250D01*
Y696484D01*
X551266D01*
Y706016D01*
X540734D01*
Y706016D01*
X538266Y706516D01*
X538266Y706516D01*
X537941Y706516D01*
X528734D01*
Y695984D01*
X537941D01*
X538266Y695984D01*
X538266Y695984D01*
X540734Y696484D01*
Y696484D01*
X543945D01*
Y663101D01*
X497399Y616556D01*
X457197D01*
X456463Y619510D01*
X456463Y619556D01*
X475641Y638734D01*
X482266D01*
Y638734D01*
X483234D01*
Y638734D01*
X492766D01*
Y649266D01*
X483234D01*
Y649266D01*
X482266D01*
Y649266D01*
X472734D01*
Y641641D01*
X454149Y623055D01*
X420697D01*
X419963Y626010D01*
X419963Y626055D01*
X478351Y684445D01*
X491342D01*
X492734Y681444D01*
Y681234D01*
X492734Y681234D01*
X493234Y679228D01*
X493234Y679228D01*
Y668696D01*
X502266D01*
Y679228D01*
X502266D01*
X502266Y681234D01*
X502266D01*
Y684982D01*
X505266Y686586D01*
X505734Y686273D01*
Y681234D01*
X515266D01*
Y691766D01*
X508641D01*
X506055Y694351D01*
Y708484D01*
X515266D01*
Y715609D01*
X524352Y724695D01*
X607299D01*
X622008Y709985D01*
X621549Y709191D01*
X621030Y707253D01*
Y705247D01*
X621549Y703309D01*
X622552Y701571D01*
X623971Y700153D01*
X625709Y699149D01*
X627647Y698630D01*
X629653D01*
X631591Y699149D01*
X633329Y700153D01*
X634748Y701571D01*
X635751Y703309D01*
X636270Y705247D01*
Y707253D01*
X635751Y709191D01*
X634748Y710929D01*
X633329Y712347D01*
X631591Y713351D01*
X629653Y713870D01*
X627647D01*
X625709Y713351D01*
X624915Y712892D01*
X610363Y727445D01*
X611433Y730436D01*
X611440Y730444D01*
X655999D01*
X679187Y707256D01*
X679100Y707046D01*
Y705454D01*
X679709Y703984D01*
X679888Y703805D01*
X678645Y700806D01*
X653500D01*
X652713Y700649D01*
X652047Y700203D01*
X652047Y700203D01*
X644796Y692953D01*
X644351Y692287D01*
X644194Y691500D01*
X644194Y691500D01*
Y650266D01*
X640984D01*
Y641234D01*
X651516D01*
Y650266D01*
X648305D01*
Y690648D01*
X654351Y696694D01*
X686000D01*
X686000Y696694D01*
X686787Y696851D01*
X687454Y697297D01*
X706703Y716546D01*
X706703Y716546D01*
X707149Y717213D01*
X707306Y718000D01*
X707306Y718000D01*
Y821250D01*
X707306Y821250D01*
X707149Y822037D01*
X706703Y822703D01*
X706703Y822703D01*
X684704Y844704D01*
X684037Y845149D01*
X683250Y845305D01*
X683250Y845305D01*
X397351D01*
X361203Y881453D01*
X360537Y881899D01*
X359750Y882056D01*
X359750Y882056D01*
X281750D01*
X281750Y882056D01*
X280963Y881899D01*
X280296Y881453D01*
X280296Y881453D01*
X277547Y878704D01*
X277101Y878037D01*
X276945Y877250D01*
X276945Y877250D01*
Y854851D01*
X255006Y832913D01*
X254796Y833000D01*
X253204D01*
X251734Y832391D01*
X250609Y831266D01*
X250000Y829796D01*
Y828204D01*
X250609Y826734D01*
X251734Y825609D01*
X253204Y825000D01*
X254796D01*
X256266Y825609D01*
X257391Y826734D01*
X258000Y828204D01*
Y829796D01*
X257913Y830006D01*
X278984Y851077D01*
X281984Y849834D01*
Y845134D01*
X284195D01*
Y790132D01*
X281423Y788984D01*
X222556Y847851D01*
Y870500D01*
X222556Y870500D01*
X222556Y870500D01*
Y878434D01*
X225266D01*
Y888966D01*
X225266D01*
X225266Y890984D01*
X225266D01*
Y901516D01*
X215734D01*
Y890984D01*
X215734D01*
X215734Y888966D01*
X215734D01*
Y878434D01*
X218444D01*
Y872555D01*
X211064D01*
Y874116D01*
X203832D01*
Y866884D01*
X211064D01*
Y868445D01*
X218444D01*
Y850955D01*
X215445Y849712D01*
X210954Y854203D01*
X210287Y854649D01*
X209500Y854806D01*
X209500Y854806D01*
X187101D01*
X173305Y868602D01*
Y878484D01*
X176016D01*
Y889016D01*
X176016D01*
X176016Y890984D01*
X176016D01*
Y901516D01*
D02*
G37*
G36*
X869345Y725738D02*
X839779D01*
Y696172D01*
X869345D01*
Y725738D01*
D02*
G37*
G36*
X800900D02*
X797988D01*
X795132Y725170D01*
X792441Y724056D01*
X790020Y722438D01*
X787961Y720379D01*
X786343Y717958D01*
X785229Y715267D01*
X784661Y712411D01*
Y709499D01*
X785229Y706643D01*
X786343Y703953D01*
X787961Y701532D01*
X790020Y699473D01*
X792441Y697855D01*
X795132Y696740D01*
X797988Y696172D01*
X800900D01*
X803756Y696740D01*
X806446Y697855D01*
X808867Y699473D01*
X810926Y701532D01*
X812544Y703953D01*
X813659Y706643D01*
X814227Y709499D01*
Y712411D01*
X813659Y715267D01*
X812544Y717958D01*
X810926Y720379D01*
X808867Y722438D01*
X806446Y724056D01*
X803756Y725170D01*
X800900Y725738D01*
D02*
G37*
G36*
X330796Y737750D02*
X329204D01*
X327734Y737141D01*
X326609Y736016D01*
X326000Y734546D01*
Y732954D01*
X326609Y731484D01*
X327734Y730359D01*
X329204Y729750D01*
X330796D01*
X331006Y729837D01*
X358195Y702649D01*
Y699228D01*
X357984Y699141D01*
X356859Y698016D01*
X356250Y696546D01*
Y694954D01*
X356859Y693484D01*
X357984Y692359D01*
X359454Y691750D01*
X361046D01*
X362516Y692359D01*
X363641Y693484D01*
X364250Y694954D01*
Y696546D01*
X363641Y698016D01*
X362516Y699141D01*
X362305Y699228D01*
Y703500D01*
X362149Y704287D01*
X361703Y704954D01*
X333913Y732744D01*
X334000Y732954D01*
Y734546D01*
X333391Y736016D01*
X332266Y737141D01*
X330796Y737750D01*
D02*
G37*
G36*
X262296Y699750D02*
X260704D01*
X259234Y699141D01*
X258859Y698766D01*
X257984D01*
Y697714D01*
X257500Y696546D01*
Y694954D01*
X257984Y693786D01*
Y692734D01*
X258859D01*
X259234Y692359D01*
X260704Y691750D01*
X262296D01*
X263766Y692359D01*
X264141Y692734D01*
X265016D01*
Y693786D01*
X265500Y694954D01*
Y696546D01*
X265016Y697714D01*
Y698766D01*
X264141D01*
X263766Y699141D01*
X262296Y699750D01*
D02*
G37*
G36*
X318516Y682916D02*
X306984D01*
Y672884D01*
X318516D01*
Y682916D01*
D02*
G37*
G36*
X929182Y707486D02*
X925738D01*
X922359Y706814D01*
X919177Y705496D01*
X916313Y703583D01*
X913877Y701147D01*
X911964Y698283D01*
X910646Y695101D01*
X909974Y691722D01*
Y688278D01*
X910646Y684900D01*
X911964Y681718D01*
X913877Y678854D01*
X916313Y676418D01*
X919177Y674504D01*
X922359Y673186D01*
X925738Y672514D01*
X929182D01*
X932560Y673186D01*
X935742Y674504D01*
X938606Y676418D01*
X941042Y678854D01*
X942956Y681718D01*
X944274Y684900D01*
X944946Y688278D01*
Y691722D01*
X944274Y695101D01*
X942956Y698283D01*
X941042Y701147D01*
X938606Y703583D01*
X935742Y705496D01*
X932560Y706814D01*
X929182Y707486D01*
D02*
G37*
G36*
X534497Y674270D02*
X532003D01*
X529698Y673315D01*
X527935Y671552D01*
X526980Y669247D01*
Y666753D01*
X527935Y664448D01*
X529698Y662685D01*
X532003Y661730D01*
X534497D01*
X536802Y662685D01*
X538565Y664448D01*
X539520Y666753D01*
Y669247D01*
X538565Y671552D01*
X536802Y673315D01*
X534497Y674270D01*
D02*
G37*
G36*
X303616Y678866D02*
X296384D01*
Y671634D01*
X297945D01*
Y666116D01*
X296384D01*
Y658884D01*
X297945D01*
Y637750D01*
X297945Y637750D01*
X298101Y636963D01*
X298547Y636297D01*
X302201Y632642D01*
X302201Y632642D01*
X302868Y632197D01*
X303654Y632040D01*
X303654Y632040D01*
X306233D01*
X306256Y632006D01*
X307171Y631395D01*
X308250Y631180D01*
X318750D01*
X319829Y631395D01*
X320744Y632006D01*
X321356Y632921D01*
X321570Y634000D01*
X321356Y635079D01*
X321183Y635338D01*
X321146Y635553D01*
X321747Y637443D01*
X322440Y638445D01*
X326522D01*
X326609Y638234D01*
X327734Y637109D01*
X329204Y636500D01*
X330796D01*
X332266Y637109D01*
X333391Y638234D01*
X334000Y639704D01*
Y640085D01*
X334061Y640948D01*
X335248Y642353D01*
X336221Y643176D01*
X337266Y643609D01*
X338391Y644734D01*
X339000Y646204D01*
Y646585D01*
X339061Y647448D01*
X340248Y648853D01*
X341221Y649676D01*
X342266Y650109D01*
X343391Y651234D01*
X344000Y652704D01*
Y654296D01*
X343391Y655766D01*
X342266Y656891D01*
X340796Y657500D01*
X339204D01*
X337734Y656891D01*
X336609Y655766D01*
X336522Y655556D01*
X320652D01*
X319829Y656105D01*
X318750Y656320D01*
X308250D01*
X307171Y656105D01*
X306256Y655494D01*
X305644Y654579D01*
X305430Y653500D01*
X305644Y652421D01*
X305817Y652162D01*
X306256Y651334D01*
Y649166D01*
X305817Y648338D01*
X305644Y648079D01*
X305430Y647000D01*
X305644Y645921D01*
X305817Y645662D01*
X306256Y644834D01*
Y642666D01*
X305817Y641838D01*
X305644Y641579D01*
X305528Y640992D01*
X303898Y639814D01*
X303093Y639453D01*
X302055Y640096D01*
Y658884D01*
X303616D01*
Y661395D01*
X306984D01*
Y659384D01*
X318516D01*
Y669416D01*
X306984D01*
Y665506D01*
X303616D01*
Y666116D01*
X302055D01*
Y671634D01*
X303616D01*
Y678866D01*
D02*
G37*
G36*
X704766Y691766D02*
X695234D01*
Y681234D01*
X700247D01*
X700351Y680713D01*
X700797Y680046D01*
X710134Y670709D01*
Y659384D01*
X721266D01*
Y673616D01*
X713041D01*
X704766Y681891D01*
Y691766D01*
D02*
G37*
G36*
X629653Y674120D02*
X627647D01*
X625709Y673601D01*
X623971Y672598D01*
X622552Y671179D01*
X621549Y669441D01*
X621030Y667503D01*
Y665497D01*
X621549Y663559D01*
X622552Y661821D01*
X623971Y660403D01*
X625709Y659399D01*
X627647Y658880D01*
X629653D01*
X631591Y659399D01*
X633329Y660403D01*
X634748Y661821D01*
X635751Y663559D01*
X636270Y665497D01*
Y667503D01*
X635751Y669441D01*
X634748Y671179D01*
X633329Y672598D01*
X631591Y673601D01*
X629653Y674120D01*
D02*
G37*
G36*
X261855Y679250D02*
X260263D01*
X259095Y678766D01*
X258043D01*
Y677891D01*
X257668Y677516D01*
X257059Y676046D01*
Y674454D01*
X257668Y672984D01*
X257708Y672944D01*
Y666128D01*
X255681D01*
Y657372D01*
X264866D01*
Y666128D01*
X262839D01*
Y671657D01*
X263023Y671734D01*
X264075D01*
Y672609D01*
X264450Y672984D01*
X265059Y674454D01*
Y676046D01*
X264450Y677516D01*
X264075Y677891D01*
Y678766D01*
X263023D01*
X261855Y679250D01*
D02*
G37*
G36*
X185980Y713421D02*
X180520D01*
X178636Y713047D01*
X177040Y711980D01*
X175973Y710383D01*
X175598Y708500D01*
X175973Y706617D01*
X177040Y705020D01*
X178636Y703953D01*
X180520Y703579D01*
X184435D01*
Y681795D01*
X182693Y681449D01*
X180006Y680335D01*
X177587Y678719D01*
X175530Y676663D01*
X173915Y674244D01*
X172801Y671557D01*
X172234Y668704D01*
Y665796D01*
X172801Y662943D01*
X173915Y660256D01*
X175530Y657837D01*
X177587Y655780D01*
X180006Y654165D01*
X182693Y653051D01*
X185546Y652484D01*
X188454D01*
X191307Y653051D01*
X193994Y654165D01*
X196413Y655780D01*
X198470Y657837D01*
X200085Y660256D01*
X201199Y662943D01*
X201766Y665796D01*
Y668704D01*
X201199Y671557D01*
X200085Y674244D01*
X198470Y676663D01*
X196413Y678719D01*
X193994Y680335D01*
X191307Y681449D01*
X189565Y681795D01*
Y705177D01*
X190527Y706617D01*
X190902Y708500D01*
X190527Y710383D01*
X189460Y711980D01*
X187864Y713047D01*
X185980Y713421D01*
D02*
G37*
G36*
X370296Y675250D02*
X368704D01*
X368139Y675016D01*
X365734D01*
Y672611D01*
X365500Y672046D01*
Y670454D01*
X365734Y669889D01*
X365734Y666750D01*
X365734Y664484D01*
Y658484D01*
X363889Y656248D01*
X363171Y656105D01*
X362256Y655494D01*
X361645Y654579D01*
X361430Y653500D01*
X361488Y653207D01*
X359695Y650451D01*
X357444Y650213D01*
X357266Y650391D01*
X355796Y651000D01*
X354204D01*
X352734Y650391D01*
X351609Y649266D01*
X351000Y647796D01*
Y646204D01*
X351609Y644734D01*
X352734Y643609D01*
X354204Y643000D01*
X355796D01*
X357266Y643609D01*
X358092Y644435D01*
X363111D01*
X363171Y644395D01*
X364250Y644180D01*
X374750D01*
X375829Y644395D01*
X375889Y644435D01*
X382884D01*
Y643384D01*
X390116D01*
Y650616D01*
X382884D01*
Y649565D01*
X378829D01*
X377374Y652386D01*
X377384Y652565D01*
X377570Y653500D01*
X377355Y654579D01*
X376744Y655494D01*
X375829Y656105D01*
X375111Y656248D01*
X373266Y658484D01*
Y664484D01*
X373266Y666016D01*
X373266Y669889D01*
X373500Y670454D01*
Y672046D01*
X373266Y672611D01*
Y675016D01*
X370861D01*
X370296Y675250D01*
D02*
G37*
G36*
X507247Y650270D02*
X504753D01*
X502448Y649315D01*
X502399Y649266D01*
X496234D01*
Y638734D01*
X502399D01*
X502448Y638685D01*
X504753Y637730D01*
X507247D01*
X509552Y638685D01*
X511315Y640448D01*
X512270Y642753D01*
Y645247D01*
X511315Y647552D01*
X509552Y649315D01*
X507247Y650270D01*
D02*
G37*
G36*
X688566Y673616D02*
X677434D01*
Y659384D01*
X680945D01*
Y648601D01*
X678859Y646516D01*
X672234D01*
Y635984D01*
X681766D01*
Y643609D01*
X684453Y646296D01*
X684453Y646296D01*
X684899Y646963D01*
X685055Y647750D01*
X685055Y647750D01*
Y659384D01*
X688566D01*
Y673616D01*
D02*
G37*
G36*
X656546Y690000D02*
X654954D01*
X653484Y689391D01*
X652359Y688266D01*
X651750Y686796D01*
Y685204D01*
X652359Y683734D01*
X653484Y682609D01*
X654954Y682000D01*
X656546D01*
X656756Y682087D01*
X661944Y676899D01*
Y646516D01*
X659234D01*
Y635984D01*
X659251D01*
X660444Y633230D01*
X658877Y631266D01*
X652234Y631266D01*
X651516Y633969D01*
Y637766D01*
X640984D01*
Y635305D01*
X622621D01*
X619587Y638340D01*
X619921Y640020D01*
Y645480D01*
X619547Y647364D01*
X618480Y648960D01*
X616883Y650027D01*
X615000Y650402D01*
X613117Y650027D01*
X611520Y648960D01*
X610453Y647364D01*
X610079Y645480D01*
Y640020D01*
X610453Y638136D01*
X611520Y636540D01*
X613117Y635473D01*
X615000Y635098D01*
X616680Y635433D01*
X620316Y631797D01*
X620316Y631796D01*
X620983Y631351D01*
X621770Y631194D01*
X621770Y631194D01*
X639543D01*
X640748Y628195D01*
X640234Y627016D01*
X640234D01*
X640234Y626045D01*
Y616484D01*
X649766D01*
Y617450D01*
X652234Y618734D01*
X661197Y618734D01*
X661197D01*
X662014Y618734D01*
X662256Y618711D01*
X662573Y618607D01*
X664655Y617662D01*
X664897Y616804D01*
Y608516D01*
X659234D01*
Y597984D01*
X662553D01*
X663234Y595266D01*
X663234D01*
Y591008D01*
X601362D01*
X598766Y591984D01*
X598766Y594516D01*
X598766Y598016D01*
X598766Y601016D01*
Y604516D01*
X588734D01*
X588734Y598484D01*
X588734Y595484D01*
X588734Y591984D01*
X588734Y588984D01*
Y585484D01*
X598766D01*
Y586898D01*
X637907D01*
X638711Y583898D01*
X637758Y583348D01*
X636340Y581929D01*
X635336Y580191D01*
X634817Y578253D01*
Y576247D01*
X635336Y574309D01*
X635795Y573515D01*
X627336Y565056D01*
X600516D01*
Y568266D01*
X590984D01*
Y557734D01*
X600516D01*
Y560945D01*
X628187D01*
X628187Y560945D01*
X628974Y561101D01*
X629641Y561547D01*
X638702Y570608D01*
X639496Y570149D01*
X641434Y569630D01*
X643440D01*
X645378Y570149D01*
X647116Y571152D01*
X648535Y572571D01*
X649538Y574309D01*
X650057Y576247D01*
Y578253D01*
X649538Y580191D01*
X648535Y581929D01*
X647116Y583348D01*
X646163Y583898D01*
X646967Y586898D01*
X663234D01*
Y585734D01*
X672945D01*
X673766Y585734D01*
X675945Y583752D01*
Y566101D01*
X671006Y561163D01*
X670796Y561250D01*
X669204D01*
X667734Y560641D01*
X666609Y559516D01*
X666000Y558046D01*
Y556454D01*
X666609Y554984D01*
X667734Y553859D01*
X669204Y553250D01*
X670796D01*
X672266Y553859D01*
X673391Y554984D01*
X674000Y556454D01*
Y558046D01*
X673913Y558256D01*
X679454Y563797D01*
X679454Y563797D01*
X679899Y564464D01*
X680056Y565250D01*
Y597234D01*
X682766D01*
Y607766D01*
X680056D01*
Y612234D01*
X681266D01*
X681266Y618266D01*
X681266Y621266D01*
Y624766D01*
X671234D01*
Y623306D01*
X669750D01*
X668964Y623149D01*
X668297Y622704D01*
X668297Y622704D01*
X666083Y620490D01*
X665499Y619906D01*
X664992Y619598D01*
X664991Y619598D01*
X662266Y621698D01*
X662266Y621708D01*
X662266Y624766D01*
X662266Y628359D01*
X665453Y631547D01*
X665453Y631547D01*
X665899Y632214D01*
X666056Y633000D01*
X666055Y633000D01*
Y635984D01*
X668766D01*
Y646516D01*
X666055D01*
Y677750D01*
X666056Y677750D01*
X665899Y678537D01*
X665453Y679203D01*
X659663Y684994D01*
X659750Y685204D01*
Y686796D01*
X659141Y688266D01*
X658016Y689391D01*
X656546Y690000D01*
D02*
G37*
G36*
X719426Y637270D02*
X717834D01*
X716364Y636661D01*
X715239Y635536D01*
X714630Y634066D01*
Y632474D01*
X715239Y631004D01*
X716364Y629879D01*
X717834Y629270D01*
X719426D01*
X720896Y629879D01*
X722021Y631004D01*
X722630Y632474D01*
Y634066D01*
X722021Y635536D01*
X720896Y636661D01*
X719426Y637270D01*
D02*
G37*
G36*
X702426D02*
X700834D01*
X699364Y636661D01*
X698239Y635536D01*
X697630Y634066D01*
Y632474D01*
X698239Y631004D01*
X699364Y629879D01*
X700834Y629270D01*
X702426D01*
X703896Y629879D01*
X705021Y631004D01*
X705630Y632474D01*
Y634066D01*
X705021Y635536D01*
X703896Y636661D01*
X702426Y637270D01*
D02*
G37*
G36*
X607229Y630770D02*
X604734D01*
X602430Y629815D01*
X600666Y628052D01*
X599711Y625747D01*
Y623253D01*
X600666Y620948D01*
X602430Y619185D01*
X604734Y618230D01*
X607229D01*
X609533Y619185D01*
X611297Y620948D01*
X612251Y623253D01*
Y625747D01*
X611297Y628052D01*
X609533Y629815D01*
X607229Y630770D01*
D02*
G37*
G36*
X31516Y802266D02*
X21484D01*
Y793641D01*
X14030Y786187D01*
X13585Y785520D01*
X13428Y784734D01*
X13428Y784734D01*
Y683501D01*
X13428Y683501D01*
X13585Y682714D01*
X14030Y682047D01*
X53297Y642781D01*
X53297Y642781D01*
X53964Y642335D01*
X54751Y642178D01*
X54751Y642178D01*
X139444D01*
X140041Y639179D01*
X138006Y638335D01*
X135587Y636720D01*
X133531Y634663D01*
X131915Y632244D01*
X130801Y629557D01*
X130234Y626704D01*
Y623796D01*
X130801Y620943D01*
X131915Y618256D01*
X133531Y615837D01*
X135587Y613781D01*
X138006Y612165D01*
X140693Y611051D01*
X143546Y610484D01*
X146454D01*
X149307Y611051D01*
X151994Y612165D01*
X154413Y613781D01*
X156469Y615837D01*
X158085Y618256D01*
X159199Y620943D01*
X159766Y623796D01*
Y626704D01*
X159199Y629557D01*
X158085Y632244D01*
X156469Y634663D01*
X154413Y636720D01*
X151994Y638335D01*
X149959Y639179D01*
X150556Y642178D01*
X181444D01*
X182041Y639179D01*
X180006Y638335D01*
X177587Y636720D01*
X175530Y634663D01*
X173915Y632244D01*
X172801Y629557D01*
X172234Y626704D01*
Y623796D01*
X172801Y620943D01*
X173915Y618256D01*
X175530Y615837D01*
X177587Y613781D01*
X180006Y612165D01*
X182693Y611051D01*
X185546Y610484D01*
X188454D01*
X191307Y611051D01*
X193994Y612165D01*
X196413Y613781D01*
X198470Y615837D01*
X200085Y618256D01*
X201199Y620943D01*
X201766Y623796D01*
Y626704D01*
X201199Y629557D01*
X200085Y632244D01*
X198470Y634663D01*
X196413Y636720D01*
X193994Y638335D01*
X191959Y639179D01*
X192556Y642178D01*
X195915D01*
X215087Y623006D01*
X215000Y622796D01*
Y621204D01*
X215609Y619734D01*
X216734Y618609D01*
X218204Y618000D01*
X219796D01*
X221266Y618609D01*
X222391Y619734D01*
X223000Y621204D01*
Y622796D01*
X222391Y624266D01*
X221266Y625391D01*
X220098Y625875D01*
X219940Y627375D01*
X220098Y628875D01*
X221266Y629359D01*
X222391Y630484D01*
X223000Y631954D01*
Y633546D01*
X222391Y635016D01*
X221266Y636141D01*
X219796Y636750D01*
X218204D01*
X217994Y636663D01*
X205954Y648704D01*
X205287Y649149D01*
X204500Y649305D01*
X204500Y649305D01*
X82043D01*
X81133Y652306D01*
X83156Y653657D01*
X85593Y656094D01*
X87508Y658961D01*
X88827Y662145D01*
X89500Y665526D01*
Y668974D01*
X88827Y672355D01*
X87508Y675539D01*
X85593Y678406D01*
X83156Y680843D01*
X80289Y682758D01*
X77105Y684078D01*
X73724Y684750D01*
X70276D01*
X66895Y684078D01*
X63711Y682758D01*
X60844Y680843D01*
X58407Y678406D01*
X56492Y675539D01*
X55173Y672355D01*
X54500Y668974D01*
Y665526D01*
X55173Y662145D01*
X56492Y658961D01*
X58407Y656094D01*
X60844Y653657D01*
X62867Y652306D01*
X61957Y649305D01*
X56851D01*
X20556Y685601D01*
Y773399D01*
X24391Y777234D01*
X31516D01*
Y788766D01*
X31516D01*
X31516Y790734D01*
X31516D01*
X31516Y791766D01*
Y802266D01*
D02*
G37*
G36*
X261758Y608959D02*
X260167D01*
X258697Y608350D01*
X258322Y607975D01*
X257447D01*
Y606923D01*
X257387Y606780D01*
X251729D01*
Y608807D01*
X242972D01*
Y599622D01*
X251729D01*
Y601649D01*
X254732D01*
X257591Y598649D01*
X257584Y598516D01*
D01*
X257100Y596296D01*
Y594704D01*
X257584Y593536D01*
Y592484D01*
X258459D01*
X258834Y592109D01*
X260305Y591500D01*
X261896D01*
X263366Y592109D01*
X263741Y592484D01*
X264616D01*
Y593536D01*
X264741Y593837D01*
X270222D01*
Y591693D01*
X278979D01*
Y594337D01*
X284084D01*
Y592984D01*
X292084Y592984D01*
X293136Y592984D01*
X294305Y592500D01*
X295896D01*
X297064Y592984D01*
X298116D01*
Y593859D01*
X298491Y594234D01*
X299100Y595704D01*
Y597296D01*
X298491Y598766D01*
X298116Y599141D01*
Y600016D01*
X297064D01*
X295896Y600500D01*
X294305D01*
X293136Y600016D01*
X290116Y600016D01*
X289040Y600016D01*
X284084D01*
Y598448D01*
X278979D01*
Y600878D01*
X270222D01*
Y597948D01*
X265598D01*
X263925Y600284D01*
X264479Y601943D01*
D01*
X264963Y604163D01*
Y605755D01*
X264479Y606923D01*
Y607975D01*
X263603D01*
X263228Y608350D01*
X261758Y608959D01*
D02*
G37*
G36*
X619827Y613807D02*
X610173D01*
Y598693D01*
X619827D01*
Y601194D01*
X646734D01*
Y597984D01*
X655766D01*
Y608516D01*
X646734D01*
Y605305D01*
X619827D01*
Y613807D01*
D02*
G37*
G36*
X560266Y604766D02*
X549734D01*
Y595234D01*
X556859D01*
X558546Y593547D01*
X559213Y593101D01*
X560000Y592944D01*
X560000Y592944D01*
X569734D01*
Y591984D01*
X579766D01*
X579766Y598016D01*
X579766Y601016D01*
Y604516D01*
X569734D01*
X569734Y598484D01*
X567326Y597056D01*
X560851D01*
X560266Y597641D01*
Y604766D01*
D02*
G37*
G36*
X869766Y617766D02*
X840234D01*
Y588234D01*
X869766D01*
Y617766D01*
D02*
G37*
G36*
X814454D02*
X811546D01*
X808693Y617198D01*
X806006Y616085D01*
X803587Y614469D01*
X801531Y612413D01*
X799915Y609994D01*
X798802Y607307D01*
X798234Y604454D01*
Y601546D01*
X798802Y598693D01*
X799915Y596006D01*
X801531Y593587D01*
X803587Y591530D01*
X806006Y589915D01*
X808693Y588801D01*
X811546Y588234D01*
X814454D01*
X817307Y588801D01*
X819995Y589915D01*
X822413Y591530D01*
X824470Y593587D01*
X826086Y596006D01*
X827199Y598693D01*
X827766Y601546D01*
Y604454D01*
X827199Y607307D01*
X826086Y609994D01*
X824470Y612413D01*
X822413Y614469D01*
X819995Y616085D01*
X817307Y617198D01*
X814454Y617766D01*
D02*
G37*
G36*
X929724Y620500D02*
X926277D01*
X922896Y619827D01*
X919711Y618508D01*
X916845Y616593D01*
X914407Y614156D01*
X912492Y611289D01*
X911173Y608105D01*
X910500Y604724D01*
Y601276D01*
X911173Y597895D01*
X912492Y594711D01*
X914407Y591844D01*
X916845Y589407D01*
X919711Y587492D01*
X922896Y586172D01*
X926277Y585500D01*
X929724D01*
X933105Y586172D01*
X936290Y587492D01*
X939156Y589407D01*
X941593Y591844D01*
X943509Y594711D01*
X944828Y597895D01*
X945500Y601276D01*
Y604724D01*
X944828Y608105D01*
X943509Y611289D01*
X941593Y614156D01*
X939156Y616593D01*
X936290Y618508D01*
X933105Y619827D01*
X929724Y620500D01*
D02*
G37*
G36*
X379796Y582250D02*
X378204D01*
X376734Y581641D01*
X376359Y581266D01*
X375484D01*
Y580214D01*
X375000Y579046D01*
Y577454D01*
X375484Y576286D01*
Y575234D01*
X376359D01*
X376734Y574859D01*
X378204Y574250D01*
X379796D01*
X381266Y574859D01*
X381641Y575234D01*
X382516D01*
Y576286D01*
X383000Y577454D01*
Y579046D01*
X382516Y580214D01*
Y581266D01*
X381641D01*
X381266Y581641D01*
X379796Y582250D01*
D02*
G37*
G36*
X266046Y582250D02*
X264454D01*
X262984Y581641D01*
X262609Y581266D01*
X261734D01*
Y580214D01*
X261250Y579046D01*
Y577454D01*
X261734Y576286D01*
Y575234D01*
X262609D01*
X262984Y574859D01*
X264454Y574250D01*
X266046D01*
X267516Y574859D01*
X267891Y575234D01*
X268766D01*
Y576286D01*
X269250Y577454D01*
Y579046D01*
X268766Y580214D01*
Y581266D01*
X267891D01*
X267516Y581641D01*
X266046Y582250D01*
D02*
G37*
G36*
X695766Y607766D02*
X686234D01*
Y597234D01*
X693359D01*
X694882Y595711D01*
Y584366D01*
X691371D01*
Y570134D01*
X702503D01*
Y584366D01*
X698993D01*
Y596562D01*
X698993Y596563D01*
X698836Y597349D01*
X698391Y598016D01*
X698391Y598016D01*
X695766Y600641D01*
Y607766D01*
D02*
G37*
G36*
X188454Y598016D02*
X185546D01*
X182693Y597449D01*
X180006Y596335D01*
X177587Y594720D01*
X175530Y592663D01*
X173915Y590244D01*
X172801Y587557D01*
X172234Y584704D01*
Y581796D01*
X172801Y578943D01*
X173915Y576256D01*
X174324Y575644D01*
X164015Y565335D01*
X121500D01*
X120128Y565062D01*
X119835Y564866D01*
X116984D01*
Y558634D01*
X119835D01*
X120128Y558438D01*
X121500Y558165D01*
X165500D01*
X166872Y558438D01*
X168035Y559215D01*
X179393Y570574D01*
X180006Y570165D01*
X182693Y569052D01*
X185546Y568484D01*
X188454D01*
X191307Y569052D01*
X193994Y570165D01*
X196413Y571781D01*
X198470Y573837D01*
X200085Y576256D01*
X201199Y578943D01*
X201766Y581796D01*
Y584704D01*
X201199Y587557D01*
X200085Y590244D01*
X198470Y592663D01*
X196413Y594720D01*
X193994Y596335D01*
X191307Y597449D01*
X188454Y598016D01*
D02*
G37*
G36*
X159766D02*
X130234D01*
Y578335D01*
X121500D01*
X120128Y578062D01*
X119835Y577866D01*
X116984D01*
Y571634D01*
X119835D01*
X120128Y571438D01*
X121500Y571165D01*
X130234D01*
Y568484D01*
X159766D01*
Y598016D01*
D02*
G37*
G36*
X73724Y600750D02*
X70276D01*
X66895Y600078D01*
X63711Y598758D01*
X60844Y596843D01*
X58407Y594406D01*
X56492Y591539D01*
X55173Y588355D01*
X54500Y584974D01*
Y581526D01*
X55173Y578145D01*
X56492Y574961D01*
X58407Y572094D01*
X60844Y569657D01*
X63711Y567742D01*
X66895Y566423D01*
X70276Y565750D01*
X73724D01*
X77105Y566423D01*
X80289Y567742D01*
X83156Y569657D01*
X85593Y572094D01*
X87508Y574961D01*
X88827Y578145D01*
X89500Y581526D01*
Y584974D01*
X88827Y588355D01*
X87508Y591539D01*
X85593Y594406D01*
X83156Y596843D01*
X80289Y598758D01*
X77105Y600078D01*
X73724Y600750D01*
D02*
G37*
G36*
X735203Y584366D02*
X724071D01*
Y574429D01*
X723584Y574103D01*
X714797Y565317D01*
X714352Y564650D01*
X714195Y563863D01*
X711595Y562766D01*
X709484D01*
Y552234D01*
X719016D01*
Y562766D01*
X720461Y565167D01*
X725428Y570134D01*
X735203D01*
Y584366D01*
D02*
G37*
G36*
X856454Y575766D02*
X853546D01*
X850693Y575199D01*
X848006Y574085D01*
X845587Y572469D01*
X843531Y570413D01*
X841915Y567994D01*
X840802Y565307D01*
X840234Y562454D01*
Y559546D01*
X840802Y556693D01*
X841915Y554006D01*
X843531Y551587D01*
X845587Y549530D01*
X848006Y547915D01*
X850693Y546801D01*
X853546Y546234D01*
X856454D01*
X859307Y546801D01*
X861994Y547915D01*
X864413Y549530D01*
X866470Y551587D01*
X868086Y554006D01*
X869199Y556693D01*
X869766Y559546D01*
Y562454D01*
X869199Y565307D01*
X868086Y567994D01*
X866470Y570413D01*
X864413Y572469D01*
X861994Y574085D01*
X859307Y575199D01*
X856454Y575766D01*
D02*
G37*
G36*
X814454D02*
X811546D01*
X808693Y575199D01*
X806006Y574085D01*
X803587Y572469D01*
X801531Y570413D01*
X799915Y567994D01*
X798802Y565307D01*
X798234Y562454D01*
Y559546D01*
X798802Y556693D01*
X799915Y554006D01*
X801531Y551587D01*
X803587Y549530D01*
X806006Y547915D01*
X808693Y546801D01*
X811546Y546234D01*
X814454D01*
X817307Y546801D01*
X819995Y547915D01*
X822413Y549530D01*
X824470Y551587D01*
X826086Y554006D01*
X827199Y556693D01*
X827766Y559546D01*
Y562454D01*
X827199Y565307D01*
X826086Y567994D01*
X824470Y570413D01*
X822413Y572469D01*
X819995Y574085D01*
X817307Y575199D01*
X814454Y575766D01*
D02*
G37*
G36*
X643440Y545120D02*
X641434D01*
X639496Y544601D01*
X637758Y543597D01*
X636340Y542179D01*
X635336Y540441D01*
X634817Y538503D01*
Y536497D01*
X635336Y534559D01*
X636340Y532821D01*
X637758Y531403D01*
X639496Y530399D01*
X641434Y529880D01*
X643440D01*
X645378Y530399D01*
X647116Y531403D01*
X648535Y532821D01*
X649538Y534559D01*
X650057Y536497D01*
Y538503D01*
X649538Y540441D01*
X648535Y542179D01*
X647116Y543597D01*
X645378Y544601D01*
X643440Y545120D01*
D02*
G37*
G36*
X705546Y469000D02*
X703954D01*
X702484Y468391D01*
X701359Y467266D01*
X700750Y465796D01*
Y464204D01*
X701359Y462734D01*
X702484Y461609D01*
X703954Y461000D01*
X705546D01*
X707016Y461609D01*
X708141Y462734D01*
X708750Y464204D01*
Y465796D01*
X708141Y467266D01*
X707016Y468391D01*
X705546Y469000D01*
D02*
G37*
G36*
X929724Y494500D02*
X926277D01*
X922896Y493828D01*
X919711Y492509D01*
X916845Y490593D01*
X914407Y488156D01*
X912492Y485289D01*
X911173Y482105D01*
X910500Y478724D01*
Y475277D01*
X911173Y471896D01*
X912492Y468711D01*
X914407Y465845D01*
X916845Y463407D01*
X919711Y461492D01*
X922896Y460173D01*
X926277Y459500D01*
X929724D01*
X933105Y460173D01*
X936290Y461492D01*
X939156Y463407D01*
X941593Y465845D01*
X943509Y468711D01*
X944828Y471896D01*
X945500Y475277D01*
Y478724D01*
X944828Y482105D01*
X943509Y485289D01*
X941593Y488156D01*
X939156Y490593D01*
X936290Y492509D01*
X933105Y493828D01*
X929724Y494500D01*
D02*
G37*
G36*
X605766Y470766D02*
X593234D01*
Y457234D01*
X605766D01*
Y470766D01*
D02*
G37*
G36*
X373766Y470766D02*
X361234D01*
Y457234D01*
X373766D01*
Y470766D01*
D02*
G37*
G36*
X604816Y439016D02*
X594284D01*
Y429484D01*
X604816D01*
Y439016D01*
D02*
G37*
G36*
X322016Y439016D02*
X311484D01*
Y429484D01*
X322016D01*
Y439016D01*
D02*
G37*
G36*
X638649Y439270D02*
X636651D01*
X634806Y438506D01*
X633394Y437094D01*
X632630Y435249D01*
Y433252D01*
X633394Y431407D01*
X634806Y429995D01*
X636651Y429230D01*
X638649D01*
X640494Y429995D01*
X641906Y431407D01*
X642670Y433252D01*
Y435249D01*
X641906Y437094D01*
X640494Y438506D01*
X638649Y439270D01*
D02*
G37*
G36*
X524349D02*
X522351D01*
X520506Y438506D01*
X519094Y437094D01*
X518330Y435249D01*
Y433252D01*
X519094Y431407D01*
X520506Y429995D01*
X522351Y429230D01*
X524349D01*
X526194Y429995D01*
X527606Y431407D01*
X528370Y433252D01*
Y435249D01*
X527606Y437094D01*
X526194Y438506D01*
X524349Y439270D01*
D02*
G37*
G36*
X406649Y439270D02*
X404652D01*
X402807Y438506D01*
X401394Y437094D01*
X400630Y435249D01*
Y433251D01*
X401394Y431407D01*
X402807Y429994D01*
X404652Y429230D01*
X406649D01*
X408494Y429994D01*
X409906Y431407D01*
X410670Y433251D01*
Y435249D01*
X409906Y437094D01*
X408494Y438506D01*
X406649Y439270D01*
D02*
G37*
G36*
X292349D02*
X290352D01*
X288507Y438506D01*
X287094Y437094D01*
X286330Y435249D01*
Y433251D01*
X287094Y431407D01*
X288507Y429994D01*
X290352Y429230D01*
X292349D01*
X294194Y429994D01*
X295606Y431407D01*
X296370Y433251D01*
Y435249D01*
X295606Y437094D01*
X294194Y438506D01*
X292349Y439270D01*
D02*
G37*
G36*
X604816Y426017D02*
X594284D01*
Y416484D01*
X595641D01*
X596159Y415234D01*
X597284Y414109D01*
X598754Y413500D01*
X600346D01*
X601816Y414109D01*
X602941Y415234D01*
X603459Y416484D01*
X604816D01*
Y426017D01*
D02*
G37*
G36*
X322016Y426016D02*
X311484D01*
Y416484D01*
X312841D01*
X313359Y415234D01*
X314484Y414109D01*
X315954Y413500D01*
X317546D01*
X319016Y414109D01*
X320141Y415234D01*
X320659Y416484D01*
X322016D01*
Y426016D01*
D02*
G37*
G36*
X27266Y422266D02*
X17234D01*
Y410734D01*
X19310D01*
Y406922D01*
X19234Y406891D01*
X18109Y405766D01*
X17500Y404296D01*
Y402705D01*
X18109Y401234D01*
X18506Y400837D01*
X18960Y399000D01*
X18506Y397163D01*
X18109Y396766D01*
X17500Y395296D01*
Y393704D01*
X18109Y392234D01*
X19234Y391109D01*
X20704Y390500D01*
X21872D01*
X27936Y384436D01*
X28768Y383880D01*
X29750Y383685D01*
X32234D01*
Y381734D01*
X42766D01*
Y381734D01*
X45444Y380958D01*
Y361500D01*
X45444Y361500D01*
X45601Y360713D01*
X46047Y360047D01*
X54867Y351226D01*
X53729Y348252D01*
X51613Y347993D01*
X41786Y357821D01*
X41234Y358190D01*
X40891Y359016D01*
X40494Y359413D01*
X40040Y361250D01*
X40494Y363087D01*
X40891Y363484D01*
X41500Y364954D01*
Y366546D01*
X40891Y368016D01*
X39766Y369141D01*
X38296Y369750D01*
X36705D01*
X35234Y369141D01*
X34109Y368016D01*
X33500Y366546D01*
Y364954D01*
X34109Y363484D01*
X34507Y363087D01*
X34961Y361250D01*
X34507Y359413D01*
X34109Y359016D01*
X33500Y357546D01*
Y355954D01*
X34109Y354484D01*
X35015Y353579D01*
X35000Y352220D01*
X34619Y350367D01*
X34559Y350351D01*
X32822Y349348D01*
X31403Y347929D01*
X30400Y346191D01*
X29880Y344253D01*
Y342247D01*
X30400Y340309D01*
X31403Y338571D01*
X32822Y337153D01*
X33717Y336636D01*
X34200Y335236D01*
X34310Y334214D01*
X34172Y333147D01*
X30291Y329266D01*
X21984D01*
Y319234D01*
X32234D01*
X33516Y319234D01*
Y319234D01*
X35234D01*
Y319234D01*
X46766D01*
Y323649D01*
X49234Y324934D01*
X58266D01*
Y329973D01*
X58734Y330286D01*
X61734Y328682D01*
X61734Y324150D01*
X61734Y321934D01*
Y312834D01*
X61734D01*
Y311366D01*
X61734D01*
Y300834D01*
X63222D01*
X65424Y298907D01*
Y293244D01*
X62652Y292097D01*
X62309Y292440D01*
X61642Y292885D01*
X60855Y293042D01*
X60855Y293042D01*
X57766D01*
Y298366D01*
X48234D01*
Y287834D01*
X57766D01*
Y287834D01*
X60766Y288168D01*
X65424Y283511D01*
Y276293D01*
X76077D01*
Y278815D01*
X81610D01*
Y278395D01*
X82089Y277238D01*
X83245Y276759D01*
X94755D01*
X95912Y277238D01*
X96391Y278395D01*
Y282905D01*
X95912Y284061D01*
X94755Y284540D01*
X83245D01*
X82089Y284061D01*
X81618Y282926D01*
X76077D01*
Y285890D01*
X71188D01*
X70907Y286310D01*
X72511Y289310D01*
X76077D01*
Y291674D01*
X81610D01*
Y291095D01*
X82089Y289938D01*
X83245Y289459D01*
X94755D01*
X95912Y289938D01*
X96391Y291095D01*
Y295605D01*
X95912Y296761D01*
X94755Y297240D01*
X91056D01*
Y300834D01*
X93766D01*
Y306007D01*
X96538Y307155D01*
X104445Y299249D01*
Y232496D01*
X99283Y227334D01*
X96391Y228685D01*
Y232105D01*
X95912Y233261D01*
X94755Y233740D01*
X83245D01*
X82089Y233261D01*
X81610Y232105D01*
Y231905D01*
X76791D01*
X76016Y234616D01*
Y237584D01*
X76549Y240394D01*
X81610D01*
Y240295D01*
X82089Y239138D01*
X83245Y238659D01*
X94755D01*
X95912Y239138D01*
X96391Y240295D01*
Y244805D01*
X95912Y245961D01*
X94755Y246440D01*
X83245D01*
X82089Y245961D01*
X81610Y244805D01*
Y244506D01*
X76016D01*
Y247116D01*
X65484D01*
Y244401D01*
X58827D01*
Y247140D01*
X48173D01*
Y237657D01*
X48173Y237543D01*
Y234657D01*
X48173Y234543D01*
Y225060D01*
X51944D01*
X53547Y222060D01*
X53267Y221640D01*
X48173D01*
Y212043D01*
X58827D01*
Y218733D01*
X61288Y221194D01*
X65484D01*
Y212084D01*
X73109D01*
X84403Y200790D01*
X83909Y197042D01*
X82780Y195913D01*
X81164Y193494D01*
X80051Y190807D01*
X79484Y187955D01*
Y185046D01*
X80051Y182193D01*
X81164Y179506D01*
X82440Y177597D01*
X71148Y166306D01*
X41351D01*
X16556Y191101D01*
Y296648D01*
X25641Y305734D01*
X34375Y305734D01*
X35823D01*
X37945Y303612D01*
Y298366D01*
X35234D01*
Y291241D01*
X29435Y285442D01*
X28990Y284775D01*
X28833Y283989D01*
X28833Y283989D01*
Y277738D01*
X28626Y277482D01*
X25833Y275981D01*
X25545Y276100D01*
X23954D01*
X22484Y275491D01*
X21359Y274366D01*
X20841Y273116D01*
X19984D01*
Y262584D01*
X28833D01*
Y207861D01*
X28833Y207861D01*
X28990Y207075D01*
X29435Y206408D01*
X40440Y195403D01*
X39164Y193494D01*
X38051Y190807D01*
X37484Y187955D01*
Y185046D01*
X38051Y182193D01*
X39164Y179506D01*
X40780Y177087D01*
X42837Y175031D01*
X45256Y173415D01*
X47943Y172302D01*
X50796Y171734D01*
X53704D01*
X56557Y172302D01*
X59244Y173415D01*
X61663Y175031D01*
X63719Y177087D01*
X65335Y179506D01*
X66448Y182193D01*
X67016Y185046D01*
Y187955D01*
X66448Y190807D01*
X65335Y193494D01*
X63719Y195913D01*
X61663Y197970D01*
X59244Y199586D01*
X56557Y200699D01*
X53704Y201266D01*
X50796D01*
X47943Y200699D01*
X45256Y199586D01*
X43347Y198310D01*
X32944Y208713D01*
Y259601D01*
X32984Y262584D01*
X35944Y262584D01*
X42516D01*
Y265790D01*
X47923D01*
Y263043D01*
X58577D01*
Y265840D01*
X81610D01*
Y265695D01*
X82089Y264538D01*
X83245Y264059D01*
X94755D01*
X95912Y264538D01*
X96391Y265695D01*
Y270205D01*
X95912Y271361D01*
X94755Y271840D01*
X83245D01*
X82089Y271361D01*
X81610Y270205D01*
Y269951D01*
X58577D01*
Y272640D01*
X47923D01*
Y269901D01*
X42516D01*
Y273116D01*
X32984Y273116D01*
X32944Y276100D01*
Y283137D01*
X37641Y287834D01*
X44766D01*
Y298366D01*
X42056D01*
Y305734D01*
X46766D01*
Y315766D01*
X36516D01*
X34375Y315766D01*
X32234Y315766D01*
X21984D01*
Y307891D01*
X13046Y298953D01*
X12601Y298286D01*
X12444Y297500D01*
X12444Y297500D01*
Y190250D01*
X12444Y190250D01*
X12601Y189463D01*
X13046Y188797D01*
X39046Y162796D01*
X39713Y162351D01*
X40500Y162194D01*
X72000D01*
X72000Y162194D01*
X72786Y162351D01*
X73453Y162796D01*
X85347Y174690D01*
X87255Y173415D01*
X89943Y172302D01*
X92795Y171734D01*
X95704D01*
X98557Y172302D01*
X101244Y173415D01*
X103663Y175031D01*
X105719Y177087D01*
X107335Y179506D01*
X108448Y182193D01*
X109016Y185046D01*
Y187955D01*
X108448Y190807D01*
X107335Y193494D01*
X105719Y195913D01*
X103663Y197970D01*
X101244Y199586D01*
X98557Y200699D01*
X95704Y201266D01*
X92795D01*
X90248Y200759D01*
X76016Y214991D01*
Y220065D01*
X79016Y220727D01*
X81610Y218133D01*
Y214895D01*
X82089Y213738D01*
X83245Y213259D01*
X94755D01*
X95912Y213738D01*
X96391Y214895D01*
Y218628D01*
X107954Y230191D01*
X107954Y230191D01*
X108399Y230858D01*
X108556Y231645D01*
X108556Y231645D01*
Y300100D01*
X108556Y300100D01*
X108399Y300887D01*
X107954Y301553D01*
X93766Y315741D01*
Y323366D01*
X93766D01*
X94784Y325945D01*
X115500D01*
X115500Y325945D01*
X116287Y326101D01*
X116953Y326547D01*
X132360Y341953D01*
X134477Y341050D01*
X135216Y340567D01*
X135394Y339671D01*
X135626Y339324D01*
X136006Y338600D01*
Y336400D01*
X135626Y335676D01*
X135394Y335329D01*
X135180Y334250D01*
X135394Y333171D01*
X136006Y332256D01*
X136921Y331644D01*
X138000Y331430D01*
X144944D01*
Y326266D01*
X144944Y326000D01*
X144944Y326000D01*
X143558Y323911D01*
X142794Y323266D01*
X136734D01*
Y315641D01*
X128797Y307704D01*
X128351Y307037D01*
X128195Y306250D01*
X128195Y306250D01*
Y224900D01*
X128195Y224900D01*
X128351Y224113D01*
X128797Y223446D01*
X134109Y218133D01*
Y214895D01*
X134588Y213738D01*
X135745Y213259D01*
X147255D01*
X148411Y213738D01*
X148890Y214895D01*
Y218133D01*
X151484Y220727D01*
X154484Y220065D01*
Y214491D01*
X140652Y200659D01*
X140557Y200699D01*
X137705Y201266D01*
X134796D01*
X131943Y200699D01*
X129256Y199586D01*
X126838Y197970D01*
X124781Y195913D01*
X123165Y193494D01*
X122052Y190807D01*
X121484Y187955D01*
Y185046D01*
X122052Y182193D01*
X123165Y179506D01*
X124781Y177087D01*
X126838Y175031D01*
X129256Y173415D01*
X131943Y172302D01*
X134796Y171734D01*
X137705D01*
X140557Y172302D01*
X143244Y173415D01*
X145663Y175031D01*
X147720Y177087D01*
X149336Y179506D01*
X150449Y182193D01*
X151016Y185046D01*
Y187955D01*
X150449Y190807D01*
X149336Y193494D01*
X147720Y195913D01*
X145663Y197970D01*
X145494Y199687D01*
X157891Y212084D01*
X162109D01*
X169146Y205047D01*
X169146Y205047D01*
X169813Y204601D01*
X170600Y204445D01*
X197500D01*
X197500Y204445D01*
X198287Y204601D01*
X198953Y205047D01*
X217204Y223297D01*
X217649Y223963D01*
X217806Y224750D01*
Y297837D01*
X217806Y297837D01*
X217649Y298624D01*
X217204Y299291D01*
X217203Y299291D01*
X208603Y307891D01*
Y315766D01*
X198353D01*
X196212Y315766D01*
X194071Y315766D01*
X183821D01*
Y305734D01*
X187444D01*
Y298116D01*
X184734D01*
Y287584D01*
X191859D01*
X197694Y281748D01*
Y272116D01*
X188484D01*
Y268901D01*
X182577D01*
Y271640D01*
X171923D01*
Y269451D01*
X148890D01*
Y270205D01*
X148411Y271361D01*
X147255Y271840D01*
X135745D01*
X135306Y271658D01*
X132662Y272839D01*
Y275761D01*
X135306Y276941D01*
X135745Y276759D01*
X147255D01*
X148411Y277238D01*
X148890Y278395D01*
Y278815D01*
X154423D01*
Y276293D01*
X165077D01*
Y282983D01*
X169010Y286917D01*
X171734Y287584D01*
Y287584D01*
X181266D01*
Y298116D01*
X171734D01*
Y292955D01*
X170086D01*
X169300Y292799D01*
X168633Y292353D01*
X168633Y292353D01*
X168076Y291797D01*
X165077Y293039D01*
X165077Y298907D01*
X167320Y300734D01*
X168766D01*
Y307609D01*
X171953Y310796D01*
X171954Y310796D01*
X172399Y311463D01*
X172556Y312250D01*
X172556Y312250D01*
Y323500D01*
X172399Y324287D01*
X171954Y324953D01*
X171953Y324954D01*
X162615Y334292D01*
X163763Y337064D01*
X167666D01*
Y340813D01*
X170666Y342417D01*
X171134Y342104D01*
Y337064D01*
X177259D01*
X182574Y331749D01*
X183821Y329266D01*
Y319234D01*
X195353D01*
Y319234D01*
X197071D01*
Y319234D01*
X208603D01*
Y329266D01*
X203305D01*
Y345808D01*
X203484Y348734D01*
X206306Y348734D01*
X213516D01*
Y359441D01*
X213516Y360266D01*
X213016Y363059D01*
Y372766D01*
X203984D01*
Y363219D01*
X203594Y360915D01*
X200543Y360864D01*
X196486Y364921D01*
X196500Y364955D01*
Y366546D01*
X195891Y368016D01*
X194766Y369141D01*
X193296Y369750D01*
X191704D01*
X190234Y369141D01*
X189109Y368016D01*
X188863Y367423D01*
X185938D01*
X185938Y367423D01*
X185152Y367267D01*
X184485Y366821D01*
X184485Y366821D01*
X177259Y359596D01*
X171817D01*
Y379910D01*
X185533Y393626D01*
X186250Y393645D01*
X188897Y392747D01*
X189109Y392234D01*
X190234Y391109D01*
X191704Y390500D01*
X193296D01*
X194766Y391109D01*
X195891Y392234D01*
X196500Y393704D01*
Y395296D01*
X195891Y396766D01*
X195494Y397163D01*
X195040Y399000D01*
X195494Y400837D01*
X195891Y401234D01*
X196500Y402705D01*
Y404296D01*
X195891Y405766D01*
X194766Y406891D01*
X193296Y407500D01*
X191704D01*
X190234Y406891D01*
X189109Y405766D01*
X188500Y404296D01*
Y402705D01*
X188587Y402494D01*
X168308Y382215D01*
X167862Y381548D01*
X167706Y380761D01*
X167706Y380761D01*
Y362579D01*
X167666Y359596D01*
X161541Y359596D01*
X159433Y361703D01*
X158766Y362149D01*
X157980Y362305D01*
X157979Y362305D01*
X150402D01*
X149579Y362855D01*
X148500Y363070D01*
X138000D01*
X136921Y362855D01*
X136006Y362244D01*
X135394Y361329D01*
X135180Y360250D01*
X135394Y359171D01*
X135626Y358824D01*
X136006Y358100D01*
Y355900D01*
X135626Y355176D01*
X135394Y354829D01*
X135180Y353750D01*
X135394Y352671D01*
X135567Y352412D01*
X135633Y352288D01*
X135024Y350229D01*
X134382Y349232D01*
X133963Y349149D01*
X133297Y348704D01*
X133297Y348703D01*
X125994Y341401D01*
X125138Y341578D01*
X123120Y342770D01*
Y344003D01*
X122601Y345941D01*
X121597Y347679D01*
X120179Y349098D01*
X118441Y350101D01*
X116503Y350620D01*
X114497D01*
X112559Y350101D01*
X110821Y349098D01*
X109403Y347679D01*
X108399Y345941D01*
X107880Y344003D01*
Y341997D01*
X108399Y340059D01*
X109403Y338321D01*
X110821Y336903D01*
X112559Y335899D01*
X114497Y335380D01*
X115730D01*
X116922Y333362D01*
X117099Y332506D01*
X114649Y330056D01*
X96357D01*
X96049Y330420D01*
X95029Y333055D01*
X95106Y333171D01*
X95320Y334250D01*
X95106Y335329D01*
X94933Y335588D01*
X94494Y336416D01*
Y338584D01*
X94933Y339412D01*
X95106Y339671D01*
X95320Y340750D01*
X95106Y341829D01*
X94874Y342176D01*
X94494Y342900D01*
Y345100D01*
X94874Y345824D01*
X95106Y346171D01*
X95320Y347250D01*
X95106Y348329D01*
X94494Y349244D01*
X93579Y349856D01*
X92500Y350070D01*
X82000D01*
X80921Y349856D01*
X80098Y349306D01*
X70550D01*
X70550Y349306D01*
X69764Y349149D01*
X69097Y348704D01*
X69097Y348703D01*
X67859Y347466D01*
X63847D01*
X61768Y349297D01*
X61538Y350148D01*
X61093Y350815D01*
X61092Y350815D01*
X49556Y362351D01*
Y389750D01*
X49556Y389750D01*
X49399Y390537D01*
X48953Y391203D01*
X44204Y395953D01*
X43537Y396399D01*
X42750Y396555D01*
X42750Y396555D01*
X41681D01*
X40085Y399186D01*
X40493Y400837D01*
X40891Y401234D01*
X41500Y402705D01*
Y404296D01*
X40891Y405766D01*
X39766Y406891D01*
X38296Y407500D01*
X36704D01*
X35234Y406891D01*
X34109Y405766D01*
X33500Y404296D01*
Y402705D01*
X34109Y401234D01*
X34506Y400837D01*
X34960Y399000D01*
X34506Y397163D01*
X34109Y396766D01*
X33500Y395296D01*
Y393704D01*
X32234Y390766D01*
X29234Y390394D01*
X25500Y394128D01*
Y395296D01*
X24891Y396766D01*
X24493Y397163D01*
X24040Y399000D01*
X24493Y400837D01*
X24891Y401234D01*
X25500Y402705D01*
Y404296D01*
X24891Y405766D01*
X24440Y406217D01*
Y410734D01*
X27266D01*
Y422266D01*
D02*
G37*
G36*
X322016Y399266D02*
X311984D01*
Y387734D01*
X322016D01*
Y399266D01*
D02*
G37*
G36*
X492016Y411516D02*
X481984D01*
Y400913D01*
X481984Y399984D01*
X482234Y397088D01*
Y387484D01*
X491266D01*
X491266Y397295D01*
X492016Y399984D01*
X492016Y400705D01*
Y411516D01*
D02*
G37*
G36*
X260016D02*
X249984D01*
Y401016D01*
X249984Y398016D01*
X249984Y396984D01*
Y387484D01*
X259016D01*
X259016Y397398D01*
X260016Y399984D01*
X260016Y400602D01*
Y411516D01*
D02*
G37*
G36*
X446266Y410516D02*
X437234D01*
Y400955D01*
X436484Y398266D01*
X436484Y397295D01*
Y386734D01*
X446516D01*
Y397087D01*
X446516Y398266D01*
X446266Y401162D01*
Y401266D01*
Y410516D01*
D02*
G37*
G36*
X678266Y410516D02*
X669234D01*
X669234Y400705D01*
X668484Y398016D01*
X668484Y397295D01*
Y386484D01*
X678516D01*
Y397088D01*
X678516Y398016D01*
X678266Y400912D01*
Y401016D01*
Y410516D01*
D02*
G37*
G36*
X213016Y410516D02*
X203984D01*
X203984Y400602D01*
X202984Y398016D01*
X202984Y397398D01*
Y386484D01*
X213016D01*
Y396984D01*
X213016Y399984D01*
X213016Y401016D01*
Y410516D01*
D02*
G37*
G36*
X658546Y407500D02*
X656954D01*
X655484Y406891D01*
X654359Y405766D01*
X653750Y404296D01*
Y402705D01*
X653837Y402494D01*
X633558Y382215D01*
X633112Y381548D01*
X632956Y380761D01*
X632956Y380761D01*
Y362579D01*
X632916Y359596D01*
X626791Y359596D01*
X624683Y361703D01*
X624016Y362149D01*
X623230Y362305D01*
X623229Y362305D01*
X615652D01*
X614829Y362855D01*
X613750Y363070D01*
X603250D01*
X602171Y362855D01*
X601256Y362244D01*
X600644Y361329D01*
X600430Y360250D01*
X600644Y359171D01*
X600876Y358824D01*
X601256Y358100D01*
Y355899D01*
X600876Y355176D01*
X600644Y354829D01*
X600430Y353750D01*
X600644Y352670D01*
X600817Y352412D01*
X600855Y352193D01*
X600274Y350230D01*
X599632Y349232D01*
X599213Y349149D01*
X598547Y348704D01*
X598547Y348703D01*
X591244Y341401D01*
X590387Y341578D01*
X588370Y342770D01*
Y344003D01*
X587851Y345941D01*
X586847Y347679D01*
X585429Y349098D01*
X583691Y350101D01*
X581753Y350620D01*
X579747D01*
X577809Y350101D01*
X576071Y349098D01*
X574652Y347679D01*
X573649Y345941D01*
X573130Y344003D01*
Y341997D01*
X573649Y340059D01*
X574652Y338321D01*
X576071Y336903D01*
X577809Y335899D01*
X579747Y335380D01*
X580980D01*
X582172Y333362D01*
X582349Y332506D01*
X579899Y330056D01*
X561608D01*
X561299Y330420D01*
X560279Y333055D01*
X560356Y333171D01*
X560570Y334250D01*
X560356Y335329D01*
X560183Y335588D01*
X559744Y336416D01*
Y338584D01*
X560183Y339412D01*
X560356Y339670D01*
X560570Y340750D01*
X560356Y341829D01*
X560124Y342176D01*
X559744Y342900D01*
Y345100D01*
X560124Y345824D01*
X560356Y346170D01*
X560570Y347250D01*
X560356Y348329D01*
X559744Y349244D01*
X558829Y349855D01*
X557750Y350070D01*
X547250D01*
X546171Y349855D01*
X545349Y349306D01*
X535801D01*
X535800Y349306D01*
X535014Y349149D01*
X534347Y348704D01*
X534347Y348703D01*
X533109Y347466D01*
X529097D01*
X527018Y349297D01*
X526788Y350148D01*
X526343Y350815D01*
X526342Y350815D01*
X514805Y362351D01*
Y384500D01*
X514805Y384500D01*
X514649Y385286D01*
X514203Y385953D01*
X514203Y385953D01*
X506663Y393494D01*
X506750Y393704D01*
Y395296D01*
X506141Y396766D01*
X505743Y397163D01*
X505290Y399000D01*
X505743Y400837D01*
X506141Y401234D01*
X506750Y402705D01*
Y404296D01*
X506141Y405766D01*
X505016Y406891D01*
X503545Y407500D01*
X501954D01*
X500484Y406891D01*
X499359Y405766D01*
X498750Y404296D01*
Y402705D01*
X499359Y401234D01*
X499756Y400837D01*
X500210Y399000D01*
X499756Y397163D01*
X499359Y396766D01*
X498750Y395296D01*
Y393704D01*
X499359Y392234D01*
X500484Y391109D01*
X501954Y390500D01*
X503545D01*
X503756Y390587D01*
X510695Y383648D01*
Y361500D01*
X510695Y361500D01*
X510851Y360713D01*
X511297Y360047D01*
X520117Y351226D01*
X518979Y348252D01*
X516863Y347993D01*
X507036Y357821D01*
X506484Y358190D01*
X506141Y359016D01*
X505744Y359413D01*
X505290Y361250D01*
X505744Y363087D01*
X506141Y363484D01*
X506750Y364954D01*
Y366546D01*
X506141Y368016D01*
X505016Y369141D01*
X503546Y369750D01*
X501955D01*
X500485Y369141D01*
X499359Y368016D01*
X498750Y366546D01*
Y364954D01*
X499359Y363484D01*
X499757Y363087D01*
X500211Y361250D01*
X499757Y359413D01*
X499359Y359016D01*
X498750Y357546D01*
Y355954D01*
X499359Y354484D01*
X500265Y353579D01*
X500250Y352220D01*
X499869Y350367D01*
X499809Y350351D01*
X498072Y349348D01*
X496653Y347929D01*
X495650Y346191D01*
X495130Y344253D01*
Y342247D01*
X495650Y340309D01*
X496653Y338571D01*
X498072Y337153D01*
X498967Y336636D01*
X499450Y335236D01*
X499560Y334214D01*
X499422Y333147D01*
X495541Y329266D01*
X487234D01*
Y319234D01*
X497484D01*
X498766Y319234D01*
Y319234D01*
X500484D01*
Y319234D01*
X512016D01*
Y323650D01*
X514485Y324934D01*
X523517D01*
Y329974D01*
X523984Y330286D01*
X526984Y328683D01*
X526984Y324150D01*
X526984Y321934D01*
Y312834D01*
X526984D01*
Y311366D01*
X526984D01*
Y300834D01*
X528471D01*
X530673Y298907D01*
Y293245D01*
X527901Y292097D01*
X527559Y292440D01*
X526892Y292885D01*
X526105Y293042D01*
X526105Y293042D01*
X523016D01*
Y298366D01*
X513484D01*
Y287834D01*
X523016D01*
Y287834D01*
X526016Y288168D01*
X530673Y283512D01*
Y276293D01*
X541326D01*
Y278815D01*
X546860D01*
Y278395D01*
X547339Y277239D01*
X548495Y276760D01*
X560005D01*
X561996Y274720D01*
Y274016D01*
X559333Y271841D01*
X548495D01*
X547339Y271362D01*
X546860Y270205D01*
Y269951D01*
X523826D01*
Y272640D01*
X513173D01*
Y269901D01*
X507766D01*
Y273116D01*
X498556D01*
Y283499D01*
X502891Y287834D01*
X510017D01*
Y298366D01*
X507305D01*
Y305734D01*
X512016D01*
Y315766D01*
X501766D01*
X499625Y315766D01*
X497484Y315766D01*
X487234D01*
Y307891D01*
X478297Y298953D01*
X477851Y298286D01*
X477695Y297500D01*
X477695Y297500D01*
Y190250D01*
X477695Y190250D01*
X477851Y189463D01*
X478297Y188797D01*
X504297Y162796D01*
X504963Y162351D01*
X505750Y162194D01*
X537249D01*
X537250Y162194D01*
X538036Y162351D01*
X538703Y162796D01*
X550597Y174690D01*
X552505Y173415D01*
X555193Y172302D01*
X558046Y171734D01*
X560954D01*
X563807Y172302D01*
X566494Y173415D01*
X568913Y175031D01*
X570969Y177087D01*
X572585Y179506D01*
X573698Y182193D01*
X574266Y185046D01*
Y187955D01*
X573698Y190807D01*
X572585Y193494D01*
X570969Y195913D01*
X568913Y197970D01*
X566494Y199586D01*
X563807Y200699D01*
X560954Y201266D01*
X558046D01*
X555498Y200759D01*
X541266Y214991D01*
Y220065D01*
X544266Y220727D01*
X546860Y218133D01*
Y214895D01*
X547339Y213739D01*
X548495Y213260D01*
X560005D01*
X561162Y213739D01*
X561641Y214895D01*
Y216945D01*
X561922Y217001D01*
X562589Y217447D01*
X566703Y221561D01*
X567149Y222228D01*
X567305Y223015D01*
Y306600D01*
X567149Y307387D01*
X566703Y308054D01*
X566703Y308054D01*
X559016Y315741D01*
Y323366D01*
X559016D01*
X560034Y325945D01*
X580750D01*
X580750Y325945D01*
X581537Y326101D01*
X582203Y326547D01*
X597611Y341954D01*
X599728Y341049D01*
X600466Y340567D01*
X600644Y339670D01*
X600876Y339324D01*
X601256Y338600D01*
Y336400D01*
X600876Y335676D01*
X600644Y335329D01*
X600430Y334250D01*
X600644Y333171D01*
X601256Y332256D01*
X602171Y331644D01*
X603250Y331430D01*
X610195D01*
Y326266D01*
X610195Y326000D01*
X610194Y326000D01*
X608808Y323911D01*
X608044Y323266D01*
X601984D01*
Y315641D01*
X594047Y307704D01*
X593601Y307037D01*
X593445Y306250D01*
X593445Y306250D01*
Y224900D01*
X593445Y224900D01*
X593601Y224113D01*
X594047Y223446D01*
X599359Y218133D01*
Y214895D01*
X599838Y213739D01*
X600995Y213260D01*
X612505D01*
X613661Y213739D01*
X614140Y214895D01*
Y218133D01*
X616734Y220727D01*
X619734Y220065D01*
Y214491D01*
X605902Y200659D01*
X605807Y200699D01*
X602954Y201266D01*
X600045D01*
X597193Y200699D01*
X594505Y199586D01*
X592087Y197970D01*
X590030Y195913D01*
X588414Y193494D01*
X587301Y190807D01*
X586734Y187955D01*
Y185046D01*
X587301Y182193D01*
X588414Y179506D01*
X590030Y177087D01*
X592087Y175031D01*
X594505Y173415D01*
X597193Y172302D01*
X600045Y171734D01*
X602954D01*
X605807Y172302D01*
X608494Y173415D01*
X610913Y175031D01*
X612969Y177087D01*
X614585Y179506D01*
X615698Y182193D01*
X616266Y185046D01*
Y187955D01*
X615698Y190807D01*
X614585Y193494D01*
X612969Y195913D01*
X610913Y197970D01*
X610743Y199687D01*
X623141Y212084D01*
X627359D01*
X634396Y205047D01*
X634396Y205047D01*
X635063Y204601D01*
X635850Y204445D01*
X662750D01*
X662750Y204445D01*
X663537Y204601D01*
X664203Y205047D01*
X682454Y223297D01*
X682899Y223963D01*
X683055Y224750D01*
Y297837D01*
X683055Y297837D01*
X682899Y298624D01*
X682454Y299291D01*
X682453Y299291D01*
X673853Y307891D01*
Y315766D01*
X663603D01*
X661462Y315766D01*
X659321Y315766D01*
X649071D01*
Y305734D01*
X652694D01*
Y298116D01*
X649984D01*
Y287584D01*
X657109D01*
X662944Y281748D01*
Y272116D01*
X653734D01*
Y268901D01*
X647827D01*
Y271640D01*
X637173D01*
Y269451D01*
X614140D01*
Y270205D01*
X613661Y271362D01*
X612505Y271841D01*
X600995D01*
X600555Y271659D01*
X597912Y272839D01*
Y275762D01*
X600555Y276942D01*
X600995Y276760D01*
X612505D01*
X613661Y277239D01*
X614140Y278395D01*
Y278815D01*
X619673D01*
Y276293D01*
X630326D01*
Y282983D01*
X634260Y286917D01*
X636984Y287584D01*
Y287584D01*
X646516D01*
Y298116D01*
X636984D01*
Y292955D01*
X635336D01*
X634550Y292799D01*
X633883Y292353D01*
X633883Y292353D01*
X633326Y291797D01*
X630326Y293039D01*
X630326Y298907D01*
X632570Y300734D01*
X634016D01*
Y307609D01*
X637203Y310796D01*
X637203Y310796D01*
X637649Y311463D01*
X637805Y312250D01*
X637805Y312250D01*
Y323500D01*
X637649Y324287D01*
X637203Y324953D01*
X637203Y324954D01*
X627865Y334292D01*
X629013Y337064D01*
X632916D01*
Y340812D01*
X635916Y342416D01*
X636384Y342103D01*
Y337064D01*
X642509D01*
X647824Y331749D01*
X649071Y329266D01*
Y319234D01*
X660603D01*
Y319234D01*
X662321D01*
Y319234D01*
X673853D01*
Y329266D01*
X667805D01*
Y346015D01*
X668484Y348734D01*
X670806Y348734D01*
X678516D01*
Y359087D01*
X678516Y360266D01*
X678266Y363162D01*
Y372516D01*
X669234D01*
Y363810D01*
X667101Y361047D01*
X665596Y361061D01*
X661736Y364921D01*
X661750Y364955D01*
Y366546D01*
X661141Y368016D01*
X660016Y369141D01*
X658546Y369750D01*
X656954D01*
X655484Y369141D01*
X654359Y368016D01*
X654113Y367423D01*
X651188D01*
X651188Y367423D01*
X650402Y367267D01*
X649735Y366821D01*
X649735Y366821D01*
X642509Y359596D01*
X637067D01*
Y379910D01*
X650783Y393626D01*
X651500Y393645D01*
X654147Y392747D01*
X654359Y392234D01*
X655484Y391109D01*
X656954Y390500D01*
X658546D01*
X660016Y391109D01*
X661141Y392234D01*
X661750Y393704D01*
Y395296D01*
X661141Y396766D01*
X660743Y397163D01*
X660290Y399000D01*
X660743Y400837D01*
X661141Y401234D01*
X661750Y402705D01*
Y404296D01*
X661141Y405766D01*
X660016Y406891D01*
X658546Y407500D01*
D02*
G37*
G36*
X426546Y407500D02*
X424955D01*
X423484Y406891D01*
X422359Y405766D01*
X421750Y404296D01*
Y402704D01*
X421837Y402494D01*
X401558Y382215D01*
X401112Y381548D01*
X400956Y380761D01*
X400956Y380761D01*
Y362579D01*
X400916Y359595D01*
X394791Y359595D01*
X392683Y361703D01*
X392016Y362149D01*
X391230Y362305D01*
X391230Y362305D01*
X383652D01*
X382829Y362855D01*
X381750Y363070D01*
X371250D01*
X370171Y362855D01*
X369256Y362244D01*
X368645Y361329D01*
X368430Y360250D01*
X368645Y359170D01*
X368876Y358824D01*
X369256Y358100D01*
Y355900D01*
X368876Y355176D01*
X368645Y354829D01*
X368430Y353750D01*
X368645Y352671D01*
X368817Y352412D01*
X368855Y352192D01*
X368274Y350229D01*
X367633Y349232D01*
X367214Y349149D01*
X366547Y348703D01*
X366547Y348703D01*
X359244Y341401D01*
X358388Y341578D01*
X356370Y342769D01*
Y344003D01*
X355851Y345941D01*
X354848Y347679D01*
X353429Y349097D01*
X351691Y350101D01*
X349753Y350620D01*
X347747D01*
X345809Y350101D01*
X344071Y349097D01*
X342653Y347679D01*
X341650Y345941D01*
X341130Y344003D01*
Y341997D01*
X341650Y340059D01*
X342653Y338321D01*
X344071Y336902D01*
X345809Y335899D01*
X347747Y335380D01*
X348981D01*
X350172Y333362D01*
X350349Y332506D01*
X347899Y330055D01*
X329608D01*
X329299Y330420D01*
X328279Y333055D01*
X328356Y333171D01*
X328570Y334250D01*
X328356Y335329D01*
X328183Y335588D01*
X327744Y336416D01*
Y338584D01*
X328183Y339412D01*
X328356Y339671D01*
X328570Y340750D01*
X328356Y341829D01*
X328124Y342176D01*
X327744Y342900D01*
Y345100D01*
X328124Y345824D01*
X328356Y346171D01*
X328570Y347250D01*
X328356Y348329D01*
X327744Y349244D01*
X326829Y349855D01*
X325750Y350070D01*
X315250D01*
X314171Y349855D01*
X313348Y349305D01*
X303801D01*
X303801Y349305D01*
X303014Y349149D01*
X302347Y348703D01*
X302347Y348703D01*
X301109Y347466D01*
X297097D01*
X295018Y349296D01*
X294788Y350148D01*
X294343Y350814D01*
X294343Y350814D01*
X282806Y362351D01*
Y384500D01*
X282806Y384500D01*
X282649Y385286D01*
X282204Y385953D01*
X282204Y385953D01*
X274663Y393494D01*
X274750Y393704D01*
Y395295D01*
X274141Y396766D01*
X273743Y397163D01*
X273290Y399000D01*
X273743Y400837D01*
X274141Y401234D01*
X274750Y402704D01*
Y404296D01*
X274141Y405766D01*
X273016Y406891D01*
X271546Y407500D01*
X269954D01*
X268484Y406891D01*
X267359Y405766D01*
X266750Y404296D01*
Y402704D01*
X267359Y401234D01*
X267757Y400837D01*
X268210Y399000D01*
X267757Y397163D01*
X267359Y396766D01*
X266750Y395295D01*
Y393704D01*
X267359Y392234D01*
X268484Y391109D01*
X269954Y390500D01*
X271546D01*
X271756Y390587D01*
X278695Y383648D01*
Y361500D01*
X278695Y361500D01*
X278851Y360713D01*
X279297Y360046D01*
X288117Y351226D01*
X286979Y348252D01*
X284863Y347993D01*
X275036Y357821D01*
X274484Y358190D01*
X274142Y359016D01*
X273744Y359413D01*
X273290Y361250D01*
X273744Y363087D01*
X274142Y363484D01*
X274750Y364954D01*
Y366546D01*
X274142Y368016D01*
X273016Y369141D01*
X271546Y369750D01*
X269955D01*
X268485Y369141D01*
X267360Y368016D01*
X266751Y366546D01*
Y364954D01*
X267360Y363484D01*
X267757Y363087D01*
X268211Y361250D01*
X267757Y359413D01*
X267360Y359016D01*
X266751Y357546D01*
Y355954D01*
X267360Y354484D01*
X268265Y353579D01*
X268250Y352219D01*
X267869Y350367D01*
X267809Y350351D01*
X266072Y349347D01*
X264653Y347929D01*
X263650Y346191D01*
X263130Y344253D01*
Y342247D01*
X263650Y340309D01*
X264653Y338571D01*
X266072Y337152D01*
X266967Y336636D01*
X267450Y335236D01*
X267560Y334213D01*
X267423Y333147D01*
X263541Y329266D01*
X255234D01*
Y319234D01*
X265484D01*
X266766Y319234D01*
Y319234D01*
X268484D01*
Y319234D01*
X280016D01*
Y323650D01*
X282485Y324934D01*
X291517D01*
Y329973D01*
X291985Y330286D01*
X294985Y328683D01*
X294984Y324150D01*
X294985Y321934D01*
Y312834D01*
X294984D01*
Y311366D01*
X294985D01*
Y300834D01*
X296471D01*
X298673Y298907D01*
Y293245D01*
X295902Y292097D01*
X295559Y292439D01*
X294892Y292885D01*
X294105Y293042D01*
X294105Y293041D01*
X291016D01*
Y298366D01*
X281484D01*
Y287834D01*
X291016D01*
Y287834D01*
X294016Y288168D01*
X298673Y283511D01*
Y276293D01*
X309327D01*
Y278815D01*
X314860D01*
Y278395D01*
X315339Y277238D01*
X316495Y276759D01*
X328005D01*
X328694Y277045D01*
X331694Y275851D01*
Y272748D01*
X328694Y271555D01*
X328005Y271840D01*
X316495D01*
X315339Y271361D01*
X314860Y270205D01*
Y269951D01*
X291826D01*
Y272640D01*
X281173D01*
Y269901D01*
X275766D01*
Y273116D01*
X266234Y273116D01*
X266194Y276100D01*
Y283137D01*
X270891Y287834D01*
X278016D01*
Y298366D01*
X275306D01*
Y305734D01*
X280016D01*
Y315766D01*
X269766D01*
X267625Y315766D01*
X265484Y315766D01*
X255234D01*
Y307891D01*
X246297Y298953D01*
X245851Y298286D01*
X245695Y297500D01*
X245695Y297500D01*
Y190250D01*
X245695Y190250D01*
X245851Y189463D01*
X246297Y188796D01*
X272297Y162796D01*
X272964Y162351D01*
X273750Y162194D01*
X305250D01*
X305250Y162194D01*
X306036Y162351D01*
X306703Y162796D01*
X318597Y174690D01*
X320506Y173415D01*
X323193Y172302D01*
X326046Y171734D01*
X328954D01*
X331807Y172302D01*
X334494Y173415D01*
X336913Y175030D01*
X338969Y177087D01*
X340585Y179506D01*
X341698Y182193D01*
X342266Y185046D01*
Y187954D01*
X341698Y190807D01*
X340585Y193494D01*
X338969Y195913D01*
X336913Y197969D01*
X334494Y199585D01*
X331807Y200699D01*
X328954Y201266D01*
X326046D01*
X323498Y200759D01*
X309266Y214991D01*
Y220065D01*
X312266Y220727D01*
X314860Y218133D01*
Y214895D01*
X315339Y213738D01*
X316495Y213259D01*
X328005D01*
X329162Y213738D01*
X329641Y214895D01*
Y218628D01*
X335203Y224191D01*
X335204Y224191D01*
X335649Y224858D01*
X335806Y225644D01*
X335806Y225644D01*
Y306100D01*
X335806Y306100D01*
X335649Y306887D01*
X335204Y307554D01*
X335203Y307554D01*
X327016Y315741D01*
Y323366D01*
X327016D01*
X328034Y325944D01*
X348750D01*
X348750Y325944D01*
X349537Y326101D01*
X350204Y326546D01*
X365611Y341953D01*
X367727Y341050D01*
X368466Y340567D01*
X368645Y339671D01*
X368877Y339324D01*
X369256Y338600D01*
Y336400D01*
X368877Y335676D01*
X368645Y335329D01*
X368430Y334250D01*
X368645Y333171D01*
X369256Y332256D01*
X370171Y331644D01*
X371250Y331430D01*
X378195D01*
Y326266D01*
X378195Y326000D01*
X378195Y326000D01*
X376808Y323911D01*
X376044Y323266D01*
X369984D01*
Y315641D01*
X362047Y307703D01*
X361601Y307037D01*
X361445Y306250D01*
X361445Y306250D01*
Y224900D01*
X361445Y224900D01*
X361601Y224113D01*
X362047Y223446D01*
X367360Y218133D01*
Y214895D01*
X367839Y213738D01*
X368995Y213259D01*
X380505D01*
X381661Y213738D01*
X382141Y214895D01*
Y218133D01*
X384734Y220727D01*
X387734Y220067D01*
Y214491D01*
X373902Y200659D01*
X373807Y200699D01*
X370954Y201266D01*
X368046D01*
X365193Y200699D01*
X362506Y199585D01*
X360087Y197969D01*
X358030Y195913D01*
X356414Y193494D01*
X355301Y190807D01*
X354734Y187954D01*
Y185046D01*
X355301Y182193D01*
X356414Y179506D01*
X358030Y177087D01*
X360087Y175030D01*
X362506Y173415D01*
X365193Y172302D01*
X368046Y171734D01*
X370954D01*
X373807Y172302D01*
X376494Y173415D01*
X378913Y175030D01*
X380969Y177087D01*
X382585Y179506D01*
X383698Y182193D01*
X384266Y185046D01*
Y187954D01*
X383698Y190807D01*
X382585Y193494D01*
X380969Y195913D01*
X378913Y197969D01*
X378744Y199687D01*
X391140Y212083D01*
X395360D01*
X402397Y205047D01*
X402397Y205046D01*
X403064Y204601D01*
X403850Y204444D01*
X430750D01*
X430750Y204444D01*
X431537Y204601D01*
X432204Y205046D01*
X450454Y223296D01*
X450899Y223963D01*
X451056Y224750D01*
Y297837D01*
X451056Y297837D01*
X450899Y298624D01*
X450454Y299291D01*
X450454Y299291D01*
X441853Y307891D01*
Y315766D01*
X431603D01*
X429462Y315766D01*
X427322Y315766D01*
X417071D01*
Y305734D01*
X420695D01*
Y298116D01*
X417984D01*
Y287584D01*
X425109D01*
X430945Y281748D01*
Y272116D01*
X421734D01*
Y268901D01*
X415827D01*
Y271640D01*
X405174D01*
Y269451D01*
X382141D01*
Y270205D01*
X381661Y271361D01*
X380505Y271840D01*
X368995D01*
X368556Y271658D01*
X365913Y272838D01*
Y275761D01*
X368556Y276941D01*
X368995Y276759D01*
X380505D01*
X381661Y277238D01*
X382141Y278395D01*
Y278815D01*
X387674D01*
Y276293D01*
X398327D01*
Y282983D01*
X402260Y286916D01*
X404984Y287584D01*
Y287584D01*
X414516D01*
Y298116D01*
X404984D01*
Y292955D01*
X403337D01*
X402550Y292799D01*
X401883Y292353D01*
X401883Y292353D01*
X401327Y291797D01*
X398327Y293040D01*
X398327Y298907D01*
X400570Y300734D01*
X402016D01*
Y307609D01*
X405204Y310796D01*
X405204Y310796D01*
X405649Y311463D01*
X405806Y312250D01*
X405806Y312250D01*
Y323500D01*
X405649Y324286D01*
X405204Y324953D01*
X405204Y324953D01*
X395865Y334292D01*
X397013Y337063D01*
X400916D01*
Y340813D01*
X403916Y342416D01*
X404384Y342104D01*
Y337063D01*
X410509D01*
X415824Y331749D01*
X417071Y329266D01*
Y319234D01*
X428603D01*
Y319234D01*
X430322D01*
Y319234D01*
X441853D01*
Y329266D01*
X436555D01*
Y348734D01*
X446516D01*
Y358838D01*
X446516Y360266D01*
X446266Y363162D01*
Y372266D01*
X437234D01*
Y363810D01*
X435101Y361047D01*
X433596Y361061D01*
X429736Y364921D01*
X429750Y364954D01*
Y366546D01*
X429141Y368016D01*
X428016Y369141D01*
X426546Y369750D01*
X424954D01*
X423484Y369141D01*
X422359Y368016D01*
X422114Y367423D01*
X419188D01*
X419188Y367423D01*
X418402Y367266D01*
X417735Y366821D01*
X417735Y366821D01*
X410509Y359595D01*
X405067D01*
Y379910D01*
X418783Y393626D01*
X419500Y393645D01*
X422147Y392747D01*
X422359Y392234D01*
X423484Y391109D01*
X424955Y390500D01*
X426546D01*
X428016Y391109D01*
X429141Y392234D01*
X429750Y393704D01*
Y395295D01*
X429141Y396766D01*
X428744Y397163D01*
X428290Y399000D01*
X428744Y400837D01*
X429141Y401234D01*
X429750Y402704D01*
Y404296D01*
X429141Y405766D01*
X428016Y406891D01*
X426546Y407500D01*
D02*
G37*
G36*
X27266Y372016D02*
X15734D01*
Y362809D01*
X15734Y361984D01*
X16234Y359191D01*
Y350984D01*
X26766D01*
Y359191D01*
X27266Y361984D01*
X27266Y362809D01*
Y372016D01*
D02*
G37*
G36*
X491766Y373516D02*
X481734D01*
Y363559D01*
X481734Y361984D01*
X482234Y359191D01*
Y350234D01*
X491266D01*
Y359191D01*
X491766Y361984D01*
X491766Y363559D01*
Y373516D01*
D02*
G37*
G36*
X259766Y373766D02*
X249734D01*
Y363162D01*
X249734Y362234D01*
X249984Y359338D01*
Y349734D01*
X259016D01*
X259016Y359545D01*
X259766Y362234D01*
X259766Y362955D01*
Y373766D01*
D02*
G37*
G36*
X843750Y928306D02*
X843750Y928306D01*
X107500D01*
X106713Y928149D01*
X106046Y927703D01*
X106046Y927703D01*
X84046Y905704D01*
X83601Y905037D01*
X83444Y904250D01*
X83444Y904250D01*
Y885851D01*
X64649Y867056D01*
X42500D01*
X42500Y867056D01*
X41713Y866899D01*
X41047Y866453D01*
X41047Y866453D01*
X25047Y850454D01*
X24601Y849787D01*
X24445Y849000D01*
X24445Y849000D01*
Y842266D01*
X21484D01*
Y830734D01*
X31516D01*
Y842266D01*
X28556D01*
Y848149D01*
X43351Y862944D01*
X65500D01*
X65500Y862944D01*
X66287Y863101D01*
X66954Y863547D01*
X86953Y883547D01*
X86953Y883547D01*
X87399Y884213D01*
X87556Y885000D01*
X87556Y885000D01*
Y903399D01*
X108351Y924194D01*
X842899D01*
X964945Y802149D01*
Y446351D01*
X800648Y282055D01*
X773307D01*
X772973Y283302D01*
X771847Y285253D01*
X770254Y286846D01*
X768303Y287973D01*
X766126Y288556D01*
X763874D01*
X761698Y287973D01*
X759747Y286846D01*
X758154Y285253D01*
X757027Y283302D01*
X756444Y281126D01*
Y278873D01*
X757027Y276697D01*
X758154Y274746D01*
X759747Y273153D01*
X761698Y272027D01*
X763874Y271444D01*
X766126D01*
X768303Y272027D01*
X770254Y273153D01*
X771847Y274746D01*
X772973Y276697D01*
X773307Y277944D01*
X801500D01*
X801500Y277944D01*
X802286Y278101D01*
X802953Y278546D01*
X968453Y444047D01*
X968454Y444047D01*
X968899Y444713D01*
X969055Y445500D01*
X969055Y445500D01*
Y803000D01*
X969055Y803000D01*
X968899Y803787D01*
X968454Y804454D01*
X968453Y804454D01*
X845203Y927703D01*
X844537Y928149D01*
X844406Y928175D01*
X843750Y928306D01*
D02*
G37*
G36*
X916126Y288556D02*
X913873D01*
X911697Y287973D01*
X909746Y286846D01*
X908153Y285253D01*
X907027Y283302D01*
X906444Y281126D01*
Y278873D01*
X907027Y276697D01*
X908153Y274746D01*
X909746Y273153D01*
X911697Y272027D01*
X913873Y271444D01*
X916126D01*
X918302Y272027D01*
X920253Y273153D01*
X921846Y274746D01*
X922973Y276697D01*
X923556Y278873D01*
Y281126D01*
X922973Y283302D01*
X921846Y285253D01*
X920253Y286846D01*
X918302Y287973D01*
X916126Y288556D01*
D02*
G37*
G36*
X76016Y260116D02*
X65484D01*
Y250584D01*
X76016D01*
Y260116D01*
D02*
G37*
G36*
X644954Y201266D02*
X642045D01*
X639193Y200699D01*
X636505Y199586D01*
X634087Y197970D01*
X632030Y195913D01*
X630414Y193494D01*
X629301Y190807D01*
X628734Y187955D01*
Y185046D01*
X629301Y182193D01*
X630414Y179506D01*
X632030Y177087D01*
X634087Y175031D01*
X636505Y173415D01*
X639193Y172302D01*
X642045Y171734D01*
X644954D01*
X647807Y172302D01*
X650494Y173415D01*
X652912Y175031D01*
X654969Y177087D01*
X656585Y179506D01*
X657698Y182193D01*
X658266Y185046D01*
Y187955D01*
X657698Y190807D01*
X656585Y193494D01*
X654969Y195913D01*
X652912Y197970D01*
X650494Y199586D01*
X647807Y200699D01*
X644954Y201266D01*
D02*
G37*
G36*
X179704D02*
X176796D01*
X173943Y200699D01*
X171256Y199586D01*
X168837Y197970D01*
X166781Y195913D01*
X165165Y193494D01*
X164052Y190807D01*
X163484Y187955D01*
Y185046D01*
X164052Y182193D01*
X165165Y179506D01*
X166781Y177087D01*
X168837Y175031D01*
X171256Y173415D01*
X173943Y172302D01*
X176796Y171734D01*
X179704D01*
X182557Y172302D01*
X185245Y173415D01*
X187663Y175031D01*
X189720Y177087D01*
X191336Y179506D01*
X192449Y182193D01*
X193016Y185046D01*
Y187955D01*
X192449Y190807D01*
X191336Y193494D01*
X189720Y195913D01*
X187663Y197970D01*
X185245Y199586D01*
X182557Y200699D01*
X179704Y201266D01*
D02*
G37*
G36*
X412955Y201266D02*
X410046D01*
X407193Y200699D01*
X404506Y199585D01*
X402088Y197969D01*
X400031Y195913D01*
X398415Y193494D01*
X397302Y190807D01*
X396734Y187954D01*
Y185046D01*
X397302Y182193D01*
X398415Y179506D01*
X400031Y177087D01*
X402088Y175030D01*
X404506Y173415D01*
X407193Y172302D01*
X410046Y171734D01*
X412955D01*
X415807Y172302D01*
X418495Y173415D01*
X420913Y175030D01*
X422970Y177087D01*
X424586Y179506D01*
X425699Y182193D01*
X426266Y185046D01*
Y187954D01*
X425699Y190807D01*
X424586Y193494D01*
X422970Y195913D01*
X420913Y197969D01*
X418495Y199585D01*
X415807Y200699D01*
X412955Y201266D01*
D02*
G37*
G36*
X645223Y89000D02*
X641776D01*
X638395Y88328D01*
X635210Y87008D01*
X632344Y85093D01*
X629907Y82656D01*
X627991Y79790D01*
X626672Y76605D01*
X626000Y73224D01*
Y69777D01*
X626672Y66396D01*
X627991Y63211D01*
X629907Y60345D01*
X632344Y57907D01*
X635210Y55992D01*
X638395Y54673D01*
X641776Y54000D01*
X645223D01*
X648604Y54673D01*
X651789Y55992D01*
X654655Y57907D01*
X657093Y60345D01*
X659008Y63211D01*
X660327Y66396D01*
X661000Y69777D01*
Y73224D01*
X660327Y76605D01*
X659008Y79790D01*
X657093Y82656D01*
X654655Y85093D01*
X651789Y87008D01*
X648604Y88328D01*
X645223Y89000D01*
D02*
G37*
G36*
X519224D02*
X515776D01*
X512395Y88328D01*
X509211Y87008D01*
X506344Y85093D01*
X503907Y82656D01*
X501992Y79790D01*
X500672Y76605D01*
X500000Y73224D01*
Y69777D01*
X500672Y66396D01*
X501992Y63211D01*
X503907Y60345D01*
X506344Y57907D01*
X509211Y55992D01*
X512395Y54673D01*
X515776Y54000D01*
X519224D01*
X522604Y54673D01*
X525789Y55992D01*
X528656Y57907D01*
X531093Y60345D01*
X533008Y63211D01*
X534327Y66396D01*
X535000Y69777D01*
Y73224D01*
X534327Y76605D01*
X533008Y79790D01*
X531093Y82656D01*
X528656Y85093D01*
X525789Y87008D01*
X522604Y88328D01*
X519224Y89000D01*
D02*
G37*
G36*
X179974D02*
X176527D01*
X173146Y88328D01*
X169961Y87008D01*
X167094Y85093D01*
X164657Y82656D01*
X162742Y79790D01*
X161423Y76605D01*
X160750Y73224D01*
Y69777D01*
X161423Y66396D01*
X162742Y63211D01*
X164657Y60345D01*
X167094Y57907D01*
X169961Y55992D01*
X173146Y54673D01*
X176527Y54000D01*
X179974D01*
X183355Y54673D01*
X186539Y55992D01*
X189406Y57907D01*
X191843Y60345D01*
X193758Y63211D01*
X195078Y66396D01*
X195750Y69777D01*
Y73224D01*
X195078Y76605D01*
X193758Y79790D01*
X191843Y82656D01*
X189406Y85093D01*
X186539Y87008D01*
X183355Y88328D01*
X179974Y89000D01*
D02*
G37*
G36*
X53973D02*
X50526D01*
X47145Y88328D01*
X43960Y87008D01*
X41094Y85093D01*
X38657Y82656D01*
X36742Y79790D01*
X35422Y76605D01*
X34750Y73224D01*
Y69777D01*
X35422Y66396D01*
X36742Y63211D01*
X38657Y60345D01*
X41094Y57907D01*
X43960Y55992D01*
X47145Y54673D01*
X50526Y54000D01*
X53973D01*
X57354Y54673D01*
X60539Y55992D01*
X63405Y57907D01*
X65843Y60345D01*
X67758Y63211D01*
X69077Y66396D01*
X69750Y69777D01*
Y73224D01*
X69077Y76605D01*
X67758Y79790D01*
X65843Y82656D01*
X63405Y85093D01*
X60539Y87008D01*
X57354Y88328D01*
X53973Y89000D01*
D02*
G37*
G36*
X413224Y89000D02*
X409777D01*
X406396Y88328D01*
X403211Y87008D01*
X400345Y85093D01*
X397907Y82656D01*
X395992Y79789D01*
X394673Y76604D01*
X394000Y73224D01*
Y69776D01*
X394673Y66395D01*
X395992Y63211D01*
X397907Y60344D01*
X400345Y57907D01*
X403211Y55992D01*
X406396Y54672D01*
X409777Y54000D01*
X413224D01*
X416605Y54672D01*
X419790Y55992D01*
X422656Y57907D01*
X425093Y60344D01*
X427009Y63211D01*
X428328Y66395D01*
X429000Y69776D01*
Y73224D01*
X428328Y76604D01*
X427009Y79789D01*
X425093Y82656D01*
X422656Y85093D01*
X419790Y87008D01*
X416605Y88328D01*
X413224Y89000D01*
D02*
G37*
G36*
X287224D02*
X283776D01*
X280396Y88328D01*
X277211Y87008D01*
X274345Y85093D01*
X271907Y82656D01*
X269992Y79789D01*
X268673Y76604D01*
X268000Y73224D01*
Y69776D01*
X268673Y66395D01*
X269992Y63211D01*
X271907Y60344D01*
X274345Y57907D01*
X277211Y55992D01*
X280396Y54672D01*
X283776Y54000D01*
X287224D01*
X290605Y54672D01*
X293789Y55992D01*
X296656Y57907D01*
X299093Y60344D01*
X301008Y63211D01*
X302327Y66395D01*
X303000Y69776D01*
Y73224D01*
X302327Y76604D01*
X301008Y79789D01*
X299093Y82656D01*
X296656Y85093D01*
X293789Y87008D01*
X290605Y88328D01*
X287224Y89000D01*
D02*
G37*
%LPD*%
G36*
X288390Y522696D02*
X289949Y520356D01*
X168516Y398923D01*
X165516Y399796D01*
Y400766D01*
X154984D01*
Y398306D01*
X149266D01*
Y401766D01*
X138266D01*
X137734Y401766D01*
X135266D01*
X134734Y401766D01*
X123734D01*
Y391946D01*
X123734Y390416D01*
X120777Y389130D01*
X109305Y400601D01*
Y455399D01*
X125204Y471297D01*
X125262Y471267D01*
X125262Y471267D01*
X127984Y469834D01*
X127984Y468152D01*
Y457234D01*
X140516D01*
Y470766D01*
X130814D01*
X128915Y470766D01*
X127453Y473546D01*
X176601Y522695D01*
X287500D01*
X287500Y522695D01*
X288180Y522830D01*
X288390Y522696D01*
D02*
G37*
%LPC*%
G36*
X139566Y439016D02*
X129034D01*
Y429484D01*
X139566D01*
Y439016D01*
D02*
G37*
G36*
X173399Y439270D02*
X171402D01*
X169556Y438506D01*
X168144Y437094D01*
X167380Y435249D01*
Y433252D01*
X168144Y431407D01*
X169556Y429995D01*
X171402Y429230D01*
X173399D01*
X175244Y429995D01*
X176656Y431407D01*
X177420Y433252D01*
Y435249D01*
X176656Y437094D01*
X175244Y438506D01*
X173399Y439270D01*
D02*
G37*
G36*
X139566Y426016D02*
X129034D01*
Y416484D01*
X130391D01*
X130909Y415234D01*
X132034Y414109D01*
X133504Y413500D01*
X135096D01*
X136566Y414109D01*
X137691Y415234D01*
X138209Y416484D01*
X139566D01*
Y426016D01*
D02*
G37*
%LPD*%
G36*
X171923Y262043D02*
X182577D01*
Y264790D01*
X188484D01*
Y261584D01*
X197694D01*
Y230601D01*
X195256Y228163D01*
X195046Y228250D01*
X193454D01*
X191984Y227641D01*
X190859Y226516D01*
X190250Y225046D01*
Y223454D01*
X190859Y221984D01*
X191984Y220859D01*
X193454Y220250D01*
X195046D01*
X196516Y220859D01*
X197641Y221984D01*
X198250Y223454D01*
Y225046D01*
X198163Y225256D01*
X201203Y228297D01*
X201649Y228963D01*
X201805Y229750D01*
Y261584D01*
X210695D01*
X211016Y261584D01*
X213694Y260808D01*
Y225601D01*
X196649Y208556D01*
X173855D01*
X173731Y208793D01*
X175550Y211793D01*
X182577D01*
Y221390D01*
X177483D01*
X177203Y221810D01*
X178806Y224810D01*
X182577D01*
Y234407D01*
X171923D01*
Y231785D01*
X165741D01*
X165016Y234616D01*
Y237484D01*
X166054Y240186D01*
X171923D01*
Y237434D01*
X182577D01*
Y247031D01*
X171923D01*
Y244297D01*
X165016D01*
Y247016D01*
X154484D01*
Y244455D01*
X148890D01*
Y244805D01*
X148411Y245961D01*
X147255Y246440D01*
X135745D01*
X135306Y246258D01*
X132662Y247439D01*
Y250361D01*
X135306Y251541D01*
X135745Y251359D01*
X140440D01*
X140704Y251250D01*
X142296D01*
X142560Y251359D01*
X147255D01*
X148411Y251838D01*
X148890Y252995D01*
Y257505D01*
X148411Y258661D01*
X147255Y259140D01*
X142560D01*
X142296Y259250D01*
X140704D01*
X140440Y259140D01*
X135745D01*
X135306Y258958D01*
X132662Y260139D01*
Y263061D01*
X135306Y264241D01*
X135745Y264059D01*
X147255D01*
X148411Y264538D01*
X148743Y265340D01*
X171923D01*
Y262043D01*
D02*
G37*
%LPC*%
G36*
X165016Y260016D02*
X154484D01*
Y250484D01*
X165016D01*
Y260016D01*
D02*
G37*
%LPD*%
G36*
X499625Y305734D02*
X501073D01*
X503195Y303613D01*
Y298366D01*
X500485D01*
Y291241D01*
X495047Y285804D01*
X494601Y285137D01*
X494445Y284350D01*
X494445Y284350D01*
Y277555D01*
X493772Y276918D01*
X491445Y275831D01*
X490796Y276100D01*
X489204D01*
X487734Y275491D01*
X486609Y274366D01*
X486091Y273116D01*
X485234D01*
Y262584D01*
X494445D01*
Y207500D01*
X494445Y207500D01*
X494601Y206713D01*
X495047Y206046D01*
X505690Y195403D01*
X504414Y193494D01*
X503301Y190807D01*
X502734Y187955D01*
Y185046D01*
X503301Y182193D01*
X504414Y179506D01*
X506030Y177087D01*
X508087Y175031D01*
X510506Y173415D01*
X513193Y172302D01*
X516046Y171734D01*
X518954D01*
X521807Y172302D01*
X524494Y173415D01*
X526913Y175031D01*
X528969Y177087D01*
X530585Y179506D01*
X531698Y182193D01*
X532266Y185046D01*
Y187955D01*
X531698Y190807D01*
X530585Y193494D01*
X528969Y195913D01*
X526913Y197970D01*
X524494Y199586D01*
X521807Y200699D01*
X518954Y201266D01*
X516046D01*
X513193Y200699D01*
X510506Y199586D01*
X508597Y198310D01*
X498556Y208351D01*
Y262584D01*
X507766D01*
Y265790D01*
X513173D01*
Y263043D01*
X523826D01*
Y265840D01*
X546860D01*
Y265695D01*
X547339Y264539D01*
X548495Y264060D01*
X560005D01*
X560195Y264138D01*
X563195Y262652D01*
Y247849D01*
X560195Y246362D01*
X560005Y246441D01*
X548495D01*
X547339Y245962D01*
X546860Y244805D01*
Y244506D01*
X541266D01*
Y247116D01*
X530734D01*
Y244401D01*
X524077D01*
Y247140D01*
X513423D01*
Y237658D01*
X513423Y237543D01*
Y234657D01*
X513423Y234543D01*
Y225060D01*
X517194D01*
X518798Y222060D01*
X518517Y221640D01*
X513423D01*
Y212043D01*
X524077D01*
Y218733D01*
X526538Y221194D01*
X530734D01*
Y212084D01*
X538359D01*
X549653Y200790D01*
X549159Y197042D01*
X548030Y195913D01*
X546414Y193494D01*
X545301Y190807D01*
X544734Y187955D01*
Y185046D01*
X545301Y182193D01*
X546414Y179506D01*
X547690Y177597D01*
X536398Y166306D01*
X506601D01*
X481805Y191101D01*
Y296648D01*
X490891Y305734D01*
X499625Y305734D01*
D02*
G37*
G36*
X637173Y262043D02*
X647827D01*
Y264790D01*
X653734D01*
Y261584D01*
X662944D01*
Y230601D01*
X660506Y228163D01*
X660296Y228250D01*
X658705D01*
X657234Y227641D01*
X656109Y226516D01*
X655500Y225046D01*
Y223454D01*
X656109Y221984D01*
X657234Y220859D01*
X658705Y220250D01*
X660296D01*
X661766Y220859D01*
X662891Y221984D01*
X663500Y223454D01*
Y225046D01*
X663413Y225256D01*
X666453Y228297D01*
X666899Y228963D01*
X667056Y229750D01*
Y261584D01*
X675945D01*
X676266Y261584D01*
X678944Y260808D01*
Y225601D01*
X661899Y208556D01*
X639105D01*
X638981Y208793D01*
X640800Y211793D01*
X647827D01*
Y221390D01*
X642734D01*
X642453Y221810D01*
X644056Y224810D01*
X647827D01*
Y234407D01*
X637173D01*
Y231785D01*
X630991D01*
X630266Y234616D01*
Y237484D01*
X631304Y240186D01*
X637173D01*
Y237435D01*
X647827D01*
Y247032D01*
X637173D01*
Y244297D01*
X630266D01*
Y247016D01*
X619734D01*
Y244455D01*
X614140D01*
Y244805D01*
X613661Y245962D01*
X612505Y246441D01*
X600995D01*
X600555Y246259D01*
X597912Y247439D01*
Y250361D01*
X600555Y251542D01*
X600995Y251360D01*
X605689D01*
X605954Y251250D01*
X607546D01*
X607811Y251360D01*
X612505D01*
X613661Y251839D01*
X614140Y252995D01*
Y257505D01*
X613661Y258662D01*
X612505Y259141D01*
X607809D01*
X607546Y259250D01*
X605954D01*
X605691Y259141D01*
X600995D01*
X600555Y258959D01*
X597912Y260139D01*
Y263062D01*
X600555Y264242D01*
X600995Y264060D01*
X612505D01*
X613661Y264539D01*
X613993Y265340D01*
X637173D01*
Y262043D01*
D02*
G37*
%LPC*%
G36*
X541266Y260116D02*
X530734D01*
Y250584D01*
X541266D01*
Y260116D01*
D02*
G37*
G36*
X630266Y260016D02*
X619734D01*
Y250484D01*
X630266D01*
Y260016D01*
D02*
G37*
%LPD*%
G36*
X267625Y305734D02*
X269073D01*
X271195Y303612D01*
Y298366D01*
X268484D01*
Y291241D01*
X262686Y285442D01*
X262240Y284775D01*
X262083Y283989D01*
X262083Y283988D01*
Y277738D01*
X261876Y277482D01*
X259083Y275981D01*
X258796Y276100D01*
X257204D01*
X255734Y275491D01*
X254609Y274366D01*
X254091Y273116D01*
X253234D01*
Y262584D01*
X262083D01*
Y207861D01*
X262083Y207861D01*
X262240Y207075D01*
X262686Y206408D01*
X273690Y195403D01*
X272415Y193494D01*
X271301Y190807D01*
X270734Y187954D01*
Y185046D01*
X271301Y182193D01*
X272415Y179506D01*
X274031Y177087D01*
X276087Y175030D01*
X278506Y173415D01*
X281193Y172302D01*
X284046Y171734D01*
X286954D01*
X289807Y172302D01*
X292494Y173415D01*
X294913Y175030D01*
X296970Y177087D01*
X298585Y179506D01*
X299699Y182193D01*
X300266Y185046D01*
Y187954D01*
X299699Y190807D01*
X298585Y193494D01*
X296970Y195913D01*
X294913Y197969D01*
X292494Y199585D01*
X289807Y200699D01*
X286954Y201266D01*
X284046D01*
X281193Y200699D01*
X278506Y199585D01*
X276597Y198310D01*
X266194Y208713D01*
Y259601D01*
X266234Y262584D01*
X269195Y262584D01*
X275766D01*
Y265790D01*
X281173D01*
Y263043D01*
X291826D01*
Y265840D01*
X314860D01*
Y265695D01*
X315339Y264538D01*
X316495Y264059D01*
X328005D01*
X328694Y264345D01*
X331694Y263151D01*
Y247348D01*
X328694Y246155D01*
X328005Y246440D01*
X316495D01*
X315339Y245961D01*
X314860Y244805D01*
Y244505D01*
X309266D01*
Y247115D01*
X298734D01*
Y244401D01*
X292077D01*
Y247140D01*
X281424D01*
Y237657D01*
X281424Y237543D01*
Y234657D01*
X281424Y234543D01*
Y225060D01*
X285194D01*
X286797Y222060D01*
X286517Y221640D01*
X281424D01*
Y212043D01*
X292077D01*
Y218733D01*
X294538Y221194D01*
X298734D01*
Y212083D01*
X306360D01*
X317654Y200790D01*
X317159Y197041D01*
X316031Y195913D01*
X314415Y193494D01*
X313301Y190807D01*
X312734Y187954D01*
Y185046D01*
X313301Y182193D01*
X314415Y179506D01*
X315690Y177597D01*
X304398Y166305D01*
X274602D01*
X249806Y191101D01*
Y296648D01*
X258891Y305734D01*
X267625Y305734D01*
D02*
G37*
G36*
X405174Y262043D02*
X415827D01*
Y264790D01*
X421734D01*
Y261584D01*
X430945D01*
Y230601D01*
X428506Y228163D01*
X428296Y228250D01*
X426705D01*
X425234Y227641D01*
X424109Y226516D01*
X423500Y225046D01*
Y223454D01*
X424109Y221984D01*
X425234Y220859D01*
X426705Y220250D01*
X428296D01*
X429766Y220859D01*
X430891Y221984D01*
X431500Y223454D01*
Y225046D01*
X431413Y225256D01*
X434454Y228296D01*
X434899Y228963D01*
X435056Y229750D01*
Y261584D01*
X443945D01*
X444266Y261584D01*
X446945Y260807D01*
Y225601D01*
X429899Y208555D01*
X407106D01*
X406983Y208792D01*
X408802Y211792D01*
X415827D01*
Y221389D01*
X410734D01*
X410453Y221809D01*
X412057Y224809D01*
X415827D01*
Y234406D01*
X405173D01*
Y231784D01*
X398993D01*
X398266Y234616D01*
X398266Y237186D01*
X399304Y240186D01*
X405174D01*
Y237435D01*
X415827D01*
Y247032D01*
X405174D01*
Y244297D01*
X398266D01*
Y247015D01*
X387734D01*
Y244455D01*
X382141D01*
Y244805D01*
X381661Y245961D01*
X380505Y246440D01*
X368995D01*
X368556Y246258D01*
X365913Y247439D01*
Y250361D01*
X368556Y251541D01*
X368995Y251359D01*
X373690D01*
X373954Y251250D01*
X375546D01*
X375810Y251359D01*
X380505D01*
X381661Y251838D01*
X382141Y252995D01*
Y257505D01*
X381661Y258661D01*
X380505Y259140D01*
X375810D01*
X375546Y259250D01*
X373954D01*
X373690Y259140D01*
X368995D01*
X368556Y258958D01*
X365913Y260138D01*
Y263061D01*
X368556Y264241D01*
X368995Y264059D01*
X380505D01*
X381661Y264538D01*
X381994Y265340D01*
X405174D01*
Y262043D01*
D02*
G37*
%LPC*%
G36*
X309266Y260116D02*
X298734D01*
Y250584D01*
X309266D01*
Y260116D01*
D02*
G37*
G36*
X398266Y260016D02*
X387734D01*
Y250484D01*
X398266D01*
Y260016D01*
D02*
G37*
%LPD*%
D13*
X136500Y574750D02*
X145000Y583250D01*
X121500Y574750D02*
X136500D01*
X165500Y561750D02*
X187000Y583250D01*
X121500Y561750D02*
X165500D01*
X361250Y525250D02*
Y545000D01*
X325000Y581250D02*
X361250Y545000D01*
X353250Y431800D02*
X367550Y417500D01*
X81375Y419625D02*
X83500Y417500D01*
X56192Y421250D02*
X83500D01*
X353250Y517250D02*
X361250Y525250D01*
X353250Y431800D02*
Y517250D01*
X41750Y435692D02*
Y449000D01*
X90750Y498000D02*
Y560250D01*
X41750Y449000D02*
X90750Y498000D01*
X41750Y435692D02*
X56192Y421250D01*
D15*
X56375Y793875D02*
X86375D01*
X56000Y794250D02*
X56375Y793875D01*
X86375D02*
X86750Y793500D01*
X49000Y800250D02*
X61750Y813000D01*
X49000Y762000D02*
Y800250D01*
X61750Y813000D02*
X86750D01*
X49000Y762000D02*
X56000Y755000D01*
X157500Y834750D02*
X207000D01*
X139250Y816500D02*
X157500Y834750D01*
X139250Y815750D02*
Y816500D01*
X223500Y795000D02*
X231000Y802500D01*
Y820500D01*
X211500Y840000D02*
X231000Y820500D01*
X99000Y840000D02*
X211500D01*
X207000Y834750D02*
X223500Y818250D01*
Y810250D02*
Y818250D01*
X115250Y815250D02*
X127750D01*
X114750Y814750D02*
X115250Y815250D01*
X86750Y826750D02*
Y841000D01*
X86750Y841000D01*
X99504Y789503D02*
Y793254D01*
X99750Y793500D01*
X56000Y746000D02*
X99504Y789503D01*
X113750Y826750D02*
X114750Y827750D01*
X99750Y826750D02*
X113750D01*
X99750D02*
X99750Y826750D01*
Y813000D02*
Y826750D01*
X87246Y797246D02*
X99254Y809254D01*
X86750Y793500D02*
X87246Y793996D01*
X99254Y812504D02*
X99750Y813000D01*
X99254Y809254D02*
Y812504D01*
X87246Y793996D02*
Y797246D01*
X93996Y794246D02*
Y796996D01*
X109000Y812000D02*
X112000D01*
X93996Y796996D02*
X109000Y812000D01*
X93250Y793500D02*
X93996Y794246D01*
X112000Y812000D02*
X114750Y814750D01*
X86750Y826250D02*
X93250Y819750D01*
Y813000D02*
Y819750D01*
X86750Y826250D02*
Y826750D01*
X146750Y807803D02*
X153948Y815001D01*
X146750Y708500D02*
Y807803D01*
X85500Y904250D02*
X107500Y926250D01*
X843750D02*
X967000Y803000D01*
X107500Y926250D02*
X843750D01*
X85500Y885000D02*
Y904250D01*
X65500Y865000D02*
X85500Y885000D01*
X765000Y280000D02*
X801500D01*
X967000Y445500D01*
Y803000D01*
X26500Y849000D02*
X42500Y865000D01*
X65500D01*
X26500Y836500D02*
Y849000D01*
X557750Y597250D02*
Y597750D01*
Y597250D02*
X560000Y595000D01*
X555500Y600000D02*
X557750Y597750D01*
X528250Y575500D02*
X582500D01*
X495750Y608000D02*
X528250Y575500D01*
X560000Y595000D02*
X574750D01*
X555000Y600000D02*
X555500D01*
X669750Y621250D02*
X675797D01*
X666953Y618453D02*
X669750Y621250D01*
X666953Y603703D02*
Y618453D01*
X664203Y603703D02*
X666953D01*
Y588953D02*
Y603703D01*
X675797Y621250D02*
X676250Y621703D01*
X594203Y588953D02*
X666953D01*
X593750Y588500D02*
X594203Y588953D01*
X663750Y603250D02*
X664203Y603703D01*
X615000Y605561D02*
X617311Y603250D01*
X615000Y605561D02*
Y606250D01*
X617311Y603250D02*
X651250D01*
X615000Y640020D02*
X621770Y633250D01*
X646250D01*
X615000Y640020D02*
Y642750D01*
X646250Y645750D02*
Y691500D01*
X653500Y698750D01*
X261031Y595569D02*
Y604890D01*
Y595569D02*
X261100Y595500D01*
X260963Y604959D02*
X261031Y604890D01*
X47500Y361500D02*
Y389750D01*
X42750Y394500D02*
X47500Y389750D01*
X37500Y394500D02*
X42750D01*
X156500Y213600D02*
Y214100D01*
X141038Y191288D02*
Y198139D01*
X159250Y216850D02*
X159750D01*
X141038Y198139D02*
X156500Y213600D01*
Y214100D02*
X159250Y216850D01*
X136250Y186500D02*
X141038Y191288D01*
X389751Y213601D02*
Y214099D01*
X392501Y216850D01*
X393000D01*
X374351Y191351D02*
Y198201D01*
X389751Y213601D01*
X369500Y186500D02*
X374351Y191351D01*
X606379Y198229D02*
X621750Y213600D01*
Y214100D01*
X624500Y216850D01*
X606379Y191379D02*
Y198229D01*
X624500Y216850D02*
X625000D01*
X601500Y186500D02*
X606379Y191379D01*
X623230Y360250D02*
X628400Y355080D01*
X608500Y360250D02*
X623230D01*
X628400Y354330D02*
Y355080D01*
X356500Y527000D02*
Y531750D01*
X346500Y393750D02*
Y517000D01*
X356500Y527000D01*
X340000Y378250D02*
Y519750D01*
X333500Y523250D02*
X345250Y535000D01*
X343250Y545000D02*
X356500Y531750D01*
X340000Y519750D02*
X350250Y530000D01*
X327250Y593531D02*
Y610250D01*
Y593531D02*
X393500Y527281D01*
Y396250D02*
Y527281D01*
X312693Y607307D02*
X313386Y608000D01*
X312693Y540193D02*
Y607307D01*
X168750Y396250D02*
X312693Y540193D01*
X313386Y608000D02*
X313500D01*
X289422Y768829D02*
Y772829D01*
X186250Y852750D02*
X209500D01*
X289422Y768829D02*
X290000Y768250D01*
X209500Y852750D02*
X289422Y772829D01*
X220500Y847000D02*
X286250Y781250D01*
X220500Y847000D02*
Y870500D01*
X286250Y781250D02*
X297750Y769750D01*
X286250Y781250D02*
Y860000D01*
X297750Y744000D02*
Y769750D01*
X279000Y877250D02*
X281750Y880000D01*
X279000Y854000D02*
Y877250D01*
X254000Y829000D02*
X279000Y854000D01*
X324350Y842900D02*
X327500Y839750D01*
Y839250D02*
X330250Y836500D01*
X324350Y842900D02*
Y860000D01*
X330250Y836500D02*
X330750D01*
X327500Y839250D02*
Y839750D01*
X281750Y880000D02*
X359750D01*
X396500Y843250D01*
X683250D01*
X333750Y225644D02*
Y306100D01*
X327500Y219395D02*
X333750Y225644D01*
X327500Y218900D02*
Y219395D01*
X318750Y217150D02*
X325750D01*
X327500Y218900D01*
X322250Y317600D02*
X333750Y306100D01*
X322250Y317600D02*
Y318100D01*
X94250Y218900D02*
Y219395D01*
X106500Y231645D01*
X92500Y217150D02*
X94250Y218900D01*
X106500Y231645D02*
Y300100D01*
X85500Y217150D02*
X92500D01*
X89000Y317600D02*
Y318100D01*
Y317600D02*
X106500Y300100D01*
X108750Y895250D02*
X109000Y895500D01*
X108750Y882853D02*
Y895250D01*
X108750Y882853D02*
X108750Y882853D01*
X108750Y871750D02*
Y882853D01*
X556001Y218900D02*
X561136D01*
X554250Y217150D02*
X556001Y218900D01*
X561136D02*
X565250Y223015D01*
Y306600D01*
X554250Y317600D02*
Y318100D01*
Y317600D02*
X565250Y306600D01*
X201250Y325837D02*
Y357250D01*
X192750Y365750D02*
X201250Y357250D01*
Y325837D02*
X202837Y324250D01*
X434500Y325837D02*
X436087Y324250D01*
X434500Y325837D02*
Y357250D01*
X426000Y365750D02*
X434500Y357250D01*
X665750Y326587D02*
Y358000D01*
Y326587D02*
X668087Y324250D01*
X658000Y365750D02*
X665750Y358000D01*
X519000Y341500D02*
Y342200D01*
Y342950D01*
X509750Y332250D02*
X519000Y341500D01*
X501432Y332250D02*
X509750D01*
X171250Y867750D02*
X186250Y852750D01*
X167250Y871750D02*
X171250Y867750D01*
X158250Y871750D02*
X167250D01*
X196766Y644234D02*
X219000Y622000D01*
X204500Y647250D02*
X219000Y632750D01*
X56000Y647250D02*
X204500D01*
X54751Y644234D02*
X196766D01*
X15484Y784734D02*
X26500Y795750D01*
X15484Y683501D02*
Y784734D01*
Y683501D02*
X54751Y644234D01*
X262450Y633100D02*
Y636304D01*
X265396Y639250D02*
X285850D01*
X262450Y636304D02*
X265396Y639250D01*
X261350Y632000D02*
X262450Y633100D01*
X496500Y207500D02*
X517500Y186500D01*
X496500Y284350D02*
X502500Y290350D01*
X496500Y207500D02*
Y284350D01*
X18500Y684750D02*
X56000Y647250D01*
X18500Y684750D02*
Y774250D01*
X26500Y782250D01*
X107250Y456250D02*
X175750Y524750D01*
X287500D01*
X290500Y527750D01*
X531500Y342200D02*
Y342950D01*
X535800Y347250D02*
X552500D01*
X531500Y342950D02*
X535800Y347250D01*
X531500Y330200D02*
Y330950D01*
X541301Y340750D02*
X552500D01*
X531500Y330950D02*
X541301Y340750D01*
X531500Y318100D02*
X541250D01*
Y328500D02*
X546750Y334000D01*
X546865D02*
X547115Y334250D01*
X546750Y334000D02*
X546865D01*
X541250Y318100D02*
Y328500D01*
X547115Y334250D02*
X552500D01*
X531500Y306100D02*
X541250D01*
Y306600D01*
X547500Y312850D02*
Y322729D01*
X541250Y306600D02*
X547500Y312850D01*
Y322729D02*
X552771Y328000D01*
X553871Y293729D02*
X554250Y293350D01*
X536000Y294109D02*
X536380Y293729D01*
X553871D01*
X554250Y293350D02*
Y306100D01*
X536221Y280870D02*
X554029D01*
X554250Y280650D01*
X536000Y281091D02*
X536221Y280870D01*
X533190Y283374D02*
Y283902D01*
X535472Y281091D02*
X536000D01*
X533190Y283374D02*
X535472Y281091D01*
X505250Y309750D02*
X506250Y310750D01*
X518496Y267846D02*
X518500Y267842D01*
X503000Y267850D02*
X503004Y267846D01*
X518496D01*
X554196Y267896D02*
X554250Y267950D01*
X518500Y267842D02*
X518554Y267896D01*
X554196D01*
X554150Y242450D02*
X554250Y242550D01*
X536000Y242350D02*
X536100Y242450D01*
X554150D01*
X535996Y242346D02*
X536000Y242350D01*
X518750Y242341D02*
X518754Y242346D01*
X535996D01*
X518750Y229858D02*
X518754Y229854D01*
X535996D02*
X536000Y229850D01*
X518754Y229854D02*
X535996D01*
X536000Y229850D02*
X554250D01*
X554812Y191188D02*
Y198538D01*
X536000Y216850D02*
X536500D01*
X554812Y191188D02*
X559500Y186500D01*
X536500Y216850D02*
X554812Y198538D01*
X518750Y216842D02*
X519278D01*
X525687Y223250D01*
X544650D01*
X550750Y217150D02*
X554250D01*
X544650Y223250D02*
X550750Y217150D01*
X503000Y290350D02*
X505250Y292600D01*
Y309750D01*
X502500Y290350D02*
X503000D01*
X506250Y324250D02*
X507000D01*
X510250Y327500D01*
X519000Y329500D02*
Y330200D01*
X517000Y327500D02*
X519000Y329500D01*
X510250Y327500D02*
X517000D01*
X493000Y324250D02*
X493750D01*
X496250Y326750D02*
Y327068D01*
X493750Y324250D02*
X496250Y326750D01*
X505750Y164250D02*
X537250D01*
X559500Y186500D01*
X479750Y190250D02*
X505750Y164250D01*
X479750Y190250D02*
Y297500D01*
X489750Y307500D02*
Y308250D01*
X492250Y310750D02*
X493000D01*
X479750Y297500D02*
X489750Y307500D01*
Y308250D02*
X492250Y310750D01*
X502750Y356750D02*
X503133Y356367D01*
X505582D02*
X519000Y342950D01*
X503133Y356367D02*
X505582D01*
X519000Y330950D02*
X524889Y336839D01*
X519000Y330200D02*
Y330950D01*
X524889Y336839D02*
Y349361D01*
X512750Y361500D02*
X524889Y349361D01*
X512750Y361500D02*
Y384500D01*
X502750Y394500D02*
X512750Y384500D01*
X535500Y373250D02*
Y393500D01*
X535500Y360500D02*
X535500Y360500D01*
Y373250D01*
X535500Y360500D02*
X535654Y360345D01*
X552404D02*
X552500Y360250D01*
X535654Y360345D02*
X552404D01*
X628400Y342330D02*
Y343080D01*
X608500Y353750D02*
X617729D01*
X628400Y343080D01*
X657367Y365368D02*
X657750Y365750D01*
X651188Y365368D02*
X657367D01*
X640900Y355080D02*
X651188Y365368D01*
X654087Y324250D02*
X654837D01*
X651587Y326750D02*
Y330893D01*
X640900Y341580D02*
Y342330D01*
X651587Y326750D02*
X654087Y324250D01*
X640900Y341580D02*
X651587Y330893D01*
X640900Y342330D02*
Y343080D01*
X635011Y348969D02*
X640900Y343080D01*
X635011Y348969D02*
Y380761D01*
X657750Y403500D01*
X580750Y328000D02*
X600000Y347250D01*
X552771Y328000D02*
X580750D01*
X600000Y347250D02*
X608500D01*
X612019Y334250D02*
X612250Y334019D01*
X608500Y334250D02*
X612019D01*
X619750Y318000D02*
Y318500D01*
X612250Y326000D02*
X619750Y318500D01*
X612250Y326000D02*
Y334019D01*
X619750Y318000D02*
X629500D01*
X631500Y308750D02*
X632250D01*
X629500Y306000D02*
Y306750D01*
X632250Y308750D02*
X635750Y312250D01*
X629500Y306750D02*
X631500Y308750D01*
X635750Y312250D02*
Y323500D01*
X608500Y340750D02*
X618500D01*
X635750Y323500D01*
X496250Y327068D02*
X501432Y332250D01*
X640900Y354330D02*
Y355080D01*
X657750Y365750D02*
X658000D01*
X606750Y217150D02*
X610250D01*
X616350Y223250D01*
X641972Y216591D02*
X642500D01*
X616350Y223250D02*
X635313D01*
X641972Y216591D01*
X606750Y229850D02*
X625000D01*
X625121Y229729D02*
X642379D01*
X625000Y229850D02*
X625121Y229729D01*
X642379D02*
X642500Y229608D01*
X624850Y242400D02*
X625000Y242250D01*
X606750Y242550D02*
X606900Y242400D01*
X624850D01*
X642491Y242241D02*
X642500Y242233D01*
X625000Y242250D02*
X625009Y242241D01*
X642491D01*
X607304Y267396D02*
X641946D01*
X606750Y267950D02*
X607304Y267396D01*
X641946D02*
X642500Y266841D01*
X658496Y266846D02*
X658500Y266850D01*
X642500Y266841D02*
X642504Y266846D01*
X658496D01*
X624779Y280870D02*
X625000Y281091D01*
X606750Y280650D02*
X606971Y280870D01*
X624779D01*
X625000Y281091D02*
X625528D01*
X639800Y290900D02*
X641750Y292850D01*
X625528Y281091D02*
X635336Y290900D01*
X639800D01*
X520364Y290986D02*
X526105D01*
X518250Y293100D02*
X520364Y290986D01*
X526105D02*
X533190Y283902D01*
X606750Y293350D02*
X607129Y293729D01*
X624620D02*
X625000Y294109D01*
X607129Y293729D02*
X624620D01*
X606750Y293350D02*
Y306000D01*
X595500Y224900D02*
Y306250D01*
X606750Y317500D01*
Y318000D01*
X595500Y224900D02*
X603250Y217150D01*
X606750D01*
X654750Y310662D02*
X654837Y310750D01*
X659500Y224250D02*
X665000Y229750D01*
X654750Y292350D02*
Y310662D01*
X657000Y290100D02*
X657500D01*
X665000Y282600D01*
Y229750D02*
Y282600D01*
X654750Y292350D02*
X657000Y290100D01*
X635850Y206500D02*
X662750D01*
X625500Y216850D02*
X635850Y206500D01*
X668837Y310750D02*
X671337Y308250D01*
X668087Y310750D02*
X668837D01*
X671337Y307500D02*
Y308250D01*
Y307500D02*
X681000Y297837D01*
Y224750D02*
Y297837D01*
X662750Y206500D02*
X681000Y224750D01*
X619750Y306000D02*
X629500D01*
X299500Y342200D02*
Y342949D01*
X303801Y347250D02*
X320500D01*
X299500Y342949D02*
X303801Y347250D01*
X299500Y330200D02*
Y330950D01*
X309301Y340750D02*
X320500D01*
X299500Y330950D02*
X309301Y340750D01*
X299500Y318100D02*
X309250D01*
Y328500D02*
X314750Y334000D01*
X314865D02*
X315115Y334250D01*
X314750Y334000D02*
X314865D01*
X309250Y318100D02*
Y328500D01*
X315115Y334250D02*
X320500D01*
X299500Y306100D02*
X309250D01*
Y306600D01*
X315500Y312850D02*
Y322728D01*
X309250Y306600D02*
X315500Y312850D01*
Y322728D02*
X320772Y328000D01*
X321871Y293729D02*
X322250Y293350D01*
X304000Y294109D02*
X304380Y293729D01*
X321871D01*
X322250Y293350D02*
Y306100D01*
X304221Y280870D02*
X322030D01*
X322250Y280650D01*
X304000Y281091D02*
X304221Y280870D01*
X301190Y283374D02*
Y283902D01*
X303472Y281091D02*
X304000D01*
X301190Y283374D02*
X303472Y281091D01*
X273250Y309749D02*
X274250Y310750D01*
X286496Y267846D02*
X286500Y267841D01*
X271000Y267850D02*
X271005Y267846D01*
X286496D01*
X322196Y267896D02*
X322250Y267950D01*
X286500Y267841D02*
X286554Y267896D01*
X322196D01*
X322150Y242450D02*
X322250Y242550D01*
X304000Y242350D02*
X304100Y242450D01*
X322150D01*
X303996Y242346D02*
X304000Y242350D01*
X286750Y242341D02*
X286755Y242346D01*
X303996D01*
X286750Y229858D02*
X286755Y229854D01*
X303996D02*
X304000Y229850D01*
X286755Y229854D02*
X303996D01*
X304000Y229850D02*
X322250D01*
X322812Y191188D02*
Y198538D01*
X304000Y216850D02*
X304500D01*
X322812Y191188D02*
X327500Y186500D01*
X304500Y216850D02*
X322812Y198538D01*
X286750Y216841D02*
X287278D01*
X293687Y223250D01*
X312650D01*
X318750Y217150D01*
X264139Y207861D02*
X285500Y186500D01*
X264139Y283989D02*
X270500Y290350D01*
X264139Y207861D02*
Y283989D01*
X271000Y290350D02*
X273250Y292600D01*
Y309749D01*
X270500Y290350D02*
X271000D01*
X274250Y324250D02*
X275000D01*
X278250Y327500D01*
X287000Y329500D02*
Y330200D01*
X285000Y327500D02*
X287000Y329500D01*
X278250Y327500D02*
X285000D01*
X261000Y324250D02*
X261750D01*
X264250Y326750D02*
Y327068D01*
X261750Y324250D02*
X264250Y326750D01*
X273750Y164250D02*
X305250D01*
X327500Y186500D01*
X247750Y190250D02*
X273750Y164250D01*
X247750Y190250D02*
Y297500D01*
X257750Y307500D02*
Y308250D01*
X260250Y310750D02*
X261000D01*
X247750Y297500D02*
X257750Y307500D01*
Y308250D02*
X260250Y310750D01*
X270751Y356750D02*
X271133Y356367D01*
X273582D02*
X287000Y342949D01*
X271133Y356367D02*
X273582D01*
X287000Y330950D02*
X292889Y336838D01*
X287000Y330200D02*
Y330950D01*
X292889Y336838D02*
Y349361D01*
X280750Y361500D02*
X292889Y349361D01*
X280750Y361500D02*
Y384500D01*
X270750Y394500D02*
X280750Y384500D01*
X303500Y373250D02*
Y393500D01*
X303500Y360500D02*
X303500Y360500D01*
Y373250D01*
X303500Y360500D02*
X303654Y360345D01*
X320405D02*
X320500Y360250D01*
X303654Y360345D02*
X320405D01*
X396400Y342329D02*
Y343079D01*
X376500Y360250D02*
X391230D01*
X396400Y354329D02*
Y355079D01*
X391230Y360250D02*
X396400Y355079D01*
X376500Y353750D02*
X385730D01*
X396400Y343079D01*
X425368Y365367D02*
X425750Y365750D01*
X419188Y365367D02*
X425368D01*
X408900Y355079D02*
X419188Y365367D01*
X422087Y324250D02*
X422837D01*
X419587Y326750D02*
Y330893D01*
X408900Y341580D02*
Y342329D01*
X419587Y326750D02*
X422087Y324250D01*
X408900Y341580D02*
X419587Y330893D01*
X408900Y342329D02*
Y343079D01*
X403011Y348969D02*
X408900Y343079D01*
X403011Y348969D02*
Y380761D01*
X425750Y403500D01*
X348750Y328000D02*
X368000Y347250D01*
X320772Y328000D02*
X348750D01*
X368000Y347250D02*
X376500D01*
X380019Y334250D02*
X380250Y334019D01*
X376500Y334250D02*
X380019D01*
X387750Y318000D02*
Y318500D01*
X380250Y326000D02*
X387750Y318500D01*
X380250Y326000D02*
Y334019D01*
X387750Y318000D02*
X397500D01*
X399500Y308750D02*
X400250D01*
X397500Y306000D02*
Y306750D01*
X400250Y308750D02*
X403750Y312250D01*
X397500Y306750D02*
X399500Y308750D01*
X403750Y312250D02*
Y323500D01*
X376500Y340750D02*
X386500D01*
X403750Y323500D01*
X287000Y342200D02*
Y342949D01*
Y341500D02*
Y342200D01*
X264250Y327068D02*
X269432Y332250D01*
X277750D01*
X287000Y341500D01*
X408900Y354329D02*
Y355079D01*
X425750Y365750D02*
X426000D01*
X374750Y217150D02*
X378250D01*
X384350Y223250D01*
X409972Y216591D02*
X410500D01*
X384350Y223250D02*
X403313D01*
X409972Y216591D01*
X374750Y229850D02*
X393000D01*
X393121Y229729D02*
X410379D01*
X393000Y229850D02*
X393121Y229729D01*
X410379D02*
X410500Y229608D01*
X392850Y242400D02*
X393000Y242250D01*
X374750Y242550D02*
X374900Y242400D01*
X392850D01*
X410491Y242241D02*
X410500Y242233D01*
X393000Y242250D02*
X393009Y242241D01*
X410491D01*
X375304Y267395D02*
X409946D01*
X374750Y267950D02*
X375304Y267395D01*
X409946D02*
X410500Y266841D01*
X426496Y266845D02*
X426500Y266850D01*
X410500Y266841D02*
X410504Y266845D01*
X426496D01*
X392779Y280870D02*
X393000Y281091D01*
X374750Y280650D02*
X374971Y280870D01*
X392779D01*
X393000Y281091D02*
X393528D01*
X407800Y290900D02*
X409750Y292850D01*
X393528Y281091D02*
X403337Y290900D01*
X407800D01*
X288364Y290986D02*
X294105D01*
X286250Y293100D02*
X288364Y290986D01*
X294105D02*
X301190Y283902D01*
X374750Y293350D02*
X375130Y293729D01*
X392621D02*
X393000Y294109D01*
X375130Y293729D02*
X392621D01*
X374750Y293350D02*
Y306000D01*
X363500Y224900D02*
Y306250D01*
X374750Y317500D01*
Y318000D01*
X363500Y224900D02*
X371250Y217150D01*
X374750D01*
X422750Y310662D02*
X422837Y310750D01*
X427500Y224250D02*
X433000Y229750D01*
X422750Y292350D02*
Y310662D01*
X425000Y290100D02*
X425500D01*
X433000Y282600D01*
Y229750D02*
Y282600D01*
X422750Y292350D02*
X425000Y290100D01*
X403850Y206500D02*
X430750D01*
X393500Y216850D02*
X403850Y206500D01*
X436838Y310750D02*
X439338Y308250D01*
X436087Y310750D02*
X436838D01*
X439338Y307500D02*
Y308250D01*
Y307500D02*
X449000Y297837D01*
Y224750D02*
Y297837D01*
X430750Y206500D02*
X449000Y224750D01*
X387750Y306000D02*
X397500D01*
X171250Y883250D02*
Y896250D01*
X683250Y843250D02*
X705250Y821250D01*
Y718000D02*
Y821250D01*
X686000Y698750D02*
X705250Y718000D01*
X653500Y698750D02*
X686000D01*
X516500Y732500D02*
X656850D01*
X683100Y706250D01*
X645000Y621750D02*
X645625Y622375D01*
X645000Y621750D02*
X645000Y621750D01*
X644875Y621625D02*
X645000Y621750D01*
X645625Y622375D02*
Y632625D01*
X646250Y633250D01*
X360250Y695750D02*
Y703500D01*
X330000Y733750D02*
X360250Y703500D01*
X313500Y653500D02*
X340000D01*
X313500Y647000D02*
X335000D01*
X313500Y640500D02*
X330000D01*
X418500Y627500D02*
X477500Y686500D01*
X497500D01*
X369500Y634000D02*
X418000D01*
X485250Y701250D02*
X497750D01*
X418000Y634000D02*
X485250Y701250D01*
X369500Y627500D02*
X418500D01*
X510500Y713750D02*
Y714250D01*
X513250Y717000D02*
X513750D01*
X523500Y726750D02*
X608150D01*
X510500Y714250D02*
X513250Y717000D01*
X513750D02*
X523500Y726750D01*
X497500Y713750D02*
X497750Y713500D01*
Y701250D02*
Y713500D01*
X497500Y674212D02*
X497750Y673962D01*
X497500Y674212D02*
Y686500D01*
X504000Y720000D02*
X516500Y732500D01*
X504000Y693500D02*
Y720000D01*
X683000Y666500D02*
Y668050D01*
X504000Y693500D02*
X510500Y687000D01*
Y686500D02*
Y687000D01*
X608150Y726750D02*
X628650Y706250D01*
X582500Y563250D02*
Y575500D01*
X369500Y608000D02*
X495750D01*
X625500Y396250D02*
Y469250D01*
X343250Y602250D02*
X492500D01*
X625500Y469250D01*
X324500Y621000D02*
X343250Y602250D01*
X595750Y563000D02*
X628187D01*
X642437Y577250D01*
X582500Y563250D02*
X582750Y563000D01*
X369500Y614500D02*
X498250D01*
X546000Y662250D01*
X546000Y701250D02*
X546000Y701250D01*
X533500Y701250D02*
X546000D01*
X546000Y662250D02*
Y701250D01*
Y714250D02*
X546039Y714289D01*
X564674D01*
X455000Y621000D02*
X477500Y643500D01*
X369500Y621000D02*
X455000D01*
X477500Y643500D02*
Y644000D01*
X488000D01*
X369500Y653500D02*
Y662250D01*
X313500Y621000D02*
X324500D01*
X323000Y614500D02*
X327250Y610250D01*
X313500Y614500D02*
X323000D01*
X466750Y597000D02*
X576250Y487500D01*
X425000Y597000D02*
X466750D01*
X430000Y592000D02*
X464250D01*
X569750Y486500D01*
X415000Y587000D02*
X425000Y597000D01*
X462000Y587000D02*
X563250Y485750D01*
X425000Y587000D02*
X462000D01*
X624750Y395500D02*
X625500Y396250D01*
X608750Y395500D02*
X624750D01*
X376750Y395500D02*
X377500Y396250D01*
X393500D01*
X160250D02*
X168750D01*
X144250D02*
X160250D01*
X143500Y395500D02*
X144250Y396250D01*
X303654Y634096D02*
X313404D01*
X313500Y634000D01*
X300000Y637750D02*
X303654Y634096D01*
X300000Y637750D02*
Y662500D01*
X311500Y859850D02*
X311650Y860000D01*
X311500Y732250D02*
Y859850D01*
X300950Y663450D02*
X311800D01*
X300000Y662500D02*
X300950Y663450D01*
X311800D02*
X312750Y664400D01*
X300000Y662500D02*
Y675250D01*
X346500Y393750D02*
X360500Y379750D01*
X329000Y373250D02*
X333500Y377750D01*
Y523250D01*
X320500Y379750D02*
X325828D01*
X327750Y381671D02*
Y527500D01*
X340250Y540000D01*
X325828Y379750D02*
X327750Y381671D01*
X584750Y379750D02*
X608500D01*
X576250Y388250D02*
X584750Y379750D01*
X576250Y388250D02*
Y487500D01*
X415000Y577000D02*
Y587000D01*
X552500Y366750D02*
X565000D01*
X569750Y371500D01*
Y486500D01*
X552500Y373250D02*
X560750D01*
X563250Y375750D02*
Y485750D01*
X560750Y373250D02*
X563250Y375750D01*
X556750Y380443D02*
Y484750D01*
X459500Y582000D02*
X556750Y484750D01*
X420000Y582000D02*
X459500D01*
X552500Y379750D02*
X556057D01*
X556750Y380443D01*
X335250Y545000D02*
X343250D01*
X360500Y379750D02*
X376500D01*
X320500Y373250D02*
X329000D01*
X328500Y366750D02*
X340000Y378250D01*
X320500Y366750D02*
X328500D01*
X154500Y306000D02*
X164250D01*
X197500Y206500D02*
X215750Y224750D01*
Y297837D01*
X206087Y307500D02*
X215750Y297837D01*
X206087Y307500D02*
Y308250D01*
X202837Y310750D02*
X203587D01*
X206087Y308250D01*
X160250Y216850D02*
X170600Y206500D01*
X197500D01*
X189500Y292350D02*
X191750Y290100D01*
X199750Y229750D02*
Y282600D01*
X192250Y290100D02*
X199750Y282600D01*
X191750Y290100D02*
X192250D01*
X189500Y292350D02*
Y310662D01*
X194250Y224250D02*
X199750Y229750D01*
X189500Y310662D02*
X189587Y310750D01*
X138000Y217150D02*
X141500D01*
X130250Y224900D02*
X138000Y217150D01*
X141500Y317500D02*
Y318000D01*
X130250Y306250D02*
X141500Y317500D01*
X130250Y224900D02*
Y306250D01*
X141500Y293350D02*
Y306000D01*
X141879Y293729D02*
X159370D01*
X159750Y294109D01*
X141500Y293350D02*
X141879Y293729D01*
X60855Y290986D02*
X67940Y283902D01*
X53000Y293100D02*
X55114Y290986D01*
X60855D01*
X170086Y290900D02*
X174550D01*
X160278Y281091D02*
X170086Y290900D01*
X174550D02*
X176500Y292850D01*
X159750Y281091D02*
X160278D01*
X141721Y280870D02*
X159529D01*
X141500Y280650D02*
X141721Y280870D01*
X159529D02*
X159750Y281091D01*
X177254Y266846D02*
X193246D01*
X177250Y266841D02*
X177254Y266846D01*
X193246D02*
X193250Y266850D01*
X176696Y267396D02*
X177250Y266841D01*
X141500Y267950D02*
X142054Y267396D01*
X176696D01*
X159758Y242241D02*
X177241D01*
X159750Y242250D02*
X159758Y242241D01*
X177241D02*
X177250Y242233D01*
X141650Y242400D02*
X159600D01*
X141500Y242550D02*
X141650Y242400D01*
X159600D02*
X159750Y242250D01*
X177129Y229729D02*
X177250Y229608D01*
X159750Y229850D02*
X159870Y229729D01*
X177129D01*
X141500Y229850D02*
X159750D01*
X170063Y223250D02*
X176722Y216591D01*
X151100Y223250D02*
X170063D01*
X176722Y216591D02*
X177250D01*
X145000Y217150D02*
X151100Y223250D01*
X141500Y217150D02*
X145000D01*
X174250Y530000D02*
X285250D01*
X277750Y545000D02*
X290500Y532250D01*
Y527750D02*
Y532250D01*
X270250Y545000D02*
X277750D01*
X171750Y535000D02*
X280250D01*
X107250Y399750D02*
Y456250D01*
X102000Y457750D02*
X174250Y530000D01*
X97000Y460250D02*
X171750Y535000D01*
X92094Y462344D02*
X169750Y540000D01*
X275250D01*
X127250Y379750D02*
X143250D01*
X107250Y399750D02*
X127250Y379750D01*
X102000Y374500D02*
Y457750D01*
X97000Y377750D02*
Y460250D01*
X94250Y366750D02*
X102000Y374500D01*
X92500Y373250D02*
X97000Y377750D01*
X91401Y379750D02*
X92094Y380443D01*
Y462344D01*
X87250Y379750D02*
X91401D01*
X87250Y366750D02*
X94250D01*
X87250Y373250D02*
X92500D01*
X192500Y365750D02*
X192750D01*
X175650Y354330D02*
Y355080D01*
X44500Y332250D02*
X53750Y341500D01*
X36182Y332250D02*
X44500D01*
X31000Y327068D02*
X36182Y332250D01*
X53750Y341500D02*
Y342200D01*
Y342950D01*
X153250Y340750D02*
X170500Y323500D01*
X143250Y340750D02*
X153250D01*
X170500Y312250D02*
Y323500D01*
X164250Y306750D02*
X166250Y308750D01*
X167000D02*
X170500Y312250D01*
X164250Y306000D02*
Y306750D01*
X166250Y308750D02*
X167000D01*
X154500Y318000D02*
X164250D01*
X147000Y326000D02*
Y334019D01*
Y326000D02*
X154500Y318500D01*
Y318000D02*
Y318500D01*
X143250Y334250D02*
X146769D01*
X147000Y334019D01*
X134750Y347250D02*
X143250D01*
X87521Y328000D02*
X115500D01*
X134750Y347250D01*
X169761Y380761D02*
X192500Y403500D01*
X169761Y348969D02*
Y380761D01*
Y348969D02*
X175650Y343080D01*
Y342330D02*
Y343080D01*
Y341580D02*
X186337Y330893D01*
Y326750D02*
X188837Y324250D01*
X175650Y341580D02*
Y342330D01*
X186337Y326750D02*
Y330893D01*
X188837Y324250D02*
X189587D01*
X175650Y355080D02*
X185938Y365368D01*
X192117D01*
X192500Y365750D01*
X143250Y373250D02*
X143346Y373346D01*
X159096D02*
X159250Y373500D01*
X152479Y353750D02*
X163150Y343080D01*
X143250Y353750D02*
X152479D01*
X157980Y360250D02*
X163150Y355080D01*
Y354330D02*
Y355080D01*
X143250Y360250D02*
X157980D01*
X163150Y342330D02*
Y343080D01*
X70404Y360345D02*
X87154D01*
X87250Y360250D01*
X70250Y360500D02*
X70404Y360345D01*
X70250Y360500D02*
Y373250D01*
X70250Y373250D01*
X70250Y360500D02*
X70250Y360500D01*
X70250Y373250D02*
Y393500D01*
X47500Y361500D02*
X59639Y349361D01*
Y336839D02*
Y349361D01*
X53750Y330200D02*
Y330950D01*
X59639Y336839D01*
X37883Y356367D02*
X40332D01*
X53750Y342950D01*
X37500Y356750D02*
X37883Y356367D01*
X24500Y308250D02*
X27000Y310750D01*
X14500Y297500D02*
X24500Y307500D01*
X27000Y310750D02*
X27750D01*
X24500Y307500D02*
Y308250D01*
X14500Y190250D02*
Y297500D01*
Y190250D02*
X40500Y164250D01*
X72000D02*
X94250Y186500D01*
X40500Y164250D02*
X72000D01*
X28500Y324250D02*
X31000Y326750D01*
Y327068D01*
X27750Y324250D02*
X28500D01*
X45000Y327500D02*
X51750D01*
X53750Y329500D01*
Y330200D01*
X41750Y324250D02*
X45000Y327500D01*
X41000Y324250D02*
X41750D01*
X37250Y290350D02*
X37750D01*
X40000Y292600D02*
Y309750D01*
X37750Y290350D02*
X40000Y292600D01*
X30889Y207861D02*
Y283989D01*
X37250Y290350D01*
X30889Y207861D02*
X52250Y186500D01*
X79400Y223250D02*
X85500Y217150D01*
X60437Y223250D02*
X79400D01*
X54028Y216842D02*
X60437Y223250D01*
X53500Y216842D02*
X54028D01*
X71250Y216850D02*
X89562Y198538D01*
Y191188D02*
X94250Y186500D01*
X70750Y216850D02*
X71250D01*
X89562Y191188D02*
Y198538D01*
X70750Y229850D02*
X89000D01*
X53504Y229854D02*
X70746D01*
X70750Y229850D01*
X53500Y229858D02*
X53504Y229854D01*
Y242346D02*
X70746D01*
X53500Y242341D02*
X53504Y242346D01*
X70746D02*
X70750Y242350D01*
X70850Y242450D02*
X88900D01*
X70750Y242350D02*
X70850Y242450D01*
X88900D02*
X89000Y242550D01*
X53304Y267896D02*
X88946D01*
X53250Y267842D02*
X53304Y267896D01*
X88946D02*
X89000Y267950D01*
X37754Y267846D02*
X53246D01*
X37750Y267850D02*
X37754Y267846D01*
X53246D02*
X53250Y267842D01*
X40000Y309750D02*
X41000Y310750D01*
X67940Y283374D02*
X70222Y281091D01*
X70750D01*
X67940Y283374D02*
Y283902D01*
X70750Y281091D02*
X70971Y280870D01*
X88779D02*
X89000Y280650D01*
X70971Y280870D02*
X88779D01*
X89000Y293350D02*
Y306100D01*
X71130Y293729D02*
X88621D01*
X70750Y294109D02*
X71130Y293729D01*
X88621D02*
X89000Y293350D01*
X82250Y322729D02*
X87521Y328000D01*
X76000Y306600D02*
X82250Y312850D01*
Y322729D01*
X76000Y306100D02*
Y306600D01*
X66250Y306100D02*
X76000D01*
X81865Y334250D02*
X87250D01*
X76000Y318100D02*
Y328500D01*
X81500Y334000D02*
X81615D01*
X81865Y334250D01*
X76000Y328500D02*
X81500Y334000D01*
X66250Y318100D02*
X76000D01*
X66250Y330950D02*
X76051Y340750D01*
X87250D01*
X66250Y330200D02*
Y330950D01*
Y342950D02*
X70550Y347250D01*
X87250D01*
X66250Y342200D02*
Y342950D01*
X56000Y825500D02*
Y834500D01*
X26500Y795750D02*
Y796500D01*
X26500Y782250D02*
Y783000D01*
X220500Y870500D02*
Y883700D01*
X220500Y870500D02*
X220500Y870500D01*
X207448Y870500D02*
X220500D01*
X283500Y648250D02*
Y729750D01*
X297750Y744000D01*
X171250Y867750D02*
Y883750D01*
X290250Y750000D02*
Y761000D01*
X220500Y883700D02*
Y896250D01*
X220500Y896250D02*
X220500Y896250D01*
Y883700D02*
X220500Y883700D01*
X171250Y896250D02*
X171250Y896250D01*
X274707Y596393D02*
X286993D01*
X287100Y596500D01*
X274600Y596286D02*
X274707Y596393D01*
X261493Y595893D02*
X274207D01*
X261100Y595500D02*
X261493Y595893D01*
X274207D02*
X274600Y596286D01*
X702250Y681500D02*
Y684250D01*
X715700Y666500D02*
Y668050D01*
X702250Y681500D02*
X715700Y668050D01*
X700000Y686500D02*
X702250Y684250D01*
X716251Y559501D02*
Y563863D01*
X725037Y572650D02*
X726587D01*
X729637Y575700D02*
Y577250D01*
X714250Y557500D02*
X716251Y559501D01*
X726587Y572650D02*
X729637Y575700D01*
X716251Y563863D02*
X725037Y572650D01*
X714250Y557500D02*
Y558000D01*
X670000Y557250D02*
X678000Y565250D01*
Y602500D01*
X655750Y686000D02*
X664000Y677750D01*
Y641250D02*
Y677750D01*
X691000Y602000D02*
Y602500D01*
X693250Y599750D02*
X693750D01*
X696937Y577250D02*
Y596563D01*
X691000Y602000D02*
X693250Y599750D01*
X693750D02*
X696937Y596563D01*
X683000Y647750D02*
Y666500D01*
X677000Y641750D02*
X683000Y647750D01*
X677000Y641250D02*
Y641750D01*
X659250Y628250D02*
X664000Y633000D01*
Y641250D01*
X657250Y628250D02*
X659250D01*
X678000Y602500D02*
Y614520D01*
X676250Y615250D02*
X677270D01*
X678000Y614520D01*
X645000Y621750D02*
X657250D01*
X657250Y621750D01*
D20*
X251748Y647000D02*
X261350D01*
X261350Y647000D01*
X251747Y647000D02*
X251748Y647000D01*
X21875Y403875D02*
Y416125D01*
X21500Y403500D02*
X21875Y403875D01*
Y416125D02*
X22250Y416500D01*
X21500Y394500D02*
X29750Y386250D01*
X37500D01*
X339367Y815383D02*
X354617D01*
X355000Y815000D01*
X331250Y823500D02*
X339367Y815383D01*
X330750Y823500D02*
X331250D01*
X376596Y373346D02*
X392346D01*
X376500Y373250D02*
X376596Y373346D01*
X392346D02*
X392500Y373500D01*
X608596Y373345D02*
X624345D01*
X624500Y373500D01*
X608500Y373250D02*
X608596Y373345D01*
X421000Y716250D02*
X421000Y716250D01*
X408500Y716250D02*
X421000D01*
X396000Y716750D02*
X396250Y716500D01*
X408250D02*
X408500Y716250D01*
X355000Y647000D02*
X369500D01*
X369500Y647000D01*
X386500D01*
X143346Y373346D02*
X159096D01*
X185271Y708500D02*
X187000Y706771D01*
Y667250D02*
Y706771D01*
X183250Y708500D02*
X185271D01*
X259718Y604214D02*
X260463Y604959D01*
X247350Y604214D02*
X259718D01*
X260463Y604959D02*
X260963D01*
X354000Y578250D02*
X366500D01*
X260273Y673964D02*
X261059Y674750D01*
Y675250D01*
X260273Y661750D02*
Y673964D01*
D25*
X292000Y662500D02*
D03*
X300000D02*
D03*
X207448Y803751D02*
D03*
X215448D02*
D03*
X207448Y816501D02*
D03*
X215448D02*
D03*
X161948Y815001D02*
D03*
X153948D02*
D03*
X535500Y373250D02*
D03*
X527500D02*
D03*
X303500Y360500D02*
D03*
X295500D02*
D03*
X303500Y373250D02*
D03*
X295500D02*
D03*
X70250Y373250D02*
D03*
X62250D02*
D03*
X70250Y360500D02*
D03*
X62250D02*
D03*
X269350Y632000D02*
D03*
X261350D02*
D03*
X535500Y360500D02*
D03*
X527500D02*
D03*
X300000Y675250D02*
D03*
X292000D02*
D03*
D27*
X158250Y863750D02*
D03*
Y871750D02*
D03*
X108750Y863750D02*
D03*
Y871750D02*
D03*
X392500Y373500D02*
D03*
Y365500D02*
D03*
X159250Y373500D02*
D03*
Y365500D02*
D03*
X386500Y639000D02*
D03*
Y647000D02*
D03*
X207448Y870500D02*
D03*
Y862500D02*
D03*
X624500Y373500D02*
D03*
Y365500D02*
D03*
D33*
X21500Y380500D02*
D03*
Y367000D02*
D03*
X312750Y677900D02*
D03*
Y664400D02*
D03*
X274250Y310750D02*
D03*
Y324250D02*
D03*
X261000Y310750D02*
D03*
Y324250D02*
D03*
X436087Y310750D02*
D03*
Y324250D02*
D03*
X422837Y310750D02*
D03*
Y324250D02*
D03*
X189587Y310750D02*
D03*
Y324250D02*
D03*
X202837Y310750D02*
D03*
Y324250D02*
D03*
X27750Y310750D02*
D03*
Y324250D02*
D03*
X41000Y310750D02*
D03*
Y324250D02*
D03*
X654837Y310750D02*
D03*
Y324250D02*
D03*
X668087Y310750D02*
D03*
Y324250D02*
D03*
X493000Y310750D02*
D03*
Y324250D02*
D03*
X506250Y310750D02*
D03*
Y324250D02*
D03*
D35*
X285850Y648250D02*
D03*
Y639250D02*
D03*
X369500Y662250D02*
D03*
Y671250D02*
D03*
X290000Y759250D02*
D03*
Y768250D02*
D03*
D43*
X595750Y563000D02*
D03*
X582750D02*
D03*
X497500Y686500D02*
D03*
X510500D02*
D03*
X497500Y713750D02*
D03*
X510500D02*
D03*
X533500Y701250D02*
D03*
X520500D02*
D03*
X501000Y644000D02*
D03*
X488000D02*
D03*
X464500D02*
D03*
X477500D02*
D03*
X277250Y750000D02*
D03*
X290250D02*
D03*
X171250Y883750D02*
D03*
X158250D02*
D03*
X158250Y896250D02*
D03*
X171250D02*
D03*
X273250Y293100D02*
D03*
X286250D02*
D03*
X322250Y306100D02*
D03*
X309250D02*
D03*
X258000Y267850D02*
D03*
X271000D02*
D03*
X322250Y318100D02*
D03*
X309250D02*
D03*
X374750Y318000D02*
D03*
X387750D02*
D03*
X422750Y292850D02*
D03*
X409750D02*
D03*
X374750Y306000D02*
D03*
X387750D02*
D03*
X439500Y266850D02*
D03*
X426500D02*
D03*
X206250Y266850D02*
D03*
X193250D02*
D03*
X141500Y306000D02*
D03*
X154500D02*
D03*
X189500Y292850D02*
D03*
X176500D02*
D03*
X141500Y318000D02*
D03*
X154500D02*
D03*
X89000Y318100D02*
D03*
X76000D02*
D03*
X24750Y267850D02*
D03*
X37750D02*
D03*
X89000Y306100D02*
D03*
X76000D02*
D03*
X40000Y293100D02*
D03*
X53000D02*
D03*
X207500Y896250D02*
D03*
X220500D02*
D03*
X86750Y826750D02*
D03*
X99750D02*
D03*
X220500Y883700D02*
D03*
X207500D02*
D03*
X108750Y882853D02*
D03*
X121750D02*
D03*
X671500Y266850D02*
D03*
X658500D02*
D03*
X606750Y306000D02*
D03*
X619750D02*
D03*
X654750Y292850D02*
D03*
X641750D02*
D03*
X606750Y318000D02*
D03*
X619750D02*
D03*
X554250Y318100D02*
D03*
X541250D02*
D03*
X490000Y267850D02*
D03*
X503000D02*
D03*
X554250Y306100D02*
D03*
X541250D02*
D03*
X505251Y293100D02*
D03*
X518250D02*
D03*
X632000Y621750D02*
D03*
X645000D02*
D03*
X678000Y602500D02*
D03*
X691000D02*
D03*
X664000Y641250D02*
D03*
X677000D02*
D03*
X701250Y557500D02*
D03*
X714250D02*
D03*
X687000Y686500D02*
D03*
X700000D02*
D03*
X40000Y824000D02*
D03*
X27000D02*
D03*
D44*
X139250Y815750D02*
D03*
X126750D02*
D03*
X99000Y840000D02*
D03*
X86500D02*
D03*
X208500Y405250D02*
D03*
X221000D02*
D03*
X595000Y575500D02*
D03*
X582500D02*
D03*
X497750Y701250D02*
D03*
X510250D02*
D03*
X497750Y673962D02*
D03*
X510250D02*
D03*
X299501Y306100D02*
D03*
X287001D02*
D03*
X299501Y318100D02*
D03*
X287001D02*
D03*
X397500Y318000D02*
D03*
X410000D02*
D03*
X397500Y306000D02*
D03*
X410000D02*
D03*
X242000Y392750D02*
D03*
X254500D02*
D03*
X454250Y367000D02*
D03*
X441750D02*
D03*
X396400Y354329D02*
D03*
X408900D02*
D03*
X396400Y342329D02*
D03*
X408900D02*
D03*
X242000Y355000D02*
D03*
X254500D02*
D03*
X454250Y405250D02*
D03*
X441750D02*
D03*
X299501Y330200D02*
D03*
X287001D02*
D03*
X299501Y342200D02*
D03*
X287001D02*
D03*
X66250Y342200D02*
D03*
X53750D02*
D03*
X66250Y330200D02*
D03*
X53750D02*
D03*
X163150Y342330D02*
D03*
X175650D02*
D03*
X163150Y354330D02*
D03*
X175650D02*
D03*
X221000Y367500D02*
D03*
X208500D02*
D03*
X164250Y306000D02*
D03*
X176750D02*
D03*
X164250Y318000D02*
D03*
X176750D02*
D03*
X66250Y318100D02*
D03*
X53750D02*
D03*
X66250Y306100D02*
D03*
X53750D02*
D03*
X121500Y895500D02*
D03*
X109000D02*
D03*
X531500Y342200D02*
D03*
X519001D02*
D03*
X531500Y330200D02*
D03*
X519001D02*
D03*
X686250Y405250D02*
D03*
X673750D02*
D03*
X474250Y355500D02*
D03*
X486750D02*
D03*
X628400Y342330D02*
D03*
X640900D02*
D03*
X628400Y354330D02*
D03*
X640900D02*
D03*
X686250Y367250D02*
D03*
X673750D02*
D03*
X474250Y392750D02*
D03*
X486750D02*
D03*
X629500Y306000D02*
D03*
X642000D02*
D03*
X629500Y318000D02*
D03*
X642000D02*
D03*
X531500Y318100D02*
D03*
X519001D02*
D03*
X531500Y306100D02*
D03*
X519001D02*
D03*
X651250Y603250D02*
D03*
X663750D02*
D03*
D45*
X593750Y588500D02*
D03*
Y595000D02*
D03*
Y601500D02*
D03*
X574750D02*
D03*
Y595000D02*
D03*
Y588500D02*
D03*
X657250Y615250D02*
D03*
Y621750D02*
D03*
Y628250D02*
D03*
X676250D02*
D03*
Y621750D02*
D03*
Y615250D02*
D03*
D50*
X325000Y581250D02*
D03*
X90750Y560250D02*
D03*
X637650Y434250D02*
D03*
X523350D02*
D03*
X405650Y434250D02*
D03*
X291350D02*
D03*
X172400Y434250D02*
D03*
X58100D02*
D03*
D60*
X522000Y763000D02*
D03*
X480000D02*
D03*
X438000D02*
D03*
X522000Y805000D02*
D03*
X480000D02*
D03*
X187000Y667250D02*
D03*
Y625250D02*
D03*
Y583250D02*
D03*
X145000Y667250D02*
D03*
Y625250D02*
D03*
X780000Y805000D02*
D03*
X822000D02*
D03*
X738000Y763000D02*
D03*
X780000D02*
D03*
X822000D02*
D03*
X517500Y186500D02*
D03*
X559500D02*
D03*
X601500D02*
D03*
X643500D02*
D03*
X517500Y144500D02*
D03*
X559500D02*
D03*
X601500D02*
D03*
X813000Y477000D02*
D03*
Y519000D02*
D03*
Y561000D02*
D03*
Y603000D02*
D03*
X855000Y477000D02*
D03*
Y519000D02*
D03*
Y561000D02*
D03*
X52250Y186500D02*
D03*
X94250D02*
D03*
X136250D02*
D03*
X178250D02*
D03*
X52250Y144500D02*
D03*
X94250D02*
D03*
X136250D02*
D03*
X285500Y186500D02*
D03*
X327500D02*
D03*
X369500D02*
D03*
X411500D02*
D03*
X285500Y144500D02*
D03*
X327500D02*
D03*
X369500D02*
D03*
X672000Y763000D02*
D03*
X630000D02*
D03*
X588000D02*
D03*
X672000Y805000D02*
D03*
X630000D02*
D03*
D61*
X438000Y805000D02*
D03*
X738000D02*
D03*
X643500Y144500D02*
D03*
X178250D02*
D03*
X411500Y144500D02*
D03*
X588000Y805000D02*
D03*
D62*
X522000Y878000D02*
D03*
X438000D02*
D03*
X72000Y667250D02*
D03*
Y583250D02*
D03*
X738000Y878000D02*
D03*
X822000D02*
D03*
X517500Y71500D02*
D03*
X643500D02*
D03*
X928000Y477000D02*
D03*
Y603000D02*
D03*
X52250Y71500D02*
D03*
X178250D02*
D03*
X285500Y71500D02*
D03*
X411500D02*
D03*
X672000Y878000D02*
D03*
X588000D02*
D03*
D64*
X145000Y583250D02*
D03*
X855000Y603000D02*
D03*
D66*
X799444Y710955D02*
D03*
Y669045D02*
D03*
X854562D02*
D03*
D67*
Y710955D02*
D03*
D68*
X927460Y690000D02*
D03*
D74*
X286250Y860000D02*
D03*
X298950D02*
D03*
X311650D02*
D03*
X324350D02*
D03*
X337050D02*
D03*
X286250Y900300D02*
D03*
X298950D02*
D03*
X311650D02*
D03*
X324350D02*
D03*
X337050D02*
D03*
D75*
X765000Y280000D02*
D03*
X915000D02*
D03*
D76*
X980000Y856000D02*
D03*
Y796000D02*
D03*
Y736000D02*
D03*
Y676000D02*
D03*
Y616000D02*
D03*
Y556000D02*
D03*
Y496000D02*
D03*
Y436000D02*
D03*
Y376000D02*
D03*
Y316000D02*
D03*
Y256000D02*
D03*
Y196000D02*
D03*
Y136000D02*
D03*
X965000Y826000D02*
D03*
X950000Y736000D02*
D03*
Y676000D02*
D03*
Y616000D02*
D03*
Y556000D02*
D03*
Y496000D02*
D03*
Y436000D02*
D03*
X965000Y406000D02*
D03*
X950000Y376000D02*
D03*
X965000Y346000D02*
D03*
X950000Y316000D02*
D03*
X965000Y286000D02*
D03*
X950000Y256000D02*
D03*
X965000Y226000D02*
D03*
X950000Y196000D02*
D03*
X965000Y166000D02*
D03*
X950000Y136000D02*
D03*
X965000Y106000D02*
D03*
X935000Y766000D02*
D03*
X920000Y736000D02*
D03*
X935000Y646000D02*
D03*
X920000Y556000D02*
D03*
X935000Y526000D02*
D03*
X920000Y496000D02*
D03*
Y436000D02*
D03*
X935000Y406000D02*
D03*
X920000Y376000D02*
D03*
X935000Y346000D02*
D03*
Y226000D02*
D03*
X920000Y196000D02*
D03*
X935000Y166000D02*
D03*
X920000Y136000D02*
D03*
X935000Y106000D02*
D03*
X890000Y916000D02*
D03*
Y796000D02*
D03*
X905000Y766000D02*
D03*
X890000Y736000D02*
D03*
X905000Y706000D02*
D03*
Y646000D02*
D03*
X890000Y616000D02*
D03*
X905000Y586000D02*
D03*
X890000Y556000D02*
D03*
X905000Y526000D02*
D03*
Y466000D02*
D03*
X890000Y436000D02*
D03*
X905000Y406000D02*
D03*
X890000Y376000D02*
D03*
X905000Y346000D02*
D03*
Y226000D02*
D03*
X890000Y196000D02*
D03*
X905000Y166000D02*
D03*
X890000Y136000D02*
D03*
X905000Y106000D02*
D03*
X890000Y16000D02*
D03*
X875000Y886000D02*
D03*
X860000Y856000D02*
D03*
X875000Y826000D02*
D03*
X860000Y796000D02*
D03*
X875000Y766000D02*
D03*
Y586000D02*
D03*
Y406000D02*
D03*
X860000Y376000D02*
D03*
X875000Y346000D02*
D03*
X860000Y316000D02*
D03*
Y256000D02*
D03*
X875000Y226000D02*
D03*
X860000Y196000D02*
D03*
X875000Y166000D02*
D03*
X860000Y136000D02*
D03*
X875000Y106000D02*
D03*
X860000Y16000D02*
D03*
X830000Y916000D02*
D03*
X845000Y886000D02*
D03*
X830000Y856000D02*
D03*
X845000Y406000D02*
D03*
X830000Y376000D02*
D03*
X845000Y346000D02*
D03*
X830000Y316000D02*
D03*
X845000Y286000D02*
D03*
X830000Y256000D02*
D03*
X845000Y226000D02*
D03*
X830000Y196000D02*
D03*
X845000Y166000D02*
D03*
X830000Y136000D02*
D03*
X845000Y106000D02*
D03*
X830000Y16000D02*
D03*
X800000Y916000D02*
D03*
Y856000D02*
D03*
X815000Y406000D02*
D03*
X800000Y376000D02*
D03*
X815000Y346000D02*
D03*
X800000Y316000D02*
D03*
X815000Y286000D02*
D03*
X800000Y256000D02*
D03*
X815000Y226000D02*
D03*
X800000Y196000D02*
D03*
X815000Y166000D02*
D03*
X800000Y136000D02*
D03*
X815000Y106000D02*
D03*
X800000Y16000D02*
D03*
X770000Y916000D02*
D03*
X785000Y886000D02*
D03*
X770000Y856000D02*
D03*
Y616000D02*
D03*
Y556000D02*
D03*
Y496000D02*
D03*
X785000Y406000D02*
D03*
Y346000D02*
D03*
Y226000D02*
D03*
X770000Y196000D02*
D03*
X785000Y166000D02*
D03*
X770000Y136000D02*
D03*
X785000Y106000D02*
D03*
X770000Y16000D02*
D03*
X740000Y916000D02*
D03*
Y856000D02*
D03*
Y616000D02*
D03*
X755000Y406000D02*
D03*
X740000Y376000D02*
D03*
X755000Y346000D02*
D03*
Y226000D02*
D03*
X740000Y196000D02*
D03*
X755000Y166000D02*
D03*
X740000Y136000D02*
D03*
X755000Y106000D02*
D03*
X740000Y16000D02*
D03*
X710000Y916000D02*
D03*
Y856000D02*
D03*
Y496000D02*
D03*
X725000Y406000D02*
D03*
Y346000D02*
D03*
X710000Y316000D02*
D03*
Y256000D02*
D03*
X725000Y226000D02*
D03*
X710000Y196000D02*
D03*
X725000Y166000D02*
D03*
X710000Y136000D02*
D03*
X725000Y106000D02*
D03*
X710000Y16000D02*
D03*
X680000Y916000D02*
D03*
X695000Y886000D02*
D03*
X680000Y856000D02*
D03*
Y496000D02*
D03*
Y316000D02*
D03*
X695000Y286000D02*
D03*
Y226000D02*
D03*
X680000Y196000D02*
D03*
X695000Y166000D02*
D03*
Y106000D02*
D03*
X680000Y76000D02*
D03*
X695000Y46000D02*
D03*
X680000Y16000D02*
D03*
X650000Y916000D02*
D03*
Y856000D02*
D03*
Y496000D02*
D03*
X665000Y466000D02*
D03*
Y46000D02*
D03*
X650000Y16000D02*
D03*
X620000Y916000D02*
D03*
X635000Y886000D02*
D03*
X620000Y856000D02*
D03*
Y496000D02*
D03*
Y196000D02*
D03*
Y76000D02*
D03*
X635000Y46000D02*
D03*
X620000Y16000D02*
D03*
X590000Y916000D02*
D03*
Y856000D02*
D03*
X605000Y526000D02*
D03*
X590000Y316000D02*
D03*
Y76000D02*
D03*
X605000Y46000D02*
D03*
X590000Y16000D02*
D03*
X560000Y916000D02*
D03*
Y856000D02*
D03*
Y76000D02*
D03*
X575000Y46000D02*
D03*
X560000Y16000D02*
D03*
X530000Y916000D02*
D03*
X545000Y886000D02*
D03*
X530000Y856000D02*
D03*
Y496000D02*
D03*
X545000Y46000D02*
D03*
X530000Y16000D02*
D03*
X500000Y916000D02*
D03*
Y856000D02*
D03*
Y496000D02*
D03*
Y436000D02*
D03*
X515000Y46000D02*
D03*
X500000Y16000D02*
D03*
X470000Y916000D02*
D03*
X485000Y886000D02*
D03*
X470000Y856000D02*
D03*
Y556000D02*
D03*
X485000Y526000D02*
D03*
X470000Y496000D02*
D03*
X485000Y466000D02*
D03*
X470000Y316000D02*
D03*
Y256000D02*
D03*
Y196000D02*
D03*
Y136000D02*
D03*
X485000Y106000D02*
D03*
X470000Y76000D02*
D03*
X485000Y46000D02*
D03*
X470000Y16000D02*
D03*
X440000Y916000D02*
D03*
Y856000D02*
D03*
X455000Y526000D02*
D03*
X440000Y496000D02*
D03*
X455000Y466000D02*
D03*
Y286000D02*
D03*
Y226000D02*
D03*
X440000Y196000D02*
D03*
X455000Y106000D02*
D03*
X440000Y76000D02*
D03*
X455000Y46000D02*
D03*
X440000Y16000D02*
D03*
X410000Y916000D02*
D03*
Y856000D02*
D03*
X425000Y526000D02*
D03*
X410000Y496000D02*
D03*
X425000Y466000D02*
D03*
Y46000D02*
D03*
X410000Y16000D02*
D03*
X380000Y916000D02*
D03*
X395000Y886000D02*
D03*
X380000Y76000D02*
D03*
X395000Y46000D02*
D03*
X380000Y16000D02*
D03*
X350000Y316000D02*
D03*
Y196000D02*
D03*
Y76000D02*
D03*
X365000Y46000D02*
D03*
X350000Y16000D02*
D03*
X320000Y76000D02*
D03*
X335000Y46000D02*
D03*
X320000Y16000D02*
D03*
X305000Y826000D02*
D03*
Y46000D02*
D03*
X290000Y16000D02*
D03*
X260000Y856000D02*
D03*
X275000Y826000D02*
D03*
Y466000D02*
D03*
X260000Y196000D02*
D03*
Y76000D02*
D03*
X275000Y46000D02*
D03*
X260000Y16000D02*
D03*
X230000Y916000D02*
D03*
X245000Y886000D02*
D03*
X230000Y316000D02*
D03*
Y256000D02*
D03*
Y196000D02*
D03*
Y136000D02*
D03*
X245000Y106000D02*
D03*
X230000Y76000D02*
D03*
X245000Y46000D02*
D03*
X230000Y16000D02*
D03*
X215000Y706000D02*
D03*
X200000Y556000D02*
D03*
X215000Y466000D02*
D03*
Y106000D02*
D03*
X200000Y76000D02*
D03*
X215000Y46000D02*
D03*
X200000Y16000D02*
D03*
X170000Y556000D02*
D03*
X185000Y466000D02*
D03*
Y46000D02*
D03*
X170000Y16000D02*
D03*
X140000Y76000D02*
D03*
X155000Y46000D02*
D03*
X140000Y16000D02*
D03*
X125000Y526000D02*
D03*
X110000Y316000D02*
D03*
Y76000D02*
D03*
X125000Y46000D02*
D03*
X110000Y16000D02*
D03*
X80000Y616000D02*
D03*
Y76000D02*
D03*
X95000Y46000D02*
D03*
X80000Y16000D02*
D03*
X65000Y706000D02*
D03*
X50000Y676000D02*
D03*
Y616000D02*
D03*
Y556000D02*
D03*
X65000Y46000D02*
D03*
X50000Y16000D02*
D03*
X35000Y706000D02*
D03*
Y646000D02*
D03*
X20000Y616000D02*
D03*
X35000Y586000D02*
D03*
X20000Y556000D02*
D03*
Y196000D02*
D03*
Y76000D02*
D03*
X35000Y46000D02*
D03*
X20000Y16000D02*
D03*
X121750Y882853D02*
D03*
X103900Y785000D02*
D03*
X555000Y600000D02*
D03*
X261350Y647000D02*
D03*
X673750Y356750D02*
D03*
X673750Y394500D02*
D03*
X486750Y365750D02*
D03*
X486750Y403500D02*
D03*
X441750Y356750D02*
D03*
X254750Y365751D02*
D03*
X254750Y403500D02*
D03*
X441750Y394499D02*
D03*
X208500Y403500D02*
D03*
X21500Y356750D02*
D03*
X208500Y394500D02*
D03*
X208500Y356750D02*
D03*
X21500Y403500D02*
D03*
X21500Y365750D02*
D03*
X355000Y803750D02*
D03*
X718630Y633270D02*
D03*
X701630D02*
D03*
X355000Y815000D02*
D03*
X233000Y758500D02*
D03*
X211500Y758500D02*
D03*
X188250Y755166D02*
D03*
X170750Y732167D02*
D03*
X350250Y530000D02*
D03*
X345250Y535000D02*
D03*
X176750Y318000D02*
D03*
X421000Y716250D02*
D03*
X168750Y279250D02*
D03*
X177250Y255250D02*
D03*
X53500Y255359D02*
D03*
X89000Y255250D02*
D03*
X62000Y278750D02*
D03*
X410000Y318000D02*
D03*
X402000Y279250D02*
D03*
X410500Y255250D02*
D03*
X286750Y255358D02*
D03*
X322250Y255250D02*
D03*
X295250Y278750D02*
D03*
X527250Y278750D02*
D03*
X554250Y255250D02*
D03*
X518750Y255359D02*
D03*
X642500Y255250D02*
D03*
X634000Y279250D02*
D03*
X519001Y318100D02*
D03*
X642000Y318000D02*
D03*
X62250Y360500D02*
D03*
X99000Y360500D02*
D03*
X295500Y360500D02*
D03*
X332250Y360500D02*
D03*
X564250Y360500D02*
D03*
X527500Y360500D02*
D03*
X288500Y318100D02*
D03*
X53750Y318100D02*
D03*
X141500Y255250D02*
D03*
X374750Y255250D02*
D03*
X606750Y255250D02*
D03*
X600750Y651500D02*
D03*
X219000Y622000D02*
D03*
X189750Y801000D02*
D03*
X185000Y827750D02*
D03*
Y817250D02*
D03*
X749861Y448496D02*
D03*
X704750Y465000D02*
D03*
X223500Y810250D02*
D03*
X254000Y829000D02*
D03*
X683100Y706250D02*
D03*
X360250Y695750D02*
D03*
X369500Y671250D02*
D03*
X330000Y640500D02*
D03*
X335000Y647000D02*
D03*
X340000Y653500D02*
D03*
X355000Y647000D02*
D03*
X312750Y677900D02*
D03*
X311500Y732250D02*
D03*
X415000Y577000D02*
D03*
X430000Y592000D02*
D03*
X425000Y587000D02*
D03*
X420000Y582000D02*
D03*
X340250Y540000D02*
D03*
X335250Y545000D02*
D03*
X659500Y224250D02*
D03*
X671500Y271100D02*
D03*
X625000Y255250D02*
D03*
X594750Y395500D02*
D03*
X599550Y417500D02*
D03*
X548750D02*
D03*
X548750Y464000D02*
D03*
X599500D02*
D03*
X599550Y434250D02*
D03*
X624500Y373500D02*
D03*
X549000Y393500D02*
D03*
X548750Y434250D02*
D03*
X536000Y255350D02*
D03*
X657750Y356750D02*
D03*
Y365750D02*
D03*
X657750Y394500D02*
D03*
Y403500D02*
D03*
X673750D02*
D03*
X673750Y365750D02*
D03*
X502750Y403500D02*
D03*
Y394500D02*
D03*
X502750Y365750D02*
D03*
Y356750D02*
D03*
X486750Y394500D02*
D03*
X486750Y356750D02*
D03*
X490000Y272100D02*
D03*
X427500Y224250D02*
D03*
X439500Y271100D02*
D03*
X393000Y255250D02*
D03*
X362750Y395500D02*
D03*
X367550Y417500D02*
D03*
X316750D02*
D03*
X316750Y464000D02*
D03*
X367500D02*
D03*
X367550Y434250D02*
D03*
X392500Y373500D02*
D03*
X317000Y393500D02*
D03*
X316750Y434250D02*
D03*
X304000Y255350D02*
D03*
X425750Y356750D02*
D03*
Y365750D02*
D03*
X425750Y394500D02*
D03*
Y403500D02*
D03*
X441750D02*
D03*
X441750Y365750D02*
D03*
X270750Y403500D02*
D03*
Y394500D02*
D03*
X270751Y365750D02*
D03*
Y356750D02*
D03*
X254750Y394500D02*
D03*
X254750Y356750D02*
D03*
X258000Y272100D02*
D03*
X194250Y224250D02*
D03*
X206250Y271100D02*
D03*
X159750Y255250D02*
D03*
X129500Y395500D02*
D03*
X285250Y530000D02*
D03*
X280250Y535000D02*
D03*
X270250Y545000D02*
D03*
X275250Y540000D02*
D03*
X134300Y417500D02*
D03*
X83500D02*
D03*
X83500Y464000D02*
D03*
X134250D02*
D03*
X134300Y434250D02*
D03*
X159250Y373500D02*
D03*
X83750Y393500D02*
D03*
X83500Y434250D02*
D03*
X70750Y255350D02*
D03*
X192500Y356750D02*
D03*
Y365750D02*
D03*
X192500Y394500D02*
D03*
Y403500D02*
D03*
X208500Y365750D02*
D03*
X37500Y403500D02*
D03*
Y394500D02*
D03*
X37500Y365750D02*
D03*
Y356750D02*
D03*
X21500Y394500D02*
D03*
X24750Y272100D02*
D03*
X219000Y632750D02*
D03*
X170750Y755166D02*
D03*
X188250Y732167D02*
D03*
X218125Y743750D02*
D03*
X226375D02*
D03*
X330000Y733750D02*
D03*
X298950Y860000D02*
D03*
X286250D02*
D03*
Y900300D02*
D03*
X298950D02*
D03*
X311650D02*
D03*
X324350D02*
D03*
X337050D02*
D03*
Y860000D02*
D03*
X324350D02*
D03*
X311650D02*
D03*
X207500Y883700D02*
D03*
X261350Y632000D02*
D03*
X290250Y750000D02*
D03*
X121500Y895500D02*
D03*
X223500Y795000D02*
D03*
X112300Y749250D02*
D03*
X95526D02*
D03*
X56000Y834500D02*
D03*
Y825500D02*
D03*
X40000Y834500D02*
D03*
Y825500D02*
D03*
X56000Y785250D02*
D03*
Y794250D02*
D03*
X40000D02*
D03*
Y785250D02*
D03*
X40000Y746000D02*
D03*
Y755000D02*
D03*
X56000D02*
D03*
Y746000D02*
D03*
X215448Y816501D02*
D03*
Y803751D02*
D03*
X153948Y815001D02*
D03*
X260963Y604959D02*
D03*
X295100Y596500D02*
D03*
X261100Y595500D02*
D03*
X265250Y578250D02*
D03*
X366500Y578250D02*
D03*
X379000D02*
D03*
X396000Y716750D02*
D03*
X261500Y695750D02*
D03*
X261059Y675250D02*
D03*
X158250Y896250D02*
D03*
Y863750D02*
D03*
X109000Y895500D02*
D03*
X207500Y896250D02*
D03*
X714250Y557500D02*
D03*
X700000Y686500D02*
D03*
X691000Y602500D02*
D03*
X655750Y686000D02*
D03*
X670000Y557250D02*
D03*
X696937Y577250D02*
D03*
X683000Y666500D02*
D03*
X678000Y602500D02*
D03*
X664000Y641250D02*
D03*
D77*
X424500Y343250D02*
D03*
X191500D02*
D03*
X655130Y343250D02*
D03*
X502750D02*
D03*
X580750Y343000D02*
D03*
X270751Y343250D02*
D03*
X348750Y343000D02*
D03*
X37500Y343250D02*
D03*
X115500Y343000D02*
D03*
X642437Y537500D02*
D03*
Y577250D02*
D03*
X628650Y666500D02*
D03*
Y706250D02*
D03*
D78*
X589174Y714289D02*
D03*
X564674D02*
D03*
X605981Y624500D02*
D03*
X533250Y668000D02*
D03*
X506000Y644000D02*
D03*
D79*
X50000Y500000D02*
D03*
X950000Y900000D02*
D03*
Y50000D02*
D03*
X50000Y900000D02*
D03*
D80*
X99750Y813000D02*
D03*
X93250D02*
D03*
X86750D02*
D03*
Y793500D02*
D03*
X93250D02*
D03*
X99750D02*
D03*
D81*
X555000Y600000D02*
D03*
Y587000D02*
D03*
X330750Y836500D02*
D03*
Y823500D02*
D03*
X546000Y714250D02*
D03*
Y701250D02*
D03*
X304000Y216849D02*
D03*
Y229850D02*
D03*
Y255350D02*
D03*
Y242349D02*
D03*
X393000Y216849D02*
D03*
Y229850D02*
D03*
X393000Y255250D02*
D03*
Y242250D02*
D03*
X316750Y421250D02*
D03*
Y434250D02*
D03*
X367550Y421250D02*
D03*
Y434250D02*
D03*
X134300Y421250D02*
D03*
Y434250D02*
D03*
X83500Y421250D02*
D03*
Y434250D02*
D03*
X159750Y255250D02*
D03*
Y242250D02*
D03*
Y216850D02*
D03*
Y229850D02*
D03*
X70750Y255350D02*
D03*
Y242350D02*
D03*
Y216850D02*
D03*
Y229850D02*
D03*
X114750Y814750D02*
D03*
Y827750D02*
D03*
X548750Y421250D02*
D03*
Y434250D02*
D03*
X599550Y421250D02*
D03*
Y434250D02*
D03*
X625000Y255250D02*
D03*
Y242250D02*
D03*
Y216850D02*
D03*
Y229850D02*
D03*
X536000Y255350D02*
D03*
Y242350D02*
D03*
Y216850D02*
D03*
Y229850D02*
D03*
X668500Y577500D02*
D03*
Y590500D02*
D03*
D82*
X251747Y647000D02*
D03*
X243748D02*
D03*
X261350Y647000D02*
D03*
X269350D02*
D03*
X295100Y596500D02*
D03*
X287100D02*
D03*
X269059Y675250D02*
D03*
X261059D02*
D03*
D83*
X473250Y367750D02*
D03*
X486750D02*
D03*
X687000Y354500D02*
D03*
X673500D02*
D03*
X687000Y392250D02*
D03*
X673500D02*
D03*
X473500Y405750D02*
D03*
X487000D02*
D03*
X241500D02*
D03*
X255000D02*
D03*
X241250Y368000D02*
D03*
X254750D02*
D03*
X455000Y354500D02*
D03*
X441500D02*
D03*
X455000Y392500D02*
D03*
X441500D02*
D03*
X221500Y392250D02*
D03*
X208000D02*
D03*
X35750Y416500D02*
D03*
X22250D02*
D03*
X222000Y354500D02*
D03*
X208500D02*
D03*
X549000Y393500D02*
D03*
X535500D02*
D03*
X303500Y393500D02*
D03*
X317000D02*
D03*
X70250Y393500D02*
D03*
X83750D02*
D03*
X26500Y757250D02*
D03*
X40000D02*
D03*
X26500Y783000D02*
D03*
X40000D02*
D03*
X26500Y743750D02*
D03*
X40000D02*
D03*
X40000Y796500D02*
D03*
X26500D02*
D03*
X40000Y836500D02*
D03*
X26500D02*
D03*
D84*
X21500Y355500D02*
D03*
Y343000D02*
D03*
X625500Y396250D02*
D03*
Y383750D02*
D03*
X393500Y396250D02*
D03*
Y383750D02*
D03*
X160250Y396250D02*
D03*
Y383750D02*
D03*
X37500Y373750D02*
D03*
Y386250D02*
D03*
X646250Y633250D02*
D03*
Y645750D02*
D03*
D85*
X101500Y568250D02*
D03*
X121500Y561750D02*
D03*
Y574750D02*
D03*
D86*
X369500Y653500D02*
D03*
Y647000D02*
D03*
Y640500D02*
D03*
Y634000D02*
D03*
Y627500D02*
D03*
Y621000D02*
D03*
Y614500D02*
D03*
Y608000D02*
D03*
X313500Y653500D02*
D03*
Y647000D02*
D03*
Y640500D02*
D03*
Y634000D02*
D03*
Y627500D02*
D03*
Y621000D02*
D03*
Y614500D02*
D03*
Y608000D02*
D03*
X376500Y379750D02*
D03*
Y373250D02*
D03*
Y366750D02*
D03*
Y360250D02*
D03*
Y353750D02*
D03*
Y347250D02*
D03*
Y340750D02*
D03*
Y334250D02*
D03*
X320500Y379750D02*
D03*
Y373250D02*
D03*
Y366750D02*
D03*
Y360250D02*
D03*
Y353750D02*
D03*
Y347250D02*
D03*
Y340750D02*
D03*
Y334250D02*
D03*
X143250Y379750D02*
D03*
Y373250D02*
D03*
Y366750D02*
D03*
Y360250D02*
D03*
Y353750D02*
D03*
Y347250D02*
D03*
Y340750D02*
D03*
Y334250D02*
D03*
X87250Y379750D02*
D03*
Y373250D02*
D03*
Y366750D02*
D03*
Y360250D02*
D03*
Y353750D02*
D03*
Y347250D02*
D03*
Y340750D02*
D03*
Y334250D02*
D03*
X608500Y379750D02*
D03*
Y373250D02*
D03*
Y366750D02*
D03*
Y360250D02*
D03*
Y353750D02*
D03*
Y347250D02*
D03*
Y340750D02*
D03*
Y334250D02*
D03*
X552500Y379750D02*
D03*
Y373250D02*
D03*
Y366750D02*
D03*
Y360250D02*
D03*
Y353750D02*
D03*
Y347250D02*
D03*
Y340750D02*
D03*
Y334250D02*
D03*
D87*
X599500Y447000D02*
D03*
Y464000D02*
D03*
X548750D02*
D03*
Y447000D02*
D03*
X316750Y464000D02*
D03*
Y447000D02*
D03*
X367500Y464000D02*
D03*
Y447000D02*
D03*
X83500Y464000D02*
D03*
Y447000D02*
D03*
X134250Y464000D02*
D03*
Y447000D02*
D03*
D88*
X146750Y708500D02*
D03*
D89*
X183250D02*
D03*
D90*
X233000Y758500D02*
D03*
Y743500D02*
D03*
X211500Y758500D02*
D03*
Y743500D02*
D03*
D91*
X170750Y755166D02*
D03*
X190750D02*
D03*
X188250Y732167D02*
D03*
X168250D02*
D03*
D92*
X366500Y586250D02*
D03*
Y578250D02*
D03*
X354000Y586250D02*
D03*
Y578250D02*
D03*
X421000Y708250D02*
D03*
Y716250D02*
D03*
X261100Y595500D02*
D03*
Y587500D02*
D03*
X261500Y695750D02*
D03*
Y687750D02*
D03*
X396000Y716750D02*
D03*
Y708750D02*
D03*
X379000Y578250D02*
D03*
Y586250D02*
D03*
X265250Y578250D02*
D03*
Y570250D02*
D03*
X260963Y612959D02*
D03*
Y604959D02*
D03*
X408500Y716250D02*
D03*
Y708250D02*
D03*
D93*
X247350Y604214D02*
D03*
Y613786D02*
D03*
X274600Y586714D02*
D03*
Y596286D02*
D03*
D94*
X260273Y661750D02*
D03*
X269845D02*
D03*
D95*
X564674Y714289D02*
D03*
Y697773D02*
D03*
X589174Y714289D02*
D03*
Y697773D02*
D03*
D96*
X594750Y395500D02*
D03*
X608750D02*
D03*
X362750Y395500D02*
D03*
X376750D02*
D03*
X129500Y395500D02*
D03*
X143500D02*
D03*
D97*
X304000Y294109D02*
D03*
Y281092D02*
D03*
X286500Y280858D02*
D03*
Y267841D02*
D03*
X286751Y216841D02*
D03*
Y229858D02*
D03*
Y255358D02*
D03*
Y242341D02*
D03*
X410500Y216591D02*
D03*
Y229608D02*
D03*
X410501Y255250D02*
D03*
Y242233D02*
D03*
X393000Y294109D02*
D03*
Y281092D02*
D03*
X410501Y279859D02*
D03*
Y266842D02*
D03*
X177250Y279858D02*
D03*
Y266841D02*
D03*
X159750Y294109D02*
D03*
Y281091D02*
D03*
X177250Y255250D02*
D03*
Y242233D02*
D03*
Y216591D02*
D03*
Y229608D02*
D03*
X53500Y255359D02*
D03*
Y242341D02*
D03*
Y216842D02*
D03*
Y229858D02*
D03*
X53250Y280859D02*
D03*
Y267842D02*
D03*
X70750Y294109D02*
D03*
Y281091D02*
D03*
X642500Y279859D02*
D03*
Y266842D02*
D03*
X625000Y294109D02*
D03*
Y281092D02*
D03*
X642500Y255250D02*
D03*
Y242233D02*
D03*
Y216591D02*
D03*
Y229608D02*
D03*
X518750Y255359D02*
D03*
Y242341D02*
D03*
Y216842D02*
D03*
Y229859D02*
D03*
X518500Y280859D02*
D03*
Y267842D02*
D03*
X536000Y294109D02*
D03*
Y281092D02*
D03*
D98*
X374750Y293350D02*
D03*
Y280650D02*
D03*
Y267950D02*
D03*
Y255250D02*
D03*
Y242550D02*
D03*
Y229850D02*
D03*
Y217150D02*
D03*
X322250Y293350D02*
D03*
Y280650D02*
D03*
Y267950D02*
D03*
Y255250D02*
D03*
Y242550D02*
D03*
Y229850D02*
D03*
Y217150D02*
D03*
X141500Y293350D02*
D03*
Y280650D02*
D03*
Y267950D02*
D03*
Y255250D02*
D03*
Y242550D02*
D03*
Y229850D02*
D03*
Y217150D02*
D03*
X89000Y293350D02*
D03*
Y280650D02*
D03*
Y267950D02*
D03*
Y255250D02*
D03*
Y242550D02*
D03*
Y229850D02*
D03*
Y217150D02*
D03*
X606750Y293350D02*
D03*
Y280650D02*
D03*
Y267950D02*
D03*
Y255250D02*
D03*
Y242550D02*
D03*
Y229850D02*
D03*
Y217150D02*
D03*
X554250Y293350D02*
D03*
Y280650D02*
D03*
Y267950D02*
D03*
Y255250D02*
D03*
Y242550D02*
D03*
Y229850D02*
D03*
Y217150D02*
D03*
D99*
X615000Y642750D02*
D03*
D100*
Y606250D02*
D03*
D101*
X696937Y577250D02*
D03*
X729637D02*
D03*
X683000Y666500D02*
D03*
X715700D02*
D03*
M02*
