G04*
G04 #@! TF.GenerationSoftware,Altium Limited,Altium Designer,25.6.2 (33)*
G04*
G04 Layer_Color=8388736*
%FSLAX44Y44*%
%MOMM*%
G71*
G04*
G04 #@! TF.SameCoordinates,FE81BCBD-8BA5-4167-A0B7-8A0FD6AAC528*
G04*
G04*
G04 #@! TF.FilePolarity,Negative*
G04*
G01*
G75*
%ADD13R,1.3000X2.0000*%
%ADD14R,1.0000X0.3000*%
%ADD15R,0.6725X0.7154*%
%ADD16R,1.6500X0.6000*%
%ADD17R,1.8500X0.6000*%
%ADD18C,1.6740*%
%ADD19C,0.6500*%
D13*
X262250Y270500D02*
D03*
Y109500D02*
D03*
D14*
X235250Y247500D02*
D03*
Y242500D02*
D03*
Y237500D02*
D03*
Y232500D02*
D03*
Y227500D02*
D03*
Y222500D02*
D03*
Y217500D02*
D03*
Y212500D02*
D03*
Y207500D02*
D03*
Y202500D02*
D03*
Y197500D02*
D03*
Y192500D02*
D03*
Y187500D02*
D03*
Y182500D02*
D03*
Y177500D02*
D03*
Y172500D02*
D03*
Y167500D02*
D03*
Y162500D02*
D03*
Y157500D02*
D03*
Y152500D02*
D03*
Y147500D02*
D03*
Y142500D02*
D03*
Y137500D02*
D03*
Y132500D02*
D03*
D15*
X200000Y254786D02*
D03*
Y245214D02*
D03*
Y220214D02*
D03*
Y229786D02*
D03*
X185000Y254786D02*
D03*
Y245214D02*
D03*
Y220214D02*
D03*
Y229786D02*
D03*
X185000Y270214D02*
D03*
Y279786D02*
D03*
X200000Y270214D02*
D03*
Y279786D02*
D03*
D16*
X62500Y260000D02*
D03*
Y250000D02*
D03*
Y240000D02*
D03*
Y230000D02*
D03*
Y220000D02*
D03*
Y210000D02*
D03*
Y200000D02*
D03*
Y190000D02*
D03*
Y180000D02*
D03*
Y170000D02*
D03*
Y160000D02*
D03*
Y150000D02*
D03*
Y140000D02*
D03*
Y130000D02*
D03*
Y120000D02*
D03*
D17*
X100000Y260000D02*
D03*
Y250000D02*
D03*
Y240000D02*
D03*
Y230000D02*
D03*
Y220000D02*
D03*
Y210000D02*
D03*
Y200000D02*
D03*
Y190000D02*
D03*
Y180000D02*
D03*
Y170000D02*
D03*
Y160000D02*
D03*
Y150000D02*
D03*
Y140000D02*
D03*
Y130000D02*
D03*
Y120000D02*
D03*
D18*
X165000Y245000D02*
D03*
Y225000D02*
D03*
X165000Y185000D02*
D03*
Y205000D02*
D03*
D19*
X215000Y262500D02*
D03*
X260139Y202361D02*
D03*
X260000Y210000D02*
D03*
X185000Y205000D02*
D03*
X260000Y235000D02*
D03*
Y220000D02*
D03*
X80000Y250000D02*
D03*
Y240000D02*
D03*
X202500Y157500D02*
D03*
Y150000D02*
D03*
X170000Y270000D02*
D03*
X175000Y150000D02*
D03*
Y157500D02*
D03*
M02*
