M48
METRIC,TZ
T01C.55
T02C.8
T03C.85
T04C1.
;EXTENTS: -314.385 -297.772 549.215 286.428 
;LEADER: 12 
;HEADER: 
;CODE  : ASCII 
;FILE  : C:/perforce/syseng/LMARTINEZ-DT-se/Projects/Jakku/Baseboard/P3509/A01/worklib/physical/ncslot_1-6.tap for board 142-13509-1000-A01.brd, layers TOP to BOTTOM
%
G90
F1
M16
T02
M16
G00X322000Y-40200
G40
M15
G01Y-27200
M16
G00X450000Y-40200
G40
M15
G01Y-27200
M16
G00X322000Y-95000
G40
M15
G01Y-86000
M16
G00X450000Y-95000
G40
M15
G01Y-86000
M16
G00X492000Y-40200
G40
M15
G01Y-27200
M16
G00X620000Y-40200
G40
M15
G01Y-27200
M16
G00X492000Y-95000
G40
M15
G01Y-86000
M16
G00X620000Y-95000
G40
M15
G01Y-86000
M16
T04
M16
G00X7500Y-47500
G40
M15
G01X32500
M16
T02
M16
G00X9000Y-110000
G40
M15
G01X31000
M16
G00X68000Y-88500
G40
M15
G01Y-66500
M16
T03
M16
G00X917240Y-116740
G40
M15
G01Y-111260
M16
T01
M16
G00X918750Y-155240
G40
M15
G01Y-148740
M16
G00X841250Y-155240
G40
M15
G01Y-148740
M16
T03
M16
G00X842750Y-116740
G40
M15
G01Y-111260
M16
T02
M16
G00X280000Y-142740
G40
M15
G01Y-133740
M16
G00X115000Y-142740
G40
M15
G01Y-133740
M16
G00Y-26250
G40
M15
G01Y-12250
M16
G00X280000Y-26250
G40
M15
G01Y-12250
M16
G40
M30
