G04*
G04 #@! TF.GenerationSoftware,Altium Limited,Altium Designer,25.6.2 (33)*
G04*
G04 Layer_Color=65535*
%FSLAX44Y44*%
%MOMM*%
G71*
G04*
G04 #@! TF.SameCoordinates,FE81BCBD-8BA5-4167-A0B7-8A0FD6AAC528*
G04*
G04*
G04 #@! TF.FilePolarity,Positive*
G04*
G01*
G75*
%ADD10C,0.2500*%
%ADD11C,0.2000*%
%ADD12C,0.2540*%
D10*
X225750Y132500D02*
G03*
X225750Y132500I-1250J0D01*
G01*
X116000Y120000D02*
G03*
X116000Y120000I-1250J0D01*
G01*
D11*
X232750Y105500D02*
X252000D01*
X272500D02*
X287250D01*
Y274500D01*
X232750D02*
X252000D01*
X272500D02*
X287250D01*
X232750Y252750D02*
Y274500D01*
Y105500D02*
Y127250D01*
X192638Y241638D02*
Y258362D01*
X207362Y241638D02*
Y258362D01*
Y216638D02*
Y233362D01*
X192638Y216638D02*
Y233362D01*
X177638Y241638D02*
Y258362D01*
X192362Y241638D02*
Y258362D01*
Y216638D02*
Y233362D01*
X177638Y216638D02*
Y233362D01*
X192362Y266638D02*
Y283362D01*
X177638Y266638D02*
Y283362D01*
X207362Y266638D02*
Y283362D01*
X192638Y266638D02*
Y283362D01*
X59250Y305500D02*
X100750D01*
X59250Y74500D02*
Y113250D01*
Y266750D02*
Y305500D01*
Y74500D02*
X100750D01*
Y113250D01*
Y266750D02*
Y305500D01*
X121343Y250832D02*
X124676D01*
X123010D01*
Y240835D01*
X121343D01*
X124676D01*
X134673Y250832D02*
X131340D01*
X129674Y249165D01*
Y242501D01*
X131340Y240835D01*
X134673D01*
X136339Y242501D01*
Y249165D01*
X134673Y250832D01*
X139671Y239168D02*
X146335D01*
X149668Y240835D02*
X153000D01*
X151334D01*
Y250832D01*
X149668Y249165D01*
X118011Y230832D02*
X121343D01*
X119677D01*
Y220835D01*
X118011D01*
X121343D01*
X131340Y230832D02*
X128008D01*
X126342Y229165D01*
Y222501D01*
X128008Y220835D01*
X131340D01*
X133006Y222501D01*
Y229165D01*
X131340Y230832D01*
X136339Y219168D02*
X143003D01*
X146335Y229165D02*
X148002Y230832D01*
X151334D01*
X153000Y229165D01*
Y222501D01*
X151334Y220835D01*
X148002D01*
X146335Y222501D01*
Y229165D01*
X116345Y200002D02*
Y209998D01*
X119677Y206666D01*
X123010Y209998D01*
Y200002D01*
X133006Y208332D02*
X131340Y209998D01*
X128008D01*
X126342Y208332D01*
Y201668D01*
X128008Y200002D01*
X131340D01*
X133006Y201668D01*
X136339Y209998D02*
Y200002D01*
X143003D01*
X146335Y209998D02*
Y200002D01*
Y203334D01*
X153000Y209998D01*
X148002Y205000D01*
X153000Y200002D01*
X116345Y180002D02*
Y186666D01*
X121344D01*
X123010Y185000D01*
Y180002D01*
X126342D02*
Y189998D01*
X131340D01*
X133006Y188332D01*
Y185000D01*
X131340Y183334D01*
X126342D01*
X129674D02*
X133006Y180002D01*
X143003Y188332D02*
X141337Y189998D01*
X138005D01*
X136339Y188332D01*
Y186666D01*
X138005Y185000D01*
X141337D01*
X143003Y183334D01*
Y181668D01*
X141337Y180002D01*
X138005D01*
X136339Y181668D01*
X146335Y189998D02*
X153000D01*
X149668D01*
Y180002D01*
D12*
X35078Y269984D02*
X37618Y272523D01*
Y277602D01*
X35078Y280141D01*
X24922D01*
X22383Y277602D01*
Y272523D01*
X24922Y269984D01*
X35078Y254749D02*
X37618Y257288D01*
Y262367D01*
X35078Y264906D01*
X32539D01*
X30000Y262367D01*
Y257288D01*
X27461Y254749D01*
X24922D01*
X22383Y257288D01*
Y262367D01*
X24922Y264906D01*
X37618Y249671D02*
Y244592D01*
Y247132D01*
X22383D01*
Y249671D01*
Y244592D01*
X37618Y214122D02*
Y219200D01*
X35078Y221740D01*
X24922D01*
X22383Y219200D01*
Y214122D01*
X24922Y211583D01*
X35078D01*
X37618Y214122D01*
Y206505D02*
X24922D01*
X22383Y203965D01*
Y198887D01*
X24922Y196348D01*
X37618D01*
Y191269D02*
Y181113D01*
Y186191D01*
X22383D01*
Y155721D02*
X27461Y160799D01*
X32539D01*
X37618Y155721D01*
X22383Y148104D02*
Y143025D01*
Y145564D01*
X37618D01*
X35078Y148104D01*
X37618Y125251D02*
Y135408D01*
X30000D01*
X32539Y130329D01*
Y127790D01*
X30000Y125251D01*
X24922D01*
X22383Y127790D01*
Y132868D01*
X24922Y135408D01*
X22383Y120173D02*
X37618D01*
Y112555D01*
X35078Y110016D01*
X30000D01*
X27461Y112555D01*
Y120173D01*
X22383Y104937D02*
X27461Y99859D01*
X32539D01*
X37618Y104937D01*
X304922Y117633D02*
X302383Y115094D01*
Y110016D01*
X304922Y107477D01*
X315078D01*
X317618Y110016D01*
Y115094D01*
X315078Y117633D01*
X304922Y132868D02*
X302383Y130329D01*
Y125251D01*
X304922Y122712D01*
X307461D01*
X310000Y125251D01*
Y130329D01*
X312539Y132868D01*
X315078D01*
X317618Y130329D01*
Y125251D01*
X315078Y122712D01*
X302383Y137947D02*
Y143025D01*
Y140486D01*
X317618D01*
Y137947D01*
Y143025D01*
X302383Y165878D02*
Y170956D01*
Y168417D01*
X317618D01*
Y165878D01*
Y170956D01*
Y178574D02*
X302383D01*
X317618Y188730D01*
X302383D01*
X317618Y214122D02*
X312539Y209044D01*
X307461D01*
X302383Y214122D01*
X317618Y231896D02*
Y221740D01*
X307461Y231896D01*
X304922D01*
X302383Y229357D01*
Y224279D01*
X304922Y221740D01*
X317618Y244592D02*
X302383D01*
X310000Y236975D01*
Y247132D01*
X317618Y252210D02*
X302383D01*
Y259827D01*
X304922Y262367D01*
X310000D01*
X312539Y259827D01*
Y252210D01*
X317618Y267445D02*
X312539Y272523D01*
X307461D01*
X302383Y267445D01*
M02*
