G04*
G04 #@! TF.GenerationSoftware,Altium Limited,Altium Designer,25.6.2 (33)*
G04*
G04 Layer_Physical_Order=3*
G04 Layer_Color=16440176*
%FSLAX44Y44*%
%MOMM*%
G71*
G04*
G04 #@! TF.SameCoordinates,FE81BCBD-8BA5-4167-A0B7-8A0FD6AAC528*
G04*
G04*
G04 #@! TF.FilePolarity,Positive*
G04*
G01*
G75*
%ADD24C,0.5000*%
%ADD25C,5.0000*%
%ADD26C,0.3000*%
G36*
X315467Y377483D02*
X319007Y376534D01*
X322393Y375131D01*
X325567Y373299D01*
X328475Y371067D01*
X331067Y368475D01*
X333298Y365568D01*
X335131Y362393D01*
X336534Y359007D01*
X337483Y355467D01*
X337961Y351833D01*
Y350000D01*
Y30000D01*
X337961Y28167D01*
X337482Y24533D01*
X336534Y20993D01*
X335131Y17607D01*
X333299Y14432D01*
X331067Y11525D01*
X328475Y8933D01*
X325568Y6701D01*
X322393Y4869D01*
X319007Y3466D01*
X315467Y2517D01*
X311833Y2039D01*
X310000Y2039D01*
X30000Y2039D01*
X28167D01*
X24533Y2517D01*
X20993Y3466D01*
X17607Y4869D01*
X14432Y6701D01*
X11524Y8933D01*
X8933Y11525D01*
X6701Y14432D01*
X4869Y17607D01*
X3466Y20993D01*
X2517Y24533D01*
X2039Y28167D01*
Y30000D01*
Y350000D01*
Y351833D01*
X2517Y355467D01*
X3466Y359007D01*
X4869Y362393D01*
X6701Y365567D01*
X8933Y368475D01*
X11524Y371067D01*
X14432Y373298D01*
X17607Y375131D01*
X20993Y376534D01*
X24534Y377482D01*
X28167Y377961D01*
X30000Y377961D01*
X310000Y377961D01*
X311833D01*
X315467Y377483D01*
D02*
G37*
%LPC*%
G36*
X170796Y274000D02*
X169204D01*
X167734Y273391D01*
X166609Y272266D01*
X166000Y270796D01*
Y269204D01*
X166609Y267734D01*
X167734Y266609D01*
X169204Y266000D01*
X170796D01*
X172266Y266609D01*
X173391Y267734D01*
X174000Y269204D01*
Y270796D01*
X173391Y272266D01*
X172266Y273391D01*
X170796Y274000D01*
D02*
G37*
G36*
X80796Y254000D02*
X79204D01*
X77734Y253391D01*
X76609Y252266D01*
X76000Y250796D01*
Y249204D01*
X76609Y247734D01*
X77734Y246609D01*
X79204Y246000D01*
X80796D01*
X82266Y246609D01*
X83391Y247734D01*
X84000Y249204D01*
Y250796D01*
X83391Y252266D01*
X82266Y253391D01*
X80796Y254000D01*
D02*
G37*
G36*
Y244000D02*
X79204D01*
X77734Y243391D01*
X76609Y242266D01*
X76000Y240796D01*
Y239204D01*
X76609Y237734D01*
X77734Y236609D01*
X79204Y236000D01*
X80796D01*
X82266Y236609D01*
X83391Y237734D01*
X84000Y239204D01*
Y240796D01*
X83391Y242266D01*
X82266Y243391D01*
X80796Y244000D01*
D02*
G37*
G36*
X260796Y239000D02*
X259204D01*
X257734Y238391D01*
X256609Y237266D01*
X256000Y235796D01*
Y234204D01*
X256609Y232734D01*
X257734Y231609D01*
X259204Y231000D01*
X260796D01*
X262266Y231609D01*
X263391Y232734D01*
X264000Y234204D01*
Y235796D01*
X263391Y237266D01*
X262266Y238391D01*
X260796Y239000D01*
D02*
G37*
G36*
Y224000D02*
X259204D01*
X257734Y223391D01*
X256609Y222266D01*
X256000Y220796D01*
Y219204D01*
X256609Y217734D01*
X257734Y216609D01*
X259204Y216000D01*
X260796D01*
X262266Y216609D01*
X263391Y217734D01*
X264000Y219204D01*
Y220796D01*
X263391Y222266D01*
X262266Y223391D01*
X260796Y224000D01*
D02*
G37*
G36*
X185796Y209000D02*
X184204D01*
X182734Y208391D01*
X181609Y207266D01*
X181000Y205796D01*
Y204204D01*
X181609Y202734D01*
X182734Y201609D01*
X184204Y201000D01*
X185796D01*
X187266Y201609D01*
X188391Y202734D01*
X189000Y204204D01*
Y205796D01*
X188391Y207266D01*
X187266Y208391D01*
X185796Y209000D01*
D02*
G37*
G36*
X260796Y214000D02*
X259204D01*
X257734Y213391D01*
X256609Y212266D01*
X256000Y210796D01*
Y209204D01*
X256609Y207734D01*
X257603Y206740D01*
X257715Y206331D01*
X257661Y205540D01*
X256748Y204627D01*
X256139Y203157D01*
Y201565D01*
X256748Y200095D01*
X257873Y198970D01*
X259343Y198361D01*
X260935D01*
X262405Y198970D01*
X263530Y200095D01*
X264139Y201565D01*
Y203157D01*
X263530Y204627D01*
X262536Y205621D01*
X262424Y206030D01*
X262478Y206821D01*
X263391Y207734D01*
X264000Y209204D01*
Y210796D01*
X263391Y212266D01*
X262266Y213391D01*
X260796Y214000D01*
D02*
G37*
G36*
X203097Y160500D02*
X201903D01*
X200801Y160043D01*
X199957Y159199D01*
X199500Y158097D01*
Y156903D01*
X199957Y155801D01*
X200801Y154957D01*
X201903Y154500D01*
X203097D01*
X204199Y154957D01*
X205043Y155801D01*
X205500Y156903D01*
Y158097D01*
X205043Y159199D01*
X204199Y160043D01*
X203097Y160500D01*
D02*
G37*
G36*
X175597D02*
X174403D01*
X173301Y160043D01*
X172457Y159199D01*
X172000Y158097D01*
Y156903D01*
X172457Y155801D01*
X173301Y154957D01*
X174403Y154500D01*
X175597D01*
X176699Y154957D01*
X177543Y155801D01*
X178000Y156903D01*
Y158097D01*
X177543Y159199D01*
X176699Y160043D01*
X175597Y160500D01*
D02*
G37*
G36*
X203097Y153000D02*
X201903D01*
X200801Y152543D01*
X199957Y151699D01*
X199500Y150597D01*
Y149403D01*
X199957Y148301D01*
X200801Y147457D01*
X201903Y147000D01*
X203097D01*
X204199Y147457D01*
X205043Y148301D01*
X205500Y149403D01*
Y150597D01*
X205043Y151699D01*
X204199Y152543D01*
X203097Y153000D01*
D02*
G37*
G36*
X175597D02*
X174403D01*
X173301Y152543D01*
X172457Y151699D01*
X172000Y150597D01*
Y149403D01*
X172457Y148301D01*
X173301Y147457D01*
X174403Y147000D01*
X175597D01*
X176699Y147457D01*
X177543Y148301D01*
X178000Y149403D01*
Y150597D01*
X177543Y151699D01*
X176699Y152543D01*
X175597Y153000D01*
D02*
G37*
%LPD*%
D24*
X207500Y145000D02*
D03*
X170000Y162500D02*
D03*
X215000Y262500D02*
D03*
X260000Y330000D02*
D03*
X285000Y280000D02*
D03*
Y180000D02*
D03*
X260000Y130000D02*
D03*
Y30000D02*
D03*
X235000Y280000D02*
D03*
X210000Y30000D02*
D03*
X160000D02*
D03*
X135000Y280000D02*
D03*
X110000Y30000D02*
D03*
X60000Y330000D02*
D03*
X85000Y280000D02*
D03*
X60000Y30000D02*
D03*
X10000Y230000D02*
D03*
Y130000D02*
D03*
X142500Y252500D02*
D03*
X195000Y205000D02*
D03*
X260139Y202361D02*
D03*
X260000Y210000D02*
D03*
X222500Y275000D02*
D03*
X192500Y240000D02*
D03*
X185000Y205000D02*
D03*
X260000Y235000D02*
D03*
Y220000D02*
D03*
X80000Y250000D02*
D03*
Y240000D02*
D03*
X207500Y162500D02*
D03*
X170000Y270000D02*
D03*
Y145000D02*
D03*
D25*
X310000Y30000D02*
D03*
X30000D02*
D03*
X310000Y350000D02*
D03*
X30000D02*
D03*
D26*
X202500Y157500D02*
D03*
Y150000D02*
D03*
X175000D02*
D03*
Y157500D02*
D03*
M02*
