G04*
G04 #@! TF.GenerationSoftware,Altium Limited,Altium Designer,24.4.1 (13)*
G04*
G04 Layer_Physical_Order=2*
G04 Layer_Color=6736896*
%FSLAX44Y44*%
%MOMM*%
G71*
G04*
G04 #@! TF.SameCoordinates,D7575A33-01EC-4171-9A11-0C774D8D2981*
G04*
G04*
G04 #@! TF.FilePolarity,Positive*
G04*
G01*
G75*
%ADD13C,0.5000*%
%ADD20C,0.3000*%
%ADD50C,0.7500*%
%ADD60C,2.7500*%
%ADD61R,2.7500X2.7500*%
%ADD62C,3.0000*%
%ADD64R,2.7500X2.7500*%
%ADD66C,2.7534*%
%ADD67R,2.7534X2.7534*%
%ADD68C,2.9972*%
%ADD74R,0.6500X2.7700*%
%ADD75C,1.5080*%
%ADD76C,0.5000*%
%ADD77C,1.2700*%
%ADD78C,1.0000*%
%ADD79C,4.0000*%
G36*
X959377Y947140D02*
X965450Y945513D01*
X971258Y943107D01*
X976703Y939964D01*
X981691Y936136D01*
X986136Y931691D01*
X989964Y926703D01*
X993107Y921258D01*
X995513Y915450D01*
X997140Y909377D01*
X997961Y903143D01*
Y900000D01*
Y50000D01*
Y46856D01*
X997140Y40623D01*
X995513Y34550D01*
X993107Y28742D01*
X989964Y23297D01*
X986136Y18309D01*
X981691Y13864D01*
X976703Y10036D01*
X971258Y6893D01*
X965450Y4487D01*
X959377Y2860D01*
X953143Y2039D01*
X46856D01*
X40623Y2860D01*
X34550Y4487D01*
X28742Y6893D01*
X23297Y10036D01*
X18309Y13864D01*
X13864Y18309D01*
X10036Y23297D01*
X6893Y28742D01*
X4487Y34550D01*
X2860Y40623D01*
X2039Y46856D01*
Y50000D01*
X2039Y900000D01*
Y903143D01*
X2860Y909377D01*
X4487Y915450D01*
X6893Y921258D01*
X10036Y926703D01*
X13864Y931691D01*
X18309Y936136D01*
X23297Y939964D01*
X28742Y943107D01*
X34550Y945513D01*
X40623Y947140D01*
X46856Y947961D01*
X50000Y947961D01*
X953143D01*
X959377Y947140D01*
D02*
G37*
%LPC*%
G36*
X159046Y900250D02*
X157454D01*
X155984Y899641D01*
X154859Y898516D01*
X154250Y897046D01*
Y895454D01*
X154859Y893984D01*
X155984Y892859D01*
X157454Y892250D01*
X159046D01*
X160516Y892859D01*
X161641Y893984D01*
X162250Y895454D01*
Y897046D01*
X161641Y898516D01*
X160516Y899641D01*
X159046Y900250D01*
D02*
G37*
G36*
X208296Y900250D02*
X206704D01*
X205234Y899641D01*
X204109Y898516D01*
X203500Y897045D01*
Y895454D01*
X204109Y893984D01*
X205234Y892859D01*
X206704Y892250D01*
X208296D01*
X209766Y892859D01*
X210891Y893984D01*
X211500Y895454D01*
Y897045D01*
X210891Y898516D01*
X209766Y899641D01*
X208296Y900250D01*
D02*
G37*
G36*
X122296Y899500D02*
X120704D01*
X119234Y898891D01*
X118109Y897766D01*
X117500Y896296D01*
Y894704D01*
X118109Y893234D01*
X119234Y892109D01*
X120704Y891500D01*
X122296D01*
X123766Y892109D01*
X124891Y893234D01*
X125500Y894704D01*
Y896296D01*
X124891Y897766D01*
X123766Y898891D01*
X122296Y899500D01*
D02*
G37*
G36*
X109796D02*
X108204D01*
X106734Y898891D01*
X105609Y897766D01*
X105000Y896296D01*
Y894704D01*
X105609Y893234D01*
X106734Y892109D01*
X108204Y891500D01*
X109796D01*
X111266Y892109D01*
X112391Y893234D01*
X113000Y894704D01*
Y896296D01*
X112391Y897766D01*
X111266Y898891D01*
X109796Y899500D01*
D02*
G37*
G36*
X341316Y915166D02*
X332784D01*
Y885434D01*
X341316D01*
Y915166D01*
D02*
G37*
G36*
X303216D02*
X294684D01*
Y885434D01*
X303216D01*
Y915166D01*
D02*
G37*
G36*
X290516D02*
X281984D01*
Y885434D01*
X290516D01*
Y915166D01*
D02*
G37*
G36*
X208296Y887700D02*
X206705D01*
X205235Y887091D01*
X204109Y885966D01*
X203500Y884496D01*
Y882904D01*
X204109Y881434D01*
X205235Y880309D01*
X206705Y879700D01*
X208296D01*
X209766Y880309D01*
X210891Y881434D01*
X211500Y882904D01*
Y884496D01*
X210891Y885966D01*
X209766Y887091D01*
X208296Y887700D01*
D02*
G37*
G36*
X122546Y886853D02*
X120954D01*
X119484Y886244D01*
X118359Y885119D01*
X117750Y883649D01*
Y882058D01*
X118359Y880588D01*
X119484Y879462D01*
X120954Y878853D01*
X122546D01*
X124016Y879462D01*
X125141Y880588D01*
X125750Y882058D01*
Y883649D01*
X125141Y885119D01*
X124016Y886244D01*
X122546Y886853D01*
D02*
G37*
G36*
X823724Y895500D02*
X820276D01*
X816896Y894828D01*
X813711Y893509D01*
X810844Y891593D01*
X808407Y889156D01*
X806492Y886290D01*
X805173Y883105D01*
X804500Y879724D01*
Y876277D01*
X805173Y872896D01*
X806492Y869711D01*
X808407Y866845D01*
X810844Y864407D01*
X813711Y862492D01*
X816896Y861173D01*
X820276Y860500D01*
X823724D01*
X827105Y861173D01*
X830290Y862492D01*
X833156Y864407D01*
X835593Y866845D01*
X837508Y869711D01*
X838828Y872896D01*
X839500Y876277D01*
Y879724D01*
X838828Y883105D01*
X837508Y886290D01*
X835593Y889156D01*
X833156Y891593D01*
X830290Y893509D01*
X827105Y894828D01*
X823724Y895500D01*
D02*
G37*
G36*
X739723D02*
X736276D01*
X732895Y894828D01*
X729710Y893509D01*
X726844Y891593D01*
X724407Y889156D01*
X722492Y886290D01*
X721172Y883105D01*
X720500Y879724D01*
Y876277D01*
X721172Y872896D01*
X722492Y869711D01*
X724407Y866845D01*
X726844Y864407D01*
X729710Y862492D01*
X732895Y861173D01*
X736276Y860500D01*
X739723D01*
X743104Y861173D01*
X746289Y862492D01*
X749155Y864407D01*
X751593Y866845D01*
X753508Y869711D01*
X754827Y872896D01*
X755500Y876277D01*
Y879724D01*
X754827Y883105D01*
X753508Y886290D01*
X751593Y889156D01*
X749155Y891593D01*
X746289Y893509D01*
X743104Y894828D01*
X739723Y895500D01*
D02*
G37*
G36*
X523724D02*
X520276D01*
X516895Y894828D01*
X513711Y893509D01*
X510844Y891593D01*
X508407Y889156D01*
X506492Y886290D01*
X505173Y883105D01*
X504500Y879724D01*
Y876277D01*
X505173Y872896D01*
X506492Y869711D01*
X508407Y866845D01*
X510844Y864407D01*
X513711Y862492D01*
X516895Y861173D01*
X520276Y860500D01*
X523724D01*
X527105Y861173D01*
X530289Y862492D01*
X533156Y864407D01*
X535593Y866845D01*
X537508Y869711D01*
X538828Y872896D01*
X539500Y876277D01*
Y879724D01*
X538828Y883105D01*
X537508Y886290D01*
X535593Y889156D01*
X533156Y891593D01*
X530289Y893509D01*
X527105Y894828D01*
X523724Y895500D01*
D02*
G37*
G36*
X439724D02*
X436277D01*
X432896Y894828D01*
X429711Y893509D01*
X426845Y891593D01*
X424407Y889156D01*
X422492Y886290D01*
X421173Y883105D01*
X420500Y879724D01*
Y876277D01*
X421173Y872896D01*
X422492Y869711D01*
X424407Y866845D01*
X426845Y864407D01*
X429711Y862492D01*
X432896Y861173D01*
X436277Y860500D01*
X439724D01*
X443105Y861173D01*
X446290Y862492D01*
X449156Y864407D01*
X451593Y866845D01*
X453508Y869711D01*
X454828Y872896D01*
X455500Y876277D01*
Y879724D01*
X454828Y883105D01*
X453508Y886290D01*
X451593Y889156D01*
X449156Y891593D01*
X446290Y893509D01*
X443105Y894828D01*
X439724Y895500D01*
D02*
G37*
G36*
X673723Y895500D02*
X670276D01*
X666895Y894828D01*
X663710Y893509D01*
X660844Y891593D01*
X658407Y889156D01*
X656491Y886290D01*
X655172Y883105D01*
X654500Y879724D01*
Y876277D01*
X655172Y872896D01*
X656491Y869711D01*
X658407Y866845D01*
X660844Y864407D01*
X663710Y862492D01*
X666895Y861173D01*
X670276Y860500D01*
X673723D01*
X677104Y861173D01*
X680289Y862492D01*
X683155Y864407D01*
X685593Y866845D01*
X687508Y869711D01*
X688827Y872896D01*
X689500Y876277D01*
Y879724D01*
X688827Y883105D01*
X687508Y886290D01*
X685593Y889156D01*
X683155Y891593D01*
X680289Y893509D01*
X677104Y894828D01*
X673723Y895500D01*
D02*
G37*
G36*
X589724D02*
X586276D01*
X582895Y894828D01*
X579711Y893509D01*
X576844Y891593D01*
X574407Y889156D01*
X572492Y886290D01*
X571172Y883105D01*
X570500Y879724D01*
Y876277D01*
X571172Y872896D01*
X572492Y869711D01*
X574407Y866845D01*
X576844Y864407D01*
X579711Y862492D01*
X582895Y861173D01*
X586276Y860500D01*
X589724D01*
X593105Y861173D01*
X596289Y862492D01*
X599156Y864407D01*
X601593Y866845D01*
X603508Y869711D01*
X604827Y872896D01*
X605500Y876277D01*
Y879724D01*
X604827Y883105D01*
X603508Y886290D01*
X601593Y889156D01*
X599156Y891593D01*
X596289Y893509D01*
X593105Y894828D01*
X589724Y895500D01*
D02*
G37*
G36*
X159046Y867750D02*
X157454D01*
X155984Y867141D01*
X154859Y866016D01*
X154250Y864546D01*
Y862954D01*
X154859Y861484D01*
X155984Y860359D01*
X157454Y859750D01*
X159046D01*
X160516Y860359D01*
X161641Y861484D01*
X162250Y862954D01*
Y864546D01*
X161641Y866016D01*
X160516Y867141D01*
X159046Y867750D01*
D02*
G37*
G36*
X341316Y874866D02*
X332784D01*
Y845134D01*
X341316D01*
Y874866D01*
D02*
G37*
G36*
X328616D02*
X320084D01*
Y845134D01*
X328616D01*
Y874866D01*
D02*
G37*
G36*
X315916D02*
X307384D01*
Y845134D01*
X315916D01*
Y874866D01*
D02*
G37*
G36*
X303216D02*
X294684D01*
Y845134D01*
X303216D01*
Y874866D01*
D02*
G37*
G36*
X290516D02*
X281984D01*
Y845134D01*
X290516D01*
Y874866D01*
D02*
G37*
G36*
X254796Y833000D02*
X253204D01*
X251734Y832391D01*
X250609Y831266D01*
X250000Y829796D01*
Y828204D01*
X250609Y826734D01*
X251734Y825609D01*
X253204Y825000D01*
X254796D01*
X256266Y825609D01*
X257391Y826734D01*
X258000Y828204D01*
Y829796D01*
X257391Y831266D01*
X256266Y832391D01*
X254796Y833000D01*
D02*
G37*
G36*
X56796Y838500D02*
X55204D01*
X53734Y837891D01*
X52609Y836766D01*
X52000Y835295D01*
Y833704D01*
X52609Y832234D01*
X53734Y831109D01*
X54785Y830673D01*
Y829326D01*
X53734Y828891D01*
X52609Y827766D01*
X52000Y826296D01*
Y824704D01*
X52609Y823234D01*
X53734Y822109D01*
X55204Y821500D01*
X56796D01*
X58266Y822109D01*
X59391Y823234D01*
X60000Y824704D01*
Y826296D01*
X59391Y827766D01*
X58266Y828891D01*
X57215Y829326D01*
Y830673D01*
X58266Y831109D01*
X59391Y832234D01*
X60000Y833704D01*
Y835295D01*
X59391Y836766D01*
X58266Y837891D01*
X56796Y838500D01*
D02*
G37*
G36*
X40796D02*
X39204D01*
X37734Y837891D01*
X36609Y836766D01*
X36000Y835295D01*
Y833704D01*
X36609Y832234D01*
X37734Y831109D01*
X38785Y830673D01*
Y829326D01*
X37734Y828891D01*
X36609Y827766D01*
X36000Y826296D01*
Y824704D01*
X36609Y823234D01*
X37734Y822109D01*
X39204Y821500D01*
X40796D01*
X42266Y822109D01*
X43391Y823234D01*
X44000Y824704D01*
Y826296D01*
X43391Y827766D01*
X42266Y828891D01*
X41215Y829326D01*
Y830673D01*
X42266Y831109D01*
X43391Y832234D01*
X44000Y833704D01*
Y835295D01*
X43391Y836766D01*
X42266Y837891D01*
X40796Y838500D01*
D02*
G37*
G36*
X216244Y820501D02*
X214653D01*
X213182Y819892D01*
X212057Y818767D01*
X211448Y817297D01*
Y815706D01*
X212057Y814236D01*
X213182Y813110D01*
X214653Y812501D01*
X216244D01*
X217714Y813110D01*
X218839Y814236D01*
X219448Y815706D01*
Y817297D01*
X218839Y818767D01*
X217714Y819892D01*
X216244Y820501D01*
D02*
G37*
G36*
X154744Y819001D02*
X153153D01*
X151682Y818392D01*
X150557Y817267D01*
X149948Y815797D01*
Y814206D01*
X150557Y812736D01*
X151682Y811610D01*
X153153Y811001D01*
X154744D01*
X156214Y811610D01*
X157339Y812736D01*
X157948Y814206D01*
Y815797D01*
X157339Y817267D01*
X156214Y818392D01*
X154744Y819001D01*
D02*
G37*
G36*
X355796Y819000D02*
X354204D01*
X352734Y818391D01*
X351609Y817266D01*
X351000Y815796D01*
Y814204D01*
X351609Y812734D01*
X352734Y811609D01*
X354204Y811000D01*
X355796D01*
X357266Y811609D01*
X358391Y812734D01*
X359000Y814204D01*
Y815796D01*
X358391Y817266D01*
X357266Y818391D01*
X355796Y819000D01*
D02*
G37*
G36*
X224296Y814250D02*
X222704D01*
X221234Y813641D01*
X220109Y812516D01*
X219500Y811046D01*
Y809454D01*
X220109Y807984D01*
X221234Y806859D01*
X222704Y806250D01*
X224296D01*
X225766Y806859D01*
X226891Y807984D01*
X227500Y809454D01*
Y811046D01*
X226891Y812516D01*
X225766Y813641D01*
X224296Y814250D01*
D02*
G37*
G36*
X216244Y807751D02*
X214653D01*
X213182Y807142D01*
X212057Y806017D01*
X211448Y804547D01*
Y802956D01*
X212057Y801486D01*
X213182Y800360D01*
X214653Y799751D01*
X216244D01*
X217714Y800360D01*
X218839Y801486D01*
X219448Y802956D01*
Y804547D01*
X218839Y806017D01*
X217714Y807142D01*
X216244Y807751D01*
D02*
G37*
G36*
X355796Y807750D02*
X354204D01*
X352734Y807141D01*
X351609Y806016D01*
X351000Y804546D01*
Y802954D01*
X351609Y801484D01*
X352734Y800359D01*
X354204Y799750D01*
X355796D01*
X357266Y800359D01*
X358391Y801484D01*
X359000Y802954D01*
Y804546D01*
X358391Y806016D01*
X357266Y807141D01*
X355796Y807750D01*
D02*
G37*
G36*
X224296Y799000D02*
X222704D01*
X221234Y798391D01*
X220109Y797266D01*
X219500Y795796D01*
Y794204D01*
X220109Y792734D01*
X221234Y791609D01*
X222704Y791000D01*
X224296D01*
X225766Y791609D01*
X226891Y792734D01*
X227500Y794204D01*
Y795796D01*
X226891Y797266D01*
X225766Y798391D01*
X224296Y799000D01*
D02*
G37*
G36*
X823454Y819766D02*
X820546D01*
X817693Y819199D01*
X815006Y818085D01*
X812587Y816470D01*
X810531Y814413D01*
X808915Y811994D01*
X807802Y809307D01*
X807234Y806454D01*
Y803546D01*
X807802Y800693D01*
X808915Y798006D01*
X810531Y795587D01*
X812587Y793531D01*
X815006Y791915D01*
X817693Y790801D01*
X820546Y790234D01*
X823454D01*
X826307Y790801D01*
X828994Y791915D01*
X831413Y793531D01*
X833470Y795587D01*
X835086Y798006D01*
X836199Y800693D01*
X836766Y803546D01*
Y806454D01*
X836199Y809307D01*
X835086Y811994D01*
X833470Y814413D01*
X831413Y816470D01*
X828994Y818085D01*
X826307Y819199D01*
X823454Y819766D01*
D02*
G37*
G36*
X781454D02*
X778546D01*
X775693Y819199D01*
X773006Y818085D01*
X770587Y816470D01*
X768531Y814413D01*
X766915Y811994D01*
X765802Y809307D01*
X765234Y806454D01*
Y803546D01*
X765802Y800693D01*
X766915Y798006D01*
X768531Y795587D01*
X770587Y793531D01*
X773006Y791915D01*
X775693Y790801D01*
X778546Y790234D01*
X781454D01*
X784307Y790801D01*
X786994Y791915D01*
X789413Y793531D01*
X791470Y795587D01*
X793086Y798006D01*
X794199Y800693D01*
X794766Y803546D01*
Y806454D01*
X794199Y809307D01*
X793086Y811994D01*
X791470Y814413D01*
X789413Y816470D01*
X786994Y818085D01*
X784307Y819199D01*
X781454Y819766D01*
D02*
G37*
G36*
X752766D02*
X723234D01*
Y790234D01*
X752766D01*
Y819766D01*
D02*
G37*
G36*
X523454D02*
X520546D01*
X517693Y819199D01*
X515006Y818085D01*
X512587Y816470D01*
X510531Y814413D01*
X508915Y811994D01*
X507802Y809307D01*
X507234Y806454D01*
Y803546D01*
X507802Y800693D01*
X508915Y798006D01*
X510531Y795587D01*
X512587Y793531D01*
X515006Y791915D01*
X517693Y790801D01*
X520546Y790234D01*
X523454D01*
X526307Y790801D01*
X528994Y791915D01*
X531413Y793531D01*
X533470Y795587D01*
X535085Y798006D01*
X536199Y800693D01*
X536766Y803546D01*
Y806454D01*
X536199Y809307D01*
X535085Y811994D01*
X533470Y814413D01*
X531413Y816470D01*
X528994Y818085D01*
X526307Y819199D01*
X523454Y819766D01*
D02*
G37*
G36*
X481454D02*
X478546D01*
X475693Y819199D01*
X473006Y818085D01*
X470587Y816470D01*
X468531Y814413D01*
X466915Y811994D01*
X465802Y809307D01*
X465234Y806454D01*
Y803546D01*
X465802Y800693D01*
X466915Y798006D01*
X468531Y795587D01*
X470587Y793531D01*
X473006Y791915D01*
X475693Y790801D01*
X478546Y790234D01*
X481454D01*
X484307Y790801D01*
X486994Y791915D01*
X489413Y793531D01*
X491470Y795587D01*
X493086Y798006D01*
X494199Y800693D01*
X494766Y803546D01*
Y806454D01*
X494199Y809307D01*
X493086Y811994D01*
X491470Y814413D01*
X489413Y816470D01*
X486994Y818085D01*
X484307Y819199D01*
X481454Y819766D01*
D02*
G37*
G36*
X452766D02*
X423234D01*
Y790234D01*
X452766D01*
Y819766D01*
D02*
G37*
G36*
X673454Y819766D02*
X670546D01*
X667693Y819199D01*
X665005Y818085D01*
X662587Y816470D01*
X660530Y814413D01*
X658914Y811994D01*
X657801Y809307D01*
X657234Y806454D01*
Y803546D01*
X657801Y800693D01*
X658914Y798006D01*
X660530Y795587D01*
X662587Y793531D01*
X665005Y791915D01*
X667693Y790801D01*
X670546Y790234D01*
X673454D01*
X676307Y790801D01*
X678994Y791915D01*
X681413Y793531D01*
X683469Y795587D01*
X685085Y798006D01*
X686198Y800693D01*
X686766Y803546D01*
Y806454D01*
X686198Y809307D01*
X685085Y811994D01*
X683469Y814413D01*
X681413Y816470D01*
X678994Y818085D01*
X676307Y819199D01*
X673454Y819766D01*
D02*
G37*
G36*
X631454D02*
X628546D01*
X625693Y819199D01*
X623006Y818085D01*
X620587Y816470D01*
X618530Y814413D01*
X616914Y811994D01*
X615801Y809307D01*
X615234Y806454D01*
Y803546D01*
X615801Y800693D01*
X616914Y798006D01*
X618530Y795587D01*
X620587Y793531D01*
X623006Y791915D01*
X625693Y790801D01*
X628546Y790234D01*
X631454D01*
X634307Y790801D01*
X636994Y791915D01*
X639413Y793531D01*
X641469Y795587D01*
X643085Y798006D01*
X644199Y800693D01*
X644766Y803546D01*
Y806454D01*
X644199Y809307D01*
X643085Y811994D01*
X641469Y814413D01*
X639413Y816470D01*
X636994Y818085D01*
X634307Y819199D01*
X631454Y819766D01*
D02*
G37*
G36*
X602766D02*
X573234D01*
Y790234D01*
X602766D01*
Y819766D01*
D02*
G37*
G36*
X56796Y798250D02*
X55204D01*
X53734Y797641D01*
X52609Y796516D01*
X52000Y795045D01*
Y793454D01*
X52609Y791984D01*
X53734Y790859D01*
X54785Y790424D01*
Y789077D01*
X53734Y788641D01*
X52609Y787516D01*
X52000Y786046D01*
Y784454D01*
X52609Y782984D01*
X53734Y781859D01*
X55204Y781250D01*
X56796D01*
X58266Y781859D01*
X59391Y782984D01*
X60000Y784454D01*
Y786046D01*
X59391Y787516D01*
X58266Y788641D01*
X57215Y789077D01*
Y790424D01*
X58266Y790859D01*
X59391Y791984D01*
X60000Y793454D01*
Y795045D01*
X59391Y796516D01*
X58266Y797641D01*
X56796Y798250D01*
D02*
G37*
G36*
X40795D02*
X39204D01*
X37734Y797641D01*
X36609Y796516D01*
X36000Y795045D01*
Y793454D01*
X36609Y791984D01*
X37734Y790859D01*
X38785Y790424D01*
Y789077D01*
X37734Y788641D01*
X36609Y787516D01*
X36000Y786046D01*
Y784454D01*
X36609Y782984D01*
X37734Y781859D01*
X39204Y781250D01*
X40795D01*
X42266Y781859D01*
X43391Y782984D01*
X44000Y784454D01*
Y786046D01*
X43391Y787516D01*
X42266Y788641D01*
X41215Y789077D01*
Y790424D01*
X42266Y790859D01*
X43391Y791984D01*
X44000Y793454D01*
Y795045D01*
X43391Y796516D01*
X42266Y797641D01*
X40795Y798250D01*
D02*
G37*
G36*
X781454Y777766D02*
X778546D01*
X775693Y777199D01*
X773006Y776086D01*
X770587Y774470D01*
X768531Y772413D01*
X766915Y769995D01*
X765802Y767307D01*
X765234Y764454D01*
Y761546D01*
X765802Y758693D01*
X766915Y756006D01*
X768531Y753587D01*
X770587Y751531D01*
X773006Y749915D01*
X775693Y748802D01*
X778546Y748234D01*
X781454D01*
X784307Y748802D01*
X786994Y749915D01*
X789413Y751531D01*
X791470Y753587D01*
X793086Y756006D01*
X794199Y758693D01*
X794766Y761546D01*
Y764454D01*
X794199Y767307D01*
X793086Y769995D01*
X791470Y772413D01*
X789413Y774470D01*
X786994Y776086D01*
X784307Y777199D01*
X781454Y777766D01*
D02*
G37*
G36*
X481454D02*
X478546D01*
X475693Y777199D01*
X473006Y776086D01*
X470587Y774470D01*
X468531Y772413D01*
X466915Y769995D01*
X465802Y767307D01*
X465234Y764454D01*
Y761546D01*
X465802Y758693D01*
X466915Y756006D01*
X468531Y753587D01*
X470587Y751531D01*
X473006Y749915D01*
X475693Y748802D01*
X478546Y748234D01*
X481454D01*
X484307Y748802D01*
X486994Y749915D01*
X489413Y751531D01*
X491470Y753587D01*
X493086Y756006D01*
X494199Y758693D01*
X494766Y761546D01*
Y764454D01*
X494199Y767307D01*
X493086Y769995D01*
X491470Y772413D01*
X489413Y774470D01*
X486994Y776086D01*
X484307Y777199D01*
X481454Y777766D01*
D02*
G37*
G36*
X631454Y777766D02*
X628546D01*
X625693Y777199D01*
X623006Y776086D01*
X620587Y774470D01*
X618530Y772413D01*
X616914Y769995D01*
X615801Y767307D01*
X615234Y764454D01*
Y761546D01*
X615801Y758693D01*
X616914Y756006D01*
X618530Y753587D01*
X620587Y751531D01*
X623006Y749915D01*
X625693Y748802D01*
X628546Y748234D01*
X631454D01*
X634307Y748802D01*
X636994Y749915D01*
X639413Y751531D01*
X641469Y753587D01*
X643085Y756006D01*
X644199Y758693D01*
X644766Y761546D01*
Y764454D01*
X644199Y767307D01*
X643085Y769995D01*
X641469Y772413D01*
X639413Y774470D01*
X636994Y776086D01*
X634307Y777199D01*
X631454Y777766D01*
D02*
G37*
G36*
X291046Y754000D02*
X289454D01*
X287984Y753391D01*
X286859Y752266D01*
X286250Y750796D01*
Y749204D01*
X286859Y747734D01*
X287984Y746609D01*
X289454Y746000D01*
X291046D01*
X292516Y746609D01*
X293641Y747734D01*
X294250Y749204D01*
Y750796D01*
X293641Y752266D01*
X292516Y753391D01*
X291046Y754000D01*
D02*
G37*
G36*
X56796Y759000D02*
X55204D01*
X53734Y758391D01*
X52609Y757266D01*
X52000Y755796D01*
Y754204D01*
X52609Y752734D01*
X53734Y751609D01*
X54787Y751173D01*
Y749827D01*
X53734Y749391D01*
X52609Y748265D01*
X52000Y746795D01*
Y745204D01*
X52609Y743734D01*
X53734Y742609D01*
X55204Y742000D01*
X56796D01*
X58266Y742609D01*
X59391Y743734D01*
X60000Y745204D01*
Y746795D01*
X59391Y748265D01*
X58266Y749391D01*
X57214Y749827D01*
Y751173D01*
X58266Y751609D01*
X59391Y752734D01*
X60000Y754204D01*
Y755796D01*
X59391Y757266D01*
X58266Y758391D01*
X56796Y759000D01*
D02*
G37*
G36*
X40796D02*
X39204D01*
X37734Y758391D01*
X36609Y757266D01*
X36000Y755796D01*
Y754204D01*
X36609Y752734D01*
X37734Y751609D01*
X38786Y751173D01*
Y749827D01*
X37734Y749391D01*
X36609Y748265D01*
X36000Y746795D01*
Y745204D01*
X36609Y743734D01*
X37734Y742609D01*
X39204Y742000D01*
X40796D01*
X42266Y742609D01*
X43391Y743734D01*
X44000Y745204D01*
Y746795D01*
X43391Y748265D01*
X42266Y749391D01*
X41213Y749827D01*
Y751173D01*
X42266Y751609D01*
X43391Y752734D01*
X44000Y754204D01*
Y755796D01*
X43391Y757266D01*
X42266Y758391D01*
X40796Y759000D01*
D02*
G37*
G36*
X330796Y737750D02*
X329204D01*
X327734Y737141D01*
X326609Y736016D01*
X326000Y734546D01*
Y732954D01*
X326609Y731484D01*
X327734Y730359D01*
X329204Y729750D01*
X330796D01*
X332266Y730359D01*
X333391Y731484D01*
X334000Y732954D01*
Y734546D01*
X333391Y736016D01*
X332266Y737141D01*
X330796Y737750D01*
D02*
G37*
G36*
X312296Y736250D02*
X310704D01*
X309234Y735641D01*
X308109Y734516D01*
X307500Y733046D01*
Y731454D01*
X308109Y729984D01*
X309234Y728859D01*
X310704Y728250D01*
X312296D01*
X313766Y728859D01*
X314891Y729984D01*
X315500Y731454D01*
Y733046D01*
X314891Y734516D01*
X313766Y735641D01*
X312296Y736250D01*
D02*
G37*
G36*
X250000Y770000D02*
X150000D01*
Y720000D01*
X250000D01*
Y770000D01*
D02*
G37*
G36*
X396796Y720750D02*
X395204D01*
X393734Y720141D01*
X392609Y719016D01*
X392000Y717546D01*
Y715954D01*
X392609Y714484D01*
X393734Y713359D01*
X395204Y712750D01*
X396796D01*
X398266Y713359D01*
X399391Y714484D01*
X400000Y715954D01*
Y717546D01*
X399391Y719016D01*
X398266Y720141D01*
X396796Y720750D01*
D02*
G37*
G36*
X421796Y720250D02*
X420204D01*
X418734Y719641D01*
X417609Y718516D01*
X417000Y717046D01*
Y715454D01*
X417609Y713984D01*
X418734Y712859D01*
X420204Y712250D01*
X421796D01*
X423266Y712859D01*
X424391Y713984D01*
X425000Y715454D01*
Y717046D01*
X424391Y718516D01*
X423266Y719641D01*
X421796Y720250D01*
D02*
G37*
G36*
X590422Y720559D02*
X587927D01*
X585623Y719604D01*
X583859Y717840D01*
X582905Y715536D01*
Y713042D01*
X583859Y710737D01*
X585623Y708973D01*
X587927Y708019D01*
X590422D01*
X592726Y708973D01*
X594490Y710737D01*
X595444Y713042D01*
Y715536D01*
X594490Y717840D01*
X592726Y719604D01*
X590422Y720559D01*
D02*
G37*
G36*
X565922D02*
X563427D01*
X561123Y719604D01*
X559359Y717840D01*
X558405Y715536D01*
Y713042D01*
X559359Y710737D01*
X561123Y708973D01*
X563427Y708019D01*
X565922D01*
X568226Y708973D01*
X569990Y710737D01*
X570945Y713042D01*
Y715536D01*
X569990Y717840D01*
X568226Y719604D01*
X565922Y720559D01*
D02*
G37*
G36*
X683896Y710250D02*
X682304D01*
X680834Y709641D01*
X679709Y708516D01*
X679100Y707046D01*
Y705454D01*
X679709Y703984D01*
X680834Y702859D01*
X682304Y702250D01*
X683896D01*
X685366Y702859D01*
X686491Y703984D01*
X687100Y705454D01*
Y707046D01*
X686491Y708516D01*
X685366Y709641D01*
X683896Y710250D01*
D02*
G37*
G36*
X629653Y713870D02*
X627647D01*
X625709Y713351D01*
X623971Y712347D01*
X622552Y710929D01*
X621549Y709191D01*
X621030Y707253D01*
Y705247D01*
X621549Y703309D01*
X622552Y701571D01*
X623971Y700153D01*
X625709Y699149D01*
X627647Y698630D01*
X629653D01*
X631591Y699149D01*
X633329Y700153D01*
X634748Y701571D01*
X635751Y703309D01*
X636270Y705247D01*
Y707253D01*
X635751Y709191D01*
X634748Y710929D01*
X633329Y712347D01*
X631591Y713351D01*
X629653Y713870D01*
D02*
G37*
G36*
X869345Y725738D02*
X839779D01*
Y696172D01*
X869345D01*
Y725738D01*
D02*
G37*
G36*
X800900D02*
X797988D01*
X795132Y725170D01*
X792441Y724056D01*
X790020Y722438D01*
X787961Y720379D01*
X786343Y717958D01*
X785229Y715267D01*
X784661Y712411D01*
Y709499D01*
X785229Y706643D01*
X786343Y703953D01*
X787961Y701532D01*
X790020Y699473D01*
X792441Y697855D01*
X795132Y696740D01*
X797988Y696172D01*
X800900D01*
X803756Y696740D01*
X806446Y697855D01*
X808867Y699473D01*
X810926Y701532D01*
X812544Y703953D01*
X813659Y706643D01*
X814227Y709499D01*
Y712411D01*
X813659Y715267D01*
X812544Y717958D01*
X810926Y720379D01*
X808867Y722438D01*
X806446Y724056D01*
X803756Y725170D01*
X800900Y725738D01*
D02*
G37*
G36*
X361046Y699750D02*
X359454D01*
X357984Y699141D01*
X356859Y698016D01*
X356250Y696546D01*
Y694954D01*
X356859Y693484D01*
X357984Y692359D01*
X359454Y691750D01*
X361046D01*
X362516Y692359D01*
X363641Y693484D01*
X364250Y694954D01*
Y696546D01*
X363641Y698016D01*
X362516Y699141D01*
X361046Y699750D01*
D02*
G37*
G36*
X262296D02*
X260704D01*
X259234Y699141D01*
X258109Y698016D01*
X257500Y696546D01*
Y694954D01*
X258109Y693484D01*
X259234Y692359D01*
X260704Y691750D01*
X262296D01*
X263766Y692359D01*
X264891Y693484D01*
X265500Y694954D01*
Y696546D01*
X264891Y698016D01*
X263766Y699141D01*
X262296Y699750D01*
D02*
G37*
G36*
X700796Y690500D02*
X699204D01*
X697734Y689891D01*
X696609Y688766D01*
X696000Y687296D01*
Y685704D01*
X696609Y684234D01*
X697734Y683109D01*
X699204Y682500D01*
X700796D01*
X702266Y683109D01*
X703391Y684234D01*
X704000Y685704D01*
Y687296D01*
X703391Y688766D01*
X702266Y689891D01*
X700796Y690500D01*
D02*
G37*
G36*
X656546Y690000D02*
X654954D01*
X653484Y689391D01*
X652359Y688266D01*
X651750Y686796D01*
Y685204D01*
X652359Y683734D01*
X653484Y682609D01*
X654954Y682000D01*
X656546D01*
X658016Y682609D01*
X659141Y683734D01*
X659750Y685204D01*
Y686796D01*
X659141Y688266D01*
X658016Y689391D01*
X656546Y690000D01*
D02*
G37*
G36*
X313546Y681900D02*
X311954D01*
X310484Y681291D01*
X309359Y680166D01*
X308750Y678696D01*
Y677104D01*
X309359Y675634D01*
X310484Y674509D01*
X311954Y673900D01*
X313546D01*
X315016Y674509D01*
X316141Y675634D01*
X316750Y677104D01*
Y678696D01*
X316141Y680166D01*
X315016Y681291D01*
X313546Y681900D01*
D02*
G37*
G36*
X929182Y707486D02*
X925738D01*
X922359Y706814D01*
X919177Y705496D01*
X916313Y703583D01*
X913877Y701147D01*
X911964Y698283D01*
X910646Y695101D01*
X909974Y691722D01*
Y688278D01*
X910646Y684900D01*
X911964Y681718D01*
X913877Y678854D01*
X916313Y676418D01*
X919177Y674504D01*
X922359Y673186D01*
X925738Y672514D01*
X929182D01*
X932560Y673186D01*
X935742Y674504D01*
X938606Y676418D01*
X941042Y678854D01*
X942956Y681718D01*
X944274Y684900D01*
X944946Y688278D01*
Y691722D01*
X944274Y695101D01*
X942956Y698283D01*
X941042Y701147D01*
X938606Y703583D01*
X935742Y705496D01*
X932560Y706814D01*
X929182Y707486D01*
D02*
G37*
G36*
X261855Y679250D02*
X260263D01*
X258793Y678641D01*
X257668Y677516D01*
X257059Y676046D01*
Y674454D01*
X257668Y672984D01*
X258793Y671859D01*
X260263Y671250D01*
X261855D01*
X263325Y671859D01*
X264450Y672984D01*
X265059Y674454D01*
Y676046D01*
X264450Y677516D01*
X263325Y678641D01*
X261855Y679250D01*
D02*
G37*
G36*
X370296Y675250D02*
X368704D01*
X367234Y674641D01*
X366109Y673516D01*
X365500Y672046D01*
Y670454D01*
X366109Y668984D01*
X367234Y667859D01*
X368704Y667250D01*
X370296D01*
X371766Y667859D01*
X372891Y668984D01*
X373500Y670454D01*
Y672046D01*
X372891Y673516D01*
X371766Y674641D01*
X370296Y675250D01*
D02*
G37*
G36*
X683796Y670500D02*
X682204D01*
X680734Y669891D01*
X679609Y668766D01*
X679000Y667296D01*
Y665704D01*
X679609Y664234D01*
X680734Y663109D01*
X682204Y662500D01*
X683796D01*
X685266Y663109D01*
X686391Y664234D01*
X687000Y665704D01*
Y667296D01*
X686391Y668766D01*
X685266Y669891D01*
X683796Y670500D01*
D02*
G37*
G36*
X629653Y674120D02*
X627647D01*
X625709Y673601D01*
X623971Y672598D01*
X622552Y671179D01*
X621549Y669441D01*
X621030Y667503D01*
Y665497D01*
X621549Y663559D01*
X622552Y661821D01*
X623971Y660403D01*
X625709Y659399D01*
X627647Y658880D01*
X629653D01*
X631591Y659399D01*
X633329Y660403D01*
X634748Y661821D01*
X635751Y663559D01*
X636270Y665497D01*
Y667503D01*
X635751Y669441D01*
X634748Y671179D01*
X633329Y672598D01*
X631591Y673601D01*
X629653Y674120D01*
D02*
G37*
G36*
X188454Y682016D02*
X185546D01*
X182693Y681449D01*
X180006Y680335D01*
X177587Y678719D01*
X175530Y676663D01*
X173915Y674244D01*
X172801Y671557D01*
X172234Y668704D01*
Y665796D01*
X172801Y662943D01*
X173915Y660256D01*
X175530Y657837D01*
X177587Y655780D01*
X180006Y654165D01*
X182693Y653051D01*
X185546Y652484D01*
X188454D01*
X191307Y653051D01*
X193994Y654165D01*
X196413Y655780D01*
X198470Y657837D01*
X200085Y660256D01*
X201199Y662943D01*
X201766Y665796D01*
Y668704D01*
X201199Y671557D01*
X200085Y674244D01*
X198470Y676663D01*
X196413Y678719D01*
X193994Y680335D01*
X191307Y681449D01*
X188454Y682016D01*
D02*
G37*
G36*
X73724Y684750D02*
X70276D01*
X66895Y684078D01*
X63711Y682758D01*
X60844Y680843D01*
X58407Y678406D01*
X56492Y675539D01*
X55173Y672355D01*
X54500Y668974D01*
Y665526D01*
X55173Y662145D01*
X56492Y658961D01*
X58407Y656094D01*
X60844Y653657D01*
X63711Y651742D01*
X66895Y650423D01*
X70276Y649750D01*
X73724D01*
X77105Y650423D01*
X80289Y651742D01*
X83156Y653657D01*
X85593Y656094D01*
X87508Y658961D01*
X88827Y662145D01*
X89500Y665526D01*
Y668974D01*
X88827Y672355D01*
X87508Y675539D01*
X85593Y678406D01*
X83156Y680843D01*
X80289Y682758D01*
X77105Y684078D01*
X73724Y684750D01*
D02*
G37*
G36*
X355796Y651000D02*
X354204D01*
X352734Y650391D01*
X351609Y649266D01*
X351000Y647796D01*
Y646204D01*
X351609Y644734D01*
X352734Y643609D01*
X354204Y643000D01*
X355796D01*
X357266Y643609D01*
X358391Y644734D01*
X359000Y646204D01*
Y647796D01*
X358391Y649266D01*
X357266Y650391D01*
X355796Y651000D01*
D02*
G37*
G36*
X262146Y651000D02*
X260554D01*
X259084Y650391D01*
X257959Y649266D01*
X257350Y647795D01*
Y646204D01*
X257959Y644734D01*
X259084Y643609D01*
X260554Y643000D01*
X262146D01*
X263616Y643609D01*
X264741Y644734D01*
X265350Y646204D01*
Y647795D01*
X264741Y649266D01*
X263616Y650391D01*
X262146Y651000D01*
D02*
G37*
G36*
X507247Y650270D02*
X504753D01*
X502448Y649315D01*
X500685Y647552D01*
X499730Y645247D01*
Y642753D01*
X500685Y640448D01*
X502448Y638685D01*
X504753Y637730D01*
X507247D01*
X509552Y638685D01*
X511315Y640448D01*
X512270Y642753D01*
Y645247D01*
X511315Y647552D01*
X509552Y649315D01*
X507247Y650270D01*
D02*
G37*
G36*
X664796Y645250D02*
X663204D01*
X661734Y644641D01*
X660609Y643516D01*
X660000Y642046D01*
Y640454D01*
X660609Y638984D01*
X661734Y637859D01*
X663204Y637250D01*
X664796D01*
X666266Y637859D01*
X667391Y638984D01*
X668000Y640454D01*
Y642046D01*
X667391Y643516D01*
X666266Y644641D01*
X664796Y645250D01*
D02*
G37*
G36*
X340796Y657500D02*
X339204D01*
X337734Y656891D01*
X336609Y655766D01*
X336000Y654296D01*
Y652704D01*
X336220Y652173D01*
X336132Y651930D01*
X335331Y651000D01*
X334204D01*
X332734Y650391D01*
X331609Y649266D01*
X331000Y647796D01*
Y646204D01*
X331220Y645673D01*
X331132Y645430D01*
X330331Y644500D01*
X329204D01*
X327734Y643891D01*
X326609Y642766D01*
X326000Y641296D01*
Y639704D01*
X326609Y638234D01*
X327734Y637109D01*
X329204Y636500D01*
X330796D01*
X332266Y637109D01*
X333391Y638234D01*
X334000Y639704D01*
Y641296D01*
X333780Y641827D01*
X333868Y642070D01*
X334669Y643000D01*
X335796D01*
X337266Y643609D01*
X338391Y644734D01*
X339000Y646204D01*
Y647796D01*
X338780Y648327D01*
X338868Y648570D01*
X339669Y649500D01*
X340796D01*
X342266Y650109D01*
X343391Y651234D01*
X344000Y652704D01*
Y654296D01*
X343391Y655766D01*
X342266Y656891D01*
X340796Y657500D01*
D02*
G37*
G36*
X719426Y637270D02*
X717834D01*
X716364Y636661D01*
X715239Y635536D01*
X714630Y634066D01*
Y632474D01*
X715239Y631004D01*
X716364Y629879D01*
X717834Y629270D01*
X719426D01*
X720896Y629879D01*
X722021Y631004D01*
X722630Y632474D01*
Y634066D01*
X722021Y635536D01*
X720896Y636661D01*
X719426Y637270D01*
D02*
G37*
G36*
X702426D02*
X700834D01*
X699364Y636661D01*
X698239Y635536D01*
X697630Y634066D01*
Y632474D01*
X698239Y631004D01*
X699364Y629879D01*
X700834Y629270D01*
X702426D01*
X703896Y629879D01*
X705021Y631004D01*
X705630Y632474D01*
Y634066D01*
X705021Y635536D01*
X703896Y636661D01*
X702426Y637270D01*
D02*
G37*
G36*
X219796Y636750D02*
X218204D01*
X216734Y636141D01*
X215609Y635016D01*
X215000Y633546D01*
Y631954D01*
X215609Y630484D01*
X216734Y629359D01*
X218204Y628750D01*
X219796D01*
X221266Y629359D01*
X222391Y630484D01*
X223000Y631954D01*
Y633546D01*
X222391Y635016D01*
X221266Y636141D01*
X219796Y636750D01*
D02*
G37*
G36*
X262146Y636000D02*
X260554D01*
X259084Y635391D01*
X257959Y634266D01*
X257350Y632796D01*
Y631204D01*
X257959Y629734D01*
X259084Y628609D01*
X260554Y628000D01*
X262146D01*
X263616Y628609D01*
X264741Y629734D01*
X265350Y631204D01*
Y632796D01*
X264741Y634266D01*
X263616Y635391D01*
X262146Y636000D01*
D02*
G37*
G36*
X534497Y674270D02*
X532003D01*
X529698Y673315D01*
X527935Y671552D01*
X526980Y669247D01*
Y666753D01*
X527935Y664448D01*
X529698Y662685D01*
X532003Y661730D01*
X534497D01*
X536802Y662685D01*
X538532Y664415D01*
X560996D01*
X599711Y625700D01*
Y623253D01*
X600666Y620948D01*
X602430Y619185D01*
X604734Y618230D01*
X607229D01*
X609533Y619185D01*
X611297Y620948D01*
X612251Y623253D01*
Y625747D01*
X611297Y628052D01*
X609533Y629815D01*
X607229Y630770D01*
X604781D01*
X565016Y670535D01*
X563853Y671312D01*
X562481Y671585D01*
X538532D01*
X536802Y673315D01*
X534497Y674270D01*
D02*
G37*
G36*
X219796Y626000D02*
X218204D01*
X216734Y625391D01*
X215609Y624266D01*
X215000Y622796D01*
Y621204D01*
X215609Y619734D01*
X216734Y618609D01*
X218204Y618000D01*
X219796D01*
X221266Y618609D01*
X222391Y619734D01*
X223000Y621204D01*
Y622796D01*
X222391Y624266D01*
X221266Y625391D01*
X219796Y626000D01*
D02*
G37*
G36*
X188454Y640016D02*
X185546D01*
X182693Y639449D01*
X180006Y638335D01*
X177587Y636720D01*
X175530Y634663D01*
X173915Y632244D01*
X172801Y629557D01*
X172234Y626704D01*
Y623796D01*
X172801Y620943D01*
X173915Y618256D01*
X175530Y615837D01*
X177587Y613781D01*
X180006Y612165D01*
X182693Y611051D01*
X185546Y610484D01*
X188454D01*
X191307Y611051D01*
X193994Y612165D01*
X196413Y613781D01*
X198470Y615837D01*
X200085Y618256D01*
X201199Y620943D01*
X201766Y623796D01*
Y626704D01*
X201199Y629557D01*
X200085Y632244D01*
X198470Y634663D01*
X196413Y636720D01*
X193994Y638335D01*
X191307Y639449D01*
X188454Y640016D01*
D02*
G37*
G36*
X146454D02*
X143546D01*
X140693Y639449D01*
X138006Y638335D01*
X135587Y636720D01*
X133531Y634663D01*
X131915Y632244D01*
X130801Y629557D01*
X130234Y626704D01*
Y623796D01*
X130801Y620943D01*
X131915Y618256D01*
X133531Y615837D01*
X135587Y613781D01*
X138006Y612165D01*
X140693Y611051D01*
X143546Y610484D01*
X146454D01*
X149307Y611051D01*
X151994Y612165D01*
X154413Y613781D01*
X156469Y615837D01*
X158085Y618256D01*
X159199Y620943D01*
X159766Y623796D01*
Y626704D01*
X159199Y629557D01*
X158085Y632244D01*
X156469Y634663D01*
X154413Y636720D01*
X151994Y638335D01*
X149307Y639449D01*
X146454Y640016D01*
D02*
G37*
G36*
X261758Y608959D02*
X260167D01*
X258697Y608350D01*
X257572Y607225D01*
X256963Y605755D01*
Y604163D01*
X257572Y602693D01*
X258697Y601568D01*
X260167Y600959D01*
X261758D01*
X263228Y601568D01*
X264354Y602693D01*
X264963Y604163D01*
Y605755D01*
X264354Y607225D01*
X263228Y608350D01*
X261758Y608959D01*
D02*
G37*
G36*
X691796Y606500D02*
X690204D01*
X688734Y605891D01*
X687609Y604766D01*
X687000Y603296D01*
Y601704D01*
X687609Y600234D01*
X688734Y599109D01*
X690204Y598500D01*
X691796D01*
X693266Y599109D01*
X694391Y600234D01*
X695000Y601704D01*
Y603296D01*
X694391Y604766D01*
X693266Y605891D01*
X691796Y606500D01*
D02*
G37*
G36*
X678796D02*
X677205D01*
X675734Y605891D01*
X674609Y604766D01*
X674000Y603296D01*
Y601704D01*
X674609Y600234D01*
X675734Y599109D01*
X677205Y598500D01*
X678796D01*
X680266Y599109D01*
X681391Y600234D01*
X682000Y601704D01*
Y603296D01*
X681391Y604766D01*
X680266Y605891D01*
X678796Y606500D01*
D02*
G37*
G36*
X555796Y604000D02*
X554204D01*
X552734Y603391D01*
X551609Y602266D01*
X551000Y600796D01*
Y599204D01*
X551609Y597734D01*
X552734Y596609D01*
X554204Y596000D01*
X555796D01*
X557266Y596609D01*
X558391Y597734D01*
X559000Y599204D01*
Y600796D01*
X558391Y602266D01*
X557266Y603391D01*
X555796Y604000D01*
D02*
G37*
G36*
X295896Y600500D02*
X294305D01*
X292834Y599891D01*
X291709Y598766D01*
X291100Y597296D01*
Y595704D01*
X291709Y594234D01*
X292834Y593109D01*
X294305Y592500D01*
X295896D01*
X297366Y593109D01*
X298491Y594234D01*
X299100Y595704D01*
Y597296D01*
X298491Y598766D01*
X297366Y599891D01*
X295896Y600500D01*
D02*
G37*
G36*
X261896Y599500D02*
X260305D01*
X258834Y598891D01*
X257709Y597766D01*
X257100Y596296D01*
Y594704D01*
X257709Y593234D01*
X258834Y592109D01*
X260305Y591500D01*
X261896D01*
X263366Y592109D01*
X264491Y593234D01*
X265100Y594704D01*
Y596296D01*
X264491Y597766D01*
X263366Y598891D01*
X261896Y599500D01*
D02*
G37*
G36*
X869766Y617766D02*
X840234D01*
Y588234D01*
X869766D01*
Y617766D01*
D02*
G37*
G36*
X814454D02*
X811546D01*
X808693Y617198D01*
X806006Y616085D01*
X803587Y614469D01*
X801531Y612413D01*
X799915Y609994D01*
X798802Y607307D01*
X798234Y604454D01*
Y601546D01*
X798802Y598693D01*
X799915Y596006D01*
X801531Y593587D01*
X803587Y591530D01*
X806006Y589915D01*
X808693Y588801D01*
X811546Y588234D01*
X814454D01*
X817307Y588801D01*
X819995Y589915D01*
X822413Y591530D01*
X824470Y593587D01*
X826086Y596006D01*
X827199Y598693D01*
X827766Y601546D01*
Y604454D01*
X827199Y607307D01*
X826086Y609994D01*
X824470Y612413D01*
X822413Y614469D01*
X819995Y616085D01*
X817307Y617198D01*
X814454Y617766D01*
D02*
G37*
G36*
X929724Y620500D02*
X926277D01*
X922896Y619827D01*
X919711Y618508D01*
X916845Y616593D01*
X914407Y614156D01*
X912492Y611289D01*
X911173Y608105D01*
X910500Y604724D01*
Y601276D01*
X911173Y597895D01*
X912492Y594711D01*
X914407Y591844D01*
X916845Y589407D01*
X919711Y587492D01*
X922896Y586172D01*
X926277Y585500D01*
X929724D01*
X933105Y586172D01*
X936290Y587492D01*
X939156Y589407D01*
X941593Y591844D01*
X943509Y594711D01*
X944828Y597895D01*
X945500Y601276D01*
Y604724D01*
X944828Y608105D01*
X943509Y611289D01*
X941593Y614156D01*
X939156Y616593D01*
X936290Y618508D01*
X933105Y619827D01*
X929724Y620500D01*
D02*
G37*
G36*
X325999Y586270D02*
X324002D01*
X322156Y585506D01*
X320744Y584094D01*
X319980Y582248D01*
Y580251D01*
X320744Y578406D01*
X322156Y576994D01*
X324002Y576230D01*
X325999D01*
X327844Y576994D01*
X329256Y578406D01*
X330020Y580251D01*
Y582248D01*
X329256Y584094D01*
X327844Y585506D01*
X325999Y586270D01*
D02*
G37*
G36*
X379796Y582250D02*
X378204D01*
X376734Y581641D01*
X375609Y580516D01*
X375000Y579046D01*
Y577454D01*
X375609Y575984D01*
X376734Y574859D01*
X378204Y574250D01*
X379796D01*
X381266Y574859D01*
X382391Y575984D01*
X383000Y577454D01*
Y579046D01*
X382391Y580516D01*
X381266Y581641D01*
X379796Y582250D01*
D02*
G37*
G36*
X367296D02*
X365704D01*
X364234Y581641D01*
X363109Y580516D01*
X362500Y579046D01*
Y577454D01*
X363109Y575984D01*
X364234Y574859D01*
X365704Y574250D01*
X367296D01*
X368766Y574859D01*
X369891Y575984D01*
X370500Y577454D01*
Y579046D01*
X369891Y580516D01*
X368766Y581641D01*
X367296Y582250D01*
D02*
G37*
G36*
X266046Y582250D02*
X264454D01*
X262984Y581641D01*
X261859Y580516D01*
X261250Y579046D01*
Y577454D01*
X261859Y575984D01*
X262984Y574859D01*
X264454Y574250D01*
X266046D01*
X267516Y574859D01*
X268641Y575984D01*
X269250Y577454D01*
Y579046D01*
X268641Y580516D01*
X267516Y581641D01*
X266046Y582250D01*
D02*
G37*
G36*
X697733Y581250D02*
X696142D01*
X694671Y580641D01*
X693546Y579516D01*
X692937Y578046D01*
Y576454D01*
X693546Y574984D01*
X694671Y573859D01*
X696142Y573250D01*
X697733D01*
X699203Y573859D01*
X700328Y574984D01*
X700937Y576454D01*
Y578046D01*
X700328Y579516D01*
X699203Y580641D01*
X697733Y581250D01*
D02*
G37*
G36*
X430796Y596000D02*
X429204D01*
X427734Y595391D01*
X426609Y594266D01*
X426000Y592796D01*
Y592173D01*
X425826Y591174D01*
X424827Y591000D01*
X424204D01*
X422734Y590391D01*
X421609Y589266D01*
X421000Y587796D01*
Y587173D01*
X420826Y586174D01*
X419827Y586000D01*
X419204D01*
X417734Y585391D01*
X416609Y584266D01*
X416000Y582796D01*
Y582173D01*
X415826Y581174D01*
X414827Y581000D01*
X414204D01*
X412734Y580391D01*
X411609Y579266D01*
X411000Y577796D01*
Y576204D01*
X411609Y574734D01*
X412734Y573609D01*
X414204Y573000D01*
X415796D01*
X417266Y573609D01*
X418391Y574734D01*
X419000Y576204D01*
Y576827D01*
X419174Y577826D01*
X420173Y578000D01*
X420796D01*
X422266Y578609D01*
X423391Y579734D01*
X424000Y581204D01*
Y581827D01*
X424174Y582826D01*
X425173Y583000D01*
X425796D01*
X427266Y583609D01*
X428391Y584734D01*
X429000Y586204D01*
Y586827D01*
X429174Y587826D01*
X430173Y588000D01*
X430796D01*
X432266Y588609D01*
X433391Y589734D01*
X434000Y591204D01*
Y592796D01*
X433391Y594266D01*
X432266Y595391D01*
X430796Y596000D01*
D02*
G37*
G36*
X643440Y584870D02*
X641434D01*
X639496Y584351D01*
X637758Y583348D01*
X636340Y581929D01*
X635336Y580191D01*
X634817Y578253D01*
Y576247D01*
X635336Y574309D01*
X636340Y572571D01*
X637758Y571152D01*
X639496Y570149D01*
X641434Y569630D01*
X643440D01*
X645378Y570149D01*
X647116Y571152D01*
X648535Y572571D01*
X649538Y574309D01*
X650057Y576247D01*
Y578253D01*
X649538Y580191D01*
X648535Y581929D01*
X647116Y583348D01*
X645378Y584351D01*
X643440Y584870D01*
D02*
G37*
G36*
X188454Y598016D02*
X185546D01*
X182693Y597449D01*
X180006Y596335D01*
X177587Y594720D01*
X175530Y592663D01*
X173915Y590244D01*
X172801Y587557D01*
X172234Y584704D01*
Y581796D01*
X172801Y578943D01*
X173915Y576256D01*
X175530Y573837D01*
X177587Y571781D01*
X180006Y570165D01*
X182693Y569052D01*
X185546Y568484D01*
X188454D01*
X191307Y569052D01*
X193994Y570165D01*
X196413Y571781D01*
X198470Y573837D01*
X200085Y576256D01*
X201199Y578943D01*
X201766Y581796D01*
Y584704D01*
X201199Y587557D01*
X200085Y590244D01*
X198470Y592663D01*
X196413Y594720D01*
X193994Y596335D01*
X191307Y597449D01*
X188454Y598016D01*
D02*
G37*
G36*
X159766D02*
X130234D01*
Y568484D01*
X159766D01*
Y598016D01*
D02*
G37*
G36*
X73724Y600750D02*
X70276D01*
X66895Y600078D01*
X63711Y598758D01*
X60844Y596843D01*
X58407Y594406D01*
X56492Y591539D01*
X55173Y588355D01*
X54500Y584974D01*
Y581526D01*
X55173Y578145D01*
X56492Y574961D01*
X58407Y572094D01*
X60844Y569657D01*
X63711Y567742D01*
X66895Y566423D01*
X70276Y565750D01*
X73724D01*
X77105Y566423D01*
X80289Y567742D01*
X83156Y569657D01*
X85593Y572094D01*
X87508Y574961D01*
X88827Y578145D01*
X89500Y581526D01*
Y584974D01*
X88827Y588355D01*
X87508Y591539D01*
X85593Y594406D01*
X83156Y596843D01*
X80289Y598758D01*
X77105Y600078D01*
X73724Y600750D01*
D02*
G37*
G36*
X91749Y565270D02*
X89752D01*
X87906Y564506D01*
X86494Y563094D01*
X85730Y561249D01*
Y559252D01*
X86494Y557406D01*
X87906Y555994D01*
X89752Y555230D01*
X91749D01*
X93594Y555994D01*
X95006Y557406D01*
X95770Y559252D01*
Y561249D01*
X95006Y563094D01*
X93594Y564506D01*
X91749Y565270D01*
D02*
G37*
G36*
X715046Y561500D02*
X713454D01*
X711984Y560891D01*
X710859Y559766D01*
X710250Y558296D01*
Y556704D01*
X710859Y555234D01*
X711984Y554109D01*
X713454Y553500D01*
X715046D01*
X716516Y554109D01*
X717641Y555234D01*
X718250Y556704D01*
Y558296D01*
X717641Y559766D01*
X716516Y560891D01*
X715046Y561500D01*
D02*
G37*
G36*
X670796Y561250D02*
X669204D01*
X667734Y560641D01*
X666609Y559516D01*
X666000Y558046D01*
Y556454D01*
X666609Y554984D01*
X667734Y553859D01*
X669204Y553250D01*
X670796D01*
X672266Y553859D01*
X673391Y554984D01*
X674000Y556454D01*
Y558046D01*
X673391Y559516D01*
X672266Y560641D01*
X670796Y561250D01*
D02*
G37*
G36*
X856454Y575766D02*
X853546D01*
X850693Y575199D01*
X848006Y574085D01*
X845587Y572469D01*
X843531Y570413D01*
X841915Y567994D01*
X840802Y565307D01*
X840234Y562454D01*
Y559546D01*
X840802Y556693D01*
X841915Y554006D01*
X843531Y551587D01*
X845587Y549530D01*
X848006Y547915D01*
X850693Y546801D01*
X853546Y546234D01*
X856454D01*
X859307Y546801D01*
X861994Y547915D01*
X864413Y549530D01*
X866470Y551587D01*
X868086Y554006D01*
X869199Y556693D01*
X869766Y559546D01*
Y562454D01*
X869199Y565307D01*
X868086Y567994D01*
X866470Y570413D01*
X864413Y572469D01*
X861994Y574085D01*
X859307Y575199D01*
X856454Y575766D01*
D02*
G37*
G36*
X814454D02*
X811546D01*
X808693Y575199D01*
X806006Y574085D01*
X803587Y572469D01*
X801531Y570413D01*
X799915Y567994D01*
X798802Y565307D01*
X798234Y562454D01*
Y559546D01*
X798802Y556693D01*
X799915Y554006D01*
X801531Y551587D01*
X803587Y549530D01*
X806006Y547915D01*
X808693Y546801D01*
X811546Y546234D01*
X814454D01*
X817307Y546801D01*
X819995Y547915D01*
X822413Y549530D01*
X824470Y551587D01*
X826086Y554006D01*
X827199Y556693D01*
X827766Y559546D01*
Y562454D01*
X827199Y565307D01*
X826086Y567994D01*
X824470Y570413D01*
X822413Y572469D01*
X819995Y574085D01*
X817307Y575199D01*
X814454Y575766D01*
D02*
G37*
G36*
X643440Y545120D02*
X641434D01*
X639496Y544601D01*
X637758Y543597D01*
X636340Y542179D01*
X635336Y540441D01*
X634817Y538503D01*
Y536497D01*
X635336Y534559D01*
X636340Y532821D01*
X637758Y531403D01*
X639496Y530399D01*
X641434Y529880D01*
X643440D01*
X645378Y530399D01*
X647116Y531403D01*
X648535Y532821D01*
X649538Y534559D01*
X650057Y536497D01*
Y538503D01*
X649538Y540441D01*
X648535Y542179D01*
X647116Y543597D01*
X645378Y544601D01*
X643440Y545120D01*
D02*
G37*
G36*
X336046Y549000D02*
X334454D01*
X332984Y548391D01*
X331859Y547266D01*
X331250Y545796D01*
Y544204D01*
X331859Y542734D01*
X332984Y541609D01*
X334454Y541000D01*
X335077D01*
X336076Y540826D01*
X336250Y539827D01*
Y539204D01*
X336859Y537734D01*
X337984Y536609D01*
X339454Y536000D01*
X340077D01*
X341076Y535826D01*
X341250Y534827D01*
Y534204D01*
X341859Y532734D01*
X342984Y531609D01*
X344454Y531000D01*
X345077D01*
X346076Y530826D01*
X346250Y529827D01*
Y529204D01*
X346859Y527734D01*
X347984Y526609D01*
X349454Y526000D01*
X351046D01*
X352516Y526609D01*
X353641Y527734D01*
X354250Y529204D01*
Y530796D01*
X353641Y532266D01*
X352516Y533391D01*
X351046Y534000D01*
X350423D01*
X349424Y534174D01*
X349250Y535173D01*
Y535796D01*
X348641Y537266D01*
X347516Y538391D01*
X346046Y539000D01*
X345423D01*
X344424Y539174D01*
X344250Y540173D01*
Y540796D01*
X343641Y542266D01*
X342516Y543391D01*
X341046Y544000D01*
X340423D01*
X339424Y544174D01*
X339250Y545173D01*
Y545796D01*
X338641Y547266D01*
X337516Y548391D01*
X336046Y549000D01*
D02*
G37*
G36*
X271046D02*
X269454D01*
X267984Y548391D01*
X266859Y547266D01*
X266250Y545796D01*
Y544204D01*
X266859Y542734D01*
X267984Y541609D01*
X269454Y541000D01*
X270077D01*
X271076Y540826D01*
X271250Y539827D01*
Y539204D01*
X271859Y537734D01*
X272984Y536609D01*
X274454Y536000D01*
X275077D01*
X276076Y535826D01*
X276250Y534827D01*
Y534204D01*
X276859Y532734D01*
X277984Y531609D01*
X279454Y531000D01*
X280077D01*
X281076Y530826D01*
X281250Y529827D01*
Y529204D01*
X281859Y527734D01*
X282984Y526609D01*
X284454Y526000D01*
X286046D01*
X287516Y526609D01*
X288641Y527734D01*
X289250Y529204D01*
Y530796D01*
X288641Y532266D01*
X287516Y533391D01*
X286046Y534000D01*
X285423D01*
X284424Y534174D01*
X284250Y535173D01*
Y535796D01*
X283641Y537266D01*
X282516Y538391D01*
X281046Y539000D01*
X280423D01*
X279424Y539174D01*
X279250Y540173D01*
Y540796D01*
X278641Y542266D01*
X277516Y543391D01*
X276046Y544000D01*
X275423D01*
X274424Y544174D01*
X274250Y545173D01*
Y545796D01*
X273641Y547266D01*
X272516Y548391D01*
X271046Y549000D01*
D02*
G37*
G36*
X600296Y468000D02*
X598704D01*
X597234Y467391D01*
X596109Y466266D01*
X595500Y464795D01*
Y463204D01*
X596109Y461734D01*
X597234Y460609D01*
X598704Y460000D01*
X600296D01*
X601766Y460609D01*
X602891Y461734D01*
X603500Y463204D01*
Y464795D01*
X602891Y466266D01*
X601766Y467391D01*
X600296Y468000D01*
D02*
G37*
G36*
X549546D02*
X547955D01*
X546484Y467391D01*
X545359Y466266D01*
X544750Y464795D01*
Y463204D01*
X545359Y461734D01*
X546484Y460609D01*
X547955Y460000D01*
X549546D01*
X551016Y460609D01*
X552141Y461734D01*
X552750Y463204D01*
Y464795D01*
X552141Y466266D01*
X551016Y467391D01*
X549546Y468000D01*
D02*
G37*
G36*
X135046D02*
X133454D01*
X131984Y467391D01*
X130859Y466266D01*
X130250Y464795D01*
Y463204D01*
X130859Y461734D01*
X131984Y460609D01*
X133454Y460000D01*
X135046D01*
X136516Y460609D01*
X137641Y461734D01*
X138250Y463204D01*
Y464795D01*
X137641Y466266D01*
X136516Y467391D01*
X135046Y468000D01*
D02*
G37*
G36*
X84296D02*
X82705D01*
X81234Y467391D01*
X80109Y466266D01*
X79500Y464795D01*
Y463204D01*
X80109Y461734D01*
X81234Y460609D01*
X82705Y460000D01*
X84296D01*
X85766Y460609D01*
X86891Y461734D01*
X87500Y463204D01*
Y464795D01*
X86891Y466266D01*
X85766Y467391D01*
X84296Y468000D01*
D02*
G37*
G36*
X368296Y468000D02*
X366704D01*
X365234Y467391D01*
X364109Y466265D01*
X363500Y464795D01*
Y463204D01*
X364109Y461734D01*
X365234Y460609D01*
X366704Y460000D01*
X368296D01*
X369766Y460609D01*
X370891Y461734D01*
X371500Y463204D01*
Y464795D01*
X370891Y466265D01*
X369766Y467391D01*
X368296Y468000D01*
D02*
G37*
G36*
X317546D02*
X315955D01*
X314485Y467391D01*
X313359Y466265D01*
X312750Y464795D01*
Y463204D01*
X313359Y461734D01*
X314485Y460609D01*
X315955Y460000D01*
X317546D01*
X319016Y460609D01*
X320141Y461734D01*
X320750Y463204D01*
Y464795D01*
X320141Y466265D01*
X319016Y467391D01*
X317546Y468000D01*
D02*
G37*
G36*
X929724Y494500D02*
X926277D01*
X922896Y493828D01*
X919711Y492509D01*
X916845Y490593D01*
X914407Y488156D01*
X912492Y485289D01*
X911173Y482105D01*
X910500Y478724D01*
Y475277D01*
X911173Y471896D01*
X912492Y468711D01*
X914407Y465845D01*
X916845Y463407D01*
X919711Y461492D01*
X922896Y460173D01*
X926277Y459500D01*
X929724D01*
X933105Y460173D01*
X936290Y461492D01*
X939156Y463407D01*
X941593Y465845D01*
X943509Y468711D01*
X944828Y471896D01*
X945500Y475277D01*
Y478724D01*
X944828Y482105D01*
X943509Y485289D01*
X941593Y488156D01*
X939156Y490593D01*
X936290Y492509D01*
X933105Y493828D01*
X929724Y494500D01*
D02*
G37*
G36*
X600346Y438250D02*
X598754D01*
X597284Y437641D01*
X596159Y436516D01*
X595550Y435046D01*
Y433455D01*
X596159Y431984D01*
X597284Y430859D01*
X598754Y430250D01*
X600346D01*
X601816Y430859D01*
X602941Y431984D01*
X603550Y433455D01*
Y435046D01*
X602941Y436516D01*
X601816Y437641D01*
X600346Y438250D01*
D02*
G37*
G36*
X549546D02*
X547954D01*
X546484Y437641D01*
X545359Y436516D01*
X544750Y435046D01*
Y433455D01*
X545359Y431984D01*
X546484Y430859D01*
X547954Y430250D01*
X549546D01*
X551016Y430859D01*
X552141Y431984D01*
X552750Y433455D01*
Y435046D01*
X552141Y436516D01*
X551016Y437641D01*
X549546Y438250D01*
D02*
G37*
G36*
X135096D02*
X133504D01*
X132034Y437641D01*
X130909Y436516D01*
X130300Y435046D01*
Y433455D01*
X130909Y431984D01*
X132034Y430859D01*
X133504Y430250D01*
X135096D01*
X136566Y430859D01*
X137691Y431984D01*
X138300Y433455D01*
Y435046D01*
X137691Y436516D01*
X136566Y437641D01*
X135096Y438250D01*
D02*
G37*
G36*
X84296D02*
X82704D01*
X81234Y437641D01*
X80109Y436516D01*
X79500Y435046D01*
Y433455D01*
X80109Y431984D01*
X81234Y430859D01*
X82704Y430250D01*
X84296D01*
X85766Y430859D01*
X86891Y431984D01*
X87500Y433455D01*
Y435046D01*
X86891Y436516D01*
X85766Y437641D01*
X84296Y438250D01*
D02*
G37*
G36*
X368346Y438250D02*
X366754D01*
X365284Y437641D01*
X364159Y436516D01*
X363550Y435046D01*
Y433454D01*
X364159Y431984D01*
X365284Y430859D01*
X366754Y430250D01*
X368346D01*
X369816Y430859D01*
X370941Y431984D01*
X371550Y433454D01*
Y435046D01*
X370941Y436516D01*
X369816Y437641D01*
X368346Y438250D01*
D02*
G37*
G36*
X317546D02*
X315954D01*
X314484Y437641D01*
X313359Y436516D01*
X312750Y435046D01*
Y433454D01*
X313359Y431984D01*
X314484Y430859D01*
X315954Y430250D01*
X317546D01*
X319016Y430859D01*
X320141Y431984D01*
X320750Y433454D01*
Y435046D01*
X320141Y436516D01*
X319016Y437641D01*
X317546Y438250D01*
D02*
G37*
G36*
X638649Y439270D02*
X636651D01*
X634806Y438506D01*
X633394Y437094D01*
X632630Y435249D01*
Y433252D01*
X633394Y431407D01*
X634806Y429995D01*
X636651Y429230D01*
X638649D01*
X640494Y429995D01*
X641906Y431407D01*
X642670Y433252D01*
Y435249D01*
X641906Y437094D01*
X640494Y438506D01*
X638649Y439270D01*
D02*
G37*
G36*
X524349D02*
X522351D01*
X520506Y438506D01*
X519094Y437094D01*
X518330Y435249D01*
Y433252D01*
X519094Y431407D01*
X520506Y429995D01*
X522351Y429230D01*
X524349D01*
X526194Y429995D01*
X527606Y431407D01*
X528370Y433252D01*
Y435249D01*
X527606Y437094D01*
X526194Y438506D01*
X524349Y439270D01*
D02*
G37*
G36*
X173399D02*
X171402D01*
X169556Y438506D01*
X168144Y437094D01*
X167380Y435249D01*
Y433252D01*
X168144Y431407D01*
X169556Y429995D01*
X171402Y429230D01*
X173399D01*
X175244Y429995D01*
X176656Y431407D01*
X177420Y433252D01*
Y435249D01*
X176656Y437094D01*
X175244Y438506D01*
X173399Y439270D01*
D02*
G37*
G36*
X59099D02*
X57101D01*
X55256Y438506D01*
X53844Y437094D01*
X53080Y435249D01*
Y433252D01*
X53844Y431407D01*
X55256Y429995D01*
X57101Y429230D01*
X59099D01*
X60944Y429995D01*
X62356Y431407D01*
X63120Y433252D01*
Y435249D01*
X62356Y437094D01*
X60944Y438506D01*
X59099Y439270D01*
D02*
G37*
G36*
X406649Y439270D02*
X404652D01*
X402807Y438506D01*
X401394Y437094D01*
X400630Y435249D01*
Y433251D01*
X401394Y431407D01*
X402807Y429994D01*
X404652Y429230D01*
X406649D01*
X408494Y429994D01*
X409906Y431407D01*
X410670Y433251D01*
Y435249D01*
X409906Y437094D01*
X408494Y438506D01*
X406649Y439270D01*
D02*
G37*
G36*
X292349D02*
X290352D01*
X288507Y438506D01*
X287094Y437094D01*
X286330Y435249D01*
Y433251D01*
X287094Y431407D01*
X288507Y429994D01*
X290352Y429230D01*
X292349D01*
X294194Y429994D01*
X295606Y431407D01*
X296370Y433251D01*
Y435249D01*
X295606Y437094D01*
X294194Y438506D01*
X292349Y439270D01*
D02*
G37*
G36*
X135096Y421500D02*
X133504D01*
X132034Y420891D01*
X130909Y419766D01*
X130494Y418764D01*
X126965Y415235D01*
X126188Y414072D01*
X125915Y412700D01*
Y397298D01*
X125827Y397085D01*
X87335D01*
Y416306D01*
X87500Y416704D01*
Y418296D01*
X86891Y419766D01*
X85766Y420891D01*
X84296Y421500D01*
X82704D01*
X81234Y420891D01*
X80109Y419766D01*
X79500Y418296D01*
Y416704D01*
X80109Y415234D01*
X80165Y415178D01*
Y395298D01*
X79750Y394296D01*
Y392704D01*
X80359Y391234D01*
X81484Y390109D01*
X82954Y389500D01*
X84546D01*
X85548Y389915D01*
X127500D01*
X128872Y390188D01*
X130035Y390965D01*
X130764Y391694D01*
X131298Y391915D01*
X135765D01*
X155444Y372236D01*
X155859Y371234D01*
X156984Y370109D01*
X158454Y369500D01*
X160046D01*
X161516Y370109D01*
X162641Y371234D01*
X163250Y372704D01*
Y374296D01*
X162641Y375766D01*
X161516Y376891D01*
X160514Y377306D01*
X139785Y398035D01*
X138622Y398812D01*
X137250Y399085D01*
X133085D01*
Y411215D01*
X135564Y413694D01*
X136566Y414109D01*
X137691Y415234D01*
X138300Y416704D01*
Y418296D01*
X137691Y419766D01*
X136566Y420891D01*
X135096Y421500D01*
D02*
G37*
G36*
X209296Y407500D02*
X207704D01*
X206234Y406891D01*
X205109Y405766D01*
X204500Y404296D01*
Y402705D01*
X205109Y401234D01*
X206234Y400109D01*
X207285Y399674D01*
Y398327D01*
X206234Y397891D01*
X205109Y396766D01*
X204500Y395296D01*
Y393705D01*
X205109Y392235D01*
X206234Y391109D01*
X207704Y390500D01*
X209296D01*
X210766Y391109D01*
X211891Y392235D01*
X212500Y393705D01*
Y395296D01*
X211891Y396766D01*
X210766Y397891D01*
X209715Y398327D01*
Y399674D01*
X210766Y400109D01*
X211891Y401234D01*
X212500Y402705D01*
Y404296D01*
X211891Y405766D01*
X210766Y406891D01*
X209296Y407500D01*
D02*
G37*
G36*
X674546D02*
X672954D01*
X671484Y406891D01*
X670359Y405766D01*
X669750Y404296D01*
Y402705D01*
X670359Y401234D01*
X671484Y400109D01*
X672536Y399673D01*
Y398327D01*
X671484Y397891D01*
X670359Y396766D01*
X669750Y395296D01*
Y393704D01*
X670359Y392234D01*
X671484Y391109D01*
X672954Y390500D01*
X674546D01*
X676016Y391109D01*
X677141Y392234D01*
X677750Y393704D01*
Y395296D01*
X677141Y396766D01*
X676016Y397891D01*
X674964Y398327D01*
Y399673D01*
X676016Y400109D01*
X677141Y401234D01*
X677750Y402705D01*
Y404296D01*
X677141Y405766D01*
X676016Y406891D01*
X674546Y407500D01*
D02*
G37*
G36*
X658546D02*
X656954D01*
X655484Y406891D01*
X654359Y405766D01*
X653750Y404296D01*
Y402705D01*
X654359Y401234D01*
X655484Y400109D01*
X656537Y399673D01*
Y398327D01*
X655484Y397891D01*
X654359Y396766D01*
X653750Y395296D01*
Y393704D01*
X654359Y392234D01*
X655484Y391109D01*
X656954Y390500D01*
X658546D01*
X660016Y391109D01*
X661141Y392234D01*
X661750Y393704D01*
Y395296D01*
X661141Y396766D01*
X660016Y397891D01*
X658964Y398327D01*
Y399673D01*
X660016Y400109D01*
X661141Y401234D01*
X661750Y402705D01*
Y404296D01*
X661141Y405766D01*
X660016Y406891D01*
X658546Y407500D01*
D02*
G37*
G36*
X193296D02*
X191704D01*
X190234Y406891D01*
X189109Y405766D01*
X188500Y404296D01*
Y402705D01*
X189109Y401234D01*
X190234Y400109D01*
X191287Y399673D01*
Y398327D01*
X190234Y397891D01*
X189109Y396766D01*
X188500Y395296D01*
Y393704D01*
X189109Y392234D01*
X190234Y391109D01*
X191704Y390500D01*
X193296D01*
X194766Y391109D01*
X195891Y392234D01*
X196500Y393704D01*
Y395296D01*
X195891Y396766D01*
X194766Y397891D01*
X193714Y398327D01*
Y399673D01*
X194766Y400109D01*
X195891Y401234D01*
X196500Y402705D01*
Y404296D01*
X195891Y405766D01*
X194766Y406891D01*
X193296Y407500D01*
D02*
G37*
G36*
X503545Y407500D02*
X501954D01*
X500484Y406891D01*
X499359Y405766D01*
X498750Y404296D01*
Y402705D01*
X499359Y401234D01*
X500484Y400109D01*
X501536Y399673D01*
Y398327D01*
X500484Y397891D01*
X499359Y396766D01*
X498750Y395296D01*
Y393704D01*
X499359Y392234D01*
X500484Y391109D01*
X501954Y390500D01*
X503545D01*
X505016Y391109D01*
X506141Y392234D01*
X506750Y393704D01*
Y395296D01*
X506141Y396766D01*
X505016Y397891D01*
X503963Y398327D01*
Y399673D01*
X505016Y400109D01*
X506141Y401234D01*
X506750Y402705D01*
Y404296D01*
X506141Y405766D01*
X505016Y406891D01*
X503545Y407500D01*
D02*
G37*
G36*
X487546Y407500D02*
X485954D01*
X484484Y406891D01*
X483359Y405765D01*
X482750Y404295D01*
Y402704D01*
X483359Y401234D01*
X484484Y400109D01*
X485535Y399673D01*
X485535Y398326D01*
X484484Y397891D01*
X483359Y396766D01*
X482750Y395296D01*
Y393704D01*
X483359Y392234D01*
X484484Y391109D01*
X485954Y390500D01*
X487546D01*
X489016Y391109D01*
X490141Y392234D01*
X490750Y393704D01*
Y395296D01*
X490141Y396766D01*
X489016Y397891D01*
X487965Y398326D01*
X487965Y399673D01*
X489016Y400109D01*
X490141Y401234D01*
X490750Y402704D01*
Y404295D01*
X490141Y405765D01*
X489016Y406891D01*
X487546Y407500D01*
D02*
G37*
G36*
X38296Y407500D02*
X36704D01*
X35234Y406891D01*
X34109Y405766D01*
X33500Y404296D01*
Y402705D01*
X34109Y401234D01*
X35234Y400109D01*
X36286Y399673D01*
Y398327D01*
X35234Y397891D01*
X34109Y396766D01*
X33500Y395296D01*
Y393704D01*
X34109Y392234D01*
X35234Y391109D01*
X36704Y390500D01*
X38296D01*
X39766Y391109D01*
X40891Y392234D01*
X41500Y393704D01*
Y395296D01*
X40891Y396766D01*
X39766Y397891D01*
X38713Y398327D01*
Y399673D01*
X39766Y400109D01*
X40891Y401234D01*
X41500Y402705D01*
Y404296D01*
X40891Y405766D01*
X39766Y406891D01*
X38296Y407500D01*
D02*
G37*
G36*
X22295D02*
X20704D01*
X19234Y406891D01*
X18109Y405766D01*
X17500Y404296D01*
Y402705D01*
X18109Y401234D01*
X19234Y400109D01*
X20286Y399673D01*
Y398327D01*
X19234Y397891D01*
X18109Y396766D01*
X17500Y395296D01*
Y393704D01*
X18109Y392234D01*
X19234Y391109D01*
X20704Y390500D01*
X22295D01*
X23766Y391109D01*
X24891Y392234D01*
X25500Y393704D01*
Y395296D01*
X24891Y396766D01*
X23766Y397891D01*
X22713Y398327D01*
Y399673D01*
X23766Y400109D01*
X24891Y401234D01*
X25500Y402705D01*
Y404296D01*
X24891Y405766D01*
X23766Y406891D01*
X22295Y407500D01*
D02*
G37*
G36*
X426546Y407500D02*
X424955D01*
X423484Y406891D01*
X422359Y405766D01*
X421750Y404296D01*
Y402704D01*
X422359Y401234D01*
X423484Y400109D01*
X424537Y399673D01*
Y398327D01*
X423484Y397891D01*
X422359Y396766D01*
X421750Y395295D01*
Y393704D01*
X422359Y392234D01*
X423484Y391109D01*
X424955Y390500D01*
X426546D01*
X428016Y391109D01*
X429141Y392234D01*
X429750Y393704D01*
Y395295D01*
X429141Y396766D01*
X428016Y397891D01*
X426964Y398327D01*
Y399673D01*
X428016Y400109D01*
X429141Y401234D01*
X429750Y402704D01*
Y404296D01*
X429141Y405766D01*
X428016Y406891D01*
X426546Y407500D01*
D02*
G37*
G36*
X271546Y407500D02*
X269954D01*
X268484Y406891D01*
X267359Y405766D01*
X266750Y404296D01*
Y402704D01*
X267359Y401234D01*
X268484Y400109D01*
X269536Y399673D01*
Y398327D01*
X268484Y397891D01*
X267359Y396766D01*
X266750Y395295D01*
Y393704D01*
X267359Y392234D01*
X268484Y391109D01*
X269954Y390500D01*
X271546D01*
X273016Y391109D01*
X274141Y392234D01*
X274750Y393704D01*
Y395295D01*
X274141Y396766D01*
X273016Y397891D01*
X271964Y398327D01*
Y399673D01*
X273016Y400109D01*
X274141Y401234D01*
X274750Y402704D01*
Y404296D01*
X274141Y405766D01*
X273016Y406891D01*
X271546Y407500D01*
D02*
G37*
G36*
X255546D02*
X253955D01*
X252484Y406891D01*
X251359Y405766D01*
X250750Y404296D01*
Y402704D01*
X251359Y401234D01*
X252484Y400109D01*
X253537Y399673D01*
X253536Y398327D01*
X252484Y397891D01*
X251359Y396766D01*
X250750Y395295D01*
Y393704D01*
X251359Y392234D01*
X252484Y391109D01*
X253954Y390500D01*
X255546D01*
X257016Y391109D01*
X258141Y392234D01*
X258750Y393704D01*
Y395295D01*
X258141Y396766D01*
X257016Y397891D01*
X255963Y398327D01*
X255964Y399673D01*
X257016Y400109D01*
X258141Y401234D01*
X258750Y402704D01*
Y404296D01*
X258141Y405766D01*
X257016Y406891D01*
X255546Y407500D01*
D02*
G37*
G36*
X442546Y407500D02*
X440955D01*
X439484Y406891D01*
X438359Y405766D01*
X437750Y404296D01*
Y402704D01*
X438359Y401234D01*
X439484Y400109D01*
X440538Y399673D01*
Y398327D01*
X439484Y397890D01*
X438359Y396765D01*
X437750Y395295D01*
Y393704D01*
X438359Y392234D01*
X439484Y391108D01*
X440955Y390499D01*
X442546D01*
X444016Y391108D01*
X445141Y392234D01*
X445750Y393704D01*
Y395295D01*
X445141Y396765D01*
X444016Y397890D01*
X442962Y398327D01*
Y399673D01*
X444016Y400109D01*
X445141Y401234D01*
X445750Y402704D01*
Y404296D01*
X445141Y405766D01*
X444016Y406891D01*
X442546Y407500D01*
D02*
G37*
G36*
X705546Y469000D02*
X703954D01*
X702484Y468391D01*
X701359Y467266D01*
X700750Y465796D01*
Y464628D01*
X622686Y386564D01*
X622130Y385731D01*
X621935Y384750D01*
Y382794D01*
X620761Y382308D01*
X605035Y398035D01*
X603872Y398812D01*
X602500Y399085D01*
X598335D01*
Y411215D01*
X600814Y413694D01*
X601816Y414109D01*
X602941Y415234D01*
X603550Y416704D01*
Y418296D01*
X602941Y419766D01*
X601816Y420891D01*
X600346Y421500D01*
X598754D01*
X597284Y420891D01*
X596159Y419766D01*
X595744Y418764D01*
X592215Y415235D01*
X591438Y414072D01*
X591165Y412700D01*
Y397298D01*
X591077Y397085D01*
X552335D01*
Y415702D01*
X552750Y416704D01*
Y418296D01*
X552141Y419766D01*
X551016Y420891D01*
X549546Y421500D01*
X547954D01*
X546484Y420891D01*
X545359Y419766D01*
X544750Y418296D01*
Y416704D01*
X545165Y415702D01*
Y394735D01*
X527515Y377085D01*
X394298D01*
X393764Y377306D01*
X373035Y398035D01*
X371872Y398812D01*
X370500Y399085D01*
X366335D01*
Y411215D01*
X368814Y413694D01*
X369816Y414109D01*
X370941Y415234D01*
X371550Y416704D01*
Y418296D01*
X370941Y419766D01*
X369816Y420891D01*
X368346Y421500D01*
X366754D01*
X365284Y420891D01*
X364159Y419766D01*
X363744Y418764D01*
X360215Y415235D01*
X359438Y414072D01*
X359165Y412700D01*
Y397298D01*
X359077Y397085D01*
X320335D01*
Y415702D01*
X320750Y416704D01*
Y418296D01*
X320141Y419766D01*
X319016Y420891D01*
X317546Y421500D01*
X315954D01*
X314484Y420891D01*
X313359Y419766D01*
X312750Y418296D01*
Y416704D01*
X313165Y415702D01*
Y394694D01*
X313000Y394296D01*
Y392704D01*
X313609Y391234D01*
X314734Y390109D01*
X316204Y389500D01*
X317796D01*
X318798Y389915D01*
X360750D01*
X362122Y390188D01*
X363285Y390965D01*
X364014Y391694D01*
X364548Y391915D01*
X369015D01*
X388694Y372236D01*
X389109Y371234D01*
X390234Y370109D01*
X391704Y369500D01*
X393296D01*
X394298Y369915D01*
X422462D01*
X422988Y368645D01*
X422359Y368016D01*
X421750Y366546D01*
Y364954D01*
X422359Y363484D01*
X423484Y362359D01*
X424535Y361924D01*
Y360577D01*
X423484Y360141D01*
X422359Y359016D01*
X421750Y357546D01*
Y355955D01*
X422359Y354485D01*
X423484Y353359D01*
X424954Y352750D01*
X426546D01*
X428016Y353359D01*
X429141Y354485D01*
X429750Y355955D01*
Y357546D01*
X429141Y359016D01*
X428016Y360141D01*
X426965Y360577D01*
Y361924D01*
X428016Y362359D01*
X429141Y363484D01*
X429750Y364954D01*
Y366546D01*
X429141Y368016D01*
X428512Y368645D01*
X429038Y369915D01*
X438462D01*
X438988Y368645D01*
X438359Y368016D01*
X437750Y366546D01*
Y364954D01*
X438359Y363484D01*
X439484Y362359D01*
X440537Y361923D01*
Y360577D01*
X439484Y360141D01*
X438359Y359016D01*
X437750Y357546D01*
Y355954D01*
X438359Y354484D01*
X439484Y353359D01*
X440955Y352750D01*
X442546D01*
X444016Y353359D01*
X445141Y354484D01*
X445750Y355954D01*
Y357546D01*
X445141Y359016D01*
X444016Y360141D01*
X442964Y360577D01*
Y361923D01*
X444016Y362359D01*
X445141Y363484D01*
X445750Y364954D01*
Y366546D01*
X445141Y368016D01*
X444512Y368645D01*
X445038Y369915D01*
X483462D01*
X483988Y368645D01*
X483359Y368016D01*
X482750Y366546D01*
Y364954D01*
X483359Y363484D01*
X484484Y362359D01*
X485537Y361923D01*
X485536Y360577D01*
X484484Y360141D01*
X483359Y359016D01*
X482750Y357546D01*
Y355954D01*
X483359Y354484D01*
X484484Y353359D01*
X485954Y352750D01*
X487546D01*
X489016Y353359D01*
X490141Y354484D01*
X490750Y355954D01*
Y357546D01*
X490141Y359016D01*
X489016Y360141D01*
X487963Y360577D01*
X487964Y361923D01*
X489016Y362359D01*
X490141Y363484D01*
X490750Y364954D01*
Y366546D01*
X490141Y368016D01*
X489512Y368645D01*
X490038Y369915D01*
X499462D01*
X499988Y368645D01*
X499359Y368016D01*
X498750Y366546D01*
Y364954D01*
X499359Y363484D01*
X500485Y362359D01*
X501537Y361923D01*
Y360577D01*
X500485Y360141D01*
X499359Y359016D01*
X498750Y357546D01*
Y355954D01*
X499359Y354484D01*
X500485Y353359D01*
X501955Y352750D01*
X503546D01*
X505016Y353359D01*
X506141Y354484D01*
X506750Y355954D01*
Y357546D01*
X506141Y359016D01*
X505016Y360141D01*
X503964Y360577D01*
Y361923D01*
X505016Y362359D01*
X506141Y363484D01*
X506750Y364954D01*
Y366546D01*
X506141Y368016D01*
X505512Y368645D01*
X506039Y369915D01*
X529000D01*
X530372Y370188D01*
X531535Y370965D01*
X550264Y389694D01*
X550798Y389915D01*
X592750D01*
X594122Y390188D01*
X595285Y390965D01*
X596014Y391694D01*
X596548Y391915D01*
X601015D01*
X620694Y372236D01*
X621109Y371234D01*
X622234Y370109D01*
X623704Y369500D01*
X625296D01*
X626766Y370109D01*
X627891Y371234D01*
X628500Y372704D01*
Y374296D01*
X627891Y375766D01*
X627065Y376592D01*
Y383687D01*
X704378Y461000D01*
X705546D01*
X707016Y461609D01*
X708141Y462734D01*
X708750Y464204D01*
Y465796D01*
X708141Y467266D01*
X707016Y468391D01*
X705546Y469000D01*
D02*
G37*
G36*
X674546Y369750D02*
X672954D01*
X671484Y369141D01*
X670359Y368016D01*
X669750Y366546D01*
Y364955D01*
X670359Y363484D01*
X671484Y362359D01*
X672535Y361924D01*
Y360577D01*
X671484Y360141D01*
X670359Y359016D01*
X669750Y357546D01*
Y355955D01*
X670359Y354485D01*
X671484Y353359D01*
X672954Y352751D01*
X674546D01*
X676016Y353359D01*
X677141Y354485D01*
X677750Y355955D01*
Y357546D01*
X677141Y359016D01*
X676016Y360141D01*
X674965Y360577D01*
Y361924D01*
X676016Y362359D01*
X677141Y363484D01*
X677750Y364955D01*
Y366546D01*
X677141Y368016D01*
X676016Y369141D01*
X674546Y369750D01*
D02*
G37*
G36*
X658546D02*
X656954D01*
X655484Y369141D01*
X654359Y368016D01*
X653750Y366546D01*
Y364955D01*
X654359Y363484D01*
X655484Y362359D01*
X656535Y361924D01*
Y360577D01*
X655484Y360141D01*
X654359Y359016D01*
X653750Y357546D01*
Y355955D01*
X654359Y354485D01*
X655484Y353359D01*
X656954Y352751D01*
X658546D01*
X660016Y353359D01*
X661141Y354485D01*
X661750Y355955D01*
Y357546D01*
X661141Y359016D01*
X660016Y360141D01*
X658965Y360577D01*
Y361924D01*
X660016Y362359D01*
X661141Y363484D01*
X661750Y364955D01*
Y366546D01*
X661141Y368016D01*
X660016Y369141D01*
X658546Y369750D01*
D02*
G37*
G36*
X209296D02*
X207704D01*
X206234Y369141D01*
X205109Y368016D01*
X204500Y366546D01*
Y364955D01*
X205109Y363484D01*
X206234Y362359D01*
X207285Y361924D01*
Y360577D01*
X206234Y360141D01*
X205109Y359016D01*
X204500Y357546D01*
Y355955D01*
X205109Y354485D01*
X206234Y353359D01*
X207704Y352751D01*
X209296D01*
X210766Y353359D01*
X211891Y354485D01*
X212500Y355955D01*
Y357546D01*
X211891Y359016D01*
X210766Y360141D01*
X209715Y360577D01*
Y361924D01*
X210766Y362359D01*
X211891Y363484D01*
X212500Y364955D01*
Y366546D01*
X211891Y368016D01*
X210766Y369141D01*
X209296Y369750D01*
D02*
G37*
G36*
X193296D02*
X191704D01*
X190234Y369141D01*
X189109Y368016D01*
X188500Y366546D01*
Y364955D01*
X189109Y363484D01*
X190234Y362359D01*
X191285Y361924D01*
Y360577D01*
X190234Y360141D01*
X189109Y359016D01*
X188500Y357546D01*
Y355955D01*
X189109Y354485D01*
X190234Y353359D01*
X191704Y352751D01*
X193296D01*
X194766Y353359D01*
X195891Y354485D01*
X196500Y355955D01*
Y357546D01*
X195891Y359016D01*
X194766Y360141D01*
X193715Y360577D01*
Y361924D01*
X194766Y362359D01*
X195891Y363484D01*
X196500Y364955D01*
Y366546D01*
X195891Y368016D01*
X194766Y369141D01*
X193296Y369750D01*
D02*
G37*
G36*
X38296Y369750D02*
X36705D01*
X35234Y369141D01*
X34109Y368016D01*
X33500Y366546D01*
Y364954D01*
X34109Y363484D01*
X35234Y362359D01*
X36287Y361923D01*
Y360577D01*
X35234Y360141D01*
X34109Y359016D01*
X33500Y357546D01*
Y355954D01*
X34109Y354484D01*
X35234Y353359D01*
X36705Y352750D01*
X38296D01*
X39766Y353359D01*
X40891Y354484D01*
X41500Y355954D01*
Y357546D01*
X40891Y359016D01*
X39766Y360141D01*
X38714Y360577D01*
Y361923D01*
X39766Y362359D01*
X40891Y363484D01*
X41500Y364954D01*
Y366546D01*
X40891Y368016D01*
X39766Y369141D01*
X38296Y369750D01*
D02*
G37*
G36*
X22295D02*
X20704D01*
X19234Y369141D01*
X18109Y368016D01*
X17500Y366546D01*
Y364954D01*
X18109Y363484D01*
X19234Y362359D01*
X20286Y361923D01*
Y360577D01*
X19234Y360141D01*
X18109Y359016D01*
X17500Y357546D01*
Y355954D01*
X18109Y354484D01*
X19234Y353359D01*
X20704Y352750D01*
X22295D01*
X23766Y353359D01*
X24891Y354484D01*
X25500Y355954D01*
Y357546D01*
X24891Y359016D01*
X23766Y360141D01*
X22713Y360577D01*
Y361923D01*
X23766Y362359D01*
X24891Y363484D01*
X25500Y364954D01*
Y366546D01*
X24891Y368016D01*
X23766Y369141D01*
X22295Y369750D01*
D02*
G37*
G36*
X271546Y369750D02*
X269955D01*
X268485Y369141D01*
X267360Y368016D01*
X266751Y366546D01*
Y364954D01*
X267360Y363484D01*
X268485Y362359D01*
X269537Y361923D01*
Y360577D01*
X268485Y360141D01*
X267360Y359016D01*
X266751Y357546D01*
Y355954D01*
X267360Y354484D01*
X268485Y353359D01*
X269955Y352750D01*
X271546D01*
X273016Y353359D01*
X274142Y354484D01*
X274750Y355954D01*
Y357546D01*
X274142Y359016D01*
X273016Y360141D01*
X271964Y360577D01*
Y361923D01*
X273016Y362359D01*
X274142Y363484D01*
X274750Y364954D01*
Y366546D01*
X274142Y368016D01*
X273016Y369141D01*
X271546Y369750D01*
D02*
G37*
G36*
X255546Y369751D02*
X253955D01*
X252484Y369142D01*
X251359Y368016D01*
X250750Y366546D01*
Y364955D01*
X251359Y363485D01*
X252484Y362360D01*
X253538Y361923D01*
X253538Y360577D01*
X252484Y360141D01*
X251359Y359016D01*
X250750Y357546D01*
Y355954D01*
X251359Y354484D01*
X252484Y353359D01*
X253954Y352750D01*
X255546D01*
X257016Y353359D01*
X258141Y354484D01*
X258750Y355954D01*
Y357546D01*
X258141Y359016D01*
X257016Y360141D01*
X255962Y360577D01*
X255962Y361923D01*
X257016Y362360D01*
X258141Y363485D01*
X258750Y364955D01*
Y366546D01*
X258141Y368016D01*
X257016Y369142D01*
X255546Y369751D01*
D02*
G37*
G36*
X656133Y350870D02*
X654127D01*
X652189Y350351D01*
X650451Y349348D01*
X649033Y347929D01*
X648029Y346191D01*
X647510Y344253D01*
Y342247D01*
X648029Y340309D01*
X649033Y338571D01*
X650451Y337153D01*
X652189Y336149D01*
X654127Y335630D01*
X656133D01*
X658071Y336149D01*
X659809Y337153D01*
X661227Y338571D01*
X662231Y340309D01*
X662750Y342247D01*
Y344253D01*
X662231Y346191D01*
X661227Y347929D01*
X659809Y349348D01*
X658071Y350351D01*
X656133Y350870D01*
D02*
G37*
G36*
X503754D02*
X501747D01*
X499809Y350351D01*
X498072Y349348D01*
X496653Y347929D01*
X495650Y346191D01*
X495130Y344253D01*
Y342247D01*
X495650Y340309D01*
X496653Y338571D01*
X498072Y337153D01*
X499809Y336149D01*
X501747Y335630D01*
X503754D01*
X505692Y336149D01*
X507429Y337153D01*
X508848Y338571D01*
X509851Y340309D01*
X510370Y342247D01*
Y344253D01*
X509851Y346191D01*
X508848Y347929D01*
X507429Y349348D01*
X505692Y350351D01*
X503754Y350870D01*
D02*
G37*
G36*
X38504D02*
X36497D01*
X34559Y350351D01*
X32822Y349348D01*
X31403Y347929D01*
X30400Y346191D01*
X29880Y344253D01*
Y342247D01*
X30400Y340309D01*
X31403Y338571D01*
X32822Y337153D01*
X34559Y336149D01*
X36497Y335630D01*
X38504D01*
X40442Y336149D01*
X42179Y337153D01*
X43598Y338571D01*
X44601Y340309D01*
X45120Y342247D01*
Y344253D01*
X44601Y346191D01*
X43598Y347929D01*
X42179Y349348D01*
X40442Y350351D01*
X38504Y350870D01*
D02*
G37*
G36*
X425503Y350870D02*
X423497D01*
X421559Y350351D01*
X419821Y349347D01*
X418402Y347929D01*
X417399Y346191D01*
X416880Y344253D01*
Y342247D01*
X417399Y340309D01*
X418402Y338571D01*
X419821Y337152D01*
X421559Y336149D01*
X423497Y335630D01*
X425503D01*
X427441Y336149D01*
X429179Y337152D01*
X430597Y338571D01*
X431601Y340309D01*
X432120Y342247D01*
Y344253D01*
X431601Y346191D01*
X430597Y347929D01*
X429179Y349347D01*
X427441Y350351D01*
X425503Y350870D01*
D02*
G37*
G36*
X271754D02*
X269747D01*
X267809Y350351D01*
X266072Y349347D01*
X264653Y347929D01*
X263650Y346191D01*
X263130Y344253D01*
Y342247D01*
X263650Y340309D01*
X264653Y338571D01*
X266072Y337152D01*
X267809Y336149D01*
X269747Y335630D01*
X271754D01*
X273692Y336149D01*
X275429Y337152D01*
X276848Y338571D01*
X277851Y340309D01*
X278370Y342247D01*
Y344253D01*
X277851Y346191D01*
X276848Y347929D01*
X275429Y349347D01*
X273692Y350351D01*
X271754Y350870D01*
D02*
G37*
G36*
X192503D02*
X190497D01*
X188559Y350351D01*
X186821Y349347D01*
X185403Y347929D01*
X184399Y346191D01*
X183880Y344253D01*
Y342247D01*
X184399Y340309D01*
X185403Y338571D01*
X186821Y337152D01*
X188559Y336149D01*
X190497Y335630D01*
X192503D01*
X194441Y336149D01*
X196179Y337152D01*
X197598Y338571D01*
X198601Y340309D01*
X199120Y342247D01*
Y344253D01*
X198601Y346191D01*
X197598Y347929D01*
X196179Y349347D01*
X194441Y350351D01*
X192503Y350870D01*
D02*
G37*
G36*
X581753Y350620D02*
X579747D01*
X577809Y350101D01*
X576071Y349098D01*
X574652Y347679D01*
X573649Y345941D01*
X573130Y344003D01*
Y341997D01*
X573649Y340059D01*
X574652Y338321D01*
X576071Y336903D01*
X577809Y335899D01*
X579747Y335380D01*
X581753D01*
X583691Y335899D01*
X585429Y336903D01*
X586847Y338321D01*
X587851Y340059D01*
X588370Y341997D01*
Y344003D01*
X587851Y345941D01*
X586847Y347679D01*
X585429Y349098D01*
X583691Y350101D01*
X581753Y350620D01*
D02*
G37*
G36*
X116503D02*
X114497D01*
X112559Y350101D01*
X110821Y349098D01*
X109403Y347679D01*
X108399Y345941D01*
X107880Y344003D01*
Y341997D01*
X108399Y340059D01*
X109403Y338321D01*
X110821Y336903D01*
X112559Y335899D01*
X114497Y335380D01*
X116503D01*
X118441Y335899D01*
X120179Y336903D01*
X121597Y338321D01*
X122601Y340059D01*
X123120Y341997D01*
Y344003D01*
X122601Y345941D01*
X121597Y347679D01*
X120179Y349098D01*
X118441Y350101D01*
X116503Y350620D01*
D02*
G37*
G36*
X349753Y350620D02*
X347747D01*
X345809Y350101D01*
X344071Y349097D01*
X342653Y347679D01*
X341650Y345941D01*
X341130Y344003D01*
Y341997D01*
X341650Y340059D01*
X342653Y338321D01*
X344071Y336902D01*
X345809Y335899D01*
X347747Y335380D01*
X349753D01*
X351691Y335899D01*
X353429Y336902D01*
X354848Y338321D01*
X355851Y340059D01*
X356370Y341997D01*
Y344003D01*
X355851Y345941D01*
X354848Y347679D01*
X353429Y349097D01*
X351691Y350101D01*
X349753Y350620D01*
D02*
G37*
G36*
X916126Y288556D02*
X913873D01*
X911697Y287973D01*
X909746Y286846D01*
X908153Y285253D01*
X907027Y283302D01*
X906444Y281126D01*
Y278873D01*
X907027Y276697D01*
X908153Y274746D01*
X909746Y273153D01*
X911697Y272027D01*
X913873Y271444D01*
X916126D01*
X918302Y272027D01*
X920253Y273153D01*
X921846Y274746D01*
X922973Y276697D01*
X923556Y278873D01*
Y281126D01*
X922973Y283302D01*
X921846Y285253D01*
X920253Y286846D01*
X918302Y287973D01*
X916126Y288556D01*
D02*
G37*
G36*
X766126D02*
X763874D01*
X761698Y287973D01*
X759747Y286846D01*
X758154Y285253D01*
X757027Y283302D01*
X756444Y281126D01*
Y278873D01*
X757027Y276697D01*
X758154Y274746D01*
X759747Y273153D01*
X761698Y272027D01*
X763874Y271444D01*
X766126D01*
X768303Y272027D01*
X770254Y273153D01*
X771847Y274746D01*
X772973Y276697D01*
X773556Y278873D01*
Y281126D01*
X772973Y283302D01*
X771847Y285253D01*
X770254Y286846D01*
X768303Y287973D01*
X766126Y288556D01*
D02*
G37*
G36*
X490796Y276100D02*
X489204D01*
X487734Y275491D01*
X486609Y274366D01*
X486000Y272896D01*
Y271305D01*
X486609Y269834D01*
X487734Y268709D01*
X489204Y268100D01*
X490796D01*
X492266Y268709D01*
X493391Y269834D01*
X494000Y271305D01*
Y272896D01*
X493391Y274366D01*
X492266Y275491D01*
X490796Y276100D01*
D02*
G37*
G36*
X25545D02*
X23954D01*
X22484Y275491D01*
X21359Y274366D01*
X20750Y272896D01*
Y271305D01*
X21359Y269834D01*
X22484Y268709D01*
X23954Y268100D01*
X25545D01*
X27016Y268709D01*
X28141Y269834D01*
X28750Y271305D01*
Y272896D01*
X28141Y274366D01*
X27016Y275491D01*
X25545Y276100D01*
D02*
G37*
G36*
X258796Y276100D02*
X257204D01*
X255734Y275491D01*
X254609Y274366D01*
X254000Y272896D01*
Y271304D01*
X254609Y269834D01*
X255734Y268709D01*
X257204Y268100D01*
X258796D01*
X260266Y268709D01*
X261391Y269834D01*
X262000Y271304D01*
Y272896D01*
X261391Y274366D01*
X260266Y275491D01*
X258796Y276100D01*
D02*
G37*
G36*
X672296Y275100D02*
X670704D01*
X669234Y274491D01*
X668109Y273366D01*
X667500Y271896D01*
Y270304D01*
X668109Y268834D01*
X669234Y267709D01*
X670704Y267100D01*
X672296D01*
X673766Y267709D01*
X674891Y268834D01*
X675500Y270304D01*
Y271896D01*
X674891Y273366D01*
X673766Y274491D01*
X672296Y275100D01*
D02*
G37*
G36*
X207046D02*
X205454D01*
X203984Y274491D01*
X202859Y273366D01*
X202250Y271896D01*
Y270304D01*
X202859Y268834D01*
X203984Y267709D01*
X205454Y267100D01*
X207046D01*
X208516Y267709D01*
X209641Y268834D01*
X210250Y270304D01*
Y271896D01*
X209641Y273366D01*
X208516Y274491D01*
X207046Y275100D01*
D02*
G37*
G36*
X440296Y275100D02*
X438705D01*
X437234Y274491D01*
X436109Y273366D01*
X435500Y271896D01*
Y270304D01*
X436109Y268834D01*
X437234Y267709D01*
X438705Y267100D01*
X440296D01*
X441766Y267709D01*
X442891Y268834D01*
X443500Y270304D01*
Y271896D01*
X442891Y273366D01*
X441766Y274491D01*
X440296Y275100D01*
D02*
G37*
G36*
X536796Y259350D02*
X535205D01*
X533734Y258741D01*
X532609Y257616D01*
X532000Y256145D01*
Y254554D01*
X532609Y253084D01*
X533734Y251959D01*
X535205Y251350D01*
X536796D01*
X538266Y251959D01*
X539391Y253084D01*
X540000Y254554D01*
Y256145D01*
X539391Y257616D01*
X538266Y258741D01*
X536796Y259350D01*
D02*
G37*
G36*
X71546D02*
X69955D01*
X68484Y258741D01*
X67359Y257616D01*
X66750Y256145D01*
Y254554D01*
X67359Y253084D01*
X68484Y251959D01*
X69955Y251350D01*
X71546D01*
X73016Y251959D01*
X74141Y253084D01*
X74750Y254554D01*
Y256145D01*
X74141Y257616D01*
X73016Y258741D01*
X71546Y259350D01*
D02*
G37*
G36*
X304796Y259350D02*
X303205D01*
X301735Y258741D01*
X300609Y257616D01*
X300000Y256145D01*
Y254554D01*
X300609Y253084D01*
X301735Y251959D01*
X303205Y251350D01*
X304796D01*
X306266Y251959D01*
X307391Y253084D01*
X308000Y254554D01*
Y256145D01*
X307391Y257616D01*
X306266Y258741D01*
X304796Y259350D01*
D02*
G37*
G36*
X625796Y259250D02*
X624204D01*
X622734Y258641D01*
X621609Y257516D01*
X621000Y256045D01*
Y254454D01*
X621609Y252984D01*
X622734Y251859D01*
X624204Y251250D01*
X625796D01*
X627266Y251859D01*
X628391Y252984D01*
X629000Y254454D01*
Y256045D01*
X628391Y257516D01*
X627266Y258641D01*
X625796Y259250D01*
D02*
G37*
G36*
X607546D02*
X605954D01*
X604484Y258641D01*
X603359Y257516D01*
X602750Y256045D01*
Y254454D01*
X603359Y252984D01*
X604484Y251859D01*
X605954Y251250D01*
X607546D01*
X609016Y251859D01*
X610141Y252984D01*
X610750Y254454D01*
Y256045D01*
X610141Y257516D01*
X609016Y258641D01*
X607546Y259250D01*
D02*
G37*
G36*
X160545D02*
X158954D01*
X157484Y258641D01*
X156359Y257516D01*
X155750Y256045D01*
Y254454D01*
X156359Y252984D01*
X157484Y251859D01*
X158954Y251250D01*
X160545D01*
X162016Y251859D01*
X163141Y252984D01*
X163750Y254454D01*
Y256045D01*
X163141Y257516D01*
X162016Y258641D01*
X160545Y259250D01*
D02*
G37*
G36*
X142296D02*
X140704D01*
X139234Y258641D01*
X138109Y257516D01*
X137500Y256045D01*
Y254454D01*
X138109Y252984D01*
X139234Y251859D01*
X140704Y251250D01*
X142296D01*
X143766Y251859D01*
X144891Y252984D01*
X145500Y254454D01*
Y256045D01*
X144891Y257516D01*
X143766Y258641D01*
X142296Y259250D01*
D02*
G37*
G36*
X393796Y259250D02*
X392204D01*
X390734Y258641D01*
X389609Y257516D01*
X389000Y256045D01*
Y254454D01*
X389609Y252984D01*
X390734Y251859D01*
X392204Y251250D01*
X393796D01*
X395266Y251859D01*
X396391Y252984D01*
X397000Y254454D01*
Y256045D01*
X396391Y257516D01*
X395266Y258641D01*
X393796Y259250D01*
D02*
G37*
G36*
X375546D02*
X373954D01*
X372484Y258641D01*
X371359Y257516D01*
X370750Y256045D01*
Y254454D01*
X371359Y252984D01*
X372484Y251859D01*
X373954Y251250D01*
X375546D01*
X377016Y251859D01*
X378141Y252984D01*
X378750Y254454D01*
Y256045D01*
X378141Y257516D01*
X377016Y258641D01*
X375546Y259250D01*
D02*
G37*
G36*
X660296Y228250D02*
X658705D01*
X657234Y227641D01*
X656109Y226516D01*
X655500Y225046D01*
Y223454D01*
X656109Y221984D01*
X657234Y220859D01*
X658705Y220250D01*
X660296D01*
X661766Y220859D01*
X662891Y221984D01*
X663500Y223454D01*
Y225046D01*
X662891Y226516D01*
X661766Y227641D01*
X660296Y228250D01*
D02*
G37*
G36*
X195046D02*
X193454D01*
X191984Y227641D01*
X190859Y226516D01*
X190250Y225046D01*
Y223454D01*
X190859Y221984D01*
X191984Y220859D01*
X193454Y220250D01*
X195046D01*
X196516Y220859D01*
X197641Y221984D01*
X198250Y223454D01*
Y225046D01*
X197641Y226516D01*
X196516Y227641D01*
X195046Y228250D01*
D02*
G37*
G36*
X428296Y228250D02*
X426705D01*
X425234Y227641D01*
X424109Y226516D01*
X423500Y225046D01*
Y223454D01*
X424109Y221984D01*
X425234Y220859D01*
X426705Y220250D01*
X428296D01*
X429766Y220859D01*
X430891Y221984D01*
X431500Y223454D01*
Y225046D01*
X430891Y226516D01*
X429766Y227641D01*
X428296Y228250D01*
D02*
G37*
G36*
X644954Y201266D02*
X642045D01*
X639193Y200699D01*
X636505Y199586D01*
X634087Y197970D01*
X632030Y195913D01*
X630414Y193494D01*
X629301Y190807D01*
X628734Y187955D01*
Y185046D01*
X629301Y182193D01*
X630414Y179506D01*
X632030Y177087D01*
X634087Y175031D01*
X636505Y173415D01*
X639193Y172302D01*
X642045Y171734D01*
X644954D01*
X647807Y172302D01*
X650494Y173415D01*
X652912Y175031D01*
X654969Y177087D01*
X656585Y179506D01*
X657698Y182193D01*
X658266Y185046D01*
Y187955D01*
X657698Y190807D01*
X656585Y193494D01*
X654969Y195913D01*
X652912Y197970D01*
X650494Y199586D01*
X647807Y200699D01*
X644954Y201266D01*
D02*
G37*
G36*
X602954D02*
X600045D01*
X597193Y200699D01*
X594505Y199586D01*
X592087Y197970D01*
X590030Y195913D01*
X588414Y193494D01*
X587301Y190807D01*
X586734Y187955D01*
Y185046D01*
X587301Y182193D01*
X588414Y179506D01*
X590030Y177087D01*
X592087Y175031D01*
X594505Y173415D01*
X597193Y172302D01*
X600045Y171734D01*
X602954D01*
X605807Y172302D01*
X608494Y173415D01*
X610913Y175031D01*
X612969Y177087D01*
X614585Y179506D01*
X615698Y182193D01*
X616266Y185046D01*
Y187955D01*
X615698Y190807D01*
X614585Y193494D01*
X612969Y195913D01*
X610913Y197970D01*
X608494Y199586D01*
X605807Y200699D01*
X602954Y201266D01*
D02*
G37*
G36*
X560954D02*
X558046D01*
X555193Y200699D01*
X552505Y199586D01*
X550087Y197970D01*
X548030Y195913D01*
X546414Y193494D01*
X545301Y190807D01*
X544734Y187955D01*
Y185046D01*
X545301Y182193D01*
X546414Y179506D01*
X548030Y177087D01*
X550087Y175031D01*
X552505Y173415D01*
X555193Y172302D01*
X558046Y171734D01*
X560954D01*
X563807Y172302D01*
X566494Y173415D01*
X568913Y175031D01*
X570969Y177087D01*
X572585Y179506D01*
X573698Y182193D01*
X574266Y185046D01*
Y187955D01*
X573698Y190807D01*
X572585Y193494D01*
X570969Y195913D01*
X568913Y197970D01*
X566494Y199586D01*
X563807Y200699D01*
X560954Y201266D01*
D02*
G37*
G36*
X518954D02*
X516046D01*
X513193Y200699D01*
X510506Y199586D01*
X508087Y197970D01*
X506030Y195913D01*
X504414Y193494D01*
X503301Y190807D01*
X502734Y187955D01*
Y185046D01*
X503301Y182193D01*
X504414Y179506D01*
X506030Y177087D01*
X508087Y175031D01*
X510506Y173415D01*
X513193Y172302D01*
X516046Y171734D01*
X518954D01*
X521807Y172302D01*
X524494Y173415D01*
X526913Y175031D01*
X528969Y177087D01*
X530585Y179506D01*
X531698Y182193D01*
X532266Y185046D01*
Y187955D01*
X531698Y190807D01*
X530585Y193494D01*
X528969Y195913D01*
X526913Y197970D01*
X524494Y199586D01*
X521807Y200699D01*
X518954Y201266D01*
D02*
G37*
G36*
X179704D02*
X176796D01*
X173943Y200699D01*
X171256Y199586D01*
X168837Y197970D01*
X166781Y195913D01*
X165165Y193494D01*
X164052Y190807D01*
X163484Y187955D01*
Y185046D01*
X164052Y182193D01*
X165165Y179506D01*
X166781Y177087D01*
X168837Y175031D01*
X171256Y173415D01*
X173943Y172302D01*
X176796Y171734D01*
X179704D01*
X182557Y172302D01*
X185245Y173415D01*
X187663Y175031D01*
X189720Y177087D01*
X191336Y179506D01*
X192449Y182193D01*
X193016Y185046D01*
Y187955D01*
X192449Y190807D01*
X191336Y193494D01*
X189720Y195913D01*
X187663Y197970D01*
X185245Y199586D01*
X182557Y200699D01*
X179704Y201266D01*
D02*
G37*
G36*
X137705D02*
X134796D01*
X131943Y200699D01*
X129256Y199586D01*
X126838Y197970D01*
X124781Y195913D01*
X123165Y193494D01*
X122052Y190807D01*
X121484Y187955D01*
Y185046D01*
X122052Y182193D01*
X123165Y179506D01*
X124781Y177087D01*
X126838Y175031D01*
X129256Y173415D01*
X131943Y172302D01*
X134796Y171734D01*
X137705D01*
X140557Y172302D01*
X143244Y173415D01*
X145663Y175031D01*
X147720Y177087D01*
X149336Y179506D01*
X150449Y182193D01*
X151016Y185046D01*
Y187955D01*
X150449Y190807D01*
X149336Y193494D01*
X147720Y195913D01*
X145663Y197970D01*
X143244Y199586D01*
X140557Y200699D01*
X137705Y201266D01*
D02*
G37*
G36*
X95704D02*
X92795D01*
X89943Y200699D01*
X87255Y199586D01*
X84837Y197970D01*
X82780Y195913D01*
X81164Y193494D01*
X80051Y190807D01*
X79484Y187955D01*
Y185046D01*
X80051Y182193D01*
X81164Y179506D01*
X82780Y177087D01*
X84837Y175031D01*
X87255Y173415D01*
X89943Y172302D01*
X92795Y171734D01*
X95704D01*
X98557Y172302D01*
X101244Y173415D01*
X103663Y175031D01*
X105719Y177087D01*
X107335Y179506D01*
X108448Y182193D01*
X109016Y185046D01*
Y187955D01*
X108448Y190807D01*
X107335Y193494D01*
X105719Y195913D01*
X103663Y197970D01*
X101244Y199586D01*
X98557Y200699D01*
X95704Y201266D01*
D02*
G37*
G36*
X53704D02*
X50796D01*
X47943Y200699D01*
X45256Y199586D01*
X42837Y197970D01*
X40780Y195913D01*
X39164Y193494D01*
X38051Y190807D01*
X37484Y187955D01*
Y185046D01*
X38051Y182193D01*
X39164Y179506D01*
X40780Y177087D01*
X42837Y175031D01*
X45256Y173415D01*
X47943Y172302D01*
X50796Y171734D01*
X53704D01*
X56557Y172302D01*
X59244Y173415D01*
X61663Y175031D01*
X63719Y177087D01*
X65335Y179506D01*
X66448Y182193D01*
X67016Y185046D01*
Y187955D01*
X66448Y190807D01*
X65335Y193494D01*
X63719Y195913D01*
X61663Y197970D01*
X59244Y199586D01*
X56557Y200699D01*
X53704Y201266D01*
D02*
G37*
G36*
X412955Y201266D02*
X410046D01*
X407193Y200699D01*
X404506Y199585D01*
X402088Y197969D01*
X400031Y195913D01*
X398415Y193494D01*
X397302Y190807D01*
X396734Y187954D01*
Y185046D01*
X397302Y182193D01*
X398415Y179506D01*
X400031Y177087D01*
X402088Y175030D01*
X404506Y173415D01*
X407193Y172302D01*
X410046Y171734D01*
X412955D01*
X415807Y172302D01*
X418495Y173415D01*
X420913Y175030D01*
X422970Y177087D01*
X424586Y179506D01*
X425699Y182193D01*
X426266Y185046D01*
Y187954D01*
X425699Y190807D01*
X424586Y193494D01*
X422970Y195913D01*
X420913Y197969D01*
X418495Y199585D01*
X415807Y200699D01*
X412955Y201266D01*
D02*
G37*
G36*
X370954D02*
X368046D01*
X365193Y200699D01*
X362506Y199585D01*
X360087Y197969D01*
X358030Y195913D01*
X356414Y193494D01*
X355301Y190807D01*
X354734Y187954D01*
Y185046D01*
X355301Y182193D01*
X356414Y179506D01*
X358030Y177087D01*
X360087Y175030D01*
X362506Y173415D01*
X365193Y172302D01*
X368046Y171734D01*
X370954D01*
X373807Y172302D01*
X376494Y173415D01*
X378913Y175030D01*
X380969Y177087D01*
X382585Y179506D01*
X383698Y182193D01*
X384266Y185046D01*
Y187954D01*
X383698Y190807D01*
X382585Y193494D01*
X380969Y195913D01*
X378913Y197969D01*
X376494Y199585D01*
X373807Y200699D01*
X370954Y201266D01*
D02*
G37*
G36*
X328954D02*
X326046D01*
X323193Y200699D01*
X320506Y199585D01*
X318087Y197969D01*
X316031Y195913D01*
X314415Y193494D01*
X313301Y190807D01*
X312734Y187954D01*
Y185046D01*
X313301Y182193D01*
X314415Y179506D01*
X316031Y177087D01*
X318087Y175030D01*
X320506Y173415D01*
X323193Y172302D01*
X326046Y171734D01*
X328954D01*
X331807Y172302D01*
X334494Y173415D01*
X336913Y175030D01*
X338969Y177087D01*
X340585Y179506D01*
X341698Y182193D01*
X342266Y185046D01*
Y187954D01*
X341698Y190807D01*
X340585Y193494D01*
X338969Y195913D01*
X336913Y197969D01*
X334494Y199585D01*
X331807Y200699D01*
X328954Y201266D01*
D02*
G37*
G36*
X286954D02*
X284046D01*
X281193Y200699D01*
X278506Y199585D01*
X276087Y197969D01*
X274031Y195913D01*
X272415Y193494D01*
X271301Y190807D01*
X270734Y187954D01*
Y185046D01*
X271301Y182193D01*
X272415Y179506D01*
X274031Y177087D01*
X276087Y175030D01*
X278506Y173415D01*
X281193Y172302D01*
X284046Y171734D01*
X286954D01*
X289807Y172302D01*
X292494Y173415D01*
X294913Y175030D01*
X296970Y177087D01*
X298585Y179506D01*
X299699Y182193D01*
X300266Y185046D01*
Y187954D01*
X299699Y190807D01*
X298585Y193494D01*
X296970Y195913D01*
X294913Y197969D01*
X292494Y199585D01*
X289807Y200699D01*
X286954Y201266D01*
D02*
G37*
G36*
X645223Y89000D02*
X641776D01*
X638395Y88328D01*
X635210Y87008D01*
X632344Y85093D01*
X629907Y82656D01*
X627991Y79790D01*
X626672Y76605D01*
X626000Y73224D01*
Y69777D01*
X626672Y66396D01*
X627991Y63211D01*
X629907Y60345D01*
X632344Y57907D01*
X635210Y55992D01*
X638395Y54673D01*
X641776Y54000D01*
X645223D01*
X648604Y54673D01*
X651789Y55992D01*
X654655Y57907D01*
X657093Y60345D01*
X659008Y63211D01*
X660327Y66396D01*
X661000Y69777D01*
Y73224D01*
X660327Y76605D01*
X659008Y79790D01*
X657093Y82656D01*
X654655Y85093D01*
X651789Y87008D01*
X648604Y88328D01*
X645223Y89000D01*
D02*
G37*
G36*
X519224D02*
X515776D01*
X512395Y88328D01*
X509211Y87008D01*
X506344Y85093D01*
X503907Y82656D01*
X501992Y79790D01*
X500672Y76605D01*
X500000Y73224D01*
Y69777D01*
X500672Y66396D01*
X501992Y63211D01*
X503907Y60345D01*
X506344Y57907D01*
X509211Y55992D01*
X512395Y54673D01*
X515776Y54000D01*
X519224D01*
X522604Y54673D01*
X525789Y55992D01*
X528656Y57907D01*
X531093Y60345D01*
X533008Y63211D01*
X534327Y66396D01*
X535000Y69777D01*
Y73224D01*
X534327Y76605D01*
X533008Y79790D01*
X531093Y82656D01*
X528656Y85093D01*
X525789Y87008D01*
X522604Y88328D01*
X519224Y89000D01*
D02*
G37*
G36*
X179974D02*
X176527D01*
X173146Y88328D01*
X169961Y87008D01*
X167094Y85093D01*
X164657Y82656D01*
X162742Y79790D01*
X161423Y76605D01*
X160750Y73224D01*
Y69777D01*
X161423Y66396D01*
X162742Y63211D01*
X164657Y60345D01*
X167094Y57907D01*
X169961Y55992D01*
X173146Y54673D01*
X176527Y54000D01*
X179974D01*
X183355Y54673D01*
X186539Y55992D01*
X189406Y57907D01*
X191843Y60345D01*
X193758Y63211D01*
X195078Y66396D01*
X195750Y69777D01*
Y73224D01*
X195078Y76605D01*
X193758Y79790D01*
X191843Y82656D01*
X189406Y85093D01*
X186539Y87008D01*
X183355Y88328D01*
X179974Y89000D01*
D02*
G37*
G36*
X53973D02*
X50526D01*
X47145Y88328D01*
X43960Y87008D01*
X41094Y85093D01*
X38657Y82656D01*
X36742Y79790D01*
X35422Y76605D01*
X34750Y73224D01*
Y69777D01*
X35422Y66396D01*
X36742Y63211D01*
X38657Y60345D01*
X41094Y57907D01*
X43960Y55992D01*
X47145Y54673D01*
X50526Y54000D01*
X53973D01*
X57354Y54673D01*
X60539Y55992D01*
X63405Y57907D01*
X65843Y60345D01*
X67758Y63211D01*
X69077Y66396D01*
X69750Y69777D01*
Y73224D01*
X69077Y76605D01*
X67758Y79790D01*
X65843Y82656D01*
X63405Y85093D01*
X60539Y87008D01*
X57354Y88328D01*
X53973Y89000D01*
D02*
G37*
G36*
X413224Y89000D02*
X409777D01*
X406396Y88328D01*
X403211Y87008D01*
X400345Y85093D01*
X397907Y82656D01*
X395992Y79789D01*
X394673Y76604D01*
X394000Y73224D01*
Y69776D01*
X394673Y66395D01*
X395992Y63211D01*
X397907Y60344D01*
X400345Y57907D01*
X403211Y55992D01*
X406396Y54672D01*
X409777Y54000D01*
X413224D01*
X416605Y54672D01*
X419790Y55992D01*
X422656Y57907D01*
X425093Y60344D01*
X427009Y63211D01*
X428328Y66395D01*
X429000Y69776D01*
Y73224D01*
X428328Y76604D01*
X427009Y79789D01*
X425093Y82656D01*
X422656Y85093D01*
X419790Y87008D01*
X416605Y88328D01*
X413224Y89000D01*
D02*
G37*
G36*
X287224D02*
X283776D01*
X280396Y88328D01*
X277211Y87008D01*
X274345Y85093D01*
X271907Y82656D01*
X269992Y79789D01*
X268673Y76604D01*
X268000Y73224D01*
Y69776D01*
X268673Y66395D01*
X269992Y63211D01*
X271907Y60344D01*
X274345Y57907D01*
X277211Y55992D01*
X280396Y54672D01*
X283776Y54000D01*
X287224D01*
X290605Y54672D01*
X293789Y55992D01*
X296656Y57907D01*
X299093Y60344D01*
X301008Y63211D01*
X302327Y66395D01*
X303000Y69776D01*
Y73224D01*
X302327Y76604D01*
X301008Y79789D01*
X299093Y82656D01*
X296656Y85093D01*
X293789Y87008D01*
X290605Y88328D01*
X287224Y89000D01*
D02*
G37*
%LPD*%
D13*
X140000Y730000D02*
X142167Y732167D01*
X170750D01*
X233000Y783000D02*
X240000Y790000D01*
X233000Y758500D02*
Y783000D01*
X211500Y758500D02*
Y778500D01*
X210000Y780000D02*
X211500Y778500D01*
X188250Y755166D02*
Y776559D01*
X187809Y777000D02*
X188250Y776559D01*
X529000Y373500D02*
X549000Y393500D01*
X392500Y373500D02*
X529000D01*
X562481Y668000D02*
X605981Y624500D01*
X533250Y668000D02*
X562481D01*
X594750Y395500D02*
X602500D01*
X624500Y373500D01*
X624500D01*
X594750Y395500D02*
Y412700D01*
X599550Y417500D01*
X592750Y393500D02*
X594750Y395500D01*
X549000Y393500D02*
X592750D01*
X548750Y393750D02*
X549000Y393500D01*
X548750Y393750D02*
Y417500D01*
X370500Y395500D02*
X392500Y373500D01*
X362750Y395500D02*
X370500D01*
X362750D02*
Y412700D01*
X367550Y417500D01*
X360750Y393500D02*
X362750Y395500D01*
X317000Y393500D02*
X360750D01*
X316750Y393750D02*
X317000Y393500D01*
X316750Y393750D02*
Y417500D01*
X129500Y395500D02*
X137250D01*
X159250Y373500D01*
X129500Y412700D02*
X134300Y417500D01*
X129500Y395500D02*
Y412700D01*
X127500Y393500D02*
X129500Y395500D01*
X83750Y393500D02*
X127500D01*
X83750D02*
Y417250D01*
X83500Y417500D02*
X83750Y417250D01*
D20*
X624500Y373500D02*
Y384750D01*
X704750Y465000D01*
D50*
X325000Y581250D02*
D03*
X90750Y560250D02*
D03*
X637650Y434250D02*
D03*
X523350D02*
D03*
X405650Y434250D02*
D03*
X291350D02*
D03*
X172400Y434250D02*
D03*
X58100D02*
D03*
D60*
X522000Y763000D02*
D03*
X480000D02*
D03*
X438000D02*
D03*
X522000Y805000D02*
D03*
X480000D02*
D03*
X187000Y667250D02*
D03*
Y625250D02*
D03*
Y583250D02*
D03*
X145000Y667250D02*
D03*
Y625250D02*
D03*
X780000Y805000D02*
D03*
X822000D02*
D03*
X738000Y763000D02*
D03*
X780000D02*
D03*
X822000D02*
D03*
X517500Y186500D02*
D03*
X559500D02*
D03*
X601500D02*
D03*
X643500D02*
D03*
X517500Y144500D02*
D03*
X559500D02*
D03*
X601500D02*
D03*
X813000Y477000D02*
D03*
Y519000D02*
D03*
Y561000D02*
D03*
Y603000D02*
D03*
X855000Y477000D02*
D03*
Y519000D02*
D03*
Y561000D02*
D03*
X52250Y186500D02*
D03*
X94250D02*
D03*
X136250D02*
D03*
X178250D02*
D03*
X52250Y144500D02*
D03*
X94250D02*
D03*
X136250D02*
D03*
X285500Y186500D02*
D03*
X327500D02*
D03*
X369500D02*
D03*
X411500D02*
D03*
X285500Y144500D02*
D03*
X327500D02*
D03*
X369500D02*
D03*
X672000Y763000D02*
D03*
X630000D02*
D03*
X588000D02*
D03*
X672000Y805000D02*
D03*
X630000D02*
D03*
D61*
X438000Y805000D02*
D03*
X738000D02*
D03*
X643500Y144500D02*
D03*
X178250D02*
D03*
X411500Y144500D02*
D03*
X588000Y805000D02*
D03*
D62*
X522000Y878000D02*
D03*
X438000D02*
D03*
X72000Y667250D02*
D03*
Y583250D02*
D03*
X738000Y878000D02*
D03*
X822000D02*
D03*
X517500Y71500D02*
D03*
X643500D02*
D03*
X928000Y477000D02*
D03*
Y603000D02*
D03*
X52250Y71500D02*
D03*
X178250D02*
D03*
X285500Y71500D02*
D03*
X411500D02*
D03*
X672000Y878000D02*
D03*
X588000D02*
D03*
D64*
X145000Y583250D02*
D03*
X855000Y603000D02*
D03*
D66*
X799444Y710955D02*
D03*
Y669045D02*
D03*
X854562D02*
D03*
D67*
Y710955D02*
D03*
D68*
X927460Y690000D02*
D03*
D74*
X286250Y860000D02*
D03*
X298950D02*
D03*
X311650D02*
D03*
X324350D02*
D03*
X337050D02*
D03*
X286250Y900300D02*
D03*
X298950D02*
D03*
X311650D02*
D03*
X324350D02*
D03*
X337050D02*
D03*
D75*
X765000Y280000D02*
D03*
X915000D02*
D03*
D76*
X980000Y856000D02*
D03*
Y796000D02*
D03*
Y736000D02*
D03*
Y676000D02*
D03*
Y616000D02*
D03*
Y556000D02*
D03*
Y496000D02*
D03*
Y436000D02*
D03*
Y376000D02*
D03*
Y316000D02*
D03*
Y256000D02*
D03*
Y196000D02*
D03*
Y136000D02*
D03*
X965000Y826000D02*
D03*
X950000Y736000D02*
D03*
Y676000D02*
D03*
Y616000D02*
D03*
Y556000D02*
D03*
Y496000D02*
D03*
Y436000D02*
D03*
X965000Y406000D02*
D03*
X950000Y376000D02*
D03*
X965000Y346000D02*
D03*
X950000Y316000D02*
D03*
X965000Y286000D02*
D03*
X950000Y256000D02*
D03*
X965000Y226000D02*
D03*
X950000Y196000D02*
D03*
X965000Y166000D02*
D03*
X950000Y136000D02*
D03*
X965000Y106000D02*
D03*
X935000Y766000D02*
D03*
X920000Y736000D02*
D03*
X935000Y646000D02*
D03*
X920000Y556000D02*
D03*
X935000Y526000D02*
D03*
X920000Y496000D02*
D03*
Y436000D02*
D03*
X935000Y406000D02*
D03*
X920000Y376000D02*
D03*
X935000Y346000D02*
D03*
Y226000D02*
D03*
X920000Y196000D02*
D03*
X935000Y166000D02*
D03*
X920000Y136000D02*
D03*
X935000Y106000D02*
D03*
X890000Y916000D02*
D03*
Y796000D02*
D03*
X905000Y766000D02*
D03*
X890000Y736000D02*
D03*
X905000Y706000D02*
D03*
Y646000D02*
D03*
X890000Y616000D02*
D03*
X905000Y586000D02*
D03*
X890000Y556000D02*
D03*
X905000Y526000D02*
D03*
Y466000D02*
D03*
X890000Y436000D02*
D03*
X905000Y406000D02*
D03*
X890000Y376000D02*
D03*
X905000Y346000D02*
D03*
Y226000D02*
D03*
X890000Y196000D02*
D03*
X905000Y166000D02*
D03*
X890000Y136000D02*
D03*
X905000Y106000D02*
D03*
X890000Y16000D02*
D03*
X875000Y886000D02*
D03*
X860000Y856000D02*
D03*
X875000Y826000D02*
D03*
X860000Y796000D02*
D03*
X875000Y766000D02*
D03*
Y586000D02*
D03*
Y406000D02*
D03*
X860000Y376000D02*
D03*
X875000Y346000D02*
D03*
X860000Y316000D02*
D03*
Y256000D02*
D03*
X875000Y226000D02*
D03*
X860000Y196000D02*
D03*
X875000Y166000D02*
D03*
X860000Y136000D02*
D03*
X875000Y106000D02*
D03*
X860000Y16000D02*
D03*
X830000Y916000D02*
D03*
X845000Y886000D02*
D03*
X830000Y856000D02*
D03*
X845000Y406000D02*
D03*
X830000Y376000D02*
D03*
X845000Y346000D02*
D03*
X830000Y316000D02*
D03*
X845000Y286000D02*
D03*
X830000Y256000D02*
D03*
X845000Y226000D02*
D03*
X830000Y196000D02*
D03*
X845000Y166000D02*
D03*
X830000Y136000D02*
D03*
X845000Y106000D02*
D03*
X830000Y16000D02*
D03*
X800000Y916000D02*
D03*
Y856000D02*
D03*
X815000Y406000D02*
D03*
X800000Y376000D02*
D03*
X815000Y346000D02*
D03*
X800000Y316000D02*
D03*
X815000Y286000D02*
D03*
X800000Y256000D02*
D03*
X815000Y226000D02*
D03*
X800000Y196000D02*
D03*
X815000Y166000D02*
D03*
X800000Y136000D02*
D03*
X815000Y106000D02*
D03*
X800000Y16000D02*
D03*
X770000Y916000D02*
D03*
X785000Y886000D02*
D03*
X770000Y856000D02*
D03*
Y616000D02*
D03*
Y556000D02*
D03*
Y496000D02*
D03*
X785000Y406000D02*
D03*
Y346000D02*
D03*
Y226000D02*
D03*
X770000Y196000D02*
D03*
X785000Y166000D02*
D03*
X770000Y136000D02*
D03*
X785000Y106000D02*
D03*
X770000Y16000D02*
D03*
X740000Y916000D02*
D03*
Y856000D02*
D03*
Y616000D02*
D03*
X755000Y406000D02*
D03*
X740000Y376000D02*
D03*
X755000Y346000D02*
D03*
Y226000D02*
D03*
X740000Y196000D02*
D03*
X755000Y166000D02*
D03*
X740000Y136000D02*
D03*
X755000Y106000D02*
D03*
X740000Y16000D02*
D03*
X710000Y916000D02*
D03*
Y856000D02*
D03*
Y496000D02*
D03*
X725000Y406000D02*
D03*
Y346000D02*
D03*
X710000Y316000D02*
D03*
Y256000D02*
D03*
X725000Y226000D02*
D03*
X710000Y196000D02*
D03*
X725000Y166000D02*
D03*
X710000Y136000D02*
D03*
X725000Y106000D02*
D03*
X710000Y16000D02*
D03*
X680000Y916000D02*
D03*
X695000Y886000D02*
D03*
X680000Y856000D02*
D03*
Y496000D02*
D03*
Y316000D02*
D03*
X695000Y286000D02*
D03*
Y226000D02*
D03*
X680000Y196000D02*
D03*
X695000Y166000D02*
D03*
Y106000D02*
D03*
X680000Y76000D02*
D03*
X695000Y46000D02*
D03*
X680000Y16000D02*
D03*
X650000Y916000D02*
D03*
Y856000D02*
D03*
Y496000D02*
D03*
X665000Y466000D02*
D03*
Y46000D02*
D03*
X650000Y16000D02*
D03*
X620000Y916000D02*
D03*
X635000Y886000D02*
D03*
X620000Y856000D02*
D03*
Y496000D02*
D03*
Y196000D02*
D03*
Y76000D02*
D03*
X635000Y46000D02*
D03*
X620000Y16000D02*
D03*
X590000Y916000D02*
D03*
Y856000D02*
D03*
X605000Y526000D02*
D03*
X590000Y316000D02*
D03*
Y76000D02*
D03*
X605000Y46000D02*
D03*
X590000Y16000D02*
D03*
X560000Y916000D02*
D03*
Y856000D02*
D03*
Y76000D02*
D03*
X575000Y46000D02*
D03*
X560000Y16000D02*
D03*
X530000Y916000D02*
D03*
X545000Y886000D02*
D03*
X530000Y856000D02*
D03*
Y496000D02*
D03*
X545000Y46000D02*
D03*
X530000Y16000D02*
D03*
X500000Y916000D02*
D03*
Y856000D02*
D03*
Y496000D02*
D03*
Y436000D02*
D03*
X515000Y46000D02*
D03*
X500000Y16000D02*
D03*
X470000Y916000D02*
D03*
X485000Y886000D02*
D03*
X470000Y856000D02*
D03*
Y556000D02*
D03*
X485000Y526000D02*
D03*
X470000Y496000D02*
D03*
X485000Y466000D02*
D03*
X470000Y316000D02*
D03*
Y256000D02*
D03*
Y196000D02*
D03*
Y136000D02*
D03*
X485000Y106000D02*
D03*
X470000Y76000D02*
D03*
X485000Y46000D02*
D03*
X470000Y16000D02*
D03*
X440000Y916000D02*
D03*
Y856000D02*
D03*
X455000Y526000D02*
D03*
X440000Y496000D02*
D03*
X455000Y466000D02*
D03*
Y286000D02*
D03*
Y226000D02*
D03*
X440000Y196000D02*
D03*
X455000Y106000D02*
D03*
X440000Y76000D02*
D03*
X455000Y46000D02*
D03*
X440000Y16000D02*
D03*
X410000Y916000D02*
D03*
Y856000D02*
D03*
X425000Y526000D02*
D03*
X410000Y496000D02*
D03*
X425000Y466000D02*
D03*
Y46000D02*
D03*
X410000Y16000D02*
D03*
X380000Y916000D02*
D03*
X395000Y886000D02*
D03*
X380000Y76000D02*
D03*
X395000Y46000D02*
D03*
X380000Y16000D02*
D03*
X350000Y316000D02*
D03*
Y196000D02*
D03*
Y76000D02*
D03*
X365000Y46000D02*
D03*
X350000Y16000D02*
D03*
X320000Y76000D02*
D03*
X335000Y46000D02*
D03*
X320000Y16000D02*
D03*
X305000Y826000D02*
D03*
Y46000D02*
D03*
X290000Y16000D02*
D03*
X260000Y856000D02*
D03*
X275000Y826000D02*
D03*
Y466000D02*
D03*
X260000Y196000D02*
D03*
Y76000D02*
D03*
X275000Y46000D02*
D03*
X260000Y16000D02*
D03*
X230000Y916000D02*
D03*
X245000Y886000D02*
D03*
X230000Y316000D02*
D03*
Y256000D02*
D03*
Y196000D02*
D03*
Y136000D02*
D03*
X245000Y106000D02*
D03*
X230000Y76000D02*
D03*
X245000Y46000D02*
D03*
X230000Y16000D02*
D03*
X215000Y706000D02*
D03*
X200000Y556000D02*
D03*
X215000Y466000D02*
D03*
Y106000D02*
D03*
X200000Y76000D02*
D03*
X215000Y46000D02*
D03*
X200000Y16000D02*
D03*
X170000Y556000D02*
D03*
X185000Y466000D02*
D03*
Y46000D02*
D03*
X170000Y16000D02*
D03*
X140000Y76000D02*
D03*
X155000Y46000D02*
D03*
X140000Y16000D02*
D03*
X125000Y526000D02*
D03*
X110000Y316000D02*
D03*
Y76000D02*
D03*
X125000Y46000D02*
D03*
X110000Y16000D02*
D03*
X80000Y616000D02*
D03*
Y76000D02*
D03*
X95000Y46000D02*
D03*
X80000Y16000D02*
D03*
X65000Y706000D02*
D03*
X50000Y676000D02*
D03*
Y616000D02*
D03*
Y556000D02*
D03*
X65000Y46000D02*
D03*
X50000Y16000D02*
D03*
X35000Y706000D02*
D03*
Y646000D02*
D03*
X20000Y616000D02*
D03*
X35000Y586000D02*
D03*
X20000Y556000D02*
D03*
Y196000D02*
D03*
Y76000D02*
D03*
X35000Y46000D02*
D03*
X20000Y16000D02*
D03*
X121750Y882853D02*
D03*
X103900Y785000D02*
D03*
X555000Y600000D02*
D03*
X261350Y647000D02*
D03*
X673750Y356750D02*
D03*
X673750Y394500D02*
D03*
X486750Y365750D02*
D03*
X486750Y403500D02*
D03*
X441750Y356750D02*
D03*
X254750Y365751D02*
D03*
X254750Y403500D02*
D03*
X441750Y394499D02*
D03*
X208500Y403500D02*
D03*
X21500Y356750D02*
D03*
X208500Y394500D02*
D03*
X208500Y356750D02*
D03*
X21500Y403500D02*
D03*
X21500Y365750D02*
D03*
X355000Y803750D02*
D03*
X718630Y633270D02*
D03*
X701630D02*
D03*
X355000Y815000D02*
D03*
X233000Y758500D02*
D03*
X211500Y758500D02*
D03*
X188250Y755166D02*
D03*
X170750Y732167D02*
D03*
X350250Y530000D02*
D03*
X345250Y535000D02*
D03*
X176750Y318000D02*
D03*
X421000Y716250D02*
D03*
X168750Y279250D02*
D03*
X177250Y255250D02*
D03*
X53500Y255359D02*
D03*
X89000Y255250D02*
D03*
X62000Y278750D02*
D03*
X410000Y318000D02*
D03*
X402000Y279250D02*
D03*
X410500Y255250D02*
D03*
X286750Y255358D02*
D03*
X322250Y255250D02*
D03*
X295250Y278750D02*
D03*
X527250Y278750D02*
D03*
X554250Y255250D02*
D03*
X518750Y255359D02*
D03*
X642500Y255250D02*
D03*
X634000Y279250D02*
D03*
X519001Y318100D02*
D03*
X642000Y318000D02*
D03*
X62250Y360500D02*
D03*
X99000Y360500D02*
D03*
X295500Y360500D02*
D03*
X332250Y360500D02*
D03*
X564250Y360500D02*
D03*
X527500Y360500D02*
D03*
X288500Y318100D02*
D03*
X53750Y318100D02*
D03*
X141500Y255250D02*
D03*
X374750Y255250D02*
D03*
X606750Y255250D02*
D03*
X600750Y651500D02*
D03*
X219000Y622000D02*
D03*
X189750Y801000D02*
D03*
X185000Y827750D02*
D03*
Y817250D02*
D03*
X749861Y448496D02*
D03*
X704750Y465000D02*
D03*
X223500Y810250D02*
D03*
X254000Y829000D02*
D03*
X683100Y706250D02*
D03*
X360250Y695750D02*
D03*
X369500Y671250D02*
D03*
X330000Y640500D02*
D03*
X335000Y647000D02*
D03*
X340000Y653500D02*
D03*
X355000Y647000D02*
D03*
X312750Y677900D02*
D03*
X311500Y732250D02*
D03*
X415000Y577000D02*
D03*
X430000Y592000D02*
D03*
X425000Y587000D02*
D03*
X420000Y582000D02*
D03*
X340250Y540000D02*
D03*
X335250Y545000D02*
D03*
X659500Y224250D02*
D03*
X671500Y271100D02*
D03*
X625000Y255250D02*
D03*
X594750Y395500D02*
D03*
X599550Y417500D02*
D03*
X548750D02*
D03*
X548750Y464000D02*
D03*
X599500D02*
D03*
X599550Y434250D02*
D03*
X624500Y373500D02*
D03*
X549000Y393500D02*
D03*
X548750Y434250D02*
D03*
X536000Y255350D02*
D03*
X657750Y356750D02*
D03*
Y365750D02*
D03*
X657750Y394500D02*
D03*
Y403500D02*
D03*
X673750D02*
D03*
X673750Y365750D02*
D03*
X502750Y403500D02*
D03*
Y394500D02*
D03*
X502750Y365750D02*
D03*
Y356750D02*
D03*
X486750Y394500D02*
D03*
X486750Y356750D02*
D03*
X490000Y272100D02*
D03*
X427500Y224250D02*
D03*
X439500Y271100D02*
D03*
X393000Y255250D02*
D03*
X362750Y395500D02*
D03*
X367550Y417500D02*
D03*
X316750D02*
D03*
X316750Y464000D02*
D03*
X367500D02*
D03*
X367550Y434250D02*
D03*
X392500Y373500D02*
D03*
X317000Y393500D02*
D03*
X316750Y434250D02*
D03*
X304000Y255350D02*
D03*
X425750Y356750D02*
D03*
Y365750D02*
D03*
X425750Y394500D02*
D03*
Y403500D02*
D03*
X441750D02*
D03*
X441750Y365750D02*
D03*
X270750Y403500D02*
D03*
Y394500D02*
D03*
X270751Y365750D02*
D03*
Y356750D02*
D03*
X254750Y394500D02*
D03*
X254750Y356750D02*
D03*
X258000Y272100D02*
D03*
X194250Y224250D02*
D03*
X206250Y271100D02*
D03*
X159750Y255250D02*
D03*
X129500Y395500D02*
D03*
X285250Y530000D02*
D03*
X280250Y535000D02*
D03*
X270250Y545000D02*
D03*
X275250Y540000D02*
D03*
X134300Y417500D02*
D03*
X83500D02*
D03*
X83500Y464000D02*
D03*
X134250D02*
D03*
X134300Y434250D02*
D03*
X159250Y373500D02*
D03*
X83750Y393500D02*
D03*
X83500Y434250D02*
D03*
X70750Y255350D02*
D03*
X192500Y356750D02*
D03*
Y365750D02*
D03*
X192500Y394500D02*
D03*
Y403500D02*
D03*
X208500Y365750D02*
D03*
X37500Y403500D02*
D03*
Y394500D02*
D03*
X37500Y365750D02*
D03*
Y356750D02*
D03*
X21500Y394500D02*
D03*
X24750Y272100D02*
D03*
X219000Y632750D02*
D03*
X170750Y755166D02*
D03*
X188250Y732167D02*
D03*
X218125Y743750D02*
D03*
X226375D02*
D03*
X330000Y733750D02*
D03*
X298950Y860000D02*
D03*
X286250D02*
D03*
Y900300D02*
D03*
X298950D02*
D03*
X311650D02*
D03*
X324350D02*
D03*
X337050D02*
D03*
Y860000D02*
D03*
X324350D02*
D03*
X311650D02*
D03*
X207500Y883700D02*
D03*
X261350Y632000D02*
D03*
X290250Y750000D02*
D03*
X121500Y895500D02*
D03*
X223500Y795000D02*
D03*
X112300Y749250D02*
D03*
X95526D02*
D03*
X56000Y834500D02*
D03*
Y825500D02*
D03*
X40000Y834500D02*
D03*
Y825500D02*
D03*
X56000Y785250D02*
D03*
Y794250D02*
D03*
X40000D02*
D03*
Y785250D02*
D03*
X40000Y746000D02*
D03*
Y755000D02*
D03*
X56000D02*
D03*
Y746000D02*
D03*
X215448Y816501D02*
D03*
Y803751D02*
D03*
X153948Y815001D02*
D03*
X260963Y604959D02*
D03*
X295100Y596500D02*
D03*
X261100Y595500D02*
D03*
X265250Y578250D02*
D03*
X366500Y578250D02*
D03*
X379000D02*
D03*
X396000Y716750D02*
D03*
X261500Y695750D02*
D03*
X261059Y675250D02*
D03*
X158250Y896250D02*
D03*
Y863750D02*
D03*
X109000Y895500D02*
D03*
X207500Y896250D02*
D03*
X714250Y557500D02*
D03*
X700000Y686500D02*
D03*
X691000Y602500D02*
D03*
X655750Y686000D02*
D03*
X670000Y557250D02*
D03*
X696937Y577250D02*
D03*
X683000Y666500D02*
D03*
X678000Y602500D02*
D03*
X664000Y641250D02*
D03*
D77*
X424500Y343250D02*
D03*
X191500D02*
D03*
X655130Y343250D02*
D03*
X502750D02*
D03*
X580750Y343000D02*
D03*
X270751Y343250D02*
D03*
X348750Y343000D02*
D03*
X37500Y343250D02*
D03*
X115500Y343000D02*
D03*
X642437Y537500D02*
D03*
Y577250D02*
D03*
X628650Y666500D02*
D03*
Y706250D02*
D03*
D78*
X589174Y714289D02*
D03*
X564674D02*
D03*
X605981Y624500D02*
D03*
X533250Y668000D02*
D03*
X506000Y644000D02*
D03*
D79*
X50000Y500000D02*
D03*
X950000Y900000D02*
D03*
Y50000D02*
D03*
X50000Y900000D02*
D03*
M02*
