G04*
G04 #@! TF.GenerationSoftware,Altium Limited,Altium Designer,25.6.2 (33)*
G04*
G04 Layer_Physical_Order=2*
G04 Layer_Color=36540*
%FSLAX44Y44*%
%MOMM*%
G71*
G04*
G04 #@! TF.SameCoordinates,8C2F84DF-90BC-4741-85DC-F4CD892757E3*
G04*
G04*
G04 #@! TF.FilePolarity,Positive*
G04*
G01*
G75*
%ADD51C,0.3000*%
%ADD53C,2.5400*%
%ADD54C,1.9050*%
%ADD55C,0.5000*%
G36*
X400000Y417961D02*
X401833Y417961D01*
X405466Y417482D01*
X409007Y416534D01*
X412393Y415131D01*
X415568Y413298D01*
X418475Y411067D01*
X421067Y408475D01*
X423298Y405568D01*
X425131Y402393D01*
X426534Y399007D01*
X427482Y395467D01*
X427961Y391833D01*
X427961Y390000D01*
X427961Y30000D01*
Y28167D01*
X427482Y24533D01*
X426534Y20993D01*
X425131Y17607D01*
X423298Y14432D01*
X421067Y11525D01*
X418475Y8933D01*
X415568Y6701D01*
X412393Y4869D01*
X409007Y3466D01*
X405467Y2517D01*
X401833Y2039D01*
X400000Y2039D01*
X30000Y2039D01*
X28167D01*
X24533Y2517D01*
X20993Y3466D01*
X17607Y4869D01*
X14432Y6701D01*
X11525Y8933D01*
X8933Y11525D01*
X6701Y14432D01*
X4869Y17607D01*
X3466Y20993D01*
X2517Y24533D01*
X2039Y28167D01*
Y30000D01*
X2039Y390000D01*
Y391833D01*
X2517Y395467D01*
X3466Y399007D01*
X4869Y402393D01*
X6701Y405568D01*
X8933Y408475D01*
X11525Y411067D01*
X14432Y413298D01*
X17607Y415131D01*
X20993Y416534D01*
X24533Y417482D01*
X28167Y417961D01*
X30000Y417961D01*
X400000Y417961D01*
D02*
G37*
%LPC*%
G36*
X177206Y389116D02*
X175908D01*
Y375908D01*
X189116D01*
Y377206D01*
X188181Y380694D01*
X186376Y383822D01*
X183822Y386376D01*
X180694Y388181D01*
X177206Y389116D01*
D02*
G37*
G36*
X174892D02*
X173594D01*
X170106Y388181D01*
X166978Y386376D01*
X164424Y383822D01*
X162619Y380694D01*
X161684Y377206D01*
Y375908D01*
X174892D01*
Y389116D01*
D02*
G37*
G36*
X126406D02*
X125108D01*
Y375908D01*
X138316D01*
Y377206D01*
X137381Y380694D01*
X135576Y383822D01*
X133022Y386376D01*
X129894Y388181D01*
X126406Y389116D01*
D02*
G37*
G36*
X124092D02*
X122794D01*
X119306Y388181D01*
X116178Y386376D01*
X113624Y383822D01*
X111819Y380694D01*
X110884Y377206D01*
Y375908D01*
X124092D01*
Y389116D01*
D02*
G37*
G36*
X189116Y374892D02*
X175908D01*
Y361684D01*
X177206D01*
X180694Y362619D01*
X183822Y364425D01*
X186376Y366978D01*
X188181Y370106D01*
X189116Y373594D01*
Y374892D01*
D02*
G37*
G36*
X174892D02*
X161684D01*
Y373594D01*
X162619Y370106D01*
X164424Y366978D01*
X166978Y364425D01*
X170106Y362619D01*
X173594Y361684D01*
X174892D01*
Y374892D01*
D02*
G37*
G36*
X138316D02*
X125108D01*
Y361684D01*
X126406D01*
X129894Y362619D01*
X133022Y364425D01*
X135576Y366978D01*
X137381Y370106D01*
X138316Y373594D01*
Y374892D01*
D02*
G37*
G36*
X124092D02*
X110884D01*
Y373594D01*
X111819Y370106D01*
X113624Y366978D01*
X116178Y364425D01*
X119306Y362619D01*
X122794Y361684D01*
X124092D01*
Y374892D01*
D02*
G37*
G36*
X151388Y360545D02*
X148612D01*
X145930Y359826D01*
X143525Y358438D01*
X141562Y356475D01*
X140174Y354070D01*
X139455Y351388D01*
Y348612D01*
X140174Y345930D01*
X141562Y343525D01*
X143525Y341562D01*
X145930Y340174D01*
X148612Y339455D01*
X151388D01*
X154070Y340174D01*
X156475Y341562D01*
X158438Y343525D01*
X159826Y345930D01*
X160545Y348612D01*
Y351388D01*
X159826Y354070D01*
X158438Y356475D01*
X156475Y358438D01*
X154070Y359826D01*
X151388Y360545D01*
D02*
G37*
G36*
X177206Y338316D02*
X175908D01*
Y325108D01*
X189116D01*
Y326406D01*
X188181Y329894D01*
X186376Y333022D01*
X183822Y335576D01*
X180694Y337381D01*
X177206Y338316D01*
D02*
G37*
G36*
X174892D02*
X173594D01*
X170106Y337381D01*
X166978Y335576D01*
X164424Y333022D01*
X162619Y329894D01*
X161684Y326406D01*
Y325108D01*
X174892D01*
Y338316D01*
D02*
G37*
G36*
X126406D02*
X125108D01*
Y325108D01*
X138316D01*
Y326406D01*
X137381Y329894D01*
X135576Y333022D01*
X133022Y335576D01*
X129894Y337381D01*
X126406Y338316D01*
D02*
G37*
G36*
X124092D02*
X122794D01*
X119306Y337381D01*
X116178Y335576D01*
X113624Y333022D01*
X111819Y329894D01*
X110884Y326406D01*
Y325108D01*
X124092D01*
Y338316D01*
D02*
G37*
G36*
X189116Y324092D02*
X175908D01*
Y310884D01*
X177206D01*
X180694Y311819D01*
X183822Y313624D01*
X186376Y316178D01*
X188181Y319306D01*
X189116Y322794D01*
Y324092D01*
D02*
G37*
G36*
X174892D02*
X161684D01*
Y322794D01*
X162619Y319306D01*
X164424Y316178D01*
X166978Y313624D01*
X170106Y311819D01*
X173594Y310884D01*
X174892D01*
Y324092D01*
D02*
G37*
G36*
X138316D02*
X125108D01*
Y310884D01*
X126406D01*
X129894Y311819D01*
X133022Y313624D01*
X135576Y316178D01*
X137381Y319306D01*
X138316Y322794D01*
Y324092D01*
D02*
G37*
G36*
X124092D02*
X110884D01*
Y322794D01*
X111819Y319306D01*
X113624Y316178D01*
X116178Y313624D01*
X119306Y311819D01*
X122794Y310884D01*
X124092D01*
Y324092D01*
D02*
G37*
G36*
X238700Y283020D02*
X237300D01*
X236006Y282484D01*
X235016Y281494D01*
X234480Y280200D01*
Y278800D01*
X235016Y277506D01*
X236006Y276516D01*
X237300Y275980D01*
X238700D01*
X239994Y276516D01*
X240984Y277506D01*
X241520Y278800D01*
Y280200D01*
X240984Y281494D01*
X239994Y282484D01*
X238700Y283020D01*
D02*
G37*
G36*
X222700D02*
X221300D01*
X220006Y282484D01*
X219016Y281494D01*
X218480Y280200D01*
Y278800D01*
X219016Y277506D01*
X220006Y276516D01*
X221300Y275980D01*
X222700D01*
X223994Y276516D01*
X224984Y277506D01*
X225520Y278800D01*
Y280200D01*
X224984Y281494D01*
X223994Y282484D01*
X222700Y283020D01*
D02*
G37*
G36*
Y274020D02*
X221300D01*
X220006Y273484D01*
X219016Y272494D01*
X218480Y271200D01*
Y269800D01*
X219016Y268506D01*
X220006Y267516D01*
X221300Y266980D01*
X222700D01*
X223994Y267516D01*
X224984Y268506D01*
X225520Y269800D01*
Y271200D01*
X224984Y272494D01*
X223994Y273484D01*
X222700Y274020D01*
D02*
G37*
G36*
X390700Y221020D02*
X389300D01*
X388006Y220484D01*
X387016Y219494D01*
X386937Y219304D01*
X385563D01*
X385484Y219494D01*
X384494Y220484D01*
X383200Y221020D01*
X381800D01*
X380506Y220484D01*
X379516Y219494D01*
X379437Y219304D01*
X378063D01*
X377984Y219494D01*
X376994Y220484D01*
X375700Y221020D01*
X374300D01*
X373006Y220484D01*
X372016Y219494D01*
X371480Y218200D01*
Y216800D01*
X372016Y215506D01*
X373006Y214516D01*
X374300Y213980D01*
X375700D01*
X376994Y214516D01*
X377984Y215506D01*
X378063Y215696D01*
X379437D01*
X379516Y215506D01*
X380506Y214516D01*
X381800Y213980D01*
X383200D01*
X384494Y214516D01*
X385484Y215506D01*
X385563Y215696D01*
X386937D01*
X387016Y215506D01*
X388006Y214516D01*
X389300Y213980D01*
X390700D01*
X391994Y214516D01*
X392984Y215506D01*
X393520Y216800D01*
Y218200D01*
X392984Y219494D01*
X391994Y220484D01*
X390700Y221020D01*
D02*
G37*
G36*
X73200Y241020D02*
X71800D01*
X70506Y240484D01*
X69516Y239494D01*
X68980Y238200D01*
Y236800D01*
X69516Y235506D01*
X70506Y234516D01*
X70696Y234437D01*
Y233063D01*
X70506Y232984D01*
X69516Y231994D01*
X68980Y230700D01*
Y229300D01*
X69516Y228006D01*
X70506Y227016D01*
X70696Y226937D01*
Y225563D01*
X70506Y225484D01*
X69516Y224494D01*
X68980Y223200D01*
Y221800D01*
X69516Y220506D01*
X70506Y219516D01*
X71800Y218980D01*
X73200D01*
X74494Y219516D01*
X75484Y220506D01*
X76020Y221800D01*
Y223200D01*
X75484Y224494D01*
X74494Y225484D01*
X74304Y225563D01*
Y226937D01*
X74494Y227016D01*
X75484Y228006D01*
X76020Y229300D01*
Y230700D01*
X75484Y231994D01*
X74494Y232984D01*
X74304Y233063D01*
Y234437D01*
X74494Y234516D01*
X75484Y235506D01*
X76020Y236800D01*
Y238200D01*
X75484Y239494D01*
X74494Y240484D01*
X73200Y241020D01*
D02*
G37*
G36*
X140700Y208520D02*
X139300D01*
X138006Y207984D01*
X137016Y206994D01*
X136937Y206804D01*
X135563D01*
X135484Y206994D01*
X134494Y207984D01*
X133200Y208520D01*
X131800D01*
X130506Y207984D01*
X129516Y206994D01*
X128980Y205700D01*
Y204300D01*
X129516Y203006D01*
X130506Y202016D01*
X131800Y201480D01*
X133200D01*
X134494Y202016D01*
X135484Y203006D01*
X135563Y203196D01*
X136937D01*
X137016Y203006D01*
X138006Y202016D01*
X139300Y201480D01*
X140700D01*
X141994Y202016D01*
X142984Y203006D01*
X143520Y204300D01*
Y205700D01*
X142984Y206994D01*
X141994Y207984D01*
X140700Y208520D01*
D02*
G37*
G36*
X160700D02*
X159300D01*
X158006Y207984D01*
X157016Y206994D01*
X156480Y205700D01*
Y204300D01*
X157016Y203006D01*
X158006Y202016D01*
X159300Y201480D01*
X160700D01*
X161994Y202016D01*
X162984Y203006D01*
X163520Y204300D01*
Y205700D01*
X162984Y206994D01*
X161994Y207984D01*
X160700Y208520D01*
D02*
G37*
G36*
X110700D02*
X109300D01*
X108006Y207984D01*
X107016Y206994D01*
X106480Y205700D01*
Y204300D01*
X107016Y203006D01*
X108006Y202016D01*
X109300Y201480D01*
X110700D01*
X111994Y202016D01*
X112984Y203006D01*
X113520Y204300D01*
Y205700D01*
X112984Y206994D01*
X111994Y207984D01*
X110700Y208520D01*
D02*
G37*
G36*
X238700Y274020D02*
X237300D01*
X236006Y273484D01*
X235016Y272494D01*
X234480Y271200D01*
Y269800D01*
X235016Y268506D01*
X235431Y268091D01*
Y230258D01*
X235626Y229275D01*
X236183Y228441D01*
X286480Y178144D01*
Y177558D01*
X287016Y176264D01*
X288006Y175274D01*
X289300Y174738D01*
X290700D01*
X291994Y175274D01*
X292984Y176264D01*
X293520Y177558D01*
Y178958D01*
X292984Y180252D01*
X291994Y181242D01*
X290700Y181778D01*
X290114D01*
X240569Y231322D01*
Y268091D01*
X240984Y268506D01*
X241520Y269800D01*
Y271200D01*
X240984Y272494D01*
X239994Y273484D01*
X238700Y274020D01*
D02*
G37*
G36*
X100700Y174520D02*
X99300D01*
X98006Y173984D01*
X97016Y172994D01*
X96480Y171700D01*
Y170300D01*
X97016Y169006D01*
X98006Y168016D01*
X99300Y167480D01*
X100700D01*
X101994Y168016D01*
X102984Y169006D01*
X103520Y170300D01*
Y171700D01*
X102984Y172994D01*
X101994Y173984D01*
X100700Y174520D01*
D02*
G37*
G36*
X220700Y162020D02*
X219300D01*
X218006Y161484D01*
X217016Y160494D01*
X216480Y159200D01*
Y157800D01*
X217016Y156506D01*
X218006Y155516D01*
X219300Y154980D01*
X220700D01*
X221994Y155516D01*
X222984Y156506D01*
X223520Y157800D01*
Y159200D01*
X222984Y160494D01*
X221994Y161484D01*
X220700Y162020D01*
D02*
G37*
G36*
X185700Y158520D02*
X184300D01*
X183006Y157984D01*
X182016Y156994D01*
X181480Y155700D01*
Y154300D01*
X182016Y153006D01*
X183006Y152016D01*
X184300Y151480D01*
X185700D01*
X186994Y152016D01*
X187984Y153006D01*
X188520Y154300D01*
Y155700D01*
X187984Y156994D01*
X186994Y157984D01*
X185700Y158520D01*
D02*
G37*
G36*
X100700Y149520D02*
X99300D01*
X98006Y148984D01*
X97016Y147994D01*
X96480Y146700D01*
Y145300D01*
X97016Y144006D01*
X98006Y143016D01*
X99300Y142480D01*
X100700D01*
X101994Y143016D01*
X102984Y144006D01*
X103520Y145300D01*
Y146700D01*
X102984Y147994D01*
X101994Y148984D01*
X100700Y149520D01*
D02*
G37*
G36*
X188200Y143520D02*
X186800D01*
X185506Y142984D01*
X184516Y141994D01*
X183980Y140700D01*
Y139300D01*
X184516Y138006D01*
X185506Y137016D01*
X186800Y136480D01*
X188200D01*
X189494Y137016D01*
X190484Y138006D01*
X191020Y139300D01*
Y140700D01*
X190484Y141994D01*
X189494Y142984D01*
X188200Y143520D01*
D02*
G37*
G36*
X178200D02*
X176800D01*
X175506Y142984D01*
X174516Y141994D01*
X173980Y140700D01*
Y139300D01*
X174516Y138006D01*
X175506Y137016D01*
X176800Y136480D01*
X178200D01*
X179494Y137016D01*
X180484Y138006D01*
X181020Y139300D01*
Y140700D01*
X180484Y141994D01*
X179494Y142984D01*
X178200Y143520D01*
D02*
G37*
G36*
X362700Y133020D02*
X361300D01*
X360006Y132484D01*
X359016Y131494D01*
X358480Y130200D01*
Y128800D01*
X359016Y127506D01*
X360006Y126516D01*
X361300Y125980D01*
X362700D01*
X363994Y126516D01*
X364984Y127506D01*
X365520Y128800D01*
Y130200D01*
X364984Y131494D01*
X363994Y132484D01*
X362700Y133020D01*
D02*
G37*
G36*
X205700Y125020D02*
X204300D01*
X203006Y124484D01*
X202016Y123494D01*
X201480Y122200D01*
Y120800D01*
X202016Y119506D01*
X203006Y118516D01*
X204300Y117980D01*
X205700D01*
X206994Y118516D01*
X207984Y119506D01*
X208520Y120800D01*
Y122200D01*
X207984Y123494D01*
X206994Y124484D01*
X205700Y125020D01*
D02*
G37*
G36*
X315700Y113734D02*
X314300D01*
X313006Y113198D01*
X312016Y112208D01*
X311480Y110915D01*
Y109514D01*
X312016Y108221D01*
X313006Y107230D01*
X314300Y106694D01*
X315700D01*
X316994Y107230D01*
X317984Y108221D01*
X318520Y109514D01*
Y110915D01*
X317984Y112208D01*
X316994Y113198D01*
X315700Y113734D01*
D02*
G37*
G36*
X114546Y99000D02*
X112954D01*
X111484Y98391D01*
X110823Y97730D01*
X110000Y97407D01*
X109177Y97730D01*
X108516Y98391D01*
X107046Y99000D01*
X105454D01*
X103984Y98391D01*
X102859Y97266D01*
X102250Y95796D01*
Y94204D01*
X102859Y92734D01*
X103984Y91609D01*
X105454Y91000D01*
X107046D01*
X108516Y91609D01*
X109177Y92270D01*
X110000Y92593D01*
X110823Y92270D01*
X111484Y91609D01*
X112954Y91000D01*
X114546D01*
X116016Y91609D01*
X117141Y92734D01*
X117750Y94204D01*
Y95796D01*
X117141Y97266D01*
X116016Y98391D01*
X114546Y99000D01*
D02*
G37*
G36*
X184546D02*
X182954D01*
X181484Y98391D01*
X180823Y97730D01*
X180000Y97407D01*
X179177Y97730D01*
X178516Y98391D01*
X177046Y99000D01*
X175454D01*
X173984Y98391D01*
X172859Y97266D01*
X172250Y95796D01*
Y94204D01*
X172859Y92734D01*
X173984Y91609D01*
X175454Y91000D01*
X177046D01*
X178516Y91609D01*
X179177Y92270D01*
X180000Y92593D01*
X180823Y92270D01*
X181484Y91609D01*
X182954Y91000D01*
X184546D01*
X186016Y91609D01*
X187141Y92734D01*
X187750Y94204D01*
Y95796D01*
X187141Y97266D01*
X186016Y98391D01*
X184546Y99000D01*
D02*
G37*
G36*
X149546D02*
X147954D01*
X146484Y98391D01*
X145823Y97730D01*
X145000Y97407D01*
X144177Y97730D01*
X143516Y98391D01*
X142046Y99000D01*
X140454D01*
X138984Y98391D01*
X137859Y97266D01*
X137250Y95796D01*
Y94204D01*
X137859Y92734D01*
X138984Y91609D01*
X140454Y91000D01*
X142046D01*
X143516Y91609D01*
X144177Y92270D01*
X145000Y92593D01*
X145823Y92270D01*
X146484Y91609D01*
X147954Y91000D01*
X149546D01*
X151016Y91609D01*
X152141Y92734D01*
X152750Y94204D01*
Y95796D01*
X152141Y97266D01*
X151016Y98391D01*
X149546Y99000D01*
D02*
G37*
G36*
X359700Y81520D02*
X358300D01*
X357006Y80984D01*
X356016Y79994D01*
X355480Y78700D01*
Y77300D01*
X356016Y76006D01*
X357006Y75016D01*
X358300Y74480D01*
X359700D01*
X360994Y75016D01*
X361984Y76006D01*
X362520Y77300D01*
Y78700D01*
X361984Y79994D01*
X360994Y80984D01*
X359700Y81520D01*
D02*
G37*
G36*
X210700Y76020D02*
X209300D01*
X208006Y75484D01*
X207016Y74494D01*
X206480Y73200D01*
Y71800D01*
X207016Y70506D01*
X208006Y69516D01*
X209300Y68980D01*
X210700D01*
X211994Y69516D01*
X212984Y70506D01*
X213520Y71800D01*
Y73200D01*
X212984Y74494D01*
X211994Y75484D01*
X210700Y76020D01*
D02*
G37*
G36*
X323200Y73306D02*
X321800D01*
X320506Y72770D01*
X319516Y71779D01*
X318980Y70486D01*
Y69085D01*
X319516Y67792D01*
X320506Y66802D01*
X321800Y66266D01*
X323200D01*
X324494Y66802D01*
X325484Y67792D01*
X326020Y69085D01*
Y70486D01*
X325484Y71779D01*
X324494Y72770D01*
X323200Y73306D01*
D02*
G37*
G36*
X210700Y38520D02*
X209300D01*
X208006Y37984D01*
X207016Y36994D01*
X206480Y35700D01*
Y34300D01*
X207016Y33006D01*
X208006Y32016D01*
X209300Y31480D01*
X210700D01*
X211994Y32016D01*
X212984Y33006D01*
X213520Y34300D01*
Y35700D01*
X212984Y36994D01*
X211994Y37984D01*
X210700Y38520D01*
D02*
G37*
G36*
X170700D02*
X169300D01*
X168006Y37984D01*
X167016Y36994D01*
X166480Y35700D01*
Y34300D01*
X167016Y33006D01*
X168006Y32016D01*
X169300Y31480D01*
X170700D01*
X171994Y32016D01*
X172984Y33006D01*
X173520Y34300D01*
Y35700D01*
X172984Y36994D01*
X171994Y37984D01*
X170700Y38520D01*
D02*
G37*
G36*
X119546Y19000D02*
X117954D01*
X116484Y18391D01*
X115823Y17730D01*
X115000Y17407D01*
X114177Y17730D01*
X113516Y18391D01*
X112046Y19000D01*
X110454D01*
X108984Y18391D01*
X107859Y17266D01*
X107250Y15796D01*
Y14204D01*
X107859Y12734D01*
X108984Y11609D01*
X110454Y11000D01*
X112046D01*
X113516Y11609D01*
X114177Y12270D01*
X115000Y12593D01*
X115823Y12270D01*
X116484Y11609D01*
X117954Y11000D01*
X119546D01*
X121016Y11609D01*
X122141Y12734D01*
X122750Y14204D01*
Y15796D01*
X122141Y17266D01*
X121016Y18391D01*
X119546Y19000D01*
D02*
G37*
G36*
X89546D02*
X87954D01*
X86484Y18391D01*
X85823Y17730D01*
X85000Y17407D01*
X84177Y17730D01*
X83516Y18391D01*
X82046Y19000D01*
X80454D01*
X78984Y18391D01*
X77859Y17266D01*
X77250Y15796D01*
Y14204D01*
X77859Y12734D01*
X78984Y11609D01*
X80454Y11000D01*
X82046D01*
X83516Y11609D01*
X84177Y12270D01*
X85000Y12593D01*
X85823Y12270D01*
X86484Y11609D01*
X87954Y11000D01*
X89546D01*
X91016Y11609D01*
X92141Y12734D01*
X92750Y14204D01*
Y15796D01*
X92141Y17266D01*
X91016Y18391D01*
X89546Y19000D01*
D02*
G37*
G36*
X149546D02*
X147954D01*
X146484Y18391D01*
X145823Y17730D01*
X145000Y17407D01*
X144177Y17730D01*
X143516Y18391D01*
X142046Y19000D01*
X140454D01*
X138984Y18391D01*
X137859Y17266D01*
X137250Y15796D01*
Y14204D01*
X137859Y12734D01*
X138984Y11609D01*
X140454Y11000D01*
X142046D01*
X143516Y11609D01*
X144177Y12270D01*
X145000Y12593D01*
X145823Y12270D01*
X146484Y11609D01*
X147954Y11000D01*
X149546D01*
X151016Y11609D01*
X152141Y12734D01*
X152750Y14204D01*
Y15796D01*
X152141Y17266D01*
X151016Y18391D01*
X149546Y19000D01*
D02*
G37*
%LPD*%
D51*
X238000Y230258D02*
Y270500D01*
Y230258D02*
X290000Y178258D01*
D53*
X124600Y324600D02*
D03*
X175400D02*
D03*
Y375400D02*
D03*
X124600D02*
D03*
D54*
X150000Y350000D02*
D03*
D55*
X160000Y205000D02*
D03*
X170000Y35000D02*
D03*
X210000D02*
D03*
Y72500D02*
D03*
X136250Y90000D02*
D03*
X153750Y10000D02*
D03*
X148750Y15000D02*
D03*
X141250D02*
D03*
X136250Y10000D02*
D03*
X118750Y15000D02*
D03*
X111250D02*
D03*
X106250Y10000D02*
D03*
X123750D02*
D03*
X93750D02*
D03*
X76250D02*
D03*
X81250Y15000D02*
D03*
X88750D02*
D03*
X113750Y95000D02*
D03*
X106250D02*
D03*
X101250Y90000D02*
D03*
X118750D02*
D03*
X183750Y95000D02*
D03*
X176250D02*
D03*
X171250Y90000D02*
D03*
X188750D02*
D03*
X153750D02*
D03*
X141250Y95000D02*
D03*
X148750D02*
D03*
X82500Y217500D02*
D03*
X344999Y360000D02*
D03*
X404999D02*
D03*
X389999Y330000D02*
D03*
X404999Y300000D02*
D03*
X389999Y270000D02*
D03*
Y150000D02*
D03*
Y30000D02*
D03*
X374999Y360000D02*
D03*
Y300000D02*
D03*
X299999Y30000D02*
D03*
X284999Y60000D02*
D03*
X269999Y30000D02*
D03*
X29999Y390000D02*
D03*
Y270000D02*
D03*
Y210000D02*
D03*
Y150000D02*
D03*
X44999Y120000D02*
D03*
X29999Y90000D02*
D03*
Y30000D02*
D03*
X382500Y217500D02*
D03*
X72500Y230000D02*
D03*
X375000Y217500D02*
D03*
X390000D02*
D03*
X72500Y237500D02*
D03*
Y222500D02*
D03*
X240000Y146500D02*
D03*
X290000Y152500D02*
D03*
X302500D02*
D03*
X290000Y161742D02*
D03*
X252500Y300000D02*
D03*
X315000Y110214D02*
D03*
X322500Y69786D02*
D03*
X100000Y171000D02*
D03*
Y146000D02*
D03*
X359000Y78000D02*
D03*
X362000Y129500D02*
D03*
X290000Y178258D02*
D03*
X220000Y158500D02*
D03*
X205000Y121500D02*
D03*
X177500Y140000D02*
D03*
X187500D02*
D03*
X238000Y270500D02*
D03*
Y279500D02*
D03*
X222000Y270500D02*
D03*
Y279500D02*
D03*
X130000Y220000D02*
D03*
X110000D02*
D03*
X185000Y155000D02*
D03*
X132500Y205000D02*
D03*
X140000D02*
D03*
X110000D02*
D03*
X139000Y181000D02*
D03*
X150000D02*
D03*
X161000D02*
D03*
X139000Y170000D02*
D03*
X150000D02*
D03*
X161000D02*
D03*
X139000Y159000D02*
D03*
X150000D02*
D03*
X161000D02*
D03*
M02*
