G04*
G04 #@! TF.GenerationSoftware,Altium Limited,Altium Designer,24.4.1 (13)*
G04*
G04 Layer_Physical_Order=1*
G04 Layer_Color=255*
%FSLAX44Y44*%
%MOMM*%
G71*
G04*
G04 #@! TF.SameCoordinates,D7575A33-01EC-4171-9A11-0C774D8D2981*
G04*
G04*
G04 #@! TF.FilePolarity,Positive*
G04*
G01*
G75*
%ADD10C,0.6000*%
%ADD13C,0.5000*%
%ADD15C,0.2000*%
%ADD17C,0.2540*%
%ADD20C,0.3000*%
%ADD21R,1.1500X1.0500*%
%ADD22R,1.5000X1.5500*%
%ADD23O,0.6000X1.9500*%
%ADD24R,0.5500X0.5500*%
%ADD25R,0.5200X0.5200*%
%ADD26R,0.7565X0.8621*%
%ADD27R,0.5200X0.5200*%
%ADD28C,0.9900*%
%ADD29C,0.9698*%
%ADD30R,0.9779X0.3048*%
%ADD31R,1.5000X0.5500*%
%ADD32R,0.8000X0.5000*%
%ADD33R,0.9500X0.8000*%
%ADD34R,3.5700X3.1000*%
%ADD35R,0.5500X0.5500*%
%ADD36C,1.7397*%
%ADD37R,0.5800X1.7300*%
%ADD38R,5.7000X1.6000*%
%ADD39R,0.7000X1.0000*%
G04:AMPARAMS|DCode=40|XSize=0.2125mm|YSize=1.3552mm|CornerRadius=0.1062mm|HoleSize=0mm|Usage=FLASHONLY|Rotation=0.000|XOffset=0mm|YOffset=0mm|HoleType=Round|Shape=RoundedRectangle|*
%AMROUNDEDRECTD40*
21,1,0.2125,1.1428,0,0,0.0*
21,1,0.0000,1.3552,0,0,0.0*
1,1,0.2125,0.0000,-0.5714*
1,1,0.2125,0.0000,-0.5714*
1,1,0.2125,0.0000,0.5714*
1,1,0.2125,0.0000,0.5714*
%
%ADD40ROUNDEDRECTD40*%
G04:AMPARAMS|DCode=41|XSize=1.3552mm|YSize=0.2125mm|CornerRadius=0.1062mm|HoleSize=0mm|Usage=FLASHONLY|Rotation=0.000|XOffset=0mm|YOffset=0mm|HoleType=Round|Shape=RoundedRectangle|*
%AMROUNDEDRECTD41*
21,1,1.3552,0.0000,0,0,0.0*
21,1,1.1428,0.2125,0,0,0.0*
1,1,0.2125,0.5714,0.0000*
1,1,0.2125,-0.5714,0.0000*
1,1,0.2125,-0.5714,0.0000*
1,1,0.2125,0.5714,0.0000*
%
%ADD41ROUNDEDRECTD41*%
%ADD42R,1.3552X0.2125*%
%ADD43R,0.7500X0.8500*%
%ADD44R,0.7000X0.8500*%
%ADD45R,0.8000X0.4000*%
%ADD46R,1.0500X1.3000*%
%ADD47R,0.5750X1.1400*%
%ADD48R,0.5000X0.3500*%
%ADD49R,3.1500X1.9600*%
%ADD50C,0.7500*%
%ADD60C,2.7500*%
%ADD61R,2.7500X2.7500*%
%ADD62C,3.0000*%
%ADD64R,2.7500X2.7500*%
%ADD66C,2.7534*%
%ADD67R,2.7534X2.7534*%
%ADD68C,2.9972*%
%ADD69C,0.6000*%
%AMCUSTOMSHAPE70*
4,1,28,-1.1400,1.2250,-0.7250,1.2250,-0.7250,1.6050,-0.2950,1.6050,-0.2950,1.2250,0.8400,1.2250,0.8400,1.1750,1.1400,1.1750,1.1400,0.7750,0.8400,0.7750,0.8400,0.5250,1.1400,0.5250,1.1400,0.1250,0.8400,0.1250,0.8400,-0.1250,1.1400,-0.1250,1.1400,-0.5250,0.8400,-0.5250,0.8400,-0.7750,1.1400,-0.7750,1.1400,-1.1750,0.8400,-1.1750,0.8400,-1.2250,-0.2950,-1.2250,-0.2950,-1.6050,-0.7250,-1.6050,-0.7250,-1.2250,-1.1400,-1.2250,-1.1400,1.2250,0.0*%
%ADD70CUSTOMSHAPE70*%

%AMCUSTOMSHAPE71*
4,1,28,1.1400,-1.2250,0.7250,-1.2250,0.7250,-1.6050,0.2950,-1.6050,0.2950,-1.2250,-0.8400,-1.2250,-0.8400,-1.1750,-1.1400,-1.1750,-1.1400,-0.7750,-0.8400,-0.7750,-0.8400,-0.5250,-1.1400,-0.5250,-1.1400,-0.1250,-0.8400,-0.1250,-0.8400,0.1250,-1.1400,0.1250,-1.1400,0.5250,-0.8400,0.5250,-0.8400,0.7750,-1.1400,0.7750,-1.1400,1.1750,-0.8400,1.1750,-0.8400,1.2250,0.2950,1.2250,0.2950,1.6050,0.7250,1.6050,0.7250,1.2250,1.1400,1.2250,1.1400,-1.2250,0.0*%
%ADD71CUSTOMSHAPE71*%

%ADD72C,1.0000*%
%ADD73C,2.0000*%
%ADD74R,0.6500X2.7700*%
%ADD75C,1.5080*%
%ADD76C,0.5000*%
%ADD77C,1.2700*%
%ADD78C,1.0000*%
%ADD79C,4.0000*%
G36*
X959377Y947140D02*
X965450Y945513D01*
X971258Y943107D01*
X976703Y939964D01*
X981691Y936136D01*
X986136Y931691D01*
X989964Y926703D01*
X993107Y921258D01*
X995513Y915450D01*
X997140Y909377D01*
X997961Y903143D01*
Y900000D01*
Y50000D01*
Y46856D01*
X997140Y40623D01*
X995513Y34550D01*
X993107Y28742D01*
X989964Y23297D01*
X986136Y18309D01*
X981691Y13864D01*
X976703Y10036D01*
X971258Y6893D01*
X965450Y4487D01*
X959377Y2860D01*
X953143Y2039D01*
X46856D01*
X40623Y2860D01*
X34550Y4487D01*
X28742Y6893D01*
X23297Y10036D01*
X18309Y13864D01*
X13864Y18309D01*
X10036Y23297D01*
X6893Y28742D01*
X4487Y34550D01*
X2860Y40623D01*
X2039Y46856D01*
Y50000D01*
X2039Y900000D01*
Y903143D01*
X2860Y909377D01*
X4487Y915450D01*
X6893Y921258D01*
X10036Y926703D01*
X13864Y931691D01*
X18309Y936136D01*
X23297Y939964D01*
X28742Y943107D01*
X34550Y945513D01*
X40623Y947140D01*
X46856Y947961D01*
X50000Y947961D01*
X953143D01*
X959377Y947140D01*
D02*
G37*
%LPC*%
G36*
X122296Y899500D02*
X120704D01*
X120461Y899399D01*
X117516Y899266D01*
Y899266D01*
X110361D01*
X109796Y899500D01*
X108204D01*
X107639Y899266D01*
X100484D01*
Y891734D01*
X107639D01*
X108204Y891500D01*
X109796D01*
X110361Y891734D01*
X117516D01*
X117516Y891734D01*
X120461Y891601D01*
X120704Y891500D01*
X122296D01*
X122506Y891587D01*
X125016Y889078D01*
X123316Y886534D01*
X122546Y886853D01*
X120954D01*
X119484Y886244D01*
X118359Y885119D01*
X117750Y883649D01*
Y882058D01*
X118359Y880588D01*
X119484Y879462D01*
X120954Y878853D01*
X122546D01*
X122756Y878941D01*
X129944Y871752D01*
Y840750D01*
X129944Y840750D01*
X130101Y839963D01*
X130547Y839296D01*
X151567Y818277D01*
X150557Y817267D01*
X149948Y815797D01*
Y814206D01*
X148018Y811355D01*
X141559D01*
X136100Y816815D01*
Y827750D01*
X135778Y828528D01*
X135000Y828850D01*
X124000D01*
X123222Y828528D01*
X122900Y827750D01*
Y819250D01*
X123040Y818913D01*
X123141Y818563D01*
X127141Y813563D01*
X127198Y813532D01*
X127222Y813472D01*
X127559Y813333D01*
X127879Y813157D01*
X127940Y813175D01*
X128000Y813150D01*
X133950D01*
X136761Y810339D01*
X135518Y807339D01*
X132584D01*
X131797Y807183D01*
X131130Y806737D01*
X131130Y806737D01*
X130743Y806350D01*
X128000D01*
X127940Y806325D01*
X127879Y806343D01*
X127559Y806167D01*
X127222Y806028D01*
X127198Y805968D01*
X127141Y805937D01*
X123141Y800937D01*
X123040Y800587D01*
X122900Y800250D01*
Y793749D01*
X119900Y792507D01*
X94408Y817999D01*
X94859Y818563D01*
X94960Y818913D01*
X95100Y819250D01*
Y827750D01*
X94778Y828528D01*
X94000Y828850D01*
X83000D01*
X82222Y828528D01*
X81900Y827750D01*
Y814250D01*
X82222Y813472D01*
X83000Y813150D01*
X90000D01*
X90059Y813175D01*
X90121Y813157D01*
X90441Y813333D01*
X90778Y813472D01*
X93574Y813019D01*
X120753Y785840D01*
Y769621D01*
X118010D01*
Y758967D01*
X120753D01*
Y752866D01*
X116684D01*
Y745634D01*
X116684Y745634D01*
X116684D01*
X114850Y743507D01*
X111047Y739704D01*
X110601Y739037D01*
X110444Y738250D01*
X110445Y738250D01*
Y730516D01*
X105734D01*
Y725370D01*
X104000Y724369D01*
X102266Y725370D01*
Y730516D01*
X97555D01*
Y738500D01*
X97555Y738500D01*
X97399Y739287D01*
X96953Y739954D01*
X96953Y739954D01*
X91142Y745765D01*
Y752866D01*
X87073D01*
Y758923D01*
X89816D01*
Y763898D01*
X90152Y764123D01*
X93152Y762520D01*
Y759939D01*
X93236Y759737D01*
Y758923D01*
X94050D01*
X94252Y758840D01*
X113530D01*
X113838Y758967D01*
X114590D01*
Y759781D01*
X114674Y759983D01*
Y766655D01*
X114674Y768605D01*
X114665Y768704D01*
X114668Y768713D01*
X114590Y769621D01*
X114069D01*
X107600Y774921D01*
Y779600D01*
X107516Y779802D01*
Y780616D01*
X106702D01*
X106500Y780700D01*
X101300D01*
X101098Y780616D01*
X100284D01*
Y779802D01*
X100200Y779600D01*
Y774917D01*
X95520Y771039D01*
X92520Y772450D01*
Y781873D01*
X92520Y781874D01*
X92364Y782660D01*
X91918Y783327D01*
X91918Y783327D01*
X90555Y784689D01*
Y790650D01*
X94000D01*
X94778Y790972D01*
X95100Y791750D01*
Y800250D01*
X94960Y800587D01*
X94859Y800937D01*
X90859Y805937D01*
X90802Y805968D01*
X90778Y806028D01*
X90441Y806167D01*
X90121Y806343D01*
X90059Y806325D01*
X90000Y806350D01*
X83000D01*
X82222Y806028D01*
X81900Y805250D01*
Y791750D01*
X82222Y790972D01*
X83000Y790650D01*
X86445D01*
Y783838D01*
X86445Y783838D01*
X86601Y783052D01*
X87046Y782385D01*
X88409Y781022D01*
Y771077D01*
X86909Y769577D01*
X80219D01*
Y758923D01*
X82962D01*
Y751759D01*
X82962Y751759D01*
X83118Y750972D01*
X83564Y750305D01*
X83910Y749959D01*
Y745634D01*
X86804Y745141D01*
X86960Y744354D01*
X87406Y743687D01*
X93444Y737649D01*
Y730516D01*
X88734D01*
Y717984D01*
X99551D01*
X99750Y717944D01*
X100436D01*
Y572993D01*
X100436Y572993D01*
X100593Y572206D01*
X101039Y571539D01*
X118047Y554530D01*
X118714Y554085D01*
X119501Y553928D01*
X160249D01*
X160249Y553928D01*
X161036Y554085D01*
X161703Y554530D01*
X168961Y561789D01*
X169407Y562456D01*
X169564Y563243D01*
X169564Y563243D01*
Y579844D01*
X172563Y580139D01*
X172801Y578943D01*
X173915Y576256D01*
X175530Y573837D01*
X177587Y571781D01*
X180006Y570165D01*
X182693Y569052D01*
X185546Y568484D01*
X188454D01*
X191307Y569052D01*
X193994Y570165D01*
X196413Y571781D01*
X198470Y573837D01*
X200085Y576256D01*
X201199Y578943D01*
X201766Y581796D01*
Y584704D01*
X201199Y587557D01*
X200085Y590244D01*
X198470Y592663D01*
X196413Y594720D01*
X193994Y596335D01*
X191307Y597449D01*
X188454Y598016D01*
X185546D01*
X182693Y597449D01*
X180006Y596335D01*
X177587Y594720D01*
X175530Y592663D01*
X173915Y590244D01*
X172801Y587557D01*
X172354Y585305D01*
X168680D01*
X168680Y585305D01*
X167893Y585149D01*
X167226Y584703D01*
X164444Y584924D01*
X164107Y585149D01*
X163320Y585305D01*
X163320Y585305D01*
X159766D01*
Y598016D01*
X130234D01*
Y568484D01*
X159766D01*
Y568484D01*
X161517Y567962D01*
X161944Y564851D01*
X158149Y561055D01*
X121601D01*
X107563Y575093D01*
Y715070D01*
X108250Y717944D01*
X108449Y717984D01*
X119266D01*
Y730516D01*
X114556D01*
Y737399D01*
X120632Y743475D01*
X120632Y743475D01*
X121078Y744142D01*
X121234Y744929D01*
Y745634D01*
X123916D01*
Y749959D01*
X124262Y750305D01*
X124708Y750972D01*
X124864Y751759D01*
X124864Y751759D01*
Y758967D01*
X127607D01*
Y769621D01*
X124864D01*
Y786691D01*
X124864Y786691D01*
X124708Y787478D01*
X124560Y787699D01*
X125077Y789320D01*
X125999Y790650D01*
X135000D01*
X135778Y790972D01*
X136100Y791750D01*
Y803228D01*
X148253D01*
X152444Y799038D01*
X152444Y799038D01*
X153111Y798592D01*
X153897Y798436D01*
X162112D01*
Y792458D01*
X171016D01*
X176004Y787470D01*
Y780766D01*
X174293D01*
Y773234D01*
X182559Y773234D01*
X184825Y773234D01*
X190825D01*
Y774945D01*
X276399D01*
X312093Y739250D01*
X310851Y736250D01*
X310704D01*
X309234Y735641D01*
X308109Y734516D01*
X307500Y733046D01*
Y731454D01*
X308109Y729984D01*
X309234Y728859D01*
X310704Y728250D01*
X312296D01*
X313195Y725478D01*
Y722609D01*
X312555Y721955D01*
X310250Y720588D01*
X309675Y720473D01*
X309338Y720415D01*
X307750Y720236D01*
X306162Y720415D01*
X305825Y720473D01*
X305250Y720588D01*
X304675Y720473D01*
X304338Y720415D01*
X302750Y720236D01*
X301162Y720415D01*
X300825Y720473D01*
X300250Y720588D01*
X299675Y720473D01*
X299338Y720415D01*
X297750Y720236D01*
X296162Y720415D01*
X295825Y720473D01*
X295250Y720588D01*
X292945Y721955D01*
X292306Y722609D01*
Y746522D01*
X292516Y746609D01*
X293641Y747734D01*
X294250Y749204D01*
Y750796D01*
X293641Y752266D01*
X292516Y753391D01*
X291046Y754000D01*
X289454D01*
X287984Y753391D01*
X286859Y752266D01*
X286250Y750796D01*
Y749204D01*
X286859Y747734D01*
X287984Y746609D01*
X288195Y746522D01*
Y722609D01*
X287555Y721955D01*
X285250Y720588D01*
X284675Y720473D01*
X284338Y720415D01*
X282750Y720236D01*
X281162Y720415D01*
X280825Y720473D01*
X280250Y720588D01*
X279675Y720473D01*
X279338Y720415D01*
X277750Y720236D01*
X276162Y720415D01*
X275825Y720473D01*
X275250Y720588D01*
X274675Y720473D01*
X274338Y720415D01*
X272750Y720236D01*
X271162Y720415D01*
X270825Y720473D01*
X270250Y720588D01*
X269439Y720426D01*
X268752Y719967D01*
X268292Y719280D01*
X268131Y718469D01*
Y707041D01*
X268292Y706230D01*
X268752Y705543D01*
X269439Y705083D01*
X270250Y704922D01*
X270825Y705036D01*
X271162Y705095D01*
X272750Y705274D01*
X274338Y705095D01*
X274675Y705036D01*
X275250Y704922D01*
X275825Y705036D01*
X276162Y705095D01*
X277750Y705274D01*
X279338Y705095D01*
X279675Y705036D01*
X280250Y704922D01*
X280825Y705036D01*
X281162Y705095D01*
X282750Y705274D01*
X284338Y705095D01*
X284675Y705036D01*
X285250Y704922D01*
X285825Y705036D01*
X286162Y705095D01*
X287750Y705274D01*
X289338Y705095D01*
X289675Y705036D01*
X290250Y704922D01*
X290825Y705036D01*
X291162Y705095D01*
X292750Y705274D01*
X294338Y705095D01*
X294675Y705036D01*
X295250Y704922D01*
X295825Y705036D01*
X296162Y705095D01*
X297750Y705274D01*
X299338Y705095D01*
X299675Y705036D01*
X300250Y704922D01*
X300825Y705036D01*
X301162Y705095D01*
X302750Y705274D01*
X304338Y705095D01*
X304675Y705036D01*
X305250Y704922D01*
X305825Y705036D01*
X306162Y705095D01*
X307750Y705274D01*
X309338Y705095D01*
X309675Y705036D01*
X310250Y704922D01*
X310825Y705036D01*
X311162Y705095D01*
X312750Y705274D01*
X314338Y705095D01*
X314675Y705036D01*
X315250Y704922D01*
X315825Y705036D01*
X316162Y705095D01*
X317750Y705274D01*
X319338Y705095D01*
X319675Y705036D01*
X320250Y704922D01*
X320825Y705036D01*
X321162Y705095D01*
X322750Y705274D01*
X324338Y705095D01*
X324675Y705036D01*
X325250Y704922D01*
X325825Y705036D01*
X326162Y705095D01*
X327750Y705274D01*
X329338Y705095D01*
X329675Y705036D01*
X330250Y704922D01*
X331061Y705083D01*
X331955Y705543D01*
X333545D01*
X334439Y705083D01*
X335250Y704922D01*
X335825Y705036D01*
X336162Y705095D01*
X337750Y705274D01*
X339338Y705095D01*
X339675Y705036D01*
X340250Y704922D01*
X340825Y705036D01*
X341162Y705095D01*
X342750Y705274D01*
X344338Y705095D01*
X344675Y705036D01*
X345250Y704922D01*
X345825Y705036D01*
X346162Y705095D01*
X347750Y705274D01*
X349338Y705095D01*
X349675Y705036D01*
X350250Y704922D01*
X351061Y705083D01*
X351955Y705543D01*
X353545D01*
X354439Y705083D01*
X355250Y704922D01*
X357555Y703555D01*
X358195Y702901D01*
Y699228D01*
X357984Y699141D01*
X356859Y698016D01*
X356250Y696546D01*
Y694954D01*
X356337Y694744D01*
X328546Y666954D01*
X328101Y666287D01*
X327944Y665500D01*
X327944Y665500D01*
Y643978D01*
X327734Y643891D01*
X326609Y642766D01*
X326000Y641296D01*
Y639704D01*
X326609Y638234D01*
X327734Y637109D01*
X329204Y636500D01*
X330796D01*
X332266Y637109D01*
X333391Y638234D01*
X334000Y639704D01*
Y640228D01*
X334085Y641376D01*
X335796Y643000D01*
X337266Y643609D01*
X338391Y644734D01*
X339000Y646204D01*
Y646728D01*
X339085Y647876D01*
X340796Y649500D01*
X342266Y650109D01*
X343391Y651234D01*
X344000Y652704D01*
Y654296D01*
X343391Y655766D01*
X342266Y656891D01*
X342056Y656978D01*
Y659899D01*
X370195Y688037D01*
X373195Y686795D01*
Y677851D01*
X370506Y675163D01*
X370296Y675250D01*
X368704D01*
X367234Y674641D01*
X366109Y673516D01*
X365500Y672046D01*
Y670454D01*
X366109Y668984D01*
X367234Y667859D01*
X368704Y667250D01*
X370296D01*
X371766Y667859D01*
X372891Y668984D01*
X373500Y670454D01*
Y672046D01*
X373413Y672256D01*
X376703Y675547D01*
X377149Y676213D01*
X377305Y677000D01*
X377305Y677000D01*
Y702901D01*
X377850Y703458D01*
X380471Y704696D01*
X382271Y702852D01*
X382444Y702533D01*
Y686729D01*
X382444Y686729D01*
X382601Y685942D01*
X383046Y685275D01*
X387248Y681074D01*
X387884Y680013D01*
X388274Y678099D01*
X388190Y677092D01*
X388172Y677000D01*
X388286Y676425D01*
X388345Y676088D01*
X388523Y674500D01*
X388345Y672912D01*
X388286Y672575D01*
X388172Y672000D01*
X388286Y671425D01*
X388345Y671088D01*
X388523Y669500D01*
X388345Y667912D01*
X388286Y667575D01*
X388172Y667000D01*
X388286Y666425D01*
X388345Y666088D01*
X388523Y664500D01*
X388345Y662912D01*
X388286Y662575D01*
X388172Y662000D01*
X388286Y661425D01*
X388345Y661088D01*
X388523Y659500D01*
X388345Y657912D01*
X388286Y657575D01*
X388172Y657000D01*
X388286Y656425D01*
X388345Y656088D01*
X388523Y654500D01*
X388345Y652912D01*
X388286Y652575D01*
X388172Y652000D01*
X388286Y651425D01*
X388345Y651088D01*
X388523Y649500D01*
X388345Y647912D01*
X388286Y647575D01*
X388172Y647000D01*
X388286Y646425D01*
X388345Y646088D01*
X388523Y644500D01*
X388345Y642912D01*
X388286Y642575D01*
X388172Y642000D01*
X388286Y641425D01*
X388345Y641088D01*
X388523Y639500D01*
X388345Y637912D01*
X388286Y637575D01*
X388172Y637000D01*
X388286Y636425D01*
X388345Y636088D01*
X388523Y634500D01*
X388345Y632912D01*
X388286Y632575D01*
X388172Y632000D01*
X388286Y631425D01*
X388345Y631088D01*
X388523Y629500D01*
X388345Y627912D01*
X388286Y627575D01*
X388172Y627000D01*
X388286Y626425D01*
X388345Y626088D01*
X388523Y624500D01*
X388345Y622912D01*
X388286Y622575D01*
X388172Y622000D01*
X388286Y621425D01*
X388345Y621088D01*
X388523Y619500D01*
X388345Y617912D01*
X388286Y617575D01*
X388172Y617000D01*
X388286Y616425D01*
X388345Y616088D01*
X388523Y614500D01*
X388345Y612912D01*
X388286Y612575D01*
X388172Y612000D01*
X388286Y611425D01*
X388345Y611088D01*
X388523Y609500D01*
X388345Y607912D01*
X388286Y607575D01*
X388172Y607000D01*
X388286Y606425D01*
X388345Y606088D01*
X388523Y604500D01*
X388345Y602912D01*
X388286Y602575D01*
X388172Y602000D01*
X388286Y601425D01*
X388345Y601088D01*
X388523Y599500D01*
X388345Y597912D01*
X388286Y597575D01*
X388172Y597000D01*
X388333Y596189D01*
X388793Y595295D01*
Y593705D01*
X388333Y592811D01*
X388172Y592000D01*
X388333Y591189D01*
X388793Y590295D01*
Y588705D01*
X388333Y587811D01*
X388172Y587000D01*
X388333Y586189D01*
X388793Y585295D01*
Y583705D01*
X388333Y582811D01*
X388172Y582000D01*
X388333Y581189D01*
X388793Y580295D01*
Y578705D01*
X388333Y577811D01*
X388172Y577000D01*
X388333Y576189D01*
X388793Y575502D01*
X389480Y575042D01*
X390291Y574881D01*
X401719D01*
X402038Y574944D01*
X411522D01*
X411609Y574734D01*
X412734Y573609D01*
X414204Y573000D01*
X415796D01*
X417266Y573609D01*
X418391Y574734D01*
X419000Y576204D01*
X419184Y577817D01*
X420796Y578000D01*
X422266Y578609D01*
X423391Y579734D01*
X424000Y581204D01*
X424184Y582817D01*
X425796Y583000D01*
X427266Y583609D01*
X428391Y584734D01*
X429000Y586204D01*
X429184Y587817D01*
X430796Y588000D01*
X432266Y588609D01*
X433391Y589734D01*
X434000Y591204D01*
Y592796D01*
X436357Y594944D01*
X439649D01*
X534194Y500399D01*
Y468766D01*
X530484D01*
Y458734D01*
X541984D01*
X542016Y458734D01*
X544984Y458657D01*
X544984Y457234D01*
Y455343D01*
X542016Y455266D01*
X541984Y455266D01*
X530484D01*
Y445234D01*
X530484D01*
X532034Y442915D01*
X532201Y442234D01*
X531955Y441000D01*
Y427500D01*
X532152Y426510D01*
X529059Y423417D01*
X526915Y425176D01*
X527082Y425757D01*
X527133Y425933D01*
X527199Y426263D01*
X527445Y427500D01*
Y431245D01*
X527606Y431407D01*
X528370Y433252D01*
Y435249D01*
X527606Y437094D01*
X527445Y437255D01*
Y441000D01*
X527133Y442567D01*
X526245Y443896D01*
X524917Y444783D01*
X523350Y445095D01*
X521783Y444783D01*
X520455Y443896D01*
X519567Y442567D01*
X519255Y441000D01*
Y437255D01*
X519094Y437094D01*
X518330Y435249D01*
Y433252D01*
X519094Y431407D01*
X519255Y431245D01*
Y427500D01*
X519567Y425933D01*
X520455Y424605D01*
X521783Y423717D01*
X523350Y423405D01*
X524493Y423633D01*
X524917Y423717D01*
X525112Y423773D01*
X525674Y423935D01*
X527434Y421791D01*
X511210Y405567D01*
X507766D01*
Y407016D01*
X504715D01*
X503545Y407500D01*
X501954D01*
X500784Y407016D01*
X497734D01*
X497734Y398016D01*
X497734Y396984D01*
Y390984D01*
X500786D01*
X501954Y390500D01*
X503545D01*
X504714Y390984D01*
X507766D01*
X507766Y399335D01*
X509887Y401456D01*
X512062D01*
X512062Y401456D01*
X512848Y401613D01*
X513515Y402058D01*
X535059Y423603D01*
X536050Y423405D01*
X537617Y423717D01*
X538945Y424605D01*
X539833Y425933D01*
X540145Y427500D01*
Y441000D01*
X539899Y442234D01*
X540063Y442903D01*
X541659Y445234D01*
X542016D01*
Y448710D01*
X545016Y450214D01*
X546642Y449000D01*
X546695Y448930D01*
Y444457D01*
X545855Y443896D01*
X544967Y442567D01*
X544655Y441000D01*
Y427500D01*
X544967Y425933D01*
X545855Y424605D01*
X546527Y424156D01*
X546673Y421652D01*
X546484Y420891D01*
X545359Y419766D01*
X544750Y418296D01*
Y416704D01*
X545359Y415234D01*
X546484Y414109D01*
X547954Y413500D01*
X549546D01*
X551016Y414109D01*
X552141Y415234D01*
X552750Y416704D01*
Y418296D01*
X552141Y419766D01*
X551016Y420891D01*
X550828Y421652D01*
X550973Y424156D01*
X551645Y424605D01*
X552533Y425933D01*
X552845Y427500D01*
Y441000D01*
X552533Y442567D01*
X551645Y443896D01*
X550806Y444457D01*
Y448930D01*
X550859Y449001D01*
X552484Y450214D01*
X555484Y448709D01*
Y445234D01*
X555841D01*
X557437Y442903D01*
X557601Y442234D01*
X557355Y441000D01*
Y427500D01*
X557667Y425933D01*
X558555Y424605D01*
X559394Y424044D01*
Y416051D01*
X511149Y367806D01*
X507766D01*
Y369266D01*
X504715D01*
X503546Y369750D01*
X501955D01*
X500786Y369266D01*
X497734D01*
X497734Y360266D01*
X497734Y359234D01*
Y353234D01*
X498248D01*
X499689Y350514D01*
X499608Y350234D01*
X498072Y349348D01*
X496653Y347929D01*
X495650Y346191D01*
X495130Y344253D01*
Y342247D01*
X495650Y340309D01*
X496653Y338571D01*
X498072Y337153D01*
X499809Y336149D01*
X501747Y335630D01*
X503754D01*
X505692Y336149D01*
X507366Y337116D01*
X519255D01*
Y336500D01*
X519567Y334933D01*
X520455Y333605D01*
X521783Y332717D01*
X523350Y332406D01*
X524917Y332717D01*
X526245Y333605D01*
X527133Y334933D01*
X527445Y336500D01*
Y337116D01*
X531955D01*
Y336500D01*
X532267Y334933D01*
X533155Y333605D01*
X534483Y332717D01*
X536050Y332406D01*
X537617Y332717D01*
X538945Y333605D01*
X539833Y334933D01*
X540145Y336500D01*
Y338708D01*
X540290Y338848D01*
X540387Y338913D01*
X540441Y338993D01*
X541655Y340162D01*
X544655Y339248D01*
Y332346D01*
X515075Y302766D01*
X483134D01*
Y269734D01*
X486709D01*
X487734Y268709D01*
X489204Y268100D01*
X490796D01*
X492266Y268709D01*
X493290Y269734D01*
X520866D01*
Y296975D01*
X551645Y327755D01*
X552533Y329083D01*
X552845Y330650D01*
Y343250D01*
Y350000D01*
X552533Y351567D01*
X551645Y352896D01*
X550317Y353783D01*
X548750Y354095D01*
X547183Y353783D01*
X545855Y352896D01*
X544967Y351567D01*
X544655Y350000D01*
Y347252D01*
X541655Y346338D01*
X540441Y347507D01*
X540387Y347587D01*
X540290Y347653D01*
X540145Y347792D01*
Y350000D01*
X539833Y351567D01*
X538945Y352896D01*
X537617Y353783D01*
X536050Y354095D01*
X534483Y353783D01*
X533155Y352896D01*
X532267Y351567D01*
X531955Y350000D01*
Y349384D01*
X527445D01*
Y350000D01*
X527133Y351567D01*
X526245Y352896D01*
X524917Y353783D01*
X523350Y354095D01*
X521783Y353783D01*
X520455Y352896D01*
X519567Y351567D01*
X519255Y350000D01*
Y349384D01*
X508302D01*
X507550Y350234D01*
X507766Y353234D01*
X507766D01*
X507766Y361573D01*
X509887Y363695D01*
X512000D01*
X512000Y363695D01*
X512787Y363851D01*
X513454Y364297D01*
X542000Y392843D01*
X542965Y392799D01*
X545323Y391924D01*
X545609Y391234D01*
X546734Y390109D01*
X548204Y389500D01*
X549796D01*
X551266Y390109D01*
X552391Y391234D01*
X553000Y392704D01*
Y394296D01*
X552391Y395766D01*
X551266Y396891D01*
X550576Y397177D01*
X549701Y399535D01*
X549657Y400500D01*
X562903Y413746D01*
X562904Y413746D01*
X563349Y414413D01*
X563506Y415200D01*
X563506Y415200D01*
Y424044D01*
X564345Y424605D01*
X565233Y425933D01*
X565545Y427500D01*
Y441000D01*
X565299Y442234D01*
X565466Y442915D01*
X567016Y445234D01*
X567016D01*
Y455266D01*
X555516D01*
X555484Y455266D01*
X552516Y455344D01*
X552516Y458656D01*
X555484Y458734D01*
X555516Y458734D01*
X567016D01*
Y468766D01*
X563306D01*
Y489545D01*
X566306Y490788D01*
X584944Y472149D01*
Y468766D01*
X581234D01*
Y458734D01*
X592734D01*
X592766Y458734D01*
X595734Y458657D01*
X595734Y457234D01*
Y455343D01*
X592766Y455266D01*
X592734Y455266D01*
X581234D01*
Y445234D01*
X581241D01*
X582837Y442903D01*
X583001Y442234D01*
X582755Y441000D01*
Y427500D01*
X583067Y425933D01*
X583955Y424605D01*
X584795Y424044D01*
Y370400D01*
X584795Y370400D01*
X584951Y369613D01*
X585397Y368946D01*
X597581Y356762D01*
X597689Y355960D01*
X597374Y353732D01*
X597086Y353184D01*
X596655Y352896D01*
X595767Y351567D01*
X595455Y350000D01*
Y343250D01*
Y336500D01*
Y302766D01*
X587884D01*
Y269734D01*
X619825D01*
X620905Y268654D01*
Y255250D01*
X621000Y254774D01*
Y254454D01*
X621122Y254159D01*
X621217Y253683D01*
X621487Y253279D01*
X621609Y252984D01*
X621835Y252758D01*
X622104Y252354D01*
X622508Y252085D01*
X622734Y251859D01*
X623029Y251737D01*
X623433Y251467D01*
X623909Y251372D01*
X624204Y251250D01*
X624524D01*
X625000Y251155D01*
X625476Y251250D01*
X625796D01*
X626091Y251372D01*
X626567Y251467D01*
X626970Y251737D01*
X627266Y251859D01*
X627492Y252085D01*
X627895Y252354D01*
X628165Y252758D01*
X628391Y252984D01*
X628513Y253279D01*
X628783Y253683D01*
X628877Y254159D01*
X629000Y254454D01*
Y254774D01*
X629095Y255250D01*
Y270350D01*
X628783Y271917D01*
X627895Y273246D01*
X625616Y275525D01*
Y302766D01*
X603645D01*
Y343250D01*
Y350000D01*
X603333Y351567D01*
X602876Y352252D01*
X603654Y354515D01*
X604204Y355252D01*
X607596D01*
X608146Y354515D01*
X608924Y352252D01*
X608467Y351567D01*
X608155Y350000D01*
Y343250D01*
Y331150D01*
X608467Y329583D01*
X609355Y328255D01*
X640634Y296975D01*
Y269734D01*
X667736D01*
X668109Y268834D01*
X669234Y267709D01*
X670704Y267100D01*
X672296D01*
X673766Y267709D01*
X674891Y268834D01*
X675264Y269734D01*
X678366D01*
Y302766D01*
X646425D01*
X616345Y332846D01*
Y339248D01*
X619345Y340162D01*
X620559Y338993D01*
X620613Y338913D01*
X620710Y338848D01*
X620855Y338708D01*
Y336500D01*
X621167Y334933D01*
X622055Y333605D01*
X623383Y332717D01*
X624950Y332406D01*
X626517Y332717D01*
X627845Y333605D01*
X628733Y334933D01*
X629045Y336500D01*
Y337116D01*
X633555D01*
Y336500D01*
X633867Y334933D01*
X634755Y333605D01*
X636083Y332717D01*
X637650Y332406D01*
X639217Y332717D01*
X640545Y333605D01*
X641433Y334933D01*
X641745Y336500D01*
Y337116D01*
X650514D01*
X652189Y336149D01*
X654127Y335630D01*
X656133D01*
X658071Y336149D01*
X659809Y337153D01*
X661227Y338571D01*
X662231Y340309D01*
X662750Y342247D01*
Y344253D01*
X662231Y346191D01*
X661227Y347929D01*
X659809Y349348D01*
X658875Y349887D01*
X658799Y350549D01*
X659153Y352982D01*
X659163Y353006D01*
X659714Y353234D01*
X662766D01*
X662766Y362234D01*
X662766Y363266D01*
Y369266D01*
X659714D01*
X658546Y369750D01*
X656954D01*
X655786Y369266D01*
X652734D01*
Y363266D01*
X652734Y362234D01*
X652424Y359363D01*
X600794D01*
X588905Y371251D01*
Y391768D01*
X589337Y392026D01*
X591906Y392688D01*
X592484Y392109D01*
X593954Y391500D01*
X595546D01*
X597016Y392109D01*
X598141Y393234D01*
X598750Y394704D01*
Y396296D01*
X598141Y397766D01*
X597016Y398891D01*
X595546Y399500D01*
X593954D01*
X592484Y398891D01*
X591906Y398312D01*
X589337Y398974D01*
X588905Y399232D01*
Y424044D01*
X589745Y424605D01*
X590633Y425933D01*
X590945Y427500D01*
Y441000D01*
X590699Y442234D01*
X590863Y442903D01*
X592459Y445234D01*
X592766D01*
Y448729D01*
X595766Y450238D01*
X597414Y449014D01*
X597469Y448940D01*
Y444440D01*
X596655Y443896D01*
X595767Y442567D01*
X595455Y441000D01*
Y427500D01*
X595767Y425933D01*
X596655Y424605D01*
X597327Y424156D01*
X597472Y421652D01*
X597284Y420891D01*
X596159Y419766D01*
X595550Y418296D01*
Y416704D01*
X596159Y415234D01*
X597284Y414109D01*
X598754Y413500D01*
X600346D01*
X601816Y414109D01*
X602941Y415234D01*
X603550Y416704D01*
Y418296D01*
X602941Y419766D01*
X601816Y420891D01*
X601628Y421652D01*
X601773Y424156D01*
X602445Y424605D01*
X603333Y425933D01*
X603645Y427500D01*
Y441000D01*
X603333Y442567D01*
X602445Y443896D01*
X601581Y444473D01*
Y448919D01*
X601630Y448987D01*
X603234Y450190D01*
X606234Y448690D01*
Y445234D01*
X606641D01*
X608237Y442903D01*
X608401Y442234D01*
X608155Y441000D01*
Y427500D01*
X608467Y425933D01*
X609355Y424605D01*
X610683Y423717D01*
X612250Y423405D01*
X613241Y423603D01*
X643797Y393046D01*
X644464Y392601D01*
X645250Y392444D01*
X645250Y392444D01*
X652734D01*
Y390984D01*
X655786D01*
X656954Y390500D01*
X658546D01*
X659714Y390984D01*
X662766D01*
X662766Y399984D01*
X662766Y401016D01*
Y407016D01*
X659715D01*
X658546Y407500D01*
X656954D01*
X655785Y407016D01*
X652734D01*
X652734Y398677D01*
X650613Y396555D01*
X646102D01*
X616148Y426510D01*
X616345Y427500D01*
Y441000D01*
X616099Y442234D01*
X616253Y442861D01*
X617766Y445234D01*
X617766Y445234D01*
X617766Y445234D01*
Y455266D01*
X606266D01*
X606234Y455266D01*
X603266Y455343D01*
X603266Y458657D01*
X606234Y458734D01*
X606266Y458734D01*
X617766D01*
Y468766D01*
X609141D01*
X606713Y471194D01*
X607955Y474194D01*
X697920D01*
X700150Y471194D01*
X699984Y470266D01*
X699984Y468191D01*
Y459734D01*
X709516D01*
Y467984D01*
X709516Y470266D01*
X709516Y472925D01*
Y481516D01*
X700484D01*
Y478305D01*
X607102D01*
X490462Y594944D01*
X491705Y597944D01*
X551522D01*
X551609Y597734D01*
X552734Y596609D01*
X554204Y596000D01*
X555796D01*
X557266Y596609D01*
X558391Y597734D01*
X559000Y599204D01*
Y600796D01*
X558391Y602266D01*
X557266Y603391D01*
X555796Y604000D01*
X554204D01*
X552734Y603391D01*
X551609Y602266D01*
X551522Y602056D01*
X490601D01*
X459203Y633453D01*
X458537Y633899D01*
X457750Y634056D01*
X457750Y634055D01*
X428455D01*
X427212Y637056D01*
X518101Y727944D01*
X747000D01*
X747000Y727944D01*
X747787Y728101D01*
X748454Y728547D01*
X771097Y751190D01*
X773006Y749915D01*
X775693Y748802D01*
X778546Y748234D01*
X781454D01*
X784307Y748802D01*
X786994Y749915D01*
X789413Y751531D01*
X791470Y753587D01*
X793086Y756006D01*
X794199Y758693D01*
X794766Y761546D01*
Y764454D01*
X794199Y767307D01*
X793086Y769995D01*
X791470Y772413D01*
X789413Y774470D01*
X786994Y776086D01*
X784307Y777199D01*
X781454Y777766D01*
X778546D01*
X775693Y777199D01*
X773006Y776086D01*
X770587Y774470D01*
X768531Y772413D01*
X766915Y769995D01*
X765802Y767307D01*
X765234Y764454D01*
Y761546D01*
X765802Y758693D01*
X766915Y756006D01*
X768190Y754097D01*
X763779Y749686D01*
X760806Y750955D01*
Y782898D01*
X771097Y793190D01*
X773006Y791915D01*
X775693Y790801D01*
X778546Y790234D01*
X781454D01*
X784307Y790801D01*
X786994Y791915D01*
X789413Y793531D01*
X791470Y795587D01*
X793086Y798006D01*
X794199Y800693D01*
X794766Y803546D01*
Y806454D01*
X794199Y809307D01*
X793086Y811994D01*
X791470Y814413D01*
X789413Y816470D01*
X786994Y818085D01*
X784307Y819199D01*
X781454Y819766D01*
X778546D01*
X775693Y819199D01*
X773006Y818085D01*
X770587Y816470D01*
X768531Y814413D01*
X766915Y811994D01*
X765802Y809307D01*
X765234Y806454D01*
Y803546D01*
X765802Y800693D01*
X766915Y798006D01*
X768190Y796097D01*
X757297Y785203D01*
X756851Y784537D01*
X756694Y783750D01*
X756694Y783750D01*
Y750601D01*
X743149Y737056D01*
X611205D01*
X609962Y740055D01*
X621097Y751190D01*
X623006Y749915D01*
X625693Y748802D01*
X628546Y748234D01*
X631454D01*
X634307Y748802D01*
X636994Y749915D01*
X639413Y751531D01*
X641469Y753587D01*
X643085Y756006D01*
X644199Y758693D01*
X644766Y761546D01*
Y764454D01*
X644199Y767307D01*
X643085Y769995D01*
X641469Y772413D01*
X639413Y774470D01*
X636994Y776086D01*
X634307Y777199D01*
X631454Y777766D01*
X628546D01*
X625693Y777199D01*
X623006Y776086D01*
X620587Y774470D01*
X618530Y772413D01*
X616914Y769995D01*
X615801Y767307D01*
X615234Y764454D01*
Y761546D01*
X615801Y758693D01*
X616914Y756006D01*
X618190Y754097D01*
X605898Y741805D01*
X541705D01*
X540462Y744806D01*
X577351Y781694D01*
X608750D01*
X608750Y781694D01*
X609536Y781851D01*
X610203Y782297D01*
X621097Y793190D01*
X623006Y791915D01*
X625693Y790801D01*
X628546Y790234D01*
X631454D01*
X634307Y790801D01*
X636994Y791915D01*
X639413Y793531D01*
X641469Y795587D01*
X643085Y798006D01*
X644199Y800693D01*
X644766Y803546D01*
Y806454D01*
X644199Y809307D01*
X643085Y811994D01*
X641469Y814413D01*
X639413Y816470D01*
X636994Y818085D01*
X634307Y819199D01*
X631454Y819766D01*
X628546D01*
X625693Y819199D01*
X623006Y818085D01*
X620587Y816470D01*
X618530Y814413D01*
X616914Y811994D01*
X615801Y809307D01*
X615234Y806454D01*
Y803546D01*
X615801Y800693D01*
X616914Y798006D01*
X618190Y796097D01*
X607898Y785806D01*
X576500D01*
X576500Y785806D01*
X575713Y785649D01*
X575047Y785203D01*
X536149Y746305D01*
X512000D01*
X512000Y746305D01*
X511213Y746149D01*
X510546Y745704D01*
X510546Y745703D01*
X485056Y720212D01*
X482056Y721455D01*
Y748354D01*
X484307Y748802D01*
X486994Y749915D01*
X489413Y751531D01*
X491470Y753587D01*
X493086Y756006D01*
X494199Y758693D01*
X494766Y761546D01*
Y764454D01*
X494199Y767307D01*
X493086Y769995D01*
X491470Y772413D01*
X489413Y774470D01*
X486994Y776086D01*
X484307Y777199D01*
X481454Y777766D01*
X478546D01*
X475693Y777199D01*
X473006Y776086D01*
X470587Y774470D01*
X468531Y772413D01*
X466915Y769995D01*
X465802Y767307D01*
X465234Y764454D01*
Y761546D01*
X465802Y758693D01*
X466915Y756006D01*
X468531Y753587D01*
X470587Y751531D01*
X473006Y749915D01*
X475693Y748802D01*
X477945Y748354D01*
Y719602D01*
X464055Y705712D01*
X461055Y706955D01*
Y783148D01*
X471097Y793190D01*
X473006Y791915D01*
X475693Y790801D01*
X478546Y790234D01*
X481454D01*
X484307Y790801D01*
X486994Y791915D01*
X489413Y793531D01*
X491470Y795587D01*
X493086Y798006D01*
X494199Y800693D01*
X494766Y803546D01*
Y806454D01*
X494199Y809307D01*
X493086Y811994D01*
X491470Y814413D01*
X489413Y816470D01*
X486994Y818085D01*
X484307Y819199D01*
X481454Y819766D01*
X478546D01*
X475693Y819199D01*
X473006Y818085D01*
X470587Y816470D01*
X468531Y814413D01*
X466915Y811994D01*
X465802Y809307D01*
X465234Y806454D01*
Y803546D01*
X465802Y800693D01*
X466915Y798006D01*
X468190Y796097D01*
X457547Y785453D01*
X457101Y784787D01*
X456945Y784000D01*
X456945Y784000D01*
Y705851D01*
X415149Y664055D01*
X405859D01*
X405205Y664695D01*
X403838Y667000D01*
X403723Y667575D01*
X403665Y667912D01*
X403486Y669500D01*
X403665Y671088D01*
X403723Y671425D01*
X403838Y672000D01*
X403723Y672575D01*
X403665Y672912D01*
X403486Y674500D01*
X403665Y676088D01*
X403723Y676425D01*
X403838Y677000D01*
X403723Y677575D01*
X403665Y677912D01*
X403486Y679500D01*
X403665Y681088D01*
X403723Y681425D01*
X403838Y682000D01*
X405606Y684063D01*
X406179Y684435D01*
X412372D01*
X413354Y684630D01*
X414186Y685186D01*
X422814Y693814D01*
X423370Y694646D01*
X423565Y695628D01*
Y713136D01*
X424405Y713975D01*
X425016Y715451D01*
Y717049D01*
X424405Y718525D01*
X423275Y719655D01*
X421799Y720266D01*
X420201D01*
X418725Y719655D01*
X417595Y718525D01*
X416984Y717049D01*
Y715451D01*
X417595Y713975D01*
X418435Y713136D01*
Y696691D01*
X411310Y689565D01*
X396005D01*
X395023Y689370D01*
X394647Y689119D01*
X390291D01*
X389556Y688973D01*
X389476Y688959D01*
X387029Y689948D01*
X386555Y690337D01*
Y693663D01*
X387029Y694052D01*
X389476Y695041D01*
X389556Y695027D01*
X390291Y694881D01*
X394647D01*
X395023Y694630D01*
X396005Y694435D01*
X396987Y694630D01*
X397362Y694881D01*
X401719D01*
X402529Y695042D01*
X403217Y695502D01*
X403676Y696189D01*
X403838Y697000D01*
X403676Y697811D01*
X403217Y698499D01*
X402529Y698958D01*
X401719Y699119D01*
X398570D01*
Y713663D01*
X399391Y714484D01*
X400000Y715954D01*
Y717546D01*
X399391Y719016D01*
X398266Y720141D01*
X396796Y720750D01*
X395204D01*
X393734Y720141D01*
X392609Y719016D01*
X392000Y717546D01*
Y715954D01*
X392609Y714484D01*
X393439Y713654D01*
Y699119D01*
X390291D01*
X389556Y698973D01*
X389476Y698959D01*
X387029Y699948D01*
X386555Y700337D01*
Y745500D01*
X386399Y746287D01*
X385953Y746954D01*
X385953Y746954D01*
X339105Y793801D01*
Y845134D01*
X341316D01*
Y874866D01*
X332784D01*
Y845134D01*
X334995D01*
Y796405D01*
X331995Y795162D01*
X326405Y800751D01*
Y845134D01*
X328616D01*
Y874866D01*
X320084D01*
Y845134D01*
X322295D01*
Y799900D01*
X322295Y799900D01*
X322451Y799113D01*
X322896Y798447D01*
X378195Y743149D01*
Y722609D01*
X377555Y721955D01*
X375250Y720588D01*
X372945Y721955D01*
X372305Y722609D01*
Y723000D01*
X372305Y723000D01*
X372149Y723787D01*
X371703Y724454D01*
X371703Y724454D01*
X258953Y837204D01*
X258287Y837649D01*
X257500Y837805D01*
X257500Y837805D01*
X182128D01*
X181341Y837649D01*
X180675Y837204D01*
X171016Y827545D01*
X162112D01*
Y826537D01*
X159112Y825295D01*
X137556Y846851D01*
Y881500D01*
X137556Y881500D01*
X137399Y882287D01*
X136953Y882953D01*
X125413Y894494D01*
X125500Y894704D01*
Y896296D01*
X124891Y897766D01*
X123766Y898891D01*
X122296Y899500D01*
D02*
G37*
G36*
X159046Y900250D02*
X157454D01*
X156889Y900016D01*
X149734D01*
Y892484D01*
X156889D01*
X157454Y892250D01*
X159046D01*
X159611Y892484D01*
X166766D01*
Y900016D01*
X159611D01*
X159046Y900250D01*
D02*
G37*
G36*
X208296Y900250D02*
X206704D01*
X206140Y900016D01*
X198984D01*
Y892484D01*
X206139D01*
X206704Y892250D01*
X208296D01*
X208861Y892484D01*
X216016D01*
Y900016D01*
X208860D01*
X208296Y900250D01*
D02*
G37*
G36*
X341316Y915166D02*
X332784D01*
Y885434D01*
X341316D01*
Y915166D01*
D02*
G37*
G36*
X303216D02*
X294684D01*
Y885434D01*
X303216D01*
Y915166D01*
D02*
G37*
G36*
X290516D02*
X281984D01*
Y885434D01*
X290516D01*
Y915166D01*
D02*
G37*
G36*
X208296Y887700D02*
X206705D01*
X205235Y887091D01*
X204109Y885966D01*
X203500Y884496D01*
Y882904D01*
X204109Y881434D01*
X205235Y880309D01*
X206705Y879700D01*
X208296D01*
X209766Y880309D01*
X210891Y881434D01*
X211500Y882904D01*
Y884496D01*
X210891Y885966D01*
X209766Y887091D01*
X208296Y887700D01*
D02*
G37*
G36*
X823724Y895500D02*
X820276D01*
X816896Y894828D01*
X813711Y893509D01*
X810844Y891593D01*
X808407Y889156D01*
X806492Y886290D01*
X805173Y883105D01*
X804500Y879724D01*
Y876277D01*
X805173Y872896D01*
X806492Y869711D01*
X808407Y866845D01*
X810844Y864407D01*
X813711Y862492D01*
X816896Y861173D01*
X820276Y860500D01*
X823724D01*
X827105Y861173D01*
X830290Y862492D01*
X833156Y864407D01*
X835593Y866845D01*
X837508Y869711D01*
X838828Y872896D01*
X839500Y876277D01*
Y879724D01*
X838828Y883105D01*
X837508Y886290D01*
X835593Y889156D01*
X833156Y891593D01*
X830290Y893509D01*
X827105Y894828D01*
X823724Y895500D01*
D02*
G37*
G36*
X739723D02*
X736276D01*
X732895Y894828D01*
X729710Y893509D01*
X726844Y891593D01*
X724407Y889156D01*
X722492Y886290D01*
X721172Y883105D01*
X720500Y879724D01*
Y876277D01*
X721172Y872896D01*
X722492Y869711D01*
X724407Y866845D01*
X726844Y864407D01*
X729710Y862492D01*
X732895Y861173D01*
X736276Y860500D01*
X739723D01*
X743104Y861173D01*
X746289Y862492D01*
X749155Y864407D01*
X751593Y866845D01*
X753508Y869711D01*
X754827Y872896D01*
X755500Y876277D01*
Y879724D01*
X754827Y883105D01*
X753508Y886290D01*
X751593Y889156D01*
X749155Y891593D01*
X746289Y893509D01*
X743104Y894828D01*
X739723Y895500D01*
D02*
G37*
G36*
X523724D02*
X520276D01*
X516895Y894828D01*
X513711Y893509D01*
X510844Y891593D01*
X508407Y889156D01*
X506492Y886290D01*
X505173Y883105D01*
X504500Y879724D01*
Y876277D01*
X505173Y872896D01*
X506492Y869711D01*
X508407Y866845D01*
X510844Y864407D01*
X513711Y862492D01*
X516895Y861173D01*
X520276Y860500D01*
X523724D01*
X527105Y861173D01*
X530289Y862492D01*
X533156Y864407D01*
X535593Y866845D01*
X537508Y869711D01*
X538828Y872896D01*
X539500Y876277D01*
Y879724D01*
X538828Y883105D01*
X537508Y886290D01*
X535593Y889156D01*
X533156Y891593D01*
X530289Y893509D01*
X527105Y894828D01*
X523724Y895500D01*
D02*
G37*
G36*
X439724D02*
X436277D01*
X432896Y894828D01*
X429711Y893509D01*
X426845Y891593D01*
X424407Y889156D01*
X422492Y886290D01*
X421173Y883105D01*
X420500Y879724D01*
Y876277D01*
X421173Y872896D01*
X422492Y869711D01*
X424407Y866845D01*
X426845Y864407D01*
X429711Y862492D01*
X432896Y861173D01*
X436277Y860500D01*
X439724D01*
X443105Y861173D01*
X446290Y862492D01*
X449156Y864407D01*
X451593Y866845D01*
X453508Y869711D01*
X454828Y872896D01*
X455500Y876277D01*
Y879724D01*
X454828Y883105D01*
X453508Y886290D01*
X451593Y889156D01*
X449156Y891593D01*
X446290Y893509D01*
X443105Y894828D01*
X439724Y895500D01*
D02*
G37*
G36*
X673723Y895500D02*
X670276D01*
X666895Y894828D01*
X663710Y893509D01*
X660844Y891593D01*
X658407Y889156D01*
X656491Y886290D01*
X655172Y883105D01*
X654500Y879724D01*
Y876277D01*
X655172Y872896D01*
X656491Y869711D01*
X658407Y866845D01*
X660844Y864407D01*
X663710Y862492D01*
X666895Y861173D01*
X670276Y860500D01*
X673723D01*
X677104Y861173D01*
X680289Y862492D01*
X683155Y864407D01*
X685593Y866845D01*
X687508Y869711D01*
X688827Y872896D01*
X689500Y876277D01*
Y879724D01*
X688827Y883105D01*
X687508Y886290D01*
X685593Y889156D01*
X683155Y891593D01*
X680289Y893509D01*
X677104Y894828D01*
X673723Y895500D01*
D02*
G37*
G36*
X589724D02*
X586276D01*
X582895Y894828D01*
X579711Y893509D01*
X576844Y891593D01*
X574407Y889156D01*
X572492Y886290D01*
X571172Y883105D01*
X570500Y879724D01*
Y876277D01*
X571172Y872896D01*
X572492Y869711D01*
X574407Y866845D01*
X576844Y864407D01*
X579711Y862492D01*
X582895Y861173D01*
X586276Y860500D01*
X589724D01*
X593105Y861173D01*
X596289Y862492D01*
X599156Y864407D01*
X601593Y866845D01*
X603508Y869711D01*
X604827Y872896D01*
X605500Y876277D01*
Y879724D01*
X604827Y883105D01*
X603508Y886290D01*
X601593Y889156D01*
X599156Y891593D01*
X596289Y893509D01*
X593105Y894828D01*
X589724Y895500D01*
D02*
G37*
G36*
X159046Y867750D02*
X157454D01*
X156889Y867516D01*
X149734D01*
Y859984D01*
X156889D01*
X157454Y859750D01*
X159046D01*
X159611Y859984D01*
X166766D01*
Y867516D01*
X159611D01*
X159046Y867750D01*
D02*
G37*
G36*
X315916Y874866D02*
X307384D01*
Y845134D01*
X315916D01*
Y874866D01*
D02*
G37*
G36*
X303216D02*
X294684D01*
Y845134D01*
X303216D01*
Y874866D01*
D02*
G37*
G36*
X290516D02*
X281984D01*
Y845134D01*
X290516D01*
Y874866D01*
D02*
G37*
G36*
X56796Y838500D02*
X55204D01*
X54036Y838016D01*
X50984D01*
X50984Y829016D01*
X50984Y827984D01*
Y821984D01*
X54036D01*
X55204Y821500D01*
X56796D01*
X57964Y821984D01*
X61016D01*
X61016Y830984D01*
X61016Y832016D01*
Y838016D01*
X57964D01*
X56796Y838500D01*
D02*
G37*
G36*
X40796D02*
X39204D01*
X38036Y838016D01*
X34984D01*
X34984Y829016D01*
X34984Y827984D01*
Y821984D01*
X38036D01*
X39204Y821500D01*
X40796D01*
X41964Y821984D01*
X45016D01*
X45016Y830984D01*
X45016Y832016D01*
Y838016D01*
X41964D01*
X40796Y838500D01*
D02*
G37*
G36*
X355799Y819016D02*
X354201D01*
X352725Y818405D01*
X351595Y817275D01*
X350984Y815799D01*
Y814201D01*
X351595Y812725D01*
X352725Y811595D01*
X354201Y810984D01*
X355799D01*
X357275Y811595D01*
X358405Y812725D01*
X359016Y814201D01*
Y815799D01*
X358405Y817275D01*
X357275Y818405D01*
X355799Y819016D01*
D02*
G37*
G36*
Y807766D02*
X354201D01*
X352725Y807155D01*
X351595Y806025D01*
X350984Y804549D01*
Y802951D01*
X351595Y801475D01*
X352725Y800345D01*
X354201Y799734D01*
X355799D01*
X357275Y800345D01*
X358405Y801475D01*
X359016Y802951D01*
Y804549D01*
X358405Y806025D01*
X357275Y807155D01*
X355799Y807766D01*
D02*
G37*
G36*
X823454Y819766D02*
X820546D01*
X817693Y819199D01*
X815006Y818085D01*
X812587Y816470D01*
X810531Y814413D01*
X808915Y811994D01*
X807802Y809307D01*
X807234Y806454D01*
Y803546D01*
X807802Y800693D01*
X808915Y798006D01*
X810531Y795587D01*
X812587Y793531D01*
X815006Y791915D01*
X817693Y790801D01*
X820546Y790234D01*
X823454D01*
X826307Y790801D01*
X828994Y791915D01*
X831413Y793531D01*
X833470Y795587D01*
X835086Y798006D01*
X836199Y800693D01*
X836766Y803546D01*
Y806454D01*
X836199Y809307D01*
X835086Y811994D01*
X833470Y814413D01*
X831413Y816470D01*
X828994Y818085D01*
X826307Y819199D01*
X823454Y819766D01*
D02*
G37*
G36*
X752766D02*
X723234D01*
Y790234D01*
X752766D01*
Y819766D01*
D02*
G37*
G36*
X523454D02*
X520546D01*
X517693Y819199D01*
X515006Y818085D01*
X512587Y816470D01*
X510531Y814413D01*
X508915Y811994D01*
X507802Y809307D01*
X507234Y806454D01*
Y803546D01*
X507802Y800693D01*
X508915Y798006D01*
X510531Y795587D01*
X512587Y793531D01*
X515006Y791915D01*
X517693Y790801D01*
X520546Y790234D01*
X523454D01*
X526307Y790801D01*
X528994Y791915D01*
X531413Y793531D01*
X533470Y795587D01*
X535085Y798006D01*
X536199Y800693D01*
X536766Y803546D01*
Y806454D01*
X536199Y809307D01*
X535085Y811994D01*
X533470Y814413D01*
X531413Y816470D01*
X528994Y818085D01*
X526307Y819199D01*
X523454Y819766D01*
D02*
G37*
G36*
X452766D02*
X423234D01*
Y790234D01*
X452766D01*
Y819766D01*
D02*
G37*
G36*
X673454Y819766D02*
X670546D01*
X667693Y819199D01*
X665005Y818085D01*
X662587Y816470D01*
X660530Y814413D01*
X658914Y811994D01*
X657801Y809307D01*
X657234Y806454D01*
Y803546D01*
X657801Y800693D01*
X658914Y798006D01*
X660530Y795587D01*
X662587Y793531D01*
X665005Y791915D01*
X667693Y790801D01*
X670546Y790234D01*
X673454D01*
X676307Y790801D01*
X678994Y791915D01*
X681413Y793531D01*
X683469Y795587D01*
X685085Y798006D01*
X686198Y800693D01*
X686766Y803546D01*
Y806454D01*
X686198Y809307D01*
X685085Y811994D01*
X683469Y814413D01*
X681413Y816470D01*
X678994Y818085D01*
X676307Y819199D01*
X673454Y819766D01*
D02*
G37*
G36*
X602766D02*
X573234D01*
Y790234D01*
X602766D01*
Y819766D01*
D02*
G37*
G36*
X56796Y798250D02*
X55204D01*
X54036Y797766D01*
X50984D01*
X50984Y788766D01*
X50984Y787734D01*
Y781734D01*
X54036D01*
X55204Y781250D01*
X56796D01*
X57964Y781734D01*
X61016D01*
X61016Y790734D01*
X61016Y791766D01*
Y797766D01*
X57964D01*
X56796Y798250D01*
D02*
G37*
G36*
X40795D02*
X39204D01*
X38036Y797766D01*
X34984D01*
X34984Y788766D01*
X34984Y787734D01*
Y781734D01*
X38036D01*
X39204Y781250D01*
X40795D01*
X41964Y781734D01*
X45016D01*
X45016Y790734D01*
X45016Y791766D01*
Y797766D01*
X41964D01*
X40795Y798250D01*
D02*
G37*
G36*
X56796Y759000D02*
X55204D01*
X54036Y758516D01*
X50984D01*
X50984Y749516D01*
X50984Y748484D01*
Y742484D01*
X54036D01*
X55204Y742000D01*
X56796D01*
X57964Y742484D01*
X61016D01*
X61016Y751484D01*
X61016Y752516D01*
Y758516D01*
X57964D01*
X56796Y759000D01*
D02*
G37*
G36*
X40796D02*
X39204D01*
X38036Y758516D01*
X34984D01*
X34984Y749516D01*
X34984Y748484D01*
Y742484D01*
X38036D01*
X39204Y742000D01*
X40796D01*
X41964Y742484D01*
X45016D01*
X45016Y751484D01*
X45016Y752516D01*
Y758516D01*
X41964D01*
X40796Y759000D01*
D02*
G37*
G36*
X868329Y725822D02*
X799444D01*
X799403Y725805D01*
X799362Y725819D01*
X798285Y725738D01*
X797988D01*
X797808Y725703D01*
X746418Y721852D01*
X746258Y721771D01*
X745484D01*
Y720957D01*
X745400Y720755D01*
Y701155D01*
X745484Y700953D01*
Y700139D01*
X746258D01*
X746418Y700059D01*
X797808Y696208D01*
X797988Y696172D01*
X798285D01*
X799362Y696092D01*
X799403Y696105D01*
X799444Y696088D01*
X868329D01*
X868531Y696172D01*
X869345D01*
Y696986D01*
X869428Y697188D01*
Y724722D01*
X869345Y724924D01*
Y725738D01*
X868531D01*
X868329Y725822D01*
D02*
G37*
G36*
X260250Y720588D02*
X259439Y720426D01*
X258752Y719967D01*
X258292Y719280D01*
X258131Y718469D01*
Y714112D01*
X257880Y713736D01*
X257685Y712755D01*
Y697541D01*
X257759Y697170D01*
X257500Y696546D01*
Y694954D01*
X258109Y693484D01*
X259234Y692359D01*
X260704Y691750D01*
X262296D01*
X263766Y692359D01*
X264891Y693484D01*
X265500Y694954D01*
Y696546D01*
X264891Y698016D01*
X263766Y699141D01*
X262815Y699535D01*
Y712755D01*
X262815Y712755D01*
X262620Y713736D01*
X262369Y714112D01*
Y718469D01*
X262208Y719280D01*
X261748Y719967D01*
X261061Y720426D01*
X260250Y720588D01*
D02*
G37*
G36*
X724150Y723400D02*
X719850D01*
X719072Y723078D01*
X718750Y722300D01*
Y719755D01*
X716237D01*
X715863Y719600D01*
X715700D01*
X714922Y719278D01*
X714600Y718500D01*
Y694000D01*
X714650Y693879D01*
Y686499D01*
X711650Y685257D01*
X709336Y687571D01*
X708669Y688016D01*
X708667Y688017D01*
X708327Y688521D01*
X707613Y690142D01*
X707485Y691078D01*
X708453Y692047D01*
X708454Y692047D01*
X708899Y692713D01*
X709055Y693500D01*
X711516Y693734D01*
Y699266D01*
X711516D01*
X711600Y701250D01*
Y717750D01*
X711516Y717952D01*
Y718766D01*
X710702D01*
X710500Y718850D01*
X705529D01*
X691559Y719598D01*
X691529Y719588D01*
X691500Y719600D01*
X681250D01*
Y722300D01*
X680928Y723078D01*
X680150Y723400D01*
X675850D01*
X675072Y723078D01*
X674750Y722300D01*
Y719600D01*
X671700D01*
X670922Y719278D01*
X670600Y718500D01*
X667693Y718725D01*
X667516Y718766D01*
D01*
X666650Y718850D01*
X661650D01*
X661448Y718766D01*
X660484D01*
Y718351D01*
X654266Y714806D01*
X651266Y716549D01*
Y718766D01*
X644234D01*
X644234Y718766D01*
X641289Y718898D01*
X641019Y719083D01*
X640828Y719278D01*
X640050Y719600D01*
X637000D01*
Y722300D01*
X636678Y723078D01*
X635900Y723400D01*
X631600D01*
X630822Y723078D01*
X630500Y722300D01*
Y719600D01*
X620250D01*
X619472Y719278D01*
X619399Y719100D01*
X617250D01*
X616472Y718778D01*
X616150Y718000D01*
Y715144D01*
X616150Y714000D01*
X616264Y713393D01*
X616472Y712278D01*
X616150Y711500D01*
X616150Y709411D01*
X616150Y707500D01*
X616264Y706893D01*
X616472Y705778D01*
X616150Y705000D01*
X616150Y701879D01*
X614579Y701381D01*
X613150Y701380D01*
X612953Y701674D01*
X612953Y701674D01*
X606441Y708187D01*
Y723312D01*
X547408D01*
Y705280D01*
X603534D01*
X609445Y699369D01*
Y678597D01*
X606445Y676311D01*
X606441Y676312D01*
D01*
X605424Y676396D01*
X548424D01*
X548222Y676312D01*
X547408D01*
Y675499D01*
X547325Y675296D01*
Y661246D01*
X547325Y659296D01*
X547408Y658280D01*
X548915Y655659D01*
Y648366D01*
X548884D01*
Y641134D01*
X548884D01*
Y640366D01*
X548884D01*
Y633134D01*
X556116D01*
Y633165D01*
X558628D01*
X560000Y633438D01*
X561163Y634215D01*
X563404Y636456D01*
X566424D01*
X567535Y635806D01*
X567625Y635685D01*
X568031Y632188D01*
X565971Y630128D01*
X565526Y629461D01*
X565369Y628675D01*
X563443Y626567D01*
X562909D01*
Y614535D01*
X571940Y614535D01*
X574940Y614535D01*
X579832D01*
X580424Y614417D01*
X601051D01*
X603399Y614884D01*
X604670Y615734D01*
X614497D01*
Y633266D01*
X599666D01*
X598423Y636266D01*
X612953Y650797D01*
X612953Y650797D01*
X613399Y651463D01*
X613555Y652250D01*
Y653175D01*
X616472Y653972D01*
X617250Y653650D01*
X619399D01*
X619472Y653472D01*
X620250Y653150D01*
X630500D01*
Y650450D01*
X630822Y649672D01*
X631600Y649350D01*
X635900D01*
X636678Y649672D01*
X637000Y650450D01*
Y653150D01*
X640050D01*
X640962Y653102D01*
X641407Y652436D01*
X641407Y652436D01*
X642559Y651284D01*
X654046Y639796D01*
X654713Y639351D01*
X655500Y639194D01*
X655500Y639194D01*
X660522D01*
X660609Y638984D01*
X661734Y637859D01*
X663204Y637250D01*
X664796D01*
X666266Y637859D01*
X667391Y638984D01*
X668000Y640454D01*
Y642046D01*
X667391Y643516D01*
X666266Y644641D01*
X666056Y644728D01*
Y653984D01*
X667516D01*
Y657744D01*
X668168Y658400D01*
X670600Y657518D01*
Y654250D01*
X670922Y653472D01*
X671700Y653150D01*
X674750D01*
Y650450D01*
X675072Y649672D01*
X675850Y649350D01*
X680150D01*
X680928Y649672D01*
X681250Y650450D01*
Y653150D01*
X694000D01*
X694284Y653268D01*
X694586Y653320D01*
X701484Y657668D01*
X704484Y656013D01*
Y653984D01*
X711516D01*
Y653984D01*
X714489Y653920D01*
X714873Y653592D01*
X714922Y653472D01*
X715700Y653150D01*
X718750D01*
Y650450D01*
X719072Y649672D01*
X719850Y649350D01*
X724150D01*
X724928Y649672D01*
X725250Y650450D01*
Y653150D01*
X736514D01*
X745484Y651155D01*
Y651039D01*
X746500Y650956D01*
X748449Y650956D01*
X778000D01*
X778202Y651039D01*
X779016D01*
Y651853D01*
X779100Y652055D01*
Y671655D01*
X779016Y671858D01*
Y672671D01*
X778202D01*
X778000Y672755D01*
X762493D01*
X740137Y695111D01*
Y718155D01*
X739815Y718933D01*
X739315Y719433D01*
X738537Y719755D01*
X725250D01*
Y722300D01*
X724928Y723078D01*
X724150Y723400D01*
D02*
G37*
G36*
X313546Y681900D02*
X311954D01*
X310484Y681291D01*
X309359Y680166D01*
X308750Y678696D01*
Y677104D01*
X309359Y675634D01*
X310484Y674509D01*
X311954Y673900D01*
X313546D01*
X315016Y674509D01*
X316141Y675634D01*
X316750Y677104D01*
Y678696D01*
X316141Y680166D01*
X315016Y681291D01*
X313546Y681900D01*
D02*
G37*
G36*
X929182Y707486D02*
X925738D01*
X922359Y706814D01*
X919177Y705496D01*
X916313Y703583D01*
X913877Y701147D01*
X911964Y698283D01*
X910646Y695101D01*
X909974Y691722D01*
Y688278D01*
X910646Y684900D01*
X911964Y681718D01*
X913877Y678854D01*
X916313Y676418D01*
X919177Y674504D01*
X922359Y673186D01*
X925738Y672514D01*
X929182D01*
X932560Y673186D01*
X935742Y674504D01*
X938606Y676418D01*
X941042Y678854D01*
X942956Y681718D01*
X944274Y684900D01*
X944946Y688278D01*
Y691722D01*
X944274Y695101D01*
X942956Y698283D01*
X941042Y701147D01*
X938606Y703583D01*
X935742Y705496D01*
X932560Y706814D01*
X929182Y707486D01*
D02*
G37*
G36*
X250000Y770000D02*
X150000D01*
Y720000D01*
X182593D01*
X206695Y695899D01*
Y661250D01*
X206695Y661250D01*
X206851Y660463D01*
X207297Y659797D01*
X230555Y636539D01*
X230555Y636539D01*
X231221Y636093D01*
X232008Y635937D01*
X232008Y635937D01*
X235579D01*
X236254Y634970D01*
X236858Y633096D01*
X236838Y632928D01*
X236777Y632575D01*
X236662Y632000D01*
X235295Y629695D01*
X234641Y629055D01*
X225601D01*
X222913Y631744D01*
X223000Y631954D01*
Y633546D01*
X222391Y635016D01*
X221266Y636141D01*
X219796Y636750D01*
X218204D01*
X216734Y636141D01*
X215609Y635016D01*
X215000Y633546D01*
Y631954D01*
X215609Y630484D01*
X216734Y629359D01*
X217903Y628875D01*
X218060Y627375D01*
X217903Y625875D01*
X216734Y625391D01*
X215609Y624266D01*
X215000Y622796D01*
Y621204D01*
X215609Y619734D01*
X216734Y618609D01*
X218204Y618000D01*
X219796D01*
X221266Y618609D01*
X222391Y619734D01*
X222478Y619944D01*
X234641D01*
X235295Y619305D01*
X236662Y617000D01*
X236777Y616425D01*
X236835Y616088D01*
X237014Y614500D01*
X236835Y612912D01*
X236777Y612575D01*
X236662Y612000D01*
X236824Y611189D01*
X237283Y610502D01*
X237970Y610042D01*
X238781Y609881D01*
X250209D01*
X251020Y610042D01*
X251707Y610502D01*
X252167Y611189D01*
X252328Y612000D01*
X252214Y612575D01*
X252155Y612912D01*
X251977Y614500D01*
X252155Y616088D01*
X252214Y616425D01*
X252328Y617000D01*
X252214Y617575D01*
X252155Y617912D01*
X251977Y619500D01*
X252155Y621088D01*
X252214Y621425D01*
X252328Y622000D01*
X252214Y622575D01*
X252155Y622912D01*
X251977Y624500D01*
X252155Y626088D01*
X252214Y626425D01*
X252328Y627000D01*
X253696Y629305D01*
X254349Y629944D01*
X257872D01*
X257959Y629734D01*
X259084Y628609D01*
X260554Y628000D01*
X262146D01*
X263616Y628609D01*
X264741Y629734D01*
X265350Y631204D01*
Y632796D01*
X264741Y634266D01*
X263616Y635391D01*
X262146Y636000D01*
X260554D01*
X259084Y635391D01*
X257959Y634266D01*
X257872Y634055D01*
X254349D01*
X253696Y634695D01*
X252328Y637000D01*
X252167Y637811D01*
X251707Y638705D01*
Y640295D01*
X252167Y641189D01*
X252328Y642000D01*
X254096Y644063D01*
X254670Y644435D01*
X258258D01*
X259084Y643609D01*
X260554Y643000D01*
X262146D01*
X263616Y643609D01*
X264741Y644734D01*
X265350Y646204D01*
Y647795D01*
X264741Y649266D01*
X263616Y650391D01*
X262146Y651000D01*
X260554D01*
X259084Y650391D01*
X258259Y649565D01*
X244496D01*
X244495Y649565D01*
X243514Y649370D01*
X243138Y649119D01*
X238781D01*
X237970Y648958D01*
X237283Y648498D01*
X236824Y647811D01*
X236662Y647000D01*
X236777Y646425D01*
X236838Y646072D01*
X234691Y644104D01*
X232988Y644184D01*
X213822Y663351D01*
Y697999D01*
X213665Y698786D01*
X213220Y699453D01*
X213219Y699453D01*
X195444Y717228D01*
X196592Y720000D01*
X221194D01*
Y670469D01*
X221194Y670469D01*
X221351Y669682D01*
X221796Y669016D01*
X235266Y655547D01*
X235266Y655547D01*
X235932Y655101D01*
X236719Y654945D01*
X236719Y654945D01*
X238462D01*
X238781Y654881D01*
X250209D01*
X251020Y655042D01*
X251020Y655042D01*
X251707Y655502D01*
X252167Y656189D01*
X252328Y657000D01*
X252328Y657000D01*
X252167Y657811D01*
X251707Y658705D01*
Y660295D01*
X252167Y661189D01*
X252328Y662000D01*
X252214Y662575D01*
X252155Y662912D01*
X251977Y664500D01*
X252155Y666088D01*
X252214Y666425D01*
X252328Y667000D01*
X254096Y669063D01*
X254670Y669435D01*
X258302D01*
X259283Y669630D01*
X260116Y670186D01*
X261180Y671250D01*
X261855D01*
X263325Y671859D01*
X264450Y672984D01*
X265059Y674454D01*
Y676046D01*
X264450Y677516D01*
X263325Y678641D01*
X261855Y679250D01*
X260263D01*
X258793Y678641D01*
X257668Y677516D01*
X257059Y676046D01*
Y675982D01*
X254379Y675037D01*
X252325Y677017D01*
X252214Y677575D01*
X252155Y677912D01*
X251977Y679500D01*
X252155Y681088D01*
X252214Y681425D01*
X252328Y682000D01*
X252214Y682575D01*
X252155Y682912D01*
X251977Y684500D01*
X252155Y686088D01*
X252214Y686425D01*
X252328Y687000D01*
X252214Y687575D01*
X252155Y687912D01*
X251977Y689500D01*
X252155Y691088D01*
X252214Y691425D01*
X252328Y692000D01*
X252287Y694922D01*
X252287Y699078D01*
X236703D01*
X236703Y694922D01*
X236662Y692000D01*
X236777Y691425D01*
X236835Y691088D01*
X237014Y689500D01*
X236835Y687912D01*
X236777Y687575D01*
X236662Y687000D01*
X236777Y686425D01*
X236835Y686088D01*
X237014Y684500D01*
X236835Y682912D01*
X236777Y682575D01*
X236662Y682000D01*
X236777Y681425D01*
X236835Y681088D01*
X237014Y679500D01*
X236835Y677912D01*
X236777Y677575D01*
X236662Y677000D01*
X236777Y676425D01*
X236835Y676088D01*
X237014Y674500D01*
X236835Y672912D01*
X236777Y672575D01*
X236662Y672000D01*
X236777Y671425D01*
X236835Y671088D01*
X237014Y669500D01*
X236890Y668399D01*
X234685Y667840D01*
X233773Y667853D01*
X228431Y673195D01*
Y720000D01*
X250000D01*
Y770000D01*
D02*
G37*
G36*
X188454Y682016D02*
X185546D01*
X182693Y681449D01*
X180006Y680335D01*
X177587Y678719D01*
X175530Y676663D01*
X173915Y674244D01*
X172801Y671557D01*
X172234Y668704D01*
Y665796D01*
X172801Y662943D01*
X173915Y660256D01*
X175530Y657837D01*
X177587Y655780D01*
X180006Y654165D01*
X182693Y653051D01*
X185546Y652484D01*
X188454D01*
X191307Y653051D01*
X193994Y654165D01*
X196413Y655780D01*
X198470Y657837D01*
X200085Y660256D01*
X201199Y662943D01*
X201766Y665796D01*
Y668704D01*
X201199Y671557D01*
X200085Y674244D01*
X198470Y676663D01*
X196413Y678719D01*
X193994Y680335D01*
X191307Y681449D01*
X188454Y682016D01*
D02*
G37*
G36*
X73724Y684750D02*
X70276D01*
X66895Y684078D01*
X63711Y682758D01*
X60844Y680843D01*
X58407Y678406D01*
X56492Y675539D01*
X55173Y672355D01*
X54500Y668974D01*
Y665526D01*
X55173Y662145D01*
X56492Y658961D01*
X58407Y656094D01*
X60844Y653657D01*
X63711Y651742D01*
X66895Y650423D01*
X70276Y649750D01*
X73724D01*
X77105Y650423D01*
X80289Y651742D01*
X83156Y653657D01*
X85593Y656094D01*
X87508Y658961D01*
X88827Y662145D01*
X89500Y665526D01*
Y668974D01*
X88827Y672355D01*
X87508Y675539D01*
X85593Y678406D01*
X83156Y680843D01*
X80289Y682758D01*
X77105Y684078D01*
X73724Y684750D01*
D02*
G37*
G36*
X355796Y651000D02*
X354204D01*
X352734Y650391D01*
X351609Y649266D01*
X351000Y647796D01*
Y646204D01*
X351609Y644734D01*
X352734Y643609D01*
X354204Y643000D01*
X355796D01*
X357266Y643609D01*
X358391Y644734D01*
X359000Y646204D01*
Y647796D01*
X358391Y649266D01*
X357266Y650391D01*
X355796Y651000D01*
D02*
G37*
G36*
X537166Y677666D02*
X529334D01*
Y672951D01*
X527935Y671552D01*
X526980Y669247D01*
Y666753D01*
X527935Y664448D01*
X529334Y663049D01*
Y658334D01*
X532096D01*
X536165Y654265D01*
Y648366D01*
X536134D01*
Y641134D01*
X543366D01*
Y648366D01*
X543335D01*
Y655750D01*
X543062Y657122D01*
X542285Y658285D01*
X537343Y663226D01*
X538565Y664448D01*
X539520Y666753D01*
Y669247D01*
X538565Y671552D01*
X537166Y672951D01*
Y677666D01*
D02*
G37*
G36*
X507166D02*
X499334D01*
Y658334D01*
X499665D01*
Y652766D01*
X497484D01*
Y635234D01*
X514516D01*
Y652766D01*
X506835D01*
Y658334D01*
X507166D01*
Y677666D01*
D02*
G37*
G36*
X725396Y639536D02*
X711864D01*
Y627004D01*
X725396D01*
Y639536D01*
D02*
G37*
G36*
X708396D02*
X694864D01*
Y627004D01*
X708396D01*
Y639536D01*
D02*
G37*
G36*
X188454Y640016D02*
X185546D01*
X182693Y639449D01*
X180006Y638335D01*
X177587Y636720D01*
X175530Y634663D01*
X173915Y632244D01*
X172801Y629557D01*
X172234Y626704D01*
Y623796D01*
X172801Y620943D01*
X173915Y618256D01*
X175530Y615837D01*
X177587Y613781D01*
X180006Y612165D01*
X182693Y611051D01*
X185546Y610484D01*
X188454D01*
X191307Y611051D01*
X193994Y612165D01*
X196413Y613781D01*
X198470Y615837D01*
X200085Y618256D01*
X201199Y620943D01*
X201766Y623796D01*
Y626704D01*
X201199Y629557D01*
X200085Y632244D01*
X198470Y634663D01*
X196413Y636720D01*
X193994Y638335D01*
X191307Y639449D01*
X188454Y640016D01*
D02*
G37*
G36*
X146454D02*
X143546D01*
X140693Y639449D01*
X138006Y638335D01*
X135587Y636720D01*
X133531Y634663D01*
X131915Y632244D01*
X130801Y629557D01*
X130234Y626704D01*
Y623796D01*
X130801Y620943D01*
X131915Y618256D01*
X133531Y615837D01*
X135587Y613781D01*
X138006Y612165D01*
X140693Y611051D01*
X143546Y610484D01*
X146454D01*
X149307Y611051D01*
X151994Y612165D01*
X154413Y613781D01*
X156469Y615837D01*
X158085Y618256D01*
X159199Y620943D01*
X159766Y623796D01*
Y626704D01*
X159199Y629557D01*
X158085Y632244D01*
X156469Y634663D01*
X154413Y636720D01*
X151994Y638335D01*
X149307Y639449D01*
X146454Y640016D01*
D02*
G37*
G36*
X691796Y606500D02*
X690204D01*
X688734Y605891D01*
X687609Y604766D01*
X687000Y603296D01*
Y601704D01*
X687609Y600234D01*
X688734Y599109D01*
X690204Y598500D01*
X691796D01*
X693266Y599109D01*
X694391Y600234D01*
X695000Y601704D01*
Y603296D01*
X694391Y604766D01*
X693266Y605891D01*
X691796Y606500D01*
D02*
G37*
G36*
X868750Y617850D02*
X813000D01*
X812798Y617766D01*
X811546D01*
X808693Y617198D01*
X806006Y616085D01*
X803587Y614469D01*
X801697Y612579D01*
X759826Y592616D01*
X759234D01*
X759150Y591600D01*
X759150Y589651D01*
Y573949D01*
X759150Y572000D01*
X759234Y570984D01*
X759827Y570984D01*
X801852Y551266D01*
X803587Y549530D01*
X806006Y547915D01*
X808693Y546801D01*
X811546Y546234D01*
X812798D01*
X813000Y546150D01*
X860695D01*
X861473Y546472D01*
X869528Y554527D01*
X869850Y555305D01*
Y616750D01*
X869766Y616952D01*
Y617766D01*
X868952D01*
X868750Y617850D01*
D02*
G37*
G36*
X295896Y600500D02*
X294305D01*
X292834Y599891D01*
X291709Y598766D01*
X291100Y597296D01*
Y595704D01*
X291709Y594234D01*
X292834Y593109D01*
X294305Y592500D01*
X295896D01*
X297366Y593109D01*
X298491Y594234D01*
X299100Y595704D01*
Y597296D01*
X298491Y598766D01*
X297366Y599891D01*
X295896Y600500D01*
D02*
G37*
G36*
X261758Y608959D02*
X260167D01*
X258697Y608350D01*
X257572Y607225D01*
X256963Y605755D01*
Y604587D01*
X256941Y604565D01*
X244495D01*
X243514Y604370D01*
X243138Y604119D01*
X238781D01*
X237970Y603958D01*
X237970Y603958D01*
X237283Y603498D01*
X236824Y602811D01*
X236662Y602000D01*
X236662Y602000D01*
X236824Y601189D01*
X237283Y600295D01*
Y598705D01*
X236824Y597811D01*
X236662Y597000D01*
X236777Y596425D01*
X236835Y596088D01*
X237014Y594500D01*
X236835Y592912D01*
X236777Y592575D01*
X236662Y592000D01*
X236777Y591425D01*
X236835Y591088D01*
X237014Y589500D01*
X236835Y587912D01*
X236777Y587575D01*
X236662Y587000D01*
X236777Y586425D01*
X236835Y586088D01*
X237014Y584500D01*
X236835Y582912D01*
X236777Y582575D01*
X236662Y582000D01*
X236777Y581425D01*
X236835Y581088D01*
X237014Y579500D01*
X236835Y577912D01*
X236777Y577575D01*
X236662Y577000D01*
X236824Y576189D01*
X237283Y575502D01*
X237970Y575042D01*
X238781Y574881D01*
X250209D01*
X251020Y575042D01*
X251707Y575502D01*
X252167Y576189D01*
X252328Y577000D01*
X252214Y577575D01*
X252155Y577912D01*
X251977Y579500D01*
X252155Y581088D01*
X252214Y581425D01*
X252328Y582000D01*
X252214Y582575D01*
X252155Y582912D01*
X251977Y584500D01*
X252155Y586088D01*
X252214Y586425D01*
X252328Y587000D01*
X252214Y587575D01*
X252155Y587912D01*
X251977Y589500D01*
X252155Y591088D01*
X252214Y591425D01*
X252328Y592000D01*
X254096Y594063D01*
X254440Y594286D01*
X257521Y593689D01*
X257709Y593234D01*
X258834Y592109D01*
X260305Y591500D01*
X261896D01*
X263366Y592109D01*
X264491Y593234D01*
X265100Y594704D01*
Y596296D01*
X264491Y597766D01*
X263729Y598528D01*
X263479Y600045D01*
X263672Y602011D01*
X264354Y602693D01*
X264963Y604163D01*
Y605755D01*
X264354Y607225D01*
X263228Y608350D01*
X261758Y608959D01*
D02*
G37*
G36*
X929724Y620500D02*
X926277D01*
X922896Y619827D01*
X919711Y618508D01*
X916845Y616593D01*
X914407Y614156D01*
X912492Y611289D01*
X911173Y608105D01*
X910500Y604724D01*
Y601276D01*
X911173Y597895D01*
X912492Y594711D01*
X914407Y591844D01*
X916845Y589407D01*
X919711Y587492D01*
X922896Y586172D01*
X926277Y585500D01*
X929724D01*
X933105Y586172D01*
X936290Y587492D01*
X939156Y589407D01*
X941593Y591844D01*
X943509Y594711D01*
X944828Y597895D01*
X945500Y601276D01*
Y604724D01*
X944828Y608105D01*
X943509Y611289D01*
X941593Y614156D01*
X939156Y616593D01*
X936290Y618508D01*
X933105Y619827D01*
X929724Y620500D01*
D02*
G37*
G36*
X325999Y586270D02*
X324002D01*
X322156Y585506D01*
X320744Y584094D01*
X319980Y582248D01*
Y580251D01*
X320744Y578406D01*
X322156Y576994D01*
X324002Y576230D01*
X325999D01*
X327844Y576994D01*
X329256Y578406D01*
X330020Y580251D01*
Y582248D01*
X329256Y584094D01*
X327844Y585506D01*
X325999Y586270D01*
D02*
G37*
G36*
X367296Y582250D02*
X365704D01*
X364234Y581641D01*
X363109Y580516D01*
X362500Y579046D01*
Y577454D01*
X363109Y575984D01*
X364234Y574859D01*
X365704Y574250D01*
X366772Y571433D01*
X366687Y570310D01*
X365250Y569078D01*
X364675Y568964D01*
X364338Y568905D01*
X362750Y568727D01*
X361162Y568905D01*
X360825Y568964D01*
X360250Y569078D01*
X359675Y568964D01*
X359338Y568905D01*
X357750Y568727D01*
X356162Y568905D01*
X355825Y568964D01*
X355250Y569078D01*
X354439Y568917D01*
X353545Y568457D01*
X351955D01*
X351061Y568917D01*
X350250Y569078D01*
X349439Y568917D01*
X348545Y568457D01*
X346955D01*
X346061Y568917D01*
X345250Y569078D01*
X344439Y568917D01*
X343545Y568457D01*
X341955D01*
X341061Y568917D01*
X340250Y569078D01*
X339439Y568917D01*
X338545Y568457D01*
X336955D01*
X336061Y568917D01*
X335250Y569078D01*
X334439Y568917D01*
X333545Y568457D01*
X331955D01*
X331061Y568917D01*
X330250Y569078D01*
X329675Y568964D01*
X329338Y568905D01*
X327750Y568727D01*
X326162Y568905D01*
X325825Y568964D01*
X325250Y569078D01*
X324675Y568964D01*
X324338Y568905D01*
X322750Y568727D01*
X321162Y568905D01*
X320825Y568964D01*
X320250Y569078D01*
X319675Y568964D01*
X319338Y568905D01*
X317750Y568727D01*
X316162Y568905D01*
X315825Y568964D01*
X315250Y569078D01*
X314675Y568964D01*
X314338Y568905D01*
X312750Y568727D01*
X311162Y568905D01*
X310825Y568964D01*
X310250Y569078D01*
X309675Y568964D01*
X309338Y568905D01*
X307750Y568727D01*
X306162Y568905D01*
X305825Y568964D01*
X305250Y569078D01*
X304675Y568964D01*
X304338Y568905D01*
X302750Y568727D01*
X301162Y568905D01*
X300825Y568964D01*
X300250Y569078D01*
X299675Y568964D01*
X299338Y568905D01*
X297750Y568727D01*
X296162Y568905D01*
X295825Y568964D01*
X295250Y569078D01*
X294675Y568964D01*
X294338Y568905D01*
X292750Y568727D01*
X291162Y568905D01*
X290825Y568964D01*
X290250Y569078D01*
X289439Y568917D01*
X288545Y568457D01*
X286955D01*
X286061Y568917D01*
X285250Y569078D01*
X284439Y568917D01*
X283545Y568457D01*
X281955D01*
X281061Y568917D01*
X280250Y569078D01*
X279439Y568917D01*
X278545Y568457D01*
X276955D01*
X276061Y568917D01*
X275250Y569078D01*
X274439Y568917D01*
X273545Y568457D01*
X271955D01*
X271061Y568917D01*
X270250Y569078D01*
X268187Y570846D01*
X267815Y571420D01*
Y575158D01*
X268641Y575984D01*
X269250Y577454D01*
Y579046D01*
X268641Y580516D01*
X267516Y581641D01*
X266046Y582250D01*
X264454D01*
X262984Y581641D01*
X261859Y580516D01*
X261250Y579046D01*
Y577454D01*
X261859Y575984D01*
X262685Y575158D01*
Y561245D01*
X262880Y560263D01*
X263131Y559888D01*
Y555531D01*
X263292Y554720D01*
X263752Y554033D01*
X264439Y553574D01*
X265250Y553412D01*
X267555Y552045D01*
X268195Y551391D01*
Y548478D01*
X267984Y548391D01*
X266859Y547266D01*
X266250Y545796D01*
Y544204D01*
X266859Y542734D01*
X267984Y541609D01*
X269454Y541000D01*
X271066Y540816D01*
X271250Y539204D01*
X271859Y537734D01*
X272984Y536609D01*
X274454Y536000D01*
X276066Y535816D01*
X276250Y534204D01*
X276859Y532734D01*
X277984Y531609D01*
X279454Y531000D01*
X281066Y530816D01*
X281250Y529204D01*
X281859Y527734D01*
X282597Y526996D01*
X283017Y525914D01*
X283140Y523297D01*
X277649Y517805D01*
X123750D01*
X123750Y517805D01*
X122963Y517649D01*
X122296Y517203D01*
X122296Y517203D01*
X73859Y468766D01*
X65234D01*
Y458734D01*
X76734D01*
X76766Y458734D01*
X79734Y458657D01*
X79734Y457234D01*
Y455343D01*
X76766Y455266D01*
X76734Y455266D01*
X65234D01*
Y445234D01*
X65234D01*
X66784Y442915D01*
X66951Y442234D01*
X66705Y441000D01*
Y427500D01*
X66902Y426510D01*
X63809Y423417D01*
X61665Y425176D01*
X61832Y425757D01*
X61883Y425933D01*
X61949Y426263D01*
X62195Y427500D01*
Y431245D01*
X62356Y431407D01*
X63120Y433252D01*
Y435249D01*
X62356Y437094D01*
X62195Y437255D01*
Y441000D01*
X61883Y442567D01*
X60995Y443896D01*
X59667Y444783D01*
X58100Y445095D01*
X56533Y444783D01*
X55205Y443896D01*
X54317Y442567D01*
X54005Y441000D01*
Y437255D01*
X53844Y437094D01*
X53080Y435249D01*
Y433252D01*
X53844Y431407D01*
X54005Y431245D01*
Y427500D01*
X54317Y425933D01*
X55205Y424605D01*
X56533Y423717D01*
X58100Y423405D01*
X59243Y423633D01*
X59667Y423717D01*
X59862Y423773D01*
X60424Y423935D01*
X62184Y421791D01*
X45960Y405567D01*
X42516D01*
Y407016D01*
X39464D01*
X38296Y407500D01*
X36704D01*
X35536Y407016D01*
X32484D01*
X32484Y398016D01*
X32484Y396984D01*
Y390984D01*
X35536D01*
X36704Y390500D01*
X38296D01*
X39464Y390984D01*
X42516D01*
X42516Y399335D01*
X44637Y401456D01*
X46811D01*
X46812Y401456D01*
X47598Y401613D01*
X48265Y402058D01*
X69809Y423603D01*
X70800Y423405D01*
X72367Y423717D01*
X73695Y424605D01*
X74583Y425933D01*
X74895Y427500D01*
Y441000D01*
X74649Y442234D01*
X74813Y442903D01*
X76409Y445234D01*
X76766D01*
Y448710D01*
X79766Y450214D01*
X81392Y449000D01*
X81445Y448930D01*
Y444457D01*
X80605Y443896D01*
X79717Y442567D01*
X79405Y441000D01*
Y427500D01*
X79717Y425933D01*
X80605Y424605D01*
X81277Y424156D01*
X81423Y421652D01*
X81234Y420891D01*
X80109Y419766D01*
X79500Y418296D01*
Y416704D01*
X80109Y415234D01*
X81234Y414109D01*
X82704Y413500D01*
X84296D01*
X85766Y414109D01*
X86891Y415234D01*
X87500Y416704D01*
Y418296D01*
X86891Y419766D01*
X85766Y420891D01*
X85578Y421652D01*
X85723Y424156D01*
X86395Y424605D01*
X87283Y425933D01*
X87595Y427500D01*
Y441000D01*
X87283Y442567D01*
X86395Y443896D01*
X85556Y444457D01*
Y448930D01*
X85609Y449001D01*
X87234Y450214D01*
X90234Y448709D01*
Y445234D01*
X90591D01*
X92187Y442903D01*
X92351Y442234D01*
X92105Y441000D01*
Y427500D01*
X92417Y425933D01*
X93305Y424605D01*
X94144Y424044D01*
Y416051D01*
X45899Y367806D01*
X42516D01*
Y369266D01*
X39464D01*
X38296Y369750D01*
X36705D01*
X35536Y369266D01*
X32484D01*
X32484Y360266D01*
X32484Y359234D01*
Y353234D01*
X32994D01*
X34437Y350513D01*
X34357Y350234D01*
X32822Y349348D01*
X31403Y347929D01*
X30400Y346191D01*
X29880Y344253D01*
Y342247D01*
X30400Y340309D01*
X31403Y338571D01*
X32822Y337153D01*
X34559Y336149D01*
X36497Y335630D01*
X38504D01*
X40442Y336149D01*
X42116Y337116D01*
X54005D01*
Y336500D01*
X54317Y334933D01*
X55205Y333605D01*
X56533Y332717D01*
X58100Y332406D01*
X59667Y332717D01*
X60995Y333605D01*
X61883Y334933D01*
X62195Y336500D01*
Y337116D01*
X66705D01*
Y336500D01*
X67017Y334933D01*
X67905Y333605D01*
X69233Y332717D01*
X70800Y332406D01*
X72367Y332717D01*
X73695Y333605D01*
X74583Y334933D01*
X74895Y336500D01*
Y338708D01*
X75040Y338848D01*
X75137Y338913D01*
X75191Y338993D01*
X76405Y340162D01*
X79405Y339248D01*
Y332346D01*
X49825Y302766D01*
X17884D01*
Y269734D01*
X21459D01*
X22484Y268709D01*
X23954Y268100D01*
X25545D01*
X27016Y268709D01*
X28040Y269734D01*
X55616D01*
Y296975D01*
X86395Y327755D01*
X87283Y329083D01*
X87595Y330650D01*
Y343250D01*
Y350000D01*
X87283Y351567D01*
X86395Y352896D01*
X85067Y353783D01*
X83500Y354095D01*
X81933Y353783D01*
X80605Y352896D01*
X79717Y351567D01*
X79405Y350000D01*
Y347252D01*
X76405Y346338D01*
X75191Y347507D01*
X75137Y347587D01*
X75040Y347653D01*
X74895Y347792D01*
Y350000D01*
X74583Y351567D01*
X73695Y352896D01*
X72367Y353783D01*
X70800Y354095D01*
X69233Y353783D01*
X67905Y352896D01*
X67017Y351567D01*
X66705Y350000D01*
Y349384D01*
X62195D01*
Y350000D01*
X61883Y351567D01*
X60995Y352896D01*
X59667Y353783D01*
X58100Y354095D01*
X56533Y353783D01*
X55205Y352896D01*
X54317Y351567D01*
X54005Y350000D01*
Y349384D01*
X43052D01*
X42300Y350234D01*
X42516Y353234D01*
X42516D01*
X42516Y361573D01*
X44638Y363695D01*
X46750D01*
X46750Y363695D01*
X47537Y363851D01*
X48204Y364297D01*
X76750Y392843D01*
X77715Y392799D01*
X80073Y391924D01*
X80359Y391234D01*
X81484Y390109D01*
X82954Y389500D01*
X84546D01*
X86016Y390109D01*
X87141Y391234D01*
X87750Y392704D01*
Y394296D01*
X87141Y395766D01*
X86016Y396891D01*
X85326Y397177D01*
X84452Y399535D01*
X84407Y400500D01*
X97653Y413746D01*
X97654Y413746D01*
X98099Y414413D01*
X98256Y415200D01*
X98256Y415200D01*
Y424044D01*
X99095Y424605D01*
X99983Y425933D01*
X100295Y427500D01*
Y441000D01*
X100049Y442234D01*
X100216Y442915D01*
X101766Y445234D01*
X101766D01*
Y455266D01*
X90266D01*
X90234Y455266D01*
X87266Y455344D01*
X87266Y458656D01*
X90234Y458734D01*
X90266Y458734D01*
X101766D01*
Y468766D01*
X98055D01*
Y472899D01*
X129851Y504695D01*
X156295D01*
X157537Y501694D01*
X124609Y468766D01*
X115984D01*
Y458734D01*
X127484D01*
X127516Y458734D01*
X130484Y458657D01*
X130484Y457234D01*
Y455343D01*
X127516Y455266D01*
X127484Y455266D01*
X115984D01*
Y445234D01*
X115991D01*
X117587Y442903D01*
X117751Y442234D01*
X117505Y441000D01*
Y427500D01*
X117817Y425933D01*
X118705Y424605D01*
X119544Y424044D01*
Y370400D01*
X119544Y370400D01*
X119701Y369613D01*
X120147Y368946D01*
X132331Y356762D01*
X132439Y355960D01*
X132124Y353732D01*
X131836Y353184D01*
X131405Y352896D01*
X130517Y351567D01*
X130205Y350000D01*
Y343250D01*
Y336500D01*
Y302766D01*
X122634D01*
Y269734D01*
X154575D01*
X155655Y268654D01*
Y255250D01*
X155750Y254774D01*
Y254454D01*
X155872Y254159D01*
X155967Y253683D01*
X156236Y253279D01*
X156359Y252984D01*
X156585Y252758D01*
X156854Y252354D01*
X157258Y252085D01*
X157484Y251859D01*
X157779Y251737D01*
X158183Y251467D01*
X158659Y251372D01*
X158954Y251250D01*
X159274D01*
X159750Y251155D01*
X160226Y251250D01*
X160545D01*
X160841Y251372D01*
X161317Y251467D01*
X161720Y251737D01*
X162016Y251859D01*
X162242Y252085D01*
X162645Y252354D01*
X162915Y252758D01*
X163141Y252984D01*
X163263Y253279D01*
X163533Y253683D01*
X163627Y254159D01*
X163750Y254454D01*
Y254774D01*
X163845Y255250D01*
Y270350D01*
X163533Y271917D01*
X162645Y273246D01*
X160366Y275525D01*
Y302766D01*
X138395D01*
Y343250D01*
Y350000D01*
X138083Y351567D01*
X137626Y352252D01*
X138404Y354515D01*
X138954Y355252D01*
X142346D01*
X142896Y354515D01*
X143674Y352252D01*
X143217Y351567D01*
X142905Y350000D01*
Y343250D01*
Y331150D01*
X143217Y329583D01*
X144105Y328255D01*
X175384Y296975D01*
Y269734D01*
X202486D01*
X202859Y268834D01*
X203984Y267709D01*
X205454Y267100D01*
X207046D01*
X208516Y267709D01*
X209641Y268834D01*
X210014Y269734D01*
X213116D01*
Y302766D01*
X181175D01*
X151095Y332846D01*
Y339248D01*
X154095Y340162D01*
X155309Y338993D01*
X155363Y338913D01*
X155460Y338848D01*
X155605Y338708D01*
Y336500D01*
X155917Y334933D01*
X156805Y333605D01*
X158133Y332717D01*
X159700Y332406D01*
X161267Y332717D01*
X162595Y333605D01*
X163483Y334933D01*
X163795Y336500D01*
Y337116D01*
X168305D01*
Y336500D01*
X168617Y334933D01*
X169505Y333605D01*
X170833Y332717D01*
X172400Y332406D01*
X173967Y332717D01*
X175295Y333605D01*
X176183Y334933D01*
X176495Y336500D01*
Y337116D01*
X186884D01*
X188559Y336149D01*
X190497Y335630D01*
X192503D01*
X194441Y336149D01*
X196179Y337152D01*
X197598Y338571D01*
X198601Y340309D01*
X199120Y342247D01*
Y344253D01*
X198601Y346191D01*
X197598Y347929D01*
X196179Y349347D01*
X196264Y352739D01*
X196586Y353234D01*
X197516D01*
X197516Y362234D01*
X197516Y363266D01*
Y369266D01*
X194464D01*
X193296Y369750D01*
X191704D01*
X190536Y369266D01*
X187484D01*
Y363266D01*
X187484Y362234D01*
X187174Y359363D01*
X135544D01*
X123656Y371251D01*
Y391768D01*
X124087Y392026D01*
X126656Y392688D01*
X127234Y392109D01*
X128704Y391500D01*
X130296D01*
X131766Y392109D01*
X132891Y393234D01*
X133500Y394704D01*
Y396296D01*
X132891Y397766D01*
X131766Y398891D01*
X130296Y399500D01*
X128704D01*
X127234Y398891D01*
X126656Y398312D01*
X124087Y398974D01*
X123656Y399232D01*
Y424044D01*
X124495Y424605D01*
X125383Y425933D01*
X125695Y427500D01*
Y441000D01*
X125449Y442234D01*
X125613Y442903D01*
X127209Y445234D01*
X127516D01*
Y448729D01*
X130516Y450238D01*
X132164Y449014D01*
X132219Y448940D01*
Y444440D01*
X131405Y443896D01*
X130517Y442567D01*
X130205Y441000D01*
Y427500D01*
X130517Y425933D01*
X131405Y424605D01*
X132077Y424156D01*
X132222Y421652D01*
X132034Y420891D01*
X130909Y419766D01*
X130300Y418296D01*
Y416704D01*
X130909Y415234D01*
X132034Y414109D01*
X133504Y413500D01*
X135096D01*
X136566Y414109D01*
X137691Y415234D01*
X138300Y416704D01*
Y418296D01*
X137691Y419766D01*
X136566Y420891D01*
X136378Y421652D01*
X136523Y424156D01*
X137195Y424605D01*
X138083Y425933D01*
X138395Y427500D01*
Y441000D01*
X138083Y442567D01*
X137195Y443896D01*
X136330Y444473D01*
Y448919D01*
X136380Y448987D01*
X137984Y450190D01*
X140984Y448690D01*
Y445234D01*
X141391D01*
X142987Y442903D01*
X143151Y442234D01*
X142905Y441000D01*
Y427500D01*
X143217Y425933D01*
X144105Y424605D01*
X145433Y423717D01*
X147000Y423405D01*
X147991Y423603D01*
X178547Y393046D01*
X179214Y392601D01*
X180000Y392444D01*
X180000Y392444D01*
X187484D01*
Y390984D01*
X190536D01*
X191704Y390500D01*
X193296D01*
X194464Y390984D01*
X197516D01*
X197516Y399984D01*
X197516Y401016D01*
Y407016D01*
X194464D01*
X193296Y407500D01*
X191704D01*
X190536Y407016D01*
X187484D01*
X187484Y398677D01*
X185363Y396555D01*
X180852D01*
X150898Y426510D01*
X151095Y427500D01*
Y441000D01*
X150849Y442234D01*
X151003Y442861D01*
X152516Y445234D01*
X152516Y445234D01*
X152516Y445234D01*
Y455266D01*
X141016D01*
X140984Y455266D01*
X138016Y455343D01*
X138016Y458657D01*
X140984Y458734D01*
X141016Y458734D01*
X152516D01*
Y468766D01*
X148806D01*
Y473399D01*
X166851Y491445D01*
X287750D01*
X287750Y491445D01*
X288537Y491601D01*
X289203Y492047D01*
X299195Y502038D01*
X302195Y500795D01*
Y468766D01*
X298484D01*
Y458734D01*
X309984D01*
X310016Y458734D01*
X312984Y458657D01*
X312984Y457234D01*
Y455342D01*
X310016Y455266D01*
X309984Y455266D01*
X298484D01*
Y445234D01*
X298484D01*
X300034Y442915D01*
X300201Y442234D01*
X299956Y441000D01*
Y427500D01*
X300153Y426509D01*
X297060Y423416D01*
X294915Y425176D01*
X295083Y425757D01*
X295133Y425933D01*
X295199Y426263D01*
X295445Y427500D01*
Y431245D01*
X295606Y431407D01*
X296370Y433251D01*
Y435249D01*
X295606Y437094D01*
X295445Y437255D01*
Y441000D01*
X295133Y442567D01*
X294246Y443895D01*
X292917Y444783D01*
X291350Y445095D01*
X289783Y444783D01*
X288455Y443895D01*
X287567Y442567D01*
X287255Y441000D01*
Y437255D01*
X287094Y437094D01*
X286330Y435249D01*
Y433251D01*
X287094Y431407D01*
X287255Y431245D01*
Y427500D01*
X287567Y425933D01*
X288455Y424605D01*
X289783Y423717D01*
X291350Y423405D01*
X292493Y423633D01*
X292917Y423717D01*
X293112Y423773D01*
X293674Y423935D01*
X295434Y421791D01*
X279210Y405567D01*
X275766D01*
Y407016D01*
X272714D01*
X271546Y407500D01*
X269954D01*
X268786Y407016D01*
X265734D01*
X265734Y398016D01*
X265734Y396984D01*
Y390984D01*
X268786D01*
X269954Y390500D01*
X271546D01*
X272714Y390984D01*
X275766D01*
X275766Y399335D01*
X277888Y401456D01*
X280062D01*
X280062Y401456D01*
X280848Y401613D01*
X281515Y402058D01*
X303060Y423602D01*
X304050Y423405D01*
X305617Y423717D01*
X306946Y424605D01*
X307833Y425933D01*
X308145Y427500D01*
Y441000D01*
X307899Y442234D01*
X308063Y442903D01*
X309659Y445234D01*
X310016D01*
Y448710D01*
X313016Y450214D01*
X314643Y449000D01*
X314695Y448930D01*
Y444457D01*
X313855Y443895D01*
X312967Y442567D01*
X312656Y441000D01*
Y427500D01*
X312967Y425933D01*
X313855Y424605D01*
X314527Y424156D01*
X314673Y421652D01*
X314484Y420891D01*
X313359Y419766D01*
X312750Y418296D01*
Y416704D01*
X313359Y415234D01*
X314484Y414109D01*
X315954Y413500D01*
X317546D01*
X319016Y414109D01*
X320141Y415234D01*
X320750Y416704D01*
Y418296D01*
X320141Y419766D01*
X319016Y420891D01*
X318828Y421652D01*
X318974Y424156D01*
X319646Y424605D01*
X320533Y425933D01*
X320845Y427500D01*
Y441000D01*
X320533Y442567D01*
X319646Y443895D01*
X318806Y444457D01*
Y448929D01*
X318859Y449001D01*
X320484Y450214D01*
X323484Y448709D01*
Y445234D01*
X323841D01*
X325437Y442903D01*
X325601Y442234D01*
X325355Y441000D01*
Y427500D01*
X325667Y425933D01*
X326555Y424605D01*
X327395Y424044D01*
Y416051D01*
X279149Y367806D01*
X275766D01*
Y369267D01*
X272713D01*
X271546Y369750D01*
X269955D01*
X268788Y369267D01*
X265734D01*
X265734Y360266D01*
X265734Y359235D01*
Y353234D01*
X266248D01*
X267689Y350514D01*
X267608Y350234D01*
X266072Y349347D01*
X264653Y347929D01*
X263650Y346191D01*
X263130Y344253D01*
Y342247D01*
X263650Y340309D01*
X264653Y338571D01*
X266072Y337152D01*
X267809Y336149D01*
X269747Y335630D01*
X271754D01*
X273692Y336149D01*
X275366Y337116D01*
X287255D01*
Y336500D01*
X287567Y334933D01*
X288455Y333605D01*
X289783Y332717D01*
X291350Y332405D01*
X292917Y332717D01*
X294246Y333605D01*
X295133Y334933D01*
X295445Y336500D01*
Y337116D01*
X299956D01*
Y336500D01*
X300267Y334933D01*
X301155Y333605D01*
X302483Y332717D01*
X304050Y332405D01*
X305617Y332717D01*
X306946Y333605D01*
X307833Y334933D01*
X308145Y336500D01*
Y338708D01*
X308290Y338848D01*
X308388Y338913D01*
X308441Y338993D01*
X309655Y340162D01*
X312656Y339248D01*
Y332346D01*
X283075Y302765D01*
X251134D01*
Y269733D01*
X254710D01*
X255734Y268709D01*
X257204Y268100D01*
X258796D01*
X260266Y268709D01*
X261290Y269733D01*
X288866D01*
Y296975D01*
X319646Y327755D01*
X320533Y329083D01*
X320845Y330650D01*
Y343250D01*
Y350000D01*
X320533Y351567D01*
X319646Y352895D01*
X318317Y353783D01*
X316750Y354095D01*
X315183Y353783D01*
X313855Y352895D01*
X312967Y351567D01*
X312656Y350000D01*
Y347252D01*
X309655Y346338D01*
X308441Y347507D01*
X308388Y347587D01*
X308290Y347653D01*
X308145Y347792D01*
Y350000D01*
X307833Y351567D01*
X306946Y352895D01*
X305617Y353783D01*
X304050Y354095D01*
X302483Y353783D01*
X301155Y352895D01*
X300267Y351567D01*
X299956Y350000D01*
Y349384D01*
X295445D01*
Y350000D01*
X295133Y351567D01*
X294246Y352895D01*
X292917Y353783D01*
X291350Y354095D01*
X289783Y353783D01*
X288455Y352895D01*
X287567Y351567D01*
X287255Y350000D01*
Y349384D01*
X276303D01*
X275550Y350234D01*
X275766Y353234D01*
X275766D01*
X275766Y361573D01*
X277887Y363695D01*
X280000D01*
X280000Y363694D01*
X280787Y363851D01*
X281454Y364297D01*
X310000Y392843D01*
X310965Y392798D01*
X313323Y391924D01*
X313609Y391234D01*
X314734Y390109D01*
X316204Y389500D01*
X317796D01*
X319266Y390109D01*
X320391Y391234D01*
X321000Y392704D01*
Y394296D01*
X320391Y395766D01*
X319266Y396891D01*
X318576Y397177D01*
X317702Y399535D01*
X317657Y400500D01*
X330904Y413746D01*
X330904Y413746D01*
X331349Y414413D01*
X331506Y415200D01*
X331506Y415200D01*
Y424044D01*
X332346Y424605D01*
X333233Y425933D01*
X333545Y427500D01*
Y441000D01*
X333299Y442234D01*
X333466Y442915D01*
X335016Y445234D01*
X335016D01*
Y455266D01*
X323516D01*
X323484Y455266D01*
X320516Y455344D01*
X320516Y458656D01*
X323484Y458734D01*
X323516Y458734D01*
X335016D01*
Y468766D01*
X332305D01*
Y536915D01*
X334395Y538989D01*
X335033Y539302D01*
X336446Y538731D01*
X336859Y537734D01*
X337984Y536609D01*
X339454Y536000D01*
X341067Y535816D01*
X341250Y534204D01*
X341859Y532734D01*
X342984Y531609D01*
X344454Y531000D01*
X346067Y530816D01*
X346250Y529204D01*
X346859Y527734D01*
X347984Y526609D01*
X349454Y526000D01*
X351046D01*
X353195Y523643D01*
Y468766D01*
X349234D01*
Y458734D01*
X360734D01*
X360766Y458734D01*
X363734Y458657D01*
X363734Y457234D01*
Y455343D01*
X360766Y455266D01*
X360734Y455266D01*
X349234D01*
Y445234D01*
X349241D01*
X350837Y442903D01*
X351001Y442234D01*
X350756Y441000D01*
Y427500D01*
X351067Y425933D01*
X351955Y424605D01*
X352795Y424044D01*
Y370400D01*
X352795Y370400D01*
X352951Y369613D01*
X353397Y368946D01*
X365581Y356762D01*
X365690Y355960D01*
X365374Y353731D01*
X365086Y353183D01*
X364655Y352895D01*
X363767Y351567D01*
X363456Y350000D01*
Y343250D01*
Y336500D01*
Y302765D01*
X355884D01*
Y269733D01*
X387826D01*
X388905Y268654D01*
Y255250D01*
X389000Y254774D01*
Y254454D01*
X389122Y254159D01*
X389217Y253683D01*
X389487Y253279D01*
X389609Y252984D01*
X389835Y252758D01*
X390105Y252354D01*
X390508Y252085D01*
X390734Y251859D01*
X391029Y251736D01*
X391433Y251467D01*
X391909Y251372D01*
X392204Y251250D01*
X392524D01*
X393000Y251155D01*
X393476Y251250D01*
X393796D01*
X394091Y251372D01*
X394567Y251467D01*
X394971Y251736D01*
X395266Y251859D01*
X395492Y252085D01*
X395895Y252354D01*
X396165Y252758D01*
X396391Y252984D01*
X396513Y253279D01*
X396783Y253683D01*
X396878Y254159D01*
X397000Y254454D01*
Y254774D01*
X397095Y255250D01*
Y270350D01*
X396783Y271917D01*
X395895Y273245D01*
X393616Y275525D01*
Y302765D01*
X371645D01*
Y343250D01*
Y350000D01*
X371333Y351567D01*
X370876Y352252D01*
X371655Y354515D01*
X372205Y355252D01*
X375596D01*
X376146Y354515D01*
X376925Y352252D01*
X376467Y351567D01*
X376156Y350000D01*
Y343250D01*
Y331150D01*
X376467Y329583D01*
X377355Y328255D01*
X408634Y296975D01*
Y269733D01*
X435737D01*
X436109Y268834D01*
X437234Y267709D01*
X438705Y267100D01*
X440296D01*
X441766Y267709D01*
X442891Y268834D01*
X443264Y269733D01*
X446366D01*
Y302765D01*
X414426D01*
X384345Y332846D01*
Y339248D01*
X387345Y340162D01*
X388559Y338993D01*
X388613Y338913D01*
X388711Y338848D01*
X388856Y338708D01*
Y336500D01*
X389167Y334933D01*
X390055Y333605D01*
X391383Y332717D01*
X392950Y332405D01*
X394517Y332717D01*
X395846Y333605D01*
X396733Y334933D01*
X397045Y336500D01*
Y337116D01*
X401555D01*
Y336500D01*
X401867Y334933D01*
X402755Y333605D01*
X404083Y332717D01*
X405650Y332405D01*
X407217Y332717D01*
X408546Y333605D01*
X409433Y334933D01*
X409745Y336500D01*
Y337116D01*
X419884D01*
X421559Y336149D01*
X423497Y335630D01*
X425503D01*
X427441Y336149D01*
X429179Y337152D01*
X430597Y338571D01*
X431601Y340309D01*
X432120Y342247D01*
Y344253D01*
X431601Y346191D01*
X430597Y347929D01*
X429179Y349347D01*
X429463Y352648D01*
X429873Y353234D01*
X430766D01*
X430766Y362234D01*
X430766Y363266D01*
Y369266D01*
X427714D01*
X426546Y369750D01*
X424954D01*
X423786Y369266D01*
X420734D01*
Y363266D01*
X420734Y362234D01*
X420424Y359363D01*
X368794D01*
X356906Y371251D01*
Y391768D01*
X357337Y392026D01*
X359906Y392688D01*
X360484Y392109D01*
X361954Y391500D01*
X363546D01*
X365016Y392109D01*
X366141Y393234D01*
X366750Y394704D01*
Y396296D01*
X366141Y397766D01*
X365016Y398891D01*
X363546Y399500D01*
X361954D01*
X360484Y398891D01*
X359906Y398312D01*
X357337Y398974D01*
X356906Y399232D01*
Y424044D01*
X357746Y424605D01*
X358633Y425933D01*
X358945Y427500D01*
Y441000D01*
X358699Y442234D01*
X358863Y442903D01*
X360459Y445234D01*
X360766D01*
Y448729D01*
X363766Y450238D01*
X365414Y449014D01*
X365470Y448940D01*
Y444440D01*
X364655Y443895D01*
X363767Y442567D01*
X363456Y441000D01*
Y427500D01*
X363767Y425933D01*
X364655Y424605D01*
X365327Y424156D01*
X365473Y421652D01*
X365284Y420891D01*
X364159Y419766D01*
X363550Y418296D01*
Y416704D01*
X364159Y415234D01*
X365284Y414109D01*
X366754Y413500D01*
X368346D01*
X369816Y414109D01*
X370941Y415234D01*
X371550Y416704D01*
Y418296D01*
X370941Y419766D01*
X369816Y420891D01*
X369628Y421652D01*
X369773Y424156D01*
X370446Y424605D01*
X371333Y425933D01*
X371645Y427500D01*
Y441000D01*
X371333Y442567D01*
X370446Y443895D01*
X369581Y444473D01*
Y448919D01*
X369630Y448987D01*
X371234Y450190D01*
X374234Y448690D01*
Y445234D01*
X374641D01*
X376237Y442903D01*
X376401Y442234D01*
X376156Y441000D01*
Y427500D01*
X376467Y425933D01*
X377355Y424605D01*
X378683Y423717D01*
X380250Y423405D01*
X381241Y423602D01*
X411797Y393046D01*
X412464Y392601D01*
X413250Y392444D01*
X413251Y392444D01*
X420734D01*
Y390983D01*
X423787D01*
X424955Y390500D01*
X426546D01*
X427713Y390983D01*
X430766D01*
X430766Y399984D01*
X430766Y401015D01*
Y407016D01*
X427716D01*
X426546Y407500D01*
X424955D01*
X423785Y407016D01*
X420734D01*
X420734Y398677D01*
X418613Y396555D01*
X414102D01*
X384148Y426509D01*
X384345Y427500D01*
Y441000D01*
X384100Y442234D01*
X384253Y442861D01*
X385766Y445234D01*
X385766Y445234D01*
X385766Y445234D01*
Y455266D01*
X374266D01*
X374234Y455266D01*
X371266Y455343D01*
X371266Y458657D01*
X374234Y458734D01*
X374266Y458734D01*
X385766D01*
Y468766D01*
X382056D01*
Y509250D01*
X381899Y510036D01*
X381454Y510703D01*
X381454Y510703D01*
X369127Y523030D01*
X369292Y523859D01*
X371951Y525984D01*
X373549D01*
X375025Y526595D01*
X376155Y527725D01*
X376766Y529201D01*
Y530799D01*
X376155Y532275D01*
X375025Y533405D01*
X373549Y534016D01*
X373174D01*
X372815Y534374D01*
Y561245D01*
Y573959D01*
X372620Y574941D01*
X372064Y575773D01*
X370466Y577371D01*
X370500Y577454D01*
Y579046D01*
X369891Y580516D01*
X368766Y581641D01*
X367296Y582250D01*
D02*
G37*
G36*
X73724Y600750D02*
X70276D01*
X66895Y600078D01*
X63711Y598758D01*
X60844Y596843D01*
X58407Y594406D01*
X56492Y591539D01*
X55173Y588355D01*
X54500Y584974D01*
Y581526D01*
X55173Y578145D01*
X56492Y574961D01*
X58407Y572094D01*
X60844Y569657D01*
X63711Y567742D01*
X66895Y566423D01*
X70276Y565750D01*
X73724D01*
X77105Y566423D01*
X80289Y567742D01*
X83156Y569657D01*
X85593Y572094D01*
X87508Y574961D01*
X88827Y578145D01*
X89500Y581526D01*
Y584974D01*
X88827Y588355D01*
X87508Y591539D01*
X85593Y594406D01*
X83156Y596843D01*
X80289Y598758D01*
X77105Y600078D01*
X73724Y600750D01*
D02*
G37*
G36*
X649687Y594400D02*
X645387D01*
X644610Y594078D01*
X644288Y593300D01*
Y590600D01*
X634037D01*
X633260Y590278D01*
X633186Y590100D01*
X631037D01*
X630260Y589778D01*
X629938Y589000D01*
Y586144D01*
X629938Y585000D01*
X630051Y584393D01*
X630260Y583278D01*
X629938Y582500D01*
X629938Y580411D01*
X629938Y578500D01*
X630051Y577893D01*
X630260Y576778D01*
X629938Y576000D01*
X629938Y573911D01*
X629938Y572000D01*
X630051Y571393D01*
X630260Y570278D01*
X629938Y569500D01*
X629938Y565500D01*
X630260Y564722D01*
X631037Y564400D01*
X633186D01*
X633260Y564222D01*
X634037Y563900D01*
X644288D01*
Y561200D01*
X644610Y560422D01*
X645387Y560100D01*
X649687D01*
X650465Y560422D01*
X650787Y561200D01*
Y563900D01*
X653837D01*
X654615Y564222D01*
X654937Y565000D01*
Y589500D01*
X654615Y590278D01*
X653837Y590600D01*
X650787D01*
Y593300D01*
X650465Y594078D01*
X649687Y594400D01*
D02*
G37*
G36*
X678796Y606500D02*
X677205D01*
X675734Y605891D01*
X674609Y604766D01*
X674000Y603296D01*
Y601704D01*
X674025Y601645D01*
X662146Y589766D01*
X658021D01*
Y584234D01*
X658021D01*
X657937Y582250D01*
Y565750D01*
X658021Y565548D01*
Y564734D01*
X658835D01*
X659037Y564650D01*
X664037D01*
X664239Y564734D01*
X665053D01*
Y565063D01*
X671421Y568694D01*
X674421Y566951D01*
Y564734D01*
X681453D01*
X681453Y564734D01*
X681537Y564739D01*
X684538Y561904D01*
Y557599D01*
X681538Y556357D01*
X679191Y558703D01*
X678524Y559149D01*
X677737Y559305D01*
X677737Y559305D01*
X673478D01*
X673391Y559516D01*
X672266Y560641D01*
X670796Y561250D01*
X669204D01*
X667734Y560641D01*
X666609Y559516D01*
X666000Y558046D01*
Y556454D01*
X666087Y556244D01*
X661084Y551241D01*
X660638Y550574D01*
X660527Y550016D01*
X658021D01*
Y544484D01*
X658021D01*
X657937Y542500D01*
Y526000D01*
X658021Y525798D01*
Y524984D01*
X658835D01*
X659037Y524900D01*
X664037D01*
X664239Y524984D01*
X665053D01*
Y525313D01*
X671521Y529001D01*
X674521Y527258D01*
Y524984D01*
X681553D01*
Y524984D01*
X684487Y524823D01*
X684503Y524815D01*
X684860Y524472D01*
X685637Y524150D01*
X688788D01*
Y521450D01*
X689110Y520672D01*
X689887Y520350D01*
X694187D01*
X694965Y520672D01*
X695287Y521450D01*
Y524150D01*
X708187D01*
X708471Y524268D01*
X708774Y524320D01*
X715671Y528668D01*
X718671Y527013D01*
Y524984D01*
X725703D01*
X725703Y524984D01*
X728654Y524866D01*
X728753Y524815D01*
X729110Y524472D01*
X729887Y524150D01*
X732937D01*
Y521450D01*
X733260Y520672D01*
X734037Y520350D01*
X738337D01*
X739115Y520672D01*
X739437Y521450D01*
Y524150D01*
X749566D01*
X759234Y521999D01*
Y521884D01*
X760250Y521800D01*
X762199Y521800D01*
X791750D01*
X791952Y521884D01*
X792766D01*
Y522698D01*
X792850Y522900D01*
Y542500D01*
X792766Y542702D01*
Y543516D01*
X791952D01*
X791750Y543600D01*
X776243D01*
X753887Y565956D01*
Y589000D01*
X753565Y589778D01*
X753065Y590278D01*
X752287Y590600D01*
X739537D01*
Y593300D01*
X739215Y594078D01*
X738437Y594400D01*
X734137D01*
X733360Y594078D01*
X733037Y593300D01*
Y590600D01*
X729987D01*
X729210Y590278D01*
X729110Y590178D01*
X728788Y589400D01*
X725803Y589438D01*
Y589766D01*
X724989D01*
X724787Y589850D01*
X719817D01*
X705846Y590598D01*
X705816Y590588D01*
X705787Y590600D01*
X695187D01*
Y593300D01*
X694865Y594078D01*
X694087Y594400D01*
X689787D01*
X689010Y594078D01*
X688688Y593300D01*
Y590600D01*
X685637D01*
X684806Y593371D01*
Y597750D01*
X684806Y597750D01*
X684649Y598537D01*
X684203Y599204D01*
X684203Y599204D01*
X681913Y601494D01*
X682000Y601704D01*
Y603296D01*
X681391Y604766D01*
X680266Y605891D01*
X678796Y606500D01*
D02*
G37*
G36*
X91749Y565270D02*
X89752D01*
X87906Y564506D01*
X86494Y563094D01*
X85730Y561249D01*
Y559252D01*
X86494Y557406D01*
X87906Y555994D01*
X89752Y555230D01*
X91749D01*
X93594Y555994D01*
X95006Y557406D01*
X95770Y559252D01*
Y561249D01*
X95006Y563094D01*
X93594Y564506D01*
X91749Y565270D01*
D02*
G37*
G36*
X379796Y582250D02*
X378204D01*
X376734Y581641D01*
X375609Y580516D01*
X375000Y579046D01*
Y577454D01*
X375609Y575984D01*
X376734Y574859D01*
X377685Y574465D01*
Y561245D01*
X377880Y560263D01*
X378131Y559888D01*
Y555531D01*
X378292Y554720D01*
X378752Y554033D01*
X379439Y553574D01*
X380250Y553412D01*
X381061Y553574D01*
X381748Y554033D01*
X382208Y554720D01*
X382369Y555531D01*
Y559888D01*
X382620Y560263D01*
X382815Y561245D01*
Y576459D01*
X382741Y576830D01*
X383000Y577454D01*
Y579046D01*
X382391Y580516D01*
X381266Y581641D01*
X379796Y582250D01*
D02*
G37*
G36*
X649687Y554650D02*
X645387D01*
X644610Y554328D01*
X644288Y553550D01*
Y550850D01*
X634037D01*
X633260Y550528D01*
X633186Y550350D01*
X631037D01*
X630260Y550028D01*
X629938Y549250D01*
Y546394D01*
X629938Y545250D01*
X630051Y544643D01*
X630260Y543528D01*
X629938Y542750D01*
X629938Y540661D01*
X629938Y538750D01*
X630051Y538143D01*
X630260Y537028D01*
X629938Y536250D01*
X629938Y534161D01*
X629938Y532250D01*
X630051Y531643D01*
X630260Y530528D01*
X629938Y529750D01*
X629938Y525750D01*
X630260Y524972D01*
X631037Y524650D01*
X633186D01*
X633260Y524472D01*
X634037Y524150D01*
X644288D01*
Y521450D01*
X644610Y520672D01*
X645387Y520350D01*
X649687D01*
X650465Y520672D01*
X650787Y521450D01*
Y524150D01*
X653837D01*
X654615Y524472D01*
X654937Y525250D01*
Y549750D01*
X654615Y550528D01*
X653837Y550850D01*
X650787D01*
Y553550D01*
X650465Y554328D01*
X649687Y554650D01*
D02*
G37*
G36*
X929724Y494500D02*
X926277D01*
X922896Y493828D01*
X919711Y492509D01*
X916845Y490593D01*
X914407Y488156D01*
X912492Y485289D01*
X911173Y482105D01*
X910500Y478724D01*
Y475277D01*
X911173Y471896D01*
X912492Y468711D01*
X914407Y465845D01*
X916845Y463407D01*
X919711Y461492D01*
X922896Y460173D01*
X926277Y459500D01*
X929724D01*
X933105Y460173D01*
X936290Y461492D01*
X939156Y463407D01*
X941593Y465845D01*
X943509Y468711D01*
X944828Y471896D01*
X945500Y475277D01*
Y478724D01*
X944828Y482105D01*
X943509Y485289D01*
X941593Y488156D01*
X939156Y490593D01*
X936290Y492509D01*
X933105Y493828D01*
X929724Y494500D01*
D02*
G37*
G36*
X637650Y445095D02*
X636083Y444783D01*
X634755Y443896D01*
X633867Y442567D01*
X633555Y441000D01*
Y437255D01*
X633394Y437094D01*
X632630Y435249D01*
Y433252D01*
X633394Y431407D01*
X633555Y431245D01*
Y427500D01*
X633867Y425933D01*
X634755Y424605D01*
X636083Y423717D01*
X637650Y423405D01*
X639217Y423717D01*
X640545Y424605D01*
X641433Y425933D01*
X641745Y427500D01*
Y431245D01*
X641906Y431407D01*
X642670Y433252D01*
Y435249D01*
X641906Y437094D01*
X641745Y437255D01*
Y441000D01*
X641433Y442567D01*
X640545Y443896D01*
X639217Y444783D01*
X637650Y445095D01*
D02*
G37*
G36*
X172400D02*
X170833Y444783D01*
X169505Y443896D01*
X168617Y442567D01*
X168305Y441000D01*
Y437255D01*
X168144Y437094D01*
X167380Y435249D01*
Y433252D01*
X168144Y431407D01*
X168305Y431245D01*
Y427500D01*
X168617Y425933D01*
X169505Y424605D01*
X170833Y423717D01*
X172400Y423405D01*
X173967Y423717D01*
X175295Y424605D01*
X176183Y425933D01*
X176495Y427500D01*
Y431245D01*
X176656Y431407D01*
X177420Y433252D01*
Y435249D01*
X176656Y437094D01*
X176495Y437255D01*
Y441000D01*
X176183Y442567D01*
X175295Y443896D01*
X173967Y444783D01*
X172400Y445095D01*
D02*
G37*
G36*
X405650Y445095D02*
X404083Y444783D01*
X402755Y443895D01*
X401867Y442567D01*
X401555Y441000D01*
Y437255D01*
X401394Y437094D01*
X400630Y435249D01*
Y433251D01*
X401394Y431407D01*
X401555Y431245D01*
Y427500D01*
X401867Y425933D01*
X402755Y424605D01*
X404083Y423717D01*
X405650Y423405D01*
X407217Y423717D01*
X408546Y424605D01*
X409433Y425933D01*
X409745Y427500D01*
Y431245D01*
X409906Y431407D01*
X410670Y433251D01*
Y435249D01*
X409906Y437094D01*
X409745Y437255D01*
Y441000D01*
X409433Y442567D01*
X408546Y443895D01*
X407217Y444783D01*
X405650Y445095D01*
D02*
G37*
G36*
X209296Y407500D02*
X207704D01*
X206536Y407016D01*
X203484D01*
X203484Y398016D01*
X203484Y396984D01*
Y390984D01*
X206537D01*
X207704Y390500D01*
X209296D01*
X210463Y390984D01*
X213516D01*
X213516Y399984D01*
X213516Y401016D01*
Y407016D01*
X210464D01*
X209296Y407500D01*
D02*
G37*
G36*
X674546D02*
X672954D01*
X671785Y407016D01*
X668734D01*
X668734Y398016D01*
X668734Y396984D01*
Y390984D01*
X671786D01*
X672954Y390500D01*
X674546D01*
X675714Y390984D01*
X678766D01*
X678766Y399984D01*
X678766Y401016D01*
Y407016D01*
X675715D01*
X674546Y407500D01*
D02*
G37*
G36*
X487546Y407500D02*
X485954D01*
X484786Y407016D01*
X481734D01*
X481734Y398016D01*
X481734Y396984D01*
Y390984D01*
X484786D01*
X485954Y390500D01*
X487546D01*
X488714Y390984D01*
X491766D01*
X491766Y399984D01*
X491766Y401016D01*
Y407016D01*
X488714D01*
X487546Y407500D01*
D02*
G37*
G36*
X22295Y407500D02*
X20704D01*
X19536Y407016D01*
X16484D01*
X16484Y398016D01*
X16484Y396984D01*
Y390984D01*
X19536D01*
X20704Y390500D01*
X22295D01*
X23464Y390984D01*
X26516D01*
X26516Y399984D01*
X26516Y401016D01*
Y407016D01*
X23464D01*
X22295Y407500D01*
D02*
G37*
G36*
X255546Y407500D02*
X253955D01*
X252786Y407016D01*
X249734D01*
X249734Y398016D01*
X249734Y396984D01*
Y390984D01*
X252786D01*
X253954Y390500D01*
X255546D01*
X256714Y390984D01*
X259766D01*
X259766Y399984D01*
X259766Y401016D01*
Y407016D01*
X256714D01*
X255546Y407500D01*
D02*
G37*
G36*
X442546Y407500D02*
X440955D01*
X439785Y407016D01*
X436734D01*
X436734Y398015D01*
X436734Y396984D01*
Y390983D01*
X439786D01*
X440955Y390499D01*
X442546D01*
X443714Y390983D01*
X446766D01*
X446766Y399984D01*
X446766Y401015D01*
Y407016D01*
X443716D01*
X442546Y407500D01*
D02*
G37*
G36*
X625296Y377500D02*
X623704D01*
X622234Y376891D01*
X621109Y375766D01*
X620500Y374296D01*
Y372704D01*
X621109Y371234D01*
X622234Y370109D01*
X623704Y369500D01*
X625296D01*
X626766Y370109D01*
X627891Y371234D01*
X628500Y372704D01*
Y374296D01*
X627891Y375766D01*
X626766Y376891D01*
X625296Y377500D01*
D02*
G37*
G36*
X160046D02*
X158454D01*
X156984Y376891D01*
X155859Y375766D01*
X155250Y374296D01*
Y372704D01*
X155859Y371234D01*
X156984Y370109D01*
X158454Y369500D01*
X160046D01*
X161516Y370109D01*
X162641Y371234D01*
X163250Y372704D01*
Y374296D01*
X162641Y375766D01*
X161516Y376891D01*
X160046Y377500D01*
D02*
G37*
G36*
X393296Y377500D02*
X391704D01*
X390234Y376891D01*
X389109Y375766D01*
X388500Y374296D01*
Y372704D01*
X389109Y371234D01*
X390234Y370109D01*
X391704Y369500D01*
X393296D01*
X394766Y370109D01*
X395891Y371234D01*
X396500Y372704D01*
Y374296D01*
X395891Y375766D01*
X394766Y376891D01*
X393296Y377500D01*
D02*
G37*
G36*
X674546Y369750D02*
X672954D01*
X671786Y369266D01*
X668734D01*
X668734Y360266D01*
X668734Y359234D01*
Y353234D01*
X671786D01*
X672954Y352751D01*
X674546D01*
X675714Y353234D01*
X678766D01*
X678766Y362234D01*
X678766Y363266D01*
Y369266D01*
X675714D01*
X674546Y369750D01*
D02*
G37*
G36*
X209296D02*
X207704D01*
X206536Y369266D01*
X203484D01*
X203484Y360266D01*
X203484Y359234D01*
Y353234D01*
X206536D01*
X207704Y352751D01*
X209296D01*
X210464Y353234D01*
X213516D01*
X213516Y362234D01*
X213516Y363266D01*
Y369266D01*
X210464D01*
X209296Y369750D01*
D02*
G37*
G36*
X487546Y369750D02*
X485955D01*
X484786Y369266D01*
X481734D01*
X481734Y360266D01*
X481734Y359234D01*
Y353234D01*
X484785D01*
X485954Y352750D01*
X487546D01*
X488715Y353234D01*
X491766D01*
X491766Y362234D01*
X491766Y363266D01*
Y369266D01*
X488714D01*
X487546Y369750D01*
D02*
G37*
G36*
X22295D02*
X20704D01*
X19536Y369266D01*
X16484D01*
X16484Y360266D01*
X16484Y359234D01*
Y353234D01*
X19536D01*
X20704Y352750D01*
X22295D01*
X23464Y353234D01*
X26516D01*
X26516Y362234D01*
X26516Y363266D01*
Y369266D01*
X23464D01*
X22295Y369750D01*
D02*
G37*
G36*
X442546Y369750D02*
X440955D01*
X439786Y369266D01*
X436734D01*
X436734Y360266D01*
X436734Y359234D01*
Y353234D01*
X439786D01*
X440955Y352750D01*
X442546D01*
X443714Y353234D01*
X446766D01*
X446766Y362234D01*
X446766Y363266D01*
Y369266D01*
X443714D01*
X442546Y369750D01*
D02*
G37*
G36*
X255546Y369751D02*
X253955D01*
X252786Y369267D01*
X249734D01*
X249734Y360266D01*
X249734Y359235D01*
Y353234D01*
X252785D01*
X253954Y352750D01*
X255546D01*
X256715Y353234D01*
X259766D01*
X259766Y362235D01*
X259766Y363266D01*
Y369267D01*
X256714D01*
X255546Y369751D01*
D02*
G37*
G36*
X586850Y354095D02*
X585283Y353783D01*
X583955Y352896D01*
X583067Y351567D01*
X583037Y351419D01*
X581753Y350620D01*
X579747D01*
X579544Y350566D01*
X577933Y351567D01*
X577045Y352896D01*
X575717Y353783D01*
X574150Y354095D01*
X572583Y353783D01*
X571255Y352896D01*
X570367Y351567D01*
X570055Y350000D01*
Y336500D01*
X570367Y334933D01*
X571255Y333605D01*
X572583Y332717D01*
X574150Y332406D01*
X575717Y332717D01*
X577045Y333605D01*
X577933Y334933D01*
X578981Y335585D01*
X579747Y335380D01*
X581753D01*
X582169Y335491D01*
X583067Y334933D01*
X583955Y333605D01*
X585283Y332717D01*
X586850Y332406D01*
X588417Y332717D01*
X589745Y333605D01*
X590633Y334933D01*
X590945Y336500D01*
Y350000D01*
X590633Y351567D01*
X589745Y352896D01*
X588417Y353783D01*
X586850Y354095D01*
D02*
G37*
G36*
X121600D02*
X120033Y353783D01*
X118705Y352896D01*
X117817Y351567D01*
X117788Y351419D01*
X116503Y350620D01*
X114497D01*
X114294Y350566D01*
X112683Y351567D01*
X111795Y352896D01*
X110467Y353783D01*
X108900Y354095D01*
X107333Y353783D01*
X106005Y352896D01*
X105117Y351567D01*
X104805Y350000D01*
Y336500D01*
X105117Y334933D01*
X106005Y333605D01*
X107333Y332717D01*
X108900Y332406D01*
X110467Y332717D01*
X111795Y333605D01*
X112683Y334933D01*
X113731Y335585D01*
X114497Y335380D01*
X116503D01*
X116919Y335491D01*
X117817Y334933D01*
X118705Y333605D01*
X120033Y332717D01*
X121600Y332406D01*
X123167Y332717D01*
X124495Y333605D01*
X125383Y334933D01*
X125695Y336500D01*
Y350000D01*
X125383Y351567D01*
X124495Y352896D01*
X123167Y353783D01*
X121600Y354095D01*
D02*
G37*
G36*
X354850Y354095D02*
X353283Y353783D01*
X351955Y352895D01*
X351067Y351567D01*
X351038Y351418D01*
X349753Y350620D01*
X347747D01*
X347544Y350565D01*
X345933Y351567D01*
X345046Y352895D01*
X343717Y353783D01*
X342150Y354095D01*
X340583Y353783D01*
X339255Y352895D01*
X338367Y351567D01*
X338055Y350000D01*
Y336500D01*
X338367Y334933D01*
X339255Y333605D01*
X340583Y332717D01*
X342150Y332405D01*
X343717Y332717D01*
X345046Y333605D01*
X345933Y334933D01*
X346982Y335585D01*
X347747Y335380D01*
X349753D01*
X350169Y335491D01*
X351067Y334933D01*
X351955Y333605D01*
X353283Y332717D01*
X354850Y332405D01*
X356417Y332717D01*
X357746Y333605D01*
X358633Y334933D01*
X358945Y336500D01*
Y350000D01*
X358633Y351567D01*
X357746Y352895D01*
X356417Y353783D01*
X354850Y354095D01*
D02*
G37*
G36*
X916126Y288556D02*
X913873D01*
X911697Y287973D01*
X909746Y286846D01*
X908153Y285253D01*
X907027Y283302D01*
X906444Y281126D01*
Y278873D01*
X907027Y276697D01*
X908153Y274746D01*
X909746Y273153D01*
X911697Y272027D01*
X913873Y271444D01*
X916126D01*
X918302Y272027D01*
X920253Y273153D01*
X921846Y274746D01*
X922973Y276697D01*
X923556Y278873D01*
Y281126D01*
X922973Y283302D01*
X921846Y285253D01*
X920253Y286846D01*
X918302Y287973D01*
X916126Y288556D01*
D02*
G37*
G36*
X722016Y481516D02*
X712984D01*
Y470984D01*
X712984D01*
X712984Y470266D01*
X712984D01*
Y459734D01*
X719609D01*
X723301Y456042D01*
X723301Y456042D01*
X723968Y455597D01*
X725314Y454101D01*
X725845Y452831D01*
X725845Y450980D01*
Y447480D01*
X734642D01*
X744186Y437936D01*
X745018Y437380D01*
X746000Y437185D01*
X762435D01*
Y288170D01*
X761698Y287973D01*
X759747Y286846D01*
X758154Y285253D01*
X757027Y283302D01*
X756444Y281126D01*
Y278873D01*
X757027Y276697D01*
X758154Y274746D01*
X759747Y273153D01*
X761698Y272027D01*
X763874Y271444D01*
X766126D01*
X768303Y272027D01*
X770254Y273153D01*
X771847Y274746D01*
X772973Y276697D01*
X773556Y278873D01*
Y281126D01*
X772973Y283302D01*
X771847Y285253D01*
X770254Y286846D01*
X768303Y287973D01*
X767565Y288170D01*
Y439750D01*
Y455250D01*
X767370Y456232D01*
X766814Y457064D01*
X758568Y465309D01*
X757736Y465866D01*
X756755Y466061D01*
X754877D01*
Y466511D01*
X744845D01*
X744845Y460480D01*
X742437Y459051D01*
X735877D01*
Y460012D01*
X725845D01*
X723518Y461638D01*
X722516Y462641D01*
Y470266D01*
X722516D01*
X722016Y470984D01*
Y481516D01*
D02*
G37*
G36*
X561450Y354095D02*
X559883Y353783D01*
X558555Y352896D01*
X557667Y351567D01*
X557355Y350000D01*
Y343250D01*
Y336500D01*
Y302766D01*
X535384D01*
Y275525D01*
X533105Y273246D01*
X532217Y271917D01*
X531906Y270350D01*
Y255350D01*
X532000Y254874D01*
Y254554D01*
X532123Y254259D01*
X532217Y253783D01*
X532487Y253379D01*
X532609Y253084D01*
X532835Y252858D01*
X533105Y252454D01*
X533508Y252185D01*
X533734Y251959D01*
X534030Y251837D01*
X534433Y251567D01*
X534909Y251472D01*
X535205Y251350D01*
X535524D01*
X536000Y251255D01*
X536476Y251350D01*
X536796D01*
X537091Y251472D01*
X537567Y251567D01*
X537971Y251837D01*
X538266Y251959D01*
X538492Y252185D01*
X538896Y252454D01*
X539165Y252858D01*
X539391Y253084D01*
X539514Y253379D01*
X539783Y253783D01*
X539878Y254259D01*
X540000Y254554D01*
Y254874D01*
X540095Y255350D01*
Y268654D01*
X541175Y269734D01*
X573116D01*
Y302766D01*
X565545D01*
Y343250D01*
Y350000D01*
X565233Y351567D01*
X564345Y352896D01*
X563017Y353783D01*
X561450Y354095D01*
D02*
G37*
G36*
X96200D02*
X94633Y353783D01*
X93305Y352896D01*
X92417Y351567D01*
X92105Y350000D01*
Y343250D01*
Y336500D01*
Y302766D01*
X70134D01*
Y275525D01*
X67855Y273246D01*
X66967Y271917D01*
X66656Y270350D01*
Y255350D01*
X66750Y254874D01*
Y254554D01*
X66873Y254259D01*
X66967Y253783D01*
X67237Y253379D01*
X67359Y253084D01*
X67585Y252858D01*
X67855Y252454D01*
X68258Y252185D01*
X68484Y251959D01*
X68780Y251837D01*
X69183Y251567D01*
X69659Y251472D01*
X69955Y251350D01*
X70274D01*
X70750Y251255D01*
X71226Y251350D01*
X71546D01*
X71841Y251472D01*
X72317Y251567D01*
X72721Y251837D01*
X73016Y251959D01*
X73242Y252185D01*
X73646Y252454D01*
X73915Y252858D01*
X74141Y253084D01*
X74264Y253379D01*
X74533Y253783D01*
X74628Y254259D01*
X74750Y254554D01*
Y254874D01*
X74845Y255350D01*
Y268654D01*
X75925Y269734D01*
X107866D01*
Y302766D01*
X100295D01*
Y343250D01*
Y350000D01*
X99983Y351567D01*
X99095Y352896D01*
X97767Y353783D01*
X96200Y354095D01*
D02*
G37*
G36*
X329450Y354095D02*
X327883Y353783D01*
X326555Y352895D01*
X325667Y351567D01*
X325355Y350000D01*
Y343250D01*
Y336500D01*
Y302765D01*
X303384D01*
Y275525D01*
X301105Y273245D01*
X300217Y271917D01*
X299906Y270350D01*
Y255350D01*
X300000Y254874D01*
Y254554D01*
X300123Y254259D01*
X300217Y253783D01*
X300487Y253379D01*
X300609Y253084D01*
X300835Y252858D01*
X301105Y252454D01*
X301509Y252185D01*
X301735Y251959D01*
X302030Y251836D01*
X302433Y251567D01*
X302910Y251472D01*
X303205Y251350D01*
X303524D01*
X304000Y251255D01*
X304477Y251350D01*
X304796D01*
X305091Y251472D01*
X305567Y251567D01*
X305971Y251836D01*
X306266Y251959D01*
X306492Y252185D01*
X306896Y252454D01*
X307166Y252858D01*
X307391Y253084D01*
X307514Y253379D01*
X307783Y253783D01*
X307878Y254259D01*
X308000Y254554D01*
Y254874D01*
X308095Y255350D01*
Y268654D01*
X309174Y269733D01*
X341116D01*
Y302765D01*
X333545D01*
Y343250D01*
Y350000D01*
X333233Y351567D01*
X332346Y352895D01*
X331017Y353783D01*
X329450Y354095D01*
D02*
G37*
G36*
X607546Y259250D02*
X605954D01*
X604484Y258641D01*
X603359Y257516D01*
X602750Y256045D01*
Y254454D01*
X603359Y252984D01*
X604484Y251859D01*
X605954Y251250D01*
X607546D01*
X609016Y251859D01*
X610141Y252984D01*
X610750Y254454D01*
Y256045D01*
X610141Y257516D01*
X609016Y258641D01*
X607546Y259250D01*
D02*
G37*
G36*
X142296D02*
X140704D01*
X139234Y258641D01*
X138109Y257516D01*
X137500Y256045D01*
Y254454D01*
X138109Y252984D01*
X139234Y251859D01*
X140704Y251250D01*
X142296D01*
X143766Y251859D01*
X144891Y252984D01*
X145500Y254454D01*
Y256045D01*
X144891Y257516D01*
X143766Y258641D01*
X142296Y259250D01*
D02*
G37*
G36*
X375546Y259250D02*
X373954D01*
X372484Y258641D01*
X371359Y257516D01*
X370750Y256045D01*
Y254454D01*
X371359Y252984D01*
X372484Y251859D01*
X373954Y251250D01*
X375546D01*
X377016Y251859D01*
X378141Y252984D01*
X378750Y254454D01*
Y256045D01*
X378141Y257516D01*
X377016Y258641D01*
X375546Y259250D01*
D02*
G37*
G36*
X678366Y240766D02*
X640634D01*
Y219472D01*
X640539Y218750D01*
Y201282D01*
X640145Y200888D01*
X639193Y200699D01*
X636505Y199586D01*
X634087Y197970D01*
X632030Y195913D01*
X630414Y193494D01*
X629301Y190807D01*
X628734Y187955D01*
Y185046D01*
X629301Y182193D01*
X630414Y179506D01*
X632030Y177087D01*
X634087Y175031D01*
X636505Y173415D01*
X639193Y172302D01*
X642045Y171734D01*
X644954D01*
X647807Y172302D01*
X650494Y173415D01*
X652912Y175031D01*
X654969Y177087D01*
X656585Y179506D01*
X657698Y182193D01*
X658266Y185046D01*
Y187582D01*
X659507Y188823D01*
X661273Y191124D01*
X662383Y193804D01*
X662761Y196680D01*
Y207734D01*
X678366D01*
Y240766D01*
D02*
G37*
G36*
X625616D02*
X587884D01*
Y207734D01*
X590389D01*
Y196272D01*
X590030Y195913D01*
X588414Y193494D01*
X587301Y190807D01*
X586734Y187955D01*
Y185046D01*
X587301Y182193D01*
X588414Y179506D01*
X590030Y177087D01*
X592087Y175031D01*
X594505Y173415D01*
X597193Y172302D01*
X600045Y171734D01*
X602954D01*
X605807Y172302D01*
X608494Y173415D01*
X610913Y175031D01*
X612969Y177087D01*
X614585Y179506D01*
X615698Y182193D01*
X616266Y185046D01*
Y187955D01*
X615698Y190807D01*
X614585Y193494D01*
X612969Y195913D01*
X612611Y196271D01*
Y207734D01*
X625616D01*
Y240766D01*
D02*
G37*
G36*
X573116D02*
X535384D01*
Y207734D01*
X546954D01*
Y194302D01*
X546414Y193494D01*
X545301Y190807D01*
X544734Y187955D01*
Y185046D01*
X545301Y182193D01*
X546414Y179506D01*
X548030Y177087D01*
X550087Y175031D01*
X552505Y173415D01*
X555193Y172302D01*
X558046Y171734D01*
X560954D01*
X563807Y172302D01*
X566494Y173415D01*
X568913Y175031D01*
X570969Y177087D01*
X572585Y179506D01*
X573698Y182193D01*
X574266Y185046D01*
Y187955D01*
X573698Y190807D01*
X572585Y193494D01*
X570969Y195913D01*
X569176Y197706D01*
Y207734D01*
X573116D01*
Y240766D01*
D02*
G37*
G36*
X520866D02*
X483134D01*
Y207734D01*
X498739D01*
Y196180D01*
X499117Y193304D01*
X500227Y190624D01*
X501993Y188323D01*
X502734Y187582D01*
Y185046D01*
X503301Y182193D01*
X504414Y179506D01*
X506030Y177087D01*
X508087Y175031D01*
X510506Y173415D01*
X513193Y172302D01*
X516046Y171734D01*
X518954D01*
X521807Y172302D01*
X524494Y173415D01*
X526913Y175031D01*
X528969Y177087D01*
X530585Y179506D01*
X531698Y182193D01*
X532266Y185046D01*
Y187955D01*
X531698Y190807D01*
X530585Y193494D01*
X528969Y195913D01*
X526913Y197970D01*
X524494Y199586D01*
X521807Y200699D01*
X520961Y200867D01*
Y218750D01*
X520866Y219472D01*
Y240766D01*
D02*
G37*
G36*
X213116Y240766D02*
X175384D01*
Y219472D01*
X175289Y218750D01*
Y201282D01*
X174895Y200888D01*
X173943Y200699D01*
X171256Y199586D01*
X168837Y197970D01*
X166781Y195913D01*
X165165Y193494D01*
X164052Y190807D01*
X163484Y187955D01*
Y185046D01*
X164052Y182193D01*
X165165Y179506D01*
X166781Y177087D01*
X168837Y175031D01*
X171256Y173415D01*
X173943Y172302D01*
X176796Y171734D01*
X179704D01*
X182557Y172302D01*
X185245Y173415D01*
X187663Y175031D01*
X189720Y177087D01*
X191336Y179506D01*
X192449Y182193D01*
X193016Y185046D01*
Y187582D01*
X194257Y188823D01*
X196023Y191124D01*
X197133Y193804D01*
X197511Y196680D01*
Y207734D01*
X213116D01*
Y240766D01*
D02*
G37*
G36*
X160366D02*
X122634D01*
Y207734D01*
X125139D01*
Y196271D01*
X124781Y195913D01*
X123165Y193494D01*
X122052Y190807D01*
X121484Y187955D01*
Y185046D01*
X122052Y182193D01*
X123165Y179506D01*
X124781Y177087D01*
X126838Y175031D01*
X129256Y173415D01*
X131943Y172302D01*
X134796Y171734D01*
X137705D01*
X140557Y172302D01*
X143244Y173415D01*
X145663Y175031D01*
X147720Y177087D01*
X149336Y179506D01*
X150449Y182193D01*
X151016Y185046D01*
Y187955D01*
X150449Y190807D01*
X149336Y193494D01*
X147720Y195913D01*
X147361Y196271D01*
Y207734D01*
X160366D01*
Y240766D01*
D02*
G37*
G36*
X107866D02*
X70134D01*
Y207734D01*
X81704D01*
Y194302D01*
X81164Y193494D01*
X80051Y190807D01*
X79484Y187955D01*
Y185046D01*
X80051Y182193D01*
X81164Y179506D01*
X82780Y177087D01*
X84837Y175031D01*
X87255Y173415D01*
X89943Y172302D01*
X92795Y171734D01*
X95704D01*
X98557Y172302D01*
X101244Y173415D01*
X103663Y175031D01*
X105719Y177087D01*
X107335Y179506D01*
X108448Y182193D01*
X109016Y185046D01*
Y187955D01*
X108448Y190807D01*
X107335Y193494D01*
X105719Y195913D01*
X103926Y197706D01*
Y207734D01*
X107866D01*
Y240766D01*
D02*
G37*
G36*
X55616D02*
X17884D01*
Y207734D01*
X33489D01*
Y196180D01*
X33867Y193304D01*
X34977Y190624D01*
X36743Y188323D01*
X37484Y187582D01*
Y185046D01*
X38051Y182193D01*
X39164Y179506D01*
X40780Y177087D01*
X42837Y175031D01*
X45256Y173415D01*
X47943Y172302D01*
X50796Y171734D01*
X53704D01*
X56557Y172302D01*
X59244Y173415D01*
X61663Y175031D01*
X63719Y177087D01*
X65335Y179506D01*
X66448Y182193D01*
X67016Y185046D01*
Y187955D01*
X66448Y190807D01*
X65335Y193494D01*
X63719Y195913D01*
X61663Y197970D01*
X59244Y199586D01*
X56557Y200699D01*
X55711Y200867D01*
Y218750D01*
X55616Y219472D01*
Y240766D01*
D02*
G37*
G36*
X446366Y240765D02*
X408634D01*
Y219472D01*
X408539Y218750D01*
Y201282D01*
X408145Y200888D01*
X407193Y200699D01*
X404506Y199585D01*
X402088Y197969D01*
X400031Y195913D01*
X398415Y193494D01*
X397302Y190807D01*
X396734Y187954D01*
Y185046D01*
X397302Y182193D01*
X398415Y179506D01*
X400031Y177087D01*
X402088Y175030D01*
X404506Y173415D01*
X407193Y172302D01*
X410046Y171734D01*
X412955D01*
X415807Y172302D01*
X418495Y173415D01*
X420913Y175030D01*
X422970Y177087D01*
X424586Y179506D01*
X425699Y182193D01*
X426266Y185046D01*
Y187582D01*
X427507Y188823D01*
X429273Y191124D01*
X430383Y193804D01*
X430761Y196679D01*
Y207733D01*
X446366D01*
Y240765D01*
D02*
G37*
G36*
X393616D02*
X355884D01*
Y207733D01*
X358389D01*
Y196272D01*
X358030Y195913D01*
X356414Y193494D01*
X355301Y190807D01*
X354734Y187954D01*
Y185046D01*
X355301Y182193D01*
X356414Y179506D01*
X358030Y177087D01*
X360087Y175030D01*
X362506Y173415D01*
X365193Y172302D01*
X368046Y171734D01*
X370954D01*
X373807Y172302D01*
X376494Y173415D01*
X378913Y175030D01*
X380969Y177087D01*
X382585Y179506D01*
X383698Y182193D01*
X384266Y185046D01*
Y187954D01*
X383698Y190807D01*
X382585Y193494D01*
X380969Y195913D01*
X380611Y196271D01*
Y207733D01*
X393616D01*
Y240765D01*
D02*
G37*
G36*
X341116D02*
X303384D01*
Y207733D01*
X314954D01*
Y194301D01*
X314415Y193494D01*
X313301Y190807D01*
X312734Y187954D01*
Y185046D01*
X313301Y182193D01*
X314415Y179506D01*
X316031Y177087D01*
X318087Y175030D01*
X320506Y173415D01*
X323193Y172302D01*
X326046Y171734D01*
X328954D01*
X331807Y172302D01*
X334494Y173415D01*
X336913Y175030D01*
X338969Y177087D01*
X340585Y179506D01*
X341698Y182193D01*
X342266Y185046D01*
Y187954D01*
X341698Y190807D01*
X340585Y193494D01*
X338969Y195913D01*
X337176Y197706D01*
Y207733D01*
X341116D01*
Y240765D01*
D02*
G37*
G36*
X288866D02*
X251134D01*
Y207733D01*
X266739D01*
Y196180D01*
X267118Y193304D01*
X268228Y190624D01*
X269993Y188323D01*
X270734Y187582D01*
Y185046D01*
X271301Y182193D01*
X272415Y179506D01*
X274031Y177087D01*
X276087Y175030D01*
X278506Y173415D01*
X281193Y172302D01*
X284046Y171734D01*
X286954D01*
X289807Y172302D01*
X292494Y173415D01*
X294913Y175030D01*
X296970Y177087D01*
X298585Y179506D01*
X299699Y182193D01*
X300266Y185046D01*
Y187954D01*
X299699Y190807D01*
X298585Y193494D01*
X296970Y195913D01*
X294913Y197969D01*
X292494Y199585D01*
X289807Y200699D01*
X288961Y200867D01*
Y218750D01*
X288866Y219472D01*
Y240765D01*
D02*
G37*
G36*
X645223Y89000D02*
X641776D01*
X638395Y88328D01*
X635210Y87008D01*
X632344Y85093D01*
X629907Y82656D01*
X627991Y79790D01*
X626672Y76605D01*
X626000Y73224D01*
Y69777D01*
X626672Y66396D01*
X627991Y63211D01*
X629907Y60345D01*
X632344Y57907D01*
X635210Y55992D01*
X638395Y54673D01*
X641776Y54000D01*
X645223D01*
X648604Y54673D01*
X651789Y55992D01*
X654655Y57907D01*
X657093Y60345D01*
X659008Y63211D01*
X660327Y66396D01*
X661000Y69777D01*
Y73224D01*
X660327Y76605D01*
X659008Y79790D01*
X657093Y82656D01*
X654655Y85093D01*
X651789Y87008D01*
X648604Y88328D01*
X645223Y89000D01*
D02*
G37*
G36*
X519224D02*
X515776D01*
X512395Y88328D01*
X509211Y87008D01*
X506344Y85093D01*
X503907Y82656D01*
X501992Y79790D01*
X500672Y76605D01*
X500000Y73224D01*
Y69777D01*
X500672Y66396D01*
X501992Y63211D01*
X503907Y60345D01*
X506344Y57907D01*
X509211Y55992D01*
X512395Y54673D01*
X515776Y54000D01*
X519224D01*
X522604Y54673D01*
X525789Y55992D01*
X528656Y57907D01*
X531093Y60345D01*
X533008Y63211D01*
X534327Y66396D01*
X535000Y69777D01*
Y73224D01*
X534327Y76605D01*
X533008Y79790D01*
X531093Y82656D01*
X528656Y85093D01*
X525789Y87008D01*
X522604Y88328D01*
X519224Y89000D01*
D02*
G37*
G36*
X179974D02*
X176527D01*
X173146Y88328D01*
X169961Y87008D01*
X167094Y85093D01*
X164657Y82656D01*
X162742Y79790D01*
X161423Y76605D01*
X160750Y73224D01*
Y69777D01*
X161423Y66396D01*
X162742Y63211D01*
X164657Y60345D01*
X167094Y57907D01*
X169961Y55992D01*
X173146Y54673D01*
X176527Y54000D01*
X179974D01*
X183355Y54673D01*
X186539Y55992D01*
X189406Y57907D01*
X191843Y60345D01*
X193758Y63211D01*
X195078Y66396D01*
X195750Y69777D01*
Y73224D01*
X195078Y76605D01*
X193758Y79790D01*
X191843Y82656D01*
X189406Y85093D01*
X186539Y87008D01*
X183355Y88328D01*
X179974Y89000D01*
D02*
G37*
G36*
X53973D02*
X50526D01*
X47145Y88328D01*
X43960Y87008D01*
X41094Y85093D01*
X38657Y82656D01*
X36742Y79790D01*
X35422Y76605D01*
X34750Y73224D01*
Y69777D01*
X35422Y66396D01*
X36742Y63211D01*
X38657Y60345D01*
X41094Y57907D01*
X43960Y55992D01*
X47145Y54673D01*
X50526Y54000D01*
X53973D01*
X57354Y54673D01*
X60539Y55992D01*
X63405Y57907D01*
X65843Y60345D01*
X67758Y63211D01*
X69077Y66396D01*
X69750Y69777D01*
Y73224D01*
X69077Y76605D01*
X67758Y79790D01*
X65843Y82656D01*
X63405Y85093D01*
X60539Y87008D01*
X57354Y88328D01*
X53973Y89000D01*
D02*
G37*
G36*
X413224Y89000D02*
X409777D01*
X406396Y88328D01*
X403211Y87008D01*
X400345Y85093D01*
X397907Y82656D01*
X395992Y79789D01*
X394673Y76604D01*
X394000Y73224D01*
Y69776D01*
X394673Y66395D01*
X395992Y63211D01*
X397907Y60344D01*
X400345Y57907D01*
X403211Y55992D01*
X406396Y54672D01*
X409777Y54000D01*
X413224D01*
X416605Y54672D01*
X419790Y55992D01*
X422656Y57907D01*
X425093Y60344D01*
X427009Y63211D01*
X428328Y66395D01*
X429000Y69776D01*
Y73224D01*
X428328Y76604D01*
X427009Y79789D01*
X425093Y82656D01*
X422656Y85093D01*
X419790Y87008D01*
X416605Y88328D01*
X413224Y89000D01*
D02*
G37*
G36*
X287224D02*
X283776D01*
X280396Y88328D01*
X277211Y87008D01*
X274345Y85093D01*
X271907Y82656D01*
X269992Y79789D01*
X268673Y76604D01*
X268000Y73224D01*
Y69776D01*
X268673Y66395D01*
X269992Y63211D01*
X271907Y60344D01*
X274345Y57907D01*
X277211Y55992D01*
X280396Y54672D01*
X283776Y54000D01*
X287224D01*
X290605Y54672D01*
X293789Y55992D01*
X296656Y57907D01*
X299093Y60344D01*
X301008Y63211D01*
X302327Y66395D01*
X303000Y69776D01*
Y73224D01*
X302327Y76604D01*
X301008Y79789D01*
X299093Y82656D01*
X296656Y85093D01*
X293789Y87008D01*
X290605Y88328D01*
X287224Y89000D01*
D02*
G37*
%LPD*%
G36*
X135000Y814250D02*
X128000D01*
X124000Y819250D01*
Y827750D01*
X135000D01*
Y814250D01*
D02*
G37*
G36*
X94000Y819250D02*
X90000Y814250D01*
X83000D01*
Y827750D01*
X94000D01*
Y819250D01*
D02*
G37*
G36*
X203389Y833167D02*
X204729Y830453D01*
X204729Y830453D01*
X201821Y827545D01*
X192973D01*
Y822465D01*
Y812463D01*
Y802460D01*
X204784D01*
Y802945D01*
X211453D01*
X212057Y801486D01*
X213182Y800360D01*
X213921Y800054D01*
X213324Y797054D01*
X204784D01*
Y797538D01*
X192973D01*
Y796603D01*
X190202Y795455D01*
X174726Y810931D01*
X174059Y811376D01*
X173923Y811403D01*
Y824638D01*
X182980Y833695D01*
X202990D01*
X203389Y833167D01*
D02*
G37*
G36*
X135000Y791750D02*
X124000D01*
Y800250D01*
X128000Y805250D01*
X135000D01*
Y791750D01*
D02*
G37*
G36*
X94000Y800250D02*
Y791750D01*
X83000D01*
Y805250D01*
X90000D01*
X94000Y800250D01*
D02*
G37*
G36*
X106500Y774400D02*
X113574Y768605D01*
Y759983D01*
X113530Y759939D01*
X94252D01*
Y768561D01*
X101300Y774400D01*
Y779600D01*
X106500D01*
Y774400D01*
D02*
G37*
G36*
X868329Y697188D02*
X799444D01*
X746500Y701155D01*
Y720755D01*
X799444Y724722D01*
X868329D01*
Y697188D01*
D02*
G37*
G36*
X666650Y701250D02*
X661650D01*
X650250Y694750D01*
X645250D01*
Y711250D01*
X650250D01*
X661650Y717750D01*
X666650D01*
Y701250D01*
D02*
G37*
G36*
Y661500D02*
X661650D01*
X650250Y655000D01*
X645250D01*
Y671500D01*
X650250D01*
X661650Y678000D01*
X666650D01*
Y661500D01*
D02*
G37*
G36*
X705500Y717750D02*
X710500D01*
Y701250D01*
X705500D01*
X694000Y694000D01*
X691500D01*
Y678750D01*
X705500Y678000D01*
X710500D01*
Y661500D01*
X705500D01*
X694000Y654250D01*
X671700D01*
Y694000D01*
Y718500D01*
X691500D01*
X705500Y717750D01*
D02*
G37*
G36*
X739037Y718155D02*
Y694655D01*
X762037Y671655D01*
X778000D01*
Y652055D01*
X746500D01*
X736635Y654250D01*
X715750D01*
Y718168D01*
X716237Y718655D01*
X738537D01*
X739037Y718155D01*
D02*
G37*
G36*
X605424Y659296D02*
X582585Y648557D01*
X581908D01*
Y648239D01*
X580424Y647541D01*
Y637541D01*
X573424D01*
Y647541D01*
X571940Y648239D01*
Y648557D01*
X571264D01*
X548424Y659296D01*
Y675296D01*
X605424D01*
Y659296D01*
D02*
G37*
G36*
X606441Y658280D02*
X608763Y656687D01*
X609393Y656080D01*
X609409Y653066D01*
X590399Y634055D01*
X582720D01*
X581441Y636525D01*
X581441Y637339D01*
X581524Y637541D01*
Y646843D01*
X582377Y647244D01*
X582507Y647387D01*
X582686Y647461D01*
X582705Y647507D01*
X582810Y647551D01*
X583053Y647562D01*
X605848Y658280D01*
X606441Y658280D01*
D02*
G37*
G36*
X868750Y555305D02*
X860695Y547250D01*
X813000D01*
X760250Y572000D01*
Y591600D01*
X813000Y616750D01*
X868750D01*
Y555305D01*
D02*
G37*
G36*
X680437Y572250D02*
X675437D01*
X664037Y565750D01*
X659037D01*
Y582250D01*
X664037D01*
X675437Y588750D01*
X680437D01*
Y572250D01*
D02*
G37*
G36*
Y532500D02*
X675437D01*
X664037Y526000D01*
X659037D01*
Y542500D01*
X664037D01*
X675437Y549000D01*
X680437D01*
Y532500D01*
D02*
G37*
G36*
X719787Y588750D02*
X724787D01*
Y572250D01*
X719787D01*
X708287Y565000D01*
X705437D01*
Y549750D01*
X705687D01*
X719687Y549000D01*
X724687D01*
Y532500D01*
X719687D01*
X708187Y525250D01*
X685637D01*
Y589500D01*
X705787D01*
X719787Y588750D01*
D02*
G37*
G36*
X752787Y589000D02*
Y565500D01*
X775787Y542500D01*
X791750D01*
Y522900D01*
X760250D01*
X749687Y525250D01*
X729887D01*
Y589400D01*
X729987Y589500D01*
X752287D01*
X752787Y589000D01*
D02*
G37*
G36*
X762435Y454187D02*
Y442315D01*
X747063D01*
X737660Y451718D01*
X737446Y451989D01*
X737700Y453446D01*
X738531Y454940D01*
X744845D01*
Y453980D01*
X754877D01*
Y457503D01*
X757877Y458745D01*
X762435Y454187D01*
D02*
G37*
D10*
X551900Y286250D02*
X554250D01*
X536000Y270350D02*
X551900Y286250D01*
X536000Y255350D02*
Y270350D01*
X606750Y286250D02*
X609100D01*
X625000Y270350D01*
Y255250D02*
Y270350D01*
X502000Y286250D02*
X504350D01*
X548750Y330650D01*
Y343250D01*
X561450Y293450D02*
Y343250D01*
X554250Y286250D02*
X561450Y293450D01*
X599550D02*
X606750Y286250D01*
X657150D02*
X659500D01*
X612250Y331150D02*
X657150Y286250D01*
X612250Y331150D02*
Y343250D01*
X599550Y293450D02*
Y343250D01*
X319900Y286250D02*
X322250D01*
X304000Y270350D02*
X319900Y286250D01*
X304000Y255350D02*
Y270350D01*
X374750Y286250D02*
X377100D01*
X393000Y270350D01*
Y255250D02*
Y270350D01*
X270000Y286250D02*
X272350D01*
X316750Y330650D01*
Y343250D01*
X329450Y293450D02*
Y343250D01*
X322250Y286250D02*
X329450Y293450D01*
X367550D02*
X374750Y286250D01*
X425150D02*
X427500D01*
X380250Y331150D02*
X425150Y286250D01*
X380250Y331150D02*
Y343250D01*
X367550Y293450D02*
Y343250D01*
X134300Y293450D02*
Y343250D01*
X147000Y331150D02*
Y343250D01*
Y331150D02*
X191900Y286250D01*
X194250D01*
X134300Y293450D02*
X141500Y286250D01*
X89000D02*
X96200Y293450D01*
Y343250D01*
X83500Y330650D02*
Y343250D01*
X39100Y286250D02*
X83500Y330650D01*
X36750Y286250D02*
X39100D01*
X159750Y255250D02*
Y270350D01*
X143850Y286250D02*
X159750Y270350D01*
X141500Y286250D02*
X143850D01*
X70750Y255350D02*
Y270350D01*
X86650Y286250D01*
X89000D01*
D13*
X561920Y640041D02*
X566424D01*
X552500Y636750D02*
X558628D01*
X561920Y640041D01*
X566424D02*
X567425Y641041D01*
Y642541D01*
X539750Y644750D02*
Y655750D01*
X533250Y662250D02*
X539750Y655750D01*
X533250Y662250D02*
Y668000D01*
X503250Y646750D02*
X506000Y644000D01*
X503250Y646750D02*
Y668000D01*
X552500Y660296D02*
X559500Y667296D01*
X552500Y644750D02*
Y660296D01*
X559500Y667296D02*
X576925D01*
D15*
X153948Y815001D02*
Y818802D01*
X132000Y840750D02*
X153948Y818802D01*
X132000Y840750D02*
Y872603D01*
X121750Y882853D02*
X132000Y872603D01*
X396005Y627000D02*
X455500D01*
X489750Y600000D02*
X555000D01*
X396005Y632000D02*
X457750D01*
X489750Y600000D01*
X179750Y725750D02*
X208750Y696750D01*
X185927Y728309D02*
Y729844D01*
X211766Y662499D02*
Y697999D01*
X185927Y723838D02*
X211766Y697999D01*
X185927Y723838D02*
Y728309D01*
X208750Y661250D02*
Y696750D01*
X132584Y805284D02*
X149105D01*
X129500Y797250D02*
X130429Y798179D01*
Y803129D02*
X132584Y805284D01*
X130429Y798179D02*
Y803129D01*
X95500Y724250D02*
Y738500D01*
X88859Y745141D02*
X95500Y738500D01*
Y724250D02*
X99750Y720000D01*
X88859Y745141D02*
Y747917D01*
X85017Y751759D02*
X88859Y747917D01*
X119179Y744929D02*
Y748129D01*
X122809Y751759D01*
X112500Y724250D02*
Y738250D01*
X119179Y744929D01*
X105508Y574242D02*
X120750Y559000D01*
X102492Y572993D02*
X119501Y555984D01*
X160249D01*
X120750Y559000D02*
X159000D01*
X90464Y770225D02*
Y781874D01*
X88500Y783838D02*
Y797250D01*
Y783838D02*
X90464Y781874D01*
X85017Y764778D02*
X90464Y770225D01*
X85017Y764250D02*
Y764778D01*
Y751759D02*
Y764250D01*
X122809Y764294D02*
Y786691D01*
Y751759D02*
Y764294D01*
X88500Y821000D02*
X122809Y786691D01*
X159000Y559000D02*
X164492Y564492D01*
X168680Y583250D02*
X187000D01*
X145000D02*
X163320D01*
X160249Y555984D02*
X167508Y563243D01*
X164492Y564492D02*
Y582078D01*
X163320Y583250D02*
X164492Y582078D01*
X167508D02*
X168680Y583250D01*
X167508Y563243D02*
Y582078D01*
X108250Y720000D02*
X112500Y724250D01*
X106679Y720000D02*
X108250D01*
X102492Y572993D02*
Y718828D01*
X99750Y720000D02*
X101320D01*
X105508Y574242D02*
Y718828D01*
X101320Y720000D02*
X102492Y718828D01*
X105508D02*
X106679Y720000D01*
X345250Y535000D02*
Y561245D01*
X350250Y530000D02*
Y561245D01*
X324350Y799900D02*
Y860000D01*
Y799900D02*
X380250Y744000D01*
X219846Y736654D02*
Y742029D01*
X218125Y743750D02*
X219846Y742029D01*
X223250Y670469D02*
Y733250D01*
X219846Y736654D02*
X223250Y733250D01*
Y670469D02*
X236719Y657000D01*
X176250Y749666D02*
X179750Y746167D01*
X238748Y642000D02*
X244495D01*
X211766Y662499D02*
X233257Y641008D01*
X175000Y749666D02*
X176250D01*
X208750Y661250D02*
X232008Y637992D01*
X170750Y753916D02*
X175000Y749666D01*
X237756Y637992D02*
X238748Y637000D01*
X232008Y637992D02*
X237756D01*
X179750Y725750D02*
Y746167D01*
X185927Y729844D02*
X188250Y732167D01*
X170750Y753916D02*
Y755166D01*
X238748Y637000D02*
X244495D01*
X233257Y641008D02*
X237756D01*
X238748Y642000D01*
X712889Y658757D02*
Y681111D01*
X700383Y686117D02*
X707883D01*
X712889Y681111D01*
X644618Y676000D02*
X647500D01*
X642861Y674243D02*
X644618Y676000D01*
X642861Y653889D02*
X655500Y641250D01*
X647500Y676000D02*
X647750Y676250D01*
X642861Y653889D02*
Y674243D01*
X611500Y652250D02*
Y700221D01*
X591250Y632000D02*
X611500Y652250D01*
X597432Y714289D02*
X611500Y700221D01*
X642566Y693684D02*
Y713993D01*
X647500Y715750D02*
X647750Y716000D01*
X644323Y715750D02*
X647500D01*
X642566Y713993D02*
X644323Y715750D01*
X642566Y693684D02*
X650250Y686000D01*
X655750D01*
X129500Y820507D02*
Y821000D01*
X140707Y809300D02*
X150768D01*
X164652Y805000D02*
X168018D01*
X164160Y800491D02*
X164652Y799999D01*
X129500Y820507D02*
X140707Y809300D01*
X153897Y800491D02*
X164160D01*
X155561Y804508D02*
X164160D01*
X150768Y809300D02*
X155561Y804508D01*
X149105Y805284D02*
X153897Y800491D01*
X164652Y799999D02*
X168018D01*
X164160Y804508D02*
X164652Y805000D01*
X219000Y622000D02*
X244495D01*
X123750Y515750D02*
X278500D01*
X83500Y468750D02*
X126000Y511250D01*
X129000Y506750D02*
X282500D01*
X96000Y473750D02*
X129000Y506750D01*
X284250Y502000D02*
X305250Y523000D01*
X280750Y511250D02*
X295250Y525750D01*
X146750Y474250D02*
X166000Y493500D01*
X134328Y468578D02*
X163500Y497750D01*
X282500Y506750D02*
X300250Y524500D01*
X163500Y497750D02*
X286000D01*
X160750Y502000D02*
X284250D01*
X122500Y463750D02*
X160750Y502000D01*
X71750Y463750D02*
X123750Y515750D01*
X166000Y493500D02*
X287750D01*
X126000Y511250D02*
X280750D01*
X287750Y493500D02*
X315250Y521000D01*
X278500Y515750D02*
X290250Y527500D01*
X286000Y497750D02*
X310250Y522000D01*
X717625Y464625D02*
Y476125D01*
X724754Y457496D02*
X730361D01*
X730861Y456996D01*
X717625Y464625D02*
X724754Y457496D01*
X730861Y456996D02*
X749861D01*
X717500Y476250D02*
X717625Y476125D01*
X512062Y403512D02*
X536050Y427500D01*
X502750Y403500D02*
X502761Y403512D01*
X536050Y427500D02*
Y434250D01*
X502761Y403512D02*
X512062D01*
X561450Y415200D02*
Y434250D01*
X502750Y365750D02*
X512000D01*
X561450Y415200D01*
X612250Y427500D02*
Y434250D01*
Y427500D02*
X645250Y394500D01*
X657750D01*
X657193Y357307D02*
X657750Y356750D01*
X599525Y434275D02*
X599550Y434250D01*
X599525Y434275D02*
Y454975D01*
X599500Y455000D02*
X599525Y454975D01*
X548750Y434250D02*
X548750Y434250D01*
Y455000D02*
X548750Y455000D01*
X548750Y434250D02*
Y455000D01*
X561250Y450250D02*
X561450Y450050D01*
Y434250D02*
Y450050D01*
X536050D02*
X536250Y450250D01*
X536050Y434250D02*
Y450050D01*
X586850Y450100D02*
X587000Y450250D01*
X586850Y434250D02*
Y450100D01*
X612000Y450250D02*
X612250Y450000D01*
Y434250D02*
Y450000D01*
X599943Y357307D02*
X657193D01*
X586850Y370400D02*
Y434250D01*
Y370400D02*
X599943Y357307D01*
X280062Y403512D02*
X304050Y427500D01*
X270750Y403500D02*
X270762Y403512D01*
X304050Y427500D02*
Y434250D01*
X270762Y403512D02*
X280062D01*
X329450Y415200D02*
Y434250D01*
X270751Y365750D02*
X280000D01*
X329450Y415200D01*
X380250Y427500D02*
Y434250D01*
Y427500D02*
X413250Y394500D01*
X425750D01*
X425193Y357307D02*
X425750Y356750D01*
X367525Y434275D02*
X367550Y434250D01*
X367525Y434275D02*
Y454975D01*
X367500Y455000D02*
X367525Y454975D01*
X316750Y434250D02*
X316750Y434250D01*
Y455000D02*
X316750Y455000D01*
X316750Y434250D02*
Y455000D01*
X329250Y450250D02*
X329450Y450050D01*
Y434250D02*
Y450050D01*
X304050D02*
X304250Y450250D01*
X304050Y434250D02*
Y450050D01*
X354850Y450100D02*
X355000Y450250D01*
X354850Y434250D02*
Y450100D01*
X380000Y450250D02*
X380250Y450000D01*
Y434250D02*
Y450000D01*
X367943Y357307D02*
X425193D01*
X354850Y370400D02*
Y434250D01*
Y370400D02*
X367943Y357307D01*
X257500Y835750D02*
X370250Y723000D01*
X171383Y825005D02*
X182128Y835750D01*
X257500D01*
X202244Y825005D02*
X202768Y825529D01*
Y825586D02*
X206182Y829000D01*
X254000D01*
X198879Y825005D02*
X202244D01*
X202768Y825529D02*
Y825586D01*
X209395Y820004D02*
X212141Y822750D01*
X264000D01*
X365250Y721500D01*
X198903Y810025D02*
X223275D01*
X223500Y810250D01*
X269500D01*
X340000Y660750D02*
X370250Y691000D01*
X340000Y653500D02*
Y660750D01*
X370250Y691000D02*
Y712755D01*
X335000Y647000D02*
Y663000D01*
X365250Y693250D01*
Y712755D01*
X369500Y671250D02*
X375250Y677000D01*
Y712755D01*
X389229Y682000D02*
X396005D01*
X384500Y686729D02*
X389229Y682000D01*
X384500Y686729D02*
Y745500D01*
X330000Y640500D02*
Y665500D01*
X360111Y695611D01*
X360250Y695750D02*
Y712755D01*
X380250D02*
Y744000D01*
X337050Y792950D02*
X384500Y745500D01*
X337050Y792950D02*
Y860000D01*
X418250Y657000D02*
X480000Y718750D01*
Y763000D01*
X396005Y657000D02*
X418250D01*
X459000Y705000D02*
Y784000D01*
X416000Y662000D02*
X459000Y705000D01*
X396005Y662000D02*
X416000D01*
X315250Y712755D02*
Y728222D01*
X311500Y731972D02*
Y732250D01*
Y731972D02*
X315250Y728222D01*
X567425Y628675D02*
X570750Y632000D01*
X591250D01*
X589174Y714289D02*
X597432D01*
X567425Y620551D02*
Y628675D01*
X747000Y730000D02*
X780000Y763000D01*
X517250Y730000D02*
X747000D01*
X424250Y637000D02*
X517250Y730000D01*
X396005Y637000D02*
X424250D01*
X396005Y642000D02*
X423000D01*
X516000Y735000D01*
X744000D01*
X421500Y647000D02*
X514250Y739750D01*
X396005Y647000D02*
X421500D01*
X514250Y739750D02*
X606750D01*
X744000Y735000D02*
X758750Y749750D01*
X606750Y739750D02*
X630000Y763000D01*
X419750Y652000D02*
X512000Y744250D01*
X537000D02*
X576500Y783750D01*
X512000Y744250D02*
X537000D01*
X396005Y652000D02*
X419750D01*
X576500Y783750D02*
X608750D01*
X606250Y476250D02*
X705000D01*
X455500Y627000D02*
X606250Y476250D01*
X396005Y622000D02*
X453000D01*
X611250Y463750D01*
X450250Y617000D02*
X598672Y468578D01*
Y464828D02*
X599500Y464000D01*
X598672Y464828D02*
Y468578D01*
X587000Y463750D02*
Y473000D01*
X448000Y612000D02*
X587000Y473000D01*
X396005Y597000D02*
X440500D01*
X536250Y463750D02*
Y501250D01*
X440500Y597000D02*
X536250Y501250D01*
X548750Y464000D02*
Y496500D01*
X443250Y602000D02*
X548750Y496500D01*
X396005Y602000D02*
X443250D01*
X396005Y607000D02*
X445500D01*
X561250Y491250D01*
Y463750D02*
Y491250D01*
X396005Y612000D02*
X448000D01*
X396005Y617000D02*
X450250D01*
X611250Y463750D02*
X612000D01*
X758750Y749750D02*
Y783750D01*
X780000Y805000D01*
X608750Y783750D02*
X630000Y805000D01*
X459000Y784000D02*
X480000Y805000D01*
X396005Y577000D02*
X415000D01*
X396005Y582000D02*
X420000D01*
X396005Y587000D02*
X425000D01*
X396005Y592000D02*
X430000D01*
X365250Y524000D02*
X380000Y509250D01*
Y463750D02*
Y509250D01*
X365250Y524000D02*
Y561245D01*
X367500Y464000D02*
Y514500D01*
X360250Y521750D02*
Y561245D01*
Y521750D02*
X367500Y514500D01*
X355000Y463750D02*
X355250Y464000D01*
Y561245D01*
X340250Y540000D02*
Y561245D01*
X335250Y545000D02*
Y561245D01*
X329250Y463750D02*
X330250Y464750D01*
Y561245D01*
X316750Y464000D02*
Y510000D01*
X325250Y518500D02*
Y561245D01*
X316750Y510000D02*
X325250Y518500D01*
X320250Y520000D02*
Y561245D01*
X304250Y504000D02*
X320250Y520000D01*
X304250Y463750D02*
Y504000D01*
X146750Y463750D02*
Y474250D01*
X315250Y521000D02*
Y561245D01*
X134328Y464078D02*
Y468578D01*
X134250Y464000D02*
X134328Y464078D01*
X310250Y522000D02*
Y561245D01*
X305250Y523000D02*
Y561245D01*
X121750Y463750D02*
X122500D01*
X96000D02*
Y473750D01*
X83500Y464000D02*
Y468750D01*
X300250Y524500D02*
Y561245D01*
X295250Y525750D02*
Y561245D01*
X285250Y530000D02*
Y561245D01*
X290250Y527500D02*
Y561245D01*
X71000Y463750D02*
X71750D01*
X121600Y370400D02*
X134693Y357307D01*
X121600Y370400D02*
Y434250D01*
X134693Y357307D02*
X191943D01*
X280250Y535000D02*
Y561245D01*
X270250Y545000D02*
Y561245D01*
X275250Y540000D02*
Y561245D01*
X147000Y434250D02*
Y450000D01*
X146750Y450250D02*
X147000Y450000D01*
X121600Y434250D02*
Y450100D01*
X121750Y450250D01*
X70800Y434250D02*
Y450050D01*
X71000Y450250D01*
X96200Y434250D02*
Y450050D01*
X96000Y450250D02*
X96200Y450050D01*
X83500Y434250D02*
Y455000D01*
X83500Y455000D01*
X83500Y434250D02*
X83500Y434250D01*
X134250Y455000D02*
X134275Y454975D01*
Y434275D02*
Y454975D01*
Y434275D02*
X134300Y434250D01*
X191943Y357307D02*
X192500Y356750D01*
X180000Y394500D02*
X192500D01*
X147000Y427500D02*
X180000Y394500D01*
X147000Y427500D02*
Y434250D01*
X46750Y365750D02*
X96200Y415200D01*
X37500Y365750D02*
X46750D01*
X96200Y415200D02*
Y434250D01*
X37511Y403512D02*
X46812D01*
X70800Y427500D02*
Y434250D01*
X37500Y403500D02*
X37511Y403512D01*
X46812D02*
X70800Y427500D01*
X219000Y632750D02*
X224750Y627000D01*
X244495D01*
X244495Y632000D02*
X261350D01*
X244495Y632000D02*
X244495Y632000D01*
X236719Y657000D02*
X244495D01*
X226375Y672344D02*
Y743750D01*
Y672344D02*
X236719Y662000D01*
X244495D01*
X335226Y712779D02*
X335250Y712755D01*
X277250Y777000D02*
X335226Y719024D01*
X187059Y777000D02*
X277250D01*
X335226Y712779D02*
Y719024D01*
X197000Y785750D02*
X278000D01*
X168018Y810001D02*
X168542Y809477D01*
X173273D02*
X197000Y785750D01*
X168542Y809477D02*
X173273D01*
X278000Y785750D02*
X330000Y733750D01*
X223500Y795000D02*
X278000D01*
X350250Y722750D01*
Y712755D02*
Y722750D01*
X269500Y810250D02*
X355250Y724500D01*
Y712755D02*
Y724500D01*
X178059Y777000D02*
Y788322D01*
X171907Y794473D02*
Y794474D01*
Y794473D02*
X178059Y788322D01*
X171383Y794998D02*
X171907Y794474D01*
X168018Y794998D02*
X171383D01*
X365250Y712755D02*
Y721500D01*
X168018Y825005D02*
X171383D01*
X370250Y712755D02*
Y723000D01*
X198879Y820004D02*
X209395D01*
X290250Y712755D02*
Y750000D01*
X121500Y895500D02*
X135500Y881500D01*
Y846000D02*
Y881500D01*
Y846000D02*
X161472Y820028D01*
X167994D01*
X168018Y820004D01*
X198879Y810001D02*
X198903Y810025D01*
X198880Y794999D02*
X223499D01*
X223500Y795000D01*
X198879Y794998D02*
X198880Y794999D01*
X198879Y805001D02*
X213658D01*
X214907Y803751D01*
Y816501D02*
X215448D01*
X198879Y815003D02*
X213408D01*
X214907Y816501D01*
Y803751D02*
X215448D01*
X153949Y815002D02*
X168017D01*
X168018Y815003D01*
X153948Y815001D02*
X153949Y815002D01*
X198879Y805000D02*
X198879Y805001D01*
X725493Y528000D02*
X727250Y529757D01*
Y551887D01*
X722437Y528000D02*
X725493D01*
X721637Y557500D02*
X727250Y551887D01*
X722187Y527750D02*
X722437Y528000D01*
X714250Y557500D02*
X721637D01*
X714633Y560595D02*
X721537Y567500D01*
X722287D01*
X714633Y557883D02*
Y560595D01*
X714250Y557500D02*
X714633Y557883D01*
X708000Y656750D02*
X708250Y657000D01*
X711132D02*
X712889Y658757D01*
X708250Y657000D02*
X711132D01*
X700000Y686500D02*
X700383Y686117D01*
X707000Y696250D02*
X707250Y696500D01*
X708000D01*
X700000Y686500D02*
X707000Y693500D01*
Y696250D01*
X656133Y689383D02*
X663250Y696500D01*
X655750Y686000D02*
X656133Y686383D01*
X663250Y696500D02*
X664000D01*
X656133Y686383D02*
Y689383D01*
X655500Y641250D02*
X664000D01*
X664000Y641250D02*
Y656750D01*
X664000Y656750D01*
X664000Y641250D02*
X664000Y641250D01*
X670000Y557250D02*
X670471Y557721D01*
X677187Y567500D02*
X677937D01*
X678417Y567980D01*
X680539D02*
X682750Y570191D01*
X678417Y567980D02*
X680539D01*
X682750Y570191D02*
Y597750D01*
X662537Y547500D02*
Y549787D01*
X661537Y547250D02*
X662287D01*
X670000Y557250D02*
Y557250D01*
X662537Y549787D02*
X670000Y557250D01*
X662287Y547250D02*
X662537Y547500D01*
X681243Y528000D02*
X683000Y529757D01*
X678287Y528000D02*
X681243D01*
X683000Y529757D02*
Y551987D01*
X678037Y527750D02*
X678287Y528000D01*
X677737Y557250D02*
X683000Y551987D01*
X670000Y557250D02*
X677737D01*
X662287Y587000D02*
X677787Y602500D01*
X678000D01*
X682750Y597750D01*
X661537Y587000D02*
X662287D01*
D17*
X191163Y800253D02*
X198625D01*
X198879Y799999D01*
X190416Y801000D02*
X191163Y800253D01*
X189750Y801000D02*
X190416D01*
X408250Y692000D02*
X408500Y692250D01*
X396005Y692000D02*
X408250D01*
D20*
X370250Y533312D02*
X372750Y530812D01*
X370250Y533312D02*
Y561245D01*
X372750Y530000D02*
Y530812D01*
X259059Y597000D02*
X260559Y595500D01*
X244495Y597000D02*
X259059D01*
X260559Y595500D02*
X261100D01*
X396005Y697000D02*
Y716751D01*
X421000Y695628D02*
Y716250D01*
X396005Y687000D02*
X412372D01*
X421000Y695628D01*
X765000Y439750D02*
Y455250D01*
X756755Y463495D02*
X765000Y455250D01*
X749861Y463495D02*
X756755D01*
X746000Y439750D02*
X765000D01*
Y280000D02*
Y439750D01*
X735254Y450496D02*
X746000Y439750D01*
X730861Y450496D02*
X735254D01*
X260250Y697541D02*
X261500Y696291D01*
X260250Y697541D02*
Y712755D01*
X261500Y695750D02*
Y696291D01*
X366500Y577709D02*
X370250Y573959D01*
X366500Y577709D02*
Y578250D01*
X370250Y561245D02*
Y573959D01*
X379000Y577709D02*
X380250Y576459D01*
X379000Y577709D02*
Y578250D01*
X380250Y561245D02*
Y576459D01*
X265250Y561245D02*
Y578250D01*
X258004Y602000D02*
X260963Y604959D01*
X244495Y602000D02*
X258004D01*
X261059Y674757D02*
Y675250D01*
X244495Y672000D02*
X258302D01*
X261059Y674757D01*
X259000Y647000D02*
X259000Y647000D01*
X244495Y647000D02*
X259000D01*
X260250Y712755D02*
X260250Y712755D01*
X244495Y647000D02*
X244495Y647000D01*
D21*
X701630Y633270D02*
D03*
X718630D02*
D03*
X95500Y724250D02*
D03*
X112500D02*
D03*
D22*
X605981Y624500D02*
D03*
X623981D02*
D03*
X506000Y644000D02*
D03*
X524000D02*
D03*
D23*
X58100Y343250D02*
D03*
X70800D02*
D03*
X83500D02*
D03*
X96200D02*
D03*
X108900D02*
D03*
X121600D02*
D03*
X134300D02*
D03*
X147000D02*
D03*
X159700D02*
D03*
X172400D02*
D03*
X58100Y434250D02*
D03*
X70800D02*
D03*
X83500D02*
D03*
X96200D02*
D03*
X108900D02*
D03*
X121600D02*
D03*
X134300D02*
D03*
X147000D02*
D03*
X159700D02*
D03*
X172400D02*
D03*
X405650Y434250D02*
D03*
X392950D02*
D03*
X380250D02*
D03*
X367550D02*
D03*
X354850D02*
D03*
X342150D02*
D03*
X329450D02*
D03*
X316750D02*
D03*
X304050D02*
D03*
X291350D02*
D03*
X405650Y343250D02*
D03*
X392950D02*
D03*
X380250D02*
D03*
X367550D02*
D03*
X354850D02*
D03*
X342150D02*
D03*
X329450D02*
D03*
X316750D02*
D03*
X304050D02*
D03*
X291350D02*
D03*
X637650Y434250D02*
D03*
X624950D02*
D03*
X612250D02*
D03*
X599550D02*
D03*
X586850D02*
D03*
X574150D02*
D03*
X561450D02*
D03*
X548750D02*
D03*
X536050D02*
D03*
X523350D02*
D03*
X637650Y343250D02*
D03*
X624950D02*
D03*
X612250D02*
D03*
X599550D02*
D03*
X586850D02*
D03*
X574150D02*
D03*
X561450D02*
D03*
X548750D02*
D03*
X536050D02*
D03*
X523350D02*
D03*
D24*
X178059Y777000D02*
D03*
X187059D02*
D03*
D25*
X95526Y749250D02*
D03*
X87526D02*
D03*
X120300D02*
D03*
X112300D02*
D03*
D26*
X98035Y764250D02*
D03*
X85017D02*
D03*
X122809Y764294D02*
D03*
X109791D02*
D03*
D27*
X103900Y777000D02*
D03*
Y785000D02*
D03*
X552500Y636750D02*
D03*
Y644750D02*
D03*
X539750D02*
D03*
Y636750D02*
D03*
D28*
X88500Y797250D02*
D03*
X129500D02*
D03*
D29*
Y821000D02*
D03*
X88500D02*
D03*
D30*
X198879Y794998D02*
D03*
Y799999D02*
D03*
Y805000D02*
D03*
Y810001D02*
D03*
Y815003D02*
D03*
Y820004D02*
D03*
Y825005D02*
D03*
X168018D02*
D03*
Y820004D02*
D03*
Y815003D02*
D03*
Y810001D02*
D03*
Y805000D02*
D03*
Y799999D02*
D03*
Y794998D02*
D03*
D31*
X158250Y896250D02*
D03*
Y863750D02*
D03*
X109000Y895500D02*
D03*
Y863000D02*
D03*
X207500Y863750D02*
D03*
Y896250D02*
D03*
D32*
X254750Y403500D02*
D03*
X270750D02*
D03*
X254750Y394500D02*
D03*
X270750D02*
D03*
X441750Y356750D02*
D03*
X425750D02*
D03*
X441750Y365750D02*
D03*
X425750D02*
D03*
X254750Y365751D02*
D03*
X270750D02*
D03*
X254750Y356750D02*
D03*
X270750D02*
D03*
X441750Y394499D02*
D03*
X425750D02*
D03*
X441750Y403500D02*
D03*
X425750D02*
D03*
X21500Y403500D02*
D03*
X37500D02*
D03*
X21500Y394500D02*
D03*
X37500D02*
D03*
X208500Y394500D02*
D03*
X192500D02*
D03*
X208500Y403500D02*
D03*
X192500D02*
D03*
X21500Y365750D02*
D03*
X37500D02*
D03*
X21500Y356750D02*
D03*
X37500D02*
D03*
X208500Y356750D02*
D03*
X192500D02*
D03*
X208500Y365750D02*
D03*
X192500D02*
D03*
X673750Y394500D02*
D03*
X657750D02*
D03*
X673750Y403500D02*
D03*
X657750D02*
D03*
X486750Y365750D02*
D03*
X502750D02*
D03*
X486750Y356750D02*
D03*
X502750D02*
D03*
X673750Y356750D02*
D03*
X657750D02*
D03*
X673750Y365750D02*
D03*
X657750D02*
D03*
X486750Y403500D02*
D03*
X502750D02*
D03*
X486750Y394500D02*
D03*
X502750D02*
D03*
X40000Y755000D02*
D03*
X56000D02*
D03*
X40000Y746000D02*
D03*
X56000D02*
D03*
X56000Y785250D02*
D03*
X40000D02*
D03*
X56000Y794250D02*
D03*
X40000D02*
D03*
X56000Y825500D02*
D03*
X40000D02*
D03*
X56000Y834500D02*
D03*
X40000D02*
D03*
D33*
X304250Y463750D02*
D03*
Y450250D02*
D03*
X355000Y463750D02*
D03*
Y450250D02*
D03*
X329250Y463750D02*
D03*
Y450250D02*
D03*
X380000Y463750D02*
D03*
Y450250D02*
D03*
X146750Y463750D02*
D03*
Y450250D02*
D03*
X96000Y463750D02*
D03*
Y450250D02*
D03*
X121750Y463750D02*
D03*
Y450250D02*
D03*
X71000Y463750D02*
D03*
Y450250D02*
D03*
X612000D02*
D03*
Y463750D02*
D03*
X561250Y450250D02*
D03*
Y463750D02*
D03*
X587000Y450250D02*
D03*
Y463750D02*
D03*
X536250Y450250D02*
D03*
Y463750D02*
D03*
D34*
X270000Y286249D02*
D03*
Y224249D02*
D03*
X322250Y286249D02*
D03*
Y224249D02*
D03*
X374750Y286249D02*
D03*
Y224249D02*
D03*
X427500Y286249D02*
D03*
Y224249D02*
D03*
X194250Y286250D02*
D03*
Y224250D02*
D03*
X141500Y286250D02*
D03*
Y224250D02*
D03*
X89000Y286250D02*
D03*
Y224250D02*
D03*
X36750Y286250D02*
D03*
Y224250D02*
D03*
X659500Y286250D02*
D03*
Y224250D02*
D03*
X606750Y286250D02*
D03*
Y224250D02*
D03*
X554250Y286250D02*
D03*
Y224250D02*
D03*
X502000Y286250D02*
D03*
Y224250D02*
D03*
D35*
X316750Y464000D02*
D03*
Y455000D02*
D03*
X367500Y464000D02*
D03*
Y455000D02*
D03*
X134250Y464000D02*
D03*
Y455000D02*
D03*
X83500Y464000D02*
D03*
Y455000D02*
D03*
X548750D02*
D03*
Y464000D02*
D03*
X599500Y455000D02*
D03*
Y464000D02*
D03*
D36*
X518250Y685810D02*
D03*
D37*
X533250Y668000D02*
D03*
X503250D02*
D03*
D38*
X576925Y714296D02*
D03*
Y667296D02*
D03*
D39*
X567425Y642541D02*
D03*
X576925D02*
D03*
X586424D02*
D03*
Y620551D02*
D03*
X576925D02*
D03*
X567425D02*
D03*
D40*
X260250Y712755D02*
D03*
X265250D02*
D03*
X270250D02*
D03*
X275250D02*
D03*
X280250D02*
D03*
X285250D02*
D03*
X290250D02*
D03*
X295250D02*
D03*
X300250D02*
D03*
X305250D02*
D03*
X310250D02*
D03*
X315250D02*
D03*
X320250D02*
D03*
X325250D02*
D03*
X330250D02*
D03*
X335250D02*
D03*
X340250D02*
D03*
X345250D02*
D03*
X350250D02*
D03*
X355250D02*
D03*
X360250D02*
D03*
X365250D02*
D03*
X370250D02*
D03*
X375250D02*
D03*
X380250D02*
D03*
Y561245D02*
D03*
X375250D02*
D03*
X370250D02*
D03*
X365250D02*
D03*
X360250D02*
D03*
X355250D02*
D03*
X350250D02*
D03*
X345250D02*
D03*
X340250D02*
D03*
X335250D02*
D03*
X330250D02*
D03*
X325250D02*
D03*
X320250D02*
D03*
X315250D02*
D03*
X310250D02*
D03*
X305250D02*
D03*
X300250D02*
D03*
X295250D02*
D03*
X290250D02*
D03*
X285250D02*
D03*
X280250D02*
D03*
X275250D02*
D03*
X270250D02*
D03*
X265250D02*
D03*
X260250D02*
D03*
D41*
X396005Y697000D02*
D03*
Y692000D02*
D03*
Y687000D02*
D03*
Y682000D02*
D03*
Y677000D02*
D03*
Y672000D02*
D03*
Y667000D02*
D03*
Y662000D02*
D03*
Y657000D02*
D03*
Y652000D02*
D03*
Y647000D02*
D03*
Y642000D02*
D03*
Y637000D02*
D03*
Y632000D02*
D03*
Y627000D02*
D03*
Y622000D02*
D03*
Y617000D02*
D03*
Y612000D02*
D03*
Y607000D02*
D03*
Y602000D02*
D03*
Y597000D02*
D03*
Y592000D02*
D03*
Y587000D02*
D03*
Y582000D02*
D03*
Y577000D02*
D03*
X244495D02*
D03*
Y582000D02*
D03*
Y587000D02*
D03*
Y592000D02*
D03*
Y597000D02*
D03*
Y602000D02*
D03*
Y607000D02*
D03*
Y612000D02*
D03*
Y617000D02*
D03*
Y622000D02*
D03*
Y627000D02*
D03*
Y632000D02*
D03*
Y637000D02*
D03*
Y642000D02*
D03*
Y647000D02*
D03*
Y652000D02*
D03*
Y657000D02*
D03*
Y662000D02*
D03*
Y667000D02*
D03*
Y672000D02*
D03*
Y677000D02*
D03*
Y682000D02*
D03*
Y687000D02*
D03*
Y692000D02*
D03*
D42*
Y697000D02*
D03*
D43*
X704750Y465000D02*
D03*
X717750D02*
D03*
D44*
X705000Y476250D02*
D03*
X717500D02*
D03*
D45*
X749861Y463495D02*
D03*
Y456996D02*
D03*
Y450496D02*
D03*
X730861D02*
D03*
Y456996D02*
D03*
Y463495D02*
D03*
D46*
X170750Y755166D02*
D03*
Y732167D02*
D03*
X188250D02*
D03*
Y755166D02*
D03*
D47*
X226375Y743750D02*
D03*
X218125D02*
D03*
D48*
X722287Y567500D02*
D03*
Y574000D02*
D03*
Y580500D02*
D03*
Y587000D02*
D03*
X677937Y567500D02*
D03*
Y574000D02*
D03*
Y580500D02*
D03*
Y587000D02*
D03*
X661537D02*
D03*
Y580500D02*
D03*
Y574000D02*
D03*
Y567500D02*
D03*
X722187Y527750D02*
D03*
Y534250D02*
D03*
Y540750D02*
D03*
Y547250D02*
D03*
X678037Y527750D02*
D03*
Y534250D02*
D03*
Y540750D02*
D03*
Y547250D02*
D03*
X661537D02*
D03*
Y540750D02*
D03*
Y534250D02*
D03*
Y527750D02*
D03*
X708000Y656750D02*
D03*
Y663250D02*
D03*
Y669750D02*
D03*
Y676250D02*
D03*
X664000Y696500D02*
D03*
Y703000D02*
D03*
Y709500D02*
D03*
Y716000D02*
D03*
X647750D02*
D03*
Y709500D02*
D03*
Y703000D02*
D03*
Y696500D02*
D03*
X708000D02*
D03*
Y703000D02*
D03*
Y709500D02*
D03*
Y716000D02*
D03*
X664000Y656750D02*
D03*
Y663250D02*
D03*
Y669750D02*
D03*
Y676250D02*
D03*
X647750D02*
D03*
Y669750D02*
D03*
Y663250D02*
D03*
Y656750D02*
D03*
D49*
X776000Y532700D02*
D03*
Y581800D02*
D03*
X762250Y661855D02*
D03*
Y710955D02*
D03*
D50*
X325000Y581250D02*
D03*
X90750Y560250D02*
D03*
X637650Y434250D02*
D03*
X523350D02*
D03*
X405650Y434250D02*
D03*
X291350D02*
D03*
X172400Y434250D02*
D03*
X58100D02*
D03*
D60*
X522000Y763000D02*
D03*
X480000D02*
D03*
X438000D02*
D03*
X522000Y805000D02*
D03*
X480000D02*
D03*
X187000Y667250D02*
D03*
Y625250D02*
D03*
Y583250D02*
D03*
X145000Y667250D02*
D03*
Y625250D02*
D03*
X780000Y805000D02*
D03*
X822000D02*
D03*
X738000Y763000D02*
D03*
X780000D02*
D03*
X822000D02*
D03*
X517500Y186500D02*
D03*
X559500D02*
D03*
X601500D02*
D03*
X643500D02*
D03*
X517500Y144500D02*
D03*
X559500D02*
D03*
X601500D02*
D03*
X813000Y477000D02*
D03*
Y519000D02*
D03*
Y561000D02*
D03*
Y603000D02*
D03*
X855000Y477000D02*
D03*
Y519000D02*
D03*
Y561000D02*
D03*
X52250Y186500D02*
D03*
X94250D02*
D03*
X136250D02*
D03*
X178250D02*
D03*
X52250Y144500D02*
D03*
X94250D02*
D03*
X136250D02*
D03*
X285500Y186500D02*
D03*
X327500D02*
D03*
X369500D02*
D03*
X411500D02*
D03*
X285500Y144500D02*
D03*
X327500D02*
D03*
X369500D02*
D03*
X672000Y763000D02*
D03*
X630000D02*
D03*
X588000D02*
D03*
X672000Y805000D02*
D03*
X630000D02*
D03*
D61*
X438000Y805000D02*
D03*
X738000D02*
D03*
X643500Y144500D02*
D03*
X178250D02*
D03*
X411500Y144500D02*
D03*
X588000Y805000D02*
D03*
D62*
X522000Y878000D02*
D03*
X438000D02*
D03*
X72000Y667250D02*
D03*
Y583250D02*
D03*
X738000Y878000D02*
D03*
X822000D02*
D03*
X517500Y71500D02*
D03*
X643500D02*
D03*
X928000Y477000D02*
D03*
Y603000D02*
D03*
X52250Y71500D02*
D03*
X178250D02*
D03*
X285500Y71500D02*
D03*
X411500D02*
D03*
X672000Y878000D02*
D03*
X588000D02*
D03*
D64*
X145000Y583250D02*
D03*
X855000Y603000D02*
D03*
D66*
X799444Y710955D02*
D03*
Y669045D02*
D03*
X854562D02*
D03*
D67*
Y710955D02*
D03*
D68*
X927460Y690000D02*
D03*
D69*
X372750Y530000D02*
D03*
X421000Y716250D02*
D03*
X355000Y792500D02*
D03*
Y803750D02*
D03*
Y815000D02*
D03*
X254000Y829000D02*
D03*
D70*
X741387Y577250D02*
D03*
X697037D02*
D03*
X741287Y537500D02*
D03*
X697137D02*
D03*
X727100Y666500D02*
D03*
X683100Y706250D02*
D03*
X727100D02*
D03*
X683100Y666500D02*
D03*
D71*
X642437Y577250D02*
D03*
Y537500D02*
D03*
X628650Y706250D02*
D03*
Y666500D02*
D03*
D72*
X392950Y343250D02*
X424500D01*
X172400Y343250D02*
X191500D01*
X172400Y343250D02*
X172400Y343250D01*
X191500D02*
X191500Y343250D01*
X159700Y343250D02*
X172400D01*
X624950D02*
X655130D01*
X502750D02*
X523350D01*
X536050D01*
X270751Y343250D02*
X291350D01*
X304050D01*
X58100Y343250D02*
X70800D01*
X37500D02*
X58100D01*
X601051Y620551D02*
X605000Y624500D01*
X586424Y620551D02*
X601051D01*
X605000Y624500D02*
X605981D01*
X580424Y620551D02*
X586424D01*
D73*
X502000Y224250D02*
X504350D01*
X601500Y219000D02*
X606750Y224250D01*
X601500Y186500D02*
Y219000D01*
X517500Y186500D02*
Y188530D01*
X509850Y196180D02*
Y218750D01*
Y196180D02*
X517500Y188530D01*
X504350Y224250D02*
X509850Y218750D01*
X558065Y187935D02*
Y220436D01*
X554250Y224250D02*
X558065Y220436D01*
Y187935D02*
X559500Y186500D01*
X657150Y224250D02*
X659500D01*
X643500Y186500D02*
Y188530D01*
X651650Y196680D02*
Y218750D01*
X657150Y224250D01*
X643500Y188530D02*
X651650Y196680D01*
X270000Y224250D02*
X272350D01*
X369500Y219000D02*
X374750Y224250D01*
X369500Y186500D02*
Y219000D01*
X285500Y186500D02*
Y188529D01*
X277850Y196180D02*
Y218750D01*
Y196180D02*
X285500Y188529D01*
X272350Y224250D02*
X277850Y218750D01*
X326065Y187935D02*
Y220435D01*
X322250Y224250D02*
X326065Y220435D01*
Y187935D02*
X327500Y186500D01*
X425150Y224250D02*
X427500D01*
X411500Y186500D02*
Y188529D01*
X419650Y196679D02*
Y218750D01*
X425150Y224250D01*
X411500Y188529D02*
X419650Y196679D01*
X178250Y188530D02*
X186400Y196680D01*
Y218750D02*
X191900Y224250D01*
X186400Y196680D02*
Y218750D01*
X178250Y186500D02*
Y188530D01*
X191900Y224250D02*
X194250D01*
X92815Y187935D02*
X94250Y186500D01*
X89000Y224250D02*
X92815Y220436D01*
Y187935D02*
Y220436D01*
X39100Y224250D02*
X44600Y218750D01*
Y196180D02*
X52250Y188530D01*
X44600Y196180D02*
Y218750D01*
X52250Y186500D02*
Y188530D01*
X136250Y186500D02*
Y219000D01*
X141500Y224250D01*
X36750D02*
X39100D01*
D74*
X286250Y860000D02*
D03*
X298950D02*
D03*
X311650D02*
D03*
X324350D02*
D03*
X337050D02*
D03*
X286250Y900300D02*
D03*
X298950D02*
D03*
X311650D02*
D03*
X324350D02*
D03*
X337050D02*
D03*
D75*
X765000Y280000D02*
D03*
X915000D02*
D03*
D76*
X980000Y856000D02*
D03*
Y796000D02*
D03*
Y736000D02*
D03*
Y676000D02*
D03*
Y616000D02*
D03*
Y556000D02*
D03*
Y496000D02*
D03*
Y436000D02*
D03*
Y376000D02*
D03*
Y316000D02*
D03*
Y256000D02*
D03*
Y196000D02*
D03*
Y136000D02*
D03*
X965000Y826000D02*
D03*
X950000Y736000D02*
D03*
Y676000D02*
D03*
Y616000D02*
D03*
Y556000D02*
D03*
Y496000D02*
D03*
Y436000D02*
D03*
X965000Y406000D02*
D03*
X950000Y376000D02*
D03*
X965000Y346000D02*
D03*
X950000Y316000D02*
D03*
X965000Y286000D02*
D03*
X950000Y256000D02*
D03*
X965000Y226000D02*
D03*
X950000Y196000D02*
D03*
X965000Y166000D02*
D03*
X950000Y136000D02*
D03*
X965000Y106000D02*
D03*
X935000Y766000D02*
D03*
X920000Y736000D02*
D03*
X935000Y646000D02*
D03*
X920000Y556000D02*
D03*
X935000Y526000D02*
D03*
X920000Y496000D02*
D03*
Y436000D02*
D03*
X935000Y406000D02*
D03*
X920000Y376000D02*
D03*
X935000Y346000D02*
D03*
Y226000D02*
D03*
X920000Y196000D02*
D03*
X935000Y166000D02*
D03*
X920000Y136000D02*
D03*
X935000Y106000D02*
D03*
X890000Y916000D02*
D03*
Y796000D02*
D03*
X905000Y766000D02*
D03*
X890000Y736000D02*
D03*
X905000Y706000D02*
D03*
Y646000D02*
D03*
X890000Y616000D02*
D03*
X905000Y586000D02*
D03*
X890000Y556000D02*
D03*
X905000Y526000D02*
D03*
Y466000D02*
D03*
X890000Y436000D02*
D03*
X905000Y406000D02*
D03*
X890000Y376000D02*
D03*
X905000Y346000D02*
D03*
Y226000D02*
D03*
X890000Y196000D02*
D03*
X905000Y166000D02*
D03*
X890000Y136000D02*
D03*
X905000Y106000D02*
D03*
X890000Y16000D02*
D03*
X875000Y886000D02*
D03*
X860000Y856000D02*
D03*
X875000Y826000D02*
D03*
X860000Y796000D02*
D03*
X875000Y766000D02*
D03*
Y586000D02*
D03*
Y406000D02*
D03*
X860000Y376000D02*
D03*
X875000Y346000D02*
D03*
X860000Y316000D02*
D03*
Y256000D02*
D03*
X875000Y226000D02*
D03*
X860000Y196000D02*
D03*
X875000Y166000D02*
D03*
X860000Y136000D02*
D03*
X875000Y106000D02*
D03*
X860000Y16000D02*
D03*
X830000Y916000D02*
D03*
X845000Y886000D02*
D03*
X830000Y856000D02*
D03*
X845000Y406000D02*
D03*
X830000Y376000D02*
D03*
X845000Y346000D02*
D03*
X830000Y316000D02*
D03*
X845000Y286000D02*
D03*
X830000Y256000D02*
D03*
X845000Y226000D02*
D03*
X830000Y196000D02*
D03*
X845000Y166000D02*
D03*
X830000Y136000D02*
D03*
X845000Y106000D02*
D03*
X830000Y16000D02*
D03*
X800000Y916000D02*
D03*
Y856000D02*
D03*
X815000Y406000D02*
D03*
X800000Y376000D02*
D03*
X815000Y346000D02*
D03*
X800000Y316000D02*
D03*
X815000Y286000D02*
D03*
X800000Y256000D02*
D03*
X815000Y226000D02*
D03*
X800000Y196000D02*
D03*
X815000Y166000D02*
D03*
X800000Y136000D02*
D03*
X815000Y106000D02*
D03*
X800000Y16000D02*
D03*
X770000Y916000D02*
D03*
X785000Y886000D02*
D03*
X770000Y856000D02*
D03*
Y616000D02*
D03*
Y556000D02*
D03*
Y496000D02*
D03*
X785000Y406000D02*
D03*
Y346000D02*
D03*
Y226000D02*
D03*
X770000Y196000D02*
D03*
X785000Y166000D02*
D03*
X770000Y136000D02*
D03*
X785000Y106000D02*
D03*
X770000Y16000D02*
D03*
X740000Y916000D02*
D03*
Y856000D02*
D03*
Y616000D02*
D03*
X755000Y406000D02*
D03*
X740000Y376000D02*
D03*
X755000Y346000D02*
D03*
Y226000D02*
D03*
X740000Y196000D02*
D03*
X755000Y166000D02*
D03*
X740000Y136000D02*
D03*
X755000Y106000D02*
D03*
X740000Y16000D02*
D03*
X710000Y916000D02*
D03*
Y856000D02*
D03*
Y496000D02*
D03*
X725000Y406000D02*
D03*
Y346000D02*
D03*
X710000Y316000D02*
D03*
Y256000D02*
D03*
X725000Y226000D02*
D03*
X710000Y196000D02*
D03*
X725000Y166000D02*
D03*
X710000Y136000D02*
D03*
X725000Y106000D02*
D03*
X710000Y16000D02*
D03*
X680000Y916000D02*
D03*
X695000Y886000D02*
D03*
X680000Y856000D02*
D03*
Y496000D02*
D03*
Y316000D02*
D03*
X695000Y286000D02*
D03*
Y226000D02*
D03*
X680000Y196000D02*
D03*
X695000Y166000D02*
D03*
Y106000D02*
D03*
X680000Y76000D02*
D03*
X695000Y46000D02*
D03*
X680000Y16000D02*
D03*
X650000Y916000D02*
D03*
Y856000D02*
D03*
Y496000D02*
D03*
X665000Y466000D02*
D03*
Y46000D02*
D03*
X650000Y16000D02*
D03*
X620000Y916000D02*
D03*
X635000Y886000D02*
D03*
X620000Y856000D02*
D03*
Y496000D02*
D03*
Y196000D02*
D03*
Y76000D02*
D03*
X635000Y46000D02*
D03*
X620000Y16000D02*
D03*
X590000Y916000D02*
D03*
Y856000D02*
D03*
X605000Y526000D02*
D03*
X590000Y316000D02*
D03*
Y76000D02*
D03*
X605000Y46000D02*
D03*
X590000Y16000D02*
D03*
X560000Y916000D02*
D03*
Y856000D02*
D03*
Y76000D02*
D03*
X575000Y46000D02*
D03*
X560000Y16000D02*
D03*
X530000Y916000D02*
D03*
X545000Y886000D02*
D03*
X530000Y856000D02*
D03*
Y496000D02*
D03*
X545000Y46000D02*
D03*
X530000Y16000D02*
D03*
X500000Y916000D02*
D03*
Y856000D02*
D03*
Y496000D02*
D03*
Y436000D02*
D03*
X515000Y46000D02*
D03*
X500000Y16000D02*
D03*
X470000Y916000D02*
D03*
X485000Y886000D02*
D03*
X470000Y856000D02*
D03*
Y556000D02*
D03*
X485000Y526000D02*
D03*
X470000Y496000D02*
D03*
X485000Y466000D02*
D03*
X470000Y316000D02*
D03*
Y256000D02*
D03*
Y196000D02*
D03*
Y136000D02*
D03*
X485000Y106000D02*
D03*
X470000Y76000D02*
D03*
X485000Y46000D02*
D03*
X470000Y16000D02*
D03*
X440000Y916000D02*
D03*
Y856000D02*
D03*
X455000Y526000D02*
D03*
X440000Y496000D02*
D03*
X455000Y466000D02*
D03*
Y286000D02*
D03*
Y226000D02*
D03*
X440000Y196000D02*
D03*
X455000Y106000D02*
D03*
X440000Y76000D02*
D03*
X455000Y46000D02*
D03*
X440000Y16000D02*
D03*
X410000Y916000D02*
D03*
Y856000D02*
D03*
X425000Y526000D02*
D03*
X410000Y496000D02*
D03*
X425000Y466000D02*
D03*
Y46000D02*
D03*
X410000Y16000D02*
D03*
X380000Y916000D02*
D03*
X395000Y886000D02*
D03*
X380000Y76000D02*
D03*
X395000Y46000D02*
D03*
X380000Y16000D02*
D03*
X350000Y316000D02*
D03*
Y196000D02*
D03*
Y76000D02*
D03*
X365000Y46000D02*
D03*
X350000Y16000D02*
D03*
X320000Y76000D02*
D03*
X335000Y46000D02*
D03*
X320000Y16000D02*
D03*
X305000Y826000D02*
D03*
Y46000D02*
D03*
X290000Y16000D02*
D03*
X260000Y856000D02*
D03*
X275000Y826000D02*
D03*
Y466000D02*
D03*
X260000Y196000D02*
D03*
Y76000D02*
D03*
X275000Y46000D02*
D03*
X260000Y16000D02*
D03*
X230000Y916000D02*
D03*
X245000Y886000D02*
D03*
X230000Y316000D02*
D03*
Y256000D02*
D03*
Y196000D02*
D03*
Y136000D02*
D03*
X245000Y106000D02*
D03*
X230000Y76000D02*
D03*
X245000Y46000D02*
D03*
X230000Y16000D02*
D03*
X215000Y706000D02*
D03*
X200000Y556000D02*
D03*
X215000Y466000D02*
D03*
Y106000D02*
D03*
X200000Y76000D02*
D03*
X215000Y46000D02*
D03*
X200000Y16000D02*
D03*
X170000Y556000D02*
D03*
X185000Y466000D02*
D03*
Y46000D02*
D03*
X170000Y16000D02*
D03*
X140000Y76000D02*
D03*
X155000Y46000D02*
D03*
X140000Y16000D02*
D03*
X125000Y526000D02*
D03*
X110000Y316000D02*
D03*
Y76000D02*
D03*
X125000Y46000D02*
D03*
X110000Y16000D02*
D03*
X80000Y616000D02*
D03*
Y76000D02*
D03*
X95000Y46000D02*
D03*
X80000Y16000D02*
D03*
X65000Y706000D02*
D03*
X50000Y676000D02*
D03*
Y616000D02*
D03*
Y556000D02*
D03*
X65000Y46000D02*
D03*
X50000Y16000D02*
D03*
X35000Y706000D02*
D03*
Y646000D02*
D03*
X20000Y616000D02*
D03*
X35000Y586000D02*
D03*
X20000Y556000D02*
D03*
Y196000D02*
D03*
Y76000D02*
D03*
X35000Y46000D02*
D03*
X20000Y16000D02*
D03*
X121750Y882853D02*
D03*
X103900Y785000D02*
D03*
X555000Y600000D02*
D03*
X261350Y647000D02*
D03*
X673750Y356750D02*
D03*
X673750Y394500D02*
D03*
X486750Y365750D02*
D03*
X486750Y403500D02*
D03*
X441750Y356750D02*
D03*
X254750Y365751D02*
D03*
X254750Y403500D02*
D03*
X441750Y394499D02*
D03*
X208500Y403500D02*
D03*
X21500Y356750D02*
D03*
X208500Y394500D02*
D03*
X208500Y356750D02*
D03*
X21500Y403500D02*
D03*
X21500Y365750D02*
D03*
X355000Y803750D02*
D03*
X718630Y633270D02*
D03*
X701630D02*
D03*
X355000Y815000D02*
D03*
X233000Y758500D02*
D03*
X211500Y758500D02*
D03*
X188250Y755166D02*
D03*
X170750Y732167D02*
D03*
X350250Y530000D02*
D03*
X345250Y535000D02*
D03*
X176750Y318000D02*
D03*
X421000Y716250D02*
D03*
X168750Y279250D02*
D03*
X177250Y255250D02*
D03*
X53500Y255359D02*
D03*
X89000Y255250D02*
D03*
X62000Y278750D02*
D03*
X410000Y318000D02*
D03*
X402000Y279250D02*
D03*
X410500Y255250D02*
D03*
X286750Y255358D02*
D03*
X322250Y255250D02*
D03*
X295250Y278750D02*
D03*
X527250Y278750D02*
D03*
X554250Y255250D02*
D03*
X518750Y255359D02*
D03*
X642500Y255250D02*
D03*
X634000Y279250D02*
D03*
X519001Y318100D02*
D03*
X642000Y318000D02*
D03*
X62250Y360500D02*
D03*
X99000Y360500D02*
D03*
X295500Y360500D02*
D03*
X332250Y360500D02*
D03*
X564250Y360500D02*
D03*
X527500Y360500D02*
D03*
X288500Y318100D02*
D03*
X53750Y318100D02*
D03*
X141500Y255250D02*
D03*
X374750Y255250D02*
D03*
X606750Y255250D02*
D03*
X600750Y651500D02*
D03*
X219000Y622000D02*
D03*
X189750Y801000D02*
D03*
X185000Y827750D02*
D03*
Y817250D02*
D03*
X749861Y448496D02*
D03*
X704750Y465000D02*
D03*
X223500Y810250D02*
D03*
X254000Y829000D02*
D03*
X683100Y706250D02*
D03*
X360250Y695750D02*
D03*
X369500Y671250D02*
D03*
X330000Y640500D02*
D03*
X335000Y647000D02*
D03*
X340000Y653500D02*
D03*
X355000Y647000D02*
D03*
X312750Y677900D02*
D03*
X311500Y732250D02*
D03*
X415000Y577000D02*
D03*
X430000Y592000D02*
D03*
X425000Y587000D02*
D03*
X420000Y582000D02*
D03*
X340250Y540000D02*
D03*
X335250Y545000D02*
D03*
X659500Y224250D02*
D03*
X671500Y271100D02*
D03*
X625000Y255250D02*
D03*
X594750Y395500D02*
D03*
X599550Y417500D02*
D03*
X548750D02*
D03*
X548750Y464000D02*
D03*
X599500D02*
D03*
X599550Y434250D02*
D03*
X624500Y373500D02*
D03*
X549000Y393500D02*
D03*
X548750Y434250D02*
D03*
X536000Y255350D02*
D03*
X657750Y356750D02*
D03*
Y365750D02*
D03*
X657750Y394500D02*
D03*
Y403500D02*
D03*
X673750D02*
D03*
X673750Y365750D02*
D03*
X502750Y403500D02*
D03*
Y394500D02*
D03*
X502750Y365750D02*
D03*
Y356750D02*
D03*
X486750Y394500D02*
D03*
X486750Y356750D02*
D03*
X490000Y272100D02*
D03*
X427500Y224250D02*
D03*
X439500Y271100D02*
D03*
X393000Y255250D02*
D03*
X362750Y395500D02*
D03*
X367550Y417500D02*
D03*
X316750D02*
D03*
X316750Y464000D02*
D03*
X367500D02*
D03*
X367550Y434250D02*
D03*
X392500Y373500D02*
D03*
X317000Y393500D02*
D03*
X316750Y434250D02*
D03*
X304000Y255350D02*
D03*
X425750Y356750D02*
D03*
Y365750D02*
D03*
X425750Y394500D02*
D03*
Y403500D02*
D03*
X441750D02*
D03*
X441750Y365750D02*
D03*
X270750Y403500D02*
D03*
Y394500D02*
D03*
X270751Y365750D02*
D03*
Y356750D02*
D03*
X254750Y394500D02*
D03*
X254750Y356750D02*
D03*
X258000Y272100D02*
D03*
X194250Y224250D02*
D03*
X206250Y271100D02*
D03*
X159750Y255250D02*
D03*
X129500Y395500D02*
D03*
X285250Y530000D02*
D03*
X280250Y535000D02*
D03*
X270250Y545000D02*
D03*
X275250Y540000D02*
D03*
X134300Y417500D02*
D03*
X83500D02*
D03*
X83500Y464000D02*
D03*
X134250D02*
D03*
X134300Y434250D02*
D03*
X159250Y373500D02*
D03*
X83750Y393500D02*
D03*
X83500Y434250D02*
D03*
X70750Y255350D02*
D03*
X192500Y356750D02*
D03*
Y365750D02*
D03*
X192500Y394500D02*
D03*
Y403500D02*
D03*
X208500Y365750D02*
D03*
X37500Y403500D02*
D03*
Y394500D02*
D03*
X37500Y365750D02*
D03*
Y356750D02*
D03*
X21500Y394500D02*
D03*
X24750Y272100D02*
D03*
X219000Y632750D02*
D03*
X170750Y755166D02*
D03*
X188250Y732167D02*
D03*
X218125Y743750D02*
D03*
X226375D02*
D03*
X330000Y733750D02*
D03*
X298950Y860000D02*
D03*
X286250D02*
D03*
Y900300D02*
D03*
X298950D02*
D03*
X311650D02*
D03*
X324350D02*
D03*
X337050D02*
D03*
Y860000D02*
D03*
X324350D02*
D03*
X311650D02*
D03*
X207500Y883700D02*
D03*
X261350Y632000D02*
D03*
X290250Y750000D02*
D03*
X121500Y895500D02*
D03*
X223500Y795000D02*
D03*
X112300Y749250D02*
D03*
X95526D02*
D03*
X56000Y834500D02*
D03*
Y825500D02*
D03*
X40000Y834500D02*
D03*
Y825500D02*
D03*
X56000Y785250D02*
D03*
Y794250D02*
D03*
X40000D02*
D03*
Y785250D02*
D03*
X40000Y746000D02*
D03*
Y755000D02*
D03*
X56000D02*
D03*
Y746000D02*
D03*
X215448Y816501D02*
D03*
Y803751D02*
D03*
X153948Y815001D02*
D03*
X260963Y604959D02*
D03*
X295100Y596500D02*
D03*
X261100Y595500D02*
D03*
X265250Y578250D02*
D03*
X366500Y578250D02*
D03*
X379000D02*
D03*
X396000Y716750D02*
D03*
X261500Y695750D02*
D03*
X261059Y675250D02*
D03*
X158250Y896250D02*
D03*
Y863750D02*
D03*
X109000Y895500D02*
D03*
X207500Y896250D02*
D03*
X714250Y557500D02*
D03*
X700000Y686500D02*
D03*
X691000Y602500D02*
D03*
X655750Y686000D02*
D03*
X670000Y557250D02*
D03*
X696937Y577250D02*
D03*
X683000Y666500D02*
D03*
X678000Y602500D02*
D03*
X664000Y641250D02*
D03*
D77*
X424500Y343250D02*
D03*
X191500D02*
D03*
X655130Y343250D02*
D03*
X502750D02*
D03*
X580750Y343000D02*
D03*
X270751Y343250D02*
D03*
X348750Y343000D02*
D03*
X37500Y343250D02*
D03*
X115500Y343000D02*
D03*
X642437Y537500D02*
D03*
Y577250D02*
D03*
X628650Y666500D02*
D03*
Y706250D02*
D03*
D78*
X589174Y714289D02*
D03*
X564674D02*
D03*
X605981Y624500D02*
D03*
X533250Y668000D02*
D03*
X506000Y644000D02*
D03*
D79*
X50000Y500000D02*
D03*
X950000Y900000D02*
D03*
Y50000D02*
D03*
X50000Y900000D02*
D03*
M02*
