G04*
G04 #@! TF.GenerationSoftware,Altium Limited,Altium Designer,24.2.2 (26)*
G04*
G04 Layer_Color=32896*
%FSLAX44Y44*%
%MOMM*%
G71*
G04*
G04 #@! TF.SameCoordinates,C4595460-78FA-4AA4-93EF-E7DD031D073C*
G04*
G04*
G04 #@! TF.FilePolarity,Positive*
G04*
G01*
G75*
%ADD11C,0.1500*%
%ADD12C,0.2000*%
%ADD85C,0.1270*%
D11*
X345148Y14498D02*
X346398Y15748D01*
X348897D01*
X350147Y14498D01*
Y9500D01*
X348897Y8250D01*
X346398D01*
X345148Y9500D01*
Y11999D01*
X347648D01*
X342649Y8250D02*
Y15748D01*
X337651Y8250D01*
Y15748D01*
X335152D02*
Y8250D01*
X331403D01*
X330153Y9500D01*
Y14498D01*
X331403Y15748D01*
X335152D01*
X370548Y14498D02*
X371798Y15748D01*
X374297D01*
X375547Y14498D01*
Y9500D01*
X374297Y8250D01*
X371798D01*
X370548Y9500D01*
Y11999D01*
X373048D01*
X368049Y8250D02*
Y15748D01*
X363051Y8250D01*
Y15748D01*
X360552D02*
Y8250D01*
X356803D01*
X355553Y9500D01*
Y14498D01*
X356803Y15748D01*
X360552D01*
X395948Y14498D02*
X397198Y15748D01*
X399697D01*
X400947Y14498D01*
Y9500D01*
X399697Y8250D01*
X397198D01*
X395948Y9500D01*
Y11999D01*
X398448D01*
X393449Y8250D02*
Y15748D01*
X388451Y8250D01*
Y15748D01*
X385952D02*
Y8250D01*
X382203D01*
X380953Y9500D01*
Y14498D01*
X382203Y15748D01*
X385952D01*
X421348Y14498D02*
X422598Y15748D01*
X425097D01*
X426347Y14498D01*
Y9500D01*
X425097Y8250D01*
X422598D01*
X421348Y9500D01*
Y11999D01*
X423848D01*
X418849Y8250D02*
Y15748D01*
X413851Y8250D01*
Y15748D01*
X411352D02*
Y8250D01*
X407603D01*
X406353Y9500D01*
Y14498D01*
X407603Y15748D01*
X411352D01*
X449098Y14498D02*
X450348Y15748D01*
X452847D01*
X454097Y14498D01*
Y9500D01*
X452847Y8250D01*
X450348D01*
X449098Y9500D01*
Y11999D01*
X451598D01*
X446599Y8250D02*
Y15748D01*
X441601Y8250D01*
Y15748D01*
X439102D02*
Y8250D01*
X435353D01*
X434103Y9500D01*
Y14498D01*
X435353Y15748D01*
X439102D01*
X474498Y14498D02*
X475748Y15748D01*
X478247D01*
X479497Y14498D01*
Y9500D01*
X478247Y8250D01*
X475748D01*
X474498Y9500D01*
Y11999D01*
X476998D01*
X471999Y8250D02*
Y15748D01*
X467001Y8250D01*
Y15748D01*
X464502D02*
Y8250D01*
X460753D01*
X459503Y9500D01*
Y14498D01*
X460753Y15748D01*
X464502D01*
X499898Y14498D02*
X501148Y15748D01*
X503647D01*
X504897Y14498D01*
Y9500D01*
X503647Y8250D01*
X501148D01*
X499898Y9500D01*
Y11999D01*
X502398D01*
X497399Y8250D02*
Y15748D01*
X492401Y8250D01*
Y15748D01*
X489902D02*
Y8250D01*
X486153D01*
X484903Y9500D01*
Y14498D01*
X486153Y15748D01*
X489902D01*
X447849Y72498D02*
X449098Y73748D01*
X451598D01*
X452847Y72498D01*
Y67500D01*
X451598Y66250D01*
X449098D01*
X447849Y67500D01*
X440351Y72498D02*
X441601Y73748D01*
X444100D01*
X445350Y72498D01*
Y71248D01*
X444100Y69999D01*
X441601D01*
X440351Y68749D01*
Y67500D01*
X441601Y66250D01*
X444100D01*
X445350Y67500D01*
X437852Y66250D02*
X435353D01*
X436602D01*
Y73748D01*
X437852Y72498D01*
X474498D02*
X475748Y73748D01*
X478247D01*
X479497Y72498D01*
Y67500D01*
X478247Y66250D01*
X475748D01*
X474498Y67500D01*
X467001Y72498D02*
X468250Y73748D01*
X470750D01*
X471999Y72498D01*
Y71248D01*
X470750Y69999D01*
X468250D01*
X467001Y68749D01*
Y67500D01*
X468250Y66250D01*
X470750D01*
X471999Y67500D01*
X464502Y72498D02*
X463252Y73748D01*
X460753D01*
X459503Y72498D01*
Y71248D01*
X460753Y69999D01*
X462002D01*
X460753D01*
X459503Y68749D01*
Y67500D01*
X460753Y66250D01*
X463252D01*
X464502Y67500D01*
X525298Y14498D02*
X526548Y15748D01*
X529047D01*
X530297Y14498D01*
Y9500D01*
X529047Y8250D01*
X526548D01*
X525298Y9500D01*
Y11999D01*
X527798D01*
X522799Y8250D02*
Y15748D01*
X517801Y8250D01*
Y15748D01*
X515302D02*
Y8250D01*
X511553D01*
X510303Y9500D01*
Y14498D01*
X511553Y15748D01*
X515302D01*
X496150Y73748D02*
X501148D01*
Y69999D01*
X498649Y71248D01*
X497399D01*
X496150Y69999D01*
Y67500D01*
X497399Y66250D01*
X499898D01*
X501148Y67500D01*
X493650Y73748D02*
Y68749D01*
X491151Y66250D01*
X488652Y68749D01*
Y73748D01*
X530297Y72498D02*
X529047Y73748D01*
X526548D01*
X525298Y72498D01*
Y71248D01*
X526548Y69999D01*
X527798D01*
X526548D01*
X525298Y68749D01*
Y67500D01*
X526548Y66250D01*
X529047D01*
X530297Y67500D01*
X522799Y73748D02*
Y68749D01*
X520300Y66250D01*
X517801Y68749D01*
Y73748D01*
X515302Y72498D02*
X514052Y73748D01*
X511553D01*
X510303Y72498D01*
Y71248D01*
X511553Y69999D01*
X512802D01*
X511553D01*
X510303Y68749D01*
Y67500D01*
X511553Y66250D01*
X514052D01*
X515302Y67500D01*
X370548Y72498D02*
X371798Y73748D01*
X374297D01*
X375547Y72498D01*
Y67500D01*
X374297Y66250D01*
X371798D01*
X370548Y67500D01*
X368049Y73748D02*
Y66250D01*
X363051D01*
X360552Y73748D02*
Y66250D01*
Y68749D01*
X355553Y73748D01*
X359302Y69999D01*
X355553Y66250D01*
X421348Y72498D02*
X422598Y73748D01*
X425097D01*
X426347Y72498D01*
Y71248D01*
X425097Y69999D01*
X422598D01*
X421348Y68749D01*
Y67500D01*
X422598Y66250D01*
X425097D01*
X426347Y67500D01*
X418849Y73748D02*
Y66250D01*
X415100D01*
X413851Y67500D01*
Y72498D01*
X415100Y73748D01*
X418849D01*
X407603D02*
X410102D01*
X411352Y72498D01*
Y67500D01*
X410102Y66250D01*
X407603D01*
X406353Y67500D01*
Y72498D01*
X407603Y73748D01*
X394699Y72498D02*
X395948Y73748D01*
X398448D01*
X399697Y72498D01*
Y71248D01*
X398448Y69999D01*
X395948D01*
X394699Y68749D01*
Y67500D01*
X395948Y66250D01*
X398448D01*
X399697Y67500D01*
X392200Y73748D02*
Y66250D01*
X388451D01*
X387201Y67500D01*
Y72498D01*
X388451Y73748D01*
X392200D01*
X384702D02*
X382203D01*
X383452D01*
Y66250D01*
X384702D01*
X382203D01*
X349522Y73748D02*
X347023D01*
X348272D01*
Y66250D01*
X349522D01*
X347023D01*
X343274D02*
Y73748D01*
X338276Y66250D01*
Y73748D01*
X335776D02*
X330778D01*
X333277D01*
Y66250D01*
D12*
X506000Y175600D02*
X516000D01*
X506000Y162900D02*
X516000D01*
X71250Y90150D02*
X81250D01*
X71250Y102850D02*
X81250D01*
X71250Y103150D02*
X81250D01*
X71250Y115850D02*
X81250D01*
D85*
X500510Y158940D02*
G03*
X500510Y158940I-2000J0D01*
G01*
X502500Y155000D02*
X506000D01*
X529000D02*
X532500D01*
X502500Y125000D02*
X506000D01*
X529000D02*
X532500D01*
X502500Y151500D02*
Y155000D01*
X532500Y151500D02*
Y155000D01*
X502500Y125000D02*
Y128500D01*
X532500Y125000D02*
Y128500D01*
M02*
