G04*
G04 #@! TF.GenerationSoftware,Altium Limited,Altium Designer,24.4.1 (13)*
G04*
G04 Layer_Color=65535*
%FSLAX44Y44*%
%MOMM*%
G71*
G04*
G04 #@! TF.SameCoordinates,756635CD-87F4-41CE-B67A-FD93177F9C21*
G04*
G04*
G04 #@! TF.FilePolarity,Positive*
G04*
G01*
G75*
%ADD10C,0.2500*%
%ADD11C,0.2000*%
D10*
X119250Y168750D02*
G03*
X119250Y168750I-1250J0D01*
G01*
X86525Y306388D02*
G03*
X86525Y306388I-1250J0D01*
G01*
X423250Y251250D02*
G03*
X423250Y251250I-1250J0D01*
G01*
X92500Y98000D02*
G03*
X92500Y98000I-1250J0D01*
G01*
X157500Y18000D02*
G03*
X157500Y18000I-1250J0D01*
G01*
X312500Y58000D02*
G03*
X312500Y58000I-1250J0D01*
G01*
Y188000D02*
G03*
X312500Y188000I-1250J0D01*
G01*
Y318000D02*
G03*
X312500Y318000I-1250J0D01*
G01*
X207250Y247750D02*
G03*
X207250Y247750I-1250J0D01*
G01*
X72688Y274166D02*
G03*
X72688Y274166I-1250J0D01*
G01*
X42250Y10250D02*
G03*
X42250Y10250I-1250J0D01*
G01*
X344000Y219000D02*
G03*
X344000Y219000I-1250J0D01*
G01*
X262250Y102750D02*
G03*
X262250Y102750I-1250J0D01*
G01*
X22250Y142750D02*
G03*
X22250Y142750I-1250J0D01*
G01*
X262250Y282750D02*
G03*
X262250Y282750I-1250J0D01*
G01*
X164000Y219000D02*
G03*
X164000Y219000I-1250J0D01*
G01*
D11*
X113000Y183000D02*
Y237000D01*
X165750D02*
X167000D01*
X128750D02*
X151250D01*
X113000D02*
X114250D01*
X167000Y183000D02*
Y237000D01*
X165750Y183000D02*
X167000D01*
X128750D02*
X151250D01*
X113000D02*
X114250D01*
X91816Y320000D02*
X130000Y358184D01*
X167300Y320884D02*
X168184Y320000D01*
X141137Y347047D02*
X157047Y331137D01*
X130000Y358184D02*
X130884Y357300D01*
X130000Y281816D02*
X168184Y320000D01*
X129116Y282700D02*
X130000Y281816D01*
X102953Y308863D02*
X118863Y292953D01*
X91816Y320000D02*
X92700Y319116D01*
X425750Y237000D02*
X427000D01*
X388750D02*
X411250D01*
X373000D02*
X374250D01*
X373000Y183000D02*
Y237000D01*
X425750Y183000D02*
X427000D01*
X388750D02*
X411250D01*
X373000D02*
X374250D01*
X427000D02*
Y237000D01*
X77000Y93000D02*
Y94250D01*
Y108750D02*
Y131250D01*
Y145750D02*
Y147000D01*
X23000D02*
X77000D01*
X23000Y93000D02*
Y94250D01*
Y108750D02*
Y131250D01*
Y145750D02*
Y147000D01*
Y93000D02*
X77000D01*
X142000Y13000D02*
Y14250D01*
Y28750D02*
Y51250D01*
Y65750D02*
Y67000D01*
X88000D02*
X142000D01*
X88000Y13000D02*
Y14250D01*
Y28750D02*
Y51250D01*
Y65750D02*
Y67000D01*
Y13000D02*
X142000D01*
X297000Y53000D02*
Y54250D01*
Y68750D02*
Y91250D01*
Y105750D02*
Y107000D01*
X243000D02*
X297000D01*
X243000Y53000D02*
Y54250D01*
Y68750D02*
Y91250D01*
Y105750D02*
Y107000D01*
Y53000D02*
X297000D01*
Y183000D02*
Y184250D01*
Y198750D02*
Y221250D01*
Y235750D02*
Y237000D01*
X243000D02*
X297000D01*
X243000Y183000D02*
Y184250D01*
Y198750D02*
Y221250D01*
Y235750D02*
Y237000D01*
Y183000D02*
X297000D01*
Y313000D02*
Y314250D01*
Y328750D02*
Y351250D01*
Y365750D02*
Y367000D01*
X243000D02*
X297000D01*
X243000Y313000D02*
Y314250D01*
Y328750D02*
Y351250D01*
Y365750D02*
Y367000D01*
Y313000D02*
X297000D01*
X207000Y253750D02*
X223000D01*
X207000Y276250D02*
X223000D01*
X76388Y277702D02*
X87702Y266388D01*
X92298Y293612D02*
X103612Y282298D01*
X42000Y16250D02*
X58000D01*
X42000Y38750D02*
X58000D01*
X348750Y202000D02*
Y218000D01*
X371250Y202000D02*
Y218000D01*
X262000Y108750D02*
X278000D01*
X262000Y131250D02*
X278000D01*
X22000Y148750D02*
X38000D01*
X22000Y171250D02*
X38000D01*
X262000Y288750D02*
X278000D01*
X262000Y311250D02*
X278000D01*
X168750Y202000D02*
Y218000D01*
X191250Y202000D02*
Y218000D01*
M02*
