G04*
G04 #@! TF.GenerationSoftware,Altium Limited,Altium Designer,24.4.1 (13)*
G04*
G04 Layer_Color=32896*
%FSLAX44Y44*%
%MOMM*%
G71*
G04*
G04 #@! TF.SameCoordinates,756635CD-87F4-41CE-B67A-FD93177F9C21*
G04*
G04*
G04 #@! TF.FilePolarity,Positive*
G04*
G01*
G75*
%ADD10C,0.2500*%
%ADD11C,0.2000*%
G36*
X83528Y190683D02*
X83351D01*
Y190506D01*
X82999D01*
Y190330D01*
X82822D01*
Y190153D01*
X82646D01*
Y189977D01*
X82293D01*
Y189801D01*
X82116D01*
Y189624D01*
X81940D01*
Y189448D01*
X81764D01*
Y189272D01*
X81587D01*
Y189095D01*
X81411D01*
Y188919D01*
X81235D01*
Y188566D01*
X81058D01*
Y188390D01*
X80882D01*
Y188213D01*
X80705D01*
Y188037D01*
X80529D01*
Y187860D01*
X80353D01*
Y187684D01*
X80176D01*
Y187331D01*
X80000D01*
Y187155D01*
X79824D01*
Y186802D01*
X79647D01*
Y186449D01*
X79471D01*
Y186273D01*
X79647D01*
Y186097D01*
X80176D01*
Y186273D01*
X80705D01*
Y186449D01*
X81058D01*
Y186626D01*
X81235D01*
Y186802D01*
X81411D01*
Y186978D01*
X81587D01*
Y187155D01*
X81940D01*
Y187331D01*
X82293D01*
Y187508D01*
X84057D01*
Y187331D01*
X84233D01*
Y186978D01*
X83880D01*
Y186802D01*
X82646D01*
Y186626D01*
X82293D01*
Y186449D01*
X81940D01*
Y186273D01*
X81411D01*
Y186097D01*
X81587D01*
Y185920D01*
X81940D01*
Y185744D01*
X82293D01*
Y185567D01*
X82646D01*
Y185391D01*
X82822D01*
Y185215D01*
X83175D01*
Y185038D01*
X83528D01*
Y184862D01*
X83880D01*
Y184686D01*
X84233D01*
Y184509D01*
X88819D01*
Y184686D01*
X90230D01*
Y184862D01*
X91641D01*
Y185038D01*
X93405D01*
Y185215D01*
X97109D01*
Y185391D01*
X97991D01*
Y185215D01*
X100107D01*
Y185038D01*
X101518D01*
Y184862D01*
X102577D01*
Y184686D01*
X103459D01*
Y184509D01*
X104164D01*
Y184333D01*
X104693D01*
Y184156D01*
X105222D01*
Y183980D01*
X105751D01*
Y183804D01*
X106104D01*
Y183627D01*
X106633D01*
Y183451D01*
X106986D01*
Y183274D01*
X107339D01*
Y183098D01*
X107692D01*
Y182922D01*
X108045D01*
Y182745D01*
X108221D01*
Y182569D01*
X108574D01*
Y182393D01*
X108750D01*
Y182216D01*
X109103D01*
Y182040D01*
X109455D01*
Y181863D01*
X109808D01*
Y181687D01*
X109985D01*
Y181511D01*
X110337D01*
Y181334D01*
X110514D01*
Y181158D01*
X110867D01*
Y180982D01*
X111043D01*
Y180805D01*
X111396D01*
Y180629D01*
X111572D01*
Y180452D01*
X111925D01*
Y180276D01*
X112278D01*
Y180100D01*
X112454D01*
Y179923D01*
X112807D01*
Y179747D01*
X112983D01*
Y179571D01*
X113336D01*
Y179394D01*
X113689D01*
Y179218D01*
X113865D01*
Y179041D01*
X114218D01*
Y178865D01*
X114571D01*
Y178689D01*
X114923D01*
Y178512D01*
X115276D01*
Y178336D01*
X117922D01*
Y178512D01*
X120038D01*
Y178689D01*
X121273D01*
Y178865D01*
X121802D01*
Y179041D01*
X121626D01*
Y179218D01*
X121449D01*
Y179394D01*
X121273D01*
Y179571D01*
X121097D01*
Y179747D01*
X120920D01*
Y179923D01*
X120744D01*
Y180100D01*
X120568D01*
Y180276D01*
X120215D01*
Y180452D01*
X120038D01*
Y180629D01*
X119686D01*
Y180805D01*
X119509D01*
Y180982D01*
X119156D01*
Y181158D01*
X118980D01*
Y181334D01*
X118627D01*
Y181511D01*
X118274D01*
Y181687D01*
X117922D01*
Y181863D01*
X117569D01*
Y182040D01*
X117393D01*
Y182216D01*
X117569D01*
Y182393D01*
X118274D01*
Y182216D01*
X118804D01*
Y182040D01*
X119333D01*
Y181863D01*
X119686D01*
Y181687D01*
X119862D01*
Y181511D01*
X120215D01*
Y181334D01*
X120391D01*
Y181158D01*
X120568D01*
Y180982D01*
X120744D01*
Y180805D01*
X120920D01*
Y180629D01*
X121097D01*
Y180452D01*
X121273D01*
Y180276D01*
X121449D01*
Y180100D01*
X121626D01*
Y179923D01*
X121802D01*
Y179571D01*
X121979D01*
Y179218D01*
X122155D01*
Y179041D01*
X122331D01*
Y178865D01*
X122684D01*
Y179394D01*
X122860D01*
Y181511D01*
X122684D01*
Y182040D01*
X122508D01*
Y182393D01*
X122331D01*
Y182569D01*
X122155D01*
Y182745D01*
X121979D01*
Y182922D01*
X121802D01*
Y183098D01*
X121626D01*
Y183274D01*
X121449D01*
Y183451D01*
X121273D01*
Y183627D01*
X121097D01*
Y183804D01*
X120920D01*
Y183980D01*
X120744D01*
Y184333D01*
X120920D01*
Y184156D01*
X121449D01*
Y183980D01*
X121802D01*
Y183804D01*
X121979D01*
Y183627D01*
X122331D01*
Y183451D01*
X122508D01*
Y183274D01*
X122684D01*
Y183098D01*
X122860D01*
Y182922D01*
X123037D01*
Y182745D01*
X123213D01*
Y182393D01*
X123390D01*
Y182040D01*
X123566D01*
Y180276D01*
X123390D01*
Y179218D01*
X123213D01*
Y178689D01*
X123390D01*
Y178512D01*
X123566D01*
Y178336D01*
X123742D01*
Y178160D01*
X124095D01*
Y177983D01*
X124271D01*
Y177630D01*
X124448D01*
Y177454D01*
X124624D01*
Y177278D01*
X124801D01*
Y177101D01*
X124977D01*
Y176749D01*
X125153D01*
Y176572D01*
X125330D01*
Y176219D01*
X125506D01*
Y175867D01*
X125682D01*
Y175337D01*
X125859D01*
Y174808D01*
X126035D01*
Y173926D01*
X126212D01*
Y172692D01*
X126035D01*
Y171457D01*
X125859D01*
Y170928D01*
X125682D01*
Y170399D01*
X125506D01*
Y170046D01*
X125330D01*
Y169693D01*
X125153D01*
Y169517D01*
X124977D01*
Y169164D01*
X124801D01*
Y168988D01*
X124624D01*
Y168811D01*
X124448D01*
Y168635D01*
X124271D01*
Y168459D01*
X124095D01*
Y168282D01*
X123919D01*
Y168106D01*
X123742D01*
Y167929D01*
X123390D01*
Y167753D01*
X123037D01*
Y167577D01*
X122331D01*
Y167400D01*
X121802D01*
Y167224D01*
X121626D01*
Y167048D01*
X121449D01*
Y166342D01*
X121626D01*
Y165637D01*
X121802D01*
Y164931D01*
X121979D01*
Y163873D01*
X122155D01*
Y162991D01*
X121979D01*
Y162814D01*
X121802D01*
Y163167D01*
X121626D01*
Y163696D01*
X121449D01*
Y164402D01*
X121273D01*
Y165107D01*
X121097D01*
Y165813D01*
X120920D01*
Y167048D01*
X119862D01*
Y166871D01*
X120038D01*
Y165460D01*
X120215D01*
Y163520D01*
X120038D01*
Y162638D01*
X119862D01*
Y162109D01*
X119686D01*
Y161756D01*
X119509D01*
Y161403D01*
X119333D01*
Y161227D01*
X119156D01*
Y162109D01*
X119333D01*
Y164226D01*
X119509D01*
Y166871D01*
X119333D01*
Y167224D01*
X119156D01*
Y167400D01*
X118804D01*
Y167224D01*
X118627D01*
Y167048D01*
X118451D01*
Y166871D01*
X118274D01*
Y166695D01*
X118098D01*
Y166518D01*
X117922D01*
Y166342D01*
X117745D01*
Y166166D01*
X117569D01*
Y165989D01*
X117393D01*
Y165813D01*
X117216D01*
Y165637D01*
X117040D01*
Y165284D01*
X116863D01*
Y165107D01*
X116687D01*
Y164931D01*
X116511D01*
Y164755D01*
X116334D01*
Y164578D01*
X116158D01*
Y164226D01*
X115982D01*
Y164049D01*
X115805D01*
Y163696D01*
X115629D01*
Y163520D01*
X115452D01*
Y163344D01*
X115276D01*
Y162991D01*
X115100D01*
Y162814D01*
X114923D01*
Y162462D01*
X114747D01*
Y162285D01*
X114571D01*
Y162109D01*
X114394D01*
Y161933D01*
X114218D01*
Y161756D01*
X114041D01*
Y161580D01*
X113865D01*
Y161403D01*
X113689D01*
Y161227D01*
X113512D01*
Y161051D01*
X113336D01*
Y160874D01*
X113160D01*
Y160698D01*
X112983D01*
Y160522D01*
X112630D01*
Y160345D01*
X112454D01*
Y160169D01*
X112278D01*
Y159992D01*
X111925D01*
Y159816D01*
X111749D01*
Y159640D01*
X111572D01*
Y159463D01*
X111219D01*
Y159287D01*
X111043D01*
Y159110D01*
X110867D01*
Y158934D01*
X110690D01*
Y158758D01*
X110514D01*
Y158581D01*
X110337D01*
Y158405D01*
X110161D01*
Y158052D01*
X109985D01*
Y157523D01*
X109808D01*
Y156994D01*
X109632D01*
Y156465D01*
X109455D01*
Y156112D01*
X109279D01*
Y155583D01*
X109103D01*
Y155230D01*
X108926D01*
Y154701D01*
X108750D01*
Y154172D01*
X108574D01*
Y153819D01*
X108397D01*
Y153290D01*
X108221D01*
Y152761D01*
X108045D01*
Y152408D01*
X107868D01*
Y151879D01*
X107692D01*
Y151526D01*
X107515D01*
Y150997D01*
X107339D01*
Y150644D01*
X107163D01*
Y150115D01*
X106986D01*
Y149762D01*
X106810D01*
Y149410D01*
X106633D01*
Y148880D01*
X106457D01*
Y148528D01*
X106281D01*
Y147999D01*
X106104D01*
Y147646D01*
X105928D01*
Y147293D01*
X105751D01*
Y146940D01*
X105575D01*
Y146411D01*
X105399D01*
Y146058D01*
X105222D01*
Y145705D01*
X105046D01*
Y145176D01*
X104870D01*
Y144824D01*
X104693D01*
Y144471D01*
X104517D01*
Y144118D01*
X104340D01*
Y143589D01*
X104164D01*
Y143236D01*
X103988D01*
Y142883D01*
X103811D01*
Y142531D01*
X103635D01*
Y142178D01*
X103459D01*
Y141825D01*
X103282D01*
Y141472D01*
X103106D01*
Y140943D01*
X102929D01*
Y140590D01*
X102753D01*
Y140238D01*
X102577D01*
Y139885D01*
X102400D01*
Y139532D01*
X102224D01*
Y139179D01*
X102048D01*
Y138827D01*
X101871D01*
Y138474D01*
X101695D01*
Y138121D01*
X101518D01*
Y137768D01*
X101342D01*
Y137416D01*
X101166D01*
Y137063D01*
X100989D01*
Y136710D01*
X100813D01*
Y136357D01*
X100637D01*
Y136005D01*
X100460D01*
Y135652D01*
X100284D01*
Y135299D01*
X100107D01*
Y134946D01*
X99931D01*
Y134594D01*
X99755D01*
Y134417D01*
X99578D01*
Y134064D01*
X99402D01*
Y133712D01*
X99226D01*
Y133359D01*
X99049D01*
Y133006D01*
X98873D01*
Y132653D01*
X98696D01*
Y132477D01*
X98520D01*
Y132124D01*
X98343D01*
Y131771D01*
X98167D01*
Y131595D01*
X97991D01*
Y131242D01*
X97814D01*
Y130890D01*
X97638D01*
Y130713D01*
X97462D01*
Y130360D01*
X97285D01*
Y130008D01*
X97109D01*
Y129831D01*
X96932D01*
Y129479D01*
X96756D01*
Y129302D01*
X96580D01*
Y128949D01*
X96403D01*
Y128773D01*
X96227D01*
Y128420D01*
X96051D01*
Y128068D01*
X95874D01*
Y127891D01*
X95698D01*
Y127538D01*
X95521D01*
Y127009D01*
X95345D01*
Y126833D01*
X95521D01*
Y125951D01*
X95698D01*
Y125069D01*
X95874D01*
Y124363D01*
X96051D01*
Y123658D01*
X96227D01*
Y122776D01*
X96403D01*
Y121718D01*
X96580D01*
Y120836D01*
X96756D01*
Y119601D01*
X96932D01*
Y118367D01*
X97109D01*
Y116779D01*
X97285D01*
Y115015D01*
X97462D01*
Y111664D01*
X97638D01*
Y109371D01*
X97814D01*
Y109018D01*
X97991D01*
Y108842D01*
X98167D01*
Y108666D01*
X98520D01*
Y108489D01*
X98696D01*
Y108313D01*
X98873D01*
Y108137D01*
X99226D01*
Y107960D01*
X99402D01*
Y107784D01*
X99578D01*
Y107607D01*
X99755D01*
Y107431D01*
X100107D01*
Y107255D01*
X100284D01*
Y107078D01*
X100460D01*
Y106902D01*
X100637D01*
Y106726D01*
X100813D01*
Y106549D01*
X100989D01*
Y106373D01*
X101342D01*
Y106196D01*
X101518D01*
Y106020D01*
X101695D01*
Y105844D01*
X101871D01*
Y105667D01*
X102048D01*
Y105491D01*
X102224D01*
Y105314D01*
X102400D01*
Y105138D01*
X102577D01*
Y104962D01*
X102753D01*
Y104609D01*
X102929D01*
Y104432D01*
X103106D01*
Y104256D01*
X103282D01*
Y104080D01*
X103459D01*
Y103903D01*
X103635D01*
Y103727D01*
X103811D01*
Y103374D01*
X103988D01*
Y103198D01*
X104164D01*
Y103021D01*
X104340D01*
Y102669D01*
X104517D01*
Y102492D01*
X104693D01*
Y102140D01*
X104870D01*
Y101963D01*
X105046D01*
Y101610D01*
X105222D01*
Y101258D01*
X105399D01*
Y101081D01*
X105575D01*
Y100729D01*
X105751D01*
Y100376D01*
X105928D01*
Y100023D01*
X106104D01*
Y99494D01*
X106281D01*
Y99141D01*
X106457D01*
Y98612D01*
X106633D01*
Y98083D01*
X106810D01*
Y97554D01*
X106986D01*
Y96672D01*
X107163D01*
Y95790D01*
X107339D01*
Y94379D01*
X107515D01*
Y86795D01*
X107339D01*
Y85560D01*
X107163D01*
Y84501D01*
X106986D01*
Y83796D01*
X106810D01*
Y83267D01*
X106633D01*
Y82738D01*
X106457D01*
Y82209D01*
X106281D01*
Y81856D01*
X106104D01*
Y81503D01*
X105928D01*
Y80974D01*
X105751D01*
Y80621D01*
X105575D01*
Y80268D01*
X105399D01*
Y80092D01*
X105222D01*
Y79739D01*
X105046D01*
Y79387D01*
X104870D01*
Y79210D01*
X104693D01*
Y79034D01*
X104517D01*
Y78681D01*
X104340D01*
Y78505D01*
X104164D01*
Y78328D01*
X103988D01*
Y78152D01*
X103811D01*
Y77976D01*
X103635D01*
Y77799D01*
X103459D01*
Y77623D01*
X103282D01*
Y77446D01*
X103106D01*
Y77270D01*
X102929D01*
Y77094D01*
X102753D01*
Y76917D01*
X102400D01*
Y76741D01*
X102224D01*
Y76564D01*
X101871D01*
Y76388D01*
X101518D01*
Y76212D01*
X101166D01*
Y76035D01*
X100813D01*
Y75859D01*
X100460D01*
Y75683D01*
X99931D01*
Y75506D01*
X99402D01*
Y75330D01*
X98696D01*
Y75153D01*
X97814D01*
Y74977D01*
X96932D01*
Y74801D01*
X95874D01*
Y74624D01*
X95345D01*
Y74095D01*
X95521D01*
Y73390D01*
X95698D01*
Y72860D01*
X95874D01*
Y72331D01*
X96051D01*
Y71802D01*
X96227D01*
Y71097D01*
X96403D01*
Y70567D01*
X96580D01*
Y69862D01*
X96756D01*
Y69156D01*
X96932D01*
Y68451D01*
X97109D01*
Y67569D01*
X97285D01*
Y66511D01*
X97462D01*
Y65452D01*
X97638D01*
Y62807D01*
X97814D01*
Y61043D01*
X97638D01*
Y56104D01*
X97462D01*
Y55222D01*
X97285D01*
Y54517D01*
X97109D01*
Y53811D01*
X96932D01*
Y53106D01*
X96756D01*
Y52400D01*
X96580D01*
Y51871D01*
X96403D01*
Y51166D01*
X96227D01*
Y50637D01*
X96051D01*
Y50107D01*
X95874D01*
Y49578D01*
X95698D01*
Y49049D01*
X95521D01*
Y48696D01*
X95345D01*
Y48167D01*
X95169D01*
Y47814D01*
X94992D01*
Y47462D01*
X94816D01*
Y47109D01*
X94640D01*
Y46756D01*
X94463D01*
Y46403D01*
X94287D01*
Y46051D01*
X94110D01*
Y45698D01*
X93934D01*
Y45345D01*
X93758D01*
Y44992D01*
X93934D01*
Y44816D01*
X94463D01*
Y44640D01*
X94816D01*
Y44463D01*
X95169D01*
Y44287D01*
X95521D01*
Y44110D01*
X95698D01*
Y43934D01*
X95874D01*
Y43758D01*
X96051D01*
Y43581D01*
X96403D01*
Y43405D01*
X96580D01*
Y43229D01*
X96756D01*
Y43052D01*
X96932D01*
Y42876D01*
X97285D01*
Y42699D01*
X97991D01*
Y42523D01*
X98873D01*
Y42347D01*
X99755D01*
Y42170D01*
X100284D01*
Y41994D01*
X100813D01*
Y41817D01*
X101342D01*
Y41641D01*
X101695D01*
Y41465D01*
X102224D01*
Y41288D01*
X102577D01*
Y41112D01*
X102753D01*
Y40936D01*
X103106D01*
Y40759D01*
X103459D01*
Y40583D01*
X103635D01*
Y40406D01*
X103811D01*
Y40230D01*
X104164D01*
Y40054D01*
X104340D01*
Y39877D01*
X104517D01*
Y39701D01*
X104693D01*
Y39348D01*
X104870D01*
Y39172D01*
X105046D01*
Y38995D01*
X105222D01*
Y38643D01*
X105399D01*
Y38466D01*
X105575D01*
Y38114D01*
X105751D01*
Y37761D01*
X105928D01*
Y37232D01*
X106104D01*
Y36702D01*
X106281D01*
Y35997D01*
X106457D01*
Y34939D01*
X106633D01*
Y33351D01*
X106457D01*
Y32293D01*
X106281D01*
Y31587D01*
X106104D01*
Y31058D01*
X105928D01*
Y30705D01*
X105751D01*
Y30176D01*
X105575D01*
Y30000D01*
X105399D01*
Y29647D01*
X105222D01*
Y29295D01*
X105046D01*
Y28942D01*
X104870D01*
Y28765D01*
X104693D01*
Y28413D01*
X104517D01*
Y28236D01*
X104340D01*
Y28060D01*
X104164D01*
Y27884D01*
X103988D01*
Y27707D01*
X103811D01*
Y27531D01*
X103635D01*
Y27354D01*
X102929D01*
Y27531D01*
X102400D01*
Y27707D01*
X101871D01*
Y27884D01*
X101342D01*
Y28060D01*
X100813D01*
Y28236D01*
X100284D01*
Y28413D01*
X99755D01*
Y28589D01*
X99226D01*
Y28765D01*
X98696D01*
Y28942D01*
X97991D01*
Y29118D01*
X97285D01*
Y29295D01*
X96580D01*
Y29471D01*
X95874D01*
Y29647D01*
X95169D01*
Y29824D01*
X94287D01*
Y30000D01*
X93229D01*
Y30176D01*
X92170D01*
Y30353D01*
X90936D01*
Y30529D01*
X89524D01*
Y30705D01*
X82646D01*
Y30529D01*
X81940D01*
Y30353D01*
X81058D01*
Y30176D01*
X76825D01*
Y30353D01*
X75943D01*
Y29471D01*
X75767D01*
Y27707D01*
X75591D01*
Y27178D01*
X75414D01*
Y26649D01*
X75238D01*
Y26296D01*
X75061D01*
Y25943D01*
X74885D01*
Y25591D01*
X74709D01*
Y25238D01*
X74532D01*
Y25061D01*
X74356D01*
Y24885D01*
X74180D01*
Y24532D01*
X74003D01*
Y24356D01*
X73827D01*
Y24179D01*
X73650D01*
Y24003D01*
X73474D01*
Y23827D01*
X73121D01*
Y23650D01*
X72945D01*
Y23474D01*
X72592D01*
Y23298D01*
X72239D01*
Y23121D01*
X71710D01*
Y23298D01*
X71005D01*
Y23474D01*
X70299D01*
Y23650D01*
X69594D01*
Y23827D01*
X68712D01*
Y24003D01*
X68006D01*
Y24179D01*
X67301D01*
Y24356D01*
X66419D01*
Y24532D01*
X65537D01*
Y24709D01*
X64302D01*
Y24885D01*
X63067D01*
Y25061D01*
X62009D01*
Y25238D01*
X60598D01*
Y25414D01*
X59187D01*
Y25591D01*
X57952D01*
Y25767D01*
X56718D01*
Y25943D01*
X55483D01*
Y26120D01*
X54601D01*
Y26296D01*
X53896D01*
Y26472D01*
X53014D01*
Y26649D01*
X52308D01*
Y26825D01*
X51426D01*
Y27002D01*
X50015D01*
Y27178D01*
X48252D01*
Y27354D01*
X46488D01*
Y27531D01*
X44900D01*
Y27707D01*
X44018D01*
Y27884D01*
X43137D01*
Y28060D01*
X42607D01*
Y28236D01*
X42078D01*
Y28413D01*
X41726D01*
Y28589D01*
X41373D01*
Y28765D01*
X41020D01*
Y28942D01*
X40844D01*
Y29118D01*
X40491D01*
Y29295D01*
X40314D01*
Y29471D01*
X40138D01*
Y29824D01*
X39962D01*
Y30000D01*
X39785D01*
Y30176D01*
X39609D01*
Y30529D01*
X39432D01*
Y31235D01*
X39256D01*
Y34586D01*
X39432D01*
Y35821D01*
X39609D01*
Y36526D01*
X39785D01*
Y37232D01*
X39962D01*
Y37937D01*
X40138D01*
Y38466D01*
X40314D01*
Y38995D01*
X40491D01*
Y39525D01*
X40667D01*
Y40054D01*
X40844D01*
Y40759D01*
X41020D01*
Y41288D01*
X41196D01*
Y41817D01*
X41373D01*
Y42347D01*
X41549D01*
Y42876D01*
X41726D01*
Y43405D01*
X41549D01*
Y44287D01*
X41373D01*
Y44992D01*
X41196D01*
Y45698D01*
X41020D01*
Y45874D01*
X40491D01*
Y45698D01*
X40314D01*
Y45521D01*
X39962D01*
Y45345D01*
X39609D01*
Y45169D01*
X39432D01*
Y44992D01*
X39080D01*
Y44816D01*
X38903D01*
Y44640D01*
X38551D01*
Y44463D01*
X38198D01*
Y44287D01*
X37845D01*
Y44110D01*
X37492D01*
Y43934D01*
X37140D01*
Y43758D01*
X36787D01*
Y43581D01*
X36434D01*
Y43405D01*
X35905D01*
Y43229D01*
X35376D01*
Y43052D01*
X34847D01*
Y42876D01*
X34318D01*
Y42699D01*
X33612D01*
Y42523D01*
X32730D01*
Y42347D01*
X31848D01*
Y42170D01*
X30790D01*
Y41994D01*
X29379D01*
Y41817D01*
X26909D01*
Y41994D01*
X25498D01*
Y42170D01*
X24617D01*
Y42347D01*
X23911D01*
Y42523D01*
X23029D01*
Y42699D01*
X22324D01*
Y42876D01*
X21618D01*
Y43052D01*
X20913D01*
Y43229D01*
X20383D01*
Y43405D01*
X19678D01*
Y43581D01*
X19149D01*
Y43758D01*
X18796D01*
Y43934D01*
X18267D01*
Y44110D01*
X17738D01*
Y44287D01*
X17209D01*
Y44463D01*
X16856D01*
Y44640D01*
X16503D01*
Y44816D01*
X16327D01*
Y44992D01*
X15974D01*
Y45169D01*
X15798D01*
Y45345D01*
X15621D01*
Y45521D01*
X15445D01*
Y45698D01*
X15268D01*
Y45874D01*
X15092D01*
Y46051D01*
X14916D01*
Y46227D01*
X14739D01*
Y46403D01*
X14563D01*
Y46580D01*
X14387D01*
Y46756D01*
X14210D01*
Y46933D01*
X14034D01*
Y47285D01*
X13857D01*
Y47462D01*
X13681D01*
Y47814D01*
X13505D01*
Y48696D01*
X13328D01*
Y49402D01*
X13505D01*
Y50107D01*
X13681D01*
Y50460D01*
X13857D01*
Y50637D01*
X14210D01*
Y50813D01*
X14563D01*
Y50989D01*
X15974D01*
Y51166D01*
X19502D01*
Y51342D01*
X22853D01*
Y51518D01*
X24793D01*
Y51695D01*
X25498D01*
Y51871D01*
X26028D01*
Y52048D01*
X26380D01*
Y52224D01*
X26909D01*
Y52400D01*
X27262D01*
Y52577D01*
X27615D01*
Y52753D01*
X27791D01*
Y52930D01*
X28144D01*
Y53106D01*
X28321D01*
Y53282D01*
X28673D01*
Y53459D01*
X28850D01*
Y53635D01*
X29026D01*
Y53811D01*
X29379D01*
Y53988D01*
X29555D01*
Y54164D01*
X29732D01*
Y54341D01*
X29908D01*
Y54517D01*
X30084D01*
Y54693D01*
X30437D01*
Y54870D01*
X30614D01*
Y55046D01*
X30790D01*
Y55222D01*
X30966D01*
Y55399D01*
X31143D01*
Y55575D01*
X31319D01*
Y55752D01*
X31495D01*
Y55928D01*
X31672D01*
Y56104D01*
X31848D01*
Y56281D01*
X32025D01*
Y56457D01*
X32201D01*
Y56810D01*
X32377D01*
Y56986D01*
X32554D01*
Y57163D01*
X32730D01*
Y57339D01*
X32906D01*
Y57515D01*
X33083D01*
Y57692D01*
X33259D01*
Y57868D01*
X33436D01*
Y58045D01*
X33612D01*
Y58221D01*
X33788D01*
Y58397D01*
X33965D01*
Y58750D01*
X34141D01*
Y58926D01*
X34318D01*
Y59103D01*
X34494D01*
Y59279D01*
X34670D01*
Y59632D01*
X34847D01*
Y59808D01*
X35023D01*
Y60161D01*
X35199D01*
Y60867D01*
X35023D01*
Y61043D01*
X34847D01*
Y61219D01*
X34670D01*
Y61572D01*
X34494D01*
Y61748D01*
X34318D01*
Y61925D01*
X34141D01*
Y62101D01*
X33965D01*
Y62278D01*
X33788D01*
Y62454D01*
X33612D01*
Y62630D01*
X33436D01*
Y62807D01*
X33259D01*
Y63159D01*
X33083D01*
Y63336D01*
X32906D01*
Y63512D01*
X32730D01*
Y63689D01*
X32554D01*
Y64041D01*
X32377D01*
Y64218D01*
X32201D01*
Y64394D01*
X32025D01*
Y64571D01*
X31848D01*
Y64923D01*
X31672D01*
Y65100D01*
X31495D01*
Y65452D01*
X31319D01*
Y65629D01*
X31143D01*
Y65982D01*
X30966D01*
Y66158D01*
X30790D01*
Y66511D01*
X30614D01*
Y66863D01*
X30437D01*
Y67216D01*
X30261D01*
Y67393D01*
X30084D01*
Y67922D01*
X29908D01*
Y68274D01*
X29732D01*
Y68627D01*
X29555D01*
Y68980D01*
X29379D01*
Y69509D01*
X29202D01*
Y70038D01*
X29026D01*
Y70920D01*
X28850D01*
Y72684D01*
X28673D01*
Y74271D01*
X28850D01*
Y76388D01*
X29026D01*
Y77446D01*
X29202D01*
Y78328D01*
X29379D01*
Y79034D01*
X29555D01*
Y79739D01*
X29732D01*
Y80268D01*
X29908D01*
Y80974D01*
X30084D01*
Y81503D01*
X30261D01*
Y81856D01*
X30437D01*
Y82385D01*
X30614D01*
Y82914D01*
X30790D01*
Y83267D01*
X30966D01*
Y83620D01*
X31143D01*
Y84149D01*
X31319D01*
Y84501D01*
X31495D01*
Y84854D01*
X31672D01*
Y85207D01*
X31848D01*
Y85560D01*
X32025D01*
Y85913D01*
X32201D01*
Y86265D01*
X32377D01*
Y86618D01*
X32554D01*
Y86971D01*
X32730D01*
Y87324D01*
X32906D01*
Y87676D01*
X33083D01*
Y88029D01*
X33259D01*
Y88205D01*
X33436D01*
Y88558D01*
X33612D01*
Y88911D01*
X33788D01*
Y89087D01*
X33965D01*
Y89440D01*
X34141D01*
Y89617D01*
X34318D01*
Y89969D01*
X34494D01*
Y90322D01*
X34670D01*
Y91028D01*
X34494D01*
Y91557D01*
X34318D01*
Y92262D01*
X34141D01*
Y95437D01*
X34318D01*
Y96495D01*
X34494D01*
Y97201D01*
X34670D01*
Y97907D01*
X34847D01*
Y98436D01*
X35023D01*
Y98788D01*
X35199D01*
Y99318D01*
X35376D01*
Y99670D01*
X35552D01*
Y100023D01*
X35728D01*
Y100376D01*
X35905D01*
Y100729D01*
X36081D01*
Y101081D01*
X36258D01*
Y101258D01*
X36434D01*
Y101610D01*
X36610D01*
Y101787D01*
X36787D01*
Y102140D01*
X36963D01*
Y102316D01*
X37140D01*
Y102669D01*
X37316D01*
Y102845D01*
X37492D01*
Y103021D01*
X37669D01*
Y103198D01*
X37845D01*
Y103551D01*
X38022D01*
Y103727D01*
X38198D01*
Y103903D01*
X38374D01*
Y104080D01*
X38551D01*
Y104256D01*
X38727D01*
Y104432D01*
X38903D01*
Y104609D01*
X39080D01*
Y104962D01*
X39256D01*
Y105138D01*
X39432D01*
Y105314D01*
X39609D01*
Y105491D01*
X39785D01*
Y105667D01*
X39962D01*
Y105844D01*
X40138D01*
Y106020D01*
X40314D01*
Y106196D01*
X40491D01*
Y106373D01*
X40667D01*
Y106549D01*
X40844D01*
Y106726D01*
X41020D01*
Y106902D01*
X41196D01*
Y107078D01*
X41373D01*
Y107255D01*
X41549D01*
Y107431D01*
X41726D01*
Y107607D01*
X41902D01*
Y107784D01*
X42078D01*
Y107960D01*
X42255D01*
Y108137D01*
X42431D01*
Y108313D01*
X42607D01*
Y108489D01*
X42784D01*
Y108666D01*
X42960D01*
Y108842D01*
X43137D01*
Y109018D01*
X43313D01*
Y109195D01*
X43489D01*
Y109371D01*
X43666D01*
Y109548D01*
X43842D01*
Y109724D01*
X44018D01*
Y109900D01*
X44195D01*
Y110077D01*
X44371D01*
Y110253D01*
X44548D01*
Y110429D01*
X44724D01*
Y110606D01*
X44900D01*
Y110782D01*
X45077D01*
Y110959D01*
X45429D01*
Y111135D01*
X45606D01*
Y111311D01*
X45782D01*
Y111488D01*
X45959D01*
Y111664D01*
X46135D01*
Y111840D01*
X46311D01*
Y112017D01*
X46488D01*
Y112193D01*
X46664D01*
Y112370D01*
X46841D01*
Y112546D01*
X47017D01*
Y112722D01*
X47193D01*
Y112899D01*
X47370D01*
Y113075D01*
X47546D01*
Y113251D01*
X47722D01*
Y113428D01*
X47899D01*
Y113604D01*
X48075D01*
Y113781D01*
X48252D01*
Y113957D01*
X48428D01*
Y114134D01*
X48604D01*
Y114310D01*
X48781D01*
Y114486D01*
X48957D01*
Y114663D01*
X49133D01*
Y114839D01*
X49310D01*
Y115015D01*
X49663D01*
Y115192D01*
X49839D01*
Y115368D01*
X50015D01*
Y115545D01*
X50192D01*
Y115721D01*
X50368D01*
Y115897D01*
X50545D01*
Y116074D01*
X50721D01*
Y116250D01*
X50897D01*
Y116426D01*
X51074D01*
Y116603D01*
X51250D01*
Y116779D01*
X51426D01*
Y116955D01*
X51603D01*
Y117132D01*
X51779D01*
Y117308D01*
X51955D01*
Y117485D01*
X52132D01*
Y117661D01*
X52308D01*
Y117837D01*
X52485D01*
Y118014D01*
X52661D01*
Y118190D01*
X52837D01*
Y118367D01*
X53014D01*
Y118543D01*
X53190D01*
Y118719D01*
X53367D01*
Y118896D01*
X53543D01*
Y119072D01*
X53719D01*
Y119249D01*
X53896D01*
Y119425D01*
X54072D01*
Y119601D01*
X54248D01*
Y119778D01*
X54425D01*
Y119954D01*
X54601D01*
Y120130D01*
X54778D01*
Y120307D01*
X54954D01*
Y120483D01*
X55130D01*
Y120660D01*
X55307D01*
Y120836D01*
X55483D01*
Y121012D01*
X55659D01*
Y121189D01*
X55836D01*
Y121365D01*
X56012D01*
Y121541D01*
X56189D01*
Y121718D01*
X56365D01*
Y121894D01*
X56541D01*
Y122071D01*
X56718D01*
Y122247D01*
X56894D01*
Y122423D01*
X57070D01*
Y122600D01*
X57247D01*
Y122776D01*
X57423D01*
Y122952D01*
X57600D01*
Y123129D01*
X57776D01*
Y123305D01*
X57952D01*
Y123482D01*
X58129D01*
Y123834D01*
X58305D01*
Y124011D01*
X58482D01*
Y124187D01*
X58658D01*
Y124363D01*
X58834D01*
Y124540D01*
X59011D01*
Y124716D01*
X59187D01*
Y124893D01*
X59363D01*
Y125245D01*
X59540D01*
Y125422D01*
X59716D01*
Y125598D01*
X59893D01*
Y125775D01*
X60069D01*
Y126127D01*
X60245D01*
Y126304D01*
X60422D01*
Y126480D01*
X60598D01*
Y126833D01*
X60774D01*
Y127009D01*
X60951D01*
Y127186D01*
X61127D01*
Y127538D01*
X61304D01*
Y127715D01*
X61480D01*
Y127891D01*
X61656D01*
Y128244D01*
X61833D01*
Y128420D01*
X62009D01*
Y128597D01*
X62186D01*
Y128773D01*
X62362D01*
Y128949D01*
X62538D01*
Y129126D01*
X62715D01*
Y129479D01*
X62891D01*
Y129655D01*
X63067D01*
Y129831D01*
X63244D01*
Y130008D01*
X63420D01*
Y130184D01*
X63597D01*
Y130360D01*
X63773D01*
Y130537D01*
X63949D01*
Y130713D01*
X64126D01*
Y130890D01*
X64302D01*
Y131066D01*
X64479D01*
Y131242D01*
X64655D01*
Y131419D01*
X64831D01*
Y131595D01*
X65008D01*
Y131771D01*
X65360D01*
Y131948D01*
X65537D01*
Y132124D01*
X65713D01*
Y132301D01*
X66066D01*
Y132477D01*
X66242D01*
Y132653D01*
X66595D01*
Y132830D01*
X66948D01*
Y133006D01*
X67301D01*
Y133182D01*
X67477D01*
Y133359D01*
X67830D01*
Y133535D01*
X68183D01*
Y133712D01*
X68535D01*
Y133888D01*
X68888D01*
Y134064D01*
X69241D01*
Y134241D01*
X69594D01*
Y134417D01*
X69770D01*
Y134594D01*
X70123D01*
Y134770D01*
X70475D01*
Y134946D01*
X70828D01*
Y135123D01*
X71181D01*
Y135299D01*
X71534D01*
Y135476D01*
X71887D01*
Y135652D01*
X72239D01*
Y135828D01*
X72416D01*
Y136005D01*
X72768D01*
Y136181D01*
X73121D01*
Y136357D01*
X73474D01*
Y136534D01*
X73827D01*
Y136710D01*
X74180D01*
Y136887D01*
X74356D01*
Y137063D01*
X74709D01*
Y137239D01*
X75061D01*
Y137416D01*
X75414D01*
Y137592D01*
X75591D01*
Y137768D01*
X75943D01*
Y137945D01*
X76120D01*
Y138121D01*
X76472D01*
Y138298D01*
X76649D01*
Y138474D01*
X77002D01*
Y138650D01*
X77178D01*
Y138827D01*
X77354D01*
Y139003D01*
X77531D01*
Y139179D01*
X77883D01*
Y139356D01*
X78060D01*
Y139532D01*
X78236D01*
Y139709D01*
X78413D01*
Y139885D01*
X78589D01*
Y140061D01*
X78765D01*
Y140414D01*
X78942D01*
Y140590D01*
X79118D01*
Y140767D01*
X79295D01*
Y140943D01*
X79471D01*
Y141296D01*
X79647D01*
Y141472D01*
X79824D01*
Y141825D01*
X80000D01*
Y142178D01*
X80176D01*
Y142531D01*
X80353D01*
Y142883D01*
X80529D01*
Y143413D01*
X80705D01*
Y143942D01*
X80882D01*
Y144471D01*
X81058D01*
Y145176D01*
X81235D01*
Y146058D01*
X81411D01*
Y147117D01*
X81587D01*
Y148351D01*
X81764D01*
Y149939D01*
X81940D01*
Y161227D01*
X81764D01*
Y164402D01*
X81587D01*
Y166166D01*
X81411D01*
Y167400D01*
X81235D01*
Y168459D01*
X81058D01*
Y169517D01*
X80882D01*
Y170399D01*
X80705D01*
Y171104D01*
X80529D01*
Y171810D01*
X80353D01*
Y172515D01*
X80176D01*
Y173221D01*
X80000D01*
Y173750D01*
X79824D01*
Y174103D01*
X79647D01*
Y174632D01*
X79471D01*
Y174985D01*
X79295D01*
Y175337D01*
X79118D01*
Y175690D01*
X78942D01*
Y175867D01*
X78765D01*
Y176219D01*
X78589D01*
Y176396D01*
X78413D01*
Y176749D01*
X78236D01*
Y176925D01*
X78060D01*
Y177101D01*
X77883D01*
Y177454D01*
X77707D01*
Y177630D01*
X77531D01*
Y177807D01*
X77354D01*
Y177983D01*
X77178D01*
Y178336D01*
X77002D01*
Y178512D01*
X76825D01*
Y178689D01*
X76649D01*
Y178865D01*
X76296D01*
Y178689D01*
X76120D01*
Y178512D01*
X75943D01*
Y178336D01*
X75767D01*
Y178160D01*
X75591D01*
Y177983D01*
X75414D01*
Y177807D01*
X75238D01*
Y177630D01*
X75061D01*
Y177278D01*
X75414D01*
Y177454D01*
X75591D01*
Y177630D01*
X75767D01*
Y177807D01*
X76120D01*
Y177983D01*
X76472D01*
Y178160D01*
X77002D01*
Y177983D01*
X76825D01*
Y177807D01*
X76649D01*
Y177630D01*
X76472D01*
Y177454D01*
X76296D01*
Y177278D01*
X76120D01*
Y177101D01*
X75943D01*
Y176925D01*
X75767D01*
Y176749D01*
X75591D01*
Y176572D01*
X75414D01*
Y176396D01*
X75238D01*
Y176219D01*
X75061D01*
Y176043D01*
X74885D01*
Y175867D01*
X74532D01*
Y176396D01*
X74356D01*
Y176219D01*
X74003D01*
Y177101D01*
X74180D01*
Y177630D01*
X74356D01*
Y177983D01*
X74532D01*
Y178160D01*
X74709D01*
Y178512D01*
X74885D01*
Y178689D01*
X75238D01*
Y178865D01*
X75414D01*
Y179041D01*
X75943D01*
Y179218D01*
X76296D01*
Y179747D01*
X76120D01*
Y180805D01*
X75943D01*
Y182745D01*
X76120D01*
Y183451D01*
X76296D01*
Y183804D01*
X76472D01*
Y183980D01*
X76649D01*
Y184333D01*
X76825D01*
Y184509D01*
X77002D01*
Y184686D01*
X77178D01*
Y184862D01*
X77354D01*
Y185038D01*
X77707D01*
Y185215D01*
X77883D01*
Y185391D01*
X78060D01*
Y185567D01*
X78236D01*
Y185744D01*
X78589D01*
Y185920D01*
X78942D01*
Y186097D01*
X79118D01*
Y186802D01*
X79295D01*
Y187508D01*
X79471D01*
Y187860D01*
X79647D01*
Y188037D01*
X79824D01*
Y188390D01*
X80000D01*
Y188566D01*
X80176D01*
Y188919D01*
X80353D01*
Y189095D01*
X80529D01*
Y189272D01*
X80705D01*
Y189448D01*
X80882D01*
Y189624D01*
X81058D01*
Y189801D01*
X81235D01*
Y189977D01*
X81411D01*
Y190153D01*
X81764D01*
Y190330D01*
X81940D01*
Y190506D01*
X82293D01*
Y190683D01*
X82469D01*
Y190859D01*
X83528D01*
Y190683D01*
D02*
G37*
G36*
X251261Y158926D02*
X254640D01*
Y158685D01*
X257295D01*
X257295Y158444D01*
X259467D01*
Y158202D01*
X261397D01*
Y157961D01*
X263087D01*
Y157720D01*
X264535Y157720D01*
Y157478D01*
X265983Y157478D01*
Y157237D01*
X267431D01*
X267431Y156996D01*
X268638D01*
X268638Y156754D01*
X269845D01*
Y156513D01*
X270810D01*
Y156272D01*
X272017D01*
Y156030D01*
X272982D01*
Y155789D01*
X273948D01*
Y155548D01*
X274913D01*
Y155306D01*
X275637D01*
Y155065D01*
X276602D01*
Y154824D01*
X277327D01*
Y154582D01*
X278292D01*
X278292Y154341D01*
X279016D01*
X279016Y154099D01*
X279740D01*
X279740Y153858D01*
X280464D01*
Y153617D01*
X281188Y153617D01*
Y153375D01*
X281912D01*
Y153134D01*
X282636Y153134D01*
Y152893D01*
X283360D01*
Y152651D01*
X283843D01*
Y152410D01*
X284567Y152410D01*
Y152169D01*
X285291Y152169D01*
Y151927D01*
X285774D01*
Y151686D01*
X286498D01*
Y151445D01*
X286980D01*
Y151203D01*
X287463D01*
Y150962D01*
X288187D01*
Y150721D01*
X288670D01*
Y150479D01*
X289153D01*
X289153Y150238D01*
X289635D01*
Y149997D01*
X290118D01*
Y149755D01*
X290601D01*
X290601Y149514D01*
X291083D01*
X291083Y149272D01*
X291566D01*
Y149031D01*
X292049D01*
Y148790D01*
X292532D01*
Y148548D01*
X293014D01*
Y148307D01*
X293497D01*
Y148066D01*
X293980D01*
Y147824D01*
X294462Y147824D01*
Y147583D01*
X294704Y147583D01*
Y147342D01*
X295186D01*
Y147100D01*
X295669D01*
Y146859D01*
X296152D01*
Y146618D01*
X296393D01*
Y146376D01*
X296876D01*
Y146135D01*
X297117D01*
Y145894D01*
X297600D01*
Y145652D01*
X298083D01*
Y145411D01*
X298324D01*
X298324Y145169D01*
X298807D01*
Y144928D01*
X299048D01*
Y144687D01*
X299289D01*
Y144445D01*
X299772D01*
Y144204D01*
X300013D01*
Y143963D01*
X300496D01*
Y143721D01*
X300737D01*
Y143480D01*
X300979D01*
Y143239D01*
X301461D01*
Y142997D01*
X301703Y142997D01*
Y142756D01*
X301944Y142756D01*
Y142515D01*
X302185Y142515D01*
Y142273D01*
X302668D01*
Y142032D01*
X302910Y142032D01*
Y141791D01*
X303151D01*
Y141549D01*
X303392D01*
Y141308D01*
X303634D01*
Y141067D01*
X303875D01*
Y140825D01*
X304358D01*
Y140584D01*
X304599D01*
Y140343D01*
X304840D01*
Y140101D01*
X305082D01*
Y139860D01*
X305323D01*
Y139619D01*
X305564D01*
X305564Y139377D01*
X305806D01*
X305806Y139136D01*
X306047D01*
X306047Y138894D01*
X306288D01*
X306288Y138653D01*
X306530D01*
X306530Y138412D01*
X306771D01*
Y138170D01*
X307013D01*
Y137688D01*
X307254D01*
Y137446D01*
X307495D01*
Y137205D01*
X307736D01*
Y136964D01*
X307978D01*
Y136722D01*
X308219D01*
Y136240D01*
X308461D01*
Y135998D01*
X308702D01*
Y135757D01*
X308943D01*
X308943Y135274D01*
X309185D01*
X309185Y135033D01*
X309426D01*
Y134550D01*
X309667D01*
X309667Y134309D01*
X309909D01*
Y134067D01*
X310150D01*
Y133585D01*
X310391D01*
Y133102D01*
X310633D01*
Y132861D01*
X310874D01*
X310874Y132378D01*
X311115D01*
Y131895D01*
X311357D01*
Y131413D01*
X311598D01*
Y130930D01*
X311840D01*
Y130447D01*
X312081D01*
Y129723D01*
X312322D01*
Y129241D01*
X312563D01*
Y128516D01*
X312805Y128516D01*
Y127792D01*
X313046Y127792D01*
Y126827D01*
X313288Y126827D01*
Y125862D01*
X313529Y125862D01*
Y124413D01*
X313770D01*
Y118621D01*
X313529D01*
Y117173D01*
X313288Y117173D01*
Y116208D01*
X313046Y116208D01*
Y115484D01*
X312805Y115484D01*
Y114518D01*
X312563D01*
Y114036D01*
X312322D01*
Y113311D01*
X312081D01*
Y112829D01*
X311840D01*
Y112346D01*
X311598D01*
Y111622D01*
X311357D01*
Y111139D01*
X311115D01*
Y110898D01*
X310874D01*
Y110415D01*
X310633Y110415D01*
Y109932D01*
X310391D01*
Y109450D01*
X310150D01*
Y109208D01*
X309909D01*
Y108726D01*
X309667D01*
X309667Y108484D01*
X309426D01*
Y108002D01*
X309185D01*
X309185Y107760D01*
X308943D01*
X308943Y107519D01*
X308702D01*
Y107036D01*
X308461D01*
Y106795D01*
X308219D01*
Y106554D01*
X307978D01*
Y106312D01*
X307736D01*
Y105830D01*
X307495D01*
Y105588D01*
X307254D01*
Y105347D01*
X307013D01*
Y105105D01*
X306771Y105105D01*
Y104864D01*
X306530Y104864D01*
Y104623D01*
X306288Y104623D01*
Y104382D01*
X306047Y104382D01*
Y104140D01*
X305806Y104140D01*
Y103899D01*
X305564Y103899D01*
X305564Y103657D01*
X305323D01*
X305323Y103416D01*
X305082D01*
Y103175D01*
X304840D01*
Y102933D01*
X304599D01*
Y102692D01*
X304358D01*
Y102451D01*
X304116D01*
Y102209D01*
X303875D01*
Y101968D01*
X303634D01*
Y101727D01*
X303392D01*
Y101485D01*
X303151D01*
Y101244D01*
X302668D01*
Y101003D01*
X302427Y101003D01*
Y100761D01*
X302185Y100761D01*
Y100520D01*
X301944Y100520D01*
Y100279D01*
X301461D01*
Y100037D01*
X301220Y100037D01*
Y99796D01*
X300979D01*
Y99555D01*
X300496D01*
Y99313D01*
X300255D01*
Y99072D01*
X300013D01*
Y98830D01*
X299531D01*
Y98589D01*
X299289D01*
Y98348D01*
X298807D01*
Y98106D01*
X298565D01*
Y97865D01*
X298083D01*
X298083Y97624D01*
X297841D01*
X297841Y97382D01*
X297358D01*
X297358Y97141D01*
X297117D01*
Y96900D01*
X296635D01*
Y96658D01*
X296393D01*
Y96417D01*
X295910D01*
Y96176D01*
X295428D01*
Y95934D01*
X295186D01*
Y95693D01*
X294704D01*
Y95451D01*
X294221D01*
Y95210D01*
X293738D01*
Y94969D01*
X293256D01*
Y94727D01*
X292773Y94727D01*
Y94486D01*
X292532D01*
Y94245D01*
X292049D01*
Y94003D01*
X291325Y94003D01*
Y93762D01*
X290842D01*
Y93521D01*
X290359D01*
Y93279D01*
X289877Y93279D01*
Y93038D01*
X289394D01*
X289394Y92797D01*
X288911D01*
X288911Y92555D01*
X288429D01*
Y92314D01*
X287946D01*
Y92073D01*
X287222D01*
Y91831D01*
X286739D01*
Y91590D01*
X286015D01*
Y91349D01*
X285532D01*
Y91107D01*
X284808D01*
Y90866D01*
X284326D01*
X284326Y90625D01*
X283602D01*
X283602Y90383D01*
X283119D01*
Y90142D01*
X282395Y90142D01*
Y89901D01*
X281671Y89901D01*
Y89659D01*
X280947D01*
Y89418D01*
X280223D01*
Y89177D01*
X279499Y89177D01*
Y88935D01*
X278775Y88935D01*
X278775Y88694D01*
X277809D01*
X277809Y88452D01*
X277085D01*
Y88211D01*
X276120D01*
Y87970D01*
X275396D01*
Y87728D01*
X274430D01*
Y87487D01*
X273465D01*
Y87246D01*
X272500D01*
Y87004D01*
X271534D01*
Y86763D01*
X270569D01*
Y86522D01*
X269362D01*
X269362Y86280D01*
X268155D01*
X268155Y86039D01*
X266707D01*
X266707Y85798D01*
X265500D01*
Y85556D01*
X263811D01*
Y85315D01*
X262363D01*
Y85073D01*
X260673D01*
Y84832D01*
X258501D01*
Y84591D01*
X256329D01*
Y84349D01*
X253433D01*
Y84108D01*
X248606D01*
Y83867D01*
X239676D01*
Y84108D01*
X235090D01*
Y84349D01*
X232194D01*
Y84591D01*
X230022D01*
Y84832D01*
X227850D01*
Y85073D01*
X226161D01*
Y85315D01*
X224471D01*
Y85556D01*
X223023D01*
Y85798D01*
X221575Y85798D01*
Y86039D01*
X220368D01*
X220368Y86280D01*
X219161D01*
X219161Y86522D01*
X217955D01*
Y86763D01*
X216989D01*
Y87004D01*
X216024D01*
Y87246D01*
X215058D01*
Y87487D01*
X214093D01*
Y87728D01*
X213128D01*
Y87970D01*
X212162D01*
Y88211D01*
X211438D01*
Y88452D01*
X210714D01*
Y88694D01*
X209749D01*
X209749Y88935D01*
X209025D01*
Y89177D01*
X208301D01*
Y89418D01*
X207577Y89418D01*
Y89659D01*
X206852Y89659D01*
Y89901D01*
X206128D01*
Y90142D01*
X205404D01*
X205404Y90383D01*
X204922D01*
X204922Y90625D01*
X204198D01*
X204198Y90866D01*
X203474D01*
Y91107D01*
X202991D01*
Y91349D01*
X202267D01*
Y91590D01*
X201784D01*
Y91831D01*
X201301D01*
Y92073D01*
X200577D01*
Y92314D01*
X200095D01*
X200095Y92555D01*
X199612D01*
X199612Y92797D01*
X199129D01*
X199129Y93038D01*
X198405D01*
Y93279D01*
X197923D01*
Y93521D01*
X197440D01*
Y93762D01*
X196957Y93762D01*
Y94003D01*
X196474D01*
Y94245D01*
X195992D01*
Y94486D01*
X195750Y94486D01*
Y94727D01*
X195268D01*
Y94969D01*
X194785D01*
Y95210D01*
X194302D01*
Y95451D01*
X193820D01*
Y95693D01*
X193337D01*
Y95934D01*
X193096D01*
Y96176D01*
X192613D01*
Y96417D01*
X192130D01*
X192130Y96658D01*
X191889D01*
X191889Y96900D01*
X191406D01*
Y97141D01*
X191165D01*
Y97382D01*
X190682D01*
Y97624D01*
X190199D01*
X190199Y97865D01*
X189958D01*
Y98106D01*
X189475D01*
Y98348D01*
X189234D01*
Y98589D01*
X188993D01*
Y98830D01*
X188510D01*
Y99072D01*
X188269D01*
Y99313D01*
X187786D01*
Y99555D01*
X187544Y99555D01*
Y99796D01*
X187303D01*
Y100037D01*
X186821D01*
Y100279D01*
X186579D01*
Y100520D01*
X186338D01*
Y100761D01*
X186096Y100761D01*
Y101003D01*
X185855Y101003D01*
Y101244D01*
X185372D01*
Y101485D01*
X185131Y101485D01*
Y101727D01*
X184890Y101727D01*
Y101968D01*
X184648D01*
Y102209D01*
X184407D01*
Y102451D01*
X184166D01*
Y102692D01*
X183924D01*
Y102933D01*
X183683D01*
Y103175D01*
X183200D01*
Y103657D01*
X182959D01*
Y103899D01*
X182476D01*
Y104382D01*
X182235D01*
Y104623D01*
X181994D01*
Y104864D01*
X181752D01*
Y105105D01*
X181511Y105105D01*
Y105347D01*
X181269Y105347D01*
Y105588D01*
X181028Y105588D01*
Y105830D01*
X180787Y105830D01*
Y106071D01*
X180545D01*
Y106554D01*
X180304D01*
Y106795D01*
X180063D01*
Y107036D01*
X179821D01*
Y107519D01*
X179580D01*
Y107760D01*
X179339D01*
Y108002D01*
X179097D01*
Y108484D01*
X178856D01*
X178856Y108726D01*
X178615D01*
Y109208D01*
X178373D01*
Y109450D01*
X178132D01*
Y109932D01*
X177891D01*
Y110415D01*
X177649D01*
Y110656D01*
X177408D01*
Y111139D01*
X177167D01*
Y111622D01*
X176925D01*
Y112105D01*
X176684D01*
X176684Y112829D01*
X176443D01*
X176442Y113311D01*
X176201D01*
Y113794D01*
X175960D01*
Y114518D01*
X175718D01*
Y115242D01*
X175477D01*
Y116208D01*
X175236D01*
Y117173D01*
X174994D01*
Y118621D01*
X174753D01*
Y124655D01*
X174994D01*
Y125862D01*
X175236D01*
Y127068D01*
X175477D01*
Y127792D01*
X175718D01*
Y128516D01*
X175960D01*
Y129241D01*
X176201D01*
Y129965D01*
X176442D01*
Y130447D01*
X176684Y130447D01*
Y130930D01*
X176925Y130930D01*
Y131413D01*
X177167Y131413D01*
Y131895D01*
X177408Y131895D01*
Y132378D01*
X177649Y132378D01*
Y132861D01*
X177891D01*
Y133102D01*
X178132D01*
Y133585D01*
X178373D01*
Y134067D01*
X178615D01*
Y134309D01*
X178856D01*
Y134791D01*
X179097D01*
X179097Y135033D01*
X179339D01*
Y135274D01*
X179580D01*
Y135757D01*
X179821D01*
Y135998D01*
X180063D01*
Y136481D01*
X180304D01*
Y136722D01*
X180545D01*
Y136964D01*
X180787D01*
Y137205D01*
X181028D01*
Y137446D01*
X181269D01*
Y137688D01*
X181511D01*
Y138170D01*
X181752D01*
Y138412D01*
X181994Y138412D01*
Y138653D01*
X182235D01*
Y138894D01*
X182476D01*
Y139136D01*
X182718D01*
Y139377D01*
X182959D01*
Y139619D01*
X183200D01*
Y139860D01*
X183442D01*
Y140101D01*
X183683D01*
Y140343D01*
X183924D01*
Y140584D01*
X184166D01*
Y140825D01*
X184407D01*
Y141067D01*
X184890D01*
Y141308D01*
X185131Y141308D01*
Y141549D01*
X185372Y141549D01*
Y141791D01*
X185614Y141791D01*
Y142032D01*
X185855Y142032D01*
Y142273D01*
X186096Y142273D01*
Y142515D01*
X186579D01*
Y142756D01*
X186821D01*
Y142997D01*
X187062D01*
Y143239D01*
X187544D01*
X187545Y143480D01*
X187786D01*
X187786Y143721D01*
X188027D01*
Y143963D01*
X188510D01*
Y144204D01*
X188751D01*
Y144445D01*
X188993D01*
Y144687D01*
X189475D01*
Y144928D01*
X189717D01*
Y145169D01*
X190199D01*
Y145411D01*
X190441D01*
Y145652D01*
X190923D01*
Y145894D01*
X191165D01*
Y146135D01*
X191647D01*
Y146376D01*
X192130Y146376D01*
Y146618D01*
X192372Y146618D01*
Y146859D01*
X192854D01*
Y147100D01*
X193337D01*
X193337Y147342D01*
X193578D01*
X193578Y147583D01*
X194061D01*
X194061Y147824D01*
X194544D01*
Y148066D01*
X195026D01*
Y148307D01*
X195509D01*
Y148548D01*
X195992D01*
Y148790D01*
X196233D01*
Y149031D01*
X196716D01*
Y149272D01*
X197199D01*
Y149514D01*
X197923Y149514D01*
Y149755D01*
X198405D01*
Y149997D01*
X198888D01*
X198888Y150238D01*
X199371D01*
X199371Y150479D01*
X199853D01*
X199853Y150721D01*
X200336D01*
X200336Y150962D01*
X201060D01*
Y151203D01*
X201543D01*
Y151445D01*
X202026D01*
Y151686D01*
X202750D01*
Y151927D01*
X203232D01*
Y152169D01*
X203956Y152169D01*
Y152410D01*
X204680D01*
Y152651D01*
X205163D01*
Y152893D01*
X205887Y152893D01*
Y153134D01*
X206611D01*
Y153375D01*
X207335Y153375D01*
Y153617D01*
X208059Y153617D01*
Y153858D01*
X208783Y153858D01*
Y154099D01*
X209507D01*
Y154341D01*
X210231D01*
Y154582D01*
X211197Y154582D01*
Y154824D01*
X211921Y154824D01*
Y155065D01*
X212886D01*
Y155306D01*
X213610D01*
Y155548D01*
X214576D01*
Y155789D01*
X215541D01*
Y156030D01*
X216507D01*
Y156272D01*
X217472D01*
Y156513D01*
X218679D01*
Y156754D01*
X219885Y156754D01*
X219885Y156996D01*
X221092D01*
Y157237D01*
X222540Y157237D01*
Y157478D01*
X223988D01*
Y157720D01*
X225436D01*
X225436Y157961D01*
X227126D01*
Y158202D01*
X229057Y158202D01*
Y158444D01*
X231229D01*
X231229Y158685D01*
X233642Y158685D01*
Y158926D01*
X237262D01*
Y159168D01*
X251261D01*
Y158926D01*
D02*
G37*
G36*
X307495Y71799D02*
X307736D01*
Y60697D01*
Y60456D01*
Y51767D01*
X307495D01*
Y50802D01*
X307254D01*
Y50319D01*
X307013D01*
Y49837D01*
X306771D01*
Y49595D01*
X306530D01*
X306530Y49354D01*
X306288D01*
Y48871D01*
X305806D01*
X305806Y48630D01*
X305564D01*
X305564Y48388D01*
X305323D01*
X305323Y48147D01*
X304840D01*
Y47906D01*
X304358D01*
Y47664D01*
X303634Y47664D01*
Y47423D01*
X302668D01*
Y47182D01*
X283602Y47182D01*
Y47423D01*
X282636Y47423D01*
Y47664D01*
X281912Y47664D01*
Y47906D01*
X281430D01*
Y48147D01*
X280947D01*
Y48388D01*
X280705D01*
Y48630D01*
X280464D01*
X280464Y48871D01*
X280223D01*
X280223Y49113D01*
X279981D01*
X279981Y49354D01*
X279740D01*
Y49595D01*
X279499D01*
Y49837D01*
X279257D01*
Y50319D01*
X279016D01*
Y50802D01*
X278775D01*
Y51767D01*
X278533D01*
X278533Y71799D01*
X285050D01*
Y54422D01*
X285291D01*
Y53939D01*
X285532D01*
Y53698D01*
X285774D01*
Y53457D01*
X286015D01*
Y53215D01*
X286498Y53215D01*
Y52974D01*
X299531D01*
X299531Y53215D01*
X300013D01*
Y53457D01*
X300496D01*
Y53698D01*
X300737D01*
Y54181D01*
X300979D01*
Y54664D01*
X301220D01*
Y72041D01*
X301461D01*
Y71799D01*
X307254D01*
Y72041D01*
X307495D01*
Y71799D01*
D02*
G37*
G36*
X233160D02*
X233401D01*
Y71317D01*
X233642D01*
Y70834D01*
X233884D01*
Y70351D01*
X234125D01*
X234125Y69868D01*
X234366D01*
Y69627D01*
X234608D01*
Y69145D01*
X234849D01*
Y68662D01*
X235090D01*
Y68179D01*
X235332D01*
Y67696D01*
X235573D01*
Y67214D01*
X235814D01*
Y66972D01*
X236056D01*
Y66490D01*
X236297D01*
X236297Y66007D01*
X236539D01*
Y65524D01*
X236780D01*
Y65041D01*
X237021D01*
Y64559D01*
X237262D01*
Y64076D01*
X237504D01*
Y63835D01*
X237745Y63835D01*
Y63352D01*
X237987Y63352D01*
Y62869D01*
X238228Y62869D01*
Y62387D01*
X238469Y62387D01*
Y61904D01*
X238711D01*
Y61421D01*
X238952D01*
Y61180D01*
X239193D01*
Y60697D01*
X239435D01*
Y60215D01*
X239676D01*
Y59732D01*
X239917D01*
Y59249D01*
X240159D01*
Y58766D01*
X240400D01*
Y58284D01*
X240641D01*
Y57801D01*
X240883D01*
Y57560D01*
X241124Y57560D01*
Y57077D01*
X241366D01*
Y56594D01*
X241607D01*
X241607Y56112D01*
X241848D01*
Y55629D01*
X242090D01*
Y55146D01*
X242331D01*
X242331Y54905D01*
X242572D01*
Y54422D01*
X242814D01*
Y53939D01*
X243055D01*
Y53457D01*
X243296D01*
Y52974D01*
X243538D01*
Y52491D01*
X243779D01*
Y52009D01*
X244020D01*
Y51767D01*
X244262D01*
Y51285D01*
X244503Y51285D01*
Y50802D01*
X244744D01*
Y50319D01*
X244986D01*
Y49837D01*
X245227D01*
X245227Y49354D01*
X245468D01*
X245468Y49113D01*
X245710D01*
Y48630D01*
X245951D01*
Y48147D01*
X246192D01*
X246192Y47664D01*
X246434Y47664D01*
X246434Y47182D01*
X238952D01*
Y47664D01*
X238711Y47664D01*
Y48147D01*
X238469Y48147D01*
Y48630D01*
X238228Y48630D01*
Y49113D01*
X237987Y49112D01*
Y49354D01*
X237745D01*
X237745Y49837D01*
X237504D01*
Y50319D01*
X237262D01*
Y50802D01*
X237021D01*
Y51285D01*
X222299Y51285D01*
Y50802D01*
X222057D01*
Y50561D01*
X221816D01*
Y50078D01*
X221575D01*
Y49595D01*
X221333D01*
Y49113D01*
X221092D01*
Y48630D01*
X220851D01*
Y48388D01*
X220609D01*
Y47906D01*
X220368D01*
Y47423D01*
X220127Y47423D01*
Y47182D01*
X212404D01*
Y47423D01*
X212645Y47423D01*
Y47906D01*
X212886D01*
Y48388D01*
X213128D01*
Y48871D01*
X213369D01*
Y49113D01*
X213610D01*
Y49595D01*
X213852D01*
Y50078D01*
X214093D01*
Y50561D01*
X214334D01*
X214334Y51043D01*
X214576D01*
Y51526D01*
X214817D01*
Y52009D01*
X215058D01*
Y52250D01*
X215300D01*
Y52733D01*
X215541Y52733D01*
Y53215D01*
X215782Y53215D01*
Y53698D01*
X216024D01*
Y54181D01*
X216265D01*
Y54664D01*
X216507D01*
Y54905D01*
X216748D01*
Y55388D01*
X216989D01*
Y55870D01*
X217230D01*
Y56353D01*
X217472D01*
Y56836D01*
X217713D01*
Y57318D01*
X217955D01*
Y57560D01*
X218196Y57560D01*
Y58042D01*
X218437D01*
Y58525D01*
X218679D01*
Y59008D01*
X218920D01*
X218920Y59490D01*
X219161D01*
Y59973D01*
X219403D01*
Y60456D01*
X219644D01*
X219644Y60697D01*
X219885D01*
Y61180D01*
X220127D01*
Y61663D01*
X220368D01*
Y62145D01*
X220609D01*
Y62628D01*
X220851D01*
Y63111D01*
X221092D01*
Y63593D01*
X221333D01*
Y63835D01*
X221575D01*
Y64317D01*
X221816D01*
Y64800D01*
X222057D01*
Y65283D01*
X222299D01*
Y65766D01*
X222540D01*
Y66248D01*
X222782Y66248D01*
Y66490D01*
X223023Y66490D01*
Y66972D01*
X223264Y66972D01*
Y67455D01*
X223506Y67455D01*
Y67938D01*
X223747Y67938D01*
Y68420D01*
X223988D01*
Y68903D01*
X224230D01*
Y69386D01*
X224471D01*
Y69627D01*
X224712D01*
Y70110D01*
X224954D01*
Y70592D01*
X225195D01*
Y71075D01*
X225436D01*
Y71558D01*
X225678D01*
X225678Y71799D01*
X225919D01*
Y72041D01*
X226161D01*
Y71799D01*
X226643D01*
Y72041D01*
X230263D01*
Y71799D01*
X232918D01*
Y72041D01*
X233160D01*
Y71799D01*
D02*
G37*
G36*
X274913Y47182D02*
X250295D01*
Y47423D01*
X249571D01*
Y47664D01*
X249089D01*
Y47906D01*
X248847D01*
Y48147D01*
X248606Y48147D01*
Y48388D01*
X248365Y48388D01*
Y48630D01*
X248123D01*
Y48871D01*
X247882D01*
Y49113D01*
X247640D01*
Y49354D01*
X247399D01*
Y49837D01*
X247158D01*
Y50319D01*
X246917D01*
Y50802D01*
X246675D01*
Y51526D01*
X246434D01*
X246434Y52491D01*
X246192D01*
Y56112D01*
X246434D01*
Y57318D01*
X246675D01*
Y58042D01*
X246917D01*
Y58525D01*
X247158D01*
Y59008D01*
X247399D01*
Y59249D01*
X247640D01*
Y59490D01*
X247882D01*
Y59732D01*
X248123D01*
Y59973D01*
X248365D01*
Y60215D01*
X248847D01*
X248847Y60456D01*
X248606D01*
Y60697D01*
X248123D01*
Y60939D01*
X247882D01*
Y61180D01*
X247640D01*
Y61421D01*
X247399D01*
Y61904D01*
X247158D01*
Y62387D01*
X246917D01*
Y62869D01*
X246675D01*
Y63593D01*
X246434D01*
X246434Y67696D01*
X246675D01*
X246675Y68420D01*
X246917D01*
X246917Y68903D01*
X247158D01*
Y69386D01*
X247399D01*
Y69627D01*
Y69868D01*
X247640D01*
Y70110D01*
X247882D01*
Y70351D01*
X248123D01*
Y70592D01*
X248365D01*
Y70834D01*
X248606D01*
X248606Y71075D01*
X249089D01*
X249089Y71317D01*
X249571D01*
Y71558D01*
X250295Y71558D01*
Y71799D01*
X274913D01*
Y47182D01*
D02*
G37*
G36*
X335250Y71558D02*
X335974D01*
X335975Y71317D01*
X336698D01*
X336698Y71075D01*
X336940D01*
X336940Y70834D01*
X337422D01*
Y70592D01*
X337905D01*
Y70351D01*
X338147D01*
Y70110D01*
X338388D01*
Y69868D01*
X338629D01*
Y69627D01*
X338871D01*
Y69145D01*
X339112D01*
Y68903D01*
X339353D01*
Y68420D01*
X339595Y68420D01*
Y67938D01*
X339836Y67938D01*
Y67214D01*
X340077Y67214D01*
Y66248D01*
X340319Y66248D01*
Y61904D01*
X340077D01*
Y60939D01*
X339836D01*
X339836Y60456D01*
X339595D01*
Y59973D01*
X339353Y59973D01*
Y59732D01*
X339112Y59732D01*
Y59490D01*
X338871Y59490D01*
Y59008D01*
X338629D01*
Y58766D01*
X338388D01*
Y58525D01*
X337905D01*
Y58284D01*
X337664D01*
Y58042D01*
X337181D01*
Y57801D01*
X336457D01*
Y57560D01*
X335733D01*
Y57318D01*
X334285D01*
Y57077D01*
X325596D01*
Y56836D01*
X318356D01*
Y56594D01*
X317873D01*
Y56353D01*
X317632Y56353D01*
Y56112D01*
X317390Y56112D01*
X317390Y55870D01*
X317149D01*
Y53457D01*
X317390Y53457D01*
Y52974D01*
X317632Y52974D01*
Y52733D01*
X317873Y52733D01*
Y52491D01*
X318356D01*
Y52250D01*
X332113Y52250D01*
Y52491D01*
X332595D01*
Y52733D01*
X332837Y52733D01*
Y52974D01*
X333078Y52974D01*
Y53215D01*
X333320Y53215D01*
Y53939D01*
X333561D01*
Y54905D01*
X340319D01*
Y54664D01*
X340560D01*
Y54422D01*
X340319D01*
Y51285D01*
X340077D01*
Y50561D01*
X339836D01*
Y50078D01*
X339595D01*
Y49595D01*
X339353D01*
Y49354D01*
X339112Y49354D01*
Y49113D01*
X338871Y49112D01*
Y48871D01*
X338629D01*
Y48630D01*
X338388D01*
Y48388D01*
X338147D01*
Y48147D01*
X337664D01*
Y47906D01*
X337181D01*
Y47664D01*
X336457Y47664D01*
Y47423D01*
X335733D01*
Y47182D01*
X315460Y47182D01*
Y47423D01*
X314494Y47423D01*
Y47664D01*
X314012D01*
Y47906D01*
X313529D01*
Y48147D01*
X313046D01*
Y48388D01*
X312805Y48388D01*
Y48630D01*
X312563Y48630D01*
Y48871D01*
X312322Y48871D01*
Y49113D01*
X312081D01*
Y49354D01*
X311840D01*
Y49837D01*
X311598D01*
Y50319D01*
X311357D01*
Y50802D01*
X311115D01*
Y51767D01*
X310874D01*
X310874Y53215D01*
X310633D01*
Y55388D01*
X310874D01*
X310874Y56836D01*
X311115D01*
Y57560D01*
X311357D01*
Y58284D01*
X311598D01*
Y58525D01*
X311840D01*
Y59008D01*
X312081D01*
Y59249D01*
X312322D01*
Y59732D01*
X312563Y59732D01*
Y59973D01*
X312805Y59973D01*
Y60215D01*
X313288D01*
X313288Y60456D01*
X313529D01*
Y60697D01*
X314012D01*
Y60939D01*
X314494D01*
Y61180D01*
X314977D01*
Y61421D01*
X315701D01*
Y61663D01*
X316908D01*
Y61904D01*
X321976D01*
Y62145D01*
X327286Y62145D01*
Y62387D01*
X332595Y62387D01*
Y62628D01*
X333320D01*
Y62869D01*
X333561D01*
Y63111D01*
X333802D01*
Y63352D01*
X334044D01*
Y65524D01*
X333802D01*
Y66007D01*
X333561D01*
Y66248D01*
X333320D01*
Y66490D01*
X332595D01*
X332595Y66731D01*
X319563D01*
X319563Y66490D01*
X318597D01*
Y66248D01*
X318356D01*
Y66007D01*
X318115D01*
Y65766D01*
X317873D01*
Y65041D01*
X317632D01*
Y64559D01*
X310874D01*
X310874Y68179D01*
X311115D01*
Y68903D01*
X311357D01*
Y69386D01*
X311598D01*
Y69868D01*
X311840D01*
Y70110D01*
X312081D01*
Y70351D01*
X312322D01*
Y70592D01*
X312805D01*
X312805Y70834D01*
X313046D01*
X313046Y71075D01*
X313529D01*
X313529Y71317D01*
X314253D01*
Y71558D01*
X314977D01*
Y71799D01*
X335250D01*
X335250Y71558D01*
D02*
G37*
G36*
X178856Y71799D02*
X179097D01*
Y65766D01*
Y65524D01*
Y52250D01*
X178856Y52250D01*
Y51043D01*
X178615D01*
X178615Y50319D01*
X178373D01*
Y49837D01*
X178132D01*
Y49595D01*
X177891D01*
Y49354D01*
X177649D01*
X177649Y49113D01*
X177408D01*
X177408Y48871D01*
X177167D01*
X177167Y48630D01*
X176925D01*
X176925Y48388D01*
X176684D01*
X176684Y48147D01*
X176201D01*
Y47906D01*
X175718D01*
Y47664D01*
X174994D01*
Y47423D01*
X174029D01*
Y47182D01*
X154962D01*
Y47423D01*
X153997Y47423D01*
Y47664D01*
X153273D01*
Y47906D01*
X152790D01*
X152790Y48147D01*
X152308D01*
X152308Y48388D01*
X152066D01*
X152066Y48630D01*
X151825D01*
X151825Y48871D01*
X151342D01*
X151342Y49113D01*
X151101D01*
X151101Y49595D01*
X150859D01*
Y49837D01*
X150618D01*
Y50319D01*
X150377D01*
Y50802D01*
X150135D01*
Y51767D01*
X149894Y51767D01*
Y71799D01*
X155928D01*
Y72041D01*
X156169D01*
Y71799D01*
X156411D01*
Y54422D01*
X156652D01*
Y53939D01*
X156893D01*
Y53698D01*
X157135D01*
Y53457D01*
X157376D01*
Y53215D01*
X157859D01*
Y52974D01*
X170891D01*
Y53215D01*
X171374D01*
Y53457D01*
X171857D01*
Y53939D01*
X172098D01*
Y54181D01*
X172339D01*
Y54905D01*
X172581D01*
Y71799D01*
X178615D01*
Y72041D01*
X178856D01*
Y71799D01*
D02*
G37*
G36*
X146998Y49837D02*
X147239D01*
Y49354D01*
X147239Y49113D01*
X147239Y47906D01*
X146756D01*
Y48871D01*
X146515D01*
X146515Y48630D01*
X146274D01*
Y48147D01*
X146032D01*
Y47906D01*
X145791D01*
Y48630D01*
X146032D01*
Y49113D01*
X145791D01*
Y49837D01*
X146274D01*
Y50078D01*
X146998D01*
Y49837D01*
D02*
G37*
G36*
Y50561D02*
X147480D01*
Y50319D01*
X147722D01*
Y50078D01*
X147963D01*
Y49837D01*
X148205D01*
X148205Y49354D01*
X148205Y49113D01*
Y48147D01*
X147963Y48147D01*
Y47664D01*
X147722Y47664D01*
Y47423D01*
X147239D01*
X147239Y47182D01*
X145791D01*
Y47423D01*
X145308D01*
Y47664D01*
X145067D01*
Y48147D01*
X144826D01*
Y49837D01*
X145067D01*
Y50319D01*
X145550D01*
Y50078D01*
X145308D01*
Y49595D01*
X145067D01*
Y48388D01*
X145308D01*
Y47906D01*
X145550D01*
Y47664D01*
X146032Y47664D01*
Y47423D01*
X146998D01*
Y47664D01*
X147480Y47664D01*
Y47906D01*
X147722D01*
X147722Y48388D01*
X147963D01*
Y49595D01*
X147722D01*
Y49837D01*
X147480D01*
Y50078D01*
X147239D01*
Y50319D01*
X146756D01*
Y50561D01*
X146274D01*
Y50319D01*
X145550D01*
Y50561D01*
X146032D01*
Y50802D01*
X146998D01*
Y50561D01*
D02*
G37*
G36*
X210714Y47182D02*
X204198Y47182D01*
X204198Y55870D01*
X189958D01*
X189958Y55629D01*
X189234D01*
X189234Y55388D01*
X188993D01*
X188993Y55146D01*
X188751D01*
Y54664D01*
X188510D01*
Y53939D01*
X188269D01*
Y47182D01*
X181752D01*
Y52974D01*
X181994D01*
Y54664D01*
X182235D01*
Y55629D01*
X182476D01*
Y56353D01*
X182718D01*
Y56836D01*
X182959D01*
Y57318D01*
X183200D01*
Y57560D01*
X183442D01*
X183442Y58042D01*
X183683D01*
Y58284D01*
X183924D01*
Y58525D01*
X184166D01*
Y58766D01*
X184407D01*
Y59008D01*
X184166D01*
Y59249D01*
X183924D01*
Y59490D01*
X183683D01*
Y59732D01*
X183442D01*
X183442Y59973D01*
X183200D01*
Y60215D01*
X182959D01*
Y60697D01*
X182718D01*
Y61180D01*
X182476D01*
Y61904D01*
X182235D01*
Y63352D01*
X181994D01*
Y65524D01*
X182235D01*
Y67214D01*
X182476D01*
Y68179D01*
X182718D01*
Y68662D01*
X182959D01*
Y69145D01*
X183200D01*
Y69627D01*
X183442D01*
Y69868D01*
X183683D01*
Y70351D01*
X183924D01*
Y70592D01*
X184166D01*
Y70834D01*
X184648D01*
Y71075D01*
X184890D01*
X184890Y71317D01*
X185372D01*
X185372Y71558D01*
X186096D01*
X186096Y71799D01*
X210714D01*
Y47182D01*
D02*
G37*
%LPC*%
G36*
X81940Y185038D02*
X81587D01*
Y184862D01*
X81940D01*
Y184686D01*
X82116D01*
Y184509D01*
X82293D01*
Y184333D01*
X82469D01*
Y184156D01*
X82646D01*
Y183980D01*
X82822D01*
Y183627D01*
X82999D01*
Y183098D01*
X83175D01*
Y182393D01*
X83351D01*
Y180805D01*
X83175D01*
Y180629D01*
X82822D01*
Y180452D01*
X82293D01*
Y180276D01*
X81411D01*
Y180100D01*
X79471D01*
Y180276D01*
X78413D01*
Y180452D01*
X77707D01*
Y180629D01*
X76825D01*
Y180276D01*
X77002D01*
Y179923D01*
X77178D01*
Y179571D01*
X77354D01*
Y179394D01*
X77531D01*
Y179041D01*
X77707D01*
Y178865D01*
X77883D01*
Y178512D01*
X78060D01*
Y178336D01*
X78236D01*
Y177983D01*
X78413D01*
Y177807D01*
X78589D01*
Y177630D01*
X78765D01*
Y177278D01*
X78942D01*
Y177101D01*
X79118D01*
Y176749D01*
X79295D01*
Y176572D01*
X79471D01*
Y176396D01*
X79647D01*
Y176043D01*
X79824D01*
Y175690D01*
X80000D01*
Y175337D01*
X80176D01*
Y174985D01*
X80353D01*
Y174456D01*
X80529D01*
Y174103D01*
X80705D01*
Y173574D01*
X80882D01*
Y173044D01*
X81058D01*
Y172339D01*
X81235D01*
Y171633D01*
X81411D01*
Y170928D01*
X81587D01*
Y170046D01*
X81764D01*
Y169164D01*
X81940D01*
Y167929D01*
X82116D01*
Y166695D01*
X82293D01*
Y165107D01*
X82469D01*
Y162991D01*
X82646D01*
Y159816D01*
X82822D01*
Y152232D01*
X82646D01*
Y149057D01*
X82469D01*
Y147469D01*
X82293D01*
Y146235D01*
X82116D01*
Y145353D01*
X81940D01*
Y144647D01*
X81764D01*
Y143942D01*
X81587D01*
Y143589D01*
X81411D01*
Y143060D01*
X81235D01*
Y142531D01*
X81058D01*
Y142178D01*
X80882D01*
Y141649D01*
X80705D01*
Y141296D01*
X80529D01*
Y141120D01*
X80353D01*
Y140767D01*
X80176D01*
Y140590D01*
X80000D01*
Y140414D01*
X79824D01*
Y140061D01*
X79647D01*
Y139885D01*
X79471D01*
Y139709D01*
X79295D01*
Y139532D01*
X79118D01*
Y139356D01*
X78942D01*
Y139179D01*
X78765D01*
Y139003D01*
X78589D01*
Y138827D01*
X78413D01*
Y138650D01*
X78236D01*
Y138474D01*
X77883D01*
Y138298D01*
X77707D01*
Y138121D01*
X77531D01*
Y137945D01*
X77354D01*
Y137768D01*
X77002D01*
Y137592D01*
X76825D01*
Y137416D01*
X76649D01*
Y137239D01*
X76296D01*
Y137063D01*
X76120D01*
Y136887D01*
X75767D01*
Y136710D01*
X75414D01*
Y136534D01*
X75238D01*
Y136357D01*
X74885D01*
Y136181D01*
X74532D01*
Y136005D01*
X74180D01*
Y135828D01*
X73827D01*
Y135652D01*
X73650D01*
Y135476D01*
X73298D01*
Y135299D01*
X72945D01*
Y135123D01*
X72592D01*
Y134946D01*
X72239D01*
Y134770D01*
X71887D01*
Y134594D01*
X71534D01*
Y134417D01*
X71181D01*
Y134241D01*
X70828D01*
Y134064D01*
X70652D01*
Y133888D01*
X70299D01*
Y133712D01*
X69946D01*
Y133535D01*
X69594D01*
Y133359D01*
X69241D01*
Y133182D01*
X68888D01*
Y133006D01*
X68535D01*
Y132830D01*
X68183D01*
Y132653D01*
X68006D01*
Y132477D01*
X67653D01*
Y132301D01*
X67301D01*
Y132124D01*
X66948D01*
Y131948D01*
X66771D01*
Y131771D01*
X66419D01*
Y131595D01*
X66242D01*
Y131419D01*
X65890D01*
Y131242D01*
X65713D01*
Y131066D01*
X65360D01*
Y130890D01*
X65184D01*
Y130713D01*
X65008D01*
Y130537D01*
X64831D01*
Y130360D01*
X64655D01*
Y130184D01*
X64479D01*
Y130008D01*
X64126D01*
Y129831D01*
X63949D01*
Y129479D01*
X63773D01*
Y129302D01*
X63597D01*
Y129126D01*
X63420D01*
Y128949D01*
X63244D01*
Y128773D01*
X63067D01*
Y128597D01*
X62891D01*
Y128244D01*
X62715D01*
Y128068D01*
X62538D01*
Y127891D01*
X62362D01*
Y127538D01*
X62186D01*
Y127362D01*
X62009D01*
Y127186D01*
X61833D01*
Y126833D01*
X61656D01*
Y126656D01*
X61480D01*
Y126480D01*
X61304D01*
Y126127D01*
X61127D01*
Y125951D01*
X60951D01*
Y125775D01*
X60774D01*
Y125422D01*
X60598D01*
Y125245D01*
X60422D01*
Y125069D01*
X60245D01*
Y124716D01*
X60069D01*
Y124540D01*
X59893D01*
Y124363D01*
X59716D01*
Y124187D01*
X59540D01*
Y123834D01*
X59363D01*
Y123658D01*
X59187D01*
Y123482D01*
X59011D01*
Y123305D01*
X58834D01*
Y123129D01*
X58658D01*
Y122952D01*
X58482D01*
Y122776D01*
X58305D01*
Y122600D01*
X58129D01*
Y122423D01*
X57952D01*
Y122247D01*
X57776D01*
Y122071D01*
X57600D01*
Y121718D01*
X57423D01*
Y121541D01*
X57247D01*
Y121365D01*
X57070D01*
Y121189D01*
X56894D01*
Y121012D01*
X56718D01*
Y120836D01*
X56541D01*
Y120660D01*
X56365D01*
Y120483D01*
X56189D01*
Y120307D01*
X56012D01*
Y120130D01*
X55836D01*
Y119954D01*
X55659D01*
Y119778D01*
X55483D01*
Y119601D01*
X55307D01*
Y119425D01*
X55130D01*
Y119249D01*
X54954D01*
Y119072D01*
X54778D01*
Y118896D01*
X54601D01*
Y118719D01*
X54425D01*
Y118543D01*
X54248D01*
Y118367D01*
X54072D01*
Y118190D01*
X53896D01*
Y118014D01*
X53719D01*
Y117837D01*
X53543D01*
Y117661D01*
X53367D01*
Y117485D01*
X53190D01*
Y117308D01*
X53014D01*
Y117132D01*
X52837D01*
Y116955D01*
X52485D01*
Y116779D01*
X52308D01*
Y116603D01*
X52132D01*
Y116426D01*
X51955D01*
Y116250D01*
X51779D01*
Y116074D01*
X51603D01*
Y115897D01*
X51426D01*
Y115721D01*
X51250D01*
Y115545D01*
X51074D01*
Y115368D01*
X50897D01*
Y115192D01*
X50721D01*
Y115015D01*
X50545D01*
Y114839D01*
X50368D01*
Y114663D01*
X50192D01*
Y114486D01*
X50015D01*
Y114310D01*
X49839D01*
Y114134D01*
X49663D01*
Y113957D01*
X49486D01*
Y113781D01*
X49310D01*
Y113604D01*
X49133D01*
Y113428D01*
X48957D01*
Y113251D01*
X48781D01*
Y113075D01*
X48428D01*
Y112899D01*
X48252D01*
Y112722D01*
X48075D01*
Y112546D01*
X47899D01*
Y112370D01*
X47722D01*
Y112193D01*
X47546D01*
Y112017D01*
X47370D01*
Y111840D01*
X47193D01*
Y111664D01*
X47017D01*
Y111488D01*
X46841D01*
Y111311D01*
X46664D01*
Y111135D01*
X46488D01*
Y110959D01*
X46311D01*
Y110782D01*
X46135D01*
Y110606D01*
X45959D01*
Y110429D01*
X45782D01*
Y110253D01*
X45606D01*
Y110077D01*
X45429D01*
Y109900D01*
X45253D01*
Y109724D01*
X45077D01*
Y109548D01*
X44900D01*
Y109371D01*
X44724D01*
Y109195D01*
X44548D01*
Y109018D01*
X44371D01*
Y108842D01*
X44195D01*
Y108666D01*
X44018D01*
Y108489D01*
X43842D01*
Y108313D01*
X43666D01*
Y108137D01*
X43489D01*
Y107960D01*
X43313D01*
Y107784D01*
X43137D01*
Y107607D01*
X42960D01*
Y107431D01*
X42784D01*
Y107255D01*
X42607D01*
Y107078D01*
X42431D01*
Y106902D01*
X42255D01*
Y106726D01*
X42078D01*
Y106549D01*
X41902D01*
Y106373D01*
X41726D01*
Y106196D01*
X41549D01*
Y106020D01*
X41373D01*
Y105844D01*
X41196D01*
Y105667D01*
X41020D01*
Y105491D01*
X40844D01*
Y105314D01*
X40667D01*
Y105138D01*
X40491D01*
Y104962D01*
X40314D01*
Y104785D01*
X40138D01*
Y104609D01*
X39962D01*
Y104432D01*
X39785D01*
Y104256D01*
X39609D01*
Y104080D01*
X39432D01*
Y103727D01*
X39256D01*
Y103551D01*
X39080D01*
Y103374D01*
X38903D01*
Y103198D01*
X38727D01*
Y103021D01*
X38551D01*
Y102845D01*
X38374D01*
Y102669D01*
X38198D01*
Y102492D01*
X38022D01*
Y102140D01*
X37845D01*
Y101963D01*
X37669D01*
Y101787D01*
X37492D01*
Y101434D01*
X37316D01*
Y101258D01*
X37140D01*
Y100905D01*
X36963D01*
Y100729D01*
X36787D01*
Y100376D01*
X36610D01*
Y100023D01*
X36434D01*
Y99670D01*
X36258D01*
Y99318D01*
X36081D01*
Y98965D01*
X35905D01*
Y98612D01*
X35728D01*
Y98259D01*
X35552D01*
Y97907D01*
X35376D01*
Y97377D01*
X35199D01*
Y97024D01*
X35023D01*
Y92086D01*
X35199D01*
Y91204D01*
X35376D01*
Y91028D01*
X35552D01*
Y90851D01*
X35728D01*
Y90675D01*
X35905D01*
Y90499D01*
X36081D01*
Y90322D01*
X36434D01*
Y90146D01*
X36610D01*
Y89969D01*
X36787D01*
Y89793D01*
X36963D01*
Y89617D01*
X37316D01*
Y89440D01*
X37492D01*
Y89264D01*
X37669D01*
Y89087D01*
X37845D01*
Y88911D01*
X38198D01*
Y88735D01*
X38374D01*
Y88558D01*
X38551D01*
Y88382D01*
X38727D01*
Y88205D01*
X38903D01*
Y88029D01*
X39080D01*
Y87853D01*
X39256D01*
Y87676D01*
X39432D01*
Y87500D01*
X39609D01*
Y87324D01*
X39785D01*
Y86971D01*
X39962D01*
Y86795D01*
X40138D01*
Y86618D01*
X40314D01*
Y86265D01*
X40491D01*
Y86089D01*
X40667D01*
Y85736D01*
X40844D01*
Y85207D01*
X41020D01*
Y84678D01*
X41196D01*
Y84149D01*
X41373D01*
Y83796D01*
X41549D01*
Y83620D01*
X41726D01*
Y83443D01*
X41902D01*
Y83090D01*
X42078D01*
Y82914D01*
X42255D01*
Y82738D01*
X42431D01*
Y82561D01*
X42607D01*
Y82385D01*
X42784D01*
Y82209D01*
X42960D01*
Y82032D01*
X43137D01*
Y81856D01*
X43313D01*
Y81679D01*
X43489D01*
Y81503D01*
X43666D01*
Y81327D01*
X43842D01*
Y81150D01*
X44018D01*
Y80974D01*
X44195D01*
Y80798D01*
X44371D01*
Y80621D01*
X44548D01*
Y80445D01*
X44724D01*
Y80268D01*
X44900D01*
Y80092D01*
X45077D01*
Y79916D01*
X45253D01*
Y79739D01*
X45429D01*
Y79563D01*
X45606D01*
Y79387D01*
X45782D01*
Y79210D01*
X45959D01*
Y79034D01*
X46135D01*
Y78857D01*
X46311D01*
Y78681D01*
X46488D01*
Y78505D01*
X46664D01*
Y78328D01*
X46841D01*
Y78152D01*
X47017D01*
Y77976D01*
X47193D01*
Y77799D01*
X47370D01*
Y77623D01*
X47546D01*
Y77446D01*
X47722D01*
Y77270D01*
X47899D01*
Y77094D01*
X48252D01*
Y76917D01*
X48428D01*
Y76741D01*
X48604D01*
Y76564D01*
X48781D01*
Y76388D01*
X48957D01*
Y76212D01*
X49310D01*
Y76035D01*
X49486D01*
Y75859D01*
X49839D01*
Y75683D01*
X50015D01*
Y75506D01*
X50368D01*
Y75330D01*
X50721D01*
Y75153D01*
X51074D01*
Y74977D01*
X51426D01*
Y74801D01*
X51779D01*
Y74624D01*
X52132D01*
Y74448D01*
X52485D01*
Y74271D01*
X52837D01*
Y74095D01*
X53367D01*
Y73919D01*
X53896D01*
Y73742D01*
X54425D01*
Y73566D01*
X55130D01*
Y73390D01*
X56365D01*
Y73213D01*
X60598D01*
Y73390D01*
X61480D01*
Y73566D01*
X62186D01*
Y73742D01*
X62715D01*
Y73919D01*
X63244D01*
Y74095D01*
X63773D01*
Y74271D01*
X64126D01*
Y74448D01*
X64479D01*
Y74624D01*
X64831D01*
Y74801D01*
X65184D01*
Y74977D01*
X65537D01*
Y75153D01*
X65713D01*
Y75330D01*
X66066D01*
Y75506D01*
X66419D01*
Y75683D01*
X66595D01*
Y75859D01*
X66948D01*
Y76035D01*
X67124D01*
Y76212D01*
X67477D01*
Y76388D01*
X67830D01*
Y76564D01*
X68006D01*
Y76741D01*
X68183D01*
Y76917D01*
X68359D01*
Y77094D01*
X68712D01*
Y77270D01*
X68888D01*
Y77446D01*
X69064D01*
Y77623D01*
X69241D01*
Y77799D01*
X69417D01*
Y77976D01*
X69594D01*
Y78152D01*
X69770D01*
Y78328D01*
X69946D01*
Y78505D01*
X70123D01*
Y78681D01*
X70299D01*
Y78857D01*
X70475D01*
Y79034D01*
X70652D01*
Y79210D01*
X70828D01*
Y79387D01*
X71005D01*
Y79563D01*
X71181D01*
Y79739D01*
X71357D01*
Y80092D01*
X71534D01*
Y80268D01*
X71710D01*
Y80621D01*
X71887D01*
Y83267D01*
X71710D01*
Y84325D01*
X71534D01*
Y85207D01*
X71357D01*
Y85913D01*
X71181D01*
Y86618D01*
X71005D01*
Y87324D01*
X70828D01*
Y88029D01*
X70652D01*
Y88911D01*
X70475D01*
Y89617D01*
X70299D01*
Y90499D01*
X70123D01*
Y91557D01*
X69946D01*
Y93497D01*
X69770D01*
Y94026D01*
X69946D01*
Y95790D01*
X70123D01*
Y96495D01*
X70299D01*
Y97201D01*
X70475D01*
Y97730D01*
X70652D01*
Y98259D01*
X70828D01*
Y98788D01*
X71005D01*
Y99141D01*
X71181D01*
Y99670D01*
X71357D01*
Y100023D01*
X71534D01*
Y100552D01*
X71710D01*
Y101081D01*
X71887D01*
Y102845D01*
X71710D01*
Y103198D01*
X71534D01*
Y103374D01*
X71357D01*
Y103551D01*
X71181D01*
Y103727D01*
X71005D01*
Y103903D01*
X70652D01*
Y104080D01*
X69417D01*
Y103903D01*
X69064D01*
Y103727D01*
X68712D01*
Y103551D01*
X68535D01*
Y103374D01*
X68183D01*
Y103198D01*
X68006D01*
Y103021D01*
X67653D01*
Y102845D01*
X67477D01*
Y102669D01*
X67124D01*
Y102492D01*
X66771D01*
Y102316D01*
X66595D01*
Y102140D01*
X66242D01*
Y101963D01*
X65890D01*
Y101787D01*
X65184D01*
Y101610D01*
X63949D01*
Y101434D01*
X62186D01*
Y101610D01*
X61304D01*
Y101787D01*
X60774D01*
Y101963D01*
X60422D01*
Y102140D01*
X60069D01*
Y102316D01*
X59716D01*
Y102492D01*
X59363D01*
Y102669D01*
X59011D01*
Y102845D01*
X58658D01*
Y103021D01*
X58305D01*
Y103198D01*
X58129D01*
Y103374D01*
X57776D01*
Y103551D01*
X57423D01*
Y103727D01*
X57070D01*
Y103903D01*
X56718D01*
Y104080D01*
X56365D01*
Y104256D01*
X56012D01*
Y104432D01*
X55130D01*
Y104609D01*
X51074D01*
Y104432D01*
X50192D01*
Y104609D01*
X50015D01*
Y104962D01*
X50368D01*
Y105138D01*
X51074D01*
Y105314D01*
X53014D01*
Y105491D01*
X54954D01*
Y105314D01*
X55836D01*
Y105138D01*
X56365D01*
Y104962D01*
X56718D01*
Y104785D01*
X57070D01*
Y104609D01*
X57423D01*
Y104432D01*
X57776D01*
Y104256D01*
X58129D01*
Y104080D01*
X58482D01*
Y103903D01*
X58834D01*
Y103727D01*
X59011D01*
Y103551D01*
X59363D01*
Y103374D01*
X59716D01*
Y103198D01*
X59893D01*
Y103374D01*
X60069D01*
Y103551D01*
X60245D01*
Y103727D01*
X60422D01*
Y103903D01*
X60774D01*
Y104080D01*
X60951D01*
Y104256D01*
X61127D01*
Y104432D01*
X61304D01*
Y104609D01*
X61656D01*
Y104785D01*
X61833D01*
Y104962D01*
X62186D01*
Y105138D01*
X62538D01*
Y105314D01*
X63067D01*
Y105491D01*
X63420D01*
Y105667D01*
X63949D01*
Y105844D01*
X64655D01*
Y106020D01*
X65360D01*
Y106196D01*
X65713D01*
Y106373D01*
X66242D01*
Y106549D01*
X66595D01*
Y106726D01*
X66948D01*
Y106902D01*
X67124D01*
Y107078D01*
X67477D01*
Y107255D01*
X67830D01*
Y107431D01*
X68006D01*
Y107607D01*
X68183D01*
Y107784D01*
X68359D01*
Y107960D01*
X68712D01*
Y108137D01*
X68888D01*
Y108313D01*
X69064D01*
Y108489D01*
X69241D01*
Y108666D01*
X69417D01*
Y108842D01*
X69594D01*
Y109018D01*
X69770D01*
Y109195D01*
X69946D01*
Y109371D01*
X70123D01*
Y109548D01*
X70299D01*
Y109724D01*
X70475D01*
Y109900D01*
X70652D01*
Y110077D01*
X70828D01*
Y110253D01*
X71005D01*
Y110429D01*
X71181D01*
Y110606D01*
X71357D01*
Y110959D01*
X71534D01*
Y111135D01*
X71710D01*
Y111311D01*
X71887D01*
Y111664D01*
X72063D01*
Y111840D01*
X72239D01*
Y112193D01*
X72416D01*
Y112546D01*
X72592D01*
Y112722D01*
X72768D01*
Y113075D01*
X72945D01*
Y113251D01*
X73121D01*
Y112722D01*
X72945D01*
Y112193D01*
X72768D01*
Y111840D01*
X72592D01*
Y111488D01*
X72416D01*
Y111135D01*
X72239D01*
Y110782D01*
X72063D01*
Y110606D01*
X71887D01*
Y110253D01*
X71710D01*
Y110077D01*
X71534D01*
Y109900D01*
X71357D01*
Y109724D01*
X71181D01*
Y109548D01*
X71005D01*
Y109371D01*
X70828D01*
Y109018D01*
X70652D01*
Y108842D01*
X70475D01*
Y108666D01*
X70299D01*
Y108489D01*
X70123D01*
Y108313D01*
X69946D01*
Y108137D01*
X69770D01*
Y107960D01*
X69594D01*
Y107784D01*
X69241D01*
Y107607D01*
X69064D01*
Y107431D01*
X68888D01*
Y107255D01*
X68712D01*
Y107078D01*
X68535D01*
Y106902D01*
X68359D01*
Y106726D01*
X68006D01*
Y106549D01*
X67830D01*
Y106373D01*
X67477D01*
Y106196D01*
X67124D01*
Y106020D01*
X66771D01*
Y105844D01*
X66419D01*
Y105667D01*
X65890D01*
Y105491D01*
X65360D01*
Y105314D01*
X64831D01*
Y105138D01*
X64126D01*
Y104962D01*
X63420D01*
Y104785D01*
X62715D01*
Y104609D01*
X62362D01*
Y104432D01*
X61833D01*
Y104256D01*
X61656D01*
Y104080D01*
X61480D01*
Y103903D01*
X61127D01*
Y103727D01*
X60951D01*
Y103551D01*
X60774D01*
Y103374D01*
X60598D01*
Y103198D01*
X60422D01*
Y102845D01*
X60598D01*
Y102669D01*
X60951D01*
Y102492D01*
X62009D01*
Y102316D01*
X64831D01*
Y102492D01*
X65537D01*
Y102669D01*
X65890D01*
Y102845D01*
X66242D01*
Y103021D01*
X66595D01*
Y103198D01*
X66771D01*
Y103374D01*
X67124D01*
Y103551D01*
X67301D01*
Y103727D01*
X67653D01*
Y103903D01*
X67830D01*
Y104080D01*
X68183D01*
Y104256D01*
X68359D01*
Y104432D01*
X68712D01*
Y104609D01*
X69064D01*
Y104785D01*
X69770D01*
Y104962D01*
X70123D01*
Y104785D01*
X70828D01*
Y104609D01*
X71181D01*
Y104432D01*
X71357D01*
Y104256D01*
X71710D01*
Y104080D01*
X71887D01*
Y103903D01*
X72063D01*
Y103727D01*
X72239D01*
Y103551D01*
X72416D01*
Y103374D01*
X72768D01*
Y103198D01*
X72945D01*
Y103374D01*
X73650D01*
Y103551D01*
X74356D01*
Y103727D01*
X75061D01*
Y103903D01*
X76120D01*
Y104080D01*
X78765D01*
Y104256D01*
X79647D01*
Y104080D01*
X81235D01*
Y103903D01*
X82293D01*
Y103727D01*
X82999D01*
Y103551D01*
X83704D01*
Y103374D01*
X84233D01*
Y103198D01*
X84586D01*
Y103021D01*
X85115D01*
Y102845D01*
X85468D01*
Y102669D01*
X85821D01*
Y102492D01*
X86526D01*
Y102669D01*
X86702D01*
Y102845D01*
X86879D01*
Y103021D01*
X87055D01*
Y103198D01*
X87232D01*
Y103374D01*
X87408D01*
Y103551D01*
X87584D01*
Y103727D01*
X87761D01*
Y103903D01*
X87937D01*
Y104080D01*
X88113D01*
Y104256D01*
X88290D01*
Y104432D01*
X88466D01*
Y104609D01*
X88643D01*
Y104785D01*
X88819D01*
Y104962D01*
X88995D01*
Y105138D01*
X89172D01*
Y105314D01*
X89348D01*
Y105491D01*
X89524D01*
Y105667D01*
X89701D01*
Y105844D01*
X89877D01*
Y106020D01*
X90230D01*
Y106196D01*
X90406D01*
Y106373D01*
X90583D01*
Y106549D01*
X90936D01*
Y106726D01*
X91112D01*
Y106902D01*
X91641D01*
Y107078D01*
X91818D01*
Y107255D01*
X92170D01*
Y107431D01*
X92699D01*
Y107607D01*
X93052D01*
Y107784D01*
X93405D01*
Y107960D01*
X93934D01*
Y108137D01*
X94287D01*
Y108313D01*
X94816D01*
Y108489D01*
X95345D01*
Y108666D01*
X96051D01*
Y108842D01*
X96580D01*
Y109018D01*
X96756D01*
Y111311D01*
X96580D01*
Y115721D01*
X96403D01*
Y117661D01*
X96227D01*
Y119072D01*
X96051D01*
Y120130D01*
X95874D01*
Y121189D01*
X95698D01*
Y122071D01*
X95521D01*
Y122952D01*
X95345D01*
Y123834D01*
X95169D01*
Y124540D01*
X94992D01*
Y125422D01*
X94816D01*
Y126127D01*
X94640D01*
Y126833D01*
X94463D01*
Y127538D01*
X94640D01*
Y127891D01*
X94816D01*
Y128068D01*
X94992D01*
Y128420D01*
X95169D01*
Y128597D01*
X95345D01*
Y128949D01*
X95521D01*
Y129126D01*
X95698D01*
Y129479D01*
X95874D01*
Y129655D01*
X96051D01*
Y130008D01*
X96227D01*
Y130184D01*
X96403D01*
Y130537D01*
X96580D01*
Y130890D01*
X96756D01*
Y131066D01*
X96932D01*
Y131419D01*
X97109D01*
Y131595D01*
X97285D01*
Y131948D01*
X97462D01*
Y132301D01*
X97638D01*
Y132477D01*
X97814D01*
Y132830D01*
X97991D01*
Y133182D01*
X98167D01*
Y133535D01*
X98343D01*
Y133712D01*
X98520D01*
Y134064D01*
X98696D01*
Y134417D01*
X98873D01*
Y134770D01*
X99049D01*
Y135123D01*
X99226D01*
Y135299D01*
X99402D01*
Y135652D01*
X99578D01*
Y136005D01*
X99755D01*
Y136357D01*
X99931D01*
Y136710D01*
X100107D01*
Y137063D01*
X100284D01*
Y137416D01*
X100460D01*
Y137768D01*
X100637D01*
Y138121D01*
X100813D01*
Y138474D01*
X100989D01*
Y138827D01*
X101166D01*
Y139179D01*
X101342D01*
Y139532D01*
X101518D01*
Y139885D01*
X101695D01*
Y140238D01*
X101871D01*
Y140590D01*
X102048D01*
Y140943D01*
X102224D01*
Y141296D01*
X102400D01*
Y141649D01*
X102577D01*
Y142001D01*
X102753D01*
Y142354D01*
X102929D01*
Y142883D01*
X103106D01*
Y143236D01*
X103282D01*
Y143589D01*
X103459D01*
Y143942D01*
X103635D01*
Y144471D01*
X103811D01*
Y144824D01*
X103988D01*
Y145176D01*
X104164D01*
Y145529D01*
X104340D01*
Y145882D01*
X104517D01*
Y146235D01*
X104693D01*
Y146764D01*
X104870D01*
Y147117D01*
X105046D01*
Y147646D01*
X105222D01*
Y147999D01*
X105399D01*
Y148351D01*
X105575D01*
Y148880D01*
X105751D01*
Y149233D01*
X105928D01*
Y149586D01*
X106104D01*
Y150115D01*
X106281D01*
Y150468D01*
X106457D01*
Y150997D01*
X106633D01*
Y151350D01*
X106810D01*
Y151879D01*
X106986D01*
Y152232D01*
X107163D01*
Y152761D01*
X107339D01*
Y153113D01*
X107515D01*
Y153643D01*
X107692D01*
Y153995D01*
X107868D01*
Y154524D01*
X108045D01*
Y154877D01*
X108221D01*
Y155406D01*
X108397D01*
Y155936D01*
X108574D01*
Y156465D01*
X108750D01*
Y156994D01*
X108926D01*
Y157523D01*
X109103D01*
Y158052D01*
X109279D01*
Y158581D01*
X109455D01*
Y159110D01*
X109632D01*
Y159463D01*
X109985D01*
Y159640D01*
X110161D01*
Y159816D01*
X110514D01*
Y159992D01*
X110867D01*
Y160169D01*
X111043D01*
Y160345D01*
X111396D01*
Y160522D01*
X111572D01*
Y160698D01*
X111925D01*
Y160874D01*
X112101D01*
Y161051D01*
X112278D01*
Y161227D01*
X112630D01*
Y161403D01*
X112807D01*
Y161580D01*
X112983D01*
Y161756D01*
X113160D01*
Y161933D01*
X113336D01*
Y162109D01*
X113512D01*
Y162285D01*
X113689D01*
Y162462D01*
X113865D01*
Y162638D01*
X114041D01*
Y162991D01*
X114218D01*
Y163167D01*
X114394D01*
Y163344D01*
X114571D01*
Y163696D01*
X114747D01*
Y163873D01*
X114923D01*
Y164226D01*
X115100D01*
Y164402D01*
X115276D01*
Y164755D01*
X115452D01*
Y164931D01*
X115629D01*
Y165107D01*
X115805D01*
Y165460D01*
X115982D01*
Y165637D01*
X116158D01*
Y165813D01*
X116334D01*
Y165989D01*
X116511D01*
Y166166D01*
X116687D01*
Y166342D01*
X116863D01*
Y166695D01*
X117040D01*
Y166871D01*
X117216D01*
Y167048D01*
X117393D01*
Y167400D01*
X117569D01*
Y167577D01*
X117745D01*
Y167929D01*
X117922D01*
Y168282D01*
X118098D01*
Y168811D01*
X118274D01*
Y169517D01*
X118451D01*
Y170399D01*
X118627D01*
Y170751D01*
X118980D01*
Y170575D01*
X119156D01*
Y168282D01*
X119509D01*
Y168106D01*
X121626D01*
Y168282D01*
X122508D01*
Y168459D01*
X122860D01*
Y168635D01*
X123213D01*
Y168811D01*
X123566D01*
Y168988D01*
X123742D01*
Y169164D01*
X123919D01*
Y169517D01*
X123566D01*
Y169693D01*
X123213D01*
Y169870D01*
X122684D01*
Y170046D01*
X122331D01*
Y170222D01*
X121979D01*
Y170399D01*
X121626D01*
Y170575D01*
X121273D01*
Y170751D01*
X120920D01*
Y170928D01*
X120568D01*
Y171104D01*
X120391D01*
Y171281D01*
X120038D01*
Y171457D01*
X119862D01*
Y171633D01*
X119509D01*
Y171810D01*
X119333D01*
Y171986D01*
X119156D01*
Y172163D01*
X118980D01*
Y172339D01*
X118804D01*
Y172515D01*
X118627D01*
Y172692D01*
X118451D01*
Y173750D01*
X118627D01*
Y174632D01*
X118804D01*
Y175161D01*
X118980D01*
Y175514D01*
X119156D01*
Y175867D01*
X119333D01*
Y176219D01*
X119509D01*
Y176396D01*
X119686D01*
Y176572D01*
X119862D01*
Y176749D01*
X120215D01*
Y176925D01*
X120391D01*
Y177101D01*
X120744D01*
Y177278D01*
X123213D01*
Y177101D01*
X123919D01*
Y177278D01*
X123742D01*
Y177454D01*
X123566D01*
Y177630D01*
X123037D01*
Y177807D01*
X119509D01*
Y177630D01*
X117569D01*
Y177454D01*
X116687D01*
Y177630D01*
X115276D01*
Y177807D01*
X114747D01*
Y177983D01*
X114218D01*
Y178160D01*
X113865D01*
Y178336D01*
X113336D01*
Y178512D01*
X113160D01*
Y178689D01*
X112807D01*
Y178865D01*
X112454D01*
Y179041D01*
X112278D01*
Y179218D01*
X111925D01*
Y178865D01*
X112101D01*
Y178512D01*
X112278D01*
Y177983D01*
X112454D01*
Y177278D01*
X112630D01*
Y176396D01*
X112807D01*
Y174808D01*
X112630D01*
Y173574D01*
X112454D01*
Y172868D01*
X112278D01*
Y172339D01*
X112101D01*
Y171810D01*
X111925D01*
Y171457D01*
X111749D01*
Y171104D01*
X111572D01*
Y170751D01*
X111396D01*
Y170575D01*
X111219D01*
Y170399D01*
X111043D01*
Y170222D01*
X110867D01*
Y170046D01*
X110690D01*
Y169870D01*
X110514D01*
Y169693D01*
X110161D01*
Y169517D01*
X109808D01*
Y169340D01*
X109279D01*
Y169164D01*
X108574D01*
Y168988D01*
X107692D01*
Y168811D01*
X106810D01*
Y168635D01*
X105928D01*
Y168459D01*
X105046D01*
Y168282D01*
X103988D01*
Y168106D01*
X103106D01*
Y168282D01*
X102400D01*
Y168459D01*
X101695D01*
Y168635D01*
X101166D01*
Y168811D01*
X100813D01*
Y168988D01*
X100460D01*
Y169164D01*
X100107D01*
Y169340D01*
X99755D01*
Y169517D01*
X99578D01*
Y169693D01*
X99402D01*
Y169870D01*
X99226D01*
Y170046D01*
X98873D01*
Y170222D01*
X98696D01*
Y170399D01*
X98520D01*
Y170575D01*
X98343D01*
Y170751D01*
X98167D01*
Y170928D01*
X97991D01*
Y171104D01*
X97814D01*
Y171281D01*
X97638D01*
Y171457D01*
X97462D01*
Y171633D01*
X97285D01*
Y171810D01*
X97109D01*
Y171986D01*
X96932D01*
Y172339D01*
X96756D01*
Y172515D01*
X96580D01*
Y172692D01*
X96403D01*
Y173044D01*
X96227D01*
Y173221D01*
X96051D01*
Y173574D01*
X95874D01*
Y174103D01*
X95698D01*
Y174632D01*
X95521D01*
Y175514D01*
X95345D01*
Y177101D01*
X95521D01*
Y177983D01*
X95698D01*
Y178512D01*
X95874D01*
Y178865D01*
X96051D01*
Y179041D01*
X96227D01*
Y179394D01*
X96403D01*
Y179571D01*
X96580D01*
Y179747D01*
X96756D01*
Y179923D01*
X96932D01*
Y180100D01*
X97109D01*
Y180276D01*
X97285D01*
Y180452D01*
X97462D01*
Y180629D01*
X97814D01*
Y180805D01*
X98167D01*
Y180982D01*
X98696D01*
Y181158D01*
X99578D01*
Y181334D01*
X100989D01*
Y181511D01*
X106457D01*
Y181334D01*
X107692D01*
Y181158D01*
X108574D01*
Y180982D01*
X109455D01*
Y181158D01*
X109279D01*
Y181334D01*
X108926D01*
Y181511D01*
X108574D01*
Y181687D01*
X108397D01*
Y181863D01*
X108045D01*
Y182040D01*
X107692D01*
Y182216D01*
X107339D01*
Y182393D01*
X107163D01*
Y182569D01*
X106810D01*
Y182745D01*
X106281D01*
Y182922D01*
X105928D01*
Y183098D01*
X105399D01*
Y183274D01*
X104870D01*
Y183451D01*
X104517D01*
Y183627D01*
X103811D01*
Y183804D01*
X102929D01*
Y183980D01*
X101871D01*
Y184156D01*
X100107D01*
Y184333D01*
X91818D01*
Y184156D01*
X90759D01*
Y183980D01*
X89348D01*
Y183804D01*
X87761D01*
Y183627D01*
X85468D01*
Y183451D01*
X84233D01*
Y183627D01*
X83880D01*
Y183804D01*
X83704D01*
Y183980D01*
X83528D01*
Y184156D01*
X83175D01*
Y184333D01*
X82999D01*
Y184509D01*
X82646D01*
Y184686D01*
X82293D01*
Y184862D01*
X81940D01*
Y185038D01*
D02*
G37*
G36*
X79471Y184862D02*
X78413D01*
Y184686D01*
X78060D01*
Y184509D01*
X77883D01*
Y184333D01*
X77707D01*
Y184156D01*
X77531D01*
Y183980D01*
X77354D01*
Y183627D01*
X77178D01*
Y183451D01*
X77002D01*
Y183098D01*
X76825D01*
Y182569D01*
X76649D01*
Y181863D01*
X76825D01*
Y181687D01*
X77178D01*
Y181511D01*
X77883D01*
Y182040D01*
X78060D01*
Y182569D01*
X78236D01*
Y182745D01*
X78413D01*
Y182922D01*
X78765D01*
Y183098D01*
X80353D01*
Y182922D01*
X80705D01*
Y182745D01*
X80882D01*
Y182569D01*
X81058D01*
Y182393D01*
X81235D01*
Y181511D01*
Y181334D01*
X81411D01*
Y180982D01*
X81940D01*
Y181158D01*
X82293D01*
Y181334D01*
X82469D01*
Y182922D01*
X82293D01*
Y183274D01*
X82116D01*
Y183627D01*
X81940D01*
Y183804D01*
X81764D01*
Y183980D01*
X81587D01*
Y184156D01*
X81235D01*
Y184333D01*
X80882D01*
Y184509D01*
X80353D01*
Y184686D01*
X79471D01*
Y184862D01*
D02*
G37*
G36*
X80176Y182393D02*
X78942D01*
Y182216D01*
X78765D01*
Y182040D01*
X78589D01*
Y181687D01*
X78413D01*
Y181158D01*
X78589D01*
Y181334D01*
X78765D01*
Y181511D01*
X78942D01*
Y181687D01*
X79118D01*
Y181863D01*
X79295D01*
Y182040D01*
X79647D01*
Y182216D01*
X80000D01*
Y182040D01*
X80176D01*
Y181863D01*
X80353D01*
Y181687D01*
X80529D01*
Y181511D01*
X80705D01*
Y180982D01*
X81058D01*
Y181158D01*
X80882D01*
Y181687D01*
X80705D01*
Y182040D01*
X80529D01*
Y182216D01*
X80176D01*
Y182393D01*
D02*
G37*
G36*
Y181158D02*
X79471D01*
Y180982D01*
X79647D01*
Y180805D01*
X80176D01*
Y180982D01*
Y181158D01*
D02*
G37*
G36*
X75061Y177278D02*
X74885D01*
Y177101D01*
X74709D01*
Y176749D01*
X74885D01*
Y176925D01*
X75061D01*
Y177278D01*
D02*
G37*
G36*
X74709Y176749D02*
X74532D01*
Y176396D01*
X74709D01*
Y176749D01*
D02*
G37*
G36*
X121097Y172515D02*
X120391D01*
Y172339D01*
X120215D01*
Y172163D01*
X120391D01*
Y171986D01*
X120568D01*
Y171810D01*
X120744D01*
Y171633D01*
X121273D01*
Y171810D01*
X121449D01*
Y171986D01*
X121273D01*
Y172339D01*
X121097D01*
Y172515D01*
D02*
G37*
G36*
X121802Y173750D02*
X120215D01*
Y173574D01*
X120038D01*
Y173397D01*
X119862D01*
Y173221D01*
X119686D01*
Y172868D01*
X119862D01*
Y173044D01*
X120215D01*
Y173221D01*
X120391D01*
Y173397D01*
X121097D01*
Y173221D01*
X121449D01*
Y173044D01*
X121626D01*
Y172868D01*
X121802D01*
Y172692D01*
X121979D01*
Y171633D01*
X121802D01*
Y171281D01*
X122155D01*
Y171457D01*
X122331D01*
Y171810D01*
X122508D01*
Y173044D01*
X122331D01*
Y173397D01*
X122155D01*
Y173574D01*
X121802D01*
Y173750D01*
D02*
G37*
G36*
X123566Y176396D02*
X120920D01*
Y176219D01*
X120568D01*
Y176043D01*
X120391D01*
Y175867D01*
X120215D01*
Y175690D01*
X120038D01*
Y175514D01*
X119862D01*
Y175161D01*
X119686D01*
Y174808D01*
X119509D01*
Y174456D01*
X119333D01*
Y173926D01*
X119509D01*
Y174103D01*
X119686D01*
Y174279D01*
X120038D01*
Y174456D01*
X121802D01*
Y174279D01*
X122331D01*
Y174103D01*
X122508D01*
Y173926D01*
X122684D01*
Y173750D01*
X122860D01*
Y173574D01*
X123037D01*
Y172868D01*
X123213D01*
Y172339D01*
X123037D01*
Y171633D01*
X122860D01*
Y171457D01*
X122684D01*
Y170751D01*
X122860D01*
Y170575D01*
X123390D01*
Y170399D01*
X124095D01*
Y170222D01*
X124801D01*
Y170575D01*
X124977D01*
Y171281D01*
X125153D01*
Y175161D01*
X124977D01*
Y175514D01*
X124801D01*
Y175690D01*
X124624D01*
Y175867D01*
X124448D01*
Y176043D01*
X124095D01*
Y176219D01*
X123566D01*
Y176396D01*
D02*
G37*
G36*
X108045Y180452D02*
X98873D01*
Y180276D01*
X98343D01*
Y180100D01*
X98167D01*
Y179923D01*
X97814D01*
Y179747D01*
X97638D01*
Y179571D01*
X97462D01*
Y179394D01*
X97285D01*
Y179218D01*
X97109D01*
Y179041D01*
X96932D01*
Y178865D01*
X96756D01*
Y178512D01*
X96580D01*
Y178160D01*
X96403D01*
Y177454D01*
X96227D01*
Y174985D01*
X96403D01*
Y174279D01*
X96580D01*
Y173926D01*
X96756D01*
Y173574D01*
X96932D01*
Y173397D01*
X97109D01*
Y173044D01*
X97285D01*
Y172868D01*
X97462D01*
Y172692D01*
X97638D01*
Y172515D01*
X97814D01*
Y172163D01*
X97991D01*
Y171986D01*
X98167D01*
Y171810D01*
X98343D01*
Y171633D01*
X98520D01*
Y171457D01*
X98696D01*
Y171281D01*
X98873D01*
Y171104D01*
X99226D01*
Y170928D01*
X99402D01*
Y170751D01*
X99578D01*
Y170575D01*
X99755D01*
Y170399D01*
X100107D01*
Y170222D01*
X100284D01*
Y170046D01*
X100460D01*
Y169870D01*
X100813D01*
Y169693D01*
X101166D01*
Y169517D01*
X101518D01*
Y169340D01*
X102048D01*
Y169164D01*
X102753D01*
Y168988D01*
X104517D01*
Y169164D01*
X105575D01*
Y169340D01*
X106457D01*
Y169517D01*
X107515D01*
Y169693D01*
X108397D01*
Y169870D01*
X108926D01*
Y170046D01*
X109455D01*
Y170222D01*
X109808D01*
Y170399D01*
X110161D01*
Y170575D01*
X110337D01*
Y170751D01*
X110514D01*
Y170928D01*
X110690D01*
Y171104D01*
X110867D01*
Y171457D01*
X111043D01*
Y171810D01*
X111219D01*
Y172163D01*
X111396D01*
Y172515D01*
X111572D01*
Y173044D01*
X111749D01*
Y174808D01*
X111925D01*
Y176749D01*
X111749D01*
Y177630D01*
X111572D01*
Y177983D01*
Y178160D01*
X111396D01*
Y178512D01*
X111219D01*
Y178689D01*
X111043D01*
Y178865D01*
X110867D01*
Y179041D01*
X110690D01*
Y179218D01*
X110514D01*
Y179394D01*
X110337D01*
Y179571D01*
X110161D01*
Y179747D01*
X109808D01*
Y179923D01*
X109279D01*
Y180100D01*
X108926D01*
Y180276D01*
X108045D01*
Y180452D01*
D02*
G37*
G36*
X97285Y108137D02*
X96580D01*
Y107960D01*
X95698D01*
Y107784D01*
X95169D01*
Y107607D01*
X94640D01*
Y107431D01*
X94110D01*
Y107255D01*
X93758D01*
Y107078D01*
X93405D01*
Y106902D01*
X92876D01*
Y106726D01*
X92523D01*
Y106549D01*
X92170D01*
Y106373D01*
X91818D01*
Y106196D01*
X91465D01*
Y106020D01*
X91288D01*
Y105844D01*
X90936D01*
Y105667D01*
X90759D01*
Y105491D01*
X90583D01*
Y105314D01*
X90406D01*
Y105138D01*
X90054D01*
Y104962D01*
X89877D01*
Y104785D01*
X89701D01*
Y104609D01*
X89524D01*
Y104432D01*
X89348D01*
Y104256D01*
X89172D01*
Y104080D01*
X88995D01*
Y103903D01*
X88819D01*
Y103727D01*
X88643D01*
Y103551D01*
X88466D01*
Y103374D01*
X88290D01*
Y103198D01*
X88113D01*
Y103021D01*
X87937D01*
Y102845D01*
X87761D01*
Y102669D01*
X87584D01*
Y102492D01*
X87408D01*
Y102316D01*
X87232D01*
Y102140D01*
X87055D01*
Y101787D01*
X87232D01*
Y101610D01*
X87584D01*
Y101434D01*
X87761D01*
Y101258D01*
X87937D01*
Y101081D01*
X88113D01*
Y100905D01*
X88290D01*
Y100729D01*
X88466D01*
Y100552D01*
X88643D01*
Y100376D01*
X88819D01*
Y100199D01*
X88995D01*
Y100023D01*
X89172D01*
Y99847D01*
X89348D01*
Y99670D01*
X89701D01*
Y99494D01*
X89877D01*
Y99670D01*
X90054D01*
Y99847D01*
X90230D01*
Y100199D01*
X90406D01*
Y100552D01*
X90583D01*
Y100905D01*
X90759D01*
Y101258D01*
X90936D01*
Y101434D01*
X91112D01*
Y101787D01*
X91288D01*
Y102140D01*
X91465D01*
Y102492D01*
X91641D01*
Y102669D01*
X91818D01*
Y103021D01*
X91994D01*
Y103374D01*
X92170D01*
Y103551D01*
X92347D01*
Y103903D01*
X92523D01*
Y104080D01*
X92699D01*
Y104432D01*
X92876D01*
Y104609D01*
X93052D01*
Y104785D01*
X93229D01*
Y104962D01*
X93405D01*
Y105138D01*
X93581D01*
Y105314D01*
X93758D01*
Y105491D01*
X93934D01*
Y105667D01*
X94110D01*
Y105844D01*
X94287D01*
Y106020D01*
X94463D01*
Y106196D01*
X94816D01*
Y106373D01*
X95169D01*
Y106549D01*
X96580D01*
Y106373D01*
X97109D01*
Y106196D01*
X97462D01*
Y106020D01*
X97638D01*
Y105844D01*
X97991D01*
Y105667D01*
X98167D01*
Y105491D01*
X98343D01*
Y105314D01*
X98520D01*
Y105138D01*
X98696D01*
Y104962D01*
X98873D01*
Y104785D01*
X99049D01*
Y104609D01*
X99226D01*
Y104432D01*
X99402D01*
Y104256D01*
X99578D01*
Y104080D01*
X99755D01*
Y103727D01*
X99931D01*
Y103551D01*
X100107D01*
Y103198D01*
X100284D01*
Y102845D01*
X100460D01*
Y102669D01*
X100637D01*
Y102316D01*
X100813D01*
Y101963D01*
X100989D01*
Y101610D01*
X101166D01*
Y101258D01*
X101342D01*
Y100905D01*
X101518D01*
Y100552D01*
X101695D01*
Y100199D01*
X101871D01*
Y99847D01*
X102048D01*
Y99494D01*
X102224D01*
Y99141D01*
X102400D01*
Y98788D01*
X102577D01*
Y98436D01*
X102753D01*
Y98083D01*
X102929D01*
Y97730D01*
X103106D01*
Y97377D01*
X103282D01*
Y96848D01*
X103459D01*
Y96319D01*
X103635D01*
Y95613D01*
X103811D01*
Y92968D01*
X103635D01*
Y92262D01*
X103459D01*
Y91380D01*
X103635D01*
Y90851D01*
X103811D01*
Y90146D01*
X103988D01*
Y88205D01*
Y88029D01*
Y87676D01*
X103811D01*
Y87324D01*
X103635D01*
Y86971D01*
X103459D01*
Y86618D01*
X103282D01*
Y86442D01*
X103106D01*
Y86089D01*
X102929D01*
Y85913D01*
X102753D01*
Y85736D01*
X102400D01*
Y85560D01*
X102224D01*
Y85383D01*
X101871D01*
Y85207D01*
X101518D01*
Y85031D01*
X101166D01*
Y84854D01*
X100637D01*
Y84678D01*
X100107D01*
Y84501D01*
X99578D01*
Y84325D01*
X99049D01*
Y84149D01*
X98343D01*
Y83972D01*
X95345D01*
Y84149D01*
X94463D01*
Y84325D01*
X93758D01*
Y84501D01*
X93052D01*
Y84678D01*
X92523D01*
Y84854D01*
X91641D01*
Y85031D01*
X90230D01*
Y85207D01*
X88113D01*
Y84678D01*
X88290D01*
Y84501D01*
X88466D01*
Y84325D01*
X88643D01*
Y84149D01*
X88819D01*
Y83972D01*
X89172D01*
Y83796D01*
X89348D01*
Y83620D01*
X89524D01*
Y83443D01*
X89701D01*
Y83267D01*
X90054D01*
Y83090D01*
X90230D01*
Y82914D01*
X90406D01*
Y82738D01*
X90759D01*
Y82561D01*
X90936D01*
Y82385D01*
X91288D01*
Y82209D01*
X91641D01*
Y82032D01*
X91818D01*
Y81856D01*
X92170D01*
Y81679D01*
X92347D01*
Y81503D01*
X92699D01*
Y81327D01*
X93052D01*
Y81150D01*
X93229D01*
Y80974D01*
X93581D01*
Y80798D01*
X93758D01*
Y80621D01*
X93934D01*
Y80445D01*
X94287D01*
Y80268D01*
X94463D01*
Y80092D01*
X94640D01*
Y79916D01*
X94816D01*
Y79739D01*
X94992D01*
Y79210D01*
X95169D01*
Y78505D01*
X94992D01*
Y77976D01*
X94816D01*
Y77446D01*
X94640D01*
Y77094D01*
X94463D01*
Y75859D01*
X94640D01*
Y75506D01*
X95874D01*
Y75683D01*
X97462D01*
Y75859D01*
X98520D01*
Y76035D01*
X99226D01*
Y76212D01*
X99755D01*
Y76388D01*
X100284D01*
Y76564D01*
X100637D01*
Y76741D01*
X100989D01*
Y76917D01*
X101166D01*
Y77094D01*
X101518D01*
Y77270D01*
X101695D01*
Y77446D01*
X101871D01*
Y77623D01*
X102224D01*
Y77799D01*
X102400D01*
Y77976D01*
X102577D01*
Y78152D01*
X102753D01*
Y78328D01*
X102929D01*
Y78505D01*
X103106D01*
Y78681D01*
X103282D01*
Y78857D01*
X103459D01*
Y79034D01*
X103635D01*
Y79210D01*
X103811D01*
Y79387D01*
X103988D01*
Y79563D01*
X104164D01*
Y79916D01*
X104340D01*
Y80092D01*
X104517D01*
Y80445D01*
X104693D01*
Y80798D01*
X104870D01*
Y81150D01*
X105046D01*
Y81327D01*
X105222D01*
Y81679D01*
X105399D01*
Y82032D01*
X105575D01*
Y82561D01*
X105751D01*
Y82914D01*
X105928D01*
Y83443D01*
X106104D01*
Y84149D01*
X106281D01*
Y84854D01*
X106457D01*
Y85736D01*
X106633D01*
Y87324D01*
X106810D01*
Y92968D01*
X106633D01*
Y91028D01*
X106457D01*
Y89793D01*
X106281D01*
Y88911D01*
X106104D01*
Y88205D01*
X105928D01*
Y87676D01*
X105751D01*
Y86971D01*
X105575D01*
Y86618D01*
X105399D01*
Y86089D01*
X105222D01*
Y85736D01*
X105046D01*
Y85383D01*
X104870D01*
Y85031D01*
X104693D01*
Y84854D01*
X104517D01*
Y85207D01*
X104693D01*
Y85913D01*
X104870D01*
Y86442D01*
X105046D01*
Y87147D01*
X105222D01*
Y87853D01*
X105399D01*
Y88735D01*
X105575D01*
Y89969D01*
X105751D01*
Y95790D01*
X105575D01*
Y96495D01*
X105399D01*
Y97024D01*
X105222D01*
Y97377D01*
X105046D01*
Y97554D01*
X104870D01*
Y97907D01*
X104693D01*
Y98083D01*
X104517D01*
Y98436D01*
X104340D01*
Y98612D01*
X104164D01*
Y98788D01*
X103988D01*
Y98965D01*
X103811D01*
Y99141D01*
X103635D01*
Y99494D01*
X103459D01*
Y99670D01*
X103282D01*
Y99847D01*
X103106D01*
Y100023D01*
X102929D01*
Y100199D01*
X102753D01*
Y100552D01*
X102577D01*
Y100729D01*
X102400D01*
Y100905D01*
X102224D01*
Y101081D01*
X102048D01*
Y101258D01*
X101871D01*
Y101610D01*
X101695D01*
Y101787D01*
X101518D01*
Y101963D01*
X101342D01*
Y102316D01*
X101166D01*
Y102669D01*
X101342D01*
Y102492D01*
X101518D01*
Y102316D01*
X101695D01*
Y102140D01*
X101871D01*
Y101963D01*
X102048D01*
Y101787D01*
X102224D01*
Y101610D01*
X102400D01*
Y101434D01*
X102577D01*
Y101258D01*
X102753D01*
Y101081D01*
X102929D01*
Y100905D01*
X103106D01*
Y100729D01*
X103282D01*
Y100552D01*
X103459D01*
Y100376D01*
X103635D01*
Y100199D01*
X103811D01*
Y100023D01*
X103988D01*
Y99670D01*
X104164D01*
Y99494D01*
X104340D01*
Y99318D01*
X104517D01*
Y99141D01*
X104693D01*
Y98965D01*
X104870D01*
Y98788D01*
X105046D01*
Y98612D01*
X105222D01*
Y98259D01*
X105399D01*
Y98083D01*
X105575D01*
Y97907D01*
X105751D01*
Y97554D01*
X105928D01*
Y97377D01*
X106104D01*
Y97730D01*
X105928D01*
Y98259D01*
X105751D01*
Y98788D01*
X105575D01*
Y99141D01*
X105399D01*
Y99494D01*
X105222D01*
Y99847D01*
X105046D01*
Y100376D01*
X104870D01*
Y100729D01*
X104693D01*
Y101081D01*
X104517D01*
Y101258D01*
X104340D01*
Y101610D01*
X104164D01*
Y101963D01*
X103988D01*
Y102140D01*
X103811D01*
Y102492D01*
X103635D01*
Y102669D01*
X103459D01*
Y102845D01*
X103282D01*
Y103198D01*
X103106D01*
Y103374D01*
X102929D01*
Y103551D01*
X102753D01*
Y103727D01*
X102577D01*
Y103903D01*
X102400D01*
Y104080D01*
X102224D01*
Y104432D01*
X102048D01*
Y104609D01*
X101871D01*
Y104785D01*
X101695D01*
Y104962D01*
X101518D01*
Y105138D01*
X101342D01*
Y105314D01*
X101166D01*
Y105491D01*
X100989D01*
Y105667D01*
X100813D01*
Y105844D01*
X100637D01*
Y106020D01*
X100284D01*
Y106196D01*
X100107D01*
Y106373D01*
X99931D01*
Y106549D01*
X99755D01*
Y106726D01*
X99578D01*
Y106902D01*
X99226D01*
Y107078D01*
X99049D01*
Y107255D01*
X98696D01*
Y107431D01*
X98520D01*
Y107607D01*
X98167D01*
Y107784D01*
X97814D01*
Y107960D01*
X97285D01*
Y108137D01*
D02*
G37*
G36*
X96580Y105667D02*
X95169D01*
Y105491D01*
X94816D01*
Y105314D01*
X94640D01*
Y105138D01*
X94463D01*
Y104962D01*
X94287D01*
Y104785D01*
X94110D01*
Y104609D01*
X93934D01*
Y104432D01*
X93758D01*
Y104256D01*
X93581D01*
Y103903D01*
X93405D01*
Y103727D01*
X93229D01*
Y103374D01*
X93052D01*
Y103198D01*
X92876D01*
Y102845D01*
X92699D01*
Y102669D01*
X92523D01*
Y102316D01*
X92347D01*
Y101963D01*
X92170D01*
Y101787D01*
X91994D01*
Y101434D01*
X91818D01*
Y101081D01*
X91641D01*
Y100729D01*
X91465D01*
Y100552D01*
Y100376D01*
X91288D01*
Y100023D01*
X91112D01*
Y99670D01*
X90936D01*
Y99318D01*
X90759D01*
Y98965D01*
X90583D01*
Y98083D01*
X90759D01*
Y97730D01*
X90936D01*
Y97377D01*
X91112D01*
Y97201D01*
X91641D01*
Y97377D01*
X91818D01*
Y97554D01*
X92170D01*
Y97730D01*
X92347D01*
Y97907D01*
X92699D01*
Y98083D01*
X92876D01*
Y98259D01*
X93052D01*
Y98436D01*
X93405D01*
Y98612D01*
X93581D01*
Y98788D01*
X93934D01*
Y98965D01*
X94110D01*
Y99141D01*
X94463D01*
Y99318D01*
X94816D01*
Y99494D01*
X95169D01*
Y99670D01*
X95521D01*
Y99847D01*
X96051D01*
Y100023D01*
X96580D01*
Y100199D01*
X97109D01*
Y100376D01*
X97814D01*
Y100552D01*
X98343D01*
Y100729D01*
X99049D01*
Y100905D01*
X99755D01*
Y101081D01*
X100284D01*
Y101434D01*
X100107D01*
Y101963D01*
X99931D01*
Y102140D01*
X99755D01*
Y102492D01*
X99578D01*
Y102845D01*
X99402D01*
Y103021D01*
X99226D01*
Y103374D01*
X99049D01*
Y103551D01*
X98873D01*
Y103903D01*
X98696D01*
Y104080D01*
X98520D01*
Y104256D01*
X98343D01*
Y104432D01*
X98167D01*
Y104609D01*
X97991D01*
Y104785D01*
X97814D01*
Y104962D01*
X97638D01*
Y105138D01*
X97285D01*
Y105314D01*
X97109D01*
Y105491D01*
X96580D01*
Y105667D01*
D02*
G37*
G36*
X82116Y103198D02*
X77002D01*
Y103021D01*
X74532D01*
Y102845D01*
X73827D01*
Y102669D01*
X73121D01*
Y102492D01*
X72945D01*
Y102316D01*
X72768D01*
Y101434D01*
X72592D01*
Y100729D01*
X72416D01*
Y100199D01*
X72239D01*
Y99670D01*
X72063D01*
Y99318D01*
X71887D01*
Y98788D01*
X71710D01*
Y98436D01*
X72239D01*
Y98612D01*
X72945D01*
Y98788D01*
X73650D01*
Y98965D01*
X74180D01*
Y99141D01*
X74885D01*
Y99318D01*
X75943D01*
Y99494D01*
X82116D01*
Y99318D01*
X82822D01*
Y99141D01*
X83351D01*
Y98965D01*
X83880D01*
Y98788D01*
X84233D01*
Y98612D01*
X84586D01*
Y98436D01*
X84939D01*
Y98259D01*
X85291D01*
Y98083D01*
X85644D01*
Y97907D01*
X85821D01*
Y97730D01*
X86173D01*
Y97554D01*
X86526D01*
Y97377D01*
X86702D01*
Y97201D01*
X86879D01*
Y97024D01*
X87055D01*
Y96848D01*
X87232D01*
Y96672D01*
X86879D01*
Y96848D01*
X86526D01*
Y97024D01*
X86350D01*
Y97201D01*
X85997D01*
Y97377D01*
X85644D01*
Y97554D01*
X85115D01*
Y97730D01*
X84762D01*
Y97907D01*
X84233D01*
Y98083D01*
X83704D01*
Y98259D01*
X82999D01*
Y98436D01*
X82293D01*
Y98612D01*
X81058D01*
Y98788D01*
X76649D01*
Y98612D01*
X74885D01*
Y98436D01*
X73650D01*
Y98259D01*
X72592D01*
Y98083D01*
X72063D01*
Y97907D01*
X71534D01*
Y97730D01*
X71357D01*
Y97554D01*
X71181D01*
Y97201D01*
X71534D01*
Y97024D01*
X74003D01*
Y96848D01*
X77531D01*
Y96672D01*
X82646D01*
Y96495D01*
X84939D01*
Y96319D01*
X85997D01*
Y96143D01*
X86879D01*
Y95966D01*
X87584D01*
Y95790D01*
X88113D01*
Y95613D01*
X88819D01*
Y95437D01*
X89524D01*
Y95261D01*
X90406D01*
Y95084D01*
X90936D01*
Y95261D01*
X91112D01*
Y95437D01*
X90936D01*
Y95790D01*
X90759D01*
Y96143D01*
X90583D01*
Y96495D01*
X90406D01*
Y96848D01*
X90230D01*
Y97201D01*
X90054D01*
Y97554D01*
X89877D01*
Y97730D01*
X89701D01*
Y98083D01*
X89524D01*
Y98259D01*
X89348D01*
Y98612D01*
X89172D01*
Y98788D01*
X88995D01*
Y98965D01*
X88819D01*
Y99141D01*
X88643D01*
Y99494D01*
X88466D01*
Y99670D01*
X88290D01*
Y99847D01*
X87937D01*
Y100023D01*
X87761D01*
Y100199D01*
X87584D01*
Y100376D01*
X87408D01*
Y100552D01*
X87232D01*
Y100729D01*
X86879D01*
Y100905D01*
X86702D01*
Y101081D01*
X86526D01*
Y101258D01*
X86173D01*
Y101434D01*
X85997D01*
Y101610D01*
X85644D01*
Y101787D01*
X85291D01*
Y101963D01*
X84939D01*
Y102140D01*
X84586D01*
Y102316D01*
X84233D01*
Y102492D01*
X83880D01*
Y102669D01*
X83351D01*
Y102845D01*
X82822D01*
Y103021D01*
X82116D01*
Y103198D01*
D02*
G37*
G36*
X100637Y100199D02*
X99755D01*
Y100023D01*
X98873D01*
Y99847D01*
X98167D01*
Y99670D01*
X97638D01*
Y99494D01*
X96932D01*
Y99318D01*
X96403D01*
Y99141D01*
X96051D01*
Y98965D01*
X95698D01*
Y98788D01*
X95169D01*
Y98612D01*
X94816D01*
Y98436D01*
X94640D01*
Y98259D01*
X94287D01*
Y98083D01*
X93934D01*
Y97907D01*
X93758D01*
Y97730D01*
X93405D01*
Y97554D01*
X93229D01*
Y97377D01*
X93052D01*
Y97201D01*
X92699D01*
Y97024D01*
X92523D01*
Y96848D01*
X92347D01*
Y96672D01*
X92170D01*
Y96495D01*
X91818D01*
Y96319D01*
X91641D01*
Y95966D01*
X91818D01*
Y95437D01*
X91994D01*
Y94908D01*
X92170D01*
Y94379D01*
X92347D01*
Y94026D01*
Y93850D01*
X91641D01*
Y94026D01*
X90936D01*
Y94202D01*
X90230D01*
Y94379D01*
X89172D01*
Y94202D01*
X88995D01*
Y94026D01*
X88643D01*
Y93850D01*
X88466D01*
Y93673D01*
X88290D01*
Y93497D01*
X88113D01*
Y93321D01*
X87937D01*
Y93144D01*
X87761D01*
Y92968D01*
X87584D01*
Y92791D01*
X87408D01*
Y92615D01*
X87232D01*
Y92262D01*
X87055D01*
Y92086D01*
X86879D01*
Y91910D01*
X86702D01*
Y91733D01*
X86526D01*
Y91380D01*
X86350D01*
Y91204D01*
X86173D01*
Y90851D01*
X85997D01*
Y90675D01*
X86879D01*
Y90851D01*
X87408D01*
Y91028D01*
X87937D01*
Y91204D01*
X88643D01*
Y91380D01*
X89348D01*
Y91557D01*
X90230D01*
Y91733D01*
X91994D01*
Y91910D01*
X92699D01*
Y92086D01*
X93229D01*
Y92262D01*
X93581D01*
Y92439D01*
X94110D01*
Y92615D01*
X94463D01*
Y92791D01*
X94992D01*
Y92968D01*
X95521D01*
Y93144D01*
X96227D01*
Y93321D01*
X99931D01*
Y93144D01*
X100637D01*
Y92968D01*
X101342D01*
Y92791D01*
X101871D01*
Y92615D01*
X102753D01*
Y92791D01*
X102929D01*
Y93497D01*
X103106D01*
Y95261D01*
X102929D01*
Y95966D01*
X102753D01*
Y96495D01*
X102577D01*
Y96848D01*
X102400D01*
Y97377D01*
X102224D01*
Y97730D01*
X102048D01*
Y98083D01*
X101871D01*
Y98436D01*
X101695D01*
Y98788D01*
X101518D01*
Y99141D01*
X101342D01*
Y99318D01*
X101166D01*
Y99670D01*
X100989D01*
Y99847D01*
X100813D01*
Y100023D01*
X100637D01*
Y100199D01*
D02*
G37*
G36*
X82822Y95966D02*
X80705D01*
Y95613D01*
X81058D01*
Y95437D01*
X81235D01*
Y95261D01*
X81587D01*
Y95084D01*
X81940D01*
Y94908D01*
X82116D01*
Y94732D01*
X82293D01*
Y94555D01*
X82646D01*
Y94379D01*
X82822D01*
Y94202D01*
X82999D01*
Y94026D01*
X83175D01*
Y93850D01*
X83528D01*
Y93673D01*
X83704D01*
Y93497D01*
X83880D01*
Y93321D01*
X84057D01*
Y93144D01*
X84233D01*
Y92968D01*
X84410D01*
Y92791D01*
X84586D01*
Y92615D01*
X84762D01*
Y92439D01*
X84939D01*
Y92262D01*
X85115D01*
Y92086D01*
X85291D01*
Y91910D01*
X85821D01*
Y92086D01*
X85997D01*
Y92262D01*
X86173D01*
Y92439D01*
X86350D01*
Y92791D01*
X86526D01*
Y92968D01*
X86702D01*
Y93144D01*
X86879D01*
Y93321D01*
X87055D01*
Y93497D01*
X87232D01*
Y93673D01*
X87408D01*
Y93850D01*
X87584D01*
Y94026D01*
X87761D01*
Y94202D01*
X87937D01*
Y94379D01*
X88113D01*
Y94908D01*
X87937D01*
Y95084D01*
X87055D01*
Y95261D01*
X86350D01*
Y95437D01*
X85468D01*
Y95613D01*
X84233D01*
Y95790D01*
X82822D01*
Y95966D01*
D02*
G37*
G36*
X99402Y92615D02*
X96580D01*
Y92439D01*
X95874D01*
Y92262D01*
X95345D01*
Y92086D01*
X94816D01*
Y91910D01*
X94463D01*
Y91733D01*
X94110D01*
Y91557D01*
X93758D01*
Y91380D01*
X93581D01*
Y91204D01*
X93229D01*
Y91028D01*
X93052D01*
Y90851D01*
X92699D01*
Y90675D01*
X92523D01*
Y90499D01*
X92347D01*
Y90322D01*
X92170D01*
Y90146D01*
X91994D01*
Y89969D01*
X91818D01*
Y89793D01*
X91641D01*
Y89617D01*
X91465D01*
Y89440D01*
X91288D01*
Y89264D01*
X91112D01*
Y89087D01*
X90936D01*
Y88911D01*
X90759D01*
Y88735D01*
X90583D01*
Y88558D01*
X90406D01*
Y88382D01*
X90230D01*
Y88029D01*
X90054D01*
Y87853D01*
X89877D01*
Y87676D01*
X89701D01*
Y87324D01*
X89524D01*
Y87147D01*
X89348D01*
Y86795D01*
X89172D01*
Y86442D01*
X88995D01*
Y86265D01*
X89172D01*
Y86089D01*
X89701D01*
Y85913D01*
X91288D01*
Y86089D01*
X91818D01*
Y86265D01*
X92347D01*
Y86442D01*
X92876D01*
Y86618D01*
X93581D01*
Y86795D01*
X94287D01*
Y86971D01*
X96051D01*
Y86795D01*
X96580D01*
Y86618D01*
X96932D01*
Y86442D01*
X97285D01*
Y86265D01*
X97462D01*
Y86089D01*
X97638D01*
Y85913D01*
X97991D01*
Y85736D01*
X98167D01*
Y85560D01*
X98343D01*
Y85383D01*
X98520D01*
Y85207D01*
X98696D01*
Y85031D01*
X99049D01*
Y85207D01*
X99755D01*
Y85383D01*
X100460D01*
Y85560D01*
X100813D01*
Y85736D01*
X101342D01*
Y85913D01*
X101518D01*
Y86089D01*
X101871D01*
Y86265D01*
X102048D01*
Y86442D01*
X102224D01*
Y86618D01*
X102400D01*
Y86795D01*
X102577D01*
Y86971D01*
X102753D01*
Y87147D01*
X102929D01*
Y87500D01*
X103106D01*
Y88029D01*
X103282D01*
Y89440D01*
X103106D01*
Y90322D01*
X102929D01*
Y90851D01*
X102753D01*
Y91204D01*
X102577D01*
Y91380D01*
X102400D01*
Y91557D01*
X102224D01*
Y91733D01*
X102048D01*
Y91910D01*
X101518D01*
Y92086D01*
X100989D01*
Y92262D01*
X100460D01*
Y92439D01*
X99402D01*
Y92615D01*
D02*
G37*
G36*
X96227Y86089D02*
X93581D01*
Y85913D01*
X93229D01*
Y85736D01*
X93052D01*
Y85560D01*
X93229D01*
Y85383D01*
X93581D01*
Y85207D01*
X94287D01*
Y85031D01*
X95169D01*
Y84854D01*
X95874D01*
Y84678D01*
X97814D01*
Y84854D01*
X97638D01*
Y85207D01*
X97462D01*
Y85383D01*
X97285D01*
Y85560D01*
X96932D01*
Y85736D01*
X96580D01*
Y85913D01*
X96227D01*
Y86089D01*
D02*
G37*
G36*
X76296Y96143D02*
X71534D01*
Y95966D01*
X70828D01*
Y94732D01*
X70652D01*
Y93144D01*
X70828D01*
Y90675D01*
X71005D01*
Y89617D01*
X71181D01*
Y89087D01*
X71357D01*
Y88735D01*
X72239D01*
Y88911D01*
X73298D01*
Y89087D01*
X74709D01*
Y88911D01*
X75943D01*
Y88735D01*
X76825D01*
Y88558D01*
X77531D01*
Y88382D01*
X77883D01*
Y88205D01*
X78413D01*
Y88029D01*
X78765D01*
Y87853D01*
X79118D01*
Y87676D01*
X79471D01*
Y87500D01*
X80000D01*
Y87324D01*
X80353D01*
Y87147D01*
X80705D01*
Y86971D01*
X81058D01*
Y86795D01*
X81411D01*
Y86618D01*
X81587D01*
Y86442D01*
X81940D01*
Y86265D01*
X82293D01*
Y86089D01*
X82646D01*
Y85913D01*
X82999D01*
Y85736D01*
X83351D01*
Y85560D01*
X83528D01*
Y85383D01*
X83880D01*
Y85207D01*
X84057D01*
Y85031D01*
X84410D01*
Y84854D01*
X84586D01*
Y84678D01*
X84939D01*
Y84501D01*
X85115D01*
Y84325D01*
X85468D01*
Y84149D01*
X85821D01*
Y83972D01*
X85997D01*
Y87147D01*
X85821D01*
Y88558D01*
X85644D01*
Y89264D01*
X85468D01*
Y89793D01*
X85291D01*
Y90322D01*
X85115D01*
Y90675D01*
X84939D01*
Y90851D01*
X84762D01*
Y91204D01*
X84586D01*
Y91380D01*
X84410D01*
Y91557D01*
Y91733D01*
X84233D01*
Y91910D01*
X84057D01*
Y92086D01*
X83880D01*
Y92439D01*
X83704D01*
Y92615D01*
X83528D01*
Y92791D01*
X83351D01*
Y92968D01*
X83175D01*
Y93144D01*
X82999D01*
Y93321D01*
X82822D01*
Y93497D01*
X82469D01*
Y93673D01*
X82293D01*
Y93850D01*
X82116D01*
Y94026D01*
X81764D01*
Y94202D01*
X81587D01*
Y94379D01*
X81235D01*
Y94555D01*
X80882D01*
Y94732D01*
X80529D01*
Y94908D01*
X80176D01*
Y95084D01*
X79824D01*
Y95261D01*
X79295D01*
Y95437D01*
X78765D01*
Y95613D01*
X78060D01*
Y95790D01*
X77354D01*
Y95966D01*
X76296D01*
Y96143D01*
D02*
G37*
G36*
X75767Y88205D02*
X72768D01*
Y88029D01*
X72063D01*
Y87853D01*
X71887D01*
Y86442D01*
X72063D01*
Y86089D01*
Y85913D01*
Y85560D01*
X72239D01*
Y84854D01*
X72416D01*
Y84325D01*
X72592D01*
Y83972D01*
X74003D01*
Y84149D01*
X75238D01*
Y84325D01*
X77883D01*
Y84149D01*
X78765D01*
Y83972D01*
X79295D01*
Y83796D01*
X79824D01*
Y83620D01*
X80000D01*
Y83443D01*
X80353D01*
Y83267D01*
X80529D01*
Y83090D01*
X80705D01*
Y82914D01*
X80882D01*
Y82738D01*
X80529D01*
Y82914D01*
X80000D01*
Y83090D01*
X79295D01*
Y83267D01*
X78589D01*
Y83443D01*
X77002D01*
Y83620D01*
X74356D01*
Y83443D01*
X72768D01*
Y82385D01*
X78236D01*
Y82209D01*
X78942D01*
Y82032D01*
X79471D01*
Y81856D01*
X79647D01*
Y81679D01*
X80000D01*
Y81503D01*
X80176D01*
Y81327D01*
X80353D01*
Y81150D01*
X80705D01*
Y80974D01*
X81058D01*
Y81150D01*
X81235D01*
Y81327D01*
X81411D01*
Y81503D01*
X81587D01*
Y81856D01*
X81764D01*
Y82209D01*
X81940D01*
Y82738D01*
X82116D01*
Y83796D01*
X81940D01*
Y84501D01*
X81764D01*
Y84854D01*
X81587D01*
Y85383D01*
X81411D01*
Y85560D01*
X81235D01*
Y85736D01*
X81058D01*
Y85913D01*
X80882D01*
Y86089D01*
X80705D01*
Y86265D01*
X80529D01*
Y86442D01*
X80176D01*
Y86618D01*
X79824D01*
Y86795D01*
X79471D01*
Y86971D01*
X79118D01*
Y87147D01*
X78589D01*
Y87324D01*
X78236D01*
Y87500D01*
X77707D01*
Y87676D01*
X77178D01*
Y87853D01*
X76649D01*
Y88029D01*
X75767D01*
Y88205D01*
D02*
G37*
G36*
X91288Y90851D02*
X89524D01*
Y90675D01*
X88819D01*
Y90499D01*
X88290D01*
Y90322D01*
X87937D01*
Y90146D01*
X87408D01*
Y89969D01*
X87055D01*
Y89793D01*
X86879D01*
Y89617D01*
X86702D01*
Y89440D01*
X86526D01*
Y88558D01*
X86702D01*
Y86795D01*
X86879D01*
Y83267D01*
X86702D01*
Y82561D01*
X86350D01*
Y82738D01*
X85997D01*
Y82914D01*
X85821D01*
Y83090D01*
X85468D01*
Y83267D01*
X85291D01*
Y83443D01*
X84939D01*
Y83620D01*
X84762D01*
Y83796D01*
X84410D01*
Y83972D01*
X84233D01*
Y84149D01*
X84057D01*
Y84325D01*
X83704D01*
Y84501D01*
X83528D01*
Y84678D01*
X83175D01*
Y84854D01*
X82999D01*
Y85031D01*
X82646D01*
Y84325D01*
X82822D01*
Y83443D01*
X82999D01*
Y82738D01*
X82822D01*
Y82209D01*
X82646D01*
Y81856D01*
X82469D01*
Y81503D01*
X82293D01*
Y81150D01*
X82116D01*
Y80974D01*
X81940D01*
Y80798D01*
X81764D01*
Y80621D01*
X81587D01*
Y80445D01*
X81235D01*
Y80268D01*
X80882D01*
Y80092D01*
X80529D01*
Y79916D01*
X80353D01*
Y80092D01*
X80176D01*
Y80268D01*
X80000D01*
Y80445D01*
X79824D01*
Y80621D01*
X79647D01*
Y80798D01*
X79471D01*
Y80974D01*
X79295D01*
Y81150D01*
X79118D01*
Y81327D01*
X78589D01*
Y81503D01*
X77883D01*
Y81679D01*
X73474D01*
Y81503D01*
X73121D01*
Y81327D01*
X72945D01*
Y81150D01*
X72768D01*
Y80798D01*
X72592D01*
Y80445D01*
X72416D01*
Y80092D01*
X72239D01*
Y79739D01*
X72063D01*
Y79387D01*
X71887D01*
Y79210D01*
X71710D01*
Y79034D01*
X71534D01*
Y78857D01*
X71357D01*
Y78681D01*
X71181D01*
Y78505D01*
X71005D01*
Y78328D01*
X70828D01*
Y78152D01*
X70652D01*
Y77976D01*
X70475D01*
Y77799D01*
X70299D01*
Y77623D01*
X70123D01*
Y77446D01*
X69946D01*
Y77270D01*
X69770D01*
Y77094D01*
X69594D01*
Y76917D01*
X69417D01*
Y76741D01*
X69241D01*
Y76564D01*
X68888D01*
Y76388D01*
X68712D01*
Y76212D01*
X68535D01*
Y76035D01*
X68359D01*
Y75859D01*
X68006D01*
Y75683D01*
X67830D01*
Y75506D01*
X67477D01*
Y75330D01*
X67301D01*
Y75153D01*
X66948D01*
Y74977D01*
X66595D01*
Y74801D01*
X66419D01*
Y74624D01*
X66066D01*
Y74448D01*
X65713D01*
Y74271D01*
X65360D01*
Y74095D01*
X65008D01*
Y73919D01*
X64655D01*
Y73742D01*
X64302D01*
Y73566D01*
X63949D01*
Y73390D01*
X63597D01*
Y73213D01*
X63067D01*
Y73037D01*
X62538D01*
Y72860D01*
X62009D01*
Y72684D01*
X61304D01*
Y72508D01*
X59011D01*
Y72331D01*
X57247D01*
Y72508D01*
X55659D01*
Y72684D01*
X54778D01*
Y72860D01*
X54072D01*
Y73037D01*
X53543D01*
Y73213D01*
X53014D01*
Y73390D01*
X52485D01*
Y73566D01*
X51955D01*
Y73742D01*
X51603D01*
Y73919D01*
X51250D01*
Y74095D01*
X50897D01*
Y74271D01*
X50545D01*
Y74448D01*
X50192D01*
Y74624D01*
X50015D01*
Y74801D01*
X49663D01*
Y74977D01*
X49486D01*
Y75153D01*
X49133D01*
Y75330D01*
X48957D01*
Y75506D01*
X48604D01*
Y75683D01*
X48428D01*
Y75859D01*
X48252D01*
Y76035D01*
X48075D01*
Y76212D01*
X47722D01*
Y76388D01*
X47546D01*
Y76564D01*
X47370D01*
Y76741D01*
X47193D01*
Y76917D01*
X46841D01*
Y77094D01*
X46664D01*
Y77270D01*
X46488D01*
Y77446D01*
X46311D01*
Y77623D01*
X46135D01*
Y77799D01*
X45959D01*
Y77976D01*
X45782D01*
Y78152D01*
X45606D01*
Y78328D01*
X45429D01*
Y78505D01*
X45253D01*
Y78681D01*
X45077D01*
Y78857D01*
X44900D01*
Y79034D01*
X44724D01*
Y79210D01*
X44548D01*
Y79387D01*
X44371D01*
Y79563D01*
X44195D01*
Y79739D01*
X44018D01*
Y79916D01*
X43842D01*
Y80092D01*
X43666D01*
Y80268D01*
X43489D01*
Y80445D01*
X43313D01*
Y80621D01*
X43137D01*
Y80798D01*
X42960D01*
Y80974D01*
X42784D01*
Y81150D01*
X42607D01*
Y81327D01*
X42431D01*
Y81503D01*
X42255D01*
Y81856D01*
X42078D01*
Y82032D01*
X41902D01*
Y82209D01*
X41726D01*
Y82385D01*
X41549D01*
Y82561D01*
X41373D01*
Y82738D01*
X41196D01*
Y83090D01*
X41020D01*
Y83267D01*
X40844D01*
Y83620D01*
X40667D01*
Y83972D01*
X40491D01*
Y84325D01*
X40314D01*
Y84854D01*
X40138D01*
Y85560D01*
X39962D01*
Y85913D01*
X39785D01*
Y86089D01*
X39609D01*
Y86442D01*
X39432D01*
Y86618D01*
X39256D01*
Y86795D01*
X39080D01*
Y86971D01*
X38903D01*
Y87147D01*
X38727D01*
Y87324D01*
X38551D01*
Y87500D01*
X38374D01*
Y87676D01*
X38198D01*
Y87853D01*
X38022D01*
Y88029D01*
X37669D01*
Y88205D01*
X37492D01*
Y88382D01*
X37316D01*
Y88558D01*
X37140D01*
Y88735D01*
X36963D01*
Y88911D01*
X36610D01*
Y89087D01*
X36434D01*
Y89264D01*
X36258D01*
Y89440D01*
X35905D01*
Y89617D01*
X35728D01*
Y89793D01*
X35199D01*
Y89440D01*
X35023D01*
Y89264D01*
X34847D01*
Y88911D01*
X34670D01*
Y88735D01*
X34494D01*
Y88382D01*
X34318D01*
Y88205D01*
X34141D01*
Y87853D01*
X33965D01*
Y87500D01*
X33788D01*
Y87147D01*
X33612D01*
Y86795D01*
X33436D01*
Y86618D01*
X33259D01*
Y86265D01*
X33083D01*
Y85913D01*
X32906D01*
Y85560D01*
X32730D01*
Y85207D01*
X32554D01*
Y84854D01*
X32377D01*
Y84501D01*
X32201D01*
Y83972D01*
X32025D01*
Y83620D01*
X31848D01*
Y83267D01*
X31672D01*
Y82914D01*
X31495D01*
Y82385D01*
X31319D01*
Y82032D01*
X31143D01*
Y81503D01*
X30966D01*
Y81150D01*
X30790D01*
Y80621D01*
X30614D01*
Y79916D01*
X30437D01*
Y79387D01*
X30261D01*
Y78857D01*
X30084D01*
Y78152D01*
X29908D01*
Y77270D01*
X29732D01*
Y75330D01*
X29555D01*
Y71449D01*
X29732D01*
Y70215D01*
X29908D01*
Y69686D01*
X30084D01*
Y69333D01*
X30261D01*
Y68980D01*
X30437D01*
Y68627D01*
X30614D01*
Y68274D01*
X30790D01*
Y67922D01*
X30966D01*
Y67569D01*
X31143D01*
Y67216D01*
X31319D01*
Y66863D01*
X31495D01*
Y66511D01*
X31672D01*
Y66334D01*
X31848D01*
Y65982D01*
X32025D01*
Y65629D01*
X32201D01*
Y65452D01*
X32377D01*
Y65100D01*
X32554D01*
Y64923D01*
X32730D01*
Y64747D01*
X32906D01*
Y64571D01*
X33083D01*
Y64218D01*
X33259D01*
Y64041D01*
X33436D01*
Y63865D01*
X33612D01*
Y63689D01*
X33788D01*
Y63512D01*
X33965D01*
Y63336D01*
X34141D01*
Y63159D01*
X34318D01*
Y62983D01*
X34494D01*
Y62807D01*
X34670D01*
Y62630D01*
X34847D01*
Y62454D01*
X35023D01*
Y62278D01*
X35199D01*
Y62101D01*
X35376D01*
Y61925D01*
X35552D01*
Y61748D01*
X35728D01*
Y61572D01*
X35905D01*
Y61396D01*
X36081D01*
Y61219D01*
X36258D01*
Y61043D01*
X36434D01*
Y60867D01*
X36610D01*
Y60690D01*
X36787D01*
Y60514D01*
X37140D01*
Y60337D01*
X37316D01*
Y60161D01*
X37492D01*
Y59985D01*
X37669D01*
Y59808D01*
X37845D01*
Y59632D01*
X38198D01*
Y59455D01*
X38374D01*
Y59279D01*
X38551D01*
Y59103D01*
X38903D01*
Y58926D01*
X39080D01*
Y58750D01*
X39256D01*
Y58574D01*
X39609D01*
Y58397D01*
X39785D01*
Y58221D01*
X39962D01*
Y58045D01*
X40314D01*
Y57868D01*
X40491D01*
Y57692D01*
X40667D01*
Y57515D01*
X40844D01*
Y56457D01*
X41020D01*
Y52753D01*
X41196D01*
Y50637D01*
X41373D01*
Y49226D01*
X41549D01*
Y48167D01*
Y47991D01*
X41726D01*
Y46933D01*
X41902D01*
Y45698D01*
X42078D01*
Y44640D01*
X42255D01*
Y43581D01*
X42431D01*
Y42523D01*
X42255D01*
Y41994D01*
X42078D01*
Y41465D01*
X41902D01*
Y40936D01*
X41726D01*
Y40406D01*
X41549D01*
Y39877D01*
X41373D01*
Y39348D01*
X41196D01*
Y38819D01*
X41020D01*
Y38290D01*
X40844D01*
Y37761D01*
X40667D01*
Y37055D01*
X40491D01*
Y36350D01*
X40314D01*
Y35291D01*
X40138D01*
Y32998D01*
X39962D01*
Y31764D01*
X40138D01*
Y30882D01*
X40314D01*
Y30705D01*
X40491D01*
Y30353D01*
X40667D01*
Y30176D01*
X40844D01*
Y30000D01*
X41020D01*
Y29824D01*
X41196D01*
Y29647D01*
X41373D01*
Y29471D01*
X41549D01*
Y29295D01*
X42431D01*
Y29471D01*
X43137D01*
Y29647D01*
X43666D01*
Y29824D01*
X44018D01*
Y30000D01*
X44371D01*
Y30176D01*
X44548D01*
Y30353D01*
X44724D01*
Y30705D01*
X44900D01*
Y30882D01*
X45077D01*
Y31058D01*
X45253D01*
Y31411D01*
X45429D01*
Y31587D01*
X45606D01*
Y31764D01*
X45782D01*
Y31940D01*
X45959D01*
Y32293D01*
X46135D01*
Y32469D01*
X46311D01*
Y32646D01*
X46488D01*
Y32822D01*
X46664D01*
Y32998D01*
X46841D01*
Y33175D01*
X47017D01*
Y33351D01*
X47193D01*
Y33528D01*
X47370D01*
Y33704D01*
X47546D01*
Y33880D01*
X47722D01*
Y34057D01*
X47899D01*
Y34233D01*
X48252D01*
Y34409D01*
X48428D01*
Y34586D01*
X48604D01*
Y34762D01*
X48957D01*
Y34939D01*
X49310D01*
Y35115D01*
X49663D01*
Y35291D01*
X50015D01*
Y35468D01*
X50368D01*
Y35644D01*
X50897D01*
Y35821D01*
X51603D01*
Y35997D01*
X52308D01*
Y36173D01*
X53190D01*
Y36350D01*
X54072D01*
Y36526D01*
X55130D01*
Y36702D01*
X56189D01*
Y36879D01*
X57423D01*
Y37055D01*
X58834D01*
Y37232D01*
X64302D01*
Y37408D01*
X67124D01*
Y37584D01*
X67301D01*
Y37937D01*
X67124D01*
Y38114D01*
X66948D01*
Y38290D01*
X66771D01*
Y38466D01*
X66595D01*
Y38643D01*
X66419D01*
Y38819D01*
X66242D01*
Y38995D01*
X66066D01*
Y39172D01*
X65890D01*
Y39348D01*
X65713D01*
Y39525D01*
X65537D01*
Y39701D01*
X65360D01*
Y39877D01*
X65184D01*
Y40054D01*
X65008D01*
Y40230D01*
X64831D01*
Y40583D01*
X64655D01*
Y40759D01*
X64479D01*
Y40936D01*
X64302D01*
Y41288D01*
X64126D01*
Y41465D01*
X63949D01*
Y41817D01*
X63773D01*
Y41994D01*
X63597D01*
Y42347D01*
X63420D01*
Y42876D01*
X63244D01*
Y43229D01*
X63067D01*
Y43758D01*
X62891D01*
Y44287D01*
X62715D01*
Y45169D01*
X62538D01*
Y46227D01*
X62362D01*
Y50989D01*
X62538D01*
Y51871D01*
X62715D01*
Y52400D01*
X62891D01*
Y52753D01*
X63067D01*
Y53106D01*
X63420D01*
Y53282D01*
X63597D01*
Y53459D01*
X64479D01*
Y53635D01*
X65184D01*
Y53459D01*
X66948D01*
Y53282D01*
X68359D01*
Y53106D01*
X69417D01*
Y52930D01*
X70828D01*
Y52753D01*
X72416D01*
Y52577D01*
X73827D01*
Y52753D01*
X75238D01*
Y52930D01*
X75943D01*
Y53106D01*
X76649D01*
Y53282D01*
X77178D01*
Y53459D01*
X77883D01*
Y53635D01*
X78413D01*
Y53811D01*
X78765D01*
Y53988D01*
X79295D01*
Y54164D01*
X79647D01*
Y54341D01*
X80000D01*
Y54517D01*
X80353D01*
Y54693D01*
X80705D01*
Y54870D01*
X81058D01*
Y55046D01*
X81411D01*
Y55222D01*
X81587D01*
Y55399D01*
X81940D01*
Y55575D01*
X82116D01*
Y55752D01*
X82469D01*
Y55928D01*
X82646D01*
Y56104D01*
X82999D01*
Y56281D01*
X83175D01*
Y56457D01*
X83351D01*
Y56633D01*
X83528D01*
Y56810D01*
X83880D01*
Y56986D01*
X84057D01*
Y57163D01*
X84233D01*
Y57339D01*
X84410D01*
Y57515D01*
X84586D01*
Y57692D01*
X84762D01*
Y57868D01*
X84939D01*
Y58045D01*
X85115D01*
Y58221D01*
X85468D01*
Y58397D01*
X85644D01*
Y58750D01*
X85821D01*
Y58926D01*
X85997D01*
Y59103D01*
X86173D01*
Y59279D01*
X86350D01*
Y59455D01*
X86526D01*
Y59632D01*
X86702D01*
Y59808D01*
X86879D01*
Y59985D01*
X87055D01*
Y60161D01*
X87232D01*
Y60514D01*
X87408D01*
Y60690D01*
X87584D01*
Y60867D01*
X87761D01*
Y61219D01*
X87937D01*
Y61396D01*
X88113D01*
Y61748D01*
X88290D01*
Y61925D01*
X88466D01*
Y62278D01*
X88643D01*
Y62630D01*
X88819D01*
Y62807D01*
X88995D01*
Y63159D01*
X89172D01*
Y63512D01*
X89348D01*
Y63865D01*
X89524D01*
Y64218D01*
X89701D01*
Y64571D01*
X89877D01*
Y64923D01*
X90054D01*
Y65276D01*
X90230D01*
Y65629D01*
X90406D01*
Y65982D01*
X90583D01*
Y66334D01*
X90759D01*
Y66687D01*
X90936D01*
Y67216D01*
X91112D01*
Y67569D01*
X91288D01*
Y67922D01*
X91465D01*
Y68451D01*
X91641D01*
Y68980D01*
X91818D01*
Y69509D01*
X91994D01*
Y70038D01*
X92170D01*
Y70920D01*
X92347D01*
Y71273D01*
X92523D01*
Y71449D01*
X93052D01*
Y70567D01*
X92876D01*
Y69686D01*
X92699D01*
Y69156D01*
X92523D01*
Y68627D01*
X92347D01*
Y68098D01*
X92170D01*
Y67569D01*
X91994D01*
Y67216D01*
X91818D01*
Y66687D01*
X91641D01*
Y66334D01*
X91465D01*
Y65805D01*
X91288D01*
Y65452D01*
X91112D01*
Y65100D01*
X90936D01*
Y64747D01*
X90759D01*
Y64394D01*
X90583D01*
Y64041D01*
X90406D01*
Y63689D01*
X90230D01*
Y63336D01*
X90054D01*
Y62983D01*
X89877D01*
Y62807D01*
X89701D01*
Y62454D01*
X89524D01*
Y62101D01*
X89348D01*
Y61925D01*
X89172D01*
Y61572D01*
X88995D01*
Y61219D01*
X88819D01*
Y61043D01*
X88643D01*
Y60867D01*
X88466D01*
Y60514D01*
X88290D01*
Y60337D01*
X88113D01*
Y59985D01*
X87937D01*
Y59808D01*
X87761D01*
Y59632D01*
X87584D01*
Y59279D01*
X87408D01*
Y59103D01*
X87232D01*
Y58926D01*
X87055D01*
Y58750D01*
X86879D01*
Y58574D01*
X86702D01*
Y58397D01*
X86526D01*
Y58221D01*
X86350D01*
Y58045D01*
X86173D01*
Y57868D01*
X85997D01*
Y57692D01*
X85821D01*
Y57515D01*
X85644D01*
Y57339D01*
X85468D01*
Y57163D01*
X85291D01*
Y56986D01*
X85115D01*
Y56810D01*
X84762D01*
Y56633D01*
X84586D01*
Y56457D01*
X84410D01*
Y56281D01*
X84233D01*
Y56104D01*
X83880D01*
Y55928D01*
X83704D01*
Y55752D01*
X83528D01*
Y55575D01*
X83351D01*
Y55399D01*
X82999D01*
Y55222D01*
X82822D01*
Y55046D01*
X82646D01*
Y54870D01*
X82293D01*
Y54693D01*
X81940D01*
Y54517D01*
X81764D01*
Y54341D01*
X81411D01*
Y54164D01*
X81058D01*
Y53988D01*
X80705D01*
Y53811D01*
X80353D01*
Y53635D01*
X80000D01*
Y53459D01*
X79471D01*
Y53282D01*
X79118D01*
Y53106D01*
X78589D01*
Y52930D01*
X78060D01*
Y52753D01*
X77707D01*
Y52577D01*
X77178D01*
Y52400D01*
X76649D01*
Y52224D01*
X76120D01*
Y52048D01*
X75591D01*
Y51871D01*
X70475D01*
Y51518D01*
X70299D01*
Y51342D01*
X70123D01*
Y50989D01*
X69946D01*
Y50813D01*
X69770D01*
Y50637D01*
X69594D01*
Y50460D01*
X69417D01*
Y50107D01*
X69241D01*
Y49931D01*
X69064D01*
Y49755D01*
X68888D01*
Y49578D01*
X68712D01*
Y49402D01*
X68535D01*
Y49049D01*
X68359D01*
Y48873D01*
X68183D01*
Y48696D01*
X68006D01*
Y48520D01*
X67830D01*
Y48344D01*
X67653D01*
Y48167D01*
X67477D01*
Y47991D01*
X67301D01*
Y47638D01*
X67124D01*
Y47462D01*
X66948D01*
Y47285D01*
X66771D01*
Y46933D01*
X66595D01*
Y46756D01*
X66419D01*
Y46403D01*
X66242D01*
Y46051D01*
X66066D01*
Y45345D01*
X65890D01*
Y43581D01*
X65713D01*
Y40406D01*
X65890D01*
Y40230D01*
X66066D01*
Y40054D01*
X66242D01*
Y39877D01*
X66419D01*
Y39701D01*
X66595D01*
Y39525D01*
X66771D01*
Y39348D01*
X66948D01*
Y39172D01*
X67124D01*
Y38995D01*
X67301D01*
Y38819D01*
X67477D01*
Y38643D01*
X67653D01*
Y38466D01*
X67830D01*
Y38290D01*
X68183D01*
Y38114D01*
X68359D01*
Y37937D01*
X68535D01*
Y37761D01*
X68888D01*
Y37584D01*
X69241D01*
Y37408D01*
X69770D01*
Y37232D01*
X70299D01*
Y37055D01*
X70652D01*
Y36879D01*
X71005D01*
Y36702D01*
X71357D01*
Y36526D01*
X71710D01*
Y36350D01*
X71887D01*
Y36173D01*
X72239D01*
Y35997D01*
X72416D01*
Y35821D01*
X72768D01*
Y35644D01*
X72945D01*
Y35468D01*
X73121D01*
Y35291D01*
X73298D01*
Y35115D01*
X73474D01*
Y34939D01*
X73650D01*
Y34762D01*
X73827D01*
Y34586D01*
X74003D01*
Y34409D01*
X74180D01*
Y34057D01*
X74356D01*
Y33880D01*
X74532D01*
Y33704D01*
X74709D01*
Y33351D01*
X74885D01*
Y32998D01*
X75061D01*
Y32822D01*
X75238D01*
Y32469D01*
X75414D01*
Y32293D01*
X75591D01*
Y31940D01*
X75767D01*
Y31764D01*
X75943D01*
Y31587D01*
X76120D01*
Y31411D01*
X76296D01*
Y31235D01*
X76649D01*
Y31058D01*
X77354D01*
Y30882D01*
X80529D01*
Y31058D01*
X81587D01*
Y31235D01*
X81764D01*
Y31411D01*
X81587D01*
Y31940D01*
X81411D01*
Y32293D01*
X81235D01*
Y32998D01*
X81058D01*
Y34233D01*
X80529D01*
Y34057D01*
X80176D01*
Y33880D01*
X79824D01*
Y33704D01*
X79471D01*
Y33528D01*
X79118D01*
Y33351D01*
X78765D01*
Y33175D01*
X78236D01*
Y32998D01*
X77883D01*
Y32822D01*
X77354D01*
Y32646D01*
X76472D01*
Y32998D01*
X76825D01*
Y33175D01*
X77002D01*
Y33351D01*
X77354D01*
Y33528D01*
X77707D01*
Y33704D01*
X78060D01*
Y33880D01*
X78413D01*
Y34057D01*
X78765D01*
Y34233D01*
X79118D01*
Y34409D01*
X79471D01*
Y34586D01*
X79647D01*
Y34762D01*
X80000D01*
Y34939D01*
X80353D01*
Y35115D01*
X80705D01*
Y35291D01*
X80882D01*
Y35468D01*
X81235D01*
Y35644D01*
X81411D01*
Y35821D01*
X81587D01*
Y35997D01*
X81940D01*
Y36173D01*
X82116D01*
Y36350D01*
X82293D01*
Y36526D01*
X82469D01*
Y36702D01*
X82646D01*
Y36879D01*
X82822D01*
Y37055D01*
X83175D01*
Y37232D01*
X83351D01*
Y37408D01*
X83528D01*
Y37584D01*
X83704D01*
Y37761D01*
X83880D01*
Y37937D01*
X84057D01*
Y38114D01*
X84233D01*
Y38290D01*
X84410D01*
Y38466D01*
X84762D01*
Y38643D01*
X84939D01*
Y38819D01*
X85115D01*
Y38995D01*
X85468D01*
Y39172D01*
X85644D01*
Y39348D01*
X85997D01*
Y39525D01*
X86173D01*
Y39701D01*
X86526D01*
Y39877D01*
X86879D01*
Y40054D01*
X87232D01*
Y40230D01*
X87584D01*
Y40406D01*
X88113D01*
Y40583D01*
X88466D01*
Y40759D01*
X88995D01*
Y40936D01*
X89701D01*
Y41112D01*
X90406D01*
Y41288D01*
X91112D01*
Y41465D01*
X91818D01*
Y41641D01*
X92699D01*
Y41817D01*
X93405D01*
Y41994D01*
X94110D01*
Y42170D01*
X94992D01*
Y42347D01*
X95521D01*
Y42523D01*
X95874D01*
Y42876D01*
X95698D01*
Y43052D01*
X95521D01*
Y43229D01*
X95345D01*
Y43405D01*
X94992D01*
Y43581D01*
X94640D01*
Y43758D01*
X94287D01*
Y43934D01*
X93934D01*
Y44110D01*
X93405D01*
Y44287D01*
X92876D01*
Y44463D01*
X92699D01*
Y44992D01*
X92876D01*
Y45345D01*
X93052D01*
Y45698D01*
X93229D01*
Y46227D01*
X93405D01*
Y46580D01*
X93581D01*
Y46933D01*
X93758D01*
Y47285D01*
X93934D01*
Y47638D01*
X94110D01*
Y47991D01*
X94287D01*
Y48344D01*
X94463D01*
Y48696D01*
X94640D01*
Y49226D01*
X94816D01*
Y49578D01*
X94992D01*
Y50107D01*
X95169D01*
Y50460D01*
X95345D01*
Y50989D01*
X95521D01*
Y51518D01*
X95698D01*
Y52048D01*
X95874D01*
Y52577D01*
X96051D01*
Y53106D01*
X96227D01*
Y53988D01*
X96403D01*
Y54693D01*
X96580D01*
Y55752D01*
X96756D01*
Y57163D01*
X96932D01*
Y64041D01*
X96756D01*
Y65982D01*
X96580D01*
Y67216D01*
X96403D01*
Y68098D01*
X96227D01*
Y68804D01*
X96051D01*
Y69686D01*
X95874D01*
Y70215D01*
X95698D01*
Y70920D01*
X95521D01*
Y71449D01*
X95345D01*
Y71979D01*
X95169D01*
Y72508D01*
X94992D01*
Y73037D01*
X94816D01*
Y73566D01*
X94640D01*
Y73919D01*
X94463D01*
Y74271D01*
X94287D01*
Y74801D01*
X94110D01*
Y75153D01*
X93934D01*
Y75506D01*
X93758D01*
Y76212D01*
X93581D01*
Y76917D01*
X93758D01*
Y77446D01*
X93934D01*
Y77976D01*
X94110D01*
Y78328D01*
X94287D01*
Y79210D01*
X94110D01*
Y79387D01*
X93934D01*
Y79563D01*
X93758D01*
Y79739D01*
X93581D01*
Y79916D01*
X93405D01*
Y80092D01*
X93229D01*
Y80268D01*
X92876D01*
Y80445D01*
X92699D01*
Y80621D01*
X92347D01*
Y80798D01*
X91994D01*
Y80974D01*
X91818D01*
Y81150D01*
X91465D01*
Y81327D01*
X91288D01*
Y81503D01*
X90936D01*
Y81679D01*
X90759D01*
Y81856D01*
X90406D01*
Y82032D01*
X90230D01*
Y82209D01*
X89877D01*
Y82385D01*
X89701D01*
Y82561D01*
X89348D01*
Y82738D01*
X89172D01*
Y82914D01*
X88995D01*
Y83090D01*
X88819D01*
Y83267D01*
X88466D01*
Y83443D01*
X88290D01*
Y83620D01*
X88113D01*
Y83796D01*
X87937D01*
Y83972D01*
X87761D01*
Y84325D01*
X87584D01*
Y84501D01*
X87408D01*
Y84678D01*
X87232D01*
Y85207D01*
X87408D01*
Y85560D01*
X87584D01*
Y85736D01*
X87761D01*
Y86089D01*
X87937D01*
Y86442D01*
X88113D01*
Y86618D01*
X88290D01*
Y86971D01*
X88466D01*
Y87147D01*
X88643D01*
Y87324D01*
X88819D01*
Y87676D01*
X88995D01*
Y87853D01*
X89172D01*
Y88205D01*
X89348D01*
Y88382D01*
X89524D01*
Y88735D01*
X89701D01*
Y88911D01*
X89877D01*
Y89087D01*
X90054D01*
Y89440D01*
X90230D01*
Y89617D01*
X90406D01*
Y89793D01*
X90583D01*
Y89969D01*
X90759D01*
Y90322D01*
X90936D01*
Y90499D01*
X91112D01*
Y90675D01*
X91288D01*
Y90851D01*
D02*
G37*
G36*
X36258Y60161D02*
X36081D01*
Y59985D01*
X35905D01*
Y59808D01*
X35728D01*
Y59455D01*
X35552D01*
Y59279D01*
X35376D01*
Y58926D01*
X35199D01*
Y58750D01*
X35023D01*
Y58574D01*
X34847D01*
Y58397D01*
X34670D01*
Y58221D01*
X34494D01*
Y57868D01*
X34318D01*
Y57692D01*
X34141D01*
Y57515D01*
X33965D01*
Y57339D01*
X33788D01*
Y57163D01*
X33612D01*
Y56986D01*
X33436D01*
Y56810D01*
X33259D01*
Y56633D01*
X33083D01*
Y56457D01*
X32906D01*
Y56281D01*
X32730D01*
Y56104D01*
X32554D01*
Y55928D01*
X32377D01*
Y55752D01*
X32201D01*
Y55575D01*
X32025D01*
Y55399D01*
X31848D01*
Y55222D01*
X31672D01*
Y55046D01*
X31495D01*
Y54870D01*
Y54693D01*
X31143D01*
Y54517D01*
X30966D01*
Y54341D01*
X30790D01*
Y54164D01*
X30614D01*
Y53988D01*
X30437D01*
Y53811D01*
X30261D01*
Y53635D01*
X30084D01*
Y53459D01*
X29908D01*
Y53282D01*
X29732D01*
Y53106D01*
X29555D01*
Y52930D01*
X29202D01*
Y52753D01*
X29026D01*
Y52577D01*
X28673D01*
Y52400D01*
X28497D01*
Y52224D01*
X28144D01*
Y52048D01*
X27791D01*
Y51871D01*
X27439D01*
Y51695D01*
X27086D01*
Y51518D01*
X26557D01*
Y51342D01*
X26204D01*
Y51166D01*
X25675D01*
Y50989D01*
X24793D01*
Y50813D01*
X22676D01*
Y50637D01*
X19325D01*
Y50460D01*
X16503D01*
Y50284D01*
X14916D01*
Y50107D01*
X14563D01*
Y49931D01*
X14387D01*
Y49755D01*
X14210D01*
Y48344D01*
X14387D01*
Y47991D01*
X14563D01*
Y47638D01*
X14739D01*
Y47462D01*
X14916D01*
Y47109D01*
X15092D01*
Y46933D01*
X15268D01*
Y46756D01*
X15445D01*
Y46580D01*
X15621D01*
Y46403D01*
X15798D01*
Y46227D01*
X15974D01*
Y46051D01*
X16150D01*
Y45874D01*
X16503D01*
Y45698D01*
X16679D01*
Y45521D01*
X16856D01*
Y45345D01*
X17209D01*
Y45169D01*
X17561D01*
Y44992D01*
X17914D01*
Y44816D01*
X18443D01*
Y44640D01*
X18796D01*
Y44463D01*
X19502D01*
Y44287D01*
X20031D01*
Y44110D01*
X20560D01*
Y43934D01*
X21265D01*
Y43758D01*
X21971D01*
Y43581D01*
X22500D01*
Y43405D01*
X23029D01*
Y43229D01*
X23735D01*
Y43052D01*
X24440D01*
Y42876D01*
X25146D01*
Y42699D01*
X29908D01*
Y42876D01*
X31848D01*
Y43052D01*
X32730D01*
Y43229D01*
X33436D01*
Y43405D01*
X34141D01*
Y43581D01*
X34670D01*
Y43758D01*
X35023D01*
Y43934D01*
X35552D01*
Y44110D01*
X35905D01*
Y44287D01*
X36258D01*
Y44463D01*
X36787D01*
Y44640D01*
X37140D01*
Y44816D01*
X37492D01*
Y44992D01*
X37845D01*
Y45169D01*
X38198D01*
Y45345D01*
X38374D01*
Y45521D01*
X38727D01*
Y45698D01*
X39080D01*
Y45874D01*
X39256D01*
Y46051D01*
X39609D01*
Y46227D01*
X39785D01*
Y46403D01*
X39962D01*
Y46580D01*
X40314D01*
Y46756D01*
X40491D01*
Y46933D01*
X40667D01*
Y47109D01*
X40844D01*
Y47991D01*
X40667D01*
Y49578D01*
X40491D01*
Y51695D01*
X40314D01*
Y55222D01*
X40138D01*
Y56633D01*
X39962D01*
Y57163D01*
X39785D01*
Y57339D01*
X39609D01*
Y57515D01*
X39256D01*
Y57692D01*
X39080D01*
Y57868D01*
X38903D01*
Y58045D01*
X38727D01*
Y58221D01*
X38374D01*
Y58397D01*
X38198D01*
Y58574D01*
X38022D01*
Y58750D01*
X37669D01*
Y58926D01*
X37492D01*
Y59103D01*
X37316D01*
Y59279D01*
X37140D01*
Y59455D01*
X36787D01*
Y59632D01*
X36610D01*
Y59808D01*
X36434D01*
Y59985D01*
X36258D01*
Y60161D01*
D02*
G37*
G36*
X66595Y52753D02*
X64126D01*
Y52577D01*
X63597D01*
Y52400D01*
X63420D01*
Y51518D01*
X63244D01*
Y49226D01*
Y49049D01*
Y45345D01*
X63420D01*
Y44463D01*
X63597D01*
Y43934D01*
X63773D01*
Y43581D01*
X63949D01*
Y43229D01*
X64126D01*
Y42699D01*
X64302D01*
Y42347D01*
X64479D01*
Y41994D01*
X64655D01*
Y41817D01*
X64831D01*
Y43405D01*
X65008D01*
Y45169D01*
X65184D01*
Y46051D01*
X65360D01*
Y46580D01*
X65537D01*
Y46933D01*
X65713D01*
Y47109D01*
X65890D01*
Y47285D01*
X66066D01*
Y47638D01*
X66242D01*
Y47814D01*
X66419D01*
Y47991D01*
X66595D01*
Y48344D01*
X66771D01*
Y48520D01*
X66948D01*
Y48696D01*
X67124D01*
Y48873D01*
X67301D01*
Y49049D01*
X67477D01*
Y49226D01*
X67653D01*
Y49402D01*
X67830D01*
Y49755D01*
X68006D01*
Y49931D01*
X68183D01*
Y50107D01*
X68359D01*
Y50284D01*
X68535D01*
Y50460D01*
X68712D01*
Y50813D01*
X68888D01*
Y50989D01*
X69064D01*
Y51166D01*
X69241D01*
Y51342D01*
X69417D01*
Y51695D01*
X69594D01*
Y52048D01*
X69417D01*
Y52224D01*
X68712D01*
Y52400D01*
X67477D01*
Y52577D01*
X66595D01*
Y52753D01*
D02*
G37*
G36*
X97638Y41994D02*
X96932D01*
Y41817D01*
X96227D01*
Y41641D01*
X95345D01*
Y41465D01*
X94640D01*
Y41288D01*
X93934D01*
Y41112D01*
X93052D01*
Y40936D01*
X92170D01*
Y40759D01*
X91641D01*
Y40583D01*
X91994D01*
Y40406D01*
X92347D01*
Y40230D01*
X92699D01*
Y40054D01*
X93229D01*
Y39877D01*
X93581D01*
Y39701D01*
X93934D01*
Y39525D01*
X94463D01*
Y39348D01*
X94816D01*
Y39172D01*
X95169D01*
Y38995D01*
X95345D01*
Y38819D01*
X95698D01*
Y38643D01*
X96051D01*
Y38466D01*
X96227D01*
Y38290D01*
X96403D01*
Y38114D01*
X96756D01*
Y37937D01*
X96932D01*
Y37761D01*
X97109D01*
Y37584D01*
X97285D01*
Y37408D01*
X97638D01*
Y37232D01*
X97814D01*
Y37055D01*
X97991D01*
Y36879D01*
X98167D01*
Y36702D01*
X98343D01*
Y36526D01*
X98520D01*
Y36350D01*
X98696D01*
Y36173D01*
X98873D01*
Y35997D01*
X99049D01*
Y35821D01*
X99226D01*
Y35468D01*
X99402D01*
Y35291D01*
X99578D01*
Y35115D01*
X99755D01*
Y34939D01*
X99931D01*
Y34762D01*
X100107D01*
Y34409D01*
X100284D01*
Y34233D01*
X100460D01*
Y34057D01*
X100637D01*
Y33704D01*
X100813D01*
Y33528D01*
X100989D01*
Y33175D01*
X101166D01*
Y32998D01*
X101342D01*
Y32646D01*
X101518D01*
Y32469D01*
X101695D01*
Y32117D01*
X101871D01*
Y31764D01*
X102048D01*
Y31411D01*
X102224D01*
Y31235D01*
X102400D01*
Y30882D01*
X102577D01*
Y30529D01*
X102753D01*
Y30176D01*
X102929D01*
Y29647D01*
X103106D01*
Y29295D01*
X103282D01*
Y28942D01*
X103459D01*
Y28589D01*
X103811D01*
Y28942D01*
X103988D01*
Y29118D01*
X104164D01*
Y29295D01*
X104340D01*
Y29471D01*
X104517D01*
Y29824D01*
X104693D01*
Y30176D01*
X104870D01*
Y30529D01*
X105046D01*
Y30882D01*
X105222D01*
Y31411D01*
X105399D01*
Y31940D01*
X105575D01*
Y32646D01*
X105751D01*
Y33528D01*
Y33704D01*
Y35468D01*
X105575D01*
Y36350D01*
X105399D01*
Y36879D01*
X105222D01*
Y37408D01*
X105046D01*
Y37761D01*
X104870D01*
Y38114D01*
X104693D01*
Y38290D01*
X104517D01*
Y38643D01*
X104340D01*
Y38819D01*
X104164D01*
Y38995D01*
X103988D01*
Y39172D01*
X103811D01*
Y39348D01*
X103635D01*
Y39525D01*
X103459D01*
Y39701D01*
X103282D01*
Y39877D01*
X103106D01*
Y40054D01*
X102753D01*
Y40230D01*
X102577D01*
Y40406D01*
X102224D01*
Y40583D01*
X102048D01*
Y40759D01*
X101518D01*
Y40936D01*
X101166D01*
Y41112D01*
X100460D01*
Y41288D01*
X99931D01*
Y41465D01*
X99226D01*
Y41641D01*
X98520D01*
Y41817D01*
X97638D01*
Y41994D01*
D02*
G37*
G36*
X90230Y40054D02*
X89172D01*
Y39877D01*
X88466D01*
Y39701D01*
X87937D01*
Y39525D01*
X87584D01*
Y39348D01*
X87232D01*
Y39172D01*
X86879D01*
Y38995D01*
X86526D01*
Y38819D01*
X86350D01*
Y38643D01*
X85997D01*
Y38466D01*
X85821D01*
Y38290D01*
X85468D01*
Y38114D01*
X85291D01*
Y37937D01*
X85115D01*
Y37761D01*
X84939D01*
Y37584D01*
X84586D01*
Y37408D01*
X84410D01*
Y37232D01*
X84233D01*
Y37055D01*
X84057D01*
Y36879D01*
X83880D01*
Y36702D01*
X83704D01*
Y36526D01*
X83528D01*
Y36350D01*
X83351D01*
Y36173D01*
X83175D01*
Y35997D01*
X82999D01*
Y35821D01*
X82822D01*
Y35644D01*
X82646D01*
Y35291D01*
X82469D01*
Y35115D01*
X82293D01*
Y34939D01*
X82116D01*
Y34586D01*
X81940D01*
Y34233D01*
X81764D01*
Y32998D01*
X81940D01*
Y32469D01*
X82116D01*
Y32293D01*
X82293D01*
Y31940D01*
X82469D01*
Y31764D01*
X82822D01*
Y31587D01*
X88819D01*
Y31411D01*
X90583D01*
Y31235D01*
X91818D01*
Y31058D01*
X93052D01*
Y30882D01*
X93758D01*
Y30705D01*
X94816D01*
Y30529D01*
X95521D01*
Y30353D01*
X96227D01*
Y30176D01*
X96932D01*
Y30000D01*
X97638D01*
Y29824D01*
X98343D01*
Y29647D01*
X98873D01*
Y29471D01*
X99578D01*
Y29295D01*
X100107D01*
Y29118D01*
X100813D01*
Y28942D01*
X101342D01*
Y28765D01*
X101871D01*
Y28589D01*
X102577D01*
Y28942D01*
X102400D01*
Y29295D01*
X102224D01*
Y29647D01*
X102048D01*
Y30176D01*
X101871D01*
Y30529D01*
X101695D01*
Y30882D01*
X101518D01*
Y31235D01*
X101342D01*
Y31587D01*
X101166D01*
Y31764D01*
X100989D01*
Y32117D01*
X100813D01*
Y32469D01*
X100637D01*
Y32646D01*
X100460D01*
Y32998D01*
X100284D01*
Y33175D01*
X100107D01*
Y33528D01*
X99931D01*
Y33704D01*
X99755D01*
Y33880D01*
X99578D01*
Y34233D01*
X99402D01*
Y34409D01*
X99226D01*
Y34586D01*
X99049D01*
Y34762D01*
X98873D01*
Y35115D01*
X98696D01*
Y35291D01*
X98520D01*
Y35468D01*
X98343D01*
Y35644D01*
X98167D01*
Y35821D01*
X97991D01*
Y35997D01*
X97814D01*
Y36173D01*
X97638D01*
Y36350D01*
X97462D01*
Y36526D01*
X97285D01*
Y36702D01*
X96932D01*
Y36879D01*
X96756D01*
Y37055D01*
X96580D01*
Y37232D01*
X96403D01*
Y37408D01*
X96051D01*
Y37584D01*
X95874D01*
Y37761D01*
X95521D01*
Y37937D01*
X95345D01*
Y38114D01*
X94992D01*
Y38290D01*
X94640D01*
Y38466D01*
X94463D01*
Y38643D01*
X94110D01*
Y38819D01*
X93758D01*
Y38995D01*
X93229D01*
Y39172D01*
X92876D01*
Y39348D01*
X92347D01*
Y39525D01*
X91818D01*
Y39701D01*
X91112D01*
Y39877D01*
X90230D01*
Y40054D01*
D02*
G37*
G36*
X48075Y33175D02*
X47899D01*
Y32998D01*
X47722D01*
Y32822D01*
X47546D01*
Y32646D01*
X47370D01*
Y32469D01*
X47193D01*
Y32293D01*
X47017D01*
Y32117D01*
X46841D01*
Y31764D01*
X46664D01*
Y31587D01*
X46488D01*
Y31411D01*
X46311D01*
Y31235D01*
X46135D01*
Y30882D01*
X45959D01*
Y30705D01*
X45782D01*
Y30529D01*
X45606D01*
Y30176D01*
X45429D01*
Y30000D01*
X45253D01*
Y29824D01*
X45077D01*
Y29647D01*
X44900D01*
Y29471D01*
X44724D01*
Y29295D01*
X44371D01*
Y29118D01*
X44018D01*
Y28942D01*
X43666D01*
Y28765D01*
X43489D01*
Y28589D01*
X44018D01*
Y28413D01*
X45253D01*
Y28236D01*
X47722D01*
Y28060D01*
X49310D01*
Y28413D01*
X49133D01*
Y28589D01*
X48957D01*
Y28765D01*
X48781D01*
Y28942D01*
X48604D01*
Y29295D01*
X48428D01*
Y29471D01*
X48252D01*
Y29824D01*
X48075D01*
Y30353D01*
X47899D01*
Y31764D01*
X48075D01*
Y33175D01*
D02*
G37*
G36*
X55130Y35644D02*
X53543D01*
Y35468D01*
X52661D01*
Y35291D01*
X51779D01*
Y35115D01*
X51074D01*
Y34939D01*
X50545D01*
Y34762D01*
X50192D01*
Y34586D01*
X49839D01*
Y34409D01*
X49663D01*
Y34233D01*
X49486D01*
Y34057D01*
X49310D01*
Y33704D01*
X49133D01*
Y33175D01*
X48957D01*
Y32117D01*
X48781D01*
Y30529D01*
X48604D01*
Y30176D01*
X48781D01*
Y30000D01*
X48957D01*
Y29824D01*
X49133D01*
Y29647D01*
X49310D01*
Y29295D01*
X49486D01*
Y29118D01*
X49663D01*
Y28942D01*
X49839D01*
Y28765D01*
X50015D01*
Y28589D01*
X50368D01*
Y28413D01*
X50545D01*
Y28236D01*
X50721D01*
Y28060D01*
X51074D01*
Y27884D01*
X51426D01*
Y27707D01*
X51955D01*
Y27531D01*
X52661D01*
Y27354D01*
X53367D01*
Y27178D01*
X54248D01*
Y27002D01*
X55307D01*
Y26825D01*
X56365D01*
Y26649D01*
X57600D01*
Y26472D01*
X58834D01*
Y26296D01*
X60069D01*
Y26120D01*
X61656D01*
Y25943D01*
X63773D01*
Y26472D01*
X63597D01*
Y26825D01*
X63420D01*
Y27178D01*
X63244D01*
Y27531D01*
X63067D01*
Y27707D01*
Y27884D01*
X62891D01*
Y28236D01*
X62715D01*
Y28413D01*
X62538D01*
Y28765D01*
X62362D01*
Y29118D01*
X62186D01*
Y29295D01*
X62009D01*
Y29647D01*
X61833D01*
Y29824D01*
X61656D01*
Y30176D01*
X61480D01*
Y30353D01*
X61304D01*
Y30529D01*
X61127D01*
Y30882D01*
X60951D01*
Y31058D01*
X60774D01*
Y31235D01*
X60598D01*
Y31411D01*
X60422D01*
Y31764D01*
X60245D01*
Y31940D01*
X60069D01*
Y32117D01*
X59893D01*
Y32293D01*
X59716D01*
Y32469D01*
X59540D01*
Y32646D01*
X59363D01*
Y32822D01*
X59187D01*
Y32998D01*
X59011D01*
Y33175D01*
X58834D01*
Y33351D01*
X58658D01*
Y33528D01*
X58305D01*
Y33704D01*
X58129D01*
Y33880D01*
X57952D01*
Y34057D01*
X57600D01*
Y34233D01*
X57423D01*
Y34409D01*
X57247D01*
Y34586D01*
X56894D01*
Y34762D01*
X56541D01*
Y34939D01*
X56189D01*
Y35115D01*
X55836D01*
Y35291D01*
X55659D01*
Y35468D01*
X55130D01*
Y35644D01*
D02*
G37*
G36*
X64302Y36702D02*
X63067D01*
Y36526D01*
X59893D01*
Y36350D01*
X58129D01*
Y36173D01*
X57070D01*
Y35997D01*
X56718D01*
Y35821D01*
X56894D01*
Y35644D01*
X57070D01*
Y35468D01*
X57247D01*
Y35291D01*
X57600D01*
Y35115D01*
X57776D01*
Y34939D01*
X58129D01*
Y34762D01*
X58305D01*
Y34586D01*
X58482D01*
Y34409D01*
X58658D01*
Y34233D01*
X59011D01*
Y34057D01*
X59187D01*
Y33880D01*
X59363D01*
Y33704D01*
X59540D01*
Y33528D01*
X59716D01*
Y33351D01*
X59893D01*
Y33175D01*
X60069D01*
Y32998D01*
X60245D01*
Y32822D01*
X60422D01*
Y32646D01*
X60598D01*
Y32469D01*
X60774D01*
Y32293D01*
X60951D01*
Y32117D01*
X61127D01*
Y31940D01*
X61304D01*
Y31764D01*
X61480D01*
Y31587D01*
X61656D01*
Y31235D01*
X61833D01*
Y31058D01*
X62009D01*
Y30882D01*
X62186D01*
Y30529D01*
X62362D01*
Y30353D01*
X62538D01*
Y30000D01*
X62715D01*
Y29824D01*
X62891D01*
Y29471D01*
X63067D01*
Y29118D01*
X63244D01*
Y28765D01*
X63420D01*
Y28589D01*
X63597D01*
Y28236D01*
X63773D01*
Y27884D01*
X63949D01*
Y27531D01*
X64126D01*
Y27178D01*
X64302D01*
Y26825D01*
X64479D01*
Y26472D01*
X64655D01*
Y26120D01*
X64831D01*
Y25767D01*
X65008D01*
Y25591D01*
X65360D01*
Y25414D01*
X66242D01*
Y25238D01*
X66948D01*
Y25061D01*
X67653D01*
Y24885D01*
X68712D01*
Y24709D01*
X69417D01*
Y24532D01*
X70299D01*
Y24356D01*
X71534D01*
Y24709D01*
X71357D01*
Y25591D01*
X71181D01*
Y26472D01*
X71005D01*
Y27178D01*
X70828D01*
Y27884D01*
X70652D01*
Y28413D01*
X70475D01*
Y28942D01*
X70299D01*
Y29471D01*
X70123D01*
Y30000D01*
X69946D01*
Y30353D01*
X69770D01*
Y30705D01*
X69594D01*
Y31058D01*
X69417D01*
Y31411D01*
X69241D01*
Y31764D01*
X69064D01*
Y32117D01*
X68888D01*
Y32293D01*
X68712D01*
Y32646D01*
X68535D01*
Y32822D01*
X68359D01*
Y33175D01*
X68183D01*
Y33351D01*
X68006D01*
Y33528D01*
X67830D01*
Y33704D01*
X67653D01*
Y34057D01*
X67477D01*
Y34233D01*
X67301D01*
Y34409D01*
X67124D01*
Y34586D01*
X66948D01*
Y34762D01*
X66771D01*
Y34939D01*
X66595D01*
Y35115D01*
X66242D01*
Y35291D01*
X66066D01*
Y35468D01*
X65890D01*
Y35644D01*
X65537D01*
Y35821D01*
X65360D01*
Y35997D01*
X65008D01*
Y36173D01*
X64831D01*
Y36350D01*
X64479D01*
Y36526D01*
X64302D01*
Y36702D01*
D02*
G37*
G36*
X69417D02*
X67477D01*
Y36526D01*
X66771D01*
Y36350D01*
X66419D01*
Y36173D01*
X66595D01*
Y35997D01*
X66771D01*
Y35821D01*
X66948D01*
Y35644D01*
X67124D01*
Y35468D01*
X67301D01*
Y35291D01*
X67477D01*
Y35115D01*
X67653D01*
Y34939D01*
X67830D01*
Y34762D01*
X68006D01*
Y34586D01*
X68183D01*
Y34409D01*
X68359D01*
Y34057D01*
X68535D01*
Y33880D01*
X68712D01*
Y33704D01*
X68888D01*
Y33351D01*
X69064D01*
Y33175D01*
X69241D01*
Y32822D01*
X69417D01*
Y32646D01*
X69594D01*
Y32293D01*
X69770D01*
Y31940D01*
X69946D01*
Y31764D01*
X70123D01*
Y31411D01*
X70299D01*
Y31058D01*
X70475D01*
Y30529D01*
X70652D01*
Y30176D01*
X70828D01*
Y29824D01*
X71005D01*
Y29295D01*
X71181D01*
Y28765D01*
X71357D01*
Y28236D01*
X71534D01*
Y27531D01*
X71710D01*
Y26825D01*
X71887D01*
Y25943D01*
X72063D01*
Y25061D01*
X72239D01*
Y24532D01*
X72416D01*
Y24179D01*
X72592D01*
Y24356D01*
X72945D01*
Y24532D01*
X73121D01*
Y24709D01*
X73298D01*
Y24885D01*
X73474D01*
Y25238D01*
X73650D01*
Y25414D01*
X73827D01*
Y25591D01*
X74003D01*
Y25943D01*
X74180D01*
Y26120D01*
X74356D01*
Y26472D01*
X74532D01*
Y27002D01*
X74709D01*
Y27707D01*
X74885D01*
Y31411D01*
X74709D01*
Y31940D01*
X74532D01*
Y32469D01*
X74356D01*
Y32646D01*
X74180D01*
Y32998D01*
X74003D01*
Y33351D01*
X73827D01*
Y33528D01*
X73650D01*
Y33704D01*
X73474D01*
Y33880D01*
X73298D01*
Y34057D01*
X73121D01*
Y34233D01*
X72945D01*
Y34409D01*
X72768D01*
Y34586D01*
X72592D01*
Y34762D01*
X72416D01*
Y34939D01*
X72239D01*
Y35115D01*
X72063D01*
Y35291D01*
X71887D01*
Y35468D01*
X71534D01*
Y35644D01*
X71357D01*
Y35821D01*
X71005D01*
Y35997D01*
X70652D01*
Y36173D01*
X70299D01*
Y36350D01*
X69946D01*
Y36526D01*
X69417D01*
Y36702D01*
D02*
G37*
%LPD*%
G36*
X88995Y173397D02*
X89877D01*
Y173221D01*
X90583D01*
Y173044D01*
X91112D01*
Y172868D01*
X91465D01*
Y172692D01*
X91994D01*
Y172515D01*
X92347D01*
Y172339D01*
X92699D01*
Y172163D01*
X93052D01*
Y171986D01*
X93405D01*
Y171810D01*
X93758D01*
Y171633D01*
X94110D01*
Y171457D01*
X94463D01*
Y171281D01*
X94816D01*
Y171104D01*
X95169D01*
Y170928D01*
X95521D01*
Y170751D01*
X95874D01*
Y170575D01*
X96051D01*
Y170399D01*
X96403D01*
Y170222D01*
X96756D01*
Y170046D01*
X96932D01*
Y169870D01*
X97285D01*
Y169693D01*
X97638D01*
Y169517D01*
X97991D01*
Y169340D01*
X98343D01*
Y169164D01*
X98520D01*
Y168988D01*
X98873D01*
Y168811D01*
X99226D01*
Y168635D01*
X99578D01*
Y168459D01*
X99931D01*
Y168282D01*
X100460D01*
Y168106D01*
X100813D01*
Y167929D01*
X101166D01*
Y167753D01*
X101518D01*
Y167577D01*
X102048D01*
Y167400D01*
X102577D01*
Y167224D01*
X103282D01*
Y167048D01*
X103988D01*
Y166871D01*
X104870D01*
Y166695D01*
X109103D01*
Y166871D01*
X110514D01*
Y167048D01*
X111572D01*
Y167224D01*
X113336D01*
Y167048D01*
X113689D01*
Y166871D01*
X113865D01*
Y166695D01*
X114041D01*
Y165284D01*
X113865D01*
Y164931D01*
X113689D01*
Y164578D01*
X113512D01*
Y164226D01*
X113336D01*
Y164049D01*
X113160D01*
Y163696D01*
X112983D01*
Y163520D01*
X112807D01*
Y163344D01*
X112630D01*
Y163167D01*
X112454D01*
Y162991D01*
X112101D01*
Y162814D01*
X111219D01*
Y162991D01*
X110867D01*
Y163167D01*
X110690D01*
Y163344D01*
X110337D01*
Y163520D01*
X109985D01*
Y163696D01*
X109808D01*
Y163873D01*
X109455D01*
Y164049D01*
X109103D01*
Y164226D01*
X108926D01*
Y164402D01*
X108574D01*
Y164578D01*
X108045D01*
Y164755D01*
X107339D01*
Y164578D01*
X107163D01*
Y164402D01*
X106986D01*
Y164226D01*
X106810D01*
Y163873D01*
X106633D01*
Y163696D01*
X106457D01*
Y163520D01*
X106281D01*
Y163344D01*
X106104D01*
Y163167D01*
X105928D01*
Y162991D01*
X105751D01*
Y162814D01*
X105575D01*
Y162638D01*
X105399D01*
Y162462D01*
X105222D01*
Y162285D01*
X105046D01*
Y162109D01*
X104870D01*
Y161933D01*
X104517D01*
Y161756D01*
X104164D01*
Y161580D01*
X103635D01*
Y161403D01*
X102048D01*
Y161580D01*
X101518D01*
Y161756D01*
X101166D01*
Y161933D01*
X100813D01*
Y162109D01*
X100460D01*
Y162285D01*
X99931D01*
Y162462D01*
X99578D01*
Y162638D01*
X99226D01*
Y162814D01*
X98873D01*
Y162991D01*
X98696D01*
Y163167D01*
X98343D01*
Y163344D01*
X98167D01*
Y163520D01*
X97814D01*
Y163696D01*
X97638D01*
Y163873D01*
X97462D01*
Y164226D01*
X97285D01*
Y164578D01*
X97109D01*
Y165107D01*
X96932D01*
Y166166D01*
X96756D01*
Y166695D01*
X96403D01*
Y166871D01*
X95698D01*
Y167048D01*
X94992D01*
Y167224D01*
X93758D01*
Y167400D01*
X92523D01*
Y167577D01*
X90583D01*
Y167753D01*
X88643D01*
Y167929D01*
X87584D01*
Y168106D01*
X86879D01*
Y168282D01*
X86526D01*
Y168459D01*
X86173D01*
Y168635D01*
X85997D01*
Y168811D01*
X85821D01*
Y168988D01*
X85644D01*
Y169340D01*
X85468D01*
Y169870D01*
X85291D01*
Y171457D01*
X85468D01*
Y172163D01*
X85644D01*
Y172515D01*
X85821D01*
Y172692D01*
X85997D01*
Y173044D01*
X86350D01*
Y173221D01*
X86702D01*
Y173397D01*
X87408D01*
Y173574D01*
X88995D01*
Y173397D01*
D02*
G37*
G36*
X69241Y101081D02*
X69064D01*
Y100905D01*
X68888D01*
Y100729D01*
X68712D01*
Y100552D01*
X68535D01*
Y100199D01*
X68359D01*
Y100023D01*
X68183D01*
Y99847D01*
X68006D01*
Y99494D01*
X67830D01*
Y99141D01*
X67653D01*
Y98788D01*
X67477D01*
Y98436D01*
X67301D01*
Y97730D01*
X67124D01*
Y93850D01*
X67301D01*
Y92615D01*
X67477D01*
Y91380D01*
X67653D01*
Y90146D01*
X67830D01*
Y88558D01*
X68006D01*
Y86795D01*
X67653D01*
Y87676D01*
X67477D01*
Y88735D01*
X67301D01*
Y89617D01*
X67124D01*
Y90499D01*
X66948D01*
Y91380D01*
X66771D01*
Y92262D01*
X66595D01*
Y93497D01*
X66419D01*
Y94908D01*
X66242D01*
Y96848D01*
X66419D01*
Y97907D01*
X66595D01*
Y98612D01*
X66771D01*
Y98965D01*
X66948D01*
Y99318D01*
X67124D01*
Y99494D01*
X67301D01*
Y99847D01*
X67477D01*
Y100023D01*
X67653D01*
Y100199D01*
X67830D01*
Y100376D01*
X68006D01*
Y100552D01*
X68183D01*
Y100729D01*
X68359D01*
Y100905D01*
X68535D01*
Y101081D01*
X68888D01*
Y101258D01*
X69241D01*
Y101081D01*
D02*
G37*
%LPC*%
G36*
X91818Y171986D02*
X91288D01*
Y171810D01*
X91465D01*
Y171457D01*
X91818D01*
Y171281D01*
X92523D01*
Y171633D01*
X92170D01*
Y171810D01*
X91818D01*
Y171986D01*
D02*
G37*
G36*
X94816Y170399D02*
X94110D01*
Y170222D01*
X94287D01*
Y169870D01*
X94463D01*
Y169693D01*
X94640D01*
Y169517D01*
X94816D01*
Y169340D01*
X94992D01*
Y169164D01*
X95345D01*
Y168988D01*
X96403D01*
Y169340D01*
X96227D01*
Y169517D01*
X95874D01*
Y169693D01*
X95698D01*
Y169870D01*
X95345D01*
Y170046D01*
X94992D01*
Y170222D01*
X94816D01*
Y170399D01*
D02*
G37*
G36*
X88643Y172868D02*
X87584D01*
Y172692D01*
X87055D01*
Y172515D01*
X86702D01*
Y172339D01*
X86526D01*
Y172163D01*
X86350D01*
Y171633D01*
X86173D01*
Y170928D01*
X85997D01*
Y170222D01*
X86173D01*
Y169693D01*
X86350D01*
Y169340D01*
X86526D01*
Y169164D01*
X86879D01*
Y168988D01*
X87408D01*
Y168811D01*
X88113D01*
Y168635D01*
X89348D01*
Y168459D01*
X91112D01*
Y168282D01*
X92876D01*
Y168106D01*
X94110D01*
Y167929D01*
X94992D01*
Y167753D01*
X95874D01*
Y167577D01*
X96756D01*
Y167400D01*
X97638D01*
Y168106D01*
X97814D01*
Y168459D01*
X96932D01*
Y168282D01*
X94992D01*
Y168459D01*
X94640D01*
Y168635D01*
X94463D01*
Y168811D01*
X94287D01*
Y168988D01*
X94110D01*
Y169164D01*
X93934D01*
Y169340D01*
X93758D01*
Y169693D01*
X93581D01*
Y170222D01*
X93405D01*
Y170575D01*
X91465D01*
Y170751D01*
X91112D01*
Y170928D01*
X90936D01*
Y171281D01*
X90759D01*
Y171457D01*
X90583D01*
Y171986D01*
X90406D01*
Y172163D01*
X90230D01*
Y172339D01*
X90054D01*
Y172515D01*
X89524D01*
Y172692D01*
X88643D01*
Y172868D01*
D02*
G37*
G36*
X113336Y166342D02*
X110867D01*
Y166166D01*
X109985D01*
Y165989D01*
X108926D01*
Y165813D01*
X108045D01*
Y165460D01*
X108397D01*
Y165284D01*
X108750D01*
Y165107D01*
X109279D01*
Y164931D01*
X109632D01*
Y164755D01*
X109808D01*
Y164578D01*
X110161D01*
Y164402D01*
X110514D01*
Y164226D01*
X110690D01*
Y164049D01*
X111043D01*
Y163873D01*
X111396D01*
Y163696D01*
X111925D01*
Y163873D01*
X112278D01*
Y164226D01*
X112454D01*
Y164402D01*
X112630D01*
Y164578D01*
X112807D01*
Y164931D01*
X112983D01*
Y165284D01*
X113160D01*
Y165637D01*
X113336D01*
Y166342D01*
D02*
G37*
G36*
X99049Y167929D02*
X98520D01*
Y167577D01*
X98343D01*
Y167048D01*
X98167D01*
Y166695D01*
X97991D01*
Y166166D01*
X97814D01*
Y164931D01*
X97991D01*
Y164578D01*
X98167D01*
Y164402D01*
X98343D01*
Y164226D01*
X98520D01*
Y164049D01*
X98873D01*
Y163873D01*
X99049D01*
Y163696D01*
X99226D01*
Y163520D01*
X99578D01*
Y163344D01*
X99931D01*
Y163167D01*
X100460D01*
Y163520D01*
X100637D01*
Y163696D01*
Y163873D01*
X100813D01*
Y164402D01*
X100989D01*
Y164931D01*
X101166D01*
Y165460D01*
X101342D01*
Y165989D01*
X101518D01*
Y166695D01*
X101166D01*
Y166871D01*
X100989D01*
Y167048D01*
X100637D01*
Y167224D01*
X100284D01*
Y167400D01*
X99755D01*
Y167577D01*
X99578D01*
Y167753D01*
X99049D01*
Y167929D01*
D02*
G37*
G36*
X103106Y166342D02*
X102753D01*
Y166166D01*
X102400D01*
Y165813D01*
X102224D01*
Y165460D01*
X102048D01*
Y164931D01*
X101871D01*
Y164578D01*
X101695D01*
Y164049D01*
X101518D01*
Y162462D01*
X101695D01*
Y162285D01*
X102224D01*
Y162109D01*
X103282D01*
Y162285D01*
X103988D01*
Y162462D01*
X104164D01*
Y162638D01*
X104340D01*
Y162814D01*
X104693D01*
Y162991D01*
X104870D01*
Y163167D01*
X105046D01*
Y163344D01*
X105222D01*
Y163520D01*
X105399D01*
Y163696D01*
X105575D01*
Y163873D01*
X105751D01*
Y164049D01*
X105928D01*
Y164402D01*
X106104D01*
Y164578D01*
X106281D01*
Y164931D01*
X106457D01*
Y165284D01*
X106633D01*
Y165637D01*
X106281D01*
Y165813D01*
X105046D01*
Y165989D01*
X104164D01*
Y166166D01*
X103106D01*
Y166342D01*
D02*
G37*
%LPD*%
G36*
X101518Y174103D02*
X101871D01*
Y173926D01*
X102048D01*
Y173750D01*
X102224D01*
Y173574D01*
X102400D01*
Y173397D01*
X102577D01*
Y173044D01*
X102753D01*
Y172868D01*
X102577D01*
Y172692D01*
X102400D01*
Y172868D01*
X102048D01*
Y173044D01*
X101871D01*
Y173221D01*
X101695D01*
Y173397D01*
X101342D01*
Y173221D01*
X101166D01*
Y172868D01*
X100989D01*
Y172163D01*
X100637D01*
Y172339D01*
X100460D01*
Y173221D01*
Y173397D01*
Y173750D01*
X100637D01*
Y173926D01*
X100813D01*
Y174103D01*
X100989D01*
Y174279D01*
X101518D01*
Y174103D01*
D02*
G37*
G36*
X108574Y172515D02*
X108750D01*
Y172339D01*
X108926D01*
Y171810D01*
X108750D01*
Y171457D01*
X108574D01*
Y171281D01*
X108397D01*
Y171104D01*
X108045D01*
Y170928D01*
X107339D01*
Y171104D01*
X107515D01*
Y171281D01*
X107692D01*
Y171457D01*
X107868D01*
Y171633D01*
X108045D01*
Y171810D01*
X107339D01*
Y171633D01*
X106810D01*
Y171457D01*
X106281D01*
Y171281D01*
X106104D01*
Y171633D01*
X106281D01*
Y171810D01*
X106457D01*
Y171986D01*
X106633D01*
Y172163D01*
X106810D01*
Y172339D01*
X107163D01*
Y172515D01*
X107692D01*
Y172692D01*
X108574D01*
Y172515D01*
D02*
G37*
G36*
X77178Y90851D02*
X78236D01*
Y90675D01*
X78942D01*
Y90499D01*
X79471D01*
Y90322D01*
X80000D01*
Y90146D01*
X80529D01*
Y89969D01*
X80882D01*
Y89793D01*
X81411D01*
Y89617D01*
X81764D01*
Y89440D01*
X82116D01*
Y89264D01*
X82293D01*
Y89087D01*
X82646D01*
Y88911D01*
X82822D01*
Y88735D01*
X82999D01*
Y88558D01*
X83175D01*
Y88382D01*
X83351D01*
Y88205D01*
X83528D01*
Y88029D01*
X83704D01*
Y87853D01*
X83880D01*
Y87676D01*
X84057D01*
Y87500D01*
X84233D01*
Y87147D01*
X84410D01*
Y86971D01*
X84586D01*
Y86618D01*
X84762D01*
Y86265D01*
X84939D01*
Y86089D01*
X84762D01*
Y86265D01*
X84586D01*
Y86442D01*
X84233D01*
Y86618D01*
X84057D01*
Y86795D01*
X83880D01*
Y86971D01*
X83704D01*
Y87147D01*
X83528D01*
Y87324D01*
X83351D01*
Y87500D01*
X83175D01*
Y87676D01*
X82999D01*
Y87853D01*
X82822D01*
Y88029D01*
X82646D01*
Y88205D01*
X82293D01*
Y88382D01*
X82116D01*
Y88558D01*
X81764D01*
Y88735D01*
X81411D01*
Y88911D01*
X81058D01*
Y89087D01*
X80705D01*
Y89264D01*
X80353D01*
Y89440D01*
X79647D01*
Y89617D01*
X78942D01*
Y89793D01*
X78236D01*
Y89969D01*
X77531D01*
Y90146D01*
X76120D01*
Y90322D01*
X71534D01*
Y90499D01*
X71710D01*
Y90675D01*
X72592D01*
Y90851D01*
X74532D01*
Y91028D01*
X77178D01*
Y90851D01*
D02*
G37*
G36*
X81058Y82561D02*
X80882D01*
Y82738D01*
X81058D01*
Y82561D01*
D02*
G37*
G36*
X46841Y69509D02*
X47017D01*
Y69333D01*
X47370D01*
Y69156D01*
X47546D01*
Y68980D01*
X47899D01*
Y68804D01*
X48075D01*
Y68627D01*
X48428D01*
Y68451D01*
X48604D01*
Y68274D01*
X48957D01*
Y68098D01*
X49133D01*
Y67922D01*
X49486D01*
Y67745D01*
X49663D01*
Y67569D01*
X50015D01*
Y67393D01*
X50192D01*
Y67216D01*
X50545D01*
Y67040D01*
X50897D01*
Y66863D01*
X51074D01*
Y66687D01*
X51250D01*
Y66511D01*
X51603D01*
Y66334D01*
X51779D01*
Y66158D01*
X52132D01*
Y65982D01*
X52308D01*
Y65805D01*
X52661D01*
Y65629D01*
X52837D01*
Y65452D01*
X53190D01*
Y65276D01*
X53367D01*
Y65100D01*
X53719D01*
Y64923D01*
X53896D01*
Y64747D01*
X54248D01*
Y64571D01*
X54425D01*
Y64394D01*
X54601D01*
Y64218D01*
X54954D01*
Y64041D01*
X55130D01*
Y63865D01*
X55483D01*
Y63689D01*
X55659D01*
Y63512D01*
X56012D01*
Y63336D01*
X56189D01*
Y63159D01*
X56365D01*
Y62983D01*
X56541D01*
Y62807D01*
X56894D01*
Y62630D01*
X57070D01*
Y62454D01*
X57247D01*
Y62278D01*
X57600D01*
Y62101D01*
X57776D01*
Y61925D01*
X57952D01*
Y61748D01*
X58129D01*
Y61572D01*
X58305D01*
Y61396D01*
X58482D01*
Y61219D01*
X58658D01*
Y61043D01*
X58834D01*
Y60867D01*
X59011D01*
Y60690D01*
X59187D01*
Y60514D01*
X59363D01*
Y60337D01*
X59540D01*
Y60161D01*
X59716D01*
Y59985D01*
X59893D01*
Y59632D01*
X60069D01*
Y59455D01*
X60245D01*
Y59279D01*
X60422D01*
Y59103D01*
X60598D01*
Y58750D01*
X60774D01*
Y58574D01*
X60951D01*
Y58397D01*
X61127D01*
Y58045D01*
X61304D01*
Y57868D01*
X61480D01*
Y57515D01*
X61656D01*
Y57339D01*
X61833D01*
Y56986D01*
X62009D01*
Y56810D01*
X62186D01*
Y56457D01*
X62362D01*
Y56104D01*
X62538D01*
Y55752D01*
X62715D01*
Y55222D01*
X62891D01*
Y54693D01*
X63067D01*
Y53811D01*
X62891D01*
Y54341D01*
X62715D01*
Y54870D01*
X62538D01*
Y55222D01*
X62362D01*
Y55575D01*
X62186D01*
Y55752D01*
X62009D01*
Y56104D01*
X61833D01*
Y56281D01*
X61656D01*
Y56633D01*
X61480D01*
Y56810D01*
X61304D01*
Y57163D01*
X61127D01*
Y57339D01*
X60951D01*
Y57515D01*
X60774D01*
Y57868D01*
X60598D01*
Y58045D01*
X60422D01*
Y58221D01*
X60245D01*
Y58397D01*
X60069D01*
Y58574D01*
X59893D01*
Y58750D01*
X59716D01*
Y58926D01*
X59540D01*
Y59103D01*
X59363D01*
Y59455D01*
X59187D01*
Y59632D01*
X59011D01*
Y59808D01*
X58834D01*
Y59985D01*
X58658D01*
Y60161D01*
X58482D01*
Y60337D01*
X58129D01*
Y60514D01*
X57952D01*
Y60690D01*
X57776D01*
Y60867D01*
X57600D01*
Y61043D01*
X57423D01*
Y61219D01*
X57247D01*
Y61396D01*
X57070D01*
Y61572D01*
X56894D01*
Y61748D01*
X56718D01*
Y61925D01*
X56365D01*
Y62101D01*
X56189D01*
Y62278D01*
X56012D01*
Y62454D01*
X55659D01*
Y62630D01*
X55483D01*
Y62807D01*
X55307D01*
Y62983D01*
X54954D01*
Y63159D01*
X54778D01*
Y63336D01*
X54601D01*
Y63512D01*
X54425D01*
Y63689D01*
X54072D01*
Y63865D01*
X53896D01*
Y64041D01*
X53543D01*
Y64218D01*
X53367D01*
Y64394D01*
X53190D01*
Y64571D01*
X52837D01*
Y64747D01*
X52661D01*
Y64923D01*
X52485D01*
Y65100D01*
X52132D01*
Y65276D01*
X51955D01*
Y65452D01*
X51779D01*
Y65629D01*
X51426D01*
Y65805D01*
X51250D01*
Y65982D01*
X51074D01*
Y66158D01*
X50721D01*
Y66334D01*
X50545D01*
Y66511D01*
X50368D01*
Y66687D01*
X50015D01*
Y66863D01*
X49839D01*
Y67040D01*
X49663D01*
Y67216D01*
X49310D01*
Y67393D01*
X49133D01*
Y67569D01*
X48957D01*
Y67745D01*
X48781D01*
Y67922D01*
X48428D01*
Y68098D01*
X48252D01*
Y68274D01*
X48075D01*
Y68451D01*
X47899D01*
Y68627D01*
X47546D01*
Y68804D01*
X47370D01*
Y68980D01*
X47193D01*
Y69156D01*
X47017D01*
Y69333D01*
X46841D01*
Y69509D01*
X46664D01*
Y69686D01*
X46841D01*
Y69509D01*
D02*
G37*
G36*
X91641Y43229D02*
X91465D01*
Y43052D01*
X91288D01*
Y42876D01*
X90936D01*
Y42699D01*
X90583D01*
Y42523D01*
X90054D01*
Y42347D01*
X89701D01*
Y42170D01*
X89172D01*
Y41994D01*
X88643D01*
Y41817D01*
X88113D01*
Y41641D01*
X87584D01*
Y41465D01*
X87232D01*
Y41288D01*
X86702D01*
Y41112D01*
X86173D01*
Y40936D01*
X85644D01*
Y40759D01*
X85291D01*
Y40583D01*
X84939D01*
Y40406D01*
X84586D01*
Y40230D01*
X84233D01*
Y40054D01*
X83880D01*
Y39877D01*
X83528D01*
Y39701D01*
X83351D01*
Y39525D01*
X82999D01*
Y39348D01*
X82822D01*
Y39172D01*
X82469D01*
Y38995D01*
X82293D01*
Y38819D01*
X82116D01*
Y38643D01*
X81940D01*
Y38466D01*
X81587D01*
Y38819D01*
X81764D01*
Y38995D01*
X81940D01*
Y39172D01*
X82116D01*
Y39348D01*
X82293D01*
Y39525D01*
X82469D01*
Y39701D01*
X82646D01*
Y39877D01*
X82822D01*
Y40054D01*
X82999D01*
Y40230D01*
X83175D01*
Y40406D01*
X83351D01*
Y40583D01*
X83528D01*
Y40759D01*
X83880D01*
Y40936D01*
X84057D01*
Y41112D01*
X84410D01*
Y41288D01*
X84762D01*
Y41465D01*
X85291D01*
Y41641D01*
X85644D01*
Y41817D01*
X86173D01*
Y41994D01*
X86702D01*
Y42170D01*
X87408D01*
Y42347D01*
X87937D01*
Y42523D01*
X88643D01*
Y42699D01*
X89348D01*
Y42876D01*
X90054D01*
Y43052D01*
X90583D01*
Y43229D01*
X91112D01*
Y43405D01*
X91641D01*
Y43229D01*
D02*
G37*
G36*
X73474Y39701D02*
X73298D01*
Y39525D01*
X72768D01*
Y39348D01*
X72416D01*
Y39172D01*
X72063D01*
Y38995D01*
X71710D01*
Y38819D01*
X71357D01*
Y38643D01*
X70828D01*
Y38466D01*
X70475D01*
Y38290D01*
X70123D01*
Y38643D01*
X70299D01*
Y38819D01*
X70475D01*
Y38995D01*
X70652D01*
Y39172D01*
X70828D01*
Y39348D01*
X71181D01*
Y39525D01*
X71534D01*
Y39701D01*
X72063D01*
Y39877D01*
X73474D01*
Y39701D01*
D02*
G37*
G36*
X74709Y38466D02*
X75061D01*
Y38290D01*
X74885D01*
Y38114D01*
X74532D01*
Y37937D01*
X74003D01*
Y37761D01*
X73650D01*
Y37584D01*
X73121D01*
Y37408D01*
X72592D01*
Y37232D01*
X72239D01*
Y37584D01*
X72416D01*
Y37761D01*
X72592D01*
Y37937D01*
X72945D01*
Y38114D01*
X73121D01*
Y38290D01*
X73474D01*
Y38466D01*
X74532D01*
Y38643D01*
X74709D01*
Y38466D01*
D02*
G37*
G36*
X44548Y35115D02*
X44371D01*
Y34939D01*
X44018D01*
Y34762D01*
X43842D01*
Y34586D01*
X43666D01*
Y34409D01*
X43313D01*
Y34233D01*
X43137D01*
Y34057D01*
X42960D01*
Y33880D01*
X42607D01*
Y33704D01*
X42431D01*
Y33528D01*
X42078D01*
Y33351D01*
X41902D01*
Y33175D01*
X41726D01*
Y32998D01*
X41373D01*
Y33528D01*
X41549D01*
Y33880D01*
X41726D01*
Y34057D01*
X41902D01*
Y34233D01*
X42078D01*
Y34409D01*
X42255D01*
Y34586D01*
X42607D01*
Y34762D01*
X42784D01*
Y34939D01*
X43137D01*
Y35115D01*
X43666D01*
Y35291D01*
X44371D01*
Y35468D01*
X44548D01*
Y35115D01*
D02*
G37*
G36*
X46135Y34057D02*
X45959D01*
Y33704D01*
X45782D01*
Y33528D01*
X45606D01*
Y33351D01*
X45429D01*
Y33175D01*
X45253D01*
Y32998D01*
X45077D01*
Y32822D01*
X44900D01*
Y32646D01*
X44724D01*
Y32469D01*
X44548D01*
Y32293D01*
X44371D01*
Y32117D01*
X44195D01*
Y31940D01*
X44018D01*
Y31764D01*
X43842D01*
Y31587D01*
X43489D01*
Y31411D01*
X43313D01*
Y31940D01*
X43489D01*
Y32293D01*
X43666D01*
Y32646D01*
X43842D01*
Y32822D01*
X44018D01*
Y32998D01*
X44195D01*
Y33175D01*
X44371D01*
Y33351D01*
X44548D01*
Y33528D01*
X44724D01*
Y33704D01*
X44900D01*
Y33880D01*
X45253D01*
Y34057D01*
X45606D01*
Y34233D01*
X46135D01*
Y34057D01*
D02*
G37*
%LPC*%
G36*
X249813Y154582D02*
X238228D01*
Y154341D01*
X234608D01*
Y154099D01*
X231470D01*
Y153858D01*
X229539D01*
Y153617D01*
X227609D01*
Y153375D01*
X225919D01*
Y153134D01*
X224230D01*
Y152893D01*
X223023D01*
Y152651D01*
X221816D01*
Y152410D01*
X220609D01*
Y152169D01*
X219403D01*
Y151927D01*
X218196D01*
Y151686D01*
X217230D01*
Y151445D01*
X216265D01*
Y151203D01*
X215300D01*
Y150962D01*
X214334D01*
Y150721D01*
X213610D01*
Y150479D01*
X212645D01*
Y150238D01*
X211921D01*
Y149997D01*
X211197D01*
Y149755D01*
X210231D01*
Y149514D01*
X209507D01*
Y149272D01*
X208783D01*
Y149031D01*
X208059D01*
Y148790D01*
X207577D01*
Y148548D01*
X206852D01*
Y148307D01*
X206128D01*
Y148066D01*
X205646D01*
Y147824D01*
X204922D01*
Y147583D01*
X204439D01*
Y147342D01*
X203715D01*
Y147100D01*
X203232D01*
Y146859D01*
X202750D01*
Y146618D01*
X202026D01*
Y146376D01*
X201543D01*
Y146135D01*
X201060D01*
Y145894D01*
X200577D01*
Y145652D01*
X200095D01*
Y145411D01*
X199612D01*
Y145169D01*
X199129D01*
Y144928D01*
X198647D01*
Y144687D01*
X198164D01*
Y144445D01*
X197681D01*
Y144204D01*
X197199D01*
Y143963D01*
X196716D01*
Y143721D01*
X196474D01*
Y143480D01*
X195992D01*
Y143239D01*
X195509D01*
Y142997D01*
X195268D01*
Y142756D01*
X194785D01*
Y142515D01*
X194544D01*
Y142273D01*
X194061D01*
Y142032D01*
X193578D01*
Y141791D01*
X193337D01*
Y141549D01*
X192854D01*
Y141308D01*
X192613D01*
Y141067D01*
X192372D01*
Y140825D01*
X191889D01*
Y140584D01*
X191647D01*
Y140343D01*
X191165D01*
Y140101D01*
X190923D01*
Y139860D01*
X190682D01*
Y139619D01*
X190441D01*
Y139377D01*
X189958D01*
Y139136D01*
X189717D01*
Y138894D01*
X189475D01*
Y138653D01*
X189234D01*
Y138412D01*
X188993D01*
Y138170D01*
X188751D01*
Y137929D01*
X188269D01*
Y137688D01*
X188027D01*
Y137446D01*
X187786D01*
Y137205D01*
X187544D01*
Y136964D01*
X187303D01*
Y136722D01*
X187062D01*
Y136481D01*
X186821D01*
Y136240D01*
X186579D01*
Y135998D01*
X186338D01*
Y135757D01*
X186096D01*
Y135515D01*
X185855D01*
Y135033D01*
X185614D01*
Y134791D01*
X185372D01*
Y134550D01*
X185131D01*
Y134309D01*
X184890D01*
Y134067D01*
X184648D01*
Y133585D01*
X184407D01*
Y133343D01*
X184166D01*
Y133102D01*
X183924D01*
Y132619D01*
X183683D01*
Y132378D01*
X183442D01*
Y131895D01*
X183200D01*
Y131654D01*
X182959D01*
Y131171D01*
X182718D01*
Y130689D01*
X182476D01*
Y130206D01*
X182235D01*
Y129965D01*
X181994D01*
Y129241D01*
X181752D01*
Y128758D01*
X181511D01*
Y128275D01*
X181269D01*
Y127551D01*
X181028D01*
Y126827D01*
X180787D01*
Y126103D01*
X180545D01*
Y125138D01*
X180304D01*
Y123448D01*
X180063D01*
Y119586D01*
X180304D01*
Y117897D01*
X180545D01*
Y116932D01*
X180787D01*
Y116208D01*
X181028D01*
Y115484D01*
X181269D01*
Y114760D01*
X181511D01*
Y114277D01*
X181752D01*
Y113553D01*
X181994D01*
Y113070D01*
X182235D01*
Y112587D01*
X182476D01*
Y112346D01*
X182718D01*
Y111863D01*
X182959D01*
Y111381D01*
X183200D01*
Y111139D01*
X183442D01*
Y110656D01*
X183683D01*
Y110415D01*
X183924D01*
Y109932D01*
X184166D01*
Y109691D01*
X184407D01*
Y109450D01*
X184648D01*
Y108967D01*
X184890D01*
Y108726D01*
X185131D01*
Y108484D01*
X185372D01*
Y108243D01*
X185614D01*
Y107760D01*
X185855D01*
Y107519D01*
X186096D01*
Y107278D01*
X186338D01*
Y107036D01*
X186579D01*
Y106795D01*
X186821D01*
Y106554D01*
X187062D01*
Y106312D01*
X187303D01*
Y106071D01*
X187544D01*
Y105830D01*
X187786D01*
Y105588D01*
X188027D01*
Y105347D01*
X188269D01*
Y105105D01*
X188510D01*
Y104864D01*
X188751D01*
Y104623D01*
X189234D01*
Y104382D01*
X189475D01*
Y104140D01*
X189717D01*
Y103899D01*
X189958D01*
Y103657D01*
X190199D01*
Y103416D01*
X190682D01*
Y103175D01*
X190923D01*
Y102933D01*
X191165D01*
Y102692D01*
X191647D01*
Y102451D01*
X191889D01*
Y102209D01*
X192130D01*
Y101968D01*
X192613D01*
Y101727D01*
X192854D01*
Y101485D01*
X193337D01*
Y101244D01*
X193578D01*
Y101003D01*
X194061D01*
Y100761D01*
X194302D01*
Y100520D01*
X194785D01*
Y100279D01*
X195026D01*
Y100037D01*
X195509D01*
Y99796D01*
X195992D01*
Y99555D01*
X196474D01*
Y99313D01*
X196716D01*
Y99072D01*
X197199D01*
Y98830D01*
X197681D01*
Y98589D01*
X198164D01*
Y98348D01*
X198647D01*
Y98106D01*
X198888D01*
Y97865D01*
X199371D01*
Y97624D01*
X199853D01*
Y97382D01*
X200336D01*
Y97141D01*
X201060D01*
Y96900D01*
X201543D01*
Y96658D01*
X202026D01*
Y96417D01*
X202508D01*
Y96176D01*
X202991D01*
Y95934D01*
X203715D01*
Y95693D01*
X204198D01*
Y95451D01*
X204922D01*
Y95210D01*
X205404D01*
Y94969D01*
X206128D01*
Y94727D01*
X206852D01*
Y94486D01*
X207335D01*
Y94245D01*
X208059D01*
Y94003D01*
X208783D01*
Y93762D01*
X209507D01*
Y93521D01*
X210231D01*
Y93279D01*
X210956D01*
Y93038D01*
X211679D01*
Y92797D01*
X212404D01*
Y92555D01*
X213369D01*
Y92314D01*
X214093D01*
Y92073D01*
X215058D01*
Y91831D01*
X216024D01*
Y91590D01*
X216989D01*
Y91349D01*
X218196D01*
Y91107D01*
X219161D01*
Y90866D01*
X220368D01*
Y90625D01*
X221575D01*
Y90383D01*
X222782D01*
Y90142D01*
X224230D01*
Y89901D01*
X225678D01*
Y89659D01*
X227126D01*
Y89418D01*
X229057D01*
Y89177D01*
X230987D01*
Y88935D01*
X233642D01*
Y88694D01*
X237504D01*
Y88452D01*
X250537D01*
Y88694D01*
X254640D01*
Y88935D01*
X257053D01*
Y89177D01*
X259225D01*
Y89418D01*
X260915D01*
Y89659D01*
X262604D01*
Y89901D01*
X264052D01*
Y90142D01*
X265500D01*
Y90383D01*
X266707D01*
Y90625D01*
X267914D01*
Y90866D01*
X268879D01*
Y91107D01*
X270086D01*
Y91349D01*
X271051D01*
Y91590D01*
X272258D01*
Y91831D01*
X272982D01*
Y92073D01*
X273948D01*
Y92314D01*
X274913D01*
Y92555D01*
X275637D01*
Y92797D01*
X276361D01*
Y93038D01*
X277327D01*
Y93279D01*
X278050D01*
Y93521D01*
X278775D01*
Y93762D01*
X279499D01*
Y94003D01*
X280223D01*
Y94245D01*
X280705D01*
Y94486D01*
X281430D01*
Y94727D01*
X282153D01*
Y94969D01*
X282878D01*
Y95210D01*
X283360D01*
Y95451D01*
X283843D01*
Y95693D01*
X284567D01*
Y95934D01*
X285050D01*
Y96176D01*
X285532D01*
Y96417D01*
X286256D01*
Y96658D01*
X286739D01*
Y96900D01*
X287222D01*
Y97141D01*
X287705D01*
Y97382D01*
X288187D01*
Y97624D01*
X288670D01*
Y97865D01*
X289153D01*
Y98106D01*
X289635D01*
Y98348D01*
X290118D01*
Y98589D01*
X290601D01*
Y98830D01*
X291083D01*
Y99072D01*
X291325D01*
Y99313D01*
X291807D01*
Y99555D01*
X292290D01*
Y99796D01*
X292773D01*
Y100037D01*
X293014D01*
Y100279D01*
X293497D01*
Y100520D01*
X293738D01*
Y100761D01*
X294221D01*
Y101003D01*
X294462D01*
Y101244D01*
X294945D01*
Y101485D01*
X295186D01*
Y101727D01*
X295669D01*
Y101968D01*
X295910D01*
Y102209D01*
X296393D01*
Y102451D01*
X296635D01*
Y102692D01*
X296876D01*
Y102933D01*
X297358D01*
Y103175D01*
X297600D01*
Y103416D01*
X297841D01*
Y103657D01*
X298324D01*
Y103899D01*
X298565D01*
Y104140D01*
X298807D01*
Y104382D01*
X299048D01*
Y104623D01*
X299289D01*
Y104864D01*
X299531D01*
Y105105D01*
X299772D01*
Y105347D01*
X300255D01*
Y105588D01*
X300496D01*
Y105830D01*
X300737D01*
Y106071D01*
X300979D01*
Y106312D01*
X301220D01*
Y106554D01*
X301461D01*
Y106795D01*
X301703D01*
Y107036D01*
X301944D01*
Y107278D01*
X302185D01*
Y107760D01*
X302427D01*
Y108002D01*
X302668D01*
Y108243D01*
X302910D01*
Y108484D01*
X303151D01*
Y108726D01*
X303392D01*
Y109208D01*
X303634D01*
Y109450D01*
X303875D01*
Y109691D01*
X304116D01*
Y110174D01*
X304358D01*
Y110415D01*
X304599D01*
Y110898D01*
X304840D01*
Y111139D01*
X305082D01*
Y111622D01*
X305323D01*
Y111863D01*
X305564D01*
Y112346D01*
X305806D01*
Y112829D01*
X306047D01*
Y113311D01*
X306288D01*
Y113794D01*
X306530D01*
Y114277D01*
X306771D01*
Y115001D01*
X307013D01*
Y115725D01*
X307254D01*
Y116449D01*
X307495D01*
Y117173D01*
X307736D01*
Y118380D01*
X307978D01*
Y120069D01*
X308219D01*
Y122724D01*
X307978D01*
Y124655D01*
X307736D01*
Y125862D01*
X307495D01*
Y126586D01*
X307254D01*
Y127310D01*
X307013D01*
Y128034D01*
X306771D01*
Y128516D01*
X306530D01*
Y129241D01*
X306288D01*
Y129723D01*
X306047D01*
Y130206D01*
X305806D01*
Y130689D01*
X305564D01*
Y130930D01*
X305323D01*
Y131413D01*
X305082D01*
Y131654D01*
Y131895D01*
X304840D01*
Y132137D01*
X304599D01*
Y132619D01*
X304358D01*
Y132861D01*
X304116D01*
Y133343D01*
X303875D01*
Y133585D01*
X303634D01*
Y133826D01*
X303392D01*
Y134067D01*
X303151D01*
Y134550D01*
X302910D01*
Y134791D01*
X302668D01*
Y135033D01*
X302427D01*
Y135274D01*
X302185D01*
Y135515D01*
X301944D01*
Y135757D01*
X301703D01*
Y135998D01*
X301461D01*
Y136240D01*
X301220D01*
Y136481D01*
X300979D01*
Y136722D01*
X300737D01*
Y136964D01*
X300496D01*
Y137205D01*
X300255D01*
Y137446D01*
X300013D01*
Y137688D01*
X299772D01*
Y137929D01*
X299531D01*
Y138170D01*
X299289D01*
Y138412D01*
X299048D01*
Y138653D01*
X298807D01*
Y138894D01*
X298565D01*
Y139136D01*
X298083D01*
Y139377D01*
X297841D01*
Y139619D01*
X297600D01*
Y139860D01*
X297358D01*
Y140101D01*
X296876D01*
Y140343D01*
X296635D01*
Y140584D01*
X296152D01*
Y140825D01*
X295910D01*
Y141067D01*
X295669D01*
Y141308D01*
X295186D01*
Y141549D01*
X294945D01*
Y141791D01*
X294462D01*
Y142032D01*
X294221D01*
Y142273D01*
X293738D01*
Y142515D01*
X293497D01*
Y142756D01*
X293014D01*
Y142997D01*
X292532D01*
Y143239D01*
X292290D01*
Y143480D01*
X291807D01*
Y143721D01*
X291325D01*
Y143963D01*
X290842D01*
Y144204D01*
X290601D01*
Y144445D01*
X290118D01*
Y144687D01*
X289635D01*
Y144928D01*
X289153D01*
Y145169D01*
X288670D01*
Y145411D01*
X288187D01*
Y145652D01*
X287705D01*
Y145894D01*
X287222D01*
Y146135D01*
X286498D01*
Y146376D01*
X286015D01*
Y146618D01*
X285532D01*
Y146859D01*
X285050D01*
Y147100D01*
X284326D01*
Y147342D01*
X283843D01*
Y147583D01*
X283360D01*
Y147824D01*
X282636D01*
Y148066D01*
X281912D01*
Y148307D01*
X281430D01*
Y148548D01*
X280705D01*
Y148790D01*
X279981D01*
Y149031D01*
X279257D01*
Y149272D01*
X278533D01*
Y149514D01*
X277809D01*
Y149755D01*
X277085D01*
Y149997D01*
X276361D01*
Y150238D01*
X275637D01*
Y150479D01*
X274672D01*
Y150721D01*
X273706D01*
Y150962D01*
X272982D01*
Y151203D01*
X272017D01*
Y151445D01*
X270810D01*
Y151686D01*
X269845D01*
Y151927D01*
X268879D01*
Y152169D01*
X267673D01*
Y152410D01*
X266466D01*
Y152651D01*
X265259D01*
Y152893D01*
X263811D01*
Y153134D01*
X262363D01*
Y153375D01*
X260673D01*
Y153617D01*
X258743D01*
Y153858D01*
X256570D01*
Y154099D01*
X253916D01*
Y154341D01*
X249813D01*
Y154582D01*
D02*
G37*
%LPD*%
G36*
X263811Y150962D02*
X264052D01*
X264052Y150479D01*
X264294D01*
X264294Y149755D01*
X264535D01*
Y149031D01*
X264776D01*
Y148066D01*
X265018D01*
Y147342D01*
X265259Y147342D01*
Y146618D01*
X265500D01*
Y145894D01*
X265742D01*
Y145169D01*
X265983D01*
Y144445D01*
X266224D01*
Y143721D01*
X266466D01*
Y142997D01*
X266707D01*
X266707Y142515D01*
X266949Y142515D01*
Y141791D01*
X267190Y141791D01*
Y141067D01*
X267431D01*
X267431Y140584D01*
Y140343D01*
X267673D01*
Y139860D01*
X267914D01*
X267914Y139377D01*
X268155D01*
Y138894D01*
X268397D01*
Y138412D01*
X268638D01*
X268638Y137929D01*
X268879D01*
Y137446D01*
X269121D01*
Y137205D01*
X269362D01*
Y136964D01*
X269603D01*
Y136722D01*
X269845D01*
Y136481D01*
X270086D01*
Y136240D01*
X270327D01*
Y135998D01*
X270810D01*
Y135757D01*
X271051D01*
Y135515D01*
X271534D01*
X271534Y135274D01*
X272258D01*
Y135033D01*
X272741D01*
X272741Y134791D01*
X273465D01*
X273465Y134550D01*
X274430D01*
Y134309D01*
X275637D01*
Y134067D01*
X276844D01*
Y133826D01*
X278533D01*
Y133585D01*
X280464D01*
Y133343D01*
X282153D01*
Y133102D01*
X284084D01*
Y132861D01*
X285774D01*
Y132619D01*
X287463D01*
Y132378D01*
X289153D01*
X289153Y132137D01*
X290842D01*
Y131895D01*
X292532Y131895D01*
Y131654D01*
X294221Y131654D01*
Y131413D01*
X295910D01*
Y131171D01*
X297841Y131171D01*
Y130930D01*
X299531D01*
X299531Y130689D01*
X301461D01*
Y130447D01*
X302185Y130447D01*
Y130206D01*
X302427Y130206D01*
Y129482D01*
X302185D01*
Y129241D01*
X301703D01*
Y128999D01*
X300013D01*
Y128758D01*
X298324D01*
X298324Y128516D01*
X296635D01*
Y128275D01*
X294462D01*
X294462Y128034D01*
X292773D01*
Y127792D01*
X291083Y127792D01*
Y127551D01*
X289153D01*
X289153Y127310D01*
X287463D01*
Y127068D01*
X285774D01*
Y126827D01*
X284084D01*
Y126586D01*
X282395D01*
Y126344D01*
X280705D01*
Y126103D01*
X279016D01*
X279016Y125862D01*
X277327D01*
Y125620D01*
X275637D01*
Y125379D01*
X274430D01*
Y125138D01*
X273465D01*
Y124896D01*
X272500D01*
Y124655D01*
X272017D01*
Y124413D01*
X271293D01*
X271293Y124172D01*
X270810D01*
X270810Y123931D01*
X270569D01*
Y123689D01*
X270327D01*
Y123448D01*
X270086D01*
Y123207D01*
X269845D01*
Y122965D01*
X269603D01*
Y122724D01*
X269362D01*
Y122483D01*
X269121D01*
Y122000D01*
X268879D01*
Y121517D01*
X268638Y121517D01*
Y121276D01*
X268397Y121276D01*
Y120552D01*
X268155Y120552D01*
Y120069D01*
X267914D01*
Y119586D01*
X267673D01*
X267673Y118862D01*
X267431D01*
X267431Y118138D01*
X267190D01*
X267190Y117414D01*
X266949D01*
X266949Y116690D01*
X266707D01*
Y115484D01*
X266466D01*
Y114518D01*
X266224D01*
Y113553D01*
X265983D01*
Y112346D01*
X265742D01*
Y111381D01*
X265500D01*
Y110415D01*
X265259D01*
Y109450D01*
X265018D01*
X265018Y108243D01*
X264776D01*
Y107519D01*
X264535D01*
Y106554D01*
X264294D01*
Y105347D01*
X264052Y105347D01*
Y104864D01*
X263570Y104864D01*
Y104623D01*
X263087D01*
Y104864D01*
X262846D01*
X262845Y105347D01*
X262604D01*
X262604Y106071D01*
X262363D01*
Y107278D01*
X262122D01*
Y108243D01*
X261880D01*
Y109208D01*
X261639D01*
Y110174D01*
X261397D01*
Y111139D01*
X261156D01*
Y111863D01*
X260915D01*
X260915Y112829D01*
X260673D01*
Y113794D01*
X260432D01*
Y114760D01*
X260191Y114760D01*
Y115484D01*
X259949Y115484D01*
Y116449D01*
X259708Y116449D01*
Y117414D01*
X259467Y117414D01*
Y118138D01*
X259225D01*
Y118862D01*
X258984D01*
Y119586D01*
X258743D01*
Y120310D01*
X258501D01*
Y120793D01*
X258260D01*
Y121276D01*
X258019Y121276D01*
Y121759D01*
X257777D01*
Y122000D01*
X257536D01*
Y122483D01*
X257295D01*
Y122724D01*
X257053D01*
Y122965D01*
X256812D01*
Y123207D01*
X256570D01*
X256570Y123448D01*
X256329D01*
X256329Y123689D01*
X256088D01*
X256088Y123931D01*
X255605D01*
X255605Y124172D01*
X255122D01*
Y124413D01*
X254640D01*
Y124655D01*
X254157D01*
Y124896D01*
X253433D01*
Y125138D01*
X252467D01*
Y125379D01*
X251019D01*
Y125620D01*
X249571D01*
Y125862D01*
X247640Y125862D01*
Y126103D01*
X245710D01*
Y126344D01*
X244020Y126344D01*
Y126586D01*
X242090D01*
Y126827D01*
X240159Y126827D01*
Y127068D01*
X238228D01*
Y127310D01*
X236297D01*
X236297Y127551D01*
X234125D01*
Y127792D01*
X231953Y127792D01*
Y128034D01*
X229539D01*
X229539Y128275D01*
X226884D01*
X226884Y128516D01*
X223023Y128516D01*
Y128758D01*
X219403D01*
Y128516D01*
X216748D01*
Y128275D01*
X214093D01*
X214093Y128034D01*
X212162Y128034D01*
Y127792D01*
X210714D01*
Y127551D01*
X209749D01*
X209749Y127310D01*
X209266D01*
Y127068D01*
X208783D01*
Y126827D01*
X208542D01*
Y126586D01*
X208301D01*
Y126103D01*
X208059Y126103D01*
Y125620D01*
X207818D01*
Y124896D01*
X207577D01*
Y124172D01*
X207335D01*
X207335Y123448D01*
X207094D01*
X207094Y122483D01*
X206852D01*
Y121517D01*
X206611D01*
Y120552D01*
X206370D01*
Y119828D01*
X206128D01*
Y119586D01*
X205887D01*
Y119345D01*
X205163D01*
X205163Y119586D01*
X204922D01*
Y120069D01*
X204680D01*
Y120793D01*
X204439Y120793D01*
Y121759D01*
X204198D01*
Y122483D01*
X203956D01*
Y123448D01*
X203715D01*
X203715Y124172D01*
X203474D01*
X203474Y124896D01*
X203232D01*
Y125620D01*
X202991D01*
Y126103D01*
X202750D01*
Y126344D01*
X202508D01*
Y126586D01*
X202267D01*
Y126827D01*
X202026D01*
Y127068D01*
X201543D01*
Y127310D01*
X200819D01*
Y127551D01*
X199853Y127551D01*
X199853Y127792D01*
X198405D01*
Y128034D01*
X196474Y128034D01*
Y128275D01*
X195026D01*
Y128516D01*
X193820D01*
X193820Y128758D01*
X192372D01*
Y128999D01*
X190923D01*
Y129241D01*
X190441D01*
Y129482D01*
X190199D01*
Y130206D01*
X190441D01*
Y130447D01*
X190923D01*
Y130689D01*
X192372D01*
Y130930D01*
X193820Y130930D01*
X193820Y131171D01*
X195509D01*
Y131413D01*
X196957Y131413D01*
Y131654D01*
X198405D01*
Y131895D01*
X200095D01*
Y132137D01*
X201060D01*
Y132378D01*
X201543D01*
Y132619D01*
X202026D01*
Y132861D01*
X202267D01*
Y133102D01*
X202750D01*
Y133585D01*
X202991D01*
Y133826D01*
X203232D01*
Y134550D01*
X203474D01*
X203474Y135274D01*
X203715D01*
X203715Y135757D01*
X203956D01*
Y136481D01*
X204198D01*
Y136964D01*
X204439D01*
Y137688D01*
X204680D01*
X204680Y138412D01*
X204922D01*
Y138894D01*
X205163D01*
X205163Y139136D01*
X205887D01*
Y138894D01*
X206128D01*
Y138412D01*
X206370D01*
Y137688D01*
X206611D01*
Y136722D01*
X206852D01*
Y135998D01*
X207094D01*
Y135515D01*
X207335D01*
Y134791D01*
X207577Y134791D01*
X207577Y134309D01*
X207818D01*
Y134067D01*
X208059D01*
Y133585D01*
X208301D01*
Y133343D01*
X208542D01*
Y133102D01*
X208783D01*
Y132861D01*
X209266D01*
Y132619D01*
X209507D01*
Y132378D01*
X210231D01*
Y132137D01*
X211197D01*
Y131895D01*
X212645Y131895D01*
Y131654D01*
X215058Y131654D01*
Y131413D01*
X216748D01*
Y131171D01*
X218679Y131171D01*
Y130930D01*
X225436D01*
X225436Y131171D01*
X227609D01*
Y131413D01*
X229781D01*
Y131654D01*
X231953Y131654D01*
Y131895D01*
X233884Y131895D01*
Y132137D01*
X235814D01*
Y132378D01*
X237745Y132378D01*
Y132619D01*
X239676D01*
Y132861D01*
X241607D01*
Y133102D01*
X243538D01*
Y133343D01*
X245468D01*
Y133585D01*
X247399D01*
Y133826D01*
X249089D01*
Y134067D01*
X250778D01*
Y134309D01*
X251985D01*
X251985Y134550D01*
X252950D01*
X252950Y134791D01*
X253674D01*
X253674Y135033D01*
X254398D01*
Y135274D01*
X255122D01*
Y135515D01*
X255605D01*
Y135757D01*
X256088D01*
Y135998D01*
X256329D01*
Y136240D01*
X256570D01*
Y136481D01*
X256812D01*
Y136722D01*
X257053D01*
Y136964D01*
X257295D01*
Y137205D01*
X257536D01*
Y137446D01*
X257777D01*
Y137688D01*
X258019D01*
Y138170D01*
X258260D01*
X258260Y138412D01*
X258501D01*
Y138894D01*
X258743D01*
Y139377D01*
X258984D01*
Y139860D01*
X259225D01*
Y140584D01*
X259467D01*
Y141067D01*
X259708D01*
Y141791D01*
X259949Y141791D01*
Y142515D01*
X260191Y142515D01*
Y143239D01*
X260432Y143239D01*
Y143963D01*
X260673D01*
Y144687D01*
X260915D01*
Y145411D01*
X261156Y145411D01*
Y146135D01*
X261397D01*
Y147100D01*
X261639D01*
Y147824D01*
X261880D01*
Y148548D01*
X262122D01*
Y149272D01*
X262363D01*
Y150238D01*
X262604D01*
Y150721D01*
X262845D01*
Y151203D01*
X263811D01*
Y150962D01*
D02*
G37*
G36*
X225919Y125862D02*
Y125620D01*
X226161D01*
Y125138D01*
X226402D01*
Y124655D01*
X226643D01*
X226643Y123931D01*
X226884D01*
X226884Y123207D01*
X227126D01*
Y122483D01*
X227367D01*
Y121759D01*
X227609D01*
Y121035D01*
X227850D01*
Y120552D01*
X228091D01*
Y120069D01*
X228333D01*
Y119828D01*
X228574D01*
Y119345D01*
X229057D01*
Y119104D01*
X229539D01*
X229539Y118862D01*
X230022D01*
X230022Y118621D01*
X230987D01*
Y118380D01*
X231953D01*
Y118138D01*
X233642D01*
Y117897D01*
X236056D01*
Y117656D01*
X238228D01*
Y117414D01*
X239917D01*
Y117173D01*
X241124D01*
X241124Y116932D01*
X241848D01*
X241848Y116690D01*
X242090D01*
X242090Y115966D01*
X241607Y115966D01*
Y115725D01*
X241124D01*
Y115484D01*
X239917D01*
Y115242D01*
X238711D01*
Y115001D01*
X237021Y115001D01*
Y114760D01*
X234849D01*
Y114518D01*
X233160D01*
Y114277D01*
X231470D01*
Y114036D01*
X230263D01*
Y113794D01*
X229539D01*
Y113553D01*
X229057D01*
Y113311D01*
X228815D01*
Y113070D01*
X228574D01*
Y112829D01*
X228333D01*
Y112587D01*
X228091D01*
Y111863D01*
X227850D01*
Y111139D01*
X227609D01*
Y110415D01*
X227367Y110415D01*
Y109450D01*
X227126D01*
X227126Y108726D01*
X226884D01*
X226884Y108002D01*
X226643D01*
Y107036D01*
X226402D01*
Y106312D01*
X226161Y106312D01*
Y105830D01*
X225919D01*
X225919Y105588D01*
X225195D01*
X225195Y105830D01*
X224954D01*
Y106554D01*
X224712D01*
Y107278D01*
X224471D01*
Y108243D01*
X224230D01*
Y109208D01*
X223988D01*
Y109932D01*
X223747D01*
Y110898D01*
X223506D01*
Y111381D01*
X223264D01*
Y112105D01*
X223023Y112105D01*
Y112587D01*
X222782Y112587D01*
Y112829D01*
X222540Y112829D01*
Y113070D01*
X222299Y113070D01*
Y113311D01*
X222057D01*
Y113553D01*
X221333D01*
Y113794D01*
X220368D01*
Y114036D01*
X218920D01*
Y114277D01*
X217472D01*
Y114518D01*
X216024D01*
Y114760D01*
X214576D01*
X214576Y115001D01*
X212645D01*
Y115242D01*
X206852D01*
Y115001D01*
X205163D01*
X205163Y114760D01*
X203474D01*
Y114518D01*
X202026D01*
Y114277D01*
X201301D01*
Y114036D01*
X200819D01*
Y113794D01*
X200577D01*
Y113553D01*
X200336D01*
Y113311D01*
X200095D01*
X200095Y113070D01*
X199853D01*
Y112587D01*
X199612D01*
Y111863D01*
X199371D01*
Y111139D01*
X199129D01*
Y110174D01*
X198888D01*
Y109450D01*
X198647D01*
Y108726D01*
X198405D01*
Y108243D01*
X198164D01*
Y107760D01*
X197923D01*
Y107519D01*
X197199D01*
Y107760D01*
X196957Y107760D01*
Y108484D01*
X196716Y108484D01*
Y109450D01*
X196474D01*
Y110415D01*
X196233Y110415D01*
Y111139D01*
X195992D01*
Y111863D01*
X195750D01*
Y112587D01*
X195509D01*
Y112829D01*
X195268D01*
Y113311D01*
X195026D01*
Y113553D01*
X194785D01*
Y113794D01*
X194302D01*
Y114036D01*
X194061D01*
Y114277D01*
X193337D01*
Y114518D01*
X192372D01*
Y114760D01*
X191165Y114760D01*
Y115001D01*
X189958Y115001D01*
Y115242D01*
X188269D01*
Y115484D01*
X186338Y115484D01*
Y115725D01*
X185372Y115725D01*
Y115966D01*
X184890D01*
Y116932D01*
X185372D01*
Y117173D01*
X186338D01*
Y117414D01*
X188027D01*
X188027Y117656D01*
X189234D01*
Y117897D01*
X190441D01*
Y118138D01*
X191406D01*
Y118380D01*
X192613D01*
Y118621D01*
X193578D01*
Y118862D01*
X194302D01*
X194302Y119104D01*
X194785D01*
Y119345D01*
X195026D01*
Y119586D01*
X195268D01*
Y119828D01*
X195509D01*
Y120310D01*
X195750D01*
Y120793D01*
X195992D01*
Y121517D01*
X196233Y121517D01*
Y122241D01*
X196474D01*
Y122724D01*
X196716D01*
Y123448D01*
X196957Y123448D01*
X196957Y123689D01*
X197199D01*
Y124172D01*
X197681D01*
Y124413D01*
X197923D01*
Y124172D01*
X198164D01*
Y123931D01*
X198405D01*
Y123448D01*
X198647D01*
Y122965D01*
X198888D01*
Y122241D01*
X199129D01*
X199129Y121517D01*
X199371D01*
Y121035D01*
X199612D01*
X199612Y120310D01*
X199853Y120310D01*
Y119828D01*
X200095D01*
X200095Y119586D01*
X200336D01*
X200336Y119345D01*
X200577D01*
X200577Y119104D01*
X201060D01*
X201060Y118862D01*
X201543D01*
Y118621D01*
X202026D01*
Y118380D01*
X203232D01*
Y118138D01*
X204439D01*
Y117897D01*
X205887D01*
Y117656D01*
X207577D01*
Y117414D01*
X212886Y117414D01*
Y117656D01*
X214817D01*
Y117897D01*
X216748D01*
Y118138D01*
X218679D01*
Y118380D01*
X219885D01*
Y118621D01*
X220851D01*
Y118862D01*
X221575D01*
Y119104D01*
X222057D01*
Y119345D01*
X222299D01*
Y119586D01*
X222540Y119586D01*
Y119828D01*
X222782Y119828D01*
Y120069D01*
X223023Y120069D01*
Y120552D01*
X223264Y120552D01*
Y121035D01*
X223506Y121035D01*
Y121517D01*
X223747Y121517D01*
Y122000D01*
X223988D01*
Y122724D01*
X224230D01*
Y123448D01*
X224471D01*
Y124172D01*
X224712D01*
Y124896D01*
X224954D01*
Y125379D01*
X225195D01*
Y125862D01*
X225919Y125862D01*
D02*
G37*
G36*
X246434Y111863D02*
X246675D01*
Y111381D01*
X246917D01*
Y110656D01*
X247158D01*
Y110174D01*
Y109932D01*
X247399D01*
Y109208D01*
X247640D01*
Y108484D01*
X247882D01*
Y107760D01*
X248123D01*
Y107278D01*
X248365D01*
Y106795D01*
X248606D01*
Y106312D01*
X248847Y106312D01*
Y106071D01*
X249089Y106071D01*
Y105830D01*
X249330Y105830D01*
Y105588D01*
X249571Y105588D01*
Y105347D01*
X250295Y105347D01*
Y105105D01*
X251019D01*
Y104864D01*
X251985D01*
X251985Y104623D01*
X253674D01*
Y104382D01*
X255605Y104382D01*
Y104140D01*
X258019Y104140D01*
X258018Y103899D01*
X259949D01*
Y103658D01*
X261156Y103657D01*
Y103416D01*
X262122D01*
Y103175D01*
X262363D01*
Y102933D01*
X262604D01*
Y102692D01*
X262363D01*
Y102451D01*
X262122D01*
Y102209D01*
X261639D01*
Y101968D01*
X260673D01*
Y101727D01*
X259225Y101727D01*
Y101485D01*
X257536D01*
X257536Y101244D01*
X255605D01*
X255605Y101003D01*
X253674D01*
Y100761D01*
X251985D01*
Y100520D01*
X250778Y100520D01*
Y100279D01*
X250054D01*
Y100037D01*
X249571D01*
Y99796D01*
X249089D01*
Y99555D01*
X248847Y99555D01*
Y99072D01*
X248606D01*
Y98589D01*
X248365D01*
Y97865D01*
X248123D01*
Y97141D01*
X247882D01*
Y96417D01*
X247640D01*
Y95693D01*
X247399D01*
Y94727D01*
X247158D01*
X247158Y94003D01*
X246917Y94003D01*
X246917Y93279D01*
X246675D01*
X246675Y92555D01*
X246434D01*
Y92314D01*
X246192D01*
Y92073D01*
X245710D01*
Y92314D01*
X245468D01*
Y92797D01*
X245227Y92797D01*
Y93521D01*
X244986Y93521D01*
Y94486D01*
X244744Y94486D01*
Y95451D01*
X244503D01*
Y96176D01*
X244262D01*
Y97141D01*
X244020D01*
Y97865D01*
X243779D01*
Y98348D01*
X243538D01*
Y98830D01*
X243296D01*
Y99313D01*
X243055D01*
Y99555D01*
X242814Y99555D01*
Y99796D01*
X242331D01*
Y100037D01*
X241848D01*
Y100279D01*
X240883Y100279D01*
Y100520D01*
X239435D01*
Y100761D01*
X237987D01*
Y101003D01*
X236297D01*
X236297Y101244D01*
X234849D01*
Y101485D01*
X232918D01*
Y101727D01*
X226402D01*
X226402Y101485D01*
X224712D01*
Y101244D01*
X223023D01*
Y101003D01*
X221575Y101003D01*
Y100761D01*
X220368Y100761D01*
Y100520D01*
X219644D01*
X219644Y100279D01*
X219161Y100279D01*
Y100037D01*
X218920Y100037D01*
Y99796D01*
X218679Y99796D01*
Y99313D01*
X218437D01*
Y98830D01*
X218196D01*
Y98348D01*
X217955D01*
Y97624D01*
X217713D01*
Y96900D01*
X217472D01*
Y96176D01*
X217230D01*
Y95451D01*
X216989D01*
Y94727D01*
X216748D01*
Y94486D01*
X215782D01*
Y94969D01*
X215541Y94969D01*
Y95451D01*
X215300D01*
Y96176D01*
X215058D01*
Y97141D01*
X214817D01*
Y97624D01*
X214576D01*
Y98348D01*
X214334D01*
Y98830D01*
X214093D01*
Y99313D01*
X213852D01*
Y99796D01*
X213369D01*
Y100037D01*
X213128D01*
Y100279D01*
X212886D01*
Y100520D01*
X212162D01*
Y100761D01*
X211438Y100761D01*
Y101003D01*
X209990D01*
X209990Y101244D01*
X208301D01*
Y101485D01*
X206611Y101485D01*
Y101727D01*
X204922D01*
X204922Y101968D01*
X203232D01*
Y102209D01*
X201543D01*
Y102451D01*
X201060D01*
Y103416D01*
X201543D01*
Y103657D01*
X202750D01*
Y103899D01*
X204680D01*
X204680Y104140D01*
X206611D01*
Y104382D01*
X208301D01*
Y104623D01*
X209990Y104623D01*
X209990Y104864D01*
X211438Y104864D01*
Y105105D01*
X212404D01*
Y105347D01*
X213128D01*
Y105588D01*
X213369D01*
Y105830D01*
X213852D01*
Y106071D01*
X214093Y106071D01*
Y106554D01*
X214334D01*
Y107036D01*
X214576D01*
X214576Y107760D01*
X214817D01*
X214817Y108484D01*
X215058D01*
Y109208D01*
X215300D01*
Y109932D01*
X215541D01*
Y110656D01*
X215782D01*
Y110898D01*
X216024D01*
Y111139D01*
X216989D01*
Y110656D01*
X217230D01*
Y109932D01*
X217472D01*
Y109208D01*
X217713D01*
Y108484D01*
X217955D01*
Y107760D01*
X218196D01*
Y107036D01*
X218437D01*
Y106554D01*
X218679D01*
Y106312D01*
X218920Y106312D01*
Y105830D01*
X219161Y105830D01*
Y105588D01*
X219403Y105588D01*
Y105347D01*
X219885D01*
X219885Y105105D01*
X220609D01*
Y104864D01*
X221816D01*
Y104623D01*
X223264D01*
Y104382D01*
X224712Y104382D01*
Y104140D01*
X226402Y104140D01*
Y103899D01*
X233642Y103899D01*
Y104140D01*
X235814D01*
Y104382D01*
X237745D01*
Y104623D01*
X239676Y104623D01*
Y104864D01*
X240641D01*
X240641Y105105D01*
X241607D01*
Y105347D01*
X242090Y105347D01*
Y105588D01*
X242572D01*
Y105830D01*
X242814Y105830D01*
Y106071D01*
X243055Y106071D01*
Y106312D01*
X243296D01*
Y106554D01*
X243538D01*
Y107036D01*
X243779D01*
Y107519D01*
X244020D01*
Y108002D01*
X244262D01*
Y108484D01*
X244503D01*
Y109208D01*
X244744D01*
Y109932D01*
X244986D01*
Y110656D01*
X245227D01*
Y111381D01*
X245468D01*
Y111863D01*
X245710D01*
Y112105D01*
X246434D01*
Y111863D01*
D02*
G37*
%LPC*%
G36*
X229781Y65283D02*
X229539D01*
Y65041D01*
X229298D01*
Y64559D01*
X229057D01*
Y64076D01*
X228815D01*
Y63593D01*
X228574D01*
Y63111D01*
X228333D01*
Y62628D01*
X228091D01*
Y62145D01*
X227850D01*
Y61663D01*
X227609D01*
Y61180D01*
X227367D01*
Y60697D01*
X227126D01*
Y60215D01*
X226884D01*
Y59732D01*
X226643D01*
Y59490D01*
X226402D01*
Y59008D01*
X226161D01*
Y58525D01*
X225919D01*
Y58042D01*
X225678D01*
Y57560D01*
X225436D01*
Y57077D01*
X225195D01*
Y56594D01*
X234125D01*
Y57077D01*
X233884D01*
Y57560D01*
X233642D01*
Y58042D01*
X233401D01*
Y58284D01*
X233160D01*
Y58766D01*
X232918D01*
Y59249D01*
X232677D01*
Y59732D01*
X232435D01*
Y60215D01*
X232194D01*
Y60697D01*
X231953D01*
Y61180D01*
X231712D01*
Y61663D01*
X231470D01*
Y62145D01*
X231229D01*
Y62628D01*
X230987D01*
Y62869D01*
X230746D01*
Y63352D01*
X230505D01*
Y63835D01*
X230263D01*
Y64317D01*
X230022D01*
Y64800D01*
X229781D01*
Y65283D01*
D02*
G37*
G36*
X268879Y66490D02*
X253916D01*
Y66248D01*
X253674D01*
Y66007D01*
X253433D01*
Y65766D01*
X253192D01*
Y65041D01*
X252950D01*
Y63835D01*
X253192D01*
Y63111D01*
X253433D01*
Y62869D01*
Y62628D01*
X253674D01*
Y62387D01*
X254157D01*
Y62145D01*
X268879D01*
Y66490D01*
D02*
G37*
G36*
X268638Y57560D02*
X266466D01*
Y57318D01*
X265742D01*
Y57560D01*
X265500D01*
Y57318D01*
X265018D01*
Y57560D01*
X264776D01*
Y57318D01*
X264294D01*
Y57560D01*
X264052D01*
Y57318D01*
X263570D01*
Y57560D01*
X263328D01*
Y57318D01*
X262845D01*
Y57560D01*
X259225D01*
Y57318D01*
X258501D01*
Y57560D01*
X258260D01*
Y57318D01*
X257777D01*
Y57560D01*
X257536D01*
Y57318D01*
X257053D01*
Y57560D01*
X256812D01*
Y57318D01*
X256329D01*
Y57560D01*
X256088D01*
Y57318D01*
X255605D01*
Y57560D01*
X254398D01*
Y57318D01*
X253674D01*
Y57077D01*
X253192D01*
Y56836D01*
X252950D01*
Y56353D01*
X252709D01*
Y55629D01*
X252467D01*
Y54181D01*
X252709D01*
Y53457D01*
X252950D01*
Y52974D01*
X253192D01*
Y52733D01*
X253433D01*
Y52491D01*
X253916D01*
Y52250D01*
X268879D01*
Y57318D01*
X268638D01*
Y57560D01*
D02*
G37*
G36*
X146756Y49837D02*
X146515D01*
Y49595D01*
X146032D01*
Y49354D01*
X146274D01*
Y49113D01*
X146756D01*
Y49595D01*
Y49837D01*
D02*
G37*
G36*
X204198Y66490D02*
X190199D01*
Y66248D01*
X189475D01*
Y66007D01*
X189234D01*
Y65766D01*
X188993D01*
Y65524D01*
X188751D01*
Y65283D01*
X188510D01*
Y63111D01*
X188751D01*
Y62628D01*
X188993D01*
Y62387D01*
X189234D01*
Y62145D01*
X189717D01*
Y61904D01*
X204198D01*
Y66490D01*
D02*
G37*
%LPD*%
D10*
X353500Y155000D02*
G03*
X353500Y155000I-1250J0D01*
G01*
D11*
X416750Y137500D02*
X432450D01*
X357350D02*
X391250D01*
X357350D02*
Y262500D01*
X416750D02*
X432450D01*
X357350D02*
X391250D01*
X432450Y251750D02*
Y262500D01*
Y137500D02*
Y148250D01*
M02*
