G04*
G04 #@! TF.GenerationSoftware,Altium Limited,Altium Designer,24.4.1 (13)*
G04*
G04 Layer_Color=8421504*
%FSLAX44Y44*%
%MOMM*%
G71*
G04*
G04 #@! TF.SameCoordinates,D7575A33-01EC-4171-9A11-0C774D8D2981*
G04*
G04*
G04 #@! TF.FilePolarity,Positive*
G04*
G01*
G75*
%ADD21R,1.1500X1.0500*%
%ADD22R,1.5000X1.5500*%
%ADD23O,0.6000X1.9500*%
%ADD24R,0.5500X0.5500*%
%ADD25R,0.5200X0.5200*%
%ADD26R,0.7565X0.8621*%
%ADD27R,0.5200X0.5200*%
%ADD28C,0.9900*%
%ADD29C,0.9698*%
%ADD30R,0.9779X0.3048*%
%ADD31R,1.5000X0.5500*%
%ADD32R,0.8000X0.5000*%
%ADD33R,0.9500X0.8000*%
%ADD34R,3.5700X3.1000*%
%ADD35R,0.5500X0.5500*%
%ADD36C,1.7397*%
%ADD37R,0.5800X1.7300*%
%ADD38R,5.7000X1.6000*%
%ADD39R,0.7000X1.0000*%
G04:AMPARAMS|DCode=40|XSize=0.2125mm|YSize=1.3552mm|CornerRadius=0.1062mm|HoleSize=0mm|Usage=FLASHONLY|Rotation=0.000|XOffset=0mm|YOffset=0mm|HoleType=Round|Shape=RoundedRectangle|*
%AMROUNDEDRECTD40*
21,1,0.2125,1.1428,0,0,0.0*
21,1,0.0000,1.3552,0,0,0.0*
1,1,0.2125,0.0000,-0.5714*
1,1,0.2125,0.0000,-0.5714*
1,1,0.2125,0.0000,0.5714*
1,1,0.2125,0.0000,0.5714*
%
%ADD40ROUNDEDRECTD40*%
G04:AMPARAMS|DCode=41|XSize=1.3552mm|YSize=0.2125mm|CornerRadius=0.1062mm|HoleSize=0mm|Usage=FLASHONLY|Rotation=0.000|XOffset=0mm|YOffset=0mm|HoleType=Round|Shape=RoundedRectangle|*
%AMROUNDEDRECTD41*
21,1,1.3552,0.0000,0,0,0.0*
21,1,1.1428,0.2125,0,0,0.0*
1,1,0.2125,0.5714,0.0000*
1,1,0.2125,-0.5714,0.0000*
1,1,0.2125,-0.5714,0.0000*
1,1,0.2125,0.5714,0.0000*
%
%ADD41ROUNDEDRECTD41*%
%ADD42R,1.3552X0.2125*%
%ADD43R,0.7500X0.8500*%
%ADD44R,0.7000X0.8500*%
%ADD45R,0.8000X0.4000*%
%ADD46R,1.0500X1.3000*%
%ADD47R,0.5750X1.1400*%
%ADD48R,0.5000X0.3500*%
%ADD49R,3.1500X1.9600*%
G36*
X135000Y814250D02*
X128000D01*
X124000Y819250D01*
Y827750D01*
X135000D01*
Y814250D01*
D02*
G37*
G36*
X94000Y819250D02*
X90000Y814250D01*
X83000D01*
Y827750D01*
X94000D01*
Y819250D01*
D02*
G37*
G36*
X135000Y791750D02*
X124000D01*
Y800250D01*
X128000Y805250D01*
X135000D01*
Y791750D01*
D02*
G37*
G36*
X94000Y800250D02*
Y791750D01*
X83000D01*
Y805250D01*
X90000D01*
X94000Y800250D01*
D02*
G37*
G36*
X724150Y718500D02*
X735500D01*
Y718000D01*
X738500D01*
Y714000D01*
X735500D01*
Y711500D01*
X738500D01*
Y707500D01*
X735500D01*
Y705000D01*
X738500D01*
Y701000D01*
X735500D01*
Y698500D01*
X738500D01*
Y694500D01*
X735500D01*
Y694000D01*
X724150D01*
Y690200D01*
X719850D01*
Y694000D01*
X715700D01*
Y718500D01*
X719850D01*
Y722300D01*
X724150D01*
Y718500D01*
D02*
G37*
G36*
X680150D02*
X691500D01*
Y718000D01*
X694500D01*
Y714000D01*
X691500D01*
Y711500D01*
X694500D01*
Y707500D01*
X691500D01*
Y705000D01*
X694500D01*
Y701000D01*
X691500D01*
Y698500D01*
X694500D01*
Y694500D01*
X691500D01*
Y694000D01*
X680150D01*
Y690200D01*
X675850D01*
Y694000D01*
X671700D01*
Y718500D01*
X675850D01*
Y722300D01*
X680150D01*
Y718500D01*
D02*
G37*
G36*
X635900D02*
X640050D01*
Y694000D01*
X635900D01*
Y690200D01*
X631600D01*
Y694000D01*
X620250D01*
Y694500D01*
X617250D01*
Y698500D01*
X620250D01*
Y701000D01*
X617250D01*
Y705000D01*
X620250D01*
Y707500D01*
X617250D01*
Y711500D01*
X620250D01*
Y714000D01*
X617250D01*
Y718000D01*
X620250D01*
Y718500D01*
X631600D01*
Y722300D01*
X635900D01*
Y718500D01*
D02*
G37*
G36*
X527915Y674350D02*
X522050D01*
Y659350D01*
X514450D01*
Y674350D01*
X508585D01*
Y704650D01*
X527915D01*
Y674350D01*
D02*
G37*
G36*
X724150Y678750D02*
X735500D01*
Y678250D01*
X738500D01*
Y674250D01*
X735500D01*
Y671750D01*
X738500D01*
Y667750D01*
X735500D01*
Y665250D01*
X738500D01*
Y661250D01*
X735500D01*
Y658750D01*
X738500D01*
Y654750D01*
X735500D01*
Y654250D01*
X724150D01*
Y650450D01*
X719850D01*
Y654250D01*
X715700D01*
Y678750D01*
X719850D01*
Y682550D01*
X724150D01*
Y678750D01*
D02*
G37*
G36*
X680150D02*
X691500D01*
Y678250D01*
X694500D01*
Y674250D01*
X691500D01*
Y671750D01*
X694500D01*
Y667750D01*
X691500D01*
Y665250D01*
X694500D01*
Y661250D01*
X691500D01*
Y658750D01*
X694500D01*
Y654750D01*
X691500D01*
Y654250D01*
X680150D01*
Y650450D01*
X675850D01*
Y654250D01*
X671700D01*
Y678750D01*
X675850D01*
Y682550D01*
X680150D01*
Y678750D01*
D02*
G37*
G36*
X635900D02*
X640050D01*
Y654250D01*
X635900D01*
Y650450D01*
X631600D01*
Y654250D01*
X620250D01*
Y654750D01*
X617250D01*
Y658750D01*
X620250D01*
Y661250D01*
X617250D01*
Y665250D01*
X620250D01*
Y667750D01*
X617250D01*
Y671750D01*
X620250D01*
Y674250D01*
X617250D01*
Y678250D01*
X620250D01*
Y678750D01*
X631600D01*
Y682550D01*
X635900D01*
Y678750D01*
D02*
G37*
G36*
X738437Y589500D02*
X749787D01*
Y589000D01*
X752787D01*
Y585000D01*
X749787D01*
Y582500D01*
X752787D01*
Y578500D01*
X749787D01*
Y576000D01*
X752787D01*
Y572000D01*
X749787D01*
Y569500D01*
X752787D01*
Y565500D01*
X749787D01*
Y565000D01*
X738437D01*
Y561200D01*
X734137D01*
Y565000D01*
X729987D01*
Y589500D01*
X734137D01*
Y593300D01*
X738437D01*
Y589500D01*
D02*
G37*
G36*
X694087D02*
X705437D01*
Y589000D01*
X708437D01*
Y585000D01*
X705437D01*
Y582500D01*
X708437D01*
Y578500D01*
X705437D01*
Y576000D01*
X708437D01*
Y572000D01*
X705437D01*
Y569500D01*
X708437D01*
Y565500D01*
X705437D01*
Y565000D01*
X694087D01*
Y561200D01*
X689787D01*
Y565000D01*
X685637D01*
Y589500D01*
X689787D01*
Y593300D01*
X694087D01*
Y589500D01*
D02*
G37*
G36*
X649687D02*
X653837D01*
Y565000D01*
X649687D01*
Y561200D01*
X645387D01*
Y565000D01*
X634037D01*
Y565500D01*
X631037D01*
Y569500D01*
X634037D01*
Y572000D01*
X631037D01*
Y576000D01*
X634037D01*
Y578500D01*
X631037D01*
Y582500D01*
X634037D01*
Y585000D01*
X631037D01*
Y589000D01*
X634037D01*
Y589500D01*
X645387D01*
Y593300D01*
X649687D01*
Y589500D01*
D02*
G37*
G36*
X738337Y549750D02*
X749687D01*
Y549250D01*
X752687D01*
Y545250D01*
X749687D01*
Y542750D01*
X752687D01*
Y538750D01*
X749687D01*
Y536250D01*
X752687D01*
Y532250D01*
X749687D01*
Y529750D01*
X752687D01*
Y525750D01*
X749687D01*
Y525250D01*
X738337D01*
Y521450D01*
X734037D01*
Y525250D01*
X729887D01*
Y549750D01*
X734037D01*
Y553550D01*
X738337D01*
Y549750D01*
D02*
G37*
G36*
X694187D02*
X705537D01*
Y549250D01*
X708537D01*
Y545250D01*
X705537D01*
Y542750D01*
X708537D01*
Y538750D01*
X705537D01*
Y536250D01*
X708537D01*
Y532250D01*
X705537D01*
Y529750D01*
X708537D01*
Y525750D01*
X705537D01*
Y525250D01*
X694187D01*
Y521450D01*
X689887D01*
Y525250D01*
X685737D01*
Y549750D01*
X689887D01*
Y553550D01*
X694187D01*
Y549750D01*
D02*
G37*
G36*
X649687D02*
X653837D01*
Y525250D01*
X649687D01*
Y521450D01*
X645387D01*
Y525250D01*
X634037D01*
Y525750D01*
X631037D01*
Y529750D01*
X634037D01*
Y532250D01*
X631037D01*
Y536250D01*
X634037D01*
Y538750D01*
X631037D01*
Y542750D01*
X634037D01*
Y545250D01*
X631037D01*
Y549250D01*
X634037D01*
Y549750D01*
X645387D01*
Y553550D01*
X649687D01*
Y549750D01*
D02*
G37*
D21*
X701630Y633270D02*
D03*
X718630D02*
D03*
X95500Y724250D02*
D03*
X112500D02*
D03*
D22*
X605981Y624500D02*
D03*
X623981D02*
D03*
X506000Y644000D02*
D03*
X524000D02*
D03*
D23*
X58100Y343250D02*
D03*
X70800D02*
D03*
X83500D02*
D03*
X96200D02*
D03*
X108900D02*
D03*
X121600D02*
D03*
X134300D02*
D03*
X147000D02*
D03*
X159700D02*
D03*
X172400D02*
D03*
X58100Y434250D02*
D03*
X70800D02*
D03*
X83500D02*
D03*
X96200D02*
D03*
X108900D02*
D03*
X121600D02*
D03*
X134300D02*
D03*
X147000D02*
D03*
X159700D02*
D03*
X172400D02*
D03*
X405650Y434250D02*
D03*
X392950D02*
D03*
X380250D02*
D03*
X367550D02*
D03*
X354850D02*
D03*
X342150D02*
D03*
X329450D02*
D03*
X316750D02*
D03*
X304050D02*
D03*
X291350D02*
D03*
X405650Y343250D02*
D03*
X392950D02*
D03*
X380250D02*
D03*
X367550D02*
D03*
X354850D02*
D03*
X342150D02*
D03*
X329450D02*
D03*
X316750D02*
D03*
X304050D02*
D03*
X291350D02*
D03*
X637650Y434250D02*
D03*
X624950D02*
D03*
X612250D02*
D03*
X599550D02*
D03*
X586850D02*
D03*
X574150D02*
D03*
X561450D02*
D03*
X548750D02*
D03*
X536050D02*
D03*
X523350D02*
D03*
X637650Y343250D02*
D03*
X624950D02*
D03*
X612250D02*
D03*
X599550D02*
D03*
X586850D02*
D03*
X574150D02*
D03*
X561450D02*
D03*
X548750D02*
D03*
X536050D02*
D03*
X523350D02*
D03*
D24*
X178059Y777000D02*
D03*
X187059D02*
D03*
D25*
X95526Y749250D02*
D03*
X87526D02*
D03*
X120300D02*
D03*
X112300D02*
D03*
D26*
X98035Y764250D02*
D03*
X85017D02*
D03*
X122809Y764294D02*
D03*
X109791D02*
D03*
D27*
X103900Y777000D02*
D03*
Y785000D02*
D03*
X552500Y636750D02*
D03*
Y644750D02*
D03*
X539750D02*
D03*
Y636750D02*
D03*
D28*
X88500Y797250D02*
D03*
X129500D02*
D03*
D29*
Y821000D02*
D03*
X88500D02*
D03*
D30*
X198879Y794998D02*
D03*
Y799999D02*
D03*
Y805000D02*
D03*
Y810001D02*
D03*
Y815003D02*
D03*
Y820004D02*
D03*
Y825005D02*
D03*
X168018D02*
D03*
Y820004D02*
D03*
Y815003D02*
D03*
Y810001D02*
D03*
Y805000D02*
D03*
Y799999D02*
D03*
Y794998D02*
D03*
D31*
X158250Y896250D02*
D03*
Y863750D02*
D03*
X109000Y895500D02*
D03*
Y863000D02*
D03*
X207500Y863750D02*
D03*
Y896250D02*
D03*
D32*
X254750Y403500D02*
D03*
X270750D02*
D03*
X254750Y394500D02*
D03*
X270750D02*
D03*
X441750Y356750D02*
D03*
X425750D02*
D03*
X441750Y365750D02*
D03*
X425750D02*
D03*
X254750Y365751D02*
D03*
X270750D02*
D03*
X254750Y356750D02*
D03*
X270750D02*
D03*
X441750Y394499D02*
D03*
X425750D02*
D03*
X441750Y403500D02*
D03*
X425750D02*
D03*
X21500Y403500D02*
D03*
X37500D02*
D03*
X21500Y394500D02*
D03*
X37500D02*
D03*
X208500Y394500D02*
D03*
X192500D02*
D03*
X208500Y403500D02*
D03*
X192500D02*
D03*
X21500Y365750D02*
D03*
X37500D02*
D03*
X21500Y356750D02*
D03*
X37500D02*
D03*
X208500Y356750D02*
D03*
X192500D02*
D03*
X208500Y365750D02*
D03*
X192500D02*
D03*
X673750Y394500D02*
D03*
X657750D02*
D03*
X673750Y403500D02*
D03*
X657750D02*
D03*
X486750Y365750D02*
D03*
X502750D02*
D03*
X486750Y356750D02*
D03*
X502750D02*
D03*
X673750Y356750D02*
D03*
X657750D02*
D03*
X673750Y365750D02*
D03*
X657750D02*
D03*
X486750Y403500D02*
D03*
X502750D02*
D03*
X486750Y394500D02*
D03*
X502750D02*
D03*
X40000Y755000D02*
D03*
X56000D02*
D03*
X40000Y746000D02*
D03*
X56000D02*
D03*
X56000Y785250D02*
D03*
X40000D02*
D03*
X56000Y794250D02*
D03*
X40000D02*
D03*
X56000Y825500D02*
D03*
X40000D02*
D03*
X56000Y834500D02*
D03*
X40000D02*
D03*
D33*
X304250Y463750D02*
D03*
Y450250D02*
D03*
X355000Y463750D02*
D03*
Y450250D02*
D03*
X329250Y463750D02*
D03*
Y450250D02*
D03*
X380000Y463750D02*
D03*
Y450250D02*
D03*
X146750Y463750D02*
D03*
Y450250D02*
D03*
X96000Y463750D02*
D03*
Y450250D02*
D03*
X121750Y463750D02*
D03*
Y450250D02*
D03*
X71000Y463750D02*
D03*
Y450250D02*
D03*
X612000D02*
D03*
Y463750D02*
D03*
X561250Y450250D02*
D03*
Y463750D02*
D03*
X587000Y450250D02*
D03*
Y463750D02*
D03*
X536250Y450250D02*
D03*
Y463750D02*
D03*
D34*
X270000Y286249D02*
D03*
Y224249D02*
D03*
X322250Y286249D02*
D03*
Y224249D02*
D03*
X374750Y286249D02*
D03*
Y224249D02*
D03*
X427500Y286249D02*
D03*
Y224249D02*
D03*
X194250Y286250D02*
D03*
Y224250D02*
D03*
X141500Y286250D02*
D03*
Y224250D02*
D03*
X89000Y286250D02*
D03*
Y224250D02*
D03*
X36750Y286250D02*
D03*
Y224250D02*
D03*
X659500Y286250D02*
D03*
Y224250D02*
D03*
X606750Y286250D02*
D03*
Y224250D02*
D03*
X554250Y286250D02*
D03*
Y224250D02*
D03*
X502000Y286250D02*
D03*
Y224250D02*
D03*
D35*
X316750Y464000D02*
D03*
Y455000D02*
D03*
X367500Y464000D02*
D03*
Y455000D02*
D03*
X134250Y464000D02*
D03*
Y455000D02*
D03*
X83500Y464000D02*
D03*
Y455000D02*
D03*
X548750D02*
D03*
Y464000D02*
D03*
X599500Y455000D02*
D03*
Y464000D02*
D03*
D36*
X518250Y685810D02*
D03*
D37*
X533250Y668000D02*
D03*
X503250D02*
D03*
D38*
X576925Y714296D02*
D03*
Y667296D02*
D03*
D39*
X567425Y642541D02*
D03*
X576925D02*
D03*
X586424D02*
D03*
Y620551D02*
D03*
X576925D02*
D03*
X567425D02*
D03*
D40*
X260250Y712755D02*
D03*
X265250D02*
D03*
X270250D02*
D03*
X275250D02*
D03*
X280250D02*
D03*
X285250D02*
D03*
X290250D02*
D03*
X295250D02*
D03*
X300250D02*
D03*
X305250D02*
D03*
X310250D02*
D03*
X315250D02*
D03*
X320250D02*
D03*
X325250D02*
D03*
X330250D02*
D03*
X335250D02*
D03*
X340250D02*
D03*
X345250D02*
D03*
X350250D02*
D03*
X355250D02*
D03*
X360250D02*
D03*
X365250D02*
D03*
X370250D02*
D03*
X375250D02*
D03*
X380250D02*
D03*
Y561245D02*
D03*
X375250D02*
D03*
X370250D02*
D03*
X365250D02*
D03*
X360250D02*
D03*
X355250D02*
D03*
X350250D02*
D03*
X345250D02*
D03*
X340250D02*
D03*
X335250D02*
D03*
X330250D02*
D03*
X325250D02*
D03*
X320250D02*
D03*
X315250D02*
D03*
X310250D02*
D03*
X305250D02*
D03*
X300250D02*
D03*
X295250D02*
D03*
X290250D02*
D03*
X285250D02*
D03*
X280250D02*
D03*
X275250D02*
D03*
X270250D02*
D03*
X265250D02*
D03*
X260250D02*
D03*
D41*
X396005Y697000D02*
D03*
Y692000D02*
D03*
Y687000D02*
D03*
Y682000D02*
D03*
Y677000D02*
D03*
Y672000D02*
D03*
Y667000D02*
D03*
Y662000D02*
D03*
Y657000D02*
D03*
Y652000D02*
D03*
Y647000D02*
D03*
Y642000D02*
D03*
Y637000D02*
D03*
Y632000D02*
D03*
Y627000D02*
D03*
Y622000D02*
D03*
Y617000D02*
D03*
Y612000D02*
D03*
Y607000D02*
D03*
Y602000D02*
D03*
Y597000D02*
D03*
Y592000D02*
D03*
Y587000D02*
D03*
Y582000D02*
D03*
Y577000D02*
D03*
X244495D02*
D03*
Y582000D02*
D03*
Y587000D02*
D03*
Y592000D02*
D03*
Y597000D02*
D03*
Y602000D02*
D03*
Y607000D02*
D03*
Y612000D02*
D03*
Y617000D02*
D03*
Y622000D02*
D03*
Y627000D02*
D03*
Y632000D02*
D03*
Y637000D02*
D03*
Y642000D02*
D03*
Y647000D02*
D03*
Y652000D02*
D03*
Y657000D02*
D03*
Y662000D02*
D03*
Y667000D02*
D03*
Y672000D02*
D03*
Y677000D02*
D03*
Y682000D02*
D03*
Y687000D02*
D03*
Y692000D02*
D03*
D42*
Y697000D02*
D03*
D43*
X704750Y465000D02*
D03*
X717750D02*
D03*
D44*
X705000Y476250D02*
D03*
X717500D02*
D03*
D45*
X749861Y463495D02*
D03*
Y456996D02*
D03*
Y450496D02*
D03*
X730861D02*
D03*
Y456996D02*
D03*
Y463495D02*
D03*
D46*
X170750Y755166D02*
D03*
Y732167D02*
D03*
X188250D02*
D03*
Y755166D02*
D03*
D47*
X226375Y743750D02*
D03*
X218125D02*
D03*
D48*
X722287Y567500D02*
D03*
Y574000D02*
D03*
Y580500D02*
D03*
Y587000D02*
D03*
X677937Y567500D02*
D03*
Y574000D02*
D03*
Y580500D02*
D03*
Y587000D02*
D03*
X661537D02*
D03*
Y580500D02*
D03*
Y574000D02*
D03*
Y567500D02*
D03*
X722187Y527750D02*
D03*
Y534250D02*
D03*
Y540750D02*
D03*
Y547250D02*
D03*
X678037Y527750D02*
D03*
Y534250D02*
D03*
Y540750D02*
D03*
Y547250D02*
D03*
X661537D02*
D03*
Y540750D02*
D03*
Y534250D02*
D03*
Y527750D02*
D03*
X708000Y656750D02*
D03*
Y663250D02*
D03*
Y669750D02*
D03*
Y676250D02*
D03*
X664000Y696500D02*
D03*
Y703000D02*
D03*
Y709500D02*
D03*
Y716000D02*
D03*
X647750D02*
D03*
Y709500D02*
D03*
Y703000D02*
D03*
Y696500D02*
D03*
X708000D02*
D03*
Y703000D02*
D03*
Y709500D02*
D03*
Y716000D02*
D03*
X664000Y656750D02*
D03*
Y663250D02*
D03*
Y669750D02*
D03*
Y676250D02*
D03*
X647750D02*
D03*
Y669750D02*
D03*
Y663250D02*
D03*
Y656750D02*
D03*
D49*
X776000Y532700D02*
D03*
Y581800D02*
D03*
X762250Y661855D02*
D03*
Y710955D02*
D03*
M02*
