G04*
G04 #@! TF.GenerationSoftware,Altium Limited,Altium Designer,24.4.1 (13)*
G04*
G04 Layer_Color=128*
%FSLAX44Y44*%
%MOMM*%
G71*
G04*
G04 #@! TF.SameCoordinates,4A672E86-6C9B-4248-A0BA-008E6FD5887C*
G04*
G04*
G04 #@! TF.FilePolarity,Positive*
G04*
G01*
G75*
%ADD11C,0.1270*%
D11*
X97750Y151750D02*
X107750D01*
X102750Y146750D02*
Y156750D01*
X247750Y151750D02*
X257750D01*
X252750Y146750D02*
Y156750D01*
X359550Y137300D02*
X369750D01*
X364650Y132200D02*
Y142400D01*
X359550Y162700D02*
X369750D01*
X364650Y157600D02*
Y167800D01*
X384950Y137300D02*
X395150D01*
X390050Y132200D02*
Y142400D01*
X410350Y137300D02*
X420550D01*
X415450Y132200D02*
Y142400D01*
X384950Y162700D02*
X395150D01*
X390050Y157600D02*
Y167800D01*
X410350Y162700D02*
X420550D01*
X415450Y157600D02*
Y167800D01*
X435750Y137300D02*
X445950D01*
X440850Y132200D02*
Y142400D01*
X435750Y162700D02*
X445950D01*
X440850Y157600D02*
Y167800D01*
X57000Y347250D02*
X87000D01*
X72000Y332250D02*
Y362250D01*
X57000Y431250D02*
X87000D01*
X72000Y416250D02*
Y446250D01*
X136000Y347250D02*
X154000D01*
X145000Y338250D02*
Y356250D01*
X136000Y389250D02*
X154000D01*
X145000Y380250D02*
Y398250D01*
X136000Y431250D02*
X154000D01*
X145000Y422250D02*
Y440250D01*
X178000Y347250D02*
X196000D01*
X187000Y338250D02*
Y356250D01*
X178000Y389250D02*
X196000D01*
X187000Y380250D02*
Y398250D01*
X178000Y431250D02*
X196000D01*
X187000Y422250D02*
Y440250D01*
X554000Y78000D02*
X572000D01*
X563000Y69000D02*
Y87000D01*
X554000Y120000D02*
X572000D01*
X563000Y111000D02*
Y129000D01*
X554000Y162000D02*
X572000D01*
X563000Y153000D02*
Y171000D01*
X596000Y78000D02*
X614000D01*
X605000Y69000D02*
Y87000D01*
X596000Y120000D02*
X614000D01*
X605000Y111000D02*
Y129000D01*
X596000Y162000D02*
X614000D01*
X605000Y153000D02*
Y171000D01*
X663000Y78000D02*
X693000D01*
X678000Y63000D02*
Y93000D01*
X663000Y162000D02*
X693000D01*
X678000Y147000D02*
Y177000D01*
X359600Y13350D02*
X369800D01*
X364700Y8250D02*
Y18450D01*
X359600Y38750D02*
X369800D01*
X364700Y33650D02*
Y43850D01*
X385000Y13350D02*
X395200D01*
X390100Y8250D02*
Y18450D01*
X410400Y13350D02*
X420600D01*
X415500Y8250D02*
Y18450D01*
X385000Y38750D02*
X395200D01*
X390100Y33650D02*
Y43850D01*
X410400Y38750D02*
X420600D01*
X415500Y33650D02*
Y43850D01*
X435800Y13350D02*
X446000D01*
X440900Y8250D02*
Y18450D01*
X435800Y38750D02*
X446000D01*
X440900Y33650D02*
Y43850D01*
X735000Y464250D02*
X738000D01*
X736500Y462750D02*
Y465750D01*
X720000Y434250D02*
X723000D01*
X721500Y432750D02*
Y435750D01*
X735000Y404250D02*
X738000D01*
X736500Y402750D02*
Y405750D01*
X720000Y374250D02*
X723000D01*
X721500Y372750D02*
Y375750D01*
X735000Y344250D02*
X738000D01*
X736500Y342750D02*
Y345750D01*
X720000Y314250D02*
X723000D01*
X721500Y312750D02*
Y315750D01*
X735000Y284250D02*
X738000D01*
X736500Y282750D02*
Y285750D01*
X720000Y254250D02*
X723000D01*
X721500Y252750D02*
Y255750D01*
X735000Y224250D02*
X738000D01*
X736500Y222750D02*
Y225750D01*
X720000Y194250D02*
X723000D01*
X721500Y192750D02*
Y195750D01*
X735000Y164250D02*
X738000D01*
X736500Y162750D02*
Y165750D01*
X720000Y134250D02*
X723000D01*
X721500Y132750D02*
Y135750D01*
X735000Y104250D02*
X738000D01*
X736500Y102750D02*
Y105750D01*
X720000Y74250D02*
X723000D01*
X721500Y72750D02*
Y75750D01*
X690000Y494250D02*
X693000D01*
X691500Y492750D02*
Y495750D01*
X705000Y464250D02*
X708000D01*
X706500Y462750D02*
Y465750D01*
X705000Y404250D02*
X708000D01*
X706500Y402750D02*
Y405750D01*
X690000Y374250D02*
X693000D01*
X691500Y372750D02*
Y375750D01*
X705000Y344250D02*
X708000D01*
X706500Y342750D02*
Y345750D01*
X690000Y314250D02*
X693000D01*
X691500Y312750D02*
Y315750D01*
X690000Y254250D02*
X693000D01*
X691500Y252750D02*
Y255750D01*
X690000Y134250D02*
X693000D01*
X691500Y132750D02*
Y135750D01*
X675000Y524250D02*
X678000D01*
X676500Y522750D02*
Y525750D01*
X660000Y494250D02*
X663000D01*
X661500Y492750D02*
Y495750D01*
X675000Y464250D02*
X678000D01*
X676500Y462750D02*
Y465750D01*
X660000Y434250D02*
X663000D01*
X661500Y432750D02*
Y435750D01*
X675000Y404250D02*
X678000D01*
X676500Y402750D02*
Y405750D01*
X675000Y344250D02*
X678000D01*
X676500Y342750D02*
Y345750D01*
X660000Y254250D02*
X663000D01*
X661500Y252750D02*
Y255750D01*
X675000Y224250D02*
X678000D01*
X676500Y222750D02*
Y225750D01*
X660000Y194250D02*
X663000D01*
X661500Y192750D02*
Y195750D01*
X675000Y104250D02*
X678000D01*
X676500Y102750D02*
Y105750D01*
X675000Y44250D02*
X678000D01*
X676500Y42750D02*
Y45750D01*
X645000Y524250D02*
X648000D01*
X646500Y522750D02*
Y525750D01*
X645000Y464250D02*
X648000D01*
X646500Y462750D02*
Y465750D01*
X630000Y314250D02*
X633000D01*
X631500Y312750D02*
Y315750D01*
X630000Y194250D02*
X633000D01*
X631500Y192750D02*
Y195750D01*
X630000Y74250D02*
X633000D01*
X631500Y72750D02*
Y75750D01*
X645000Y44250D02*
X648000D01*
X646500Y42750D02*
Y45750D01*
X630000Y14250D02*
X633000D01*
X631500Y12750D02*
Y15750D01*
X615000Y404250D02*
X618000D01*
X616500Y402750D02*
Y405750D01*
X615000Y344250D02*
X618000D01*
X616500Y342750D02*
Y345750D01*
X600000Y314250D02*
X603000D01*
X601500Y312750D02*
Y315750D01*
X615000Y104250D02*
X618000D01*
X616500Y102750D02*
Y105750D01*
X615000Y44250D02*
X618000D01*
X616500Y42750D02*
Y45750D01*
X600000Y14250D02*
X603000D01*
X601500Y12750D02*
Y15750D01*
X585000Y404250D02*
X588000D01*
X586500Y402750D02*
Y405750D01*
X585000Y344250D02*
X588000D01*
X586500Y342750D02*
Y345750D01*
X570000Y314250D02*
X573000D01*
X571500Y312750D02*
Y315750D01*
X585000Y284250D02*
X588000D01*
X586500Y282750D02*
Y285750D01*
X585000Y104250D02*
X588000D01*
X586500Y102750D02*
Y105750D01*
X585000Y44250D02*
X588000D01*
X586500Y42750D02*
Y45750D01*
X570000Y14250D02*
X573000D01*
X571500Y12750D02*
Y15750D01*
X555000Y344250D02*
X558000D01*
X556500Y342750D02*
Y345750D01*
X540000Y74250D02*
X543000D01*
X541500Y72750D02*
Y75750D01*
X555000Y44250D02*
X558000D01*
X556500Y42750D02*
Y45750D01*
X540000Y14250D02*
X543000D01*
X541500Y12750D02*
Y15750D01*
X510000Y314250D02*
X513000D01*
X511500Y312750D02*
Y315750D01*
X525000Y104250D02*
X528000D01*
X526500Y102750D02*
Y105750D01*
X525000Y44250D02*
X528000D01*
X526500Y42750D02*
Y45750D01*
X495000Y464250D02*
X498000D01*
X496500Y462750D02*
Y465750D01*
X480000Y374250D02*
X483000D01*
X481500Y372750D02*
Y375750D01*
X495000Y344250D02*
X498000D01*
X496500Y342750D02*
Y345750D01*
X480000Y314250D02*
X483000D01*
X481500Y312750D02*
Y315750D01*
X480000Y254250D02*
X483000D01*
X481500Y252750D02*
Y255750D01*
X495000Y224250D02*
X498000D01*
X496500Y222750D02*
Y225750D01*
X480000Y194250D02*
X483000D01*
X481500Y192750D02*
Y195750D01*
X495000Y44250D02*
X498000D01*
X496500Y42750D02*
Y45750D01*
X480000Y14250D02*
X483000D01*
X481500Y12750D02*
Y15750D01*
X450000Y374250D02*
X453000D01*
X451500Y372750D02*
Y375750D01*
X465000Y344250D02*
X468000D01*
X466500Y342750D02*
Y345750D01*
X450000Y314250D02*
X453000D01*
X451500Y312750D02*
Y315750D01*
X465000Y284250D02*
X468000D01*
X466500Y282750D02*
Y285750D01*
X450000Y254250D02*
X453000D01*
X451500Y252750D02*
Y255750D01*
X465000Y44250D02*
X468000D01*
X466500Y42750D02*
Y45750D01*
X420000Y494250D02*
X423000D01*
X421500Y492750D02*
Y495750D01*
X435000Y344250D02*
X438000D01*
X436500Y342750D02*
Y345750D01*
X435000Y284250D02*
X438000D01*
X436500Y282750D02*
Y285750D01*
X390000Y494250D02*
X393000D01*
X391500Y492750D02*
Y495750D01*
X375000Y44250D02*
X378000D01*
X376500Y42750D02*
Y45750D01*
X345000Y284250D02*
X348000D01*
X346500Y282750D02*
Y285750D01*
X330000Y254250D02*
X333000D01*
X331500Y252750D02*
Y255750D01*
X345000Y164250D02*
X348000D01*
X346500Y162750D02*
Y165750D01*
X330000Y134250D02*
X333000D01*
X331500Y132750D02*
Y135750D01*
X345000Y44250D02*
X348000D01*
X346500Y42750D02*
Y45750D01*
X315000Y164250D02*
X318000D01*
X316500Y162750D02*
Y165750D01*
X300000Y134250D02*
X303000D01*
X301500Y132750D02*
Y135750D01*
X315000Y104250D02*
X318000D01*
X316500Y102750D02*
Y105750D01*
X300000Y74250D02*
X303000D01*
X301500Y72750D02*
Y75750D01*
X315000Y44250D02*
X318000D01*
X316500Y42750D02*
Y45750D01*
X300000Y14250D02*
X303000D01*
X301500Y12750D02*
Y15750D01*
X270000Y134250D02*
X273000D01*
X271500Y132750D02*
Y135750D01*
X270000Y74250D02*
X273000D01*
X271500Y72750D02*
Y75750D01*
X285000Y44250D02*
X288000D01*
X286500Y42750D02*
Y45750D01*
X240000Y254250D02*
X243000D01*
X241500Y252750D02*
Y255750D01*
X240000Y194250D02*
X243000D01*
X241500Y192750D02*
Y195750D01*
X240000Y134250D02*
X243000D01*
X241500Y132750D02*
Y135750D01*
X255000Y104250D02*
X258000D01*
X256500Y102750D02*
Y105750D01*
X240000Y74250D02*
X243000D01*
X241500Y72750D02*
Y75750D01*
X255000Y44250D02*
X258000D01*
X256500Y42750D02*
Y45750D01*
X240000Y14250D02*
X243000D01*
X241500Y12750D02*
Y15750D01*
X210000Y314250D02*
X213000D01*
X211500Y312750D02*
Y315750D01*
X210000Y254250D02*
X213000D01*
X211500Y252750D02*
Y255750D01*
X225000Y224250D02*
X228000D01*
X226500Y222750D02*
Y225750D01*
X210000Y194250D02*
X213000D01*
X211500Y192750D02*
Y195750D01*
X225000Y44250D02*
X228000D01*
X226500Y42750D02*
Y45750D01*
X210000Y14250D02*
X213000D01*
X211500Y12750D02*
Y15750D01*
X195000Y284250D02*
X198000D01*
X196500Y282750D02*
Y285750D01*
X195000Y224250D02*
X198000D01*
X196500Y222750D02*
Y225750D01*
X180000Y194250D02*
X183000D01*
X181500Y192750D02*
Y195750D01*
X180000Y134250D02*
X183000D01*
X181500Y132750D02*
Y135750D01*
X180000Y74250D02*
X183000D01*
X181500Y72750D02*
Y75750D01*
X195000Y44250D02*
X198000D01*
X196500Y42750D02*
Y45750D01*
X180000Y14250D02*
X183000D01*
X181500Y12750D02*
Y15750D01*
X165000Y344250D02*
X168000D01*
X166500Y342750D02*
Y345750D01*
X150000Y194250D02*
X153000D01*
X151500Y192750D02*
Y195750D01*
X150000Y134250D02*
X153000D01*
X151500Y132750D02*
Y135750D01*
X165000Y104250D02*
X168000D01*
X166500Y102750D02*
Y105750D01*
X150000Y74250D02*
X153000D01*
X151500Y72750D02*
Y75750D01*
X165000Y44250D02*
X168000D01*
X166500Y42750D02*
Y45750D01*
X150000Y14250D02*
X153000D01*
X151500Y12750D02*
Y15750D01*
X135000Y524250D02*
X138000D01*
X136500Y522750D02*
Y525750D01*
X135000Y464250D02*
X138000D01*
X136500Y462750D02*
Y465750D01*
X120000Y374250D02*
X123000D01*
X121500Y372750D02*
Y375750D01*
X120000Y194250D02*
X123000D01*
X121500Y192750D02*
Y195750D01*
X120000Y134250D02*
X123000D01*
X121500Y132750D02*
Y135750D01*
X135000Y104250D02*
X138000D01*
X136500Y102750D02*
Y105750D01*
X120000Y74250D02*
X123000D01*
X121500Y72750D02*
Y75750D01*
X135000Y44250D02*
X138000D01*
X136500Y42750D02*
Y45750D01*
X120000Y14250D02*
X123000D01*
X121500Y12750D02*
Y15750D01*
X105000Y524250D02*
X108000D01*
X106500Y522750D02*
Y525750D01*
X105000Y464250D02*
X108000D01*
X106500Y462750D02*
Y465750D01*
X105000Y404250D02*
X108000D01*
X106500Y402750D02*
Y405750D01*
X90000Y374250D02*
X93000D01*
X91500Y372750D02*
Y375750D01*
X90000Y134250D02*
X93000D01*
X91500Y132750D02*
Y135750D01*
X105000Y104250D02*
X108000D01*
X106500Y102750D02*
Y105750D01*
X90000Y74250D02*
X93000D01*
X91500Y72750D02*
Y75750D01*
X105000Y44250D02*
X108000D01*
X106500Y42750D02*
Y45750D01*
X90000Y14250D02*
X93000D01*
X91500Y12750D02*
Y15750D01*
X75000Y524250D02*
X78000D01*
X76500Y522750D02*
Y525750D01*
X60000Y494250D02*
X63000D01*
X61500Y492750D02*
Y495750D01*
X75000Y164250D02*
X78000D01*
X76500Y162750D02*
Y165750D01*
X60000Y134250D02*
X63000D01*
X61500Y132750D02*
Y135750D01*
X75000Y104250D02*
X78000D01*
X76500Y102750D02*
Y105750D01*
X60000Y74250D02*
X63000D01*
X61500Y72750D02*
Y75750D01*
X75000Y44250D02*
X78000D01*
X76500Y42750D02*
Y45750D01*
X45000Y464250D02*
X48000D01*
X46500Y462750D02*
Y465750D01*
X45000Y404250D02*
X48000D01*
X46500Y402750D02*
Y405750D01*
X45000Y284250D02*
X48000D01*
X46500Y282750D02*
Y285750D01*
X45000Y224250D02*
X48000D01*
X46500Y222750D02*
Y225750D01*
X30000Y194250D02*
X33000D01*
X31500Y192750D02*
Y195750D01*
X45000Y164250D02*
X48000D01*
X46500Y162750D02*
Y165750D01*
X30000Y134250D02*
X33000D01*
X31500Y132750D02*
Y135750D01*
X45000Y104250D02*
X48000D01*
X46500Y102750D02*
Y105750D01*
X30000Y74250D02*
X33000D01*
X31500Y72750D02*
Y75750D01*
X399402Y311035D02*
X402402D01*
X400902Y309536D02*
Y312535D01*
X278500Y497500D02*
X281500D01*
X280000Y496000D02*
Y499000D01*
X166650Y270600D02*
X169650D01*
X168150Y269100D02*
Y272100D01*
X102400Y308850D02*
X105400D01*
X103900Y307350D02*
Y310350D01*
X112000Y248500D02*
X115000D01*
X113500Y247000D02*
Y250000D01*
X543750Y395750D02*
X546750D01*
X545250Y394250D02*
Y397250D01*
X568500Y403750D02*
X571500D01*
X570000Y402250D02*
Y405250D01*
X636250Y472500D02*
X639250D01*
X637750Y471000D02*
Y474000D01*
X586000Y482000D02*
X589000D01*
X587500Y480500D02*
Y483500D01*
X562500Y482000D02*
X565500D01*
X564000Y480500D02*
Y483500D01*
X517230Y390750D02*
X520230D01*
X518730Y389250D02*
Y392250D01*
X498250Y430250D02*
X501250D01*
X499750Y428750D02*
Y431750D01*
X243000Y533500D02*
X246000D01*
X244500Y532000D02*
Y535000D01*
X203000Y533500D02*
X206000D01*
X204500Y532000D02*
Y535000D01*
X194000Y533500D02*
X197000D01*
X195500Y532000D02*
Y535000D01*
X234000Y533500D02*
X237000D01*
X235500Y532000D02*
Y535000D01*
X644250Y289000D02*
X647250D01*
X645750Y287500D02*
Y290500D01*
X239736Y460514D02*
X242736D01*
X241236Y459014D02*
Y462014D01*
X194000Y491250D02*
X197000D01*
X195500Y489750D02*
Y492750D01*
X163000Y491250D02*
X166000D01*
X164500Y489750D02*
Y492750D01*
X234000Y491250D02*
X237000D01*
X235500Y489750D02*
Y492750D01*
X507270Y100520D02*
X510270D01*
X508770Y99020D02*
Y102020D01*
X514000Y97250D02*
X517000D01*
X515500Y95750D02*
Y98750D01*
X499750Y128000D02*
X502750D01*
X501250Y126500D02*
Y129500D01*
X310500Y406000D02*
X313500D01*
X312000Y404500D02*
Y407500D01*
X314500Y424750D02*
X317500D01*
X316000Y423250D02*
Y426250D01*
X294750Y429517D02*
X297750D01*
X296250Y428017D02*
Y431017D01*
X371000Y460000D02*
X374000D01*
X372500Y458500D02*
Y461500D01*
X378500Y460000D02*
X381500D01*
X380000Y458500D02*
Y461500D01*
X480500Y155750D02*
X483500D01*
X482000Y154250D02*
Y157250D01*
X480500Y147750D02*
X483500D01*
X482000Y146250D02*
Y149250D01*
X480500Y139750D02*
X483500D01*
X482000Y138250D02*
Y141250D01*
X349250Y332865D02*
X352250D01*
X350750Y331365D02*
Y334365D01*
X326250Y350365D02*
X329250D01*
X327750Y348865D02*
Y351865D01*
X344000Y69000D02*
X347000D01*
X345500Y67500D02*
Y70500D01*
X383750Y68750D02*
X386750D01*
X385250Y67250D02*
Y70250D01*
X464500Y67750D02*
X467500D01*
X466000Y66250D02*
Y69250D01*
X423750Y68250D02*
X426750D01*
X425250Y66750D02*
Y69750D01*
X366750Y60250D02*
X369750D01*
X368250Y58750D02*
Y61750D01*
X486000Y60250D02*
X489000D01*
X487500Y58750D02*
Y61750D01*
X406500Y60250D02*
X409500D01*
X408000Y58750D02*
Y61750D01*
X604250Y247250D02*
X607250D01*
X605750Y245750D02*
Y248750D01*
X479500Y104750D02*
X482500D01*
X481000Y103250D02*
Y106250D01*
X637750Y285750D02*
X640750D01*
X639250Y284250D02*
Y287250D01*
X163000Y507250D02*
X166000D01*
X164500Y505750D02*
Y508750D01*
X154000Y507250D02*
X157000D01*
X155500Y505750D02*
Y508750D01*
X510500Y430250D02*
X513500D01*
X512000Y428750D02*
Y431750D01*
X423250Y435000D02*
X426250D01*
X424750Y433500D02*
Y436500D01*
X418250Y430000D02*
X421250D01*
X419750Y428500D02*
Y431500D01*
X447250Y435500D02*
X450250D01*
X448750Y434000D02*
Y437000D01*
X478700Y460500D02*
X481700D01*
X480200Y459000D02*
Y462000D01*
X427900Y460500D02*
X430900D01*
X429400Y459000D02*
Y462000D01*
X466000Y500800D02*
X469000D01*
X467500Y499300D02*
Y502300D01*
X466000Y460500D02*
X469000D01*
X467500Y459000D02*
Y462000D01*
X453300Y460500D02*
X456300D01*
X454800Y459000D02*
Y462000D01*
X478700Y500800D02*
X481700D01*
X480200Y499300D02*
Y502300D01*
X453300Y500800D02*
X456300D01*
X454800Y499300D02*
Y502300D01*
X439000Y192500D02*
X442000D01*
X440500Y191000D02*
Y194000D01*
X449250Y192500D02*
X452250D01*
X450750Y191000D02*
Y194000D01*
X125145Y477750D02*
X128145D01*
X126645Y476250D02*
Y479250D01*
X111895Y477750D02*
X114895D01*
X113395Y476250D02*
Y479250D01*
X301500Y314615D02*
X304500D01*
X303000Y313115D02*
Y316115D01*
X270750Y169250D02*
X273750D01*
X272250Y167750D02*
Y170750D01*
X271250Y196000D02*
X274250D01*
X272750Y194500D02*
Y197500D01*
X307000Y200000D02*
X310000D01*
X308500Y198500D02*
Y201500D01*
X299750Y401000D02*
X302750D01*
X301250Y399500D02*
Y402500D01*
X256000Y440000D02*
X259000D01*
X257500Y438500D02*
Y441500D01*
X251000Y450000D02*
X254000D01*
X252500Y448500D02*
Y451500D01*
X228000Y450000D02*
X231000D01*
X229500Y448500D02*
Y451500D01*
X237000Y387250D02*
X240000D01*
X238500Y385750D02*
Y388750D01*
X266000Y440000D02*
X269000D01*
X267500Y438500D02*
Y441500D01*
X276000Y440000D02*
X279000D01*
X277500Y438500D02*
Y441500D01*
X356000Y430000D02*
X359000D01*
X357500Y428500D02*
Y431500D01*
X363500Y430000D02*
X366500D01*
X365000Y428500D02*
Y431500D01*
X271000Y450000D02*
X274000D01*
X272500Y448500D02*
Y451500D01*
X299750Y413000D02*
X302750D01*
X301250Y411500D02*
Y414500D01*
X274000Y487000D02*
X277000D01*
X275500Y485500D02*
Y488500D01*
X331500Y473000D02*
X334500D01*
X333000Y471500D02*
Y474500D01*
X74000Y507250D02*
X77000D01*
X75500Y505750D02*
Y508750D01*
X83000Y507250D02*
X86000D01*
X84500Y505750D02*
Y508750D01*
X114000Y507250D02*
X117000D01*
X115500Y505750D02*
Y508750D01*
X123000Y507250D02*
X126000D01*
X124500Y505750D02*
Y508750D01*
X632250Y237000D02*
X635250D01*
X633750Y235500D02*
Y238500D01*
X612750Y365000D02*
X615750D01*
X614250Y363500D02*
Y366500D01*
X508500Y352500D02*
X511500D01*
X510000Y351000D02*
Y354000D01*
X637250Y345481D02*
X640250D01*
X638750Y343981D02*
Y346981D01*
X621500Y365000D02*
X624500D01*
X623000Y363500D02*
Y366500D01*
X508500Y367500D02*
X511500D01*
X510000Y366000D02*
Y369000D01*
X508500Y360000D02*
X511500D01*
X510000Y358500D02*
Y361500D01*
X508500Y345000D02*
X511500D01*
X510000Y343500D02*
Y346500D01*
X281000Y292250D02*
X284000D01*
X282500Y290750D02*
Y293750D01*
X632250Y245000D02*
X635250D01*
X633750Y243500D02*
Y246500D01*
X632250Y225000D02*
X635250D01*
X633750Y223500D02*
Y226500D01*
X598500Y231001D02*
X601500D01*
X600000Y229501D02*
Y232501D01*
X541750Y274250D02*
X544750D01*
X543250Y272750D02*
Y275750D01*
X573500Y215000D02*
X576500D01*
X575000Y213500D02*
Y216500D01*
X532500Y168250D02*
X535500D01*
X534000Y166750D02*
Y169750D01*
X509500Y168500D02*
X512500D01*
X511000Y167000D02*
Y170000D01*
X521000Y160750D02*
X524000D01*
X522500Y159250D02*
Y162250D01*
X439078Y104984D02*
X442078D01*
X440578Y103484D02*
Y106484D01*
X385250Y116500D02*
X388250D01*
X386750Y115000D02*
Y118000D01*
X398705Y105015D02*
X401705D01*
X400205Y103516D02*
Y106516D01*
X398250Y116500D02*
X401250D01*
X399750Y115000D02*
Y118000D01*
X425500Y116500D02*
X428500D01*
X427000Y115000D02*
Y118000D01*
X438500Y116500D02*
X441500D01*
X440000Y115000D02*
Y118000D01*
X478750Y116500D02*
X481750D01*
X480250Y115000D02*
Y118000D01*
X465750Y116500D02*
X468750D01*
X467250Y115000D02*
Y118000D01*
X439000Y182500D02*
X442000D01*
X440500Y181000D02*
Y184000D01*
X445000Y68445D02*
X448000D01*
X446500Y66945D02*
Y69945D01*
X485250Y68500D02*
X488250D01*
X486750Y67000D02*
Y70000D01*
X404750Y68500D02*
X407750D01*
X406250Y67000D02*
Y70000D01*
X364750Y68500D02*
X367750D01*
X366250Y67000D02*
Y70000D01*
X358250Y104750D02*
X361250D01*
X359750Y103250D02*
Y106250D01*
X358250Y116500D02*
X361250D01*
X359750Y115000D02*
Y118000D01*
X345250Y116500D02*
X348250D01*
X346750Y115000D02*
Y118000D01*
X637250Y323481D02*
X640250D01*
X638750Y321981D02*
Y324981D01*
X637250Y367481D02*
X640250D01*
X638750Y365981D02*
Y368981D01*
X637250Y389481D02*
X640250D01*
X638750Y387981D02*
Y390981D01*
X637250Y356481D02*
X640250D01*
X638750Y354981D02*
Y357981D01*
X345050Y376900D02*
X348050D01*
X346550Y375401D02*
Y378400D01*
X345050Y390900D02*
X348050D01*
X346550Y389400D02*
Y392401D01*
X326250Y332865D02*
X329250D01*
X327750Y331365D02*
Y334365D01*
X349250Y350365D02*
X352250D01*
X350750Y348865D02*
Y351865D01*
X209150Y350168D02*
X212150D01*
X210650Y348668D02*
Y351668D01*
X243000Y491250D02*
X246000D01*
X244500Y489750D02*
Y492750D01*
X114000Y491250D02*
X117000D01*
X115500Y489750D02*
Y492750D01*
X123000Y491250D02*
X126000D01*
X124500Y489750D02*
Y492750D01*
X154000Y491250D02*
X157000D01*
X155500Y489750D02*
Y492750D01*
X203000Y491250D02*
X206000D01*
X204500Y489750D02*
Y492750D01*
X318500Y473000D02*
X321500D01*
X320000Y471500D02*
Y474500D01*
X358500Y473000D02*
X361500D01*
X360000Y471500D02*
Y474500D01*
X83000Y491250D02*
X86000D01*
X84500Y489750D02*
Y492750D01*
X278500Y505500D02*
X281500D01*
X280000Y504000D02*
Y507000D01*
X318500Y505500D02*
X321500D01*
X320000Y504000D02*
Y507000D01*
X358500Y505500D02*
X361500D01*
X360000Y504000D02*
Y507000D01*
X74000Y491250D02*
X77000D01*
X75500Y489750D02*
Y492750D01*
X17500Y520000D02*
X42500D01*
X30000Y507500D02*
Y532500D01*
X439000Y211000D02*
X442000D01*
X440500Y209500D02*
Y212500D01*
X445500Y236500D02*
X448500D01*
X447000Y235000D02*
Y238000D01*
X350750Y225500D02*
X353750D01*
X352250Y224000D02*
Y227000D01*
X342250Y314615D02*
X345250D01*
X343750Y313115D02*
Y316115D01*
X546750Y235500D02*
X549750D01*
X548250Y234000D02*
Y237000D01*
X570250Y233750D02*
X573250D01*
X571750Y232250D02*
Y235250D01*
X398250Y399730D02*
X401250D01*
X399750Y398230D02*
Y401230D01*
X399250Y279750D02*
X402250D01*
X400750Y278250D02*
Y281250D01*
X399270Y295750D02*
X402270D01*
X400770Y294250D02*
Y297250D01*
X399270Y350750D02*
X402270D01*
X400770Y349250D02*
Y352250D01*
X399270Y375750D02*
X402270D01*
X400770Y374250D02*
Y377250D01*
X517230Y400750D02*
X520230D01*
X518730Y399250D02*
Y402250D01*
X518250Y281770D02*
X521250D01*
X519750Y280270D02*
Y283270D01*
X508250Y281770D02*
X511250D01*
X509750Y280270D02*
Y283270D01*
X707500Y20000D02*
X732500D01*
X720000Y7500D02*
Y32500D01*
X17500Y20000D02*
X42500D01*
X30000Y7500D02*
Y32500D01*
X707500Y520000D02*
X732500D01*
X720000Y507500D02*
Y532500D01*
M02*
