G04*
G04 #@! TF.GenerationSoftware,Altium Limited,Altium Designer,24.4.1 (13)*
G04*
G04 Layer_Physical_Order=2*
G04 Layer_Color=16711680*
%FSLAX44Y44*%
%MOMM*%
G71*
G04*
G04 #@! TF.SameCoordinates,4A672E86-6C9B-4248-A0BA-008E6FD5887C*
G04*
G04*
G04 #@! TF.FilePolarity,Positive*
G04*
G01*
G75*
%ADD14C,0.5000*%
%ADD15C,0.2000*%
%ADD17C,0.2540*%
%ADD24R,0.7500X0.8500*%
%ADD26R,0.8500X0.7000*%
%ADD27R,0.8500X0.7500*%
%ADD28R,0.7000X0.9000*%
%ADD29R,0.5500X0.5500*%
%ADD33R,0.5500X0.5500*%
%ADD35R,0.9500X0.8000*%
%ADD36R,0.5200X0.5200*%
%ADD37R,0.5200X0.5200*%
G04:AMPARAMS|DCode=38|XSize=1.3082mm|YSize=0.7621mm|CornerRadius=0.3811mm|HoleSize=0mm|Usage=FLASHONLY|Rotation=90.000|XOffset=0mm|YOffset=0mm|HoleType=Round|Shape=RoundedRectangle|*
%AMROUNDEDRECTD38*
21,1,1.3082,0.0000,0,0,90.0*
21,1,0.5461,0.7621,0,0,90.0*
1,1,0.7621,0.0000,0.2730*
1,1,0.7621,0.0000,-0.2730*
1,1,0.7621,0.0000,-0.2730*
1,1,0.7621,0.0000,0.2730*
%
%ADD38ROUNDEDRECTD38*%
%ADD39R,0.7621X1.3082*%
%ADD49R,0.7000X0.8500*%
%ADD67C,3.0000*%
%ADD68R,2.7500X2.7500*%
%ADD69C,2.7500*%
%ADD72C,0.3000*%
%ADD73C,1.5080*%
%ADD74R,1.5500X1.5500*%
%ADD75C,1.5500*%
%ADD76R,0.6500X2.7700*%
%ADD77C,0.5000*%
%ADD78C,4.0000*%
%ADD79R,0.4500X0.3500*%
G04:AMPARAMS|DCode=80|XSize=0.84mm|YSize=0.26mm|CornerRadius=0.0325mm|HoleSize=0mm|Usage=FLASHONLY|Rotation=270.000|XOffset=0mm|YOffset=0mm|HoleType=Round|Shape=RoundedRectangle|*
%AMROUNDEDRECTD80*
21,1,0.8400,0.1950,0,0,270.0*
21,1,0.7750,0.2600,0,0,270.0*
1,1,0.0650,-0.0975,-0.3875*
1,1,0.0650,-0.0975,0.3875*
1,1,0.0650,0.0975,0.3875*
1,1,0.0650,0.0975,-0.3875*
%
%ADD80ROUNDEDRECTD80*%
G04:AMPARAMS|DCode=81|XSize=0.84mm|YSize=0.26mm|CornerRadius=0.0325mm|HoleSize=0mm|Usage=FLASHONLY|Rotation=180.000|XOffset=0mm|YOffset=0mm|HoleType=Round|Shape=RoundedRectangle|*
%AMROUNDEDRECTD81*
21,1,0.8400,0.1950,0,0,180.0*
21,1,0.7750,0.2600,0,0,180.0*
1,1,0.0650,-0.3875,0.0975*
1,1,0.0650,0.3875,0.0975*
1,1,0.0650,0.3875,-0.0975*
1,1,0.0650,-0.3875,-0.0975*
%
%ADD81ROUNDEDRECTD81*%
%ADD82R,0.9000X0.7000*%
%ADD83R,0.4000X0.5000*%
%ADD84R,1.5000X1.5500*%
%ADD85R,0.5800X1.7300*%
%ADD86C,1.7397*%
%ADD87R,0.8000X0.4000*%
%ADD88R,0.9000X1.0500*%
%ADD89R,1.0500X0.9000*%
%ADD90R,1.6000X5.7000*%
%ADD91R,1.0000X0.7000*%
%AMCUSTOMSHAPE92*
4,1,28,1.2250,-1.1400,1.2250,-0.7250,1.6050,-0.7250,1.6050,-0.2950,1.2250,-0.2950,1.2250,0.8400,1.1750,0.8400,1.1750,1.1400,0.7750,1.1400,0.7750,0.8400,0.5250,0.8400,0.5250,1.1400,0.1250,1.1400,0.1250,0.8400,-0.1250,0.8400,-0.1250,1.1400,-0.5250,1.1400,-0.5250,0.8400,-0.7750,0.8400,-0.7750,1.1400,-1.1750,1.1400,-1.1750,0.8400,-1.2250,0.8400,-1.2250,-0.2950,-1.6050,-0.2950,-1.6050,-0.7250,-1.2250,-0.7250,-1.2250,-1.1400,1.2250,-1.1400,0.0*%
%ADD92CUSTOMSHAPE92*%

%ADD93R,0.3500X0.5000*%
%ADD94R,1.2200X0.9100*%
%ADD95R,3.1500X1.9600*%
%ADD96R,0.7000X0.4200*%
%ADD97R,1.1500X1.0500*%
%ADD98R,0.4200X0.7000*%
%ADD99R,0.9500X1.3500*%
%ADD100R,1.2500X1.0000*%
%ADD101R,0.5000X0.4000*%
%ADD102R,0.6725X0.7154*%
%ADD103R,1.4562X1.2546*%
%ADD104C,2.0000*%
G36*
X202445Y547961D02*
X203688Y544961D01*
X196227Y537500D01*
X194704D01*
X193234Y536891D01*
X192109Y535766D01*
X191500Y534296D01*
Y532704D01*
X189247Y530304D01*
X176240D01*
X175354Y530128D01*
X174603Y529626D01*
X156227Y511250D01*
X154704D01*
X153234Y510641D01*
X152109Y509516D01*
X151500Y508046D01*
Y506454D01*
X152109Y504984D01*
X150776Y502074D01*
X133670D01*
X128500Y507244D01*
Y508046D01*
X127891Y509516D01*
X126766Y510641D01*
X125296Y511250D01*
X123704D01*
X122234Y510641D01*
X121667Y510074D01*
X118333D01*
X117766Y510641D01*
X116296Y511250D01*
X114704D01*
X113234Y510641D01*
X112667Y510074D01*
X87333D01*
X86766Y510641D01*
X85296Y511250D01*
X83704D01*
X82234Y510641D01*
X81667Y510074D01*
X78333D01*
X77766Y510641D01*
X76296Y511250D01*
X74704D01*
X73234Y510641D01*
X72109Y509516D01*
X71500Y508046D01*
Y506454D01*
X72109Y504984D01*
X73234Y503859D01*
X74704Y503250D01*
X76296D01*
X77766Y503859D01*
X78333Y504426D01*
X81667D01*
X82234Y503859D01*
X83704Y503250D01*
X85296D01*
X86766Y503859D01*
X87333Y504426D01*
X112668D01*
X113234Y503859D01*
X114704Y503250D01*
X116296D01*
X117766Y503859D01*
X118333Y504426D01*
X121667D01*
X122234Y503859D01*
X123704Y503250D01*
X124506D01*
X128236Y499520D01*
X126993Y496520D01*
X120625Y496520D01*
X117625Y496520D01*
X107375D01*
Y486020D01*
X107374Y485980D01*
Y483020D01*
X107375Y482980D01*
Y472480D01*
X117625D01*
X119415Y472480D01*
X122415Y472480D01*
X132665D01*
Y482980D01*
X132665Y483020D01*
Y485980D01*
X132665Y486020D01*
Y493821D01*
X132665Y496426D01*
X134987Y496426D01*
X147393D01*
Y485980D01*
X157480D01*
X160480Y485980D01*
Y485980D01*
X172520D01*
Y496426D01*
X187480D01*
Y485980D01*
X199520D01*
Y485980D01*
X200480Y485980D01*
Y485980D01*
X212520D01*
Y496426D01*
X227480D01*
Y485980D01*
X239520D01*
Y485980D01*
X240480Y485980D01*
Y485980D01*
X252520D01*
Y493504D01*
X253000Y496426D01*
X254081Y496641D01*
X254997Y497253D01*
X266476Y508731D01*
X268019Y508506D01*
X269075Y505319D01*
X258003Y494247D01*
X257391Y493331D01*
X257176Y492250D01*
X257176Y492250D01*
Y478670D01*
X248830Y470324D01*
X238250D01*
X237169Y470109D01*
X236253Y469497D01*
X236253Y469497D01*
X219080Y452324D01*
X129250D01*
X129250Y452324D01*
X128169Y452109D01*
X127253Y451497D01*
X44253Y368497D01*
X43641Y367581D01*
X43426Y366500D01*
X43426Y366500D01*
Y309391D01*
X42979Y308944D01*
X39237Y309445D01*
X39094Y309696D01*
Y438658D01*
X72916Y472480D01*
X79520D01*
Y482980D01*
X79520Y483020D01*
Y485980D01*
X82520Y485980D01*
X91520D01*
Y496020D01*
X82313D01*
X79520Y496520D01*
X77687Y496520D01*
X67480D01*
Y486020D01*
X67480Y485980D01*
Y483020D01*
X67480Y482980D01*
Y477916D01*
X32532Y442968D01*
X31699Y441721D01*
X31406Y440250D01*
X31406Y440250D01*
Y219250D01*
X31406Y219250D01*
X31699Y217779D01*
X32532Y216532D01*
X94408Y154656D01*
X93940Y152910D01*
Y150590D01*
X94540Y148350D01*
X95700Y146341D01*
X97340Y144700D01*
X99349Y143540D01*
X101590Y142940D01*
X103910D01*
X106151Y143540D01*
X108159Y144700D01*
X109800Y146341D01*
X110960Y148350D01*
X111560Y150590D01*
Y152910D01*
X110960Y155150D01*
X109800Y157160D01*
X108159Y158800D01*
X106151Y159960D01*
X103910Y160560D01*
X101590D01*
X99844Y160092D01*
X39094Y220842D01*
Y295304D01*
X40480Y297730D01*
X42094Y297730D01*
X51906D01*
Y237250D01*
X51906Y237250D01*
X52199Y235779D01*
X53032Y234532D01*
X134532Y153032D01*
X134532Y153032D01*
X135779Y152199D01*
X137250Y151906D01*
X189980D01*
Y146730D01*
X192084D01*
Y141683D01*
X191758D01*
Y121843D01*
X192084D01*
Y93322D01*
X192084Y93322D01*
X192377Y91851D01*
X193210Y90604D01*
X288032Y-4218D01*
X288032Y-4218D01*
X289144Y-4961D01*
X289185Y-5185D01*
X288192Y-7961D01*
X30000Y-7961D01*
X28167D01*
X24533Y-7483D01*
X20993Y-6534D01*
X17607Y-5131D01*
X14432Y-3299D01*
X11524Y-1067D01*
X8933Y1524D01*
X6701Y4433D01*
X4869Y7607D01*
X3466Y10993D01*
X2517Y14533D01*
X2039Y18167D01*
X2039Y20000D01*
X2039Y520000D01*
X2039Y521833D01*
X2517Y525467D01*
X3466Y529007D01*
X4869Y532393D01*
X6701Y535568D01*
X8933Y538475D01*
X11524Y541067D01*
X14432Y543299D01*
X17607Y545131D01*
X20993Y546534D01*
X24533Y547482D01*
X28167Y547961D01*
X30000Y547961D01*
X202445D01*
D02*
G37*
G36*
X475680Y515326D02*
Y485680D01*
X477181D01*
X478785Y482680D01*
X478708Y482565D01*
X474500D01*
X473614Y482388D01*
X472863Y481887D01*
X468113Y477137D01*
X467612Y476386D01*
X467459Y475620D01*
X462980D01*
Y445380D01*
X472020D01*
Y462526D01*
X472065Y462750D01*
Y472165D01*
X472680Y472576D01*
X475680Y470972D01*
Y445380D01*
X484720D01*
Y475501D01*
X484720Y475620D01*
X484393Y478553D01*
X484393Y478620D01*
X488887Y483113D01*
X489388Y483864D01*
X489565Y484750D01*
Y485480D01*
X496020D01*
Y495480D01*
X496020Y495520D01*
Y498480D01*
X497493Y500910D01*
X504177D01*
X521730Y483358D01*
Y477063D01*
X521730Y476480D01*
X521730Y476480D01*
X522230Y474270D01*
X522230D01*
Y466503D01*
X519593Y463867D01*
X519092Y463116D01*
X518915Y462230D01*
Y455313D01*
X512167Y448564D01*
X495750D01*
X494864Y448388D01*
X494113Y447887D01*
X475541Y429314D01*
X454785D01*
X452770Y431480D01*
X452770Y432314D01*
Y439520D01*
X444730Y439520D01*
X440474Y439520D01*
X437614Y442380D01*
X438857Y445380D01*
X440131Y445380D01*
X446620D01*
Y475620D01*
X437580D01*
Y448984D01*
X436190Y447433D01*
X434580Y446882D01*
X433933Y447348D01*
X433920Y447466D01*
Y475620D01*
X424880D01*
Y449921D01*
X422108Y448773D01*
X395885Y474997D01*
X394968Y475609D01*
X393887Y475824D01*
X393887Y475824D01*
X378755D01*
X378020Y478520D01*
X378020Y479980D01*
X378020D01*
Y491020D01*
X373421D01*
X373359Y491331D01*
X372747Y492247D01*
X372747Y492247D01*
X366529Y498465D01*
X365613Y499077D01*
X365165Y499166D01*
X364095Y501203D01*
X363870Y502184D01*
Y504390D01*
X364000Y504704D01*
Y505506D01*
X375090Y516596D01*
X422160D01*
X424880Y515920D01*
X424880Y513596D01*
Y485680D01*
X433920D01*
Y513215D01*
X435750Y514285D01*
X437580Y513215D01*
Y485680D01*
X446620D01*
Y513596D01*
X446620Y515920D01*
X449340Y516596D01*
X474410D01*
X475680Y515326D01*
D02*
G37*
G36*
X356000Y505506D02*
Y504704D01*
X356045Y504595D01*
X356130Y501630D01*
Y501370D01*
X356130Y501370D01*
Y493630D01*
X363376D01*
X367926Y489080D01*
Y487750D01*
X367926Y487750D01*
X367980Y487477D01*
Y481520D01*
X365585Y478520D01*
X365020D01*
X364980Y478520D01*
X354980D01*
X354980Y467480D01*
X352048Y467314D01*
X340951D01*
X338020Y467480D01*
X338020Y470314D01*
Y478520D01*
X338020D01*
X338020Y479980D01*
X338020D01*
Y491020D01*
X336534D01*
X333642Y491682D01*
X333427Y492763D01*
X332815Y493679D01*
X327279Y499215D01*
X326363Y499827D01*
X326241Y499852D01*
X323870Y501370D01*
X323870Y501370D01*
X323870Y501370D01*
X316130D01*
Y498303D01*
X313130Y496676D01*
X313074Y496712D01*
Y509676D01*
X351830D01*
X356000Y505506D01*
D02*
G37*
G36*
X279095Y501545D02*
X279204Y501500D01*
X280796D01*
X281018Y501592D01*
X281100Y501576D01*
X282180D01*
X285176Y498580D01*
Y494730D01*
X283230Y492520D01*
X280270D01*
X280230Y492520D01*
X270730D01*
Y482813D01*
X270230Y480020D01*
X268750Y477324D01*
X267669Y477109D01*
X266753Y476497D01*
X266753Y476497D01*
X265901Y475645D01*
X262786Y476462D01*
X262653Y476640D01*
X262824Y477500D01*
Y491080D01*
X273202Y501457D01*
X276130Y501630D01*
X279095Y501545D01*
D02*
G37*
G36*
X720000Y547961D02*
X721833Y547961D01*
X725467Y547482D01*
X729007Y546534D01*
X732393Y545131D01*
X735568Y543298D01*
X738475Y541067D01*
X741067Y538475D01*
X743298Y535568D01*
X745131Y532393D01*
X746534Y529007D01*
X747483Y525467D01*
X747961Y521833D01*
X747961Y520000D01*
X747961Y20000D01*
Y18167D01*
X747483Y14533D01*
X746534Y10993D01*
X745131Y7606D01*
X743298Y4432D01*
X741067Y1525D01*
X738475Y-1067D01*
X735567Y-3299D01*
X732393Y-5131D01*
X729007Y-6534D01*
X725467Y-7483D01*
X721833Y-7961D01*
X720000Y-7961D01*
X647559D01*
X646565Y-5185D01*
X646606Y-4961D01*
X647718Y-4218D01*
X710218Y58282D01*
X710218Y58282D01*
X711051Y59529D01*
X711344Y61000D01*
Y174750D01*
X711344Y174750D01*
X711051Y176221D01*
X710218Y177468D01*
X710218Y177468D01*
X659968Y227718D01*
X658721Y228551D01*
X657250Y228844D01*
X657250Y228844D01*
X634923D01*
X634546Y229000D01*
X632954D01*
X631484Y228391D01*
X630359Y227266D01*
X629750Y225796D01*
Y224204D01*
X630359Y222734D01*
X631484Y221609D01*
X632954Y221000D01*
X634546D01*
X634923Y221156D01*
X655658D01*
X703656Y173158D01*
Y62592D01*
X643408Y2344D01*
X518324D01*
Y94417D01*
X518891Y94984D01*
X519500Y96454D01*
Y98046D01*
X518891Y99516D01*
X518324Y100083D01*
Y123730D01*
X521020D01*
Y133317D01*
X521058Y133841D01*
X522324Y136230D01*
X531270D01*
Y147270D01*
X521230D01*
X521020Y146770D01*
X515574D01*
Y148074D01*
X515359Y149155D01*
X514747Y150071D01*
X470322Y194497D01*
X469405Y195109D01*
X468324Y195324D01*
X468324Y195324D01*
X453583D01*
X453016Y195891D01*
X451546Y196500D01*
X449954D01*
X448484Y195891D01*
X447359Y194766D01*
X447249Y194499D01*
X444001D01*
X443891Y194766D01*
X442766Y195891D01*
X441296Y196500D01*
X440244D01*
X428520Y208224D01*
Y215730D01*
X428520Y215770D01*
Y218730D01*
X430738Y220656D01*
X435000D01*
X435000Y220656D01*
X436471Y220949D01*
X437718Y221782D01*
X448592Y232656D01*
X485956D01*
X485956Y232656D01*
X487427Y232949D01*
X488674Y233782D01*
X522468Y267576D01*
X522468Y267576D01*
X523301Y268823D01*
X523594Y270294D01*
X523594Y270294D01*
Y280597D01*
X523750Y280974D01*
Y282565D01*
X523745Y282578D01*
X531072Y289906D01*
X622406D01*
Y241750D01*
X622406Y241750D01*
X622699Y240279D01*
X623532Y239032D01*
X628282Y234282D01*
X628282Y234282D01*
X629529Y233449D01*
X631000Y233156D01*
X631000Y233156D01*
X632577D01*
X632954Y233000D01*
X634546D01*
X636016Y233609D01*
X637141Y234734D01*
X637750Y236204D01*
Y237796D01*
X637141Y239266D01*
X636016Y240391D01*
X634546Y241000D01*
X632954D01*
X632588Y240848D01*
X630094Y243342D01*
Y292158D01*
X653218Y315282D01*
X653218Y315282D01*
X654051Y316529D01*
X654065Y316598D01*
X655222Y316674D01*
X657665Y313959D01*
Y311439D01*
X637613Y291387D01*
X637112Y290636D01*
X636936Y289750D01*
Y289092D01*
X635859Y288016D01*
X635250Y286546D01*
Y284954D01*
X635859Y283484D01*
X636984Y282359D01*
X638454Y281750D01*
X640046D01*
X641516Y282359D01*
X642641Y283484D01*
X643250Y284954D01*
X644954Y285000D01*
X646546D01*
X648016Y285609D01*
X649141Y286734D01*
X649750Y288204D01*
Y289727D01*
X664887Y304863D01*
X665388Y305614D01*
X665564Y306500D01*
Y403500D01*
X665388Y404386D01*
X664887Y405137D01*
X620293Y449730D01*
X620617Y452730D01*
X623270D01*
Y462230D01*
X623270Y462270D01*
Y465230D01*
X623270Y465270D01*
Y474085D01*
X624036Y475342D01*
X625562Y476480D01*
X630776D01*
X633812Y473444D01*
X633750Y473296D01*
Y471704D01*
X634359Y470234D01*
X635484Y469109D01*
X636954Y468500D01*
X638546D01*
X640016Y469109D01*
X641141Y470234D01*
X641750Y471704D01*
Y473296D01*
X641141Y474766D01*
X640016Y475891D01*
X638885Y476360D01*
X634770Y480474D01*
Y487520D01*
X634324D01*
Y491730D01*
X635020D01*
Y497770D01*
X635020D01*
Y498230D01*
X635020D01*
X635020Y504270D01*
X635020Y507270D01*
Y510770D01*
X631253D01*
X598887Y543137D01*
X598136Y543638D01*
X597250Y543815D01*
X256835D01*
X255985Y544961D01*
X257496Y547961D01*
X720000Y547961D01*
D02*
G37*
G36*
X598980Y472340D02*
Y465270D01*
X598980Y465230D01*
Y462270D01*
X598980Y462230D01*
Y452730D01*
X606035D01*
X606113Y452613D01*
X657665Y401061D01*
Y397630D01*
X656770Y395001D01*
X654666Y395001D01*
X646770D01*
X646730Y395001D01*
X643770D01*
X643730Y395001D01*
X633730D01*
Y387734D01*
X625061Y379064D01*
X504000D01*
X503114Y378888D01*
X502363Y378387D01*
X498113Y374137D01*
X497612Y373386D01*
X497435Y372500D01*
Y362750D01*
X497612Y361864D01*
X498113Y361113D01*
X506000Y353227D01*
Y351704D01*
X506609Y350234D01*
X507515Y348750D01*
X506609Y347266D01*
X506000Y345796D01*
Y344204D01*
X506609Y342734D01*
X507734Y341609D01*
X509204Y341000D01*
X510796D01*
X512266Y341609D01*
X513391Y342734D01*
X514000Y344204D01*
Y345727D01*
X517637Y349363D01*
X518138Y350114D01*
X518315Y351000D01*
Y360291D01*
X520959Y362935D01*
X604791D01*
X610113Y357613D01*
X610864Y357112D01*
X611750Y356936D01*
X617250D01*
X618136Y357112D01*
X618887Y357613D01*
X622273Y361000D01*
X623796D01*
X625266Y361609D01*
X626391Y362734D01*
X627000Y364204D01*
Y365796D01*
X626391Y367266D01*
X626221Y367435D01*
X627464Y370435D01*
X631230D01*
X633730Y367936D01*
X633730Y361961D01*
X634880Y359437D01*
X634880Y357590D01*
X634750Y357276D01*
Y355685D01*
X634880Y355371D01*
X634880Y353525D01*
X633730Y351001D01*
X633730Y350087D01*
Y339961D01*
X643730D01*
X643770Y339961D01*
X646730D01*
X647906Y337431D01*
Y331530D01*
X646730Y329001D01*
X643770D01*
X643730Y329001D01*
X633730D01*
Y317961D01*
X640782D01*
X642025Y314961D01*
X624658Y297594D01*
X529480D01*
X529480Y297594D01*
X528009Y297301D01*
X526762Y296468D01*
X526762Y296468D01*
X517032Y286738D01*
X516594Y286082D01*
X513594Y286602D01*
Y294344D01*
X513301Y295815D01*
X513020Y296236D01*
Y298114D01*
X510121D01*
X509750Y298188D01*
X509379Y298114D01*
X506480D01*
Y296236D01*
X506199Y295815D01*
X505906Y294344D01*
Y282942D01*
X505750Y282565D01*
Y280974D01*
X506359Y279504D01*
X506480Y279383D01*
Y278000D01*
X508399D01*
X508954Y277770D01*
X510546D01*
X511101Y278000D01*
X512906D01*
X513020Y278000D01*
X515906Y277725D01*
Y271886D01*
X484364Y240344D01*
X448592D01*
X440460Y248476D01*
X439213Y249309D01*
X437742Y249602D01*
X437742Y249602D01*
X404207D01*
X403059Y252373D01*
X430738Y280052D01*
X430738Y280052D01*
X431571Y281299D01*
X431864Y282770D01*
Y287750D01*
X431790Y288121D01*
X431790Y291750D01*
X431790Y294020D01*
Y299020D01*
X430844D01*
Y302480D01*
X430629Y303561D01*
X430017Y304477D01*
X430017Y304477D01*
X422642Y311852D01*
X421726Y312464D01*
X420645Y312679D01*
X419172Y315029D01*
Y315061D01*
X409908D01*
Y313449D01*
X404672D01*
Y314305D01*
X403289D01*
X403168Y314426D01*
X401698Y315035D01*
X400107D01*
X398637Y314426D01*
X398516Y314305D01*
X397132D01*
Y312386D01*
X396902Y311831D01*
Y310240D01*
X397132Y309685D01*
Y307766D01*
X398516D01*
X398637Y307644D01*
X400107Y307036D01*
X401698D01*
X403168Y307644D01*
X403289Y307766D01*
X404672D01*
Y307801D01*
X409908D01*
Y305368D01*
X419172D01*
Y305368D01*
X421870Y304636D01*
X424486Y302020D01*
X424250Y299020D01*
X422152Y298688D01*
X419152Y300426D01*
Y301132D01*
X409888D01*
Y298842D01*
X404540D01*
Y299020D01*
X403157D01*
X403036Y299141D01*
X401566Y299750D01*
X399974D01*
X398504Y299141D01*
X398383Y299020D01*
X397000D01*
Y297101D01*
X396770Y296546D01*
Y294954D01*
X397000Y294399D01*
Y292480D01*
X398383D01*
X398504Y292359D01*
X399974Y291750D01*
X401566D01*
X403036Y292359D01*
X403157Y292480D01*
X404540D01*
Y293193D01*
X409888D01*
Y291439D01*
X419152D01*
Y292496D01*
X421992Y292810D01*
X424250Y290819D01*
X424250Y288121D01*
X424176Y287750D01*
Y284362D01*
X398163Y258349D01*
X395195Y258783D01*
X386783Y274349D01*
X388319Y276926D01*
X396980D01*
Y276480D01*
X398363D01*
X398484Y276359D01*
X399954Y275750D01*
X401546D01*
X403016Y276359D01*
X403137Y276480D01*
X404520D01*
Y278399D01*
X404750Y278954D01*
Y280546D01*
X404520Y281101D01*
Y283020D01*
X403137D01*
X403016Y283141D01*
X401546Y283750D01*
X399954D01*
X398484Y283141D01*
X398363Y283020D01*
X396980D01*
Y282574D01*
X382338D01*
X376171Y293985D01*
X390218Y308032D01*
X391051Y309279D01*
X391344Y310750D01*
X391344Y310750D01*
Y322408D01*
X402416Y333480D01*
X404020D01*
Y335328D01*
X404321Y335779D01*
X404614Y337250D01*
Y349577D01*
X404770Y349954D01*
Y351545D01*
X404161Y353016D01*
X404040Y353137D01*
Y354520D01*
X402121D01*
X401566Y354750D01*
X399974D01*
X399419Y354520D01*
X397500D01*
Y353137D01*
X397379Y353016D01*
X396770Y351545D01*
Y349954D01*
X396926Y349577D01*
Y338862D01*
X394115Y336051D01*
X391344Y337199D01*
Y370408D01*
X392842Y371906D01*
X399597D01*
X399974Y371750D01*
X401566D01*
X403036Y372359D01*
X403657Y372980D01*
X404540D01*
Y373821D01*
X409775D01*
Y372194D01*
X419040D01*
Y381888D01*
X409775D01*
Y379470D01*
X404540D01*
Y379520D01*
X402121D01*
X401566Y379750D01*
X399974D01*
X399597Y379594D01*
X391344D01*
Y391158D01*
X396072Y395886D01*
X398577D01*
X398954Y395730D01*
X400546D01*
X400923Y395886D01*
X500348D01*
X502572Y394014D01*
X502572Y392886D01*
Y391116D01*
X502499Y390744D01*
X502572Y390373D01*
Y387474D01*
X504450D01*
X504871Y387193D01*
X506342Y386900D01*
X517571D01*
X517934Y386750D01*
X519526D01*
X520996Y387359D01*
X521117Y387480D01*
X522500D01*
Y387926D01*
X537111D01*
X538284Y386753D01*
X539200Y386141D01*
X540281Y385926D01*
X540281Y385926D01*
X555000D01*
X555000Y385926D01*
X556081Y386141D01*
X556997Y386753D01*
X569994Y399750D01*
X570796D01*
X572266Y400359D01*
X573391Y401484D01*
X574000Y402954D01*
Y404546D01*
X573391Y406016D01*
X572266Y407141D01*
X570796Y407750D01*
X569204D01*
X567734Y407141D01*
X566609Y406016D01*
X566000Y404546D01*
Y403744D01*
X553830Y391574D01*
X541451D01*
X540278Y392747D01*
X539362Y393359D01*
X538281Y393574D01*
X538281Y393574D01*
X525315D01*
X523132Y393920D01*
X521863Y396310D01*
X522500Y397480D01*
X522500D01*
X522730Y399954D01*
Y401545D01*
X522500Y402101D01*
Y404020D01*
X521117D01*
X520996Y404141D01*
X519526Y404750D01*
X517934D01*
X516464Y404141D01*
X516343Y404020D01*
X514960D01*
Y403574D01*
X492840D01*
Y425760D01*
X495840Y428112D01*
X496359Y427984D01*
X497484Y426859D01*
X498954Y426250D01*
X500477D01*
X503113Y423613D01*
X503864Y423112D01*
X504750Y422935D01*
X517420D01*
X531230Y409126D01*
Y401359D01*
X540770D01*
Y401359D01*
X543730D01*
Y401359D01*
X553270D01*
Y409126D01*
X558886Y414742D01*
X559388Y415493D01*
X559564Y416379D01*
Y427976D01*
X564887D01*
X564926Y427976D01*
Y427976D01*
X567887D01*
Y427976D01*
X577926D01*
Y439016D01*
X577481D01*
Y443226D01*
X578176D01*
Y443389D01*
X580996Y443422D01*
X582077Y443637D01*
X582993Y444249D01*
X594497Y455753D01*
X595109Y456669D01*
X595324Y457750D01*
X595324Y457750D01*
Y473755D01*
X595996Y474124D01*
X598980Y472340D01*
D02*
G37*
G36*
X315000Y320000D02*
X337508D01*
X339880Y318485D01*
X339880Y315725D01*
X339750Y315411D01*
Y313819D01*
X339880Y313505D01*
Y310745D01*
X342640D01*
X342954Y310615D01*
X344546D01*
X344860Y310745D01*
X347620D01*
Y313505D01*
X347750Y313819D01*
Y315411D01*
X347620Y315725D01*
X347620Y318485D01*
X349992Y320000D01*
X383656D01*
Y312342D01*
X369189Y297875D01*
X357250D01*
X356997Y297770D01*
X355980D01*
Y296879D01*
X355899Y296756D01*
X343821Y233097D01*
X285397D01*
X274579Y243915D01*
Y253730D01*
X278025D01*
Y267181D01*
X279081Y267391D01*
X279997Y268003D01*
X283965Y271971D01*
X284150Y272156D01*
X284616Y272473D01*
X285729Y272192D01*
X287252Y271550D01*
X287370Y271248D01*
X287370Y270069D01*
X287370Y270069D01*
X287370Y270035D01*
Y264500D01*
X287475Y264247D01*
Y257724D01*
X285753Y256002D01*
X285141Y255086D01*
X284926Y254005D01*
X284926Y254005D01*
Y246620D01*
X283880D01*
Y238880D01*
X291620D01*
Y238880D01*
X291880D01*
Y238880D01*
X299620D01*
Y239926D01*
X306375D01*
X308980Y238230D01*
X310250Y238125D01*
X311937Y238125D01*
X326250D01*
X326503Y238230D01*
X327520D01*
Y239247D01*
X327625Y239500D01*
Y296500D01*
X327520Y296753D01*
Y297770D01*
X326503D01*
X326250Y297875D01*
X311937D01*
X310250Y297875D01*
X308980Y297770D01*
X308980Y297029D01*
X298766Y274834D01*
X298755Y274536D01*
X298640Y274260D01*
X296040Y272875D01*
X289908D01*
X288745Y272875D01*
X288444Y272780D01*
X288398Y272770D01*
X288009Y272770D01*
X286361Y273832D01*
X285354Y274792D01*
X285324Y274967D01*
X285324Y275388D01*
Y286730D01*
X287520D01*
Y294227D01*
X287574Y294500D01*
Y295195D01*
X302994Y310615D01*
X303796D01*
X305266Y311224D01*
X306391Y312349D01*
X307000Y313819D01*
Y315411D01*
X306391Y316881D01*
X305266Y318006D01*
X303796Y318615D01*
X302204D01*
X300734Y318006D01*
X299609Y316881D01*
X299000Y315411D01*
Y314609D01*
X282753Y298362D01*
X282357Y297770D01*
X277480D01*
Y286730D01*
X277876D01*
X278540Y285057D01*
X276620Y282270D01*
X265485D01*
Y282094D01*
X255770D01*
Y288020D01*
X249862D01*
Y315125D01*
X288581D01*
X288582Y315126D01*
X288583Y315125D01*
X288583Y315126D01*
X289026Y315310D01*
X289064Y315325D01*
X289064Y315325D01*
X289553Y315528D01*
X289554Y315529D01*
X289554Y315529D01*
X289554Y315530D01*
X290451Y316429D01*
X290451Y316429D01*
X290451Y316429D01*
X290452Y316430D01*
X290655Y316923D01*
X290655Y316923D01*
X290669Y316957D01*
X290852Y317401D01*
X290852Y317401D01*
X290852Y317402D01*
X290852Y317403D01*
X290823Y327186D01*
X293739Y330186D01*
X298500D01*
X299386Y330362D01*
X300137Y330863D01*
X301887Y332613D01*
X302388Y333364D01*
X302565Y334250D01*
Y362230D01*
X307520D01*
Y372270D01*
X300253D01*
X271287Y401237D01*
X270659Y401656D01*
X270615Y401881D01*
X271441Y404656D01*
X292158D01*
X297703Y399111D01*
X297859Y398734D01*
X298984Y397609D01*
X300454Y397000D01*
X302046D01*
X303516Y397609D01*
X304641Y398734D01*
X305250Y400204D01*
Y401796D01*
X304641Y403266D01*
X303516Y404391D01*
X303139Y404547D01*
X301686Y406000D01*
X301860Y407448D01*
X302173Y408398D01*
X302773Y409156D01*
X315000D01*
Y320000D01*
D02*
G37*
G36*
X218630Y393780D02*
X233370D01*
Y397285D01*
X268691D01*
X296480Y369497D01*
Y362230D01*
X297936D01*
Y345274D01*
X294962Y344613D01*
X293990Y345015D01*
X291565D01*
Y354991D01*
X291493Y355163D01*
X291518Y355348D01*
X291299Y355632D01*
X291162Y355963D01*
X291065Y356003D01*
Y357991D01*
X290662Y358963D01*
X289690Y359366D01*
X285690D01*
X285491Y359283D01*
X276065Y364711D01*
Y383516D01*
X275960Y383769D01*
Y384786D01*
X274943D01*
X274690Y384891D01*
X243190D01*
X242938Y384786D01*
X241920D01*
Y383769D01*
X241816Y383516D01*
Y364711D01*
X236370Y361575D01*
X233370Y363309D01*
Y372720D01*
X218630D01*
Y365074D01*
X217003Y363447D01*
X216391Y362531D01*
X216176Y361450D01*
X216176Y361450D01*
Y326000D01*
X216176Y326000D01*
X216391Y324919D01*
X217003Y324003D01*
X224753Y316253D01*
X225669Y315641D01*
X226750Y315426D01*
X226750Y315426D01*
X234215D01*
X234940Y315125D01*
X242175D01*
Y288020D01*
X238230D01*
Y269980D01*
X247406D01*
Y158838D01*
X247341Y158800D01*
X245700Y157160D01*
X244796Y155594D01*
X239620D01*
Y155620D01*
X231880D01*
Y147880D01*
X231906D01*
Y143242D01*
X230421Y141757D01*
X226328D01*
X226328Y141757D01*
X225957Y141683D01*
X221758D01*
Y121843D01*
X230098D01*
Y132016D01*
X232013Y134069D01*
X233484Y134362D01*
X234731Y135195D01*
X238468Y138932D01*
X239301Y140179D01*
X239594Y141650D01*
X239594Y141650D01*
Y147880D01*
X239620D01*
Y147906D01*
X244796D01*
X245700Y146341D01*
X247341Y144700D01*
X249349Y143540D01*
X250041Y143355D01*
Y141615D01*
X250041Y141615D01*
X250334Y140144D01*
X251167Y138897D01*
X339282Y50782D01*
X339282Y50782D01*
X340529Y49949D01*
X342000Y49656D01*
X359550D01*
X360354Y46656D01*
X359162Y45968D01*
X357482Y44288D01*
X356295Y42232D01*
X355680Y39938D01*
Y37562D01*
X356295Y35268D01*
X357482Y33212D01*
X359162Y31532D01*
X361218Y30345D01*
X363512Y29730D01*
X365887D01*
X368182Y30345D01*
X370238Y31532D01*
X371918Y33212D01*
X373105Y35268D01*
X373720Y37562D01*
Y39938D01*
X373105Y42232D01*
X371918Y44288D01*
X370238Y45968D01*
X369046Y46656D01*
X369850Y49656D01*
X384950D01*
X385754Y46656D01*
X384562Y45968D01*
X382882Y44288D01*
X381695Y42232D01*
X381080Y39938D01*
Y37562D01*
X381695Y35268D01*
X382882Y33212D01*
X384562Y31532D01*
X386618Y30345D01*
X388913Y29730D01*
X391287D01*
X393582Y30345D01*
X395638Y31532D01*
X397318Y33212D01*
X398505Y35268D01*
X399120Y37562D01*
Y39938D01*
X398505Y42232D01*
X397318Y44288D01*
X395638Y45968D01*
X394446Y46656D01*
X395250Y49656D01*
X410350D01*
X411154Y46656D01*
X409962Y45968D01*
X408282Y44288D01*
X407095Y42232D01*
X406480Y39938D01*
Y37562D01*
X407095Y35268D01*
X408282Y33212D01*
X409962Y31532D01*
X412018Y30345D01*
X414313Y29730D01*
X416688D01*
X418982Y30345D01*
X421038Y31532D01*
X422718Y33212D01*
X423905Y35268D01*
X424520Y37562D01*
Y39938D01*
X423905Y42232D01*
X422718Y44288D01*
X421038Y45968D01*
X419846Y46656D01*
X420650Y49656D01*
X429661D01*
X431880Y47770D01*
X431880Y46656D01*
Y29730D01*
X449920D01*
Y46656D01*
X449920Y47770D01*
X452139Y49656D01*
X490000D01*
X490000Y49656D01*
X491471Y49949D01*
X492718Y50782D01*
X497468Y55532D01*
X497468Y55532D01*
X498301Y56779D01*
X498594Y58250D01*
Y74875D01*
X498301Y76346D01*
X497468Y77593D01*
X497468Y77593D01*
X494094Y80967D01*
Y91980D01*
X494270D01*
Y93517D01*
X494997Y94003D01*
X501770Y100776D01*
X504770Y99724D01*
X505379Y98254D01*
X506504Y97129D01*
X507974Y96520D01*
X509566D01*
X511371Y96459D01*
X512109Y94984D01*
X512676Y94417D01*
Y2344D01*
X292342D01*
X199772Y94914D01*
Y121843D01*
X200098D01*
Y141683D01*
X199772D01*
Y146730D01*
X207520D01*
Y164770D01*
X189980D01*
Y159594D01*
X138842D01*
X59594Y238842D01*
Y304230D01*
X71020D01*
Y304230D01*
X72480Y303980D01*
X72480Y303980D01*
X73916Y303980D01*
X83520D01*
X85075Y302518D01*
X85130Y301074D01*
Y291080D01*
X88336D01*
Y260600D01*
X88512Y259714D01*
X89014Y258964D01*
X94413Y253563D01*
X95164Y253062D01*
X97299Y251175D01*
Y249225D01*
X97423Y248603D01*
Y246797D01*
X97299Y246175D01*
Y244225D01*
X97423Y243603D01*
X97775Y243075D01*
X98303Y242723D01*
X98925Y242599D01*
X100485D01*
Y227450D01*
X100662Y226564D01*
X101163Y225813D01*
X112513Y214463D01*
X113264Y213962D01*
X114150Y213785D01*
X155880D01*
Y211080D01*
X166920D01*
Y220285D01*
X182150D01*
X183036Y220462D01*
X183787Y220963D01*
X185287Y222463D01*
X185788Y223214D01*
X185965Y224100D01*
Y237700D01*
X185788Y238586D01*
X185287Y239337D01*
X180170Y244453D01*
Y251180D01*
X180170Y251220D01*
Y254180D01*
X180170Y254220D01*
Y264220D01*
X177474D01*
Y285830D01*
X178020D01*
Y295370D01*
X177474D01*
Y300080D01*
X183420D01*
Y313120D01*
X179224D01*
Y330871D01*
X181588Y333234D01*
X182619Y332807D01*
X185521Y332230D01*
X188479D01*
X191381Y332807D01*
X194115Y333940D01*
X196575Y335583D01*
X198667Y337675D01*
X200310Y340135D01*
X201443Y342869D01*
X202020Y345771D01*
Y348729D01*
X201443Y351631D01*
X200310Y354365D01*
X198667Y356825D01*
X196575Y358917D01*
X194115Y360560D01*
X191381Y361693D01*
X188479Y362270D01*
X185521D01*
X182619Y361693D01*
X179885Y360560D01*
X177425Y358917D01*
X175333Y356825D01*
X173689Y354365D01*
X172557Y351631D01*
X171980Y348729D01*
Y345771D01*
X172557Y342869D01*
X173689Y340135D01*
X175333Y337675D01*
X176687Y336322D01*
X174403Y334038D01*
X173791Y333121D01*
X173576Y332041D01*
X173576Y332040D01*
Y313120D01*
X169420D01*
X169380Y313120D01*
X166420D01*
X166380Y313120D01*
X162224D01*
Y332850D01*
X162224Y332850D01*
X162009Y333931D01*
X161397Y334847D01*
X161397Y334847D01*
X160020Y336224D01*
Y362270D01*
X129980D01*
Y332230D01*
X156026D01*
X156576Y331680D01*
Y313120D01*
X152380D01*
Y300080D01*
X158826D01*
Y295370D01*
X158280D01*
Y292066D01*
X155406Y289520D01*
X154670Y289620D01*
Y289620D01*
X144670D01*
X144630Y289620D01*
X141670D01*
X141630Y289620D01*
X134529D01*
X131714Y290850D01*
X131714Y292585D01*
Y298730D01*
X133270D01*
Y306470D01*
X128803D01*
X124865Y310408D01*
X124114Y310910D01*
X123228Y311086D01*
X122670D01*
Y314120D01*
X120844D01*
Y320500D01*
X120844Y320500D01*
X120551Y321971D01*
X119718Y323218D01*
X115594Y327342D01*
Y387158D01*
X132809Y404373D01*
X134825Y404124D01*
X135678Y401086D01*
X135425Y400917D01*
X133333Y398825D01*
X131690Y396365D01*
X130557Y393631D01*
X129980Y390729D01*
Y387771D01*
X130557Y384869D01*
X131690Y382135D01*
X133333Y379675D01*
X135425Y377583D01*
X137885Y375939D01*
X140619Y374807D01*
X143521Y374230D01*
X146479D01*
X149381Y374807D01*
X152115Y375939D01*
X154575Y377583D01*
X156667Y379675D01*
X158311Y382135D01*
X159443Y384869D01*
X160020Y387771D01*
Y390729D01*
X159443Y393631D01*
X158311Y396365D01*
X156667Y398825D01*
X154575Y400917D01*
X153468Y401656D01*
X154378Y404656D01*
X177622D01*
X178532Y401656D01*
X177425Y400917D01*
X175333Y398825D01*
X173689Y396365D01*
X172557Y393631D01*
X171980Y390729D01*
Y387771D01*
X172557Y384869D01*
X173689Y382135D01*
X175333Y379675D01*
X177425Y377583D01*
X179885Y375939D01*
X182619Y374807D01*
X185521Y374230D01*
X188479D01*
X191381Y374807D01*
X194115Y375939D01*
X196575Y377583D01*
X198667Y379675D01*
X200310Y382135D01*
X201443Y384869D01*
X202020Y387771D01*
Y390729D01*
X201443Y393631D01*
X200310Y396365D01*
X198667Y398825D01*
X196575Y400917D01*
X195468Y401656D01*
X196378Y404656D01*
X218630D01*
Y393780D01*
D02*
G37*
G36*
X274690Y363916D02*
X290190Y354991D01*
Y335191D01*
X227690D01*
Y354991D01*
X243190Y363916D01*
Y383516D01*
X274690D01*
Y363916D01*
D02*
G37*
G36*
X178561Y443676D02*
X177425Y442917D01*
X175333Y440825D01*
X173689Y438365D01*
X172557Y435631D01*
X171980Y432729D01*
Y429771D01*
X172557Y426869D01*
X173689Y424135D01*
X175333Y421675D01*
X177425Y419583D01*
X179885Y417939D01*
X182619Y416807D01*
X185521Y416230D01*
X186048D01*
X186759Y415344D01*
X185321Y412344D01*
X131500D01*
X130029Y412051D01*
X128782Y411218D01*
X128782Y411218D01*
X109032Y391468D01*
X108199Y390221D01*
X107906Y388750D01*
X107906Y388750D01*
Y327342D01*
X107408Y326844D01*
X74491D01*
X74195Y329844D01*
X77105Y330423D01*
X80289Y331742D01*
X83156Y333657D01*
X85593Y336094D01*
X87508Y338961D01*
X88827Y342145D01*
X89500Y345526D01*
Y348974D01*
X88827Y352355D01*
X87508Y355539D01*
X85593Y358406D01*
X83156Y360843D01*
X80289Y362758D01*
X77105Y364077D01*
X73724Y364750D01*
X70276D01*
X66895Y364077D01*
X63711Y362758D01*
X60844Y360843D01*
X58407Y358406D01*
X56492Y355539D01*
X55173Y352355D01*
X54500Y348974D01*
Y345526D01*
X55173Y342145D01*
X56492Y338961D01*
X58407Y336094D01*
X60844Y333657D01*
X63711Y331742D01*
X66895Y330423D01*
X69805Y329844D01*
X69509Y326844D01*
X61750D01*
X61750Y326844D01*
X60279Y326551D01*
X59032Y325718D01*
X59032Y325718D01*
X53032Y319718D01*
X52199Y318471D01*
X52074Y317845D01*
X49074Y318141D01*
Y365330D01*
X130420Y446676D01*
X177651D01*
X178561Y443676D01*
D02*
G37*
G36*
X289477Y317399D02*
X288581Y316500D01*
X234940D01*
Y329991D01*
X251440D01*
Y324991D01*
X254431Y322000D01*
X269949D01*
X272940Y324991D01*
Y329991D01*
X289440D01*
X289477Y317399D01*
D02*
G37*
G36*
X110574Y319379D02*
X113156Y317635D01*
Y314120D01*
X111630D01*
Y304080D01*
X111630D01*
Y303027D01*
X108630Y301120D01*
X98380D01*
Y301120D01*
X96170Y301120D01*
Y304080D01*
X96170D01*
Y314120D01*
X86479D01*
X85130Y314120D01*
Y314120D01*
X83520Y314020D01*
Y314020D01*
X73917D01*
X72480Y314020D01*
X72480Y314020D01*
X71020Y313770D01*
Y313770D01*
X62199D01*
X60956Y316770D01*
X63342Y319156D01*
X109000D01*
X109000Y319156D01*
X110372Y319429D01*
X110574Y319379D01*
D02*
G37*
G36*
X171826Y298645D02*
Y295370D01*
X171280D01*
Y285830D01*
X171826D01*
Y266341D01*
X169704Y264220D01*
X166920Y264220D01*
X166130Y264220D01*
X155880D01*
Y262514D01*
X136241D01*
X135997Y262677D01*
X135375Y262801D01*
X130152D01*
X127582Y263132D01*
X127251Y265702D01*
Y270925D01*
X127216Y271104D01*
Y271392D01*
X134403Y278580D01*
X141630D01*
X141670Y278580D01*
X144630D01*
X144670Y278580D01*
X154670D01*
Y282626D01*
X157900D01*
X157900Y282626D01*
X158981Y282841D01*
X159897Y283453D01*
X162274Y285830D01*
X165020D01*
Y295370D01*
X165020D01*
X164914Y298370D01*
X166420Y300080D01*
X169380D01*
X171826Y298645D01*
D02*
G37*
G36*
X120413Y248563D02*
X121164Y248062D01*
X121927Y247910D01*
X122082Y247847D01*
X124302Y245212D01*
X124006Y243904D01*
X123675Y243851D01*
X123053Y243727D01*
X121247D01*
X120625Y243851D01*
X118675D01*
X118053Y243727D01*
X117525Y243375D01*
X117172Y242847D01*
X117049Y242225D01*
Y234475D01*
X117172Y233853D01*
X117525Y233325D01*
X118053Y232973D01*
X118675Y232849D01*
X120625D01*
X121247Y232973D01*
X123053D01*
X123675Y232849D01*
X125625D01*
X126247Y232973D01*
X126551Y233176D01*
X131812Y227915D01*
X131432Y226127D01*
X130678Y224914D01*
X118359D01*
X111964Y231309D01*
Y233609D01*
X112127Y233853D01*
X112251Y234475D01*
Y242225D01*
X112127Y242847D01*
X111775Y243375D01*
X111247Y243727D01*
X110625Y243851D01*
X108623Y244173D01*
X108301Y246175D01*
X108177Y246797D01*
Y248603D01*
X108301Y249225D01*
Y251175D01*
X108177Y251797D01*
Y253603D01*
X108301Y254225D01*
Y256171D01*
X108842Y256627D01*
X109189Y256917D01*
X111715Y257262D01*
X120413Y248563D01*
D02*
G37*
G36*
X326250Y239500D02*
X310250D01*
X300015Y261740D01*
Y263270D01*
X299311D01*
X298745Y264500D01*
X288745D01*
Y271500D01*
X298745D01*
X299311Y272730D01*
X300015D01*
Y274260D01*
X310250Y296500D01*
X326250D01*
Y239500D01*
D02*
G37*
G36*
X441564Y236500D02*
X433408Y228344D01*
X428520D01*
Y230270D01*
X415480D01*
Y218770D01*
X415449Y217897D01*
X414881Y217347D01*
X412480Y217270D01*
X400980D01*
Y206270D01*
X400980Y204230D01*
X400980Y201230D01*
Y192230D01*
X407977D01*
X408250Y192176D01*
X409830D01*
X420030Y181976D01*
X420141Y181419D01*
X420753Y180503D01*
X421669Y179891D01*
X422750Y179676D01*
X423000Y179725D01*
X423250Y179676D01*
X437668D01*
X438234Y179109D01*
X439704Y178500D01*
X441296D01*
X442766Y179109D01*
X443333Y179676D01*
X468080D01*
X496486Y151270D01*
X495243Y148270D01*
X494730D01*
Y137564D01*
X493250D01*
X492364Y137388D01*
X491613Y136887D01*
X488613Y133887D01*
X488112Y133136D01*
X487935Y132250D01*
Y129614D01*
X461939D01*
X461938Y129614D01*
X460467Y129321D01*
X459220Y128488D01*
X459220Y128488D01*
X458076Y127344D01*
X454020D01*
Y127520D01*
X445980D01*
X443480Y128728D01*
X442578Y129331D01*
X441107Y129624D01*
X441107Y129624D01*
X436823D01*
X435893Y129809D01*
X435893Y129809D01*
X424859D01*
X424545Y130089D01*
X423272Y132809D01*
X423855Y133818D01*
X424470Y136112D01*
Y138488D01*
X423855Y140782D01*
X422668Y142838D01*
X420988Y144518D01*
X418932Y145705D01*
X416637Y146320D01*
X414263D01*
X411968Y145705D01*
X409912Y144518D01*
X408232Y142838D01*
X407045Y140782D01*
X406430Y138488D01*
Y136112D01*
X407045Y133818D01*
X407803Y132504D01*
X407793Y132410D01*
X406796Y130289D01*
X406137Y129614D01*
X399363D01*
X398763Y130229D01*
X397760Y132614D01*
X398455Y133818D01*
X399070Y136112D01*
Y138488D01*
X398455Y140782D01*
X397268Y142838D01*
X395588Y144518D01*
X393532Y145705D01*
X391237Y146320D01*
X388862D01*
X386568Y145705D01*
X384512Y144518D01*
X382832Y142838D01*
X381645Y140782D01*
X381030Y138488D01*
Y136112D01*
X381645Y133818D01*
X382340Y132614D01*
X382044Y131251D01*
X381554Y130241D01*
X380895Y129456D01*
X380217Y129321D01*
X378970Y128488D01*
X377826Y127344D01*
X376282D01*
X373670Y128280D01*
Y146320D01*
X355630D01*
Y134844D01*
X352858Y133696D01*
X338594Y147961D01*
Y213408D01*
X341415Y216229D01*
X343699Y217957D01*
X344716D01*
X344969Y217852D01*
X359531D01*
X359784Y217957D01*
X360801D01*
Y218511D01*
X383236Y238111D01*
X397267Y238125D01*
X397482Y238215D01*
X398551Y238215D01*
X398551Y238981D01*
X399372Y241914D01*
X436150D01*
X441564Y236500D01*
D02*
G37*
G36*
X397281Y252031D02*
Y239506D01*
X397266Y239500D01*
X382719Y239485D01*
X359531Y219227D01*
X344969D01*
Y231773D01*
X357250Y296500D01*
X373250D01*
X397281Y252031D01*
D02*
G37*
G36*
X265485Y263230D02*
Y253730D01*
X268931D01*
Y242745D01*
X268931Y242745D01*
X269146Y241664D01*
X269758Y240748D01*
X282230Y228276D01*
X282230Y228276D01*
X283146Y227664D01*
X284227Y227449D01*
X337759D01*
X338691Y225251D01*
X338763Y224449D01*
X332032Y217718D01*
X331199Y216471D01*
X330906Y215000D01*
X330906Y215000D01*
Y194503D01*
X328480Y193020D01*
X325520D01*
X325480Y193020D01*
X315927D01*
X314404Y194785D01*
X314020Y195415D01*
Y204770D01*
X302980D01*
Y195270D01*
X302980Y195230D01*
Y192270D01*
X300770Y190324D01*
X297020D01*
Y190770D01*
X286480D01*
Y190324D01*
X278020D01*
Y197270D01*
X276553D01*
X276141Y198266D01*
X275016Y199391D01*
X273546Y200000D01*
X271954D01*
X270484Y199391D01*
X269359Y198266D01*
X268946Y197270D01*
X267480D01*
Y190730D01*
Y184230D01*
X278020D01*
Y184676D01*
X286363D01*
X286432Y181676D01*
X276830Y172074D01*
X275083D01*
X274516Y172641D01*
X273046Y173250D01*
X271454D01*
X269984Y172641D01*
X268859Y171516D01*
X268250Y170046D01*
Y168454D01*
X268859Y166984D01*
X269984Y165859D01*
X271454Y165250D01*
X273046D01*
X274516Y165859D01*
X275083Y166426D01*
X278000D01*
X278000Y166426D01*
X279081Y166641D01*
X279997Y167253D01*
X290420Y177676D01*
X291250D01*
X291250Y177676D01*
X291523Y177730D01*
X297020D01*
Y184676D01*
X302980D01*
Y182730D01*
X314020D01*
X315480Y181980D01*
Y181980D01*
X325480D01*
X325520Y181980D01*
X328480D01*
X330906Y180497D01*
Y146369D01*
X330906Y146369D01*
X331199Y144897D01*
X332032Y143650D01*
X350412Y125270D01*
X349170Y122270D01*
X341980D01*
Y110730D01*
X347379D01*
X347750Y110656D01*
X347750Y110656D01*
X348408D01*
X353022Y106042D01*
X351874Y103270D01*
X348480D01*
Y91730D01*
X348480D01*
X348230Y91020D01*
X348230Y91020D01*
X348230Y88834D01*
Y79980D01*
X349281D01*
Y74020D01*
X348980D01*
Y62980D01*
X358480D01*
X358520Y62980D01*
X361480D01*
X361520Y62980D01*
X370906D01*
Y57344D01*
X343592D01*
X259100Y141837D01*
X258160Y144700D01*
X259800Y146341D01*
X260960Y148350D01*
X261560Y150590D01*
Y152910D01*
X260960Y155150D01*
X259800Y157160D01*
X258160Y158800D01*
X256150Y159960D01*
X255094Y160243D01*
Y269980D01*
X255770D01*
Y274406D01*
X265485D01*
Y263230D01*
D02*
G37*
G36*
X419473Y119656D02*
X422062Y117715D01*
X422230Y117379D01*
Y111925D01*
X427434D01*
X427805Y111851D01*
X428274D01*
X432660Y107465D01*
X431418Y104465D01*
X428730D01*
Y92925D01*
X428730D01*
X428480Y92215D01*
X428480Y92215D01*
X428480Y90028D01*
Y81175D01*
X429906D01*
Y73965D01*
X429230D01*
Y62925D01*
X438770D01*
Y62925D01*
X441730D01*
Y62925D01*
X450956D01*
Y57344D01*
X418344D01*
Y75750D01*
X418051Y77221D01*
X417218Y78468D01*
X417218Y78468D01*
X413594Y82092D01*
Y91980D01*
X413770D01*
Y100020D01*
X413770D01*
Y100980D01*
X413770D01*
Y107480D01*
X413770Y109020D01*
X413770D01*
Y110480D01*
X413770D01*
Y118520D01*
X416299Y119656D01*
X419473D01*
X419473Y119656D01*
D02*
G37*
G36*
X379418D02*
X381872Y117551D01*
X381980Y117344D01*
Y111730D01*
X387378D01*
X387750Y111656D01*
X387750Y111656D01*
X388128D01*
X392743Y107042D01*
X391595Y104270D01*
X388480D01*
Y92730D01*
X388480D01*
X388230Y92020D01*
X388230Y92020D01*
X388230Y89834D01*
Y80980D01*
X389656D01*
Y74020D01*
X388980D01*
Y62980D01*
X398520D01*
Y62980D01*
X401480D01*
Y62980D01*
X410656D01*
Y57344D01*
X378594D01*
Y75500D01*
X378594Y75500D01*
X378301Y76971D01*
X377468Y78218D01*
X373594Y82092D01*
Y91230D01*
X373770D01*
Y99270D01*
X373770D01*
Y100230D01*
X373770D01*
Y107480D01*
X373770Y108270D01*
X373770D01*
Y110480D01*
X373770D01*
Y118520D01*
X376299Y119656D01*
X379418D01*
X379418Y119656D01*
D02*
G37*
G36*
X459668D02*
X462122Y117551D01*
X462230Y117344D01*
Y111730D01*
X468727D01*
X469000Y111676D01*
X469000Y111676D01*
X469539D01*
X474173Y107042D01*
X473025Y104270D01*
X468730D01*
Y92730D01*
X468730D01*
X468480Y92020D01*
X468480Y92020D01*
X468480Y89834D01*
Y80980D01*
X470031D01*
Y74020D01*
X469480D01*
Y62980D01*
X479020D01*
Y62980D01*
X481980D01*
Y62980D01*
X490906D01*
Y59842D01*
X488408Y57344D01*
X458644D01*
Y75950D01*
X458644Y75950D01*
X458351Y77421D01*
X457518Y78668D01*
X457518Y78668D01*
X453844Y82342D01*
Y91980D01*
X454020D01*
Y100020D01*
X454020D01*
Y100980D01*
X454020D01*
Y107480D01*
X454020Y109020D01*
X454020D01*
Y110480D01*
X454020D01*
Y118520D01*
X456549Y119656D01*
X459668D01*
X459668Y119656D01*
D02*
G37*
%LPC*%
G36*
X73724Y448750D02*
X70276D01*
X66895Y448078D01*
X63711Y446758D01*
X60844Y444843D01*
X58407Y442406D01*
X56492Y439539D01*
X55173Y436355D01*
X54500Y432974D01*
Y429526D01*
X55173Y426145D01*
X56492Y422961D01*
X58407Y420094D01*
X60844Y417657D01*
X63711Y415742D01*
X66895Y414422D01*
X70276Y413750D01*
X73724D01*
X77105Y414422D01*
X80289Y415742D01*
X83156Y417657D01*
X85593Y420094D01*
X87508Y422961D01*
X88827Y426145D01*
X89500Y429526D01*
Y432974D01*
X88827Y436355D01*
X87508Y439539D01*
X85593Y442406D01*
X83156Y444843D01*
X80289Y446758D01*
X77105Y448078D01*
X73724Y448750D01*
D02*
G37*
G36*
X459320Y475620D02*
X450280D01*
Y445380D01*
X459320D01*
Y475620D01*
D02*
G37*
G36*
X544046Y278250D02*
X542454D01*
X540984Y277641D01*
X539859Y276516D01*
X539250Y275046D01*
Y273454D01*
X539859Y271984D01*
X540984Y270859D01*
X542454Y270250D01*
X543256D01*
X553426Y260080D01*
Y241829D01*
X552120Y239370D01*
X549360Y239370D01*
X549046Y239500D01*
X547454D01*
X547141Y239370D01*
X544380D01*
Y236609D01*
X544250Y236296D01*
Y234704D01*
X544380Y234391D01*
Y231630D01*
X547141D01*
X547454Y231500D01*
X549046D01*
X549360Y231630D01*
X552120Y231630D01*
X553426Y229171D01*
Y229000D01*
X553426Y229000D01*
X553641Y227919D01*
X554253Y227003D01*
X567870Y213386D01*
X568787Y212773D01*
X569867Y212558D01*
X571785D01*
X572734Y211609D01*
X574204Y211000D01*
X575796D01*
X577266Y211609D01*
X578391Y212734D01*
X579000Y214204D01*
Y215796D01*
X578391Y217266D01*
X577266Y218391D01*
X575796Y219000D01*
X574204D01*
X572734Y218391D01*
X572550Y218207D01*
X571037D01*
X559074Y230170D01*
Y261250D01*
X559074Y261250D01*
X558859Y262331D01*
X558247Y263247D01*
X547250Y274244D01*
Y275046D01*
X546641Y276516D01*
X545516Y277641D01*
X544046Y278250D01*
D02*
G37*
G36*
X606546Y251250D02*
X604954D01*
X603484Y250641D01*
X602359Y249516D01*
X601750Y248046D01*
Y246454D01*
X602359Y244984D01*
X603176Y244167D01*
Y238171D01*
X600006Y235001D01*
X599204D01*
X597734Y234392D01*
X596609Y233267D01*
X596000Y231797D01*
Y230205D01*
X596609Y228735D01*
X597734Y227610D01*
X599204Y227001D01*
X600796D01*
X602266Y227610D01*
X603391Y228735D01*
X604000Y230205D01*
Y231007D01*
X607997Y235004D01*
X608609Y235920D01*
X608824Y237001D01*
X608824Y237001D01*
Y244667D01*
X609141Y244984D01*
X609750Y246454D01*
Y248046D01*
X609141Y249516D01*
X608016Y250641D01*
X606546Y251250D01*
D02*
G37*
G36*
X441296Y215000D02*
X439704D01*
X439390Y214870D01*
X436630D01*
Y212110D01*
X436500Y211796D01*
Y210204D01*
X436630Y209890D01*
Y207130D01*
X439390D01*
X439704Y207000D01*
X441296D01*
X441609Y207130D01*
X444370D01*
Y209890D01*
X444500Y210204D01*
Y211796D01*
X444370Y212110D01*
Y214870D01*
X441609D01*
X441296Y215000D01*
D02*
G37*
G36*
X572546Y237750D02*
X570954D01*
X570640Y237620D01*
X567880D01*
Y234860D01*
X567750Y234546D01*
Y232954D01*
X567880Y232640D01*
Y229880D01*
X570184D01*
X598738Y201326D01*
X598623Y201102D01*
X598623Y201102D01*
X597301Y198520D01*
X595671Y198520D01*
X584270D01*
X584230Y198520D01*
X581270D01*
X581230Y198520D01*
X567230D01*
Y185480D01*
X571426D01*
Y177919D01*
X568426Y176010D01*
X567381Y176443D01*
X564479Y177020D01*
X561521D01*
X558619Y176443D01*
X555885Y175310D01*
X553425Y173667D01*
X551333Y171575D01*
X549689Y169115D01*
X548557Y166381D01*
X547980Y163479D01*
Y160521D01*
X548557Y157619D01*
X549689Y154885D01*
X551333Y152425D01*
X553425Y150333D01*
X555885Y148689D01*
X558619Y147557D01*
X561521Y146980D01*
X564479D01*
X567381Y147557D01*
X570115Y148689D01*
X571435Y149571D01*
X583753Y137253D01*
X583753Y137253D01*
X584669Y136641D01*
X585750Y136426D01*
X597567D01*
X598163Y133426D01*
X597885Y133310D01*
X595425Y131667D01*
X593333Y129575D01*
X591689Y127115D01*
X590557Y124381D01*
X589980Y121479D01*
Y118521D01*
X590557Y115619D01*
X591689Y112885D01*
X593333Y110425D01*
X595425Y108333D01*
X597885Y106689D01*
X600619Y105557D01*
X603521Y104980D01*
X606479D01*
X609381Y105557D01*
X612115Y106689D01*
X614575Y108333D01*
X616667Y110425D01*
X618311Y112885D01*
X619443Y115619D01*
X620020Y118521D01*
Y121479D01*
X619443Y124381D01*
X618311Y127115D01*
X616667Y129575D01*
X614575Y131667D01*
X612115Y133310D01*
X611837Y133426D01*
X612433Y136426D01*
X626730D01*
Y135880D01*
X636270Y135880D01*
X637656Y133454D01*
Y106811D01*
X636419D01*
Y91189D01*
X646581D01*
Y106811D01*
X645344D01*
Y164000D01*
X645051Y165471D01*
X644218Y166718D01*
X575620Y235316D01*
Y237620D01*
X572859D01*
X572546Y237750D01*
D02*
G37*
G36*
X679724Y179500D02*
X676276D01*
X672896Y178827D01*
X669711Y177508D01*
X666844Y175593D01*
X664407Y173156D01*
X662492Y170289D01*
X661172Y167104D01*
X660500Y163724D01*
Y160276D01*
X661172Y156895D01*
X662492Y153711D01*
X664407Y150844D01*
X666844Y148407D01*
X669711Y146492D01*
X672896Y145173D01*
X676276Y144500D01*
X679724D01*
X683105Y145173D01*
X686289Y146492D01*
X689156Y148407D01*
X691593Y150844D01*
X693508Y153711D01*
X694827Y156895D01*
X695500Y160276D01*
Y163724D01*
X694827Y167104D01*
X693508Y170289D01*
X691593Y173156D01*
X689156Y175593D01*
X686289Y177508D01*
X683105Y178827D01*
X679724Y179500D01*
D02*
G37*
G36*
X564479Y135020D02*
X561521D01*
X558619Y134443D01*
X555885Y133310D01*
X553425Y131667D01*
X551333Y129575D01*
X549689Y127115D01*
X548557Y124381D01*
X547980Y121479D01*
Y118521D01*
X548557Y115619D01*
X549689Y112885D01*
X551333Y110425D01*
X553425Y108333D01*
X555885Y106689D01*
X558619Y105557D01*
X561521Y104980D01*
X564479D01*
X567381Y105557D01*
X570115Y106689D01*
X572575Y108333D01*
X574667Y110425D01*
X576311Y112885D01*
X577443Y115619D01*
X578020Y118521D01*
Y121479D01*
X577443Y124381D01*
X576311Y127115D01*
X574667Y129575D01*
X572575Y131667D01*
X570115Y133310D01*
X567381Y134443D01*
X564479Y135020D01*
D02*
G37*
G36*
X679724Y95500D02*
X676276D01*
X672896Y94827D01*
X669711Y93508D01*
X666844Y91593D01*
X664407Y89156D01*
X662492Y86289D01*
X661172Y83105D01*
X660500Y79724D01*
Y76276D01*
X661172Y72895D01*
X662492Y69711D01*
X664407Y66844D01*
X666844Y64407D01*
X669711Y62492D01*
X672896Y61172D01*
X676276Y60500D01*
X679724D01*
X683105Y61172D01*
X686289Y62492D01*
X689156Y64407D01*
X691593Y66844D01*
X693508Y69711D01*
X694827Y72895D01*
X695500Y76276D01*
Y79724D01*
X694827Y83105D01*
X693508Y86289D01*
X691593Y89156D01*
X689156Y91593D01*
X686289Y93508D01*
X683105Y94827D01*
X679724Y95500D01*
D02*
G37*
G36*
X564479Y93020D02*
X561521D01*
X558619Y92443D01*
X555885Y91311D01*
X553425Y89667D01*
X551333Y87575D01*
X549689Y85115D01*
X548557Y82381D01*
X547980Y79479D01*
Y76521D01*
X548557Y73619D01*
X549689Y70885D01*
X551333Y68425D01*
X553425Y66333D01*
X555885Y64689D01*
X558619Y63557D01*
X561521Y62980D01*
X564479D01*
X567381Y63557D01*
X570115Y64689D01*
X570570Y64994D01*
X581782Y53782D01*
X583029Y52949D01*
X584500Y52656D01*
X584500Y52656D01*
X637521D01*
X637521Y52656D01*
X638992Y52949D01*
X640239Y53782D01*
X641122Y54665D01*
X641500Y54589D01*
X643482Y54984D01*
X645163Y56107D01*
X646286Y57787D01*
X646680Y59770D01*
Y65230D01*
X646286Y67213D01*
X645163Y68893D01*
X643482Y70016D01*
X641500Y70411D01*
X639518Y70016D01*
X637837Y68893D01*
X636714Y67213D01*
X636320Y65230D01*
Y60735D01*
X635929Y60344D01*
X586092D01*
X576006Y70430D01*
X576311Y70885D01*
X577443Y73619D01*
X578020Y76521D01*
Y79479D01*
X577443Y82381D01*
X576311Y85115D01*
X574667Y87575D01*
X572575Y89667D01*
X570115Y91311D01*
X567381Y92443D01*
X564479Y93020D01*
D02*
G37*
G36*
X416637Y171720D02*
X414263D01*
X411968Y171105D01*
X409912Y169918D01*
X408232Y168238D01*
X407045Y166182D01*
X406430Y163888D01*
Y161513D01*
X407045Y159218D01*
X408232Y157162D01*
X409912Y155482D01*
X411968Y154295D01*
X414263Y153680D01*
X416637D01*
X418932Y154295D01*
X420988Y155482D01*
X422668Y157162D01*
X423855Y159218D01*
X424470Y161513D01*
Y163888D01*
X423855Y166182D01*
X422668Y168238D01*
X420988Y169918D01*
X418932Y171105D01*
X416637Y171720D01*
D02*
G37*
G36*
X391237D02*
X388862D01*
X386568Y171105D01*
X384512Y169918D01*
X382832Y168238D01*
X381645Y166182D01*
X381030Y163888D01*
Y161513D01*
X381645Y159218D01*
X382832Y157162D01*
X384512Y155482D01*
X386568Y154295D01*
X388862Y153680D01*
X391237D01*
X393532Y154295D01*
X395588Y155482D01*
X397268Y157162D01*
X398455Y159218D01*
X399070Y161513D01*
Y163888D01*
X398455Y166182D01*
X397268Y168238D01*
X395588Y169918D01*
X393532Y171105D01*
X391237Y171720D01*
D02*
G37*
G36*
X365838D02*
X363462D01*
X361168Y171105D01*
X359112Y169918D01*
X357432Y168238D01*
X356245Y166182D01*
X355630Y163888D01*
Y161513D01*
X356245Y159218D01*
X357432Y157162D01*
X359112Y155482D01*
X361168Y154295D01*
X363462Y153680D01*
X365838D01*
X368132Y154295D01*
X370188Y155482D01*
X371868Y157162D01*
X373055Y159218D01*
X373670Y161513D01*
Y163888D01*
X373055Y166182D01*
X371868Y168238D01*
X370188Y169918D01*
X368132Y171105D01*
X365838Y171720D01*
D02*
G37*
%LPD*%
D14*
X111750Y325750D02*
Y388750D01*
X109000Y323000D02*
X111750Y325750D01*
X61750Y323000D02*
X109000D01*
X117000Y309250D02*
Y320500D01*
X111750Y325750D02*
X117000Y320500D01*
Y309250D02*
X117150Y309100D01*
X117478Y308772D01*
X111750Y388750D02*
X131500Y408500D01*
X293750D01*
X301250Y401000D01*
X55750Y317000D02*
X61750Y323000D01*
X55750Y237250D02*
Y317000D01*
Y237250D02*
X137250Y155750D01*
X198750D01*
X509750Y281770D02*
Y294344D01*
X485956Y236500D02*
X519750Y270294D01*
Y284020D01*
X529480Y293750D02*
X626250D01*
X519750Y284020D02*
X529480Y293750D01*
X506342Y390744D02*
X518725D01*
X518730Y390750D01*
X490250Y399730D02*
X517710D01*
X399750D02*
X490250D01*
X35250Y440250D02*
X72750Y477750D01*
X35250Y219250D02*
Y440250D01*
Y219250D02*
X102750Y151750D01*
X72750Y477750D02*
X73500D01*
X290750Y-1500D02*
X515500D01*
X195928Y93322D02*
X290750Y-1500D01*
X195928Y93322D02*
Y131763D01*
X251250Y153250D02*
Y274500D01*
X247000Y278750D02*
X251250Y274500D01*
Y153250D02*
X252750Y151750D01*
X235750D02*
X252750D01*
X247000Y278750D02*
Y279000D01*
X246769Y278250D02*
X271005D01*
X387500Y324000D02*
X400750Y337250D01*
X387500Y324000D02*
Y372000D01*
Y310750D02*
Y324000D01*
X400770Y337250D02*
Y350750D01*
X515500Y-1500D02*
X645000D01*
X350750Y330365D02*
Y332865D01*
Y319250D02*
Y330365D01*
Y319250D02*
X355000Y315000D01*
X325250Y352865D02*
X327750Y350365D01*
X312865Y352865D02*
X325250D01*
X310000Y350000D02*
X312865Y352865D01*
X311975Y373026D02*
X331500D01*
X310000Y375000D02*
X311975Y373026D01*
X305224Y394776D02*
X331500D01*
X305000Y395000D02*
X305224Y394776D01*
X252750Y151750D02*
X253885Y150615D01*
Y141615D02*
X342000Y53500D01*
X374750D01*
X253885Y141615D02*
Y150615D01*
X473875Y68875D02*
Y86125D01*
Y68875D02*
X474250Y68500D01*
X473500Y86500D02*
X473875Y86125D01*
X386750Y116500D02*
X387750Y115500D01*
X389721D02*
X400205Y105015D01*
X387750Y115500D02*
X389721D01*
X427000Y116500D02*
X427805Y115695D01*
X436938Y108624D02*
X436938D01*
X429867Y115695D02*
X436938Y108624D01*
X427805Y115695D02*
X429867D01*
X436938Y108624D02*
X440578Y104984D01*
X651750Y367481D02*
Y389481D01*
X657250Y225000D02*
X707500Y174750D01*
X633750Y225000D02*
X657250D01*
X707500Y61000D02*
Y174750D01*
X645000Y-1500D02*
X707500Y61000D01*
X195928Y152928D02*
X198750Y155750D01*
X195928Y131763D02*
Y152928D01*
X226328Y137913D02*
X232013D01*
X235750Y141650D01*
X225928Y137513D02*
X226328Y137913D01*
X235750Y141650D02*
Y151750D01*
X225928Y131763D02*
Y137513D01*
X334750Y146369D02*
Y215000D01*
X626250Y241750D02*
Y293750D01*
X631000Y237000D02*
X633750D01*
X626250Y241750D02*
X631000Y237000D01*
X301250Y413000D02*
X367250D01*
X387500Y392750D01*
X517710Y399730D02*
X518730Y400750D01*
X650500Y322231D02*
X651750Y323481D01*
X626250Y293750D02*
X650500Y318000D01*
Y322231D01*
X651750Y323481D02*
Y345481D01*
Y356481D02*
Y367481D01*
Y345481D02*
Y356481D01*
X638750D02*
X651750D01*
X447000Y236500D02*
X485956D01*
X391250Y375750D02*
X400770D01*
X387500Y372000D02*
X391250Y375750D01*
X387500Y392750D02*
X394480Y399730D01*
X399750D01*
X387500Y372000D02*
Y392750D01*
X365250Y268000D02*
Y288500D01*
X387500Y310750D01*
X435000Y224500D02*
X447000Y236500D01*
X422000Y224500D02*
X435000D01*
X391008Y245758D02*
X437742D01*
X390000D02*
X391008D01*
X437742D02*
X447000Y236500D01*
X391008Y245758D02*
X428020Y282770D01*
Y287750D01*
X571750Y233750D02*
X641500Y164000D01*
Y99000D02*
Y164000D01*
Y60479D02*
Y62500D01*
X637521Y56500D02*
X641500Y60479D01*
X584500Y56500D02*
X637521D01*
X563000Y78000D02*
X584500Y56500D01*
X334750Y146369D02*
X357618Y123500D01*
X334750Y215000D02*
X341670Y221920D01*
X348670D02*
X352250Y225500D01*
X341670Y221920D02*
X348670D01*
X357618Y123500D02*
X369750D01*
X386750Y117500D02*
X386750Y117500D01*
Y116500D02*
Y117500D01*
X399750Y116500D02*
X401500Y114750D01*
X409500D01*
X427000Y116500D02*
Y117695D01*
X427000Y116500D02*
X427000Y116500D01*
X440000Y116500D02*
X441750Y114750D01*
X449750D01*
X480250Y116500D02*
X482000Y114750D01*
X490000D01*
X459668Y123500D02*
X461938Y125770D01*
X487980D02*
X490250Y123500D01*
X450000D02*
X459668D01*
X461938Y125770D02*
X487980D01*
X436078Y125780D02*
X441107D01*
X443387Y123500D01*
X435893Y125965D02*
X436078Y125780D01*
X443387Y123500D02*
X450000D01*
X421939Y125965D02*
X435893D01*
X419473Y123500D02*
X421939Y125965D01*
X409750Y123500D02*
X419473D01*
X379418D02*
X381688Y125770D01*
X407480D02*
X409750Y123500D01*
X369750D02*
X379418D01*
X381688Y125770D02*
X407480D01*
X374750Y53500D02*
X414500D01*
X374750D02*
Y75500D01*
X369750Y80500D02*
Y95250D01*
Y80500D02*
X374750Y75500D01*
X414500Y53500D02*
X454800D01*
X409750Y80500D02*
X414500Y75750D01*
Y53500D02*
Y75750D01*
X409750Y80500D02*
Y96000D01*
X454800Y53500D02*
X490000D01*
X454800D02*
Y75950D01*
X450000Y80750D02*
X454800Y75950D01*
X450000Y80750D02*
Y96000D01*
X494750Y58250D02*
Y74875D01*
X490250Y79375D02*
Y96000D01*
Y79375D02*
X494750Y74875D01*
X490000Y53500D02*
X494750Y58250D01*
X490250Y105000D02*
Y114500D01*
X490000Y114750D02*
X490250Y114500D01*
X450000Y105000D02*
Y114500D01*
X449750Y114750D02*
X450000Y114500D01*
X433500Y98695D02*
X433500Y98695D01*
X433750Y68695D02*
Y86445D01*
X433500Y86695D02*
X433750Y86445D01*
X433500Y86695D02*
Y98695D01*
X433750Y68695D02*
X434000Y68445D01*
X359750Y116500D02*
X361750Y114500D01*
X369750D01*
X409750Y105000D02*
Y114500D01*
X409500Y114750D02*
X409750Y114500D01*
X473500Y86500D02*
Y98500D01*
X473500Y98500D01*
X393500Y68750D02*
Y86250D01*
X393250Y86500D02*
X393500Y86250D01*
Y68750D02*
X393750Y68500D01*
X393250Y86500D02*
X393250Y86500D01*
Y98500D01*
X353000Y73000D02*
X353125Y73125D01*
Y85375D01*
X369750Y104250D02*
Y113750D01*
X369500Y114000D02*
X369750Y113750D01*
X347750Y114500D02*
X350000D01*
X346750Y115500D02*
X347750Y114500D01*
X350000D02*
X359750Y104750D01*
X346750Y115500D02*
Y116500D01*
X353250Y97500D02*
X353250Y97500D01*
X353125Y85375D02*
X353250Y85500D01*
Y97500D01*
X244940Y324991D02*
X246019Y323913D01*
Y279000D02*
Y323913D01*
X271005Y278250D02*
X271755Y277500D01*
D15*
X78100Y309100D02*
X90650D01*
X78000Y309000D02*
X78100Y309100D01*
X550250Y450825D02*
X551422Y451996D01*
X550250Y435090D02*
Y450825D01*
X551422Y451996D02*
X554407D01*
X555157Y452746D01*
X548500Y433340D02*
X550250Y435090D01*
X548500Y420129D02*
Y433340D01*
X521230Y462230D02*
X527000Y468000D01*
X521230Y454354D02*
Y462230D01*
X527000Y468000D02*
Y468750D01*
X495750Y446250D02*
X513126D01*
X521230Y454354D01*
X476500Y427000D02*
X495750Y446250D01*
X477375Y423250D02*
X496875Y442750D01*
X514250D01*
X527000Y455500D01*
X432750Y427000D02*
X476500D01*
X426500Y423250D02*
X477375D01*
X499750Y430250D02*
X504750Y425250D01*
X546172Y507672D02*
X546250Y507750D01*
X529500Y484750D02*
Y495000D01*
X542172Y507672D01*
X546172D01*
X526750Y482000D02*
X529500Y484750D01*
X195500Y533500D02*
X207250Y545250D01*
X212980Y541980D02*
X249146D01*
X247611Y538710D02*
X251781Y534540D01*
X207250Y545250D02*
X250500D01*
X254250Y541500D01*
X235500Y533500D02*
X240710Y538710D01*
X247611D01*
X204500Y533500D02*
X212980Y541980D01*
X249146D02*
X253126Y538000D01*
X244931Y533500D02*
X247172Y531260D01*
X244500Y533500D02*
X244931D01*
X247172Y531260D02*
X559366D01*
X539750Y524500D02*
X552500Y511750D01*
X551520Y527980D02*
X565750Y513750D01*
X246581Y527990D02*
X539386D01*
X155500Y507250D02*
X176240Y527990D01*
X242419D01*
X164500Y507250D02*
X181750Y524500D01*
X539750D01*
X242429Y527980D02*
X246571D01*
X242419Y527990D02*
X242429Y527980D01*
X246571D02*
X246581Y527990D01*
X539386D02*
X539395Y527980D01*
X551520D01*
X251781Y534540D02*
X560710D01*
X253126Y538000D02*
X596000D01*
X621750Y512250D01*
X254250Y541500D02*
X597250D01*
X631000Y507750D01*
X559366Y531260D02*
X570750Y519876D01*
X560710Y534540D02*
X574657Y520593D01*
X570750Y474500D02*
Y519876D01*
X574657Y459246D02*
Y520593D01*
X564907Y468657D02*
X570750Y474500D01*
X564907Y452157D02*
Y468657D01*
X631000Y507750D02*
X631500D01*
X659980Y310480D02*
Y402020D01*
X639250Y285750D02*
Y289750D01*
X659980Y310480D01*
X645750Y289000D02*
X663250Y306500D01*
X617750Y449000D02*
X663250Y403500D01*
X617750Y449000D02*
Y457500D01*
X663250Y306500D02*
Y403500D01*
X607750Y454250D02*
X659980Y402020D01*
X605250Y457500D02*
X607750Y455000D01*
Y454250D02*
Y455000D01*
X604500Y457500D02*
X605250D01*
X621750Y501250D02*
Y512250D01*
X616000Y495500D02*
X621750Y501250D01*
X612000Y494750D02*
X612750Y495500D01*
X616000D01*
X628500Y501250D02*
X631500D01*
X631500Y501250D01*
X616750Y482000D02*
Y489500D01*
X628500Y501250D01*
X616750Y482000D02*
X617750Y481000D01*
Y470000D02*
Y481000D01*
X608750Y501250D02*
X612000D01*
X612000Y501250D01*
X605500Y498000D02*
X608750Y501250D01*
X605500Y482000D02*
Y498000D01*
X604500Y481000D02*
X605500Y482000D01*
X604500Y470000D02*
Y481000D01*
X565750Y507750D02*
Y513750D01*
X549356Y497146D02*
X552500Y500290D01*
Y511750D01*
X546250Y494750D02*
X546750D01*
X549146Y497146D01*
X549356D01*
X530672Y420328D02*
X535800D01*
X536000Y420129D01*
X520750Y430250D02*
X530672Y420328D01*
X512000Y430250D02*
X520750D01*
X504750Y425250D02*
X518379D01*
X536000Y407629D01*
Y406879D02*
Y407629D01*
X539500Y468750D02*
Y481750D01*
X539750Y482000D01*
X539500Y455500D02*
Y456250D01*
X539750Y482000D02*
Y497000D01*
X544000Y501250D01*
X553750Y491500D02*
X562750Y500500D01*
X553750Y484750D02*
Y491500D01*
X565000Y500500D02*
X565750Y501250D01*
X562750Y500500D02*
X565000D01*
X548250Y479250D02*
X553750Y484750D01*
X544000Y501250D02*
X546250D01*
X548250Y465000D02*
Y479250D01*
X539500Y456250D02*
X548250Y465000D01*
X557250Y430840D02*
X562657Y436246D01*
X548500Y407629D02*
X557250Y416379D01*
Y430840D01*
X562657Y436246D02*
Y443157D01*
X571496Y451996D02*
X573907D01*
X562657Y443157D02*
X571496Y451996D01*
X573907D02*
X574657Y452746D01*
X559746Y446996D02*
X564907Y452157D01*
X555907Y446996D02*
X559746D01*
X555157Y446246D02*
X555907Y446996D01*
X548500Y406879D02*
Y407629D01*
X152000Y241500D02*
X156200D01*
X160900Y246200D02*
X161400D01*
X149250Y238750D02*
X152000Y241500D01*
X156200D02*
X160900Y246200D01*
X142300Y245200D02*
X148750Y238750D01*
X131500Y245200D02*
X142300D01*
X148750Y238750D02*
X149250D01*
X147700Y250200D02*
X149250Y251750D01*
X131500Y250200D02*
X147700D01*
X267500Y465000D02*
X375000D01*
X252500Y450000D02*
X267500Y465000D01*
X96050Y255200D02*
X102800D01*
X90650Y260600D02*
X96050Y255200D01*
X90650Y260600D02*
Y296100D01*
X124650Y267050D02*
X124901Y267301D01*
Y272351D02*
X133400Y280850D01*
X133900D02*
X136650Y283600D01*
X124901Y267301D02*
Y272351D01*
X133400Y280850D02*
X133900D01*
X136650Y283600D02*
Y284100D01*
X116900Y296350D02*
X117150Y296100D01*
X114650Y276100D02*
X129400Y290850D01*
X109950Y262300D02*
Y266750D01*
X103900Y296350D02*
X116900D01*
X103900Y260500D02*
Y296350D01*
X117478Y308772D02*
X123228D01*
X133900Y229100D02*
X161400D01*
X117400Y222600D02*
X182150D01*
X109650Y230350D02*
X117400Y222600D01*
X102800Y227450D02*
X114150Y216100D01*
X161400D01*
X109650Y230350D02*
Y238350D01*
X102800Y227450D02*
Y245200D01*
X103600Y260200D02*
X103900Y260500D01*
X102800Y260200D02*
X103600D01*
X102800Y245200D02*
Y250200D01*
X131500Y255200D02*
Y260200D01*
X160400D01*
X124650Y238350D02*
X133900Y229100D01*
X109650Y267050D02*
X109950Y266750D01*
X114650Y267050D02*
Y276100D01*
X109950Y262300D02*
X122050Y250200D01*
X131500D01*
X127800Y304200D02*
Y304200D01*
Y304200D02*
X129400Y302600D01*
X123228Y308772D02*
X127800Y304200D01*
X129400Y290850D02*
Y302600D01*
X160400Y260200D02*
X161400Y259200D01*
X65250Y309000D02*
X78000D01*
X78000Y309000D01*
X161400Y229100D02*
X161400Y229100D01*
X182150Y222600D02*
X183650Y224100D01*
X175150Y246200D02*
X183650Y237700D01*
Y224100D02*
Y237700D01*
X174650Y246200D02*
X175150D01*
X161400Y229100D02*
X174650D01*
X508750Y100500D02*
X508770Y100520D01*
Y133480D01*
X507000Y135250D02*
X508770Y133480D01*
X490250Y132250D02*
X493250Y135250D01*
X507000D01*
X490250Y123500D02*
Y132250D01*
X272500Y450000D02*
X409750D01*
X424611Y435139D01*
X375000Y465000D02*
X380000Y460000D01*
X272500D02*
X372500D01*
X257500Y445000D02*
X272500Y460000D01*
X419750Y430000D02*
X426500Y423250D01*
X424750Y435000D02*
X432750Y427000D01*
X269650Y399600D02*
X298750Y370500D01*
X469750Y462750D02*
Y475500D01*
X467500Y460500D02*
X469750Y462750D01*
X474500Y480250D02*
X482750D01*
X469750Y475500D02*
X474500Y480250D01*
X487250Y484750D02*
Y487750D01*
X482750Y480250D02*
X487250Y484750D01*
Y487750D02*
X490000Y490500D01*
X490500D01*
X404750Y445000D02*
X419750Y430000D01*
X229500Y450000D02*
X234500Y445000D01*
X257500D01*
X257500Y440000D02*
X262500Y435000D01*
X352000D01*
X357000Y430000D01*
X277500Y440000D02*
X355000D01*
X267500D02*
X272500Y445000D01*
X404750D01*
X357000Y430000D02*
X357500D01*
X355000Y440000D02*
X365000Y430000D01*
X226000Y399600D02*
X269650D01*
X298750Y370000D02*
Y370500D01*
X301500Y367250D02*
X302000D01*
X298750Y370000D02*
X301500Y367250D01*
X267440Y328991D02*
X268190Y328241D01*
X230940Y328241D02*
Y331078D01*
X232362Y332500D02*
X263181D01*
X268190Y327491D02*
Y328241D01*
X266690Y328991D02*
X267440D01*
X230190Y327491D02*
X230940Y328241D01*
X263181Y332500D02*
X266690Y328991D01*
X230940Y331078D02*
X232362Y332500D01*
X300250Y334250D02*
Y365500D01*
X302000Y367250D01*
X270250Y332500D02*
X298500D01*
X300250Y334250D01*
X268940Y328241D02*
Y331190D01*
X268190Y327491D02*
X268940Y328241D01*
Y331190D02*
X270250Y332500D01*
X510812Y367500D02*
X512312Y369000D01*
X510000Y367500D02*
X510812D01*
X512312Y369000D02*
X610250D01*
X516000Y351000D02*
Y361250D01*
X520000Y365250D01*
X510000Y345000D02*
X516000Y351000D01*
X605750Y365250D02*
X611750Y359250D01*
X520000Y365250D02*
X605750D01*
X617250Y359250D02*
X623000Y365000D01*
X611750Y359250D02*
X617250D01*
X610250Y369000D02*
X614250Y365000D01*
X499750Y362750D02*
X510000Y352500D01*
X499750Y372500D02*
X504000Y376750D01*
X626019D02*
X635500Y386231D01*
X504000Y376750D02*
X626019D01*
X635500Y386231D02*
X636000D01*
X638750Y388981D02*
Y389481D01*
X636000Y386231D02*
X638750Y388981D01*
X499750Y362750D02*
Y372500D01*
X508179Y372750D02*
X633481D01*
X504750Y369321D02*
X508179Y372750D01*
X504750Y365250D02*
Y369321D01*
X633481Y372750D02*
X635500Y370731D01*
X636000D01*
X638750Y367981D01*
Y367481D02*
Y367981D01*
X504750Y365250D02*
X510000Y360000D01*
D17*
X524270Y484980D02*
X526750Y482500D01*
X505250Y503500D02*
X523770Y484980D01*
X526750Y482000D02*
Y482500D01*
X523770Y484980D02*
X524270D01*
X490500Y503500D02*
X505250D01*
X533040Y436113D02*
Y475210D01*
Y436113D02*
X535657Y433496D01*
X526750Y481500D02*
Y482000D01*
Y481500D02*
X533040Y475210D01*
X490250Y429750D02*
X498464Y437964D01*
X531200D01*
X532688Y436476D02*
X533176D01*
X531200Y437964D02*
X532688Y436476D01*
X490250Y399730D02*
Y429750D01*
D24*
X526750Y482000D02*
D03*
X539750D02*
D03*
X564000D02*
D03*
X551000D02*
D03*
X592500Y482000D02*
D03*
X605500D02*
D03*
X629750D02*
D03*
X616750D02*
D03*
X535657Y433496D02*
D03*
X548657D02*
D03*
X572906D02*
D03*
X559907D02*
D03*
X149650Y284100D02*
D03*
X136650D02*
D03*
X275250Y474500D02*
D03*
X288250D02*
D03*
X539250Y141750D02*
D03*
X526250D02*
D03*
X333500Y187500D02*
D03*
X320500D02*
D03*
X393000Y197750D02*
D03*
X406000D02*
D03*
X433500Y86695D02*
D03*
X420500D02*
D03*
X473500Y86500D02*
D03*
X460500D02*
D03*
X393250Y86500D02*
D03*
X380250D02*
D03*
X353250Y85500D02*
D03*
X340250D02*
D03*
X295500Y292250D02*
D03*
X282500D02*
D03*
X651750Y323481D02*
D03*
X638750D02*
D03*
X651750Y367481D02*
D03*
X638750D02*
D03*
X651750Y345481D02*
D03*
X638750D02*
D03*
X651750Y389481D02*
D03*
X638750D02*
D03*
X333000Y473000D02*
D03*
X320000D02*
D03*
X373000D02*
D03*
X360000D02*
D03*
X373000Y485500D02*
D03*
X360000D02*
D03*
X333000Y485500D02*
D03*
X320000D02*
D03*
D26*
X604500Y470000D02*
D03*
Y457500D02*
D03*
X617750Y470000D02*
D03*
Y457500D02*
D03*
X103900Y308850D02*
D03*
Y296350D02*
D03*
X308500Y187500D02*
D03*
Y200000D02*
D03*
D27*
X149250Y251750D02*
D03*
Y238750D02*
D03*
X117150Y296100D02*
D03*
Y309100D02*
D03*
X161400Y259200D02*
D03*
Y246200D02*
D03*
X78000Y296000D02*
D03*
Y309000D02*
D03*
X90650Y309100D02*
D03*
Y296100D02*
D03*
X174650Y259200D02*
D03*
Y246200D02*
D03*
X161400Y216100D02*
D03*
Y229100D02*
D03*
X174650Y229100D02*
D03*
Y216100D02*
D03*
X515500Y128750D02*
D03*
Y141750D02*
D03*
X302000Y380250D02*
D03*
Y367250D02*
D03*
X86000Y491000D02*
D03*
Y478000D02*
D03*
X490500Y490500D02*
D03*
Y503500D02*
D03*
D28*
X433500Y98695D02*
D03*
X420500D02*
D03*
X427000Y117695D02*
D03*
X473500Y98500D02*
D03*
X460500D02*
D03*
X467000Y117500D02*
D03*
X393250Y98500D02*
D03*
X380250D02*
D03*
X386750Y117500D02*
D03*
X353250Y97500D02*
D03*
X340250D02*
D03*
X346750Y116500D02*
D03*
D29*
X490250Y105000D02*
D03*
Y96000D02*
D03*
Y114500D02*
D03*
Y123500D02*
D03*
X450000Y114500D02*
D03*
Y123500D02*
D03*
Y105000D02*
D03*
Y96000D02*
D03*
X409750Y114500D02*
D03*
Y123500D02*
D03*
Y105000D02*
D03*
Y96000D02*
D03*
X369750Y114500D02*
D03*
Y123500D02*
D03*
Y104250D02*
D03*
Y95250D02*
D03*
D33*
X439750Y435500D02*
D03*
X448750D02*
D03*
D35*
X193500Y491250D02*
D03*
Y477750D02*
D03*
X206500Y491250D02*
D03*
Y477750D02*
D03*
X153413Y491250D02*
D03*
Y477750D02*
D03*
X166500Y491250D02*
D03*
Y477750D02*
D03*
X246500Y491250D02*
D03*
Y477750D02*
D03*
X233500Y491250D02*
D03*
Y477750D02*
D03*
X126645Y491250D02*
D03*
Y477750D02*
D03*
X113395Y491250D02*
D03*
Y477750D02*
D03*
X73500Y491250D02*
D03*
Y477750D02*
D03*
D36*
X235750Y159750D02*
D03*
Y151750D02*
D03*
X280000Y497500D02*
D03*
Y505500D02*
D03*
X360000Y497500D02*
D03*
Y505500D02*
D03*
X320000Y497500D02*
D03*
Y505500D02*
D03*
X440500Y211000D02*
D03*
Y203000D02*
D03*
X548250Y243500D02*
D03*
Y235500D02*
D03*
D37*
X137400Y302600D02*
D03*
X129400D02*
D03*
X630750Y356481D02*
D03*
X638750D02*
D03*
X287750Y242750D02*
D03*
X295750D02*
D03*
X343750Y314615D02*
D03*
X335750D02*
D03*
X563750Y233750D02*
D03*
X571750D02*
D03*
D38*
X641500Y62500D02*
D03*
D39*
Y99000D02*
D03*
D49*
X539500Y468750D02*
D03*
X527000D02*
D03*
X539500Y455500D02*
D03*
X527000D02*
D03*
X548500Y406879D02*
D03*
X536000D02*
D03*
X548500Y420129D02*
D03*
X536000D02*
D03*
X434000Y68445D02*
D03*
X446500D02*
D03*
X474250Y68500D02*
D03*
X486750D02*
D03*
X393750D02*
D03*
X406250D02*
D03*
X353750Y68500D02*
D03*
X366250D02*
D03*
X288000Y487000D02*
D03*
X275500D02*
D03*
D67*
X72000Y347250D02*
D03*
Y431250D02*
D03*
X678000Y78000D02*
D03*
Y162000D02*
D03*
D68*
X145000Y347250D02*
D03*
X605000Y162000D02*
D03*
D69*
X145000Y389250D02*
D03*
Y431250D02*
D03*
X187000Y347250D02*
D03*
Y389250D02*
D03*
Y431250D02*
D03*
X563000Y78000D02*
D03*
Y120000D02*
D03*
Y162000D02*
D03*
X605000Y78000D02*
D03*
Y120000D02*
D03*
D72*
X555157Y469656D02*
X561750Y476250D01*
Y479750D01*
X565750Y483750D01*
X555157Y459246D02*
Y469656D01*
X414899Y309855D02*
X420645D01*
X428020Y295750D02*
Y302480D01*
X414540Y310214D02*
X414899Y309855D01*
X420645D02*
X428020Y302480D01*
X415056Y295750D02*
X427520D01*
X414129Y310410D02*
Y310625D01*
X401313D02*
X414129D01*
X400902Y311035D02*
X401313Y310625D01*
X400770Y295750D02*
X401038Y296018D01*
X400836Y310969D02*
X400902Y311035D01*
X46250Y302500D02*
Y366500D01*
X129250Y449500D01*
X538281Y390750D02*
X540281Y388750D01*
X555000D02*
X570000Y403750D01*
X540281Y388750D02*
X555000D01*
X518730Y390750D02*
X538281D01*
X546250Y444590D02*
Y453500D01*
X535657Y433996D02*
X546250Y444590D01*
Y453500D02*
X551996Y459246D01*
X535657Y433496D02*
Y433996D01*
X611750Y507500D02*
X612000Y507750D01*
X592500Y491750D02*
X608250Y507500D01*
X592500Y482000D02*
Y491750D01*
X608250Y507500D02*
X611750D01*
X592500Y457750D02*
Y482000D01*
X580996Y446246D02*
X592500Y457750D01*
X574657Y446246D02*
X580996D01*
X629750Y481500D02*
X637367Y473883D01*
Y472883D02*
X637750Y472500D01*
X629750Y481500D02*
Y482000D01*
X637367Y472883D02*
Y473883D01*
X629750Y482000D02*
X631500Y483750D01*
Y494750D01*
X551996Y459246D02*
X555157D01*
X565750Y483750D02*
Y494750D01*
X572906Y433496D02*
X574657Y435246D01*
Y446246D01*
X129250Y449500D02*
X220250D01*
X238250Y467500D01*
X250000D01*
X260000Y477500D01*
Y492250D02*
X273250Y505500D01*
X260000Y477500D02*
Y492250D01*
X273250Y505500D02*
X280000D01*
X241236Y460514D02*
X254764D01*
X268750Y474500D02*
X275250D01*
X254764Y460514D02*
X268750Y474500D01*
X145000Y347250D02*
X159400Y332850D01*
Y306600D02*
Y332850D01*
X176400Y332041D02*
X187000Y342641D01*
X176400Y306600D02*
Y332041D01*
X187000Y342641D02*
Y347250D01*
X174650Y304850D02*
X176400Y306600D01*
X174650Y290600D02*
Y304850D01*
X159400Y306600D02*
X161650Y304350D01*
Y290600D02*
Y304350D01*
X174650Y259200D02*
Y290600D01*
X174650Y259200D02*
X174650Y259200D01*
X151000Y285450D02*
X157900D01*
X161650Y289200D02*
Y290600D01*
X149650Y284100D02*
X151000Y285450D01*
X157900D02*
X161650Y289200D01*
X515500Y97250D02*
Y128750D01*
Y-1500D02*
Y97250D01*
X450750Y192500D02*
X468324D01*
X512750Y144000D02*
Y148074D01*
X468324Y192500D02*
X512750Y148074D01*
Y144000D02*
X515000Y141750D01*
X526250D01*
X310867Y429517D02*
X315634Y424750D01*
X316000D01*
X296250Y429517D02*
X310867D01*
X490250Y96000D02*
X493000D01*
X501250Y104250D02*
Y128000D01*
X493000Y96000D02*
X501250Y104250D01*
X440500Y182500D02*
X469250D01*
X501250Y142500D02*
Y150500D01*
X469250Y182500D02*
X501250Y150500D01*
X606000Y237001D02*
Y247000D01*
X605750Y247250D02*
X606000Y247000D01*
X467250Y116250D02*
X469000Y114500D01*
X467250Y116250D02*
Y116500D01*
X470709Y114500D02*
X480076Y105133D01*
X480617D01*
X469000Y114500D02*
X470709D01*
X480617Y105133D02*
X481000Y104750D01*
X467250Y116250D02*
Y116500D01*
X373920Y519420D02*
X475580D01*
X360000Y505500D02*
X373920Y519420D01*
X475580D02*
X479450Y515550D01*
Y511400D02*
Y515550D01*
X124500Y507250D02*
X132500Y499250D01*
X253000D02*
X266250Y512500D01*
X132500Y499250D02*
X253000D01*
X266250Y512500D02*
X310250D01*
X353000D01*
X310250Y492429D02*
Y512500D01*
X353000D02*
X360000Y505500D01*
X84500Y507250D02*
X124500D01*
X591250Y175750D02*
Y192000D01*
Y175750D02*
X614750Y152250D01*
X563000Y162000D02*
Y162824D01*
X574250Y174074D02*
Y192000D01*
X563000Y162824D02*
X574250Y174074D01*
X585750Y139250D02*
X631500D01*
X563000Y162000D02*
X585750Y139250D01*
X614750Y152250D02*
X631500D01*
X438500Y436750D02*
X439182Y436068D01*
X434250Y441750D02*
X438500Y437500D01*
Y436750D02*
Y437500D01*
X439182Y436068D02*
X439933D01*
X425137Y441750D02*
X434250D01*
X480200Y500800D02*
Y502750D01*
X480950Y503500D02*
X490500D01*
X480200Y502750D02*
X480950Y503500D01*
X373000Y473000D02*
X393887D01*
X425137Y441750D01*
X422750Y210000D02*
X440250Y192500D01*
X284750Y294500D02*
Y296365D01*
X282500Y292250D02*
X284750Y294500D01*
Y296365D02*
X303000Y314615D01*
X282500Y292250D02*
Y292750D01*
X289250Y180500D02*
X291250D01*
X291750Y181000D01*
X272250Y169250D02*
X278000D01*
X289250Y180500D01*
X272750Y187500D02*
X291750D01*
X308500D02*
X320500D01*
X291750D02*
X308500D01*
X373000Y473000D02*
Y485500D01*
X219000Y326000D02*
X226750Y318250D01*
X237000D01*
X219000Y326000D02*
Y361450D01*
X224450Y366900D01*
X226000D01*
X310250Y492429D02*
X315429Y487250D01*
X318750D01*
X320000Y486000D01*
X281100Y504400D02*
X283350D01*
X288000Y487000D02*
Y499750D01*
X283350Y504400D02*
X288000Y499750D01*
X280000Y505500D02*
X281100Y504400D01*
X288125Y474625D02*
Y486875D01*
X288000Y487000D02*
X288125Y486875D01*
Y474625D02*
X288250Y474500D01*
X325282Y497218D02*
X330818Y491682D01*
X320282Y497218D02*
X325282D01*
X330818Y487682D02*
X333000Y485500D01*
X330818Y487682D02*
Y491682D01*
X320000Y497500D02*
X320282Y497218D01*
X333000Y473000D02*
Y485500D01*
X75500Y507250D02*
X84500D01*
X124500D02*
X124500Y507250D01*
X400770Y375750D02*
X401666Y376645D01*
X374707Y279750D02*
X400750D01*
X373250Y278293D02*
X374707Y279750D01*
X600000Y231001D02*
X606000Y237001D01*
X543250Y274250D02*
X556250Y261250D01*
Y229000D02*
X569867Y215383D01*
X556250Y229000D02*
Y261250D01*
X569867Y215383D02*
X574617D01*
X575000Y215000D01*
X408250Y195000D02*
X411000D01*
X406000Y197250D02*
Y197500D01*
X422750Y182500D02*
Y183250D01*
X411000Y195000D02*
X422750Y183250D01*
X406000Y197250D02*
X408250Y195000D01*
X423250Y182500D02*
X440500D01*
X407500Y210000D02*
X422750D01*
X406750Y210750D02*
X407500Y210000D01*
X284227Y230273D02*
X347477D01*
X271755Y242745D02*
X284227Y230273D01*
X347477D02*
X352250Y225500D01*
X271755Y242745D02*
Y258500D01*
X311750Y242750D02*
X318250Y249250D01*
X295750Y242750D02*
X311750D01*
X318250Y249250D02*
Y268000D01*
X287750Y254005D02*
X292245Y258500D01*
X287750Y242750D02*
Y254005D01*
X292245Y258500D02*
X293745D01*
X278000Y270000D02*
X282500Y274500D01*
X273755Y270000D02*
X278000D01*
X282500Y274500D02*
Y292250D01*
X271755Y268000D02*
X273755Y270000D01*
X360000Y497500D02*
X361032Y496468D01*
X364532D01*
X370750Y490250D01*
Y487750D02*
X373000Y485500D01*
X370750Y487750D02*
Y490250D01*
X401666Y376645D02*
X414012D01*
X414408Y377041D01*
X414520Y296285D02*
X415056Y295750D01*
X401038Y296018D02*
X414252D01*
X414520Y296285D01*
D73*
X102750Y151750D02*
D03*
X252750D02*
D03*
D74*
X364650Y137300D02*
D03*
X440900Y38750D02*
D03*
D75*
X364650Y162700D02*
D03*
X390050Y137300D02*
D03*
X415450D02*
D03*
X390050Y162700D02*
D03*
X415450D02*
D03*
X440850Y137300D02*
D03*
Y162700D02*
D03*
X364700Y13350D02*
D03*
Y38750D02*
D03*
X390100Y13350D02*
D03*
X415500D02*
D03*
X390100Y38750D02*
D03*
X415500D02*
D03*
X440900Y13350D02*
D03*
D76*
X480200Y500800D02*
D03*
X467500D02*
D03*
X454800D02*
D03*
X442100D02*
D03*
X429400D02*
D03*
X480200Y460500D02*
D03*
X467500D02*
D03*
X454800D02*
D03*
X442100D02*
D03*
X429400D02*
D03*
D77*
X736500Y464250D02*
D03*
X721500Y434250D02*
D03*
X736500Y404250D02*
D03*
X721500Y374250D02*
D03*
X736500Y344250D02*
D03*
X721500Y314250D02*
D03*
X736500Y284250D02*
D03*
X721500Y254250D02*
D03*
X736500Y224250D02*
D03*
X721500Y194250D02*
D03*
X736500Y164250D02*
D03*
X721500Y134250D02*
D03*
X736500Y104250D02*
D03*
X721500Y74250D02*
D03*
X691500Y494250D02*
D03*
X706500Y464250D02*
D03*
Y404250D02*
D03*
X691500Y374250D02*
D03*
X706500Y344250D02*
D03*
X691500Y314250D02*
D03*
Y254250D02*
D03*
Y134250D02*
D03*
X676500Y524250D02*
D03*
X661500Y494250D02*
D03*
X676500Y464250D02*
D03*
X661500Y434250D02*
D03*
X676500Y404250D02*
D03*
Y344250D02*
D03*
X661500Y254250D02*
D03*
X676500Y224250D02*
D03*
X661500Y194250D02*
D03*
X676500Y104250D02*
D03*
Y44250D02*
D03*
X646500Y524250D02*
D03*
Y464250D02*
D03*
X631500Y314250D02*
D03*
Y194250D02*
D03*
Y74250D02*
D03*
X646500Y44250D02*
D03*
X631500Y14250D02*
D03*
X616500Y404250D02*
D03*
Y344250D02*
D03*
X601500Y314250D02*
D03*
X616500Y104250D02*
D03*
Y44250D02*
D03*
X601500Y14250D02*
D03*
X586500Y404250D02*
D03*
Y344250D02*
D03*
X571500Y314250D02*
D03*
X586500Y284250D02*
D03*
Y104250D02*
D03*
Y44250D02*
D03*
X571500Y14250D02*
D03*
X556500Y344250D02*
D03*
X541500Y74250D02*
D03*
X556500Y44250D02*
D03*
X541500Y14250D02*
D03*
X511500Y314250D02*
D03*
X526500Y104250D02*
D03*
Y44250D02*
D03*
X496500Y464250D02*
D03*
X481500Y374250D02*
D03*
X496500Y344250D02*
D03*
X481500Y314250D02*
D03*
Y254250D02*
D03*
X496500Y224250D02*
D03*
X481500Y194250D02*
D03*
X496500Y44250D02*
D03*
X481500Y14250D02*
D03*
X451500Y374250D02*
D03*
X466500Y344250D02*
D03*
X451500Y314250D02*
D03*
X466500Y284250D02*
D03*
X451500Y254250D02*
D03*
X466500Y44250D02*
D03*
X421500Y494250D02*
D03*
X436500Y344250D02*
D03*
Y284250D02*
D03*
X391500Y494250D02*
D03*
X376500Y44250D02*
D03*
X346500Y284250D02*
D03*
X331500Y254250D02*
D03*
X346500Y164250D02*
D03*
X331500Y134250D02*
D03*
X346500Y44250D02*
D03*
X316500Y164250D02*
D03*
X301500Y134250D02*
D03*
X316500Y104250D02*
D03*
X301500Y74250D02*
D03*
X316500Y44250D02*
D03*
X301500Y14250D02*
D03*
X271500Y134250D02*
D03*
Y74250D02*
D03*
X286500Y44250D02*
D03*
X241500Y254250D02*
D03*
Y194250D02*
D03*
Y134250D02*
D03*
X256500Y104250D02*
D03*
X241500Y74250D02*
D03*
X256500Y44250D02*
D03*
X241500Y14250D02*
D03*
X211500Y314250D02*
D03*
Y254250D02*
D03*
X226500Y224250D02*
D03*
X211500Y194250D02*
D03*
X226500Y44250D02*
D03*
X211500Y14250D02*
D03*
X196500Y284250D02*
D03*
Y224250D02*
D03*
X181500Y194250D02*
D03*
Y134250D02*
D03*
Y74250D02*
D03*
X196500Y44250D02*
D03*
X181500Y14250D02*
D03*
X166500Y344250D02*
D03*
X151500Y194250D02*
D03*
Y134250D02*
D03*
X166500Y104250D02*
D03*
X151500Y74250D02*
D03*
X166500Y44250D02*
D03*
X151500Y14250D02*
D03*
X136500Y524250D02*
D03*
Y464250D02*
D03*
X121500Y374250D02*
D03*
Y194250D02*
D03*
Y134250D02*
D03*
X136500Y104250D02*
D03*
X121500Y74250D02*
D03*
X136500Y44250D02*
D03*
X121500Y14250D02*
D03*
X106500Y524250D02*
D03*
Y464250D02*
D03*
Y404250D02*
D03*
X91500Y374250D02*
D03*
Y134250D02*
D03*
X106500Y104250D02*
D03*
X91500Y74250D02*
D03*
X106500Y44250D02*
D03*
X91500Y14250D02*
D03*
X76500Y524250D02*
D03*
X61500Y494250D02*
D03*
X76500Y164250D02*
D03*
X61500Y134250D02*
D03*
X76500Y104250D02*
D03*
X61500Y74250D02*
D03*
X76500Y44250D02*
D03*
X46500Y464250D02*
D03*
Y404250D02*
D03*
Y284250D02*
D03*
Y224250D02*
D03*
X31500Y194250D02*
D03*
X46500Y164250D02*
D03*
X31500Y134250D02*
D03*
X46500Y104250D02*
D03*
X31500Y74250D02*
D03*
X400902Y311035D02*
D03*
X280000Y497500D02*
D03*
X168150Y270600D02*
D03*
X103900Y308850D02*
D03*
X113500Y248500D02*
D03*
X545250Y395750D02*
D03*
X570000Y403750D02*
D03*
X637750Y472500D02*
D03*
X587500Y482000D02*
D03*
X564000Y482000D02*
D03*
X518730Y390750D02*
D03*
X499750Y430250D02*
D03*
X244500Y533500D02*
D03*
X204500D02*
D03*
X195500D02*
D03*
X235500D02*
D03*
X645750Y289000D02*
D03*
X241236Y460514D02*
D03*
X195500Y491250D02*
D03*
X164500Y491250D02*
D03*
X235500Y491250D02*
D03*
X508770Y100520D02*
D03*
X515500Y97250D02*
D03*
X501250Y128000D02*
D03*
X312000Y406000D02*
D03*
X316000Y424750D02*
D03*
X296250Y429517D02*
D03*
X372500Y460000D02*
D03*
X380000D02*
D03*
X482000Y155750D02*
D03*
Y147750D02*
D03*
Y139750D02*
D03*
X350750Y332865D02*
D03*
X327750Y350365D02*
D03*
X345500Y69000D02*
D03*
X385250Y68750D02*
D03*
X466000Y67750D02*
D03*
X425250Y68250D02*
D03*
X368250Y60250D02*
D03*
X487500D02*
D03*
X408000D02*
D03*
X605750Y247250D02*
D03*
X481000Y104750D02*
D03*
X639250Y285750D02*
D03*
X164500Y507250D02*
D03*
X155500D02*
D03*
X512000Y430250D02*
D03*
X424750Y435000D02*
D03*
X419750Y430000D02*
D03*
X448750Y435500D02*
D03*
X480200Y460500D02*
D03*
X429400D02*
D03*
X467500Y500800D02*
D03*
Y460500D02*
D03*
X454800D02*
D03*
X480200Y500800D02*
D03*
X454800D02*
D03*
X440500Y192500D02*
D03*
X450750D02*
D03*
X126645Y477750D02*
D03*
X113395D02*
D03*
X303000Y314615D02*
D03*
X272250Y169250D02*
D03*
X272750Y196000D02*
D03*
X308500Y200000D02*
D03*
X301250Y401000D02*
D03*
X257500Y440000D02*
D03*
X252500Y450000D02*
D03*
X229500D02*
D03*
X238500Y387250D02*
D03*
X267500Y440000D02*
D03*
X277500D02*
D03*
X357500Y430000D02*
D03*
X365000D02*
D03*
X272500Y450000D02*
D03*
X301250Y413000D02*
D03*
X275500Y487000D02*
D03*
X333000Y473000D02*
D03*
X75500Y507250D02*
D03*
X84500D02*
D03*
X115500Y507250D02*
D03*
X124500D02*
D03*
X633750Y237000D02*
D03*
X614250Y365000D02*
D03*
X510000Y352500D02*
D03*
X638750Y345481D02*
D03*
X623000Y365000D02*
D03*
X510000Y367500D02*
D03*
Y360000D02*
D03*
Y345000D02*
D03*
X282500Y292250D02*
D03*
X633750Y245000D02*
D03*
Y225000D02*
D03*
X600000Y231001D02*
D03*
X543250Y274250D02*
D03*
X575000Y215000D02*
D03*
X534000Y168250D02*
D03*
X511000Y168500D02*
D03*
X522500Y160750D02*
D03*
X440578Y104984D02*
D03*
X386750Y116500D02*
D03*
X400205Y105015D02*
D03*
X399750Y116500D02*
D03*
X427000D02*
D03*
X440000D02*
D03*
X480250D02*
D03*
X467250D02*
D03*
X440500Y182500D02*
D03*
X446500Y68445D02*
D03*
X486750Y68500D02*
D03*
X406250D02*
D03*
X366250Y68500D02*
D03*
X359750Y104750D02*
D03*
X359750Y116500D02*
D03*
X346750D02*
D03*
X638750Y323481D02*
D03*
Y367481D02*
D03*
Y389481D02*
D03*
Y356481D02*
D03*
X346550Y376900D02*
D03*
Y390900D02*
D03*
X327750Y332865D02*
D03*
X350750Y350365D02*
D03*
X210650Y350168D02*
D03*
X244500Y491250D02*
D03*
X115500D02*
D03*
X124500D02*
D03*
X155500Y491250D02*
D03*
X204500Y491250D02*
D03*
X320000Y473000D02*
D03*
X360000D02*
D03*
X84500Y491250D02*
D03*
X280000Y505500D02*
D03*
X320000D02*
D03*
X360000D02*
D03*
X75500Y491250D02*
D03*
X440500Y211000D02*
D03*
X447000Y236500D02*
D03*
X352250Y225500D02*
D03*
X343750Y314615D02*
D03*
X548250Y235500D02*
D03*
X571750Y233750D02*
D03*
X399750Y399730D02*
D03*
X400750Y279750D02*
D03*
X400770Y295750D02*
D03*
Y350750D02*
D03*
Y375750D02*
D03*
X518730Y400750D02*
D03*
X519750Y281770D02*
D03*
X509750D02*
D03*
D78*
X30000Y520000D02*
D03*
X720000Y20000D02*
D03*
X30000D02*
D03*
X720000Y520000D02*
D03*
D79*
X546250Y494750D02*
D03*
Y501250D02*
D03*
Y507750D02*
D03*
X565750D02*
D03*
Y501250D02*
D03*
Y494750D02*
D03*
X612000Y494750D02*
D03*
Y501250D02*
D03*
Y507750D02*
D03*
X631500D02*
D03*
Y501250D02*
D03*
Y494750D02*
D03*
X555157Y446246D02*
D03*
Y452746D02*
D03*
Y459246D02*
D03*
X574657D02*
D03*
Y452746D02*
D03*
Y446246D02*
D03*
D80*
X109650Y238350D02*
D03*
X114650D02*
D03*
X119650D02*
D03*
X124650D02*
D03*
Y267050D02*
D03*
X119650D02*
D03*
X114650D02*
D03*
X109650D02*
D03*
D81*
X102800Y260200D02*
D03*
Y255200D02*
D03*
Y250200D02*
D03*
Y245200D02*
D03*
X131500D02*
D03*
Y250200D02*
D03*
Y255200D02*
D03*
Y260200D02*
D03*
D82*
X46250Y302500D02*
D03*
X65250Y296000D02*
D03*
Y309000D02*
D03*
D83*
X400770Y350750D02*
D03*
X408770D02*
D03*
X509750Y294344D02*
D03*
X501750D02*
D03*
X509750Y281770D02*
D03*
X501750D02*
D03*
X519750D02*
D03*
X527750D02*
D03*
X408750Y337250D02*
D03*
X400750D02*
D03*
D84*
X247000Y279000D02*
D03*
X229000D02*
D03*
X216750Y155750D02*
D03*
X198750D02*
D03*
D85*
X195928Y131763D02*
D03*
X225928D02*
D03*
D86*
X210928Y113954D02*
D03*
D87*
X291750Y194000D02*
D03*
Y187500D02*
D03*
Y181000D02*
D03*
X272750D02*
D03*
Y187500D02*
D03*
Y194000D02*
D03*
D88*
X406750Y210750D02*
D03*
X392250D02*
D03*
D89*
X422000Y224500D02*
D03*
Y210000D02*
D03*
X501250Y128000D02*
D03*
Y142500D02*
D03*
D90*
X318250Y268000D02*
D03*
X365250D02*
D03*
D91*
X271755Y258500D02*
D03*
Y268000D02*
D03*
Y277500D02*
D03*
X293745D02*
D03*
Y268000D02*
D03*
Y258500D02*
D03*
D92*
X239940Y346591D02*
D03*
X277940D02*
D03*
D93*
X249690Y327491D02*
D03*
X243190D02*
D03*
X236690D02*
D03*
X230190D02*
D03*
X287690D02*
D03*
X281190D02*
D03*
X274690D02*
D03*
X268190D02*
D03*
D94*
X226000Y366900D02*
D03*
Y399600D02*
D03*
D95*
X258940Y422816D02*
D03*
Y373716D02*
D03*
D96*
X631500Y139250D02*
D03*
Y152250D02*
D03*
X651500Y145750D02*
D03*
D97*
X574250Y192000D02*
D03*
X591250D02*
D03*
X176400Y306600D02*
D03*
X159400D02*
D03*
D98*
X161650Y290600D02*
D03*
X174650D02*
D03*
X168150Y270600D02*
D03*
D99*
X331500Y373026D02*
D03*
X346500D02*
D03*
X331500Y394776D02*
D03*
X346500D02*
D03*
D100*
X350750Y350365D02*
D03*
Y330365D02*
D03*
X327750Y332865D02*
D03*
Y352865D02*
D03*
D101*
X518730Y390750D02*
D03*
Y382750D02*
D03*
X506342Y390744D02*
D03*
Y382744D02*
D03*
X518730Y400750D02*
D03*
Y408750D02*
D03*
X399750Y399730D02*
D03*
Y391730D02*
D03*
X400750Y279750D02*
D03*
Y271750D02*
D03*
X400770Y295750D02*
D03*
Y287750D02*
D03*
X428020Y295750D02*
D03*
Y287750D02*
D03*
X400902Y311035D02*
D03*
Y319035D02*
D03*
X400770Y376250D02*
D03*
Y368250D02*
D03*
D102*
X414520Y286714D02*
D03*
Y296285D02*
D03*
X414540Y319785D02*
D03*
Y310214D02*
D03*
X414408Y367470D02*
D03*
Y377041D02*
D03*
D103*
X390000Y229242D02*
D03*
Y245758D02*
D03*
X352250Y208984D02*
D03*
Y225500D02*
D03*
D104*
X187000Y431250D02*
X189030D01*
X197464Y422816D01*
X258940D01*
M02*
