G04*
G04 #@! TF.GenerationSoftware,Altium Limited,Altium Designer,24.4.1 (13)*
G04*
G04 Layer_Color=8388736*
%FSLAX44Y44*%
%MOMM*%
G71*
G04*
G04 #@! TF.SameCoordinates,4A672E86-6C9B-4248-A0BA-008E6FD5887C*
G04*
G04*
G04 #@! TF.FilePolarity,Negative*
G04*
G01*
G75*
%ADD22R,1.3082X0.7621*%
G04:AMPARAMS|DCode=23|XSize=1.3082mm|YSize=0.7621mm|CornerRadius=0.3811mm|HoleSize=0mm|Usage=FLASHONLY|Rotation=180.000|XOffset=0mm|YOffset=0mm|HoleType=Round|Shape=RoundedRectangle|*
%AMROUNDEDRECTD23*
21,1,1.3082,0.0000,0,0,180.0*
21,1,0.5461,0.7621,0,0,180.0*
1,1,0.7621,-0.2730,0.0000*
1,1,0.7621,0.2730,0.0000*
1,1,0.7621,0.2730,0.0000*
1,1,0.7621,-0.2730,0.0000*
%
%ADD23ROUNDEDRECTD23*%
%ADD25R,0.9779X0.3048*%
%ADD30R,1.5000X0.5500*%
%ADD36R,0.5200X0.5200*%
%ADD37R,0.5200X0.5200*%
G04:AMPARAMS|DCode=38|XSize=1.3082mm|YSize=0.7621mm|CornerRadius=0.3811mm|HoleSize=0mm|Usage=FLASHONLY|Rotation=90.000|XOffset=0mm|YOffset=0mm|HoleType=Round|Shape=RoundedRectangle|*
%AMROUNDEDRECTD38*
21,1,1.3082,0.0000,0,0,90.0*
21,1,0.5461,0.7621,0,0,90.0*
1,1,0.7621,0.0000,0.2730*
1,1,0.7621,0.0000,-0.2730*
1,1,0.7621,0.0000,-0.2730*
1,1,0.7621,0.0000,0.2730*
%
%ADD38ROUNDEDRECTD38*%
%ADD39R,0.7621X1.3082*%
%ADD40R,0.8621X0.7565*%
G04:AMPARAMS|DCode=41|XSize=0.2125mm|YSize=1.3552mm|CornerRadius=0.1062mm|HoleSize=0mm|Usage=FLASHONLY|Rotation=0.000|XOffset=0mm|YOffset=0mm|HoleType=Round|Shape=RoundedRectangle|*
%AMROUNDEDRECTD41*
21,1,0.2125,1.1428,0,0,0.0*
21,1,0.0000,1.3552,0,0,0.0*
1,1,0.2125,0.0000,-0.5714*
1,1,0.2125,0.0000,-0.5714*
1,1,0.2125,0.0000,0.5714*
1,1,0.2125,0.0000,0.5714*
%
%ADD41ROUNDEDRECTD41*%
G04:AMPARAMS|DCode=42|XSize=1.3552mm|YSize=0.2125mm|CornerRadius=0.1062mm|HoleSize=0mm|Usage=FLASHONLY|Rotation=0.000|XOffset=0mm|YOffset=0mm|HoleType=Round|Shape=RoundedRectangle|*
%AMROUNDEDRECTD42*
21,1,1.3552,0.0000,0,0,0.0*
21,1,1.1428,0.2125,0,0,0.0*
1,1,0.2125,0.5714,0.0000*
1,1,0.2125,-0.5714,0.0000*
1,1,0.2125,-0.5714,0.0000*
1,1,0.2125,0.5714,0.0000*
%
%ADD42ROUNDEDRECTD42*%
%ADD43R,1.3552X0.2125*%
%ADD44C,0.9698*%
%ADD45C,0.9900*%
%ADD46R,1.3000X1.0500*%
%ADD47R,1.1400X0.5750*%
%ADD48R,0.7565X0.8621*%
%ADD50R,0.6500X0.9500*%
%ADD51C,0.7500*%
%ADD52R,0.9000X1.0000*%
%ADD53R,1.0000X0.8500*%
%ADD54R,1.0000X0.9000*%
%ADD55R,0.8500X1.0500*%
%ADD56R,0.7000X0.7000*%
%ADD57R,1.6500X0.9500*%
%ADD58R,2.1500X1.6000*%
%ADD59R,0.7000X0.7000*%
%ADD60O,1.5500X0.5000*%
%ADD61R,1.1000X0.9500*%
%ADD62R,0.8500X1.0000*%
%ADD63C,1.6580*%
%ADD64R,1.7000X1.7000*%
%ADD65C,1.7000*%
%ADD66R,0.8000X2.9200*%
%ADD67C,3.0000*%
%ADD68R,2.7500X2.7500*%
%ADD69C,2.7500*%
%ADD70C,4.1500*%
G36*
X254150Y340500D02*
Y332000D01*
X243150D01*
Y345500D01*
X250150D01*
X254150Y340500D01*
D02*
G37*
G36*
Y359500D02*
X250150Y354500D01*
X243150D01*
Y368000D01*
X254150D01*
Y359500D01*
D02*
G37*
G36*
X295150Y332000D02*
X284150D01*
Y340500D01*
X288150Y345500D01*
X295150D01*
Y332000D01*
D02*
G37*
G36*
Y354500D02*
X288150D01*
X284150Y359500D01*
Y368000D01*
X295150D01*
Y354500D01*
D02*
G37*
G36*
X518000Y202250D02*
Y195250D01*
X504500D01*
Y206250D01*
X513000D01*
X518000Y202250D01*
D02*
G37*
G36*
X540500Y195250D02*
X527000D01*
Y202250D01*
X532000Y206250D01*
X540500D01*
Y195250D01*
D02*
G37*
G36*
X518000Y240250D02*
X513000Y236250D01*
X504500D01*
Y247250D01*
X518000D01*
Y240250D01*
D02*
G37*
G36*
X540500Y236250D02*
X532000D01*
X527000Y240250D01*
Y247250D01*
X540500D01*
Y236250D01*
D02*
G37*
D22*
X332750Y441000D02*
D03*
X660750Y264000D02*
D03*
D23*
X296250Y441000D02*
D03*
X624250Y264000D02*
D03*
D25*
X254470Y391955D02*
D03*
Y396956D02*
D03*
Y401958D02*
D03*
Y406959D02*
D03*
Y411960D02*
D03*
Y416961D02*
D03*
Y421963D02*
D03*
X285331D02*
D03*
Y416961D02*
D03*
Y411960D02*
D03*
Y406959D02*
D03*
Y401958D02*
D03*
Y396956D02*
D03*
Y391955D02*
D03*
X617935Y215997D02*
D03*
Y220998D02*
D03*
Y226000D02*
D03*
Y231001D02*
D03*
Y236002D02*
D03*
Y241004D02*
D03*
Y246005D02*
D03*
X587074D02*
D03*
Y241004D02*
D03*
Y236002D02*
D03*
Y231001D02*
D03*
Y226000D02*
D03*
Y220998D02*
D03*
Y215997D02*
D03*
D30*
X280000Y473000D02*
D03*
Y505500D02*
D03*
X320000Y473000D02*
D03*
Y505500D02*
D03*
X360000Y473000D02*
D03*
Y505500D02*
D03*
D36*
X352250Y217500D02*
D03*
Y225500D02*
D03*
X210400Y360168D02*
D03*
Y368168D02*
D03*
X301250Y401000D02*
D03*
Y393000D02*
D03*
X238500Y395250D02*
D03*
Y387250D02*
D03*
X301250Y413000D02*
D03*
Y421000D02*
D03*
X210650Y332168D02*
D03*
Y340168D02*
D03*
X633750Y225000D02*
D03*
Y217000D02*
D03*
Y237000D02*
D03*
Y245000D02*
D03*
X522500Y160750D02*
D03*
Y168750D02*
D03*
D37*
X448500Y211000D02*
D03*
X440500D02*
D03*
X210650Y350168D02*
D03*
X218650D02*
D03*
X511000Y168500D02*
D03*
X503000D02*
D03*
X542000Y168250D02*
D03*
X534000D02*
D03*
D38*
X216750Y431250D02*
D03*
D39*
Y394750D02*
D03*
D40*
X230400Y355659D02*
D03*
Y368676D02*
D03*
Y331159D02*
D03*
Y344176D02*
D03*
D41*
X399750Y416505D02*
D03*
X404750D02*
D03*
X409750D02*
D03*
X414750D02*
D03*
X419750D02*
D03*
X424750D02*
D03*
X429750D02*
D03*
X434750D02*
D03*
X439750D02*
D03*
X444750D02*
D03*
X449750D02*
D03*
X454750D02*
D03*
X459750D02*
D03*
X464750D02*
D03*
X469750D02*
D03*
X474750D02*
D03*
X479750D02*
D03*
X484750D02*
D03*
X489750D02*
D03*
X494750D02*
D03*
X499750D02*
D03*
X504750D02*
D03*
X509750D02*
D03*
X514750D02*
D03*
X519750D02*
D03*
Y264995D02*
D03*
X514750D02*
D03*
X509750D02*
D03*
X504750D02*
D03*
X499750D02*
D03*
X494750D02*
D03*
X489750D02*
D03*
X484750D02*
D03*
X479750D02*
D03*
X474750D02*
D03*
X469750D02*
D03*
X464750D02*
D03*
X459750D02*
D03*
X454750D02*
D03*
X449750D02*
D03*
X444750D02*
D03*
X439750D02*
D03*
X434750D02*
D03*
X429750D02*
D03*
X424750D02*
D03*
X419750D02*
D03*
X414750D02*
D03*
X409750D02*
D03*
X404750D02*
D03*
X399750D02*
D03*
D42*
X535505Y400750D02*
D03*
Y395750D02*
D03*
Y390750D02*
D03*
Y385750D02*
D03*
Y380750D02*
D03*
Y375750D02*
D03*
Y370750D02*
D03*
Y365750D02*
D03*
Y360750D02*
D03*
Y355750D02*
D03*
Y350750D02*
D03*
Y345750D02*
D03*
Y340750D02*
D03*
Y335750D02*
D03*
Y330750D02*
D03*
Y325750D02*
D03*
Y320750D02*
D03*
Y315750D02*
D03*
Y310750D02*
D03*
Y305750D02*
D03*
Y300750D02*
D03*
Y295750D02*
D03*
Y290750D02*
D03*
Y285750D02*
D03*
Y280750D02*
D03*
X383995D02*
D03*
Y285750D02*
D03*
Y290750D02*
D03*
Y295750D02*
D03*
Y300750D02*
D03*
Y305750D02*
D03*
Y310750D02*
D03*
Y315750D02*
D03*
Y320750D02*
D03*
Y325750D02*
D03*
Y330750D02*
D03*
Y335750D02*
D03*
Y340750D02*
D03*
Y345750D02*
D03*
Y350750D02*
D03*
Y355750D02*
D03*
Y360750D02*
D03*
Y365750D02*
D03*
Y370750D02*
D03*
Y375750D02*
D03*
Y380750D02*
D03*
Y385750D02*
D03*
Y390750D02*
D03*
Y395750D02*
D03*
D43*
Y400750D02*
D03*
D44*
X248650Y361250D02*
D03*
X289650D02*
D03*
X511250Y200750D02*
D03*
Y241750D02*
D03*
D45*
X289650Y337500D02*
D03*
X248650D02*
D03*
X535000Y241750D02*
D03*
Y200750D02*
D03*
D46*
X327750Y350365D02*
D03*
X350750D02*
D03*
Y332865D02*
D03*
X327750D02*
D03*
D47*
X346550Y379776D02*
D03*
Y388026D02*
D03*
D48*
X516759Y183500D02*
D03*
X503741D02*
D03*
X541259D02*
D03*
X528241D02*
D03*
D50*
X164500Y507250D02*
D03*
Y491250D02*
D03*
X155500Y507250D02*
D03*
Y491250D02*
D03*
X195500Y491250D02*
D03*
Y507250D02*
D03*
X204500Y491250D02*
D03*
Y507250D02*
D03*
X235500Y491250D02*
D03*
Y507250D02*
D03*
X244500Y491250D02*
D03*
Y507250D02*
D03*
X115500Y491250D02*
D03*
Y507250D02*
D03*
X124500Y491250D02*
D03*
Y507250D02*
D03*
X75500Y491250D02*
D03*
Y507250D02*
D03*
X84500Y491250D02*
D03*
Y507250D02*
D03*
D51*
X486000Y240750D02*
D03*
X570000Y403750D02*
D03*
X316000Y424750D02*
D03*
X501250Y128000D02*
D03*
Y107000D02*
D03*
Y117500D02*
D03*
X316000Y414000D02*
D03*
X608750Y264000D02*
D03*
D52*
X448300Y435250D02*
D03*
X461300D02*
D03*
X440000Y116500D02*
D03*
X427000D02*
D03*
X359750D02*
D03*
X346750D02*
D03*
X386750D02*
D03*
X399750D02*
D03*
X467250D02*
D03*
X480250D02*
D03*
X571750Y233750D02*
D03*
X558750D02*
D03*
D53*
X440000Y88695D02*
D03*
Y101195D02*
D03*
X359750Y88750D02*
D03*
Y101250D02*
D03*
X399750D02*
D03*
Y88750D02*
D03*
X480250Y101250D02*
D03*
Y88750D02*
D03*
D54*
X428000Y88945D02*
D03*
Y101945D02*
D03*
X347750Y89000D02*
D03*
Y102000D02*
D03*
X387750D02*
D03*
Y89000D02*
D03*
X468250Y102000D02*
D03*
Y89000D02*
D03*
D55*
X440500Y77945D02*
D03*
X427500D02*
D03*
X434000Y58945D02*
D03*
X360250Y78000D02*
D03*
X347250D02*
D03*
X353750Y59000D02*
D03*
X393750D02*
D03*
X387250Y78000D02*
D03*
X400250D02*
D03*
X474250Y59000D02*
D03*
X467750Y78000D02*
D03*
X480750D02*
D03*
D56*
X417000Y102195D02*
D03*
Y111195D02*
D03*
X336750Y102750D02*
D03*
Y111750D02*
D03*
X376750Y111750D02*
D03*
Y102750D02*
D03*
X457250Y111000D02*
D03*
Y102000D02*
D03*
X548250Y244500D02*
D03*
Y235500D02*
D03*
D57*
X638750Y400481D02*
D03*
Y389481D02*
D03*
Y378481D02*
D03*
Y367481D02*
D03*
Y356481D02*
D03*
Y345481D02*
D03*
Y334481D02*
D03*
Y323481D02*
D03*
D58*
X612750Y286781D02*
D03*
Y424281D02*
D03*
X695750Y286781D02*
D03*
Y424281D02*
D03*
D59*
X343750Y314615D02*
D03*
X334750D02*
D03*
D60*
X424250Y185000D02*
D03*
Y191500D02*
D03*
Y198000D02*
D03*
Y204500D02*
D03*
Y211000D02*
D03*
Y217500D02*
D03*
Y224000D02*
D03*
Y230500D02*
D03*
X368250Y185000D02*
D03*
Y191500D02*
D03*
Y198000D02*
D03*
Y204500D02*
D03*
Y211000D02*
D03*
Y217500D02*
D03*
Y224000D02*
D03*
Y230500D02*
D03*
D61*
X447000Y236500D02*
D03*
Y223000D02*
D03*
D62*
X571500Y246250D02*
D03*
X559000D02*
D03*
D63*
X102750Y151750D02*
D03*
X252750D02*
D03*
D64*
X364650Y137300D02*
D03*
X440900Y38750D02*
D03*
D65*
X364650Y162700D02*
D03*
X390050Y137300D02*
D03*
X415450D02*
D03*
X390050Y162700D02*
D03*
X415450D02*
D03*
X440850Y137300D02*
D03*
Y162700D02*
D03*
X364700Y13350D02*
D03*
Y38750D02*
D03*
X390100Y13350D02*
D03*
X415500D02*
D03*
X390100Y38750D02*
D03*
X415500D02*
D03*
X440900Y13350D02*
D03*
D66*
X480200Y500800D02*
D03*
X467500D02*
D03*
X454800D02*
D03*
X442100D02*
D03*
X429400D02*
D03*
X480200Y460500D02*
D03*
X467500D02*
D03*
X454800D02*
D03*
X442100D02*
D03*
X429400D02*
D03*
D67*
X72000Y347250D02*
D03*
Y431250D02*
D03*
X678000Y78000D02*
D03*
Y162000D02*
D03*
D68*
X145000Y347250D02*
D03*
X605000Y162000D02*
D03*
D69*
X145000Y389250D02*
D03*
Y431250D02*
D03*
X187000Y347250D02*
D03*
Y389250D02*
D03*
Y431250D02*
D03*
X563000Y78000D02*
D03*
Y120000D02*
D03*
Y162000D02*
D03*
X605000Y78000D02*
D03*
Y120000D02*
D03*
D70*
X30000Y520000D02*
D03*
X720000Y20000D02*
D03*
X30000D02*
D03*
X720000Y520000D02*
D03*
M02*
