G04*
G04 #@! TF.GenerationSoftware,Altium Limited,Altium Designer,24.4.1 (13)*
G04*
G04 Layer_Color=128*
%FSLAX44Y44*%
%MOMM*%
G71*
G04*
G04 #@! TF.SameCoordinates,4A672E86-6C9B-4248-A0BA-008E6FD5887C*
G04*
G04*
G04 #@! TF.FilePolarity,Positive*
G04*
G01*
G75*
%ADD24R,0.7500X0.8500*%
%ADD26R,0.8500X0.7000*%
%ADD27R,0.8500X0.7500*%
%ADD28R,0.7000X0.9000*%
%ADD29R,0.5500X0.5500*%
%ADD33R,0.5500X0.5500*%
%ADD35R,0.9500X0.8000*%
%ADD36R,0.5200X0.5200*%
%ADD37R,0.5200X0.5200*%
G04:AMPARAMS|DCode=38|XSize=1.3082mm|YSize=0.7621mm|CornerRadius=0.3811mm|HoleSize=0mm|Usage=FLASHONLY|Rotation=90.000|XOffset=0mm|YOffset=0mm|HoleType=Round|Shape=RoundedRectangle|*
%AMROUNDEDRECTD38*
21,1,1.3082,0.0000,0,0,90.0*
21,1,0.5461,0.7621,0,0,90.0*
1,1,0.7621,0.0000,0.2730*
1,1,0.7621,0.0000,-0.2730*
1,1,0.7621,0.0000,-0.2730*
1,1,0.7621,0.0000,0.2730*
%
%ADD38ROUNDEDRECTD38*%
%ADD39R,0.7621X1.3082*%
%ADD49R,0.7000X0.8500*%
%ADD79R,0.4500X0.3500*%
G04:AMPARAMS|DCode=80|XSize=0.84mm|YSize=0.26mm|CornerRadius=0.0325mm|HoleSize=0mm|Usage=FLASHONLY|Rotation=270.000|XOffset=0mm|YOffset=0mm|HoleType=Round|Shape=RoundedRectangle|*
%AMROUNDEDRECTD80*
21,1,0.8400,0.1950,0,0,270.0*
21,1,0.7750,0.2600,0,0,270.0*
1,1,0.0650,-0.0975,-0.3875*
1,1,0.0650,-0.0975,0.3875*
1,1,0.0650,0.0975,0.3875*
1,1,0.0650,0.0975,-0.3875*
%
%ADD80ROUNDEDRECTD80*%
G04:AMPARAMS|DCode=81|XSize=0.84mm|YSize=0.26mm|CornerRadius=0.0325mm|HoleSize=0mm|Usage=FLASHONLY|Rotation=180.000|XOffset=0mm|YOffset=0mm|HoleType=Round|Shape=RoundedRectangle|*
%AMROUNDEDRECTD81*
21,1,0.8400,0.1950,0,0,180.0*
21,1,0.7750,0.2600,0,0,180.0*
1,1,0.0650,-0.3875,0.0975*
1,1,0.0650,0.3875,0.0975*
1,1,0.0650,0.3875,-0.0975*
1,1,0.0650,-0.3875,-0.0975*
%
%ADD81ROUNDEDRECTD81*%
%ADD82R,0.9000X0.7000*%
%ADD83R,0.4000X0.5000*%
%ADD84R,1.5000X1.5500*%
%ADD85R,0.5800X1.7300*%
%ADD86C,1.7397*%
%ADD87R,0.8000X0.4000*%
%ADD88R,0.9000X1.0500*%
%ADD89R,1.0500X0.9000*%
%ADD90R,1.6000X5.7000*%
%ADD91R,1.0000X0.7000*%
%ADD93R,0.3500X0.5000*%
%ADD94R,1.2200X0.9100*%
%ADD95R,3.1500X1.9600*%
%ADD96R,0.7000X0.4200*%
%ADD97R,1.1500X1.0500*%
%ADD98R,0.4200X0.7000*%
%ADD99R,0.9500X1.3500*%
%ADD100R,1.2500X1.0000*%
%ADD101R,0.5000X0.4000*%
%ADD102R,0.6725X0.7154*%
%ADD103R,1.4562X1.2546*%
G36*
X214728Y125413D02*
X220593D01*
Y95113D01*
X201263D01*
Y125413D01*
X207128D01*
Y140413D01*
X214728D01*
Y125413D01*
D02*
G37*
G36*
X251690Y354991D02*
X252190D01*
Y343641D01*
X255990D01*
Y339341D01*
X252190D01*
Y335191D01*
X227690D01*
Y339341D01*
X223890D01*
Y343641D01*
X227690D01*
Y354991D01*
X228190D01*
Y357991D01*
X232190D01*
Y354991D01*
X234690D01*
Y357991D01*
X238690D01*
Y354991D01*
X241190D01*
Y357991D01*
X245190D01*
Y354991D01*
X247690D01*
Y357991D01*
X251690D01*
Y354991D01*
D02*
G37*
G36*
X289690D02*
X290190D01*
Y343641D01*
X293990D01*
Y339341D01*
X290190D01*
Y335191D01*
X265690D01*
Y339341D01*
X261890D01*
Y343641D01*
X265690D01*
Y354991D01*
X266190D01*
Y357991D01*
X270190D01*
Y354991D01*
X272690D01*
Y357991D01*
X276690D01*
Y354991D01*
X279190D01*
Y357991D01*
X283190D01*
Y354991D01*
X285690D01*
Y357991D01*
X289690D01*
Y354991D01*
D02*
G37*
D24*
X526750Y482000D02*
D03*
X539750D02*
D03*
X564000D02*
D03*
X551000D02*
D03*
X592500Y482000D02*
D03*
X605500D02*
D03*
X629750D02*
D03*
X616750D02*
D03*
X535657Y433496D02*
D03*
X548657D02*
D03*
X572906D02*
D03*
X559907D02*
D03*
X149650Y284100D02*
D03*
X136650D02*
D03*
X275250Y474500D02*
D03*
X288250D02*
D03*
X539250Y141750D02*
D03*
X526250D02*
D03*
X333500Y187500D02*
D03*
X320500D02*
D03*
X393000Y197750D02*
D03*
X406000D02*
D03*
X433500Y86695D02*
D03*
X420500D02*
D03*
X473500Y86500D02*
D03*
X460500D02*
D03*
X393250Y86500D02*
D03*
X380250D02*
D03*
X353250Y85500D02*
D03*
X340250D02*
D03*
X295500Y292250D02*
D03*
X282500D02*
D03*
X651750Y323481D02*
D03*
X638750D02*
D03*
X651750Y367481D02*
D03*
X638750D02*
D03*
X651750Y345481D02*
D03*
X638750D02*
D03*
X651750Y389481D02*
D03*
X638750D02*
D03*
X333000Y473000D02*
D03*
X320000D02*
D03*
X373000D02*
D03*
X360000D02*
D03*
X373000Y485500D02*
D03*
X360000D02*
D03*
X333000Y485500D02*
D03*
X320000D02*
D03*
D26*
X604500Y470000D02*
D03*
Y457500D02*
D03*
X617750Y470000D02*
D03*
Y457500D02*
D03*
X103900Y308850D02*
D03*
Y296350D02*
D03*
X308500Y187500D02*
D03*
Y200000D02*
D03*
D27*
X149250Y251750D02*
D03*
Y238750D02*
D03*
X117150Y296100D02*
D03*
Y309100D02*
D03*
X161400Y259200D02*
D03*
Y246200D02*
D03*
X78000Y296000D02*
D03*
Y309000D02*
D03*
X90650Y309100D02*
D03*
Y296100D02*
D03*
X174650Y259200D02*
D03*
Y246200D02*
D03*
X161400Y216100D02*
D03*
Y229100D02*
D03*
X174650Y229100D02*
D03*
Y216100D02*
D03*
X515500Y128750D02*
D03*
Y141750D02*
D03*
X302000Y380250D02*
D03*
Y367250D02*
D03*
X86000Y491000D02*
D03*
Y478000D02*
D03*
X490500Y490500D02*
D03*
Y503500D02*
D03*
D28*
X433500Y98695D02*
D03*
X420500D02*
D03*
X427000Y117695D02*
D03*
X473500Y98500D02*
D03*
X460500D02*
D03*
X467000Y117500D02*
D03*
X393250Y98500D02*
D03*
X380250D02*
D03*
X386750Y117500D02*
D03*
X353250Y97500D02*
D03*
X340250D02*
D03*
X346750Y116500D02*
D03*
D29*
X490250Y105000D02*
D03*
Y96000D02*
D03*
Y114500D02*
D03*
Y123500D02*
D03*
X450000Y114500D02*
D03*
Y123500D02*
D03*
Y105000D02*
D03*
Y96000D02*
D03*
X409750Y114500D02*
D03*
Y123500D02*
D03*
Y105000D02*
D03*
Y96000D02*
D03*
X369750Y114500D02*
D03*
Y123500D02*
D03*
Y104250D02*
D03*
Y95250D02*
D03*
D33*
X439750Y435500D02*
D03*
X448750D02*
D03*
D35*
X193500Y491250D02*
D03*
Y477750D02*
D03*
X206500Y491250D02*
D03*
Y477750D02*
D03*
X153413Y491250D02*
D03*
Y477750D02*
D03*
X166500Y491250D02*
D03*
Y477750D02*
D03*
X246500Y491250D02*
D03*
Y477750D02*
D03*
X233500Y491250D02*
D03*
Y477750D02*
D03*
X126645Y491250D02*
D03*
Y477750D02*
D03*
X113395Y491250D02*
D03*
Y477750D02*
D03*
X73500Y491250D02*
D03*
Y477750D02*
D03*
D36*
X235750Y159750D02*
D03*
Y151750D02*
D03*
X280000Y497500D02*
D03*
Y505500D02*
D03*
X360000Y497500D02*
D03*
Y505500D02*
D03*
X320000Y497500D02*
D03*
Y505500D02*
D03*
X440500Y211000D02*
D03*
Y203000D02*
D03*
X548250Y243500D02*
D03*
Y235500D02*
D03*
D37*
X137400Y302600D02*
D03*
X129400D02*
D03*
X630750Y356481D02*
D03*
X638750D02*
D03*
X287750Y242750D02*
D03*
X295750D02*
D03*
X343750Y314615D02*
D03*
X335750D02*
D03*
X563750Y233750D02*
D03*
X571750D02*
D03*
D38*
X641500Y62500D02*
D03*
D39*
Y99000D02*
D03*
D49*
X539500Y468750D02*
D03*
X527000D02*
D03*
X539500Y455500D02*
D03*
X527000D02*
D03*
X548500Y406879D02*
D03*
X536000D02*
D03*
X548500Y420129D02*
D03*
X536000D02*
D03*
X434000Y68445D02*
D03*
X446500D02*
D03*
X474250Y68500D02*
D03*
X486750D02*
D03*
X393750D02*
D03*
X406250D02*
D03*
X353750Y68500D02*
D03*
X366250D02*
D03*
X288000Y487000D02*
D03*
X275500D02*
D03*
D79*
X546250Y494750D02*
D03*
Y501250D02*
D03*
Y507750D02*
D03*
X565750D02*
D03*
Y501250D02*
D03*
Y494750D02*
D03*
X612000Y494750D02*
D03*
Y501250D02*
D03*
Y507750D02*
D03*
X631500D02*
D03*
Y501250D02*
D03*
Y494750D02*
D03*
X555157Y446246D02*
D03*
Y452746D02*
D03*
Y459246D02*
D03*
X574657D02*
D03*
Y452746D02*
D03*
Y446246D02*
D03*
D80*
X109650Y238350D02*
D03*
X114650D02*
D03*
X119650D02*
D03*
X124650D02*
D03*
Y267050D02*
D03*
X119650D02*
D03*
X114650D02*
D03*
X109650D02*
D03*
D81*
X102800Y260200D02*
D03*
Y255200D02*
D03*
Y250200D02*
D03*
Y245200D02*
D03*
X131500D02*
D03*
Y250200D02*
D03*
Y255200D02*
D03*
Y260200D02*
D03*
D82*
X46250Y302500D02*
D03*
X65250Y296000D02*
D03*
Y309000D02*
D03*
D83*
X400770Y350750D02*
D03*
X408770D02*
D03*
X509750Y294344D02*
D03*
X501750D02*
D03*
X509750Y281770D02*
D03*
X501750D02*
D03*
X519750D02*
D03*
X527750D02*
D03*
X408750Y337250D02*
D03*
X400750D02*
D03*
D84*
X247000Y279000D02*
D03*
X229000D02*
D03*
X216750Y155750D02*
D03*
X198750D02*
D03*
D85*
X195928Y131763D02*
D03*
X225928D02*
D03*
D86*
X210928Y113954D02*
D03*
D87*
X291750Y194000D02*
D03*
Y187500D02*
D03*
Y181000D02*
D03*
X272750D02*
D03*
Y187500D02*
D03*
Y194000D02*
D03*
D88*
X406750Y210750D02*
D03*
X392250D02*
D03*
D89*
X422000Y224500D02*
D03*
Y210000D02*
D03*
X501250Y128000D02*
D03*
Y142500D02*
D03*
D90*
X318250Y268000D02*
D03*
X365250D02*
D03*
D91*
X271755Y258500D02*
D03*
Y268000D02*
D03*
Y277500D02*
D03*
X293745D02*
D03*
Y268000D02*
D03*
Y258500D02*
D03*
D93*
X249690Y327491D02*
D03*
X243190D02*
D03*
X236690D02*
D03*
X230190D02*
D03*
X287690D02*
D03*
X281190D02*
D03*
X274690D02*
D03*
X268190D02*
D03*
D94*
X226000Y366900D02*
D03*
Y399600D02*
D03*
D95*
X258940Y422816D02*
D03*
Y373716D02*
D03*
D96*
X631500Y139250D02*
D03*
Y152250D02*
D03*
X651500Y145750D02*
D03*
D97*
X574250Y192000D02*
D03*
X591250D02*
D03*
X176400Y306600D02*
D03*
X159400D02*
D03*
D98*
X161650Y290600D02*
D03*
X174650D02*
D03*
X168150Y270600D02*
D03*
D99*
X331500Y373026D02*
D03*
X346500D02*
D03*
X331500Y394776D02*
D03*
X346500D02*
D03*
D100*
X350750Y350365D02*
D03*
Y330365D02*
D03*
X327750Y332865D02*
D03*
Y352865D02*
D03*
D101*
X518730Y390750D02*
D03*
Y382750D02*
D03*
X506342Y390744D02*
D03*
Y382744D02*
D03*
X518730Y400750D02*
D03*
Y408750D02*
D03*
X399750Y399730D02*
D03*
Y391730D02*
D03*
X400750Y279750D02*
D03*
Y271750D02*
D03*
X400770Y295750D02*
D03*
Y287750D02*
D03*
X428020Y295750D02*
D03*
Y287750D02*
D03*
X400902Y311035D02*
D03*
Y319035D02*
D03*
X400770Y376250D02*
D03*
Y368250D02*
D03*
D102*
X414520Y286714D02*
D03*
Y296285D02*
D03*
X414540Y319785D02*
D03*
Y310214D02*
D03*
X414408Y367470D02*
D03*
Y377041D02*
D03*
D103*
X390000Y229242D02*
D03*
Y245758D02*
D03*
X352250Y208984D02*
D03*
Y225500D02*
D03*
M02*
