G04*
G04 #@! TF.GenerationSoftware,Altium Limited,Altium Designer,24.4.1 (13)*
G04*
G04 Layer_Color=32896*
%FSLAX44Y44*%
%MOMM*%
G71*
G04*
G04 #@! TF.SameCoordinates,4A672E86-6C9B-4248-A0BA-008E6FD5887C*
G04*
G04*
G04 #@! TF.FilePolarity,Positive*
G04*
G01*
G75*
%ADD11C,0.1270*%
%ADD12C,0.2500*%
%ADD15C,0.2000*%
D11*
X100160Y271640D02*
G03*
X100160Y271640I-2000J0D01*
G01*
X102150Y267700D02*
X105650D01*
X128650D02*
X132150D01*
X102150Y237700D02*
X105650D01*
X128650D02*
X132150D01*
X102150Y264200D02*
Y267700D01*
X132150Y264200D02*
Y267700D01*
X102150Y237700D02*
Y241200D01*
X132150Y237700D02*
Y241200D01*
D12*
X547500Y487500D02*
G03*
X547500Y487500I-1250J0D01*
G01*
X613250Y487500D02*
G03*
X613250Y487500I-1250J0D01*
G01*
X556407Y438996D02*
G03*
X556407Y438996I-1250J0D01*
G01*
X66500Y318000D02*
G03*
X66500Y318000I-1250J0D01*
G01*
X302750Y194000D02*
G03*
X302750Y194000I-1250J0D01*
G01*
X633939Y103361D02*
G03*
X633939Y103361I-1250J0D01*
G01*
X443750Y98695D02*
G03*
X443750Y98695I-1250J0D01*
G01*
X483750Y98500D02*
G03*
X483750Y98500I-1250J0D01*
G01*
X403500Y98500D02*
G03*
X403500Y98500I-1250J0D01*
G01*
X363500Y97500D02*
G03*
X363500Y97500I-1250J0D01*
G01*
X305500Y267750D02*
G03*
X305500Y267750I-1250J0D01*
G01*
X262000Y258500D02*
G03*
X262000Y258500I-1250J0D01*
G01*
X250940Y318991D02*
G03*
X250940Y318991I-1250J0D01*
G01*
X238850Y366900D02*
G03*
X238850Y366900I-1250J0D01*
G01*
X288940Y318991D02*
G03*
X288940Y318991I-1250J0D01*
G01*
D15*
X552500Y490250D02*
X559500D01*
X552500Y512250D02*
X559500D01*
X552500Y490250D02*
Y512250D01*
X559500Y490250D02*
Y512250D01*
X618250Y490250D02*
X625250D01*
X618250Y512250D02*
X625250D01*
X618250Y490250D02*
Y512250D01*
X625250Y490250D02*
Y512250D01*
X561407Y441746D02*
X568407D01*
X561407Y463746D02*
X568407D01*
X561407Y441746D02*
Y463746D01*
X568407Y441746D02*
Y463746D01*
X128400Y308950D02*
X138400D01*
X128400Y296250D02*
X138400D01*
X49000Y291500D02*
Y295000D01*
Y291500D02*
X57000D01*
X49000Y310000D02*
Y313500D01*
X57000D01*
X399520Y344500D02*
X410020D01*
X399520Y357000D02*
X410020D01*
X229400Y150750D02*
Y160750D01*
X242100Y150750D02*
Y160750D01*
X187928Y102413D02*
X197513D01*
X224343D02*
X233928D01*
Y128413D01*
X187928D02*
X189278D01*
X232578D02*
X233928D01*
X187928Y102413D02*
Y128413D01*
X280500Y198500D02*
X284000D01*
X280500Y176500D02*
X284000D01*
X629750Y350131D02*
X639750D01*
X629750Y362831D02*
X639750D01*
X633500Y67250D02*
X634300D01*
X633500D02*
Y94250D01*
X634300D01*
X648700Y67250D02*
X649500D01*
Y94250D01*
X648700D02*
X649500D01*
X438000Y106945D02*
Y114945D01*
X434500D02*
X438000D01*
X416000Y106945D02*
Y114945D01*
X419500D01*
X478000Y106750D02*
Y114750D01*
X474500D02*
X478000D01*
X456000Y106750D02*
Y114750D01*
X459500D01*
X397750Y106750D02*
Y114750D01*
X394250D02*
X397750D01*
X375750Y106750D02*
Y114750D01*
X379250D01*
X357750Y105750D02*
Y113750D01*
X354250D02*
X357750D01*
X335750Y105750D02*
Y113750D01*
X339250D01*
X286750Y236400D02*
X296750D01*
X286750Y249100D02*
X296750D01*
X330000Y236500D02*
X353500D01*
X330000Y299500D02*
X353500D01*
X280505Y253000D02*
X284995D01*
X280505Y283000D02*
X284995D01*
X224440Y325991D02*
Y331441D01*
X255190Y325991D02*
X255440D01*
X224440D02*
X224690D01*
X255440D02*
Y331441D01*
X218000Y375450D02*
X234000D01*
Y391050D01*
X218000Y375450D02*
Y391050D01*
X234000D01*
X244990Y387266D02*
Y409266D01*
X272890Y387266D02*
Y409266D01*
X262440Y325991D02*
Y331441D01*
X293190Y325991D02*
X293440D01*
X262440D02*
X262690D01*
X293440D02*
Y331441D01*
X638750Y134750D02*
X648250D01*
Y151600D02*
Y156750D01*
Y134750D02*
Y139900D01*
X638750Y156750D02*
X648250D01*
X634750Y145100D02*
Y146400D01*
X157150Y273850D02*
Y283350D01*
X174000Y273850D02*
X179150D01*
X157150D02*
X162300D01*
X179150D02*
Y283350D01*
X167500Y287350D02*
X168800D01*
X286350Y496500D02*
Y506500D01*
X273650Y496500D02*
Y506500D01*
X366350Y496500D02*
Y506500D01*
X353650Y496500D02*
Y506500D01*
X326350Y496500D02*
Y506500D01*
X313650Y496500D02*
Y506500D01*
X434150Y202000D02*
Y212000D01*
X446850Y202000D02*
Y212000D01*
X334750Y320965D02*
X344750D01*
X334750Y308265D02*
X344750D01*
X541900Y234500D02*
Y244500D01*
X554600Y234500D02*
Y244500D01*
X562750Y227400D02*
X572750D01*
X562750Y240100D02*
X572750D01*
X328000Y362276D02*
X350000D01*
X328000Y383775D02*
X350000D01*
X328000Y384025D02*
X350000D01*
X328000Y405526D02*
X350000D01*
X343500Y339115D02*
Y341615D01*
X358000Y339115D02*
Y341615D01*
X335000D02*
Y344115D01*
X320500Y341615D02*
Y344115D01*
X512480Y381500D02*
Y392000D01*
X524980Y381500D02*
Y392000D01*
X500092Y380994D02*
Y392494D01*
X512592Y380994D02*
Y392494D01*
X524980Y399500D02*
Y410000D01*
X512480Y399500D02*
Y410000D01*
X393500Y390480D02*
Y400980D01*
X406000Y390480D02*
Y400980D01*
X500000Y300594D02*
X511500D01*
X500000Y288094D02*
X511500D01*
X500500Y288020D02*
X511000D01*
X500500Y275520D02*
X511000D01*
X518500D02*
X529000D01*
X518500Y288020D02*
X529000D01*
X394500Y270500D02*
Y281000D01*
X407000Y270500D02*
Y281000D01*
X394520Y286500D02*
Y297000D01*
X407020Y286500D02*
Y297000D01*
X407158Y283137D02*
Y299862D01*
X421882Y283137D02*
Y299862D01*
X421770Y286500D02*
Y297000D01*
X434270Y286500D02*
Y297000D01*
X421902Y306637D02*
Y323362D01*
X407178Y306637D02*
Y323362D01*
X407152Y309785D02*
Y320285D01*
X394652Y309785D02*
Y320285D01*
X399750Y344500D02*
X409750D01*
X399750Y330000D02*
X409750D01*
X394520Y367000D02*
Y377500D01*
X407020Y367000D02*
Y377500D01*
X407045Y363893D02*
Y380618D01*
X421770Y363893D02*
Y380618D01*
X378719Y222969D02*
Y252031D01*
X401281Y222969D02*
Y252031D01*
X340969Y202711D02*
Y231773D01*
X363531Y202711D02*
Y231773D01*
M02*
