G04*
G04 #@! TF.GenerationSoftware,Altium Limited,Altium Designer,24.4.1 (13)*
G04*
G04 Layer_Physical_Order=1*
G04 Layer_Color=255*
%FSLAX44Y44*%
%MOMM*%
G71*
G04*
G04 #@! TF.SameCoordinates,A59C2C85-A93C-4369-95B1-CFFD4854EA8D*
G04*
G04*
G04 #@! TF.FilePolarity,Positive*
G04*
G01*
G75*
%ADD13C,0.2000*%
%ADD18R,1.8000X4.6000*%
%ADD19R,2.0000X5.3000*%
%ADD20R,0.6000X0.5500*%
%ADD21R,1.2546X1.4562*%
G04:AMPARAMS|DCode=22|XSize=0.55mm|YSize=0.6mm|CornerRadius=0mm|HoleSize=0mm|Usage=FLASHONLY|Rotation=45.000|XOffset=0mm|YOffset=0mm|HoleType=Round|Shape=Rectangle|*
%AMROTATEDRECTD22*
4,1,4,0.0177,-0.4066,-0.4066,0.0177,-0.0177,0.4066,0.4066,-0.0177,0.0177,-0.4066,0.0*
%
%ADD22ROTATEDRECTD22*%

G04:AMPARAMS|DCode=23|XSize=0.7154mm|YSize=0.6725mm|CornerRadius=0mm|HoleSize=0mm|Usage=FLASHONLY|Rotation=45.000|XOffset=0mm|YOffset=0mm|HoleType=Round|Shape=Rectangle|*
%AMROTATEDRECTD23*
4,1,4,-0.0152,-0.4907,-0.4907,-0.0152,0.0152,0.4907,0.4907,0.0152,-0.0152,-0.4907,0.0*
%
%ADD23ROTATEDRECTD23*%

G04:AMPARAMS|DCode=24|XSize=0.7154mm|YSize=0.6725mm|CornerRadius=0mm|HoleSize=0mm|Usage=FLASHONLY|Rotation=315.000|XOffset=0mm|YOffset=0mm|HoleType=Round|Shape=Rectangle|*
%AMROTATEDRECTD24*
4,1,4,-0.4907,0.0152,-0.0152,0.4907,0.4907,-0.0152,0.0152,-0.4907,-0.4907,0.0152,0.0*
%
%ADD24ROTATEDRECTD24*%

%ADD25R,0.5500X0.6000*%
G04:AMPARAMS|DCode=26|XSize=0.55mm|YSize=0.6mm|CornerRadius=0mm|HoleSize=0mm|Usage=FLASHONLY|Rotation=315.000|XOffset=0mm|YOffset=0mm|HoleType=Round|Shape=Rectangle|*
%AMROTATEDRECTD26*
4,1,4,-0.4066,-0.0177,0.0177,0.4066,0.4066,0.0177,-0.0177,-0.4066,-0.4066,-0.0177,0.0*
%
%ADD26ROTATEDRECTD26*%

G04:AMPARAMS|DCode=27|XSize=0.85mm|YSize=0.7mm|CornerRadius=0mm|HoleSize=0mm|Usage=FLASHONLY|Rotation=135.000|XOffset=0mm|YOffset=0mm|HoleType=Round|Shape=Rectangle|*
%AMROTATEDRECTD27*
4,1,4,0.5480,-0.0530,0.0530,-0.5480,-0.5480,0.0530,-0.0530,0.5480,0.5480,-0.0530,0.0*
%
%ADD27ROTATEDRECTD27*%

G04:AMPARAMS|DCode=28|XSize=0.6mm|YSize=1.65mm|CornerRadius=0mm|HoleSize=0mm|Usage=FLASHONLY|Rotation=45.000|XOffset=0mm|YOffset=0mm|HoleType=Round|Shape=Rectangle|*
%AMROTATEDRECTD28*
4,1,4,0.3712,-0.7955,-0.7955,0.3712,-0.3712,0.7955,0.7955,-0.3712,0.3712,-0.7955,0.0*
%
%ADD28ROTATEDRECTD28*%

G04:AMPARAMS|DCode=29|XSize=0.6mm|YSize=1.85mm|CornerRadius=0mm|HoleSize=0mm|Usage=FLASHONLY|Rotation=45.000|XOffset=0mm|YOffset=0mm|HoleType=Round|Shape=Rectangle|*
%AMROTATEDRECTD29*
4,1,4,0.4419,-0.8662,-0.8662,0.4419,-0.4419,0.8662,0.8662,-0.4419,0.4419,-0.8662,0.0*
%
%ADD29ROTATEDRECTD29*%

%ADD30R,1.1430X2.0320*%
%ADD31R,3.2000X1.6000*%
G04:AMPARAMS|DCode=32|XSize=0.6mm|YSize=1.65mm|CornerRadius=0mm|HoleSize=0mm|Usage=FLASHONLY|Rotation=315.000|XOffset=0mm|YOffset=0mm|HoleType=Round|Shape=Rectangle|*
%AMROTATEDRECTD32*
4,1,4,-0.7955,-0.3712,0.3712,0.7955,0.7955,0.3712,-0.3712,-0.7955,-0.7955,-0.3712,0.0*
%
%ADD32ROTATEDRECTD32*%

G04:AMPARAMS|DCode=33|XSize=0.6mm|YSize=1.85mm|CornerRadius=0mm|HoleSize=0mm|Usage=FLASHONLY|Rotation=315.000|XOffset=0mm|YOffset=0mm|HoleType=Round|Shape=Rectangle|*
%AMROTATEDRECTD33*
4,1,4,-0.8662,-0.4419,0.4419,0.8662,0.8662,0.4419,-0.4419,-0.8662,-0.8662,-0.4419,0.0*
%
%ADD33ROTATEDRECTD33*%

%ADD34R,0.6725X0.7154*%
%ADD35R,0.8500X0.7000*%
%ADD36R,0.9500X0.8000*%
%ADD37R,2.7000X1.0000*%
%ADD38R,2.7000X3.3000*%
%ADD39R,1.0121X1.2084*%
%ADD40R,0.7154X0.6725*%
%ADD58C,1.3100*%
%ADD59R,1.3100X1.3100*%
%ADD60C,1.5748*%
%ADD64C,0.6000*%
%ADD65C,0.1519*%
%ADD66C,0.1724*%
%ADD67C,2.0000*%
%ADD68C,1.5000*%
%ADD69C,0.5000*%
%ADD70C,0.7500*%
%ADD71C,0.3000*%
%ADD72C,0.1016*%
%ADD73R,1.3000X10.7000*%
%ADD74R,11.6000X1.2000*%
%ADD75R,2.5500X8.1000*%
%ADD76R,4.4000X2.1000*%
%ADD77C,1.2000*%
%ADD78C,2.1000*%
%ADD79C,2.5500*%
%ADD80C,1.4000*%
%ADD81R,1.4000X1.4000*%
%ADD82C,0.5000*%
%ADD83C,1.0000*%
%ADD84C,5.0000*%
G36*
X815000Y820000D02*
X177500D01*
Y897961D01*
X815000D01*
Y820000D01*
D02*
G37*
G36*
X909377Y897140D02*
X915450Y895513D01*
X921258Y893107D01*
X926703Y889964D01*
X931691Y886136D01*
X936136Y881691D01*
X939964Y876703D01*
X943107Y871258D01*
X945513Y865450D01*
X947140Y859377D01*
X947961Y853143D01*
Y850000D01*
Y790000D01*
X865000D01*
Y715000D01*
X825000D01*
Y819000D01*
Y897961D01*
X903143D01*
X909377Y897140D01*
D02*
G37*
G36*
X176400Y891196D02*
X176268Y890876D01*
X175889Y888000D01*
Y776516D01*
X170484D01*
Y758484D01*
X175889D01*
Y700000D01*
X175984Y699278D01*
Y672484D01*
X178410D01*
Y617516D01*
X175984D01*
Y562484D01*
X198016D01*
Y617516D01*
X195589D01*
Y621860D01*
X195969Y624203D01*
X198089Y624203D01*
X202749D01*
Y632499D01*
Y640797D01*
X195969Y640797D01*
X195589Y643140D01*
Y646860D01*
X195969Y649203D01*
X198089Y649203D01*
X202749D01*
Y657500D01*
Y665797D01*
X195969Y665797D01*
X195589Y668140D01*
Y672484D01*
X198016D01*
Y699278D01*
X198111Y700000D01*
Y758484D01*
X204516D01*
Y776516D01*
X198111D01*
Y818900D01*
X751889D01*
Y776516D01*
X745484D01*
Y758484D01*
X751889D01*
Y700000D01*
X751984Y699278D01*
Y672484D01*
X754410D01*
Y668140D01*
X754031Y665797D01*
X751910Y665797D01*
X747250D01*
Y657500D01*
Y649203D01*
X754031Y649203D01*
X754410Y646860D01*
Y643140D01*
X754031Y640797D01*
X751910Y640797D01*
X747250D01*
Y632500D01*
Y624203D01*
X754031Y624203D01*
X754410Y621860D01*
Y617516D01*
X751984D01*
Y562484D01*
X774016D01*
Y617516D01*
X771589D01*
Y672484D01*
X774016D01*
Y699278D01*
X774111Y700000D01*
Y758484D01*
X779516D01*
Y776516D01*
X774111D01*
Y818900D01*
X815000D01*
X815241Y819000D01*
X823900D01*
Y715000D01*
X824222Y714222D01*
X825000Y713900D01*
X865000D01*
X865778Y714222D01*
X866100Y715000D01*
Y788900D01*
X947961D01*
Y50000D01*
Y46856D01*
X947140Y40623D01*
X945513Y34550D01*
X943107Y28742D01*
X939964Y23297D01*
X936136Y18309D01*
X931691Y13864D01*
X926703Y10036D01*
X921258Y6893D01*
X915450Y4487D01*
X909377Y2860D01*
X903143Y2039D01*
X46856D01*
X40623Y2860D01*
X34550Y4487D01*
X28742Y6893D01*
X23297Y10036D01*
X18309Y13864D01*
X13864Y18309D01*
X10036Y23297D01*
X6893Y28742D01*
X4487Y34550D01*
X2860Y40623D01*
X2039Y46856D01*
Y50000D01*
Y850000D01*
Y853143D01*
X2860Y859377D01*
X4487Y865450D01*
X6893Y871258D01*
X10036Y876703D01*
X13864Y881691D01*
X18309Y886136D01*
X23297Y889964D01*
X28742Y893107D01*
X34550Y895513D01*
X40623Y897140D01*
X46856Y897961D01*
X176400D01*
Y891196D01*
D02*
G37*
%LPC*%
G36*
X902067Y876270D02*
X897933D01*
X893848Y875623D01*
X889916Y874345D01*
X886232Y872468D01*
X882886Y870038D01*
X879962Y867114D01*
X877532Y863768D01*
X875655Y860084D01*
X874377Y856152D01*
X873730Y852067D01*
Y847933D01*
X874377Y843848D01*
X875655Y839916D01*
X877532Y836232D01*
X879962Y832886D01*
X882886Y829962D01*
X886232Y827532D01*
X889916Y825655D01*
X893848Y824377D01*
X897933Y823730D01*
X902067D01*
X906152Y824377D01*
X910084Y825655D01*
X913768Y827532D01*
X917114Y829962D01*
X920038Y832886D01*
X922468Y836232D01*
X924345Y839916D01*
X925623Y843848D01*
X926270Y847933D01*
Y852067D01*
X925623Y856152D01*
X924345Y860084D01*
X922468Y863768D01*
X920038Y867114D01*
X917114Y870038D01*
X913768Y872468D01*
X910084Y874345D01*
X906152Y875623D01*
X902067Y876270D01*
D02*
G37*
%LPD*%
G36*
X905894Y874550D02*
X909662Y873326D01*
X913192Y871528D01*
X916397Y869199D01*
X919199Y866397D01*
X921528Y863192D01*
X923326Y859662D01*
X924550Y855894D01*
X925170Y851981D01*
Y848019D01*
X924550Y844106D01*
X923326Y840338D01*
X921528Y836808D01*
X919199Y833603D01*
X916397Y830801D01*
X913192Y828472D01*
X909662Y826674D01*
X905894Y825450D01*
X901981Y824830D01*
X898019D01*
X894106Y825450D01*
X890338Y826674D01*
X886808Y828472D01*
X883603Y830801D01*
X880801Y833603D01*
X878472Y836808D01*
X876674Y840338D01*
X875450Y844106D01*
X874830Y848019D01*
Y851981D01*
X875450Y855894D01*
X876674Y859662D01*
X878472Y863192D01*
X880801Y866397D01*
X883603Y869199D01*
X886808Y871528D01*
X890338Y873326D01*
X894106Y874550D01*
X898019Y875170D01*
X901981D01*
X905894Y874550D01*
D02*
G37*
%LPC*%
G36*
X431062Y809766D02*
X429757D01*
Y796507D01*
X443016D01*
Y797812D01*
X442078Y801313D01*
X440266Y804453D01*
X437702Y807016D01*
X434563Y808828D01*
X431062Y809766D01*
D02*
G37*
G36*
X428741D02*
X427438D01*
X423937Y808828D01*
X420798Y807016D01*
X418234Y804453D01*
X416422Y801313D01*
X415484Y797812D01*
Y796507D01*
X428741D01*
Y809766D01*
D02*
G37*
G36*
X522562D02*
X521258D01*
Y796507D01*
X534516D01*
Y797812D01*
X533578Y801313D01*
X531766Y804453D01*
X529202Y807016D01*
X526063Y808828D01*
X522562Y809766D01*
D02*
G37*
G36*
X520242D02*
X518938D01*
X515437Y808828D01*
X512298Y807016D01*
X509734Y804453D01*
X507922Y801313D01*
X506984Y797812D01*
Y796507D01*
X520242D01*
Y809766D01*
D02*
G37*
G36*
X534516Y795491D02*
X521258D01*
Y782234D01*
X522562D01*
X526063Y783172D01*
X529202Y784984D01*
X531766Y787548D01*
X533578Y790686D01*
X534516Y794188D01*
Y795491D01*
D02*
G37*
G36*
X520242D02*
X506984D01*
Y794188D01*
X507922Y790686D01*
X509734Y787548D01*
X512298Y784984D01*
X515437Y783172D01*
X518938Y782234D01*
X520242D01*
Y795491D01*
D02*
G37*
G36*
X443016Y795491D02*
X429757D01*
Y782234D01*
X431062D01*
X434563Y783172D01*
X437702Y784984D01*
X440266Y787548D01*
X442078Y790686D01*
X443016Y794188D01*
Y795491D01*
D02*
G37*
G36*
X428741D02*
X415484D01*
Y794188D01*
X416422Y790686D01*
X418234Y787548D01*
X420798Y784984D01*
X423937Y783172D01*
X427438Y782234D01*
X428741D01*
Y795491D01*
D02*
G37*
G36*
X50996Y790766D02*
X49004D01*
X47080Y790250D01*
X45354Y789254D01*
X43946Y787846D01*
X42950Y786120D01*
X42434Y784196D01*
Y782204D01*
X42950Y780280D01*
X43946Y778554D01*
X45354Y777146D01*
X47080Y776150D01*
X49004Y775634D01*
X50996D01*
X52920Y776150D01*
X54646Y777146D01*
X56054Y778554D01*
X57050Y780280D01*
X57566Y782204D01*
Y784196D01*
X57050Y786120D01*
X56054Y787846D01*
X54646Y789254D01*
X52920Y790250D01*
X50996Y790766D01*
D02*
G37*
G36*
X729516Y776516D02*
X713009D01*
Y768008D01*
X729516D01*
Y776516D01*
D02*
G37*
G36*
X711993D02*
X695484D01*
Y768008D01*
X711993D01*
Y776516D01*
D02*
G37*
G36*
X254516D02*
X238007D01*
Y768007D01*
X254516D01*
Y776516D01*
D02*
G37*
G36*
X236991D02*
X220484D01*
Y768007D01*
X236991D01*
Y776516D01*
D02*
G37*
G36*
X495987Y778400D02*
X494013D01*
X492105Y777889D01*
X490395Y776901D01*
X488998Y775505D01*
X488011Y773795D01*
X487500Y771887D01*
Y769913D01*
X488011Y768005D01*
X488998Y766295D01*
X490395Y764899D01*
X492105Y763911D01*
X494013Y763400D01*
X495987D01*
X497895Y763911D01*
X499605Y764899D01*
X501002Y766295D01*
X501989Y768005D01*
X502500Y769913D01*
Y771887D01*
X501989Y773795D01*
X501002Y775505D01*
X499605Y776901D01*
X497895Y777889D01*
X495987Y778400D01*
D02*
G37*
G36*
X455987D02*
X454013D01*
X452105Y777889D01*
X450395Y776901D01*
X448998Y775505D01*
X448011Y773795D01*
X447500Y771887D01*
Y769913D01*
X448011Y768005D01*
X448998Y766295D01*
X450395Y764899D01*
X452105Y763911D01*
X454013Y763400D01*
X455987D01*
X457895Y763911D01*
X459605Y764899D01*
X461002Y766295D01*
X461989Y768005D01*
X462500Y769913D01*
Y771887D01*
X461989Y773795D01*
X461002Y775505D01*
X459605Y776901D01*
X457895Y777889D01*
X455987Y778400D01*
D02*
G37*
G36*
X729516Y766992D02*
X713009D01*
Y758484D01*
X729516D01*
Y766992D01*
D02*
G37*
G36*
X711993D02*
X695484D01*
Y758484D01*
X711993D01*
Y766992D01*
D02*
G37*
G36*
X254516Y766991D02*
X238007D01*
Y758484D01*
X254516D01*
Y766991D01*
D02*
G37*
G36*
X236991D02*
X220484D01*
Y758484D01*
X236991D01*
Y766991D01*
D02*
G37*
G36*
X476516Y761516D02*
X475508D01*
Y750508D01*
X486516D01*
Y751516D01*
X485731Y754445D01*
X484215Y757071D01*
X482071Y759215D01*
X479445Y760731D01*
X476516Y761516D01*
D02*
G37*
G36*
X474492D02*
X473484D01*
X470555Y760731D01*
X467929Y759215D01*
X465785Y757071D01*
X464269Y754445D01*
X463484Y751516D01*
Y750508D01*
X474492D01*
Y761516D01*
D02*
G37*
G36*
X50996Y765366D02*
X49004D01*
X47080Y764850D01*
X45354Y763854D01*
X43946Y762446D01*
X42950Y760720D01*
X42434Y758796D01*
Y756804D01*
X42950Y754880D01*
X43946Y753154D01*
X45354Y751746D01*
X47080Y750750D01*
X49004Y750234D01*
X50996D01*
X52920Y750750D01*
X54646Y751746D01*
X56054Y753154D01*
X57050Y754880D01*
X57566Y756804D01*
Y758796D01*
X57050Y760720D01*
X56054Y762446D01*
X54646Y763854D01*
X52920Y764850D01*
X50996Y765366D01*
D02*
G37*
G36*
X486516Y749492D02*
X475508D01*
Y738484D01*
X476516D01*
X479445Y739269D01*
X482071Y740785D01*
X484215Y742929D01*
X485731Y745555D01*
X486516Y748484D01*
Y749492D01*
D02*
G37*
G36*
X474492D02*
X463484D01*
Y748484D01*
X464269Y745555D01*
X465785Y742929D01*
X467929Y740785D01*
X470555Y739269D01*
X473484Y738484D01*
X474492D01*
Y749492D01*
D02*
G37*
G36*
X50996Y739966D02*
X49004D01*
X47080Y739450D01*
X45354Y738454D01*
X43946Y737046D01*
X42950Y735320D01*
X42434Y733396D01*
Y731404D01*
X42950Y729480D01*
X43946Y727754D01*
X45354Y726346D01*
X47080Y725350D01*
X49004Y724834D01*
X50996D01*
X52920Y725350D01*
X54646Y726346D01*
X56054Y727754D01*
X57050Y729480D01*
X57566Y731404D01*
Y733396D01*
X57050Y735320D01*
X56054Y737046D01*
X54646Y738454D01*
X52920Y739450D01*
X50996Y739966D01*
D02*
G37*
G36*
X495987Y738400D02*
X494013D01*
X492105Y737889D01*
X490395Y736901D01*
X488998Y735505D01*
X488011Y733795D01*
X487500Y731887D01*
Y729913D01*
X488011Y728005D01*
X488998Y726295D01*
X490395Y724899D01*
X492105Y723911D01*
X494013Y723400D01*
X495987D01*
X497895Y723911D01*
X499605Y724899D01*
X501002Y726295D01*
X501989Y728005D01*
X502500Y729913D01*
Y731887D01*
X501989Y733795D01*
X501002Y735505D01*
X499605Y736901D01*
X497895Y737889D01*
X495987Y738400D01*
D02*
G37*
G36*
X455987D02*
X454013D01*
X452105Y737889D01*
X450395Y736901D01*
X448998Y735505D01*
X448011Y733795D01*
X447500Y731887D01*
Y729913D01*
X448011Y728005D01*
X448998Y726295D01*
X450395Y724899D01*
X452105Y723911D01*
X454013Y723400D01*
X455987D01*
X457895Y723911D01*
X459605Y724899D01*
X461002Y726295D01*
X461989Y728005D01*
X462500Y729913D01*
Y731887D01*
X461989Y733795D01*
X461002Y735505D01*
X459605Y736901D01*
X457895Y737889D01*
X455987Y738400D01*
D02*
G37*
G36*
X431062Y728766D02*
X429759D01*
Y715508D01*
X443016D01*
Y716812D01*
X442078Y720313D01*
X440266Y723453D01*
X437702Y726015D01*
X434563Y727828D01*
X431062Y728766D01*
D02*
G37*
G36*
X428743D02*
X427438D01*
X423937Y727828D01*
X420798Y726015D01*
X418234Y723453D01*
X416422Y720313D01*
X415484Y716812D01*
Y715508D01*
X428743D01*
Y728766D01*
D02*
G37*
G36*
X522562D02*
X521259D01*
Y715508D01*
X534516D01*
Y716812D01*
X533578Y720313D01*
X531766Y723453D01*
X529202Y726015D01*
X526063Y727828D01*
X522562Y728766D01*
D02*
G37*
G36*
X520243D02*
X518938D01*
X515437Y727828D01*
X512298Y726015D01*
X509734Y723453D01*
X507922Y720313D01*
X506984Y716812D01*
Y715508D01*
X520243D01*
Y728766D01*
D02*
G37*
G36*
X708016Y727516D02*
X685984D01*
Y711111D01*
X675016D01*
Y724016D01*
X654984D01*
Y704605D01*
X654268Y702876D01*
X653889Y700000D01*
X654268Y697124D01*
X654984Y695395D01*
Y675984D01*
X675016D01*
Y688889D01*
X685984D01*
Y672484D01*
X708016D01*
Y699278D01*
X708111Y700000D01*
X708016Y700722D01*
Y727516D01*
D02*
G37*
G36*
X534516Y714492D02*
X521259D01*
Y701234D01*
X522562D01*
X526063Y702172D01*
X529202Y703984D01*
X531766Y706547D01*
X533578Y709687D01*
X534516Y713188D01*
Y714492D01*
D02*
G37*
G36*
X520243D02*
X506984D01*
Y713188D01*
X507922Y709687D01*
X509734Y706547D01*
X512298Y703984D01*
X515437Y702172D01*
X518938Y701234D01*
X520243D01*
Y714492D01*
D02*
G37*
G36*
X443016Y714492D02*
X429759D01*
Y701234D01*
X431062D01*
X434563Y702172D01*
X437702Y703984D01*
X440266Y706547D01*
X442078Y709687D01*
X443016Y713188D01*
Y714492D01*
D02*
G37*
G36*
X428743D02*
X415484D01*
Y713188D01*
X416422Y709687D01*
X418234Y706547D01*
X420798Y703984D01*
X423937Y702172D01*
X427438Y701234D01*
X428743D01*
Y714492D01*
D02*
G37*
G36*
X50996Y714566D02*
X49004D01*
X47080Y714050D01*
X45354Y713054D01*
X43946Y711646D01*
X42950Y709920D01*
X42434Y707996D01*
Y706004D01*
X42950Y704080D01*
X43946Y702354D01*
X45354Y700946D01*
X47080Y699950D01*
X49004Y699434D01*
X50996D01*
X52920Y699950D01*
X54646Y700946D01*
X56054Y702354D01*
X57050Y704080D01*
X57566Y706004D01*
Y707996D01*
X57050Y709920D01*
X56054Y711646D01*
X54646Y713054D01*
X52920Y714050D01*
X50996Y714566D01*
D02*
G37*
G36*
X264016Y727516D02*
X241984D01*
Y700722D01*
X241889Y700000D01*
X241984Y699278D01*
Y672484D01*
X264016D01*
Y688889D01*
X274984D01*
Y675984D01*
X295016D01*
Y695395D01*
X295732Y697124D01*
X296111Y700000D01*
X295732Y702876D01*
X295016Y704605D01*
Y724016D01*
X274984D01*
Y711111D01*
X264016D01*
Y727516D01*
D02*
G37*
G36*
X50996Y689166D02*
X49004D01*
X47080Y688650D01*
X45354Y687654D01*
X43946Y686246D01*
X42950Y684520D01*
X42434Y682596D01*
Y680604D01*
X42950Y678680D01*
X43946Y676954D01*
X45354Y675546D01*
X47080Y674550D01*
X49004Y674034D01*
X50996D01*
X52920Y674550D01*
X54646Y675546D01*
X56054Y676954D01*
X57050Y678680D01*
X57566Y680604D01*
Y682596D01*
X57050Y684520D01*
X56054Y686246D01*
X54646Y687654D01*
X52920Y688650D01*
X50996Y689166D01*
D02*
G37*
G36*
X746234Y665797D02*
X739453D01*
Y658008D01*
X746234D01*
Y665797D01*
D02*
G37*
G36*
X203765D02*
Y658008D01*
X210547D01*
Y665797D01*
X203765D01*
D02*
G37*
G36*
X210547Y656992D02*
X203765D01*
Y649203D01*
X210547D01*
Y656992D01*
D02*
G37*
G36*
X746234Y656992D02*
X739453D01*
Y649203D01*
X746234D01*
Y656992D01*
D02*
G37*
G36*
X50996Y663766D02*
X49004D01*
X47080Y663250D01*
X45354Y662254D01*
X43946Y660846D01*
X42950Y659120D01*
X42434Y657196D01*
Y655204D01*
X42950Y653280D01*
X43946Y651554D01*
X45354Y650146D01*
X47080Y649150D01*
X49004Y648634D01*
X50996D01*
X52920Y649150D01*
X54646Y650146D01*
X56054Y651554D01*
X57050Y653280D01*
X57566Y655204D01*
Y657196D01*
X57050Y659120D01*
X56054Y660846D01*
X54646Y662254D01*
X52920Y663250D01*
X50996Y663766D01*
D02*
G37*
G36*
X746234Y640797D02*
X739453D01*
Y633008D01*
X746234D01*
Y640797D01*
D02*
G37*
G36*
X203765D02*
Y633007D01*
X210547D01*
Y640797D01*
X203765D01*
D02*
G37*
G36*
X210547Y631991D02*
X203765D01*
Y624203D01*
X210547D01*
Y631991D01*
D02*
G37*
G36*
X746234Y631992D02*
X739453D01*
Y624203D01*
X746234D01*
Y631992D01*
D02*
G37*
G36*
X585016Y724016D02*
X564984D01*
Y675984D01*
X566410D01*
Y645816D01*
X558926Y638331D01*
X557561Y636553D01*
X556703Y634481D01*
X556411Y632258D01*
X556703Y630035D01*
X557561Y627963D01*
X558926Y626184D01*
X560705Y624819D01*
X562777Y623961D01*
X565000Y623668D01*
X567223Y623961D01*
X569295Y624819D01*
X571074Y626184D01*
X581074Y636184D01*
X582439Y637963D01*
X583297Y640035D01*
X583589Y642258D01*
Y675984D01*
X585016D01*
Y724016D01*
D02*
G37*
G36*
X385016D02*
X364984D01*
Y675984D01*
X366410D01*
Y642039D01*
X366703Y639816D01*
X367561Y637744D01*
X368926Y635965D01*
X378707Y626184D01*
X380486Y624819D01*
X382558Y623961D01*
X384781Y623668D01*
X387004Y623961D01*
X389076Y624819D01*
X390855Y626184D01*
X392220Y627963D01*
X393078Y630035D01*
X393371Y632258D01*
X393078Y634481D01*
X392220Y636553D01*
X390855Y638331D01*
X383590Y645597D01*
Y675984D01*
X385016D01*
Y724016D01*
D02*
G37*
G36*
X50996Y638366D02*
X49004D01*
X47080Y637850D01*
X45354Y636854D01*
X43946Y635446D01*
X42950Y633720D01*
X42434Y631796D01*
Y629804D01*
X42950Y627880D01*
X43946Y626154D01*
X45354Y624746D01*
X47080Y623750D01*
X49004Y623234D01*
X50996D01*
X52920Y623750D01*
X54646Y624746D01*
X56054Y626154D01*
X57050Y627880D01*
X57566Y629804D01*
Y631796D01*
X57050Y633720D01*
X56054Y635446D01*
X54646Y636854D01*
X52920Y637850D01*
X50996Y638366D01*
D02*
G37*
G36*
X708016Y617516D02*
X685984D01*
Y601111D01*
X675016D01*
Y614016D01*
X654984D01*
Y594605D01*
X654268Y592876D01*
X653889Y590000D01*
X654268Y587124D01*
X654984Y585395D01*
Y565984D01*
X675016D01*
Y578889D01*
X685984D01*
Y562484D01*
X708016D01*
Y589278D01*
X708111Y590000D01*
X708016Y590722D01*
Y617516D01*
D02*
G37*
G36*
X50996Y612966D02*
X49004D01*
X47080Y612450D01*
X45354Y611454D01*
X43946Y610046D01*
X42950Y608320D01*
X42434Y606396D01*
Y604404D01*
X42950Y602480D01*
X43946Y600754D01*
X45354Y599346D01*
X47080Y598350D01*
X49004Y597834D01*
X50996D01*
X52920Y598350D01*
X54646Y599346D01*
X56054Y600754D01*
X57050Y602480D01*
X57566Y604404D01*
Y606396D01*
X57050Y608320D01*
X56054Y610046D01*
X54646Y611454D01*
X52920Y612450D01*
X50996Y612966D01*
D02*
G37*
G36*
X57566Y587566D02*
X42434D01*
Y572434D01*
X57566D01*
Y587566D01*
D02*
G37*
G36*
X585016Y614016D02*
X564984D01*
Y589347D01*
X512000D01*
X509777Y589055D01*
X507705Y588196D01*
X505926Y586832D01*
X504561Y585052D01*
X503703Y582981D01*
X503410Y580758D01*
X503703Y578535D01*
X504561Y576463D01*
X505926Y574684D01*
X507705Y573319D01*
X509777Y572461D01*
X512000Y572168D01*
X564984D01*
Y565984D01*
X585016D01*
Y614016D01*
D02*
G37*
G36*
X385016D02*
X364984D01*
Y565984D01*
X385016D01*
Y572168D01*
X438000D01*
X440223Y572461D01*
X442295Y573319D01*
X444074Y574684D01*
X445439Y576463D01*
X446297Y578535D01*
X446590Y580758D01*
X446297Y582981D01*
X445439Y585053D01*
X444074Y586832D01*
X442295Y588196D01*
X440223Y589055D01*
X438000Y589347D01*
X385016D01*
Y614016D01*
D02*
G37*
G36*
X264016Y617516D02*
X241984D01*
Y590722D01*
X241889Y590000D01*
X241984Y589278D01*
Y562484D01*
X264016D01*
Y578889D01*
X274984D01*
Y565984D01*
X295016D01*
Y585395D01*
X295732Y587124D01*
X296111Y590000D01*
X295732Y592876D01*
X295016Y594605D01*
Y614016D01*
X274984D01*
Y601111D01*
X264016D01*
Y617516D01*
D02*
G37*
G36*
X526619Y513923D02*
X523882Y511187D01*
X526770Y508299D01*
X529507Y511035D01*
X526619Y513923D01*
D02*
G37*
G36*
X523164Y510468D02*
X520427Y507731D01*
X523315Y504843D01*
X526052Y507580D01*
X523164Y510468D01*
D02*
G37*
G36*
X419542Y510085D02*
X416654Y507196D01*
X419391Y504459D01*
X422280Y507347D01*
X419542Y510085D01*
D02*
G37*
G36*
X422998Y506629D02*
X420109Y503741D01*
X422846Y501004D01*
X425734Y503893D01*
X422998Y506629D01*
D02*
G37*
G36*
X503541Y567275D02*
X423690D01*
X422318Y567002D01*
X421155Y566225D01*
X364110Y509180D01*
X362513Y508862D01*
X360937Y507809D01*
X326006Y472878D01*
X306077D01*
Y475077D01*
X302907D01*
X302561Y475145D01*
X302214Y475077D01*
X293923D01*
Y474859D01*
X274016D01*
Y476016D01*
X244984D01*
Y474859D01*
X215016D01*
Y487516D01*
X185984D01*
Y452484D01*
X215016D01*
Y465141D01*
X244984D01*
Y463984D01*
X274016D01*
Y465141D01*
X293923D01*
Y461539D01*
X293923Y460961D01*
Y459039D01*
X293923Y458461D01*
Y452490D01*
X300000D01*
X306077D01*
Y458461D01*
X306077Y459039D01*
Y460961D01*
X307906Y463159D01*
X328019D01*
X329878Y463529D01*
X331455Y464583D01*
X366386Y499513D01*
X384139D01*
X386236Y498539D01*
X386236D01*
X391915Y492860D01*
X391970Y492915D01*
X395844Y489040D01*
X396107Y486649D01*
X394612Y485154D01*
X393219Y483761D01*
X396315Y480665D01*
X399411Y477569D01*
X400804Y478963D01*
X401520Y479678D01*
X404646Y480087D01*
X409882Y474851D01*
X410260Y472508D01*
X408765Y471013D01*
X407371Y469619D01*
X410467Y466523D01*
X413563Y463427D01*
X414957Y464821D01*
X416452Y466316D01*
X418797Y465941D01*
X421261Y463477D01*
X422424Y462700D01*
X423796Y462427D01*
X427240D01*
X428242Y462012D01*
X429834D01*
X431304Y462621D01*
X432429Y463746D01*
X434840Y464010D01*
X435194Y463890D01*
X435546Y463039D01*
X436672Y461914D01*
X438142Y461305D01*
X439733D01*
X441203Y461914D01*
X442329Y463039D01*
X442938Y464509D01*
Y466101D01*
X442329Y467571D01*
X441203Y468696D01*
X440201Y469111D01*
X431163Y478149D01*
Y481037D01*
X433260Y483134D01*
X435028Y484902D01*
X436422Y486296D01*
X433326Y489392D01*
X430230Y492488D01*
X428836Y491094D01*
X427341Y489599D01*
X424952Y489866D01*
X419721Y495097D01*
X419239Y497398D01*
X420734Y498893D01*
X422127Y500286D01*
X419032Y503381D01*
X415936Y506478D01*
X414542Y505085D01*
X412775Y503317D01*
X411280Y501822D01*
X406279Y496822D01*
X412471Y490630D01*
X413260Y491418D01*
X421210Y483468D01*
X420573Y482831D01*
X423332Y480073D01*
Y477326D01*
X421057Y475946D01*
X420420Y475883D01*
X417028Y479275D01*
X416312Y478560D01*
X408357Y486516D01*
X409067Y487225D01*
X402875Y493417D01*
X402241Y492783D01*
X397040Y497984D01*
X397241Y498186D01*
X391561Y503865D01*
Y503865D01*
X390295Y505840D01*
X390217Y506232D01*
X389164Y507809D01*
X387587Y508862D01*
X386310Y509116D01*
X385551Y509875D01*
X384908Y509232D01*
X377568D01*
X376612Y511542D01*
X425175Y560105D01*
X435890D01*
X436925Y557605D01*
X436595Y557275D01*
X435984Y555799D01*
Y554201D01*
X436595Y552725D01*
X437725Y551595D01*
X439201Y550984D01*
X440799D01*
X441018Y551075D01*
X463802Y528291D01*
Y522640D01*
X461302Y521604D01*
X443925Y538982D01*
X444016Y539201D01*
Y540799D01*
X443405Y542275D01*
X442275Y543405D01*
X440799Y544016D01*
X439201D01*
X437725Y543405D01*
X436595Y542275D01*
X435984Y540799D01*
Y539201D01*
X436595Y537725D01*
X437725Y536595D01*
X439201Y535984D01*
X440799D01*
X441018Y536075D01*
X458802Y518291D01*
Y512640D01*
X456302Y511604D01*
X443925Y523982D01*
X444016Y524201D01*
Y525799D01*
X443405Y527275D01*
X442275Y528405D01*
X440799Y529016D01*
X439201D01*
X437725Y528405D01*
X436595Y527275D01*
X435984Y525799D01*
Y524201D01*
X436595Y522725D01*
X437725Y521595D01*
X439201Y520984D01*
X440799D01*
X441018Y521075D01*
X453802Y508291D01*
Y502640D01*
X451302Y501604D01*
X443925Y508982D01*
X444016Y509201D01*
Y510799D01*
X443405Y512275D01*
X442275Y513405D01*
X440799Y514016D01*
X439201D01*
X437725Y513405D01*
X436595Y512275D01*
X435984Y510799D01*
Y509201D01*
X436595Y507725D01*
X437725Y506595D01*
X439201Y505984D01*
X440799D01*
X441018Y506075D01*
X448853Y498241D01*
Y482218D01*
X448642Y482131D01*
X447517Y481006D01*
X446908Y479536D01*
Y477944D01*
X447517Y476474D01*
X448642Y475349D01*
X450112Y474740D01*
X451704D01*
X453174Y475349D01*
X454299Y476474D01*
X454908Y477944D01*
X455096Y479552D01*
X456704Y479690D01*
X458174Y480299D01*
X459299Y481424D01*
X459908Y482894D01*
X460050Y484498D01*
X461654Y484640D01*
X463124Y485249D01*
X464249Y486374D01*
X464858Y487844D01*
X465046Y489451D01*
X466654Y489589D01*
X468124Y490198D01*
X469249Y491324D01*
X469858Y492794D01*
Y494385D01*
X469249Y495855D01*
X468124Y496980D01*
X467913Y497067D01*
Y529142D01*
X467757Y529929D01*
X467311Y530596D01*
X467311Y530596D01*
X443925Y553982D01*
X444016Y554201D01*
Y555799D01*
X443405Y557275D01*
X443075Y557605D01*
X444110Y560105D01*
X502056D01*
X553327Y508834D01*
X554196Y506693D01*
X548517Y501014D01*
X548720Y500810D01*
X544226Y496316D01*
X543589Y496953D01*
X537397Y490761D01*
X538110Y490048D01*
X530160Y482098D01*
X529447Y482811D01*
X526689Y480052D01*
X523639D01*
X522725Y479870D01*
X521617Y481156D01*
X521251Y481932D01*
X522487Y483168D01*
X522683Y483461D01*
X525740Y486518D01*
X525027Y487231D01*
X532977Y495181D01*
X533690Y494468D01*
X539882Y500660D01*
X534882Y505661D01*
X533387Y507155D01*
X530225Y510317D01*
X527129Y507221D01*
X524033Y504125D01*
X525427Y502731D01*
X526922Y501236D01*
X526548Y498891D01*
X521317Y493660D01*
X518972Y493286D01*
X517477Y494781D01*
X516083Y496174D01*
X512987Y493078D01*
X509892Y489982D01*
X511285Y488589D01*
X512760Y487114D01*
X514476Y485297D01*
X511356Y482177D01*
X510579Y481014D01*
X510306Y479642D01*
Y478417D01*
X509891Y477414D01*
Y475823D01*
X510500Y474353D01*
X511625Y473228D01*
X511744Y473178D01*
X512411Y470309D01*
X511213Y469111D01*
X510211Y468696D01*
X509086Y467571D01*
X508477Y466101D01*
Y464509D01*
X509086Y463039D01*
X510211Y461914D01*
X511681Y461305D01*
X513272D01*
X514743Y461914D01*
X515868Y463039D01*
X516283Y464041D01*
X524677Y472435D01*
X527439D01*
X529750Y470124D01*
X531518Y468356D01*
X532911Y466963D01*
X536007Y470058D01*
X539103Y473154D01*
X537710Y474548D01*
X536215Y476043D01*
X536589Y478388D01*
X541820Y483619D01*
X544165Y483993D01*
X545660Y482498D01*
X547053Y481105D01*
X550149Y484202D01*
X553245Y487297D01*
X551852Y488690D01*
X550357Y490185D01*
X550624Y492574D01*
X553790Y495740D01*
X553842Y495688D01*
X558085Y499931D01*
X559522Y501367D01*
X565532Y507378D01*
X560206Y512704D01*
X559902Y512399D01*
X506076Y566225D01*
X504913Y567002D01*
X503541Y567275D01*
D02*
G37*
G36*
X512477Y499781D02*
X509740Y497044D01*
X512628Y494156D01*
X515365Y496893D01*
X512477Y499781D01*
D02*
G37*
G36*
X305293Y497378D02*
Y493509D01*
X309378D01*
Y497378D01*
X305293D01*
D02*
G37*
G36*
X838000Y616111D02*
X835124Y615732D01*
X832445Y614622D01*
X830143Y612857D01*
X828378Y610555D01*
X827268Y607876D01*
X826889Y605000D01*
Y585302D01*
X752143Y510557D01*
X750378Y508256D01*
X749268Y505576D01*
X748889Y502700D01*
X749268Y499824D01*
X750378Y497145D01*
X752143Y494843D01*
X754445Y493078D01*
X757124Y491968D01*
X760000Y491589D01*
X762876Y491968D01*
X765555Y493078D01*
X767857Y494843D01*
X845857Y572843D01*
X847623Y575145D01*
X848732Y577824D01*
X849111Y580700D01*
Y605000D01*
X848732Y607876D01*
X847623Y610555D01*
X845857Y612857D01*
X843556Y614622D01*
X840876Y615732D01*
X838000Y616111D01*
D02*
G37*
G36*
X509021Y496326D02*
X506285Y493589D01*
X509173Y490701D01*
X511910Y493438D01*
X509021Y496326D01*
D02*
G37*
G36*
X433836Y496094D02*
X430948Y493206D01*
X433685Y490470D01*
X436573Y493358D01*
X433836Y496094D01*
D02*
G37*
G36*
X309378Y492493D02*
X305293D01*
Y488622D01*
X309378D01*
Y492493D01*
D02*
G37*
G36*
X274016Y499016D02*
X244984D01*
Y486984D01*
X274016D01*
Y488141D01*
X295214D01*
X297074Y488511D01*
X297240Y488622D01*
X299807Y488622D01*
X302307Y488622D01*
X304277D01*
Y493001D01*
Y497378D01*
X302307D01*
X300193Y497379D01*
X297240Y497378D01*
X297074Y497490D01*
X295214Y497859D01*
X274016D01*
Y499016D01*
D02*
G37*
G36*
X490733Y501394D02*
X484347Y495007D01*
X491794Y487560D01*
X498180Y493947D01*
X490733Y501394D01*
D02*
G37*
G36*
X437291Y492639D02*
X434403Y489751D01*
X437140Y487014D01*
X440028Y489902D01*
X437291Y492639D01*
D02*
G37*
G36*
X481894Y492555D02*
X479060Y489721D01*
X482424Y486357D01*
X485258Y489191D01*
X481894Y492555D01*
D02*
G37*
G36*
X478341Y489002D02*
X475508Y486169D01*
X478872Y482804D01*
X481706Y485638D01*
X478341Y489002D01*
D02*
G37*
G36*
X485977Y488473D02*
X483143Y485638D01*
X486507Y482273D01*
X489342Y485108D01*
X485977Y488473D01*
D02*
G37*
G36*
X553963Y486579D02*
X551227Y483842D01*
X554116Y480953D01*
X556852Y483690D01*
X553963Y486579D01*
D02*
G37*
G36*
X482424Y484920D02*
X479590Y482086D01*
X482955Y478721D01*
X485789Y481555D01*
X482424Y484920D01*
D02*
G37*
G36*
X550509Y483124D02*
X547771Y480387D01*
X550660Y477498D01*
X553397Y480235D01*
X550509Y483124D01*
D02*
G37*
G36*
X392500Y483043D02*
X389612Y480154D01*
X392349Y477418D01*
X395237Y480306D01*
X392500Y483043D01*
D02*
G37*
G36*
X560560Y479982D02*
X557823Y477245D01*
X560711Y474357D01*
X563448Y477094D01*
X560560Y479982D01*
D02*
G37*
G36*
X395956Y479588D02*
X393067Y476699D01*
X395804Y473962D01*
X398693Y476851D01*
X395956Y479588D01*
D02*
G37*
G36*
X584248Y488662D02*
X583489Y487903D01*
X582212Y487649D01*
X580635Y486596D01*
X579582Y485019D01*
X579504Y484627D01*
X578238Y482652D01*
Y482652D01*
X572558Y476972D01*
X572610Y476920D01*
X569445Y473754D01*
X567055Y473487D01*
X565560Y474982D01*
X564166Y476376D01*
X561070Y473280D01*
X557974Y470184D01*
X559368Y468790D01*
X560863Y467295D01*
X560596Y464906D01*
X555302Y459612D01*
X552913Y459345D01*
X551418Y460840D01*
X550024Y462234D01*
X546928Y459138D01*
X543832Y456042D01*
X545226Y454648D01*
X546994Y452880D01*
X549715Y450159D01*
X548758Y447850D01*
X540057D01*
X532453Y455453D01*
X531787Y455899D01*
X531000Y456055D01*
X531000Y456055D01*
X424000D01*
X424000Y456055D01*
X423213Y455899D01*
X422547Y455453D01*
X422547Y455453D01*
X421006Y453913D01*
X420796Y454000D01*
X419204D01*
X417734Y453391D01*
X416609Y452266D01*
X416000Y450796D01*
X415816Y449184D01*
X414204Y449000D01*
X412734Y448391D01*
X411609Y447266D01*
X411000Y445796D01*
X410816Y444184D01*
X409204Y444000D01*
X407734Y443391D01*
X406609Y442266D01*
X406000Y440796D01*
X405816Y439184D01*
X404204Y439000D01*
X402734Y438391D01*
X401609Y437266D01*
X401322Y436573D01*
X399157Y435829D01*
X398519Y435840D01*
X393493Y440867D01*
Y443367D01*
X395582Y445456D01*
X396975Y446849D01*
X393879Y449945D01*
X390783Y453041D01*
X389390Y451648D01*
X387895Y450153D01*
X385461Y450312D01*
X380101Y455672D01*
X379934Y458103D01*
X381429Y459598D01*
X382823Y460992D01*
X379726Y464088D01*
X376631Y467184D01*
X375237Y465790D01*
X373742Y464295D01*
X371311Y464462D01*
X367414Y468359D01*
X367542Y468487D01*
X363300Y472730D01*
X361863Y474166D01*
X355853Y480177D01*
X350527Y474851D01*
X350655Y474723D01*
X346081Y470149D01*
X345953Y470277D01*
X340627Y464952D01*
X340932Y464647D01*
X327465Y451180D01*
X326688Y450017D01*
X326415Y448645D01*
Y420485D01*
X301007Y395077D01*
X293923D01*
Y394859D01*
X274016D01*
Y396016D01*
X244984D01*
Y394859D01*
X215016D01*
Y407516D01*
X185984D01*
Y372484D01*
X215016D01*
Y385141D01*
X244984D01*
Y383984D01*
X274016D01*
Y385141D01*
X293923D01*
Y381539D01*
X293923Y380961D01*
Y379039D01*
X293923Y378461D01*
Y372489D01*
X300000D01*
X306077D01*
Y378461D01*
X306077Y379039D01*
Y380961D01*
X306077Y381539D01*
Y384434D01*
X350496D01*
X397465Y337465D01*
X398628Y336688D01*
X400000Y336415D01*
X559500D01*
X560872Y336688D01*
X562035Y337465D01*
X576304Y351734D01*
X578766D01*
X578766Y359766D01*
X578766Y362266D01*
Y368266D01*
X578585D01*
Y380774D01*
X578312Y382146D01*
X577535Y383309D01*
X575698Y385146D01*
X576814Y386261D01*
X570621Y392453D01*
X569906Y391738D01*
X561951Y399693D01*
X562661Y400403D01*
X556469Y406595D01*
X555756Y405882D01*
X549517Y412122D01*
X549102Y413124D01*
X547976Y414249D01*
X546506Y414858D01*
X544915D01*
X543445Y414249D01*
X542320Y413124D01*
X541711Y411654D01*
Y410062D01*
X542320Y408592D01*
X543445Y407467D01*
X544447Y407052D01*
X549327Y402172D01*
X549701Y399827D01*
X548206Y398332D01*
X546812Y396938D01*
X549908Y393842D01*
X553004Y390746D01*
X554398Y392140D01*
X555893Y393635D01*
X558240Y393265D01*
X563476Y388029D01*
X563854Y385685D01*
X562359Y384190D01*
X560965Y382797D01*
X564061Y379701D01*
X567157Y376605D01*
X568551Y377998D01*
X568915Y378363D01*
X571415Y377327D01*
Y368266D01*
X571234D01*
X571234Y360234D01*
X571234Y356804D01*
X558015Y343585D01*
X401485D01*
X354516Y390554D01*
X353353Y391331D01*
X351981Y391604D01*
X310940D01*
X309983Y393913D01*
X332535Y416465D01*
X333312Y417628D01*
X333585Y419000D01*
Y447160D01*
X344497Y458073D01*
X346637Y458941D01*
X348074Y457504D01*
X352317Y453262D01*
X352445Y453390D01*
X356349Y449485D01*
X356509Y447051D01*
X355014Y445556D01*
X353621Y444163D01*
X356717Y441067D01*
X359813Y437971D01*
X361206Y439365D01*
X362701Y440859D01*
X365046Y440485D01*
X370277Y435254D01*
X370651Y432909D01*
X369156Y431414D01*
X367763Y430021D01*
X370859Y426925D01*
X373955Y423829D01*
X375348Y425222D01*
X376843Y426717D01*
X379188Y426343D01*
X391505Y414026D01*
X391706Y413542D01*
X392831Y412417D01*
X394301Y411808D01*
X395893D01*
X397363Y412417D01*
X398488Y413542D01*
X399097Y415012D01*
Y416603D01*
X398488Y418073D01*
X397363Y419199D01*
X395893Y419808D01*
X395863D01*
X382898Y432773D01*
X383611Y433485D01*
X377419Y439677D01*
X376707Y438965D01*
X368756Y446915D01*
X369469Y447627D01*
X363277Y453819D01*
X362716Y453258D01*
X357515Y458460D01*
X357643Y458587D01*
X353400Y462830D01*
X351963Y464267D01*
X352582Y466511D01*
X354293Y468222D01*
X356537Y468841D01*
X362216Y463161D01*
X362345Y463289D01*
X367540Y458093D01*
X366974Y457527D01*
X373166Y451335D01*
X373732Y451901D01*
X381688Y443946D01*
X381127Y443385D01*
X384347Y440164D01*
X384935Y439284D01*
X400483Y423736D01*
X400898Y422734D01*
X402024Y421609D01*
X403494Y421000D01*
X405085D01*
X406555Y421609D01*
X407680Y422734D01*
X408289Y424204D01*
Y425268D01*
X409800Y426252D01*
X410599Y426494D01*
X422944Y414149D01*
Y370000D01*
X422944Y370000D01*
X423101Y369213D01*
X423546Y368547D01*
X436075Y356018D01*
X435984Y355799D01*
Y354201D01*
X436595Y352725D01*
X437725Y351595D01*
X439201Y350984D01*
X440799D01*
X442275Y351595D01*
X443405Y352725D01*
X444016Y354201D01*
Y355799D01*
X443405Y357275D01*
X442275Y358405D01*
X440799Y359016D01*
X439201D01*
X438982Y358925D01*
X427056Y370852D01*
Y376502D01*
X429556Y377538D01*
X436075Y371018D01*
X435984Y370799D01*
Y369201D01*
X436595Y367725D01*
X437725Y366595D01*
X439201Y365984D01*
X440799D01*
X442275Y366595D01*
X443405Y367725D01*
X444016Y369201D01*
Y370799D01*
X443405Y372275D01*
X442275Y373405D01*
X440799Y374016D01*
X439201D01*
X438982Y373925D01*
X432056Y380851D01*
Y386349D01*
X434239Y387265D01*
X435984Y385700D01*
Y384201D01*
X436595Y382725D01*
X437725Y381595D01*
X439201Y380984D01*
X440799D01*
X442275Y381595D01*
X443405Y382725D01*
X444016Y384201D01*
Y385799D01*
X443405Y387275D01*
X442275Y388405D01*
X440799Y389016D01*
X439201D01*
X438982Y388925D01*
X437281Y390626D01*
Y424775D01*
X437281Y424775D01*
X437124Y425561D01*
X436679Y426228D01*
X419407Y443500D01*
X420083Y445919D01*
X420796Y446000D01*
X422266Y446609D01*
X423391Y447734D01*
X424000Y449204D01*
Y450796D01*
X426230Y451945D01*
X530149D01*
X533142Y448951D01*
X532858Y446303D01*
X532638Y445919D01*
X531713Y444994D01*
X531104Y443523D01*
Y441932D01*
X531713Y440462D01*
X532838Y439337D01*
X534308Y438728D01*
X535912Y438586D01*
X536054Y436982D01*
X536663Y435512D01*
X537788Y434387D01*
X539258Y433778D01*
X540866Y433590D01*
X541004Y431982D01*
X541613Y430512D01*
X542738Y429387D01*
X544208Y428778D01*
X545812Y428637D01*
X545953Y427033D01*
X546562Y425563D01*
X547687Y424437D01*
X549158Y423828D01*
X550761Y423687D01*
X550903Y422083D01*
X551512Y420613D01*
X552637Y419488D01*
X554107Y418879D01*
X555699D01*
X557169Y419488D01*
X558223Y420541D01*
X559552D01*
X584944Y395149D01*
Y363000D01*
X584944Y363000D01*
X585101Y362213D01*
X585546Y361547D01*
X601075Y346018D01*
X600984Y345799D01*
Y344201D01*
X601595Y342725D01*
X602725Y341595D01*
X604201Y340984D01*
X605799D01*
X607275Y341595D01*
X608405Y342725D01*
X609016Y344201D01*
Y345799D01*
X608405Y347275D01*
X607275Y348405D01*
X605799Y349016D01*
X604201D01*
X603982Y348925D01*
X589055Y363852D01*
Y369502D01*
X591555Y370538D01*
X601075Y361018D01*
X600984Y360799D01*
Y359201D01*
X601595Y357725D01*
X602725Y356595D01*
X604201Y355984D01*
X605799D01*
X607275Y356595D01*
X608405Y357725D01*
X609016Y359201D01*
Y360799D01*
X608405Y362275D01*
X607275Y363405D01*
X605799Y364016D01*
X604201D01*
X603982Y363925D01*
X593055Y374851D01*
Y380502D01*
X595555Y381538D01*
X601075Y376018D01*
X600984Y375799D01*
Y374201D01*
X601595Y372725D01*
X602725Y371595D01*
X604201Y370984D01*
X605799D01*
X607275Y371595D01*
X608405Y372725D01*
X609016Y374201D01*
Y375799D01*
X608405Y377275D01*
X607275Y378405D01*
X605799Y379016D01*
X604201D01*
X603982Y378925D01*
X597056Y385852D01*
Y394935D01*
X597071Y395016D01*
X597071Y395016D01*
Y396486D01*
X599571Y397522D01*
X601574Y395519D01*
X601638Y395401D01*
X601595Y392275D01*
X600984Y390799D01*
Y389201D01*
X601595Y387725D01*
X602725Y386595D01*
X604201Y385984D01*
X605799D01*
X607275Y386595D01*
X608405Y387725D01*
X609016Y389201D01*
Y390799D01*
X608405Y392275D01*
X607275Y393405D01*
X607056Y393495D01*
Y395000D01*
X606899Y395787D01*
X606454Y396454D01*
X606453Y396454D01*
X604423Y398484D01*
X605458Y400984D01*
X605799D01*
X607275Y401595D01*
X608405Y402725D01*
X609016Y404201D01*
Y405799D01*
X608405Y407275D01*
X607275Y408405D01*
X605799Y409016D01*
X604201D01*
X602725Y408405D01*
X599599Y408362D01*
X599481Y408426D01*
X569494Y438413D01*
X570451Y440723D01*
X590043D01*
X590043Y440723D01*
X590830Y440879D01*
X591497Y441325D01*
X591734Y441562D01*
X594234Y440526D01*
Y438759D01*
X600000D01*
X605766D01*
Y442944D01*
X641734D01*
X642500Y442944D01*
X642502Y442943D01*
X644162Y441097D01*
X644166Y441089D01*
X644234Y440934D01*
Y438759D01*
X649492D01*
Y443266D01*
X649010D01*
X647753Y445766D01*
X648471Y446734D01*
X655766D01*
Y456766D01*
X655343D01*
X655266Y459234D01*
X655266D01*
Y468266D01*
X644734D01*
Y459234D01*
X644734D01*
X644657Y456766D01*
X644234D01*
Y449641D01*
X641649Y447056D01*
X605766D01*
Y456766D01*
X605343D01*
X605266Y459234D01*
X605266D01*
Y468266D01*
X594734D01*
Y459234D01*
X594734D01*
X594657Y456766D01*
X594234D01*
Y452477D01*
X593422D01*
X592635Y452321D01*
X591968Y451875D01*
X587943Y447850D01*
X558220D01*
X557263Y450159D01*
X559681Y452577D01*
X559044Y453214D01*
X566994Y461164D01*
X567631Y460527D01*
X573823Y466719D01*
X573186Y467356D01*
X577680Y471850D01*
X577884Y471646D01*
X583298Y477061D01*
X587545Y472814D01*
X589121Y471760D01*
X590981Y471391D01*
X682415D01*
Y409485D01*
X581015Y308085D01*
X225735D01*
X179766Y354054D01*
X179766Y356766D01*
X179766Y359266D01*
Y365266D01*
X179585D01*
Y377000D01*
X179312Y378372D01*
X178535Y379535D01*
X170749Y387321D01*
X169586Y388098D01*
X168214Y388371D01*
X164378D01*
Y389378D01*
X155622D01*
Y388371D01*
X144378D01*
Y389378D01*
X135622D01*
Y388371D01*
X112503D01*
X111131Y388098D01*
X109968Y387321D01*
X107599Y384952D01*
X106941Y385610D01*
X92423Y371092D01*
X92727Y370787D01*
X80022Y358082D01*
X79717Y358387D01*
X66613Y345283D01*
X71916Y339979D01*
X72293Y339603D01*
X73303Y338593D01*
X73696Y337344D01*
X73721Y335476D01*
X43547Y305301D01*
X43101Y304634D01*
X42944Y303848D01*
X42944Y303848D01*
Y245000D01*
X42944Y245000D01*
X43101Y244213D01*
X43547Y243547D01*
X107944Y179149D01*
Y171601D01*
X95109Y158766D01*
X90234Y158766D01*
X87734Y158766D01*
X81734D01*
Y157056D01*
X73478D01*
X73391Y157266D01*
X72266Y158391D01*
X70796Y159000D01*
X69204D01*
X67734Y158391D01*
X66609Y157266D01*
X66522Y157056D01*
X58266D01*
Y158766D01*
X50234Y158766D01*
X47734Y158766D01*
X41734D01*
Y154141D01*
X38547Y150953D01*
X38101Y150287D01*
X37945Y149500D01*
X37945Y149500D01*
Y100000D01*
X37945Y100000D01*
X38101Y99213D01*
X38547Y98546D01*
X47547Y89547D01*
X47547Y89546D01*
X48213Y89101D01*
X49000Y88945D01*
X49000Y88945D01*
X152000D01*
X152000Y88945D01*
X152787Y89101D01*
X153454Y89546D01*
X153484Y89577D01*
X154509Y89423D01*
X156177Y88735D01*
X156595Y87725D01*
X157725Y86595D01*
X159201Y85984D01*
X160799D01*
X162275Y86595D01*
X163405Y87725D01*
X164016Y89201D01*
Y90799D01*
X163405Y92275D01*
X162735Y92944D01*
X163298Y95106D01*
X163501Y95445D01*
X164287Y95601D01*
X164953Y96046D01*
X170453Y101546D01*
X170899Y102213D01*
X171056Y103000D01*
Y111000D01*
X170899Y111787D01*
X170453Y112453D01*
X170453Y112453D01*
X163925Y118982D01*
X164016Y119201D01*
Y120799D01*
X163405Y122275D01*
X162275Y123405D01*
X160799Y124016D01*
X159201D01*
X157725Y123405D01*
X156595Y122275D01*
X155984Y120799D01*
Y119201D01*
X156595Y117725D01*
X157725Y116595D01*
X159201Y115984D01*
X160799D01*
X161018Y116075D01*
X166945Y110149D01*
Y105674D01*
X166516Y105343D01*
X165682Y105495D01*
X163774Y106382D01*
X163405Y107275D01*
X162275Y108405D01*
X160799Y109016D01*
X159201D01*
X157725Y108405D01*
X156595Y107275D01*
X155984Y105799D01*
Y104201D01*
X156075Y103982D01*
X150149Y98055D01*
X52543D01*
X52100Y98734D01*
X52115Y98958D01*
X53453Y101234D01*
X58266D01*
Y102944D01*
X66522D01*
X66609Y102734D01*
X67734Y101609D01*
X69204Y101000D01*
X70796D01*
X72266Y101609D01*
X73391Y102734D01*
X73478Y102944D01*
X81734D01*
Y101234D01*
X89766Y101234D01*
X92266Y101234D01*
X98266D01*
Y105859D01*
X154515Y162108D01*
X157212D01*
X157725Y161595D01*
X159201Y160984D01*
X160799D01*
X162275Y161595D01*
X163405Y162725D01*
X164016Y164201D01*
Y165799D01*
X163925Y166018D01*
X167444Y169538D01*
X169944Y168502D01*
Y162851D01*
X161018Y153925D01*
X160799Y154016D01*
X159201D01*
X157725Y153405D01*
X156595Y152275D01*
X155984Y150799D01*
Y149201D01*
X156595Y147725D01*
X157725Y146595D01*
X159201Y145984D01*
X160799D01*
X162275Y146595D01*
X163405Y147725D01*
X164016Y149201D01*
Y150799D01*
X163925Y151018D01*
X172444Y159538D01*
X174944Y158502D01*
Y152851D01*
X161018Y138925D01*
X160799Y139016D01*
X159201D01*
X157725Y138405D01*
X156595Y137275D01*
X155984Y135799D01*
Y134201D01*
X156595Y132725D01*
X157725Y131595D01*
X159201Y130984D01*
X160799D01*
X162275Y131595D01*
X163405Y132725D01*
X164016Y134201D01*
Y135799D01*
X163925Y136018D01*
X178453Y150547D01*
X178454Y150547D01*
X178899Y151213D01*
X179056Y152000D01*
Y188000D01*
X179056Y188000D01*
X178899Y188787D01*
X178454Y189454D01*
X178453Y189454D01*
X169454Y198454D01*
X168787Y198899D01*
X168000Y199056D01*
X168000Y199056D01*
X115851D01*
X62056Y252851D01*
Y275570D01*
X97941Y311455D01*
X99314D01*
X100958Y310937D01*
X101968Y309927D01*
X102345Y309551D01*
X104449Y307447D01*
X111001Y313999D01*
X117553Y320551D01*
X115449Y322655D01*
X115073Y323031D01*
X113545Y324559D01*
Y327059D01*
X123651Y337165D01*
X125519Y337140D01*
X126768Y336747D01*
X127778Y335737D01*
X128154Y335360D01*
X130258Y333256D01*
X137517Y340515D01*
X144776Y347775D01*
X142673Y349879D01*
X142296Y350255D01*
X140905Y351647D01*
X140528Y352023D01*
X135601Y356950D01*
X135225Y357326D01*
X133834Y358718D01*
X133457Y359094D01*
X128530Y364021D01*
X128154Y364397D01*
X126763Y365789D01*
X126386Y366165D01*
X121459Y371092D01*
X121083Y371468D01*
X119691Y372860D01*
X119315Y373236D01*
X114437Y378114D01*
X114012Y378539D01*
X113990Y378701D01*
X116178Y381201D01*
X133699D01*
X135622Y379807D01*
X135622Y377693D01*
Y375722D01*
X140000D01*
X144378D01*
Y377693D01*
X144378Y379807D01*
X146301Y381201D01*
X153699D01*
X155622Y379807D01*
X155622Y377693D01*
Y375723D01*
X160000D01*
X164378D01*
Y377693D01*
X164378Y379807D01*
X165993Y380977D01*
X166878Y381052D01*
X172415Y375515D01*
Y365266D01*
X172234D01*
X172234Y357234D01*
X172234Y354734D01*
Y348734D01*
X174946D01*
X221715Y301965D01*
X222878Y301188D01*
X224250Y300915D01*
X570579D01*
X571536Y298605D01*
X505465Y232535D01*
X486515Y213585D01*
X364016D01*
Y213766D01*
X355984Y213766D01*
X353484Y213766D01*
X347484D01*
Y213585D01*
X339378D01*
Y214378D01*
X330622D01*
Y213585D01*
X319378D01*
Y214378D01*
X310622D01*
Y213585D01*
X285707D01*
X284335Y213312D01*
X283172Y212535D01*
X281594Y210957D01*
X280936Y211615D01*
X266418Y197097D01*
X266722Y196792D01*
X254017Y184087D01*
X253712Y184392D01*
X240608Y171288D01*
X245912Y165984D01*
X246288Y165608D01*
X247679Y164217D01*
X248055Y163840D01*
X252983Y158913D01*
X253359Y158537D01*
X254750Y157146D01*
X255126Y156769D01*
X260054Y151842D01*
X260430Y151466D01*
X261821Y150074D01*
X262198Y149698D01*
X267125Y144771D01*
X268892Y143003D01*
X269269Y142627D01*
X274196Y137700D01*
X274572Y137324D01*
X275963Y135932D01*
X276340Y135556D01*
X278444Y133452D01*
X284995Y140004D01*
X291548Y146556D01*
X289444Y148660D01*
X289068Y149036D01*
X287676Y150428D01*
X287639Y153164D01*
X297745Y163270D01*
X300245Y163270D01*
X301773Y161742D01*
X302149Y161366D01*
X304254Y159261D01*
X311513Y166520D01*
X318772Y173779D01*
X316667Y175884D01*
X316291Y176260D01*
X314900Y177652D01*
X314524Y178028D01*
X309596Y182955D01*
X309220Y183331D01*
X307829Y184723D01*
X307452Y185099D01*
X302525Y190026D01*
X300758Y191794D01*
X300381Y192170D01*
X295454Y197097D01*
X295078Y197473D01*
X293687Y198865D01*
X293310Y199241D01*
X288636Y203915D01*
X289526Y206415D01*
X308788D01*
X310622Y204807D01*
X310622Y202693D01*
Y200721D01*
X315000D01*
X319378D01*
Y202693D01*
X319378Y204807D01*
X321212Y206415D01*
X328788D01*
X330622Y204807D01*
X330622Y202693D01*
Y200722D01*
X335001D01*
X339378D01*
Y202693D01*
X339378Y204807D01*
X341212Y206415D01*
X347484D01*
Y206234D01*
X355516Y206234D01*
X358016Y206234D01*
X364016D01*
Y206415D01*
X488000D01*
X489372Y206688D01*
X490535Y207465D01*
X502105Y219036D01*
X504415Y218079D01*
Y166000D01*
X504688Y164628D01*
X505465Y163465D01*
X512620Y156310D01*
X512492Y156182D01*
X516735Y151939D01*
X518172Y150503D01*
X524182Y144492D01*
X524252Y144562D01*
X527476Y141339D01*
X527768Y138960D01*
X526273Y137465D01*
X524879Y136071D01*
X527975Y132976D01*
X531071Y129879D01*
X532465Y131273D01*
X533960Y132768D01*
X535962Y133968D01*
X541968Y127963D01*
X540768Y125960D01*
X539273Y124465D01*
X537879Y123071D01*
X540975Y119976D01*
X544071Y116879D01*
X545465Y118273D01*
X546960Y119768D01*
X548963Y120968D01*
X563689Y106241D01*
X563385Y105936D01*
X577903Y91418D01*
X578208Y91722D01*
X590913Y79017D01*
X590608Y78712D01*
X603712Y65608D01*
X609016Y70911D01*
X609392Y71288D01*
X610457Y72353D01*
X612800Y73547D01*
X613466Y73101D01*
X614253Y72944D01*
X786505D01*
X786595Y72725D01*
X787725Y71595D01*
X789201Y70984D01*
X790799D01*
X792275Y71595D01*
X793405Y72725D01*
X794016Y74201D01*
Y75799D01*
X793925Y76018D01*
X800851Y82944D01*
X895000D01*
X895000Y82944D01*
X895787Y83101D01*
X896453Y83546D01*
X916453Y103546D01*
X916453Y103546D01*
X916899Y104213D01*
X917056Y105000D01*
Y144250D01*
X917056Y144250D01*
X916899Y145037D01*
X916453Y145703D01*
X916453Y145703D01*
X908266Y153891D01*
Y158766D01*
X900234Y158766D01*
X897734Y158766D01*
X891734D01*
Y157056D01*
X888950D01*
X887993Y159365D01*
X937814Y209186D01*
X938370Y210018D01*
X938565Y211000D01*
Y386000D01*
X938370Y386982D01*
X937814Y387814D01*
X902814Y422814D01*
X901982Y423370D01*
X901000Y423565D01*
X772763D01*
X768016Y428312D01*
Y440716D01*
X751984D01*
Y424684D01*
X764388D01*
X768851Y420221D01*
X769527Y418410D01*
X768824Y416889D01*
X765286Y413350D01*
X764922Y413714D01*
X763094Y414770D01*
X761055Y415316D01*
X758945D01*
X756906Y414770D01*
X755078Y413714D01*
X753586Y412222D01*
X752530Y410394D01*
X751984Y408355D01*
Y406245D01*
X752530Y404206D01*
X753586Y402378D01*
X755078Y400886D01*
X756906Y399830D01*
X758945Y399284D01*
X761055D01*
X763094Y399830D01*
X764922Y400886D01*
X766414Y402378D01*
X767470Y404206D01*
X768016Y406245D01*
Y408355D01*
X767917Y408726D01*
X772626Y413435D01*
X897937D01*
X928435Y382937D01*
Y214063D01*
X896937Y182565D01*
X892092D01*
X891266Y183391D01*
X889796Y184000D01*
X888204D01*
X886734Y183391D01*
X885609Y182266D01*
X885000Y180796D01*
Y179204D01*
X885609Y177734D01*
X886734Y176609D01*
X888204Y176000D01*
X889796D01*
X891266Y176609D01*
X892092Y177435D01*
X895271D01*
X896307Y174935D01*
X880372Y159000D01*
X879204D01*
X877734Y158391D01*
X876609Y157266D01*
X876522Y157056D01*
X868266D01*
Y158766D01*
X860234Y158766D01*
X857734Y158766D01*
X851734D01*
Y154141D01*
X834649Y137056D01*
X793495D01*
X793405Y137275D01*
X792275Y138405D01*
X790799Y139016D01*
X789201D01*
X787725Y138405D01*
X786595Y137275D01*
X786555Y137179D01*
X784055Y137676D01*
Y141149D01*
X788982Y146075D01*
X789201Y145984D01*
X790799D01*
X792275Y146595D01*
X793405Y147725D01*
X794016Y149201D01*
Y150799D01*
X793405Y152275D01*
X792275Y153405D01*
X790799Y154016D01*
X789201D01*
X787725Y153405D01*
X786595Y152275D01*
X785984Y150799D01*
Y149201D01*
X786075Y148982D01*
X780546Y143454D01*
X780101Y142787D01*
X779945Y142000D01*
X779945Y142000D01*
Y130000D01*
X779945Y130000D01*
X780101Y129213D01*
X780546Y128547D01*
X782546Y126547D01*
X782547Y126546D01*
X783213Y126101D01*
X784000Y125944D01*
X784000Y125944D01*
X787324D01*
X787821Y123444D01*
X787725Y123405D01*
X786595Y122275D01*
X785984Y120799D01*
Y119201D01*
X786075Y118982D01*
X756149Y89056D01*
X645420D01*
X637540Y96936D01*
X637540Y99436D01*
X639068Y100963D01*
X639444Y101340D01*
X641548Y103444D01*
X634996Y109996D01*
X628444Y116548D01*
X626340Y114444D01*
X625964Y114068D01*
X624953Y113058D01*
X623705Y112664D01*
X621836Y112639D01*
X611730Y122745D01*
X611730Y125245D01*
X613258Y126773D01*
X613634Y127149D01*
X615739Y129254D01*
X608480Y136512D01*
X601221Y143772D01*
X599116Y141667D01*
X598740Y141291D01*
X597348Y139900D01*
X596972Y139523D01*
X591669Y134220D01*
X590277Y132829D01*
X584598Y127149D01*
X583206Y125758D01*
X577527Y120078D01*
X576135Y118686D01*
X570832Y113383D01*
X570456Y113007D01*
X568587Y111483D01*
X553631Y126439D01*
X553727Y126536D01*
X547536Y132727D01*
X547439Y132631D01*
X540631Y139439D01*
X540728Y139536D01*
X534535Y145728D01*
X533881Y145073D01*
X529322Y149632D01*
X529508Y149818D01*
X525265Y154061D01*
X523828Y155498D01*
X517818Y161508D01*
X517690Y161380D01*
X511585Y167485D01*
Y228515D01*
X585035Y301965D01*
X680105Y397036D01*
X682415Y396079D01*
Y341500D01*
X682688Y340128D01*
X683465Y338965D01*
X689120Y333310D01*
X688992Y333182D01*
X693235Y328939D01*
X694672Y327503D01*
X697774Y324400D01*
X697970Y324106D01*
X704161Y317915D01*
X704268Y315460D01*
X702773Y313965D01*
X701379Y312572D01*
X704476Y309475D01*
X707571Y306380D01*
X708965Y307773D01*
X710460Y309268D01*
X712693Y308624D01*
X716124Y305193D01*
X716768Y302960D01*
X715273Y301465D01*
X713880Y300072D01*
X716975Y296976D01*
X720072Y293880D01*
X721465Y295273D01*
X722960Y296768D01*
X725193Y296124D01*
X739257Y282060D01*
X738762Y281564D01*
X753280Y267046D01*
X753585Y267351D01*
X766290Y254645D01*
X765985Y254340D01*
X779089Y241236D01*
X784392Y246540D01*
X784769Y246916D01*
X786160Y248307D01*
X786536Y248684D01*
X791463Y253611D01*
X791840Y253987D01*
X793231Y255378D01*
X793607Y255755D01*
X798535Y260682D01*
X798911Y261058D01*
X800302Y262449D01*
X800679Y262826D01*
X805606Y267753D01*
X805982Y268129D01*
X807374Y269521D01*
X807750Y269897D01*
X812677Y274824D01*
X813053Y275200D01*
X814445Y276592D01*
X814821Y276968D01*
X816925Y279072D01*
X810373Y285624D01*
X803821Y292176D01*
X801717Y290072D01*
X801340Y289696D01*
X800330Y288686D01*
X799082Y288293D01*
X797213Y288267D01*
X787107Y298373D01*
X787107Y300873D01*
X788635Y302401D01*
X789011Y302777D01*
X791116Y304882D01*
X783857Y312141D01*
X776598Y319400D01*
X774493Y317296D01*
X774117Y316919D01*
X772725Y315528D01*
X772349Y315152D01*
X767422Y310224D01*
X767046Y309848D01*
X765654Y308457D01*
X765278Y308081D01*
X760351Y303153D01*
X758583Y301386D01*
X758207Y301010D01*
X753280Y296082D01*
X752904Y295706D01*
X751136Y293938D01*
X746209Y289011D01*
X745833Y288635D01*
X743694Y287762D01*
X728824Y302632D01*
X729727Y303535D01*
X723536Y309727D01*
X722632Y308824D01*
X716324Y315132D01*
X717227Y316035D01*
X711036Y322228D01*
X710512Y321704D01*
X705703Y326513D01*
X706008Y326818D01*
X701765Y331061D01*
X700328Y332497D01*
X694318Y338508D01*
X694190Y338380D01*
X689585Y342985D01*
Y408000D01*
Y471391D01*
X750649D01*
X751984Y469651D01*
Y469284D01*
X752351D01*
X754445Y467678D01*
X757124Y466568D01*
X760000Y466189D01*
X831387D01*
X832445Y465378D01*
X835124Y464268D01*
X838000Y463889D01*
X840876Y464268D01*
X843556Y465378D01*
X845857Y467143D01*
X847623Y469444D01*
X848732Y472124D01*
X849111Y475000D01*
X848733Y477876D01*
X847623Y480555D01*
X845857Y482857D01*
X843557Y485157D01*
X841255Y486922D01*
X838576Y488032D01*
X835700Y488411D01*
X760000D01*
X757124Y488032D01*
X754445Y486922D01*
X752351Y485316D01*
X751984D01*
Y484949D01*
X750378Y482855D01*
X749654Y481109D01*
X592994D01*
X587507Y486596D01*
X585931Y487649D01*
X585095Y487815D01*
X584248Y488662D01*
D02*
G37*
G36*
X557105Y476527D02*
X554368Y473790D01*
X557256Y470902D01*
X559992Y473639D01*
X557105Y476527D01*
D02*
G37*
G36*
X539822Y472436D02*
X537085Y469699D01*
X539973Y466811D01*
X542710Y469548D01*
X539822Y472436D01*
D02*
G37*
G36*
X380237Y470790D02*
X377349Y467902D01*
X380085Y465166D01*
X382973Y468054D01*
X380237Y470790D01*
D02*
G37*
G36*
X536366Y468981D02*
X533630Y466244D01*
X536518Y463356D01*
X539255Y466092D01*
X536366Y468981D01*
D02*
G37*
G36*
X406653Y468900D02*
X403765Y466012D01*
X406502Y463276D01*
X409390Y466164D01*
X406653Y468900D01*
D02*
G37*
G36*
X383691Y467335D02*
X380804Y464447D01*
X383541Y461710D01*
X386429Y464598D01*
X383691Y467335D01*
D02*
G37*
G36*
X546418Y465840D02*
X543681Y463103D01*
X546569Y460215D01*
X549306Y462952D01*
X546418Y465840D01*
D02*
G37*
G36*
X410108Y465445D02*
X407220Y462557D01*
X409957Y459821D01*
X412845Y462709D01*
X410108Y465445D01*
D02*
G37*
G36*
X542963Y462385D02*
X540226Y459648D01*
X543114Y456760D01*
X545851Y459497D01*
X542963Y462385D01*
D02*
G37*
G36*
X394390Y456648D02*
X391501Y453759D01*
X394238Y451022D01*
X397127Y453911D01*
X394390Y456648D01*
D02*
G37*
G36*
X616796Y459000D02*
X615204D01*
X613734Y458391D01*
X612609Y457266D01*
X612000Y455796D01*
Y454204D01*
X612609Y452734D01*
X613734Y451609D01*
X615204Y451000D01*
X616796D01*
X618266Y451609D01*
X619391Y452734D01*
X620000Y454204D01*
Y455796D01*
X619391Y457266D01*
X618266Y458391D01*
X616796Y459000D01*
D02*
G37*
G36*
X397845Y453192D02*
X394956Y450304D01*
X397693Y447567D01*
X400582Y450456D01*
X397845Y453192D01*
D02*
G37*
G36*
X274016Y453016D02*
X260009D01*
Y447507D01*
X274016D01*
Y453016D01*
D02*
G37*
G36*
X258993D02*
X244984D01*
Y447507D01*
X258993D01*
Y453016D01*
D02*
G37*
G36*
X306077Y451474D02*
X300508D01*
Y444923D01*
X306077D01*
Y451474D01*
D02*
G37*
G36*
X299492D02*
X293923D01*
Y444923D01*
X299492D01*
Y451474D01*
D02*
G37*
G36*
X274016Y446491D02*
X260009D01*
Y440984D01*
X274016D01*
Y446491D01*
D02*
G37*
G36*
X258993D02*
X244984D01*
Y440984D01*
X258993D01*
Y446491D01*
D02*
G37*
G36*
X655766Y443266D02*
X650508D01*
Y438759D01*
X655766D01*
Y443266D01*
D02*
G37*
G36*
X352903Y443445D02*
X350014Y440556D01*
X352751Y437820D01*
X355639Y440708D01*
X352903Y443445D01*
D02*
G37*
G36*
X356358Y439990D02*
X353469Y437101D01*
X356206Y434364D01*
X359095Y437253D01*
X356358Y439990D01*
D02*
G37*
G36*
X655766Y437743D02*
X650508D01*
Y433234D01*
X655766D01*
Y437743D01*
D02*
G37*
G36*
X649492D02*
X644234D01*
Y433234D01*
X649492D01*
Y437743D01*
D02*
G37*
G36*
X605766D02*
X600508D01*
Y433234D01*
X605766D01*
Y437743D01*
D02*
G37*
G36*
X599492D02*
X594234D01*
Y433234D01*
X599492D01*
Y437743D01*
D02*
G37*
G36*
X367044Y429302D02*
X364156Y426414D01*
X366893Y423677D01*
X369781Y426565D01*
X367044Y429302D01*
D02*
G37*
G36*
X370500Y425847D02*
X367612Y422959D01*
X370348Y420222D01*
X373236Y423110D01*
X370500Y425847D01*
D02*
G37*
G36*
X605799Y424016D02*
X604201D01*
X602725Y423405D01*
X601595Y422275D01*
X600984Y420799D01*
Y419201D01*
X601595Y417725D01*
X602725Y416595D01*
X604201Y415984D01*
X605799D01*
X607275Y416595D01*
X608405Y417725D01*
X609016Y419201D01*
Y420799D01*
X608405Y422275D01*
X607275Y423405D01*
X605799Y424016D01*
D02*
G37*
G36*
X305293Y417378D02*
Y413508D01*
X309378D01*
Y417378D01*
X305293D01*
D02*
G37*
G36*
X309378Y412492D02*
X305293D01*
Y408622D01*
X309378D01*
Y412492D01*
D02*
G37*
G36*
X274016Y419016D02*
X244984D01*
Y406984D01*
X274016D01*
Y408141D01*
X295214D01*
X297074Y408511D01*
X297240Y408622D01*
X300193Y408622D01*
X302307Y408622D01*
X304277D01*
Y413000D01*
Y417378D01*
X302307D01*
X299807Y417379D01*
X297240Y417378D01*
X297074Y417490D01*
X295214Y417859D01*
X274016D01*
Y419016D01*
D02*
G37*
G36*
X546094Y396220D02*
X543206Y393332D01*
X545942Y390595D01*
X548831Y393483D01*
X546094Y396220D01*
D02*
G37*
G36*
X549549Y392765D02*
X546661Y389877D01*
X549398Y387140D01*
X552286Y390028D01*
X549549Y392765D01*
D02*
G37*
G36*
X843436Y386239D02*
X840955Y383758D01*
X847855Y376858D01*
X850336Y379339D01*
X843436Y386239D01*
D02*
G37*
G36*
X560247Y382079D02*
X557359Y379190D01*
X560095Y376453D01*
X562984Y379342D01*
X560247Y382079D01*
D02*
G37*
G36*
X563702Y378623D02*
X560814Y375735D01*
X563550Y372998D01*
X566439Y375886D01*
X563702Y378623D01*
D02*
G37*
G36*
X164378Y374707D02*
X160508D01*
Y370622D01*
X164378D01*
Y374707D01*
D02*
G37*
G36*
X159492D02*
X155622D01*
Y370622D01*
X159492D01*
Y374707D01*
D02*
G37*
G36*
X144378Y374706D02*
X140508D01*
Y370622D01*
X144378D01*
Y374706D01*
D02*
G37*
G36*
X139492D02*
X135622D01*
Y370622D01*
X139492D01*
Y374706D01*
D02*
G37*
G36*
X851054Y378620D02*
X848574Y376140D01*
X855474Y369240D01*
X857954Y371720D01*
X851054Y378620D01*
D02*
G37*
G36*
X274016Y373016D02*
X260008D01*
Y367508D01*
X274016D01*
Y373016D01*
D02*
G37*
G36*
X258992D02*
X244984D01*
Y367508D01*
X258992D01*
Y373016D01*
D02*
G37*
G36*
X306077Y371473D02*
X300508D01*
Y364923D01*
X306077D01*
Y371473D01*
D02*
G37*
G36*
X299492D02*
X293923D01*
Y364923D01*
X299492D01*
Y371473D01*
D02*
G37*
G36*
X274016Y366492D02*
X260008D01*
Y360984D01*
X274016D01*
Y366492D01*
D02*
G37*
G36*
X258992D02*
X244984D01*
Y360984D01*
X258992D01*
Y366492D01*
D02*
G37*
G36*
X870659Y359015D02*
X868179Y356534D01*
X874371Y350341D01*
X876852Y352822D01*
X870659Y359015D01*
D02*
G37*
G36*
X877571Y352104D02*
X875090Y349623D01*
X881283Y343430D01*
X883764Y345911D01*
X877571Y352104D01*
D02*
G37*
G36*
X840237Y383039D02*
X838333Y381136D01*
X836365Y379852D01*
X835788Y379275D01*
X830001Y373488D01*
X828233Y371720D01*
X823506Y366993D01*
X822930Y366417D01*
X821646Y364449D01*
X819743Y362545D01*
X827002Y355286D01*
X834261Y348027D01*
X836164Y349930D01*
X838133Y351214D01*
X838709Y351791D01*
X842008Y355089D01*
X854028Y343068D01*
X850730Y339770D01*
X850153Y339193D01*
X848870Y337225D01*
X846966Y335321D01*
X853518Y328769D01*
X860070Y322217D01*
X861974Y324121D01*
X863942Y325405D01*
X866501Y327963D01*
X868988Y328008D01*
X875544Y321452D01*
X875199Y321107D01*
X874590Y319637D01*
Y318046D01*
X875199Y316576D01*
X876324Y315450D01*
X877794Y314841D01*
X879386D01*
X880856Y315450D01*
X881981Y316576D01*
X882590Y318046D01*
X882962Y319720D01*
X884636Y320091D01*
X886106Y320700D01*
X887231Y321825D01*
X887840Y323296D01*
Y324887D01*
X887231Y326357D01*
X886106Y327482D01*
X884636Y328091D01*
X883044D01*
X881574Y327482D01*
X881229Y327137D01*
X875819Y332547D01*
X875617Y332849D01*
X873502Y334965D01*
X876800Y338263D01*
X877377Y338840D01*
X878661Y340808D01*
X880564Y342712D01*
X874012Y349264D01*
X867460Y355816D01*
X865557Y353912D01*
X863588Y352628D01*
X863012Y352052D01*
X859713Y348753D01*
X847693Y360774D01*
X850991Y364072D01*
X851568Y364649D01*
X852851Y366617D01*
X854755Y368521D01*
X847496Y375780D01*
X840237Y383039D01*
D02*
G37*
G36*
X145495Y347056D02*
X138236Y339797D01*
X130977Y332538D01*
X132881Y330634D01*
X134164Y328666D01*
X134741Y328089D01*
X138186Y324644D01*
X126165Y312624D01*
X122720Y316068D01*
X122144Y316645D01*
X120176Y317929D01*
X118272Y319832D01*
X111719Y313280D01*
X105167Y306728D01*
X107071Y304824D01*
X108355Y302856D01*
X111009Y300202D01*
X111049Y298647D01*
X110959Y297591D01*
X104512Y291145D01*
X104021Y291636D01*
X102551Y292245D01*
X100959D01*
X99489Y291636D01*
X98364Y290511D01*
X97755Y289041D01*
Y287449D01*
X98364Y285979D01*
X99489Y284854D01*
X100959Y284245D01*
X102633Y283873D01*
X103005Y282199D01*
X103614Y280729D01*
X104739Y279604D01*
X106209Y278995D01*
X107801D01*
X109271Y279604D01*
X110396Y280729D01*
X111005Y282199D01*
Y283791D01*
X110396Y285261D01*
X109905Y285752D01*
X115117Y290964D01*
X115641Y291315D01*
X117769Y293442D01*
X121214Y289998D01*
X121790Y289421D01*
X123758Y288137D01*
X125663Y286233D01*
X132215Y292785D01*
X138767Y299337D01*
X136862Y301241D01*
X135579Y303210D01*
X135002Y303786D01*
X131558Y307231D01*
X143579Y319252D01*
X147023Y315807D01*
X147600Y315231D01*
X149568Y313947D01*
X151472Y312043D01*
X158731Y319302D01*
X165990Y326561D01*
X164086Y328465D01*
X162802Y330433D01*
X162226Y331010D01*
X155731Y337505D01*
X149944Y343292D01*
X149367Y343868D01*
X147399Y345152D01*
X145495Y347056D01*
D02*
G37*
G36*
X700661Y311853D02*
X697773Y308965D01*
X700510Y306227D01*
X703398Y309116D01*
X700661Y311853D01*
D02*
G37*
G36*
X704117Y308398D02*
X701228Y305509D01*
X703964Y302773D01*
X706853Y305661D01*
X704117Y308398D01*
D02*
G37*
G36*
X713161Y299354D02*
X710273Y296465D01*
X713009Y293728D01*
X715898Y296617D01*
X713161Y299354D01*
D02*
G37*
G36*
X819024Y361827D02*
X817120Y359922D01*
X815152Y358639D01*
X814575Y358062D01*
X808788Y352275D01*
X808081Y351568D01*
X802293Y345780D01*
X801717Y345204D01*
X800433Y343236D01*
X798529Y341331D01*
X805788Y334072D01*
X813047Y326813D01*
X814951Y328717D01*
X816919Y330001D01*
X817496Y330578D01*
X820795Y333876D01*
X825312Y329359D01*
X825312Y329359D01*
X832815Y321855D01*
X829517Y318557D01*
X828940Y317980D01*
X827656Y316012D01*
X825752Y314108D01*
X832304Y307556D01*
X838856Y301003D01*
X840761Y302908D01*
X842729Y304191D01*
X845287Y306750D01*
X847775Y306795D01*
X854331Y300239D01*
X853986Y299894D01*
X853377Y298424D01*
Y296833D01*
X853986Y295362D01*
X855111Y294237D01*
X856581Y293628D01*
X858173D01*
X859643Y294237D01*
X860768Y295362D01*
X861377Y296833D01*
X861749Y298506D01*
X863422Y298878D01*
X864893Y299487D01*
X866018Y300612D01*
X866627Y302083D01*
Y303674D01*
X866018Y305144D01*
X864893Y306269D01*
X863422Y306878D01*
X861831D01*
X860361Y306269D01*
X860016Y305924D01*
X854606Y311334D01*
X854404Y311636D01*
X852289Y313751D01*
X855587Y317050D01*
X856164Y317626D01*
X857448Y319595D01*
X859352Y321499D01*
X852800Y328051D01*
X846247Y334603D01*
X844343Y332699D01*
X842375Y331415D01*
X841799Y330838D01*
X838500Y327540D01*
X831941Y334099D01*
X831941Y334100D01*
X826479Y339561D01*
X829778Y342859D01*
X830354Y343436D01*
X831638Y345404D01*
X833542Y347308D01*
X826283Y354567D01*
X819024Y361827D01*
D02*
G37*
G36*
X166709Y325843D02*
X159450Y318584D01*
X152190Y311324D01*
X154094Y309421D01*
X155378Y307452D01*
X155954Y306876D01*
X159253Y303577D01*
X147232Y291556D01*
X143934Y294855D01*
X143357Y295432D01*
X141389Y296715D01*
X139485Y298619D01*
X132933Y292067D01*
X126381Y285515D01*
X128285Y283611D01*
X129568Y281643D01*
X132127Y279085D01*
X132172Y276597D01*
X125616Y270041D01*
X125271Y270386D01*
X123801Y270995D01*
X122209D01*
X120739Y270386D01*
X119614Y269261D01*
X119005Y267791D01*
Y266199D01*
X119614Y264729D01*
X120739Y263604D01*
X122209Y262995D01*
X123883Y262623D01*
X124255Y260949D01*
X124864Y259479D01*
X125989Y258354D01*
X127459Y257745D01*
X129051D01*
X130521Y258354D01*
X131646Y259479D01*
X132255Y260949D01*
Y262541D01*
X131646Y264011D01*
X131301Y264356D01*
X136711Y269766D01*
X137013Y269968D01*
X139128Y272083D01*
X142427Y268785D01*
X143003Y268208D01*
X144972Y266924D01*
X146875Y265020D01*
X153427Y271572D01*
X159980Y278125D01*
X158076Y280028D01*
X156792Y281997D01*
X156215Y282573D01*
X152917Y285872D01*
X164938Y297892D01*
X168236Y294594D01*
X168813Y294017D01*
X170781Y292734D01*
X172685Y290830D01*
X179944Y298089D01*
X187203Y305348D01*
X185299Y307252D01*
X184016Y309220D01*
X183439Y309797D01*
X177652Y315584D01*
X176945Y316291D01*
X171157Y322079D01*
X170581Y322655D01*
X168612Y323939D01*
X166709Y325843D01*
D02*
G37*
G36*
X716616Y295899D02*
X713727Y293010D01*
X716464Y290273D01*
X719353Y293162D01*
X716616Y295899D01*
D02*
G37*
G36*
X209135Y283416D02*
X202235Y276516D01*
X204715Y274036D01*
X211615Y280936D01*
X209135Y283416D01*
D02*
G37*
G36*
X187921Y304630D02*
X180662Y297371D01*
X173403Y290112D01*
X175307Y288207D01*
X176591Y286239D01*
X177168Y285662D01*
X180466Y282364D01*
X175949Y277847D01*
X175949Y277847D01*
X168445Y270343D01*
X165147Y273642D01*
X164570Y274218D01*
X162602Y275502D01*
X160698Y277406D01*
X154146Y270854D01*
X147594Y264302D01*
X149498Y262398D01*
X150782Y260430D01*
X153340Y257871D01*
X153385Y255383D01*
X146829Y248828D01*
X146484Y249173D01*
X145014Y249782D01*
X143423D01*
X141952Y249173D01*
X140827Y248048D01*
X140218Y246577D01*
Y244986D01*
X140827Y243516D01*
X141952Y242391D01*
X143423Y241782D01*
X145096Y241410D01*
X145468Y239736D01*
X146077Y238266D01*
X147202Y237141D01*
X148673Y236532D01*
X150264D01*
X151734Y237141D01*
X152859Y238266D01*
X153468Y239736D01*
Y241327D01*
X152859Y242798D01*
X152514Y243143D01*
X157924Y248552D01*
X158226Y248754D01*
X160341Y250870D01*
X163640Y247571D01*
X164217Y246995D01*
X166185Y245711D01*
X168089Y243807D01*
X174641Y250359D01*
X181193Y256911D01*
X179289Y258815D01*
X178005Y260783D01*
X177428Y261360D01*
X174130Y264658D01*
X180690Y271218D01*
X180690Y271218D01*
X186151Y276679D01*
X189449Y273381D01*
X190026Y272804D01*
X191994Y271520D01*
X193898Y269616D01*
X201158Y276876D01*
X208417Y284135D01*
X206513Y286039D01*
X205229Y288007D01*
X204652Y288584D01*
X198865Y294371D01*
X198158Y295078D01*
X192370Y300865D01*
X191794Y301442D01*
X189826Y302726D01*
X187921Y304630D01*
D02*
G37*
G36*
X201517Y275798D02*
X194617Y268898D01*
X197097Y266418D01*
X203997Y273318D01*
X201517Y275798D01*
D02*
G37*
G36*
X181912Y256192D02*
X175719Y250000D01*
X178199Y247519D01*
X184392Y253712D01*
X181912Y256192D01*
D02*
G37*
G36*
X175000Y249281D02*
X168808Y243088D01*
X171288Y240608D01*
X177481Y246801D01*
X175000Y249281D01*
D02*
G37*
G36*
X383331Y253536D02*
X381740D01*
X380270Y252927D01*
X379145Y251801D01*
X378536Y250331D01*
Y248740D01*
X379145Y247270D01*
X380270Y246145D01*
X380111Y243504D01*
X366795Y230188D01*
X260615D01*
X259733Y230013D01*
X258986Y229513D01*
X218352Y188880D01*
X217853Y188132D01*
X217677Y187250D01*
Y140750D01*
X217853Y139868D01*
X218352Y139121D01*
X240121Y117352D01*
X240868Y116853D01*
X241749Y116677D01*
X288040D01*
X288921Y116853D01*
X289669Y117352D01*
X291764Y119447D01*
X295208Y116003D01*
X295785Y115426D01*
X297753Y114143D01*
X299657Y112239D01*
X306209Y118791D01*
X312761Y125343D01*
X310858Y127247D01*
X309574Y129215D01*
X308997Y129791D01*
X305553Y133236D01*
X317573Y145257D01*
X321018Y141812D01*
X321595Y141236D01*
X323563Y139952D01*
X325466Y138048D01*
X332726Y145307D01*
X339985Y152566D01*
X338081Y154470D01*
X336797Y156438D01*
X336221Y157015D01*
X331494Y161742D01*
X329726Y163510D01*
Y163510D01*
X329726Y163510D01*
X323939Y169297D01*
X323362Y169873D01*
X321394Y171157D01*
X319490Y173061D01*
X312232Y165802D01*
X304972Y158542D01*
X306876Y156639D01*
X308160Y154671D01*
X308736Y154094D01*
X312181Y150649D01*
X300160Y138629D01*
X296715Y142073D01*
X296139Y142650D01*
X294170Y143933D01*
X292266Y145838D01*
X285714Y139286D01*
X279162Y132734D01*
X281066Y130829D01*
X282350Y128861D01*
X284408Y126804D01*
X283372Y124304D01*
X243954D01*
X225304Y142954D01*
Y185046D01*
X262820Y222561D01*
X369000D01*
X369882Y222737D01*
X370629Y223236D01*
X385504Y238111D01*
X388145Y238270D01*
X389270Y237145D01*
X390740Y236536D01*
X392331D01*
X393801Y237145D01*
X394927Y238270D01*
X395536Y239740D01*
Y241331D01*
X394927Y242801D01*
X393801Y243927D01*
X392331Y244536D01*
X390794D01*
X390361Y244968D01*
X389614Y245467D01*
X388732Y245643D01*
X387643D01*
Y246732D01*
X387467Y247614D01*
X386968Y248361D01*
X386536Y248794D01*
Y250331D01*
X385927Y251801D01*
X384801Y252927D01*
X383331Y253536D01*
D02*
G37*
G36*
X797810Y340613D02*
X795907Y338709D01*
X793938Y337425D01*
X793362Y336849D01*
X788635Y332122D01*
X786867Y330354D01*
X786867D01*
X786867Y330354D01*
X781080Y324567D01*
X780503Y323991D01*
X779220Y322022D01*
X777316Y320118D01*
X784575Y312859D01*
X791834Y305600D01*
X793738Y307504D01*
X795706Y308788D01*
X796283Y309364D01*
X799752Y312834D01*
X811773Y300813D01*
X808304Y297344D01*
X807727Y296767D01*
X806443Y294799D01*
X804539Y292895D01*
X811091Y286343D01*
X817644Y279791D01*
X819547Y281695D01*
X821516Y282978D01*
X822092Y283555D01*
X825562Y287024D01*
X834927Y277659D01*
Y258333D01*
X804003Y227408D01*
X755435D01*
X753921Y228921D01*
X701141Y281702D01*
X701141Y281702D01*
X654534Y328308D01*
Y330948D01*
X655605Y332020D01*
X656214Y333490D01*
Y335081D01*
X655605Y336551D01*
X654480Y337677D01*
X653010Y338285D01*
X651419D01*
X649949Y337677D01*
X648823Y336551D01*
X648214Y335081D01*
Y333490D01*
X648823Y332020D01*
X649718Y331125D01*
Y327782D01*
X646375D01*
X645303Y328853D01*
X643833Y329462D01*
X642242D01*
X640772Y328853D01*
X639647Y327728D01*
X639038Y326258D01*
Y324667D01*
X639647Y323196D01*
X640772Y322071D01*
X642242Y321462D01*
X643833D01*
X645303Y322071D01*
X646198Y322966D01*
X649192D01*
X696600Y275557D01*
X696601Y275557D01*
X749995Y222163D01*
X749995Y222162D01*
X751600Y220558D01*
X752381Y220036D01*
X753302Y219852D01*
X806135D01*
X807056Y220036D01*
X807838Y220558D01*
X841778Y254498D01*
X842300Y255279D01*
X842483Y256201D01*
Y279791D01*
X842300Y280713D01*
X841778Y281494D01*
X830904Y292367D01*
X834374Y295837D01*
X834951Y296413D01*
X836234Y298382D01*
X838138Y300285D01*
X831586Y306837D01*
X825034Y313389D01*
X823130Y311486D01*
X821162Y310202D01*
X820585Y309625D01*
X817116Y306156D01*
X805095Y318176D01*
X808565Y321646D01*
X809141Y322223D01*
X810425Y324191D01*
X812329Y326095D01*
X805069Y333354D01*
X797810Y340613D01*
D02*
G37*
G36*
X668059Y210610D02*
X665579Y208130D01*
X672478Y201230D01*
X674959Y203711D01*
X668059Y210610D01*
D02*
G37*
G36*
X339378Y199706D02*
X335509D01*
Y195622D01*
X339378D01*
Y199706D01*
D02*
G37*
G36*
X334493D02*
X330622D01*
Y195622D01*
X334493D01*
Y199706D01*
D02*
G37*
G36*
X319378Y199705D02*
X315508D01*
Y195622D01*
X319378D01*
Y199705D01*
D02*
G37*
G36*
X314492D02*
X310622D01*
Y195622D01*
X314492D01*
Y199705D01*
D02*
G37*
G36*
X675677Y202992D02*
X673196Y200512D01*
X680097Y193611D01*
X682577Y196092D01*
X675677Y202992D01*
D02*
G37*
G36*
X790799Y184016D02*
X789201D01*
X787725Y183405D01*
X786595Y182275D01*
X785984Y180799D01*
Y179201D01*
X786595Y177725D01*
X787725Y176595D01*
X789201Y175984D01*
X790799D01*
X792275Y176595D01*
X793405Y177725D01*
X794016Y179201D01*
Y180799D01*
X793405Y182275D01*
X792275Y183405D01*
X790799Y184016D01*
D02*
G37*
G36*
X695283Y183387D02*
X692802Y180906D01*
X698995Y174713D01*
X701475Y177194D01*
X695283Y183387D01*
D02*
G37*
G36*
X702194Y176476D02*
X699713Y173995D01*
X705906Y167802D01*
X708387Y170283D01*
X702194Y176476D01*
D02*
G37*
G36*
X790799Y169016D02*
X789201D01*
X787725Y168405D01*
X786595Y167275D01*
X785984Y165799D01*
Y164201D01*
X786595Y162725D01*
X787725Y161595D01*
X789201Y160984D01*
X790799D01*
X792275Y161595D01*
X793405Y162725D01*
X794016Y164201D01*
Y165799D01*
X793405Y167275D01*
X792275Y168405D01*
X790799Y169016D01*
D02*
G37*
G36*
X664860Y207411D02*
X662956Y205508D01*
X660988Y204224D01*
X660411Y203647D01*
X654624Y197860D01*
X653917Y197153D01*
X648130Y191365D01*
X647553Y190789D01*
X646269Y188820D01*
X644365Y186917D01*
X651625Y179657D01*
X658884Y172398D01*
X660788Y174302D01*
X662756Y175586D01*
X663332Y176163D01*
X666631Y179461D01*
X673427Y172665D01*
X673427Y172664D01*
X678652Y167440D01*
X675353Y164142D01*
X674777Y163565D01*
X673493Y161597D01*
X671589Y159693D01*
X678141Y153141D01*
X684693Y146589D01*
X686597Y148493D01*
X688565Y149776D01*
X691124Y152335D01*
X693612Y152380D01*
X700167Y145824D01*
X699822Y145479D01*
X699213Y144009D01*
Y142417D01*
X699822Y140947D01*
X700947Y139822D01*
X702418Y139213D01*
X704009D01*
X705479Y139822D01*
X706604Y140947D01*
X707213Y142417D01*
X707585Y144091D01*
X709259Y144463D01*
X710729Y145072D01*
X711854Y146197D01*
X712463Y147668D01*
Y149259D01*
X711854Y150729D01*
X710729Y151854D01*
X709259Y152463D01*
X707667D01*
X706197Y151854D01*
X705852Y151509D01*
X700443Y156919D01*
X700240Y157221D01*
X698125Y159337D01*
X701423Y162635D01*
X702000Y163211D01*
X703284Y165180D01*
X705188Y167083D01*
X698635Y173636D01*
X692083Y180187D01*
X690180Y178284D01*
X688212Y177000D01*
X687635Y176423D01*
X684336Y173125D01*
X678168Y179293D01*
X678168Y179293D01*
X672316Y185146D01*
X675614Y188444D01*
X676191Y189021D01*
X677475Y190989D01*
X679378Y192893D01*
X672119Y200152D01*
X664860Y207411D01*
D02*
G37*
G36*
X524161Y135353D02*
X521273Y132465D01*
X524009Y129728D01*
X526897Y132617D01*
X524161Y135353D01*
D02*
G37*
G36*
X527616Y131898D02*
X524727Y129010D01*
X527464Y126272D01*
X530353Y129161D01*
X527616Y131898D01*
D02*
G37*
G36*
X643647Y186198D02*
X641743Y184294D01*
X639775Y183011D01*
X639198Y182434D01*
X633411Y176647D01*
X632704Y175939D01*
X626916Y170152D01*
X626340Y169576D01*
X625056Y167607D01*
X623152Y165703D01*
X630411Y158444D01*
X637670Y151185D01*
X639574Y153089D01*
X641543Y154373D01*
X642119Y154949D01*
X645418Y158248D01*
X652214Y151451D01*
X652214Y151451D01*
X657438Y146227D01*
X654140Y142929D01*
X653563Y142352D01*
X652280Y140384D01*
X650375Y138479D01*
X656927Y131928D01*
X663480Y125375D01*
X665384Y127280D01*
X667352Y128563D01*
X669910Y131122D01*
X669939Y131122D01*
X672945Y130620D01*
X678954Y124611D01*
X678609Y124266D01*
X678000Y122796D01*
Y121204D01*
X678609Y119734D01*
X679734Y118609D01*
X681204Y118000D01*
X682796D01*
X684266Y118609D01*
X685391Y119734D01*
X686000Y121204D01*
X686372Y122878D01*
X688046Y123250D01*
X689516Y123859D01*
X690641Y124984D01*
X691250Y126454D01*
Y128046D01*
X690641Y129516D01*
X689516Y130641D01*
X688046Y131250D01*
X686454D01*
X684984Y130641D01*
X684639Y130296D01*
X679229Y135705D01*
X679027Y136008D01*
X676912Y138123D01*
X680210Y141422D01*
X680787Y141998D01*
X682071Y143967D01*
X683975Y145871D01*
X677423Y152423D01*
X670871Y158975D01*
X668967Y157071D01*
X666998Y155787D01*
X666422Y155210D01*
X663123Y151912D01*
X656955Y158080D01*
X656955Y158080D01*
X651103Y163933D01*
X654401Y167231D01*
X654978Y167808D01*
X656261Y169776D01*
X658165Y171680D01*
X650907Y178939D01*
X643647Y186198D01*
D02*
G37*
G36*
X340703Y151848D02*
X333444Y144589D01*
X326185Y137330D01*
X328089Y135426D01*
X329373Y133457D01*
X329949Y132881D01*
X333248Y129582D01*
X328731Y125065D01*
X328731Y125065D01*
X321227Y117562D01*
X317929Y120860D01*
X317352Y121437D01*
X315384Y122720D01*
X313480Y124624D01*
X306928Y118072D01*
X300376Y111520D01*
X302280Y109616D01*
X303563Y107648D01*
X306122Y105090D01*
X306167Y102602D01*
X299611Y96046D01*
X299266Y96391D01*
X297796Y97000D01*
X296204D01*
X294734Y96391D01*
X293609Y95266D01*
X293000Y93796D01*
Y92204D01*
X293609Y90734D01*
X294734Y89609D01*
X296204Y89000D01*
X297878Y88628D01*
X298250Y86954D01*
X298859Y85484D01*
X299984Y84359D01*
X301454Y83750D01*
X303046D01*
X304516Y84359D01*
X305641Y85484D01*
X306250Y86954D01*
Y88546D01*
X305641Y90016D01*
X305296Y90361D01*
X310706Y95771D01*
X311008Y95973D01*
X313123Y98088D01*
X316422Y94790D01*
X316998Y94213D01*
X318967Y92929D01*
X320870Y91026D01*
X327422Y97578D01*
X333974Y104130D01*
X332071Y106033D01*
X330787Y108002D01*
X330210Y108578D01*
X326912Y111877D01*
X333471Y118436D01*
X333471Y118436D01*
X338933Y123897D01*
X342231Y120599D01*
X342808Y120022D01*
X344776Y118739D01*
X346680Y116834D01*
X353940Y124094D01*
X361198Y131353D01*
X359294Y133257D01*
X358011Y135225D01*
X357434Y135802D01*
X350939Y142296D01*
X345152Y148084D01*
X344576Y148660D01*
X342607Y149944D01*
X340703Y151848D01*
D02*
G37*
G36*
X537161Y122353D02*
X534272Y119465D01*
X537009Y116728D01*
X539897Y119617D01*
X537161Y122353D01*
D02*
G37*
G36*
X540616Y118898D02*
X537727Y116010D01*
X540465Y113272D01*
X543353Y116161D01*
X540616Y118898D01*
D02*
G37*
G36*
X383130Y109421D02*
X376230Y102521D01*
X378710Y100041D01*
X385610Y106941D01*
X383130Y109421D01*
D02*
G37*
G36*
X622433Y164985D02*
X620530Y163081D01*
X618562Y161797D01*
X617985Y161221D01*
X612198Y155433D01*
X611491Y154726D01*
X605703Y148939D01*
X605126Y148362D01*
X603843Y146394D01*
X601939Y144490D01*
X609198Y137231D01*
X616457Y129972D01*
X618361Y131876D01*
X620329Y133160D01*
X620906Y133736D01*
X624375Y137206D01*
X636396Y125185D01*
X632927Y121715D01*
X632350Y121139D01*
X631066Y119171D01*
X629162Y117267D01*
X635714Y110715D01*
X642267Y104163D01*
X644171Y106066D01*
X646139Y107350D01*
X648500Y109711D01*
X648994Y109861D01*
X651866Y109542D01*
X657875Y103532D01*
X657359Y103016D01*
X656750Y101546D01*
Y99954D01*
X657359Y98484D01*
X658484Y97359D01*
X659954Y96750D01*
X661546D01*
X663016Y97359D01*
X664141Y98484D01*
X664750Y99954D01*
X665122Y101628D01*
X666796Y102000D01*
X668266Y102609D01*
X669391Y103734D01*
X670000Y105204D01*
Y106796D01*
X669391Y108266D01*
X668266Y109391D01*
X666796Y110000D01*
X665204D01*
X663734Y109391D01*
X663218Y108875D01*
X657448Y114645D01*
X657097Y115169D01*
X655527Y116739D01*
X658997Y120209D01*
X659574Y120785D01*
X660857Y122753D01*
X662761Y124657D01*
X656209Y131209D01*
X649657Y137761D01*
X647753Y135857D01*
X645785Y134574D01*
X645209Y133997D01*
X641739Y130527D01*
X629718Y142548D01*
X633188Y146018D01*
X633764Y146594D01*
X635048Y148563D01*
X636952Y150466D01*
X629693Y157725D01*
X622433Y164985D01*
D02*
G37*
G36*
X361917Y130634D02*
X354658Y123376D01*
X347398Y116116D01*
X349302Y114212D01*
X350586Y112244D01*
X351163Y111667D01*
X354461Y108369D01*
X342440Y96348D01*
X339142Y99647D01*
X338565Y100223D01*
X336597Y101507D01*
X334693Y103411D01*
X328140Y96859D01*
X321589Y90307D01*
X323493Y88403D01*
X324776Y86435D01*
X327335Y83876D01*
X327380Y81389D01*
X320824Y74833D01*
X320479Y75178D01*
X319009Y75787D01*
X317418D01*
X315947Y75178D01*
X314822Y74053D01*
X314213Y72582D01*
Y70991D01*
X314822Y69521D01*
X315947Y68396D01*
X317418Y67787D01*
X319091Y67415D01*
X319463Y65741D01*
X320072Y64271D01*
X321197Y63146D01*
X322668Y62537D01*
X324259D01*
X325729Y63146D01*
X326854Y64271D01*
X327463Y65741D01*
Y67332D01*
X326854Y68803D01*
X326509Y69148D01*
X331919Y74558D01*
X332221Y74759D01*
X334337Y76875D01*
X337635Y73576D01*
X338212Y73000D01*
X340180Y71716D01*
X342084Y69812D01*
X348636Y76364D01*
X355188Y82916D01*
X353284Y84820D01*
X352000Y86788D01*
X351423Y87365D01*
X348125Y90663D01*
X360146Y102684D01*
X363444Y99386D01*
X364021Y98809D01*
X365989Y97526D01*
X367893Y95622D01*
X375152Y102880D01*
X382411Y110140D01*
X380508Y112044D01*
X379224Y114012D01*
X378647Y114589D01*
X372860Y120376D01*
X372153Y121083D01*
X366365Y126870D01*
X365789Y127447D01*
X363820Y128731D01*
X361917Y130634D01*
D02*
G37*
G36*
X375511Y101803D02*
X368611Y94903D01*
X371092Y92423D01*
X377992Y99322D01*
X375511Y101803D01*
D02*
G37*
G36*
X355906Y82198D02*
X349714Y76005D01*
X352194Y73525D01*
X358387Y79717D01*
X355906Y82198D01*
D02*
G37*
G36*
X160799Y79016D02*
X159201D01*
X157725Y78405D01*
X156595Y77275D01*
X155984Y75799D01*
Y74201D01*
X156595Y72725D01*
X157725Y71595D01*
X159201Y70984D01*
X160799D01*
X162275Y71595D01*
X163405Y72725D01*
X164016Y74201D01*
Y75799D01*
X163405Y77275D01*
X162275Y78405D01*
X160799Y79016D01*
D02*
G37*
G36*
X348995Y75287D02*
X342802Y69094D01*
X345283Y66613D01*
X351476Y72806D01*
X348995Y75287D01*
D02*
G37*
%LPD*%
G36*
X79227Y332668D02*
X80892Y331004D01*
Y328504D01*
X49556Y297168D01*
X47056Y298204D01*
Y302996D01*
X76727Y332668D01*
X79227Y332668D01*
D02*
G37*
G36*
X85172Y325597D02*
X86816Y325079D01*
X87445Y324451D01*
X87838Y323202D01*
X87863Y321334D01*
X54556Y288026D01*
X52056Y289061D01*
Y293854D01*
X83799Y325597D01*
X85172D01*
D02*
G37*
G36*
X93887Y318008D02*
X94897Y316998D01*
X94934Y314263D01*
X59556Y278884D01*
X57056Y279919D01*
Y284712D01*
X90770Y318427D01*
X93887Y318008D01*
D02*
G37*
G36*
X156595Y177725D02*
X157725Y176595D01*
X159201Y175984D01*
X160799D01*
X162275Y176595D01*
X162444Y176765D01*
X164944Y175729D01*
Y172851D01*
X161018Y168925D01*
X160799Y169016D01*
X159201D01*
X157725Y168405D01*
X156595Y167275D01*
X156297Y166556D01*
X154000D01*
X154000Y166556D01*
X153213Y166399D01*
X152547Y165954D01*
X152547Y165953D01*
X95359Y108766D01*
X90234Y108766D01*
X87734Y108766D01*
X81734D01*
Y107056D01*
X73478D01*
X73391Y107266D01*
X72266Y108391D01*
X70796Y109000D01*
X69204D01*
X67734Y108391D01*
X66609Y107266D01*
X66522Y107056D01*
X58266D01*
Y108766D01*
X50234Y108766D01*
X47734Y108766D01*
X42056D01*
Y148649D01*
X44641Y151234D01*
X49766Y151234D01*
X52266Y151234D01*
X58266D01*
Y152944D01*
X66522D01*
X66609Y152734D01*
X67734Y151609D01*
X69204Y151000D01*
X70796D01*
X72266Y151609D01*
X73391Y152734D01*
X73478Y152944D01*
X81734D01*
Y151234D01*
X89766Y151234D01*
X92266Y151234D01*
X98266D01*
Y156109D01*
X111453Y169296D01*
X111454Y169296D01*
X111899Y169963D01*
X112056Y170750D01*
X112056Y170750D01*
Y177945D01*
X156504D01*
X156595Y177725D01*
D02*
G37*
G36*
X891734Y151234D02*
X899766Y151234D01*
X902266Y151234D01*
X905109D01*
X912944Y143399D01*
Y105851D01*
X910766Y103673D01*
X908266Y104708D01*
Y108766D01*
X902266D01*
X900234Y108766D01*
Y108766D01*
X899766D01*
Y108766D01*
X891734D01*
Y107056D01*
X883478D01*
X883391Y107266D01*
X882266Y108391D01*
X880796Y109000D01*
X879204D01*
X877734Y108391D01*
X876609Y107266D01*
X876522Y107056D01*
X868266D01*
Y108766D01*
X860234Y108766D01*
X857734Y108766D01*
X854641D01*
X833953Y129453D01*
X833287Y129899D01*
X832500Y130056D01*
X832500Y130056D01*
X796856D01*
X795520Y132556D01*
X795780Y132944D01*
X835500D01*
X835500Y132944D01*
X836287Y133101D01*
X836954Y133546D01*
X854641Y151234D01*
X859766Y151234D01*
X862266Y151234D01*
X868266D01*
Y152944D01*
X876522D01*
X876609Y152734D01*
X877734Y151609D01*
X879204Y151000D01*
X880796D01*
X882266Y151609D01*
X883391Y152734D01*
X883478Y152944D01*
X891734D01*
Y151234D01*
D02*
G37*
G36*
X851734Y105859D02*
Y101234D01*
X859766Y101234D01*
X862266Y101234D01*
X868266D01*
Y102944D01*
X876522D01*
X876609Y102734D01*
X877734Y101609D01*
X879204Y101000D01*
X880796D01*
X882266Y101609D01*
X883391Y102734D01*
X883478Y102944D01*
X891734D01*
Y101234D01*
X894412D01*
X895368Y98924D01*
X888500Y92056D01*
X793495D01*
X793405Y92275D01*
X792275Y93405D01*
X790799Y94016D01*
X789201D01*
X787725Y93405D01*
X786595Y92275D01*
X785984Y90799D01*
Y89201D01*
X786075Y88982D01*
X778117Y81024D01*
X772466D01*
X771430Y83524D01*
X788982Y101075D01*
X789201Y100984D01*
X790799D01*
X792275Y101595D01*
X793405Y102725D01*
X794016Y104201D01*
Y105799D01*
X793405Y107275D01*
X792275Y108405D01*
X790799Y109016D01*
X789201D01*
X787725Y108405D01*
X786595Y107275D01*
X785984Y105799D01*
Y104201D01*
X786075Y103982D01*
X767149Y85056D01*
X761498D01*
X760462Y87556D01*
X788982Y116075D01*
X789201Y115984D01*
X790799D01*
X792275Y116595D01*
X793405Y117725D01*
X794016Y119201D01*
Y120799D01*
X793405Y122275D01*
X792275Y123405D01*
X792179Y123444D01*
X792676Y125944D01*
X831649D01*
X851734Y105859D01*
D02*
G37*
D13*
X624316Y78968D02*
X778968D01*
X768000Y83000D02*
X790000Y105000D01*
X614142Y89142D02*
X624316Y78968D01*
X614253Y75000D02*
X790000D01*
X621213Y96213D02*
X634426Y83000D01*
X768000D01*
X607071Y82071D02*
X607182D01*
X614253Y75000D01*
X644568Y87000D02*
X757000D01*
X628284Y103284D02*
X644568Y87000D01*
X757000D02*
X790000Y120000D01*
X440000Y555000D02*
X465858Y529142D01*
Y493589D02*
Y529142D01*
X460858Y488640D02*
Y519142D01*
X440000Y540000D02*
X460858Y519142D01*
X455858Y483740D02*
Y509142D01*
X440000Y525000D02*
X455858Y509142D01*
X450908Y478740D02*
Y499092D01*
X440000Y510000D02*
X450908Y499092D01*
X593422Y450422D02*
X598672D01*
X565000Y442778D02*
X590043D01*
X592265Y445000D01*
X598672Y450422D02*
X600000Y451750D01*
X592265Y445000D02*
X642500D01*
X588794Y445794D02*
X593422Y450422D01*
X539206Y445794D02*
X588794D01*
X880000Y155000D02*
X895750D01*
X864250D02*
X880000D01*
X70000Y155000D02*
X85750D01*
X54250D02*
X70000D01*
X880000Y105000D02*
X895750D01*
X864250D02*
X880000D01*
X70000D02*
X85750D01*
X54250D02*
X70000D01*
X40000Y100000D02*
Y149500D01*
X45500Y155000D01*
X40000Y100000D02*
X49000Y91000D01*
X45500Y155000D02*
X45750D01*
X49000Y91000D02*
X152000D01*
X158500Y97500D01*
X163500D01*
X169000Y103000D01*
Y111000D01*
X160000Y120000D02*
X169000Y111000D01*
X50000Y96000D02*
X151000D01*
X160000Y105000D01*
X45750Y100250D02*
X50000Y96000D01*
X45750Y100250D02*
Y105000D01*
X154000Y164500D02*
X159500D01*
X94500Y105000D02*
X154000Y164500D01*
X159500D02*
X160000Y165000D01*
X94250Y105000D02*
X94500D01*
X96250Y156750D02*
Y157000D01*
X110000Y170750D02*
Y180000D01*
X94250Y155000D02*
X94500D01*
X96250Y156750D01*
Y157000D02*
X110000Y170750D01*
Y180000D02*
X160000D01*
X580555Y108588D02*
X607071Y82071D01*
X587626Y115659D02*
X614142Y89142D01*
Y89142D02*
Y89142D01*
X594697Y122730D02*
X621213Y96213D01*
X601768Y129801D02*
X628284Y103284D01*
X777145Y305429D02*
X803661Y278912D01*
X770074Y298358D02*
X796590Y271841D01*
X789519Y264770D02*
X789519D01*
X763002Y291287D02*
X789519Y264770D01*
X755931Y284216D02*
X782448Y257699D01*
X782000Y130000D02*
X784000Y128000D01*
X782000Y142000D02*
X790000Y150000D01*
X782000Y130000D02*
Y142000D01*
X784000Y128000D02*
X832500D01*
X855500Y105000D01*
X855750D01*
X915000D02*
Y144250D01*
X895000Y85000D02*
X915000Y105000D01*
X906250Y153000D02*
X915000Y144250D01*
X800000Y85000D02*
X895000D01*
X790000Y75000D02*
X800000Y85000D01*
X904250Y155000D02*
X904500D01*
X906250Y153000D02*
Y153250D01*
X904500Y155000D02*
X906250Y153250D01*
X889351Y90000D02*
X902250Y102899D01*
X790000Y90000D02*
X889351D01*
X902250Y102899D02*
Y103250D01*
X904000Y105000D01*
X904250D01*
X790000Y135000D02*
X835500D01*
X855500Y155000D01*
X855750D01*
X554903Y422879D02*
X555185Y422597D01*
X560403D01*
X545054Y432828D02*
X562172D01*
X545004Y432778D02*
X545054Y432828D01*
X540054Y437778D02*
X562222D01*
X535104Y442728D02*
X535154Y442778D01*
X565000D01*
X405000Y435000D02*
X425000Y415000D01*
X410000Y440000D02*
X430000Y420000D01*
Y380000D02*
Y420000D01*
X115000Y197000D02*
X168000D01*
X113000Y192000D02*
X166000D01*
X172000Y186000D01*
X111000Y187000D02*
X164000D01*
X60000Y252000D02*
Y276421D01*
X104289Y320711D01*
X60000Y252000D02*
X115000Y197000D01*
X168000D02*
X177000Y188000D01*
Y152000D02*
Y188000D01*
X160000Y135000D02*
X177000Y152000D01*
X55000Y250000D02*
Y285564D01*
X97218Y327782D01*
X55000Y250000D02*
X113000Y192000D01*
X172000Y162000D02*
Y186000D01*
X167000Y172000D02*
Y184000D01*
X164000Y187000D02*
X167000Y184000D01*
X160000Y150000D02*
X172000Y162000D01*
X50000Y294706D02*
X90147Y334853D01*
X50000Y248000D02*
Y294706D01*
Y248000D02*
X111000Y187000D01*
X160000Y165000D02*
X167000Y172000D01*
X45000Y245000D02*
Y303848D01*
X83076Y341924D01*
X45000Y245000D02*
X110000Y180000D01*
X778968Y78968D02*
X790000Y90000D01*
X435225Y389775D02*
X440000Y385000D01*
X415000Y445000D02*
X435225Y424775D01*
Y389775D02*
Y424775D01*
X425000Y370000D02*
Y415000D01*
Y370000D02*
X440000Y355000D01*
X430000Y380000D02*
X440000Y370000D01*
X565000Y440000D02*
X600000Y405000D01*
X565000Y440000D02*
Y442778D01*
X600000Y405000D02*
X605000D01*
X587000Y363000D02*
Y396000D01*
Y363000D02*
X605000Y345000D01*
X591000Y374000D02*
Y398000D01*
Y374000D02*
X605000Y360000D01*
X560403Y422597D02*
X587000Y396000D01*
X595000Y385000D02*
Y395000D01*
Y385000D02*
X605000Y375000D01*
X561121Y427879D02*
X591000Y398000D01*
X550004Y427879D02*
X561121D01*
X549953Y427828D02*
X550004Y427879D01*
X562172Y432828D02*
X595016Y399984D01*
Y395016D02*
Y399984D01*
X595000Y395000D02*
X595016Y395016D01*
X562222Y437778D02*
X605000Y395000D01*
Y390000D02*
Y395000D01*
X455858Y483740D02*
X455908Y483690D01*
X531000Y454000D02*
X539206Y445794D01*
X424000Y454000D02*
X531000D01*
X420000Y450000D02*
X424000Y454000D01*
X642500Y445000D02*
X649250Y451750D01*
X650000D01*
Y463750D01*
X600000Y451750D02*
Y463750D01*
X278284Y146716D02*
X304801Y173232D01*
X271213Y153787D02*
X297730Y180303D01*
X290659Y187374D02*
Y187374D01*
X264142Y160858D02*
Y160858D01*
X290659Y187374D01*
X257071Y167929D02*
X283587Y194445D01*
X104289Y320711D02*
X130806Y347227D01*
X130806D01*
X97218Y327782D02*
X123735Y354298D01*
X90147Y334853D02*
X116664Y361369D01*
X109593Y368440D02*
X109593D01*
X83076Y341924D02*
X109593Y368440D01*
D18*
X285000Y590000D02*
D03*
X375000D02*
D03*
X285000Y700000D02*
D03*
X375000D02*
D03*
X665000Y590000D02*
D03*
X575000D02*
D03*
X665000Y700000D02*
D03*
X575000D02*
D03*
D19*
X253000Y700000D02*
D03*
X187000D02*
D03*
Y590000D02*
D03*
X253000D02*
D03*
X763000D02*
D03*
X697000Y590000D02*
D03*
X763000Y700000D02*
D03*
X697000D02*
D03*
D20*
X864250Y155000D02*
D03*
X855750D02*
D03*
X895750D02*
D03*
X904250D02*
D03*
X45750Y155000D02*
D03*
X54250D02*
D03*
X94250D02*
D03*
X85750D02*
D03*
X45750Y105000D02*
D03*
X54250D02*
D03*
X855750D02*
D03*
X864250D02*
D03*
X94250D02*
D03*
X85750D02*
D03*
X904250D02*
D03*
X895750D02*
D03*
X351500Y210000D02*
D03*
X360000D02*
D03*
D21*
X763258Y657500D02*
D03*
X746742D02*
D03*
X763258Y632500D02*
D03*
X746742D02*
D03*
X186742D02*
D03*
X203258D02*
D03*
X186742Y657500D02*
D03*
X203258D02*
D03*
D22*
X352140Y458764D02*
D03*
X346130Y464775D02*
D03*
X362040Y468664D02*
D03*
X356029Y474674D02*
D03*
X391738Y498362D02*
D03*
X385728Y504373D02*
D03*
X524005Y149995D02*
D03*
X517995Y156005D02*
D03*
X700505Y326995D02*
D03*
X694495Y333005D02*
D03*
D23*
X356358Y440708D02*
D03*
X363125Y447476D02*
D03*
X433685Y489751D02*
D03*
X426917Y482983D02*
D03*
X394238Y450304D02*
D03*
X387470Y443536D02*
D03*
X380085Y464446D02*
D03*
X373317Y457678D02*
D03*
X370500Y426566D02*
D03*
X377268Y433334D02*
D03*
X563702Y379342D02*
D03*
X570470Y386110D02*
D03*
X549549Y393483D02*
D03*
X556317Y400251D02*
D03*
X410108Y466164D02*
D03*
X416876Y472932D02*
D03*
X419391Y503741D02*
D03*
X412623Y496973D02*
D03*
X395956Y480306D02*
D03*
X402724Y487074D02*
D03*
X527616Y132616D02*
D03*
X534384Y139384D02*
D03*
X540616Y119616D02*
D03*
X547384Y126384D02*
D03*
X704116Y309116D02*
D03*
X710884Y315884D02*
D03*
X716616Y296616D02*
D03*
X723384Y303384D02*
D03*
D24*
X546569Y459497D02*
D03*
X553337Y452729D02*
D03*
X560712Y473639D02*
D03*
X567479Y466871D02*
D03*
X536367Y469699D02*
D03*
X529599Y476467D02*
D03*
X550509Y483841D02*
D03*
X543741Y490609D02*
D03*
X512628Y493438D02*
D03*
X519396Y486670D02*
D03*
X526770Y507580D02*
D03*
X533538Y500812D02*
D03*
D25*
X575000Y364250D02*
D03*
Y355750D02*
D03*
X176000Y361250D02*
D03*
Y352750D02*
D03*
D26*
X578061Y477149D02*
D03*
X584071Y483159D02*
D03*
X554019Y501191D02*
D03*
X560030Y507201D02*
D03*
D27*
X491264Y494477D02*
D03*
X482425Y485638D02*
D03*
D28*
X600000Y75000D02*
D03*
X607071Y82071D02*
D03*
X614142Y89142D02*
D03*
X621213Y96213D02*
D03*
X628284Y103284D02*
D03*
X635355Y110355D02*
D03*
X642426Y117426D02*
D03*
X649498Y124497D02*
D03*
X656569Y131568D02*
D03*
X663640Y138640D02*
D03*
X670711Y145711D02*
D03*
X677782Y152782D02*
D03*
X684853Y159853D02*
D03*
X691924Y166924D02*
D03*
X698995Y173995D02*
D03*
X775377Y250628D02*
D03*
X782448Y257699D02*
D03*
X789519Y264770D02*
D03*
X796590Y271841D02*
D03*
X803661Y278912D02*
D03*
X810732Y285984D02*
D03*
X817803Y293055D02*
D03*
X824874Y300126D02*
D03*
X831945Y307197D02*
D03*
X839016Y314268D02*
D03*
X846087Y321339D02*
D03*
X853159Y328410D02*
D03*
X860230Y335481D02*
D03*
X867301Y342552D02*
D03*
X874372Y349623D02*
D03*
D29*
X573484Y101517D02*
D03*
X580555Y108588D02*
D03*
X587626Y115659D02*
D03*
X594697Y122730D02*
D03*
X601768Y129801D02*
D03*
X608839Y136872D02*
D03*
X615910Y143943D02*
D03*
X622981Y151014D02*
D03*
X630052Y158085D02*
D03*
X637123Y165156D02*
D03*
X644194Y172227D02*
D03*
X651265Y179298D02*
D03*
X658336Y186369D02*
D03*
X665407Y193440D02*
D03*
X672478Y200511D02*
D03*
X748860Y277145D02*
D03*
X755931Y284216D02*
D03*
X763002Y291287D02*
D03*
X770074Y298358D02*
D03*
X777145Y305429D02*
D03*
X784216Y312500D02*
D03*
X791287Y319571D02*
D03*
X798358Y326642D02*
D03*
X805429Y333713D02*
D03*
X812500Y340784D02*
D03*
X819571Y347855D02*
D03*
X826642Y354926D02*
D03*
X833713Y361997D02*
D03*
X840784Y369068D02*
D03*
X847855Y376140D02*
D03*
D30*
X833335Y860000D02*
D03*
X806665D02*
D03*
D31*
X762500Y767500D02*
D03*
X712500D02*
D03*
X187500D02*
D03*
X237500D02*
D03*
D32*
X76005Y348995D02*
D03*
X83076Y341924D02*
D03*
X90147Y334853D02*
D03*
X97218Y327782D02*
D03*
X104289Y320711D02*
D03*
X111360Y313640D02*
D03*
X118431Y306569D02*
D03*
X125503Y299497D02*
D03*
X132573Y292426D02*
D03*
X139645Y285355D02*
D03*
X146716Y278284D02*
D03*
X153787Y271213D02*
D03*
X160858Y264142D02*
D03*
X167929Y257071D02*
D03*
X175000Y250000D02*
D03*
X250000Y175000D02*
D03*
X257071Y167929D02*
D03*
X264142Y160858D02*
D03*
X271213Y153787D02*
D03*
X278284Y146716D02*
D03*
X285355Y139645D02*
D03*
X292426Y132573D02*
D03*
X299498Y125503D02*
D03*
X306569Y118431D02*
D03*
X313640Y111360D02*
D03*
X320711Y104289D02*
D03*
X327782Y97218D02*
D03*
X334853Y90147D02*
D03*
X341924Y83076D02*
D03*
X348995Y76005D02*
D03*
D33*
X102521Y375511D02*
D03*
X109593Y368440D02*
D03*
X116664Y361369D02*
D03*
X123735Y354298D02*
D03*
X130806Y347227D02*
D03*
X137877Y340156D02*
D03*
X144948Y333085D02*
D03*
X152019Y326014D02*
D03*
X159090Y318943D02*
D03*
X166161Y311872D02*
D03*
X173232Y304801D02*
D03*
X180303Y297730D02*
D03*
X187374Y290659D02*
D03*
X194445Y283587D02*
D03*
X201516Y276516D02*
D03*
X276516Y201516D02*
D03*
X283587Y194445D02*
D03*
X290659Y187374D02*
D03*
X297730Y180303D02*
D03*
X304801Y173232D02*
D03*
X311872Y166161D02*
D03*
X318943Y159090D02*
D03*
X326014Y152019D02*
D03*
X333085Y144948D02*
D03*
X340156Y137877D02*
D03*
X347227Y130806D02*
D03*
X354298Y123735D02*
D03*
X361369Y116664D02*
D03*
X368440Y109593D02*
D03*
X375511Y102521D02*
D03*
D34*
X160000Y375214D02*
D03*
Y384786D02*
D03*
X140000Y375214D02*
D03*
Y384786D02*
D03*
X335000Y200214D02*
D03*
Y209786D02*
D03*
X315000Y200214D02*
D03*
Y209786D02*
D03*
D35*
X600000Y463750D02*
D03*
Y476250D02*
D03*
X650000Y463750D02*
D03*
Y476250D02*
D03*
D36*
X600000Y438250D02*
D03*
Y451750D02*
D03*
X650000Y438250D02*
D03*
Y451750D02*
D03*
D37*
X259500Y447000D02*
D03*
Y470000D02*
D03*
Y493000D02*
D03*
Y367000D02*
D03*
Y390000D02*
D03*
Y413000D02*
D03*
D38*
X200500Y470000D02*
D03*
Y390000D02*
D03*
D39*
X300000Y451981D02*
D03*
Y468019D02*
D03*
Y371981D02*
D03*
Y388019D02*
D03*
D40*
X295214Y493000D02*
D03*
X304786D02*
D03*
X295214Y413000D02*
D03*
X304786Y413000D02*
D03*
D58*
X50000Y783200D02*
D03*
Y757800D02*
D03*
Y732400D02*
D03*
Y707000D02*
D03*
Y681600D02*
D03*
Y656200D02*
D03*
Y630800D02*
D03*
Y605400D02*
D03*
D59*
Y580000D02*
D03*
D60*
X890000Y640000D02*
D03*
X838000Y605000D02*
D03*
Y735000D02*
D03*
X890000Y770000D02*
D03*
X838000Y475000D02*
D03*
X890000Y510000D02*
D03*
D64*
X790000Y120000D02*
D03*
Y180000D02*
D03*
Y105000D02*
D03*
Y165000D02*
D03*
Y90000D02*
D03*
Y150000D02*
D03*
Y75000D02*
D03*
Y135000D02*
D03*
X160000D02*
D03*
Y75000D02*
D03*
Y150000D02*
D03*
Y90000D02*
D03*
Y165000D02*
D03*
Y105000D02*
D03*
Y180000D02*
D03*
Y120000D02*
D03*
X440000Y525000D02*
D03*
X605000Y360000D02*
D03*
X440000Y540000D02*
D03*
X605000Y345000D02*
D03*
X440000Y555000D02*
D03*
Y355000D02*
D03*
X605000Y405000D02*
D03*
X440000Y370000D02*
D03*
X605000Y390000D02*
D03*
X440000Y385000D02*
D03*
X605000Y375000D02*
D03*
X440000Y510000D02*
D03*
X605000Y420000D02*
D03*
D65*
X302955Y133897D02*
X316913Y147854D01*
X302955Y132638D02*
Y133897D01*
Y132638D02*
X303210Y132383D01*
Y129215D02*
Y132383D01*
X299498Y125503D02*
X303210Y129215D01*
X296139Y136286D02*
X299307D01*
X299562Y136031D02*
X300820D01*
X321595Y147600D02*
X326014Y152019D01*
X314778Y149989D02*
Y151247D01*
X318171Y147854D02*
X318426Y147600D01*
X314524Y151502D02*
Y154671D01*
X292426Y132573D02*
X296139Y136286D01*
X299307D02*
X299562Y136031D01*
X300820D02*
X314778Y149989D01*
X318426Y147600D02*
X321595D01*
X314524Y151502D02*
X314778Y151247D01*
X316913Y147854D02*
X318171D01*
X314524Y154671D02*
X318943Y159090D01*
X241749Y118981D02*
X288040D01*
X291103Y122045D01*
X286789Y122000D02*
X288969Y124180D01*
X243000Y122000D02*
X286789D01*
X292362Y122045D02*
X292617Y121790D01*
X295785D02*
X299498Y125503D01*
X291103Y122045D02*
X292362D01*
X288714Y128861D02*
X292426Y132573D01*
X288714Y125693D02*
Y128861D01*
Y125693D02*
X288969Y125438D01*
Y124180D02*
Y125438D01*
X292617Y121790D02*
X295785D01*
X223000Y142000D02*
Y186000D01*
Y142000D02*
X243000Y122000D01*
X219981Y140750D02*
X241749Y118981D01*
X219981Y140750D02*
Y187250D01*
X223000Y186000D02*
X261865Y224865D01*
X219981Y187250D02*
X260615Y227884D01*
X367750D01*
X388732Y243339D02*
X391536Y240536D01*
X369000Y224865D02*
X387474Y243339D01*
X388732D01*
X261865Y224865D02*
X369000D01*
X382536Y249536D02*
X385339Y246732D01*
Y245474D02*
Y246732D01*
X367750Y227884D02*
X385339Y245474D01*
X391536Y240536D02*
Y240536D01*
X107005Y282995D02*
X107307Y283297D01*
Y286413D01*
X102057Y288547D02*
X105173D01*
X101755Y288245D02*
X102057Y288547D01*
X107307Y286413D02*
X113838Y292943D01*
X147600Y321595D02*
X152019Y326014D01*
X142918Y321849D02*
X144176D01*
X128960Y307891D02*
X142918Y321849D01*
X144431Y321595D02*
X147600D01*
X128960Y306633D02*
X129215Y306378D01*
X144176Y321849D02*
X144431Y321595D01*
X129215Y303210D02*
Y306378D01*
X125503Y299497D02*
X129215Y303210D01*
X125567Y310026D02*
X126825D01*
X125312Y310281D02*
X125567Y310026D01*
X128960Y306633D02*
Y307891D01*
X140528Y325497D02*
X140783Y325242D01*
X140528Y328666D02*
X144948Y333085D01*
X118431Y306569D02*
X122144Y310281D01*
X125312D01*
X140783Y323984D02*
Y325242D01*
X126825Y310026D02*
X140783Y323984D01*
X140528Y325497D02*
Y328666D01*
X118622Y295785D02*
X121790D01*
X118367Y296040D02*
X118622Y295785D01*
X114012Y292943D02*
X117109Y296040D01*
X113838Y292943D02*
X114012D01*
X112588Y295963D02*
X112762D01*
X114974Y298175D02*
Y299433D01*
X114719Y299688D02*
Y302856D01*
X117109Y296040D02*
X118367D01*
X105173Y288547D02*
X112588Y295963D01*
X112762D02*
X114974Y298175D01*
X121790Y295785D02*
X125503Y299497D01*
X114719Y299688D02*
X114974Y299433D01*
X114719Y302856D02*
X118431Y306569D01*
D66*
X698303Y277260D02*
X698303D01*
X751698Y223865D01*
X650189Y325374D02*
X698303Y277260D01*
X699438Y279999D02*
X699438D01*
X752218Y227219D01*
X652126Y327311D02*
X699438Y279999D01*
X627059Y141802D02*
Y143230D01*
Y141802D02*
X640992Y127869D01*
X642420D01*
X645785Y128210D02*
X649498Y124497D01*
X639055Y124504D02*
Y125932D01*
X638714Y121139D02*
Y124163D01*
X642420Y127869D02*
X642761Y128210D01*
X623694Y139865D02*
X625122D01*
X627059Y143230D02*
X627400Y143571D01*
X620329Y139523D02*
X623353D01*
X638714Y124163D02*
X639055Y124504D01*
X642761Y128210D02*
X645785D01*
X625122Y139865D02*
X639055Y125932D01*
X638714Y121139D02*
X642426Y117426D01*
X627400Y143571D02*
Y146594D01*
X623353Y139523D02*
X623694Y139865D01*
X622981Y151014D02*
X627400Y146594D01*
X615910Y143943D02*
X620329Y139523D01*
X662471Y106216D02*
X665784D01*
X652869Y115992D02*
X655395Y113466D01*
X665784Y106216D02*
X666000Y106000D01*
X660534Y100966D02*
Y104279D01*
X652655Y112158D02*
X660534Y104279D01*
X653210Y117761D02*
Y120785D01*
X652655Y112158D02*
Y112332D01*
X652869Y115992D02*
Y117420D01*
X649504Y114055D02*
X650931D01*
X652655Y112332D01*
X649163Y113714D02*
X649504Y114055D01*
X660534Y100966D02*
X660750Y100750D01*
X652869Y117420D02*
X653210Y117761D01*
X649498Y124497D02*
X653210Y120785D01*
X646139Y113714D02*
X649163D01*
X655395Y113292D02*
X662471Y106216D01*
X655395Y113292D02*
Y113466D01*
X642426Y117426D02*
X646139Y113714D01*
X802777Y319199D02*
Y322223D01*
X802436Y317430D02*
Y318858D01*
X817797Y303497D02*
X818138Y303838D01*
X816369Y303497D02*
X817797D01*
X798730Y315152D02*
X799071Y315493D01*
X791287Y319571D02*
X795706Y315152D01*
X814091Y296767D02*
X817803Y293055D01*
X821162Y303838D02*
X824874Y300126D01*
X802436Y318858D02*
X802777Y319199D01*
X814091Y296767D02*
Y299791D01*
X798358Y326642D02*
X802777Y322223D01*
X814091Y299791D02*
X814432Y300132D01*
X802436Y317430D02*
X816369Y303497D01*
X814432Y300132D02*
Y301560D01*
X818138Y303838D02*
X821162D01*
X800499Y315493D02*
X814432Y301560D01*
X799071Y315493D02*
X800499D01*
X795706Y315152D02*
X798730D01*
X824874Y300126D02*
X828587Y296413D01*
Y293389D02*
Y296413D01*
X828246Y293048D02*
X828587Y293389D01*
X824539Y289342D02*
X824881Y289683D01*
X817803Y293055D02*
X821516Y289342D01*
X828246Y291621D02*
X840075Y279791D01*
X826308Y289683D02*
X837336Y278656D01*
X821516Y289342D02*
X824539D01*
X837336Y257335D02*
Y278656D01*
X840075Y256201D02*
Y279791D01*
X828246Y291621D02*
Y293048D01*
X824881Y289683D02*
X826308D01*
X805000Y225000D02*
X837336Y257335D01*
X806135Y222260D02*
X840075Y256201D01*
X753302Y222260D02*
X806135D01*
X754437Y225000D02*
X805000D01*
X752218Y227219D02*
X754437Y225000D01*
X751698Y223865D02*
Y223865D01*
Y223865D02*
X753302Y222260D01*
X652126Y327311D02*
Y334197D01*
X643038Y325462D02*
X643126Y325374D01*
X650189D01*
X652126Y334197D02*
X652214Y334286D01*
X856517Y339193D02*
X860230Y335481D01*
X863942Y331769D01*
X860395Y346094D02*
X860564Y346264D01*
X863588D01*
X867301Y342552D01*
X856517Y339193D02*
Y342217D01*
X856687Y342387D02*
Y343815D01*
X845034Y360027D02*
X858967Y346094D01*
X841327Y357748D02*
X842754D01*
X845034Y361455D02*
X845204Y361625D01*
X838133Y357578D02*
X841157D01*
X840784Y369068D02*
X845204Y364649D01*
X856517Y342217D02*
X856687Y342387D01*
X858967Y346094D02*
X860395D01*
X842754Y357748D02*
X856687Y343815D01*
X845034Y360027D02*
Y361455D01*
X841157Y357578D02*
X841327Y357748D01*
X845204Y361625D02*
Y364649D01*
X833713Y361997D02*
X838133Y357578D01*
X819571Y347855D02*
X823990Y343436D01*
Y340412D02*
Y343436D01*
X830238Y332397D02*
Y332397D01*
X839351Y325051D02*
X842375D01*
X830238Y332397D02*
X837754Y324881D01*
X842375Y325051D02*
X846087Y321339D01*
X823820Y340242D02*
X823990Y340412D01*
X812500Y340784D02*
X816919Y336365D01*
X823820Y338814D02*
X830238Y332397D01*
X816919Y336365D02*
X819943D01*
X835304Y317980D02*
Y321004D01*
X827014Y331062D02*
X835474Y322602D01*
Y321174D02*
Y322602D01*
X835304Y321004D02*
X835474Y321174D01*
X820113Y336535D02*
X821541D01*
X823820Y338814D02*
Y340242D01*
X819943Y336365D02*
X820113Y336535D01*
X837754Y324881D02*
X839181D01*
X835304Y317980D02*
X839016Y314268D01*
X839181Y324881D02*
X839351Y325051D01*
X821541Y336535D02*
X827014Y331062D01*
Y331062D02*
Y331062D01*
X684853Y159853D02*
X688565Y156140D01*
X681141Y163565D02*
X684853Y159853D01*
X683590Y170466D02*
X685018D01*
X669827Y185997D02*
Y189021D01*
X685018Y170466D02*
X685188Y170636D01*
X688212D01*
X691924Y166924D01*
X658336Y186369D02*
X662756Y181950D01*
X665780D01*
X681141Y163565D02*
Y166589D01*
X681311Y166759D02*
Y168187D01*
X669657Y185827D02*
X669827Y185997D01*
X681141Y166589D02*
X681311Y166759D01*
X675130Y174367D02*
X675130D01*
X681311Y168187D01*
X676465Y177591D02*
X683590Y170466D01*
X667377Y182120D02*
X675130Y174367D01*
X665407Y193440D02*
X669827Y189021D01*
X665950Y182120D02*
X667377D01*
X676465Y177591D02*
X676465D01*
X669657Y184399D02*
X676465Y177591D01*
X665780Y181950D02*
X665950Y182120D01*
X669657Y184399D02*
Y185827D01*
X659927Y142352D02*
X663640Y138640D01*
X667352Y134927D01*
X648614Y164784D02*
Y167808D01*
X644194Y172227D02*
X648614Y167808D01*
X648444Y163186D02*
X655252Y156377D01*
X648444Y163186D02*
Y164614D01*
X659927Y142352D02*
Y145376D01*
X660097Y145546D01*
X641543Y160737D02*
X644566D01*
X663975Y149423D02*
X666998D01*
X662377Y149253D02*
X663804D01*
X666998Y149423D02*
X670711Y145711D01*
X660097Y145546D02*
Y146974D01*
X653917Y153154D02*
X660097Y146974D01*
X648444Y164614D02*
X648614Y164784D01*
X653917Y153154D02*
X653917D01*
X663804Y149253D02*
X663975Y149423D01*
X646164Y160907D02*
X653917Y153154D01*
X637123Y165156D02*
X641543Y160737D01*
X644566D02*
X644736Y160907D01*
X646164D01*
X655252Y156377D02*
X662377Y149253D01*
X655252Y156377D02*
X655252D01*
X345466Y91410D02*
X359399Y105343D01*
X345466Y89982D02*
Y91410D01*
Y89982D02*
X345636Y89812D01*
X360827Y105343D02*
X360997Y105173D01*
X345636Y86788D02*
Y89812D01*
X360997Y105173D02*
X364021D01*
X341924Y83076D02*
X345636Y86788D01*
X338565Y93860D02*
X341589D01*
X341759Y93689D02*
X343187D01*
X357120Y107622D02*
Y109050D01*
X356950Y109220D02*
Y112244D01*
X334853Y90147D02*
X338565Y93860D01*
X359399Y105343D02*
X360827D01*
X364021Y105173D02*
X368440Y109593D01*
X341589Y93860D02*
X341759Y93689D01*
X343187D02*
X357120Y107622D01*
X356950Y109220D02*
X357120Y109050D01*
X356950Y112244D02*
X361369Y116664D01*
X338186Y126556D02*
X339614D01*
X342808Y126386D02*
X347227Y130806D01*
X331769Y120139D02*
X338186Y126556D01*
X324253Y112623D02*
X331769Y120139D01*
X324253Y111195D02*
Y112623D01*
X320711Y104289D02*
X324423Y108002D01*
Y111025D01*
X339784Y126386D02*
X342808D01*
X335737Y133457D02*
X340156Y137877D01*
X339614Y126556D02*
X339784Y126386D01*
X317352Y115073D02*
X320376D01*
X331769Y120139D02*
X331769D01*
X321974Y114903D02*
X330433Y123363D01*
X313640Y111360D02*
X317352Y115073D01*
X324253Y111195D02*
X324423Y111025D01*
X320376Y115073D02*
X320546Y114903D01*
X321974D01*
X330434Y123363D02*
X335907Y128836D01*
X330433Y123363D02*
X330434D01*
X335907Y128836D02*
Y130264D01*
X335737Y130434D02*
X335907Y130264D01*
X335737Y130434D02*
Y133457D01*
X186832Y279338D02*
X187002Y279168D01*
X171641Y260783D02*
Y263807D01*
X167929Y257071D02*
X171641Y260783D01*
X178987Y272921D02*
X178987D01*
X182955Y286239D02*
X187374Y290659D01*
X171471Y265405D02*
X178987Y272921D01*
X164570Y267854D02*
X167594D01*
X171471Y263977D02*
X171641Y263807D01*
X190026Y279168D02*
X194445Y283587D01*
X177652Y276144D02*
X177652D01*
X169192Y267684D02*
X177652Y276144D01*
X177652D02*
X183125Y281618D01*
Y283045D01*
X160858Y264142D02*
X164570Y267854D01*
X178987Y272921D02*
X185404Y279338D01*
X167594Y267854D02*
X167764Y267684D01*
X187002Y279168D02*
X190026D01*
X167764Y267684D02*
X169192D01*
X185404Y279338D02*
X186832D01*
X182955Y283215D02*
X183125Y283045D01*
X182955Y283215D02*
Y286239D01*
X171471Y263977D02*
Y265405D01*
X165619Y300551D02*
X165789Y300381D01*
X164191Y300551D02*
X165619D01*
X150258Y286618D02*
X164191Y300551D01*
X150258Y285190D02*
Y286618D01*
Y285190D02*
X150428Y285021D01*
Y281996D02*
Y285021D01*
X146716Y278284D02*
X150428Y281996D01*
X143357Y289068D02*
X146381D01*
X146551Y288898D02*
X147979D01*
X161912Y302831D02*
Y304258D01*
X168813Y300381D02*
X173232Y304801D01*
X161742Y304428D02*
Y307452D01*
X146381Y289068D02*
X146551Y288898D01*
X147979D02*
X161912Y302831D01*
X161742Y304428D02*
X161912Y304258D01*
X165789Y300381D02*
X168813D01*
X161742Y307452D02*
X166161Y311872D01*
X139645Y285355D02*
X143357Y289068D01*
X691924Y166924D02*
X695636Y163212D01*
X698538Y155418D02*
Y155518D01*
Y155418D02*
X705106Y148850D01*
X708076D01*
X702826Y143600D02*
Y146571D01*
X695314Y154083D02*
X702826Y146571D01*
X695314Y154083D02*
Y154183D01*
X695466Y158590D02*
X698538Y155518D01*
X693187Y156311D02*
X695314Y154183D01*
X695466Y158590D02*
Y160018D01*
X702826Y143600D02*
X703213Y143213D01*
X695636Y160188D02*
Y163212D01*
X691759Y156311D02*
X693187D01*
X695466Y160018D02*
X695636Y160188D01*
X691589Y156140D02*
X691759Y156311D01*
X708076Y148850D02*
X708463Y148463D01*
X688565Y156140D02*
X691589D01*
X674423Y138974D02*
Y141998D01*
X674253Y138804D02*
X674423Y138974D01*
X674253Y137377D02*
Y138804D01*
X677325Y134205D02*
Y134305D01*
X674253Y137377D02*
X677325Y134305D01*
Y134205D02*
X683892Y127637D01*
X686863D01*
X674101Y132870D02*
X681613Y125358D01*
X674101Y132870D02*
Y132970D01*
X670711Y145711D02*
X674423Y141998D01*
X671974Y135097D02*
X674101Y132970D01*
X670546Y135097D02*
X671974D01*
X681613Y122387D02*
X682000Y122000D01*
X670376Y134927D02*
X670546Y135097D01*
X681613Y122387D02*
Y125358D01*
X667352Y134927D02*
X670376D01*
X686863Y127637D02*
X687250Y127250D01*
X849800Y314603D02*
Y317626D01*
X846087Y321339D02*
X849800Y317626D01*
X849630Y313005D02*
Y314433D01*
X849800Y314603D01*
X849630Y313005D02*
X852701Y309933D01*
Y309833D02*
X859269Y303265D01*
X852701Y309833D02*
Y309933D01*
X859269Y303265D02*
X862240D01*
X862627Y302878D01*
X849478Y308498D02*
Y308598D01*
X847350Y310725D02*
X849478Y308598D01*
X845923Y310725D02*
X847350D01*
X856990Y298015D02*
Y300986D01*
X845753Y310555D02*
X845923Y310725D01*
X849478Y308498D02*
X856990Y300986D01*
Y298015D02*
X857377Y297628D01*
X839016Y314268D02*
X842729Y310555D01*
X845753D01*
X870843Y335646D02*
X871013Y335816D01*
X870843Y334218D02*
Y335646D01*
Y334218D02*
X873915Y331147D01*
X883453Y324478D02*
X883840Y324091D01*
X871013Y335816D02*
Y338840D01*
X866966Y331769D02*
X867136Y331939D01*
X878203Y319228D02*
X878590Y318841D01*
X873915Y331046D02*
Y331147D01*
X878203Y319228D02*
Y322199D01*
X870691Y329711D02*
Y329811D01*
Y329711D02*
X878203Y322199D01*
X867301Y342552D02*
X871013Y338840D01*
X868564Y331939D02*
X870691Y329811D01*
X867136Y331939D02*
X868564D01*
X880482Y324478D02*
X883453D01*
X863942Y331769D02*
X866966D01*
X873915Y331046D02*
X880482Y324478D01*
X335188Y79364D02*
X338212D01*
X335018Y79534D02*
X335188Y79364D01*
X333590Y79534D02*
X335018D01*
X330518Y76462D02*
X333590Y79534D01*
X330418Y76462D02*
X330518D01*
X323850Y66924D02*
Y69894D01*
X323463Y66537D02*
X323850Y66924D01*
X321571Y72174D02*
X329083Y79686D01*
X329183D01*
X331311Y81813D01*
Y83241D01*
X331141Y83411D02*
X331311Y83241D01*
X331141Y83411D02*
Y86435D01*
X318213Y71787D02*
X318600Y72174D01*
X338212Y79364D02*
X341924Y83076D01*
X318600Y72174D02*
X321571D01*
X323850Y69894D02*
X330418Y76462D01*
X331141Y86435D02*
X334853Y90147D01*
X313804Y100747D02*
X313974Y100577D01*
X309205Y97675D02*
X309305D01*
X316998Y100577D02*
X320711Y104289D01*
X302250Y87750D02*
X302637Y88137D01*
X300358Y93387D02*
X307870Y100899D01*
X312377Y100747D02*
X313804D01*
X307870Y100899D02*
X307970D01*
X297000Y93000D02*
X297387Y93387D01*
X302637Y88137D02*
Y91108D01*
X309205Y97675D01*
X310097Y103026D02*
Y104454D01*
X307970Y100899D02*
X310097Y103026D01*
X309927Y104624D02*
X310097Y104454D01*
X297387Y93387D02*
X300358D01*
X309927Y104624D02*
Y107648D01*
X309305Y97675D02*
X312377Y100747D01*
X309927Y107648D02*
X313640Y111360D01*
X313974Y100577D02*
X316998D01*
X164217Y253359D02*
X167929Y257071D01*
X161023Y253529D02*
X161193Y253359D01*
X164217D01*
X149855Y243889D02*
X156423Y250457D01*
X156523D01*
X149855Y240919D02*
Y243889D01*
X147576Y246169D02*
X155088Y253681D01*
X157316Y255808D02*
Y257236D01*
X149468Y240532D02*
X149855Y240919D01*
X156523Y250457D02*
X159595Y253529D01*
X157146Y257406D02*
X157316Y257236D01*
X157146Y257406D02*
Y260430D01*
X144605Y246169D02*
X147576D01*
X144218Y245782D02*
X144605Y246169D01*
X159595Y253529D02*
X161023D01*
X155188Y253681D02*
X157316Y255808D01*
X157146Y260430D02*
X160858Y264142D01*
X155088Y253681D02*
X155188D01*
X128642Y265103D02*
X135210Y271670D01*
X128642Y262132D02*
Y265103D01*
X139810Y274742D02*
X139979Y274572D01*
X126363Y267382D02*
X133875Y274894D01*
X123392Y267382D02*
X126363D01*
X139979Y274572D02*
X143003D01*
X133875Y274894D02*
X133975D01*
X135210Y271670D02*
X135310D01*
X133975Y274894D02*
X136102Y277021D01*
Y278449D01*
X135310Y271670D02*
X138382Y274742D01*
X123005Y266995D02*
X123392Y267382D01*
X135932Y278619D02*
X136102Y278449D01*
X128255Y261745D02*
X128642Y262132D01*
X138382Y274742D02*
X139810D01*
X135932Y278619D02*
Y281643D01*
X143003Y274572D02*
X146716Y278284D01*
X135932Y281643D02*
X139645Y285355D01*
D67*
X763000Y700000D02*
Y858000D01*
X187000Y700000D02*
Y888000D01*
X763000Y858000D02*
X765000Y860000D01*
X253000Y590000D02*
X285000D01*
X253000Y700000D02*
Y700000D01*
Y700000D02*
X285000D01*
X665000Y590000D02*
X665000Y590000D01*
X697000D01*
X665000Y700000D02*
X697000D01*
X838000Y580700D02*
Y605000D01*
X760000Y502700D02*
X838000Y580700D01*
X760000Y477300D02*
X835700D01*
X838000Y475000D01*
D68*
X763000Y590000D02*
Y700000D01*
X187000Y590000D02*
Y700000D01*
X763000Y700000D02*
X763000Y700000D01*
X763000Y590000D02*
X763000Y590000D01*
X375000Y642039D02*
X384781Y632258D01*
X375000Y642039D02*
Y700000D01*
X565000Y632258D02*
X575000Y642258D01*
Y700000D01*
X573500Y580758D02*
X575000Y582258D01*
Y590000D01*
X512000Y580758D02*
X573500D01*
X375000Y582258D02*
X376500Y580758D01*
X375000Y582258D02*
Y590000D01*
X376500Y580758D02*
X438000D01*
D69*
X300000Y468019D02*
Y469000D01*
X423690Y563690D02*
X503541D01*
X364373Y504373D02*
X423690Y563690D01*
X300000Y469000D02*
X302561Y471561D01*
X503541Y563690D02*
X560030Y507201D01*
X363277Y447324D02*
X394794Y415808D01*
X395097D01*
X582500Y304500D02*
X686000Y408000D01*
X508000Y230000D02*
X582500Y304500D01*
X176000Y352500D02*
X176250Y352250D01*
X176500D02*
X224250Y304500D01*
X582500D01*
X176000Y352500D02*
Y352750D01*
X176250Y352250D02*
X176500D01*
X176000Y361250D02*
Y377000D01*
X160000Y384786D02*
X168214D01*
X176000Y377000D01*
X360000Y210000D02*
X488000D01*
X508000Y230000D01*
X686000Y408000D02*
Y476250D01*
X508000Y166000D02*
Y230000D01*
X686000Y341500D02*
Y408000D01*
Y341500D02*
X694495Y333005D01*
X508000Y166000D02*
X517995Y156005D01*
X710884Y315502D02*
X748860Y277526D01*
X775377Y250628D02*
Y250628D01*
X748860Y277145D02*
X775377Y250628D01*
X519952Y487225D02*
X533538Y500812D01*
X513891Y476619D02*
Y479642D01*
X519952Y485703D01*
Y487225D01*
X400000Y340000D02*
X559500D01*
X351981Y388019D02*
X400000Y340000D01*
X559500D02*
X575000Y355500D01*
X300000Y388019D02*
X351981D01*
X570470Y386110D02*
X570677Y385902D01*
X575000Y364250D02*
Y380774D01*
X570677Y385097D02*
Y385902D01*
Y385097D02*
X575000Y380774D01*
Y355500D02*
Y355750D01*
X102521Y375511D02*
X102521D01*
X76005Y348995D02*
X102521Y375511D01*
X140000Y384786D02*
X160000D01*
X112503D02*
X140000D01*
X103229Y375511D02*
X112503Y384786D01*
X102521Y375511D02*
X103229D01*
X250000Y175000D02*
X276516Y201516D01*
X285707Y210000D02*
X351500D01*
X276516Y201516D02*
X277224D01*
X285707Y210000D01*
X535610Y139390D02*
X573484Y101517D01*
X524005Y149879D02*
X534384Y139500D01*
X524005Y149879D02*
Y149995D01*
X534384Y139384D02*
Y139500D01*
Y139384D02*
X534390Y139390D01*
X573484Y101517D02*
X573484D01*
X534390Y139390D02*
X535610D01*
X573484Y101517D02*
X600000Y75000D01*
X600000D01*
X700505Y326641D02*
Y326995D01*
X710884Y315884D02*
Y316262D01*
X700505Y326641D02*
X710884Y316262D01*
Y315502D02*
Y315884D01*
X748860Y277145D02*
Y277526D01*
X300000Y389000D02*
X330000Y419000D01*
X300000Y388689D02*
Y389000D01*
X330000Y419000D02*
Y448645D01*
X346130Y464775D01*
Y465128D02*
X355853Y474851D01*
X352140Y458764D02*
X363277Y447627D01*
Y447324D02*
Y447627D01*
X529599Y476467D02*
X543665Y490533D01*
X528228Y476619D02*
X529447D01*
X523639Y476467D02*
X528076D01*
X529447Y476619D02*
X529599Y476467D01*
X528076D02*
X528228Y476619D01*
X512477Y465305D02*
X523639Y476467D01*
X391738Y498216D02*
X402802Y487152D01*
Y487001D02*
X416871Y472932D01*
X402802Y487001D02*
Y487152D01*
X426765Y481612D02*
X426917Y481460D01*
X426765Y482831D02*
X426917Y482983D01*
X426765D02*
X426917D01*
X416871Y472932D02*
X416876D01*
X412623Y496973D02*
X413157Y496439D01*
X413309D01*
X426765Y482983D01*
X387470Y441819D02*
X404289Y425000D01*
X553489Y452729D02*
X577909Y477149D01*
X362040Y468664D02*
X387167Y443536D01*
X387470D01*
X387319Y442165D02*
Y443385D01*
X391738Y498216D02*
Y498362D01*
X387319Y443385D02*
X387470Y443536D01*
Y441819D02*
Y442014D01*
X387319Y442165D02*
X387470Y442014D01*
X553337Y452729D02*
X553489D01*
X570465Y386110D02*
X570470D01*
X556323Y400251D02*
X570465Y386110D01*
X556317Y400251D02*
X556323D01*
X545711Y410858D02*
X555610Y400958D01*
X577909Y477149D02*
X578061D01*
X543665Y490533D02*
Y490685D01*
X554019Y501039D01*
Y501191D01*
X423796Y466012D02*
X429038D01*
X416876Y472932D02*
X423796Y466012D01*
X426917Y477326D02*
X438938Y465305D01*
X426765Y481612D02*
Y482831D01*
X426917Y477326D02*
Y481460D01*
D70*
X300000Y468019D02*
X328019D01*
X686000Y476250D02*
X758950D01*
X650000D02*
X686000D01*
X590981D02*
X650000D01*
X584071Y483159D02*
X590981Y476250D01*
X758950D02*
X760000Y477300D01*
X364373Y504373D02*
X385728D01*
X328019Y468019D02*
X364373Y504373D01*
X298689Y390000D02*
X300000Y388689D01*
X200500Y470000D02*
X200500Y470000D01*
X259500D01*
X200500Y390000D02*
X259500D01*
X298689D01*
Y470000D02*
X300000Y468689D01*
Y468019D02*
Y468689D01*
X259500Y470000D02*
X298689D01*
X259500Y413000D02*
X259500Y413000D01*
X295214D01*
X259500Y493000D02*
X295214D01*
X259500Y493000D02*
X259500Y493000D01*
D71*
X931000Y213000D02*
Y384000D01*
X771563Y416000D02*
X899000D01*
X931000Y384000D01*
X762863Y407300D02*
X771563Y416000D01*
X901000Y421000D02*
X936000Y386000D01*
X760000Y432700D02*
X771700Y421000D01*
X901000D01*
X898000Y180000D02*
X931000Y213000D01*
X880000Y155000D02*
X936000Y211000D01*
Y386000D01*
X889000Y180000D02*
X898000D01*
X760000Y407300D02*
X762863D01*
D72*
X555610Y400251D02*
Y400958D01*
Y400251D02*
X556317D01*
D73*
X475000Y755500D02*
D03*
D74*
X474999Y750000D02*
D03*
D75*
X429250Y755500D02*
D03*
X520750Y755750D02*
D03*
D76*
X475000Y798999D02*
D03*
D77*
X495000Y730900D02*
D03*
X495000Y770900D02*
D03*
X455000D02*
D03*
Y730900D02*
D03*
D78*
X475000Y750000D02*
D03*
D79*
X520750Y715000D02*
D03*
Y796000D02*
D03*
X429250D02*
D03*
Y715000D02*
D03*
D80*
X760000Y407300D02*
D03*
Y502700D02*
D03*
D81*
Y432700D02*
D03*
Y477300D02*
D03*
D82*
X382536Y249536D02*
D03*
X671250Y111250D02*
D03*
X107005Y282995D02*
D03*
X112255Y277745D02*
D03*
X101755Y288245D02*
D03*
X97888Y293495D02*
D03*
X655500Y95500D02*
D03*
X666000Y106000D02*
D03*
X660750Y100750D02*
D03*
X635000Y327500D02*
D03*
X650000Y342500D02*
D03*
X616000Y455000D02*
D03*
X395097Y415808D02*
D03*
X295214Y493000D02*
D03*
Y413000D02*
D03*
X880000Y155000D02*
D03*
X889000Y180000D02*
D03*
X70000Y105000D02*
D03*
Y155000D02*
D03*
X880000Y105000D02*
D03*
X782448Y257699D02*
D03*
X777145Y305429D02*
D03*
X770074Y298358D02*
D03*
X763002Y291287D02*
D03*
X278284Y146716D02*
D03*
X160000Y75000D02*
D03*
Y90000D02*
D03*
Y105000D02*
D03*
Y120000D02*
D03*
X271213Y153787D02*
D03*
X264142Y160858D02*
D03*
X257071Y167929D02*
D03*
X554903Y422879D02*
D03*
X545004Y432778D02*
D03*
X540054Y437778D02*
D03*
X535104Y442728D02*
D03*
X491264Y494477D02*
D03*
X513891Y476619D02*
D03*
X450908Y478740D02*
D03*
X405000Y435000D02*
D03*
X410000Y440000D02*
D03*
X790000Y135000D02*
D03*
Y150000D02*
D03*
Y165000D02*
D03*
Y180000D02*
D03*
X600000Y451750D02*
D03*
X605000Y420000D02*
D03*
X600000Y476250D02*
D03*
X465858Y493589D02*
D03*
X455908Y483690D02*
D03*
X460858Y488640D02*
D03*
X415000Y445000D02*
D03*
X420000Y450000D02*
D03*
X643038Y325462D02*
D03*
X652214Y334286D02*
D03*
X873377Y313628D02*
D03*
X883840Y324091D02*
D03*
X878590Y318841D02*
D03*
X857377Y297628D02*
D03*
X862627Y302878D02*
D03*
X889127Y329378D02*
D03*
X867877Y308128D02*
D03*
X852127Y292378D02*
D03*
X698000Y138000D02*
D03*
X708463Y148463D02*
D03*
X703213Y143213D02*
D03*
X682000Y122000D02*
D03*
X687250Y127250D02*
D03*
X713750Y153750D02*
D03*
X692500Y132500D02*
D03*
X676750Y116750D02*
D03*
X139005Y250995D02*
D03*
X149468Y240532D02*
D03*
X144218Y245782D02*
D03*
X123005Y266995D02*
D03*
X128255Y261745D02*
D03*
X154755Y235245D02*
D03*
X133505Y256495D02*
D03*
X117755Y272245D02*
D03*
X291750Y98250D02*
D03*
X307500Y82500D02*
D03*
X328750Y61250D02*
D03*
X302250Y87750D02*
D03*
X389313Y256687D02*
D03*
X297000Y93000D02*
D03*
X318213Y71787D02*
D03*
X323463Y66537D02*
D03*
X313000Y77000D02*
D03*
X391536Y240536D02*
D03*
X398750Y247250D02*
D03*
X451665Y425000D02*
D03*
X459444Y417222D02*
D03*
X467222Y409444D02*
D03*
X475000Y401665D02*
D03*
X459444Y432778D02*
D03*
X467222Y425000D02*
D03*
X475000Y417222D02*
D03*
X482778Y409444D02*
D03*
X467222Y440556D02*
D03*
X475000Y432778D02*
D03*
X482778Y425000D02*
D03*
X490556Y417222D02*
D03*
X475000Y448335D02*
D03*
X482778Y440556D02*
D03*
X490556Y432778D02*
D03*
X498335Y425000D02*
D03*
X553337Y452729D02*
D03*
X512477Y465305D02*
D03*
X429038Y466012D02*
D03*
X438938Y465305D02*
D03*
X404289Y425000D02*
D03*
X549953Y427828D02*
D03*
X545711Y410858D02*
D03*
D83*
X384781Y632258D02*
D03*
X565000Y632258D02*
D03*
X512000Y580758D02*
D03*
X438000Y580758D02*
D03*
D84*
X50000Y850000D02*
D03*
X900000D02*
D03*
Y50000D02*
D03*
X50000D02*
D03*
M02*
