G04*
G04 #@! TF.GenerationSoftware,Altium Limited,Altium Designer,24.4.1 (13)*
G04*
G04 Layer_Physical_Order=2*
G04 Layer_Color=16711680*
%FSLAX44Y44*%
%MOMM*%
G71*
G04*
G04 #@! TF.SameCoordinates,67352877-1681-4123-B6E6-81FFD263FBCE*
G04*
G04*
G04 #@! TF.FilePolarity,Positive*
G04*
G01*
G75*
%ADD19C,0.3000*%
%ADD20C,0.5000*%
%ADD21R,1.8000X0.8500*%
%ADD22R,1.6000X0.6000*%
G04:AMPARAMS|DCode=23|XSize=0.5mm|YSize=0.5mm|CornerRadius=0.125mm|HoleSize=0mm|Usage=FLASHONLY|Rotation=135.000|XOffset=0mm|YOffset=0mm|HoleType=Round|Shape=RoundedRectangle|*
%AMROUNDEDRECTD23*
21,1,0.5000,0.2500,0,0,135.0*
21,1,0.2500,0.5000,0,0,135.0*
1,1,0.2500,0.0000,0.1768*
1,1,0.2500,0.1768,0.0000*
1,1,0.2500,0.0000,-0.1768*
1,1,0.2500,-0.1768,0.0000*
%
%ADD23ROUNDEDRECTD23*%
G36*
X-150000Y379235D02*
X-149398Y379235D01*
X-148204Y379078D01*
X-147041Y378769D01*
X-145928Y378310D01*
X-145406Y378011D01*
X-145359Y377995D01*
X-145320Y377965D01*
X-92409Y350900D01*
X-91932Y350625D01*
X-90976Y349892D01*
X-90122Y349041D01*
X-89387Y348086D01*
X-89085Y347565D01*
X-89058Y347535D01*
X-89043Y347497D01*
X-20642Y239581D01*
X-18220Y235386D01*
X-13899Y226623D01*
X-10159Y217596D01*
X-7019Y208344D01*
X-4490Y198906D01*
X-2584Y189323D01*
X-1308Y179635D01*
X-669Y169886D01*
X-669Y165200D01*
X-726Y164911D01*
X-726Y164711D01*
X-765Y164514D01*
X-765Y50000D01*
Y46773D01*
X-1608Y40375D01*
X-3278Y34141D01*
X-5747Y28179D01*
X-8973Y22590D01*
X-12902Y17470D01*
X-17464Y12907D01*
X-22584Y8978D01*
X-28172Y5750D01*
X-34134Y3280D01*
X-40367Y1609D01*
X-46766Y766D01*
X-50000Y765D01*
X-260000Y765D01*
X-260910D01*
X-262694Y1120D01*
X-264374Y1816D01*
X-265887Y2827D01*
X-267173Y4113D01*
X-268184Y5626D01*
X-268880Y7306D01*
X-269235Y9090D01*
X-269235Y20000D01*
X-269245Y20050D01*
X-269237Y20100D01*
X-269279Y20955D01*
X-269316Y21101D01*
X-269316Y21252D01*
X-269649Y22929D01*
X-269726Y23115D01*
X-269765Y23312D01*
X-270419Y24891D01*
X-270530Y25058D01*
X-270607Y25244D01*
X-271557Y26666D01*
X-271699Y26808D01*
X-271810Y26974D01*
X-273018Y28184D01*
X-273185Y28296D01*
X-273327Y28438D01*
X-274748Y29388D01*
X-274934Y29465D01*
X-275100Y29577D01*
X-276679Y30232D01*
X-276876Y30271D01*
X-277062Y30348D01*
X-278738Y30683D01*
X-278890Y30683D01*
X-279037Y30720D01*
X-279899Y30763D01*
X-279950Y30755D01*
X-280000Y30765D01*
X-350910D01*
X-352694Y31120D01*
X-354374Y31816D01*
X-355887Y32827D01*
X-357173Y34113D01*
X-358184Y35626D01*
X-358880Y37306D01*
X-359235Y39090D01*
Y45000D01*
X-359245Y45050D01*
X-359237Y45100D01*
X-359327Y46935D01*
X-359364Y47082D01*
Y47233D01*
X-360080Y50832D01*
X-360157Y51018D01*
X-360196Y51215D01*
X-361600Y54605D01*
X-361711Y54772D01*
X-361788Y54958D01*
X-363827Y58010D01*
X-363969Y58152D01*
X-364080Y58319D01*
X-366675Y60914D01*
X-366842Y61026D01*
X-366984Y61168D01*
X-370035Y63208D01*
X-370220Y63285D01*
X-370387Y63396D01*
X-373777Y64802D01*
X-373974Y64841D01*
X-374160Y64918D01*
X-377759Y65635D01*
X-377910Y65635D01*
X-378057Y65672D01*
X-379899Y65763D01*
X-379950Y65755D01*
X-380000Y65765D01*
X-450910D01*
X-452694Y66120D01*
X-454374Y66816D01*
X-455887Y67827D01*
X-457173Y69113D01*
X-458184Y70626D01*
X-458880Y72306D01*
X-459235Y74090D01*
Y75000D01*
Y325000D01*
Y325910D01*
X-458880Y327694D01*
X-458184Y329374D01*
X-457173Y330887D01*
X-455887Y332173D01*
X-454374Y333184D01*
X-452694Y333880D01*
X-450910Y334235D01*
X-450000D01*
X-380000Y334235D01*
X-379950Y334245D01*
X-379900Y334237D01*
X-378064Y334327D01*
X-377918Y334364D01*
X-377767D01*
X-374166Y335080D01*
X-373981Y335157D01*
X-373784Y335196D01*
X-370392Y336601D01*
X-370225Y336713D01*
X-370040Y336790D01*
X-366987Y338829D01*
X-366845Y338971D01*
X-366678Y339083D01*
X-364083Y341678D01*
X-363971Y341845D01*
X-363829Y341987D01*
X-361790Y345040D01*
X-361713Y345225D01*
X-361601Y345392D01*
X-360196Y348784D01*
X-360157Y348981D01*
X-360080Y349166D01*
X-359364Y352767D01*
Y352918D01*
X-359327Y353064D01*
X-359237Y354900D01*
X-359245Y354950D01*
X-359235Y355000D01*
Y370910D01*
X-358880Y372694D01*
X-358184Y374374D01*
X-357173Y375887D01*
X-355887Y377173D01*
X-354374Y378184D01*
X-352694Y378880D01*
X-350910Y379235D01*
X-350000D01*
X-150000Y379235D01*
D02*
G37*
%LPC*%
G36*
X-299204Y362500D02*
X-300796D01*
X-302266Y361891D01*
X-303391Y360766D01*
X-304000Y359296D01*
Y357704D01*
X-303391Y356234D01*
X-302824Y355667D01*
Y324333D01*
X-303391Y323766D01*
X-304000Y322296D01*
Y320704D01*
X-303391Y319234D01*
X-302266Y318109D01*
X-300796Y317500D01*
X-299204D01*
X-297734Y318109D01*
X-296609Y319234D01*
X-296000Y320704D01*
Y322296D01*
X-296609Y323766D01*
X-297176Y324333D01*
Y355667D01*
X-296609Y356234D01*
X-296000Y357704D01*
Y359296D01*
X-296609Y360766D01*
X-297734Y361891D01*
X-299204Y362500D01*
D02*
G37*
G36*
X-328276Y297500D02*
X-331724D01*
X-335105Y296828D01*
X-338289Y295508D01*
X-341156Y293593D01*
X-343593Y291156D01*
X-345508Y288289D01*
X-346828Y285105D01*
X-347500Y281724D01*
Y278276D01*
X-346828Y274895D01*
X-345508Y271711D01*
X-343593Y268844D01*
X-341156Y266407D01*
X-338289Y264492D01*
X-335105Y263172D01*
X-331724Y262500D01*
X-328276D01*
X-324895Y263172D01*
X-321711Y264492D01*
X-318844Y266407D01*
X-316407Y268844D01*
X-314492Y271711D01*
X-313172Y274895D01*
X-312500Y278276D01*
Y281724D01*
X-313172Y285105D01*
X-314492Y288289D01*
X-316407Y291156D01*
X-318844Y293593D01*
X-321711Y295508D01*
X-324895Y296828D01*
X-328276Y297500D01*
D02*
G37*
G36*
X-393730Y263770D02*
X-403365D01*
Y258885D01*
X-393730D01*
Y263770D01*
D02*
G37*
G36*
X-404635D02*
X-414270D01*
Y258885D01*
X-404635D01*
Y263770D01*
D02*
G37*
G36*
X-393730Y257615D02*
X-403365D01*
Y252730D01*
X-393730D01*
Y257615D01*
D02*
G37*
G36*
X-404635D02*
X-414270D01*
Y252730D01*
X-404635D01*
Y257615D01*
D02*
G37*
G36*
X-362730Y249270D02*
X-381270D01*
Y240730D01*
X-362730D01*
Y249270D01*
D02*
G37*
G36*
X-418730D02*
X-437270D01*
Y240730D01*
X-418730D01*
Y249270D01*
D02*
G37*
G36*
X-362730Y239270D02*
X-381270D01*
Y230730D01*
X-362730D01*
Y239270D01*
D02*
G37*
G36*
X-418730D02*
X-437270D01*
Y230730D01*
X-418730D01*
Y239270D01*
D02*
G37*
G36*
Y229270D02*
X-437270D01*
Y220730D01*
X-418730D01*
Y229270D01*
D02*
G37*
G36*
X-350204Y237500D02*
X-351796D01*
X-353266Y236891D01*
X-354391Y235766D01*
X-355000Y234296D01*
Y232704D01*
X-354391Y231234D01*
X-353442Y230285D01*
Y227617D01*
X-353442Y227617D01*
X-353227Y226537D01*
X-352614Y225620D01*
X-350824Y223830D01*
Y219129D01*
X-352094Y218877D01*
X-352359Y219516D01*
X-353484Y220641D01*
X-354954Y221250D01*
X-355756D01*
X-360071Y225565D01*
X-360987Y226177D01*
X-362068Y226392D01*
X-362730Y227361D01*
Y229270D01*
X-381270D01*
Y220730D01*
X-364330D01*
X-364203Y220540D01*
X-364882Y219270D01*
X-381270D01*
Y210730D01*
X-370773D01*
X-370500Y210676D01*
X-360948D01*
X-359366Y209094D01*
X-359406Y208708D01*
X-359797Y207824D01*
X-362730D01*
Y209270D01*
X-381270D01*
Y200730D01*
X-362730D01*
Y202176D01*
X-346833D01*
X-345883Y201226D01*
X-344413Y200617D01*
X-342822D01*
X-341352Y201226D01*
X-340226Y202351D01*
X-339617Y203822D01*
Y205413D01*
X-340226Y206883D01*
X-341352Y208008D01*
X-342822Y208617D01*
X-344413D01*
X-345883Y208008D01*
X-346067Y207824D01*
X-350481D01*
X-350872Y208708D01*
X-350912Y209094D01*
X-346003Y214003D01*
X-346003Y214003D01*
X-345391Y214919D01*
X-345176Y216000D01*
Y225000D01*
X-345176Y225000D01*
X-345391Y226081D01*
X-346003Y226997D01*
X-346003Y226997D01*
X-347793Y228787D01*
Y231050D01*
X-347609Y231234D01*
X-347000Y232704D01*
Y234296D01*
X-347609Y235766D01*
X-348734Y236891D01*
X-350204Y237500D01*
D02*
G37*
G36*
X-418730Y219270D02*
X-437270D01*
Y210730D01*
X-418730D01*
Y219270D01*
D02*
G37*
G36*
Y209270D02*
X-437270D01*
Y200730D01*
X-418730D01*
Y209270D01*
D02*
G37*
G36*
Y199270D02*
X-437270D01*
Y190730D01*
X-418730D01*
Y199270D01*
D02*
G37*
G36*
X-299454Y232250D02*
X-301046D01*
X-302516Y231641D01*
X-303641Y230516D01*
X-304250Y229046D01*
Y227454D01*
X-303641Y225984D01*
X-302949Y225292D01*
Y194208D01*
X-303391Y193766D01*
X-304000Y192296D01*
Y190704D01*
X-303391Y189234D01*
X-302266Y188109D01*
X-300796Y187500D01*
X-299204D01*
X-297734Y188109D01*
X-296609Y189234D01*
X-296000Y190704D01*
Y192296D01*
X-296609Y193766D01*
X-297301Y194458D01*
Y225542D01*
X-296859Y225984D01*
X-296250Y227454D01*
Y229046D01*
X-296859Y230516D01*
X-297984Y231641D01*
X-299454Y232250D01*
D02*
G37*
G36*
X-362730Y199270D02*
X-381270D01*
Y190730D01*
X-362730D01*
Y192176D01*
X-358170D01*
X-349641Y183647D01*
X-350070Y182280D01*
X-350353Y182229D01*
X-355120Y186997D01*
X-356036Y187609D01*
X-357117Y187824D01*
X-357118Y187824D01*
X-362730D01*
Y189270D01*
X-381270D01*
Y180730D01*
X-362730D01*
Y182176D01*
X-358287D01*
X-353617Y177506D01*
Y176704D01*
X-353008Y175234D01*
X-351883Y174109D01*
X-350413Y173500D01*
X-348822D01*
X-347351Y174109D01*
X-346226Y175234D01*
X-345617Y176704D01*
Y176709D01*
X-344347Y177418D01*
X-344002Y177206D01*
X-343990Y177179D01*
X-343391Y175734D01*
X-342266Y174609D01*
X-340796Y174000D01*
X-339204D01*
X-337734Y174609D01*
X-336609Y175734D01*
X-336000Y177204D01*
Y178796D01*
X-336609Y180266D01*
X-337734Y181391D01*
X-339204Y182000D01*
X-340006D01*
X-355003Y196997D01*
X-355919Y197609D01*
X-357000Y197824D01*
X-357000Y197824D01*
X-362730D01*
Y199270D01*
D02*
G37*
G36*
X-418730Y189270D02*
X-437270D01*
Y180730D01*
X-418730D01*
Y189270D01*
D02*
G37*
G36*
Y179270D02*
X-437270D01*
Y170730D01*
X-418730D01*
Y179270D01*
D02*
G37*
G36*
Y169270D02*
X-427365D01*
Y165635D01*
X-418730D01*
Y169270D01*
D02*
G37*
G36*
X-428635D02*
X-437270D01*
Y165635D01*
X-428635D01*
Y169270D01*
D02*
G37*
G36*
X-418730Y164365D02*
X-427365D01*
Y160730D01*
X-418730D01*
Y164365D01*
D02*
G37*
G36*
X-428635D02*
X-437270D01*
Y160730D01*
X-428635D01*
Y164365D01*
D02*
G37*
G36*
X-393730Y147270D02*
X-403365D01*
Y142385D01*
X-393730D01*
Y147270D01*
D02*
G37*
G36*
X-404635D02*
X-414270D01*
Y142385D01*
X-404635D01*
Y147270D01*
D02*
G37*
G36*
X-393730Y141115D02*
X-403365D01*
Y136230D01*
X-393730D01*
Y141115D01*
D02*
G37*
G36*
X-404635D02*
X-414270D01*
Y136230D01*
X-404635D01*
Y141115D01*
D02*
G37*
G36*
X-143535Y141120D02*
X-146966Y140782D01*
X-150265Y139782D01*
X-153305Y138157D01*
X-155970Y135970D01*
X-158157Y133305D01*
X-159782Y130265D01*
X-160782Y126966D01*
X-161120Y123535D01*
X-160782Y120105D01*
X-159782Y116806D01*
X-158157Y113766D01*
X-155970Y111101D01*
X-148899Y104030D01*
X-146234Y101843D01*
X-143194Y100218D01*
X-139895Y99218D01*
X-136465Y98880D01*
X-133034Y99218D01*
X-129735Y100218D01*
X-126695Y101843D01*
X-124030Y104030D01*
X-121843Y106695D01*
X-120218Y109735D01*
X-119218Y113034D01*
X-118880Y116465D01*
X-119218Y119895D01*
X-120218Y123194D01*
X-121843Y126234D01*
X-124030Y128899D01*
X-131101Y135970D01*
X-133766Y138157D01*
X-136806Y139782D01*
X-140105Y140782D01*
X-143535Y141120D01*
D02*
G37*
G36*
X-276454Y299750D02*
X-278046D01*
X-279516Y299141D01*
X-280641Y298016D01*
X-281250Y296546D01*
Y294954D01*
X-280641Y293484D01*
X-279516Y292359D01*
X-278046Y291750D01*
X-277244D01*
X-252747Y267253D01*
X-251831Y266641D01*
X-250750Y266426D01*
X-250750Y266426D01*
X-213083D01*
X-212516Y265859D01*
X-212101Y265687D01*
Y264313D01*
X-212516Y264141D01*
X-213641Y263016D01*
X-214250Y261546D01*
Y259954D01*
X-213641Y258484D01*
X-213074Y257917D01*
Y253972D01*
X-214344Y253847D01*
X-214391Y254081D01*
X-215003Y254997D01*
X-220750Y260744D01*
Y261546D01*
X-221359Y263016D01*
X-222484Y264141D01*
X-223954Y264750D01*
X-225546D01*
X-227016Y264141D01*
X-228141Y263016D01*
X-228750Y261546D01*
Y259954D01*
X-228141Y258484D01*
X-227016Y257359D01*
X-225546Y256750D01*
X-224744D01*
X-219824Y251830D01*
Y228000D01*
X-219824Y228000D01*
X-219609Y226919D01*
X-218997Y226003D01*
X-195997Y203003D01*
X-195997Y203003D01*
X-195081Y202391D01*
X-194000Y202176D01*
X-186978D01*
X-186492Y201002D01*
X-222670Y164824D01*
X-267167D01*
X-267734Y165391D01*
X-269204Y166000D01*
X-270796D01*
X-272266Y165391D01*
X-272833Y164824D01*
X-362730D01*
Y169270D01*
X-376307D01*
X-376434Y169460D01*
X-375755Y170730D01*
X-362730D01*
Y179270D01*
X-381270D01*
Y174923D01*
X-382443Y174437D01*
X-386176Y178170D01*
Y214167D01*
X-385609Y214734D01*
X-385000Y216204D01*
Y217796D01*
X-385609Y219266D01*
X-386734Y220391D01*
X-388204Y221000D01*
X-389796D01*
X-391266Y220391D01*
X-392391Y219266D01*
X-393000Y217796D01*
Y216204D01*
X-392391Y214734D01*
X-391824Y214167D01*
Y177000D01*
X-391824Y177000D01*
X-391609Y175919D01*
X-390997Y175003D01*
X-381993Y165999D01*
X-382029Y165819D01*
X-383407Y165401D01*
X-397176Y179170D01*
Y214167D01*
X-396609Y214734D01*
X-396000Y216204D01*
Y217796D01*
X-396609Y219266D01*
X-397734Y220391D01*
X-399204Y221000D01*
X-400796D01*
X-402266Y220391D01*
X-403280Y219377D01*
X-404000Y219317D01*
X-404720Y219377D01*
X-405734Y220391D01*
X-407204Y221000D01*
X-408796D01*
X-410266Y220391D01*
X-411391Y219266D01*
X-412000Y217796D01*
Y216204D01*
X-411391Y214734D01*
X-410824Y214167D01*
Y157824D01*
X-418730D01*
Y159270D01*
X-437270D01*
Y150730D01*
X-418730D01*
Y152176D01*
X-390170D01*
X-383997Y146003D01*
X-383081Y145391D01*
X-382000Y145176D01*
X-265333D01*
X-264766Y144609D01*
X-263296Y144000D01*
X-261704D01*
X-260234Y144609D01*
X-259667Y145176D01*
X-216000D01*
X-216000Y145176D01*
X-214919Y145391D01*
X-214003Y146003D01*
X-167003Y193003D01*
X-166391Y193919D01*
X-166176Y195000D01*
X-166176Y195000D01*
Y214000D01*
X-166176Y214000D01*
X-166391Y215081D01*
X-167003Y215997D01*
X-167003Y215997D01*
X-175006Y224000D01*
X-113698Y285308D01*
X-90711D01*
X-90145Y284741D01*
X-88674Y284132D01*
X-87873D01*
X-45574Y241833D01*
Y34583D01*
X-46141Y34016D01*
X-46750Y32546D01*
Y30954D01*
X-46141Y29484D01*
X-45016Y28359D01*
X-43546Y27750D01*
X-41954D01*
X-40484Y28359D01*
X-39359Y29484D01*
X-38750Y30954D01*
Y32546D01*
X-39359Y34016D01*
X-39926Y34583D01*
Y243003D01*
X-40141Y244084D01*
X-40753Y245000D01*
X-83879Y288126D01*
Y288927D01*
X-84488Y290398D01*
X-85613Y291523D01*
X-87083Y292132D01*
X-88674D01*
X-90145Y291523D01*
X-90711Y290956D01*
X-114868D01*
X-115949Y290741D01*
X-116865Y290129D01*
X-116865Y290129D01*
X-180170Y226824D01*
X-183041D01*
X-183041Y226824D01*
X-184122Y226609D01*
X-185038Y225997D01*
X-185038Y225997D01*
X-189521Y221515D01*
X-201176Y233170D01*
Y263000D01*
X-201176Y263000D01*
X-201391Y264081D01*
X-202003Y264997D01*
X-202003Y264997D01*
X-206250Y269244D01*
Y270046D01*
X-206859Y271516D01*
X-207984Y272641D01*
X-209454Y273250D01*
X-211046D01*
X-212516Y272641D01*
X-213083Y272074D01*
X-249580D01*
X-273250Y295744D01*
Y296546D01*
X-273859Y298016D01*
X-274984Y299141D01*
X-276454Y299750D01*
D02*
G37*
%LPD*%
G36*
X-403280Y214623D02*
X-402824Y214167D01*
Y178000D01*
X-402824Y178000D01*
X-402609Y176919D01*
X-401997Y176003D01*
X-381270Y155276D01*
Y152923D01*
X-382443Y152437D01*
X-387003Y156997D01*
X-387919Y157609D01*
X-389000Y157824D01*
X-389000Y157824D01*
X-405176D01*
Y214167D01*
X-404720Y214623D01*
X-404000Y214683D01*
X-403280Y214623D01*
D02*
G37*
D19*
X-300125Y191625D02*
Y228125D01*
X-300250Y228250D02*
X-300125Y228125D01*
Y191625D02*
X-300000Y191500D01*
X-408000Y155000D02*
X-389000D01*
X-428000D02*
X-408000D01*
Y217000D01*
X-400000Y178000D02*
Y217000D01*
X-389000Y177000D02*
Y217000D01*
Y177000D02*
X-377000Y165000D01*
X-400000Y178000D02*
X-377000Y155000D01*
X-372000D01*
X-252000D01*
X-372000Y195000D02*
X-357000D01*
X-340000Y178000D01*
X-357117Y185000D02*
X-349617Y177500D01*
X-372000Y185000D02*
X-357117D01*
X-389000Y155000D02*
X-382000Y148000D01*
X-377000Y165000D02*
X-372000D01*
X-382000Y148000D02*
X-216000D01*
X-169000Y195000D01*
X-252000Y155000D02*
X-219000D01*
X-270000Y162000D02*
X-221500D01*
X-364000D02*
X-270000D01*
X-42750Y31757D02*
Y243003D01*
X-87879Y288132D02*
X-42750Y243003D01*
X-181257Y202750D02*
X-180750D01*
X-217000Y228000D02*
X-194000Y205000D01*
X-183507D02*
X-181257Y202750D01*
X-194000Y205000D02*
X-183507D01*
X-224750Y260750D02*
X-217000Y253000D01*
Y228000D02*
Y253000D01*
X-204000Y232000D02*
X-189250Y217250D01*
X-210250Y269250D02*
X-204000Y263000D01*
Y232000D02*
Y263000D01*
X-210250Y230007D02*
X-191243Y211000D01*
X-187000D01*
X-210250Y230007D02*
Y260750D01*
X-187000Y211000D02*
X-180750Y217250D01*
X-179000Y224000D02*
X-114868Y288132D01*
X-87879D01*
X-372000Y165000D02*
X-367000D01*
X-221500Y162000D02*
X-180750Y202750D01*
X-367000Y165000D02*
X-364000Y162000D01*
X-219000Y155000D02*
X-175000Y199000D01*
X-183041Y224000D02*
X-179000D01*
X-189250Y217791D02*
X-183041Y224000D01*
X-179000D02*
X-169000Y214000D01*
Y195000D02*
Y214000D01*
X-175000Y199000D02*
Y211500D01*
X-180750Y217250D02*
X-175000Y211500D01*
X-277250Y295750D02*
X-250750Y269250D01*
X-210250D01*
X-344000Y205000D02*
X-343617Y204617D01*
X-372000Y205000D02*
X-344000D01*
X-348000Y216000D02*
Y225000D01*
X-351000Y233500D02*
X-350617Y233117D01*
Y227617D02*
X-348000Y225000D01*
X-350617Y227617D02*
Y233117D01*
X-353000Y211000D02*
X-348000Y216000D01*
X-370500Y213500D02*
X-359778D01*
X-357278Y211000D01*
X-353000D01*
X-372000Y215000D02*
X-370500Y213500D01*
X-370568Y223568D02*
X-362068D01*
X-372000Y225000D02*
X-370568Y223568D01*
X-362068D02*
X-355750Y217250D01*
X-300000Y321500D02*
Y358500D01*
D20*
X-330000Y280000D02*
D03*
X-35002Y59998D02*
D03*
X-80002Y149998D02*
D03*
X-65002Y119998D02*
D03*
X-95002Y179998D02*
D03*
Y119998D02*
D03*
X-155002Y59998D02*
D03*
X-185002D02*
D03*
X-432000Y235000D02*
D03*
Y225000D02*
D03*
Y215000D02*
D03*
Y205000D02*
D03*
Y195000D02*
D03*
Y185000D02*
D03*
Y245000D02*
D03*
X-300000Y321500D02*
D03*
Y358500D02*
D03*
X-368000Y245000D02*
D03*
Y235000D02*
D03*
X-355750Y217250D02*
D03*
X-351000Y233500D02*
D03*
X-343617Y204617D02*
D03*
X-349617Y177500D02*
D03*
X-340000Y178000D02*
D03*
X-210250Y269250D02*
D03*
X-277250Y295750D02*
D03*
X-87879Y288132D02*
D03*
X-42750Y31750D02*
D03*
X-224750Y260750D02*
D03*
X-210250D02*
D03*
X-189250Y217250D02*
D03*
X-180750D02*
D03*
Y202750D02*
D03*
X-270000Y162000D02*
D03*
X-252000Y155000D02*
D03*
X-262500Y148000D02*
D03*
X-389000Y217000D02*
D03*
X-400000D02*
D03*
X-408000D02*
D03*
X-300000Y191500D02*
D03*
X-300250Y228250D02*
D03*
X-440002Y89998D02*
D03*
X-425002Y299998D02*
D03*
X-440002Y329998D02*
D03*
X-410002Y89998D02*
D03*
Y329998D02*
D03*
X-380002Y89998D02*
D03*
X-365002Y119998D02*
D03*
X-244000Y258000D02*
D03*
X-243000Y283000D02*
D03*
X-399000Y164000D02*
D03*
X-365002Y299998D02*
D03*
X-380002Y329998D02*
D03*
X-335002Y59998D02*
D03*
X-350002Y89998D02*
D03*
X-335002Y119998D02*
D03*
X-350002Y269998D02*
D03*
X-335002Y299998D02*
D03*
Y359998D02*
D03*
X-320002Y89998D02*
D03*
X-305002Y299998D02*
D03*
X-290002Y89998D02*
D03*
X-200002Y29998D02*
D03*
Y89998D02*
D03*
Y149998D02*
D03*
X-185002Y299998D02*
D03*
Y359998D02*
D03*
X-170002Y29998D02*
D03*
Y89998D02*
D03*
Y149998D02*
D03*
X-155002Y359998D02*
D03*
X-140002Y89998D02*
D03*
Y149998D02*
D03*
Y329998D02*
D03*
X-125002Y359998D02*
D03*
X-110002Y89998D02*
D03*
Y149998D02*
D03*
X-65002Y179998D02*
D03*
X-80002Y209998D02*
D03*
X-35002Y119998D02*
D03*
Y179998D02*
D03*
Y239998D02*
D03*
X-50002Y269998D02*
D03*
X-20002Y29998D02*
D03*
X-5002Y59998D02*
D03*
X-20002Y89998D02*
D03*
X-5002Y119998D02*
D03*
X-20002Y149998D02*
D03*
X-5002Y179998D02*
D03*
X-20002Y209998D02*
D03*
X-275000Y258000D02*
D03*
D21*
X-404000Y141750D02*
D03*
Y258250D02*
D03*
D22*
X-428000Y155000D02*
D03*
Y165000D02*
D03*
Y175000D02*
D03*
Y185000D02*
D03*
Y195000D02*
D03*
Y205000D02*
D03*
Y215000D02*
D03*
Y225000D02*
D03*
Y235000D02*
D03*
Y245000D02*
D03*
X-372000Y155000D02*
D03*
Y165000D02*
D03*
Y175000D02*
D03*
Y185000D02*
D03*
Y195000D02*
D03*
Y205000D02*
D03*
Y215000D02*
D03*
Y225000D02*
D03*
Y235000D02*
D03*
Y245000D02*
D03*
D23*
X-140000Y120000D02*
D03*
M02*
