G04*
G04 #@! TF.GenerationSoftware,Altium Limited,Altium Designer,24.4.1 (13)*
G04*
G04 Layer_Color=8388736*
%FSLAX44Y44*%
%MOMM*%
G71*
G04*
G04 #@! TF.SameCoordinates,67352877-1681-4123-B6E6-81FFD263FBCE*
G04*
G04*
G04 #@! TF.FilePolarity,Negative*
G04*
G01*
G75*
%ADD12R,0.8500X0.6500*%
%ADD13R,1.0000X0.7000*%
%ADD14R,0.6500X0.8500*%
%ADD15R,0.7000X1.0000*%
G04:AMPARAMS|DCode=16|XSize=1mm|YSize=0.7mm|CornerRadius=0mm|HoleSize=0mm|Usage=FLASHONLY|Rotation=315.000|XOffset=0mm|YOffset=0mm|HoleType=Round|Shape=Rectangle|*
%AMROTATEDRECTD16*
4,1,4,-0.6010,0.1061,-0.1061,0.6010,0.6010,-0.1061,0.1061,-0.6010,-0.6010,0.1061,0.0*
%
%ADD16ROTATEDRECTD16*%

G04:AMPARAMS|DCode=17|XSize=0.65mm|YSize=0.85mm|CornerRadius=0mm|HoleSize=0mm|Usage=FLASHONLY|Rotation=315.000|XOffset=0mm|YOffset=0mm|HoleType=Round|Shape=Rectangle|*
%AMROTATEDRECTD17*
4,1,4,-0.5303,-0.0707,0.0707,0.5303,0.5303,0.0707,-0.0707,-0.5303,-0.5303,-0.0707,0.0*
%
%ADD17ROTATEDRECTD17*%

%ADD18C,0.6500*%
D12*
X-277250Y115750D02*
D03*
Y124250D02*
D03*
X-262750Y115750D02*
D03*
Y124250D02*
D03*
X-57250Y23250D02*
D03*
Y31750D02*
D03*
X-42750Y23250D02*
D03*
Y31750D02*
D03*
X-210250Y269250D02*
D03*
Y260750D02*
D03*
X-224750Y269250D02*
D03*
Y260750D02*
D03*
X-277250Y295750D02*
D03*
Y304250D02*
D03*
X-262750Y295750D02*
D03*
Y304250D02*
D03*
D13*
X-240000Y61500D02*
D03*
X-300000D02*
D03*
X-240000Y98500D02*
D03*
X-300000D02*
D03*
X-85000Y21500D02*
D03*
X-145000D02*
D03*
X-85000Y58500D02*
D03*
X-145000D02*
D03*
X-240000Y191500D02*
D03*
X-300000D02*
D03*
X-240000Y228500D02*
D03*
X-300000D02*
D03*
X-240000Y321500D02*
D03*
X-300000D02*
D03*
X-240000Y358500D02*
D03*
X-300000D02*
D03*
D14*
X-180750Y202750D02*
D03*
X-189250D02*
D03*
X-180750Y217250D02*
D03*
X-189250D02*
D03*
X-355750Y202750D02*
D03*
X-364250D02*
D03*
X-355750Y217250D02*
D03*
X-364250D02*
D03*
D15*
X-121500Y240000D02*
D03*
Y180000D02*
D03*
X-158500Y240000D02*
D03*
Y180000D02*
D03*
X-418500D02*
D03*
Y240000D02*
D03*
X-381500Y180000D02*
D03*
Y240000D02*
D03*
D16*
X-121868Y285705D02*
D03*
X-164295Y328132D02*
D03*
X-95705Y311868D02*
D03*
X-138132Y354295D02*
D03*
D17*
X-87879Y288132D02*
D03*
X-81868Y282121D02*
D03*
X-98132Y277879D02*
D03*
X-92121Y271868D02*
D03*
D18*
X-140000Y120000D02*
D03*
X-330000Y280000D02*
D03*
X-35002Y59998D02*
D03*
X-80002Y149998D02*
D03*
X-65002Y119998D02*
D03*
X-95002Y179998D02*
D03*
Y119998D02*
D03*
X-155002Y59998D02*
D03*
X-185002D02*
D03*
X-432000Y235000D02*
D03*
Y225000D02*
D03*
Y215000D02*
D03*
Y205000D02*
D03*
Y195000D02*
D03*
Y185000D02*
D03*
Y245000D02*
D03*
X-300000Y321500D02*
D03*
Y358500D02*
D03*
X-368000Y245000D02*
D03*
Y235000D02*
D03*
X-355750Y217250D02*
D03*
X-351000Y233500D02*
D03*
X-343617Y204617D02*
D03*
X-349617Y177500D02*
D03*
X-340000Y178000D02*
D03*
X-210250Y269250D02*
D03*
X-277250Y295750D02*
D03*
X-87879Y288132D02*
D03*
X-42750Y31750D02*
D03*
X-224750Y260750D02*
D03*
X-210250D02*
D03*
X-189250Y217250D02*
D03*
X-180750D02*
D03*
Y202750D02*
D03*
X-270000Y162000D02*
D03*
X-252000Y155000D02*
D03*
X-262500Y148000D02*
D03*
X-389000Y217000D02*
D03*
X-400000D02*
D03*
X-408000D02*
D03*
X-300000Y191500D02*
D03*
X-300250Y228250D02*
D03*
X-440002Y89998D02*
D03*
X-425002Y299998D02*
D03*
X-440002Y329998D02*
D03*
X-410002Y89998D02*
D03*
Y329998D02*
D03*
X-380002Y89998D02*
D03*
X-365002Y119998D02*
D03*
X-244000Y258000D02*
D03*
X-243000Y283000D02*
D03*
X-399000Y164000D02*
D03*
X-365002Y299998D02*
D03*
X-380002Y329998D02*
D03*
X-335002Y59998D02*
D03*
X-350002Y89998D02*
D03*
X-335002Y119998D02*
D03*
X-350002Y269998D02*
D03*
X-335002Y299998D02*
D03*
Y359998D02*
D03*
X-320002Y89998D02*
D03*
X-305002Y299998D02*
D03*
X-290002Y89998D02*
D03*
X-200002Y29998D02*
D03*
Y89998D02*
D03*
Y149998D02*
D03*
X-185002Y299998D02*
D03*
Y359998D02*
D03*
X-170002Y29998D02*
D03*
Y89998D02*
D03*
Y149998D02*
D03*
X-155002Y359998D02*
D03*
X-140002Y89998D02*
D03*
Y149998D02*
D03*
Y329998D02*
D03*
X-125002Y359998D02*
D03*
X-110002Y89998D02*
D03*
Y149998D02*
D03*
X-65002Y179998D02*
D03*
X-80002Y209998D02*
D03*
X-35002Y119998D02*
D03*
Y179998D02*
D03*
Y239998D02*
D03*
X-50002Y269998D02*
D03*
X-20002Y29998D02*
D03*
X-5002Y59998D02*
D03*
X-20002Y89998D02*
D03*
X-5002Y119998D02*
D03*
X-20002Y149998D02*
D03*
X-5002Y179998D02*
D03*
X-20002Y209998D02*
D03*
X-275000Y258000D02*
D03*
M02*
