G04*
G04 #@! TF.GenerationSoftware,Altium Limited,Altium Designer,25.8.1 (18)*
G04*
G04 Layer_Physical_Order=4*
G04 Layer_Color=6736896*
%FSLAX44Y44*%
%MOMM*%
G71*
G04*
G04 #@! TF.SameCoordinates,C421158E-91D1-49F8-A509-D43C158E3BDD*
G04*
G04*
G04 #@! TF.FilePolarity,Positive*
G04*
G01*
G75*
%ADD11C,0.2500*%
%ADD39C,0.4000*%
%ADD67C,1.5700*%
G04:AMPARAMS|DCode=70|XSize=1.6mm|YSize=3.2mm|CornerRadius=0.8mm|HoleSize=0mm|Usage=FLASHONLY|Rotation=90.000|XOffset=0mm|YOffset=0mm|HoleType=Round|Shape=RoundedRectangle|*
%AMROUNDEDRECTD70*
21,1,1.6000,1.6000,0,0,90.0*
21,1,0.0000,3.2000,0,0,90.0*
1,1,1.6000,0.8000,0.0000*
1,1,1.6000,0.8000,0.0000*
1,1,1.6000,-0.8000,0.0000*
1,1,1.6000,-0.8000,0.0000*
%
%ADD70ROUNDEDRECTD70*%
G04:AMPARAMS|DCode=71|XSize=3.2mm|YSize=1.6mm|CornerRadius=0.8mm|HoleSize=0mm|Usage=FLASHONLY|Rotation=90.000|XOffset=0mm|YOffset=0mm|HoleType=Round|Shape=RoundedRectangle|*
%AMROUNDEDRECTD71*
21,1,3.2000,0.0000,0,0,90.0*
21,1,1.6000,1.6000,0,0,90.0*
1,1,1.6000,0.0000,0.8000*
1,1,1.6000,0.0000,-0.8000*
1,1,1.6000,0.0000,-0.8000*
1,1,1.6000,0.0000,0.8000*
%
%ADD71ROUNDEDRECTD71*%
%ADD75R,1.6000X3.2000*%
%ADD84C,0.3000*%
%ADD85C,5.0000*%
%ADD86C,0.5000*%
%ADD87C,1.5300*%
%ADD88C,1.0000*%
%ADD89C,3.2500*%
%ADD90C,2.4000*%
%ADD91C,1.3980*%
%ADD93C,2.5000*%
%ADD94C,0.6600*%
%ADD95C,1.5240*%
G36*
X1240000Y1097961D02*
X1242488D01*
X1247422Y1097311D01*
X1252228Y1096023D01*
X1256826Y1094119D01*
X1261135Y1091631D01*
X1265083Y1088602D01*
X1268602Y1085083D01*
X1271631Y1081135D01*
X1274119Y1076826D01*
X1276023Y1072228D01*
X1277311Y1067422D01*
X1277961Y1062488D01*
X1277961Y1060000D01*
X1277961Y40000D01*
X1277961Y37512D01*
X1277311Y32578D01*
X1276023Y27772D01*
X1274119Y23174D01*
X1271631Y18865D01*
X1268602Y14917D01*
X1265083Y11398D01*
X1261135Y8369D01*
X1256826Y5881D01*
X1252228Y3977D01*
X1247422Y2689D01*
X1242488Y2039D01*
X1240000D01*
X40000Y2039D01*
X37512D01*
X32578Y2688D01*
X27772Y3976D01*
X23174Y5881D01*
X18865Y8369D01*
X14917Y11398D01*
X11398Y14917D01*
X8369Y18865D01*
X5881Y23174D01*
X3976Y27772D01*
X2688Y32578D01*
X2039Y37512D01*
X2039Y40000D01*
X2039Y1060000D01*
Y1062488D01*
X2689Y1067422D01*
X3977Y1072228D01*
X5881Y1076826D01*
X8369Y1081135D01*
X11398Y1085083D01*
X14917Y1088602D01*
X18865Y1091631D01*
X23174Y1094119D01*
X27771Y1096023D01*
X32578Y1097311D01*
X37512Y1097961D01*
X40000Y1097961D01*
X1240000Y1097961D01*
D02*
G37*
%LPC*%
G36*
X1242550Y1085889D02*
X1237450D01*
X1232449Y1084894D01*
X1227737Y1082943D01*
X1223497Y1080109D01*
X1219891Y1076503D01*
X1217057Y1072263D01*
X1215106Y1067551D01*
X1214111Y1062550D01*
Y1057450D01*
X1215106Y1052448D01*
X1217057Y1047737D01*
X1219891Y1043497D01*
X1223497Y1039891D01*
X1227737Y1037057D01*
X1232449Y1035106D01*
X1237450Y1034111D01*
X1242550D01*
X1247552Y1035106D01*
X1252263Y1037057D01*
X1256503Y1039891D01*
X1260109Y1043497D01*
X1262943Y1047737D01*
X1264894Y1052448D01*
X1265889Y1057450D01*
Y1062550D01*
X1264894Y1067551D01*
X1262943Y1072263D01*
X1260109Y1076503D01*
X1256503Y1080109D01*
X1252263Y1082943D01*
X1247552Y1084894D01*
X1242550Y1085889D01*
D02*
G37*
G36*
X942550D02*
X937450D01*
X932449Y1084894D01*
X927737Y1082943D01*
X923497Y1080109D01*
X919891Y1076503D01*
X917057Y1072263D01*
X915106Y1067551D01*
X914111Y1062550D01*
Y1057450D01*
X915106Y1052448D01*
X917057Y1047737D01*
X919891Y1043497D01*
X923497Y1039891D01*
X927737Y1037057D01*
X932449Y1035106D01*
X937450Y1034111D01*
X942550D01*
X947551Y1035106D01*
X952263Y1037057D01*
X956503Y1039891D01*
X960109Y1043497D01*
X962943Y1047737D01*
X964894Y1052448D01*
X965889Y1057450D01*
Y1062550D01*
X964894Y1067551D01*
X962943Y1072263D01*
X960109Y1076503D01*
X956503Y1080109D01*
X952263Y1082943D01*
X947551Y1084894D01*
X942550Y1085889D01*
D02*
G37*
G36*
X642550D02*
X637450D01*
X632449Y1084894D01*
X627737Y1082943D01*
X623497Y1080109D01*
X619891Y1076503D01*
X617057Y1072263D01*
X615106Y1067551D01*
X614111Y1062550D01*
Y1057450D01*
X615106Y1052448D01*
X617057Y1047737D01*
X619891Y1043497D01*
X623497Y1039891D01*
X627737Y1037057D01*
X632449Y1035106D01*
X637450Y1034111D01*
X642550D01*
X647552Y1035106D01*
X652263Y1037057D01*
X656503Y1039891D01*
X660109Y1043497D01*
X662943Y1047737D01*
X664894Y1052448D01*
X665889Y1057450D01*
Y1062550D01*
X664894Y1067551D01*
X662943Y1072263D01*
X660109Y1076503D01*
X656503Y1080109D01*
X652263Y1082943D01*
X647552Y1084894D01*
X642550Y1085889D01*
D02*
G37*
G36*
X342550D02*
X337450D01*
X332449Y1084894D01*
X327737Y1082943D01*
X323497Y1080109D01*
X319891Y1076503D01*
X317057Y1072263D01*
X315106Y1067551D01*
X314111Y1062550D01*
Y1057450D01*
X315106Y1052448D01*
X317057Y1047737D01*
X319891Y1043497D01*
X323497Y1039891D01*
X327737Y1037057D01*
X332449Y1035106D01*
X337450Y1034111D01*
X342550D01*
X347552Y1035106D01*
X352263Y1037057D01*
X356503Y1039891D01*
X360109Y1043497D01*
X362943Y1047737D01*
X364894Y1052448D01*
X365889Y1057450D01*
Y1062550D01*
X364894Y1067551D01*
X362943Y1072263D01*
X360109Y1076503D01*
X356503Y1080109D01*
X352263Y1082943D01*
X347552Y1084894D01*
X342550Y1085889D01*
D02*
G37*
G36*
X42550D02*
X37450D01*
X32448Y1084894D01*
X27737Y1082943D01*
X23497Y1080109D01*
X19891Y1076503D01*
X17057Y1072263D01*
X15106Y1067551D01*
X14111Y1062550D01*
Y1057450D01*
X15106Y1052448D01*
X17057Y1047737D01*
X19891Y1043497D01*
X23497Y1039891D01*
X27737Y1037057D01*
X32448Y1035106D01*
X37450Y1034111D01*
X42550D01*
X47551Y1035106D01*
X52263Y1037057D01*
X56503Y1039891D01*
X60109Y1043497D01*
X62943Y1047737D01*
X64894Y1052448D01*
X65889Y1057450D01*
Y1062550D01*
X64894Y1067551D01*
X62943Y1072263D01*
X60109Y1076503D01*
X56503Y1080109D01*
X52263Y1082943D01*
X47551Y1084894D01*
X42550Y1085889D01*
D02*
G37*
G36*
X826763Y1032089D02*
X823237D01*
X819832Y1031177D01*
X816779Y1029414D01*
X814286Y1026921D01*
X812523Y1023868D01*
X811611Y1020463D01*
Y1016937D01*
X812523Y1013532D01*
X814286Y1010479D01*
X816779Y1007986D01*
X819832Y1006223D01*
X823237Y1005311D01*
X826763D01*
X830168Y1006223D01*
X833221Y1007986D01*
X835714Y1010479D01*
X837477Y1013532D01*
X838389Y1016937D01*
Y1020463D01*
X837477Y1023868D01*
X835714Y1026921D01*
X833221Y1029414D01*
X830168Y1031177D01*
X826763Y1032089D01*
D02*
G37*
G36*
X756763D02*
X753237D01*
X749832Y1031177D01*
X746779Y1029414D01*
X744286Y1026921D01*
X742523Y1023868D01*
X741611Y1020463D01*
Y1016937D01*
X742523Y1013532D01*
X744286Y1010479D01*
X746779Y1007986D01*
X749832Y1006223D01*
X753237Y1005311D01*
X756763D01*
X760168Y1006223D01*
X763221Y1007986D01*
X765714Y1010479D01*
X767477Y1013532D01*
X768389Y1016937D01*
Y1020463D01*
X767477Y1023868D01*
X765714Y1026921D01*
X763221Y1029414D01*
X760168Y1031177D01*
X756763Y1032089D01*
D02*
G37*
G36*
X526763D02*
X523237D01*
X519832Y1031177D01*
X516779Y1029414D01*
X514286Y1026921D01*
X512523Y1023868D01*
X511611Y1020463D01*
Y1016937D01*
X512523Y1013532D01*
X514286Y1010479D01*
X516779Y1007986D01*
X519832Y1006223D01*
X523237Y1005311D01*
X526763D01*
X530168Y1006223D01*
X533221Y1007986D01*
X535714Y1010479D01*
X537477Y1013532D01*
X538389Y1016937D01*
Y1020463D01*
X537477Y1023868D01*
X535714Y1026921D01*
X533221Y1029414D01*
X530168Y1031177D01*
X526763Y1032089D01*
D02*
G37*
G36*
X456763D02*
X453237D01*
X449832Y1031177D01*
X446779Y1029414D01*
X444286Y1026921D01*
X442523Y1023868D01*
X441611Y1020463D01*
Y1016937D01*
X442523Y1013532D01*
X444286Y1010479D01*
X446779Y1007986D01*
X449832Y1006223D01*
X453237Y1005311D01*
X456763D01*
X460168Y1006223D01*
X463221Y1007986D01*
X465714Y1010479D01*
X467477Y1013532D01*
X468389Y1016937D01*
Y1020463D01*
X467477Y1023868D01*
X465714Y1026921D01*
X463221Y1029414D01*
X460168Y1031177D01*
X456763Y1032089D01*
D02*
G37*
G36*
X226763D02*
X223237D01*
X219832Y1031177D01*
X216779Y1029414D01*
X214286Y1026921D01*
X212523Y1023868D01*
X211611Y1020463D01*
Y1016937D01*
X212523Y1013532D01*
X214286Y1010479D01*
X216779Y1007986D01*
X219832Y1006223D01*
X223237Y1005311D01*
X226763D01*
X230168Y1006223D01*
X233221Y1007986D01*
X235714Y1010479D01*
X237477Y1013532D01*
X238389Y1016937D01*
Y1020463D01*
X237477Y1023868D01*
X235714Y1026921D01*
X233221Y1029414D01*
X230168Y1031177D01*
X226763Y1032089D01*
D02*
G37*
G36*
X156763D02*
X153237D01*
X149832Y1031177D01*
X146779Y1029414D01*
X144286Y1026921D01*
X142523Y1023868D01*
X141611Y1020463D01*
Y1016937D01*
X142523Y1013532D01*
X144286Y1010479D01*
X146779Y1007986D01*
X149832Y1006223D01*
X153237Y1005311D01*
X156763D01*
X160168Y1006223D01*
X163221Y1007986D01*
X165714Y1010479D01*
X167477Y1013532D01*
X168389Y1016937D01*
Y1020463D01*
X167477Y1023868D01*
X165714Y1026921D01*
X163221Y1029414D01*
X160168Y1031177D01*
X156763Y1032089D01*
D02*
G37*
G36*
X1126763Y1032089D02*
X1123237D01*
X1119832Y1031177D01*
X1116779Y1029414D01*
X1114286Y1026921D01*
X1112523Y1023868D01*
X1111611Y1020463D01*
Y1016937D01*
X1112523Y1013532D01*
X1114286Y1010479D01*
X1116779Y1007986D01*
X1119832Y1006223D01*
X1123237Y1005311D01*
X1126763D01*
X1130168Y1006223D01*
X1133221Y1007986D01*
X1135714Y1010479D01*
X1137477Y1013532D01*
X1138389Y1016937D01*
Y1020463D01*
X1137477Y1023868D01*
X1135714Y1026921D01*
X1133221Y1029414D01*
X1130168Y1031177D01*
X1126763Y1032089D01*
D02*
G37*
G36*
X1056763D02*
X1053237D01*
X1049832Y1031177D01*
X1046779Y1029414D01*
X1044286Y1026921D01*
X1042523Y1023868D01*
X1041611Y1020463D01*
Y1016937D01*
X1042523Y1013532D01*
X1044286Y1010479D01*
X1046779Y1007986D01*
X1049832Y1006223D01*
X1053237Y1005311D01*
X1056763D01*
X1060168Y1006223D01*
X1063221Y1007986D01*
X1065714Y1010479D01*
X1067477Y1013532D01*
X1068389Y1016937D01*
Y1020463D01*
X1067477Y1023868D01*
X1065714Y1026921D01*
X1063221Y1029414D01*
X1060168Y1031177D01*
X1056763Y1032089D01*
D02*
G37*
G36*
X801193Y1006000D02*
X798807D01*
X796601Y1005087D01*
X794913Y1003399D01*
X794000Y1001193D01*
Y998807D01*
X794913Y996601D01*
X796601Y994913D01*
X798807Y994000D01*
X801193D01*
X803399Y994913D01*
X805087Y996601D01*
X806000Y998807D01*
Y1001193D01*
X805087Y1003399D01*
X803399Y1005087D01*
X801193Y1006000D01*
D02*
G37*
G36*
X781193D02*
X778807D01*
X776601Y1005087D01*
X774913Y1003399D01*
X774000Y1001193D01*
Y998807D01*
X774913Y996601D01*
X776601Y994913D01*
X778807Y994000D01*
X781193D01*
X783399Y994913D01*
X785087Y996601D01*
X786000Y998807D01*
Y1001193D01*
X785087Y1003399D01*
X783399Y1005087D01*
X781193Y1006000D01*
D02*
G37*
G36*
X501194D02*
X498807D01*
X496601Y1005087D01*
X494913Y1003399D01*
X494000Y1001193D01*
Y998807D01*
X494913Y996601D01*
X496601Y994913D01*
X498807Y994000D01*
X501194D01*
X503399Y994913D01*
X505087Y996601D01*
X506000Y998807D01*
Y1001193D01*
X505087Y1003399D01*
X503399Y1005087D01*
X501194Y1006000D01*
D02*
G37*
G36*
X481194D02*
X478807D01*
X476601Y1005087D01*
X474913Y1003399D01*
X474000Y1001193D01*
Y998807D01*
X474913Y996601D01*
X476601Y994913D01*
X478807Y994000D01*
X481194D01*
X483399Y994913D01*
X485087Y996601D01*
X486000Y998807D01*
Y1001193D01*
X485087Y1003399D01*
X483399Y1005087D01*
X481194Y1006000D01*
D02*
G37*
G36*
X201194D02*
X198807D01*
X196601Y1005087D01*
X194914Y1003399D01*
X194000Y1001193D01*
Y998807D01*
X194914Y996601D01*
X196601Y994913D01*
X198807Y994000D01*
X201194D01*
X203399Y994913D01*
X205087Y996601D01*
X206000Y998807D01*
Y1001193D01*
X205087Y1003399D01*
X203399Y1005087D01*
X201194Y1006000D01*
D02*
G37*
G36*
X181194D02*
X178807D01*
X176601Y1005087D01*
X174914Y1003399D01*
X174000Y1001193D01*
Y998807D01*
X174914Y996601D01*
X176601Y994913D01*
X178807Y994000D01*
X181194D01*
X183399Y994913D01*
X185087Y996601D01*
X186000Y998807D01*
Y1001193D01*
X185087Y1003399D01*
X183399Y1005087D01*
X181194Y1006000D01*
D02*
G37*
G36*
X1101193Y1006000D02*
X1098807D01*
X1096601Y1005087D01*
X1094913Y1003399D01*
X1094000Y1001193D01*
Y998807D01*
X1094913Y996601D01*
X1096601Y994913D01*
X1098807Y994000D01*
X1101193D01*
X1103399Y994913D01*
X1105087Y996601D01*
X1106000Y998807D01*
Y1001193D01*
X1105087Y1003399D01*
X1103399Y1005087D01*
X1101193Y1006000D01*
D02*
G37*
G36*
X1081193D02*
X1078807D01*
X1076601Y1005087D01*
X1074913Y1003399D01*
X1074000Y1001193D01*
Y998807D01*
X1074913Y996601D01*
X1076601Y994913D01*
X1078807Y994000D01*
X1081193D01*
X1083399Y994913D01*
X1085087Y996601D01*
X1086000Y998807D01*
Y1001193D01*
X1085087Y1003399D01*
X1083399Y1005087D01*
X1081193Y1006000D01*
D02*
G37*
G36*
X1003296Y991500D02*
X1001704D01*
X1000234Y990891D01*
X999109Y989766D01*
X998500Y988296D01*
Y986704D01*
X999109Y985234D01*
X1000234Y984109D01*
X1001704Y983500D01*
X1003296D01*
X1004766Y984109D01*
X1005891Y985234D01*
X1006500Y986704D01*
Y988296D01*
X1005891Y989766D01*
X1004766Y990891D01*
X1003296Y991500D01*
D02*
G37*
G36*
X703296D02*
X701704D01*
X700234Y990891D01*
X699109Y989766D01*
X698500Y988296D01*
Y986704D01*
X699109Y985234D01*
X700234Y984109D01*
X701704Y983500D01*
X703296D01*
X704766Y984109D01*
X705891Y985234D01*
X706500Y986704D01*
Y988296D01*
X705891Y989766D01*
X704766Y990891D01*
X703296Y991500D01*
D02*
G37*
G36*
X403296D02*
X401704D01*
X400234Y990891D01*
X399109Y989766D01*
X398500Y988296D01*
Y986704D01*
X399109Y985234D01*
X400234Y984109D01*
X401704Y983500D01*
X403296D01*
X404766Y984109D01*
X405891Y985234D01*
X406500Y986704D01*
Y988296D01*
X405891Y989766D01*
X404766Y990891D01*
X403296Y991500D01*
D02*
G37*
G36*
X103296D02*
X101704D01*
X100234Y990891D01*
X99109Y989766D01*
X98500Y988296D01*
Y986704D01*
X99109Y985234D01*
X100234Y984109D01*
X101704Y983500D01*
X103296D01*
X104766Y984109D01*
X105891Y985234D01*
X106500Y986704D01*
Y988296D01*
X105891Y989766D01*
X104766Y990891D01*
X103296Y991500D01*
D02*
G37*
G36*
X1003296Y976500D02*
X1001704D01*
X1000234Y975891D01*
X999109Y974766D01*
X998500Y973296D01*
Y971704D01*
X999109Y970234D01*
X1000234Y969109D01*
X1001704Y968500D01*
X1003296D01*
X1004766Y969109D01*
X1005891Y970234D01*
X1006500Y971704D01*
Y973296D01*
X1005891Y974766D01*
X1004766Y975891D01*
X1003296Y976500D01*
D02*
G37*
G36*
X703296D02*
X701704D01*
X700234Y975891D01*
X699109Y974766D01*
X698500Y973296D01*
Y971704D01*
X699109Y970234D01*
X700234Y969109D01*
X701704Y968500D01*
X703296D01*
X704766Y969109D01*
X705891Y970234D01*
X706500Y971704D01*
Y973296D01*
X705891Y974766D01*
X704766Y975891D01*
X703296Y976500D01*
D02*
G37*
G36*
X403296D02*
X401704D01*
X400234Y975891D01*
X399109Y974766D01*
X398500Y973296D01*
Y971704D01*
X399109Y970234D01*
X400234Y969109D01*
X401704Y968500D01*
X403296D01*
X404766Y969109D01*
X405891Y970234D01*
X406500Y971704D01*
Y973296D01*
X405891Y974766D01*
X404766Y975891D01*
X403296Y976500D01*
D02*
G37*
G36*
X103296D02*
X101704D01*
X100234Y975891D01*
X99109Y974766D01*
X98500Y973296D01*
Y971704D01*
X99109Y970234D01*
X100234Y969109D01*
X101704Y968500D01*
X103296D01*
X104766Y969109D01*
X105891Y970234D01*
X106500Y971704D01*
Y973296D01*
X105891Y974766D01*
X104766Y975891D01*
X103296Y976500D01*
D02*
G37*
G36*
X1090796Y974000D02*
X1089204D01*
X1087734Y973391D01*
X1086609Y972266D01*
X1086000Y970796D01*
Y969204D01*
X1086609Y967734D01*
X1087734Y966609D01*
X1089204Y966000D01*
X1090796D01*
X1092266Y966609D01*
X1093391Y967734D01*
X1094000Y969204D01*
Y970796D01*
X1093391Y972266D01*
X1092266Y973391D01*
X1090796Y974000D01*
D02*
G37*
G36*
X790796D02*
X789204D01*
X787734Y973391D01*
X786609Y972266D01*
X786000Y970796D01*
Y969204D01*
X786609Y967734D01*
X787734Y966609D01*
X789204Y966000D01*
X790796D01*
X792266Y966609D01*
X793391Y967734D01*
X794000Y969204D01*
Y970796D01*
X793391Y972266D01*
X792266Y973391D01*
X790796Y974000D01*
D02*
G37*
G36*
X490796D02*
X489204D01*
X487734Y973391D01*
X486609Y972266D01*
X486000Y970796D01*
Y969204D01*
X486609Y967734D01*
X487734Y966609D01*
X489204Y966000D01*
X490796D01*
X492266Y966609D01*
X493391Y967734D01*
X494000Y969204D01*
Y970796D01*
X493391Y972266D01*
X492266Y973391D01*
X490796Y974000D01*
D02*
G37*
G36*
X190796D02*
X189204D01*
X187734Y973391D01*
X186609Y972266D01*
X186000Y970796D01*
Y969204D01*
X186609Y967734D01*
X187734Y966609D01*
X189204Y966000D01*
X190796D01*
X192266Y966609D01*
X193391Y967734D01*
X194000Y969204D01*
Y970796D01*
X193391Y972266D01*
X192266Y973391D01*
X190796Y974000D01*
D02*
G37*
G36*
X826763Y957089D02*
X823237D01*
X819832Y956177D01*
X816779Y954414D01*
X814286Y951921D01*
X812523Y948868D01*
X811611Y945463D01*
Y941937D01*
X812523Y938532D01*
X814286Y935479D01*
X816779Y932986D01*
X819832Y931223D01*
X823237Y930311D01*
X826763D01*
X830168Y931223D01*
X833221Y932986D01*
X835714Y935479D01*
X837477Y938532D01*
X838389Y941937D01*
Y945463D01*
X837477Y948868D01*
X835714Y951921D01*
X833221Y954414D01*
X830168Y956177D01*
X826763Y957089D01*
D02*
G37*
G36*
X756763D02*
X753237D01*
X749832Y956177D01*
X746779Y954414D01*
X744286Y951921D01*
X742523Y948868D01*
X741611Y945463D01*
Y941937D01*
X742523Y938532D01*
X744286Y935479D01*
X746779Y932986D01*
X749832Y931223D01*
X753237Y930311D01*
X756763D01*
X760168Y931223D01*
X763221Y932986D01*
X765714Y935479D01*
X767477Y938532D01*
X768389Y941937D01*
Y945463D01*
X767477Y948868D01*
X765714Y951921D01*
X763221Y954414D01*
X760168Y956177D01*
X756763Y957089D01*
D02*
G37*
G36*
X526763D02*
X523237D01*
X519832Y956177D01*
X516779Y954414D01*
X514286Y951921D01*
X512523Y948868D01*
X511611Y945463D01*
Y941937D01*
X512523Y938532D01*
X514286Y935479D01*
X516779Y932986D01*
X519832Y931223D01*
X523237Y930311D01*
X526763D01*
X530168Y931223D01*
X533221Y932986D01*
X535714Y935479D01*
X537477Y938532D01*
X538389Y941937D01*
Y945463D01*
X537477Y948868D01*
X535714Y951921D01*
X533221Y954414D01*
X530168Y956177D01*
X526763Y957089D01*
D02*
G37*
G36*
X456763D02*
X453237D01*
X449832Y956177D01*
X446779Y954414D01*
X444286Y951921D01*
X442523Y948868D01*
X441611Y945463D01*
Y941937D01*
X442523Y938532D01*
X444286Y935479D01*
X446779Y932986D01*
X449832Y931223D01*
X453237Y930311D01*
X456763D01*
X460168Y931223D01*
X463221Y932986D01*
X465714Y935479D01*
X467477Y938532D01*
X468389Y941937D01*
Y945463D01*
X467477Y948868D01*
X465714Y951921D01*
X463221Y954414D01*
X460168Y956177D01*
X456763Y957089D01*
D02*
G37*
G36*
X226763D02*
X223237D01*
X219832Y956177D01*
X216779Y954414D01*
X214286Y951921D01*
X212523Y948868D01*
X211611Y945463D01*
Y941937D01*
X212523Y938532D01*
X214286Y935479D01*
X216779Y932986D01*
X219832Y931223D01*
X223237Y930311D01*
X226763D01*
X230168Y931223D01*
X233221Y932986D01*
X235714Y935479D01*
X237477Y938532D01*
X238389Y941937D01*
Y945463D01*
X237477Y948868D01*
X235714Y951921D01*
X233221Y954414D01*
X230168Y956177D01*
X226763Y957089D01*
D02*
G37*
G36*
X156763D02*
X153237D01*
X149832Y956177D01*
X146779Y954414D01*
X144286Y951921D01*
X142523Y948868D01*
X141611Y945463D01*
Y941937D01*
X142523Y938532D01*
X144286Y935479D01*
X146779Y932986D01*
X149832Y931223D01*
X153237Y930311D01*
X156763D01*
X160168Y931223D01*
X163221Y932986D01*
X165714Y935479D01*
X167477Y938532D01*
X168389Y941937D01*
Y945463D01*
X167477Y948868D01*
X165714Y951921D01*
X163221Y954414D01*
X160168Y956177D01*
X156763Y957089D01*
D02*
G37*
G36*
X1126763Y957089D02*
X1123237D01*
X1119832Y956177D01*
X1116779Y954414D01*
X1114286Y951921D01*
X1112523Y948868D01*
X1111611Y945463D01*
Y941937D01*
X1112523Y938532D01*
X1114286Y935479D01*
X1116779Y932986D01*
X1119832Y931223D01*
X1123237Y930311D01*
X1126763D01*
X1130168Y931223D01*
X1133221Y932986D01*
X1135714Y935479D01*
X1137477Y938532D01*
X1138389Y941937D01*
Y945463D01*
X1137477Y948868D01*
X1135714Y951921D01*
X1133221Y954414D01*
X1130168Y956177D01*
X1126763Y957089D01*
D02*
G37*
G36*
X1056763D02*
X1053237D01*
X1049832Y956177D01*
X1046779Y954414D01*
X1044286Y951921D01*
X1042523Y948868D01*
X1041611Y945463D01*
Y941937D01*
X1042523Y938532D01*
X1044286Y935479D01*
X1046779Y932986D01*
X1049832Y931223D01*
X1053237Y930311D01*
X1056763D01*
X1060168Y931223D01*
X1063221Y932986D01*
X1065714Y935479D01*
X1067477Y938532D01*
X1068389Y941937D01*
Y945463D01*
X1067477Y948868D01*
X1065714Y951921D01*
X1063221Y954414D01*
X1060168Y956177D01*
X1056763Y957089D01*
D02*
G37*
G36*
X1035796Y904000D02*
X1034204D01*
X1032734Y903391D01*
X1031609Y902266D01*
X1031000Y900796D01*
Y899204D01*
X1031609Y897734D01*
X1032734Y896609D01*
X1034204Y896000D01*
X1035796D01*
X1037266Y896609D01*
X1038391Y897734D01*
X1039000Y899204D01*
Y900796D01*
X1038391Y902266D01*
X1037266Y903391D01*
X1035796Y904000D01*
D02*
G37*
G36*
X735796D02*
X734204D01*
X732734Y903391D01*
X731609Y902266D01*
X731000Y900796D01*
Y899204D01*
X731609Y897734D01*
X732734Y896609D01*
X734204Y896000D01*
X735796D01*
X737266Y896609D01*
X738391Y897734D01*
X739000Y899204D01*
Y900796D01*
X738391Y902266D01*
X737266Y903391D01*
X735796Y904000D01*
D02*
G37*
G36*
X435796D02*
X434204D01*
X432734Y903391D01*
X431609Y902266D01*
X431000Y900796D01*
Y899204D01*
X431609Y897734D01*
X432734Y896609D01*
X434204Y896000D01*
X435796D01*
X437266Y896609D01*
X438391Y897734D01*
X439000Y899204D01*
Y900796D01*
X438391Y902266D01*
X437266Y903391D01*
X435796Y904000D01*
D02*
G37*
G36*
X135796D02*
X134204D01*
X132734Y903391D01*
X131609Y902266D01*
X131000Y900796D01*
Y899204D01*
X131609Y897734D01*
X132734Y896609D01*
X134204Y896000D01*
X135796D01*
X137266Y896609D01*
X138391Y897734D01*
X139000Y899204D01*
Y900796D01*
X138391Y902266D01*
X137266Y903391D01*
X135796Y904000D01*
D02*
G37*
G36*
X1115796Y874000D02*
X1114204D01*
X1112734Y873391D01*
X1111609Y872266D01*
X1111000Y870796D01*
Y869204D01*
X1111609Y867734D01*
X1112734Y866609D01*
X1114204Y866000D01*
X1115796D01*
X1117266Y866609D01*
X1118391Y867734D01*
X1119000Y869204D01*
Y870796D01*
X1118391Y872266D01*
X1117266Y873391D01*
X1115796Y874000D01*
D02*
G37*
G36*
X815796D02*
X814204D01*
X812734Y873391D01*
X811609Y872266D01*
X811000Y870796D01*
Y869204D01*
X811609Y867734D01*
X812734Y866609D01*
X814204Y866000D01*
X815796D01*
X817266Y866609D01*
X818391Y867734D01*
X819000Y869204D01*
Y870796D01*
X818391Y872266D01*
X817266Y873391D01*
X815796Y874000D01*
D02*
G37*
G36*
X515796D02*
X514204D01*
X512734Y873391D01*
X511609Y872266D01*
X511000Y870796D01*
Y869204D01*
X511609Y867734D01*
X512734Y866609D01*
X514204Y866000D01*
X515796D01*
X517266Y866609D01*
X518391Y867734D01*
X519000Y869204D01*
Y870796D01*
X518391Y872266D01*
X517266Y873391D01*
X515796Y874000D01*
D02*
G37*
G36*
X215796D02*
X214204D01*
X212734Y873391D01*
X211609Y872266D01*
X211000Y870796D01*
Y869204D01*
X211609Y867734D01*
X212734Y866609D01*
X214204Y866000D01*
X215796D01*
X217266Y866609D01*
X218391Y867734D01*
X219000Y869204D01*
Y870796D01*
X218391Y872266D01*
X217266Y873391D01*
X215796Y874000D01*
D02*
G37*
G36*
X1150796Y861500D02*
X1149204D01*
X1147734Y860891D01*
X1146609Y859766D01*
X1146000Y858296D01*
Y856704D01*
X1146609Y855234D01*
X1147734Y854109D01*
X1149204Y853500D01*
X1150796D01*
X1152266Y854109D01*
X1153391Y855234D01*
X1154000Y856704D01*
Y858296D01*
X1153391Y859766D01*
X1152266Y860891D01*
X1150796Y861500D01*
D02*
G37*
G36*
X850796D02*
X849204D01*
X847734Y860891D01*
X846609Y859766D01*
X846000Y858296D01*
Y856704D01*
X846609Y855234D01*
X847734Y854109D01*
X849204Y853500D01*
X850796D01*
X852266Y854109D01*
X853391Y855234D01*
X854000Y856704D01*
Y858296D01*
X853391Y859766D01*
X852266Y860891D01*
X850796Y861500D01*
D02*
G37*
G36*
X550796D02*
X549204D01*
X547734Y860891D01*
X546609Y859766D01*
X546000Y858296D01*
Y856704D01*
X546609Y855234D01*
X547734Y854109D01*
X549204Y853500D01*
X550796D01*
X552266Y854109D01*
X553391Y855234D01*
X554000Y856704D01*
Y858296D01*
X553391Y859766D01*
X552266Y860891D01*
X550796Y861500D01*
D02*
G37*
G36*
X250796D02*
X249204D01*
X247734Y860891D01*
X246609Y859766D01*
X246000Y858296D01*
Y856704D01*
X246609Y855234D01*
X247734Y854109D01*
X249204Y853500D01*
X250796D01*
X252266Y854109D01*
X253391Y855234D01*
X254000Y856704D01*
Y858296D01*
X253391Y859766D01*
X252266Y860891D01*
X250796Y861500D01*
D02*
G37*
G36*
X1109796Y854000D02*
X1108204D01*
X1106734Y853391D01*
X1105609Y852266D01*
X1105000Y850796D01*
Y849204D01*
X1105609Y847734D01*
X1106734Y846609D01*
X1108204Y846000D01*
X1109796D01*
X1111266Y846609D01*
X1112391Y847734D01*
X1113000Y849204D01*
Y850796D01*
X1112391Y852266D01*
X1111266Y853391D01*
X1109796Y854000D01*
D02*
G37*
G36*
X1075796D02*
X1074204D01*
X1072734Y853391D01*
X1071609Y852266D01*
X1071000Y850796D01*
Y849204D01*
X1071609Y847734D01*
X1072734Y846609D01*
X1074204Y846000D01*
X1075796D01*
X1077266Y846609D01*
X1078391Y847734D01*
X1079000Y849204D01*
Y850796D01*
X1078391Y852266D01*
X1077266Y853391D01*
X1075796Y854000D01*
D02*
G37*
G36*
X1050796D02*
X1049204D01*
X1047734Y853391D01*
X1046609Y852266D01*
X1046000Y850796D01*
Y849204D01*
X1046609Y847734D01*
X1047734Y846609D01*
X1049204Y846000D01*
X1050796D01*
X1052266Y846609D01*
X1053391Y847734D01*
X1054000Y849204D01*
Y850796D01*
X1053391Y852266D01*
X1052266Y853391D01*
X1050796Y854000D01*
D02*
G37*
G36*
X809796D02*
X808204D01*
X806734Y853391D01*
X805609Y852266D01*
X805000Y850796D01*
Y849204D01*
X805609Y847734D01*
X806734Y846609D01*
X808204Y846000D01*
X809796D01*
X811266Y846609D01*
X812391Y847734D01*
X813000Y849204D01*
Y850796D01*
X812391Y852266D01*
X811266Y853391D01*
X809796Y854000D01*
D02*
G37*
G36*
X775796D02*
X774204D01*
X772734Y853391D01*
X771609Y852266D01*
X771000Y850796D01*
Y849204D01*
X771609Y847734D01*
X772734Y846609D01*
X774204Y846000D01*
X775796D01*
X777266Y846609D01*
X778391Y847734D01*
X779000Y849204D01*
Y850796D01*
X778391Y852266D01*
X777266Y853391D01*
X775796Y854000D01*
D02*
G37*
G36*
X750796D02*
X749204D01*
X747734Y853391D01*
X746609Y852266D01*
X746000Y850796D01*
Y849204D01*
X746609Y847734D01*
X747734Y846609D01*
X749204Y846000D01*
X750796D01*
X752266Y846609D01*
X753391Y847734D01*
X754000Y849204D01*
Y850796D01*
X753391Y852266D01*
X752266Y853391D01*
X750796Y854000D01*
D02*
G37*
G36*
X509796D02*
X508204D01*
X506734Y853391D01*
X505609Y852266D01*
X505000Y850796D01*
Y849204D01*
X505609Y847734D01*
X506734Y846609D01*
X508204Y846000D01*
X509796D01*
X511266Y846609D01*
X512391Y847734D01*
X513000Y849204D01*
Y850796D01*
X512391Y852266D01*
X511266Y853391D01*
X509796Y854000D01*
D02*
G37*
G36*
X475796D02*
X474204D01*
X472734Y853391D01*
X471609Y852266D01*
X471000Y850796D01*
Y849204D01*
X471609Y847734D01*
X472734Y846609D01*
X474204Y846000D01*
X475796D01*
X477266Y846609D01*
X478391Y847734D01*
X479000Y849204D01*
Y850796D01*
X478391Y852266D01*
X477266Y853391D01*
X475796Y854000D01*
D02*
G37*
G36*
X450796D02*
X449204D01*
X447734Y853391D01*
X446609Y852266D01*
X446000Y850796D01*
Y849204D01*
X446609Y847734D01*
X447734Y846609D01*
X449204Y846000D01*
X450796D01*
X452266Y846609D01*
X453391Y847734D01*
X454000Y849204D01*
Y850796D01*
X453391Y852266D01*
X452266Y853391D01*
X450796Y854000D01*
D02*
G37*
G36*
X209796D02*
X208204D01*
X206734Y853391D01*
X205609Y852266D01*
X205000Y850796D01*
Y849204D01*
X205609Y847734D01*
X206734Y846609D01*
X208204Y846000D01*
X209796D01*
X211266Y846609D01*
X212391Y847734D01*
X213000Y849204D01*
Y850796D01*
X212391Y852266D01*
X211266Y853391D01*
X209796Y854000D01*
D02*
G37*
G36*
X175796D02*
X174204D01*
X172734Y853391D01*
X171609Y852266D01*
X171000Y850796D01*
Y849204D01*
X171609Y847734D01*
X172734Y846609D01*
X174204Y846000D01*
X175796D01*
X177266Y846609D01*
X178391Y847734D01*
X179000Y849204D01*
Y850796D01*
X178391Y852266D01*
X177266Y853391D01*
X175796Y854000D01*
D02*
G37*
G36*
X150796D02*
X149204D01*
X147734Y853391D01*
X146609Y852266D01*
X146000Y850796D01*
Y849204D01*
X146609Y847734D01*
X147734Y846609D01*
X149204Y846000D01*
X150796D01*
X152266Y846609D01*
X153391Y847734D01*
X154000Y849204D01*
Y850796D01*
X153391Y852266D01*
X152266Y853391D01*
X150796Y854000D01*
D02*
G37*
G36*
X1130796Y847000D02*
X1129204D01*
X1127734Y846391D01*
X1126609Y845266D01*
X1126000Y843796D01*
Y842204D01*
X1126609Y840734D01*
X1127734Y839609D01*
X1129204Y839000D01*
X1130796D01*
X1132266Y839609D01*
X1133391Y840734D01*
X1134000Y842204D01*
Y843796D01*
X1133391Y845266D01*
X1132266Y846391D01*
X1130796Y847000D01*
D02*
G37*
G36*
X830796D02*
X829204D01*
X827734Y846391D01*
X826609Y845266D01*
X826000Y843796D01*
Y842204D01*
X826609Y840734D01*
X827734Y839609D01*
X829204Y839000D01*
X830796D01*
X832266Y839609D01*
X833391Y840734D01*
X834000Y842204D01*
Y843796D01*
X833391Y845266D01*
X832266Y846391D01*
X830796Y847000D01*
D02*
G37*
G36*
X530796D02*
X529204D01*
X527734Y846391D01*
X526609Y845266D01*
X526000Y843796D01*
Y842204D01*
X526609Y840734D01*
X527734Y839609D01*
X529204Y839000D01*
X530796D01*
X532266Y839609D01*
X533391Y840734D01*
X534000Y842204D01*
Y843796D01*
X533391Y845266D01*
X532266Y846391D01*
X530796Y847000D01*
D02*
G37*
G36*
X230796D02*
X229204D01*
X227734Y846391D01*
X226609Y845266D01*
X226000Y843796D01*
Y842204D01*
X226609Y840734D01*
X227734Y839609D01*
X229204Y839000D01*
X230796D01*
X232266Y839609D01*
X233391Y840734D01*
X234000Y842204D01*
Y843796D01*
X233391Y845266D01*
X232266Y846391D01*
X230796Y847000D01*
D02*
G37*
G36*
X1153296Y831500D02*
X1151704D01*
X1150234Y830891D01*
X1149109Y829766D01*
X1148500Y828296D01*
Y826704D01*
X1149109Y825234D01*
X1150234Y824109D01*
X1151704Y823500D01*
X1153296D01*
X1154766Y824109D01*
X1155891Y825234D01*
X1156500Y826704D01*
Y828296D01*
X1155891Y829766D01*
X1154766Y830891D01*
X1153296Y831500D01*
D02*
G37*
G36*
X1030796D02*
X1029204D01*
X1027734Y830891D01*
X1026609Y829766D01*
X1026000Y828296D01*
Y826704D01*
X1026609Y825234D01*
X1027734Y824109D01*
X1029204Y823500D01*
X1030796D01*
X1032266Y824109D01*
X1033391Y825234D01*
X1034000Y826704D01*
Y828296D01*
X1033391Y829766D01*
X1032266Y830891D01*
X1030796Y831500D01*
D02*
G37*
G36*
X853296D02*
X851704D01*
X850234Y830891D01*
X849109Y829766D01*
X848500Y828296D01*
Y826704D01*
X849109Y825234D01*
X850234Y824109D01*
X851704Y823500D01*
X853296D01*
X854766Y824109D01*
X855891Y825234D01*
X856500Y826704D01*
Y828296D01*
X855891Y829766D01*
X854766Y830891D01*
X853296Y831500D01*
D02*
G37*
G36*
X730796D02*
X729204D01*
X727734Y830891D01*
X726609Y829766D01*
X726000Y828296D01*
Y826704D01*
X726609Y825234D01*
X727734Y824109D01*
X729204Y823500D01*
X730796D01*
X732266Y824109D01*
X733391Y825234D01*
X734000Y826704D01*
Y828296D01*
X733391Y829766D01*
X732266Y830891D01*
X730796Y831500D01*
D02*
G37*
G36*
X553296D02*
X551704D01*
X550234Y830891D01*
X549109Y829766D01*
X548500Y828296D01*
Y826704D01*
X549109Y825234D01*
X550234Y824109D01*
X551704Y823500D01*
X553296D01*
X554766Y824109D01*
X555891Y825234D01*
X556500Y826704D01*
Y828296D01*
X555891Y829766D01*
X554766Y830891D01*
X553296Y831500D01*
D02*
G37*
G36*
X430796D02*
X429204D01*
X427734Y830891D01*
X426609Y829766D01*
X426000Y828296D01*
Y826704D01*
X426609Y825234D01*
X427734Y824109D01*
X429204Y823500D01*
X430796D01*
X432266Y824109D01*
X433391Y825234D01*
X434000Y826704D01*
Y828296D01*
X433391Y829766D01*
X432266Y830891D01*
X430796Y831500D01*
D02*
G37*
G36*
X253296D02*
X251704D01*
X250234Y830891D01*
X249109Y829766D01*
X248500Y828296D01*
Y826704D01*
X249109Y825234D01*
X250234Y824109D01*
X251704Y823500D01*
X253296D01*
X254766Y824109D01*
X255891Y825234D01*
X256500Y826704D01*
Y828296D01*
X255891Y829766D01*
X254766Y830891D01*
X253296Y831500D01*
D02*
G37*
G36*
X130796D02*
X129204D01*
X127734Y830891D01*
X126609Y829766D01*
X126000Y828296D01*
Y826704D01*
X126609Y825234D01*
X127734Y824109D01*
X129204Y823500D01*
X130796D01*
X132266Y824109D01*
X133391Y825234D01*
X134000Y826704D01*
Y828296D01*
X133391Y829766D01*
X132266Y830891D01*
X130796Y831500D01*
D02*
G37*
G36*
X1110796Y824000D02*
X1109204D01*
X1107734Y823391D01*
X1106609Y822266D01*
X1106000Y820796D01*
Y819204D01*
X1106609Y817734D01*
X1107734Y816609D01*
X1109204Y816000D01*
X1110796D01*
X1112266Y816609D01*
X1113391Y817734D01*
X1114000Y819204D01*
Y820796D01*
X1113391Y822266D01*
X1112266Y823391D01*
X1110796Y824000D01*
D02*
G37*
G36*
X1100796D02*
X1099204D01*
X1097734Y823391D01*
X1096609Y822266D01*
X1096000Y820796D01*
Y819204D01*
X1096609Y817734D01*
X1097734Y816609D01*
X1099204Y816000D01*
X1100796D01*
X1102266Y816609D01*
X1103391Y817734D01*
X1104000Y819204D01*
Y820796D01*
X1103391Y822266D01*
X1102266Y823391D01*
X1100796Y824000D01*
D02*
G37*
G36*
X1090796D02*
X1089204D01*
X1087734Y823391D01*
X1086609Y822266D01*
X1086000Y820796D01*
Y819204D01*
X1086609Y817734D01*
X1087734Y816609D01*
X1089204Y816000D01*
X1090796D01*
X1092266Y816609D01*
X1093391Y817734D01*
X1094000Y819204D01*
Y820796D01*
X1093391Y822266D01*
X1092266Y823391D01*
X1090796Y824000D01*
D02*
G37*
G36*
X1080796D02*
X1079204D01*
X1077734Y823391D01*
X1076609Y822266D01*
X1076000Y820796D01*
Y819204D01*
X1076609Y817734D01*
X1077734Y816609D01*
X1079204Y816000D01*
X1080796D01*
X1082266Y816609D01*
X1083391Y817734D01*
X1084000Y819204D01*
Y820796D01*
X1083391Y822266D01*
X1082266Y823391D01*
X1080796Y824000D01*
D02*
G37*
G36*
X1070796D02*
X1069204D01*
X1067734Y823391D01*
X1066609Y822266D01*
X1066000Y820796D01*
Y819204D01*
X1066609Y817734D01*
X1067734Y816609D01*
X1069204Y816000D01*
X1070796D01*
X1072266Y816609D01*
X1073391Y817734D01*
X1074000Y819204D01*
Y820796D01*
X1073391Y822266D01*
X1072266Y823391D01*
X1070796Y824000D01*
D02*
G37*
G36*
X810796D02*
X809204D01*
X807734Y823391D01*
X806609Y822266D01*
X806000Y820796D01*
Y819204D01*
X806609Y817734D01*
X807734Y816609D01*
X809204Y816000D01*
X810796D01*
X812266Y816609D01*
X813391Y817734D01*
X814000Y819204D01*
Y820796D01*
X813391Y822266D01*
X812266Y823391D01*
X810796Y824000D01*
D02*
G37*
G36*
X800796D02*
X799204D01*
X797734Y823391D01*
X796609Y822266D01*
X796000Y820796D01*
Y819204D01*
X796609Y817734D01*
X797734Y816609D01*
X799204Y816000D01*
X800796D01*
X802266Y816609D01*
X803391Y817734D01*
X804000Y819204D01*
Y820796D01*
X803391Y822266D01*
X802266Y823391D01*
X800796Y824000D01*
D02*
G37*
G36*
X790796D02*
X789204D01*
X787734Y823391D01*
X786609Y822266D01*
X786000Y820796D01*
Y819204D01*
X786609Y817734D01*
X787734Y816609D01*
X789204Y816000D01*
X790796D01*
X792266Y816609D01*
X793391Y817734D01*
X794000Y819204D01*
Y820796D01*
X793391Y822266D01*
X792266Y823391D01*
X790796Y824000D01*
D02*
G37*
G36*
X780796D02*
X779204D01*
X777734Y823391D01*
X776609Y822266D01*
X776000Y820796D01*
Y819204D01*
X776609Y817734D01*
X777734Y816609D01*
X779204Y816000D01*
X780796D01*
X782266Y816609D01*
X783391Y817734D01*
X784000Y819204D01*
Y820796D01*
X783391Y822266D01*
X782266Y823391D01*
X780796Y824000D01*
D02*
G37*
G36*
X770796D02*
X769204D01*
X767734Y823391D01*
X766609Y822266D01*
X766000Y820796D01*
Y819204D01*
X766609Y817734D01*
X767734Y816609D01*
X769204Y816000D01*
X770796D01*
X772266Y816609D01*
X773391Y817734D01*
X774000Y819204D01*
Y820796D01*
X773391Y822266D01*
X772266Y823391D01*
X770796Y824000D01*
D02*
G37*
G36*
X510796D02*
X509204D01*
X507734Y823391D01*
X506609Y822266D01*
X506000Y820796D01*
Y819204D01*
X506609Y817734D01*
X507734Y816609D01*
X509204Y816000D01*
X510796D01*
X512266Y816609D01*
X513391Y817734D01*
X514000Y819204D01*
Y820796D01*
X513391Y822266D01*
X512266Y823391D01*
X510796Y824000D01*
D02*
G37*
G36*
X500796D02*
X499204D01*
X497734Y823391D01*
X496609Y822266D01*
X496000Y820796D01*
Y819204D01*
X496609Y817734D01*
X497734Y816609D01*
X499204Y816000D01*
X500796D01*
X502266Y816609D01*
X503391Y817734D01*
X504000Y819204D01*
Y820796D01*
X503391Y822266D01*
X502266Y823391D01*
X500796Y824000D01*
D02*
G37*
G36*
X490796D02*
X489204D01*
X487734Y823391D01*
X486609Y822266D01*
X486000Y820796D01*
Y819204D01*
X486609Y817734D01*
X487734Y816609D01*
X489204Y816000D01*
X490796D01*
X492266Y816609D01*
X493391Y817734D01*
X494000Y819204D01*
Y820796D01*
X493391Y822266D01*
X492266Y823391D01*
X490796Y824000D01*
D02*
G37*
G36*
X480796D02*
X479204D01*
X477734Y823391D01*
X476609Y822266D01*
X476000Y820796D01*
Y819204D01*
X476609Y817734D01*
X477734Y816609D01*
X479204Y816000D01*
X480796D01*
X482266Y816609D01*
X483391Y817734D01*
X484000Y819204D01*
Y820796D01*
X483391Y822266D01*
X482266Y823391D01*
X480796Y824000D01*
D02*
G37*
G36*
X470796D02*
X469204D01*
X467734Y823391D01*
X466609Y822266D01*
X466000Y820796D01*
Y819204D01*
X466609Y817734D01*
X467734Y816609D01*
X469204Y816000D01*
X470796D01*
X472266Y816609D01*
X473391Y817734D01*
X474000Y819204D01*
Y820796D01*
X473391Y822266D01*
X472266Y823391D01*
X470796Y824000D01*
D02*
G37*
G36*
X210796D02*
X209204D01*
X207734Y823391D01*
X206609Y822266D01*
X206000Y820796D01*
Y819204D01*
X206609Y817734D01*
X207734Y816609D01*
X209204Y816000D01*
X210796D01*
X212266Y816609D01*
X213391Y817734D01*
X214000Y819204D01*
Y820796D01*
X213391Y822266D01*
X212266Y823391D01*
X210796Y824000D01*
D02*
G37*
G36*
X200796D02*
X199204D01*
X197734Y823391D01*
X196609Y822266D01*
X196000Y820796D01*
Y819204D01*
X196609Y817734D01*
X197734Y816609D01*
X199204Y816000D01*
X200796D01*
X202266Y816609D01*
X203391Y817734D01*
X204000Y819204D01*
Y820796D01*
X203391Y822266D01*
X202266Y823391D01*
X200796Y824000D01*
D02*
G37*
G36*
X190796D02*
X189204D01*
X187734Y823391D01*
X186609Y822266D01*
X186000Y820796D01*
Y819204D01*
X186609Y817734D01*
X187734Y816609D01*
X189204Y816000D01*
X190796D01*
X192266Y816609D01*
X193391Y817734D01*
X194000Y819204D01*
Y820796D01*
X193391Y822266D01*
X192266Y823391D01*
X190796Y824000D01*
D02*
G37*
G36*
X180796D02*
X179204D01*
X177734Y823391D01*
X176609Y822266D01*
X176000Y820796D01*
Y819204D01*
X176609Y817734D01*
X177734Y816609D01*
X179204Y816000D01*
X180796D01*
X182266Y816609D01*
X183391Y817734D01*
X184000Y819204D01*
Y820796D01*
X183391Y822266D01*
X182266Y823391D01*
X180796Y824000D01*
D02*
G37*
G36*
X170796D02*
X169204D01*
X167734Y823391D01*
X166609Y822266D01*
X166000Y820796D01*
Y819204D01*
X166609Y817734D01*
X167734Y816609D01*
X169204Y816000D01*
X170796D01*
X172266Y816609D01*
X173391Y817734D01*
X174000Y819204D01*
Y820796D01*
X173391Y822266D01*
X172266Y823391D01*
X170796Y824000D01*
D02*
G37*
G36*
X1013296Y816500D02*
X1011704D01*
X1010234Y815891D01*
X1009109Y814766D01*
X1008500Y813296D01*
Y811704D01*
X1009109Y810234D01*
X1010234Y809109D01*
X1011704Y808500D01*
X1013296D01*
X1014766Y809109D01*
X1015891Y810234D01*
X1016500Y811704D01*
Y813296D01*
X1015891Y814766D01*
X1014766Y815891D01*
X1013296Y816500D01*
D02*
G37*
G36*
X713296D02*
X711704D01*
X710234Y815891D01*
X709109Y814766D01*
X708500Y813296D01*
Y811704D01*
X709109Y810234D01*
X710234Y809109D01*
X711704Y808500D01*
X713296D01*
X714766Y809109D01*
X715891Y810234D01*
X716500Y811704D01*
Y813296D01*
X715891Y814766D01*
X714766Y815891D01*
X713296Y816500D01*
D02*
G37*
G36*
X413296D02*
X411704D01*
X410234Y815891D01*
X409109Y814766D01*
X408500Y813296D01*
Y811704D01*
X409109Y810234D01*
X410234Y809109D01*
X411704Y808500D01*
X413296D01*
X414766Y809109D01*
X415891Y810234D01*
X416500Y811704D01*
Y813296D01*
X415891Y814766D01*
X414766Y815891D01*
X413296Y816500D01*
D02*
G37*
G36*
X113296D02*
X111704D01*
X110234Y815891D01*
X109109Y814766D01*
X108500Y813296D01*
Y811704D01*
X109109Y810234D01*
X110234Y809109D01*
X111704Y808500D01*
X113296D01*
X114766Y809109D01*
X115891Y810234D01*
X116500Y811704D01*
Y813296D01*
X115891Y814766D01*
X114766Y815891D01*
X113296Y816500D01*
D02*
G37*
G36*
X1150796Y814000D02*
X1149204D01*
X1147734Y813391D01*
X1146609Y812266D01*
X1146000Y810796D01*
Y809204D01*
X1146609Y807734D01*
X1147734Y806609D01*
X1149204Y806000D01*
X1150796D01*
X1152266Y806609D01*
X1153391Y807734D01*
X1154000Y809204D01*
Y810796D01*
X1153391Y812266D01*
X1152266Y813391D01*
X1150796Y814000D01*
D02*
G37*
G36*
X1110796D02*
X1109204D01*
X1107734Y813391D01*
X1106609Y812266D01*
X1106000Y810796D01*
Y809204D01*
X1106609Y807734D01*
X1107734Y806609D01*
X1109204Y806000D01*
X1110796D01*
X1112266Y806609D01*
X1113391Y807734D01*
X1114000Y809204D01*
Y810796D01*
X1113391Y812266D01*
X1112266Y813391D01*
X1110796Y814000D01*
D02*
G37*
G36*
X1100796D02*
X1099204D01*
X1097734Y813391D01*
X1096609Y812266D01*
X1096000Y810796D01*
Y809204D01*
X1096609Y807734D01*
X1097734Y806609D01*
X1099204Y806000D01*
X1100796D01*
X1102266Y806609D01*
X1103391Y807734D01*
X1104000Y809204D01*
Y810796D01*
X1103391Y812266D01*
X1102266Y813391D01*
X1100796Y814000D01*
D02*
G37*
G36*
X1090796D02*
X1089204D01*
X1087734Y813391D01*
X1086609Y812266D01*
X1086000Y810796D01*
Y809204D01*
X1086609Y807734D01*
X1087734Y806609D01*
X1089204Y806000D01*
X1090796D01*
X1092266Y806609D01*
X1093391Y807734D01*
X1094000Y809204D01*
Y810796D01*
X1093391Y812266D01*
X1092266Y813391D01*
X1090796Y814000D01*
D02*
G37*
G36*
X1080796D02*
X1079204D01*
X1077734Y813391D01*
X1076609Y812266D01*
X1076000Y810796D01*
Y809204D01*
X1076609Y807734D01*
X1077734Y806609D01*
X1079204Y806000D01*
X1080796D01*
X1082266Y806609D01*
X1083391Y807734D01*
X1084000Y809204D01*
Y810796D01*
X1083391Y812266D01*
X1082266Y813391D01*
X1080796Y814000D01*
D02*
G37*
G36*
X1070796D02*
X1069204D01*
X1067734Y813391D01*
X1066609Y812266D01*
X1066000Y810796D01*
Y809204D01*
X1066609Y807734D01*
X1067734Y806609D01*
X1069204Y806000D01*
X1070796D01*
X1072266Y806609D01*
X1073391Y807734D01*
X1074000Y809204D01*
Y810796D01*
X1073391Y812266D01*
X1072266Y813391D01*
X1070796Y814000D01*
D02*
G37*
G36*
X850796D02*
X849204D01*
X847734Y813391D01*
X846609Y812266D01*
X846000Y810796D01*
Y809204D01*
X846609Y807734D01*
X847734Y806609D01*
X849204Y806000D01*
X850796D01*
X852266Y806609D01*
X853391Y807734D01*
X854000Y809204D01*
Y810796D01*
X853391Y812266D01*
X852266Y813391D01*
X850796Y814000D01*
D02*
G37*
G36*
X810796D02*
X809204D01*
X807734Y813391D01*
X806609Y812266D01*
X806000Y810796D01*
Y809204D01*
X806609Y807734D01*
X807734Y806609D01*
X809204Y806000D01*
X810796D01*
X812266Y806609D01*
X813391Y807734D01*
X814000Y809204D01*
Y810796D01*
X813391Y812266D01*
X812266Y813391D01*
X810796Y814000D01*
D02*
G37*
G36*
X800796D02*
X799204D01*
X797734Y813391D01*
X796609Y812266D01*
X796000Y810796D01*
Y809204D01*
X796609Y807734D01*
X797734Y806609D01*
X799204Y806000D01*
X800796D01*
X802266Y806609D01*
X803391Y807734D01*
X804000Y809204D01*
Y810796D01*
X803391Y812266D01*
X802266Y813391D01*
X800796Y814000D01*
D02*
G37*
G36*
X790796D02*
X789204D01*
X787734Y813391D01*
X786609Y812266D01*
X786000Y810796D01*
Y809204D01*
X786609Y807734D01*
X787734Y806609D01*
X789204Y806000D01*
X790796D01*
X792266Y806609D01*
X793391Y807734D01*
X794000Y809204D01*
Y810796D01*
X793391Y812266D01*
X792266Y813391D01*
X790796Y814000D01*
D02*
G37*
G36*
X780796D02*
X779204D01*
X777734Y813391D01*
X776609Y812266D01*
X776000Y810796D01*
Y809204D01*
X776609Y807734D01*
X777734Y806609D01*
X779204Y806000D01*
X780796D01*
X782266Y806609D01*
X783391Y807734D01*
X784000Y809204D01*
Y810796D01*
X783391Y812266D01*
X782266Y813391D01*
X780796Y814000D01*
D02*
G37*
G36*
X770796D02*
X769204D01*
X767734Y813391D01*
X766609Y812266D01*
X766000Y810796D01*
Y809204D01*
X766609Y807734D01*
X767734Y806609D01*
X769204Y806000D01*
X770796D01*
X772266Y806609D01*
X773391Y807734D01*
X774000Y809204D01*
Y810796D01*
X773391Y812266D01*
X772266Y813391D01*
X770796Y814000D01*
D02*
G37*
G36*
X550796D02*
X549204D01*
X547734Y813391D01*
X546609Y812266D01*
X546000Y810796D01*
Y809204D01*
X546609Y807734D01*
X547734Y806609D01*
X549204Y806000D01*
X550796D01*
X552266Y806609D01*
X553391Y807734D01*
X554000Y809204D01*
Y810796D01*
X553391Y812266D01*
X552266Y813391D01*
X550796Y814000D01*
D02*
G37*
G36*
X510796D02*
X509204D01*
X507734Y813391D01*
X506609Y812266D01*
X506000Y810796D01*
Y809204D01*
X506609Y807734D01*
X507734Y806609D01*
X509204Y806000D01*
X510796D01*
X512266Y806609D01*
X513391Y807734D01*
X514000Y809204D01*
Y810796D01*
X513391Y812266D01*
X512266Y813391D01*
X510796Y814000D01*
D02*
G37*
G36*
X500796D02*
X499204D01*
X497734Y813391D01*
X496609Y812266D01*
X496000Y810796D01*
Y809204D01*
X496609Y807734D01*
X497734Y806609D01*
X499204Y806000D01*
X500796D01*
X502266Y806609D01*
X503391Y807734D01*
X504000Y809204D01*
Y810796D01*
X503391Y812266D01*
X502266Y813391D01*
X500796Y814000D01*
D02*
G37*
G36*
X490796D02*
X489204D01*
X487734Y813391D01*
X486609Y812266D01*
X486000Y810796D01*
Y809204D01*
X486609Y807734D01*
X487734Y806609D01*
X489204Y806000D01*
X490796D01*
X492266Y806609D01*
X493391Y807734D01*
X494000Y809204D01*
Y810796D01*
X493391Y812266D01*
X492266Y813391D01*
X490796Y814000D01*
D02*
G37*
G36*
X480796D02*
X479204D01*
X477734Y813391D01*
X476609Y812266D01*
X476000Y810796D01*
Y809204D01*
X476609Y807734D01*
X477734Y806609D01*
X479204Y806000D01*
X480796D01*
X482266Y806609D01*
X483391Y807734D01*
X484000Y809204D01*
Y810796D01*
X483391Y812266D01*
X482266Y813391D01*
X480796Y814000D01*
D02*
G37*
G36*
X470796D02*
X469204D01*
X467734Y813391D01*
X466609Y812266D01*
X466000Y810796D01*
Y809204D01*
X466609Y807734D01*
X467734Y806609D01*
X469204Y806000D01*
X470796D01*
X472266Y806609D01*
X473391Y807734D01*
X474000Y809204D01*
Y810796D01*
X473391Y812266D01*
X472266Y813391D01*
X470796Y814000D01*
D02*
G37*
G36*
X250796D02*
X249204D01*
X247734Y813391D01*
X246609Y812266D01*
X246000Y810796D01*
Y809204D01*
X246609Y807734D01*
X247734Y806609D01*
X249204Y806000D01*
X250796D01*
X252266Y806609D01*
X253391Y807734D01*
X254000Y809204D01*
Y810796D01*
X253391Y812266D01*
X252266Y813391D01*
X250796Y814000D01*
D02*
G37*
G36*
X210796D02*
X209204D01*
X207734Y813391D01*
X206609Y812266D01*
X206000Y810796D01*
Y809204D01*
X206609Y807734D01*
X207734Y806609D01*
X209204Y806000D01*
X210796D01*
X212266Y806609D01*
X213391Y807734D01*
X214000Y809204D01*
Y810796D01*
X213391Y812266D01*
X212266Y813391D01*
X210796Y814000D01*
D02*
G37*
G36*
X200796D02*
X199204D01*
X197734Y813391D01*
X196609Y812266D01*
X196000Y810796D01*
Y809204D01*
X196609Y807734D01*
X197734Y806609D01*
X199204Y806000D01*
X200796D01*
X202266Y806609D01*
X203391Y807734D01*
X204000Y809204D01*
Y810796D01*
X203391Y812266D01*
X202266Y813391D01*
X200796Y814000D01*
D02*
G37*
G36*
X190796D02*
X189204D01*
X187734Y813391D01*
X186609Y812266D01*
X186000Y810796D01*
Y809204D01*
X186609Y807734D01*
X187734Y806609D01*
X189204Y806000D01*
X190796D01*
X192266Y806609D01*
X193391Y807734D01*
X194000Y809204D01*
Y810796D01*
X193391Y812266D01*
X192266Y813391D01*
X190796Y814000D01*
D02*
G37*
G36*
X180796D02*
X179204D01*
X177734Y813391D01*
X176609Y812266D01*
X176000Y810796D01*
Y809204D01*
X176609Y807734D01*
X177734Y806609D01*
X179204Y806000D01*
X180796D01*
X182266Y806609D01*
X183391Y807734D01*
X184000Y809204D01*
Y810796D01*
X183391Y812266D01*
X182266Y813391D01*
X180796Y814000D01*
D02*
G37*
G36*
X170796D02*
X169204D01*
X167734Y813391D01*
X166609Y812266D01*
X166000Y810796D01*
Y809204D01*
X166609Y807734D01*
X167734Y806609D01*
X169204Y806000D01*
X170796D01*
X172266Y806609D01*
X173391Y807734D01*
X174000Y809204D01*
Y810796D01*
X173391Y812266D01*
X172266Y813391D01*
X170796Y814000D01*
D02*
G37*
G36*
X1110796Y804000D02*
X1109204D01*
X1107734Y803391D01*
X1106609Y802266D01*
X1106000Y800796D01*
Y799204D01*
X1106609Y797734D01*
X1107734Y796609D01*
X1109204Y796000D01*
X1110796D01*
X1112266Y796609D01*
X1113391Y797734D01*
X1114000Y799204D01*
Y800796D01*
X1113391Y802266D01*
X1112266Y803391D01*
X1110796Y804000D01*
D02*
G37*
G36*
X1100796D02*
X1099204D01*
X1097734Y803391D01*
X1096609Y802266D01*
X1096000Y800796D01*
Y799204D01*
X1096609Y797734D01*
X1097734Y796609D01*
X1099204Y796000D01*
X1100796D01*
X1102266Y796609D01*
X1103391Y797734D01*
X1104000Y799204D01*
Y800796D01*
X1103391Y802266D01*
X1102266Y803391D01*
X1100796Y804000D01*
D02*
G37*
G36*
X1090796D02*
X1089204D01*
X1087734Y803391D01*
X1086609Y802266D01*
X1086000Y800796D01*
Y799204D01*
X1086609Y797734D01*
X1087734Y796609D01*
X1089204Y796000D01*
X1090796D01*
X1092266Y796609D01*
X1093391Y797734D01*
X1094000Y799204D01*
Y800796D01*
X1093391Y802266D01*
X1092266Y803391D01*
X1090796Y804000D01*
D02*
G37*
G36*
X1080796D02*
X1079204D01*
X1077734Y803391D01*
X1076609Y802266D01*
X1076000Y800796D01*
Y799204D01*
X1076609Y797734D01*
X1077734Y796609D01*
X1079204Y796000D01*
X1080796D01*
X1082266Y796609D01*
X1083391Y797734D01*
X1084000Y799204D01*
Y800796D01*
X1083391Y802266D01*
X1082266Y803391D01*
X1080796Y804000D01*
D02*
G37*
G36*
X1070796D02*
X1069204D01*
X1067734Y803391D01*
X1066609Y802266D01*
X1066000Y800796D01*
Y799204D01*
X1066609Y797734D01*
X1067734Y796609D01*
X1069204Y796000D01*
X1070796D01*
X1072266Y796609D01*
X1073391Y797734D01*
X1074000Y799204D01*
Y800796D01*
X1073391Y802266D01*
X1072266Y803391D01*
X1070796Y804000D01*
D02*
G37*
G36*
X810796D02*
X809204D01*
X807734Y803391D01*
X806609Y802266D01*
X806000Y800796D01*
Y799204D01*
X806609Y797734D01*
X807734Y796609D01*
X809204Y796000D01*
X810796D01*
X812266Y796609D01*
X813391Y797734D01*
X814000Y799204D01*
Y800796D01*
X813391Y802266D01*
X812266Y803391D01*
X810796Y804000D01*
D02*
G37*
G36*
X800796D02*
X799204D01*
X797734Y803391D01*
X796609Y802266D01*
X796000Y800796D01*
Y799204D01*
X796609Y797734D01*
X797734Y796609D01*
X799204Y796000D01*
X800796D01*
X802266Y796609D01*
X803391Y797734D01*
X804000Y799204D01*
Y800796D01*
X803391Y802266D01*
X802266Y803391D01*
X800796Y804000D01*
D02*
G37*
G36*
X790796D02*
X789204D01*
X787734Y803391D01*
X786609Y802266D01*
X786000Y800796D01*
Y799204D01*
X786609Y797734D01*
X787734Y796609D01*
X789204Y796000D01*
X790796D01*
X792266Y796609D01*
X793391Y797734D01*
X794000Y799204D01*
Y800796D01*
X793391Y802266D01*
X792266Y803391D01*
X790796Y804000D01*
D02*
G37*
G36*
X780796D02*
X779204D01*
X777734Y803391D01*
X776609Y802266D01*
X776000Y800796D01*
Y799204D01*
X776609Y797734D01*
X777734Y796609D01*
X779204Y796000D01*
X780796D01*
X782266Y796609D01*
X783391Y797734D01*
X784000Y799204D01*
Y800796D01*
X783391Y802266D01*
X782266Y803391D01*
X780796Y804000D01*
D02*
G37*
G36*
X770796D02*
X769204D01*
X767734Y803391D01*
X766609Y802266D01*
X766000Y800796D01*
Y799204D01*
X766609Y797734D01*
X767734Y796609D01*
X769204Y796000D01*
X770796D01*
X772266Y796609D01*
X773391Y797734D01*
X774000Y799204D01*
Y800796D01*
X773391Y802266D01*
X772266Y803391D01*
X770796Y804000D01*
D02*
G37*
G36*
X510796D02*
X509204D01*
X507734Y803391D01*
X506609Y802266D01*
X506000Y800796D01*
Y799204D01*
X506609Y797734D01*
X507734Y796609D01*
X509204Y796000D01*
X510796D01*
X512266Y796609D01*
X513391Y797734D01*
X514000Y799204D01*
Y800796D01*
X513391Y802266D01*
X512266Y803391D01*
X510796Y804000D01*
D02*
G37*
G36*
X500796D02*
X499204D01*
X497734Y803391D01*
X496609Y802266D01*
X496000Y800796D01*
Y799204D01*
X496609Y797734D01*
X497734Y796609D01*
X499204Y796000D01*
X500796D01*
X502266Y796609D01*
X503391Y797734D01*
X504000Y799204D01*
Y800796D01*
X503391Y802266D01*
X502266Y803391D01*
X500796Y804000D01*
D02*
G37*
G36*
X490796D02*
X489204D01*
X487734Y803391D01*
X486609Y802266D01*
X486000Y800796D01*
Y799204D01*
X486609Y797734D01*
X487734Y796609D01*
X489204Y796000D01*
X490796D01*
X492266Y796609D01*
X493391Y797734D01*
X494000Y799204D01*
Y800796D01*
X493391Y802266D01*
X492266Y803391D01*
X490796Y804000D01*
D02*
G37*
G36*
X480796D02*
X479204D01*
X477734Y803391D01*
X476609Y802266D01*
X476000Y800796D01*
Y799204D01*
X476609Y797734D01*
X477734Y796609D01*
X479204Y796000D01*
X480796D01*
X482266Y796609D01*
X483391Y797734D01*
X484000Y799204D01*
Y800796D01*
X483391Y802266D01*
X482266Y803391D01*
X480796Y804000D01*
D02*
G37*
G36*
X470796D02*
X469204D01*
X467734Y803391D01*
X466609Y802266D01*
X466000Y800796D01*
Y799204D01*
X466609Y797734D01*
X467734Y796609D01*
X469204Y796000D01*
X470796D01*
X472266Y796609D01*
X473391Y797734D01*
X474000Y799204D01*
Y800796D01*
X473391Y802266D01*
X472266Y803391D01*
X470796Y804000D01*
D02*
G37*
G36*
X210796D02*
X209204D01*
X207734Y803391D01*
X206609Y802266D01*
X206000Y800796D01*
Y799204D01*
X206609Y797734D01*
X207734Y796609D01*
X209204Y796000D01*
X210796D01*
X212266Y796609D01*
X213391Y797734D01*
X214000Y799204D01*
Y800796D01*
X213391Y802266D01*
X212266Y803391D01*
X210796Y804000D01*
D02*
G37*
G36*
X200796D02*
X199204D01*
X197734Y803391D01*
X196609Y802266D01*
X196000Y800796D01*
Y799204D01*
X196609Y797734D01*
X197734Y796609D01*
X199204Y796000D01*
X200796D01*
X202266Y796609D01*
X203391Y797734D01*
X204000Y799204D01*
Y800796D01*
X203391Y802266D01*
X202266Y803391D01*
X200796Y804000D01*
D02*
G37*
G36*
X190796D02*
X189204D01*
X187734Y803391D01*
X186609Y802266D01*
X186000Y800796D01*
Y799204D01*
X186609Y797734D01*
X187734Y796609D01*
X189204Y796000D01*
X190796D01*
X192266Y796609D01*
X193391Y797734D01*
X194000Y799204D01*
Y800796D01*
X193391Y802266D01*
X192266Y803391D01*
X190796Y804000D01*
D02*
G37*
G36*
X180796D02*
X179204D01*
X177734Y803391D01*
X176609Y802266D01*
X176000Y800796D01*
Y799204D01*
X176609Y797734D01*
X177734Y796609D01*
X179204Y796000D01*
X180796D01*
X182266Y796609D01*
X183391Y797734D01*
X184000Y799204D01*
Y800796D01*
X183391Y802266D01*
X182266Y803391D01*
X180796Y804000D01*
D02*
G37*
G36*
X170796D02*
X169204D01*
X167734Y803391D01*
X166609Y802266D01*
X166000Y800796D01*
Y799204D01*
X166609Y797734D01*
X167734Y796609D01*
X169204Y796000D01*
X170796D01*
X172266Y796609D01*
X173391Y797734D01*
X174000Y799204D01*
Y800796D01*
X173391Y802266D01*
X172266Y803391D01*
X170796Y804000D01*
D02*
G37*
G36*
X1030796Y799000D02*
X1029204D01*
X1027734Y798391D01*
X1026609Y797266D01*
X1026000Y795796D01*
Y794204D01*
X1026609Y792734D01*
X1027734Y791609D01*
X1029204Y791000D01*
X1030796D01*
X1032266Y791609D01*
X1033391Y792734D01*
X1034000Y794204D01*
Y795796D01*
X1033391Y797266D01*
X1032266Y798391D01*
X1030796Y799000D01*
D02*
G37*
G36*
X730796D02*
X729204D01*
X727734Y798391D01*
X726609Y797266D01*
X726000Y795796D01*
Y794204D01*
X726609Y792734D01*
X727734Y791609D01*
X729204Y791000D01*
X730796D01*
X732266Y791609D01*
X733391Y792734D01*
X734000Y794204D01*
Y795796D01*
X733391Y797266D01*
X732266Y798391D01*
X730796Y799000D01*
D02*
G37*
G36*
X430796D02*
X429204D01*
X427734Y798391D01*
X426609Y797266D01*
X426000Y795796D01*
Y794204D01*
X426609Y792734D01*
X427734Y791609D01*
X429204Y791000D01*
X430796D01*
X432266Y791609D01*
X433391Y792734D01*
X434000Y794204D01*
Y795796D01*
X433391Y797266D01*
X432266Y798391D01*
X430796Y799000D01*
D02*
G37*
G36*
X130796D02*
X129204D01*
X127734Y798391D01*
X126609Y797266D01*
X126000Y795796D01*
Y794204D01*
X126609Y792734D01*
X127734Y791609D01*
X129204Y791000D01*
X130796D01*
X132266Y791609D01*
X133391Y792734D01*
X134000Y794204D01*
Y795796D01*
X133391Y797266D01*
X132266Y798391D01*
X130796Y799000D01*
D02*
G37*
G36*
X1110796Y794000D02*
X1109204D01*
X1107734Y793391D01*
X1106609Y792266D01*
X1106000Y790796D01*
Y789204D01*
X1106609Y787734D01*
X1107734Y786609D01*
X1109204Y786000D01*
X1110796D01*
X1112266Y786609D01*
X1113391Y787734D01*
X1114000Y789204D01*
Y790796D01*
X1113391Y792266D01*
X1112266Y793391D01*
X1110796Y794000D01*
D02*
G37*
G36*
X1100796D02*
X1099204D01*
X1097734Y793391D01*
X1096609Y792266D01*
X1096000Y790796D01*
Y789204D01*
X1096609Y787734D01*
X1097734Y786609D01*
X1099204Y786000D01*
X1100796D01*
X1102266Y786609D01*
X1103391Y787734D01*
X1104000Y789204D01*
Y790796D01*
X1103391Y792266D01*
X1102266Y793391D01*
X1100796Y794000D01*
D02*
G37*
G36*
X1090796D02*
X1089204D01*
X1087734Y793391D01*
X1086609Y792266D01*
X1086000Y790796D01*
Y789204D01*
X1086609Y787734D01*
X1087734Y786609D01*
X1089204Y786000D01*
X1090796D01*
X1092266Y786609D01*
X1093391Y787734D01*
X1094000Y789204D01*
Y790796D01*
X1093391Y792266D01*
X1092266Y793391D01*
X1090796Y794000D01*
D02*
G37*
G36*
X1080796D02*
X1079204D01*
X1077734Y793391D01*
X1076609Y792266D01*
X1076000Y790796D01*
Y789204D01*
X1076609Y787734D01*
X1077734Y786609D01*
X1079204Y786000D01*
X1080796D01*
X1082266Y786609D01*
X1083391Y787734D01*
X1084000Y789204D01*
Y790796D01*
X1083391Y792266D01*
X1082266Y793391D01*
X1080796Y794000D01*
D02*
G37*
G36*
X1070796D02*
X1069204D01*
X1067734Y793391D01*
X1066609Y792266D01*
X1066000Y790796D01*
Y789204D01*
X1066609Y787734D01*
X1067734Y786609D01*
X1069204Y786000D01*
X1070796D01*
X1072266Y786609D01*
X1073391Y787734D01*
X1074000Y789204D01*
Y790796D01*
X1073391Y792266D01*
X1072266Y793391D01*
X1070796Y794000D01*
D02*
G37*
G36*
X810796D02*
X809204D01*
X807734Y793391D01*
X806609Y792266D01*
X806000Y790796D01*
Y789204D01*
X806609Y787734D01*
X807734Y786609D01*
X809204Y786000D01*
X810796D01*
X812266Y786609D01*
X813391Y787734D01*
X814000Y789204D01*
Y790796D01*
X813391Y792266D01*
X812266Y793391D01*
X810796Y794000D01*
D02*
G37*
G36*
X800796D02*
X799204D01*
X797734Y793391D01*
X796609Y792266D01*
X796000Y790796D01*
Y789204D01*
X796609Y787734D01*
X797734Y786609D01*
X799204Y786000D01*
X800796D01*
X802266Y786609D01*
X803391Y787734D01*
X804000Y789204D01*
Y790796D01*
X803391Y792266D01*
X802266Y793391D01*
X800796Y794000D01*
D02*
G37*
G36*
X790796D02*
X789204D01*
X787734Y793391D01*
X786609Y792266D01*
X786000Y790796D01*
Y789204D01*
X786609Y787734D01*
X787734Y786609D01*
X789204Y786000D01*
X790796D01*
X792266Y786609D01*
X793391Y787734D01*
X794000Y789204D01*
Y790796D01*
X793391Y792266D01*
X792266Y793391D01*
X790796Y794000D01*
D02*
G37*
G36*
X780796D02*
X779204D01*
X777734Y793391D01*
X776609Y792266D01*
X776000Y790796D01*
Y789204D01*
X776609Y787734D01*
X777734Y786609D01*
X779204Y786000D01*
X780796D01*
X782266Y786609D01*
X783391Y787734D01*
X784000Y789204D01*
Y790796D01*
X783391Y792266D01*
X782266Y793391D01*
X780796Y794000D01*
D02*
G37*
G36*
X770796D02*
X769204D01*
X767734Y793391D01*
X766609Y792266D01*
X766000Y790796D01*
Y789204D01*
X766609Y787734D01*
X767734Y786609D01*
X769204Y786000D01*
X770796D01*
X772266Y786609D01*
X773391Y787734D01*
X774000Y789204D01*
Y790796D01*
X773391Y792266D01*
X772266Y793391D01*
X770796Y794000D01*
D02*
G37*
G36*
X510796D02*
X509204D01*
X507734Y793391D01*
X506609Y792266D01*
X506000Y790796D01*
Y789204D01*
X506609Y787734D01*
X507734Y786609D01*
X509204Y786000D01*
X510796D01*
X512266Y786609D01*
X513391Y787734D01*
X514000Y789204D01*
Y790796D01*
X513391Y792266D01*
X512266Y793391D01*
X510796Y794000D01*
D02*
G37*
G36*
X500796D02*
X499204D01*
X497734Y793391D01*
X496609Y792266D01*
X496000Y790796D01*
Y789204D01*
X496609Y787734D01*
X497734Y786609D01*
X499204Y786000D01*
X500796D01*
X502266Y786609D01*
X503391Y787734D01*
X504000Y789204D01*
Y790796D01*
X503391Y792266D01*
X502266Y793391D01*
X500796Y794000D01*
D02*
G37*
G36*
X490796D02*
X489204D01*
X487734Y793391D01*
X486609Y792266D01*
X486000Y790796D01*
Y789204D01*
X486609Y787734D01*
X487734Y786609D01*
X489204Y786000D01*
X490796D01*
X492266Y786609D01*
X493391Y787734D01*
X494000Y789204D01*
Y790796D01*
X493391Y792266D01*
X492266Y793391D01*
X490796Y794000D01*
D02*
G37*
G36*
X480796D02*
X479204D01*
X477734Y793391D01*
X476609Y792266D01*
X476000Y790796D01*
Y789204D01*
X476609Y787734D01*
X477734Y786609D01*
X479204Y786000D01*
X480796D01*
X482266Y786609D01*
X483391Y787734D01*
X484000Y789204D01*
Y790796D01*
X483391Y792266D01*
X482266Y793391D01*
X480796Y794000D01*
D02*
G37*
G36*
X470796D02*
X469204D01*
X467734Y793391D01*
X466609Y792266D01*
X466000Y790796D01*
Y789204D01*
X466609Y787734D01*
X467734Y786609D01*
X469204Y786000D01*
X470796D01*
X472266Y786609D01*
X473391Y787734D01*
X474000Y789204D01*
Y790796D01*
X473391Y792266D01*
X472266Y793391D01*
X470796Y794000D01*
D02*
G37*
G36*
X210796D02*
X209204D01*
X207734Y793391D01*
X206609Y792266D01*
X206000Y790796D01*
Y789204D01*
X206609Y787734D01*
X207734Y786609D01*
X209204Y786000D01*
X210796D01*
X212266Y786609D01*
X213391Y787734D01*
X214000Y789204D01*
Y790796D01*
X213391Y792266D01*
X212266Y793391D01*
X210796Y794000D01*
D02*
G37*
G36*
X200796D02*
X199204D01*
X197734Y793391D01*
X196609Y792266D01*
X196000Y790796D01*
Y789204D01*
X196609Y787734D01*
X197734Y786609D01*
X199204Y786000D01*
X200796D01*
X202266Y786609D01*
X203391Y787734D01*
X204000Y789204D01*
Y790796D01*
X203391Y792266D01*
X202266Y793391D01*
X200796Y794000D01*
D02*
G37*
G36*
X190796D02*
X189204D01*
X187734Y793391D01*
X186609Y792266D01*
X186000Y790796D01*
Y789204D01*
X186609Y787734D01*
X187734Y786609D01*
X189204Y786000D01*
X190796D01*
X192266Y786609D01*
X193391Y787734D01*
X194000Y789204D01*
Y790796D01*
X193391Y792266D01*
X192266Y793391D01*
X190796Y794000D01*
D02*
G37*
G36*
X180796D02*
X179204D01*
X177734Y793391D01*
X176609Y792266D01*
X176000Y790796D01*
Y789204D01*
X176609Y787734D01*
X177734Y786609D01*
X179204Y786000D01*
X180796D01*
X182266Y786609D01*
X183391Y787734D01*
X184000Y789204D01*
Y790796D01*
X183391Y792266D01*
X182266Y793391D01*
X180796Y794000D01*
D02*
G37*
G36*
X170796D02*
X169204D01*
X167734Y793391D01*
X166609Y792266D01*
X166000Y790796D01*
Y789204D01*
X166609Y787734D01*
X167734Y786609D01*
X169204Y786000D01*
X170796D01*
X172266Y786609D01*
X173391Y787734D01*
X174000Y789204D01*
Y790796D01*
X173391Y792266D01*
X172266Y793391D01*
X170796Y794000D01*
D02*
G37*
G36*
X1150796Y791500D02*
X1149204D01*
X1147734Y790891D01*
X1146609Y789766D01*
X1146000Y788296D01*
Y786704D01*
X1146609Y785234D01*
X1147734Y784109D01*
X1149204Y783500D01*
X1150796D01*
X1152266Y784109D01*
X1153391Y785234D01*
X1154000Y786704D01*
Y788296D01*
X1153391Y789766D01*
X1152266Y790891D01*
X1150796Y791500D01*
D02*
G37*
G36*
X850796D02*
X849204D01*
X847734Y790891D01*
X846609Y789766D01*
X846000Y788296D01*
Y786704D01*
X846609Y785234D01*
X847734Y784109D01*
X849204Y783500D01*
X850796D01*
X852266Y784109D01*
X853391Y785234D01*
X854000Y786704D01*
Y788296D01*
X853391Y789766D01*
X852266Y790891D01*
X850796Y791500D01*
D02*
G37*
G36*
X550796D02*
X549204D01*
X547734Y790891D01*
X546609Y789766D01*
X546000Y788296D01*
Y786704D01*
X546609Y785234D01*
X547734Y784109D01*
X549204Y783500D01*
X550796D01*
X552266Y784109D01*
X553391Y785234D01*
X554000Y786704D01*
Y788296D01*
X553391Y789766D01*
X552266Y790891D01*
X550796Y791500D01*
D02*
G37*
G36*
X250796D02*
X249204D01*
X247734Y790891D01*
X246609Y789766D01*
X246000Y788296D01*
Y786704D01*
X246609Y785234D01*
X247734Y784109D01*
X249204Y783500D01*
X250796D01*
X252266Y784109D01*
X253391Y785234D01*
X254000Y786704D01*
Y788296D01*
X253391Y789766D01*
X252266Y790891D01*
X250796Y791500D01*
D02*
G37*
G36*
X678296Y789000D02*
X676704D01*
X675234Y788391D01*
X674109Y787266D01*
X673500Y785796D01*
Y784204D01*
X674109Y782734D01*
X675234Y781609D01*
X676704Y781000D01*
X678296D01*
X679766Y781609D01*
X680891Y782734D01*
X681500Y784204D01*
Y785796D01*
X680891Y787266D01*
X679766Y788391D01*
X678296Y789000D01*
D02*
G37*
G36*
X1110796Y784000D02*
X1109204D01*
X1107734Y783391D01*
X1106609Y782266D01*
X1106000Y780796D01*
Y779204D01*
X1106609Y777734D01*
X1107734Y776609D01*
X1109204Y776000D01*
X1110796D01*
X1112266Y776609D01*
X1113391Y777734D01*
X1114000Y779204D01*
Y780796D01*
X1113391Y782266D01*
X1112266Y783391D01*
X1110796Y784000D01*
D02*
G37*
G36*
X1100796D02*
X1099204D01*
X1097734Y783391D01*
X1096609Y782266D01*
X1096000Y780796D01*
Y779204D01*
X1096609Y777734D01*
X1097734Y776609D01*
X1099204Y776000D01*
X1100796D01*
X1102266Y776609D01*
X1103391Y777734D01*
X1104000Y779204D01*
Y780796D01*
X1103391Y782266D01*
X1102266Y783391D01*
X1100796Y784000D01*
D02*
G37*
G36*
X1090796D02*
X1089204D01*
X1087734Y783391D01*
X1086609Y782266D01*
X1086000Y780796D01*
Y779204D01*
X1086609Y777734D01*
X1087734Y776609D01*
X1089204Y776000D01*
X1090796D01*
X1092266Y776609D01*
X1093391Y777734D01*
X1094000Y779204D01*
Y780796D01*
X1093391Y782266D01*
X1092266Y783391D01*
X1090796Y784000D01*
D02*
G37*
G36*
X1080796D02*
X1079204D01*
X1077734Y783391D01*
X1076609Y782266D01*
X1076000Y780796D01*
Y779204D01*
X1076609Y777734D01*
X1077734Y776609D01*
X1079204Y776000D01*
X1080796D01*
X1082266Y776609D01*
X1083391Y777734D01*
X1084000Y779204D01*
Y780796D01*
X1083391Y782266D01*
X1082266Y783391D01*
X1080796Y784000D01*
D02*
G37*
G36*
X1070796D02*
X1069204D01*
X1067734Y783391D01*
X1066609Y782266D01*
X1066000Y780796D01*
Y779204D01*
X1066609Y777734D01*
X1067734Y776609D01*
X1069204Y776000D01*
X1070796D01*
X1072266Y776609D01*
X1073391Y777734D01*
X1074000Y779204D01*
Y780796D01*
X1073391Y782266D01*
X1072266Y783391D01*
X1070796Y784000D01*
D02*
G37*
G36*
X810796D02*
X809204D01*
X807734Y783391D01*
X806609Y782266D01*
X806000Y780796D01*
Y779204D01*
X806609Y777734D01*
X807734Y776609D01*
X809204Y776000D01*
X810796D01*
X812266Y776609D01*
X813391Y777734D01*
X814000Y779204D01*
Y780796D01*
X813391Y782266D01*
X812266Y783391D01*
X810796Y784000D01*
D02*
G37*
G36*
X800796D02*
X799204D01*
X797734Y783391D01*
X796609Y782266D01*
X796000Y780796D01*
Y779204D01*
X796609Y777734D01*
X797734Y776609D01*
X799204Y776000D01*
X800796D01*
X802266Y776609D01*
X803391Y777734D01*
X804000Y779204D01*
Y780796D01*
X803391Y782266D01*
X802266Y783391D01*
X800796Y784000D01*
D02*
G37*
G36*
X790796D02*
X789204D01*
X787734Y783391D01*
X786609Y782266D01*
X786000Y780796D01*
Y779204D01*
X786609Y777734D01*
X787734Y776609D01*
X789204Y776000D01*
X790796D01*
X792266Y776609D01*
X793391Y777734D01*
X794000Y779204D01*
Y780796D01*
X793391Y782266D01*
X792266Y783391D01*
X790796Y784000D01*
D02*
G37*
G36*
X780796D02*
X779204D01*
X777734Y783391D01*
X776609Y782266D01*
X776000Y780796D01*
Y779204D01*
X776609Y777734D01*
X777734Y776609D01*
X779204Y776000D01*
X780796D01*
X782266Y776609D01*
X783391Y777734D01*
X784000Y779204D01*
Y780796D01*
X783391Y782266D01*
X782266Y783391D01*
X780796Y784000D01*
D02*
G37*
G36*
X770796D02*
X769204D01*
X767734Y783391D01*
X766609Y782266D01*
X766000Y780796D01*
Y779204D01*
X766609Y777734D01*
X767734Y776609D01*
X769204Y776000D01*
X770796D01*
X772266Y776609D01*
X773391Y777734D01*
X774000Y779204D01*
Y780796D01*
X773391Y782266D01*
X772266Y783391D01*
X770796Y784000D01*
D02*
G37*
G36*
X510796D02*
X509204D01*
X507734Y783391D01*
X506609Y782266D01*
X506000Y780796D01*
Y779204D01*
X506609Y777734D01*
X507734Y776609D01*
X509204Y776000D01*
X510796D01*
X512266Y776609D01*
X513391Y777734D01*
X514000Y779204D01*
Y780796D01*
X513391Y782266D01*
X512266Y783391D01*
X510796Y784000D01*
D02*
G37*
G36*
X500796D02*
X499204D01*
X497734Y783391D01*
X496609Y782266D01*
X496000Y780796D01*
Y779204D01*
X496609Y777734D01*
X497734Y776609D01*
X499204Y776000D01*
X500796D01*
X502266Y776609D01*
X503391Y777734D01*
X504000Y779204D01*
Y780796D01*
X503391Y782266D01*
X502266Y783391D01*
X500796Y784000D01*
D02*
G37*
G36*
X490796D02*
X489204D01*
X487734Y783391D01*
X486609Y782266D01*
X486000Y780796D01*
Y779204D01*
X486609Y777734D01*
X487734Y776609D01*
X489204Y776000D01*
X490796D01*
X492266Y776609D01*
X493391Y777734D01*
X494000Y779204D01*
Y780796D01*
X493391Y782266D01*
X492266Y783391D01*
X490796Y784000D01*
D02*
G37*
G36*
X480796D02*
X479204D01*
X477734Y783391D01*
X476609Y782266D01*
X476000Y780796D01*
Y779204D01*
X476609Y777734D01*
X477734Y776609D01*
X479204Y776000D01*
X480796D01*
X482266Y776609D01*
X483391Y777734D01*
X484000Y779204D01*
Y780796D01*
X483391Y782266D01*
X482266Y783391D01*
X480796Y784000D01*
D02*
G37*
G36*
X470796D02*
X469204D01*
X467734Y783391D01*
X466609Y782266D01*
X466000Y780796D01*
Y779204D01*
X466609Y777734D01*
X467734Y776609D01*
X469204Y776000D01*
X470796D01*
X472266Y776609D01*
X473391Y777734D01*
X474000Y779204D01*
Y780796D01*
X473391Y782266D01*
X472266Y783391D01*
X470796Y784000D01*
D02*
G37*
G36*
X210796D02*
X209204D01*
X207734Y783391D01*
X206609Y782266D01*
X206000Y780796D01*
Y779204D01*
X206609Y777734D01*
X207734Y776609D01*
X209204Y776000D01*
X210796D01*
X212266Y776609D01*
X213391Y777734D01*
X214000Y779204D01*
Y780796D01*
X213391Y782266D01*
X212266Y783391D01*
X210796Y784000D01*
D02*
G37*
G36*
X200796D02*
X199204D01*
X197734Y783391D01*
X196609Y782266D01*
X196000Y780796D01*
Y779204D01*
X196609Y777734D01*
X197734Y776609D01*
X199204Y776000D01*
X200796D01*
X202266Y776609D01*
X203391Y777734D01*
X204000Y779204D01*
Y780796D01*
X203391Y782266D01*
X202266Y783391D01*
X200796Y784000D01*
D02*
G37*
G36*
X190796D02*
X189204D01*
X187734Y783391D01*
X186609Y782266D01*
X186000Y780796D01*
Y779204D01*
X186609Y777734D01*
X187734Y776609D01*
X189204Y776000D01*
X190796D01*
X192266Y776609D01*
X193391Y777734D01*
X194000Y779204D01*
Y780796D01*
X193391Y782266D01*
X192266Y783391D01*
X190796Y784000D01*
D02*
G37*
G36*
X180796D02*
X179204D01*
X177734Y783391D01*
X176609Y782266D01*
X176000Y780796D01*
Y779204D01*
X176609Y777734D01*
X177734Y776609D01*
X179204Y776000D01*
X180796D01*
X182266Y776609D01*
X183391Y777734D01*
X184000Y779204D01*
Y780796D01*
X183391Y782266D01*
X182266Y783391D01*
X180796Y784000D01*
D02*
G37*
G36*
X170796D02*
X169204D01*
X167734Y783391D01*
X166609Y782266D01*
X166000Y780796D01*
Y779204D01*
X166609Y777734D01*
X167734Y776609D01*
X169204Y776000D01*
X170796D01*
X172266Y776609D01*
X173391Y777734D01*
X174000Y779204D01*
Y780796D01*
X173391Y782266D01*
X172266Y783391D01*
X170796Y784000D01*
D02*
G37*
G36*
X1190796Y776500D02*
X1189204D01*
X1187734Y775891D01*
X1186782Y774939D01*
X1186250Y774835D01*
X1185718Y774939D01*
X1184766Y775891D01*
X1183296Y776500D01*
X1181704D01*
X1180234Y775891D01*
X1179282Y774939D01*
X1178750Y774836D01*
X1178218Y774939D01*
X1177266Y775891D01*
X1175796Y776500D01*
X1174204D01*
X1172734Y775891D01*
X1171609Y774766D01*
X1171000Y773296D01*
Y771704D01*
X1171609Y770234D01*
X1172734Y769109D01*
X1174204Y768500D01*
X1175796D01*
X1177266Y769109D01*
X1178218Y770061D01*
X1178750Y770165D01*
X1179282Y770061D01*
X1180234Y769109D01*
X1181704Y768500D01*
X1183296D01*
X1184766Y769109D01*
X1185718Y770061D01*
X1186250Y770165D01*
X1186782Y770061D01*
X1187734Y769109D01*
X1189204Y768500D01*
X1190796D01*
X1192266Y769109D01*
X1193391Y770234D01*
X1194000Y771704D01*
Y773296D01*
X1193391Y774766D01*
X1192266Y775891D01*
X1190796Y776500D01*
D02*
G37*
G36*
X890796D02*
X889204D01*
X887734Y775891D01*
X886782Y774939D01*
X886250Y774835D01*
X885718Y774939D01*
X884766Y775891D01*
X883296Y776500D01*
X881704D01*
X880234Y775891D01*
X879282Y774939D01*
X878750Y774836D01*
X878218Y774939D01*
X877266Y775891D01*
X875796Y776500D01*
X874204D01*
X872734Y775891D01*
X871609Y774766D01*
X871000Y773296D01*
Y771704D01*
X871609Y770234D01*
X872734Y769109D01*
X874204Y768500D01*
X875796D01*
X877266Y769109D01*
X878218Y770061D01*
X878750Y770165D01*
X879282Y770061D01*
X880234Y769109D01*
X881704Y768500D01*
X883296D01*
X884766Y769109D01*
X885718Y770061D01*
X886250Y770165D01*
X886782Y770061D01*
X887734Y769109D01*
X889204Y768500D01*
X890796D01*
X892266Y769109D01*
X893391Y770234D01*
X894000Y771704D01*
Y773296D01*
X893391Y774766D01*
X892266Y775891D01*
X890796Y776500D01*
D02*
G37*
G36*
X590796D02*
X589204D01*
X587734Y775891D01*
X586782Y774939D01*
X586250Y774835D01*
X585718Y774939D01*
X584766Y775891D01*
X583296Y776500D01*
X581704D01*
X580234Y775891D01*
X579282Y774939D01*
X578750Y774836D01*
X578218Y774939D01*
X577266Y775891D01*
X575796Y776500D01*
X574204D01*
X572734Y775891D01*
X571609Y774766D01*
X571000Y773296D01*
Y771704D01*
X571609Y770234D01*
X572734Y769109D01*
X574204Y768500D01*
X575796D01*
X577266Y769109D01*
X578218Y770061D01*
X578750Y770165D01*
X579282Y770061D01*
X580234Y769109D01*
X581704Y768500D01*
X583296D01*
X584766Y769109D01*
X585718Y770061D01*
X586250Y770165D01*
X586782Y770061D01*
X587734Y769109D01*
X589204Y768500D01*
X590796D01*
X592266Y769109D01*
X593391Y770234D01*
X594000Y771704D01*
Y773296D01*
X593391Y774766D01*
X592266Y775891D01*
X590796Y776500D01*
D02*
G37*
G36*
X290796D02*
X289204D01*
X287734Y775891D01*
X286782Y774939D01*
X286250Y774835D01*
X285718Y774939D01*
X284766Y775891D01*
X283296Y776500D01*
X281704D01*
X280234Y775891D01*
X279282Y774939D01*
X278750Y774836D01*
X278218Y774939D01*
X277266Y775891D01*
X275796Y776500D01*
X274204D01*
X272734Y775891D01*
X271609Y774766D01*
X271000Y773296D01*
Y771704D01*
X271609Y770234D01*
X272734Y769109D01*
X274204Y768500D01*
X275796D01*
X277266Y769109D01*
X278218Y770061D01*
X278750Y770165D01*
X279282Y770061D01*
X280234Y769109D01*
X281704Y768500D01*
X283296D01*
X284766Y769109D01*
X285718Y770061D01*
X286250Y770165D01*
X286782Y770061D01*
X287734Y769109D01*
X289204Y768500D01*
X290796D01*
X292266Y769109D01*
X293391Y770234D01*
X294000Y771704D01*
Y773296D01*
X293391Y774766D01*
X292266Y775891D01*
X290796Y776500D01*
D02*
G37*
G36*
X683296Y781500D02*
X681704D01*
X680234Y780891D01*
X679109Y779766D01*
X678500Y778296D01*
Y776704D01*
X679109Y775234D01*
X680234Y774109D01*
X681704Y773500D01*
X683296D01*
X684766Y774109D01*
X685891Y775234D01*
X686500Y776704D01*
Y778296D01*
X685891Y779766D01*
X684766Y780891D01*
X683296Y781500D01*
D02*
G37*
G36*
X1150796Y776500D02*
X1149204D01*
X1147734Y775891D01*
X1146609Y774766D01*
X1146000Y773296D01*
Y771704D01*
X1146609Y770234D01*
X1147734Y769109D01*
X1149204Y768500D01*
X1150796D01*
X1152266Y769109D01*
X1153391Y770234D01*
X1154000Y771704D01*
Y773296D01*
X1153391Y774766D01*
X1152266Y775891D01*
X1150796Y776500D01*
D02*
G37*
G36*
X850796D02*
X849204D01*
X847734Y775891D01*
X846609Y774766D01*
X846000Y773296D01*
Y771704D01*
X846609Y770234D01*
X847734Y769109D01*
X849204Y768500D01*
X850796D01*
X852266Y769109D01*
X853391Y770234D01*
X854000Y771704D01*
Y773296D01*
X853391Y774766D01*
X852266Y775891D01*
X850796Y776500D01*
D02*
G37*
G36*
X550796D02*
X549204D01*
X547734Y775891D01*
X546609Y774766D01*
X546000Y773296D01*
Y771704D01*
X546609Y770234D01*
X547734Y769109D01*
X549204Y768500D01*
X550796D01*
X552266Y769109D01*
X553391Y770234D01*
X554000Y771704D01*
Y773296D01*
X553391Y774766D01*
X552266Y775891D01*
X550796Y776500D01*
D02*
G37*
G36*
X250796D02*
X249204D01*
X247734Y775891D01*
X246609Y774766D01*
X246000Y773296D01*
Y771704D01*
X246609Y770234D01*
X247734Y769109D01*
X249204Y768500D01*
X250796D01*
X252266Y769109D01*
X253391Y770234D01*
X254000Y771704D01*
Y773296D01*
X253391Y774766D01*
X252266Y775891D01*
X250796Y776500D01*
D02*
G37*
G36*
X690796D02*
X689204D01*
X687734Y775891D01*
X686609Y774766D01*
X686000Y773296D01*
Y771704D01*
X686609Y770234D01*
X687561Y769282D01*
X687665Y768750D01*
X687561Y768218D01*
X686609Y767266D01*
X686000Y765796D01*
Y764204D01*
X686609Y762734D01*
X687734Y761609D01*
X689204Y761000D01*
X690796D01*
X692266Y761609D01*
X693391Y762734D01*
X694000Y764204D01*
Y765796D01*
X693391Y767266D01*
X692439Y768218D01*
X692335Y768750D01*
X692439Y769282D01*
X693391Y770234D01*
X694000Y771704D01*
Y773296D01*
X693391Y774766D01*
X692266Y775891D01*
X690796Y776500D01*
D02*
G37*
G36*
X98296Y791500D02*
X96704D01*
X95234Y790891D01*
X94109Y789766D01*
X93500Y788296D01*
Y786704D01*
X94109Y785234D01*
X95062Y784282D01*
X95165Y783750D01*
X95062Y783218D01*
X94109Y782266D01*
X93500Y780796D01*
Y779204D01*
X94109Y777734D01*
X95061Y776782D01*
X95165Y776250D01*
X95061Y775718D01*
X94109Y774766D01*
X93500Y773296D01*
Y771704D01*
X94109Y770234D01*
X95062Y769282D01*
X95165Y768750D01*
X95062Y768218D01*
X94109Y767266D01*
X93500Y765796D01*
Y764204D01*
X94109Y762734D01*
X95234Y761609D01*
X96704Y761000D01*
X98296D01*
X99766Y761609D01*
X100891Y762734D01*
X101500Y764204D01*
Y765796D01*
X100891Y767266D01*
X99939Y768218D01*
X99835Y768750D01*
X99939Y769282D01*
X100891Y770234D01*
X101500Y771704D01*
Y773296D01*
X100891Y774766D01*
X99939Y775718D01*
X99836Y776250D01*
X99939Y776782D01*
X100891Y777734D01*
X101500Y779204D01*
Y780796D01*
X100891Y782266D01*
X99939Y783218D01*
X99835Y783750D01*
X99939Y784282D01*
X100891Y785234D01*
X101500Y786704D01*
Y788296D01*
X100891Y789766D01*
X99766Y790891D01*
X98296Y791500D01*
D02*
G37*
G36*
X670796Y764000D02*
X669204D01*
X667734Y763391D01*
X666609Y762266D01*
X666000Y760796D01*
Y759204D01*
X666609Y757734D01*
X667561Y756782D01*
X667665Y756250D01*
X667561Y755718D01*
X666609Y754766D01*
X666000Y753296D01*
Y751704D01*
X666609Y750234D01*
X667734Y749109D01*
X669204Y748500D01*
X670796D01*
X672266Y749109D01*
X673391Y750234D01*
X674000Y751704D01*
Y753296D01*
X673391Y754766D01*
X672439Y755718D01*
X672335Y756250D01*
X672439Y756782D01*
X673391Y757734D01*
X674000Y759204D01*
Y760796D01*
X673391Y762266D01*
X672266Y763391D01*
X670796Y764000D01*
D02*
G37*
G36*
X78296Y761500D02*
X76704D01*
X75234Y760891D01*
X74109Y759766D01*
X73500Y758296D01*
Y756704D01*
X74109Y755234D01*
X75061Y754282D01*
X75165Y753750D01*
X75061Y753218D01*
X74109Y752266D01*
X73500Y750796D01*
Y749204D01*
X74109Y747734D01*
X75234Y746609D01*
X76704Y746000D01*
X78296D01*
X79766Y746609D01*
X80891Y747734D01*
X81500Y749204D01*
Y750796D01*
X80891Y752266D01*
X79939Y753218D01*
X79835Y753750D01*
X79939Y754282D01*
X80891Y755234D01*
X81500Y756704D01*
Y758296D01*
X80891Y759766D01*
X79766Y760891D01*
X78296Y761500D01*
D02*
G37*
G36*
X1130796Y744000D02*
X1129204D01*
X1127734Y743391D01*
X1126609Y742266D01*
X1126000Y740796D01*
Y739204D01*
X1126609Y737734D01*
X1127734Y736609D01*
X1129204Y736000D01*
X1130796D01*
X1132266Y736609D01*
X1133391Y737734D01*
X1134000Y739204D01*
Y740796D01*
X1133391Y742266D01*
X1132266Y743391D01*
X1130796Y744000D01*
D02*
G37*
G36*
X1090796D02*
X1089204D01*
X1087734Y743391D01*
X1086609Y742266D01*
X1086000Y740796D01*
Y739204D01*
X1086609Y737734D01*
X1087734Y736609D01*
X1089204Y736000D01*
X1090796D01*
X1092266Y736609D01*
X1093391Y737734D01*
X1094000Y739204D01*
Y740796D01*
X1093391Y742266D01*
X1092266Y743391D01*
X1090796Y744000D01*
D02*
G37*
G36*
X790796D02*
X789204D01*
X787734Y743391D01*
X786609Y742266D01*
X786000Y740796D01*
Y739204D01*
X786609Y737734D01*
X787734Y736609D01*
X789204Y736000D01*
X790796D01*
X792266Y736609D01*
X793391Y737734D01*
X794000Y739204D01*
Y740796D01*
X793391Y742266D01*
X792266Y743391D01*
X790796Y744000D01*
D02*
G37*
G36*
X775796D02*
X774204D01*
X772734Y743391D01*
X771609Y742266D01*
X771000Y740796D01*
Y739204D01*
X771609Y737734D01*
X772734Y736609D01*
X774204Y736000D01*
X775796D01*
X777266Y736609D01*
X778391Y737734D01*
X779000Y739204D01*
Y740796D01*
X778391Y742266D01*
X777266Y743391D01*
X775796Y744000D01*
D02*
G37*
G36*
X530796D02*
X529204D01*
X527734Y743391D01*
X526609Y742266D01*
X526000Y740796D01*
Y739204D01*
X526609Y737734D01*
X527734Y736609D01*
X529204Y736000D01*
X530796D01*
X532266Y736609D01*
X533391Y737734D01*
X534000Y739204D01*
Y740796D01*
X533391Y742266D01*
X532266Y743391D01*
X530796Y744000D01*
D02*
G37*
G36*
X490796D02*
X489204D01*
X487734Y743391D01*
X486609Y742266D01*
X486000Y740796D01*
Y739204D01*
X486609Y737734D01*
X487734Y736609D01*
X489204Y736000D01*
X490796D01*
X492266Y736609D01*
X493391Y737734D01*
X494000Y739204D01*
Y740796D01*
X493391Y742266D01*
X492266Y743391D01*
X490796Y744000D01*
D02*
G37*
G36*
X230796D02*
X229204D01*
X227734Y743391D01*
X226609Y742266D01*
X226000Y740796D01*
Y739204D01*
X226609Y737734D01*
X227734Y736609D01*
X229204Y736000D01*
X230796D01*
X232266Y736609D01*
X233391Y737734D01*
X234000Y739204D01*
Y740796D01*
X233391Y742266D01*
X232266Y743391D01*
X230796Y744000D01*
D02*
G37*
G36*
X190796D02*
X189204D01*
X187734Y743391D01*
X186609Y742266D01*
X186000Y740796D01*
Y739204D01*
X186609Y737734D01*
X187734Y736609D01*
X189204Y736000D01*
X190796D01*
X192266Y736609D01*
X193391Y737734D01*
X194000Y739204D01*
Y740796D01*
X193391Y742266D01*
X192266Y743391D01*
X190796Y744000D01*
D02*
G37*
G36*
X843296Y734000D02*
X841704D01*
X840234Y733391D01*
X839109Y732266D01*
X838500Y730796D01*
Y729204D01*
X839109Y727734D01*
X840234Y726609D01*
X841704Y726000D01*
X843296D01*
X844766Y726609D01*
X845891Y727734D01*
X846500Y729204D01*
Y730796D01*
X845891Y732266D01*
X844766Y733391D01*
X843296Y734000D01*
D02*
G37*
G36*
X490796Y729000D02*
X489204D01*
X487734Y728391D01*
X486609Y727266D01*
X486000Y725796D01*
Y724204D01*
X486609Y722734D01*
X487734Y721609D01*
X489204Y721000D01*
X490796D01*
X492266Y721609D01*
X493391Y722734D01*
X494000Y724204D01*
Y725796D01*
X493391Y727266D01*
X492266Y728391D01*
X490796Y729000D01*
D02*
G37*
G36*
X460796D02*
X459204D01*
X457734Y728391D01*
X456609Y727266D01*
X456000Y725796D01*
Y724204D01*
X456609Y722734D01*
X457734Y721609D01*
X459204Y721000D01*
X460796D01*
X462266Y721609D01*
X463391Y722734D01*
X464000Y724204D01*
Y725796D01*
X463391Y727266D01*
X462266Y728391D01*
X460796Y729000D01*
D02*
G37*
G36*
X230796D02*
X229204D01*
X227734Y728391D01*
X226609Y727266D01*
X226000Y725796D01*
Y724204D01*
X226609Y722734D01*
X227734Y721609D01*
X229204Y721000D01*
X230796D01*
X232266Y721609D01*
X233391Y722734D01*
X234000Y724204D01*
Y725796D01*
X233391Y727266D01*
X232266Y728391D01*
X230796Y729000D01*
D02*
G37*
G36*
X190796D02*
X189204D01*
X187734Y728391D01*
X186609Y727266D01*
X186000Y725796D01*
Y724204D01*
X186609Y722734D01*
X187734Y721609D01*
X189204Y721000D01*
X190796D01*
X192266Y721609D01*
X193391Y722734D01*
X194000Y724204D01*
Y725796D01*
X193391Y727266D01*
X192266Y728391D01*
X190796Y729000D01*
D02*
G37*
G36*
X533296Y726500D02*
X531704D01*
X530234Y725891D01*
X529109Y724766D01*
X528500Y723296D01*
Y721704D01*
X529109Y720234D01*
X530234Y719109D01*
X531704Y718500D01*
X533296D01*
X534766Y719109D01*
X535891Y720234D01*
X536500Y721704D01*
Y723296D01*
X535891Y724766D01*
X534766Y725891D01*
X533296Y726500D01*
D02*
G37*
G36*
X1130796Y724000D02*
X1129204D01*
X1127734Y723391D01*
X1126609Y722266D01*
X1126000Y720796D01*
Y719204D01*
X1126609Y717734D01*
X1127734Y716609D01*
X1129204Y716000D01*
X1130796D01*
X1132266Y716609D01*
X1133391Y717734D01*
X1134000Y719204D01*
Y720796D01*
X1133391Y722266D01*
X1132266Y723391D01*
X1130796Y724000D01*
D02*
G37*
G36*
X783296D02*
X781704D01*
X780234Y723391D01*
X779109Y722266D01*
X778500Y720796D01*
Y719204D01*
X779109Y717734D01*
X780234Y716609D01*
X781704Y716000D01*
X783296D01*
X784766Y716609D01*
X785891Y717734D01*
X786500Y719204D01*
Y720796D01*
X785891Y722266D01*
X784766Y723391D01*
X783296Y724000D01*
D02*
G37*
G36*
X1030796Y721500D02*
X1029204D01*
X1027734Y720891D01*
X1026609Y719766D01*
X1026000Y718296D01*
Y716704D01*
X1026609Y715234D01*
X1027734Y714109D01*
X1029204Y713500D01*
X1030796D01*
X1032266Y714109D01*
X1033391Y715234D01*
X1034000Y716704D01*
Y718296D01*
X1033391Y719766D01*
X1032266Y720891D01*
X1030796Y721500D01*
D02*
G37*
G36*
X730796D02*
X729204D01*
X727734Y720891D01*
X726609Y719766D01*
X726000Y718296D01*
Y716704D01*
X726609Y715234D01*
X727734Y714109D01*
X729204Y713500D01*
X730796D01*
X732266Y714109D01*
X733391Y715234D01*
X734000Y716704D01*
Y718296D01*
X733391Y719766D01*
X732266Y720891D01*
X730796Y721500D01*
D02*
G37*
G36*
X130796D02*
X129204D01*
X127734Y720891D01*
X126609Y719766D01*
X126000Y718296D01*
Y716704D01*
X126609Y715234D01*
X127734Y714109D01*
X129204Y713500D01*
X130796D01*
X132266Y714109D01*
X133391Y715234D01*
X134000Y716704D01*
Y718296D01*
X133391Y719766D01*
X132266Y720891D01*
X130796Y721500D01*
D02*
G37*
G36*
X830796Y744000D02*
X829204D01*
X827734Y743391D01*
X826609Y742266D01*
X826000Y740796D01*
Y739204D01*
X826609Y737734D01*
X827734Y736609D01*
X829204Y736000D01*
X830796D01*
X832266Y736609D01*
X833221Y737564D01*
X853991D01*
X876000Y715555D01*
Y714204D01*
X876609Y712734D01*
X877734Y711609D01*
X879204Y711000D01*
X880796D01*
X882266Y711609D01*
X883391Y712734D01*
X884000Y714204D01*
Y715796D01*
X883391Y717266D01*
X882266Y718391D01*
X880796Y719000D01*
X879445D01*
X856722Y741722D01*
X855932Y742250D01*
X855000Y742436D01*
X833221D01*
X832266Y743391D01*
X830796Y744000D01*
D02*
G37*
G36*
X1075796D02*
X1074204D01*
X1072734Y743391D01*
X1071609Y742266D01*
X1071000Y740796D01*
Y739204D01*
X1071609Y737734D01*
X1072734Y736609D01*
X1072819Y736574D01*
Y715000D01*
X1072819Y715000D01*
X1072985Y714165D01*
X1073458Y713458D01*
X1086035Y700881D01*
X1086000Y700796D01*
Y699204D01*
X1086609Y697734D01*
X1087734Y696609D01*
X1089204Y696000D01*
X1090796D01*
X1092266Y696609D01*
X1093391Y697734D01*
X1093426Y697819D01*
X1122500D01*
X1122500Y697819D01*
X1123335Y697985D01*
X1124042Y698458D01*
X1126619Y701035D01*
X1126704Y701000D01*
X1128296D01*
X1129766Y701609D01*
X1130891Y702734D01*
X1131500Y704204D01*
Y705796D01*
X1130891Y707266D01*
X1129766Y708391D01*
X1128296Y709000D01*
X1126704D01*
X1125234Y708391D01*
X1124109Y707266D01*
X1123500Y705796D01*
Y704204D01*
X1123535Y704119D01*
X1121597Y702181D01*
X1093426D01*
X1093391Y702266D01*
X1092266Y703391D01*
X1090796Y704000D01*
X1089204D01*
X1089119Y703965D01*
X1077181Y715903D01*
Y736574D01*
X1077266Y736609D01*
X1078391Y737734D01*
X1079000Y739204D01*
Y740796D01*
X1078391Y742266D01*
X1077266Y743391D01*
X1075796Y744000D01*
D02*
G37*
G36*
X433296Y716500D02*
X431704D01*
X430234Y715891D01*
X429109Y714766D01*
X428500Y713296D01*
Y711704D01*
X429109Y710234D01*
X430061Y709282D01*
X430165Y708750D01*
X430061Y708218D01*
X429109Y707266D01*
X428500Y705796D01*
Y704204D01*
X429109Y702734D01*
X430061Y701782D01*
X430164Y701250D01*
X430061Y700718D01*
X429109Y699766D01*
X428500Y698296D01*
Y696704D01*
X429109Y695234D01*
X430234Y694109D01*
X431704Y693500D01*
X433296D01*
X434766Y694109D01*
X435891Y695234D01*
X436500Y696704D01*
Y698296D01*
X435891Y699766D01*
X434939Y700718D01*
X434836Y701250D01*
X434939Y701782D01*
X435891Y702734D01*
X436500Y704204D01*
Y705796D01*
X435891Y707266D01*
X434939Y708218D01*
X434835Y708750D01*
X434939Y709282D01*
X435891Y710234D01*
X436500Y711704D01*
Y713296D01*
X435891Y714766D01*
X434766Y715891D01*
X433296Y716500D01*
D02*
G37*
G36*
X445796Y696500D02*
X444204D01*
X442734Y695891D01*
X441609Y694766D01*
X441000Y693296D01*
Y691704D01*
X441609Y690234D01*
X442734Y689109D01*
X444204Y688500D01*
X445796D01*
X447266Y689109D01*
X448391Y690234D01*
X449000Y691704D01*
Y693296D01*
X448391Y694766D01*
X447266Y695891D01*
X445796Y696500D01*
D02*
G37*
G36*
X578296Y694000D02*
X576704D01*
X575234Y693391D01*
X574109Y692266D01*
X573500Y690796D01*
Y689204D01*
X574109Y687734D01*
X575234Y686609D01*
X576704Y686000D01*
X578296D01*
X579766Y686609D01*
X580891Y687734D01*
X581500Y689204D01*
Y690796D01*
X580891Y692266D01*
X579766Y693391D01*
X578296Y694000D01*
D02*
G37*
G36*
X563296D02*
X561704D01*
X560234Y693391D01*
X559109Y692266D01*
X558500Y690796D01*
Y689204D01*
X559109Y687734D01*
X560234Y686609D01*
X561704Y686000D01*
X563296D01*
X564766Y686609D01*
X565891Y687734D01*
X566500Y689204D01*
Y690796D01*
X565891Y692266D01*
X564766Y693391D01*
X563296Y694000D01*
D02*
G37*
G36*
X548296D02*
X546704D01*
X545234Y693391D01*
X544109Y692266D01*
X543500Y690796D01*
Y689204D01*
X544109Y687734D01*
X545234Y686609D01*
X546704Y686000D01*
X548296D01*
X549766Y686609D01*
X550891Y687734D01*
X551500Y689204D01*
Y690796D01*
X550891Y692266D01*
X549766Y693391D01*
X548296Y694000D01*
D02*
G37*
G36*
X533296D02*
X531704D01*
X530234Y693391D01*
X529109Y692266D01*
X528500Y690796D01*
Y689204D01*
X529109Y687734D01*
X530234Y686609D01*
X531704Y686000D01*
X533296D01*
X534766Y686609D01*
X535891Y687734D01*
X536500Y689204D01*
Y690796D01*
X535891Y692266D01*
X534766Y693391D01*
X533296Y694000D01*
D02*
G37*
G36*
X518296D02*
X516704D01*
X515234Y693391D01*
X514109Y692266D01*
X513500Y690796D01*
Y689204D01*
X514109Y687734D01*
X515234Y686609D01*
X516704Y686000D01*
X518296D01*
X519766Y686609D01*
X520891Y687734D01*
X521500Y689204D01*
Y690796D01*
X520891Y692266D01*
X519766Y693391D01*
X518296Y694000D01*
D02*
G37*
G36*
X503296D02*
X501704D01*
X500234Y693391D01*
X499109Y692266D01*
X498500Y690796D01*
Y689204D01*
X499109Y687734D01*
X500234Y686609D01*
X501704Y686000D01*
X503296D01*
X504766Y686609D01*
X505891Y687734D01*
X506500Y689204D01*
Y690796D01*
X505891Y692266D01*
X504766Y693391D01*
X503296Y694000D01*
D02*
G37*
G36*
X1153296Y686500D02*
X1151704D01*
X1150234Y685891D01*
X1149109Y684766D01*
X1148500Y683296D01*
Y681704D01*
X1149109Y680234D01*
X1150234Y679109D01*
X1151704Y678500D01*
X1153296D01*
X1154766Y679109D01*
X1155891Y680234D01*
X1156500Y681704D01*
Y683296D01*
X1155891Y684766D01*
X1154766Y685891D01*
X1153296Y686500D01*
D02*
G37*
G36*
X1140796D02*
X1139204D01*
X1137734Y685891D01*
X1136609Y684766D01*
X1136000Y683296D01*
Y681704D01*
X1136609Y680234D01*
X1137734Y679109D01*
X1139204Y678500D01*
X1140796D01*
X1142266Y679109D01*
X1143391Y680234D01*
X1144000Y681704D01*
Y683296D01*
X1143391Y684766D01*
X1142266Y685891D01*
X1140796Y686500D01*
D02*
G37*
G36*
X1128296D02*
X1126704D01*
X1125234Y685891D01*
X1124109Y684766D01*
X1123500Y683296D01*
Y681704D01*
X1124109Y680234D01*
X1125234Y679109D01*
X1126704Y678500D01*
X1128296D01*
X1129766Y679109D01*
X1130891Y680234D01*
X1131500Y681704D01*
Y683296D01*
X1130891Y684766D01*
X1129766Y685891D01*
X1128296Y686500D01*
D02*
G37*
G36*
X1115796D02*
X1114204D01*
X1112734Y685891D01*
X1111609Y684766D01*
X1111000Y683296D01*
Y681704D01*
X1111609Y680234D01*
X1112734Y679109D01*
X1114204Y678500D01*
X1115796D01*
X1117266Y679109D01*
X1118391Y680234D01*
X1119000Y681704D01*
Y683296D01*
X1118391Y684766D01*
X1117266Y685891D01*
X1115796Y686500D01*
D02*
G37*
G36*
X1103296D02*
X1101704D01*
X1100234Y685891D01*
X1099109Y684766D01*
X1098500Y683296D01*
Y681704D01*
X1099109Y680234D01*
X1100234Y679109D01*
X1101704Y678500D01*
X1103296D01*
X1104766Y679109D01*
X1105891Y680234D01*
X1106500Y681704D01*
Y683296D01*
X1105891Y684766D01*
X1104766Y685891D01*
X1103296Y686500D01*
D02*
G37*
G36*
X1090796D02*
X1089204D01*
X1087734Y685891D01*
X1086609Y684766D01*
X1086000Y683296D01*
Y681704D01*
X1086609Y680234D01*
X1087734Y679109D01*
X1089204Y678500D01*
X1090796D01*
X1092266Y679109D01*
X1093391Y680234D01*
X1094000Y681704D01*
Y683296D01*
X1093391Y684766D01*
X1092266Y685891D01*
X1090796Y686500D01*
D02*
G37*
G36*
X475796Y744000D02*
X474204D01*
X472734Y743391D01*
X471609Y742266D01*
X471000Y740796D01*
Y739204D01*
X471609Y737734D01*
X472564Y736779D01*
Y701000D01*
X472750Y700068D01*
X473278Y699278D01*
X498500Y674055D01*
Y672704D01*
X499109Y671234D01*
X500234Y670109D01*
X501704Y669500D01*
X503296D01*
X504766Y670109D01*
X505891Y671234D01*
X506500Y672704D01*
Y674296D01*
X505891Y675766D01*
X504766Y676891D01*
X503296Y677500D01*
X501945D01*
X477436Y702009D01*
Y736779D01*
X478391Y737734D01*
X479000Y739204D01*
Y740796D01*
X478391Y742266D01*
X477266Y743391D01*
X475796Y744000D01*
D02*
G37*
G36*
X532851Y677056D02*
X531260D01*
X529790Y676447D01*
X528665Y675321D01*
X528056Y673851D01*
Y672260D01*
X528665Y670790D01*
X529790Y669664D01*
X531260Y669055D01*
X532851D01*
X534321Y669664D01*
X535447Y670790D01*
X536055Y672260D01*
Y673851D01*
X535447Y675321D01*
X534321Y676447D01*
X532851Y677056D01*
D02*
G37*
G36*
X1153296Y671500D02*
X1151704D01*
X1150234Y670891D01*
X1149109Y669766D01*
X1148500Y668296D01*
Y666704D01*
X1149109Y665234D01*
X1150234Y664109D01*
X1151704Y663500D01*
X1153296D01*
X1154766Y664109D01*
X1155891Y665234D01*
X1156500Y666704D01*
Y668296D01*
X1155891Y669766D01*
X1154766Y670891D01*
X1153296Y671500D01*
D02*
G37*
G36*
X1140796D02*
X1139204D01*
X1137734Y670891D01*
X1136609Y669766D01*
X1136000Y668296D01*
Y666704D01*
X1136609Y665234D01*
X1137734Y664109D01*
X1139204Y663500D01*
X1140796D01*
X1142266Y664109D01*
X1143391Y665234D01*
X1144000Y666704D01*
Y668296D01*
X1143391Y669766D01*
X1142266Y670891D01*
X1140796Y671500D01*
D02*
G37*
G36*
X1128296D02*
X1126704D01*
X1125234Y670891D01*
X1124109Y669766D01*
X1123500Y668296D01*
Y666704D01*
X1124109Y665234D01*
X1125234Y664109D01*
X1126704Y663500D01*
X1128296D01*
X1129766Y664109D01*
X1130891Y665234D01*
X1131500Y666704D01*
Y668296D01*
X1130891Y669766D01*
X1129766Y670891D01*
X1128296Y671500D01*
D02*
G37*
G36*
X1115796D02*
X1114204D01*
X1112734Y670891D01*
X1111609Y669766D01*
X1111000Y668296D01*
Y666704D01*
X1111609Y665234D01*
X1112734Y664109D01*
X1114204Y663500D01*
X1115796D01*
X1117266Y664109D01*
X1118391Y665234D01*
X1119000Y666704D01*
Y668296D01*
X1118391Y669766D01*
X1117266Y670891D01*
X1115796Y671500D01*
D02*
G37*
G36*
X1103296D02*
X1101704D01*
X1100234Y670891D01*
X1099109Y669766D01*
X1098500Y668296D01*
Y666704D01*
X1099109Y665234D01*
X1100234Y664109D01*
X1101704Y663500D01*
X1103296D01*
X1104766Y664109D01*
X1105891Y665234D01*
X1106500Y666704D01*
Y668296D01*
X1105891Y669766D01*
X1104766Y670891D01*
X1103296Y671500D01*
D02*
G37*
G36*
X1090796D02*
X1089204D01*
X1087734Y670891D01*
X1086609Y669766D01*
X1086000Y668296D01*
Y666704D01*
X1086609Y665234D01*
X1087734Y664109D01*
X1089204Y663500D01*
X1090796D01*
X1092266Y664109D01*
X1093391Y665234D01*
X1094000Y666704D01*
Y668296D01*
X1093391Y669766D01*
X1092266Y670891D01*
X1090796Y671500D01*
D02*
G37*
G36*
X650796Y661500D02*
X649204D01*
X647734Y660891D01*
X646609Y659766D01*
X646000Y658296D01*
Y656704D01*
X646609Y655234D01*
X647734Y654109D01*
X649204Y653500D01*
X650796D01*
X652266Y654109D01*
X653391Y655234D01*
X654000Y656704D01*
Y658296D01*
X653391Y659766D01*
X652266Y660891D01*
X650796Y661500D01*
D02*
G37*
G36*
X640796D02*
X639204D01*
X637734Y660891D01*
X636609Y659766D01*
X636000Y658296D01*
Y656704D01*
X636609Y655234D01*
X637734Y654109D01*
X639204Y653500D01*
X640796D01*
X642266Y654109D01*
X643391Y655234D01*
X644000Y656704D01*
Y658296D01*
X643391Y659766D01*
X642266Y660891D01*
X640796Y661500D01*
D02*
G37*
G36*
X610796D02*
X609204D01*
X607734Y660891D01*
X606609Y659766D01*
X606000Y658296D01*
Y656704D01*
X606609Y655234D01*
X607734Y654109D01*
X609204Y653500D01*
X610796D01*
X612266Y654109D01*
X613391Y655234D01*
X614000Y656704D01*
Y658296D01*
X613391Y659766D01*
X612266Y660891D01*
X610796Y661500D01*
D02*
G37*
G36*
X600796D02*
X599204D01*
X597734Y660891D01*
X596609Y659766D01*
X596000Y658296D01*
Y656704D01*
X596609Y655234D01*
X597734Y654109D01*
X599204Y653500D01*
X600796D01*
X602266Y654109D01*
X603391Y655234D01*
X604000Y656704D01*
Y658296D01*
X603391Y659766D01*
X602266Y660891D01*
X600796Y661500D01*
D02*
G37*
G36*
X210796Y654000D02*
X209204D01*
X207734Y653391D01*
X206782Y652439D01*
X206250Y652335D01*
X205718Y652439D01*
X204766Y653391D01*
X203296Y654000D01*
X201704D01*
X200234Y653391D01*
X199109Y652266D01*
X198500Y650796D01*
Y649204D01*
X199109Y647734D01*
X200234Y646609D01*
X201704Y646000D01*
X203296D01*
X204766Y646609D01*
X205718Y647561D01*
X206250Y647664D01*
X206782Y647561D01*
X207734Y646609D01*
X209204Y646000D01*
X210796D01*
X212266Y646609D01*
X213391Y647734D01*
X214000Y649204D01*
Y650796D01*
X213391Y652266D01*
X212266Y653391D01*
X210796Y654000D01*
D02*
G37*
G36*
X268296D02*
X266704D01*
X265234Y653391D01*
X264109Y652266D01*
X263500Y650796D01*
Y649204D01*
X264109Y647734D01*
X265234Y646609D01*
X266704Y646000D01*
X268296D01*
X269766Y646609D01*
X270891Y647734D01*
X271500Y649204D01*
Y650796D01*
X270891Y652266D01*
X269766Y653391D01*
X268296Y654000D01*
D02*
G37*
G36*
X253296D02*
X251704D01*
X250234Y653391D01*
X249109Y652266D01*
X248500Y650796D01*
Y649204D01*
X249109Y647734D01*
X250234Y646609D01*
X251704Y646000D01*
X253296D01*
X254766Y646609D01*
X255891Y647734D01*
X256500Y649204D01*
Y650796D01*
X255891Y652266D01*
X254766Y653391D01*
X253296Y654000D01*
D02*
G37*
G36*
X238296D02*
X236704D01*
X235234Y653391D01*
X234109Y652266D01*
X233500Y650796D01*
Y649204D01*
X234109Y647734D01*
X235234Y646609D01*
X236704Y646000D01*
X238296D01*
X239766Y646609D01*
X240891Y647734D01*
X241500Y649204D01*
Y650796D01*
X240891Y652266D01*
X239766Y653391D01*
X238296Y654000D01*
D02*
G37*
G36*
X223296D02*
X221704D01*
X220234Y653391D01*
X219109Y652266D01*
X218500Y650796D01*
Y649204D01*
X219109Y647734D01*
X220234Y646609D01*
X221704Y646000D01*
X223296D01*
X224766Y646609D01*
X225891Y647734D01*
X226500Y649204D01*
Y650796D01*
X225891Y652266D01*
X224766Y653391D01*
X223296Y654000D01*
D02*
G37*
G36*
X630796Y639000D02*
X629204D01*
X627734Y638391D01*
X626609Y637266D01*
X626000Y635796D01*
Y634204D01*
X626609Y632734D01*
X627734Y631609D01*
X629204Y631000D01*
X630796D01*
X632266Y631609D01*
X633391Y632734D01*
X634000Y634204D01*
Y635796D01*
X633391Y637266D01*
X632266Y638391D01*
X630796Y639000D01*
D02*
G37*
G36*
X620796D02*
X619204D01*
X617734Y638391D01*
X616609Y637266D01*
X616000Y635796D01*
Y634204D01*
X616609Y632734D01*
X617734Y631609D01*
X619204Y631000D01*
X620796D01*
X622266Y631609D01*
X623391Y632734D01*
X624000Y634204D01*
Y635796D01*
X623391Y637266D01*
X622266Y638391D01*
X620796Y639000D01*
D02*
G37*
G36*
X660796Y661500D02*
X659204D01*
X657734Y660891D01*
X656609Y659766D01*
X656000Y658296D01*
Y656704D01*
X656609Y655234D01*
X657734Y654109D01*
X659204Y653500D01*
X660179D01*
X660836Y653336D01*
X661000Y652679D01*
Y651704D01*
X661609Y650234D01*
X662734Y649109D01*
X664204Y648500D01*
X665179D01*
X665836Y648336D01*
X666000Y647679D01*
Y646704D01*
X666609Y645234D01*
X667734Y644109D01*
X669204Y643500D01*
X670179D01*
X670836Y643336D01*
X671000Y642679D01*
Y641704D01*
X671609Y640234D01*
X672734Y639109D01*
X674204Y638500D01*
X675179D01*
X675836Y638336D01*
X676000Y637679D01*
Y636704D01*
X676609Y635234D01*
X677734Y634109D01*
X679204Y633500D01*
X680179D01*
X680836Y633336D01*
X681000Y632679D01*
Y631704D01*
X681609Y630234D01*
X682734Y629109D01*
X684204Y628500D01*
X685796D01*
X687266Y629109D01*
X688391Y630234D01*
X689000Y631704D01*
Y633296D01*
X688391Y634766D01*
X687266Y635891D01*
X685796Y636500D01*
X684821D01*
X684164Y636664D01*
X684000Y637321D01*
Y638296D01*
X683391Y639766D01*
X682266Y640891D01*
X680796Y641500D01*
X679821D01*
X679164Y641664D01*
X679000Y642321D01*
Y643296D01*
X678391Y644766D01*
X677266Y645891D01*
X675796Y646500D01*
X674821D01*
X674164Y646664D01*
X674000Y647321D01*
Y648296D01*
X673391Y649766D01*
X672266Y650891D01*
X670796Y651500D01*
X669821D01*
X669164Y651664D01*
X669000Y652321D01*
Y653296D01*
X668391Y654766D01*
X667266Y655891D01*
X665796Y656500D01*
X664821D01*
X664164Y656664D01*
X664000Y657321D01*
Y658296D01*
X663391Y659766D01*
X662266Y660891D01*
X660796Y661500D01*
D02*
G37*
G36*
X175796Y744000D02*
X174204D01*
X172734Y743391D01*
X171609Y742266D01*
X171000Y740796D01*
Y739204D01*
X171609Y737734D01*
X172564Y736779D01*
Y710000D01*
X172750Y709068D01*
X173278Y708278D01*
X186000Y695555D01*
Y694204D01*
X186609Y692734D01*
X187564Y691779D01*
Y640000D01*
X187750Y639068D01*
X188278Y638278D01*
X196000Y630555D01*
Y629204D01*
X196609Y627734D01*
X197734Y626609D01*
X199204Y626000D01*
X200796D01*
X202266Y626609D01*
X203221Y627564D01*
X249279D01*
X250234Y626609D01*
X251704Y626000D01*
X253296D01*
X254766Y626609D01*
X255891Y627734D01*
X256500Y629204D01*
Y630796D01*
X255891Y632266D01*
X254766Y633391D01*
X253296Y634000D01*
X251704D01*
X250234Y633391D01*
X249279Y632436D01*
X203221D01*
X202266Y633391D01*
X200796Y634000D01*
X199445D01*
X192436Y641009D01*
Y691779D01*
X193391Y692734D01*
X194000Y694204D01*
Y695796D01*
X193391Y697266D01*
X192266Y698391D01*
X190796Y699000D01*
X189445D01*
X177436Y711009D01*
Y736779D01*
X178391Y737734D01*
X179000Y739204D01*
Y740796D01*
X178391Y742266D01*
X177266Y743391D01*
X175796Y744000D01*
D02*
G37*
G36*
X331151Y603739D02*
X328849D01*
X326627Y603143D01*
X324634Y601993D01*
X323007Y600366D01*
X321857Y598373D01*
X321261Y596151D01*
Y593849D01*
X321857Y591627D01*
X323007Y589634D01*
X324634Y588007D01*
X326627Y586857D01*
X328849Y586261D01*
X331151D01*
X333373Y586857D01*
X335366Y588007D01*
X336993Y589634D01*
X338143Y591627D01*
X338739Y593849D01*
Y596151D01*
X338143Y598373D01*
X336993Y600366D01*
X335366Y601993D01*
X333373Y603143D01*
X331151Y603739D01*
D02*
G37*
G36*
X201150D02*
X198850D01*
X196627Y603143D01*
X194634Y601993D01*
X193007Y600366D01*
X191857Y598373D01*
X191261Y596151D01*
Y593849D01*
X191857Y591627D01*
X193007Y589634D01*
X194634Y588007D01*
X196627Y586857D01*
X198850Y586261D01*
X201150D01*
X203373Y586857D01*
X205366Y588007D01*
X206993Y589634D01*
X208143Y591627D01*
X208739Y593849D01*
Y596151D01*
X208143Y598373D01*
X206993Y600366D01*
X205366Y601993D01*
X203373Y603143D01*
X201150Y603739D01*
D02*
G37*
G36*
X1151151Y598739D02*
X1148849D01*
X1146627Y598143D01*
X1144634Y596993D01*
X1143007Y595366D01*
X1141857Y593373D01*
X1141261Y591151D01*
Y588849D01*
X1141857Y586627D01*
X1143007Y584634D01*
X1144634Y583007D01*
X1146627Y581856D01*
X1148849Y581261D01*
X1151151D01*
X1153373Y581856D01*
X1155366Y583007D01*
X1156993Y584634D01*
X1158143Y586627D01*
X1158739Y588849D01*
Y591151D01*
X1158143Y593373D01*
X1156993Y595366D01*
X1155366Y596993D01*
X1153373Y598143D01*
X1151151Y598739D01*
D02*
G37*
G36*
X1111151D02*
X1108849D01*
X1106627Y598143D01*
X1104634Y596993D01*
X1103007Y595366D01*
X1101857Y593373D01*
X1101261Y591151D01*
Y588849D01*
X1101857Y586627D01*
X1103007Y584634D01*
X1104634Y583007D01*
X1106627Y581856D01*
X1108849Y581261D01*
X1111151D01*
X1113373Y581856D01*
X1115366Y583007D01*
X1116993Y584634D01*
X1118143Y586627D01*
X1118739Y588849D01*
Y591151D01*
X1118143Y593373D01*
X1116993Y595366D01*
X1115366Y596993D01*
X1113373Y598143D01*
X1111151Y598739D01*
D02*
G37*
G36*
X1071151D02*
X1068849D01*
X1066627Y598143D01*
X1064634Y596993D01*
X1063007Y595366D01*
X1061857Y593373D01*
X1061261Y591151D01*
Y588849D01*
X1061857Y586627D01*
X1063007Y584634D01*
X1064634Y583007D01*
X1066627Y581856D01*
X1068849Y581261D01*
X1071151D01*
X1073373Y581856D01*
X1075366Y583007D01*
X1076993Y584634D01*
X1078143Y586627D01*
X1078739Y588849D01*
Y591151D01*
X1078143Y593373D01*
X1076993Y595366D01*
X1075366Y596993D01*
X1073373Y598143D01*
X1071151Y598739D01*
D02*
G37*
G36*
X1031151D02*
X1028849D01*
X1026627Y598143D01*
X1024634Y596993D01*
X1023007Y595366D01*
X1021857Y593373D01*
X1021261Y591151D01*
Y588849D01*
X1021857Y586627D01*
X1023007Y584634D01*
X1024634Y583007D01*
X1026627Y581856D01*
X1028849Y581261D01*
X1031151D01*
X1033373Y581856D01*
X1035366Y583007D01*
X1036993Y584634D01*
X1038143Y586627D01*
X1038739Y588849D01*
Y591151D01*
X1038143Y593373D01*
X1036993Y595366D01*
X1035366Y596993D01*
X1033373Y598143D01*
X1031151Y598739D01*
D02*
G37*
G36*
X630796Y566500D02*
X629204D01*
X627734Y565891D01*
X626609Y564766D01*
X626000Y563296D01*
Y561704D01*
X626609Y560234D01*
X627734Y559109D01*
X629204Y558500D01*
X630796D01*
X632266Y559109D01*
X633391Y560234D01*
X634000Y561704D01*
Y563296D01*
X633391Y564766D01*
X632266Y565891D01*
X630796Y566500D01*
D02*
G37*
G36*
X1163296Y561500D02*
X1161704D01*
X1160234Y560891D01*
X1159109Y559766D01*
X1158500Y558296D01*
Y556704D01*
X1159109Y555234D01*
X1160234Y554109D01*
X1161704Y553500D01*
X1163296D01*
X1164766Y554109D01*
X1165891Y555234D01*
X1166500Y556704D01*
Y558296D01*
X1165891Y559766D01*
X1164766Y560891D01*
X1163296Y561500D01*
D02*
G37*
G36*
X925796D02*
X924204D01*
X922734Y560891D01*
X921609Y559766D01*
X921000Y558296D01*
Y556704D01*
X921609Y555234D01*
X922734Y554109D01*
X924204Y553500D01*
X925796D01*
X927266Y554109D01*
X928391Y555234D01*
X929000Y556704D01*
Y558296D01*
X928391Y559766D01*
X927266Y560891D01*
X925796Y561500D01*
D02*
G37*
G36*
X692796Y556000D02*
X691204D01*
X689734Y555391D01*
X688609Y554266D01*
X688000Y552796D01*
Y551204D01*
X688609Y549734D01*
X689734Y548609D01*
X691204Y548000D01*
X692796D01*
X694266Y548609D01*
X695391Y549734D01*
X696000Y551204D01*
Y552796D01*
X695391Y554266D01*
X694266Y555391D01*
X692796Y556000D01*
D02*
G37*
G36*
X588796D02*
X587204D01*
X585734Y555391D01*
X584609Y554266D01*
X584000Y552796D01*
Y551204D01*
X584609Y549734D01*
X585734Y548609D01*
X587204Y548000D01*
X588796D01*
X590266Y548609D01*
X591391Y549734D01*
X592000Y551204D01*
Y552796D01*
X591391Y554266D01*
X590266Y555391D01*
X588796Y556000D01*
D02*
G37*
G36*
X415796Y549000D02*
X414204D01*
X412734Y548391D01*
X411609Y547266D01*
X411000Y545796D01*
Y544821D01*
X410836Y544164D01*
X410179Y544000D01*
X409821D01*
X409164Y544164D01*
X409000Y544821D01*
Y545796D01*
X408391Y547266D01*
X407266Y548391D01*
X405796Y549000D01*
X404204D01*
X402734Y548391D01*
X401609Y547266D01*
X401000Y545796D01*
Y544204D01*
X401609Y542734D01*
X402734Y541609D01*
X404204Y541000D01*
X405179D01*
X405836Y540836D01*
X406000Y540179D01*
Y539204D01*
X406609Y537734D01*
X407734Y536609D01*
X409204Y536000D01*
X410796D01*
X412266Y536609D01*
X413391Y537734D01*
X414000Y539204D01*
Y540179D01*
X414164Y540836D01*
X414821Y541000D01*
X415796D01*
X417266Y541609D01*
X418391Y542734D01*
X419000Y544204D01*
Y545796D01*
X418391Y547266D01*
X417266Y548391D01*
X415796Y549000D01*
D02*
G37*
G36*
X385796D02*
X384204D01*
X382734Y548391D01*
X381609Y547266D01*
X381000Y545796D01*
Y544821D01*
X380836Y544164D01*
X380179Y544000D01*
X379821D01*
X379164Y544164D01*
X379000Y544821D01*
Y545796D01*
X378391Y547266D01*
X377266Y548391D01*
X375796Y549000D01*
X374204D01*
X372734Y548391D01*
X371609Y547266D01*
X371000Y545796D01*
Y544204D01*
X371609Y542734D01*
X372734Y541609D01*
X374204Y541000D01*
X375179D01*
X375836Y540836D01*
X376000Y540179D01*
Y539204D01*
X376609Y537734D01*
X377734Y536609D01*
X379204Y536000D01*
X380796D01*
X382266Y536609D01*
X383391Y537734D01*
X384000Y539204D01*
Y540179D01*
X384164Y540836D01*
X384821Y541000D01*
X385796D01*
X387266Y541609D01*
X388391Y542734D01*
X389000Y544204D01*
Y545796D01*
X388391Y547266D01*
X387266Y548391D01*
X385796Y549000D01*
D02*
G37*
G36*
X330909Y550570D02*
X329091D01*
X327411Y549874D01*
X326126Y548589D01*
X325430Y546909D01*
Y545091D01*
X326126Y543411D01*
X327411Y542126D01*
X329091Y541430D01*
X330909D01*
X332589Y542126D01*
X333874Y543411D01*
X334570Y545091D01*
Y546909D01*
X333874Y548589D01*
X332589Y549874D01*
X330909Y550570D01*
D02*
G37*
G36*
X905796Y549000D02*
X904204D01*
X902734Y548391D01*
X901609Y547266D01*
X901000Y545796D01*
Y544204D01*
X901609Y542734D01*
X902734Y541609D01*
X904204Y541000D01*
X905796D01*
X907266Y541609D01*
X908391Y542734D01*
X909000Y544204D01*
Y545796D01*
X908391Y547266D01*
X907266Y548391D01*
X905796Y549000D01*
D02*
G37*
G36*
X1163296Y546500D02*
X1161704D01*
X1160234Y545891D01*
X1159109Y544766D01*
X1158500Y543296D01*
Y541704D01*
X1159109Y540234D01*
X1160234Y539109D01*
X1161704Y538500D01*
X1163296D01*
X1164766Y539109D01*
X1165891Y540234D01*
X1166500Y541704D01*
Y543296D01*
X1165891Y544766D01*
X1164766Y545891D01*
X1163296Y546500D01*
D02*
G37*
G36*
X658296Y539000D02*
X656704D01*
X655234Y538391D01*
X654109Y537266D01*
X653500Y535796D01*
Y534204D01*
X654109Y532734D01*
X654635Y532208D01*
X654773Y532070D01*
X654266Y531391D01*
X654033Y531487D01*
X652796Y532000D01*
X651204D01*
X649734Y531391D01*
X648609Y530266D01*
X648000Y528796D01*
Y527204D01*
X648609Y525734D01*
X649734Y524609D01*
X651204Y524000D01*
X652796D01*
X654266Y524609D01*
X655391Y525734D01*
X656000Y527204D01*
Y528796D01*
X655391Y530266D01*
X654865Y530792D01*
X654727Y530930D01*
X655234Y531609D01*
X655467Y531513D01*
X656704Y531000D01*
X658296D01*
X659766Y531609D01*
X660891Y532734D01*
X661500Y534204D01*
Y535796D01*
X660891Y537266D01*
X659766Y538391D01*
X658296Y539000D01*
D02*
G37*
G36*
X640796D02*
X639204D01*
X637734Y538391D01*
X636609Y537266D01*
X636000Y535796D01*
Y534204D01*
X636609Y532734D01*
X637734Y531609D01*
X639204Y531000D01*
X640796D01*
X642266Y531609D01*
X643391Y532734D01*
X644000Y534204D01*
Y535796D01*
X643391Y537266D01*
X642266Y538391D01*
X640796Y539000D01*
D02*
G37*
G36*
X625796D02*
X624204D01*
X622734Y538391D01*
X621609Y537266D01*
X621000Y535796D01*
Y534204D01*
X621609Y532734D01*
X622734Y531609D01*
X624204Y531000D01*
X625796D01*
X627266Y531609D01*
X628391Y532734D01*
X629000Y534204D01*
Y535796D01*
X628391Y537266D01*
X627266Y538391D01*
X625796Y539000D01*
D02*
G37*
G36*
X610796D02*
X609204D01*
X607734Y538391D01*
X606609Y537266D01*
X606000Y535796D01*
Y534204D01*
X606609Y532734D01*
X607734Y531609D01*
X609204Y531000D01*
X610796D01*
X612266Y531609D01*
X613391Y532734D01*
X614000Y534204D01*
Y535796D01*
X613391Y537266D01*
X612266Y538391D01*
X610796Y539000D01*
D02*
G37*
G36*
X305796D02*
X304204D01*
X302734Y538391D01*
X301609Y537266D01*
X301000Y535796D01*
Y534204D01*
X301609Y532734D01*
X302734Y531609D01*
X304204Y531000D01*
X305796D01*
X307266Y531609D01*
X308391Y532734D01*
X309000Y534204D01*
Y535796D01*
X308391Y537266D01*
X307266Y538391D01*
X305796Y539000D01*
D02*
G37*
G36*
X330909Y538570D02*
X329091D01*
X327411Y537874D01*
X326126Y536589D01*
X325430Y534909D01*
Y533091D01*
X326126Y531411D01*
X327411Y530126D01*
X329091Y529430D01*
X330909D01*
X332589Y530126D01*
X333874Y531411D01*
X334570Y533091D01*
Y534909D01*
X333874Y536589D01*
X332589Y537874D01*
X330909Y538570D01*
D02*
G37*
G36*
X798296Y536500D02*
X796704D01*
X795234Y535891D01*
X794109Y534766D01*
X793500Y533296D01*
Y531704D01*
X794109Y530234D01*
X795234Y529109D01*
X796704Y528500D01*
X798296D01*
X799766Y529109D01*
X800891Y530234D01*
X801500Y531704D01*
Y533296D01*
X800891Y534766D01*
X799766Y535891D01*
X798296Y536500D01*
D02*
G37*
G36*
X355796Y534000D02*
X354204D01*
X352734Y533391D01*
X351609Y532266D01*
X351000Y530796D01*
Y529204D01*
X351609Y527734D01*
X352734Y526609D01*
X354204Y526000D01*
X355796D01*
X357266Y526609D01*
X358391Y527734D01*
X359000Y529204D01*
Y530796D01*
X358391Y532266D01*
X357266Y533391D01*
X355796Y534000D01*
D02*
G37*
G36*
X636796Y524000D02*
X635204D01*
X633734Y523391D01*
X632609Y522266D01*
X632481Y521957D01*
X631519D01*
X631391Y522266D01*
X630266Y523391D01*
X628796Y524000D01*
X627204D01*
X625734Y523391D01*
X624609Y522266D01*
X624000Y520796D01*
Y519204D01*
X624609Y517734D01*
X625734Y516609D01*
X626043Y516481D01*
Y515519D01*
X625734Y515391D01*
X624609Y514266D01*
X624481Y513957D01*
X623519D01*
X623391Y514266D01*
X622266Y515391D01*
X620796Y516000D01*
X619204D01*
X617734Y515391D01*
X616609Y514266D01*
X616445Y513869D01*
X615555D01*
X615391Y514266D01*
X614266Y515391D01*
X612796Y516000D01*
X611204D01*
X609734Y515391D01*
X608609Y514266D01*
X608000Y512796D01*
Y511204D01*
X608609Y509734D01*
X609734Y508609D01*
X611204Y508000D01*
X612796D01*
X614266Y508609D01*
X615391Y509734D01*
X615555Y510131D01*
X616445D01*
X616609Y509734D01*
X617734Y508609D01*
X619204Y508000D01*
X620796D01*
X622266Y508609D01*
X623391Y509734D01*
X623519Y510043D01*
X624481D01*
X624609Y509734D01*
X625734Y508609D01*
X626043Y508481D01*
Y507519D01*
X625734Y507391D01*
X624609Y506266D01*
X624000Y504796D01*
Y503204D01*
X624609Y501734D01*
X625734Y500609D01*
X626131Y500444D01*
Y499556D01*
X625734Y499391D01*
X624609Y498266D01*
X624000Y496796D01*
Y495204D01*
X624609Y493734D01*
X625734Y492609D01*
X626043Y492481D01*
Y491519D01*
X625734Y491391D01*
X624609Y490266D01*
X624000Y488796D01*
Y487204D01*
X624609Y485734D01*
X625734Y484609D01*
X627204Y484000D01*
X628796D01*
X630266Y484609D01*
X631391Y485734D01*
X631519Y486043D01*
X632481D01*
X632609Y485734D01*
X633734Y484609D01*
X635204Y484000D01*
X636796D01*
X638266Y484609D01*
X639391Y485734D01*
X639556Y486131D01*
X640444D01*
X640609Y485734D01*
X641734Y484609D01*
X643204Y484000D01*
X644796D01*
X646266Y484609D01*
X647391Y485734D01*
X647519Y486043D01*
X648481D01*
X648609Y485734D01*
X649734Y484609D01*
X651204Y484000D01*
X652796D01*
X654266Y484609D01*
X655391Y485734D01*
X656000Y487204D01*
Y488796D01*
X655391Y490266D01*
X654266Y491391D01*
X653957Y491519D01*
Y492481D01*
X654266Y492609D01*
X655391Y493734D01*
X656000Y495204D01*
Y496796D01*
X655391Y498266D01*
X654266Y499391D01*
X652796Y500000D01*
X651204D01*
X649734Y499391D01*
X648609Y498266D01*
X648481Y497957D01*
X647519D01*
X647391Y498266D01*
X646266Y499391D01*
X644796Y500000D01*
X643204D01*
X641734Y499391D01*
X640609Y498266D01*
X640444Y497869D01*
X639556D01*
X639391Y498266D01*
X638266Y499391D01*
X637869Y499556D01*
Y500444D01*
X638266Y500609D01*
X639391Y501734D01*
X640000Y503204D01*
Y504796D01*
X639391Y506266D01*
X638266Y507391D01*
X637957Y507519D01*
Y508481D01*
X638266Y508609D01*
X639391Y509734D01*
X640000Y511204D01*
Y512796D01*
X639391Y514266D01*
X638266Y515391D01*
X637957Y515519D01*
Y516481D01*
X638266Y516609D01*
X639391Y517734D01*
X640000Y519204D01*
Y520796D01*
X639391Y522266D01*
X638266Y523391D01*
X636796Y524000D01*
D02*
G37*
G36*
X594210Y526586D02*
X592618D01*
X591148Y525977D01*
X590023Y524852D01*
X589414Y523382D01*
Y521790D01*
X590023Y520320D01*
X591148Y519195D01*
X592618Y518586D01*
X594210D01*
X595680Y519195D01*
X596805Y520320D01*
X597414Y521790D01*
Y523382D01*
X596805Y524852D01*
X595680Y525977D01*
X594210Y526586D01*
D02*
G37*
G36*
X798296Y524000D02*
X796704D01*
X795234Y523391D01*
X794109Y522266D01*
X793500Y520796D01*
Y519204D01*
X794109Y517734D01*
X795234Y516609D01*
X796704Y516000D01*
X798296D01*
X799766Y516609D01*
X800891Y517734D01*
X801500Y519204D01*
Y520796D01*
X800891Y522266D01*
X799766Y523391D01*
X798296Y524000D01*
D02*
G37*
G36*
X675796Y524000D02*
X674204D01*
X672734Y523391D01*
X671609Y522266D01*
X671000Y520796D01*
Y519204D01*
X671609Y517734D01*
X672734Y516609D01*
X674204Y516000D01*
X675796D01*
X677266Y516609D01*
X678391Y517734D01*
X679000Y519204D01*
Y520796D01*
X678391Y522266D01*
X677266Y523391D01*
X675796Y524000D01*
D02*
G37*
G36*
X605796D02*
X604204D01*
X602734Y523391D01*
X601609Y522266D01*
X601000Y520796D01*
Y519204D01*
X601609Y517734D01*
X602734Y516609D01*
X604204Y516000D01*
X605796D01*
X607266Y516609D01*
X608391Y517734D01*
X609000Y519204D01*
Y520796D01*
X608391Y522266D01*
X607266Y523391D01*
X605796Y524000D01*
D02*
G37*
G36*
X195796D02*
X194204D01*
X192734Y523391D01*
X191609Y522266D01*
X191000Y520796D01*
Y519204D01*
X191609Y517734D01*
X192734Y516609D01*
X194204Y516000D01*
X195796D01*
X197266Y516609D01*
X198391Y517734D01*
X199000Y519204D01*
Y520796D01*
X198391Y522266D01*
X197266Y523391D01*
X195796Y524000D01*
D02*
G37*
G36*
X652796Y516000D02*
X651204D01*
X649734Y515391D01*
X648609Y514266D01*
X648000Y512796D01*
Y511204D01*
X648609Y509734D01*
X649734Y508609D01*
X651204Y508000D01*
X652796D01*
X654266Y508609D01*
X655391Y509734D01*
X656000Y511204D01*
Y512796D01*
X655391Y514266D01*
X654266Y515391D01*
X652796Y516000D01*
D02*
G37*
G36*
X103120Y523509D02*
X100880D01*
X98716Y522929D01*
X96775Y521809D01*
X95191Y520225D01*
X94071Y518284D01*
X93491Y516120D01*
Y513880D01*
X94071Y511716D01*
X95191Y509775D01*
X96775Y508191D01*
X98716Y507071D01*
X100880Y506491D01*
X103120D01*
X105284Y507071D01*
X107225Y508191D01*
X108809Y509775D01*
X109929Y511716D01*
X110509Y513880D01*
Y516120D01*
X109929Y518284D01*
X108809Y520225D01*
X107225Y521809D01*
X105284Y522929D01*
X103120Y523509D01*
D02*
G37*
G36*
X798296Y511500D02*
X796704D01*
X795234Y510891D01*
X794109Y509766D01*
X793500Y508296D01*
Y506704D01*
X794109Y505234D01*
X795234Y504109D01*
X796704Y503500D01*
X798296D01*
X799766Y504109D01*
X800891Y505234D01*
X801500Y506704D01*
Y508296D01*
X800891Y509766D01*
X799766Y510891D01*
X798296Y511500D01*
D02*
G37*
G36*
X605796Y509000D02*
X604204D01*
X602734Y508391D01*
X601609Y507266D01*
X601000Y505796D01*
Y504204D01*
X601609Y502734D01*
X602734Y501609D01*
X604204Y501000D01*
X605796D01*
X607266Y501609D01*
X608391Y502734D01*
X609000Y504204D01*
Y505796D01*
X608391Y507266D01*
X607266Y508391D01*
X605796Y509000D01*
D02*
G37*
G36*
X668796Y516000D02*
X667204D01*
X665734Y515391D01*
X664609Y514266D01*
X664000Y512796D01*
Y511204D01*
X664609Y509734D01*
X665734Y508609D01*
X666043Y508481D01*
Y507519D01*
X665734Y507391D01*
X664609Y506266D01*
X664000Y504796D01*
Y503204D01*
X664609Y501734D01*
X665734Y500609D01*
X667204Y500000D01*
X668796D01*
X670266Y500609D01*
X671391Y501734D01*
X672000Y503204D01*
Y504796D01*
X671391Y506266D01*
X670266Y507391D01*
X669957Y507519D01*
Y508481D01*
X670266Y508609D01*
X671391Y509734D01*
X672000Y511204D01*
Y512796D01*
X671391Y514266D01*
X670266Y515391D01*
X668796Y516000D01*
D02*
G37*
G36*
X210796Y501500D02*
X209204D01*
X207734Y500891D01*
X206609Y499766D01*
X206000Y498296D01*
Y496704D01*
X206609Y495234D01*
X207734Y494109D01*
X209204Y493500D01*
X210796D01*
X212266Y494109D01*
X213391Y495234D01*
X214000Y496704D01*
Y498296D01*
X213391Y499766D01*
X212266Y500891D01*
X210796Y501500D01*
D02*
G37*
G36*
X798296Y499000D02*
X796704D01*
X795234Y498391D01*
X794109Y497266D01*
X793500Y495796D01*
Y494204D01*
X794109Y492734D01*
X795234Y491609D01*
X796704Y491000D01*
X798296D01*
X799766Y491609D01*
X800891Y492734D01*
X801500Y494204D01*
Y495796D01*
X800891Y497266D01*
X799766Y498391D01*
X798296Y499000D01*
D02*
G37*
G36*
X990796Y494000D02*
X989204D01*
X987734Y493391D01*
X986609Y492266D01*
X986000Y490796D01*
Y489204D01*
X986609Y487734D01*
X987734Y486609D01*
X989204Y486000D01*
X990796D01*
X992266Y486609D01*
X993391Y487734D01*
X994000Y489204D01*
Y490796D01*
X993391Y492266D01*
X992266Y493391D01*
X990796Y494000D01*
D02*
G37*
G36*
X713296D02*
X711704D01*
X710234Y493391D01*
X709109Y492266D01*
X708500Y490796D01*
Y489204D01*
X709109Y487734D01*
X710234Y486609D01*
X711704Y486000D01*
X713296D01*
X714766Y486609D01*
X715891Y487734D01*
X716500Y489204D01*
Y490796D01*
X715891Y492266D01*
X714766Y493391D01*
X713296Y494000D01*
D02*
G37*
G36*
X668796Y492000D02*
X667204D01*
X665734Y491391D01*
X664609Y490266D01*
X664000Y488796D01*
Y487204D01*
X664609Y485734D01*
X665734Y484609D01*
X667204Y484000D01*
X668796D01*
X670266Y484609D01*
X671391Y485734D01*
X672000Y487204D01*
Y488796D01*
X671391Y490266D01*
X670266Y491391D01*
X668796Y492000D01*
D02*
G37*
G36*
X605796Y494000D02*
X604204D01*
X602734Y493391D01*
X601609Y492266D01*
X601000Y490796D01*
Y489204D01*
X601609Y487734D01*
X602734Y486609D01*
X604204Y486000D01*
X605796D01*
X607266Y486609D01*
X607279Y486622D01*
X608328Y486413D01*
X608609Y485734D01*
X609734Y484609D01*
X611204Y484000D01*
X612796D01*
X614266Y484609D01*
X615391Y485734D01*
X616000Y487204D01*
Y488796D01*
X615391Y490266D01*
X614266Y491391D01*
X612796Y492000D01*
X611204D01*
X609734Y491391D01*
X609721Y491378D01*
X608672Y491586D01*
X608391Y492266D01*
X607266Y493391D01*
X605796Y494000D01*
D02*
G37*
G36*
X963296Y494000D02*
X961704D01*
X960234Y493391D01*
X959109Y492266D01*
X958500Y490796D01*
Y489204D01*
X959109Y487734D01*
X960061Y486782D01*
X960165Y486250D01*
X960061Y485718D01*
X959109Y484766D01*
X958500Y483296D01*
Y481704D01*
X959109Y480234D01*
X960234Y479109D01*
X961704Y478500D01*
X963296D01*
X964766Y479109D01*
X965891Y480234D01*
X966500Y481704D01*
Y483296D01*
X965891Y484766D01*
X964939Y485718D01*
X964835Y486250D01*
X964939Y486782D01*
X965891Y487734D01*
X966500Y489204D01*
Y490796D01*
X965891Y492266D01*
X964766Y493391D01*
X963296Y494000D01*
D02*
G37*
G36*
X652796Y476000D02*
X651204D01*
X649734Y475391D01*
X648609Y474266D01*
X648481Y473957D01*
X647519D01*
X647391Y474266D01*
X646266Y475391D01*
X644796Y476000D01*
X643204D01*
X641734Y475391D01*
X640609Y474266D01*
X640000Y472796D01*
Y471204D01*
X640545Y469889D01*
X640310Y469315D01*
X640086Y469000D01*
X639204D01*
X637734Y468391D01*
X636609Y467266D01*
X636000Y465796D01*
Y464204D01*
X636609Y462734D01*
X637734Y461609D01*
X639204Y461000D01*
X640796D01*
X642266Y461609D01*
X643391Y462734D01*
X644000Y464204D01*
Y465796D01*
X643455Y467111D01*
X643690Y467685D01*
X643914Y468000D01*
X644796D01*
X646266Y468609D01*
X647391Y469734D01*
X647519Y470043D01*
X648481D01*
X648609Y469734D01*
X649734Y468609D01*
X651204Y468000D01*
X652796D01*
X654266Y468609D01*
X655391Y469734D01*
X656000Y471204D01*
Y472796D01*
X655391Y474266D01*
X654266Y475391D01*
X652796Y476000D01*
D02*
G37*
G36*
X51120Y488509D02*
X48880D01*
X46716Y487929D01*
X44775Y486809D01*
X43191Y485225D01*
X42071Y483284D01*
X41491Y481120D01*
Y478880D01*
X42071Y476716D01*
X43191Y474775D01*
X44775Y473191D01*
X46716Y472071D01*
X48880Y471491D01*
X51120D01*
X53284Y472071D01*
X55225Y473191D01*
X56809Y474775D01*
X57929Y476716D01*
X58509Y478880D01*
Y481120D01*
X57929Y483284D01*
X56809Y485225D01*
X55225Y486809D01*
X53284Y487929D01*
X51120Y488509D01*
D02*
G37*
G36*
X675796Y479000D02*
X674204D01*
X672734Y478391D01*
X671609Y477266D01*
X671000Y475796D01*
Y474204D01*
X671609Y472734D01*
X672734Y471609D01*
X674204Y471000D01*
X675796D01*
X677266Y471609D01*
X678391Y472734D01*
X679000Y474204D01*
Y475796D01*
X678391Y477266D01*
X677266Y478391D01*
X675796Y479000D01*
D02*
G37*
G36*
X605796D02*
X604204D01*
X602734Y478391D01*
X601609Y477266D01*
X601000Y475796D01*
Y474204D01*
X601609Y472734D01*
X602734Y471609D01*
X604204Y471000D01*
X605796D01*
X607266Y471609D01*
X608391Y472734D01*
X609000Y474204D01*
Y475796D01*
X608391Y477266D01*
X607266Y478391D01*
X605796Y479000D01*
D02*
G37*
G36*
X1104296Y475719D02*
X1102704D01*
X1101234Y475110D01*
X1100109Y473985D01*
X1099500Y472515D01*
Y470924D01*
X1100109Y469453D01*
X1101234Y468328D01*
X1102704Y467719D01*
X1104296D01*
X1105766Y468328D01*
X1106891Y469453D01*
X1107500Y470924D01*
Y472515D01*
X1106891Y473985D01*
X1105766Y475110D01*
X1104296Y475719D01*
D02*
G37*
G36*
X628796Y476000D02*
X627204D01*
X625734Y475391D01*
X624609Y474266D01*
X624000Y472796D01*
Y471204D01*
X624545Y469889D01*
X624298Y469245D01*
X624121Y468965D01*
X622734Y468391D01*
X621609Y467266D01*
X621000Y465796D01*
Y464204D01*
X621609Y462734D01*
X622734Y461609D01*
X624204Y461000D01*
X625796D01*
X627266Y461609D01*
X628391Y462734D01*
X629000Y464204D01*
Y465796D01*
X628455Y467111D01*
X628702Y467755D01*
X628879Y468035D01*
X630266Y468609D01*
X631391Y469734D01*
X632000Y471204D01*
Y472796D01*
X631391Y474266D01*
X630266Y475391D01*
X628796Y476000D01*
D02*
G37*
G36*
X610796Y469000D02*
X609204D01*
X607734Y468391D01*
X606609Y467266D01*
X606000Y465796D01*
Y464204D01*
X606609Y462734D01*
X607734Y461609D01*
X609204Y461000D01*
X610796D01*
X612266Y461609D01*
X613391Y462734D01*
X614000Y464204D01*
Y465796D01*
X613391Y467266D01*
X612266Y468391D01*
X610796Y469000D01*
D02*
G37*
G36*
X596796Y468000D02*
X595204D01*
X593734Y467391D01*
X592609Y466266D01*
X592000Y464796D01*
Y463204D01*
X592609Y461734D01*
X593734Y460609D01*
X595204Y460000D01*
X596796D01*
X598266Y460609D01*
X599391Y461734D01*
X600000Y463204D01*
Y464796D01*
X599391Y466266D01*
X598266Y467391D01*
X596796Y468000D01*
D02*
G37*
G36*
X713296Y459000D02*
X711704D01*
X710234Y458391D01*
X709109Y457266D01*
X708500Y455796D01*
Y454204D01*
X709109Y452734D01*
X710234Y451609D01*
X711704Y451000D01*
X713296D01*
X714766Y451609D01*
X715891Y452734D01*
X716500Y454204D01*
Y455796D01*
X715891Y457266D01*
X714766Y458391D01*
X713296Y459000D01*
D02*
G37*
G36*
X588796Y452000D02*
X587204D01*
X585734Y451391D01*
X584609Y450266D01*
X584000Y448796D01*
Y447204D01*
X584609Y445734D01*
X585734Y444609D01*
X587204Y444000D01*
X588796D01*
X590266Y444609D01*
X591391Y445734D01*
X592000Y447204D01*
Y448796D01*
X591391Y450266D01*
X590266Y451391D01*
X588796Y452000D01*
D02*
G37*
G36*
X695796Y449000D02*
X694204D01*
X692734Y448391D01*
X691609Y447266D01*
X691000Y445796D01*
Y444204D01*
X691609Y442734D01*
X692734Y441609D01*
X694204Y441000D01*
X695796D01*
X697266Y441609D01*
X698391Y442734D01*
X699000Y444204D01*
Y445796D01*
X698391Y447266D01*
X697266Y448391D01*
X695796Y449000D01*
D02*
G37*
G36*
X898296Y451500D02*
X896704D01*
X895234Y450891D01*
X894109Y449766D01*
X893500Y448296D01*
Y446704D01*
X894109Y445234D01*
X895061Y444282D01*
X895165Y443750D01*
X895061Y443218D01*
X894109Y442266D01*
X893500Y440796D01*
Y439204D01*
X894109Y437734D01*
X895061Y436782D01*
X895165Y436250D01*
X895061Y435718D01*
X894282Y434939D01*
X893750Y434835D01*
X893218Y434939D01*
X892266Y435891D01*
X890796Y436500D01*
X889204D01*
X887734Y435891D01*
X886609Y434766D01*
X886000Y433296D01*
Y431704D01*
X886609Y430234D01*
X887734Y429109D01*
X889204Y428500D01*
X890796D01*
X892266Y429109D01*
X893218Y430061D01*
X893750Y430165D01*
X894282Y430061D01*
X895234Y429109D01*
X896704Y428500D01*
X898296D01*
X899766Y429109D01*
X900891Y430234D01*
X901500Y431704D01*
Y433296D01*
X900891Y434766D01*
X899939Y435718D01*
X899835Y436250D01*
X899939Y436782D01*
X900891Y437734D01*
X901500Y439204D01*
Y440796D01*
X900891Y442266D01*
X899939Y443218D01*
X899836Y443750D01*
X899939Y444282D01*
X900891Y445234D01*
X901500Y446704D01*
Y448296D01*
X900891Y449766D01*
X899766Y450891D01*
X898296Y451500D01*
D02*
G37*
G36*
X773496Y439400D02*
X771904D01*
X770434Y438791D01*
X769309Y437666D01*
X768700Y436196D01*
Y434604D01*
X769309Y433134D01*
X770434Y432009D01*
X771904Y431400D01*
X773496D01*
X774966Y432009D01*
X776091Y433134D01*
X776700Y434604D01*
Y436196D01*
X776091Y437666D01*
X774966Y438791D01*
X773496Y439400D01*
D02*
G37*
G36*
X683296Y431500D02*
X681704D01*
X680234Y430891D01*
X679109Y429766D01*
X678500Y428296D01*
Y426704D01*
X679109Y425234D01*
X680234Y424109D01*
X681704Y423500D01*
X683296D01*
X684766Y424109D01*
X685891Y425234D01*
X686500Y426704D01*
Y428296D01*
X685891Y429766D01*
X684766Y430891D01*
X683296Y431500D01*
D02*
G37*
G36*
X660796D02*
X659204D01*
X657734Y430891D01*
X656609Y429766D01*
X656000Y428296D01*
Y426704D01*
X656609Y425234D01*
X657734Y424109D01*
X659204Y423500D01*
X660796D01*
X662266Y424109D01*
X663391Y425234D01*
X664000Y426704D01*
Y428296D01*
X663391Y429766D01*
X662266Y430891D01*
X660796Y431500D01*
D02*
G37*
G36*
X650796D02*
X649204D01*
X647734Y430891D01*
X646609Y429766D01*
X646000Y428296D01*
Y426704D01*
X646609Y425234D01*
X647734Y424109D01*
X649204Y423500D01*
X650796D01*
X652266Y424109D01*
X653391Y425234D01*
X654000Y426704D01*
Y428296D01*
X653391Y429766D01*
X652266Y430891D01*
X650796Y431500D01*
D02*
G37*
G36*
X748296Y429000D02*
X746704D01*
X745234Y428391D01*
X744109Y427266D01*
X743500Y425796D01*
Y424204D01*
X744109Y422734D01*
X745234Y421609D01*
X746704Y421000D01*
X748296D01*
X749766Y421609D01*
X750891Y422734D01*
X751500Y424204D01*
Y425796D01*
X750891Y427266D01*
X749766Y428391D01*
X748296Y429000D01*
D02*
G37*
G36*
X773496Y426700D02*
X771904D01*
X770434Y426091D01*
X769309Y424966D01*
X768700Y423496D01*
Y421904D01*
X769309Y420434D01*
X770434Y419309D01*
X771904Y418700D01*
X773496D01*
X774966Y419309D01*
X776091Y420434D01*
X776700Y421904D01*
Y423496D01*
X776091Y424966D01*
X774966Y426091D01*
X773496Y426700D01*
D02*
G37*
G36*
X508976Y425213D02*
X507385D01*
X505914Y424604D01*
X504789Y423479D01*
X504180Y422009D01*
Y420418D01*
X504789Y418947D01*
X505914Y417822D01*
X507385Y417213D01*
X508976D01*
X510446Y417822D01*
X511571Y418947D01*
X512180Y420418D01*
Y422009D01*
X511571Y423479D01*
X510446Y424604D01*
X508976Y425213D01*
D02*
G37*
G36*
X683296Y421500D02*
X681704D01*
X680234Y420891D01*
X679109Y419766D01*
X678500Y418296D01*
Y416704D01*
X679109Y415234D01*
X680234Y414109D01*
X681704Y413500D01*
X683296D01*
X684766Y414109D01*
X685891Y415234D01*
X686500Y416704D01*
Y418296D01*
X685891Y419766D01*
X684766Y420891D01*
X683296Y421500D01*
D02*
G37*
G36*
X517815Y416374D02*
X516223D01*
X514753Y415765D01*
X513628Y414640D01*
X513019Y413170D01*
Y411579D01*
X513628Y410108D01*
X514753Y408983D01*
X516223Y408374D01*
X517815D01*
X519285Y408983D01*
X520410Y410108D01*
X521019Y411579D01*
Y413170D01*
X520410Y414640D01*
X519285Y415765D01*
X517815Y416374D01*
D02*
G37*
G36*
X240000Y480962D02*
X180000D01*
X179320Y480680D01*
X179038Y480000D01*
Y418157D01*
X179320Y417476D01*
X180075Y416721D01*
X180538Y415604D01*
Y414396D01*
X180075Y413279D01*
X179320Y412524D01*
X179038Y411843D01*
Y340000D01*
X179320Y339320D01*
X180000Y339038D01*
X240000D01*
X240680Y339320D01*
X240962Y340000D01*
Y407149D01*
X241851Y407492D01*
X242734Y406609D01*
X244204Y406000D01*
X245796D01*
X247266Y406609D01*
X248391Y407734D01*
X249000Y409204D01*
Y410796D01*
X248391Y412266D01*
X247266Y413391D01*
X245796Y414000D01*
X244204D01*
X242734Y413391D01*
X241851Y412508D01*
X240962Y412851D01*
Y480000D01*
X240680Y480680D01*
X240000Y480962D01*
D02*
G37*
G36*
X773496Y414000D02*
X771904D01*
X770434Y413391D01*
X769309Y412266D01*
X768700Y410796D01*
Y409204D01*
X769309Y407734D01*
X770434Y406609D01*
X771904Y406000D01*
X773496D01*
X774966Y406609D01*
X776091Y407734D01*
X776700Y409204D01*
Y410796D01*
X776091Y412266D01*
X774966Y413391D01*
X773496Y414000D01*
D02*
G37*
G36*
X933296Y409000D02*
X931704D01*
X930234Y408391D01*
X929109Y407266D01*
X928500Y405796D01*
Y404204D01*
X929109Y402734D01*
X930234Y401609D01*
X931704Y401000D01*
X933296D01*
X934766Y401609D01*
X935891Y402734D01*
X936500Y404204D01*
Y405796D01*
X935891Y407266D01*
X934766Y408391D01*
X933296Y409000D01*
D02*
G37*
G36*
X526654Y407536D02*
X525062D01*
X523592Y406926D01*
X522467Y405801D01*
X521858Y404331D01*
Y402740D01*
X522467Y401270D01*
X523592Y400145D01*
X525062Y399535D01*
X526654D01*
X528124Y400145D01*
X529249Y401270D01*
X529858Y402740D01*
Y404331D01*
X529249Y405801D01*
X528124Y406926D01*
X526654Y407536D01*
D02*
G37*
G36*
X773496Y401300D02*
X771904D01*
X770434Y400691D01*
X769309Y399566D01*
X768700Y398096D01*
Y396504D01*
X769309Y395034D01*
X770434Y393909D01*
X771904Y393300D01*
X773496D01*
X774966Y393909D01*
X776091Y395034D01*
X776700Y396504D01*
Y398096D01*
X776091Y399566D01*
X774966Y400691D01*
X773496Y401300D01*
D02*
G37*
G36*
X143889Y426889D02*
X126111D01*
Y393111D01*
X143889D01*
Y426889D01*
D02*
G37*
G36*
X75000Y426966D02*
X72680Y426660D01*
X70517Y425765D01*
X68660Y424340D01*
X67235Y422483D01*
X66340Y420321D01*
X66034Y418000D01*
Y402000D01*
X66340Y399679D01*
X67235Y397517D01*
X68660Y395660D01*
X70517Y394235D01*
X72680Y393340D01*
X75000Y393034D01*
X77320Y393340D01*
X79483Y394235D01*
X81340Y395660D01*
X82765Y397517D01*
X83660Y399679D01*
X83966Y402000D01*
Y418000D01*
X83660Y420321D01*
X82765Y422483D01*
X81340Y424340D01*
X79483Y425765D01*
X77320Y426660D01*
X75000Y426966D01*
D02*
G37*
G36*
X933296Y399000D02*
X931704D01*
X930234Y398391D01*
X929109Y397266D01*
X928500Y395796D01*
Y394204D01*
X929109Y392734D01*
X930234Y391609D01*
X931704Y391000D01*
X933296D01*
X934766Y391609D01*
X935891Y392734D01*
X936500Y394204D01*
Y395796D01*
X935891Y397266D01*
X934766Y398391D01*
X933296Y399000D01*
D02*
G37*
G36*
X163296D02*
X161704D01*
X160234Y398391D01*
X159109Y397266D01*
X158500Y395796D01*
Y394204D01*
X159109Y392734D01*
X160234Y391609D01*
X161704Y391000D01*
X163296D01*
X164766Y391609D01*
X165891Y392734D01*
X166500Y394204D01*
Y395796D01*
X165891Y397266D01*
X164766Y398391D01*
X163296Y399000D01*
D02*
G37*
G36*
X535492Y398697D02*
X533901D01*
X532431Y398088D01*
X531306Y396963D01*
X530697Y395492D01*
Y393901D01*
X531306Y392431D01*
X532431Y391306D01*
X533901Y390697D01*
X535492D01*
X536963Y391306D01*
X538088Y392431D01*
X538697Y393901D01*
Y395492D01*
X538088Y396963D01*
X536963Y398088D01*
X535492Y398697D01*
D02*
G37*
G36*
X544331Y389858D02*
X542740D01*
X541270Y389249D01*
X540145Y388124D01*
X539535Y386654D01*
Y385062D01*
X540145Y383592D01*
X541270Y382467D01*
X542740Y381858D01*
X544331D01*
X545801Y382467D01*
X546927Y383592D01*
X547536Y385062D01*
Y386654D01*
X546927Y388124D01*
X545801Y389249D01*
X544331Y389858D01*
D02*
G37*
G36*
X715796Y389000D02*
X714204D01*
X712734Y388391D01*
X711609Y387266D01*
X711000Y385796D01*
Y384204D01*
X711609Y382734D01*
X712734Y381609D01*
X714204Y381000D01*
X715796D01*
X717266Y381609D01*
X718391Y382734D01*
X719000Y384204D01*
Y385796D01*
X718391Y387266D01*
X717266Y388391D01*
X715796Y389000D01*
D02*
G37*
G36*
X705796D02*
X704204D01*
X702734Y388391D01*
X701609Y387266D01*
X701000Y385796D01*
Y384204D01*
X701609Y382734D01*
X702734Y381609D01*
X704204Y381000D01*
X705796D01*
X707266Y381609D01*
X708391Y382734D01*
X709000Y384204D01*
Y385796D01*
X708391Y387266D01*
X707266Y388391D01*
X705796Y389000D01*
D02*
G37*
G36*
X773496Y388600D02*
X771904D01*
X770434Y387991D01*
X769309Y386866D01*
X768700Y385396D01*
Y383804D01*
X769309Y382334D01*
X770434Y381209D01*
X771904Y380600D01*
X773496D01*
X774966Y381209D01*
X776091Y382334D01*
X776700Y383804D01*
Y385396D01*
X776091Y386866D01*
X774966Y387991D01*
X773496Y388600D01*
D02*
G37*
G36*
X715796Y379000D02*
X714204D01*
X712734Y378391D01*
X711609Y377266D01*
X711000Y375796D01*
Y374204D01*
X711609Y372734D01*
X712734Y371609D01*
X714204Y371000D01*
X715796D01*
X717266Y371609D01*
X718391Y372734D01*
X719000Y374204D01*
Y375796D01*
X718391Y377266D01*
X717266Y378391D01*
X715796Y379000D01*
D02*
G37*
G36*
X705796D02*
X704204D01*
X702734Y378391D01*
X701609Y377266D01*
X701000Y375796D01*
Y374204D01*
X701609Y372734D01*
X702734Y371609D01*
X704204Y371000D01*
X705796D01*
X707266Y371609D01*
X708391Y372734D01*
X709000Y374204D01*
Y375796D01*
X708391Y377266D01*
X707266Y378391D01*
X705796Y379000D01*
D02*
G37*
G36*
X113000Y371966D02*
X97000D01*
X94679Y371660D01*
X92517Y370765D01*
X90660Y369340D01*
X89235Y367483D01*
X88340Y365321D01*
X88034Y363000D01*
X88340Y360680D01*
X89235Y358517D01*
X90660Y356660D01*
X92517Y355235D01*
X94679Y354340D01*
X97000Y354034D01*
X113000D01*
X115321Y354340D01*
X117483Y355235D01*
X119340Y356660D01*
X120765Y358517D01*
X121660Y360680D01*
X121966Y363000D01*
X121660Y365321D01*
X120765Y367483D01*
X119340Y369340D01*
X117483Y370765D01*
X115321Y371660D01*
X113000Y371966D01*
D02*
G37*
G36*
X580796Y346500D02*
X579204D01*
X577734Y345891D01*
X576609Y344766D01*
X576000Y343296D01*
Y341704D01*
X576609Y340234D01*
X577734Y339109D01*
X579204Y338500D01*
X580796D01*
X582266Y339109D01*
X583391Y340234D01*
X584000Y341704D01*
Y343296D01*
X583391Y344766D01*
X582266Y345891D01*
X580796Y346500D01*
D02*
G37*
G36*
Y329000D02*
X579204D01*
X577734Y328391D01*
X576609Y327266D01*
X576000Y325796D01*
Y324204D01*
X576609Y322734D01*
X577734Y321609D01*
X579204Y321000D01*
X580796D01*
X582266Y321609D01*
X583391Y322734D01*
X584000Y324204D01*
Y325796D01*
X583391Y327266D01*
X582266Y328391D01*
X580796Y329000D01*
D02*
G37*
G36*
X840909Y320570D02*
X839091D01*
X837411Y319874D01*
X836126Y318589D01*
X835430Y316909D01*
Y315091D01*
X836126Y313411D01*
X837411Y312126D01*
X839091Y311430D01*
X840909D01*
X842589Y312126D01*
X843874Y313411D01*
X844570Y315091D01*
Y316909D01*
X843874Y318589D01*
X842589Y319874D01*
X840909Y320570D01*
D02*
G37*
G36*
X640909D02*
X639091D01*
X637411Y319874D01*
X636126Y318589D01*
X635430Y316909D01*
Y315091D01*
X636126Y313411D01*
X637411Y312126D01*
X639091Y311430D01*
X640909D01*
X642589Y312126D01*
X643874Y313411D01*
X644570Y315091D01*
Y316909D01*
X643874Y318589D01*
X642589Y319874D01*
X640909Y320570D01*
D02*
G37*
G36*
X885796Y319000D02*
X884204D01*
X882734Y318391D01*
X881609Y317266D01*
X881000Y315796D01*
Y314204D01*
X881609Y312734D01*
X882734Y311609D01*
X884204Y311000D01*
X885796D01*
X887266Y311609D01*
X888391Y312734D01*
X889000Y314204D01*
Y315796D01*
X888391Y317266D01*
X887266Y318391D01*
X885796Y319000D01*
D02*
G37*
G36*
X728296D02*
X726704D01*
X725234Y318391D01*
X724109Y317266D01*
X723500Y315796D01*
Y314204D01*
X724109Y312734D01*
X725234Y311609D01*
X726704Y311000D01*
X728296D01*
X729766Y311609D01*
X730891Y312734D01*
X731500Y314204D01*
Y315796D01*
X730891Y317266D01*
X729766Y318391D01*
X728296Y319000D01*
D02*
G37*
G36*
X713296D02*
X711704D01*
X710234Y318391D01*
X709109Y317266D01*
X708500Y315796D01*
Y314204D01*
X709109Y312734D01*
X710234Y311609D01*
X711704Y311000D01*
X713296D01*
X714766Y311609D01*
X715891Y312734D01*
X716500Y314204D01*
Y315796D01*
X715891Y317266D01*
X714766Y318391D01*
X713296Y319000D01*
D02*
G37*
G36*
X693296D02*
X691704D01*
X690234Y318391D01*
X689109Y317266D01*
X688500Y315796D01*
Y314204D01*
X689109Y312734D01*
X690234Y311609D01*
X691704Y311000D01*
X693296D01*
X694766Y311609D01*
X695891Y312734D01*
X696500Y314204D01*
Y315796D01*
X695891Y317266D01*
X694766Y318391D01*
X693296Y319000D01*
D02*
G37*
G36*
X678296D02*
X676704D01*
X675234Y318391D01*
X674109Y317266D01*
X673500Y315796D01*
Y314204D01*
X674109Y312734D01*
X675234Y311609D01*
X676704Y311000D01*
X678296D01*
X679766Y311609D01*
X680891Y312734D01*
X681500Y314204D01*
Y315796D01*
X680891Y317266D01*
X679766Y318391D01*
X678296Y319000D01*
D02*
G37*
G36*
X720796Y314000D02*
X719204D01*
X717734Y313391D01*
X716609Y312266D01*
X716000Y310796D01*
Y309204D01*
X716609Y307734D01*
X717734Y306609D01*
X719204Y306000D01*
X720796D01*
X722266Y306609D01*
X723391Y307734D01*
X724000Y309204D01*
Y310796D01*
X723391Y312266D01*
X722266Y313391D01*
X720796Y314000D01*
D02*
G37*
G36*
X685796D02*
X684204D01*
X682734Y313391D01*
X681609Y312266D01*
X681000Y310796D01*
Y309204D01*
X681609Y307734D01*
X682734Y306609D01*
X684204Y306000D01*
X685796D01*
X687266Y306609D01*
X688391Y307734D01*
X689000Y309204D01*
Y310796D01*
X688391Y312266D01*
X687266Y313391D01*
X685796Y314000D01*
D02*
G37*
G36*
X580796Y311500D02*
X579204D01*
X577734Y310891D01*
X576609Y309766D01*
X576000Y308296D01*
Y306704D01*
X576609Y305234D01*
X577734Y304109D01*
X579204Y303500D01*
X580796D01*
X582266Y304109D01*
X583391Y305234D01*
X584000Y306704D01*
Y308296D01*
X583391Y309766D01*
X582266Y310891D01*
X580796Y311500D01*
D02*
G37*
G36*
X840909Y308570D02*
X839091D01*
X837411Y307874D01*
X836126Y306589D01*
X835430Y304909D01*
Y303091D01*
X836126Y301411D01*
X837411Y300126D01*
X839091Y299430D01*
X840909D01*
X842589Y300126D01*
X843874Y301411D01*
X844570Y303091D01*
Y304909D01*
X843874Y306589D01*
X842589Y307874D01*
X840909Y308570D01*
D02*
G37*
G36*
X640909D02*
X639091D01*
X637411Y307874D01*
X636126Y306589D01*
X635430Y304909D01*
Y303091D01*
X636126Y301411D01*
X637411Y300126D01*
X639091Y299430D01*
X640909D01*
X642589Y300126D01*
X643874Y301411D01*
X644570Y303091D01*
Y304909D01*
X643874Y306589D01*
X642589Y307874D01*
X640909Y308570D01*
D02*
G37*
G36*
X331151Y308739D02*
X328849D01*
X326627Y308144D01*
X324634Y306993D01*
X323007Y305366D01*
X321857Y303373D01*
X321261Y301150D01*
Y298850D01*
X321857Y296627D01*
X323007Y294634D01*
X324634Y293007D01*
X326627Y291857D01*
X328849Y291261D01*
X331151D01*
X333373Y291857D01*
X335366Y293007D01*
X336993Y294634D01*
X338143Y296627D01*
X338739Y298850D01*
Y301150D01*
X338143Y303373D01*
X336993Y305366D01*
X335366Y306993D01*
X333373Y308144D01*
X331151Y308739D01*
D02*
G37*
G36*
X101151D02*
X98849D01*
X96627Y308144D01*
X94634Y306993D01*
X93007Y305366D01*
X91857Y303373D01*
X91261Y301150D01*
Y298850D01*
X91857Y296627D01*
X93007Y294634D01*
X94634Y293007D01*
X96627Y291857D01*
X98849Y291261D01*
X101151D01*
X103373Y291857D01*
X105366Y293007D01*
X106993Y294634D01*
X108143Y296627D01*
X108739Y298850D01*
Y301150D01*
X108143Y303373D01*
X106993Y305366D01*
X105366Y306993D01*
X103373Y308144D01*
X101151Y308739D01*
D02*
G37*
G36*
X580796Y294000D02*
X579204D01*
X577734Y293391D01*
X576609Y292266D01*
X576000Y290796D01*
Y289204D01*
X576609Y287734D01*
X577734Y286609D01*
X579204Y286000D01*
X580796D01*
X582266Y286609D01*
X583391Y287734D01*
X584000Y289204D01*
Y290796D01*
X583391Y292266D01*
X582266Y293391D01*
X580796Y294000D01*
D02*
G37*
G36*
X860796Y289000D02*
X859204D01*
X857734Y288391D01*
X856609Y287266D01*
X856000Y285796D01*
Y284204D01*
X856609Y282734D01*
X857734Y281609D01*
X859204Y281000D01*
X860796D01*
X862266Y281609D01*
X863391Y282734D01*
X864000Y284204D01*
Y285796D01*
X863391Y287266D01*
X862266Y288391D01*
X860796Y289000D01*
D02*
G37*
G36*
X42550Y325889D02*
X37450D01*
X32448Y324894D01*
X27737Y322943D01*
X23497Y320109D01*
X19891Y316503D01*
X17057Y312263D01*
X15106Y307552D01*
X14111Y302550D01*
Y297450D01*
X15106Y292449D01*
X17057Y287737D01*
X19891Y283497D01*
X23497Y279891D01*
X27737Y277057D01*
X32448Y275106D01*
X37450Y274111D01*
X42550D01*
X47551Y275106D01*
X52263Y277057D01*
X56503Y279891D01*
X60109Y283497D01*
X62943Y287737D01*
X64894Y292449D01*
X65889Y297450D01*
Y302550D01*
X64894Y307552D01*
X62943Y312263D01*
X60109Y316503D01*
X56503Y320109D01*
X52263Y322943D01*
X47551Y324894D01*
X42550Y325889D01*
D02*
G37*
G36*
X1181197Y270339D02*
X1177803D01*
X1174525Y269461D01*
X1171586Y267764D01*
X1169186Y265364D01*
X1167489Y262425D01*
X1166611Y259147D01*
Y255753D01*
X1167489Y252475D01*
X1169186Y249536D01*
X1171586Y247136D01*
X1174525Y245439D01*
X1177803Y244561D01*
X1181197D01*
X1184475Y245439D01*
X1187414Y247136D01*
X1189814Y249536D01*
X1191511Y252475D01*
X1192389Y255753D01*
Y259147D01*
X1191511Y262425D01*
X1189814Y265364D01*
X1187414Y267764D01*
X1184475Y269461D01*
X1181197Y270339D01*
D02*
G37*
G36*
X1256824Y256389D02*
X1254576D01*
X1252404Y255807D01*
X1250457Y254683D01*
X1248867Y253093D01*
X1247743Y251146D01*
X1247161Y248974D01*
Y246726D01*
X1247743Y244554D01*
X1248867Y242607D01*
X1250457Y241017D01*
X1252404Y239893D01*
X1254576Y239311D01*
X1256824D01*
X1258996Y239893D01*
X1260943Y241017D01*
X1262533Y242607D01*
X1263657Y244554D01*
X1264239Y246726D01*
Y248974D01*
X1263657Y251146D01*
X1262533Y253093D01*
X1260943Y254683D01*
X1258996Y255807D01*
X1256824Y256389D01*
D02*
G37*
G36*
X1003296Y244000D02*
X1001704D01*
X1000234Y243391D01*
X999109Y242266D01*
X998500Y240796D01*
Y239204D01*
X999109Y237734D01*
X1000234Y236609D01*
X1001704Y236000D01*
X1003296D01*
X1004766Y236609D01*
X1005891Y237734D01*
X1006500Y239204D01*
Y240796D01*
X1005891Y242266D01*
X1004766Y243391D01*
X1003296Y244000D01*
D02*
G37*
G36*
X963296D02*
X961704D01*
X960234Y243391D01*
X959109Y242266D01*
X958500Y240796D01*
Y239204D01*
X959109Y237734D01*
X960234Y236609D01*
X961704Y236000D01*
X963296D01*
X964766Y236609D01*
X965891Y237734D01*
X966500Y239204D01*
Y240796D01*
X965891Y242266D01*
X964766Y243391D01*
X963296Y244000D01*
D02*
G37*
G36*
X948296D02*
X946704D01*
X945234Y243391D01*
X944109Y242266D01*
X943500Y240796D01*
Y239204D01*
X944109Y237734D01*
X945234Y236609D01*
X946704Y236000D01*
X948296D01*
X949766Y236609D01*
X950891Y237734D01*
X951500Y239204D01*
Y240796D01*
X950891Y242266D01*
X949766Y243391D01*
X948296Y244000D01*
D02*
G37*
G36*
X933296D02*
X931704D01*
X930234Y243391D01*
X929109Y242266D01*
X928500Y240796D01*
Y239204D01*
X929109Y237734D01*
X930234Y236609D01*
X931704Y236000D01*
X933296D01*
X934766Y236609D01*
X935891Y237734D01*
X936500Y239204D01*
Y240796D01*
X935891Y242266D01*
X934766Y243391D01*
X933296Y244000D01*
D02*
G37*
G36*
X1147537Y245029D02*
X1145463D01*
X1143459Y244492D01*
X1141662Y243455D01*
X1140195Y241988D01*
X1139158Y240191D01*
X1138621Y238187D01*
Y236113D01*
X1139158Y234109D01*
X1140195Y232312D01*
X1141662Y230845D01*
X1143459Y229808D01*
X1145463Y229271D01*
X1147537D01*
X1149541Y229808D01*
X1151338Y230845D01*
X1152805Y232312D01*
X1153842Y234109D01*
X1154379Y236113D01*
Y238187D01*
X1153842Y240191D01*
X1152805Y241988D01*
X1151338Y243455D01*
X1149541Y244492D01*
X1147537Y245029D01*
D02*
G37*
G36*
X853296Y234000D02*
X851704D01*
X850234Y233391D01*
X849109Y232266D01*
X848500Y230796D01*
Y229204D01*
X849109Y227734D01*
X850234Y226609D01*
X851704Y226000D01*
X853296D01*
X854766Y226609D01*
X855891Y227734D01*
X856500Y229204D01*
Y230796D01*
X855891Y232266D01*
X854766Y233391D01*
X853296Y234000D01*
D02*
G37*
G36*
X1211847Y255900D02*
X1208153D01*
X1204531Y255179D01*
X1201118Y253766D01*
X1198048Y251714D01*
X1195436Y249102D01*
X1193384Y246031D01*
X1191971Y242619D01*
X1191250Y238997D01*
Y235303D01*
X1191971Y231681D01*
X1193384Y228269D01*
X1195436Y225198D01*
X1198048Y222586D01*
X1201118Y220534D01*
X1204531Y219121D01*
X1208153Y218400D01*
X1211847D01*
X1215469Y219121D01*
X1218882Y220534D01*
X1221952Y222586D01*
X1224564Y225198D01*
X1226616Y228269D01*
X1228029Y231681D01*
X1228750Y235303D01*
Y238997D01*
X1228029Y242619D01*
X1226616Y246031D01*
X1224564Y249102D01*
X1221952Y251714D01*
X1218882Y253766D01*
X1215469Y255179D01*
X1211847Y255900D01*
D02*
G37*
G36*
X1122137Y232329D02*
X1120063D01*
X1118059Y231792D01*
X1116262Y230755D01*
X1114795Y229288D01*
X1113758Y227491D01*
X1113221Y225487D01*
Y223413D01*
X1113758Y221409D01*
X1114795Y219612D01*
X1116262Y218145D01*
X1118059Y217108D01*
X1120063Y216571D01*
X1122137D01*
X1124141Y217108D01*
X1125938Y218145D01*
X1127405Y219612D01*
X1128442Y221409D01*
X1128979Y223413D01*
Y225487D01*
X1128442Y227491D01*
X1127405Y229288D01*
X1125938Y230755D01*
X1124141Y231792D01*
X1122137Y232329D01*
D02*
G37*
G36*
X1035796Y221500D02*
X1034204D01*
X1032734Y220891D01*
X1031609Y219766D01*
X1031000Y218296D01*
Y216704D01*
X1031609Y215234D01*
X1032734Y214109D01*
X1034204Y213500D01*
X1035796D01*
X1037266Y214109D01*
X1038391Y215234D01*
X1039000Y216704D01*
Y218296D01*
X1038391Y219766D01*
X1037266Y220891D01*
X1035796Y221500D01*
D02*
G37*
G36*
X1020796D02*
X1019204D01*
X1017734Y220891D01*
X1016609Y219766D01*
X1016000Y218296D01*
Y216704D01*
X1016609Y215234D01*
X1017734Y214109D01*
X1019204Y213500D01*
X1020796D01*
X1022266Y214109D01*
X1023391Y215234D01*
X1024000Y216704D01*
Y218296D01*
X1023391Y219766D01*
X1022266Y220891D01*
X1020796Y221500D01*
D02*
G37*
G36*
X838296Y244000D02*
X836704D01*
X835234Y243391D01*
X834109Y242266D01*
X833500Y240796D01*
Y239204D01*
X834109Y237734D01*
X835234Y236609D01*
X836704Y236000D01*
X838296D01*
X839766Y236609D01*
X840721Y237564D01*
X876491D01*
X896000Y218055D01*
Y216704D01*
X896609Y215234D01*
X897734Y214109D01*
X899204Y213500D01*
X900796D01*
X902266Y214109D01*
X903391Y215234D01*
X904000Y216704D01*
Y218296D01*
X903391Y219766D01*
X902266Y220891D01*
X900796Y221500D01*
X899445D01*
X879222Y241722D01*
X878432Y242250D01*
X877500Y242436D01*
X840721D01*
X839766Y243391D01*
X838296Y244000D01*
D02*
G37*
G36*
X885796Y221500D02*
X884204D01*
X882734Y220891D01*
X881609Y219766D01*
X881000Y218296D01*
Y216704D01*
X881609Y215234D01*
X882734Y214109D01*
X884204Y213500D01*
X885796D01*
X887266Y214109D01*
X888391Y215234D01*
X889000Y216704D01*
Y218296D01*
X888391Y219766D01*
X887266Y220891D01*
X885796Y221500D01*
D02*
G37*
G36*
X853296D02*
X851704D01*
X850234Y220891D01*
X849109Y219766D01*
X848500Y218296D01*
Y216704D01*
X849109Y215234D01*
X850234Y214109D01*
X851704Y213500D01*
X853296D01*
X854766Y214109D01*
X855891Y215234D01*
X856500Y216704D01*
Y218296D01*
X855891Y219766D01*
X854766Y220891D01*
X853296Y221500D01*
D02*
G37*
G36*
X823296Y221500D02*
X821704D01*
X820234Y220891D01*
X819109Y219766D01*
X818500Y218296D01*
Y216704D01*
X819109Y215234D01*
X820234Y214109D01*
X821704Y213500D01*
X823296D01*
X824766Y214109D01*
X825891Y215234D01*
X826500Y216704D01*
Y218296D01*
X825891Y219766D01*
X824766Y220891D01*
X823296Y221500D01*
D02*
G37*
G36*
X1147537Y219629D02*
X1145463D01*
X1143459Y219092D01*
X1141662Y218055D01*
X1140195Y216588D01*
X1139158Y214791D01*
X1138621Y212787D01*
Y210713D01*
X1139158Y208709D01*
X1140195Y206912D01*
X1141662Y205445D01*
X1143459Y204408D01*
X1145463Y203871D01*
X1147537D01*
X1149541Y204408D01*
X1151338Y205445D01*
X1152805Y206912D01*
X1153842Y208709D01*
X1154379Y210713D01*
Y212787D01*
X1153842Y214791D01*
X1152805Y216588D01*
X1151338Y218055D01*
X1149541Y219092D01*
X1147537Y219629D01*
D02*
G37*
G36*
X853296Y209000D02*
X851704D01*
X850234Y208391D01*
X849109Y207266D01*
X848500Y205796D01*
Y204204D01*
X849109Y202734D01*
X850234Y201609D01*
X851704Y201000D01*
X853296D01*
X854766Y201609D01*
X855891Y202734D01*
X856500Y204204D01*
Y205796D01*
X855891Y207266D01*
X854766Y208391D01*
X853296Y209000D01*
D02*
G37*
G36*
X980796Y204000D02*
X979204D01*
X977734Y203391D01*
X976609Y202266D01*
X976000Y200796D01*
Y199204D01*
X976609Y197734D01*
X977734Y196609D01*
X979204Y196000D01*
X980796D01*
X982266Y196609D01*
X983391Y197734D01*
X984000Y199204D01*
Y200796D01*
X983391Y202266D01*
X982266Y203391D01*
X980796Y204000D01*
D02*
G37*
G36*
X970796D02*
X969204D01*
X967734Y203391D01*
X966609Y202266D01*
X966000Y200796D01*
Y199204D01*
X966609Y197734D01*
X967734Y196609D01*
X969204Y196000D01*
X970796D01*
X972266Y196609D01*
X973391Y197734D01*
X974000Y199204D01*
Y200796D01*
X973391Y202266D01*
X972266Y203391D01*
X970796Y204000D01*
D02*
G37*
G36*
X960796D02*
X959204D01*
X957734Y203391D01*
X956609Y202266D01*
X956000Y200796D01*
Y199204D01*
X956609Y197734D01*
X957734Y196609D01*
X959204Y196000D01*
X960796D01*
X962266Y196609D01*
X963391Y197734D01*
X964000Y199204D01*
Y200796D01*
X963391Y202266D01*
X962266Y203391D01*
X960796Y204000D01*
D02*
G37*
G36*
X950796D02*
X949204D01*
X947734Y203391D01*
X946609Y202266D01*
X946000Y200796D01*
Y199204D01*
X946609Y197734D01*
X947734Y196609D01*
X949204Y196000D01*
X950796D01*
X952266Y196609D01*
X953391Y197734D01*
X954000Y199204D01*
Y200796D01*
X953391Y202266D01*
X952266Y203391D01*
X950796Y204000D01*
D02*
G37*
G36*
X940796D02*
X939204D01*
X937734Y203391D01*
X936609Y202266D01*
X936000Y200796D01*
Y199204D01*
X936609Y197734D01*
X937734Y196609D01*
X939204Y196000D01*
X940796D01*
X942266Y196609D01*
X943391Y197734D01*
X944000Y199204D01*
Y200796D01*
X943391Y202266D01*
X942266Y203391D01*
X940796Y204000D01*
D02*
G37*
G36*
X1075796Y203120D02*
X1074204D01*
X1072734Y202511D01*
X1071609Y201386D01*
X1071000Y199916D01*
Y198324D01*
X1071609Y196854D01*
X1072734Y195729D01*
X1074204Y195120D01*
X1075796D01*
X1077266Y195729D01*
X1078391Y196854D01*
X1079000Y198324D01*
Y199916D01*
X1078391Y201386D01*
X1077266Y202511D01*
X1075796Y203120D01*
D02*
G37*
G36*
X1122137Y206929D02*
X1120063D01*
X1118059Y206392D01*
X1116262Y205355D01*
X1114795Y203888D01*
X1113758Y202091D01*
X1113221Y200087D01*
Y198013D01*
X1113758Y196009D01*
X1114795Y194212D01*
X1116262Y192745D01*
X1118059Y191708D01*
X1120063Y191171D01*
X1122137D01*
X1124141Y191708D01*
X1125938Y192745D01*
X1127405Y194212D01*
X1128442Y196009D01*
X1128979Y198013D01*
Y200087D01*
X1128442Y202091D01*
X1127405Y203888D01*
X1125938Y205355D01*
X1124141Y206392D01*
X1122137Y206929D01*
D02*
G37*
G36*
X1035796Y199000D02*
X1034204D01*
X1032734Y198391D01*
X1031609Y197266D01*
X1031000Y195796D01*
Y194204D01*
X1031609Y192734D01*
X1032734Y191609D01*
X1034204Y191000D01*
X1035796D01*
X1037266Y191609D01*
X1038391Y192734D01*
X1039000Y194204D01*
Y195796D01*
X1038391Y197266D01*
X1037266Y198391D01*
X1035796Y199000D01*
D02*
G37*
G36*
X1020796D02*
X1019204D01*
X1017734Y198391D01*
X1016609Y197266D01*
X1016000Y195796D01*
Y194204D01*
X1016609Y192734D01*
X1017734Y191609D01*
X1019204Y191000D01*
X1020796D01*
X1022266Y191609D01*
X1023391Y192734D01*
X1024000Y194204D01*
Y195796D01*
X1023391Y197266D01*
X1022266Y198391D01*
X1020796Y199000D01*
D02*
G37*
G36*
X853296Y196500D02*
X851704D01*
X850234Y195891D01*
X849109Y194766D01*
X848500Y193296D01*
Y191704D01*
X849109Y190234D01*
X850234Y189109D01*
X851704Y188500D01*
X853296D01*
X854766Y189109D01*
X855891Y190234D01*
X856500Y191704D01*
Y193296D01*
X855891Y194766D01*
X854766Y195891D01*
X853296Y196500D01*
D02*
G37*
G36*
X980796Y194000D02*
X979204D01*
X977734Y193391D01*
X976609Y192266D01*
X976000Y190796D01*
Y189204D01*
X976609Y187734D01*
X977734Y186609D01*
X979204Y186000D01*
X980796D01*
X982266Y186609D01*
X983391Y187734D01*
X984000Y189204D01*
Y190796D01*
X983391Y192266D01*
X982266Y193391D01*
X980796Y194000D01*
D02*
G37*
G36*
X970796D02*
X969204D01*
X967734Y193391D01*
X966609Y192266D01*
X966000Y190796D01*
Y189204D01*
X966609Y187734D01*
X967734Y186609D01*
X969204Y186000D01*
X970796D01*
X972266Y186609D01*
X973391Y187734D01*
X974000Y189204D01*
Y190796D01*
X973391Y192266D01*
X972266Y193391D01*
X970796Y194000D01*
D02*
G37*
G36*
X960796D02*
X959204D01*
X957734Y193391D01*
X956609Y192266D01*
X956000Y190796D01*
Y189204D01*
X956609Y187734D01*
X957734Y186609D01*
X959204Y186000D01*
X960796D01*
X962266Y186609D01*
X963391Y187734D01*
X964000Y189204D01*
Y190796D01*
X963391Y192266D01*
X962266Y193391D01*
X960796Y194000D01*
D02*
G37*
G36*
X950796D02*
X949204D01*
X947734Y193391D01*
X946609Y192266D01*
X946000Y190796D01*
Y189204D01*
X946609Y187734D01*
X947734Y186609D01*
X949204Y186000D01*
X950796D01*
X952266Y186609D01*
X953391Y187734D01*
X954000Y189204D01*
Y190796D01*
X953391Y192266D01*
X952266Y193391D01*
X950796Y194000D01*
D02*
G37*
G36*
X940796D02*
X939204D01*
X937734Y193391D01*
X936609Y192266D01*
X936000Y190796D01*
Y189204D01*
X936609Y187734D01*
X937734Y186609D01*
X939204Y186000D01*
X940796D01*
X942266Y186609D01*
X943391Y187734D01*
X944000Y189204D01*
Y190796D01*
X943391Y192266D01*
X942266Y193391D01*
X940796Y194000D01*
D02*
G37*
G36*
X900796Y191500D02*
X899204D01*
X897734Y190891D01*
X896609Y189766D01*
X896000Y188296D01*
Y186704D01*
X896609Y185234D01*
X897734Y184109D01*
X899204Y183500D01*
X900796D01*
X902266Y184109D01*
X903391Y185234D01*
X904000Y186704D01*
Y188296D01*
X903391Y189766D01*
X902266Y190891D01*
X900796Y191500D01*
D02*
G37*
G36*
X885796D02*
X884204D01*
X882734Y190891D01*
X881609Y189766D01*
X881000Y188296D01*
Y186704D01*
X881609Y185234D01*
X882734Y184109D01*
X884204Y183500D01*
X885796D01*
X887266Y184109D01*
X888391Y185234D01*
X889000Y186704D01*
Y188296D01*
X888391Y189766D01*
X887266Y190891D01*
X885796Y191500D01*
D02*
G37*
G36*
X1147537Y194229D02*
X1145463D01*
X1143459Y193692D01*
X1141662Y192655D01*
X1140195Y191188D01*
X1139158Y189391D01*
X1138621Y187387D01*
Y185313D01*
X1139158Y183309D01*
X1140195Y181512D01*
X1141662Y180045D01*
X1143459Y179008D01*
X1145463Y178471D01*
X1147537D01*
X1149541Y179008D01*
X1151338Y180045D01*
X1152805Y181512D01*
X1153842Y183309D01*
X1154379Y185313D01*
Y187387D01*
X1153842Y189391D01*
X1152805Y191188D01*
X1151338Y192655D01*
X1149541Y193692D01*
X1147537Y194229D01*
D02*
G37*
G36*
X980796Y184000D02*
X979204D01*
X977734Y183391D01*
X976609Y182266D01*
X976000Y180796D01*
Y179204D01*
X976609Y177734D01*
X977734Y176609D01*
X979204Y176000D01*
X980796D01*
X982266Y176609D01*
X983391Y177734D01*
X984000Y179204D01*
Y180796D01*
X983391Y182266D01*
X982266Y183391D01*
X980796Y184000D01*
D02*
G37*
G36*
X970796D02*
X969204D01*
X967734Y183391D01*
X966609Y182266D01*
X966000Y180796D01*
Y179204D01*
X966609Y177734D01*
X967734Y176609D01*
X969204Y176000D01*
X970796D01*
X972266Y176609D01*
X973391Y177734D01*
X974000Y179204D01*
Y180796D01*
X973391Y182266D01*
X972266Y183391D01*
X970796Y184000D01*
D02*
G37*
G36*
X960796D02*
X959204D01*
X957734Y183391D01*
X956609Y182266D01*
X956000Y180796D01*
Y179204D01*
X956609Y177734D01*
X957734Y176609D01*
X959204Y176000D01*
X960796D01*
X962266Y176609D01*
X963391Y177734D01*
X964000Y179204D01*
Y180796D01*
X963391Y182266D01*
X962266Y183391D01*
X960796Y184000D01*
D02*
G37*
G36*
X950796D02*
X949204D01*
X947734Y183391D01*
X946609Y182266D01*
X946000Y180796D01*
Y179204D01*
X946609Y177734D01*
X947734Y176609D01*
X949204Y176000D01*
X950796D01*
X952266Y176609D01*
X953391Y177734D01*
X954000Y179204D01*
Y180796D01*
X953391Y182266D01*
X952266Y183391D01*
X950796Y184000D01*
D02*
G37*
G36*
X940796D02*
X939204D01*
X937734Y183391D01*
X936609Y182266D01*
X936000Y180796D01*
Y179204D01*
X936609Y177734D01*
X937734Y176609D01*
X939204Y176000D01*
X940796D01*
X942266Y176609D01*
X943391Y177734D01*
X944000Y179204D01*
Y180796D01*
X943391Y182266D01*
X942266Y183391D01*
X940796Y184000D01*
D02*
G37*
G36*
X853296D02*
X851704D01*
X850234Y183391D01*
X849109Y182266D01*
X848500Y180796D01*
Y179204D01*
X849109Y177734D01*
X850234Y176609D01*
X851704Y176000D01*
X853296D01*
X854766Y176609D01*
X855891Y177734D01*
X856500Y179204D01*
Y180796D01*
X855891Y182266D01*
X854766Y183391D01*
X853296Y184000D01*
D02*
G37*
G36*
X1180796Y177650D02*
X1179204D01*
X1177734Y177041D01*
X1176609Y175916D01*
X1176000Y174446D01*
Y172854D01*
X1176609Y171384D01*
X1177734Y170259D01*
X1179204Y169650D01*
X1180796D01*
X1182266Y170259D01*
X1183391Y171384D01*
X1184000Y172854D01*
Y174446D01*
X1183391Y175916D01*
X1182266Y177041D01*
X1180796Y177650D01*
D02*
G37*
G36*
X980796Y174000D02*
X979204D01*
X977734Y173391D01*
X976609Y172266D01*
X976000Y170796D01*
Y169204D01*
X976609Y167734D01*
X977734Y166609D01*
X979204Y166000D01*
X980796D01*
X982266Y166609D01*
X983391Y167734D01*
X984000Y169204D01*
Y170796D01*
X983391Y172266D01*
X982266Y173391D01*
X980796Y174000D01*
D02*
G37*
G36*
X970796D02*
X969204D01*
X967734Y173391D01*
X966609Y172266D01*
X966000Y170796D01*
Y169204D01*
X966609Y167734D01*
X967734Y166609D01*
X969204Y166000D01*
X970796D01*
X972266Y166609D01*
X973391Y167734D01*
X974000Y169204D01*
Y170796D01*
X973391Y172266D01*
X972266Y173391D01*
X970796Y174000D01*
D02*
G37*
G36*
X960796D02*
X959204D01*
X957734Y173391D01*
X956609Y172266D01*
X956000Y170796D01*
Y169204D01*
X956609Y167734D01*
X957734Y166609D01*
X959204Y166000D01*
X960796D01*
X962266Y166609D01*
X963391Y167734D01*
X964000Y169204D01*
Y170796D01*
X963391Y172266D01*
X962266Y173391D01*
X960796Y174000D01*
D02*
G37*
G36*
X950796D02*
X949204D01*
X947734Y173391D01*
X946609Y172266D01*
X946000Y170796D01*
Y169204D01*
X946609Y167734D01*
X947734Y166609D01*
X949204Y166000D01*
X950796D01*
X952266Y166609D01*
X953391Y167734D01*
X954000Y169204D01*
Y170796D01*
X953391Y172266D01*
X952266Y173391D01*
X950796Y174000D01*
D02*
G37*
G36*
X940796D02*
X939204D01*
X937734Y173391D01*
X936609Y172266D01*
X936000Y170796D01*
Y169204D01*
X936609Y167734D01*
X937734Y166609D01*
X939204Y166000D01*
X940796D01*
X942266Y166609D01*
X943391Y167734D01*
X944000Y169204D01*
Y170796D01*
X943391Y172266D01*
X942266Y173391D01*
X940796Y174000D01*
D02*
G37*
G36*
X1122137Y181529D02*
X1120063D01*
X1118059Y180992D01*
X1116262Y179955D01*
X1114795Y178488D01*
X1113758Y176691D01*
X1113221Y174687D01*
Y172613D01*
X1113758Y170609D01*
X1114795Y168812D01*
X1116262Y167345D01*
X1118059Y166308D01*
X1120063Y165771D01*
X1122137D01*
X1124141Y166308D01*
X1125938Y167345D01*
X1127405Y168812D01*
X1128442Y170609D01*
X1128979Y172613D01*
Y174687D01*
X1128442Y176691D01*
X1127405Y178488D01*
X1125938Y179955D01*
X1124141Y180992D01*
X1122137Y181529D01*
D02*
G37*
G36*
X853296Y171500D02*
X851704D01*
X850234Y170891D01*
X849109Y169766D01*
X848500Y168296D01*
Y166704D01*
X849109Y165234D01*
X850234Y164109D01*
X851704Y163500D01*
X853296D01*
X854766Y164109D01*
X855891Y165234D01*
X856500Y166704D01*
Y168296D01*
X855891Y169766D01*
X854766Y170891D01*
X853296Y171500D01*
D02*
G37*
G36*
X813296D02*
X811704D01*
X810234Y170891D01*
X809109Y169766D01*
X808500Y168296D01*
Y166704D01*
X809109Y165234D01*
X810234Y164109D01*
X811704Y163500D01*
X813296D01*
X814766Y164109D01*
X815891Y165234D01*
X816500Y166704D01*
Y168296D01*
X815891Y169766D01*
X814766Y170891D01*
X813296Y171500D01*
D02*
G37*
G36*
X803296Y171500D02*
X801704D01*
X800234Y170891D01*
X799109Y169766D01*
X798500Y168296D01*
Y166704D01*
X799109Y165234D01*
X800234Y164109D01*
X801704Y163500D01*
X803296D01*
X804766Y164109D01*
X805891Y165234D01*
X806500Y166704D01*
Y168296D01*
X805891Y169766D01*
X804766Y170891D01*
X803296Y171500D01*
D02*
G37*
G36*
X793296D02*
X791704D01*
X790234Y170891D01*
X789109Y169766D01*
X788500Y168296D01*
Y166704D01*
X789109Y165234D01*
X790234Y164109D01*
X791704Y163500D01*
X793296D01*
X794766Y164109D01*
X795891Y165234D01*
X796500Y166704D01*
Y168296D01*
X795891Y169766D01*
X794766Y170891D01*
X793296Y171500D01*
D02*
G37*
G36*
X783296D02*
X781704D01*
X780234Y170891D01*
X779109Y169766D01*
X778500Y168296D01*
Y166704D01*
X779109Y165234D01*
X780234Y164109D01*
X781704Y163500D01*
X783296D01*
X784766Y164109D01*
X785891Y165234D01*
X786500Y166704D01*
Y168296D01*
X785891Y169766D01*
X784766Y170891D01*
X783296Y171500D01*
D02*
G37*
G36*
X773296D02*
X771704D01*
X770234Y170891D01*
X769109Y169766D01*
X768500Y168296D01*
Y166704D01*
X769109Y165234D01*
X770234Y164109D01*
X771704Y163500D01*
X773296D01*
X774766Y164109D01*
X775891Y165234D01*
X776500Y166704D01*
Y168296D01*
X775891Y169766D01*
X774766Y170891D01*
X773296Y171500D01*
D02*
G37*
G36*
X1035796Y169000D02*
X1034204D01*
X1032734Y168391D01*
X1031609Y167266D01*
X1031000Y165796D01*
Y164204D01*
X1031609Y162734D01*
X1032734Y161609D01*
X1034204Y161000D01*
X1035796D01*
X1037266Y161609D01*
X1038391Y162734D01*
X1039000Y164204D01*
Y165796D01*
X1038391Y167266D01*
X1037266Y168391D01*
X1035796Y169000D01*
D02*
G37*
G36*
X1020796D02*
X1019204D01*
X1017734Y168391D01*
X1016609Y167266D01*
X1016000Y165796D01*
Y164204D01*
X1016609Y162734D01*
X1017734Y161609D01*
X1019204Y161000D01*
X1020796D01*
X1022266Y161609D01*
X1023391Y162734D01*
X1024000Y164204D01*
Y165796D01*
X1023391Y167266D01*
X1022266Y168391D01*
X1020796Y169000D01*
D02*
G37*
G36*
X900796Y166500D02*
X899204D01*
X897734Y165891D01*
X896609Y164766D01*
X896000Y163296D01*
Y161704D01*
X896609Y160234D01*
X897734Y159109D01*
X899204Y158500D01*
X900796D01*
X902266Y159109D01*
X903391Y160234D01*
X904000Y161704D01*
Y163296D01*
X903391Y164766D01*
X902266Y165891D01*
X900796Y166500D01*
D02*
G37*
G36*
X885796D02*
X884204D01*
X882734Y165891D01*
X881609Y164766D01*
X881000Y163296D01*
Y161704D01*
X881609Y160234D01*
X882734Y159109D01*
X884204Y158500D01*
X885796D01*
X887266Y159109D01*
X888391Y160234D01*
X889000Y161704D01*
Y163296D01*
X888391Y164766D01*
X887266Y165891D01*
X885796Y166500D01*
D02*
G37*
G36*
X1075796Y164880D02*
X1074204D01*
X1072734Y164271D01*
X1071609Y163146D01*
X1071000Y161676D01*
Y160084D01*
X1071609Y158614D01*
X1072734Y157489D01*
X1074204Y156880D01*
X1075796D01*
X1077266Y157489D01*
X1078391Y158614D01*
X1079000Y160084D01*
Y161676D01*
X1078391Y163146D01*
X1077266Y164271D01*
X1075796Y164880D01*
D02*
G37*
G36*
X980796Y164000D02*
X979204D01*
X977734Y163391D01*
X976609Y162266D01*
X976000Y160796D01*
Y159204D01*
X976609Y157734D01*
X977734Y156609D01*
X979204Y156000D01*
X980796D01*
X982266Y156609D01*
X983391Y157734D01*
X984000Y159204D01*
Y160796D01*
X983391Y162266D01*
X982266Y163391D01*
X980796Y164000D01*
D02*
G37*
G36*
X970796D02*
X969204D01*
X967734Y163391D01*
X966609Y162266D01*
X966000Y160796D01*
Y159204D01*
X966609Y157734D01*
X967734Y156609D01*
X969204Y156000D01*
X970796D01*
X972266Y156609D01*
X973391Y157734D01*
X974000Y159204D01*
Y160796D01*
X973391Y162266D01*
X972266Y163391D01*
X970796Y164000D01*
D02*
G37*
G36*
X960796D02*
X959204D01*
X957734Y163391D01*
X956609Y162266D01*
X956000Y160796D01*
Y159204D01*
X956609Y157734D01*
X957734Y156609D01*
X959204Y156000D01*
X960796D01*
X962266Y156609D01*
X963391Y157734D01*
X964000Y159204D01*
Y160796D01*
X963391Y162266D01*
X962266Y163391D01*
X960796Y164000D01*
D02*
G37*
G36*
X950796D02*
X949204D01*
X947734Y163391D01*
X946609Y162266D01*
X946000Y160796D01*
Y159204D01*
X946609Y157734D01*
X947734Y156609D01*
X949204Y156000D01*
X950796D01*
X952266Y156609D01*
X953391Y157734D01*
X954000Y159204D01*
Y160796D01*
X953391Y162266D01*
X952266Y163391D01*
X950796Y164000D01*
D02*
G37*
G36*
X940796D02*
X939204D01*
X937734Y163391D01*
X936609Y162266D01*
X936000Y160796D01*
Y159204D01*
X936609Y157734D01*
X937734Y156609D01*
X939204Y156000D01*
X940796D01*
X942266Y156609D01*
X943391Y157734D01*
X944000Y159204D01*
Y160796D01*
X943391Y162266D01*
X942266Y163391D01*
X940796Y164000D01*
D02*
G37*
G36*
X1147537Y168829D02*
X1145463D01*
X1143459Y168292D01*
X1141662Y167255D01*
X1140195Y165788D01*
X1139158Y163991D01*
X1138621Y161987D01*
Y159913D01*
X1139158Y157909D01*
X1140195Y156112D01*
X1141662Y154645D01*
X1143459Y153608D01*
X1145463Y153071D01*
X1147537D01*
X1149541Y153608D01*
X1151338Y154645D01*
X1152805Y156112D01*
X1153842Y157909D01*
X1154379Y159913D01*
Y161987D01*
X1153842Y163991D01*
X1152805Y165788D01*
X1151338Y167255D01*
X1149541Y168292D01*
X1147537Y168829D01*
D02*
G37*
G36*
X900796Y151500D02*
X899204D01*
X897734Y150891D01*
X896609Y149766D01*
X896000Y148296D01*
Y146704D01*
X896609Y145234D01*
X897734Y144109D01*
X899204Y143500D01*
X900796D01*
X902266Y144109D01*
X903391Y145234D01*
X904000Y146704D01*
Y148296D01*
X903391Y149766D01*
X902266Y150891D01*
X900796Y151500D01*
D02*
G37*
G36*
X1122137Y156129D02*
X1120063D01*
X1118059Y155592D01*
X1116262Y154555D01*
X1114795Y153088D01*
X1113758Y151291D01*
X1113221Y149287D01*
Y147213D01*
X1113758Y145209D01*
X1114795Y143412D01*
X1116262Y141945D01*
X1118059Y140908D01*
X1120063Y140371D01*
X1122137D01*
X1124141Y140908D01*
X1125938Y141945D01*
X1127405Y143412D01*
X1128442Y145209D01*
X1128979Y147213D01*
Y149287D01*
X1128442Y151291D01*
X1127405Y153088D01*
X1125938Y154555D01*
X1124141Y155592D01*
X1122137Y156129D01*
D02*
G37*
G36*
X1035796Y146500D02*
X1034204D01*
X1032734Y145891D01*
X1031609Y144766D01*
X1031000Y143296D01*
Y141704D01*
X1031609Y140234D01*
X1032734Y139109D01*
X1034204Y138500D01*
X1035796D01*
X1037266Y139109D01*
X1038391Y140234D01*
X1039000Y141704D01*
Y143296D01*
X1038391Y144766D01*
X1037266Y145891D01*
X1035796Y146500D01*
D02*
G37*
G36*
X1020796D02*
X1019204D01*
X1017734Y145891D01*
X1016609Y144766D01*
X1016000Y143296D01*
Y141704D01*
X1016609Y140234D01*
X1017734Y139109D01*
X1019204Y138500D01*
X1020796D01*
X1022266Y139109D01*
X1023391Y140234D01*
X1024000Y141704D01*
Y143296D01*
X1023391Y144766D01*
X1022266Y145891D01*
X1020796Y146500D01*
D02*
G37*
G36*
X1147537Y143429D02*
X1145463D01*
X1143459Y142892D01*
X1141662Y141855D01*
X1140195Y140388D01*
X1139158Y138591D01*
X1138621Y136587D01*
Y134513D01*
X1139158Y132509D01*
X1140195Y130712D01*
X1141662Y129245D01*
X1143459Y128208D01*
X1145463Y127671D01*
X1147537D01*
X1149541Y128208D01*
X1151338Y129245D01*
X1152805Y130712D01*
X1153842Y132509D01*
X1154379Y134513D01*
Y136587D01*
X1153842Y138591D01*
X1152805Y140388D01*
X1151338Y141855D01*
X1149541Y142892D01*
X1147537Y143429D01*
D02*
G37*
G36*
X845796Y129000D02*
X844204D01*
X842734Y128391D01*
X841609Y127266D01*
X841000Y125796D01*
Y124204D01*
X841609Y122734D01*
X842734Y121609D01*
X844204Y121000D01*
X845796D01*
X847266Y121609D01*
X848391Y122734D01*
X849000Y124204D01*
Y125796D01*
X848391Y127266D01*
X847266Y128391D01*
X845796Y129000D01*
D02*
G37*
G36*
X933296Y124000D02*
X931704D01*
X930234Y123391D01*
X929109Y122266D01*
X928500Y120796D01*
Y119204D01*
X929109Y117734D01*
X930234Y116609D01*
X931704Y116000D01*
X933296D01*
X934766Y116609D01*
X935891Y117734D01*
X936500Y119204D01*
Y120796D01*
X935891Y122266D01*
X934766Y123391D01*
X933296Y124000D01*
D02*
G37*
G36*
X918296D02*
X916704D01*
X915234Y123391D01*
X914109Y122266D01*
X913500Y120796D01*
Y119204D01*
X914109Y117734D01*
X915234Y116609D01*
X916704Y116000D01*
X918296D01*
X919766Y116609D01*
X920891Y117734D01*
X921500Y119204D01*
Y120796D01*
X920891Y122266D01*
X919766Y123391D01*
X918296Y124000D01*
D02*
G37*
G36*
X1122137Y130729D02*
X1120063D01*
X1118059Y130192D01*
X1116262Y129155D01*
X1114795Y127688D01*
X1113758Y125891D01*
X1113221Y123887D01*
Y121813D01*
X1113758Y119809D01*
X1114795Y118012D01*
X1116262Y116545D01*
X1118059Y115508D01*
X1120063Y114971D01*
X1122137D01*
X1124141Y115508D01*
X1125938Y116545D01*
X1127405Y118012D01*
X1128442Y119809D01*
X1128979Y121813D01*
Y123887D01*
X1128442Y125891D01*
X1127405Y127688D01*
X1125938Y129155D01*
X1124141Y130192D01*
X1122137Y130729D01*
D02*
G37*
G36*
X1211847Y141600D02*
X1208153D01*
X1204531Y140879D01*
X1201118Y139466D01*
X1198048Y137414D01*
X1195436Y134802D01*
X1193384Y131732D01*
X1191971Y128319D01*
X1191250Y124697D01*
Y121003D01*
X1191971Y117381D01*
X1193384Y113968D01*
X1195436Y110898D01*
X1198048Y108286D01*
X1201118Y106234D01*
X1204531Y104820D01*
X1208153Y104100D01*
X1211847D01*
X1215469Y104820D01*
X1218882Y106234D01*
X1221952Y108286D01*
X1224564Y110898D01*
X1226616Y113968D01*
X1228029Y117381D01*
X1228750Y121003D01*
Y124697D01*
X1228029Y128319D01*
X1226616Y131732D01*
X1224564Y134802D01*
X1221952Y137414D01*
X1218882Y139466D01*
X1215469Y140879D01*
X1211847Y141600D01*
D02*
G37*
G36*
X1256824Y120689D02*
X1254576D01*
X1252404Y120107D01*
X1250457Y118983D01*
X1248867Y117393D01*
X1247743Y115446D01*
X1247161Y113274D01*
Y111026D01*
X1247743Y108854D01*
X1248867Y106907D01*
X1250457Y105317D01*
X1252404Y104193D01*
X1254576Y103611D01*
X1256824D01*
X1258996Y104193D01*
X1260943Y105317D01*
X1262533Y106907D01*
X1263657Y108854D01*
X1264239Y111026D01*
Y113274D01*
X1263657Y115446D01*
X1262533Y117393D01*
X1260943Y118983D01*
X1258996Y120107D01*
X1256824Y120689D01*
D02*
G37*
G36*
X970796Y124000D02*
X969204D01*
X967734Y123391D01*
X966609Y122266D01*
X966000Y120796D01*
Y119204D01*
X966609Y117734D01*
X967734Y116609D01*
X969204Y116000D01*
X970796D01*
X972266Y116609D01*
X973221Y117564D01*
X993991D01*
X1011000Y100555D01*
Y99204D01*
X1011609Y97734D01*
X1012734Y96609D01*
X1014204Y96000D01*
X1015796D01*
X1017266Y96609D01*
X1018391Y97734D01*
X1019000Y99204D01*
Y100796D01*
X1018391Y102266D01*
X1017266Y103391D01*
X1015796Y104000D01*
X1014445D01*
X996722Y121722D01*
X995932Y122250D01*
X995000Y122436D01*
X973221D01*
X972266Y123391D01*
X970796Y124000D01*
D02*
G37*
G36*
Y99000D02*
X969204D01*
X967734Y98391D01*
X966609Y97266D01*
X966000Y95796D01*
Y94204D01*
X966609Y92734D01*
X967734Y91609D01*
X969204Y91000D01*
X970796D01*
X972266Y91609D01*
X973391Y92734D01*
X974000Y94204D01*
Y95796D01*
X973391Y97266D01*
X972266Y98391D01*
X970796Y99000D01*
D02*
G37*
G36*
X1181197Y115439D02*
X1177803D01*
X1174525Y114561D01*
X1171586Y112864D01*
X1169186Y110464D01*
X1167489Y107525D01*
X1166611Y104247D01*
Y100853D01*
X1167489Y97575D01*
X1169186Y94636D01*
X1171586Y92236D01*
X1174525Y90539D01*
X1177803Y89661D01*
X1181197D01*
X1184475Y90539D01*
X1187414Y92236D01*
X1189814Y94636D01*
X1191511Y97575D01*
X1192389Y100853D01*
Y104247D01*
X1191511Y107525D01*
X1189814Y110464D01*
X1187414Y112864D01*
X1184475Y114561D01*
X1181197Y115439D01*
D02*
G37*
G36*
X903296Y94000D02*
X901704D01*
X900234Y93391D01*
X899109Y92266D01*
X898500Y90796D01*
Y89204D01*
X899109Y87734D01*
X900234Y86609D01*
X901704Y86000D01*
X903296D01*
X904766Y86609D01*
X905891Y87734D01*
X906500Y89204D01*
Y90796D01*
X905891Y92266D01*
X904766Y93391D01*
X903296Y94000D01*
D02*
G37*
G36*
X923296Y94000D02*
X921704D01*
X920234Y93391D01*
X919109Y92266D01*
X918500Y90796D01*
Y89204D01*
X919109Y87734D01*
X920234Y86609D01*
X921704Y86000D01*
X923296D01*
X924766Y86609D01*
X925891Y87734D01*
X926500Y89204D01*
Y90796D01*
X925891Y92266D01*
X924766Y93391D01*
X923296Y94000D01*
D02*
G37*
G36*
X883296D02*
X881704D01*
X880234Y93391D01*
X879109Y92266D01*
X878500Y90796D01*
Y89204D01*
X879109Y87734D01*
X880234Y86609D01*
X881704Y86000D01*
X883296D01*
X884766Y86609D01*
X885891Y87734D01*
X886500Y89204D01*
Y90796D01*
X885891Y92266D01*
X884766Y93391D01*
X883296Y94000D01*
D02*
G37*
G36*
X961151Y48739D02*
X958849D01*
X956627Y48143D01*
X954634Y46993D01*
X953007Y45366D01*
X951857Y43373D01*
X951261Y41150D01*
Y38849D01*
X951857Y36627D01*
X953007Y34634D01*
X954634Y33007D01*
X956627Y31857D01*
X958849Y31261D01*
X961151D01*
X963373Y31857D01*
X965366Y33007D01*
X966993Y34634D01*
X968143Y36627D01*
X968739Y38849D01*
Y41150D01*
X968143Y43373D01*
X966993Y45366D01*
X965366Y46993D01*
X963373Y48143D01*
X961151Y48739D01*
D02*
G37*
G36*
X1242550Y65889D02*
X1237450D01*
X1232449Y64894D01*
X1227737Y62943D01*
X1223497Y60109D01*
X1219891Y56503D01*
X1217057Y52263D01*
X1215106Y47551D01*
X1214111Y42550D01*
Y37450D01*
X1215106Y32448D01*
X1217057Y27737D01*
X1219891Y23497D01*
X1223497Y19891D01*
X1227737Y17057D01*
X1232449Y15106D01*
X1237450Y14111D01*
X1242550D01*
X1247552Y15106D01*
X1252263Y17057D01*
X1256503Y19891D01*
X1260109Y23497D01*
X1262943Y27737D01*
X1264894Y32448D01*
X1265889Y37450D01*
Y42550D01*
X1264894Y47551D01*
X1262943Y52263D01*
X1260109Y56503D01*
X1256503Y60109D01*
X1252263Y62943D01*
X1247552Y64894D01*
X1242550Y65889D01*
D02*
G37*
G36*
X642550D02*
X637450D01*
X632448Y64894D01*
X627737Y62943D01*
X623497Y60109D01*
X619891Y56503D01*
X617057Y52263D01*
X615106Y47551D01*
X614111Y42550D01*
Y37450D01*
X615106Y32448D01*
X617057Y27737D01*
X619891Y23497D01*
X623497Y19891D01*
X627737Y17057D01*
X632448Y15106D01*
X637450Y14111D01*
X642550D01*
X647551Y15106D01*
X652263Y17057D01*
X656503Y19891D01*
X660109Y23497D01*
X662943Y27737D01*
X664894Y32448D01*
X665889Y37450D01*
Y42550D01*
X664894Y47551D01*
X662943Y52263D01*
X660109Y56503D01*
X656503Y60109D01*
X652263Y62943D01*
X647551Y64894D01*
X642550Y65889D01*
D02*
G37*
%LPD*%
G36*
X240000Y340000D02*
X180000D01*
Y411843D01*
X180891Y412734D01*
X181500Y414204D01*
Y415796D01*
X180891Y417266D01*
X180000Y418157D01*
Y480000D01*
X240000D01*
Y340000D01*
D02*
G37*
%LPC*%
G36*
X203296Y439000D02*
X201704D01*
X200234Y438391D01*
X199109Y437266D01*
X198500Y435796D01*
Y434204D01*
X199109Y432734D01*
X200234Y431609D01*
X201704Y431000D01*
X203296D01*
X204766Y431609D01*
X205891Y432734D01*
X206500Y434204D01*
Y435796D01*
X205891Y437266D01*
X204766Y438391D01*
X203296Y439000D01*
D02*
G37*
G36*
X200796Y414000D02*
X199204D01*
X197734Y413391D01*
X196609Y412266D01*
X196000Y410796D01*
Y409204D01*
X196609Y407734D01*
X197734Y406609D01*
X199204Y406000D01*
X200796D01*
X202266Y406609D01*
X203391Y407734D01*
X204000Y409204D01*
Y410796D01*
X203391Y412266D01*
X202266Y413391D01*
X200796Y414000D01*
D02*
G37*
%LPD*%
D11*
X1075000Y715000D02*
X1090000Y700000D01*
X1075000Y715000D02*
Y740000D01*
X1122500Y700000D02*
X1127500Y705000D01*
X1090000Y700000D02*
X1122500D01*
D39*
X695000Y445000D02*
D03*
X593414Y522586D02*
D03*
X620000Y512000D02*
D03*
X692000Y552000D02*
D03*
X596000Y464000D02*
D03*
X588000Y552000D02*
D03*
X636000Y520000D02*
D03*
X628000D02*
D03*
Y512000D02*
D03*
Y504000D02*
D03*
X636000D02*
D03*
Y512000D02*
D03*
Y496000D02*
D03*
X628000D02*
D03*
Y488000D02*
D03*
X636000D02*
D03*
X644000D02*
D03*
X652000D02*
D03*
X644000Y496000D02*
D03*
X652000D02*
D03*
Y512000D02*
D03*
X588000Y448000D02*
D03*
X605000Y520000D02*
D03*
X610000Y535000D02*
D03*
X644000Y472000D02*
D03*
X605000Y505000D02*
D03*
Y475000D02*
D03*
Y490000D02*
D03*
X675000Y475000D02*
D03*
Y520000D02*
D03*
X668000Y504000D02*
D03*
X652000Y528000D02*
D03*
Y472000D02*
D03*
X668000Y488000D02*
D03*
Y512000D02*
D03*
X657500Y535000D02*
D03*
X640000D02*
D03*
X625000D02*
D03*
X612000Y512000D02*
D03*
Y488000D02*
D03*
X640000Y465000D02*
D03*
X610000D02*
D03*
X625000D02*
D03*
X628000Y472000D02*
D03*
D67*
X265000Y595000D02*
D03*
X1030000Y590000D02*
D03*
X200000Y595000D02*
D03*
X1070000Y590000D02*
D03*
X1110000D02*
D03*
X330000Y300000D02*
D03*
X1150000Y590000D02*
D03*
X960000Y40000D02*
D03*
X330000Y595000D02*
D03*
X100000Y300000D02*
D03*
D70*
X105000Y363000D02*
D03*
D71*
X75000Y410000D02*
D03*
D75*
X135000D02*
D03*
D84*
X837500Y240000D02*
X877500D01*
X900000Y217500D01*
X970000Y120000D02*
X995000D01*
X1015000Y100000D01*
X855000Y740000D02*
X880000Y715000D01*
X830000Y740000D02*
X855000D01*
X200000Y630000D02*
X252500D01*
X190000Y640000D02*
X200000Y630000D01*
X190000Y640000D02*
Y695000D01*
X175000Y710000D02*
X190000Y695000D01*
X175000Y710000D02*
Y740000D01*
X475000Y701000D02*
X502500Y673500D01*
X475000Y701000D02*
Y740000D01*
D85*
X40000Y1060000D02*
D03*
X340000D02*
D03*
X940000D02*
D03*
X640000D02*
D03*
X640000Y40000D02*
D03*
X1240000Y1060000D02*
D03*
Y40000D02*
D03*
X40000Y300000D02*
D03*
D86*
Y1041000D02*
D03*
X340000D02*
D03*
X53435Y1046565D02*
D03*
X26565D02*
D03*
X353435D02*
D03*
X326565D02*
D03*
X940000Y1041000D02*
D03*
X640000Y21000D02*
D03*
X1240000Y1041000D02*
D03*
X40000Y281000D02*
D03*
X1240000Y21000D02*
D03*
X640000Y1041000D02*
D03*
X1253435Y1046565D02*
D03*
X1226565D02*
D03*
X653435D02*
D03*
X626565D02*
D03*
X953435D02*
D03*
X926565D02*
D03*
X1253435Y26565D02*
D03*
X1226565D02*
D03*
X53435Y286565D02*
D03*
X26565D02*
D03*
X653435Y26565D02*
D03*
X626565D02*
D03*
X621000Y1060000D02*
D03*
X59000D02*
D03*
X21000D02*
D03*
X359000D02*
D03*
X321000D02*
D03*
X959000D02*
D03*
X921000D02*
D03*
X659000D02*
D03*
X953435Y1073435D02*
D03*
X926565D02*
D03*
X26565D02*
D03*
X326565D02*
D03*
X53435D02*
D03*
X40000Y1079000D02*
D03*
X340000D02*
D03*
X626565Y1073435D02*
D03*
X353435D02*
D03*
X653435D02*
D03*
X940000Y1079000D02*
D03*
X640000D02*
D03*
X1221000Y40000D02*
D03*
X1259000Y1060000D02*
D03*
X1221000D02*
D03*
X659000Y40000D02*
D03*
X621000D02*
D03*
X59000Y300000D02*
D03*
X21000D02*
D03*
X1259000Y40000D02*
D03*
X26565Y313435D02*
D03*
X53435D02*
D03*
X1253435Y1073435D02*
D03*
X653435Y53435D02*
D03*
X626565D02*
D03*
X1226565Y1073435D02*
D03*
X1240000Y1079000D02*
D03*
X640000Y59000D02*
D03*
X1253435Y53435D02*
D03*
X1226565D02*
D03*
X40000Y319000D02*
D03*
X1240000Y59000D02*
D03*
X962500Y490000D02*
D03*
X890000Y432500D02*
D03*
X897500D02*
D03*
Y440000D02*
D03*
Y447500D02*
D03*
X1180000Y173650D02*
D03*
X932500Y240000D02*
D03*
X720000Y310000D02*
D03*
X712500Y315000D02*
D03*
X727500D02*
D03*
X692500D02*
D03*
X677500D02*
D03*
X685000Y310000D02*
D03*
X785000Y320000D02*
D03*
X775000D02*
D03*
X780000Y315000D02*
D03*
X885000D02*
D03*
X860000Y285000D02*
D03*
X845000Y125000D02*
D03*
X580000Y290000D02*
D03*
Y307500D02*
D03*
Y325000D02*
D03*
Y342500D02*
D03*
X772500Y167500D02*
D03*
X782500D02*
D03*
X792500D02*
D03*
X802500D02*
D03*
X812500Y167500D02*
D03*
X822500Y217500D02*
D03*
X410000Y540000D02*
D03*
X415000Y545000D02*
D03*
X405000D02*
D03*
X885000Y162500D02*
D03*
Y187500D02*
D03*
Y217500D02*
D03*
X837500Y240000D02*
D03*
X1075000Y160880D02*
D03*
Y199120D02*
D03*
X1035000Y217500D02*
D03*
Y142500D02*
D03*
Y195000D02*
D03*
Y165000D02*
D03*
X882500Y90000D02*
D03*
X902500Y90000D02*
D03*
X922500Y90000D02*
D03*
X1015000Y100000D02*
D03*
X990000Y95000D02*
D03*
X970000D02*
D03*
X985000Y400000D02*
D03*
X1167300Y384600D02*
D03*
X1070000Y380000D02*
D03*
X1132500Y537500D02*
D03*
X1120000Y490000D02*
D03*
X880000Y412500D02*
D03*
X537500Y567500D02*
D03*
Y472500D02*
D03*
X545000Y467500D02*
D03*
X712500Y490000D02*
D03*
Y455000D02*
D03*
X190000Y725000D02*
D03*
X230000D02*
D03*
X490000D02*
D03*
X460000D02*
D03*
X532056Y673055D02*
D03*
X200000Y410000D02*
D03*
X630000Y562500D02*
D03*
X432500Y697500D02*
D03*
Y712500D02*
D03*
Y705000D02*
D03*
X990000Y490000D02*
D03*
X682500Y417500D02*
D03*
Y427500D02*
D03*
X1130000Y720000D02*
D03*
X782500D02*
D03*
X842500Y730000D02*
D03*
X532500Y722500D02*
D03*
X770000Y780000D02*
D03*
X780000D02*
D03*
X790000D02*
D03*
X810000D02*
D03*
X800000D02*
D03*
X780000Y790000D02*
D03*
X770000D02*
D03*
X780000Y800000D02*
D03*
X770000D02*
D03*
X800000Y790000D02*
D03*
X790000D02*
D03*
X810000D02*
D03*
X800000Y800000D02*
D03*
X790000D02*
D03*
X810000D02*
D03*
X480000Y780000D02*
D03*
X500000D02*
D03*
X490000D02*
D03*
X510000D02*
D03*
X470000Y790000D02*
D03*
Y780000D02*
D03*
X480000Y790000D02*
D03*
X470000Y800000D02*
D03*
X480000D02*
D03*
X490000Y810000D02*
D03*
X500000Y790000D02*
D03*
X490000D02*
D03*
X510000D02*
D03*
X500000Y800000D02*
D03*
X490000D02*
D03*
X510000D02*
D03*
X770000Y810000D02*
D03*
X790000D02*
D03*
X780000D02*
D03*
X770000Y820000D02*
D03*
X790000D02*
D03*
X780000D02*
D03*
X470000Y810000D02*
D03*
Y820000D02*
D03*
X480000Y810000D02*
D03*
X510000D02*
D03*
X500000D02*
D03*
X480000Y820000D02*
D03*
X500000D02*
D03*
X490000D02*
D03*
Y970000D02*
D03*
X510000Y820000D02*
D03*
X790000Y970000D02*
D03*
X800000Y810000D02*
D03*
X810000D02*
D03*
X1080000Y780000D02*
D03*
X1070000D02*
D03*
X800000Y820000D02*
D03*
X810000D02*
D03*
X1070000Y790000D02*
D03*
Y800000D02*
D03*
Y810000D02*
D03*
X1090000Y780000D02*
D03*
X1110000D02*
D03*
X1100000D02*
D03*
Y790000D02*
D03*
X1110000D02*
D03*
X1080000D02*
D03*
X1090000D02*
D03*
Y800000D02*
D03*
X1080000D02*
D03*
Y810000D02*
D03*
X1100000D02*
D03*
X1090000D02*
D03*
X1110000Y800000D02*
D03*
X1100000D02*
D03*
X1110000Y810000D02*
D03*
X1090000Y820000D02*
D03*
X1080000D02*
D03*
X1070000D02*
D03*
X1100000D02*
D03*
X1110000D02*
D03*
X1090000Y970000D02*
D03*
X180000Y790000D02*
D03*
X170000D02*
D03*
Y810000D02*
D03*
Y800000D02*
D03*
X180000Y810000D02*
D03*
X190000Y780000D02*
D03*
X200000D02*
D03*
X180000D02*
D03*
X210000Y790000D02*
D03*
X190000D02*
D03*
X200000D02*
D03*
Y800000D02*
D03*
X180000D02*
D03*
X190000Y810000D02*
D03*
Y800000D02*
D03*
X200000Y810000D02*
D03*
X210000Y800000D02*
D03*
Y810000D02*
D03*
X180000Y820000D02*
D03*
X190000D02*
D03*
X200000D02*
D03*
X170000Y780000D02*
D03*
Y820000D02*
D03*
X210000D02*
D03*
Y780000D02*
D03*
X190000Y970000D02*
D03*
X940000Y160000D02*
D03*
Y170000D02*
D03*
Y180000D02*
D03*
Y190000D02*
D03*
Y200000D02*
D03*
X950000D02*
D03*
Y190000D02*
D03*
Y180000D02*
D03*
Y170000D02*
D03*
Y160000D02*
D03*
X960000D02*
D03*
Y170000D02*
D03*
Y180000D02*
D03*
Y190000D02*
D03*
Y200000D02*
D03*
X970000D02*
D03*
Y190000D02*
D03*
Y180000D02*
D03*
Y170000D02*
D03*
Y160000D02*
D03*
X980000D02*
D03*
Y170000D02*
D03*
Y180000D02*
D03*
Y190000D02*
D03*
Y200000D02*
D03*
X702500Y565000D02*
D03*
X727500Y490000D02*
D03*
Y455000D02*
D03*
X1127500Y705000D02*
D03*
X1090000Y700000D02*
D03*
X880000Y715000D02*
D03*
X502500Y673500D02*
D03*
X252500Y630000D02*
D03*
X200000D02*
D03*
X190000Y695000D02*
D03*
X1030000Y717500D02*
D03*
X730000D02*
D03*
X445000Y692500D02*
D03*
X130000Y717500D02*
D03*
X995000Y880000D02*
D03*
Y890000D02*
D03*
Y850000D02*
D03*
Y860000D02*
D03*
Y870000D02*
D03*
Y840000D02*
D03*
X695000Y850000D02*
D03*
Y840000D02*
D03*
Y860000D02*
D03*
Y890000D02*
D03*
Y880000D02*
D03*
Y870000D02*
D03*
X395000Y850000D02*
D03*
Y860000D02*
D03*
Y870000D02*
D03*
Y890000D02*
D03*
Y840000D02*
D03*
Y880000D02*
D03*
X95000Y860000D02*
D03*
Y840000D02*
D03*
Y890000D02*
D03*
Y870000D02*
D03*
Y850000D02*
D03*
Y880000D02*
D03*
X977500Y987500D02*
D03*
X677500D02*
D03*
X377500D02*
D03*
X77500D02*
D03*
X305000Y535000D02*
D03*
X355000Y530000D02*
D03*
X162500Y395000D02*
D03*
X177500Y415000D02*
D03*
X245000Y410000D02*
D03*
X202500Y435000D02*
D03*
X210000Y497500D02*
D03*
X195000Y520000D02*
D03*
Y360000D02*
D03*
Y367500D02*
D03*
Y352500D02*
D03*
X222500Y360000D02*
D03*
Y460000D02*
D03*
X195000Y452500D02*
D03*
Y467500D02*
D03*
Y460000D02*
D03*
X705000Y385000D02*
D03*
X715000D02*
D03*
X705000Y375000D02*
D03*
X715000D02*
D03*
X437500Y387500D02*
D03*
X422500D02*
D03*
X430000Y395000D02*
D03*
X437500Y432500D02*
D03*
X422500D02*
D03*
X430000Y425000D02*
D03*
X595000Y320000D02*
D03*
X605000D02*
D03*
X600000Y315000D02*
D03*
X660000Y427500D02*
D03*
X650000D02*
D03*
X1175000Y772500D02*
D03*
X1182500D02*
D03*
X1190000D02*
D03*
X875000D02*
D03*
X882500D02*
D03*
X890000D02*
D03*
X575000D02*
D03*
X582500D02*
D03*
X590000D02*
D03*
X290000D02*
D03*
X282500D02*
D03*
X275000D02*
D03*
X375000Y545000D02*
D03*
X385000D02*
D03*
X380000Y540000D02*
D03*
X275000Y550000D02*
D03*
X265000D02*
D03*
X270000Y545000D02*
D03*
X1007500Y447500D02*
D03*
X992500D02*
D03*
X932500D02*
D03*
X1007500Y372500D02*
D03*
X932500D02*
D03*
X807300Y384600D02*
D03*
X852500Y167500D02*
D03*
Y180000D02*
D03*
Y192500D02*
D03*
Y205000D02*
D03*
Y217500D02*
D03*
Y230000D02*
D03*
X543535Y385858D02*
D03*
X534697Y394697D02*
D03*
X525858Y403535D02*
D03*
X517019Y412374D02*
D03*
X508180Y421213D02*
D03*
X222500Y650000D02*
D03*
X210000D02*
D03*
X267500D02*
D03*
X252500D02*
D03*
X237500D02*
D03*
X77500Y757500D02*
D03*
Y750000D02*
D03*
X202500Y650000D02*
D03*
X97500Y780000D02*
D03*
Y772500D02*
D03*
Y765000D02*
D03*
Y787500D02*
D03*
X1162500Y542500D02*
D03*
Y557500D02*
D03*
X1103500Y471719D02*
D03*
X962500Y482500D02*
D03*
X932500Y405000D02*
D03*
Y395000D02*
D03*
X772700Y384600D02*
D03*
Y397300D02*
D03*
Y410000D02*
D03*
Y422700D02*
D03*
Y435400D02*
D03*
X747500Y425000D02*
D03*
X1152500Y682500D02*
D03*
X1140000D02*
D03*
X1127500D02*
D03*
X1115000D02*
D03*
X1102500D02*
D03*
X1090000D02*
D03*
X1152500Y667500D02*
D03*
X1140000D02*
D03*
X1127500D02*
D03*
X1115000D02*
D03*
X1102500D02*
D03*
X1090000D02*
D03*
X925000Y557500D02*
D03*
X905000Y545000D02*
D03*
X797500Y495000D02*
D03*
Y507500D02*
D03*
Y520000D02*
D03*
Y532500D02*
D03*
X852500Y827500D02*
D03*
X790000Y740000D02*
D03*
X850000Y772500D02*
D03*
X730000Y795000D02*
D03*
X850000Y810000D02*
D03*
X815000Y870000D02*
D03*
X850000Y857500D02*
D03*
X750000Y850000D02*
D03*
X775000D02*
D03*
X830000Y843000D02*
D03*
X809000Y850000D02*
D03*
X680000Y637500D02*
D03*
X702500Y972500D02*
D03*
X675000Y642500D02*
D03*
X670000Y647500D02*
D03*
X850000Y787500D02*
D03*
X670000Y760000D02*
D03*
Y752500D02*
D03*
X690000Y765000D02*
D03*
Y772500D02*
D03*
X682500Y777500D02*
D03*
X685000Y632500D02*
D03*
X660000Y657500D02*
D03*
X677500Y785000D02*
D03*
X665000Y652500D02*
D03*
X620000Y635000D02*
D03*
X562500Y690000D02*
D03*
X412500Y812500D02*
D03*
X435000Y900000D02*
D03*
X475000Y740000D02*
D03*
X530000D02*
D03*
X430000Y827500D02*
D03*
X547500Y690000D02*
D03*
X532500D02*
D03*
X630000Y635000D02*
D03*
X550000Y787500D02*
D03*
X502500Y690000D02*
D03*
X552500Y827500D02*
D03*
X490000Y740000D02*
D03*
X550000Y772500D02*
D03*
X430000Y795000D02*
D03*
X577500Y690000D02*
D03*
X640000Y657500D02*
D03*
X550000Y810000D02*
D03*
X515000Y870000D02*
D03*
X550000Y857500D02*
D03*
X450000Y850000D02*
D03*
X475000D02*
D03*
X530000Y843000D02*
D03*
X509000Y850000D02*
D03*
X402500Y972500D02*
D03*
X610000Y657500D02*
D03*
X600000D02*
D03*
X650000D02*
D03*
X517500Y690000D02*
D03*
X962500Y240000D02*
D03*
X1002500D02*
D03*
X1020000Y217500D02*
D03*
Y195000D02*
D03*
Y165000D02*
D03*
Y142500D02*
D03*
X970000Y120000D02*
D03*
X932500D02*
D03*
X917500D02*
D03*
X900000Y147500D02*
D03*
Y162500D02*
D03*
Y187500D02*
D03*
Y217500D02*
D03*
X947500Y240000D02*
D03*
X1090000Y740000D02*
D03*
X1002500Y972500D02*
D03*
X1030000Y827500D02*
D03*
X1012500Y812500D02*
D03*
X1075000Y740000D02*
D03*
X1109000Y850000D02*
D03*
X1075000D02*
D03*
X1050000D02*
D03*
X1035000Y900000D02*
D03*
X1030000Y795000D02*
D03*
X1150000Y857500D02*
D03*
X1130000Y843000D02*
D03*
X1150000Y772500D02*
D03*
X1130000Y740000D02*
D03*
X1152500Y827500D02*
D03*
X1002500Y987500D02*
D03*
X1115000Y870000D02*
D03*
X1150000Y787500D02*
D03*
Y810000D02*
D03*
X209000Y850000D02*
D03*
X230000Y843000D02*
D03*
X175000Y850000D02*
D03*
X150000D02*
D03*
X250000Y787500D02*
D03*
X130000Y795000D02*
D03*
X250000Y772500D02*
D03*
X190000Y740000D02*
D03*
X250000Y857500D02*
D03*
X215000Y870000D02*
D03*
X250000Y810000D02*
D03*
X252500Y827500D02*
D03*
X130000D02*
D03*
X230000Y740000D02*
D03*
X175000D02*
D03*
X135000Y900000D02*
D03*
X112500Y812500D02*
D03*
X102500Y987500D02*
D03*
Y972500D02*
D03*
X402500Y987500D02*
D03*
X730000Y827500D02*
D03*
X830000Y740000D02*
D03*
X775000D02*
D03*
X735000Y900000D02*
D03*
X712500Y812500D02*
D03*
X702500Y987500D02*
D03*
D87*
X1235400Y112150D02*
D03*
Y247850D02*
D03*
X1255700D02*
D03*
Y112150D02*
D03*
D88*
X780000Y1000000D02*
D03*
X800000D02*
D03*
X480000D02*
D03*
X500000D02*
D03*
X200000D02*
D03*
X180000D02*
D03*
X1100000Y1000000D02*
D03*
X1080000D02*
D03*
D89*
X1210000Y122850D02*
D03*
Y237150D02*
D03*
D90*
X1179500Y102550D02*
D03*
Y257450D02*
D03*
D91*
X1121100Y122850D02*
D03*
Y148250D02*
D03*
Y173650D02*
D03*
Y199050D02*
D03*
Y224450D02*
D03*
X1146500Y237150D02*
D03*
Y211750D02*
D03*
Y186350D02*
D03*
Y160950D02*
D03*
Y135550D02*
D03*
D93*
X225000Y943700D02*
D03*
X155000D02*
D03*
Y1018700D02*
D03*
X225000D02*
D03*
X525000Y943700D02*
D03*
X455000D02*
D03*
Y1018700D02*
D03*
X525000D02*
D03*
X825000Y943700D02*
D03*
X755000D02*
D03*
Y1018700D02*
D03*
X825000D02*
D03*
X1125000Y943700D02*
D03*
X1055000D02*
D03*
Y1018700D02*
D03*
X1125000D02*
D03*
D94*
X640000Y304000D02*
D03*
Y316000D02*
D03*
X330000Y534000D02*
D03*
Y546000D02*
D03*
X840000Y316000D02*
D03*
Y304000D02*
D03*
D95*
X50000Y480000D02*
D03*
X102000Y515000D02*
D03*
M02*
