G04*
G04 #@! TF.GenerationSoftware,Altium Limited,Altium Designer,24.4.1 (13)*
G04*
G04 Layer_Color=8421504*
%FSLAX44Y44*%
%MOMM*%
G71*
G04*
G04 #@! TF.SameCoordinates,6757478C-E6A1-41AE-BC66-293F91E3D7AC*
G04*
G04*
G04 #@! TF.FilePolarity,Positive*
G04*
G01*
G75*
%ADD16R,1.8000X0.8500*%
%ADD17R,1.6000X0.6000*%
%ADD18R,0.7811X0.7121*%
%ADD19R,0.2125X1.3552*%
G04:AMPARAMS|DCode=20|XSize=1.3552mm|YSize=0.2125mm|CornerRadius=0.1062mm|HoleSize=0mm|Usage=FLASHONLY|Rotation=90.000|XOffset=0mm|YOffset=0mm|HoleType=Round|Shape=RoundedRectangle|*
%AMROUNDEDRECTD20*
21,1,1.3552,0.0000,0,0,90.0*
21,1,1.1428,0.2125,0,0,90.0*
1,1,0.2125,0.0000,0.5714*
1,1,0.2125,0.0000,-0.5714*
1,1,0.2125,0.0000,-0.5714*
1,1,0.2125,0.0000,0.5714*
%
%ADD20ROUNDEDRECTD20*%
G04:AMPARAMS|DCode=21|XSize=0.2125mm|YSize=1.3552mm|CornerRadius=0.1062mm|HoleSize=0mm|Usage=FLASHONLY|Rotation=90.000|XOffset=0mm|YOffset=0mm|HoleType=Round|Shape=RoundedRectangle|*
%AMROUNDEDRECTD21*
21,1,0.2125,1.1428,0,0,90.0*
21,1,0.0000,1.3552,0,0,90.0*
1,1,0.2125,0.5714,0.0000*
1,1,0.2125,0.5714,0.0000*
1,1,0.2125,-0.5714,0.0000*
1,1,0.2125,-0.5714,0.0000*
%
%ADD21ROUNDEDRECTD21*%
%ADD22R,1.5000X0.5500*%
%ADD23R,1.1430X2.0320*%
%ADD24R,0.8500X0.7000*%
%ADD25R,0.8500X0.7500*%
%ADD26R,0.4500X0.3500*%
G04:AMPARAMS|DCode=27|XSize=3.2mm|YSize=1.75mm|CornerRadius=0.0525mm|HoleSize=0mm|Usage=FLASHONLY|Rotation=0.000|XOffset=0mm|YOffset=0mm|HoleType=Round|Shape=RoundedRectangle|*
%AMROUNDEDRECTD27*
21,1,3.2000,1.6450,0,0,0.0*
21,1,3.0950,1.7500,0,0,0.0*
1,1,0.1050,1.5475,-0.8225*
1,1,0.1050,-1.5475,-0.8225*
1,1,0.1050,-1.5475,0.8225*
1,1,0.1050,1.5475,0.8225*
%
%ADD27ROUNDEDRECTD27*%
G04:AMPARAMS|DCode=28|XSize=0.9mm|YSize=1.75mm|CornerRadius=0.0495mm|HoleSize=0mm|Usage=FLASHONLY|Rotation=0.000|XOffset=0mm|YOffset=0mm|HoleType=Round|Shape=RoundedRectangle|*
%AMROUNDEDRECTD28*
21,1,0.9000,1.6510,0,0,0.0*
21,1,0.8010,1.7500,0,0,0.0*
1,1,0.0990,0.4005,-0.8255*
1,1,0.0990,-0.4005,-0.8255*
1,1,0.0990,-0.4005,0.8255*
1,1,0.0990,0.4005,0.8255*
%
%ADD28ROUNDEDRECTD28*%
%ADD29R,0.5000X0.3500*%
%ADD30R,1.0500X1.3000*%
%ADD31R,0.5750X1.1400*%
%ADD32R,0.8000X0.5000*%
%ADD33R,0.9779X0.3048*%
%ADD34R,0.9100X1.2200*%
%ADD35R,1.3051X1.1062*%
%ADD36R,0.7500X0.8500*%
%ADD37R,0.6000X1.2000*%
%ADD38R,1.1062X1.3051*%
%ADD39R,0.9000X0.7000*%
%ADD40R,0.5200X0.5200*%
%ADD41R,0.8621X0.7565*%
%ADD42R,0.7000X0.4200*%
%ADD43C,0.9698*%
%ADD44C,0.9900*%
%ADD45R,1.0500X1.1500*%
%ADD46R,0.5200X0.5200*%
G36*
X201050Y362250D02*
X212400D01*
Y361750D01*
X215400D01*
Y357750D01*
X212400D01*
Y355250D01*
X215400D01*
Y351250D01*
X212400D01*
Y348750D01*
X215400D01*
Y344750D01*
X212400D01*
Y342250D01*
X215400D01*
Y338250D01*
X212400D01*
Y337750D01*
X201050D01*
Y333950D01*
X196750D01*
Y337750D01*
X192600D01*
Y362250D01*
X196750D01*
Y366050D01*
X201050D01*
Y362250D01*
D02*
G37*
G36*
X156250D02*
X160400D01*
Y337750D01*
X156250D01*
Y333950D01*
X151950D01*
Y337750D01*
X140600D01*
Y338250D01*
X137600D01*
Y342250D01*
X140600D01*
Y344750D01*
X137600D01*
Y348750D01*
X140600D01*
Y351250D01*
X137600D01*
Y355250D01*
X140600D01*
Y357750D01*
X137600D01*
Y361750D01*
X140600D01*
Y362250D01*
X151950D01*
Y366050D01*
X156250D01*
Y362250D01*
D02*
G37*
G36*
X280000Y263500D02*
X273000D01*
X269000Y268500D01*
Y277000D01*
X280000D01*
Y263500D01*
D02*
G37*
G36*
X239000Y268500D02*
X235000Y263500D01*
X228000D01*
Y277000D01*
X239000D01*
Y268500D01*
D02*
G37*
G36*
X280000Y241000D02*
X269000D01*
Y249500D01*
X273000Y254500D01*
X280000D01*
Y241000D01*
D02*
G37*
G36*
X239000Y249500D02*
Y241000D01*
X228000D01*
Y254500D01*
X235000D01*
X239000Y249500D01*
D02*
G37*
D16*
X426000Y188250D02*
D03*
Y71750D02*
D03*
Y211750D02*
D03*
Y328250D02*
D03*
D17*
X402000Y175000D02*
D03*
Y165000D02*
D03*
Y155000D02*
D03*
Y145000D02*
D03*
Y135000D02*
D03*
Y125000D02*
D03*
Y115000D02*
D03*
Y105000D02*
D03*
Y95000D02*
D03*
Y85000D02*
D03*
X458000Y175000D02*
D03*
Y165000D02*
D03*
Y155000D02*
D03*
Y145000D02*
D03*
Y135000D02*
D03*
Y125000D02*
D03*
Y115000D02*
D03*
Y105000D02*
D03*
Y95000D02*
D03*
Y85000D02*
D03*
Y225000D02*
D03*
Y235000D02*
D03*
Y245000D02*
D03*
Y255000D02*
D03*
Y265000D02*
D03*
Y275000D02*
D03*
Y285000D02*
D03*
Y295000D02*
D03*
Y305000D02*
D03*
Y315000D02*
D03*
X402000Y225000D02*
D03*
Y235000D02*
D03*
Y245000D02*
D03*
Y255000D02*
D03*
Y265000D02*
D03*
Y275000D02*
D03*
Y285000D02*
D03*
Y295000D02*
D03*
Y305000D02*
D03*
Y315000D02*
D03*
D18*
X77345Y58000D02*
D03*
X86655D02*
D03*
X107655D02*
D03*
X98345D02*
D03*
D19*
X140000Y24245D02*
D03*
D20*
X145000D02*
D03*
X150000D02*
D03*
X155000D02*
D03*
X160000D02*
D03*
X165000D02*
D03*
X170000D02*
D03*
X175000D02*
D03*
X180000D02*
D03*
X185000D02*
D03*
X190000D02*
D03*
X195000D02*
D03*
X200000D02*
D03*
X205000D02*
D03*
X210000D02*
D03*
X215000D02*
D03*
X220000D02*
D03*
X225000D02*
D03*
X230000D02*
D03*
X235000D02*
D03*
X240000D02*
D03*
X245000D02*
D03*
X250000D02*
D03*
X255000D02*
D03*
X260000D02*
D03*
Y175755D02*
D03*
X255000D02*
D03*
X250000D02*
D03*
X245000D02*
D03*
X240000D02*
D03*
X235000D02*
D03*
X230000D02*
D03*
X225000D02*
D03*
X220000D02*
D03*
X215000D02*
D03*
X210000D02*
D03*
X205000D02*
D03*
X200000D02*
D03*
X195000D02*
D03*
X190000D02*
D03*
X185000D02*
D03*
X180000D02*
D03*
X175000D02*
D03*
X170000D02*
D03*
X165000D02*
D03*
X160000D02*
D03*
X155000D02*
D03*
X150000D02*
D03*
X145000D02*
D03*
X140000D02*
D03*
D21*
X275755Y40000D02*
D03*
Y45000D02*
D03*
Y50000D02*
D03*
Y55000D02*
D03*
Y60000D02*
D03*
Y65000D02*
D03*
Y70000D02*
D03*
Y75000D02*
D03*
Y80000D02*
D03*
Y85000D02*
D03*
Y90000D02*
D03*
Y95000D02*
D03*
Y100000D02*
D03*
Y105000D02*
D03*
Y110000D02*
D03*
Y115000D02*
D03*
Y120000D02*
D03*
Y125000D02*
D03*
Y130000D02*
D03*
Y135000D02*
D03*
Y140000D02*
D03*
Y145000D02*
D03*
Y150000D02*
D03*
Y155000D02*
D03*
Y160000D02*
D03*
X124245D02*
D03*
Y155000D02*
D03*
Y150000D02*
D03*
Y145000D02*
D03*
Y140000D02*
D03*
Y135000D02*
D03*
Y130000D02*
D03*
Y125000D02*
D03*
Y120000D02*
D03*
Y115000D02*
D03*
Y110000D02*
D03*
Y105000D02*
D03*
Y100000D02*
D03*
Y95000D02*
D03*
Y90000D02*
D03*
Y85000D02*
D03*
Y80000D02*
D03*
Y75000D02*
D03*
Y70000D02*
D03*
Y65000D02*
D03*
Y60000D02*
D03*
Y55000D02*
D03*
Y50000D02*
D03*
Y45000D02*
D03*
Y40000D02*
D03*
D22*
X410000Y46250D02*
D03*
Y13750D02*
D03*
X360000Y46250D02*
D03*
Y13750D02*
D03*
X70000Y44250D02*
D03*
Y11750D02*
D03*
D23*
X123335Y350000D02*
D03*
X96665D02*
D03*
D24*
X374000Y318750D02*
D03*
Y331250D02*
D03*
X374000Y283750D02*
D03*
Y296250D02*
D03*
X300000Y226250D02*
D03*
Y213750D02*
D03*
Y296250D02*
D03*
Y283750D02*
D03*
Y261250D02*
D03*
Y248750D02*
D03*
Y331250D02*
D03*
Y318750D02*
D03*
X374000Y248750D02*
D03*
Y261250D02*
D03*
X374000Y213750D02*
D03*
Y226250D02*
D03*
X300000Y121250D02*
D03*
Y108750D02*
D03*
Y191250D02*
D03*
Y178750D02*
D03*
Y86250D02*
D03*
Y73750D02*
D03*
Y156250D02*
D03*
Y143750D02*
D03*
X374000Y108750D02*
D03*
Y121250D02*
D03*
X374000Y143750D02*
D03*
Y156250D02*
D03*
X374000Y178750D02*
D03*
Y191250D02*
D03*
X374000Y73750D02*
D03*
Y86250D02*
D03*
X198000Y319250D02*
D03*
Y306750D02*
D03*
X141000Y319000D02*
D03*
Y306500D02*
D03*
D25*
X361000Y318500D02*
D03*
Y331500D02*
D03*
X361000Y283500D02*
D03*
Y296500D02*
D03*
X313000Y226500D02*
D03*
Y213500D02*
D03*
Y261500D02*
D03*
Y248500D02*
D03*
Y296500D02*
D03*
Y283500D02*
D03*
X361000Y213500D02*
D03*
Y226500D02*
D03*
X313000Y331500D02*
D03*
Y318500D02*
D03*
X361000Y248500D02*
D03*
Y261500D02*
D03*
X313000Y121500D02*
D03*
Y108500D02*
D03*
Y191500D02*
D03*
Y178500D02*
D03*
Y86500D02*
D03*
Y73500D02*
D03*
X361000Y108500D02*
D03*
Y121500D02*
D03*
X361000Y143500D02*
D03*
Y156500D02*
D03*
X361000Y178500D02*
D03*
Y191500D02*
D03*
X361000Y73500D02*
D03*
Y86500D02*
D03*
X313000Y156500D02*
D03*
Y143500D02*
D03*
X211000Y306500D02*
D03*
Y319500D02*
D03*
X154000Y306250D02*
D03*
Y319250D02*
D03*
D26*
X327250Y296500D02*
D03*
Y290000D02*
D03*
Y283500D02*
D03*
X346750D02*
D03*
Y290000D02*
D03*
Y296500D02*
D03*
X327250Y331500D02*
D03*
Y325000D02*
D03*
Y318500D02*
D03*
X346750D02*
D03*
Y325000D02*
D03*
Y331500D02*
D03*
X327250Y226500D02*
D03*
Y220000D02*
D03*
Y213500D02*
D03*
X346750D02*
D03*
Y220000D02*
D03*
Y226500D02*
D03*
X327250Y261500D02*
D03*
Y255000D02*
D03*
Y248500D02*
D03*
X346750D02*
D03*
Y255000D02*
D03*
Y261500D02*
D03*
X327250Y191500D02*
D03*
Y185000D02*
D03*
Y178500D02*
D03*
X346750D02*
D03*
Y185000D02*
D03*
Y191500D02*
D03*
X327250Y156500D02*
D03*
Y150000D02*
D03*
Y143500D02*
D03*
X346750D02*
D03*
Y150000D02*
D03*
Y156500D02*
D03*
X327250Y86500D02*
D03*
Y80000D02*
D03*
Y73500D02*
D03*
X346750D02*
D03*
Y80000D02*
D03*
Y86500D02*
D03*
X327250Y121500D02*
D03*
Y115000D02*
D03*
Y108500D02*
D03*
X346750D02*
D03*
Y115000D02*
D03*
Y121500D02*
D03*
D27*
X256000Y292750D02*
D03*
D28*
X233000Y355250D02*
D03*
X256000D02*
D03*
X279000D02*
D03*
D29*
X184900Y340250D02*
D03*
Y346750D02*
D03*
Y353250D02*
D03*
Y359750D02*
D03*
X168100D02*
D03*
Y353250D02*
D03*
Y346750D02*
D03*
Y340250D02*
D03*
D30*
X323750Y39500D02*
D03*
Y16500D02*
D03*
X306250D02*
D03*
Y39500D02*
D03*
D31*
X88875Y80000D02*
D03*
X97125D02*
D03*
D32*
X63000Y60500D02*
D03*
X47000D02*
D03*
X63000Y69500D02*
D03*
X47000D02*
D03*
X63000Y80500D02*
D03*
X47000D02*
D03*
X63000Y89500D02*
D03*
X47000D02*
D03*
D33*
X269431Y227004D02*
D03*
Y222003D02*
D03*
Y217001D02*
D03*
Y212000D02*
D03*
Y206999D02*
D03*
Y201998D02*
D03*
Y196996D02*
D03*
X238570D02*
D03*
Y201998D02*
D03*
Y206999D02*
D03*
Y212000D02*
D03*
Y217001D02*
D03*
Y222003D02*
D03*
Y227004D02*
D03*
D34*
X179000Y380000D02*
D03*
X211700D02*
D03*
D35*
X290006Y379000D02*
D03*
X273994D02*
D03*
X249006D02*
D03*
X232994D02*
D03*
D36*
X164000Y380000D02*
D03*
X151000D02*
D03*
D37*
X174000Y265000D02*
D03*
X165000Y291000D02*
D03*
X183000D02*
D03*
D38*
X142000Y269994D02*
D03*
Y286006D02*
D03*
X206000Y270994D02*
D03*
Y287006D02*
D03*
D39*
X185500Y312750D02*
D03*
X166500Y306250D02*
D03*
Y319250D02*
D03*
D40*
X187000Y242000D02*
D03*
Y250000D02*
D03*
Y212000D02*
D03*
Y220000D02*
D03*
D41*
X170000Y236491D02*
D03*
Y249509D02*
D03*
Y212491D02*
D03*
Y225509D02*
D03*
D42*
X156000Y231000D02*
D03*
X136000Y224500D02*
D03*
Y237500D02*
D03*
D43*
X233500Y270250D02*
D03*
X274500D02*
D03*
D44*
Y246500D02*
D03*
X233500D02*
D03*
D45*
X209000Y247500D02*
D03*
Y230500D02*
D03*
D46*
X191000Y231000D02*
D03*
X183000D02*
D03*
M02*
