G04*
G04 #@! TF.GenerationSoftware,Altium Limited,Altium Designer,24.4.1 (13)*
G04*
G04 Layer_Color=16711935*
%FSLAX44Y44*%
%MOMM*%
G71*
G04*
G04 #@! TF.SameCoordinates,6757478C-E6A1-41AE-BC66-293F91E3D7AC*
G04*
G04*
G04 #@! TF.FilePolarity,Negative*
G04*
G01*
G75*
%ADD40R,0.5200X0.5200*%
%ADD46R,0.5200X0.5200*%
%ADD47R,1.0000X0.8500*%
%ADD48R,1.0000X0.9000*%
%ADD54R,0.9000X1.0000*%
%ADD58R,1.4000X1.4000*%
%ADD59C,1.4000*%
G04:AMPARAMS|DCode=60|XSize=2.8mm|YSize=2mm|CornerRadius=1mm|HoleSize=0mm|Usage=FLASHONLY|Rotation=270.000|XOffset=0mm|YOffset=0mm|HoleType=Round|Shape=RoundedRectangle|*
%AMROUNDEDRECTD60*
21,1,2.8000,0.0000,0,0,270.0*
21,1,0.8000,2.0000,0,0,270.0*
1,1,2.0000,0.0000,-0.4000*
1,1,2.0000,0.0000,0.4000*
1,1,2.0000,0.0000,0.4000*
1,1,2.0000,0.0000,-0.4000*
%
%ADD60ROUNDEDRECTD60*%
%ADD61C,1.2100*%
%ADD62R,1.2100X1.2100*%
%ADD74R,1.0000X1.2500*%
%ADD75R,0.4000X0.8000*%
%ADD77R,0.4000X0.5000*%
%ADD78R,0.7154X0.6725*%
%ADD79R,0.5000X0.4000*%
%ADD80R,1.2000X1.0500*%
%ADD81R,0.9500X1.1000*%
%ADD82R,0.8500X1.0000*%
D40*
X227000Y199000D02*
D03*
Y207000D02*
D03*
X227001Y225001D02*
D03*
Y217001D02*
D03*
X142000Y70000D02*
D03*
Y62000D02*
D03*
X208000Y42000D02*
D03*
Y34000D02*
D03*
X360000Y22000D02*
D03*
Y14000D02*
D03*
X70000Y36250D02*
D03*
Y44250D02*
D03*
D46*
X273000Y211000D02*
D03*
X281000D02*
D03*
D47*
X385000Y159500D02*
D03*
Y172000D02*
D03*
Y128000D02*
D03*
Y140500D02*
D03*
Y118000D02*
D03*
Y105500D02*
D03*
Y312000D02*
D03*
Y299500D02*
D03*
Y245500D02*
D03*
Y258000D02*
D03*
Y280500D02*
D03*
Y268000D02*
D03*
D48*
X110150Y257250D02*
D03*
Y244250D02*
D03*
X110000Y281500D02*
D03*
Y268500D02*
D03*
X126000Y282000D02*
D03*
Y269000D02*
D03*
X142000Y282000D02*
D03*
Y269000D02*
D03*
Y245000D02*
D03*
Y258000D02*
D03*
X416000Y159500D02*
D03*
Y172500D02*
D03*
Y135500D02*
D03*
Y148500D02*
D03*
Y124500D02*
D03*
Y111500D02*
D03*
X416000Y312500D02*
D03*
Y299500D02*
D03*
Y251500D02*
D03*
Y264500D02*
D03*
Y275500D02*
D03*
Y288500D02*
D03*
X71000Y148000D02*
D03*
Y161000D02*
D03*
X360000Y33500D02*
D03*
Y46500D02*
D03*
X373000Y33500D02*
D03*
Y46500D02*
D03*
X410000Y33500D02*
D03*
Y46500D02*
D03*
D54*
X286500Y225000D02*
D03*
X273500D02*
D03*
X422000Y34000D02*
D03*
X435000D02*
D03*
D58*
X89000Y297500D02*
D03*
D59*
Y272500D02*
D03*
Y247500D02*
D03*
Y222500D02*
D03*
D60*
X24000Y260000D02*
D03*
D61*
X52700Y109600D02*
D03*
X40000D02*
D03*
X52700Y122300D02*
D03*
X40000D02*
D03*
X52700Y135000D02*
D03*
X40000D02*
D03*
X52700Y147700D02*
D03*
X40000D02*
D03*
X52700Y160400D02*
D03*
D62*
X40000D02*
D03*
D74*
X303750Y16500D02*
D03*
X323750D02*
D03*
X326250Y39500D02*
D03*
X306250D02*
D03*
D75*
X442500Y171500D02*
D03*
X436000D02*
D03*
X429500D02*
D03*
Y152500D02*
D03*
X436000D02*
D03*
X442500D02*
D03*
Y133500D02*
D03*
X436000D02*
D03*
X429500D02*
D03*
Y114500D02*
D03*
X436000D02*
D03*
X442500D02*
D03*
Y292500D02*
D03*
X436000D02*
D03*
X429500D02*
D03*
Y311500D02*
D03*
X436000D02*
D03*
X442500D02*
D03*
Y254500D02*
D03*
X436000D02*
D03*
X429500D02*
D03*
Y273500D02*
D03*
X436000D02*
D03*
X442500D02*
D03*
D77*
X250000Y158000D02*
D03*
X258000D02*
D03*
X250000Y42000D02*
D03*
X258000D02*
D03*
X158000Y158000D02*
D03*
X166000D02*
D03*
X150000D02*
D03*
X142000D02*
D03*
X158000Y145000D02*
D03*
X166000D02*
D03*
X150000Y42000D02*
D03*
X142000D02*
D03*
X158000D02*
D03*
X166000D02*
D03*
X250000Y132000D02*
D03*
X258000D02*
D03*
X250000Y145000D02*
D03*
X258000D02*
D03*
X218000Y42000D02*
D03*
X226000D02*
D03*
X190000Y56000D02*
D03*
X198000D02*
D03*
X242000Y42000D02*
D03*
X234000D02*
D03*
X198000D02*
D03*
X190000D02*
D03*
D78*
X222786Y56000D02*
D03*
X213214D02*
D03*
X237214D02*
D03*
X246786D02*
D03*
X166786D02*
D03*
X157214D02*
D03*
D79*
X230000Y77000D02*
D03*
Y69000D02*
D03*
D80*
X126000Y257750D02*
D03*
Y243250D02*
D03*
D81*
X89750Y85000D02*
D03*
X76250D02*
D03*
X89750Y57000D02*
D03*
X76250D02*
D03*
X89750Y71000D02*
D03*
X76250D02*
D03*
X441750Y94000D02*
D03*
X428250D02*
D03*
X423250Y230000D02*
D03*
X436750D02*
D03*
X89750Y99000D02*
D03*
X76250D02*
D03*
D82*
X286500Y197000D02*
D03*
X274000D02*
D03*
M02*
