G04*
G04 #@! TF.GenerationSoftware,Altium Limited,Altium Designer,24.4.1 (13)*
G04*
G04 Layer_Physical_Order=1*
G04 Layer_Color=255*
%FSLAX44Y44*%
%MOMM*%
G71*
G04*
G04 #@! TF.SameCoordinates,EA300020-20D2-4A69-A7C9-2FF48D3C62D3*
G04*
G04*
G04 #@! TF.FilePolarity,Positive*
G04*
G01*
G75*
%ADD12C,0.2000*%
%ADD16R,1.8000X0.8500*%
%ADD17R,1.6000X0.6000*%
%ADD18R,0.7811X0.7121*%
%ADD19R,0.2125X1.3552*%
G04:AMPARAMS|DCode=20|XSize=1.3552mm|YSize=0.2125mm|CornerRadius=0.1062mm|HoleSize=0mm|Usage=FLASHONLY|Rotation=90.000|XOffset=0mm|YOffset=0mm|HoleType=Round|Shape=RoundedRectangle|*
%AMROUNDEDRECTD20*
21,1,1.3552,0.0000,0,0,90.0*
21,1,1.1428,0.2125,0,0,90.0*
1,1,0.2125,0.0000,0.5714*
1,1,0.2125,0.0000,-0.5714*
1,1,0.2125,0.0000,-0.5714*
1,1,0.2125,0.0000,0.5714*
%
%ADD20ROUNDEDRECTD20*%
G04:AMPARAMS|DCode=21|XSize=0.2125mm|YSize=1.3552mm|CornerRadius=0.1062mm|HoleSize=0mm|Usage=FLASHONLY|Rotation=90.000|XOffset=0mm|YOffset=0mm|HoleType=Round|Shape=RoundedRectangle|*
%AMROUNDEDRECTD21*
21,1,0.2125,1.1428,0,0,90.0*
21,1,0.0000,1.3552,0,0,90.0*
1,1,0.2125,0.5714,0.0000*
1,1,0.2125,0.5714,0.0000*
1,1,0.2125,-0.5714,0.0000*
1,1,0.2125,-0.5714,0.0000*
%
%ADD21ROUNDEDRECTD21*%
%ADD22R,1.5000X0.5500*%
%ADD23R,1.1430X2.0320*%
%ADD24R,0.8500X0.7000*%
%ADD25R,0.8500X0.7500*%
%ADD26R,0.4500X0.3500*%
G04:AMPARAMS|DCode=27|XSize=3.2mm|YSize=1.75mm|CornerRadius=0.0525mm|HoleSize=0mm|Usage=FLASHONLY|Rotation=0.000|XOffset=0mm|YOffset=0mm|HoleType=Round|Shape=RoundedRectangle|*
%AMROUNDEDRECTD27*
21,1,3.2000,1.6450,0,0,0.0*
21,1,3.0950,1.7500,0,0,0.0*
1,1,0.1050,1.5475,-0.8225*
1,1,0.1050,-1.5475,-0.8225*
1,1,0.1050,-1.5475,0.8225*
1,1,0.1050,1.5475,0.8225*
%
%ADD27ROUNDEDRECTD27*%
G04:AMPARAMS|DCode=28|XSize=0.9mm|YSize=1.75mm|CornerRadius=0.0495mm|HoleSize=0mm|Usage=FLASHONLY|Rotation=0.000|XOffset=0mm|YOffset=0mm|HoleType=Round|Shape=RoundedRectangle|*
%AMROUNDEDRECTD28*
21,1,0.9000,1.6510,0,0,0.0*
21,1,0.8010,1.7500,0,0,0.0*
1,1,0.0990,0.4005,-0.8255*
1,1,0.0990,-0.4005,-0.8255*
1,1,0.0990,-0.4005,0.8255*
1,1,0.0990,0.4005,0.8255*
%
%ADD28ROUNDEDRECTD28*%
%ADD29R,0.5000X0.3500*%
%ADD30R,1.0500X1.3000*%
%ADD31R,0.5750X1.1400*%
%ADD32R,0.8000X0.5000*%
%ADD33R,0.9779X0.3048*%
%ADD34R,0.9100X1.2200*%
%ADD35R,1.3051X1.1062*%
%ADD36R,0.7500X0.8500*%
%ADD37R,0.6000X1.2000*%
%ADD38R,1.1062X1.3051*%
%ADD39R,0.9000X0.7000*%
%ADD40R,0.5200X0.5200*%
%ADD41R,0.8621X0.7565*%
%ADD42R,0.7000X0.4200*%
%ADD43C,0.9698*%
%ADD44C,0.9900*%
%ADD45R,1.0500X1.1500*%
%ADD46R,0.5200X0.5200*%
%ADD58R,1.4000X1.4000*%
%ADD59C,1.4000*%
G04:AMPARAMS|DCode=60|XSize=2.8mm|YSize=2mm|CornerRadius=1mm|HoleSize=0mm|Usage=FLASHONLY|Rotation=270.000|XOffset=0mm|YOffset=0mm|HoleType=Round|Shape=RoundedRectangle|*
%AMROUNDEDRECTD60*
21,1,2.8000,0.0000,0,0,270.0*
21,1,0.8000,2.0000,0,0,270.0*
1,1,2.0000,0.0000,-0.4000*
1,1,2.0000,0.0000,0.4000*
1,1,2.0000,0.0000,0.4000*
1,1,2.0000,0.0000,-0.4000*
%
%ADD60ROUNDEDRECTD60*%
%AMCUSTOMSHAPE64*
4,1,28,-1.1400,1.2250,-0.7250,1.2250,-0.7250,1.6050,-0.2950,1.6050,-0.2950,1.2250,0.8400,1.2250,0.8400,1.1750,1.1400,1.1750,1.1400,0.7750,0.8400,0.7750,0.8400,0.5250,1.1400,0.5250,1.1400,0.1250,0.8400,0.1250,0.8400,-0.1250,1.1400,-0.1250,1.1400,-0.5250,0.8400,-0.5250,0.8400,-0.7750,1.1400,-0.7750,1.1400,-1.1750,0.8400,-1.1750,0.8400,-1.2250,-0.2950,-1.2250,-0.2950,-1.6050,-0.7250,-1.6050,-0.7250,-1.2250,-1.1400,-1.2250,-1.1400,1.2250,0.0*%
%ADD64CUSTOMSHAPE64*%

%AMCUSTOMSHAPE65*
4,1,28,1.1400,-1.2250,0.7250,-1.2250,0.7250,-1.6050,0.2950,-1.6050,0.2950,-1.2250,-0.8400,-1.2250,-0.8400,-1.1750,-1.1400,-1.1750,-1.1400,-0.7750,-0.8400,-0.7750,-0.8400,-0.5250,-1.1400,-0.5250,-1.1400,-0.1250,-0.8400,-0.1250,-0.8400,0.1250,-1.1400,0.1250,-1.1400,0.5250,-0.8400,0.5250,-0.8400,0.7750,-1.1400,0.7750,-1.1400,1.1750,-0.8400,1.1750,-0.8400,1.2250,0.2950,1.2250,0.2950,1.6050,0.7250,1.6050,0.7250,1.2250,1.1400,1.2250,1.1400,-1.2250,0.0*%
%ADD65CUSTOMSHAPE65*%

%ADD66C,1.0000*%
%ADD67C,0.3000*%
%ADD68C,1.0600*%
%ADD69R,1.0600X1.0600*%
%ADD70C,0.5000*%
%ADD71C,1.0000*%
%ADD72C,4.0000*%
G36*
X475467Y397482D02*
X479007Y396534D01*
X482393Y395131D01*
X485568Y393299D01*
X488475Y391067D01*
X491067Y388475D01*
X493299Y385568D01*
X495131Y382393D01*
X496534Y379007D01*
X497482Y375467D01*
X497961Y371833D01*
Y370000D01*
Y30000D01*
Y28167D01*
X497482Y24533D01*
X496534Y20993D01*
X495131Y17607D01*
X493299Y14432D01*
X491067Y11525D01*
X488475Y8933D01*
X485568Y6701D01*
X482393Y4869D01*
X479007Y3466D01*
X475467Y2517D01*
X471833Y2039D01*
X271007D01*
X270481Y3309D01*
X290133Y22961D01*
X299984D01*
Y17008D01*
X306250D01*
X312516D01*
Y23610D01*
X314983D01*
X317484Y21109D01*
Y8984D01*
X330016D01*
Y24016D01*
X320391D01*
X317288Y27119D01*
X316621Y27565D01*
X315834Y27721D01*
X315834Y27721D01*
X313597D01*
X313401Y27850D01*
X312653Y28991D01*
X312695Y29204D01*
X312695Y29204D01*
Y31204D01*
X312556Y31905D01*
Y35250D01*
X312516Y35449D01*
Y47016D01*
X299984D01*
Y31984D01*
X307343D01*
X307733Y31562D01*
X307793Y31254D01*
X306849Y30087D01*
X288032D01*
X288032Y30087D01*
X287245Y29931D01*
X286579Y29485D01*
X286579Y29485D01*
X266149Y9056D01*
X262372D01*
X261636Y10325D01*
X262000Y11204D01*
Y12796D01*
X261391Y14266D01*
X260450Y15207D01*
X260535Y16037D01*
X260754Y16562D01*
X260811Y16574D01*
X261498Y17033D01*
X261958Y17720D01*
X262119Y18531D01*
Y29959D01*
X261958Y30770D01*
X261498Y31457D01*
X260811Y31917D01*
X260000Y32078D01*
X259189Y31917D01*
X258502Y31457D01*
X258204Y31013D01*
X257620Y30899D01*
X257380D01*
X256796Y31013D01*
X256498Y31457D01*
X255811Y31917D01*
X255000Y32078D01*
X254189Y31917D01*
X253502Y31457D01*
X253204Y31013D01*
X252620Y30899D01*
X252380D01*
X251796Y31013D01*
X251498Y31457D01*
X250811Y31917D01*
X250000Y32078D01*
X249189Y31917D01*
X248502Y31457D01*
X248204Y31013D01*
X247620Y30899D01*
X247380D01*
X246796Y31013D01*
X246498Y31457D01*
X245811Y31917D01*
X245000Y32078D01*
X244189Y31917D01*
X243502Y31457D01*
X243326Y31194D01*
X242055Y31579D01*
Y36000D01*
X242055Y36000D01*
X241899Y36787D01*
X241453Y37453D01*
X241453Y37453D01*
X237913Y40994D01*
X238000Y41204D01*
Y42796D01*
X237391Y44266D01*
X236266Y45391D01*
X234796Y46000D01*
X233204D01*
X231734Y45391D01*
X230720Y44377D01*
X230000Y44317D01*
X229280Y44377D01*
X228266Y45391D01*
X226796Y46000D01*
X225204D01*
X223734Y45391D01*
X222609Y44266D01*
X222000Y42796D01*
Y41204D01*
X222609Y39734D01*
X223734Y38609D01*
X225204Y38000D01*
X226796D01*
X227006Y38087D01*
X232363Y32730D01*
X232280Y32399D01*
X230845Y31894D01*
X230811Y31917D01*
X230508Y31977D01*
Y24245D01*
Y16513D01*
X230811Y16574D01*
X231498Y17033D01*
X231796Y17478D01*
X232380Y17592D01*
X232620D01*
X233204Y17478D01*
X233502Y17033D01*
X234189Y16574D01*
X235000Y16412D01*
X235811Y16574D01*
X236498Y17033D01*
X236796Y17478D01*
X237380Y17592D01*
X237620D01*
X238204Y17478D01*
X238502Y17033D01*
X239189Y16574D01*
X239246Y16562D01*
X239465Y16037D01*
X239550Y15207D01*
X238609Y14266D01*
X238000Y12796D01*
Y11204D01*
X238364Y10325D01*
X237628Y9056D01*
X207328D01*
X201063Y15320D01*
Y16654D01*
X201329Y16920D01*
X201498Y17033D01*
X201796Y17478D01*
X202380Y17592D01*
X202620D01*
X203204Y17478D01*
X203502Y17033D01*
X204189Y16574D01*
X205000Y16412D01*
X205811Y16574D01*
X206498Y17033D01*
X206796Y17478D01*
X207380Y17592D01*
X207620D01*
X208204Y17478D01*
X208502Y17033D01*
X209189Y16574D01*
X210000Y16412D01*
X210811Y16574D01*
X211498Y17033D01*
X211796Y17478D01*
X212380Y17592D01*
X212620D01*
X213204Y17478D01*
X213502Y17033D01*
X214189Y16574D01*
X215000Y16412D01*
X215811Y16574D01*
X216498Y17033D01*
X216796Y17478D01*
X217380Y17592D01*
X217620D01*
X218204Y17478D01*
X218502Y17033D01*
X219189Y16574D01*
X220000Y16412D01*
X220811Y16574D01*
X221498Y17033D01*
X221796Y17478D01*
X222380Y17592D01*
X222620D01*
X223204Y17478D01*
X223502Y17033D01*
X224189Y16574D01*
X225000Y16412D01*
X225811Y16574D01*
X226498Y17033D01*
X226796Y17478D01*
X227380Y17592D01*
X227620D01*
X228204Y17478D01*
X228502Y17033D01*
X229189Y16574D01*
X229492Y16513D01*
Y24245D01*
Y31977D01*
X229189Y31917D01*
X228502Y31457D01*
X228204Y31013D01*
X227620Y30899D01*
X227380D01*
X226796Y31013D01*
X226498Y31457D01*
X225811Y31917D01*
X225000Y32078D01*
X224189Y31917D01*
X223502Y31457D01*
X223204Y31013D01*
X222620Y30899D01*
X222380D01*
X221796Y31013D01*
X221498Y31457D01*
X220811Y31917D01*
X220000Y32078D01*
X219189Y31917D01*
X218502Y31457D01*
X218204Y31013D01*
X217620Y30899D01*
X217380D01*
X216796Y31013D01*
X216498Y31457D01*
X215811Y31917D01*
X215000Y32078D01*
X214189Y31917D01*
X213502Y31457D01*
X213204Y31013D01*
X212620Y30899D01*
X212380D01*
X211796Y31013D01*
X211498Y31457D01*
X210811Y31917D01*
X210000Y32078D01*
X209189Y31917D01*
X208502Y31457D01*
X208326Y31194D01*
X207055Y31579D01*
Y37337D01*
X207719Y38000D01*
X208796D01*
X210266Y38609D01*
X211391Y39734D01*
X212000Y41204D01*
Y42796D01*
X211391Y44266D01*
X210266Y45391D01*
X208796Y46000D01*
X207204D01*
X205734Y45391D01*
X204609Y44266D01*
X204000Y42796D01*
Y41204D01*
X204325Y40420D01*
X203547Y39642D01*
X203101Y38975D01*
X202945Y38188D01*
X202945Y38188D01*
Y31579D01*
X201674Y31194D01*
X201498Y31457D01*
X200811Y31917D01*
X200000Y32078D01*
X199189Y31917D01*
X198502Y31457D01*
X198204Y31013D01*
X197620Y30899D01*
X197380D01*
X196796Y31013D01*
X196498Y31457D01*
X195811Y31917D01*
X195000Y32078D01*
X194189Y31917D01*
X193502Y31457D01*
X193326Y31194D01*
X192055Y31579D01*
Y38522D01*
X192266Y38609D01*
X193391Y39734D01*
X194000Y41204D01*
Y42796D01*
X193391Y44266D01*
X192266Y45391D01*
X190796Y46000D01*
X189204D01*
X187734Y45391D01*
X186609Y44266D01*
X186000Y42796D01*
Y41204D01*
X186609Y39734D01*
X187734Y38609D01*
X187945Y38522D01*
Y31579D01*
X186674Y31194D01*
X186498Y31457D01*
X185811Y31917D01*
X185508Y31977D01*
Y24245D01*
Y16513D01*
X185811Y16574D01*
X186498Y17033D01*
X186796Y17478D01*
X187380Y17592D01*
X187620D01*
X188204Y17478D01*
X188502Y17033D01*
X189189Y16574D01*
X190000Y16412D01*
X190811Y16574D01*
X191498Y17033D01*
X191796Y17478D01*
X192380Y17592D01*
X192620D01*
X193204Y17478D01*
X193502Y17033D01*
X193671Y16920D01*
X193937Y16654D01*
Y13220D01*
X193937Y13220D01*
X194093Y12433D01*
X194538Y11766D01*
X202996Y3309D01*
X202470Y2039D01*
X28167D01*
X24533Y2517D01*
X20993Y3466D01*
X17607Y4869D01*
X14432Y6701D01*
X11525Y8933D01*
X8933Y11525D01*
X6701Y14432D01*
X4869Y17607D01*
X3466Y20993D01*
X2517Y24533D01*
X2039Y28167D01*
Y30000D01*
Y370000D01*
Y371833D01*
X2517Y375467D01*
X3466Y379007D01*
X4869Y382393D01*
X6701Y385568D01*
X8933Y388475D01*
X11525Y391067D01*
X14432Y393299D01*
X17607Y395131D01*
X20993Y396534D01*
X24533Y397482D01*
X28167Y397961D01*
X471833D01*
X475467Y397482D01*
D02*
G37*
%LPC*%
G36*
X217266Y387116D02*
X206134D01*
Y382056D01*
X199000D01*
X199000Y382056D01*
X198213Y381899D01*
X197547Y381454D01*
X197251Y381157D01*
X196000Y381703D01*
Y382796D01*
X195391Y384266D01*
X194266Y385391D01*
X192796Y386000D01*
X191204D01*
X189734Y385391D01*
X188609Y384266D01*
X188000Y382796D01*
Y381204D01*
X188609Y379734D01*
X189734Y378609D01*
X191204Y378000D01*
X192297D01*
X192843Y376749D01*
X183447Y367354D01*
X183001Y366687D01*
X182845Y365900D01*
X182845Y365900D01*
Y362516D01*
X181384D01*
Y362040D01*
X181128Y361934D01*
X180854Y361904D01*
X172886Y357515D01*
X171616Y358265D01*
Y362516D01*
X170156D01*
Y375400D01*
X170156Y375400D01*
X169999Y376187D01*
X169673Y376674D01*
X169856Y377323D01*
X170259Y377944D01*
X173434D01*
Y372884D01*
X184566D01*
Y387116D01*
X173434D01*
Y382056D01*
X168766D01*
Y385266D01*
X159234D01*
Y374734D01*
X165859D01*
X166045Y374549D01*
Y362516D01*
X164584D01*
Y357286D01*
X164584Y356984D01*
Y356016D01*
X164584Y355714D01*
Y350686D01*
X164500Y350484D01*
Y349516D01*
X164584Y349314D01*
Y344186D01*
X164500Y343984D01*
Y343016D01*
X164584Y342814D01*
Y337484D01*
X171616D01*
Y337960D01*
X171872Y338066D01*
X172147Y338096D01*
X180114Y342485D01*
X181384Y341735D01*
Y337484D01*
X182845D01*
Y331600D01*
X182845Y331600D01*
X183001Y330813D01*
X183447Y330146D01*
X192734Y320859D01*
Y314734D01*
X203266D01*
Y322031D01*
X204536Y322557D01*
X205734Y321359D01*
Y314734D01*
X216266D01*
Y324266D01*
X208641D01*
X206453Y326454D01*
X205787Y326899D01*
X205000Y327056D01*
X205000Y327056D01*
X196851D01*
X192055Y331852D01*
Y336286D01*
X192600Y336650D01*
X195650D01*
Y333950D01*
X195972Y333172D01*
X196750Y332850D01*
X201050D01*
X201828Y333172D01*
X202150Y333950D01*
Y336650D01*
X212400D01*
X213178Y336972D01*
X213251Y337150D01*
X215400D01*
X216178Y337472D01*
X216500Y338250D01*
Y338839D01*
X216749Y338942D01*
X217018Y338969D01*
X222777Y342043D01*
X223866Y341390D01*
Y300541D01*
X217990Y294665D01*
X206531D01*
X205938Y294547D01*
X199453D01*
Y293139D01*
X190535D01*
X188337Y295337D01*
X187016Y296220D01*
Y298016D01*
X178984D01*
Y295552D01*
X178663Y295337D01*
X177333Y293347D01*
X176866Y291000D01*
X177333Y288653D01*
X178663Y286663D01*
X178984Y286448D01*
Y283984D01*
X182341D01*
X183657Y282668D01*
X185647Y281339D01*
X187994Y280872D01*
X198555D01*
X199453Y279974D01*
X199453Y278536D01*
X199453Y278194D01*
Y271502D01*
X206000D01*
X212547D01*
Y278194D01*
X212547Y278536D01*
Y279464D01*
X212547Y279806D01*
Y282397D01*
X220531D01*
X222878Y282864D01*
X224868Y284194D01*
X234337Y293663D01*
X235667Y295653D01*
X236134Y298000D01*
Y345359D01*
X237005D01*
X238161Y345839D01*
X238640Y346995D01*
Y352863D01*
X238667Y352903D01*
X239134Y355250D01*
X239131Y355264D01*
Y371555D01*
X240029Y372453D01*
X241464Y372453D01*
X241806Y372453D01*
X248498D01*
Y379000D01*
Y385547D01*
X241806D01*
X241464Y385547D01*
X240536D01*
X240194Y385547D01*
X225453D01*
Y372453D01*
X226863D01*
Y364900D01*
X222394Y364423D01*
X215820Y363721D01*
X215677Y363644D01*
X215515Y363644D01*
X215321Y363450D01*
X215081Y363318D01*
X215035Y363163D01*
X214920Y363048D01*
X213732Y362850D01*
X213251D01*
X213178Y363028D01*
X212400Y363350D01*
X202150D01*
Y366050D01*
X201828Y366828D01*
X201050Y367150D01*
X196750D01*
X195972Y366828D01*
X195650Y366050D01*
Y363350D01*
X192600D01*
X191822Y363028D01*
X191500Y362250D01*
Y348210D01*
X190445Y347710D01*
X190230Y347667D01*
X189615Y348078D01*
X188968Y348206D01*
X188667Y348850D01*
X188495Y349504D01*
X188500Y349516D01*
Y350484D01*
X188416Y350686D01*
Y355814D01*
X188500Y356016D01*
Y356984D01*
X188416Y357186D01*
Y362516D01*
X186956D01*
Y365049D01*
X199851Y377944D01*
X206134D01*
Y372884D01*
X217266D01*
Y387116D01*
D02*
G37*
G36*
X155766Y385266D02*
X151508D01*
Y380508D01*
X155766D01*
Y385266D01*
D02*
G37*
G36*
X150492D02*
X146234D01*
Y380508D01*
X150492D01*
Y385266D01*
D02*
G37*
G36*
X290514Y385547D02*
Y379508D01*
X297547D01*
Y385547D01*
X290514D01*
D02*
G37*
G36*
X249514D02*
Y379508D01*
X256547D01*
Y385547D01*
X249514D01*
D02*
G37*
G36*
X155766Y379492D02*
X151508D01*
Y374734D01*
X155766D01*
Y379492D01*
D02*
G37*
G36*
X150492D02*
X146234D01*
Y374734D01*
X150492D01*
Y379492D01*
D02*
G37*
G36*
X282464Y385547D02*
X281536D01*
X281194Y385547D01*
X266453D01*
Y381128D01*
X257817Y372492D01*
X256547Y373018D01*
X256547Y373489D01*
Y378492D01*
X249514D01*
Y372453D01*
X255452D01*
X255982Y372453D01*
X256508Y371183D01*
X252163Y366837D01*
X250833Y364847D01*
X250757Y364464D01*
X250359Y363505D01*
Y357637D01*
X250333Y357597D01*
X249866Y355250D01*
Y302643D01*
X240525D01*
X239346Y302154D01*
X238857Y300975D01*
Y284525D01*
X239346Y283346D01*
X240525Y282857D01*
X271475D01*
X272654Y283346D01*
X273143Y284525D01*
Y300975D01*
X272654Y302154D01*
X271475Y302643D01*
X262134D01*
Y355250D01*
X261667Y357597D01*
X261640Y357637D01*
Y358966D01*
X275128Y372453D01*
X281194D01*
X281536Y372453D01*
X282464D01*
X282806Y372453D01*
X289498D01*
Y379000D01*
Y385547D01*
X282806D01*
X282464Y385547D01*
D02*
G37*
G36*
X297547Y378492D02*
X290514D01*
Y372453D01*
X297547D01*
Y378492D01*
D02*
G37*
G36*
X130796Y377250D02*
X129204D01*
X127734Y376641D01*
X126609Y375516D01*
X126000Y374046D01*
Y372454D01*
X126609Y370984D01*
X127734Y369859D01*
X129204Y369250D01*
X130796D01*
X132266Y369859D01*
X133391Y370984D01*
X134000Y372454D01*
Y374046D01*
X133391Y375516D01*
X132266Y376641D01*
X130796Y377250D01*
D02*
G37*
G36*
X80796Y377250D02*
X79204D01*
X77734Y376641D01*
X76609Y375516D01*
X76000Y374046D01*
Y372454D01*
X76609Y370984D01*
X77734Y369859D01*
X79204Y369250D01*
X80796D01*
X82266Y369859D01*
X83391Y370984D01*
X84000Y372454D01*
Y374046D01*
X83391Y375516D01*
X82266Y376641D01*
X80796Y377250D01*
D02*
G37*
G36*
X156250Y367150D02*
X151950D01*
X151172Y366828D01*
X150850Y366050D01*
Y363350D01*
X140600D01*
X139822Y363028D01*
X139749Y362850D01*
X137600D01*
X136822Y362528D01*
X136804Y362482D01*
X136500Y362608D01*
X136405Y362568D01*
X136305Y362590D01*
X129870Y361426D01*
X129593Y361248D01*
X129420Y361176D01*
X116604D01*
Y338824D01*
X129420D01*
X129593Y338752D01*
X129870Y338574D01*
X136305Y337410D01*
X136405Y337432D01*
X136500Y337392D01*
X136804Y337518D01*
X136822Y337472D01*
X137600Y337150D01*
X139749D01*
X139822Y336972D01*
X140600Y336650D01*
X150850D01*
Y333950D01*
X151172Y333172D01*
X151950Y332850D01*
X156250D01*
X157028Y333172D01*
X157350Y333950D01*
Y336650D01*
X160400D01*
X161178Y336972D01*
X161500Y337750D01*
Y362250D01*
X161178Y363028D01*
X160400Y363350D01*
X157350D01*
Y366050D01*
X157028Y366828D01*
X156250Y367150D01*
D02*
G37*
G36*
X283005Y365140D02*
X279508D01*
Y355758D01*
X284641D01*
Y363505D01*
X284161Y364661D01*
X283005Y365140D01*
D02*
G37*
G36*
X278492D02*
X274995D01*
X273839Y364661D01*
X273360Y363505D01*
Y355758D01*
X278492D01*
Y365140D01*
D02*
G37*
G36*
X284641Y354742D02*
X279508D01*
Y345359D01*
X283005D01*
X284161Y345839D01*
X284641Y346995D01*
Y354742D01*
D02*
G37*
G36*
X278492D02*
X273360D01*
Y346995D01*
X273839Y345839D01*
X274995Y345359D01*
X278492D01*
Y354742D01*
D02*
G37*
G36*
X130796Y331500D02*
X129204D01*
X127734Y330891D01*
X127073Y330230D01*
X126250Y329907D01*
X125427Y330230D01*
X124766Y330891D01*
X123296Y331500D01*
X121704D01*
X120234Y330891D01*
X119573Y330230D01*
X118750Y329907D01*
X117927Y330230D01*
X117266Y330891D01*
X115796Y331500D01*
X114204D01*
X112734Y330891D01*
X111609Y329766D01*
X111000Y328296D01*
Y326704D01*
X111609Y325234D01*
X112734Y324109D01*
X114204Y323500D01*
X115796D01*
X117266Y324109D01*
X117927Y324770D01*
X118750Y325093D01*
X119573Y324770D01*
X120234Y324109D01*
X121704Y323500D01*
X123296D01*
X124766Y324109D01*
X125427Y324770D01*
X126250Y325093D01*
X127073Y324770D01*
X127734Y324109D01*
X129204Y323500D01*
X130796D01*
X132266Y324109D01*
X133391Y325234D01*
X134000Y326704D01*
Y328296D01*
X133391Y329766D01*
X132266Y330891D01*
X130796Y331500D01*
D02*
G37*
G36*
X425492Y333516D02*
X415984D01*
Y328758D01*
X425492D01*
Y333516D01*
D02*
G37*
G36*
X305266Y335766D02*
X294734D01*
Y326734D01*
X305266D01*
Y335766D01*
D02*
G37*
G36*
X436016Y327742D02*
X426508D01*
Y322984D01*
X436016D01*
Y327742D01*
D02*
G37*
G36*
X425492D02*
X415984D01*
Y322984D01*
X425492D01*
Y327742D01*
D02*
G37*
G36*
X159266Y324016D02*
X148734D01*
Y321055D01*
X146266D01*
Y323516D01*
X135734D01*
Y314484D01*
X146266D01*
Y316945D01*
X148734D01*
Y314484D01*
X159266D01*
Y316945D01*
X160984D01*
Y314734D01*
X172016D01*
Y323766D01*
X160984D01*
Y321055D01*
X159266D01*
Y324016D01*
D02*
G37*
G36*
X467016Y319016D02*
X448984D01*
Y310984D01*
X467016D01*
Y319016D01*
D02*
G37*
G36*
X159266Y311016D02*
X154508D01*
Y306758D01*
X159266D01*
Y311016D01*
D02*
G37*
G36*
X153492D02*
X148734D01*
Y306758D01*
X153492D01*
Y311016D01*
D02*
G37*
G36*
X172016Y310766D02*
X167008D01*
Y306758D01*
X172016D01*
Y310766D01*
D02*
G37*
G36*
X165992D02*
X160984D01*
Y306758D01*
X165992D01*
Y310766D01*
D02*
G37*
G36*
X411016Y309016D02*
X402508D01*
Y305508D01*
X411016D01*
Y309016D01*
D02*
G37*
G36*
X401492D02*
X392984D01*
Y305508D01*
X401492D01*
Y309016D01*
D02*
G37*
G36*
X146266Y311016D02*
X135734D01*
Y301984D01*
X146266D01*
Y311016D01*
D02*
G37*
G36*
X172016Y305742D02*
X167008D01*
Y301734D01*
X172016D01*
Y305742D01*
D02*
G37*
G36*
X165992D02*
X160984D01*
Y301734D01*
X165992D01*
Y305742D01*
D02*
G37*
G36*
X191016Y317266D02*
X179984D01*
Y308234D01*
X187254D01*
X187547Y307796D01*
X190047Y305297D01*
X190047Y305296D01*
X190713Y304851D01*
X191500Y304694D01*
X191500Y304694D01*
X192734D01*
Y302234D01*
X203266D01*
Y304445D01*
X205734D01*
Y301734D01*
X216266D01*
Y311266D01*
X205734D01*
Y308556D01*
X203266D01*
Y311266D01*
X192734D01*
Y311152D01*
X192613Y310994D01*
X191464Y310488D01*
X191016Y310882D01*
Y317266D01*
D02*
G37*
G36*
X159266Y305742D02*
X154508D01*
Y301484D01*
X159266D01*
Y305742D01*
D02*
G37*
G36*
X153492D02*
X148734D01*
Y301484D01*
X153492D01*
Y305742D01*
D02*
G37*
G36*
X467016Y309016D02*
X448984D01*
Y300984D01*
X467016D01*
Y309016D01*
D02*
G37*
G36*
X411016Y304492D02*
X402508D01*
Y300984D01*
X411016D01*
Y304492D01*
D02*
G37*
G36*
X401492D02*
X392984D01*
Y300984D01*
X401492D01*
Y304492D01*
D02*
G37*
G36*
X385796Y303500D02*
X384204D01*
X382734Y302891D01*
X381609Y301766D01*
X381000Y300296D01*
Y298704D01*
X381609Y297234D01*
X382734Y296109D01*
X384204Y295500D01*
X385796D01*
X387266Y296109D01*
X388391Y297234D01*
X389000Y298704D01*
Y300296D01*
X388391Y301766D01*
X387266Y302891D01*
X385796Y303500D01*
D02*
G37*
G36*
X169016Y298016D02*
X160984D01*
Y296220D01*
X159663Y295337D01*
X156465Y292139D01*
X148547D01*
Y293547D01*
X135453D01*
Y278806D01*
X135453Y278464D01*
Y277536D01*
X135453Y277194D01*
Y270502D01*
X142000D01*
X148547D01*
Y277194D01*
X148547Y277536D01*
Y278602D01*
X149039Y279872D01*
X159006D01*
X161353Y280339D01*
X163343Y281668D01*
X165659Y283984D01*
X169016D01*
Y286448D01*
X169337Y286663D01*
X170667Y288653D01*
X171134Y291000D01*
X170667Y293347D01*
X169337Y295337D01*
X169016Y295552D01*
Y298016D01*
D02*
G37*
G36*
X347546Y302250D02*
X345954D01*
X344484Y301641D01*
X343359Y300516D01*
X342750Y299046D01*
Y297454D01*
X343359Y295984D01*
X343484Y295859D01*
Y294036D01*
X343484Y293734D01*
Y292766D01*
X343484Y292464D01*
Y287536D01*
X343484Y287234D01*
Y286266D01*
X343484Y285964D01*
Y280734D01*
X350016D01*
Y280935D01*
X355734D01*
Y278734D01*
X366266D01*
Y288266D01*
X355734D01*
Y286065D01*
X351396D01*
X350701Y287335D01*
X351024Y287839D01*
X351232Y287880D01*
X352064Y288436D01*
X354727Y291099D01*
X355734Y291734D01*
X366266D01*
Y293810D01*
X368734D01*
Y291734D01*
X379266D01*
Y300766D01*
X368734D01*
Y298940D01*
X366266D01*
Y301266D01*
X355734D01*
Y297133D01*
X354568D01*
X353586Y296938D01*
X352754Y296382D01*
X352038Y295666D01*
X350592Y296016D01*
X350402Y296613D01*
X350750Y297454D01*
Y299046D01*
X350141Y300516D01*
X349016Y301641D01*
X347546Y302250D01*
D02*
G37*
G36*
X305266Y300766D02*
X294734D01*
Y291734D01*
X305266D01*
Y300766D01*
D02*
G37*
G36*
X434000Y342565D02*
X355750D01*
X354768Y342370D01*
X353936Y341814D01*
X346388Y334266D01*
X343484D01*
Y329036D01*
X343484Y328734D01*
Y327766D01*
X343484Y327464D01*
Y322234D01*
X343484D01*
Y321266D01*
X343484D01*
Y317190D01*
X342214Y316664D01*
X338564Y320314D01*
X337732Y320870D01*
X336750Y321065D01*
X330760D01*
X330516Y322234D01*
X330516Y322536D01*
Y327464D01*
X330516Y327766D01*
Y328734D01*
X330516Y329036D01*
Y334266D01*
X323984D01*
Y334065D01*
X318266D01*
Y336266D01*
X307734D01*
Y326734D01*
X318266D01*
Y328935D01*
X322604D01*
X323299Y327665D01*
X322976Y327161D01*
X322768Y327120D01*
X321936Y326564D01*
X319273Y323901D01*
X318266Y323266D01*
X307734D01*
Y321190D01*
X305266D01*
Y323266D01*
X294734D01*
Y314234D01*
X305266D01*
Y316060D01*
X307734D01*
Y313734D01*
X318266D01*
Y317867D01*
X319432D01*
X320414Y318062D01*
X321246Y318618D01*
X322714Y320086D01*
X323984Y319560D01*
Y315734D01*
X330516D01*
Y315935D01*
X335687D01*
X344436Y307186D01*
X345268Y306630D01*
X346250Y306435D01*
X377000D01*
X377982Y306630D01*
X378814Y307186D01*
X392063Y320435D01*
X407910D01*
X408009Y320286D01*
X407330Y319016D01*
X392984D01*
Y310984D01*
X411016D01*
Y316697D01*
X412189Y317183D01*
X428435Y300937D01*
Y290000D01*
X428630Y289018D01*
X429186Y288186D01*
X437186Y280186D01*
X438018Y279630D01*
X439000Y279435D01*
X447887D01*
X448984Y279016D01*
X448984Y278165D01*
Y270984D01*
X467016D01*
Y279016D01*
X452639D01*
X452143Y280201D01*
X452869Y280984D01*
X467016D01*
Y289016D01*
X448984D01*
Y284612D01*
X448937Y284565D01*
X446018D01*
X445492Y285835D01*
X445891Y286234D01*
X446500Y287704D01*
Y289296D01*
X445891Y290766D01*
X444766Y291891D01*
X443296Y292500D01*
X441704D01*
X440234Y291891D01*
X439109Y290766D01*
X438500Y289296D01*
Y287924D01*
X437893Y287496D01*
X437327Y287301D01*
X433565Y291063D01*
Y302000D01*
X433370Y302982D01*
X432814Y303814D01*
X411814Y324814D01*
X410982Y325370D01*
X410000Y325565D01*
X391000D01*
X390018Y325370D01*
X389186Y324814D01*
X380439Y316067D01*
X379266Y316553D01*
Y323266D01*
X368734D01*
Y314234D01*
X376947D01*
X377433Y313061D01*
X375937Y311565D01*
X347313D01*
X344414Y314464D01*
X344940Y315734D01*
X350016D01*
Y315935D01*
X355734D01*
Y313734D01*
X366266D01*
Y323266D01*
X357553D01*
X357067Y324439D01*
X359362Y326734D01*
X366266D01*
Y328810D01*
X368734D01*
Y326734D01*
X379266D01*
Y335766D01*
X368734D01*
Y333940D01*
X366266D01*
Y336165D01*
X366266Y336266D01*
X366511Y337435D01*
X432937D01*
X435586Y334786D01*
X435060Y333516D01*
X426508D01*
Y328758D01*
X436016D01*
Y332560D01*
X437286Y333086D01*
X438435Y331937D01*
Y301000D01*
X438630Y300018D01*
X439186Y299186D01*
X445186Y293186D01*
X446018Y292630D01*
X447000Y292435D01*
X448984D01*
Y290984D01*
X467016D01*
Y299016D01*
X448984D01*
Y298407D01*
X447714Y297914D01*
X443565Y302063D01*
Y333000D01*
X443370Y333982D01*
X442814Y334814D01*
X435814Y341814D01*
X434982Y342370D01*
X434000Y342565D01*
D02*
G37*
G36*
X411016Y299016D02*
X392984D01*
Y290984D01*
X411016D01*
Y299016D01*
D02*
G37*
G36*
X103396Y361176D02*
X89934D01*
Y338824D01*
X90531D01*
Y327381D01*
X86663Y323512D01*
X85333Y321522D01*
X84866Y319175D01*
Y305516D01*
X80984D01*
Y289484D01*
X97016D01*
Y298908D01*
X97134Y299500D01*
Y316634D01*
X101002Y320503D01*
X102332Y322493D01*
X102799Y324840D01*
Y338824D01*
X103396D01*
Y361176D01*
D02*
G37*
G36*
X318266Y301266D02*
X307734D01*
Y291734D01*
X318266D01*
Y293935D01*
X322604D01*
X323299Y292665D01*
X322976Y292161D01*
X322768Y292120D01*
X321936Y291564D01*
X319273Y288901D01*
X318266Y288266D01*
X307734D01*
Y286190D01*
X305266D01*
Y288266D01*
X294734D01*
Y279234D01*
X305266D01*
Y281060D01*
X307734D01*
Y278734D01*
X318266D01*
Y282867D01*
X319432D01*
X320414Y283062D01*
X321246Y283618D01*
X321962Y284334D01*
X323408Y283984D01*
X323598Y283387D01*
X323250Y282546D01*
Y280954D01*
X323859Y279484D01*
X324984Y278359D01*
X326454Y277750D01*
X328046D01*
X329516Y278359D01*
X330641Y279484D01*
X331250Y280954D01*
Y282546D01*
X330641Y284016D01*
X330516Y284141D01*
Y285964D01*
X330516Y286266D01*
Y287234D01*
X330516Y287536D01*
Y292464D01*
X330516Y292766D01*
Y293734D01*
X330516Y294036D01*
Y299266D01*
X323984D01*
Y299065D01*
X318266D01*
Y301266D01*
D02*
G37*
G36*
X421046Y292500D02*
X419454D01*
X417984Y291891D01*
X416859Y290766D01*
X416250Y289296D01*
Y287704D01*
X416859Y286234D01*
X417984Y285109D01*
X419454Y284500D01*
X421046D01*
X422516Y285109D01*
X423641Y286234D01*
X424250Y287704D01*
Y289296D01*
X423641Y290766D01*
X422516Y291891D01*
X421046Y292500D01*
D02*
G37*
G36*
X411016Y289016D02*
X392984D01*
Y280984D01*
X411016D01*
Y289016D01*
D02*
G37*
G36*
X379266Y288266D02*
X368734D01*
Y279234D01*
X379266D01*
Y288266D01*
D02*
G37*
G36*
X90055Y280516D02*
X89508D01*
Y273008D01*
X97016D01*
Y273555D01*
X96470Y275594D01*
X95414Y277422D01*
X93922Y278914D01*
X92094Y279970D01*
X90055Y280516D01*
D02*
G37*
G36*
X88492D02*
X87945D01*
X85906Y279970D01*
X84078Y278914D01*
X82586Y277422D01*
X81530Y275594D01*
X80984Y273555D01*
Y273008D01*
X88492D01*
Y280516D01*
D02*
G37*
G36*
X411016Y279016D02*
X392984D01*
Y270984D01*
X411016D01*
Y279016D01*
D02*
G37*
G36*
X178016Y272016D02*
X174508D01*
Y265508D01*
X178016D01*
Y272016D01*
D02*
G37*
G36*
X173492D02*
X169984D01*
Y265508D01*
X173492D01*
Y272016D01*
D02*
G37*
G36*
X97016Y271992D02*
X89508D01*
Y264484D01*
X90055D01*
X92094Y265030D01*
X93922Y266086D01*
X95414Y267578D01*
X96470Y269406D01*
X97016Y271445D01*
Y271992D01*
D02*
G37*
G36*
X88492D02*
X80984D01*
Y271445D01*
X81530Y269406D01*
X82586Y267578D01*
X84078Y266086D01*
X85906Y265030D01*
X87945Y264484D01*
X88492D01*
Y271992D01*
D02*
G37*
G36*
X385796Y272000D02*
X384204D01*
X382734Y271391D01*
X381609Y270266D01*
X381000Y268796D01*
Y267204D01*
X381609Y265734D01*
X382734Y264609D01*
X384204Y264000D01*
X385796D01*
X387266Y264609D01*
X388391Y265734D01*
X389000Y267204D01*
Y268796D01*
X388391Y270266D01*
X387266Y271391D01*
X385796Y272000D01*
D02*
G37*
G36*
X212547Y270486D02*
X206508D01*
Y263453D01*
X212547D01*
Y270486D01*
D02*
G37*
G36*
X205492D02*
X199453D01*
Y263453D01*
X205492D01*
Y270486D01*
D02*
G37*
G36*
X148547Y269486D02*
X142508D01*
Y262453D01*
X148547D01*
Y269486D01*
D02*
G37*
G36*
X141492D02*
X135453D01*
Y262453D01*
X141492D01*
Y269486D01*
D02*
G37*
G36*
X239000Y278100D02*
X228000D01*
X227222Y277778D01*
X226900Y277000D01*
Y264878D01*
X223961Y261938D01*
X221907D01*
X221906Y261938D01*
X221120Y261782D01*
X220453Y261336D01*
X220453Y261336D01*
X217424Y258308D01*
X216979Y257641D01*
X216822Y256854D01*
X216822Y256854D01*
Y243986D01*
X216536Y243746D01*
X215266Y244338D01*
Y254266D01*
X202734D01*
Y252055D01*
X190616D01*
Y253616D01*
X183384D01*
Y252055D01*
X175327D01*
Y254307D01*
X164673D01*
Y248782D01*
X160726D01*
X160726Y248782D01*
X159939Y248625D01*
X159273Y248179D01*
X159272Y248179D01*
X145657Y234564D01*
X140555D01*
Y236400D01*
X140516Y236599D01*
Y240616D01*
X131484D01*
Y234564D01*
X106843D01*
X103446Y237961D01*
X102779Y238407D01*
X101992Y238563D01*
X101992Y238563D01*
X91527D01*
X91360Y239834D01*
X92094Y240030D01*
X93922Y241086D01*
X95414Y242578D01*
X96470Y244406D01*
X97016Y246445D01*
Y248555D01*
X96470Y250594D01*
X95414Y252422D01*
X93922Y253914D01*
X92094Y254970D01*
X90055Y255516D01*
X87945D01*
X85906Y254970D01*
X84078Y253914D01*
X82586Y252422D01*
X81530Y250594D01*
X80984Y248555D01*
Y246445D01*
X81530Y244406D01*
X82586Y242578D01*
X84078Y241086D01*
X85906Y240030D01*
X86945Y239752D01*
Y237680D01*
X86945Y237680D01*
X87101Y236893D01*
X87547Y236226D01*
X87897Y235875D01*
Y234125D01*
X87547Y233774D01*
X87101Y233107D01*
X86945Y232320D01*
X86945Y232320D01*
Y230248D01*
X85906Y229970D01*
X84078Y228914D01*
X82586Y227422D01*
X81530Y225594D01*
X80984Y223555D01*
Y221445D01*
X81530Y219406D01*
X82586Y217578D01*
X84078Y216086D01*
X85906Y215030D01*
X87945Y214484D01*
X90055D01*
X92094Y215030D01*
X93922Y216086D01*
X95414Y217578D01*
X96470Y219406D01*
X97016Y221445D01*
Y223555D01*
X96470Y225594D01*
X95414Y227422D01*
X93922Y228914D01*
X92094Y229970D01*
X91360Y230166D01*
X91527Y231437D01*
X99891D01*
X103289Y228039D01*
X103289Y228039D01*
X103956Y227593D01*
X104743Y227437D01*
X131484D01*
Y221384D01*
X140516D01*
Y225401D01*
X140555Y225600D01*
Y227437D01*
X145657D01*
X159273Y213821D01*
X159273Y213820D01*
X159939Y213375D01*
X160726Y213218D01*
X160726Y213218D01*
X164673D01*
Y207693D01*
X175327D01*
Y209944D01*
X183384D01*
Y208384D01*
X190616D01*
Y211544D01*
X192600D01*
X192600Y211544D01*
X193387Y211701D01*
X194053Y212146D01*
X205641Y223734D01*
X215266D01*
Y234551D01*
X215306Y234750D01*
Y235436D01*
X218499D01*
X218499Y235436D01*
X219286Y235593D01*
X219953Y236039D01*
X223347Y239433D01*
X223793Y240100D01*
X223949Y240886D01*
X223949Y240887D01*
Y253027D01*
X225219Y253553D01*
X226900Y251872D01*
Y241000D01*
X227222Y240222D01*
X228000Y239900D01*
X239000D01*
X239778Y240222D01*
X240100Y241000D01*
Y249500D01*
X239960Y249837D01*
X239859Y250187D01*
X235859Y255187D01*
X235802Y255218D01*
X235778Y255278D01*
X235441Y255417D01*
X235121Y255593D01*
X235060Y255575D01*
X235000Y255600D01*
X228987D01*
X227068Y257518D01*
X226314Y258375D01*
X227068Y259232D01*
X230237Y262400D01*
X235000D01*
X235060Y262425D01*
X235121Y262407D01*
X235441Y262583D01*
X235778Y262722D01*
X235802Y262782D01*
X235859Y262813D01*
X239859Y267813D01*
X239960Y268163D01*
X240100Y268500D01*
Y277000D01*
X239778Y277778D01*
X239000Y278100D01*
D02*
G37*
G36*
X467016Y269016D02*
X448984D01*
Y260984D01*
X467016D01*
Y269016D01*
D02*
G37*
G36*
X411016D02*
X392984D01*
Y260984D01*
X411016D01*
Y269016D01*
D02*
G37*
G36*
X421046Y268500D02*
X419454D01*
X417984Y267891D01*
X416859Y266766D01*
X416250Y265296D01*
Y263704D01*
X416859Y262234D01*
X417984Y261109D01*
X419454Y260500D01*
X421046D01*
X422516Y261109D01*
X423641Y262234D01*
X424250Y263704D01*
Y265296D01*
X423641Y266766D01*
X422516Y267891D01*
X421046Y268500D01*
D02*
G37*
G36*
X178016Y264492D02*
X174508D01*
Y257984D01*
X178016D01*
Y264492D01*
D02*
G37*
G36*
X173492D02*
X169984D01*
Y257984D01*
X173492D01*
Y264492D01*
D02*
G37*
G36*
X347546Y267250D02*
X345954D01*
X344484Y266641D01*
X343359Y265516D01*
X342750Y264046D01*
Y262454D01*
X343359Y260984D01*
X343484Y260859D01*
Y259036D01*
X343484Y258734D01*
Y257766D01*
X343484Y257464D01*
Y252536D01*
X343484Y252234D01*
Y251266D01*
X343484Y250964D01*
Y245734D01*
X350016D01*
Y245935D01*
X355734D01*
Y243734D01*
X366266D01*
Y253266D01*
X355734D01*
Y251065D01*
X351642D01*
X351087Y252091D01*
X351327Y252545D01*
X352039Y252687D01*
X352871Y253243D01*
X356312Y256685D01*
X358750D01*
X358998Y256734D01*
X366266D01*
Y258810D01*
X368734D01*
Y256734D01*
X379266D01*
Y265766D01*
X368734D01*
Y263940D01*
X366266D01*
Y266266D01*
X355734D01*
Y261815D01*
X355250D01*
X354268Y261620D01*
X353436Y261064D01*
X351286Y258914D01*
X350016Y259440D01*
Y260859D01*
X350141Y260984D01*
X350750Y262454D01*
Y264046D01*
X350141Y265516D01*
X349016Y266641D01*
X347546Y267250D01*
D02*
G37*
G36*
X305266Y265766D02*
X294734D01*
Y256734D01*
X305266D01*
Y265766D01*
D02*
G37*
G36*
X280000Y278100D02*
X269000D01*
X268222Y277778D01*
X267900Y277000D01*
Y268500D01*
X268040Y268163D01*
X268141Y267813D01*
X272141Y262813D01*
X272198Y262782D01*
X272222Y262722D01*
X272559Y262583D01*
X272879Y262407D01*
X272940Y262425D01*
X273000Y262400D01*
X277763D01*
X282269Y257895D01*
X282010Y256769D01*
X281851Y256517D01*
X281826Y256512D01*
X281160Y256066D01*
X281160Y256066D01*
X280490Y255397D01*
X280000Y255600D01*
X273000D01*
X272940Y255575D01*
X272879Y255593D01*
X272559Y255417D01*
X272222Y255278D01*
X272198Y255218D01*
X272141Y255187D01*
X268141Y250187D01*
X268040Y249837D01*
X267900Y249500D01*
Y241000D01*
X268222Y240222D01*
X269000Y239900D01*
X280000D01*
X280778Y240222D01*
X281100Y241000D01*
Y250193D01*
X283442Y252535D01*
X284944Y251032D01*
Y231126D01*
X278527Y224709D01*
X278527Y224709D01*
X276883Y223065D01*
X276863D01*
X276396Y223378D01*
X275609Y223534D01*
X275336Y224763D01*
Y229544D01*
X263525D01*
Y229057D01*
X261477D01*
X261391Y229266D01*
X260266Y230391D01*
X258796Y231000D01*
X257204D01*
X255734Y230391D01*
X254609Y229266D01*
X254000Y227796D01*
Y226204D01*
X254609Y224734D01*
X255734Y223609D01*
X257204Y223000D01*
X258796D01*
X260266Y223609D01*
X261391Y224734D01*
X261479Y224946D01*
X263525D01*
Y214038D01*
X261506D01*
X261427Y214230D01*
X260301Y215355D01*
X258831Y215965D01*
X257240D01*
X255770Y215355D01*
X254645Y214230D01*
X254035Y212760D01*
Y211169D01*
X254645Y209699D01*
X255770Y208573D01*
X257240Y207964D01*
X258831D01*
X260301Y208573D01*
X261427Y209699D01*
X261521Y209927D01*
X263525D01*
Y199052D01*
X260996D01*
X260210Y198895D01*
X259543Y198450D01*
X259543Y198450D01*
X253547Y192453D01*
X253326Y192123D01*
X252055Y192508D01*
Y198000D01*
X251899Y198787D01*
X251453Y199454D01*
X251453Y199454D01*
X247456Y203451D01*
X246789Y203897D01*
X246003Y204053D01*
X246002Y204053D01*
X244475D01*
Y209460D01*
Y219463D01*
Y221495D01*
X238570D01*
Y222511D01*
X244475D01*
Y229544D01*
X232664D01*
Y229059D01*
X229004D01*
X228217Y228903D01*
X227550Y228457D01*
X227550Y228457D01*
X213547Y214454D01*
X213101Y213787D01*
X212945Y213000D01*
X212945Y213000D01*
Y197372D01*
X211674Y196636D01*
X210796Y197000D01*
X209357D01*
X209242Y197087D01*
X208932Y197454D01*
X208543Y198101D01*
X209000Y199204D01*
Y200796D01*
X208391Y202266D01*
X207266Y203391D01*
X205796Y204000D01*
X204204D01*
X202734Y203391D01*
X201609Y202266D01*
X201000Y200796D01*
Y199204D01*
X201457Y198101D01*
X201068Y197454D01*
X200758Y197087D01*
X200643Y197000D01*
X199357D01*
X199242Y197087D01*
X198932Y197454D01*
X198543Y198101D01*
X199000Y199204D01*
Y200796D01*
X198391Y202266D01*
X197266Y203391D01*
X195796Y204000D01*
X194204D01*
X192734Y203391D01*
X191609Y202266D01*
X191000Y200796D01*
Y199204D01*
X191457Y198101D01*
X191068Y197454D01*
X190758Y197087D01*
X190643Y197000D01*
X189357D01*
X189242Y197087D01*
X188932Y197454D01*
X188543Y198101D01*
X189000Y199204D01*
Y200796D01*
X188391Y202266D01*
X187266Y203391D01*
X185796Y204000D01*
X184204D01*
X182734Y203391D01*
X181609Y202266D01*
X181000Y200796D01*
Y199204D01*
X181457Y198101D01*
X181068Y197454D01*
X180758Y197087D01*
X180643Y197000D01*
X179357D01*
X179242Y197087D01*
X178932Y197454D01*
X178543Y198101D01*
X179000Y199204D01*
Y200796D01*
X178391Y202266D01*
X177266Y203391D01*
X175796Y204000D01*
X174204D01*
X172734Y203391D01*
X171609Y202266D01*
X171000Y200796D01*
Y199204D01*
X171457Y198101D01*
X171068Y197454D01*
X170758Y197087D01*
X170643Y197000D01*
X169357D01*
X169242Y197087D01*
X168932Y197454D01*
X168543Y198101D01*
X169000Y199204D01*
Y200796D01*
X168391Y202266D01*
X167266Y203391D01*
X165796Y204000D01*
X164204D01*
X162734Y203391D01*
X161609Y202266D01*
X161000Y200796D01*
Y199204D01*
X161457Y198101D01*
X161068Y197454D01*
X160758Y197087D01*
X160643Y197000D01*
X159204D01*
X157734Y196391D01*
X156609Y195266D01*
X156000Y193796D01*
Y192204D01*
X156609Y190734D01*
X157734Y189609D01*
X157944Y189522D01*
Y187508D01*
X156674Y187123D01*
X156454Y187453D01*
X156453Y187453D01*
X153454Y190453D01*
X152787Y190899D01*
X152000Y191056D01*
X152000Y191056D01*
X127000D01*
X127000Y191056D01*
X126213Y190899D01*
X125547Y190453D01*
X97549Y162456D01*
X58685D01*
X58054Y163978D01*
X56278Y165755D01*
X53956Y166716D01*
X51444D01*
X49122Y165755D01*
X47586Y164218D01*
X46459Y164520D01*
X46316Y164608D01*
Y166716D01*
X33684D01*
Y154084D01*
X35793D01*
X35880Y153941D01*
X36182Y152814D01*
X34646Y151278D01*
X33684Y148956D01*
Y148208D01*
X40000D01*
Y147192D01*
X33684D01*
Y146444D01*
X34646Y144122D01*
X36422Y142346D01*
X37166Y142037D01*
Y140663D01*
X36422Y140354D01*
X34646Y138578D01*
X33684Y136256D01*
Y135508D01*
X40000D01*
Y134492D01*
X33684D01*
Y133744D01*
X34646Y131422D01*
X36422Y129646D01*
X37166Y129337D01*
Y127963D01*
X36422Y127654D01*
X34646Y125878D01*
X33684Y123556D01*
Y121044D01*
X34646Y118722D01*
X36422Y116946D01*
X37166Y116637D01*
Y115263D01*
X36422Y114955D01*
X34646Y113178D01*
X33684Y110856D01*
Y108344D01*
X34646Y106022D01*
X36422Y104246D01*
X38744Y103284D01*
X41256D01*
X43578Y104246D01*
X45354Y106022D01*
X45663Y106766D01*
X47037D01*
X47345Y106022D01*
X49122Y104246D01*
X51444Y103284D01*
X53956D01*
X56278Y104246D01*
X58054Y106022D01*
X59016Y108344D01*
Y110856D01*
X58054Y113178D01*
X56278Y114955D01*
X55534Y115263D01*
Y116637D01*
X56278Y116946D01*
X58054Y118722D01*
X59016Y121044D01*
Y123556D01*
X58054Y125878D01*
X56278Y127654D01*
X55534Y127963D01*
Y129337D01*
X56278Y129646D01*
X58054Y131422D01*
X58685Y132944D01*
X101149D01*
X107944Y126149D01*
Y100000D01*
X107944Y100000D01*
X108101Y99213D01*
X108546Y98546D01*
X112371Y94722D01*
X111652Y93645D01*
X110796Y94000D01*
X109204D01*
X107734Y93391D01*
X106609Y92266D01*
X106000Y90796D01*
Y89204D01*
X106609Y87734D01*
X107734Y86609D01*
X109204Y86000D01*
X109425D01*
X110076Y85167D01*
X109563Y84000D01*
X109204D01*
X107734Y83391D01*
X106609Y82266D01*
X106000Y80796D01*
Y79204D01*
X106609Y77734D01*
X107734Y76609D01*
X109204Y76000D01*
X110796D01*
X111006Y76087D01*
X112371Y74722D01*
X111652Y73646D01*
X110796Y74000D01*
X109204D01*
X107734Y73391D01*
X106609Y72266D01*
X106000Y70796D01*
Y69204D01*
X106609Y67734D01*
X107734Y66609D01*
X109204Y66000D01*
X110796D01*
X111006Y66087D01*
X113546Y63547D01*
X113547Y63547D01*
X114213Y63101D01*
X115000Y62944D01*
X116911D01*
X117296Y61674D01*
X117033Y61498D01*
X116574Y60811D01*
X116412Y60000D01*
X116574Y59189D01*
X117033Y58502D01*
X117478Y58204D01*
X117591Y57620D01*
Y57380D01*
X117478Y56796D01*
X117033Y56498D01*
X116574Y55811D01*
X116412Y55000D01*
X116574Y54189D01*
X117033Y53502D01*
X117478Y53204D01*
X117591Y52620D01*
Y52380D01*
X117478Y51796D01*
X117033Y51498D01*
X116574Y50811D01*
X116412Y50000D01*
X116574Y49189D01*
X117033Y48502D01*
X117478Y48204D01*
X117591Y47620D01*
Y47380D01*
X117478Y46796D01*
X117033Y46498D01*
X116574Y45811D01*
X116513Y45508D01*
X124245D01*
X131977D01*
X131917Y45811D01*
X131457Y46498D01*
X131013Y46796D01*
X130899Y47380D01*
Y47620D01*
X131013Y48204D01*
X131457Y48502D01*
X131917Y49189D01*
X132078Y50000D01*
X131917Y50811D01*
X131457Y51498D01*
X131013Y51796D01*
X130899Y52380D01*
Y52620D01*
X131013Y53204D01*
X131457Y53502D01*
X131917Y54189D01*
X132078Y55000D01*
X131917Y55811D01*
X131457Y56498D01*
X131013Y56796D01*
X130899Y57380D01*
Y57620D01*
X131013Y58204D01*
X131457Y58502D01*
X131917Y59189D01*
X132078Y60000D01*
X131917Y60811D01*
X131457Y61498D01*
X131013Y61796D01*
X130899Y62380D01*
Y62620D01*
X131013Y63204D01*
X131457Y63502D01*
X131917Y64189D01*
X132078Y65000D01*
X131917Y65811D01*
X131457Y66498D01*
X131194Y66674D01*
X131579Y67944D01*
X138522D01*
X138609Y67734D01*
X139734Y66609D01*
X141204Y66000D01*
X142796D01*
X144266Y66609D01*
X145391Y67734D01*
X146000Y69204D01*
Y70796D01*
X145391Y72266D01*
X144266Y73391D01*
X142796Y74000D01*
X141204D01*
X139734Y73391D01*
X138609Y72266D01*
X138522Y72056D01*
X131579D01*
X131194Y73326D01*
X131457Y73502D01*
X131917Y74189D01*
X132078Y75000D01*
X131917Y75811D01*
X131457Y76498D01*
X131013Y76796D01*
X130899Y77380D01*
Y77620D01*
X131013Y78204D01*
X131457Y78502D01*
X131917Y79189D01*
X132078Y80000D01*
X131917Y80811D01*
X131457Y81498D01*
X131013Y81796D01*
X130899Y82380D01*
Y82620D01*
X131013Y83204D01*
X131457Y83502D01*
X131917Y84189D01*
X132078Y85000D01*
X131917Y85811D01*
X131457Y86498D01*
X131013Y86796D01*
X130899Y87380D01*
Y87620D01*
X131013Y88204D01*
X131457Y88502D01*
X131917Y89189D01*
X132078Y90000D01*
X131917Y90811D01*
X131457Y91498D01*
X131013Y91796D01*
X130899Y92380D01*
Y92620D01*
X131013Y93204D01*
X131457Y93502D01*
X131917Y94189D01*
X132078Y95000D01*
X131917Y95811D01*
X131457Y96498D01*
X131194Y96674D01*
X131579Y97944D01*
X146535D01*
X146609Y97766D01*
X147734Y96641D01*
X149204Y96032D01*
X150796D01*
X152266Y96641D01*
X153391Y97766D01*
X154000Y99236D01*
Y100828D01*
X153391Y102298D01*
X152266Y103423D01*
X150796Y104032D01*
X149204D01*
X147734Y103423D01*
X147421Y103110D01*
X146345Y103830D01*
X146500Y104204D01*
Y105796D01*
X146300Y106279D01*
X147376Y106999D01*
X147734Y106641D01*
X149204Y106032D01*
X150796D01*
X152266Y106641D01*
X153391Y107766D01*
X154000Y109236D01*
Y110828D01*
X153391Y112298D01*
X152266Y113423D01*
X150796Y114032D01*
X149204D01*
X147734Y113423D01*
X147421Y113110D01*
X146345Y113830D01*
X146500Y114204D01*
Y115796D01*
X146300Y116279D01*
X147376Y116999D01*
X147734Y116641D01*
X149204Y116032D01*
X150796D01*
X152266Y116641D01*
X153391Y117766D01*
X154000Y119236D01*
Y120828D01*
X153391Y122298D01*
X152266Y123423D01*
X150796Y124032D01*
X149204D01*
X147734Y123423D01*
X147421Y123110D01*
X146345Y123830D01*
X146500Y124204D01*
Y125796D01*
X146322Y126225D01*
X147399Y126944D01*
X147734Y126609D01*
X149204Y126000D01*
X150796D01*
X152266Y126609D01*
X153391Y127734D01*
X154000Y129204D01*
Y130796D01*
X153391Y132266D01*
X152266Y133391D01*
X150796Y134000D01*
X149204D01*
X147734Y133391D01*
X147399Y133056D01*
X146322Y133775D01*
X146500Y134204D01*
Y135796D01*
X145891Y137266D01*
X144766Y138391D01*
X143296Y139000D01*
X141704D01*
X140234Y138391D01*
X139109Y137266D01*
X139022Y137056D01*
X131579D01*
X131194Y138326D01*
X131457Y138502D01*
X131917Y139189D01*
X132078Y140000D01*
X131917Y140811D01*
X131457Y141498D01*
X131013Y141796D01*
X130899Y142380D01*
Y142620D01*
X131013Y143204D01*
X131457Y143502D01*
X131917Y144189D01*
X132078Y145000D01*
X131917Y145811D01*
X131457Y146498D01*
X131013Y146796D01*
X130899Y147380D01*
Y147620D01*
X131013Y148204D01*
X131457Y148502D01*
X131917Y149189D01*
X132078Y150000D01*
X131917Y150811D01*
X131457Y151498D01*
X131013Y151796D01*
X130899Y152380D01*
Y152620D01*
X131013Y153204D01*
X131457Y153502D01*
X131917Y154189D01*
X132078Y155000D01*
X131917Y155811D01*
X131457Y156498D01*
X131013Y156796D01*
X130899Y157380D01*
Y157620D01*
X131013Y158204D01*
X131457Y158502D01*
X131917Y159189D01*
X132078Y160000D01*
X131917Y160811D01*
X131457Y161498D01*
X130770Y161958D01*
X129959Y162119D01*
X118531D01*
X118212Y162055D01*
X115000D01*
X115000Y162055D01*
X114213Y161899D01*
X113547Y161453D01*
X113546Y161453D01*
X101849Y149755D01*
X58685D01*
X58054Y151278D01*
X56278Y153055D01*
X55534Y153363D01*
Y154737D01*
X56278Y155046D01*
X58054Y156822D01*
X58685Y158344D01*
X98400D01*
X98400Y158344D01*
X99187Y158501D01*
X99853Y158947D01*
X127851Y186945D01*
X151149D01*
X152944Y185149D01*
Y183089D01*
X151674Y182703D01*
X151498Y182967D01*
X150811Y183426D01*
X150000Y183588D01*
X149189Y183426D01*
X148502Y182967D01*
X148204Y182522D01*
X147620Y182409D01*
X147380D01*
X146796Y182522D01*
X146498Y182967D01*
X145811Y183426D01*
X145508Y183487D01*
Y175755D01*
Y168023D01*
X145811Y168083D01*
X146498Y168543D01*
X146674Y168806D01*
X147944Y168421D01*
Y165000D01*
X147944Y165000D01*
X148101Y164213D01*
X148546Y163547D01*
X155547Y156547D01*
X155547Y156546D01*
X156213Y156101D01*
X157000Y155944D01*
X157000Y155944D01*
X162522D01*
X162609Y155734D01*
X163734Y154609D01*
X165204Y154000D01*
X166796D01*
X168266Y154609D01*
X169391Y155734D01*
X170000Y157204D01*
Y158796D01*
X169391Y160266D01*
X168266Y161391D01*
X166796Y162000D01*
X165204D01*
X163734Y161391D01*
X162609Y160266D01*
X162522Y160056D01*
X157851D01*
X152056Y165851D01*
Y168421D01*
X153326Y168806D01*
X153502Y168543D01*
X154189Y168083D01*
X155000Y167922D01*
X155811Y168083D01*
X156498Y168543D01*
X156796Y168987D01*
X157380Y169101D01*
X157620D01*
X158204Y168987D01*
X158502Y168543D01*
X159189Y168083D01*
X160000Y167922D01*
X160811Y168083D01*
X161498Y168543D01*
X161796Y168987D01*
X162380Y169101D01*
X162620D01*
X163204Y168987D01*
X163502Y168543D01*
X164189Y168083D01*
X165000Y167922D01*
X165811Y168083D01*
X166498Y168543D01*
X166796Y168987D01*
X167380Y169101D01*
X167620D01*
X168204Y168987D01*
X168502Y168543D01*
X169189Y168083D01*
X170000Y167922D01*
X170811Y168083D01*
X171498Y168543D01*
X171796Y168987D01*
X172380Y169101D01*
X172620D01*
X173204Y168987D01*
X173502Y168543D01*
X174189Y168083D01*
X175000Y167922D01*
X175811Y168083D01*
X176498Y168543D01*
X176796Y168987D01*
X177380Y169101D01*
X177620D01*
X178204Y168987D01*
X178502Y168543D01*
X179189Y168083D01*
X180000Y167922D01*
X180811Y168083D01*
X181498Y168543D01*
X181796Y168987D01*
X182380Y169101D01*
X182620D01*
X183204Y168987D01*
X183502Y168543D01*
X184189Y168083D01*
X185000Y167922D01*
X185811Y168083D01*
X186498Y168543D01*
X186796Y168987D01*
X187380Y169101D01*
X187620D01*
X188204Y168987D01*
X188502Y168543D01*
X189189Y168083D01*
X190000Y167922D01*
X190811Y168083D01*
X191498Y168543D01*
X191796Y168987D01*
X192380Y169101D01*
X192620D01*
X193204Y168987D01*
X193502Y168543D01*
X194189Y168083D01*
X195000Y167922D01*
X195811Y168083D01*
X196498Y168543D01*
X196796Y168987D01*
X197380Y169101D01*
X197620D01*
X198204Y168987D01*
X198502Y168543D01*
X199189Y168083D01*
X200000Y167922D01*
X200811Y168083D01*
X201498Y168543D01*
X201796Y168987D01*
X202380Y169101D01*
X202620D01*
X203204Y168987D01*
X203502Y168543D01*
X204189Y168083D01*
X205000Y167922D01*
X205811Y168083D01*
X206498Y168543D01*
X206796Y168987D01*
X207380Y169101D01*
X207620D01*
X208204Y168987D01*
X208502Y168543D01*
X209189Y168083D01*
X210000Y167922D01*
X210811Y168083D01*
X211498Y168543D01*
X211796Y168987D01*
X212380Y169101D01*
X212620D01*
X213204Y168987D01*
X213502Y168543D01*
X214189Y168083D01*
X215000Y167922D01*
X215811Y168083D01*
X216498Y168543D01*
X216796Y168987D01*
X217380Y169101D01*
X217620D01*
X218204Y168987D01*
X218502Y168543D01*
X219189Y168083D01*
X220000Y167922D01*
X220811Y168083D01*
X221498Y168543D01*
X221674Y168806D01*
X222945Y168421D01*
Y158851D01*
X207547Y143454D01*
X207101Y142787D01*
X206945Y142000D01*
X206945Y142000D01*
Y94851D01*
X201006Y88913D01*
X200796Y89000D01*
X199204D01*
X197734Y88391D01*
X196609Y87266D01*
X196000Y85796D01*
Y84204D01*
X196609Y82734D01*
X197734Y81609D01*
X199204Y81000D01*
X200796D01*
X202266Y81609D01*
X202927Y82270D01*
X203750Y82593D01*
X204573Y82270D01*
X205234Y81609D01*
X206704Y81000D01*
X208296D01*
X209766Y81609D01*
X210427Y82270D01*
X211250Y82593D01*
X212073Y82270D01*
X212734Y81609D01*
X214204Y81000D01*
X215796D01*
X217266Y81609D01*
X218391Y82734D01*
X219000Y84204D01*
Y85796D01*
X218391Y87266D01*
X217266Y88391D01*
X217071Y88471D01*
Y91421D01*
X217087Y91502D01*
X217087Y91502D01*
Y138650D01*
X236453Y158016D01*
X236899Y158683D01*
X237055Y159469D01*
Y168421D01*
X238326Y168806D01*
X238502Y168543D01*
X239189Y168083D01*
X240000Y167922D01*
X240811Y168083D01*
X241498Y168543D01*
X241796Y168987D01*
X242380Y169101D01*
X242620D01*
X243204Y168987D01*
X243502Y168543D01*
X244189Y168083D01*
X245000Y167922D01*
X245811Y168083D01*
X246498Y168543D01*
X246796Y168987D01*
X247380Y169101D01*
X247620D01*
X248204Y168987D01*
X248502Y168543D01*
X249189Y168083D01*
X250000Y167922D01*
X250811Y168083D01*
X251498Y168543D01*
X251796Y168987D01*
X252380Y169101D01*
X252620D01*
X253204Y168987D01*
X253502Y168543D01*
X254189Y168083D01*
X255000Y167922D01*
X255811Y168083D01*
X256498Y168543D01*
X256796Y168987D01*
X257380Y169101D01*
X257620D01*
X258204Y168987D01*
X258502Y168543D01*
X259189Y168083D01*
X260000Y167922D01*
X260811Y168083D01*
X261498Y168543D01*
X261958Y169230D01*
X262119Y170041D01*
Y181469D01*
X262055Y181788D01*
Y184492D01*
X263326Y185018D01*
X263734Y184609D01*
X265204Y184000D01*
X266796D01*
X268266Y184609D01*
X269391Y185734D01*
X270000Y187204D01*
Y188796D01*
X269391Y190266D01*
X268266Y191391D01*
X266796Y192000D01*
X265204D01*
X263734Y191391D01*
X262609Y190266D01*
X262522Y190056D01*
X262000D01*
X261213Y189899D01*
X260546Y189454D01*
X260546Y189453D01*
X258547Y187453D01*
X258326Y187123D01*
X257055Y187508D01*
Y190149D01*
X261848Y194941D01*
X263525D01*
Y194456D01*
X275336D01*
Y197348D01*
X276509Y197834D01*
X277945Y196399D01*
Y190228D01*
X277734Y190141D01*
X276609Y189016D01*
X276000Y187546D01*
Y185954D01*
X276609Y184484D01*
X277734Y183359D01*
X279204Y182750D01*
X280796D01*
X282266Y183359D01*
X283391Y184484D01*
X284000Y185954D01*
Y187546D01*
X283391Y189016D01*
X282266Y190141D01*
X282055Y190228D01*
Y194128D01*
X282304Y194272D01*
X283326Y194518D01*
X284234Y193609D01*
X285704Y193000D01*
X287296D01*
X288766Y193609D01*
X289891Y194734D01*
X290500Y196204D01*
Y197796D01*
X289891Y199266D01*
X288766Y200391D01*
X287296Y201000D01*
X285704D01*
X284234Y200391D01*
X283109Y199266D01*
X282916Y198800D01*
X281483Y198659D01*
X281453Y198703D01*
X281453Y198703D01*
X276994Y203163D01*
X277298Y204201D01*
X277469Y204433D01*
X279158D01*
X280204Y204000D01*
X281796D01*
X283266Y204609D01*
X284391Y205734D01*
X285000Y207204D01*
Y208796D01*
X284391Y210266D01*
X283266Y211391D01*
X281796Y212000D01*
X280204D01*
X278734Y211391D01*
X277609Y210266D01*
X277318Y209564D01*
X275336D01*
Y214241D01*
X275609Y215470D01*
X276396Y215626D01*
X276863Y215938D01*
X278984D01*
X278984Y215938D01*
X279771Y216095D01*
X280438Y216540D01*
X284450Y220553D01*
X284450Y220553D01*
X284450Y220553D01*
X289703Y225805D01*
X289703Y225806D01*
X291469Y227572D01*
X291469Y227572D01*
X291915Y228239D01*
X292071Y229026D01*
Y253132D01*
X291915Y253919D01*
X291469Y254586D01*
X291469Y254586D01*
X286973Y259083D01*
X286739Y259239D01*
X281100Y264878D01*
Y277000D01*
X280778Y277778D01*
X280000Y278100D01*
D02*
G37*
G36*
X385796Y262000D02*
X384204D01*
X382734Y261391D01*
X381609Y260266D01*
X381000Y258796D01*
Y257204D01*
X381609Y255734D01*
X382734Y254609D01*
X384204Y254000D01*
X385796D01*
X387266Y254609D01*
X388391Y255734D01*
X389000Y257204D01*
Y258796D01*
X388391Y260266D01*
X387266Y261391D01*
X385796Y262000D01*
D02*
G37*
G36*
X318266Y266266D02*
X307734D01*
Y256734D01*
X318266D01*
Y258935D01*
X322604D01*
X323299Y257665D01*
X322976Y257161D01*
X322768Y257120D01*
X321936Y256564D01*
X319273Y253901D01*
X318266Y253266D01*
X307734D01*
Y251190D01*
X305266D01*
Y253266D01*
X294734D01*
Y244234D01*
X305266D01*
Y246060D01*
X307734D01*
Y243734D01*
X318266D01*
Y247867D01*
X319432D01*
X320414Y248062D01*
X321246Y248618D01*
X321962Y249334D01*
X323408Y248984D01*
X323598Y248387D01*
X323250Y247546D01*
Y245954D01*
X323859Y244484D01*
X324984Y243359D01*
X326454Y242750D01*
X328046D01*
X329516Y243359D01*
X330641Y244484D01*
X331250Y245954D01*
Y247546D01*
X330641Y249016D01*
X330516Y249141D01*
Y250964D01*
X330516Y251266D01*
Y252234D01*
X330516Y252536D01*
Y257464D01*
X330516Y257766D01*
Y258734D01*
X330516Y259036D01*
Y264266D01*
X323984D01*
Y264065D01*
X318266D01*
Y266266D01*
D02*
G37*
G36*
X467016Y259016D02*
X448984D01*
Y250984D01*
X467016D01*
Y259016D01*
D02*
G37*
G36*
X411016D02*
X392984D01*
Y250984D01*
X411016D01*
Y259016D01*
D02*
G37*
G36*
X379266Y253266D02*
X368734D01*
Y244234D01*
X379266D01*
Y253266D01*
D02*
G37*
G36*
X24000Y276608D02*
X20737Y276178D01*
X17696Y274919D01*
X15085Y272915D01*
X13081Y270304D01*
X11822Y267263D01*
X11392Y264000D01*
Y256000D01*
X11822Y252737D01*
X13081Y249696D01*
X15085Y247085D01*
X17696Y245081D01*
X20737Y243822D01*
X24000Y243392D01*
X27263Y243822D01*
X30304Y245081D01*
X32915Y247085D01*
X34919Y249696D01*
X36178Y252737D01*
X36608Y256000D01*
Y264000D01*
X36178Y267263D01*
X34919Y270304D01*
X32915Y272915D01*
X30304Y274919D01*
X27263Y276178D01*
X24000Y276608D01*
D02*
G37*
G36*
X467016Y249016D02*
X448984D01*
Y240984D01*
X467016D01*
Y249016D01*
D02*
G37*
G36*
X411016D02*
X392984D01*
Y240984D01*
X411016D01*
Y249016D01*
D02*
G37*
G36*
Y239016D02*
X392984D01*
Y230984D01*
X411016D01*
Y239016D01*
D02*
G37*
G36*
X467016D02*
X448984D01*
Y236065D01*
X439500D01*
X438518Y235870D01*
X437686Y235314D01*
X424937Y222565D01*
X413000D01*
X412286Y222423D01*
X411386Y222911D01*
X411016Y223228D01*
Y229016D01*
X392984D01*
Y220984D01*
X408697D01*
X409183Y219811D01*
X396937Y207565D01*
X366511D01*
X366266Y208734D01*
X366266Y208835D01*
Y218266D01*
X355734D01*
Y216065D01*
X351642D01*
X351087Y217091D01*
X351327Y217545D01*
X352039Y217687D01*
X352871Y218243D01*
X356312Y221685D01*
X358750D01*
X358998Y221734D01*
X366266D01*
Y223810D01*
X368734D01*
Y221734D01*
X379266D01*
Y230766D01*
X368734D01*
Y228940D01*
X366266D01*
Y231266D01*
X355734D01*
Y226815D01*
X355250D01*
X354268Y226620D01*
X353436Y226064D01*
X351286Y223914D01*
X350016Y224440D01*
Y229266D01*
X343484D01*
Y228815D01*
X342250D01*
X341268Y228620D01*
X340436Y228064D01*
X338186Y225814D01*
X337630Y224982D01*
X337435Y224000D01*
Y210000D01*
X337630Y209018D01*
X336592Y208286D01*
X330516Y214362D01*
Y215964D01*
X330516Y216266D01*
Y217234D01*
X330516Y217536D01*
Y222464D01*
X330516Y222766D01*
Y223734D01*
X330516Y224036D01*
Y229266D01*
X323984D01*
Y229065D01*
X318266D01*
Y231266D01*
X307734D01*
Y221734D01*
X318266D01*
Y223935D01*
X322604D01*
X323299Y222665D01*
X322976Y222161D01*
X322768Y222120D01*
X321936Y221564D01*
X319273Y218901D01*
X318266Y218266D01*
X307734D01*
Y216190D01*
X305266D01*
Y218266D01*
X294734D01*
Y209234D01*
X305266D01*
Y211060D01*
X307734D01*
Y208734D01*
X318266D01*
Y212867D01*
X319432D01*
X320414Y213062D01*
X321246Y213618D01*
X322714Y215086D01*
X323984Y214560D01*
Y210734D01*
X326888D01*
X340436Y197186D01*
X341268Y196630D01*
X342250Y196435D01*
X342618D01*
X343214Y195165D01*
X342750Y194046D01*
Y192454D01*
X343359Y190984D01*
X343484Y190859D01*
Y189036D01*
X343484Y188734D01*
Y187766D01*
X343484Y187464D01*
Y182536D01*
X343484Y182234D01*
Y181266D01*
X343484Y180964D01*
Y175734D01*
X350016D01*
Y175935D01*
X355734D01*
Y173734D01*
X366266D01*
Y183266D01*
X355734D01*
Y181065D01*
X351396D01*
X350701Y182335D01*
X351024Y182839D01*
X351232Y182880D01*
X352064Y183436D01*
X354727Y186099D01*
X355734Y186734D01*
X366266D01*
Y188810D01*
X368734D01*
Y186734D01*
X379266D01*
Y195165D01*
X379266Y195766D01*
X380259Y196435D01*
X430058D01*
X431040Y196630D01*
X431872Y197186D01*
X453314Y218628D01*
X453870Y219460D01*
X454065Y220442D01*
Y220984D01*
X467016D01*
Y229016D01*
X448984D01*
Y223748D01*
X448935Y223500D01*
Y221504D01*
X437189Y209759D01*
X436016Y210245D01*
Y211242D01*
X426508D01*
Y206484D01*
X432255D01*
X432741Y205311D01*
X428996Y201565D01*
X399644D01*
X399289Y202835D01*
X399814Y203186D01*
X414063Y217435D01*
X414887D01*
X415984Y217016D01*
X415984Y216165D01*
Y212258D01*
X426000D01*
X436016D01*
Y217016D01*
X428349D01*
X427961Y217865D01*
X427914Y218286D01*
X440563Y230935D01*
X456500D01*
X456748Y230984D01*
X467016D01*
Y239016D01*
D02*
G37*
G36*
X305266Y230766D02*
X294734D01*
Y221734D01*
X305266D01*
Y230766D01*
D02*
G37*
G36*
X379266Y218266D02*
X368734D01*
Y209234D01*
X379266D01*
Y218266D01*
D02*
G37*
G36*
X425492Y211242D02*
X415984D01*
Y206484D01*
X425492D01*
Y211242D01*
D02*
G37*
G36*
X436016Y193516D02*
X426508D01*
Y188758D01*
X436016D01*
Y193516D01*
D02*
G37*
G36*
X425492D02*
X415984D01*
Y188758D01*
X425492D01*
Y193516D01*
D02*
G37*
G36*
X436016Y187742D02*
X426508D01*
Y182984D01*
X436016D01*
Y187742D01*
D02*
G37*
G36*
X425492D02*
X415984D01*
Y182984D01*
X425492D01*
Y187742D01*
D02*
G37*
G36*
X318266Y196266D02*
X307734D01*
Y186734D01*
X318266D01*
Y188935D01*
X322604D01*
X323299Y187665D01*
X322976Y187161D01*
X322768Y187120D01*
X321936Y186564D01*
X319273Y183901D01*
X318266Y183266D01*
X307734D01*
Y181190D01*
X305266D01*
Y183266D01*
X295969D01*
X295443Y184536D01*
X297641Y186734D01*
X305266D01*
Y195766D01*
X294734D01*
Y189641D01*
X285546Y180453D01*
X285101Y179787D01*
X284944Y179000D01*
X284944Y179000D01*
Y150040D01*
X284614Y149777D01*
X284405Y149822D01*
X283521Y150336D01*
X283426Y150811D01*
X282967Y151498D01*
X282522Y151796D01*
X282409Y152380D01*
Y152620D01*
X282522Y153204D01*
X282967Y153502D01*
X283426Y154189D01*
X283487Y154492D01*
X275755D01*
X268023D01*
X268083Y154189D01*
X268543Y153502D01*
X268806Y153326D01*
X268421Y152056D01*
X263000D01*
X263000Y152056D01*
X262213Y151899D01*
X261546Y151454D01*
X259006Y148913D01*
X258796Y149000D01*
X257204D01*
X255734Y148391D01*
X254609Y147266D01*
X254000Y145796D01*
Y144204D01*
X254609Y142734D01*
X255734Y141609D01*
X257204Y141000D01*
X258796D01*
X260266Y141609D01*
X261391Y142734D01*
X262000Y144204D01*
Y145796D01*
X261913Y146006D01*
X263851Y147944D01*
X268421D01*
X268806Y146674D01*
X268543Y146498D01*
X268083Y145811D01*
X267922Y145000D01*
X268083Y144189D01*
X268543Y143502D01*
X268987Y143204D01*
X269101Y142620D01*
Y142380D01*
X268987Y141796D01*
X268543Y141498D01*
X268083Y140811D01*
X267922Y140000D01*
X268083Y139189D01*
X268543Y138502D01*
X268987Y138204D01*
X269101Y137620D01*
Y137380D01*
X268987Y136796D01*
X268543Y136498D01*
X268083Y135811D01*
X267922Y135000D01*
X268083Y134189D01*
X268543Y133502D01*
X268987Y133204D01*
X269101Y132620D01*
Y132380D01*
X268987Y131796D01*
X268543Y131498D01*
X268083Y130811D01*
X267922Y130000D01*
X268083Y129189D01*
X268543Y128502D01*
X268987Y128204D01*
X269101Y127620D01*
Y127380D01*
X268987Y126796D01*
X268543Y126498D01*
X268083Y125811D01*
X267922Y125000D01*
X268083Y124189D01*
X268543Y123502D01*
X268987Y123204D01*
X269101Y122620D01*
Y122380D01*
X268987Y121796D01*
X268543Y121498D01*
X268083Y120811D01*
X267922Y120000D01*
X268083Y119189D01*
X268543Y118502D01*
X268987Y118204D01*
X269101Y117620D01*
Y117380D01*
X268987Y116796D01*
X268543Y116498D01*
X268083Y115811D01*
X267922Y115000D01*
X268083Y114189D01*
X268543Y113502D01*
X268806Y113326D01*
X268421Y112056D01*
X261478D01*
X261391Y112266D01*
X260266Y113391D01*
X258796Y114000D01*
X257204D01*
X255734Y113391D01*
X254609Y112266D01*
X254000Y110796D01*
Y109204D01*
X254609Y107734D01*
X255734Y106609D01*
X257204Y106000D01*
X258796D01*
X260266Y106609D01*
X261391Y107734D01*
X261478Y107944D01*
X268421D01*
X268806Y106674D01*
X268543Y106498D01*
X268083Y105811D01*
X267922Y105000D01*
X268083Y104189D01*
X268543Y103502D01*
X268987Y103204D01*
X269101Y102620D01*
Y102380D01*
X268987Y101796D01*
X268543Y101498D01*
X268083Y100811D01*
X267922Y100000D01*
X268083Y99189D01*
X268543Y98502D01*
X268806Y98326D01*
X268421Y97056D01*
X261478D01*
X261391Y97266D01*
X260266Y98391D01*
X258796Y99000D01*
X257204D01*
X255734Y98391D01*
X254609Y97266D01*
X254000Y95796D01*
Y94204D01*
X254609Y92734D01*
X255734Y91609D01*
X257204Y91000D01*
X258796D01*
X260266Y91609D01*
X261391Y92734D01*
X261478Y92944D01*
X268421D01*
X268806Y91674D01*
X268543Y91498D01*
X268083Y90811D01*
X267922Y90000D01*
X268083Y89189D01*
X268543Y88502D01*
X268987Y88204D01*
X269101Y87620D01*
Y87380D01*
X268987Y86796D01*
X268543Y86498D01*
X268083Y85811D01*
X267922Y85000D01*
X268083Y84189D01*
X268543Y83502D01*
X268806Y83326D01*
X268421Y82056D01*
X262922D01*
X261898Y83080D01*
X261964Y83240D01*
Y84831D01*
X261355Y86301D01*
X260230Y87427D01*
X258760Y88035D01*
X257169D01*
X255699Y87427D01*
X254573Y86301D01*
X253965Y84831D01*
Y83240D01*
X254573Y81770D01*
X255014Y81330D01*
X255623Y80536D01*
X255014Y79670D01*
X254609Y79266D01*
X254000Y77796D01*
Y76204D01*
X254609Y74734D01*
X255014Y74330D01*
X255651Y73500D01*
X255014Y72670D01*
X254609Y72266D01*
X254000Y70796D01*
Y69204D01*
X254609Y67734D01*
X255734Y66609D01*
X257204Y66000D01*
X258796D01*
X260266Y66609D01*
X261391Y67734D01*
X261478Y67944D01*
X268421D01*
X268806Y66674D01*
X268543Y66498D01*
X268083Y65811D01*
X267922Y65000D01*
X268083Y64189D01*
X268543Y63502D01*
X268987Y63204D01*
X269101Y62620D01*
Y62380D01*
X268987Y61796D01*
X268543Y61498D01*
X268083Y60811D01*
X267922Y60000D01*
X268083Y59189D01*
X268543Y58502D01*
X268987Y58204D01*
X269101Y57620D01*
Y57380D01*
X268987Y56796D01*
X268543Y56498D01*
X268083Y55811D01*
X267922Y55000D01*
X268083Y54189D01*
X268543Y53502D01*
X268987Y53204D01*
X269101Y52620D01*
Y52380D01*
X268987Y51796D01*
X268543Y51498D01*
X268083Y50811D01*
X267922Y50000D01*
X268083Y49189D01*
X268543Y48502D01*
X268806Y48326D01*
X268421Y47056D01*
X261812D01*
X261025Y46899D01*
X260358Y46453D01*
X260358Y46453D01*
X259580Y45675D01*
X258796Y46000D01*
X257204D01*
X255734Y45391D01*
X254609Y44266D01*
X254000Y42796D01*
Y41204D01*
X254609Y39734D01*
X255734Y38609D01*
X257204Y38000D01*
X258796D01*
X260266Y38609D01*
X261391Y39734D01*
X262000Y41204D01*
Y42281D01*
X262663Y42944D01*
X268421D01*
X268806Y41674D01*
X268543Y41498D01*
X268083Y40811D01*
X268023Y40508D01*
X275755D01*
X283487D01*
X283426Y40811D01*
X282967Y41498D01*
X282522Y41796D01*
X282409Y42380D01*
Y42620D01*
X282522Y43204D01*
X282967Y43502D01*
X283426Y44189D01*
X283588Y45000D01*
X283426Y45811D01*
X282967Y46498D01*
X282522Y46796D01*
X282409Y47380D01*
Y47620D01*
X282522Y48204D01*
X282967Y48502D01*
X283426Y49189D01*
X283588Y50000D01*
X283426Y50811D01*
X282967Y51498D01*
X282703Y51674D01*
X283089Y52944D01*
X381000D01*
X381000Y52944D01*
X381787Y53101D01*
X382453Y53547D01*
X393453Y64546D01*
X393899Y65213D01*
X394055Y66000D01*
X394055Y66000D01*
Y79149D01*
X395891Y80984D01*
X411016D01*
Y89016D01*
X395793D01*
X395295Y90167D01*
X395961Y90984D01*
X411016D01*
Y99016D01*
X395793D01*
X395295Y100167D01*
X395961Y100984D01*
X411016D01*
Y109016D01*
X392984D01*
Y103891D01*
X381547Y92453D01*
X381101Y91787D01*
X380945Y91000D01*
X380945Y91000D01*
Y71648D01*
X380536Y71366D01*
X379266Y72033D01*
Y78266D01*
X368734D01*
Y69234D01*
X377531D01*
X378057Y67964D01*
X377149Y67056D01*
X329688D01*
X329435Y68326D01*
X329516Y68359D01*
X330641Y69484D01*
X331250Y70954D01*
Y72546D01*
X330641Y74016D01*
X330516Y74141D01*
Y75964D01*
X330516Y76266D01*
Y77234D01*
X330516Y77536D01*
Y82464D01*
X330516Y82766D01*
Y83734D01*
X330516Y84036D01*
Y89266D01*
X323984D01*
Y89065D01*
X318266D01*
Y91266D01*
X307734D01*
Y81734D01*
X318266D01*
Y83935D01*
X322604D01*
X323299Y82665D01*
X322976Y82161D01*
X322768Y82120D01*
X321936Y81564D01*
X319273Y78901D01*
X318266Y78266D01*
X307734D01*
Y76190D01*
X305266D01*
Y78266D01*
X294734D01*
Y69234D01*
X305266D01*
Y71060D01*
X307734D01*
Y68734D01*
X318266D01*
Y72867D01*
X319432D01*
X320414Y73062D01*
X321246Y73618D01*
X321962Y74334D01*
X323408Y73984D01*
X323598Y73387D01*
X323250Y72546D01*
Y70954D01*
X323859Y69484D01*
X324984Y68359D01*
X325065Y68326D01*
X324812Y67056D01*
X283089D01*
X282703Y68326D01*
X282967Y68502D01*
X283426Y69189D01*
X283588Y70000D01*
X283426Y70811D01*
X282967Y71498D01*
X282522Y71796D01*
X282409Y72380D01*
Y72620D01*
X282522Y73204D01*
X282967Y73502D01*
X283426Y74189D01*
X283588Y75000D01*
X283426Y75811D01*
X282967Y76498D01*
X282522Y76796D01*
X282409Y77380D01*
Y77620D01*
X282522Y78204D01*
X282967Y78502D01*
X283426Y79189D01*
X283588Y80000D01*
X283426Y80811D01*
X282967Y81498D01*
X282703Y81674D01*
X283089Y82944D01*
X285128D01*
X285644Y81699D01*
X286770Y80573D01*
X288240Y79964D01*
X289831D01*
X291301Y80573D01*
X292426Y81699D01*
X293036Y83169D01*
Y84760D01*
X292426Y86230D01*
X291982Y86674D01*
X292508Y87944D01*
X294727D01*
X294734Y87937D01*
Y81734D01*
X305266D01*
Y90766D01*
X297719D01*
X297032Y91454D01*
X296365Y91899D01*
X295578Y92056D01*
X295578Y92056D01*
X290834D01*
X290581Y93326D01*
X291266Y93609D01*
X292391Y94734D01*
X293000Y96204D01*
Y97796D01*
X292391Y99266D01*
X291377Y100280D01*
X291317Y101000D01*
X291377Y101720D01*
X292391Y102734D01*
X293000Y104204D01*
Y105796D01*
X292391Y107266D01*
X291377Y108280D01*
X291317Y109000D01*
X291377Y109720D01*
X292391Y110734D01*
X293000Y112204D01*
Y113796D01*
X292391Y115266D01*
X292232Y115424D01*
X292758Y116694D01*
X297500D01*
X297500Y116694D01*
X297699Y116734D01*
X305266D01*
Y125766D01*
X294734D01*
Y120806D01*
X293122D01*
X292532Y122076D01*
X293000Y123204D01*
Y124796D01*
X292391Y126266D01*
X291982Y126674D01*
X292508Y127944D01*
X295188D01*
X295188Y127944D01*
X295975Y128101D01*
X296352Y128353D01*
X297204Y128000D01*
X298796D01*
X300266Y128609D01*
X301391Y129734D01*
X302000Y131204D01*
Y132796D01*
X301391Y134266D01*
X300266Y135391D01*
X298796Y136000D01*
X297204D01*
X295734Y135391D01*
X295270Y134927D01*
X294000Y135453D01*
Y135796D01*
X293391Y137266D01*
X292266Y138391D01*
X290796Y139000D01*
X289703D01*
X289158Y140251D01*
X292453Y143546D01*
X292899Y144213D01*
X293055Y145000D01*
X293055Y145000D01*
Y151750D01*
X293464Y152054D01*
X294734Y151734D01*
Y151734D01*
X305266D01*
Y160766D01*
X294734D01*
Y158227D01*
X293922D01*
X293135Y158071D01*
X292468Y157625D01*
X290326Y155483D01*
X289056Y156009D01*
Y178148D01*
X293464Y182557D01*
X294734Y182031D01*
Y174234D01*
X305266D01*
Y176060D01*
X307734D01*
Y173734D01*
X318266D01*
Y177867D01*
X319432D01*
X320414Y178062D01*
X321246Y178618D01*
X321962Y179334D01*
X323408Y178984D01*
X323598Y178387D01*
X323250Y177546D01*
Y175954D01*
X323859Y174484D01*
X324984Y173359D01*
X326454Y172750D01*
X328046D01*
X329516Y173359D01*
X330641Y174484D01*
X331250Y175954D01*
Y177546D01*
X330641Y179016D01*
X330516Y179141D01*
Y180964D01*
X330516Y181266D01*
Y182234D01*
X330516Y182536D01*
Y187464D01*
X330516Y187766D01*
Y188734D01*
X330516Y189036D01*
Y194266D01*
X323984D01*
Y194065D01*
X318266D01*
Y196266D01*
D02*
G37*
G36*
X379266Y183266D02*
X368734D01*
Y174234D01*
X379266D01*
Y183266D01*
D02*
G37*
G36*
X467016Y179016D02*
X448984D01*
Y170984D01*
X467016D01*
Y179016D01*
D02*
G37*
G36*
X411016D02*
X392984D01*
Y170984D01*
X411016D01*
Y179016D01*
D02*
G37*
G36*
X140000Y183588D02*
X139189Y183426D01*
X138502Y182967D01*
X138042Y182280D01*
X137881Y181469D01*
Y170041D01*
X137944Y169721D01*
Y160812D01*
X137944Y160812D01*
X138101Y160025D01*
X138353Y159648D01*
X138000Y158796D01*
Y157204D01*
X138609Y155734D01*
X139734Y154609D01*
X141204Y154000D01*
X142796D01*
X144266Y154609D01*
X145391Y155734D01*
X146000Y157204D01*
Y158796D01*
X145391Y160266D01*
X144266Y161391D01*
X142796Y162000D01*
X142056D01*
Y168421D01*
X143326Y168806D01*
X143502Y168543D01*
X144189Y168083D01*
X144492Y168023D01*
Y175755D01*
Y183487D01*
X144189Y183426D01*
X143502Y182967D01*
X143204Y182522D01*
X142620Y182409D01*
X142380D01*
X141796Y182522D01*
X141498Y182967D01*
X140811Y183426D01*
X140000Y183588D01*
D02*
G37*
G36*
X411016Y169016D02*
X402508D01*
Y165508D01*
X411016D01*
Y169016D01*
D02*
G37*
G36*
X401492D02*
X392984D01*
Y165508D01*
X401492D01*
Y169016D01*
D02*
G37*
G36*
X281469Y162119D02*
X270041D01*
X269721Y162055D01*
X260812D01*
X260025Y161899D01*
X259648Y161647D01*
X258796Y162000D01*
X257204D01*
X255734Y161391D01*
X254609Y160266D01*
X254000Y158796D01*
Y157204D01*
X254609Y155734D01*
X255734Y154609D01*
X257204Y154000D01*
X258796D01*
X260266Y154609D01*
X261391Y155734D01*
X262000Y157204D01*
Y157944D01*
X268421D01*
X268806Y156674D01*
X268543Y156498D01*
X268083Y155811D01*
X268023Y155508D01*
X275755D01*
X283487D01*
X283426Y155811D01*
X282967Y156498D01*
X282522Y156796D01*
X282409Y157380D01*
Y157620D01*
X282522Y158204D01*
X282967Y158502D01*
X283426Y159189D01*
X283588Y160000D01*
X283426Y160811D01*
X282967Y161498D01*
X282280Y161958D01*
X281469Y162119D01*
D02*
G37*
G36*
X467016Y169016D02*
X448984D01*
Y160984D01*
X467016D01*
Y169016D01*
D02*
G37*
G36*
X411016Y164492D02*
X402508D01*
Y160984D01*
X411016D01*
Y164492D01*
D02*
G37*
G36*
X401492D02*
X392984D01*
Y160984D01*
X401492D01*
Y164492D01*
D02*
G37*
G36*
X385796Y163500D02*
X384204D01*
X382734Y162891D01*
X381609Y161766D01*
X381000Y160296D01*
Y158704D01*
X381609Y157234D01*
X382734Y156109D01*
X384204Y155500D01*
X385796D01*
X387266Y156109D01*
X388391Y157234D01*
X389000Y158704D01*
Y160296D01*
X388391Y161766D01*
X387266Y162891D01*
X385796Y163500D01*
D02*
G37*
G36*
X421046Y163500D02*
X419454D01*
X417984Y162891D01*
X416859Y161766D01*
X416250Y160296D01*
Y158704D01*
X416859Y157234D01*
X417984Y156109D01*
X419454Y155500D01*
X421046D01*
X422516Y156109D01*
X423641Y157234D01*
X424250Y158704D01*
Y160296D01*
X423641Y161766D01*
X422516Y162891D01*
X421046Y163500D01*
D02*
G37*
G36*
X347546Y162250D02*
X345954D01*
X344484Y161641D01*
X343359Y160516D01*
X342750Y159046D01*
Y157454D01*
X343359Y155984D01*
X343484Y155859D01*
Y154036D01*
X343484Y153734D01*
Y152766D01*
X343484Y152464D01*
Y147536D01*
X343484Y147234D01*
Y146266D01*
X343484Y145964D01*
Y140734D01*
X350016D01*
Y140935D01*
X355734D01*
Y138734D01*
X366266D01*
Y148266D01*
X355734D01*
Y146065D01*
X351396D01*
X350701Y147335D01*
X351024Y147839D01*
X351232Y147880D01*
X352064Y148436D01*
X354727Y151099D01*
X355734Y151734D01*
X366266D01*
Y153810D01*
X368734D01*
Y151734D01*
X379266D01*
Y160766D01*
X368734D01*
Y158940D01*
X366266D01*
Y161266D01*
X355734D01*
Y157133D01*
X354568D01*
X353586Y156938D01*
X352754Y156382D01*
X352038Y155666D01*
X350592Y156016D01*
X350402Y156613D01*
X350750Y157454D01*
Y159046D01*
X350141Y160516D01*
X349016Y161641D01*
X347546Y162250D01*
D02*
G37*
G36*
X467016Y159016D02*
X448984D01*
Y150984D01*
X467016D01*
Y159016D01*
D02*
G37*
G36*
X411016D02*
X392984D01*
Y150984D01*
X411016D01*
Y159016D01*
D02*
G37*
G36*
X318266Y161266D02*
X307734D01*
Y151734D01*
X318266D01*
Y153935D01*
X322604D01*
X323299Y152665D01*
X322976Y152161D01*
X322768Y152120D01*
X321936Y151564D01*
X319273Y148901D01*
X318266Y148266D01*
X307734D01*
Y146190D01*
X305266D01*
Y148266D01*
X294734D01*
Y139234D01*
X305266D01*
Y141060D01*
X307734D01*
Y138734D01*
X318266D01*
Y142867D01*
X319432D01*
X320414Y143062D01*
X321246Y143618D01*
X321855Y144227D01*
X323318Y143894D01*
X323495Y143388D01*
X323250Y142796D01*
Y141204D01*
X323859Y139734D01*
X324984Y138609D01*
X326454Y138000D01*
X328046D01*
X329516Y138609D01*
X330641Y139734D01*
X331250Y141204D01*
Y142796D01*
X330641Y144266D01*
X330516Y144391D01*
Y145964D01*
X330516Y146266D01*
Y147234D01*
X330516Y147536D01*
Y152464D01*
X330516Y152766D01*
Y153734D01*
X330516Y154036D01*
Y159266D01*
X323984D01*
Y159065D01*
X318266D01*
Y161266D01*
D02*
G37*
G36*
X467016Y149016D02*
X448984D01*
Y140984D01*
X467016D01*
Y149016D01*
D02*
G37*
G36*
X411016D02*
X392984D01*
Y140984D01*
X411016D01*
Y149016D01*
D02*
G37*
G36*
X379266Y148266D02*
X368734D01*
Y139234D01*
X379266D01*
Y148266D01*
D02*
G37*
G36*
X467016Y139016D02*
X448984D01*
Y130984D01*
X467016D01*
Y139016D01*
D02*
G37*
G36*
X411016D02*
X392984D01*
Y130984D01*
X411016D01*
Y139016D01*
D02*
G37*
G36*
X385796Y132000D02*
X384204D01*
X382734Y131391D01*
X381609Y130266D01*
X381000Y128796D01*
Y127204D01*
X381609Y125734D01*
X382734Y124609D01*
X384204Y124000D01*
X385796D01*
X387266Y124609D01*
X388391Y125734D01*
X389000Y127204D01*
Y128796D01*
X388391Y130266D01*
X387266Y131391D01*
X385796Y132000D01*
D02*
G37*
G36*
X467016Y129016D02*
X448984D01*
Y120984D01*
X467016D01*
Y129016D01*
D02*
G37*
G36*
X411016D02*
X392984D01*
Y120984D01*
X411016D01*
Y129016D01*
D02*
G37*
G36*
X421046Y128500D02*
X419454D01*
X417984Y127891D01*
X416859Y126766D01*
X416250Y125296D01*
Y123704D01*
X416859Y122234D01*
X417984Y121109D01*
X419454Y120500D01*
X421046D01*
X422516Y121109D01*
X423641Y122234D01*
X424250Y123704D01*
Y125296D01*
X423641Y126766D01*
X422516Y127891D01*
X421046Y128500D01*
D02*
G37*
G36*
X347546Y128968D02*
X345954D01*
X344484Y128359D01*
X343359Y127234D01*
X342750Y125764D01*
Y124172D01*
X343359Y122702D01*
X343484Y122577D01*
Y119036D01*
X343484Y118734D01*
Y117766D01*
X343484Y117464D01*
Y112536D01*
X343484Y112234D01*
Y111266D01*
X343484Y110964D01*
Y105734D01*
X350016D01*
Y105935D01*
X355734D01*
Y103734D01*
X366266D01*
Y113266D01*
X355734D01*
Y111065D01*
X351642D01*
X351087Y112091D01*
X351327Y112545D01*
X352039Y112687D01*
X352871Y113243D01*
X356313Y116685D01*
X358750D01*
X358998Y116734D01*
X366266D01*
Y118810D01*
X368734D01*
Y116734D01*
X379266D01*
Y125766D01*
X368734D01*
Y123940D01*
X366266D01*
Y126266D01*
X355734D01*
Y121815D01*
X355250D01*
X354268Y121620D01*
X353436Y121064D01*
X351286Y118914D01*
X350016Y119440D01*
Y122577D01*
X350141Y122702D01*
X350750Y124172D01*
Y125764D01*
X350141Y127234D01*
X349016Y128359D01*
X347546Y128968D01*
D02*
G37*
G36*
X385796Y122000D02*
X384204D01*
X382734Y121391D01*
X381609Y120266D01*
X381000Y118796D01*
Y117204D01*
X381609Y115734D01*
X382734Y114609D01*
X384204Y114000D01*
X385796D01*
X387266Y114609D01*
X388391Y115734D01*
X389000Y117204D01*
Y118796D01*
X388391Y120266D01*
X387266Y121391D01*
X385796Y122000D01*
D02*
G37*
G36*
X318266Y126266D02*
X307734D01*
Y116734D01*
X318266D01*
Y118935D01*
X322604D01*
X323299Y117665D01*
X322976Y117161D01*
X322768Y117120D01*
X321936Y116564D01*
X319273Y113901D01*
X318266Y113266D01*
X307734D01*
Y111190D01*
X305266D01*
Y113266D01*
X294734D01*
Y104234D01*
X305266D01*
Y106060D01*
X307734D01*
Y103734D01*
X318266D01*
Y107867D01*
X319432D01*
X320414Y108062D01*
X321246Y108618D01*
X321962Y109334D01*
X323408Y108984D01*
X323598Y108387D01*
X323250Y107546D01*
Y105954D01*
X323859Y104484D01*
X324984Y103359D01*
X326454Y102750D01*
X328046D01*
X329516Y103359D01*
X330641Y104484D01*
X331250Y105954D01*
Y107546D01*
X330641Y109016D01*
X330516Y109141D01*
Y110964D01*
X330516Y111266D01*
Y112234D01*
X330516Y112536D01*
Y117464D01*
X330516Y117766D01*
Y118734D01*
X330516Y119036D01*
Y124266D01*
X323984D01*
Y124065D01*
X318266D01*
Y126266D01*
D02*
G37*
G36*
X467016Y119016D02*
X448984D01*
Y110984D01*
X467016D01*
Y119016D01*
D02*
G37*
G36*
X411016D02*
X392984D01*
Y110984D01*
X411016D01*
Y119016D01*
D02*
G37*
G36*
X379266Y113266D02*
X368734D01*
Y104234D01*
X379266D01*
Y113266D01*
D02*
G37*
G36*
X467016Y109016D02*
X448984D01*
Y100984D01*
X467016D01*
Y109016D01*
D02*
G37*
G36*
Y99016D02*
X448984D01*
Y90984D01*
X467016D01*
Y99016D01*
D02*
G37*
G36*
X347546Y92250D02*
X345954D01*
X344484Y91641D01*
X343359Y90516D01*
X342750Y89046D01*
Y87454D01*
X343359Y85984D01*
X343484Y85859D01*
Y84036D01*
X343484Y83734D01*
Y82766D01*
X343484Y82464D01*
Y77536D01*
X343484Y77234D01*
Y76266D01*
X343484Y75964D01*
Y70734D01*
X350016D01*
Y70935D01*
X355734D01*
Y68734D01*
X366266D01*
Y78266D01*
X355734D01*
Y76065D01*
X351642D01*
X351087Y77091D01*
X351327Y77545D01*
X352039Y77687D01*
X352871Y78243D01*
X356313Y81685D01*
X358750D01*
X358998Y81734D01*
X366266D01*
Y83810D01*
X368734D01*
Y81734D01*
X379266D01*
Y90766D01*
X368734D01*
Y88940D01*
X366266D01*
Y91266D01*
X355734D01*
Y86815D01*
X355250D01*
X354268Y86620D01*
X353436Y86064D01*
X351286Y83914D01*
X350016Y84440D01*
Y85859D01*
X350141Y85984D01*
X350750Y87454D01*
Y89046D01*
X350141Y90516D01*
X349016Y91641D01*
X347546Y92250D01*
D02*
G37*
G36*
X467016Y89016D02*
X448984D01*
Y80984D01*
X467016D01*
Y89016D01*
D02*
G37*
G36*
X63796Y93500D02*
X62204D01*
X61036Y93016D01*
X57984D01*
Y85984D01*
X61036D01*
X61057Y85975D01*
X61247Y84522D01*
X60645Y84016D01*
X57984D01*
Y76984D01*
X61036D01*
X62204Y76500D01*
X63796D01*
X64964Y76984D01*
X68016D01*
Y84016D01*
X64964D01*
X64943Y84025D01*
X64753Y85478D01*
X65355Y85984D01*
X68016D01*
Y93016D01*
X64964D01*
X63796Y93500D01*
D02*
G37*
G36*
X436016Y77016D02*
X426508D01*
Y72258D01*
X436016D01*
Y77016D01*
D02*
G37*
G36*
X425492D02*
X415984D01*
Y72258D01*
X425492D01*
Y77016D01*
D02*
G37*
G36*
X436016Y71242D02*
X426508D01*
Y66484D01*
X436016D01*
Y71242D01*
D02*
G37*
G36*
X425492D02*
X415984D01*
Y66484D01*
X425492D01*
Y71242D01*
D02*
G37*
G36*
X112577Y62577D02*
X108163D01*
Y58508D01*
X112577D01*
Y62577D01*
D02*
G37*
G36*
X76837D02*
X72423D01*
Y58508D01*
X76837D01*
Y62577D01*
D02*
G37*
G36*
X47796Y93500D02*
X46204D01*
X45036Y93016D01*
X41984D01*
Y85984D01*
X44435D01*
Y84016D01*
X41984D01*
Y76984D01*
X44435D01*
Y73016D01*
X41984D01*
Y65984D01*
X44435D01*
Y64016D01*
X41984D01*
Y56984D01*
X52016D01*
Y64016D01*
X49565D01*
Y65984D01*
X52016D01*
Y73016D01*
X49565D01*
Y76984D01*
X52016D01*
Y84016D01*
X49565D01*
Y85984D01*
X52016D01*
Y93016D01*
X48964D01*
X47796Y93500D01*
D02*
G37*
G36*
X63796Y73500D02*
X62204D01*
X61036Y73016D01*
X57984D01*
Y65984D01*
X61036D01*
X61057Y65975D01*
X61247Y64522D01*
X60645Y64016D01*
X57984D01*
Y56984D01*
X61036D01*
X62204Y56500D01*
X63796D01*
X64964Y56984D01*
X68016D01*
Y64016D01*
X64964D01*
X64943Y64025D01*
X64753Y65478D01*
X65355Y65984D01*
X68016D01*
Y73016D01*
X64964D01*
X63796Y73500D01*
D02*
G37*
G36*
X112577Y57492D02*
X108163D01*
Y53423D01*
X112577D01*
Y57492D01*
D02*
G37*
G36*
X76837Y57492D02*
X72423D01*
Y53423D01*
X76837D01*
Y57492D01*
D02*
G37*
G36*
X360796Y50500D02*
X359204D01*
X358036Y50016D01*
X351484D01*
Y42484D01*
X368516D01*
Y50016D01*
X361964D01*
X360796Y50500D01*
D02*
G37*
G36*
X410796Y50250D02*
X409204D01*
X408639Y50016D01*
X401484D01*
Y42484D01*
X408639D01*
X409204Y42250D01*
X410796D01*
X411361Y42484D01*
X418516D01*
Y50016D01*
X411361D01*
X410796Y50250D01*
D02*
G37*
G36*
X142796Y46000D02*
X141204D01*
X139734Y45391D01*
X138609Y44266D01*
X138000Y42796D01*
Y42056D01*
X131579D01*
X131194Y43326D01*
X131457Y43502D01*
X131917Y44189D01*
X131977Y44492D01*
X124245D01*
X116513D01*
X116574Y44189D01*
X117033Y43502D01*
X117478Y43204D01*
X117591Y42620D01*
Y42380D01*
X117478Y41796D01*
X117033Y41498D01*
X116574Y40811D01*
X116412Y40000D01*
X116574Y39189D01*
X117033Y38502D01*
X117720Y38042D01*
X118531Y37881D01*
X129959D01*
X130279Y37945D01*
X139188D01*
X139188Y37945D01*
X139975Y38101D01*
X140352Y38353D01*
X141204Y38000D01*
X142796D01*
X144266Y38609D01*
X145391Y39734D01*
X146000Y41204D01*
Y42796D01*
X145391Y44266D01*
X144266Y45391D01*
X142796Y46000D01*
D02*
G37*
G36*
X70796Y48250D02*
X69204D01*
X68639Y48016D01*
X61484D01*
Y40484D01*
X68639D01*
X69204Y40250D01*
X70796D01*
X71361Y40484D01*
X78516D01*
Y48016D01*
X71361D01*
X70796Y48250D01*
D02*
G37*
G36*
X330016Y47016D02*
X324258D01*
Y40008D01*
X330016D01*
Y47016D01*
D02*
G37*
G36*
X323242D02*
X317484D01*
Y40008D01*
X323242D01*
Y47016D01*
D02*
G37*
G36*
X283487Y39492D02*
X276263D01*
Y37881D01*
X281469D01*
X282280Y38042D01*
X282967Y38502D01*
X283426Y39189D01*
X283487Y39492D01*
D02*
G37*
G36*
X275247D02*
X268023D01*
X268083Y39189D01*
X268543Y38502D01*
X269230Y38042D01*
X270041Y37881D01*
X275247D01*
Y39492D01*
D02*
G37*
G36*
X330016Y38992D02*
X324258D01*
Y31984D01*
X330016D01*
Y38992D01*
D02*
G37*
G36*
X323242D02*
X317484D01*
Y31984D01*
X323242D01*
Y38992D01*
D02*
G37*
G36*
X410796Y37500D02*
X409204D01*
X407734Y36891D01*
X406609Y35766D01*
X406000Y34296D01*
Y32704D01*
X406609Y31234D01*
X407734Y30109D01*
X409204Y29500D01*
X410796D01*
X412266Y30109D01*
X413391Y31234D01*
X414000Y32704D01*
Y34296D01*
X413391Y35766D01*
X412266Y36891D01*
X410796Y37500D01*
D02*
G37*
G36*
X360796D02*
X359204D01*
X357734Y36891D01*
X356609Y35766D01*
X356000Y34296D01*
Y32704D01*
X356609Y31234D01*
X357734Y30109D01*
X359204Y29500D01*
X360796D01*
X362266Y30109D01*
X363391Y31234D01*
X364000Y32704D01*
Y34296D01*
X363391Y35766D01*
X362266Y36891D01*
X360796Y37500D01*
D02*
G37*
G36*
X92766Y86716D02*
Y86716D01*
X84984D01*
Y73284D01*
X88749D01*
X88851Y72771D01*
X89297Y72104D01*
X89437Y71964D01*
Y67309D01*
X89093Y66795D01*
X88937Y66009D01*
X88937Y66009D01*
Y62584D01*
X88930Y62577D01*
X77853D01*
Y58000D01*
Y53423D01*
X88930D01*
X88937Y53416D01*
Y30743D01*
X88937Y30743D01*
X89093Y29956D01*
X89538Y29289D01*
X91305Y27523D01*
X91305Y27523D01*
X91305Y27522D01*
X110530Y8297D01*
X110531Y8297D01*
X112297Y6531D01*
X112297Y6531D01*
X112964Y6085D01*
X113751Y5929D01*
X173772D01*
X173772Y5929D01*
X174559Y6085D01*
X175226Y6531D01*
X180461Y11766D01*
X180462Y11766D01*
X180907Y12433D01*
X181063Y13220D01*
X181063Y13220D01*
Y16654D01*
X181329Y16920D01*
X181498Y17033D01*
X181796Y17478D01*
X182380Y17592D01*
X182620D01*
X183204Y17478D01*
X183502Y17033D01*
X184189Y16574D01*
X184492Y16513D01*
Y24245D01*
Y31977D01*
X184189Y31917D01*
X183502Y31457D01*
X183204Y31013D01*
X182620Y30899D01*
X182380D01*
X181796Y31013D01*
X181498Y31457D01*
X180811Y31917D01*
X180000Y32078D01*
X179189Y31917D01*
X178502Y31457D01*
X178204Y31013D01*
X177620Y30899D01*
X177380D01*
X176796Y31013D01*
X176498Y31457D01*
X175811Y31917D01*
X175000Y32078D01*
X174189Y31917D01*
X173502Y31457D01*
X173204Y31013D01*
X172620Y30899D01*
X172380D01*
X171796Y31013D01*
X171498Y31457D01*
X170811Y31917D01*
X170000Y32078D01*
X169189Y31917D01*
X168502Y31457D01*
X168326Y31194D01*
X167055Y31579D01*
Y38108D01*
X168266Y38609D01*
X169391Y39734D01*
X170000Y41204D01*
Y42796D01*
X169391Y44266D01*
X168266Y45391D01*
X166796Y46000D01*
X165204D01*
X163734Y45391D01*
X162609Y44266D01*
X162000Y42796D01*
Y41204D01*
X162609Y39734D01*
X162945Y39399D01*
Y31579D01*
X161674Y31194D01*
X161498Y31457D01*
X160811Y31917D01*
X160000Y32078D01*
X159189Y31917D01*
X158502Y31457D01*
X158204Y31013D01*
X157620Y30899D01*
X157380D01*
X156796Y31013D01*
X156498Y31457D01*
X155811Y31917D01*
X155000Y32078D01*
X154189Y31917D01*
X153502Y31457D01*
X153204Y31013D01*
X152620Y30899D01*
X152380D01*
X151796Y31013D01*
X151498Y31457D01*
X150811Y31917D01*
X150000Y32078D01*
X149189Y31917D01*
X148502Y31457D01*
X148204Y31013D01*
X147620Y30899D01*
X147380D01*
X146796Y31013D01*
X146498Y31457D01*
X145811Y31917D01*
X145000Y32078D01*
X144189Y31917D01*
X143502Y31457D01*
X143348Y31228D01*
X142078Y31613D01*
Y32037D01*
X137922D01*
Y16453D01*
X142078D01*
Y16877D01*
X143348Y17262D01*
X143502Y17033D01*
X144189Y16574D01*
X145000Y16412D01*
X145811Y16574D01*
X146498Y17033D01*
X146796Y17478D01*
X147380Y17592D01*
X147620D01*
X148204Y17478D01*
X148502Y17033D01*
X149189Y16574D01*
X150000Y16412D01*
X150811Y16574D01*
X151498Y17033D01*
X151796Y17478D01*
X152380Y17592D01*
X152620D01*
X153204Y17478D01*
X153502Y17033D01*
X154189Y16574D01*
X155000Y16412D01*
X155811Y16574D01*
X156498Y17033D01*
X156796Y17478D01*
X157380Y17592D01*
X157620D01*
X158204Y17478D01*
X158502Y17033D01*
X159189Y16574D01*
X160000Y16412D01*
X160811Y16574D01*
X161498Y17033D01*
X161796Y17478D01*
X162380Y17592D01*
X162620D01*
X163204Y17478D01*
X163502Y17033D01*
X164189Y16574D01*
X165000Y16412D01*
X165811Y16574D01*
X166498Y17033D01*
X166796Y17478D01*
X167380Y17592D01*
X167620D01*
X168204Y17478D01*
X168502Y17033D01*
X169189Y16574D01*
X170000Y16412D01*
X170811Y16574D01*
X171498Y17033D01*
X171796Y17478D01*
X172380Y17592D01*
X172620D01*
X173204Y17478D01*
X173502Y17033D01*
X173671Y16920D01*
X173937Y16654D01*
Y15320D01*
X171672Y13055D01*
X115851D01*
X96063Y32843D01*
Y53416D01*
X96070Y53423D01*
X107147D01*
Y58000D01*
Y62577D01*
X96070D01*
X96063Y62584D01*
Y63959D01*
X96407Y64473D01*
X96564Y65259D01*
X96564Y65260D01*
Y71964D01*
X96703Y72104D01*
X96704Y72104D01*
X97149Y72771D01*
X97251Y73284D01*
X101016D01*
Y86716D01*
X93234D01*
Y86716D01*
X92766D01*
D02*
G37*
G36*
X368516Y17516D02*
X360508D01*
Y14258D01*
X368516D01*
Y17516D01*
D02*
G37*
G36*
X359492D02*
X351484D01*
Y14258D01*
X359492D01*
Y17516D01*
D02*
G37*
G36*
X78516Y15516D02*
X70508D01*
Y12258D01*
X78516D01*
Y15516D01*
D02*
G37*
G36*
X69492D02*
X61484D01*
Y12258D01*
X69492D01*
Y15516D01*
D02*
G37*
G36*
X368516Y13242D02*
X360508D01*
Y9984D01*
X368516D01*
Y13242D01*
D02*
G37*
G36*
X359492D02*
X351484D01*
Y9984D01*
X359492D01*
Y13242D01*
D02*
G37*
G36*
X410796Y17750D02*
X409204D01*
X408639Y17516D01*
X401484D01*
Y9984D01*
X408639D01*
X409204Y9750D01*
X410796D01*
X411361Y9984D01*
X418516D01*
Y17516D01*
X411361D01*
X410796Y17750D01*
D02*
G37*
G36*
X312516Y15992D02*
X306758D01*
Y8984D01*
X312516D01*
Y15992D01*
D02*
G37*
G36*
X305742D02*
X299984D01*
Y8984D01*
X305742D01*
Y15992D01*
D02*
G37*
G36*
X78516Y11242D02*
X70508D01*
Y7984D01*
X78516D01*
Y11242D01*
D02*
G37*
G36*
X69492D02*
X61484D01*
Y7984D01*
X69492D01*
Y11242D01*
D02*
G37*
%LPD*%
G36*
X227360Y363505D02*
Y355758D01*
X233000D01*
Y354742D01*
X227360D01*
Y346995D01*
X227787Y345964D01*
X216500Y339939D01*
Y342250D01*
X216178Y343028D01*
X215400Y343350D01*
X213500D01*
Y343650D01*
X215400D01*
X216178Y343972D01*
X216500Y344750D01*
Y348750D01*
X216192Y349492D01*
X204000D01*
Y350508D01*
X216192D01*
X216500Y351250D01*
Y355250D01*
X216178Y356028D01*
X215400Y356350D01*
X213500D01*
Y356650D01*
X215400D01*
X216178Y356972D01*
X216500Y357750D01*
Y361750D01*
X216178Y362528D01*
X215936Y362628D01*
X222511Y363330D01*
X227508Y363863D01*
X227360Y363505D01*
D02*
G37*
G36*
X181384Y360258D02*
X184900D01*
Y359750D01*
X185408D01*
Y356984D01*
X187400D01*
Y356016D01*
X185408D01*
Y353250D01*
Y350484D01*
X187400D01*
Y349516D01*
X185408D01*
Y346750D01*
X184900D01*
Y346242D01*
X181384D01*
Y344440D01*
X180556Y343984D01*
X171616Y339060D01*
Y339742D01*
X168100D01*
Y340250D01*
X167592D01*
Y343016D01*
X165600D01*
Y343984D01*
X167592D01*
Y346750D01*
Y349516D01*
X165600D01*
Y350484D01*
X167592D01*
Y353250D01*
X168100D01*
Y353758D01*
X171616D01*
Y355560D01*
X181384Y360940D01*
Y360258D01*
D02*
G37*
%LPC*%
G36*
X184392Y359242D02*
X181384D01*
Y356984D01*
X184392D01*
Y359242D01*
D02*
G37*
G36*
X184392Y356016D02*
X181384D01*
Y353758D01*
X184392D01*
Y356016D01*
D02*
G37*
G36*
Y352742D02*
X181384D01*
Y350484D01*
X184392D01*
Y352742D01*
D02*
G37*
G36*
X171616Y352742D02*
X168608D01*
Y350484D01*
X171616D01*
Y352742D01*
D02*
G37*
G36*
Y349516D02*
X168608D01*
Y347258D01*
X171616D01*
Y349516D01*
D02*
G37*
G36*
X184392D02*
X181384D01*
Y347258D01*
X184392D01*
Y349516D01*
D02*
G37*
G36*
X171616Y346242D02*
X168608D01*
Y343984D01*
X171616D01*
Y346242D01*
D02*
G37*
G36*
Y343016D02*
X168608D01*
Y340758D01*
X171616D01*
Y343016D01*
D02*
G37*
%LPD*%
G36*
X136500Y357750D02*
X136822Y356972D01*
X137600Y356650D01*
X139500D01*
Y356350D01*
X137600D01*
X136822Y356028D01*
X136500Y355250D01*
Y351250D01*
X136808Y350508D01*
X149000D01*
Y349492D01*
X136808D01*
X136500Y348750D01*
Y344750D01*
X136822Y343972D01*
X137600Y343650D01*
X139500D01*
Y343350D01*
X137600D01*
X136822Y343028D01*
X136500Y342250D01*
Y338492D01*
X130066Y339656D01*
Y349492D01*
X123335D01*
Y350508D01*
X130066D01*
Y360344D01*
X136500Y361508D01*
Y357750D01*
D02*
G37*
G36*
X239000Y268500D02*
X235000Y263500D01*
X228000D01*
Y277000D01*
X239000D01*
Y268500D01*
D02*
G37*
G36*
X202734Y240734D02*
X211457D01*
X211796Y240226D01*
X212147Y239875D01*
Y238250D01*
X211233Y237266D01*
X202734D01*
Y226641D01*
X191749Y215655D01*
X191584D01*
X190616Y216384D01*
X190616Y216926D01*
Y219492D01*
X187000D01*
X183384D01*
Y216886D01*
X183384Y215616D01*
X183384Y215326D01*
X182873Y214056D01*
X175327D01*
Y217290D01*
X167416D01*
X167218Y217330D01*
X167217Y217329D01*
X161577D01*
X152293Y226614D01*
X152819Y227884D01*
X155492D01*
Y231000D01*
Y234116D01*
X152819D01*
X152293Y235386D01*
X161577Y244671D01*
X167217D01*
X167218Y244671D01*
X167416Y244710D01*
X175327D01*
Y247945D01*
X182486D01*
X183384Y247046D01*
X183384Y245616D01*
X183384Y245114D01*
Y242508D01*
X187000D01*
X190616D01*
Y245114D01*
X190616Y246384D01*
X190616Y246674D01*
X191127Y247945D01*
X202734D01*
Y240734D01*
D02*
G37*
G36*
X239000Y249500D02*
Y241000D01*
X228000D01*
Y254500D01*
X235000D01*
X239000Y249500D01*
D02*
G37*
%LPC*%
G36*
X190616Y241492D02*
X187508D01*
Y238384D01*
X190616D01*
Y241492D01*
D02*
G37*
G36*
X186492D02*
X183384D01*
Y238384D01*
X186492D01*
Y241492D01*
D02*
G37*
G36*
X191508Y234616D02*
Y231508D01*
X194616D01*
Y234616D01*
X191508D01*
D02*
G37*
G36*
X160516Y234116D02*
X156508D01*
Y231508D01*
X160516D01*
Y234116D01*
D02*
G37*
G36*
Y230492D02*
X156508D01*
Y227884D01*
X160516D01*
Y230492D01*
D02*
G37*
G36*
X194616D02*
X191508D01*
Y227384D01*
X194616D01*
Y230492D01*
D02*
G37*
G36*
X175327Y241290D02*
X164673D01*
Y231693D01*
X169903D01*
X170303Y231000D01*
X169903Y230307D01*
X164673D01*
Y220710D01*
X175327D01*
Y226799D01*
X176963Y228435D01*
X179384D01*
Y227384D01*
X186114D01*
X187384Y227384D01*
X187886Y227384D01*
X190492D01*
Y231000D01*
Y234616D01*
X187886D01*
X186616Y234616D01*
X186114Y234616D01*
X179384D01*
Y233565D01*
X176963D01*
X175327Y235201D01*
Y241290D01*
D02*
G37*
G36*
X190616Y223616D02*
X187508D01*
Y220508D01*
X190616D01*
Y223616D01*
D02*
G37*
G36*
X186492D02*
X183384D01*
Y220508D01*
X186492D01*
Y223616D01*
D02*
G37*
%LPD*%
G36*
X280000Y263500D02*
X273000D01*
X269000Y268500D01*
Y277000D01*
X280000D01*
Y263500D01*
D02*
G37*
G36*
Y241000D02*
X269000D01*
Y249500D01*
X273000Y254500D01*
X280000D01*
Y241000D01*
D02*
G37*
G36*
X116556Y157707D02*
X116892Y156856D01*
X116988Y156432D01*
X116574Y155811D01*
X116412Y155000D01*
X116574Y154189D01*
X117033Y153502D01*
X117478Y153204D01*
X117591Y152620D01*
Y152380D01*
X117478Y151796D01*
X117033Y151498D01*
X116574Y150811D01*
X116412Y150000D01*
X116574Y149189D01*
X117033Y148502D01*
X117478Y148204D01*
X117591Y147620D01*
Y147380D01*
X117478Y146796D01*
X117033Y146498D01*
X116574Y145811D01*
X116412Y145000D01*
X116574Y144189D01*
X117033Y143502D01*
X117478Y143204D01*
X117591Y142620D01*
Y142380D01*
X117478Y141796D01*
X117033Y141498D01*
X116574Y140811D01*
X116412Y140000D01*
X116574Y139189D01*
X117033Y138502D01*
X117478Y138204D01*
X117591Y137620D01*
Y137380D01*
X117478Y136796D01*
X117033Y136498D01*
X116574Y135811D01*
X116412Y135000D01*
X116574Y134189D01*
X117033Y133502D01*
X117478Y133204D01*
X117591Y132620D01*
Y132380D01*
X117478Y131796D01*
X117033Y131498D01*
X116574Y130811D01*
X116412Y130000D01*
X116574Y129189D01*
X117033Y128502D01*
X117478Y128204D01*
X117591Y127620D01*
Y127380D01*
X117478Y126796D01*
X117033Y126498D01*
X116574Y125811D01*
X116412Y125000D01*
X116574Y124189D01*
X117033Y123502D01*
X117478Y123204D01*
X117591Y122620D01*
Y122380D01*
X117478Y121796D01*
X117033Y121498D01*
X116574Y120811D01*
X116412Y120000D01*
X116574Y119189D01*
X117033Y118502D01*
X117478Y118204D01*
X117591Y117620D01*
Y117380D01*
X117478Y116796D01*
X117033Y116498D01*
X116574Y115811D01*
X116412Y115000D01*
X116574Y114189D01*
X117033Y113502D01*
X117478Y113204D01*
X117591Y112620D01*
Y112380D01*
X117478Y111796D01*
X117033Y111498D01*
X116574Y110811D01*
X116412Y110000D01*
X116574Y109189D01*
X117033Y108502D01*
X117478Y108204D01*
X117591Y107620D01*
Y107380D01*
X117478Y106796D01*
X117033Y106498D01*
X116574Y105811D01*
X116412Y105000D01*
X116574Y104189D01*
X117033Y103502D01*
X117478Y103204D01*
X117591Y102620D01*
Y102380D01*
X117478Y101796D01*
X117033Y101498D01*
X116574Y100811D01*
X116412Y100000D01*
X116574Y99189D01*
X116988Y98568D01*
X116892Y98144D01*
X116556Y97293D01*
X115719Y97188D01*
X112056Y100851D01*
Y127000D01*
X111899Y127787D01*
X111454Y128454D01*
X103454Y136454D01*
X102787Y136899D01*
X102000Y137056D01*
X102000Y137056D01*
X58685D01*
X58054Y138578D01*
X56278Y140354D01*
X55534Y140663D01*
Y142037D01*
X56278Y142346D01*
X58054Y144122D01*
X58685Y145645D01*
X102700D01*
X102700Y145645D01*
X103487Y145801D01*
X104153Y146247D01*
X115719Y157812D01*
X116556Y157707D01*
D02*
G37*
D12*
X184900Y365900D02*
X199000Y380000D01*
X184900Y359750D02*
Y365900D01*
X199000Y380000D02*
X211700D01*
X124245Y100000D02*
X149968D01*
X124245Y110000D02*
X149968D01*
X124245Y120000D02*
X149968D01*
X150000Y120032D01*
X149968Y110000D02*
X150000Y110032D01*
X149968Y100000D02*
X150000Y100032D01*
X207500Y85000D02*
X212000Y89500D01*
X215032Y91502D02*
Y139501D01*
X209000Y94000D02*
Y142000D01*
X212000Y89500D02*
Y92735D01*
X212016Y92751D01*
X200000Y85000D02*
X209000Y94000D01*
X215016Y91486D02*
X215032Y91502D01*
X215016Y85016D02*
Y91486D01*
X212016Y92751D02*
Y140751D01*
X215000Y85000D02*
X215016Y85016D01*
X230000Y158735D02*
Y175755D01*
X209000Y142000D02*
X225000Y158000D01*
Y175755D01*
X235000Y159469D02*
Y175755D01*
X212016Y140751D02*
X230000Y158735D01*
X215032Y139501D02*
X235000Y159469D01*
X190000Y331000D02*
Y345007D01*
X188828Y346179D02*
X190000Y345007D01*
X185471Y346179D02*
X188828D01*
X184900Y346750D02*
X185471Y346179D01*
X190000Y331000D02*
X196000Y325000D01*
X205000D02*
X210500Y319500D01*
X196000Y325000D02*
X205000D01*
X210500Y319500D02*
X211000D01*
X255000Y15000D02*
X258000Y12000D01*
X255000Y15000D02*
Y24245D01*
X242000Y12000D02*
X245000Y15000D01*
Y24245D01*
X250000Y12000D02*
Y24245D01*
X195992Y13220D02*
X205228Y3984D01*
X267000Y7000D02*
X288032Y28032D01*
X199008Y14469D02*
X206477Y7000D01*
X268249Y3984D02*
X289281Y25016D01*
X205228Y3984D02*
X268249D01*
X206477Y7000D02*
X267000D01*
X124245Y135000D02*
X142500D01*
X124245Y130000D02*
X150000D01*
X124245Y125000D02*
X142500D01*
X124245Y115000D02*
X142500D01*
X124245Y105000D02*
X142500D01*
X258000Y77000D02*
X258812D01*
X260812Y75000D01*
X275755D01*
X288224Y83965D02*
X289035D01*
X287188Y85000D02*
X288224Y83965D01*
X257964Y84036D02*
X258036D01*
X262071Y80000D01*
X285531Y100000D02*
X288531Y97000D01*
X289000D01*
X397000Y105000D02*
X402000D01*
X383000Y91000D02*
X397000Y105000D01*
X383000Y70000D02*
Y91000D01*
X397000Y95000D02*
X402000D01*
X387000Y85000D02*
X397000Y95000D01*
X387000Y68000D02*
Y85000D01*
X392000Y66000D02*
Y80000D01*
X394924Y82924D01*
X381000Y55000D02*
X392000Y66000D01*
X275755Y55000D02*
X381000D01*
X379000Y60000D02*
X387000Y68000D01*
X275755Y60000D02*
X379000D01*
X378000Y65000D02*
X383000Y70000D01*
X275755Y65000D02*
X378000D01*
X262071Y80000D02*
X275755D01*
X258000Y70000D02*
X275755D01*
X258000Y95000D02*
X258000Y95000D01*
X275755D01*
X258000Y110000D02*
X275755D01*
X242000Y188531D02*
Y189000D01*
Y188531D02*
X245000Y185531D01*
X275755Y85000D02*
X287188D01*
X275755Y90000D02*
X295578D01*
X299250Y86250D02*
X300000D01*
X296750Y88750D02*
Y88828D01*
X295578Y90000D02*
X296750Y88828D01*
Y88750D02*
X299250Y86250D01*
X275755Y100000D02*
X285531D01*
X275755Y105000D02*
X289000D01*
X286188Y115000D02*
X288188Y113000D01*
X275755Y115000D02*
X286188D01*
X288188Y113000D02*
X289000D01*
X285000Y120000D02*
X286250Y118750D01*
X275755Y120000D02*
X285000D01*
X286250Y118750D02*
X297500D01*
X300000Y121250D01*
X287188Y125000D02*
X288188Y124000D01*
X289000D01*
X275755Y125000D02*
X287188D01*
X297188Y132000D02*
X298000D01*
X275755Y130000D02*
X295188D01*
X297188Y132000D01*
X275755Y135000D02*
X290000D01*
X286000Y140000D02*
X291000Y145000D01*
X275755Y140000D02*
X286000D01*
X291000Y145000D02*
Y153250D01*
X293922Y156172D02*
X299922D01*
X300000Y156250D01*
X291000Y153250D02*
X293922Y156172D01*
X283828Y145024D02*
X287000Y148195D01*
Y179000D01*
X299250Y191250D01*
X300000D01*
X275779Y145024D02*
X283828D01*
X275755Y145000D02*
X275779Y145024D01*
X139672Y229492D02*
X146508D01*
X160726Y215274D02*
X167218D01*
X146508Y229492D02*
X160726Y215274D01*
X139672Y232508D02*
X146508D01*
X160726Y246726D02*
X167218D01*
X146508Y232508D02*
X160726Y246726D01*
X137400Y237500D02*
X138500Y236400D01*
X167218Y215274D02*
X170491Y212000D01*
X138500Y233680D02*
Y236400D01*
Y225600D02*
Y228320D01*
Y233680D02*
X139672Y232508D01*
X137400Y224500D02*
X138500Y225600D01*
X135664Y224500D02*
X137400D01*
X135664Y237500D02*
X137400D01*
X138500Y228320D02*
X139672Y229492D01*
X167218Y246726D02*
X170491Y250000D01*
X205000Y175755D02*
Y200000D01*
X258053Y211982D02*
X269413D01*
X258036Y211964D02*
X258053Y211982D01*
X269413D02*
X269431Y212000D01*
X269429Y227002D02*
X269431Y227004D01*
X258002Y227002D02*
X269429D01*
X258000Y227000D02*
X258002Y227002D01*
X160000Y175755D02*
Y193000D01*
X165000Y175755D02*
Y200000D01*
X170000Y193000D02*
X170000Y193000D01*
Y175755D02*
Y193000D01*
X175000Y175755D02*
Y200000D01*
X180000Y175755D02*
Y193000D01*
X185000Y175755D02*
Y200000D01*
X190000Y175755D02*
Y193000D01*
X195000Y175755D02*
Y200000D01*
X195000Y200000D02*
X195000Y200000D01*
X200000Y175755D02*
Y193000D01*
X210000Y175755D02*
Y193000D01*
X215000Y175755D02*
Y213000D01*
X229004Y227004D01*
X152000Y189000D02*
X155000Y186000D01*
X127000Y189000D02*
X152000D01*
X155000Y175755D02*
Y186000D01*
X110000Y89188D02*
X111155Y88034D01*
Y87377D02*
Y88034D01*
X110000Y89188D02*
Y90000D01*
X111155Y87377D02*
X118531Y80000D01*
X124245D01*
X110000Y80000D02*
X115000Y75000D01*
X124245D01*
X115000Y65000D02*
X124245D01*
X110000Y70000D02*
X115000Y65000D01*
X90992Y30743D02*
Y54268D01*
X113751Y7984D02*
X173772D01*
X111984Y9751D02*
X113751Y7984D01*
X111984Y9751D02*
Y9751D01*
X115000Y11000D02*
Y11000D01*
X94008Y31992D02*
X115000Y11000D01*
X90992Y30743D02*
X92759Y28976D01*
X94008Y31992D02*
X94008D01*
X92759Y28976D02*
X111984Y9751D01*
X92759Y28976D02*
X92759D01*
X115000Y11000D02*
X172523D01*
X94008Y31992D02*
Y54268D01*
X179008Y13220D02*
Y17506D01*
X173772Y7984D02*
X179008Y13220D01*
X175992Y14469D02*
Y17506D01*
X172523Y11000D02*
X175992Y14469D01*
X179008Y17506D02*
X180000Y18498D01*
X175000D02*
X175992Y17506D01*
X175000Y18498D02*
Y24245D01*
X180000Y18498D02*
Y24245D01*
X86655Y58000D02*
X89216Y55439D01*
X89820D01*
X95784D02*
X98345Y58000D01*
X95180Y55439D02*
X95784D01*
X94008Y54268D02*
X95180Y55439D01*
X89820D02*
X90992Y54268D01*
X86655Y58000D02*
X89216Y60561D01*
X89820D01*
X90992Y61732D02*
Y66009D01*
X91492Y66509D01*
Y72815D01*
X90750Y73557D02*
X91492Y72815D01*
X90750Y73557D02*
Y78125D01*
X94508Y65259D02*
Y72815D01*
X89820Y60561D02*
X90992Y61732D01*
X94008Y64759D02*
X94508Y65259D01*
X95250Y73557D02*
Y78125D01*
X94008Y61732D02*
Y64759D01*
X94508Y72815D02*
X95250Y73557D01*
Y78125D02*
X97125Y80000D01*
X88875D02*
X90750Y78125D01*
X94008Y61732D02*
X95180Y60561D01*
X95784D01*
X98345Y58000D01*
X309468Y28032D02*
X310640Y29204D01*
Y31204D01*
X310500Y31343D02*
X310640Y31204D01*
X310500Y31343D02*
Y35250D01*
X306250Y39500D02*
X310500Y35250D01*
X289281Y25016D02*
X310717D01*
X311367Y25666D01*
X315834D01*
X323750Y17750D01*
Y16500D02*
Y17750D01*
X288032Y28032D02*
X309468D01*
X200000Y18498D02*
Y24245D01*
X199008Y17506D02*
X200000Y18498D01*
X199008Y14469D02*
Y17506D01*
X195000Y18498D02*
Y24245D01*
Y18498D02*
X195992Y17506D01*
Y13220D02*
Y17506D01*
X269454Y201973D02*
X275277D01*
X280000Y197250D01*
Y186750D02*
Y197250D01*
X269431Y201998D02*
X269454Y201973D01*
X213250Y241680D02*
X214422Y240508D01*
X209000Y230000D02*
Y230500D01*
X213250Y241680D02*
Y243250D01*
X209000Y230500D02*
X213250Y234750D01*
X218499Y237492D02*
X221894Y240886D01*
X214422Y240508D02*
X217250D01*
X214422Y237492D02*
X218499D01*
X209000Y247500D02*
X213250Y243250D01*
X218878Y242136D02*
Y256854D01*
X217250Y240508D02*
X218878Y242136D01*
X221894Y240886D02*
Y255605D01*
X229004Y227004D02*
X238570D01*
X213250Y236320D02*
X214422Y237492D01*
X213250Y234750D02*
Y236320D01*
X220000Y175755D02*
Y209000D01*
X223000Y212000D01*
X238570D01*
X234680Y196472D02*
X235204Y196996D01*
X234680Y190492D02*
Y196472D01*
X235204Y196996D02*
X238570D01*
X234000Y189812D02*
X234680Y190492D01*
X234000Y189000D02*
Y189812D01*
X262000Y188000D02*
X266000D01*
X260000Y186000D02*
X262000Y188000D01*
X260000Y175755D02*
Y186000D01*
X245000Y175755D02*
Y185531D01*
X255000Y191000D02*
X260996Y196996D01*
X269431D01*
X255000Y175755D02*
Y191000D01*
X238570Y201998D02*
X246003D01*
X250000Y175755D02*
Y198000D01*
X246003Y201998D02*
X250000Y198000D01*
X141000Y319000D02*
X166250D01*
X166500Y319250D01*
X185500Y312750D02*
X186500D01*
X189000Y309250D02*
Y310250D01*
X191500Y306750D02*
X198000D01*
X186500Y312750D02*
X189000Y310250D01*
Y309250D02*
X191500Y306750D01*
X198250Y306500D02*
X211000D01*
X198000Y306750D02*
X198250Y306500D01*
X184900Y331600D02*
X197250Y319250D01*
X184900Y331600D02*
Y340250D01*
X197250Y319250D02*
X198000D01*
X164000Y380000D02*
X179000D01*
X164000Y379500D02*
Y380000D01*
X168100Y359750D02*
Y375400D01*
X164000Y379500D02*
X168100Y375400D01*
X290016Y229026D02*
Y253132D01*
X288249Y227259D02*
X288249D01*
X279981Y223256D02*
X287000Y230275D01*
X287000D02*
Y251883D01*
X288249Y227259D02*
X290016Y229026D01*
X282997Y222007D02*
Y222007D01*
X278984Y217994D02*
X282997Y222007D01*
X279981Y223256D02*
Y223256D01*
X287000Y230275D02*
X287000D01*
X282997Y222007D02*
X288249Y227259D01*
X276078Y217994D02*
X278984D01*
X275609Y217525D02*
X276078Y217994D01*
Y221010D02*
X277735D01*
X269431Y222003D02*
X269954Y221479D01*
X275609D01*
X276078Y221010D01*
X277735D02*
X279981Y223256D01*
X269431Y217001D02*
X269954Y217525D01*
X275609D01*
X285519Y257629D02*
X290016Y253132D01*
X285441Y257629D02*
X285519D01*
X284270Y254613D02*
X287000Y251883D01*
X274500Y246500D02*
X282613Y254613D01*
X284270D01*
X274500Y268571D02*
X285441Y257629D01*
X274500Y268571D02*
Y270250D01*
X218878Y256854D02*
X221906Y259883D01*
X224812D02*
X233500Y268570D01*
X221906Y259883D02*
X224812D01*
X233500Y268570D02*
Y270250D01*
X223156Y256867D02*
X224812D01*
X233500Y246500D02*
Y248179D01*
X224812Y256867D02*
X233500Y248179D01*
X221894Y255605D02*
X223156Y256867D01*
X188600Y213600D02*
X192600D01*
X209000Y230000D01*
X187000Y212000D02*
X188600Y213600D01*
X170491Y212000D02*
X187000D01*
X206500Y250000D02*
X209000Y247500D01*
X187000Y250000D02*
X206500D01*
X170491D02*
X187000D01*
X89000Y237680D02*
X90172Y236508D01*
X89000Y237680D02*
Y247500D01*
X90172Y236508D02*
X101992D01*
X105992Y232508D01*
X133392D02*
X134564Y233680D01*
X105992Y232508D02*
X133392D01*
X134564Y233680D02*
Y236400D01*
X135664Y237500D01*
X134564Y225600D02*
Y228320D01*
Y225600D02*
X135664Y224500D01*
X104743Y229492D02*
X133392D01*
X134564Y228320D01*
X90172Y233492D02*
X100743D01*
X104743Y229492D01*
X89000Y232320D02*
X90172Y233492D01*
X89000Y222500D02*
Y232320D01*
X98400Y160400D02*
X127000Y189000D01*
X52700Y160400D02*
X98400D01*
X102700Y147700D02*
X115000Y160000D01*
X52700Y147700D02*
X102700D01*
X115000Y160000D02*
X124245D01*
X102000Y135000D02*
X110000Y127000D01*
Y100000D02*
X115000Y95000D01*
X110000Y100000D02*
Y127000D01*
X115000Y95000D02*
X124245D01*
X52700Y135000D02*
X102000D01*
X140000Y160812D02*
Y175755D01*
X150000Y165000D02*
Y175755D01*
X165000Y40188D02*
X166000Y41188D01*
X226000Y42000D02*
X235000Y33000D01*
X234000Y42000D02*
X240000Y36000D01*
X166000Y41188D02*
Y42000D01*
X205000Y38188D02*
X208000Y41188D01*
X124245Y40000D02*
X139188D01*
X141188Y42000D01*
X208000Y41188D02*
Y42000D01*
X142000Y158000D02*
Y158812D01*
X141188Y42000D02*
X142000D01*
X157000Y158000D02*
X166000D01*
X124245Y70000D02*
X142000D01*
X258812Y158000D02*
X260812Y160000D01*
X258000Y158000D02*
X258812D01*
X260812Y160000D02*
X275755D01*
X263000Y150000D02*
X275755D01*
X240000Y24245D02*
Y36000D01*
X190000Y24245D02*
Y42000D01*
X165000Y24245D02*
Y40188D01*
X140000Y160812D02*
X142000Y158812D01*
X235000Y24245D02*
Y33000D01*
X205000Y24245D02*
Y38188D01*
X258000Y42000D02*
X258812D01*
X150000Y165000D02*
X157000Y158000D01*
X261812Y45000D02*
X275755D01*
X258000Y145000D02*
X263000Y150000D01*
X258812Y42000D02*
X261812Y45000D01*
D16*
X426000Y188250D02*
D03*
Y71750D02*
D03*
Y211750D02*
D03*
Y328250D02*
D03*
D17*
X402000Y175000D02*
D03*
Y165000D02*
D03*
Y155000D02*
D03*
Y145000D02*
D03*
Y135000D02*
D03*
Y125000D02*
D03*
Y115000D02*
D03*
Y105000D02*
D03*
Y95000D02*
D03*
Y85000D02*
D03*
X458000Y175000D02*
D03*
Y165000D02*
D03*
Y155000D02*
D03*
Y145000D02*
D03*
Y135000D02*
D03*
Y125000D02*
D03*
Y115000D02*
D03*
Y105000D02*
D03*
Y95000D02*
D03*
Y85000D02*
D03*
Y225000D02*
D03*
Y235000D02*
D03*
Y245000D02*
D03*
Y255000D02*
D03*
Y265000D02*
D03*
Y275000D02*
D03*
Y285000D02*
D03*
Y295000D02*
D03*
Y305000D02*
D03*
Y315000D02*
D03*
X402000Y225000D02*
D03*
Y235000D02*
D03*
Y245000D02*
D03*
Y255000D02*
D03*
Y265000D02*
D03*
Y275000D02*
D03*
Y285000D02*
D03*
Y295000D02*
D03*
Y305000D02*
D03*
Y315000D02*
D03*
D18*
X77345Y58000D02*
D03*
X86655D02*
D03*
X107655D02*
D03*
X98345D02*
D03*
D19*
X140000Y24245D02*
D03*
D20*
X145000D02*
D03*
X150000D02*
D03*
X155000D02*
D03*
X160000D02*
D03*
X165000D02*
D03*
X170000D02*
D03*
X175000D02*
D03*
X180000D02*
D03*
X185000D02*
D03*
X190000D02*
D03*
X195000D02*
D03*
X200000D02*
D03*
X205000D02*
D03*
X210000D02*
D03*
X215000D02*
D03*
X220000D02*
D03*
X225000D02*
D03*
X230000D02*
D03*
X235000D02*
D03*
X240000D02*
D03*
X245000D02*
D03*
X250000D02*
D03*
X255000D02*
D03*
X260000D02*
D03*
Y175755D02*
D03*
X255000D02*
D03*
X250000D02*
D03*
X245000D02*
D03*
X240000D02*
D03*
X235000D02*
D03*
X230000D02*
D03*
X225000D02*
D03*
X220000D02*
D03*
X215000D02*
D03*
X210000D02*
D03*
X205000D02*
D03*
X200000D02*
D03*
X195000D02*
D03*
X190000D02*
D03*
X185000D02*
D03*
X180000D02*
D03*
X175000D02*
D03*
X170000D02*
D03*
X165000D02*
D03*
X160000D02*
D03*
X155000D02*
D03*
X150000D02*
D03*
X145000D02*
D03*
X140000D02*
D03*
D21*
X275755Y40000D02*
D03*
Y45000D02*
D03*
Y50000D02*
D03*
Y55000D02*
D03*
Y60000D02*
D03*
Y65000D02*
D03*
Y70000D02*
D03*
Y75000D02*
D03*
Y80000D02*
D03*
Y85000D02*
D03*
Y90000D02*
D03*
Y95000D02*
D03*
Y100000D02*
D03*
Y105000D02*
D03*
Y110000D02*
D03*
Y115000D02*
D03*
Y120000D02*
D03*
Y125000D02*
D03*
Y130000D02*
D03*
Y135000D02*
D03*
Y140000D02*
D03*
Y145000D02*
D03*
Y150000D02*
D03*
Y155000D02*
D03*
Y160000D02*
D03*
X124245D02*
D03*
Y155000D02*
D03*
Y150000D02*
D03*
Y145000D02*
D03*
Y140000D02*
D03*
Y135000D02*
D03*
Y130000D02*
D03*
Y125000D02*
D03*
Y120000D02*
D03*
Y115000D02*
D03*
Y110000D02*
D03*
Y105000D02*
D03*
Y100000D02*
D03*
Y95000D02*
D03*
Y90000D02*
D03*
Y85000D02*
D03*
Y80000D02*
D03*
Y75000D02*
D03*
Y70000D02*
D03*
Y65000D02*
D03*
Y60000D02*
D03*
Y55000D02*
D03*
Y50000D02*
D03*
Y45000D02*
D03*
Y40000D02*
D03*
D22*
X410000Y46250D02*
D03*
Y13750D02*
D03*
X360000Y46250D02*
D03*
Y13750D02*
D03*
X70000Y44250D02*
D03*
Y11750D02*
D03*
D23*
X123335Y350000D02*
D03*
X96665D02*
D03*
D24*
X374000Y318750D02*
D03*
Y331250D02*
D03*
X374000Y283750D02*
D03*
Y296250D02*
D03*
X300000Y226250D02*
D03*
Y213750D02*
D03*
Y296250D02*
D03*
Y283750D02*
D03*
Y261250D02*
D03*
Y248750D02*
D03*
Y331250D02*
D03*
Y318750D02*
D03*
X374000Y248750D02*
D03*
Y261250D02*
D03*
X374000Y213750D02*
D03*
Y226250D02*
D03*
X300000Y121250D02*
D03*
Y108750D02*
D03*
Y191250D02*
D03*
Y178750D02*
D03*
Y86250D02*
D03*
Y73750D02*
D03*
Y156250D02*
D03*
Y143750D02*
D03*
X374000Y108750D02*
D03*
Y121250D02*
D03*
X374000Y143750D02*
D03*
Y156250D02*
D03*
X374000Y178750D02*
D03*
Y191250D02*
D03*
X374000Y73750D02*
D03*
Y86250D02*
D03*
X198000Y319250D02*
D03*
Y306750D02*
D03*
X141000Y319000D02*
D03*
Y306500D02*
D03*
D25*
X361000Y318500D02*
D03*
Y331500D02*
D03*
X361000Y283500D02*
D03*
Y296500D02*
D03*
X313000Y226500D02*
D03*
Y213500D02*
D03*
Y261500D02*
D03*
Y248500D02*
D03*
Y296500D02*
D03*
Y283500D02*
D03*
X361000Y213500D02*
D03*
Y226500D02*
D03*
X313000Y331500D02*
D03*
Y318500D02*
D03*
X361000Y248500D02*
D03*
Y261500D02*
D03*
X313000Y121500D02*
D03*
Y108500D02*
D03*
Y191500D02*
D03*
Y178500D02*
D03*
Y86500D02*
D03*
Y73500D02*
D03*
X361000Y108500D02*
D03*
Y121500D02*
D03*
X361000Y143500D02*
D03*
Y156500D02*
D03*
X361000Y178500D02*
D03*
Y191500D02*
D03*
X361000Y73500D02*
D03*
Y86500D02*
D03*
X313000Y156500D02*
D03*
Y143500D02*
D03*
X211000Y306500D02*
D03*
Y319500D02*
D03*
X154000Y306250D02*
D03*
Y319250D02*
D03*
D26*
X327250Y296500D02*
D03*
Y290000D02*
D03*
Y283500D02*
D03*
X346750D02*
D03*
Y290000D02*
D03*
Y296500D02*
D03*
X327250Y331500D02*
D03*
Y325000D02*
D03*
Y318500D02*
D03*
X346750D02*
D03*
Y325000D02*
D03*
Y331500D02*
D03*
X327250Y226500D02*
D03*
Y220000D02*
D03*
Y213500D02*
D03*
X346750D02*
D03*
Y220000D02*
D03*
Y226500D02*
D03*
X327250Y261500D02*
D03*
Y255000D02*
D03*
Y248500D02*
D03*
X346750D02*
D03*
Y255000D02*
D03*
Y261500D02*
D03*
X327250Y191500D02*
D03*
Y185000D02*
D03*
Y178500D02*
D03*
X346750D02*
D03*
Y185000D02*
D03*
Y191500D02*
D03*
X327250Y156500D02*
D03*
Y150000D02*
D03*
Y143500D02*
D03*
X346750D02*
D03*
Y150000D02*
D03*
Y156500D02*
D03*
X327250Y86500D02*
D03*
Y80000D02*
D03*
Y73500D02*
D03*
X346750D02*
D03*
Y80000D02*
D03*
Y86500D02*
D03*
X327250Y121500D02*
D03*
Y115000D02*
D03*
Y108500D02*
D03*
X346750D02*
D03*
Y115000D02*
D03*
Y121500D02*
D03*
D27*
X256000Y292750D02*
D03*
D28*
X233000Y355250D02*
D03*
X256000D02*
D03*
X279000D02*
D03*
D29*
X184900Y340250D02*
D03*
Y346750D02*
D03*
Y353250D02*
D03*
Y359750D02*
D03*
X168100D02*
D03*
Y353250D02*
D03*
Y346750D02*
D03*
Y340250D02*
D03*
D30*
X323750Y39500D02*
D03*
Y16500D02*
D03*
X306250D02*
D03*
Y39500D02*
D03*
D31*
X88875Y80000D02*
D03*
X97125D02*
D03*
D32*
X63000Y60500D02*
D03*
X47000D02*
D03*
X63000Y69500D02*
D03*
X47000D02*
D03*
X63000Y80500D02*
D03*
X47000D02*
D03*
X63000Y89500D02*
D03*
X47000D02*
D03*
D33*
X269431Y227004D02*
D03*
Y222003D02*
D03*
Y217001D02*
D03*
Y212000D02*
D03*
Y206999D02*
D03*
Y201998D02*
D03*
Y196996D02*
D03*
X238570D02*
D03*
Y201998D02*
D03*
Y206999D02*
D03*
Y212000D02*
D03*
Y217001D02*
D03*
Y222003D02*
D03*
Y227004D02*
D03*
D34*
X179000Y380000D02*
D03*
X211700D02*
D03*
D35*
X290006Y379000D02*
D03*
X273994D02*
D03*
X249006D02*
D03*
X232994D02*
D03*
D36*
X164000Y380000D02*
D03*
X151000D02*
D03*
D37*
X174000Y265000D02*
D03*
X165000Y291000D02*
D03*
X183000D02*
D03*
D38*
X142000Y269994D02*
D03*
Y286006D02*
D03*
X206000Y270994D02*
D03*
Y287006D02*
D03*
D39*
X185500Y312750D02*
D03*
X166500Y306250D02*
D03*
Y319250D02*
D03*
D40*
X187000Y242000D02*
D03*
Y250000D02*
D03*
Y212000D02*
D03*
Y220000D02*
D03*
D41*
X170000Y236491D02*
D03*
Y249509D02*
D03*
Y212491D02*
D03*
Y225509D02*
D03*
D42*
X156000Y231000D02*
D03*
X136000Y224500D02*
D03*
Y237500D02*
D03*
D43*
X233500Y270250D02*
D03*
X274500D02*
D03*
D44*
Y246500D02*
D03*
X233500D02*
D03*
D45*
X209000Y247500D02*
D03*
Y230500D02*
D03*
D46*
X191000Y231000D02*
D03*
X183000D02*
D03*
D58*
X89000Y297500D02*
D03*
D59*
Y272500D02*
D03*
Y247500D02*
D03*
Y222500D02*
D03*
D60*
X24000Y260000D02*
D03*
D64*
X204000Y350000D02*
D03*
D65*
X149000D02*
D03*
D66*
X232500Y351500D02*
Y354750D01*
X230000Y298000D02*
Y349000D01*
X220531Y288531D02*
X230000Y298000D01*
X232500Y354750D02*
X233000Y355250D01*
X230000Y349000D02*
X232500Y351500D01*
X183500Y291000D02*
X184000D01*
X183000D02*
X183500D01*
X232997Y355253D02*
X233000Y355250D01*
X206000Y288000D02*
X206531Y288531D01*
X220531D01*
X206000Y287006D02*
Y288000D01*
X256000Y292750D02*
Y355250D01*
X256500Y362500D02*
X273000Y379000D01*
X232997Y355253D02*
Y378997D01*
X232994Y379000D02*
X232997Y378997D01*
X187994Y287006D02*
X206000D01*
X184000Y291000D02*
X187994Y287006D01*
X159006Y286006D02*
X164000Y291000D01*
X165000D01*
X142000Y286006D02*
X159006D01*
X89000Y297500D02*
X91000Y299500D01*
Y319175D01*
X96665Y324840D01*
Y350000D01*
D67*
X323750Y114750D02*
X327000D01*
X314932Y110432D02*
X319432D01*
X323750Y114750D01*
X313000Y108500D02*
X314932Y110432D01*
X327000Y114750D02*
X327250Y115000D01*
X327750Y213500D02*
X342250Y199000D01*
X430058D01*
X451500Y220442D01*
X450000Y282000D02*
X453000Y285000D01*
X458000D01*
X439000Y282000D02*
X450000D01*
X441000Y301000D02*
Y333000D01*
X447000Y295000D02*
X458000D01*
X441000Y301000D02*
X447000Y295000D01*
X434000Y340000D02*
X441000Y333000D01*
X355750Y340000D02*
X434000D01*
X347250Y331500D02*
X355750Y340000D01*
X346750Y331500D02*
X347250D01*
X354000Y325000D02*
X360500Y331500D01*
X361000D01*
X346750Y325000D02*
X354000D01*
X431000Y290000D02*
Y302000D01*
Y290000D02*
X439000Y282000D01*
X410000Y323000D02*
X431000Y302000D01*
X391000Y323000D02*
X410000D01*
X377000Y309000D02*
X391000Y323000D01*
X346250Y309000D02*
X377000D01*
X327250Y318500D02*
X336750D01*
X346250Y309000D01*
X451500Y220442D02*
Y223500D01*
X453000Y225000D02*
X458000D01*
X451500Y223500D02*
X453000Y225000D01*
X327250Y213500D02*
X327750D01*
X340000Y210000D02*
X345000Y205000D01*
X340000Y210000D02*
Y224000D01*
X345000Y205000D02*
X398000D01*
X426000Y220000D02*
X439500Y233500D01*
X413000Y220000D02*
X426000D01*
X439500Y233500D02*
X456500D01*
X458000Y235000D01*
X398000Y205000D02*
X413000Y220000D01*
X342250Y226250D02*
X346500D01*
X340000Y224000D02*
X342250Y226250D01*
X346500D02*
X346750Y226500D01*
X47000Y80500D02*
Y89500D01*
Y69500D02*
Y80500D01*
Y60500D02*
Y69500D01*
X279458Y206999D02*
X280459Y208000D01*
X269431Y206999D02*
X279458D01*
X280459Y208000D02*
X281000D01*
X227000Y217000D02*
X227001Y217001D01*
X238569D01*
X238570Y217001D01*
X227001Y206999D02*
X238569D01*
X238570Y206999D01*
X227000Y207000D02*
X227001Y206999D01*
X170528Y225509D02*
X172811Y227791D01*
X170000Y225509D02*
X170528D01*
X175900Y231000D02*
X183000D01*
X172811Y227911D02*
X175900Y231000D01*
X172811Y227791D02*
Y227911D01*
Y234089D02*
X175900Y231000D01*
X170528Y236491D02*
X172811Y234209D01*
X170000Y236491D02*
X170528D01*
X172811Y234089D02*
Y234209D01*
X361125Y331375D02*
X373875D01*
X346750Y318500D02*
X361000D01*
Y331500D02*
X361125Y331375D01*
X323750Y324750D02*
X327000D01*
X300000Y248750D02*
X300125Y248625D01*
X312875D01*
X300000Y283750D02*
X300125Y283625D01*
X312875D01*
X313000Y283500D01*
X361125Y296375D02*
X373875D01*
X374000Y296250D01*
X361000Y296500D02*
X361125Y296375D01*
X359068Y294568D02*
X361000Y296500D01*
X346750Y283500D02*
X361000D01*
X346750Y290000D02*
X347000Y290250D01*
X350250D01*
X354568Y294568D02*
X359068D01*
X350250Y290250D02*
X354568Y294568D01*
X300000Y213750D02*
X300125Y213625D01*
X312875D01*
X327000Y254750D02*
X327250Y255000D01*
X327250Y261500D02*
X327250Y261500D01*
X346750Y255000D02*
X346807Y255057D01*
X351057D01*
X355250Y259250D01*
X346750Y248500D02*
X361000D01*
X313000Y283500D02*
X314932Y285432D01*
X319432D01*
X323750Y289750D01*
X327000D01*
X313000Y296500D02*
X327250D01*
X373875Y331375D02*
X374000Y331250D01*
X300000Y318750D02*
X300125Y318625D01*
X312875D01*
X313000Y318500D02*
X314932Y320432D01*
X319432D01*
X323750Y324750D01*
X313000Y331500D02*
X327250D01*
X312875Y318625D02*
X313000Y318500D01*
X327000Y324750D02*
X327250Y325000D01*
X327250Y331500D02*
X327250Y331500D01*
X327250Y296500D02*
X327250Y296500D01*
X327000Y289750D02*
X327250Y290000D01*
X358750Y259250D02*
X361000Y261500D01*
X361125Y261375D01*
X355250Y259250D02*
X358750D01*
X373875Y261375D02*
X374000Y261250D01*
X361125Y261375D02*
X373875D01*
X313000Y261500D02*
X327250D01*
X313000Y248500D02*
X314932Y250432D01*
X319432D01*
X323750Y254750D01*
X327000D01*
X355250Y224250D02*
X358750D01*
X351057Y220057D02*
X355250Y224250D01*
X373875Y226375D02*
X374000Y226250D01*
X361125Y226375D02*
X373875D01*
X346750Y213500D02*
X361000D01*
X346750Y220000D02*
X346807Y220057D01*
X351057D01*
X312875Y213625D02*
X313000Y213500D01*
X312875Y248625D02*
X313000Y248500D01*
X358750Y224250D02*
X361000Y226500D01*
X361125Y226375D01*
X313000Y213500D02*
X314932Y215432D01*
X319432D01*
X323750Y219750D01*
X327000D01*
X327250Y220000D01*
X313000Y226500D02*
X327250D01*
X327250Y226500D01*
X300000Y108750D02*
X300125Y108625D01*
X313000Y121500D02*
X327250D01*
X312875Y108625D02*
X313000Y108500D01*
X300125Y108625D02*
X312875D01*
X361000Y191500D02*
X361125Y191375D01*
X359068Y189568D02*
X361000Y191500D01*
X354568Y189568D02*
X359068D01*
X350250Y185250D02*
X354568Y189568D01*
X347000Y185250D02*
X350250D01*
X327000Y149750D02*
X327250Y150000D01*
X323750Y149750D02*
X327000D01*
X319432Y145432D02*
X323750Y149750D01*
X313000Y191500D02*
X327250D01*
X300125Y178625D02*
X312875D01*
X300000Y178750D02*
X300125Y178625D01*
X319432Y180432D02*
X323750Y184750D01*
X327000D01*
X327250Y121500D02*
X327250Y121500D01*
X327250Y86500D02*
X327250Y86500D01*
X327250Y191500D02*
X327250Y191500D01*
X327000Y79750D02*
X327250Y80000D01*
X300125Y73625D02*
X312875D01*
X313000Y86500D02*
X327250D01*
X300000Y73750D02*
X300125Y73625D01*
X323750Y79750D02*
X327000D01*
X312875Y73625D02*
X313000Y73500D01*
X314932Y75432D01*
X319432D01*
X323750Y79750D01*
X355250Y84250D02*
X358750D01*
X351057Y80057D02*
X355250Y84250D01*
X346807Y80057D02*
X351057D01*
X346750Y80000D02*
X346807Y80057D01*
X346750Y73500D02*
X361000D01*
Y86500D02*
X361125Y86375D01*
X358750Y84250D02*
X361000Y86500D01*
Y156500D02*
X361125Y156375D01*
X346750Y150000D02*
X347000Y150250D01*
X350250D02*
X354568Y154568D01*
X346750Y143500D02*
X361000D01*
X359068Y154568D02*
X361000Y156500D01*
X347000Y150250D02*
X350250D01*
X354568Y154568D02*
X359068D01*
X346750Y185000D02*
X347000Y185250D01*
X346750Y178500D02*
X361000D01*
X346750Y108500D02*
X361000D01*
X358750Y119250D02*
X361000Y121500D01*
X346750Y115000D02*
X346807Y115057D01*
X351057D02*
X355250Y119250D01*
X346807Y115057D02*
X351057D01*
X355250Y119250D02*
X358750D01*
X361000Y121500D02*
X361125Y121375D01*
X300125Y143625D02*
X312875D01*
X300000Y143750D02*
X300125Y143625D01*
X361125Y121375D02*
X373875D01*
X373875Y156375D02*
X374000Y156250D01*
X361125Y156375D02*
X373875D01*
X361125Y191375D02*
X373875D01*
X374000Y191250D01*
X312875Y178625D02*
X313000Y178500D01*
X327000Y184750D02*
X327250Y185000D01*
X313000Y178500D02*
X314932Y180432D01*
X327250Y156500D02*
X327250Y156500D01*
X313000Y156500D02*
X327250D01*
X314932Y180432D02*
X319432D01*
X373875Y86375D02*
X374000Y86250D01*
X361125Y86375D02*
X373875D01*
X312875Y143625D02*
X313000Y143500D01*
X314932Y145432D02*
X319432D01*
X313000Y143500D02*
X314932Y145432D01*
X373875Y121375D02*
X374000Y121250D01*
D68*
X52700Y109600D02*
D03*
X40000D02*
D03*
X52700Y122300D02*
D03*
X40000D02*
D03*
X52700Y135000D02*
D03*
X40000D02*
D03*
X52700Y147700D02*
D03*
X40000D02*
D03*
X52700Y160400D02*
D03*
D69*
X40000D02*
D03*
D70*
X192000Y382000D02*
D03*
X130000Y373250D02*
D03*
X80000Y373250D02*
D03*
X150000Y120032D02*
D03*
Y110032D02*
D03*
Y100032D02*
D03*
X110000Y240500D02*
D03*
X126032Y238750D02*
D03*
X200000Y85000D02*
D03*
X207500D02*
D03*
X215000D02*
D03*
X115000Y327500D02*
D03*
X122500D02*
D03*
X130000D02*
D03*
X176500Y350000D02*
D03*
X474999Y299999D02*
D03*
Y239999D02*
D03*
Y179999D02*
D03*
Y119999D02*
D03*
X354999Y359999D02*
D03*
X219999Y329999D02*
D03*
X69999D02*
D03*
Y209999D02*
D03*
X84999Y179999D02*
D03*
X54999Y299999D02*
D03*
X39999Y269999D02*
D03*
X54999Y239999D02*
D03*
X39999Y209999D02*
D03*
X24999Y299999D02*
D03*
X9999Y269999D02*
D03*
X24999Y239999D02*
D03*
X9999Y209999D02*
D03*
X252000Y221000D02*
D03*
X233822Y122056D02*
D03*
X352000Y167000D02*
D03*
X109000Y141000D02*
D03*
X242000Y12000D02*
D03*
X250000D02*
D03*
X258000D02*
D03*
X183500Y291000D02*
D03*
X397000Y295000D02*
D03*
Y235000D02*
D03*
X142500Y135000D02*
D03*
X150000Y130000D02*
D03*
X142500Y125000D02*
D03*
Y115000D02*
D03*
Y105000D02*
D03*
X346750Y124968D02*
D03*
X327250Y142000D02*
D03*
X258000Y77000D02*
D03*
X327250Y106750D02*
D03*
X289035Y83965D02*
D03*
X257964Y84036D02*
D03*
X289000Y97000D02*
D03*
X397000Y155000D02*
D03*
Y135000D02*
D03*
X407000Y125000D02*
D03*
Y145000D02*
D03*
X397000Y115000D02*
D03*
X346750Y158250D02*
D03*
Y193250D02*
D03*
X327250Y176750D02*
D03*
Y71750D02*
D03*
X346750Y88250D02*
D03*
X458000Y175000D02*
D03*
Y165000D02*
D03*
Y155000D02*
D03*
Y145000D02*
D03*
Y135000D02*
D03*
Y125000D02*
D03*
Y115000D02*
D03*
Y105000D02*
D03*
Y95000D02*
D03*
Y85000D02*
D03*
X402000Y175000D02*
D03*
X385000Y128000D02*
D03*
Y159500D02*
D03*
Y118000D02*
D03*
X410000Y46250D02*
D03*
X258000Y70000D02*
D03*
Y95000D02*
D03*
Y110000D02*
D03*
X397000Y275000D02*
D03*
X407000Y245000D02*
D03*
Y225000D02*
D03*
Y285000D02*
D03*
Y265000D02*
D03*
X397000Y255000D02*
D03*
X327250Y281750D02*
D03*
X346750Y298250D02*
D03*
X327250Y246750D02*
D03*
X346750Y263250D02*
D03*
X402000Y315000D02*
D03*
X458000Y305000D02*
D03*
Y315000D02*
D03*
Y275000D02*
D03*
Y265000D02*
D03*
Y255000D02*
D03*
Y245000D02*
D03*
X385000Y268000D02*
D03*
X410000Y13750D02*
D03*
X420250Y159500D02*
D03*
Y124500D02*
D03*
X442500Y288500D02*
D03*
X420250Y264500D02*
D03*
Y288500D02*
D03*
X360000Y33500D02*
D03*
X242000Y189000D02*
D03*
X289000Y105000D02*
D03*
Y113000D02*
D03*
Y124000D02*
D03*
X290000Y135000D02*
D03*
X298000Y132000D02*
D03*
X152750Y231000D02*
D03*
X385000Y258000D02*
D03*
Y299500D02*
D03*
X205000Y200000D02*
D03*
X258036Y211964D02*
D03*
X258000Y227000D02*
D03*
X180000Y193000D02*
D03*
X210000D02*
D03*
X160000D02*
D03*
X165000Y200000D02*
D03*
X170000Y193000D02*
D03*
X175000Y200000D02*
D03*
X185000D02*
D03*
X190000Y193000D02*
D03*
X195000Y200000D02*
D03*
X200000Y193000D02*
D03*
X110000Y90000D02*
D03*
Y80000D02*
D03*
Y70000D02*
D03*
X323750Y16500D02*
D03*
X306250Y39500D02*
D03*
X428250Y94000D02*
D03*
X423250Y230000D02*
D03*
X410000Y33500D02*
D03*
X286500Y197000D02*
D03*
X280000Y186750D02*
D03*
X281000Y208000D02*
D03*
X227000Y217000D02*
D03*
X141000Y306500D02*
D03*
X234000Y189000D02*
D03*
X266000Y188000D02*
D03*
X227000Y207000D02*
D03*
X191000Y231000D02*
D03*
X142000Y158000D02*
D03*
X166000D02*
D03*
X142000Y42000D02*
D03*
X166000D02*
D03*
X190000D02*
D03*
X258000D02*
D03*
Y158000D02*
D03*
X258000Y145000D02*
D03*
X226000Y42000D02*
D03*
X234000D02*
D03*
X142000Y70000D02*
D03*
X208000Y42000D02*
D03*
X360000Y13750D02*
D03*
Y46500D02*
D03*
X63000Y60500D02*
D03*
Y69500D02*
D03*
Y80500D02*
D03*
Y89500D02*
D03*
X47000D02*
D03*
X70000Y44250D02*
D03*
X313000Y331500D02*
D03*
X374000Y283750D02*
D03*
X300000Y331250D02*
D03*
X374000Y318750D02*
D03*
Y248750D02*
D03*
X361000Y318500D02*
D03*
Y248500D02*
D03*
X300000Y261250D02*
D03*
X313000Y261500D02*
D03*
X374000Y213750D02*
D03*
X361000Y283500D02*
D03*
Y213500D02*
D03*
X313000Y296500D02*
D03*
X300000Y226250D02*
D03*
Y296250D02*
D03*
X313000Y226500D02*
D03*
X361000Y73500D02*
D03*
X361000Y178500D02*
D03*
X374000Y143750D02*
D03*
X361000Y143500D02*
D03*
X374000Y108750D02*
D03*
X361000Y108500D02*
D03*
X374000Y178750D02*
D03*
X374000Y73750D02*
D03*
X313000Y156500D02*
D03*
Y191500D02*
D03*
Y86500D02*
D03*
Y121500D02*
D03*
D71*
X256000Y292750D02*
D03*
X274000Y379000D02*
D03*
X142000Y286006D02*
D03*
D72*
X470000Y370000D02*
D03*
Y30000D02*
D03*
X30000D02*
D03*
Y370000D02*
D03*
M02*
