G04*
G04 #@! TF.GenerationSoftware,Altium Limited,Altium Designer,24.4.1 (13)*
G04*
G04 Layer_Physical_Order=2*
G04 Layer_Color=36540*
%FSLAX44Y44*%
%MOMM*%
G71*
G04*
G04 #@! TF.SameCoordinates,EA300020-20D2-4A69-A7C9-2FF48D3C62D3*
G04*
G04*
G04 #@! TF.FilePolarity,Positive*
G04*
G01*
G75*
%ADD12C,0.2000*%
%ADD58R,1.4000X1.4000*%
%ADD59C,1.4000*%
G04:AMPARAMS|DCode=60|XSize=2.8mm|YSize=2mm|CornerRadius=1mm|HoleSize=0mm|Usage=FLASHONLY|Rotation=270.000|XOffset=0mm|YOffset=0mm|HoleType=Round|Shape=RoundedRectangle|*
%AMROUNDEDRECTD60*
21,1,2.8000,0.0000,0,0,270.0*
21,1,0.8000,2.0000,0,0,270.0*
1,1,2.0000,0.0000,-0.4000*
1,1,2.0000,0.0000,0.4000*
1,1,2.0000,0.0000,0.4000*
1,1,2.0000,0.0000,-0.4000*
%
%ADD60ROUNDEDRECTD60*%
%ADD67C,0.3000*%
%ADD68C,1.0600*%
%ADD69R,1.0600X1.0600*%
%ADD70C,0.5000*%
%ADD71C,1.0000*%
%ADD72C,4.0000*%
G36*
X475467Y397482D02*
X479007Y396534D01*
X482393Y395131D01*
X485568Y393299D01*
X488475Y391067D01*
X491067Y388475D01*
X493299Y385568D01*
X495131Y382393D01*
X496534Y379007D01*
X497482Y375467D01*
X497961Y371833D01*
Y370000D01*
Y30000D01*
Y28167D01*
X497482Y24533D01*
X496534Y20993D01*
X495131Y17607D01*
X493299Y14432D01*
X491067Y11525D01*
X488475Y8933D01*
X485568Y6701D01*
X482393Y4869D01*
X479007Y3466D01*
X475467Y2517D01*
X471833Y2039D01*
X28167D01*
X24533Y2517D01*
X20993Y3466D01*
X17607Y4869D01*
X14432Y6701D01*
X11525Y8933D01*
X8933Y11525D01*
X6701Y14432D01*
X4869Y17607D01*
X3466Y20993D01*
X2517Y24533D01*
X2039Y28167D01*
Y30000D01*
Y370000D01*
Y371833D01*
X2517Y375467D01*
X3466Y379007D01*
X4869Y382393D01*
X6701Y385568D01*
X8933Y388475D01*
X11525Y391067D01*
X14432Y393299D01*
X17607Y395131D01*
X20993Y396534D01*
X24533Y397482D01*
X28167Y397961D01*
X471833D01*
X475467Y397482D01*
D02*
G37*
%LPC*%
G36*
X192796Y386000D02*
X191204D01*
X189734Y385391D01*
X188609Y384266D01*
X188000Y382796D01*
Y381628D01*
X182187Y375815D01*
X133091D01*
X132266Y376641D01*
X130796Y377250D01*
X129204D01*
X127734Y376641D01*
X126908Y375815D01*
X83091D01*
X82266Y376641D01*
X80796Y377250D01*
X79204D01*
X77734Y376641D01*
X76609Y375516D01*
X76000Y374046D01*
Y372454D01*
X76609Y370984D01*
X77734Y369859D01*
X79204Y369250D01*
X80796D01*
X82266Y369859D01*
X83091Y370685D01*
X126909D01*
X127734Y369859D01*
X129204Y369250D01*
X130796D01*
X132266Y369859D01*
X133091Y370685D01*
X183250D01*
X184232Y370880D01*
X185064Y371436D01*
X191628Y378000D01*
X192796D01*
X194266Y378609D01*
X195091Y379435D01*
X267730D01*
Y377753D01*
X268685Y375448D01*
X270448Y373685D01*
X272753Y372730D01*
X275247D01*
X277552Y373685D01*
X279315Y375448D01*
X280270Y377753D01*
Y380247D01*
X279315Y382552D01*
X277552Y384315D01*
X275247Y385270D01*
X272753D01*
X270448Y384315D01*
X270336Y384204D01*
X270088Y384370D01*
X269106Y384565D01*
X195091D01*
X194266Y385391D01*
X192796Y386000D01*
D02*
G37*
G36*
X130796Y331500D02*
X129204D01*
X127734Y330891D01*
X127073Y330230D01*
X126250Y329907D01*
X125427Y330230D01*
X124766Y330891D01*
X123296Y331500D01*
X121704D01*
X120234Y330891D01*
X119573Y330230D01*
X118750Y329907D01*
X117927Y330230D01*
X117266Y330891D01*
X115796Y331500D01*
X114204D01*
X112734Y330891D01*
X111609Y329766D01*
X111000Y328296D01*
Y326704D01*
X111609Y325234D01*
X112734Y324109D01*
X114204Y323500D01*
X115796D01*
X117266Y324109D01*
X117927Y324770D01*
X118750Y325093D01*
X119573Y324770D01*
X120234Y324109D01*
X121704Y323500D01*
X123296D01*
X124766Y324109D01*
X125427Y324770D01*
X126250Y325093D01*
X127073Y324770D01*
X127734Y324109D01*
X129204Y323500D01*
X130796D01*
X132266Y324109D01*
X133391Y325234D01*
X134000Y326704D01*
Y328296D01*
X133391Y329766D01*
X132266Y330891D01*
X130796Y331500D01*
D02*
G37*
G36*
X313796Y335500D02*
X312204D01*
X310734Y334891D01*
X309609Y333766D01*
X309000Y332296D01*
Y330704D01*
X309609Y329234D01*
X310734Y328109D01*
X312204Y327500D01*
X313796D01*
X315266Y328109D01*
X316391Y329234D01*
X317000Y330704D01*
Y332296D01*
X316391Y333766D01*
X315266Y334891D01*
X313796Y335500D01*
D02*
G37*
G36*
X300796Y335250D02*
X299204D01*
X297734Y334641D01*
X296609Y333516D01*
X296000Y332046D01*
Y330454D01*
X296609Y328984D01*
X297734Y327859D01*
X299204Y327250D01*
X300796D01*
X302266Y327859D01*
X303391Y328984D01*
X304000Y330454D01*
Y332046D01*
X303391Y333516D01*
X302266Y334641D01*
X300796Y335250D01*
D02*
G37*
G36*
X374796Y322750D02*
X373204D01*
X371734Y322141D01*
X370609Y321016D01*
X370000Y319546D01*
Y317954D01*
X370609Y316484D01*
X371734Y315359D01*
X373204Y314750D01*
X374796D01*
X376266Y315359D01*
X377391Y316484D01*
X378000Y317954D01*
Y319546D01*
X377391Y321016D01*
X376266Y322141D01*
X374796Y322750D01*
D02*
G37*
G36*
X361796Y322500D02*
X360204D01*
X358734Y321891D01*
X357609Y320766D01*
X357000Y319296D01*
Y317704D01*
X357609Y316234D01*
X358734Y315109D01*
X360204Y314500D01*
X361796D01*
X363266Y315109D01*
X364391Y316234D01*
X365000Y317704D01*
Y319296D01*
X364391Y320766D01*
X363266Y321891D01*
X361796Y322500D01*
D02*
G37*
G36*
X458796Y319000D02*
X457204D01*
X455734Y318391D01*
X454609Y317266D01*
X454000Y315796D01*
Y314204D01*
X454609Y312734D01*
X455734Y311609D01*
X457204Y311000D01*
X458796D01*
X460266Y311609D01*
X461391Y312734D01*
X462000Y314204D01*
Y315796D01*
X461391Y317266D01*
X460266Y318391D01*
X458796Y319000D01*
D02*
G37*
G36*
X402796D02*
X401204D01*
X399734Y318391D01*
X398609Y317266D01*
X398000Y315796D01*
Y314204D01*
X398609Y312734D01*
X399734Y311609D01*
X401204Y311000D01*
X402796D01*
X404266Y311609D01*
X405391Y312734D01*
X406000Y314204D01*
Y315796D01*
X405391Y317266D01*
X404266Y318391D01*
X402796Y319000D01*
D02*
G37*
G36*
X458796Y309000D02*
X457204D01*
X455734Y308391D01*
X454609Y307266D01*
X454000Y305796D01*
Y304204D01*
X454609Y302734D01*
X455734Y301609D01*
X457204Y301000D01*
X458796D01*
X460266Y301609D01*
X461391Y302734D01*
X462000Y304204D01*
Y305796D01*
X461391Y307266D01*
X460266Y308391D01*
X458796Y309000D01*
D02*
G37*
G36*
X385796Y303500D02*
X384204D01*
X382734Y302891D01*
X381609Y301766D01*
X381000Y300296D01*
Y298704D01*
X381609Y297234D01*
X382734Y296109D01*
X384204Y295500D01*
X385796D01*
X387266Y296109D01*
X388391Y297234D01*
X389000Y298704D01*
Y300296D01*
X388391Y301766D01*
X387266Y302891D01*
X385796Y303500D01*
D02*
G37*
G36*
X313796Y300500D02*
X312204D01*
X310734Y299891D01*
X309609Y298766D01*
X309000Y297296D01*
Y295704D01*
X309609Y294234D01*
X310734Y293109D01*
X312204Y292500D01*
X313796D01*
X315266Y293109D01*
X316391Y294234D01*
X317000Y295704D01*
Y297296D01*
X316391Y298766D01*
X315266Y299891D01*
X313796Y300500D01*
D02*
G37*
G36*
X300796Y300250D02*
X299204D01*
X297734Y299641D01*
X296609Y298516D01*
X296000Y297046D01*
Y295454D01*
X296609Y293984D01*
X297734Y292859D01*
X299204Y292250D01*
X300796D01*
X302266Y292859D01*
X303391Y293984D01*
X304000Y295454D01*
Y297046D01*
X303391Y298516D01*
X302266Y299641D01*
X300796Y300250D01*
D02*
G37*
G36*
X97016Y305516D02*
X80984D01*
Y289484D01*
X97016D01*
Y305516D01*
D02*
G37*
G36*
X184296Y295000D02*
X182704D01*
X181234Y294391D01*
X180109Y293266D01*
X179500Y291796D01*
Y290204D01*
X180109Y288734D01*
X181234Y287609D01*
X182704Y287000D01*
X184296D01*
X185766Y287609D01*
X186891Y288734D01*
X187500Y290204D01*
Y291796D01*
X186891Y293266D01*
X185766Y294391D01*
X184296Y295000D01*
D02*
G37*
G36*
X257247Y299020D02*
X254753D01*
X252448Y298065D01*
X250685Y296302D01*
X249730Y293997D01*
Y291503D01*
X250685Y289198D01*
X252448Y287435D01*
X254753Y286480D01*
X257247D01*
X259552Y287435D01*
X261315Y289198D01*
X262270Y291503D01*
Y293997D01*
X261315Y296302D01*
X259552Y298065D01*
X257247Y299020D01*
D02*
G37*
G36*
X374796Y287750D02*
X373204D01*
X371734Y287141D01*
X370609Y286016D01*
X370000Y284546D01*
Y282954D01*
X370609Y281484D01*
X371734Y280359D01*
X373204Y279750D01*
X374796D01*
X376266Y280359D01*
X377391Y281484D01*
X378000Y282954D01*
Y284546D01*
X377391Y286016D01*
X376266Y287141D01*
X374796Y287750D01*
D02*
G37*
G36*
X143247Y292276D02*
X140753D01*
X138448Y291321D01*
X136685Y289557D01*
X135730Y287253D01*
Y284758D01*
X136685Y282454D01*
X138448Y280690D01*
X140753Y279736D01*
X143247D01*
X145552Y280690D01*
X147315Y282454D01*
X148270Y284758D01*
Y287253D01*
X147315Y289557D01*
X145552Y291321D01*
X143247Y292276D01*
D02*
G37*
G36*
X361796Y287500D02*
X360204D01*
X358734Y286891D01*
X357609Y285766D01*
X357000Y284296D01*
Y282704D01*
X357609Y281234D01*
X358734Y280109D01*
X360204Y279500D01*
X361796D01*
X363266Y280109D01*
X364391Y281234D01*
X365000Y282704D01*
Y284296D01*
X364391Y285766D01*
X363266Y286891D01*
X361796Y287500D01*
D02*
G37*
G36*
X347546Y302250D02*
X345954D01*
X344484Y301641D01*
X343359Y300516D01*
X342750Y299046D01*
Y297454D01*
X343359Y295984D01*
X344484Y294859D01*
X345954Y294250D01*
X347546D01*
X349016Y294859D01*
X349841Y295685D01*
X372687D01*
X383186Y285186D01*
X383749Y284810D01*
X383689Y283699D01*
X383615Y283489D01*
X383018Y283370D01*
X382186Y282814D01*
X376937Y277565D01*
X358333D01*
X352335Y283564D01*
X351502Y284120D01*
X350521Y284315D01*
X330341D01*
X329516Y285141D01*
X328046Y285750D01*
X326454D01*
X324984Y285141D01*
X323859Y284016D01*
X323250Y282546D01*
Y280954D01*
X323859Y279484D01*
X324984Y278359D01*
X326454Y277750D01*
X328046D01*
X329516Y278359D01*
X330341Y279185D01*
X349458D01*
X355457Y273186D01*
X356289Y272630D01*
X357271Y272435D01*
X378000D01*
X378982Y272630D01*
X379814Y273186D01*
X385063Y278435D01*
X392982D01*
X393382Y277689D01*
X393567Y277165D01*
X393000Y275796D01*
Y274204D01*
X393609Y272734D01*
X394734Y271609D01*
X396204Y271000D01*
X397796D01*
X399266Y271609D01*
X400391Y272734D01*
X401000Y274204D01*
Y275576D01*
X401607Y276004D01*
X402173Y276199D01*
X406186Y272186D01*
X407018Y271630D01*
X408000Y271435D01*
X447937D01*
X454000Y265372D01*
Y264204D01*
X454609Y262734D01*
X455734Y261609D01*
X457204Y261000D01*
X458796D01*
X460266Y261609D01*
X461391Y262734D01*
X462000Y264204D01*
Y265796D01*
X461391Y267266D01*
X460266Y268391D01*
X458796Y269000D01*
X457636D01*
X456842Y269944D01*
X456996Y270393D01*
X457424Y271000D01*
X458796D01*
X460266Y271609D01*
X461391Y272734D01*
X462000Y274204D01*
Y275796D01*
X461391Y277266D01*
X460266Y278391D01*
X458796Y279000D01*
X457628D01*
X453814Y282814D01*
X452982Y283370D01*
X452000Y283565D01*
X444358D01*
X444105Y284835D01*
X444766Y285109D01*
X445891Y286234D01*
X446500Y287704D01*
Y289296D01*
X445891Y290766D01*
X444766Y291891D01*
X443296Y292500D01*
X441704D01*
X440234Y291891D01*
X439109Y290766D01*
X438500Y289296D01*
Y287704D01*
X439109Y286234D01*
X440234Y285109D01*
X440895Y284835D01*
X440642Y283565D01*
X439063D01*
X425814Y296814D01*
X424982Y297370D01*
X424000Y297565D01*
X407000D01*
X406018Y297370D01*
X405186Y296814D01*
X402173Y293801D01*
X401607Y293996D01*
X401000Y294424D01*
Y295796D01*
X400391Y297266D01*
X399266Y298391D01*
X397796Y299000D01*
X396204D01*
X394734Y298391D01*
X393609Y297266D01*
X393000Y295796D01*
Y294204D01*
X393609Y292734D01*
X394734Y291609D01*
X396204Y291000D01*
X396373D01*
X397164Y289842D01*
X397156Y289730D01*
X396946Y289565D01*
X386063D01*
X375564Y300064D01*
X374732Y300620D01*
X373750Y300815D01*
X349841D01*
X349016Y301641D01*
X347546Y302250D01*
D02*
G37*
G36*
X90055Y280516D02*
X89508D01*
Y273008D01*
X97016D01*
Y273555D01*
X96470Y275594D01*
X95414Y277422D01*
X93922Y278914D01*
X92094Y279970D01*
X90055Y280516D01*
D02*
G37*
G36*
X88492D02*
X87945D01*
X85906Y279970D01*
X84078Y278914D01*
X82586Y277422D01*
X81530Y275594D01*
X80984Y273555D01*
Y273008D01*
X88492D01*
Y280516D01*
D02*
G37*
G36*
X97016Y271992D02*
X89508D01*
Y264484D01*
X90055D01*
X92094Y265030D01*
X93922Y266086D01*
X95414Y267578D01*
X96470Y269406D01*
X97016Y271445D01*
Y271992D01*
D02*
G37*
G36*
X88492D02*
X80984D01*
Y271445D01*
X81530Y269406D01*
X82586Y267578D01*
X84078Y266086D01*
X85906Y265030D01*
X87945Y264484D01*
X88492D01*
Y271992D01*
D02*
G37*
G36*
X385796Y272000D02*
X384204D01*
X382734Y271391D01*
X381609Y270266D01*
X381000Y268796D01*
Y267204D01*
X381609Y265734D01*
X382734Y264609D01*
X384204Y264000D01*
X385796D01*
X387266Y264609D01*
X388391Y265734D01*
X389000Y267204D01*
Y268796D01*
X388391Y270266D01*
X387266Y271391D01*
X385796Y272000D01*
D02*
G37*
G36*
X407796Y269000D02*
X406204D01*
X404734Y268391D01*
X403609Y267266D01*
X403000Y265796D01*
Y264204D01*
X403609Y262734D01*
X404734Y261609D01*
X406204Y261000D01*
X407796D01*
X409266Y261609D01*
X410391Y262734D01*
X411000Y264204D01*
Y265796D01*
X410391Y267266D01*
X409266Y268391D01*
X407796Y269000D01*
D02*
G37*
G36*
X421046Y268500D02*
X419454D01*
X417984Y267891D01*
X416859Y266766D01*
X416250Y265296D01*
Y263704D01*
X416859Y262234D01*
X417984Y261109D01*
X419454Y260500D01*
X421046D01*
X422516Y261109D01*
X423641Y262234D01*
X424250Y263704D01*
Y265296D01*
X423641Y266766D01*
X422516Y267891D01*
X421046Y268500D01*
D02*
G37*
G36*
X313796Y265500D02*
X312204D01*
X310734Y264891D01*
X309609Y263766D01*
X309000Y262296D01*
Y260704D01*
X309609Y259234D01*
X310734Y258109D01*
X312204Y257500D01*
X313796D01*
X315266Y258109D01*
X316391Y259234D01*
X317000Y260704D01*
Y262296D01*
X316391Y263766D01*
X315266Y264891D01*
X313796Y265500D01*
D02*
G37*
G36*
X300796Y265250D02*
X299204D01*
X297734Y264641D01*
X296609Y263516D01*
X296000Y262046D01*
Y260454D01*
X296609Y258984D01*
X297734Y257859D01*
X299204Y257250D01*
X300796D01*
X302266Y257859D01*
X303391Y258984D01*
X304000Y260454D01*
Y262046D01*
X303391Y263516D01*
X302266Y264641D01*
X300796Y265250D01*
D02*
G37*
G36*
X347546Y267250D02*
X345954D01*
X344484Y266641D01*
X343359Y265516D01*
X342750Y264046D01*
Y262454D01*
X343359Y260984D01*
X344484Y259859D01*
X345954Y259250D01*
X347546D01*
X349016Y259859D01*
X349841Y260685D01*
X369687D01*
X384186Y246186D01*
X385018Y245630D01*
X386000Y245435D01*
X399000D01*
X399982Y245630D01*
X400814Y246186D01*
X402654Y248026D01*
X403609Y247266D01*
X403000Y245796D01*
Y244204D01*
X403109Y243942D01*
X402924Y243626D01*
X402151Y242936D01*
X401500Y243065D01*
X353333D01*
X347835Y248564D01*
X347002Y249120D01*
X346021Y249315D01*
X330341D01*
X329516Y250141D01*
X328046Y250750D01*
X326454D01*
X324984Y250141D01*
X323859Y249016D01*
X323250Y247546D01*
Y245954D01*
X323859Y244484D01*
X324984Y243359D01*
X326454Y242750D01*
X328046D01*
X329516Y243359D01*
X330341Y244185D01*
X344958D01*
X350457Y238686D01*
X351289Y238130D01*
X352271Y237935D01*
X392618D01*
X393360Y236665D01*
X393000Y235796D01*
Y234204D01*
X393609Y232734D01*
X394734Y231609D01*
X396204Y231000D01*
X397796D01*
X399266Y231609D01*
X400391Y232734D01*
X401000Y234204D01*
Y235796D01*
X402018Y236630D01*
X403000Y236435D01*
X452000D01*
X452982Y236630D01*
X453814Y237186D01*
X457628Y241000D01*
X458796D01*
X460266Y241609D01*
X461391Y242734D01*
X462000Y244204D01*
Y245796D01*
X461391Y247266D01*
X460266Y248391D01*
X458796Y249000D01*
X457204D01*
X455734Y248391D01*
X454609Y247266D01*
X454000Y245796D01*
Y244628D01*
X450937Y241565D01*
X411018D01*
X410618Y242311D01*
X410433Y242835D01*
X411000Y244204D01*
Y245796D01*
X410391Y247266D01*
X409266Y248391D01*
X407796Y249000D01*
X406204D01*
X404734Y248391D01*
X403974Y249346D01*
X407063Y252435D01*
X454908D01*
X455734Y251609D01*
X457204Y251000D01*
X458796D01*
X460266Y251609D01*
X461391Y252734D01*
X462000Y254204D01*
Y255796D01*
X461391Y257266D01*
X460266Y258391D01*
X458796Y259000D01*
X457204D01*
X455734Y258391D01*
X454908Y257565D01*
X406000D01*
X405018Y257370D01*
X404186Y256814D01*
X402270Y254898D01*
X401000Y255424D01*
Y255796D01*
X400391Y257266D01*
X399266Y258391D01*
X397796Y259000D01*
X396204D01*
X394734Y258391D01*
X393609Y257266D01*
X393000Y255796D01*
Y254204D01*
X393609Y252734D01*
X394508Y251835D01*
X394240Y250770D01*
X394118Y250565D01*
X387063D01*
X384898Y252730D01*
X385424Y254000D01*
X385796D01*
X387266Y254609D01*
X388391Y255734D01*
X389000Y257204D01*
Y258796D01*
X388391Y260266D01*
X387266Y261391D01*
X385796Y262000D01*
X384204D01*
X382734Y261391D01*
X381609Y260266D01*
X381000Y258796D01*
Y258424D01*
X379730Y257898D01*
X372564Y265064D01*
X371732Y265620D01*
X370750Y265815D01*
X349841D01*
X349016Y266641D01*
X347546Y267250D01*
D02*
G37*
G36*
X374796Y252750D02*
X373204D01*
X371734Y252141D01*
X370609Y251016D01*
X370000Y249546D01*
Y247954D01*
X370609Y246484D01*
X371734Y245359D01*
X373204Y244750D01*
X374796D01*
X376266Y245359D01*
X377391Y246484D01*
X378000Y247954D01*
Y249546D01*
X377391Y251016D01*
X376266Y252141D01*
X374796Y252750D01*
D02*
G37*
G36*
X361796Y252500D02*
X360204D01*
X358734Y251891D01*
X357609Y250766D01*
X357000Y249296D01*
Y247704D01*
X357609Y246234D01*
X358734Y245109D01*
X360204Y244500D01*
X361796D01*
X363266Y245109D01*
X364391Y246234D01*
X365000Y247704D01*
Y249296D01*
X364391Y250766D01*
X363266Y251891D01*
X361796Y252500D01*
D02*
G37*
G36*
X24000Y276608D02*
X20737Y276178D01*
X17696Y274919D01*
X15085Y272915D01*
X13081Y270304D01*
X11822Y267263D01*
X11392Y264000D01*
Y256000D01*
X11822Y252737D01*
X13081Y249696D01*
X15085Y247085D01*
X17696Y245081D01*
X20737Y243822D01*
X24000Y243392D01*
X27263Y243822D01*
X30304Y245081D01*
X32915Y247085D01*
X34919Y249696D01*
X36178Y252737D01*
X36608Y256000D01*
Y264000D01*
X36178Y267263D01*
X34919Y270304D01*
X32915Y272915D01*
X30304Y274919D01*
X27263Y276178D01*
X24000Y276608D01*
D02*
G37*
G36*
X90055Y255516D02*
X87945D01*
X85906Y254970D01*
X84078Y253914D01*
X82586Y252422D01*
X81530Y250594D01*
X80984Y248555D01*
Y246445D01*
X81530Y244406D01*
X82586Y242578D01*
X84078Y241086D01*
X85906Y240030D01*
X87945Y239484D01*
X90055D01*
X92094Y240030D01*
X93922Y241086D01*
X95414Y242578D01*
X96470Y244406D01*
X97016Y246445D01*
Y248555D01*
X96470Y250594D01*
X95414Y252422D01*
X93922Y253914D01*
X92094Y254970D01*
X90055Y255516D01*
D02*
G37*
G36*
X313796Y230500D02*
X312204D01*
X310734Y229891D01*
X309609Y228766D01*
X309000Y227296D01*
Y225704D01*
X309609Y224234D01*
X310734Y223109D01*
X312204Y222500D01*
X313796D01*
X315266Y223109D01*
X316391Y224234D01*
X317000Y225704D01*
Y227296D01*
X316391Y228766D01*
X315266Y229891D01*
X313796Y230500D01*
D02*
G37*
G36*
X300796Y230250D02*
X299204D01*
X297734Y229641D01*
X296609Y228516D01*
X296000Y227046D01*
Y225454D01*
X296609Y223984D01*
X297734Y222859D01*
X299204Y222250D01*
X300796D01*
X302266Y222859D01*
X303391Y223984D01*
X304000Y225454D01*
Y227046D01*
X303391Y228516D01*
X302266Y229641D01*
X300796Y230250D01*
D02*
G37*
G36*
X407796Y229000D02*
X406204D01*
X404734Y228391D01*
X403609Y227266D01*
X403000Y225796D01*
Y224204D01*
X403609Y222734D01*
X404734Y221609D01*
X406204Y221000D01*
X407796D01*
X409266Y221609D01*
X410391Y222734D01*
X411000Y224204D01*
Y225796D01*
X410391Y227266D01*
X409266Y228391D01*
X407796Y229000D01*
D02*
G37*
G36*
X90055Y230516D02*
X87945D01*
X85906Y229970D01*
X84078Y228914D01*
X82586Y227422D01*
X81530Y225594D01*
X80984Y223555D01*
Y221445D01*
X81530Y219406D01*
X82586Y217578D01*
X84078Y216086D01*
X85906Y215030D01*
X87945Y214484D01*
X90055D01*
X92094Y215030D01*
X93922Y216086D01*
X95414Y217578D01*
X96470Y219406D01*
X97016Y221445D01*
Y223555D01*
X96470Y225594D01*
X95414Y227422D01*
X93922Y228914D01*
X92094Y229970D01*
X90055Y230516D01*
D02*
G37*
G36*
X374796Y217750D02*
X373204D01*
X371734Y217141D01*
X370609Y216016D01*
X370000Y214546D01*
Y212954D01*
X370609Y211484D01*
X371734Y210359D01*
X373204Y209750D01*
X374796D01*
X376266Y210359D01*
X377391Y211484D01*
X378000Y212954D01*
Y214546D01*
X377391Y216016D01*
X376266Y217141D01*
X374796Y217750D01*
D02*
G37*
G36*
X361796Y217500D02*
X360204D01*
X358734Y216891D01*
X357609Y215766D01*
X357000Y214296D01*
Y212704D01*
X357609Y211234D01*
X358734Y210109D01*
X360204Y209500D01*
X361796D01*
X363266Y210109D01*
X364391Y211234D01*
X365000Y212704D01*
Y214296D01*
X364391Y215766D01*
X363266Y216891D01*
X361796Y217500D01*
D02*
G37*
G36*
X141796Y310500D02*
X140204D01*
X138734Y309891D01*
X137609Y308766D01*
X137000Y307296D01*
Y305704D01*
X137609Y304234D01*
X138734Y303109D01*
X140204Y302500D01*
X141796D01*
X143266Y303109D01*
X144391Y304234D01*
X145455Y303638D01*
X226823Y222270D01*
X226297Y221000D01*
X226204D01*
X224734Y220391D01*
X223609Y219266D01*
X223000Y217796D01*
Y216204D01*
X223609Y214734D01*
X224734Y213609D01*
X226204Y213000D01*
X227796D01*
X229266Y213609D01*
X230391Y214734D01*
X230674Y215418D01*
X231945Y215166D01*
Y208834D01*
X230674Y208582D01*
X230391Y209266D01*
X229266Y210391D01*
X227796Y211000D01*
X226204D01*
X224734Y210391D01*
X223609Y209266D01*
X223000Y207796D01*
Y206204D01*
X223609Y204734D01*
X224734Y203609D01*
X226204Y203000D01*
X227796D01*
X229266Y203609D01*
X230391Y204734D01*
X230674Y205418D01*
X231945Y205166D01*
Y192478D01*
X231734Y192391D01*
X230609Y191266D01*
X230000Y189796D01*
Y188204D01*
X230609Y186734D01*
X231734Y185609D01*
X233204Y185000D01*
X234796D01*
X236266Y185609D01*
X237280Y186623D01*
X238000Y186683D01*
X238720Y186623D01*
X239734Y185609D01*
X241204Y185000D01*
X242796D01*
X244266Y185609D01*
X245391Y186734D01*
X246000Y188204D01*
Y189796D01*
X245391Y191266D01*
X244266Y192391D01*
X244056Y192478D01*
Y195149D01*
X256979Y208072D01*
X257240Y207964D01*
X258831D01*
X260301Y208573D01*
X261427Y209699D01*
X262036Y211169D01*
Y212760D01*
X261427Y214230D01*
X260301Y215355D01*
X258831Y215965D01*
X257240D01*
X255770Y215355D01*
X254645Y214230D01*
X254035Y212760D01*
Y211169D01*
X254102Y211009D01*
X240546Y197453D01*
X240101Y196787D01*
X239944Y196000D01*
X239944Y196000D01*
Y192478D01*
X239734Y192391D01*
X238720Y191377D01*
X238000Y191317D01*
X237280Y191377D01*
X236266Y192391D01*
X236056Y192478D01*
Y218000D01*
X236056Y218000D01*
X235899Y218787D01*
X235453Y219454D01*
X146953Y307953D01*
X146287Y308399D01*
X145500Y308556D01*
X145500Y308556D01*
X144478D01*
X144391Y308766D01*
X143266Y309891D01*
X141796Y310500D01*
D02*
G37*
G36*
X177296Y354000D02*
X175704D01*
X174234Y353391D01*
X173109Y352266D01*
X172500Y350796D01*
Y349204D01*
X173109Y347734D01*
X174234Y346609D01*
X175704Y346000D01*
X176872D01*
X198206Y324666D01*
Y322072D01*
X198401Y321090D01*
X198957Y320258D01*
X224346Y294870D01*
X225178Y294314D01*
X226159Y294118D01*
X228754D01*
X278435Y244437D01*
Y211091D01*
X277609Y210266D01*
X277000Y208796D01*
Y207204D01*
X277609Y205734D01*
X278734Y204609D01*
X280204Y204000D01*
X281796D01*
X283266Y204609D01*
X284391Y205734D01*
X285000Y207204D01*
Y208796D01*
X284391Y210266D01*
X283565Y211091D01*
Y245500D01*
X283370Y246482D01*
X282814Y247314D01*
X231630Y298498D01*
X230798Y299054D01*
X229816Y299249D01*
X227222D01*
X203336Y323135D01*
Y325729D01*
X203141Y326711D01*
X202585Y327543D01*
X180500Y349628D01*
Y350796D01*
X179891Y352266D01*
X178766Y353391D01*
X177296Y354000D01*
D02*
G37*
G36*
X205796Y204000D02*
X204204D01*
X202734Y203391D01*
X201609Y202266D01*
X201000Y200796D01*
Y199204D01*
X201457Y198101D01*
X201068Y197454D01*
X200758Y197087D01*
X200643Y197000D01*
X199357D01*
X199242Y197087D01*
X198932Y197454D01*
X198543Y198101D01*
X199000Y199204D01*
Y200796D01*
X198391Y202266D01*
X197266Y203391D01*
X195796Y204000D01*
X194204D01*
X192734Y203391D01*
X191609Y202266D01*
X191000Y200796D01*
Y199204D01*
X191457Y198101D01*
X191068Y197454D01*
X190758Y197087D01*
X190643Y197000D01*
X189357D01*
X189242Y197087D01*
X188932Y197454D01*
X188543Y198101D01*
X189000Y199204D01*
Y200796D01*
X188391Y202266D01*
X187266Y203391D01*
X185796Y204000D01*
X184204D01*
X182734Y203391D01*
X181609Y202266D01*
X181000Y200796D01*
Y199204D01*
X181457Y198101D01*
X181068Y197454D01*
X180758Y197087D01*
X180643Y197000D01*
X179357D01*
X179242Y197087D01*
X178932Y197454D01*
X178543Y198101D01*
X179000Y199204D01*
Y200796D01*
X178391Y202266D01*
X177266Y203391D01*
X175796Y204000D01*
X174204D01*
X172734Y203391D01*
X171609Y202266D01*
X171000Y200796D01*
Y199204D01*
X171457Y198101D01*
X171068Y197454D01*
X170758Y197087D01*
X170643Y197000D01*
X169357D01*
X169242Y197087D01*
X168932Y197454D01*
X168543Y198101D01*
X169000Y199204D01*
Y200796D01*
X168391Y202266D01*
X167266Y203391D01*
X165796Y204000D01*
X164204D01*
X162734Y203391D01*
X161609Y202266D01*
X161000Y200796D01*
Y199204D01*
X161457Y198101D01*
X161068Y197454D01*
X160758Y197087D01*
X160643Y197000D01*
X159204D01*
X157734Y196391D01*
X156609Y195266D01*
X156000Y193796D01*
Y192204D01*
X156609Y190734D01*
X157734Y189609D01*
X159204Y189000D01*
X160796D01*
X162266Y189609D01*
X163391Y190734D01*
X164000Y192204D01*
Y193796D01*
X163543Y194899D01*
X163932Y195546D01*
X164242Y195913D01*
X164357Y196000D01*
X165643D01*
X165758Y195913D01*
X166068Y195546D01*
X166457Y194899D01*
X166000Y193796D01*
Y192204D01*
X166609Y190734D01*
X167734Y189609D01*
X169204Y189000D01*
X170796D01*
X172266Y189609D01*
X173391Y190734D01*
X174000Y192204D01*
Y193796D01*
X173543Y194899D01*
X173932Y195546D01*
X174242Y195913D01*
X174357Y196000D01*
X175643D01*
X175758Y195913D01*
X176068Y195546D01*
X176457Y194899D01*
X176000Y193796D01*
Y192204D01*
X176609Y190734D01*
X177734Y189609D01*
X179204Y189000D01*
X180796D01*
X182266Y189609D01*
X183391Y190734D01*
X184000Y192204D01*
Y193796D01*
X183543Y194899D01*
X183932Y195546D01*
X184242Y195913D01*
X184357Y196000D01*
X185643D01*
X185758Y195913D01*
X186068Y195546D01*
X186457Y194899D01*
X186000Y193796D01*
Y192204D01*
X186609Y190734D01*
X187734Y189609D01*
X189204Y189000D01*
X190796D01*
X192266Y189609D01*
X193391Y190734D01*
X194000Y192204D01*
Y193796D01*
X193543Y194899D01*
X193932Y195546D01*
X194242Y195913D01*
X194357Y196000D01*
X195643D01*
X195758Y195913D01*
X196068Y195546D01*
X196457Y194899D01*
X196000Y193796D01*
Y192204D01*
X196609Y190734D01*
X197734Y189609D01*
X199204Y189000D01*
X200796D01*
X202266Y189609D01*
X203391Y190734D01*
X204000Y192204D01*
Y193796D01*
X203543Y194899D01*
X203932Y195546D01*
X204242Y195913D01*
X204357Y196000D01*
X205643D01*
X205758Y195913D01*
X206068Y195546D01*
X206457Y194899D01*
X206000Y193796D01*
Y192204D01*
X206609Y190734D01*
X207734Y189609D01*
X209204Y189000D01*
X210796D01*
X212266Y189609D01*
X213391Y190734D01*
X214000Y192204D01*
Y193796D01*
X213391Y195266D01*
X212266Y196391D01*
X210796Y197000D01*
X209357D01*
X209242Y197087D01*
X208932Y197454D01*
X208543Y198101D01*
X209000Y199204D01*
Y200796D01*
X208391Y202266D01*
X207266Y203391D01*
X205796Y204000D01*
D02*
G37*
G36*
X287296Y201000D02*
X285704D01*
X284234Y200391D01*
X283109Y199266D01*
X282500Y197796D01*
Y196204D01*
X283109Y194734D01*
X283944Y193899D01*
Y190258D01*
X282675Y189732D01*
X282266Y190141D01*
X280796Y190750D01*
X279204D01*
X277734Y190141D01*
X276609Y189016D01*
X276000Y187546D01*
Y185954D01*
X276609Y184484D01*
X277734Y183359D01*
X279204Y182750D01*
X280796D01*
X282266Y183359D01*
X282675Y183768D01*
X283944Y183242D01*
Y181851D01*
X275149Y173055D01*
X230000D01*
X230000Y173055D01*
X229213Y172899D01*
X228547Y172453D01*
X228547Y172453D01*
X155228Y99135D01*
X154000Y99703D01*
Y100828D01*
X153391Y102298D01*
X152266Y103423D01*
X150796Y104032D01*
X149204D01*
X147734Y103423D01*
X147421Y103110D01*
X146345Y103830D01*
X146500Y104204D01*
Y105796D01*
X146300Y106279D01*
X147376Y106999D01*
X147734Y106641D01*
X149204Y106032D01*
X150796D01*
X152266Y106641D01*
X153391Y107766D01*
X154000Y109236D01*
Y110828D01*
X153391Y112298D01*
X152266Y113423D01*
X150796Y114032D01*
X149204D01*
X147734Y113423D01*
X147421Y113110D01*
X146345Y113830D01*
X146500Y114204D01*
Y115796D01*
X146300Y116279D01*
X147376Y116999D01*
X147734Y116641D01*
X149204Y116032D01*
X150796D01*
X152266Y116641D01*
X153391Y117766D01*
X154000Y119236D01*
Y120828D01*
X153391Y122298D01*
X152266Y123423D01*
X150796Y124032D01*
X149204D01*
X147734Y123423D01*
X147421Y123110D01*
X146345Y123830D01*
X146500Y124204D01*
Y125796D01*
X146322Y126225D01*
X147399Y126944D01*
X147734Y126609D01*
X149204Y126000D01*
X150796D01*
X152266Y126609D01*
X153391Y127734D01*
X154000Y129204D01*
Y130796D01*
X153391Y132266D01*
X152266Y133391D01*
X150796Y134000D01*
X149204D01*
X147734Y133391D01*
X147399Y133056D01*
X146322Y133775D01*
X146500Y134204D01*
Y135796D01*
X145891Y137266D01*
X144766Y138391D01*
X143296Y139000D01*
X141704D01*
X140234Y138391D01*
X139109Y137266D01*
X138500Y135796D01*
Y134204D01*
X139109Y132734D01*
X140234Y131609D01*
X141704Y131000D01*
X143296D01*
X144766Y131609D01*
X145101Y131944D01*
X146178Y131225D01*
X146000Y130796D01*
Y129204D01*
X146178Y128775D01*
X145101Y128056D01*
X144766Y128391D01*
X143296Y129000D01*
X141704D01*
X140234Y128391D01*
X139109Y127266D01*
X138500Y125796D01*
Y124204D01*
X139109Y122734D01*
X140234Y121609D01*
X141704Y121000D01*
X143296D01*
X144766Y121609D01*
X145079Y121922D01*
X146155Y121202D01*
X146000Y120828D01*
Y119236D01*
X146200Y118752D01*
X145124Y118033D01*
X144766Y118391D01*
X143296Y119000D01*
X141704D01*
X140234Y118391D01*
X139109Y117266D01*
X138500Y115796D01*
Y114204D01*
X139109Y112734D01*
X140234Y111609D01*
X141704Y111000D01*
X143296D01*
X144766Y111609D01*
X145079Y111922D01*
X146155Y111202D01*
X146000Y110828D01*
Y109236D01*
X146200Y108752D01*
X145124Y108033D01*
X144766Y108391D01*
X143296Y109000D01*
X141704D01*
X140234Y108391D01*
X139109Y107266D01*
X138500Y105796D01*
Y104204D01*
X139109Y102734D01*
X140234Y101609D01*
X141704Y101000D01*
X143296D01*
X144766Y101609D01*
X145079Y101922D01*
X146155Y101202D01*
X146000Y100828D01*
Y99236D01*
X146609Y97766D01*
X147734Y96641D01*
X149204Y96032D01*
X150329D01*
X150897Y94804D01*
X102399Y46305D01*
X73478D01*
X73391Y46516D01*
X72266Y47641D01*
X70796Y48250D01*
X69204D01*
X67734Y47641D01*
X66609Y46516D01*
X66000Y45046D01*
Y43454D01*
X66609Y41984D01*
X67734Y40859D01*
X69204Y40250D01*
X70796D01*
X72266Y40859D01*
X73391Y41984D01*
X73478Y42194D01*
X103250D01*
X103250Y42194D01*
X104037Y42351D01*
X104704Y42797D01*
X230851Y168944D01*
X276000D01*
X276000Y168944D01*
X276787Y169101D01*
X277453Y169547D01*
X287453Y179547D01*
X287453Y179547D01*
X287899Y180213D01*
X288055Y181000D01*
Y193315D01*
X288766Y193609D01*
X289891Y194734D01*
X290500Y196204D01*
Y197796D01*
X289891Y199266D01*
X288766Y200391D01*
X287296Y201000D01*
D02*
G37*
G36*
X313796Y195500D02*
X312204D01*
X310734Y194891D01*
X309609Y193766D01*
X309000Y192296D01*
Y190704D01*
X309609Y189234D01*
X310734Y188109D01*
X312204Y187500D01*
X313796D01*
X315266Y188109D01*
X316391Y189234D01*
X317000Y190704D01*
Y192296D01*
X316391Y193766D01*
X315266Y194891D01*
X313796Y195500D01*
D02*
G37*
G36*
X258796Y231000D02*
X257204D01*
X255734Y230391D01*
X254609Y229266D01*
X254000Y227796D01*
Y226204D01*
X254609Y224734D01*
X255734Y223609D01*
X257204Y223000D01*
X258796D01*
X259006Y223087D01*
X263944Y218149D01*
Y191478D01*
X263734Y191391D01*
X262609Y190266D01*
X262000Y188796D01*
Y187204D01*
X262609Y185734D01*
X263734Y184609D01*
X265204Y184000D01*
X266796D01*
X268266Y184609D01*
X269391Y185734D01*
X270000Y187204D01*
Y188796D01*
X269391Y190266D01*
X268266Y191391D01*
X268055Y191478D01*
Y219000D01*
X267899Y219787D01*
X267453Y220453D01*
X261913Y225994D01*
X262000Y226204D01*
Y227796D01*
X261391Y229266D01*
X260266Y230391D01*
X258796Y231000D01*
D02*
G37*
G36*
X347546Y197250D02*
X345954D01*
X344484Y196641D01*
X343359Y195516D01*
X342750Y194046D01*
Y192454D01*
X343359Y190984D01*
X344484Y189859D01*
X345954Y189250D01*
X347546D01*
X349016Y189859D01*
X349842Y190685D01*
X369687D01*
X405186Y155186D01*
X405711Y154835D01*
X405356Y153565D01*
X404000D01*
X403018Y153370D01*
X402186Y152814D01*
X401346Y151974D01*
X400391Y152734D01*
X401000Y154204D01*
Y155796D01*
X400391Y157266D01*
X399266Y158391D01*
X397796Y159000D01*
X396204D01*
X395994Y158913D01*
X386454Y168454D01*
X385787Y168899D01*
X385000Y169056D01*
X385000Y169056D01*
X375851D01*
X370752Y174155D01*
X370816Y174481D01*
X371003Y174659D01*
X372244Y175148D01*
X373204Y174750D01*
X374796D01*
X376266Y175359D01*
X377391Y176484D01*
X378000Y177954D01*
Y179546D01*
X377391Y181016D01*
X376266Y182141D01*
X374796Y182750D01*
X373204D01*
X371734Y182141D01*
X370609Y181016D01*
X370607Y181012D01*
X370280Y180854D01*
X369134Y180773D01*
X364454Y185453D01*
X363787Y185899D01*
X363000Y186056D01*
X363000Y186056D01*
X319000D01*
X319000Y186056D01*
X318213Y185899D01*
X317547Y185453D01*
X256546Y124453D01*
X256101Y123787D01*
X255944Y123000D01*
X255944Y123000D01*
Y113478D01*
X255734Y113391D01*
X254609Y112266D01*
X254000Y110796D01*
Y109204D01*
X254609Y107734D01*
X255734Y106609D01*
X257204Y106000D01*
X258796D01*
X260266Y106609D01*
X261391Y107734D01*
X262000Y109204D01*
Y110796D01*
X261391Y112266D01*
X260266Y113391D01*
X260056Y113478D01*
Y122149D01*
X319851Y181945D01*
X326272D01*
X326454Y180750D01*
X324984Y180141D01*
X323859Y179016D01*
X323250Y177546D01*
Y175954D01*
X323859Y174484D01*
X324984Y173359D01*
X326454Y172750D01*
X328046D01*
X329516Y173359D01*
X330342Y174185D01*
X351187D01*
X378912Y146460D01*
X378690Y145265D01*
X377502Y145749D01*
X377391Y146016D01*
X376266Y147141D01*
X374796Y147750D01*
X373204D01*
X371734Y147141D01*
X370609Y146016D01*
X370000Y144546D01*
Y142954D01*
X370457Y141851D01*
X369852Y140581D01*
X365397D01*
X364647Y141851D01*
X365000Y142704D01*
Y144296D01*
X364391Y145766D01*
X363266Y146891D01*
X361796Y147500D01*
X360204D01*
X358734Y146891D01*
X357609Y145766D01*
X357000Y144296D01*
X355730Y143898D01*
X349315Y150313D01*
Y155159D01*
X350141Y155984D01*
X350750Y157454D01*
Y159046D01*
X350141Y160516D01*
X349016Y161641D01*
X347546Y162250D01*
X345954D01*
X344484Y161641D01*
X343359Y160516D01*
X342750Y159046D01*
Y157454D01*
X343359Y155984D01*
X344185Y155159D01*
Y149250D01*
X344380Y148268D01*
X344936Y147436D01*
X354633Y137739D01*
X354147Y136565D01*
X336063D01*
X331250Y141378D01*
Y142796D01*
X330641Y144266D01*
X329516Y145391D01*
X328046Y146000D01*
X326454D01*
X324984Y145391D01*
X323859Y144266D01*
X323250Y142796D01*
Y141204D01*
X323859Y139734D01*
X324984Y138609D01*
X326454Y138000D01*
X327372D01*
X333186Y132186D01*
X334018Y131630D01*
X335000Y131435D01*
X336869D01*
X337355Y130261D01*
X299149Y92056D01*
X290834D01*
X290581Y93326D01*
X291266Y93609D01*
X292391Y94734D01*
X293000Y96204D01*
Y97796D01*
X292391Y99266D01*
X291377Y100280D01*
X291317Y101000D01*
X291377Y101720D01*
X292391Y102734D01*
X293000Y104204D01*
Y105796D01*
X292391Y107266D01*
X291377Y108280D01*
X291317Y109000D01*
X291377Y109720D01*
X292391Y110734D01*
X293000Y112204D01*
Y113796D01*
X292391Y115266D01*
X291266Y116391D01*
X289796Y117000D01*
X288204D01*
X286734Y116391D01*
X285609Y115266D01*
X285000Y113796D01*
Y112204D01*
X285609Y110734D01*
X286623Y109720D01*
X286683Y109000D01*
X286623Y108280D01*
X285609Y107266D01*
X285000Y105796D01*
Y104204D01*
X285609Y102734D01*
X286623Y101720D01*
X286683Y101000D01*
X286623Y100280D01*
X285609Y99266D01*
X285000Y97796D01*
Y96204D01*
X285609Y94734D01*
X286734Y93609D01*
X287419Y93326D01*
X287166Y92056D01*
X281000D01*
X281000Y92056D01*
X280213Y91899D01*
X279547Y91454D01*
X267149Y79056D01*
X261478D01*
X261391Y79266D01*
X260951Y79706D01*
X260342Y80499D01*
X260951Y81365D01*
X261355Y81770D01*
X261964Y83240D01*
Y84831D01*
X261355Y86301D01*
X260230Y87427D01*
X258760Y88035D01*
X257169D01*
X255699Y87427D01*
X254573Y86301D01*
X253965Y84831D01*
Y83240D01*
X254573Y81770D01*
X255014Y81330D01*
X255623Y80536D01*
X255014Y79670D01*
X254609Y79266D01*
X254000Y77796D01*
Y76204D01*
X254609Y74734D01*
X255014Y74330D01*
X255651Y73500D01*
X255014Y72670D01*
X254609Y72266D01*
X254000Y70796D01*
Y69204D01*
X254609Y67734D01*
X255734Y66609D01*
X257204Y66000D01*
X258796D01*
X260266Y66609D01*
X261391Y67734D01*
X262000Y69204D01*
Y70796D01*
X261391Y72266D01*
X260986Y72670D01*
X260350Y73500D01*
X260986Y74330D01*
X261391Y74734D01*
X261478Y74945D01*
X268000D01*
X268000Y74945D01*
X268787Y75101D01*
X269454Y75546D01*
X281851Y87944D01*
X285563D01*
X286089Y86674D01*
X285644Y86230D01*
X285035Y84760D01*
Y83169D01*
X285644Y81699D01*
X286770Y80573D01*
X288240Y79964D01*
X289831D01*
X291301Y80573D01*
X292426Y81699D01*
X293036Y83169D01*
Y84760D01*
X292426Y86230D01*
X291982Y86674D01*
X292508Y87944D01*
X300000D01*
X300000Y87944D01*
X300787Y88101D01*
X301453Y88546D01*
X340851Y127944D01*
X342410D01*
X343127Y126674D01*
X342750Y125764D01*
Y124172D01*
X343359Y122702D01*
X344484Y121577D01*
X345954Y120968D01*
X347546D01*
X349016Y121577D01*
X349874Y122435D01*
X365937D01*
X374352Y114020D01*
X373826Y112750D01*
X373204D01*
X371734Y112141D01*
X370609Y111016D01*
X370000Y109546D01*
Y107954D01*
X370609Y106484D01*
X371734Y105359D01*
X373204Y104750D01*
X374796D01*
X376266Y105359D01*
X377391Y106484D01*
X378000Y107954D01*
Y108576D01*
X379270Y109102D01*
X382186Y106186D01*
X383018Y105630D01*
X384000Y105435D01*
X451000D01*
X451982Y105630D01*
X452814Y106186D01*
X452827Y106199D01*
X453393Y106004D01*
X454000Y105576D01*
Y104204D01*
X454609Y102734D01*
X455734Y101609D01*
X457204Y101000D01*
X458796D01*
X460266Y101609D01*
X461391Y102734D01*
X462000Y104204D01*
Y105796D01*
X461391Y107266D01*
X460266Y108391D01*
X458796Y109000D01*
X457424D01*
X456996Y109607D01*
X456842Y110056D01*
X457636Y111000D01*
X458796D01*
X460266Y111609D01*
X461391Y112734D01*
X462000Y114204D01*
Y115796D01*
X461391Y117266D01*
X460266Y118391D01*
X458796Y119000D01*
X457204D01*
X455734Y118391D01*
X454609Y117266D01*
X454000Y115796D01*
Y114628D01*
X449937Y110565D01*
X399882D01*
X399761Y110770D01*
X399492Y111835D01*
X400391Y112734D01*
X401000Y114204D01*
Y115796D01*
X400391Y117266D01*
X399266Y118391D01*
X397796Y119000D01*
X396204D01*
X394734Y118391D01*
X393609Y117266D01*
X393000Y115796D01*
Y114204D01*
X393609Y112734D01*
X394508Y111835D01*
X394239Y110770D01*
X394118Y110565D01*
X385063D01*
X381974Y113654D01*
X382734Y114609D01*
X384204Y114000D01*
X385796D01*
X387266Y114609D01*
X388391Y115734D01*
X389000Y117204D01*
Y118796D01*
X388636Y119675D01*
X389372Y120944D01*
X393094D01*
X393094Y120944D01*
X393881Y121101D01*
X394548Y121546D01*
X395429Y122429D01*
X403915D01*
X404734Y121609D01*
X406204Y121000D01*
X407796D01*
X409266Y121609D01*
X410391Y122734D01*
X411000Y124204D01*
Y125796D01*
X410439Y127149D01*
X410648Y127726D01*
X411034Y128419D01*
X416716D01*
X417242Y127149D01*
X416859Y126766D01*
X416250Y125296D01*
Y123704D01*
X416859Y122234D01*
X417984Y121109D01*
X419454Y120500D01*
X421046D01*
X422516Y121109D01*
X423641Y122234D01*
X424250Y123704D01*
Y125296D01*
X423641Y126766D01*
X423258Y127149D01*
X423784Y128419D01*
X450953D01*
X454000Y125372D01*
Y124204D01*
X454609Y122734D01*
X455734Y121609D01*
X457204Y121000D01*
X458796D01*
X460266Y121609D01*
X461391Y122734D01*
X462000Y124204D01*
Y125796D01*
X461391Y127266D01*
X460266Y128391D01*
X458796Y129000D01*
X457636D01*
X456842Y129944D01*
X456996Y130393D01*
X457424Y131000D01*
X458796D01*
X460266Y131609D01*
X461391Y132734D01*
X462000Y134204D01*
Y135796D01*
X461391Y137266D01*
X460266Y138391D01*
X458796Y139000D01*
X457204D01*
X455734Y138391D01*
X454908Y137565D01*
X409063D01*
X406898Y139730D01*
X407424Y141000D01*
X407796D01*
X409266Y141609D01*
X410391Y142734D01*
X411000Y144204D01*
Y145576D01*
X411607Y146004D01*
X412173Y146199D01*
X415186Y143186D01*
X416018Y142630D01*
X417000Y142435D01*
X454908D01*
X455734Y141609D01*
X457204Y141000D01*
X458796D01*
X460266Y141609D01*
X461391Y142734D01*
X462000Y144204D01*
Y145796D01*
X461391Y147266D01*
X460266Y148391D01*
X458796Y149000D01*
X457424D01*
X456996Y149607D01*
X456842Y150056D01*
X457636Y151000D01*
X458796D01*
X460266Y151609D01*
X461391Y152734D01*
X462000Y154204D01*
Y155796D01*
X461391Y157266D01*
X460266Y158391D01*
X458796Y159000D01*
X457204D01*
X455734Y158391D01*
X454609Y157266D01*
X454000Y155796D01*
Y154628D01*
X452937Y153565D01*
X420324D01*
X419752Y154301D01*
X420318Y155500D01*
X421046D01*
X422516Y156109D01*
X423641Y157234D01*
X424250Y158704D01*
Y160296D01*
X423641Y161766D01*
X422516Y162891D01*
X421046Y163500D01*
X419454D01*
X417984Y162891D01*
X416859Y161766D01*
X416250Y160296D01*
Y159174D01*
X415020Y158608D01*
X414814Y158814D01*
X413982Y159370D01*
X413000Y159565D01*
X408063D01*
X372564Y195064D01*
X371732Y195620D01*
X370750Y195815D01*
X349842D01*
X349016Y196641D01*
X347546Y197250D01*
D02*
G37*
G36*
X458796Y179000D02*
X457204D01*
X455734Y178391D01*
X454609Y177266D01*
X454000Y175796D01*
Y174204D01*
X454609Y172734D01*
X455734Y171609D01*
X457204Y171000D01*
X458796D01*
X460266Y171609D01*
X461391Y172734D01*
X462000Y174204D01*
Y175796D01*
X461391Y177266D01*
X460266Y178391D01*
X458796Y179000D01*
D02*
G37*
G36*
X402796D02*
X401204D01*
X399734Y178391D01*
X398609Y177266D01*
X398000Y175796D01*
Y174204D01*
X398609Y172734D01*
X399734Y171609D01*
X401204Y171000D01*
X402796D01*
X404266Y171609D01*
X405391Y172734D01*
X406000Y174204D01*
Y175796D01*
X405391Y177266D01*
X404266Y178391D01*
X402796Y179000D01*
D02*
G37*
G36*
X458796Y169000D02*
X457204D01*
X455734Y168391D01*
X454609Y167266D01*
X454000Y165796D01*
Y164204D01*
X454609Y162734D01*
X455734Y161609D01*
X457204Y161000D01*
X458796D01*
X460266Y161609D01*
X461391Y162734D01*
X462000Y164204D01*
Y165796D01*
X461391Y167266D01*
X460266Y168391D01*
X458796Y169000D01*
D02*
G37*
G36*
X258796Y162000D02*
X257204D01*
X255734Y161391D01*
X254609Y160266D01*
X254000Y158796D01*
Y157204D01*
X254609Y155734D01*
X255734Y154609D01*
X257204Y154000D01*
X258796D01*
X260266Y154609D01*
X261391Y155734D01*
X262000Y157204D01*
Y158796D01*
X261391Y160266D01*
X260266Y161391D01*
X258796Y162000D01*
D02*
G37*
G36*
X166796D02*
X165204D01*
X163734Y161391D01*
X162609Y160266D01*
X162000Y158796D01*
Y157204D01*
X162609Y155734D01*
X163734Y154609D01*
X165204Y154000D01*
X166796D01*
X168266Y154609D01*
X169391Y155734D01*
X170000Y157204D01*
Y158796D01*
X169391Y160266D01*
X168266Y161391D01*
X166796Y162000D01*
D02*
G37*
G36*
X131784Y170781D02*
X47816D01*
X46834Y170586D01*
X46002Y170030D01*
X42688Y166716D01*
X33684D01*
Y154084D01*
X35793D01*
X35880Y153941D01*
X36182Y152814D01*
X34646Y151278D01*
X33684Y148956D01*
Y148208D01*
X40000D01*
Y147192D01*
X33684D01*
Y146444D01*
X34646Y144122D01*
X36422Y142346D01*
X37166Y142037D01*
Y140663D01*
X36422Y140354D01*
X34646Y138578D01*
X33684Y136256D01*
Y135508D01*
X40000D01*
Y134492D01*
X33684D01*
Y133744D01*
X34646Y131422D01*
X36422Y129646D01*
X37166Y129337D01*
Y127963D01*
X36422Y127654D01*
X34646Y125878D01*
X33684Y123556D01*
Y121044D01*
X34646Y118722D01*
X36422Y116946D01*
X37166Y116637D01*
Y115263D01*
X36422Y114955D01*
X34646Y113178D01*
X33684Y110856D01*
Y108344D01*
X34646Y106022D01*
X36422Y104246D01*
X38744Y103284D01*
X41256D01*
X41981Y103584D01*
X42701Y102508D01*
X36546Y96354D01*
X36101Y95687D01*
X35944Y94900D01*
X35944Y94900D01*
Y58000D01*
X35944Y58000D01*
X36101Y57213D01*
X36546Y56547D01*
X71547Y21547D01*
X71547Y21546D01*
X72213Y21101D01*
X73000Y20944D01*
X189000D01*
X189000Y20944D01*
X189787Y21101D01*
X190453Y21546D01*
X206994Y38087D01*
X207204Y38000D01*
X208796D01*
X210266Y38609D01*
X211391Y39734D01*
X212000Y41204D01*
Y42796D01*
X211913Y43006D01*
X215851Y46944D01*
X224166D01*
X224419Y45675D01*
X223734Y45391D01*
X222609Y44266D01*
X222000Y42796D01*
Y41204D01*
X222609Y39734D01*
X223734Y38609D01*
X225204Y38000D01*
X226796D01*
X228266Y38609D01*
X229280Y39623D01*
X230000Y39683D01*
X230720Y39623D01*
X231734Y38609D01*
X233204Y38000D01*
X234796D01*
X236266Y38609D01*
X237391Y39734D01*
X238000Y41204D01*
Y42796D01*
X237391Y44266D01*
X236266Y45391D01*
X235581Y45675D01*
X235834Y46944D01*
X256166D01*
X256419Y45675D01*
X255734Y45391D01*
X254609Y44266D01*
X254000Y42796D01*
Y41204D01*
X254609Y39734D01*
X255734Y38609D01*
X257204Y38000D01*
X258796D01*
X260266Y38609D01*
X261391Y39734D01*
X262000Y41204D01*
Y42796D01*
X261391Y44266D01*
X260266Y45391D01*
X259581Y45675D01*
X259834Y46944D01*
X343648D01*
X356087Y34506D01*
X356000Y34296D01*
Y32704D01*
X356609Y31234D01*
X357734Y30109D01*
X359204Y29500D01*
X360796D01*
X362266Y30109D01*
X363391Y31234D01*
X364000Y32704D01*
Y34296D01*
X363391Y35766D01*
X362266Y36891D01*
X360796Y37500D01*
X359204D01*
X358994Y37413D01*
X345953Y50454D01*
X345623Y50675D01*
X346008Y51944D01*
X364149D01*
X384047Y32047D01*
X384047Y32046D01*
X384713Y31601D01*
X385500Y31444D01*
X406522D01*
X406609Y31234D01*
X407734Y30109D01*
X409204Y29500D01*
X410796D01*
X412266Y30109D01*
X413391Y31234D01*
X414000Y32704D01*
Y34296D01*
X413391Y35766D01*
X412266Y36891D01*
X410796Y37500D01*
X409204D01*
X407734Y36891D01*
X406609Y35766D01*
X406522Y35556D01*
X386351D01*
X366454Y55454D01*
X365787Y55899D01*
X365000Y56055D01*
X365000Y56055D01*
X158851D01*
X145913Y68994D01*
X146000Y69204D01*
Y70796D01*
X145391Y72266D01*
X144266Y73391D01*
X142796Y74000D01*
X141204D01*
X139734Y73391D01*
X138609Y72266D01*
X138000Y70796D01*
Y69204D01*
X138609Y67734D01*
X139734Y66609D01*
X141204Y66000D01*
X142796D01*
X143006Y66087D01*
X156546Y52547D01*
X156546Y52547D01*
X157213Y52101D01*
X158000Y51944D01*
X213492D01*
X213877Y50675D01*
X213547Y50454D01*
X209006Y45913D01*
X208796Y46000D01*
X207204D01*
X205734Y45391D01*
X204609Y44266D01*
X204000Y42796D01*
Y41204D01*
X204087Y40994D01*
X188148Y25055D01*
X73851D01*
X40055Y58851D01*
Y94049D01*
X49921Y103914D01*
X51444Y103284D01*
X53956D01*
X56278Y104246D01*
X58054Y106022D01*
X59016Y108344D01*
Y110856D01*
X58054Y113178D01*
X56278Y114955D01*
X55534Y115263D01*
Y116637D01*
X56278Y116946D01*
X58054Y118722D01*
X59016Y121044D01*
Y123556D01*
X58054Y125878D01*
X56278Y127654D01*
X55534Y127963D01*
Y129337D01*
X56278Y129646D01*
X58054Y131422D01*
X59016Y133744D01*
Y136256D01*
X58054Y138578D01*
X56278Y140354D01*
X55534Y140663D01*
Y142037D01*
X56278Y142346D01*
X58054Y144122D01*
X59016Y146444D01*
Y148956D01*
X58054Y151278D01*
X56278Y153055D01*
X55534Y153363D01*
Y154737D01*
X56278Y155046D01*
X58054Y156822D01*
X59016Y159144D01*
Y161656D01*
X58054Y163978D01*
X57555Y164477D01*
X58041Y165651D01*
X130721D01*
X138000Y158372D01*
Y157204D01*
X138609Y155734D01*
X139734Y154609D01*
X141204Y154000D01*
X142796D01*
X144266Y154609D01*
X145391Y155734D01*
X146000Y157204D01*
Y158796D01*
X145391Y160266D01*
X144266Y161391D01*
X142796Y162000D01*
X141628D01*
X133598Y170030D01*
X132766Y170586D01*
X131784Y170781D01*
D02*
G37*
G36*
X313796Y160500D02*
X312204D01*
X310734Y159891D01*
X309609Y158766D01*
X309000Y157296D01*
Y155704D01*
X309609Y154234D01*
X310734Y153109D01*
X312204Y152500D01*
X313796D01*
X315266Y153109D01*
X316391Y154234D01*
X317000Y155704D01*
Y157296D01*
X316391Y158766D01*
X315266Y159891D01*
X313796Y160500D01*
D02*
G37*
G36*
X258796Y149000D02*
X257204D01*
X255734Y148391D01*
X254609Y147266D01*
X254000Y145796D01*
Y144204D01*
X254609Y142734D01*
X255734Y141609D01*
X257204Y141000D01*
X258796D01*
X260266Y141609D01*
X261391Y142734D01*
X262000Y144204D01*
Y145796D01*
X261391Y147266D01*
X260266Y148391D01*
X258796Y149000D01*
D02*
G37*
G36*
X290796Y139000D02*
X289204D01*
X287734Y138391D01*
X286609Y137266D01*
X286000Y135796D01*
Y134204D01*
X286609Y132734D01*
X287734Y131609D01*
X289204Y131000D01*
X290796D01*
X292266Y131609D01*
X292730Y132073D01*
X294000Y131547D01*
Y131204D01*
X294609Y129734D01*
X295734Y128609D01*
X297204Y128000D01*
X298796D01*
X300266Y128609D01*
X301391Y129734D01*
X302000Y131204D01*
Y132796D01*
X301391Y134266D01*
X300266Y135391D01*
X298796Y136000D01*
X297204D01*
X295734Y135391D01*
X295270Y134927D01*
X294000Y135453D01*
Y135796D01*
X293391Y137266D01*
X292266Y138391D01*
X290796Y139000D01*
D02*
G37*
G36*
X289796Y128000D02*
X288204D01*
X286734Y127391D01*
X285609Y126266D01*
X285000Y124796D01*
Y123204D01*
X285609Y121734D01*
X286734Y120609D01*
X288204Y120000D01*
X289796D01*
X291266Y120609D01*
X292391Y121734D01*
X293000Y123204D01*
Y124796D01*
X292391Y126266D01*
X291266Y127391D01*
X289796Y128000D01*
D02*
G37*
G36*
X313796Y125500D02*
X312204D01*
X310734Y124891D01*
X309609Y123766D01*
X309000Y122296D01*
Y120704D01*
X309609Y119234D01*
X310734Y118109D01*
X312204Y117500D01*
X313796D01*
X315266Y118109D01*
X316391Y119234D01*
X317000Y120704D01*
Y122296D01*
X316391Y123766D01*
X315266Y124891D01*
X313796Y125500D01*
D02*
G37*
G36*
X361796Y112500D02*
X360204D01*
X358734Y111891D01*
X357609Y110766D01*
X357000Y109296D01*
Y107704D01*
X357609Y106234D01*
X358734Y105109D01*
X360204Y104500D01*
X361796D01*
X363266Y105109D01*
X364391Y106234D01*
X365000Y107704D01*
Y109296D01*
X364391Y110766D01*
X363266Y111891D01*
X361796Y112500D01*
D02*
G37*
G36*
X328046Y110750D02*
X326454D01*
X324984Y110141D01*
X323859Y109016D01*
X323250Y107546D01*
Y105954D01*
X323859Y104484D01*
X324984Y103359D01*
X326454Y102750D01*
X328046D01*
X329516Y103359D01*
X330641Y104484D01*
X331250Y105954D01*
Y107546D01*
X330641Y109016D01*
X329516Y110141D01*
X328046Y110750D01*
D02*
G37*
G36*
X458796Y99000D02*
X457204D01*
X455734Y98391D01*
X454609Y97266D01*
X454000Y95796D01*
Y94204D01*
X454609Y92734D01*
X455734Y91609D01*
X457204Y91000D01*
X458796D01*
X460266Y91609D01*
X461391Y92734D01*
X462000Y94204D01*
Y95796D01*
X461391Y97266D01*
X460266Y98391D01*
X458796Y99000D01*
D02*
G37*
G36*
X258796D02*
X257204D01*
X255734Y98391D01*
X254609Y97266D01*
X254000Y95796D01*
Y94204D01*
X254609Y92734D01*
X255734Y91609D01*
X257204Y91000D01*
X258796D01*
X260266Y91609D01*
X261391Y92734D01*
X262000Y94204D01*
Y95796D01*
X261391Y97266D01*
X260266Y98391D01*
X258796Y99000D01*
D02*
G37*
G36*
X215796Y89000D02*
X214204D01*
X212734Y88391D01*
X212073Y87730D01*
X211250Y87407D01*
X210427Y87730D01*
X209766Y88391D01*
X208296Y89000D01*
X206704D01*
X205234Y88391D01*
X204573Y87730D01*
X203750Y87407D01*
X202927Y87730D01*
X202266Y88391D01*
X200796Y89000D01*
X199204D01*
X197734Y88391D01*
X196609Y87266D01*
X196000Y85796D01*
Y84204D01*
X196609Y82734D01*
X197734Y81609D01*
X199204Y81000D01*
X200796D01*
X202266Y81609D01*
X202927Y82270D01*
X203750Y82593D01*
X204573Y82270D01*
X205234Y81609D01*
X206704Y81000D01*
X208296D01*
X209766Y81609D01*
X210427Y82270D01*
X211250Y82593D01*
X212073Y82270D01*
X212734Y81609D01*
X214204Y81000D01*
X215796D01*
X217266Y81609D01*
X218391Y82734D01*
X219000Y84204D01*
Y85796D01*
X218391Y87266D01*
X217266Y88391D01*
X215796Y89000D01*
D02*
G37*
G36*
X110796Y94000D02*
X109204D01*
X107734Y93391D01*
X106609Y92266D01*
X106000Y90796D01*
Y89204D01*
X106609Y87734D01*
X107734Y86609D01*
X109204Y86000D01*
X110796D01*
X112266Y86609D01*
X113391Y87734D01*
X114000Y89204D01*
Y90796D01*
X113391Y92266D01*
X112266Y93391D01*
X110796Y94000D01*
D02*
G37*
G36*
X47796Y93500D02*
X46204D01*
X44734Y92891D01*
X43609Y91766D01*
X43000Y90296D01*
Y88704D01*
X43609Y87234D01*
X44734Y86109D01*
X46204Y85500D01*
X47796D01*
X49266Y86109D01*
X50391Y87234D01*
X51000Y88704D01*
Y90296D01*
X50391Y91766D01*
X49266Y92891D01*
X47796Y93500D01*
D02*
G37*
G36*
X347546Y92250D02*
X345954D01*
X344484Y91641D01*
X343359Y90516D01*
X342750Y89046D01*
Y87454D01*
X343359Y85984D01*
X344484Y84859D01*
X345954Y84250D01*
X347546D01*
X349016Y84859D01*
X350141Y85984D01*
X350750Y87454D01*
Y89046D01*
X350141Y90516D01*
X349016Y91641D01*
X347546Y92250D01*
D02*
G37*
G36*
X313796Y90500D02*
X312204D01*
X310734Y89891D01*
X309609Y88766D01*
X309000Y87296D01*
Y85704D01*
X309609Y84234D01*
X310734Y83109D01*
X312204Y82500D01*
X313796D01*
X315266Y83109D01*
X316391Y84234D01*
X317000Y85704D01*
Y87296D01*
X316391Y88766D01*
X315266Y89891D01*
X313796Y90500D01*
D02*
G37*
G36*
X458796Y89000D02*
X457204D01*
X455734Y88391D01*
X454609Y87266D01*
X454000Y85796D01*
Y84204D01*
X454609Y82734D01*
X455734Y81609D01*
X457204Y81000D01*
X458796D01*
X460266Y81609D01*
X461391Y82734D01*
X462000Y84204D01*
Y85796D01*
X461391Y87266D01*
X460266Y88391D01*
X458796Y89000D01*
D02*
G37*
G36*
X63796Y93500D02*
X62204D01*
X60734Y92891D01*
X59609Y91766D01*
X59000Y90296D01*
Y88704D01*
X59609Y87234D01*
X60734Y86109D01*
X61786Y85673D01*
Y84327D01*
X60734Y83891D01*
X59609Y82766D01*
X59000Y81296D01*
Y79704D01*
X59609Y78234D01*
X60734Y77109D01*
X62204Y76500D01*
X63796D01*
X65266Y77109D01*
X66391Y78234D01*
X67000Y79704D01*
Y81296D01*
X66391Y82766D01*
X65266Y83891D01*
X64214Y84327D01*
Y85673D01*
X65266Y86109D01*
X66391Y87234D01*
X67000Y88704D01*
Y90296D01*
X66391Y91766D01*
X65266Y92891D01*
X63796Y93500D01*
D02*
G37*
G36*
X110796Y84000D02*
X109204D01*
X107734Y83391D01*
X106609Y82266D01*
X106000Y80796D01*
Y79204D01*
X106609Y77734D01*
X107734Y76609D01*
X109204Y76000D01*
X110796D01*
X112266Y76609D01*
X113391Y77734D01*
X114000Y79204D01*
Y80796D01*
X113391Y82266D01*
X112266Y83391D01*
X110796Y84000D01*
D02*
G37*
G36*
X374796Y77750D02*
X373204D01*
X371734Y77141D01*
X370609Y76016D01*
X370000Y74546D01*
Y72954D01*
X370609Y71484D01*
X371734Y70359D01*
X373204Y69750D01*
X374796D01*
X376266Y70359D01*
X377391Y71484D01*
X378000Y72954D01*
Y74546D01*
X377391Y76016D01*
X376266Y77141D01*
X374796Y77750D01*
D02*
G37*
G36*
X361796Y77500D02*
X360204D01*
X358734Y76891D01*
X357609Y75766D01*
X357000Y74296D01*
Y72704D01*
X357609Y71234D01*
X358734Y70109D01*
X360204Y69500D01*
X361796D01*
X363266Y70109D01*
X364391Y71234D01*
X365000Y72704D01*
Y74296D01*
X364391Y75766D01*
X363266Y76891D01*
X361796Y77500D01*
D02*
G37*
G36*
X328046Y75750D02*
X326454D01*
X324984Y75141D01*
X323859Y74016D01*
X323250Y72546D01*
Y70954D01*
X323859Y69484D01*
X324984Y68359D01*
X326454Y67750D01*
X328046D01*
X329516Y68359D01*
X330641Y69484D01*
X331250Y70954D01*
Y72546D01*
X330641Y74016D01*
X329516Y75141D01*
X328046Y75750D01*
D02*
G37*
G36*
X110796Y74000D02*
X109204D01*
X107734Y73391D01*
X106609Y72266D01*
X106000Y70796D01*
Y69204D01*
X106609Y67734D01*
X107734Y66609D01*
X109204Y66000D01*
X110796D01*
X112266Y66609D01*
X113391Y67734D01*
X114000Y69204D01*
Y70796D01*
X113391Y72266D01*
X112266Y73391D01*
X110796Y74000D01*
D02*
G37*
G36*
X63796Y73500D02*
X62204D01*
X60734Y72891D01*
X59609Y71766D01*
X59000Y70296D01*
Y68704D01*
X59609Y67234D01*
X60734Y66109D01*
X61786Y65673D01*
Y64327D01*
X60734Y63891D01*
X59609Y62766D01*
X59000Y61296D01*
Y59704D01*
X59609Y58234D01*
X60734Y57109D01*
X62204Y56500D01*
X63796D01*
X65266Y57109D01*
X66391Y58234D01*
X67000Y59704D01*
Y61296D01*
X66391Y62766D01*
X65266Y63891D01*
X64214Y64327D01*
Y65673D01*
X65266Y66109D01*
X66391Y67234D01*
X67000Y68704D01*
Y70296D01*
X66391Y71766D01*
X65266Y72891D01*
X63796Y73500D01*
D02*
G37*
G36*
X360796Y50500D02*
X359204D01*
X357734Y49891D01*
X356609Y48766D01*
X356000Y47296D01*
Y45704D01*
X356609Y44234D01*
X357734Y43109D01*
X359204Y42500D01*
X360796D01*
X362266Y43109D01*
X363391Y44234D01*
X364000Y45704D01*
Y47296D01*
X363391Y48766D01*
X362266Y49891D01*
X360796Y50500D01*
D02*
G37*
G36*
X410796Y50250D02*
X409204D01*
X407734Y49641D01*
X406609Y48516D01*
X406000Y47046D01*
Y45454D01*
X406609Y43984D01*
X407734Y42859D01*
X409204Y42250D01*
X410796D01*
X412266Y42859D01*
X413391Y43984D01*
X414000Y45454D01*
Y47046D01*
X413391Y48516D01*
X412266Y49641D01*
X410796Y50250D01*
D02*
G37*
G36*
X190796Y46000D02*
X189204D01*
X187734Y45391D01*
X186609Y44266D01*
X186000Y42796D01*
Y41204D01*
X186609Y39734D01*
X187734Y38609D01*
X189204Y38000D01*
X190796D01*
X192266Y38609D01*
X193391Y39734D01*
X194000Y41204D01*
Y42796D01*
X193391Y44266D01*
X192266Y45391D01*
X190796Y46000D01*
D02*
G37*
G36*
X166796D02*
X165204D01*
X163734Y45391D01*
X162609Y44266D01*
X162000Y42796D01*
Y41204D01*
X162609Y39734D01*
X163734Y38609D01*
X165204Y38000D01*
X166796D01*
X168266Y38609D01*
X169391Y39734D01*
X170000Y41204D01*
Y42796D01*
X169391Y44266D01*
X168266Y45391D01*
X166796Y46000D01*
D02*
G37*
G36*
X142796D02*
X141204D01*
X139734Y45391D01*
X138609Y44266D01*
X138000Y42796D01*
Y41204D01*
X138609Y39734D01*
X139734Y38609D01*
X141204Y38000D01*
X142796D01*
X144266Y38609D01*
X145391Y39734D01*
X146000Y41204D01*
Y42796D01*
X145391Y44266D01*
X144266Y45391D01*
X142796Y46000D01*
D02*
G37*
G36*
X307046Y43500D02*
X305454D01*
X303984Y42891D01*
X302859Y41766D01*
X302250Y40296D01*
Y38704D01*
X302859Y37234D01*
X303984Y36109D01*
X305454Y35500D01*
X307046D01*
X308516Y36109D01*
X309641Y37234D01*
X310250Y38704D01*
Y40296D01*
X309641Y41766D01*
X308516Y42891D01*
X307046Y43500D01*
D02*
G37*
G36*
X258796Y16000D02*
X257204D01*
X255734Y15391D01*
X254720Y14377D01*
X254000Y14317D01*
X253280Y14377D01*
X252266Y15391D01*
X250796Y16000D01*
X249204D01*
X247734Y15391D01*
X246720Y14377D01*
X246000Y14317D01*
X245280Y14377D01*
X244266Y15391D01*
X242796Y16000D01*
X241204D01*
X239734Y15391D01*
X238609Y14266D01*
X238000Y12796D01*
Y11204D01*
X238609Y9734D01*
X239734Y8609D01*
X241204Y8000D01*
X242796D01*
X244266Y8609D01*
X245280Y9623D01*
X246000Y9683D01*
X246720Y9623D01*
X247734Y8609D01*
X249204Y8000D01*
X250796D01*
X252266Y8609D01*
X253280Y9623D01*
X254000Y9683D01*
X254720Y9623D01*
X255734Y8609D01*
X257204Y8000D01*
X258796D01*
X260266Y8609D01*
X261391Y9734D01*
X262000Y11204D01*
Y12796D01*
X261391Y14266D01*
X260266Y15391D01*
X258796Y16000D01*
D02*
G37*
G36*
X324546Y20500D02*
X322954D01*
X321484Y19891D01*
X320359Y18766D01*
X319750Y17296D01*
Y15704D01*
X320359Y14234D01*
X321484Y13109D01*
X322954Y12500D01*
X324546D01*
X326016Y13109D01*
X327141Y14234D01*
X327750Y15704D01*
Y17296D01*
X327141Y18766D01*
X326016Y19891D01*
X324546Y20500D01*
D02*
G37*
G36*
X410796Y17750D02*
X409204D01*
X407734Y17141D01*
X406609Y16016D01*
X406000Y14546D01*
Y12954D01*
X406609Y11484D01*
X407734Y10359D01*
X409204Y9750D01*
X410796D01*
X412266Y10359D01*
X413391Y11484D01*
X414000Y12954D01*
Y14546D01*
X413391Y16016D01*
X412266Y17141D01*
X410796Y17750D01*
D02*
G37*
%LPD*%
D12*
X230000Y171000D02*
X276000D01*
X70000Y44250D02*
X103250D01*
X230000Y171000D01*
X385000Y167000D02*
X397000Y155000D01*
X368000Y174000D02*
X375000Y167000D01*
X385000D01*
X368000Y174000D02*
Y179000D01*
X363000Y184000D02*
X368000Y179000D01*
X319000Y184000D02*
X363000D01*
X258000Y123000D02*
X319000Y184000D01*
X258000Y110000D02*
Y123000D01*
Y77000D02*
X268000D01*
X340000Y130000D02*
X370000D01*
X377000Y123000D01*
X300000Y90000D02*
X340000Y130000D01*
X281000Y90000D02*
X300000D01*
X268000Y77000D02*
X281000Y90000D01*
X377000Y123000D02*
X393094D01*
X394578Y124484D01*
X406484D01*
X407000Y125000D01*
X158000Y54000D02*
X365000D01*
X385500Y33500D01*
X142000Y70000D02*
X158000Y54000D01*
X208000Y42000D02*
X215000Y49000D01*
X344500D02*
X360000Y33500D01*
X215000Y49000D02*
X344500D01*
X242000Y189000D02*
Y196000D01*
X257964Y211964D01*
X258036D01*
X258000Y227000D02*
X266000Y219000D01*
X73000Y23000D02*
X189000D01*
X208000Y42000D01*
X38000Y58000D02*
X73000Y23000D01*
X38000Y58000D02*
Y94900D01*
X52700Y109600D01*
X385500Y33500D02*
X410000D01*
X286000Y181000D02*
Y196500D01*
X286500Y197000D01*
X276000Y171000D02*
X286000Y181000D01*
X234000Y189000D02*
Y218000D01*
X141000Y306500D02*
X145500D01*
X234000Y218000D01*
X266000Y188000D02*
Y219000D01*
D58*
X89000Y297500D02*
D03*
D59*
Y272500D02*
D03*
Y247500D02*
D03*
Y222500D02*
D03*
D60*
X24000Y260000D02*
D03*
D67*
X272106Y379000D02*
X274000D01*
X192000Y382000D02*
X269106D01*
X272106Y379000D01*
X183250Y373250D02*
X192000Y382000D01*
X130000Y373250D02*
X183250D01*
X130000Y373250D02*
X130000Y373250D01*
X80000Y373250D02*
X130000D01*
X176500Y350000D02*
X200771Y325729D01*
Y322072D02*
Y325729D01*
Y322072D02*
X226159Y296684D01*
X229816D02*
X281000Y245500D01*
X226159Y296684D02*
X229816D01*
X47816Y168216D02*
X131784D01*
X142000Y158000D01*
X40000Y160400D02*
X47816Y168216D01*
X346750Y124968D02*
X346782Y125000D01*
X367000D01*
X327250Y141750D02*
Y142000D01*
Y141750D02*
X335000Y134000D01*
X358000Y138000D02*
X363278D01*
X364942Y133984D02*
X364958Y134000D01*
X346750Y149250D02*
X358000Y138000D01*
X357058Y133984D02*
X364942D01*
X388000Y134000D02*
X394000Y128000D01*
X335000Y134000D02*
X357042D01*
X357058Y133984D01*
X364958Y134000D02*
X388000D01*
X376377Y138016D02*
X380361Y142000D01*
X363278Y138000D02*
X363294Y138016D01*
X376377D01*
X413000Y157000D02*
X419000Y151000D01*
X407000Y157000D02*
X413000D01*
X370750Y193250D02*
X407000Y157000D01*
X454000Y151000D02*
X458000Y155000D01*
X419000Y151000D02*
X454000D01*
X404000D02*
X411000D01*
X417000Y145000D01*
X346750Y193250D02*
X370750D01*
X382000Y147000D02*
X400000D01*
X352250Y176750D02*
X382000Y147000D01*
X400000D02*
X404000Y151000D01*
X401000Y142000D02*
X408000Y135000D01*
X380361Y142000D02*
X401000D01*
X327250Y176750D02*
X352250D01*
X417000Y145000D02*
X458000D01*
X346750Y149250D02*
Y158250D01*
X401000Y128000D02*
X403984Y130984D01*
X452016D02*
X458000Y125000D01*
X403984Y130984D02*
X452016D01*
X408000Y135000D02*
X458000D01*
X394000Y128000D02*
X401000D01*
X384000Y108000D02*
X451000D01*
X458000Y115000D01*
X367000Y125000D02*
X384000Y108000D01*
Y281000D02*
X401000D01*
X357271Y275000D02*
X378000D01*
X384000Y281000D01*
X346750Y298250D02*
X373750D01*
X385000Y287000D02*
X399000D01*
X373750Y298250D02*
X385000Y287000D01*
X399000D02*
X407000Y295000D01*
X424000D01*
X452000Y281000D02*
X458000Y275000D01*
X424000Y295000D02*
X438000Y281000D01*
X452000D01*
X449000Y274000D02*
X458000Y265000D01*
X408000Y274000D02*
X449000D01*
X401000Y281000D02*
X408000Y274000D01*
X350521Y281750D02*
X357271Y275000D01*
X327250Y281750D02*
X350521D01*
X406000Y255000D02*
X458000D01*
X386000Y248000D02*
X399000D01*
X406000Y255000D01*
X370750Y263250D02*
X386000Y248000D01*
X346750Y263250D02*
X370750D01*
X346021Y246750D02*
X352271Y240500D01*
X401500D01*
X403000Y239000D02*
X452000D01*
X458000Y245000D01*
X401500Y240500D02*
X403000Y239000D01*
X327250Y246750D02*
X346021D01*
X281000Y208000D02*
Y245500D01*
D68*
X52700Y109600D02*
D03*
X40000D02*
D03*
X52700Y122300D02*
D03*
X40000D02*
D03*
X52700Y135000D02*
D03*
X40000D02*
D03*
X52700Y147700D02*
D03*
X40000D02*
D03*
X52700Y160400D02*
D03*
D69*
X40000D02*
D03*
D70*
X192000Y382000D02*
D03*
X130000Y373250D02*
D03*
X80000Y373250D02*
D03*
X150000Y120032D02*
D03*
Y110032D02*
D03*
Y100032D02*
D03*
X110000Y240500D02*
D03*
X126032Y238750D02*
D03*
X200000Y85000D02*
D03*
X207500D02*
D03*
X215000D02*
D03*
X115000Y327500D02*
D03*
X122500D02*
D03*
X130000D02*
D03*
X176500Y350000D02*
D03*
X474999Y299999D02*
D03*
Y239999D02*
D03*
Y179999D02*
D03*
Y119999D02*
D03*
X354999Y359999D02*
D03*
X219999Y329999D02*
D03*
X69999D02*
D03*
Y209999D02*
D03*
X84999Y179999D02*
D03*
X54999Y299999D02*
D03*
X39999Y269999D02*
D03*
X54999Y239999D02*
D03*
X39999Y209999D02*
D03*
X24999Y299999D02*
D03*
X9999Y269999D02*
D03*
X24999Y239999D02*
D03*
X9999Y209999D02*
D03*
X252000Y221000D02*
D03*
X233822Y122056D02*
D03*
X352000Y167000D02*
D03*
X109000Y141000D02*
D03*
X242000Y12000D02*
D03*
X250000D02*
D03*
X258000D02*
D03*
X183500Y291000D02*
D03*
X397000Y295000D02*
D03*
Y235000D02*
D03*
X142500Y135000D02*
D03*
X150000Y130000D02*
D03*
X142500Y125000D02*
D03*
Y115000D02*
D03*
Y105000D02*
D03*
X346750Y124968D02*
D03*
X327250Y142000D02*
D03*
X258000Y77000D02*
D03*
X327250Y106750D02*
D03*
X289035Y83965D02*
D03*
X257964Y84036D02*
D03*
X289000Y97000D02*
D03*
X397000Y155000D02*
D03*
Y135000D02*
D03*
X407000Y125000D02*
D03*
Y145000D02*
D03*
X397000Y115000D02*
D03*
X346750Y158250D02*
D03*
Y193250D02*
D03*
X327250Y176750D02*
D03*
Y71750D02*
D03*
X346750Y88250D02*
D03*
X458000Y175000D02*
D03*
Y165000D02*
D03*
Y155000D02*
D03*
Y145000D02*
D03*
Y135000D02*
D03*
Y125000D02*
D03*
Y115000D02*
D03*
Y105000D02*
D03*
Y95000D02*
D03*
Y85000D02*
D03*
X402000Y175000D02*
D03*
X385000Y128000D02*
D03*
Y159500D02*
D03*
Y118000D02*
D03*
X410000Y46250D02*
D03*
X258000Y70000D02*
D03*
Y95000D02*
D03*
Y110000D02*
D03*
X397000Y275000D02*
D03*
X407000Y245000D02*
D03*
Y225000D02*
D03*
Y285000D02*
D03*
Y265000D02*
D03*
X397000Y255000D02*
D03*
X327250Y281750D02*
D03*
X346750Y298250D02*
D03*
X327250Y246750D02*
D03*
X346750Y263250D02*
D03*
X402000Y315000D02*
D03*
X458000Y305000D02*
D03*
Y315000D02*
D03*
Y275000D02*
D03*
Y265000D02*
D03*
Y255000D02*
D03*
Y245000D02*
D03*
X385000Y268000D02*
D03*
X410000Y13750D02*
D03*
X420250Y159500D02*
D03*
Y124500D02*
D03*
X442500Y288500D02*
D03*
X420250Y264500D02*
D03*
Y288500D02*
D03*
X360000Y33500D02*
D03*
X242000Y189000D02*
D03*
X289000Y105000D02*
D03*
Y113000D02*
D03*
Y124000D02*
D03*
X290000Y135000D02*
D03*
X298000Y132000D02*
D03*
X152750Y231000D02*
D03*
X385000Y258000D02*
D03*
Y299500D02*
D03*
X205000Y200000D02*
D03*
X258036Y211964D02*
D03*
X258000Y227000D02*
D03*
X180000Y193000D02*
D03*
X210000D02*
D03*
X160000D02*
D03*
X165000Y200000D02*
D03*
X170000Y193000D02*
D03*
X175000Y200000D02*
D03*
X185000D02*
D03*
X190000Y193000D02*
D03*
X195000Y200000D02*
D03*
X200000Y193000D02*
D03*
X110000Y90000D02*
D03*
Y80000D02*
D03*
Y70000D02*
D03*
X323750Y16500D02*
D03*
X306250Y39500D02*
D03*
X428250Y94000D02*
D03*
X423250Y230000D02*
D03*
X410000Y33500D02*
D03*
X286500Y197000D02*
D03*
X280000Y186750D02*
D03*
X281000Y208000D02*
D03*
X227000Y217000D02*
D03*
X141000Y306500D02*
D03*
X234000Y189000D02*
D03*
X266000Y188000D02*
D03*
X227000Y207000D02*
D03*
X191000Y231000D02*
D03*
X142000Y158000D02*
D03*
X166000D02*
D03*
X142000Y42000D02*
D03*
X166000D02*
D03*
X190000D02*
D03*
X258000D02*
D03*
Y158000D02*
D03*
X258000Y145000D02*
D03*
X226000Y42000D02*
D03*
X234000D02*
D03*
X142000Y70000D02*
D03*
X208000Y42000D02*
D03*
X360000Y13750D02*
D03*
Y46500D02*
D03*
X63000Y60500D02*
D03*
Y69500D02*
D03*
Y80500D02*
D03*
Y89500D02*
D03*
X47000D02*
D03*
X70000Y44250D02*
D03*
X313000Y331500D02*
D03*
X374000Y283750D02*
D03*
X300000Y331250D02*
D03*
X374000Y318750D02*
D03*
Y248750D02*
D03*
X361000Y318500D02*
D03*
Y248500D02*
D03*
X300000Y261250D02*
D03*
X313000Y261500D02*
D03*
X374000Y213750D02*
D03*
X361000Y283500D02*
D03*
Y213500D02*
D03*
X313000Y296500D02*
D03*
X300000Y226250D02*
D03*
Y296250D02*
D03*
X313000Y226500D02*
D03*
X361000Y73500D02*
D03*
X361000Y178500D02*
D03*
X374000Y143750D02*
D03*
X361000Y143500D02*
D03*
X374000Y108750D02*
D03*
X361000Y108500D02*
D03*
X374000Y178750D02*
D03*
X374000Y73750D02*
D03*
X313000Y156500D02*
D03*
Y191500D02*
D03*
Y86500D02*
D03*
Y121500D02*
D03*
D71*
X256000Y292750D02*
D03*
X274000Y379000D02*
D03*
X142000Y286006D02*
D03*
D72*
X470000Y370000D02*
D03*
Y30000D02*
D03*
X30000D02*
D03*
Y370000D02*
D03*
M02*
