G04*
G04 #@! TF.GenerationSoftware,Altium Limited,Altium Designer,24.4.1 (13)*
G04*
G04 Layer_Physical_Order=4*
G04 Layer_Color=16711680*
%FSLAX44Y44*%
%MOMM*%
G71*
G04*
G04 #@! TF.SameCoordinates,EA300020-20D2-4A69-A7C9-2FF48D3C62D3*
G04*
G04*
G04 #@! TF.FilePolarity,Positive*
G04*
G01*
G75*
%ADD11C,0.5000*%
%ADD12C,0.2000*%
%ADD24R,0.8500X0.7000*%
%ADD25R,0.8500X0.7500*%
%ADD36R,0.7500X0.8500*%
%ADD40R,0.5200X0.5200*%
%ADD46R,0.5200X0.5200*%
%ADD58R,1.4000X1.4000*%
%ADD59C,1.4000*%
G04:AMPARAMS|DCode=60|XSize=2.8mm|YSize=2mm|CornerRadius=1mm|HoleSize=0mm|Usage=FLASHONLY|Rotation=270.000|XOffset=0mm|YOffset=0mm|HoleType=Round|Shape=RoundedRectangle|*
%AMROUNDEDRECTD60*
21,1,2.8000,0.0000,0,0,270.0*
21,1,0.8000,2.0000,0,0,270.0*
1,1,2.0000,0.0000,-0.4000*
1,1,2.0000,0.0000,0.4000*
1,1,2.0000,0.0000,0.4000*
1,1,2.0000,0.0000,-0.4000*
%
%ADD60ROUNDEDRECTD60*%
%ADD66C,1.0000*%
%ADD67C,0.3000*%
%ADD68C,1.0600*%
%ADD69R,1.0600X1.0600*%
%ADD70C,0.5000*%
%ADD71C,1.0000*%
%ADD72C,4.0000*%
%ADD73R,0.6500X0.6500*%
%ADD74R,0.7000X0.8500*%
%ADD75R,1.0500X0.9000*%
%ADD76R,0.8000X0.9500*%
%ADD77R,1.0000X1.2500*%
%ADD78R,0.4000X0.8000*%
%ADD79R,0.4000X0.5000*%
%ADD80R,0.7154X0.6725*%
%ADD81R,0.5000X0.4000*%
G36*
X475467Y397482D02*
X479007Y396534D01*
X482393Y395131D01*
X485568Y393299D01*
X488475Y391067D01*
X491067Y388475D01*
X493299Y385568D01*
X495131Y382393D01*
X496534Y379007D01*
X497482Y375467D01*
X497961Y371833D01*
Y370000D01*
Y30000D01*
Y28167D01*
X497482Y24533D01*
X496534Y20993D01*
X495131Y17607D01*
X493299Y14432D01*
X491067Y11525D01*
X488475Y8933D01*
X485568Y6701D01*
X482393Y4869D01*
X479007Y3466D01*
X475467Y2517D01*
X471833Y2039D01*
X28167D01*
X24533Y2517D01*
X20993Y3466D01*
X17607Y4869D01*
X14432Y6701D01*
X11525Y8933D01*
X8933Y11525D01*
X6701Y14432D01*
X4869Y17607D01*
X3466Y20993D01*
X2517Y24533D01*
X2039Y28167D01*
Y30000D01*
Y370000D01*
Y371833D01*
X2517Y375467D01*
X3466Y379007D01*
X4869Y382393D01*
X6701Y385568D01*
X8933Y388475D01*
X11525Y391067D01*
X14432Y393299D01*
X17607Y395131D01*
X20993Y396534D01*
X24533Y397482D01*
X28167Y397961D01*
X471833D01*
X475467Y397482D01*
D02*
G37*
%LPC*%
G36*
X130796Y377250D02*
X129204D01*
X127734Y376641D01*
X126609Y375516D01*
X126000Y374046D01*
Y372454D01*
X126609Y370984D01*
X127057Y370536D01*
X126531Y369266D01*
X125734D01*
Y360734D01*
X134266D01*
Y369266D01*
X133469D01*
X132943Y370536D01*
X133391Y370984D01*
X134000Y372454D01*
Y374046D01*
X133391Y375516D01*
X132266Y376641D01*
X130796Y377250D01*
D02*
G37*
G36*
X192796Y386000D02*
X191204D01*
X189734Y385391D01*
X188609Y384266D01*
X188000Y382796D01*
Y381204D01*
X188609Y379734D01*
X189734Y378609D01*
X189944Y378522D01*
Y369266D01*
X185734D01*
Y360734D01*
X194266D01*
Y369266D01*
X194056D01*
Y378522D01*
X194266Y378609D01*
X195391Y379734D01*
X196000Y381204D01*
Y382796D01*
X195391Y384266D01*
X194266Y385391D01*
X192796Y386000D01*
D02*
G37*
G36*
X146197Y386016D02*
X143803D01*
X141592Y385100D01*
X139900Y383408D01*
X138984Y381197D01*
Y378803D01*
X139900Y376592D01*
X141592Y374900D01*
X142944Y374340D01*
Y369266D01*
X140734D01*
Y360734D01*
X149266D01*
Y362944D01*
X155734D01*
Y360734D01*
X164266D01*
Y369266D01*
X155734D01*
Y367056D01*
X149266D01*
Y369266D01*
X147056D01*
Y374340D01*
X148408Y374900D01*
X150100Y376592D01*
X151016Y378803D01*
Y381197D01*
X150100Y383408D01*
X148408Y385100D01*
X146197Y386016D01*
D02*
G37*
G36*
X80796Y377250D02*
X79204D01*
X77734Y376641D01*
X76609Y375516D01*
X76000Y374046D01*
Y372454D01*
X76609Y370984D01*
X77057Y370536D01*
X76531Y369266D01*
X75734D01*
Y360734D01*
X84266D01*
Y369266D01*
X83469D01*
X82943Y370536D01*
X83391Y370984D01*
X84000Y372454D01*
Y374046D01*
X83391Y375516D01*
X82266Y376641D01*
X80796Y377250D01*
D02*
G37*
G36*
X206197Y386016D02*
X203803D01*
X201592Y385100D01*
X199900Y383408D01*
X198984Y381197D01*
Y378803D01*
X199900Y376592D01*
X201592Y374900D01*
X202945Y374340D01*
Y369266D01*
X200734D01*
Y360734D01*
X209266D01*
Y362944D01*
X215734D01*
Y360734D01*
X224266D01*
Y369266D01*
X215734D01*
Y367056D01*
X209266D01*
Y369266D01*
X207055D01*
Y374340D01*
X208408Y374900D01*
X210100Y376592D01*
X211016Y378803D01*
Y381197D01*
X210100Y383408D01*
X208408Y385100D01*
X206197Y386016D01*
D02*
G37*
G36*
X96197D02*
X93803D01*
X91592Y385100D01*
X89900Y383408D01*
X88984Y381197D01*
Y378803D01*
X89900Y376592D01*
X91592Y374900D01*
X92944Y374340D01*
Y369266D01*
X90734D01*
Y360734D01*
X99266D01*
Y362944D01*
X105734D01*
Y360734D01*
X114266D01*
Y369266D01*
X105734D01*
Y367056D01*
X99266D01*
Y369266D01*
X97056D01*
Y374340D01*
X98408Y374900D01*
X100100Y376592D01*
X101016Y378803D01*
Y381197D01*
X100100Y383408D01*
X98408Y385100D01*
X96197Y386016D01*
D02*
G37*
G36*
X84266Y359266D02*
X75734D01*
Y350734D01*
X77944D01*
Y345266D01*
X73734D01*
Y334734D01*
X83266D01*
Y345266D01*
X82056D01*
Y350734D01*
X84266D01*
Y352944D01*
X90734D01*
Y350734D01*
X99266D01*
Y359266D01*
X90734D01*
Y357056D01*
X84266D01*
Y359266D01*
D02*
G37*
G36*
X177296Y354000D02*
X175704D01*
X174234Y353391D01*
X173109Y352266D01*
X172500Y350796D01*
Y349204D01*
X173109Y347734D01*
X174234Y346609D01*
X175704Y346000D01*
X177296D01*
X178766Y346609D01*
X179891Y347734D01*
X180500Y349204D01*
Y350796D01*
X179891Y352266D01*
X178766Y353391D01*
X177296Y354000D01*
D02*
G37*
G36*
X120766Y345266D02*
X116758D01*
Y340508D01*
X120766D01*
Y345266D01*
D02*
G37*
G36*
X230766Y345266D02*
X226758D01*
Y340508D01*
X230766D01*
Y345266D01*
D02*
G37*
G36*
X170766D02*
X166758D01*
Y340508D01*
X170766D01*
Y345266D01*
D02*
G37*
G36*
X230766Y339492D02*
X226758D01*
Y334734D01*
X230766D01*
Y339492D01*
D02*
G37*
G36*
X225742D02*
X221734D01*
Y334734D01*
X225742D01*
Y339492D01*
D02*
G37*
G36*
X170766Y339492D02*
X166758D01*
Y334734D01*
X170766D01*
Y339492D01*
D02*
G37*
G36*
X165742D02*
X161734D01*
Y334734D01*
X165742D01*
Y339492D01*
D02*
G37*
G36*
X120766Y339492D02*
X116758D01*
Y334734D01*
X120766D01*
Y339492D01*
D02*
G37*
G36*
X134266Y359266D02*
X125734D01*
Y350734D01*
X127944D01*
Y345266D01*
X123734D01*
Y334734D01*
X125031D01*
X125557Y333464D01*
X123506Y331413D01*
X123296Y331500D01*
X121704D01*
X120234Y330891D01*
X119573Y330230D01*
X118750Y329907D01*
X117927Y330230D01*
X117266Y330891D01*
X115796Y331500D01*
X114407D01*
X112443Y333464D01*
X112969Y334734D01*
X115742D01*
Y340000D01*
Y345266D01*
X112793D01*
X112348Y345738D01*
X112255Y345871D01*
X111963Y346536D01*
X112056Y347000D01*
X112056Y347000D01*
Y350734D01*
X114266D01*
Y359266D01*
X105734D01*
Y350734D01*
X107944D01*
Y347851D01*
X105359Y345266D01*
X99234D01*
Y342056D01*
X96266D01*
Y345266D01*
X86734D01*
Y334734D01*
X96266D01*
Y337944D01*
X99234D01*
Y334734D01*
X105359D01*
X111234Y328859D01*
X111000Y328296D01*
Y326704D01*
X111609Y325234D01*
X112734Y324109D01*
X114204Y323500D01*
X115796D01*
X117266Y324109D01*
X117927Y324770D01*
X118750Y325093D01*
X119573Y324770D01*
X120234Y324109D01*
X121704Y323500D01*
X123296D01*
X124766Y324109D01*
X125427Y324770D01*
X126250Y325093D01*
X127073Y324770D01*
X127734Y324109D01*
X129204Y323500D01*
X130796D01*
X132266Y324109D01*
X133391Y325234D01*
X133478Y325444D01*
X189500D01*
X189500Y325444D01*
X190287Y325601D01*
X190953Y326046D01*
X199641Y334734D01*
X206266D01*
Y337944D01*
X209234D01*
Y334734D01*
X218266D01*
Y342359D01*
X220464Y344557D01*
X221734Y344031D01*
Y340508D01*
X225742D01*
Y345266D01*
X222793D01*
X222348Y345738D01*
X222255Y345871D01*
X221963Y346536D01*
X222055Y347000D01*
X222055Y347000D01*
Y350734D01*
X224266D01*
Y359266D01*
X215734D01*
Y350734D01*
X217945D01*
Y347851D01*
X215359Y345266D01*
X209234D01*
Y342056D01*
X206266D01*
Y345266D01*
X196734D01*
Y337641D01*
X194536Y335443D01*
X193266Y335969D01*
Y345266D01*
X192055D01*
Y350734D01*
X194266D01*
Y352944D01*
X200734D01*
Y350734D01*
X209266D01*
Y359266D01*
X200734D01*
Y357056D01*
X194266D01*
Y359266D01*
X185734D01*
Y350734D01*
X187945D01*
Y345266D01*
X183734D01*
Y334734D01*
X192031D01*
X192557Y333464D01*
X188648Y329556D01*
X139008D01*
X138623Y330826D01*
X138954Y331046D01*
X140203Y332296D01*
X140649Y332963D01*
X140806Y333750D01*
X141559Y334734D01*
X146266D01*
Y337944D01*
X149234D01*
Y334734D01*
X158266D01*
Y342359D01*
X160464Y344557D01*
X161734Y344031D01*
Y340508D01*
X165742D01*
Y345266D01*
X162793D01*
X162348Y345738D01*
X162255Y345871D01*
X161963Y346536D01*
X162055Y347000D01*
X162055Y347000D01*
Y350734D01*
X164266D01*
Y359266D01*
X155734D01*
Y350734D01*
X157944D01*
Y347851D01*
X155359Y345266D01*
X149234D01*
Y342056D01*
X146266D01*
Y345266D01*
X136734D01*
Y337449D01*
X136694Y337250D01*
X136694Y337250D01*
Y334601D01*
X136649Y334556D01*
X134462D01*
X133266Y334734D01*
X133266Y335826D01*
Y345266D01*
X132056D01*
Y350734D01*
X134266D01*
Y352944D01*
X140734D01*
Y350734D01*
X149266D01*
Y359266D01*
X140734D01*
Y357056D01*
X134266D01*
Y359266D01*
D02*
G37*
G36*
X300796Y335250D02*
X299204D01*
X297734Y334641D01*
X296609Y333516D01*
X296000Y332046D01*
Y330454D01*
X296609Y328984D01*
X297734Y327859D01*
X299204Y327250D01*
X300796D01*
X302266Y327859D01*
X303391Y328984D01*
X304000Y330454D01*
Y332046D01*
X303391Y333516D01*
X302266Y334641D01*
X300796Y335250D01*
D02*
G37*
G36*
X374796Y322750D02*
X373204D01*
X371734Y322141D01*
X370609Y321016D01*
X370000Y319546D01*
Y317954D01*
X370609Y316484D01*
X371734Y315359D01*
X373204Y314750D01*
X374796D01*
X376266Y315359D01*
X377391Y316484D01*
X378000Y317954D01*
Y319546D01*
X377391Y321016D01*
X376266Y322141D01*
X374796Y322750D01*
D02*
G37*
G36*
X275247Y385270D02*
X272753D01*
X270448Y384315D01*
X268685Y382552D01*
X267730Y380247D01*
Y377753D01*
X268685Y375448D01*
X270448Y373685D01*
X270777Y373548D01*
X310084Y334241D01*
X309609Y333766D01*
X309000Y332296D01*
Y330704D01*
X309609Y329234D01*
X310734Y328109D01*
X312204Y327500D01*
X313796D01*
X315266Y328109D01*
X315741Y328584D01*
X330866Y313459D01*
Y299065D01*
X316091D01*
X315266Y299891D01*
X313796Y300500D01*
X312204D01*
X310734Y299891D01*
X309609Y298766D01*
X309000Y297296D01*
Y295704D01*
X309609Y294234D01*
X310734Y293109D01*
X312204Y292500D01*
X313796D01*
X315266Y293109D01*
X316091Y293935D01*
X330866D01*
Y285587D01*
X329596Y285061D01*
X329516Y285141D01*
X328046Y285750D01*
X326454D01*
X324984Y285141D01*
X323859Y284016D01*
X323250Y282546D01*
Y280954D01*
X323859Y279484D01*
X324984Y278359D01*
X326454Y277750D01*
X328046D01*
X329516Y278359D01*
X329596Y278439D01*
X330866Y277913D01*
Y264065D01*
X316091D01*
X315266Y264891D01*
X313796Y265500D01*
X312204D01*
X310734Y264891D01*
X309609Y263766D01*
X309000Y262296D01*
Y260704D01*
X309609Y259234D01*
X310734Y258109D01*
X312204Y257500D01*
X313796D01*
X315266Y258109D01*
X316091Y258935D01*
X330866D01*
Y250587D01*
X329596Y250061D01*
X329516Y250141D01*
X328046Y250750D01*
X326454D01*
X324984Y250141D01*
X323859Y249016D01*
X323250Y247546D01*
Y245954D01*
X323859Y244484D01*
X324984Y243359D01*
X326454Y242750D01*
X328046D01*
X329516Y243359D01*
X329596Y243439D01*
X330866Y242913D01*
Y229065D01*
X316091D01*
X315266Y229891D01*
X313796Y230500D01*
X312204D01*
X310734Y229891D01*
X309609Y228766D01*
X309000Y227296D01*
Y225704D01*
X309609Y224234D01*
X310734Y223109D01*
X312204Y222500D01*
X313796D01*
X315266Y223109D01*
X316091Y223935D01*
X330866D01*
Y214000D01*
Y194065D01*
X316091D01*
X315266Y194891D01*
X313796Y195500D01*
X312204D01*
X310734Y194891D01*
X309609Y193766D01*
X309000Y192296D01*
Y190704D01*
X309609Y189234D01*
X310734Y188109D01*
X312204Y187500D01*
X313796D01*
X315266Y188109D01*
X316091Y188935D01*
X330866D01*
Y180587D01*
X329596Y180061D01*
X329516Y180141D01*
X328046Y180750D01*
X326454D01*
X324984Y180141D01*
X323859Y179016D01*
X323250Y177546D01*
Y175954D01*
X323859Y174484D01*
X324984Y173359D01*
X326454Y172750D01*
X328046D01*
X329516Y173359D01*
X329596Y173439D01*
X330866Y172913D01*
Y159065D01*
X316091D01*
X315266Y159891D01*
X313796Y160500D01*
X312204D01*
X310734Y159891D01*
X309609Y158766D01*
X309000Y157296D01*
Y155704D01*
X309609Y154234D01*
X310734Y153109D01*
X312204Y152500D01*
X313796D01*
X315266Y153109D01*
X316091Y153935D01*
X330866D01*
Y145837D01*
X329596Y145311D01*
X329516Y145391D01*
X328046Y146000D01*
X326454D01*
X324984Y145391D01*
X323859Y144266D01*
X323250Y142796D01*
Y141204D01*
X323859Y139734D01*
X324984Y138609D01*
X326454Y138000D01*
X328046D01*
X329516Y138609D01*
X329596Y138689D01*
X330866Y138163D01*
Y124065D01*
X316091D01*
X315266Y124891D01*
X313796Y125500D01*
X312204D01*
X310734Y124891D01*
X309609Y123766D01*
X309000Y122296D01*
Y120704D01*
X309609Y119234D01*
X310734Y118109D01*
X312204Y117500D01*
X313796D01*
X315266Y118109D01*
X316091Y118935D01*
X330866D01*
Y110587D01*
X329596Y110061D01*
X329516Y110141D01*
X328046Y110750D01*
X326454D01*
X324984Y110141D01*
X323859Y109016D01*
X323250Y107546D01*
Y105954D01*
X323859Y104484D01*
X324984Y103359D01*
X326454Y102750D01*
X328046D01*
X329516Y103359D01*
X329596Y103439D01*
X330866Y102913D01*
Y89065D01*
X316091D01*
X315266Y89891D01*
X313796Y90500D01*
X312204D01*
X310734Y89891D01*
X309609Y88766D01*
X309000Y87296D01*
Y85704D01*
X309609Y84234D01*
X310734Y83109D01*
X312204Y82500D01*
X313796D01*
X315266Y83109D01*
X316091Y83935D01*
X330866D01*
Y75587D01*
X329596Y75061D01*
X329516Y75141D01*
X328046Y75750D01*
X326454D01*
X324984Y75141D01*
X323859Y74016D01*
X323250Y72546D01*
Y70954D01*
X323859Y69484D01*
X324984Y68359D01*
X326454Y67750D01*
X328046D01*
X329516Y68359D01*
X330608Y69451D01*
X330647Y69485D01*
X332053Y69575D01*
X332663Y68663D01*
X334653Y67333D01*
X337000Y66866D01*
X339347Y67333D01*
X341337Y68663D01*
X342667Y70653D01*
X342723Y70935D01*
X357909D01*
X358734Y70109D01*
X360204Y69500D01*
X361372D01*
X370435Y60437D01*
Y51266D01*
X367734D01*
Y41734D01*
X378266D01*
X378266Y41734D01*
Y41734D01*
X379166Y40957D01*
X406000Y14122D01*
Y12954D01*
X406609Y11484D01*
X407734Y10359D01*
X409204Y9750D01*
X410796D01*
X412266Y10359D01*
X413391Y11484D01*
X414000Y12954D01*
Y14546D01*
X413391Y16016D01*
X412266Y17141D01*
X410796Y17750D01*
X409628D01*
X381121Y46257D01*
X380289Y46813D01*
X379307Y47008D01*
X378266D01*
Y51266D01*
X375565D01*
Y61500D01*
X375370Y62482D01*
X374814Y63314D01*
X365000Y73128D01*
Y74296D01*
X364391Y75766D01*
X363266Y76891D01*
X361796Y77500D01*
X360204D01*
X358734Y76891D01*
X357909Y76065D01*
X343134D01*
Y84413D01*
X344404Y84939D01*
X344484Y84859D01*
X345954Y84250D01*
X347546D01*
X349016Y84859D01*
X350141Y85984D01*
X350750Y87454D01*
Y89046D01*
X350141Y90516D01*
X349016Y91641D01*
X347546Y92250D01*
X345954D01*
X344484Y91641D01*
X344404Y91561D01*
X343134Y92087D01*
Y105935D01*
X357909D01*
X358734Y105109D01*
X360204Y104500D01*
X361796D01*
X363266Y105109D01*
X364391Y106234D01*
X365000Y107704D01*
Y109296D01*
X364391Y110766D01*
X363266Y111891D01*
X361796Y112500D01*
X360204D01*
X358734Y111891D01*
X357909Y111065D01*
X343134D01*
Y121131D01*
X344404Y121657D01*
X344484Y121577D01*
X345954Y120968D01*
X347546D01*
X349016Y121577D01*
X350141Y122702D01*
X350750Y124172D01*
Y125764D01*
X350141Y127234D01*
X349016Y128359D01*
X347546Y128968D01*
X345954D01*
X344484Y128359D01*
X344404Y128279D01*
X343134Y128805D01*
Y140935D01*
X357909D01*
X358734Y140109D01*
X360204Y139500D01*
X361796D01*
X363266Y140109D01*
X364391Y141234D01*
X365000Y142704D01*
Y144296D01*
X364391Y145766D01*
X363266Y146891D01*
X361796Y147500D01*
X360204D01*
X358734Y146891D01*
X357909Y146065D01*
X343134D01*
Y154413D01*
X344404Y154939D01*
X344484Y154859D01*
X345954Y154250D01*
X347546D01*
X349016Y154859D01*
X350141Y155984D01*
X350750Y157454D01*
Y159046D01*
X350141Y160516D01*
X349016Y161641D01*
X347546Y162250D01*
X345954D01*
X344484Y161641D01*
X344404Y161561D01*
X343134Y162087D01*
Y175935D01*
X357909D01*
X358734Y175109D01*
X360204Y174500D01*
X361796D01*
X363266Y175109D01*
X364391Y176234D01*
X365000Y177704D01*
Y179296D01*
X364391Y180766D01*
X363266Y181891D01*
X361796Y182500D01*
X360204D01*
X358734Y181891D01*
X357909Y181065D01*
X343134D01*
Y189413D01*
X344404Y189939D01*
X344484Y189859D01*
X345954Y189250D01*
X347546D01*
X349016Y189859D01*
X350141Y190984D01*
X350750Y192454D01*
Y194046D01*
X350141Y195516D01*
X349016Y196641D01*
X347546Y197250D01*
X345954D01*
X344484Y196641D01*
X344404Y196561D01*
X343134Y197087D01*
Y210935D01*
X357908D01*
X358734Y210109D01*
X360204Y209500D01*
X361796D01*
X363266Y210109D01*
X364391Y211234D01*
X365000Y212704D01*
Y214296D01*
X364391Y215766D01*
X363266Y216891D01*
X361796Y217500D01*
X360204D01*
X358734Y216891D01*
X357908Y216065D01*
X343134D01*
Y226000D01*
Y245935D01*
X357908D01*
X358734Y245109D01*
X360204Y244500D01*
X361796D01*
X363266Y245109D01*
X364391Y246234D01*
X365000Y247704D01*
Y249296D01*
X364391Y250766D01*
X363266Y251891D01*
X361796Y252500D01*
X360204D01*
X358734Y251891D01*
X357908Y251065D01*
X343134D01*
Y259413D01*
X344404Y259939D01*
X344484Y259859D01*
X345954Y259250D01*
X347546D01*
X349016Y259859D01*
X350141Y260984D01*
X350750Y262454D01*
Y264046D01*
X350141Y265516D01*
X349016Y266641D01*
X347546Y267250D01*
X345954D01*
X344484Y266641D01*
X344404Y266561D01*
X343134Y267087D01*
Y280935D01*
X357908D01*
X358734Y280109D01*
X360204Y279500D01*
X361796D01*
X363266Y280109D01*
X364391Y281234D01*
X365000Y282704D01*
Y284296D01*
X364391Y285766D01*
X363266Y286891D01*
X361796Y287500D01*
X360204D01*
X358734Y286891D01*
X357908Y286065D01*
X343134D01*
Y294413D01*
X344404Y294939D01*
X344484Y294859D01*
X345954Y294250D01*
X347546D01*
X349016Y294859D01*
X350141Y295984D01*
X350750Y297454D01*
Y299046D01*
X350141Y300516D01*
X349016Y301641D01*
X347546Y302250D01*
X345954D01*
X344484Y301641D01*
X344404Y301561D01*
X343134Y302087D01*
Y315935D01*
X357908D01*
X358734Y315109D01*
X360204Y314500D01*
X361796D01*
X363266Y315109D01*
X364391Y316234D01*
X365000Y317704D01*
Y319296D01*
X364391Y320766D01*
X363266Y321891D01*
X361796Y322500D01*
X360204D01*
X358734Y321891D01*
X357908Y321065D01*
X340609D01*
X279452Y382223D01*
X279315Y382552D01*
X277552Y384315D01*
X275247Y385270D01*
D02*
G37*
G36*
X141796Y310500D02*
X140204D01*
X138734Y309891D01*
X137609Y308766D01*
X137000Y307296D01*
Y305704D01*
X137609Y304234D01*
X136992Y303055D01*
X130000D01*
X130000Y303055D01*
X129213Y302899D01*
X128547Y302453D01*
X128546Y302453D01*
X112359Y286266D01*
X104734D01*
Y276734D01*
X115266D01*
Y283359D01*
X130851Y298944D01*
X138242D01*
X138768Y297675D01*
X127859Y286766D01*
X120734D01*
Y277234D01*
X131266D01*
Y284359D01*
X134557Y287650D01*
X135102Y287465D01*
X135730Y287027D01*
Y284758D01*
X136685Y282454D01*
X136734Y282405D01*
Y277234D01*
X147266D01*
Y282405D01*
X147276Y282415D01*
X150015D01*
X217965Y214465D01*
X219128Y213688D01*
X220500Y213415D01*
X223385D01*
Y213385D01*
X225276D01*
X226204Y213000D01*
X227796D01*
X228724Y213385D01*
X230617D01*
Y215279D01*
X231000Y216204D01*
Y217796D01*
X230617Y218721D01*
X230617Y221385D01*
X230617Y221887D01*
Y224493D01*
X227001D01*
X223385D01*
Y221887D01*
X223385Y221385D01*
X222446Y220585D01*
X221985D01*
X154035Y288535D01*
X152872Y289312D01*
X151500Y289585D01*
X147288D01*
X145552Y291321D01*
X143247Y292276D01*
X140979D01*
X140541Y292903D01*
X140356Y293449D01*
X141851Y294944D01*
X175837D01*
X179500Y291281D01*
Y290204D01*
X180109Y288734D01*
X181234Y287609D01*
X182704Y287000D01*
X184296D01*
X185766Y287609D01*
X186891Y288734D01*
X187500Y290204D01*
Y291796D01*
X186891Y293266D01*
X185766Y294391D01*
X184296Y295000D01*
X182704D01*
X181920Y294675D01*
X178921Y297675D01*
X179447Y298944D01*
X246899D01*
X250209Y295634D01*
X237663Y283087D01*
X236333Y281097D01*
X235866Y278750D01*
Y209565D01*
X230616D01*
Y210616D01*
X228723D01*
X227796Y211000D01*
X226204D01*
X225277Y210616D01*
X223384D01*
Y208723D01*
X223000Y207796D01*
Y206204D01*
X223384Y205277D01*
X223384Y202616D01*
X223384Y202114D01*
Y199508D01*
X227000D01*
X230616D01*
Y202114D01*
X230616Y203384D01*
X231659Y204435D01*
X235979D01*
X236333Y202653D01*
X237663Y200663D01*
X238862Y199862D01*
X239663Y198663D01*
X244946Y193379D01*
X244266Y192391D01*
X242796Y193000D01*
X241204D01*
X239734Y192391D01*
X238720Y191377D01*
X238000Y191317D01*
X237280Y191377D01*
X236266Y192391D01*
X234796Y193000D01*
X233204D01*
X231734Y192391D01*
X230609Y191266D01*
X230000Y189796D01*
Y188204D01*
X230609Y186734D01*
X231734Y185609D01*
X233204Y185000D01*
X234796D01*
X236266Y185609D01*
X237280Y186623D01*
X238000Y186683D01*
X238720Y186623D01*
X239734Y185609D01*
X241204Y185000D01*
X242796D01*
X244266Y185609D01*
X245391Y186734D01*
X246000Y188204D01*
Y189796D01*
X245391Y191266D01*
X246379Y191946D01*
X247804Y190522D01*
Y183188D01*
X245663Y181047D01*
X195663Y131047D01*
X194333Y129057D01*
X193866Y126710D01*
Y114565D01*
X180063D01*
X144565Y150063D01*
Y154484D01*
X145016D01*
Y155359D01*
X145391Y155734D01*
X145714Y156514D01*
X146984Y156261D01*
Y154484D01*
X149492D01*
Y158000D01*
Y161516D01*
X146984D01*
Y159739D01*
X145714Y159486D01*
X145391Y160266D01*
X145016Y160641D01*
Y161516D01*
X143964D01*
X142796Y162000D01*
X141204D01*
X140036Y161516D01*
X138984D01*
Y160641D01*
X138609Y160266D01*
X138000Y158796D01*
Y157204D01*
X138609Y155734D01*
X138984Y155359D01*
Y154484D01*
X139435D01*
Y149000D01*
X139630Y148018D01*
X140186Y147186D01*
X153026Y134346D01*
X152266Y133391D01*
X150796Y134000D01*
X149204D01*
X147734Y133391D01*
X147399Y133056D01*
X146322Y133775D01*
X146500Y134204D01*
Y135796D01*
X145891Y137266D01*
X144766Y138391D01*
X143296Y139000D01*
X141704D01*
X140234Y138391D01*
X139109Y137266D01*
X138500Y135796D01*
Y134204D01*
X139109Y132734D01*
X140234Y131609D01*
X141704Y131000D01*
X143296D01*
X144766Y131609D01*
X145101Y131944D01*
X146178Y131225D01*
X146000Y130796D01*
Y129204D01*
X146178Y128775D01*
X145101Y128056D01*
X144766Y128391D01*
X143296Y129000D01*
X141704D01*
X140234Y128391D01*
X139109Y127266D01*
X138500Y125796D01*
Y124204D01*
X139109Y122734D01*
X140234Y121609D01*
X141704Y121000D01*
X143296D01*
X144766Y121609D01*
X145079Y121922D01*
X146155Y121202D01*
X146000Y120828D01*
Y119236D01*
X146200Y118752D01*
X145124Y118033D01*
X144766Y118391D01*
X143296Y119000D01*
X141704D01*
X140234Y118391D01*
X139109Y117266D01*
X138500Y115796D01*
Y114204D01*
X139109Y112734D01*
X140234Y111609D01*
X141704Y111000D01*
X143296D01*
X144766Y111609D01*
X145079Y111922D01*
X146155Y111202D01*
X146000Y110828D01*
Y109236D01*
X146200Y108752D01*
X145124Y108033D01*
X144766Y108391D01*
X143296Y109000D01*
X141704D01*
X140234Y108391D01*
X139109Y107266D01*
X138500Y105796D01*
Y104204D01*
X139109Y102734D01*
X140234Y101609D01*
X141704Y101000D01*
X143296D01*
X144766Y101609D01*
X145079Y101922D01*
X146155Y101202D01*
X146000Y100828D01*
Y99236D01*
X146609Y97766D01*
X147734Y96641D01*
X149204Y96032D01*
X150796D01*
X152266Y96641D01*
X153391Y97766D01*
X154000Y99236D01*
Y100828D01*
X153391Y102298D01*
X152266Y103423D01*
X150796Y104032D01*
X149204D01*
X147734Y103423D01*
X147421Y103110D01*
X146345Y103830D01*
X146500Y104204D01*
Y105796D01*
X146300Y106279D01*
X147376Y106999D01*
X147734Y106641D01*
X149204Y106032D01*
X150796D01*
X152266Y106641D01*
X153391Y107766D01*
X154000Y109236D01*
Y110828D01*
X153391Y112298D01*
X152266Y113423D01*
X150796Y114032D01*
X149204D01*
X147734Y113423D01*
X147421Y113110D01*
X146345Y113830D01*
X146500Y114204D01*
Y115796D01*
X146300Y116279D01*
X147376Y116999D01*
X147734Y116641D01*
X149204Y116032D01*
X150796D01*
X152266Y116641D01*
X153391Y117766D01*
X154000Y119236D01*
Y120828D01*
X153391Y122298D01*
X152266Y123423D01*
X150796Y124032D01*
X149204D01*
X147734Y123423D01*
X147421Y123110D01*
X146345Y123830D01*
X146500Y124204D01*
Y125796D01*
X146322Y126225D01*
X147399Y126944D01*
X147734Y126609D01*
X149204Y126000D01*
X150796D01*
X152266Y126609D01*
X153391Y127734D01*
X154000Y129204D01*
Y130796D01*
X153391Y132266D01*
X154346Y133026D01*
X177186Y110186D01*
X178018Y109630D01*
X179000Y109435D01*
X190578D01*
X190933Y108165D01*
X190408Y107814D01*
X148037Y65443D01*
X146411D01*
X145616Y66384D01*
X145616Y66886D01*
Y68277D01*
X146000Y69204D01*
Y70796D01*
X145616Y71723D01*
Y73616D01*
X143723D01*
X142796Y74000D01*
X141204D01*
X140277Y73616D01*
X138384D01*
Y71723D01*
X138000Y70796D01*
Y69204D01*
X138384Y68277D01*
X138384Y65616D01*
X138384Y65114D01*
Y58384D01*
X139435D01*
Y45516D01*
X138984D01*
Y44641D01*
X138609Y44266D01*
X138000Y42796D01*
Y41204D01*
X138609Y39734D01*
X138984Y39359D01*
Y38484D01*
X140036D01*
X141204Y38000D01*
X142796D01*
X143964Y38484D01*
X145016D01*
Y39359D01*
X145391Y39734D01*
X145714Y40514D01*
X146984Y40261D01*
Y38484D01*
X149492D01*
Y42000D01*
Y45516D01*
X146984D01*
Y43739D01*
X145714Y43486D01*
X145391Y44266D01*
X145016Y44641D01*
Y45516D01*
X144565D01*
Y58384D01*
X145616D01*
Y60313D01*
X149100D01*
X150082Y60508D01*
X150914Y61064D01*
X162950Y73101D01*
X164220Y72575D01*
Y61276D01*
X163322Y60378D01*
X162193Y60378D01*
X160923Y60378D01*
X157722D01*
Y56000D01*
Y51622D01*
X160923D01*
X161807Y51622D01*
X162929Y51622D01*
X163827Y50724D01*
Y45516D01*
X162984D01*
Y44641D01*
X162609Y44266D01*
X162286Y43486D01*
X161016Y43739D01*
Y45516D01*
X158508D01*
Y42000D01*
Y38484D01*
X161016D01*
Y40261D01*
X162286Y40514D01*
X162609Y39734D01*
X162984Y39359D01*
Y38484D01*
X164036D01*
X165204Y38000D01*
X166796D01*
X167964Y38484D01*
X169016D01*
Y39359D01*
X169391Y39734D01*
X170000Y41204D01*
Y42796D01*
X169391Y44266D01*
X169016Y44641D01*
Y45516D01*
X168958D01*
Y51622D01*
X171378D01*
Y60378D01*
X169351D01*
Y72723D01*
X186165Y89537D01*
X187435Y89011D01*
Y59516D01*
X186984D01*
Y52484D01*
X187435D01*
Y45516D01*
X186984D01*
Y44641D01*
X186609Y44266D01*
X186000Y42796D01*
Y41204D01*
X186609Y39734D01*
X186984Y39359D01*
Y38484D01*
X188036D01*
X189204Y38000D01*
X190796D01*
X191964Y38484D01*
X193016D01*
Y39359D01*
X193391Y39734D01*
X193714Y40514D01*
X194984Y40261D01*
Y38484D01*
X197492D01*
Y42000D01*
Y45516D01*
X194984D01*
Y43739D01*
X193714Y43486D01*
X193391Y44266D01*
X193016Y44641D01*
Y45516D01*
X192565D01*
Y52484D01*
X193016D01*
Y59516D01*
X192565D01*
Y88937D01*
X197910Y94282D01*
X200000Y93866D01*
X202347Y94333D01*
X204337Y95663D01*
X205521Y97435D01*
X210937D01*
X227086Y81286D01*
X226593Y80016D01*
X226484D01*
Y73984D01*
X233516D01*
Y80016D01*
X233482D01*
X233463Y80113D01*
X234634Y80738D01*
X255435Y59937D01*
Y45516D01*
X254984D01*
Y44641D01*
X254609Y44266D01*
X254286Y43486D01*
X253016Y43739D01*
Y45516D01*
X250508D01*
Y42000D01*
Y38484D01*
X253016D01*
Y40261D01*
X254286Y40514D01*
X254609Y39734D01*
X254984Y39359D01*
Y38484D01*
X256036D01*
X257204Y38000D01*
X258796D01*
X259964Y38484D01*
X261016D01*
Y39359D01*
X261391Y39734D01*
X262000Y41204D01*
Y42796D01*
X261391Y44266D01*
X261016Y44641D01*
Y45516D01*
X260565D01*
Y61000D01*
X260370Y61982D01*
X259814Y62814D01*
X257898Y64730D01*
X258424Y66000D01*
X258796D01*
X260266Y66609D01*
X261391Y67734D01*
X262000Y69204D01*
Y70796D01*
X261391Y72266D01*
X260986Y72670D01*
X260350Y73500D01*
X260986Y74330D01*
X261391Y74734D01*
X262000Y76204D01*
Y77796D01*
X261391Y79266D01*
X260951Y79706D01*
X260342Y80499D01*
X260951Y81365D01*
X261355Y81770D01*
X261964Y83240D01*
Y84831D01*
X261355Y86301D01*
X260230Y87427D01*
X258760Y88035D01*
X257169D01*
X255699Y87427D01*
X254573Y86301D01*
X253965Y84831D01*
Y83240D01*
X254573Y81770D01*
X255014Y81330D01*
X255623Y80536D01*
X255014Y79670D01*
X254609Y79266D01*
X254000Y77796D01*
Y76204D01*
X254609Y74734D01*
X255014Y74330D01*
X255651Y73500D01*
X255014Y72670D01*
X254609Y72266D01*
X254000Y70796D01*
Y70424D01*
X252730Y69898D01*
X214814Y107814D01*
X213982Y108370D01*
X213000Y108565D01*
X206134D01*
Y112000D01*
Y124169D01*
X252523Y170559D01*
X255435Y167647D01*
Y161516D01*
X254984D01*
Y160641D01*
X254609Y160266D01*
X254286Y159486D01*
X253016Y159739D01*
Y161516D01*
X250508D01*
Y158000D01*
Y154484D01*
X253016D01*
Y156261D01*
X254286Y156514D01*
X254609Y155734D01*
X254984Y155359D01*
Y154484D01*
X256036D01*
X257204Y154000D01*
X258796D01*
X259964Y154484D01*
X261016D01*
Y155359D01*
X261391Y155734D01*
X262000Y157204D01*
Y158796D01*
X261391Y160266D01*
X261016Y160641D01*
Y161516D01*
X260565D01*
Y168710D01*
X260370Y169692D01*
X259814Y170524D01*
X256151Y174186D01*
X258275Y176310D01*
X259605Y178300D01*
X260072Y180647D01*
Y193062D01*
X259605Y195410D01*
X258275Y197400D01*
X248337Y207337D01*
X248134Y207473D01*
Y276209D01*
X259223Y287298D01*
X259552Y287435D01*
X261315Y289198D01*
X262270Y291503D01*
Y293997D01*
X261315Y296302D01*
X259552Y298065D01*
X257247Y299020D01*
X254753D01*
X253257Y298400D01*
X249203Y302453D01*
X248537Y302899D01*
X247750Y303055D01*
X247750Y303055D01*
X145008D01*
X144391Y304234D01*
X145000Y305704D01*
Y307296D01*
X144391Y308766D01*
X143266Y309891D01*
X141796Y310500D01*
D02*
G37*
G36*
X390266Y304016D02*
X379734D01*
Y294984D01*
X390266D01*
Y304016D01*
D02*
G37*
G36*
X300796Y300250D02*
X299204D01*
X297734Y299641D01*
X296609Y298516D01*
X296000Y297046D01*
Y295454D01*
X296609Y293984D01*
X297734Y292859D01*
X299204Y292250D01*
X300796D01*
X302266Y292859D01*
X303391Y293984D01*
X304000Y295454D01*
Y297046D01*
X303391Y298516D01*
X302266Y299641D01*
X300796Y300250D01*
D02*
G37*
G36*
X397796Y299000D02*
X396204D01*
X394734Y298391D01*
X393609Y297266D01*
X393000Y295796D01*
Y294204D01*
X393609Y292734D01*
X394734Y291609D01*
X396204Y291000D01*
X397796D01*
X399266Y291609D01*
X400391Y292734D01*
X401000Y294204D01*
Y295796D01*
X400391Y297266D01*
X399266Y298391D01*
X397796Y299000D01*
D02*
G37*
G36*
X97016Y305516D02*
X80984D01*
Y289484D01*
X97016D01*
Y305516D01*
D02*
G37*
G36*
X374796Y287750D02*
X373204D01*
X371734Y287141D01*
X370609Y286016D01*
X370000Y284546D01*
Y282954D01*
X370609Y281484D01*
X371734Y280359D01*
X373204Y279750D01*
X374796D01*
X376266Y280359D01*
X377391Y281484D01*
X378000Y282954D01*
Y284546D01*
X377391Y286016D01*
X376266Y287141D01*
X374796Y287750D01*
D02*
G37*
G36*
X435000Y328565D02*
X413000D01*
X412018Y328370D01*
X411186Y327814D01*
X402372Y319000D01*
X401204D01*
X399734Y318391D01*
X398609Y317266D01*
X398000Y315796D01*
Y314204D01*
X398364Y313326D01*
X397628Y312055D01*
X390266D01*
Y316516D01*
X379734D01*
Y307484D01*
X390266D01*
Y307945D01*
X410734D01*
Y307734D01*
X421266D01*
Y314359D01*
X423851Y316945D01*
X425392D01*
X426484Y316516D01*
X426484Y315674D01*
Y310112D01*
X422943Y306571D01*
X422943Y306571D01*
X420687Y304315D01*
X418250D01*
X418002Y304266D01*
X410734D01*
Y294734D01*
X412415D01*
Y293266D01*
X410734D01*
Y288719D01*
X409464Y288193D01*
X409266Y288391D01*
X407796Y289000D01*
X406204D01*
X404734Y288391D01*
X403609Y287266D01*
X403000Y285796D01*
Y284204D01*
X403609Y282734D01*
X404734Y281609D01*
X406204Y281000D01*
X407796D01*
X409266Y281609D01*
X410391Y282734D01*
X410805Y283734D01*
X420031D01*
X420557Y282464D01*
X418359Y280266D01*
X410734D01*
Y277556D01*
X405226D01*
X400829Y281954D01*
X400162Y282399D01*
X399375Y282556D01*
X399375Y282556D01*
X390266D01*
Y285016D01*
X379734D01*
Y275984D01*
X390266D01*
Y278444D01*
X392992D01*
X393609Y277266D01*
X393000Y275796D01*
Y274204D01*
X393609Y272734D01*
X394734Y271609D01*
X396204Y271000D01*
X397796D01*
X399266Y271609D01*
X400391Y272734D01*
X401000Y274204D01*
X402270Y274698D01*
X402921Y274047D01*
X402921Y274046D01*
X403588Y273601D01*
X404375Y273444D01*
X410734D01*
Y270734D01*
X421266D01*
Y277359D01*
X424851Y280944D01*
X433000D01*
X433000Y280944D01*
X433787Y281101D01*
X434453Y281546D01*
X437453Y284547D01*
X437453Y284547D01*
X437899Y285214D01*
X437994Y285690D01*
X438462Y285919D01*
X438824Y286011D01*
X439325Y286018D01*
X440234Y285109D01*
X441704Y284500D01*
X443296D01*
X444766Y285109D01*
X445891Y286234D01*
X446500Y287704D01*
Y289296D01*
X445891Y290766D01*
X445516Y291141D01*
Y297516D01*
X440286D01*
X439484Y297516D01*
Y297516D01*
X439016D01*
Y297516D01*
X434478D01*
X433912Y298774D01*
X434425Y299435D01*
X445000D01*
X445982Y299630D01*
X446814Y300186D01*
X452827Y306199D01*
X453393Y306004D01*
X454000Y305576D01*
Y304204D01*
X454609Y302734D01*
X455435Y301908D01*
Y292063D01*
X441888Y278516D01*
X439484Y278516D01*
X438214Y278516D01*
X433786D01*
X432984Y278516D01*
X431714Y278516D01*
X426484D01*
Y268484D01*
X431714D01*
X432516Y268484D01*
X433786Y268484D01*
X438214D01*
X439016Y268484D01*
X440286Y268484D01*
X445516D01*
Y274888D01*
X459814Y289186D01*
X460370Y290018D01*
X460565Y291000D01*
Y301908D01*
X461391Y302734D01*
X462000Y304204D01*
Y305796D01*
X461391Y307266D01*
X460266Y308391D01*
X458796Y309000D01*
X457424D01*
X456996Y309607D01*
X456842Y310056D01*
X457636Y311000D01*
X458796D01*
X460266Y311609D01*
X461391Y312734D01*
X462000Y314204D01*
Y315796D01*
X461391Y317266D01*
X460266Y318391D01*
X458796Y319000D01*
X457204D01*
X455734Y318391D01*
X454609Y317266D01*
X454000Y315796D01*
Y314628D01*
X446786Y307414D01*
X445516Y307940D01*
Y316516D01*
X445065D01*
Y318500D01*
X444870Y319482D01*
X444314Y320314D01*
X436814Y327814D01*
X435982Y328370D01*
X435000Y328565D01*
D02*
G37*
G36*
X90055Y280516D02*
X89508D01*
Y273008D01*
X97016D01*
Y273555D01*
X96470Y275594D01*
X95414Y277422D01*
X93922Y278914D01*
X92094Y279970D01*
X90055Y280516D01*
D02*
G37*
G36*
X88492D02*
X87945D01*
X85906Y279970D01*
X84078Y278914D01*
X82586Y277422D01*
X81530Y275594D01*
X80984Y273555D01*
Y273008D01*
X88492D01*
Y280516D01*
D02*
G37*
G36*
X458796Y279000D02*
X457204D01*
X455734Y278391D01*
X454609Y277266D01*
X454000Y275796D01*
Y274204D01*
X454609Y272734D01*
X455734Y271609D01*
X457204Y271000D01*
X458796D01*
X460266Y271609D01*
X461391Y272734D01*
X462000Y274204D01*
Y275796D01*
X461391Y277266D01*
X460266Y278391D01*
X458796Y279000D01*
D02*
G37*
G36*
X421266Y269266D02*
X410734D01*
Y268719D01*
X409464Y268193D01*
X409266Y268391D01*
X407796Y269000D01*
X406204D01*
X404734Y268391D01*
X403609Y267266D01*
X403000Y265796D01*
Y264204D01*
X403609Y262734D01*
X404734Y261609D01*
X406204Y261000D01*
X407796D01*
X409266Y261609D01*
X409464Y261807D01*
X410734Y261281D01*
Y259734D01*
X421266D01*
Y260591D01*
X422516Y261109D01*
X423341Y261935D01*
X438322D01*
X439310Y260922D01*
X439270Y259751D01*
X439016Y259516D01*
X438214Y259516D01*
X433786D01*
X432984Y259516D01*
X431714Y259516D01*
X426484D01*
Y249484D01*
X431781D01*
X432307Y248214D01*
X430149Y246056D01*
X424851D01*
X421266Y249641D01*
Y256266D01*
X410734D01*
Y252055D01*
X401372D01*
X400636Y253326D01*
X401000Y254204D01*
Y255796D01*
X400391Y257266D01*
X399266Y258391D01*
X397796Y259000D01*
X396204D01*
X394734Y258391D01*
X393609Y257266D01*
X393000Y255796D01*
Y254204D01*
X393364Y253326D01*
X392628Y252055D01*
X390250D01*
X390250Y252055D01*
X389463Y251899D01*
X388797Y251453D01*
X388797Y251453D01*
X387359Y250016D01*
X379734D01*
Y240984D01*
X390266D01*
Y247109D01*
X391101Y247945D01*
X402628D01*
X403364Y246674D01*
X403000Y245796D01*
Y244204D01*
X403609Y242734D01*
X404734Y241609D01*
X406204Y241000D01*
X407796D01*
X409266Y241609D01*
X410391Y242734D01*
X411000Y244204D01*
Y245574D01*
X411000Y245796D01*
X411986Y246734D01*
X418359D01*
X422547Y242547D01*
X422547Y242547D01*
X423213Y242101D01*
X424000Y241945D01*
X431000D01*
X431000Y241945D01*
X431787Y242101D01*
X432453Y242547D01*
X437453Y247547D01*
X437899Y248213D01*
X438023Y248836D01*
X438901Y249206D01*
X439935Y248414D01*
Y237563D01*
X438138Y235766D01*
X431734D01*
Y224234D01*
X441766D01*
Y232138D01*
X444314Y234686D01*
X444870Y235518D01*
X445065Y236500D01*
Y249484D01*
X445516D01*
Y259516D01*
X445065D01*
Y261750D01*
X444870Y262732D01*
X444314Y263564D01*
X441564Y266314D01*
X440732Y266870D01*
X439750Y267065D01*
X423341D01*
X422516Y267891D01*
X421266Y268409D01*
Y269266D01*
D02*
G37*
G36*
X97016Y271992D02*
X89508D01*
Y264484D01*
X90055D01*
X92094Y265030D01*
X93922Y266086D01*
X95414Y267578D01*
X96470Y269406D01*
X97016Y271445D01*
Y271992D01*
D02*
G37*
G36*
X88492D02*
X80984D01*
Y271445D01*
X81530Y269406D01*
X82586Y267578D01*
X84078Y266086D01*
X85906Y265030D01*
X87945Y264484D01*
X88492D01*
Y271992D01*
D02*
G37*
G36*
X458796Y269000D02*
X457204D01*
X455734Y268391D01*
X454609Y267266D01*
X454000Y265796D01*
Y264204D01*
X454609Y262734D01*
X455734Y261609D01*
X457204Y261000D01*
X458796D01*
X460266Y261609D01*
X461391Y262734D01*
X462000Y264204D01*
Y265796D01*
X461391Y267266D01*
X460266Y268391D01*
X458796Y269000D01*
D02*
G37*
G36*
X300796Y265250D02*
X299204D01*
X297734Y264641D01*
X296609Y263516D01*
X296000Y262046D01*
Y260454D01*
X296609Y258984D01*
X297734Y257859D01*
X299204Y257250D01*
X300796D01*
X302266Y257859D01*
X303391Y258984D01*
X304000Y260454D01*
Y262046D01*
X303391Y263516D01*
X302266Y264641D01*
X300796Y265250D01*
D02*
G37*
G36*
X390266Y272516D02*
X379734D01*
Y263786D01*
X379734Y263484D01*
Y262516D01*
X379734Y262214D01*
Y253484D01*
X390266D01*
Y262214D01*
X390266Y262516D01*
Y263484D01*
X390266Y263786D01*
Y272516D01*
D02*
G37*
G36*
X147266Y273766D02*
X136734D01*
Y264234D01*
X139944D01*
Y262766D01*
X136734D01*
Y256141D01*
X133536Y252943D01*
X132266Y253469D01*
Y263266D01*
X131995D01*
X131266Y264234D01*
Y273766D01*
X120734D01*
Y264234D01*
X120005Y263266D01*
X119734D01*
Y254449D01*
X119720Y254377D01*
X116546Y251203D01*
X116101Y250537D01*
X116003Y250043D01*
X115744Y249590D01*
X115024Y249016D01*
X110658D01*
Y244250D01*
X109642D01*
Y249016D01*
X106119D01*
X105593Y250286D01*
X107791Y252484D01*
X115416D01*
Y262016D01*
X112056D01*
Y263734D01*
X115266D01*
Y273266D01*
X104734D01*
Y263734D01*
X107944D01*
Y262016D01*
X104884D01*
Y255391D01*
X101546Y252053D01*
X101101Y251387D01*
X100944Y250600D01*
X100944Y250600D01*
Y239000D01*
X100944Y239000D01*
X101101Y238213D01*
X101546Y237547D01*
X123945Y215149D01*
Y33000D01*
X123945Y33000D01*
X124101Y32213D01*
X124546Y31546D01*
X142144Y13949D01*
X142144Y13949D01*
X142811Y13503D01*
X143597Y13347D01*
X143598Y13347D01*
X236934D01*
X238000Y12281D01*
Y11204D01*
X238609Y9734D01*
X239734Y8609D01*
X241204Y8000D01*
X242796D01*
X244266Y8609D01*
X245280Y9623D01*
X246000Y9683D01*
X246720Y9623D01*
X247734Y8609D01*
X249204Y8000D01*
X250796D01*
X252266Y8609D01*
X253280Y9623D01*
X254000Y9683D01*
X254720Y9623D01*
X255734Y8609D01*
X257204Y8000D01*
X258796D01*
X260266Y8609D01*
X261391Y9734D01*
X262000Y11204D01*
Y12796D01*
X261391Y14266D01*
X260266Y15391D01*
X258796Y16000D01*
X257204D01*
X256994Y15913D01*
X247453Y25454D01*
X246787Y25899D01*
X246000Y26056D01*
X246000Y26056D01*
X147851D01*
X136055Y37851D01*
Y239245D01*
X136734Y240234D01*
X137325Y240234D01*
X141492D01*
Y245000D01*
Y249766D01*
X137969D01*
X137443Y251036D01*
X139641Y253234D01*
X147266D01*
Y262766D01*
X144056D01*
Y264234D01*
X147266D01*
Y273766D01*
D02*
G37*
G36*
X458796Y259000D02*
X457204D01*
X455734Y258391D01*
X454609Y257266D01*
X454000Y255796D01*
Y254204D01*
X454609Y252734D01*
X455734Y251609D01*
X457204Y251000D01*
X458796D01*
X460266Y251609D01*
X461391Y252734D01*
X462000Y254204D01*
Y255796D01*
X461391Y257266D01*
X460266Y258391D01*
X458796Y259000D01*
D02*
G37*
G36*
X147266Y249766D02*
X142508D01*
Y245508D01*
X147266D01*
Y249766D01*
D02*
G37*
G36*
X374796Y252750D02*
X373204D01*
X371734Y252141D01*
X370609Y251016D01*
X370000Y249546D01*
Y247954D01*
X370609Y246484D01*
X371734Y245359D01*
X373204Y244750D01*
X374796D01*
X376266Y245359D01*
X377391Y246484D01*
X378000Y247954D01*
Y249546D01*
X377391Y251016D01*
X376266Y252141D01*
X374796Y252750D01*
D02*
G37*
G36*
X24000Y276608D02*
X20737Y276178D01*
X17696Y274919D01*
X15085Y272915D01*
X13081Y270304D01*
X11822Y267263D01*
X11392Y264000D01*
Y256000D01*
X11822Y252737D01*
X13081Y249696D01*
X15085Y247085D01*
X17696Y245081D01*
X20737Y243822D01*
X24000Y243392D01*
X27263Y243822D01*
X30304Y245081D01*
X32915Y247085D01*
X34919Y249696D01*
X36178Y252737D01*
X36608Y256000D01*
Y264000D01*
X36178Y267263D01*
X34919Y270304D01*
X32915Y272915D01*
X30304Y274919D01*
X27263Y276178D01*
X24000Y276608D01*
D02*
G37*
G36*
X458796Y249000D02*
X457204D01*
X455734Y248391D01*
X454609Y247266D01*
X454000Y245796D01*
Y244204D01*
X454609Y242734D01*
X455734Y241609D01*
X457204Y241000D01*
X458796D01*
X460266Y241609D01*
X461391Y242734D01*
X462000Y244204D01*
Y245796D01*
X461391Y247266D01*
X460266Y248391D01*
X458796Y249000D01*
D02*
G37*
G36*
X147266Y244492D02*
X142508D01*
Y240234D01*
X147266D01*
Y244492D01*
D02*
G37*
G36*
X90055Y255516D02*
X87945D01*
X85906Y254970D01*
X84078Y253914D01*
X82586Y252422D01*
X81530Y250594D01*
X80984Y248555D01*
Y246445D01*
X81530Y244406D01*
X82586Y242578D01*
X84078Y241086D01*
X85906Y240030D01*
X87945Y239484D01*
X90055D01*
X92094Y240030D01*
X93922Y241086D01*
X95414Y242578D01*
X96470Y244406D01*
X97016Y246445D01*
Y248555D01*
X96470Y250594D01*
X95414Y252422D01*
X93922Y253914D01*
X92094Y254970D01*
X90055Y255516D01*
D02*
G37*
G36*
X397796Y239000D02*
X396204D01*
X394734Y238391D01*
X393609Y237266D01*
X393000Y235796D01*
Y234204D01*
X393609Y232734D01*
X394734Y231609D01*
X396204Y231000D01*
X397796D01*
X399266Y231609D01*
X400391Y232734D01*
X401000Y234204D01*
Y235796D01*
X400391Y237266D01*
X399266Y238391D01*
X397796Y239000D01*
D02*
G37*
G36*
X428266Y235766D02*
X423758D01*
Y230508D01*
X428266D01*
Y235766D01*
D02*
G37*
G36*
X422742D02*
X418234D01*
Y230508D01*
X422742D01*
Y235766D01*
D02*
G37*
G36*
X230617Y228617D02*
X227509D01*
Y225509D01*
X230617D01*
Y228617D01*
D02*
G37*
G36*
X226493D02*
X223385D01*
Y225509D01*
X226493D01*
Y228617D01*
D02*
G37*
G36*
X428266Y229492D02*
X423758D01*
Y224234D01*
X428266D01*
Y229492D01*
D02*
G37*
G36*
X422742D02*
X418234D01*
Y224234D01*
X422742D01*
Y229492D01*
D02*
G37*
G36*
X258796Y231000D02*
X257204D01*
X255734Y230391D01*
X254609Y229266D01*
X254000Y227796D01*
Y226204D01*
X254609Y224734D01*
X255734Y223609D01*
X257204Y223000D01*
X258796D01*
X260266Y223609D01*
X261391Y224734D01*
X262000Y226204D01*
Y227796D01*
X261391Y229266D01*
X260266Y230391D01*
X258796Y231000D01*
D02*
G37*
G36*
X300796Y230250D02*
X299204D01*
X297734Y229641D01*
X296609Y228516D01*
X296000Y227046D01*
Y225454D01*
X296609Y223984D01*
X297734Y222859D01*
X299204Y222250D01*
X300796D01*
X302266Y222859D01*
X303391Y223984D01*
X304000Y225454D01*
Y227046D01*
X303391Y228516D01*
X302266Y229641D01*
X300796Y230250D01*
D02*
G37*
G36*
X407796Y229000D02*
X406204D01*
X404734Y228391D01*
X403609Y227266D01*
X403000Y225796D01*
Y224204D01*
X403609Y222734D01*
X404734Y221609D01*
X406204Y221000D01*
X407796D01*
X409266Y221609D01*
X410391Y222734D01*
X411000Y224204D01*
Y225796D01*
X410391Y227266D01*
X409266Y228391D01*
X407796Y229000D01*
D02*
G37*
G36*
X291266Y230266D02*
X281734D01*
Y221469D01*
X280464Y220943D01*
X278266Y223141D01*
Y230266D01*
X268734D01*
Y219734D01*
X275859D01*
X278849Y216744D01*
X278849Y215418D01*
X278046Y214616D01*
X276616Y214616D01*
X276114Y214616D01*
X273508D01*
Y211000D01*
Y207384D01*
X275827D01*
X276716Y207248D01*
X277329Y206409D01*
X277609Y205734D01*
X278734Y204609D01*
X280204Y204000D01*
X281796D01*
X283266Y204609D01*
X284445Y203992D01*
Y202266D01*
X281984D01*
Y192948D01*
X280714Y192443D01*
X278516Y194641D01*
Y202266D01*
X269484D01*
Y192980D01*
X269484Y192257D01*
X268458Y191381D01*
X268266Y191391D01*
X268013Y191496D01*
X266796Y192000D01*
X265204D01*
X263734Y191391D01*
X262609Y190266D01*
X262000Y188796D01*
Y187204D01*
X262609Y185734D01*
X263734Y184609D01*
X265204Y184000D01*
X266796D01*
X268266Y184609D01*
X269391Y185734D01*
X270000Y187204D01*
Y188796D01*
X269391Y190266D01*
X268987Y190670D01*
X269715Y191728D01*
X269733Y191734D01*
X270657Y191734D01*
X275609D01*
X277468Y189875D01*
X276609Y189016D01*
X276000Y187546D01*
Y185954D01*
X276609Y184484D01*
X277734Y183359D01*
X279204Y182750D01*
X280796D01*
X282266Y183359D01*
X283391Y184484D01*
X284000Y185954D01*
Y187546D01*
X283391Y189016D01*
X282266Y190141D01*
X282408Y191457D01*
X282625Y191699D01*
X282717Y191734D01*
X291016D01*
Y202266D01*
X288556D01*
Y219734D01*
X291266D01*
Y230266D01*
D02*
G37*
G36*
X90055Y230516D02*
X87945D01*
X85906Y229970D01*
X84078Y228914D01*
X82586Y227422D01*
X81530Y225594D01*
X80984Y223555D01*
Y221445D01*
X81530Y219406D01*
X82586Y217578D01*
X84078Y216086D01*
X85906Y215030D01*
X87945Y214484D01*
X90055D01*
X92094Y215030D01*
X93922Y216086D01*
X95414Y217578D01*
X96470Y219406D01*
X97016Y221445D01*
Y223555D01*
X96470Y225594D01*
X95414Y227422D01*
X93922Y228914D01*
X92094Y229970D01*
X90055Y230516D01*
D02*
G37*
G36*
X272492Y214616D02*
X269384D01*
Y211508D01*
X272492D01*
Y214616D01*
D02*
G37*
G36*
X374796Y217750D02*
X373204D01*
X371734Y217141D01*
X370609Y216016D01*
X370000Y214546D01*
Y212954D01*
X370609Y211484D01*
X371734Y210359D01*
X373204Y209750D01*
X374796D01*
X376266Y210359D01*
X377391Y211484D01*
X378000Y212954D01*
Y214546D01*
X377391Y216016D01*
X376266Y217141D01*
X374796Y217750D01*
D02*
G37*
G36*
X258831Y215965D02*
X257240D01*
X255770Y215355D01*
X254645Y214230D01*
X254035Y212760D01*
Y211169D01*
X254645Y209699D01*
X255770Y208573D01*
X257240Y207964D01*
X258831D01*
X260301Y208573D01*
X261427Y209699D01*
X262036Y211169D01*
Y212760D01*
X261427Y214230D01*
X260301Y215355D01*
X258831Y215965D01*
D02*
G37*
G36*
X272492Y210492D02*
X269384D01*
Y207384D01*
X272492D01*
Y210492D01*
D02*
G37*
G36*
X205796Y204000D02*
X204204D01*
X202734Y203391D01*
X201609Y202266D01*
X201000Y200796D01*
Y199204D01*
X201457Y198101D01*
X201068Y197454D01*
X200758Y197087D01*
X200643Y197000D01*
X199357D01*
X199242Y197087D01*
X198932Y197454D01*
X198543Y198101D01*
X199000Y199204D01*
Y200796D01*
X198391Y202266D01*
X197266Y203391D01*
X195796Y204000D01*
X194204D01*
X192734Y203391D01*
X191609Y202266D01*
X191000Y200796D01*
Y199204D01*
X191457Y198101D01*
X191068Y197454D01*
X190758Y197087D01*
X190643Y197000D01*
X189357D01*
X189242Y197087D01*
X188932Y197454D01*
X188543Y198101D01*
X189000Y199204D01*
Y200796D01*
X188391Y202266D01*
X187266Y203391D01*
X185796Y204000D01*
X184204D01*
X182734Y203391D01*
X181609Y202266D01*
X181000Y200796D01*
Y199204D01*
X181457Y198101D01*
X181068Y197454D01*
X180758Y197087D01*
X180643Y197000D01*
X179357D01*
X179242Y197087D01*
X178932Y197454D01*
X178543Y198101D01*
X179000Y199204D01*
Y200796D01*
X178391Y202266D01*
X177266Y203391D01*
X175796Y204000D01*
X174204D01*
X172734Y203391D01*
X171609Y202266D01*
X171000Y200796D01*
Y199204D01*
X171457Y198101D01*
X171068Y197454D01*
X170758Y197087D01*
X170643Y197000D01*
X169357D01*
X169242Y197087D01*
X168932Y197454D01*
X168543Y198101D01*
X169000Y199204D01*
Y200796D01*
X168391Y202266D01*
X167266Y203391D01*
X165796Y204000D01*
X164204D01*
X162734Y203391D01*
X161609Y202266D01*
X161000Y200796D01*
Y199204D01*
X161457Y198101D01*
X161068Y197454D01*
X160758Y197087D01*
X160643Y197000D01*
X159204D01*
X157734Y196391D01*
X156609Y195266D01*
X156000Y193796D01*
Y192204D01*
X156609Y190734D01*
X157734Y189609D01*
X159204Y189000D01*
X160796D01*
X162266Y189609D01*
X163391Y190734D01*
X164000Y192204D01*
Y193796D01*
X163543Y194899D01*
X163932Y195546D01*
X164242Y195913D01*
X164357Y196000D01*
X165643D01*
X165758Y195913D01*
X166068Y195546D01*
X166457Y194899D01*
X166000Y193796D01*
Y192204D01*
X166609Y190734D01*
X167734Y189609D01*
X169204Y189000D01*
X170796D01*
X172266Y189609D01*
X173391Y190734D01*
X174000Y192204D01*
Y193796D01*
X173543Y194899D01*
X173932Y195546D01*
X174242Y195913D01*
X174357Y196000D01*
X175643D01*
X175758Y195913D01*
X176068Y195546D01*
X176457Y194899D01*
X176000Y193796D01*
Y192204D01*
X176609Y190734D01*
X177734Y189609D01*
X179204Y189000D01*
X180796D01*
X182266Y189609D01*
X183391Y190734D01*
X184000Y192204D01*
Y193796D01*
X183543Y194899D01*
X183932Y195546D01*
X184242Y195913D01*
X184357Y196000D01*
X185643D01*
X185758Y195913D01*
X186068Y195546D01*
X186457Y194899D01*
X186000Y193796D01*
Y192204D01*
X186609Y190734D01*
X187734Y189609D01*
X189204Y189000D01*
X190796D01*
X192266Y189609D01*
X193391Y190734D01*
X194000Y192204D01*
Y193796D01*
X193543Y194899D01*
X193932Y195546D01*
X194242Y195913D01*
X194357Y196000D01*
X195643D01*
X195758Y195913D01*
X196068Y195546D01*
X196457Y194899D01*
X196000Y193796D01*
Y192204D01*
X196609Y190734D01*
X197734Y189609D01*
X199204Y189000D01*
X200796D01*
X202266Y189609D01*
X203391Y190734D01*
X204000Y192204D01*
Y193796D01*
X203543Y194899D01*
X203932Y195546D01*
X204242Y195913D01*
X204357Y196000D01*
X205643D01*
X205758Y195913D01*
X206068Y195546D01*
X206457Y194899D01*
X206000Y193796D01*
Y192204D01*
X206609Y190734D01*
X207734Y189609D01*
X209204Y189000D01*
X210796D01*
X212266Y189609D01*
X213391Y190734D01*
X214000Y192204D01*
Y193796D01*
X213391Y195266D01*
X212266Y196391D01*
X210796Y197000D01*
X209357D01*
X209242Y197087D01*
X208932Y197454D01*
X208543Y198101D01*
X209000Y199204D01*
Y200796D01*
X208391Y202266D01*
X207266Y203391D01*
X205796Y204000D01*
D02*
G37*
G36*
X230616Y198492D02*
X227508D01*
Y195384D01*
X230616D01*
Y198492D01*
D02*
G37*
G36*
X226492D02*
X223384D01*
Y195384D01*
X226492D01*
Y198492D01*
D02*
G37*
G36*
X374796Y182750D02*
X373204D01*
X371734Y182141D01*
X370609Y181016D01*
X370000Y179546D01*
Y177954D01*
X370609Y176484D01*
X371734Y175359D01*
X373204Y174750D01*
X374796D01*
X376266Y175359D01*
X377391Y176484D01*
X378000Y177954D01*
Y179546D01*
X377391Y181016D01*
X376266Y182141D01*
X374796Y182750D01*
D02*
G37*
G36*
X438000Y187565D02*
X412000D01*
X411018Y187370D01*
X410186Y186814D01*
X402372Y179000D01*
X401204D01*
X399734Y178391D01*
X398609Y177266D01*
X398000Y175796D01*
Y174204D01*
X398364Y173326D01*
X397628Y172055D01*
X390266D01*
Y176516D01*
X379734D01*
Y167484D01*
X390266D01*
Y167945D01*
X410734D01*
Y167734D01*
X421266D01*
Y174359D01*
X424851Y177945D01*
X432037D01*
X432160Y177786D01*
X431841Y176878D01*
X431539Y176516D01*
X426484D01*
Y171248D01*
X426435Y171000D01*
Y166063D01*
X422890Y162517D01*
X422516Y162891D01*
X421266Y163409D01*
Y164266D01*
X410734D01*
Y154734D01*
X421266D01*
Y155591D01*
X422516Y156109D01*
X423341Y156935D01*
X423500D01*
X424482Y157130D01*
X425273Y157659D01*
X425462Y157607D01*
X426484Y157060D01*
Y148055D01*
X421266D01*
Y153266D01*
X410734D01*
Y152056D01*
X401372D01*
X400636Y153326D01*
X401000Y154204D01*
Y155796D01*
X400391Y157266D01*
X399266Y158391D01*
X397796Y159000D01*
X396204D01*
X394734Y158391D01*
X393609Y157266D01*
X393000Y155796D01*
Y154204D01*
X393445Y153131D01*
X393558Y152613D01*
X393075Y151472D01*
X393046Y151454D01*
X393046Y151453D01*
X386796Y145204D01*
X386671Y145016D01*
X379734D01*
Y135984D01*
X390266D01*
Y142801D01*
X390280Y142873D01*
X395351Y147944D01*
X402628D01*
X403364Y146674D01*
X403000Y145796D01*
Y144204D01*
X403609Y142734D01*
X404734Y141609D01*
X406204Y141000D01*
X407796D01*
X409266Y141609D01*
X410391Y142734D01*
X410805Y143734D01*
X419447D01*
X419933Y142561D01*
X417638Y140266D01*
X410734D01*
Y130734D01*
X413435D01*
Y129266D01*
X410734D01*
Y128719D01*
X409464Y128193D01*
X409266Y128391D01*
X407796Y129000D01*
X406204D01*
X404734Y128391D01*
X403609Y127266D01*
X403000Y125796D01*
Y124204D01*
X403609Y122734D01*
X404734Y121609D01*
X406204Y121000D01*
X407796D01*
X409266Y121609D01*
X409464Y121807D01*
X410734Y121281D01*
Y119734D01*
X421266D01*
Y120591D01*
X422516Y121109D01*
X423341Y121935D01*
X437437D01*
X438586Y120786D01*
X438060Y119516D01*
X433786D01*
X432984Y119516D01*
X431714Y119516D01*
X426484D01*
Y109484D01*
X431781D01*
X432307Y108214D01*
X431149Y107056D01*
X423851D01*
X421266Y109641D01*
Y116266D01*
X410734D01*
Y112056D01*
X401372D01*
X400636Y113326D01*
X401000Y114204D01*
Y115796D01*
X400391Y117266D01*
X399266Y118391D01*
X397796Y119000D01*
X396204D01*
X394734Y118391D01*
X393609Y117266D01*
X393000Y115796D01*
Y114204D01*
X393364Y113326D01*
X392628Y112056D01*
X389500D01*
X389500Y112056D01*
X388713Y111899D01*
X388046Y111454D01*
X388046Y111453D01*
X386796Y110204D01*
X386671Y110016D01*
X379734D01*
Y100984D01*
X390266D01*
Y107801D01*
X390280Y107873D01*
X390351Y107944D01*
X410734D01*
Y106734D01*
X418359D01*
X421547Y103547D01*
X421547Y103546D01*
X422213Y103101D01*
X423000Y102944D01*
X423000Y102944D01*
X432000D01*
X432000Y102944D01*
X432787Y103101D01*
X433453Y103546D01*
X437125Y107218D01*
X437125Y107218D01*
X437571Y107885D01*
X437727Y108672D01*
X437915Y108848D01*
X439480Y108593D01*
X439560Y108439D01*
Y99766D01*
X436734D01*
Y88234D01*
X446766D01*
Y99766D01*
X444690D01*
Y109484D01*
X445516D01*
Y119516D01*
X444565D01*
Y121000D01*
X444370Y121982D01*
X443814Y122814D01*
X440314Y126314D01*
X439482Y126870D01*
X438500Y127065D01*
X423341D01*
X422516Y127891D01*
X421266Y128409D01*
Y129266D01*
X418565D01*
Y130734D01*
X421266D01*
Y136638D01*
X424063Y139435D01*
X425636D01*
X426484Y138516D01*
X426484Y138165D01*
Y128484D01*
X431714D01*
X432516Y128484D01*
X433786Y128484D01*
X438214D01*
X439016Y128484D01*
X440286Y128484D01*
X445516D01*
Y134888D01*
X449814Y139186D01*
X450370Y140018D01*
X450565Y141000D01*
Y153937D01*
X452827Y156199D01*
X453393Y156004D01*
X454000Y155576D01*
Y154204D01*
X454609Y152734D01*
X455734Y151609D01*
X457204Y151000D01*
X458796D01*
X460266Y151609D01*
X461391Y152734D01*
X462000Y154204D01*
Y155796D01*
X461391Y157266D01*
X460266Y158391D01*
X458796Y159000D01*
X457424D01*
X456996Y159607D01*
X456842Y160056D01*
X457636Y161000D01*
X458796D01*
X460266Y161609D01*
X461391Y162734D01*
X462000Y164204D01*
Y165796D01*
X461391Y167266D01*
X460266Y168391D01*
X458796Y169000D01*
X457424D01*
X456996Y169607D01*
X456842Y170056D01*
X457636Y171000D01*
X458796D01*
X460266Y171609D01*
X461391Y172734D01*
X462000Y174204D01*
Y175796D01*
X461391Y177266D01*
X460266Y178391D01*
X458796Y179000D01*
X457204D01*
X455734Y178391D01*
X454609Y177266D01*
X454000Y175796D01*
Y174628D01*
X446786Y167414D01*
X445516Y167940D01*
Y176516D01*
X445065D01*
Y180500D01*
X444870Y181482D01*
X444314Y182314D01*
X439814Y186814D01*
X438982Y187370D01*
X438000Y187565D01*
D02*
G37*
G36*
X166796Y162000D02*
X165204D01*
X164036Y161516D01*
X162984D01*
Y160641D01*
X162609Y160266D01*
X162286Y159486D01*
X161016Y159739D01*
Y161516D01*
X158508D01*
Y158000D01*
Y154484D01*
X161016D01*
Y156261D01*
X162286Y156514D01*
X162609Y155734D01*
X162984Y155359D01*
Y154484D01*
X163435D01*
Y148516D01*
X162984D01*
Y141484D01*
X169016D01*
Y148516D01*
X168565D01*
Y154484D01*
X169016D01*
Y155359D01*
X169391Y155734D01*
X170000Y157204D01*
Y158796D01*
X169391Y160266D01*
X169016Y160641D01*
Y161516D01*
X167964D01*
X166796Y162000D01*
D02*
G37*
G36*
X249492Y161516D02*
X246984D01*
Y158508D01*
X249492D01*
Y161516D01*
D02*
G37*
G36*
X157492D02*
X154984D01*
Y158508D01*
X157492D01*
Y161516D01*
D02*
G37*
G36*
X153016D02*
X150508D01*
Y158508D01*
X153016D01*
Y161516D01*
D02*
G37*
G36*
X390266Y164016D02*
X379734D01*
Y154984D01*
X390266D01*
Y164016D01*
D02*
G37*
G36*
X249492Y157492D02*
X246984D01*
Y154484D01*
X249492D01*
Y157492D01*
D02*
G37*
G36*
X157492D02*
X154984D01*
Y154484D01*
X157492D01*
Y157492D01*
D02*
G37*
G36*
X153016Y157492D02*
X150508D01*
Y154484D01*
X153016D01*
Y157492D01*
D02*
G37*
G36*
X258796Y149000D02*
X257204D01*
X256036Y148516D01*
X254984D01*
Y147641D01*
X254609Y147266D01*
X254286Y146486D01*
X253016Y146739D01*
Y148516D01*
X250508D01*
Y145000D01*
Y141484D01*
X253016D01*
Y143261D01*
X254286Y143514D01*
X254609Y142734D01*
X254984Y142359D01*
Y141484D01*
X255435D01*
Y135516D01*
X254984D01*
Y128484D01*
X261016D01*
Y135516D01*
X260565D01*
Y141484D01*
X261016D01*
Y142359D01*
X261391Y142734D01*
X262000Y144204D01*
Y145796D01*
X261391Y147266D01*
X261016Y147641D01*
Y148516D01*
X259964D01*
X258796Y149000D01*
D02*
G37*
G36*
X249492Y148516D02*
X246984D01*
Y145508D01*
X249492D01*
Y148516D01*
D02*
G37*
G36*
X161016D02*
X158508D01*
Y145508D01*
X161016D01*
Y148516D01*
D02*
G37*
G36*
X157492D02*
X154984D01*
Y145508D01*
X157492D01*
Y148516D01*
D02*
G37*
G36*
X249492Y144492D02*
X246984D01*
Y141484D01*
X249492D01*
Y144492D01*
D02*
G37*
G36*
X161016D02*
X158508D01*
Y141484D01*
X161016D01*
Y144492D01*
D02*
G37*
G36*
X157492D02*
X154984D01*
Y141484D01*
X157492D01*
Y144492D01*
D02*
G37*
G36*
X458796Y149000D02*
X457204D01*
X455734Y148391D01*
X454609Y147266D01*
X454000Y145796D01*
Y144204D01*
X454609Y142734D01*
X455734Y141609D01*
X457204Y141000D01*
X458796D01*
X460266Y141609D01*
X461391Y142734D01*
X462000Y144204D01*
Y145796D01*
X461391Y147266D01*
X460266Y148391D01*
X458796Y149000D01*
D02*
G37*
G36*
X374796Y147750D02*
X373204D01*
X371734Y147141D01*
X370609Y146016D01*
X370000Y144546D01*
Y142954D01*
X370609Y141484D01*
X371734Y140359D01*
X373204Y139750D01*
X374796D01*
X376266Y140359D01*
X377391Y141484D01*
X378000Y142954D01*
Y144546D01*
X377391Y146016D01*
X376266Y147141D01*
X374796Y147750D01*
D02*
G37*
G36*
X253016Y135516D02*
X250508D01*
Y132508D01*
X253016D01*
Y135516D01*
D02*
G37*
G36*
X249492D02*
X246984D01*
Y132508D01*
X249492D01*
Y135516D01*
D02*
G37*
G36*
X458796Y139000D02*
X457204D01*
X455734Y138391D01*
X454609Y137266D01*
X454000Y135796D01*
Y134204D01*
X454609Y132734D01*
X455734Y131609D01*
X457204Y131000D01*
X458796D01*
X460266Y131609D01*
X461391Y132734D01*
X462000Y134204D01*
Y135796D01*
X461391Y137266D01*
X460266Y138391D01*
X458796Y139000D01*
D02*
G37*
G36*
X397796D02*
X396204D01*
X394734Y138391D01*
X393609Y137266D01*
X393000Y135796D01*
Y134204D01*
X393609Y132734D01*
X394734Y131609D01*
X396204Y131000D01*
X397796D01*
X399266Y131609D01*
X400391Y132734D01*
X401000Y134204D01*
Y135796D01*
X400391Y137266D01*
X399266Y138391D01*
X397796Y139000D01*
D02*
G37*
G36*
X253016Y131492D02*
X250508D01*
Y128484D01*
X253016D01*
Y131492D01*
D02*
G37*
G36*
X249492D02*
X246984D01*
Y128484D01*
X249492D01*
Y131492D01*
D02*
G37*
G36*
X290796Y139000D02*
X289204D01*
X287734Y138391D01*
X286609Y137266D01*
X286000Y135796D01*
Y134204D01*
X286609Y132734D01*
X287734Y131609D01*
X289204Y131000D01*
X290796D01*
X292266Y131609D01*
X292730Y132073D01*
X294000Y131547D01*
Y131204D01*
X294609Y129734D01*
X295734Y128609D01*
X297204Y128000D01*
X298796D01*
X300266Y128609D01*
X301391Y129734D01*
X302000Y131204D01*
Y132796D01*
X301391Y134266D01*
X300266Y135391D01*
X298796Y136000D01*
X297204D01*
X295734Y135391D01*
X295270Y134927D01*
X294000Y135453D01*
Y135796D01*
X293391Y137266D01*
X292266Y138391D01*
X290796Y139000D01*
D02*
G37*
G36*
X458796Y129000D02*
X457204D01*
X455734Y128391D01*
X454609Y127266D01*
X454000Y125796D01*
Y124204D01*
X454609Y122734D01*
X455734Y121609D01*
X457204Y121000D01*
X458796D01*
X460266Y121609D01*
X461391Y122734D01*
X462000Y124204D01*
Y125796D01*
X461391Y127266D01*
X460266Y128391D01*
X458796Y129000D01*
D02*
G37*
G36*
X289796Y128000D02*
X288204D01*
X286734Y127391D01*
X285609Y126266D01*
X285000Y124796D01*
Y123204D01*
X285609Y121734D01*
X286734Y120609D01*
X288204Y120000D01*
X289796D01*
X291266Y120609D01*
X292391Y121734D01*
X293000Y123204D01*
Y124796D01*
X292391Y126266D01*
X291266Y127391D01*
X289796Y128000D01*
D02*
G37*
G36*
X390266Y132516D02*
X379734D01*
Y123786D01*
X379734Y123484D01*
Y122516D01*
X379734Y122214D01*
Y113484D01*
X390266D01*
Y122214D01*
X390266Y122516D01*
Y123484D01*
X390266Y123786D01*
Y132516D01*
D02*
G37*
G36*
X458796Y119000D02*
X457204D01*
X455734Y118391D01*
X454609Y117266D01*
X454000Y115796D01*
Y114204D01*
X454609Y112734D01*
X455734Y111609D01*
X457204Y111000D01*
X458796D01*
X460266Y111609D01*
X461391Y112734D01*
X462000Y114204D01*
Y115796D01*
X461391Y117266D01*
X460266Y118391D01*
X458796Y119000D01*
D02*
G37*
G36*
X258796Y114000D02*
X257204D01*
X255734Y113391D01*
X254609Y112266D01*
X254000Y110796D01*
Y109204D01*
X254609Y107734D01*
X255734Y106609D01*
X257204Y106000D01*
X258796D01*
X260266Y106609D01*
X261391Y107734D01*
X262000Y109204D01*
Y110796D01*
X261391Y112266D01*
X260266Y113391D01*
X258796Y114000D01*
D02*
G37*
G36*
X374796Y112750D02*
X373204D01*
X371734Y112141D01*
X370609Y111016D01*
X370000Y109546D01*
Y107954D01*
X370609Y106484D01*
X371734Y105359D01*
X373204Y104750D01*
X374796D01*
X376266Y105359D01*
X377391Y106484D01*
X378000Y107954D01*
Y109546D01*
X377391Y111016D01*
X376266Y112141D01*
X374796Y112750D01*
D02*
G37*
G36*
X458796Y109000D02*
X457204D01*
X455734Y108391D01*
X454609Y107266D01*
X454000Y105796D01*
Y104204D01*
X454609Y102734D01*
X455734Y101609D01*
X457204Y101000D01*
X458796D01*
X460266Y101609D01*
X461391Y102734D01*
X462000Y104204D01*
Y105796D01*
X461391Y107266D01*
X460266Y108391D01*
X458796Y109000D01*
D02*
G37*
G36*
X94766Y104766D02*
X90258D01*
Y99508D01*
X94766D01*
Y104766D01*
D02*
G37*
G36*
X89242D02*
X84734D01*
Y99508D01*
X89242D01*
Y104766D01*
D02*
G37*
G36*
X433266Y99766D02*
X428758D01*
Y94508D01*
X433266D01*
Y99766D01*
D02*
G37*
G36*
X427742D02*
X423234D01*
Y94508D01*
X427742D01*
Y99766D01*
D02*
G37*
G36*
X94766Y98492D02*
X90258D01*
Y93234D01*
X94766D01*
Y98492D01*
D02*
G37*
G36*
X89242D02*
X84734D01*
Y93234D01*
X89242D01*
Y98492D01*
D02*
G37*
G36*
X81266Y104766D02*
X71234D01*
Y98977D01*
X70422D01*
X69635Y98821D01*
X68968Y98375D01*
X68968Y98375D01*
X64006Y93413D01*
X63796Y93500D01*
X62204D01*
X60734Y92891D01*
X59609Y91766D01*
X59000Y90296D01*
Y88704D01*
X59609Y87234D01*
X60734Y86109D01*
X61786Y85673D01*
Y84327D01*
X60734Y83891D01*
X59609Y82766D01*
X59000Y81296D01*
Y79704D01*
X59609Y78234D01*
X60734Y77109D01*
X62204Y76500D01*
X63796D01*
X65266Y77109D01*
X66391Y78234D01*
X67000Y79704D01*
Y81296D01*
X66913Y81506D01*
X68351Y82944D01*
X71234D01*
Y79234D01*
X81266D01*
Y90766D01*
X71234D01*
Y87056D01*
X67692D01*
X67231Y87496D01*
X66795Y88210D01*
X67000Y88704D01*
Y90296D01*
X66913Y90506D01*
X70107Y93701D01*
X71234Y93234D01*
Y93234D01*
X81266D01*
Y104766D01*
D02*
G37*
G36*
X289796Y117000D02*
X288204D01*
X286734Y116391D01*
X285609Y115266D01*
X285000Y113796D01*
Y112204D01*
X285609Y110734D01*
X286623Y109720D01*
X286683Y109000D01*
X286623Y108280D01*
X285609Y107266D01*
X285000Y105796D01*
Y104204D01*
X285609Y102734D01*
X286623Y101720D01*
X286683Y101000D01*
X286623Y100280D01*
X285609Y99266D01*
X285000Y97796D01*
Y96204D01*
X285609Y94734D01*
X286734Y93609D01*
X288204Y93000D01*
X289796D01*
X291266Y93609D01*
X292391Y94734D01*
X293000Y96204D01*
Y97796D01*
X292391Y99266D01*
X291377Y100280D01*
X291317Y101000D01*
X291377Y101720D01*
X292391Y102734D01*
X293000Y104204D01*
Y105796D01*
X292391Y107266D01*
X291377Y108280D01*
X291317Y109000D01*
X291377Y109720D01*
X292391Y110734D01*
X293000Y112204D01*
Y113796D01*
X292391Y115266D01*
X291266Y116391D01*
X289796Y117000D01*
D02*
G37*
G36*
X60500Y173565D02*
X48000D01*
X47018Y173370D01*
X46186Y172814D01*
X41986Y168614D01*
X41430Y167782D01*
X41235Y166800D01*
Y166716D01*
X33684D01*
Y154084D01*
X35793D01*
X35880Y153941D01*
X36182Y152814D01*
X34646Y151278D01*
X33684Y148956D01*
Y148208D01*
X40000D01*
Y147192D01*
X33684D01*
Y146444D01*
X34646Y144122D01*
X36422Y142346D01*
X37166Y142037D01*
Y140663D01*
X36422Y140354D01*
X34646Y138578D01*
X33684Y136256D01*
Y135508D01*
X40000D01*
Y134492D01*
X33684D01*
Y133744D01*
X34646Y131422D01*
X36422Y129646D01*
X37166Y129337D01*
Y127963D01*
X36422Y127654D01*
X34646Y125878D01*
X33684Y123556D01*
Y121044D01*
X34646Y118722D01*
X36422Y116946D01*
X37166Y116637D01*
Y115263D01*
X36422Y114955D01*
X34646Y113178D01*
X33684Y110856D01*
Y108344D01*
X34646Y106022D01*
X36422Y104246D01*
X38744Y103284D01*
X41256D01*
X43578Y104246D01*
X45354Y106022D01*
X45663Y106766D01*
X47037D01*
X47345Y106022D01*
X49122Y104246D01*
X51444Y103284D01*
X53956D01*
X56278Y104246D01*
X58054Y106022D01*
X59016Y108344D01*
Y110856D01*
X58054Y113178D01*
X56278Y114955D01*
X55534Y115263D01*
Y116637D01*
X56278Y116946D01*
X58054Y118722D01*
X59016Y121044D01*
Y123556D01*
X58054Y125878D01*
X56278Y127654D01*
X55534Y127963D01*
Y129337D01*
X56278Y129646D01*
X58054Y131422D01*
X59016Y133744D01*
Y136256D01*
X58054Y138578D01*
X56278Y140354D01*
X55534Y140663D01*
Y142037D01*
X56278Y142346D01*
X58054Y144122D01*
X58685Y145645D01*
X65734D01*
Y143234D01*
X76266D01*
Y152766D01*
X65734D01*
Y149755D01*
X58685D01*
X58054Y151278D01*
X56278Y153055D01*
X55534Y153363D01*
Y154737D01*
X56278Y155046D01*
X58054Y156822D01*
X59016Y159144D01*
Y161656D01*
X58054Y163978D01*
X56278Y165755D01*
X53956Y166716D01*
X51444D01*
X49122Y165755D01*
X47835Y164467D01*
X46615Y164870D01*
X46493Y165865D01*
X49063Y168435D01*
X59437D01*
X65734Y162138D01*
Y156234D01*
X76266D01*
Y158435D01*
X79435D01*
Y122063D01*
X49764Y92392D01*
X49266Y92891D01*
X47796Y93500D01*
X46204D01*
X44734Y92891D01*
X43609Y91766D01*
X43000Y90296D01*
Y88704D01*
X43609Y87234D01*
X44734Y86109D01*
X46204Y85500D01*
X47796D01*
X49266Y86109D01*
X50291Y87134D01*
X50700D01*
X51681Y87330D01*
X52514Y87886D01*
X83814Y119186D01*
X84370Y120018D01*
X84565Y121000D01*
Y161000D01*
X84370Y161982D01*
X83814Y162814D01*
X82982Y163370D01*
X82000Y163565D01*
X76266D01*
Y165766D01*
X69362D01*
X62314Y172814D01*
X61482Y173370D01*
X60500Y173565D01*
D02*
G37*
G36*
X458796Y99000D02*
X457204D01*
X455734Y98391D01*
X454609Y97266D01*
X454000Y95796D01*
Y94204D01*
X454609Y92734D01*
X455734Y91609D01*
X457204Y91000D01*
X458796D01*
X460266Y91609D01*
X461391Y92734D01*
X462000Y94204D01*
Y95796D01*
X461391Y97266D01*
X460266Y98391D01*
X458796Y99000D01*
D02*
G37*
G36*
X258796D02*
X257204D01*
X255734Y98391D01*
X254609Y97266D01*
X254000Y95796D01*
Y94204D01*
X254609Y92734D01*
X255734Y91609D01*
X257204Y91000D01*
X258796D01*
X260266Y91609D01*
X261391Y92734D01*
X262000Y94204D01*
Y95796D01*
X261391Y97266D01*
X260266Y98391D01*
X258796Y99000D01*
D02*
G37*
G36*
X433266Y93492D02*
X428758D01*
Y88234D01*
X433266D01*
Y93492D01*
D02*
G37*
G36*
X427742D02*
X423234D01*
Y88234D01*
X427742D01*
Y93492D01*
D02*
G37*
G36*
X215796Y89000D02*
X214204D01*
X212734Y88391D01*
X212073Y87730D01*
X211250Y87407D01*
X210427Y87730D01*
X209766Y88391D01*
X208296Y89000D01*
X206704D01*
X205234Y88391D01*
X204573Y87730D01*
X203750Y87407D01*
X202927Y87730D01*
X202266Y88391D01*
X200796Y89000D01*
X199204D01*
X197734Y88391D01*
X196609Y87266D01*
X196000Y85796D01*
Y84204D01*
X196609Y82734D01*
X197734Y81609D01*
X199204Y81000D01*
X200796D01*
X202266Y81609D01*
X202927Y82270D01*
X203750Y82593D01*
X204573Y82270D01*
X205234Y81609D01*
X206704Y81000D01*
X208296D01*
X209766Y81609D01*
X210427Y82270D01*
X211250Y82593D01*
X212073Y82270D01*
X212734Y81609D01*
X214204Y81000D01*
X215796D01*
X217266Y81609D01*
X218391Y82734D01*
X219000Y84204D01*
Y85796D01*
X218391Y87266D01*
X217266Y88391D01*
X215796Y89000D01*
D02*
G37*
G36*
X110796Y94000D02*
X109204D01*
X107734Y93391D01*
X106609Y92266D01*
X106000Y90796D01*
Y89719D01*
X103337Y87056D01*
X94766D01*
Y90766D01*
X84734D01*
Y79234D01*
X94766D01*
Y82944D01*
X104188D01*
X104188Y82944D01*
X104975Y83101D01*
X105642Y83546D01*
X108420Y86325D01*
X109204Y86000D01*
X110796D01*
X112266Y86609D01*
X113391Y87734D01*
X114000Y89204D01*
Y90796D01*
X113391Y92266D01*
X112266Y93391D01*
X110796Y94000D01*
D02*
G37*
G36*
X458796Y89000D02*
X457204D01*
X455734Y88391D01*
X454609Y87266D01*
X454000Y85796D01*
Y84204D01*
X454609Y82734D01*
X455734Y81609D01*
X457204Y81000D01*
X458796D01*
X460266Y81609D01*
X461391Y82734D01*
X462000Y84204D01*
Y85796D01*
X461391Y87266D01*
X460266Y88391D01*
X458796Y89000D01*
D02*
G37*
G36*
X289831Y87964D02*
X288240D01*
X286770Y87355D01*
X285644Y86230D01*
X285035Y84760D01*
Y83169D01*
X285644Y81699D01*
X286770Y80573D01*
X288240Y79964D01*
X289831D01*
X291301Y80573D01*
X292426Y81699D01*
X293036Y83169D01*
Y84760D01*
X292426Y86230D01*
X291301Y87355D01*
X289831Y87964D01*
D02*
G37*
G36*
X110796Y84000D02*
X109204D01*
X107734Y83391D01*
X106609Y82266D01*
X106000Y80796D01*
Y79204D01*
X106087Y78994D01*
X100148Y73056D01*
X94766D01*
Y76766D01*
X84734D01*
Y65234D01*
X94766D01*
Y68945D01*
X101000D01*
X101000Y68945D01*
X101787Y69101D01*
X102453Y69546D01*
X105278Y72371D01*
X106355Y71652D01*
X106000Y70796D01*
Y69204D01*
X106087Y68994D01*
X96149Y59056D01*
X94766D01*
Y62766D01*
X84734D01*
Y51234D01*
X94766D01*
Y54945D01*
X97000D01*
X97000Y54945D01*
X97787Y55101D01*
X98453Y55546D01*
X108994Y66087D01*
X109204Y66000D01*
X110796D01*
X112266Y66609D01*
X113391Y67734D01*
X114000Y69204D01*
Y70796D01*
X113391Y72266D01*
X112266Y73391D01*
X110796Y74000D01*
X109204D01*
X108348Y73646D01*
X107629Y74722D01*
X108994Y76087D01*
X109204Y76000D01*
X110796D01*
X112266Y76609D01*
X113391Y77734D01*
X114000Y79204D01*
Y80796D01*
X113391Y82266D01*
X112266Y83391D01*
X110796Y84000D01*
D02*
G37*
G36*
X81266Y76766D02*
X71234D01*
Y71556D01*
X66478D01*
X66391Y71766D01*
X65266Y72891D01*
X63796Y73500D01*
X62204D01*
X60734Y72891D01*
X59609Y71766D01*
X59000Y70296D01*
Y68704D01*
X59609Y67234D01*
X60734Y66109D01*
X61786Y65673D01*
Y64327D01*
X60734Y63891D01*
X59609Y62766D01*
X59000Y61296D01*
Y59704D01*
X59609Y58234D01*
X60734Y57109D01*
X62204Y56500D01*
X63796D01*
X65266Y57109D01*
X66391Y58234D01*
X66478Y58444D01*
X71234D01*
Y51234D01*
X81266D01*
Y62766D01*
X71234D01*
Y62555D01*
X66478D01*
X66391Y62766D01*
X65266Y63891D01*
X64214Y64327D01*
Y65673D01*
X65266Y66109D01*
X66391Y67234D01*
X66478Y67445D01*
X71234D01*
Y65234D01*
X81266D01*
Y76766D01*
D02*
G37*
G36*
X374796Y77750D02*
X373204D01*
X371734Y77141D01*
X370609Y76016D01*
X370000Y74546D01*
Y72954D01*
X370609Y71484D01*
X371734Y70359D01*
X373204Y69750D01*
X374796D01*
X376266Y70359D01*
X377391Y71484D01*
X378000Y72954D01*
Y74546D01*
X377391Y76016D01*
X376266Y77141D01*
X374796Y77750D01*
D02*
G37*
G36*
X233516Y72016D02*
X226484D01*
Y65984D01*
X227435D01*
Y64063D01*
X223750Y60378D01*
X219077D01*
X218193Y60378D01*
X216923Y60378D01*
X213723D01*
Y56000D01*
Y51622D01*
X216923D01*
X217807Y51622D01*
X219077Y51622D01*
X223435D01*
Y45516D01*
X222984D01*
Y44641D01*
X222609Y44266D01*
X222286Y43486D01*
X221016Y43739D01*
Y45516D01*
X218508D01*
Y42000D01*
Y38484D01*
X221016D01*
Y40261D01*
X222286Y40514D01*
X222609Y39734D01*
X222984Y39359D01*
Y38484D01*
X224036D01*
X225204Y38000D01*
X226796D01*
X227964Y38484D01*
X229016D01*
Y38908D01*
X230000Y39565D01*
X230984Y38908D01*
Y38484D01*
X232036D01*
X233204Y38000D01*
X234796D01*
X235964Y38484D01*
X237016D01*
Y39359D01*
X237391Y39734D01*
X237714Y40514D01*
X238984Y40261D01*
Y38484D01*
X241492D01*
Y42000D01*
Y45516D01*
X238984D01*
Y43739D01*
X237714Y43486D01*
X237391Y44266D01*
X237016Y44641D01*
Y45516D01*
X236565D01*
Y51622D01*
X240923D01*
X241807Y51622D01*
X243077Y51622D01*
X246278D01*
Y56000D01*
Y60378D01*
X243077D01*
X242193Y60378D01*
X240923Y60378D01*
X236250D01*
X232565Y64063D01*
Y65984D01*
X233516D01*
Y72016D01*
D02*
G37*
G36*
X156706Y60378D02*
X152622D01*
Y56508D01*
X156706D01*
Y60378D01*
D02*
G37*
G36*
X212707D02*
X208622D01*
Y56508D01*
X212707D01*
Y60378D01*
D02*
G37*
G36*
X247294D02*
Y56508D01*
X251378D01*
Y60378D01*
X247294D01*
D02*
G37*
G36*
X201016Y59516D02*
X198508D01*
Y56508D01*
X201016D01*
Y59516D01*
D02*
G37*
G36*
X197492D02*
X194984D01*
Y56508D01*
X197492D01*
Y59516D01*
D02*
G37*
G36*
X201016Y55492D02*
X198508D01*
Y52484D01*
X201016D01*
Y55492D01*
D02*
G37*
G36*
X197492D02*
X194984D01*
Y52484D01*
X197492D01*
Y55492D01*
D02*
G37*
G36*
X251378D02*
X247294D01*
Y51622D01*
X251378D01*
Y55492D01*
D02*
G37*
G36*
X156706Y55492D02*
X152622D01*
Y51622D01*
X156706D01*
Y55492D01*
D02*
G37*
G36*
X212707D02*
X208622D01*
Y51622D01*
X212707D01*
Y55492D01*
D02*
G37*
G36*
X201016Y45516D02*
X198508D01*
Y42508D01*
X201016D01*
Y45516D01*
D02*
G37*
G36*
X245016D02*
X242508D01*
Y42508D01*
X245016D01*
Y45516D01*
D02*
G37*
G36*
X153016D02*
X150508D01*
Y42508D01*
X153016D01*
Y45516D01*
D02*
G37*
G36*
X249492D02*
X246984D01*
Y42508D01*
X249492D01*
Y45516D01*
D02*
G37*
G36*
X217492D02*
X214984D01*
Y42508D01*
X217492D01*
Y45516D01*
D02*
G37*
G36*
X157492D02*
X154984D01*
Y42508D01*
X157492D01*
Y45516D01*
D02*
G37*
G36*
X415266Y51266D02*
X404734D01*
Y41734D01*
X415266D01*
Y51266D01*
D02*
G37*
G36*
X365266D02*
X354734D01*
Y41734D01*
X365266D01*
Y51266D01*
D02*
G37*
G36*
X332266Y46766D02*
X326758D01*
Y40008D01*
X332266D01*
Y46766D01*
D02*
G37*
G36*
X325742D02*
X320234D01*
Y40008D01*
X325742D01*
Y46766D01*
D02*
G37*
G36*
X249492Y41492D02*
X246984D01*
Y38484D01*
X249492D01*
Y41492D01*
D02*
G37*
G36*
X245016D02*
X242508D01*
Y38484D01*
X245016D01*
Y41492D01*
D02*
G37*
G36*
X217492D02*
X214984D01*
Y38484D01*
X217492D01*
Y41492D01*
D02*
G37*
G36*
X201016D02*
X198508D01*
Y38484D01*
X201016D01*
Y41492D01*
D02*
G37*
G36*
X157492D02*
X154984D01*
Y38484D01*
X157492D01*
Y41492D01*
D02*
G37*
G36*
X153016D02*
X150508D01*
Y38484D01*
X153016D01*
Y41492D01*
D02*
G37*
G36*
X70796Y48250D02*
X69204D01*
X68277Y47866D01*
X66384D01*
Y45973D01*
X66000Y45046D01*
Y43454D01*
X66384Y42527D01*
X66384Y39866D01*
X66384Y39364D01*
Y36758D01*
X70000D01*
X73616D01*
Y39364D01*
X73616Y40634D01*
X73616Y41136D01*
Y42527D01*
X74000Y43454D01*
Y45046D01*
X73616Y45973D01*
Y47866D01*
X71723D01*
X70796Y48250D01*
D02*
G37*
G36*
X426766Y39266D02*
X417234D01*
Y35556D01*
X415266D01*
Y38266D01*
X404734D01*
Y28734D01*
X415266D01*
Y31444D01*
X417234D01*
Y28734D01*
X426766D01*
Y39266D01*
D02*
G37*
G36*
X378266Y38266D02*
X367734D01*
Y35556D01*
X365266D01*
Y38266D01*
X354734D01*
Y28734D01*
X357944D01*
Y25616D01*
X356384D01*
Y18886D01*
X356384Y17616D01*
X356384Y17114D01*
Y14508D01*
X360000D01*
X363616D01*
Y17114D01*
X363616Y18384D01*
X363616Y18886D01*
Y25616D01*
X362056D01*
Y28734D01*
X365266D01*
Y31444D01*
X367734D01*
Y28734D01*
X378266D01*
Y38266D01*
D02*
G37*
G36*
X439766Y39266D02*
X435508D01*
Y34508D01*
X439766D01*
Y39266D01*
D02*
G37*
G36*
X434492D02*
X430234D01*
Y34508D01*
X434492D01*
Y39266D01*
D02*
G37*
G36*
X208796Y46000D02*
X207204D01*
X206277Y45616D01*
X204384D01*
Y43723D01*
X204000Y42796D01*
Y41204D01*
X204384Y40277D01*
X204384Y37616D01*
X204384Y37114D01*
Y34508D01*
X208000D01*
X211616D01*
Y37114D01*
X211616Y38384D01*
X211616Y38886D01*
Y40277D01*
X212000Y41204D01*
Y42796D01*
X211616Y43723D01*
Y45616D01*
X209723D01*
X208796Y46000D01*
D02*
G37*
G36*
X73616Y35742D02*
X70508D01*
Y32634D01*
X73616D01*
Y35742D01*
D02*
G37*
G36*
X69492D02*
X66384D01*
Y32634D01*
X69492D01*
Y35742D01*
D02*
G37*
G36*
X332266Y38992D02*
X326758D01*
Y32234D01*
X332266D01*
Y38992D01*
D02*
G37*
G36*
X325742D02*
X320234D01*
Y32234D01*
X325742D01*
Y38992D01*
D02*
G37*
G36*
X312266Y46766D02*
X300234D01*
Y32234D01*
X312266D01*
Y46766D01*
D02*
G37*
G36*
X211616Y33492D02*
X208508D01*
Y30384D01*
X211616D01*
Y33492D01*
D02*
G37*
G36*
X207492D02*
X204384D01*
Y30384D01*
X207492D01*
Y33492D01*
D02*
G37*
G36*
X439766Y33492D02*
X435508D01*
Y28734D01*
X439766D01*
Y33492D01*
D02*
G37*
G36*
X434492D02*
X430234D01*
Y28734D01*
X434492D01*
Y33492D01*
D02*
G37*
G36*
X309766Y23766D02*
X304258D01*
Y17008D01*
X309766D01*
Y23766D01*
D02*
G37*
G36*
X303242D02*
X297734D01*
Y17008D01*
X303242D01*
Y23766D01*
D02*
G37*
G36*
X363616Y13492D02*
X360508D01*
Y10384D01*
X363616D01*
Y13492D01*
D02*
G37*
G36*
X359492D02*
X356384D01*
Y10384D01*
X359492D01*
Y13492D01*
D02*
G37*
G36*
X329766Y23766D02*
X317734D01*
Y9234D01*
X329766D01*
Y23766D01*
D02*
G37*
G36*
X309766Y15992D02*
X304258D01*
Y9234D01*
X309766D01*
Y15992D01*
D02*
G37*
G36*
X303242D02*
X297734D01*
Y9234D01*
X303242D01*
Y15992D01*
D02*
G37*
%LPD*%
D11*
X416000Y288500D02*
Y299500D01*
X142006Y286000D02*
X151500D01*
X142000Y286006D02*
X142006Y286000D01*
X151500D02*
X220500Y217000D01*
X227000D01*
D12*
X192000Y367000D02*
Y382000D01*
X190000Y365000D02*
X192000Y367000D01*
X130000Y365000D02*
Y373250D01*
X80000Y365000D02*
Y373250D01*
X130000Y327500D02*
X189500D01*
X201500Y339500D02*
Y340000D01*
X189500Y327500D02*
X201500Y339500D01*
X122500Y327500D02*
X127500Y332500D01*
X137500D01*
X138750Y333750D02*
Y337250D01*
X141500Y340000D01*
X137500Y332500D02*
X138750Y333750D01*
X103750Y339250D02*
X115000Y328000D01*
X103750Y339250D02*
Y340000D01*
X115000Y327500D02*
Y328000D01*
X103750Y340750D02*
X110000Y347000D01*
Y355000D01*
X103750Y340000D02*
Y340750D01*
X91500Y340000D02*
X103750D01*
X78500D02*
X80000Y341500D01*
Y355000D01*
X95000D02*
X95000Y355000D01*
X80000Y355000D02*
X95000D01*
X95000Y365000D02*
X110000D01*
X95000D02*
Y380000D01*
X153750Y340750D02*
X160000Y347000D01*
Y355000D01*
X153750Y340000D02*
Y340750D01*
X141500Y340000D02*
X153750D01*
X128500D02*
X130000Y341500D01*
Y355000D01*
X145000D02*
X145000Y355000D01*
X130000Y355000D02*
X145000D01*
X145000Y365000D02*
X160000D01*
X145000D02*
Y380000D01*
X213750Y340750D02*
X220000Y347000D01*
Y355000D01*
X213750Y340000D02*
Y340750D01*
X201500Y340000D02*
X213750D01*
X188500D02*
X190000Y341500D01*
Y355000D01*
X205000D02*
X205000Y355000D01*
X190000Y355000D02*
X205000D01*
X205000Y365000D02*
X220000D01*
X205000D02*
Y380000D01*
X126000Y33000D02*
Y216000D01*
X103000Y239000D02*
Y250600D01*
Y239000D02*
X126000Y216000D01*
X130000Y35000D02*
Y226000D01*
X118000Y238000D02*
Y249750D01*
Y238000D02*
X130000Y226000D01*
X143597Y15402D02*
X237786D01*
X126000Y33000D02*
X143597Y15402D01*
X237786D02*
X241188Y12000D01*
X242000D01*
X152265Y20000D02*
X242000D01*
X152249Y20016D02*
X152265Y20000D01*
X144984Y20016D02*
X152249D01*
X130000Y35000D02*
X144984Y20016D01*
X103000Y250600D02*
X109650Y257250D01*
X110150D01*
X118000Y249750D02*
X121750Y253500D01*
X125250Y257750D02*
X126000D01*
X121750Y254250D02*
X125250Y257750D01*
X121750Y253500D02*
Y254250D01*
X126000Y257750D02*
Y269000D01*
X242000Y20000D02*
X250000Y12000D01*
X246000Y24000D02*
X258000Y12000D01*
X134000Y37000D02*
X147000Y24000D01*
X246000D01*
X134000Y37000D02*
Y250500D01*
X141500Y258000D01*
X142000D01*
X110500Y281500D02*
X130000Y301000D01*
X247750D01*
X110000Y281500D02*
X110500D01*
X247750Y301000D02*
X256000Y292750D01*
X141000Y297000D02*
X176688D01*
X129250Y285250D02*
X141000Y297000D01*
X110000Y257400D02*
X110150Y257250D01*
X110000Y257400D02*
Y268500D01*
X142000Y258000D02*
Y269000D01*
X126500Y282000D02*
X129250Y284750D01*
X126000Y282000D02*
X126500D01*
X129250Y284750D02*
Y285250D01*
X176688Y297000D02*
X182688Y291000D01*
X183500D01*
X424000Y180000D02*
X434000D01*
X416500Y172500D02*
X424000Y180000D01*
X434000D02*
X436000Y178000D01*
Y171500D02*
Y178000D01*
X413500Y170000D02*
X416000Y172500D01*
X385000Y172000D02*
X387000Y170000D01*
X413500D01*
X416000Y172500D02*
X416500D01*
X385000Y140500D02*
X385750D01*
X388250Y143000D02*
Y143750D01*
X394500Y150000D01*
X414500D01*
X385750Y140500D02*
X388250Y143000D01*
X414500Y150000D02*
X418500Y146000D01*
X414500Y110000D02*
X416000Y111500D01*
X389500Y110000D02*
X414500D01*
X388250Y108750D02*
X389500Y110000D01*
X388250Y108000D02*
Y108750D01*
X385750Y105500D02*
X388250Y108000D01*
X385000Y105500D02*
X385750D01*
X416000Y111500D02*
X416500D01*
X436000Y292500D02*
X436000Y292500D01*
Y286000D02*
Y292500D01*
X433000Y283000D02*
X436000Y286000D01*
X424000Y283000D02*
X433000D01*
X416500Y275500D02*
X424000Y283000D01*
X435000Y312500D02*
X436000Y311500D01*
X435000Y312500D02*
Y317828D01*
X433828Y319000D02*
X435000Y317828D01*
X423000Y319000D02*
X433828D01*
X416500Y312500D02*
X423000Y319000D01*
X390250Y250000D02*
X415000D01*
X416500Y251500D01*
X404375Y275500D02*
X416500D01*
X399375Y280500D02*
X404375Y275500D01*
X385000Y280500D02*
X399375D01*
X385750Y245500D02*
X390250Y250000D01*
X385000Y245500D02*
X385750D01*
X413500Y310000D02*
X416000Y312500D01*
X387000Y310000D02*
X413500D01*
X385000Y312000D02*
X387000Y310000D01*
X410000Y33500D02*
X419670D01*
X74750Y69500D02*
X76250Y71000D01*
X63000Y69500D02*
X74750D01*
X63000Y80500D02*
X67500Y85000D01*
X76250D01*
X89750D02*
X104188D01*
X109188Y90000D01*
X110000D01*
X74172Y96922D02*
X76250Y99000D01*
X63000Y89500D02*
X70422Y96922D01*
X74172D01*
X73250Y60500D02*
X76250Y57500D01*
Y57000D02*
Y57500D01*
X63000Y60500D02*
X73250D01*
X89750Y57000D02*
X97000D01*
X110000Y70000D01*
X89750Y71000D02*
X101000D01*
X110000Y80000D01*
X418500Y146000D02*
X433500D01*
X435000Y147500D01*
Y151500D01*
X436000Y152500D01*
X435672Y114172D02*
X436000Y114500D01*
X432000Y105000D02*
X435672Y108672D01*
X423000Y105000D02*
X432000D01*
X435672Y108672D02*
Y114172D01*
X416500Y111500D02*
X423000Y105000D01*
X436000Y249000D02*
Y254500D01*
X431000Y244000D02*
X436000Y249000D01*
X416500Y251500D02*
X424000Y244000D01*
X431000D01*
X360000Y22000D02*
Y33500D01*
X373000D01*
X373000Y33500D01*
X52700Y147700D02*
X70700D01*
X71000Y148000D01*
X280426Y208574D02*
Y211625D01*
X274000Y196250D02*
X279617Y190633D01*
Y187133D02*
X280000Y186750D01*
X274000Y196250D02*
Y197000D01*
X279617Y187133D02*
Y190633D01*
X273500Y224500D02*
Y225000D01*
X276250Y221750D02*
X276750D01*
X281000Y211000D02*
Y217500D01*
X273500Y224500D02*
X276250Y221750D01*
X276750D02*
X281000Y217500D01*
X280426Y208574D02*
X281000Y208000D01*
X286500Y197000D02*
X286500Y197000D01*
X286500Y197000D02*
Y225000D01*
D24*
X385000Y159500D02*
D03*
Y172000D02*
D03*
Y128000D02*
D03*
Y140500D02*
D03*
Y118000D02*
D03*
Y105500D02*
D03*
Y312000D02*
D03*
Y299500D02*
D03*
Y245500D02*
D03*
Y258000D02*
D03*
Y280500D02*
D03*
Y268000D02*
D03*
D25*
X110150Y257250D02*
D03*
Y244250D02*
D03*
X110000Y281500D02*
D03*
Y268500D02*
D03*
X126000Y282000D02*
D03*
Y269000D02*
D03*
X142000Y282000D02*
D03*
Y269000D02*
D03*
Y245000D02*
D03*
Y258000D02*
D03*
X416000Y159500D02*
D03*
Y172500D02*
D03*
Y135500D02*
D03*
Y148500D02*
D03*
Y124500D02*
D03*
Y111500D02*
D03*
X416000Y312500D02*
D03*
Y299500D02*
D03*
Y251500D02*
D03*
Y264500D02*
D03*
Y275500D02*
D03*
Y288500D02*
D03*
X71000Y148000D02*
D03*
Y161000D02*
D03*
X360000Y33500D02*
D03*
Y46500D02*
D03*
X373000Y33500D02*
D03*
Y46500D02*
D03*
X410000Y33500D02*
D03*
Y46500D02*
D03*
D36*
X78500Y340000D02*
D03*
X91500D02*
D03*
X188500Y340000D02*
D03*
X201500D02*
D03*
X128500D02*
D03*
X141500D02*
D03*
X286500Y225000D02*
D03*
X273500D02*
D03*
X422000Y34000D02*
D03*
X435000D02*
D03*
D40*
X227000Y199000D02*
D03*
Y207000D02*
D03*
X227001Y225001D02*
D03*
Y217001D02*
D03*
X142000Y70000D02*
D03*
Y62000D02*
D03*
X208000Y42000D02*
D03*
Y34000D02*
D03*
X360000Y22000D02*
D03*
Y14000D02*
D03*
X70000Y36250D02*
D03*
Y44250D02*
D03*
D46*
X273000Y211000D02*
D03*
X281000D02*
D03*
D58*
X89000Y297500D02*
D03*
D59*
Y272500D02*
D03*
Y247500D02*
D03*
Y222500D02*
D03*
D60*
X24000Y260000D02*
D03*
D66*
X274000Y379000D02*
X337000Y316000D01*
X242000Y278750D02*
X256000Y292750D01*
X242000Y205000D02*
Y278750D01*
X337000Y86000D02*
Y108000D01*
Y120000D01*
X250000Y176710D02*
X253938Y180647D01*
X200000Y126710D02*
X250000Y176710D01*
X200000Y112000D02*
Y126710D01*
Y106000D02*
Y112000D01*
Y100000D02*
Y106000D01*
X244000Y203000D02*
X253938Y193062D01*
Y180647D02*
Y193062D01*
X337000Y298500D02*
Y316000D01*
Y281000D02*
Y298500D01*
Y262000D02*
Y281000D01*
Y246329D02*
Y262000D01*
Y226000D02*
Y246329D01*
Y214000D02*
Y226000D01*
Y191000D02*
Y214000D01*
Y179000D02*
Y191000D01*
Y156000D02*
Y179000D01*
Y143000D02*
Y156000D01*
Y120000D02*
Y143000D01*
Y73000D02*
Y86000D01*
D67*
X142000Y149000D02*
Y158000D01*
X179000Y112000D02*
X200000D01*
X142000Y149000D02*
X179000Y112000D01*
X337000Y108000D02*
X337500Y108500D01*
X361000D01*
X439000Y142000D02*
X442500Y145500D01*
Y152500D01*
X448000Y155000D02*
X458000Y165000D01*
X448000Y141000D02*
Y155000D01*
X442500Y133500D02*
Y135500D01*
X448000Y141000D01*
X433000Y162000D02*
X445000D01*
X458000Y175000D01*
X430000Y159000D02*
X433000Y162000D01*
X430000Y153000D02*
Y159000D01*
X429500Y152500D02*
X430000Y153000D01*
X402000Y175000D02*
X412000Y185000D01*
X438000D01*
X442500Y180500D01*
Y171500D02*
Y180500D01*
X213000Y106000D02*
X258000Y61000D01*
Y42000D02*
Y61000D01*
X200000Y106000D02*
X213000D01*
X402000Y315000D02*
X413000Y326000D01*
X435000D01*
X442500Y318500D01*
Y311500D02*
Y318500D01*
Y275500D02*
X458000Y291000D01*
Y305000D01*
X442500Y273500D02*
Y275500D01*
X429682Y298682D02*
X433000Y302000D01*
X445000D02*
X458000Y315000D01*
X433000Y302000D02*
X445000D01*
X429500Y292500D02*
X429500Y292500D01*
X429682Y292682D02*
Y298682D01*
X429500Y292500D02*
X429682Y292682D01*
X421750Y301750D02*
X424757Y304757D01*
Y304757D01*
X429500Y309500D01*
Y311500D01*
X418250Y301750D02*
X421750D01*
X416000Y299500D02*
X418250Y301750D01*
X379307Y44443D02*
X410000Y13750D01*
X373000Y46500D02*
X375057Y44443D01*
X379307D01*
X420250Y159500D02*
X423500D01*
X416000D02*
X420250D01*
X416000Y124500D02*
X438500D01*
X423500Y159500D02*
X429000Y165000D01*
Y171000D01*
X429500Y171500D01*
X420250Y264500D02*
X439750D01*
X416000D02*
X420250D01*
X442500Y236500D02*
Y261750D01*
X439750Y264500D02*
X442500Y261750D01*
X50700Y89700D02*
X82000Y121000D01*
Y161000D01*
X47000Y89500D02*
X47200Y89700D01*
X50700D01*
X71000Y161000D02*
X82000D01*
X361000Y73500D02*
X373000Y61500D01*
Y46500D02*
Y61500D01*
X250000Y176710D02*
X258000Y168710D01*
Y158000D02*
Y168710D01*
X240000Y207000D02*
X244000Y203000D01*
X227000Y207000D02*
X240000D01*
X142000Y158000D02*
Y158500D01*
X200000Y100000D02*
X212000D01*
X230000Y82000D01*
X230000D01*
Y77000D02*
Y82000D01*
X166786Y73786D02*
X193000Y100000D01*
X200000D01*
X166786Y56000D02*
Y73786D01*
X142878Y62878D02*
X149100D01*
X142000Y62000D02*
X142878Y62878D01*
X149100D02*
X192222Y106000D01*
X200000D01*
X142000Y62000D02*
X142000Y62000D01*
Y42000D02*
Y62000D01*
X190000Y90000D02*
X200000Y100000D01*
X190000Y56000D02*
Y90000D01*
X337000Y316000D02*
X339500Y318500D01*
X361000D01*
X335000Y296500D02*
X337000Y298500D01*
X313000Y296500D02*
X335000D01*
X337000Y281000D02*
X339500Y283500D01*
X361000D01*
X336500Y261500D02*
X337000Y262000D01*
X313000Y261500D02*
X336500D01*
X337000Y246329D02*
X339170Y248500D01*
X361000D01*
X336500Y226500D02*
X337000Y226000D01*
X313000Y226500D02*
X336500D01*
X337000Y214000D02*
X337500Y213500D01*
X361000D01*
X336500Y191500D02*
X337000Y191000D01*
X313000Y191500D02*
X336500D01*
X337000Y179000D02*
X337500Y178500D01*
X361000D01*
X336500Y156500D02*
X337000Y156000D01*
X313000Y156500D02*
X336500D01*
X337000Y143000D02*
X337500Y143500D01*
X361000D01*
X335500Y121500D02*
X337000Y120000D01*
X313000Y121500D02*
X335500D01*
X336500Y86500D02*
X337000Y86000D01*
X313000Y86500D02*
X336500D01*
X337000Y73000D02*
X337500Y73500D01*
X361000D01*
X442125Y94375D02*
Y114125D01*
X442500Y114500D01*
X441750Y94000D02*
X442125Y94375D01*
X423000Y142000D02*
X439000D01*
X416500Y135500D02*
X423000Y142000D01*
X416000Y135500D02*
X416500D01*
X442000Y115000D02*
Y121000D01*
Y115000D02*
X442500Y114500D01*
X438500Y124500D02*
X442000Y121000D01*
X416000Y124500D02*
Y135500D01*
X436750Y230750D02*
X442500Y236500D01*
X436750Y230000D02*
Y230750D01*
X43800Y164200D02*
Y166800D01*
X48000Y171000D02*
X60500D01*
X40000Y160400D02*
X43800Y164200D01*
Y166800D02*
X48000Y171000D01*
X60500D02*
X70500Y161000D01*
X71000D01*
X258000Y132000D02*
Y145000D01*
X166000D02*
Y158000D01*
X237000Y56000D02*
X237214D01*
X223000D02*
X230000Y63000D01*
X234000Y53000D02*
X237000Y56000D01*
X230000Y63000D02*
X237000Y56000D01*
X230000Y63000D02*
X230000D01*
X230000D02*
Y69000D01*
X223000Y56000D02*
X226000Y53000D01*
X222786Y56000D02*
X223000D01*
X166393Y55607D02*
X166786Y56000D01*
X226000Y42000D02*
Y53000D01*
X166393Y42393D02*
Y55607D01*
X190000Y42000D02*
Y56000D01*
X166000Y42000D02*
X166393Y42393D01*
X234000Y42000D02*
Y53000D01*
X190000Y42000D02*
X190000Y42000D01*
D68*
X52700Y109600D02*
D03*
X40000D02*
D03*
X52700Y122300D02*
D03*
X40000D02*
D03*
X52700Y135000D02*
D03*
X40000D02*
D03*
X52700Y147700D02*
D03*
X40000D02*
D03*
X52700Y160400D02*
D03*
D69*
X40000D02*
D03*
D70*
X192000Y382000D02*
D03*
X130000Y373250D02*
D03*
X80000Y373250D02*
D03*
X150000Y120032D02*
D03*
Y110032D02*
D03*
Y100032D02*
D03*
X110000Y240500D02*
D03*
X126032Y238750D02*
D03*
X200000Y85000D02*
D03*
X207500D02*
D03*
X215000D02*
D03*
X115000Y327500D02*
D03*
X122500D02*
D03*
X130000D02*
D03*
X176500Y350000D02*
D03*
X474999Y299999D02*
D03*
Y239999D02*
D03*
Y179999D02*
D03*
Y119999D02*
D03*
X354999Y359999D02*
D03*
X219999Y329999D02*
D03*
X69999D02*
D03*
Y209999D02*
D03*
X84999Y179999D02*
D03*
X54999Y299999D02*
D03*
X39999Y269999D02*
D03*
X54999Y239999D02*
D03*
X39999Y209999D02*
D03*
X24999Y299999D02*
D03*
X9999Y269999D02*
D03*
X24999Y239999D02*
D03*
X9999Y209999D02*
D03*
X252000Y221000D02*
D03*
X233822Y122056D02*
D03*
X352000Y167000D02*
D03*
X109000Y141000D02*
D03*
X242000Y12000D02*
D03*
X250000D02*
D03*
X258000D02*
D03*
X183500Y291000D02*
D03*
X397000Y295000D02*
D03*
Y235000D02*
D03*
X142500Y135000D02*
D03*
X150000Y130000D02*
D03*
X142500Y125000D02*
D03*
Y115000D02*
D03*
Y105000D02*
D03*
X346750Y124968D02*
D03*
X327250Y142000D02*
D03*
X258000Y77000D02*
D03*
X327250Y106750D02*
D03*
X289035Y83965D02*
D03*
X257964Y84036D02*
D03*
X289000Y97000D02*
D03*
X397000Y155000D02*
D03*
Y135000D02*
D03*
X407000Y125000D02*
D03*
Y145000D02*
D03*
X397000Y115000D02*
D03*
X346750Y158250D02*
D03*
Y193250D02*
D03*
X327250Y176750D02*
D03*
Y71750D02*
D03*
X346750Y88250D02*
D03*
X458000Y175000D02*
D03*
Y165000D02*
D03*
Y155000D02*
D03*
Y145000D02*
D03*
Y135000D02*
D03*
Y125000D02*
D03*
Y115000D02*
D03*
Y105000D02*
D03*
Y95000D02*
D03*
Y85000D02*
D03*
X402000Y175000D02*
D03*
X385000Y128000D02*
D03*
Y159500D02*
D03*
Y118000D02*
D03*
X410000Y46250D02*
D03*
X258000Y70000D02*
D03*
Y95000D02*
D03*
Y110000D02*
D03*
X397000Y275000D02*
D03*
X407000Y245000D02*
D03*
Y225000D02*
D03*
Y285000D02*
D03*
Y265000D02*
D03*
X397000Y255000D02*
D03*
X327250Y281750D02*
D03*
X346750Y298250D02*
D03*
X327250Y246750D02*
D03*
X346750Y263250D02*
D03*
X402000Y315000D02*
D03*
X458000Y305000D02*
D03*
Y315000D02*
D03*
Y275000D02*
D03*
Y265000D02*
D03*
Y255000D02*
D03*
Y245000D02*
D03*
X385000Y268000D02*
D03*
X410000Y13750D02*
D03*
X420250Y159500D02*
D03*
Y124500D02*
D03*
X442500Y288500D02*
D03*
X420250Y264500D02*
D03*
Y288500D02*
D03*
X360000Y33500D02*
D03*
X242000Y189000D02*
D03*
X289000Y105000D02*
D03*
Y113000D02*
D03*
Y124000D02*
D03*
X290000Y135000D02*
D03*
X298000Y132000D02*
D03*
X152750Y231000D02*
D03*
X385000Y258000D02*
D03*
Y299500D02*
D03*
X205000Y200000D02*
D03*
X258036Y211964D02*
D03*
X258000Y227000D02*
D03*
X180000Y193000D02*
D03*
X210000D02*
D03*
X160000D02*
D03*
X165000Y200000D02*
D03*
X170000Y193000D02*
D03*
X175000Y200000D02*
D03*
X185000D02*
D03*
X190000Y193000D02*
D03*
X195000Y200000D02*
D03*
X200000Y193000D02*
D03*
X110000Y90000D02*
D03*
Y80000D02*
D03*
Y70000D02*
D03*
X323750Y16500D02*
D03*
X306250Y39500D02*
D03*
X428250Y94000D02*
D03*
X423250Y230000D02*
D03*
X410000Y33500D02*
D03*
X286500Y197000D02*
D03*
X280000Y186750D02*
D03*
X281000Y208000D02*
D03*
X227000Y217000D02*
D03*
X141000Y306500D02*
D03*
X234000Y189000D02*
D03*
X266000Y188000D02*
D03*
X227000Y207000D02*
D03*
X191000Y231000D02*
D03*
X142000Y158000D02*
D03*
X166000D02*
D03*
X142000Y42000D02*
D03*
X166000D02*
D03*
X190000D02*
D03*
X258000D02*
D03*
Y158000D02*
D03*
X258000Y145000D02*
D03*
X226000Y42000D02*
D03*
X234000D02*
D03*
X142000Y70000D02*
D03*
X208000Y42000D02*
D03*
X360000Y13750D02*
D03*
Y46500D02*
D03*
X63000Y60500D02*
D03*
Y69500D02*
D03*
Y80500D02*
D03*
Y89500D02*
D03*
X47000D02*
D03*
X70000Y44250D02*
D03*
X313000Y331500D02*
D03*
X374000Y283750D02*
D03*
X300000Y331250D02*
D03*
X374000Y318750D02*
D03*
Y248750D02*
D03*
X361000Y318500D02*
D03*
Y248500D02*
D03*
X300000Y261250D02*
D03*
X313000Y261500D02*
D03*
X374000Y213750D02*
D03*
X361000Y283500D02*
D03*
Y213500D02*
D03*
X313000Y296500D02*
D03*
X300000Y226250D02*
D03*
Y296250D02*
D03*
X313000Y226500D02*
D03*
X361000Y73500D02*
D03*
X361000Y178500D02*
D03*
X374000Y143750D02*
D03*
X361000Y143500D02*
D03*
X374000Y108750D02*
D03*
X361000Y108500D02*
D03*
X374000Y178750D02*
D03*
X374000Y73750D02*
D03*
X313000Y156500D02*
D03*
Y191500D02*
D03*
Y86500D02*
D03*
Y121500D02*
D03*
D71*
X95000Y380000D02*
D03*
X205000D02*
D03*
X145000D02*
D03*
X256000Y292750D02*
D03*
X274000Y379000D02*
D03*
X142000Y286006D02*
D03*
D72*
X470000Y370000D02*
D03*
Y30000D02*
D03*
X30000D02*
D03*
Y370000D02*
D03*
D73*
X95000Y365000D02*
D03*
Y355000D02*
D03*
X110000Y365000D02*
D03*
Y355000D02*
D03*
X80000Y355000D02*
D03*
Y365000D02*
D03*
X220000Y365000D02*
D03*
Y355000D02*
D03*
X205000Y365000D02*
D03*
Y355000D02*
D03*
X190000Y355000D02*
D03*
Y365000D02*
D03*
X130000Y355000D02*
D03*
Y365000D02*
D03*
X145000Y365000D02*
D03*
Y355000D02*
D03*
X160000Y365000D02*
D03*
Y355000D02*
D03*
D74*
X116250Y340000D02*
D03*
X103750D02*
D03*
X226250Y340000D02*
D03*
X213750D02*
D03*
X166250D02*
D03*
X153750D02*
D03*
X286500Y197000D02*
D03*
X274000D02*
D03*
D75*
X126000Y257750D02*
D03*
Y243250D02*
D03*
D76*
X89750Y85000D02*
D03*
X76250D02*
D03*
X89750Y57000D02*
D03*
X76250D02*
D03*
X89750Y71000D02*
D03*
X76250D02*
D03*
X441750Y94000D02*
D03*
X428250D02*
D03*
X423250Y230000D02*
D03*
X436750D02*
D03*
X89750Y99000D02*
D03*
X76250D02*
D03*
D77*
X303750Y16500D02*
D03*
X323750D02*
D03*
X326250Y39500D02*
D03*
X306250D02*
D03*
D78*
X442500Y171500D02*
D03*
X436000D02*
D03*
X429500D02*
D03*
Y152500D02*
D03*
X436000D02*
D03*
X442500D02*
D03*
Y133500D02*
D03*
X436000D02*
D03*
X429500D02*
D03*
Y114500D02*
D03*
X436000D02*
D03*
X442500D02*
D03*
Y292500D02*
D03*
X436000D02*
D03*
X429500D02*
D03*
Y311500D02*
D03*
X436000D02*
D03*
X442500D02*
D03*
Y254500D02*
D03*
X436000D02*
D03*
X429500D02*
D03*
Y273500D02*
D03*
X436000D02*
D03*
X442500D02*
D03*
D79*
X250000Y158000D02*
D03*
X258000D02*
D03*
X250000Y42000D02*
D03*
X258000D02*
D03*
X158000Y158000D02*
D03*
X166000D02*
D03*
X150000D02*
D03*
X142000D02*
D03*
X158000Y145000D02*
D03*
X166000D02*
D03*
X150000Y42000D02*
D03*
X142000D02*
D03*
X158000D02*
D03*
X166000D02*
D03*
X250000Y132000D02*
D03*
X258000D02*
D03*
X250000Y145000D02*
D03*
X258000D02*
D03*
X218000Y42000D02*
D03*
X226000D02*
D03*
X190000Y56000D02*
D03*
X198000D02*
D03*
X242000Y42000D02*
D03*
X234000D02*
D03*
X198000D02*
D03*
X190000D02*
D03*
D80*
X222786Y56000D02*
D03*
X213214D02*
D03*
X237214D02*
D03*
X246786D02*
D03*
X166786D02*
D03*
X157214D02*
D03*
D81*
X230000Y77000D02*
D03*
Y69000D02*
D03*
M02*
