G04*
G04 #@! TF.GenerationSoftware,Altium Limited,Altium Designer,24.4.1 (13)*
G04*
G04 Layer_Color=65535*
%FSLAX44Y44*%
%MOMM*%
G71*
G04*
G04 #@! TF.SameCoordinates,EA300020-20D2-4A69-A7C9-2FF48D3C62D3*
G04*
G04*
G04 #@! TF.FilePolarity,Positive*
G04*
G01*
G75*
%ADD10C,0.2500*%
%ADD11C,0.5000*%
%ADD12C,0.2000*%
%ADD13C,0.1500*%
%ADD14C,0.1524*%
%ADD15C,0.0762*%
G36*
X404133Y392421D02*
X405765D01*
Y392312D01*
X406852D01*
Y392203D01*
X407831D01*
Y392094D01*
X408701D01*
Y391986D01*
X409463D01*
Y391877D01*
X410115D01*
Y391768D01*
X410768D01*
Y391659D01*
X411421D01*
Y391550D01*
X411964D01*
Y391442D01*
X412508D01*
Y391333D01*
X413052D01*
Y391224D01*
X413487D01*
Y391115D01*
X413922D01*
Y391007D01*
X414357D01*
Y390898D01*
X414793D01*
Y390789D01*
X415119D01*
Y390680D01*
X415554D01*
Y390572D01*
X415880D01*
Y390463D01*
X416315D01*
Y390354D01*
X416642D01*
Y390245D01*
X416968D01*
Y390137D01*
X417294D01*
Y390028D01*
X417620D01*
Y389919D01*
X417947D01*
Y389810D01*
X418273D01*
Y389701D01*
X418599D01*
Y389593D01*
X418817D01*
Y389484D01*
X419143D01*
Y389375D01*
X419469D01*
Y389266D01*
X419687D01*
Y389158D01*
X420013D01*
Y389049D01*
X420231D01*
Y388940D01*
X420448D01*
Y388831D01*
X420775D01*
Y388722D01*
X420992D01*
Y388614D01*
X421210D01*
Y388505D01*
X421427D01*
Y388396D01*
X421645D01*
Y388288D01*
X421862D01*
Y388179D01*
X422189D01*
Y388070D01*
X422406D01*
Y387961D01*
X422624D01*
Y387852D01*
X422733D01*
Y387744D01*
X422950D01*
Y387635D01*
X423168D01*
Y387526D01*
X423385D01*
Y387417D01*
X423603D01*
Y387309D01*
X423820D01*
Y387200D01*
X423929D01*
Y387091D01*
X424146D01*
Y386982D01*
X424364D01*
Y386874D01*
X424473D01*
Y386765D01*
X424690D01*
Y386656D01*
X424908D01*
Y386547D01*
X425017D01*
Y386438D01*
X425234D01*
Y386330D01*
X425343D01*
Y386221D01*
X425560D01*
Y386112D01*
X425669D01*
Y386003D01*
X425887D01*
Y385895D01*
X425996D01*
Y385786D01*
X426104D01*
Y385677D01*
X426322D01*
Y385568D01*
X426431D01*
Y385460D01*
X426539D01*
Y385351D01*
X426757D01*
Y385242D01*
X426866D01*
Y385133D01*
X426974D01*
Y385024D01*
X427192D01*
Y384916D01*
X427301D01*
Y384807D01*
X427410D01*
Y384698D01*
X427518D01*
Y384589D01*
X427627D01*
Y384481D01*
X427736D01*
Y384372D01*
X427953D01*
Y384263D01*
X428062D01*
Y384154D01*
X428171D01*
Y384045D01*
X428280D01*
Y383937D01*
X428388D01*
Y383828D01*
X428497D01*
Y383719D01*
X428606D01*
Y383610D01*
X428715D01*
Y383502D01*
X428824D01*
Y383393D01*
X428932D01*
Y383284D01*
X429041D01*
Y383175D01*
X429150D01*
Y383067D01*
X429259D01*
Y382849D01*
X429367D01*
Y382740D01*
X429476D01*
Y382631D01*
X429585D01*
Y382523D01*
X429694D01*
Y382414D01*
X429802D01*
Y382305D01*
X429911D01*
Y382088D01*
X430020D01*
Y381979D01*
X430129D01*
Y381761D01*
X430238D01*
Y381653D01*
X430346D01*
Y381544D01*
X430455D01*
Y381326D01*
X430564D01*
Y381218D01*
X430673D01*
Y381000D01*
X430781D01*
Y380782D01*
X430890D01*
Y380674D01*
X430999D01*
Y380456D01*
X431108D01*
Y380239D01*
X431217D01*
Y380021D01*
X431325D01*
Y379804D01*
X431434D01*
Y379586D01*
X431543D01*
Y379369D01*
X431651D01*
Y379042D01*
X431760D01*
Y378716D01*
X431869D01*
Y378390D01*
X431978D01*
Y378063D01*
X432087D01*
Y377519D01*
X432195D01*
Y376976D01*
X432304D01*
Y374256D01*
X432195D01*
Y373604D01*
X432087D01*
Y373169D01*
X431978D01*
Y372734D01*
X431869D01*
Y372407D01*
X431760D01*
Y372081D01*
X431651D01*
Y371864D01*
X431543D01*
Y371646D01*
X431434D01*
Y371320D01*
X431325D01*
Y371102D01*
X431217D01*
Y370885D01*
X431108D01*
Y370667D01*
X430999D01*
Y370558D01*
X430890D01*
Y370341D01*
X430781D01*
Y370123D01*
X430673D01*
Y370014D01*
X430564D01*
Y369797D01*
X430455D01*
Y369688D01*
X430346D01*
Y369471D01*
X430238D01*
Y369362D01*
X430129D01*
Y369253D01*
X430020D01*
Y369035D01*
X429911D01*
Y368927D01*
X429802D01*
Y368818D01*
X429694D01*
Y368601D01*
X429585D01*
Y368492D01*
X429476D01*
Y368383D01*
X429367D01*
Y368274D01*
X429259D01*
Y368165D01*
X429150D01*
Y368057D01*
X429041D01*
Y367948D01*
X428932D01*
Y367839D01*
X428824D01*
Y367621D01*
X428606D01*
Y367513D01*
X428497D01*
Y367295D01*
X428280D01*
Y367187D01*
X428171D01*
Y367078D01*
X428062D01*
Y366969D01*
X427953D01*
Y366860D01*
X427845D01*
Y366751D01*
X427736D01*
Y366643D01*
X427627D01*
Y366534D01*
X427518D01*
Y366425D01*
X427301D01*
Y366316D01*
X427192D01*
Y366208D01*
X427083D01*
Y366099D01*
X426974D01*
Y365990D01*
X426866D01*
Y365881D01*
X426648D01*
Y365773D01*
X426539D01*
Y365664D01*
X426431D01*
Y365555D01*
X426213D01*
Y365446D01*
X426104D01*
Y365337D01*
X425887D01*
Y365229D01*
X425778D01*
Y365120D01*
X425669D01*
Y365011D01*
X425452D01*
Y364902D01*
X425343D01*
Y364794D01*
X425125D01*
Y364685D01*
X424908D01*
Y364576D01*
X424799D01*
Y364467D01*
X424582D01*
Y364358D01*
X424473D01*
Y364250D01*
X424255D01*
Y364141D01*
X424038D01*
Y364032D01*
X423929D01*
Y363923D01*
X423711D01*
Y363815D01*
X423494D01*
Y363706D01*
X423276D01*
Y363597D01*
X423059D01*
Y363488D01*
X422841D01*
Y363380D01*
X422733D01*
Y363271D01*
X422515D01*
Y363162D01*
X422298D01*
Y363053D01*
X422080D01*
Y362944D01*
X421862D01*
Y362836D01*
X421645D01*
Y362727D01*
X421319D01*
Y362618D01*
X421101D01*
Y362509D01*
X420883D01*
Y362401D01*
X420666D01*
Y362292D01*
X420340D01*
Y362183D01*
X420122D01*
Y362074D01*
X419905D01*
Y361966D01*
X419578D01*
Y361857D01*
X419361D01*
Y361748D01*
X419034D01*
Y361639D01*
X418708D01*
Y361530D01*
X418491D01*
Y361422D01*
X418164D01*
Y361313D01*
X417838D01*
Y361204D01*
X417512D01*
Y361095D01*
X417185D01*
Y360987D01*
X416859D01*
Y360878D01*
X416533D01*
Y360769D01*
X416098D01*
Y360660D01*
X415771D01*
Y360552D01*
X415445D01*
Y360443D01*
X415010D01*
Y360334D01*
X414575D01*
Y360225D01*
X414140D01*
Y360117D01*
X413705D01*
Y360008D01*
X413270D01*
Y359899D01*
X412835D01*
Y359790D01*
X412291D01*
Y359681D01*
X411747D01*
Y359573D01*
X411203D01*
Y359464D01*
X410550D01*
Y359355D01*
X409898D01*
Y359246D01*
X409137D01*
Y359138D01*
X408375D01*
Y359029D01*
X407396D01*
Y358920D01*
X406417D01*
Y358811D01*
X405112D01*
Y358703D01*
X403046D01*
Y358594D01*
X399021D01*
Y358703D01*
X396846D01*
Y358811D01*
X395541D01*
Y358920D01*
X394562D01*
Y359029D01*
X393583D01*
Y359138D01*
X392821D01*
Y359246D01*
X392169D01*
Y359355D01*
X391407D01*
Y359464D01*
X390863D01*
Y359573D01*
X390211D01*
Y359681D01*
X389667D01*
Y359790D01*
X389123D01*
Y359899D01*
X388688D01*
Y360008D01*
X388253D01*
Y360117D01*
X387818D01*
Y360225D01*
X387383D01*
Y360334D01*
X386948D01*
Y360443D01*
X386622D01*
Y360552D01*
X386186D01*
Y360660D01*
X385860D01*
Y360769D01*
X385425D01*
Y360878D01*
X385099D01*
Y360987D01*
X384772D01*
Y361095D01*
X384446D01*
Y361204D01*
X384120D01*
Y361313D01*
X383793D01*
Y361422D01*
X383467D01*
Y361530D01*
X383250D01*
Y361639D01*
X382923D01*
Y361748D01*
X382706D01*
Y361857D01*
X382380D01*
Y361966D01*
X382162D01*
Y362074D01*
X381836D01*
Y362183D01*
X381618D01*
Y362292D01*
X381292D01*
Y362401D01*
X381074D01*
Y362509D01*
X380857D01*
Y362618D01*
X380639D01*
Y362727D01*
X380422D01*
Y362836D01*
X380204D01*
Y362944D01*
X379987D01*
Y363053D01*
X379769D01*
Y363162D01*
X379443D01*
Y363271D01*
X379225D01*
Y363380D01*
X379117D01*
Y363488D01*
X378899D01*
Y363597D01*
X378681D01*
Y363706D01*
X378464D01*
Y363815D01*
X378246D01*
Y363923D01*
X378029D01*
Y364032D01*
X377920D01*
Y364141D01*
X377702D01*
Y364250D01*
X377485D01*
Y364358D01*
X377376D01*
Y364467D01*
X377159D01*
Y364576D01*
X377050D01*
Y364685D01*
X376832D01*
Y364794D01*
X376724D01*
Y364902D01*
X376506D01*
Y365011D01*
X376397D01*
Y365120D01*
X376180D01*
Y365229D01*
X376071D01*
Y365337D01*
X375854D01*
Y365446D01*
X375745D01*
Y365555D01*
X375636D01*
Y365664D01*
X375418D01*
Y365773D01*
X375310D01*
Y365881D01*
X375201D01*
Y365990D01*
X374983D01*
Y366099D01*
X374874D01*
Y366208D01*
X374766D01*
Y366316D01*
X374657D01*
Y366425D01*
X374440D01*
Y366534D01*
X374331D01*
Y366643D01*
X374222D01*
Y366751D01*
X374113D01*
Y366860D01*
X374004D01*
Y366969D01*
X373896D01*
Y367078D01*
X373787D01*
Y367187D01*
X373678D01*
Y367295D01*
X373569D01*
Y367404D01*
X373461D01*
Y367513D01*
X373352D01*
Y367621D01*
X373243D01*
Y367730D01*
X373134D01*
Y367839D01*
X373026D01*
Y367948D01*
X372917D01*
Y368057D01*
X372808D01*
Y368165D01*
X372699D01*
Y368274D01*
X372590D01*
Y368383D01*
X372482D01*
Y368492D01*
X372373D01*
Y368709D01*
X372264D01*
Y368818D01*
X372155D01*
Y368927D01*
X372047D01*
Y369035D01*
X371938D01*
Y369253D01*
X371829D01*
Y369362D01*
X371720D01*
Y369471D01*
X371612D01*
Y369688D01*
X371503D01*
Y369797D01*
X371394D01*
Y370014D01*
X371285D01*
Y370123D01*
X371176D01*
Y370341D01*
X371068D01*
Y370558D01*
X370959D01*
Y370776D01*
X370850D01*
Y370885D01*
X370741D01*
Y371102D01*
X370633D01*
Y371428D01*
X370524D01*
Y371646D01*
X370415D01*
Y371864D01*
X370306D01*
Y372190D01*
X370197D01*
Y372407D01*
X370089D01*
Y372842D01*
X369980D01*
Y373169D01*
X369871D01*
Y373604D01*
X369762D01*
Y374256D01*
X369654D01*
Y376867D01*
X369762D01*
Y377519D01*
X369871D01*
Y377954D01*
X369980D01*
Y378390D01*
X370089D01*
Y378716D01*
X370197D01*
Y379042D01*
X370306D01*
Y379260D01*
X370415D01*
Y379586D01*
X370524D01*
Y379804D01*
X370633D01*
Y380021D01*
X370741D01*
Y380239D01*
X370850D01*
Y380456D01*
X370959D01*
Y380674D01*
X371068D01*
Y380782D01*
X371176D01*
Y381000D01*
X371285D01*
Y381218D01*
X371394D01*
Y381326D01*
X371503D01*
Y381435D01*
X371612D01*
Y381653D01*
X371720D01*
Y381761D01*
X371829D01*
Y381979D01*
X371938D01*
Y382088D01*
X372047D01*
Y382196D01*
X372155D01*
Y382414D01*
X372264D01*
Y382523D01*
X372373D01*
Y382631D01*
X372482D01*
Y382740D01*
X372590D01*
Y382849D01*
X372699D01*
Y383067D01*
X372808D01*
Y383175D01*
X372917D01*
Y383284D01*
X373026D01*
Y383393D01*
X373134D01*
Y383502D01*
X373243D01*
Y383610D01*
X373352D01*
Y383719D01*
X373461D01*
Y383828D01*
X373569D01*
Y383937D01*
X373678D01*
Y384045D01*
X373787D01*
Y384154D01*
X373896D01*
Y384263D01*
X374113D01*
Y384372D01*
X374222D01*
Y384481D01*
X374331D01*
Y384589D01*
X374440D01*
Y384698D01*
X374548D01*
Y384807D01*
X374657D01*
Y384916D01*
X374874D01*
Y385024D01*
X374983D01*
Y385133D01*
X375092D01*
Y385242D01*
X375201D01*
Y385351D01*
X375418D01*
Y385460D01*
X375527D01*
Y385568D01*
X375636D01*
Y385677D01*
X375854D01*
Y385786D01*
X375962D01*
Y385895D01*
X376180D01*
Y386003D01*
X376289D01*
Y386112D01*
X376397D01*
Y386221D01*
X376615D01*
Y386330D01*
X376724D01*
Y386438D01*
X376941D01*
Y386547D01*
X377159D01*
Y386656D01*
X377267D01*
Y386765D01*
X377485D01*
Y386874D01*
X377594D01*
Y386982D01*
X377811D01*
Y387091D01*
X378029D01*
Y387200D01*
X378246D01*
Y387309D01*
X378355D01*
Y387417D01*
X378573D01*
Y387526D01*
X378790D01*
Y387635D01*
X379008D01*
Y387744D01*
X379225D01*
Y387852D01*
X379443D01*
Y387961D01*
X379660D01*
Y388070D01*
X379878D01*
Y388179D01*
X380095D01*
Y388288D01*
X380313D01*
Y388396D01*
X380531D01*
Y388505D01*
X380748D01*
Y388614D01*
X380966D01*
Y388722D01*
X381183D01*
Y388831D01*
X381509D01*
Y388940D01*
X381727D01*
Y389049D01*
X381945D01*
Y389158D01*
X382271D01*
Y389266D01*
X382488D01*
Y389375D01*
X382815D01*
Y389484D01*
X383141D01*
Y389593D01*
X383358D01*
Y389701D01*
X383685D01*
Y389810D01*
X384011D01*
Y389919D01*
X384337D01*
Y390028D01*
X384664D01*
Y390137D01*
X384990D01*
Y390245D01*
X385316D01*
Y390354D01*
X385643D01*
Y390463D01*
X386078D01*
Y390572D01*
X386404D01*
Y390680D01*
X386839D01*
Y390789D01*
X387165D01*
Y390898D01*
X387600D01*
Y391007D01*
X388036D01*
Y391115D01*
X388470D01*
Y391224D01*
X389014D01*
Y391333D01*
X389450D01*
Y391442D01*
X389993D01*
Y391550D01*
X390537D01*
Y391659D01*
X391190D01*
Y391768D01*
X391842D01*
Y391877D01*
X392495D01*
Y391986D01*
X393256D01*
Y392094D01*
X394127D01*
Y392203D01*
X395105D01*
Y392312D01*
X396302D01*
Y392421D01*
X397825D01*
Y392529D01*
X404133D01*
Y392421D01*
D02*
G37*
G36*
X409245Y353155D02*
X409354D01*
Y353047D01*
X409463D01*
Y352829D01*
X409572D01*
Y352612D01*
X409680D01*
Y352394D01*
X409789D01*
Y352176D01*
X409898D01*
Y352068D01*
X410007D01*
Y351850D01*
X410115D01*
Y351633D01*
X410224D01*
Y351415D01*
X410333D01*
Y351198D01*
X410442D01*
Y350980D01*
X410550D01*
Y350762D01*
X410659D01*
Y350654D01*
X410768D01*
Y350436D01*
X410877D01*
Y350219D01*
X410986D01*
Y350001D01*
X411094D01*
Y349784D01*
X411203D01*
Y349566D01*
X411312D01*
Y349457D01*
X411421D01*
Y349240D01*
X411529D01*
Y349022D01*
X411638D01*
Y348805D01*
X411747D01*
Y348587D01*
X411856D01*
Y348370D01*
X411964D01*
Y348152D01*
X412073D01*
Y348043D01*
X412182D01*
Y347826D01*
X412291D01*
Y347608D01*
X412400D01*
Y347391D01*
X412508D01*
Y347173D01*
X412617D01*
Y346956D01*
X412726D01*
Y346738D01*
X412835D01*
Y346629D01*
X412943D01*
Y346412D01*
X413052D01*
Y346194D01*
X413161D01*
Y345977D01*
X413270D01*
Y345759D01*
X413378D01*
Y345542D01*
X413487D01*
Y345433D01*
X413596D01*
Y345215D01*
X413705D01*
Y344998D01*
X413814D01*
Y344780D01*
X413922D01*
Y344563D01*
X414031D01*
Y344345D01*
X414140D01*
Y344236D01*
X414249D01*
Y344019D01*
X414357D01*
Y343801D01*
X414466D01*
Y343584D01*
X414575D01*
Y343366D01*
X414684D01*
Y343149D01*
X414793D01*
Y342931D01*
X414901D01*
Y342822D01*
X415010D01*
Y342605D01*
X415119D01*
Y342387D01*
X415228D01*
Y342170D01*
X415336D01*
Y342061D01*
X411856D01*
Y342170D01*
X411747D01*
Y342387D01*
X411638D01*
Y342605D01*
X411529D01*
Y342714D01*
X411421D01*
Y342931D01*
X411312D01*
Y343149D01*
X411203D01*
Y343366D01*
X411094D01*
Y343584D01*
X410986D01*
Y343693D01*
X410877D01*
Y343910D01*
X404242D01*
Y343693D01*
X404133D01*
Y343475D01*
X404024D01*
Y343257D01*
X403916D01*
Y343040D01*
X403807D01*
Y342931D01*
X403698D01*
Y342714D01*
X403589D01*
Y342496D01*
X403481D01*
Y342279D01*
X403372D01*
Y342061D01*
X400000D01*
Y342279D01*
X400109D01*
Y342496D01*
X400218D01*
Y342714D01*
X400326D01*
Y342931D01*
X400435D01*
Y343040D01*
X400544D01*
Y343257D01*
X400653D01*
Y343475D01*
X400761D01*
Y343693D01*
X400870D01*
Y343910D01*
X400979D01*
Y344128D01*
X401088D01*
Y344236D01*
X401196D01*
Y344454D01*
X401305D01*
Y344671D01*
X401414D01*
Y344889D01*
X401523D01*
Y345107D01*
X401632D01*
Y345324D01*
X401740D01*
Y345542D01*
X401849D01*
Y345650D01*
X401958D01*
Y345868D01*
X402067D01*
Y346085D01*
X402175D01*
Y346303D01*
X402284D01*
Y346521D01*
X402393D01*
Y346738D01*
X402502D01*
Y346847D01*
X402610D01*
Y347064D01*
X402719D01*
Y347282D01*
X402828D01*
Y347499D01*
X402937D01*
Y347717D01*
X403046D01*
Y347934D01*
X403154D01*
Y348152D01*
X403263D01*
Y348370D01*
X403372D01*
Y348478D01*
X403481D01*
Y348696D01*
X403589D01*
Y348913D01*
X403698D01*
Y349131D01*
X403807D01*
Y349348D01*
X403916D01*
Y349566D01*
X404024D01*
Y349675D01*
X404133D01*
Y349892D01*
X404242D01*
Y350110D01*
X404351D01*
Y350327D01*
X404459D01*
Y350545D01*
X404568D01*
Y350762D01*
X404677D01*
Y350980D01*
X404786D01*
Y351089D01*
X404895D01*
Y351306D01*
X405003D01*
Y351524D01*
X405112D01*
Y351741D01*
X405221D01*
Y351959D01*
X405330D01*
Y352176D01*
X405438D01*
Y352285D01*
X405547D01*
Y352503D01*
X405656D01*
Y352720D01*
X405765D01*
Y352938D01*
X405873D01*
Y353155D01*
X405982D01*
Y353264D01*
X406091D01*
Y353155D01*
X407287D01*
Y353264D01*
X408919D01*
Y353155D01*
X409137D01*
Y353264D01*
X409245D01*
Y353155D01*
D02*
G37*
G36*
X375310Y345433D02*
X375418D01*
Y345215D01*
X375527D01*
Y344998D01*
X375636D01*
Y344889D01*
X375854D01*
Y344780D01*
X376071D01*
Y344671D01*
X381945D01*
Y344780D01*
X382162D01*
Y344889D01*
X382271D01*
Y344998D01*
X382380D01*
Y345107D01*
X382488D01*
Y345324D01*
X382597D01*
Y353155D01*
X385534D01*
Y344128D01*
X385425D01*
Y343693D01*
X385316D01*
Y343475D01*
X385207D01*
Y343257D01*
X385099D01*
Y343149D01*
X384990D01*
Y343040D01*
X384881D01*
Y342931D01*
X384772D01*
Y342822D01*
X384664D01*
Y342714D01*
X384555D01*
Y342605D01*
X384446D01*
Y342496D01*
X384229D01*
Y342387D01*
X384011D01*
Y342279D01*
X383685D01*
Y342170D01*
X383250D01*
Y342061D01*
X374657D01*
Y342170D01*
X374222D01*
Y342279D01*
X373896D01*
Y342387D01*
X373678D01*
Y342496D01*
X373461D01*
Y342605D01*
X373352D01*
Y342714D01*
X373243D01*
Y342822D01*
X373026D01*
Y343040D01*
X372917D01*
Y343149D01*
X372808D01*
Y343257D01*
X372699D01*
Y343475D01*
X372590D01*
Y343693D01*
X372482D01*
Y344128D01*
X372373D01*
Y348043D01*
Y348152D01*
Y353155D01*
X372482D01*
Y353264D01*
X372590D01*
Y353155D01*
X375201D01*
Y353264D01*
X375310D01*
Y345433D01*
D02*
G37*
G36*
X369110Y353047D02*
X369436D01*
Y352938D01*
X369762D01*
Y352829D01*
X369980D01*
Y352720D01*
X370089D01*
Y352612D01*
X370306D01*
Y352503D01*
X370415D01*
Y352394D01*
X370524D01*
Y352285D01*
X370633D01*
Y352068D01*
X370741D01*
Y351850D01*
X370850D01*
Y351524D01*
X370959D01*
Y349892D01*
X367913D01*
Y350110D01*
X367805D01*
Y350436D01*
X367696D01*
Y350545D01*
X367587D01*
Y350654D01*
X367478D01*
Y350762D01*
X367043D01*
Y350871D01*
X361170D01*
Y350762D01*
X360843D01*
Y350654D01*
X360735D01*
Y350545D01*
X360626D01*
Y350327D01*
X360517D01*
Y349348D01*
X360626D01*
Y349240D01*
X360735D01*
Y349131D01*
X360843D01*
Y349022D01*
X361170D01*
Y348913D01*
X363563D01*
Y348805D01*
X365956D01*
Y348696D01*
X368240D01*
Y348587D01*
X368783D01*
Y348478D01*
X369110D01*
Y348370D01*
X369327D01*
Y348261D01*
X369545D01*
Y348152D01*
X369762D01*
Y348043D01*
X369871D01*
Y347934D01*
X370089D01*
Y347826D01*
X370197D01*
Y347717D01*
X370306D01*
Y347499D01*
X370415D01*
Y347391D01*
X370524D01*
Y347173D01*
X370633D01*
Y347064D01*
X370741D01*
Y346738D01*
X370850D01*
Y346412D01*
X370959D01*
Y345759D01*
X371068D01*
Y344780D01*
X370959D01*
Y344128D01*
X370850D01*
Y343693D01*
X370741D01*
Y343475D01*
X370633D01*
Y343257D01*
X370524D01*
Y343040D01*
X370415D01*
Y342931D01*
X370306D01*
Y342822D01*
X370197D01*
Y342714D01*
X370089D01*
Y342605D01*
X369980D01*
Y342496D01*
X369762D01*
Y342387D01*
X369545D01*
Y342279D01*
X369327D01*
Y342170D01*
X368892D01*
Y342061D01*
X359756D01*
Y342170D01*
X359430D01*
Y342279D01*
X359103D01*
Y342387D01*
X358886D01*
Y342496D01*
X358668D01*
Y342605D01*
X358559D01*
Y342714D01*
X358451D01*
Y342822D01*
X358342D01*
Y342931D01*
X358233D01*
Y343040D01*
X358124D01*
Y343149D01*
X358016D01*
Y343366D01*
X357907D01*
Y343584D01*
X357798D01*
Y343910D01*
X357689D01*
Y345324D01*
X357580D01*
Y345433D01*
X357689D01*
Y345542D01*
X360735D01*
Y345107D01*
X360843D01*
Y344780D01*
X360952D01*
Y344671D01*
X361061D01*
Y344563D01*
X361170D01*
Y344454D01*
X361387D01*
Y344345D01*
X367587D01*
Y344454D01*
X367805D01*
Y344563D01*
X367913D01*
Y344671D01*
X368022D01*
Y344889D01*
X368131D01*
Y345977D01*
X368022D01*
Y346085D01*
X367913D01*
Y346194D01*
X367805D01*
Y346303D01*
X367587D01*
Y346412D01*
X364324D01*
Y346521D01*
X360408D01*
Y346629D01*
X359756D01*
Y346738D01*
X359430D01*
Y346847D01*
X359103D01*
Y346956D01*
X358886D01*
Y347064D01*
X358777D01*
Y347173D01*
X358559D01*
Y347282D01*
X358451D01*
Y347391D01*
X358342D01*
Y347608D01*
X358233D01*
Y347717D01*
X358124D01*
Y347826D01*
X358016D01*
Y348043D01*
X357907D01*
Y348261D01*
X357798D01*
Y348696D01*
X357689D01*
Y350654D01*
X357798D01*
Y351089D01*
X357907D01*
Y351415D01*
X358016D01*
Y351633D01*
X358124D01*
Y351850D01*
X358233D01*
Y351959D01*
X358342D01*
Y352176D01*
X358451D01*
Y352285D01*
X358559D01*
Y352394D01*
X358668D01*
Y352503D01*
X358777D01*
Y352612D01*
X358994D01*
Y352720D01*
X359212D01*
Y352829D01*
X359321D01*
Y352938D01*
X359647D01*
Y353047D01*
X359973D01*
Y353155D01*
X369110D01*
Y353047D01*
D02*
G37*
G36*
X440788Y353155D02*
X443507D01*
Y344128D01*
X443399D01*
Y343693D01*
X443290D01*
Y343475D01*
X443181D01*
Y343257D01*
X443072D01*
Y343149D01*
X442963D01*
Y342931D01*
X442855D01*
Y342822D01*
X442637D01*
Y342714D01*
X442528D01*
Y342605D01*
X442420D01*
Y342496D01*
X442202D01*
Y342387D01*
X441984D01*
Y342279D01*
X441658D01*
Y342170D01*
X441223D01*
Y342061D01*
X432630D01*
Y342170D01*
X432195D01*
Y342279D01*
X431869D01*
Y342387D01*
X431651D01*
Y342496D01*
X431434D01*
Y342605D01*
X431325D01*
Y342714D01*
X431217D01*
Y342822D01*
X431108D01*
Y342931D01*
X430999D01*
Y343040D01*
X430890D01*
Y343149D01*
X430781D01*
Y343257D01*
X430673D01*
Y343475D01*
X430564D01*
Y343801D01*
X430455D01*
Y344345D01*
X430346D01*
Y350327D01*
Y350436D01*
Y353155D01*
X430455D01*
Y353264D01*
X430564D01*
Y353155D01*
X433283D01*
Y345542D01*
X433392D01*
Y345215D01*
X433501D01*
Y345107D01*
X433609D01*
Y344889D01*
X433827D01*
Y344780D01*
X434044D01*
Y344671D01*
X439918D01*
Y344780D01*
X440135D01*
Y344889D01*
X440244D01*
Y344998D01*
X440353D01*
Y345107D01*
X440462D01*
Y345324D01*
X440570D01*
Y353155D01*
X440679D01*
Y353264D01*
X440788D01*
Y353155D01*
D02*
G37*
G36*
X445247Y343584D02*
X445465D01*
Y343475D01*
X445683D01*
Y343257D01*
X445791D01*
Y342496D01*
X445683D01*
Y342279D01*
X445574D01*
Y342170D01*
X445356D01*
Y342061D01*
X444704D01*
Y342170D01*
X444486D01*
Y342279D01*
X444377D01*
Y342496D01*
X444269D01*
Y342931D01*
Y343040D01*
Y343257D01*
X444377D01*
Y343366D01*
X444486D01*
Y343475D01*
X444595D01*
Y343584D01*
X444812D01*
Y343693D01*
X445247D01*
Y343584D01*
D02*
G37*
G36*
X427192Y353047D02*
X427518D01*
Y352938D01*
X427736D01*
Y352829D01*
X427845D01*
Y352720D01*
X428062D01*
Y352612D01*
X428171D01*
Y352503D01*
X428280D01*
Y352285D01*
X428388D01*
Y352176D01*
X428497D01*
Y351959D01*
X428606D01*
Y351741D01*
X428715D01*
Y351524D01*
X428824D01*
Y351089D01*
X428932D01*
Y350327D01*
X429041D01*
Y349348D01*
X428932D01*
Y348696D01*
X428824D01*
Y348370D01*
X428715D01*
Y348152D01*
X428606D01*
Y347934D01*
X428497D01*
Y347826D01*
X428388D01*
Y347717D01*
X428280D01*
Y347608D01*
X428171D01*
Y347499D01*
X428062D01*
Y347391D01*
X427953D01*
Y347282D01*
X428062D01*
Y347173D01*
X428171D01*
Y347064D01*
X428280D01*
Y346956D01*
X428388D01*
Y346738D01*
X428497D01*
Y346629D01*
X428606D01*
Y346412D01*
X428715D01*
Y346194D01*
X428824D01*
Y345868D01*
X428932D01*
Y345433D01*
X429041D01*
Y344671D01*
X429150D01*
Y342061D01*
X426213D01*
Y345107D01*
X426104D01*
Y345433D01*
X425996D01*
Y345650D01*
X425887D01*
Y345759D01*
X425778D01*
Y345868D01*
X425452D01*
Y345977D01*
X419034D01*
Y342061D01*
X416098D01*
Y353155D01*
X427192D01*
Y353047D01*
D02*
G37*
G36*
X398260D02*
X398586D01*
Y352938D01*
X398803D01*
Y352829D01*
X399021D01*
Y352720D01*
X399130D01*
Y352612D01*
X399239D01*
Y352503D01*
X399347D01*
Y352394D01*
X399456D01*
Y352285D01*
X399565D01*
Y352176D01*
Y352068D01*
X399674D01*
Y351850D01*
X399782D01*
Y351633D01*
X399891D01*
Y351306D01*
X400000D01*
Y349457D01*
X399891D01*
Y349131D01*
X399782D01*
Y348913D01*
X399674D01*
Y348696D01*
X399565D01*
Y348478D01*
X399456D01*
Y348370D01*
X399347D01*
Y348261D01*
X399239D01*
Y348152D01*
X399021D01*
Y348043D01*
X398912D01*
Y347934D01*
X399130D01*
Y347826D01*
X399239D01*
Y347717D01*
X399347D01*
Y347608D01*
X399456D01*
Y347499D01*
X399565D01*
Y347391D01*
X399674D01*
Y347173D01*
X399782D01*
Y346956D01*
X399891D01*
Y346629D01*
X400000D01*
Y346085D01*
X400109D01*
Y344454D01*
X400000D01*
Y344019D01*
X399891D01*
Y343693D01*
X399782D01*
Y343475D01*
X399674D01*
Y343257D01*
X399565D01*
Y343040D01*
X399456D01*
Y342931D01*
X399347D01*
Y342822D01*
X399239D01*
Y342714D01*
X399130D01*
Y342605D01*
X399021D01*
Y342496D01*
X398912D01*
Y342387D01*
X398803D01*
Y342279D01*
X398586D01*
Y342170D01*
X398260D01*
Y342061D01*
X387165D01*
Y353155D01*
X398260D01*
Y353047D01*
D02*
G37*
G36*
X279400Y205094D02*
X276860D01*
Y208904D01*
X279400D01*
Y205094D01*
D02*
G37*
G36*
X78214Y192674D02*
X78302D01*
Y192586D01*
X78477D01*
Y192499D01*
X78565D01*
Y192411D01*
X78740D01*
Y192323D01*
X78828D01*
Y192236D01*
X78915D01*
Y192148D01*
X79003D01*
Y192060D01*
X79091D01*
Y191973D01*
X79178D01*
Y191885D01*
X79266D01*
Y191797D01*
X79354D01*
Y191622D01*
X79441D01*
Y191534D01*
X79529D01*
Y191359D01*
X79617D01*
Y191271D01*
X79704D01*
Y191096D01*
X79792D01*
Y190745D01*
X79880D01*
Y190395D01*
X79967D01*
Y190307D01*
X80143D01*
Y190219D01*
X80318D01*
Y190132D01*
X80406D01*
Y190044D01*
X80493D01*
Y189956D01*
X80581D01*
Y189869D01*
X80756D01*
Y189781D01*
X80844D01*
Y189693D01*
X80932D01*
Y189606D01*
X81019D01*
Y189518D01*
X81107D01*
Y189343D01*
X81195D01*
Y189255D01*
X81282D01*
Y189080D01*
X81370D01*
Y188729D01*
X81458D01*
Y187765D01*
X81370D01*
Y187239D01*
X81282D01*
Y186976D01*
X81458D01*
Y186888D01*
X81721D01*
Y186800D01*
X81808D01*
Y186713D01*
X81984D01*
Y186625D01*
X82071D01*
Y186450D01*
X82159D01*
Y186362D01*
X82247D01*
Y186187D01*
X82334D01*
Y185924D01*
X82422D01*
Y185485D01*
X82247D01*
Y185573D01*
X82159D01*
Y185748D01*
X82071D01*
Y185924D01*
X81984D01*
Y186011D01*
X81896D01*
Y186187D01*
X81808D01*
Y186274D01*
X81721D01*
Y186362D01*
X81633D01*
Y186450D01*
X81545D01*
Y186537D01*
X81458D01*
Y186625D01*
X81370D01*
Y186713D01*
X81282D01*
Y186800D01*
X81107D01*
Y186713D01*
X81019D01*
Y186625D01*
X80932D01*
Y186537D01*
X80844D01*
Y186362D01*
X80756D01*
Y186274D01*
X80669D01*
Y186187D01*
X80581D01*
Y186099D01*
X80493D01*
Y185924D01*
X80406D01*
Y185836D01*
X80318D01*
Y185748D01*
X80230D01*
Y185573D01*
X80143D01*
Y185485D01*
X80055D01*
Y185310D01*
X79967D01*
Y185222D01*
X79880D01*
Y185047D01*
X79792D01*
Y184872D01*
X79704D01*
Y184696D01*
X79617D01*
Y184433D01*
X79529D01*
Y184258D01*
X79441D01*
Y183995D01*
X79354D01*
Y183644D01*
X79266D01*
Y183294D01*
X79178D01*
Y182943D01*
X79091D01*
Y182592D01*
X79003D01*
Y182154D01*
X78915D01*
Y181628D01*
X78828D01*
Y181102D01*
X78740D01*
Y180488D01*
X78652D01*
Y179612D01*
X78565D01*
Y178034D01*
X78477D01*
Y172423D01*
X78565D01*
Y171634D01*
X78652D01*
Y171021D01*
X78740D01*
Y170494D01*
X78828D01*
Y170056D01*
X78915D01*
Y169706D01*
X79003D01*
Y169443D01*
X79091D01*
Y169179D01*
X79178D01*
Y168916D01*
X79266D01*
Y168741D01*
X79354D01*
Y168566D01*
X79441D01*
Y168391D01*
X79529D01*
Y168215D01*
X79617D01*
Y168127D01*
X79704D01*
Y167952D01*
X79792D01*
Y167864D01*
X79880D01*
Y167777D01*
X79967D01*
Y167689D01*
X80055D01*
Y167514D01*
X80143D01*
Y167426D01*
X80230D01*
Y167339D01*
X80318D01*
Y167251D01*
X80406D01*
Y167163D01*
X80493D01*
Y167076D01*
X80669D01*
Y166988D01*
X80756D01*
Y166900D01*
X80844D01*
Y166812D01*
X80932D01*
Y166725D01*
X81107D01*
Y166637D01*
X81195D01*
Y166549D01*
X81370D01*
Y166462D01*
X81458D01*
Y166374D01*
X81633D01*
Y166287D01*
X81721D01*
Y166199D01*
X81896D01*
Y166111D01*
X82071D01*
Y166024D01*
X82247D01*
Y165936D01*
X82334D01*
Y165848D01*
X82510D01*
Y165760D01*
X82685D01*
Y165673D01*
X82860D01*
Y165585D01*
X83036D01*
Y165497D01*
X83211D01*
Y165410D01*
X83299D01*
Y165322D01*
X83474D01*
Y165235D01*
X83649D01*
Y165147D01*
X83825D01*
Y165059D01*
X84000D01*
Y164972D01*
X84175D01*
Y164884D01*
X84351D01*
Y164796D01*
X84526D01*
Y164708D01*
X84614D01*
Y164621D01*
X84789D01*
Y164533D01*
X84964D01*
Y164445D01*
X85140D01*
Y164358D01*
X85315D01*
Y164270D01*
X85490D01*
Y164182D01*
X85666D01*
Y164095D01*
X85753D01*
Y164007D01*
X85929D01*
Y163920D01*
X86104D01*
Y163832D01*
X86279D01*
Y163744D01*
X86367D01*
Y163657D01*
X86542D01*
Y163569D01*
X86630D01*
Y163481D01*
X86718D01*
Y163393D01*
X86893D01*
Y163306D01*
X86981D01*
Y163218D01*
X87068D01*
Y163130D01*
X87156D01*
Y163043D01*
X87244D01*
Y162955D01*
X87331D01*
Y162868D01*
X87419D01*
Y162780D01*
X87507D01*
Y162692D01*
X87594D01*
Y162605D01*
X87682D01*
Y162517D01*
X87770D01*
Y162429D01*
X87857D01*
Y162341D01*
X87945D01*
Y162254D01*
X88033D01*
Y162078D01*
X88120D01*
Y161991D01*
X88208D01*
Y161903D01*
X88296D01*
Y161816D01*
X88383D01*
Y161728D01*
X88471D01*
Y161640D01*
X88559D01*
Y161465D01*
X88646D01*
Y161377D01*
X88734D01*
Y161290D01*
X88822D01*
Y161114D01*
X88909D01*
Y161027D01*
X88997D01*
Y160939D01*
X89085D01*
Y160764D01*
X89172D01*
Y160676D01*
X89260D01*
Y160588D01*
X89348D01*
Y160413D01*
X89435D01*
Y160325D01*
X89523D01*
Y160238D01*
X89611D01*
Y160150D01*
X89698D01*
Y159975D01*
X89786D01*
Y159887D01*
X89874D01*
Y159799D01*
X89961D01*
Y159712D01*
X90049D01*
Y159624D01*
X90137D01*
Y159536D01*
X90224D01*
Y159449D01*
X90312D01*
Y159273D01*
X90400D01*
Y159186D01*
X90487D01*
Y159098D01*
X90575D01*
Y159010D01*
X90663D01*
Y158923D01*
X90750D01*
Y158835D01*
X90838D01*
Y158747D01*
X90926D01*
Y158660D01*
X91013D01*
Y158572D01*
X91101D01*
Y158484D01*
X91189D01*
Y158397D01*
X91276D01*
Y158309D01*
X91364D01*
Y158221D01*
X91452D01*
Y158134D01*
X91539D01*
Y158046D01*
X91627D01*
Y157958D01*
X91715D01*
Y157871D01*
X91802D01*
Y157783D01*
X91890D01*
Y157695D01*
X91978D01*
Y157608D01*
X92065D01*
Y157520D01*
X92153D01*
Y157432D01*
X92241D01*
Y157345D01*
X92328D01*
Y157257D01*
X92416D01*
Y157169D01*
X92504D01*
Y157082D01*
X92591D01*
Y156994D01*
X92679D01*
Y156906D01*
X92767D01*
Y156819D01*
X92854D01*
Y156731D01*
X92942D01*
Y156643D01*
X93030D01*
Y156556D01*
X93117D01*
Y156468D01*
X93205D01*
Y156380D01*
X93293D01*
Y156293D01*
X93380D01*
Y156205D01*
X93468D01*
Y156117D01*
X93556D01*
Y156030D01*
X93643D01*
Y155942D01*
X93731D01*
Y155854D01*
X93819D01*
Y155767D01*
X93906D01*
Y155679D01*
X93994D01*
Y155591D01*
X94082D01*
Y155504D01*
X94169D01*
Y155416D01*
X94257D01*
Y155328D01*
X94345D01*
Y155241D01*
X94432D01*
Y155153D01*
X94520D01*
Y155065D01*
X94695D01*
Y154978D01*
X94783D01*
Y154890D01*
X94871D01*
Y154802D01*
X94958D01*
Y154715D01*
X95046D01*
Y154627D01*
X95134D01*
Y154539D01*
X95221D01*
Y154452D01*
X95309D01*
Y154364D01*
X95397D01*
Y154276D01*
X95484D01*
Y154189D01*
X95572D01*
Y154101D01*
X95660D01*
Y154013D01*
X95747D01*
Y153926D01*
X95835D01*
Y153838D01*
X95923D01*
Y153750D01*
X96010D01*
Y153663D01*
X96098D01*
Y153575D01*
X96186D01*
Y153487D01*
X96273D01*
Y153400D01*
X96361D01*
Y153312D01*
X96448D01*
Y153224D01*
X96536D01*
Y153137D01*
X96624D01*
Y153049D01*
X96799D01*
Y152961D01*
X96887D01*
Y152874D01*
X96974D01*
Y152786D01*
X97062D01*
Y152698D01*
X97150D01*
Y152611D01*
X97238D01*
Y152523D01*
X97325D01*
Y152435D01*
X97413D01*
Y152348D01*
X97500D01*
Y152260D01*
X97588D01*
Y152172D01*
X97676D01*
Y152085D01*
X97764D01*
Y151997D01*
X97851D01*
Y151909D01*
X97939D01*
Y151822D01*
X98027D01*
Y151734D01*
X98114D01*
Y151646D01*
X98202D01*
Y151559D01*
X98289D01*
Y151471D01*
X98377D01*
Y151383D01*
X98465D01*
Y151296D01*
X98553D01*
Y151208D01*
X98640D01*
Y151120D01*
X98728D01*
Y151033D01*
X98815D01*
Y150945D01*
X98903D01*
Y150857D01*
X98991D01*
Y150770D01*
X99079D01*
Y150682D01*
X99166D01*
Y150594D01*
X99254D01*
Y150507D01*
X99341D01*
Y150419D01*
X99429D01*
Y150331D01*
X99517D01*
Y150244D01*
X99605D01*
Y150156D01*
X99692D01*
Y150068D01*
X99780D01*
Y149893D01*
X99867D01*
Y149805D01*
X99955D01*
Y149718D01*
X100043D01*
Y149630D01*
X100131D01*
Y149542D01*
X100218D01*
Y149455D01*
X100306D01*
Y149367D01*
X100393D01*
Y149192D01*
X100481D01*
Y149104D01*
X100569D01*
Y149016D01*
X100656D01*
Y148929D01*
X100744D01*
Y148753D01*
X100832D01*
Y148666D01*
X100920D01*
Y148490D01*
X101007D01*
Y148403D01*
X101095D01*
Y148227D01*
X101182D01*
Y148140D01*
X101270D01*
Y147964D01*
X101358D01*
Y147789D01*
X101446D01*
Y147614D01*
X101533D01*
Y147438D01*
X101621D01*
Y147263D01*
X101708D01*
Y147000D01*
X101796D01*
Y146825D01*
X101884D01*
Y146562D01*
X101972D01*
Y146211D01*
X102059D01*
Y145860D01*
X102147D01*
Y145334D01*
X102234D01*
Y143756D01*
X102147D01*
Y143406D01*
X102059D01*
Y143143D01*
X101972D01*
Y142792D01*
X102059D01*
Y142617D01*
X102147D01*
Y142441D01*
X102234D01*
Y142354D01*
X102322D01*
Y142178D01*
X102410D01*
Y142091D01*
X102498D01*
Y141915D01*
X102585D01*
Y141740D01*
X102673D01*
Y141652D01*
X102760D01*
Y141477D01*
X102848D01*
Y141302D01*
X102936D01*
Y141126D01*
X103024D01*
Y140951D01*
X103111D01*
Y140776D01*
X103199D01*
Y140600D01*
X103287D01*
Y140425D01*
X103374D01*
Y140250D01*
X103462D01*
Y140074D01*
X103549D01*
Y139899D01*
X103637D01*
Y139724D01*
X103725D01*
Y139461D01*
X103813D01*
Y139285D01*
X103900D01*
Y139110D01*
X103988D01*
Y138847D01*
X104075D01*
Y138584D01*
X104163D01*
Y138409D01*
X104251D01*
Y138146D01*
X104339D01*
Y137795D01*
X104426D01*
Y137532D01*
X104514D01*
Y137182D01*
X104601D01*
Y136831D01*
X104689D01*
Y136392D01*
X104777D01*
Y135866D01*
X104865D01*
Y134815D01*
X104952D01*
Y134025D01*
X104865D01*
Y133149D01*
X104777D01*
Y132711D01*
X104689D01*
Y132448D01*
X104601D01*
Y132184D01*
X104514D01*
Y132009D01*
X104426D01*
Y131834D01*
X104339D01*
Y131658D01*
X104251D01*
Y131396D01*
X104163D01*
Y131308D01*
X104075D01*
Y131132D01*
X103988D01*
Y130957D01*
X103900D01*
Y130782D01*
X103813D01*
Y130694D01*
X103725D01*
Y130519D01*
X103637D01*
Y130431D01*
X103549D01*
Y130256D01*
X103462D01*
Y130168D01*
X103374D01*
Y129993D01*
X103287D01*
Y129905D01*
X103199D01*
Y129817D01*
X103111D01*
Y129730D01*
X103024D01*
Y129555D01*
X102936D01*
Y129467D01*
X102848D01*
Y129379D01*
X102760D01*
Y129291D01*
X102673D01*
Y129116D01*
X102585D01*
Y129029D01*
X102498D01*
Y128941D01*
X102410D01*
Y128853D01*
X102322D01*
Y128765D01*
X102234D01*
Y128678D01*
X102147D01*
Y128590D01*
X102059D01*
Y128503D01*
X101972D01*
Y128327D01*
X101884D01*
Y128239D01*
X101796D01*
Y128152D01*
X101708D01*
Y127801D01*
X101796D01*
Y127626D01*
X101884D01*
Y127538D01*
X101972D01*
Y127363D01*
X102059D01*
Y127275D01*
X102147D01*
Y127188D01*
X102234D01*
Y127100D01*
X102322D01*
Y126925D01*
X102410D01*
Y126837D01*
X102498D01*
Y126749D01*
X102585D01*
Y126662D01*
X102673D01*
Y126574D01*
X102760D01*
Y126486D01*
X102848D01*
Y126399D01*
X102936D01*
Y126311D01*
X103024D01*
Y126223D01*
X103111D01*
Y126136D01*
X103199D01*
Y125960D01*
X103287D01*
Y125873D01*
X103374D01*
Y125785D01*
X103462D01*
Y125697D01*
X103549D01*
Y125610D01*
X103637D01*
Y125522D01*
X103725D01*
Y125434D01*
X103813D01*
Y125347D01*
X103900D01*
Y125259D01*
X103988D01*
Y125171D01*
X104075D01*
Y125084D01*
X104251D01*
Y124996D01*
X104339D01*
Y124908D01*
X104426D01*
Y124821D01*
X104514D01*
Y124733D01*
X104601D01*
Y124645D01*
X104777D01*
Y124558D01*
X104865D01*
Y124470D01*
X104952D01*
Y124382D01*
X105127D01*
Y124295D01*
X105215D01*
Y124207D01*
X105391D01*
Y124119D01*
X105478D01*
Y124032D01*
X105653D01*
Y123944D01*
X105829D01*
Y123856D01*
X106092D01*
Y123769D01*
X106267D01*
Y123681D01*
X106530D01*
Y123593D01*
X106881D01*
Y123506D01*
X107845D01*
Y123418D01*
X109511D01*
Y123330D01*
X111264D01*
Y123243D01*
X111965D01*
Y123155D01*
X112141D01*
Y123067D01*
X112316D01*
Y122980D01*
X112404D01*
Y122804D01*
X112491D01*
Y122454D01*
X112579D01*
Y122103D01*
X112491D01*
Y121665D01*
X112404D01*
Y121489D01*
X112316D01*
Y121402D01*
X112228D01*
Y121226D01*
X112141D01*
Y121139D01*
X112053D01*
Y121051D01*
X111965D01*
Y120963D01*
X111878D01*
Y120876D01*
X111790D01*
Y120788D01*
X111702D01*
Y120700D01*
X111615D01*
Y120613D01*
X111527D01*
Y120525D01*
X111439D01*
Y120437D01*
X111352D01*
Y120350D01*
X111264D01*
Y120262D01*
X111089D01*
Y120174D01*
X111001D01*
Y120087D01*
X110826D01*
Y119999D01*
X110650D01*
Y119911D01*
X110387D01*
Y119824D01*
X110124D01*
Y119736D01*
X109861D01*
Y119648D01*
X109686D01*
Y119561D01*
X109423D01*
Y119473D01*
X109072D01*
Y119385D01*
X108809D01*
Y119298D01*
X108459D01*
Y119210D01*
X108108D01*
Y119122D01*
X107757D01*
Y119035D01*
X107319D01*
Y118947D01*
X106968D01*
Y118859D01*
X106530D01*
Y118772D01*
X105829D01*
Y118684D01*
X104601D01*
Y118772D01*
X103900D01*
Y118859D01*
X103374D01*
Y118947D01*
X102936D01*
Y119035D01*
X102498D01*
Y119122D01*
X102147D01*
Y119210D01*
X101884D01*
Y119298D01*
X101621D01*
Y119385D01*
X101358D01*
Y119473D01*
X101095D01*
Y119561D01*
X100920D01*
Y119648D01*
X100744D01*
Y119736D01*
X100569D01*
Y119824D01*
X100393D01*
Y119911D01*
X100218D01*
Y119999D01*
X100043D01*
Y120087D01*
X99867D01*
Y120174D01*
X99780D01*
Y120262D01*
X99605D01*
Y120350D01*
X99517D01*
Y120437D01*
X99341D01*
Y120525D01*
X99166D01*
Y120613D01*
X99079D01*
Y120700D01*
X98815D01*
Y120613D01*
X98728D01*
Y120262D01*
X98640D01*
Y119911D01*
X98553D01*
Y119473D01*
X98465D01*
Y119210D01*
X98553D01*
Y118947D01*
X98640D01*
Y118684D01*
X98728D01*
Y118421D01*
X98815D01*
Y118158D01*
X98903D01*
Y117807D01*
X98991D01*
Y117544D01*
X99079D01*
Y117281D01*
X99166D01*
Y117018D01*
X99254D01*
Y116755D01*
X99341D01*
Y116405D01*
X99429D01*
Y116054D01*
X99517D01*
Y115703D01*
X99605D01*
Y115090D01*
X99692D01*
Y113424D01*
X99605D01*
Y113073D01*
X99517D01*
Y112898D01*
X99429D01*
Y112810D01*
X99341D01*
Y112723D01*
X99254D01*
Y112547D01*
X99166D01*
Y112460D01*
X99079D01*
Y112372D01*
X98903D01*
Y112284D01*
X98815D01*
Y112197D01*
X98640D01*
Y112109D01*
X98465D01*
Y112021D01*
X98289D01*
Y111934D01*
X98027D01*
Y111846D01*
X97764D01*
Y111758D01*
X97325D01*
Y111671D01*
X96887D01*
Y111583D01*
X96098D01*
Y111495D01*
X95221D01*
Y111408D01*
X94345D01*
Y111320D01*
X93643D01*
Y111232D01*
X93205D01*
Y111145D01*
X92854D01*
Y111057D01*
X92416D01*
Y110969D01*
X92065D01*
Y110882D01*
X91627D01*
Y110794D01*
X91013D01*
Y110706D01*
X90400D01*
Y110619D01*
X89786D01*
Y110531D01*
X89085D01*
Y110443D01*
X88383D01*
Y110356D01*
X87857D01*
Y110268D01*
X87244D01*
Y110180D01*
X86630D01*
Y110093D01*
X86192D01*
Y110005D01*
X85753D01*
Y109917D01*
X85403D01*
Y109830D01*
X85052D01*
Y109742D01*
X84614D01*
Y109654D01*
X84263D01*
Y109567D01*
X83912D01*
Y109479D01*
X83562D01*
Y109391D01*
X83299D01*
Y109479D01*
X83123D01*
Y109567D01*
X82948D01*
Y109654D01*
X82860D01*
Y109742D01*
X82685D01*
Y109830D01*
X82597D01*
Y109917D01*
X82510D01*
Y110005D01*
X82422D01*
Y110093D01*
X82334D01*
Y110268D01*
X82247D01*
Y110356D01*
X82159D01*
Y110443D01*
X82071D01*
Y110619D01*
X81984D01*
Y110794D01*
X81896D01*
Y110969D01*
X81808D01*
Y111145D01*
X81721D01*
Y111408D01*
X81633D01*
Y111671D01*
X81545D01*
Y112547D01*
X81458D01*
Y112986D01*
X81019D01*
Y112898D01*
X78915D01*
Y112986D01*
X78477D01*
Y113073D01*
X78126D01*
Y113161D01*
X74707D01*
Y113073D01*
X74006D01*
Y112986D01*
X73392D01*
Y112898D01*
X72867D01*
Y112810D01*
X72340D01*
Y112723D01*
X71902D01*
Y112635D01*
X71551D01*
Y112547D01*
X71201D01*
Y112460D01*
X70850D01*
Y112372D01*
X70500D01*
Y112284D01*
X70149D01*
Y112197D01*
X69886D01*
Y112109D01*
X69623D01*
Y112021D01*
X69360D01*
Y111934D01*
X69097D01*
Y111846D01*
X68834D01*
Y111758D01*
X68571D01*
Y111671D01*
X68308D01*
Y111583D01*
X68045D01*
Y111495D01*
X67694D01*
Y111583D01*
X67607D01*
Y111671D01*
X67519D01*
Y111758D01*
X67431D01*
Y111846D01*
X67344D01*
Y111934D01*
X67256D01*
Y112021D01*
X67168D01*
Y112197D01*
X67080D01*
Y112284D01*
X66993D01*
Y112460D01*
X66905D01*
Y112635D01*
X66817D01*
Y112810D01*
X66730D01*
Y112898D01*
X66642D01*
Y113161D01*
X66554D01*
Y113336D01*
X66467D01*
Y113599D01*
X66379D01*
Y113950D01*
X66291D01*
Y114476D01*
X66204D01*
Y115265D01*
X66291D01*
Y115791D01*
X66379D01*
Y116142D01*
X66467D01*
Y116405D01*
X66554D01*
Y116668D01*
X66642D01*
Y116843D01*
X66730D01*
Y117018D01*
X66817D01*
Y117106D01*
X66905D01*
Y117281D01*
X66993D01*
Y117369D01*
X67080D01*
Y117457D01*
X67168D01*
Y117632D01*
X67256D01*
Y117720D01*
X67344D01*
Y117807D01*
X67431D01*
Y117895D01*
X67607D01*
Y117983D01*
X67694D01*
Y118070D01*
X67782D01*
Y118158D01*
X67957D01*
Y118246D01*
X68133D01*
Y118333D01*
X68220D01*
Y118421D01*
X68396D01*
Y118509D01*
X68658D01*
Y118596D01*
X68834D01*
Y118684D01*
X69097D01*
Y118772D01*
X69360D01*
Y118859D01*
X69623D01*
Y118947D01*
X70061D01*
Y119035D01*
X70500D01*
Y119122D01*
X70850D01*
Y119210D01*
X71026D01*
Y119298D01*
X71113D01*
Y119385D01*
X71201D01*
Y119473D01*
X71288D01*
Y119561D01*
X71464D01*
Y119648D01*
X71551D01*
Y119736D01*
X71639D01*
Y119824D01*
X71727D01*
Y119911D01*
X71902D01*
Y119999D01*
X72077D01*
Y120087D01*
X72253D01*
Y120174D01*
X72516D01*
Y120262D01*
X72604D01*
Y120437D01*
X72516D01*
Y120613D01*
X72428D01*
Y120788D01*
X72340D01*
Y120963D01*
X72253D01*
Y121139D01*
X72165D01*
Y121314D01*
X72077D01*
Y121489D01*
X71990D01*
Y121665D01*
X71902D01*
Y121840D01*
X71814D01*
Y122103D01*
X71727D01*
Y122278D01*
X71639D01*
Y122541D01*
X71551D01*
Y122804D01*
X71464D01*
Y123067D01*
X71376D01*
Y123330D01*
X71288D01*
Y123681D01*
X71201D01*
Y123944D01*
X71113D01*
Y124295D01*
X71026D01*
Y124645D01*
X70938D01*
Y124996D01*
X70850D01*
Y125347D01*
X70763D01*
Y125785D01*
X70675D01*
Y128239D01*
X70587D01*
Y129116D01*
X70675D01*
Y130431D01*
X70763D01*
Y130957D01*
X70850D01*
Y131483D01*
X70938D01*
Y131922D01*
X71026D01*
Y132272D01*
X71113D01*
Y132623D01*
X71201D01*
Y132973D01*
X71288D01*
Y133237D01*
X71376D01*
Y133587D01*
X71464D01*
Y133850D01*
X71551D01*
Y134113D01*
X71639D01*
Y134376D01*
X71727D01*
Y134727D01*
X71814D01*
Y134990D01*
X71551D01*
Y135077D01*
X71026D01*
Y135165D01*
X70587D01*
Y135253D01*
X70149D01*
Y135340D01*
X69798D01*
Y135428D01*
X69535D01*
Y135516D01*
X69272D01*
Y135604D01*
X69097D01*
Y135691D01*
X68921D01*
Y135779D01*
X68746D01*
Y135866D01*
X68571D01*
Y135954D01*
X68396D01*
Y136042D01*
X68308D01*
Y136130D01*
X68133D01*
Y136217D01*
X68045D01*
Y136305D01*
X67957D01*
Y136392D01*
X67870D01*
Y136480D01*
X67782D01*
Y136568D01*
X67694D01*
Y136656D01*
X67607D01*
Y136743D01*
X67519D01*
Y136831D01*
X67431D01*
Y136918D01*
X67344D01*
Y137006D01*
X67256D01*
Y137182D01*
X67168D01*
Y137269D01*
X67080D01*
Y137357D01*
X66993D01*
Y137532D01*
X66905D01*
Y137707D01*
X66817D01*
Y137795D01*
X66730D01*
Y137970D01*
X66642D01*
Y138146D01*
X66554D01*
Y138409D01*
X66467D01*
Y138584D01*
X66379D01*
Y138759D01*
X66291D01*
Y139022D01*
X66204D01*
Y139285D01*
X66116D01*
Y139548D01*
X66028D01*
Y139899D01*
X65941D01*
Y140425D01*
X65853D01*
Y141039D01*
X65766D01*
Y144808D01*
X65853D01*
Y145510D01*
X65941D01*
Y145948D01*
X66028D01*
Y146386D01*
X66116D01*
Y146649D01*
X66204D01*
Y146912D01*
X66291D01*
Y147175D01*
X66379D01*
Y147351D01*
X66467D01*
Y147614D01*
X66554D01*
Y147789D01*
X66642D01*
Y147964D01*
X66730D01*
Y148140D01*
X66817D01*
Y148227D01*
X66905D01*
Y148403D01*
X66993D01*
Y148578D01*
X67080D01*
Y148666D01*
X67168D01*
Y148841D01*
X67256D01*
Y148929D01*
X67344D01*
Y149104D01*
X67431D01*
Y149192D01*
X67519D01*
Y149279D01*
X67607D01*
Y149455D01*
X67694D01*
Y149542D01*
X67782D01*
Y149630D01*
X67870D01*
Y149718D01*
X67957D01*
Y149805D01*
X68045D01*
Y149893D01*
X68133D01*
Y150068D01*
X68220D01*
Y150156D01*
X68308D01*
Y150244D01*
X68396D01*
Y150331D01*
X68483D01*
Y150419D01*
X68571D01*
Y150507D01*
X68658D01*
Y150594D01*
X68746D01*
Y150682D01*
X68834D01*
Y150770D01*
X69009D01*
Y150857D01*
X69097D01*
Y150945D01*
X69184D01*
Y151033D01*
X69272D01*
Y151120D01*
X69360D01*
Y151208D01*
X69447D01*
Y151296D01*
X69623D01*
Y151383D01*
X69710D01*
Y151471D01*
X69798D01*
Y151559D01*
X69886D01*
Y151646D01*
X70061D01*
Y151734D01*
X70149D01*
Y151822D01*
X70237D01*
Y151909D01*
X70412D01*
Y151997D01*
X70500D01*
Y152085D01*
X70587D01*
Y152260D01*
X70675D01*
Y153400D01*
X70763D01*
Y155065D01*
X70850D01*
Y155942D01*
X70938D01*
Y156731D01*
X71026D01*
Y157345D01*
X71113D01*
Y157958D01*
X71201D01*
Y158397D01*
X71288D01*
Y158923D01*
X71376D01*
Y159361D01*
X71464D01*
Y159712D01*
X71551D01*
Y160062D01*
X71639D01*
Y160501D01*
X71727D01*
Y160939D01*
X71814D01*
Y161027D01*
X71727D01*
Y161290D01*
X71639D01*
Y161465D01*
X71551D01*
Y161553D01*
X71464D01*
Y161728D01*
X71376D01*
Y161903D01*
X71288D01*
Y161991D01*
X71201D01*
Y162166D01*
X71113D01*
Y162254D01*
X71026D01*
Y162429D01*
X70938D01*
Y162517D01*
X70850D01*
Y162692D01*
X70763D01*
Y162868D01*
X70675D01*
Y162955D01*
X70587D01*
Y163130D01*
X70500D01*
Y163306D01*
X70412D01*
Y163393D01*
X70324D01*
Y163569D01*
X70237D01*
Y163744D01*
X70149D01*
Y163832D01*
X70061D01*
Y164007D01*
X69974D01*
Y164182D01*
X69886D01*
Y164358D01*
X69798D01*
Y164533D01*
X69710D01*
Y164708D01*
X69623D01*
Y164796D01*
X69535D01*
Y164972D01*
X69447D01*
Y165147D01*
X69360D01*
Y165322D01*
X69272D01*
Y165497D01*
X69184D01*
Y165673D01*
X69097D01*
Y165848D01*
X69009D01*
Y166024D01*
X68921D01*
Y166199D01*
X68834D01*
Y166374D01*
X68746D01*
Y166549D01*
X68658D01*
Y166725D01*
X68571D01*
Y166900D01*
X68483D01*
Y167076D01*
X68396D01*
Y167251D01*
X68308D01*
Y167426D01*
X68220D01*
Y167602D01*
X68133D01*
Y167777D01*
X68045D01*
Y167952D01*
X67957D01*
Y168215D01*
X67870D01*
Y168391D01*
X67782D01*
Y168566D01*
X67694D01*
Y168741D01*
X67607D01*
Y168916D01*
X67519D01*
Y169092D01*
X67431D01*
Y169267D01*
X67344D01*
Y169530D01*
X67256D01*
Y169706D01*
X67168D01*
Y169881D01*
X67080D01*
Y170056D01*
X66993D01*
Y170319D01*
X66905D01*
Y170494D01*
X66817D01*
Y170670D01*
X66730D01*
Y170933D01*
X66642D01*
Y171108D01*
X66554D01*
Y171283D01*
X66467D01*
Y171459D01*
X66379D01*
Y171722D01*
X66291D01*
Y171897D01*
X66204D01*
Y172160D01*
X66116D01*
Y172335D01*
X66028D01*
Y172511D01*
X65941D01*
Y172774D01*
X65853D01*
Y172949D01*
X65766D01*
Y173212D01*
X65678D01*
Y173387D01*
X65590D01*
Y173650D01*
X65503D01*
Y173826D01*
X65415D01*
Y174089D01*
X65327D01*
Y174352D01*
X65240D01*
Y174527D01*
X65152D01*
Y174790D01*
X65064D01*
Y175053D01*
X64977D01*
Y175228D01*
X64889D01*
Y175491D01*
X64801D01*
Y175667D01*
X64714D01*
Y175930D01*
X64626D01*
Y176193D01*
X64538D01*
Y176456D01*
X64450D01*
Y176631D01*
X64363D01*
Y176719D01*
X64275D01*
Y176806D01*
X64187D01*
Y176894D01*
X64100D01*
Y176982D01*
X64012D01*
Y177069D01*
X63924D01*
Y177157D01*
X63749D01*
Y177245D01*
X63661D01*
Y177332D01*
X63574D01*
Y177420D01*
X63399D01*
Y177508D01*
X63311D01*
Y177595D01*
X63223D01*
Y177683D01*
X63048D01*
Y177771D01*
X62960D01*
Y177858D01*
X62873D01*
Y177946D01*
X62785D01*
Y178034D01*
X62697D01*
Y178121D01*
X62610D01*
Y178209D01*
X62522D01*
Y178297D01*
X62434D01*
Y178384D01*
X62347D01*
Y178472D01*
X62259D01*
Y178560D01*
X62171D01*
Y178647D01*
X62084D01*
Y178823D01*
X61996D01*
Y178910D01*
X61908D01*
Y179086D01*
X61821D01*
Y179173D01*
X61733D01*
Y179261D01*
X61645D01*
Y179436D01*
X61558D01*
Y179524D01*
X61470D01*
Y179699D01*
X61382D01*
Y179787D01*
X61295D01*
Y179875D01*
X61207D01*
Y179962D01*
X61119D01*
Y180050D01*
X61032D01*
Y180225D01*
X60944D01*
Y180313D01*
X60856D01*
Y180401D01*
X60769D01*
Y180488D01*
X60681D01*
Y180576D01*
X60593D01*
Y180664D01*
X60506D01*
Y180751D01*
X60418D01*
Y180839D01*
X60330D01*
Y180927D01*
X60243D01*
Y181014D01*
X60155D01*
Y181102D01*
X59980D01*
Y181014D01*
X59892D01*
Y180839D01*
X59804D01*
Y179524D01*
X59892D01*
Y178472D01*
X59980D01*
Y178034D01*
X59892D01*
Y178121D01*
X59804D01*
Y178297D01*
X59717D01*
Y178472D01*
X59629D01*
Y178735D01*
X59541D01*
Y179173D01*
X59454D01*
Y180138D01*
X59541D01*
Y180839D01*
X59629D01*
Y180927D01*
X59103D01*
Y180313D01*
X59015D01*
Y179962D01*
X58928D01*
Y179612D01*
X58840D01*
Y179261D01*
X58752D01*
Y178998D01*
X58665D01*
Y178823D01*
X58577D01*
Y178910D01*
X58489D01*
Y179349D01*
X58577D01*
Y179875D01*
X58665D01*
Y180225D01*
X58752D01*
Y180576D01*
X58840D01*
Y180927D01*
X58752D01*
Y181014D01*
X58665D01*
Y181102D01*
X58402D01*
Y181190D01*
X58051D01*
Y181277D01*
X57876D01*
Y181365D01*
X57700D01*
Y181453D01*
X57613D01*
Y181540D01*
X57525D01*
Y181628D01*
X57437D01*
Y181716D01*
X57350D01*
Y181803D01*
X57262D01*
Y181891D01*
X57174D01*
Y181979D01*
X57087D01*
Y182154D01*
X56999D01*
Y182242D01*
X56911D01*
Y182417D01*
X56824D01*
Y182592D01*
X56736D01*
Y182855D01*
X56648D01*
Y183118D01*
X56561D01*
Y183732D01*
X56473D01*
Y184346D01*
X56561D01*
Y184784D01*
X56648D01*
Y185047D01*
X56736D01*
Y185310D01*
X56824D01*
Y185485D01*
X56911D01*
Y185661D01*
X56999D01*
Y185748D01*
X57087D01*
Y185924D01*
X57174D01*
Y186011D01*
X57262D01*
Y186099D01*
X57350D01*
Y186187D01*
X57437D01*
Y186362D01*
X57525D01*
Y186450D01*
X57700D01*
Y186537D01*
X57788D01*
Y186625D01*
X57876D01*
Y186713D01*
X57963D01*
Y186976D01*
X57876D01*
Y187502D01*
X57788D01*
Y188378D01*
X57876D01*
Y188554D01*
X57963D01*
Y188729D01*
X58051D01*
Y188817D01*
X58139D01*
Y188904D01*
X58226D01*
Y188992D01*
X58314D01*
Y189080D01*
X58402D01*
Y189167D01*
X58577D01*
Y189255D01*
X58665D01*
Y189343D01*
X58840D01*
Y189430D01*
X59103D01*
Y189518D01*
X59191D01*
Y189343D01*
X59103D01*
Y189255D01*
X59015D01*
Y189167D01*
X58928D01*
Y189080D01*
X58840D01*
Y188992D01*
X58752D01*
Y188904D01*
X58665D01*
Y188817D01*
X58577D01*
Y188729D01*
X58489D01*
Y188641D01*
X58402D01*
Y188554D01*
X58314D01*
Y188378D01*
X58226D01*
Y188115D01*
X58139D01*
Y187063D01*
X58226D01*
Y186800D01*
X58402D01*
Y186888D01*
X58489D01*
Y186976D01*
X58577D01*
Y187151D01*
X58665D01*
Y187326D01*
X58752D01*
Y187414D01*
X58840D01*
Y187502D01*
X58928D01*
Y187589D01*
X59015D01*
Y187677D01*
X59103D01*
Y187765D01*
X59191D01*
Y187852D01*
X59278D01*
Y187940D01*
X59366D01*
Y188028D01*
X59454D01*
Y188115D01*
X59629D01*
Y188203D01*
X59717D01*
Y188291D01*
X59892D01*
Y188378D01*
X60155D01*
Y188466D01*
X60418D01*
Y188554D01*
X60769D01*
Y188466D01*
X60856D01*
Y188378D01*
X60769D01*
Y188291D01*
X60593D01*
Y188203D01*
X60418D01*
Y188115D01*
X60243D01*
Y188028D01*
X60067D01*
Y187940D01*
X59980D01*
Y187852D01*
X59804D01*
Y187765D01*
X59717D01*
Y187677D01*
X59541D01*
Y187589D01*
X59454D01*
Y187502D01*
X59278D01*
Y187414D01*
X59191D01*
Y187326D01*
X59103D01*
Y187239D01*
X59015D01*
Y187151D01*
X58928D01*
Y187063D01*
X58840D01*
Y186976D01*
X58752D01*
Y186888D01*
X58665D01*
Y186800D01*
X58928D01*
Y186713D01*
X59541D01*
Y186625D01*
X60593D01*
Y186537D01*
X61908D01*
Y186625D01*
X62084D01*
Y186713D01*
X62259D01*
Y186800D01*
X62434D01*
Y186888D01*
X62610D01*
Y186976D01*
X62697D01*
Y187063D01*
X62873D01*
Y187151D01*
X63048D01*
Y187239D01*
X63135D01*
Y187326D01*
X63311D01*
Y187414D01*
X63399D01*
Y187502D01*
X63574D01*
Y187589D01*
X63749D01*
Y187677D01*
X63837D01*
Y187765D01*
X64012D01*
Y187852D01*
X64100D01*
Y187940D01*
X64275D01*
Y188028D01*
X64363D01*
Y188115D01*
X64538D01*
Y188203D01*
X64626D01*
Y188291D01*
X64801D01*
Y188378D01*
X64977D01*
Y188466D01*
X65152D01*
Y188554D01*
X65240D01*
Y188641D01*
X65415D01*
Y188729D01*
X65503D01*
Y188817D01*
X65678D01*
Y188904D01*
X65853D01*
Y188992D01*
X66028D01*
Y189080D01*
X66204D01*
Y189167D01*
X66467D01*
Y189255D01*
X66642D01*
Y189343D01*
X66905D01*
Y189430D01*
X67168D01*
Y189518D01*
X67431D01*
Y189606D01*
X67782D01*
Y189693D01*
X68220D01*
Y189781D01*
X68746D01*
Y189869D01*
X69447D01*
Y189956D01*
X70500D01*
Y190044D01*
X70938D01*
Y189956D01*
X72779D01*
Y189869D01*
X73656D01*
Y189781D01*
X74357D01*
Y189693D01*
X75058D01*
Y189606D01*
X77337D01*
Y189693D01*
X77513D01*
Y189781D01*
X77688D01*
Y189869D01*
X77863D01*
Y189956D01*
X78039D01*
Y190044D01*
X78126D01*
Y190132D01*
X78302D01*
Y190219D01*
X78477D01*
Y190307D01*
X78652D01*
Y190395D01*
X78740D01*
Y190482D01*
X78477D01*
Y190570D01*
X78302D01*
Y190658D01*
X78126D01*
Y190745D01*
X77513D01*
Y190833D01*
X77337D01*
Y191008D01*
X77425D01*
Y191096D01*
X78302D01*
Y191008D01*
X78477D01*
Y190921D01*
X78652D01*
Y190833D01*
X78740D01*
Y190745D01*
X78828D01*
Y190658D01*
X78915D01*
Y190570D01*
X79091D01*
Y190482D01*
X79354D01*
Y190395D01*
X79617D01*
Y190482D01*
X79704D01*
Y190570D01*
X79617D01*
Y190745D01*
X79529D01*
Y190921D01*
X79441D01*
Y191008D01*
X79354D01*
Y191184D01*
X79266D01*
Y191271D01*
X79178D01*
Y191359D01*
X79091D01*
Y191447D01*
X79003D01*
Y191534D01*
X78915D01*
Y191622D01*
X78828D01*
Y191797D01*
X78740D01*
Y191885D01*
X78652D01*
Y191973D01*
X78565D01*
Y192060D01*
X78477D01*
Y192148D01*
X78389D01*
Y192236D01*
X78302D01*
Y192323D01*
X78126D01*
Y192411D01*
X78039D01*
Y192499D01*
X77951D01*
Y192586D01*
X77776D01*
Y192674D01*
X77688D01*
Y192762D01*
X78214D01*
Y192674D01*
D02*
G37*
G36*
X81195Y186362D02*
X81370D01*
Y186274D01*
X81545D01*
Y186187D01*
X81633D01*
Y186099D01*
X81721D01*
Y186011D01*
X81896D01*
Y185836D01*
X81984D01*
Y185748D01*
X82071D01*
Y185573D01*
X82159D01*
Y185310D01*
X81984D01*
Y185398D01*
X81896D01*
Y185485D01*
X81808D01*
Y185573D01*
X81721D01*
Y185661D01*
X81633D01*
Y185748D01*
X81545D01*
Y185836D01*
X81458D01*
Y185924D01*
X81370D01*
Y186011D01*
X81282D01*
Y186099D01*
X81195D01*
Y186187D01*
X81107D01*
Y186274D01*
X81019D01*
Y186362D01*
X80932D01*
Y186450D01*
X81195D01*
Y186362D01*
D02*
G37*
%LPC*%
G36*
X403698Y390463D02*
X398477D01*
Y390354D01*
X396628D01*
Y390245D01*
X395432D01*
Y390137D01*
X394453D01*
Y390028D01*
X393583D01*
Y389919D01*
X392821D01*
Y389810D01*
X392169D01*
Y389701D01*
X391516D01*
Y389593D01*
X390972D01*
Y389484D01*
X390428D01*
Y389375D01*
X389884D01*
Y389266D01*
X389450D01*
Y389158D01*
X389014D01*
Y389049D01*
X388470D01*
Y388940D01*
X388036D01*
Y388831D01*
X387709D01*
Y388722D01*
X387274D01*
Y388614D01*
X386839D01*
Y388505D01*
X386513D01*
Y388396D01*
X386186D01*
Y388288D01*
X385860D01*
Y388179D01*
X385534D01*
Y388070D01*
X385207D01*
Y387961D01*
X384881D01*
Y387852D01*
X384555D01*
Y387744D01*
X384229D01*
Y387635D01*
X384011D01*
Y387526D01*
X383685D01*
Y387417D01*
X383358D01*
Y387309D01*
X383141D01*
Y387200D01*
X382923D01*
Y387091D01*
X382597D01*
Y386982D01*
X382380D01*
Y386874D01*
X382162D01*
Y386765D01*
X381945D01*
Y386656D01*
X381618D01*
Y386547D01*
X381401D01*
Y386438D01*
X381183D01*
Y386330D01*
X380966D01*
Y386221D01*
X380748D01*
Y386112D01*
X380531D01*
Y386003D01*
X380313D01*
Y385895D01*
X380095D01*
Y385786D01*
X379987D01*
Y385677D01*
X379769D01*
Y385568D01*
X379552D01*
Y385460D01*
X379334D01*
Y385351D01*
X379225D01*
Y385242D01*
X379008D01*
Y385133D01*
X378790D01*
Y385024D01*
X378681D01*
Y384916D01*
X378464D01*
Y384807D01*
X378355D01*
Y384698D01*
X378138D01*
Y384589D01*
X378029D01*
Y384481D01*
X377811D01*
Y384372D01*
X377702D01*
Y384263D01*
X377594D01*
Y384154D01*
X377376D01*
Y384045D01*
X377267D01*
Y383937D01*
X377050D01*
Y383828D01*
X376941D01*
Y383719D01*
X376832D01*
Y383610D01*
X376724D01*
Y383502D01*
X376506D01*
Y383393D01*
X376397D01*
Y383284D01*
X376289D01*
Y383175D01*
X376180D01*
Y383067D01*
X376071D01*
Y382958D01*
X375962D01*
Y382849D01*
X375854D01*
Y382740D01*
X375745D01*
Y382631D01*
X375636D01*
Y382523D01*
X375527D01*
Y382414D01*
X375418D01*
Y382305D01*
X375310D01*
Y382196D01*
X375201D01*
Y382088D01*
X375092D01*
Y381979D01*
X374983D01*
Y381870D01*
X374874D01*
Y381761D01*
X374766D01*
Y381653D01*
X374657D01*
Y381544D01*
X374548D01*
Y381435D01*
X374440D01*
Y381218D01*
X374331D01*
Y381109D01*
X374222D01*
Y381000D01*
X374113D01*
Y380891D01*
X374004D01*
Y380674D01*
X373896D01*
Y380565D01*
X373787D01*
Y380347D01*
X373678D01*
Y380239D01*
X373569D01*
Y380130D01*
Y380021D01*
X373461D01*
Y379804D01*
X373352D01*
Y379695D01*
X373243D01*
Y379477D01*
X373134D01*
Y379260D01*
X373026D01*
Y379042D01*
X372917D01*
Y378716D01*
X372808D01*
Y378498D01*
X372699D01*
Y378172D01*
X372590D01*
Y377846D01*
X372482D01*
Y377519D01*
X372373D01*
Y376976D01*
X372264D01*
Y376105D01*
X372155D01*
Y374909D01*
X372264D01*
Y374148D01*
X372373D01*
Y373604D01*
X372482D01*
Y373278D01*
X372590D01*
Y372951D01*
X372699D01*
Y372625D01*
X372808D01*
Y372299D01*
X372917D01*
Y372081D01*
X373026D01*
Y371864D01*
X373134D01*
Y371646D01*
X373243D01*
Y371428D01*
X373352D01*
Y371211D01*
X373461D01*
Y371102D01*
X373569D01*
Y370885D01*
X373678D01*
Y370776D01*
X373787D01*
Y370558D01*
X373896D01*
Y370449D01*
X374004D01*
Y370232D01*
X374113D01*
Y370123D01*
X374222D01*
Y370014D01*
X374331D01*
Y369797D01*
X374440D01*
Y369688D01*
X374548D01*
Y369579D01*
X374657D01*
Y369471D01*
X374766D01*
Y369362D01*
X374874D01*
Y369144D01*
X374983D01*
Y369035D01*
X375092D01*
Y368927D01*
X375201D01*
Y368818D01*
X375310D01*
Y368709D01*
X375418D01*
Y368601D01*
X375527D01*
Y368492D01*
X375636D01*
Y368383D01*
X375745D01*
Y368274D01*
X375962D01*
Y368165D01*
X376071D01*
Y368057D01*
X376180D01*
Y367948D01*
X376289D01*
Y367839D01*
X376397D01*
Y367730D01*
X376506D01*
Y367621D01*
X376615D01*
Y367513D01*
X376832D01*
Y367404D01*
X376941D01*
Y367295D01*
X377050D01*
Y367187D01*
X377267D01*
Y367078D01*
X377376D01*
Y366969D01*
X377485D01*
Y366860D01*
X377702D01*
Y366751D01*
X377811D01*
Y366643D01*
X378029D01*
Y366534D01*
X378138D01*
Y366425D01*
X378355D01*
Y366316D01*
X378464D01*
Y366208D01*
X378681D01*
Y366099D01*
X378790D01*
Y365990D01*
X379008D01*
Y365881D01*
X379117D01*
Y365773D01*
X379334D01*
Y365664D01*
X379552D01*
Y365555D01*
X379769D01*
Y365446D01*
X379878D01*
Y365337D01*
X380095D01*
Y365229D01*
X380313D01*
Y365120D01*
X380531D01*
Y365011D01*
X380748D01*
Y364902D01*
X380966D01*
Y364794D01*
X381183D01*
Y364685D01*
X381401D01*
Y364576D01*
X381618D01*
Y364467D01*
X381836D01*
Y364358D01*
X382053D01*
Y364250D01*
X382380D01*
Y364141D01*
X382597D01*
Y364032D01*
X382815D01*
Y363923D01*
X383141D01*
Y363815D01*
X383358D01*
Y363706D01*
X383576D01*
Y363597D01*
X383902D01*
Y363488D01*
X384229D01*
Y363380D01*
X384555D01*
Y363271D01*
X384772D01*
Y363162D01*
X385099D01*
Y363053D01*
X385425D01*
Y362944D01*
X385751D01*
Y362836D01*
X386078D01*
Y362727D01*
X386513D01*
Y362618D01*
X386839D01*
Y362509D01*
X387165D01*
Y362401D01*
X387600D01*
Y362292D01*
X388036D01*
Y362183D01*
X388362D01*
Y362074D01*
X388906D01*
Y361966D01*
X389341D01*
Y361857D01*
X389884D01*
Y361748D01*
X390320D01*
Y361639D01*
X390863D01*
Y361530D01*
X391407D01*
Y361422D01*
X392060D01*
Y361313D01*
X392713D01*
Y361204D01*
X393474D01*
Y361095D01*
X394235D01*
Y360987D01*
X395214D01*
Y360878D01*
X396302D01*
Y360769D01*
X398151D01*
Y360660D01*
X404024D01*
Y360769D01*
X405765D01*
Y360878D01*
X406961D01*
Y360987D01*
X407831D01*
Y361095D01*
X408701D01*
Y361204D01*
X409354D01*
Y361313D01*
X410007D01*
Y361422D01*
X410659D01*
Y361530D01*
X411203D01*
Y361639D01*
X411747D01*
Y361748D01*
X412291D01*
Y361857D01*
X412726D01*
Y361966D01*
X413270D01*
Y362074D01*
X413705D01*
Y362183D01*
X414140D01*
Y362292D01*
X414575D01*
Y362401D01*
X414901D01*
Y362509D01*
X415336D01*
Y362618D01*
X415663D01*
Y362727D01*
X415989D01*
Y362836D01*
X416315D01*
Y362944D01*
X416642D01*
Y363053D01*
X416968D01*
Y363162D01*
X417294D01*
Y363271D01*
X417620D01*
Y363380D01*
X417838D01*
Y363488D01*
X418164D01*
Y363597D01*
X418491D01*
Y363706D01*
X418708D01*
Y363815D01*
X419034D01*
Y363923D01*
X419252D01*
Y364032D01*
X419578D01*
Y364141D01*
X419796D01*
Y364250D01*
X420013D01*
Y364358D01*
X420231D01*
Y364467D01*
X420448D01*
Y364576D01*
X420775D01*
Y364685D01*
X420992D01*
Y364794D01*
X421210D01*
Y364902D01*
X421427D01*
Y365011D01*
X421536D01*
Y365120D01*
X421754D01*
Y365229D01*
X421971D01*
Y365337D01*
X422189D01*
Y365446D01*
X422406D01*
Y365555D01*
X422515D01*
Y365664D01*
X422733D01*
Y365773D01*
X422950D01*
Y365881D01*
X423168D01*
Y365990D01*
X423276D01*
Y366099D01*
X423494D01*
Y366208D01*
X423603D01*
Y366316D01*
X423820D01*
Y366425D01*
X423929D01*
Y366534D01*
X424146D01*
Y366643D01*
X424255D01*
Y366751D01*
X424473D01*
Y366860D01*
X424582D01*
Y366969D01*
X424690D01*
Y367078D01*
X424908D01*
Y367187D01*
X425017D01*
Y367295D01*
X425125D01*
Y367404D01*
X425343D01*
Y367513D01*
X425452D01*
Y367621D01*
X425560D01*
Y367730D01*
X425669D01*
Y367839D01*
X425778D01*
Y367948D01*
X425996D01*
Y368057D01*
X426104D01*
Y368165D01*
X426213D01*
Y368274D01*
X426322D01*
Y368383D01*
X426431D01*
Y368492D01*
X426539D01*
Y368601D01*
X426648D01*
Y368709D01*
X426757D01*
Y368818D01*
X426866D01*
Y368927D01*
X426974D01*
Y369035D01*
X427083D01*
Y369144D01*
X427192D01*
Y369253D01*
X427301D01*
Y369362D01*
X427410D01*
Y369579D01*
X427518D01*
Y369688D01*
X427627D01*
Y369797D01*
X427736D01*
Y369906D01*
X427845D01*
Y370123D01*
X427953D01*
Y370232D01*
X428062D01*
Y370341D01*
X428171D01*
Y370558D01*
X428280D01*
Y370667D01*
X428388D01*
Y370885D01*
X428497D01*
Y370993D01*
X428606D01*
Y371211D01*
X428715D01*
Y371428D01*
X428824D01*
Y371537D01*
X428932D01*
Y371755D01*
X429041D01*
Y371972D01*
X429150D01*
Y372299D01*
X429259D01*
Y372516D01*
X429367D01*
Y372842D01*
X429476D01*
Y373169D01*
X429585D01*
Y373495D01*
X429694D01*
Y373930D01*
X429802D01*
Y374692D01*
X429911D01*
Y376432D01*
X429802D01*
Y377193D01*
X429694D01*
Y377628D01*
X429585D01*
Y377954D01*
X429476D01*
Y378281D01*
X429367D01*
Y378607D01*
X429259D01*
Y378825D01*
X429150D01*
Y379042D01*
X429041D01*
Y379369D01*
X428932D01*
Y379477D01*
X428824D01*
Y379695D01*
X428715D01*
Y379912D01*
X428606D01*
Y380130D01*
X428497D01*
Y380239D01*
X428388D01*
Y380456D01*
X428280D01*
Y380565D01*
X428171D01*
Y380782D01*
X428062D01*
Y380891D01*
X427953D01*
Y381000D01*
X427845D01*
Y381218D01*
X427736D01*
Y381326D01*
X427627D01*
Y381435D01*
X427518D01*
Y381544D01*
X427410D01*
Y381653D01*
X427301D01*
Y381870D01*
X427192D01*
Y381979D01*
X427083D01*
Y382088D01*
X426974D01*
Y382196D01*
X426866D01*
Y382305D01*
X426757D01*
Y382414D01*
X426648D01*
Y382523D01*
X426539D01*
Y382631D01*
X426431D01*
Y382740D01*
X426322D01*
Y382849D01*
X426213D01*
Y382958D01*
X425996D01*
Y383067D01*
X425887D01*
Y383175D01*
X425778D01*
Y383284D01*
X425669D01*
Y383393D01*
X425560D01*
Y383502D01*
X425452D01*
Y383610D01*
X425234D01*
Y383719D01*
X425125D01*
Y383828D01*
X425017D01*
Y383937D01*
X424908D01*
Y384045D01*
X424690D01*
Y384154D01*
X424582D01*
Y384263D01*
X424364D01*
Y384372D01*
X424255D01*
Y384481D01*
X424146D01*
Y384589D01*
X423929D01*
Y384698D01*
X423820D01*
Y384807D01*
X423603D01*
Y384916D01*
X423385D01*
Y385024D01*
X423276D01*
Y385133D01*
X423059D01*
Y385242D01*
X422950D01*
Y385351D01*
X422733D01*
Y385460D01*
X422515D01*
Y385568D01*
X422406D01*
Y385677D01*
X422189D01*
Y385786D01*
X421971D01*
Y385895D01*
X421754D01*
Y386003D01*
X421536D01*
Y386112D01*
X421319D01*
Y386221D01*
X421101D01*
Y386330D01*
X420883D01*
Y386438D01*
X420666D01*
Y386547D01*
X420448D01*
Y386656D01*
X420231D01*
Y386765D01*
X420013D01*
Y386874D01*
X419687D01*
Y386982D01*
X419469D01*
Y387091D01*
X419252D01*
Y387200D01*
X418926D01*
Y387309D01*
X418708D01*
Y387417D01*
X418382D01*
Y387526D01*
X418164D01*
Y387635D01*
X417838D01*
Y387744D01*
X417512D01*
Y387852D01*
X417294D01*
Y387961D01*
X416968D01*
Y388070D01*
X416642D01*
Y388179D01*
X416315D01*
Y388288D01*
X415880D01*
Y388396D01*
X415554D01*
Y388505D01*
X415228D01*
Y388614D01*
X414793D01*
Y388722D01*
X414466D01*
Y388831D01*
X414031D01*
Y388940D01*
X413596D01*
Y389049D01*
X413161D01*
Y389158D01*
X412726D01*
Y389266D01*
X412182D01*
Y389375D01*
X411638D01*
Y389484D01*
X411094D01*
Y389593D01*
X410550D01*
Y389701D01*
X410007D01*
Y389810D01*
X409245D01*
Y389919D01*
X408484D01*
Y390028D01*
X407614D01*
Y390137D01*
X406744D01*
Y390245D01*
X405330D01*
Y390354D01*
X403698D01*
Y390463D01*
D02*
G37*
%LPD*%
G36*
X392604Y388722D02*
X392713D01*
Y388505D01*
X392821D01*
Y388070D01*
X392930D01*
Y387744D01*
X393039D01*
Y387417D01*
X393148D01*
Y387091D01*
X393256D01*
Y386656D01*
X393365D01*
Y386330D01*
X393474D01*
Y386003D01*
X393583D01*
Y385677D01*
X393691D01*
Y385351D01*
X393800D01*
Y385024D01*
X393909D01*
Y384698D01*
X394018D01*
Y384372D01*
X394127D01*
Y384154D01*
X394235D01*
Y383828D01*
X394344D01*
Y383610D01*
X394453D01*
Y383393D01*
X394562D01*
Y383175D01*
X394670D01*
Y383067D01*
X394779D01*
Y382849D01*
X394888D01*
Y382740D01*
X394997D01*
Y382631D01*
X395105D01*
Y382523D01*
X395214D01*
Y382414D01*
X395323D01*
Y382305D01*
X395432D01*
Y382196D01*
X395541D01*
Y382088D01*
X395649D01*
Y381979D01*
X395867D01*
Y381870D01*
X396084D01*
Y381761D01*
X396411D01*
Y381653D01*
X396737D01*
Y381544D01*
X397063D01*
Y381435D01*
X397498D01*
Y381326D01*
X398042D01*
Y381218D01*
X398803D01*
Y381109D01*
X399565D01*
Y381000D01*
X400435D01*
Y380891D01*
X401305D01*
Y380782D01*
X402175D01*
Y380674D01*
X403046D01*
Y380565D01*
X403916D01*
Y380456D01*
X404786D01*
Y380347D01*
X405656D01*
Y380239D01*
X406526D01*
Y380130D01*
X407505D01*
Y380021D01*
X408484D01*
Y379912D01*
X409463D01*
Y379804D01*
X412508D01*
Y379912D01*
X413378D01*
Y380021D01*
X414140D01*
Y380130D01*
X415228D01*
Y380239D01*
X415880D01*
Y380347D01*
X416315D01*
Y380456D01*
X416642D01*
Y380565D01*
X416750D01*
Y380674D01*
X416968D01*
Y380782D01*
X417077D01*
Y380891D01*
X417185D01*
Y381000D01*
X417294D01*
Y381218D01*
X417403D01*
Y381326D01*
X417512D01*
Y381544D01*
X417620D01*
Y381870D01*
X417729D01*
Y382088D01*
X417838D01*
Y382414D01*
X417947D01*
Y382849D01*
X418055D01*
Y383175D01*
X418164D01*
Y383393D01*
X418273D01*
Y383502D01*
X418599D01*
Y383393D01*
X418708D01*
Y383175D01*
X418817D01*
Y382849D01*
X418926D01*
Y382523D01*
X419034D01*
Y382305D01*
X419143D01*
Y381979D01*
X419252D01*
Y381761D01*
X419361D01*
Y381435D01*
X419469D01*
Y381109D01*
X419578D01*
Y381000D01*
X419687D01*
Y380782D01*
X419905D01*
Y380674D01*
X420013D01*
Y380565D01*
X420231D01*
Y380456D01*
X420448D01*
Y380347D01*
X420883D01*
Y380239D01*
X421645D01*
Y380130D01*
X422298D01*
Y380021D01*
X422950D01*
Y379912D01*
X423711D01*
Y379804D01*
X424364D01*
Y379695D01*
X425017D01*
Y379586D01*
X425234D01*
Y379477D01*
X425343D01*
Y379151D01*
X425234D01*
Y379042D01*
X425017D01*
Y378933D01*
X424364D01*
Y378825D01*
X423711D01*
Y378716D01*
X423168D01*
Y378607D01*
X422515D01*
Y378498D01*
X421645D01*
Y378390D01*
X420992D01*
Y378281D01*
X420557D01*
Y378172D01*
X420231D01*
Y378063D01*
X420013D01*
Y377954D01*
X419905D01*
Y377846D01*
X419796D01*
Y377737D01*
X419687D01*
Y377628D01*
X419578D01*
Y377411D01*
X419469D01*
Y377084D01*
X419361D01*
Y376758D01*
X419252D01*
Y376432D01*
X419143D01*
Y375997D01*
X419034D01*
Y375670D01*
X418926D01*
Y375235D01*
X418817D01*
Y374909D01*
X418708D01*
Y374692D01*
X418599D01*
Y374583D01*
X418273D01*
Y374692D01*
X418164D01*
Y374800D01*
X418055D01*
Y375126D01*
X417947D01*
Y375562D01*
X417838D01*
Y375997D01*
X417729D01*
Y376432D01*
X417620D01*
Y376758D01*
X417512D01*
Y377084D01*
X417403D01*
Y377411D01*
X417294D01*
Y377628D01*
X417185D01*
Y377846D01*
X417077D01*
Y377954D01*
X416968D01*
Y378063D01*
X416750D01*
Y378172D01*
X416533D01*
Y378281D01*
X416098D01*
Y378390D01*
X415445D01*
Y378498D01*
X414575D01*
Y378607D01*
X413378D01*
Y378716D01*
X412182D01*
Y378825D01*
X410550D01*
Y378716D01*
X408810D01*
Y378607D01*
X407614D01*
Y378498D01*
X406526D01*
Y378390D01*
X405547D01*
Y378281D01*
X404568D01*
Y378172D01*
X403698D01*
Y378063D01*
X402828D01*
Y377954D01*
X401958D01*
Y377846D01*
X401088D01*
Y377737D01*
X400326D01*
Y377628D01*
X399456D01*
Y377519D01*
X398586D01*
Y377411D01*
X397933D01*
Y377302D01*
X397281D01*
Y377193D01*
X396846D01*
Y377084D01*
X396519D01*
Y376976D01*
X396302D01*
Y376867D01*
X396084D01*
Y376758D01*
X395867D01*
Y376649D01*
X395649D01*
Y376540D01*
X395541D01*
Y376432D01*
X395432D01*
Y376323D01*
X395323D01*
Y376214D01*
X395214D01*
Y376105D01*
X395105D01*
Y375997D01*
X394997D01*
Y375779D01*
X394888D01*
Y375670D01*
X394779D01*
Y375453D01*
X394670D01*
Y375235D01*
X394562D01*
Y375018D01*
X394453D01*
Y374692D01*
X394344D01*
Y374365D01*
X394235D01*
Y374039D01*
X394127D01*
Y373713D01*
X394018D01*
Y373278D01*
X393909D01*
Y372842D01*
X393800D01*
Y372516D01*
X393691D01*
Y372081D01*
X393583D01*
Y371646D01*
X393474D01*
Y371211D01*
X393365D01*
Y370885D01*
X393256D01*
Y370449D01*
X393148D01*
Y370014D01*
X393039D01*
Y369579D01*
X392930D01*
Y369144D01*
X392821D01*
Y368601D01*
X392713D01*
Y368274D01*
X392604D01*
Y368057D01*
X392495D01*
Y367948D01*
X392277D01*
Y368057D01*
X392060D01*
Y368274D01*
X391951D01*
Y368818D01*
X391842D01*
Y369253D01*
X391734D01*
Y369579D01*
X391625D01*
Y370123D01*
X391516D01*
Y370558D01*
X391407D01*
Y370993D01*
X391298D01*
Y371428D01*
X391190D01*
Y371972D01*
X391081D01*
Y372407D01*
X390972D01*
Y372842D01*
X390863D01*
Y373386D01*
X390755D01*
Y373713D01*
X390646D01*
Y374039D01*
X390537D01*
Y374365D01*
X390428D01*
Y374692D01*
X390320D01*
Y374909D01*
X390211D01*
Y375126D01*
X390102D01*
Y375453D01*
X389993D01*
Y375562D01*
X389884D01*
Y375779D01*
X389776D01*
Y375997D01*
X389667D01*
Y376105D01*
X389558D01*
Y376214D01*
X389450D01*
Y376323D01*
X389341D01*
Y376432D01*
X389232D01*
Y376540D01*
X389123D01*
Y376649D01*
X389014D01*
Y376758D01*
X388797D01*
Y376867D01*
X388470D01*
Y376976D01*
X388253D01*
Y377084D01*
X387818D01*
Y377193D01*
X387383D01*
Y377302D01*
X386839D01*
Y377411D01*
X386078D01*
Y377519D01*
X385316D01*
Y377628D01*
X384555D01*
Y377737D01*
X383793D01*
Y377846D01*
X383032D01*
Y377954D01*
X382271D01*
Y378063D01*
X381509D01*
Y378172D01*
X380748D01*
Y378281D01*
X379878D01*
Y378390D01*
X379117D01*
Y378498D01*
X378355D01*
Y378607D01*
X377376D01*
Y378716D01*
X376615D01*
Y378825D01*
X375854D01*
Y378933D01*
X375092D01*
Y379042D01*
X374874D01*
Y379151D01*
X374766D01*
Y379477D01*
X374874D01*
Y379586D01*
X375201D01*
Y379695D01*
X376071D01*
Y379804D01*
X376832D01*
Y379912D01*
X377702D01*
Y380021D01*
X378464D01*
Y380130D01*
X379225D01*
Y380239D01*
X379987D01*
Y380347D01*
X380748D01*
Y380456D01*
X381509D01*
Y380565D01*
X382271D01*
Y380674D01*
X383032D01*
Y380782D01*
X383902D01*
Y380891D01*
X384664D01*
Y381000D01*
X385534D01*
Y381109D01*
X386295D01*
Y381218D01*
X386839D01*
Y381326D01*
X387383D01*
Y381435D01*
X387818D01*
Y381544D01*
X388144D01*
Y381653D01*
X388362D01*
Y381761D01*
X388688D01*
Y381870D01*
X388906D01*
Y381979D01*
X389014D01*
Y382088D01*
X389232D01*
Y382196D01*
X389341D01*
Y382305D01*
X389450D01*
Y382414D01*
X389558D01*
Y382523D01*
X389667D01*
Y382631D01*
X389776D01*
Y382740D01*
X389884D01*
Y382958D01*
X389993D01*
Y383175D01*
X390102D01*
Y383393D01*
X390211D01*
Y383610D01*
X390320D01*
Y383828D01*
X390428D01*
Y384045D01*
X390537D01*
Y384154D01*
Y384372D01*
X390646D01*
Y384698D01*
X390755D01*
Y385024D01*
X390863D01*
Y385242D01*
X390972D01*
Y385568D01*
X391081D01*
Y385895D01*
X391190D01*
Y386221D01*
X391298D01*
Y386547D01*
X391407D01*
Y386874D01*
X391516D01*
Y387200D01*
X391625D01*
Y387526D01*
X391734D01*
Y387961D01*
X391842D01*
Y388288D01*
X391951D01*
Y388614D01*
X392060D01*
Y388831D01*
X392169D01*
Y388940D01*
X392604D01*
Y388722D01*
D02*
G37*
G36*
X409572Y377302D02*
X409680D01*
Y377084D01*
X409789D01*
Y376758D01*
X409898D01*
Y376432D01*
X410007D01*
Y376105D01*
X410115D01*
Y375779D01*
X410224D01*
Y375562D01*
X410333D01*
Y375344D01*
X410442D01*
Y375126D01*
X410550D01*
Y374909D01*
X410659D01*
Y374800D01*
X410768D01*
Y374692D01*
X410877D01*
Y374583D01*
X410986D01*
Y374474D01*
X411203D01*
Y374365D01*
X411529D01*
Y374256D01*
X411964D01*
Y374148D01*
X412508D01*
Y374039D01*
X413378D01*
Y373930D01*
X414249D01*
Y373821D01*
X415119D01*
Y373713D01*
X417512D01*
Y373821D01*
X418273D01*
Y373930D01*
X418926D01*
Y374039D01*
X419469D01*
Y374148D01*
X420013D01*
Y374256D01*
X420231D01*
Y374365D01*
X420448D01*
Y374474D01*
X420666D01*
Y374583D01*
X420775D01*
Y374692D01*
X420883D01*
Y374800D01*
X420992D01*
Y375018D01*
X421101D01*
Y375344D01*
X421210D01*
Y375562D01*
X421319D01*
Y375888D01*
X421427D01*
Y376214D01*
X421536D01*
Y376432D01*
X421645D01*
Y376649D01*
X421754D01*
Y376758D01*
X421862D01*
Y376867D01*
X421971D01*
Y376758D01*
X422189D01*
Y376540D01*
X422298D01*
Y376432D01*
X422406D01*
Y376105D01*
X422515D01*
Y375888D01*
X422624D01*
Y375562D01*
X422733D01*
Y375235D01*
X422841D01*
Y375018D01*
X422950D01*
Y374800D01*
X423059D01*
Y374692D01*
X423168D01*
Y374583D01*
X423276D01*
Y374474D01*
X423494D01*
Y374365D01*
X423820D01*
Y374256D01*
X424255D01*
Y374148D01*
X424799D01*
Y374039D01*
X425234D01*
Y373930D01*
X425778D01*
Y373821D01*
X426322D01*
Y373713D01*
X427083D01*
Y373604D01*
X427518D01*
Y373495D01*
X427736D01*
Y373060D01*
X427518D01*
Y372951D01*
X427083D01*
Y372842D01*
X426213D01*
Y372734D01*
X425452D01*
Y372625D01*
X424908D01*
Y372516D01*
X424364D01*
Y372407D01*
X423929D01*
Y372299D01*
X423603D01*
Y372190D01*
X423494D01*
Y372081D01*
X423276D01*
Y371972D01*
X423168D01*
Y371864D01*
X423059D01*
Y371646D01*
X422950D01*
Y371537D01*
X422841D01*
Y371211D01*
X422733D01*
Y370885D01*
X422624D01*
Y370558D01*
X422515D01*
Y370123D01*
X422406D01*
Y369688D01*
X422298D01*
Y369362D01*
X422189D01*
Y369253D01*
X421862D01*
Y369362D01*
X421754D01*
Y369579D01*
X421645D01*
Y369797D01*
X421536D01*
Y370123D01*
X421427D01*
Y370449D01*
X421319D01*
Y370885D01*
X421210D01*
Y371211D01*
X421101D01*
Y371537D01*
X420992D01*
Y371755D01*
X420883D01*
Y371864D01*
X420775D01*
Y371972D01*
X420666D01*
Y372081D01*
X420557D01*
Y372190D01*
X420340D01*
Y372299D01*
X420013D01*
Y372407D01*
X419361D01*
Y372516D01*
X418599D01*
Y372625D01*
X417838D01*
Y372734D01*
X415228D01*
Y372625D01*
X414357D01*
Y372516D01*
X413705D01*
Y372407D01*
X413052D01*
Y372299D01*
X412400D01*
Y372190D01*
X411747D01*
Y372081D01*
X411312D01*
Y371972D01*
X410986D01*
Y371864D01*
X410877D01*
Y371755D01*
X410768D01*
Y371646D01*
X410659D01*
Y371537D01*
X410550D01*
Y371320D01*
X410442D01*
Y370993D01*
X410333D01*
Y370776D01*
X410224D01*
Y370341D01*
X410115D01*
Y370014D01*
X410007D01*
Y369579D01*
X409898D01*
Y369144D01*
X409789D01*
Y368818D01*
X409680D01*
Y368492D01*
X409572D01*
Y368383D01*
X409245D01*
Y368492D01*
X409137D01*
Y368709D01*
X409028D01*
Y369035D01*
X408919D01*
Y369471D01*
X408810D01*
Y369797D01*
X408701D01*
Y370123D01*
X408593D01*
Y370558D01*
X408484D01*
Y370885D01*
X408375D01*
Y371211D01*
X408266D01*
Y371537D01*
X408158D01*
Y371646D01*
X408049D01*
Y371755D01*
X407940D01*
Y371864D01*
X407831D01*
Y371972D01*
X407614D01*
Y372081D01*
X407287D01*
Y372190D01*
X406744D01*
Y372299D01*
X405982D01*
Y372407D01*
X405221D01*
Y372516D01*
X404242D01*
Y372625D01*
X403481D01*
Y372734D01*
X402937D01*
Y372842D01*
X402393D01*
Y372951D01*
X402175D01*
Y373060D01*
X401958D01*
Y373386D01*
X402067D01*
Y373495D01*
X402393D01*
Y373604D01*
X402937D01*
Y373713D01*
X403698D01*
Y373821D01*
X404677D01*
Y373930D01*
X405765D01*
Y374039D01*
X406526D01*
Y374148D01*
X406961D01*
Y374256D01*
X407396D01*
Y374365D01*
X407614D01*
Y374474D01*
X407831D01*
Y374583D01*
X408049D01*
Y374800D01*
X408158D01*
Y374909D01*
X408266D01*
Y375126D01*
X408375D01*
Y375344D01*
X408484D01*
Y375670D01*
X408593D01*
Y375997D01*
X408701D01*
Y376323D01*
X408810D01*
Y376649D01*
X408919D01*
Y376976D01*
X409028D01*
Y377193D01*
X409137D01*
Y377411D01*
X409245D01*
Y377519D01*
X409572D01*
Y377302D01*
D02*
G37*
G36*
X400326Y371211D02*
X400435D01*
Y370993D01*
X400544D01*
Y370667D01*
X400653D01*
Y370341D01*
X400761D01*
Y370014D01*
X400870D01*
Y369688D01*
X400979D01*
Y369471D01*
X401088D01*
Y369253D01*
X401196D01*
Y369035D01*
X401305D01*
Y368818D01*
X401414D01*
Y368709D01*
X401523D01*
Y368601D01*
X401632D01*
Y368492D01*
X401740D01*
Y368383D01*
X401958D01*
Y368274D01*
X402175D01*
Y368165D01*
X402610D01*
Y368057D01*
X403046D01*
Y367948D01*
X403916D01*
Y367839D01*
X404786D01*
Y367730D01*
X405765D01*
Y367621D01*
X409028D01*
Y367730D01*
X409789D01*
Y367839D01*
X410442D01*
Y367948D01*
X411094D01*
Y368057D01*
X411638D01*
Y368165D01*
X411964D01*
Y368274D01*
X412182D01*
Y368383D01*
X412291D01*
Y368492D01*
X412400D01*
Y368709D01*
X412508D01*
Y368818D01*
X412617D01*
Y369035D01*
X412726D01*
Y369362D01*
X412835D01*
Y369688D01*
X412943D01*
Y370014D01*
X413052D01*
Y370341D01*
X413161D01*
Y370667D01*
X413270D01*
Y370885D01*
X413705D01*
Y370776D01*
X413814D01*
Y370667D01*
X413922D01*
Y370341D01*
X414031D01*
Y370014D01*
X414140D01*
Y369688D01*
X414249D01*
Y369362D01*
X414357D01*
Y369035D01*
X414466D01*
Y368818D01*
X414575D01*
Y368601D01*
X414684D01*
Y368492D01*
X414901D01*
Y368383D01*
X415010D01*
Y368274D01*
X415336D01*
Y368165D01*
X415771D01*
Y368057D01*
X416424D01*
Y367948D01*
X417185D01*
Y367839D01*
X417947D01*
Y367730D01*
X418817D01*
Y367621D01*
X419687D01*
Y367513D01*
X420231D01*
Y367404D01*
X420448D01*
Y366969D01*
X420231D01*
Y366860D01*
X419469D01*
Y366751D01*
X418708D01*
Y366643D01*
X417947D01*
Y366534D01*
X417185D01*
Y366425D01*
X416424D01*
Y366316D01*
X415771D01*
Y366208D01*
X415445D01*
Y366099D01*
X415119D01*
Y365990D01*
X415010D01*
Y365881D01*
X414901D01*
Y365773D01*
X414684D01*
Y365555D01*
X414575D01*
Y365337D01*
X414466D01*
Y365120D01*
X414357D01*
Y364794D01*
X414249D01*
Y364576D01*
X414140D01*
Y364141D01*
X414031D01*
Y363815D01*
X413922D01*
Y363597D01*
X413814D01*
Y363380D01*
X413378D01*
Y363488D01*
X413270D01*
Y363815D01*
X413161D01*
Y364141D01*
X413052D01*
Y364467D01*
X412943D01*
Y364794D01*
X412835D01*
Y365120D01*
X412726D01*
Y365337D01*
X412617D01*
Y365555D01*
X412508D01*
Y365773D01*
X412400D01*
Y365881D01*
X412291D01*
Y365990D01*
X412073D01*
Y366099D01*
X411747D01*
Y366208D01*
X411203D01*
Y366316D01*
X410550D01*
Y366425D01*
X409789D01*
Y366534D01*
X409028D01*
Y366643D01*
X406091D01*
Y366534D01*
X405221D01*
Y366425D01*
X404568D01*
Y366316D01*
X403807D01*
Y366208D01*
X403154D01*
Y366099D01*
X402502D01*
Y365990D01*
X402067D01*
Y365881D01*
X401849D01*
Y365773D01*
X401632D01*
Y365664D01*
X401523D01*
Y365555D01*
X401414D01*
Y365337D01*
X401305D01*
Y365120D01*
X401196D01*
Y364902D01*
X401088D01*
Y364576D01*
X400979D01*
Y364141D01*
X400870D01*
Y363815D01*
X400761D01*
Y363380D01*
X400653D01*
Y362944D01*
X400544D01*
Y362618D01*
X400435D01*
Y362401D01*
X400326D01*
Y362292D01*
X400109D01*
Y362401D01*
X400000D01*
Y362509D01*
X399891D01*
Y362836D01*
X399782D01*
Y363162D01*
X399674D01*
Y363488D01*
X399565D01*
Y363923D01*
X399456D01*
Y364250D01*
X399347D01*
Y364576D01*
X399239D01*
Y364902D01*
X399130D01*
Y365229D01*
X399021D01*
Y365446D01*
X398912D01*
Y365664D01*
X398803D01*
Y365773D01*
X398586D01*
Y365881D01*
X398368D01*
Y365990D01*
X398042D01*
Y366099D01*
X397498D01*
Y366208D01*
X396737D01*
Y366316D01*
X395867D01*
Y366425D01*
X394997D01*
Y366534D01*
X394235D01*
Y366643D01*
X393583D01*
Y366751D01*
X393148D01*
Y366860D01*
X392930D01*
Y366969D01*
X392821D01*
Y367078D01*
X392713D01*
Y367187D01*
X392821D01*
Y367295D01*
X392930D01*
Y367404D01*
X393365D01*
Y367513D01*
X393909D01*
Y367621D01*
X394779D01*
Y367730D01*
X395867D01*
Y367839D01*
X396737D01*
Y367948D01*
X397498D01*
Y368057D01*
X397933D01*
Y368165D01*
X398260D01*
Y368274D01*
X398586D01*
Y368383D01*
X398695D01*
Y368492D01*
X398803D01*
Y368601D01*
X398912D01*
Y368709D01*
X399021D01*
Y368927D01*
X399130D01*
Y369144D01*
X399239D01*
Y369362D01*
X399347D01*
Y369688D01*
X399456D01*
Y370014D01*
X399565D01*
Y370341D01*
X399674D01*
Y370449D01*
Y370667D01*
X399782D01*
Y370993D01*
X399891D01*
Y371211D01*
X400000D01*
Y371320D01*
X400326D01*
Y371211D01*
D02*
G37*
%LPC*%
G36*
X407614Y350219D02*
X407505D01*
Y350001D01*
X407396D01*
Y349784D01*
X407287D01*
Y349566D01*
X407179D01*
Y349348D01*
X407070D01*
Y349131D01*
X406961D01*
Y349022D01*
X406852D01*
Y348805D01*
X406744D01*
Y348587D01*
X406635D01*
Y348370D01*
X406526D01*
Y348152D01*
X406417D01*
Y347934D01*
X406309D01*
Y347717D01*
X406200D01*
Y347499D01*
X406091D01*
Y347282D01*
X405982D01*
Y347064D01*
X405873D01*
Y346956D01*
X405765D01*
Y346738D01*
X405656D01*
Y346521D01*
X405547D01*
Y346303D01*
X409572D01*
Y346521D01*
X409463D01*
Y346738D01*
X409354D01*
Y346956D01*
X409245D01*
Y347173D01*
X409137D01*
Y347391D01*
X409028D01*
Y347608D01*
X408919D01*
Y347717D01*
X408810D01*
Y347934D01*
X408701D01*
Y348152D01*
X408593D01*
Y348370D01*
X408484D01*
Y348587D01*
X408375D01*
Y348805D01*
X408266D01*
Y349022D01*
X408158D01*
Y349240D01*
X408049D01*
Y349457D01*
X407940D01*
Y349675D01*
X407831D01*
Y349892D01*
X407723D01*
Y350110D01*
X407614D01*
Y350219D01*
D02*
G37*
G36*
X445139Y343584D02*
X444921D01*
Y343475D01*
X444704D01*
Y343366D01*
X444595D01*
Y343257D01*
X444486D01*
Y343149D01*
X444377D01*
Y342605D01*
X444486D01*
Y342387D01*
X444595D01*
Y342279D01*
X444812D01*
Y342170D01*
X445247D01*
Y342279D01*
X445465D01*
Y342387D01*
X445574D01*
Y342605D01*
X445683D01*
Y343149D01*
X445574D01*
Y343366D01*
X445465D01*
Y343475D01*
X445139D01*
Y343584D01*
D02*
G37*
%LPD*%
G36*
Y343257D02*
X445356D01*
Y342931D01*
X445247D01*
Y342714D01*
X445356D01*
Y342387D01*
X445247D01*
Y342496D01*
X445139D01*
Y342714D01*
X445030D01*
Y342822D01*
X444921D01*
Y342387D01*
X444704D01*
Y342931D01*
Y343040D01*
Y343257D01*
X444812D01*
Y343366D01*
X445139D01*
Y343257D01*
D02*
G37*
%LPC*%
G36*
X445030D02*
X444921D01*
Y343149D01*
Y342931D01*
X445139D01*
Y343040D01*
X445247D01*
Y343149D01*
X445030D01*
Y343257D01*
D02*
G37*
G36*
X425343Y350762D02*
X419034D01*
Y348696D01*
X425560D01*
Y348805D01*
X425778D01*
Y348913D01*
X425887D01*
Y349022D01*
X425996D01*
Y349240D01*
X426104D01*
Y350219D01*
X425996D01*
Y350327D01*
X425887D01*
Y350436D01*
X425778D01*
Y350545D01*
X425669D01*
Y350654D01*
X425343D01*
Y350762D01*
D02*
G37*
G36*
X396628D02*
X389884D01*
Y348805D01*
X396519D01*
Y348913D01*
X396737D01*
Y349022D01*
X396846D01*
Y349131D01*
Y349240D01*
X396954D01*
Y349566D01*
X397063D01*
Y350110D01*
X396954D01*
Y350436D01*
X396846D01*
Y350545D01*
X396737D01*
Y350654D01*
X396628D01*
Y350762D01*
D02*
G37*
G36*
X396411Y346738D02*
X395867D01*
Y346629D01*
X395649D01*
Y346738D01*
X395541D01*
Y346629D01*
X395323D01*
Y346738D01*
X395214D01*
Y346629D01*
X394997D01*
Y346738D01*
X394888D01*
Y346629D01*
X394670D01*
Y346738D01*
X394562D01*
Y346629D01*
X394235D01*
Y346738D01*
X392604D01*
Y346629D01*
X392386D01*
Y346738D01*
X392277D01*
Y346629D01*
X392060D01*
Y346738D01*
X391951D01*
Y346629D01*
X391734D01*
Y346738D01*
X391625D01*
Y346629D01*
X391407D01*
Y346738D01*
X391298D01*
Y346629D01*
X390972D01*
Y346738D01*
X389993D01*
Y346629D01*
X389884D01*
Y344345D01*
X396628D01*
Y344454D01*
X396846D01*
Y344563D01*
X396954D01*
Y344671D01*
X397063D01*
Y344889D01*
X397172D01*
Y345215D01*
X397281D01*
Y345868D01*
X397172D01*
Y346194D01*
X397063D01*
Y346412D01*
X396954D01*
Y346521D01*
X396737D01*
Y346629D01*
X396411D01*
Y346738D01*
D02*
G37*
G36*
X78652Y189869D02*
X78477D01*
Y189781D01*
X78652D01*
Y189869D01*
D02*
G37*
G36*
X78477Y189781D02*
X78302D01*
Y189693D01*
X78126D01*
Y189606D01*
X77951D01*
Y189518D01*
X77863D01*
Y189430D01*
X77688D01*
Y189343D01*
X77600D01*
Y189255D01*
X77513D01*
Y189167D01*
X77337D01*
Y189080D01*
X76724D01*
Y189167D01*
X75584D01*
Y189255D01*
X74795D01*
Y189343D01*
X74094D01*
Y189430D01*
X73568D01*
Y189518D01*
X69447D01*
Y189430D01*
X68571D01*
Y189343D01*
X68045D01*
Y189255D01*
X67607D01*
Y189167D01*
X67256D01*
Y189080D01*
X67080D01*
Y188992D01*
X66817D01*
Y188904D01*
X66554D01*
Y188817D01*
X66379D01*
Y188729D01*
X66116D01*
Y188641D01*
X65941D01*
Y188554D01*
X65853D01*
Y188466D01*
X65678D01*
Y188378D01*
X65503D01*
Y188291D01*
X65327D01*
Y188203D01*
X65240D01*
Y188115D01*
X65064D01*
Y188028D01*
X64889D01*
Y187940D01*
X64801D01*
Y187852D01*
X65240D01*
Y187940D01*
X65678D01*
Y188028D01*
X66291D01*
Y188115D01*
X69009D01*
Y188028D01*
X69710D01*
Y187940D01*
X70149D01*
Y187852D01*
X70412D01*
Y187765D01*
X70587D01*
Y187677D01*
X70763D01*
Y187589D01*
X70850D01*
Y187502D01*
X70938D01*
Y187414D01*
X71026D01*
Y187326D01*
X71113D01*
Y187239D01*
X71201D01*
Y187151D01*
X71288D01*
Y187063D01*
X71376D01*
Y186888D01*
X71464D01*
Y186800D01*
X71551D01*
Y186625D01*
X71639D01*
Y186362D01*
X71727D01*
Y185924D01*
X71814D01*
Y185135D01*
X71727D01*
Y184696D01*
X71639D01*
Y184433D01*
X71551D01*
Y184170D01*
X71464D01*
Y183995D01*
X71376D01*
Y183907D01*
X71288D01*
Y183732D01*
X71201D01*
Y183644D01*
X71113D01*
Y183557D01*
X71026D01*
Y183381D01*
X70938D01*
Y183294D01*
X70850D01*
Y183206D01*
X70763D01*
Y183118D01*
X70675D01*
Y183031D01*
X70587D01*
Y182943D01*
X70500D01*
Y182855D01*
X70412D01*
Y182768D01*
X70324D01*
Y182680D01*
X70237D01*
Y182592D01*
X70149D01*
Y182505D01*
X70061D01*
Y182417D01*
X69886D01*
Y182329D01*
X69798D01*
Y182242D01*
X69710D01*
Y182154D01*
X69623D01*
Y182066D01*
X69447D01*
Y181979D01*
X69272D01*
Y181891D01*
X69097D01*
Y181803D01*
X68921D01*
Y181716D01*
X68658D01*
Y181628D01*
X68308D01*
Y181540D01*
X67957D01*
Y181453D01*
X67519D01*
Y181540D01*
X66993D01*
Y181628D01*
X66554D01*
Y181716D01*
X66116D01*
Y181803D01*
X65678D01*
Y181891D01*
X65240D01*
Y181979D01*
X64889D01*
Y182066D01*
X64626D01*
Y182154D01*
X64450D01*
Y182242D01*
X64275D01*
Y182329D01*
X64187D01*
Y182417D01*
X64100D01*
Y182505D01*
X64012D01*
Y182592D01*
X63924D01*
Y182680D01*
X63837D01*
Y182768D01*
X63749D01*
Y182943D01*
X63661D01*
Y183118D01*
X63574D01*
Y183294D01*
X63486D01*
Y183557D01*
X63399D01*
Y183820D01*
X63311D01*
Y184170D01*
X63223D01*
Y184784D01*
X63135D01*
Y185573D01*
X63223D01*
Y186011D01*
X63311D01*
Y186362D01*
X63399D01*
Y186625D01*
X63486D01*
Y186800D01*
X63574D01*
Y186976D01*
X63399D01*
Y186888D01*
X63311D01*
Y186800D01*
X63135D01*
Y186713D01*
X62960D01*
Y186625D01*
X62873D01*
Y186537D01*
X62610D01*
Y186450D01*
X62434D01*
Y186362D01*
X62171D01*
Y186274D01*
X61908D01*
Y186187D01*
X61207D01*
Y186099D01*
X60769D01*
Y186187D01*
X59804D01*
Y186274D01*
X58051D01*
Y186187D01*
X57788D01*
Y186099D01*
X57700D01*
Y186011D01*
X57613D01*
Y185924D01*
X57963D01*
Y186011D01*
X59191D01*
Y185924D01*
X59366D01*
Y185836D01*
X59454D01*
Y185748D01*
X59629D01*
Y185661D01*
X59717D01*
Y185573D01*
X59804D01*
Y185485D01*
X59892D01*
Y185310D01*
X59980D01*
Y185135D01*
X60067D01*
Y184959D01*
X60155D01*
Y184696D01*
X60243D01*
Y184258D01*
X60330D01*
Y183732D01*
X60243D01*
Y183644D01*
X60155D01*
Y183557D01*
X60067D01*
Y183469D01*
X59980D01*
Y183381D01*
X59892D01*
Y183294D01*
X59804D01*
Y183206D01*
X59629D01*
Y183118D01*
X59541D01*
Y183031D01*
X59366D01*
Y182943D01*
X59278D01*
Y182855D01*
X59103D01*
Y182768D01*
X58928D01*
Y182680D01*
X58752D01*
Y182592D01*
X58577D01*
Y182505D01*
X58402D01*
Y182417D01*
X58226D01*
Y182329D01*
X57963D01*
Y182242D01*
X57788D01*
Y182154D01*
X57613D01*
Y181979D01*
X57700D01*
Y181891D01*
X57788D01*
Y181803D01*
X57963D01*
Y181716D01*
X58139D01*
Y181628D01*
X58314D01*
Y181540D01*
X58752D01*
Y181453D01*
X59804D01*
Y181540D01*
X59980D01*
Y182680D01*
X60067D01*
Y182768D01*
X60243D01*
Y182592D01*
X60330D01*
Y182154D01*
X60418D01*
Y181803D01*
X60506D01*
Y181540D01*
X60593D01*
Y181365D01*
X60681D01*
Y181190D01*
X60769D01*
Y181102D01*
X60856D01*
Y180927D01*
X60944D01*
Y180839D01*
X61032D01*
Y180751D01*
X61119D01*
Y180576D01*
X61207D01*
Y180488D01*
X61295D01*
Y180401D01*
X61382D01*
Y180313D01*
X61470D01*
Y180225D01*
X61558D01*
Y180138D01*
X61645D01*
Y179962D01*
X61733D01*
Y179875D01*
X61821D01*
Y179787D01*
X61908D01*
Y179612D01*
X61996D01*
Y179524D01*
X62084D01*
Y179349D01*
X62171D01*
Y179261D01*
X62259D01*
Y179086D01*
X62347D01*
Y178998D01*
X62434D01*
Y178910D01*
X62522D01*
Y178735D01*
X62610D01*
Y178647D01*
X62697D01*
Y178560D01*
X62785D01*
Y178472D01*
X62873D01*
Y178384D01*
X62960D01*
Y178297D01*
X63048D01*
Y178209D01*
X63135D01*
Y178121D01*
X63223D01*
Y178034D01*
X63399D01*
Y177946D01*
X63486D01*
Y177858D01*
X63574D01*
Y177771D01*
X63749D01*
Y177683D01*
X63837D01*
Y177595D01*
X64012D01*
Y177508D01*
X64100D01*
Y177420D01*
X64275D01*
Y177332D01*
X64450D01*
Y177245D01*
X64538D01*
Y177157D01*
X64714D01*
Y176982D01*
X64801D01*
Y176719D01*
X64889D01*
Y176456D01*
X64977D01*
Y176193D01*
X65064D01*
Y175930D01*
X65152D01*
Y175667D01*
X65240D01*
Y175404D01*
X65327D01*
Y175141D01*
X65415D01*
Y174878D01*
X65503D01*
Y174702D01*
X65590D01*
Y174439D01*
X65678D01*
Y174264D01*
X65766D01*
Y174001D01*
X65853D01*
Y173826D01*
X65941D01*
Y173563D01*
X66028D01*
Y173387D01*
X66116D01*
Y173124D01*
X66204D01*
Y172949D01*
X66291D01*
Y172686D01*
X66379D01*
Y172511D01*
X66467D01*
Y172248D01*
X66554D01*
Y172073D01*
X66642D01*
Y171897D01*
X66730D01*
Y171634D01*
X66817D01*
Y171459D01*
X66905D01*
Y171283D01*
X66993D01*
Y171021D01*
X67080D01*
Y170845D01*
X67168D01*
Y170582D01*
X67256D01*
Y170407D01*
X67344D01*
Y170231D01*
X67431D01*
Y170056D01*
X67519D01*
Y169881D01*
X67607D01*
Y169706D01*
X67694D01*
Y169443D01*
X67782D01*
Y169267D01*
X67870D01*
Y169092D01*
X67957D01*
Y168916D01*
X68045D01*
Y168654D01*
X68133D01*
Y168478D01*
X68220D01*
Y168303D01*
X68308D01*
Y168127D01*
X68396D01*
Y167952D01*
X68483D01*
Y167777D01*
X68571D01*
Y167602D01*
X68658D01*
Y167426D01*
X68746D01*
Y167251D01*
X68834D01*
Y167076D01*
X68921D01*
Y166900D01*
X69009D01*
Y166725D01*
X69097D01*
Y166549D01*
X69184D01*
Y166374D01*
X69272D01*
Y166199D01*
X69360D01*
Y166024D01*
X69447D01*
Y165848D01*
X69535D01*
Y165673D01*
X69623D01*
Y165497D01*
X69710D01*
Y165322D01*
X69798D01*
Y165147D01*
X69886D01*
Y165059D01*
X69974D01*
Y164884D01*
X70061D01*
Y164708D01*
X70149D01*
Y164533D01*
X70237D01*
Y164358D01*
X70324D01*
Y164270D01*
X70412D01*
Y164095D01*
X70500D01*
Y163920D01*
X70587D01*
Y163744D01*
X70675D01*
Y163657D01*
X70763D01*
Y163481D01*
X70850D01*
Y163306D01*
X70938D01*
Y163218D01*
X71026D01*
Y163043D01*
X71113D01*
Y162955D01*
X71201D01*
Y162780D01*
X71288D01*
Y162605D01*
X71376D01*
Y162517D01*
X71464D01*
Y162341D01*
X71551D01*
Y162254D01*
X71639D01*
Y162078D01*
X71727D01*
Y161991D01*
X71814D01*
Y161816D01*
X71902D01*
Y161728D01*
X71990D01*
Y161553D01*
X72077D01*
Y161465D01*
X72165D01*
Y161290D01*
X72253D01*
Y160939D01*
X72165D01*
Y160588D01*
X72077D01*
Y160238D01*
X71990D01*
Y159799D01*
X71902D01*
Y159449D01*
X71814D01*
Y159010D01*
X71727D01*
Y158572D01*
X71639D01*
Y158134D01*
X71551D01*
Y157608D01*
X71464D01*
Y157082D01*
X71376D01*
Y156380D01*
X71288D01*
Y155416D01*
X71201D01*
Y153224D01*
X71113D01*
Y152085D01*
X71201D01*
Y151997D01*
X71464D01*
Y151909D01*
X71814D01*
Y151822D01*
X72077D01*
Y151734D01*
X72340D01*
Y151646D01*
X72516D01*
Y151559D01*
X72779D01*
Y151471D01*
X72954D01*
Y151383D01*
X73129D01*
Y151296D01*
X73392D01*
Y151208D01*
X73568D01*
Y151120D01*
X73656D01*
Y151033D01*
X73918D01*
Y150945D01*
X74006D01*
Y150857D01*
X74181D01*
Y150770D01*
X74269D01*
Y150682D01*
X74357D01*
Y150594D01*
X74532D01*
Y150507D01*
X74620D01*
Y150419D01*
X74707D01*
Y150331D01*
X74795D01*
Y150244D01*
X74883D01*
Y150156D01*
X74970D01*
Y150068D01*
X75058D01*
Y149981D01*
X75146D01*
Y149893D01*
X75233D01*
Y149805D01*
X75321D01*
Y149718D01*
X75409D01*
Y149630D01*
X75496D01*
Y149542D01*
X75584D01*
Y149455D01*
X75672D01*
Y149367D01*
X75759D01*
Y149279D01*
X75847D01*
Y149192D01*
X75935D01*
Y149104D01*
X76022D01*
Y149016D01*
X76110D01*
Y148929D01*
X76198D01*
Y148841D01*
X76548D01*
Y148929D01*
X76724D01*
Y149016D01*
X76899D01*
Y149104D01*
X77162D01*
Y149192D01*
X77337D01*
Y149279D01*
X77600D01*
Y149367D01*
X77951D01*
Y149455D01*
X78302D01*
Y149542D01*
X78828D01*
Y149630D01*
X79617D01*
Y149718D01*
X80055D01*
Y149630D01*
X81370D01*
Y149542D01*
X81896D01*
Y149455D01*
X82247D01*
Y149367D01*
X82597D01*
Y149279D01*
X82948D01*
Y149192D01*
X83036D01*
Y149279D01*
X83211D01*
Y149367D01*
X83299D01*
Y149455D01*
X83386D01*
Y149542D01*
X83474D01*
Y149630D01*
X83562D01*
Y149718D01*
X83737D01*
Y149805D01*
X83825D01*
Y149893D01*
X84000D01*
Y149981D01*
X84351D01*
Y150068D01*
X84526D01*
Y149981D01*
X84877D01*
Y149893D01*
X85052D01*
Y149805D01*
X85227D01*
Y149718D01*
X85315D01*
Y149630D01*
X85490D01*
Y149542D01*
X85578D01*
Y149455D01*
X85753D01*
Y149367D01*
X85841D01*
Y149279D01*
X86016D01*
Y149192D01*
X86104D01*
Y149104D01*
X86279D01*
Y149016D01*
X86455D01*
Y148929D01*
X86630D01*
Y148841D01*
X86981D01*
Y148753D01*
X88383D01*
Y148841D01*
X88909D01*
Y148929D01*
X89085D01*
Y149016D01*
X89172D01*
Y149192D01*
X89085D01*
Y149279D01*
X88997D01*
Y149367D01*
X88909D01*
Y149455D01*
X88822D01*
Y149542D01*
X88646D01*
Y149630D01*
X88559D01*
Y149718D01*
X88471D01*
Y149805D01*
X88208D01*
Y149893D01*
X88033D01*
Y149981D01*
X87682D01*
Y150068D01*
X87331D01*
Y150156D01*
X86981D01*
Y150244D01*
X86718D01*
Y150331D01*
X86455D01*
Y150419D01*
X86192D01*
Y150507D01*
X86016D01*
Y150594D01*
X85841D01*
Y150682D01*
X85666D01*
Y150770D01*
X85490D01*
Y150857D01*
X85403D01*
Y150945D01*
X85227D01*
Y151033D01*
X85140D01*
Y151120D01*
X85052D01*
Y151208D01*
X84964D01*
Y151296D01*
X84877D01*
Y151383D01*
X84789D01*
Y151471D01*
X84614D01*
Y151559D01*
X84526D01*
Y151646D01*
X84438D01*
Y151734D01*
X84351D01*
Y151822D01*
X84263D01*
Y151909D01*
X84175D01*
Y151997D01*
X84088D01*
Y152085D01*
X84000D01*
Y152260D01*
X83912D01*
Y152348D01*
X83825D01*
Y152435D01*
X83737D01*
Y152523D01*
X83649D01*
Y152611D01*
X83562D01*
Y152698D01*
X83474D01*
Y152874D01*
X83386D01*
Y152961D01*
X83299D01*
Y153137D01*
X83211D01*
Y153312D01*
X83123D01*
Y153487D01*
X83036D01*
Y153663D01*
X82948D01*
Y153926D01*
X82860D01*
Y154189D01*
X82948D01*
Y154101D01*
X83036D01*
Y153926D01*
X83123D01*
Y153838D01*
X83211D01*
Y153663D01*
X83299D01*
Y153487D01*
X83386D01*
Y153400D01*
X83474D01*
Y153224D01*
X83562D01*
Y153137D01*
X83649D01*
Y153049D01*
X83737D01*
Y152874D01*
X83825D01*
Y152786D01*
X83912D01*
Y152698D01*
X84000D01*
Y152611D01*
X84088D01*
Y152523D01*
X84175D01*
Y152435D01*
X84263D01*
Y152348D01*
X84351D01*
Y152260D01*
X84438D01*
Y152172D01*
X84526D01*
Y152085D01*
X84614D01*
Y151997D01*
X84701D01*
Y151909D01*
X84789D01*
Y151822D01*
X84877D01*
Y151734D01*
X84964D01*
Y151646D01*
X85052D01*
Y151559D01*
X85227D01*
Y151471D01*
X85315D01*
Y151383D01*
X85403D01*
Y151296D01*
X85490D01*
Y151208D01*
X85666D01*
Y151120D01*
X85841D01*
Y151033D01*
X85929D01*
Y150945D01*
X86104D01*
Y150857D01*
X86279D01*
Y150770D01*
X86542D01*
Y150682D01*
X86718D01*
Y150594D01*
X87068D01*
Y150507D01*
X87419D01*
Y150419D01*
X87682D01*
Y150331D01*
X87857D01*
Y150244D01*
X88120D01*
Y150156D01*
X88296D01*
Y150068D01*
X88471D01*
Y149981D01*
X88559D01*
Y149893D01*
X88734D01*
Y149805D01*
X88822D01*
Y149718D01*
X88909D01*
Y149630D01*
X88997D01*
Y149542D01*
X89172D01*
Y149455D01*
X89260D01*
Y149367D01*
X89348D01*
Y149279D01*
X89435D01*
Y149192D01*
X89523D01*
Y149279D01*
X89698D01*
Y149367D01*
X89874D01*
Y149455D01*
X89961D01*
Y149542D01*
X90137D01*
Y149630D01*
X90312D01*
Y149718D01*
X90487D01*
Y149805D01*
X90663D01*
Y149893D01*
X90838D01*
Y149981D01*
X91013D01*
Y150068D01*
X91189D01*
Y150156D01*
X91452D01*
Y150244D01*
X91890D01*
Y150331D01*
X92854D01*
Y150244D01*
X93819D01*
Y150156D01*
X94169D01*
Y150068D01*
X94345D01*
Y149893D01*
X94257D01*
Y149805D01*
X93819D01*
Y149893D01*
X91802D01*
Y149805D01*
X91364D01*
Y149718D01*
X91189D01*
Y149630D01*
X91013D01*
Y149542D01*
X90838D01*
Y149455D01*
X90663D01*
Y149367D01*
X90487D01*
Y149279D01*
X90312D01*
Y149192D01*
X90224D01*
Y149104D01*
X90049D01*
Y149016D01*
X89874D01*
Y148929D01*
X89698D01*
Y148841D01*
X89523D01*
Y148753D01*
X89348D01*
Y148666D01*
X89172D01*
Y148578D01*
X88997D01*
Y148490D01*
X88734D01*
Y148403D01*
X88296D01*
Y148315D01*
X87419D01*
Y148403D01*
X86805D01*
Y148490D01*
X86455D01*
Y148578D01*
X86279D01*
Y148666D01*
X86104D01*
Y148753D01*
X86016D01*
Y148841D01*
X85841D01*
Y148929D01*
X85666D01*
Y149016D01*
X85578D01*
Y149104D01*
X85403D01*
Y149192D01*
X85315D01*
Y149279D01*
X85140D01*
Y149367D01*
X85052D01*
Y149455D01*
X84877D01*
Y149542D01*
X84701D01*
Y149630D01*
X84088D01*
Y149542D01*
X83912D01*
Y149455D01*
X83825D01*
Y149367D01*
X83737D01*
Y149279D01*
X83649D01*
Y149192D01*
X83562D01*
Y149016D01*
X83474D01*
Y148140D01*
X83562D01*
Y147877D01*
X83649D01*
Y147614D01*
X83737D01*
Y147438D01*
X83825D01*
Y147175D01*
X83912D01*
Y147000D01*
X84000D01*
Y146737D01*
X84088D01*
Y146474D01*
X84175D01*
Y146211D01*
X84263D01*
Y145860D01*
X84351D01*
Y145510D01*
X84438D01*
Y144633D01*
X84526D01*
Y144370D01*
X84438D01*
Y143406D01*
X84351D01*
Y142880D01*
X84263D01*
Y142441D01*
X84175D01*
Y142091D01*
X84088D01*
Y141652D01*
X84000D01*
Y141302D01*
X83912D01*
Y140951D01*
X83825D01*
Y140600D01*
X83737D01*
Y140250D01*
X83649D01*
Y139811D01*
X83562D01*
Y139285D01*
X83474D01*
Y137970D01*
X83562D01*
Y137795D01*
X83649D01*
Y137707D01*
X83737D01*
Y137532D01*
X83825D01*
Y137444D01*
X83912D01*
Y137357D01*
X84000D01*
Y137269D01*
X84088D01*
Y137182D01*
X84175D01*
Y137094D01*
X84263D01*
Y137006D01*
X84351D01*
Y136918D01*
X84438D01*
Y136831D01*
X84526D01*
Y136743D01*
X84614D01*
Y136656D01*
X84701D01*
Y136568D01*
X84789D01*
Y136480D01*
X84877D01*
Y136392D01*
X84964D01*
Y136305D01*
X85052D01*
Y136217D01*
X85227D01*
Y136130D01*
X85315D01*
Y136042D01*
X85403D01*
Y135954D01*
X85490D01*
Y135866D01*
X85666D01*
Y135779D01*
X85841D01*
Y135691D01*
X85929D01*
Y135604D01*
X86104D01*
Y135516D01*
X86192D01*
Y135428D01*
X86367D01*
Y135340D01*
X86542D01*
Y135253D01*
X86630D01*
Y135165D01*
X86805D01*
Y135077D01*
X86981D01*
Y134990D01*
X87156D01*
Y134902D01*
X87331D01*
Y134815D01*
X87507D01*
Y134727D01*
X87770D01*
Y134639D01*
X88033D01*
Y134551D01*
X88296D01*
Y134464D01*
X88646D01*
Y134376D01*
X89085D01*
Y134289D01*
X91189D01*
Y134376D01*
X91802D01*
Y134464D01*
X92153D01*
Y134551D01*
X92416D01*
Y134639D01*
X92679D01*
Y134727D01*
X92942D01*
Y134815D01*
X93117D01*
Y134902D01*
X93293D01*
Y134990D01*
X93468D01*
Y135077D01*
X93643D01*
Y135165D01*
X93819D01*
Y135253D01*
X93994D01*
Y135340D01*
X94169D01*
Y135428D01*
X94345D01*
Y135516D01*
X94432D01*
Y135604D01*
X94608D01*
Y135691D01*
X94695D01*
Y135779D01*
X94871D01*
Y135866D01*
X94958D01*
Y135954D01*
X95046D01*
Y136042D01*
X95134D01*
Y136130D01*
X95221D01*
Y136217D01*
X95397D01*
Y136305D01*
X95484D01*
Y136392D01*
X95572D01*
Y136480D01*
X95660D01*
Y136568D01*
X95747D01*
Y136656D01*
X95835D01*
Y136743D01*
X95923D01*
Y136831D01*
X96010D01*
Y136918D01*
X96098D01*
Y137006D01*
X96186D01*
Y137094D01*
X96273D01*
Y137182D01*
X96361D01*
Y137269D01*
X96448D01*
Y137357D01*
X96536D01*
Y137444D01*
X96624D01*
Y137532D01*
X96712D01*
Y137620D01*
X96799D01*
Y137707D01*
X96887D01*
Y137795D01*
X96974D01*
Y137883D01*
X97062D01*
Y137970D01*
X97150D01*
Y138058D01*
X97238D01*
Y138146D01*
X97325D01*
Y138233D01*
X97413D01*
Y138321D01*
X97500D01*
Y138409D01*
X97588D01*
Y138496D01*
X97676D01*
Y138584D01*
X97764D01*
Y138672D01*
X97851D01*
Y138759D01*
X97939D01*
Y138847D01*
X98027D01*
Y138935D01*
X98114D01*
Y139022D01*
X98202D01*
Y139110D01*
X98289D01*
Y139198D01*
X98377D01*
Y139373D01*
X98465D01*
Y139461D01*
X98553D01*
Y139548D01*
X98640D01*
Y139724D01*
X98728D01*
Y139987D01*
X98815D01*
Y140250D01*
X98903D01*
Y140513D01*
X98991D01*
Y140688D01*
X99079D01*
Y140776D01*
X99166D01*
Y140951D01*
X99254D01*
Y141039D01*
X99341D01*
Y141126D01*
X99429D01*
Y141302D01*
X99517D01*
Y141389D01*
X99605D01*
Y141477D01*
X99692D01*
Y141565D01*
X99780D01*
Y141652D01*
X99867D01*
Y141740D01*
X99955D01*
Y141828D01*
X100043D01*
Y141915D01*
X100131D01*
Y142003D01*
X100218D01*
Y142091D01*
X100393D01*
Y142178D01*
X100481D01*
Y142266D01*
X100569D01*
Y142354D01*
X100656D01*
Y142441D01*
X100832D01*
Y142529D01*
X100920D01*
Y142617D01*
X101007D01*
Y142704D01*
X101095D01*
Y142792D01*
X101270D01*
Y142880D01*
X101358D01*
Y142967D01*
X101446D01*
Y143055D01*
X101533D01*
Y143143D01*
X101621D01*
Y143230D01*
X101708D01*
Y143669D01*
X101796D01*
Y146123D01*
X101708D01*
Y146299D01*
X101621D01*
Y146562D01*
X101533D01*
Y146737D01*
X101446D01*
Y146912D01*
X101358D01*
Y147088D01*
X101270D01*
Y147263D01*
X101182D01*
Y147438D01*
X101095D01*
Y147614D01*
X101007D01*
Y147789D01*
X100920D01*
Y147964D01*
X100832D01*
Y148052D01*
X100744D01*
Y148227D01*
X100656D01*
Y148315D01*
X100569D01*
Y148490D01*
X100481D01*
Y148578D01*
X100393D01*
Y148666D01*
X100306D01*
Y148841D01*
X100218D01*
Y148929D01*
X100131D01*
Y149016D01*
X100043D01*
Y149104D01*
X99955D01*
Y149192D01*
X99867D01*
Y149279D01*
X99780D01*
Y149367D01*
X99692D01*
Y149455D01*
X99605D01*
Y149630D01*
X99517D01*
Y149718D01*
X99429D01*
Y149805D01*
X99341D01*
Y149893D01*
X99254D01*
Y149981D01*
X99166D01*
Y150068D01*
X99079D01*
Y150156D01*
X98991D01*
Y150244D01*
X98903D01*
Y150331D01*
X98815D01*
Y150419D01*
X98728D01*
Y150507D01*
X98640D01*
Y150594D01*
X98553D01*
Y150682D01*
X98465D01*
Y150770D01*
X98377D01*
Y150857D01*
X98289D01*
Y150945D01*
X98202D01*
Y151033D01*
X98114D01*
Y151120D01*
X98027D01*
Y151208D01*
X97939D01*
Y151296D01*
X97851D01*
Y151383D01*
X97764D01*
Y151471D01*
X97676D01*
Y151559D01*
X97588D01*
Y151646D01*
X97500D01*
Y151734D01*
X97413D01*
Y151822D01*
X97325D01*
Y151909D01*
X97238D01*
Y151997D01*
X97150D01*
Y152085D01*
X97062D01*
Y152172D01*
X96974D01*
Y152260D01*
X96887D01*
Y152348D01*
X96799D01*
Y152435D01*
X96712D01*
Y152523D01*
X96624D01*
Y152611D01*
X96536D01*
Y152698D01*
X96448D01*
Y152786D01*
X96361D01*
Y152874D01*
X96273D01*
Y152961D01*
X96186D01*
Y153049D01*
X96098D01*
Y153137D01*
X96010D01*
Y153224D01*
X95923D01*
Y153312D01*
X95835D01*
Y153400D01*
X95747D01*
Y153487D01*
X95660D01*
Y153575D01*
X95572D01*
Y153663D01*
X95484D01*
Y153750D01*
X95397D01*
Y153838D01*
X95309D01*
Y153926D01*
X95221D01*
Y154013D01*
X95134D01*
Y154101D01*
X94958D01*
Y154189D01*
X94871D01*
Y154276D01*
X94783D01*
Y154364D01*
X94695D01*
Y154452D01*
X94608D01*
Y154539D01*
X94520D01*
Y154627D01*
X94432D01*
Y154715D01*
X94345D01*
Y154802D01*
X94257D01*
Y154890D01*
X94169D01*
Y154978D01*
X94082D01*
Y155065D01*
X93994D01*
Y155153D01*
X93906D01*
Y155241D01*
X93819D01*
Y155328D01*
X93731D01*
Y155416D01*
X93643D01*
Y155504D01*
X93556D01*
Y155591D01*
X93468D01*
Y155679D01*
X93380D01*
Y155767D01*
X93293D01*
Y155854D01*
X93205D01*
Y155942D01*
X93117D01*
Y156030D01*
X92942D01*
Y156117D01*
X92854D01*
Y156205D01*
X92767D01*
Y156293D01*
X92679D01*
Y156380D01*
X92591D01*
Y156468D01*
X92504D01*
Y156556D01*
X92416D01*
Y156643D01*
X92328D01*
Y156731D01*
X92241D01*
Y156819D01*
X92153D01*
Y156906D01*
X92065D01*
Y156994D01*
X91978D01*
Y157082D01*
X91890D01*
Y157169D01*
X91802D01*
Y157257D01*
X91715D01*
Y157345D01*
X91627D01*
Y157432D01*
X91539D01*
Y157520D01*
X91452D01*
Y157608D01*
X91364D01*
Y157695D01*
X91276D01*
Y157783D01*
X91189D01*
Y157871D01*
X91101D01*
Y157958D01*
X91013D01*
Y158046D01*
X90926D01*
Y158134D01*
X90838D01*
Y158221D01*
X90750D01*
Y158309D01*
X90663D01*
Y158397D01*
X90575D01*
Y158572D01*
X90487D01*
Y158660D01*
X90400D01*
Y158747D01*
X90312D01*
Y158835D01*
X90224D01*
Y158923D01*
X90137D01*
Y159010D01*
X90049D01*
Y159098D01*
X89961D01*
Y159186D01*
X89874D01*
Y159273D01*
X89786D01*
Y159361D01*
X89698D01*
Y159449D01*
X89611D01*
Y159624D01*
X89523D01*
Y159712D01*
X89435D01*
Y159799D01*
X89348D01*
Y159887D01*
X89260D01*
Y160062D01*
X89172D01*
Y160150D01*
X89085D01*
Y160238D01*
X88997D01*
Y160413D01*
X88909D01*
Y160501D01*
X88822D01*
Y160588D01*
X88734D01*
Y160764D01*
X88646D01*
Y160851D01*
X88559D01*
Y160939D01*
X88471D01*
Y161114D01*
X88383D01*
Y161202D01*
X88296D01*
Y161290D01*
X88208D01*
Y161465D01*
X88120D01*
Y161553D01*
X88033D01*
Y161640D01*
X87945D01*
Y161816D01*
X87857D01*
Y161903D01*
X87770D01*
Y161991D01*
X87682D01*
Y162078D01*
X87594D01*
Y162166D01*
X87507D01*
Y162254D01*
X87419D01*
Y162429D01*
X87331D01*
Y162517D01*
X87156D01*
Y162605D01*
X87068D01*
Y162692D01*
X86981D01*
Y162780D01*
X86893D01*
Y162868D01*
X86805D01*
Y162955D01*
X86718D01*
Y163043D01*
X86542D01*
Y163130D01*
X86455D01*
Y163218D01*
X86279D01*
Y163306D01*
X86192D01*
Y163393D01*
X86016D01*
Y163481D01*
X85929D01*
Y163569D01*
X85753D01*
Y163657D01*
X85578D01*
Y163744D01*
X85403D01*
Y163832D01*
X85315D01*
Y163920D01*
X85140D01*
Y164007D01*
X84964D01*
Y164095D01*
X84789D01*
Y164182D01*
X84614D01*
Y164270D01*
X84438D01*
Y164358D01*
X84263D01*
Y164445D01*
X84088D01*
Y164533D01*
X84000D01*
Y164621D01*
X83825D01*
Y164708D01*
X83649D01*
Y164796D01*
X83474D01*
Y164884D01*
X83299D01*
Y164972D01*
X83123D01*
Y165059D01*
X82948D01*
Y165147D01*
X82773D01*
Y165235D01*
X82597D01*
Y165322D01*
X82510D01*
Y165410D01*
X82334D01*
Y165497D01*
X82159D01*
Y165585D01*
X81984D01*
Y165673D01*
X81808D01*
Y165760D01*
X81721D01*
Y165848D01*
X81545D01*
Y165936D01*
X81370D01*
Y166024D01*
X81282D01*
Y166111D01*
X81107D01*
Y166199D01*
X81019D01*
Y166287D01*
X80932D01*
Y166374D01*
X80756D01*
Y166462D01*
X80669D01*
Y166549D01*
X80581D01*
Y166637D01*
X80493D01*
Y166725D01*
X80318D01*
Y166812D01*
X80230D01*
Y166900D01*
X80143D01*
Y166988D01*
X80055D01*
Y167076D01*
X79967D01*
Y167163D01*
X79880D01*
Y167251D01*
X79792D01*
Y167339D01*
X79704D01*
Y167426D01*
X79617D01*
Y167514D01*
X79529D01*
Y167689D01*
X79441D01*
Y167777D01*
X79354D01*
Y167864D01*
X79266D01*
Y168040D01*
X79178D01*
Y168127D01*
X79091D01*
Y168303D01*
X79003D01*
Y168566D01*
X78915D01*
Y168741D01*
X78828D01*
Y169004D01*
X78740D01*
Y169267D01*
X78652D01*
Y169443D01*
X78565D01*
Y169793D01*
X78477D01*
Y170144D01*
X78389D01*
Y170582D01*
X78302D01*
Y171196D01*
X78214D01*
Y171985D01*
X78126D01*
Y173563D01*
X78039D01*
Y177332D01*
X78126D01*
Y178910D01*
X78214D01*
Y179962D01*
X78302D01*
Y180751D01*
X78389D01*
Y181365D01*
X78477D01*
Y181979D01*
X78565D01*
Y182417D01*
X78652D01*
Y182855D01*
X78740D01*
Y183206D01*
X78828D01*
Y183557D01*
X78915D01*
Y183907D01*
X79003D01*
Y184170D01*
X79091D01*
Y184433D01*
X79178D01*
Y184609D01*
X79266D01*
Y184872D01*
X79354D01*
Y185047D01*
X79441D01*
Y185222D01*
X79529D01*
Y185398D01*
X79617D01*
Y185573D01*
X79704D01*
Y185661D01*
X79792D01*
Y185748D01*
X79880D01*
Y185924D01*
X79967D01*
Y186011D01*
X80055D01*
Y186187D01*
X80143D01*
Y186274D01*
X80230D01*
Y186362D01*
X80318D01*
Y186537D01*
X80406D01*
Y186625D01*
X80493D01*
Y186800D01*
X80581D01*
Y186888D01*
X80669D01*
Y187063D01*
X80756D01*
Y187151D01*
X80844D01*
Y187326D01*
X80932D01*
Y187502D01*
X81019D01*
Y187677D01*
X80581D01*
Y187589D01*
X80230D01*
Y187502D01*
X79704D01*
Y187414D01*
X78740D01*
Y187502D01*
X78302D01*
Y187589D01*
X78039D01*
Y187677D01*
X77863D01*
Y187765D01*
X77776D01*
Y188554D01*
X77863D01*
Y188904D01*
X77951D01*
Y189167D01*
X78039D01*
Y189343D01*
X78126D01*
Y189430D01*
X78214D01*
Y189518D01*
X78302D01*
Y189606D01*
X78389D01*
Y189693D01*
X78477D01*
Y189781D01*
D02*
G37*
G36*
X80230D02*
X79704D01*
Y189693D01*
X79266D01*
Y189606D01*
X79003D01*
Y189518D01*
X78828D01*
Y189430D01*
X78652D01*
Y189343D01*
X78565D01*
Y189255D01*
X78477D01*
Y189167D01*
X78389D01*
Y188992D01*
X78302D01*
Y188817D01*
X78214D01*
Y188028D01*
X78302D01*
Y187940D01*
X78477D01*
Y187852D01*
X78740D01*
Y188028D01*
X78828D01*
Y188115D01*
Y188554D01*
X78915D01*
Y188641D01*
X79003D01*
Y188729D01*
X79091D01*
Y188817D01*
X79266D01*
Y188904D01*
X80055D01*
Y188817D01*
X80230D01*
Y188729D01*
X80318D01*
Y188641D01*
X80406D01*
Y188378D01*
X80493D01*
Y188115D01*
X80844D01*
Y188203D01*
X81019D01*
Y188291D01*
X81107D01*
Y188641D01*
X81019D01*
Y188904D01*
X80932D01*
Y189080D01*
X80844D01*
Y189167D01*
X80756D01*
Y189343D01*
X80669D01*
Y189430D01*
X80581D01*
Y189518D01*
X80493D01*
Y189606D01*
X80406D01*
Y189693D01*
X80230D01*
Y189781D01*
D02*
G37*
G36*
X79967Y188554D02*
X79354D01*
Y188466D01*
X79178D01*
Y188378D01*
X79091D01*
Y188203D01*
X79003D01*
Y187940D01*
X78915D01*
Y187852D01*
X79091D01*
Y188115D01*
X79178D01*
Y188203D01*
X79266D01*
Y188291D01*
X79354D01*
Y188378D01*
X79441D01*
Y188466D01*
X79617D01*
Y188378D01*
X79792D01*
Y188291D01*
X79880D01*
Y188203D01*
X79967D01*
Y188115D01*
X80055D01*
Y188028D01*
X80143D01*
Y187940D01*
X80230D01*
Y188203D01*
X80143D01*
Y188378D01*
X80055D01*
Y188466D01*
X79967D01*
Y188554D01*
D02*
G37*
G36*
X79704Y187940D02*
X79354D01*
Y187852D01*
Y187765D01*
X79617D01*
Y187852D01*
X79704D01*
Y187940D01*
D02*
G37*
G36*
X59103Y185573D02*
X57788D01*
Y185485D01*
X57525D01*
Y185398D01*
X57350D01*
Y185310D01*
X57262D01*
Y185222D01*
X57174D01*
Y185135D01*
X57087D01*
Y184959D01*
X56999D01*
Y183031D01*
X57087D01*
Y182680D01*
X57174D01*
Y182505D01*
X57525D01*
Y182592D01*
X57876D01*
Y182680D01*
X58139D01*
Y182768D01*
X58226D01*
Y183118D01*
X58139D01*
Y183206D01*
X58051D01*
Y183557D01*
X57963D01*
Y183820D01*
X58051D01*
Y184170D01*
X58139D01*
Y184258D01*
X58226D01*
Y184346D01*
X58314D01*
Y184433D01*
X58402D01*
Y184521D01*
X58665D01*
Y184609D01*
X59541D01*
Y184521D01*
X59717D01*
Y184433D01*
X59804D01*
Y184346D01*
X59892D01*
Y184609D01*
X59804D01*
Y184784D01*
X59717D01*
Y184959D01*
X59629D01*
Y185135D01*
X59541D01*
Y185222D01*
X59454D01*
Y185310D01*
X59366D01*
Y185398D01*
X59278D01*
Y185485D01*
X59103D01*
Y185573D01*
D02*
G37*
G36*
X59454Y184258D02*
X58665D01*
Y184170D01*
X58489D01*
Y184083D01*
X58402D01*
Y183907D01*
X58314D01*
Y183294D01*
X58402D01*
Y183118D01*
X58489D01*
Y183031D01*
X58665D01*
Y183206D01*
X58577D01*
Y183732D01*
X58665D01*
Y183820D01*
X58752D01*
Y183907D01*
X58840D01*
Y183995D01*
X59015D01*
Y184083D01*
X59366D01*
Y183995D01*
X59454D01*
Y183907D01*
X59629D01*
Y183820D01*
X59717D01*
Y183995D01*
X59629D01*
Y184083D01*
X59541D01*
Y184170D01*
X59454D01*
Y184258D01*
D02*
G37*
G36*
X59366Y183644D02*
X59015D01*
Y183557D01*
X58928D01*
Y183381D01*
X58840D01*
Y183294D01*
X58928D01*
Y183206D01*
X59191D01*
Y183294D01*
X59278D01*
Y183381D01*
X59366D01*
Y183469D01*
X59454D01*
Y183557D01*
X59366D01*
Y183644D01*
D02*
G37*
G36*
X70061Y187589D02*
X65503D01*
Y187502D01*
X65064D01*
Y187414D01*
X64889D01*
Y187326D01*
X64626D01*
Y187239D01*
X64450D01*
Y187151D01*
X64363D01*
Y187063D01*
X64275D01*
Y186976D01*
X64187D01*
Y186888D01*
X64100D01*
Y186800D01*
X64012D01*
Y186713D01*
X63924D01*
Y186625D01*
X63837D01*
Y186450D01*
X63749D01*
Y186362D01*
Y186187D01*
X63661D01*
Y185748D01*
X63574D01*
Y184784D01*
X63661D01*
Y183907D01*
X63749D01*
Y183644D01*
X63837D01*
Y183469D01*
X63924D01*
Y183294D01*
X64012D01*
Y183118D01*
X64100D01*
Y182943D01*
X64187D01*
Y182855D01*
X64275D01*
Y182768D01*
X64363D01*
Y182680D01*
X64450D01*
Y182592D01*
X64626D01*
Y182505D01*
X64801D01*
Y182417D01*
X65064D01*
Y182329D01*
X65327D01*
Y182242D01*
X65766D01*
Y182154D01*
X66291D01*
Y182066D01*
X66730D01*
Y181979D01*
X67256D01*
Y181891D01*
X68133D01*
Y181979D01*
X68483D01*
Y182066D01*
X68746D01*
Y182154D01*
X68921D01*
Y182242D01*
X69097D01*
Y182329D01*
X69272D01*
Y182417D01*
X69360D01*
Y182505D01*
X69447D01*
Y182592D01*
X69623D01*
Y182680D01*
X69710D01*
Y182768D01*
X69798D01*
Y182855D01*
X69886D01*
Y182943D01*
X70061D01*
Y183031D01*
X70149D01*
Y183118D01*
X70237D01*
Y183206D01*
X70324D01*
Y183294D01*
X70412D01*
Y183381D01*
X70500D01*
Y183469D01*
X70587D01*
Y183644D01*
X70675D01*
Y183732D01*
X70763D01*
Y183820D01*
X70850D01*
Y183907D01*
X70938D01*
Y184083D01*
X71026D01*
Y184170D01*
X71113D01*
Y184346D01*
X71201D01*
Y184521D01*
X71288D01*
Y184872D01*
X71376D01*
Y186099D01*
X71288D01*
Y186450D01*
X71201D01*
Y186625D01*
X71113D01*
Y186800D01*
X71026D01*
Y186888D01*
X70938D01*
Y186976D01*
X70850D01*
Y187063D01*
X70763D01*
Y187151D01*
X70675D01*
Y187239D01*
X70587D01*
Y187326D01*
X70412D01*
Y187414D01*
X70324D01*
Y187502D01*
X70061D01*
Y187589D01*
D02*
G37*
G36*
X71201Y151646D02*
X70850D01*
Y151559D01*
X70587D01*
Y151471D01*
X70412D01*
Y151383D01*
X70237D01*
Y151296D01*
X70149D01*
Y151208D01*
X69974D01*
Y151120D01*
X69886D01*
Y151033D01*
X69710D01*
Y150945D01*
X69623D01*
Y150857D01*
X69535D01*
Y150770D01*
X69447D01*
Y150682D01*
X69360D01*
Y150594D01*
X69184D01*
Y150507D01*
X69097D01*
Y150419D01*
X69009D01*
Y150331D01*
X68921D01*
Y150244D01*
X68834D01*
Y150156D01*
X68746D01*
Y150068D01*
X68658D01*
Y149981D01*
X68571D01*
Y149893D01*
X68483D01*
Y149805D01*
X68396D01*
Y149630D01*
X68308D01*
Y149542D01*
X68220D01*
Y149455D01*
X68133D01*
Y149367D01*
X68045D01*
Y149279D01*
X67957D01*
Y149192D01*
X67870D01*
Y149016D01*
X67782D01*
Y148929D01*
X67694D01*
Y148841D01*
X67607D01*
Y148666D01*
X67519D01*
Y148578D01*
X67431D01*
Y148403D01*
X67344D01*
Y148227D01*
X67256D01*
Y148140D01*
X67168D01*
Y147964D01*
X67080D01*
Y147789D01*
X66993D01*
Y147526D01*
X66905D01*
Y147351D01*
X66817D01*
Y147175D01*
X66730D01*
Y147000D01*
X66642D01*
Y146737D01*
X66554D01*
Y146474D01*
X66467D01*
Y146299D01*
X66554D01*
Y146386D01*
X66642D01*
Y146562D01*
X66730D01*
Y146649D01*
X66817D01*
Y146737D01*
X66905D01*
Y146912D01*
X66993D01*
Y147000D01*
X67080D01*
Y147088D01*
X67168D01*
Y147175D01*
X67256D01*
Y147263D01*
X67344D01*
Y147351D01*
X67431D01*
Y147438D01*
X67519D01*
Y147614D01*
X67607D01*
Y147701D01*
X67694D01*
Y147789D01*
X67782D01*
Y147877D01*
X67870D01*
Y147964D01*
X67957D01*
Y148052D01*
X68045D01*
Y148140D01*
X68133D01*
Y148227D01*
X68220D01*
Y148315D01*
X68308D01*
Y148403D01*
X68396D01*
Y148490D01*
X68483D01*
Y148578D01*
X68571D01*
Y148666D01*
X68658D01*
Y148753D01*
X68746D01*
Y148841D01*
X68834D01*
Y148929D01*
X68921D01*
Y148753D01*
X68834D01*
Y148578D01*
X68746D01*
Y148490D01*
X68658D01*
Y148403D01*
X68571D01*
Y148227D01*
X68483D01*
Y148140D01*
X68396D01*
Y148052D01*
X68308D01*
Y147964D01*
X68220D01*
Y147877D01*
X68133D01*
Y147701D01*
X68045D01*
Y147614D01*
X67957D01*
Y147526D01*
X67870D01*
Y147438D01*
X67782D01*
Y147351D01*
X67694D01*
Y147175D01*
X67607D01*
Y147088D01*
X67519D01*
Y147000D01*
X67431D01*
Y146912D01*
X67344D01*
Y146825D01*
X67256D01*
Y146649D01*
X67168D01*
Y146562D01*
X67080D01*
Y146386D01*
X66993D01*
Y146299D01*
X66905D01*
Y146123D01*
X66817D01*
Y145860D01*
X66730D01*
Y145510D01*
X66642D01*
Y142617D01*
X66730D01*
Y142003D01*
X66817D01*
Y141565D01*
X66905D01*
Y141214D01*
X66993D01*
Y140863D01*
X67080D01*
Y140600D01*
X67168D01*
Y140250D01*
X67256D01*
Y140074D01*
X67168D01*
Y140162D01*
X67080D01*
Y140337D01*
X66993D01*
Y140513D01*
X66905D01*
Y140688D01*
X66817D01*
Y140951D01*
X66730D01*
Y141126D01*
X66642D01*
Y141477D01*
X66554D01*
Y141740D01*
X66467D01*
Y142091D01*
X66379D01*
Y142529D01*
X66291D01*
Y143143D01*
X66204D01*
Y144107D01*
X66116D01*
Y141302D01*
X66204D01*
Y140513D01*
X66291D01*
Y140074D01*
X66379D01*
Y139724D01*
X66467D01*
Y139373D01*
X66554D01*
Y139110D01*
X66642D01*
Y138935D01*
X66730D01*
Y138672D01*
X66817D01*
Y138496D01*
X66905D01*
Y138321D01*
X66993D01*
Y138233D01*
X67080D01*
Y138058D01*
X67168D01*
Y137883D01*
X67256D01*
Y137707D01*
X67344D01*
Y137620D01*
X67431D01*
Y137444D01*
X67519D01*
Y137357D01*
X67607D01*
Y137269D01*
X67694D01*
Y137182D01*
X67782D01*
Y137094D01*
X67870D01*
Y137006D01*
X67957D01*
Y136918D01*
X68045D01*
Y136831D01*
X68133D01*
Y136743D01*
X68220D01*
Y136656D01*
X68308D01*
Y136568D01*
X68396D01*
Y136480D01*
X68571D01*
Y136392D01*
X68658D01*
Y136305D01*
X68746D01*
Y136217D01*
X68921D01*
Y136130D01*
X69009D01*
Y136042D01*
X69184D01*
Y135954D01*
X69360D01*
Y135866D01*
X69623D01*
Y135779D01*
X69886D01*
Y135691D01*
X70237D01*
Y135604D01*
X70763D01*
Y135516D01*
X71551D01*
Y135428D01*
X72165D01*
Y135604D01*
X72253D01*
Y136217D01*
X72165D01*
Y136392D01*
X72077D01*
Y136656D01*
X71990D01*
Y136918D01*
X71902D01*
Y137269D01*
X71990D01*
Y137532D01*
X72077D01*
Y137620D01*
X72165D01*
Y137707D01*
X72253D01*
Y137795D01*
X72340D01*
Y137883D01*
X72516D01*
Y137970D01*
X72604D01*
Y138058D01*
X72691D01*
Y138146D01*
X72867D01*
Y138233D01*
X72954D01*
Y138321D01*
X73129D01*
Y138409D01*
X73305D01*
Y138496D01*
X73392D01*
Y138584D01*
X73568D01*
Y138672D01*
X73656D01*
Y138759D01*
X73831D01*
Y138847D01*
X74006D01*
Y138935D01*
X74094D01*
Y139022D01*
X74269D01*
Y139110D01*
X74357D01*
Y139198D01*
X74444D01*
Y139285D01*
X74620D01*
Y139373D01*
X74707D01*
Y139461D01*
X74795D01*
Y139548D01*
X74883D01*
Y139636D01*
X75058D01*
Y139724D01*
X75146D01*
Y139811D01*
X75233D01*
Y139899D01*
X75321D01*
Y139987D01*
X75409D01*
Y140250D01*
X74357D01*
Y140162D01*
X73656D01*
Y140074D01*
X73217D01*
Y139987D01*
X72954D01*
Y139899D01*
X72604D01*
Y139811D01*
X72253D01*
Y139724D01*
X71814D01*
Y139636D01*
X70324D01*
Y139724D01*
X69974D01*
Y139811D01*
X69710D01*
Y139899D01*
X69447D01*
Y139987D01*
X69184D01*
Y140074D01*
X68921D01*
Y140162D01*
X68746D01*
Y140250D01*
X68571D01*
Y140337D01*
X68396D01*
Y140425D01*
X68308D01*
Y140513D01*
X68133D01*
Y140600D01*
X68045D01*
Y140688D01*
X67957D01*
Y140863D01*
X67870D01*
Y140951D01*
X67782D01*
Y141126D01*
X67694D01*
Y141302D01*
X67607D01*
Y141477D01*
X67519D01*
Y141652D01*
Y141740D01*
Y142704D01*
X67607D01*
Y143055D01*
X67694D01*
Y143318D01*
X67782D01*
Y143756D01*
X67694D01*
Y144107D01*
X67607D01*
Y145422D01*
X67694D01*
Y145773D01*
X67782D01*
Y146036D01*
X67870D01*
Y146299D01*
X67957D01*
Y146474D01*
X68045D01*
Y146649D01*
X68133D01*
Y146825D01*
X68220D01*
Y147000D01*
X68308D01*
Y147175D01*
X68396D01*
Y147351D01*
X68483D01*
Y147526D01*
X68571D01*
Y147701D01*
X68658D01*
Y147877D01*
X68746D01*
Y148052D01*
X68834D01*
Y148227D01*
X68921D01*
Y148403D01*
X69009D01*
Y148578D01*
X69097D01*
Y148753D01*
X69184D01*
Y148929D01*
X69272D01*
Y149016D01*
X69360D01*
Y149192D01*
X69447D01*
Y149367D01*
X69535D01*
Y149455D01*
X69623D01*
Y149630D01*
X69710D01*
Y149718D01*
X69798D01*
Y149805D01*
X69886D01*
Y149893D01*
X69974D01*
Y149981D01*
X70061D01*
Y150068D01*
X70149D01*
Y150156D01*
X70237D01*
Y150244D01*
X70324D01*
Y150331D01*
X70412D01*
Y150419D01*
X70500D01*
Y150507D01*
X70675D01*
Y150594D01*
X70763D01*
Y150682D01*
X70938D01*
Y150770D01*
X71201D01*
Y150857D01*
X71902D01*
Y150770D01*
X72077D01*
Y150682D01*
X72253D01*
Y150594D01*
X72340D01*
Y150507D01*
X72428D01*
Y150419D01*
X72516D01*
Y150331D01*
X72604D01*
Y150244D01*
X72691D01*
Y150156D01*
X72779D01*
Y150068D01*
X72867D01*
Y149981D01*
X72954D01*
Y149893D01*
X73042D01*
Y149805D01*
X73129D01*
Y149630D01*
X73217D01*
Y149542D01*
X73305D01*
Y149367D01*
X73392D01*
Y149279D01*
X73480D01*
Y149104D01*
X73568D01*
Y148929D01*
X73656D01*
Y148841D01*
X73743D01*
Y148666D01*
X73831D01*
Y148490D01*
X73918D01*
Y148315D01*
X74006D01*
Y148227D01*
X74094D01*
Y148052D01*
X74181D01*
Y147877D01*
X74269D01*
Y147701D01*
X74357D01*
Y147526D01*
X74444D01*
Y147438D01*
X74532D01*
Y147351D01*
X74620D01*
Y147438D01*
X74795D01*
Y147526D01*
X74883D01*
Y147614D01*
X74970D01*
Y147701D01*
X75058D01*
Y147789D01*
X75146D01*
Y147877D01*
X75233D01*
Y147964D01*
X75321D01*
Y148052D01*
X75409D01*
Y148140D01*
X75496D01*
Y148227D01*
X75584D01*
Y148315D01*
X75672D01*
Y148403D01*
X75847D01*
Y148490D01*
X75935D01*
Y148666D01*
X75847D01*
Y148753D01*
X75759D01*
Y148841D01*
X75672D01*
Y148929D01*
X75584D01*
Y149016D01*
X75496D01*
Y149104D01*
X75409D01*
Y149192D01*
X75321D01*
Y149279D01*
X75233D01*
Y149367D01*
X75146D01*
Y149455D01*
X75058D01*
Y149542D01*
X74970D01*
Y149630D01*
X74883D01*
Y149718D01*
X74795D01*
Y149805D01*
X74707D01*
Y149893D01*
X74620D01*
Y149981D01*
X74532D01*
Y150068D01*
X74444D01*
Y150156D01*
X74269D01*
Y150244D01*
X74181D01*
Y150331D01*
X74094D01*
Y150419D01*
X74006D01*
Y150507D01*
X73831D01*
Y150594D01*
X73743D01*
Y150682D01*
X73568D01*
Y150770D01*
X73392D01*
Y150857D01*
X73217D01*
Y150945D01*
X73042D01*
Y151033D01*
X72779D01*
Y151120D01*
X72604D01*
Y151208D01*
X72428D01*
Y151296D01*
X72165D01*
Y151383D01*
X71902D01*
Y151471D01*
X71639D01*
Y151559D01*
X71201D01*
Y151646D01*
D02*
G37*
G36*
X80932Y149192D02*
X78389D01*
Y149104D01*
X78039D01*
Y149016D01*
X77776D01*
Y148929D01*
X77513D01*
Y148841D01*
X77337D01*
Y148753D01*
X77162D01*
Y148666D01*
X76987D01*
Y148578D01*
X76811D01*
Y148490D01*
X76636D01*
Y148403D01*
X76461D01*
Y148315D01*
X76373D01*
Y148227D01*
X76198D01*
Y148140D01*
X76110D01*
Y148052D01*
X76022D01*
Y147964D01*
X75847D01*
Y147877D01*
X75759D01*
Y147789D01*
X75672D01*
Y147701D01*
X75584D01*
Y147614D01*
X75496D01*
Y147526D01*
X75321D01*
Y147438D01*
X75233D01*
Y147351D01*
X75146D01*
Y147175D01*
X75058D01*
Y147088D01*
X74970D01*
Y147000D01*
X74883D01*
Y146912D01*
X74795D01*
Y146737D01*
X74707D01*
Y146649D01*
X74620D01*
Y146474D01*
X74532D01*
Y146386D01*
X74444D01*
Y146211D01*
X74357D01*
Y146036D01*
X74269D01*
Y145860D01*
X74181D01*
Y145685D01*
X74094D01*
Y145510D01*
X74006D01*
Y145334D01*
X73918D01*
Y145247D01*
X74006D01*
Y145159D01*
X74269D01*
Y145247D01*
X74707D01*
Y145334D01*
X75058D01*
Y145422D01*
X75409D01*
Y145510D01*
X75672D01*
Y145597D01*
X76022D01*
Y145685D01*
X76461D01*
Y145773D01*
X76987D01*
Y145860D01*
X78126D01*
Y145948D01*
X80669D01*
Y146036D01*
X82422D01*
Y146123D01*
X83649D01*
Y146211D01*
X83825D01*
Y146386D01*
X83737D01*
Y146474D01*
X83649D01*
Y146562D01*
X83386D01*
Y146649D01*
X83123D01*
Y146737D01*
X82597D01*
Y146825D01*
X81984D01*
Y146912D01*
X81107D01*
Y147000D01*
X78915D01*
Y146912D01*
X78302D01*
Y146825D01*
X77951D01*
Y146737D01*
X77600D01*
Y146649D01*
X77337D01*
Y146562D01*
X77074D01*
Y146474D01*
X76899D01*
Y146386D01*
X76636D01*
Y146299D01*
X76461D01*
Y146211D01*
X76285D01*
Y146123D01*
X76198D01*
Y146036D01*
X76022D01*
Y145948D01*
X75847D01*
Y146036D01*
X75935D01*
Y146123D01*
X76022D01*
Y146211D01*
X76110D01*
Y146299D01*
X76198D01*
Y146386D01*
X76373D01*
Y146474D01*
X76548D01*
Y146562D01*
X76636D01*
Y146649D01*
X76811D01*
Y146737D01*
X76987D01*
Y146825D01*
X77162D01*
Y146912D01*
X77337D01*
Y147000D01*
X77513D01*
Y147088D01*
X77776D01*
Y147175D01*
X78039D01*
Y147263D01*
X78389D01*
Y147351D01*
X81458D01*
Y147263D01*
X81984D01*
Y147175D01*
X82334D01*
Y147088D01*
X82597D01*
Y147000D01*
X82948D01*
Y146912D01*
X83299D01*
Y146825D01*
X83562D01*
Y147000D01*
X83474D01*
Y147263D01*
X83386D01*
Y147438D01*
X83299D01*
Y147701D01*
X83211D01*
Y147964D01*
X83123D01*
Y148315D01*
X83036D01*
Y148753D01*
X82948D01*
Y148841D01*
X82860D01*
Y148929D01*
X82510D01*
Y149016D01*
X82159D01*
Y149104D01*
X80932D01*
Y149192D01*
D02*
G37*
G36*
X71902Y150419D02*
X71201D01*
Y150331D01*
X70938D01*
Y150244D01*
X70850D01*
Y150156D01*
X70675D01*
Y150068D01*
X70587D01*
Y149981D01*
X70500D01*
Y149893D01*
X70412D01*
Y149805D01*
X70324D01*
Y149718D01*
X70237D01*
Y149630D01*
X70149D01*
Y149542D01*
X70061D01*
Y149367D01*
X69974D01*
Y149279D01*
X69886D01*
Y149104D01*
X69798D01*
Y149016D01*
X69710D01*
Y148841D01*
X69623D01*
Y148666D01*
X69535D01*
Y148578D01*
X69447D01*
Y148315D01*
X69360D01*
Y148140D01*
X69623D01*
Y148052D01*
X69974D01*
Y147964D01*
X70324D01*
Y147877D01*
X70587D01*
Y147789D01*
X70938D01*
Y147701D01*
X71201D01*
Y147614D01*
X71464D01*
Y147526D01*
X71727D01*
Y147438D01*
X71902D01*
Y147351D01*
X72077D01*
Y147263D01*
X72253D01*
Y147175D01*
X72428D01*
Y147088D01*
X72516D01*
Y147000D01*
X72691D01*
Y146912D01*
X72779D01*
Y146825D01*
X72954D01*
Y146737D01*
X73042D01*
Y146649D01*
X73129D01*
Y146562D01*
X73305D01*
Y146474D01*
X73392D01*
Y146386D01*
X73568D01*
Y146299D01*
X73656D01*
Y146211D01*
X73918D01*
Y146299D01*
X74006D01*
Y146474D01*
X74094D01*
Y146649D01*
X74181D01*
Y147088D01*
X74094D01*
Y147263D01*
X74006D01*
Y147438D01*
X73918D01*
Y147614D01*
X73831D01*
Y147789D01*
X73743D01*
Y147877D01*
Y147964D01*
X73656D01*
Y148140D01*
X73568D01*
Y148315D01*
X73480D01*
Y148490D01*
X73392D01*
Y148578D01*
X73305D01*
Y148753D01*
X73217D01*
Y148929D01*
X73129D01*
Y149016D01*
X73042D01*
Y149192D01*
X72954D01*
Y149279D01*
X72867D01*
Y149455D01*
X72779D01*
Y149542D01*
X72691D01*
Y149718D01*
X72604D01*
Y149805D01*
X72516D01*
Y149893D01*
X72428D01*
Y149981D01*
X72340D01*
Y150068D01*
X72253D01*
Y150156D01*
X72165D01*
Y150244D01*
X72077D01*
Y150331D01*
X71902D01*
Y150419D01*
D02*
G37*
G36*
X79091Y145597D02*
X78039D01*
Y145510D01*
X77337D01*
Y145422D01*
X76724D01*
Y145334D01*
X76285D01*
Y145247D01*
X75935D01*
Y145159D01*
X75496D01*
Y145071D01*
X75409D01*
Y144808D01*
X75496D01*
Y144721D01*
X75584D01*
Y144633D01*
X75672D01*
Y144545D01*
X75759D01*
Y144458D01*
X75847D01*
Y144370D01*
X75935D01*
Y144282D01*
X76022D01*
Y144195D01*
X76110D01*
Y144107D01*
X76198D01*
Y144019D01*
X76285D01*
Y143844D01*
X76373D01*
Y143756D01*
X76461D01*
Y143669D01*
X76548D01*
Y143581D01*
X76811D01*
Y143669D01*
X76899D01*
Y143756D01*
X76987D01*
Y143844D01*
X77074D01*
Y143932D01*
X77162D01*
Y144019D01*
X77250D01*
Y144107D01*
X77337D01*
Y144195D01*
X77425D01*
Y144282D01*
X77513D01*
Y144370D01*
X77600D01*
Y144458D01*
X77688D01*
Y144545D01*
X77863D01*
Y144633D01*
X77951D01*
Y144721D01*
X78039D01*
Y144808D01*
X78126D01*
Y144896D01*
X78302D01*
Y144984D01*
X78389D01*
Y145071D01*
X78477D01*
Y145159D01*
X78652D01*
Y145247D01*
X78828D01*
Y145334D01*
X78915D01*
Y145422D01*
X79091D01*
Y145597D01*
D02*
G37*
G36*
X69623Y147701D02*
X69184D01*
Y147614D01*
X69097D01*
Y147526D01*
X69009D01*
Y147438D01*
X68921D01*
Y147263D01*
X68834D01*
Y147175D01*
X68746D01*
Y147000D01*
X68658D01*
Y146825D01*
X68571D01*
Y146649D01*
X68483D01*
Y146474D01*
X68396D01*
Y146299D01*
X68308D01*
Y146036D01*
X68220D01*
Y145860D01*
X68133D01*
Y145597D01*
X68045D01*
Y145247D01*
X67957D01*
Y144370D01*
X68045D01*
Y144019D01*
X68133D01*
Y143932D01*
X68571D01*
Y144019D01*
X68834D01*
Y144107D01*
X69184D01*
Y144195D01*
X69535D01*
Y144282D01*
X71376D01*
Y144195D01*
X71727D01*
Y144107D01*
X71990D01*
Y144019D01*
X72253D01*
Y143932D01*
X72428D01*
Y143844D01*
X72691D01*
Y143756D01*
X72867D01*
Y143669D01*
X73129D01*
Y143581D01*
X73480D01*
Y143493D01*
X74357D01*
Y143406D01*
X74795D01*
Y143318D01*
X75146D01*
Y143230D01*
X75496D01*
Y143143D01*
X75759D01*
Y143055D01*
X76022D01*
Y142967D01*
X76461D01*
Y143055D01*
X76373D01*
Y143230D01*
X76285D01*
Y143318D01*
X76198D01*
Y143493D01*
X76110D01*
Y143581D01*
X76022D01*
Y143669D01*
X75935D01*
Y143756D01*
X75847D01*
Y143932D01*
X75759D01*
Y144019D01*
X75672D01*
Y144107D01*
X75584D01*
Y144195D01*
X75496D01*
Y144282D01*
X75409D01*
Y144370D01*
X75321D01*
Y144458D01*
X75233D01*
Y144545D01*
X75146D01*
Y144633D01*
X74970D01*
Y144721D01*
X74883D01*
Y144808D01*
X74357D01*
Y144721D01*
X74006D01*
Y144633D01*
X73656D01*
Y144545D01*
X73305D01*
Y144633D01*
Y144808D01*
X73392D01*
Y145071D01*
X73480D01*
Y145334D01*
X73568D01*
Y145597D01*
X73656D01*
Y145773D01*
X73568D01*
Y145860D01*
X73392D01*
Y145948D01*
X73305D01*
Y146036D01*
X73217D01*
Y146123D01*
X73129D01*
Y146211D01*
X72954D01*
Y146299D01*
X72867D01*
Y146386D01*
X72779D01*
Y146474D01*
X72604D01*
Y146562D01*
X72516D01*
Y146649D01*
X72340D01*
Y146737D01*
X72165D01*
Y146825D01*
X72077D01*
Y146912D01*
X71902D01*
Y147000D01*
X71639D01*
Y147088D01*
X71464D01*
Y147175D01*
X71288D01*
Y147263D01*
X71026D01*
Y147351D01*
X70675D01*
Y147438D01*
X70412D01*
Y147526D01*
X70061D01*
Y147614D01*
X69623D01*
Y147701D01*
D02*
G37*
G36*
X83649Y145685D02*
X81282D01*
Y145597D01*
X80756D01*
Y145510D01*
X80406D01*
Y145422D01*
X80055D01*
Y145334D01*
X79792D01*
Y145247D01*
X79529D01*
Y145159D01*
X79354D01*
Y145071D01*
X79178D01*
Y144984D01*
X79003D01*
Y144896D01*
X78828D01*
Y144808D01*
X78652D01*
Y144721D01*
X78565D01*
Y144633D01*
X78389D01*
Y144545D01*
X78302D01*
Y144458D01*
X78214D01*
Y144370D01*
X78039D01*
Y144282D01*
X77951D01*
Y144195D01*
X77863D01*
Y144107D01*
X77776D01*
Y144019D01*
X77688D01*
Y143932D01*
X77600D01*
Y143844D01*
X77513D01*
Y143669D01*
X77425D01*
Y143581D01*
X77337D01*
Y143493D01*
X77250D01*
Y143406D01*
Y143318D01*
X77162D01*
Y143230D01*
X77074D01*
Y143055D01*
X76987D01*
Y142967D01*
X76899D01*
Y142792D01*
X76811D01*
Y142529D01*
X76724D01*
Y142266D01*
X76636D01*
Y141915D01*
X76548D01*
Y141214D01*
X76461D01*
Y139636D01*
X76548D01*
Y139724D01*
X76724D01*
Y139811D01*
X76899D01*
Y139899D01*
X76987D01*
Y139987D01*
X77162D01*
Y140074D01*
X77250D01*
Y140162D01*
X77425D01*
Y140250D01*
X77513D01*
Y140337D01*
X77688D01*
Y140425D01*
X77776D01*
Y140513D01*
X77951D01*
Y140600D01*
X78126D01*
Y140688D01*
X78302D01*
Y140776D01*
X78477D01*
Y140863D01*
X78652D01*
Y140951D01*
X78740D01*
Y141039D01*
X78915D01*
Y141126D01*
X79091D01*
Y141214D01*
X79266D01*
Y141302D01*
X79441D01*
Y141389D01*
X79704D01*
Y141477D01*
X79880D01*
Y141565D01*
X80055D01*
Y141652D01*
X80230D01*
Y141740D01*
X80493D01*
Y141828D01*
X80669D01*
Y141915D01*
X81019D01*
Y142003D01*
X81458D01*
Y142091D01*
X82071D01*
Y142178D01*
X82773D01*
Y142091D01*
X83299D01*
Y142003D01*
X83737D01*
Y142178D01*
X83825D01*
Y142441D01*
X83912D01*
Y142967D01*
X84000D01*
Y144195D01*
X84088D01*
Y144984D01*
X84000D01*
Y145597D01*
X83649D01*
Y145685D01*
D02*
G37*
G36*
X71201Y143932D02*
X69798D01*
Y143844D01*
X69272D01*
Y143756D01*
X69009D01*
Y143669D01*
X68746D01*
Y143581D01*
X68483D01*
Y143493D01*
X68396D01*
Y143406D01*
X68308D01*
Y143318D01*
X68220D01*
Y143230D01*
X68133D01*
Y143055D01*
X68045D01*
Y142792D01*
X67957D01*
Y142354D01*
X67870D01*
Y141652D01*
X67957D01*
Y141389D01*
X68045D01*
Y141214D01*
X68133D01*
Y141126D01*
X68220D01*
Y141039D01*
X68308D01*
Y140951D01*
X68396D01*
Y140863D01*
X68483D01*
Y140776D01*
X68571D01*
Y140688D01*
X68746D01*
Y140600D01*
X68834D01*
Y140513D01*
X69097D01*
Y140425D01*
X69272D01*
Y140337D01*
X69623D01*
Y140250D01*
X69974D01*
Y140162D01*
X70149D01*
Y140250D01*
X70237D01*
Y140337D01*
X70324D01*
Y140425D01*
X70412D01*
Y140513D01*
X70500D01*
Y140600D01*
X70675D01*
Y140688D01*
X70763D01*
Y140776D01*
X70850D01*
Y140863D01*
X71026D01*
Y140951D01*
X71201D01*
Y141039D01*
X71464D01*
Y141126D01*
X72340D01*
Y141039D01*
X72691D01*
Y140951D01*
X73042D01*
Y140863D01*
X73305D01*
Y140776D01*
X73568D01*
Y140688D01*
X73831D01*
Y140600D01*
X74620D01*
Y140688D01*
X74883D01*
Y140776D01*
X74970D01*
Y140863D01*
X74883D01*
Y141039D01*
X74795D01*
Y141214D01*
X74707D01*
Y141302D01*
X74620D01*
Y141477D01*
X74532D01*
Y141565D01*
X74444D01*
Y141652D01*
X74357D01*
Y141828D01*
X74269D01*
Y141915D01*
X74181D01*
Y142003D01*
X74094D01*
Y142091D01*
X74006D01*
Y142178D01*
X73918D01*
Y142266D01*
X73831D01*
Y142354D01*
X73743D01*
Y142441D01*
X73656D01*
Y142529D01*
X73568D01*
Y142617D01*
X73480D01*
Y142704D01*
X73392D01*
Y142792D01*
X73305D01*
Y142880D01*
X73217D01*
Y142967D01*
X73129D01*
Y143055D01*
X72954D01*
Y143143D01*
X72867D01*
Y143230D01*
X72691D01*
Y143318D01*
X72604D01*
Y143406D01*
X72428D01*
Y143493D01*
X72253D01*
Y143581D01*
X72077D01*
Y143669D01*
X71814D01*
Y143756D01*
X71551D01*
Y143844D01*
X71201D01*
Y143932D01*
D02*
G37*
G36*
X72691Y140688D02*
X71376D01*
Y140600D01*
X71201D01*
Y140513D01*
X71026D01*
Y140425D01*
X70850D01*
Y140337D01*
X70763D01*
Y140250D01*
X70675D01*
Y140074D01*
X70587D01*
Y139987D01*
X71551D01*
Y140074D01*
X71902D01*
Y140162D01*
X72340D01*
Y140250D01*
X72691D01*
Y140337D01*
X72867D01*
Y140425D01*
X72954D01*
Y140513D01*
X72867D01*
Y140600D01*
X72691D01*
Y140688D01*
D02*
G37*
G36*
X83036Y141740D02*
X81545D01*
Y141652D01*
X81107D01*
Y141565D01*
X80844D01*
Y141477D01*
X80581D01*
Y141389D01*
X80318D01*
Y141302D01*
X80143D01*
Y141214D01*
X79880D01*
Y141126D01*
X79704D01*
Y141039D01*
X79529D01*
Y140951D01*
X79354D01*
Y140863D01*
X79178D01*
Y140776D01*
X79091D01*
Y140688D01*
X79003D01*
Y140600D01*
X78915D01*
Y140513D01*
X78828D01*
Y140425D01*
X78740D01*
Y140337D01*
X78652D01*
Y140074D01*
X78565D01*
Y139899D01*
X78477D01*
Y139548D01*
X78389D01*
Y139022D01*
X78477D01*
Y138759D01*
X78565D01*
Y138584D01*
X78652D01*
Y138409D01*
X78740D01*
Y138321D01*
X78828D01*
Y138233D01*
X78915D01*
Y138146D01*
X79091D01*
Y138233D01*
X79266D01*
Y138321D01*
X79354D01*
Y138409D01*
X79441D01*
Y138496D01*
X79617D01*
Y138584D01*
X79704D01*
Y138672D01*
X79967D01*
Y138759D01*
X80318D01*
Y138847D01*
X83036D01*
Y139373D01*
X82247D01*
Y139461D01*
X80932D01*
Y139373D01*
X80143D01*
Y139285D01*
X79792D01*
Y139198D01*
X79441D01*
Y139110D01*
X79178D01*
Y139022D01*
X79003D01*
Y139110D01*
X79091D01*
Y139198D01*
X79178D01*
Y139285D01*
X79266D01*
Y139373D01*
X79441D01*
Y139461D01*
X79529D01*
Y139548D01*
X79792D01*
Y139636D01*
X80055D01*
Y139724D01*
X80493D01*
Y139811D01*
X81808D01*
Y139724D01*
X82422D01*
Y139636D01*
X83123D01*
Y139811D01*
X83211D01*
Y140074D01*
X83299D01*
Y140425D01*
X83386D01*
Y140600D01*
Y140688D01*
Y140863D01*
X83474D01*
Y141565D01*
X83386D01*
Y141652D01*
X83036D01*
Y141740D01*
D02*
G37*
G36*
X101270Y127801D02*
X101182D01*
Y127713D01*
X101095D01*
Y127626D01*
X101007D01*
Y127538D01*
X100920D01*
Y127451D01*
X100744D01*
Y127363D01*
X100656D01*
Y127275D01*
X100569D01*
Y127188D01*
X100481D01*
Y127100D01*
X100306D01*
Y127012D01*
X100218D01*
Y126925D01*
X100131D01*
Y126837D01*
X99955D01*
Y126749D01*
X99867D01*
Y126662D01*
X99780D01*
Y126574D01*
X99692D01*
Y126486D01*
X99517D01*
Y126399D01*
X99429D01*
Y126311D01*
X99341D01*
Y126048D01*
X99254D01*
Y125347D01*
X99166D01*
Y123593D01*
X99079D01*
Y122541D01*
X98991D01*
Y121752D01*
X98903D01*
Y121314D01*
X98991D01*
Y121226D01*
X99079D01*
Y121139D01*
X99166D01*
Y121051D01*
X99341D01*
Y120963D01*
X99429D01*
Y120876D01*
X99517D01*
Y120788D01*
X99692D01*
Y120700D01*
X99780D01*
Y120613D01*
X99955D01*
Y120525D01*
X100131D01*
Y120437D01*
X100218D01*
Y120350D01*
X100393D01*
Y120262D01*
X100569D01*
Y120174D01*
X100744D01*
Y120087D01*
X100920D01*
Y119999D01*
X101182D01*
Y119911D01*
X101358D01*
Y119824D01*
X101533D01*
Y119736D01*
X101796D01*
Y119648D01*
X101972D01*
Y119561D01*
X102234D01*
Y119473D01*
X102585D01*
Y119385D01*
X102936D01*
Y119298D01*
X103374D01*
Y119210D01*
X104339D01*
Y119122D01*
X106705D01*
Y119210D01*
X107056D01*
Y119298D01*
X107407D01*
Y119385D01*
X107757D01*
Y119473D01*
X108020D01*
Y119561D01*
X108283D01*
Y119648D01*
X108634D01*
Y119736D01*
X108985D01*
Y119824D01*
X109248D01*
Y119911D01*
X109511D01*
Y119999D01*
X109861D01*
Y120087D01*
X110037D01*
Y120174D01*
X110300D01*
Y120262D01*
X110475D01*
Y120350D01*
X110650D01*
Y120437D01*
X110826D01*
Y120525D01*
X110913D01*
Y120613D01*
X111001D01*
Y120700D01*
X111176D01*
Y120788D01*
X111264D01*
Y120876D01*
X111352D01*
Y120963D01*
X111439D01*
Y121051D01*
X111527D01*
Y121139D01*
X111615D01*
Y121226D01*
X111702D01*
Y121314D01*
X111790D01*
Y121489D01*
X111878D01*
Y121577D01*
X111965D01*
Y121752D01*
X112053D01*
Y121928D01*
X112141D01*
Y122629D01*
X112053D01*
Y122717D01*
X111965D01*
Y122804D01*
X111790D01*
Y122892D01*
X111001D01*
Y122980D01*
X109598D01*
Y123067D01*
X107933D01*
Y123155D01*
X106881D01*
Y123243D01*
X106442D01*
Y123330D01*
X106179D01*
Y123418D01*
X106004D01*
Y123506D01*
X105741D01*
Y123593D01*
X105566D01*
Y123681D01*
X105391D01*
Y123769D01*
X105215D01*
Y123856D01*
X105040D01*
Y123944D01*
X104952D01*
Y124032D01*
X104777D01*
Y124119D01*
X104689D01*
Y124207D01*
X104514D01*
Y124295D01*
X104426D01*
Y124382D01*
X104339D01*
Y124470D01*
X104251D01*
Y124558D01*
X104163D01*
Y124645D01*
X104075D01*
Y124733D01*
X103988D01*
Y124821D01*
X103900D01*
Y124908D01*
X103813D01*
Y124996D01*
X103725D01*
Y125084D01*
X103549D01*
Y125171D01*
Y125259D01*
X103462D01*
Y125347D01*
X103374D01*
Y125434D01*
X103287D01*
Y125522D01*
X103199D01*
Y125610D01*
X103111D01*
Y125697D01*
X103024D01*
Y125785D01*
X102936D01*
Y125873D01*
X102848D01*
Y125960D01*
X102760D01*
Y126048D01*
X102673D01*
Y126136D01*
X102585D01*
Y126223D01*
X102498D01*
Y126311D01*
X102410D01*
Y126399D01*
X102322D01*
Y126486D01*
X102234D01*
Y126574D01*
X102147D01*
Y126662D01*
X102059D01*
Y126837D01*
X101972D01*
Y126925D01*
X101884D01*
Y127012D01*
X101796D01*
Y127100D01*
X101708D01*
Y127188D01*
X101621D01*
Y127363D01*
X101533D01*
Y127451D01*
X101446D01*
Y127626D01*
X101358D01*
Y127713D01*
X101270D01*
Y127801D01*
D02*
G37*
G36*
X87331Y124119D02*
X86104D01*
Y124032D01*
X85666D01*
Y123944D01*
X85052D01*
Y123856D01*
X84701D01*
Y123769D01*
X84614D01*
Y123593D01*
X84701D01*
Y123418D01*
X84789D01*
Y123330D01*
X84877D01*
Y123243D01*
X84964D01*
Y123155D01*
X85052D01*
Y122980D01*
X85140D01*
Y122892D01*
X85227D01*
Y122804D01*
X85315D01*
Y122717D01*
X85403D01*
Y122629D01*
X85490D01*
Y122454D01*
X85578D01*
Y122366D01*
X85666D01*
Y122278D01*
X85753D01*
Y122191D01*
X85841D01*
Y122103D01*
X85929D01*
Y122015D01*
X86016D01*
Y121928D01*
X86104D01*
Y121752D01*
X86192D01*
Y121665D01*
X86279D01*
Y121577D01*
X86367D01*
Y121402D01*
X86455D01*
Y121314D01*
X86542D01*
Y121226D01*
X86630D01*
Y121051D01*
X86718D01*
Y120788D01*
X86805D01*
Y120350D01*
X86893D01*
Y119473D01*
X86981D01*
Y118684D01*
X87068D01*
Y118772D01*
X87156D01*
Y118947D01*
X87244D01*
Y119122D01*
X87331D01*
Y119385D01*
X87419D01*
Y119561D01*
X87507D01*
Y119736D01*
X87594D01*
Y119999D01*
X87682D01*
Y120437D01*
X87770D01*
Y122278D01*
Y122366D01*
Y123506D01*
X87682D01*
Y123944D01*
X87594D01*
Y124032D01*
X87331D01*
Y124119D01*
D02*
G37*
G36*
X74707Y143055D02*
X73831D01*
Y142967D01*
X73918D01*
Y142880D01*
X74006D01*
Y142792D01*
X74094D01*
Y142617D01*
X74181D01*
Y142529D01*
X74269D01*
Y142441D01*
X74357D01*
Y142354D01*
X74444D01*
Y142178D01*
X74532D01*
Y142091D01*
X74620D01*
Y142003D01*
X74707D01*
Y141828D01*
X74795D01*
Y141740D01*
X74883D01*
Y141565D01*
X74970D01*
Y141477D01*
X75058D01*
Y141302D01*
X75146D01*
Y141214D01*
X75233D01*
Y141126D01*
X75321D01*
Y140951D01*
X75409D01*
Y140863D01*
X75496D01*
Y140688D01*
X75584D01*
Y140513D01*
X75672D01*
Y140425D01*
X75759D01*
Y140250D01*
X75847D01*
Y139987D01*
X75759D01*
Y139899D01*
X75672D01*
Y139811D01*
X75584D01*
Y139636D01*
X75496D01*
Y139548D01*
X75409D01*
Y139461D01*
X75321D01*
Y139373D01*
X75233D01*
Y139285D01*
X75058D01*
Y139198D01*
X74970D01*
Y139110D01*
X74883D01*
Y139022D01*
X74795D01*
Y138935D01*
X74620D01*
Y138847D01*
X74532D01*
Y138759D01*
X74357D01*
Y138672D01*
X74269D01*
Y138584D01*
X74094D01*
Y138496D01*
X74006D01*
Y138409D01*
X73831D01*
Y138321D01*
X73743D01*
Y138233D01*
X73568D01*
Y138146D01*
X73480D01*
Y138058D01*
X73305D01*
Y137970D01*
X73129D01*
Y137883D01*
X73042D01*
Y137795D01*
X72867D01*
Y137707D01*
X72779D01*
Y137620D01*
X72691D01*
Y137532D01*
X72604D01*
Y137444D01*
X72516D01*
Y137357D01*
X72428D01*
Y137269D01*
X72340D01*
Y136831D01*
X72428D01*
Y136656D01*
X72516D01*
Y136392D01*
X72604D01*
Y136130D01*
X72691D01*
Y135779D01*
X72604D01*
Y135428D01*
X72516D01*
Y135253D01*
X72428D01*
Y135077D01*
X72340D01*
Y134815D01*
X72253D01*
Y134639D01*
X72165D01*
Y134464D01*
X72077D01*
Y134201D01*
X71990D01*
Y133938D01*
X71902D01*
Y133675D01*
X71814D01*
Y133412D01*
X71727D01*
Y133149D01*
X71639D01*
Y132798D01*
X71551D01*
Y132535D01*
X71464D01*
Y132097D01*
X71376D01*
Y131746D01*
X71288D01*
Y131308D01*
X71201D01*
Y130694D01*
X71113D01*
Y129730D01*
X71026D01*
Y126311D01*
X71113D01*
Y125610D01*
X71201D01*
Y125084D01*
X71288D01*
Y124733D01*
X71376D01*
Y124295D01*
X71464D01*
Y124032D01*
X71551D01*
Y123769D01*
X71639D01*
Y123506D01*
X71727D01*
Y123243D01*
X71814D01*
Y122980D01*
X71902D01*
Y122804D01*
X71990D01*
Y122541D01*
X72077D01*
Y122366D01*
X72165D01*
Y122103D01*
X72253D01*
Y121928D01*
X72340D01*
Y121752D01*
X72428D01*
Y121577D01*
X72516D01*
Y121402D01*
X72604D01*
Y121226D01*
X72691D01*
Y121051D01*
X72779D01*
Y120876D01*
X72867D01*
Y120613D01*
X72954D01*
Y120437D01*
X73042D01*
Y120262D01*
X73129D01*
Y119999D01*
X73042D01*
Y119911D01*
X72779D01*
Y119824D01*
X72516D01*
Y119736D01*
X72340D01*
Y119648D01*
X72165D01*
Y119561D01*
X71990D01*
Y119473D01*
X71814D01*
Y119385D01*
X71727D01*
Y119298D01*
X71639D01*
Y119210D01*
X71551D01*
Y119035D01*
X71727D01*
Y118947D01*
X71990D01*
Y118859D01*
X72428D01*
Y118772D01*
X72779D01*
Y118684D01*
X73129D01*
Y118596D01*
X73568D01*
Y118509D01*
X73918D01*
Y118421D01*
X74269D01*
Y118333D01*
X74620D01*
Y118246D01*
X74970D01*
Y118158D01*
X75233D01*
Y118070D01*
X75409D01*
Y117983D01*
X75672D01*
Y117895D01*
X75847D01*
Y117807D01*
X76022D01*
Y117720D01*
X76198D01*
Y117632D01*
X76373D01*
Y117544D01*
X76461D01*
Y117457D01*
X76636D01*
Y117369D01*
X76724D01*
Y117281D01*
X76899D01*
Y117194D01*
X76987D01*
Y117106D01*
X77074D01*
Y117018D01*
X77250D01*
Y116931D01*
X77337D01*
Y116843D01*
X77425D01*
Y116755D01*
X77513D01*
Y116668D01*
X77600D01*
Y116580D01*
X77688D01*
Y116492D01*
X77776D01*
Y116405D01*
X77863D01*
Y116317D01*
X78039D01*
Y116229D01*
X78126D01*
Y116142D01*
X78214D01*
Y116054D01*
X78302D01*
Y115966D01*
X78389D01*
Y115879D01*
X78477D01*
Y115791D01*
X78652D01*
Y115703D01*
X78740D01*
Y115616D01*
X78828D01*
Y115528D01*
X79003D01*
Y115440D01*
X79091D01*
Y115353D01*
X79266D01*
Y115265D01*
X79441D01*
Y115177D01*
X79617D01*
Y115090D01*
X79704D01*
Y115002D01*
X79880D01*
Y114914D01*
X80055D01*
Y114827D01*
X80230D01*
Y114739D01*
X80406D01*
Y114651D01*
X80581D01*
Y114564D01*
X80756D01*
Y114476D01*
X80932D01*
Y114388D01*
X81019D01*
Y114301D01*
X81195D01*
Y114125D01*
X80756D01*
Y114213D01*
X80493D01*
Y114301D01*
X80318D01*
Y114388D01*
X80055D01*
Y114476D01*
X79880D01*
Y114564D01*
X79704D01*
Y114651D01*
X79529D01*
Y114739D01*
X79354D01*
Y114827D01*
X79178D01*
Y114914D01*
X78915D01*
Y114301D01*
X78828D01*
Y113950D01*
X78740D01*
Y113775D01*
X78652D01*
Y113512D01*
X78565D01*
Y113424D01*
X78652D01*
Y113336D01*
X79178D01*
Y113249D01*
X80756D01*
Y113336D01*
X81107D01*
Y113424D01*
X81282D01*
Y113512D01*
X81370D01*
Y113599D01*
X81458D01*
Y113687D01*
X81545D01*
Y113775D01*
X81633D01*
Y113950D01*
X81721D01*
Y114038D01*
X81808D01*
Y114213D01*
X81896D01*
Y114301D01*
X81984D01*
Y114476D01*
X82071D01*
Y114651D01*
X82159D01*
Y114739D01*
X82247D01*
Y114827D01*
X82334D01*
Y115002D01*
X82422D01*
Y115090D01*
X82510D01*
Y115177D01*
X82597D01*
Y115265D01*
X82685D01*
Y115353D01*
X82773D01*
Y115440D01*
X82860D01*
Y115528D01*
X82948D01*
Y115616D01*
X83036D01*
Y115703D01*
X83211D01*
Y115791D01*
X83299D01*
Y115879D01*
X83474D01*
Y115966D01*
X83562D01*
Y116054D01*
X83737D01*
Y116142D01*
X83912D01*
Y116229D01*
X84088D01*
Y116317D01*
X84263D01*
Y116405D01*
X84526D01*
Y116492D01*
X84789D01*
Y116580D01*
X84964D01*
Y116668D01*
X85140D01*
Y116755D01*
X85227D01*
Y116843D01*
X85315D01*
Y116931D01*
X85490D01*
Y117018D01*
X85578D01*
Y117106D01*
X85666D01*
Y117194D01*
X85753D01*
Y117281D01*
X85841D01*
Y117369D01*
X85929D01*
Y117457D01*
X86016D01*
Y117544D01*
X86104D01*
Y117632D01*
X86192D01*
Y117720D01*
X86279D01*
Y117807D01*
X86367D01*
Y117895D01*
X86455D01*
Y117983D01*
X86542D01*
Y119561D01*
X86455D01*
Y120437D01*
X86367D01*
Y120788D01*
X86279D01*
Y120963D01*
X86192D01*
Y121139D01*
X86104D01*
Y121226D01*
X86016D01*
Y121402D01*
X85929D01*
Y121489D01*
X85841D01*
Y121577D01*
X85753D01*
Y121752D01*
X85666D01*
Y121840D01*
X85578D01*
Y121928D01*
X85490D01*
Y122015D01*
X85403D01*
Y122103D01*
X85315D01*
Y122191D01*
X85227D01*
Y122278D01*
X85140D01*
Y122454D01*
X85052D01*
Y122541D01*
X84964D01*
Y122629D01*
X84877D01*
Y122717D01*
X84789D01*
Y122804D01*
X84701D01*
Y122980D01*
X84614D01*
Y123067D01*
X84526D01*
Y123155D01*
X84438D01*
Y123243D01*
X84351D01*
Y123418D01*
X84263D01*
Y123506D01*
X84175D01*
Y123681D01*
X81633D01*
Y123769D01*
X81370D01*
Y123856D01*
X81107D01*
Y123944D01*
X80844D01*
Y124032D01*
X80581D01*
Y124119D01*
X80406D01*
Y124207D01*
X80143D01*
Y124295D01*
X79880D01*
Y124382D01*
X79704D01*
Y124470D01*
X79441D01*
Y124558D01*
X79266D01*
Y124645D01*
X79091D01*
Y124733D01*
X78915D01*
Y124821D01*
X78740D01*
Y124908D01*
X78565D01*
Y124996D01*
X78477D01*
Y125084D01*
X78302D01*
Y125171D01*
X78126D01*
Y125259D01*
X78039D01*
Y125347D01*
X77951D01*
Y125434D01*
X77776D01*
Y125522D01*
X77688D01*
Y125610D01*
X77600D01*
Y125697D01*
X77513D01*
Y125785D01*
X77337D01*
Y125873D01*
X77250D01*
Y125960D01*
X77162D01*
Y126048D01*
X77074D01*
Y126136D01*
X76899D01*
Y126223D01*
X76811D01*
Y126311D01*
X76724D01*
Y126399D01*
X76636D01*
Y126486D01*
X76548D01*
Y126574D01*
X76461D01*
Y126662D01*
X76373D01*
Y126749D01*
X76285D01*
Y126837D01*
X76198D01*
Y126925D01*
X76110D01*
Y127012D01*
X76022D01*
Y127100D01*
X75935D01*
Y127188D01*
X75847D01*
Y127275D01*
X75759D01*
Y127363D01*
X75672D01*
Y127538D01*
X75584D01*
Y127626D01*
X75496D01*
Y127713D01*
X75409D01*
Y127889D01*
X75321D01*
Y127977D01*
X75233D01*
Y128152D01*
X75146D01*
Y128239D01*
X75058D01*
Y128327D01*
X74970D01*
Y128503D01*
X74883D01*
Y128678D01*
X74795D01*
Y128765D01*
X74707D01*
Y128941D01*
X74620D01*
Y129116D01*
X74532D01*
Y129204D01*
X74444D01*
Y129379D01*
X74357D01*
Y129555D01*
X74269D01*
Y129730D01*
X74181D01*
Y129905D01*
X74094D01*
Y130080D01*
X74006D01*
Y130256D01*
X73918D01*
Y130431D01*
X73831D01*
Y130606D01*
X73743D01*
Y130870D01*
X73656D01*
Y131045D01*
X73568D01*
Y131308D01*
X73480D01*
Y131483D01*
X73392D01*
Y131746D01*
X73305D01*
Y132009D01*
X73217D01*
Y132272D01*
X73129D01*
Y132535D01*
X73042D01*
Y132973D01*
X72954D01*
Y133412D01*
X73217D01*
Y133324D01*
X73305D01*
Y133149D01*
X73392D01*
Y132711D01*
X73480D01*
Y132448D01*
X73568D01*
Y132184D01*
X73656D01*
Y131922D01*
X73743D01*
Y131658D01*
X73831D01*
Y131483D01*
X73918D01*
Y131308D01*
X74006D01*
Y131045D01*
X74094D01*
Y130870D01*
X74181D01*
Y130694D01*
X74269D01*
Y130519D01*
X74357D01*
Y130344D01*
X74444D01*
Y130168D01*
X74532D01*
Y129993D01*
X74620D01*
Y129817D01*
X74707D01*
Y129642D01*
X74795D01*
Y129467D01*
X74883D01*
Y129291D01*
X74970D01*
Y129116D01*
X75058D01*
Y129029D01*
X75146D01*
Y128853D01*
X75233D01*
Y128678D01*
X75321D01*
Y128590D01*
X75409D01*
Y128415D01*
X75496D01*
Y128327D01*
X75584D01*
Y128152D01*
X75672D01*
Y128064D01*
X75759D01*
Y127977D01*
X75847D01*
Y127801D01*
X75935D01*
Y127713D01*
X76022D01*
Y127626D01*
X76110D01*
Y127538D01*
X76198D01*
Y127451D01*
X76285D01*
Y127363D01*
X76373D01*
Y127275D01*
X76461D01*
Y127188D01*
X76548D01*
Y127100D01*
X76636D01*
Y126925D01*
X76724D01*
Y126837D01*
X76899D01*
Y126749D01*
X76987D01*
Y126662D01*
X77074D01*
Y126574D01*
X77162D01*
Y126486D01*
X77250D01*
Y126399D01*
X77337D01*
Y126311D01*
X77425D01*
Y126223D01*
X77513D01*
Y126136D01*
X77688D01*
Y126048D01*
X77776D01*
Y125960D01*
X77863D01*
Y125873D01*
X77951D01*
Y125785D01*
X78126D01*
Y125697D01*
X78214D01*
Y125610D01*
X78389D01*
Y125522D01*
X78477D01*
Y125434D01*
X78652D01*
Y125347D01*
X78740D01*
Y125259D01*
X78915D01*
Y125171D01*
X79091D01*
Y125084D01*
X79266D01*
Y124996D01*
X79441D01*
Y124908D01*
X79617D01*
Y124821D01*
X79792D01*
Y124733D01*
X80055D01*
Y124645D01*
X80230D01*
Y124558D01*
X80493D01*
Y124470D01*
X80844D01*
Y124382D01*
X81107D01*
Y124295D01*
X81458D01*
Y124207D01*
X81808D01*
Y124119D01*
X82510D01*
Y124032D01*
X83211D01*
Y124119D01*
X84000D01*
Y124207D01*
X84701D01*
Y124295D01*
X85227D01*
Y124382D01*
X85929D01*
Y124470D01*
X86805D01*
Y124558D01*
X87156D01*
Y124470D01*
X87594D01*
Y124382D01*
X87682D01*
Y124295D01*
X87857D01*
Y124119D01*
X87945D01*
Y123944D01*
X88033D01*
Y123681D01*
X88120D01*
Y123243D01*
X88208D01*
Y120876D01*
X88120D01*
Y120350D01*
X88033D01*
Y119911D01*
X87945D01*
Y119648D01*
X87857D01*
Y119385D01*
X87770D01*
Y119210D01*
X87682D01*
Y118947D01*
X87594D01*
Y118772D01*
X87507D01*
Y118684D01*
X87419D01*
Y118509D01*
X87331D01*
Y118421D01*
X87244D01*
Y118246D01*
X87156D01*
Y118158D01*
X87068D01*
Y118070D01*
X86981D01*
Y117895D01*
X86893D01*
Y117807D01*
X86805D01*
Y117720D01*
X86718D01*
Y117632D01*
X86630D01*
Y117544D01*
X86542D01*
Y117457D01*
X86455D01*
Y117369D01*
X86367D01*
Y117281D01*
X86279D01*
Y117194D01*
X86192D01*
Y117106D01*
X86104D01*
Y117018D01*
X86016D01*
Y116931D01*
X85929D01*
Y116843D01*
X85841D01*
Y116755D01*
X85753D01*
Y116580D01*
X85841D01*
Y116492D01*
X87244D01*
Y116405D01*
X89961D01*
Y116317D01*
X90663D01*
Y116229D01*
X91276D01*
Y116142D01*
X91802D01*
Y116054D01*
X92328D01*
Y115966D01*
X92767D01*
Y115879D01*
X93205D01*
Y115791D01*
X93556D01*
Y115703D01*
X93906D01*
Y115616D01*
X94169D01*
Y115528D01*
X94345D01*
Y115440D01*
X94520D01*
Y115353D01*
X94695D01*
Y115265D01*
X94871D01*
Y115177D01*
X95046D01*
Y115090D01*
X95134D01*
Y115002D01*
X95221D01*
Y114914D01*
X95397D01*
Y114827D01*
X95484D01*
Y114739D01*
X95572D01*
Y114651D01*
X95660D01*
Y114564D01*
X95747D01*
Y114476D01*
X95835D01*
Y114388D01*
X95923D01*
Y114301D01*
X96010D01*
Y114213D01*
X96098D01*
Y114125D01*
X96186D01*
Y114038D01*
X96273D01*
Y113950D01*
X96361D01*
Y113775D01*
X96448D01*
Y113687D01*
X96536D01*
Y113599D01*
X96624D01*
Y113512D01*
X96712D01*
Y113336D01*
X96799D01*
Y113249D01*
X96887D01*
Y113161D01*
X96974D01*
Y112986D01*
X97062D01*
Y112898D01*
X97150D01*
Y112810D01*
X97325D01*
Y112723D01*
X97500D01*
Y112635D01*
X97764D01*
Y112547D01*
X98114D01*
Y112460D01*
X98553D01*
Y112547D01*
X98640D01*
Y112635D01*
X98728D01*
Y112723D01*
X98815D01*
Y112810D01*
X98903D01*
Y112898D01*
X98991D01*
Y112986D01*
X99079D01*
Y113161D01*
X99166D01*
Y113249D01*
X99254D01*
Y113687D01*
X99341D01*
Y114301D01*
X99254D01*
Y115440D01*
X99166D01*
Y115966D01*
X99079D01*
Y116317D01*
X98991D01*
Y116668D01*
X98903D01*
Y116931D01*
X98815D01*
Y117194D01*
X98728D01*
Y117457D01*
X98640D01*
Y117720D01*
X98553D01*
Y117983D01*
X98465D01*
Y118246D01*
X98377D01*
Y118509D01*
X98289D01*
Y118772D01*
X98202D01*
Y119035D01*
X98114D01*
Y119561D01*
X98202D01*
Y120087D01*
X98289D01*
Y120613D01*
X98377D01*
Y121226D01*
X98465D01*
Y121752D01*
X98553D01*
Y121840D01*
Y122366D01*
X98640D01*
Y123067D01*
X98728D01*
Y124119D01*
X98815D01*
Y125960D01*
X98903D01*
Y126486D01*
X98991D01*
Y126574D01*
X99079D01*
Y126662D01*
X99166D01*
Y126749D01*
X99341D01*
Y126837D01*
X99429D01*
Y126925D01*
X99517D01*
Y127012D01*
X99692D01*
Y127100D01*
X99780D01*
Y127188D01*
X99867D01*
Y127275D01*
X100043D01*
Y127363D01*
X100131D01*
Y127451D01*
X100218D01*
Y127538D01*
X100393D01*
Y127626D01*
X100481D01*
Y127713D01*
X100569D01*
Y127801D01*
X100656D01*
Y127889D01*
X100744D01*
Y127977D01*
X100920D01*
Y128064D01*
X101007D01*
Y128152D01*
X101095D01*
Y128239D01*
X101182D01*
Y128327D01*
X101270D01*
Y128415D01*
X101358D01*
Y128503D01*
X101446D01*
Y128590D01*
X101533D01*
Y128678D01*
X101621D01*
Y128765D01*
X101708D01*
Y128853D01*
X101796D01*
Y128941D01*
X101884D01*
Y129029D01*
X101972D01*
Y129116D01*
X102059D01*
Y129204D01*
X102147D01*
Y129291D01*
X102234D01*
Y129379D01*
X102322D01*
Y129467D01*
X102410D01*
Y129555D01*
X102498D01*
Y129642D01*
X102585D01*
Y129730D01*
X102673D01*
Y129817D01*
X102760D01*
Y129993D01*
X102848D01*
Y130080D01*
X102936D01*
Y130168D01*
X103024D01*
Y130256D01*
X103111D01*
Y130431D01*
X103199D01*
Y130519D01*
X103287D01*
Y130694D01*
X103374D01*
Y130870D01*
X103462D01*
Y130957D01*
X103549D01*
Y131132D01*
X103637D01*
Y131308D01*
X103725D01*
Y131483D01*
X103813D01*
Y131658D01*
X103900D01*
Y131834D01*
X103988D01*
Y132009D01*
X104075D01*
Y132184D01*
X104163D01*
Y132360D01*
X104251D01*
Y132535D01*
X104339D01*
Y132798D01*
X104426D01*
Y133412D01*
X104514D01*
Y135340D01*
X104426D01*
Y136305D01*
X104339D01*
Y136743D01*
X104251D01*
Y137094D01*
X104163D01*
Y137357D01*
X104075D01*
Y137620D01*
X103988D01*
Y137970D01*
X103900D01*
Y138233D01*
X103813D01*
Y138409D01*
X103725D01*
Y138672D01*
X103637D01*
Y138847D01*
X103549D01*
Y139110D01*
X103462D01*
Y139285D01*
X103374D01*
Y139461D01*
X103287D01*
Y139636D01*
X103199D01*
Y139899D01*
X103111D01*
Y140074D01*
X103024D01*
Y140250D01*
X102936D01*
Y140425D01*
X102848D01*
Y140600D01*
X102760D01*
Y140776D01*
X102673D01*
Y140951D01*
X102585D01*
Y141039D01*
X102498D01*
Y141214D01*
X102410D01*
Y141389D01*
X102322D01*
Y141565D01*
X102234D01*
Y141740D01*
X102147D01*
Y141828D01*
X102059D01*
Y142003D01*
X101972D01*
Y142091D01*
X101884D01*
Y142266D01*
X101796D01*
Y142354D01*
X101708D01*
Y142529D01*
X101446D01*
Y142441D01*
X101358D01*
Y142354D01*
X101182D01*
Y142266D01*
X101095D01*
Y142178D01*
X101007D01*
Y142091D01*
X100832D01*
Y142003D01*
X100744D01*
Y141915D01*
X100656D01*
Y141828D01*
X100569D01*
Y141740D01*
X100481D01*
Y141652D01*
X100306D01*
Y141565D01*
X100218D01*
Y141477D01*
X100131D01*
Y141389D01*
X100043D01*
Y141302D01*
X99955D01*
Y141214D01*
X99867D01*
Y141126D01*
X99780D01*
Y141039D01*
X99692D01*
Y140951D01*
X99605D01*
Y140863D01*
X99517D01*
Y140688D01*
X99429D01*
Y140600D01*
X99341D01*
Y140425D01*
X99254D01*
Y140074D01*
X99166D01*
Y139811D01*
X99079D01*
Y139636D01*
X98991D01*
Y139461D01*
X98903D01*
Y139285D01*
X98815D01*
Y139198D01*
X98728D01*
Y139022D01*
X98640D01*
Y138935D01*
X98553D01*
Y138847D01*
X98465D01*
Y138759D01*
X98377D01*
Y138672D01*
X98289D01*
Y138584D01*
X98202D01*
Y138409D01*
X98114D01*
Y138321D01*
X98027D01*
Y138233D01*
X97939D01*
Y138146D01*
X97851D01*
Y138058D01*
X97764D01*
Y137970D01*
X97676D01*
Y137883D01*
X97588D01*
Y137795D01*
X97500D01*
Y137707D01*
X97413D01*
Y137620D01*
X97325D01*
Y137532D01*
X97238D01*
Y137444D01*
X97150D01*
Y137357D01*
X97062D01*
Y137269D01*
X96974D01*
Y137182D01*
X96887D01*
Y137094D01*
X96799D01*
Y137006D01*
X96712D01*
Y136918D01*
X96624D01*
Y136831D01*
X96536D01*
Y136743D01*
X96448D01*
Y136656D01*
X96361D01*
Y136568D01*
X96273D01*
Y136480D01*
X96186D01*
Y136392D01*
X96098D01*
Y136305D01*
X96010D01*
Y136217D01*
X95923D01*
Y136130D01*
X95747D01*
Y136042D01*
X95660D01*
Y135954D01*
X95572D01*
Y135866D01*
X95484D01*
Y135779D01*
X95309D01*
Y135691D01*
X95221D01*
Y135604D01*
X95134D01*
Y135516D01*
X95046D01*
Y135428D01*
X94871D01*
Y135340D01*
X94783D01*
Y135253D01*
X94608D01*
Y135165D01*
X94520D01*
Y135077D01*
X94345D01*
Y134990D01*
X94257D01*
Y134902D01*
X94082D01*
Y134815D01*
X93906D01*
Y134727D01*
X93731D01*
Y134639D01*
X93556D01*
Y134551D01*
X93380D01*
Y134464D01*
X93117D01*
Y134376D01*
X92854D01*
Y134289D01*
X92591D01*
Y134201D01*
X92328D01*
Y134113D01*
X91978D01*
Y134025D01*
X91539D01*
Y133938D01*
X90750D01*
Y133850D01*
X89874D01*
Y133938D01*
X88734D01*
Y134025D01*
X88383D01*
Y134113D01*
X88120D01*
Y134201D01*
X87857D01*
Y134289D01*
X87594D01*
Y134376D01*
X87419D01*
Y134464D01*
X87244D01*
Y134551D01*
X87068D01*
Y134639D01*
X86893D01*
Y134727D01*
X86718D01*
Y134815D01*
X86542D01*
Y134902D01*
X86367D01*
Y134990D01*
X86192D01*
Y135077D01*
X86104D01*
Y135165D01*
X85929D01*
Y135253D01*
X85753D01*
Y135340D01*
X85666D01*
Y135428D01*
X85490D01*
Y135516D01*
X85403D01*
Y135604D01*
X85227D01*
Y135691D01*
X85140D01*
Y135779D01*
X85052D01*
Y135866D01*
X84964D01*
Y135954D01*
X84789D01*
Y136042D01*
X84701D01*
Y136130D01*
X84614D01*
Y136217D01*
X84526D01*
Y136305D01*
X84438D01*
Y136392D01*
X84351D01*
Y136480D01*
X84263D01*
Y136568D01*
X84175D01*
Y136656D01*
X84088D01*
Y136743D01*
X84000D01*
Y136831D01*
X83912D01*
Y136918D01*
X83825D01*
Y137006D01*
X83737D01*
Y137094D01*
X83649D01*
Y137182D01*
X83562D01*
Y137269D01*
X83474D01*
Y137357D01*
X83386D01*
Y137532D01*
X83299D01*
Y137707D01*
X83211D01*
Y137883D01*
X83123D01*
Y138058D01*
X83036D01*
Y138233D01*
X82948D01*
Y138321D01*
X82860D01*
Y138409D01*
X82685D01*
Y138496D01*
X80493D01*
Y138409D01*
X80143D01*
Y138321D01*
X79880D01*
Y138233D01*
X79792D01*
Y138146D01*
X79704D01*
Y138058D01*
X79617D01*
Y137970D01*
X79529D01*
Y137883D01*
X79441D01*
Y137795D01*
X79354D01*
Y137707D01*
X79266D01*
Y137620D01*
X79178D01*
Y137707D01*
X79003D01*
Y137795D01*
X78828D01*
Y137883D01*
X78652D01*
Y137970D01*
X78565D01*
Y138058D01*
X78477D01*
Y138146D01*
X78389D01*
Y138233D01*
X78302D01*
Y138409D01*
X78214D01*
Y138584D01*
X78126D01*
Y138759D01*
X78039D01*
Y139022D01*
X77951D01*
Y139373D01*
X78039D01*
Y139811D01*
X78126D01*
Y140162D01*
X77951D01*
Y140074D01*
X77863D01*
Y139987D01*
X77688D01*
Y139899D01*
X77600D01*
Y139811D01*
X77425D01*
Y139724D01*
X77337D01*
Y139636D01*
X77250D01*
Y139548D01*
X77074D01*
Y139461D01*
X76987D01*
Y139373D01*
X76811D01*
Y139285D01*
X76724D01*
Y139198D01*
X76548D01*
Y139110D01*
X76461D01*
Y139022D01*
X76285D01*
Y138935D01*
X76110D01*
Y139285D01*
X76022D01*
Y141039D01*
X76110D01*
Y141915D01*
X76198D01*
Y142354D01*
X76110D01*
Y142441D01*
X76022D01*
Y142529D01*
X75935D01*
Y142617D01*
X75759D01*
Y142704D01*
X75496D01*
Y142792D01*
X75321D01*
Y142880D01*
X75058D01*
Y142967D01*
X74707D01*
Y143055D01*
D02*
G37*
G36*
X74883Y117807D02*
X74357D01*
Y117720D01*
X73918D01*
Y117632D01*
X73568D01*
Y117544D01*
X73305D01*
Y117457D01*
X73042D01*
Y117369D01*
X72867D01*
Y117281D01*
X72604D01*
Y117194D01*
X72428D01*
Y117106D01*
X72253D01*
Y117018D01*
X72165D01*
Y116931D01*
X71990D01*
Y116843D01*
X71814D01*
Y116755D01*
X71727D01*
Y116668D01*
X71551D01*
Y116580D01*
X71464D01*
Y116492D01*
X71288D01*
Y116405D01*
X71201D01*
Y116317D01*
X71113D01*
Y116229D01*
X71026D01*
Y116142D01*
X70850D01*
Y116054D01*
X70763D01*
Y115966D01*
X70675D01*
Y115879D01*
X70587D01*
Y115791D01*
X70500D01*
Y115703D01*
X70412D01*
Y115616D01*
X70324D01*
Y115528D01*
X70237D01*
Y115440D01*
X70149D01*
Y115353D01*
X70061D01*
Y115177D01*
X69974D01*
Y115090D01*
X69886D01*
Y115002D01*
X69798D01*
Y114914D01*
X69710D01*
Y114739D01*
X69623D01*
Y114651D01*
X69535D01*
Y114564D01*
X69447D01*
Y114388D01*
X69360D01*
Y114301D01*
X69272D01*
Y114125D01*
X69184D01*
Y114038D01*
X69097D01*
Y113862D01*
X69009D01*
Y113687D01*
X68921D01*
Y113599D01*
X68834D01*
Y113424D01*
X68746D01*
Y113249D01*
X68658D01*
Y113073D01*
X68571D01*
Y112898D01*
X68483D01*
Y112635D01*
X68396D01*
Y112460D01*
X68308D01*
Y112284D01*
X68220D01*
Y112109D01*
X68571D01*
Y112197D01*
X68834D01*
Y112284D01*
X69097D01*
Y112372D01*
X69447D01*
Y112460D01*
X69710D01*
Y112547D01*
X70061D01*
Y112635D01*
X70324D01*
Y112723D01*
X70675D01*
Y112810D01*
X71026D01*
Y112898D01*
X71376D01*
Y112986D01*
X71727D01*
Y113073D01*
X72077D01*
Y113161D01*
X72604D01*
Y113249D01*
X72954D01*
Y113336D01*
X73568D01*
Y113424D01*
X74181D01*
Y113512D01*
X75058D01*
Y113599D01*
X78039D01*
Y113687D01*
X78214D01*
Y113775D01*
X78302D01*
Y113950D01*
X78389D01*
Y114038D01*
X78477D01*
Y114301D01*
X78565D01*
Y114914D01*
X78477D01*
Y115090D01*
X78389D01*
Y115265D01*
X78302D01*
Y115353D01*
X78214D01*
Y115440D01*
X78126D01*
Y115616D01*
X78039D01*
Y115703D01*
X77951D01*
Y115791D01*
X77863D01*
Y115879D01*
X77776D01*
Y115966D01*
X77688D01*
Y116054D01*
X77600D01*
Y116142D01*
X77513D01*
Y116229D01*
X77425D01*
Y116317D01*
X77337D01*
Y116405D01*
X77250D01*
Y116492D01*
X77162D01*
Y116580D01*
X76987D01*
Y116668D01*
X76899D01*
Y116755D01*
X76811D01*
Y116843D01*
X76724D01*
Y116931D01*
X76548D01*
Y117018D01*
X76461D01*
Y117106D01*
X76285D01*
Y117194D01*
X76198D01*
Y117281D01*
X76022D01*
Y117369D01*
X75847D01*
Y117457D01*
X75672D01*
Y117544D01*
X75496D01*
Y117632D01*
X75233D01*
Y117720D01*
X74883D01*
Y117807D01*
D02*
G37*
G36*
X71026Y118772D02*
X70675D01*
Y118684D01*
X70237D01*
Y118596D01*
X69886D01*
Y118509D01*
X69535D01*
Y118421D01*
X69272D01*
Y118333D01*
X68921D01*
Y118246D01*
X68746D01*
Y118158D01*
X68483D01*
Y118070D01*
X68396D01*
Y117983D01*
X68220D01*
Y117895D01*
X68133D01*
Y117807D01*
X67957D01*
Y117720D01*
X67870D01*
Y117632D01*
X67782D01*
Y117544D01*
X67694D01*
Y117457D01*
X67607D01*
Y117369D01*
X67519D01*
Y117281D01*
X67431D01*
Y117194D01*
X67344D01*
Y117106D01*
X67256D01*
Y116931D01*
X67168D01*
Y116843D01*
X67080D01*
Y116668D01*
X66993D01*
Y116492D01*
X66905D01*
Y116229D01*
X66817D01*
Y115966D01*
X66730D01*
Y115528D01*
X66642D01*
Y114651D01*
Y114564D01*
Y114125D01*
X66730D01*
Y113775D01*
X66817D01*
Y113512D01*
X66905D01*
Y113249D01*
X66993D01*
Y113073D01*
X67080D01*
Y112898D01*
X67168D01*
Y112723D01*
X67256D01*
Y112547D01*
X67344D01*
Y112460D01*
X67431D01*
Y112372D01*
X67519D01*
Y112284D01*
X67607D01*
Y112109D01*
X67782D01*
Y112284D01*
X67870D01*
Y112460D01*
X67957D01*
Y112635D01*
X68045D01*
Y112898D01*
X68133D01*
Y113073D01*
X68220D01*
Y113249D01*
X68308D01*
Y113424D01*
X68396D01*
Y113512D01*
X68483D01*
Y113687D01*
X68571D01*
Y113862D01*
X68658D01*
Y114038D01*
X68746D01*
Y114125D01*
X68834D01*
Y114301D01*
X68921D01*
Y114388D01*
X69009D01*
Y114564D01*
X69097D01*
Y114651D01*
X69184D01*
Y114827D01*
X69272D01*
Y114914D01*
X69360D01*
Y115002D01*
X69447D01*
Y115177D01*
X69535D01*
Y115265D01*
X69623D01*
Y115353D01*
X69710D01*
Y115440D01*
X69798D01*
Y115528D01*
X69886D01*
Y115703D01*
X69974D01*
Y115791D01*
X70061D01*
Y115879D01*
X70149D01*
Y115966D01*
X70237D01*
Y116054D01*
X70324D01*
Y116142D01*
X70412D01*
Y116229D01*
X70500D01*
Y116317D01*
X70587D01*
Y116405D01*
X70675D01*
Y116492D01*
X70850D01*
Y116580D01*
X70938D01*
Y116668D01*
X71026D01*
Y116755D01*
X71113D01*
Y116843D01*
X71288D01*
Y116931D01*
X71376D01*
Y117018D01*
X71464D01*
Y117106D01*
X71639D01*
Y117194D01*
X71814D01*
Y117281D01*
X71902D01*
Y117369D01*
X72077D01*
Y117457D01*
X72253D01*
Y117544D01*
X72516D01*
Y117632D01*
X72691D01*
Y117720D01*
X72867D01*
Y117807D01*
X73129D01*
Y117895D01*
X73305D01*
Y117983D01*
X73480D01*
Y118070D01*
X73656D01*
Y118158D01*
X73392D01*
Y118246D01*
X72954D01*
Y118333D01*
X72516D01*
Y118421D01*
X72165D01*
Y118509D01*
X71814D01*
Y118596D01*
X71376D01*
Y118684D01*
X71026D01*
Y118772D01*
D02*
G37*
G36*
X95397Y114388D02*
X95309D01*
Y113687D01*
X95397D01*
Y112986D01*
X95309D01*
Y112723D01*
X95221D01*
Y112547D01*
X95134D01*
Y112460D01*
X95046D01*
Y112284D01*
X94958D01*
Y112197D01*
X94871D01*
Y112109D01*
X94783D01*
Y112021D01*
X94695D01*
Y111846D01*
X95484D01*
Y111934D01*
X96712D01*
Y112021D01*
X97325D01*
Y112109D01*
X97588D01*
Y112197D01*
X97500D01*
Y112284D01*
X97325D01*
Y112372D01*
X97150D01*
Y112460D01*
X96974D01*
Y112547D01*
X96887D01*
Y112635D01*
X96799D01*
Y112723D01*
X96712D01*
Y112810D01*
X96624D01*
Y112898D01*
X96536D01*
Y113073D01*
X96448D01*
Y113161D01*
X96361D01*
Y113249D01*
X96273D01*
Y113424D01*
X96186D01*
Y113512D01*
X96098D01*
Y113599D01*
X96010D01*
Y113687D01*
X95923D01*
Y113862D01*
X95835D01*
Y113950D01*
X95747D01*
Y114038D01*
X95660D01*
Y114125D01*
X95572D01*
Y114213D01*
X95484D01*
Y114301D01*
X95397D01*
Y114388D01*
D02*
G37*
G36*
X92591Y115616D02*
X91802D01*
Y115528D01*
X91539D01*
Y115440D01*
X91452D01*
Y115353D01*
X91276D01*
Y115265D01*
X91101D01*
Y115177D01*
X90926D01*
Y115090D01*
X90750D01*
Y115002D01*
X90663D01*
Y114914D01*
X90575D01*
Y114827D01*
X90400D01*
Y114739D01*
X90312D01*
Y114651D01*
X90224D01*
Y114564D01*
X90049D01*
Y114476D01*
X89961D01*
Y114388D01*
X89874D01*
Y114301D01*
X89786D01*
Y114213D01*
X89698D01*
Y114125D01*
X89611D01*
Y114038D01*
X89523D01*
Y113950D01*
X89435D01*
Y113862D01*
X89348D01*
Y113775D01*
X89260D01*
Y113687D01*
X89172D01*
Y113512D01*
X89085D01*
Y113424D01*
X88997D01*
Y113336D01*
X88909D01*
Y113249D01*
X88822D01*
Y113073D01*
X88734D01*
Y112986D01*
X88646D01*
Y112898D01*
X88559D01*
Y112723D01*
X88471D01*
Y112635D01*
X88383D01*
Y112460D01*
X88296D01*
Y112372D01*
X88208D01*
Y112197D01*
X88120D01*
Y112021D01*
X88033D01*
Y111934D01*
X87945D01*
Y111758D01*
X87857D01*
Y111671D01*
Y111583D01*
X87770D01*
Y111408D01*
X87682D01*
Y111232D01*
X87594D01*
Y111057D01*
X87507D01*
Y110794D01*
X88559D01*
Y110882D01*
X89348D01*
Y110969D01*
X89961D01*
Y111057D01*
X90575D01*
Y111145D01*
X91189D01*
Y111232D01*
X91715D01*
Y111320D01*
X92241D01*
Y111408D01*
X92679D01*
Y111495D01*
X93030D01*
Y111583D01*
X93380D01*
Y111671D01*
X93643D01*
Y111758D01*
X93819D01*
Y111846D01*
X93994D01*
Y111934D01*
X94082D01*
Y112021D01*
X94169D01*
Y112109D01*
X94345D01*
Y112197D01*
X94432D01*
Y112284D01*
X94520D01*
Y112372D01*
X94608D01*
Y112460D01*
X94695D01*
Y112635D01*
X94783D01*
Y112723D01*
X94871D01*
Y112810D01*
X94958D01*
Y112898D01*
X95046D01*
Y113073D01*
X94958D01*
Y113862D01*
X94871D01*
Y114388D01*
X94783D01*
Y114651D01*
X94695D01*
Y114827D01*
X94608D01*
Y114914D01*
X94520D01*
Y115002D01*
X94432D01*
Y115090D01*
X94257D01*
Y115177D01*
X94082D01*
Y115265D01*
X93819D01*
Y115353D01*
X93468D01*
Y115440D01*
X93030D01*
Y115528D01*
X92591D01*
Y115616D01*
D02*
G37*
G36*
X87857Y116142D02*
X87244D01*
Y116054D01*
X87156D01*
Y115966D01*
X86981D01*
Y115879D01*
X86893D01*
Y115791D01*
X86718D01*
Y115703D01*
X86630D01*
Y115616D01*
X86455D01*
Y115528D01*
X86367D01*
Y115440D01*
X86279D01*
Y115353D01*
X86104D01*
Y115265D01*
X86016D01*
Y115177D01*
X85929D01*
Y115090D01*
X85841D01*
Y115002D01*
X85753D01*
Y114914D01*
X85666D01*
Y114827D01*
X85578D01*
Y114651D01*
X85490D01*
Y114564D01*
X85403D01*
Y114476D01*
X85315D01*
Y114388D01*
X85227D01*
Y114213D01*
X85140D01*
Y114125D01*
X85052D01*
Y113950D01*
X84964D01*
Y113862D01*
X84877D01*
Y113687D01*
X84789D01*
Y113512D01*
X84701D01*
Y113336D01*
X84614D01*
Y113161D01*
X84526D01*
Y112986D01*
X84438D01*
Y112810D01*
X84351D01*
Y112547D01*
X84263D01*
Y112284D01*
X84175D01*
Y112021D01*
X84088D01*
Y111758D01*
X84000D01*
Y111408D01*
X83912D01*
Y111057D01*
X83825D01*
Y110619D01*
X83737D01*
Y110180D01*
X83649D01*
Y110005D01*
X84263D01*
Y110093D01*
X84701D01*
Y110180D01*
X85052D01*
Y110268D01*
X85578D01*
Y110356D01*
X85929D01*
Y110443D01*
X86279D01*
Y110531D01*
X86718D01*
Y110619D01*
X86893D01*
Y110706D01*
X86981D01*
Y110882D01*
X87068D01*
Y111057D01*
X87156D01*
Y111232D01*
X87244D01*
Y111408D01*
X87331D01*
Y111583D01*
X87419D01*
Y111758D01*
X87507D01*
Y111934D01*
X87594D01*
Y112109D01*
X87682D01*
Y112197D01*
X87770D01*
Y112372D01*
X87857D01*
Y112547D01*
X87945D01*
Y112723D01*
X88033D01*
Y112810D01*
X88120D01*
Y112986D01*
X88208D01*
Y113073D01*
X88296D01*
Y113249D01*
X88383D01*
Y113336D01*
X88471D01*
Y113424D01*
X88559D01*
Y113599D01*
X88646D01*
Y113687D01*
X88734D01*
Y113775D01*
X88822D01*
Y113862D01*
X88909D01*
Y113950D01*
X88997D01*
Y114038D01*
X89085D01*
Y114125D01*
X89172D01*
Y114213D01*
X89260D01*
Y114301D01*
X89348D01*
Y114388D01*
X89435D01*
Y114476D01*
X89523D01*
Y114564D01*
X89611D01*
Y114651D01*
X89698D01*
Y114739D01*
X89786D01*
Y114827D01*
X89874D01*
Y114914D01*
X90049D01*
Y115002D01*
X90137D01*
Y115090D01*
X90224D01*
Y115177D01*
X90312D01*
Y115265D01*
X90487D01*
Y115353D01*
X90575D01*
Y115440D01*
X90750D01*
Y115528D01*
X90838D01*
Y115616D01*
X90926D01*
Y115703D01*
X91013D01*
Y115791D01*
X90838D01*
Y115879D01*
X90312D01*
Y115966D01*
X89435D01*
Y116054D01*
X87857D01*
Y116142D01*
D02*
G37*
G36*
X85666D02*
X84701D01*
Y116054D01*
X84438D01*
Y115966D01*
X84263D01*
Y115879D01*
X84088D01*
Y115791D01*
X83912D01*
Y115703D01*
X83737D01*
Y115616D01*
X83649D01*
Y115528D01*
X83474D01*
Y115440D01*
X83386D01*
Y115353D01*
X83299D01*
Y115265D01*
X83211D01*
Y115177D01*
X83123D01*
Y115090D01*
X83036D01*
Y115002D01*
X82948D01*
Y114914D01*
X82860D01*
Y114827D01*
X82773D01*
Y114739D01*
X82685D01*
Y114651D01*
X82597D01*
Y114564D01*
X82510D01*
Y114476D01*
X82422D01*
Y114301D01*
X82334D01*
Y114125D01*
X82247D01*
Y114038D01*
X82159D01*
Y113775D01*
X82071D01*
Y113512D01*
X81984D01*
Y111671D01*
X82071D01*
Y111320D01*
X82159D01*
Y111057D01*
X82247D01*
Y110882D01*
X82334D01*
Y110794D01*
X82422D01*
Y110619D01*
X82510D01*
Y110531D01*
X82597D01*
Y110443D01*
X82685D01*
Y110268D01*
X82773D01*
Y110180D01*
X82860D01*
Y110093D01*
X82948D01*
Y110005D01*
X83123D01*
Y109917D01*
X83211D01*
Y110093D01*
X83299D01*
Y110356D01*
X83386D01*
Y110794D01*
X83474D01*
Y111232D01*
X83562D01*
Y111583D01*
X83649D01*
Y111934D01*
X83737D01*
Y112197D01*
X83825D01*
Y112460D01*
X83912D01*
Y112723D01*
X84000D01*
Y112898D01*
X84088D01*
Y113073D01*
X84175D01*
Y113336D01*
X84263D01*
Y113512D01*
X84351D01*
Y113687D01*
X84438D01*
Y113775D01*
X84526D01*
Y113950D01*
X84614D01*
Y114125D01*
X84701D01*
Y114213D01*
X84789D01*
Y114388D01*
X84877D01*
Y114476D01*
X84964D01*
Y114651D01*
X85052D01*
Y114739D01*
X85140D01*
Y114827D01*
X85227D01*
Y115002D01*
X85315D01*
Y115090D01*
X85403D01*
Y115177D01*
X85490D01*
Y115265D01*
X85578D01*
Y115353D01*
X85666D01*
Y115440D01*
X85753D01*
Y115528D01*
X85841D01*
Y115616D01*
X85929D01*
Y115703D01*
X86016D01*
Y115791D01*
X86104D01*
Y115879D01*
X86192D01*
Y115966D01*
X86016D01*
Y116054D01*
X85666D01*
Y116142D01*
D02*
G37*
%LPD*%
G36*
X75759Y184083D02*
X76110D01*
Y183995D01*
X76285D01*
Y183907D01*
X76461D01*
Y183732D01*
X76548D01*
Y183644D01*
X76636D01*
Y183469D01*
X76724D01*
Y183118D01*
X76811D01*
Y182329D01*
X76724D01*
Y182066D01*
X76636D01*
Y181891D01*
X76548D01*
Y181803D01*
X76461D01*
Y181716D01*
X76373D01*
Y181628D01*
X76198D01*
Y181540D01*
X76022D01*
Y181453D01*
X75672D01*
Y181365D01*
X75146D01*
Y181277D01*
X74181D01*
Y181190D01*
X73217D01*
Y181102D01*
X72604D01*
Y181014D01*
X71990D01*
Y180927D01*
X71639D01*
Y180839D01*
X71288D01*
Y180751D01*
X71113D01*
Y180488D01*
X71026D01*
Y179962D01*
X70938D01*
Y179699D01*
X70850D01*
Y179524D01*
X70763D01*
Y179349D01*
X70675D01*
Y179261D01*
X70587D01*
Y179173D01*
X70412D01*
Y179086D01*
X70324D01*
Y178998D01*
X70149D01*
Y178910D01*
X70061D01*
Y178823D01*
X69886D01*
Y178735D01*
X69710D01*
Y178647D01*
X69535D01*
Y178560D01*
X69272D01*
Y178472D01*
X69097D01*
Y178384D01*
X68921D01*
Y178297D01*
X68746D01*
Y178209D01*
X68483D01*
Y178121D01*
X67694D01*
Y178209D01*
X67431D01*
Y178297D01*
X67256D01*
Y178384D01*
X67080D01*
Y178472D01*
X66993D01*
Y178560D01*
X66905D01*
Y178647D01*
X66817D01*
Y178735D01*
X66730D01*
Y178823D01*
X66642D01*
Y178910D01*
X66554D01*
Y178998D01*
X66467D01*
Y179086D01*
X66379D01*
Y179173D01*
X66291D01*
Y179261D01*
X66204D01*
Y179349D01*
X66116D01*
Y179524D01*
X66028D01*
Y179612D01*
X65941D01*
Y179699D01*
X65853D01*
Y179787D01*
X65503D01*
Y179699D01*
X65240D01*
Y179612D01*
X65064D01*
Y179524D01*
X64977D01*
Y179436D01*
X64801D01*
Y179349D01*
X64626D01*
Y179261D01*
X64538D01*
Y179173D01*
X64363D01*
Y179086D01*
X64187D01*
Y178998D01*
X64100D01*
Y178910D01*
X63924D01*
Y178823D01*
X63486D01*
Y178910D01*
X63311D01*
Y178998D01*
X63223D01*
Y179086D01*
X63135D01*
Y179173D01*
X63048D01*
Y179261D01*
X62960D01*
Y179436D01*
X62873D01*
Y179524D01*
X62785D01*
Y179699D01*
X62697D01*
Y179875D01*
X62610D01*
Y180050D01*
X62522D01*
Y180751D01*
X62610D01*
Y180839D01*
X62697D01*
Y180927D01*
X62873D01*
Y181014D01*
X63749D01*
Y180927D01*
X64275D01*
Y180839D01*
X64977D01*
Y180751D01*
X67080D01*
Y180839D01*
X67519D01*
Y180927D01*
X67870D01*
Y181014D01*
X68220D01*
Y181102D01*
X68483D01*
Y181190D01*
X68746D01*
Y181277D01*
X68921D01*
Y181365D01*
X69097D01*
Y181453D01*
X69272D01*
Y181540D01*
X69535D01*
Y181628D01*
X69710D01*
Y181716D01*
X69886D01*
Y181803D01*
X70061D01*
Y181891D01*
X70237D01*
Y181979D01*
X70324D01*
Y182066D01*
X70500D01*
Y182154D01*
X70675D01*
Y182242D01*
X70850D01*
Y182329D01*
X71026D01*
Y182417D01*
X71113D01*
Y182505D01*
X71288D01*
Y182592D01*
X71464D01*
Y182680D01*
X71551D01*
Y182768D01*
X71727D01*
Y182855D01*
X71902D01*
Y182943D01*
X72077D01*
Y183031D01*
X72253D01*
Y183118D01*
X72428D01*
Y183206D01*
X72604D01*
Y183294D01*
X72779D01*
Y183381D01*
X72954D01*
Y183469D01*
X73129D01*
Y183557D01*
X73305D01*
Y183644D01*
X73480D01*
Y183732D01*
X73743D01*
Y183820D01*
X73918D01*
Y183907D01*
X74181D01*
Y183995D01*
X74532D01*
Y184083D01*
X74970D01*
Y184170D01*
X75759D01*
Y184083D01*
D02*
G37*
G36*
X84964Y148140D02*
X85140D01*
Y148052D01*
X85227D01*
Y147964D01*
X85315D01*
Y147877D01*
X85403D01*
Y147789D01*
X85490D01*
Y147701D01*
X85578D01*
Y147614D01*
X85666D01*
Y147526D01*
X85753D01*
Y147351D01*
X85841D01*
Y147263D01*
X85929D01*
Y147088D01*
X86016D01*
Y146912D01*
X86104D01*
Y146562D01*
X86192D01*
Y146036D01*
X86279D01*
Y145071D01*
X86192D01*
Y144370D01*
X86104D01*
Y143756D01*
X86016D01*
Y143318D01*
X85929D01*
Y142880D01*
X85841D01*
Y142441D01*
X85753D01*
Y142003D01*
X85666D01*
Y141477D01*
X85578D01*
Y141039D01*
X85403D01*
Y141915D01*
X85490D01*
Y142704D01*
X85578D01*
Y143318D01*
X85666D01*
Y143932D01*
X85753D01*
Y144545D01*
X85841D01*
Y146474D01*
X85753D01*
Y146825D01*
X85666D01*
Y147000D01*
X85578D01*
Y147175D01*
X85490D01*
Y147351D01*
X85403D01*
Y147526D01*
X85315D01*
Y147614D01*
X85227D01*
Y147701D01*
X85140D01*
Y147877D01*
X85052D01*
Y147964D01*
X84964D01*
Y148052D01*
X84877D01*
Y148140D01*
X84789D01*
Y148227D01*
X84964D01*
Y148140D01*
D02*
G37*
%LPC*%
G36*
X73831Y183381D02*
X73568D01*
Y183294D01*
X73392D01*
Y183206D01*
X73217D01*
Y183031D01*
X73568D01*
Y183118D01*
X73743D01*
Y183294D01*
X73831D01*
Y183381D01*
D02*
G37*
G36*
X72428Y182592D02*
X72077D01*
Y182505D01*
X71990D01*
Y182417D01*
X71814D01*
Y182329D01*
X71639D01*
Y182242D01*
X71551D01*
Y182154D01*
X71376D01*
Y182066D01*
X71288D01*
Y181891D01*
X71814D01*
Y181979D01*
X71990D01*
Y182066D01*
X72077D01*
Y182154D01*
X72165D01*
Y182242D01*
X72253D01*
Y182329D01*
X72340D01*
Y182505D01*
X72428D01*
Y182592D01*
D02*
G37*
G36*
X75672Y183820D02*
X75146D01*
Y183732D01*
X74707D01*
Y183644D01*
X74444D01*
Y183557D01*
X74357D01*
Y183469D01*
X74269D01*
Y183381D01*
X74181D01*
Y183118D01*
X74094D01*
Y183031D01*
X74006D01*
Y182855D01*
X73918D01*
Y182768D01*
X73743D01*
Y182680D01*
X72779D01*
Y182505D01*
X72691D01*
Y182242D01*
X72604D01*
Y182066D01*
X72516D01*
Y181979D01*
X72428D01*
Y181891D01*
X72340D01*
Y181803D01*
X72253D01*
Y181716D01*
X72165D01*
Y181628D01*
X71990D01*
Y181540D01*
X71026D01*
Y181628D01*
X70587D01*
Y181453D01*
X70675D01*
Y181102D01*
X71113D01*
Y181190D01*
X71551D01*
Y181277D01*
X71990D01*
Y181365D01*
X72428D01*
Y181453D01*
X73042D01*
Y181540D01*
X73918D01*
Y181628D01*
X74795D01*
Y181716D01*
X75409D01*
Y181803D01*
X75759D01*
Y181891D01*
X76022D01*
Y181979D01*
X76198D01*
Y182066D01*
X76285D01*
Y182242D01*
X76373D01*
Y182505D01*
X76461D01*
Y182855D01*
X76373D01*
Y183206D01*
X76285D01*
Y183469D01*
X76198D01*
Y183557D01*
X76110D01*
Y183644D01*
X75935D01*
Y183732D01*
X75672D01*
Y183820D01*
D02*
G37*
G36*
X64100Y180576D02*
X62873D01*
Y180225D01*
X62960D01*
Y180050D01*
X63048D01*
Y179875D01*
X63135D01*
Y179699D01*
X63223D01*
Y179612D01*
X63311D01*
Y179524D01*
X63399D01*
Y179349D01*
X63574D01*
Y179261D01*
X63837D01*
Y179349D01*
X64012D01*
Y179436D01*
X64187D01*
Y179524D01*
X64275D01*
Y179612D01*
X64450D01*
Y179699D01*
X64626D01*
Y179787D01*
X64714D01*
Y179875D01*
X64889D01*
Y179962D01*
X65152D01*
Y180050D01*
X65327D01*
Y180138D01*
X65503D01*
Y180313D01*
X65064D01*
Y180401D01*
X64538D01*
Y180488D01*
X64100D01*
Y180576D01*
D02*
G37*
G36*
X70237Y181365D02*
X69974D01*
Y181277D01*
X69710D01*
Y181190D01*
X69623D01*
Y181102D01*
X69360D01*
Y181014D01*
X69184D01*
Y180927D01*
X69009D01*
Y180839D01*
X68921D01*
Y180751D01*
X68746D01*
Y180401D01*
X68834D01*
Y180138D01*
X68921D01*
Y179875D01*
X69009D01*
Y179612D01*
X69097D01*
Y179349D01*
X69184D01*
Y179261D01*
Y179173D01*
X69272D01*
Y178998D01*
X69535D01*
Y179086D01*
X69710D01*
Y179173D01*
X69886D01*
Y179261D01*
X69974D01*
Y179349D01*
X70061D01*
Y179436D01*
X70237D01*
Y179524D01*
X70324D01*
Y179612D01*
X70412D01*
Y179699D01*
X70500D01*
Y179875D01*
X70587D01*
Y180488D01*
X70500D01*
Y180751D01*
X70412D01*
Y180927D01*
X70324D01*
Y181190D01*
X70237D01*
Y181365D01*
D02*
G37*
G36*
X68133Y180576D02*
X67957D01*
Y180488D01*
X67431D01*
Y180401D01*
X66993D01*
Y180313D01*
X66379D01*
Y180225D01*
X66204D01*
Y180050D01*
X66291D01*
Y179875D01*
X66379D01*
Y179699D01*
X66467D01*
Y179612D01*
X66554D01*
Y179436D01*
X66642D01*
Y179349D01*
X66730D01*
Y179261D01*
X66817D01*
Y179173D01*
X66905D01*
Y179086D01*
X66993D01*
Y178998D01*
X67080D01*
Y178910D01*
X67168D01*
Y178823D01*
X67344D01*
Y178735D01*
X67431D01*
Y178647D01*
X67519D01*
Y178560D01*
X67870D01*
Y178472D01*
X68396D01*
Y178560D01*
X68658D01*
Y178647D01*
X68746D01*
Y179436D01*
X68658D01*
Y179699D01*
X68571D01*
Y179875D01*
X68483D01*
Y180138D01*
X68396D01*
Y180313D01*
X68308D01*
Y180488D01*
X68133D01*
Y180576D01*
D02*
G37*
%LPD*%
G36*
X69009Y184433D02*
X69097D01*
Y184346D01*
X69184D01*
Y184258D01*
X69272D01*
Y184083D01*
Y183995D01*
Y183557D01*
X69184D01*
Y183469D01*
X69009D01*
Y183820D01*
X68921D01*
Y183995D01*
X68834D01*
Y184083D01*
X68658D01*
Y183995D01*
X68571D01*
Y183907D01*
X68483D01*
Y183820D01*
X68308D01*
Y183732D01*
X68220D01*
Y183820D01*
X68133D01*
Y183907D01*
X68220D01*
Y184083D01*
X68308D01*
Y184170D01*
X68396D01*
Y184258D01*
X68483D01*
Y184346D01*
X68571D01*
Y184433D01*
X68746D01*
Y184521D01*
X69009D01*
Y184433D01*
D02*
G37*
G36*
X65678Y183644D02*
X65941D01*
Y183557D01*
X66116D01*
Y183469D01*
X66204D01*
Y183381D01*
X66291D01*
Y183294D01*
X66379D01*
Y183206D01*
X66467D01*
Y183031D01*
X66379D01*
Y183118D01*
X66116D01*
Y183206D01*
X65853D01*
Y183294D01*
X65503D01*
Y183206D01*
X65590D01*
Y183118D01*
X65678D01*
Y183031D01*
X65766D01*
Y182943D01*
X65853D01*
Y182855D01*
X65503D01*
Y182943D01*
X65327D01*
Y183031D01*
X65240D01*
Y183118D01*
X65152D01*
Y183294D01*
X65064D01*
Y183557D01*
X65152D01*
Y183644D01*
X65240D01*
Y183732D01*
X65678D01*
Y183644D01*
D02*
G37*
G36*
X82159Y143055D02*
X83123D01*
Y142967D01*
X83562D01*
Y142880D01*
X83649D01*
Y142792D01*
X81370D01*
Y142704D01*
X80669D01*
Y142617D01*
X80318D01*
Y142529D01*
X79967D01*
Y142441D01*
X79617D01*
Y142354D01*
X79266D01*
Y142266D01*
X79091D01*
Y142178D01*
X78915D01*
Y142091D01*
X78740D01*
Y142003D01*
X78565D01*
Y141915D01*
X78389D01*
Y141828D01*
X78302D01*
Y141740D01*
X78126D01*
Y141652D01*
X78039D01*
Y141565D01*
X77951D01*
Y141477D01*
X77863D01*
Y141389D01*
X77776D01*
Y141302D01*
X77688D01*
Y141214D01*
X77600D01*
Y141126D01*
X77513D01*
Y141039D01*
X77425D01*
Y140951D01*
X77337D01*
Y140863D01*
X77162D01*
Y140776D01*
X77074D01*
Y140951D01*
X77162D01*
Y141126D01*
X77250D01*
Y141214D01*
X77337D01*
Y141389D01*
X77425D01*
Y141477D01*
X77513D01*
Y141565D01*
X77600D01*
Y141652D01*
X77688D01*
Y141740D01*
X77776D01*
Y141828D01*
X77863D01*
Y141915D01*
X77951D01*
Y142003D01*
X78039D01*
Y142091D01*
X78126D01*
Y142178D01*
X78302D01*
Y142266D01*
X78389D01*
Y142354D01*
X78565D01*
Y142441D01*
X78740D01*
Y142529D01*
X79003D01*
Y142617D01*
X79178D01*
Y142704D01*
X79441D01*
Y142792D01*
X79704D01*
Y142880D01*
X79967D01*
Y142967D01*
X80318D01*
Y143055D01*
X80844D01*
Y143143D01*
X82159D01*
Y143055D01*
D02*
G37*
G36*
X77074Y140688D02*
X76987D01*
Y140776D01*
X77074D01*
Y140688D01*
D02*
G37*
G36*
X79003Y138935D02*
X78915D01*
Y139022D01*
X79003D01*
Y138935D01*
D02*
G37*
G36*
X96010Y132448D02*
X95923D01*
Y132535D01*
X96010D01*
Y132448D01*
D02*
G37*
G36*
X95923Y132360D02*
X95835D01*
Y132448D01*
X95923D01*
Y132360D01*
D02*
G37*
G36*
X95835Y132272D02*
X95747D01*
Y132184D01*
X95660D01*
Y132097D01*
X95572D01*
Y132009D01*
X95397D01*
Y131922D01*
X95309D01*
Y131834D01*
X95221D01*
Y131746D01*
X95134D01*
Y131658D01*
X94958D01*
Y131571D01*
X94871D01*
Y131483D01*
X94783D01*
Y131396D01*
X94695D01*
Y131308D01*
X94520D01*
Y131220D01*
X94432D01*
Y131132D01*
X94345D01*
Y131045D01*
X94169D01*
Y130957D01*
X94082D01*
Y130870D01*
X93994D01*
Y130782D01*
X93819D01*
Y130694D01*
X93731D01*
Y130606D01*
X93643D01*
Y130519D01*
X93468D01*
Y130431D01*
X93380D01*
Y130344D01*
X93293D01*
Y130256D01*
X93117D01*
Y130168D01*
X93030D01*
Y130080D01*
X92942D01*
Y129993D01*
X92767D01*
Y129905D01*
X92679D01*
Y129817D01*
X92591D01*
Y129730D01*
X92416D01*
Y129642D01*
X92328D01*
Y129555D01*
X92153D01*
Y129467D01*
X92065D01*
Y129379D01*
X91978D01*
Y129291D01*
X91890D01*
Y129204D01*
X91715D01*
Y129116D01*
X91627D01*
Y129029D01*
X91539D01*
Y128941D01*
X91364D01*
Y128853D01*
X91276D01*
Y128765D01*
X91189D01*
Y128678D01*
X91013D01*
Y128590D01*
X90926D01*
Y128503D01*
X90838D01*
Y128415D01*
X90750D01*
Y128327D01*
X90663D01*
Y128239D01*
X90575D01*
Y128152D01*
X90487D01*
Y128064D01*
X90400D01*
Y127977D01*
X90312D01*
Y127889D01*
X90137D01*
Y127801D01*
X90049D01*
Y127713D01*
X89961D01*
Y127626D01*
X89874D01*
Y127538D01*
X89786D01*
Y127451D01*
X89698D01*
Y127275D01*
X89611D01*
Y127188D01*
X89523D01*
Y127100D01*
X89435D01*
Y127012D01*
X89348D01*
Y126925D01*
X89260D01*
Y126837D01*
X89172D01*
Y126749D01*
X89085D01*
Y126662D01*
X88997D01*
Y126486D01*
X88909D01*
Y126399D01*
X88822D01*
Y126311D01*
X88734D01*
Y126136D01*
X88646D01*
Y126048D01*
X88559D01*
Y125873D01*
X88471D01*
Y125785D01*
X88383D01*
Y125610D01*
X88296D01*
Y125522D01*
X88208D01*
Y125347D01*
X88120D01*
Y125171D01*
X88033D01*
Y124908D01*
X87945D01*
Y124645D01*
X87857D01*
Y125084D01*
X87945D01*
Y125347D01*
X88033D01*
Y125610D01*
X88120D01*
Y125785D01*
X88208D01*
Y125960D01*
X88296D01*
Y126136D01*
X88383D01*
Y126223D01*
X88471D01*
Y126399D01*
X88559D01*
Y126486D01*
X88646D01*
Y126662D01*
X88734D01*
Y126749D01*
X88822D01*
Y126925D01*
X88909D01*
Y127012D01*
X88997D01*
Y127100D01*
X89085D01*
Y127275D01*
X89172D01*
Y127363D01*
X89260D01*
Y127451D01*
X89348D01*
Y127538D01*
X89435D01*
Y127713D01*
X89523D01*
Y127801D01*
X89611D01*
Y127889D01*
X89698D01*
Y127977D01*
X89786D01*
Y128064D01*
X89874D01*
Y128152D01*
X89961D01*
Y128239D01*
X90049D01*
Y128327D01*
X90137D01*
Y128415D01*
X90224D01*
Y128503D01*
X90312D01*
Y128590D01*
X90400D01*
Y128678D01*
X90487D01*
Y128765D01*
X90575D01*
Y128853D01*
X90750D01*
Y128941D01*
X90838D01*
Y129029D01*
X90926D01*
Y129116D01*
X91101D01*
Y129204D01*
X91189D01*
Y129291D01*
X91276D01*
Y129379D01*
X91364D01*
Y129467D01*
X91539D01*
Y129555D01*
X91627D01*
Y129642D01*
X91802D01*
Y129730D01*
X91890D01*
Y129817D01*
X92065D01*
Y129905D01*
X92153D01*
Y129993D01*
X92241D01*
Y130080D01*
X92416D01*
Y130168D01*
X92504D01*
Y130256D01*
X92679D01*
Y130344D01*
X92767D01*
Y130431D01*
X92942D01*
Y130519D01*
X93030D01*
Y130606D01*
X93205D01*
Y130694D01*
X93293D01*
Y130782D01*
X93468D01*
Y130870D01*
X93556D01*
Y130957D01*
X93731D01*
Y131045D01*
X93819D01*
Y131132D01*
X93906D01*
Y131220D01*
X94082D01*
Y131308D01*
X94257D01*
Y131396D01*
X94345D01*
Y131483D01*
X94520D01*
Y131571D01*
X94608D01*
Y131658D01*
X94783D01*
Y131746D01*
X94871D01*
Y131834D01*
X95046D01*
Y131922D01*
X95134D01*
Y132009D01*
X95309D01*
Y132097D01*
X95397D01*
Y132184D01*
X95572D01*
Y132272D01*
X95660D01*
Y132360D01*
X95835D01*
Y132272D01*
D02*
G37*
G36*
X73918Y119385D02*
X74181D01*
Y119298D01*
X74444D01*
Y119210D01*
X74795D01*
Y119122D01*
X75146D01*
Y119035D01*
X75496D01*
Y118947D01*
X75759D01*
Y118859D01*
X76110D01*
Y118772D01*
X76373D01*
Y118684D01*
X76636D01*
Y118596D01*
X76811D01*
Y118509D01*
X77074D01*
Y118421D01*
X77250D01*
Y118333D01*
X77425D01*
Y118246D01*
X77513D01*
Y118158D01*
X77688D01*
Y118070D01*
X77776D01*
Y117983D01*
X77863D01*
Y117895D01*
X77951D01*
Y117807D01*
X78039D01*
Y117720D01*
X78126D01*
Y117632D01*
X78214D01*
Y117544D01*
X78302D01*
Y117457D01*
X78389D01*
Y117369D01*
X78477D01*
Y117281D01*
X78565D01*
Y117194D01*
X78652D01*
Y117018D01*
X78477D01*
Y117106D01*
X78389D01*
Y117194D01*
X78302D01*
Y117281D01*
X78214D01*
Y117369D01*
X78039D01*
Y117457D01*
X77951D01*
Y117544D01*
X77776D01*
Y117632D01*
X77688D01*
Y117720D01*
X77513D01*
Y117807D01*
X77337D01*
Y117895D01*
X77162D01*
Y117983D01*
X76987D01*
Y118070D01*
X76811D01*
Y118158D01*
X76636D01*
Y118246D01*
X76373D01*
Y118333D01*
X76110D01*
Y118421D01*
X75847D01*
Y118509D01*
X75672D01*
Y118596D01*
X75409D01*
Y118684D01*
X75146D01*
Y118772D01*
X74883D01*
Y118859D01*
X74620D01*
Y118947D01*
X74444D01*
Y119035D01*
X74181D01*
Y119122D01*
X74006D01*
Y119210D01*
X73831D01*
Y119298D01*
X73743D01*
Y119385D01*
X73656D01*
Y119473D01*
X73918D01*
Y119385D01*
D02*
G37*
G36*
X83386Y117632D02*
X83649D01*
Y117544D01*
X83825D01*
Y117457D01*
X84000D01*
Y117369D01*
X84088D01*
Y117281D01*
X84175D01*
Y117194D01*
X84263D01*
Y117106D01*
X84351D01*
Y116931D01*
X84175D01*
Y117018D01*
X84000D01*
Y117106D01*
X83737D01*
Y117194D01*
X83562D01*
Y117281D01*
X83386D01*
Y117369D01*
X83211D01*
Y117457D01*
X83036D01*
Y117544D01*
X82773D01*
Y117632D01*
X82685D01*
Y117720D01*
X83386D01*
Y117632D01*
D02*
G37*
G36*
X82159Y117018D02*
X82685D01*
Y116931D01*
X82860D01*
Y116843D01*
X82948D01*
Y116755D01*
X83123D01*
Y116668D01*
X83211D01*
Y116580D01*
X83299D01*
Y116405D01*
X83123D01*
Y116492D01*
X82860D01*
Y116580D01*
X82597D01*
Y116668D01*
X82422D01*
Y116755D01*
X82159D01*
Y116843D01*
X81984D01*
Y116931D01*
X81896D01*
Y117018D01*
X82071D01*
Y117106D01*
X82159D01*
Y117018D01*
D02*
G37*
G36*
X97150Y115440D02*
X97500D01*
Y115353D01*
X97764D01*
Y115265D01*
X97939D01*
Y115177D01*
X98027D01*
Y115090D01*
X98202D01*
Y115002D01*
X98289D01*
Y114914D01*
X98377D01*
Y114827D01*
X98465D01*
Y114739D01*
X98553D01*
Y114564D01*
X98640D01*
Y114301D01*
X98465D01*
Y114388D01*
X98377D01*
Y114476D01*
X98289D01*
Y114564D01*
X98114D01*
Y114651D01*
X98027D01*
Y114739D01*
X97851D01*
Y114827D01*
X97764D01*
Y114914D01*
X97676D01*
Y115002D01*
X97500D01*
Y115090D01*
X97413D01*
Y115177D01*
X97325D01*
Y115265D01*
X97150D01*
Y115353D01*
X97062D01*
Y115528D01*
X97150D01*
Y115440D01*
D02*
G37*
G36*
X96536Y114827D02*
X96712D01*
Y114739D01*
X96887D01*
Y114651D01*
X96974D01*
Y114564D01*
X97062D01*
Y114476D01*
X97150D01*
Y114388D01*
X97238D01*
Y114301D01*
X97325D01*
Y114213D01*
X97413D01*
Y114125D01*
X97500D01*
Y113950D01*
X97588D01*
Y113775D01*
X97676D01*
Y113512D01*
X97588D01*
Y113599D01*
X97413D01*
Y113687D01*
X97325D01*
Y113775D01*
X97238D01*
Y113862D01*
X97150D01*
Y113950D01*
X97062D01*
Y114038D01*
X96974D01*
Y114125D01*
X96887D01*
Y114213D01*
X96799D01*
Y114301D01*
X96712D01*
Y114388D01*
X96624D01*
Y114476D01*
X96536D01*
Y114564D01*
X96448D01*
Y114651D01*
X96361D01*
Y114827D01*
X96273D01*
Y114914D01*
X96536D01*
Y114827D01*
D02*
G37*
D10*
X479000Y85000D02*
G03*
X479000Y85000I-1250J0D01*
G01*
X134150Y24245D02*
G03*
X134150Y24245I-1250J0D01*
G01*
X90250Y328500D02*
G03*
X90250Y328500I-1250J0D01*
G01*
X479000Y225000D02*
G03*
X479000Y225000I-1250J0D01*
G01*
X328500Y303750D02*
G03*
X328500Y303750I-1250J0D01*
G01*
Y338750D02*
G03*
X328500Y338750I-1250J0D01*
G01*
Y233750D02*
G03*
X328500Y233750I-1250J0D01*
G01*
Y268750D02*
G03*
X328500Y268750I-1250J0D01*
G01*
X328500Y198750D02*
G03*
X328500Y198750I-1250J0D01*
G01*
Y163750D02*
G03*
X328500Y163750I-1250J0D01*
G01*
Y93750D02*
G03*
X328500Y93750I-1250J0D01*
G01*
Y128750D02*
G03*
X328500Y128750I-1250J0D01*
G01*
X290250Y355250D02*
G03*
X290250Y355250I-1250J0D01*
G01*
X177650Y359750D02*
G03*
X177650Y359750I-1250J0D01*
G01*
X307500Y51750D02*
G03*
X307500Y51750I-1250J0D01*
G01*
X177850Y340250D02*
G03*
X177850Y340250I-1250J0D01*
G01*
X212950Y368400D02*
G03*
X212950Y368400I-1250J0D01*
G01*
X192750Y291000D02*
G03*
X192750Y291000I-1250J0D01*
G01*
X167750Y328250D02*
G03*
X167750Y328250I-1250J0D01*
G01*
X234750Y235500D02*
G03*
X234750Y235500I-1250J0D01*
G01*
D11*
X148500Y46000D02*
G03*
X148500Y46000I-2500J0D01*
G01*
D12*
X41000Y172850D02*
G03*
X41000Y172850I-1000J0D01*
G01*
X397550Y67500D02*
X413250D01*
X438750D02*
X472650D01*
Y192500D01*
X397550D02*
X413250D01*
X438750D02*
X472650D01*
X397550Y181750D02*
Y192500D01*
Y67500D02*
Y78250D01*
X73439Y50439D02*
X90561D01*
X73439Y65561D02*
X90561D01*
X94439D02*
X111561D01*
X94439Y50439D02*
X111561D01*
X137500Y37500D02*
Y162500D01*
X262500D01*
Y37500D02*
Y162500D01*
X137500Y37500D02*
X262500D01*
X421500Y13500D02*
Y46500D01*
X398500Y13500D02*
X398750D01*
X421250D02*
X421500D01*
X398500D02*
Y46500D01*
X398750D01*
X421250D02*
X421500D01*
X371500Y13500D02*
Y46500D01*
X348500Y13500D02*
X348750D01*
X371250D02*
X371500D01*
X348500D02*
Y46500D01*
X348750D01*
X371250D02*
X371500D01*
X106130Y341745D02*
X113870D01*
X106130Y358255D02*
X113870D01*
X123000Y197500D02*
Y322500D01*
X-3000Y197500D02*
X123000D01*
X-3000D02*
Y322500D01*
X123000D01*
X397550Y207500D02*
Y218250D01*
Y321750D02*
Y332500D01*
X438750D02*
X472650D01*
X397550D02*
X413250D01*
X472650Y207500D02*
Y332500D01*
X438750Y207500D02*
X472650D01*
X397550D02*
X413250D01*
X333500Y301000D02*
X340500D01*
X333500Y279000D02*
X340500D01*
X333500D02*
Y301000D01*
X340500Y279000D02*
Y301000D01*
X333500Y336000D02*
X340500D01*
X333500Y314000D02*
X340500D01*
X333500D02*
Y336000D01*
X340500Y314000D02*
Y336000D01*
X333500Y231000D02*
X340500D01*
X333500Y209000D02*
X340500D01*
X333500D02*
Y231000D01*
X340500Y209000D02*
Y231000D01*
X333500Y266000D02*
X340500D01*
X333500Y244000D02*
X340500D01*
X333500D02*
Y266000D01*
X340500Y244000D02*
Y266000D01*
X333500Y196000D02*
X340500D01*
X333500Y174000D02*
X340500D01*
X333500D02*
Y196000D01*
X340500Y174000D02*
Y196000D01*
X333500Y161000D02*
X340500D01*
X333500Y139000D02*
X340500D01*
X333500D02*
Y161000D01*
X340500Y139000D02*
Y161000D01*
X333500Y91000D02*
X340500D01*
X333500Y69000D02*
X340500D01*
X333500D02*
Y91000D01*
X340500Y69000D02*
Y91000D01*
X333500Y126000D02*
X340500D01*
X333500Y104000D02*
X340500D01*
X333500D02*
Y126000D01*
X340500Y104000D02*
Y126000D01*
X222500Y304500D02*
Y343500D01*
X289500Y304500D02*
Y343500D01*
X222500Y304500D02*
X289500D01*
X222500Y343500D02*
X289500D01*
X183400Y365500D02*
X188850D01*
X183400Y334500D02*
Y334750D01*
Y365250D02*
Y365500D01*
Y334500D02*
X188850D01*
X27300Y103650D02*
Y166350D01*
X2200Y103650D02*
Y166350D01*
X27300D01*
X2200Y103650D02*
X27300D01*
X333750Y11000D02*
Y45000D01*
X296250Y11000D02*
Y45000D01*
X86500Y89500D02*
X99500D01*
X86500Y70500D02*
X99500D01*
X164150Y334500D02*
X169600D01*
Y365250D02*
Y365500D01*
Y334500D02*
Y334750D01*
X164150Y365500D02*
X169600D01*
X187550Y372000D02*
Y388000D01*
X203150D01*
X187550Y372000D02*
X203150D01*
Y388000D01*
X267469Y388531D02*
X296531D01*
X267469Y369469D02*
X296531D01*
X226469Y388531D02*
X255531D01*
X226469Y369469D02*
X255531D01*
X159000Y271000D02*
X167000D01*
X159000D02*
Y281000D01*
X181000Y271000D02*
X189000D01*
Y281000D01*
X151531Y263469D02*
Y292531D01*
X132469Y263469D02*
Y292531D01*
X215531Y264469D02*
Y293531D01*
X196469Y264469D02*
Y293531D01*
X182750Y301750D02*
Y305250D01*
X174750Y301750D02*
X182750D01*
Y320250D02*
Y323750D01*
X174750D02*
X182750D01*
X58500Y11500D02*
X58750D01*
X81250D02*
X81500D01*
Y44500D01*
X58500D02*
X58750D01*
X81250D02*
X81500D01*
X58500Y11500D02*
Y44500D01*
X180650Y241000D02*
Y251000D01*
X193350Y241000D02*
Y251000D01*
X178750Y232709D02*
Y253291D01*
X161250Y232709D02*
Y253291D01*
X139250Y230350D02*
Y231650D01*
X143250Y220000D02*
X152750D01*
Y236850D02*
Y242000D01*
Y220000D02*
Y225150D01*
X143250Y242000D02*
X152750D01*
X242750D02*
X265250D01*
X242750Y276000D02*
X265250D01*
X182000Y224650D02*
X192000D01*
X182000Y237350D02*
X192000D01*
X178750Y208709D02*
Y229291D01*
X161250Y208709D02*
Y229291D01*
X180650Y211000D02*
Y221000D01*
X193350Y211000D02*
Y221000D01*
X429003Y11673D02*
X439000D01*
Y16671D01*
X437334Y18337D01*
X435668D01*
X434002Y16671D01*
Y11673D01*
Y16671D01*
X432336Y18337D01*
X430669D01*
X429003Y16671D01*
Y11673D01*
Y26668D02*
Y23335D01*
X430669Y21669D01*
X437334D01*
X439000Y23335D01*
Y26668D01*
X437334Y28334D01*
X430669D01*
X429003Y26668D01*
Y36665D02*
Y33332D01*
X430669Y31666D01*
X437334D01*
X439000Y33332D01*
Y36665D01*
X437334Y38331D01*
X430669D01*
X429003Y36665D01*
Y41663D02*
Y48327D01*
Y44995D01*
X439000D01*
X389000Y16671D02*
X379003D01*
Y21669D01*
X380669Y23335D01*
X384002D01*
X385668Y21669D01*
Y16671D01*
Y20003D02*
X389000Y23335D01*
X380669Y33332D02*
X379003Y31666D01*
Y28334D01*
X380669Y26668D01*
X382336D01*
X384002Y28334D01*
Y31666D01*
X385668Y33332D01*
X387334D01*
X389000Y31666D01*
Y28334D01*
X387334Y26668D01*
X379003Y36665D02*
Y43329D01*
Y39997D01*
X389000D01*
X88003Y9673D02*
X98000D01*
X94668Y13005D01*
X98000Y16337D01*
X88003D01*
X98000Y19669D02*
X91335D01*
X88003Y23002D01*
X91335Y26334D01*
X98000D01*
X93002D01*
Y19669D01*
X88003Y29666D02*
X98000D01*
X94668D01*
X88003Y36331D01*
X93002Y31332D01*
X98000Y36331D01*
X88003Y46327D02*
Y39663D01*
X98000D01*
Y46327D01*
X93002Y39663D02*
Y42995D01*
X7000Y62000D02*
Y71997D01*
X10332Y68664D01*
X13664Y71997D01*
Y62000D01*
X23661Y70331D02*
X21995Y71997D01*
X18663D01*
X16997Y70331D01*
Y63666D01*
X18663Y62000D01*
X21995D01*
X23661Y63666D01*
X26994Y71997D02*
Y63666D01*
X28660Y62000D01*
X31992D01*
X33658Y63666D01*
Y71997D01*
X7000Y82000D02*
Y91997D01*
X11998D01*
X13664Y90331D01*
Y86998D01*
X11998Y85332D01*
X7000D01*
X16997Y91997D02*
Y82000D01*
X20329Y85332D01*
X23661Y82000D01*
Y91997D01*
X26994Y82000D02*
Y91997D01*
X31992D01*
X33658Y90331D01*
Y86998D01*
X31992Y85332D01*
X26994D01*
X30326D02*
X33658Y82000D01*
X7000Y186997D02*
Y177000D01*
X11998D01*
X13664Y178666D01*
Y185331D01*
X11998Y186997D01*
X7000D01*
X16997D02*
Y177000D01*
X21995D01*
X23661Y178666D01*
Y180332D01*
X21995Y181998D01*
X16997D01*
X21995D01*
X23661Y183664D01*
Y185331D01*
X21995Y186997D01*
X16997D01*
X33658Y185331D02*
X31992Y186997D01*
X28660D01*
X26994Y185331D01*
Y178666D01*
X28660Y177000D01*
X31992D01*
X33658Y178666D01*
Y181998D01*
X30326D01*
X7000Y332000D02*
Y341997D01*
X11998D01*
X13664Y340331D01*
Y336998D01*
X11998Y335332D01*
X7000D01*
X16997Y341997D02*
Y332000D01*
X20329Y335332D01*
X23661Y332000D01*
Y341997D01*
X26994Y332000D02*
Y341997D01*
X31992D01*
X33658Y340331D01*
Y336998D01*
X31992Y335332D01*
X26994D01*
X30326D02*
X33658Y332000D01*
X46987Y341997D02*
X50319D01*
X48653D01*
Y332000D01*
X46987D01*
X50319D01*
X55318D02*
Y341997D01*
X61982Y332000D01*
Y341997D01*
X483003Y87000D02*
X493000D01*
Y93665D01*
X483003Y103661D02*
Y96997D01*
X493000D01*
Y103661D01*
X488002Y96997D02*
Y100329D01*
X483003Y113658D02*
Y106994D01*
X488002D01*
Y110326D01*
Y106994D01*
X493000D01*
X483003Y116990D02*
Y123655D01*
Y120323D01*
X493000D01*
X484669Y143648D02*
X483003Y141982D01*
Y138650D01*
X484669Y136984D01*
X486335D01*
X488002Y138650D01*
Y141982D01*
X489668Y143648D01*
X491334D01*
X493000Y141982D01*
Y138650D01*
X491334Y136984D01*
X483003Y146981D02*
Y150313D01*
Y148647D01*
X493000D01*
Y146981D01*
Y150313D01*
X483003Y155311D02*
X493000D01*
Y160310D01*
X491334Y161976D01*
X484669D01*
X483003Y160310D01*
Y155311D01*
Y171973D02*
Y165308D01*
X493000D01*
Y171973D01*
X488002Y165308D02*
Y168640D01*
X493000Y222000D02*
X483003D01*
Y226998D01*
X484669Y228664D01*
X488002D01*
X489668Y226998D01*
Y222000D01*
Y225332D02*
X493000Y228664D01*
X483003Y231997D02*
Y235329D01*
Y233663D01*
X493000D01*
Y231997D01*
Y235329D01*
X484669Y246992D02*
X483003Y245326D01*
Y241994D01*
X484669Y240327D01*
X491334D01*
X493000Y241994D01*
Y245326D01*
X491334Y246992D01*
X488002D01*
Y243660D01*
X483003Y250324D02*
X493000D01*
X488002D01*
Y256989D01*
X483003D01*
X493000D01*
X483003Y260321D02*
Y266985D01*
Y263653D01*
X493000D01*
X484669Y286979D02*
X483003Y285313D01*
Y281981D01*
X484669Y280315D01*
X486335D01*
X488002Y281981D01*
Y285313D01*
X489668Y286979D01*
X491334D01*
X493000Y285313D01*
Y281981D01*
X491334Y280315D01*
X483003Y290311D02*
Y293644D01*
Y291977D01*
X493000D01*
Y290311D01*
Y293644D01*
X483003Y298642D02*
X493000D01*
Y303640D01*
X491334Y305306D01*
X484669D01*
X483003Y303640D01*
Y298642D01*
Y315303D02*
Y308639D01*
X493000D01*
Y315303D01*
X488002Y308639D02*
Y311971D01*
D13*
X71250Y65000D02*
G03*
X71250Y65000I-750J0D01*
G01*
Y85000D02*
G03*
X71250Y85000I-750J0D01*
G01*
D14*
X242189Y189267D02*
Y192145D01*
Y231855D02*
Y234733D01*
X265811D01*
Y189267D02*
Y192145D01*
X242189Y189267D02*
X265811D01*
Y231855D02*
Y234733D01*
D15*
X232854Y239362D02*
X241318Y230898D01*
X232854D02*
X241318Y239362D01*
X232854Y235130D02*
X241318D01*
X237087Y230898D02*
Y239362D01*
M02*
