G04*
G04 #@! TF.GenerationSoftware,Altium Limited,Altium Designer,24.4.1 (13)*
G04*
G04 Layer_Color=32896*
%FSLAX44Y44*%
%MOMM*%
G71*
G04*
G04 #@! TF.SameCoordinates,EA300020-20D2-4A69-A7C9-2FF48D3C62D3*
G04*
G04*
G04 #@! TF.FilePolarity,Positive*
G04*
G01*
G75*
%ADD10C,0.2500*%
%ADD12C,0.2000*%
D10*
X443750Y142750D02*
G03*
X443750Y142750I-1250J0D01*
G01*
Y104750D02*
G03*
X443750Y104750I-1250J0D01*
G01*
Y282750D02*
G03*
X443750Y282750I-1250J0D01*
G01*
Y244750D02*
G03*
X443750Y244750I-1250J0D01*
G01*
D12*
X312500Y9250D02*
X315000D01*
X312500Y23750D02*
X315000D01*
Y46750D02*
X317500D01*
X315000Y32250D02*
X317500D01*
X425000Y160250D02*
Y163750D01*
X447000Y160250D02*
Y163750D01*
X425000Y122250D02*
Y125750D01*
X447000Y122250D02*
Y125750D01*
Y300250D02*
Y303750D01*
X425000Y300250D02*
Y303750D01*
X447000Y262250D02*
Y265750D01*
X425000Y262250D02*
Y265750D01*
X233350Y198000D02*
Y208000D01*
X220650Y198000D02*
Y208000D01*
X220651Y216001D02*
Y226001D01*
X233351Y216001D02*
Y226001D01*
X248750Y151750D02*
X259250D01*
X248750Y164250D02*
X259250D01*
X248750Y35750D02*
X259250D01*
X248750Y48250D02*
X259250D01*
X135650Y61000D02*
Y71000D01*
X148350Y61000D02*
Y71000D01*
X156750Y151750D02*
X167250D01*
X156750Y164250D02*
X167250D01*
X140750D02*
X151250D01*
X140750Y151750D02*
X151250D01*
X156250Y138750D02*
X167750D01*
X156250Y151250D02*
X167750D01*
X201650Y33000D02*
Y43000D01*
X214350Y33000D02*
Y43000D01*
X140750Y48250D02*
X151250D01*
X140750Y35750D02*
X151250D01*
X156750D02*
X167250D01*
X156750Y48250D02*
X167250D01*
X248250Y125750D02*
X259750D01*
X248250Y138250D02*
X259750D01*
X248750Y138750D02*
X259250D01*
X248750Y151250D02*
X259250D01*
X216750Y35750D02*
X227250D01*
X216750Y48250D02*
X227250D01*
X209638Y48638D02*
X226362D01*
X209638Y63362D02*
X226362D01*
X189000Y48750D02*
X199000D01*
X189000Y63250D02*
X199000D01*
X233638Y63362D02*
X250362D01*
X233638Y48638D02*
X250362D01*
X232750Y48250D02*
X243250D01*
X232750Y35750D02*
X243250D01*
X153638Y48638D02*
X170362D01*
X153638Y63362D02*
X170362D01*
X188750Y48250D02*
X199250D01*
X188750Y35750D02*
X199250D01*
X223750Y67750D02*
Y78250D01*
X236250Y67750D02*
Y78250D01*
X353650Y13000D02*
Y23000D01*
X366350Y13000D02*
Y23000D01*
X76350Y35250D02*
Y45250D01*
X63650Y35250D02*
Y45250D01*
X272000Y204650D02*
X282000D01*
X272000Y217350D02*
X282000D01*
M02*
