M48
;Layer_Color=9474304
;FILE_FORMAT=4:4
METRIC,LZ
;TYPE=PLATED
T01F00S00C0.3000
T02F00S00C0.4000
T03F00S00C0.7000
T04F00S00C1.0200
T05F00S00C1.8000
T06F00S00C2.5000
;TYPE=NON_PLATED
T07F00S00C3.0000
%
T01
X00192Y0008375
X00214999Y00173249
X00244999
X00278749Y00175441
Y00188141
X00259999Y00143249
X00319999
X00349999
X00334999Y00113249
X00372749Y00111941
X00424999Y00113249
X00439999Y00083249
X00469999
X00529999
X00544999Y00113249
X00562Y001355
Y001445
X00562Y001655
Y0017475
X005485Y0017675
X00559999Y00203249
X00574999Y00233249
X00559999Y00263249
X00529999
X00499999
X00484999Y00233249
X004945Y001655
X00507Y0016925
X00515
X0051725Y0014075
X0057Y0007375
X00394999Y00173249
X0040125Y00188
X00372749Y00188141
Y00175441
X0038675Y0024475
X003325Y0023225
X00316Y0023075
X00289999Y00263249
X00259999
X0024375Y0024425
X00214999Y00233249
X00199999Y00203249
X00139999
X00109999
X00079999
X00049999
X00019999
X00034999Y00233249
X00049999Y00263249
X00079999
X00094999Y00233249
X00064999Y00173249
X00128Y001695
Y00157
X00138Y00157
X0014125Y0012
X00164Y0010975
X0013825Y00085
X00137625Y000555
X0014325
X00132
X00094999Y00053249
X00064999
X0007225Y000965
Y001095
X0010275Y001095
X0011Y00101753
X001025Y0009175
X00019999Y00083249
Y00143249
Y00263249
X0016125Y0018075
X00154999Y00293249
X00124999
X00094999
X00064999
X00034999
X00049999Y00323249
X00019999
X00319999
X00334999Y00293249
X00484999
X00514999
X00544999
X00574999
X00559999Y00323249
X00499999
T02
X00263625Y00228125
T03
X00225749Y00108851
Y00157651
T04
X0034015Y000273
Y000527
X0036555
Y000273
X0039095
Y000527
X0041635
Y000273
X004441
Y000527
X004695
Y000273
X004949
Y000527
X005203
Y000273
T05
X004145Y002305
Y002725
X004565
Y002305
X001855
Y002725
X001435
Y002305
Y003145
X001855
X004145
X004565
T06
X0057Y0003
X0003
X0036Y0031946
T07
X005295Y002305
X000705
Y003145
X005295
M30
