M48
;Layer_Color=9474304
;FILE_FORMAT=4:4
METRIC,LZ
;TYPE=PLATED
T01F00S00C0.3000
T02F00S00C1.1684
T03F00S00C1.7018
%
T01
X0012375Y0001
X0013625
X0014125Y00015
X0014875
X0015375Y0001
X0017Y00035
X0021
Y000725
X0018875Y0009
X0018375Y00095
X0017625
X0017125Y0009
X0015375
X0014875Y00095
X0014125
X0013625Y0009
X00139Y00159
Y0017
Y00181
X0015
X00161
Y0017
X0015
Y00159
X00161
X00185Y00155
X001875Y0014
X001775
X00205Y001215
X0022Y001585
X0024Y001465
X0029Y001525
Y00161742
Y00178258
X003025Y001525
X00315Y00110214
X003225Y00069786
X00359Y00078
X00362Y001295
X00389999Y0015
Y0003
X00299999
X00269999
X00284999Y0006
X0011875Y0009
X0011375Y00095
X0010625
X0010125Y0009
X001Y00146
Y00171
X00029999Y0015
X00044999Y0012
X00029999Y0009
Y0003
X0008125Y00015
X0008875
X0009375Y0001
X0010625
X0011125Y00015
X0011875
X0007625Y0001
X000825Y002175
X000725Y002225
Y0023
Y002375
X0011Y0022
X0011Y00205
X00029999Y0021
Y0027
Y0039
X0013Y0022
X001325Y00205
X0014
X0016
X00222Y002705
Y002795
X00238
Y002705
X002525Y003
X00374999Y003
X00404999
X00389999Y0033
X00404999Y0036
X00374999
X00344999
X00389999Y0027
X0039Y002175
X003825
X00375
T02
X0015Y0035
T03
X001246Y003246
X001754
Y003754
X001246
M30
