<svg version="1.0" xmlns="http://www.w3.org/2000/svg"
  viewBox="0 0 806.119818 1200.632503"
 preserveAspectRatio="xMidYMid meet">
<metadata>
For more coloring pages, please visit ColoringAll.com
</metadata>
<g transform="translate(-0.332120,1200.938476) scale(0.100000,-0.100000)"
fill="#000000" stroke="none">
<path d="M3030 12008 c0 -3 25 -22 55 -42 93 -65 255 -250 255 -293 0 -20 -60
-16 -97 7 -18 11 -33 24 -33 30 0 12 -55 41 -100 51 -38 9 -105 -4 -116 -22
-10 -17 16 -29 61 -29 22 0 65 -12 95 -26 l54 -25 -114 -62 -115 -62 -115 2
c-63 1 -204 13 -314 27 -435 57 -730 43 -1021 -45 -133 -41 -206 -79 -420
-219 -99 -64 -215 -136 -258 -160 l-79 -43 -131 7 c-125 7 -237 19 -301 32
l-28 6 38 40 c46 47 181 139 249 169 42 18 46 23 30 31 -26 15 -113 -7 -166
-41 -60 -37 -135 -115 -160 -163 -13 -26 -26 -38 -37 -36 -14 3 -17 18 -20 95
-3 114 6 135 96 220 36 35 63 65 60 69 -11 11 -112 -41 -146 -75 -65 -65 -79
-121 -58 -215 18 -74 20 -116 8 -116 -4 0 -34 -26 -65 -57 -141 -141 -174
-363 -82 -550 49 -100 114 -157 212 -185 82 -25 84 -27 58 -112 -34 -112 -43
-249 -15 -220 14 15 58 177 66 243 l7 61 34 0 c32 0 35 -2 29 -22 -14 -50 -18
-224 -7 -278 11 -51 57 -138 67 -127 3 2 0 24 -5 48 -14 63 -25 298 -17 353 6
39 11 46 30 46 29 0 181 -172 260 -293 66 -103 91 -128 245 -244 74 -57 118
-97 126 -117 7 -17 34 -89 60 -161 130 -361 342 -852 536 -1245 152 -307 237
-462 364 -656 60 -94 95 -157 95 -174 0 -15 -11 -72 -24 -126 -67 -268 -114
-612 -126 -916 -4 -119 -12 -223 -17 -231 -4 -8 -55 -50 -113 -93 -200 -149
-356 -326 -449 -510 -99 -198 -131 -349 -138 -669 -8 -346 24 -538 121 -740
127 -265 314 -394 636 -440 63 -10 117 -19 119 -21 2 -2 -15 -61 -37 -131 -54
-170 -87 -302 -114 -459 -19 -112 -22 -164 -22 -399 0 -264 1 -273 32 -423 50
-239 143 -505 222 -633 16 -27 30 -56 30 -63 0 -8 -17 -20 -38 -26 -52 -17
-99 -47 -154 -98 -44 -41 -55 -45 -144 -63 -349 -67 -519 -211 -570 -480 -21
-106 -14 -207 21 -317 27 -86 97 -202 157 -259 l34 -33 164 55 c392 132 747
195 1099 196 150 0 188 -3 256 -21 109 -29 308 -38 387 -17 55 14 56 14 62 -7
3 -11 6 -44 6 -71 0 -162 107 -354 229 -411 l44 -21 151 38 c231 59 378 85
691 124 158 20 339 47 403 60 64 14 160 34 212 45 52 11 163 24 245 30 341 24
480 63 572 162 58 64 68 101 68 248 -1 156 -16 229 -106 508 l-69 215 21 96
c11 53 25 100 30 105 5 6 37 -9 81 -40 190 -131 360 -193 643 -235 156 -23
238 -24 367 -4 193 29 533 126 640 182 76 39 183 145 220 215 28 55 30 153 4
193 -32 49 -62 54 -413 70 -181 8 -353 19 -383 26 -186 40 -330 141 -568 399
-147 160 -186 213 -178 243 3 12 44 65 92 117 128 140 208 252 269 375 76 154
96 231 102 395 13 335 -115 741 -356 1133 l-73 117 17 48 c77 226 -1 563 -189
812 -82 109 -278 317 -482 512 -88 84 -297 284 -463 443 -416 397 -622 615
-745 790 -109 153 -273 326 -366 387 -30 19 -138 79 -240 133 -495 261 -550
295 -658 409 -38 40 -82 97 -100 127 -71 125 -123 346 -143 609 -13 159 -5
770 11 974 29 357 105 694 186 835 35 60 173 241 184 241 21 0 110 -95 136
-145 30 -57 43 -68 46 -37 7 85 -60 184 -135 199 -32 7 -32 -1 -8 136 12 69
-1 156 -30 203 -25 41 -107 117 -150 139 -41 21 -49 32 -49 68 0 97 -180 286
-287 303 -24 4 -43 4 -43 2z m150 -436 c-64 -43 -87 -76 -104 -149 -19 -86
-20 -137 -3 -150 6 -6 37 -18 67 -28 74 -24 174 -23 288 5 51 12 96 20 99 17
14 -14 -65 -142 -161 -262 -84 -104 -146 -284 -196 -565 -50 -283 -77 -739
-66 -1115 11 -354 32 -529 87 -699 54 -164 82 -211 193 -322 121 -120 196
-168 531 -342 455 -235 495 -266 695 -542 46 -63 117 -155 158 -205 98 -116
480 -499 794 -793 288 -272 640 -629 730 -742 76 -95 139 -202 188 -319 l35
-86 0 -185 c0 -156 -3 -190 -17 -217 -10 -17 -59 -61 -110 -99 -172 -124 -281
-256 -303 -364 -14 -67 -55 -118 -282 -340 -260 -256 -317 -302 -458 -370
-184 -89 -311 -120 -497 -120 -232 0 -391 55 -639 219 -126 83 -299 254 -319
316 -22 67 -7 208 43 405 131 511 129 631 -18 983 -60 145 -45 231 47 278 57
29 86 21 207 -61 143 -96 190 -112 321 -113 129 0 169 13 360 117 184 100 205
106 353 105 67 0 147 -4 177 -8 54 -8 74 -1 67 24 -7 21 -87 37 -213 42 -159
7 -212 -6 -379 -96 l-109 -59 -64 54 c-79 67 -131 94 -248 128 -50 14 -113 35
-139 46 -155 66 -369 269 -457 434 -53 98 -65 75 -19 -34 38 -90 85 -152 214
-277 143 -139 209 -172 471 -239 43 -10 91 -32 129 -58 71 -48 89 -72 67 -86
-35 -23 -102 -34 -210 -34 -133 0 -167 11 -280 93 -98 71 -138 91 -188 91 -53
0 -93 -20 -153 -75 l-46 -43 -99 24 c-282 69 -561 51 -791 -50 l-78 -35 -145
143 c-138 135 -152 146 -258 199 -62 31 -165 73 -229 93 l-116 36 6 241 c7
322 38 559 118 905 l40 173 -95 142 c-186 280 -400 685 -599 1137 -165 373
-327 784 -362 915 -10 39 -22 75 -27 82 -5 6 -39 29 -76 52 -132 79 -217 156
-285 260 -35 53 -84 119 -108 146 -111 124 -143 181 -160 281 -13 79 -21 93
-45 73 -14 -11 -15 -25 -10 -85 9 -95 5 -98 -123 -92 -89 4 -105 8 -161 39
-34 19 -62 38 -63 44 -1 5 38 26 88 46 114 46 204 99 262 155 l46 43 -5 68
c-9 124 -73 223 -163 253 -38 13 -151 9 -205 -6 -22 -7 -23 -6 -12 8 41 51
121 58 337 32 200 -24 308 -5 447 77 36 21 69 39 72 39 3 0 -6 -24 -19 -54
-46 -104 -56 -223 -29 -354 29 -145 94 -251 179 -292 25 -12 113 -35 197 -50
84 -16 178 -34 208 -41 48 -10 65 -9 140 10 118 29 172 59 267 143 99 87 171
176 201 245 46 107 47 255 3 347 -25 51 -97 128 -142 151 -113 59 -569 71
-784 20 -33 -7 -61 -12 -63 -10 -6 5 177 111 243 140 181 80 372 109 720 109
207 0 274 -4 391 -22 77 -12 212 -27 298 -33 l157 -11 52 35 c72 48 140 87
152 86 6 0 -1 -8 -15 -17z m278 -40 c44 -44 82 -116 82 -156 0 -22 -7 -30 -35
-42 -43 -18 -55 -12 -55 25 0 85 -142 121 -212 54 -23 -22 -28 -35 -28 -74 0
-26 -4 -50 -8 -53 -5 -3 -24 3 -43 12 -39 19 -47 54 -30 120 22 79 68 115 180
137 100 20 107 19 149 -23z m-58 -174 c11 -18 20 -39 20 -45 0 -22 -20 -14
-32 13 -13 29 -62 58 -81 48 -31 -18 -57 -50 -57 -71 0 -13 -4 -23 -10 -23
-14 0 -13 15 4 54 18 42 39 55 94 56 37 0 45 -4 62 -32z m-52 -60 c-5 -15 -58
-24 -58 -10 0 15 12 22 38 22 14 0 22 -5 20 -12z m-1365 -61 c124 -57 186
-197 157 -357 -6 -35 -20 -80 -30 -100 -50 -97 -221 -259 -327 -307 -80 -37
-163 -49 -231 -34 -31 6 -119 23 -195 36 -160 28 -209 51 -257 120 -58 84 -73
145 -74 295 -1 121 1 140 22 185 30 66 65 101 135 136 83 43 137 48 467 45
254 -2 300 -5 333 -19z m-1582 -290 c34 -22 89 -114 89 -149 0 -17 -1 -17 -19
1 -38 38 -142 39 -202 4 -53 -32 -68 -125 -30 -189 12 -19 21 -39 21 -43 0
-12 -65 -37 -117 -46 l-42 -7 -15 53 c-21 69 -22 266 -2 314 23 53 97 83 212
84 58 1 77 -3 105 -22z m44 -192 c14 -13 25 -31 25 -40 0 -13 -6 -12 -31 9
-35 30 -49 32 -89 11 -41 -21 -52 -47 -44 -103 7 -47 7 -47 -14 -29 -23 21
-36 74 -26 112 15 59 134 86 179 40z m-18 -82 c5 -15 -36 -53 -58 -53 -27 0
-33 18 -14 46 12 18 23 24 42 22 15 -2 28 -8 30 -15z m1797 -4623 c50 -17 136
-53 191 -80 91 -44 113 -60 244 -187 l144 -138 -96 -92 c-53 -51 -100 -93
-106 -93 -5 0 -33 46 -62 103 -139 272 -263 407 -375 407 -82 0 -203 -87 -283
-204 -18 -25 -54 -92 -81 -149 -27 -56 -72 -142 -100 -192 -96 -173 -125 -325
-86 -456 17 -56 16 -57 -10 -135 -33 -99 -30 -183 9 -260 48 -94 121 -141 305
-194 104 -30 121 -32 210 -27 64 4 133 16 202 36 58 17 134 35 170 40 78 12
216 18 224 10 23 -23 -80 -110 -284 -239 -158 -100 -185 -121 -206 -162 -20
-39 -17 -76 12 -138 19 -41 25 -66 21 -98 -3 -24 -7 -46 -10 -49 -3 -3 -62 0
-130 6 -222 19 -339 71 -478 210 -72 73 -94 104 -137 189 -91 181 -119 315
-128 610 -4 128 -3 206 4 222 9 21 11 14 11 -44 2 -153 51 -358 119 -491 37
-73 38 -40 2 71 -43 136 -61 270 -63 474 -1 251 16 295 189 489 90 100 158
194 153 209 -6 14 -306 -305 -336 -356 -14 -24 -27 -41 -30 -39 -7 7 76 207
113 275 86 154 267 349 419 450 94 63 125 66 259 22z m5 -154 c65 -34 174
-189 267 -379 l57 -117 -17 -44 c-29 -76 -35 -76 -133 -4 -49 36 -109 77 -134
92 -64 37 -195 83 -312 111 -54 13 -101 25 -104 28 -9 9 66 142 115 203 65 80
131 124 189 124 24 0 56 -6 72 -14z m1481 -190 c105 -26 106 -27 113 -90 3
-30 22 -93 41 -139 20 -45 36 -86 36 -89 0 -4 -30 2 -67 13 -213 61 -227 63
-453 63 -199 1 -221 -1 -290 -22 -97 -31 -212 -91 -273 -143 -26 -23 -46 -43
-44 -46 3 -2 29 10 58 28 186 109 409 152 680 130 170 -14 331 -38 376 -56 36
-15 62 -53 41 -59 -25 -8 -397 -28 -668 -36 -297 -8 -346 -14 -520 -60 -154
-41 -219 -54 -227 -47 -8 9 54 134 105 213 99 153 298 294 486 345 63 17 97
19 306 15 169 -3 253 -9 300 -20z m-1762 -211 c186 -37 331 -105 469 -222 l52
-43 -30 -87 c-16 -47 -27 -88 -25 -90 2 -2 43 8 91 22 129 37 131 37 216 -47
80 -81 162 -186 154 -198 -5 -9 -59 5 -146 36 -70 24 -127 35 -229 44 -82 7
-109 15 -195 54 -172 78 -352 87 -530 26 -105 -36 -109 -34 -119 58 -10 97 7
173 68 297 61 125 100 178 125 171 9 -3 54 -12 99 -21z m2006 -285 c19 -19 14
-299 -7 -412 -11 -54 -23 -101 -28 -104 -5 -3 -44 2 -86 12 -94 21 -195 14
-320 -21 -115 -33 -357 -153 -511 -254 -68 -45 -126 -81 -129 -81 -11 0 7 285
22 349 30 126 114 252 226 343 113 91 303 162 474 178 117 11 344 5 359 -10z
m-696 -13 c-10 -7 -46 -28 -80 -47 -38 -21 -104 -76 -167 -137 l-104 -102 -86
91 c-113 120 -116 124 -93 137 17 9 167 39 302 60 30 5 98 9 150 10 77 0 92
-2 78 -12z m-1088 -244 c69 -19 139 -54 216 -109 106 -74 289 -301 270 -333
-3 -5 -37 -11 -75 -15 -57 -6 -78 -3 -127 15 -224 83 -321 77 -433 -26 l-59
-55 -53 11 c-127 26 -239 105 -260 183 -14 51 -6 159 16 214 22 55 52 77 134
102 135 40 258 45 371 13z m448 -113 c75 -14 193 -62 208 -85 11 -17 10 -40
-3 -135 -15 -118 -13 -344 4 -361 11 -11 29 0 169 99 64 45 119 81 121 79 2
-2 -4 -35 -13 -73 -15 -64 -16 -74 -1 -124 20 -67 71 -130 127 -155 l41 -18
42 45 c60 65 110 78 301 78 100 0 159 -4 176 -13 16 -8 32 -33 49 -77 21 -56
39 -80 135 -176 121 -122 210 -185 397 -283 147 -77 225 -100 375 -111 228
-17 412 15 599 104 174 84 354 231 587 481 167 178 182 199 214 303 25 85 28
88 119 178 84 82 203 174 226 174 24 0 181 -280 263 -469 57 -129 109 -289
133 -406 14 -70 18 -135 18 -290 -1 -195 -1 -202 -28 -270 -33 -83 -101 -212
-151 -289 -93 -140 -309 -351 -513 -503 -62 -46 -113 -84 -113 -86 -1 -1 -5
-94 -10 -207 -10 -230 -25 -357 -71 -640 l-32 -195 56 -165 c87 -257 107 -345
114 -496 3 -72 3 -147 -1 -167 -8 -41 -86 -134 -119 -142 -12 -3 -59 7 -104
22 l-82 28 -67 90 c-138 185 -252 273 -419 325 -38 12 -176 39 -305 61 -226
38 -246 40 -520 45 -157 3 -295 7 -307 10 -13 2 -23 12 -23 20 0 9 43 57 95
106 133 127 193 228 236 403 40 161 35 449 -9 549 -38 85 -108 93 -415 47
-330 -51 -394 -50 -582 4 -250 73 -430 180 -627 375 -150 149 -196 216 -322
470 -93 189 -136 300 -156 403 -10 52 -14 57 -37 57 -25 0 -26 -1 -19 -54 12
-105 114 -361 217 -548 110 -199 229 -341 408 -488 157 -129 266 -186 521
-271 l114 -39 171 0 170 -1 27 -42 c15 -23 79 -100 142 -172 161 -181 165
-189 177 -416 9 -183 9 -183 -13 -205 -13 -11 -61 -57 -108 -101 -73 -69 -95
-83 -155 -103 -173 -57 -291 -152 -384 -309 -63 -106 -86 -130 -138 -142 -44
-10 -250 -12 -305 -3 -44 8 -46 18 -17 77 12 23 24 69 27 103 l5 62 123 -60
c120 -59 192 -78 201 -51 2 6 -56 41 -138 83 -164 81 -226 124 -359 246 -105
96 -175 146 -265 191 -91 46 -170 69 -404 118 -118 24 -219 49 -224 54 -23 23
53 78 153 111 36 11 70 23 77 25 8 3 -17 65 -71 177 -137 282 -190 448 -222
688 -23 177 -15 566 15 733 40 225 95 409 167 566 51 109 54 144 19 219 -14
30 -25 65 -25 79 0 30 44 73 125 123 167 103 247 161 313 225 39 39 72 78 72
86 0 20 -159 257 -219 328 -25 29 -54 64 -64 77 l-19 24 40 0 c22 0 62 -4 90
-10z m1222 -193 c39 -11 45 -16 48 -42 4 -29 -41 -218 -58 -245 -7 -12 -25
-11 -113 3 -224 36 -387 7 -472 -83 l-30 -32 30 15 c91 46 285 71 463 61 l112
-7 0 -36 0 -36 -182 0 c-214 0 -266 -10 -341 -66 -28 -22 -54 -39 -58 -39 -17
0 -69 74 -79 111 -19 68 12 182 63 237 48 52 274 147 382 162 88 11 184 10
235 -3z m-1508 -147 c49 -14 55 -26 21 -43 -58 -30 -323 -73 -323 -53 0 22 27
49 73 76 44 25 63 30 122 30 39 0 87 -5 107 -10z m4260 -2040 c129 -142 302
-309 361 -349 68 -46 184 -98 259 -116 36 -9 156 -20 278 -25 442 -21 482 -25
502 -50 11 -14 18 -39 18 -65 0 -85 -117 -221 -244 -283 -69 -34 -157 -61
-391 -124 l-160 -43 -195 1 c-212 0 -309 13 -455 61 -153 50 -343 150 -428
225 l-37 33 15 110 c8 61 19 205 25 320 15 288 10 267 82 323 34 26 97 75 141
109 l80 63 27 -43 c14 -23 70 -89 122 -147z m-2122 -355 c26 -24 30 -57 31
-295 1 -238 -3 -261 -75 -415 l-33 -70 -7 80 c-13 168 -24 235 -45 278 -12 25
-65 94 -118 154 -109 124 -183 217 -183 231 0 10 117 34 250 52 84 11 158 5
180 -15z m-2292 -779 c53 -14 138 -32 187 -42 50 -9 96 -20 104 -24 8 -5 -20
-19 -75 -39 -179 -65 -297 -143 -437 -291 -131 -137 -238 -306 -326 -515 l-13
-30 -29 34 c-45 54 -97 162 -115 237 -21 90 -14 245 15 326 49 141 160 249
311 303 50 18 235 63 263 64 10 1 62 -10 115 -23z m584 -157 c113 -56 192
-116 295 -222 76 -78 104 -114 112 -144 17 -61 1 -123 -42 -171 -20 -21 -26
-22 -211 -22 -200 0 -375 -16 -561 -50 -132 -25 -413 -96 -546 -139 -53 -17
-103 -31 -112 -31 -13 0 -8 17 24 87 166 361 404 594 713 698 149 50 219 49
328 -6z m1450 -289 c-171 -162 -278 -379 -336 -676 -12 -65 -28 -120 -34 -122
-19 -6 -108 93 -136 151 -36 72 -49 163 -42 277 8 128 42 197 145 300 85 84
182 142 277 163 52 12 64 11 126 -7 l69 -20 -69 -66z m648 64 c58 -8 108 -19
112 -22 4 -4 -33 -34 -83 -67 -109 -72 -252 -216 -327 -330 -29 -44 -82 -138
-119 -210 -36 -72 -67 -131 -68 -133 -6 -7 -456 -104 -461 -99 -9 9 47 258 78
346 38 111 95 218 165 308 61 81 119 133 214 193 l64 40 160 -5 c88 -3 207
-13 265 -21z m450 -75 c47 -12 105 -31 129 -42 58 -27 80 -76 93 -212 l11
-104 -58 -65 c-72 -82 -138 -116 -295 -150 -174 -38 -668 -102 -720 -94 -20 3
-18 9 29 101 137 269 317 462 521 562 69 34 80 36 140 31 36 -3 103 -15 150
-27z m321 -186 c20 -21 63 -74 96 -118 73 -97 86 -108 147 -136 29 -12 44 -25
39 -30 -15 -15 -211 -39 -321 -39 l-102 0 44 55 c59 72 69 112 56 217 -5 45
-10 84 -10 85 0 12 22 -3 51 -34z M2623 10750 c-104 -22 -296 -110 -514 -236
-276 -159 -393 -207 -588 -239 -122 -21 -217 -17 -416 15 -179 30 -227 19
-241 -56 -13 -71 109 -244 174 -244 16 0 56 19 96 46 81 54 162 94 193 94 15
0 35 -16 61 -52 53 -72 134 -145 185 -168 55 -26 151 -26 197 -2 19 10 44 23
55 29 11 6 54 27 95 46 123 59 164 111 177 227 5 55 8 61 32 66 14 3 42 10 61
15 60 15 239 37 385 49 285 22 350 63 349 220 0 73 -28 138 -75 172 -30 23
-157 33 -226 18z m197 -68 c46 -35 65 -144 35 -202 -22 -43 -64 -60 -168 -71
-289 -28 -392 -41 -477 -60 -52 -12 -111 -23 -131 -26 -35 -5 -36 -4 -42 33
-4 21 -4 40 -1 43 2 3 33 -3 67 -12 71 -18 121 -11 167 25 33 25 70 87 70 115
0 22 3 22 58 17 81 -9 116 11 148 81 24 53 26 54 82 65 31 7 62 14 67 16 23 8
102 -7 125 -24z m-330 -52 c-16 -29 -53 -45 -76 -32 -15 9 -13 12 22 30 52 28
68 28 54 2z m-200 -97 c0 -21 -43 -74 -70 -88 -33 -17 -95 -17 -95 0 0 11 134
95 152 95 7 0 13 -3 13 -7z m-288 -245 c41 -110 42 -119 16 -158 -26 -39 -123
-108 -157 -112 -20 -3 -26 10 -61 112 -22 63 -40 120 -40 126 0 10 184 103
205 104 6 0 23 -33 37 -72z m-838 -62 c76 -14 140 -27 143 -30 3 -3 -3 -8 -13
-12 -57 -19 -131 -58 -181 -93 -31 -23 -64 -41 -74 -41 -46 0 -142 164 -112
193 13 13 100 7 237 -17z m563 -63 c22 -47 37 -98 40 -134 5 -56 5 -58 -25
-73 -36 -19 -72 -20 -127 -5 -63 18 -215 180 -215 230 0 13 17 19 78 28 42 7
93 16 112 20 19 5 50 9 68 10 32 1 35 -2 69 -76z M4120 5529 c117 -139 132
-255 80 -584 -35 -224 -49 -388 -32 -399 6 -4 13 11 17 36 4 24 27 147 52 273
84 422 58 580 -116 712 -23 18 -47 33 -52 33 -5 0 18 -32 51 -71z M1740 10793
c-35 -24 -59 -55 -60 -75 0 -26 20 -22 52 9 38 36 62 23 66 -36 5 -71 43 -41
45 35 0 38 -4 51 -22 66 -29 23 -50 23 -81 1z M1263 10690 c-12 -5 -24 -19
-28 -31 -10 -30 52 -89 92 -89 l28 0 -34 32 c-44 41 -27 47 50 18 33 -13 62
-21 64 -18 9 8 -35 58 -63 72 -39 20 -84 26 -109 16z M3476 4849 c-87 -12
-234 -61 -306 -102 -65 -37 -147 -116 -189 -183 -53 -82 -34 -77 57 15 71 72
102 95 172 129 143 69 334 101 605 102 70 0 106 3 99 10 -24 24 -326 45 -438
29z M5394 3139 c-492 -331 -564 -391 -732 -614 -93 -124 -142 -222 -148 -301
l-5 -59 19 57 c61 181 285 435 567 643 425 314 628 473 604 475 -3 0 -140 -91
-305 -201z M2471 1444 c23 -28 121 -71 274 -119 168 -53 294 -113 375 -180 30
-25 58 -45 62 -45 21 0 1 29 -66 96 -95 95 -165 128 -409 193 -103 28 -196 55
-206 61 -31 16 -46 13 -30 -6z M3772 1201 c-9 -5 7 -17 50 -35 35 -15 88 -40
118 -54 30 -15 58 -28 62 -30 5 -2 8 3 8 11 0 21 -72 83 -111 95 -53 16 -113
22 -127 13z M3665 1101 c-18 -7 -18 -9 10 -23 49 -25 177 -69 184 -63 10 11
-16 40 -55 61 -44 25 -109 36 -139 25z M5835 870 c3 -6 34 -29 68 -52 34 -23
84 -59 110 -81 52 -43 63 -43 52 0 -10 41 -76 98 -140 122 -60 22 -100 27 -90
11z M5722 791 c2 -5 44 -52 95 -105 109 -113 133 -124 100 -43 -20 46 -65 96
-116 129 -43 27 -86 38 -79 19z M3520 11082 c0 -12 158 -162 171 -162 17 0 9
35 -16 72 -33 49 -155 119 -155 90z M6486 194 c-10 -47 -15 -88 -12 -91 5 -6
9 7 30 110 7 37 10 67 6 67 -4 0 -15 -39 -24 -86z M6800 270 c0 -5 5 -10 10
-10 6 0 10 5 10 10 0 6 -4 10 -10 10 -5 0 -10 -4 -10 -10z M7346 194 c-10 -47
-15 -88 -12 -91 5 -6 9 7 30 110 7 37 10 67 6 67 -4 0 -15 -39 -24 -86z M7426
269 c-3 -8 -10 -41 -16 -74 -6 -33 -14 -68 -16 -77 -3 -10 -1 -18 3 -18 10 0
46 171 38 178 -2 3 -7 -1 -9 -9z M6189 241 c-38 -38 -41 -101 -7 -125 29 -20
79 -20 104 0 18 14 18 15 1 10 -53 -17 -69 -17 -92 -2 -69 45 21 166 94 126
12 -6 21 -7 21 -1 0 12 -25 21 -62 21 -19 0 -39 -10 -59 -29z M7190 189 c-28
-45 -49 -83 -47 -85 2 -3 12 7 21 21 14 21 24 25 66 25 43 0 50 -3 50 -19 0
-11 5 -23 10 -26 6 -3 10 -3 10 1 0 20 -44 164 -51 164 -4 0 -30 -37 -59 -81z
m75 4 l7 -33 -42 0 c-42 0 -42 0 -28 23 8 12 21 32 29 44 15 25 22 18 34 -34z
M6340 210 c-22 -22 -27 -79 -8 -98 19 -19 66 -14 88 8 22 22 27 79 8 98 -19
19 -66 14 -88 -8z m71 0 c25 -14 25 -54 -1 -80 -23 -23 -33 -24 -61 -10 -25
14 -25 54 1 80 23 23 33 24 61 10z M6550 210 c-22 -22 -27 -79 -8 -98 19 -19
66 -14 88 8 22 22 27 79 8 98 -19 19 -66 14 -88 -8z m71 0 c25 -14 25 -54 -1
-80 -23 -23 -33 -24 -61 -10 -25 14 -25 54 1 80 23 23 33 24 61 10z M6696 204
c-3 -16 -8 -47 -11 -69 -8 -51 10 -26 19 27 5 27 15 42 34 53 18 10 22 14 10
15 -9 0 -20 -5 -24 -11 -5 -8 -9 -8 -14 1 -5 8 -10 3 -14 -16z M6797 223 c-2
-4 -7 -26 -11 -48 -4 -22 -9 -48 -12 -57 -3 -10 -1 -18 4 -18 4 0 14 28 20 62
11 58 10 81 -1 61z M6855 220 c-1 -3 -5 -23 -9 -45 -4 -22 -9 -48 -12 -57 -3
-10 -1 -18 4 -18 5 0 13 20 17 45 7 53 44 87 74 68 17 -11 19 -28 8 -80 -4
-18 -3 -33 2 -33 16 0 24 99 11 115 -12 14 -87 18 -95 5z M7020 210 c-22 -22
-27 -79 -8 -98 7 -7 24 -12 38 -12 14 0 31 5 38 12 9 9 12 8 12 -5 0 -9 -12
-24 -26 -34 -21 -13 -32 -15 -55 -6 -16 6 -29 8 -29 3 0 -24 81 -27 102 -2 18
19 50 162 37 162 -5 0 -9 -5 -9 -10 0 -7 -6 -7 -19 0 -30 16 -59 12 -81 -10z
m71 0 c29 -16 25 -65 -6 -86 -56 -37 -103 28 -55 76 23 23 33 24 61 10z M7521
211 c-23 -23 -28 -80 -9 -99 19 -19 88 -13 88 9 0 5 -11 4 -24 -2 -54 -25 -89
38 -46 81 23 23 33 24 62 9 16 -9 19 -8 16 3 -8 22 -64 22 -87 -1z M7650 210
c-22 -22 -27 -79 -8 -98 19 -19 66 -14 88 8 22 22 27 79 8 98 -19 19 -66 14
-88 -8z m71 0 c25 -14 25 -54 -1 -80 -23 -23 -33 -24 -61 -10 -25 14 -25 54 1
80 23 23 33 24 61 10z M7796 201 c-3 -14 -8 -44 -11 -66 -8 -51 10 -26 19 27
8 41 35 63 66 53 22 -7 24 -21 11 -77 -5 -22 -5 -38 0 -38 5 0 9 6 9 13 0 68
51 125 85 97 15 -13 15 -35 -1 -92 -3 -10 -1 -18 4 -18 6 0 13 23 17 50 9 63
-5 84 -49 76 -17 -4 -35 -6 -41 -6 -101 8 -104 7 -109 -19z M7440 110 c0 -5 5
-10 10 -10 6 0 10 5 10 10 0 6 -4 10 -10 10 -5 0 -10 -4 -10 -10z"/>
</g>
</svg>
