G04*
G04 #@! TF.GenerationSoftware,Altium Limited,Altium Designer,25.6.2 (33)*
G04*
G04 Layer_Color=16711935*
%FSLAX44Y44*%
%MOMM*%
G71*
G04*
G04 #@! TF.SameCoordinates,A62BF475-C4B3-4E42-B244-03EA918739BB*
G04*
G04*
G04 #@! TF.FilePolarity,Positive*
G04*
G01*
G75*
%ADD13C,0.1500*%
D13*
X1365000Y820000D02*
G03*
X1335000Y850000I-30000J0D01*
G01*
X1335000Y0D02*
G03*
X1365000Y30000I0J30000D01*
G01*
X0Y30000D02*
G03*
X30000Y0I30000J0D01*
G01*
X30000Y850000D02*
G03*
X0Y820000I0J-30000D01*
G01*
X1365000Y820000D02*
X1365000Y30000D01*
X30000Y0D02*
X1335000D01*
X-0Y820000D02*
X0Y30000D01*
X30000Y850000D02*
X1335000D01*
X997084Y483520D02*
X1007914D01*
X1010080Y485686D01*
Y490018D01*
X1007914Y492184D01*
X997084D01*
X1010080Y496516D02*
Y500848D01*
Y498682D01*
X997084D01*
X999250Y496516D01*
X1012246Y507346D02*
Y516009D01*
X997084Y529005D02*
Y520341D01*
X1003582D01*
X1001416Y524673D01*
Y526839D01*
X1003582Y529005D01*
X1007914D01*
X1010080Y526839D01*
Y522507D01*
X1007914Y520341D01*
X997084Y533337D02*
X1005748D01*
X1010080Y537669D01*
X1005748Y542001D01*
X997084D01*
X1012246Y546333D02*
Y554997D01*
X1010080Y559329D02*
X997084D01*
Y565827D01*
X999250Y567993D01*
X1003582D01*
X1005748Y565827D01*
Y559329D01*
Y563661D02*
X1010080Y567993D01*
X997084Y580989D02*
Y572325D01*
X1010080D01*
Y580989D01*
X1003582Y572325D02*
Y576657D01*
X999250Y593984D02*
X997084Y591818D01*
Y587486D01*
X999250Y585321D01*
X1007914D01*
X1010080Y587486D01*
Y591818D01*
X1007914Y593984D01*
X1003582D01*
Y589652D01*
X1012246Y598316D02*
Y606980D01*
X999250Y611312D02*
X997084Y613478D01*
Y617810D01*
X999250Y619976D01*
X1007914D01*
X1010080Y617810D01*
Y613478D01*
X1007914Y611312D01*
X999250D01*
X997084Y273520D02*
X1007914D01*
X1010080Y275686D01*
Y280018D01*
X1007914Y282184D01*
X997084D01*
X1010080Y286516D02*
Y290848D01*
Y288682D01*
X997084D01*
X999250Y286516D01*
X1012246Y297346D02*
Y306010D01*
X997084Y319005D02*
Y310341D01*
X1003582D01*
X1001416Y314673D01*
Y316839D01*
X1003582Y319005D01*
X1007914D01*
X1010080Y316839D01*
Y312507D01*
X1007914Y310341D01*
X997084Y323337D02*
X1005748D01*
X1010080Y327669D01*
X1005748Y332001D01*
X997084D01*
X1012246Y336333D02*
Y344997D01*
X1010080Y349329D02*
X997084D01*
Y355827D01*
X999250Y357993D01*
X1003582D01*
X1005748Y355827D01*
Y349329D01*
Y353661D02*
X1010080Y357993D01*
X997084Y370989D02*
Y362325D01*
X1010080D01*
Y370989D01*
X1003582Y362325D02*
Y366657D01*
X999250Y383984D02*
X997084Y381818D01*
Y377486D01*
X999250Y375321D01*
X1007914D01*
X1010080Y377486D01*
Y381818D01*
X1007914Y383984D01*
X1003582D01*
Y379652D01*
X1012246Y388316D02*
Y396980D01*
X1010080Y401312D02*
Y405644D01*
Y403478D01*
X997084D01*
X999250Y401312D01*
M02*
