G04*
G04 #@! TF.GenerationSoftware,Altium Limited,Altium Designer,25.6.2 (33)*
G04*
G04 Layer_Physical_Order=2*
G04 Layer_Color=36540*
%FSLAX44Y44*%
%MOMM*%
G71*
G04*
G04 #@! TF.SameCoordinates,A62BF475-C4B3-4E42-B244-03EA918739BB*
G04*
G04*
G04 #@! TF.FilePolarity,Positive*
G04*
G01*
G75*
%ADD11C,0.2000*%
%ADD47R,1.5500X1.5500*%
%ADD48C,1.5500*%
%ADD52C,2.8500*%
%ADD53C,2.6500*%
%ADD54R,2.6500X2.6500*%
%ADD56C,1.4000*%
%ADD57R,1.4000X1.4000*%
%ADD65C,0.7500*%
%ADD68C,0.3000*%
%ADD72C,1.5000*%
%ADD73C,1.2000*%
%ADD74O,1.3000X3.8000*%
%ADD75C,2.1500*%
%ADD76C,5.0000*%
%ADD77C,1.6500*%
G04:AMPARAMS|DCode=78|XSize=1.65mm|YSize=1.65mm|CornerRadius=0.4125mm|HoleSize=0mm|Usage=FLASHONLY|Rotation=90.000|XOffset=0mm|YOffset=0mm|HoleType=Round|Shape=RoundedRectangle|*
%AMROUNDEDRECTD78*
21,1,1.6500,0.8250,0,0,90.0*
21,1,0.8250,1.6500,0,0,90.0*
1,1,0.8250,0.4125,0.4125*
1,1,0.8250,0.4125,-0.4125*
1,1,0.8250,-0.4125,-0.4125*
1,1,0.8250,-0.4125,0.4125*
%
%ADD78ROUNDEDRECTD78*%
%ADD79C,2.5400*%
%ADD80C,1.9050*%
%ADD81C,0.5000*%
%ADD82C,1.0000*%
G36*
X1340467Y847483D02*
X1344007Y846534D01*
X1347393Y845131D01*
X1350568Y843298D01*
X1353475Y841067D01*
X1356067Y838475D01*
X1358299Y835567D01*
X1360000Y832620D01*
X1360000Y600000D01*
X1266700D01*
X1266448Y601270D01*
X1267266Y601609D01*
X1268391Y602734D01*
X1269000Y604204D01*
Y605796D01*
X1268391Y607266D01*
X1267266Y608391D01*
X1265796Y609000D01*
X1264204D01*
X1262734Y608391D01*
X1261609Y607266D01*
X1261270Y606447D01*
X1260000Y606700D01*
Y613300D01*
X1261270Y613553D01*
X1261609Y612734D01*
X1262734Y611609D01*
X1264204Y611000D01*
X1265796D01*
X1267266Y611609D01*
X1268391Y612734D01*
X1269000Y614204D01*
Y615796D01*
X1268391Y617266D01*
X1267266Y618391D01*
X1265796Y619000D01*
X1264204D01*
X1262734Y618391D01*
X1261609Y617266D01*
X1261270Y616447D01*
X1260000Y616700D01*
Y623300D01*
X1261270Y623553D01*
X1261609Y622734D01*
X1262734Y621609D01*
X1264204Y621000D01*
X1265796D01*
X1267266Y621609D01*
X1268391Y622734D01*
X1269000Y624204D01*
Y625796D01*
X1268391Y627266D01*
X1267266Y628391D01*
X1265796Y629000D01*
X1264204D01*
X1262734Y628391D01*
X1261609Y627266D01*
X1261270Y626447D01*
X1260000Y626700D01*
Y633300D01*
X1261270Y633553D01*
X1261609Y632734D01*
X1262734Y631609D01*
X1264204Y631000D01*
X1265796D01*
X1267266Y631609D01*
X1268391Y632734D01*
X1269000Y634204D01*
Y635796D01*
X1268391Y637266D01*
X1267266Y638391D01*
X1265796Y639000D01*
X1264204D01*
X1262734Y638391D01*
X1261609Y637266D01*
X1261270Y636447D01*
X1260000Y636700D01*
Y643300D01*
X1261270Y643553D01*
X1261609Y642734D01*
X1262734Y641609D01*
X1264204Y641000D01*
X1265796D01*
X1267266Y641609D01*
X1268391Y642734D01*
X1269000Y644204D01*
Y645796D01*
X1268391Y647266D01*
X1267266Y648391D01*
X1265796Y649000D01*
X1264204D01*
X1262734Y648391D01*
X1261609Y647266D01*
X1261270Y646447D01*
X1260000Y646700D01*
Y653300D01*
X1261270Y653553D01*
X1261609Y652734D01*
X1262734Y651609D01*
X1264204Y651000D01*
X1265796D01*
X1267266Y651609D01*
X1268391Y652734D01*
X1269000Y654204D01*
Y655796D01*
X1268391Y657266D01*
X1267266Y658391D01*
X1265796Y659000D01*
X1264204D01*
X1262734Y658391D01*
X1261609Y657266D01*
X1261270Y656448D01*
X1260000Y656700D01*
Y663300D01*
X1261270Y663552D01*
X1261609Y662734D01*
X1262734Y661609D01*
X1264204Y661000D01*
X1265796D01*
X1267266Y661609D01*
X1268391Y662734D01*
X1269000Y664204D01*
Y665796D01*
X1268391Y667266D01*
X1267266Y668391D01*
X1265796Y669000D01*
X1264204D01*
X1262734Y668391D01*
X1261609Y667266D01*
X1261270Y666447D01*
X1260000Y666700D01*
Y743622D01*
X1261270Y744664D01*
X1263350Y744250D01*
X1266650D01*
X1269886Y744894D01*
X1272934Y746156D01*
X1275677Y747989D01*
X1278011Y750322D01*
X1279844Y753066D01*
X1281106Y756114D01*
X1281750Y759350D01*
Y762650D01*
X1281106Y765886D01*
X1279844Y768934D01*
X1278011Y771677D01*
X1275677Y774010D01*
X1272934Y775844D01*
X1269886Y777106D01*
X1266650Y777750D01*
X1263350D01*
X1260114Y777106D01*
X1257066Y775844D01*
X1255803Y775000D01*
X1140000D01*
Y847961D01*
X1335000Y847961D01*
X1336833Y847961D01*
X1340467Y847483D01*
D02*
G37*
G36*
X1266643Y667459D02*
X1267459Y666643D01*
X1267900Y665577D01*
Y664423D01*
X1267459Y663357D01*
X1266643Y662541D01*
X1265577Y662100D01*
X1264423D01*
X1263357Y662541D01*
X1262541Y663357D01*
X1262286Y663973D01*
X1262059Y664200D01*
X1262015Y664266D01*
X1261937Y665000D01*
X1262015Y665734D01*
X1262059Y665800D01*
X1262286Y666027D01*
X1262541Y666643D01*
X1263357Y667459D01*
X1264423Y667900D01*
X1265577D01*
X1266643Y667459D01*
D02*
G37*
G36*
Y657459D02*
X1267459Y656643D01*
X1267900Y655577D01*
Y654423D01*
X1267459Y653357D01*
X1266643Y652541D01*
X1265577Y652100D01*
X1264423D01*
X1263357Y652541D01*
X1262541Y653357D01*
X1262286Y653973D01*
X1262059Y654200D01*
X1262015Y654266D01*
X1261937Y655000D01*
X1262015Y655734D01*
X1262059Y655800D01*
X1262286Y656027D01*
X1262541Y656643D01*
X1263357Y657459D01*
X1264423Y657900D01*
X1265577D01*
X1266643Y657459D01*
D02*
G37*
G36*
Y647459D02*
X1267459Y646643D01*
X1267900Y645577D01*
Y644423D01*
X1267459Y643357D01*
X1266643Y642541D01*
X1265577Y642100D01*
X1264423D01*
X1263357Y642541D01*
X1262541Y643357D01*
X1262286Y643973D01*
X1262059Y644200D01*
X1262015Y644266D01*
X1261937Y645000D01*
X1262015Y645734D01*
X1262059Y645800D01*
X1262286Y646027D01*
X1262541Y646643D01*
X1263357Y647459D01*
X1264423Y647900D01*
X1265577D01*
X1266643Y647459D01*
D02*
G37*
G36*
X1258900Y666700D02*
X1259023Y666404D01*
X1259086Y666089D01*
X1259179Y666027D01*
X1259222Y665922D01*
X1259519Y665800D01*
X1259726Y665661D01*
X1259785Y665236D01*
Y664764D01*
X1259726Y664339D01*
X1259519Y664200D01*
X1259222Y664078D01*
X1259179Y663973D01*
X1259086Y663911D01*
X1259023Y663596D01*
X1258900Y663300D01*
Y656700D01*
X1259023Y656404D01*
X1259086Y656089D01*
X1259179Y656027D01*
X1259222Y655922D01*
X1259519Y655800D01*
X1259726Y655661D01*
X1259785Y655236D01*
Y654764D01*
X1259726Y654339D01*
X1259519Y654200D01*
X1259222Y654078D01*
X1259179Y653973D01*
X1259086Y653911D01*
X1259023Y653596D01*
X1258900Y653300D01*
Y646700D01*
X1259023Y646404D01*
X1259086Y646089D01*
X1259179Y646027D01*
X1259222Y645922D01*
X1259519Y645800D01*
X1259726Y645661D01*
X1259785Y645236D01*
Y644764D01*
X1259726Y644339D01*
X1259519Y644200D01*
X1259222Y644078D01*
X1259179Y643973D01*
X1259086Y643911D01*
X1259023Y643596D01*
X1258900Y643300D01*
Y636700D01*
X1259023Y636404D01*
X1259086Y636089D01*
X1259179Y636026D01*
X1259222Y635923D01*
X1259519Y635800D01*
X1259726Y635662D01*
X1259785Y635236D01*
Y634764D01*
X1259726Y634338D01*
X1259519Y634200D01*
X1259222Y634077D01*
X1259179Y633974D01*
X1259086Y633911D01*
X1259023Y633596D01*
X1258900Y633300D01*
Y626700D01*
X1259023Y626404D01*
X1259086Y626089D01*
X1259179Y626026D01*
X1259222Y625922D01*
X1259519Y625800D01*
X1259726Y625662D01*
X1259785Y625236D01*
Y624764D01*
X1259726Y624338D01*
X1259519Y624200D01*
X1259222Y624077D01*
X1259179Y623974D01*
X1259086Y623911D01*
X1259023Y623596D01*
X1258900Y623300D01*
Y616700D01*
X1259023Y616404D01*
X1259086Y616089D01*
X1259179Y616026D01*
X1259222Y615922D01*
X1259519Y615800D01*
X1259726Y615662D01*
X1259785Y615236D01*
Y614764D01*
X1259726Y614338D01*
X1259519Y614200D01*
X1259222Y614077D01*
X1259179Y613974D01*
X1259086Y613911D01*
X1259023Y613596D01*
X1258900Y613300D01*
Y606700D01*
X1259023Y606404D01*
X1259086Y606089D01*
X1259179Y606026D01*
X1259222Y605923D01*
X1259519Y605800D01*
X1259785Y605621D01*
X1261055Y605369D01*
X1261370Y605431D01*
X1261691D01*
X1261770Y605511D01*
X1261881Y605533D01*
X1262059Y605800D01*
X1262286Y606027D01*
X1262541Y606643D01*
X1263357Y607459D01*
X1264423Y607900D01*
X1265577D01*
X1266643Y607459D01*
X1267459Y606643D01*
X1267900Y605577D01*
Y604423D01*
X1267459Y603357D01*
X1266643Y602541D01*
X1266027Y602286D01*
X1265800Y602059D01*
X1265533Y601881D01*
X1265511Y601771D01*
X1265431Y601691D01*
Y601370D01*
X1265369Y601055D01*
X1265621Y599785D01*
X1265800Y599519D01*
X1265922Y599222D01*
X1266027Y599179D01*
X1266089Y599086D01*
X1266404Y599023D01*
X1266700Y598900D01*
X1270000D01*
Y536100D01*
X1269222Y535778D01*
X1268900Y535000D01*
Y422500D01*
X1269222Y421722D01*
X1270000Y421400D01*
Y404000D01*
X1269204D01*
X1267734Y403391D01*
X1266609Y402266D01*
X1266000Y400796D01*
Y399204D01*
X1266609Y397734D01*
X1267734Y396609D01*
X1269204Y396000D01*
X1270000D01*
Y332500D01*
X1310000D01*
X1310000Y260000D01*
X987500D01*
Y225000D01*
X972500D01*
Y295000D01*
X1060000D01*
Y340000D01*
X1160000D01*
Y470000D01*
X987500D01*
Y437056D01*
X972500D01*
Y505000D01*
X1060000D01*
Y550000D01*
X1160000D01*
Y610000D01*
X960000D01*
Y640000D01*
X1190000Y640000D01*
Y670000D01*
X1258900D01*
Y666700D01*
D02*
G37*
G36*
X1266643Y637459D02*
X1267459Y636643D01*
X1267900Y635577D01*
Y634423D01*
X1267459Y633357D01*
X1266643Y632541D01*
X1265577Y632100D01*
X1264423D01*
X1263357Y632541D01*
X1262541Y633357D01*
X1262286Y633973D01*
X1262059Y634200D01*
X1262015Y634266D01*
X1261937Y635000D01*
X1262015Y635734D01*
X1262059Y635800D01*
X1262286Y636027D01*
X1262541Y636643D01*
X1263357Y637459D01*
X1264423Y637900D01*
X1265577D01*
X1266643Y637459D01*
D02*
G37*
G36*
Y627459D02*
X1267459Y626643D01*
X1267900Y625577D01*
Y624423D01*
X1267459Y623357D01*
X1266643Y622541D01*
X1265577Y622100D01*
X1264423D01*
X1263357Y622541D01*
X1262541Y623357D01*
X1262286Y623973D01*
X1262059Y624200D01*
X1262015Y624266D01*
X1261937Y625000D01*
X1262015Y625734D01*
X1262059Y625800D01*
X1262286Y626027D01*
X1262541Y626643D01*
X1263357Y627459D01*
X1264423Y627900D01*
X1265577D01*
X1266643Y627459D01*
D02*
G37*
G36*
Y617459D02*
X1267459Y616643D01*
X1267900Y615577D01*
Y614423D01*
X1267459Y613357D01*
X1266643Y612541D01*
X1265577Y612100D01*
X1264423D01*
X1263357Y612541D01*
X1262541Y613357D01*
X1262286Y613973D01*
X1262059Y614200D01*
X1262015Y614266D01*
X1261937Y615000D01*
X1262015Y615734D01*
X1262059Y615800D01*
X1262286Y616027D01*
X1262541Y616643D01*
X1263357Y617459D01*
X1264423Y617900D01*
X1265577D01*
X1266643Y617459D01*
D02*
G37*
G36*
X1158900Y413553D02*
X1157630Y413027D01*
X1157266Y413391D01*
X1155796Y414000D01*
X1154204D01*
X1152734Y413391D01*
X1151609Y412266D01*
X1151000Y410796D01*
Y409204D01*
X1151609Y407734D01*
X1152270Y407073D01*
X1152593Y406250D01*
X1152270Y405427D01*
X1151609Y404766D01*
X1151522Y404556D01*
X1140851D01*
X1111970Y433438D01*
X1111303Y433883D01*
X1110516Y434039D01*
X1110516Y434039D01*
X1017506D01*
X1017020Y435213D01*
X1029394Y447587D01*
X1029604Y447500D01*
X1031196D01*
X1032666Y448109D01*
X1033791Y449234D01*
X1034400Y450704D01*
Y452296D01*
X1033791Y453766D01*
X1032666Y454891D01*
X1031196Y455500D01*
X1029604D01*
X1028134Y454891D01*
X1027009Y453766D01*
X1026400Y452296D01*
Y450704D01*
X1026487Y450494D01*
X1013048Y437056D01*
X988600D01*
Y468900D01*
X1158900D01*
Y413553D01*
D02*
G37*
G36*
X1350000Y422500D02*
X1270000D01*
Y535000D01*
X1350000D01*
Y422500D01*
D02*
G37*
G36*
X1335000Y413400D02*
X1341500Y406900D01*
Y396600D01*
X1322500D01*
Y401600D01*
X1317500D01*
Y396600D01*
X1285000D01*
Y401600D01*
X1279000Y407600D01*
Y408296D01*
X1278500Y409503D01*
Y418400D01*
X1297500D01*
Y413400D01*
X1302500D01*
Y418400D01*
X1335000D01*
Y413400D01*
D02*
G37*
G36*
X140000Y62500D02*
X2039D01*
Y122500D01*
X140000D01*
Y62500D01*
D02*
G37*
G36*
X1138900Y847961D02*
Y775000D01*
X1139222Y774222D01*
X1140000Y773900D01*
X1252553D01*
X1253039Y772727D01*
X1251989Y771677D01*
X1250156Y768934D01*
X1248894Y765886D01*
X1248250Y762650D01*
Y759350D01*
X1248894Y756114D01*
X1250156Y753066D01*
X1251989Y750322D01*
X1254323Y747989D01*
X1257066Y746156D01*
X1258660Y745496D01*
X1259171Y744500D01*
X1259033Y743967D01*
X1258906Y743729D01*
X1258922Y743674D01*
X1258900Y743622D01*
Y671100D01*
X1190000D01*
X1189222Y670778D01*
X1188900Y670000D01*
Y641100D01*
X960000Y641100D01*
X959222Y640778D01*
X958900Y640000D01*
Y628590D01*
X831058D01*
X773574Y686074D01*
X771795Y687439D01*
X769723Y688297D01*
X767500Y688589D01*
X598558D01*
X476074Y811074D01*
X474295Y812439D01*
X472223Y813297D01*
X470000Y813589D01*
X422000D01*
X419777Y813297D01*
X417705Y812439D01*
X415926Y811074D01*
X414561Y809295D01*
X413703Y807223D01*
X413410Y805000D01*
X413703Y802777D01*
X414561Y800705D01*
X415926Y798926D01*
X417705Y797561D01*
X419777Y796703D01*
X422000Y796411D01*
X466442D01*
X474624Y788229D01*
X474138Y787056D01*
X470978D01*
X470891Y787266D01*
X469766Y788391D01*
X468296Y789000D01*
X466704D01*
X465234Y788391D01*
X464109Y787266D01*
X463500Y785796D01*
Y784204D01*
X464109Y782734D01*
X465234Y781609D01*
X466704Y781000D01*
X468296D01*
X469766Y781609D01*
X470891Y782734D01*
X470978Y782944D01*
X475691D01*
X557944Y700691D01*
Y673549D01*
X557670Y673435D01*
X556545Y672310D01*
X555936Y670840D01*
Y669249D01*
X556545Y667778D01*
X557670Y666653D01*
X558437Y666335D01*
X558185Y665065D01*
X535813D01*
X519815Y681063D01*
Y701750D01*
X519620Y702732D01*
X519064Y703564D01*
X504000Y718628D01*
Y719796D01*
X503391Y721266D01*
X502266Y722391D01*
X500796Y723000D01*
X499204D01*
X497734Y722391D01*
X496609Y721266D01*
X496000Y719796D01*
Y718204D01*
X496609Y716734D01*
X497734Y715609D01*
X499204Y715000D01*
X500372D01*
X514685Y700687D01*
Y680000D01*
X514880Y679018D01*
X515436Y678186D01*
X532936Y660686D01*
X533768Y660130D01*
X534750Y659935D01*
X565000D01*
X565982Y660130D01*
X566814Y660686D01*
X569314Y663186D01*
X569870Y664018D01*
X570065Y665000D01*
Y666908D01*
X570891Y667734D01*
X571500Y669204D01*
Y670796D01*
X570891Y672266D01*
X569766Y673391D01*
X568296Y674000D01*
X566704D01*
X565234Y673391D01*
X564541Y672698D01*
X563688Y672425D01*
X562921Y672716D01*
X562202Y673435D01*
X562056Y673496D01*
Y699138D01*
X563229Y699624D01*
X588926Y673926D01*
X590705Y672561D01*
X592777Y671703D01*
X595000Y671411D01*
X763942D01*
X821426Y613926D01*
X823205Y612561D01*
X825277Y611703D01*
X827500Y611410D01*
X958900D01*
Y610000D01*
X959222Y609222D01*
X960000Y608900D01*
X1158900D01*
Y551100D01*
X1060000D01*
X1059222Y550778D01*
X1058900Y550000D01*
Y506100D01*
X972500D01*
X971722Y505778D01*
X971400Y505000D01*
Y496762D01*
X971000Y495796D01*
Y494204D01*
X971400Y493238D01*
Y486762D01*
X971000Y485796D01*
Y484204D01*
X971400Y483238D01*
Y476762D01*
X971000Y475796D01*
Y474204D01*
X971400Y473238D01*
Y437056D01*
X878351D01*
X868953Y446454D01*
X868287Y446899D01*
X867500Y447056D01*
X867500Y447056D01*
X845851D01*
X833913Y458994D01*
X834000Y459204D01*
Y460796D01*
X833391Y462266D01*
X832266Y463391D01*
X830796Y464000D01*
X829204D01*
X827734Y463391D01*
X826609Y462266D01*
X826000Y460796D01*
Y459204D01*
X826609Y457734D01*
X827734Y456609D01*
X829204Y456000D01*
X830796D01*
X831006Y456087D01*
X843547Y443547D01*
X843547Y443546D01*
X844213Y443101D01*
X845000Y442944D01*
X866649D01*
X876047Y433547D01*
X876047Y433546D01*
X876713Y433101D01*
X877500Y432944D01*
X895878D01*
X896364Y431771D01*
X888506Y423913D01*
X888296Y424000D01*
X886704D01*
X885234Y423391D01*
X884109Y422266D01*
X883500Y420796D01*
Y419204D01*
X884109Y417734D01*
X885234Y416609D01*
X886704Y416000D01*
X888296D01*
X889766Y416609D01*
X890891Y417734D01*
X891500Y419204D01*
Y420796D01*
X891413Y421006D01*
X900335Y429929D01*
X967005D01*
X967531Y428658D01*
X947437Y408565D01*
X929853D01*
X929367Y409739D01*
X936777Y417149D01*
X939909D01*
X940449Y416609D01*
X941919Y416000D01*
X943510D01*
X944980Y416609D01*
X946105Y417734D01*
X946714Y419204D01*
Y420796D01*
X946105Y422266D01*
X944980Y423391D01*
X943510Y424000D01*
X941919D01*
X940449Y423391D01*
X939337Y422280D01*
X935714D01*
X934733Y422084D01*
X933901Y421528D01*
X923027Y410655D01*
X922000Y410859D01*
X920140Y410490D01*
X918564Y409436D01*
X911487Y402359D01*
X892013D01*
X885936Y408436D01*
X884360Y409490D01*
X882500Y409859D01*
X649786D01*
X647926Y409490D01*
X646350Y408436D01*
X645296Y406860D01*
X644926Y405000D01*
Y260000D01*
X645296Y258140D01*
X646350Y256564D01*
X647926Y255511D01*
X649786Y255141D01*
X651645Y255511D01*
X653222Y256564D01*
X654275Y258140D01*
X654645Y260000D01*
Y400141D01*
X880487D01*
X886564Y394064D01*
X888140Y393010D01*
X890000Y392641D01*
X903353D01*
X903839Y391467D01*
X860686Y348314D01*
X860130Y347482D01*
X859935Y346500D01*
Y340592D01*
X859109Y339766D01*
X858500Y338296D01*
Y336704D01*
X859109Y335234D01*
X860234Y334109D01*
X861704Y333500D01*
X863296D01*
X864766Y334109D01*
X865891Y335234D01*
X866500Y336704D01*
Y338296D01*
X865891Y339766D01*
X865065Y340592D01*
Y345437D01*
X912269Y392641D01*
X913500D01*
X915360Y393010D01*
X916936Y394064D01*
X925436Y402564D01*
X926018Y403435D01*
X948500D01*
X949482Y403630D01*
X950314Y404186D01*
X971063Y424935D01*
X1019937D01*
X1024500Y420372D01*
Y419204D01*
X1025109Y417734D01*
X1026234Y416609D01*
X1027704Y416000D01*
X1029296D01*
X1030766Y416609D01*
X1031891Y417734D01*
X1032500Y419204D01*
Y420796D01*
X1031891Y422266D01*
X1030766Y423391D01*
X1029296Y424000D01*
X1028128D01*
X1023469Y428658D01*
X1023995Y429929D01*
X1109665D01*
X1138547Y401047D01*
X1138547Y401046D01*
X1139213Y400601D01*
X1140000Y400444D01*
X1140000Y400444D01*
X1151522D01*
X1151609Y400234D01*
X1152734Y399109D01*
X1154204Y398500D01*
X1155796D01*
X1157266Y399109D01*
X1157630Y399473D01*
X1158900Y398947D01*
Y341100D01*
X1060000D01*
X1059222Y340778D01*
X1058900Y340000D01*
Y296100D01*
X972500D01*
X971722Y295778D01*
X971400Y295000D01*
Y286762D01*
X971000Y285796D01*
Y284204D01*
X971400Y283238D01*
Y276762D01*
X971000Y275796D01*
Y274204D01*
X971400Y273238D01*
Y266762D01*
X971000Y265796D01*
Y264204D01*
X971400Y263238D01*
Y225000D01*
X971722Y224222D01*
X972500Y223900D01*
X987500D01*
X988278Y224222D01*
X988600Y225000D01*
Y258900D01*
X1310000D01*
X1310778Y259222D01*
X1311100Y260000D01*
X1311100Y332500D01*
X1310778Y333278D01*
X1310000Y333600D01*
X1271100D01*
Y396000D01*
X1271055Y396107D01*
X1272266Y396609D01*
X1273391Y397734D01*
X1274000Y399204D01*
Y400796D01*
X1273391Y402266D01*
X1273056Y402601D01*
X1273775Y403678D01*
X1274204Y403500D01*
X1275796D01*
X1277266Y404109D01*
X1278391Y405234D01*
X1279575Y405470D01*
X1283900Y401144D01*
Y396600D01*
X1284222Y395822D01*
X1285000Y395500D01*
X1317500D01*
X1318278Y395822D01*
X1318600Y396600D01*
Y400500D01*
X1321400D01*
Y396600D01*
X1321722Y395822D01*
X1322500Y395500D01*
X1341500D01*
X1342278Y395822D01*
X1342600Y396600D01*
Y406900D01*
X1342278Y407678D01*
X1336100Y413856D01*
Y418400D01*
X1335778Y419178D01*
X1335000Y419500D01*
X1302500D01*
X1301722Y419178D01*
X1301400Y418400D01*
Y414500D01*
X1298600D01*
Y418400D01*
X1298278Y419178D01*
X1297500Y419500D01*
X1278500D01*
X1277722Y419178D01*
X1277400Y418400D01*
Y412210D01*
X1276130Y411361D01*
X1275796Y411500D01*
X1274204D01*
X1272734Y410891D01*
X1272370Y410527D01*
X1271100Y411053D01*
Y421400D01*
X1350000D01*
X1350778Y421722D01*
X1351100Y422500D01*
Y535000D01*
X1350778Y535778D01*
X1350000Y536100D01*
X1271100D01*
Y598900D01*
X1360000D01*
X1360778Y599222D01*
X1361100Y600000D01*
X1361100Y824277D01*
X1362370Y824852D01*
X1362589Y824659D01*
X1362961Y821833D01*
X1362961Y820000D01*
X1362961Y30000D01*
Y28167D01*
X1362482Y24533D01*
X1361534Y20993D01*
X1360131Y17607D01*
X1358298Y14432D01*
X1356067Y11525D01*
X1353475Y8933D01*
X1350567Y6701D01*
X1347393Y4869D01*
X1344007Y3466D01*
X1340467Y2517D01*
X1336833Y2039D01*
X28167D01*
X24534Y2517D01*
X20993Y3466D01*
X17607Y4869D01*
X14432Y6701D01*
X11525Y8933D01*
X8933Y11525D01*
X6701Y14432D01*
X4869Y17607D01*
X3466Y20993D01*
X2517Y24533D01*
X2039Y28167D01*
X2039Y30000D01*
Y60130D01*
X2039Y61400D01*
X140000D01*
X140778Y61722D01*
X141100Y62500D01*
Y122500D01*
X140778Y123278D01*
X140000Y123600D01*
X2039D01*
X2039Y124870D01*
X2039Y820000D01*
Y821833D01*
X2517Y825466D01*
X3466Y829007D01*
X4869Y832393D01*
X6701Y835567D01*
X8933Y838475D01*
X11524Y841067D01*
X14432Y843299D01*
X17607Y845131D01*
X20993Y846534D01*
X24533Y847483D01*
X28167Y847961D01*
X30000Y847961D01*
X1138900Y847961D01*
D02*
G37*
%LPC*%
G36*
X48920Y118366D02*
X46480D01*
X44123Y117734D01*
X42010Y116515D01*
X40285Y114789D01*
X39065Y112676D01*
X38434Y110320D01*
Y107880D01*
X39065Y105523D01*
X40285Y103411D01*
X42010Y101685D01*
X44123Y100465D01*
X46480Y99834D01*
X48920D01*
X51276Y100465D01*
X53389Y101685D01*
X55115Y103411D01*
X56335Y105523D01*
X56966Y107880D01*
Y110320D01*
X56335Y112676D01*
X55115Y114789D01*
X53389Y116515D01*
X51276Y117734D01*
X48920Y118366D01*
D02*
G37*
G36*
X51825Y93067D02*
X43575D01*
X41569Y92668D01*
X39869Y91531D01*
X38732Y89831D01*
X38333Y87825D01*
Y79575D01*
X38732Y77569D01*
X39869Y75869D01*
X41569Y74732D01*
X43575Y74333D01*
X51825D01*
X53831Y74732D01*
X55531Y75869D01*
X56668Y77569D01*
X57067Y79575D01*
Y87825D01*
X56668Y89831D01*
X55531Y91531D01*
X53831Y92668D01*
X51825Y93067D01*
D02*
G37*
G36*
X455796Y789000D02*
X454204D01*
X452734Y788391D01*
X452073Y787730D01*
X451250Y787407D01*
X450427Y787730D01*
X449766Y788391D01*
X448296Y789000D01*
X446704D01*
X445234Y788391D01*
X444109Y787266D01*
X443500Y785796D01*
Y784204D01*
X444109Y782734D01*
X445234Y781609D01*
X446704Y781000D01*
X448296D01*
X449766Y781609D01*
X450427Y782270D01*
X451250Y782593D01*
X452073Y782270D01*
X452734Y781609D01*
X454204Y781000D01*
X455796D01*
X457266Y781609D01*
X458391Y782734D01*
X459000Y784204D01*
Y785796D01*
X458391Y787266D01*
X457266Y788391D01*
X455796Y789000D01*
D02*
G37*
G36*
X366247Y798012D02*
X363753D01*
X361448Y797058D01*
X359685Y795294D01*
X358730Y792989D01*
Y790495D01*
X359685Y788191D01*
X361448Y786427D01*
X363753Y785472D01*
X366247D01*
X368552Y786427D01*
X370315Y788191D01*
X371270Y790495D01*
Y792989D01*
X370315Y795294D01*
X368552Y797058D01*
X366247Y798012D01*
D02*
G37*
G36*
X1121878Y810266D02*
X1118122D01*
X1114494Y809294D01*
X1111240Y807416D01*
X1108584Y804760D01*
X1106706Y801506D01*
X1105734Y797878D01*
Y794122D01*
X1106706Y790493D01*
X1108584Y787241D01*
X1111240Y784584D01*
X1114494Y782706D01*
X1118122Y781734D01*
X1121878D01*
X1125507Y782706D01*
X1128760Y784584D01*
X1131416Y787241D01*
X1133294Y790493D01*
X1134266Y794122D01*
Y797878D01*
X1133294Y801506D01*
X1131416Y804760D01*
X1128760Y807416D01*
X1125507Y809294D01*
X1121878Y810266D01*
D02*
G37*
G36*
X1081878D02*
X1078122D01*
X1074494Y809294D01*
X1071240Y807416D01*
X1068584Y804760D01*
X1066706Y801506D01*
X1065734Y797878D01*
Y794122D01*
X1066706Y790493D01*
X1068584Y787241D01*
X1071240Y784584D01*
X1074494Y782706D01*
X1078122Y781734D01*
X1081878D01*
X1085507Y782706D01*
X1088760Y784584D01*
X1091416Y787241D01*
X1093294Y790493D01*
X1094266Y794122D01*
Y797878D01*
X1093294Y801506D01*
X1091416Y804760D01*
X1088760Y807416D01*
X1085507Y809294D01*
X1081878Y810266D01*
D02*
G37*
G36*
X1041878D02*
X1038122D01*
X1034493Y809294D01*
X1031240Y807416D01*
X1028584Y804760D01*
X1026706Y801506D01*
X1025734Y797878D01*
Y794122D01*
X1026706Y790493D01*
X1028584Y787241D01*
X1031240Y784584D01*
X1034493Y782706D01*
X1038122Y781734D01*
X1041878D01*
X1045507Y782706D01*
X1048760Y784584D01*
X1051416Y787241D01*
X1053294Y790493D01*
X1054266Y794122D01*
Y797878D01*
X1053294Y801506D01*
X1051416Y804760D01*
X1048760Y807416D01*
X1045507Y809294D01*
X1041878Y810266D01*
D02*
G37*
G36*
X1001878D02*
X998122D01*
X994493Y809294D01*
X991240Y807416D01*
X988584Y804760D01*
X986706Y801506D01*
X985734Y797878D01*
Y794122D01*
X986706Y790493D01*
X988584Y787241D01*
X991240Y784584D01*
X994493Y782706D01*
X998122Y781734D01*
X1001878D01*
X1005507Y782706D01*
X1008760Y784584D01*
X1011416Y787241D01*
X1013294Y790493D01*
X1014266Y794122D01*
Y797878D01*
X1013294Y801506D01*
X1011416Y804760D01*
X1008760Y807416D01*
X1005507Y809294D01*
X1001878Y810266D01*
D02*
G37*
G36*
X921878D02*
X918122D01*
X914493Y809294D01*
X911240Y807416D01*
X908584Y804760D01*
X906706Y801506D01*
X905734Y797878D01*
Y794122D01*
X906706Y790493D01*
X908584Y787241D01*
X911240Y784584D01*
X914493Y782706D01*
X918122Y781734D01*
X921878D01*
X925507Y782706D01*
X928760Y784584D01*
X931416Y787241D01*
X933294Y790493D01*
X934266Y794122D01*
Y797878D01*
X933294Y801506D01*
X931416Y804760D01*
X928760Y807416D01*
X925507Y809294D01*
X921878Y810266D01*
D02*
G37*
G36*
X661388Y800541D02*
X658612D01*
X655931Y799823D01*
X653528Y798435D01*
X651565Y796472D01*
X650177Y794069D01*
X649459Y791388D01*
Y788612D01*
X650177Y785931D01*
X651565Y783528D01*
X653528Y781565D01*
X655931Y780177D01*
X658612Y779459D01*
X661388D01*
X664069Y780177D01*
X666472Y781565D01*
X668435Y783528D01*
X669823Y785931D01*
X670541Y788612D01*
Y791388D01*
X669823Y794069D01*
X668435Y796472D01*
X666472Y798435D01*
X664069Y799823D01*
X661388Y800541D01*
D02*
G37*
G36*
X268747Y776270D02*
X266253D01*
X263948Y775315D01*
X262185Y773552D01*
X261230Y771247D01*
Y768753D01*
X262185Y766448D01*
X263948Y764685D01*
X266253Y763730D01*
X268747D01*
X271052Y764685D01*
X272815Y766448D01*
X273770Y768753D01*
Y771247D01*
X272815Y773552D01*
X271052Y775315D01*
X268747Y776270D01*
D02*
G37*
G36*
X400796Y774000D02*
X399204D01*
X397734Y773391D01*
X396609Y772266D01*
X396000Y770796D01*
Y769204D01*
X396609Y767734D01*
X397270Y767073D01*
X397593Y766250D01*
X397270Y765427D01*
X396609Y764766D01*
X396000Y763296D01*
Y761704D01*
X396609Y760234D01*
X397734Y759109D01*
X399204Y758500D01*
X400796D01*
X402266Y759109D01*
X403391Y760234D01*
X404000Y761704D01*
Y763296D01*
X403391Y764766D01*
X402730Y765427D01*
X402407Y766250D01*
X402730Y767073D01*
X403391Y767734D01*
X404000Y769204D01*
Y770796D01*
X403391Y772266D01*
X402266Y773391D01*
X400796Y774000D01*
D02*
G37*
G36*
X856650Y777750D02*
X853350D01*
X850114Y777106D01*
X847066Y775844D01*
X844323Y774010D01*
X841990Y771677D01*
X840156Y768934D01*
X838894Y765886D01*
X838250Y762650D01*
Y759350D01*
X838894Y756114D01*
X840156Y753066D01*
X841990Y750322D01*
X844323Y747989D01*
X847066Y746156D01*
X850114Y744894D01*
X853350Y744250D01*
X856650D01*
X859886Y744894D01*
X862934Y746156D01*
X865677Y747989D01*
X868011Y750322D01*
X869844Y753066D01*
X871106Y756114D01*
X871750Y759350D01*
Y762650D01*
X871106Y765886D01*
X869844Y768934D01*
X868011Y771677D01*
X865677Y774010D01*
X862934Y775844D01*
X859886Y777106D01*
X856650Y777750D01*
D02*
G37*
G36*
X1061878Y770266D02*
X1058122D01*
X1054493Y769294D01*
X1051240Y767416D01*
X1048584Y764760D01*
X1046706Y761507D01*
X1045734Y757878D01*
Y754122D01*
X1046706Y750493D01*
X1048584Y747241D01*
X1051240Y744584D01*
X1054493Y742706D01*
X1058122Y741734D01*
X1061878D01*
X1065507Y742706D01*
X1068760Y744584D01*
X1071416Y747241D01*
X1073294Y750493D01*
X1074266Y754122D01*
Y757878D01*
X1073294Y761507D01*
X1071416Y764760D01*
X1068760Y767416D01*
X1065507Y769294D01*
X1061878Y770266D01*
D02*
G37*
G36*
X1021878D02*
X1018122D01*
X1014494Y769294D01*
X1011240Y767416D01*
X1008584Y764760D01*
X1006706Y761507D01*
X1005734Y757878D01*
Y754122D01*
X1006706Y750493D01*
X1008584Y747241D01*
X1011240Y744584D01*
X1014494Y742706D01*
X1018122Y741734D01*
X1021878D01*
X1025507Y742706D01*
X1028760Y744584D01*
X1031416Y747241D01*
X1033294Y750493D01*
X1034266Y754122D01*
Y757878D01*
X1033294Y761507D01*
X1031416Y764760D01*
X1028760Y767416D01*
X1025507Y769294D01*
X1021878Y770266D01*
D02*
G37*
G36*
X981878D02*
X978122D01*
X974494Y769294D01*
X971240Y767416D01*
X968584Y764760D01*
X966706Y761507D01*
X965734Y757878D01*
Y754122D01*
X966706Y750493D01*
X968584Y747241D01*
X971240Y744584D01*
X974494Y742706D01*
X978122Y741734D01*
X981878D01*
X985507Y742706D01*
X988760Y744584D01*
X991416Y747241D01*
X993294Y750493D01*
X994266Y754122D01*
Y757878D01*
X993294Y761507D01*
X991416Y764760D01*
X988760Y767416D01*
X985507Y769294D01*
X981878Y770266D01*
D02*
G37*
G36*
X941878D02*
X938122D01*
X934494Y769294D01*
X931240Y767416D01*
X928584Y764760D01*
X926706Y761507D01*
X925734Y757878D01*
Y754122D01*
X926706Y750493D01*
X928584Y747241D01*
X931240Y744584D01*
X934494Y742706D01*
X938122Y741734D01*
X941878D01*
X945507Y742706D01*
X948760Y744584D01*
X951416Y747241D01*
X953294Y750493D01*
X954266Y754122D01*
Y757878D01*
X953294Y761507D01*
X951416Y764760D01*
X948760Y767416D01*
X945507Y769294D01*
X941878Y770266D01*
D02*
G37*
G36*
X500796Y751500D02*
X499204D01*
X497734Y750891D01*
X496609Y749766D01*
X496000Y748296D01*
Y746704D01*
X496609Y745234D01*
X497409Y744434D01*
X497665Y743782D01*
X497467Y742845D01*
X496748Y742127D01*
X496139Y740657D01*
Y739065D01*
X496748Y737595D01*
X497873Y736470D01*
X499343Y735861D01*
X500935D01*
X502405Y736470D01*
X503530Y737595D01*
X504139Y739065D01*
Y740657D01*
X503530Y742127D01*
X502730Y742927D01*
X502474Y743579D01*
X502673Y744516D01*
X503391Y745234D01*
X504000Y746704D01*
Y748296D01*
X503391Y749766D01*
X502266Y750891D01*
X500796Y751500D01*
D02*
G37*
G36*
X423296Y711500D02*
X421704D01*
X420234Y710891D01*
X419109Y709766D01*
X418500Y708296D01*
Y706704D01*
X419109Y705234D01*
X420234Y704109D01*
X421704Y703500D01*
X423296D01*
X424766Y704109D01*
X425891Y705234D01*
X426500Y706704D01*
Y708296D01*
X425891Y709766D01*
X424766Y710891D01*
X423296Y711500D01*
D02*
G37*
G36*
X338296D02*
X336704D01*
X335234Y710891D01*
X334109Y709766D01*
X333500Y708296D01*
Y706704D01*
X334109Y705234D01*
X335234Y704109D01*
X336704Y703500D01*
X338296D01*
X339766Y704109D01*
X340891Y705234D01*
X341500Y706704D01*
Y708296D01*
X340891Y709766D01*
X339766Y710891D01*
X338296Y711500D01*
D02*
G37*
G36*
X1214266Y730266D02*
X1185734D01*
Y701734D01*
X1214266D01*
Y730266D01*
D02*
G37*
G36*
X1161878D02*
X1158122D01*
X1154494Y729294D01*
X1151240Y727416D01*
X1148584Y724760D01*
X1146706Y721507D01*
X1145734Y717878D01*
Y714122D01*
X1146706Y710493D01*
X1148584Y707241D01*
X1151240Y704584D01*
X1154494Y702706D01*
X1158122Y701734D01*
X1161878D01*
X1165507Y702706D01*
X1168760Y704584D01*
X1171416Y707241D01*
X1173294Y710493D01*
X1174266Y714122D01*
Y717878D01*
X1173294Y721507D01*
X1171416Y724760D01*
X1168760Y727416D01*
X1165507Y729294D01*
X1161878Y730266D01*
D02*
G37*
G36*
X1121878D02*
X1118122D01*
X1114494Y729294D01*
X1111240Y727416D01*
X1108584Y724760D01*
X1106706Y721507D01*
X1105734Y717878D01*
Y714122D01*
X1106706Y710493D01*
X1108584Y707241D01*
X1111240Y704584D01*
X1114494Y702706D01*
X1118122Y701734D01*
X1121878D01*
X1125507Y702706D01*
X1128760Y704584D01*
X1131416Y707241D01*
X1133294Y710493D01*
X1134266Y714122D01*
Y717878D01*
X1133294Y721507D01*
X1131416Y724760D01*
X1128760Y727416D01*
X1125507Y729294D01*
X1121878Y730266D01*
D02*
G37*
G36*
X1081878D02*
X1078122D01*
X1074494Y729294D01*
X1071240Y727416D01*
X1068584Y724760D01*
X1066706Y721507D01*
X1065734Y717878D01*
Y714122D01*
X1066706Y710493D01*
X1068584Y707241D01*
X1071240Y704584D01*
X1074494Y702706D01*
X1078122Y701734D01*
X1081878D01*
X1085507Y702706D01*
X1088760Y704584D01*
X1091416Y707241D01*
X1093294Y710493D01*
X1094266Y714122D01*
Y717878D01*
X1093294Y721507D01*
X1091416Y724760D01*
X1088760Y727416D01*
X1085507Y729294D01*
X1081878Y730266D01*
D02*
G37*
G36*
X1041878D02*
X1038122D01*
X1034493Y729294D01*
X1031240Y727416D01*
X1028584Y724760D01*
X1026706Y721507D01*
X1025734Y717878D01*
Y714122D01*
X1026706Y710493D01*
X1028584Y707241D01*
X1031240Y704584D01*
X1034493Y702706D01*
X1038122Y701734D01*
X1041878D01*
X1045507Y702706D01*
X1048760Y704584D01*
X1051416Y707241D01*
X1053294Y710493D01*
X1054266Y714122D01*
Y717878D01*
X1053294Y721507D01*
X1051416Y724760D01*
X1048760Y727416D01*
X1045507Y729294D01*
X1041878Y730266D01*
D02*
G37*
G36*
X1001878D02*
X998122D01*
X994493Y729294D01*
X991240Y727416D01*
X988584Y724760D01*
X986706Y721507D01*
X985734Y717878D01*
Y714122D01*
X986706Y710493D01*
X988584Y707241D01*
X991240Y704584D01*
X994493Y702706D01*
X998122Y701734D01*
X1001878D01*
X1005507Y702706D01*
X1008760Y704584D01*
X1011416Y707241D01*
X1013294Y710493D01*
X1014266Y714122D01*
Y717878D01*
X1013294Y721507D01*
X1011416Y724760D01*
X1008760Y727416D01*
X1005507Y729294D01*
X1001878Y730266D01*
D02*
G37*
G36*
X961878D02*
X958122D01*
X954493Y729294D01*
X951240Y727416D01*
X948584Y724760D01*
X946706Y721507D01*
X945734Y717878D01*
Y714122D01*
X946706Y710493D01*
X948584Y707241D01*
X951240Y704584D01*
X954493Y702706D01*
X958122Y701734D01*
X961878D01*
X965507Y702706D01*
X968760Y704584D01*
X971416Y707241D01*
X973294Y710493D01*
X974266Y714122D01*
Y717878D01*
X973294Y721507D01*
X971416Y724760D01*
X968760Y727416D01*
X965507Y729294D01*
X961878Y730266D01*
D02*
G37*
G36*
X921878D02*
X918122D01*
X914493Y729294D01*
X911240Y727416D01*
X908584Y724760D01*
X906706Y721507D01*
X905734Y717878D01*
Y714122D01*
X906706Y710493D01*
X908584Y707241D01*
X911240Y704584D01*
X914493Y702706D01*
X918122Y701734D01*
X921878D01*
X925507Y702706D01*
X928760Y704584D01*
X931416Y707241D01*
X933294Y710493D01*
X934266Y714122D01*
Y717878D01*
X933294Y721507D01*
X931416Y724760D01*
X928760Y727416D01*
X925507Y729294D01*
X921878Y730266D01*
D02*
G37*
G36*
X535796Y709000D02*
X534204D01*
X532734Y708391D01*
X531609Y707266D01*
X531000Y705796D01*
Y704204D01*
X531609Y702734D01*
X532734Y701609D01*
X534204Y701000D01*
X535796D01*
X537266Y701609D01*
X538391Y702734D01*
X539000Y704204D01*
Y705796D01*
X538391Y707266D01*
X537266Y708391D01*
X535796Y709000D01*
D02*
G37*
G36*
X550796Y696300D02*
X549204D01*
X547734Y695691D01*
X546609Y694566D01*
X546000Y693096D01*
Y691504D01*
X546609Y690034D01*
X547734Y688909D01*
X549204Y688300D01*
X550796D01*
X552266Y688909D01*
X553391Y690034D01*
X554000Y691504D01*
Y693096D01*
X553391Y694566D01*
X552266Y695691D01*
X550796Y696300D01*
D02*
G37*
G36*
X478296Y689000D02*
X476704D01*
X475234Y688391D01*
X474109Y687266D01*
X473500Y685796D01*
Y684204D01*
X474109Y682734D01*
X475234Y681609D01*
X476704Y681000D01*
X478296D01*
X479766Y681609D01*
X480891Y682734D01*
X481500Y684204D01*
Y685796D01*
X480891Y687266D01*
X479766Y688391D01*
X478296Y689000D01*
D02*
G37*
G36*
X535796Y684000D02*
X534204D01*
X532734Y683391D01*
X531609Y682266D01*
X531000Y680796D01*
Y679204D01*
X531609Y677734D01*
X532734Y676609D01*
X534204Y676000D01*
X535796D01*
X537266Y676609D01*
X538391Y677734D01*
X539000Y679204D01*
Y680796D01*
X538391Y682266D01*
X537266Y683391D01*
X535796Y684000D01*
D02*
G37*
G36*
X216247Y681770D02*
X213753D01*
X211448Y680816D01*
X209685Y679052D01*
X208730Y676747D01*
Y674253D01*
X209685Y671948D01*
X211448Y670185D01*
X213753Y669230D01*
X216247D01*
X218552Y670185D01*
X220315Y671948D01*
X221270Y674253D01*
Y676747D01*
X220315Y679052D01*
X218552Y680816D01*
X216247Y681770D01*
D02*
G37*
G36*
X131247Y681770D02*
X128753D01*
X126448Y680815D01*
X124685Y679052D01*
X123730Y676747D01*
Y674253D01*
X124685Y671948D01*
X126448Y670185D01*
X128753Y669230D01*
X131247D01*
X133552Y670185D01*
X135315Y671948D01*
X136270Y674253D01*
Y676747D01*
X135315Y679052D01*
X133552Y680815D01*
X131247Y681770D01*
D02*
G37*
G36*
X1128555Y663266D02*
X1126445D01*
X1124406Y662720D01*
X1122578Y661664D01*
X1121086Y660172D01*
X1120030Y658344D01*
X1119484Y656305D01*
Y654195D01*
X1120030Y652156D01*
X1121086Y650328D01*
X1122578Y648836D01*
X1124406Y647780D01*
X1126445Y647234D01*
X1128555D01*
X1130594Y647780D01*
X1132422Y648836D01*
X1133914Y650328D01*
X1134970Y652156D01*
X1135516Y654195D01*
Y656305D01*
X1134970Y658344D01*
X1133914Y660172D01*
X1132422Y661664D01*
X1130594Y662720D01*
X1128555Y663266D01*
D02*
G37*
G36*
X1103555D02*
X1101445D01*
X1099406Y662720D01*
X1097578Y661664D01*
X1096086Y660172D01*
X1095030Y658344D01*
X1094484Y656305D01*
Y654195D01*
X1095030Y652156D01*
X1096086Y650328D01*
X1097578Y648836D01*
X1099406Y647780D01*
X1101445Y647234D01*
X1103555D01*
X1105594Y647780D01*
X1107422Y648836D01*
X1108914Y650328D01*
X1109970Y652156D01*
X1110516Y654195D01*
Y656305D01*
X1109970Y658344D01*
X1108914Y660172D01*
X1107422Y661664D01*
X1105594Y662720D01*
X1103555Y663266D01*
D02*
G37*
G36*
X1078555D02*
X1076445D01*
X1074406Y662720D01*
X1072578Y661664D01*
X1071086Y660172D01*
X1070030Y658344D01*
X1069484Y656305D01*
Y654195D01*
X1070030Y652156D01*
X1071086Y650328D01*
X1072578Y648836D01*
X1074406Y647780D01*
X1076445Y647234D01*
X1078555D01*
X1080594Y647780D01*
X1082422Y648836D01*
X1083914Y650328D01*
X1084970Y652156D01*
X1085516Y654195D01*
Y656305D01*
X1084970Y658344D01*
X1083914Y660172D01*
X1082422Y661664D01*
X1080594Y662720D01*
X1078555Y663266D01*
D02*
G37*
G36*
X1060516D02*
X1044484D01*
Y647234D01*
X1060516D01*
Y663266D01*
D02*
G37*
G36*
X998555D02*
X996445D01*
X994406Y662720D01*
X992578Y661664D01*
X991086Y660172D01*
X990030Y658344D01*
X989484Y656305D01*
Y654195D01*
X990030Y652156D01*
X991086Y650328D01*
X992578Y648836D01*
X994406Y647780D01*
X996445Y647234D01*
X998555D01*
X1000594Y647780D01*
X1002422Y648836D01*
X1003914Y650328D01*
X1004970Y652156D01*
X1005516Y654195D01*
Y656305D01*
X1004970Y658344D01*
X1003914Y660172D01*
X1002422Y661664D01*
X1000594Y662720D01*
X998555Y663266D01*
D02*
G37*
G36*
X973555D02*
X971445D01*
X969406Y662720D01*
X967578Y661664D01*
X966086Y660172D01*
X965030Y658344D01*
X964484Y656305D01*
Y654195D01*
X965030Y652156D01*
X966086Y650328D01*
X967578Y648836D01*
X969406Y647780D01*
X971445Y647234D01*
X973555D01*
X975594Y647780D01*
X977422Y648836D01*
X978914Y650328D01*
X979970Y652156D01*
X980516Y654195D01*
Y656305D01*
X979970Y658344D01*
X978914Y660172D01*
X977422Y661664D01*
X975594Y662720D01*
X973555Y663266D01*
D02*
G37*
G36*
X898555D02*
X896445D01*
X894406Y662720D01*
X892578Y661664D01*
X891086Y660172D01*
X890030Y658344D01*
X889484Y656305D01*
Y654195D01*
X890030Y652156D01*
X891086Y650328D01*
X892578Y648836D01*
X894406Y647780D01*
X896445Y647234D01*
X898555D01*
X900594Y647780D01*
X902422Y648836D01*
X903914Y650328D01*
X904970Y652156D01*
X905516Y654195D01*
Y656305D01*
X904970Y658344D01*
X903914Y660172D01*
X902422Y661664D01*
X900594Y662720D01*
X898555Y663266D01*
D02*
G37*
G36*
X873555D02*
X871445D01*
X869406Y662720D01*
X867578Y661664D01*
X866086Y660172D01*
X865030Y658344D01*
X864484Y656305D01*
Y654195D01*
X865030Y652156D01*
X866086Y650328D01*
X867578Y648836D01*
X869406Y647780D01*
X871445Y647234D01*
X873555D01*
X875594Y647780D01*
X877422Y648836D01*
X878914Y650328D01*
X879970Y652156D01*
X880516Y654195D01*
Y656305D01*
X879970Y658344D01*
X878914Y660172D01*
X877422Y661664D01*
X875594Y662720D01*
X873555Y663266D01*
D02*
G37*
G36*
X848555D02*
X846445D01*
X844406Y662720D01*
X842578Y661664D01*
X841086Y660172D01*
X840030Y658344D01*
X839484Y656305D01*
Y654195D01*
X840030Y652156D01*
X841086Y650328D01*
X842578Y648836D01*
X844406Y647780D01*
X846445Y647234D01*
X848555D01*
X850594Y647780D01*
X852422Y648836D01*
X853914Y650328D01*
X854970Y652156D01*
X855516Y654195D01*
Y656305D01*
X854970Y658344D01*
X853914Y660172D01*
X852422Y661664D01*
X850594Y662720D01*
X848555Y663266D01*
D02*
G37*
G36*
X830516D02*
X814484D01*
Y647234D01*
X830516D01*
Y663266D01*
D02*
G37*
G36*
X678555D02*
X676445D01*
X674406Y662720D01*
X672578Y661664D01*
X671086Y660172D01*
X670030Y658344D01*
X669484Y656305D01*
Y654195D01*
X670030Y652156D01*
X671086Y650328D01*
X672578Y648836D01*
X674406Y647780D01*
X676445Y647234D01*
X678555D01*
X680594Y647780D01*
X682422Y648836D01*
X683914Y650328D01*
X684970Y652156D01*
X685516Y654195D01*
Y656305D01*
X684970Y658344D01*
X683914Y660172D01*
X682422Y661664D01*
X680594Y662720D01*
X678555Y663266D01*
D02*
G37*
G36*
X653555D02*
X651445D01*
X649406Y662720D01*
X647578Y661664D01*
X646086Y660172D01*
X645030Y658344D01*
X644484Y656305D01*
Y654195D01*
X645030Y652156D01*
X646086Y650328D01*
X647578Y648836D01*
X649406Y647780D01*
X651445Y647234D01*
X653555D01*
X655594Y647780D01*
X657422Y648836D01*
X658914Y650328D01*
X659970Y652156D01*
X660516Y654195D01*
Y656305D01*
X659970Y658344D01*
X658914Y660172D01*
X657422Y661664D01*
X655594Y662720D01*
X653555Y663266D01*
D02*
G37*
G36*
X610516D02*
X594484D01*
Y647234D01*
X610516D01*
Y663266D01*
D02*
G37*
G36*
X763654Y664016D02*
X761346D01*
X759116Y663419D01*
X757118Y662264D01*
X755486Y660632D01*
X754331Y658634D01*
X753734Y656404D01*
Y654096D01*
X754331Y651866D01*
X755486Y649868D01*
X757118Y648235D01*
X759116Y647081D01*
X761346Y646484D01*
X763654D01*
X765884Y647081D01*
X767882Y648235D01*
X769514Y649868D01*
X770669Y651866D01*
X771266Y654096D01*
Y656404D01*
X770669Y658634D01*
X769514Y660632D01*
X767882Y662264D01*
X765884Y663419D01*
X763654Y664016D01*
D02*
G37*
G36*
X746266D02*
X728734D01*
Y646484D01*
X746266D01*
Y664016D01*
D02*
G37*
G36*
X656247Y594270D02*
X653753D01*
X651448Y593316D01*
X649685Y591552D01*
X648730Y589247D01*
Y586753D01*
X649685Y584448D01*
X651448Y582685D01*
X653753Y581730D01*
X656247D01*
X658552Y582685D01*
X660315Y584448D01*
X661270Y586753D01*
Y589247D01*
X660315Y591552D01*
X658552Y593316D01*
X656247Y594270D01*
D02*
G37*
G36*
X35796Y584000D02*
X34204D01*
X32734Y583391D01*
X31609Y582266D01*
X31000Y580796D01*
Y579204D01*
X31609Y577734D01*
X32734Y576609D01*
X34204Y576000D01*
X35796D01*
X37266Y576609D01*
X38391Y577734D01*
X38478Y577944D01*
X144149D01*
X146087Y576006D01*
X146000Y575796D01*
Y574204D01*
X146609Y572734D01*
X147734Y571609D01*
X149204Y571000D01*
X150796D01*
X152266Y571609D01*
X153391Y572734D01*
X154000Y574204D01*
Y575796D01*
X153391Y577266D01*
X152266Y578391D01*
X150796Y579000D01*
X149204D01*
X148994Y578913D01*
X146454Y581454D01*
X145787Y581899D01*
X145000Y582056D01*
X145000Y582056D01*
X38478D01*
X38391Y582266D01*
X37266Y583391D01*
X35796Y584000D01*
D02*
G37*
G36*
X123296Y574000D02*
X121704D01*
X120234Y573391D01*
X119109Y572266D01*
X118500Y570796D01*
Y569204D01*
X119109Y567734D01*
X120234Y566609D01*
X121704Y566000D01*
X123296D01*
X124766Y566609D01*
X125891Y567734D01*
X126500Y569204D01*
Y570796D01*
X125891Y572266D01*
X124766Y573391D01*
X123296Y574000D01*
D02*
G37*
G36*
X23520Y575566D02*
X21080D01*
X18723Y574935D01*
X16610Y573715D01*
X14885Y571989D01*
X13665Y569877D01*
X13034Y567520D01*
Y565080D01*
X13665Y562723D01*
X14885Y560611D01*
X16610Y558885D01*
X18723Y557665D01*
X21080Y557034D01*
X23520D01*
X25877Y557665D01*
X27989Y558885D01*
X29715Y560611D01*
X30935Y562723D01*
X31566Y565080D01*
Y567520D01*
X30935Y569877D01*
X29715Y571989D01*
X27989Y573715D01*
X25877Y574935D01*
X23520Y575566D01*
D02*
G37*
G36*
X48920Y550166D02*
X46480D01*
X44123Y549534D01*
X42010Y548315D01*
X40285Y546589D01*
X39065Y544477D01*
X38434Y542120D01*
Y539680D01*
X39065Y537323D01*
X40285Y535210D01*
X42010Y533485D01*
X44123Y532266D01*
X46480Y531634D01*
X48920D01*
X51276Y532266D01*
X53389Y533485D01*
X55115Y535210D01*
X56335Y537323D01*
X56966Y539680D01*
Y542120D01*
X56335Y544477D01*
X55115Y546589D01*
X53389Y548315D01*
X51276Y549534D01*
X48920Y550166D01*
D02*
G37*
G36*
X23520D02*
X21080D01*
X18723Y549534D01*
X16610Y548315D01*
X14885Y546589D01*
X13665Y544477D01*
X13034Y542120D01*
Y539680D01*
X13665Y537323D01*
X14885Y535210D01*
X16610Y533485D01*
X18723Y532266D01*
X21080Y531634D01*
X23520D01*
X25877Y532266D01*
X27989Y533485D01*
X29715Y535210D01*
X30935Y537323D01*
X31566Y539680D01*
Y542120D01*
X30935Y544477D01*
X29715Y546589D01*
X27989Y548315D01*
X25877Y549534D01*
X23520Y550166D01*
D02*
G37*
G36*
X150796Y546500D02*
X149204D01*
X147734Y545891D01*
X146609Y544766D01*
X146000Y543296D01*
Y541704D01*
X146609Y540234D01*
X147734Y539109D01*
X149204Y538500D01*
X150796D01*
X151225Y538678D01*
X151944Y537601D01*
X151609Y537266D01*
X151000Y535796D01*
Y534204D01*
X151609Y532734D01*
X151944Y532399D01*
X151225Y531322D01*
X150796Y531500D01*
X149204D01*
X147734Y530891D01*
X146609Y529766D01*
X146000Y528296D01*
Y526704D01*
X146609Y525234D01*
X147734Y524109D01*
X149204Y523500D01*
X150796D01*
X151225Y523678D01*
X151944Y522601D01*
X151609Y522266D01*
X151000Y520796D01*
Y519204D01*
X151609Y517734D01*
X151944Y517399D01*
X151225Y516322D01*
X150796Y516500D01*
X149204D01*
X147734Y515891D01*
X146609Y514766D01*
X146000Y513296D01*
Y511704D01*
X146609Y510234D01*
X147734Y509109D01*
X149204Y508500D01*
X150796D01*
X152266Y509109D01*
X153391Y510234D01*
X154000Y511704D01*
Y513296D01*
X153391Y514766D01*
X153056Y515101D01*
X153775Y516178D01*
X154204Y516000D01*
X155796D01*
X157266Y516609D01*
X158391Y517734D01*
X159000Y519204D01*
Y520796D01*
X158391Y522266D01*
X157266Y523391D01*
X155796Y524000D01*
X154204D01*
X153775Y523822D01*
X153056Y524899D01*
X153391Y525234D01*
X154000Y526704D01*
Y528296D01*
X153391Y529766D01*
X153056Y530101D01*
X153775Y531178D01*
X154204Y531000D01*
X155796D01*
X157266Y531609D01*
X158391Y532734D01*
X159000Y534204D01*
Y535796D01*
X158391Y537266D01*
X157266Y538391D01*
X155796Y539000D01*
X154204D01*
X153775Y538822D01*
X153056Y539899D01*
X153391Y540234D01*
X154000Y541704D01*
Y543296D01*
X153391Y544766D01*
X152266Y545891D01*
X150796Y546500D01*
D02*
G37*
G36*
X48920Y524766D02*
X46480D01*
X44123Y524134D01*
X42010Y522915D01*
X40285Y521189D01*
X39065Y519076D01*
X38434Y516720D01*
Y514280D01*
X39065Y511923D01*
X40285Y509810D01*
X42010Y508085D01*
X44123Y506866D01*
X46480Y506234D01*
X48920D01*
X51276Y506866D01*
X53389Y508085D01*
X55115Y509810D01*
X56335Y511923D01*
X56966Y514280D01*
Y516720D01*
X56335Y519076D01*
X55115Y521189D01*
X53389Y522915D01*
X51276Y524134D01*
X48920Y524766D01*
D02*
G37*
G36*
X23520D02*
X21080D01*
X18723Y524134D01*
X16610Y522915D01*
X14885Y521189D01*
X13665Y519076D01*
X13034Y516720D01*
Y514280D01*
X13665Y511923D01*
X14885Y509810D01*
X16610Y508085D01*
X18723Y506866D01*
X21080Y506234D01*
X23520D01*
X25877Y506866D01*
X27989Y508085D01*
X29715Y509810D01*
X30935Y511923D01*
X31566Y514280D01*
Y516720D01*
X30935Y519076D01*
X29715Y521189D01*
X27989Y522915D01*
X25877Y524134D01*
X23520Y524766D01*
D02*
G37*
G36*
X620796Y504000D02*
X619204D01*
X617734Y503391D01*
X617073Y502730D01*
X616250Y502407D01*
X615427Y502730D01*
X614766Y503391D01*
X613296Y504000D01*
X611704D01*
X610234Y503391D01*
X609573Y502730D01*
X608750Y502407D01*
X607927Y502730D01*
X607266Y503391D01*
X605796Y504000D01*
X604204D01*
X602734Y503391D01*
X602073Y502730D01*
X601250Y502407D01*
X600427Y502730D01*
X599766Y503391D01*
X598296Y504000D01*
X596704D01*
X595234Y503391D01*
X594573Y502730D01*
X593750Y502407D01*
X592927Y502730D01*
X592266Y503391D01*
X590796Y504000D01*
X589204D01*
X587734Y503391D01*
X586609Y502266D01*
X586000Y500796D01*
Y499204D01*
X586609Y497734D01*
X587270Y497073D01*
X587593Y496250D01*
X587270Y495427D01*
X586609Y494766D01*
X586000Y493296D01*
Y491704D01*
X586609Y490234D01*
X587270Y489573D01*
X587593Y488750D01*
X587270Y487927D01*
X586609Y487266D01*
X586000Y485796D01*
Y484204D01*
X586609Y482734D01*
X587270Y482073D01*
X587593Y481250D01*
X587270Y480427D01*
X586609Y479766D01*
X586000Y478296D01*
Y476704D01*
X586609Y475234D01*
X587270Y474573D01*
X587593Y473750D01*
X587270Y472927D01*
X586609Y472266D01*
X586000Y470796D01*
Y469204D01*
X586609Y467734D01*
X587734Y466609D01*
X589204Y466000D01*
X590796D01*
X592266Y466609D01*
X592927Y467270D01*
X593750Y467593D01*
X594573Y467270D01*
X595234Y466609D01*
X596704Y466000D01*
X598296D01*
X599766Y466609D01*
X600427Y467270D01*
X601250Y467593D01*
X602073Y467270D01*
X602734Y466609D01*
X604204Y466000D01*
X605796D01*
X607266Y466609D01*
X607927Y467270D01*
X608750Y467593D01*
X609573Y467270D01*
X610234Y466609D01*
X611704Y466000D01*
X613296D01*
X614766Y466609D01*
X615427Y467270D01*
X616250Y467593D01*
X617073Y467270D01*
X617734Y466609D01*
X619204Y466000D01*
X620796D01*
X622266Y466609D01*
X623391Y467734D01*
X624000Y469204D01*
Y470796D01*
X623391Y472266D01*
X622730Y472927D01*
X622407Y473750D01*
X622730Y474573D01*
X623391Y475234D01*
X624000Y476704D01*
Y478296D01*
X623391Y479766D01*
X622730Y480427D01*
X622407Y481250D01*
X622730Y482073D01*
X623391Y482734D01*
X624000Y484204D01*
Y485796D01*
X623391Y487266D01*
X622730Y487927D01*
X622407Y488750D01*
X622730Y489573D01*
X623391Y490234D01*
X624000Y491704D01*
Y493296D01*
X623391Y494766D01*
X622730Y495427D01*
X622407Y496250D01*
X622730Y497073D01*
X623391Y497734D01*
X624000Y499204D01*
Y500796D01*
X623391Y502266D01*
X622266Y503391D01*
X620796Y504000D01*
D02*
G37*
G36*
X48920Y499366D02*
X46480D01*
X44123Y498735D01*
X42010Y497515D01*
X40285Y495789D01*
X39065Y493676D01*
X38434Y491320D01*
Y488880D01*
X39065Y486523D01*
X40285Y484411D01*
X42010Y482685D01*
X44123Y481465D01*
X46480Y480834D01*
X48920D01*
X51276Y481465D01*
X53389Y482685D01*
X55115Y484411D01*
X56335Y486523D01*
X56966Y488880D01*
Y491320D01*
X56335Y493676D01*
X55115Y495789D01*
X53389Y497515D01*
X51276Y498735D01*
X48920Y499366D01*
D02*
G37*
G36*
Y473966D02*
X46480D01*
X44123Y473335D01*
X42010Y472115D01*
X40285Y470389D01*
X39065Y468276D01*
X38434Y465920D01*
Y463480D01*
X39065Y461123D01*
X40285Y459011D01*
X42010Y457285D01*
X44123Y456065D01*
X46480Y455434D01*
X48920D01*
X51276Y456065D01*
X53389Y457285D01*
X55115Y459011D01*
X56335Y461123D01*
X56966Y463480D01*
Y465920D01*
X56335Y468276D01*
X55115Y470389D01*
X53389Y472115D01*
X51276Y473335D01*
X48920Y473966D01*
D02*
G37*
G36*
X23520D02*
X21080D01*
X18723Y473335D01*
X16610Y472115D01*
X14885Y470389D01*
X13665Y468276D01*
X13034Y465920D01*
Y463480D01*
X13665Y461123D01*
X14885Y459011D01*
X16610Y457285D01*
X18723Y456065D01*
X21080Y455434D01*
X23520D01*
X25877Y456065D01*
X27989Y457285D01*
X29715Y459011D01*
X30935Y461123D01*
X31566Y463480D01*
Y465920D01*
X30935Y468276D01*
X29715Y470389D01*
X27989Y472115D01*
X25877Y473335D01*
X23520Y473966D01*
D02*
G37*
G36*
X48920Y448566D02*
X46480D01*
X44123Y447934D01*
X42010Y446715D01*
X40285Y444989D01*
X39065Y442877D01*
X38434Y440520D01*
Y438080D01*
X39065Y435723D01*
X40285Y433610D01*
X42010Y431885D01*
X44123Y430666D01*
X46480Y430034D01*
X48920D01*
X51276Y430666D01*
X53389Y431885D01*
X55115Y433610D01*
X56335Y435723D01*
X56966Y438080D01*
Y440520D01*
X56335Y442877D01*
X55115Y444989D01*
X53389Y446715D01*
X51276Y447934D01*
X48920Y448566D01*
D02*
G37*
G36*
X483296Y434000D02*
X481704D01*
X480234Y433391D01*
X479109Y432266D01*
X478500Y430796D01*
Y429204D01*
X479109Y427734D01*
X479770Y427073D01*
X480093Y426250D01*
X479770Y425427D01*
X479109Y424766D01*
X478500Y423296D01*
Y421704D01*
X479109Y420234D01*
X480234Y419109D01*
X481704Y418500D01*
X483296D01*
X484766Y419109D01*
X485891Y420234D01*
X486500Y421704D01*
Y423296D01*
X485891Y424766D01*
X485230Y425427D01*
X484907Y426250D01*
X485230Y427073D01*
X485891Y427734D01*
X486500Y429204D01*
Y430796D01*
X485891Y432266D01*
X484766Y433391D01*
X483296Y434000D01*
D02*
G37*
G36*
X360796D02*
X359204D01*
X357734Y433391D01*
X356609Y432266D01*
X356000Y430796D01*
Y429204D01*
X356609Y427734D01*
X357270Y427073D01*
X357593Y426250D01*
X357270Y425427D01*
X356609Y424766D01*
X356000Y423296D01*
Y421704D01*
X356609Y420234D01*
X357734Y419109D01*
X359204Y418500D01*
X360796D01*
X362266Y419109D01*
X363391Y420234D01*
X364000Y421704D01*
Y423296D01*
X363391Y424766D01*
X362730Y425427D01*
X362407Y426250D01*
X362730Y427073D01*
X363391Y427734D01*
X364000Y429204D01*
Y430796D01*
X363391Y432266D01*
X362266Y433391D01*
X360796Y434000D01*
D02*
G37*
G36*
X48920Y423166D02*
X46480D01*
X44123Y422534D01*
X42010Y421315D01*
X40285Y419589D01*
X39065Y417477D01*
X38434Y415120D01*
Y412680D01*
X39065Y410323D01*
X40285Y408210D01*
X42010Y406485D01*
X44123Y405266D01*
X46480Y404634D01*
X48920D01*
X51276Y405266D01*
X53389Y406485D01*
X55115Y408210D01*
X56335Y410323D01*
X56966Y412680D01*
Y415120D01*
X56335Y417477D01*
X55115Y419589D01*
X53389Y421315D01*
X51276Y422534D01*
X48920Y423166D01*
D02*
G37*
G36*
X23520D02*
X21080D01*
X18723Y422534D01*
X16610Y421315D01*
X14885Y419589D01*
X13665Y417477D01*
X13034Y415120D01*
Y412680D01*
X13665Y410323D01*
X14885Y408210D01*
X16610Y406485D01*
X18723Y405266D01*
X21080Y404634D01*
X23520D01*
X25877Y405266D01*
X27989Y406485D01*
X29715Y408210D01*
X30935Y410323D01*
X31566Y412680D01*
Y415120D01*
X30935Y417477D01*
X29715Y419589D01*
X27989Y421315D01*
X25877Y422534D01*
X23520Y423166D01*
D02*
G37*
G36*
X1350796Y411500D02*
X1349204D01*
X1347734Y410891D01*
X1346609Y409766D01*
X1346000Y408296D01*
Y406704D01*
X1346609Y405234D01*
X1347734Y404109D01*
X1349204Y403500D01*
X1350796D01*
X1352266Y404109D01*
X1353391Y405234D01*
X1354000Y406704D01*
Y408296D01*
X1353391Y409766D01*
X1352266Y410891D01*
X1350796Y411500D01*
D02*
G37*
G36*
X965796D02*
X964204D01*
X962734Y410891D01*
X961609Y409766D01*
X961000Y408296D01*
Y406704D01*
X961609Y405234D01*
X962734Y404109D01*
X964204Y403500D01*
X965796D01*
X967266Y404109D01*
X968391Y405234D01*
X969000Y406704D01*
Y408296D01*
X968391Y409766D01*
X967266Y410891D01*
X965796Y411500D01*
D02*
G37*
G36*
X922005Y389400D02*
X920414D01*
X918944Y388791D01*
X917819Y387666D01*
X917210Y386196D01*
Y384604D01*
X917819Y383134D01*
X918944Y382009D01*
X920414Y381400D01*
X922005D01*
X923475Y382009D01*
X924601Y383134D01*
X925210Y384604D01*
Y386196D01*
X924601Y387666D01*
X923475Y388791D01*
X922005Y389400D01*
D02*
G37*
G36*
X23520Y397766D02*
X21080D01*
X18723Y397135D01*
X16610Y395915D01*
X14885Y394189D01*
X13665Y392076D01*
X13034Y389720D01*
Y387280D01*
X13665Y384923D01*
X14885Y382811D01*
X16610Y381085D01*
X18723Y379865D01*
X21080Y379234D01*
X23520D01*
X25877Y379865D01*
X27989Y381085D01*
X29715Y382811D01*
X30935Y384923D01*
X31566Y387280D01*
Y389720D01*
X30935Y392076D01*
X29715Y394189D01*
X27989Y395915D01*
X25877Y397135D01*
X23520Y397766D01*
D02*
G37*
G36*
X573296Y394000D02*
X571704D01*
X570234Y393391D01*
X569109Y392266D01*
X568500Y390796D01*
Y389204D01*
X569109Y387734D01*
X569770Y387073D01*
X570093Y386250D01*
X569770Y385427D01*
X569109Y384766D01*
X568500Y383296D01*
Y381704D01*
X569109Y380234D01*
X570234Y379109D01*
X571704Y378500D01*
X573296D01*
X574766Y379109D01*
X575891Y380234D01*
X576500Y381704D01*
Y383296D01*
X575891Y384766D01*
X575230Y385427D01*
X574907Y386250D01*
X575230Y387073D01*
X575891Y387734D01*
X576500Y389204D01*
Y390796D01*
X575891Y392266D01*
X574766Y393391D01*
X573296Y394000D01*
D02*
G37*
G36*
X922005Y376700D02*
X920414D01*
X918944Y376091D01*
X917819Y374966D01*
X917210Y373496D01*
Y371904D01*
X917819Y370434D01*
X918944Y369309D01*
X920414Y368700D01*
X922005D01*
X923475Y369309D01*
X924601Y370434D01*
X925210Y371904D01*
Y373496D01*
X924601Y374966D01*
X923475Y376091D01*
X922005Y376700D01*
D02*
G37*
G36*
X945796Y364000D02*
X944204D01*
X942734Y363391D01*
X941609Y362266D01*
X941000Y360796D01*
Y359204D01*
X941609Y357734D01*
X942734Y356609D01*
X944204Y356000D01*
X945796D01*
X947266Y356609D01*
X948391Y357734D01*
X949000Y359204D01*
Y360796D01*
X948391Y362266D01*
X947266Y363391D01*
X945796Y364000D01*
D02*
G37*
G36*
X922005D02*
X920414D01*
X918944Y363391D01*
X917819Y362266D01*
X917210Y360796D01*
Y359204D01*
X917819Y357734D01*
X918944Y356609D01*
X920414Y356000D01*
X922005D01*
X923475Y356609D01*
X924601Y357734D01*
X925210Y359204D01*
Y360796D01*
X924601Y362266D01*
X923475Y363391D01*
X922005Y364000D01*
D02*
G37*
G36*
X48920Y372366D02*
X46480D01*
X44123Y371735D01*
X42010Y370515D01*
X40285Y368789D01*
X39065Y366676D01*
X38434Y364320D01*
Y361880D01*
X39065Y359523D01*
X40285Y357411D01*
X42010Y355685D01*
X44123Y354465D01*
X46480Y353834D01*
X48920D01*
X51276Y354465D01*
X53389Y355685D01*
X55115Y357411D01*
X56335Y359523D01*
X56966Y361880D01*
Y364320D01*
X56335Y366676D01*
X55115Y368789D01*
X53389Y370515D01*
X51276Y371735D01*
X48920Y372366D01*
D02*
G37*
G36*
X23520D02*
X21080D01*
X18723Y371735D01*
X16610Y370515D01*
X14885Y368789D01*
X13665Y366676D01*
X13034Y364320D01*
Y361880D01*
X13665Y359523D01*
X14885Y357411D01*
X16610Y355685D01*
X18723Y354465D01*
X21080Y353834D01*
X23520D01*
X25877Y354465D01*
X27989Y355685D01*
X29715Y357411D01*
X30935Y359523D01*
X31566Y361880D01*
Y364320D01*
X30935Y366676D01*
X29715Y368789D01*
X27989Y370515D01*
X25877Y371735D01*
X23520Y372366D01*
D02*
G37*
G36*
X1322586Y355550D02*
X1320995D01*
X1319525Y354941D01*
X1318399Y353816D01*
X1317790Y352346D01*
Y350754D01*
X1318399Y349284D01*
X1319525Y348159D01*
X1320995Y347550D01*
X1322586D01*
X1324056Y348159D01*
X1325181Y349284D01*
X1325790Y350754D01*
Y352346D01*
X1325181Y353816D01*
X1324056Y354941D01*
X1322586Y355550D01*
D02*
G37*
G36*
X922005Y351300D02*
X920414D01*
X918944Y350691D01*
X917819Y349566D01*
X917210Y348096D01*
Y346504D01*
X917819Y345034D01*
X918944Y343909D01*
X920414Y343300D01*
X922005D01*
X923475Y343909D01*
X924601Y345034D01*
X925210Y346504D01*
Y348096D01*
X924601Y349566D01*
X923475Y350691D01*
X922005Y351300D01*
D02*
G37*
G36*
Y338600D02*
X920414D01*
X918944Y337991D01*
X917819Y336866D01*
X917210Y335396D01*
Y333804D01*
X917819Y332334D01*
X918944Y331209D01*
X920414Y330600D01*
X922005D01*
X923475Y331209D01*
X924601Y332334D01*
X925210Y333804D01*
Y335396D01*
X924601Y336866D01*
X923475Y337991D01*
X922005Y338600D01*
D02*
G37*
G36*
X48920Y346966D02*
X46480D01*
X44123Y346334D01*
X42010Y345115D01*
X40285Y343389D01*
X39065Y341277D01*
X38434Y338920D01*
Y336480D01*
X39065Y334123D01*
X40285Y332010D01*
X42010Y330285D01*
X44123Y329066D01*
X46480Y328434D01*
X48920D01*
X51276Y329066D01*
X53389Y330285D01*
X55115Y332010D01*
X56335Y334123D01*
X56966Y336480D01*
Y338920D01*
X56335Y341277D01*
X55115Y343389D01*
X53389Y345115D01*
X51276Y346334D01*
X48920Y346966D01*
D02*
G37*
G36*
X23520D02*
X21080D01*
X18723Y346334D01*
X16610Y345115D01*
X14885Y343389D01*
X13665Y341277D01*
X13034Y338920D01*
Y336480D01*
X13665Y334123D01*
X14885Y332010D01*
X16610Y330285D01*
X18723Y329066D01*
X21080Y328434D01*
X23520D01*
X25877Y329066D01*
X27989Y330285D01*
X29715Y332010D01*
X30935Y334123D01*
X31566Y336480D01*
Y338920D01*
X30935Y341277D01*
X29715Y343389D01*
X27989Y345115D01*
X25877Y346334D01*
X23520Y346966D01*
D02*
G37*
G36*
X922005Y325900D02*
X920414D01*
X918944Y325291D01*
X917819Y324166D01*
X917210Y322696D01*
Y321104D01*
X917819Y319634D01*
X918944Y318509D01*
X920414Y317900D01*
X922005D01*
X923475Y318509D01*
X924601Y319634D01*
X925210Y321104D01*
Y322696D01*
X924601Y324166D01*
X923475Y325291D01*
X922005Y325900D01*
D02*
G37*
G36*
X48920Y321566D02*
X46480D01*
X44123Y320934D01*
X42010Y319715D01*
X40285Y317989D01*
X39065Y315877D01*
X38434Y313520D01*
Y311080D01*
X39065Y308723D01*
X40285Y306611D01*
X42010Y304885D01*
X44123Y303666D01*
X46480Y303034D01*
X48920D01*
X51276Y303666D01*
X53389Y304885D01*
X55115Y306611D01*
X56335Y308723D01*
X56966Y311080D01*
Y313520D01*
X56335Y315877D01*
X55115Y317989D01*
X53389Y319715D01*
X51276Y320934D01*
X48920Y321566D01*
D02*
G37*
G36*
X573860Y311500D02*
X572268D01*
X570798Y310891D01*
X569673Y309766D01*
X569064Y308296D01*
Y306704D01*
X569673Y305234D01*
X570169Y304739D01*
X570232Y303428D01*
X570046Y303202D01*
X569109Y302266D01*
X568500Y300796D01*
Y299204D01*
X569109Y297734D01*
X570234Y296609D01*
X571704Y296000D01*
X573296D01*
X574766Y296609D01*
X575891Y297734D01*
X576500Y299204D01*
Y300796D01*
X575891Y302266D01*
X575395Y302761D01*
X575332Y304072D01*
X575518Y304298D01*
X576455Y305234D01*
X577064Y306704D01*
Y308296D01*
X576455Y309766D01*
X575330Y310891D01*
X573860Y311500D01*
D02*
G37*
G36*
X48920Y296166D02*
X46480D01*
X44123Y295534D01*
X42010Y294315D01*
X40285Y292589D01*
X39065Y290476D01*
X38434Y288120D01*
Y285680D01*
X39065Y283323D01*
X40285Y281210D01*
X42010Y279485D01*
X44123Y278265D01*
X46480Y277634D01*
X48920D01*
X51276Y278265D01*
X53389Y279485D01*
X55115Y281210D01*
X56335Y283323D01*
X56966Y285680D01*
Y288120D01*
X56335Y290476D01*
X55115Y292589D01*
X53389Y294315D01*
X51276Y295534D01*
X48920Y296166D01*
D02*
G37*
G36*
X23520D02*
X21080D01*
X18723Y295534D01*
X16610Y294315D01*
X14885Y292589D01*
X13665Y290476D01*
X13034Y288120D01*
Y285680D01*
X13665Y283323D01*
X14885Y281210D01*
X16610Y279485D01*
X18723Y278265D01*
X21080Y277634D01*
X23520D01*
X25877Y278265D01*
X27989Y279485D01*
X29715Y281210D01*
X30935Y283323D01*
X31566Y285680D01*
Y288120D01*
X30935Y290476D01*
X29715Y292589D01*
X27989Y294315D01*
X25877Y295534D01*
X23520Y296166D01*
D02*
G37*
G36*
X48920Y270766D02*
X46480D01*
X44123Y270135D01*
X42010Y268915D01*
X40285Y267189D01*
X39065Y265077D01*
X38434Y262720D01*
Y260280D01*
X39065Y257923D01*
X40285Y255811D01*
X42010Y254085D01*
X44123Y252866D01*
X46480Y252234D01*
X48920D01*
X51276Y252866D01*
X53389Y254085D01*
X55115Y255811D01*
X56335Y257923D01*
X56966Y260280D01*
Y262720D01*
X56335Y265077D01*
X55115Y267189D01*
X53389Y268915D01*
X51276Y270135D01*
X48920Y270766D01*
D02*
G37*
G36*
X23520D02*
X21080D01*
X18723Y270135D01*
X16610Y268915D01*
X14885Y267189D01*
X13665Y265077D01*
X13034Y262720D01*
Y260280D01*
X13665Y257923D01*
X14885Y255811D01*
X16610Y254085D01*
X18723Y252866D01*
X21080Y252234D01*
X23520D01*
X25877Y252866D01*
X27989Y254085D01*
X29715Y255811D01*
X30935Y257923D01*
X31566Y260280D01*
Y262720D01*
X30935Y265077D01*
X29715Y267189D01*
X27989Y268915D01*
X25877Y270135D01*
X23520Y270766D01*
D02*
G37*
G36*
X1190796Y255250D02*
X1189204D01*
X1187734Y254641D01*
X1186609Y253516D01*
X1186000Y252046D01*
Y250454D01*
X1186609Y248984D01*
X1187734Y247859D01*
X1189204Y247250D01*
X1190796D01*
X1192266Y247859D01*
X1193391Y248984D01*
X1194000Y250454D01*
Y252046D01*
X1193391Y253516D01*
X1192266Y254641D01*
X1190796Y255250D01*
D02*
G37*
G36*
X830796Y256500D02*
X829204D01*
X827734Y255891D01*
X826609Y254766D01*
X826000Y253296D01*
Y251704D01*
X826609Y250234D01*
X827734Y249109D01*
X829204Y248500D01*
X830796D01*
X831006Y248587D01*
X861047Y218547D01*
X861713Y218101D01*
X862500Y217945D01*
X862500Y217945D01*
X1008900D01*
X1008900Y217945D01*
X1009687Y218101D01*
X1010353Y218547D01*
X1029394Y237587D01*
X1029604Y237500D01*
X1031196D01*
X1032666Y238109D01*
X1033791Y239234D01*
X1034400Y240704D01*
Y242296D01*
X1033791Y243766D01*
X1032666Y244891D01*
X1031196Y245500D01*
X1029604D01*
X1028134Y244891D01*
X1027009Y243766D01*
X1026400Y242296D01*
Y240704D01*
X1026487Y240494D01*
X1008048Y222055D01*
X863351D01*
X833913Y251494D01*
X834000Y251704D01*
Y253296D01*
X833391Y254766D01*
X832266Y255891D01*
X830796Y256500D01*
D02*
G37*
G36*
X48920Y245366D02*
X46480D01*
X44123Y244734D01*
X42010Y243515D01*
X40285Y241789D01*
X39065Y239676D01*
X38434Y237320D01*
Y234880D01*
X39065Y232523D01*
X40285Y230410D01*
X42010Y228685D01*
X44123Y227465D01*
X46480Y226834D01*
X48920D01*
X51276Y227465D01*
X53389Y228685D01*
X55115Y230410D01*
X56335Y232523D01*
X56966Y234880D01*
Y237320D01*
X56335Y239676D01*
X55115Y241789D01*
X53389Y243515D01*
X51276Y244734D01*
X48920Y245366D01*
D02*
G37*
G36*
Y219966D02*
X46480D01*
X44123Y219335D01*
X42010Y218115D01*
X40285Y216389D01*
X39065Y214277D01*
X38434Y211920D01*
Y209480D01*
X39065Y207123D01*
X40285Y205011D01*
X42010Y203285D01*
X44123Y202066D01*
X46480Y201434D01*
X48920D01*
X51276Y202066D01*
X53389Y203285D01*
X55115Y205011D01*
X56335Y207123D01*
X56966Y209480D01*
Y211920D01*
X56335Y214277D01*
X55115Y216389D01*
X53389Y218115D01*
X51276Y219335D01*
X48920Y219966D01*
D02*
G37*
G36*
X23520D02*
X21080D01*
X18723Y219335D01*
X16610Y218115D01*
X14885Y216389D01*
X13665Y214277D01*
X13034Y211920D01*
Y209480D01*
X13665Y207123D01*
X14885Y205011D01*
X16610Y203285D01*
X18723Y202066D01*
X21080Y201434D01*
X23520D01*
X25877Y202066D01*
X27989Y203285D01*
X29715Y205011D01*
X30935Y207123D01*
X31566Y209480D01*
Y211920D01*
X30935Y214277D01*
X29715Y216389D01*
X27989Y218115D01*
X25877Y219335D01*
X23520Y219966D01*
D02*
G37*
G36*
X1048296Y204000D02*
X1046704D01*
X1045234Y203391D01*
X1044109Y202266D01*
X1043500Y200796D01*
Y199204D01*
X1044109Y197734D01*
X1045234Y196609D01*
X1046704Y196000D01*
X1048296D01*
X1049766Y196609D01*
X1050891Y197734D01*
X1051500Y199204D01*
Y200796D01*
X1050891Y202266D01*
X1049766Y203391D01*
X1048296Y204000D01*
D02*
G37*
G36*
X990796Y199000D02*
X989204D01*
X987734Y198391D01*
X986609Y197266D01*
X986000Y195796D01*
Y194204D01*
X986609Y192734D01*
X987734Y191609D01*
X989204Y191000D01*
X990796D01*
X992266Y191609D01*
X993391Y192734D01*
X994000Y194204D01*
Y195796D01*
X993391Y197266D01*
X992266Y198391D01*
X990796Y199000D01*
D02*
G37*
G36*
X23520Y194566D02*
X21080D01*
X18723Y193934D01*
X16610Y192715D01*
X14885Y190989D01*
X13665Y188876D01*
X13034Y186520D01*
Y184080D01*
X13665Y181723D01*
X14885Y179611D01*
X16610Y177885D01*
X18723Y176665D01*
X21080Y176034D01*
X23520D01*
X25877Y176665D01*
X27989Y177885D01*
X29715Y179611D01*
X30935Y181723D01*
X31566Y184080D01*
Y186520D01*
X30935Y188876D01*
X29715Y190989D01*
X27989Y192715D01*
X25877Y193934D01*
X23520Y194566D01*
D02*
G37*
G36*
X87296Y184000D02*
X85704D01*
X84234Y183391D01*
X83109Y182266D01*
X82500Y180796D01*
Y179204D01*
X83109Y177734D01*
X84234Y176609D01*
X85704Y176000D01*
X87296D01*
X88766Y176609D01*
X89891Y177734D01*
X90500Y179204D01*
Y180796D01*
X89891Y182266D01*
X88766Y183391D01*
X87296Y184000D01*
D02*
G37*
G36*
X475796Y187750D02*
X474204D01*
X472734Y187141D01*
X471609Y186016D01*
X471000Y184546D01*
Y182954D01*
X471609Y181484D01*
X472270Y180823D01*
X472593Y180000D01*
X472270Y179177D01*
X471609Y178516D01*
X471000Y177046D01*
Y175454D01*
X471609Y173984D01*
X472734Y172859D01*
X474204Y172250D01*
X475796D01*
X477266Y172859D01*
X478391Y173984D01*
X479000Y175454D01*
Y177046D01*
X478391Y178516D01*
X477730Y179177D01*
X477407Y180000D01*
X477730Y180823D01*
X478391Y181484D01*
X479000Y182954D01*
Y184546D01*
X478391Y186016D01*
X477266Y187141D01*
X475796Y187750D01*
D02*
G37*
G36*
X87296Y169000D02*
X85704D01*
X84234Y168391D01*
X83109Y167266D01*
X82500Y165796D01*
Y164204D01*
X83109Y162734D01*
X84234Y161609D01*
X85704Y161000D01*
X87296D01*
X88766Y161609D01*
X89891Y162734D01*
X90500Y164204D01*
Y165796D01*
X89891Y167266D01*
X88766Y168391D01*
X87296Y169000D01*
D02*
G37*
G36*
X48920Y169166D02*
X46480D01*
X44123Y168535D01*
X42010Y167315D01*
X40285Y165589D01*
X39065Y163477D01*
X38434Y161120D01*
Y158680D01*
X39065Y156323D01*
X40285Y154211D01*
X42010Y152485D01*
X44123Y151265D01*
X46480Y150634D01*
X48920D01*
X51276Y151265D01*
X53389Y152485D01*
X55115Y154211D01*
X56335Y156323D01*
X56966Y158680D01*
Y161120D01*
X56335Y163477D01*
X55115Y165589D01*
X53389Y167315D01*
X51276Y168535D01*
X48920Y169166D01*
D02*
G37*
G36*
X23520D02*
X21080D01*
X18723Y168535D01*
X16610Y167315D01*
X14885Y165589D01*
X13665Y163477D01*
X13034Y161120D01*
Y158680D01*
X13665Y156323D01*
X14885Y154211D01*
X16610Y152485D01*
X18723Y151265D01*
X21080Y150634D01*
X23520D01*
X25877Y151265D01*
X27989Y152485D01*
X29715Y154211D01*
X30935Y156323D01*
X31566Y158680D01*
Y161120D01*
X30935Y163477D01*
X29715Y165589D01*
X27989Y167315D01*
X25877Y168535D01*
X23520Y169166D01*
D02*
G37*
G36*
X455796Y157750D02*
X454204D01*
X452734Y157141D01*
X451609Y156016D01*
X451000Y154546D01*
Y152954D01*
X451609Y151484D01*
X452270Y150823D01*
X452593Y150000D01*
X452270Y149177D01*
X451609Y148516D01*
X451000Y147046D01*
Y145454D01*
X451609Y143984D01*
X452734Y142859D01*
X454204Y142250D01*
X455796D01*
X457266Y142859D01*
X458391Y143984D01*
X459000Y145454D01*
Y147046D01*
X458391Y148516D01*
X457730Y149177D01*
X457407Y150000D01*
X457730Y150823D01*
X458391Y151484D01*
X459000Y152954D01*
Y154546D01*
X458391Y156016D01*
X457266Y157141D01*
X455796Y157750D01*
D02*
G37*
G36*
X48920Y143766D02*
X46480D01*
X44123Y143134D01*
X42010Y141915D01*
X40285Y140189D01*
X39065Y138076D01*
X38434Y135720D01*
Y133280D01*
X39065Y130923D01*
X40285Y128811D01*
X42010Y127085D01*
X44123Y125865D01*
X46480Y125234D01*
X48920D01*
X51276Y125865D01*
X53389Y127085D01*
X55115Y128811D01*
X56335Y130923D01*
X56966Y133280D01*
Y135720D01*
X56335Y138076D01*
X55115Y140189D01*
X53389Y141915D01*
X51276Y143134D01*
X48920Y143766D01*
D02*
G37*
G36*
X954546Y119000D02*
X952954D01*
X951484Y118391D01*
X950823Y117730D01*
X950000Y117407D01*
X949177Y117730D01*
X948516Y118391D01*
X947046Y119000D01*
X945454D01*
X943984Y118391D01*
X942859Y117266D01*
X942250Y115796D01*
Y114204D01*
X942859Y112734D01*
X943984Y111609D01*
X945454Y111000D01*
X947046D01*
X948516Y111609D01*
X949177Y112270D01*
X950000Y112593D01*
X950823Y112270D01*
X951484Y111609D01*
X952954Y111000D01*
X954546D01*
X956016Y111609D01*
X957141Y112734D01*
X957750Y114204D01*
Y115796D01*
X957141Y117266D01*
X956016Y118391D01*
X954546Y119000D01*
D02*
G37*
G36*
X774546D02*
X772954D01*
X771484Y118391D01*
X770823Y117730D01*
X770000Y117407D01*
X769177Y117730D01*
X768516Y118391D01*
X767046Y119000D01*
X765454D01*
X763984Y118391D01*
X762859Y117266D01*
X762250Y115796D01*
Y114204D01*
X762859Y112734D01*
X763984Y111609D01*
X765454Y111000D01*
X767046D01*
X768516Y111609D01*
X769177Y112270D01*
X770000Y112593D01*
X770823Y112270D01*
X771484Y111609D01*
X772954Y111000D01*
X774546D01*
X776016Y111609D01*
X777141Y112734D01*
X777750Y114204D01*
Y115796D01*
X777141Y117266D01*
X776016Y118391D01*
X774546Y119000D01*
D02*
G37*
G36*
X916247Y126770D02*
X913753D01*
X911448Y125815D01*
X909685Y124052D01*
X908730Y121747D01*
Y119253D01*
X909685Y116948D01*
X911448Y115185D01*
X913753Y114230D01*
X916247D01*
X918552Y115185D01*
X920315Y116948D01*
X921270Y119253D01*
Y121747D01*
X920315Y124052D01*
X918552Y125815D01*
X916247Y126770D01*
D02*
G37*
G36*
X736247D02*
X733753D01*
X731448Y125815D01*
X729685Y124052D01*
X728730Y121747D01*
Y119253D01*
X729685Y116948D01*
X731448Y115185D01*
X733753Y114230D01*
X736247D01*
X738552Y115185D01*
X740315Y116948D01*
X741270Y119253D01*
Y121747D01*
X740315Y124052D01*
X738552Y125815D01*
X736247Y126770D01*
D02*
G37*
G36*
X435796Y127750D02*
X434204D01*
X432734Y127141D01*
X431609Y126016D01*
X431000Y124546D01*
Y122954D01*
X431609Y121484D01*
X432270Y120823D01*
X432593Y120000D01*
X432270Y119177D01*
X431609Y118516D01*
X431000Y117046D01*
Y115454D01*
X431609Y113984D01*
X432734Y112859D01*
X434204Y112250D01*
X435796D01*
X437266Y112859D01*
X438391Y113984D01*
X439000Y115454D01*
Y117046D01*
X438391Y118516D01*
X437730Y119177D01*
X437407Y120000D01*
X437730Y120823D01*
X438391Y121484D01*
X439000Y122954D01*
Y124546D01*
X438391Y126016D01*
X437266Y127141D01*
X435796Y127750D01*
D02*
G37*
G36*
X670796Y104000D02*
X669204D01*
X667734Y103391D01*
X666609Y102266D01*
X666000Y100796D01*
Y99204D01*
X666609Y97734D01*
X667734Y96609D01*
X669204Y96000D01*
X670796D01*
X672266Y96609D01*
X673391Y97734D01*
X674000Y99204D01*
Y100796D01*
X673391Y102266D01*
X672266Y103391D01*
X670796Y104000D01*
D02*
G37*
G36*
X976119Y108000D02*
X973881D01*
X971719Y107421D01*
X969781Y106302D01*
X968198Y104719D01*
X967079Y102781D01*
X966500Y100619D01*
Y98381D01*
X967079Y96219D01*
X968198Y94281D01*
X969781Y92698D01*
X971719Y91579D01*
X973881Y91000D01*
X976119D01*
X978281Y91579D01*
X980219Y92698D01*
X981802Y94281D01*
X982921Y96219D01*
X983500Y98381D01*
Y100619D01*
X982921Y102781D01*
X981802Y104719D01*
X980219Y106302D01*
X978281Y107421D01*
X976119Y108000D01*
D02*
G37*
G36*
X926119D02*
X923881D01*
X921719Y107421D01*
X919781Y106302D01*
X918198Y104719D01*
X917079Y102781D01*
X916500Y100619D01*
Y98381D01*
X917079Y96219D01*
X918198Y94281D01*
X919781Y92698D01*
X921719Y91579D01*
X923881Y91000D01*
X926119D01*
X928281Y91579D01*
X930219Y92698D01*
X931802Y94281D01*
X932921Y96219D01*
X933500Y98381D01*
Y100619D01*
X932921Y102781D01*
X931802Y104719D01*
X930219Y106302D01*
X928281Y107421D01*
X926119Y108000D01*
D02*
G37*
G36*
X796119D02*
X793881D01*
X791719Y107421D01*
X789781Y106302D01*
X788198Y104719D01*
X787079Y102781D01*
X786500Y100619D01*
Y98381D01*
X787079Y96219D01*
X788198Y94281D01*
X789781Y92698D01*
X791719Y91579D01*
X793881Y91000D01*
X796119D01*
X798281Y91579D01*
X800219Y92698D01*
X801802Y94281D01*
X802921Y96219D01*
X803500Y98381D01*
Y100619D01*
X802921Y102781D01*
X801802Y104719D01*
X800219Y106302D01*
X798281Y107421D01*
X796119Y108000D01*
D02*
G37*
G36*
X746119D02*
X743881D01*
X741719Y107421D01*
X739781Y106302D01*
X738198Y104719D01*
X737079Y102781D01*
X736500Y100619D01*
Y98381D01*
X737079Y96219D01*
X738198Y94281D01*
X739781Y92698D01*
X741719Y91579D01*
X743881Y91000D01*
X746119D01*
X748281Y91579D01*
X750219Y92698D01*
X751802Y94281D01*
X752921Y96219D01*
X753500Y98381D01*
Y100619D01*
X752921Y102781D01*
X751802Y104719D01*
X750219Y106302D01*
X748281Y107421D01*
X746119Y108000D01*
D02*
G37*
G36*
X585796Y99000D02*
X584204D01*
X582734Y98391D01*
X581609Y97266D01*
X581000Y95796D01*
Y94204D01*
X581609Y92734D01*
X582734Y91609D01*
X584204Y91000D01*
X585796D01*
X587266Y91609D01*
X588391Y92734D01*
X589000Y94204D01*
Y95796D01*
X588391Y97266D01*
X587266Y98391D01*
X585796Y99000D01*
D02*
G37*
G36*
X633296Y79000D02*
X631704D01*
X630234Y78391D01*
X629109Y77266D01*
X628500Y75796D01*
Y74204D01*
X629109Y72734D01*
X630234Y71609D01*
X631704Y71000D01*
X633296D01*
X634766Y71609D01*
X635891Y72734D01*
X636500Y74204D01*
Y75796D01*
X635891Y77266D01*
X634766Y78391D01*
X633296Y79000D01*
D02*
G37*
G36*
X585796D02*
X584204D01*
X582734Y78391D01*
X581609Y77266D01*
X581000Y75796D01*
Y74204D01*
X581609Y72734D01*
X582734Y71609D01*
X584204Y71000D01*
X585796D01*
X587266Y71609D01*
X588391Y72734D01*
X589000Y74204D01*
Y75796D01*
X588391Y77266D01*
X587266Y78391D01*
X585796Y79000D01*
D02*
G37*
G36*
X633296Y69000D02*
X631704D01*
X630234Y68391D01*
X629109Y67266D01*
X628500Y65796D01*
Y64204D01*
X629109Y62734D01*
X630234Y61609D01*
X631704Y61000D01*
X633296D01*
X634766Y61609D01*
X635891Y62734D01*
X636500Y64204D01*
Y65796D01*
X635891Y67266D01*
X634766Y68391D01*
X633296Y69000D01*
D02*
G37*
G36*
X585796D02*
X584204D01*
X582734Y68391D01*
X581609Y67266D01*
X581000Y65796D01*
Y64204D01*
X581609Y62734D01*
X582734Y61609D01*
X584204Y61000D01*
X585796D01*
X587266Y61609D01*
X588391Y62734D01*
X589000Y64204D01*
Y65796D01*
X588391Y67266D01*
X587266Y68391D01*
X585796Y69000D01*
D02*
G37*
%LPD*%
D11*
X1140000Y402500D02*
X1155000D01*
X899484Y431984D02*
X1110516D01*
X1140000Y402500D01*
X830000Y460000D02*
X845000Y445000D01*
X877500Y435000D02*
X1013900D01*
X845000Y445000D02*
X867500D01*
X877500Y435000D01*
X560000Y670108D02*
Y701542D01*
X476542Y785000D02*
X560000Y701542D01*
X467500Y785000D02*
X476542D01*
X887500Y420000D02*
X899484Y431984D01*
X1013900Y435000D02*
X1030400Y451500D01*
X862500Y220000D02*
X1008900D01*
X830000Y252500D02*
X862500Y220000D01*
X1008900D02*
X1030400Y241500D01*
X559936Y670044D02*
X560000Y670108D01*
X35000Y580000D02*
X145000D01*
X150000Y575000D01*
D47*
X737500Y655250D02*
D03*
D48*
X762500D02*
D03*
D52*
X855000Y761000D02*
D03*
X1265000D02*
D03*
D53*
X920000Y796000D02*
D03*
X960000D02*
D03*
X1000000D02*
D03*
X1040000D02*
D03*
X1080000D02*
D03*
X1120000D02*
D03*
X1160000D02*
D03*
X1200000D02*
D03*
X940000Y756000D02*
D03*
X980000D02*
D03*
X1020000D02*
D03*
X1060000D02*
D03*
X1100000D02*
D03*
X1140000D02*
D03*
X1180000D02*
D03*
X920000Y716000D02*
D03*
X960000D02*
D03*
X1000000D02*
D03*
X1040000D02*
D03*
X1080000D02*
D03*
X1120000D02*
D03*
X1160000D02*
D03*
D54*
X1200000D02*
D03*
D56*
X997500Y655250D02*
D03*
X972500D02*
D03*
X947500D02*
D03*
X922500D02*
D03*
X897500D02*
D03*
X872500D02*
D03*
X847500D02*
D03*
X1227500D02*
D03*
X1202500D02*
D03*
X1177500D02*
D03*
X1152500D02*
D03*
X1127500D02*
D03*
X1102500D02*
D03*
X1077500D02*
D03*
X627500D02*
D03*
X652500D02*
D03*
X677500D02*
D03*
D57*
X822500D02*
D03*
X1052500D02*
D03*
X602500D02*
D03*
D65*
X890000Y397500D02*
X913500D01*
X922000Y406000D01*
X882500Y405000D02*
X890000Y397500D01*
X649786Y405000D02*
X882500D01*
X649786Y260000D02*
Y405000D01*
D68*
X942429Y419714D02*
X942714Y420000D01*
X935714Y419714D02*
X942429D01*
X922000Y406000D02*
X935714Y419714D01*
X1021000Y427500D02*
X1028500Y420000D01*
X970000Y427500D02*
X1021000D01*
X948500Y406000D02*
X970000Y427500D01*
X862500Y346500D02*
X913500Y397500D01*
X862500Y337500D02*
Y346500D01*
X922000Y406000D02*
X948500D01*
X534750Y662500D02*
X565000D01*
X567500Y665000D01*
X517250Y680000D02*
X534750Y662500D01*
X567500Y665000D02*
Y670000D01*
X517250Y680000D02*
Y701750D01*
X500000Y719000D02*
X517250Y701750D01*
D72*
X827500Y620000D02*
X965000D01*
X595000Y680000D02*
X767500D01*
X827500Y620000D01*
X965000D02*
X975000D01*
X990000D01*
X422000Y805000D02*
X470000D01*
X595000Y680000D01*
D73*
X975000Y99500D02*
D03*
X925000D02*
D03*
X795000D02*
D03*
X745000D02*
D03*
D74*
X886000Y104500D02*
D03*
X1014000D02*
D03*
X706000D02*
D03*
X834000D02*
D03*
D75*
X1327000Y637500D02*
D03*
X1293000D02*
D03*
Y502500D02*
D03*
X1327000D02*
D03*
D76*
X525000Y615000D02*
D03*
Y35000D02*
D03*
X35000D02*
D03*
Y615000D02*
D03*
X1335000Y30000D02*
D03*
D77*
X22300Y490100D02*
D03*
X47700D02*
D03*
X22300Y439300D02*
D03*
X47700D02*
D03*
X22300Y388500D02*
D03*
X47700D02*
D03*
X22300Y312300D02*
D03*
X47700D02*
D03*
X22300Y261500D02*
D03*
X47700D02*
D03*
X22300Y210700D02*
D03*
X47700D02*
D03*
X22300Y185300D02*
D03*
X47700D02*
D03*
X22300Y109100D02*
D03*
X47700D02*
D03*
X22300Y83700D02*
D03*
X47700Y134500D02*
D03*
X22300D02*
D03*
X47700Y159900D02*
D03*
X22300D02*
D03*
X47700Y236100D02*
D03*
X22300D02*
D03*
X47700Y286900D02*
D03*
X22300D02*
D03*
X47700Y337700D02*
D03*
X22300D02*
D03*
X47700Y363100D02*
D03*
X22300D02*
D03*
X47700Y413900D02*
D03*
X22300D02*
D03*
X47700Y464700D02*
D03*
X22300D02*
D03*
X47700Y515500D02*
D03*
Y540900D02*
D03*
Y566300D02*
D03*
X22300Y515500D02*
D03*
Y540900D02*
D03*
Y566300D02*
D03*
D78*
X47700Y83700D02*
D03*
D79*
X634600Y764600D02*
D03*
X685400D02*
D03*
Y815400D02*
D03*
X634600D02*
D03*
D80*
X660000Y790000D02*
D03*
D81*
X1265000Y355000D02*
D03*
Y345036D02*
D03*
Y335000D02*
D03*
X1321790Y351550D02*
D03*
X1265000Y415000D02*
D03*
Y439000D02*
D03*
Y425000D02*
D03*
X125500Y400000D02*
D03*
X122500Y570000D02*
D03*
X985000Y136500D02*
D03*
X805000D02*
D03*
X805000Y205000D02*
D03*
Y225000D02*
D03*
X772000Y229000D02*
D03*
X756000Y200000D02*
D03*
X700000Y230000D02*
D03*
X805000Y415000D02*
D03*
X755000D02*
D03*
X705000D02*
D03*
Y435000D02*
D03*
X755000D02*
D03*
X805000D02*
D03*
Y580000D02*
D03*
Y600000D02*
D03*
X755000D02*
D03*
Y580000D02*
D03*
X705000D02*
D03*
Y600000D02*
D03*
X477500Y685000D02*
D03*
X1140000Y465000D02*
D03*
X1090000D02*
D03*
Y215000D02*
D03*
X1140000D02*
D03*
Y235000D02*
D03*
X1090000D02*
D03*
X1140000Y370000D02*
D03*
X1090000D02*
D03*
Y390000D02*
D03*
X1140000D02*
D03*
X1090000Y425000D02*
D03*
X1140000D02*
D03*
X1090000Y445000D02*
D03*
X1140000D02*
D03*
X997500Y420000D02*
D03*
X965000Y407500D02*
D03*
X805000Y390000D02*
D03*
X755000D02*
D03*
X705000D02*
D03*
X862500Y432500D02*
D03*
X847500D02*
D03*
X862500Y457500D02*
D03*
X847500D02*
D03*
X482500Y422500D02*
D03*
Y430000D02*
D03*
Y415000D02*
D03*
Y437500D02*
D03*
X360000Y430000D02*
D03*
Y437500D02*
D03*
Y422500D02*
D03*
Y415000D02*
D03*
X862500Y337500D02*
D03*
X390000Y437500D02*
D03*
X420000D02*
D03*
X450000D02*
D03*
X390000Y630000D02*
D03*
X420000D02*
D03*
X450000D02*
D03*
X390000Y540000D02*
D03*
X420000D02*
D03*
X450000D02*
D03*
X390000Y290000D02*
D03*
X420000D02*
D03*
X450000D02*
D03*
X390000Y260000D02*
D03*
X420000D02*
D03*
X450000D02*
D03*
X390000Y230000D02*
D03*
X420000D02*
D03*
X450000D02*
D03*
Y200000D02*
D03*
X420000D02*
D03*
X390000D02*
D03*
X352500Y770000D02*
D03*
X345000D02*
D03*
X305000D02*
D03*
X295000D02*
D03*
X1300000Y550000D02*
D03*
X1325000Y200000D02*
D03*
X1300000Y150000D02*
D03*
X1325000Y100000D02*
D03*
X1300000Y50000D02*
D03*
X1275000Y100000D02*
D03*
X1225000Y200000D02*
D03*
X1175000D02*
D03*
X1075000Y100000D02*
D03*
X1050000Y50000D02*
D03*
X1000000D02*
D03*
X900000D02*
D03*
X875000Y200000D02*
D03*
X850000Y50000D02*
D03*
X825000Y700000D02*
D03*
X800000Y50000D02*
D03*
X750000Y750000D02*
D03*
X725000Y800000D02*
D03*
X700000Y150000D02*
D03*
X650000Y550000D02*
D03*
X675000Y200000D02*
D03*
X600000Y750000D02*
D03*
Y550000D02*
D03*
X500000D02*
D03*
Y250000D02*
D03*
X450000Y50000D02*
D03*
X400000Y150000D02*
D03*
Y50000D02*
D03*
X375000Y600000D02*
D03*
X350000Y250000D02*
D03*
Y150000D02*
D03*
X375000Y100000D02*
D03*
X350000Y50000D02*
D03*
X300000Y650000D02*
D03*
X325000Y600000D02*
D03*
X300000Y550000D02*
D03*
Y250000D02*
D03*
X325000Y200000D02*
D03*
X300000Y150000D02*
D03*
X325000Y100000D02*
D03*
X300000Y50000D02*
D03*
X275000Y600000D02*
D03*
X250000Y550000D02*
D03*
Y250000D02*
D03*
X275000Y200000D02*
D03*
X250000Y150000D02*
D03*
X275000Y100000D02*
D03*
X250000Y50000D02*
D03*
X225000Y600000D02*
D03*
X200000Y550000D02*
D03*
X225000Y500000D02*
D03*
X200000Y450000D02*
D03*
X225000Y400000D02*
D03*
X200000Y250000D02*
D03*
X225000Y200000D02*
D03*
X200000Y150000D02*
D03*
X225000Y100000D02*
D03*
X200000Y50000D02*
D03*
X150000Y450000D02*
D03*
X175000Y400000D02*
D03*
Y200000D02*
D03*
Y100000D02*
D03*
X150000Y50000D02*
D03*
X125000Y800000D02*
D03*
X100000Y650000D02*
D03*
X125000Y500000D02*
D03*
X100000Y450000D02*
D03*
X75000Y800000D02*
D03*
X50000Y750000D02*
D03*
X75000Y700000D02*
D03*
X50000Y650000D02*
D03*
X75000Y500000D02*
D03*
Y400000D02*
D03*
X965000Y625000D02*
D03*
X975000D02*
D03*
X965000Y615000D02*
D03*
X975000D02*
D03*
X455000Y785000D02*
D03*
X670000Y100000D02*
D03*
X632500Y65000D02*
D03*
Y75000D02*
D03*
X946250Y115000D02*
D03*
X953750D02*
D03*
X961000D02*
D03*
X939000D02*
D03*
X759000D02*
D03*
X781000D02*
D03*
X773750D02*
D03*
X766250D02*
D03*
X982500Y230000D02*
D03*
X1190000Y251250D02*
D03*
X1028500Y420000D02*
D03*
X1265000Y395000D02*
D03*
X1270000Y400000D02*
D03*
X1155000Y402500D02*
D03*
Y410000D02*
D03*
X830000Y460000D02*
D03*
Y252500D02*
D03*
X1047500Y200000D02*
D03*
X1275000Y407500D02*
D03*
X1255000Y315000D02*
D03*
Y345000D02*
D03*
X1265000Y405000D02*
D03*
X1165000Y415000D02*
D03*
X1235000Y415000D02*
D03*
X900000Y407500D02*
D03*
X887500Y420000D02*
D03*
X922000Y406000D02*
D03*
X917714Y420000D02*
D03*
X559936Y670044D02*
D03*
X573064Y307500D02*
D03*
X572500Y390000D02*
D03*
Y382500D02*
D03*
Y300000D02*
D03*
X155000Y520000D02*
D03*
X150000Y512500D02*
D03*
Y542500D02*
D03*
X155000Y535000D02*
D03*
X150000Y527500D02*
D03*
X590000Y470000D02*
D03*
X337500Y707500D02*
D03*
X649786Y260000D02*
D03*
Y405000D02*
D03*
X500000Y747500D02*
D03*
X397500Y732500D02*
D03*
Y740000D02*
D03*
X390000D02*
D03*
X422500Y707500D02*
D03*
X1321790Y313450D02*
D03*
X585000Y95000D02*
D03*
X567500Y670000D02*
D03*
X467500Y785000D02*
D03*
X585000Y75000D02*
D03*
X535000Y680000D02*
D03*
Y705000D02*
D03*
X585000Y65000D02*
D03*
X435000Y131250D02*
D03*
X475000Y191250D02*
D03*
X921210Y347300D02*
D03*
Y321900D02*
D03*
X86500Y165000D02*
D03*
Y180000D02*
D03*
X975000Y285000D02*
D03*
X985000D02*
D03*
X975000Y275000D02*
D03*
Y265000D02*
D03*
X985000Y275000D02*
D03*
Y265000D02*
D03*
X977500Y255000D02*
D03*
X990000Y195000D02*
D03*
X945000Y360000D02*
D03*
X921210Y334600D02*
D03*
Y385400D02*
D03*
Y360000D02*
D03*
Y372700D02*
D03*
X952286Y420000D02*
D03*
X1255000Y439000D02*
D03*
X1165000D02*
D03*
X1195000D02*
D03*
X1185000D02*
D03*
X1175000D02*
D03*
X1225000D02*
D03*
X1215000D02*
D03*
X1205000D02*
D03*
X1245000D02*
D03*
X1235000D02*
D03*
X1255000Y425000D02*
D03*
X1245000D02*
D03*
X1235000D02*
D03*
X1225000D02*
D03*
X1215000D02*
D03*
X1205000D02*
D03*
X1195000D02*
D03*
X1185000D02*
D03*
X1175000D02*
D03*
X1165000D02*
D03*
X942714Y420000D02*
D03*
X1015000Y615000D02*
D03*
X1005000D02*
D03*
X995000D02*
D03*
X985000D02*
D03*
X1015000Y625000D02*
D03*
X1005000D02*
D03*
X995000D02*
D03*
X985000D02*
D03*
X1065000Y635000D02*
D03*
X1055000D02*
D03*
X1045000D02*
D03*
X1035000D02*
D03*
X1025000D02*
D03*
X1075000D02*
D03*
X1085000D02*
D03*
Y625000D02*
D03*
X1075000D02*
D03*
X1025000D02*
D03*
X1035000D02*
D03*
X1045000D02*
D03*
X1055000D02*
D03*
X1065000D02*
D03*
X1085000Y615000D02*
D03*
X1075000D02*
D03*
X1025000D02*
D03*
X1035000D02*
D03*
X1045000D02*
D03*
X1055000D02*
D03*
X1065000D02*
D03*
X1135000Y635000D02*
D03*
X1125000D02*
D03*
X1115000D02*
D03*
X1105000D02*
D03*
X1095000D02*
D03*
X1145000D02*
D03*
X1155000D02*
D03*
Y625000D02*
D03*
X1145000D02*
D03*
X1095000D02*
D03*
X1105000D02*
D03*
X1115000D02*
D03*
X1125000D02*
D03*
X1135000D02*
D03*
X1155000Y615000D02*
D03*
X1145000D02*
D03*
X1095000D02*
D03*
X1105000D02*
D03*
X1115000D02*
D03*
X1125000D02*
D03*
X1135000D02*
D03*
Y475000D02*
D03*
X1125000D02*
D03*
X1115000D02*
D03*
X1105000D02*
D03*
X1095000D02*
D03*
X1145000D02*
D03*
X1155000D02*
D03*
X1135000Y485000D02*
D03*
X1125000D02*
D03*
X1115000D02*
D03*
X1105000D02*
D03*
X1095000D02*
D03*
X1145000D02*
D03*
X1155000D02*
D03*
X1135000Y495000D02*
D03*
X1125000D02*
D03*
X1115000D02*
D03*
X1105000D02*
D03*
X1095000D02*
D03*
X1145000D02*
D03*
X1155000D02*
D03*
Y535000D02*
D03*
X1145000D02*
D03*
X1095000D02*
D03*
X1105000D02*
D03*
X1115000D02*
D03*
X1125000D02*
D03*
X1135000D02*
D03*
X1155000Y525000D02*
D03*
X1145000D02*
D03*
X1095000D02*
D03*
X1105000D02*
D03*
X1115000D02*
D03*
X1125000D02*
D03*
X1135000D02*
D03*
X1155000Y515000D02*
D03*
X1145000D02*
D03*
X1095000D02*
D03*
X1105000D02*
D03*
X1115000D02*
D03*
X1125000D02*
D03*
X1135000D02*
D03*
X1155000Y505000D02*
D03*
X1145000D02*
D03*
X1095000D02*
D03*
X1105000D02*
D03*
X1115000D02*
D03*
X1125000D02*
D03*
X1135000D02*
D03*
X1085000D02*
D03*
X1075000D02*
D03*
X1065000D02*
D03*
X1085000Y515000D02*
D03*
X1075000D02*
D03*
X1065000D02*
D03*
X1085000Y525000D02*
D03*
X1075000D02*
D03*
X1065000D02*
D03*
X1085000Y535000D02*
D03*
X1075000D02*
D03*
X1065000D02*
D03*
Y495000D02*
D03*
X1075000D02*
D03*
X1085000D02*
D03*
X1065000Y485000D02*
D03*
X1075000D02*
D03*
X1085000D02*
D03*
X1065000Y475000D02*
D03*
X1075000D02*
D03*
X1085000D02*
D03*
X1065000Y545000D02*
D03*
X1075000D02*
D03*
X1085000D02*
D03*
X1135000D02*
D03*
X1125000D02*
D03*
X1115000D02*
D03*
X1105000D02*
D03*
X1095000D02*
D03*
X1145000D02*
D03*
X1155000D02*
D03*
X1015000Y475000D02*
D03*
X1005000D02*
D03*
X995000D02*
D03*
X1015000Y485000D02*
D03*
X1005000D02*
D03*
X995000D02*
D03*
X1015000Y495000D02*
D03*
X1005000D02*
D03*
X995000D02*
D03*
X1025000D02*
D03*
X1035000D02*
D03*
X1045000D02*
D03*
X1055000D02*
D03*
X1025000Y485000D02*
D03*
X1035000D02*
D03*
X1045000D02*
D03*
X1055000D02*
D03*
X1025000Y475000D02*
D03*
X1035000D02*
D03*
X1045000D02*
D03*
X1055000D02*
D03*
X975000Y495000D02*
D03*
X985000D02*
D03*
X975000Y485000D02*
D03*
X985000D02*
D03*
X975000Y475000D02*
D03*
X985000D02*
D03*
X982500Y440000D02*
D03*
X977500Y445000D02*
D03*
X982500Y450000D02*
D03*
X977500Y455000D02*
D03*
X982500Y460000D02*
D03*
X977500Y465000D02*
D03*
X982500Y250000D02*
D03*
X977500Y245000D02*
D03*
X982500Y240000D02*
D03*
X977500Y235000D02*
D03*
X1055000Y265000D02*
D03*
X1045000D02*
D03*
X1035000D02*
D03*
X1025000D02*
D03*
X1055000Y275000D02*
D03*
X1045000D02*
D03*
X1035000D02*
D03*
X1025000D02*
D03*
X1055000Y285000D02*
D03*
X1045000D02*
D03*
X1035000D02*
D03*
X1025000D02*
D03*
X995000D02*
D03*
X1005000D02*
D03*
X1015000D02*
D03*
X995000Y275000D02*
D03*
X1005000D02*
D03*
X1015000D02*
D03*
X995000Y265000D02*
D03*
X1005000D02*
D03*
X1015000D02*
D03*
X1155000Y335000D02*
D03*
X1145000D02*
D03*
X1095000D02*
D03*
X1105000D02*
D03*
X1115000D02*
D03*
X1125000D02*
D03*
X1135000D02*
D03*
X1085000D02*
D03*
X1075000D02*
D03*
X1065000D02*
D03*
X1085000Y265000D02*
D03*
X1075000D02*
D03*
X1065000D02*
D03*
X1085000Y275000D02*
D03*
X1075000D02*
D03*
X1065000D02*
D03*
X1085000Y285000D02*
D03*
X1075000D02*
D03*
X1065000D02*
D03*
Y325000D02*
D03*
X1075000D02*
D03*
X1085000D02*
D03*
X1065000Y315000D02*
D03*
X1075000D02*
D03*
X1085000D02*
D03*
X1065000Y305000D02*
D03*
X1075000D02*
D03*
X1085000D02*
D03*
X1065000Y295000D02*
D03*
X1075000D02*
D03*
X1085000D02*
D03*
X1135000D02*
D03*
X1125000D02*
D03*
X1115000D02*
D03*
X1105000D02*
D03*
X1095000D02*
D03*
X1145000D02*
D03*
X1155000D02*
D03*
X1135000Y305000D02*
D03*
X1125000D02*
D03*
X1115000D02*
D03*
X1105000D02*
D03*
X1095000D02*
D03*
X1145000D02*
D03*
X1155000D02*
D03*
X1135000Y315000D02*
D03*
X1125000D02*
D03*
X1115000D02*
D03*
X1105000D02*
D03*
X1095000D02*
D03*
X1145000D02*
D03*
X1155000D02*
D03*
X1135000Y325000D02*
D03*
X1125000D02*
D03*
X1115000D02*
D03*
X1105000D02*
D03*
X1095000D02*
D03*
X1145000D02*
D03*
X1155000D02*
D03*
Y285000D02*
D03*
X1145000D02*
D03*
X1095000D02*
D03*
X1105000D02*
D03*
X1115000D02*
D03*
X1125000D02*
D03*
X1135000D02*
D03*
X1155000Y275000D02*
D03*
X1145000D02*
D03*
X1095000D02*
D03*
X1105000D02*
D03*
X1115000D02*
D03*
X1125000D02*
D03*
X1135000D02*
D03*
X1155000Y265000D02*
D03*
X1145000D02*
D03*
X1095000D02*
D03*
X1105000D02*
D03*
X1115000D02*
D03*
X1125000D02*
D03*
X1135000D02*
D03*
X1275000Y295000D02*
D03*
X1285000D02*
D03*
X1295000D02*
D03*
X1305000D02*
D03*
X1275000Y305000D02*
D03*
X1285000D02*
D03*
X1295000D02*
D03*
X1305000D02*
D03*
X1275000Y315000D02*
D03*
X1285000D02*
D03*
X1295000D02*
D03*
X1305000D02*
D03*
X1275000Y325000D02*
D03*
X1285000D02*
D03*
X1295000D02*
D03*
X1305000D02*
D03*
Y285000D02*
D03*
X1295000D02*
D03*
X1285000D02*
D03*
X1275000D02*
D03*
X1305000Y275000D02*
D03*
X1295000D02*
D03*
X1285000D02*
D03*
X1275000D02*
D03*
X1305000Y265000D02*
D03*
X1295000D02*
D03*
X1285000D02*
D03*
X1275000D02*
D03*
X1265000Y295000D02*
D03*
Y305000D02*
D03*
Y315000D02*
D03*
Y325000D02*
D03*
Y285000D02*
D03*
Y275000D02*
D03*
Y265000D02*
D03*
Y635000D02*
D03*
Y625000D02*
D03*
Y615000D02*
D03*
Y605000D02*
D03*
Y595000D02*
D03*
Y585000D02*
D03*
Y575000D02*
D03*
Y505000D02*
D03*
Y515000D02*
D03*
Y525000D02*
D03*
Y535000D02*
D03*
Y545000D02*
D03*
Y555000D02*
D03*
Y565000D02*
D03*
Y445000D02*
D03*
Y455000D02*
D03*
Y465000D02*
D03*
Y475000D02*
D03*
Y485000D02*
D03*
Y495000D02*
D03*
Y365000D02*
D03*
Y375000D02*
D03*
Y385000D02*
D03*
Y645000D02*
D03*
Y655000D02*
D03*
Y665000D02*
D03*
X1195000D02*
D03*
X1235000D02*
D03*
X1215000D02*
D03*
X1245000D02*
D03*
X1255000D02*
D03*
Y655000D02*
D03*
X1245000D02*
D03*
X1215000D02*
D03*
X1195000Y645000D02*
D03*
X1215000D02*
D03*
X1235000D02*
D03*
X1245000D02*
D03*
X1255000D02*
D03*
X1205000Y265000D02*
D03*
X1195000D02*
D03*
X1185000D02*
D03*
X1175000D02*
D03*
X1165000D02*
D03*
X1215000D02*
D03*
X1225000D02*
D03*
X1235000D02*
D03*
X1245000D02*
D03*
X1255000D02*
D03*
X1205000Y275000D02*
D03*
X1195000D02*
D03*
X1185000D02*
D03*
X1175000D02*
D03*
X1165000D02*
D03*
X1215000D02*
D03*
X1225000D02*
D03*
X1235000D02*
D03*
X1245000D02*
D03*
X1255000D02*
D03*
X1205000Y285000D02*
D03*
X1195000D02*
D03*
X1185000D02*
D03*
X1175000D02*
D03*
X1165000D02*
D03*
X1215000D02*
D03*
X1225000D02*
D03*
X1235000D02*
D03*
X1245000D02*
D03*
X1255000D02*
D03*
X1205000Y355000D02*
D03*
X1195000D02*
D03*
X1185000D02*
D03*
X1175000D02*
D03*
X1165000D02*
D03*
X1215000D02*
D03*
X1225000D02*
D03*
X1235000D02*
D03*
X1245000D02*
D03*
X1255000D02*
D03*
X1245000Y345000D02*
D03*
X1235000D02*
D03*
X1225000D02*
D03*
X1215000D02*
D03*
X1165000D02*
D03*
X1175000D02*
D03*
X1185000D02*
D03*
X1195000D02*
D03*
X1205000D02*
D03*
X1255000Y335000D02*
D03*
X1245000D02*
D03*
X1235000D02*
D03*
X1225000D02*
D03*
X1215000D02*
D03*
X1165000D02*
D03*
X1175000D02*
D03*
X1185000D02*
D03*
X1195000D02*
D03*
X1205000D02*
D03*
X1255000Y325000D02*
D03*
X1245000D02*
D03*
X1235000D02*
D03*
X1225000D02*
D03*
X1215000D02*
D03*
X1165000D02*
D03*
X1175000D02*
D03*
X1185000D02*
D03*
X1195000D02*
D03*
X1205000D02*
D03*
X1245000Y315000D02*
D03*
X1235000D02*
D03*
X1225000D02*
D03*
X1215000D02*
D03*
X1165000D02*
D03*
X1175000D02*
D03*
X1185000D02*
D03*
X1195000D02*
D03*
X1205000D02*
D03*
X1255000Y305000D02*
D03*
X1245000D02*
D03*
X1235000D02*
D03*
X1225000D02*
D03*
X1215000D02*
D03*
X1165000D02*
D03*
X1175000D02*
D03*
X1185000D02*
D03*
X1195000D02*
D03*
X1205000D02*
D03*
X1255000Y295000D02*
D03*
X1245000D02*
D03*
X1235000D02*
D03*
X1225000D02*
D03*
X1215000D02*
D03*
X1165000D02*
D03*
X1175000D02*
D03*
X1185000D02*
D03*
X1195000D02*
D03*
X1205000D02*
D03*
X1255000Y415000D02*
D03*
X1245000D02*
D03*
X1225000D02*
D03*
X1215000D02*
D03*
X1175000D02*
D03*
X1185000D02*
D03*
X1195000D02*
D03*
X1205000D02*
D03*
X1255000Y405000D02*
D03*
X1245000D02*
D03*
X1235000D02*
D03*
X1225000D02*
D03*
X1215000D02*
D03*
X1165000D02*
D03*
X1175000D02*
D03*
X1185000D02*
D03*
X1195000D02*
D03*
X1205000D02*
D03*
X1255000Y395000D02*
D03*
X1245000D02*
D03*
X1235000D02*
D03*
X1225000D02*
D03*
X1215000D02*
D03*
X1165000D02*
D03*
X1175000D02*
D03*
X1185000D02*
D03*
X1195000D02*
D03*
X1205000D02*
D03*
X1255000Y385000D02*
D03*
X1245000D02*
D03*
X1235000D02*
D03*
X1225000D02*
D03*
X1215000D02*
D03*
X1165000D02*
D03*
X1175000D02*
D03*
X1185000D02*
D03*
X1195000D02*
D03*
X1205000D02*
D03*
X1255000Y375000D02*
D03*
X1245000D02*
D03*
X1235000D02*
D03*
X1225000D02*
D03*
X1215000D02*
D03*
X1165000D02*
D03*
X1175000D02*
D03*
X1185000D02*
D03*
X1195000D02*
D03*
X1205000D02*
D03*
X1255000Y365000D02*
D03*
X1245000D02*
D03*
X1235000D02*
D03*
X1225000D02*
D03*
X1215000D02*
D03*
X1165000D02*
D03*
X1175000D02*
D03*
X1185000D02*
D03*
X1195000D02*
D03*
X1205000D02*
D03*
Y495000D02*
D03*
X1195000D02*
D03*
X1185000D02*
D03*
X1175000D02*
D03*
X1165000D02*
D03*
X1215000D02*
D03*
X1225000D02*
D03*
X1235000D02*
D03*
X1245000D02*
D03*
X1255000D02*
D03*
Y485000D02*
D03*
X1245000D02*
D03*
X1235000D02*
D03*
X1225000D02*
D03*
X1215000D02*
D03*
X1165000D02*
D03*
X1175000D02*
D03*
X1185000D02*
D03*
X1195000D02*
D03*
X1205000D02*
D03*
X1255000Y475000D02*
D03*
X1245000D02*
D03*
X1235000D02*
D03*
X1225000D02*
D03*
X1215000D02*
D03*
X1165000D02*
D03*
X1175000D02*
D03*
X1185000D02*
D03*
X1195000D02*
D03*
X1205000D02*
D03*
X1255000Y465000D02*
D03*
X1245000D02*
D03*
X1235000D02*
D03*
X1225000D02*
D03*
X1215000D02*
D03*
X1165000D02*
D03*
X1175000D02*
D03*
X1185000D02*
D03*
X1195000D02*
D03*
X1205000D02*
D03*
X1255000Y455000D02*
D03*
X1245000D02*
D03*
X1235000D02*
D03*
X1225000D02*
D03*
X1215000D02*
D03*
X1165000D02*
D03*
X1175000D02*
D03*
X1185000D02*
D03*
X1195000D02*
D03*
X1205000D02*
D03*
X1255000Y445000D02*
D03*
X1245000D02*
D03*
X1235000D02*
D03*
X1225000D02*
D03*
X1215000D02*
D03*
X1165000D02*
D03*
X1175000D02*
D03*
X1185000D02*
D03*
X1195000D02*
D03*
X1205000D02*
D03*
Y565000D02*
D03*
X1195000D02*
D03*
X1185000D02*
D03*
X1175000D02*
D03*
X1165000D02*
D03*
X1215000D02*
D03*
X1225000D02*
D03*
X1235000D02*
D03*
X1245000D02*
D03*
X1255000D02*
D03*
Y555000D02*
D03*
X1245000D02*
D03*
X1235000D02*
D03*
X1225000D02*
D03*
X1215000D02*
D03*
X1165000D02*
D03*
X1175000D02*
D03*
X1185000D02*
D03*
X1195000D02*
D03*
X1205000D02*
D03*
X1255000Y545000D02*
D03*
X1245000D02*
D03*
X1235000D02*
D03*
X1225000D02*
D03*
X1215000D02*
D03*
X1165000D02*
D03*
X1175000D02*
D03*
X1185000D02*
D03*
X1195000D02*
D03*
X1205000D02*
D03*
X1255000Y535000D02*
D03*
X1245000D02*
D03*
X1235000D02*
D03*
X1225000D02*
D03*
X1215000D02*
D03*
X1165000D02*
D03*
X1175000D02*
D03*
X1185000D02*
D03*
X1195000D02*
D03*
X1205000D02*
D03*
X1255000Y525000D02*
D03*
X1245000D02*
D03*
X1235000D02*
D03*
X1225000D02*
D03*
X1215000D02*
D03*
X1165000D02*
D03*
X1175000D02*
D03*
X1185000D02*
D03*
X1195000D02*
D03*
X1205000D02*
D03*
X1255000Y515000D02*
D03*
X1245000D02*
D03*
X1235000D02*
D03*
X1225000D02*
D03*
X1215000D02*
D03*
X1165000D02*
D03*
X1175000D02*
D03*
X1185000D02*
D03*
X1195000D02*
D03*
X1205000D02*
D03*
X1255000Y505000D02*
D03*
X1245000D02*
D03*
X1235000D02*
D03*
X1225000D02*
D03*
X1215000D02*
D03*
X1165000D02*
D03*
X1175000D02*
D03*
X1185000D02*
D03*
X1195000D02*
D03*
X1205000D02*
D03*
Y575000D02*
D03*
X1195000D02*
D03*
X1185000D02*
D03*
X1175000D02*
D03*
X1165000D02*
D03*
X1215000D02*
D03*
X1225000D02*
D03*
X1235000D02*
D03*
X1245000D02*
D03*
X1255000D02*
D03*
X1205000Y585000D02*
D03*
X1195000D02*
D03*
X1185000D02*
D03*
X1175000D02*
D03*
X1165000D02*
D03*
X1215000D02*
D03*
X1225000D02*
D03*
X1235000D02*
D03*
X1245000D02*
D03*
X1255000D02*
D03*
X1205000Y595000D02*
D03*
X1195000D02*
D03*
X1185000D02*
D03*
X1175000D02*
D03*
X1165000D02*
D03*
X1215000D02*
D03*
X1225000D02*
D03*
X1235000D02*
D03*
X1245000D02*
D03*
X1255000D02*
D03*
X1205000Y605000D02*
D03*
X1195000D02*
D03*
X1185000D02*
D03*
X1175000D02*
D03*
X1165000D02*
D03*
X1215000D02*
D03*
X1225000D02*
D03*
X1235000D02*
D03*
X1245000D02*
D03*
X1255000D02*
D03*
X1205000Y615000D02*
D03*
X1195000D02*
D03*
X1185000D02*
D03*
X1175000D02*
D03*
X1165000D02*
D03*
X1215000D02*
D03*
X1225000D02*
D03*
X1235000D02*
D03*
X1245000D02*
D03*
X1255000D02*
D03*
X1205000Y625000D02*
D03*
X1195000D02*
D03*
X1185000D02*
D03*
X1175000D02*
D03*
X1165000D02*
D03*
X1215000D02*
D03*
X1225000D02*
D03*
X1235000D02*
D03*
X1245000D02*
D03*
X1255000D02*
D03*
Y635000D02*
D03*
X1245000D02*
D03*
X1235000D02*
D03*
X1225000D02*
D03*
X1215000D02*
D03*
X1165000D02*
D03*
X1175000D02*
D03*
X1185000D02*
D03*
X1195000D02*
D03*
X1205000D02*
D03*
X597500Y470000D02*
D03*
X605000D02*
D03*
X612500D02*
D03*
X620000D02*
D03*
X612500Y485000D02*
D03*
X620000D02*
D03*
X612500Y492500D02*
D03*
X620000D02*
D03*
Y500000D02*
D03*
X612500D02*
D03*
X620000Y477500D02*
D03*
X612500D02*
D03*
X590000Y485000D02*
D03*
X597500D02*
D03*
X605000D02*
D03*
X590000Y492500D02*
D03*
X597500D02*
D03*
X605000D02*
D03*
Y500000D02*
D03*
X597500D02*
D03*
X590000D02*
D03*
X605000Y477500D02*
D03*
X597500D02*
D03*
X590000D02*
D03*
X102500Y80000D02*
D03*
X110000D02*
D03*
X117500D02*
D03*
X125000D02*
D03*
X132500D02*
D03*
X102500Y87500D02*
D03*
X110000D02*
D03*
X117500D02*
D03*
X125000D02*
D03*
X132500D02*
D03*
X102500Y95000D02*
D03*
X110000D02*
D03*
X117500D02*
D03*
X125000D02*
D03*
X132500D02*
D03*
X102500Y102500D02*
D03*
X110000D02*
D03*
X117500D02*
D03*
X125000D02*
D03*
X132500D02*
D03*
Y110000D02*
D03*
X125000D02*
D03*
X117500D02*
D03*
X110000D02*
D03*
X102500D02*
D03*
X1030400Y451500D02*
D03*
X150000Y575000D02*
D03*
X475000Y183750D02*
D03*
X455000Y161250D02*
D03*
Y138750D02*
D03*
X435000Y108750D02*
D03*
Y116250D02*
D03*
Y123750D02*
D03*
X455000Y146250D02*
D03*
Y153750D02*
D03*
X475000Y168750D02*
D03*
Y176250D02*
D03*
X35000Y580000D02*
D03*
X1350000Y407500D02*
D03*
X1332500D02*
D03*
X502500Y697500D02*
D03*
X500000Y719000D02*
D03*
X550000Y692300D02*
D03*
X466500Y718500D02*
D03*
Y729500D02*
D03*
Y740500D02*
D03*
Y751500D02*
D03*
X455500Y718500D02*
D03*
Y729500D02*
D03*
Y740500D02*
D03*
Y751500D02*
D03*
X444500Y718500D02*
D03*
Y729500D02*
D03*
Y740500D02*
D03*
Y751500D02*
D03*
X433500Y718500D02*
D03*
Y729500D02*
D03*
Y740500D02*
D03*
Y751500D02*
D03*
X447500Y785000D02*
D03*
X400000Y762500D02*
D03*
Y770000D02*
D03*
X500139Y739861D02*
D03*
X1030400Y241500D02*
D03*
D82*
X422000Y805000D02*
D03*
X365000Y791742D02*
D03*
X267500Y770000D02*
D03*
X130000Y675500D02*
D03*
X215000Y675500D02*
D03*
X655000Y588000D02*
D03*
X915000Y120500D02*
D03*
X735000D02*
D03*
M02*
