G04*
G04 #@! TF.GenerationSoftware,Altium Limited,Altium Designer,25.6.2 (33)*
G04*
G04 Layer_Physical_Order=1*
G04 Layer_Color=255*
%FSLAX44Y44*%
%MOMM*%
G71*
G04*
G04 #@! TF.SameCoordinates,8C2F84DF-90BC-4741-85DC-F4CD892757E3*
G04*
G04*
G04 #@! TF.FilePolarity,Positive*
G04*
G01*
G75*
%ADD10C,0.2500*%
%ADD12C,0.2000*%
%ADD16R,5.3000X2.0000*%
G04:AMPARAMS|DCode=17|XSize=0.95mm|YSize=0.8mm|CornerRadius=0.1mm|HoleSize=0mm|Usage=FLASHONLY|Rotation=270.000|XOffset=0mm|YOffset=0mm|HoleType=Round|Shape=RoundedRectangle|*
%AMROUNDEDRECTD17*
21,1,0.9500,0.6000,0,0,270.0*
21,1,0.7500,0.8000,0,0,270.0*
1,1,0.2000,-0.3000,-0.3750*
1,1,0.2000,-0.3000,0.3750*
1,1,0.2000,0.3000,0.3750*
1,1,0.2000,0.3000,-0.3750*
%
%ADD17ROUNDEDRECTD17*%
%ADD18R,0.6725X0.7154*%
%ADD19R,1.2000X1.4000*%
G04:AMPARAMS|DCode=20|XSize=0.95mm|YSize=0.8mm|CornerRadius=0.1mm|HoleSize=0mm|Usage=FLASHONLY|Rotation=0.000|XOffset=0mm|YOffset=0mm|HoleType=Round|Shape=RoundedRectangle|*
%AMROUNDEDRECTD20*
21,1,0.9500,0.6000,0,0,0.0*
21,1,0.7500,0.8000,0,0,0.0*
1,1,0.2000,0.3750,-0.3000*
1,1,0.2000,-0.3750,-0.3000*
1,1,0.2000,-0.3750,0.3000*
1,1,0.2000,0.3750,0.3000*
%
%ADD20ROUNDEDRECTD20*%
%ADD21R,3.1000X3.1000*%
%ADD22O,0.2500X0.8500*%
%ADD23O,0.8500X0.2500*%
%ADD24R,0.6000X1.6500*%
%ADD25R,0.6000X1.8500*%
%ADD26R,0.8000X0.5000*%
G04:AMPARAMS|DCode=27|XSize=0.565mm|YSize=0.2mm|CornerRadius=0.05mm|HoleSize=0mm|Usage=FLASHONLY|Rotation=270.000|XOffset=0mm|YOffset=0mm|HoleType=Round|Shape=RoundedRectangle|*
%AMROUNDEDRECTD27*
21,1,0.5650,0.1000,0,0,270.0*
21,1,0.4650,0.2000,0,0,270.0*
1,1,0.1000,-0.0500,-0.2325*
1,1,0.1000,-0.0500,0.2325*
1,1,0.1000,0.0500,0.2325*
1,1,0.1000,0.0500,-0.2325*
%
%ADD27ROUNDEDRECTD27*%
%ADD28R,0.6400X1.0200*%
%ADD29R,0.6500X2.6500*%
%ADD30R,1.4562X1.2546*%
%ADD31R,1.3000X0.7000*%
%ADD32R,0.6000X1.2000*%
%ADD33R,1.0000X0.7000*%
%ADD34R,1.2500X2.0000*%
G04:AMPARAMS|DCode=41|XSize=0.565mm|YSize=0.4mm|CornerRadius=0.05mm|HoleSize=0mm|Usage=FLASHONLY|Rotation=270.000|XOffset=0mm|YOffset=0mm|HoleType=Round|Shape=RoundedRectangle|*
%AMROUNDEDRECTD41*
21,1,0.5650,0.3000,0,0,270.0*
21,1,0.4650,0.4000,0,0,270.0*
1,1,0.1000,-0.1500,-0.2325*
1,1,0.1000,-0.1500,0.2325*
1,1,0.1000,0.1500,0.2325*
1,1,0.1000,0.1500,-0.2325*
%
%ADD41ROUNDEDRECTD41*%
%ADD47C,0.2614*%
%ADD48C,0.1520*%
%ADD49C,0.5000*%
%ADD50C,0.7500*%
%ADD51C,0.3000*%
%ADD52C,0.1300*%
%ADD53C,2.5400*%
%ADD54C,1.9050*%
%ADD55C,0.5000*%
G36*
X400000Y417961D02*
X401833Y417961D01*
X405466Y417482D01*
X409007Y416534D01*
X412393Y415131D01*
X415568Y413298D01*
X418475Y411067D01*
X421067Y408475D01*
X423298Y405568D01*
X425131Y402393D01*
X426534Y399007D01*
X427482Y395467D01*
X427961Y391833D01*
X427961Y390000D01*
X427961Y30000D01*
Y28167D01*
X427482Y24533D01*
X426534Y20993D01*
X425131Y17607D01*
X423298Y14432D01*
X421067Y11525D01*
X418475Y8933D01*
X415568Y6701D01*
X412393Y4869D01*
X409007Y3466D01*
X405467Y2517D01*
X401833Y2039D01*
X400000Y2039D01*
X30000Y2039D01*
X28167D01*
X24533Y2517D01*
X20993Y3466D01*
X17607Y4869D01*
X14432Y6701D01*
X11525Y8933D01*
X8933Y11525D01*
X6701Y14432D01*
X4869Y17607D01*
X3466Y20993D01*
X2517Y24533D01*
X2039Y28167D01*
Y30000D01*
X2039Y390000D01*
Y391833D01*
X2517Y395467D01*
X3466Y399007D01*
X4869Y402393D01*
X6701Y405568D01*
X8933Y408475D01*
X11525Y411067D01*
X14432Y413298D01*
X17607Y415131D01*
X20993Y416534D01*
X24533Y417482D01*
X28167Y417961D01*
X30000Y417961D01*
X400000Y417961D01*
D02*
G37*
%LPC*%
G36*
X177206Y389116D02*
X175908D01*
Y375908D01*
X189116D01*
Y377206D01*
X188181Y380694D01*
X186376Y383822D01*
X183822Y386376D01*
X180694Y388181D01*
X177206Y389116D01*
D02*
G37*
G36*
X174892D02*
X173594D01*
X170106Y388181D01*
X166978Y386376D01*
X164424Y383822D01*
X162619Y380694D01*
X161684Y377206D01*
Y375908D01*
X174892D01*
Y389116D01*
D02*
G37*
G36*
X126406D02*
X125108D01*
Y375908D01*
X138316D01*
Y377206D01*
X137381Y380694D01*
X135576Y383822D01*
X133022Y386376D01*
X129894Y388181D01*
X126406Y389116D01*
D02*
G37*
G36*
X124092D02*
X122794D01*
X119306Y388181D01*
X116178Y386376D01*
X113624Y383822D01*
X111819Y380694D01*
X110884Y377206D01*
Y375908D01*
X124092D01*
Y389116D01*
D02*
G37*
G36*
X189116Y374892D02*
X175908D01*
Y361684D01*
X177206D01*
X180694Y362619D01*
X183822Y364425D01*
X186376Y366978D01*
X188181Y370106D01*
X189116Y373594D01*
Y374892D01*
D02*
G37*
G36*
X174892D02*
X161684D01*
Y373594D01*
X162619Y370106D01*
X164424Y366978D01*
X166978Y364425D01*
X170106Y362619D01*
X173594Y361684D01*
X174892D01*
Y374892D01*
D02*
G37*
G36*
X138316D02*
X125108D01*
Y361684D01*
X126406D01*
X129894Y362619D01*
X133022Y364425D01*
X135576Y366978D01*
X137381Y370106D01*
X138316Y373594D01*
Y374892D01*
D02*
G37*
G36*
X124092D02*
X110884D01*
Y373594D01*
X111819Y370106D01*
X113624Y366978D01*
X116178Y364425D01*
X119306Y362619D01*
X122794Y361684D01*
X124092D01*
Y374892D01*
D02*
G37*
G36*
X177206Y338316D02*
X175908D01*
Y325108D01*
X189116D01*
Y326406D01*
X188181Y329894D01*
X186376Y333022D01*
X183822Y335576D01*
X180694Y337381D01*
X177206Y338316D01*
D02*
G37*
G36*
X174892D02*
X173594D01*
X170106Y337381D01*
X166978Y335576D01*
X164424Y333022D01*
X162619Y329894D01*
X161684Y326406D01*
Y325108D01*
X174892D01*
Y338316D01*
D02*
G37*
G36*
X126406D02*
X125108D01*
Y325108D01*
X138316D01*
Y326406D01*
X137381Y329894D01*
X135576Y333022D01*
X133022Y335576D01*
X129894Y337381D01*
X126406Y338316D01*
D02*
G37*
G36*
X124092D02*
X122794D01*
X119306Y337381D01*
X116178Y335576D01*
X113624Y333022D01*
X111819Y329894D01*
X110884Y326406D01*
Y325108D01*
X124092D01*
Y338316D01*
D02*
G37*
G36*
X189116Y324092D02*
X175908D01*
Y310884D01*
X177206D01*
X180694Y311819D01*
X183822Y313624D01*
X186376Y316178D01*
X188181Y319306D01*
X189116Y322794D01*
Y324092D01*
D02*
G37*
G36*
X174892D02*
X161684D01*
Y322794D01*
X162619Y319306D01*
X164424Y316178D01*
X166978Y313624D01*
X170106Y311819D01*
X173594Y310884D01*
X174892D01*
Y324092D01*
D02*
G37*
G36*
X138316D02*
X125108D01*
Y310884D01*
X126406D01*
X129894Y311819D01*
X133022Y313624D01*
X135576Y316178D01*
X137381Y319306D01*
X138316Y322794D01*
Y324092D01*
D02*
G37*
G36*
X124092D02*
X110884D01*
Y322794D01*
X111819Y319306D01*
X113624Y316178D01*
X116178Y313624D01*
X119306Y311819D01*
X122794Y310884D01*
X124092D01*
Y324092D01*
D02*
G37*
G36*
X151388Y360545D02*
X148612D01*
X145930Y359826D01*
X143525Y358438D01*
X141562Y356475D01*
X140174Y354070D01*
X139455Y351388D01*
Y348612D01*
X140174Y345930D01*
X141562Y343525D01*
X143525Y341562D01*
X145930Y340174D01*
X147627Y339719D01*
Y307071D01*
X147579D01*
X147954Y303268D01*
X149063Y299612D01*
X150864Y296242D01*
X153288Y293288D01*
X153288Y293288D01*
X154116Y292361D01*
X155697Y290301D01*
X157170Y286745D01*
X157594Y283523D01*
X156581Y282815D01*
X156357Y282790D01*
X155500Y283145D01*
X154500D01*
X153932Y282910D01*
X152660Y282660D01*
X151500Y283141D01*
X150508D01*
Y279175D01*
X149492D01*
Y283141D01*
X148500D01*
X147340Y282660D01*
X146068Y282910D01*
X145500Y283145D01*
X144500D01*
X143337Y282663D01*
X143187Y282303D01*
X141813D01*
X141663Y282663D01*
X140500Y283145D01*
X139500D01*
X138337Y282663D01*
X137855Y281500D01*
Y276850D01*
X138336Y275688D01*
X138337Y275687D01*
Y274313D01*
X138336Y274312D01*
X137855Y273150D01*
Y268500D01*
X138337Y267337D01*
X139500Y266855D01*
X140500D01*
X141663Y267337D01*
X141813Y267697D01*
X143187D01*
X143337Y267337D01*
X144500Y266855D01*
X145500D01*
X146068Y267090D01*
X147340Y267340D01*
X148500Y266859D01*
X149492D01*
Y270825D01*
X150508D01*
Y266859D01*
X151500D01*
X152660Y267340D01*
X153932Y267090D01*
X154500Y266855D01*
X155500D01*
X156357Y267210D01*
X157627Y266641D01*
Y266035D01*
X157646Y265941D01*
X157193Y263663D01*
X156538Y262683D01*
X155768Y261732D01*
X155768Y261732D01*
X154386Y259664D01*
X153900Y257224D01*
X153900D01*
X153499Y256120D01*
X152130D01*
Y243880D01*
X155127D01*
Y229382D01*
X153118D01*
Y220291D01*
X152638D01*
Y214480D01*
X152162D01*
X151323Y214313D01*
X150611Y213838D01*
X150000Y213226D01*
X149389Y213838D01*
X148677Y214313D01*
X147838Y214480D01*
X147362D01*
Y220291D01*
X146882D01*
Y229382D01*
X138118D01*
Y228560D01*
X125810D01*
Y229500D01*
X125653Y230288D01*
X125206Y230956D01*
X124538Y231403D01*
X123750Y231560D01*
X116250D01*
X115462Y231403D01*
X114794Y230956D01*
X114347Y230288D01*
X114190Y229500D01*
Y223500D01*
X114347Y222712D01*
X114794Y222044D01*
X115462Y221597D01*
X116250Y221441D01*
X123750D01*
X124538Y221597D01*
X125206Y222044D01*
X125653Y222712D01*
X125810Y223500D01*
Y224440D01*
X138118D01*
Y220291D01*
X137638D01*
Y210138D01*
X145001D01*
X145212Y210096D01*
X146408D01*
Y200629D01*
X146084Y200435D01*
X144814Y201154D01*
Y201688D01*
X144815Y201688D01*
X144638Y202574D01*
X144137Y203325D01*
X143415Y204046D01*
X143520Y204300D01*
Y205700D01*
X142984Y206994D01*
X141994Y207984D01*
X140700Y208520D01*
X139300D01*
X138006Y207984D01*
X137016Y206994D01*
X136937Y206804D01*
X135563D01*
X135484Y206994D01*
X134494Y207984D01*
X133200Y208520D01*
X131800D01*
X130506Y207984D01*
X129516Y206994D01*
X129094Y205975D01*
X128179Y205614D01*
X127710Y205563D01*
X126637Y206637D01*
X125886Y207138D01*
X125000Y207314D01*
X124931Y207453D01*
X124537Y208601D01*
X125204Y209046D01*
X125649Y209713D01*
X125806Y210500D01*
Y212992D01*
X120000D01*
X114194D01*
Y210500D01*
X114351Y209713D01*
X114796Y209046D01*
X115463Y208601D01*
X115547Y208584D01*
X115421Y207314D01*
X112663D01*
X111994Y207984D01*
X110700Y208520D01*
X109300D01*
X108006Y207984D01*
X107080Y207058D01*
X106760Y207080D01*
X105810Y207400D01*
Y212000D01*
X105653Y212788D01*
X105206Y213456D01*
X104538Y213903D01*
X103750Y214060D01*
X97000D01*
X97000Y214060D01*
X96853D01*
X86956Y223956D01*
X86288Y224403D01*
X85500Y224560D01*
X78604D01*
Y242500D01*
X78281Y243281D01*
X77500Y243604D01*
X65927D01*
X65020Y244480D01*
X65020Y244874D01*
Y253153D01*
X76699D01*
Y249449D01*
X93301D01*
Y253153D01*
X100530D01*
Y235730D01*
X109070D01*
Y264270D01*
X108389D01*
Y268063D01*
X109516Y269190D01*
X114000D01*
X114788Y269347D01*
X115456Y269794D01*
X115903Y270462D01*
X116060Y271250D01*
Y278750D01*
X115903Y279538D01*
X115456Y280206D01*
X114788Y280653D01*
X114000Y280810D01*
X108000D01*
X107212Y280653D01*
X106544Y280206D01*
X106097Y279538D01*
X105941Y278750D01*
Y275690D01*
X105712Y275538D01*
X102262Y272088D01*
X101484Y270923D01*
X101211Y269550D01*
Y264270D01*
X100530D01*
Y260331D01*
X93301D01*
Y264035D01*
X76699D01*
Y260331D01*
X65020D01*
Y266520D01*
X9980D01*
Y244480D01*
X58796D01*
X59219Y243281D01*
X58896Y242500D01*
Y200520D01*
X9980D01*
Y178480D01*
X63914D01*
X64040Y178176D01*
X64112Y177850D01*
X64803Y176866D01*
X64887Y176812D01*
X64926Y176719D01*
X65234Y176592D01*
X65516Y176413D01*
X65614Y176434D01*
X65707Y176396D01*
X77500D01*
X78281Y176719D01*
X78604Y177500D01*
Y179038D01*
X79448Y179397D01*
X79874Y179490D01*
X80462Y179097D01*
X81250Y178940D01*
X88750D01*
X89538Y179097D01*
X90206Y179544D01*
X90653Y180212D01*
X90809Y181000D01*
Y181940D01*
X94190D01*
Y181000D01*
X94347Y180212D01*
X94794Y179544D01*
X95462Y179097D01*
X96250Y178941D01*
X103750D01*
X104538Y179097D01*
X105206Y179544D01*
X105653Y180212D01*
X105810Y181000D01*
Y181499D01*
X107080Y181758D01*
X107940Y180897D01*
Y170000D01*
X108097Y169212D01*
X108544Y168544D01*
X111044Y166044D01*
X111044Y166044D01*
X111596Y165675D01*
X111657Y165000D01*
X111596Y164325D01*
X111044Y163956D01*
X111044Y163956D01*
X108147Y161060D01*
X105810D01*
Y162000D01*
X105653Y162788D01*
X105206Y163456D01*
X104538Y163903D01*
X103750Y164060D01*
X96250D01*
X95462Y163903D01*
X94794Y163456D01*
X94347Y162788D01*
X94190Y162000D01*
Y161060D01*
X90809D01*
Y162000D01*
X90653Y162788D01*
X90206Y163456D01*
X89538Y163903D01*
X88750Y164060D01*
X81250D01*
X80462Y163903D01*
X79794Y163456D01*
X79347Y162788D01*
X79190Y162000D01*
Y156000D01*
X79347Y155212D01*
X79794Y154544D01*
X80462Y154097D01*
X81250Y153940D01*
X88750D01*
X89538Y154097D01*
X90206Y154544D01*
X90653Y155212D01*
X90809Y156000D01*
Y156940D01*
X94190D01*
Y156000D01*
X94347Y155212D01*
X94794Y154544D01*
X95462Y154097D01*
X96250Y153940D01*
X103750D01*
X104538Y154097D01*
X105206Y154544D01*
X105653Y155212D01*
X105810Y156000D01*
Y156940D01*
X109000D01*
X109788Y157097D01*
X110456Y157544D01*
X113353Y160440D01*
X121029D01*
X121414Y159170D01*
X121363Y159137D01*
X120862Y158386D01*
X120686Y157500D01*
X120862Y156614D01*
X121363Y155863D01*
X121569Y155726D01*
Y154274D01*
X121363Y154137D01*
X120862Y153386D01*
X120686Y152500D01*
X120862Y151614D01*
X121363Y150864D01*
X122114Y150362D01*
X123000Y150186D01*
X128637D01*
X129410Y149510D01*
X129702Y149030D01*
X129696Y149000D01*
Y143000D01*
X129910Y141927D01*
X130517Y141017D01*
X130358Y139597D01*
X125513Y134751D01*
X117648D01*
X116767Y134576D01*
X116019Y134076D01*
X106861Y124918D01*
X106361Y124170D01*
X106186Y123288D01*
Y122362D01*
X97638D01*
Y112209D01*
Y102638D01*
X104880D01*
X105102Y102593D01*
X105875D01*
X106186Y101459D01*
Y99000D01*
X105454D01*
X103984Y98391D01*
X102859Y97266D01*
X102250Y95796D01*
Y94204D01*
X102859Y92734D01*
X103984Y91609D01*
X105454Y91000D01*
X107046D01*
X108516Y91609D01*
X109177Y92270D01*
X110000Y92593D01*
X110823Y92270D01*
X111484Y91609D01*
X112954Y91000D01*
X114546D01*
X116016Y91609D01*
X117141Y92734D01*
X117750Y94204D01*
Y95796D01*
X117141Y97266D01*
X116016Y98391D01*
X114546Y99000D01*
X113814D01*
Y100208D01*
X113814Y100208D01*
Y102593D01*
X114898D01*
X115120Y102638D01*
X122362D01*
Y112209D01*
Y122362D01*
X116753D01*
X116267Y123536D01*
X119854Y127123D01*
X127718D01*
X128600Y127298D01*
X129347Y127798D01*
X138139Y136590D01*
X138639Y137337D01*
X138814Y138219D01*
Y140571D01*
X139142Y140790D01*
X140000Y140932D01*
X140858Y140790D01*
X141186Y140571D01*
Y131541D01*
X141186Y131541D01*
Y122407D01*
X140102D01*
X139880Y122362D01*
X132638D01*
Y112209D01*
Y102638D01*
X139880D01*
X140102Y102593D01*
X140875D01*
X141186Y101459D01*
Y99000D01*
X140454D01*
X138984Y98391D01*
X137859Y97266D01*
X137250Y95796D01*
Y94204D01*
X137859Y92734D01*
X138984Y91609D01*
X140454Y91000D01*
X142046D01*
X143516Y91609D01*
X144177Y92270D01*
X145000Y92593D01*
X145823Y92270D01*
X146484Y91609D01*
X147954Y91000D01*
X149546D01*
X151016Y91609D01*
X152141Y92734D01*
X152750Y94204D01*
Y95796D01*
X152141Y97266D01*
X151016Y98391D01*
X149546Y99000D01*
X148814D01*
Y100208D01*
X148814Y100208D01*
Y102593D01*
X149898D01*
X150120Y102638D01*
X157362D01*
Y112209D01*
Y122362D01*
X150120D01*
X149898Y122407D01*
X148814D01*
Y132792D01*
X148814Y132792D01*
Y140571D01*
X149142Y140790D01*
X150000Y140932D01*
X150858Y140790D01*
X151186Y140571D01*
Y137775D01*
X151361Y136893D01*
X151861Y136146D01*
X160690Y127317D01*
X161437Y126817D01*
X162319Y126642D01*
X170842D01*
X173851Y123632D01*
X173325Y122362D01*
X167638D01*
Y112209D01*
Y102638D01*
X174880D01*
X175102Y102593D01*
X175875D01*
X176186Y101459D01*
Y99000D01*
X175454D01*
X173984Y98391D01*
X172859Y97266D01*
X172250Y95796D01*
Y94204D01*
X172859Y92734D01*
X173984Y91609D01*
X175454Y91000D01*
X177046D01*
X178516Y91609D01*
X179177Y92270D01*
X180000Y92593D01*
X180823Y92270D01*
X181484Y91609D01*
X182954Y91000D01*
X184546D01*
X186016Y91609D01*
X187141Y92734D01*
X187750Y94204D01*
Y95796D01*
X187141Y97266D01*
X186016Y98391D01*
X184546Y99000D01*
X183814D01*
Y100208D01*
X183814Y100208D01*
Y102593D01*
X184898D01*
X185120Y102638D01*
X192362D01*
Y112209D01*
Y122362D01*
X185120D01*
X184898Y122407D01*
X183814D01*
Y123503D01*
X183639Y124385D01*
X183139Y125132D01*
X176504Y131767D01*
X176991Y132941D01*
X182500D01*
X183288Y133097D01*
X183956Y133544D01*
X186893Y136480D01*
X188200D01*
X189494Y137016D01*
X190484Y138006D01*
X191020Y139300D01*
Y140700D01*
X190484Y141994D01*
X189494Y142984D01*
X189044Y143170D01*
X189297Y144440D01*
X194190D01*
Y143500D01*
X194347Y142712D01*
X194794Y142044D01*
X195462Y141597D01*
X196250Y141440D01*
X203750D01*
X204538Y141597D01*
X204670Y141686D01*
X205940Y141030D01*
Y140000D01*
X206097Y139212D01*
X206544Y138544D01*
X210044Y135044D01*
X210712Y134597D01*
X211500Y134440D01*
X211500Y134440D01*
X214190D01*
Y130500D01*
X214347Y129712D01*
X214794Y129044D01*
X215462Y128597D01*
X216250Y128441D01*
X217940D01*
Y126560D01*
X216250D01*
X215462Y126403D01*
X214794Y125956D01*
X214347Y125288D01*
X214190Y124500D01*
Y118500D01*
X214330Y117799D01*
X214249Y117677D01*
X214063Y117418D01*
X213429Y116765D01*
X213360Y116774D01*
X208520Y121614D01*
Y122200D01*
X207984Y123494D01*
X206994Y124484D01*
X205700Y125020D01*
X205114D01*
X202963Y127170D01*
X203489Y128441D01*
X203750D01*
X204538Y128597D01*
X205206Y129044D01*
X205653Y129712D01*
X205809Y130500D01*
Y136500D01*
X205653Y137288D01*
X205206Y137956D01*
X204538Y138403D01*
X203750Y138560D01*
X196250D01*
X195462Y138403D01*
X194794Y137956D01*
X194347Y137288D01*
X194190Y136500D01*
Y130500D01*
X194347Y129712D01*
X194794Y129044D01*
X195462Y128597D01*
X196250Y128441D01*
X197431D01*
Y126500D01*
X197626Y125517D01*
X198183Y124683D01*
X201480Y121386D01*
Y120800D01*
X202016Y119506D01*
X203006Y118516D01*
X204300Y117980D01*
X204886D01*
X213683Y109183D01*
X214190Y108844D01*
Y105500D01*
X214347Y104712D01*
X214794Y104044D01*
X215462Y103597D01*
X216250Y103441D01*
X223750D01*
X224538Y103597D01*
X225206Y104044D01*
X225653Y104712D01*
X225809Y105500D01*
Y105931D01*
X234190D01*
Y105500D01*
X234347Y104712D01*
X234794Y104044D01*
X235462Y103597D01*
X236250Y103441D01*
X243750D01*
X244538Y103597D01*
X245206Y104044D01*
X245653Y104712D01*
X245666Y104780D01*
X246936Y104655D01*
Y39370D01*
X228896Y21330D01*
X206583D01*
X204367Y23546D01*
X204020Y24730D01*
X204020D01*
X204020Y24730D01*
Y45270D01*
X202060D01*
Y63230D01*
X204020D01*
Y81770D01*
X195980D01*
Y63230D01*
X197940D01*
Y45270D01*
X195980D01*
Y27583D01*
X194819Y27079D01*
X194020Y27729D01*
Y45270D01*
X192060D01*
Y63230D01*
X194020D01*
Y81770D01*
X185980D01*
Y63230D01*
X187940D01*
Y45270D01*
X185980D01*
Y24730D01*
X191107D01*
X202294Y13544D01*
X202962Y13097D01*
X203750Y12940D01*
X231000D01*
X231788Y13097D01*
X232456Y13544D01*
X254456Y35544D01*
X254903Y36212D01*
X255060Y37000D01*
X255060Y37000D01*
Y163000D01*
X254903Y163788D01*
X254456Y164456D01*
X248956Y169956D01*
X248288Y170403D01*
X247500Y170560D01*
X245810D01*
Y174500D01*
X245653Y175288D01*
X245206Y175956D01*
X244538Y176403D01*
X243750Y176560D01*
X237103D01*
X232206Y181456D01*
X231538Y181903D01*
X230750Y182060D01*
X214000D01*
X213212Y181903D01*
X212544Y181456D01*
X210647Y179560D01*
X178971D01*
X178586Y180830D01*
X178637Y180863D01*
X179138Y181614D01*
X179314Y182500D01*
X179138Y183386D01*
X178637Y184137D01*
X178431Y184274D01*
Y185726D01*
X178637Y185863D01*
X179138Y186614D01*
X179314Y187500D01*
X179138Y188386D01*
X178637Y189137D01*
X177886Y189638D01*
X177000Y189814D01*
X176176D01*
X175690Y190988D01*
X183867Y199165D01*
X190251D01*
X190945Y199303D01*
X191534Y199697D01*
X194444Y202607D01*
X195618Y202121D01*
Y196075D01*
X195618Y195189D01*
X195622Y193923D01*
Y190722D01*
X200000D01*
X204378D01*
Y193923D01*
X204382Y195189D01*
X204382Y196075D01*
Y202213D01*
X204417Y202388D01*
Y204175D01*
X212973D01*
X213214Y204223D01*
X214287Y203568D01*
X214484Y203332D01*
Y199508D01*
X221500D01*
X228516D01*
Y205965D01*
X229968D01*
X231480Y204453D01*
Y190980D01*
X245520D01*
Y207020D01*
X234047D01*
X232003Y209063D01*
X231415Y209457D01*
X230720Y209595D01*
X228920D01*
X228329Y210865D01*
X228417Y210996D01*
X228555Y211691D01*
Y215760D01*
X228520Y215935D01*
Y229020D01*
X214480D01*
Y212980D01*
X213373Y212587D01*
X212817Y212477D01*
X212229Y212083D01*
X210970Y210825D01*
X204417D01*
Y212612D01*
X204382Y212787D01*
Y218925D01*
X204382Y219811D01*
X204378Y221077D01*
Y224278D01*
X200000D01*
X195622D01*
Y221077D01*
X195618Y219811D01*
X195618Y218925D01*
Y210825D01*
X194010D01*
X193316Y210687D01*
X192727Y210293D01*
X188248Y205815D01*
X181864D01*
X181170Y205677D01*
X180581Y205283D01*
X170988Y195690D01*
X169814Y196176D01*
Y197000D01*
X169638Y197886D01*
X169137Y198637D01*
X168386Y199138D01*
X167936Y199228D01*
X167443Y200401D01*
X167436Y200523D01*
X175353Y208440D01*
X177000D01*
X177000Y208440D01*
X183750D01*
X184538Y208597D01*
X185206Y209044D01*
X185653Y209712D01*
X185810Y210500D01*
Y216500D01*
X185653Y217288D01*
X185206Y217956D01*
X184538Y218403D01*
X183750Y218560D01*
X176250D01*
X175462Y218403D01*
X174794Y217956D01*
X174347Y217288D01*
X174190Y216500D01*
Y212498D01*
X173712Y212403D01*
X173044Y211956D01*
X164546Y203459D01*
X163470Y204179D01*
X163520Y204300D01*
Y205700D01*
X162984Y206994D01*
X161994Y207984D01*
X160700Y208520D01*
X159300D01*
X158006Y207984D01*
X157016Y206994D01*
X156480Y205700D01*
Y204300D01*
X156494Y204267D01*
X155863Y203637D01*
X155362Y202886D01*
X155185Y202000D01*
X155185Y202000D01*
Y201154D01*
X153916Y200435D01*
X153592Y200629D01*
Y210096D01*
X154788D01*
X154999Y210138D01*
X162362D01*
Y220291D01*
X161882D01*
Y229382D01*
X159873D01*
Y243880D01*
X160570D01*
Y256120D01*
X159200D01*
X158773Y257330D01*
X159212Y258288D01*
Y258288D01*
X160953Y260557D01*
X162047Y263200D01*
X162421Y266035D01*
X162372D01*
Y270825D01*
Y282929D01*
X162421D01*
X162046Y286732D01*
X160937Y290388D01*
X159136Y293758D01*
X156712Y296712D01*
X156712Y296712D01*
X155884Y297639D01*
X154303Y299699D01*
X152830Y303255D01*
X152346Y306936D01*
X152373Y307071D01*
Y339719D01*
X154070Y340174D01*
X156475Y341562D01*
X158438Y343525D01*
X159826Y345930D01*
X160545Y348612D01*
Y351388D01*
X159826Y354070D01*
X158438Y356475D01*
X156475Y358438D01*
X154070Y359826D01*
X151388Y360545D01*
D02*
G37*
G36*
X243020Y283020D02*
X232980D01*
Y275980D01*
X243020D01*
Y283020D01*
D02*
G37*
G36*
X227020D02*
X216980D01*
Y275980D01*
X227020D01*
Y283020D01*
D02*
G37*
G36*
X93297Y280547D02*
X85508D01*
Y273766D01*
X93297D01*
Y280547D01*
D02*
G37*
G36*
X84492D02*
X76703D01*
Y273766D01*
X84492D01*
Y280547D01*
D02*
G37*
G36*
X243020Y274020D02*
X232980D01*
Y266980D01*
X243020D01*
Y274020D01*
D02*
G37*
G36*
X227020D02*
X216980D01*
Y266980D01*
X227020D01*
Y274020D01*
D02*
G37*
G36*
X93297Y272750D02*
X85508D01*
Y265969D01*
X93297D01*
Y272750D01*
D02*
G37*
G36*
X84492D02*
X76703D01*
Y265969D01*
X84492D01*
Y272750D01*
D02*
G37*
G36*
X127000Y280810D02*
X121000D01*
X120212Y280653D01*
X119544Y280206D01*
X119097Y279538D01*
X118940Y278750D01*
Y271250D01*
X119097Y270462D01*
X119544Y269794D01*
X120212Y269347D01*
X121000Y269190D01*
X125484D01*
X126611Y268063D01*
Y264270D01*
X125930D01*
Y235730D01*
X134470D01*
Y246411D01*
X139430D01*
Y243880D01*
X147870D01*
Y256120D01*
X139430D01*
Y253589D01*
X134470D01*
Y264270D01*
X133789D01*
Y269550D01*
X133516Y270923D01*
X132738Y272088D01*
X129288Y275538D01*
X129060Y275690D01*
Y278750D01*
X128903Y279538D01*
X128456Y280206D01*
X127788Y280653D01*
X127000Y280810D01*
D02*
G37*
G36*
X183750Y231556D02*
X180508D01*
Y227008D01*
X185805D01*
Y229500D01*
X185649Y230287D01*
X185203Y230954D01*
X184537Y231399D01*
X183750Y231556D01*
D02*
G37*
G36*
X179492D02*
X176250D01*
X175463Y231399D01*
X174797Y230954D01*
X174351Y230287D01*
X174195Y229500D01*
Y227008D01*
X179492D01*
Y231556D01*
D02*
G37*
G36*
X381703Y226104D02*
X367701D01*
X367609Y226066D01*
X367511Y226087D01*
X367229Y225908D01*
X366921Y225781D01*
X366882Y225688D01*
X366798Y225634D01*
X366107Y224650D01*
X366035Y224324D01*
X365909Y224020D01*
X354975D01*
Y214980D01*
X354975D01*
Y214520D01*
X354975D01*
Y206290D01*
X354975Y205480D01*
X354975D01*
Y205020D01*
X354975D01*
Y198199D01*
X354935Y198000D01*
Y167848D01*
X346647Y159560D01*
X344894D01*
X344382Y160618D01*
Y169811D01*
X344382D01*
Y170189D01*
X344382D01*
Y179382D01*
X342060D01*
Y195980D01*
X345025D01*
Y205020D01*
X345025Y205020D01*
Y205480D01*
X345025D01*
X345025Y206290D01*
Y213716D01*
X345025Y214520D01*
X345025D01*
X345021Y214984D01*
X345021D01*
Y218992D01*
X339005D01*
Y219500D01*
X338497D01*
Y224016D01*
X332989D01*
Y223931D01*
X332500Y223604D01*
X306206D01*
X306094Y223557D01*
X305974Y223579D01*
X305973Y223579D01*
X305716Y223401D01*
X305426Y223281D01*
X305379Y223168D01*
X305279Y223099D01*
X305141Y222885D01*
X305141Y222885D01*
X305114Y222738D01*
X305070Y222497D01*
X304978Y222113D01*
X305025Y221817D01*
X305149Y221614D01*
X305195Y221381D01*
X305480Y220950D01*
Y199050D01*
X305195Y198619D01*
X305149Y198386D01*
X305025Y198183D01*
X304978Y197887D01*
X305070Y197503D01*
X305141Y197115D01*
X305279Y196901D01*
X305379Y196832D01*
X305426Y196719D01*
X305716Y196599D01*
X305974Y196421D01*
X306094Y196443D01*
X306206Y196396D01*
X325440D01*
Y193604D01*
X301104D01*
Y222500D01*
X300781Y223281D01*
X300000Y223604D01*
X277500D01*
X276719Y223281D01*
X276396Y222500D01*
Y182363D01*
X275000D01*
X273139Y181993D01*
X271561Y180939D01*
X271561Y180939D01*
X266561Y175939D01*
X265507Y174361D01*
X265137Y172500D01*
X265137Y172500D01*
Y150000D01*
X265137Y150000D01*
X265507Y148139D01*
X266561Y146561D01*
X274061Y139061D01*
X274061Y139061D01*
X275639Y138007D01*
X277500Y137637D01*
X346910D01*
X353717Y130830D01*
X353704Y130462D01*
X353271Y129480D01*
X352883Y129403D01*
X352215Y128956D01*
X352215Y128956D01*
X351044Y127785D01*
X350597Y127117D01*
X350440Y126328D01*
Y116542D01*
X349227Y115967D01*
X348896Y116104D01*
X345516D01*
X344735Y115781D01*
X344420Y115020D01*
X331580D01*
X331265Y115781D01*
X330484Y116104D01*
X320569D01*
X320058Y116327D01*
X319378Y116905D01*
Y119277D01*
X315000D01*
X310622D01*
Y116905D01*
X309942Y116327D01*
X309431Y116104D01*
X307500D01*
X306719Y115781D01*
X306396Y115000D01*
Y105000D01*
X306719Y104219D01*
X307500Y103896D01*
X309609D01*
X309888Y104012D01*
X310187Y104059D01*
X311199Y104681D01*
X311278Y104790D01*
X311402Y104841D01*
X311518Y105120D01*
X311695Y105365D01*
X312941Y105618D01*
X317059D01*
X318305Y105365D01*
X318482Y105120D01*
X318598Y104841D01*
X318722Y104790D01*
X318801Y104681D01*
X319813Y104059D01*
X320112Y104012D01*
X320391Y103896D01*
X329794D01*
X329886Y103934D01*
X329984Y103912D01*
X330266Y104092D01*
X330574Y104219D01*
X330613Y104312D01*
X330697Y104366D01*
X331388Y105350D01*
X331460Y105676D01*
X331586Y105980D01*
X344414D01*
X344540Y105676D01*
X344612Y105350D01*
X345303Y104366D01*
X345387Y104312D01*
X345426Y104219D01*
X345734Y104092D01*
X346016Y103912D01*
X346114Y103934D01*
X346207Y103896D01*
X348896D01*
X349448Y104125D01*
X350000Y103896D01*
X353793D01*
X353886Y103934D01*
X353984Y103912D01*
X354266Y104092D01*
X354574Y104219D01*
X354613Y104312D01*
X354697Y104366D01*
X355388Y105350D01*
X355460Y105676D01*
X355586Y105980D01*
X368414D01*
X368540Y105676D01*
X368612Y105350D01*
X369303Y104366D01*
X369387Y104312D01*
X369426Y104219D01*
X369734Y104092D01*
X370016Y103912D01*
X370114Y103934D01*
X370206Y103896D01*
X379609D01*
X379888Y104012D01*
X380187Y104059D01*
X381199Y104681D01*
X381278Y104790D01*
X381402Y104841D01*
X381518Y105120D01*
X381695Y105365D01*
X382941Y105618D01*
X387059D01*
X388305Y105365D01*
X388482Y105120D01*
X388598Y104841D01*
X388722Y104790D01*
X388801Y104681D01*
X389813Y104059D01*
X390112Y104012D01*
X390391Y103896D01*
X392500D01*
X393281Y104219D01*
X393604Y105000D01*
Y115000D01*
X393281Y115781D01*
X392500Y116104D01*
X390569D01*
X390058Y116327D01*
X389378Y116905D01*
Y119277D01*
X385000D01*
X380622D01*
Y116905D01*
X379942Y116327D01*
X379431Y116104D01*
X369516D01*
Y119492D01*
X362000D01*
Y120508D01*
X369516D01*
Y124516D01*
X369516D01*
X369520Y124980D01*
X369520D01*
X369520Y125784D01*
Y134020D01*
X364283D01*
X352364Y145939D01*
X350786Y146993D01*
X348925Y147364D01*
X348924Y147363D01*
X279515D01*
X274863Y152015D01*
Y169619D01*
X275193Y169839D01*
X275254Y169847D01*
X276683Y169307D01*
X276719Y169219D01*
X277500Y168896D01*
X280433D01*
X280976Y168896D01*
X281505Y168186D01*
X281703Y167803D01*
Y162250D01*
X289492D01*
Y169031D01*
X283944D01*
X283231Y170301D01*
X283608Y170965D01*
X296392D01*
X296769Y170301D01*
X296056Y169031D01*
X290508D01*
Y162250D01*
X298297D01*
Y167803D01*
X298495Y168186D01*
X299024Y168896D01*
X305433Y168896D01*
X305976Y168896D01*
X306505Y168186D01*
X306703Y167803D01*
Y162250D01*
X314492D01*
Y169031D01*
X308944D01*
X308231Y170301D01*
X308608Y170965D01*
X321392D01*
X321769Y170301D01*
X321056Y169031D01*
X315508D01*
Y162250D01*
X323297D01*
Y167761D01*
X323366Y167830D01*
X323654Y167945D01*
X324924Y167082D01*
Y163016D01*
X325081Y162228D01*
X325528Y161560D01*
X331044Y156044D01*
X331712Y155597D01*
X332500Y155440D01*
X332500Y155441D01*
X347500D01*
X348288Y155597D01*
X348956Y156044D01*
X358451Y165539D01*
X358451Y165539D01*
X358898Y166207D01*
X359054Y166995D01*
Y195980D01*
X367015D01*
Y202983D01*
X367392Y203430D01*
X368080Y203896D01*
X380000D01*
X380433Y204075D01*
X381703Y203482D01*
Y202250D01*
X389492D01*
Y209031D01*
X383944D01*
X383231Y210301D01*
X383608Y210965D01*
X398301D01*
Y225551D01*
X382579D01*
X382484Y225781D01*
X381703Y226104D01*
D02*
G37*
G36*
X204378Y229378D02*
X200508D01*
Y225294D01*
X204378D01*
Y229378D01*
D02*
G37*
G36*
X199492D02*
X195622D01*
Y225294D01*
X199492D01*
Y229378D01*
D02*
G37*
G36*
X245516Y229016D02*
X239008D01*
Y221508D01*
X245516D01*
Y229016D01*
D02*
G37*
G36*
X237992D02*
X231484D01*
Y221508D01*
X237992D01*
Y229016D01*
D02*
G37*
G36*
X185805Y225992D02*
X180508D01*
Y221444D01*
X183750D01*
X184537Y221601D01*
X185203Y222047D01*
X185649Y222713D01*
X185805Y223500D01*
Y225992D01*
D02*
G37*
G36*
X179492D02*
X174195D01*
Y223500D01*
X174351Y222713D01*
X174797Y222047D01*
X175463Y221601D01*
X176250Y221444D01*
X179492D01*
Y225992D01*
D02*
G37*
G36*
X345021Y224016D02*
X339513D01*
Y220008D01*
X345021D01*
Y224016D01*
D02*
G37*
G36*
X123750Y218556D02*
X120508D01*
Y214008D01*
X125806D01*
Y216500D01*
X125649Y217287D01*
X125204Y217953D01*
X124537Y218399D01*
X123750Y218556D01*
D02*
G37*
G36*
X119492D02*
X116250D01*
X115463Y218399D01*
X114796Y217953D01*
X114351Y217287D01*
X114194Y216500D01*
Y214008D01*
X119492D01*
Y218556D01*
D02*
G37*
G36*
X245516Y220492D02*
X239008D01*
Y212984D01*
X245516D01*
Y220492D01*
D02*
G37*
G36*
X237992D02*
X231484D01*
Y212984D01*
X237992D01*
Y220492D01*
D02*
G37*
G36*
X398297Y209031D02*
X390508D01*
Y202250D01*
X398297D01*
Y209031D01*
D02*
G37*
G36*
Y201234D02*
X390508D01*
Y194453D01*
X398297D01*
Y201234D01*
D02*
G37*
G36*
X389492D02*
X381703D01*
Y194453D01*
X389492D01*
Y201234D01*
D02*
G37*
G36*
X228516Y198492D02*
X222008D01*
Y190984D01*
X228516D01*
Y198492D01*
D02*
G37*
G36*
X220992D02*
X214484D01*
Y190984D01*
X220992D01*
Y198492D01*
D02*
G37*
G36*
X204378Y189706D02*
X200508D01*
Y185622D01*
X204378D01*
Y189706D01*
D02*
G37*
G36*
X199492D02*
X195622D01*
Y185622D01*
X199492D01*
Y189706D01*
D02*
G37*
G36*
X88750Y176056D02*
X85508D01*
Y171508D01*
X90806D01*
Y174000D01*
X90649Y174787D01*
X90204Y175453D01*
X89537Y175899D01*
X88750Y176056D01*
D02*
G37*
G36*
X84492D02*
X81250D01*
X80463Y175899D01*
X79797Y175453D01*
X79351Y174787D01*
X79194Y174000D01*
Y171508D01*
X84492D01*
Y176056D01*
D02*
G37*
G36*
X90806Y170492D02*
X85508D01*
Y165944D01*
X88750D01*
X89537Y166101D01*
X90204Y166546D01*
X90649Y167213D01*
X90806Y168000D01*
Y170492D01*
D02*
G37*
G36*
X84492D02*
X79194D01*
Y168000D01*
X79351Y167213D01*
X79797Y166546D01*
X80463Y166101D01*
X81250Y165944D01*
X84492D01*
Y170492D01*
D02*
G37*
G36*
X103750Y176060D02*
X96250D01*
X95462Y175903D01*
X94794Y175456D01*
X94347Y174788D01*
X94190Y174000D01*
Y168000D01*
X94347Y167212D01*
X94794Y166544D01*
X95462Y166097D01*
X96250Y165940D01*
X103750D01*
X104538Y166097D01*
X105206Y166544D01*
X105653Y167212D01*
X105810Y168000D01*
Y174000D01*
X105653Y174788D01*
X105206Y175456D01*
X104538Y175903D01*
X103750Y176060D01*
D02*
G37*
G36*
X323297Y161234D02*
X315508D01*
Y154453D01*
X323297D01*
Y161234D01*
D02*
G37*
G36*
X314492D02*
X306703D01*
Y154453D01*
X314492D01*
Y161234D01*
D02*
G37*
G36*
X298297Y161234D02*
X290508D01*
Y154453D01*
X298297D01*
Y161234D01*
D02*
G37*
G36*
X289492D02*
X281703D01*
Y154453D01*
X289492D01*
Y161234D01*
D02*
G37*
G36*
X88750Y151055D02*
X85508D01*
Y146508D01*
X90806D01*
Y149000D01*
X90649Y149787D01*
X90204Y150453D01*
X89537Y150899D01*
X88750Y151055D01*
D02*
G37*
G36*
X84492D02*
X81250D01*
X80463Y150899D01*
X79797Y150453D01*
X79351Y149787D01*
X79194Y149000D01*
Y146508D01*
X84492D01*
Y151055D01*
D02*
G37*
G36*
X90806Y145492D02*
X85508D01*
Y140944D01*
X88750D01*
X89537Y141101D01*
X90204Y141546D01*
X90649Y142213D01*
X90806Y143000D01*
Y145492D01*
D02*
G37*
G36*
X84492D02*
X79194D01*
Y143000D01*
X79351Y142213D01*
X79797Y141546D01*
X80463Y141101D01*
X81250Y140944D01*
X84492D01*
Y145492D01*
D02*
G37*
G36*
X103750Y151060D02*
X96250D01*
X95462Y150903D01*
X94794Y150456D01*
X94347Y149788D01*
X94190Y149000D01*
Y143000D01*
X94347Y142212D01*
X94794Y141544D01*
X95462Y141097D01*
X96250Y140941D01*
X103750D01*
X104538Y141097D01*
X105206Y141544D01*
X105653Y142212D01*
X105810Y143000D01*
Y149000D01*
X105653Y149788D01*
X105206Y150456D01*
X104538Y150903D01*
X103750Y151060D01*
D02*
G37*
G36*
X345520Y134020D02*
X330480D01*
Y124980D01*
X345520D01*
Y134020D01*
D02*
G37*
G36*
X389378Y124378D02*
X385508D01*
Y120294D01*
X389378D01*
Y124378D01*
D02*
G37*
G36*
X384492D02*
X380622D01*
Y120294D01*
X384492D01*
Y124378D01*
D02*
G37*
G36*
X319378D02*
X315508D01*
Y120294D01*
X319378D01*
Y124378D01*
D02*
G37*
G36*
X314492D02*
X310622D01*
Y120294D01*
X314492D01*
Y124378D01*
D02*
G37*
G36*
X385000Y86104D02*
X363016D01*
X362235Y85781D01*
X361920Y85020D01*
X356080D01*
X355765Y85781D01*
X354984Y86104D01*
X350000D01*
X349448Y85875D01*
X348896Y86104D01*
X345016D01*
X344235Y85781D01*
X343920Y85020D01*
X338080D01*
X337765Y85781D01*
X336984Y86104D01*
X315000D01*
X314219Y85781D01*
X313896Y85000D01*
Y65000D01*
X314219Y64219D01*
X315000Y63896D01*
X316931D01*
X317442Y63673D01*
X318122Y63095D01*
Y60722D01*
X322500D01*
X326878D01*
Y63095D01*
X327558Y63673D01*
X328069Y63896D01*
X332500D01*
X333281Y64219D01*
X333604Y65000D01*
Y68896D01*
X336293D01*
X336386Y68934D01*
X336484Y68913D01*
X336766Y69092D01*
X337074Y69219D01*
X337113Y69312D01*
X337197Y69366D01*
X337888Y70350D01*
X337960Y70676D01*
X338086Y70980D01*
X343914D01*
X344040Y70676D01*
X344112Y70350D01*
X344803Y69366D01*
X344887Y69312D01*
X344926Y69219D01*
X345234Y69092D01*
X345516Y68913D01*
X345614Y68934D01*
X345706Y68896D01*
X348896D01*
X349448Y69125D01*
X350000Y68896D01*
X354294D01*
X354386Y68934D01*
X354484Y68913D01*
X354766Y69092D01*
X355074Y69219D01*
X355113Y69312D01*
X355197Y69366D01*
X355888Y70350D01*
X355960Y70676D01*
X356086Y70980D01*
X361914D01*
X362040Y70676D01*
X362112Y70350D01*
X362803Y69366D01*
X362887Y69312D01*
X362926Y69219D01*
X363234Y69092D01*
X363516Y68913D01*
X363614Y68934D01*
X363707Y68896D01*
X366396D01*
Y65000D01*
X366719Y64219D01*
X367500Y63896D01*
X371931D01*
X372442Y63673D01*
X373122Y63095D01*
Y60722D01*
X377500D01*
X381878D01*
Y63095D01*
X382558Y63673D01*
X383069Y63896D01*
X385000D01*
X385781Y64219D01*
X386104Y65000D01*
Y85000D01*
X385781Y85781D01*
X385000Y86104D01*
D02*
G37*
G36*
X164016Y81766D02*
X160508D01*
Y73008D01*
X164016D01*
Y81766D01*
D02*
G37*
G36*
X134016D02*
X130508D01*
Y73008D01*
X134016D01*
Y81766D01*
D02*
G37*
G36*
X104016D02*
X100508D01*
Y73008D01*
X104016D01*
Y81766D01*
D02*
G37*
G36*
X74016D02*
X70508D01*
Y73008D01*
X74016D01*
Y81766D01*
D02*
G37*
G36*
X69492D02*
X65984D01*
Y73008D01*
X69492D01*
Y81766D01*
D02*
G37*
G36*
X99492D02*
X95984D01*
Y73008D01*
X99492D01*
Y81766D01*
D02*
G37*
G36*
X129492D02*
X125984D01*
Y73008D01*
X129492D01*
Y81766D01*
D02*
G37*
G36*
X159492D02*
X155984D01*
Y73008D01*
X159492D01*
Y81766D01*
D02*
G37*
G36*
X164016Y71992D02*
X160508D01*
Y63234D01*
X164016D01*
Y71992D01*
D02*
G37*
G36*
X159492D02*
X155984D01*
Y63234D01*
X159492D01*
Y71992D01*
D02*
G37*
G36*
X134016D02*
X130508D01*
Y63234D01*
X134016D01*
Y71992D01*
D02*
G37*
G36*
X129492D02*
X125984D01*
Y63234D01*
X129492D01*
Y71992D01*
D02*
G37*
G36*
X104016D02*
X100508D01*
Y63234D01*
X104016D01*
Y71992D01*
D02*
G37*
G36*
X99492D02*
X95984D01*
Y63234D01*
X99492D01*
Y71992D01*
D02*
G37*
G36*
X74016D02*
X70508D01*
Y63234D01*
X74016D01*
Y71992D01*
D02*
G37*
G36*
X69492D02*
X65984D01*
Y63234D01*
X69492D01*
Y71992D01*
D02*
G37*
G36*
X184020Y81770D02*
X175980D01*
Y63230D01*
X184020D01*
Y81770D01*
D02*
G37*
G36*
X145500Y82250D02*
X144500D01*
X144230Y82250D01*
X135500D01*
Y62750D01*
X144230D01*
X144500Y62750D01*
X145500D01*
X145770Y62750D01*
X154500D01*
Y82250D01*
X145770D01*
X145500Y82250D01*
D02*
G37*
G36*
X115500D02*
X114500D01*
X114230Y82250D01*
X105500D01*
Y62750D01*
X114230D01*
X114500Y62750D01*
X115500D01*
X115770Y62750D01*
X124500D01*
Y82250D01*
X115770D01*
X115500Y82250D01*
D02*
G37*
G36*
X85500D02*
X84500D01*
X84230Y82250D01*
X75500D01*
Y62750D01*
X84230D01*
X84500Y62750D01*
X85500D01*
X85770Y62750D01*
X94500D01*
Y82250D01*
X85770D01*
X85500Y82250D01*
D02*
G37*
G36*
X381878Y59706D02*
X378008D01*
Y55622D01*
X381878D01*
Y59706D01*
D02*
G37*
G36*
X376992D02*
X373122D01*
Y55622D01*
X376992D01*
Y59706D01*
D02*
G37*
G36*
X326878Y59706D02*
X323008D01*
Y55622D01*
X326878D01*
Y59706D01*
D02*
G37*
G36*
X321992D02*
X318122D01*
Y55622D01*
X321992D01*
Y59706D01*
D02*
G37*
G36*
X354016Y59016D02*
X350508D01*
Y52508D01*
X354016D01*
Y59016D01*
D02*
G37*
G36*
X349492D02*
X345984D01*
Y52508D01*
X349492D01*
Y59016D01*
D02*
G37*
G36*
X354016Y51492D02*
X350508D01*
Y44984D01*
X354016D01*
Y51492D01*
D02*
G37*
G36*
X349492D02*
X345984D01*
Y44984D01*
X349492D01*
Y51492D01*
D02*
G37*
G36*
X164016Y45266D02*
X160508D01*
Y35508D01*
X164016D01*
Y45266D01*
D02*
G37*
G36*
X134016D02*
X130508D01*
Y35508D01*
X134016D01*
Y45266D01*
D02*
G37*
G36*
X104016D02*
X100508D01*
Y35508D01*
X104016D01*
Y45266D01*
D02*
G37*
G36*
X74016D02*
X70508D01*
Y35508D01*
X74016D01*
Y45266D01*
D02*
G37*
G36*
X69492D02*
X65984D01*
Y35508D01*
X69492D01*
Y45266D01*
D02*
G37*
G36*
X99492D02*
X95984D01*
Y35508D01*
X99492D01*
Y45266D01*
D02*
G37*
G36*
X129492D02*
X125984D01*
Y35508D01*
X129492D01*
Y45266D01*
D02*
G37*
G36*
X159492D02*
X155984D01*
Y35508D01*
X159492D01*
Y45266D01*
D02*
G37*
G36*
X164016Y34492D02*
X160508D01*
Y24734D01*
X164016D01*
Y34492D01*
D02*
G37*
G36*
X159492D02*
X155984D01*
Y24734D01*
X159492D01*
Y34492D01*
D02*
G37*
G36*
X134016D02*
X130508D01*
Y24734D01*
X134016D01*
Y34492D01*
D02*
G37*
G36*
X129492D02*
X125984D01*
Y24734D01*
X129492D01*
Y34492D01*
D02*
G37*
G36*
X104016D02*
X100508D01*
Y24734D01*
X104016D01*
Y34492D01*
D02*
G37*
G36*
X99492D02*
X95984D01*
Y24734D01*
X99492D01*
Y34492D01*
D02*
G37*
G36*
X74016D02*
X70508D01*
Y24734D01*
X74016D01*
Y34492D01*
D02*
G37*
G36*
X69492D02*
X65984D01*
Y24734D01*
X69492D01*
Y34492D01*
D02*
G37*
G36*
X214020Y81770D02*
X205980D01*
Y63230D01*
X206411D01*
Y45270D01*
X205980D01*
Y24730D01*
X214020D01*
Y45270D01*
X213589D01*
Y63230D01*
X214020D01*
Y81770D01*
D02*
G37*
G36*
X184020Y45270D02*
X175980D01*
Y24730D01*
X184020D01*
Y45270D01*
D02*
G37*
G36*
X174020Y81770D02*
X165980D01*
Y63230D01*
X167940D01*
Y45270D01*
X165980D01*
Y24730D01*
X174020D01*
Y45270D01*
X172059D01*
Y63230D01*
X174020D01*
Y81770D01*
D02*
G37*
G36*
X144500Y45750D02*
Y45750D01*
X144267Y45750D01*
X135500D01*
Y24250D01*
X141186D01*
Y19000D01*
X140454D01*
X138984Y18391D01*
X137859Y17266D01*
X137250Y15796D01*
Y14204D01*
X137859Y12734D01*
X138984Y11609D01*
X140454Y11000D01*
X142046D01*
X143516Y11609D01*
X144177Y12270D01*
X145000Y12593D01*
X145823Y12270D01*
X146484Y11609D01*
X147954Y11000D01*
X149546D01*
X151016Y11609D01*
X152141Y12734D01*
X152750Y14204D01*
Y15796D01*
X152141Y17266D01*
X151016Y18391D01*
X149546Y19000D01*
X148814D01*
Y24250D01*
X154500D01*
Y45750D01*
X145733D01*
X145500Y45750D01*
Y45750D01*
X144500D01*
D02*
G37*
G36*
X114500D02*
Y45750D01*
X114267Y45750D01*
X105500D01*
Y24250D01*
X111186D01*
Y23044D01*
X111186Y23044D01*
Y19000D01*
X110454D01*
X108984Y18391D01*
X107859Y17266D01*
X107250Y15796D01*
Y14204D01*
X107859Y12734D01*
X108984Y11609D01*
X110454Y11000D01*
X112046D01*
X113516Y11609D01*
X114177Y12270D01*
X115000Y12593D01*
X115823Y12270D01*
X116484Y11609D01*
X117954Y11000D01*
X119546D01*
X121016Y11609D01*
X122141Y12734D01*
X122750Y14204D01*
Y15796D01*
X122141Y17266D01*
X121016Y18391D01*
X119546Y19000D01*
X118814D01*
Y21793D01*
X118814Y21793D01*
Y24250D01*
X124500D01*
Y45750D01*
X115733D01*
X115500Y45750D01*
Y45750D01*
X114500D01*
D02*
G37*
G36*
X84500D02*
Y45750D01*
X84267Y45750D01*
X75500D01*
Y24250D01*
X81186D01*
Y19000D01*
X80454D01*
X78984Y18391D01*
X77859Y17266D01*
X77250Y15796D01*
Y14204D01*
X77859Y12734D01*
X78984Y11609D01*
X80454Y11000D01*
X82046D01*
X83516Y11609D01*
X84177Y12270D01*
X85000Y12593D01*
X85823Y12270D01*
X86484Y11609D01*
X87954Y11000D01*
X89546D01*
X91016Y11609D01*
X92141Y12734D01*
X92750Y14204D01*
Y15796D01*
X92141Y17266D01*
X91016Y18391D01*
X89546Y19000D01*
X88814D01*
Y24250D01*
X94500D01*
Y45750D01*
X85733D01*
X85500Y45750D01*
Y45750D01*
X84500D01*
D02*
G37*
%LPD*%
G36*
X89564Y215523D02*
X89533Y215195D01*
X88750Y214056D01*
X85508D01*
Y209508D01*
X90806D01*
Y212000D01*
X91945Y212783D01*
X92273Y212814D01*
X94190Y210897D01*
Y206000D01*
X94347Y205212D01*
X94794Y204544D01*
X95462Y204097D01*
X96250Y203940D01*
X103750D01*
X104538Y204097D01*
X105206Y204544D01*
X105210Y204549D01*
X106128Y204369D01*
X106515Y204216D01*
X107016Y203006D01*
X108006Y202016D01*
X109300Y201480D01*
X110700D01*
X111994Y202016D01*
X112663Y202686D01*
X124041D01*
X130185Y196541D01*
Y191000D01*
X130220Y190826D01*
X129174Y189780D01*
X129000Y189814D01*
X123000D01*
X122114Y189638D01*
X121996Y189560D01*
X110103D01*
X105810Y193853D01*
Y199000D01*
X105653Y199788D01*
X105206Y200456D01*
X104538Y200903D01*
X103750Y201059D01*
X96250D01*
X95462Y200903D01*
X94794Y200456D01*
X94347Y199788D01*
X94190Y199000D01*
Y198060D01*
X90809D01*
Y199000D01*
X90653Y199788D01*
X90206Y200456D01*
X89538Y200903D01*
X88750Y201060D01*
X81250D01*
X80462Y200903D01*
X79874Y200510D01*
X79448Y200603D01*
X78604Y200962D01*
Y204045D01*
X79459Y204405D01*
X79874Y204495D01*
X80463Y204101D01*
X81250Y203944D01*
X84492D01*
Y209000D01*
Y214056D01*
X81250D01*
X80463Y213899D01*
X79874Y213505D01*
X79459Y213595D01*
X78604Y213955D01*
Y220441D01*
X84647D01*
X89564Y215523D01*
D02*
G37*
G36*
X140863Y189363D02*
X141614Y188862D01*
X142500Y188686D01*
X143386Y188862D01*
X144137Y189363D01*
X145475Y189081D01*
X145517Y189017D01*
X146427Y188410D01*
X147500Y188196D01*
X148573Y188410D01*
X149142Y188790D01*
X150000Y188932D01*
X150858Y188790D01*
X151427Y188410D01*
X152500Y188196D01*
X153573Y188410D01*
X154483Y189017D01*
X154525Y189081D01*
X155863Y189363D01*
X156614Y188862D01*
X157500Y188686D01*
X158386Y188862D01*
X159137Y189363D01*
X159274Y189569D01*
X160726D01*
X160863Y189363D01*
X161614Y188862D01*
X162500Y188686D01*
X163386Y188862D01*
X164137Y189363D01*
X164274Y189569D01*
X165726D01*
X165863Y189363D01*
X166614Y188862D01*
X167500Y188686D01*
X167674Y188720D01*
X168720Y187674D01*
X168685Y187500D01*
X168862Y186614D01*
X169363Y185863D01*
X169569Y185726D01*
Y184274D01*
X169363Y184137D01*
X168862Y183386D01*
X168685Y182500D01*
X168862Y181614D01*
X169363Y180863D01*
X169569Y180726D01*
Y179274D01*
X169363Y179137D01*
X168862Y178386D01*
X168685Y177500D01*
X168862Y176614D01*
X169363Y175863D01*
X169569Y175726D01*
Y174274D01*
X169363Y174137D01*
X168862Y173386D01*
X168685Y172500D01*
X168862Y171614D01*
X169363Y170863D01*
X169569Y170726D01*
Y169274D01*
X169363Y169137D01*
X168862Y168386D01*
X168685Y167500D01*
X168862Y166614D01*
X169363Y165863D01*
X169569Y165726D01*
Y164274D01*
X169363Y164137D01*
X168862Y163386D01*
X168685Y162500D01*
X168862Y161614D01*
X169363Y160863D01*
X169569Y160726D01*
Y159274D01*
X169363Y159137D01*
X168862Y158386D01*
X168685Y157500D01*
X168862Y156614D01*
X169363Y155863D01*
X169569Y155726D01*
Y154274D01*
X169363Y154137D01*
X168862Y153386D01*
X168685Y152500D01*
X168720Y152326D01*
X167674Y151280D01*
X167500Y151314D01*
X166614Y151138D01*
X165863Y150637D01*
X165726Y150431D01*
X164274D01*
X164137Y150637D01*
X163386Y151138D01*
X162500Y151314D01*
X161614Y151138D01*
X160863Y150637D01*
X159525Y150919D01*
X159483Y150983D01*
X158573Y151590D01*
X157500Y151804D01*
X156427Y151590D01*
X155517Y150983D01*
X154483D01*
X153573Y151590D01*
X152500Y151804D01*
X151427Y151590D01*
X150858Y151210D01*
X150000Y151068D01*
X149142Y151210D01*
X148573Y151590D01*
X147500Y151804D01*
X146427Y151590D01*
X145858Y151210D01*
X145000Y151068D01*
X144142Y151210D01*
X143573Y151590D01*
X142500Y151804D01*
X141427Y151590D01*
X140858Y151210D01*
X140000Y151068D01*
X139142Y151210D01*
X138573Y151590D01*
X137500Y151804D01*
X136427Y151590D01*
X135858Y151210D01*
X135000Y151068D01*
X134142Y151210D01*
X133573Y151590D01*
X132500Y151804D01*
X132470Y151798D01*
X132051Y152052D01*
X131245Y152849D01*
X131138Y153386D01*
X130637Y154137D01*
X130431Y154274D01*
Y155726D01*
X130637Y155863D01*
X131138Y156614D01*
X131314Y157500D01*
X131138Y158386D01*
X130637Y159137D01*
X130431Y159274D01*
Y160726D01*
X130637Y160863D01*
X131138Y161614D01*
X131314Y162500D01*
X131138Y163386D01*
X130637Y164137D01*
X130431Y164274D01*
Y165726D01*
X130637Y165863D01*
X131138Y166614D01*
X131314Y167500D01*
X131138Y168386D01*
X130637Y169137D01*
X130431Y169274D01*
Y170726D01*
X130637Y170863D01*
X131138Y171614D01*
X131314Y172500D01*
X131138Y173386D01*
X130637Y174137D01*
X130431Y174274D01*
Y175726D01*
X130637Y175863D01*
X131138Y176614D01*
X131314Y177500D01*
X131138Y178386D01*
X130637Y179137D01*
X130431Y179274D01*
Y180726D01*
X130637Y180863D01*
X131138Y181614D01*
X131314Y182500D01*
X131138Y183386D01*
X130637Y184137D01*
X130431Y184274D01*
Y185726D01*
X130637Y185863D01*
X131138Y186614D01*
X131314Y187500D01*
X131280Y187674D01*
X132326Y188720D01*
X132500Y188686D01*
X133386Y188862D01*
X134137Y189363D01*
X134274Y189569D01*
X135726D01*
X135863Y189363D01*
X136614Y188862D01*
X137500Y188686D01*
X138386Y188862D01*
X139137Y189363D01*
X139274Y189569D01*
X140726D01*
X140863Y189363D01*
D02*
G37*
G36*
X77500Y177500D02*
X65707D01*
X65016Y178484D01*
Y188992D01*
X37500D01*
Y190008D01*
X65016D01*
Y200516D01*
X60000D01*
Y242500D01*
X77500D01*
X77500Y177500D01*
D02*
G37*
G36*
X234190Y155500D02*
X234347Y154712D01*
X234794Y154044D01*
X235462Y153597D01*
X236250Y153441D01*
X243750D01*
X244538Y153597D01*
X245206Y154044D01*
X245653Y154712D01*
X245666Y154780D01*
X246936Y154655D01*
Y150324D01*
X245666Y150199D01*
X245649Y150287D01*
X245203Y150954D01*
X244537Y151399D01*
X243750Y151556D01*
X240508D01*
Y146500D01*
Y141445D01*
X243750D01*
X244537Y141601D01*
X245203Y142047D01*
X245649Y142713D01*
X245666Y142801D01*
X246936Y142676D01*
Y137345D01*
X245666Y137220D01*
X245653Y137288D01*
X245206Y137956D01*
X244538Y138403D01*
X243750Y138560D01*
X237103D01*
X235330Y140333D01*
X235956Y141503D01*
X236250Y141445D01*
X239492D01*
Y145992D01*
X234195D01*
Y143500D01*
X234311Y142914D01*
X233889Y142361D01*
X233339Y141943D01*
X232750Y142060D01*
X226623D01*
X225772Y143330D01*
X225805Y143500D01*
Y145992D01*
X220000D01*
Y146500D01*
X219492D01*
Y151556D01*
X216250D01*
X215463Y151399D01*
X215017Y151101D01*
X214207Y151352D01*
X213747Y151664D01*
Y153332D01*
X214198Y153639D01*
X215017Y153894D01*
X215462Y153597D01*
X216250Y153441D01*
X223750D01*
X224538Y153597D01*
X225206Y154044D01*
X225653Y154712D01*
X225809Y155500D01*
Y155931D01*
X234190D01*
Y155500D01*
D02*
G37*
%LPC*%
G36*
X90806Y208492D02*
X85508D01*
Y203944D01*
X88750D01*
X89537Y204101D01*
X90204Y204547D01*
X90649Y205213D01*
X90806Y206000D01*
Y208492D01*
D02*
G37*
G36*
X166516Y186516D02*
X150508D01*
Y170508D01*
X166516D01*
Y186516D01*
D02*
G37*
G36*
X149492D02*
X133484D01*
Y170508D01*
X149492D01*
Y186516D01*
D02*
G37*
G36*
X166516Y169492D02*
X150508D01*
Y153484D01*
X166516D01*
Y169492D01*
D02*
G37*
G36*
X149492D02*
X133484D01*
Y153484D01*
X149492D01*
Y169492D01*
D02*
G37*
G36*
X223750Y151556D02*
X220508D01*
Y147008D01*
X225805D01*
Y149500D01*
X225649Y150287D01*
X225203Y150954D01*
X224537Y151399D01*
X223750Y151556D01*
D02*
G37*
G36*
X239492Y151556D02*
X236250D01*
X235463Y151399D01*
X234797Y150954D01*
X234351Y150287D01*
X234195Y149500D01*
Y147008D01*
X239492D01*
Y151556D01*
D02*
G37*
%LPD*%
G36*
X381703Y218766D02*
X390000D01*
Y217750D01*
X381703D01*
Y210969D01*
X380975Y210000D01*
X380000D01*
Y205000D01*
X368080D01*
X367011Y205484D01*
Y209492D01*
X360995D01*
Y210508D01*
X367011D01*
Y214516D01*
X367011D01*
Y214984D01*
X367011D01*
Y218992D01*
X360995D01*
Y220008D01*
X367011D01*
Y224016D01*
X367701Y225000D01*
X381703D01*
Y218766D01*
D02*
G37*
G36*
X332500Y215000D02*
X332500D01*
X332989Y214516D01*
Y210508D01*
X339005D01*
Y209492D01*
X332989D01*
Y205484D01*
X332500Y205000D01*
X332500D01*
Y197500D01*
X306206D01*
X306068Y197714D01*
X306115Y198010D01*
X306761Y198984D01*
X312242D01*
Y210000D01*
Y221016D01*
X306761D01*
X306115Y221990D01*
X306068Y222286D01*
X306206Y222500D01*
X332500D01*
Y215000D01*
D02*
G37*
G36*
X300000Y192500D02*
X325440D01*
Y190000D01*
X325597Y189212D01*
X326044Y188544D01*
X327500Y187087D01*
Y170000D01*
X324024D01*
X323297Y170969D01*
X323297Y171270D01*
Y177750D01*
X315000D01*
X306703D01*
Y171270D01*
X306703Y170969D01*
X305976Y170000D01*
X299024D01*
X298297Y170969D01*
X298297Y171270D01*
Y177750D01*
X290000D01*
X281703D01*
Y171270D01*
X281703Y170969D01*
X280976Y170000D01*
X277500D01*
Y222500D01*
X300000D01*
Y192500D01*
D02*
G37*
G36*
X348896Y105000D02*
X346207D01*
X345516Y105984D01*
Y109992D01*
X338000D01*
X330484D01*
Y105984D01*
X329794Y105000D01*
X320391D01*
X319378Y105622D01*
X319378Y106270D01*
Y109706D01*
X315000D01*
X310622D01*
Y106270D01*
X310622Y105622D01*
X309609Y105000D01*
X307500D01*
Y115000D01*
X309431D01*
X310622Y114807D01*
X310622Y113730D01*
Y110722D01*
X315000D01*
X319378D01*
X319378Y114807D01*
X320569Y115000D01*
X330484D01*
Y111008D01*
X338000D01*
X345516D01*
Y115000D01*
X348896D01*
Y105000D01*
D02*
G37*
G36*
X392500D02*
X390391D01*
X389378Y105622D01*
X389378Y106270D01*
Y109706D01*
X385000D01*
X380622D01*
Y106270D01*
X380622Y105622D01*
X379609Y105000D01*
X370206D01*
X369516Y105984D01*
Y109992D01*
X362000D01*
X354484D01*
Y105984D01*
X353793Y105000D01*
X350000D01*
Y115000D01*
X354484D01*
Y111008D01*
X362000D01*
X369516D01*
Y115000D01*
X379431D01*
X380622Y114807D01*
X380622Y113730D01*
Y110722D01*
X385000D01*
X389378D01*
X389378Y114807D01*
X390569Y115000D01*
X392500D01*
Y105000D01*
D02*
G37*
%LPC*%
G36*
X313258Y221016D02*
Y210508D01*
X320016D01*
Y221016D01*
X313258D01*
D02*
G37*
G36*
X320016Y209492D02*
X313258D01*
Y198984D01*
X320016D01*
Y209492D01*
D02*
G37*
G36*
X294516Y221016D02*
X287758D01*
Y210508D01*
X294516D01*
Y221016D01*
D02*
G37*
G36*
X286742D02*
X279984D01*
Y210508D01*
X286742D01*
Y221016D01*
D02*
G37*
G36*
X294516Y209492D02*
X287758D01*
Y198984D01*
X294516D01*
Y209492D01*
D02*
G37*
G36*
X286742D02*
X279984D01*
Y198984D01*
X286742D01*
Y209492D01*
D02*
G37*
G36*
X298297Y185547D02*
X290508D01*
Y178766D01*
X298297D01*
Y185547D01*
D02*
G37*
G36*
X289492D02*
X281703D01*
Y178766D01*
X289492D01*
Y185547D01*
D02*
G37*
G36*
X323297D02*
X315508D01*
Y178766D01*
X323297D01*
Y185547D01*
D02*
G37*
G36*
X314492D02*
X306703D01*
Y178766D01*
X314492D01*
Y185547D01*
D02*
G37*
%LPD*%
G36*
X385000Y65000D02*
X383069D01*
X381878Y65193D01*
X381878Y66270D01*
Y69278D01*
X377500D01*
X373122D01*
X373122Y65193D01*
X371931Y65000D01*
X367500D01*
Y70000D01*
X363707D01*
X363016Y70984D01*
Y77492D01*
X354984D01*
Y70984D01*
X354294Y70000D01*
X350000D01*
Y85000D01*
X354984D01*
Y78508D01*
X363016D01*
Y85000D01*
X385000D01*
Y65000D01*
D02*
G37*
G36*
X348896Y70000D02*
X345706D01*
X345016Y70984D01*
Y77492D01*
X336984D01*
Y70984D01*
X336293Y70000D01*
X332500D01*
Y65000D01*
X328069D01*
X326878Y65193D01*
X326878Y66270D01*
Y69277D01*
X322500D01*
X318122D01*
X318122Y65193D01*
X316931Y65000D01*
X315000D01*
Y85000D01*
X336984D01*
Y78508D01*
X345016D01*
Y85000D01*
X348896D01*
Y70000D01*
D02*
G37*
%LPC*%
G36*
X381878Y74378D02*
X378008D01*
Y70294D01*
X381878D01*
Y74378D01*
D02*
G37*
G36*
X376992D02*
X373122D01*
Y70294D01*
X376992D01*
Y74378D01*
D02*
G37*
G36*
X326878D02*
X323008D01*
Y70293D01*
X326878D01*
Y74378D01*
D02*
G37*
G36*
X321992D02*
X318122D01*
Y70293D01*
X321992D01*
Y74378D01*
D02*
G37*
%LPD*%
D10*
X157500Y202000D02*
X160000Y204500D01*
Y205000D01*
X157500Y194000D02*
Y202000D01*
X125000Y205000D02*
X132500Y197500D01*
X110000Y205000D02*
X125000D01*
X132500Y194000D02*
Y197500D01*
Y205000D02*
X137500Y200000D01*
Y194000D02*
Y200000D01*
X140000Y204188D02*
Y205000D01*
Y204188D02*
X142500Y201688D01*
Y194000D02*
Y201688D01*
D12*
X205730Y19270D02*
X229749D01*
X200000Y35000D02*
X201078Y33922D01*
Y23922D02*
Y33922D01*
Y23922D02*
X205730Y19270D01*
X190000Y28750D02*
X203750Y15000D01*
X190000Y28750D02*
Y35000D01*
X203750Y15000D02*
X231000D01*
X253000Y37000D01*
Y163000D01*
X247500Y168500D02*
X253000Y163000D01*
X243000Y168500D02*
X247500D01*
X233000Y165000D02*
X244521D01*
X226578Y171422D02*
X233000Y165000D01*
X244521D02*
X248996Y160525D01*
X219000Y172500D02*
X220078Y171422D01*
X229749Y19270D02*
X248996Y38517D01*
X200000Y35000D02*
Y72500D01*
X248996Y38517D02*
Y160525D01*
X220078Y171422D02*
X226578D01*
X174000Y177500D02*
X211500D01*
X214000Y180000D01*
X230750D01*
X239250Y171500D01*
X211688Y142312D02*
Y158312D01*
X214000Y140000D02*
X232750D01*
X211688Y142312D02*
X214000Y140000D01*
X174000Y162500D02*
X200500D01*
X208000Y140000D02*
Y155000D01*
X200500Y162500D02*
X208000Y155000D01*
Y140000D02*
X211500Y136500D01*
X162596Y194096D02*
Y198596D01*
X177000Y210500D02*
X180000Y213500D01*
X174500Y210500D02*
X177000D01*
X162596Y198596D02*
X174500Y210500D01*
X162500Y194000D02*
X162596Y194096D01*
X165832Y137185D02*
X172815D01*
X162596Y140422D02*
X165832Y137185D01*
X162596Y140422D02*
Y145904D01*
X172815Y137185D02*
X175000Y135000D01*
X162500Y146000D02*
X162596Y145904D01*
X190000Y35000D02*
Y72500D01*
X170000Y35000D02*
Y72500D01*
X72500Y222500D02*
X85500D01*
X96000Y212000D01*
X175000Y135000D02*
X182500D01*
X167500Y146000D02*
X171500D01*
X177500Y140000D01*
X182500Y135000D02*
X187500Y140000D01*
X180000Y146500D02*
X200000D01*
X174000Y152500D02*
X180000Y146500D01*
X120000Y226500D02*
X140786D01*
X142500Y224786D01*
X96000Y212000D02*
X97000D01*
X100000Y209000D01*
X352500Y114172D02*
Y126328D01*
X353672Y113000D02*
X359500D01*
X360000Y127500D02*
X362000Y129500D01*
X352500Y126328D02*
X353672Y127500D01*
X360000D01*
X352500Y114172D02*
X353672Y113000D01*
X359500D02*
X362000Y110500D01*
X327500Y190000D02*
Y200000D01*
Y190000D02*
X331989Y185511D01*
Y167855D02*
Y185511D01*
Y167855D02*
X334630Y165214D01*
X332500Y157500D02*
X347500D01*
X326984Y163016D02*
X332500Y157500D01*
X326984Y163016D02*
Y170516D01*
X319777Y173480D02*
X324020D01*
X315000Y178258D02*
X319777Y173480D01*
X324020D02*
X326984Y170516D01*
X347500Y157500D02*
X356995Y166995D01*
Y198000D01*
X359495Y200500D01*
X360995D01*
X334630Y165214D02*
X340000D01*
Y174786D02*
Y199505D01*
X339005Y200500D02*
X340000Y199505D01*
X240000Y171500D02*
X243000Y168500D01*
X239250Y171500D02*
X240000D01*
X174000Y172500D02*
X219000D01*
X240000Y121500D02*
Y133500D01*
X211500Y136500D02*
X217000D01*
X202500Y167500D02*
X211688Y158312D01*
X239250Y133500D02*
X240000D01*
X232750Y140000D02*
X239250Y133500D01*
X174000Y167500D02*
X202500D01*
X217000Y136500D02*
X220000Y133500D01*
Y121500D02*
Y133500D01*
Y121500D02*
X220000Y121500D01*
X181688Y157500D02*
X184188Y155000D01*
X174000Y157500D02*
X181688D01*
X184188Y155000D02*
X185000D01*
X110000Y170000D02*
X112500Y167500D01*
X110000Y170000D02*
Y181750D01*
X112500Y167500D02*
X126000D01*
X107750Y184000D02*
X110000Y181750D01*
X112500Y162500D02*
X126000D01*
X109000Y159000D02*
X112500Y162500D01*
X100000Y159000D02*
X109000D01*
X85000D02*
X100000D01*
Y184000D02*
X107750D01*
X85000Y184000D02*
X100000D01*
X100000Y184000D01*
X85000Y159000D02*
X85000Y159000D01*
X85000Y196000D02*
X85000Y196000D01*
X100000D01*
X109250Y187500D02*
X126000D01*
X100750Y196000D02*
X109250Y187500D01*
X100000Y196000D02*
X100750D01*
D16*
X37500Y255500D02*
D03*
Y189500D02*
D03*
D17*
X111000Y275000D02*
D03*
X124000D02*
D03*
D18*
X340000Y165214D02*
D03*
Y174786D02*
D03*
X102500Y117286D02*
D03*
Y107714D02*
D03*
X117500Y117286D02*
D03*
Y107714D02*
D03*
X172500Y117286D02*
D03*
Y107714D02*
D03*
X187500Y117286D02*
D03*
Y107714D02*
D03*
X137500Y117286D02*
D03*
Y107714D02*
D03*
X157500Y224786D02*
D03*
Y215214D02*
D03*
X152500Y117286D02*
D03*
Y107714D02*
D03*
X142500Y224786D02*
D03*
Y215214D02*
D03*
X200000Y224786D02*
D03*
Y215214D02*
D03*
Y190214D02*
D03*
Y199786D02*
D03*
X315000Y119786D02*
D03*
Y110214D02*
D03*
X385000Y119786D02*
D03*
Y110214D02*
D03*
X322500Y60214D02*
D03*
Y69786D02*
D03*
X377500Y60214D02*
D03*
Y69786D02*
D03*
D19*
X221500Y199000D02*
D03*
Y221000D02*
D03*
X238500D02*
D03*
Y199000D02*
D03*
D20*
X220000Y158500D02*
D03*
Y171500D02*
D03*
X240000Y158500D02*
D03*
Y171500D02*
D03*
X100000Y146000D02*
D03*
Y159000D02*
D03*
Y171000D02*
D03*
Y184000D02*
D03*
Y209000D02*
D03*
Y196000D02*
D03*
X85000Y159000D02*
D03*
Y146000D02*
D03*
Y184000D02*
D03*
Y171000D02*
D03*
Y196000D02*
D03*
Y209000D02*
D03*
X220000Y108500D02*
D03*
Y121500D02*
D03*
X220000Y133500D02*
D03*
Y146500D02*
D03*
X240000Y108500D02*
D03*
Y121500D02*
D03*
X120000Y226500D02*
D03*
Y213500D02*
D03*
X240000Y133500D02*
D03*
Y146500D02*
D03*
X180000Y213500D02*
D03*
Y226500D02*
D03*
X200000Y133500D02*
D03*
Y146500D02*
D03*
D21*
X150000Y170000D02*
D03*
D22*
X167500Y146000D02*
D03*
X162500D02*
D03*
X157500D02*
D03*
X152500D02*
D03*
X147500D02*
D03*
X142500D02*
D03*
X137500D02*
D03*
X132500D02*
D03*
Y194000D02*
D03*
X137500D02*
D03*
X142500D02*
D03*
X147500D02*
D03*
X152500D02*
D03*
X157500D02*
D03*
X162500D02*
D03*
X167500D02*
D03*
D23*
X126000Y152500D02*
D03*
Y157500D02*
D03*
Y162500D02*
D03*
Y167500D02*
D03*
Y172500D02*
D03*
Y177500D02*
D03*
Y182500D02*
D03*
Y187500D02*
D03*
X174000D02*
D03*
Y182500D02*
D03*
Y177500D02*
D03*
Y172500D02*
D03*
Y167500D02*
D03*
Y162500D02*
D03*
Y157500D02*
D03*
Y152500D02*
D03*
D24*
X210000Y72500D02*
D03*
X200000D02*
D03*
X190000D02*
D03*
X180000D02*
D03*
X170000D02*
D03*
X160000D02*
D03*
X150000D02*
D03*
X140000D02*
D03*
X130000D02*
D03*
X120000D02*
D03*
X110000D02*
D03*
X100000D02*
D03*
X90000D02*
D03*
X80000D02*
D03*
X70000D02*
D03*
D25*
X210000Y35000D02*
D03*
X200000D02*
D03*
X190000D02*
D03*
X180000D02*
D03*
X170000D02*
D03*
X160000D02*
D03*
X150000D02*
D03*
X140000D02*
D03*
X130000D02*
D03*
X120000D02*
D03*
X110000D02*
D03*
X100000D02*
D03*
X90000D02*
D03*
X80000D02*
D03*
X70000D02*
D03*
D26*
X222000Y279500D02*
D03*
X238000D02*
D03*
X222000Y270500D02*
D03*
X238000D02*
D03*
D27*
X160000Y270825D02*
D03*
X155000D02*
D03*
X145000D02*
D03*
X140000D02*
D03*
Y279175D02*
D03*
X145000D02*
D03*
X155000D02*
D03*
X160000D02*
D03*
D28*
X156350Y250000D02*
D03*
X143650D02*
D03*
D29*
X130200D02*
D03*
X104800D02*
D03*
D30*
X85000Y273258D02*
D03*
Y256742D02*
D03*
X390000Y218258D02*
D03*
Y201742D02*
D03*
X315000Y178258D02*
D03*
Y161742D02*
D03*
X290000Y178258D02*
D03*
Y161742D02*
D03*
D31*
X362000Y110500D02*
D03*
Y120000D02*
D03*
Y129500D02*
D03*
X338000D02*
D03*
Y110500D02*
D03*
D32*
X359000Y78000D02*
D03*
X341000D02*
D03*
X350000Y52000D02*
D03*
D33*
X339005Y200500D02*
D03*
Y210000D02*
D03*
Y219500D02*
D03*
X360995D02*
D03*
Y210000D02*
D03*
Y200500D02*
D03*
D34*
X287250Y210000D02*
D03*
X312750D02*
D03*
D41*
X150000Y270825D02*
D03*
Y279175D02*
D03*
D47*
X150000Y307071D02*
G03*
X155000Y295000I17071J0D01*
G01*
X160000Y282929D02*
G03*
X155000Y295000I-17071J0D01*
G01*
X157500Y260000D02*
G03*
X160000Y266035I-6036J6036D01*
G01*
X157500Y260000D02*
G03*
X156350Y257224I2776J-2776D01*
G01*
X150000Y307071D02*
Y350000D01*
X160000Y279175D02*
Y282929D01*
X150000Y350000D02*
X150000Y350000D01*
X160000Y270825D02*
Y279175D01*
X156350Y250000D02*
Y257224D01*
X160000Y266035D02*
Y270825D01*
X156350Y250000D02*
X157500Y248850D01*
Y224786D02*
Y248850D01*
D48*
X214763Y207780D02*
X230720D01*
X238500Y200000D01*
X194010Y209010D02*
X199110D01*
X181864Y204000D02*
X189000D01*
X192241Y207241D02*
X194010Y209010D01*
X170140Y192275D02*
X181864Y204000D01*
X183115Y200980D02*
X190251D01*
X195261Y205990D01*
Y205990D01*
X192241Y207241D02*
Y207241D01*
X189000Y204000D02*
X192241Y207241D01*
X172275Y190140D02*
X183115Y200980D01*
X195261Y205990D02*
X199110D01*
X202602Y209900D02*
X203493Y209010D01*
X202602Y209900D02*
Y212612D01*
X203493Y209010D02*
X211722D01*
X213512Y210800D01*
X225850D01*
X226740Y211691D01*
X221500Y221000D02*
X226740Y215760D01*
Y211691D02*
Y215760D01*
X200000Y215214D02*
X202602Y212612D01*
Y202388D02*
Y205100D01*
X200000Y199786D02*
X202602Y202388D01*
Y205100D02*
X203493Y205990D01*
X212973D01*
X214763Y207780D01*
X238500Y199000D02*
Y200000D01*
X167500Y192728D02*
Y194000D01*
X167953Y192275D02*
X170140D01*
X167500Y192728D02*
X167953Y192275D01*
X199110Y209010D02*
X200000Y209900D01*
Y215214D01*
X172275Y187953D02*
X172728Y187500D01*
X172275Y187953D02*
Y190140D01*
X200000Y199786D02*
Y205100D01*
X172728Y187500D02*
X174000D01*
X199110Y205990D02*
X200000Y205100D01*
X143490Y120993D02*
Y131541D01*
X143490Y131541D02*
Y141745D01*
Y131541D02*
X143490Y131541D01*
X146510Y132792D02*
Y141745D01*
X146510Y120993D02*
Y132792D01*
X146510Y132792D02*
X146510Y132792D01*
X137500Y142735D02*
Y146000D01*
X136510Y141745D02*
X137500Y142735D01*
X127718Y129427D02*
X136510Y138219D01*
X111510Y122038D02*
X118899Y129427D01*
X127718D01*
X111510Y120778D02*
X112400Y119888D01*
X111510Y120778D02*
Y122038D01*
X114898Y119888D02*
X117500Y117286D01*
X112400Y119888D02*
X114898D01*
X136510Y138219D02*
Y141745D01*
X132500Y142735D02*
Y146000D01*
X117648Y132447D02*
X126467D01*
X108490Y123288D02*
X117648Y132447D01*
X108490Y120778D02*
Y123288D01*
X133490Y139470D02*
Y141745D01*
X126467Y132447D02*
X133490Y139470D01*
X132500Y142735D02*
X133490Y141745D01*
X102500Y117286D02*
X105102Y119888D01*
X107600D01*
X108490Y120778D01*
X152500Y142735D02*
X153490Y141745D01*
Y137775D02*
Y141745D01*
X162319Y128946D02*
X171796D01*
X178490Y122252D01*
X153490Y137775D02*
X162319Y128946D01*
X178490Y120993D02*
Y122252D01*
X175102Y120102D02*
X177600D01*
X152500Y142735D02*
Y146000D01*
X172500Y117286D02*
Y117500D01*
X175102Y120102D01*
X177600D02*
X178490Y120993D01*
X173047Y131966D02*
X181510Y123503D01*
X163570Y131966D02*
X173047D01*
X181510Y120993D02*
X182400Y120102D01*
X156510Y139026D02*
Y141745D01*
X182400Y120102D02*
X184898D01*
X181510Y120993D02*
Y123503D01*
X187500Y117286D02*
Y117500D01*
X156510Y141745D02*
X157500Y142735D01*
X184898Y120102D02*
X187500Y117500D01*
X156510Y139026D02*
X163570Y131966D01*
X157500Y142735D02*
Y146000D01*
X142500Y142735D02*
X143490Y141745D01*
X142500Y142735D02*
Y146000D01*
X137500Y117286D02*
Y117500D01*
X140102Y120102D02*
X142600D01*
X137500Y117500D02*
X140102Y120102D01*
X142600D02*
X143490Y120993D01*
X147500Y142735D02*
Y146000D01*
X146510Y141745D02*
X147500Y142735D01*
X146510Y120993D02*
X147400Y120102D01*
X149898D01*
X152500Y117286D02*
Y117500D01*
X149898Y120102D02*
X152500Y117500D01*
X184898Y104898D02*
X187500Y107500D01*
X182400Y104898D02*
X184898D01*
X181510Y104007D02*
X182400Y104898D01*
X181510Y100208D02*
Y104007D01*
X181510Y100208D02*
X181510Y100208D01*
X181510Y97630D02*
Y100208D01*
Y97630D02*
X183750Y95390D01*
Y95000D02*
Y95390D01*
X187500Y107500D02*
Y107714D01*
X176250Y95390D02*
X178490Y97630D01*
X178490Y101459D02*
Y104007D01*
X172500Y107500D02*
X175102Y104898D01*
X172500Y107500D02*
Y107714D01*
X178490Y97630D02*
Y101459D01*
X177600Y104898D02*
X178490Y104007D01*
X178490Y101459D02*
X178490Y101459D01*
X175102Y104898D02*
X177600D01*
X176250Y95000D02*
Y95390D01*
X108490Y97630D02*
Y101459D01*
X102500Y107500D02*
X105102Y104898D01*
X107600D02*
X108490Y104007D01*
Y101459D02*
Y104007D01*
X108490Y101459D02*
X108490Y101459D01*
X102500Y107500D02*
Y107714D01*
X105102Y104898D02*
X107600D01*
X106250Y95390D02*
X108490Y97630D01*
X106250Y95000D02*
Y95390D01*
X117500Y107500D02*
Y107714D01*
X114898Y104898D02*
X117500Y107500D01*
X112400Y104898D02*
X114898D01*
X111510Y104007D02*
X112400Y104898D01*
X111510Y100208D02*
X111510Y100208D01*
X111510Y97630D02*
Y100208D01*
X113750Y95000D02*
Y95390D01*
X111510Y100208D02*
Y104007D01*
X111510Y97630D02*
X113750Y95390D01*
X149898Y104898D02*
X152500Y107500D01*
Y107714D01*
X146510Y100208D02*
X146510Y100208D01*
X146510Y97630D02*
X148750Y95390D01*
X146510Y100208D02*
Y104007D01*
X147400Y104898D01*
X148750Y95000D02*
Y95390D01*
X146510Y97630D02*
Y100208D01*
X147400Y104898D02*
X149898D01*
X143490Y101459D02*
X143490Y101459D01*
X142600Y104898D02*
X143490Y104007D01*
X140102Y104898D02*
X142600D01*
X143490Y97630D02*
Y101459D01*
X137500Y107500D02*
X140102Y104898D01*
X143490Y101459D02*
Y104007D01*
X137500Y107500D02*
Y107714D01*
X141250Y95000D02*
Y95390D01*
X143490Y97630D01*
X141250Y15000D02*
Y15390D01*
X143490Y17630D01*
X142599Y26510D02*
X143490Y25620D01*
X142240Y26510D02*
X142599D01*
X140000Y28750D02*
Y35000D01*
X143490Y17630D02*
Y25620D01*
X140000Y28750D02*
X142240Y26510D01*
X146510Y25620D02*
X147400Y26510D01*
X148750Y15000D02*
Y15390D01*
X146510Y17630D02*
X148750Y15390D01*
X150000Y28750D02*
Y35000D01*
X147760Y26510D02*
X150000Y28750D01*
X147400Y26510D02*
X147760D01*
X146510Y17630D02*
Y25620D01*
X116510Y21793D02*
Y25620D01*
X116510Y21793D02*
X116510Y21793D01*
X117401Y26510D02*
X117760D01*
X116510Y17630D02*
X118750Y15390D01*
X120000Y28750D02*
Y35000D01*
X117760Y26510D02*
X120000Y28750D01*
X116510Y25620D02*
X117401Y26510D01*
X116510Y17630D02*
Y21793D01*
X118750Y15000D02*
Y15390D01*
X111250Y15000D02*
Y15390D01*
X113490Y17630D01*
Y23044D02*
X113490Y23044D01*
X112599Y26510D02*
X113490Y25620D01*
X112240Y26510D02*
X112599D01*
X110000Y28750D02*
Y35000D01*
X113490Y23044D02*
Y25620D01*
X113490Y17630D02*
Y23044D01*
X110000Y28750D02*
X112240Y26510D01*
X81250Y15000D02*
Y15390D01*
X82240Y26510D02*
X82599D01*
X83490Y17630D02*
Y25620D01*
X81250Y15390D02*
X83490Y17630D01*
X82599Y26510D02*
X83490Y25620D01*
X80000Y28750D02*
Y35000D01*
Y28750D02*
X82240Y26510D01*
X87760D02*
X90000Y28750D01*
X86510Y25620D02*
X87400Y26510D01*
X86510Y17630D02*
Y25620D01*
X88750Y15000D02*
Y15390D01*
X90000Y28750D02*
Y35000D01*
X87400Y26510D02*
X87760D01*
X86510Y17630D02*
X88750Y15390D01*
D49*
X210000Y35000D02*
Y72500D01*
X45000Y255000D02*
X46742Y256742D01*
X85000D01*
X104800Y255992D02*
Y269550D01*
X104050Y256742D02*
X104800Y255992D01*
X85000Y256742D02*
X104050D01*
X104800Y250000D02*
Y255992D01*
X108250Y273000D02*
X109500D01*
X110250Y273750D01*
Y275000D01*
X104800Y269550D02*
X108250Y273000D01*
X125500D02*
X126750D01*
X124750Y273750D02*
X125500Y273000D01*
X124750Y273750D02*
Y275000D01*
X130200Y250000D02*
Y269550D01*
X126750Y273000D02*
X130200Y269550D01*
Y250000D02*
X143650D01*
D50*
X360922Y129750D02*
X361172Y129500D01*
X362000D01*
X360922Y129750D02*
Y130503D01*
X348925Y142500D02*
X360922Y130503D01*
X277500Y142500D02*
X348925D01*
X270000Y150000D02*
X277500Y142500D01*
X270000Y172500D02*
X275000Y177500D01*
X270000Y150000D02*
Y172500D01*
X289242Y177500D02*
X290000Y178258D01*
X275000Y177500D02*
X289242D01*
D51*
X205000Y121500D02*
X215500Y111000D01*
X200000Y126500D02*
X205000Y121500D01*
X220000Y158500D02*
X240000D01*
X215500Y111000D02*
X217500D01*
X220000Y108500D01*
X240000D01*
X200000Y126500D02*
Y133500D01*
D52*
X147500Y194000D02*
Y197262D01*
X148600Y198362D01*
X147838Y212288D02*
X148600Y211526D01*
X145212Y212288D02*
X147838D01*
X151400Y198362D02*
Y211526D01*
X148600Y198362D02*
Y211526D01*
X152500Y194000D02*
Y197262D01*
X142500Y215000D02*
Y215214D01*
X157500Y215000D02*
Y215214D01*
X154788Y212288D02*
X157500Y215000D01*
X151400Y198362D02*
X152500Y197262D01*
X142500Y215000D02*
X145212Y212288D01*
X151400Y211526D02*
X152162Y212288D01*
X154788D01*
D53*
X124600Y324600D02*
D03*
X175400D02*
D03*
Y375400D02*
D03*
X124600D02*
D03*
D54*
X150000Y350000D02*
D03*
D55*
X160000Y205000D02*
D03*
X170000Y35000D02*
D03*
X210000D02*
D03*
Y72500D02*
D03*
X136250Y90000D02*
D03*
X153750Y10000D02*
D03*
X148750Y15000D02*
D03*
X141250D02*
D03*
X136250Y10000D02*
D03*
X118750Y15000D02*
D03*
X111250D02*
D03*
X106250Y10000D02*
D03*
X123750D02*
D03*
X93750D02*
D03*
X76250D02*
D03*
X81250Y15000D02*
D03*
X88750D02*
D03*
X113750Y95000D02*
D03*
X106250D02*
D03*
X101250Y90000D02*
D03*
X118750D02*
D03*
X183750Y95000D02*
D03*
X176250D02*
D03*
X171250Y90000D02*
D03*
X188750D02*
D03*
X153750D02*
D03*
X141250Y95000D02*
D03*
X148750D02*
D03*
X82500Y217500D02*
D03*
X344999Y360000D02*
D03*
X404999D02*
D03*
X389999Y330000D02*
D03*
X404999Y300000D02*
D03*
X389999Y270000D02*
D03*
Y150000D02*
D03*
Y30000D02*
D03*
X374999Y360000D02*
D03*
Y300000D02*
D03*
X299999Y30000D02*
D03*
X284999Y60000D02*
D03*
X269999Y30000D02*
D03*
X29999Y390000D02*
D03*
Y270000D02*
D03*
Y210000D02*
D03*
Y150000D02*
D03*
X44999Y120000D02*
D03*
X29999Y90000D02*
D03*
Y30000D02*
D03*
X382500Y217500D02*
D03*
X72500Y230000D02*
D03*
X375000Y217500D02*
D03*
X390000D02*
D03*
X72500Y237500D02*
D03*
Y222500D02*
D03*
X240000Y146500D02*
D03*
X290000Y152500D02*
D03*
X302500D02*
D03*
X290000Y161742D02*
D03*
X252500Y300000D02*
D03*
X315000Y110214D02*
D03*
X322500Y69786D02*
D03*
X100000Y171000D02*
D03*
Y146000D02*
D03*
X359000Y78000D02*
D03*
X362000Y129500D02*
D03*
X290000Y178258D02*
D03*
X220000Y158500D02*
D03*
X205000Y121500D02*
D03*
X177500Y140000D02*
D03*
X187500D02*
D03*
X238000Y270500D02*
D03*
Y279500D02*
D03*
X222000Y270500D02*
D03*
Y279500D02*
D03*
X130000Y220000D02*
D03*
X110000D02*
D03*
X185000Y155000D02*
D03*
X132500Y205000D02*
D03*
X140000D02*
D03*
X110000D02*
D03*
X139000Y181000D02*
D03*
X150000D02*
D03*
X161000D02*
D03*
X139000Y170000D02*
D03*
X150000D02*
D03*
X161000D02*
D03*
X139000Y159000D02*
D03*
X150000D02*
D03*
X161000D02*
D03*
M02*
