G04*
G04 #@! TF.GenerationSoftware,Altium Limited,Altium Designer,25.4.2 (15)*
G04*
G04 Layer_Physical_Order=3*
G04 Layer_Color=3150156*
%FSLAX44Y44*%
%MOMM*%
G71*
G04*
G04 #@! TF.SameCoordinates,5F170E18-AE9B-4548-A8C9-3BBCEC37DE95*
G04*
G04*
G04 #@! TF.FilePolarity,Positive*
G04*
G01*
G75*
%ADD15C,0.5000*%
%ADD18C,0.2540*%
%ADD106C,2.8500*%
%ADD107R,2.6500X2.6500*%
%ADD108C,2.6500*%
%ADD113C,0.3000*%
%ADD116C,2.1500*%
%ADD118C,0.5000*%
%ADD119C,0.7500*%
%ADD120C,4.0000*%
%ADD121C,1.0000*%
%ADD122C,2.0000*%
%ADD123C,0.7500*%
%ADD124C,0.7500*%
G36*
X1055000Y1557962D02*
X1057488Y1557962D01*
X1062421Y1557313D01*
X1067228Y1556025D01*
X1071826Y1554120D01*
X1076135Y1551632D01*
X1080083Y1548603D01*
X1083602Y1545085D01*
X1086631Y1541137D01*
X1089119Y1536827D01*
X1091023Y1532230D01*
X1092311Y1527423D01*
X1092961Y1522490D01*
X1092961Y1520001D01*
X1092961Y40002D01*
Y37513D01*
X1092311Y32580D01*
X1091023Y27773D01*
X1089119Y23176D01*
X1086631Y18866D01*
X1083602Y14918D01*
X1080083Y11400D01*
X1076135Y8370D01*
X1071826Y5882D01*
X1067228Y3978D01*
X1062422Y2690D01*
X1057488Y2041D01*
X1055000Y2041D01*
X40000Y2040D01*
X37512D01*
X32578Y2690D01*
X27772Y3978D01*
X23174Y5882D01*
X18865Y8370D01*
X14917Y11400D01*
X11398Y14918D01*
X8369Y18866D01*
X5881Y23176D01*
X3977Y27773D01*
X2689Y32580D01*
X2039Y37513D01*
X2039Y40001D01*
X2039Y1520002D01*
Y1522490D01*
X2688Y1527423D01*
X3976Y1532230D01*
X5881Y1536827D01*
X8369Y1541137D01*
X11398Y1545085D01*
X14917Y1548603D01*
X18865Y1551633D01*
X23174Y1554121D01*
X27772Y1556025D01*
X32578Y1557313D01*
X37512Y1557962D01*
X40000D01*
X1055000Y1557962D01*
D02*
G37*
%LPC*%
G36*
X837635Y1535352D02*
X836044D01*
X834574Y1534742D01*
X833448Y1533617D01*
X832839Y1532147D01*
Y1530556D01*
X833448Y1529086D01*
X834574Y1527960D01*
X836044Y1527352D01*
X837635D01*
X839105Y1527960D01*
X840230Y1529086D01*
X840839Y1530556D01*
Y1532147D01*
X840230Y1533617D01*
X839105Y1534742D01*
X837635Y1535352D01*
D02*
G37*
G36*
X815796Y1526501D02*
X814204D01*
X812734Y1525892D01*
X811609Y1524767D01*
X811000Y1523297D01*
Y1521706D01*
X811609Y1520236D01*
X812734Y1519110D01*
X814204Y1518501D01*
X815796D01*
X817266Y1519110D01*
X818391Y1520236D01*
X819000Y1521706D01*
Y1523297D01*
X818391Y1524767D01*
X817266Y1525892D01*
X815796Y1526501D01*
D02*
G37*
G36*
X837635Y1522652D02*
X836044D01*
X834574Y1522043D01*
X833448Y1520917D01*
X832839Y1519447D01*
Y1517856D01*
X833448Y1516386D01*
X834574Y1515260D01*
X836044Y1514651D01*
X837635D01*
X839105Y1515260D01*
X840230Y1516386D01*
X840839Y1517856D01*
Y1519447D01*
X840230Y1520917D01*
X839105Y1522043D01*
X837635Y1522652D01*
D02*
G37*
G36*
Y1509951D02*
X836044D01*
X834574Y1509342D01*
X833448Y1508217D01*
X832839Y1506747D01*
Y1505156D01*
X833448Y1503686D01*
X834574Y1502560D01*
X836044Y1501951D01*
X837635D01*
X839105Y1502560D01*
X840230Y1503686D01*
X840839Y1505156D01*
Y1506747D01*
X840230Y1508217D01*
X839105Y1509342D01*
X837635Y1509951D01*
D02*
G37*
G36*
X869049Y1483768D02*
X865951D01*
X862959Y1482966D01*
X860275Y1481417D01*
X858085Y1479226D01*
X856536Y1476543D01*
X855734Y1473551D01*
Y1470453D01*
X856536Y1467460D01*
X858085Y1464777D01*
X860275Y1462586D01*
X862959Y1461037D01*
X865951Y1460235D01*
X869049D01*
X872041Y1461037D01*
X874725Y1462586D01*
X876915Y1464777D01*
X878464Y1467460D01*
X879266Y1470453D01*
Y1473551D01*
X878464Y1476543D01*
X876915Y1479226D01*
X874725Y1481417D01*
X872041Y1482966D01*
X869049Y1483768D01*
D02*
G37*
G36*
X734049D02*
X730951D01*
X727959Y1482966D01*
X725275Y1481417D01*
X723085Y1479226D01*
X721536Y1476543D01*
X720734Y1473551D01*
Y1470453D01*
X721536Y1467460D01*
X723085Y1464777D01*
X725275Y1462586D01*
X727959Y1461037D01*
X730951Y1460235D01*
X734049D01*
X737041Y1461037D01*
X739725Y1462586D01*
X741915Y1464777D01*
X743464Y1467460D01*
X744266Y1470453D01*
Y1473551D01*
X743464Y1476543D01*
X741915Y1479226D01*
X739725Y1481417D01*
X737041Y1482966D01*
X734049Y1483768D01*
D02*
G37*
G36*
X652984Y1461272D02*
X650016D01*
X647150Y1460504D01*
X644580Y1459020D01*
X642482Y1456922D01*
X640998Y1454352D01*
X640230Y1451485D01*
Y1448518D01*
X640998Y1445652D01*
X642482Y1443082D01*
X644580Y1440983D01*
X647150Y1439500D01*
X650016Y1438732D01*
X652984D01*
X655850Y1439500D01*
X658420Y1440983D01*
X660518Y1443082D01*
X662002Y1445652D01*
X662770Y1448518D01*
Y1451485D01*
X662002Y1454352D01*
X660518Y1456922D01*
X658420Y1459020D01*
X655850Y1460504D01*
X652984Y1461272D01*
D02*
G37*
G36*
X1007150Y1471752D02*
X1003850D01*
X1000614Y1471108D01*
X997566Y1469845D01*
X994822Y1468012D01*
X992489Y1465679D01*
X990656Y1462936D01*
X989394Y1459887D01*
X988750Y1456651D01*
Y1453352D01*
X989394Y1450116D01*
X990656Y1447067D01*
X992489Y1444324D01*
X994822Y1441991D01*
X997566Y1440158D01*
X1000614Y1438895D01*
X1003850Y1438251D01*
X1007150D01*
X1010386Y1438895D01*
X1013434Y1440158D01*
X1016178Y1441991D01*
X1018511Y1444324D01*
X1020344Y1447067D01*
X1021606Y1450116D01*
X1022250Y1453352D01*
Y1456651D01*
X1021606Y1459887D01*
X1020344Y1462936D01*
X1018511Y1465679D01*
X1016178Y1468012D01*
X1013434Y1469845D01*
X1010386Y1471108D01*
X1007150Y1471752D01*
D02*
G37*
G36*
X869049Y1449767D02*
X865951D01*
X862959Y1448966D01*
X860275Y1447417D01*
X858085Y1445226D01*
X856536Y1442543D01*
X855734Y1439550D01*
Y1436452D01*
X856536Y1433460D01*
X858085Y1430777D01*
X860275Y1428586D01*
X862959Y1427037D01*
X865951Y1426236D01*
X869049D01*
X872041Y1427037D01*
X874725Y1428586D01*
X876915Y1430777D01*
X878464Y1433460D01*
X879266Y1436452D01*
Y1439550D01*
X878464Y1442543D01*
X876915Y1445226D01*
X874725Y1447417D01*
X872041Y1448966D01*
X869049Y1449767D01*
D02*
G37*
G36*
X734049D02*
X730951D01*
X727959Y1448966D01*
X725275Y1447417D01*
X723085Y1445226D01*
X721536Y1442543D01*
X720734Y1439550D01*
Y1436452D01*
X721536Y1433460D01*
X723085Y1430777D01*
X725275Y1428586D01*
X727959Y1427037D01*
X730951Y1426236D01*
X734049D01*
X737041Y1427037D01*
X739725Y1428586D01*
X741915Y1430777D01*
X743464Y1433460D01*
X744266Y1436452D01*
Y1439550D01*
X743464Y1442543D01*
X741915Y1445226D01*
X739725Y1447417D01*
X737041Y1448966D01*
X734049Y1449767D01*
D02*
G37*
G36*
X183296Y1394001D02*
X181704D01*
X180234Y1393392D01*
X179379Y1392537D01*
X178750Y1392365D01*
X178121Y1392537D01*
X177266Y1393392D01*
X175796Y1394001D01*
X174204D01*
X172734Y1393392D01*
X171879Y1392537D01*
X171250Y1392365D01*
X170621Y1392537D01*
X169766Y1393392D01*
X168296Y1394001D01*
X166704D01*
X165234Y1393392D01*
X164109Y1392267D01*
X163500Y1390797D01*
Y1389206D01*
X164109Y1387736D01*
X165234Y1386611D01*
X166704Y1386001D01*
X168296D01*
X169766Y1386611D01*
X170621Y1387466D01*
X171250Y1387638D01*
X171879Y1387466D01*
X172734Y1386611D01*
X174204Y1386001D01*
X175796D01*
X177266Y1386611D01*
X178121Y1387466D01*
X178750Y1387638D01*
X179379Y1387466D01*
X180234Y1386611D01*
X181704Y1386001D01*
X183296D01*
X184766Y1386611D01*
X185891Y1387736D01*
X186500Y1389206D01*
Y1390797D01*
X185891Y1392267D01*
X184766Y1393392D01*
X183296Y1394001D01*
D02*
G37*
G36*
X20796Y1399000D02*
X19204D01*
X17734Y1398391D01*
X16609Y1397266D01*
X16000Y1395796D01*
Y1394204D01*
X16609Y1392734D01*
X17734Y1391609D01*
X19204Y1391000D01*
X20796D01*
X22266Y1391609D01*
X23391Y1392734D01*
X24000Y1394204D01*
Y1395796D01*
X23391Y1397266D01*
X22266Y1398391D01*
X20796Y1399000D01*
D02*
G37*
G36*
X837635Y1395352D02*
X836044D01*
X834574Y1394742D01*
X833448Y1393617D01*
X832839Y1392147D01*
Y1390556D01*
X833448Y1389086D01*
X834574Y1387960D01*
X836044Y1387352D01*
X837635D01*
X839105Y1387960D01*
X840230Y1389086D01*
X840839Y1390556D01*
Y1392147D01*
X840230Y1393617D01*
X839105Y1394742D01*
X837635Y1395352D01*
D02*
G37*
G36*
X221247Y1394526D02*
X218753D01*
X216448Y1393571D01*
X214685Y1391808D01*
X213730Y1389503D01*
Y1387009D01*
X214685Y1384704D01*
X216448Y1382940D01*
X218753Y1381986D01*
X221247D01*
X223552Y1382940D01*
X225315Y1384704D01*
X226270Y1387009D01*
Y1389503D01*
X225315Y1391808D01*
X223552Y1393571D01*
X221247Y1394526D01*
D02*
G37*
G36*
X815796Y1386501D02*
X814204D01*
X812734Y1385892D01*
X811609Y1384767D01*
X811000Y1383297D01*
Y1381706D01*
X811609Y1380236D01*
X812734Y1379110D01*
X814204Y1378501D01*
X815796D01*
X817266Y1379110D01*
X818391Y1380236D01*
X819000Y1381706D01*
Y1383297D01*
X818391Y1384767D01*
X817266Y1385892D01*
X815796Y1386501D01*
D02*
G37*
G36*
X140796Y1380950D02*
X139204D01*
X137734Y1380341D01*
X136609Y1379216D01*
X136000Y1377746D01*
Y1376889D01*
X135918Y1376513D01*
X134899Y1376006D01*
X134151Y1376193D01*
X134000Y1376889D01*
Y1377746D01*
X133391Y1379216D01*
X132266Y1380341D01*
X130796Y1380950D01*
X129204D01*
X127734Y1380341D01*
X126609Y1379216D01*
X126000Y1377746D01*
Y1376154D01*
X126609Y1374684D01*
X127734Y1373559D01*
X129204Y1372950D01*
X130061D01*
X130757Y1372799D01*
X130944Y1372051D01*
X130437Y1371032D01*
X130061Y1370950D01*
X129204D01*
X127734Y1370341D01*
X126609Y1369216D01*
X126000Y1367746D01*
Y1366154D01*
X126609Y1364684D01*
X127734Y1363559D01*
X129204Y1362950D01*
X130796D01*
X132266Y1363559D01*
X133391Y1364684D01*
X134000Y1366154D01*
Y1367011D01*
X134151Y1367707D01*
X134899Y1367894D01*
X135918Y1367387D01*
X136000Y1367011D01*
Y1366154D01*
X136609Y1364684D01*
X137734Y1363559D01*
X139204Y1362950D01*
X140796D01*
X142266Y1363559D01*
X143391Y1364684D01*
X144000Y1366154D01*
Y1367746D01*
X143391Y1369216D01*
X142266Y1370341D01*
X140796Y1370950D01*
X139939D01*
X139431Y1371060D01*
X139076Y1371950D01*
X139432Y1372840D01*
X139939Y1372950D01*
X140796D01*
X142266Y1373559D01*
X143391Y1374684D01*
X144000Y1376154D01*
Y1377746D01*
X143391Y1379216D01*
X142266Y1380341D01*
X140796Y1380950D01*
D02*
G37*
G36*
X1042378Y1404267D02*
X1038622D01*
X1034994Y1403295D01*
X1031740Y1401417D01*
X1029084Y1398761D01*
X1027206Y1395508D01*
X1026234Y1391880D01*
Y1388123D01*
X1027206Y1384495D01*
X1029084Y1381242D01*
X1031740Y1378586D01*
X1034994Y1376708D01*
X1038622Y1375735D01*
X1042378D01*
X1046006Y1376708D01*
X1049259Y1378586D01*
X1051916Y1381242D01*
X1053794Y1384495D01*
X1054766Y1388123D01*
Y1391880D01*
X1053794Y1395508D01*
X1051916Y1398761D01*
X1049259Y1401417D01*
X1046006Y1403295D01*
X1042378Y1404267D01*
D02*
G37*
G36*
X962378D02*
X958622D01*
X954994Y1403295D01*
X951740Y1401417D01*
X949084Y1398761D01*
X947206Y1395508D01*
X946234Y1391880D01*
Y1388123D01*
X947206Y1384495D01*
X949084Y1381242D01*
X951740Y1378586D01*
X954994Y1376708D01*
X958622Y1375735D01*
X962378D01*
X966006Y1376708D01*
X969259Y1378586D01*
X971916Y1381242D01*
X973794Y1384495D01*
X974766Y1388123D01*
Y1391880D01*
X973794Y1395508D01*
X971916Y1398761D01*
X969259Y1401417D01*
X966006Y1403295D01*
X962378Y1404267D01*
D02*
G37*
G36*
X837635Y1382652D02*
X836044D01*
X834574Y1382043D01*
X833448Y1380917D01*
X832839Y1379447D01*
Y1377856D01*
X833448Y1376386D01*
X834574Y1375260D01*
X836044Y1374651D01*
X837635D01*
X839105Y1375260D01*
X840230Y1376386D01*
X840839Y1377856D01*
Y1379447D01*
X840230Y1380917D01*
X839105Y1382043D01*
X837635Y1382652D01*
D02*
G37*
G36*
Y1369951D02*
X836044D01*
X834574Y1369342D01*
X833448Y1368217D01*
X832839Y1366747D01*
Y1365156D01*
X833448Y1363686D01*
X834574Y1362560D01*
X836044Y1361951D01*
X837635D01*
X839105Y1362560D01*
X840230Y1363686D01*
X840839Y1365156D01*
Y1366747D01*
X840230Y1368217D01*
X839105Y1369342D01*
X837635Y1369951D01*
D02*
G37*
G36*
X183296Y1361501D02*
X181704D01*
X180234Y1360892D01*
X179379Y1360037D01*
X178750Y1359865D01*
X178121Y1360037D01*
X177266Y1360892D01*
X175796Y1361501D01*
X174204D01*
X172734Y1360892D01*
X171879Y1360037D01*
X171250Y1359865D01*
X170621Y1360037D01*
X169766Y1360892D01*
X168296Y1361501D01*
X166704D01*
X165234Y1360892D01*
X164109Y1359767D01*
X163500Y1358297D01*
Y1356706D01*
X164109Y1355236D01*
X165234Y1354110D01*
X166704Y1353501D01*
X168296D01*
X169766Y1354110D01*
X170621Y1354966D01*
X171250Y1355138D01*
X171879Y1354966D01*
X172734Y1354110D01*
X174204Y1353501D01*
X175796D01*
X177266Y1354110D01*
X178121Y1354966D01*
X178750Y1355137D01*
X179379Y1354966D01*
X180234Y1354110D01*
X181704Y1353501D01*
X183296D01*
X184766Y1354110D01*
X185891Y1355236D01*
X186500Y1356706D01*
Y1358297D01*
X185891Y1359767D01*
X184766Y1360892D01*
X183296Y1361501D01*
D02*
G37*
G36*
Y1346501D02*
X181704D01*
X180234Y1345892D01*
X179379Y1345037D01*
X178750Y1344865D01*
X178121Y1345037D01*
X177266Y1345892D01*
X175796Y1346501D01*
X174204D01*
X172734Y1345892D01*
X171879Y1345037D01*
X171250Y1344865D01*
X170621Y1345037D01*
X169766Y1345892D01*
X168296Y1346501D01*
X166704D01*
X165234Y1345892D01*
X164109Y1344767D01*
X163500Y1343297D01*
Y1341706D01*
X164109Y1340236D01*
X165234Y1339111D01*
X166704Y1338501D01*
X168296D01*
X169766Y1339111D01*
X170621Y1339966D01*
X171250Y1340138D01*
X171879Y1339966D01*
X172734Y1339111D01*
X174204Y1338501D01*
X175796D01*
X177266Y1339111D01*
X178121Y1339966D01*
X178750Y1340138D01*
X179379Y1339966D01*
X180234Y1339111D01*
X181704Y1338501D01*
X183296D01*
X184766Y1339111D01*
X185891Y1340236D01*
X186500Y1341706D01*
Y1343297D01*
X185891Y1344767D01*
X184766Y1345892D01*
X183296Y1346501D01*
D02*
G37*
G36*
X1042378Y1364267D02*
X1038622D01*
X1034994Y1363295D01*
X1031740Y1361417D01*
X1029084Y1358761D01*
X1027206Y1355508D01*
X1026234Y1351880D01*
Y1348123D01*
X1027206Y1344495D01*
X1029084Y1341242D01*
X1031740Y1338586D01*
X1034994Y1336708D01*
X1038622Y1335735D01*
X1042378D01*
X1046006Y1336708D01*
X1049259Y1338586D01*
X1051916Y1341242D01*
X1053794Y1344495D01*
X1054766Y1348123D01*
Y1351880D01*
X1053794Y1355508D01*
X1051916Y1358761D01*
X1049259Y1361417D01*
X1046006Y1363295D01*
X1042378Y1364267D01*
D02*
G37*
G36*
X962378D02*
X958622D01*
X954994Y1363295D01*
X951740Y1361417D01*
X949084Y1358761D01*
X947206Y1355508D01*
X946234Y1351880D01*
Y1348123D01*
X947206Y1344495D01*
X949084Y1341242D01*
X951740Y1338586D01*
X954994Y1336708D01*
X958622Y1335735D01*
X962378D01*
X966006Y1336708D01*
X969259Y1338586D01*
X971916Y1341242D01*
X973794Y1344495D01*
X974766Y1348123D01*
Y1351880D01*
X973794Y1355508D01*
X971916Y1358761D01*
X969259Y1361417D01*
X966006Y1363295D01*
X962378Y1364267D01*
D02*
G37*
G36*
X140796Y1336500D02*
X139204D01*
X137734Y1335891D01*
X136609Y1334766D01*
X136000Y1333296D01*
Y1332439D01*
X135918Y1332063D01*
X134899Y1331556D01*
X134151Y1331743D01*
X134000Y1332439D01*
Y1333296D01*
X133391Y1334766D01*
X132266Y1335891D01*
X130796Y1336500D01*
X129204D01*
X127734Y1335891D01*
X126609Y1334766D01*
X126000Y1333296D01*
Y1331704D01*
X126609Y1330234D01*
X127734Y1329109D01*
X129204Y1328500D01*
X130061D01*
X130757Y1328349D01*
X130944Y1327601D01*
X130437Y1326582D01*
X130061Y1326500D01*
X129204D01*
X127734Y1325891D01*
X126609Y1324766D01*
X126000Y1323296D01*
Y1321704D01*
X126609Y1320234D01*
X127734Y1319109D01*
X129204Y1318500D01*
X130796D01*
X132266Y1319109D01*
X133391Y1320234D01*
X134000Y1321704D01*
Y1322561D01*
X134151Y1323257D01*
X134899Y1323445D01*
X135918Y1322937D01*
X136000Y1322561D01*
Y1321704D01*
X136609Y1320234D01*
X137734Y1319109D01*
X139204Y1318500D01*
X140796D01*
X142266Y1319109D01*
X143391Y1320234D01*
X144000Y1321704D01*
Y1323296D01*
X143391Y1324766D01*
X142266Y1325891D01*
X140796Y1326500D01*
X139939D01*
X139431Y1326610D01*
X139076Y1327500D01*
X139432Y1328390D01*
X139939Y1328500D01*
X140796D01*
X142266Y1329109D01*
X143391Y1330234D01*
X144000Y1331704D01*
Y1333296D01*
X143391Y1334766D01*
X142266Y1335891D01*
X140796Y1336500D01*
D02*
G37*
G36*
X869049Y1343768D02*
X865951D01*
X862959Y1342966D01*
X860275Y1341417D01*
X858085Y1339226D01*
X856536Y1336543D01*
X855734Y1333551D01*
Y1330453D01*
X856536Y1327460D01*
X858085Y1324777D01*
X860275Y1322586D01*
X862959Y1321037D01*
X865951Y1320235D01*
X869049D01*
X872041Y1321037D01*
X874725Y1322586D01*
X876915Y1324777D01*
X878464Y1327460D01*
X879266Y1330453D01*
Y1333551D01*
X878464Y1336543D01*
X876915Y1339226D01*
X874725Y1341417D01*
X872041Y1342966D01*
X869049Y1343768D01*
D02*
G37*
G36*
X734049D02*
X730951D01*
X727959Y1342966D01*
X725275Y1341417D01*
X723085Y1339226D01*
X721536Y1336543D01*
X720734Y1333551D01*
Y1330453D01*
X721536Y1327460D01*
X723085Y1324777D01*
X725275Y1322586D01*
X727959Y1321037D01*
X730951Y1320235D01*
X734049D01*
X737041Y1321037D01*
X739725Y1322586D01*
X741915Y1324777D01*
X743464Y1327460D01*
X744266Y1330453D01*
Y1333551D01*
X743464Y1336543D01*
X741915Y1339226D01*
X739725Y1341417D01*
X737041Y1342966D01*
X734049Y1343768D01*
D02*
G37*
G36*
X183296Y1314001D02*
X181704D01*
X180234Y1313392D01*
X179379Y1312537D01*
X178750Y1312365D01*
X178121Y1312537D01*
X177266Y1313392D01*
X175796Y1314001D01*
X174204D01*
X172734Y1313392D01*
X171879Y1312537D01*
X171250Y1312365D01*
X170621Y1312537D01*
X169766Y1313392D01*
X168296Y1314001D01*
X166704D01*
X165234Y1313392D01*
X164109Y1312267D01*
X163500Y1310797D01*
Y1309206D01*
X164109Y1307736D01*
X165234Y1306611D01*
X166704Y1306001D01*
X168296D01*
X169766Y1306611D01*
X170621Y1307466D01*
X171250Y1307638D01*
X171879Y1307466D01*
X172734Y1306611D01*
X174204Y1306001D01*
X175796D01*
X177266Y1306611D01*
X178121Y1307466D01*
X178750Y1307638D01*
X179379Y1307466D01*
X180234Y1306611D01*
X181704Y1306001D01*
X183296D01*
X184766Y1306611D01*
X185891Y1307736D01*
X186500Y1309206D01*
Y1310797D01*
X185891Y1312267D01*
X184766Y1313392D01*
X183296Y1314001D01*
D02*
G37*
G36*
X221247Y1318017D02*
X218753D01*
X216448Y1317063D01*
X214685Y1315299D01*
X213730Y1312994D01*
Y1310500D01*
X214685Y1308195D01*
X216448Y1306432D01*
X218753Y1305477D01*
X221247D01*
X223552Y1306432D01*
X225315Y1308195D01*
X226270Y1310500D01*
Y1312994D01*
X225315Y1315299D01*
X223552Y1317063D01*
X221247Y1318017D01*
D02*
G37*
G36*
X1042378Y1324267D02*
X1038622D01*
X1034994Y1323295D01*
X1031740Y1321417D01*
X1029084Y1318761D01*
X1027206Y1315508D01*
X1026234Y1311880D01*
Y1308123D01*
X1027206Y1304495D01*
X1029084Y1301242D01*
X1031740Y1298586D01*
X1034994Y1296708D01*
X1038622Y1295735D01*
X1042378D01*
X1046006Y1296708D01*
X1049259Y1298586D01*
X1051916Y1301242D01*
X1053794Y1304495D01*
X1054766Y1308123D01*
Y1311880D01*
X1053794Y1315508D01*
X1051916Y1318761D01*
X1049259Y1321417D01*
X1046006Y1323295D01*
X1042378Y1324267D01*
D02*
G37*
G36*
X962378D02*
X958622D01*
X954994Y1323295D01*
X951740Y1321417D01*
X949084Y1318761D01*
X947206Y1315508D01*
X946234Y1311880D01*
Y1308123D01*
X947206Y1304495D01*
X949084Y1301242D01*
X951740Y1298586D01*
X954994Y1296708D01*
X958622Y1295735D01*
X962378D01*
X966006Y1296708D01*
X969259Y1298586D01*
X971916Y1301242D01*
X973794Y1304495D01*
X974766Y1308123D01*
Y1311880D01*
X973794Y1315508D01*
X971916Y1318761D01*
X969259Y1321417D01*
X966006Y1323295D01*
X962378Y1324267D01*
D02*
G37*
G36*
X869049Y1309767D02*
X865951D01*
X862959Y1308966D01*
X860275Y1307417D01*
X858085Y1305226D01*
X856536Y1302543D01*
X855734Y1299550D01*
Y1296452D01*
X856536Y1293460D01*
X858085Y1290777D01*
X860275Y1288586D01*
X862959Y1287037D01*
X865951Y1286236D01*
X869049D01*
X872041Y1287037D01*
X874725Y1288586D01*
X876915Y1290777D01*
X878464Y1293460D01*
X879266Y1296452D01*
Y1299550D01*
X878464Y1302543D01*
X876915Y1305226D01*
X874725Y1307417D01*
X872041Y1308966D01*
X869049Y1309767D01*
D02*
G37*
G36*
X734049D02*
X730951D01*
X727959Y1308966D01*
X725275Y1307417D01*
X723085Y1305226D01*
X721536Y1302543D01*
X720734Y1299550D01*
Y1296452D01*
X721536Y1293460D01*
X723085Y1290777D01*
X725275Y1288586D01*
X727959Y1287037D01*
X730951Y1286236D01*
X734049D01*
X737041Y1287037D01*
X739725Y1288586D01*
X741915Y1290777D01*
X743464Y1293460D01*
X744266Y1296452D01*
Y1299550D01*
X743464Y1302543D01*
X741915Y1305226D01*
X739725Y1307417D01*
X737041Y1308966D01*
X734049Y1309767D01*
D02*
G37*
G36*
X45000Y1469859D02*
X43140Y1469489D01*
X41564Y1468436D01*
X40511Y1466860D01*
X40141Y1465000D01*
X40511Y1463140D01*
X41564Y1461564D01*
X45141Y1457987D01*
Y1410000D01*
Y1392500D01*
X45511Y1390640D01*
X46564Y1389064D01*
X70141Y1365487D01*
Y1279513D01*
X47987Y1257359D01*
X22500D01*
X20640Y1256990D01*
X20388Y1256821D01*
X19288Y1257308D01*
X19243Y1257615D01*
X49063Y1287435D01*
X56908D01*
X57734Y1286609D01*
X59204Y1286000D01*
X60796D01*
X62266Y1286609D01*
X63391Y1287734D01*
X64000Y1289204D01*
Y1290796D01*
X63391Y1292266D01*
X62266Y1293391D01*
X60796Y1294000D01*
X59204D01*
X57734Y1293391D01*
X56908Y1292565D01*
X49644D01*
X49255Y1293504D01*
X59628Y1303876D01*
X60796D01*
X62266Y1304485D01*
X63391Y1305611D01*
X64000Y1307081D01*
Y1308672D01*
X63391Y1310142D01*
X62266Y1311268D01*
X60796Y1311877D01*
X59204D01*
X57734Y1311268D01*
X56609Y1310142D01*
X56000Y1308672D01*
Y1307504D01*
X10170Y1261674D01*
X9614Y1260842D01*
X9419Y1259861D01*
Y512016D01*
X9614Y511034D01*
X10170Y510202D01*
X53095Y467277D01*
Y458889D01*
X52079Y458468D01*
X50796Y459000D01*
X49204D01*
X47734Y458391D01*
X46609Y457266D01*
X46000Y455796D01*
Y454204D01*
X46609Y452734D01*
X47734Y451609D01*
X49204Y451000D01*
X50796D01*
X52079Y451532D01*
X53095Y451111D01*
Y448889D01*
X52079Y448468D01*
X50796Y449000D01*
X49204D01*
X47734Y448391D01*
X46609Y447266D01*
X46000Y445796D01*
X45000D01*
X44391Y447266D01*
X43266Y448391D01*
X41796Y449000D01*
X40204D01*
X38734Y448391D01*
X37609Y447266D01*
X37000Y445796D01*
Y444628D01*
X34411Y442039D01*
X33508Y441860D01*
X32676Y441303D01*
X23186Y431814D01*
X22630Y430982D01*
X22435Y430000D01*
Y340321D01*
X22630Y339339D01*
X23186Y338507D01*
X114054Y247639D01*
X113629Y246627D01*
X112334Y246091D01*
X111209Y244966D01*
X110600Y243496D01*
Y241904D01*
X111209Y240434D01*
X112334Y239309D01*
X113804Y238700D01*
X115396D01*
X116866Y239309D01*
X117991Y240434D01*
X118600Y241904D01*
Y243496D01*
X119311Y244435D01*
X209000D01*
X209982Y244630D01*
X210814Y245186D01*
X225061Y259433D01*
X226079Y259014D01*
X226609Y257734D01*
X227734Y256609D01*
X229204Y256000D01*
X230796D01*
X232266Y256609D01*
X233391Y257734D01*
X234000Y259204D01*
Y260796D01*
X233391Y262266D01*
X232266Y263391D01*
X230986Y263921D01*
X230567Y264939D01*
X239063Y273435D01*
X352937D01*
X353500Y272872D01*
Y271704D01*
X354109Y270234D01*
X355234Y269109D01*
X356704Y268500D01*
X358296D01*
X359766Y269109D01*
X360891Y270234D01*
X361500Y271704D01*
Y273296D01*
X361401Y273534D01*
X362263Y274109D01*
X363500Y272872D01*
Y271704D01*
X363915Y270702D01*
Y153985D01*
X360465Y150535D01*
X359688Y149372D01*
X359415Y148000D01*
Y127000D01*
X359688Y125628D01*
X360465Y124465D01*
X384415Y100515D01*
Y45000D01*
X384688Y43628D01*
X385465Y42465D01*
X419481Y8449D01*
X420644Y7672D01*
X422016Y7399D01*
X572500D01*
X1010984Y7399D01*
X1012356Y7672D01*
X1013519Y8449D01*
X1077535Y72465D01*
X1078312Y73628D01*
X1078585Y75000D01*
Y762500D01*
X1078312Y763872D01*
X1077535Y765035D01*
X1012535Y830035D01*
X1011372Y830812D01*
X1010000Y831085D01*
X934298D01*
X933296Y831500D01*
X931704D01*
X930234Y830891D01*
X929109Y829766D01*
X928500Y828296D01*
Y826704D01*
X928965Y825581D01*
X928450Y824565D01*
X864063D01*
X749314Y939314D01*
X748482Y939870D01*
X747500Y940065D01*
X705592D01*
X704766Y940891D01*
X703296Y941500D01*
X701704D01*
X700234Y940891D01*
X699109Y939766D01*
X698500Y938296D01*
Y936704D01*
X699109Y935234D01*
X700234Y934109D01*
X701704Y933500D01*
X703296D01*
X704766Y934109D01*
X705592Y934935D01*
X746437D01*
X861186Y820186D01*
X862018Y819630D01*
X863000Y819435D01*
X955869D01*
X956851Y819630D01*
X957283Y819919D01*
X1006860D01*
X1067419Y759360D01*
Y78140D01*
X1007844Y18565D01*
X572500Y18565D01*
X425156D01*
X395581Y48140D01*
Y115984D01*
X395386Y116966D01*
X394830Y117798D01*
X378565Y134063D01*
Y148000D01*
X378370Y148982D01*
X377814Y149814D01*
X375081Y152547D01*
Y268181D01*
X375370Y268613D01*
X375565Y269595D01*
Y274778D01*
X375370Y275760D01*
X374814Y276592D01*
X352565Y298841D01*
Y324408D01*
X353391Y325234D01*
X354000Y326704D01*
Y328296D01*
X353391Y329766D01*
X352266Y330891D01*
X350796Y331500D01*
X349204D01*
X347734Y330891D01*
X346609Y329766D01*
X346000Y328296D01*
Y326704D01*
X346609Y325234D01*
X347435Y324408D01*
Y297778D01*
X347630Y296796D01*
X348186Y295964D01*
X360669Y283481D01*
X360169Y282544D01*
X359984Y282581D01*
X238178D01*
X237789Y283520D01*
X256814Y302545D01*
X257370Y303377D01*
X257565Y304359D01*
Y391437D01*
X267128Y401000D01*
X268296D01*
X269766Y401609D01*
X270891Y402734D01*
X271500Y404204D01*
Y405061D01*
X271668Y405832D01*
X272439Y406000D01*
X273296D01*
X274766Y406609D01*
X275891Y407734D01*
X276500Y409204D01*
Y410796D01*
X275891Y412266D01*
X274766Y413391D01*
X273296Y414000D01*
X272439D01*
X272063Y414082D01*
X271556Y415101D01*
X271743Y415849D01*
X272439Y416000D01*
X273296D01*
X274766Y416609D01*
X275891Y417734D01*
X276500Y419204D01*
Y420796D01*
X276465Y420879D01*
X276814Y421227D01*
X277370Y422060D01*
X277565Y423041D01*
Y427500D01*
X277370Y428482D01*
X276814Y429314D01*
X273314Y432814D01*
X272482Y433370D01*
X271500Y433565D01*
X263500D01*
X262518Y433370D01*
X261686Y432814D01*
X242440Y413568D01*
X241502Y413957D01*
Y414158D01*
X240893Y415628D01*
X239767Y416753D01*
X238297Y417362D01*
X236706D01*
X235236Y416753D01*
X234111Y415628D01*
X233501Y414158D01*
Y412567D01*
X234111Y411097D01*
X235236Y409971D01*
X236706Y409362D01*
X236907D01*
X237296Y408424D01*
X220437Y391565D01*
X211159D01*
X210738Y392581D01*
X210891Y392734D01*
X211500Y394204D01*
Y395796D01*
X210891Y397266D01*
X209766Y398391D01*
X208296Y399000D01*
X206704D01*
X205234Y398391D01*
X204109Y397266D01*
X203500Y395796D01*
Y394204D01*
X204109Y392734D01*
X204262Y392581D01*
X203841Y391565D01*
X102063D01*
X62565Y431063D01*
Y470000D01*
X62370Y470982D01*
X61814Y471814D01*
X18565Y515063D01*
Y1248175D01*
X19581Y1248718D01*
X20640Y1248010D01*
X22500Y1247641D01*
X50000D01*
X51860Y1248010D01*
X53436Y1249064D01*
X78436Y1274064D01*
X79489Y1275640D01*
X79859Y1277500D01*
Y1367500D01*
X79489Y1369360D01*
X78436Y1370936D01*
X54859Y1394513D01*
Y1410000D01*
Y1460000D01*
X54489Y1461860D01*
X53436Y1463436D01*
X48436Y1468436D01*
X46860Y1469489D01*
X45000Y1469859D01*
D02*
G37*
G36*
X1002378Y1304267D02*
X998622D01*
X994994Y1303295D01*
X991740Y1301417D01*
X989084Y1298761D01*
X987206Y1295508D01*
X986234Y1291880D01*
Y1288123D01*
X987206Y1284495D01*
X989084Y1281242D01*
X991740Y1278586D01*
X994994Y1276708D01*
X998622Y1275735D01*
X1002378D01*
X1006006Y1276708D01*
X1009259Y1278586D01*
X1011916Y1281242D01*
X1013794Y1284495D01*
X1014766Y1288123D01*
Y1291880D01*
X1013794Y1295508D01*
X1011916Y1298761D01*
X1009259Y1301417D01*
X1006006Y1303295D01*
X1002378Y1304267D01*
D02*
G37*
G36*
X130796Y1276500D02*
X129204D01*
X127734Y1275891D01*
X126609Y1274766D01*
X126000Y1273296D01*
Y1272439D01*
X125832Y1271668D01*
X125061Y1271500D01*
X124939D01*
X124168Y1271668D01*
X124000Y1272439D01*
Y1273296D01*
X123391Y1274766D01*
X122266Y1275891D01*
X120796Y1276500D01*
X119204D01*
X117734Y1275891D01*
X116609Y1274766D01*
X116000Y1273296D01*
Y1272439D01*
X115832Y1271668D01*
X115061Y1271500D01*
X114939D01*
X114168Y1271668D01*
X114000Y1272439D01*
Y1273296D01*
X113391Y1274766D01*
X112266Y1275891D01*
X110796Y1276500D01*
X109204D01*
X107734Y1275891D01*
X106609Y1274766D01*
X106000Y1273296D01*
Y1272439D01*
X105918Y1272063D01*
X104899Y1271555D01*
X104151Y1271743D01*
X104000Y1272439D01*
Y1273296D01*
X103391Y1274766D01*
X102266Y1275891D01*
X100796Y1276500D01*
X99204D01*
X97734Y1275891D01*
X96609Y1274766D01*
X96000Y1273296D01*
Y1272439D01*
X95918Y1272063D01*
X94899Y1271555D01*
X94151Y1271743D01*
X94000Y1272439D01*
Y1273296D01*
X93391Y1274766D01*
X92266Y1275891D01*
X90796Y1276500D01*
X89204D01*
X87734Y1275891D01*
X86609Y1274766D01*
X86000Y1273296D01*
Y1271704D01*
X86609Y1270234D01*
X87734Y1269109D01*
X89204Y1268500D01*
X90061D01*
X90757Y1268349D01*
X90944Y1267601D01*
X90437Y1266582D01*
X90061Y1266500D01*
X89204D01*
X87734Y1265891D01*
X86609Y1264766D01*
X86000Y1263296D01*
Y1261704D01*
X86609Y1260234D01*
X87734Y1259109D01*
X89204Y1258500D01*
X90796D01*
X92266Y1259109D01*
X93391Y1260234D01*
X94000Y1261704D01*
Y1262561D01*
X94151Y1263257D01*
X94899Y1263445D01*
X95918Y1262937D01*
X96000Y1262561D01*
Y1261704D01*
X96609Y1260234D01*
X97734Y1259109D01*
X99204Y1258500D01*
X100796D01*
X102266Y1259109D01*
X103391Y1260234D01*
X104000Y1261704D01*
Y1262561D01*
X104151Y1263257D01*
X104899Y1263445D01*
X105918Y1262937D01*
X106000Y1262561D01*
Y1261704D01*
X106609Y1260234D01*
X107734Y1259109D01*
X109204Y1258500D01*
X110796D01*
X112266Y1259109D01*
X113391Y1260234D01*
X114000Y1261704D01*
Y1262561D01*
X114110Y1263068D01*
X115000Y1263424D01*
X115890Y1263068D01*
X116000Y1262561D01*
Y1261704D01*
X116609Y1260234D01*
X117734Y1259109D01*
X119204Y1258500D01*
X120796D01*
X122266Y1259109D01*
X123391Y1260234D01*
X124000Y1261704D01*
Y1262561D01*
X124082Y1262937D01*
X125101Y1263445D01*
X125849Y1263257D01*
X126000Y1262561D01*
Y1261704D01*
X126609Y1260234D01*
X127734Y1259109D01*
X129204Y1258500D01*
X130796D01*
X132266Y1259109D01*
X133391Y1260234D01*
X134000Y1261704D01*
Y1263296D01*
X133391Y1264766D01*
X132266Y1265891D01*
X130796Y1266500D01*
X129939D01*
X129563Y1266582D01*
X129056Y1267601D01*
X129243Y1268349D01*
X129939Y1268500D01*
X130796D01*
X132266Y1269109D01*
X133391Y1270234D01*
X134000Y1271704D01*
Y1273296D01*
X133391Y1274766D01*
X132266Y1275891D01*
X130796Y1276500D01*
D02*
G37*
G36*
X1042378Y1284267D02*
X1038622D01*
X1034994Y1283295D01*
X1031740Y1281417D01*
X1029084Y1278761D01*
X1027206Y1275508D01*
X1026234Y1271880D01*
Y1268123D01*
X1027206Y1264495D01*
X1029084Y1261242D01*
X1031740Y1258586D01*
X1034994Y1256708D01*
X1038622Y1255735D01*
X1042378D01*
X1046006Y1256708D01*
X1049259Y1258586D01*
X1051916Y1261242D01*
X1053794Y1264495D01*
X1054766Y1268123D01*
Y1271880D01*
X1053794Y1275508D01*
X1051916Y1278761D01*
X1049259Y1281417D01*
X1046006Y1283295D01*
X1042378Y1284267D01*
D02*
G37*
G36*
X962378D02*
X958622D01*
X954994Y1283295D01*
X951740Y1281417D01*
X949084Y1278761D01*
X947206Y1275508D01*
X946234Y1271880D01*
Y1268123D01*
X947206Y1264495D01*
X949084Y1261242D01*
X951740Y1258586D01*
X954994Y1256708D01*
X958622Y1255735D01*
X962378D01*
X966006Y1256708D01*
X969259Y1258586D01*
X971916Y1261242D01*
X973794Y1264495D01*
X974766Y1268123D01*
Y1271880D01*
X973794Y1275508D01*
X971916Y1278761D01*
X969259Y1281417D01*
X966006Y1283295D01*
X962378Y1284267D01*
D02*
G37*
G36*
X837635Y1255351D02*
X836044D01*
X834574Y1254743D01*
X833448Y1253617D01*
X832839Y1252147D01*
Y1250556D01*
X833448Y1249086D01*
X834574Y1247960D01*
X836044Y1247352D01*
X837635D01*
X839105Y1247960D01*
X840230Y1249086D01*
X840839Y1250556D01*
Y1252147D01*
X840230Y1253617D01*
X839105Y1254743D01*
X837635Y1255351D01*
D02*
G37*
G36*
X652984Y1261272D02*
X650016D01*
X647150Y1260503D01*
X644580Y1259020D01*
X642482Y1256921D01*
X640998Y1254352D01*
X640230Y1251485D01*
Y1248518D01*
X640998Y1245651D01*
X642482Y1243082D01*
X644580Y1240983D01*
X647150Y1239500D01*
X650016Y1238732D01*
X652984D01*
X655850Y1239500D01*
X658420Y1240983D01*
X660518Y1243082D01*
X662002Y1245651D01*
X662770Y1248518D01*
Y1251485D01*
X662002Y1254352D01*
X660518Y1256921D01*
X658420Y1259020D01*
X655850Y1260503D01*
X652984Y1261272D01*
D02*
G37*
G36*
X815796Y1246501D02*
X814204D01*
X812734Y1245892D01*
X811609Y1244767D01*
X811000Y1243297D01*
Y1241706D01*
X811609Y1240236D01*
X812734Y1239110D01*
X814204Y1238502D01*
X815796D01*
X817266Y1239110D01*
X818391Y1240236D01*
X819000Y1241706D01*
Y1243297D01*
X818391Y1244767D01*
X817266Y1245892D01*
X815796Y1246501D01*
D02*
G37*
G36*
X72635Y1245350D02*
X71044D01*
X69573Y1244741D01*
X68448Y1243616D01*
X67839Y1242146D01*
Y1240554D01*
X68448Y1239084D01*
X69573Y1237959D01*
X71044Y1237350D01*
X72635D01*
X74105Y1237959D01*
X75230Y1239084D01*
X75839Y1240554D01*
Y1242146D01*
X75230Y1243616D01*
X74105Y1244741D01*
X72635Y1245350D01*
D02*
G37*
G36*
X1002378Y1264268D02*
X998622D01*
X994994Y1263295D01*
X991740Y1261417D01*
X989084Y1258761D01*
X987206Y1255508D01*
X986234Y1251880D01*
Y1248123D01*
X987206Y1244495D01*
X989084Y1241242D01*
X991740Y1238586D01*
X994994Y1236708D01*
X998622Y1235735D01*
X1002378D01*
X1006006Y1236708D01*
X1009259Y1238586D01*
X1011916Y1241242D01*
X1013794Y1244495D01*
X1014766Y1248123D01*
Y1251880D01*
X1013794Y1255508D01*
X1011916Y1258761D01*
X1009259Y1261417D01*
X1006006Y1263295D01*
X1002378Y1264268D01*
D02*
G37*
G36*
X837635Y1242652D02*
X836044D01*
X834574Y1242042D01*
X833448Y1240917D01*
X832839Y1239447D01*
Y1237856D01*
X833448Y1236386D01*
X834574Y1235260D01*
X836044Y1234651D01*
X837635D01*
X839105Y1235260D01*
X840230Y1236386D01*
X840839Y1237856D01*
Y1239447D01*
X840230Y1240917D01*
X839105Y1242042D01*
X837635Y1242652D01*
D02*
G37*
G36*
X72635Y1232650D02*
X71044D01*
X69573Y1232041D01*
X68448Y1230916D01*
X67839Y1229446D01*
Y1227854D01*
X68448Y1226384D01*
X69573Y1225259D01*
X71044Y1224650D01*
X72635D01*
X74105Y1225259D01*
X75230Y1226384D01*
X75839Y1227854D01*
Y1229446D01*
X75230Y1230916D01*
X74105Y1232041D01*
X72635Y1232650D01*
D02*
G37*
G36*
X837635Y1229951D02*
X836044D01*
X834574Y1229342D01*
X833448Y1228217D01*
X832839Y1226747D01*
Y1225156D01*
X833448Y1223686D01*
X834574Y1222560D01*
X836044Y1221952D01*
X837635D01*
X839105Y1222560D01*
X840230Y1223686D01*
X840839Y1225156D01*
Y1226747D01*
X840230Y1228217D01*
X839105Y1229342D01*
X837635Y1229951D01*
D02*
G37*
G36*
X1042378Y1244268D02*
X1038622D01*
X1034994Y1243295D01*
X1031740Y1241417D01*
X1029084Y1238761D01*
X1027206Y1235508D01*
X1026234Y1231880D01*
Y1228123D01*
X1027206Y1224495D01*
X1029084Y1221242D01*
X1031740Y1218586D01*
X1034994Y1216708D01*
X1038622Y1215735D01*
X1042378D01*
X1046006Y1216708D01*
X1049259Y1218586D01*
X1051916Y1221242D01*
X1053794Y1224495D01*
X1054766Y1228123D01*
Y1231880D01*
X1053794Y1235508D01*
X1051916Y1238761D01*
X1049259Y1241417D01*
X1046006Y1243295D01*
X1042378Y1244268D01*
D02*
G37*
G36*
X962378D02*
X958622D01*
X954994Y1243295D01*
X951740Y1241417D01*
X949084Y1238761D01*
X947206Y1235508D01*
X946234Y1231880D01*
Y1228123D01*
X947206Y1224495D01*
X949084Y1221242D01*
X951740Y1218586D01*
X954994Y1216708D01*
X958622Y1215735D01*
X962378D01*
X966006Y1216708D01*
X969259Y1218586D01*
X971916Y1221242D01*
X973794Y1224495D01*
X974766Y1228123D01*
Y1231880D01*
X973794Y1235508D01*
X971916Y1238761D01*
X969259Y1241417D01*
X966006Y1243295D01*
X962378Y1244268D01*
D02*
G37*
G36*
X72635Y1219950D02*
X71044D01*
X69573Y1219341D01*
X68448Y1218216D01*
X67839Y1216746D01*
Y1215154D01*
X68448Y1213684D01*
X69573Y1212559D01*
X71044Y1211950D01*
X72635D01*
X74105Y1212559D01*
X75230Y1213684D01*
X75839Y1215154D01*
Y1216746D01*
X75230Y1218216D01*
X74105Y1219341D01*
X72635Y1219950D01*
D02*
G37*
G36*
X1002378Y1224268D02*
X998622D01*
X994994Y1223295D01*
X991740Y1221417D01*
X989084Y1218761D01*
X987206Y1215508D01*
X986234Y1211880D01*
Y1208123D01*
X987206Y1204495D01*
X989084Y1201242D01*
X991740Y1198586D01*
X994994Y1196708D01*
X998622Y1195735D01*
X1002378D01*
X1006006Y1196708D01*
X1009259Y1198586D01*
X1011916Y1201242D01*
X1013794Y1204495D01*
X1014766Y1208123D01*
Y1211880D01*
X1013794Y1215508D01*
X1011916Y1218761D01*
X1009259Y1221417D01*
X1006006Y1223295D01*
X1002378Y1224268D01*
D02*
G37*
G36*
X869049Y1203767D02*
X865951D01*
X862959Y1202966D01*
X860275Y1201417D01*
X858085Y1199226D01*
X856536Y1196543D01*
X855734Y1193550D01*
Y1190452D01*
X856536Y1187460D01*
X858085Y1184777D01*
X860275Y1182586D01*
X862959Y1181037D01*
X865951Y1180236D01*
X869049D01*
X872041Y1181037D01*
X874725Y1182586D01*
X876915Y1184777D01*
X878464Y1187460D01*
X879266Y1190452D01*
Y1193550D01*
X878464Y1196543D01*
X876915Y1199226D01*
X874725Y1201417D01*
X872041Y1202966D01*
X869049Y1203767D01*
D02*
G37*
G36*
X734049D02*
X730951D01*
X727959Y1202966D01*
X725275Y1201417D01*
X723085Y1199226D01*
X721536Y1196543D01*
X720734Y1193550D01*
Y1190452D01*
X721536Y1187460D01*
X723085Y1184777D01*
X725275Y1182586D01*
X727959Y1181037D01*
X730951Y1180236D01*
X734049D01*
X737041Y1181037D01*
X739725Y1182586D01*
X741915Y1184777D01*
X743464Y1187460D01*
X744266Y1190452D01*
Y1193550D01*
X743464Y1196543D01*
X741915Y1199226D01*
X739725Y1201417D01*
X737041Y1202966D01*
X734049Y1203767D01*
D02*
G37*
G36*
X1042378Y1204268D02*
X1038622D01*
X1034994Y1203295D01*
X1031740Y1201417D01*
X1029084Y1198761D01*
X1027206Y1195508D01*
X1026234Y1191880D01*
Y1188123D01*
X1027206Y1184495D01*
X1029084Y1181242D01*
X1031740Y1178586D01*
X1034994Y1176708D01*
X1038622Y1175735D01*
X1042378D01*
X1046006Y1176708D01*
X1049259Y1178586D01*
X1051916Y1181242D01*
X1053794Y1184495D01*
X1054766Y1188123D01*
Y1191880D01*
X1053794Y1195508D01*
X1051916Y1198761D01*
X1049259Y1201417D01*
X1046006Y1203295D01*
X1042378Y1204268D01*
D02*
G37*
G36*
X962378D02*
X958622D01*
X954994Y1203295D01*
X951740Y1201417D01*
X949084Y1198761D01*
X947206Y1195508D01*
X946234Y1191880D01*
Y1188123D01*
X947206Y1184495D01*
X949084Y1181242D01*
X951740Y1178586D01*
X954994Y1176708D01*
X958622Y1175735D01*
X962378D01*
X966006Y1176708D01*
X969259Y1178586D01*
X971916Y1181242D01*
X973794Y1184495D01*
X974766Y1188123D01*
Y1191880D01*
X973794Y1195508D01*
X971916Y1198761D01*
X969259Y1201417D01*
X966006Y1203295D01*
X962378Y1204268D01*
D02*
G37*
G36*
X113997Y1181270D02*
X111503D01*
X109198Y1180315D01*
X107435Y1178552D01*
X106480Y1176247D01*
Y1173753D01*
X107435Y1171448D01*
X109198Y1169685D01*
X111503Y1168730D01*
X113997D01*
X116302Y1169685D01*
X118065Y1171448D01*
X119020Y1173753D01*
Y1176247D01*
X118065Y1178552D01*
X116302Y1180315D01*
X113997Y1181270D01*
D02*
G37*
G36*
X83497Y1181270D02*
X81003D01*
X78698Y1180315D01*
X76935Y1178552D01*
X75980Y1176247D01*
Y1173753D01*
X76935Y1171448D01*
X78698Y1169685D01*
X81003Y1168730D01*
X83497D01*
X85802Y1169685D01*
X87565Y1171448D01*
X88520Y1173753D01*
Y1176247D01*
X87565Y1178552D01*
X85802Y1180315D01*
X83497Y1181270D01*
D02*
G37*
G36*
X869049Y1169768D02*
X865951D01*
X862959Y1168966D01*
X860275Y1167417D01*
X858085Y1165226D01*
X856536Y1162543D01*
X855734Y1159550D01*
Y1156452D01*
X856536Y1153460D01*
X858085Y1150777D01*
X860275Y1148586D01*
X862959Y1147037D01*
X865951Y1146236D01*
X869049D01*
X872041Y1147037D01*
X874725Y1148586D01*
X876915Y1150777D01*
X878464Y1153460D01*
X879266Y1156452D01*
Y1159550D01*
X878464Y1162543D01*
X876915Y1165226D01*
X874725Y1167417D01*
X872041Y1168966D01*
X869049Y1169768D01*
D02*
G37*
G36*
X734049D02*
X730951D01*
X727959Y1168966D01*
X725275Y1167417D01*
X723085Y1165226D01*
X721536Y1162543D01*
X720734Y1159550D01*
Y1156452D01*
X721536Y1153460D01*
X723085Y1150777D01*
X725275Y1148586D01*
X727959Y1147037D01*
X730951Y1146236D01*
X734049D01*
X737041Y1147037D01*
X739725Y1148586D01*
X741915Y1150777D01*
X743464Y1153460D01*
X744266Y1156452D01*
Y1159550D01*
X743464Y1162543D01*
X741915Y1165226D01*
X739725Y1167417D01*
X737041Y1168966D01*
X734049Y1169768D01*
D02*
G37*
G36*
X1042378Y1164268D02*
X1038622D01*
X1034994Y1163295D01*
X1031740Y1161417D01*
X1029084Y1158761D01*
X1027206Y1155508D01*
X1026234Y1151880D01*
Y1148123D01*
X1027206Y1144495D01*
X1029084Y1141242D01*
X1031740Y1138586D01*
X1034994Y1136708D01*
X1038622Y1135735D01*
X1042378D01*
X1046006Y1136708D01*
X1049259Y1138586D01*
X1051916Y1141242D01*
X1053794Y1144495D01*
X1054766Y1148123D01*
Y1151880D01*
X1053794Y1155508D01*
X1051916Y1158761D01*
X1049259Y1161417D01*
X1046006Y1163295D01*
X1042378Y1164268D01*
D02*
G37*
G36*
X962378D02*
X958622D01*
X954994Y1163295D01*
X951740Y1161417D01*
X949084Y1158761D01*
X947206Y1155508D01*
X946234Y1151880D01*
Y1148123D01*
X947206Y1144495D01*
X949084Y1141242D01*
X951740Y1138586D01*
X954994Y1136708D01*
X958622Y1135735D01*
X962378D01*
X966006Y1136708D01*
X969259Y1138586D01*
X971916Y1141242D01*
X973794Y1144495D01*
X974766Y1148123D01*
Y1151880D01*
X973794Y1155508D01*
X971916Y1158761D01*
X969259Y1161417D01*
X966006Y1163295D01*
X962378Y1164268D01*
D02*
G37*
G36*
X563956Y1128052D02*
X562365D01*
X560895Y1127443D01*
X559770Y1126317D01*
X559161Y1124847D01*
Y1123256D01*
X559770Y1121786D01*
X560895Y1120660D01*
X562365Y1120051D01*
X563956D01*
X565426Y1120660D01*
X566552Y1121786D01*
X567161Y1123256D01*
Y1124847D01*
X566552Y1126317D01*
X565426Y1127443D01*
X563956Y1128052D01*
D02*
G37*
G36*
X83497Y1121270D02*
X81003D01*
X78698Y1120315D01*
X76935Y1118552D01*
X75980Y1116247D01*
Y1113753D01*
X76935Y1111448D01*
X78698Y1109685D01*
X81003Y1108730D01*
X83497D01*
X85802Y1109685D01*
X87565Y1111448D01*
X88520Y1113753D01*
Y1116247D01*
X87565Y1118552D01*
X85802Y1120315D01*
X83497Y1121270D01*
D02*
G37*
G36*
X563956Y1115351D02*
X562365D01*
X560895Y1114743D01*
X559770Y1113617D01*
X559161Y1112147D01*
Y1110556D01*
X559770Y1109086D01*
X560895Y1107961D01*
X562365Y1107352D01*
X563956D01*
X565426Y1107961D01*
X566552Y1109086D01*
X567161Y1110556D01*
Y1112147D01*
X566552Y1113617D01*
X565426Y1114743D01*
X563956Y1115351D01*
D02*
G37*
G36*
X837635Y1115351D02*
X836044D01*
X834574Y1114743D01*
X833448Y1113617D01*
X832839Y1112147D01*
Y1110556D01*
X833448Y1109086D01*
X834574Y1107960D01*
X836044Y1107352D01*
X837635D01*
X839105Y1107960D01*
X840230Y1109086D01*
X840839Y1110556D01*
Y1112147D01*
X840230Y1113617D01*
X839105Y1114743D01*
X837635Y1115351D01*
D02*
G37*
G36*
X585796Y1111500D02*
X584204D01*
X582734Y1110891D01*
X581609Y1109766D01*
X581000Y1108296D01*
Y1106704D01*
X581609Y1105234D01*
X582734Y1104109D01*
X584204Y1103500D01*
X585796D01*
X587266Y1104109D01*
X588391Y1105234D01*
X589000Y1106704D01*
Y1108296D01*
X588391Y1109766D01*
X587266Y1110891D01*
X585796Y1111500D01*
D02*
G37*
G36*
X815796Y1106501D02*
X814204D01*
X812734Y1105892D01*
X811609Y1104767D01*
X811000Y1103297D01*
Y1101706D01*
X811609Y1100236D01*
X812734Y1099110D01*
X814204Y1098502D01*
X815796D01*
X817266Y1099110D01*
X818391Y1100236D01*
X819000Y1101706D01*
Y1103297D01*
X818391Y1104767D01*
X817266Y1105892D01*
X815796Y1106501D01*
D02*
G37*
G36*
X914296Y1439000D02*
X912704D01*
X911234Y1438391D01*
X910109Y1437266D01*
X909500Y1435796D01*
Y1434628D01*
X906186Y1431314D01*
X905630Y1430482D01*
X905435Y1429500D01*
Y1422063D01*
X697953Y1214581D01*
X642016D01*
X641936Y1214565D01*
X608962D01*
X607980Y1214370D01*
X607148Y1213814D01*
X212138Y818804D01*
X211582Y817972D01*
X211387Y816990D01*
Y491053D01*
X180782Y460448D01*
X177709D01*
X177266Y460891D01*
X175796Y461500D01*
X174204D01*
X172734Y460891D01*
X171609Y459766D01*
X171000Y458296D01*
Y456704D01*
X171099Y456466D01*
X170237Y455891D01*
X169000Y457128D01*
Y458296D01*
X168391Y459766D01*
X167266Y460891D01*
X165796Y461500D01*
X164204D01*
X162734Y460891D01*
X161609Y459766D01*
X161000Y458296D01*
Y456704D01*
X161609Y455234D01*
X162734Y454109D01*
X164204Y453500D01*
X165372D01*
X169007Y449865D01*
X169839Y449309D01*
X170821Y449114D01*
X179479D01*
X179868Y448176D01*
X166838Y435145D01*
X133091D01*
X132266Y435971D01*
X130796Y436580D01*
X129204D01*
X127734Y435971D01*
X126855Y435092D01*
X126312Y434908D01*
X125598Y435059D01*
X124766Y435891D01*
X123296Y436500D01*
X121704D01*
X120234Y435891D01*
X119109Y434766D01*
X118500Y433296D01*
Y431704D01*
X119109Y430234D01*
X120234Y429109D01*
X120317Y429075D01*
Y428757D01*
X120513Y427776D01*
X121069Y426943D01*
X122826Y425186D01*
X123658Y424630D01*
X124640Y424435D01*
X168000D01*
X168982Y424630D01*
X169814Y425186D01*
X204984Y460356D01*
X206000Y459935D01*
Y459204D01*
X206609Y457734D01*
X207734Y456609D01*
X209204Y456000D01*
X210796D01*
X212266Y456609D01*
X213391Y457734D01*
X214000Y459204D01*
Y460796D01*
X213391Y462266D01*
X212266Y463391D01*
X210796Y464000D01*
X210065D01*
X209644Y465016D01*
X227814Y483186D01*
X228370Y484018D01*
X228565Y485000D01*
Y486606D01*
X229581Y487027D01*
X230125Y486484D01*
X231595Y485875D01*
X233186D01*
X234656Y486484D01*
X235781Y487609D01*
X236390Y489079D01*
Y490670D01*
X235781Y492140D01*
X234656Y493266D01*
X233186Y493875D01*
X231595D01*
X230125Y493266D01*
X229581Y492722D01*
X228565Y493143D01*
Y810937D01*
X491047Y1073419D01*
X647784D01*
X648173Y1072480D01*
X521855Y946163D01*
X520839Y946583D01*
Y946747D01*
X520230Y948217D01*
X519105Y949342D01*
X517635Y949951D01*
X516044D01*
X514574Y949342D01*
X513448Y948217D01*
X512839Y946747D01*
Y945156D01*
X513448Y943686D01*
X514574Y942560D01*
X516044Y941952D01*
X516207D01*
X516628Y940936D01*
X491670Y915977D01*
X491114Y915145D01*
X490919Y914163D01*
Y727047D01*
X487872Y724000D01*
X486704D01*
X485234Y723391D01*
X484109Y722266D01*
X483500Y720796D01*
Y720507D01*
X482694Y720113D01*
X482484Y720069D01*
X481372Y720812D01*
X480000Y721085D01*
X417500D01*
X416128Y720812D01*
X414965Y720035D01*
X372465Y677535D01*
X371688Y676372D01*
X371415Y675000D01*
Y329298D01*
X371000Y328296D01*
Y326704D01*
X371609Y325234D01*
X372734Y324109D01*
X374204Y323500D01*
X375796D01*
X377266Y324109D01*
X378391Y325234D01*
X379000Y326704D01*
Y328296D01*
X378585Y329298D01*
Y427620D01*
X379524Y428009D01*
X379574Y427959D01*
X381044Y427350D01*
X382635D01*
X384105Y427959D01*
X385230Y429084D01*
X385839Y430554D01*
Y432146D01*
X385230Y433616D01*
X384105Y434741D01*
X382635Y435350D01*
X381044D01*
X379574Y434741D01*
X379524Y434691D01*
X378585Y435080D01*
Y440320D01*
X379524Y440709D01*
X379574Y440659D01*
X381044Y440050D01*
X382635D01*
X384105Y440659D01*
X385230Y441784D01*
X385839Y443254D01*
Y444846D01*
X385230Y446316D01*
X384105Y447441D01*
X382635Y448050D01*
X381044D01*
X379574Y447441D01*
X379524Y447391D01*
X378585Y447780D01*
Y673515D01*
X418985Y713915D01*
X478515D01*
X480491Y711939D01*
X480485Y711907D01*
X479993Y711000D01*
X478704D01*
X477234Y710391D01*
X476108Y709266D01*
X475499Y707796D01*
Y706204D01*
X476108Y704734D01*
X477234Y703609D01*
X477377Y703550D01*
Y702450D01*
X477234Y702391D01*
X476109Y701266D01*
X475500Y699796D01*
Y698204D01*
X476109Y696734D01*
X477234Y695609D01*
X477478Y695508D01*
Y694492D01*
X477234Y694391D01*
X476109Y693266D01*
X475500Y691796D01*
Y690204D01*
X476109Y688734D01*
X477234Y687609D01*
X477377Y687550D01*
Y686450D01*
X477234Y686391D01*
X476109Y685266D01*
X475500Y683796D01*
Y682204D01*
X476109Y680734D01*
X477234Y679609D01*
X478704Y679000D01*
X480296D01*
X481766Y679609D01*
X482891Y680734D01*
X483500Y682204D01*
Y683796D01*
X482891Y685266D01*
X481766Y686391D01*
X481623Y686450D01*
Y687550D01*
X481766Y687609D01*
X482891Y688734D01*
X483500Y690204D01*
Y691796D01*
X482891Y693266D01*
X481766Y694391D01*
X481522Y694492D01*
Y695508D01*
X481766Y695609D01*
X482891Y696734D01*
X483500Y698204D01*
Y699796D01*
X482891Y701266D01*
X481766Y702391D01*
X481623Y702450D01*
Y703550D01*
X481765Y703609D01*
X482890Y704734D01*
X483499Y706204D01*
Y707796D01*
X483447Y707921D01*
X483870Y708397D01*
X484239Y708666D01*
X485500Y708415D01*
X540647D01*
X542019Y708688D01*
X543182Y709465D01*
X543697Y709980D01*
X544646D01*
X546491Y710744D01*
X547903Y712156D01*
X548667Y714001D01*
Y715999D01*
X547903Y717844D01*
X546491Y719256D01*
X544646Y720020D01*
X542648D01*
X540803Y719256D01*
X539391Y717844D01*
X538627Y715999D01*
Y715585D01*
X499948D01*
X499746Y716601D01*
X499766Y716609D01*
X500891Y717734D01*
X501500Y719204D01*
Y720796D01*
X500891Y722266D01*
X500065Y723092D01*
Y911437D01*
X645418Y1056790D01*
X645563Y1056753D01*
X646269Y1055547D01*
X645734Y1053550D01*
Y1050452D01*
X646536Y1047460D01*
X648085Y1044777D01*
X650275Y1042586D01*
X652959Y1041037D01*
X655951Y1040236D01*
X659049D01*
X662041Y1041037D01*
X664725Y1042586D01*
X666915Y1044777D01*
X668464Y1047460D01*
X669266Y1050452D01*
Y1053550D01*
X668464Y1056543D01*
X666915Y1059226D01*
X664725Y1061417D01*
X662041Y1062966D01*
X659049Y1063767D01*
X655951D01*
X653955Y1063232D01*
X652749Y1063939D01*
X652712Y1064084D01*
X654015Y1065387D01*
X784874D01*
X785258Y1065130D01*
X786240Y1064935D01*
X916908D01*
X917734Y1064109D01*
X919204Y1063500D01*
X920796D01*
X922266Y1064109D01*
X923391Y1065234D01*
X924000Y1066704D01*
Y1068296D01*
X923391Y1069766D01*
X922266Y1070891D01*
X920796Y1071500D01*
X919204D01*
X918966Y1071401D01*
X918390Y1072263D01*
X919628Y1073500D01*
X920796D01*
X922266Y1074109D01*
X923391Y1075234D01*
X924000Y1076704D01*
Y1078296D01*
X923391Y1079766D01*
X922266Y1080891D01*
X920796Y1081500D01*
X919204D01*
X917734Y1080891D01*
X916609Y1079766D01*
X916000Y1078296D01*
Y1077128D01*
X913405Y1074533D01*
X769489D01*
X769100Y1075472D01*
X823563Y1129935D01*
X841437D01*
X875186Y1096186D01*
X876018Y1095630D01*
X877000Y1095435D01*
X901937D01*
X909500Y1087872D01*
Y1086704D01*
X910109Y1085234D01*
X911234Y1084109D01*
X912704Y1083500D01*
X914296D01*
X915766Y1084109D01*
X916891Y1085234D01*
X917500Y1086704D01*
Y1088296D01*
X916891Y1089766D01*
X915766Y1090891D01*
X914296Y1091500D01*
X913128D01*
X905709Y1098919D01*
X906130Y1099935D01*
X910408D01*
X911234Y1099109D01*
X912704Y1098500D01*
X914296D01*
X915766Y1099109D01*
X916891Y1100234D01*
X917500Y1101704D01*
Y1103296D01*
X916891Y1104766D01*
X915766Y1105891D01*
X914296Y1106500D01*
X912704D01*
X911234Y1105891D01*
X910408Y1105065D01*
X879563D01*
X846298Y1138330D01*
X845466Y1138886D01*
X844484Y1139081D01*
X820836D01*
X819855Y1138886D01*
X819023Y1138330D01*
X763258Y1082565D01*
X490162D01*
X489773Y1083504D01*
X611688Y1205419D01*
X701484D01*
X702466Y1205614D01*
X703298Y1206170D01*
X913128Y1416000D01*
X914296D01*
X915766Y1416609D01*
X916891Y1417734D01*
X917500Y1419204D01*
Y1420796D01*
X916891Y1422266D01*
X915766Y1423391D01*
X914296Y1424000D01*
X912704D01*
X911581Y1423535D01*
X910565Y1424050D01*
Y1428437D01*
X913128Y1431000D01*
X914296D01*
X915766Y1431609D01*
X916891Y1432734D01*
X917500Y1434204D01*
Y1435796D01*
X916891Y1437266D01*
X915766Y1438391D01*
X914296Y1439000D01*
D02*
G37*
G36*
X1042378Y1124268D02*
X1038622D01*
X1034994Y1123295D01*
X1031740Y1121417D01*
X1029084Y1118761D01*
X1027206Y1115508D01*
X1026234Y1111880D01*
Y1108123D01*
X1027206Y1104495D01*
X1029084Y1101242D01*
X1031740Y1098586D01*
X1034994Y1096708D01*
X1038622Y1095735D01*
X1042378D01*
X1046006Y1096708D01*
X1049259Y1098586D01*
X1051916Y1101242D01*
X1053794Y1104495D01*
X1054766Y1108123D01*
Y1111880D01*
X1053794Y1115508D01*
X1051916Y1118761D01*
X1049259Y1121417D01*
X1046006Y1123295D01*
X1042378Y1124268D01*
D02*
G37*
G36*
X962378D02*
X958622D01*
X954994Y1123295D01*
X951740Y1121417D01*
X949084Y1118761D01*
X947206Y1115508D01*
X946234Y1111880D01*
Y1108123D01*
X947206Y1104495D01*
X949084Y1101242D01*
X951740Y1098586D01*
X954994Y1096708D01*
X958622Y1095735D01*
X962378D01*
X966006Y1096708D01*
X969259Y1098586D01*
X971916Y1101242D01*
X973794Y1104495D01*
X974766Y1108123D01*
Y1111880D01*
X973794Y1115508D01*
X971916Y1118761D01*
X969259Y1121417D01*
X966006Y1123295D01*
X962378Y1124268D01*
D02*
G37*
G36*
X563956Y1102652D02*
X562365D01*
X560895Y1102043D01*
X559770Y1100917D01*
X559161Y1099447D01*
Y1097856D01*
X559770Y1096386D01*
X560895Y1095260D01*
X562365Y1094651D01*
X563956D01*
X565426Y1095260D01*
X566552Y1096386D01*
X567161Y1097856D01*
Y1099447D01*
X566552Y1100917D01*
X565426Y1102043D01*
X563956Y1102652D01*
D02*
G37*
G36*
X837635Y1102652D02*
X836044D01*
X834574Y1102042D01*
X833448Y1100917D01*
X832839Y1099447D01*
Y1097856D01*
X833448Y1096386D01*
X834574Y1095260D01*
X836044Y1094651D01*
X837635D01*
X839105Y1095260D01*
X840230Y1096386D01*
X840839Y1097856D01*
Y1099447D01*
X840230Y1100917D01*
X839105Y1102042D01*
X837635Y1102652D01*
D02*
G37*
G36*
Y1089951D02*
X836044D01*
X834574Y1089342D01*
X833448Y1088217D01*
X832839Y1086747D01*
Y1085156D01*
X833448Y1083686D01*
X834574Y1082560D01*
X836044Y1081952D01*
X837635D01*
X839105Y1082560D01*
X840230Y1083686D01*
X840839Y1085156D01*
Y1086747D01*
X840230Y1088217D01*
X839105Y1089342D01*
X837635Y1089951D01*
D02*
G37*
G36*
X411247Y1090770D02*
X408753D01*
X406448Y1089815D01*
X404685Y1088052D01*
X403730Y1085747D01*
Y1083253D01*
X404685Y1080948D01*
X406448Y1079185D01*
X408753Y1078230D01*
X411247D01*
X413552Y1079185D01*
X415316Y1080948D01*
X416270Y1083253D01*
Y1085747D01*
X415316Y1088052D01*
X413552Y1089815D01*
X411247Y1090770D01*
D02*
G37*
G36*
X351247D02*
X348753D01*
X346448Y1089815D01*
X344685Y1088052D01*
X343730Y1085747D01*
Y1083253D01*
X344685Y1080948D01*
X346448Y1079185D01*
X348753Y1078230D01*
X351247D01*
X353552Y1079185D01*
X355315Y1080948D01*
X356270Y1083253D01*
Y1085747D01*
X355315Y1088052D01*
X353552Y1089815D01*
X351247Y1090770D01*
D02*
G37*
G36*
X171247Y1089020D02*
X168753D01*
X166448Y1088065D01*
X164685Y1086302D01*
X163730Y1083997D01*
Y1081503D01*
X164685Y1079198D01*
X166448Y1077435D01*
X168753Y1076480D01*
X171247D01*
X173552Y1077435D01*
X175315Y1079198D01*
X176270Y1081503D01*
Y1083997D01*
X175315Y1086302D01*
X173552Y1088065D01*
X171247Y1089020D01*
D02*
G37*
G36*
X291247Y1086786D02*
X288753D01*
X286448Y1085831D01*
X284685Y1084067D01*
X283730Y1081763D01*
Y1079268D01*
X284685Y1076964D01*
X286448Y1075200D01*
X288753Y1074246D01*
X291247D01*
X293552Y1075200D01*
X295315Y1076964D01*
X296270Y1079268D01*
Y1081763D01*
X295315Y1084067D01*
X293552Y1085831D01*
X291247Y1086786D01*
D02*
G37*
G36*
X231247D02*
X228753D01*
X226448Y1085831D01*
X224685Y1084067D01*
X223730Y1081763D01*
Y1079268D01*
X224685Y1076964D01*
X226448Y1075200D01*
X228753Y1074246D01*
X231247D01*
X233552Y1075200D01*
X235315Y1076964D01*
X236270Y1079268D01*
Y1081763D01*
X235315Y1084067D01*
X233552Y1085831D01*
X231247Y1086786D01*
D02*
G37*
G36*
X218886Y1056860D02*
X217294D01*
X215824Y1056251D01*
X214699Y1055126D01*
X214090Y1053656D01*
Y1052064D01*
X214699Y1050594D01*
X215824Y1049469D01*
X217294Y1048860D01*
X218886D01*
X220356Y1049469D01*
X221481Y1050594D01*
X222090Y1052064D01*
Y1053656D01*
X221481Y1055126D01*
X220356Y1056251D01*
X218886Y1056860D01*
D02*
G37*
G36*
X85732Y1061270D02*
X83237D01*
X80933Y1060315D01*
X79169Y1058552D01*
X78214Y1056247D01*
Y1053753D01*
X79169Y1051448D01*
X80933Y1049685D01*
X83237Y1048730D01*
X85732D01*
X88036Y1049685D01*
X89800Y1051448D01*
X90754Y1053753D01*
Y1056247D01*
X89800Y1058552D01*
X88036Y1060315D01*
X85732Y1061270D01*
D02*
G37*
G36*
X171247Y1060754D02*
X168753D01*
X166448Y1059800D01*
X164685Y1058036D01*
X163730Y1055732D01*
Y1053237D01*
X164685Y1050933D01*
X166448Y1049169D01*
X168753Y1048214D01*
X171247D01*
X173552Y1049169D01*
X175315Y1050933D01*
X176270Y1053237D01*
Y1055732D01*
X175315Y1058036D01*
X173552Y1059800D01*
X171247Y1060754D01*
D02*
G37*
G36*
X869049Y1063767D02*
X865951D01*
X862959Y1062966D01*
X860275Y1061417D01*
X858085Y1059226D01*
X856536Y1056543D01*
X855734Y1053550D01*
Y1050452D01*
X856536Y1047460D01*
X858085Y1044777D01*
X860275Y1042586D01*
X862959Y1041037D01*
X865951Y1040236D01*
X869049D01*
X872041Y1041037D01*
X874725Y1042586D01*
X876915Y1044777D01*
X878464Y1047460D01*
X879266Y1050452D01*
Y1053550D01*
X878464Y1056543D01*
X876915Y1059226D01*
X874725Y1061417D01*
X872041Y1062966D01*
X869049Y1063767D01*
D02*
G37*
G36*
X734049D02*
X730951D01*
X727959Y1062966D01*
X725275Y1061417D01*
X723085Y1059226D01*
X721536Y1056543D01*
X720734Y1053550D01*
Y1050452D01*
X721536Y1047460D01*
X723085Y1044777D01*
X725275Y1042586D01*
X727959Y1041037D01*
X730951Y1040236D01*
X734049D01*
X737041Y1041037D01*
X739725Y1042586D01*
X741915Y1044777D01*
X743464Y1047460D01*
X744266Y1050452D01*
Y1053550D01*
X743464Y1056543D01*
X741915Y1059226D01*
X739725Y1061417D01*
X737041Y1062966D01*
X734049Y1063767D01*
D02*
G37*
G36*
X524049D02*
X520951D01*
X517958Y1062966D01*
X515275Y1061417D01*
X513085Y1059226D01*
X511536Y1056543D01*
X510734Y1053550D01*
Y1050452D01*
X511536Y1047460D01*
X513085Y1044777D01*
X515275Y1042586D01*
X517958Y1041037D01*
X520951Y1040236D01*
X524049D01*
X527042Y1041037D01*
X529725Y1042586D01*
X531915Y1044777D01*
X533464Y1047460D01*
X534266Y1050452D01*
Y1053550D01*
X533464Y1056543D01*
X531915Y1059226D01*
X529725Y1061417D01*
X527042Y1062966D01*
X524049Y1063767D01*
D02*
G37*
G36*
X355796Y1039000D02*
X354204D01*
X352734Y1038391D01*
X351609Y1037266D01*
X351000Y1035796D01*
Y1034204D01*
X351609Y1032734D01*
X352734Y1031609D01*
X354204Y1031000D01*
X355796D01*
X357266Y1031609D01*
X358391Y1032734D01*
X359000Y1034204D01*
Y1035796D01*
X358391Y1037266D01*
X357266Y1038391D01*
X355796Y1039000D01*
D02*
G37*
G36*
Y1029000D02*
X354204D01*
X352734Y1028391D01*
X351609Y1027266D01*
X351000Y1025796D01*
Y1024204D01*
X351609Y1022734D01*
X352734Y1021609D01*
X354204Y1021000D01*
X355796D01*
X357266Y1021609D01*
X358391Y1022734D01*
X359000Y1024204D01*
Y1025796D01*
X358391Y1027266D01*
X357266Y1028391D01*
X355796Y1029000D01*
D02*
G37*
G36*
X869049Y1029768D02*
X865951D01*
X862959Y1028966D01*
X860275Y1027417D01*
X858085Y1025226D01*
X856536Y1022543D01*
X855734Y1019550D01*
Y1016452D01*
X856536Y1013460D01*
X858085Y1010777D01*
X860275Y1008586D01*
X862959Y1007037D01*
X865951Y1006236D01*
X869049D01*
X872041Y1007037D01*
X874725Y1008586D01*
X876915Y1010777D01*
X878464Y1013460D01*
X879266Y1016452D01*
Y1019550D01*
X878464Y1022543D01*
X876915Y1025226D01*
X874725Y1027417D01*
X872041Y1028966D01*
X869049Y1029768D01*
D02*
G37*
G36*
X734049D02*
X730951D01*
X727959Y1028966D01*
X725275Y1027417D01*
X723085Y1025226D01*
X721536Y1022543D01*
X720734Y1019550D01*
Y1016452D01*
X721536Y1013460D01*
X723085Y1010777D01*
X725275Y1008586D01*
X727959Y1007037D01*
X730951Y1006236D01*
X734049D01*
X737041Y1007037D01*
X739725Y1008586D01*
X741915Y1010777D01*
X743464Y1013460D01*
X744266Y1016452D01*
Y1019550D01*
X743464Y1022543D01*
X741915Y1025226D01*
X739725Y1027417D01*
X737041Y1028966D01*
X734049Y1029768D01*
D02*
G37*
G36*
X659049D02*
X655951D01*
X652959Y1028966D01*
X650275Y1027417D01*
X648085Y1025226D01*
X646536Y1022543D01*
X645734Y1019550D01*
Y1016452D01*
X646536Y1013460D01*
X648085Y1010777D01*
X650275Y1008586D01*
X652959Y1007037D01*
X655951Y1006236D01*
X659049D01*
X662041Y1007037D01*
X664725Y1008586D01*
X666915Y1010777D01*
X668464Y1013460D01*
X669266Y1016452D01*
Y1019550D01*
X668464Y1022543D01*
X666915Y1025226D01*
X664725Y1027417D01*
X662041Y1028966D01*
X659049Y1029768D01*
D02*
G37*
G36*
X524049D02*
X520951D01*
X517958Y1028966D01*
X515275Y1027417D01*
X513085Y1025226D01*
X511536Y1022543D01*
X510734Y1019550D01*
Y1016452D01*
X511536Y1013460D01*
X513085Y1010777D01*
X515275Y1008586D01*
X517958Y1007037D01*
X520951Y1006236D01*
X524049D01*
X527042Y1007037D01*
X529725Y1008586D01*
X531915Y1010777D01*
X533464Y1013460D01*
X534266Y1016452D01*
Y1019550D01*
X533464Y1022543D01*
X531915Y1025226D01*
X529725Y1027417D01*
X527042Y1028966D01*
X524049Y1029768D01*
D02*
G37*
G36*
X1002378Y1024268D02*
X998622D01*
X994994Y1023295D01*
X991740Y1021417D01*
X989084Y1018761D01*
X987206Y1015508D01*
X986234Y1011880D01*
Y1008123D01*
X987206Y1004495D01*
X989084Y1001242D01*
X991740Y998586D01*
X994994Y996708D01*
X998622Y995735D01*
X1002378D01*
X1006006Y996708D01*
X1009259Y998586D01*
X1011916Y1001242D01*
X1013794Y1004495D01*
X1014766Y1008123D01*
Y1011880D01*
X1013794Y1015508D01*
X1011916Y1018761D01*
X1009259Y1021417D01*
X1006006Y1023295D01*
X1002378Y1024268D01*
D02*
G37*
G36*
X85732Y1001270D02*
X83237D01*
X80933Y1000315D01*
X79169Y998552D01*
X78214Y996247D01*
Y993753D01*
X79169Y991448D01*
X80933Y989685D01*
X83237Y988730D01*
X85732D01*
X88036Y989685D01*
X89800Y991448D01*
X90754Y993753D01*
Y996247D01*
X89800Y998552D01*
X88036Y1000315D01*
X85732Y1001270D01*
D02*
G37*
G36*
X884956Y988052D02*
X883365D01*
X881895Y987442D01*
X880770Y986317D01*
X880161Y984847D01*
Y983256D01*
X880770Y981786D01*
X881895Y980660D01*
X883365Y980051D01*
X884956D01*
X886426Y980660D01*
X887552Y981786D01*
X888161Y983256D01*
Y984847D01*
X887552Y986317D01*
X886426Y987442D01*
X884956Y988052D01*
D02*
G37*
G36*
X1042378Y1004268D02*
X1038622D01*
X1034994Y1003295D01*
X1031740Y1001417D01*
X1029084Y998761D01*
X1027206Y995508D01*
X1026234Y991880D01*
Y988123D01*
X1027206Y984495D01*
X1029084Y981242D01*
X1031740Y978586D01*
X1034994Y976708D01*
X1038622Y975735D01*
X1042378D01*
X1046006Y976708D01*
X1049259Y978586D01*
X1051916Y981242D01*
X1053794Y984495D01*
X1054766Y988123D01*
Y991880D01*
X1053794Y995508D01*
X1051916Y998761D01*
X1049259Y1001417D01*
X1046006Y1003295D01*
X1042378Y1004268D01*
D02*
G37*
G36*
X962378D02*
X958622D01*
X954994Y1003295D01*
X951740Y1001417D01*
X949084Y998761D01*
X947206Y995508D01*
X946234Y991880D01*
Y988123D01*
X947206Y984495D01*
X949084Y981242D01*
X951740Y978586D01*
X954994Y976708D01*
X958622Y975735D01*
X962378D01*
X966006Y976708D01*
X969259Y978586D01*
X971916Y981242D01*
X973794Y984495D01*
X974766Y988123D01*
Y991880D01*
X973794Y995508D01*
X971916Y998761D01*
X969259Y1001417D01*
X966006Y1003295D01*
X962378Y1004268D01*
D02*
G37*
G36*
X884956Y975351D02*
X883365D01*
X881895Y974743D01*
X880770Y973617D01*
X880161Y972147D01*
Y970556D01*
X880770Y969086D01*
X881895Y967961D01*
X883365Y967352D01*
X884956D01*
X886426Y967961D01*
X887552Y969086D01*
X888161Y970556D01*
Y972147D01*
X887552Y973617D01*
X886426Y974743D01*
X884956Y975351D01*
D02*
G37*
G36*
X517635Y975351D02*
X516044D01*
X514574Y974743D01*
X513448Y973617D01*
X512839Y972147D01*
Y970556D01*
X513448Y969086D01*
X514574Y967960D01*
X516044Y967352D01*
X517635D01*
X519105Y967960D01*
X520230Y969086D01*
X520839Y970556D01*
Y972147D01*
X520230Y973617D01*
X519105Y974743D01*
X517635Y975351D01*
D02*
G37*
G36*
X815796Y974000D02*
X814204D01*
X812734Y973391D01*
X811609Y972266D01*
X811000Y970796D01*
Y969204D01*
X811609Y967734D01*
X812734Y966609D01*
X814204Y966000D01*
X815796D01*
X817266Y966609D01*
X818391Y967734D01*
X819000Y969204D01*
Y970796D01*
X818391Y972266D01*
X817266Y973391D01*
X815796Y974000D01*
D02*
G37*
G36*
Y964001D02*
X814204D01*
X812734Y963392D01*
X811609Y962267D01*
X811000Y960797D01*
Y959940D01*
X810832Y959169D01*
X810061Y959001D01*
X809939D01*
X809168Y959169D01*
X809000Y959940D01*
Y960797D01*
X808391Y962267D01*
X807266Y963392D01*
X805796Y964001D01*
X804204D01*
X802734Y963392D01*
X801609Y962267D01*
X801000Y960797D01*
Y959206D01*
X801609Y957736D01*
X802734Y956610D01*
X804204Y956002D01*
X805061D01*
X805757Y955850D01*
X805945Y955103D01*
X805437Y954083D01*
X805061Y954001D01*
X804204D01*
X802734Y953392D01*
X801609Y952267D01*
X801000Y950797D01*
Y949206D01*
X801609Y947736D01*
X802734Y946610D01*
X804204Y946002D01*
X805061D01*
X805568Y945891D01*
X805924Y945002D01*
X805568Y944112D01*
X805061Y944001D01*
X804204D01*
X802734Y943392D01*
X801609Y942267D01*
X801000Y940797D01*
Y939206D01*
X801609Y937736D01*
X802734Y936610D01*
X804204Y936002D01*
X805796D01*
X807266Y936610D01*
X808391Y937736D01*
X809000Y939206D01*
Y940063D01*
X809082Y940439D01*
X810101Y940946D01*
X810849Y940758D01*
X811000Y940063D01*
Y939206D01*
X811609Y937736D01*
X812734Y936610D01*
X814204Y936002D01*
X815796D01*
X817266Y936610D01*
X818391Y937736D01*
X819000Y939206D01*
Y940797D01*
X818391Y942267D01*
X817266Y943392D01*
X815796Y944001D01*
X814939D01*
X814243Y944153D01*
X814055Y944900D01*
X814563Y945920D01*
X814939Y946002D01*
X815796D01*
X817266Y946610D01*
X818391Y947736D01*
X819000Y949206D01*
Y950797D01*
X818391Y952267D01*
X817266Y953392D01*
X815796Y954001D01*
X814939D01*
X814563Y954083D01*
X814055Y955103D01*
X814243Y955850D01*
X814939Y956002D01*
X815796D01*
X817266Y956610D01*
X818391Y957736D01*
X819000Y959206D01*
Y960797D01*
X818391Y962267D01*
X817266Y963392D01*
X815796Y964001D01*
D02*
G37*
G36*
X495796Y966500D02*
X494204D01*
X492734Y965891D01*
X491609Y964766D01*
X491000Y963296D01*
Y961704D01*
X491609Y960234D01*
X492734Y959109D01*
X494204Y958500D01*
X495796D01*
X497266Y959109D01*
X498391Y960234D01*
X499000Y961704D01*
Y963296D01*
X498391Y964766D01*
X497266Y965891D01*
X495796Y966500D01*
D02*
G37*
G36*
X1002378Y984268D02*
X998622D01*
X994994Y983295D01*
X991740Y981417D01*
X989084Y978761D01*
X987206Y975508D01*
X986234Y971880D01*
Y968123D01*
X987206Y964495D01*
X989084Y961242D01*
X991740Y958586D01*
X994994Y956708D01*
X998622Y955735D01*
X1002378D01*
X1006006Y956708D01*
X1009259Y958586D01*
X1011916Y961242D01*
X1013794Y964495D01*
X1014766Y968123D01*
Y971880D01*
X1013794Y975508D01*
X1011916Y978761D01*
X1009259Y981417D01*
X1006006Y983295D01*
X1002378Y984268D01*
D02*
G37*
G36*
X884956Y962652D02*
X883365D01*
X881895Y962042D01*
X880770Y960917D01*
X880161Y959447D01*
Y957856D01*
X880770Y956386D01*
X881895Y955260D01*
X883365Y954651D01*
X884956D01*
X886426Y955260D01*
X887552Y956386D01*
X888161Y957856D01*
Y959447D01*
X887552Y960917D01*
X886426Y962042D01*
X884956Y962652D01*
D02*
G37*
G36*
X517635Y962652D02*
X516044D01*
X514574Y962042D01*
X513448Y960917D01*
X512839Y959447D01*
Y957856D01*
X513448Y956386D01*
X514574Y955260D01*
X516044Y954651D01*
X517635D01*
X519105Y955260D01*
X520230Y956386D01*
X520839Y957856D01*
Y959447D01*
X520230Y960917D01*
X519105Y962042D01*
X517635Y962652D01*
D02*
G37*
G36*
X1042378Y964268D02*
X1038622D01*
X1034994Y963295D01*
X1031740Y961417D01*
X1029084Y958761D01*
X1027206Y955508D01*
X1026234Y951880D01*
Y948123D01*
X1027206Y944495D01*
X1029084Y941242D01*
X1031740Y938586D01*
X1034994Y936708D01*
X1038622Y935735D01*
X1042378D01*
X1046006Y936708D01*
X1049259Y938586D01*
X1051916Y941242D01*
X1053794Y944495D01*
X1054766Y948123D01*
Y951880D01*
X1053794Y955508D01*
X1051916Y958761D01*
X1049259Y961417D01*
X1046006Y963295D01*
X1042378Y964268D01*
D02*
G37*
G36*
X974766D02*
X946234D01*
Y935735D01*
X974766D01*
Y964268D01*
D02*
G37*
G36*
X85732Y941270D02*
X83237D01*
X80933Y940315D01*
X79169Y938552D01*
X78214Y936247D01*
Y933753D01*
X79169Y931448D01*
X80933Y929685D01*
X83237Y928730D01*
X85732D01*
X88036Y929685D01*
X89800Y931448D01*
X90754Y933753D01*
Y936247D01*
X89800Y938552D01*
X88036Y940315D01*
X85732Y941270D01*
D02*
G37*
G36*
X869049Y923767D02*
X865951D01*
X862959Y922966D01*
X860275Y921417D01*
X858085Y919226D01*
X856536Y916543D01*
X855734Y913550D01*
Y910452D01*
X856536Y907460D01*
X858085Y904777D01*
X860275Y902586D01*
X862959Y901037D01*
X865951Y900236D01*
X869049D01*
X872041Y901037D01*
X874725Y902586D01*
X876915Y904777D01*
X878464Y907460D01*
X879266Y910452D01*
Y913550D01*
X878464Y916543D01*
X876915Y919226D01*
X874725Y921417D01*
X872041Y922966D01*
X869049Y923767D01*
D02*
G37*
G36*
X734049D02*
X730951D01*
X727959Y922966D01*
X725275Y921417D01*
X723085Y919226D01*
X721536Y916543D01*
X720734Y913550D01*
Y910452D01*
X721536Y907460D01*
X723085Y904777D01*
X725275Y902586D01*
X727959Y901037D01*
X730951Y900236D01*
X734049D01*
X737041Y901037D01*
X739725Y902586D01*
X741915Y904777D01*
X743464Y907460D01*
X744266Y910452D01*
Y913550D01*
X743464Y916543D01*
X741915Y919226D01*
X739725Y921417D01*
X737041Y922966D01*
X734049Y923767D01*
D02*
G37*
G36*
X659049D02*
X655951D01*
X652959Y922966D01*
X650275Y921417D01*
X648085Y919226D01*
X646536Y916543D01*
X645734Y913550D01*
Y910452D01*
X646536Y907460D01*
X648085Y904777D01*
X650275Y902586D01*
X652959Y901037D01*
X655951Y900236D01*
X659049D01*
X662041Y901037D01*
X664725Y902586D01*
X666915Y904777D01*
X668464Y907460D01*
X669266Y910452D01*
Y913550D01*
X668464Y916543D01*
X666915Y919226D01*
X664725Y921417D01*
X662041Y922966D01*
X659049Y923767D01*
D02*
G37*
G36*
X524049D02*
X520951D01*
X517958Y922966D01*
X515275Y921417D01*
X513085Y919226D01*
X511536Y916543D01*
X510734Y913550D01*
Y910452D01*
X511536Y907460D01*
X513085Y904777D01*
X515275Y902586D01*
X517958Y901037D01*
X520951Y900236D01*
X524049D01*
X527042Y901037D01*
X529725Y902586D01*
X531915Y904777D01*
X533464Y907460D01*
X534266Y910452D01*
Y913550D01*
X533464Y916543D01*
X531915Y919226D01*
X529725Y921417D01*
X527042Y922966D01*
X524049Y923767D01*
D02*
G37*
G36*
X1007150Y901751D02*
X1003850D01*
X1000614Y901108D01*
X997566Y899845D01*
X994822Y898012D01*
X992489Y895679D01*
X990656Y892936D01*
X989394Y889887D01*
X988750Y886651D01*
Y883352D01*
X989394Y880116D01*
X990656Y877067D01*
X992489Y874324D01*
X994822Y871991D01*
X997566Y870158D01*
X1000614Y868895D01*
X1003850Y868251D01*
X1007150D01*
X1010386Y868895D01*
X1013434Y870158D01*
X1016178Y871991D01*
X1018511Y874324D01*
X1020344Y877067D01*
X1021606Y880116D01*
X1022250Y883352D01*
Y886651D01*
X1021606Y889887D01*
X1020344Y892936D01*
X1018511Y895679D01*
X1016178Y898012D01*
X1013434Y899845D01*
X1010386Y901108D01*
X1007150Y901751D01*
D02*
G37*
G36*
X869049Y889768D02*
X865951D01*
X862959Y888966D01*
X860275Y887417D01*
X858085Y885226D01*
X856536Y882543D01*
X855734Y879550D01*
Y876452D01*
X856536Y873460D01*
X858085Y870777D01*
X860275Y868586D01*
X862959Y867037D01*
X865951Y866236D01*
X869049D01*
X872041Y867037D01*
X874725Y868586D01*
X876915Y870777D01*
X878464Y873460D01*
X879266Y876452D01*
Y879550D01*
X878464Y882543D01*
X876915Y885226D01*
X874725Y887417D01*
X872041Y888966D01*
X869049Y889768D01*
D02*
G37*
G36*
X734049D02*
X730951D01*
X727959Y888966D01*
X725275Y887417D01*
X723085Y885226D01*
X721536Y882543D01*
X720734Y879550D01*
Y876452D01*
X721536Y873460D01*
X723085Y870777D01*
X725275Y868586D01*
X727959Y867037D01*
X730951Y866236D01*
X734049D01*
X737041Y867037D01*
X739725Y868586D01*
X741915Y870777D01*
X743464Y873460D01*
X744266Y876452D01*
Y879550D01*
X743464Y882543D01*
X741915Y885226D01*
X739725Y887417D01*
X737041Y888966D01*
X734049Y889768D01*
D02*
G37*
G36*
X659049D02*
X655951D01*
X652959Y888966D01*
X650275Y887417D01*
X648085Y885226D01*
X646536Y882543D01*
X645734Y879550D01*
Y876452D01*
X646536Y873460D01*
X648085Y870777D01*
X650275Y868586D01*
X652959Y867037D01*
X655951Y866236D01*
X659049D01*
X662041Y867037D01*
X664725Y868586D01*
X666915Y870777D01*
X668464Y873460D01*
X669266Y876452D01*
Y879550D01*
X668464Y882543D01*
X666915Y885226D01*
X664725Y887417D01*
X662041Y888966D01*
X659049Y889768D01*
D02*
G37*
G36*
X524049D02*
X520951D01*
X517958Y888966D01*
X515275Y887417D01*
X513085Y885226D01*
X511536Y882543D01*
X510734Y879550D01*
Y876452D01*
X511536Y873460D01*
X513085Y870777D01*
X515275Y868586D01*
X517958Y867037D01*
X520951Y866236D01*
X524049D01*
X527042Y867037D01*
X529725Y868586D01*
X531915Y870777D01*
X533464Y873460D01*
X534266Y876452D01*
Y879550D01*
X533464Y882543D01*
X531915Y885226D01*
X529725Y887417D01*
X527042Y888966D01*
X524049Y889768D01*
D02*
G37*
G36*
X128296Y846500D02*
X126704D01*
X125234Y845891D01*
X124109Y844766D01*
X123500Y843296D01*
Y841704D01*
X124109Y840234D01*
X125234Y839109D01*
X126704Y838500D01*
X128296D01*
X129766Y839109D01*
X130891Y840234D01*
X131500Y841704D01*
Y843296D01*
X130891Y844766D01*
X129766Y845891D01*
X128296Y846500D01*
D02*
G37*
G36*
X180796Y909000D02*
X179204D01*
X177734Y908391D01*
X176609Y907266D01*
X176000Y905796D01*
Y904204D01*
X176609Y902734D01*
X177734Y901609D01*
X177820Y901574D01*
Y823963D01*
X177581Y823804D01*
X176565Y824347D01*
Y831000D01*
X176370Y831982D01*
X175814Y832814D01*
X154000Y854628D01*
Y855796D01*
X153391Y857266D01*
X152266Y858391D01*
X150796Y859000D01*
X149204D01*
X147734Y858391D01*
X146609Y857266D01*
X146000Y855796D01*
Y854204D01*
X146609Y852734D01*
X147734Y851609D01*
X149204Y851000D01*
X150372D01*
X171435Y829937D01*
Y811000D01*
X171630Y810018D01*
X172186Y809186D01*
X191000Y790372D01*
Y789204D01*
X191609Y787734D01*
X192734Y786609D01*
X194204Y786000D01*
X195796D01*
X197266Y786609D01*
X198121Y787464D01*
X198750Y787636D01*
X199379Y787464D01*
X200234Y786609D01*
X201704Y786000D01*
X203296D01*
X204766Y786609D01*
X205891Y787734D01*
X206500Y789204D01*
Y790796D01*
X205891Y792266D01*
X204766Y793391D01*
X203296Y794000D01*
X201704D01*
X200234Y793391D01*
X199379Y792536D01*
X198750Y792364D01*
X198121Y792536D01*
X197266Y793391D01*
X195796Y794000D01*
X194628D01*
X176565Y812063D01*
Y816666D01*
X177581Y817087D01*
X178035Y816634D01*
X179505Y816024D01*
X181096D01*
X182567Y816634D01*
X183692Y817759D01*
X184301Y819229D01*
Y820820D01*
X183692Y822290D01*
X182567Y823416D01*
X182481Y823451D01*
Y901824D01*
X183391Y902734D01*
X184000Y904204D01*
Y905796D01*
X183391Y907266D01*
X182266Y908391D01*
X180796Y909000D01*
D02*
G37*
G36*
X380796Y796500D02*
X379204D01*
X377734Y795891D01*
X376609Y794766D01*
X376000Y793296D01*
Y792128D01*
X368437Y784565D01*
X281092D01*
X280266Y785391D01*
X278796Y786000D01*
X277204D01*
X275734Y785391D01*
X274609Y784266D01*
X274000Y782796D01*
Y781204D01*
X274609Y779734D01*
X275734Y778609D01*
X275877Y778550D01*
Y777450D01*
X275734Y777391D01*
X274609Y776266D01*
X274000Y774796D01*
Y773204D01*
X274609Y771734D01*
X275734Y770609D01*
X275978Y770508D01*
Y769492D01*
X275734Y769391D01*
X274609Y768266D01*
X274000Y766796D01*
Y765204D01*
X274609Y763734D01*
X275734Y762609D01*
X275877Y762550D01*
Y761450D01*
X275735Y761391D01*
X274610Y760266D01*
X274001Y758796D01*
Y757204D01*
X274610Y755734D01*
X275735Y754609D01*
X277205Y754000D01*
X278796D01*
X280266Y754609D01*
X281392Y755734D01*
X282001Y757204D01*
Y758796D01*
X281392Y760266D01*
X280266Y761391D01*
X280123Y761450D01*
Y762550D01*
X280266Y762609D01*
X281391Y763734D01*
X282000Y765204D01*
Y766796D01*
X281391Y768266D01*
X280266Y769391D01*
X280022Y769492D01*
Y770508D01*
X280266Y770609D01*
X281391Y771734D01*
X282000Y773204D01*
Y774796D01*
X281391Y776266D01*
X280266Y777391D01*
X280123Y777450D01*
Y778550D01*
X280266Y778609D01*
X281092Y779435D01*
X369500D01*
X370482Y779630D01*
X371314Y780186D01*
X379628Y788500D01*
X380796D01*
X382266Y789109D01*
X383391Y790234D01*
X384000Y791704D01*
Y793296D01*
X383391Y794766D01*
X382266Y795891D01*
X380796Y796500D01*
D02*
G37*
G36*
X252796Y786000D02*
X251204D01*
X249734Y785391D01*
X248609Y784266D01*
X248000Y782796D01*
Y781204D01*
X248609Y779734D01*
X249734Y778609D01*
X251204Y778000D01*
X252796D01*
X254266Y778609D01*
X255391Y779734D01*
X256000Y781204D01*
Y782796D01*
X255391Y784266D01*
X254266Y785391D01*
X252796Y786000D01*
D02*
G37*
G36*
X261796Y778000D02*
X260204D01*
X258734Y777391D01*
X257609Y776266D01*
X257000Y774796D01*
Y773204D01*
X257609Y771734D01*
X258734Y770609D01*
X260204Y770000D01*
X261796D01*
X263266Y770609D01*
X264391Y771734D01*
X265000Y773204D01*
Y774796D01*
X264391Y776266D01*
X263266Y777391D01*
X261796Y778000D01*
D02*
G37*
G36*
X570796Y774000D02*
X569204D01*
X567734Y773391D01*
X566609Y772266D01*
X566000Y770796D01*
Y769204D01*
X566609Y767734D01*
X567734Y766609D01*
X569204Y766000D01*
X570796D01*
X572266Y766609D01*
X573391Y767734D01*
X574000Y769204D01*
Y770796D01*
X573391Y772266D01*
X572266Y773391D01*
X570796Y774000D01*
D02*
G37*
G36*
X348296Y766500D02*
X346704D01*
X345234Y765891D01*
X344109Y764766D01*
X343500Y763296D01*
Y761704D01*
X344109Y760234D01*
X345234Y759109D01*
X346704Y758500D01*
X348296D01*
X349766Y759109D01*
X350891Y760234D01*
X351500Y761704D01*
Y763296D01*
X350891Y764766D01*
X349766Y765891D01*
X348296Y766500D01*
D02*
G37*
G36*
X323296D02*
X321704D01*
X320234Y765891D01*
X319109Y764766D01*
X318500Y763296D01*
Y761704D01*
X319109Y760234D01*
X320234Y759109D01*
X321704Y758500D01*
X323296D01*
X324766Y759109D01*
X325891Y760234D01*
X326500Y761704D01*
Y763296D01*
X325891Y764766D01*
X324766Y765891D01*
X323296Y766500D01*
D02*
G37*
G36*
X418764Y786000D02*
X417172D01*
X415702Y785391D01*
X414577Y784266D01*
X413968Y782796D01*
Y781204D01*
X414577Y779734D01*
X415702Y778609D01*
X415845Y778550D01*
Y777450D01*
X415702Y777391D01*
X414577Y776266D01*
X413968Y774796D01*
Y773204D01*
X414577Y771734D01*
X415702Y770609D01*
X415861Y770543D01*
Y769444D01*
X415734Y769391D01*
X414609Y768266D01*
X414000Y766796D01*
Y765204D01*
X414609Y763734D01*
X415734Y762609D01*
X415877Y762550D01*
Y761450D01*
X415734Y761391D01*
X414609Y760266D01*
X414000Y758796D01*
Y757204D01*
X414609Y755734D01*
X415734Y754609D01*
X417204Y754000D01*
X418796D01*
X420266Y754609D01*
X421391Y755734D01*
X422000Y757204D01*
Y758796D01*
X421391Y760266D01*
X420266Y761391D01*
X420123Y761450D01*
Y762550D01*
X420266Y762609D01*
X421391Y763734D01*
X422000Y765204D01*
Y766796D01*
X421391Y768266D01*
X420266Y769391D01*
X420107Y769457D01*
Y770556D01*
X420234Y770609D01*
X421359Y771734D01*
X421968Y773204D01*
Y774796D01*
X421359Y776266D01*
X420234Y777391D01*
X420091Y777450D01*
Y778550D01*
X420234Y778609D01*
X421359Y779734D01*
X421968Y781204D01*
Y782796D01*
X421359Y784266D01*
X420234Y785391D01*
X418764Y786000D01*
D02*
G37*
G36*
X392795D02*
X391204D01*
X389734Y785391D01*
X388608Y784266D01*
X387999Y782796D01*
Y781204D01*
X388608Y779734D01*
X389734Y778609D01*
X389877Y778550D01*
Y777450D01*
X389734Y777391D01*
X388609Y776266D01*
X388000Y774796D01*
Y773204D01*
X388609Y771734D01*
X389734Y770609D01*
X389978Y770508D01*
Y769492D01*
X389734Y769391D01*
X388609Y768266D01*
X388000Y766796D01*
Y765204D01*
X388609Y763734D01*
X389734Y762609D01*
X389877Y762550D01*
Y761450D01*
X389734Y761391D01*
X388609Y760266D01*
X388000Y758796D01*
Y757204D01*
X388609Y755734D01*
X389734Y754609D01*
X391204Y754000D01*
X392796D01*
X394266Y754609D01*
X395391Y755734D01*
X396000Y757204D01*
Y758796D01*
X395391Y760266D01*
X394266Y761391D01*
X394123Y761450D01*
Y762550D01*
X394266Y762609D01*
X395391Y763734D01*
X396000Y765204D01*
Y766796D01*
X395391Y768266D01*
X394266Y769391D01*
X394022Y769492D01*
Y770508D01*
X394266Y770609D01*
X395391Y771734D01*
X396000Y773204D01*
Y774796D01*
X395391Y776266D01*
X394266Y777391D01*
X394123Y777450D01*
Y778550D01*
X394265Y778609D01*
X395390Y779734D01*
X395999Y781204D01*
Y782796D01*
X395390Y784266D01*
X394265Y785391D01*
X392795Y786000D01*
D02*
G37*
G36*
X252796Y770000D02*
X251204D01*
X249734Y769391D01*
X248609Y768266D01*
X248000Y766796D01*
Y765204D01*
X248609Y763734D01*
X249734Y762609D01*
X249877Y762550D01*
Y761450D01*
X249734Y761391D01*
X248609Y760266D01*
X248000Y758796D01*
Y757204D01*
X248609Y755734D01*
X249734Y754609D01*
X251204Y754000D01*
X252796D01*
X254266Y754609D01*
X255391Y755734D01*
X256000Y757204D01*
Y758796D01*
X255391Y760266D01*
X254266Y761391D01*
X254123Y761450D01*
Y762550D01*
X254266Y762609D01*
X255391Y763734D01*
X256000Y765204D01*
Y766796D01*
X255391Y768266D01*
X254266Y769391D01*
X252796Y770000D01*
D02*
G37*
G36*
X380796Y751500D02*
X379204D01*
X377734Y750891D01*
X376609Y749766D01*
X376000Y748296D01*
Y746704D01*
X376609Y745234D01*
X377734Y744109D01*
X379204Y743500D01*
X380796D01*
X382266Y744109D01*
X383391Y745234D01*
X384000Y746704D01*
Y748296D01*
X383391Y749766D01*
X382266Y750891D01*
X380796Y751500D01*
D02*
G37*
G36*
X450796Y704000D02*
X449204D01*
X447734Y703391D01*
X446609Y702266D01*
X446000Y700796D01*
Y699204D01*
X446609Y697734D01*
X447734Y696609D01*
X449204Y696000D01*
X450796D01*
X452266Y696609D01*
X453391Y697734D01*
X454000Y699204D01*
Y700796D01*
X453391Y702266D01*
X452266Y703391D01*
X450796Y704000D01*
D02*
G37*
G36*
Y694000D02*
X449204D01*
X447734Y693391D01*
X446609Y692266D01*
X446000Y690796D01*
Y689204D01*
X446609Y687734D01*
X447734Y686609D01*
X449204Y686000D01*
X450796D01*
X452266Y686609D01*
X453391Y687734D01*
X454000Y689204D01*
Y690796D01*
X453391Y692266D01*
X452266Y693391D01*
X450796Y694000D01*
D02*
G37*
G36*
X425796D02*
X424204D01*
X422734Y693391D01*
X421609Y692266D01*
X421000Y690796D01*
Y689204D01*
X421609Y687734D01*
X422734Y686609D01*
X424204Y686000D01*
X425796D01*
X427266Y686609D01*
X428391Y687734D01*
X429000Y689204D01*
Y690796D01*
X428391Y692266D01*
X427266Y693391D01*
X425796Y694000D01*
D02*
G37*
G36*
X1007150Y691751D02*
X1003850D01*
X1000614Y691108D01*
X997566Y689845D01*
X994822Y688012D01*
X992489Y685679D01*
X990656Y682936D01*
X989394Y679887D01*
X988750Y676651D01*
Y673352D01*
X989394Y670116D01*
X990656Y667067D01*
X992489Y664324D01*
X994822Y661991D01*
X997566Y660158D01*
X1000614Y658895D01*
X1003850Y658251D01*
X1007150D01*
X1010386Y658895D01*
X1013434Y660158D01*
X1016178Y661991D01*
X1018511Y664324D01*
X1020344Y667067D01*
X1021606Y670116D01*
X1022250Y673352D01*
Y676651D01*
X1021606Y679887D01*
X1020344Y682936D01*
X1018511Y685679D01*
X1016178Y688012D01*
X1013434Y689845D01*
X1010386Y691108D01*
X1007150Y691751D01*
D02*
G37*
G36*
X420796Y654000D02*
X419204D01*
X417734Y653391D01*
X416609Y652266D01*
X416000Y650796D01*
Y649204D01*
X416609Y647734D01*
X417734Y646609D01*
X419204Y646000D01*
X420796D01*
X422266Y646609D01*
X423391Y647734D01*
X424000Y649204D01*
Y650796D01*
X423391Y652266D01*
X422266Y653391D01*
X420796Y654000D01*
D02*
G37*
G36*
X452796Y647000D02*
X451204D01*
X449734Y646391D01*
X448609Y645266D01*
X448550Y645123D01*
X447450D01*
X447391Y645266D01*
X446266Y646391D01*
X444796Y647000D01*
X443204D01*
X441734Y646391D01*
X440609Y645266D01*
X440508Y645022D01*
X439492D01*
X439391Y645266D01*
X438266Y646391D01*
X436796Y647000D01*
X435204D01*
X433734Y646391D01*
X432609Y645266D01*
X432550Y645123D01*
X431450D01*
X431391Y645266D01*
X430266Y646391D01*
X428796Y647000D01*
X427204D01*
X425734Y646391D01*
X424609Y645266D01*
X424000Y643796D01*
Y642204D01*
X424609Y640734D01*
X425734Y639609D01*
X427204Y639000D01*
X428796D01*
X430266Y639609D01*
X431391Y640734D01*
X431450Y640877D01*
X432550D01*
X432609Y640734D01*
X433734Y639609D01*
X435204Y639000D01*
X436796D01*
X438266Y639609D01*
X439391Y640734D01*
X439492Y640978D01*
X440508D01*
X440609Y640734D01*
X441734Y639609D01*
X443204Y639000D01*
X444796D01*
X446266Y639609D01*
X447391Y640734D01*
X447450Y640877D01*
X448550D01*
X448609Y640734D01*
X449734Y639609D01*
X451204Y639000D01*
X452796D01*
X454266Y639609D01*
X455391Y640734D01*
X456000Y642204D01*
Y643796D01*
X455391Y645266D01*
X454266Y646391D01*
X452796Y647000D01*
D02*
G37*
G36*
X523296Y666500D02*
X521704D01*
X520234Y665891D01*
X519109Y664766D01*
X518500Y663296D01*
Y661704D01*
X519109Y660234D01*
X519825Y659518D01*
X520042Y658726D01*
X519790Y658225D01*
X518970Y657405D01*
X518361Y655935D01*
Y654343D01*
X518970Y652873D01*
X519964Y651879D01*
X520076Y651470D01*
X520022Y650679D01*
X519109Y649766D01*
X518500Y648296D01*
Y646704D01*
X519109Y645234D01*
X520234Y644109D01*
X521704Y643500D01*
X523296D01*
X524766Y644109D01*
X525891Y645234D01*
X526500Y646704D01*
Y648296D01*
X525891Y649766D01*
X524897Y650760D01*
X524785Y651169D01*
X524839Y651960D01*
X525752Y652873D01*
X526361Y654343D01*
Y655935D01*
X525752Y657405D01*
X525036Y658121D01*
X524819Y658913D01*
X525071Y659414D01*
X525891Y660234D01*
X526500Y661704D01*
Y663296D01*
X525891Y664766D01*
X524766Y665891D01*
X523296Y666500D01*
D02*
G37*
G36*
X480295Y673500D02*
X478704D01*
X477234Y672891D01*
X476108Y671766D01*
X475499Y670296D01*
Y668704D01*
X476108Y667234D01*
X477234Y666109D01*
X477377Y666050D01*
Y664950D01*
X477234Y664891D01*
X476109Y663766D01*
X475500Y662296D01*
Y660704D01*
X476109Y659234D01*
X477234Y658109D01*
X477478Y658008D01*
Y656992D01*
X477234Y656891D01*
X476109Y655766D01*
X475500Y654296D01*
Y652704D01*
X476109Y651234D01*
X477234Y650109D01*
X477377Y650050D01*
Y648950D01*
X477234Y648891D01*
X476109Y647766D01*
X475500Y646296D01*
Y644704D01*
X476109Y643234D01*
X477234Y642109D01*
X478704Y641500D01*
X480296D01*
X481766Y642109D01*
X482891Y643234D01*
X483500Y644704D01*
Y646296D01*
X482891Y647766D01*
X481766Y648891D01*
X481623Y648950D01*
Y650050D01*
X481766Y650109D01*
X482891Y651234D01*
X483500Y652704D01*
Y654296D01*
X482891Y655766D01*
X481766Y656891D01*
X481522Y656992D01*
Y658008D01*
X481766Y658109D01*
X482891Y659234D01*
X483500Y660704D01*
Y662296D01*
X482891Y663766D01*
X481766Y664891D01*
X481623Y664950D01*
Y666050D01*
X481765Y666109D01*
X482890Y667234D01*
X483499Y668704D01*
Y670296D01*
X482890Y671766D01*
X481765Y672891D01*
X480295Y673500D01*
D02*
G37*
G36*
X592796Y631000D02*
X591204D01*
X589734Y630391D01*
X588609Y629266D01*
X588550Y629123D01*
X587450D01*
X587391Y629266D01*
X586266Y630391D01*
X584796Y631000D01*
X583204D01*
X581734Y630391D01*
X580609Y629266D01*
X580508Y629022D01*
X579492D01*
X579391Y629266D01*
X578266Y630391D01*
X576796Y631000D01*
X575204D01*
X573734Y630391D01*
X572609Y629266D01*
X572550Y629123D01*
X571450D01*
X571391Y629265D01*
X570266Y630390D01*
X568796Y630999D01*
X567204D01*
X565734Y630390D01*
X564609Y629265D01*
X564000Y627795D01*
Y626204D01*
X564609Y624734D01*
X565734Y623608D01*
X567204Y622999D01*
X568796D01*
X570266Y623608D01*
X571391Y624734D01*
X571450Y624877D01*
X572550D01*
X572609Y624734D01*
X573734Y623609D01*
X575204Y623000D01*
X576796D01*
X578266Y623609D01*
X579391Y624734D01*
X579492Y624978D01*
X580508D01*
X580609Y624734D01*
X581734Y623609D01*
X583204Y623000D01*
X584796D01*
X586266Y623609D01*
X587391Y624734D01*
X587450Y624877D01*
X588550D01*
X588609Y624734D01*
X589734Y623609D01*
X591204Y623000D01*
X592796D01*
X594266Y623609D01*
X595391Y624734D01*
X596000Y626204D01*
Y627796D01*
X595391Y629266D01*
X594266Y630391D01*
X592796Y631000D01*
D02*
G37*
G36*
X557837D02*
X556245D01*
X554775Y630391D01*
X553650Y629266D01*
X553570Y629073D01*
X552471D01*
X552391Y629266D01*
X551266Y630391D01*
X549796Y631000D01*
X548204D01*
X546734Y630391D01*
X545609Y629266D01*
X545508Y629022D01*
X544492D01*
X544391Y629266D01*
X543266Y630391D01*
X541796Y631000D01*
X540204D01*
X538734Y630391D01*
X537609Y629266D01*
X537000Y627796D01*
Y626204D01*
X537609Y624734D01*
X538734Y623609D01*
X540204Y623000D01*
X541796D01*
X543266Y623609D01*
X544391Y624734D01*
X544492Y624978D01*
X545508D01*
X545609Y624734D01*
X546734Y623609D01*
X548204Y623000D01*
X549796D01*
X551266Y623609D01*
X552391Y624734D01*
X552471Y624926D01*
X553570D01*
X553650Y624734D01*
X554775Y623609D01*
X556245Y623000D01*
X557837D01*
X559307Y623609D01*
X560432Y624734D01*
X561041Y626204D01*
Y627796D01*
X560432Y629266D01*
X559307Y630391D01*
X557837Y631000D01*
D02*
G37*
G36*
X523296Y636500D02*
X521704D01*
X520234Y635891D01*
X519109Y634766D01*
X518500Y633296D01*
Y631704D01*
X519109Y630234D01*
X520234Y629109D01*
X521704Y628500D01*
X523296D01*
X524766Y629109D01*
X525891Y630234D01*
X526500Y631704D01*
Y633296D01*
X525891Y634766D01*
X524766Y635891D01*
X523296Y636500D01*
D02*
G37*
G36*
X452796Y621000D02*
X451204D01*
X449734Y620391D01*
X448609Y619266D01*
X448550Y619123D01*
X447450D01*
X447391Y619266D01*
X446266Y620391D01*
X444796Y621000D01*
X443204D01*
X441734Y620391D01*
X440609Y619266D01*
X440508Y619022D01*
X439492D01*
X439391Y619266D01*
X438266Y620391D01*
X436796Y621000D01*
X435204D01*
X433734Y620391D01*
X432609Y619266D01*
X432550Y619123D01*
X431450D01*
X431391Y619265D01*
X430266Y620390D01*
X428796Y620999D01*
X427204D01*
X425734Y620390D01*
X424609Y619265D01*
X424000Y617795D01*
Y616204D01*
X424609Y614734D01*
X425734Y613608D01*
X427204Y612999D01*
X428796D01*
X430266Y613608D01*
X431391Y614734D01*
X431450Y614877D01*
X432550D01*
X432609Y614734D01*
X433734Y613609D01*
X435204Y613000D01*
X436796D01*
X438266Y613609D01*
X439391Y614734D01*
X439492Y614978D01*
X440508D01*
X440609Y614734D01*
X441734Y613609D01*
X443204Y613000D01*
X444796D01*
X446266Y613609D01*
X447391Y614734D01*
X447450Y614877D01*
X448550D01*
X448609Y614734D01*
X449734Y613609D01*
X451204Y613000D01*
X452796D01*
X454266Y613609D01*
X455391Y614734D01*
X456000Y616204D01*
Y617796D01*
X455391Y619266D01*
X454266Y620391D01*
X452796Y621000D01*
D02*
G37*
G36*
X1042378Y624268D02*
X1038622D01*
X1034994Y623295D01*
X1031740Y621417D01*
X1029084Y618761D01*
X1027206Y615508D01*
X1026234Y611880D01*
Y608123D01*
X1027206Y604495D01*
X1029084Y601242D01*
X1031740Y598586D01*
X1034994Y596708D01*
X1038622Y595736D01*
X1042378D01*
X1046006Y596708D01*
X1049259Y598586D01*
X1051916Y601242D01*
X1053794Y604495D01*
X1054766Y608123D01*
Y611880D01*
X1053794Y615508D01*
X1051916Y618761D01*
X1049259Y621417D01*
X1046006Y623295D01*
X1042378Y624268D01*
D02*
G37*
G36*
X962378D02*
X958622D01*
X954994Y623295D01*
X951740Y621417D01*
X949084Y618761D01*
X947206Y615508D01*
X946234Y611880D01*
Y608123D01*
X947206Y604495D01*
X949084Y601242D01*
X951740Y598586D01*
X954994Y596708D01*
X958622Y595736D01*
X962378D01*
X966006Y596708D01*
X969259Y598586D01*
X971916Y601242D01*
X973794Y604495D01*
X974766Y608123D01*
Y611880D01*
X973794Y615508D01*
X971916Y618761D01*
X969259Y621417D01*
X966006Y623295D01*
X962378Y624268D01*
D02*
G37*
G36*
X1002378Y604268D02*
X998622D01*
X994994Y603295D01*
X991740Y601417D01*
X989084Y598761D01*
X987206Y595508D01*
X986234Y591880D01*
Y588123D01*
X987206Y584495D01*
X989084Y581242D01*
X991740Y578586D01*
X994994Y576708D01*
X998622Y575736D01*
X1002378D01*
X1006006Y576708D01*
X1009259Y578586D01*
X1011916Y581242D01*
X1013794Y584495D01*
X1014766Y588123D01*
Y591880D01*
X1013794Y595508D01*
X1011916Y598761D01*
X1009259Y601417D01*
X1006006Y603295D01*
X1002378Y604268D01*
D02*
G37*
G36*
X518296Y579000D02*
X516704D01*
X515234Y578391D01*
X514109Y577266D01*
X513500Y575796D01*
Y574204D01*
X514109Y572734D01*
X515234Y571609D01*
X516704Y571000D01*
X518296D01*
X519766Y571609D01*
X520891Y572734D01*
X521500Y574204D01*
Y575796D01*
X520891Y577266D01*
X519766Y578391D01*
X518296Y579000D01*
D02*
G37*
G36*
X508296D02*
X506704D01*
X505234Y578391D01*
X504109Y577266D01*
X503500Y575796D01*
Y574204D01*
X504109Y572734D01*
X505234Y571609D01*
X506704Y571000D01*
X508296D01*
X509766Y571609D01*
X510891Y572734D01*
X511500Y574204D01*
Y575796D01*
X510891Y577266D01*
X509766Y578391D01*
X508296Y579000D01*
D02*
G37*
G36*
X433296Y576500D02*
X431704D01*
X430234Y575891D01*
X429109Y574766D01*
X428500Y573296D01*
Y571704D01*
X429109Y570234D01*
X430234Y569109D01*
X431704Y568500D01*
X433296D01*
X434766Y569109D01*
X435891Y570234D01*
X436500Y571704D01*
Y573296D01*
X435891Y574766D01*
X434766Y575891D01*
X433296Y576500D01*
D02*
G37*
G36*
X1042378Y584268D02*
X1038622D01*
X1034994Y583295D01*
X1031740Y581417D01*
X1029084Y578761D01*
X1027206Y575508D01*
X1026234Y571880D01*
Y568123D01*
X1027206Y564495D01*
X1029084Y561242D01*
X1031740Y558586D01*
X1034994Y556708D01*
X1038622Y555736D01*
X1042378D01*
X1046006Y556708D01*
X1049259Y558586D01*
X1051916Y561242D01*
X1053794Y564495D01*
X1054766Y568123D01*
Y571880D01*
X1053794Y575508D01*
X1051916Y578761D01*
X1049259Y581417D01*
X1046006Y583295D01*
X1042378Y584268D01*
D02*
G37*
G36*
X962378D02*
X958622D01*
X954994Y583295D01*
X951740Y581417D01*
X949084Y578761D01*
X947206Y575508D01*
X946234Y571880D01*
Y568123D01*
X947206Y564495D01*
X949084Y561242D01*
X951740Y558586D01*
X954994Y556708D01*
X958622Y555736D01*
X962378D01*
X966006Y556708D01*
X969259Y558586D01*
X971916Y561242D01*
X973794Y564495D01*
X974766Y568123D01*
Y571880D01*
X973794Y575508D01*
X971916Y578761D01*
X969259Y581417D01*
X966006Y583295D01*
X962378Y584268D01*
D02*
G37*
G36*
X433296Y551500D02*
X431704D01*
X430234Y550891D01*
X429109Y549766D01*
X428500Y548296D01*
Y546704D01*
X429109Y545234D01*
X430234Y544109D01*
X431704Y543500D01*
X433296D01*
X434766Y544109D01*
X435891Y545234D01*
X436500Y546704D01*
Y548296D01*
X435891Y549766D01*
X434766Y550891D01*
X433296Y551500D01*
D02*
G37*
G36*
X498296Y566500D02*
X496704D01*
X495234Y565891D01*
X494109Y564766D01*
X493500Y563296D01*
Y561704D01*
X494109Y560234D01*
X494964Y559379D01*
X495136Y558750D01*
X494964Y558121D01*
X494109Y557266D01*
X493500Y555796D01*
Y554204D01*
X494109Y552734D01*
X495022Y551821D01*
X495076Y551030D01*
X494964Y550621D01*
X493970Y549627D01*
X493361Y548157D01*
Y546565D01*
X493970Y545095D01*
X495095Y543970D01*
X496565Y543361D01*
X498157D01*
X499627Y543970D01*
X500752Y545095D01*
X501361Y546565D01*
Y548157D01*
X500752Y549627D01*
X499839Y550540D01*
X499785Y551331D01*
X499897Y551740D01*
X500891Y552734D01*
X501500Y554204D01*
Y555796D01*
X500891Y557266D01*
X500036Y558121D01*
X499864Y558750D01*
X500036Y559379D01*
X500891Y560234D01*
X501500Y561704D01*
Y563296D01*
X500891Y564766D01*
X499766Y565891D01*
X498296Y566500D01*
D02*
G37*
G36*
X640000Y931101D02*
X580000D01*
X579222Y930779D01*
X578900Y930002D01*
Y700657D01*
X579222Y699879D01*
X579959Y699143D01*
X580400Y698077D01*
Y696923D01*
X579959Y695857D01*
X579222Y695121D01*
X578900Y694343D01*
Y693157D01*
X579222Y692379D01*
X579959Y691643D01*
X580400Y690577D01*
Y689423D01*
X579959Y688357D01*
X579222Y687621D01*
X578900Y686843D01*
Y635000D01*
X579222Y634222D01*
X580000Y633900D01*
X601400D01*
Y610693D01*
X600384Y610273D01*
X599766Y610891D01*
X598296Y611500D01*
X596704D01*
X595234Y610891D01*
X594109Y609766D01*
X593500Y608296D01*
Y606704D01*
X594109Y605234D01*
X594964Y604379D01*
X595136Y603750D01*
X594964Y603121D01*
X594109Y602266D01*
X593500Y600796D01*
Y599204D01*
X594109Y597734D01*
X595234Y596609D01*
X596704Y596000D01*
X598296D01*
X599766Y596609D01*
X600384Y597227D01*
X601400Y596807D01*
Y588193D01*
X600384Y587773D01*
X599766Y588391D01*
X598296Y589000D01*
X596704D01*
X595234Y588391D01*
X594109Y587266D01*
X593500Y585796D01*
Y584204D01*
X594109Y582734D01*
X595234Y581609D01*
X596704Y581000D01*
X598296D01*
X599766Y581609D01*
X600384Y582227D01*
X601400Y581807D01*
Y573193D01*
X600384Y572773D01*
X599766Y573391D01*
X598296Y574000D01*
X596704D01*
X595234Y573391D01*
X594109Y572266D01*
X593500Y570796D01*
Y569204D01*
X594109Y567734D01*
X595234Y566609D01*
X596704Y566000D01*
X598296D01*
X599766Y566609D01*
X600384Y567227D01*
X601400Y566807D01*
Y543193D01*
X600384Y542773D01*
X599766Y543391D01*
X598296Y544000D01*
X596704D01*
X595234Y543391D01*
X594109Y542266D01*
X593500Y540796D01*
Y539204D01*
X594109Y537734D01*
X595234Y536609D01*
X596704Y536000D01*
X598296D01*
X599766Y536609D01*
X600384Y537227D01*
X601400Y536807D01*
Y528193D01*
X600384Y527773D01*
X599766Y528391D01*
X598296Y529000D01*
X596704D01*
X595234Y528391D01*
X594109Y527266D01*
X593500Y525796D01*
Y524204D01*
X594109Y522734D01*
X595234Y521609D01*
X596704Y521000D01*
X598296D01*
X599766Y521609D01*
X600384Y522227D01*
X601400Y521807D01*
Y429404D01*
X600796Y429000D01*
X599204D01*
X597734Y428391D01*
X597016Y427673D01*
X596000Y428094D01*
Y428797D01*
X595391Y430267D01*
X594266Y431393D01*
X592796Y432001D01*
X591204D01*
X589734Y431393D01*
X588609Y430267D01*
X588550Y430125D01*
X587450D01*
X587391Y430267D01*
X586266Y431393D01*
X584796Y432001D01*
X583204D01*
X581734Y431393D01*
X580609Y430267D01*
X580508Y430024D01*
X579492D01*
X579391Y430267D01*
X578266Y431393D01*
X576796Y432001D01*
X575204D01*
X573734Y431393D01*
X572609Y430267D01*
X572508Y430023D01*
X571939Y429940D01*
X571382Y429961D01*
X570345Y430998D01*
X568875Y431607D01*
X567283D01*
X565813Y430998D01*
X564688Y429873D01*
X564079Y428402D01*
Y426811D01*
X564688Y425341D01*
X565813Y424216D01*
X567283Y423607D01*
X568875D01*
X570345Y424216D01*
X571470Y425341D01*
X571571Y425586D01*
X572140Y425668D01*
X572697Y425648D01*
X573734Y424610D01*
X575204Y424002D01*
X576796D01*
X578266Y424610D01*
X579391Y425736D01*
X579492Y425979D01*
X580508D01*
X580609Y425736D01*
X581734Y424610D01*
X583204Y424002D01*
X584796D01*
X586266Y424610D01*
X587391Y425736D01*
X587450Y425878D01*
X588550D01*
X588609Y425736D01*
X589734Y424610D01*
X591204Y424002D01*
X592796D01*
X594266Y424610D01*
X594984Y425329D01*
X596000Y424908D01*
Y424204D01*
X596609Y422734D01*
X597734Y421609D01*
X599204Y421000D01*
X600796D01*
X601400Y420596D01*
Y280657D01*
X601722Y279879D01*
X602459Y279143D01*
X602900Y278077D01*
Y276923D01*
X602459Y275857D01*
X601722Y275121D01*
X601400Y274343D01*
Y32500D01*
X601722Y31722D01*
X602500Y31400D01*
X675845D01*
X676253Y31232D01*
X678747D01*
X679155Y31400D01*
X685000D01*
X685778Y31722D01*
X686100Y32500D01*
Y80593D01*
X687116Y81014D01*
X706564Y61565D01*
X708140Y60512D01*
X710000Y60142D01*
X711860Y60512D01*
X713436Y61565D01*
X714490Y63142D01*
X714859Y65002D01*
X714490Y66861D01*
X713436Y68438D01*
X694859Y87014D01*
Y211987D01*
X703014Y220142D01*
X710000D01*
X711860Y220512D01*
X713436Y221565D01*
X713436D01*
X714490Y223142D01*
X714859Y225002D01*
Y327500D01*
X714490Y329360D01*
X713436Y330936D01*
X694859Y349513D01*
Y372987D01*
X702014Y380142D01*
X710000D01*
X711860Y380512D01*
X713436Y381565D01*
X713436D01*
X714490Y383142D01*
X714859Y385001D01*
Y492500D01*
X714490Y494360D01*
X713436Y495936D01*
X694859Y514513D01*
Y527987D01*
X707014Y540142D01*
X710000D01*
X711860Y540512D01*
X713436Y541565D01*
X716436Y544565D01*
X717489Y546142D01*
X717859Y548002D01*
Y614500D01*
X717489Y616360D01*
X716436Y617936D01*
X701916Y632456D01*
X701756Y632844D01*
X700344Y634256D01*
X698499Y635020D01*
X696501D01*
X694656Y634256D01*
X693244Y632844D01*
X692480Y630999D01*
Y629002D01*
X693244Y627156D01*
X694656Y625744D01*
X695044Y625584D01*
X708141Y612487D01*
Y571344D01*
X707125Y570950D01*
X705796Y571500D01*
X704204D01*
X702734Y570891D01*
X701609Y569766D01*
X701000Y568296D01*
Y566704D01*
X701609Y565234D01*
X702734Y564109D01*
X704204Y563500D01*
X705796D01*
X707125Y564050D01*
X708141Y563656D01*
Y550014D01*
X707987Y549861D01*
X705002D01*
X703142Y549491D01*
X701565Y548438D01*
X687116Y533988D01*
X686100Y534409D01*
X686100Y641400D01*
X704545D01*
X728900Y617044D01*
Y595657D01*
X729222Y594879D01*
X729959Y594143D01*
X730400Y593077D01*
Y591923D01*
X729959Y590857D01*
X729222Y590121D01*
X728900Y589343D01*
Y576660D01*
X728730Y576249D01*
Y573754D01*
X728900Y573343D01*
Y538195D01*
X727884Y537774D01*
X727266Y538392D01*
X725796Y539002D01*
X724204D01*
X722734Y538392D01*
X721879Y537537D01*
X721250Y537365D01*
X720621Y537537D01*
X719766Y538392D01*
X718296Y539002D01*
X716704D01*
X715234Y538392D01*
X714379Y537537D01*
X713750Y537365D01*
X713121Y537537D01*
X712266Y538392D01*
X710796Y539002D01*
X709204D01*
X707734Y538392D01*
X706609Y537267D01*
X706000Y535797D01*
Y534206D01*
X706609Y532736D01*
X707734Y531610D01*
X709204Y531002D01*
X710796D01*
X712266Y531610D01*
X713121Y532466D01*
X713750Y532638D01*
X714379Y532466D01*
X715234Y531610D01*
X716704Y531002D01*
X718296D01*
X719766Y531610D01*
X720621Y532466D01*
X721250Y532638D01*
X721879Y532466D01*
X722465Y531879D01*
X722636Y531251D01*
X722465Y530622D01*
X721609Y529766D01*
X721000Y528296D01*
Y526704D01*
X721609Y525234D01*
X722734Y524109D01*
X724204Y523500D01*
X725796D01*
X727266Y524109D01*
X727714Y524557D01*
X728730Y524136D01*
Y523754D01*
X728900Y523343D01*
Y466660D01*
X728730Y466249D01*
Y463754D01*
X728900Y463343D01*
Y448157D01*
X729222Y447379D01*
X729959Y446643D01*
X730400Y445577D01*
Y444423D01*
X729959Y443357D01*
X729222Y442621D01*
X728900Y441843D01*
Y435657D01*
X729222Y434879D01*
X729959Y434143D01*
X730400Y433077D01*
Y431923D01*
X729959Y430857D01*
X729222Y430121D01*
X728900Y429343D01*
Y416660D01*
X728730Y416249D01*
Y413754D01*
X728900Y413343D01*
Y378195D01*
X727884Y377774D01*
X727266Y378392D01*
X725796Y379002D01*
X724204D01*
X722734Y378392D01*
X721879Y377537D01*
X721250Y377365D01*
X720621Y377537D01*
X719766Y378392D01*
X718296Y379002D01*
X716704D01*
X715234Y378392D01*
X714379Y377537D01*
X713750Y377365D01*
X713121Y377537D01*
X712266Y378392D01*
X710796Y379002D01*
X709204D01*
X707734Y378392D01*
X706609Y377267D01*
X706000Y375797D01*
Y374206D01*
X706609Y372736D01*
X707734Y371610D01*
X709204Y371002D01*
X710796D01*
X712266Y371610D01*
X713121Y372466D01*
X713750Y372638D01*
X714379Y372466D01*
X715234Y371610D01*
X716704Y371002D01*
X718296D01*
X719766Y371610D01*
X720621Y372466D01*
X721250Y372638D01*
X721879Y372466D01*
X722465Y371879D01*
X722636Y371251D01*
X722465Y370622D01*
X721609Y369766D01*
X721000Y368296D01*
Y366704D01*
X721609Y365234D01*
X722734Y364109D01*
X724204Y363500D01*
X725796D01*
X727266Y364109D01*
X727714Y364557D01*
X728730Y364136D01*
Y363754D01*
X728900Y363343D01*
Y306660D01*
X728730Y306249D01*
Y303754D01*
X728900Y303343D01*
Y290657D01*
X729222Y289879D01*
X729959Y289143D01*
X730400Y288077D01*
Y286923D01*
X729959Y285857D01*
X729222Y285121D01*
X728900Y284343D01*
Y275657D01*
X729222Y274879D01*
X729959Y274143D01*
X730400Y273077D01*
Y271923D01*
X729959Y270857D01*
X729222Y270121D01*
X728900Y269343D01*
Y256660D01*
X728730Y256249D01*
Y253754D01*
X728900Y253343D01*
Y218195D01*
X727884Y217774D01*
X727266Y218393D01*
X725796Y219002D01*
X724204D01*
X722734Y218393D01*
X721879Y217537D01*
X721250Y217365D01*
X720621Y217537D01*
X719766Y218393D01*
X718296Y219002D01*
X716704D01*
X715234Y218393D01*
X714379Y217537D01*
X713750Y217365D01*
X713121Y217537D01*
X712266Y218393D01*
X710796Y219002D01*
X709204D01*
X707734Y218393D01*
X706609Y217267D01*
X706000Y215797D01*
Y214206D01*
X706609Y212736D01*
X707734Y211611D01*
X709204Y211001D01*
X710796D01*
X712266Y211611D01*
X713121Y212466D01*
X713750Y212638D01*
X714379Y212466D01*
X715234Y211611D01*
X716704Y211001D01*
X718296D01*
X719766Y211611D01*
X720621Y212466D01*
X721250Y212638D01*
X721879Y212466D01*
X722465Y211879D01*
X722636Y211251D01*
X722465Y210622D01*
X721609Y209766D01*
X721000Y208296D01*
Y206704D01*
X721609Y205234D01*
X722734Y204109D01*
X724204Y203500D01*
X725796D01*
X727266Y204109D01*
X727714Y204557D01*
X728730Y204136D01*
Y203754D01*
X728900Y203343D01*
Y146660D01*
X728730Y146249D01*
Y143754D01*
X728900Y143343D01*
Y130657D01*
X729222Y129879D01*
X729959Y129143D01*
X730400Y128077D01*
Y126923D01*
X729959Y125857D01*
X729222Y125121D01*
X728900Y124343D01*
Y115657D01*
X729222Y114879D01*
X729959Y114143D01*
X730400Y113077D01*
Y111923D01*
X729959Y110857D01*
X729222Y110121D01*
X728900Y109343D01*
Y96660D01*
X728730Y96249D01*
Y93754D01*
X728900Y93343D01*
Y58195D01*
X727884Y57774D01*
X727266Y58393D01*
X725796Y59001D01*
X724204D01*
X722734Y58393D01*
X721879Y57537D01*
X721250Y57365D01*
X720621Y57537D01*
X719766Y58393D01*
X718296Y59001D01*
X716704D01*
X715234Y58393D01*
X714379Y57537D01*
X713750Y57365D01*
X713121Y57537D01*
X712266Y58393D01*
X710796Y59001D01*
X709204D01*
X707734Y58393D01*
X706609Y57267D01*
X706000Y55797D01*
Y54206D01*
X706609Y52736D01*
X707734Y51610D01*
X709204Y51002D01*
X710796D01*
X712266Y51610D01*
X713121Y52466D01*
X713750Y52638D01*
X714379Y52466D01*
X715234Y51610D01*
X716704Y51002D01*
X718296D01*
X719766Y51610D01*
X720621Y52466D01*
X721250Y52638D01*
X721879Y52466D01*
X722465Y51879D01*
X722636Y51251D01*
X722465Y50622D01*
X721609Y49766D01*
X721000Y48296D01*
Y46704D01*
X721609Y45234D01*
X722734Y44109D01*
X724204Y43500D01*
X725796D01*
X727266Y44109D01*
X727714Y44557D01*
X728730Y44136D01*
Y43754D01*
X728900Y43343D01*
Y40001D01*
X729222Y39224D01*
X730000Y38902D01*
X733342D01*
X733753Y38732D01*
X736247D01*
X736658Y38902D01*
X815000D01*
X815778Y39224D01*
X816100Y40001D01*
Y640000D01*
X815778Y640778D01*
X686951Y769604D01*
X686749Y769688D01*
X686594Y769843D01*
X686100Y770744D01*
Y860002D01*
X685778Y860779D01*
X685000Y861101D01*
X660831D01*
X660020Y860806D01*
X659980D01*
X659169Y861101D01*
X641100D01*
Y930002D01*
X640778Y930779D01*
X640000Y931101D01*
D02*
G37*
G36*
X1002378Y564268D02*
X998622D01*
X994994Y563295D01*
X991740Y561417D01*
X989084Y558761D01*
X987206Y555508D01*
X986234Y551880D01*
Y548123D01*
X987206Y544495D01*
X989084Y541242D01*
X991740Y538586D01*
X994994Y536708D01*
X998622Y535736D01*
X1002378D01*
X1006006Y536708D01*
X1009259Y538586D01*
X1011916Y541242D01*
X1013794Y544495D01*
X1014766Y548123D01*
Y551880D01*
X1013794Y555508D01*
X1011916Y558761D01*
X1009259Y561417D01*
X1006006Y563295D01*
X1002378Y564268D01*
D02*
G37*
G36*
X715796Y521502D02*
X714204D01*
X712734Y520892D01*
X711914Y520072D01*
X711519Y519792D01*
X710621Y520037D01*
X710012Y520647D01*
X708542Y521255D01*
X706950D01*
X705480Y520647D01*
X704523Y519689D01*
X703416Y519706D01*
X703391Y519766D01*
X702266Y520891D01*
X700796Y521500D01*
X699204D01*
X697734Y520891D01*
X696609Y519766D01*
X696000Y518296D01*
Y516704D01*
X696609Y515234D01*
X697734Y514109D01*
X699204Y513500D01*
X700796D01*
X702266Y514109D01*
X703223Y515067D01*
X704330Y515049D01*
X704355Y514990D01*
X705480Y513865D01*
X706950Y513256D01*
X708542D01*
X710012Y513865D01*
X710832Y514685D01*
X711227Y514965D01*
X712125Y514720D01*
X712734Y514110D01*
X714204Y513502D01*
X715796D01*
X717266Y514110D01*
X718391Y515236D01*
X719000Y516706D01*
Y518297D01*
X718391Y519767D01*
X717266Y520892D01*
X715796Y521502D01*
D02*
G37*
G36*
X962378Y544268D02*
X958622D01*
X954994Y543295D01*
X951740Y541417D01*
X949084Y538761D01*
X947206Y535508D01*
X946234Y531880D01*
Y528123D01*
X947206Y524495D01*
X949084Y521242D01*
X951740Y518586D01*
X954994Y516708D01*
X958622Y515736D01*
X962378D01*
X966006Y516708D01*
X969259Y518586D01*
X971916Y521242D01*
X973794Y524495D01*
X974766Y528123D01*
Y531880D01*
X973794Y535508D01*
X971916Y538761D01*
X969259Y541417D01*
X966006Y543295D01*
X962378Y544268D01*
D02*
G37*
G36*
X418296Y519000D02*
X416704D01*
X415234Y518391D01*
X414109Y517266D01*
X413500Y515796D01*
Y514204D01*
X414109Y512734D01*
X415234Y511609D01*
X416704Y511000D01*
X418296D01*
X419766Y511609D01*
X420891Y512734D01*
X421500Y514204D01*
Y515796D01*
X420891Y517266D01*
X419766Y518391D01*
X418296Y519000D01*
D02*
G37*
G36*
X452796Y507001D02*
X451204D01*
X449734Y506392D01*
X448609Y505266D01*
X448550Y505123D01*
X447450D01*
X447391Y505266D01*
X446266Y506391D01*
X444796Y507000D01*
X443204D01*
X441734Y506391D01*
X440609Y505266D01*
X440508Y505022D01*
X439492D01*
X439391Y505266D01*
X438266Y506391D01*
X436796Y507000D01*
X435204D01*
X433734Y506391D01*
X432609Y505266D01*
X432550Y505123D01*
X431450D01*
X431391Y505266D01*
X430266Y506391D01*
X428796Y507000D01*
X427204D01*
X425734Y506391D01*
X424609Y505266D01*
X424000Y503796D01*
Y502204D01*
X424609Y500734D01*
X425734Y499609D01*
X427204Y499000D01*
X428796D01*
X430266Y499609D01*
X431391Y500734D01*
X431450Y500877D01*
X432550D01*
X432609Y500734D01*
X433734Y499609D01*
X435204Y499000D01*
X436796D01*
X438266Y499609D01*
X439391Y500734D01*
X439492Y500978D01*
X440508D01*
X440609Y500734D01*
X441734Y499609D01*
X443204Y499000D01*
X444796D01*
X446266Y499609D01*
X447391Y500734D01*
X447450Y500877D01*
X448550D01*
X448609Y500735D01*
X449734Y499610D01*
X451204Y499001D01*
X452796D01*
X454266Y499610D01*
X455391Y500735D01*
X456000Y502205D01*
Y503796D01*
X455391Y505266D01*
X454266Y506392D01*
X452796Y507001D01*
D02*
G37*
G36*
X500796Y511500D02*
X499204D01*
X497734Y510891D01*
X496609Y509766D01*
X496000Y508296D01*
Y506704D01*
X496609Y505234D01*
X497734Y504109D01*
X499204Y503500D01*
X500796D01*
X502266Y504109D01*
X503391Y505234D01*
X504000Y506704D01*
Y508296D01*
X503391Y509766D01*
X502266Y510891D01*
X500796Y511500D01*
D02*
G37*
G36*
X584796Y498548D02*
X583204D01*
X581734Y497939D01*
X580609Y496814D01*
X580508Y496570D01*
X579492D01*
X579391Y496814D01*
X578266Y497939D01*
X576796Y498548D01*
X575204D01*
X573734Y497939D01*
X572609Y496814D01*
X572550Y496671D01*
X571450D01*
X571391Y496814D01*
X570266Y497939D01*
X568796Y498548D01*
X567204D01*
X565734Y497939D01*
X564609Y496814D01*
X564000Y495344D01*
Y493752D01*
X564609Y492282D01*
X565734Y491157D01*
X567204Y490548D01*
X568796D01*
X570266Y491157D01*
X571391Y492282D01*
X571450Y492425D01*
X572550D01*
X572609Y492282D01*
X573734Y491157D01*
X575204Y490548D01*
X576796D01*
X578266Y491157D01*
X579391Y492282D01*
X579492Y492526D01*
X580508D01*
X580609Y492282D01*
X581734Y491157D01*
X583204Y490548D01*
X584796D01*
X586266Y491157D01*
X587391Y492282D01*
X588000Y493752D01*
Y495344D01*
X587391Y496814D01*
X586266Y497939D01*
X584796Y498548D01*
D02*
G37*
G36*
X557695Y498051D02*
X556104D01*
X554634Y497442D01*
X553509Y496317D01*
X553262Y495722D01*
X553143Y495660D01*
X552096Y495561D01*
X551266Y496391D01*
X549796Y497000D01*
X548204D01*
X546734Y496391D01*
X545609Y495266D01*
X545508Y495022D01*
X544492D01*
X544391Y495266D01*
X543266Y496391D01*
X541796Y497000D01*
X540204D01*
X538734Y496391D01*
X537609Y495266D01*
X537550Y495123D01*
X536450D01*
X536391Y495266D01*
X535266Y496391D01*
X533796Y497000D01*
X532204D01*
X530734Y496391D01*
X529609Y495266D01*
X529000Y493796D01*
Y492204D01*
X529609Y490734D01*
X530734Y489609D01*
X532204Y489000D01*
X533796D01*
X535266Y489609D01*
X536391Y490734D01*
X536450Y490877D01*
X537550D01*
X537609Y490734D01*
X538734Y489609D01*
X540204Y489000D01*
X541796D01*
X543266Y489609D01*
X544391Y490734D01*
X544492Y490978D01*
X545508D01*
X545609Y490734D01*
X546734Y489609D01*
X548204Y489000D01*
X549796D01*
X551266Y489609D01*
X552391Y490734D01*
X552637Y491329D01*
X552757Y491391D01*
X553804Y491490D01*
X554634Y490660D01*
X556104Y490051D01*
X557695D01*
X559165Y490660D01*
X560291Y491785D01*
X560900Y493255D01*
Y494847D01*
X560291Y496317D01*
X559165Y497442D01*
X557695Y498051D01*
D02*
G37*
G36*
X205796Y496500D02*
X204204D01*
X202734Y495891D01*
X201609Y494766D01*
X201000Y493296D01*
Y492439D01*
X200849Y491743D01*
X200101Y491555D01*
X199082Y492063D01*
X199000Y492439D01*
Y493296D01*
X198391Y494766D01*
X197266Y495891D01*
X195796Y496500D01*
X194204D01*
X192734Y495891D01*
X191609Y494766D01*
X191000Y493296D01*
Y492439D01*
X190921Y492077D01*
X189895Y491576D01*
X189158Y491783D01*
X189053Y492439D01*
Y493243D01*
X188444Y494713D01*
X187318Y495839D01*
X185848Y496447D01*
X184257D01*
X182787Y495839D01*
X181661Y494713D01*
X181052Y493243D01*
Y491652D01*
X181661Y490182D01*
X182787Y489057D01*
X184257Y488447D01*
X185061D01*
X185869Y488317D01*
X186000Y487509D01*
Y486704D01*
X186609Y485234D01*
X187734Y484109D01*
X189204Y483500D01*
X190796D01*
X192266Y484109D01*
X193391Y485234D01*
X194000Y486704D01*
Y487561D01*
X194151Y488257D01*
X194899Y488445D01*
X195918Y487937D01*
X196000Y487561D01*
Y486704D01*
X196609Y485234D01*
X197734Y484109D01*
X199204Y483500D01*
X200796D01*
X202266Y484109D01*
X203391Y485234D01*
X204000Y486704D01*
Y487561D01*
X204168Y488332D01*
X204939Y488500D01*
X205796D01*
X207266Y489109D01*
X208391Y490234D01*
X209000Y491704D01*
Y493296D01*
X208391Y494766D01*
X207266Y495891D01*
X205796Y496500D01*
D02*
G37*
G36*
X452735Y481077D02*
X451144D01*
X449674Y480468D01*
X448548Y479342D01*
X448465Y479141D01*
X447449D01*
X447391Y479282D01*
X446266Y480407D01*
X444796Y481016D01*
X443204D01*
X441734Y480407D01*
X440609Y479282D01*
X440508Y479038D01*
X439492D01*
X439391Y479282D01*
X438266Y480407D01*
X436796Y481016D01*
X435204D01*
X433734Y480407D01*
X432609Y479282D01*
X432550Y479139D01*
X431450D01*
X431391Y479282D01*
X430266Y480407D01*
X428796Y481016D01*
X427204D01*
X425734Y480407D01*
X424609Y479282D01*
X424000Y477812D01*
Y476220D01*
X424609Y474750D01*
X425734Y473625D01*
X427204Y473016D01*
X428796D01*
X430266Y473625D01*
X431391Y474750D01*
X431450Y474893D01*
X432550D01*
X432609Y474750D01*
X433734Y473625D01*
X435204Y473016D01*
X436796D01*
X438266Y473625D01*
X439391Y474750D01*
X439492Y474994D01*
X440508D01*
X440609Y474750D01*
X441734Y473625D01*
X443204Y473016D01*
X444796D01*
X446266Y473625D01*
X447391Y474750D01*
X447474Y474951D01*
X448490D01*
X448548Y474811D01*
X449674Y473685D01*
X451144Y473077D01*
X452735D01*
X454205Y473685D01*
X455331Y474811D01*
X455939Y476281D01*
Y477872D01*
X455331Y479342D01*
X454205Y480468D01*
X452735Y481077D01*
D02*
G37*
G36*
X962378Y504268D02*
X958622D01*
X954994Y503295D01*
X951740Y501417D01*
X949084Y498761D01*
X947206Y495508D01*
X946234Y491880D01*
Y488123D01*
X947206Y484495D01*
X949084Y481242D01*
X951740Y478586D01*
X954994Y476708D01*
X958622Y475736D01*
X962378D01*
X966006Y476708D01*
X969259Y478586D01*
X971916Y481242D01*
X973794Y484495D01*
X974766Y488123D01*
Y491880D01*
X973794Y495508D01*
X971916Y498761D01*
X969259Y501417D01*
X966006Y503295D01*
X962378Y504268D01*
D02*
G37*
G36*
X557796Y471000D02*
X556204D01*
X554734Y470391D01*
X553609Y469266D01*
X553550Y469123D01*
X552450D01*
X552391Y469266D01*
X551266Y470391D01*
X549796Y471000D01*
X548204D01*
X546734Y470391D01*
X545609Y469266D01*
X545508Y469022D01*
X544492D01*
X544391Y469266D01*
X543266Y470391D01*
X541796Y471000D01*
X540204D01*
X538734Y470391D01*
X537609Y469266D01*
X537550Y469123D01*
X536450D01*
X536391Y469266D01*
X535266Y470391D01*
X533796Y471000D01*
X532204D01*
X530734Y470391D01*
X529609Y469266D01*
X529000Y467796D01*
Y466204D01*
X529609Y464734D01*
X530734Y463609D01*
X532204Y463000D01*
X533796D01*
X535266Y463609D01*
X536391Y464734D01*
X536450Y464877D01*
X537550D01*
X537609Y464734D01*
X538734Y463609D01*
X540204Y463000D01*
X541796D01*
X543266Y463609D01*
X544391Y464734D01*
X544492Y464978D01*
X545508D01*
X545609Y464734D01*
X546734Y463609D01*
X548204Y463000D01*
X549796D01*
X551266Y463609D01*
X552391Y464734D01*
X552450Y464877D01*
X553550D01*
X553609Y464734D01*
X554734Y463609D01*
X556204Y463000D01*
X557796D01*
X559266Y463609D01*
X560391Y464734D01*
X561000Y466204D01*
Y467796D01*
X560391Y469266D01*
X559266Y470391D01*
X557796Y471000D01*
D02*
G37*
G36*
X576796Y470887D02*
X575204D01*
X573734Y470278D01*
X572609Y469152D01*
X572550Y469010D01*
X571450D01*
X571391Y469152D01*
X570266Y470278D01*
X568796Y470887D01*
X567204D01*
X565734Y470278D01*
X564609Y469152D01*
X564000Y467682D01*
Y466091D01*
X564609Y464621D01*
X565734Y463496D01*
X567204Y462887D01*
X568796D01*
X570266Y463496D01*
X571391Y464621D01*
X571450Y464764D01*
X572550D01*
X572609Y464621D01*
X573734Y463496D01*
X575204Y462887D01*
X576796D01*
X578266Y463496D01*
X579391Y464621D01*
X580000Y466091D01*
Y467682D01*
X579391Y469152D01*
X578266Y470278D01*
X576796Y470887D01*
D02*
G37*
G36*
X273296Y466500D02*
X271704D01*
X270234Y465891D01*
X269109Y464766D01*
X268500Y463296D01*
Y461704D01*
X269109Y460234D01*
X269835Y459508D01*
X269914Y459430D01*
X269338Y458568D01*
X269237Y458610D01*
X268296Y459000D01*
X266704D01*
X265234Y458391D01*
X264109Y457266D01*
X263500Y455796D01*
Y454204D01*
X264109Y452734D01*
X265234Y451609D01*
X266704Y451000D01*
X267561D01*
X268332Y450832D01*
X268500Y450061D01*
Y449939D01*
X268332Y449168D01*
X267561Y449000D01*
X266704D01*
X265234Y448391D01*
X264109Y447266D01*
X263500Y445796D01*
Y444204D01*
X264109Y442734D01*
X265234Y441609D01*
X266704Y441000D01*
X268296D01*
X269766Y441609D01*
X270891Y442734D01*
X271500Y444204D01*
Y445061D01*
X271668Y445832D01*
X272439Y446000D01*
X273296D01*
X274766Y446609D01*
X275891Y447734D01*
X276500Y449204D01*
Y450796D01*
X275891Y452266D01*
X274766Y453391D01*
X273296Y454000D01*
X272439D01*
X271668Y454168D01*
X271500Y454939D01*
Y455796D01*
X270891Y457266D01*
X270165Y457992D01*
X270086Y458070D01*
X270662Y458932D01*
X270763Y458890D01*
X271704Y458500D01*
X273296D01*
X274766Y459109D01*
X275891Y460234D01*
X276500Y461704D01*
Y463296D01*
X275891Y464766D01*
X274766Y465891D01*
X273296Y466500D01*
D02*
G37*
G36*
X238297Y461500D02*
X236706D01*
X235236Y460891D01*
X234111Y459766D01*
X233501Y458296D01*
Y456704D01*
X234111Y455234D01*
X235236Y454109D01*
X236706Y453500D01*
X238297D01*
X239767Y454109D01*
X240893Y455234D01*
X241502Y456704D01*
Y458296D01*
X240893Y459766D01*
X239767Y460891D01*
X238297Y461500D01*
D02*
G37*
G36*
X138297D02*
X136706D01*
X135236Y460891D01*
X134110Y459766D01*
X133502Y458296D01*
Y456704D01*
X134110Y455234D01*
X135236Y454109D01*
X136706Y453500D01*
X138297D01*
X139767Y454109D01*
X140892Y455234D01*
X141502Y456704D01*
Y458296D01*
X140892Y459766D01*
X139767Y460891D01*
X138297Y461500D01*
D02*
G37*
G36*
X123297D02*
X121706D01*
X120236Y460891D01*
X119110Y459766D01*
X118502Y458296D01*
Y456704D01*
X119110Y455234D01*
X120236Y454109D01*
X121706Y453500D01*
X123297D01*
X124767Y454109D01*
X125892Y455234D01*
X126502Y456704D01*
Y458296D01*
X125892Y459766D01*
X124767Y460891D01*
X123297Y461500D01*
D02*
G37*
G36*
X88296Y459000D02*
X86704D01*
X85234Y458391D01*
X84109Y457266D01*
X83500Y455796D01*
Y454204D01*
X84109Y452734D01*
X85234Y451609D01*
X86704Y451000D01*
X88296D01*
X89766Y451609D01*
X90891Y452734D01*
X91500Y454204D01*
Y455796D01*
X90891Y457266D01*
X89766Y458391D01*
X88296Y459000D01*
D02*
G37*
G36*
X573498Y735020D02*
X571501D01*
X569656Y734256D01*
X568244Y732844D01*
X568084Y732456D01*
X561564Y725936D01*
X560510Y724360D01*
X560141Y722500D01*
Y699513D01*
X552987Y692359D01*
X515000D01*
X513140Y691990D01*
X511564Y690936D01*
X494064Y673436D01*
X493010Y671860D01*
X492641Y670000D01*
Y627013D01*
X476564Y610936D01*
X475510Y609360D01*
X475141Y607500D01*
Y472013D01*
X460487Y457359D01*
X427500D01*
X425640Y456990D01*
X424064Y455936D01*
X423010Y454360D01*
X422641Y452500D01*
X423010Y450640D01*
X424064Y449064D01*
X425640Y448010D01*
X427500Y447641D01*
X462500D01*
X464360Y448010D01*
X465936Y449064D01*
X483436Y466564D01*
X484490Y468140D01*
X484859Y470000D01*
Y605487D01*
X500936Y621564D01*
X501990Y623140D01*
X502359Y625000D01*
Y667987D01*
X517013Y682641D01*
X555000D01*
X556860Y683010D01*
X558436Y684064D01*
X568436Y694064D01*
X569490Y695640D01*
X569859Y697500D01*
Y720487D01*
X574956Y725584D01*
X575344Y725744D01*
X576756Y727156D01*
X577520Y729001D01*
Y730999D01*
X576756Y732844D01*
X575344Y734256D01*
X573498Y735020D01*
D02*
G37*
G36*
X90796Y446500D02*
X89204D01*
X87734Y445891D01*
X86609Y444766D01*
X86000Y443296D01*
Y441704D01*
X86609Y440234D01*
X87734Y439109D01*
X89204Y438500D01*
X90796D01*
X92266Y439109D01*
X93391Y440234D01*
X94000Y441704D01*
Y443296D01*
X93391Y444766D01*
X92266Y445891D01*
X90796Y446500D01*
D02*
G37*
G36*
X962378Y464268D02*
X958622D01*
X954994Y463295D01*
X951740Y461417D01*
X949084Y458761D01*
X947206Y455508D01*
X946234Y451880D01*
Y448123D01*
X947206Y444495D01*
X949084Y441242D01*
X951740Y438586D01*
X954994Y436708D01*
X958622Y435736D01*
X962378D01*
X966006Y436708D01*
X969259Y438586D01*
X971916Y441242D01*
X973794Y444495D01*
X974766Y448123D01*
Y451880D01*
X973794Y455508D01*
X971916Y458761D01*
X969259Y461417D01*
X966006Y463295D01*
X962378Y464268D01*
D02*
G37*
G36*
X557796Y432001D02*
X556204D01*
X554734Y431393D01*
X553609Y430267D01*
X553550Y430125D01*
X552450D01*
X552391Y430267D01*
X551266Y431393D01*
X549796Y432001D01*
X548204D01*
X546734Y431393D01*
X545609Y430267D01*
X545508Y430024D01*
X544492D01*
X544391Y430267D01*
X543266Y431393D01*
X541796Y432001D01*
X540204D01*
X538734Y431393D01*
X537609Y430267D01*
X537000Y428797D01*
Y427206D01*
X537609Y425736D01*
X538734Y424610D01*
X540204Y424002D01*
X541796D01*
X543266Y424610D01*
X544391Y425736D01*
X544492Y425979D01*
X545508D01*
X545609Y425736D01*
X546734Y424610D01*
X548204Y424002D01*
X549796D01*
X551266Y424610D01*
X552391Y425736D01*
X552450Y425878D01*
X553550D01*
X553609Y425736D01*
X554734Y424610D01*
X556204Y424002D01*
X557796D01*
X559266Y424610D01*
X560391Y425736D01*
X561000Y427206D01*
Y428797D01*
X560391Y430267D01*
X559266Y431393D01*
X557796Y432001D01*
D02*
G37*
G36*
X234935Y426714D02*
X233343D01*
X231873Y426105D01*
X230748Y424980D01*
X230139Y423510D01*
Y421919D01*
X230748Y420449D01*
X231873Y419323D01*
X233343Y418714D01*
X234935D01*
X236405Y419323D01*
X237530Y420449D01*
X238139Y421919D01*
Y423510D01*
X237530Y424980D01*
X236405Y426105D01*
X234935Y426714D01*
D02*
G37*
G36*
X428956Y422650D02*
X427365D01*
X425895Y422041D01*
X424770Y420916D01*
X424161Y419446D01*
Y417854D01*
X424770Y416384D01*
X425895Y415259D01*
X427365Y414650D01*
X428956D01*
X430426Y415259D01*
X431552Y416384D01*
X432161Y417854D01*
Y419446D01*
X431552Y420916D01*
X430426Y422041D01*
X428956Y422650D01*
D02*
G37*
G36*
X90796Y431500D02*
X89204D01*
X87734Y430891D01*
X86609Y429766D01*
X86000Y428296D01*
Y426704D01*
X86609Y425234D01*
X87734Y424109D01*
X88994Y423587D01*
X89280Y422871D01*
X89327Y422484D01*
X89109Y422266D01*
X88500Y420796D01*
Y419939D01*
X88332Y419168D01*
X87561Y419000D01*
X86704D01*
X85234Y418391D01*
X84109Y417266D01*
X83500Y415796D01*
Y414204D01*
X84109Y412734D01*
X85234Y411609D01*
X86704Y411000D01*
X87561D01*
X88332Y410832D01*
X88500Y410061D01*
Y409204D01*
X89109Y407734D01*
X90234Y406609D01*
X91704Y406000D01*
X93296D01*
X94766Y406609D01*
X95891Y407734D01*
X96500Y409204D01*
Y410796D01*
X95891Y412266D01*
X94766Y413391D01*
X93296Y414000D01*
X92439D01*
X91668Y414168D01*
X91500Y414939D01*
Y415061D01*
X91668Y415832D01*
X92439Y416000D01*
X93296D01*
X94766Y416609D01*
X95891Y417734D01*
X96500Y419204D01*
Y420796D01*
X95891Y422266D01*
X94766Y423391D01*
X93506Y423913D01*
X93220Y424629D01*
X93173Y425016D01*
X93391Y425234D01*
X94000Y426704D01*
Y428296D01*
X93391Y429766D01*
X92266Y430891D01*
X90796Y431500D01*
D02*
G37*
G36*
X592796Y406001D02*
X591204D01*
X589734Y405392D01*
X588609Y404267D01*
X588550Y404124D01*
X587450D01*
X587391Y404267D01*
X586266Y405392D01*
X584796Y406001D01*
X583204D01*
X581734Y405392D01*
X580609Y404267D01*
X580508Y404024D01*
X579492D01*
X579391Y404267D01*
X578266Y405392D01*
X576796Y406001D01*
X575204D01*
X573734Y405392D01*
X572609Y404267D01*
X572550Y404124D01*
X571450D01*
X571391Y404267D01*
X570266Y405392D01*
X568796Y406001D01*
X567204D01*
X565734Y405392D01*
X564609Y404267D01*
X564000Y402797D01*
Y401205D01*
X564609Y399735D01*
X565734Y398610D01*
X567204Y398001D01*
X568796D01*
X570266Y398610D01*
X571391Y399735D01*
X571450Y399878D01*
X572550D01*
X572609Y399736D01*
X573734Y398610D01*
X575204Y398002D01*
X576796D01*
X578266Y398610D01*
X579391Y399736D01*
X579492Y399979D01*
X580508D01*
X580609Y399736D01*
X581734Y398610D01*
X583204Y398002D01*
X584796D01*
X586266Y398610D01*
X587391Y399736D01*
X587450Y399878D01*
X588550D01*
X588609Y399736D01*
X589734Y398610D01*
X591204Y398002D01*
X592796D01*
X594266Y398610D01*
X595391Y399736D01*
X596000Y401206D01*
Y402797D01*
X595391Y404267D01*
X594266Y405392D01*
X592796Y406001D01*
D02*
G37*
G36*
X557837D02*
X556245D01*
X554775Y405392D01*
X553650Y404267D01*
X553570Y404075D01*
X552471D01*
X552391Y404267D01*
X551266Y405392D01*
X549796Y406001D01*
X548204D01*
X546734Y405392D01*
X545609Y404267D01*
X545508Y404024D01*
X544492D01*
X544391Y404267D01*
X543266Y405392D01*
X541796Y406001D01*
X540204D01*
X538734Y405392D01*
X537609Y404267D01*
X537000Y402797D01*
Y401206D01*
X537609Y399736D01*
X538734Y398610D01*
X540204Y398002D01*
X541796D01*
X543266Y398610D01*
X544391Y399736D01*
X544492Y399979D01*
X545508D01*
X545609Y399736D01*
X546734Y398610D01*
X548204Y398002D01*
X549796D01*
X551266Y398610D01*
X552391Y399736D01*
X552471Y399928D01*
X553570D01*
X553650Y399736D01*
X554775Y398610D01*
X556245Y398002D01*
X557837D01*
X559307Y398610D01*
X560432Y399736D01*
X561041Y401206D01*
Y402797D01*
X560432Y404267D01*
X559307Y405392D01*
X557837Y406001D01*
D02*
G37*
G36*
X428956Y409950D02*
X427365D01*
X425895Y409341D01*
X424770Y408216D01*
X424161Y406746D01*
Y405154D01*
X424770Y403684D01*
X425895Y402559D01*
X427365Y401950D01*
X428956D01*
X430426Y402559D01*
X431552Y403684D01*
X432161Y405154D01*
Y406746D01*
X431552Y408216D01*
X430426Y409341D01*
X428956Y409950D01*
D02*
G37*
G36*
X1042378Y424268D02*
X1038622D01*
X1034994Y423295D01*
X1031740Y421417D01*
X1029084Y418761D01*
X1027206Y415508D01*
X1026234Y411880D01*
Y408123D01*
X1027206Y404495D01*
X1029084Y401242D01*
X1031740Y398586D01*
X1034994Y396708D01*
X1038622Y395736D01*
X1042378D01*
X1046006Y396708D01*
X1049259Y398586D01*
X1051916Y401242D01*
X1053794Y404495D01*
X1054766Y408123D01*
Y411880D01*
X1053794Y415508D01*
X1051916Y418761D01*
X1049259Y421417D01*
X1046006Y423295D01*
X1042378Y424268D01*
D02*
G37*
G36*
X962378D02*
X958622D01*
X954994Y423295D01*
X951740Y421417D01*
X949084Y418761D01*
X947206Y415508D01*
X946234Y411880D01*
Y408123D01*
X947206Y404495D01*
X949084Y401242D01*
X951740Y398586D01*
X954994Y396708D01*
X958622Y395736D01*
X962378D01*
X966006Y396708D01*
X969259Y398586D01*
X971916Y401242D01*
X973794Y404495D01*
X974766Y408123D01*
Y411880D01*
X973794Y415508D01*
X971916Y418761D01*
X969259Y421417D01*
X966006Y423295D01*
X962378Y424268D01*
D02*
G37*
G36*
X518296Y396500D02*
X516704D01*
X515234Y395891D01*
X514378Y395035D01*
X513750Y394863D01*
X513120Y395034D01*
X512265Y395890D01*
X510795Y396499D01*
X509203D01*
X507733Y395890D01*
X506608Y394765D01*
X505999Y393295D01*
Y391704D01*
X506608Y390233D01*
X507733Y389108D01*
X509203Y388499D01*
X510795D01*
X512265Y389108D01*
X513121Y389964D01*
X513749Y390136D01*
X514378Y389965D01*
X515234Y389109D01*
X516704Y388500D01*
X518296D01*
X519766Y389109D01*
X520891Y390234D01*
X521500Y391704D01*
Y393296D01*
X520891Y394766D01*
X519766Y395891D01*
X518296Y396500D01*
D02*
G37*
G36*
X120796Y409000D02*
X119204D01*
X117734Y408391D01*
X116609Y407266D01*
X116000Y405796D01*
Y404204D01*
X116609Y402734D01*
X117464Y401879D01*
X117636Y401250D01*
X117464Y400621D01*
X116609Y399766D01*
X116000Y398296D01*
Y396704D01*
X116609Y395234D01*
X117734Y394109D01*
X119204Y393500D01*
X120796D01*
X122266Y394109D01*
X123391Y395234D01*
X124000Y396704D01*
Y398296D01*
X123391Y399766D01*
X122536Y400621D01*
X122364Y401250D01*
X122536Y401879D01*
X123391Y402734D01*
X124000Y404204D01*
Y405796D01*
X123391Y407266D01*
X122266Y408391D01*
X120796Y409000D01*
D02*
G37*
G36*
X427296Y384000D02*
X425704D01*
X424234Y383391D01*
X423109Y382266D01*
X422500Y380796D01*
Y379204D01*
X423109Y377734D01*
X424234Y376609D01*
X425704Y376000D01*
X427296D01*
X428766Y376609D01*
X429891Y377734D01*
X430500Y379204D01*
Y380796D01*
X429891Y382266D01*
X428766Y383391D01*
X427296Y384000D01*
D02*
G37*
G36*
X405796D02*
X404204D01*
X402734Y383391D01*
X401609Y382266D01*
X401000Y380796D01*
Y379204D01*
X401609Y377734D01*
X402734Y376609D01*
X404204Y376000D01*
X405796D01*
X407266Y376609D01*
X408391Y377734D01*
X409000Y379204D01*
Y380796D01*
X408391Y382266D01*
X407266Y383391D01*
X405796Y384000D01*
D02*
G37*
G36*
X715796Y361502D02*
X714204D01*
X712734Y360892D01*
X711879Y360037D01*
X711250Y359865D01*
X710621Y360037D01*
X709766Y360892D01*
X708296Y361502D01*
X706704D01*
X705234Y360892D01*
X704379Y360037D01*
X703751Y359865D01*
X703121Y360036D01*
X702266Y360891D01*
X700796Y361500D01*
X699204D01*
X697734Y360891D01*
X696609Y359766D01*
X696000Y358296D01*
Y356704D01*
X696609Y355234D01*
X697734Y354109D01*
X699204Y353500D01*
X700796D01*
X702266Y354109D01*
X703121Y354965D01*
X703749Y355137D01*
X704379Y354965D01*
X705234Y354110D01*
X706704Y353502D01*
X708296D01*
X709766Y354110D01*
X710621Y354966D01*
X711250Y355138D01*
X711879Y354966D01*
X712734Y354110D01*
X714204Y353502D01*
X715796D01*
X717266Y354110D01*
X718391Y355236D01*
X719000Y356706D01*
Y358297D01*
X718391Y359767D01*
X717266Y360892D01*
X715796Y361502D01*
D02*
G37*
G36*
X1042378Y384268D02*
X1038622D01*
X1034994Y383295D01*
X1031740Y381417D01*
X1029084Y378761D01*
X1027206Y375508D01*
X1026234Y371880D01*
Y368123D01*
X1027206Y364495D01*
X1029084Y361242D01*
X1031740Y358586D01*
X1034994Y356708D01*
X1038622Y355736D01*
X1042378D01*
X1046006Y356708D01*
X1049259Y358586D01*
X1051916Y361242D01*
X1053794Y364495D01*
X1054766Y368123D01*
Y371880D01*
X1053794Y375508D01*
X1051916Y378761D01*
X1049259Y381417D01*
X1046006Y383295D01*
X1042378Y384268D01*
D02*
G37*
G36*
X962378D02*
X958622D01*
X954994Y383295D01*
X951740Y381417D01*
X949084Y378761D01*
X947206Y375508D01*
X946234Y371880D01*
Y368123D01*
X947206Y364495D01*
X949084Y361242D01*
X951740Y358586D01*
X954994Y356708D01*
X958622Y355736D01*
X962378D01*
X966006Y356708D01*
X969259Y358586D01*
X971916Y361242D01*
X973794Y364495D01*
X974766Y368123D01*
Y371880D01*
X973794Y375508D01*
X971916Y378761D01*
X969259Y381417D01*
X966006Y383295D01*
X962378Y384268D01*
D02*
G37*
G36*
X298296Y348984D02*
X296704D01*
X295234Y348375D01*
X294109Y347250D01*
X293500Y345780D01*
Y344188D01*
X294109Y342718D01*
X295234Y341593D01*
X296704Y340984D01*
X297561D01*
X298329Y340830D01*
X298500Y340045D01*
Y339204D01*
X299109Y337734D01*
X300234Y336609D01*
X301704Y336000D01*
X303296D01*
X304766Y336609D01*
X305891Y337734D01*
X306500Y339204D01*
Y340796D01*
X305891Y342266D01*
X304766Y343391D01*
X303296Y344000D01*
X302439D01*
X301671Y344154D01*
X301500Y344939D01*
Y345780D01*
X300891Y347250D01*
X299766Y348375D01*
X298296Y348984D01*
D02*
G37*
G36*
X270796Y369000D02*
X269204D01*
X267734Y368391D01*
X266609Y367266D01*
X266000Y365796D01*
Y364204D01*
X266609Y362734D01*
X267734Y361609D01*
X269204Y361000D01*
X270061D01*
X270569Y360890D01*
X270924Y360000D01*
X270569Y359110D01*
X270061Y359000D01*
X269204D01*
X267734Y358391D01*
X266609Y357266D01*
X266000Y355796D01*
Y354204D01*
X266609Y352734D01*
X267734Y351609D01*
X269204Y351000D01*
X270061D01*
X270569Y350890D01*
X270924Y350000D01*
X270568Y349110D01*
X270061Y349000D01*
X269204D01*
X267734Y348391D01*
X266609Y347266D01*
X266000Y345796D01*
Y344204D01*
X266609Y342734D01*
X267734Y341609D01*
X269204Y341000D01*
X270061D01*
X270832Y340832D01*
X271000Y340061D01*
Y339204D01*
X271609Y337734D01*
X272734Y336609D01*
X274204Y336000D01*
X275796D01*
X277266Y336609D01*
X278391Y337734D01*
X279000Y339204D01*
Y340796D01*
X278391Y342266D01*
X277266Y343391D01*
X275796Y344000D01*
X274939D01*
X274431Y344110D01*
X274076Y345000D01*
X274431Y345890D01*
X274939Y346000D01*
X275796D01*
X277266Y346609D01*
X278391Y347734D01*
X279000Y349204D01*
Y350796D01*
X278391Y352266D01*
X277266Y353391D01*
X275796Y354000D01*
X274939D01*
X274431Y354110D01*
X274076Y355000D01*
X274432Y355890D01*
X274939Y356000D01*
X275796D01*
X277266Y356609D01*
X278391Y357734D01*
X279000Y359204D01*
Y360796D01*
X278391Y362266D01*
X277266Y363391D01*
X275796Y364000D01*
X274939D01*
X274168Y364168D01*
X274000Y364939D01*
Y365796D01*
X273391Y367266D01*
X272266Y368391D01*
X270796Y369000D01*
D02*
G37*
G36*
X445796Y339000D02*
X444204D01*
X442734Y338391D01*
X441609Y337266D01*
X441000Y335796D01*
Y334204D01*
X441609Y332734D01*
X442734Y331609D01*
X444204Y331000D01*
X445796D01*
X447266Y331609D01*
X448391Y332734D01*
X449000Y334204D01*
Y335796D01*
X448391Y337266D01*
X447266Y338391D01*
X445796Y339000D01*
D02*
G37*
G36*
X420796D02*
X419204D01*
X417734Y338391D01*
X416609Y337266D01*
X416000Y335796D01*
Y334204D01*
X416609Y332734D01*
X417734Y331609D01*
X419204Y331000D01*
X420796D01*
X422266Y331609D01*
X423391Y332734D01*
X424000Y334204D01*
Y335796D01*
X423391Y337266D01*
X422266Y338391D01*
X420796Y339000D01*
D02*
G37*
G36*
X365796Y331500D02*
X364204D01*
X362734Y330891D01*
X361609Y329766D01*
X361000Y328296D01*
Y326704D01*
X361609Y325234D01*
X362734Y324109D01*
X364204Y323500D01*
X365796D01*
X367266Y324109D01*
X368391Y325234D01*
X369000Y326704D01*
Y328296D01*
X368391Y329766D01*
X367266Y330891D01*
X365796Y331500D01*
D02*
G37*
G36*
X962378Y344268D02*
X958622D01*
X954994Y343295D01*
X951740Y341417D01*
X949084Y338761D01*
X947206Y335508D01*
X946234Y331880D01*
Y328123D01*
X947206Y324495D01*
X949084Y321242D01*
X951740Y318586D01*
X954994Y316708D01*
X958622Y315735D01*
X962378D01*
X966006Y316708D01*
X969259Y318586D01*
X971916Y321242D01*
X973794Y324495D01*
X974766Y328123D01*
Y331880D01*
X973794Y335508D01*
X971916Y338761D01*
X969259Y341417D01*
X966006Y343295D01*
X962378Y344268D01*
D02*
G37*
G36*
X300796Y316500D02*
X299204D01*
X297734Y315891D01*
X296609Y314766D01*
X296000Y313296D01*
Y311704D01*
X296609Y310234D01*
X297734Y309109D01*
X299204Y308500D01*
X300796D01*
X302266Y309109D01*
X303391Y310234D01*
X304000Y311704D01*
Y313296D01*
X303391Y314766D01*
X302266Y315891D01*
X300796Y316500D01*
D02*
G37*
G36*
X35796D02*
X34204D01*
X32734Y315891D01*
X31609Y314766D01*
X31000Y313296D01*
Y311704D01*
X31609Y310234D01*
X32734Y309109D01*
X34204Y308500D01*
X35796D01*
X37266Y309109D01*
X38391Y310234D01*
X39000Y311704D01*
Y313296D01*
X38391Y314766D01*
X37266Y315891D01*
X35796Y316500D01*
D02*
G37*
G36*
X385796Y309000D02*
X384204D01*
X382734Y308391D01*
X381609Y307266D01*
X381000Y305796D01*
Y304204D01*
X381609Y302734D01*
X382734Y301609D01*
X384204Y301000D01*
X385796D01*
X387266Y301609D01*
X388391Y302734D01*
X389000Y304204D01*
Y305796D01*
X388391Y307266D01*
X387266Y308391D01*
X385796Y309000D01*
D02*
G37*
G36*
X370796D02*
X369204D01*
X367734Y308391D01*
X366609Y307266D01*
X366000Y305796D01*
Y304204D01*
X366609Y302734D01*
X367734Y301609D01*
X369204Y301000D01*
X370796D01*
X372266Y301609D01*
X373391Y302734D01*
X374000Y304204D01*
Y305796D01*
X373391Y307266D01*
X372266Y308391D01*
X370796Y309000D01*
D02*
G37*
G36*
X300796Y306500D02*
X299204D01*
X297734Y305891D01*
X296609Y304766D01*
X296000Y303296D01*
Y301704D01*
X296609Y300234D01*
X297734Y299109D01*
X299204Y298500D01*
X300796D01*
X302266Y299109D01*
X303391Y300234D01*
X304000Y301704D01*
Y303296D01*
X303391Y304766D01*
X302266Y305891D01*
X300796Y306500D01*
D02*
G37*
G36*
X522500Y624859D02*
X520640Y624490D01*
X519064Y623436D01*
X518010Y621860D01*
X517641Y620000D01*
X518010Y618140D01*
X519064Y616564D01*
X527641Y607987D01*
Y569513D01*
X514064Y555936D01*
X513010Y554360D01*
X512641Y552500D01*
Y507500D01*
Y407500D01*
X513010Y405640D01*
X514064Y404064D01*
X525628Y392500D01*
X511564Y378436D01*
X510510Y376860D01*
X510141Y375000D01*
Y287359D01*
X495000D01*
X493140Y286989D01*
X491564Y285936D01*
X490510Y284360D01*
X490141Y282500D01*
X490510Y280640D01*
X491564Y279064D01*
X493140Y278011D01*
X495000Y277641D01*
X515000D01*
X516860Y278011D01*
X518436Y279064D01*
X519490Y280640D01*
X519859Y282500D01*
Y372987D01*
X535936Y389064D01*
X536990Y390640D01*
X537359Y392500D01*
X536990Y394360D01*
X535936Y395936D01*
X522359Y409513D01*
Y507500D01*
Y550487D01*
X535936Y564064D01*
X536990Y565640D01*
X537359Y567500D01*
Y610000D01*
X536990Y611860D01*
X535936Y613436D01*
X525936Y623436D01*
X524360Y624490D01*
X522500Y624859D01*
D02*
G37*
G36*
X962378Y304268D02*
X958622D01*
X954994Y303295D01*
X951740Y301417D01*
X949084Y298761D01*
X947206Y295508D01*
X946234Y291880D01*
Y288123D01*
X947206Y284495D01*
X949084Y281242D01*
X951740Y278586D01*
X954994Y276708D01*
X958622Y275735D01*
X962378D01*
X966006Y276708D01*
X969259Y278586D01*
X971916Y281242D01*
X973794Y284495D01*
X974766Y288123D01*
Y291880D01*
X973794Y295508D01*
X971916Y298761D01*
X969259Y301417D01*
X966006Y303295D01*
X962378Y304268D01*
D02*
G37*
G36*
X557796Y272002D02*
X556204D01*
X554734Y271393D01*
X553609Y270268D01*
X553550Y270125D01*
X552450D01*
X552391Y270267D01*
X551266Y271392D01*
X549796Y272001D01*
X548204D01*
X546734Y271392D01*
X545609Y270267D01*
X545508Y270024D01*
X544492D01*
X544391Y270267D01*
X543266Y271392D01*
X541796Y272001D01*
X540204D01*
X538734Y271392D01*
X537609Y270267D01*
X537550Y270125D01*
X536450D01*
X536391Y270267D01*
X535266Y271392D01*
X533796Y272001D01*
X532204D01*
X530734Y271392D01*
X529609Y270267D01*
X529000Y268797D01*
Y267206D01*
X529609Y265736D01*
X530734Y264611D01*
X532204Y264002D01*
X533796D01*
X535266Y264611D01*
X536391Y265736D01*
X536450Y265878D01*
X537550D01*
X537609Y265736D01*
X538734Y264611D01*
X540204Y264002D01*
X541796D01*
X543266Y264611D01*
X544391Y265736D01*
X544492Y265979D01*
X545508D01*
X545609Y265736D01*
X546734Y264611D01*
X548204Y264002D01*
X549796D01*
X551266Y264611D01*
X552391Y265736D01*
X552450Y265879D01*
X553550D01*
X553609Y265736D01*
X554734Y264611D01*
X556204Y264002D01*
X557796D01*
X559266Y264611D01*
X560391Y265736D01*
X561000Y267206D01*
Y268798D01*
X560391Y270268D01*
X559266Y271393D01*
X557796Y272002D01*
D02*
G37*
G36*
X584796Y272001D02*
X583204D01*
X581734Y271392D01*
X580609Y270267D01*
X580508Y270024D01*
X579492D01*
X579391Y270267D01*
X578266Y271392D01*
X576796Y272001D01*
X575204D01*
X573734Y271392D01*
X572609Y270267D01*
X572550Y270125D01*
X571450D01*
X571391Y270267D01*
X570266Y271392D01*
X568796Y272001D01*
X567204D01*
X565734Y271392D01*
X564609Y270267D01*
X564000Y268797D01*
Y267206D01*
X564609Y265736D01*
X565734Y264611D01*
X567204Y264002D01*
X568796D01*
X570266Y264611D01*
X571391Y265736D01*
X571450Y265878D01*
X572550D01*
X572609Y265736D01*
X573734Y264611D01*
X575204Y264002D01*
X576796D01*
X578266Y264611D01*
X579391Y265736D01*
X579492Y265979D01*
X580508D01*
X580609Y265736D01*
X581734Y264611D01*
X583204Y264002D01*
X584796D01*
X586266Y264611D01*
X587391Y265736D01*
X588000Y267206D01*
Y268797D01*
X587391Y270267D01*
X586266Y271392D01*
X584796Y272001D01*
D02*
G37*
G36*
X280796Y264000D02*
X279204D01*
X277734Y263391D01*
X276609Y262266D01*
X276000Y260796D01*
Y259204D01*
X276609Y257734D01*
X277734Y256609D01*
X279204Y256000D01*
X280796D01*
X282266Y256609D01*
X283391Y257734D01*
X284000Y259204D01*
Y260796D01*
X283391Y262266D01*
X282266Y263391D01*
X280796Y264000D01*
D02*
G37*
G36*
X308796Y268500D02*
X307204D01*
X305734Y267891D01*
X304609Y266766D01*
X304000Y265296D01*
Y263704D01*
X304609Y262234D01*
X305734Y261109D01*
X307204Y260500D01*
Y259500D01*
X305734Y258891D01*
X304609Y257766D01*
X304000Y256296D01*
Y254704D01*
X304609Y253234D01*
X305734Y252109D01*
X307204Y251500D01*
X308796D01*
X310266Y252109D01*
X311391Y253234D01*
X312000Y254704D01*
Y256296D01*
X311391Y257766D01*
X310266Y258891D01*
X308796Y259500D01*
Y260500D01*
X310266Y261109D01*
X311391Y262234D01*
X312000Y263704D01*
Y265296D01*
X311391Y266766D01*
X310266Y267891D01*
X308796Y268500D01*
D02*
G37*
G36*
X258796D02*
X257204D01*
X255734Y267891D01*
X254609Y266766D01*
X254000Y265296D01*
Y263704D01*
X254609Y262234D01*
X255734Y261109D01*
X257204Y260500D01*
Y259500D01*
X255734Y258891D01*
X254609Y257766D01*
X254000Y256296D01*
Y254704D01*
X254609Y253234D01*
X255734Y252109D01*
X257204Y251500D01*
X258796D01*
X260266Y252109D01*
X261391Y253234D01*
X262000Y254704D01*
Y256296D01*
X261391Y257766D01*
X260266Y258891D01*
X258796Y259500D01*
Y260500D01*
X260266Y261109D01*
X261391Y262234D01*
X262000Y263704D01*
Y265296D01*
X261391Y266766D01*
X260266Y267891D01*
X258796Y268500D01*
D02*
G37*
G36*
X557796Y246001D02*
X556204D01*
X554734Y245392D01*
X553609Y244267D01*
X553550Y244125D01*
X552450D01*
X552391Y244267D01*
X551266Y245392D01*
X549796Y246001D01*
X548204D01*
X546734Y245392D01*
X545609Y244267D01*
X545508Y244023D01*
X544492D01*
X544391Y244267D01*
X543266Y245392D01*
X541796Y246001D01*
X540204D01*
X538734Y245392D01*
X537609Y244267D01*
X537550Y244125D01*
X536450D01*
X536391Y244267D01*
X535266Y245392D01*
X533796Y246001D01*
X532204D01*
X530734Y245392D01*
X529609Y244267D01*
X529000Y242797D01*
Y241206D01*
X529609Y239736D01*
X530734Y238610D01*
X532204Y238001D01*
X533796D01*
X535266Y238610D01*
X536391Y239736D01*
X536450Y239878D01*
X537550D01*
X537609Y239736D01*
X538734Y238610D01*
X540204Y238001D01*
X541796D01*
X543266Y238610D01*
X544391Y239736D01*
X544492Y239979D01*
X545508D01*
X545609Y239736D01*
X546734Y238610D01*
X548204Y238001D01*
X549796D01*
X551266Y238610D01*
X552391Y239736D01*
X552450Y239878D01*
X553550D01*
X553609Y239736D01*
X554734Y238610D01*
X556204Y238001D01*
X557796D01*
X559266Y238610D01*
X560391Y239736D01*
X561000Y241206D01*
Y242797D01*
X560391Y244267D01*
X559266Y245392D01*
X557796Y246001D01*
D02*
G37*
G36*
X584796D02*
X583204D01*
X581734Y245392D01*
X580609Y244267D01*
X580508Y244023D01*
X579492D01*
X579391Y244267D01*
X578266Y245392D01*
X576796Y246001D01*
X575204D01*
X573734Y245392D01*
X572609Y244267D01*
X572550Y244125D01*
X571450D01*
X571391Y244267D01*
X570266Y245392D01*
X568796Y246001D01*
X567204D01*
X565734Y245392D01*
X564609Y244267D01*
X564000Y242797D01*
Y241206D01*
X564609Y239736D01*
X565734Y238610D01*
X567204Y238001D01*
X568796D01*
X570266Y238610D01*
X571391Y239736D01*
X571450Y239878D01*
X572550D01*
X572609Y239736D01*
X573734Y238610D01*
X575204Y238001D01*
X576796D01*
X578266Y238610D01*
X579391Y239736D01*
X579492Y239979D01*
X580508D01*
X580609Y239736D01*
X581734Y238610D01*
X583204Y238001D01*
X584796D01*
X586266Y238610D01*
X587391Y239736D01*
X588000Y241206D01*
Y242797D01*
X587391Y244267D01*
X586266Y245392D01*
X584796Y246001D01*
D02*
G37*
G36*
X1042378Y264268D02*
X1038622D01*
X1034994Y263295D01*
X1031740Y261417D01*
X1029084Y258761D01*
X1027206Y255508D01*
X1026234Y251880D01*
Y248123D01*
X1027206Y244495D01*
X1029084Y241242D01*
X1031740Y238586D01*
X1034994Y236708D01*
X1038622Y235735D01*
X1042378D01*
X1046006Y236708D01*
X1049259Y238586D01*
X1051916Y241242D01*
X1053794Y244495D01*
X1054766Y248123D01*
Y251880D01*
X1053794Y255508D01*
X1051916Y258761D01*
X1049259Y261417D01*
X1046006Y263295D01*
X1042378Y264268D01*
D02*
G37*
G36*
X962378D02*
X958622D01*
X954994Y263295D01*
X951740Y261417D01*
X949084Y258761D01*
X947206Y255508D01*
X946234Y251880D01*
Y248123D01*
X947206Y244495D01*
X949084Y241242D01*
X951740Y238586D01*
X954994Y236708D01*
X958622Y235735D01*
X962378D01*
X966006Y236708D01*
X969259Y238586D01*
X971916Y241242D01*
X973794Y244495D01*
X974766Y248123D01*
Y251880D01*
X973794Y255508D01*
X971916Y258761D01*
X969259Y261417D01*
X966006Y263295D01*
X962378Y264268D01*
D02*
G37*
G36*
X715796Y201502D02*
X714204D01*
X712734Y200893D01*
X711914Y200072D01*
X711518Y199792D01*
X710621Y200037D01*
X710011Y200647D01*
X708541Y201256D01*
X706950D01*
X705480Y200647D01*
X704522Y199690D01*
X703415Y199708D01*
X703391Y199766D01*
X702266Y200891D01*
X700796Y201500D01*
X699204D01*
X697734Y200891D01*
X696609Y199766D01*
X696000Y198296D01*
Y196704D01*
X696609Y195234D01*
X697734Y194109D01*
X699204Y193500D01*
X700796D01*
X702266Y194109D01*
X703223Y195066D01*
X704330Y195049D01*
X704354Y194990D01*
X705480Y193865D01*
X706950Y193256D01*
X708541D01*
X710011Y193865D01*
X710832Y194686D01*
X711227Y194965D01*
X712124Y194720D01*
X712734Y194111D01*
X714204Y193501D01*
X715796D01*
X717266Y194111D01*
X718391Y195236D01*
X719000Y196706D01*
Y198297D01*
X718391Y199767D01*
X717266Y200893D01*
X715796Y201502D01*
D02*
G37*
G36*
X1042378Y224268D02*
X1038622D01*
X1034994Y223295D01*
X1031740Y221417D01*
X1029084Y218761D01*
X1027206Y215508D01*
X1026234Y211880D01*
Y208123D01*
X1027206Y204495D01*
X1029084Y201242D01*
X1031740Y198586D01*
X1034994Y196708D01*
X1038622Y195735D01*
X1042378D01*
X1046006Y196708D01*
X1049259Y198586D01*
X1051916Y201242D01*
X1053794Y204495D01*
X1054766Y208123D01*
Y211880D01*
X1053794Y215508D01*
X1051916Y218761D01*
X1049259Y221417D01*
X1046006Y223295D01*
X1042378Y224268D01*
D02*
G37*
G36*
X962378D02*
X958622D01*
X954994Y223295D01*
X951740Y221417D01*
X949084Y218761D01*
X947206Y215508D01*
X946234Y211880D01*
Y208123D01*
X947206Y204495D01*
X949084Y201242D01*
X951740Y198586D01*
X954994Y196708D01*
X958622Y195735D01*
X962378D01*
X966006Y196708D01*
X969259Y198586D01*
X971916Y201242D01*
X973794Y204495D01*
X974766Y208123D01*
Y211880D01*
X973794Y215508D01*
X971916Y218761D01*
X969259Y221417D01*
X966006Y223295D01*
X962378Y224268D01*
D02*
G37*
G36*
X1002378Y204268D02*
X998622D01*
X994994Y203295D01*
X991740Y201417D01*
X989084Y198761D01*
X987206Y195508D01*
X986234Y191880D01*
Y188123D01*
X987206Y184495D01*
X989084Y181242D01*
X991740Y178586D01*
X994994Y176708D01*
X998622Y175735D01*
X1002378D01*
X1006006Y176708D01*
X1009259Y178586D01*
X1011916Y181242D01*
X1013794Y184495D01*
X1014766Y188123D01*
Y191880D01*
X1013794Y195508D01*
X1011916Y198761D01*
X1009259Y201417D01*
X1006006Y203295D01*
X1002378Y204268D01*
D02*
G37*
G36*
X1042378Y184268D02*
X1038622D01*
X1034994Y183295D01*
X1031740Y181417D01*
X1029084Y178761D01*
X1027206Y175508D01*
X1026234Y171880D01*
Y168123D01*
X1027206Y164495D01*
X1029084Y161242D01*
X1031740Y158586D01*
X1034994Y156708D01*
X1038622Y155736D01*
X1042378D01*
X1046006Y156708D01*
X1049259Y158586D01*
X1051916Y161242D01*
X1053794Y164495D01*
X1054766Y168123D01*
Y171880D01*
X1053794Y175508D01*
X1051916Y178761D01*
X1049259Y181417D01*
X1046006Y183295D01*
X1042378Y184268D01*
D02*
G37*
G36*
X974766D02*
X946234D01*
Y155736D01*
X974766D01*
Y184268D01*
D02*
G37*
G36*
X565746Y132001D02*
X564154D01*
X562684Y131392D01*
X561559Y130267D01*
X560950Y128797D01*
Y127206D01*
X561559Y125736D01*
X562684Y124610D01*
X564154Y124002D01*
X565746D01*
X567216Y124610D01*
X568341Y125736D01*
X568950Y127206D01*
Y128797D01*
X568341Y130267D01*
X567216Y131392D01*
X565746Y132001D01*
D02*
G37*
G36*
X554746D02*
X553154D01*
X551684Y131392D01*
X550559Y130267D01*
X549950Y128797D01*
Y127206D01*
X550559Y125736D01*
X551684Y124610D01*
X553154Y124002D01*
X554746D01*
X556216Y124610D01*
X557341Y125736D01*
X557950Y127206D01*
Y128797D01*
X557341Y130267D01*
X556216Y131392D01*
X554746Y132001D01*
D02*
G37*
G36*
X532746D02*
X531154D01*
X529684Y131392D01*
X528559Y130267D01*
X527950Y128797D01*
Y127206D01*
X528559Y125736D01*
X529684Y124610D01*
X531154Y124002D01*
X532746D01*
X534216Y124610D01*
X535341Y125736D01*
X535950Y127206D01*
Y128797D01*
X535341Y130267D01*
X534216Y131392D01*
X532746Y132001D01*
D02*
G37*
G36*
X521746D02*
X520154D01*
X518684Y131392D01*
X517559Y130267D01*
X516950Y128797D01*
Y127206D01*
X517559Y125736D01*
X518684Y124610D01*
X520154Y124002D01*
X521746D01*
X523216Y124610D01*
X524341Y125736D01*
X524950Y127206D01*
Y128797D01*
X524341Y130267D01*
X523216Y131392D01*
X521746Y132001D01*
D02*
G37*
G36*
X510746D02*
X509154D01*
X507684Y131392D01*
X506559Y130267D01*
X505950Y128797D01*
Y127206D01*
X506559Y125736D01*
X507684Y124610D01*
X509154Y124002D01*
X510746D01*
X512216Y124610D01*
X513341Y125736D01*
X513950Y127206D01*
Y128797D01*
X513341Y130267D01*
X512216Y131392D01*
X510746Y132001D01*
D02*
G37*
G36*
X499746D02*
X498154D01*
X496684Y131392D01*
X495559Y130267D01*
X494950Y128797D01*
Y127206D01*
X495559Y125736D01*
X496684Y124610D01*
X498154Y124002D01*
X499746D01*
X501216Y124610D01*
X502341Y125736D01*
X502950Y127206D01*
Y128797D01*
X502341Y130267D01*
X501216Y131392D01*
X499746Y132001D01*
D02*
G37*
G36*
X488746D02*
X487154D01*
X485684Y131392D01*
X484559Y130267D01*
X483950Y128797D01*
Y127206D01*
X484559Y125736D01*
X485684Y124610D01*
X487154Y124002D01*
X488746D01*
X490216Y124610D01*
X491341Y125736D01*
X491950Y127206D01*
Y128797D01*
X491341Y130267D01*
X490216Y131392D01*
X488746Y132001D01*
D02*
G37*
G36*
X470796Y120000D02*
X469204D01*
X467734Y119391D01*
X466609Y118266D01*
X466000Y116796D01*
Y115204D01*
X466609Y113734D01*
X467734Y112609D01*
X469204Y112000D01*
X470796D01*
X472266Y112609D01*
X473391Y113734D01*
X474000Y115204D01*
Y116796D01*
X473391Y118266D01*
X472266Y119391D01*
X470796Y120000D01*
D02*
G37*
G36*
X1007150Y121751D02*
X1003850D01*
X1000614Y121108D01*
X997566Y119845D01*
X994822Y118012D01*
X992489Y115679D01*
X990656Y112936D01*
X989394Y109887D01*
X988750Y106651D01*
Y103352D01*
X989394Y100116D01*
X990656Y97067D01*
X992489Y94324D01*
X994822Y91991D01*
X997566Y90158D01*
X1000614Y88895D01*
X1003850Y88251D01*
X1007150D01*
X1010386Y88895D01*
X1013434Y90158D01*
X1016178Y91991D01*
X1018511Y94324D01*
X1020344Y97067D01*
X1021606Y100116D01*
X1022250Y103352D01*
Y106651D01*
X1021606Y109887D01*
X1020344Y112936D01*
X1018511Y115679D01*
X1016178Y118012D01*
X1013434Y119845D01*
X1010386Y121108D01*
X1007150Y121751D01*
D02*
G37*
G36*
X822500Y654861D02*
X820640Y654491D01*
X819064Y653438D01*
X818010Y651861D01*
X817641Y650002D01*
X818010Y648142D01*
X819064Y646565D01*
X820141Y645489D01*
Y604484D01*
X820510Y602624D01*
X821564Y601048D01*
X823140Y599995D01*
X825000Y599625D01*
X826860Y599995D01*
X827222Y600237D01*
X827562D01*
X829109Y598690D01*
Y546109D01*
X823836Y540836D01*
X823836Y540836D01*
X821532Y538532D01*
X820479Y536956D01*
X820109Y535096D01*
X820479Y533237D01*
X821532Y531660D01*
X823109Y530607D01*
X824968Y530237D01*
X827562D01*
X829109Y528690D01*
Y456109D01*
X821532Y448532D01*
X820479Y446956D01*
X820109Y445096D01*
X820479Y443237D01*
X821532Y441660D01*
X823109Y440607D01*
X824968Y440237D01*
X826160D01*
X830109Y436288D01*
Y387109D01*
X821532Y378532D01*
X820479Y376956D01*
X820109Y375096D01*
X820479Y373237D01*
X821532Y371660D01*
X823109Y370607D01*
X824968Y370237D01*
X825954D01*
X829109Y367082D01*
Y296109D01*
X821532Y288532D01*
X820479Y286956D01*
X820109Y285096D01*
X820479Y283237D01*
X821532Y281660D01*
Y281660D01*
X823109Y280607D01*
X824968Y280237D01*
X826767D01*
X829109Y277894D01*
Y226109D01*
X821532Y218532D01*
X820479Y216956D01*
X820109Y215096D01*
X820479Y213237D01*
X821532Y211660D01*
X823109Y210607D01*
X824968Y210237D01*
X826562D01*
X828109Y208690D01*
Y135109D01*
X821532Y128532D01*
X820479Y126956D01*
X820109Y125096D01*
X820479Y123237D01*
X821532Y121660D01*
X823109Y120607D01*
X824968Y120237D01*
X826562D01*
X828109Y118690D01*
Y65109D01*
X821532Y58532D01*
X820479Y56956D01*
X820109Y55096D01*
X820479Y53237D01*
X821532Y51660D01*
X823109Y50607D01*
X824968Y50237D01*
X826828Y50607D01*
X828404Y51660D01*
X836404Y59660D01*
X837458Y61237D01*
X837828Y63096D01*
Y120703D01*
X837458Y122563D01*
X836404Y124139D01*
X833644Y126900D01*
X836404Y129660D01*
X837458Y131237D01*
X837828Y133096D01*
Y210703D01*
X837458Y212563D01*
X836404Y214139D01*
X833644Y216900D01*
X837404Y220660D01*
X838458Y222237D01*
X838828Y224096D01*
Y279907D01*
X838458Y281767D01*
X837404Y283343D01*
X833746Y287002D01*
X837404Y290660D01*
X838458Y292237D01*
X838828Y294096D01*
Y369095D01*
X838458Y370954D01*
X837404Y372531D01*
X833340Y376595D01*
X838404Y381660D01*
X839458Y383237D01*
X839828Y385096D01*
Y438301D01*
X839458Y440160D01*
X838404Y441737D01*
X833443Y446698D01*
X837404Y450660D01*
X838458Y452237D01*
X838828Y454096D01*
Y530703D01*
X838458Y532562D01*
X837404Y534139D01*
X834144Y537400D01*
X837404Y540660D01*
X838458Y542237D01*
X838828Y544096D01*
Y600703D01*
X838458Y602562D01*
X837404Y604139D01*
X833011Y608532D01*
X831435Y609586D01*
X829859Y609899D01*
Y647502D01*
X829490Y649361D01*
X828436Y650938D01*
X825936Y653438D01*
X824360Y654491D01*
X822500Y654861D01*
D02*
G37*
G36*
X715796Y41501D02*
X714204D01*
X712734Y40893D01*
X711879Y40037D01*
X711250Y39865D01*
X710621Y40037D01*
X709766Y40893D01*
X708296Y41501D01*
X706704D01*
X705234Y40893D01*
X704379Y40037D01*
X703750Y39865D01*
X703121Y40037D01*
X702266Y40893D01*
X700796Y41501D01*
X699204D01*
X697734Y40893D01*
X696609Y39767D01*
X696000Y38297D01*
Y36706D01*
X696609Y35236D01*
X697734Y34111D01*
X699204Y33502D01*
X700796D01*
X702266Y34111D01*
X703121Y34966D01*
X703750Y35138D01*
X704379Y34966D01*
X705234Y34111D01*
X706704Y33502D01*
X708296D01*
X709766Y34111D01*
X710621Y34966D01*
X711250Y35138D01*
X711879Y34966D01*
X712734Y34111D01*
X714204Y33502D01*
X715796D01*
X717266Y34111D01*
X718391Y35236D01*
X719000Y36706D01*
Y38297D01*
X718391Y39767D01*
X717266Y40893D01*
X715796Y41501D01*
D02*
G37*
G36*
X595796Y44000D02*
X594204D01*
X592734Y43391D01*
X591609Y42266D01*
X591000Y40796D01*
Y39204D01*
X591609Y37734D01*
X592734Y36609D01*
X594204Y36000D01*
X595796D01*
X597266Y36609D01*
X598391Y37734D01*
X599000Y39204D01*
Y40796D01*
X598391Y42266D01*
X597266Y43391D01*
X595796Y44000D01*
D02*
G37*
%LPD*%
G36*
X53095Y441111D02*
Y428660D01*
X53290Y427678D01*
X53846Y426846D01*
X97523Y383170D01*
X98355Y382614D01*
X99337Y382419D01*
X223164D01*
X224145Y382614D01*
X224977Y383170D01*
X232579Y390772D01*
X233054Y390696D01*
X233674Y389575D01*
X233501Y389158D01*
Y387567D01*
X234111Y386097D01*
X235236Y384971D01*
X236706Y384362D01*
X238297D01*
X239767Y384971D01*
X240893Y386097D01*
X241502Y387567D01*
Y389158D01*
X240893Y390628D01*
X239767Y391753D01*
X239279Y391956D01*
X239080Y392952D01*
X262737Y416609D01*
X263599Y416034D01*
X263500Y415796D01*
Y414204D01*
X264109Y412734D01*
X265234Y411609D01*
X266704Y411000D01*
X267561D01*
X268332Y410832D01*
X268500Y410061D01*
Y409939D01*
X268332Y409168D01*
X267561Y409000D01*
X266704D01*
X265234Y408391D01*
X264109Y407266D01*
X263500Y405796D01*
Y404628D01*
X253186Y394314D01*
X252630Y393482D01*
X252435Y392500D01*
Y305422D01*
X204611Y257597D01*
X166031D01*
X164000Y259628D01*
Y260796D01*
X163391Y262266D01*
X162266Y263391D01*
X160796Y264000D01*
X159204D01*
X157734Y263391D01*
X156609Y262266D01*
X156000Y260796D01*
Y259204D01*
X156609Y257734D01*
X157734Y256609D01*
X159204Y256000D01*
X160372D01*
X161852Y254520D01*
X161463Y253581D01*
X121047D01*
X54644Y319984D01*
X55065Y321000D01*
X55796D01*
X57266Y321609D01*
X58391Y322734D01*
X59000Y324204D01*
Y325796D01*
X58391Y327266D01*
X57266Y328391D01*
X55796Y329000D01*
X54204D01*
X52734Y328391D01*
X51609Y327266D01*
X51000Y325796D01*
Y325065D01*
X49984Y324644D01*
X31581Y343047D01*
Y422953D01*
X49628Y441000D01*
X50796D01*
X52079Y441532D01*
X53095Y441111D01*
D02*
G37*
G36*
X370916Y149456D02*
X373435Y146937D01*
Y133000D01*
X373630Y132018D01*
X374186Y131186D01*
X390451Y114921D01*
Y105947D01*
X389512Y105558D01*
X366585Y128485D01*
Y146515D01*
X369584Y149514D01*
X370576Y149653D01*
X370916Y149456D01*
D02*
G37*
%LPC*%
G36*
X50796Y399000D02*
X49204D01*
X47734Y398391D01*
X46609Y397266D01*
X46000Y395796D01*
Y394204D01*
X46609Y392734D01*
X47734Y391609D01*
X49204Y391000D01*
X50372D01*
X51610Y389763D01*
X51034Y388901D01*
X50796Y389000D01*
X49204D01*
X47734Y388391D01*
X46609Y387266D01*
X46000Y385796D01*
Y384204D01*
X46609Y382734D01*
X47734Y381609D01*
X49204Y381000D01*
X50796D01*
X52266Y381609D01*
X53391Y382734D01*
X54000Y384204D01*
Y385796D01*
X53901Y386034D01*
X54763Y386609D01*
X61610Y379763D01*
X61034Y378901D01*
X60796Y379000D01*
X59204D01*
X57734Y378391D01*
X56609Y377266D01*
X56000Y375796D01*
Y374204D01*
X56609Y372734D01*
X57734Y371609D01*
X59204Y371000D01*
X60796D01*
X62266Y371609D01*
X63391Y372734D01*
X64000Y374204D01*
Y375796D01*
X63901Y376034D01*
X64763Y376609D01*
X75186Y366186D01*
X76018Y365630D01*
X77000Y365435D01*
X180937D01*
X206000Y340372D01*
Y339204D01*
X206609Y337734D01*
X207734Y336609D01*
X209204Y336000D01*
X210796D01*
X212266Y336609D01*
X213391Y337734D01*
X214000Y339204D01*
Y340796D01*
X213391Y342266D01*
X212266Y343391D01*
X210796Y344000D01*
X209628D01*
X183814Y369814D01*
X182982Y370370D01*
X182000Y370565D01*
X78063D01*
X54000Y394628D01*
Y395796D01*
X53391Y397266D01*
X52266Y398391D01*
X50796Y399000D01*
D02*
G37*
G36*
X88296Y389000D02*
X86704D01*
X85234Y388391D01*
X84109Y387266D01*
X83500Y385796D01*
Y384204D01*
X84109Y382734D01*
X85234Y381609D01*
X86704Y381000D01*
X88296D01*
X89766Y381609D01*
X90891Y382734D01*
X91500Y384204D01*
Y385796D01*
X90891Y387266D01*
X89766Y388391D01*
X88296Y389000D01*
D02*
G37*
G36*
X238297Y369000D02*
X236706D01*
X235236Y368391D01*
X234111Y367266D01*
X233501Y365796D01*
Y364204D01*
X234111Y362734D01*
X235236Y361609D01*
X236706Y361000D01*
X238297D01*
X239767Y361609D01*
X240893Y362734D01*
X241502Y364204D01*
Y365796D01*
X240893Y367266D01*
X239767Y368391D01*
X238297Y369000D01*
D02*
G37*
G36*
X123311Y359264D02*
X121720D01*
X120250Y358655D01*
X119124Y357530D01*
X118516Y356060D01*
Y354468D01*
X119124Y352998D01*
X120250Y351873D01*
X121720Y351264D01*
X123311D01*
X124781Y351873D01*
X125907Y352998D01*
X126516Y354468D01*
Y356060D01*
X125907Y357530D01*
X124781Y358655D01*
X123311Y359264D01*
D02*
G37*
G36*
X238297Y346500D02*
X236706D01*
X235236Y345891D01*
X234111Y344766D01*
X233501Y343296D01*
Y341704D01*
X234111Y340234D01*
X235236Y339109D01*
X236706Y338500D01*
X238297D01*
X239767Y339109D01*
X240893Y340234D01*
X241502Y341704D01*
Y343296D01*
X240893Y344766D01*
X239767Y345891D01*
X238297Y346500D01*
D02*
G37*
G36*
X123297D02*
X121706D01*
X120236Y345891D01*
X119110Y344766D01*
X118502Y343296D01*
Y341704D01*
X119110Y340234D01*
X120236Y339109D01*
X121706Y338500D01*
X123297D01*
X124767Y339109D01*
X125892Y340234D01*
X126502Y341704D01*
Y343296D01*
X125892Y344766D01*
X124767Y345891D01*
X123297Y346500D01*
D02*
G37*
G36*
X235796Y311500D02*
X234204D01*
X232734Y310891D01*
X231879Y310036D01*
X231250Y309864D01*
X230621Y310036D01*
X229766Y310891D01*
X228296Y311500D01*
X226704D01*
X225234Y310891D01*
X224109Y309766D01*
X223500Y308296D01*
Y306704D01*
X224109Y305234D01*
X225234Y304109D01*
X226704Y303500D01*
X228296D01*
X229766Y304109D01*
X230621Y304964D01*
X231250Y305136D01*
X231879Y304964D01*
X232734Y304109D01*
X234204Y303500D01*
X235796D01*
X237266Y304109D01*
X238391Y305234D01*
X239000Y306704D01*
Y308296D01*
X238391Y309766D01*
X237266Y310891D01*
X235796Y311500D01*
D02*
G37*
G36*
X159435Y310139D02*
X157843D01*
X156373Y309530D01*
X155248Y308405D01*
X154639Y306935D01*
Y305343D01*
X155248Y303873D01*
X156373Y302748D01*
X157843Y302139D01*
X159435D01*
X160905Y302748D01*
X162030Y303873D01*
X162639Y305343D01*
Y306935D01*
X162030Y308405D01*
X160905Y309530D01*
X159435Y310139D01*
D02*
G37*
G36*
X135796Y311500D02*
X134204D01*
X132734Y310891D01*
X131609Y309766D01*
X131000Y308296D01*
Y307439D01*
X130832Y306668D01*
X130061Y306500D01*
X129204D01*
X127734Y305891D01*
X126609Y304766D01*
X126000Y303296D01*
Y301704D01*
X126609Y300234D01*
X127734Y299109D01*
X129204Y298500D01*
X130796D01*
X132266Y299109D01*
X133391Y300234D01*
X134000Y301704D01*
Y302561D01*
X134082Y302937D01*
X135101Y303444D01*
X135849Y303257D01*
X136000Y302561D01*
Y301704D01*
X136609Y300234D01*
X137734Y299109D01*
X139204Y298500D01*
X140796D01*
X142266Y299109D01*
X143391Y300234D01*
X144000Y301704D01*
Y303296D01*
X143391Y304766D01*
X142266Y305891D01*
X140796Y306500D01*
X139939D01*
X139168Y306668D01*
X139000Y307439D01*
Y308296D01*
X138391Y309766D01*
X137266Y310891D01*
X135796Y311500D01*
D02*
G37*
G36*
Y346500D02*
X134204D01*
X132734Y345891D01*
X131609Y344766D01*
X131000Y343296D01*
Y341704D01*
X131609Y340234D01*
X132435Y339408D01*
Y323563D01*
X100372Y291500D01*
X99204D01*
X97734Y290891D01*
X96609Y289766D01*
X96000Y288296D01*
Y286704D01*
X96609Y285234D01*
X97734Y284109D01*
X99204Y283500D01*
X100796D01*
X102266Y284109D01*
X103391Y285234D01*
X104000Y286704D01*
Y287872D01*
X136814Y320686D01*
X137370Y321518D01*
X137565Y322500D01*
Y339408D01*
X138391Y340234D01*
X139000Y341704D01*
Y343296D01*
X138391Y344766D01*
X137266Y345891D01*
X135796Y346500D01*
D02*
G37*
G36*
X128096Y281300D02*
X126504D01*
X125034Y280691D01*
X123909Y279566D01*
X123300Y278096D01*
Y276504D01*
X123909Y275034D01*
X125034Y273909D01*
X126504Y273300D01*
X128096D01*
X129566Y273909D01*
X130691Y275034D01*
X131300Y276504D01*
Y278096D01*
X130691Y279566D01*
X129566Y280691D01*
X128096Y281300D01*
D02*
G37*
G36*
X185796Y344000D02*
X184204D01*
X182734Y343391D01*
X181609Y342266D01*
X181000Y340796D01*
Y339204D01*
X181609Y337734D01*
X182435Y336908D01*
Y306063D01*
X140372Y264000D01*
X139204D01*
X137734Y263391D01*
X136609Y262266D01*
X136000Y260796D01*
Y259204D01*
X136609Y257734D01*
X137734Y256609D01*
X139204Y256000D01*
X140796D01*
X142266Y256609D01*
X143391Y257734D01*
X144000Y259204D01*
Y260372D01*
X186814Y303186D01*
X187370Y304018D01*
X187565Y305000D01*
Y336908D01*
X188391Y337734D01*
X189000Y339204D01*
Y340796D01*
X188391Y342266D01*
X187266Y343391D01*
X185796Y344000D01*
D02*
G37*
%LPD*%
G36*
X660207Y858152D02*
X660375Y857984D01*
X661643Y857459D01*
X662459Y856643D01*
X662900Y855577D01*
Y854423D01*
X662459Y853357D01*
X661643Y852541D01*
X660577Y852100D01*
X659423D01*
X658357Y852541D01*
X657541Y853357D01*
X657100Y854423D01*
Y855577D01*
X657541Y856643D01*
X658357Y857459D01*
X659625Y857984D01*
X659793Y858152D01*
X660000Y858246D01*
X660207Y858152D01*
D02*
G37*
G36*
X640000Y860002D02*
X659169D01*
X659204Y859000D01*
X657734Y858391D01*
X656609Y857266D01*
X656000Y855796D01*
Y854204D01*
X656609Y852734D01*
X657734Y851609D01*
X659204Y851000D01*
X660796D01*
X662266Y851609D01*
X663391Y852734D01*
X664000Y854204D01*
Y855796D01*
X663391Y857266D01*
X662266Y858391D01*
X660796Y859000D01*
X660831Y860002D01*
X685000D01*
X685000Y404651D01*
Y404000D01*
X684204D01*
X682734Y403391D01*
X681609Y402266D01*
X681000Y400796D01*
Y399204D01*
X681609Y397734D01*
X682734Y396609D01*
X684204Y396000D01*
X685000D01*
Y244652D01*
Y243787D01*
X683471D01*
X682000Y243179D01*
X680875Y242053D01*
X680266Y240583D01*
Y238992D01*
X680875Y237522D01*
X682000Y236396D01*
X683471Y235787D01*
X685000D01*
Y32500D01*
X602500D01*
Y274343D01*
X603391Y275234D01*
X604000Y276704D01*
Y278296D01*
X603391Y279766D01*
X602500Y280657D01*
Y421843D01*
X603121Y422464D01*
X603750Y422636D01*
X604379Y422464D01*
X605234Y421609D01*
X606704Y421000D01*
X608296D01*
X609766Y421609D01*
X610621Y422464D01*
X611250Y422636D01*
X611879Y422464D01*
X612734Y421609D01*
X614204Y421000D01*
X615796D01*
X617266Y421609D01*
X618391Y422734D01*
X619000Y424204D01*
Y425796D01*
X618391Y427266D01*
X617266Y428391D01*
X615796Y429000D01*
X614204D01*
X612734Y428391D01*
X611879Y427536D01*
X611250Y427364D01*
X610621Y427536D01*
X609766Y428391D01*
X608296Y429000D01*
X606704D01*
X605234Y428391D01*
X604379Y427536D01*
X603750Y427364D01*
X603121Y427536D01*
X602500Y428157D01*
Y635000D01*
X580000D01*
Y686843D01*
X580891Y687734D01*
X581500Y689204D01*
Y690796D01*
X580891Y692266D01*
X580000Y693157D01*
Y694343D01*
X580891Y695234D01*
X581500Y696704D01*
Y698296D01*
X580891Y699766D01*
X580000Y700657D01*
Y930002D01*
X640000D01*
Y860002D01*
D02*
G37*
G36*
X705141Y490487D02*
Y389861D01*
X700002D01*
X698142Y389491D01*
X696565Y388438D01*
X687116Y378988D01*
X686100Y379409D01*
Y396000D01*
X686055Y396107D01*
X687266Y396609D01*
X688391Y397734D01*
X689000Y399204D01*
Y400796D01*
X688391Y402266D01*
X687266Y403391D01*
X686055Y403893D01*
X686100Y404000D01*
Y404651D01*
Y508091D01*
X687116Y508512D01*
X705141Y490487D01*
D02*
G37*
G36*
Y325487D02*
Y229861D01*
X701002D01*
X699142Y229491D01*
X697565Y228438D01*
X687116Y217988D01*
X686100Y218409D01*
Y235787D01*
X685948Y236154D01*
X686532Y236396D01*
X687657Y237522D01*
X688266Y238992D01*
Y240583D01*
X687657Y242053D01*
X686532Y243179D01*
X685948Y243421D01*
X686100Y243787D01*
Y244652D01*
Y343091D01*
X687116Y343512D01*
X705141Y325487D01*
D02*
G37*
G36*
X815000Y640000D02*
Y40001D01*
X730000D01*
Y109343D01*
X730891Y110234D01*
X731500Y111704D01*
Y113296D01*
X730891Y114766D01*
X730000Y115657D01*
Y124343D01*
X730891Y125234D01*
X731500Y126704D01*
Y128296D01*
X730891Y129766D01*
X730000Y130657D01*
Y269343D01*
X730891Y270234D01*
X731500Y271704D01*
Y273296D01*
X730891Y274766D01*
X730000Y275657D01*
Y284343D01*
X730891Y285234D01*
X731500Y286704D01*
Y288296D01*
X730891Y289766D01*
X730000Y290657D01*
Y429343D01*
X730891Y430234D01*
X731500Y431704D01*
Y433296D01*
X730891Y434766D01*
X730000Y435657D01*
Y441843D01*
X730891Y442734D01*
X731500Y444204D01*
Y445796D01*
X730891Y447266D01*
X730000Y448157D01*
Y589343D01*
X730891Y590234D01*
X731500Y591704D01*
Y593296D01*
X730891Y594766D01*
X730000Y595657D01*
Y617500D01*
X705000Y642500D01*
X685000D01*
Y768341D01*
X686173Y768827D01*
X815000Y640000D01*
D02*
G37*
%LPC*%
G36*
X616247Y721270D02*
X613753D01*
X611448Y720315D01*
X609685Y718552D01*
X608730Y716247D01*
Y713753D01*
X609685Y711448D01*
X611448Y709685D01*
X613753Y708730D01*
X616247D01*
X618552Y709685D01*
X620315Y711448D01*
X621270Y713753D01*
Y716247D01*
X620315Y718552D01*
X618552Y720315D01*
X616247Y721270D01*
D02*
G37*
G36*
X645796Y709000D02*
X644204D01*
X642734Y708391D01*
X641609Y707266D01*
X641000Y705796D01*
Y704204D01*
X641609Y702734D01*
X642734Y701609D01*
X644204Y701000D01*
X645796D01*
X647266Y701609D01*
X648391Y702734D01*
X649000Y704204D01*
Y705796D01*
X648391Y707266D01*
X647266Y708391D01*
X645796Y709000D01*
D02*
G37*
G36*
X643499Y700020D02*
X641501D01*
X639656Y699256D01*
X638244Y697844D01*
X637480Y695999D01*
Y694001D01*
X638244Y692156D01*
X639656Y690744D01*
X641501Y689980D01*
X643499D01*
X645344Y690744D01*
X646756Y692156D01*
X647520Y694001D01*
Y695999D01*
X646756Y697844D01*
X645344Y699256D01*
X643499Y700020D01*
D02*
G37*
G36*
X608499D02*
X606502D01*
X604656Y699256D01*
X603244Y697844D01*
X602480Y695999D01*
Y694001D01*
X603244Y692156D01*
X604656Y690744D01*
X606502Y689980D01*
X608499D01*
X610344Y690744D01*
X611756Y692156D01*
X612520Y694001D01*
Y695999D01*
X611756Y697844D01*
X610344Y699256D01*
X608499Y700020D01*
D02*
G37*
G36*
X658499Y699020D02*
X656501D01*
X654656Y698256D01*
X653244Y696844D01*
X652480Y694999D01*
Y693001D01*
X653244Y691156D01*
X654656Y689744D01*
X656501Y688980D01*
X658499D01*
X660344Y689744D01*
X661756Y691156D01*
X662520Y693001D01*
Y694999D01*
X661756Y696844D01*
X660344Y698256D01*
X658499Y699020D01*
D02*
G37*
G36*
X660296Y623451D02*
X658704D01*
X657234Y622842D01*
X656109Y621717D01*
X655500Y620247D01*
Y618656D01*
X656109Y617186D01*
X657234Y616060D01*
X658704Y615452D01*
X660296D01*
X661766Y616060D01*
X662891Y617186D01*
X663500Y618656D01*
Y620247D01*
X662891Y621717D01*
X661766Y622842D01*
X660296Y623451D01*
D02*
G37*
G36*
Y572651D02*
X658704D01*
X657234Y572043D01*
X656109Y570917D01*
X655500Y569447D01*
Y567856D01*
X656109Y566386D01*
X657234Y565261D01*
X658704Y564651D01*
X660296D01*
X661766Y565261D01*
X662891Y566386D01*
X663500Y567856D01*
Y569447D01*
X662891Y570917D01*
X661766Y572043D01*
X660296Y572651D01*
D02*
G37*
G36*
X619296Y559000D02*
X617704D01*
X616234Y558391D01*
X615109Y557266D01*
X614500Y555796D01*
Y554204D01*
X615109Y552734D01*
X616234Y551609D01*
X617704Y551000D01*
X619296D01*
X620766Y551609D01*
X621891Y552734D01*
X622500Y554204D01*
Y555796D01*
X621891Y557266D01*
X620766Y558391D01*
X619296Y559000D01*
D02*
G37*
G36*
X660796Y494000D02*
X659204D01*
X657734Y493391D01*
X656609Y492266D01*
X656000Y490796D01*
Y489204D01*
X656609Y487734D01*
X657734Y486609D01*
X659204Y486000D01*
X660796D01*
X662266Y486609D01*
X663391Y487734D01*
X664000Y489204D01*
Y490796D01*
X663391Y492266D01*
X662266Y493391D01*
X660796Y494000D01*
D02*
G37*
G36*
X615796Y414000D02*
X614204D01*
X612734Y413391D01*
X611609Y412266D01*
X611000Y410796D01*
Y409204D01*
X611609Y407734D01*
X612734Y406609D01*
X614204Y406000D01*
X615796D01*
X617266Y406609D01*
X618391Y407734D01*
X619000Y409204D01*
Y410796D01*
X618391Y412266D01*
X617266Y413391D01*
X615796Y414000D01*
D02*
G37*
G36*
X660296Y412651D02*
X658704D01*
X657234Y412043D01*
X656109Y410917D01*
X655500Y409447D01*
Y407856D01*
X656109Y406386D01*
X657234Y405261D01*
X658704Y404651D01*
X660296D01*
X661766Y405261D01*
X662891Y406386D01*
X663500Y407856D01*
Y409447D01*
X662891Y410917D01*
X661766Y412043D01*
X660296Y412651D01*
D02*
G37*
G36*
X615796Y384000D02*
X614204D01*
X612734Y383391D01*
X611609Y382266D01*
X611000Y380796D01*
Y379204D01*
X611609Y377734D01*
X612734Y376609D01*
X614204Y376000D01*
X615796D01*
X617266Y376609D01*
X618391Y377734D01*
X619000Y379204D01*
Y380796D01*
X618391Y382266D01*
X617266Y383391D01*
X615796Y384000D01*
D02*
G37*
G36*
Y369000D02*
X614204D01*
X612734Y368391D01*
X611609Y367266D01*
X611000Y365796D01*
Y364204D01*
X611609Y362734D01*
X612734Y361609D01*
X614204Y361000D01*
X615796D01*
X617266Y361609D01*
X618391Y362734D01*
X619000Y364204D01*
Y365796D01*
X618391Y367266D01*
X617266Y368391D01*
X615796Y369000D01*
D02*
G37*
G36*
Y351500D02*
X614204D01*
X612734Y350891D01*
X611609Y349766D01*
X611000Y348296D01*
Y346704D01*
X611609Y345234D01*
X612734Y344109D01*
X614204Y343500D01*
X615796D01*
X617266Y344109D01*
X618391Y345234D01*
X619000Y346704D01*
Y348296D01*
X618391Y349766D01*
X617266Y350891D01*
X615796Y351500D01*
D02*
G37*
G36*
X660296Y303451D02*
X658704D01*
X657234Y302843D01*
X656109Y301717D01*
X655500Y300247D01*
Y298656D01*
X656109Y297186D01*
X657234Y296061D01*
X658704Y295452D01*
X660296D01*
X661766Y296061D01*
X662891Y297186D01*
X663500Y298656D01*
Y300247D01*
X662891Y301717D01*
X661766Y302843D01*
X660296Y303451D01*
D02*
G37*
G36*
Y252652D02*
X658704D01*
X657234Y252043D01*
X656109Y250917D01*
X655500Y249447D01*
Y247856D01*
X656109Y246386D01*
X657234Y245261D01*
X658704Y244652D01*
X660296D01*
X661766Y245261D01*
X662891Y246386D01*
X663500Y247856D01*
Y249447D01*
X662891Y250917D01*
X661766Y252043D01*
X660296Y252652D01*
D02*
G37*
G36*
Y143451D02*
X658704D01*
X657234Y142843D01*
X656109Y141717D01*
X655500Y140247D01*
Y138656D01*
X656109Y137186D01*
X657234Y136060D01*
X658704Y135451D01*
X660296D01*
X661766Y136060D01*
X662891Y137186D01*
X663500Y138656D01*
Y140247D01*
X662891Y141717D01*
X661766Y142843D01*
X660296Y143451D01*
D02*
G37*
G36*
Y92652D02*
X658704D01*
X657234Y92043D01*
X656109Y90917D01*
X655500Y89447D01*
Y87856D01*
X656109Y86386D01*
X657234Y85260D01*
X658704Y84651D01*
X660296D01*
X661766Y85260D01*
X662891Y86386D01*
X663500Y87856D01*
Y89447D01*
X662891Y90917D01*
X661766Y92043D01*
X660296Y92652D01*
D02*
G37*
%LPD*%
G36*
X646643Y707459D02*
X647459Y706643D01*
X647900Y705577D01*
Y704423D01*
X647459Y703357D01*
X646643Y702541D01*
X645577Y702100D01*
X644423D01*
X643357Y702541D01*
X642541Y703357D01*
X642100Y704423D01*
Y705577D01*
X642541Y706643D01*
X643357Y707459D01*
X644423Y707900D01*
X645577D01*
X646643Y707459D01*
D02*
G37*
G36*
X661143Y621910D02*
X661959Y621094D01*
X662400Y620028D01*
Y618875D01*
X661959Y617809D01*
X661143Y616993D01*
X660077Y616551D01*
X658923D01*
X657857Y616993D01*
X657041Y617809D01*
X656600Y618875D01*
Y620028D01*
X657041Y621094D01*
X657857Y621910D01*
X658923Y622352D01*
X660077D01*
X661143Y621910D01*
D02*
G37*
G36*
Y571110D02*
X661959Y570294D01*
X662400Y569228D01*
Y568075D01*
X661959Y567009D01*
X661143Y566193D01*
X660077Y565751D01*
X658923D01*
X657857Y566193D01*
X657041Y567009D01*
X656600Y568075D01*
Y569228D01*
X657041Y570294D01*
X657857Y571110D01*
X658923Y571552D01*
X660077D01*
X661143Y571110D01*
D02*
G37*
G36*
X661643Y492459D02*
X662459Y491643D01*
X662900Y490577D01*
Y489423D01*
X662459Y488357D01*
X661643Y487541D01*
X660577Y487100D01*
X659423D01*
X658357Y487541D01*
X657541Y488357D01*
X657100Y489423D01*
Y490577D01*
X657541Y491643D01*
X658357Y492459D01*
X659423Y492900D01*
X660577D01*
X661643Y492459D01*
D02*
G37*
G36*
X661143Y411110D02*
X661959Y410294D01*
X662400Y409228D01*
Y408075D01*
X661959Y407009D01*
X661143Y406193D01*
X660077Y405751D01*
X658923D01*
X657857Y406193D01*
X657041Y407009D01*
X656600Y408075D01*
Y409228D01*
X657041Y410294D01*
X657857Y411110D01*
X658923Y411552D01*
X660077D01*
X661143Y411110D01*
D02*
G37*
G36*
Y301910D02*
X661959Y301094D01*
X662400Y300028D01*
Y298875D01*
X661959Y297809D01*
X661143Y296993D01*
X660077Y296551D01*
X658923D01*
X657857Y296993D01*
X657041Y297809D01*
X656600Y298875D01*
Y300028D01*
X657041Y301094D01*
X657857Y301910D01*
X658923Y302352D01*
X660077D01*
X661143Y301910D01*
D02*
G37*
G36*
Y251110D02*
X661959Y250294D01*
X662400Y249228D01*
Y248075D01*
X661959Y247009D01*
X661143Y246193D01*
X660077Y245751D01*
X658923D01*
X657857Y246193D01*
X657041Y247009D01*
X656600Y248075D01*
Y249228D01*
X657041Y250294D01*
X657857Y251110D01*
X658923Y251552D01*
X660077D01*
X661143Y251110D01*
D02*
G37*
G36*
Y141910D02*
X661959Y141094D01*
X662400Y140028D01*
Y138875D01*
X661959Y137809D01*
X661143Y136993D01*
X660077Y136551D01*
X658923D01*
X657857Y136993D01*
X657041Y137809D01*
X656600Y138875D01*
Y140028D01*
X657041Y141094D01*
X657857Y141910D01*
X658923Y142352D01*
X660077D01*
X661143Y141910D01*
D02*
G37*
G36*
Y91110D02*
X661959Y90294D01*
X662400Y89228D01*
Y88075D01*
X661959Y87009D01*
X661143Y86193D01*
X660077Y85751D01*
X658923D01*
X657857Y86193D01*
X657041Y87009D01*
X656600Y88075D01*
Y89228D01*
X657041Y90294D01*
X657857Y91110D01*
X658923Y91552D01*
X660077D01*
X661143Y91110D01*
D02*
G37*
%LPC*%
G36*
X778747Y598772D02*
X776253D01*
X773948Y597817D01*
X772185Y596053D01*
X771230Y593749D01*
Y591254D01*
X772185Y588950D01*
X773948Y587186D01*
X776253Y586231D01*
X778747D01*
X781052Y587186D01*
X782815Y588950D01*
X783770Y591254D01*
Y593749D01*
X782815Y596053D01*
X781052Y597817D01*
X778747Y598772D01*
D02*
G37*
G36*
Y548772D02*
X776253D01*
X773948Y547817D01*
X772185Y546053D01*
X771230Y543749D01*
Y541254D01*
X772185Y538950D01*
X773948Y537186D01*
X776253Y536231D01*
X778747D01*
X781052Y537186D01*
X782815Y538950D01*
X783770Y541254D01*
Y543749D01*
X782815Y546053D01*
X781052Y547817D01*
X778747Y548772D01*
D02*
G37*
G36*
Y438772D02*
X776253D01*
X773948Y437817D01*
X772185Y436053D01*
X771230Y433749D01*
Y431254D01*
X772185Y428950D01*
X773948Y427186D01*
X776253Y426231D01*
X778747D01*
X781052Y427186D01*
X782815Y428950D01*
X783770Y431254D01*
Y433749D01*
X782815Y436053D01*
X781052Y437817D01*
X778747Y438772D01*
D02*
G37*
G36*
Y388772D02*
X776253D01*
X773948Y387817D01*
X772185Y386053D01*
X771230Y383749D01*
Y381254D01*
X772185Y378950D01*
X773948Y377186D01*
X776253Y376231D01*
X778747D01*
X781052Y377186D01*
X782815Y378950D01*
X783770Y381254D01*
Y383749D01*
X782815Y386053D01*
X781052Y387817D01*
X778747Y388772D01*
D02*
G37*
G36*
Y278771D02*
X776253D01*
X773948Y277817D01*
X772185Y276053D01*
X771230Y273749D01*
Y271254D01*
X772185Y268950D01*
X773948Y267186D01*
X776253Y266231D01*
X778747D01*
X781052Y267186D01*
X782815Y268950D01*
X783770Y271254D01*
Y273749D01*
X782815Y276053D01*
X781052Y277817D01*
X778747Y278771D01*
D02*
G37*
G36*
Y228771D02*
X776253D01*
X773948Y227817D01*
X772185Y226053D01*
X771230Y223749D01*
Y221254D01*
X772185Y218950D01*
X773948Y217186D01*
X776253Y216231D01*
X778747D01*
X781052Y217186D01*
X782815Y218950D01*
X783770Y221254D01*
Y223749D01*
X782815Y226053D01*
X781052Y227817D01*
X778747Y228771D01*
D02*
G37*
G36*
Y118771D02*
X776253D01*
X773948Y117817D01*
X772185Y116053D01*
X771230Y113749D01*
Y111254D01*
X772185Y108950D01*
X773948Y107186D01*
X776253Y106231D01*
X778747D01*
X781052Y107186D01*
X782815Y108950D01*
X783770Y111254D01*
Y113749D01*
X782815Y116053D01*
X781052Y117817D01*
X778747Y118771D01*
D02*
G37*
G36*
Y68772D02*
X776253D01*
X773948Y67817D01*
X772185Y66053D01*
X771230Y63749D01*
Y61254D01*
X772185Y58950D01*
X773948Y57186D01*
X776253Y56231D01*
X778747D01*
X781052Y57186D01*
X782815Y58950D01*
X783770Y61254D01*
Y63749D01*
X782815Y66053D01*
X781052Y67817D01*
X778747Y68772D01*
D02*
G37*
%LPD*%
D15*
X363000Y127000D02*
X388000Y102000D01*
Y45000D02*
Y102000D01*
X363000Y127000D02*
Y148000D01*
X388000Y45000D02*
X422016Y10984D01*
X363000Y148000D02*
X367500Y152500D01*
Y272500D01*
X422016Y10984D02*
X572500D01*
X1010984Y10984D01*
X540647Y712000D02*
X543647Y715000D01*
X485500Y712000D02*
X540647D01*
X543647Y715000D02*
X545000D01*
X480000Y717500D02*
X485500Y712000D01*
X417500Y717500D02*
X480000D01*
X375000Y675000D02*
X417500Y717500D01*
X375000Y327500D02*
Y675000D01*
X932500Y827500D02*
X1010000D01*
X1075000Y762500D01*
Y75000D02*
Y762500D01*
X1010984Y10984D02*
X1075000Y75000D01*
D18*
X180150Y820175D02*
Y904850D01*
Y820175D02*
X180301Y820024D01*
X180000Y905000D02*
X180150Y904850D01*
D106*
X1005500Y885002D02*
D03*
Y1455002D02*
D03*
Y105001D02*
D03*
Y675002D02*
D03*
D107*
X960500Y950002D02*
D03*
Y170002D02*
D03*
D108*
Y990002D02*
D03*
Y1110002D02*
D03*
Y1150002D02*
D03*
Y1190002D02*
D03*
Y1230002D02*
D03*
Y1270002D02*
D03*
Y1310002D02*
D03*
Y1350002D02*
D03*
Y1390002D02*
D03*
X1000500Y970002D02*
D03*
Y1010002D02*
D03*
Y1210002D02*
D03*
Y1250002D02*
D03*
Y1290002D02*
D03*
X1040500Y950002D02*
D03*
Y990002D02*
D03*
Y1110002D02*
D03*
Y1150002D02*
D03*
Y1190002D02*
D03*
Y1230002D02*
D03*
Y1270002D02*
D03*
Y1310002D02*
D03*
Y1350002D02*
D03*
Y1390002D02*
D03*
X960500Y1030002D02*
D03*
Y1070002D02*
D03*
X1000500Y1050002D02*
D03*
Y1090002D02*
D03*
Y1130002D02*
D03*
Y1170002D02*
D03*
Y1330002D02*
D03*
Y1370002D02*
D03*
X1040500Y1030002D02*
D03*
Y1070002D02*
D03*
X1000500Y230002D02*
D03*
Y270002D02*
D03*
Y310002D02*
D03*
Y350001D02*
D03*
Y390001D02*
D03*
Y430001D02*
D03*
Y470001D02*
D03*
Y510001D02*
D03*
X1040500Y290002D02*
D03*
Y330001D02*
D03*
Y450001D02*
D03*
Y490001D02*
D03*
Y530001D02*
D03*
X960500Y210002D02*
D03*
Y250002D02*
D03*
Y290002D02*
D03*
Y330001D02*
D03*
Y370001D02*
D03*
Y410001D02*
D03*
Y450001D02*
D03*
Y490001D02*
D03*
Y530001D02*
D03*
Y570001D02*
D03*
Y610001D02*
D03*
X1000500Y190002D02*
D03*
Y550001D02*
D03*
Y590001D02*
D03*
X1040500Y170002D02*
D03*
Y210002D02*
D03*
Y250002D02*
D03*
Y370001D02*
D03*
Y410001D02*
D03*
Y570001D02*
D03*
Y610001D02*
D03*
D113*
X372516Y151484D02*
X376000Y148000D01*
Y133000D02*
X393016Y115984D01*
X376000Y133000D02*
Y148000D01*
X393016Y47078D02*
Y115984D01*
Y47078D02*
X424094Y16000D01*
X372516Y151484D02*
Y269111D01*
X424094Y16000D02*
X572500D01*
X1008906Y16000D01*
X908000Y1421000D02*
Y1429500D01*
X699016Y1212016D02*
X908000Y1421000D01*
Y1429500D02*
X913500Y1435000D01*
X701484Y1207984D02*
X913500Y1420000D01*
X642016Y1212016D02*
X699016D01*
X610625Y1207984D02*
X701484D01*
X903000Y1098000D02*
X913500Y1087500D01*
X877000Y1098000D02*
X903000D01*
X878500Y1102500D02*
X913500D01*
X844484Y1136516D02*
X878500Y1102500D01*
X165000Y457500D02*
X170821Y451679D01*
X181320D01*
X217968Y488327D01*
Y815327D01*
X610625Y1207984D01*
X914468Y1071968D02*
X920000Y1077500D01*
X493484Y914163D02*
X651289Y1071968D01*
X914468D01*
X493484Y725984D02*
Y914163D01*
X487500Y720000D02*
X493484Y725984D01*
X175000Y457500D02*
X175383Y457883D01*
X181844D01*
X213952Y489990D01*
Y816990D01*
X608962Y1212000D01*
X642000D01*
X642016Y1212016D01*
X167901Y432580D02*
X221984Y486664D01*
X130000Y432580D02*
X167901D01*
X221984Y486664D02*
Y813663D01*
X488321Y1080000D01*
X764321D01*
X820836Y1136516D01*
X844484D01*
X122500Y432500D02*
X122883Y432117D01*
Y428757D02*
Y432117D01*
Y428757D02*
X124640Y427000D01*
X168000D01*
X226000Y485000D01*
Y812000D01*
X489984Y1075984D02*
X765984D01*
X226000Y812000D02*
X489984Y1075984D01*
X842500Y1132500D02*
X877000Y1098000D01*
X822500Y1132500D02*
X842500D01*
X765984Y1075984D02*
X822500Y1132500D01*
X786240Y1067500D02*
X920000D01*
X497500Y912500D02*
X652952Y1067952D01*
X785788D02*
X786240Y1067500D01*
X652952Y1067952D02*
X785788D01*
X497500Y720000D02*
Y912500D01*
X278000Y782000D02*
X369500D01*
X150000Y855000D02*
X174000Y831000D01*
Y811000D02*
X195000Y790000D01*
X174000Y811000D02*
Y831000D01*
X238000Y276000D02*
X354000D01*
X118321Y247000D02*
X209000D01*
X255000Y304359D02*
Y392500D01*
X236336Y280016D02*
X359984D01*
X119984Y251016D02*
X207337D01*
X209000Y247000D02*
X238000Y276000D01*
X205673Y255032D02*
X255000Y304359D01*
X164968Y255032D02*
X205673D01*
X207337Y251016D02*
X236336Y280016D01*
X50000Y395000D02*
X77000Y368000D01*
X182000D02*
X210000Y340000D01*
X77000Y368000D02*
X182000D01*
X369500Y782000D02*
X380000Y792500D01*
X25000Y430000D02*
X34490Y439490D01*
X35490D02*
X41000Y445000D01*
X34490Y439490D02*
X35490D01*
X29016Y424016D02*
X50000Y445000D01*
X29016Y341984D02*
Y424016D01*
X25000Y340321D02*
Y430000D01*
X350000Y297778D02*
Y327500D01*
X747500Y937500D02*
X863000Y822000D01*
X702500Y937500D02*
X747500D01*
X863000Y822000D02*
X955869D01*
X956353Y822484D01*
X1007922D01*
X1069984Y760422D01*
Y77078D02*
Y760422D01*
X1008906Y16000D02*
X1069984Y77078D01*
X372516Y269111D02*
X373000Y269595D01*
Y274778D01*
X350000Y297778D02*
X373000Y274778D01*
X359984Y280016D02*
X367500Y272500D01*
X354000Y276000D02*
X357500Y272500D01*
X55660Y428660D02*
Y468340D01*
X11984Y512016D02*
X55660Y468340D01*
X11984Y512016D02*
Y1259861D01*
X60000Y430000D02*
X101000Y389000D01*
X60000Y430000D02*
Y470000D01*
X16000Y514000D02*
X60000Y470000D01*
X55660Y428660D02*
X99337Y384984D01*
X16000Y514000D02*
Y1258000D01*
X29016Y341984D02*
X119984Y251016D01*
X25000Y340321D02*
X118321Y247000D01*
X160000Y260000D02*
X164968Y255032D01*
X135000Y322500D02*
Y342500D01*
X100000Y287500D02*
X135000Y322500D01*
X16000Y1258000D02*
X48000Y1290000D01*
X60000D01*
X11984Y1259861D02*
X60000Y1307876D01*
X99337Y384984D02*
X223164D01*
X101000Y389000D02*
X221500D01*
X236362Y393862D02*
X267500Y425000D01*
X221500Y389000D02*
X263500Y431000D01*
X223164Y384984D02*
X232042Y393862D01*
X236362D01*
X263500Y431000D02*
X271500D01*
X275000Y427500D01*
X272500Y420000D02*
Y420541D01*
X275000Y423041D01*
Y427500D01*
X255000Y392500D02*
X267500Y405000D01*
X140000Y260000D02*
X185000Y305000D01*
Y340000D01*
D116*
X867500Y912001D02*
D03*
Y878001D02*
D03*
X522500D02*
D03*
Y912001D02*
D03*
X657500D02*
D03*
Y878001D02*
D03*
X867500Y1052001D02*
D03*
Y1018001D02*
D03*
X732500D02*
D03*
Y1052001D02*
D03*
X867500Y1192001D02*
D03*
Y1158001D02*
D03*
X732500D02*
D03*
Y1192001D02*
D03*
X867500Y1332001D02*
D03*
Y1298002D02*
D03*
X732500D02*
D03*
Y1332001D02*
D03*
Y1472001D02*
D03*
Y1438002D02*
D03*
X867500D02*
D03*
Y1472001D02*
D03*
X522500Y1018001D02*
D03*
Y1052001D02*
D03*
X657500D02*
D03*
Y1018001D02*
D03*
X732500Y878001D02*
D03*
Y912001D02*
D03*
D118*
X272500Y462500D02*
D03*
X22500Y450000D02*
D03*
Y330000D02*
D03*
X700000Y825000D02*
D03*
Y787500D02*
D03*
X572500Y740000D02*
D03*
X575000Y715000D02*
D03*
X557500Y670000D02*
D03*
X577500Y697500D02*
D03*
X645000Y705000D02*
D03*
X577500Y690000D02*
D03*
X492500Y595000D02*
D03*
X470000Y630000D02*
D03*
X597500Y555000D02*
D03*
X545000Y572500D02*
D03*
X127500Y260000D02*
D03*
X460000Y360000D02*
D03*
X425000Y282500D02*
D03*
X265000Y307500D02*
D03*
X322500Y260000D02*
D03*
X340000D02*
D03*
X285000Y307500D02*
D03*
X322500Y340000D02*
D03*
X342500D02*
D03*
X365000Y385000D02*
D03*
X315000Y395000D02*
D03*
X302500Y452500D02*
D03*
X352500Y417500D02*
D03*
Y440000D02*
D03*
X197500Y757500D02*
D03*
X117500Y790000D02*
D03*
X102500Y755000D02*
D03*
X125000Y730000D02*
D03*
X197500D02*
D03*
X175000D02*
D03*
X150000D02*
D03*
X132500Y715000D02*
D03*
X85000Y865000D02*
D03*
X399998Y744998D02*
D03*
X572500Y830000D02*
D03*
X555000D02*
D03*
X537500D02*
D03*
X522500D02*
D03*
X507500D02*
D03*
X700000Y842500D02*
D03*
X445000Y977500D02*
D03*
Y990000D02*
D03*
Y1002500D02*
D03*
Y1015000D02*
D03*
X215000Y857500D02*
D03*
Y832500D02*
D03*
X384998Y114998D02*
D03*
X354998Y174998D02*
D03*
X399998Y84998D02*
D03*
X325000Y145000D02*
D03*
X415000Y175000D02*
D03*
X549998Y24998D02*
D03*
X384998Y174998D02*
D03*
X519998Y24998D02*
D03*
X692500Y617500D02*
D03*
Y487500D02*
D03*
X695000Y312500D02*
D03*
Y297500D02*
D03*
X710000Y215002D02*
D03*
X945000Y590000D02*
D03*
Y640000D02*
D03*
X600000Y277500D02*
D03*
X590000Y232500D02*
D03*
X594998Y294998D02*
D03*
X527500Y222500D02*
D03*
X660000Y855000D02*
D03*
X690000D02*
D03*
X417500Y485000D02*
D03*
Y502500D02*
D03*
X252500Y480000D02*
D03*
X237502Y457500D02*
D03*
X954998Y1434998D02*
D03*
X913500Y1435000D02*
D03*
Y1420000D02*
D03*
Y1087500D02*
D03*
Y1102500D02*
D03*
X924998Y1142498D02*
D03*
X907498Y1047498D02*
D03*
X894998Y1134998D02*
D03*
X205000Y500000D02*
D03*
X62500Y1400000D02*
D03*
X825000Y115001D02*
D03*
X127500Y850000D02*
D03*
X870000Y657500D02*
D03*
Y717500D02*
D03*
Y732500D02*
D03*
Y792500D02*
D03*
X480000Y262500D02*
D03*
Y247500D02*
D03*
X836839Y1544052D02*
D03*
Y1404052D02*
D03*
Y1264052D02*
D03*
Y1124052D02*
D03*
X884161Y945952D02*
D03*
X71839Y1254050D02*
D03*
X563161Y1085952D02*
D03*
X516839Y984052D02*
D03*
X825000Y45002D02*
D03*
Y435001D02*
D03*
Y275002D02*
D03*
Y365001D02*
D03*
X62500Y1340000D02*
D03*
Y1315000D02*
D03*
X125000Y487500D02*
D03*
X522500Y640000D02*
D03*
X525000Y172500D02*
D03*
X542950Y128001D02*
D03*
X167500Y1350002D02*
D03*
X175000D02*
D03*
X165000Y1300002D02*
D03*
X165002Y1292503D02*
D03*
X165000Y1400002D02*
D03*
X166156Y1406160D02*
D03*
X155500Y814500D02*
D03*
X144500D02*
D03*
X155500Y825500D02*
D03*
X144500D02*
D03*
X450000Y340000D02*
D03*
X415000D02*
D03*
X825000Y525001D02*
D03*
Y205002D02*
D03*
X182500Y1350002D02*
D03*
X825000Y595001D02*
D03*
X432500Y560000D02*
D03*
X659500Y88652D02*
D03*
Y139452D02*
D03*
Y248652D02*
D03*
Y299452D02*
D03*
Y408652D02*
D03*
X660000Y490000D02*
D03*
X659500Y568652D02*
D03*
Y619451D02*
D03*
X727500Y432500D02*
D03*
Y445000D02*
D03*
Y272500D02*
D03*
Y287500D02*
D03*
Y112500D02*
D03*
Y127500D02*
D03*
X187500Y857500D02*
D03*
X202500Y897500D02*
D03*
X187500Y882500D02*
D03*
X262500Y740000D02*
D03*
X485000Y437500D02*
D03*
X470000D02*
D03*
X500000D02*
D03*
X385000Y395000D02*
D03*
X415000D02*
D03*
X9998Y24998D02*
D03*
X24998Y54998D02*
D03*
X9998Y84998D02*
D03*
X24998Y114998D02*
D03*
X9998Y144998D02*
D03*
X24998Y174998D02*
D03*
X9998Y204998D02*
D03*
Y504998D02*
D03*
X24998Y534998D02*
D03*
Y594998D02*
D03*
Y654998D02*
D03*
Y714998D02*
D03*
Y834998D02*
D03*
X9998Y1464998D02*
D03*
X54998Y54998D02*
D03*
X39998Y564998D02*
D03*
X54998Y594998D02*
D03*
X39998Y624998D02*
D03*
X54998Y654998D02*
D03*
X39998Y684998D02*
D03*
X54998Y714998D02*
D03*
Y834998D02*
D03*
X39998Y864998D02*
D03*
X84998Y54998D02*
D03*
X69998Y504998D02*
D03*
Y564998D02*
D03*
X84998Y594998D02*
D03*
X69998Y624998D02*
D03*
Y684998D02*
D03*
X84998Y714998D02*
D03*
Y894998D02*
D03*
X114998Y54998D02*
D03*
Y534998D02*
D03*
X99998Y564998D02*
D03*
X114998Y594998D02*
D03*
Y654998D02*
D03*
X99998Y1524998D02*
D03*
X129998Y24998D02*
D03*
X144998Y54998D02*
D03*
Y174998D02*
D03*
X129998Y564998D02*
D03*
Y624998D02*
D03*
Y684998D02*
D03*
Y1524998D02*
D03*
X159998Y24998D02*
D03*
X174998Y54998D02*
D03*
Y354998D02*
D03*
X159998Y564998D02*
D03*
X174998Y594998D02*
D03*
X159998Y624998D02*
D03*
Y684998D02*
D03*
Y1524998D02*
D03*
X189998Y24998D02*
D03*
X204998Y114998D02*
D03*
X189998Y144998D02*
D03*
X204998Y174998D02*
D03*
X189998Y1524998D02*
D03*
X219998Y144998D02*
D03*
X234998Y534998D02*
D03*
Y594998D02*
D03*
Y654998D02*
D03*
X219998Y1524998D02*
D03*
X264998Y174998D02*
D03*
Y534998D02*
D03*
X249998Y564998D02*
D03*
Y624998D02*
D03*
X264998Y654998D02*
D03*
X249998Y684998D02*
D03*
Y1524998D02*
D03*
X294998Y114998D02*
D03*
X279998Y144998D02*
D03*
X294998Y174998D02*
D03*
X279998Y564998D02*
D03*
X294998Y594998D02*
D03*
X279998Y624998D02*
D03*
Y684998D02*
D03*
X294998Y714998D02*
D03*
X279998Y1344998D02*
D03*
Y1524998D02*
D03*
X309998Y84998D02*
D03*
X324998Y114998D02*
D03*
Y174998D02*
D03*
Y294998D02*
D03*
X309998Y564998D02*
D03*
X324998Y594998D02*
D03*
X309998Y624998D02*
D03*
X324998Y1254998D02*
D03*
Y1314998D02*
D03*
X309998Y1344998D02*
D03*
X324998Y1374998D02*
D03*
Y1434998D02*
D03*
X309998Y1524998D02*
D03*
X339998Y84998D02*
D03*
X354998Y114998D02*
D03*
X339998Y384998D02*
D03*
X354998Y534998D02*
D03*
X339998Y564998D02*
D03*
X354998Y594998D02*
D03*
X339998Y624998D02*
D03*
X354998Y654998D02*
D03*
X339998Y684998D02*
D03*
X354998Y714998D02*
D03*
X339998Y1284998D02*
D03*
X354998Y1314998D02*
D03*
X339998Y1344998D02*
D03*
X354998Y1374998D02*
D03*
X339998Y1404998D02*
D03*
Y1524998D02*
D03*
X369998Y84998D02*
D03*
Y144998D02*
D03*
Y684998D02*
D03*
X384998Y1314998D02*
D03*
X369998Y1344998D02*
D03*
X384998Y1374998D02*
D03*
X369998Y1404998D02*
D03*
Y1524998D02*
D03*
X399998Y264998D02*
D03*
X414998Y1314998D02*
D03*
X399998Y1344998D02*
D03*
X414998Y1374998D02*
D03*
X399998Y1524998D02*
D03*
X429998Y24998D02*
D03*
Y1344998D02*
D03*
X444998Y1374998D02*
D03*
X429998Y1404998D02*
D03*
Y1524998D02*
D03*
X459998Y24998D02*
D03*
Y384998D02*
D03*
X474998Y894998D02*
D03*
Y1314998D02*
D03*
X459998Y1404998D02*
D03*
Y1524998D02*
D03*
X489998Y24998D02*
D03*
Y1164998D02*
D03*
X504998Y1314998D02*
D03*
X489998Y1344998D02*
D03*
X504998Y1374998D02*
D03*
X489998Y1404998D02*
D03*
Y1524998D02*
D03*
X519998Y84998D02*
D03*
X534998Y1314998D02*
D03*
X519998Y1344998D02*
D03*
X534998Y1374998D02*
D03*
X519998Y1524998D02*
D03*
X564998Y1014998D02*
D03*
X549998Y1164998D02*
D03*
X564998Y1194998D02*
D03*
Y1254998D02*
D03*
Y1314998D02*
D03*
X549998Y1344998D02*
D03*
X564998Y1374998D02*
D03*
X549998Y1404998D02*
D03*
X564998Y1434998D02*
D03*
Y1494998D02*
D03*
X549998Y1524998D02*
D03*
X579998Y24998D02*
D03*
X594998Y354998D02*
D03*
Y1134998D02*
D03*
X579998Y1164998D02*
D03*
Y1224998D02*
D03*
X594998Y1254998D02*
D03*
X579998Y1284998D02*
D03*
X594998Y1314998D02*
D03*
X579998Y1344998D02*
D03*
X594998Y1374998D02*
D03*
X579998Y1404998D02*
D03*
X594998Y1434998D02*
D03*
X579998Y1524998D02*
D03*
X609998Y24998D02*
D03*
Y1044998D02*
D03*
Y1164998D02*
D03*
X624998Y1194998D02*
D03*
X609998Y1224998D02*
D03*
Y1284998D02*
D03*
X624998Y1314998D02*
D03*
X609998Y1344998D02*
D03*
X624998Y1374998D02*
D03*
X609998Y1404998D02*
D03*
Y1464998D02*
D03*
X624998Y1494998D02*
D03*
X609998Y1524998D02*
D03*
X654998Y1314998D02*
D03*
X639998Y1344998D02*
D03*
X654998Y1494998D02*
D03*
X699998Y804998D02*
D03*
X819998Y1164998D02*
D03*
Y1464998D02*
D03*
X909998Y324998D02*
D03*
Y1164998D02*
D03*
Y1284998D02*
D03*
X924998Y1314998D02*
D03*
X909998Y1464998D02*
D03*
X939998Y1284998D02*
D03*
X984998Y114998D02*
D03*
Y174998D02*
D03*
X969998Y1404998D02*
D03*
X984998Y1434998D02*
D03*
X969998Y1464998D02*
D03*
X1014998Y174998D02*
D03*
Y714998D02*
D03*
Y1434998D02*
D03*
X1044998Y114998D02*
D03*
Y654998D02*
D03*
X1029998Y684998D02*
D03*
X1044998Y714998D02*
D03*
X1029998Y744998D02*
D03*
X1044998Y774998D02*
D03*
Y1434998D02*
D03*
X1029998Y1464998D02*
D03*
X1044998Y1494998D02*
D03*
X1059997Y24998D02*
D03*
X1074997Y54998D02*
D03*
X1059997Y84998D02*
D03*
Y684998D02*
D03*
Y744998D02*
D03*
X1074997Y774998D02*
D03*
X1059997Y804998D02*
D03*
X1074997Y834998D02*
D03*
Y1254998D02*
D03*
Y1314998D02*
D03*
Y1374998D02*
D03*
X1059997Y1404998D02*
D03*
X1074997Y1434998D02*
D03*
X1059997Y1464998D02*
D03*
X1074997Y1494998D02*
D03*
X1059997Y1524998D02*
D03*
X550000Y345000D02*
D03*
X915000Y60000D02*
D03*
X935000Y130000D02*
D03*
X915000Y220000D02*
D03*
Y287500D02*
D03*
Y380000D02*
D03*
X917500Y445000D02*
D03*
X915000Y540000D02*
D03*
X727500Y592500D02*
D03*
X165000Y457500D02*
D03*
X920000Y1077500D02*
D03*
X487500Y720000D02*
D03*
X175000Y457500D02*
D03*
X130000Y432580D02*
D03*
X122500Y432500D02*
D03*
X920000Y1067500D02*
D03*
X497500Y720000D02*
D03*
X825000Y604484D02*
D03*
X470000Y116000D02*
D03*
X261000Y774000D02*
D03*
X278000Y782000D02*
D03*
X615000Y347500D02*
D03*
X618500Y555000D02*
D03*
X822500Y650002D02*
D03*
X725000Y535001D02*
D03*
X717500D02*
D03*
X725000Y527500D02*
D03*
X725000Y55002D02*
D03*
X717500D02*
D03*
X725000Y47500D02*
D03*
X717500Y215002D02*
D03*
X725000D02*
D03*
X725000Y207500D02*
D03*
Y367500D02*
D03*
X717500Y375001D02*
D03*
X725000D02*
D03*
X597500Y600000D02*
D03*
Y607500D02*
D03*
Y525000D02*
D03*
Y540000D02*
D03*
Y570000D02*
D03*
Y585000D02*
D03*
X710000Y535001D02*
D03*
X700000Y197500D02*
D03*
X707745Y197256D02*
D03*
X700000Y357500D02*
D03*
X684266Y239787D02*
D03*
X685000Y400000D02*
D03*
X700000Y517500D02*
D03*
X707746Y517256D02*
D03*
X710000Y375001D02*
D03*
X710000Y385001D02*
D03*
X517500Y575000D02*
D03*
X522500Y620000D02*
D03*
X570000Y770000D02*
D03*
X533000Y467000D02*
D03*
X568000Y242001D02*
D03*
X557000D02*
D03*
X557000Y428002D02*
D03*
X584000Y242001D02*
D03*
X445000Y335000D02*
D03*
X541000Y467000D02*
D03*
Y242001D02*
D03*
X592000Y428002D02*
D03*
X420000Y335000D02*
D03*
X533000Y242001D02*
D03*
X568000Y466887D02*
D03*
X584000Y428002D02*
D03*
X557000Y467000D02*
D03*
X549000Y242001D02*
D03*
X576000Y428002D02*
D03*
Y242001D02*
D03*
X568079Y427607D02*
D03*
X22500Y1252500D02*
D03*
X45000Y1465000D02*
D03*
X50000Y1410000D02*
D03*
X815000Y970000D02*
D03*
X825000Y125001D02*
D03*
X479499Y707000D02*
D03*
X375000Y327500D02*
D03*
X180301Y820024D02*
D03*
X150000Y855000D02*
D03*
X541000Y402001D02*
D03*
X592000Y627000D02*
D03*
X522500Y632500D02*
D03*
X517500Y507500D02*
D03*
X500000D02*
D03*
X230000Y260000D02*
D03*
X35000Y312500D02*
D03*
X122515Y355264D02*
D03*
X41000Y445000D02*
D03*
X120000Y405000D02*
D03*
X207500Y395000D02*
D03*
X825000Y285002D02*
D03*
Y445001D02*
D03*
X532500Y392500D02*
D03*
X427500Y452500D02*
D03*
X405000Y380000D02*
D03*
X350000Y327500D02*
D03*
X365000D02*
D03*
X280000Y260000D02*
D03*
X60000Y375000D02*
D03*
X234139Y422714D02*
D03*
X180000Y905000D02*
D03*
X585000Y925002D02*
D03*
X595000D02*
D03*
X605000D02*
D03*
X702500Y937500D02*
D03*
X357500Y272500D02*
D03*
X50000Y445000D02*
D03*
X55000Y325000D02*
D03*
X367500Y272500D02*
D03*
X932500Y827500D02*
D03*
X127300Y277300D02*
D03*
X100000Y287500D02*
D03*
X135000Y342500D02*
D03*
X267500Y425000D02*
D03*
X272500Y420000D02*
D03*
Y410000D02*
D03*
X237502Y413362D02*
D03*
X60000Y1307876D02*
D03*
Y1290000D02*
D03*
X815000Y1102502D02*
D03*
X210000Y460000D02*
D03*
X278001Y758000D02*
D03*
X20000Y1395000D02*
D03*
X120000Y397500D02*
D03*
X90000Y427500D02*
D03*
X87500Y415000D02*
D03*
X92500Y420000D02*
D03*
X90000Y442500D02*
D03*
X185053Y492448D02*
D03*
X200000Y487500D02*
D03*
X190000D02*
D03*
X380000Y792500D02*
D03*
X884161Y958652D02*
D03*
X836839Y1111351D02*
D03*
Y1251351D02*
D03*
Y1391351D02*
D03*
Y1531351D02*
D03*
X516839Y971351D02*
D03*
X563161Y1098652D02*
D03*
X195000Y492500D02*
D03*
X392000Y774000D02*
D03*
X417968D02*
D03*
Y782000D02*
D03*
X418000Y766000D02*
D03*
Y758000D02*
D03*
X252000Y782000D02*
D03*
Y758000D02*
D03*
Y766000D02*
D03*
X278000Y774000D02*
D03*
Y766000D02*
D03*
X322500Y762500D02*
D03*
X347500D02*
D03*
X380000Y747500D02*
D03*
X391999Y782000D02*
D03*
X392000Y758000D02*
D03*
Y766000D02*
D03*
X417500Y515000D02*
D03*
X420000Y650000D02*
D03*
X272500Y450000D02*
D03*
X267500Y415000D02*
D03*
X497361Y547361D02*
D03*
X497500Y555000D02*
D03*
Y562500D02*
D03*
X428000Y477016D02*
D03*
X451940Y477076D02*
D03*
X436000Y477016D02*
D03*
X444000D02*
D03*
X452000Y503001D02*
D03*
X232390Y489875D02*
D03*
X205000Y492500D02*
D03*
X549000Y493000D02*
D03*
X556900Y494051D02*
D03*
X576000Y466887D02*
D03*
Y494548D02*
D03*
X568000D02*
D03*
X584000D02*
D03*
X705000Y567500D02*
D03*
X87500Y385000D02*
D03*
X595000Y40000D02*
D03*
X715000Y197502D02*
D03*
X710000Y225002D02*
D03*
X235000Y307500D02*
D03*
X227500D02*
D03*
X615000Y365000D02*
D03*
Y380000D02*
D03*
Y410000D02*
D03*
Y425000D02*
D03*
X607500D02*
D03*
X600000D02*
D03*
X592000Y402001D02*
D03*
X50000Y395000D02*
D03*
X210000Y340000D02*
D03*
X275000Y360000D02*
D03*
X381839Y444050D02*
D03*
X297500Y344984D02*
D03*
X426500Y380000D02*
D03*
X428161Y405950D02*
D03*
Y418650D02*
D03*
X381839Y431350D02*
D03*
X302500Y340000D02*
D03*
X270000Y345000D02*
D03*
X275000Y340000D02*
D03*
X270000Y365000D02*
D03*
Y355000D02*
D03*
X275000Y350000D02*
D03*
X158639Y306139D02*
D03*
X140000Y302500D02*
D03*
Y260000D02*
D03*
X160000D02*
D03*
X130000Y302500D02*
D03*
X185000Y340000D02*
D03*
X515000Y282500D02*
D03*
X533000Y268001D02*
D03*
X87500Y455000D02*
D03*
X267500D02*
D03*
Y445000D02*
D03*
Y405000D02*
D03*
X92500Y410000D02*
D03*
X495000Y282500D02*
D03*
X509999Y392499D02*
D03*
X517500Y392500D02*
D03*
X507500Y575000D02*
D03*
X385000Y305000D02*
D03*
X370000D02*
D03*
X300000Y302500D02*
D03*
Y312500D02*
D03*
X715000Y517501D02*
D03*
X700000Y37501D02*
D03*
X707500D02*
D03*
X715000D02*
D03*
Y357501D02*
D03*
X135000Y307500D02*
D03*
X428000Y616999D02*
D03*
X425000Y690000D02*
D03*
X428000Y643000D02*
D03*
X522361Y655139D02*
D03*
X522500Y647500D02*
D03*
Y662500D02*
D03*
X479500Y645500D02*
D03*
Y653500D02*
D03*
Y661500D02*
D03*
X479499Y669500D02*
D03*
X479500Y683000D02*
D03*
Y691000D02*
D03*
Y699000D02*
D03*
X452000Y643000D02*
D03*
X557041Y627000D02*
D03*
X584000D02*
D03*
X549000Y467000D02*
D03*
X541000Y493000D02*
D03*
X568000Y626999D02*
D03*
X541000Y627000D02*
D03*
X549000D02*
D03*
X576000D02*
D03*
X533000Y493000D02*
D03*
X450000Y700000D02*
D03*
Y690000D02*
D03*
X884161Y971351D02*
D03*
Y984052D02*
D03*
X516839Y945952D02*
D03*
Y958652D02*
D03*
X495000Y962500D02*
D03*
X585000Y1107500D02*
D03*
X563161Y1111351D02*
D03*
Y1124052D02*
D03*
X444000Y643000D02*
D03*
X436000D02*
D03*
X432500Y547500D02*
D03*
Y572500D02*
D03*
X428000Y503000D02*
D03*
X436000D02*
D03*
X444000D02*
D03*
X436000Y617000D02*
D03*
X444000D02*
D03*
X452000D02*
D03*
X114600Y242700D02*
D03*
X487950Y128001D02*
D03*
X564950D02*
D03*
X553950D02*
D03*
X531950D02*
D03*
X520950D02*
D03*
X509950D02*
D03*
X498950D02*
D03*
X218090Y1052860D02*
D03*
X355000Y1025000D02*
D03*
Y1035000D02*
D03*
X202500Y790000D02*
D03*
X195000D02*
D03*
X127500Y842500D02*
D03*
X140000Y1376950D02*
D03*
Y1366950D02*
D03*
X135000Y1371950D02*
D03*
X130000Y1376950D02*
D03*
Y1366950D02*
D03*
X175000Y1342502D02*
D03*
X167500D02*
D03*
X175000Y1357502D02*
D03*
X167500D02*
D03*
Y1310002D02*
D03*
X175000D02*
D03*
X90000Y1272500D02*
D03*
X95000Y1267500D02*
D03*
X100000Y1272500D02*
D03*
X167500Y1390002D02*
D03*
X175000D02*
D03*
X130000Y1322500D02*
D03*
Y1332500D02*
D03*
X135000Y1327500D02*
D03*
X140000Y1322500D02*
D03*
Y1332500D02*
D03*
X90000Y1262500D02*
D03*
X100000D02*
D03*
X105000Y1267500D02*
D03*
X110000Y1262500D02*
D03*
Y1272500D02*
D03*
X115000Y1267500D02*
D03*
X120000Y1262500D02*
D03*
Y1272500D02*
D03*
X130000D02*
D03*
X125000Y1267500D02*
D03*
X130000Y1262500D02*
D03*
X71839Y1241350D02*
D03*
Y1228650D02*
D03*
Y1215950D02*
D03*
X815000Y1242502D02*
D03*
Y1382502D02*
D03*
Y1522502D02*
D03*
X836839Y1098652D02*
D03*
Y1238652D02*
D03*
Y1378651D02*
D03*
Y1518651D02*
D03*
Y1085952D02*
D03*
Y1365952D02*
D03*
Y1505952D02*
D03*
Y1225952D02*
D03*
X549000Y428002D02*
D03*
X541000D02*
D03*
X707500Y357501D02*
D03*
X308000Y255500D02*
D03*
Y264500D02*
D03*
X258000Y255500D02*
D03*
Y264500D02*
D03*
X50000Y455000D02*
D03*
Y385000D02*
D03*
X568000Y402001D02*
D03*
X576000Y402001D02*
D03*
X584000D02*
D03*
X549000D02*
D03*
X557041D02*
D03*
X557000Y268002D02*
D03*
X549000Y268001D02*
D03*
X541000D02*
D03*
X584000D02*
D03*
X576000D02*
D03*
X568000D02*
D03*
X182500Y1390002D02*
D03*
Y1342502D02*
D03*
Y1357502D02*
D03*
Y1310002D02*
D03*
X610000Y870002D02*
D03*
Y880002D02*
D03*
Y890002D02*
D03*
Y900002D02*
D03*
Y910002D02*
D03*
Y920002D02*
D03*
X600000D02*
D03*
X590000D02*
D03*
X600000Y880002D02*
D03*
X590000D02*
D03*
X600000Y900002D02*
D03*
X590000D02*
D03*
X585000Y915002D02*
D03*
X590000Y910002D02*
D03*
X595000Y915002D02*
D03*
X600000Y910002D02*
D03*
X605000Y915002D02*
D03*
Y905002D02*
D03*
X595000D02*
D03*
X585000D02*
D03*
Y895002D02*
D03*
X590000Y890002D02*
D03*
X595000Y895002D02*
D03*
X600000Y890002D02*
D03*
X605000Y895002D02*
D03*
Y885002D02*
D03*
X595000D02*
D03*
X585000D02*
D03*
Y875002D02*
D03*
X590000Y870002D02*
D03*
X595000Y875002D02*
D03*
X600000Y870002D02*
D03*
X605000Y875002D02*
D03*
Y865002D02*
D03*
X595000D02*
D03*
X585000D02*
D03*
X805000Y960002D02*
D03*
Y950002D02*
D03*
Y940002D02*
D03*
X815000D02*
D03*
X810000Y945002D02*
D03*
X815000Y950002D02*
D03*
X810000Y955002D02*
D03*
X815000Y960002D02*
D03*
X710000Y55002D02*
D03*
X825000Y55002D02*
D03*
X710000Y65002D02*
D03*
X825000Y215002D02*
D03*
Y375001D02*
D03*
Y535001D02*
D03*
X710000Y545001D02*
D03*
X122501Y342500D02*
D03*
Y457500D02*
D03*
X237502Y342500D02*
D03*
Y365000D02*
D03*
Y388362D02*
D03*
X137501Y457500D02*
D03*
D119*
X642500Y695000D02*
D03*
X543647Y715000D02*
D03*
X657500Y694000D02*
D03*
X607500Y695000D02*
D03*
X572500Y730000D02*
D03*
X697500Y630000D02*
D03*
D120*
X420000Y130000D02*
D03*
X990000Y780000D02*
D03*
X980000Y1520000D02*
D03*
X40000Y1520002D02*
D03*
Y780000D02*
D03*
Y260000D02*
D03*
X980000Y40000D02*
D03*
X470000Y780000D02*
D03*
X670000Y1120000D02*
D03*
D121*
X615000Y715000D02*
D03*
X220000Y1350000D02*
D03*
X410000Y1125500D02*
D03*
X37750Y1115000D02*
D03*
Y1175000D02*
D03*
X35516Y935000D02*
D03*
Y995000D02*
D03*
X35516Y1055000D02*
D03*
X170000Y1005000D02*
D03*
X350000Y1125500D02*
D03*
X290000Y1129484D02*
D03*
X230000D02*
D03*
X170000Y1127250D02*
D03*
X157250Y1175000D02*
D03*
X735048Y624724D02*
D03*
X735000Y365001D02*
D03*
X677500Y472501D02*
D03*
X735000Y465001D02*
D03*
X677500Y517501D02*
D03*
X777500Y62502D02*
D03*
Y222502D02*
D03*
X220000Y1311747D02*
D03*
Y1388256D02*
D03*
X677500Y37501D02*
D03*
X350000Y1084500D02*
D03*
X410000D02*
D03*
X84484Y935000D02*
D03*
Y995000D02*
D03*
X170000Y1054484D02*
D03*
X290000Y1080516D02*
D03*
X230000D02*
D03*
X170000Y1082750D02*
D03*
X84484Y1055000D02*
D03*
X82250Y1115000D02*
D03*
Y1175000D02*
D03*
X112750Y1175000D02*
D03*
X735000Y575001D02*
D03*
X677500Y197502D02*
D03*
Y357501D02*
D03*
X735000Y45002D02*
D03*
Y95001D02*
D03*
X777500Y112501D02*
D03*
Y272502D02*
D03*
X735000Y145001D02*
D03*
X677500Y152501D02*
D03*
X735000Y205002D02*
D03*
Y255002D02*
D03*
Y305002D02*
D03*
X677500Y312502D02*
D03*
X777500Y382501D02*
D03*
X735000Y415001D02*
D03*
X777500Y432501D02*
D03*
Y592501D02*
D03*
X735000Y525001D02*
D03*
X777500Y542501D02*
D03*
X677500Y632501D02*
D03*
D122*
X651500Y1450002D02*
D03*
Y1250002D02*
D03*
D123*
X700002Y385001D02*
X710000D01*
X690000Y375000D02*
X700002Y385001D01*
X690000Y347500D02*
Y375000D01*
X701002Y225002D02*
X710000D01*
X690000Y214000D02*
X701002Y225002D01*
X690000Y85001D02*
Y214000D01*
X710000Y225002D02*
X710000Y225002D01*
X824968Y535096D02*
X827272Y537400D01*
X833968Y544096D01*
X825000Y605096D02*
X829575D01*
X825000Y604484D02*
Y647502D01*
X822500Y650002D02*
X825000Y647502D01*
X824968Y285096D02*
X833968Y294096D01*
X827967Y375096D02*
X833968Y369095D01*
X824968Y375096D02*
X827967D01*
X828779Y285096D02*
X833968Y279907D01*
X824968Y375096D02*
X834968Y385096D01*
Y438301D01*
X828173Y445096D02*
X834968Y438301D01*
X824968Y445096D02*
X828173D01*
X824968Y285096D02*
X824968Y285096D01*
X828779D01*
X833968Y294096D02*
Y369095D01*
Y224096D02*
Y279907D01*
X824968Y215096D02*
X833968Y224096D01*
X824968Y55096D02*
X832968Y63096D01*
X824968Y445096D02*
X833968Y454096D01*
X824968Y535096D02*
X829575D01*
X833968Y454096D02*
Y530703D01*
X829575Y535096D02*
X833968Y530703D01*
Y544096D02*
Y600703D01*
X829575Y605096D02*
X833968Y600703D01*
X828575Y215096D02*
X832968Y210703D01*
X824968Y215096D02*
X828575D01*
X832968Y63096D02*
Y120703D01*
Y133096D02*
Y210703D01*
X824968Y125096D02*
X828575D01*
X824968D02*
X832968Y133096D01*
X828575Y125096D02*
X832968Y120703D01*
X697500Y630000D02*
X713000Y614500D01*
X690000Y512500D02*
Y530000D01*
Y512500D02*
X710000Y492500D01*
Y385001D02*
Y492500D01*
Y545001D02*
X713000Y548002D01*
Y614500D01*
X705002Y545001D02*
X710000D01*
X690000Y530000D02*
X705002Y545001D01*
X690000Y85001D02*
X710000Y65002D01*
Y225002D02*
Y327500D01*
X690000Y347500D02*
X710000Y327500D01*
X710000Y385001D02*
X710000Y385001D01*
X522500Y620000D02*
X532500Y610000D01*
Y567500D02*
Y610000D01*
X517500Y552500D02*
X532500Y567500D01*
X517500Y507500D02*
Y552500D01*
Y407500D02*
Y507500D01*
Y407500D02*
X532500Y392500D01*
X45000Y1465000D02*
X50000Y1460000D01*
Y1410000D02*
Y1460000D01*
Y1392500D02*
Y1410000D01*
Y1392500D02*
X75000Y1367500D01*
Y1277500D02*
Y1367500D01*
X50000Y1252500D02*
X75000Y1277500D01*
X22500Y1252500D02*
X50000D01*
X495000Y282500D02*
X515000D01*
Y375000D02*
X532500Y392500D01*
X515000Y282500D02*
Y375000D01*
D124*
X565000Y697500D02*
Y722500D01*
X555000Y687500D02*
X565000Y697500D01*
Y722500D02*
X572500Y730000D01*
X515000Y687500D02*
X555000D01*
X497500Y670000D02*
X515000Y687500D01*
X497500Y625000D02*
Y670000D01*
X480000Y607500D02*
X497500Y625000D01*
X480000Y470000D02*
Y607500D01*
X462500Y452500D02*
X480000Y470000D01*
X427500Y452500D02*
X462500D01*
M02*
