G04*
G04 #@! TF.GenerationSoftware,Altium Limited,Altium Designer,24.2.2 (26)*
G04*
G04 Layer_Color=8421504*
%FSLAX44Y44*%
%MOMM*%
G71*
G04*
G04 #@! TF.SameCoordinates,C4595460-78FA-4AA4-93EF-E7DD031D073C*
G04*
G04*
G04 #@! TF.FilePolarity,Positive*
G04*
G01*
G75*
%ADD16R,0.8000X0.8000*%
%ADD17R,1.0121X1.2084*%
%ADD18R,0.5200X0.5200*%
%ADD19R,0.8621X0.7565*%
%ADD20R,0.4200X0.7000*%
%ADD21R,0.5200X0.5200*%
%ADD22C,0.9698*%
%ADD23C,0.9900*%
%ADD24R,0.5000X0.3500*%
%ADD25R,1.9600X3.1500*%
%ADD26C,1.7685*%
%ADD27R,0.9100X1.2200*%
%ADD28R,0.7500X0.8500*%
%ADD29R,0.8500X0.7000*%
%ADD30R,0.8000X0.4000*%
%ADD31R,0.8000X0.5000*%
G04:AMPARAMS|DCode=32|XSize=1.9mm|YSize=0.6mm|CornerRadius=0.3mm|HoleSize=0mm|Usage=FLASHONLY|Rotation=0.000|XOffset=0mm|YOffset=0mm|HoleType=Round|Shape=RoundedRectangle|*
%AMROUNDEDRECTD32*
21,1,1.9000,0.0000,0,0,0.0*
21,1,1.3000,0.6000,0,0,0.0*
1,1,0.6000,0.6500,0.0000*
1,1,0.6000,-0.6500,0.0000*
1,1,0.6000,-0.6500,0.0000*
1,1,0.6000,0.6500,0.0000*
%
%ADD32ROUNDEDRECTD32*%
%ADD33R,0.5500X0.5500*%
G04:AMPARAMS|DCode=34|XSize=1.3082mm|YSize=0.7621mm|CornerRadius=0.3811mm|HoleSize=0mm|Usage=FLASHONLY|Rotation=90.000|XOffset=0mm|YOffset=0mm|HoleType=Round|Shape=RoundedRectangle|*
%AMROUNDEDRECTD34*
21,1,1.3082,0.0000,0,0,90.0*
21,1,0.5461,0.7621,0,0,90.0*
1,1,0.7621,0.0000,0.2730*
1,1,0.7621,0.0000,-0.2730*
1,1,0.7621,0.0000,-0.2730*
1,1,0.7621,0.0000,0.2730*
%
%ADD34ROUNDEDRECTD34*%
%ADD35R,0.7621X1.3082*%
%ADD36R,0.9779X0.3048*%
%ADD37R,0.8500X0.7500*%
%ADD38R,1.5000X0.5500*%
%ADD39C,1.7397*%
%ADD40R,0.5800X1.7300*%
%ADD41R,1.1000X1.7000*%
G36*
X51000Y147500D02*
Y139000D01*
X40000D01*
Y152500D01*
X47000D01*
X51000Y147500D01*
D02*
G37*
G36*
Y166500D02*
X47000Y161500D01*
X40000D01*
Y175000D01*
X51000D01*
Y166500D01*
D02*
G37*
G36*
X92000Y139000D02*
X81000D01*
Y147500D01*
X85000Y152500D01*
X92000D01*
Y139000D01*
D02*
G37*
G36*
Y161500D02*
X85000D01*
X81000Y166500D01*
Y175000D01*
X92000D01*
Y161500D01*
D02*
G37*
G36*
X288415Y234600D02*
X282550D01*
Y219600D01*
X274950D01*
Y234600D01*
X269085D01*
Y264900D01*
X288415D01*
Y234600D01*
D02*
G37*
G36*
X294650Y326750D02*
X298800D01*
Y302250D01*
X294650D01*
Y298450D01*
X290350D01*
Y302250D01*
X279000D01*
Y302750D01*
X276000D01*
Y306750D01*
X279000D01*
Y309250D01*
X276000D01*
Y313250D01*
X279000D01*
Y315750D01*
X276000D01*
Y319750D01*
X279000D01*
Y322250D01*
X276000D01*
Y326250D01*
X279000D01*
Y326750D01*
X290350D01*
Y330550D01*
X294650D01*
Y326750D01*
D02*
G37*
G36*
X331650Y284750D02*
X335800D01*
Y260250D01*
X331650D01*
Y256450D01*
X327350D01*
Y260250D01*
X316000D01*
Y260750D01*
X313000D01*
Y264750D01*
X316000D01*
Y267250D01*
X313000D01*
Y271250D01*
X316000D01*
Y273750D01*
X313000D01*
Y277750D01*
X316000D01*
Y280250D01*
X313000D01*
Y284250D01*
X316000D01*
Y284750D01*
X327350D01*
Y288550D01*
X331650D01*
Y284750D01*
D02*
G37*
G36*
X376650D02*
X388000D01*
Y284250D01*
X391000D01*
Y280250D01*
X388000D01*
Y277750D01*
X391000D01*
Y273750D01*
X388000D01*
Y271250D01*
X391000D01*
Y267250D01*
X388000D01*
Y264750D01*
X391000D01*
Y260750D01*
X388000D01*
Y260250D01*
X376650D01*
Y256450D01*
X372350D01*
Y260250D01*
X368200D01*
Y284750D01*
X372350D01*
Y288550D01*
X376650D01*
Y284750D01*
D02*
G37*
D16*
X243750Y259250D02*
D03*
Y244250D02*
D03*
D17*
X189939Y145208D02*
D03*
Y161245D02*
D03*
Y121208D02*
D03*
Y105171D02*
D03*
D18*
X138250Y98500D02*
D03*
Y106500D02*
D03*
X128000Y177500D02*
D03*
Y169500D02*
D03*
X138250Y85000D02*
D03*
Y77000D02*
D03*
X316000Y230750D02*
D03*
Y222750D02*
D03*
D19*
X104500Y175759D02*
D03*
Y162742D02*
D03*
Y151267D02*
D03*
Y138250D02*
D03*
D20*
X161250Y181250D02*
D03*
X154750Y201250D02*
D03*
X167750D02*
D03*
D21*
X128000Y157000D02*
D03*
X120000D02*
D03*
X138000Y157000D02*
D03*
X146000D02*
D03*
D22*
X86500Y145750D02*
D03*
X45500D02*
D03*
D23*
Y169500D02*
D03*
X86500D02*
D03*
D24*
X306500Y324250D02*
D03*
Y317750D02*
D03*
Y311250D02*
D03*
Y304750D02*
D03*
X360500Y282250D02*
D03*
Y275750D02*
D03*
Y269250D02*
D03*
Y262750D02*
D03*
X343500D02*
D03*
Y269250D02*
D03*
Y275750D02*
D03*
Y282250D02*
D03*
D25*
X261350Y314500D02*
D03*
X212250D02*
D03*
D26*
X378175Y272875D02*
D03*
X325825Y272125D02*
D03*
D27*
X266650Y285250D02*
D03*
X299350D02*
D03*
D28*
X254000D02*
D03*
X241000D02*
D03*
D29*
X332500Y244750D02*
D03*
Y232250D02*
D03*
X386750Y244750D02*
D03*
Y232250D02*
D03*
X59750Y96750D02*
D03*
Y109250D02*
D03*
D30*
X348000Y233750D02*
D03*
Y240250D02*
D03*
Y246750D02*
D03*
X367000D02*
D03*
Y240250D02*
D03*
Y233750D02*
D03*
D31*
X562000Y174500D02*
D03*
X578000D02*
D03*
X562000Y165500D02*
D03*
X578000D02*
D03*
X562000Y144500D02*
D03*
X578000D02*
D03*
X562000Y135500D02*
D03*
X578000D02*
D03*
D32*
X372749Y188141D02*
D03*
Y175441D02*
D03*
Y162741D02*
D03*
Y150041D02*
D03*
Y137341D02*
D03*
Y124641D02*
D03*
Y111941D02*
D03*
Y99241D02*
D03*
Y86541D02*
D03*
X278749D02*
D03*
Y99241D02*
D03*
Y111941D02*
D03*
Y124641D02*
D03*
Y137341D02*
D03*
Y150041D02*
D03*
Y162741D02*
D03*
Y175441D02*
D03*
Y188141D02*
D03*
D33*
X401250Y188000D02*
D03*
X392250D02*
D03*
D34*
X222000Y248750D02*
D03*
D35*
Y212250D02*
D03*
D36*
X121111Y76746D02*
D03*
Y81748D02*
D03*
Y86749D02*
D03*
Y91750D02*
D03*
Y96751D02*
D03*
Y101753D02*
D03*
Y106754D02*
D03*
X90250D02*
D03*
Y101753D02*
D03*
Y96751D02*
D03*
Y91750D02*
D03*
Y86749D02*
D03*
Y81748D02*
D03*
Y76746D02*
D03*
D37*
X72250Y96500D02*
D03*
Y109500D02*
D03*
D38*
X570000Y73750D02*
D03*
Y106250D02*
D03*
D39*
X278750Y246060D02*
D03*
D40*
X293750Y228250D02*
D03*
X263750D02*
D03*
D41*
X351250Y210250D02*
D03*
X377250D02*
D03*
M02*
