G04*
G04 #@! TF.GenerationSoftware,Altium Limited,Altium Designer,24.2.2 (26)*
G04*
G04 Layer_Color=65535*
%FSLAX44Y44*%
%MOMM*%
G71*
G04*
G04 #@! TF.SameCoordinates,C4595460-78FA-4AA4-93EF-E7DD031D073C*
G04*
G04*
G04 #@! TF.FilePolarity,Positive*
G04*
G01*
G75*
%ADD10C,0.2500*%
%ADD11C,0.1500*%
%ADD12C,0.2000*%
%ADD13C,0.1524*%
%ADD14C,0.4000*%
%ADD15C,0.0762*%
G36*
X454326Y189594D02*
X454428D01*
Y189493D01*
X454631D01*
Y189391D01*
X454732D01*
Y189290D01*
X454935D01*
Y189188D01*
X455037D01*
Y189087D01*
X455138D01*
Y188985D01*
X455239D01*
Y188884D01*
X455341D01*
Y188782D01*
X455442D01*
Y188681D01*
X455544D01*
Y188579D01*
X455645D01*
Y188376D01*
X455747D01*
Y188275D01*
X455848D01*
Y188072D01*
X455950D01*
Y187971D01*
X456051D01*
Y187768D01*
X456153D01*
Y187362D01*
X456254D01*
Y186956D01*
X456356D01*
Y186854D01*
X456559D01*
Y186753D01*
X456762D01*
Y186651D01*
X456863D01*
Y186550D01*
X456964D01*
Y186448D01*
X457066D01*
Y186347D01*
X457269D01*
Y186245D01*
X457370D01*
Y186144D01*
X457472D01*
Y186042D01*
X457573D01*
Y185941D01*
X457675D01*
Y185738D01*
X457776D01*
Y185637D01*
X457878D01*
Y185434D01*
X457979D01*
Y185028D01*
X458081D01*
Y183911D01*
X457979D01*
Y183303D01*
X457878D01*
Y182998D01*
X458081D01*
Y182897D01*
X458385D01*
Y182795D01*
X458487D01*
Y182694D01*
X458690D01*
Y182592D01*
X458791D01*
Y182389D01*
X458893D01*
Y182288D01*
X458994D01*
Y182085D01*
X459095D01*
Y181781D01*
X459197D01*
Y181273D01*
X458994D01*
Y181375D01*
X458893D01*
Y181578D01*
X458791D01*
Y181781D01*
X458690D01*
Y181882D01*
X458588D01*
Y182085D01*
X458487D01*
Y182187D01*
X458385D01*
Y182288D01*
X458284D01*
Y182389D01*
X458182D01*
Y182491D01*
X458081D01*
Y182592D01*
X457979D01*
Y182694D01*
X457878D01*
Y182795D01*
X457675D01*
Y182694D01*
X457573D01*
Y182592D01*
X457472D01*
Y182491D01*
X457370D01*
Y182288D01*
X457269D01*
Y182187D01*
X457168D01*
Y182085D01*
X457066D01*
Y181984D01*
X456964D01*
Y181781D01*
X456863D01*
Y181679D01*
X456762D01*
Y181578D01*
X456660D01*
Y181375D01*
X456559D01*
Y181273D01*
X456457D01*
Y181070D01*
X456356D01*
Y180969D01*
X456254D01*
Y180766D01*
X456153D01*
Y180563D01*
X456051D01*
Y180360D01*
X455950D01*
Y180056D01*
X455848D01*
Y179853D01*
X455747D01*
Y179548D01*
X455645D01*
Y179142D01*
X455544D01*
Y178736D01*
X455442D01*
Y178330D01*
X455341D01*
Y177924D01*
X455239D01*
Y177417D01*
X455138D01*
Y176808D01*
X455037D01*
Y176199D01*
X454935D01*
Y175489D01*
X454834D01*
Y174474D01*
X454732D01*
Y172648D01*
X454631D01*
Y166153D01*
X454732D01*
Y165240D01*
X454834D01*
Y164530D01*
X454935D01*
Y163921D01*
X455037D01*
Y163414D01*
X455138D01*
Y163008D01*
X455239D01*
Y162703D01*
X455341D01*
Y162399D01*
X455442D01*
Y162094D01*
X455544D01*
Y161891D01*
X455645D01*
Y161689D01*
X455747D01*
Y161486D01*
X455848D01*
Y161283D01*
X455950D01*
Y161181D01*
X456051D01*
Y160978D01*
X456153D01*
Y160877D01*
X456254D01*
Y160775D01*
X456356D01*
Y160674D01*
X456457D01*
Y160471D01*
X456559D01*
Y160369D01*
X456660D01*
Y160268D01*
X456762D01*
Y160166D01*
X456863D01*
Y160065D01*
X456964D01*
Y159964D01*
X457168D01*
Y159862D01*
X457269D01*
Y159761D01*
X457370D01*
Y159659D01*
X457472D01*
Y159558D01*
X457675D01*
Y159456D01*
X457776D01*
Y159355D01*
X457979D01*
Y159253D01*
X458081D01*
Y159152D01*
X458284D01*
Y159050D01*
X458385D01*
Y158949D01*
X458588D01*
Y158847D01*
X458791D01*
Y158746D01*
X458994D01*
Y158644D01*
X459095D01*
Y158543D01*
X459298D01*
Y158441D01*
X459501D01*
Y158340D01*
X459704D01*
Y158238D01*
X459907D01*
Y158137D01*
X460110D01*
Y158035D01*
X460212D01*
Y157934D01*
X460415D01*
Y157832D01*
X460618D01*
Y157731D01*
X460821D01*
Y157630D01*
X461023D01*
Y157528D01*
X461227D01*
Y157427D01*
X461429D01*
Y157325D01*
X461632D01*
Y157224D01*
X461734D01*
Y157122D01*
X461937D01*
Y157021D01*
X462140D01*
Y156919D01*
X462343D01*
Y156818D01*
X462546D01*
Y156716D01*
X462749D01*
Y156615D01*
X462952D01*
Y156513D01*
X463053D01*
Y156412D01*
X463256D01*
Y156310D01*
X463459D01*
Y156209D01*
X463662D01*
Y156108D01*
X463763D01*
Y156006D01*
X463966D01*
Y155905D01*
X464068D01*
Y155803D01*
X464169D01*
Y155702D01*
X464372D01*
Y155600D01*
X464474D01*
Y155499D01*
X464575D01*
Y155397D01*
X464677D01*
Y155296D01*
X464778D01*
Y155194D01*
X464879D01*
Y155093D01*
X464981D01*
Y154991D01*
X465083D01*
Y154890D01*
X465184D01*
Y154788D01*
X465285D01*
Y154687D01*
X465387D01*
Y154585D01*
X465488D01*
Y154484D01*
X465590D01*
Y154382D01*
X465691D01*
Y154179D01*
X465793D01*
Y154078D01*
X465894D01*
Y153976D01*
X465996D01*
Y153875D01*
X466097D01*
Y153773D01*
X466199D01*
Y153672D01*
X466300D01*
Y153469D01*
X466402D01*
Y153368D01*
X466503D01*
Y153266D01*
X466605D01*
Y153063D01*
X466706D01*
Y152962D01*
X466808D01*
Y152860D01*
X466909D01*
Y152657D01*
X467010D01*
Y152556D01*
X467112D01*
Y152454D01*
X467214D01*
Y152251D01*
X467315D01*
Y152150D01*
X467416D01*
Y152049D01*
X467518D01*
Y151947D01*
X467619D01*
Y151744D01*
X467721D01*
Y151643D01*
X467822D01*
Y151541D01*
X467924D01*
Y151440D01*
X468025D01*
Y151338D01*
X468127D01*
Y151237D01*
X468228D01*
Y151135D01*
X468330D01*
Y150932D01*
X468431D01*
Y150831D01*
X468533D01*
Y150729D01*
X468634D01*
Y150628D01*
X468736D01*
Y150526D01*
X468837D01*
Y150425D01*
X468938D01*
Y150323D01*
X469040D01*
Y150222D01*
X469142D01*
Y150120D01*
X469243D01*
Y150019D01*
X469344D01*
Y149917D01*
X469446D01*
Y149816D01*
X469547D01*
Y149715D01*
X469649D01*
Y149613D01*
X469750D01*
Y149512D01*
X469852D01*
Y149410D01*
X469953D01*
Y149309D01*
X470055D01*
Y149207D01*
X470156D01*
Y149106D01*
X470258D01*
Y149004D01*
X470359D01*
Y148903D01*
X470461D01*
Y148801D01*
X470562D01*
Y148700D01*
X470664D01*
Y148598D01*
X470765D01*
Y148497D01*
X470867D01*
Y148395D01*
X470968D01*
Y148294D01*
X471069D01*
Y148192D01*
X471171D01*
Y148091D01*
X471272D01*
Y147990D01*
X471374D01*
Y147888D01*
X471475D01*
Y147787D01*
X471577D01*
Y147685D01*
X471678D01*
Y147584D01*
X471780D01*
Y147482D01*
X471881D01*
Y147381D01*
X471983D01*
Y147279D01*
X472084D01*
Y147178D01*
X472186D01*
Y147076D01*
X472287D01*
Y146975D01*
X472389D01*
Y146873D01*
X472490D01*
Y146772D01*
X472592D01*
Y146670D01*
X472693D01*
Y146569D01*
X472795D01*
Y146467D01*
X472896D01*
Y146366D01*
X472998D01*
Y146264D01*
X473099D01*
Y146163D01*
X473200D01*
Y146061D01*
X473403D01*
Y145960D01*
X473505D01*
Y145858D01*
X473606D01*
Y145757D01*
X473708D01*
Y145656D01*
X473809D01*
Y145554D01*
X473911D01*
Y145453D01*
X474012D01*
Y145351D01*
X474114D01*
Y145250D01*
X474215D01*
Y145148D01*
X474317D01*
Y145047D01*
X474418D01*
Y144945D01*
X474520D01*
Y144844D01*
X474621D01*
Y144742D01*
X474723D01*
Y144641D01*
X474824D01*
Y144539D01*
X474925D01*
Y144438D01*
X475027D01*
Y144336D01*
X475129D01*
Y144235D01*
X475230D01*
Y144133D01*
X475331D01*
Y144032D01*
X475433D01*
Y143931D01*
X475534D01*
Y143829D01*
X475636D01*
Y143728D01*
X475839D01*
Y143626D01*
X475940D01*
Y143525D01*
X476042D01*
Y143423D01*
X476143D01*
Y143322D01*
X476245D01*
Y143220D01*
X476346D01*
Y143119D01*
X476448D01*
Y143017D01*
X476549D01*
Y142916D01*
X476651D01*
Y142814D01*
X476752D01*
Y142713D01*
X476854D01*
Y142611D01*
X476955D01*
Y142510D01*
X477057D01*
Y142408D01*
X477158D01*
Y142307D01*
X477259D01*
Y142205D01*
X477361D01*
Y142104D01*
X477462D01*
Y142002D01*
X477564D01*
Y141901D01*
X477665D01*
Y141799D01*
X477767D01*
Y141698D01*
X477868D01*
Y141597D01*
X477970D01*
Y141495D01*
X478071D01*
Y141394D01*
X478173D01*
Y141292D01*
X478274D01*
Y141191D01*
X478376D01*
Y141089D01*
X478477D01*
Y140988D01*
X478579D01*
Y140886D01*
X478680D01*
Y140785D01*
X478782D01*
Y140683D01*
X478883D01*
Y140582D01*
X478984D01*
Y140480D01*
X479086D01*
Y140379D01*
X479188D01*
Y140277D01*
X479289D01*
Y140074D01*
X479390D01*
Y139973D01*
X479492D01*
Y139872D01*
X479593D01*
Y139770D01*
X479695D01*
Y139669D01*
X479796D01*
Y139567D01*
X479898D01*
Y139466D01*
X479999D01*
Y139263D01*
X480101D01*
Y139161D01*
X480202D01*
Y139060D01*
X480304D01*
Y138958D01*
X480405D01*
Y138755D01*
X480507D01*
Y138654D01*
X480608D01*
Y138451D01*
X480710D01*
Y138349D01*
X480811D01*
Y138146D01*
X480913D01*
Y138045D01*
X481014D01*
Y137842D01*
X481115D01*
Y137639D01*
X481217D01*
Y137436D01*
X481318D01*
Y137233D01*
X481420D01*
Y137030D01*
X481521D01*
Y136726D01*
X481623D01*
Y136523D01*
X481724D01*
Y136218D01*
X481826D01*
Y135813D01*
X481927D01*
Y135407D01*
X482029D01*
Y134798D01*
X482130D01*
Y132971D01*
X482029D01*
Y132565D01*
X481927D01*
Y132261D01*
X481826D01*
Y131855D01*
X481927D01*
Y131652D01*
X482029D01*
Y131449D01*
X482130D01*
Y131348D01*
X482232D01*
Y131145D01*
X482333D01*
Y131043D01*
X482435D01*
Y130840D01*
X482536D01*
Y130637D01*
X482638D01*
Y130536D01*
X482739D01*
Y130333D01*
X482841D01*
Y130130D01*
X482942D01*
Y129927D01*
X483044D01*
Y129724D01*
X483145D01*
Y129521D01*
X483246D01*
Y129318D01*
X483348D01*
Y129115D01*
X483449D01*
Y128912D01*
X483551D01*
Y128709D01*
X483652D01*
Y128506D01*
X483754D01*
Y128303D01*
X483855D01*
Y127999D01*
X483957D01*
Y127796D01*
X484058D01*
Y127593D01*
X484160D01*
Y127289D01*
X484261D01*
Y126984D01*
X484363D01*
Y126781D01*
X484464D01*
Y126477D01*
X484566D01*
Y126071D01*
X484667D01*
Y125766D01*
X484769D01*
Y125361D01*
X484870D01*
Y124955D01*
X484972D01*
Y124447D01*
X485073D01*
Y123839D01*
X485174D01*
Y122621D01*
X485276D01*
Y121707D01*
X485174D01*
Y120693D01*
X485073D01*
Y120185D01*
X484972D01*
Y119881D01*
X484870D01*
Y119577D01*
X484769D01*
Y119374D01*
X484667D01*
Y119171D01*
X484566D01*
Y118968D01*
X484464D01*
Y118663D01*
X484363D01*
Y118562D01*
X484261D01*
Y118359D01*
X484160D01*
Y118156D01*
X484058D01*
Y117953D01*
X483957D01*
Y117851D01*
X483855D01*
Y117649D01*
X483754D01*
Y117547D01*
X483652D01*
Y117344D01*
X483551D01*
Y117243D01*
X483449D01*
Y117040D01*
X483348D01*
Y116938D01*
X483246D01*
Y116837D01*
X483145D01*
Y116735D01*
X483044D01*
Y116532D01*
X482942D01*
Y116431D01*
X482841D01*
Y116329D01*
X482739D01*
Y116228D01*
X482638D01*
Y116025D01*
X482536D01*
Y115924D01*
X482435D01*
Y115822D01*
X482333D01*
Y115721D01*
X482232D01*
Y115619D01*
X482130D01*
Y115518D01*
X482029D01*
Y115416D01*
X481927D01*
Y115315D01*
X481826D01*
Y115112D01*
X481724D01*
Y115010D01*
X481623D01*
Y114909D01*
X481521D01*
Y114503D01*
X481623D01*
Y114300D01*
X481724D01*
Y114198D01*
X481826D01*
Y113996D01*
X481927D01*
Y113894D01*
X482029D01*
Y113792D01*
X482130D01*
Y113691D01*
X482232D01*
Y113488D01*
X482333D01*
Y113387D01*
X482435D01*
Y113285D01*
X482536D01*
Y113184D01*
X482638D01*
Y113082D01*
X482739D01*
Y112981D01*
X482841D01*
Y112879D01*
X482942D01*
Y112778D01*
X483044D01*
Y112676D01*
X483145D01*
Y112575D01*
X483246D01*
Y112372D01*
X483348D01*
Y112270D01*
X483449D01*
Y112169D01*
X483551D01*
Y112067D01*
X483652D01*
Y111966D01*
X483754D01*
Y111865D01*
X483855D01*
Y111763D01*
X483957D01*
Y111662D01*
X484058D01*
Y111560D01*
X484160D01*
Y111459D01*
X484261D01*
Y111357D01*
X484464D01*
Y111256D01*
X484566D01*
Y111154D01*
X484667D01*
Y111053D01*
X484769D01*
Y110951D01*
X484870D01*
Y110850D01*
X485073D01*
Y110748D01*
X485174D01*
Y110647D01*
X485276D01*
Y110545D01*
X485479D01*
Y110444D01*
X485580D01*
Y110342D01*
X485783D01*
Y110241D01*
X485885D01*
Y110139D01*
X486088D01*
Y110038D01*
X486291D01*
Y109937D01*
X486595D01*
Y109835D01*
X486798D01*
Y109733D01*
X487103D01*
Y109632D01*
X487508D01*
Y109531D01*
X488625D01*
Y109429D01*
X490553D01*
Y109328D01*
X492582D01*
Y109226D01*
X493394D01*
Y109125D01*
X493597D01*
Y109023D01*
X493800D01*
Y108922D01*
X493901D01*
Y108719D01*
X494003D01*
Y108313D01*
X494104D01*
Y107907D01*
X494003D01*
Y107400D01*
X493901D01*
Y107197D01*
X493800D01*
Y107095D01*
X493698D01*
Y106892D01*
X493597D01*
Y106791D01*
X493495D01*
Y106689D01*
X493394D01*
Y106588D01*
X493293D01*
Y106486D01*
X493191D01*
Y106385D01*
X493089D01*
Y106283D01*
X492988D01*
Y106182D01*
X492887D01*
Y106080D01*
X492785D01*
Y105979D01*
X492684D01*
Y105878D01*
X492582D01*
Y105776D01*
X492379D01*
Y105674D01*
X492278D01*
Y105573D01*
X492075D01*
Y105472D01*
X491872D01*
Y105370D01*
X491567D01*
Y105269D01*
X491263D01*
Y105167D01*
X490959D01*
Y105066D01*
X490756D01*
Y104964D01*
X490451D01*
Y104863D01*
X490045D01*
Y104761D01*
X489741D01*
Y104660D01*
X489335D01*
Y104558D01*
X488929D01*
Y104457D01*
X488523D01*
Y104355D01*
X488016D01*
Y104254D01*
X487610D01*
Y104152D01*
X487103D01*
Y104051D01*
X486291D01*
Y103949D01*
X484870D01*
Y104051D01*
X484058D01*
Y104152D01*
X483449D01*
Y104254D01*
X482942D01*
Y104355D01*
X482435D01*
Y104457D01*
X482029D01*
Y104558D01*
X481724D01*
Y104660D01*
X481420D01*
Y104761D01*
X481115D01*
Y104863D01*
X480811D01*
Y104964D01*
X480608D01*
Y105066D01*
X480405D01*
Y105167D01*
X480202D01*
Y105269D01*
X479999D01*
Y105370D01*
X479796D01*
Y105472D01*
X479593D01*
Y105573D01*
X479390D01*
Y105674D01*
X479289D01*
Y105776D01*
X479086D01*
Y105878D01*
X478984D01*
Y105979D01*
X478782D01*
Y106080D01*
X478579D01*
Y106182D01*
X478477D01*
Y106283D01*
X478173D01*
Y106182D01*
X478071D01*
Y105776D01*
X477970D01*
Y105370D01*
X477868D01*
Y104863D01*
X477767D01*
Y104558D01*
X477868D01*
Y104254D01*
X477970D01*
Y103949D01*
X478071D01*
Y103645D01*
X478173D01*
Y103341D01*
X478274D01*
Y102935D01*
X478376D01*
Y102630D01*
X478477D01*
Y102326D01*
X478579D01*
Y102021D01*
X478680D01*
Y101717D01*
X478782D01*
Y101311D01*
X478883D01*
Y100905D01*
X478984D01*
Y100499D01*
X479086D01*
Y99789D01*
X479188D01*
Y97861D01*
X479086D01*
Y97455D01*
X478984D01*
Y97252D01*
X478883D01*
Y97151D01*
X478782D01*
Y97049D01*
X478680D01*
Y96846D01*
X478579D01*
Y96745D01*
X478477D01*
Y96643D01*
X478274D01*
Y96542D01*
X478173D01*
Y96440D01*
X477970D01*
Y96339D01*
X477767D01*
Y96237D01*
X477564D01*
Y96136D01*
X477259D01*
Y96034D01*
X476955D01*
Y95933D01*
X476448D01*
Y95831D01*
X475940D01*
Y95730D01*
X475027D01*
Y95628D01*
X474012D01*
Y95527D01*
X472998D01*
Y95426D01*
X472186D01*
Y95324D01*
X471678D01*
Y95223D01*
X471272D01*
Y95121D01*
X470765D01*
Y95020D01*
X470359D01*
Y94918D01*
X469852D01*
Y94817D01*
X469142D01*
Y94715D01*
X468431D01*
Y94614D01*
X467721D01*
Y94512D01*
X466909D01*
Y94411D01*
X466097D01*
Y94309D01*
X465488D01*
Y94208D01*
X464778D01*
Y94106D01*
X464068D01*
Y94005D01*
X463560D01*
Y93904D01*
X463053D01*
Y93802D01*
X462647D01*
Y93701D01*
X462241D01*
Y93599D01*
X461734D01*
Y93498D01*
X461328D01*
Y93396D01*
X460922D01*
Y93295D01*
X460516D01*
Y93193D01*
X460212D01*
Y93295D01*
X460009D01*
Y93396D01*
X459806D01*
Y93498D01*
X459704D01*
Y93599D01*
X459501D01*
Y93701D01*
X459400D01*
Y93802D01*
X459298D01*
Y93904D01*
X459197D01*
Y94005D01*
X459095D01*
Y94208D01*
X458994D01*
Y94309D01*
X458893D01*
Y94411D01*
X458791D01*
Y94614D01*
X458690D01*
Y94817D01*
X458588D01*
Y95020D01*
X458487D01*
Y95223D01*
X458385D01*
Y95527D01*
X458284D01*
Y95831D01*
X458182D01*
Y96846D01*
X458081D01*
Y97354D01*
X457573D01*
Y97252D01*
X455138D01*
Y97354D01*
X454631D01*
Y97455D01*
X454225D01*
Y97556D01*
X450267D01*
Y97455D01*
X449455D01*
Y97354D01*
X448745D01*
Y97252D01*
X448136D01*
Y97151D01*
X447527D01*
Y97049D01*
X447020D01*
Y96948D01*
X446614D01*
Y96846D01*
X446208D01*
Y96745D01*
X445802D01*
Y96643D01*
X445396D01*
Y96542D01*
X444991D01*
Y96440D01*
X444686D01*
Y96339D01*
X444382D01*
Y96237D01*
X444077D01*
Y96136D01*
X443773D01*
Y96034D01*
X443468D01*
Y95933D01*
X443164D01*
Y95831D01*
X442859D01*
Y95730D01*
X442555D01*
Y95628D01*
X442149D01*
Y95730D01*
X442048D01*
Y95831D01*
X441946D01*
Y95933D01*
X441845D01*
Y96034D01*
X441743D01*
Y96136D01*
X441642D01*
Y96237D01*
X441540D01*
Y96440D01*
X441439D01*
Y96542D01*
X441337D01*
Y96745D01*
X441236D01*
Y96948D01*
X441134D01*
Y97151D01*
X441033D01*
Y97252D01*
X440932D01*
Y97556D01*
X440830D01*
Y97760D01*
X440729D01*
Y98064D01*
X440627D01*
Y98470D01*
X440526D01*
Y99079D01*
X440424D01*
Y99992D01*
X440526D01*
Y100601D01*
X440627D01*
Y101007D01*
X440729D01*
Y101311D01*
X440830D01*
Y101615D01*
X440932D01*
Y101819D01*
X441033D01*
Y102021D01*
X441134D01*
Y102123D01*
X441236D01*
Y102326D01*
X441337D01*
Y102427D01*
X441439D01*
Y102529D01*
X441540D01*
Y102732D01*
X441642D01*
Y102833D01*
X441743D01*
Y102935D01*
X441845D01*
Y103036D01*
X442048D01*
Y103138D01*
X442149D01*
Y103239D01*
X442251D01*
Y103341D01*
X442454D01*
Y103442D01*
X442657D01*
Y103544D01*
X442758D01*
Y103645D01*
X442961D01*
Y103747D01*
X443265D01*
Y103848D01*
X443468D01*
Y103949D01*
X443773D01*
Y104051D01*
X444077D01*
Y104152D01*
X444382D01*
Y104254D01*
X444889D01*
Y104355D01*
X445396D01*
Y104457D01*
X445802D01*
Y104558D01*
X446005D01*
Y104660D01*
X446107D01*
Y104761D01*
X446208D01*
Y104863D01*
X446310D01*
Y104964D01*
X446513D01*
Y105066D01*
X446614D01*
Y105167D01*
X446716D01*
Y105269D01*
X446817D01*
Y105370D01*
X447020D01*
Y105472D01*
X447223D01*
Y105573D01*
X447426D01*
Y105674D01*
X447730D01*
Y105776D01*
X447832D01*
Y105979D01*
X447730D01*
Y106182D01*
X447629D01*
Y106385D01*
X447527D01*
Y106588D01*
X447426D01*
Y106791D01*
X447324D01*
Y106994D01*
X447223D01*
Y107197D01*
X447122D01*
Y107400D01*
X447020D01*
Y107603D01*
X446918D01*
Y107907D01*
X446817D01*
Y108110D01*
X446716D01*
Y108414D01*
X446614D01*
Y108719D01*
X446513D01*
Y109023D01*
X446411D01*
Y109328D01*
X446310D01*
Y109733D01*
X446208D01*
Y110038D01*
X446107D01*
Y110444D01*
X446005D01*
Y110850D01*
X445904D01*
Y111256D01*
X445802D01*
Y111662D01*
X445701D01*
Y112169D01*
X445599D01*
Y115010D01*
X445498D01*
Y116025D01*
X445599D01*
Y117547D01*
X445701D01*
Y118156D01*
X445802D01*
Y118765D01*
X445904D01*
Y119272D01*
X446005D01*
Y119678D01*
X446107D01*
Y120084D01*
X446208D01*
Y120490D01*
X446310D01*
Y120794D01*
X446411D01*
Y121200D01*
X446513D01*
Y121505D01*
X446614D01*
Y121809D01*
X446716D01*
Y122113D01*
X446817D01*
Y122519D01*
X446918D01*
Y122824D01*
X446614D01*
Y122925D01*
X446005D01*
Y123027D01*
X445498D01*
Y123128D01*
X444991D01*
Y123230D01*
X444585D01*
Y123331D01*
X444280D01*
Y123433D01*
X443976D01*
Y123534D01*
X443773D01*
Y123636D01*
X443570D01*
Y123737D01*
X443367D01*
Y123839D01*
X443164D01*
Y123940D01*
X442961D01*
Y124042D01*
X442859D01*
Y124143D01*
X442657D01*
Y124244D01*
X442555D01*
Y124346D01*
X442454D01*
Y124447D01*
X442352D01*
Y124549D01*
X442251D01*
Y124650D01*
X442149D01*
Y124752D01*
X442048D01*
Y124853D01*
X441946D01*
Y124955D01*
X441845D01*
Y125056D01*
X441743D01*
Y125158D01*
X441642D01*
Y125361D01*
X441540D01*
Y125462D01*
X441439D01*
Y125564D01*
X441337D01*
Y125766D01*
X441236D01*
Y125969D01*
X441134D01*
Y126071D01*
X441033D01*
Y126274D01*
X440932D01*
Y126477D01*
X440830D01*
Y126781D01*
X440729D01*
Y126984D01*
X440627D01*
Y127187D01*
X440526D01*
Y127492D01*
X440424D01*
Y127796D01*
X440323D01*
Y128100D01*
X440221D01*
Y128506D01*
X440120D01*
Y129115D01*
X440018D01*
Y129825D01*
X439917D01*
Y134189D01*
X440018D01*
Y135001D01*
X440120D01*
Y135508D01*
X440221D01*
Y136016D01*
X440323D01*
Y136320D01*
X440424D01*
Y136624D01*
X440526D01*
Y136929D01*
X440627D01*
Y137132D01*
X440729D01*
Y137436D01*
X440830D01*
Y137639D01*
X440932D01*
Y137842D01*
X441033D01*
Y138045D01*
X441134D01*
Y138146D01*
X441236D01*
Y138349D01*
X441337D01*
Y138552D01*
X441439D01*
Y138654D01*
X441540D01*
Y138857D01*
X441642D01*
Y138958D01*
X441743D01*
Y139161D01*
X441845D01*
Y139263D01*
X441946D01*
Y139364D01*
X442048D01*
Y139567D01*
X442149D01*
Y139669D01*
X442251D01*
Y139770D01*
X442352D01*
Y139872D01*
X442454D01*
Y139973D01*
X442555D01*
Y140074D01*
X442657D01*
Y140277D01*
X442758D01*
Y140379D01*
X442859D01*
Y140480D01*
X442961D01*
Y140582D01*
X443063D01*
Y140683D01*
X443164D01*
Y140785D01*
X443265D01*
Y140886D01*
X443367D01*
Y140988D01*
X443468D01*
Y141089D01*
X443671D01*
Y141191D01*
X443773D01*
Y141292D01*
X443874D01*
Y141394D01*
X443976D01*
Y141495D01*
X444077D01*
Y141597D01*
X444179D01*
Y141698D01*
X444382D01*
Y141799D01*
X444483D01*
Y141901D01*
X444585D01*
Y142002D01*
X444686D01*
Y142104D01*
X444889D01*
Y142205D01*
X444991D01*
Y142307D01*
X445092D01*
Y142408D01*
X445295D01*
Y142510D01*
X445396D01*
Y142611D01*
X445498D01*
Y142814D01*
X445599D01*
Y144133D01*
X445701D01*
Y146061D01*
X445802D01*
Y147076D01*
X445904D01*
Y147990D01*
X446005D01*
Y148700D01*
X446107D01*
Y149410D01*
X446208D01*
Y149917D01*
X446310D01*
Y150526D01*
X446411D01*
Y151034D01*
X446513D01*
Y151440D01*
X446614D01*
Y151846D01*
X446716D01*
Y152353D01*
X446817D01*
Y152860D01*
X446918D01*
Y152962D01*
X446817D01*
Y153266D01*
X446716D01*
Y153469D01*
X446614D01*
Y153571D01*
X446513D01*
Y153773D01*
X446411D01*
Y153976D01*
X446310D01*
Y154078D01*
X446208D01*
Y154281D01*
X446107D01*
Y154382D01*
X446005D01*
Y154585D01*
X445904D01*
Y154687D01*
X445802D01*
Y154890D01*
X445701D01*
Y155093D01*
X445599D01*
Y155194D01*
X445498D01*
Y155397D01*
X445396D01*
Y155600D01*
X445295D01*
Y155702D01*
X445193D01*
Y155905D01*
X445092D01*
Y156108D01*
X444991D01*
Y156209D01*
X444889D01*
Y156412D01*
X444788D01*
Y156615D01*
X444686D01*
Y156818D01*
X444585D01*
Y157021D01*
X444483D01*
Y157224D01*
X444382D01*
Y157325D01*
X444280D01*
Y157528D01*
X444179D01*
Y157731D01*
X444077D01*
Y157934D01*
X443976D01*
Y158137D01*
X443874D01*
Y158340D01*
X443773D01*
Y158543D01*
X443671D01*
Y158746D01*
X443570D01*
Y158949D01*
X443468D01*
Y159152D01*
X443367D01*
Y159355D01*
X443265D01*
Y159558D01*
X443164D01*
Y159761D01*
X443063D01*
Y159964D01*
X442961D01*
Y160166D01*
X442859D01*
Y160369D01*
X442758D01*
Y160572D01*
X442657D01*
Y160775D01*
X442555D01*
Y160978D01*
X442454D01*
Y161283D01*
X442352D01*
Y161486D01*
X442251D01*
Y161689D01*
X442149D01*
Y161891D01*
X442048D01*
Y162094D01*
X441946D01*
Y162297D01*
X441845D01*
Y162500D01*
X441743D01*
Y162805D01*
X441642D01*
Y163008D01*
X441540D01*
Y163211D01*
X441439D01*
Y163414D01*
X441337D01*
Y163718D01*
X441236D01*
Y163921D01*
X441134D01*
Y164124D01*
X441033D01*
Y164428D01*
X440932D01*
Y164631D01*
X440830D01*
Y164834D01*
X440729D01*
Y165037D01*
X440627D01*
Y165342D01*
X440526D01*
Y165545D01*
X440424D01*
Y165849D01*
X440323D01*
Y166052D01*
X440221D01*
Y166255D01*
X440120D01*
Y166559D01*
X440018D01*
Y166762D01*
X439917D01*
Y167067D01*
X439815D01*
Y167270D01*
X439714D01*
Y167574D01*
X439612D01*
Y167777D01*
X439511D01*
Y168081D01*
X439409D01*
Y168386D01*
X439308D01*
Y168589D01*
X439206D01*
Y168893D01*
X439105D01*
Y169198D01*
X439003D01*
Y169401D01*
X438902D01*
Y169705D01*
X438801D01*
Y169908D01*
X438699D01*
Y170212D01*
X438598D01*
Y170517D01*
X438496D01*
Y170821D01*
X438395D01*
Y171024D01*
X438293D01*
Y171126D01*
X438192D01*
Y171227D01*
X438090D01*
Y171329D01*
X437989D01*
Y171430D01*
X437887D01*
Y171532D01*
X437786D01*
Y171633D01*
X437583D01*
Y171735D01*
X437481D01*
Y171836D01*
X437380D01*
Y171938D01*
X437177D01*
Y172039D01*
X437076D01*
Y172140D01*
X436974D01*
Y172242D01*
X436771D01*
Y172343D01*
X436670D01*
Y172445D01*
X436568D01*
Y172546D01*
X436467D01*
Y172648D01*
X436365D01*
Y172749D01*
X436264D01*
Y172851D01*
X436162D01*
Y172952D01*
X436061D01*
Y173054D01*
X435959D01*
Y173155D01*
X435858D01*
Y173257D01*
X435756D01*
Y173358D01*
X435655D01*
Y173561D01*
X435553D01*
Y173663D01*
X435452D01*
Y173866D01*
X435350D01*
Y173967D01*
X435249D01*
Y174069D01*
X435148D01*
Y174271D01*
X435046D01*
Y174373D01*
X434944D01*
Y174576D01*
X434843D01*
Y174677D01*
X434742D01*
Y174779D01*
X434640D01*
Y174880D01*
X434539D01*
Y174982D01*
X434437D01*
Y175185D01*
X434336D01*
Y175286D01*
X434234D01*
Y175388D01*
X434133D01*
Y175489D01*
X434031D01*
Y175591D01*
X433930D01*
Y175692D01*
X433828D01*
Y175794D01*
X433727D01*
Y175895D01*
X433625D01*
Y175996D01*
X433524D01*
Y176098D01*
X433422D01*
Y176199D01*
X433219D01*
Y176098D01*
X433118D01*
Y175895D01*
X433017D01*
Y174373D01*
X433118D01*
Y173155D01*
X433219D01*
Y172648D01*
X433118D01*
Y172749D01*
X433017D01*
Y172952D01*
X432915D01*
Y173155D01*
X432813D01*
Y173460D01*
X432712D01*
Y173967D01*
X432611D01*
Y175083D01*
X432712D01*
Y175895D01*
X432813D01*
Y175996D01*
X432205D01*
Y175286D01*
X432103D01*
Y174880D01*
X432002D01*
Y174474D01*
X431900D01*
Y174069D01*
X431799D01*
Y173764D01*
X431697D01*
Y173561D01*
X431596D01*
Y173663D01*
X431494D01*
Y174170D01*
X431596D01*
Y174779D01*
X431697D01*
Y175185D01*
X431799D01*
Y175591D01*
X431900D01*
Y175996D01*
X431799D01*
Y176098D01*
X431697D01*
Y176199D01*
X431393D01*
Y176301D01*
X430987D01*
Y176402D01*
X430784D01*
Y176504D01*
X430581D01*
Y176605D01*
X430480D01*
Y176707D01*
X430378D01*
Y176808D01*
X430277D01*
Y176910D01*
X430175D01*
Y177011D01*
X430074D01*
Y177113D01*
X429972D01*
Y177214D01*
X429871D01*
Y177417D01*
X429769D01*
Y177519D01*
X429668D01*
Y177722D01*
X429566D01*
Y177924D01*
X429465D01*
Y178229D01*
X429363D01*
Y178533D01*
X429262D01*
Y179244D01*
X429160D01*
Y179954D01*
X429262D01*
Y180461D01*
X429363D01*
Y180766D01*
X429465D01*
Y181070D01*
X429566D01*
Y181273D01*
X429668D01*
Y181476D01*
X429769D01*
Y181578D01*
X429871D01*
Y181781D01*
X429972D01*
Y181882D01*
X430074D01*
Y181984D01*
X430175D01*
Y182085D01*
X430277D01*
Y182288D01*
X430378D01*
Y182389D01*
X430581D01*
Y182491D01*
X430683D01*
Y182592D01*
X430784D01*
Y182694D01*
X430886D01*
Y182998D01*
X430784D01*
Y183607D01*
X430683D01*
Y184622D01*
X430784D01*
Y184825D01*
X430886D01*
Y185028D01*
X430987D01*
Y185129D01*
X431088D01*
Y185231D01*
X431190D01*
Y185332D01*
X431291D01*
Y185434D01*
X431393D01*
Y185535D01*
X431596D01*
Y185637D01*
X431697D01*
Y185738D01*
X431900D01*
Y185840D01*
X432205D01*
Y185941D01*
X432306D01*
Y185738D01*
X432205D01*
Y185637D01*
X432103D01*
Y185535D01*
X432002D01*
Y185434D01*
X431900D01*
Y185332D01*
X431799D01*
Y185231D01*
X431697D01*
Y185129D01*
X431596D01*
Y185028D01*
X431494D01*
Y184926D01*
X431393D01*
Y184825D01*
X431291D01*
Y184622D01*
X431190D01*
Y184317D01*
X431088D01*
Y183100D01*
X431190D01*
Y182795D01*
X431393D01*
Y182897D01*
X431494D01*
Y182998D01*
X431596D01*
Y183201D01*
X431697D01*
Y183404D01*
X431799D01*
Y183506D01*
X431900D01*
Y183607D01*
X432002D01*
Y183709D01*
X432103D01*
Y183810D01*
X432205D01*
Y183911D01*
X432306D01*
Y184013D01*
X432408D01*
Y184114D01*
X432509D01*
Y184216D01*
X432611D01*
Y184317D01*
X432813D01*
Y184419D01*
X432915D01*
Y184520D01*
X433118D01*
Y184622D01*
X433422D01*
Y184723D01*
X433727D01*
Y184825D01*
X434133D01*
Y184723D01*
X434234D01*
Y184622D01*
X434133D01*
Y184520D01*
X433930D01*
Y184419D01*
X433727D01*
Y184317D01*
X433524D01*
Y184216D01*
X433321D01*
Y184114D01*
X433219D01*
Y184013D01*
X433017D01*
Y183911D01*
X432915D01*
Y183810D01*
X432712D01*
Y183709D01*
X432611D01*
Y183607D01*
X432408D01*
Y183506D01*
X432306D01*
Y183404D01*
X432205D01*
Y183303D01*
X432103D01*
Y183201D01*
X432002D01*
Y183100D01*
X431900D01*
Y182998D01*
X431799D01*
Y182897D01*
X431697D01*
Y182795D01*
X432002D01*
Y182694D01*
X432712D01*
Y182592D01*
X433930D01*
Y182491D01*
X435452D01*
Y182592D01*
X435655D01*
Y182694D01*
X435858D01*
Y182795D01*
X436061D01*
Y182897D01*
X436264D01*
Y182998D01*
X436365D01*
Y183100D01*
X436568D01*
Y183201D01*
X436771D01*
Y183303D01*
X436872D01*
Y183404D01*
X437076D01*
Y183506D01*
X437177D01*
Y183607D01*
X437380D01*
Y183709D01*
X437583D01*
Y183810D01*
X437684D01*
Y183911D01*
X437887D01*
Y184013D01*
X437989D01*
Y184114D01*
X438192D01*
Y184216D01*
X438293D01*
Y184317D01*
X438496D01*
Y184419D01*
X438598D01*
Y184520D01*
X438801D01*
Y184622D01*
X439003D01*
Y184723D01*
X439206D01*
Y184825D01*
X439308D01*
Y184926D01*
X439511D01*
Y185028D01*
X439612D01*
Y185129D01*
X439815D01*
Y185231D01*
X440018D01*
Y185332D01*
X440221D01*
Y185434D01*
X440424D01*
Y185535D01*
X440729D01*
Y185637D01*
X440932D01*
Y185738D01*
X441236D01*
Y185840D01*
X441540D01*
Y185941D01*
X441845D01*
Y186042D01*
X442251D01*
Y186144D01*
X442758D01*
Y186245D01*
X443367D01*
Y186347D01*
X444179D01*
Y186448D01*
X445396D01*
Y186550D01*
X445904D01*
Y186448D01*
X448035D01*
Y186347D01*
X449049D01*
Y186245D01*
X449861D01*
Y186144D01*
X450673D01*
Y186042D01*
X453311D01*
Y186144D01*
X453514D01*
Y186245D01*
X453717D01*
Y186347D01*
X453920D01*
Y186448D01*
X454123D01*
Y186550D01*
X454225D01*
Y186651D01*
X454428D01*
Y186753D01*
X454631D01*
Y186854D01*
X454834D01*
Y186956D01*
X454935D01*
Y187057D01*
X454631D01*
Y187159D01*
X454428D01*
Y187260D01*
X454225D01*
Y187362D01*
X453514D01*
Y187463D01*
X453311D01*
Y187666D01*
X453413D01*
Y187768D01*
X454428D01*
Y187666D01*
X454631D01*
Y187565D01*
X454834D01*
Y187463D01*
X454935D01*
Y187362D01*
X455037D01*
Y187260D01*
X455138D01*
Y187159D01*
X455341D01*
Y187057D01*
X455645D01*
Y186956D01*
X455950D01*
Y187057D01*
X456051D01*
Y187159D01*
X455950D01*
Y187362D01*
X455848D01*
Y187565D01*
X455747D01*
Y187666D01*
X455645D01*
Y187869D01*
X455544D01*
Y187971D01*
X455442D01*
Y188072D01*
X455341D01*
Y188174D01*
X455239D01*
Y188275D01*
X455138D01*
Y188376D01*
X455037D01*
Y188579D01*
X454935D01*
Y188681D01*
X454834D01*
Y188782D01*
X454732D01*
Y188884D01*
X454631D01*
Y188985D01*
X454529D01*
Y189087D01*
X454428D01*
Y189188D01*
X454225D01*
Y189290D01*
X454123D01*
Y189391D01*
X454022D01*
Y189493D01*
X453819D01*
Y189594D01*
X453717D01*
Y189696D01*
X454326D01*
Y189594D01*
D02*
G37*
G36*
X457776Y182288D02*
X457979D01*
Y182187D01*
X458182D01*
Y182085D01*
X458284D01*
Y181984D01*
X458385D01*
Y181882D01*
X458588D01*
Y181679D01*
X458690D01*
Y181578D01*
X458791D01*
Y181375D01*
X458893D01*
Y181070D01*
X458690D01*
Y181172D01*
X458588D01*
Y181273D01*
X458487D01*
Y181375D01*
X458385D01*
Y181476D01*
X458284D01*
Y181578D01*
X458182D01*
Y181679D01*
X458081D01*
Y181781D01*
X457979D01*
Y181882D01*
X457878D01*
Y181984D01*
X457776D01*
Y182085D01*
X457675D01*
Y182187D01*
X457573D01*
Y182288D01*
X457472D01*
Y182389D01*
X457776D01*
Y182288D01*
D02*
G37*
G36*
X82820Y94846D02*
X80280D01*
Y98656D01*
X82820D01*
Y94846D01*
D02*
G37*
%LPC*%
G36*
X454834Y186347D02*
X454631D01*
Y186245D01*
X454834D01*
Y186347D01*
D02*
G37*
G36*
X454631Y186245D02*
X454428D01*
Y186144D01*
X454225D01*
Y186042D01*
X454022D01*
Y185941D01*
X453920D01*
Y185840D01*
X453717D01*
Y185738D01*
X453616D01*
Y185637D01*
X453514D01*
Y185535D01*
X453311D01*
Y185434D01*
X452601D01*
Y185535D01*
X451282D01*
Y185637D01*
X450369D01*
Y185738D01*
X449557D01*
Y185840D01*
X448948D01*
Y185941D01*
X444179D01*
Y185840D01*
X443164D01*
Y185738D01*
X442555D01*
Y185637D01*
X442048D01*
Y185535D01*
X441642D01*
Y185434D01*
X441439D01*
Y185332D01*
X441134D01*
Y185231D01*
X440830D01*
Y185129D01*
X440627D01*
Y185028D01*
X440323D01*
Y184926D01*
X440120D01*
Y184825D01*
X440018D01*
Y184723D01*
X439815D01*
Y184622D01*
X439612D01*
Y184520D01*
X439409D01*
Y184419D01*
X439308D01*
Y184317D01*
X439105D01*
Y184216D01*
X438902D01*
Y184114D01*
X438801D01*
Y184013D01*
X439308D01*
Y184114D01*
X439815D01*
Y184216D01*
X440526D01*
Y184317D01*
X443671D01*
Y184216D01*
X444483D01*
Y184114D01*
X444991D01*
Y184013D01*
X445295D01*
Y183911D01*
X445498D01*
Y183810D01*
X445701D01*
Y183709D01*
X445802D01*
Y183607D01*
X445904D01*
Y183506D01*
X446005D01*
Y183404D01*
X446107D01*
Y183303D01*
X446208D01*
Y183201D01*
X446310D01*
Y183100D01*
X446411D01*
Y182897D01*
X446513D01*
Y182795D01*
X446614D01*
Y182592D01*
X446716D01*
Y182288D01*
X446817D01*
Y181781D01*
X446918D01*
Y180867D01*
X446817D01*
Y180360D01*
X446716D01*
Y180056D01*
X446614D01*
Y179751D01*
X446513D01*
Y179548D01*
X446411D01*
Y179447D01*
X446310D01*
Y179244D01*
X446208D01*
Y179142D01*
X446107D01*
Y179041D01*
X446005D01*
Y178838D01*
X445904D01*
Y178736D01*
X445802D01*
Y178635D01*
X445701D01*
Y178533D01*
X445599D01*
Y178432D01*
X445498D01*
Y178330D01*
X445396D01*
Y178229D01*
X445295D01*
Y178127D01*
X445193D01*
Y178026D01*
X445092D01*
Y177924D01*
X444991D01*
Y177823D01*
X444889D01*
Y177722D01*
X444686D01*
Y177620D01*
X444585D01*
Y177519D01*
X444483D01*
Y177417D01*
X444382D01*
Y177316D01*
X444179D01*
Y177214D01*
X443976D01*
Y177113D01*
X443773D01*
Y177011D01*
X443570D01*
Y176910D01*
X443265D01*
Y176808D01*
X442859D01*
Y176707D01*
X442454D01*
Y176605D01*
X441946D01*
Y176707D01*
X441337D01*
Y176808D01*
X440830D01*
Y176910D01*
X440323D01*
Y177011D01*
X439815D01*
Y177113D01*
X439308D01*
Y177214D01*
X438902D01*
Y177316D01*
X438598D01*
Y177417D01*
X438395D01*
Y177519D01*
X438192D01*
Y177620D01*
X438090D01*
Y177722D01*
X437989D01*
Y177823D01*
X437887D01*
Y177924D01*
X437786D01*
Y178026D01*
X437684D01*
Y178127D01*
X437583D01*
Y178330D01*
X437481D01*
Y178533D01*
X437380D01*
Y178736D01*
X437278D01*
Y179041D01*
X437177D01*
Y179345D01*
X437076D01*
Y179751D01*
X436974D01*
Y180461D01*
X436872D01*
Y181375D01*
X436974D01*
Y181882D01*
X437076D01*
Y182288D01*
X437177D01*
Y182592D01*
X437278D01*
Y182795D01*
X437380D01*
Y182998D01*
X437177D01*
Y182897D01*
X437076D01*
Y182795D01*
X436872D01*
Y182694D01*
X436670D01*
Y182592D01*
X436568D01*
Y182491D01*
X436264D01*
Y182389D01*
X436061D01*
Y182288D01*
X435756D01*
Y182187D01*
X435452D01*
Y182085D01*
X434640D01*
Y181984D01*
X434133D01*
Y182085D01*
X433017D01*
Y182187D01*
X430987D01*
Y182085D01*
X430683D01*
Y181984D01*
X430581D01*
Y181882D01*
X430480D01*
Y181781D01*
X430886D01*
Y181882D01*
X432306D01*
Y181781D01*
X432509D01*
Y181679D01*
X432611D01*
Y181578D01*
X432813D01*
Y181476D01*
X432915D01*
Y181375D01*
X433017D01*
Y181273D01*
X433118D01*
Y181070D01*
X433219D01*
Y180867D01*
X433321D01*
Y180664D01*
X433422D01*
Y180360D01*
X433524D01*
Y179853D01*
X433625D01*
Y179244D01*
X433524D01*
Y179142D01*
X433422D01*
Y179041D01*
X433321D01*
Y178939D01*
X433219D01*
Y178838D01*
X433118D01*
Y178736D01*
X433017D01*
Y178635D01*
X432813D01*
Y178533D01*
X432712D01*
Y178432D01*
X432509D01*
Y178330D01*
X432408D01*
Y178229D01*
X432205D01*
Y178127D01*
X432002D01*
Y178026D01*
X431799D01*
Y177924D01*
X431596D01*
Y177823D01*
X431393D01*
Y177722D01*
X431190D01*
Y177620D01*
X430886D01*
Y177519D01*
X430683D01*
Y177417D01*
X430480D01*
Y177214D01*
X430581D01*
Y177113D01*
X430683D01*
Y177011D01*
X430886D01*
Y176910D01*
X431088D01*
Y176808D01*
X431291D01*
Y176707D01*
X431799D01*
Y176605D01*
X433017D01*
Y176707D01*
X433219D01*
Y178026D01*
X433321D01*
Y178127D01*
X433524D01*
Y177924D01*
X433625D01*
Y177417D01*
X433727D01*
Y177011D01*
X433828D01*
Y176707D01*
X433930D01*
Y176504D01*
X434031D01*
Y176301D01*
X434133D01*
Y176199D01*
X434234D01*
Y175996D01*
X434336D01*
Y175895D01*
X434437D01*
Y175794D01*
X434539D01*
Y175591D01*
X434640D01*
Y175489D01*
X434742D01*
Y175388D01*
X434843D01*
Y175286D01*
X434944D01*
Y175185D01*
X435046D01*
Y175083D01*
X435148D01*
Y174880D01*
X435249D01*
Y174779D01*
X435350D01*
Y174677D01*
X435452D01*
Y174474D01*
X435553D01*
Y174373D01*
X435655D01*
Y174170D01*
X435756D01*
Y174069D01*
X435858D01*
Y173866D01*
X435959D01*
Y173764D01*
X436061D01*
Y173663D01*
X436162D01*
Y173460D01*
X436264D01*
Y173358D01*
X436365D01*
Y173257D01*
X436467D01*
Y173155D01*
X436568D01*
Y173054D01*
X436670D01*
Y172952D01*
X436771D01*
Y172851D01*
X436872D01*
Y172749D01*
X436974D01*
Y172648D01*
X437177D01*
Y172546D01*
X437278D01*
Y172445D01*
X437380D01*
Y172343D01*
X437583D01*
Y172242D01*
X437684D01*
Y172140D01*
X437887D01*
Y172039D01*
X437989D01*
Y171938D01*
X438192D01*
Y171836D01*
X438395D01*
Y171735D01*
X438496D01*
Y171633D01*
X438699D01*
Y171430D01*
X438801D01*
Y171126D01*
X438902D01*
Y170821D01*
X439003D01*
Y170517D01*
X439105D01*
Y170212D01*
X439206D01*
Y169908D01*
X439308D01*
Y169604D01*
X439409D01*
Y169299D01*
X439511D01*
Y168995D01*
X439612D01*
Y168792D01*
X439714D01*
Y168487D01*
X439815D01*
Y168284D01*
X439917D01*
Y167980D01*
X440018D01*
Y167777D01*
X440120D01*
Y167473D01*
X440221D01*
Y167270D01*
X440323D01*
Y166965D01*
X440424D01*
Y166762D01*
X440526D01*
Y166458D01*
X440627D01*
Y166255D01*
X440729D01*
Y165951D01*
X440830D01*
Y165748D01*
X440932D01*
Y165545D01*
X441033D01*
Y165240D01*
X441134D01*
Y165037D01*
X441236D01*
Y164834D01*
X441337D01*
Y164530D01*
X441439D01*
Y164327D01*
X441540D01*
Y164023D01*
X441642D01*
Y163820D01*
X441743D01*
Y163617D01*
X441845D01*
Y163414D01*
X441946D01*
Y163211D01*
X442048D01*
Y163008D01*
X442149D01*
Y162703D01*
X442251D01*
Y162500D01*
X442352D01*
Y162297D01*
X442454D01*
Y162094D01*
X442555D01*
Y161790D01*
X442657D01*
Y161587D01*
X442758D01*
Y161384D01*
X442859D01*
Y161181D01*
X442961D01*
Y160978D01*
X443063D01*
Y160775D01*
X443164D01*
Y160572D01*
X443265D01*
Y160369D01*
X443367D01*
Y160166D01*
X443468D01*
Y159964D01*
X443570D01*
Y159761D01*
X443671D01*
Y159558D01*
X443773D01*
Y159355D01*
X443874D01*
Y159152D01*
X443976D01*
Y158949D01*
X444077D01*
Y158746D01*
X444179D01*
Y158543D01*
X444280D01*
Y158340D01*
X444382D01*
Y158137D01*
X444483D01*
Y157934D01*
X444585D01*
Y157731D01*
X444686D01*
Y157630D01*
X444788D01*
Y157427D01*
X444889D01*
Y157224D01*
X444991D01*
Y157021D01*
X445092D01*
Y156818D01*
X445193D01*
Y156716D01*
X445295D01*
Y156513D01*
X445396D01*
Y156310D01*
X445498D01*
Y156108D01*
X445599D01*
Y156006D01*
X445701D01*
Y155803D01*
X445802D01*
Y155600D01*
X445904D01*
Y155499D01*
X446005D01*
Y155296D01*
X446107D01*
Y155194D01*
X446208D01*
Y154991D01*
X446310D01*
Y154788D01*
X446411D01*
Y154687D01*
X446513D01*
Y154484D01*
X446614D01*
Y154382D01*
X446716D01*
Y154179D01*
X446817D01*
Y154078D01*
X446918D01*
Y153875D01*
X447020D01*
Y153773D01*
X447122D01*
Y153571D01*
X447223D01*
Y153469D01*
X447324D01*
Y153266D01*
X447426D01*
Y152860D01*
X447324D01*
Y152454D01*
X447223D01*
Y152049D01*
X447122D01*
Y151541D01*
X447020D01*
Y151135D01*
X446918D01*
Y150628D01*
X446817D01*
Y150120D01*
X446716D01*
Y149613D01*
X446614D01*
Y149004D01*
X446513D01*
Y148395D01*
X446411D01*
Y147584D01*
X446310D01*
Y146467D01*
X446208D01*
Y143931D01*
X446107D01*
Y142611D01*
X446208D01*
Y142510D01*
X446513D01*
Y142408D01*
X446918D01*
Y142307D01*
X447223D01*
Y142205D01*
X447527D01*
Y142104D01*
X447730D01*
Y142002D01*
X448035D01*
Y141901D01*
X448238D01*
Y141799D01*
X448441D01*
Y141698D01*
X448745D01*
Y141597D01*
X448948D01*
Y141495D01*
X449049D01*
Y141394D01*
X449354D01*
Y141292D01*
X449455D01*
Y141191D01*
X449658D01*
Y141089D01*
X449760D01*
Y140988D01*
X449861D01*
Y140886D01*
X450064D01*
Y140785D01*
X450166D01*
Y140683D01*
X450267D01*
Y140582D01*
X450369D01*
Y140480D01*
X450470D01*
Y140379D01*
X450572D01*
Y140277D01*
X450673D01*
Y140176D01*
X450775D01*
Y140074D01*
X450876D01*
Y139973D01*
X450978D01*
Y139872D01*
X451079D01*
Y139770D01*
X451180D01*
Y139669D01*
X451282D01*
Y139567D01*
X451383D01*
Y139466D01*
X451485D01*
Y139364D01*
X451586D01*
Y139263D01*
X451688D01*
Y139161D01*
X451789D01*
Y139060D01*
X451891D01*
Y138958D01*
X451992D01*
Y138857D01*
X452398D01*
Y138958D01*
X452601D01*
Y139060D01*
X452804D01*
Y139161D01*
X453108D01*
Y139263D01*
X453311D01*
Y139364D01*
X453616D01*
Y139466D01*
X454022D01*
Y139567D01*
X454428D01*
Y139669D01*
X455037D01*
Y139770D01*
X455950D01*
Y139872D01*
X456457D01*
Y139770D01*
X457979D01*
Y139669D01*
X458588D01*
Y139567D01*
X458994D01*
Y139466D01*
X459400D01*
Y139364D01*
X459806D01*
Y139263D01*
X459907D01*
Y139364D01*
X460110D01*
Y139466D01*
X460212D01*
Y139567D01*
X460313D01*
Y139669D01*
X460415D01*
Y139770D01*
X460516D01*
Y139872D01*
X460719D01*
Y139973D01*
X460821D01*
Y140074D01*
X461023D01*
Y140176D01*
X461429D01*
Y140277D01*
X461632D01*
Y140176D01*
X462038D01*
Y140074D01*
X462241D01*
Y139973D01*
X462444D01*
Y139872D01*
X462546D01*
Y139770D01*
X462749D01*
Y139669D01*
X462850D01*
Y139567D01*
X463053D01*
Y139466D01*
X463154D01*
Y139364D01*
X463357D01*
Y139263D01*
X463459D01*
Y139161D01*
X463662D01*
Y139060D01*
X463865D01*
Y138958D01*
X464068D01*
Y138857D01*
X464474D01*
Y138755D01*
X466097D01*
Y138857D01*
X466706D01*
Y138958D01*
X466909D01*
Y139060D01*
X467010D01*
Y139263D01*
X466909D01*
Y139364D01*
X466808D01*
Y139466D01*
X466706D01*
Y139567D01*
X466605D01*
Y139669D01*
X466402D01*
Y139770D01*
X466300D01*
Y139872D01*
X466199D01*
Y139973D01*
X465894D01*
Y140074D01*
X465691D01*
Y140176D01*
X465285D01*
Y140277D01*
X464879D01*
Y140379D01*
X464474D01*
Y140480D01*
X464169D01*
Y140582D01*
X463865D01*
Y140683D01*
X463560D01*
Y140785D01*
X463357D01*
Y140886D01*
X463154D01*
Y140988D01*
X462952D01*
Y141089D01*
X462749D01*
Y141191D01*
X462647D01*
Y141292D01*
X462444D01*
Y141394D01*
X462343D01*
Y141495D01*
X462241D01*
Y141597D01*
X462140D01*
Y141698D01*
X462038D01*
Y141799D01*
X461937D01*
Y141901D01*
X461734D01*
Y142002D01*
X461632D01*
Y142104D01*
X461531D01*
Y142205D01*
X461429D01*
Y142307D01*
X461328D01*
Y142408D01*
X461227D01*
Y142510D01*
X461125D01*
Y142611D01*
X461023D01*
Y142814D01*
X460922D01*
Y142916D01*
X460821D01*
Y143017D01*
X460719D01*
Y143119D01*
X460618D01*
Y143220D01*
X460516D01*
Y143322D01*
X460415D01*
Y143525D01*
X460313D01*
Y143626D01*
X460212D01*
Y143829D01*
X460110D01*
Y144032D01*
X460009D01*
Y144235D01*
X459907D01*
Y144438D01*
X459806D01*
Y144742D01*
X459704D01*
Y145047D01*
X459806D01*
Y144945D01*
X459907D01*
Y144742D01*
X460009D01*
Y144641D01*
X460110D01*
Y144438D01*
X460212D01*
Y144235D01*
X460313D01*
Y144133D01*
X460415D01*
Y143931D01*
X460516D01*
Y143829D01*
X460618D01*
Y143728D01*
X460719D01*
Y143525D01*
X460821D01*
Y143423D01*
X460922D01*
Y143322D01*
X461023D01*
Y143220D01*
X461125D01*
Y143119D01*
X461227D01*
Y143017D01*
X461328D01*
Y142916D01*
X461429D01*
Y142814D01*
X461531D01*
Y142713D01*
X461632D01*
Y142611D01*
X461734D01*
Y142510D01*
X461835D01*
Y142408D01*
X461937D01*
Y142307D01*
X462038D01*
Y142205D01*
X462140D01*
Y142104D01*
X462241D01*
Y142002D01*
X462444D01*
Y141901D01*
X462546D01*
Y141799D01*
X462647D01*
Y141698D01*
X462749D01*
Y141597D01*
X462952D01*
Y141495D01*
X463154D01*
Y141394D01*
X463256D01*
Y141292D01*
X463459D01*
Y141191D01*
X463662D01*
Y141089D01*
X463966D01*
Y140988D01*
X464169D01*
Y140886D01*
X464575D01*
Y140785D01*
X464981D01*
Y140683D01*
X465285D01*
Y140582D01*
X465488D01*
Y140480D01*
X465793D01*
Y140379D01*
X465996D01*
Y140277D01*
X466199D01*
Y140176D01*
X466300D01*
Y140074D01*
X466503D01*
Y139973D01*
X466605D01*
Y139872D01*
X466706D01*
Y139770D01*
X466808D01*
Y139669D01*
X467010D01*
Y139567D01*
X467112D01*
Y139466D01*
X467214D01*
Y139364D01*
X467315D01*
Y139263D01*
X467416D01*
Y139364D01*
X467619D01*
Y139466D01*
X467822D01*
Y139567D01*
X467924D01*
Y139669D01*
X468127D01*
Y139770D01*
X468330D01*
Y139872D01*
X468533D01*
Y139973D01*
X468736D01*
Y140074D01*
X468938D01*
Y140176D01*
X469142D01*
Y140277D01*
X469344D01*
Y140379D01*
X469649D01*
Y140480D01*
X470156D01*
Y140582D01*
X471272D01*
Y140480D01*
X472389D01*
Y140379D01*
X472795D01*
Y140277D01*
X472998D01*
Y140074D01*
X472896D01*
Y139973D01*
X472389D01*
Y140074D01*
X470055D01*
Y139973D01*
X469547D01*
Y139872D01*
X469344D01*
Y139770D01*
X469142D01*
Y139669D01*
X468938D01*
Y139567D01*
X468736D01*
Y139466D01*
X468533D01*
Y139364D01*
X468330D01*
Y139263D01*
X468228D01*
Y139161D01*
X468025D01*
Y139060D01*
X467822D01*
Y138958D01*
X467619D01*
Y138857D01*
X467416D01*
Y138755D01*
X467214D01*
Y138654D01*
X467010D01*
Y138552D01*
X466808D01*
Y138451D01*
X466503D01*
Y138349D01*
X465996D01*
Y138248D01*
X464981D01*
Y138349D01*
X464271D01*
Y138451D01*
X463865D01*
Y138552D01*
X463662D01*
Y138654D01*
X463459D01*
Y138755D01*
X463357D01*
Y138857D01*
X463154D01*
Y138958D01*
X462952D01*
Y139060D01*
X462850D01*
Y139161D01*
X462647D01*
Y139263D01*
X462546D01*
Y139364D01*
X462343D01*
Y139466D01*
X462241D01*
Y139567D01*
X462038D01*
Y139669D01*
X461835D01*
Y139770D01*
X461125D01*
Y139669D01*
X460922D01*
Y139567D01*
X460821D01*
Y139466D01*
X460719D01*
Y139364D01*
X460618D01*
Y139263D01*
X460516D01*
Y139060D01*
X460415D01*
Y138045D01*
X460516D01*
Y137740D01*
X460618D01*
Y137436D01*
X460719D01*
Y137233D01*
X460821D01*
Y136929D01*
X460922D01*
Y136726D01*
X461023D01*
Y136421D01*
X461125D01*
Y136117D01*
X461227D01*
Y135813D01*
X461328D01*
Y135407D01*
X461429D01*
Y135001D01*
X461531D01*
Y133986D01*
X461632D01*
Y133681D01*
X461531D01*
Y132565D01*
X461429D01*
Y131957D01*
X461328D01*
Y131449D01*
X461227D01*
Y131043D01*
X461125D01*
Y130536D01*
X461023D01*
Y130130D01*
X460922D01*
Y129724D01*
X460821D01*
Y129318D01*
X460719D01*
Y128912D01*
X460618D01*
Y128405D01*
X460516D01*
Y127796D01*
X460415D01*
Y126274D01*
X460516D01*
Y126071D01*
X460618D01*
Y125969D01*
X460719D01*
Y125766D01*
X460821D01*
Y125665D01*
X460922D01*
Y125564D01*
X461023D01*
Y125462D01*
X461125D01*
Y125361D01*
X461227D01*
Y125259D01*
X461328D01*
Y125158D01*
X461429D01*
Y125056D01*
X461531D01*
Y124955D01*
X461632D01*
Y124853D01*
X461734D01*
Y124752D01*
X461835D01*
Y124650D01*
X461937D01*
Y124549D01*
X462038D01*
Y124447D01*
X462140D01*
Y124346D01*
X462241D01*
Y124244D01*
X462444D01*
Y124143D01*
X462546D01*
Y124042D01*
X462647D01*
Y123940D01*
X462749D01*
Y123839D01*
X462952D01*
Y123737D01*
X463154D01*
Y123636D01*
X463256D01*
Y123534D01*
X463459D01*
Y123433D01*
X463560D01*
Y123331D01*
X463763D01*
Y123230D01*
X463966D01*
Y123128D01*
X464068D01*
Y123027D01*
X464271D01*
Y122925D01*
X464474D01*
Y122824D01*
X464677D01*
Y122722D01*
X464879D01*
Y122621D01*
X465083D01*
Y122519D01*
X465387D01*
Y122418D01*
X465691D01*
Y122316D01*
X465996D01*
Y122215D01*
X466402D01*
Y122113D01*
X466909D01*
Y122012D01*
X469344D01*
Y122113D01*
X470055D01*
Y122215D01*
X470461D01*
Y122316D01*
X470765D01*
Y122418D01*
X471069D01*
Y122519D01*
X471374D01*
Y122621D01*
X471577D01*
Y122722D01*
X471780D01*
Y122824D01*
X471983D01*
Y122925D01*
X472186D01*
Y123027D01*
X472389D01*
Y123128D01*
X472592D01*
Y123230D01*
X472795D01*
Y123331D01*
X472998D01*
Y123433D01*
X473099D01*
Y123534D01*
X473302D01*
Y123636D01*
X473403D01*
Y123737D01*
X473606D01*
Y123839D01*
X473708D01*
Y123940D01*
X473809D01*
Y124042D01*
X473911D01*
Y124143D01*
X474012D01*
Y124244D01*
X474215D01*
Y124346D01*
X474317D01*
Y124447D01*
X474418D01*
Y124549D01*
X474520D01*
Y124650D01*
X474621D01*
Y124752D01*
X474723D01*
Y124853D01*
X474824D01*
Y124955D01*
X474925D01*
Y125056D01*
X475027D01*
Y125158D01*
X475129D01*
Y125259D01*
X475230D01*
Y125361D01*
X475331D01*
Y125462D01*
X475433D01*
Y125564D01*
X475534D01*
Y125665D01*
X475636D01*
Y125766D01*
X475737D01*
Y125868D01*
X475839D01*
Y125969D01*
X475940D01*
Y126071D01*
X476042D01*
Y126172D01*
X476143D01*
Y126274D01*
X476245D01*
Y126375D01*
X476346D01*
Y126477D01*
X476448D01*
Y126578D01*
X476549D01*
Y126680D01*
X476651D01*
Y126781D01*
X476752D01*
Y126883D01*
X476854D01*
Y126984D01*
X476955D01*
Y127086D01*
X477057D01*
Y127187D01*
X477158D01*
Y127289D01*
X477259D01*
Y127390D01*
X477361D01*
Y127492D01*
X477462D01*
Y127593D01*
X477564D01*
Y127695D01*
X477665D01*
Y127898D01*
X477767D01*
Y127999D01*
X477868D01*
Y128100D01*
X477970D01*
Y128303D01*
X478071D01*
Y128608D01*
X478173D01*
Y128912D01*
X478274D01*
Y129217D01*
X478376D01*
Y129420D01*
X478477D01*
Y129521D01*
X478579D01*
Y129724D01*
X478680D01*
Y129825D01*
X478782D01*
Y129927D01*
X478883D01*
Y130130D01*
X478984D01*
Y130231D01*
X479086D01*
Y130333D01*
X479188D01*
Y130434D01*
X479289D01*
Y130536D01*
X479390D01*
Y130637D01*
X479492D01*
Y130739D01*
X479593D01*
Y130840D01*
X479695D01*
Y130942D01*
X479796D01*
Y131043D01*
X479999D01*
Y131145D01*
X480101D01*
Y131246D01*
X480202D01*
Y131348D01*
X480304D01*
Y131449D01*
X480507D01*
Y131551D01*
X480608D01*
Y131652D01*
X480710D01*
Y131754D01*
X480811D01*
Y131855D01*
X481014D01*
Y131957D01*
X481115D01*
Y132058D01*
X481217D01*
Y132159D01*
X481318D01*
Y132261D01*
X481420D01*
Y132362D01*
X481521D01*
Y132870D01*
X481623D01*
Y135711D01*
X481521D01*
Y135914D01*
X481420D01*
Y136218D01*
X481318D01*
Y136421D01*
X481217D01*
Y136624D01*
X481115D01*
Y136827D01*
X481014D01*
Y137030D01*
X480913D01*
Y137233D01*
X480811D01*
Y137436D01*
X480710D01*
Y137639D01*
X480608D01*
Y137842D01*
X480507D01*
Y137943D01*
X480405D01*
Y138146D01*
X480304D01*
Y138248D01*
X480202D01*
Y138451D01*
X480101D01*
Y138552D01*
X479999D01*
Y138654D01*
X479898D01*
Y138857D01*
X479796D01*
Y138958D01*
X479695D01*
Y139060D01*
X479593D01*
Y139161D01*
X479492D01*
Y139263D01*
X479390D01*
Y139364D01*
X479289D01*
Y139466D01*
X479188D01*
Y139567D01*
X479086D01*
Y139770D01*
X478984D01*
Y139872D01*
X478883D01*
Y139973D01*
X478782D01*
Y140074D01*
X478680D01*
Y140176D01*
X478579D01*
Y140277D01*
X478477D01*
Y140379D01*
X478376D01*
Y140480D01*
X478274D01*
Y140582D01*
X478173D01*
Y140683D01*
X478071D01*
Y140785D01*
X477970D01*
Y140886D01*
X477868D01*
Y140988D01*
X477767D01*
Y141089D01*
X477665D01*
Y141191D01*
X477564D01*
Y141292D01*
X477462D01*
Y141394D01*
X477361D01*
Y141495D01*
X477259D01*
Y141597D01*
X477158D01*
Y141698D01*
X477057D01*
Y141799D01*
X476955D01*
Y141901D01*
X476854D01*
Y142002D01*
X476752D01*
Y142104D01*
X476651D01*
Y142205D01*
X476549D01*
Y142307D01*
X476448D01*
Y142408D01*
X476346D01*
Y142510D01*
X476245D01*
Y142611D01*
X476143D01*
Y142713D01*
X476042D01*
Y142814D01*
X475940D01*
Y142916D01*
X475839D01*
Y143017D01*
X475737D01*
Y143119D01*
X475636D01*
Y143220D01*
X475534D01*
Y143322D01*
X475433D01*
Y143423D01*
X475331D01*
Y143525D01*
X475230D01*
Y143626D01*
X475129D01*
Y143728D01*
X475027D01*
Y143829D01*
X474925D01*
Y143931D01*
X474824D01*
Y144032D01*
X474723D01*
Y144133D01*
X474621D01*
Y144235D01*
X474520D01*
Y144336D01*
X474418D01*
Y144438D01*
X474317D01*
Y144539D01*
X474215D01*
Y144641D01*
X474114D01*
Y144742D01*
X474012D01*
Y144844D01*
X473911D01*
Y144945D01*
X473708D01*
Y145047D01*
X473606D01*
Y145148D01*
X473505D01*
Y145250D01*
X473403D01*
Y145351D01*
X473302D01*
Y145453D01*
X473200D01*
Y145554D01*
X473099D01*
Y145656D01*
X472998D01*
Y145757D01*
X472896D01*
Y145858D01*
X472795D01*
Y145960D01*
X472693D01*
Y146061D01*
X472592D01*
Y146163D01*
X472490D01*
Y146264D01*
X472389D01*
Y146366D01*
X472287D01*
Y146467D01*
X472186D01*
Y146569D01*
X472084D01*
Y146670D01*
X471983D01*
Y146772D01*
X471881D01*
Y146873D01*
X471780D01*
Y146975D01*
X471678D01*
Y147076D01*
X471577D01*
Y147178D01*
X471374D01*
Y147279D01*
X471272D01*
Y147381D01*
X471171D01*
Y147482D01*
X471069D01*
Y147584D01*
X470968D01*
Y147685D01*
X470867D01*
Y147787D01*
X470765D01*
Y147888D01*
X470664D01*
Y147990D01*
X470562D01*
Y148091D01*
X470461D01*
Y148192D01*
X470359D01*
Y148294D01*
X470258D01*
Y148395D01*
X470156D01*
Y148497D01*
X470055D01*
Y148598D01*
X469953D01*
Y148700D01*
X469852D01*
Y148801D01*
X469750D01*
Y148903D01*
X469649D01*
Y149004D01*
X469547D01*
Y149106D01*
X469446D01*
Y149207D01*
X469344D01*
Y149309D01*
X469243D01*
Y149410D01*
X469142D01*
Y149512D01*
X469040D01*
Y149613D01*
X468938D01*
Y149715D01*
X468837D01*
Y149816D01*
X468736D01*
Y149917D01*
X468634D01*
Y150120D01*
X468533D01*
Y150222D01*
X468431D01*
Y150323D01*
X468330D01*
Y150425D01*
X468228D01*
Y150526D01*
X468127D01*
Y150628D01*
X468025D01*
Y150729D01*
X467924D01*
Y150831D01*
X467822D01*
Y150932D01*
X467721D01*
Y151034D01*
X467619D01*
Y151135D01*
X467518D01*
Y151338D01*
X467416D01*
Y151440D01*
X467315D01*
Y151541D01*
X467214D01*
Y151643D01*
X467112D01*
Y151846D01*
X467010D01*
Y151947D01*
X466909D01*
Y152049D01*
X466808D01*
Y152251D01*
X466706D01*
Y152353D01*
X466605D01*
Y152454D01*
X466503D01*
Y152657D01*
X466402D01*
Y152759D01*
X466300D01*
Y152860D01*
X466199D01*
Y153063D01*
X466097D01*
Y153165D01*
X465996D01*
Y153266D01*
X465894D01*
Y153469D01*
X465793D01*
Y153571D01*
X465691D01*
Y153672D01*
X465590D01*
Y153875D01*
X465488D01*
Y153976D01*
X465387D01*
Y154078D01*
X465285D01*
Y154179D01*
X465184D01*
Y154281D01*
X465083D01*
Y154382D01*
X464981D01*
Y154585D01*
X464879D01*
Y154687D01*
X464677D01*
Y154788D01*
X464575D01*
Y154890D01*
X464474D01*
Y154991D01*
X464372D01*
Y155093D01*
X464271D01*
Y155194D01*
X464169D01*
Y155296D01*
X463966D01*
Y155397D01*
X463865D01*
Y155499D01*
X463662D01*
Y155600D01*
X463560D01*
Y155702D01*
X463357D01*
Y155803D01*
X463256D01*
Y155905D01*
X463053D01*
Y156006D01*
X462850D01*
Y156108D01*
X462647D01*
Y156209D01*
X462546D01*
Y156310D01*
X462343D01*
Y156412D01*
X462140D01*
Y156513D01*
X461937D01*
Y156615D01*
X461734D01*
Y156716D01*
X461531D01*
Y156818D01*
X461328D01*
Y156919D01*
X461125D01*
Y157021D01*
X461023D01*
Y157122D01*
X460821D01*
Y157224D01*
X460618D01*
Y157325D01*
X460415D01*
Y157427D01*
X460212D01*
Y157528D01*
X460009D01*
Y157630D01*
X459806D01*
Y157731D01*
X459603D01*
Y157832D01*
X459400D01*
Y157934D01*
X459298D01*
Y158035D01*
X459095D01*
Y158137D01*
X458893D01*
Y158238D01*
X458690D01*
Y158340D01*
X458487D01*
Y158441D01*
X458385D01*
Y158543D01*
X458182D01*
Y158644D01*
X457979D01*
Y158746D01*
X457878D01*
Y158847D01*
X457675D01*
Y158949D01*
X457573D01*
Y159050D01*
X457472D01*
Y159152D01*
X457269D01*
Y159253D01*
X457168D01*
Y159355D01*
X457066D01*
Y159456D01*
X456964D01*
Y159558D01*
X456762D01*
Y159659D01*
X456660D01*
Y159761D01*
X456559D01*
Y159862D01*
X456457D01*
Y159964D01*
X456356D01*
Y160065D01*
X456254D01*
Y160166D01*
X456153D01*
Y160268D01*
X456051D01*
Y160369D01*
X455950D01*
Y160471D01*
X455848D01*
Y160674D01*
X455747D01*
Y160775D01*
X455645D01*
Y160877D01*
X455544D01*
Y161080D01*
X455442D01*
Y161181D01*
X455341D01*
Y161384D01*
X455239D01*
Y161689D01*
X455138D01*
Y161891D01*
X455037D01*
Y162196D01*
X454935D01*
Y162500D01*
X454834D01*
Y162703D01*
X454732D01*
Y163109D01*
X454631D01*
Y163515D01*
X454529D01*
Y164023D01*
X454428D01*
Y164733D01*
X454326D01*
Y165646D01*
X454225D01*
Y167473D01*
X454123D01*
Y171836D01*
X454225D01*
Y173663D01*
X454326D01*
Y174880D01*
X454428D01*
Y175794D01*
X454529D01*
Y176504D01*
X454631D01*
Y177214D01*
X454732D01*
Y177722D01*
X454834D01*
Y178229D01*
X454935D01*
Y178635D01*
X455037D01*
Y179041D01*
X455138D01*
Y179447D01*
X455239D01*
Y179751D01*
X455341D01*
Y180056D01*
X455442D01*
Y180258D01*
X455544D01*
Y180563D01*
X455645D01*
Y180766D01*
X455747D01*
Y180969D01*
X455848D01*
Y181172D01*
X455950D01*
Y181375D01*
X456051D01*
Y181476D01*
X456153D01*
Y181578D01*
X456254D01*
Y181781D01*
X456356D01*
Y181882D01*
X456457D01*
Y182085D01*
X456559D01*
Y182187D01*
X456660D01*
Y182288D01*
X456762D01*
Y182491D01*
X456863D01*
Y182592D01*
X456964D01*
Y182795D01*
X457066D01*
Y182897D01*
X457168D01*
Y183100D01*
X457269D01*
Y183201D01*
X457370D01*
Y183404D01*
X457472D01*
Y183607D01*
X457573D01*
Y183810D01*
X457066D01*
Y183709D01*
X456660D01*
Y183607D01*
X456051D01*
Y183506D01*
X454935D01*
Y183607D01*
X454428D01*
Y183709D01*
X454123D01*
Y183810D01*
X453920D01*
Y183911D01*
X453819D01*
Y184825D01*
X453920D01*
Y185231D01*
X454022D01*
Y185535D01*
X454123D01*
Y185738D01*
X454225D01*
Y185840D01*
X454326D01*
Y185941D01*
X454428D01*
Y186042D01*
X454529D01*
Y186144D01*
X454631D01*
Y186245D01*
D02*
G37*
G36*
X456660D02*
X456051D01*
Y186144D01*
X455544D01*
Y186042D01*
X455239D01*
Y185941D01*
X455037D01*
Y185840D01*
X454834D01*
Y185738D01*
X454732D01*
Y185637D01*
X454631D01*
Y185535D01*
X454529D01*
Y185332D01*
X454428D01*
Y185129D01*
X454326D01*
Y184216D01*
X454428D01*
Y184114D01*
X454631D01*
Y184013D01*
X454935D01*
Y184216D01*
X455037D01*
Y184317D01*
Y184825D01*
X455138D01*
Y184926D01*
X455239D01*
Y185028D01*
X455341D01*
Y185129D01*
X455544D01*
Y185231D01*
X456457D01*
Y185129D01*
X456660D01*
Y185028D01*
X456762D01*
Y184926D01*
X456863D01*
Y184622D01*
X456964D01*
Y184317D01*
X457370D01*
Y184419D01*
X457573D01*
Y184520D01*
X457675D01*
Y184926D01*
X457573D01*
Y185231D01*
X457472D01*
Y185434D01*
X457370D01*
Y185535D01*
X457269D01*
Y185738D01*
X457168D01*
Y185840D01*
X457066D01*
Y185941D01*
X456964D01*
Y186042D01*
X456863D01*
Y186144D01*
X456660D01*
Y186245D01*
D02*
G37*
G36*
X456356Y184825D02*
X455645D01*
Y184723D01*
X455442D01*
Y184622D01*
X455341D01*
Y184419D01*
X455239D01*
Y184114D01*
X455138D01*
Y184013D01*
X455341D01*
Y184317D01*
X455442D01*
Y184419D01*
X455544D01*
Y184520D01*
X455645D01*
Y184622D01*
X455747D01*
Y184723D01*
X455950D01*
Y184622D01*
X456153D01*
Y184520D01*
X456254D01*
Y184419D01*
X456356D01*
Y184317D01*
X456457D01*
Y184216D01*
X456559D01*
Y184114D01*
X456660D01*
Y184419D01*
X456559D01*
Y184622D01*
X456457D01*
Y184723D01*
X456356D01*
Y184825D01*
D02*
G37*
G36*
X456051Y184114D02*
X455645D01*
Y184013D01*
Y183911D01*
X455950D01*
Y184013D01*
X456051D01*
Y184114D01*
D02*
G37*
G36*
X432205Y181375D02*
X430683D01*
Y181273D01*
X430378D01*
Y181172D01*
X430175D01*
Y181070D01*
X430074D01*
Y180969D01*
X429972D01*
Y180867D01*
X429871D01*
Y180664D01*
X429769D01*
Y178432D01*
X429871D01*
Y178026D01*
X429972D01*
Y177823D01*
X430378D01*
Y177924D01*
X430784D01*
Y178026D01*
X431088D01*
Y178127D01*
X431190D01*
Y178533D01*
X431088D01*
Y178635D01*
X430987D01*
Y179041D01*
X430886D01*
Y179345D01*
X430987D01*
Y179751D01*
X431088D01*
Y179853D01*
X431190D01*
Y179954D01*
X431291D01*
Y180056D01*
X431393D01*
Y180157D01*
X431697D01*
Y180258D01*
X432712D01*
Y180157D01*
X432915D01*
Y180056D01*
X433017D01*
Y179954D01*
X433118D01*
Y180258D01*
X433017D01*
Y180461D01*
X432915D01*
Y180664D01*
X432813D01*
Y180867D01*
X432712D01*
Y180969D01*
X432611D01*
Y181070D01*
X432509D01*
Y181172D01*
X432408D01*
Y181273D01*
X432205D01*
Y181375D01*
D02*
G37*
G36*
X432611Y179853D02*
X431697D01*
Y179751D01*
X431494D01*
Y179650D01*
X431393D01*
Y179447D01*
X431291D01*
Y178736D01*
X431393D01*
Y178533D01*
X431494D01*
Y178432D01*
X431697D01*
Y178635D01*
X431596D01*
Y179244D01*
X431697D01*
Y179345D01*
X431799D01*
Y179447D01*
X431900D01*
Y179548D01*
X432103D01*
Y179650D01*
X432509D01*
Y179548D01*
X432611D01*
Y179447D01*
X432813D01*
Y179345D01*
X432915D01*
Y179548D01*
X432813D01*
Y179650D01*
X432712D01*
Y179751D01*
X432611D01*
Y179853D01*
D02*
G37*
G36*
X432509Y179142D02*
X432103D01*
Y179041D01*
X432002D01*
Y178838D01*
X431900D01*
Y178736D01*
X432002D01*
Y178635D01*
X432306D01*
Y178736D01*
X432408D01*
Y178838D01*
X432509D01*
Y178939D01*
X432611D01*
Y179041D01*
X432509D01*
Y179142D01*
D02*
G37*
G36*
X444889Y183709D02*
X439612D01*
Y183607D01*
X439105D01*
Y183506D01*
X438902D01*
Y183404D01*
X438598D01*
Y183303D01*
X438395D01*
Y183201D01*
X438293D01*
Y183100D01*
X438192D01*
Y182998D01*
X438090D01*
Y182897D01*
X437989D01*
Y182795D01*
X437887D01*
Y182694D01*
X437786D01*
Y182592D01*
X437684D01*
Y182389D01*
X437583D01*
Y182288D01*
Y182085D01*
X437481D01*
Y181578D01*
X437380D01*
Y180461D01*
X437481D01*
Y179447D01*
X437583D01*
Y179142D01*
X437684D01*
Y178939D01*
X437786D01*
Y178736D01*
X437887D01*
Y178533D01*
X437989D01*
Y178330D01*
X438090D01*
Y178229D01*
X438192D01*
Y178127D01*
X438293D01*
Y178026D01*
X438395D01*
Y177924D01*
X438598D01*
Y177823D01*
X438801D01*
Y177722D01*
X439105D01*
Y177620D01*
X439409D01*
Y177519D01*
X439917D01*
Y177417D01*
X440526D01*
Y177316D01*
X441033D01*
Y177214D01*
X441642D01*
Y177113D01*
X442657D01*
Y177214D01*
X443063D01*
Y177316D01*
X443367D01*
Y177417D01*
X443570D01*
Y177519D01*
X443773D01*
Y177620D01*
X443976D01*
Y177722D01*
X444077D01*
Y177823D01*
X444179D01*
Y177924D01*
X444382D01*
Y178026D01*
X444483D01*
Y178127D01*
X444585D01*
Y178229D01*
X444686D01*
Y178330D01*
X444889D01*
Y178432D01*
X444991D01*
Y178533D01*
X445092D01*
Y178635D01*
X445193D01*
Y178736D01*
X445295D01*
Y178838D01*
X445396D01*
Y178939D01*
X445498D01*
Y179142D01*
X445599D01*
Y179244D01*
X445701D01*
Y179345D01*
X445802D01*
Y179447D01*
X445904D01*
Y179650D01*
X446005D01*
Y179751D01*
X446107D01*
Y179954D01*
X446208D01*
Y180157D01*
X446310D01*
Y180563D01*
X446411D01*
Y181984D01*
X446310D01*
Y182389D01*
X446208D01*
Y182592D01*
X446107D01*
Y182795D01*
X446005D01*
Y182897D01*
X445904D01*
Y182998D01*
X445802D01*
Y183100D01*
X445701D01*
Y183201D01*
X445599D01*
Y183303D01*
X445498D01*
Y183404D01*
X445295D01*
Y183506D01*
X445193D01*
Y183607D01*
X444889D01*
Y183709D01*
D02*
G37*
G36*
X446208Y142104D02*
X445802D01*
Y142002D01*
X445498D01*
Y141901D01*
X445295D01*
Y141799D01*
X445092D01*
Y141698D01*
X444991D01*
Y141597D01*
X444788D01*
Y141495D01*
X444686D01*
Y141394D01*
X444483D01*
Y141292D01*
X444382D01*
Y141191D01*
X444280D01*
Y141089D01*
X444179D01*
Y140988D01*
X444077D01*
Y140886D01*
X443874D01*
Y140785D01*
X443773D01*
Y140683D01*
X443671D01*
Y140582D01*
X443570D01*
Y140480D01*
X443468D01*
Y140379D01*
X443367D01*
Y140277D01*
X443265D01*
Y140176D01*
X443164D01*
Y140074D01*
X443063D01*
Y139973D01*
X442961D01*
Y139770D01*
X442859D01*
Y139669D01*
X442758D01*
Y139567D01*
X442657D01*
Y139466D01*
X442555D01*
Y139364D01*
X442454D01*
Y139263D01*
X442352D01*
Y139060D01*
X442251D01*
Y138958D01*
X442149D01*
Y138857D01*
X442048D01*
Y138654D01*
X441946D01*
Y138552D01*
X441845D01*
Y138349D01*
X441743D01*
Y138146D01*
X441642D01*
Y138045D01*
X441540D01*
Y137842D01*
X441439D01*
Y137639D01*
X441337D01*
Y137335D01*
X441236D01*
Y137132D01*
X441134D01*
Y136929D01*
X441033D01*
Y136726D01*
X440932D01*
Y136421D01*
X440830D01*
Y136117D01*
X440729D01*
Y135914D01*
X440830D01*
Y136016D01*
X440932D01*
Y136218D01*
X441033D01*
Y136320D01*
X441134D01*
Y136421D01*
X441236D01*
Y136624D01*
X441337D01*
Y136726D01*
X441439D01*
Y136827D01*
X441540D01*
Y136929D01*
X441642D01*
Y137030D01*
X441743D01*
Y137132D01*
X441845D01*
Y137233D01*
X441946D01*
Y137436D01*
X442048D01*
Y137538D01*
X442149D01*
Y137639D01*
X442251D01*
Y137740D01*
X442352D01*
Y137842D01*
X442454D01*
Y137943D01*
X442555D01*
Y138045D01*
X442657D01*
Y138146D01*
X442758D01*
Y138248D01*
X442859D01*
Y138349D01*
X442961D01*
Y138451D01*
X443063D01*
Y138552D01*
X443164D01*
Y138654D01*
X443265D01*
Y138755D01*
X443367D01*
Y138857D01*
X443468D01*
Y138958D01*
X443570D01*
Y138755D01*
X443468D01*
Y138552D01*
X443367D01*
Y138451D01*
X443265D01*
Y138349D01*
X443164D01*
Y138146D01*
X443063D01*
Y138045D01*
X442961D01*
Y137943D01*
X442859D01*
Y137842D01*
X442758D01*
Y137740D01*
X442657D01*
Y137538D01*
X442555D01*
Y137436D01*
X442454D01*
Y137335D01*
X442352D01*
Y137233D01*
X442251D01*
Y137132D01*
X442149D01*
Y136929D01*
X442048D01*
Y136827D01*
X441946D01*
Y136726D01*
X441845D01*
Y136624D01*
X441743D01*
Y136523D01*
X441642D01*
Y136320D01*
X441540D01*
Y136218D01*
X441439D01*
Y136016D01*
X441337D01*
Y135914D01*
X441236D01*
Y135711D01*
X441134D01*
Y135407D01*
X441033D01*
Y135001D01*
X440932D01*
Y131652D01*
X441033D01*
Y130942D01*
X441134D01*
Y130434D01*
X441236D01*
Y130028D01*
X441337D01*
Y129622D01*
X441439D01*
Y129318D01*
X441540D01*
Y128912D01*
X441642D01*
Y128709D01*
X441540D01*
Y128811D01*
X441439D01*
Y129014D01*
X441337D01*
Y129217D01*
X441236D01*
Y129420D01*
X441134D01*
Y129724D01*
X441033D01*
Y129927D01*
X440932D01*
Y130333D01*
X440830D01*
Y130637D01*
X440729D01*
Y131043D01*
X440627D01*
Y131551D01*
X440526D01*
Y132261D01*
X440424D01*
Y133377D01*
X440323D01*
Y130130D01*
X440424D01*
Y129217D01*
X440526D01*
Y128709D01*
X440627D01*
Y128303D01*
X440729D01*
Y127898D01*
X440830D01*
Y127593D01*
X440932D01*
Y127390D01*
X441033D01*
Y127086D01*
X441134D01*
Y126883D01*
X441236D01*
Y126680D01*
X441337D01*
Y126578D01*
X441439D01*
Y126375D01*
X441540D01*
Y126172D01*
X441642D01*
Y125969D01*
X441743D01*
Y125868D01*
X441845D01*
Y125665D01*
X441946D01*
Y125564D01*
X442048D01*
Y125462D01*
X442149D01*
Y125361D01*
X442251D01*
Y125259D01*
X442352D01*
Y125158D01*
X442454D01*
Y125056D01*
X442555D01*
Y124955D01*
X442657D01*
Y124853D01*
X442758D01*
Y124752D01*
X442859D01*
Y124650D01*
X442961D01*
Y124549D01*
X443164D01*
Y124447D01*
X443265D01*
Y124346D01*
X443367D01*
Y124244D01*
X443570D01*
Y124143D01*
X443671D01*
Y124042D01*
X443874D01*
Y123940D01*
X444077D01*
Y123839D01*
X444382D01*
Y123737D01*
X444686D01*
Y123636D01*
X445092D01*
Y123534D01*
X445701D01*
Y123433D01*
X446614D01*
Y123331D01*
X447324D01*
Y123534D01*
X447426D01*
Y124244D01*
X447324D01*
Y124447D01*
X447223D01*
Y124752D01*
X447122D01*
Y125056D01*
X447020D01*
Y125462D01*
X447122D01*
Y125766D01*
X447223D01*
Y125868D01*
X447324D01*
Y125969D01*
X447426D01*
Y126071D01*
X447527D01*
Y126172D01*
X447730D01*
Y126274D01*
X447832D01*
Y126375D01*
X447933D01*
Y126477D01*
X448136D01*
Y126578D01*
X448238D01*
Y126680D01*
X448441D01*
Y126781D01*
X448644D01*
Y126883D01*
X448745D01*
Y126984D01*
X448948D01*
Y127086D01*
X449049D01*
Y127187D01*
X449252D01*
Y127289D01*
X449455D01*
Y127390D01*
X449557D01*
Y127492D01*
X449760D01*
Y127593D01*
X449861D01*
Y127695D01*
X449963D01*
Y127796D01*
X450166D01*
Y127898D01*
X450267D01*
Y127999D01*
X450369D01*
Y128100D01*
X450470D01*
Y128202D01*
X450673D01*
Y128303D01*
X450775D01*
Y128405D01*
X450876D01*
Y128506D01*
X450978D01*
Y128608D01*
X451079D01*
Y128912D01*
X449861D01*
Y128811D01*
X449049D01*
Y128709D01*
X448542D01*
Y128608D01*
X448238D01*
Y128506D01*
X447832D01*
Y128405D01*
X447426D01*
Y128303D01*
X446918D01*
Y128202D01*
X445193D01*
Y128303D01*
X444788D01*
Y128405D01*
X444483D01*
Y128506D01*
X444179D01*
Y128608D01*
X443874D01*
Y128709D01*
X443570D01*
Y128811D01*
X443367D01*
Y128912D01*
X443164D01*
Y129014D01*
X442961D01*
Y129115D01*
X442859D01*
Y129217D01*
X442657D01*
Y129318D01*
X442555D01*
Y129420D01*
X442454D01*
Y129622D01*
X442352D01*
Y129724D01*
X442251D01*
Y129927D01*
X442149D01*
Y130130D01*
X442048D01*
Y130333D01*
X441946D01*
Y130536D01*
Y130637D01*
Y131754D01*
X442048D01*
Y132159D01*
X442149D01*
Y132464D01*
X442251D01*
Y132971D01*
X442149D01*
Y133377D01*
X442048D01*
Y134899D01*
X442149D01*
Y135305D01*
X442251D01*
Y135610D01*
X442352D01*
Y135914D01*
X442454D01*
Y136117D01*
X442555D01*
Y136320D01*
X442657D01*
Y136523D01*
X442758D01*
Y136726D01*
X442859D01*
Y136929D01*
X442961D01*
Y137132D01*
X443063D01*
Y137335D01*
X443164D01*
Y137538D01*
X443265D01*
Y137740D01*
X443367D01*
Y137943D01*
X443468D01*
Y138146D01*
X443570D01*
Y138349D01*
X443671D01*
Y138552D01*
X443773D01*
Y138755D01*
X443874D01*
Y138958D01*
X443976D01*
Y139060D01*
X444077D01*
Y139263D01*
X444179D01*
Y139466D01*
X444280D01*
Y139567D01*
X444382D01*
Y139770D01*
X444483D01*
Y139872D01*
X444585D01*
Y139973D01*
X444686D01*
Y140074D01*
X444788D01*
Y140176D01*
X444889D01*
Y140277D01*
X444991D01*
Y140379D01*
X445092D01*
Y140480D01*
X445193D01*
Y140582D01*
X445295D01*
Y140683D01*
X445396D01*
Y140785D01*
X445599D01*
Y140886D01*
X445701D01*
Y140988D01*
X445904D01*
Y141089D01*
X446208D01*
Y141191D01*
X447020D01*
Y141089D01*
X447223D01*
Y140988D01*
X447426D01*
Y140886D01*
X447527D01*
Y140785D01*
X447629D01*
Y140683D01*
X447730D01*
Y140582D01*
X447832D01*
Y140480D01*
X447933D01*
Y140379D01*
X448035D01*
Y140277D01*
X448136D01*
Y140176D01*
X448238D01*
Y140074D01*
X448339D01*
Y139973D01*
X448441D01*
Y139770D01*
X448542D01*
Y139669D01*
X448644D01*
Y139466D01*
X448745D01*
Y139364D01*
X448847D01*
Y139161D01*
X448948D01*
Y138958D01*
X449049D01*
Y138857D01*
X449151D01*
Y138654D01*
X449252D01*
Y138451D01*
X449354D01*
Y138248D01*
X449455D01*
Y138146D01*
X449557D01*
Y137943D01*
X449658D01*
Y137740D01*
X449760D01*
Y137538D01*
X449861D01*
Y137335D01*
X449963D01*
Y137233D01*
X450064D01*
Y137132D01*
X450166D01*
Y137233D01*
X450369D01*
Y137335D01*
X450470D01*
Y137436D01*
X450572D01*
Y137538D01*
X450673D01*
Y137639D01*
X450775D01*
Y137740D01*
X450876D01*
Y137842D01*
X450978D01*
Y137943D01*
X451079D01*
Y138045D01*
X451180D01*
Y138146D01*
X451282D01*
Y138248D01*
X451383D01*
Y138349D01*
X451586D01*
Y138451D01*
X451688D01*
Y138654D01*
X451586D01*
Y138755D01*
X451485D01*
Y138857D01*
X451383D01*
Y138958D01*
X451282D01*
Y139060D01*
X451180D01*
Y139161D01*
X451079D01*
Y139263D01*
X450978D01*
Y139364D01*
X450876D01*
Y139466D01*
X450775D01*
Y139567D01*
X450673D01*
Y139669D01*
X450572D01*
Y139770D01*
X450470D01*
Y139872D01*
X450369D01*
Y139973D01*
X450267D01*
Y140074D01*
X450166D01*
Y140176D01*
X450064D01*
Y140277D01*
X449963D01*
Y140379D01*
X449760D01*
Y140480D01*
X449658D01*
Y140582D01*
X449557D01*
Y140683D01*
X449455D01*
Y140785D01*
X449252D01*
Y140886D01*
X449151D01*
Y140988D01*
X448948D01*
Y141089D01*
X448745D01*
Y141191D01*
X448542D01*
Y141292D01*
X448339D01*
Y141394D01*
X448035D01*
Y141495D01*
X447832D01*
Y141597D01*
X447629D01*
Y141698D01*
X447324D01*
Y141799D01*
X447020D01*
Y141901D01*
X446716D01*
Y142002D01*
X446208D01*
Y142104D01*
D02*
G37*
G36*
X457472Y139263D02*
X454529D01*
Y139161D01*
X454123D01*
Y139060D01*
X453819D01*
Y138958D01*
X453514D01*
Y138857D01*
X453311D01*
Y138755D01*
X453108D01*
Y138654D01*
X452906D01*
Y138552D01*
X452703D01*
Y138451D01*
X452500D01*
Y138349D01*
X452297D01*
Y138248D01*
X452195D01*
Y138146D01*
X451992D01*
Y138045D01*
X451891D01*
Y137943D01*
X451789D01*
Y137842D01*
X451586D01*
Y137740D01*
X451485D01*
Y137639D01*
X451383D01*
Y137538D01*
X451282D01*
Y137436D01*
X451180D01*
Y137335D01*
X450978D01*
Y137233D01*
X450876D01*
Y137132D01*
X450775D01*
Y136929D01*
X450673D01*
Y136827D01*
X450572D01*
Y136726D01*
X450470D01*
Y136624D01*
X450369D01*
Y136421D01*
X450267D01*
Y136320D01*
X450166D01*
Y136117D01*
X450064D01*
Y136016D01*
X449963D01*
Y135813D01*
X449861D01*
Y135610D01*
X449760D01*
Y135407D01*
X449658D01*
Y135204D01*
X449557D01*
Y135001D01*
X449455D01*
Y134798D01*
X449354D01*
Y134696D01*
X449455D01*
Y134595D01*
X449760D01*
Y134696D01*
X450267D01*
Y134798D01*
X450673D01*
Y134899D01*
X451079D01*
Y135001D01*
X451383D01*
Y135102D01*
X451789D01*
Y135204D01*
X452297D01*
Y135305D01*
X452906D01*
Y135407D01*
X454225D01*
Y135508D01*
X457168D01*
Y135610D01*
X459197D01*
Y135711D01*
X460618D01*
Y135813D01*
X460821D01*
Y136016D01*
X460719D01*
Y136117D01*
X460618D01*
Y136218D01*
X460313D01*
Y136320D01*
X460009D01*
Y136421D01*
X459400D01*
Y136523D01*
X458690D01*
Y136624D01*
X457675D01*
Y136726D01*
X455138D01*
Y136624D01*
X454428D01*
Y136523D01*
X454022D01*
Y136421D01*
X453616D01*
Y136320D01*
X453311D01*
Y136218D01*
X453007D01*
Y136117D01*
X452804D01*
Y136016D01*
X452500D01*
Y135914D01*
X452297D01*
Y135813D01*
X452094D01*
Y135711D01*
X451992D01*
Y135610D01*
X451789D01*
Y135508D01*
X451586D01*
Y135610D01*
X451688D01*
Y135711D01*
X451789D01*
Y135813D01*
X451891D01*
Y135914D01*
X451992D01*
Y136016D01*
X452195D01*
Y136117D01*
X452398D01*
Y136218D01*
X452500D01*
Y136320D01*
X452703D01*
Y136421D01*
X452906D01*
Y136523D01*
X453108D01*
Y136624D01*
X453311D01*
Y136726D01*
X453514D01*
Y136827D01*
X453819D01*
Y136929D01*
X454123D01*
Y137030D01*
X454529D01*
Y137132D01*
X458081D01*
Y137030D01*
X458690D01*
Y136929D01*
X459095D01*
Y136827D01*
X459400D01*
Y136726D01*
X459806D01*
Y136624D01*
X460212D01*
Y136523D01*
X460516D01*
Y136726D01*
X460415D01*
Y137030D01*
X460313D01*
Y137233D01*
X460212D01*
Y137538D01*
X460110D01*
Y137842D01*
X460009D01*
Y138248D01*
X459907D01*
Y138755D01*
X459806D01*
Y138857D01*
X459704D01*
Y138958D01*
X459298D01*
Y139060D01*
X458893D01*
Y139161D01*
X457472D01*
Y139263D01*
D02*
G37*
G36*
X447020Y140683D02*
X446208D01*
Y140582D01*
X445904D01*
Y140480D01*
X445802D01*
Y140379D01*
X445599D01*
Y140277D01*
X445498D01*
Y140176D01*
X445396D01*
Y140074D01*
X445295D01*
Y139973D01*
X445193D01*
Y139872D01*
X445092D01*
Y139770D01*
X444991D01*
Y139669D01*
X444889D01*
Y139466D01*
X444788D01*
Y139364D01*
X444686D01*
Y139161D01*
X444585D01*
Y139060D01*
X444483D01*
Y138857D01*
X444382D01*
Y138654D01*
X444280D01*
Y138552D01*
X444179D01*
Y138248D01*
X444077D01*
Y138045D01*
X444382D01*
Y137943D01*
X444788D01*
Y137842D01*
X445193D01*
Y137740D01*
X445498D01*
Y137639D01*
X445904D01*
Y137538D01*
X446208D01*
Y137436D01*
X446513D01*
Y137335D01*
X446817D01*
Y137233D01*
X447020D01*
Y137132D01*
X447223D01*
Y137030D01*
X447426D01*
Y136929D01*
X447629D01*
Y136827D01*
X447730D01*
Y136726D01*
X447933D01*
Y136624D01*
X448035D01*
Y136523D01*
X448238D01*
Y136421D01*
X448339D01*
Y136320D01*
X448441D01*
Y136218D01*
X448644D01*
Y136117D01*
X448745D01*
Y136016D01*
X448948D01*
Y135914D01*
X449049D01*
Y135813D01*
X449354D01*
Y135914D01*
X449455D01*
Y136117D01*
X449557D01*
Y136320D01*
X449658D01*
Y136827D01*
X449557D01*
Y137030D01*
X449455D01*
Y137233D01*
X449354D01*
Y137436D01*
X449252D01*
Y137639D01*
X449151D01*
Y137740D01*
Y137842D01*
X449049D01*
Y138045D01*
X448948D01*
Y138248D01*
X448847D01*
Y138451D01*
X448745D01*
Y138552D01*
X448644D01*
Y138755D01*
X448542D01*
Y138958D01*
X448441D01*
Y139060D01*
X448339D01*
Y139263D01*
X448238D01*
Y139364D01*
X448136D01*
Y139567D01*
X448035D01*
Y139669D01*
X447933D01*
Y139872D01*
X447832D01*
Y139973D01*
X447730D01*
Y140074D01*
X447629D01*
Y140176D01*
X447527D01*
Y140277D01*
X447426D01*
Y140379D01*
X447324D01*
Y140480D01*
X447223D01*
Y140582D01*
X447020D01*
Y140683D01*
D02*
G37*
G36*
X455341Y135102D02*
X454123D01*
Y135001D01*
X453311D01*
Y134899D01*
X452601D01*
Y134798D01*
X452094D01*
Y134696D01*
X451688D01*
Y134595D01*
X451180D01*
Y134493D01*
X451079D01*
Y134189D01*
X451180D01*
Y134087D01*
X451282D01*
Y133986D01*
X451383D01*
Y133884D01*
X451485D01*
Y133783D01*
X451586D01*
Y133681D01*
X451688D01*
Y133580D01*
X451789D01*
Y133479D01*
X451891D01*
Y133377D01*
X451992D01*
Y133276D01*
X452094D01*
Y133073D01*
X452195D01*
Y132971D01*
X452297D01*
Y132870D01*
X452398D01*
Y132768D01*
X452703D01*
Y132870D01*
X452804D01*
Y132971D01*
X452906D01*
Y133073D01*
X453007D01*
Y133174D01*
X453108D01*
Y133276D01*
X453210D01*
Y133377D01*
X453311D01*
Y133479D01*
X453413D01*
Y133580D01*
X453514D01*
Y133681D01*
X453616D01*
Y133783D01*
X453717D01*
Y133884D01*
X453920D01*
Y133986D01*
X454022D01*
Y134087D01*
X454123D01*
Y134189D01*
X454225D01*
Y134290D01*
X454428D01*
Y134392D01*
X454529D01*
Y134493D01*
X454631D01*
Y134595D01*
X454834D01*
Y134696D01*
X455037D01*
Y134798D01*
X455138D01*
Y134899D01*
X455341D01*
Y135102D01*
D02*
G37*
G36*
X444382Y137538D02*
X443874D01*
Y137436D01*
X443773D01*
Y137335D01*
X443671D01*
Y137233D01*
X443570D01*
Y137030D01*
X443468D01*
Y136929D01*
X443367D01*
Y136726D01*
X443265D01*
Y136523D01*
X443164D01*
Y136320D01*
X443063D01*
Y136117D01*
X442961D01*
Y135914D01*
X442859D01*
Y135610D01*
X442758D01*
Y135407D01*
X442657D01*
Y135102D01*
X442555D01*
Y134696D01*
X442454D01*
Y133681D01*
X442555D01*
Y133276D01*
X442657D01*
Y133174D01*
X443164D01*
Y133276D01*
X443468D01*
Y133377D01*
X443874D01*
Y133479D01*
X444280D01*
Y133580D01*
X446411D01*
Y133479D01*
X446817D01*
Y133377D01*
X447122D01*
Y133276D01*
X447426D01*
Y133174D01*
X447629D01*
Y133073D01*
X447933D01*
Y132971D01*
X448136D01*
Y132870D01*
X448441D01*
Y132768D01*
X448847D01*
Y132667D01*
X449861D01*
Y132565D01*
X450369D01*
Y132464D01*
X450775D01*
Y132362D01*
X451180D01*
Y132261D01*
X451485D01*
Y132159D01*
X451789D01*
Y132058D01*
X452297D01*
Y132159D01*
X452195D01*
Y132362D01*
X452094D01*
Y132464D01*
X451992D01*
Y132667D01*
X451891D01*
Y132768D01*
X451789D01*
Y132870D01*
X451688D01*
Y132971D01*
X451586D01*
Y133174D01*
X451485D01*
Y133276D01*
X451383D01*
Y133377D01*
X451282D01*
Y133479D01*
X451180D01*
Y133580D01*
X451079D01*
Y133681D01*
X450978D01*
Y133783D01*
X450876D01*
Y133884D01*
X450775D01*
Y133986D01*
X450572D01*
Y134087D01*
X450470D01*
Y134189D01*
X449861D01*
Y134087D01*
X449455D01*
Y133986D01*
X449049D01*
Y133884D01*
X448644D01*
Y133986D01*
Y134189D01*
X448745D01*
Y134493D01*
X448847D01*
Y134798D01*
X448948D01*
Y135102D01*
X449049D01*
Y135305D01*
X448948D01*
Y135407D01*
X448745D01*
Y135508D01*
X448644D01*
Y135610D01*
X448542D01*
Y135711D01*
X448441D01*
Y135813D01*
X448238D01*
Y135914D01*
X448136D01*
Y136016D01*
X448035D01*
Y136117D01*
X447832D01*
Y136218D01*
X447730D01*
Y136320D01*
X447527D01*
Y136421D01*
X447324D01*
Y136523D01*
X447223D01*
Y136624D01*
X447020D01*
Y136726D01*
X446716D01*
Y136827D01*
X446513D01*
Y136929D01*
X446310D01*
Y137030D01*
X446005D01*
Y137132D01*
X445599D01*
Y137233D01*
X445295D01*
Y137335D01*
X444889D01*
Y137436D01*
X444382D01*
Y137538D01*
D02*
G37*
G36*
X460618Y135204D02*
X457878D01*
Y135102D01*
X457269D01*
Y135001D01*
X456863D01*
Y134899D01*
X456457D01*
Y134798D01*
X456153D01*
Y134696D01*
X455848D01*
Y134595D01*
X455645D01*
Y134493D01*
X455442D01*
Y134392D01*
X455239D01*
Y134290D01*
X455037D01*
Y134189D01*
X454834D01*
Y134087D01*
X454732D01*
Y133986D01*
X454529D01*
Y133884D01*
X454428D01*
Y133783D01*
X454326D01*
Y133681D01*
X454123D01*
Y133580D01*
X454022D01*
Y133479D01*
X453920D01*
Y133377D01*
X453819D01*
Y133276D01*
X453717D01*
Y133174D01*
X453616D01*
Y133073D01*
X453514D01*
Y132870D01*
X453413D01*
Y132768D01*
X453311D01*
Y132667D01*
X453210D01*
Y132565D01*
Y132464D01*
X453108D01*
Y132362D01*
X453007D01*
Y132159D01*
X452906D01*
Y132058D01*
X452804D01*
Y131855D01*
X452703D01*
Y131551D01*
X452601D01*
Y131246D01*
X452500D01*
Y130840D01*
X452398D01*
Y130028D01*
X452297D01*
Y128202D01*
X452398D01*
Y128303D01*
X452601D01*
Y128405D01*
X452804D01*
Y128506D01*
X452906D01*
Y128608D01*
X453108D01*
Y128709D01*
X453210D01*
Y128811D01*
X453413D01*
Y128912D01*
X453514D01*
Y129014D01*
X453717D01*
Y129115D01*
X453819D01*
Y129217D01*
X454022D01*
Y129318D01*
X454225D01*
Y129420D01*
X454428D01*
Y129521D01*
X454631D01*
Y129622D01*
X454834D01*
Y129724D01*
X454935D01*
Y129825D01*
X455138D01*
Y129927D01*
X455341D01*
Y130028D01*
X455544D01*
Y130130D01*
X455747D01*
Y130231D01*
X456051D01*
Y130333D01*
X456254D01*
Y130434D01*
X456457D01*
Y130536D01*
X456660D01*
Y130637D01*
X456964D01*
Y130739D01*
X457168D01*
Y130840D01*
X457573D01*
Y130942D01*
X458081D01*
Y131043D01*
X458791D01*
Y131145D01*
X459603D01*
Y131043D01*
X460212D01*
Y130942D01*
X460719D01*
Y131145D01*
X460821D01*
Y131449D01*
X460922D01*
Y132058D01*
X461023D01*
Y133479D01*
X461125D01*
Y134392D01*
X461023D01*
Y135102D01*
X460618D01*
Y135204D01*
D02*
G37*
G36*
X446208Y133174D02*
X444585D01*
Y133073D01*
X443976D01*
Y132971D01*
X443671D01*
Y132870D01*
X443367D01*
Y132768D01*
X443063D01*
Y132667D01*
X442961D01*
Y132565D01*
X442859D01*
Y132464D01*
X442758D01*
Y132362D01*
X442657D01*
Y132159D01*
X442555D01*
Y131855D01*
X442454D01*
Y131348D01*
X442352D01*
Y130536D01*
X442454D01*
Y130231D01*
X442555D01*
Y130028D01*
X442657D01*
Y129927D01*
X442758D01*
Y129825D01*
X442859D01*
Y129724D01*
X442961D01*
Y129622D01*
X443063D01*
Y129521D01*
X443164D01*
Y129420D01*
X443367D01*
Y129318D01*
X443468D01*
Y129217D01*
X443773D01*
Y129115D01*
X443976D01*
Y129014D01*
X444382D01*
Y128912D01*
X444788D01*
Y128811D01*
X444991D01*
Y128912D01*
X445092D01*
Y129014D01*
X445193D01*
Y129115D01*
X445295D01*
Y129217D01*
X445396D01*
Y129318D01*
X445599D01*
Y129420D01*
X445701D01*
Y129521D01*
X445802D01*
Y129622D01*
X446005D01*
Y129724D01*
X446208D01*
Y129825D01*
X446513D01*
Y129927D01*
X447527D01*
Y129825D01*
X447933D01*
Y129724D01*
X448339D01*
Y129622D01*
X448644D01*
Y129521D01*
X448948D01*
Y129420D01*
X449252D01*
Y129318D01*
X450166D01*
Y129420D01*
X450470D01*
Y129521D01*
X450572D01*
Y129622D01*
X450470D01*
Y129825D01*
X450369D01*
Y130028D01*
X450267D01*
Y130130D01*
X450166D01*
Y130333D01*
X450064D01*
Y130434D01*
X449963D01*
Y130536D01*
X449861D01*
Y130739D01*
X449760D01*
Y130840D01*
X449658D01*
Y130942D01*
X449557D01*
Y131043D01*
X449455D01*
Y131145D01*
X449354D01*
Y131246D01*
X449252D01*
Y131348D01*
X449151D01*
Y131449D01*
X449049D01*
Y131551D01*
X448948D01*
Y131652D01*
X448847D01*
Y131754D01*
X448745D01*
Y131855D01*
X448644D01*
Y131957D01*
X448542D01*
Y132058D01*
X448441D01*
Y132159D01*
X448238D01*
Y132261D01*
X448136D01*
Y132362D01*
X447933D01*
Y132464D01*
X447832D01*
Y132565D01*
X447629D01*
Y132667D01*
X447426D01*
Y132768D01*
X447223D01*
Y132870D01*
X446918D01*
Y132971D01*
X446614D01*
Y133073D01*
X446208D01*
Y133174D01*
D02*
G37*
G36*
X447933Y129420D02*
X446411D01*
Y129318D01*
X446208D01*
Y129217D01*
X446005D01*
Y129115D01*
X445802D01*
Y129014D01*
X445701D01*
Y128912D01*
X445599D01*
Y128709D01*
X445498D01*
Y128608D01*
X446614D01*
Y128709D01*
X447020D01*
Y128811D01*
X447527D01*
Y128912D01*
X447933D01*
Y129014D01*
X448136D01*
Y129115D01*
X448238D01*
Y129217D01*
X448136D01*
Y129318D01*
X447933D01*
Y129420D01*
D02*
G37*
G36*
X459907Y130637D02*
X458182D01*
Y130536D01*
X457675D01*
Y130434D01*
X457370D01*
Y130333D01*
X457066D01*
Y130231D01*
X456762D01*
Y130130D01*
X456559D01*
Y130028D01*
X456254D01*
Y129927D01*
X456051D01*
Y129825D01*
X455848D01*
Y129724D01*
X455645D01*
Y129622D01*
X455442D01*
Y129521D01*
X455341D01*
Y129420D01*
X455239D01*
Y129318D01*
X455138D01*
Y129217D01*
X455037D01*
Y129115D01*
X454935D01*
Y129014D01*
X454834D01*
Y128709D01*
X454732D01*
Y128506D01*
X454631D01*
Y128100D01*
X454529D01*
Y127492D01*
X454631D01*
Y127187D01*
X454732D01*
Y126984D01*
X454834D01*
Y126781D01*
X454935D01*
Y126680D01*
X455037D01*
Y126578D01*
X455138D01*
Y126477D01*
X455341D01*
Y126578D01*
X455544D01*
Y126680D01*
X455645D01*
Y126781D01*
X455747D01*
Y126883D01*
X455950D01*
Y126984D01*
X456051D01*
Y127086D01*
X456356D01*
Y127187D01*
X456762D01*
Y127289D01*
X459907D01*
Y127898D01*
X458994D01*
Y127999D01*
X457472D01*
Y127898D01*
X456559D01*
Y127796D01*
X456153D01*
Y127695D01*
X455747D01*
Y127593D01*
X455442D01*
Y127492D01*
X455239D01*
Y127593D01*
X455341D01*
Y127695D01*
X455442D01*
Y127796D01*
X455544D01*
Y127898D01*
X455747D01*
Y127999D01*
X455848D01*
Y128100D01*
X456153D01*
Y128202D01*
X456457D01*
Y128303D01*
X456964D01*
Y128405D01*
X458487D01*
Y128303D01*
X459197D01*
Y128202D01*
X460009D01*
Y128405D01*
X460110D01*
Y128709D01*
X460212D01*
Y129115D01*
X460313D01*
Y129318D01*
Y129420D01*
Y129622D01*
X460415D01*
Y130434D01*
X460313D01*
Y130536D01*
X459907D01*
Y130637D01*
D02*
G37*
G36*
X481014Y114503D02*
X480913D01*
Y114401D01*
X480811D01*
Y114300D01*
X480710D01*
Y114198D01*
X480608D01*
Y114097D01*
X480405D01*
Y113996D01*
X480304D01*
Y113894D01*
X480202D01*
Y113792D01*
X480101D01*
Y113691D01*
X479898D01*
Y113590D01*
X479796D01*
Y113488D01*
X479695D01*
Y113387D01*
X479492D01*
Y113285D01*
X479390D01*
Y113184D01*
X479289D01*
Y113082D01*
X479188D01*
Y112981D01*
X478984D01*
Y112879D01*
X478883D01*
Y112778D01*
X478782D01*
Y112473D01*
X478680D01*
Y111662D01*
X478579D01*
Y109632D01*
X478477D01*
Y108414D01*
X478376D01*
Y107501D01*
X478274D01*
Y106994D01*
X478376D01*
Y106892D01*
X478477D01*
Y106791D01*
X478579D01*
Y106689D01*
X478782D01*
Y106588D01*
X478883D01*
Y106486D01*
X478984D01*
Y106385D01*
X479188D01*
Y106283D01*
X479289D01*
Y106182D01*
X479492D01*
Y106080D01*
X479695D01*
Y105979D01*
X479796D01*
Y105878D01*
X479999D01*
Y105776D01*
X480202D01*
Y105674D01*
X480405D01*
Y105573D01*
X480608D01*
Y105472D01*
X480913D01*
Y105370D01*
X481115D01*
Y105269D01*
X481318D01*
Y105167D01*
X481623D01*
Y105066D01*
X481826D01*
Y104964D01*
X482130D01*
Y104863D01*
X482536D01*
Y104761D01*
X482942D01*
Y104660D01*
X483449D01*
Y104558D01*
X484566D01*
Y104457D01*
X487305D01*
Y104558D01*
X487711D01*
Y104660D01*
X488117D01*
Y104761D01*
X488523D01*
Y104863D01*
X488828D01*
Y104964D01*
X489132D01*
Y105066D01*
X489538D01*
Y105167D01*
X489944D01*
Y105269D01*
X490248D01*
Y105370D01*
X490553D01*
Y105472D01*
X490959D01*
Y105573D01*
X491161D01*
Y105674D01*
X491466D01*
Y105776D01*
X491669D01*
Y105878D01*
X491872D01*
Y105979D01*
X492075D01*
Y106080D01*
X492176D01*
Y106182D01*
X492278D01*
Y106283D01*
X492481D01*
Y106385D01*
X492582D01*
Y106486D01*
X492684D01*
Y106588D01*
X492785D01*
Y106689D01*
X492887D01*
Y106791D01*
X492988D01*
Y106892D01*
X493089D01*
Y106994D01*
X493191D01*
Y107197D01*
X493293D01*
Y107298D01*
X493394D01*
Y107501D01*
X493495D01*
Y107704D01*
X493597D01*
Y108516D01*
X493495D01*
Y108617D01*
X493394D01*
Y108719D01*
X493191D01*
Y108820D01*
X492278D01*
Y108922D01*
X490654D01*
Y109023D01*
X488726D01*
Y109125D01*
X487508D01*
Y109226D01*
X487001D01*
Y109328D01*
X486697D01*
Y109429D01*
X486494D01*
Y109531D01*
X486189D01*
Y109632D01*
X485986D01*
Y109733D01*
X485783D01*
Y109835D01*
X485580D01*
Y109937D01*
X485377D01*
Y110038D01*
X485276D01*
Y110139D01*
X485073D01*
Y110241D01*
X484972D01*
Y110342D01*
X484769D01*
Y110444D01*
X484667D01*
Y110545D01*
X484566D01*
Y110647D01*
X484464D01*
Y110748D01*
X484363D01*
Y110850D01*
X484261D01*
Y110951D01*
X484160D01*
Y111053D01*
X484058D01*
Y111154D01*
X483957D01*
Y111256D01*
X483855D01*
Y111357D01*
X483652D01*
Y111459D01*
Y111560D01*
X483551D01*
Y111662D01*
X483449D01*
Y111763D01*
X483348D01*
Y111865D01*
X483246D01*
Y111966D01*
X483145D01*
Y112067D01*
X483044D01*
Y112169D01*
X482942D01*
Y112270D01*
X482841D01*
Y112372D01*
X482739D01*
Y112473D01*
X482638D01*
Y112575D01*
X482536D01*
Y112676D01*
X482435D01*
Y112778D01*
X482333D01*
Y112879D01*
X482232D01*
Y112981D01*
X482130D01*
Y113082D01*
X482029D01*
Y113184D01*
X481927D01*
Y113387D01*
X481826D01*
Y113488D01*
X481724D01*
Y113590D01*
X481623D01*
Y113691D01*
X481521D01*
Y113792D01*
X481420D01*
Y113996D01*
X481318D01*
Y114097D01*
X481217D01*
Y114300D01*
X481115D01*
Y114401D01*
X481014D01*
Y114503D01*
D02*
G37*
G36*
X464879Y110241D02*
X463459D01*
Y110139D01*
X462952D01*
Y110038D01*
X462241D01*
Y109937D01*
X461835D01*
Y109835D01*
X461734D01*
Y109632D01*
X461835D01*
Y109429D01*
X461937D01*
Y109328D01*
X462038D01*
Y109226D01*
X462140D01*
Y109125D01*
X462241D01*
Y108922D01*
X462343D01*
Y108820D01*
X462444D01*
Y108719D01*
X462546D01*
Y108617D01*
X462647D01*
Y108516D01*
X462749D01*
Y108313D01*
X462850D01*
Y108211D01*
X462952D01*
Y108110D01*
X463053D01*
Y108008D01*
X463154D01*
Y107907D01*
X463256D01*
Y107806D01*
X463357D01*
Y107704D01*
X463459D01*
Y107501D01*
X463560D01*
Y107400D01*
X463662D01*
Y107298D01*
X463763D01*
Y107095D01*
X463865D01*
Y106994D01*
X463966D01*
Y106892D01*
X464068D01*
Y106689D01*
X464169D01*
Y106385D01*
X464271D01*
Y105878D01*
X464372D01*
Y104863D01*
X464474D01*
Y103949D01*
X464575D01*
Y104051D01*
X464677D01*
Y104254D01*
X464778D01*
Y104457D01*
X464879D01*
Y104761D01*
X464981D01*
Y104964D01*
X465083D01*
Y105167D01*
X465184D01*
Y105472D01*
X465285D01*
Y105979D01*
X465387D01*
Y108110D01*
Y108211D01*
Y109531D01*
X465285D01*
Y110038D01*
X465184D01*
Y110139D01*
X464879D01*
Y110241D01*
D02*
G37*
G36*
X450267Y132159D02*
X449252D01*
Y132058D01*
X449354D01*
Y131957D01*
X449455D01*
Y131855D01*
X449557D01*
Y131652D01*
X449658D01*
Y131551D01*
X449760D01*
Y131449D01*
X449861D01*
Y131348D01*
X449963D01*
Y131145D01*
X450064D01*
Y131043D01*
X450166D01*
Y130942D01*
X450267D01*
Y130739D01*
X450369D01*
Y130637D01*
X450470D01*
Y130434D01*
X450572D01*
Y130333D01*
X450673D01*
Y130130D01*
X450775D01*
Y130028D01*
X450876D01*
Y129927D01*
X450978D01*
Y129724D01*
X451079D01*
Y129622D01*
X451180D01*
Y129420D01*
X451282D01*
Y129217D01*
X451383D01*
Y129115D01*
X451485D01*
Y128912D01*
X451586D01*
Y128608D01*
X451485D01*
Y128506D01*
X451383D01*
Y128405D01*
X451282D01*
Y128202D01*
X451180D01*
Y128100D01*
X451079D01*
Y127999D01*
X450978D01*
Y127898D01*
X450876D01*
Y127796D01*
X450673D01*
Y127695D01*
X450572D01*
Y127593D01*
X450470D01*
Y127492D01*
X450369D01*
Y127390D01*
X450166D01*
Y127289D01*
X450064D01*
Y127187D01*
X449861D01*
Y127086D01*
X449760D01*
Y126984D01*
X449557D01*
Y126883D01*
X449455D01*
Y126781D01*
X449252D01*
Y126680D01*
X449151D01*
Y126578D01*
X448948D01*
Y126477D01*
X448847D01*
Y126375D01*
X448644D01*
Y126274D01*
X448441D01*
Y126172D01*
X448339D01*
Y126071D01*
X448136D01*
Y125969D01*
X448035D01*
Y125868D01*
X447933D01*
Y125766D01*
X447832D01*
Y125665D01*
X447730D01*
Y125564D01*
X447629D01*
Y125462D01*
X447527D01*
Y124955D01*
X447629D01*
Y124752D01*
X447730D01*
Y124447D01*
X447832D01*
Y124143D01*
X447933D01*
Y123737D01*
X447832D01*
Y123331D01*
X447730D01*
Y123128D01*
X447629D01*
Y122925D01*
X447527D01*
Y122621D01*
X447426D01*
Y122418D01*
X447324D01*
Y122215D01*
X447223D01*
Y121910D01*
X447122D01*
Y121606D01*
X447020D01*
Y121302D01*
X446918D01*
Y120997D01*
X446817D01*
Y120693D01*
X446716D01*
Y120287D01*
X446614D01*
Y119983D01*
X446513D01*
Y119475D01*
X446411D01*
Y119069D01*
X446310D01*
Y118562D01*
X446208D01*
Y117851D01*
X446107D01*
Y116735D01*
X446005D01*
Y112778D01*
X446107D01*
Y111966D01*
X446208D01*
Y111357D01*
X446310D01*
Y110951D01*
X446411D01*
Y110444D01*
X446513D01*
Y110139D01*
X446614D01*
Y109835D01*
X446716D01*
Y109531D01*
X446817D01*
Y109226D01*
X446918D01*
Y108922D01*
X447020D01*
Y108719D01*
X447122D01*
Y108414D01*
X447223D01*
Y108211D01*
X447324D01*
Y107907D01*
X447426D01*
Y107704D01*
X447527D01*
Y107501D01*
X447629D01*
Y107298D01*
X447730D01*
Y107095D01*
X447832D01*
Y106892D01*
X447933D01*
Y106689D01*
X448035D01*
Y106486D01*
X448136D01*
Y106182D01*
X448238D01*
Y105979D01*
X448339D01*
Y105776D01*
X448441D01*
Y105472D01*
X448339D01*
Y105370D01*
X448035D01*
Y105269D01*
X447730D01*
Y105167D01*
X447527D01*
Y105066D01*
X447324D01*
Y104964D01*
X447122D01*
Y104863D01*
X446918D01*
Y104761D01*
X446817D01*
Y104660D01*
X446716D01*
Y104558D01*
X446614D01*
Y104355D01*
X446817D01*
Y104254D01*
X447122D01*
Y104152D01*
X447629D01*
Y104051D01*
X448035D01*
Y103949D01*
X448441D01*
Y103848D01*
X448948D01*
Y103747D01*
X449354D01*
Y103645D01*
X449760D01*
Y103544D01*
X450166D01*
Y103442D01*
X450572D01*
Y103341D01*
X450876D01*
Y103239D01*
X451079D01*
Y103138D01*
X451383D01*
Y103036D01*
X451586D01*
Y102935D01*
X451789D01*
Y102833D01*
X451992D01*
Y102732D01*
X452195D01*
Y102630D01*
X452297D01*
Y102529D01*
X452500D01*
Y102427D01*
X452601D01*
Y102326D01*
X452804D01*
Y102224D01*
X452906D01*
Y102123D01*
X453007D01*
Y102021D01*
X453210D01*
Y101920D01*
X453311D01*
Y101819D01*
X453413D01*
Y101717D01*
X453514D01*
Y101615D01*
X453616D01*
Y101514D01*
X453717D01*
Y101413D01*
X453819D01*
Y101311D01*
X453920D01*
Y101210D01*
X454123D01*
Y101108D01*
X454225D01*
Y101007D01*
X454326D01*
Y100905D01*
X454428D01*
Y100804D01*
X454529D01*
Y100702D01*
X454631D01*
Y100601D01*
X454834D01*
Y100499D01*
X454935D01*
Y100398D01*
X455037D01*
Y100296D01*
X455239D01*
Y100195D01*
X455341D01*
Y100093D01*
X455544D01*
Y99992D01*
X455747D01*
Y99890D01*
X455950D01*
Y99789D01*
X456051D01*
Y99688D01*
X456254D01*
Y99586D01*
X456457D01*
Y99485D01*
X456660D01*
Y99383D01*
X456863D01*
Y99282D01*
X457066D01*
Y99180D01*
X457269D01*
Y99079D01*
X457472D01*
Y98977D01*
X457573D01*
Y98876D01*
X457776D01*
Y98673D01*
X457269D01*
Y98774D01*
X456964D01*
Y98876D01*
X456762D01*
Y98977D01*
X456457D01*
Y99079D01*
X456254D01*
Y99180D01*
X456051D01*
Y99282D01*
X455848D01*
Y99383D01*
X455645D01*
Y99485D01*
X455442D01*
Y99586D01*
X455138D01*
Y98876D01*
X455037D01*
Y98470D01*
X454935D01*
Y98267D01*
X454834D01*
Y97963D01*
X454732D01*
Y97861D01*
X454834D01*
Y97760D01*
X455442D01*
Y97658D01*
X457269D01*
Y97760D01*
X457675D01*
Y97861D01*
X457878D01*
Y97963D01*
X457979D01*
Y98064D01*
X458081D01*
Y98165D01*
X458182D01*
Y98267D01*
X458284D01*
Y98470D01*
X458385D01*
Y98571D01*
X458487D01*
Y98774D01*
X458588D01*
Y98876D01*
X458690D01*
Y99079D01*
X458791D01*
Y99282D01*
X458893D01*
Y99383D01*
X458994D01*
Y99485D01*
X459095D01*
Y99688D01*
X459197D01*
Y99789D01*
X459298D01*
Y99890D01*
X459400D01*
Y99992D01*
X459501D01*
Y100093D01*
X459603D01*
Y100195D01*
X459704D01*
Y100296D01*
X459806D01*
Y100398D01*
X459907D01*
Y100499D01*
X460110D01*
Y100601D01*
X460212D01*
Y100702D01*
X460415D01*
Y100804D01*
X460516D01*
Y100905D01*
X460719D01*
Y101007D01*
X460922D01*
Y101108D01*
X461125D01*
Y101210D01*
X461328D01*
Y101311D01*
X461632D01*
Y101413D01*
X461937D01*
Y101514D01*
X462140D01*
Y101615D01*
X462343D01*
Y101717D01*
X462444D01*
Y101819D01*
X462546D01*
Y101920D01*
X462749D01*
Y102021D01*
X462850D01*
Y102123D01*
X462952D01*
Y102224D01*
X463053D01*
Y102326D01*
X463154D01*
Y102427D01*
X463256D01*
Y102529D01*
X463357D01*
Y102630D01*
X463459D01*
Y102732D01*
X463560D01*
Y102833D01*
X463662D01*
Y102935D01*
X463763D01*
Y103036D01*
X463865D01*
Y103138D01*
X463966D01*
Y104964D01*
X463865D01*
Y105979D01*
X463763D01*
Y106385D01*
X463662D01*
Y106588D01*
X463560D01*
Y106791D01*
X463459D01*
Y106892D01*
X463357D01*
Y107095D01*
X463256D01*
Y107197D01*
X463154D01*
Y107298D01*
X463053D01*
Y107501D01*
X462952D01*
Y107603D01*
X462850D01*
Y107704D01*
X462749D01*
Y107806D01*
X462647D01*
Y107907D01*
X462546D01*
Y108008D01*
X462444D01*
Y108110D01*
X462343D01*
Y108313D01*
X462241D01*
Y108414D01*
X462140D01*
Y108516D01*
X462038D01*
Y108617D01*
X461937D01*
Y108719D01*
X461835D01*
Y108922D01*
X461734D01*
Y109023D01*
X461632D01*
Y109125D01*
X461531D01*
Y109226D01*
X461429D01*
Y109429D01*
X461328D01*
Y109531D01*
X461227D01*
Y109733D01*
X458284D01*
Y109835D01*
X457979D01*
Y109937D01*
X457675D01*
Y110038D01*
X457370D01*
Y110139D01*
X457066D01*
Y110241D01*
X456863D01*
Y110342D01*
X456559D01*
Y110444D01*
X456254D01*
Y110545D01*
X456051D01*
Y110647D01*
X455747D01*
Y110748D01*
X455544D01*
Y110850D01*
X455341D01*
Y110951D01*
X455138D01*
Y111053D01*
X454935D01*
Y111154D01*
X454732D01*
Y111256D01*
X454631D01*
Y111357D01*
X454428D01*
Y111459D01*
X454225D01*
Y111560D01*
X454123D01*
Y111662D01*
X454022D01*
Y111763D01*
X453819D01*
Y111865D01*
X453717D01*
Y111966D01*
X453616D01*
Y112067D01*
X453514D01*
Y112169D01*
X453311D01*
Y112270D01*
X453210D01*
Y112372D01*
X453108D01*
Y112473D01*
X453007D01*
Y112575D01*
X452804D01*
Y112676D01*
X452703D01*
Y112778D01*
X452601D01*
Y112879D01*
X452500D01*
Y112981D01*
X452398D01*
Y113082D01*
X452297D01*
Y113184D01*
X452195D01*
Y113285D01*
X452094D01*
Y113387D01*
X451992D01*
Y113488D01*
X451891D01*
Y113590D01*
X451789D01*
Y113691D01*
X451688D01*
Y113792D01*
X451586D01*
Y113894D01*
X451485D01*
Y113996D01*
X451383D01*
Y114198D01*
X451282D01*
Y114300D01*
X451180D01*
Y114401D01*
X451079D01*
Y114604D01*
X450978D01*
Y114706D01*
X450876D01*
Y114909D01*
X450775D01*
Y115010D01*
X450673D01*
Y115112D01*
X450572D01*
Y115315D01*
X450470D01*
Y115518D01*
X450369D01*
Y115619D01*
X450267D01*
Y115822D01*
X450166D01*
Y116025D01*
X450064D01*
Y116126D01*
X449963D01*
Y116329D01*
X449861D01*
Y116532D01*
X449760D01*
Y116735D01*
X449658D01*
Y116938D01*
X449557D01*
Y117141D01*
X449455D01*
Y117344D01*
X449354D01*
Y117547D01*
X449252D01*
Y117750D01*
X449151D01*
Y118055D01*
X449049D01*
Y118257D01*
X448948D01*
Y118562D01*
X448847D01*
Y118765D01*
X448745D01*
Y119069D01*
X448644D01*
Y119374D01*
X448542D01*
Y119678D01*
X448441D01*
Y119983D01*
X448339D01*
Y120490D01*
X448238D01*
Y120997D01*
X448542D01*
Y120896D01*
X448644D01*
Y120693D01*
X448745D01*
Y120185D01*
X448847D01*
Y119881D01*
X448948D01*
Y119577D01*
X449049D01*
Y119272D01*
X449151D01*
Y118968D01*
X449252D01*
Y118765D01*
X449354D01*
Y118562D01*
X449455D01*
Y118257D01*
X449557D01*
Y118055D01*
X449658D01*
Y117851D01*
X449760D01*
Y117649D01*
X449861D01*
Y117446D01*
X449963D01*
Y117243D01*
X450064D01*
Y117040D01*
X450166D01*
Y116837D01*
X450267D01*
Y116634D01*
X450369D01*
Y116431D01*
X450470D01*
Y116228D01*
X450572D01*
Y116025D01*
X450673D01*
Y115924D01*
X450775D01*
Y115721D01*
X450876D01*
Y115518D01*
X450978D01*
Y115416D01*
X451079D01*
Y115213D01*
X451180D01*
Y115112D01*
X451282D01*
Y114909D01*
X451383D01*
Y114807D01*
X451485D01*
Y114706D01*
X451586D01*
Y114503D01*
X451688D01*
Y114401D01*
X451789D01*
Y114300D01*
X451891D01*
Y114198D01*
X451992D01*
Y114097D01*
X452094D01*
Y113996D01*
X452195D01*
Y113894D01*
X452297D01*
Y113792D01*
X452398D01*
Y113691D01*
X452500D01*
Y113488D01*
X452601D01*
Y113387D01*
X452804D01*
Y113285D01*
X452906D01*
Y113184D01*
X453007D01*
Y113082D01*
X453108D01*
Y112981D01*
X453210D01*
Y112879D01*
X453311D01*
Y112778D01*
X453413D01*
Y112676D01*
X453514D01*
Y112575D01*
X453717D01*
Y112473D01*
X453819D01*
Y112372D01*
X453920D01*
Y112270D01*
X454022D01*
Y112169D01*
X454225D01*
Y112067D01*
X454326D01*
Y111966D01*
X454529D01*
Y111865D01*
X454631D01*
Y111763D01*
X454834D01*
Y111662D01*
X454935D01*
Y111560D01*
X455138D01*
Y111459D01*
X455341D01*
Y111357D01*
X455544D01*
Y111256D01*
X455747D01*
Y111154D01*
X455950D01*
Y111053D01*
X456153D01*
Y110951D01*
X456457D01*
Y110850D01*
X456660D01*
Y110748D01*
X456964D01*
Y110647D01*
X457370D01*
Y110545D01*
X457675D01*
Y110444D01*
X458081D01*
Y110342D01*
X458487D01*
Y110241D01*
X459298D01*
Y110139D01*
X460110D01*
Y110241D01*
X461023D01*
Y110342D01*
X461835D01*
Y110444D01*
X462444D01*
Y110545D01*
X463256D01*
Y110647D01*
X464271D01*
Y110748D01*
X464677D01*
Y110647D01*
X465184D01*
Y110545D01*
X465285D01*
Y110444D01*
X465488D01*
Y110241D01*
X465590D01*
Y110038D01*
X465691D01*
Y109733D01*
X465793D01*
Y109226D01*
X465894D01*
Y106486D01*
X465793D01*
Y105878D01*
X465691D01*
Y105370D01*
X465590D01*
Y105066D01*
X465488D01*
Y104761D01*
X465387D01*
Y104558D01*
X465285D01*
Y104254D01*
X465184D01*
Y104051D01*
X465083D01*
Y103949D01*
X464981D01*
Y103747D01*
X464879D01*
Y103645D01*
X464778D01*
Y103442D01*
X464677D01*
Y103341D01*
X464575D01*
Y103239D01*
X464474D01*
Y103036D01*
X464372D01*
Y102935D01*
X464271D01*
Y102833D01*
X464169D01*
Y102732D01*
X464068D01*
Y102630D01*
X463966D01*
Y102529D01*
X463865D01*
Y102427D01*
X463763D01*
Y102326D01*
X463662D01*
Y102224D01*
X463560D01*
Y102123D01*
X463459D01*
Y102021D01*
X463357D01*
Y101920D01*
X463256D01*
Y101819D01*
X463154D01*
Y101717D01*
X463053D01*
Y101514D01*
X463154D01*
Y101413D01*
X464778D01*
Y101311D01*
X467924D01*
Y101210D01*
X468736D01*
Y101108D01*
X469446D01*
Y101007D01*
X470055D01*
Y100905D01*
X470664D01*
Y100804D01*
X471171D01*
Y100702D01*
X471678D01*
Y100601D01*
X472084D01*
Y100499D01*
X472490D01*
Y100398D01*
X472795D01*
Y100296D01*
X472998D01*
Y100195D01*
X473200D01*
Y100093D01*
X473403D01*
Y99992D01*
X473606D01*
Y99890D01*
X473809D01*
Y99789D01*
X473911D01*
Y99688D01*
X474012D01*
Y99586D01*
X474215D01*
Y99485D01*
X474317D01*
Y99383D01*
X474418D01*
Y99282D01*
X474520D01*
Y99180D01*
X474621D01*
Y99079D01*
X474723D01*
Y98977D01*
X474824D01*
Y98876D01*
X474925D01*
Y98774D01*
X475027D01*
Y98673D01*
X475129D01*
Y98571D01*
X475230D01*
Y98470D01*
X475331D01*
Y98267D01*
X475433D01*
Y98165D01*
X475534D01*
Y98064D01*
X475636D01*
Y97963D01*
X475737D01*
Y97760D01*
X475839D01*
Y97658D01*
X475940D01*
Y97556D01*
X476042D01*
Y97354D01*
X476143D01*
Y97252D01*
X476245D01*
Y97151D01*
X476448D01*
Y97049D01*
X476651D01*
Y96948D01*
X476955D01*
Y96846D01*
X477361D01*
Y96745D01*
X477868D01*
Y96846D01*
X477970D01*
Y96948D01*
X478071D01*
Y97049D01*
X478173D01*
Y97151D01*
X478274D01*
Y97252D01*
X478376D01*
Y97354D01*
X478477D01*
Y97556D01*
X478579D01*
Y97658D01*
X478680D01*
Y98165D01*
X478782D01*
Y98876D01*
X478680D01*
Y100195D01*
X478579D01*
Y100804D01*
X478477D01*
Y101210D01*
X478376D01*
Y101615D01*
X478274D01*
Y101920D01*
X478173D01*
Y102224D01*
X478071D01*
Y102529D01*
X477970D01*
Y102833D01*
X477868D01*
Y103138D01*
X477767D01*
Y103442D01*
X477665D01*
Y103747D01*
X477564D01*
Y104051D01*
X477462D01*
Y104355D01*
X477361D01*
Y104964D01*
X477462D01*
Y105573D01*
X477564D01*
Y106182D01*
X477665D01*
Y106892D01*
X477767D01*
Y107501D01*
X477868D01*
Y107603D01*
Y108211D01*
X477970D01*
Y109023D01*
X478071D01*
Y110241D01*
X478173D01*
Y112372D01*
X478274D01*
Y112981D01*
X478376D01*
Y113082D01*
X478477D01*
Y113184D01*
X478579D01*
Y113285D01*
X478782D01*
Y113387D01*
X478883D01*
Y113488D01*
X478984D01*
Y113590D01*
X479188D01*
Y113691D01*
X479289D01*
Y113792D01*
X479390D01*
Y113894D01*
X479593D01*
Y113996D01*
X479695D01*
Y114097D01*
X479796D01*
Y114198D01*
X479999D01*
Y114300D01*
X480101D01*
Y114401D01*
X480202D01*
Y114503D01*
X480304D01*
Y114604D01*
X480405D01*
Y114706D01*
X480608D01*
Y114807D01*
X480710D01*
Y114909D01*
X480811D01*
Y115010D01*
X480913D01*
Y115112D01*
X481014D01*
Y115213D01*
X481115D01*
Y115315D01*
X481217D01*
Y115416D01*
X481318D01*
Y115518D01*
X481420D01*
Y115619D01*
X481521D01*
Y115721D01*
X481623D01*
Y115822D01*
X481724D01*
Y115924D01*
X481826D01*
Y116025D01*
X481927D01*
Y116126D01*
X482029D01*
Y116228D01*
X482130D01*
Y116329D01*
X482232D01*
Y116431D01*
X482333D01*
Y116532D01*
X482435D01*
Y116634D01*
X482536D01*
Y116735D01*
X482638D01*
Y116837D01*
X482739D01*
Y117040D01*
X482841D01*
Y117141D01*
X482942D01*
Y117243D01*
X483044D01*
Y117344D01*
X483145D01*
Y117547D01*
X483246D01*
Y117649D01*
X483348D01*
Y117851D01*
X483449D01*
Y118055D01*
X483551D01*
Y118156D01*
X483652D01*
Y118359D01*
X483754D01*
Y118562D01*
X483855D01*
Y118765D01*
X483957D01*
Y118968D01*
X484058D01*
Y119171D01*
X484160D01*
Y119374D01*
X484261D01*
Y119577D01*
X484363D01*
Y119780D01*
X484464D01*
Y119983D01*
X484566D01*
Y120287D01*
X484667D01*
Y120997D01*
X484769D01*
Y123230D01*
X484667D01*
Y124346D01*
X484566D01*
Y124853D01*
X484464D01*
Y125259D01*
X484363D01*
Y125564D01*
X484261D01*
Y125868D01*
X484160D01*
Y126274D01*
X484058D01*
Y126578D01*
X483957D01*
Y126781D01*
X483855D01*
Y127086D01*
X483754D01*
Y127289D01*
X483652D01*
Y127593D01*
X483551D01*
Y127796D01*
X483449D01*
Y127999D01*
X483348D01*
Y128202D01*
X483246D01*
Y128506D01*
X483145D01*
Y128709D01*
X483044D01*
Y128912D01*
X482942D01*
Y129115D01*
X482841D01*
Y129318D01*
X482739D01*
Y129521D01*
X482638D01*
Y129724D01*
X482536D01*
Y129825D01*
X482435D01*
Y130028D01*
X482333D01*
Y130231D01*
X482232D01*
Y130434D01*
X482130D01*
Y130637D01*
X482029D01*
Y130739D01*
X481927D01*
Y130942D01*
X481826D01*
Y131043D01*
X481724D01*
Y131246D01*
X481623D01*
Y131348D01*
X481521D01*
Y131551D01*
X481217D01*
Y131449D01*
X481115D01*
Y131348D01*
X480913D01*
Y131246D01*
X480811D01*
Y131145D01*
X480710D01*
Y131043D01*
X480507D01*
Y130942D01*
X480405D01*
Y130840D01*
X480304D01*
Y130739D01*
X480202D01*
Y130637D01*
X480101D01*
Y130536D01*
X479898D01*
Y130434D01*
X479796D01*
Y130333D01*
X479695D01*
Y130231D01*
X479593D01*
Y130130D01*
X479492D01*
Y130028D01*
X479390D01*
Y129927D01*
X479289D01*
Y129825D01*
X479188D01*
Y129724D01*
X479086D01*
Y129622D01*
X478984D01*
Y129420D01*
X478883D01*
Y129318D01*
X478782D01*
Y129115D01*
X478680D01*
Y128709D01*
X478579D01*
Y128405D01*
X478477D01*
Y128202D01*
X478376D01*
Y127999D01*
X478274D01*
Y127796D01*
X478173D01*
Y127695D01*
X478071D01*
Y127492D01*
X477970D01*
Y127390D01*
X477868D01*
Y127289D01*
X477767D01*
Y127187D01*
X477665D01*
Y127086D01*
X477564D01*
Y126984D01*
X477462D01*
Y126781D01*
X477361D01*
Y126680D01*
X477259D01*
Y126578D01*
X477158D01*
Y126477D01*
X477057D01*
Y126375D01*
X476955D01*
Y126274D01*
X476854D01*
Y126172D01*
X476752D01*
Y126071D01*
X476651D01*
Y125969D01*
X476549D01*
Y125868D01*
X476448D01*
Y125766D01*
X476346D01*
Y125665D01*
X476245D01*
Y125564D01*
X476143D01*
Y125462D01*
X476042D01*
Y125361D01*
X475940D01*
Y125259D01*
X475839D01*
Y125158D01*
X475737D01*
Y125056D01*
X475636D01*
Y124955D01*
X475534D01*
Y124853D01*
X475433D01*
Y124752D01*
X475331D01*
Y124650D01*
X475230D01*
Y124549D01*
X475129D01*
Y124447D01*
X475027D01*
Y124346D01*
X474925D01*
Y124244D01*
X474824D01*
Y124143D01*
X474621D01*
Y124042D01*
X474520D01*
Y123940D01*
X474418D01*
Y123839D01*
X474317D01*
Y123737D01*
X474114D01*
Y123636D01*
X474012D01*
Y123534D01*
X473911D01*
Y123433D01*
X473809D01*
Y123331D01*
X473606D01*
Y123230D01*
X473505D01*
Y123128D01*
X473302D01*
Y123027D01*
X473200D01*
Y122925D01*
X472998D01*
Y122824D01*
X472896D01*
Y122722D01*
X472693D01*
Y122621D01*
X472490D01*
Y122519D01*
X472287D01*
Y122418D01*
X472084D01*
Y122316D01*
X471881D01*
Y122215D01*
X471577D01*
Y122113D01*
X471272D01*
Y122012D01*
X470968D01*
Y121910D01*
X470664D01*
Y121809D01*
X470258D01*
Y121707D01*
X469750D01*
Y121606D01*
X468837D01*
Y121505D01*
X467822D01*
Y121606D01*
X466503D01*
Y121707D01*
X466097D01*
Y121809D01*
X465793D01*
Y121910D01*
X465488D01*
Y122012D01*
X465184D01*
Y122113D01*
X464981D01*
Y122215D01*
X464778D01*
Y122316D01*
X464575D01*
Y122418D01*
X464372D01*
Y122519D01*
X464169D01*
Y122621D01*
X463966D01*
Y122722D01*
X463763D01*
Y122824D01*
X463560D01*
Y122925D01*
X463459D01*
Y123027D01*
X463256D01*
Y123128D01*
X463053D01*
Y123230D01*
X462952D01*
Y123331D01*
X462749D01*
Y123433D01*
X462647D01*
Y123534D01*
X462444D01*
Y123636D01*
X462343D01*
Y123737D01*
X462241D01*
Y123839D01*
X462140D01*
Y123940D01*
X461937D01*
Y124042D01*
X461835D01*
Y124143D01*
X461734D01*
Y124244D01*
X461632D01*
Y124346D01*
X461531D01*
Y124447D01*
X461429D01*
Y124549D01*
X461328D01*
Y124650D01*
X461227D01*
Y124752D01*
X461125D01*
Y124853D01*
X461023D01*
Y124955D01*
X460922D01*
Y125056D01*
X460821D01*
Y125158D01*
X460719D01*
Y125259D01*
X460618D01*
Y125361D01*
X460516D01*
Y125462D01*
X460415D01*
Y125564D01*
X460313D01*
Y125766D01*
X460212D01*
Y125969D01*
X460110D01*
Y126172D01*
X460009D01*
Y126375D01*
X459907D01*
Y126578D01*
X459806D01*
Y126680D01*
X459704D01*
Y126781D01*
X459501D01*
Y126883D01*
X456964D01*
Y126781D01*
X456559D01*
Y126680D01*
X456254D01*
Y126578D01*
X456153D01*
Y126477D01*
X456051D01*
Y126375D01*
X455950D01*
Y126274D01*
X455848D01*
Y126172D01*
X455747D01*
Y126071D01*
X455645D01*
Y125969D01*
X455544D01*
Y125868D01*
X455442D01*
Y125969D01*
X455239D01*
Y126071D01*
X455037D01*
Y126172D01*
X454834D01*
Y126274D01*
X454732D01*
Y126375D01*
X454631D01*
Y126477D01*
X454529D01*
Y126578D01*
X454428D01*
Y126781D01*
X454326D01*
Y126984D01*
X454225D01*
Y127187D01*
X454123D01*
Y127492D01*
X454022D01*
Y127898D01*
X454123D01*
Y128405D01*
X454225D01*
Y128811D01*
X454022D01*
Y128709D01*
X453920D01*
Y128608D01*
X453717D01*
Y128506D01*
X453616D01*
Y128405D01*
X453413D01*
Y128303D01*
X453311D01*
Y128202D01*
X453210D01*
Y128100D01*
X453007D01*
Y127999D01*
X452906D01*
Y127898D01*
X452703D01*
Y127796D01*
X452601D01*
Y127695D01*
X452398D01*
Y127593D01*
X452297D01*
Y127492D01*
X452094D01*
Y127390D01*
X451891D01*
Y127796D01*
X451789D01*
Y129825D01*
X451891D01*
Y130840D01*
X451992D01*
Y131348D01*
X451891D01*
Y131449D01*
X451789D01*
Y131551D01*
X451688D01*
Y131652D01*
X451485D01*
Y131754D01*
X451180D01*
Y131855D01*
X450978D01*
Y131957D01*
X450673D01*
Y132058D01*
X450267D01*
Y132159D01*
D02*
G37*
G36*
X450470Y102935D02*
X449861D01*
Y102833D01*
X449354D01*
Y102732D01*
X448948D01*
Y102630D01*
X448644D01*
Y102529D01*
X448339D01*
Y102427D01*
X448136D01*
Y102326D01*
X447832D01*
Y102224D01*
X447629D01*
Y102123D01*
X447426D01*
Y102021D01*
X447324D01*
Y101920D01*
X447122D01*
Y101819D01*
X446918D01*
Y101717D01*
X446817D01*
Y101615D01*
X446614D01*
Y101514D01*
X446513D01*
Y101413D01*
X446310D01*
Y101311D01*
X446208D01*
Y101210D01*
X446107D01*
Y101108D01*
X446005D01*
Y101007D01*
X445802D01*
Y100905D01*
X445701D01*
Y100804D01*
X445599D01*
Y100702D01*
X445498D01*
Y100601D01*
X445396D01*
Y100499D01*
X445295D01*
Y100398D01*
X445193D01*
Y100296D01*
X445092D01*
Y100195D01*
X444991D01*
Y100093D01*
X444889D01*
Y99890D01*
X444788D01*
Y99789D01*
X444686D01*
Y99688D01*
X444585D01*
Y99586D01*
X444483D01*
Y99383D01*
X444382D01*
Y99282D01*
X444280D01*
Y99180D01*
X444179D01*
Y98977D01*
X444077D01*
Y98876D01*
X443976D01*
Y98673D01*
X443874D01*
Y98571D01*
X443773D01*
Y98368D01*
X443671D01*
Y98165D01*
X443570D01*
Y98064D01*
X443468D01*
Y97861D01*
X443367D01*
Y97658D01*
X443265D01*
Y97455D01*
X443164D01*
Y97252D01*
X443063D01*
Y96948D01*
X442961D01*
Y96745D01*
X442859D01*
Y96542D01*
X442758D01*
Y96339D01*
X443164D01*
Y96440D01*
X443468D01*
Y96542D01*
X443773D01*
Y96643D01*
X444179D01*
Y96745D01*
X444483D01*
Y96846D01*
X444889D01*
Y96948D01*
X445193D01*
Y97049D01*
X445599D01*
Y97151D01*
X446005D01*
Y97252D01*
X446411D01*
Y97354D01*
X446817D01*
Y97455D01*
X447223D01*
Y97556D01*
X447832D01*
Y97658D01*
X448238D01*
Y97760D01*
X448948D01*
Y97861D01*
X449658D01*
Y97963D01*
X450673D01*
Y98064D01*
X454123D01*
Y98165D01*
X454326D01*
Y98267D01*
X454428D01*
Y98470D01*
X454529D01*
Y98571D01*
X454631D01*
Y98876D01*
X454732D01*
Y99586D01*
X454631D01*
Y99789D01*
X454529D01*
Y99992D01*
X454428D01*
Y100093D01*
X454326D01*
Y100195D01*
X454225D01*
Y100398D01*
X454123D01*
Y100499D01*
X454022D01*
Y100601D01*
X453920D01*
Y100702D01*
X453819D01*
Y100804D01*
X453717D01*
Y100905D01*
X453616D01*
Y101007D01*
X453514D01*
Y101108D01*
X453413D01*
Y101210D01*
X453311D01*
Y101311D01*
X453210D01*
Y101413D01*
X453108D01*
Y101514D01*
X452906D01*
Y101615D01*
X452804D01*
Y101717D01*
X452703D01*
Y101819D01*
X452601D01*
Y101920D01*
X452398D01*
Y102021D01*
X452297D01*
Y102123D01*
X452094D01*
Y102224D01*
X451992D01*
Y102326D01*
X451789D01*
Y102427D01*
X451586D01*
Y102529D01*
X451383D01*
Y102630D01*
X451180D01*
Y102732D01*
X450876D01*
Y102833D01*
X450470D01*
Y102935D01*
D02*
G37*
G36*
X446005Y104051D02*
X445599D01*
Y103949D01*
X445092D01*
Y103848D01*
X444686D01*
Y103747D01*
X444280D01*
Y103645D01*
X443976D01*
Y103544D01*
X443570D01*
Y103442D01*
X443367D01*
Y103341D01*
X443063D01*
Y103239D01*
X442961D01*
Y103138D01*
X442758D01*
Y103036D01*
X442657D01*
Y102935D01*
X442454D01*
Y102833D01*
X442352D01*
Y102732D01*
X442251D01*
Y102630D01*
X442149D01*
Y102529D01*
X442048D01*
Y102427D01*
X441946D01*
Y102326D01*
X441845D01*
Y102224D01*
X441743D01*
Y102123D01*
X441642D01*
Y101920D01*
X441540D01*
Y101819D01*
X441439D01*
Y101615D01*
X441337D01*
Y101413D01*
X441236D01*
Y101108D01*
X441134D01*
Y100804D01*
X441033D01*
Y100296D01*
X440932D01*
Y99282D01*
Y99180D01*
Y98673D01*
X441033D01*
Y98267D01*
X441134D01*
Y97963D01*
X441236D01*
Y97658D01*
X441337D01*
Y97455D01*
X441439D01*
Y97252D01*
X441540D01*
Y97049D01*
X441642D01*
Y96846D01*
X441743D01*
Y96745D01*
X441845D01*
Y96643D01*
X441946D01*
Y96542D01*
X442048D01*
Y96339D01*
X442251D01*
Y96542D01*
X442352D01*
Y96745D01*
X442454D01*
Y96948D01*
X442555D01*
Y97252D01*
X442657D01*
Y97455D01*
X442758D01*
Y97658D01*
X442859D01*
Y97861D01*
X442961D01*
Y97963D01*
X443063D01*
Y98165D01*
X443164D01*
Y98368D01*
X443265D01*
Y98571D01*
X443367D01*
Y98673D01*
X443468D01*
Y98876D01*
X443570D01*
Y98977D01*
X443671D01*
Y99180D01*
X443773D01*
Y99282D01*
X443874D01*
Y99485D01*
X443976D01*
Y99586D01*
X444077D01*
Y99688D01*
X444179D01*
Y99890D01*
X444280D01*
Y99992D01*
X444382D01*
Y100093D01*
X444483D01*
Y100195D01*
X444585D01*
Y100296D01*
X444686D01*
Y100499D01*
X444788D01*
Y100601D01*
X444889D01*
Y100702D01*
X444991D01*
Y100804D01*
X445092D01*
Y100905D01*
X445193D01*
Y101007D01*
X445295D01*
Y101108D01*
X445396D01*
Y101210D01*
X445498D01*
Y101311D01*
X445599D01*
Y101413D01*
X445802D01*
Y101514D01*
X445904D01*
Y101615D01*
X446005D01*
Y101717D01*
X446107D01*
Y101819D01*
X446310D01*
Y101920D01*
X446411D01*
Y102021D01*
X446513D01*
Y102123D01*
X446716D01*
Y102224D01*
X446918D01*
Y102326D01*
X447020D01*
Y102427D01*
X447223D01*
Y102529D01*
X447426D01*
Y102630D01*
X447730D01*
Y102732D01*
X447933D01*
Y102833D01*
X448136D01*
Y102935D01*
X448441D01*
Y103036D01*
X448644D01*
Y103138D01*
X448847D01*
Y103239D01*
X449049D01*
Y103341D01*
X448745D01*
Y103442D01*
X448238D01*
Y103544D01*
X447730D01*
Y103645D01*
X447324D01*
Y103747D01*
X446918D01*
Y103848D01*
X446411D01*
Y103949D01*
X446005D01*
Y104051D01*
D02*
G37*
G36*
X474215Y98977D02*
X474114D01*
Y98165D01*
X474215D01*
Y97354D01*
X474114D01*
Y97049D01*
X474012D01*
Y96846D01*
X473911D01*
Y96745D01*
X473809D01*
Y96542D01*
X473708D01*
Y96440D01*
X473606D01*
Y96339D01*
X473505D01*
Y96237D01*
X473403D01*
Y96034D01*
X474317D01*
Y96136D01*
X475737D01*
Y96237D01*
X476448D01*
Y96339D01*
X476752D01*
Y96440D01*
X476651D01*
Y96542D01*
X476448D01*
Y96643D01*
X476245D01*
Y96745D01*
X476042D01*
Y96846D01*
X475940D01*
Y96948D01*
X475839D01*
Y97049D01*
X475737D01*
Y97151D01*
X475636D01*
Y97252D01*
X475534D01*
Y97455D01*
X475433D01*
Y97556D01*
X475331D01*
Y97658D01*
X475230D01*
Y97861D01*
X475129D01*
Y97963D01*
X475027D01*
Y98064D01*
X474925D01*
Y98165D01*
X474824D01*
Y98368D01*
X474723D01*
Y98470D01*
X474621D01*
Y98571D01*
X474520D01*
Y98673D01*
X474418D01*
Y98774D01*
X474317D01*
Y98876D01*
X474215D01*
Y98977D01*
D02*
G37*
G36*
X470968Y100398D02*
X470055D01*
Y100296D01*
X469750D01*
Y100195D01*
X469649D01*
Y100093D01*
X469446D01*
Y99992D01*
X469243D01*
Y99890D01*
X469040D01*
Y99789D01*
X468837D01*
Y99688D01*
X468736D01*
Y99586D01*
X468634D01*
Y99485D01*
X468431D01*
Y99383D01*
X468330D01*
Y99282D01*
X468228D01*
Y99180D01*
X468025D01*
Y99079D01*
X467924D01*
Y98977D01*
X467822D01*
Y98876D01*
X467721D01*
Y98774D01*
X467619D01*
Y98673D01*
X467518D01*
Y98571D01*
X467416D01*
Y98470D01*
X467315D01*
Y98368D01*
X467214D01*
Y98267D01*
X467112D01*
Y98165D01*
X467010D01*
Y97963D01*
X466909D01*
Y97861D01*
X466808D01*
Y97760D01*
X466706D01*
Y97658D01*
X466605D01*
Y97455D01*
X466503D01*
Y97354D01*
X466402D01*
Y97252D01*
X466300D01*
Y97049D01*
X466199D01*
Y96948D01*
X466097D01*
Y96745D01*
X465996D01*
Y96643D01*
X465894D01*
Y96440D01*
X465793D01*
Y96237D01*
X465691D01*
Y96136D01*
X465590D01*
Y95933D01*
X465488D01*
Y95831D01*
Y95730D01*
X465387D01*
Y95527D01*
X465285D01*
Y95324D01*
X465184D01*
Y95121D01*
X465083D01*
Y94817D01*
X466300D01*
Y94918D01*
X467214D01*
Y95020D01*
X467924D01*
Y95121D01*
X468634D01*
Y95223D01*
X469344D01*
Y95324D01*
X469953D01*
Y95426D01*
X470562D01*
Y95527D01*
X471069D01*
Y95628D01*
X471475D01*
Y95730D01*
X471881D01*
Y95831D01*
X472186D01*
Y95933D01*
X472389D01*
Y96034D01*
X472592D01*
Y96136D01*
X472693D01*
Y96237D01*
X472795D01*
Y96339D01*
X472998D01*
Y96440D01*
X473099D01*
Y96542D01*
X473200D01*
Y96643D01*
X473302D01*
Y96745D01*
X473403D01*
Y96948D01*
X473505D01*
Y97049D01*
X473606D01*
Y97151D01*
X473708D01*
Y97252D01*
X473809D01*
Y97455D01*
X473708D01*
Y98368D01*
X473606D01*
Y98977D01*
X473505D01*
Y99282D01*
X473403D01*
Y99485D01*
X473302D01*
Y99586D01*
X473200D01*
Y99688D01*
X473099D01*
Y99789D01*
X472896D01*
Y99890D01*
X472693D01*
Y99992D01*
X472389D01*
Y100093D01*
X471983D01*
Y100195D01*
X471475D01*
Y100296D01*
X470968D01*
Y100398D01*
D02*
G37*
G36*
X465488Y101007D02*
X464778D01*
Y100905D01*
X464677D01*
Y100804D01*
X464474D01*
Y100702D01*
X464372D01*
Y100601D01*
X464169D01*
Y100499D01*
X464068D01*
Y100398D01*
X463865D01*
Y100296D01*
X463763D01*
Y100195D01*
X463662D01*
Y100093D01*
X463459D01*
Y99992D01*
X463357D01*
Y99890D01*
X463256D01*
Y99789D01*
X463154D01*
Y99688D01*
X463053D01*
Y99586D01*
X462952D01*
Y99485D01*
X462850D01*
Y99282D01*
X462749D01*
Y99180D01*
X462647D01*
Y99079D01*
X462546D01*
Y98977D01*
X462444D01*
Y98774D01*
X462343D01*
Y98673D01*
X462241D01*
Y98470D01*
X462140D01*
Y98368D01*
X462038D01*
Y98165D01*
X461937D01*
Y97963D01*
X461835D01*
Y97760D01*
X461734D01*
Y97556D01*
X461632D01*
Y97354D01*
X461531D01*
Y97151D01*
X461429D01*
Y96846D01*
X461328D01*
Y96542D01*
X461227D01*
Y96237D01*
X461125D01*
Y95933D01*
X461023D01*
Y95527D01*
X460922D01*
Y95121D01*
X460821D01*
Y94614D01*
X460719D01*
Y94106D01*
X460618D01*
Y93904D01*
X461328D01*
Y94005D01*
X461835D01*
Y94106D01*
X462241D01*
Y94208D01*
X462850D01*
Y94309D01*
X463256D01*
Y94411D01*
X463662D01*
Y94512D01*
X464169D01*
Y94614D01*
X464372D01*
Y94715D01*
X464474D01*
Y94918D01*
X464575D01*
Y95121D01*
X464677D01*
Y95324D01*
X464778D01*
Y95527D01*
X464879D01*
Y95730D01*
X464981D01*
Y95933D01*
X465083D01*
Y96136D01*
X465184D01*
Y96339D01*
X465285D01*
Y96440D01*
X465387D01*
Y96643D01*
X465488D01*
Y96846D01*
X465590D01*
Y97049D01*
X465691D01*
Y97151D01*
X465793D01*
Y97354D01*
X465894D01*
Y97455D01*
X465996D01*
Y97658D01*
X466097D01*
Y97760D01*
X466199D01*
Y97861D01*
X466300D01*
Y98064D01*
X466402D01*
Y98165D01*
X466503D01*
Y98267D01*
X466605D01*
Y98368D01*
X466706D01*
Y98470D01*
X466808D01*
Y98571D01*
X466909D01*
Y98673D01*
X467010D01*
Y98774D01*
X467112D01*
Y98876D01*
X467214D01*
Y98977D01*
X467315D01*
Y99079D01*
X467416D01*
Y99180D01*
X467518D01*
Y99282D01*
X467619D01*
Y99383D01*
X467721D01*
Y99485D01*
X467822D01*
Y99586D01*
X468025D01*
Y99688D01*
X468127D01*
Y99789D01*
X468228D01*
Y99890D01*
X468330D01*
Y99992D01*
X468533D01*
Y100093D01*
X468634D01*
Y100195D01*
X468837D01*
Y100296D01*
X468938D01*
Y100398D01*
X469040D01*
Y100499D01*
X469142D01*
Y100601D01*
X468938D01*
Y100702D01*
X468330D01*
Y100804D01*
X467315D01*
Y100905D01*
X465488D01*
Y101007D01*
D02*
G37*
G36*
X462952D02*
X461835D01*
Y100905D01*
X461531D01*
Y100804D01*
X461328D01*
Y100702D01*
X461125D01*
Y100601D01*
X460922D01*
Y100499D01*
X460719D01*
Y100398D01*
X460618D01*
Y100296D01*
X460415D01*
Y100195D01*
X460313D01*
Y100093D01*
X460212D01*
Y99992D01*
X460110D01*
Y99890D01*
X460009D01*
Y99789D01*
X459907D01*
Y99688D01*
X459806D01*
Y99586D01*
X459704D01*
Y99485D01*
X459603D01*
Y99383D01*
X459501D01*
Y99282D01*
X459400D01*
Y99180D01*
X459298D01*
Y99079D01*
X459197D01*
Y98876D01*
X459095D01*
Y98673D01*
X458994D01*
Y98571D01*
X458893D01*
Y98267D01*
X458791D01*
Y97963D01*
X458690D01*
Y95831D01*
X458791D01*
Y95426D01*
X458893D01*
Y95121D01*
X458994D01*
Y94918D01*
X459095D01*
Y94817D01*
X459197D01*
Y94614D01*
X459298D01*
Y94512D01*
X459400D01*
Y94411D01*
X459501D01*
Y94208D01*
X459603D01*
Y94106D01*
X459704D01*
Y94005D01*
X459806D01*
Y93904D01*
X460009D01*
Y93802D01*
X460110D01*
Y94005D01*
X460212D01*
Y94309D01*
X460313D01*
Y94817D01*
X460415D01*
Y95324D01*
X460516D01*
Y95730D01*
X460618D01*
Y96136D01*
X460719D01*
Y96440D01*
X460821D01*
Y96745D01*
X460922D01*
Y97049D01*
X461023D01*
Y97252D01*
X461125D01*
Y97455D01*
X461227D01*
Y97760D01*
X461328D01*
Y97963D01*
X461429D01*
Y98165D01*
X461531D01*
Y98267D01*
X461632D01*
Y98470D01*
X461734D01*
Y98673D01*
X461835D01*
Y98774D01*
X461937D01*
Y98977D01*
X462038D01*
Y99079D01*
X462140D01*
Y99282D01*
X462241D01*
Y99383D01*
X462343D01*
Y99485D01*
X462444D01*
Y99688D01*
X462546D01*
Y99789D01*
X462647D01*
Y99890D01*
X462749D01*
Y99992D01*
X462850D01*
Y100093D01*
X462952D01*
Y100195D01*
X463053D01*
Y100296D01*
X463154D01*
Y100398D01*
X463256D01*
Y100499D01*
X463357D01*
Y100601D01*
X463459D01*
Y100702D01*
X463560D01*
Y100804D01*
X463357D01*
Y100905D01*
X462952D01*
Y101007D01*
D02*
G37*
%LPD*%
G36*
X451485Y179650D02*
X451891D01*
Y179548D01*
X452094D01*
Y179447D01*
X452297D01*
Y179244D01*
X452398D01*
Y179142D01*
X452500D01*
Y178939D01*
X452601D01*
Y178533D01*
X452703D01*
Y177620D01*
X452601D01*
Y177316D01*
X452500D01*
Y177113D01*
X452398D01*
Y177011D01*
X452297D01*
Y176910D01*
X452195D01*
Y176808D01*
X451992D01*
Y176707D01*
X451789D01*
Y176605D01*
X451383D01*
Y176504D01*
X450775D01*
Y176402D01*
X449658D01*
Y176301D01*
X448542D01*
Y176199D01*
X447832D01*
Y176098D01*
X447122D01*
Y175996D01*
X446716D01*
Y175895D01*
X446310D01*
Y175794D01*
X446107D01*
Y175489D01*
X446005D01*
Y174880D01*
X445904D01*
Y174576D01*
X445802D01*
Y174373D01*
X445701D01*
Y174170D01*
X445599D01*
Y174069D01*
X445498D01*
Y173967D01*
X445295D01*
Y173866D01*
X445193D01*
Y173764D01*
X444991D01*
Y173663D01*
X444889D01*
Y173561D01*
X444686D01*
Y173460D01*
X444483D01*
Y173358D01*
X444280D01*
Y173257D01*
X443976D01*
Y173155D01*
X443773D01*
Y173054D01*
X443570D01*
Y172952D01*
X443367D01*
Y172851D01*
X443063D01*
Y172749D01*
X442149D01*
Y172851D01*
X441845D01*
Y172952D01*
X441642D01*
Y173054D01*
X441439D01*
Y173155D01*
X441337D01*
Y173257D01*
X441236D01*
Y173358D01*
X441134D01*
Y173460D01*
X441033D01*
Y173561D01*
X440932D01*
Y173663D01*
X440830D01*
Y173764D01*
X440729D01*
Y173866D01*
X440627D01*
Y173967D01*
X440526D01*
Y174069D01*
X440424D01*
Y174170D01*
X440323D01*
Y174373D01*
X440221D01*
Y174474D01*
X440120D01*
Y174576D01*
X440018D01*
Y174677D01*
X439612D01*
Y174576D01*
X439308D01*
Y174474D01*
X439105D01*
Y174373D01*
X439003D01*
Y174271D01*
X438801D01*
Y174170D01*
X438598D01*
Y174069D01*
X438496D01*
Y173967D01*
X438293D01*
Y173866D01*
X438090D01*
Y173764D01*
X437989D01*
Y173663D01*
X437786D01*
Y173561D01*
X437278D01*
Y173663D01*
X437076D01*
Y173764D01*
X436974D01*
Y173866D01*
X436872D01*
Y173967D01*
X436771D01*
Y174069D01*
X436670D01*
Y174271D01*
X436568D01*
Y174373D01*
X436467D01*
Y174576D01*
X436365D01*
Y174779D01*
X436264D01*
Y174982D01*
X436162D01*
Y175794D01*
X436264D01*
Y175895D01*
X436365D01*
Y175996D01*
X436568D01*
Y176098D01*
X437583D01*
Y175996D01*
X438192D01*
Y175895D01*
X439003D01*
Y175794D01*
X441439D01*
Y175895D01*
X441946D01*
Y175996D01*
X442352D01*
Y176098D01*
X442758D01*
Y176199D01*
X443063D01*
Y176301D01*
X443367D01*
Y176402D01*
X443570D01*
Y176504D01*
X443773D01*
Y176605D01*
X443976D01*
Y176707D01*
X444280D01*
Y176808D01*
X444483D01*
Y176910D01*
X444686D01*
Y177011D01*
X444889D01*
Y177113D01*
X445092D01*
Y177214D01*
X445193D01*
Y177316D01*
X445396D01*
Y177417D01*
X445599D01*
Y177519D01*
X445802D01*
Y177620D01*
X446005D01*
Y177722D01*
X446107D01*
Y177823D01*
X446310D01*
Y177924D01*
X446513D01*
Y178026D01*
X446614D01*
Y178127D01*
X446817D01*
Y178229D01*
X447020D01*
Y178330D01*
X447223D01*
Y178432D01*
X447426D01*
Y178533D01*
X447629D01*
Y178635D01*
X447832D01*
Y178736D01*
X448035D01*
Y178838D01*
X448238D01*
Y178939D01*
X448441D01*
Y179041D01*
X448644D01*
Y179142D01*
X448847D01*
Y179244D01*
X449151D01*
Y179345D01*
X449354D01*
Y179447D01*
X449658D01*
Y179548D01*
X450064D01*
Y179650D01*
X450572D01*
Y179751D01*
X451485D01*
Y179650D01*
D02*
G37*
G36*
X462140Y138045D02*
X462343D01*
Y137943D01*
X462444D01*
Y137842D01*
X462546D01*
Y137740D01*
X462647D01*
Y137639D01*
X462749D01*
Y137538D01*
X462850D01*
Y137436D01*
X462952D01*
Y137335D01*
X463053D01*
Y137132D01*
X463154D01*
Y137030D01*
X463256D01*
Y136827D01*
X463357D01*
Y136624D01*
X463459D01*
Y136218D01*
X463560D01*
Y135610D01*
X463662D01*
Y134493D01*
X463560D01*
Y133681D01*
X463459D01*
Y132971D01*
X463357D01*
Y132464D01*
X463256D01*
Y131957D01*
X463154D01*
Y131449D01*
X463053D01*
Y130942D01*
X462952D01*
Y130333D01*
X462850D01*
Y129825D01*
X462647D01*
Y130840D01*
X462749D01*
Y131754D01*
X462850D01*
Y132464D01*
X462952D01*
Y133174D01*
X463053D01*
Y133884D01*
X463154D01*
Y136117D01*
X463053D01*
Y136523D01*
X462952D01*
Y136726D01*
X462850D01*
Y136929D01*
X462749D01*
Y137132D01*
X462647D01*
Y137335D01*
X462546D01*
Y137436D01*
X462444D01*
Y137538D01*
X462343D01*
Y137740D01*
X462241D01*
Y137842D01*
X462140D01*
Y137943D01*
X462038D01*
Y138045D01*
X461937D01*
Y138146D01*
X462140D01*
Y138045D01*
D02*
G37*
%LPC*%
G36*
X449252Y178838D02*
X448948D01*
Y178736D01*
X448745D01*
Y178635D01*
X448542D01*
Y178432D01*
X448948D01*
Y178533D01*
X449151D01*
Y178736D01*
X449252D01*
Y178838D01*
D02*
G37*
G36*
X447629Y177924D02*
X447223D01*
Y177823D01*
X447122D01*
Y177722D01*
X446918D01*
Y177620D01*
X446716D01*
Y177519D01*
X446614D01*
Y177417D01*
X446411D01*
Y177316D01*
X446310D01*
Y177113D01*
X446918D01*
Y177214D01*
X447122D01*
Y177316D01*
X447223D01*
Y177417D01*
X447324D01*
Y177519D01*
X447426D01*
Y177620D01*
X447527D01*
Y177823D01*
X447629D01*
Y177924D01*
D02*
G37*
G36*
X451383Y179345D02*
X450775D01*
Y179244D01*
X450267D01*
Y179142D01*
X449963D01*
Y179041D01*
X449861D01*
Y178939D01*
X449760D01*
Y178838D01*
X449658D01*
Y178533D01*
X449557D01*
Y178432D01*
X449455D01*
Y178229D01*
X449354D01*
Y178127D01*
X449151D01*
Y178026D01*
X448035D01*
Y177823D01*
X447933D01*
Y177519D01*
X447832D01*
Y177316D01*
X447730D01*
Y177214D01*
X447629D01*
Y177113D01*
X447527D01*
Y177011D01*
X447426D01*
Y176910D01*
X447324D01*
Y176808D01*
X447122D01*
Y176707D01*
X446005D01*
Y176808D01*
X445498D01*
Y176605D01*
X445599D01*
Y176199D01*
X446107D01*
Y176301D01*
X446614D01*
Y176402D01*
X447122D01*
Y176504D01*
X447629D01*
Y176605D01*
X448339D01*
Y176707D01*
X449354D01*
Y176808D01*
X450369D01*
Y176910D01*
X451079D01*
Y177011D01*
X451485D01*
Y177113D01*
X451789D01*
Y177214D01*
X451992D01*
Y177316D01*
X452094D01*
Y177519D01*
X452195D01*
Y177823D01*
X452297D01*
Y178229D01*
X452195D01*
Y178635D01*
X452094D01*
Y178939D01*
X451992D01*
Y179041D01*
X451891D01*
Y179142D01*
X451688D01*
Y179244D01*
X451383D01*
Y179345D01*
D02*
G37*
G36*
X437989Y175591D02*
X436568D01*
Y175185D01*
X436670D01*
Y174982D01*
X436771D01*
Y174779D01*
X436872D01*
Y174576D01*
X436974D01*
Y174474D01*
X437076D01*
Y174373D01*
X437177D01*
Y174170D01*
X437380D01*
Y174069D01*
X437684D01*
Y174170D01*
X437887D01*
Y174271D01*
X438090D01*
Y174373D01*
X438192D01*
Y174474D01*
X438395D01*
Y174576D01*
X438598D01*
Y174677D01*
X438699D01*
Y174779D01*
X438902D01*
Y174880D01*
X439206D01*
Y174982D01*
X439409D01*
Y175083D01*
X439612D01*
Y175286D01*
X439105D01*
Y175388D01*
X438496D01*
Y175489D01*
X437989D01*
Y175591D01*
D02*
G37*
G36*
X445092Y176504D02*
X444788D01*
Y176402D01*
X444483D01*
Y176301D01*
X444382D01*
Y176199D01*
X444077D01*
Y176098D01*
X443874D01*
Y175996D01*
X443671D01*
Y175895D01*
X443570D01*
Y175794D01*
X443367D01*
Y175388D01*
X443468D01*
Y175083D01*
X443570D01*
Y174779D01*
X443671D01*
Y174474D01*
X443773D01*
Y174170D01*
X443874D01*
Y174069D01*
Y173967D01*
X443976D01*
Y173764D01*
X444280D01*
Y173866D01*
X444483D01*
Y173967D01*
X444686D01*
Y174069D01*
X444788D01*
Y174170D01*
X444889D01*
Y174271D01*
X445092D01*
Y174373D01*
X445193D01*
Y174474D01*
X445295D01*
Y174576D01*
X445396D01*
Y174779D01*
X445498D01*
Y175489D01*
X445396D01*
Y175794D01*
X445295D01*
Y175996D01*
X445193D01*
Y176301D01*
X445092D01*
Y176504D01*
D02*
G37*
G36*
X442657Y175591D02*
X442454D01*
Y175489D01*
X441845D01*
Y175388D01*
X441337D01*
Y175286D01*
X440627D01*
Y175185D01*
X440424D01*
Y174982D01*
X440526D01*
Y174779D01*
X440627D01*
Y174576D01*
X440729D01*
Y174474D01*
X440830D01*
Y174271D01*
X440932D01*
Y174170D01*
X441033D01*
Y174069D01*
X441134D01*
Y173967D01*
X441236D01*
Y173866D01*
X441337D01*
Y173764D01*
X441439D01*
Y173663D01*
X441540D01*
Y173561D01*
X441743D01*
Y173460D01*
X441845D01*
Y173358D01*
X441946D01*
Y173257D01*
X442352D01*
Y173155D01*
X442961D01*
Y173257D01*
X443265D01*
Y173358D01*
X443367D01*
Y174271D01*
X443265D01*
Y174576D01*
X443164D01*
Y174779D01*
X443063D01*
Y175083D01*
X442961D01*
Y175286D01*
X442859D01*
Y175489D01*
X442657D01*
Y175591D01*
D02*
G37*
%LPD*%
G36*
X443671Y180056D02*
X443773D01*
Y179954D01*
X443874D01*
Y179853D01*
X443976D01*
Y179650D01*
Y179548D01*
Y179041D01*
X443874D01*
Y178939D01*
X443671D01*
Y179345D01*
X443570D01*
Y179548D01*
X443468D01*
Y179650D01*
X443265D01*
Y179548D01*
X443164D01*
Y179447D01*
X443063D01*
Y179345D01*
X442859D01*
Y179244D01*
X442758D01*
Y179345D01*
X442657D01*
Y179447D01*
X442758D01*
Y179650D01*
X442859D01*
Y179751D01*
X442961D01*
Y179853D01*
X443063D01*
Y179954D01*
X443164D01*
Y180056D01*
X443367D01*
Y180157D01*
X443671D01*
Y180056D01*
D02*
G37*
G36*
X439815Y179142D02*
X440120D01*
Y179041D01*
X440323D01*
Y178939D01*
X440424D01*
Y178838D01*
X440526D01*
Y178736D01*
X440627D01*
Y178635D01*
X440729D01*
Y178432D01*
X440627D01*
Y178533D01*
X440323D01*
Y178635D01*
X440018D01*
Y178736D01*
X439612D01*
Y178635D01*
X439714D01*
Y178533D01*
X439815D01*
Y178432D01*
X439917D01*
Y178330D01*
X440018D01*
Y178229D01*
X439612D01*
Y178330D01*
X439409D01*
Y178432D01*
X439308D01*
Y178533D01*
X439206D01*
Y178736D01*
X439105D01*
Y179041D01*
X439206D01*
Y179142D01*
X439308D01*
Y179244D01*
X439815D01*
Y179142D01*
D02*
G37*
G36*
X458893Y132159D02*
X460009D01*
Y132058D01*
X460516D01*
Y131957D01*
X460618D01*
Y131855D01*
X457979D01*
Y131754D01*
X457168D01*
Y131652D01*
X456762D01*
Y131551D01*
X456356D01*
Y131449D01*
X455950D01*
Y131348D01*
X455544D01*
Y131246D01*
X455341D01*
Y131145D01*
X455138D01*
Y131043D01*
X454935D01*
Y130942D01*
X454732D01*
Y130840D01*
X454529D01*
Y130739D01*
X454428D01*
Y130637D01*
X454225D01*
Y130536D01*
X454123D01*
Y130434D01*
X454022D01*
Y130333D01*
X453920D01*
Y130231D01*
X453819D01*
Y130130D01*
X453717D01*
Y130028D01*
X453616D01*
Y129927D01*
X453514D01*
Y129825D01*
X453413D01*
Y129724D01*
X453311D01*
Y129622D01*
X453108D01*
Y129521D01*
X453007D01*
Y129724D01*
X453108D01*
Y129927D01*
X453210D01*
Y130028D01*
X453311D01*
Y130231D01*
X453413D01*
Y130333D01*
X453514D01*
Y130434D01*
X453616D01*
Y130536D01*
X453717D01*
Y130637D01*
X453819D01*
Y130739D01*
X453920D01*
Y130840D01*
X454022D01*
Y130942D01*
X454123D01*
Y131043D01*
X454225D01*
Y131145D01*
X454428D01*
Y131246D01*
X454529D01*
Y131348D01*
X454732D01*
Y131449D01*
X454935D01*
Y131551D01*
X455239D01*
Y131652D01*
X455442D01*
Y131754D01*
X455747D01*
Y131855D01*
X456051D01*
Y131957D01*
X456356D01*
Y132058D01*
X456762D01*
Y132159D01*
X457370D01*
Y132261D01*
X458893D01*
Y132159D01*
D02*
G37*
G36*
X453007Y129420D02*
X452906D01*
Y129521D01*
X453007D01*
Y129420D01*
D02*
G37*
G36*
X455239Y127390D02*
X455138D01*
Y127492D01*
X455239D01*
Y127390D01*
D02*
G37*
G36*
X474925Y119881D02*
X474824D01*
Y119983D01*
X474925D01*
Y119881D01*
D02*
G37*
G36*
X474824Y119780D02*
X474723D01*
Y119881D01*
X474824D01*
Y119780D01*
D02*
G37*
G36*
X474723Y119678D02*
X474621D01*
Y119577D01*
X474520D01*
Y119475D01*
X474418D01*
Y119374D01*
X474215D01*
Y119272D01*
X474114D01*
Y119171D01*
X474012D01*
Y119069D01*
X473911D01*
Y118968D01*
X473708D01*
Y118866D01*
X473606D01*
Y118765D01*
X473505D01*
Y118663D01*
X473403D01*
Y118562D01*
X473200D01*
Y118460D01*
X473099D01*
Y118359D01*
X472998D01*
Y118257D01*
X472795D01*
Y118156D01*
X472693D01*
Y118055D01*
X472592D01*
Y117953D01*
X472389D01*
Y117851D01*
X472287D01*
Y117750D01*
X472186D01*
Y117649D01*
X471983D01*
Y117547D01*
X471881D01*
Y117446D01*
X471780D01*
Y117344D01*
X471577D01*
Y117243D01*
X471475D01*
Y117141D01*
X471374D01*
Y117040D01*
X471171D01*
Y116938D01*
X471069D01*
Y116837D01*
X470968D01*
Y116735D01*
X470765D01*
Y116634D01*
X470664D01*
Y116532D01*
X470461D01*
Y116431D01*
X470359D01*
Y116329D01*
X470258D01*
Y116228D01*
X470156D01*
Y116126D01*
X469953D01*
Y116025D01*
X469852D01*
Y115924D01*
X469750D01*
Y115822D01*
X469547D01*
Y115721D01*
X469446D01*
Y115619D01*
X469344D01*
Y115518D01*
X469142D01*
Y115416D01*
X469040D01*
Y115315D01*
X468938D01*
Y115213D01*
X468837D01*
Y115112D01*
X468736D01*
Y115010D01*
X468634D01*
Y114909D01*
X468533D01*
Y114807D01*
X468431D01*
Y114706D01*
X468330D01*
Y114604D01*
X468127D01*
Y114503D01*
X468025D01*
Y114401D01*
X467924D01*
Y114300D01*
X467822D01*
Y114198D01*
X467721D01*
Y114097D01*
X467619D01*
Y113894D01*
X467518D01*
Y113792D01*
X467416D01*
Y113691D01*
X467315D01*
Y113590D01*
X467214D01*
Y113488D01*
X467112D01*
Y113387D01*
X467010D01*
Y113285D01*
X466909D01*
Y113184D01*
X466808D01*
Y112981D01*
X466706D01*
Y112879D01*
X466605D01*
Y112778D01*
X466503D01*
Y112575D01*
X466402D01*
Y112473D01*
X466300D01*
Y112270D01*
X466199D01*
Y112169D01*
X466097D01*
Y111966D01*
X465996D01*
Y111865D01*
X465894D01*
Y111662D01*
X465793D01*
Y111459D01*
X465691D01*
Y111154D01*
X465590D01*
Y110850D01*
X465488D01*
Y111357D01*
X465590D01*
Y111662D01*
X465691D01*
Y111966D01*
X465793D01*
Y112169D01*
X465894D01*
Y112372D01*
X465996D01*
Y112575D01*
X466097D01*
Y112676D01*
X466199D01*
Y112879D01*
X466300D01*
Y112981D01*
X466402D01*
Y113184D01*
X466503D01*
Y113285D01*
X466605D01*
Y113488D01*
X466706D01*
Y113590D01*
X466808D01*
Y113691D01*
X466909D01*
Y113894D01*
X467010D01*
Y113996D01*
X467112D01*
Y114097D01*
X467214D01*
Y114198D01*
X467315D01*
Y114401D01*
X467416D01*
Y114503D01*
X467518D01*
Y114604D01*
X467619D01*
Y114706D01*
X467721D01*
Y114807D01*
X467822D01*
Y114909D01*
X467924D01*
Y115010D01*
X468025D01*
Y115112D01*
X468127D01*
Y115213D01*
X468228D01*
Y115315D01*
X468330D01*
Y115416D01*
X468431D01*
Y115518D01*
X468533D01*
Y115619D01*
X468634D01*
Y115721D01*
X468837D01*
Y115822D01*
X468938D01*
Y115924D01*
X469040D01*
Y116025D01*
X469243D01*
Y116126D01*
X469344D01*
Y116228D01*
X469446D01*
Y116329D01*
X469547D01*
Y116431D01*
X469750D01*
Y116532D01*
X469852D01*
Y116634D01*
X470055D01*
Y116735D01*
X470156D01*
Y116837D01*
X470359D01*
Y116938D01*
X470461D01*
Y117040D01*
X470562D01*
Y117141D01*
X470765D01*
Y117243D01*
X470867D01*
Y117344D01*
X471069D01*
Y117446D01*
X471171D01*
Y117547D01*
X471374D01*
Y117649D01*
X471475D01*
Y117750D01*
X471678D01*
Y117851D01*
X471780D01*
Y117953D01*
X471983D01*
Y118055D01*
X472084D01*
Y118156D01*
X472287D01*
Y118257D01*
X472389D01*
Y118359D01*
X472490D01*
Y118460D01*
X472693D01*
Y118562D01*
X472896D01*
Y118663D01*
X472998D01*
Y118765D01*
X473200D01*
Y118866D01*
X473302D01*
Y118968D01*
X473505D01*
Y119069D01*
X473606D01*
Y119171D01*
X473809D01*
Y119272D01*
X473911D01*
Y119374D01*
X474114D01*
Y119475D01*
X474215D01*
Y119577D01*
X474418D01*
Y119678D01*
X474520D01*
Y119780D01*
X474723D01*
Y119678D01*
D02*
G37*
G36*
X449354Y104761D02*
X449658D01*
Y104660D01*
X449963D01*
Y104558D01*
X450369D01*
Y104457D01*
X450775D01*
Y104355D01*
X451180D01*
Y104254D01*
X451485D01*
Y104152D01*
X451891D01*
Y104051D01*
X452195D01*
Y103949D01*
X452500D01*
Y103848D01*
X452703D01*
Y103747D01*
X453007D01*
Y103645D01*
X453210D01*
Y103544D01*
X453413D01*
Y103442D01*
X453514D01*
Y103341D01*
X453717D01*
Y103239D01*
X453819D01*
Y103138D01*
X453920D01*
Y103036D01*
X454022D01*
Y102935D01*
X454123D01*
Y102833D01*
X454225D01*
Y102732D01*
X454326D01*
Y102630D01*
X454428D01*
Y102529D01*
X454529D01*
Y102427D01*
X454631D01*
Y102326D01*
X454732D01*
Y102224D01*
X454834D01*
Y102021D01*
X454631D01*
Y102123D01*
X454529D01*
Y102224D01*
X454428D01*
Y102326D01*
X454326D01*
Y102427D01*
X454123D01*
Y102529D01*
X454022D01*
Y102630D01*
X453819D01*
Y102732D01*
X453717D01*
Y102833D01*
X453514D01*
Y102935D01*
X453311D01*
Y103036D01*
X453108D01*
Y103138D01*
X452906D01*
Y103239D01*
X452703D01*
Y103341D01*
X452500D01*
Y103442D01*
X452195D01*
Y103544D01*
X451891D01*
Y103645D01*
X451586D01*
Y103747D01*
X451383D01*
Y103848D01*
X451079D01*
Y103949D01*
X450775D01*
Y104051D01*
X450470D01*
Y104152D01*
X450166D01*
Y104254D01*
X449963D01*
Y104355D01*
X449658D01*
Y104457D01*
X449455D01*
Y104558D01*
X449252D01*
Y104660D01*
X449151D01*
Y104761D01*
X449049D01*
Y104863D01*
X449354D01*
Y104761D01*
D02*
G37*
G36*
X460313Y102732D02*
X460618D01*
Y102630D01*
X460821D01*
Y102529D01*
X461023D01*
Y102427D01*
X461125D01*
Y102326D01*
X461227D01*
Y102224D01*
X461328D01*
Y102123D01*
X461429D01*
Y101920D01*
X461227D01*
Y102021D01*
X461023D01*
Y102123D01*
X460719D01*
Y102224D01*
X460516D01*
Y102326D01*
X460313D01*
Y102427D01*
X460110D01*
Y102529D01*
X459907D01*
Y102630D01*
X459603D01*
Y102732D01*
X459501D01*
Y102833D01*
X460313D01*
Y102732D01*
D02*
G37*
G36*
X458893Y102021D02*
X459501D01*
Y101920D01*
X459704D01*
Y101819D01*
X459806D01*
Y101717D01*
X460009D01*
Y101615D01*
X460110D01*
Y101514D01*
X460212D01*
Y101311D01*
X460009D01*
Y101413D01*
X459704D01*
Y101514D01*
X459400D01*
Y101615D01*
X459197D01*
Y101717D01*
X458893D01*
Y101819D01*
X458690D01*
Y101920D01*
X458588D01*
Y102021D01*
X458791D01*
Y102123D01*
X458893D01*
Y102021D01*
D02*
G37*
G36*
X476245Y100195D02*
X476651D01*
Y100093D01*
X476955D01*
Y99992D01*
X477158D01*
Y99890D01*
X477259D01*
Y99789D01*
X477462D01*
Y99688D01*
X477564D01*
Y99586D01*
X477665D01*
Y99485D01*
X477767D01*
Y99383D01*
X477868D01*
Y99180D01*
X477970D01*
Y98876D01*
X477767D01*
Y98977D01*
X477665D01*
Y99079D01*
X477564D01*
Y99180D01*
X477361D01*
Y99282D01*
X477259D01*
Y99383D01*
X477057D01*
Y99485D01*
X476955D01*
Y99586D01*
X476854D01*
Y99688D01*
X476651D01*
Y99789D01*
X476549D01*
Y99890D01*
X476448D01*
Y99992D01*
X476245D01*
Y100093D01*
X476143D01*
Y100296D01*
X476245D01*
Y100195D01*
D02*
G37*
G36*
X475534Y99485D02*
X475737D01*
Y99383D01*
X475940D01*
Y99282D01*
X476042D01*
Y99180D01*
X476143D01*
Y99079D01*
X476245D01*
Y98977D01*
X476346D01*
Y98876D01*
X476448D01*
Y98774D01*
X476549D01*
Y98673D01*
X476651D01*
Y98470D01*
X476752D01*
Y98267D01*
X476854D01*
Y97963D01*
X476752D01*
Y98064D01*
X476549D01*
Y98165D01*
X476448D01*
Y98267D01*
X476346D01*
Y98368D01*
X476245D01*
Y98470D01*
X476143D01*
Y98571D01*
X476042D01*
Y98673D01*
X475940D01*
Y98774D01*
X475839D01*
Y98876D01*
X475737D01*
Y98977D01*
X475636D01*
Y99079D01*
X475534D01*
Y99180D01*
X475433D01*
Y99282D01*
X475331D01*
Y99485D01*
X475230D01*
Y99586D01*
X475534D01*
Y99485D01*
D02*
G37*
D10*
X245000Y269750D02*
G03*
X245000Y269750I-1250J0D01*
G01*
X87750Y180500D02*
G03*
X87750Y180500I-1250J0D01*
G01*
X316250Y304750D02*
G03*
X316250Y304750I-1250J0D01*
G01*
X353250Y282250D02*
G03*
X353250Y282250I-1250J0D01*
G01*
X300600Y273650D02*
G03*
X300600Y273650I-1250J0D01*
G01*
X353250Y262750D02*
G03*
X353250Y262750I-1250J0D01*
G01*
X378000Y233750D02*
G03*
X378000Y233750I-1250J0D01*
G01*
X144750Y195600D02*
G03*
X144750Y195600I-1250J0D01*
G01*
X457750Y349400D02*
G03*
X457750Y349400I-1250J0D01*
G01*
X540750Y52700D02*
G03*
X540750Y52700I-1250J0D01*
G01*
X436800D02*
G03*
X436800Y52700I-1250J0D01*
G01*
X263999Y188141D02*
G03*
X263999Y188141I-1250J0D01*
G01*
X226999Y196501D02*
G03*
X226999Y196501I-1250J0D01*
G01*
X214439Y207889D02*
G03*
X214439Y207889I-1250J0D01*
G01*
D11*
X586250Y170000D02*
G03*
X586250Y170000I-750J0D01*
G01*
X586250Y140000D02*
G03*
X586250Y140000I-750J0D01*
G01*
X556254Y123998D02*
Y116500D01*
X558754Y118999D01*
X561253Y116500D01*
Y123998D01*
X563752Y116500D02*
Y121498D01*
X566251Y123998D01*
X568750Y121498D01*
Y116500D01*
Y120249D01*
X563752D01*
X571250Y123998D02*
Y116500D01*
Y118999D01*
X576248Y123998D01*
X572499Y120249D01*
X576248Y116500D01*
X583746Y123998D02*
X578747D01*
Y116500D01*
X583746D01*
X578747Y120249D02*
X581246D01*
X566377Y157748D02*
X565127Y158998D01*
X562628D01*
X561378Y157748D01*
Y152750D01*
X562628Y151500D01*
X565127D01*
X566377Y152750D01*
X568876Y151500D02*
Y156498D01*
X571375Y158998D01*
X573874Y156498D01*
Y151500D01*
Y155249D01*
X568876D01*
X576373Y151500D02*
Y158998D01*
X581372Y151500D01*
Y158998D01*
X561378Y181500D02*
Y188997D01*
X565127D01*
X566377Y187748D01*
Y185249D01*
X565127Y183999D01*
X561378D01*
X568876Y188997D02*
Y181500D01*
X571375Y183999D01*
X573874Y181500D01*
Y188997D01*
X576373Y181500D02*
Y188997D01*
X580122D01*
X581372Y187748D01*
Y185249D01*
X580122Y183999D01*
X576373D01*
X578873D02*
X581372Y181500D01*
X93250Y126498D02*
Y120250D01*
X94500Y119000D01*
X96999D01*
X98248Y120250D01*
Y126498D01*
X100748Y125248D02*
X101997Y126498D01*
X104496D01*
X105746Y125248D01*
Y123998D01*
X104496Y122749D01*
X103247D01*
X104496D01*
X105746Y121499D01*
Y120250D01*
X104496Y119000D01*
X101997D01*
X100748Y120250D01*
X269000Y211498D02*
Y205250D01*
X270250Y204000D01*
X272749D01*
X273998Y205250D01*
Y211498D01*
X276498Y204000D02*
X278997D01*
X277747D01*
Y211498D01*
X276498Y210248D01*
D12*
X240749Y76501D02*
G03*
X248999Y84751I0J8250D01*
G01*
X202499Y84751D02*
G03*
X210749Y76501I8250J-0D01*
G01*
X210749Y190001D02*
G03*
X202499Y181751I0J-8250D01*
G01*
X248999D02*
G03*
X240749Y190001I-8250J0D01*
G01*
X252250Y243250D02*
Y260250D01*
X235250Y243250D02*
Y260250D01*
X199000Y139166D02*
Y167287D01*
X180879Y139166D02*
Y167287D01*
Y99129D02*
Y127250D01*
X199000Y99129D02*
Y127250D01*
X131900Y97500D02*
Y107500D01*
X144600Y97500D02*
Y107500D01*
X95750Y158959D02*
Y179541D01*
X113250Y158959D02*
Y179541D01*
X160600Y198000D02*
X161900D01*
X150250Y184500D02*
Y194000D01*
X167100Y184500D02*
X172250D01*
X150250D02*
X155400D01*
X172250D02*
Y194000D01*
X134350Y168500D02*
Y178500D01*
X121650Y168500D02*
Y178500D01*
X119000Y150650D02*
X129000D01*
X119000Y163350D02*
X129000D01*
X95750Y134467D02*
Y155050D01*
X113250Y134467D02*
Y155050D01*
X137000Y163350D02*
X147000D01*
X137000Y150650D02*
X147000D01*
X54750Y174000D02*
X77250D01*
X54750Y140000D02*
X77250D01*
X302550Y299000D02*
X308000D01*
Y329750D02*
Y330000D01*
Y299000D02*
Y299250D01*
X302550Y330000D02*
X308000D01*
X225800Y300550D02*
X247800D01*
X225800Y328450D02*
X247800D01*
X359000Y257000D02*
X364450D01*
X359000Y287750D02*
Y288000D01*
Y257000D02*
Y257250D01*
Y288000D02*
X364450D01*
X275200Y277250D02*
Y293250D01*
X290800D01*
X275200Y277250D02*
X290800D01*
Y293250D01*
X339550Y288000D02*
X345000D01*
Y257000D02*
Y257250D01*
Y287750D02*
Y288000D01*
X339550Y257000D02*
X345000D01*
X355750Y251250D02*
X359250D01*
X355750Y229250D02*
X359250D01*
X700Y201600D02*
X132500D01*
Y332000D02*
Y343400D01*
Y290000D02*
Y297000D01*
Y248000D02*
Y255000D01*
Y201600D02*
Y213000D01*
X700Y343400D02*
X132500D01*
X700Y201600D02*
Y343400D01*
X467500D02*
X599300D01*
X467500Y201600D02*
Y213000D01*
Y248000D02*
Y255000D01*
Y290000D02*
Y297000D01*
Y332000D02*
Y343400D01*
Y201600D02*
X599300D01*
Y343400D01*
X431400Y14600D02*
Y65400D01*
X533000D01*
Y14600D02*
Y65400D01*
X431400Y14600D02*
X533000D01*
X327450D02*
Y65400D01*
X429050D01*
Y14600D02*
Y65400D01*
X327450Y14600D02*
X429050D01*
X287749Y194891D02*
Y196091D01*
Y78591D02*
Y79791D01*
Y78591D02*
X363749D01*
Y194891D02*
Y196091D01*
Y78591D02*
Y79791D01*
X287749Y196091D02*
X363749D01*
X210749Y190001D02*
X210749Y190001D01*
X240749D01*
X210749Y76501D02*
X240749D01*
X248999Y84751D02*
Y181751D01*
X202499Y84751D02*
Y181751D01*
X214000Y244000D02*
X214800D01*
X214000Y217000D02*
Y244000D01*
Y217000D02*
X214800D01*
X229200Y244000D02*
X230000D01*
Y217000D02*
Y244000D01*
X229200Y217000D02*
X230000D01*
X144600Y76000D02*
Y86000D01*
X131900Y76000D02*
Y86000D01*
X581250Y106500D02*
X581500D01*
X558500D02*
X558750D01*
X558500Y73500D02*
Y106500D01*
X581250Y73500D02*
X581500D01*
X558500D02*
X558750D01*
X581500D02*
Y106500D01*
X255750Y231600D02*
Y257600D01*
X300400Y231600D02*
X301750D01*
X255750D02*
X257100D01*
X301750D02*
Y257600D01*
X292165D02*
X301750D01*
X255750D02*
X265335D01*
X360750Y217750D02*
X367750D01*
X360750Y202750D02*
X367750D01*
X322350Y221750D02*
Y231750D01*
X309650Y221750D02*
Y231750D01*
X13664Y282747D02*
X10332D01*
X11998D01*
Y274416D01*
X10332Y272750D01*
X8666D01*
X7000Y274416D01*
X16997Y282747D02*
Y272750D01*
X23661D01*
X33658Y281081D02*
X31992Y282747D01*
X28660D01*
X26994Y281081D01*
Y274416D01*
X28660Y272750D01*
X31992D01*
X33658Y274416D01*
X43655Y282747D02*
X40323D01*
X41989D01*
Y274416D01*
X40323Y272750D01*
X38656D01*
X36990Y274416D01*
X46987Y282747D02*
Y272750D01*
X53652D01*
X63648Y281081D02*
X61982Y282747D01*
X58650D01*
X56984Y281081D01*
Y274416D01*
X58650Y272750D01*
X61982D01*
X63648Y274416D01*
X73645Y282747D02*
X70313D01*
X71979D01*
Y274416D01*
X70313Y272750D01*
X68647D01*
X66981Y274416D01*
X76977Y282747D02*
Y272750D01*
X83642D01*
X93639Y281081D02*
X91973Y282747D01*
X88640D01*
X86974Y281081D01*
Y274416D01*
X88640Y272750D01*
X91973D01*
X93639Y274416D01*
X103636Y282747D02*
X100303D01*
X101969D01*
Y274416D01*
X100303Y272750D01*
X98637D01*
X96971Y274416D01*
X106968Y282747D02*
Y272750D01*
X113632D01*
X123629Y281081D02*
X121963Y282747D01*
X118631D01*
X116965Y281081D01*
Y274416D01*
X118631Y272750D01*
X121963D01*
X123629Y274416D01*
D13*
X93869Y69017D02*
Y71895D01*
Y114483D02*
X117491D01*
X93869Y111605D02*
Y114483D01*
Y69017D02*
X117491D01*
Y71895D01*
Y111605D02*
Y114483D01*
D14*
X82329Y36665D02*
X78997Y39997D01*
X72332D01*
X69000Y36665D01*
Y23335D01*
X72332Y20003D01*
X78997D01*
X82329Y23335D01*
X88994Y20003D02*
Y33332D01*
X95658Y39997D01*
X102323Y33332D01*
Y20003D01*
Y30000D01*
X88994D01*
X108987Y20003D02*
Y39997D01*
X122316Y20003D01*
Y39997D01*
X142310Y36665D02*
X138977Y39997D01*
X132313D01*
X128981Y36665D01*
Y33332D01*
X132313Y30000D01*
X138977D01*
X142310Y26668D01*
Y23335D01*
X138977Y20003D01*
X132313D01*
X128981Y23335D01*
X148974Y33332D02*
Y23335D01*
X152306Y20003D01*
X155639Y23335D01*
X158971Y20003D01*
X162303Y23335D01*
Y33332D01*
X168968Y20003D02*
X175632D01*
X172300D01*
Y33332D01*
X168968D01*
X188961Y36665D02*
Y33332D01*
X185629D01*
X192294D01*
X188961D01*
Y23335D01*
X192294Y20003D01*
X215619Y33332D02*
X205623D01*
X202290Y30000D01*
Y23335D01*
X205623Y20003D01*
X215619D01*
X222284Y39997D02*
Y20003D01*
Y30000D01*
X225616Y33332D01*
X232281D01*
X235613Y30000D01*
Y20003D01*
X262271Y39997D02*
Y26668D01*
X268936Y20003D01*
X275600Y26668D01*
Y39997D01*
X295594Y20003D02*
X282265D01*
X295594Y33332D01*
Y36665D01*
X292261Y39997D01*
X285597D01*
X282265Y36665D01*
D15*
X126826Y64388D02*
X118362Y72852D01*
X126826D02*
X118362Y64388D01*
X126826Y68620D02*
X118362D01*
X122594Y72852D02*
Y64388D01*
M02*
