G04*
G04 #@! TF.GenerationSoftware,Altium Limited,Altium Designer,24.2.2 (26)*
G04*
G04 Layer_Color=2752767*
%FSLAX44Y44*%
%MOMM*%
G71*
G04*
G04 #@! TF.SameCoordinates,C4595460-78FA-4AA4-93EF-E7DD031D073C*
G04*
G04*
G04 #@! TF.FilePolarity,Positive*
G04*
G01*
G75*
%ADD85C,0.1270*%
%ADD86C,0.1693*%
D85*
X180420Y309420D02*
Y319580D01*
X190580D01*
Y309420D01*
X180420D01*
Y267420D02*
Y277580D01*
X190580D01*
Y267420D01*
X180420D01*
Y225420D02*
Y235580D01*
X190580D01*
Y225420D01*
X180420D01*
X138420Y309420D02*
Y319580D01*
X148580D01*
Y309420D01*
X138420D01*
Y267420D02*
Y277580D01*
X148580D01*
Y267420D01*
X138420D01*
Y225420D02*
Y235580D01*
X148580D01*
Y225420D01*
X138420D01*
X409420D02*
Y235580D01*
X419580D01*
Y225420D01*
X409420D01*
Y267420D02*
Y277580D01*
X419580D01*
Y267420D01*
X409420D01*
Y309420D02*
Y319580D01*
X419580D01*
Y309420D01*
X409420D01*
X451420Y225420D02*
Y235580D01*
X461580D01*
Y225420D01*
X451420D01*
Y267420D02*
Y277580D01*
X461580D01*
Y267420D01*
X451420D01*
Y309420D02*
Y319580D01*
X461580D01*
Y309420D01*
X451420D01*
X444100Y22220D02*
X439020Y32380D01*
X449180D01*
X444100Y22220D01*
Y47620D02*
X439020Y57780D01*
X449180D01*
X444100Y47620D01*
X469500Y22220D02*
X464420Y32380D01*
X474580D01*
X469500Y22220D01*
X494900D02*
X489820Y32380D01*
X499980D01*
X494900Y22220D01*
X469500Y47620D02*
X464420Y57780D01*
X474580D01*
X469500Y47620D01*
X494900D02*
X489820Y57780D01*
X499980D01*
X494900Y47620D01*
X520300Y22220D02*
X515220Y32380D01*
X525380D01*
X520300Y22220D01*
Y47620D02*
X515220Y57780D01*
X525380D01*
X520300Y47620D01*
X340150Y22220D02*
X335070Y32380D01*
X345230D01*
X340150Y22220D01*
Y47620D02*
X335070Y57780D01*
X345230D01*
X340150Y47620D01*
X365550Y22220D02*
X360470Y32380D01*
X370630D01*
X365550Y22220D01*
X390950D02*
X385870Y32380D01*
X396030D01*
X390950Y22220D01*
X365550Y47620D02*
X360470Y57780D01*
X370630D01*
X365550Y47620D01*
X390950D02*
X385870Y57780D01*
X396030D01*
X390950Y47620D01*
X416350Y22220D02*
X411270Y32380D01*
X421430D01*
X416350Y22220D01*
Y47620D02*
X411270Y57780D01*
X421430D01*
X416350Y47620D01*
X225749Y152571D02*
X228289Y155111D01*
X230829D01*
X228289Y157651D01*
X230829Y160191D01*
X228289D01*
X225749Y162731D01*
X223209Y160191D01*
X220669D01*
X223209Y157651D01*
X220669Y155111D01*
X223209D01*
X225749Y152571D01*
Y103771D02*
X228289Y106311D01*
X230829D01*
X228289Y108851D01*
X230829Y111391D01*
X228289D01*
X225749Y113931D01*
X223209Y111391D01*
X220669D01*
X223209Y108851D01*
X220669Y106311D01*
X223209D01*
X225749Y103771D01*
X257459Y140709D02*
Y138169D01*
X262539D01*
Y140709D01*
X265079D01*
Y145789D01*
X262539D01*
Y148329D01*
X257459D01*
Y145789D01*
X254919D01*
Y140709D01*
X257459D01*
X557459Y320709D02*
Y318169D01*
X562539D01*
Y320709D01*
X565079D01*
Y325789D01*
X562539D01*
Y328329D01*
X557459D01*
Y325789D01*
X554919D01*
Y320709D01*
X557459D01*
X572459Y290709D02*
Y288169D01*
X577539D01*
Y290709D01*
X580079D01*
Y295789D01*
X577539D01*
Y298329D01*
X572459D01*
Y295789D01*
X569919D01*
Y290709D01*
X572459D01*
X557459Y260709D02*
Y258169D01*
X562539D01*
Y260709D01*
X565079D01*
Y265789D01*
X562539D01*
Y268329D01*
X557459D01*
Y265789D01*
X554919D01*
Y260709D01*
X557459D01*
X572459Y230709D02*
Y228169D01*
X577539D01*
Y230709D01*
X580079D01*
Y235789D01*
X577539D01*
Y238329D01*
X572459D01*
Y235789D01*
X569919D01*
Y230709D01*
X572459D01*
X557459Y200709D02*
Y198169D01*
X562539D01*
Y200709D01*
X565079D01*
Y205789D01*
X562539D01*
Y208329D01*
X557459D01*
Y205789D01*
X554919D01*
Y200709D01*
X557459D01*
X542459Y290709D02*
Y288169D01*
X547539D01*
Y290709D01*
X550079D01*
Y295789D01*
X547539D01*
Y298329D01*
X542459D01*
Y295789D01*
X539919D01*
Y290709D01*
X542459D01*
X527459Y260709D02*
Y258169D01*
X532539D01*
Y260709D01*
X535079D01*
Y265789D01*
X532539D01*
Y268329D01*
X527459D01*
Y265789D01*
X524919D01*
Y260709D01*
X527459D01*
X542459Y110709D02*
Y108169D01*
X547539D01*
Y110709D01*
X550079D01*
Y115789D01*
X547539D01*
Y118329D01*
X542459D01*
Y115789D01*
X539919D01*
Y110709D01*
X542459D01*
X527459Y80709D02*
Y78169D01*
X532539D01*
Y80709D01*
X535079D01*
Y85789D01*
X532539D01*
Y88329D01*
X527459D01*
Y85789D01*
X524919D01*
Y80709D01*
X527459D01*
X497459Y320709D02*
Y318169D01*
X502539D01*
Y320709D01*
X505079D01*
Y325789D01*
X502539D01*
Y328329D01*
X497459D01*
Y325789D01*
X494919D01*
Y320709D01*
X497459D01*
X512459Y290709D02*
Y288169D01*
X517539D01*
Y290709D01*
X520079D01*
Y295789D01*
X517539D01*
Y298329D01*
X512459D01*
Y295789D01*
X509919D01*
Y290709D01*
X512459D01*
X497459Y260709D02*
Y258169D01*
X502539D01*
Y260709D01*
X505079D01*
Y265789D01*
X502539D01*
Y268329D01*
X497459D01*
Y265789D01*
X494919D01*
Y260709D01*
X497459D01*
X482459Y290709D02*
Y288169D01*
X487539D01*
Y290709D01*
X490079D01*
Y295789D01*
X487539D01*
Y298329D01*
X482459D01*
Y295789D01*
X479919D01*
Y290709D01*
X482459D01*
Y230709D02*
Y228169D01*
X487539D01*
Y230709D01*
X490079D01*
Y235789D01*
X487539D01*
Y238329D01*
X482459D01*
Y235789D01*
X479919D01*
Y230709D01*
X482459D01*
X467459Y80709D02*
Y78169D01*
X472539D01*
Y80709D01*
X475079D01*
Y85789D01*
X472539D01*
Y88329D01*
X467459D01*
Y85789D01*
X464919D01*
Y80709D01*
X467459D01*
X437459D02*
Y78169D01*
X442539D01*
Y80709D01*
X445079D01*
Y85789D01*
X442539D01*
Y88329D01*
X437459D01*
Y85789D01*
X434919D01*
Y80709D01*
X437459D01*
X422459Y110709D02*
Y108169D01*
X427539D01*
Y110709D01*
X430079D01*
Y115789D01*
X427539D01*
Y118329D01*
X422459D01*
Y115789D01*
X419919D01*
Y110709D01*
X422459D01*
X392459Y170709D02*
Y168169D01*
X397539D01*
Y170709D01*
X400079D01*
Y175789D01*
X397539D01*
Y178329D01*
X392459D01*
Y175789D01*
X389919D01*
Y170709D01*
X392459D01*
X347459Y140709D02*
Y138169D01*
X352539D01*
Y140709D01*
X355079D01*
Y145789D01*
X352539D01*
Y148329D01*
X347459D01*
Y145789D01*
X344919D01*
Y140709D01*
X347459D01*
X317459Y320709D02*
Y318169D01*
X322539D01*
Y320709D01*
X325079D01*
Y325789D01*
X322539D01*
Y328329D01*
X317459D01*
Y325789D01*
X314919D01*
Y320709D01*
X317459D01*
X332459Y290709D02*
Y288169D01*
X337539D01*
Y290709D01*
X340079D01*
Y295789D01*
X337539D01*
Y298329D01*
X332459D01*
Y295789D01*
X329919D01*
Y290709D01*
X332459D01*
X317459Y140709D02*
Y138169D01*
X322539D01*
Y140709D01*
X325079D01*
Y145789D01*
X322539D01*
Y148329D01*
X317459D01*
Y145789D01*
X314919D01*
Y140709D01*
X317459D01*
X332459Y110709D02*
Y108169D01*
X337539D01*
Y110709D01*
X340079D01*
Y115789D01*
X337539D01*
Y118329D01*
X332459D01*
Y115789D01*
X329919D01*
Y110709D01*
X332459D01*
X287459Y260709D02*
Y258169D01*
X292539D01*
Y260709D01*
X295079D01*
Y265789D01*
X292539D01*
Y268329D01*
X287459D01*
Y265789D01*
X284919D01*
Y260709D01*
X287459D01*
X257459D02*
Y258169D01*
X262539D01*
Y260709D01*
X265079D01*
Y265789D01*
X262539D01*
Y268329D01*
X257459D01*
Y265789D01*
X254919D01*
Y260709D01*
X257459D01*
X242459Y170709D02*
Y168169D01*
X247539D01*
Y170709D01*
X250079D01*
Y175789D01*
X247539D01*
Y178329D01*
X242459D01*
Y175789D01*
X239919D01*
Y170709D01*
X242459D01*
X212459Y230709D02*
Y228169D01*
X217539D01*
Y230709D01*
X220079D01*
Y235789D01*
X217539D01*
Y238329D01*
X212459D01*
Y235789D01*
X209919D01*
Y230709D01*
X212459D01*
X197459Y200709D02*
Y198169D01*
X202539D01*
Y200709D01*
X205079D01*
Y205789D01*
X202539D01*
Y208329D01*
X197459D01*
Y205789D01*
X194919D01*
Y200709D01*
X197459D01*
X212459Y170709D02*
Y168169D01*
X217539D01*
Y170709D01*
X220079D01*
Y175789D01*
X217539D01*
Y178329D01*
X212459D01*
Y175789D01*
X209919D01*
Y170709D01*
X212459D01*
X152459Y290709D02*
Y288169D01*
X157539D01*
Y290709D01*
X160079D01*
Y295789D01*
X157539D01*
Y298329D01*
X152459D01*
Y295789D01*
X149919D01*
Y290709D01*
X152459D01*
X137459Y200709D02*
Y198169D01*
X142539D01*
Y200709D01*
X145079D01*
Y205789D01*
X142539D01*
Y208329D01*
X137459D01*
Y205789D01*
X134919D01*
Y200709D01*
X137459D01*
X122459Y290709D02*
Y288169D01*
X127539D01*
Y290709D01*
X130079D01*
Y295789D01*
X127539D01*
Y298329D01*
X122459D01*
Y295789D01*
X119919D01*
Y290709D01*
X122459D01*
X107459Y200709D02*
Y198169D01*
X112539D01*
Y200709D01*
X115079D01*
Y205789D01*
X112539D01*
Y208329D01*
X107459D01*
Y205789D01*
X104919D01*
Y200709D01*
X107459D01*
X92459Y290709D02*
Y288169D01*
X97539D01*
Y290709D01*
X100079D01*
Y295789D01*
X97539D01*
Y298329D01*
X92459D01*
Y295789D01*
X89919D01*
Y290709D01*
X92459D01*
X77459Y260709D02*
Y258169D01*
X82539D01*
Y260709D01*
X85079D01*
Y265789D01*
X82539D01*
Y268329D01*
X77459D01*
Y265789D01*
X74919D01*
Y260709D01*
X77459D01*
X92459Y230709D02*
Y228169D01*
X97539D01*
Y230709D01*
X100079D01*
Y235789D01*
X97539D01*
Y238329D01*
X92459D01*
Y235789D01*
X89919D01*
Y230709D01*
X92459D01*
X77459Y200709D02*
Y198169D01*
X82539D01*
Y200709D01*
X85079D01*
Y205789D01*
X82539D01*
Y208329D01*
X77459D01*
Y205789D01*
X74919D01*
Y200709D01*
X77459D01*
X92459Y50709D02*
Y48169D01*
X97539D01*
Y50709D01*
X100079D01*
Y55789D01*
X97539D01*
Y58329D01*
X92459D01*
Y55789D01*
X89919D01*
Y50709D01*
X92459D01*
X47459Y320709D02*
Y318169D01*
X52539D01*
Y320709D01*
X55079D01*
Y325789D01*
X52539D01*
Y328329D01*
X47459D01*
Y325789D01*
X44919D01*
Y320709D01*
X47459D01*
X62459Y290709D02*
Y288169D01*
X67539D01*
Y290709D01*
X70079D01*
Y295789D01*
X67539D01*
Y298329D01*
X62459D01*
Y295789D01*
X59919D01*
Y290709D01*
X62459D01*
X47459Y260709D02*
Y258169D01*
X52539D01*
Y260709D01*
X55079D01*
Y265789D01*
X52539D01*
Y268329D01*
X47459D01*
Y265789D01*
X44919D01*
Y260709D01*
X47459D01*
Y200709D02*
Y198169D01*
X52539D01*
Y200709D01*
X55079D01*
Y205789D01*
X52539D01*
Y208329D01*
X47459D01*
Y205789D01*
X44919D01*
Y200709D01*
X47459D01*
X62459Y170709D02*
Y168169D01*
X67539D01*
Y170709D01*
X70079D01*
Y175789D01*
X67539D01*
Y178329D01*
X62459D01*
Y175789D01*
X59919D01*
Y170709D01*
X62459D01*
Y50709D02*
Y48169D01*
X67539D01*
Y50709D01*
X70079D01*
Y55789D01*
X67539D01*
Y58329D01*
X62459D01*
Y55789D01*
X59919D01*
Y50709D01*
X62459D01*
X17459Y320709D02*
Y318169D01*
X22539D01*
Y320709D01*
X25079D01*
Y325789D01*
X22539D01*
Y328329D01*
X17459D01*
Y325789D01*
X14919D01*
Y320709D01*
X17459D01*
X32459Y290709D02*
Y288169D01*
X37539D01*
Y290709D01*
X40079D01*
Y295789D01*
X37539D01*
Y298329D01*
X32459D01*
Y295789D01*
X29919D01*
Y290709D01*
X32459D01*
X17459Y260709D02*
Y258169D01*
X22539D01*
Y260709D01*
X25079D01*
Y265789D01*
X22539D01*
Y268329D01*
X17459D01*
Y265789D01*
X14919D01*
Y260709D01*
X17459D01*
X32459Y230709D02*
Y228169D01*
X37539D01*
Y230709D01*
X40079D01*
Y235789D01*
X37539D01*
Y238329D01*
X32459D01*
Y235789D01*
X29919D01*
Y230709D01*
X32459D01*
X17459Y200709D02*
Y198169D01*
X22539D01*
Y200709D01*
X25079D01*
Y205789D01*
X22539D01*
Y208329D01*
X17459D01*
Y205789D01*
X14919D01*
Y200709D01*
X17459D01*
Y140709D02*
Y138169D01*
X22539D01*
Y140709D01*
X25079D01*
Y145789D01*
X22539D01*
Y148329D01*
X17459D01*
Y145789D01*
X14919D01*
Y140709D01*
X17459D01*
Y80709D02*
Y78169D01*
X22539D01*
Y80709D01*
X25079D01*
Y85789D01*
X22539D01*
Y88329D01*
X17459D01*
Y85789D01*
X14919D01*
Y80709D01*
X17459D01*
X135460Y154460D02*
Y151920D01*
X140540D01*
Y154460D01*
X143080D01*
Y159540D01*
X140540D01*
Y162080D01*
X135460D01*
Y159540D01*
X132920D01*
Y154460D01*
X135460D01*
X161460Y107210D02*
Y104670D01*
X166540D01*
Y107210D01*
X169080D01*
Y112290D01*
X166540D01*
Y114830D01*
X161460D01*
Y112290D01*
X158920D01*
Y107210D01*
X161460D01*
X313460Y228210D02*
Y225670D01*
X318540D01*
Y228210D01*
X321080D01*
Y233290D01*
X318540D01*
Y235830D01*
X313460D01*
Y233290D01*
X310920D01*
Y228210D01*
X313460D01*
X100210Y106960D02*
Y104420D01*
X105290D01*
Y106960D01*
X107830D01*
Y112040D01*
X105290D01*
Y114580D01*
X100210D01*
Y112040D01*
X97670D01*
Y106960D01*
X100210D01*
X140710Y52960D02*
Y50420D01*
X145790D01*
Y52960D01*
X148330D01*
Y58040D01*
X145790D01*
Y60580D01*
X140710D01*
Y58040D01*
X138170D01*
Y52960D01*
X140710D01*
X135085D02*
Y50420D01*
X140165D01*
Y52960D01*
X142705D01*
Y58040D01*
X140165D01*
Y60580D01*
X135085D01*
Y58040D01*
X132545D01*
Y52960D01*
X135085D01*
X129460D02*
Y50420D01*
X134540D01*
Y52960D01*
X137080D01*
Y58040D01*
X134540D01*
Y60580D01*
X129460D01*
Y58040D01*
X126920D01*
Y52960D01*
X129460D01*
X354920Y314380D02*
X357460Y319460D01*
X354920Y324540D01*
X360000Y322000D01*
X365080Y324540D01*
X362540Y319460D01*
X365080Y314380D01*
X360000Y316920D01*
X354920Y314380D01*
X99960Y89210D02*
Y86670D01*
X105040D01*
Y89210D01*
X107580D01*
Y94290D01*
X105040D01*
Y96830D01*
X99960D01*
Y94290D01*
X97420D01*
Y89210D01*
X99960D01*
X567460Y71210D02*
Y68670D01*
X572540D01*
Y71210D01*
X575080D01*
Y76290D01*
X572540D01*
Y78830D01*
X567460D01*
Y76290D01*
X564920D01*
Y71210D01*
X567460D01*
X398710Y185460D02*
Y182920D01*
X403790D01*
Y185460D01*
X406330D01*
Y190540D01*
X403790D01*
Y193080D01*
X398710D01*
Y190540D01*
X396170D01*
Y185460D01*
X398710D01*
X189460Y81210D02*
Y78670D01*
X194540D01*
Y81210D01*
X197080D01*
Y86290D01*
X194540D01*
Y88830D01*
X189460D01*
Y86290D01*
X186920D01*
Y81210D01*
X189460D01*
X514710Y138210D02*
Y135670D01*
X519790D01*
Y138210D01*
X522330D01*
Y143290D01*
X519790D01*
Y145830D01*
X514710D01*
Y143290D01*
X512170D01*
Y138210D01*
X514710D01*
X545960Y174210D02*
Y171670D01*
X551040D01*
Y174210D01*
X553580D01*
Y179290D01*
X551040D01*
Y181830D01*
X545960D01*
Y179290D01*
X543420D01*
Y174210D01*
X545960D01*
X512460Y166710D02*
Y164170D01*
X517540D01*
Y166710D01*
X520080D01*
Y171790D01*
X517540D01*
Y174330D01*
X512460D01*
Y171790D01*
X509920D01*
Y166710D01*
X512460D01*
X241210Y241710D02*
Y239170D01*
X246290D01*
Y241710D01*
X248830D01*
Y246790D01*
X246290D01*
Y249330D01*
X241210D01*
Y246790D01*
X238670D01*
Y241710D01*
X241210D01*
X384210Y242210D02*
Y239670D01*
X389290D01*
Y242210D01*
X391830D01*
Y247290D01*
X389290D01*
Y249830D01*
X384210D01*
Y247290D01*
X381670D01*
Y242210D01*
X384210D01*
X329960Y229710D02*
Y227170D01*
X335040D01*
Y229710D01*
X337580D01*
Y234790D01*
X335040D01*
Y237330D01*
X329960D01*
Y234790D01*
X327420D01*
Y229710D01*
X329960D01*
X138710Y117460D02*
Y114920D01*
X143790D01*
Y117460D01*
X146330D01*
Y122540D01*
X143790D01*
Y125080D01*
X138710D01*
Y122540D01*
X136170D01*
Y117460D01*
X138710D01*
X107460Y99213D02*
Y96672D01*
X112540D01*
Y99213D01*
X115080D01*
Y104292D01*
X112540D01*
Y106833D01*
X107460D01*
Y104292D01*
X104920D01*
Y99213D01*
X107460D01*
X158710Y178210D02*
Y175670D01*
X163790D01*
Y178210D01*
X166330D01*
Y183290D01*
X163790D01*
Y185830D01*
X158710D01*
Y183290D01*
X156170D01*
Y178210D01*
X158710D01*
X125460Y166960D02*
Y164420D01*
X130540D01*
Y166960D01*
X133080D01*
Y172040D01*
X130540D01*
Y174580D01*
X125460D01*
Y172040D01*
X122920D01*
Y166960D01*
X125460D01*
Y154460D02*
Y151920D01*
X130540D01*
Y154460D01*
X133080D01*
Y159540D01*
X130540D01*
Y162080D01*
X125460D01*
Y159540D01*
X122920D01*
Y154460D01*
X125460D01*
X504460Y166710D02*
Y164170D01*
X509540D01*
Y166710D01*
X512080D01*
Y171790D01*
X509540D01*
Y174330D01*
X504460D01*
Y171790D01*
X501920D01*
Y166710D01*
X504460D01*
X491960Y162960D02*
Y160420D01*
X497040D01*
Y162960D01*
X499580D01*
Y168040D01*
X497040D01*
Y170580D01*
X491960D01*
Y168040D01*
X489420D01*
Y162960D01*
X491960D01*
X276209Y172901D02*
Y170361D01*
X281289D01*
Y172901D01*
X283829D01*
Y177981D01*
X281289D01*
Y180521D01*
X276209D01*
Y177981D01*
X273669D01*
Y172901D01*
X276209D01*
Y185601D02*
Y183061D01*
X281289D01*
Y185601D01*
X283829D01*
Y190681D01*
X281289D01*
Y193221D01*
X276209D01*
Y190681D01*
X273669D01*
Y185601D01*
X276209D01*
X258545Y228125D02*
X263625Y233205D01*
X268705Y228125D01*
X263625Y223045D01*
X258545Y228125D01*
X24920Y24920D02*
X27460Y30000D01*
X24920Y35080D01*
X30000Y32540D01*
X35080Y35080D01*
X32540Y30000D01*
X35080Y24920D01*
X30000Y27460D01*
X24920Y24920D01*
X135710Y82460D02*
Y79920D01*
X140790D01*
Y82460D01*
X143330D01*
Y87540D01*
X140790D01*
Y90080D01*
X135710D01*
Y87540D01*
X133170D01*
Y82460D01*
X135710D01*
X69710Y93960D02*
Y91420D01*
X74790D01*
Y93960D01*
X77330D01*
Y99040D01*
X74790D01*
Y101580D01*
X69710D01*
Y99040D01*
X67170D01*
Y93960D01*
X69710D01*
Y106960D02*
Y104420D01*
X74790D01*
Y106960D01*
X77330D01*
Y112040D01*
X74790D01*
Y114580D01*
X69710D01*
Y112040D01*
X67170D01*
Y106960D01*
X69710D01*
X559460Y132960D02*
Y130420D01*
X564540D01*
Y132960D01*
X567080D01*
Y138040D01*
X564540D01*
Y140580D01*
X559460D01*
Y138040D01*
X556920D01*
Y132960D01*
X559460D01*
Y141960D02*
Y139420D01*
X564540D01*
Y141960D01*
X567080D01*
Y147040D01*
X564540D01*
Y149580D01*
X559460D01*
Y147040D01*
X556920D01*
Y141960D01*
X559460D01*
X559460Y172210D02*
Y169670D01*
X564540D01*
Y172210D01*
X567080D01*
Y177290D01*
X564540D01*
Y179830D01*
X559460D01*
Y177290D01*
X556920D01*
Y172210D01*
X559460D01*
Y162960D02*
Y160420D01*
X564540D01*
Y162960D01*
X567080D01*
Y168040D01*
X564540D01*
Y170580D01*
X559460D01*
Y168040D01*
X556920D01*
Y162960D01*
X559460D01*
X370209Y109401D02*
Y106861D01*
X375289D01*
Y109401D01*
X377829D01*
Y114481D01*
X375289D01*
Y117021D01*
X370209D01*
Y114481D01*
X367669D01*
Y109401D01*
X370209D01*
Y172901D02*
Y170361D01*
X375289D01*
Y172901D01*
X377829D01*
Y177981D01*
X375289D01*
Y180521D01*
X370209D01*
Y177981D01*
X367669D01*
Y172901D01*
X370209D01*
Y185601D02*
Y183061D01*
X375289D01*
Y185601D01*
X377829D01*
Y190681D01*
X375289D01*
Y193221D01*
X370209D01*
Y190681D01*
X367669D01*
Y185601D01*
X370209D01*
X564920Y24920D02*
X567460Y30000D01*
X564920Y35080D01*
X570000Y32540D01*
X575080Y35080D01*
X572540Y30000D01*
X575080Y24920D01*
X570000Y27460D01*
X564920Y24920D01*
D86*
X75580Y314500D02*
G03*
X75580Y314500I-5080J0D01*
G01*
Y230500D02*
G03*
X75580Y230500I-5080J0D01*
G01*
X534580D02*
G03*
X534580Y230500I-5080J0D01*
G01*
Y314500D02*
G03*
X534580Y314500I-5080J0D01*
G01*
M02*
