G04*
G04 #@! TF.GenerationSoftware,Altium Limited,Altium Designer,24.2.2 (26)*
G04*
G04 Layer_Physical_Order=1*
G04 Layer_Color=255*
%FSLAX44Y44*%
%MOMM*%
G71*
G04*
G04 #@! TF.SameCoordinates,C4595460-78FA-4AA4-93EF-E7DD031D073C*
G04*
G04*
G04 #@! TF.FilePolarity,Positive*
G04*
G01*
G75*
%ADD16R,0.8000X0.8000*%
%ADD17R,1.0121X1.2084*%
%ADD18R,0.5200X0.5200*%
%ADD19R,0.8621X0.7565*%
%ADD20R,0.4200X0.7000*%
%ADD21R,0.5200X0.5200*%
%ADD22C,0.9698*%
%ADD23C,0.9900*%
%ADD24R,0.5000X0.3500*%
%ADD25R,1.9600X3.1500*%
%ADD26C,1.7685*%
%ADD27R,0.9100X1.2200*%
%ADD28R,0.7500X0.8500*%
%ADD29R,0.8500X0.7000*%
%ADD30R,0.8000X0.4000*%
%ADD31R,0.8000X0.5000*%
G04:AMPARAMS|DCode=32|XSize=1.9mm|YSize=0.6mm|CornerRadius=0.3mm|HoleSize=0mm|Usage=FLASHONLY|Rotation=0.000|XOffset=0mm|YOffset=0mm|HoleType=Round|Shape=RoundedRectangle|*
%AMROUNDEDRECTD32*
21,1,1.9000,0.0000,0,0,0.0*
21,1,1.3000,0.6000,0,0,0.0*
1,1,0.6000,0.6500,0.0000*
1,1,0.6000,-0.6500,0.0000*
1,1,0.6000,-0.6500,0.0000*
1,1,0.6000,0.6500,0.0000*
%
%ADD32ROUNDEDRECTD32*%
%ADD33R,0.5500X0.5500*%
G04:AMPARAMS|DCode=34|XSize=1.3082mm|YSize=0.7621mm|CornerRadius=0.3811mm|HoleSize=0mm|Usage=FLASHONLY|Rotation=90.000|XOffset=0mm|YOffset=0mm|HoleType=Round|Shape=RoundedRectangle|*
%AMROUNDEDRECTD34*
21,1,1.3082,0.0000,0,0,90.0*
21,1,0.5461,0.7621,0,0,90.0*
1,1,0.7621,0.0000,0.2730*
1,1,0.7621,0.0000,-0.2730*
1,1,0.7621,0.0000,-0.2730*
1,1,0.7621,0.0000,0.2730*
%
%ADD34ROUNDEDRECTD34*%
%ADD35R,0.7621X1.3082*%
%ADD36R,0.9779X0.3048*%
%ADD37R,0.8500X0.7500*%
%ADD38R,1.5000X0.5500*%
%ADD39C,1.7397*%
%ADD40R,0.5800X1.7300*%
%ADD41R,1.1000X1.7000*%
%ADD50C,2.7500*%
%ADD51R,2.7500X2.7500*%
%ADD52C,3.0000*%
%ADD60C,0.6000*%
%AMCUSTOMSHAPE61*
4,1,28,1.1400,-1.2250,0.7250,-1.2250,0.7250,-1.6050,0.2950,-1.6050,0.2950,-1.2250,-0.8400,-1.2250,-0.8400,-1.1750,-1.1400,-1.1750,-1.1400,-0.7750,-0.8400,-0.7750,-0.8400,-0.5250,-1.1400,-0.5250,-1.1400,-0.1250,-0.8400,-0.1250,-0.8400,0.1250,-1.1400,0.1250,-1.1400,0.5250,-0.8400,0.5250,-0.8400,0.7750,-1.1400,0.7750,-1.1400,1.1750,-0.8400,1.1750,-0.8400,1.2250,0.2950,1.2250,0.2950,1.6050,0.7250,1.6050,0.7250,1.2250,1.1400,1.2250,1.1400,-1.2250,0.0*%
%ADD61CUSTOMSHAPE61*%

%ADD62C,0.3000*%
%ADD63C,0.2540*%
%ADD64C,2.0000*%
%ADD65C,0.5000*%
%ADD66C,1.5500*%
%ADD67R,1.5500X1.5500*%
%ADD68R,1.2000X1.2000*%
%ADD69C,1.2000*%
%ADD70C,0.5000*%
%ADD71C,4.0000*%
%ADD72C,0.7000*%
G36*
X575467Y347482D02*
X579007Y346534D01*
X582393Y345131D01*
X585568Y343299D01*
X588475Y341067D01*
X591067Y338475D01*
X593299Y335568D01*
X595131Y332393D01*
X596534Y329007D01*
X597482Y325467D01*
X597961Y321833D01*
Y320000D01*
Y30000D01*
Y28167D01*
X597482Y24533D01*
X596534Y20993D01*
X595131Y17607D01*
X593299Y14432D01*
X591067Y11525D01*
X588475Y8933D01*
X585568Y6701D01*
X582393Y4869D01*
X579007Y3466D01*
X575467Y2517D01*
X571833Y2039D01*
X28167D01*
X24533Y2517D01*
X20993Y3466D01*
X17607Y4869D01*
X14432Y6701D01*
X11525Y8933D01*
X8933Y11525D01*
X6701Y14432D01*
X4869Y17607D01*
X3466Y20993D01*
X2517Y24533D01*
X2039Y28167D01*
Y30000D01*
Y320000D01*
Y321833D01*
X2517Y325467D01*
X3466Y329007D01*
X4869Y332393D01*
X6701Y335568D01*
X8933Y338475D01*
X11525Y341067D01*
X14432Y343299D01*
X17607Y345131D01*
X20993Y346534D01*
X24533Y347482D01*
X28167Y347961D01*
X571833D01*
X575467Y347482D01*
D02*
G37*
%LPC*%
G36*
X223320Y331520D02*
X201180D01*
Y325867D01*
X195374D01*
X195075Y326167D01*
X192615Y327811D01*
X189881Y328943D01*
X186979Y329520D01*
X184021D01*
X181119Y328943D01*
X178385Y327811D01*
X175925Y326167D01*
X173833Y324075D01*
X172189Y321615D01*
X171057Y318881D01*
X170480Y315979D01*
Y313021D01*
X171057Y310119D01*
X172189Y307385D01*
X173833Y304925D01*
X174133Y304626D01*
Y282374D01*
X173833Y282075D01*
X172189Y279615D01*
X171057Y276881D01*
X170480Y273979D01*
Y271021D01*
X171057Y268119D01*
X172189Y265385D01*
X173833Y262925D01*
X175925Y260833D01*
X178385Y259189D01*
X181119Y258057D01*
X184021Y257480D01*
X186979D01*
X189881Y258057D01*
X192615Y259189D01*
X195075Y260833D01*
X197167Y262925D01*
X198811Y265385D01*
X199943Y268119D01*
X200252Y269676D01*
X206080D01*
X218909Y256847D01*
X218812Y255461D01*
X218337Y255143D01*
X217214Y253463D01*
X216820Y251480D01*
Y246020D01*
X217214Y244037D01*
X218337Y242357D01*
X220018Y241234D01*
X222000Y240839D01*
X223982Y241234D01*
X225663Y242357D01*
X226786Y244037D01*
X227180Y246020D01*
Y251480D01*
X226786Y253463D01*
X225663Y255143D01*
X224824Y255704D01*
Y257750D01*
X224824Y257750D01*
X224609Y258831D01*
X223997Y259747D01*
X223997Y259747D01*
X209247Y274497D01*
X208331Y275109D01*
X207250Y275324D01*
X207250Y275324D01*
X200252D01*
X199943Y276881D01*
X198811Y279615D01*
X197167Y282075D01*
X196867Y282374D01*
Y303133D01*
X201180D01*
Y297480D01*
X223320D01*
Y312242D01*
X223617Y314500D01*
X223320Y316758D01*
Y331520D01*
D02*
G37*
G36*
X471520Y329520D02*
X441480D01*
Y299480D01*
X471520D01*
Y329520D01*
D02*
G37*
G36*
X415979D02*
X413021D01*
X410119Y328943D01*
X407385Y327811D01*
X404925Y326167D01*
X402833Y324075D01*
X401189Y321615D01*
X400057Y318881D01*
X399480Y315979D01*
Y313021D01*
X400057Y310119D01*
X401189Y307385D01*
X402833Y304925D01*
X404925Y302833D01*
X407385Y301189D01*
X410119Y300057D01*
X413021Y299480D01*
X415979D01*
X418881Y300057D01*
X421615Y301189D01*
X424075Y302833D01*
X426167Y304925D01*
X427811Y307385D01*
X428943Y310119D01*
X429520Y313021D01*
Y315979D01*
X428943Y318881D01*
X427811Y321615D01*
X426167Y324075D01*
X424075Y326167D01*
X421615Y327811D01*
X418881Y328943D01*
X415979Y329520D01*
D02*
G37*
G36*
X531224Y332000D02*
X527776D01*
X524395Y331328D01*
X521211Y330008D01*
X518344Y328093D01*
X515907Y325656D01*
X513992Y322789D01*
X512673Y319605D01*
X512000Y316224D01*
Y312776D01*
X512673Y309395D01*
X513992Y306211D01*
X515907Y303344D01*
X518344Y300907D01*
X521211Y298992D01*
X524395Y297673D01*
X527776Y297000D01*
X531224D01*
X534605Y297673D01*
X537789Y298992D01*
X540656Y300907D01*
X543093Y303344D01*
X545008Y306211D01*
X546328Y309395D01*
X547000Y312776D01*
Y316224D01*
X546328Y319605D01*
X545008Y322789D01*
X543093Y325656D01*
X540656Y328093D01*
X537789Y330008D01*
X534605Y331328D01*
X531224Y332000D01*
D02*
G37*
G36*
X72224D02*
X68776D01*
X65395Y331328D01*
X62211Y330008D01*
X59344Y328093D01*
X56907Y325656D01*
X54992Y322789D01*
X53672Y319605D01*
X53000Y316224D01*
Y312776D01*
X53672Y309395D01*
X54992Y306211D01*
X56907Y303344D01*
X59344Y300907D01*
X62211Y298992D01*
X65395Y297673D01*
X68776Y297000D01*
X72224D01*
X75605Y297673D01*
X78789Y298992D01*
X81656Y300907D01*
X84093Y303344D01*
X86008Y306211D01*
X87327Y309395D01*
X88000Y312776D01*
Y316224D01*
X87327Y319605D01*
X86008Y322789D01*
X84093Y325656D01*
X81656Y328093D01*
X78789Y330008D01*
X75605Y331328D01*
X72224Y332000D01*
D02*
G37*
G36*
X160175Y255844D02*
X160175Y255844D01*
X122481D01*
X122481Y255844D01*
X121400Y255629D01*
X120484Y255017D01*
X107483Y242016D01*
X106871Y241099D01*
X106656Y240019D01*
X106656Y240019D01*
Y214520D01*
X106656Y214520D01*
X106871Y213439D01*
X107483Y212523D01*
X117753Y202253D01*
X117753Y202253D01*
X137109Y182897D01*
Y175299D01*
X135839Y174773D01*
X133744Y176867D01*
X132828Y177479D01*
X131870Y177670D01*
Y181370D01*
X124130D01*
Y180324D01*
X110081D01*
Y180811D01*
X98919D01*
Y178583D01*
X93606D01*
X93606Y178583D01*
X92525Y178368D01*
X91609Y177756D01*
X91609Y177756D01*
X90228Y176375D01*
X81000D01*
X80028Y175972D01*
X79625Y175000D01*
Y166500D01*
X79800Y166079D01*
X79927Y165641D01*
X83927Y160641D01*
X83997Y160602D01*
X84028Y160528D01*
X84449Y160354D01*
X84848Y160134D01*
X84926Y160156D01*
X85000Y160125D01*
X92000D01*
X92972Y160528D01*
X93375Y161500D01*
Y171533D01*
X94776Y172934D01*
X98919D01*
Y170706D01*
X110081D01*
Y174676D01*
X124130D01*
Y173630D01*
X127876D01*
X128633Y172873D01*
X129549Y172261D01*
X130564Y172059D01*
X133693Y168930D01*
X133693Y168930D01*
X134609Y168318D01*
X135690Y168103D01*
X135690Y168103D01*
X137135D01*
X138202Y167934D01*
X138371Y166868D01*
Y165423D01*
X138371Y165423D01*
X138586Y164342D01*
X139198Y163426D01*
X142076Y160548D01*
Y158100D01*
X142076Y158100D01*
X142130Y157827D01*
Y156173D01*
X142076Y155900D01*
Y154720D01*
X126680Y139324D01*
X110081D01*
Y143303D01*
X98919D01*
Y141074D01*
X95170D01*
X93375Y142870D01*
Y152500D01*
X92972Y153472D01*
X92000Y153875D01*
X85000D01*
X84926Y153844D01*
X84848Y153866D01*
X84449Y153646D01*
X84028Y153472D01*
X83997Y153398D01*
X83927Y153359D01*
X79927Y148359D01*
X79800Y147921D01*
X79625Y147500D01*
Y139000D01*
X80028Y138028D01*
X81000Y137625D01*
X90631D01*
X92003Y136253D01*
X92919Y135641D01*
X94000Y135426D01*
X94000Y135426D01*
X98919D01*
Y133197D01*
X110081D01*
Y133676D01*
X127850D01*
X127850Y133676D01*
X128931Y133891D01*
X129847Y134503D01*
X146897Y151553D01*
X146897Y151553D01*
X147509Y152469D01*
X147641Y153130D01*
X149870D01*
Y160870D01*
X148569D01*
X147724Y161717D01*
X147509Y162798D01*
X146897Y163715D01*
X144019Y166593D01*
Y166738D01*
X146200Y168919D01*
X146200Y168919D01*
X146812Y169835D01*
X147027Y170916D01*
X147027Y170916D01*
Y185836D01*
X146812Y186917D01*
X146200Y187833D01*
X116574Y217459D01*
Y237080D01*
X125420Y245926D01*
X127378D01*
X128480Y245520D01*
Y215480D01*
X151926D01*
Y206020D01*
X151380D01*
Y196480D01*
X158120D01*
Y206020D01*
X157574D01*
Y215480D01*
X158520D01*
Y227676D01*
X160607D01*
X160608Y227676D01*
X161688Y227891D01*
X162605Y228503D01*
X163627Y229525D01*
X163671Y229557D01*
X165329Y229557D01*
X165373Y229525D01*
X166395Y228503D01*
X166395Y228503D01*
X167312Y227891D01*
X168392Y227676D01*
X168393Y227676D01*
X170748D01*
X171057Y226119D01*
X172189Y223385D01*
X173071Y222066D01*
X165753Y214747D01*
X165141Y213831D01*
X164926Y212750D01*
X164926Y212750D01*
Y206020D01*
X164380D01*
Y196480D01*
X171120D01*
Y206020D01*
X170574D01*
Y211580D01*
X177066Y218071D01*
X178385Y217190D01*
X181119Y216057D01*
X184021Y215480D01*
X186979D01*
X189881Y216057D01*
X192615Y217190D01*
X195075Y218833D01*
X197167Y220925D01*
X198811Y223385D01*
X199943Y226119D01*
X200520Y229021D01*
Y231979D01*
X199943Y234881D01*
X198811Y237615D01*
X197167Y240075D01*
X195075Y242167D01*
X192615Y243811D01*
X189881Y244943D01*
X186979Y245520D01*
X184021D01*
X181119Y244943D01*
X178385Y243811D01*
X175925Y242167D01*
X173833Y240075D01*
X172189Y237615D01*
X171057Y234881D01*
X171056Y234874D01*
X169670Y234415D01*
X169459Y234606D01*
Y246561D01*
X169244Y247641D01*
X168632Y248558D01*
X168632Y248558D01*
X162173Y255017D01*
X161256Y255629D01*
X160175Y255844D01*
D02*
G37*
G36*
X372270Y250020D02*
X361730D01*
Y243480D01*
Y236980D01*
X372270D01*
Y238335D01*
X374810D01*
X375801Y238532D01*
X376641Y239094D01*
X379708Y242160D01*
X381230D01*
Y239980D01*
X392270D01*
Y249520D01*
X381230D01*
Y247340D01*
X378635D01*
X377644Y247143D01*
X376804Y246581D01*
X373737Y243515D01*
X372270D01*
Y243520D01*
Y250020D01*
D02*
G37*
G36*
X249020Y249520D02*
X238480D01*
Y238980D01*
X249020D01*
Y249520D01*
D02*
G37*
G36*
X297500Y339074D02*
X297500Y339074D01*
X252750D01*
X251669Y338859D01*
X250753Y338247D01*
X250753Y338247D01*
X246003Y333497D01*
X245391Y332581D01*
X245176Y331500D01*
X245176Y331500D01*
Y297750D01*
X245176Y297750D01*
X245391Y296669D01*
X246003Y295753D01*
X248926Y292830D01*
Y287500D01*
X248926Y287500D01*
X248980Y287227D01*
Y279730D01*
X259020D01*
Y281406D01*
X260830D01*
Y277880D01*
X272470D01*
Y292620D01*
X260830D01*
Y289094D01*
X259020D01*
Y290770D01*
X254574D01*
Y294000D01*
X254359Y295081D01*
X253747Y295997D01*
X253747Y295997D01*
X253542Y296202D01*
X254028Y297375D01*
X271150D01*
X271234Y297410D01*
X271323Y297386D01*
X272420Y297480D01*
Y297525D01*
X288023Y299500D01*
X288975Y298660D01*
Y298450D01*
X289378Y297478D01*
X290350Y297075D01*
X294650D01*
X295622Y297478D01*
X296025Y298450D01*
Y300513D01*
X298860Y300872D01*
X299132Y300617D01*
X299620Y299793D01*
X293785Y292620D01*
X293530D01*
Y292306D01*
X293458Y292217D01*
X293326Y291776D01*
X293150Y291350D01*
Y279260D01*
X293150Y279260D01*
X293530Y278342D01*
Y277880D01*
X293960D01*
X312004Y259837D01*
X312028Y259778D01*
X312314Y259660D01*
X312156Y258867D01*
X312156Y258867D01*
Y234620D01*
X312130D01*
Y234594D01*
X297920D01*
Y238170D01*
X289580D01*
Y218330D01*
X297920D01*
Y226906D01*
X312130D01*
Y226880D01*
X314890D01*
X315204Y226750D01*
X316796D01*
X317110Y226880D01*
X319870D01*
Y229641D01*
X320000Y229954D01*
Y231546D01*
X319870Y231859D01*
Y234620D01*
X319844D01*
Y257275D01*
X321444Y258875D01*
X325975D01*
Y256450D01*
X326378Y255478D01*
X327350Y255075D01*
X331650D01*
X332622Y255478D01*
X333025Y256450D01*
Y258875D01*
X335800D01*
X335870Y258828D01*
Y251033D01*
X334357Y249520D01*
X326980D01*
Y239980D01*
X338020D01*
Y245858D01*
X341460Y249298D01*
X342730Y248771D01*
Y243480D01*
Y235610D01*
X338020D01*
Y237020D01*
X326980D01*
Y227480D01*
X336843D01*
X336961Y227480D01*
X337124Y226725D01*
X336528Y225690D01*
X321927Y211090D01*
X261250D01*
X260259Y210893D01*
X259419Y210331D01*
X242387Y193300D01*
X211434D01*
X210948Y194473D01*
X220914Y204439D01*
X227081D01*
Y220061D01*
X216919D01*
Y208433D01*
X206061Y197574D01*
X193250D01*
X192169Y197359D01*
X191253Y196747D01*
X191253Y196747D01*
X170753Y176247D01*
X170141Y175331D01*
X169926Y174250D01*
X169926Y174250D01*
Y142420D01*
X150330Y122824D01*
X144083D01*
X143516Y123391D01*
X142046Y124000D01*
X140454D01*
X138984Y123391D01*
X137859Y122266D01*
X137250Y120796D01*
Y119204D01*
X137807Y117860D01*
X137587Y117257D01*
X137207Y116590D01*
X131723D01*
X130732Y116393D01*
X129891Y115831D01*
X123608Y109548D01*
X114951D01*
Y104577D01*
X112833D01*
X112266Y105143D01*
X110796Y105752D01*
X109204D01*
X107734Y105143D01*
X106609Y104018D01*
X106000Y102548D01*
Y100957D01*
X106609Y99487D01*
X107734Y98362D01*
X109204Y97753D01*
X110796D01*
X112266Y98362D01*
X112833Y98928D01*
X114951D01*
Y93957D01*
Y83955D01*
X127270D01*
Y84159D01*
X134269D01*
X134380Y83890D01*
Y81130D01*
X137140D01*
X137454Y81000D01*
X139046D01*
X139359Y81130D01*
X142120D01*
Y83890D01*
X142250Y84204D01*
Y85796D01*
X142120Y86110D01*
Y87340D01*
X143390Y87866D01*
X165008Y66248D01*
X164522Y65074D01*
X142170D01*
X128525Y78719D01*
X127609Y79331D01*
X127270Y79399D01*
X127270Y79540D01*
X126528Y79547D01*
X126528Y79546D01*
X126003Y79546D01*
X121232D01*
X121111Y79570D01*
X120959Y79540D01*
X114951D01*
Y73952D01*
X120862D01*
X121135Y73898D01*
X125358D01*
X139003Y60253D01*
X139003Y60253D01*
X139919Y59641D01*
X141000Y59426D01*
X287750D01*
X287750Y59426D01*
X288831Y59641D01*
X289747Y60253D01*
X302997Y73503D01*
X303609Y74419D01*
X303824Y75500D01*
Y178500D01*
X303824Y178500D01*
X303609Y179581D01*
X302997Y180497D01*
X293356Y190138D01*
X292440Y190750D01*
X291359Y190965D01*
X291359Y190965D01*
X288498D01*
X288328Y191219D01*
X286915Y192163D01*
X285249Y192495D01*
X272249D01*
X270583Y192163D01*
X269171Y191219D01*
X268227Y189807D01*
X267896Y188141D01*
X268227Y186475D01*
X269171Y185062D01*
X270583Y184119D01*
X272249Y183787D01*
X285249D01*
X286915Y184119D01*
X288328Y185062D01*
X288498Y185317D01*
X290189D01*
X298176Y177330D01*
Y172614D01*
X296906Y172088D01*
X291705Y177290D01*
X290788Y177902D01*
X289708Y178117D01*
X289707Y178117D01*
X288597D01*
X288328Y178519D01*
X286915Y179463D01*
X285249Y179795D01*
X272249D01*
X270583Y179463D01*
X269171Y178519D01*
X268227Y177107D01*
X267896Y175441D01*
X268227Y173775D01*
X269171Y172362D01*
X270583Y171419D01*
X272249Y171087D01*
X285249D01*
X286915Y171419D01*
X288328Y172362D01*
X289363Y171643D01*
X292926Y168080D01*
Y78170D01*
X284330Y69574D01*
X169670D01*
X159654Y79590D01*
X160464Y80576D01*
X161029Y80199D01*
X162500Y79906D01*
X190827D01*
X191204Y79750D01*
X192796D01*
X194266Y80359D01*
X195391Y81484D01*
X196000Y82954D01*
Y84546D01*
X195391Y86016D01*
X194266Y87141D01*
X192796Y87750D01*
X191204D01*
X190827Y87594D01*
X164092D01*
X156434Y95252D01*
X156920Y96426D01*
X160786D01*
X161581Y95630D01*
X163151Y94980D01*
X164849D01*
X166419Y95630D01*
X167620Y96831D01*
X168270Y98401D01*
Y100099D01*
X167620Y101669D01*
X166419Y102870D01*
X164849Y103520D01*
X163151D01*
X161581Y102870D01*
X160786Y102074D01*
X149105D01*
X147750Y102344D01*
X147750Y102344D01*
X142120D01*
Y102370D01*
X134380D01*
Y99341D01*
X127270D01*
Y105885D01*
X132795Y111410D01*
X153250D01*
X154241Y111607D01*
X155081Y112169D01*
X178831Y135919D01*
X179393Y136759D01*
X179590Y137750D01*
Y171714D01*
X195996Y188120D01*
X243460D01*
X244451Y188317D01*
X245291Y188879D01*
X262323Y205910D01*
X323000D01*
X323991Y206107D01*
X324831Y206669D01*
X339573Y221410D01*
X377750D01*
X378741Y221607D01*
X379581Y222169D01*
X384893Y227480D01*
X392270D01*
Y237020D01*
X381230D01*
Y231143D01*
X376677Y226590D01*
X338921D01*
X338326Y227178D01*
X338225Y227278D01*
X338225Y227278D01*
X338020Y228012D01*
X338020D01*
X338020Y228012D01*
Y230430D01*
X347270D01*
X347520Y230480D01*
X353270D01*
Y236980D01*
Y243480D01*
Y250020D01*
X345376D01*
X344697Y251290D01*
X344777Y251410D01*
X351000D01*
X351991Y251607D01*
X352831Y252169D01*
X360392Y259730D01*
X364270D01*
Y265770D01*
X364270Y265770D01*
X364270Y266230D01*
X364359Y267463D01*
X364375Y267500D01*
Y284000D01*
X364270Y284253D01*
Y285270D01*
X363253D01*
X363000Y285375D01*
X358000D01*
X357747Y285270D01*
X356730D01*
Y284876D01*
X348361Y280342D01*
X347270Y280992D01*
Y285270D01*
X339730D01*
Y284266D01*
X339212Y284163D01*
X338445Y283650D01*
X337883Y283770D01*
X337175Y284064D01*
Y284750D01*
X337005Y285161D01*
X336889Y285590D01*
X310354Y319995D01*
X310270Y321230D01*
X310270Y322040D01*
Y327270D01*
X309320D01*
X309109Y328331D01*
X308497Y329247D01*
X308497Y329247D01*
X299497Y338247D01*
X298581Y338859D01*
X297500Y339074D01*
D02*
G37*
G36*
X267920Y238170D02*
X259580D01*
Y230824D01*
X258855Y229074D01*
Y227176D01*
X259580Y225426D01*
Y218330D01*
X267920D01*
Y226029D01*
X268395Y227176D01*
Y229074D01*
X267920Y230221D01*
Y238170D01*
D02*
G37*
G36*
X376650Y289925D02*
X372350D01*
X371378Y289522D01*
X370975Y288550D01*
Y286125D01*
X368200D01*
X367228Y285722D01*
X366825Y284750D01*
Y273009D01*
X366808Y272875D01*
X366825Y272741D01*
Y260250D01*
X367228Y259278D01*
X368200Y258875D01*
X370975D01*
Y256450D01*
X371378Y255478D01*
X372350Y255075D01*
X376650D01*
X377622Y255478D01*
X378025Y256450D01*
Y258875D01*
X388000D01*
X388972Y259278D01*
X389012Y259375D01*
X391000D01*
X391972Y259778D01*
X392375Y260750D01*
Y261320D01*
X403133D01*
Y240374D01*
X402833Y240075D01*
X401189Y237615D01*
X400057Y234881D01*
X399480Y231979D01*
Y229021D01*
X400057Y226119D01*
X401189Y223385D01*
X402833Y220925D01*
X404925Y218833D01*
X407385Y217190D01*
X410119Y216057D01*
X413021Y215480D01*
X415979D01*
X418881Y216057D01*
X421615Y217190D01*
X424075Y218833D01*
X426167Y220925D01*
X427811Y223385D01*
X428943Y226119D01*
X429520Y229021D01*
Y231979D01*
X428943Y234881D01*
X427811Y237615D01*
X426167Y240075D01*
X425867Y240374D01*
Y262626D01*
X426167Y262925D01*
X427811Y265385D01*
X428943Y268119D01*
X429520Y271021D01*
Y273979D01*
X428943Y276881D01*
X427811Y279615D01*
X426167Y282075D01*
X424075Y284167D01*
X421615Y285811D01*
X418881Y286943D01*
X415979Y287520D01*
X413021D01*
X410119Y286943D01*
X407385Y285811D01*
X404925Y284167D01*
X404813Y284055D01*
X392375D01*
Y284250D01*
X391972Y285222D01*
X391000Y285625D01*
X389012D01*
X388972Y285722D01*
X388000Y286125D01*
X378025D01*
Y288550D01*
X377622Y289522D01*
X376650Y289925D01*
D02*
G37*
G36*
X531224Y248000D02*
X527776D01*
X524395Y247327D01*
X521211Y246008D01*
X518344Y244093D01*
X515907Y241656D01*
X513992Y238789D01*
X512673Y235605D01*
X512000Y232224D01*
Y228776D01*
X512673Y225396D01*
X513992Y222211D01*
X515907Y219344D01*
X518344Y216907D01*
X521211Y214992D01*
X524395Y213673D01*
X527776Y213000D01*
X531224D01*
X534605Y213673D01*
X537789Y214992D01*
X540656Y216907D01*
X543093Y219344D01*
X545008Y222211D01*
X546328Y225396D01*
X547000Y228776D01*
Y232224D01*
X546328Y235605D01*
X545008Y238789D01*
X543093Y241656D01*
X540656Y244093D01*
X537789Y246008D01*
X534605Y247327D01*
X531224Y248000D01*
D02*
G37*
G36*
X72224D02*
X68776D01*
X65395Y247327D01*
X62211Y246008D01*
X59344Y244093D01*
X56907Y241656D01*
X54992Y238789D01*
X53672Y235605D01*
X53000Y232224D01*
Y228776D01*
X53672Y225396D01*
X54992Y222211D01*
X56907Y219344D01*
X59344Y216907D01*
X62211Y214992D01*
X65395Y213673D01*
X68776Y213000D01*
X72224D01*
X75605Y213673D01*
X78789Y214992D01*
X81656Y216907D01*
X84093Y219344D01*
X86008Y222211D01*
X87327Y225396D01*
X88000Y228776D01*
Y232224D01*
X87327Y235605D01*
X86008Y238789D01*
X84093Y241656D01*
X81656Y244093D01*
X78789Y246008D01*
X75605Y247327D01*
X72224Y248000D01*
D02*
G37*
G36*
X384020Y220020D02*
X370480D01*
Y207621D01*
X370406Y207250D01*
X370406Y207250D01*
Y192495D01*
X366249D01*
X364583Y192163D01*
X363171Y191219D01*
X362227Y189807D01*
X361896Y188141D01*
X362227Y186475D01*
X363171Y185062D01*
X364583Y184119D01*
X366249Y183787D01*
X379249D01*
X380915Y184119D01*
X381077Y184227D01*
X388230D01*
Y183980D01*
X395960D01*
X396270Y183980D01*
X397230D01*
X397540Y183980D01*
X405270D01*
Y192020D01*
X397540D01*
X397230Y192020D01*
X396270D01*
X395960Y192020D01*
X388230D01*
Y191914D01*
X381288D01*
X380915Y192163D01*
X379249Y192495D01*
X378094D01*
Y200480D01*
X384020D01*
Y220020D01*
D02*
G37*
G36*
X549296Y180750D02*
X547704D01*
X547327Y180594D01*
X522500D01*
X522500Y180594D01*
X521029Y180301D01*
X519782Y179468D01*
X513111Y172797D01*
X512734Y172641D01*
X511609Y171516D01*
X511000Y170046D01*
Y168454D01*
X511609Y166984D01*
X512734Y165859D01*
X513111Y165703D01*
X528656Y150158D01*
Y131542D01*
X492182Y95068D01*
X491349Y93821D01*
X491056Y92350D01*
X491056Y92350D01*
Y60896D01*
X489362Y59918D01*
X487682Y58238D01*
X486495Y56182D01*
X485880Y53888D01*
Y51512D01*
X486495Y49218D01*
X487682Y47162D01*
X489362Y45482D01*
X491418Y44295D01*
X493713Y43680D01*
X496087D01*
X498382Y44295D01*
X500438Y45482D01*
X502118Y47162D01*
X503305Y49218D01*
X503920Y51512D01*
Y53888D01*
X503305Y56182D01*
X502118Y58238D01*
X500438Y59918D01*
X498744Y60896D01*
Y90758D01*
X535218Y127232D01*
X536051Y128479D01*
X536344Y129950D01*
X536344Y129950D01*
Y151750D01*
X536051Y153221D01*
X535218Y154468D01*
X535218Y154468D01*
X520436Y169250D01*
X524092Y172906D01*
X547327D01*
X547704Y172750D01*
X549296D01*
X550766Y173359D01*
X551891Y174484D01*
X552500Y175954D01*
Y177546D01*
X551891Y179016D01*
X550766Y180141D01*
X549296Y180750D01*
D02*
G37*
G36*
X379249Y179795D02*
X366249D01*
X364583Y179463D01*
X363171Y178519D01*
X362227Y177107D01*
X361896Y175441D01*
X362227Y173775D01*
X363171Y172362D01*
X364583Y171419D01*
X366249Y171087D01*
X379249D01*
X380915Y171419D01*
X382328Y172362D01*
X383271Y173775D01*
X383603Y175441D01*
X383271Y177107D01*
X382328Y178519D01*
X380915Y179463D01*
X379249Y179795D01*
D02*
G37*
G36*
X562796Y178750D02*
X561204D01*
X560046Y178270D01*
X556730D01*
Y170730D01*
X559703D01*
X560207Y169460D01*
X560005Y169270D01*
X556730D01*
Y161730D01*
X560649D01*
X561204Y161500D01*
X562796D01*
X563351Y161730D01*
X567270D01*
Y169270D01*
X563995D01*
X563793Y169460D01*
X564297Y170730D01*
X567270D01*
Y178270D01*
X563954D01*
X562796Y178750D01*
D02*
G37*
G36*
X285249Y167094D02*
X272249D01*
X270583Y166763D01*
X269171Y165819D01*
X268227Y164407D01*
X267896Y162741D01*
X268227Y161075D01*
X269171Y159662D01*
X270583Y158719D01*
X272249Y158387D01*
X285249D01*
X286915Y158719D01*
X288328Y159662D01*
X289271Y161075D01*
X289603Y162741D01*
X289271Y164407D01*
X288328Y165819D01*
X286915Y166763D01*
X285249Y167094D01*
D02*
G37*
G36*
X108811Y167899D02*
X100189D01*
X99937Y167794D01*
X98919D01*
Y166777D01*
X98815Y166524D01*
Y147485D01*
X98919Y147232D01*
Y146215D01*
X99937D01*
X100189Y146110D01*
X108811D01*
X109063Y146215D01*
X110081D01*
Y146584D01*
X123134Y153130D01*
X123870Y153130D01*
X123905Y153967D01*
X123889Y154192D01*
X123975Y154400D01*
Y159600D01*
X123889Y159808D01*
X123905Y160033D01*
X123870Y160870D01*
X123134Y160870D01*
X110081Y167425D01*
Y167794D01*
X109063D01*
X108811Y167899D01*
D02*
G37*
G36*
X285249Y154395D02*
X272249D01*
X270583Y154063D01*
X269171Y153119D01*
X268227Y151707D01*
X267896Y150041D01*
X268227Y148375D01*
X269171Y146962D01*
X270583Y146019D01*
X272249Y145687D01*
X285249D01*
X286915Y146019D01*
X288328Y146962D01*
X289271Y148375D01*
X289603Y150041D01*
X289271Y151707D01*
X288328Y153119D01*
X286915Y154063D01*
X285249Y154395D01*
D02*
G37*
G36*
Y141694D02*
X272249D01*
X270583Y141363D01*
X269171Y140419D01*
X268227Y139007D01*
X267896Y137341D01*
X268227Y135675D01*
X269171Y134262D01*
X270583Y133319D01*
X272249Y132987D01*
X285249D01*
X286915Y133319D01*
X288328Y134262D01*
X289271Y135675D01*
X289603Y137341D01*
X289271Y139007D01*
X288328Y140419D01*
X286915Y141363D01*
X285249Y141694D01*
D02*
G37*
G36*
X562796Y148500D02*
X561204D01*
X560649Y148270D01*
X556730D01*
Y140730D01*
X559218D01*
X559734Y139460D01*
X559539Y139270D01*
X556730D01*
Y131730D01*
X560649D01*
X561204Y131500D01*
X562796D01*
X563351Y131730D01*
X567270D01*
Y139270D01*
X564781D01*
X564266Y140540D01*
X564461Y140730D01*
X567270D01*
Y148270D01*
X563351D01*
X562796Y148500D01*
D02*
G37*
G36*
X285249Y128995D02*
X272249D01*
X270583Y128663D01*
X269171Y127719D01*
X268227Y126307D01*
X267896Y124641D01*
X268227Y122975D01*
X269171Y121562D01*
X270583Y120619D01*
X272249Y120287D01*
X285249D01*
X286915Y120619D01*
X288328Y121562D01*
X289271Y122975D01*
X289603Y124641D01*
X289271Y126307D01*
X288328Y127719D01*
X286915Y128663D01*
X285249Y128995D01*
D02*
G37*
G36*
X226706Y116121D02*
X224792D01*
X222943Y115625D01*
X221285Y114668D01*
X219932Y113315D01*
X219574Y112695D01*
X195429D01*
X194734Y112556D01*
X192500D01*
X192500Y112556D01*
X192128Y112483D01*
X183609D01*
Y97859D01*
X196270D01*
Y105007D01*
X219574D01*
X219932Y104387D01*
X221285Y103033D01*
X222943Y102076D01*
X224792Y101581D01*
X226706D01*
X228535Y102071D01*
X233362Y97244D01*
X234278Y96631D01*
X235359Y96417D01*
X235359Y96417D01*
X269001D01*
X269171Y96162D01*
X270583Y95219D01*
X272249Y94887D01*
X285249D01*
X286915Y95219D01*
X288328Y96162D01*
X289271Y97575D01*
X289603Y99241D01*
X289271Y100907D01*
X288328Y102319D01*
X286915Y103263D01*
X285249Y103595D01*
X272249D01*
X270583Y103263D01*
X269171Y102319D01*
X269001Y102065D01*
X236529D01*
X232529Y106065D01*
X233019Y107894D01*
Y109808D01*
X232524Y111657D01*
X231567Y113315D01*
X230213Y114668D01*
X228555Y115625D01*
X226706Y116121D01*
D02*
G37*
G36*
X196270Y168557D02*
X183609D01*
Y153933D01*
X196270D01*
Y155406D01*
X218479D01*
Y150381D01*
X222925D01*
Y130501D01*
X222925Y130501D01*
X223140Y129420D01*
X223752Y128504D01*
X242312Y109944D01*
X243228Y109332D01*
X244309Y109116D01*
X269001D01*
X269171Y108862D01*
X270583Y107919D01*
X272249Y107587D01*
X285249D01*
X286915Y107919D01*
X288328Y108862D01*
X289271Y110275D01*
X289603Y111941D01*
X289271Y113607D01*
X288328Y115019D01*
X286915Y115963D01*
X285249Y116294D01*
X272249D01*
X270583Y115963D01*
X269171Y115019D01*
X269001Y114765D01*
X245479D01*
X228573Y131671D01*
Y150381D01*
X233019D01*
Y164921D01*
X218479D01*
Y163094D01*
X196270D01*
Y168557D01*
D02*
G37*
G36*
X164849Y114020D02*
X163151D01*
X161581Y113370D01*
X160380Y112169D01*
X159730Y110599D01*
Y108901D01*
X160380Y107331D01*
X161581Y106130D01*
X163151Y105480D01*
X164849D01*
X166419Y106130D01*
X167620Y107331D01*
X168270Y108901D01*
Y110599D01*
X167620Y112169D01*
X166419Y113370D01*
X164849Y114020D01*
D02*
G37*
G36*
X379249Y103595D02*
X366249D01*
X364583Y103263D01*
X363171Y102319D01*
X362227Y100907D01*
X361896Y99241D01*
X362227Y97575D01*
X363171Y96162D01*
X364583Y95219D01*
X366249Y94887D01*
X379249D01*
X380915Y95219D01*
X382328Y96162D01*
X383271Y97575D01*
X383603Y99241D01*
X383271Y100907D01*
X382328Y102319D01*
X380915Y103263D01*
X379249Y103595D01*
D02*
G37*
G36*
Y90894D02*
X366249D01*
X364583Y90563D01*
X363171Y89619D01*
X362227Y88207D01*
X361896Y86541D01*
X362227Y84875D01*
X363171Y83462D01*
X364583Y82519D01*
X366249Y82187D01*
X379249D01*
X380915Y82519D01*
X382328Y83462D01*
X383271Y84875D01*
X383603Y86541D01*
X383271Y88207D01*
X382328Y89619D01*
X380915Y90563D01*
X379249Y90894D01*
D02*
G37*
G36*
X578770Y77770D02*
X561230D01*
Y69730D01*
X578770D01*
Y77770D01*
D02*
G37*
G36*
X529320Y61720D02*
X511280D01*
Y43680D01*
X529320D01*
Y61720D01*
D02*
G37*
G36*
X51000Y176375D02*
X40000D01*
X39028Y175972D01*
X38625Y175000D01*
Y164119D01*
X34733Y160227D01*
X34121Y159311D01*
X33906Y158230D01*
X33906Y158230D01*
Y95481D01*
X33906Y95481D01*
X34121Y94400D01*
X34733Y93484D01*
X48101Y80116D01*
X49017Y79504D01*
X50098Y79289D01*
X84090D01*
Y73952D01*
X90098D01*
X90250Y73922D01*
X98334D01*
X125253Y47003D01*
X125253Y47003D01*
X126169Y46391D01*
X127250Y46176D01*
X307080D01*
X315253Y38003D01*
X315253Y38003D01*
X316169Y37391D01*
X317250Y37176D01*
X317250Y37176D01*
X431400D01*
X431400Y37176D01*
X432481Y37391D01*
X433397Y38003D01*
X440029Y44635D01*
X440618Y44295D01*
X442912Y43680D01*
X445288D01*
X447582Y44295D01*
X449638Y45482D01*
X451318Y47162D01*
X452505Y49218D01*
X453120Y51512D01*
Y53888D01*
X452505Y56182D01*
X451318Y58238D01*
X449638Y59918D01*
X447582Y61105D01*
X445288Y61720D01*
X442912D01*
X440618Y61105D01*
X438562Y59918D01*
X436882Y58238D01*
X435695Y56182D01*
X435080Y53888D01*
Y51512D01*
X435695Y49218D01*
X436035Y48629D01*
X430230Y42824D01*
X426286D01*
X425370Y43680D01*
X425370Y44094D01*
Y61720D01*
X411324D01*
X404324Y68720D01*
Y74266D01*
X405594Y74615D01*
X406003Y74003D01*
X411003Y69003D01*
X411003Y69003D01*
X411919Y68391D01*
X413000Y68176D01*
X465830D01*
X466676Y67330D01*
Y61281D01*
X466018Y61105D01*
X463962Y59918D01*
X462282Y58238D01*
X461095Y56182D01*
X460480Y53888D01*
Y51512D01*
X461095Y49218D01*
X462282Y47162D01*
X463962Y45482D01*
X466018Y44295D01*
X468312Y43680D01*
X470687D01*
X472982Y44295D01*
X475038Y45482D01*
X476718Y47162D01*
X477905Y49218D01*
X478520Y51512D01*
Y53888D01*
X477905Y56182D01*
X476718Y58238D01*
X475038Y59918D01*
X472982Y61105D01*
X472324Y61281D01*
Y68500D01*
X472324Y68500D01*
X472109Y69581D01*
X471497Y70497D01*
X468997Y72997D01*
X468081Y73609D01*
X467000Y73824D01*
X467000Y73824D01*
X414170D01*
X410824Y77170D01*
Y146500D01*
X410824Y146500D01*
X410609Y147581D01*
X409997Y148497D01*
X393756Y164738D01*
X392840Y165350D01*
X391759Y165565D01*
X391759Y165565D01*
X382497D01*
X382328Y165819D01*
X380915Y166763D01*
X379249Y167094D01*
X366249D01*
X364583Y166763D01*
X363171Y165819D01*
X362227Y164407D01*
X361896Y162741D01*
X362227Y161075D01*
X363171Y159662D01*
X364583Y158719D01*
X366249Y158387D01*
X379249D01*
X380915Y158719D01*
X382328Y159662D01*
X382497Y159916D01*
X390589D01*
X405176Y145330D01*
Y139984D01*
X403906Y139635D01*
X403497Y140247D01*
X403497Y140247D01*
X391497Y152247D01*
X390581Y152859D01*
X389500Y153074D01*
X389500Y153074D01*
X382358D01*
X382328Y153119D01*
X380915Y154063D01*
X379249Y154395D01*
X366249D01*
X364583Y154063D01*
X363171Y153119D01*
X362227Y151707D01*
X361896Y150041D01*
X362227Y148375D01*
X363171Y146962D01*
X364583Y146019D01*
X366249Y145687D01*
X379249D01*
X380915Y146019D01*
X382328Y146962D01*
X382637Y147426D01*
X388330D01*
X398676Y137080D01*
Y132395D01*
X398621Y132359D01*
X397406Y132010D01*
X397247Y132247D01*
X397247Y132247D01*
X390156Y139338D01*
X389240Y139950D01*
X388159Y140165D01*
X388159Y140165D01*
X382497D01*
X382328Y140419D01*
X380915Y141363D01*
X379249Y141694D01*
X366249D01*
X364583Y141363D01*
X363171Y140419D01*
X362227Y139007D01*
X361896Y137341D01*
X362227Y135675D01*
X363171Y134262D01*
X364583Y133319D01*
X366249Y132987D01*
X379249D01*
X380915Y133319D01*
X382328Y134262D01*
X382497Y134516D01*
X386989D01*
X392426Y129080D01*
Y122895D01*
X391156Y122510D01*
X390997Y122747D01*
X390997Y122747D01*
X387106Y126638D01*
X386190Y127250D01*
X385109Y127465D01*
X385109Y127465D01*
X382497D01*
X382328Y127719D01*
X380915Y128663D01*
X379249Y128995D01*
X366249D01*
X364583Y128663D01*
X363171Y127719D01*
X362227Y126307D01*
X361896Y124641D01*
X362227Y122975D01*
X363171Y121562D01*
X364583Y120619D01*
X366249Y120287D01*
X379249D01*
X380915Y120619D01*
X382328Y121562D01*
X382497Y121817D01*
X383939D01*
X386176Y119580D01*
Y76420D01*
X383580Y73824D01*
X368000D01*
X366919Y73609D01*
X366003Y72997D01*
X366003Y72997D01*
X363553Y70547D01*
X362941Y69631D01*
X362726Y68550D01*
X362726Y68550D01*
Y61281D01*
X362068Y61105D01*
X360012Y59918D01*
X358332Y58238D01*
X357145Y56182D01*
X356530Y53888D01*
Y51512D01*
X357145Y49218D01*
X358332Y47162D01*
X360012Y45482D01*
X362068Y44295D01*
X362816Y44094D01*
X362649Y42824D01*
X343051D01*
X342883Y44094D01*
X343632Y44295D01*
X345688Y45482D01*
X347368Y47162D01*
X348555Y49218D01*
X349170Y51512D01*
Y53888D01*
X348555Y56182D01*
X347368Y58238D01*
X345688Y59918D01*
X343632Y61105D01*
X342974Y61281D01*
Y90172D01*
X361824Y109021D01*
X363117Y108943D01*
X363171Y108862D01*
X364583Y107919D01*
X366249Y107587D01*
X379249D01*
X380915Y107919D01*
X382328Y108862D01*
X383271Y110275D01*
X383603Y111941D01*
X383271Y113607D01*
X382328Y115019D01*
X380915Y115963D01*
X379249Y116294D01*
X366249D01*
X364583Y115963D01*
X363171Y115019D01*
X363001Y114765D01*
X360749D01*
X360749Y114765D01*
X359668Y114550D01*
X358752Y113938D01*
X358752Y113938D01*
X338153Y93339D01*
X337541Y92422D01*
X337326Y91342D01*
X337326Y91341D01*
Y61281D01*
X336668Y61105D01*
X334612Y59918D01*
X332932Y58238D01*
X331745Y56182D01*
X331130Y53888D01*
Y51512D01*
X331745Y49218D01*
X332932Y47162D01*
X334612Y45482D01*
X336668Y44295D01*
X337416Y44094D01*
X337249Y42824D01*
X318420D01*
X310247Y50997D01*
X309331Y51609D01*
X308250Y51824D01*
X308250Y51824D01*
X128420D01*
X101501Y78743D01*
X100585Y79356D01*
X99504Y79570D01*
X99504Y79570D01*
X96409D01*
Y88926D01*
X99667D01*
X100234Y88359D01*
X101704Y87750D01*
X103296D01*
X104766Y88359D01*
X105891Y89484D01*
X106500Y90954D01*
Y92546D01*
X105891Y94016D01*
X104766Y95141D01*
X103296Y95750D01*
X101704D01*
X100234Y95141D01*
X99667Y94574D01*
X96409D01*
Y103954D01*
X99486D01*
X99487Y103954D01*
X100567Y104169D01*
X101484Y104781D01*
X102203Y105500D01*
X103546D01*
X105016Y106109D01*
X106141Y107234D01*
X106750Y108704D01*
Y110296D01*
X106141Y111766D01*
X105016Y112891D01*
X103546Y113500D01*
X101954D01*
X100484Y112891D01*
X99359Y111766D01*
X98750Y110296D01*
Y110035D01*
X98317Y109602D01*
X90274D01*
X90001Y109548D01*
X84090D01*
Y104945D01*
X82820Y104592D01*
X82791Y104621D01*
X81951Y105183D01*
X80960Y105380D01*
X77770D01*
Y114520D01*
X66730D01*
Y111965D01*
X65270D01*
Y114020D01*
X54230D01*
Y104480D01*
X62908D01*
X63394Y103307D01*
X61607Y101520D01*
X54230D01*
Y91980D01*
X65270D01*
Y96888D01*
X65460Y97015D01*
X66730Y96336D01*
Y91480D01*
X77770D01*
Y94036D01*
X84090D01*
Y89207D01*
X53037D01*
X43824Y98420D01*
Y137625D01*
X51000D01*
X51972Y138028D01*
X52375Y139000D01*
Y147500D01*
X52200Y147921D01*
X52073Y148359D01*
X48074Y153359D01*
X48003Y153398D01*
X47972Y153472D01*
X47551Y153646D01*
X47152Y153866D01*
X47074Y153844D01*
X47000Y153875D01*
X40000D01*
X39554Y154172D01*
Y157060D01*
X42620Y160125D01*
X47000D01*
X47074Y160156D01*
X47152Y160134D01*
X47551Y160354D01*
X47972Y160528D01*
X48003Y160602D01*
X48074Y160641D01*
X52073Y165641D01*
X52200Y166079D01*
X52375Y166500D01*
Y175000D01*
X51972Y175972D01*
X51000Y176375D01*
D02*
G37*
%LPD*%
G36*
X92000Y161500D02*
X85000D01*
X81000Y166500D01*
Y175000D01*
X92000D01*
Y161500D01*
D02*
G37*
G36*
Y139000D02*
X81000D01*
Y147500D01*
X85000Y152500D01*
X92000D01*
Y139000D01*
D02*
G37*
G36*
X298800Y326750D02*
Y302250D01*
X271150Y298750D01*
X251550D01*
Y330250D01*
X271150D01*
X298800Y326750D01*
D02*
G37*
G36*
X363000Y267500D02*
X358000D01*
X346000Y261000D01*
X341050D01*
Y277500D01*
X346000D01*
X358000Y284000D01*
X363000D01*
Y267500D01*
D02*
G37*
G36*
X335800Y284750D02*
Y260250D01*
X331650D01*
Y256450D01*
X327350D01*
Y260250D01*
X316000D01*
X313116Y260750D01*
X313000D01*
Y260784D01*
X294524Y279260D01*
Y291350D01*
X304000Y303000D01*
Y319500D01*
X309000D01*
X335800Y284750D01*
D02*
G37*
G36*
X376650D02*
X388000D01*
Y284250D01*
X391000D01*
Y280250D01*
X388000D01*
Y277750D01*
X391000D01*
Y273750D01*
X388000D01*
Y271250D01*
X391000D01*
Y267250D01*
X388000D01*
Y264750D01*
X391000D01*
Y260750D01*
X388000D01*
Y260250D01*
X376650D01*
Y256450D01*
X372350D01*
Y260250D01*
X368200D01*
Y284750D01*
X372350D01*
Y288550D01*
X376650D01*
Y284750D01*
D02*
G37*
G36*
X122600Y159600D02*
Y154400D01*
X108811Y147485D01*
X100189D01*
Y166524D01*
X108811D01*
X122600Y159600D01*
D02*
G37*
G36*
X51000Y166500D02*
X47000Y161500D01*
X40000D01*
Y175000D01*
X51000D01*
Y166500D01*
D02*
G37*
G36*
Y147500D02*
Y139000D01*
X40000D01*
Y152500D01*
X47000D01*
X51000Y147500D01*
D02*
G37*
D16*
X243750Y259250D02*
D03*
Y244250D02*
D03*
D17*
X189939Y145208D02*
D03*
Y161245D02*
D03*
Y121208D02*
D03*
Y105171D02*
D03*
D18*
X138250Y98500D02*
D03*
Y106500D02*
D03*
X128000Y177500D02*
D03*
Y169500D02*
D03*
X138250Y85000D02*
D03*
Y77000D02*
D03*
X316000Y230750D02*
D03*
Y222750D02*
D03*
D19*
X104500Y175759D02*
D03*
Y162742D02*
D03*
Y151267D02*
D03*
Y138250D02*
D03*
D20*
X161250Y181250D02*
D03*
X154750Y201250D02*
D03*
X167750D02*
D03*
D21*
X128000Y157000D02*
D03*
X120000D02*
D03*
X138000Y157000D02*
D03*
X146000D02*
D03*
D22*
X86500Y145750D02*
D03*
X45500D02*
D03*
D23*
Y169500D02*
D03*
X86500D02*
D03*
D24*
X306500Y324250D02*
D03*
Y317750D02*
D03*
Y311250D02*
D03*
Y304750D02*
D03*
X360500Y282250D02*
D03*
Y275750D02*
D03*
Y269250D02*
D03*
Y262750D02*
D03*
X343500D02*
D03*
Y269250D02*
D03*
Y275750D02*
D03*
Y282250D02*
D03*
D25*
X261350Y314500D02*
D03*
X212250D02*
D03*
D26*
X378175Y272875D02*
D03*
X325825Y272125D02*
D03*
D27*
X266650Y285250D02*
D03*
X299350D02*
D03*
D28*
X254000D02*
D03*
X241000D02*
D03*
D29*
X332500Y244750D02*
D03*
Y232250D02*
D03*
X386750Y244750D02*
D03*
Y232250D02*
D03*
X59750Y96750D02*
D03*
Y109250D02*
D03*
D30*
X348000Y233750D02*
D03*
Y240250D02*
D03*
Y246750D02*
D03*
X367000D02*
D03*
Y240250D02*
D03*
Y233750D02*
D03*
D31*
X562000Y174500D02*
D03*
X578000D02*
D03*
X562000Y165500D02*
D03*
X578000D02*
D03*
X562000Y144500D02*
D03*
X578000D02*
D03*
X562000Y135500D02*
D03*
X578000D02*
D03*
D32*
X372749Y188141D02*
D03*
Y175441D02*
D03*
Y162741D02*
D03*
Y150041D02*
D03*
Y137341D02*
D03*
Y124641D02*
D03*
Y111941D02*
D03*
Y99241D02*
D03*
Y86541D02*
D03*
X278749D02*
D03*
Y99241D02*
D03*
Y111941D02*
D03*
Y124641D02*
D03*
Y137341D02*
D03*
Y150041D02*
D03*
Y162741D02*
D03*
Y175441D02*
D03*
Y188141D02*
D03*
D33*
X401250Y188000D02*
D03*
X392250D02*
D03*
D34*
X222000Y248750D02*
D03*
D35*
Y212250D02*
D03*
D36*
X121111Y76746D02*
D03*
Y81748D02*
D03*
Y86749D02*
D03*
Y91750D02*
D03*
Y96751D02*
D03*
Y101753D02*
D03*
Y106754D02*
D03*
X90250D02*
D03*
Y101753D02*
D03*
Y96751D02*
D03*
Y91750D02*
D03*
Y86749D02*
D03*
Y81748D02*
D03*
Y76746D02*
D03*
D37*
X72250Y96500D02*
D03*
Y109500D02*
D03*
D38*
X570000Y73750D02*
D03*
Y106250D02*
D03*
D39*
X278750Y246060D02*
D03*
D40*
X293750Y228250D02*
D03*
X263750D02*
D03*
D41*
X351250Y210250D02*
D03*
X377250D02*
D03*
D50*
X185500Y314500D02*
D03*
Y272500D02*
D03*
Y230500D02*
D03*
X143500Y314500D02*
D03*
Y272500D02*
D03*
X414500Y230500D02*
D03*
Y272500D02*
D03*
Y314500D02*
D03*
X456500Y230500D02*
D03*
Y272500D02*
D03*
D51*
X143500Y230500D02*
D03*
X456500Y314500D02*
D03*
D52*
X70500D02*
D03*
Y230500D02*
D03*
X529500D02*
D03*
Y314500D02*
D03*
D60*
X219000Y282500D02*
D03*
X190000Y133250D02*
D03*
X164000Y109750D02*
D03*
Y99250D02*
D03*
X394000Y201500D02*
D03*
D61*
X287400Y314500D02*
D03*
D62*
X167750Y212750D02*
X185500Y230500D01*
X167750Y201250D02*
Y212750D01*
X143500Y230500D02*
X154750Y219250D01*
Y201250D02*
Y219250D01*
X104500Y175759D02*
X106242Y177500D01*
X128000D01*
X93606Y175759D02*
X104500D01*
X87347Y169500D02*
X93606Y175759D01*
X86500Y169500D02*
X87347D01*
X144900Y153550D02*
Y155900D01*
X127850Y136500D02*
X144900Y153550D01*
X94000Y138250D02*
X104500D01*
X106250Y136500D02*
X127850D01*
X104500Y138250D02*
X106250Y136500D01*
X86500Y145750D02*
X94000Y138250D01*
X143500Y230500D02*
X160608D01*
X162365Y232257D02*
Y244792D01*
X124250Y248750D02*
X158407D01*
X160608Y230500D02*
X162365Y232257D01*
X113750Y238250D02*
X124250Y248750D01*
X109480Y240019D02*
X122481Y253020D01*
X158407Y248750D02*
X162365Y244792D01*
X160175Y253020D02*
X166635Y246561D01*
X168392Y230500D02*
X185500D01*
X122481Y253020D02*
X160175D01*
X166635Y232257D02*
Y246561D01*
Y232257D02*
X168392Y230500D01*
X113750Y216289D02*
Y238250D01*
X109480Y214520D02*
Y240019D01*
X119750Y204250D02*
X139933Y184067D01*
X119750Y204250D02*
Y204250D01*
X109480Y214520D02*
X119750Y204250D01*
X113750Y216289D02*
X144203Y185836D01*
Y170916D02*
Y185836D01*
X141195Y167908D02*
X144203Y170916D01*
X141195Y165423D02*
X144900Y161717D01*
X141195Y165423D02*
Y167908D01*
X131747Y174870D02*
X135690Y170927D01*
X130630Y174870D02*
X131747D01*
X138176Y170927D02*
X139933Y172684D01*
X135690Y170927D02*
X138176D01*
X139933Y172684D02*
Y184067D01*
X128000Y177500D02*
X130630Y174870D01*
X144900Y158100D02*
Y161717D01*
Y158100D02*
X146000Y157000D01*
X193250Y194750D02*
X207230D01*
X172750Y141250D02*
Y174250D01*
X193250Y194750D01*
X147750Y98500D02*
X148500Y99250D01*
X164000D01*
X102209Y109500D02*
X102750D01*
X90274Y106778D02*
X99487D01*
X102209Y109500D01*
X90250Y106754D02*
X90274Y106778D01*
X99504Y76746D02*
X127250Y49000D01*
X308250D02*
X317250Y40000D01*
X127250Y49000D02*
X308250D01*
X90250Y91750D02*
X102500D01*
X143500D02*
X168500Y66750D01*
X121111Y91750D02*
X143500D01*
X207230Y194750D02*
X222000Y209520D01*
X151500Y120000D02*
X172750Y141250D01*
X141250Y120000D02*
X151500D01*
X110000Y101753D02*
X121111D01*
X222000Y209520D02*
Y212250D01*
X185500Y272500D02*
X207250D01*
X222000Y248750D02*
Y257750D01*
X207250Y272500D02*
X222000Y257750D01*
X90250Y76746D02*
X99504D01*
X317250Y40000D02*
X431400D01*
X444100Y52700D01*
X41000Y97250D02*
X51867Y86383D01*
X41000Y140644D02*
X43231Y142874D01*
X36730Y95481D02*
Y158230D01*
Y95481D02*
X50098Y82113D01*
X41000Y97250D02*
Y140644D01*
X43231Y142874D02*
X44000D01*
X36730Y158230D02*
X43068Y164568D01*
X51867Y86383D02*
X86519D01*
X50098Y82113D02*
X86519D01*
X43068Y165201D02*
X45500Y167633D01*
Y169500D01*
X43068Y164568D02*
Y165201D01*
X45500Y144374D02*
Y145750D01*
X44000Y142874D02*
X45500Y144374D01*
X86519Y82113D02*
X86884Y81748D01*
X90250D01*
X86884Y86749D02*
X90250D01*
X86519Y86383D02*
X86884Y86749D01*
X121135Y76722D02*
X126528D01*
X141000Y62250D02*
X287750D01*
X121111Y76746D02*
X121135Y76722D01*
X126528D02*
X141000Y62250D01*
X168500Y66750D02*
X285500D01*
X295750Y77000D01*
X287750Y62250D02*
X301000Y75500D01*
X295750Y77000D02*
Y169250D01*
X301000Y75500D02*
Y178500D01*
X291359Y188141D02*
X301000Y178500D01*
X278749Y188141D02*
X291359D01*
X278897Y175292D02*
X289708D01*
X295750Y169250D01*
X278749Y175441D02*
X278897Y175292D01*
X225749Y130501D02*
X244309Y111941D01*
X225749Y130501D02*
Y157651D01*
X244309Y111941D02*
X278749D01*
X225749Y108851D02*
X235359Y99241D01*
X278749D01*
X306500Y324250D02*
Y327250D01*
X297500Y336250D02*
X306500Y327250D01*
X252750Y336250D02*
X297500D01*
X248000Y331500D02*
X252750Y336250D01*
X248000Y297750D02*
Y331500D01*
X251750Y287500D02*
Y294000D01*
X248000Y297750D02*
X251750Y294000D01*
Y287500D02*
X254000Y285250D01*
X408000Y76000D02*
X413000Y71000D01*
X467000D02*
X469500Y68500D01*
X413000Y71000D02*
X467000D01*
X384750D02*
X389000Y75250D01*
X368000Y71000D02*
X384750D01*
X365550Y68550D02*
X368000Y71000D01*
X469500Y52700D02*
Y68500D01*
X372749Y162741D02*
X391759D01*
X408000Y76000D02*
Y146500D01*
X391759Y162741D02*
X408000Y146500D01*
X372749Y137341D02*
X388159D01*
X395250Y72750D02*
Y130250D01*
X388159Y137341D02*
X395250Y130250D01*
X372958Y150250D02*
X389500D01*
X401500Y138250D01*
Y67550D02*
Y138250D01*
Y67550D02*
X416350Y52700D01*
X372749Y150041D02*
X372958Y150250D01*
X390950Y68450D02*
X395250Y72750D01*
X389000Y75250D02*
Y120750D01*
X385109Y124641D02*
X389000Y120750D01*
X390950Y52700D02*
Y68450D01*
X365550Y52700D02*
Y68550D01*
X372749Y124641D02*
X385109D01*
X360749Y111941D02*
X372749D01*
X340150Y91342D02*
X360749Y111941D01*
X340150Y52700D02*
Y91342D01*
D63*
X194923Y190710D02*
X243460D01*
X177000Y137750D02*
Y172787D01*
X194923Y190710D01*
X377750Y224000D02*
X386000Y232250D01*
X338500Y224000D02*
X377750D01*
X386000Y232250D02*
X386750D01*
X338460Y249960D02*
X342500Y254000D01*
X351000D02*
X359750Y262750D01*
X342500Y254000D02*
X351000D01*
X338460Y249960D02*
Y280027D01*
X335480Y246980D02*
X338460Y249960D01*
X340203Y281770D02*
X343020D01*
X338460Y280027D02*
X340203Y281770D01*
X343020D02*
X343500Y282250D01*
X332500Y244750D02*
X333250D01*
X335480Y246980D01*
X359750Y262750D02*
X360500D01*
X374810Y240925D02*
X378635Y244750D01*
X367000Y240250D02*
X367675Y240925D01*
X378635Y244750D02*
X386750D01*
X367675Y240925D02*
X374810D01*
X333270Y233020D02*
X347270D01*
X348000Y233750D01*
X332500Y232250D02*
X333270Y233020D01*
X323000Y208500D02*
X338500Y224000D01*
X261250Y208500D02*
X323000D01*
X243460Y190710D02*
X261250Y208500D01*
X153250Y114000D02*
X177000Y137750D01*
X121111Y106754D02*
X124476D01*
X131723Y114000D01*
X153250D01*
X136501Y86749D02*
X138250Y85000D01*
X121111Y86749D02*
X136501D01*
X138250Y85000D02*
X138375Y85125D01*
X136501Y96751D02*
X138250Y98500D01*
X121111Y96751D02*
X136501D01*
X72125Y109375D02*
X72250Y109500D01*
X59750Y109250D02*
X59875Y109375D01*
X72125D01*
X66540Y102790D02*
X80960D01*
X81997Y101753D02*
X90250D01*
X80960Y102790D02*
X81997Y101753D01*
X60500Y96750D02*
X66540Y102790D01*
X59750Y96750D02*
X60500D01*
X72376Y96626D02*
X90124D01*
X72250Y96500D02*
X72376Y96626D01*
X90124D02*
X90250Y96751D01*
D64*
X378363Y272687D02*
X414313D01*
X414500Y272500D01*
X378175Y272875D02*
X378363Y272687D01*
X414500Y230500D02*
Y272500D01*
X185500D02*
Y314500D01*
X212250D01*
D65*
X162500Y83750D02*
X192000D01*
X138250Y98500D02*
X147750D01*
X162500Y83750D01*
X494900Y52700D02*
Y92350D01*
X532500Y129950D02*
Y151750D01*
X494900Y92350D02*
X532500Y129950D01*
X515000Y169250D02*
X532500Y151750D01*
X515000Y169250D02*
X522500Y176750D01*
X548500D01*
X189939Y105171D02*
Y106152D01*
X192500Y108713D02*
X195291D01*
X195429Y108851D01*
X189939Y106152D02*
X192500Y108713D01*
X195429Y108851D02*
X225749D01*
X187887Y159250D02*
X224150D01*
X316000Y230750D02*
Y258867D01*
X224150Y159250D02*
X225749Y157651D01*
X316000Y258867D02*
X325825Y268692D01*
Y272125D01*
X293750Y230350D02*
X294150Y230750D01*
X316000D01*
X293750Y228250D02*
Y230350D01*
X254000Y285250D02*
X266650D01*
X392180Y188070D02*
X392250Y188000D01*
X372749Y188141D02*
X372820Y188070D01*
X392180D01*
X372749Y188141D02*
X373788D01*
X374250Y188603D02*
Y207250D01*
X373788Y188141D02*
X374250Y188603D01*
Y207250D02*
X377250Y210250D01*
D66*
X444100Y27300D02*
D03*
Y52700D02*
D03*
X469500Y27300D02*
D03*
X494900D02*
D03*
X469500Y52700D02*
D03*
X494900D02*
D03*
X520300Y27300D02*
D03*
X340150D02*
D03*
Y52700D02*
D03*
X365550Y27300D02*
D03*
X390950D02*
D03*
X365550Y52700D02*
D03*
X390950D02*
D03*
X416350Y27300D02*
D03*
D67*
X520300Y52700D02*
D03*
X416350D02*
D03*
D68*
X225749Y157651D02*
D03*
D69*
Y108851D02*
D03*
D70*
X259999Y143249D02*
D03*
X559999Y323249D02*
D03*
X574999Y293249D02*
D03*
X559999Y263249D02*
D03*
X574999Y233249D02*
D03*
X559999Y203249D02*
D03*
X544999Y293249D02*
D03*
X529999Y263249D02*
D03*
X544999Y113249D02*
D03*
X529999Y83249D02*
D03*
X499999Y323249D02*
D03*
X514999Y293249D02*
D03*
X499999Y263249D02*
D03*
X484999Y293249D02*
D03*
Y233249D02*
D03*
X469999Y83249D02*
D03*
X439999D02*
D03*
X424999Y113249D02*
D03*
X394999Y173249D02*
D03*
X349999Y143249D02*
D03*
X319999Y323249D02*
D03*
X334999Y293249D02*
D03*
X319999Y143249D02*
D03*
X334999Y113249D02*
D03*
X289999Y263249D02*
D03*
X259999D02*
D03*
X244999Y173249D02*
D03*
X214999Y233249D02*
D03*
X199999Y203249D02*
D03*
X214999Y173249D02*
D03*
X154999Y293249D02*
D03*
X139999Y203249D02*
D03*
X124999Y293249D02*
D03*
X109999Y203249D02*
D03*
X94999Y293249D02*
D03*
X79999Y263249D02*
D03*
X94999Y233249D02*
D03*
X79999Y203249D02*
D03*
X94999Y53249D02*
D03*
X49999Y323249D02*
D03*
X64999Y293249D02*
D03*
X49999Y263249D02*
D03*
Y203249D02*
D03*
X64999Y173249D02*
D03*
Y53249D02*
D03*
X19999Y323249D02*
D03*
X34999Y293249D02*
D03*
X19999Y263249D02*
D03*
X34999Y233249D02*
D03*
X19999Y203249D02*
D03*
Y143249D02*
D03*
Y83249D02*
D03*
X138000Y157000D02*
D03*
X164000Y109750D02*
D03*
X316000Y230750D02*
D03*
X102750Y109500D02*
D03*
X143250Y55500D02*
D03*
X137625D02*
D03*
X132000D02*
D03*
X102500Y91750D02*
D03*
X570000Y73750D02*
D03*
X401250Y188000D02*
D03*
X192000Y83750D02*
D03*
X517250Y140750D02*
D03*
X548500Y176750D02*
D03*
X515000Y169250D02*
D03*
X243750Y244250D02*
D03*
X386750Y244750D02*
D03*
X332500Y232250D02*
D03*
X141250Y120000D02*
D03*
X110000Y101753D02*
D03*
X161250Y180750D02*
D03*
X128000Y169500D02*
D03*
Y157000D02*
D03*
X507000Y169250D02*
D03*
X494500Y165500D02*
D03*
X278749Y175441D02*
D03*
Y188141D02*
D03*
X138250Y85000D02*
D03*
X72250Y96500D02*
D03*
Y109500D02*
D03*
X562000Y135500D02*
D03*
Y144500D02*
D03*
X562000Y174750D02*
D03*
Y165500D02*
D03*
X372749Y111941D02*
D03*
Y175441D02*
D03*
Y188141D02*
D03*
D71*
X360000Y319460D02*
D03*
X30000Y30000D02*
D03*
X570000D02*
D03*
D72*
X263625Y228125D02*
D03*
M02*
