G04*
G04 #@! TF.GenerationSoftware,Altium Limited,Altium Designer,24.4.1 (13)*
G04*
G04 Layer_Color=16711935*
%FSLAX44Y44*%
%MOMM*%
G71*
G04*
G04 #@! TF.SameCoordinates,2EB5ED4D-3302-4EB3-8F75-9365195E6A89*
G04*
G04*
G04 #@! TF.FilePolarity,Negative*
G04*
G01*
G75*
%ADD27R,0.4725X0.5393*%
%ADD30R,1.2546X1.4562*%
%ADD40R,0.5393X0.4725*%
%ADD44R,0.5200X0.5200*%
%ADD45R,0.5200X0.5200*%
%ADD56R,1.0000X0.9000*%
%ADD57R,1.2000X1.0500*%
%ADD58R,0.7500X0.7000*%
%ADD64R,0.9000X1.0000*%
%ADD69R,0.9500X1.1000*%
%ADD74C,2.6900*%
%ADD75C,2.0550*%
%ADD76C,0.6500*%
%ADD77C,4.1500*%
%ADD93R,2.0000X5.3000*%
%ADD94R,0.6500X2.6500*%
%ADD95R,0.6500X0.9000*%
%ADD96R,0.6750X0.4500*%
%ADD97R,1.0200X0.6400*%
%ADD99R,1.0121X1.2084*%
%ADD100R,2.8500X1.1500*%
%ADD101R,2.8500X3.4500*%
%ADD102R,1.0000X0.8500*%
%ADD103C,1.1500*%
D27*
X245000Y190000D02*
D03*
Y182668D02*
D03*
X258000Y209666D02*
D03*
Y202334D02*
D03*
D30*
X278258Y130000D02*
D03*
X261742D02*
D03*
D40*
X175000Y177000D02*
D03*
X182332D02*
D03*
X294419Y163000D02*
D03*
X301750D02*
D03*
X293919Y243000D02*
D03*
X301250D02*
D03*
D44*
X175000Y190000D02*
D03*
X183000D02*
D03*
D45*
X245000Y210000D02*
D03*
Y202000D02*
D03*
X245000Y229375D02*
D03*
Y221375D02*
D03*
D56*
X360000Y486750D02*
D03*
Y473750D02*
D03*
X419000Y487250D02*
D03*
Y474250D02*
D03*
D57*
X206750Y200834D02*
D03*
Y186334D02*
D03*
D58*
X130000Y230000D02*
D03*
X138500D02*
D03*
X130000Y245000D02*
D03*
X138500D02*
D03*
X183500Y163750D02*
D03*
X175000D02*
D03*
X280000Y210000D02*
D03*
X271500D02*
D03*
X278750Y230000D02*
D03*
X270250D02*
D03*
D64*
X589000Y363750D02*
D03*
X602000D02*
D03*
X348500Y485750D02*
D03*
X335500D02*
D03*
X407500Y486250D02*
D03*
X394500D02*
D03*
D69*
X588500Y313250D02*
D03*
X602000D02*
D03*
X588500Y326750D02*
D03*
X602000D02*
D03*
X588500Y376750D02*
D03*
X602000D02*
D03*
D74*
X225400Y95400D02*
D03*
X174600D02*
D03*
Y44600D02*
D03*
X225400D02*
D03*
D75*
X200000Y70000D02*
D03*
D76*
X406250Y296000D02*
D03*
X135000Y407500D02*
D03*
X155000D02*
D03*
X228500Y322500D02*
D03*
X245000D02*
D03*
X223000Y375000D02*
D03*
X240000Y401500D02*
D03*
X70000Y250000D02*
D03*
Y270000D02*
D03*
X419000Y487250D02*
D03*
X390000Y460000D02*
D03*
Y430000D02*
D03*
X137000Y280000D02*
D03*
X117000Y230000D02*
D03*
Y245000D02*
D03*
X140000Y260000D02*
D03*
X438258Y400000D02*
D03*
X455000Y228500D02*
D03*
X415000D02*
D03*
X435000D02*
D03*
X395000D02*
D03*
X588500Y313250D02*
D03*
Y326750D02*
D03*
X360000Y506250D02*
D03*
X394500Y486250D02*
D03*
X117000Y300000D02*
D03*
X290250Y347500D02*
D03*
X130000Y350000D02*
D03*
X421250Y302500D02*
D03*
X618000Y315500D02*
D03*
Y324500D02*
D03*
Y365500D02*
D03*
Y374500D02*
D03*
X330750Y140000D02*
D03*
X330000Y180000D02*
D03*
X301750Y163000D02*
D03*
X300250Y262000D02*
D03*
X130000Y230000D02*
D03*
Y245000D02*
D03*
X364250Y310000D02*
D03*
Y320000D02*
D03*
X482500Y366000D02*
D03*
X507500D02*
D03*
X569250Y335000D02*
D03*
Y345000D02*
D03*
X70000Y210000D02*
D03*
X410000Y337500D02*
D03*
X545400Y507300D02*
D03*
X230000Y313666D02*
D03*
X243500D02*
D03*
X140000Y401500D02*
D03*
X150000D02*
D03*
X602000Y315500D02*
D03*
Y324500D02*
D03*
Y365500D02*
D03*
Y374500D02*
D03*
X363000Y60000D02*
D03*
X477500Y420000D02*
D03*
X494600Y472700D02*
D03*
X495786Y225750D02*
D03*
X530786Y246500D02*
D03*
X570000Y367500D02*
D03*
X459500Y420000D02*
D03*
X485500D02*
D03*
X396250Y367500D02*
D03*
X360000Y473750D02*
D03*
X419000Y474250D02*
D03*
X461000Y169742D02*
D03*
X130000Y340000D02*
D03*
Y300000D02*
D03*
X170000Y200000D02*
D03*
Y210000D02*
D03*
X211000Y239000D02*
D03*
X200000D02*
D03*
X189000D02*
D03*
X211000Y250000D02*
D03*
X200000D02*
D03*
X189000D02*
D03*
X211000Y261000D02*
D03*
X200000D02*
D03*
X189000D02*
D03*
X200000Y150000D02*
D03*
X206750Y186334D02*
D03*
X230000Y220000D02*
D03*
Y210000D02*
D03*
Y200000D02*
D03*
D77*
X40000Y510000D02*
D03*
X610000D02*
D03*
Y40000D02*
D03*
X40000D02*
D03*
D93*
X297000Y60000D02*
D03*
X363000D02*
D03*
D94*
X217300Y140000D02*
D03*
X242700D02*
D03*
D95*
X222750Y163000D02*
D03*
X237250D02*
D03*
D96*
X200000Y169250D02*
D03*
Y160000D02*
D03*
X280000Y249250D02*
D03*
Y240000D02*
D03*
X257500Y220750D02*
D03*
Y230000D02*
D03*
X258000Y181709D02*
D03*
Y190959D02*
D03*
X270500Y181709D02*
D03*
Y190959D02*
D03*
X283000Y191375D02*
D03*
Y200625D02*
D03*
D97*
X200000Y150350D02*
D03*
Y137650D02*
D03*
D99*
X300750Y129269D02*
D03*
Y113231D02*
D03*
X300500Y209269D02*
D03*
Y193231D02*
D03*
D100*
X330750Y117000D02*
D03*
Y140000D02*
D03*
Y163000D02*
D03*
X330500Y243000D02*
D03*
Y220000D02*
D03*
Y197000D02*
D03*
D101*
X389750Y140000D02*
D03*
X389500Y220000D02*
D03*
D102*
X170000Y222500D02*
D03*
Y210000D02*
D03*
D103*
X598500Y178000D02*
D03*
M02*
