G04*
G04 #@! TF.GenerationSoftware,Altium Limited,Altium Designer,24.4.1 (13)*
G04*
G04 Layer_Physical_Order=3*
G04 Layer_Color=16440176*
%FSLAX44Y44*%
%MOMM*%
G71*
G04*
G04 #@! TF.SameCoordinates,2EB5ED4D-3302-4EB3-8F75-9365195E6A89*
G04*
G04*
G04 #@! TF.FilePolarity,Positive*
G04*
G01*
G75*
%ADD79C,0.5000*%
%ADD80C,0.3000*%
%ADD83C,1.0000*%
%ADD84C,0.7500*%
%ADD85C,2.5400*%
%ADD86C,1.9050*%
%ADD87C,0.5000*%
%ADD88C,1.0000*%
%ADD89C,4.0000*%
%ADD90C,1.5000*%
G36*
X610000Y547961D02*
X612488D01*
X617422Y547311D01*
X622228Y546023D01*
X626826Y544119D01*
X631135Y541631D01*
X635083Y538602D01*
X638602Y535083D01*
X641631Y531135D01*
X644119Y526826D01*
X646023Y522228D01*
X647311Y517422D01*
X647961Y512488D01*
X647961Y510000D01*
X647961Y40000D01*
Y37512D01*
X647311Y32578D01*
X646023Y27772D01*
X644119Y23174D01*
X641631Y18865D01*
X638602Y14917D01*
X635083Y11398D01*
X631135Y8369D01*
X626826Y5881D01*
X622228Y3977D01*
X617422Y2689D01*
X612488Y2039D01*
X610000Y2039D01*
X40000Y2039D01*
X37512Y2039D01*
X32578Y2689D01*
X27772Y3977D01*
X23174Y5881D01*
X18865Y8369D01*
X14917Y11398D01*
X11398Y14917D01*
X8369Y18865D01*
X5881Y23174D01*
X3977Y27772D01*
X2689Y32578D01*
X2039Y37512D01*
Y40000D01*
X2039Y510000D01*
Y512488D01*
X2689Y517422D01*
X3977Y522228D01*
X5881Y526826D01*
X8369Y531135D01*
X11398Y535083D01*
X14917Y538602D01*
X18865Y541631D01*
X23174Y544119D01*
X27771Y546023D01*
X32578Y547311D01*
X37512Y547961D01*
X40000Y547961D01*
X610000Y547961D01*
D02*
G37*
%LPC*%
G36*
X546196Y511300D02*
X544604D01*
X543134Y510691D01*
X542309Y509865D01*
X415550D01*
X414568Y509670D01*
X413736Y509114D01*
X394872Y490250D01*
X393704D01*
X392234Y489641D01*
X391409Y488815D01*
X381063D01*
X364000Y505878D01*
Y507046D01*
X363391Y508516D01*
X362266Y509641D01*
X360796Y510250D01*
X359204D01*
X357734Y509641D01*
X356609Y508516D01*
X356000Y507046D01*
Y505454D01*
X356609Y503984D01*
X357734Y502859D01*
X359204Y502250D01*
X360372D01*
X378186Y484436D01*
X379018Y483880D01*
X380000Y483685D01*
X391409D01*
X392234Y482859D01*
X393236Y482444D01*
X396415Y479265D01*
Y441485D01*
X390887Y435957D01*
X390000Y436134D01*
X387653Y435667D01*
X385663Y434337D01*
X384333Y432347D01*
X383866Y430000D01*
Y373750D01*
X384333Y371403D01*
X385663Y369413D01*
X391913Y363163D01*
X393903Y361833D01*
X396250Y361366D01*
X444959D01*
X478866Y327459D01*
Y310000D01*
X479333Y307653D01*
X480663Y305663D01*
X530063Y256263D01*
X529577Y255089D01*
X355335D01*
X326087Y284337D01*
X324097Y285667D01*
X321750Y286134D01*
X296384D01*
Y347500D01*
X295917Y349847D01*
X294587Y351837D01*
X292597Y353167D01*
X290250Y353634D01*
X287903Y353167D01*
X285913Y351837D01*
X284583Y349847D01*
X284116Y347500D01*
Y286134D01*
X139541D01*
X130848Y294827D01*
X131273Y296198D01*
X132266Y296609D01*
X133391Y297734D01*
X134000Y299204D01*
Y300796D01*
X133391Y302266D01*
X132266Y303391D01*
X130796Y304000D01*
X129204D01*
X127734Y303391D01*
X126609Y302266D01*
X126198Y301273D01*
X124827Y300848D01*
X121337Y304337D01*
X119347Y305667D01*
X117000Y306134D01*
X114653Y305667D01*
X112663Y304337D01*
X111333Y302347D01*
X110866Y300000D01*
X111333Y297653D01*
X112663Y295663D01*
X128326Y280000D01*
X112663Y264337D01*
X111333Y262347D01*
X110866Y260000D01*
Y245000D01*
Y232541D01*
X94459Y216134D01*
X70000D01*
X67653Y215667D01*
X65663Y214337D01*
X64333Y212347D01*
X63866Y210000D01*
X64333Y207653D01*
X65663Y205663D01*
X67653Y204333D01*
X70000Y203866D01*
X97000D01*
X99347Y204333D01*
X101337Y205663D01*
X121337Y225663D01*
X122667Y227653D01*
X123134Y230000D01*
Y245000D01*
Y257459D01*
X129693Y264018D01*
X130866Y263532D01*
Y263000D01*
X131333Y260653D01*
X132663Y258663D01*
X135663Y255663D01*
X137653Y254333D01*
X140000Y253866D01*
X142347Y254333D01*
X144337Y255663D01*
X145667Y257653D01*
X146134Y260000D01*
X145667Y262347D01*
X144337Y264337D01*
X143134Y265541D01*
Y273866D01*
X294116D01*
Y262000D01*
X294583Y259653D01*
X295913Y257663D01*
X297903Y256333D01*
X300250Y255866D01*
X302597Y256333D01*
X304587Y257663D01*
X305917Y259653D01*
X306384Y262000D01*
Y273866D01*
X319209D01*
X344839Y248236D01*
X295676Y199074D01*
X294311Y197295D01*
X293453Y195223D01*
X293161Y193000D01*
Y163000D01*
X293453Y160777D01*
X294311Y158705D01*
X295676Y156926D01*
X297455Y155561D01*
X299527Y154703D01*
X301750Y154410D01*
X303973Y154703D01*
X306045Y155561D01*
X307824Y156926D01*
X309189Y158705D01*
X310047Y160777D01*
X310340Y163000D01*
Y189442D01*
X358808Y237910D01*
X432435D01*
Y231591D01*
X431609Y230766D01*
X431000Y229296D01*
Y227704D01*
X431609Y226234D01*
X432734Y225109D01*
X434204Y224500D01*
X435796D01*
X437266Y225109D01*
X438391Y226234D01*
X439000Y227704D01*
Y229296D01*
X438391Y230766D01*
X437565Y231591D01*
Y237910D01*
X490926D01*
Y225750D01*
X491296Y223890D01*
X492350Y222314D01*
X493926Y221261D01*
X495786Y220891D01*
X497645Y221261D01*
X499222Y222314D01*
X500275Y223890D01*
X500645Y225750D01*
Y237910D01*
X548500D01*
X549963Y238103D01*
X553910Y234155D01*
Y214000D01*
X554203Y211777D01*
X555061Y209705D01*
X556426Y207926D01*
X592426Y171926D01*
X594205Y170561D01*
X596277Y169703D01*
X598500Y169410D01*
X600723Y169703D01*
X602795Y170561D01*
X604574Y171926D01*
X605939Y173705D01*
X606797Y175777D01*
X607090Y178000D01*
X606797Y180223D01*
X605939Y182295D01*
X604574Y184074D01*
X571090Y217558D01*
Y237713D01*
X570797Y239936D01*
X569939Y242008D01*
X568574Y243787D01*
X566741Y245619D01*
X587763Y266641D01*
X604250D01*
X606110Y267010D01*
X607686Y268064D01*
X621436Y281814D01*
X622490Y283390D01*
X622859Y285250D01*
Y315500D01*
Y324500D01*
Y345000D01*
Y365500D01*
Y374500D01*
X622490Y376360D01*
X621436Y377936D01*
X619860Y378989D01*
X618000Y379359D01*
X616140Y378989D01*
X614564Y377936D01*
X613511Y376360D01*
X613141Y374500D01*
Y365500D01*
Y348585D01*
X593985D01*
X573806Y368764D01*
X573391Y369766D01*
X572266Y370891D01*
X570796Y371500D01*
X569204D01*
X567734Y370891D01*
X566609Y369766D01*
X566000Y368296D01*
Y366704D01*
X566609Y365234D01*
X567734Y364109D01*
X568736Y363694D01*
X589965Y342465D01*
X591128Y341688D01*
X592500Y341415D01*
X613141D01*
Y324500D01*
Y315500D01*
Y287263D01*
X602237Y276359D01*
X585750D01*
X583890Y275989D01*
X582314Y274936D01*
X559869Y252491D01*
X559787Y252574D01*
X558008Y253939D01*
X555936Y254797D01*
X553713Y255089D01*
X551490Y254797D01*
X551107Y254638D01*
X550723Y254797D01*
X548598Y255077D01*
X491134Y312541D01*
Y330000D01*
X490667Y332347D01*
X489337Y334337D01*
X451837Y371837D01*
X449847Y373167D01*
X447500Y373634D01*
X422226D01*
X421740Y374807D01*
X442595Y395663D01*
X443925Y397653D01*
X444392Y400000D01*
Y405717D01*
X452541Y413866D01*
X459500D01*
X461847Y414333D01*
X463837Y415663D01*
X465167Y417653D01*
X465634Y420000D01*
X465235Y422008D01*
X466065Y422935D01*
X473119D01*
X473860Y421665D01*
X473500Y420796D01*
Y419204D01*
X474109Y417734D01*
X475234Y416609D01*
X476704Y416000D01*
X478296D01*
X479766Y416609D01*
X480780Y417623D01*
X481500Y417683D01*
X482220Y417623D01*
X483234Y416609D01*
X484704Y416000D01*
X486296D01*
X487766Y416609D01*
X488891Y417734D01*
X489500Y419204D01*
Y420796D01*
X488891Y422266D01*
X487766Y423391D01*
X486296Y424000D01*
X485128D01*
X481814Y427314D01*
X480982Y427870D01*
X480000Y428065D01*
X465000D01*
X464018Y427870D01*
X463186Y427314D01*
X461590Y425718D01*
X459500Y426134D01*
X450000D01*
X447653Y425667D01*
X445663Y424337D01*
X433921Y412595D01*
X432591Y410605D01*
X432124Y408258D01*
Y402541D01*
X403217Y373634D01*
X398791D01*
X396134Y376291D01*
Y430000D01*
X395957Y430887D01*
X402535Y437465D01*
X403312Y438628D01*
X403585Y440000D01*
Y480750D01*
X403312Y482122D01*
X402535Y483285D01*
X398849Y486971D01*
X416613Y504735D01*
X542309D01*
X543134Y503909D01*
X544604Y503300D01*
X546196D01*
X547666Y503909D01*
X548791Y505034D01*
X549400Y506504D01*
Y508096D01*
X548791Y509566D01*
X547666Y510691D01*
X546196Y511300D01*
D02*
G37*
G36*
X419796Y491250D02*
X418204D01*
X416734Y490641D01*
X415609Y489516D01*
X415000Y488046D01*
Y486454D01*
X415609Y484984D01*
X416734Y483859D01*
X418204Y483250D01*
X419796D01*
X421266Y483859D01*
X422391Y484984D01*
X423000Y486454D01*
Y488046D01*
X422391Y489516D01*
X421266Y490641D01*
X419796Y491250D01*
D02*
G37*
G36*
Y478250D02*
X418204D01*
X416734Y477641D01*
X415609Y476516D01*
X415000Y475046D01*
Y473454D01*
X415609Y471984D01*
X416734Y470859D01*
X418204Y470250D01*
X419796D01*
X421266Y470859D01*
X422391Y471984D01*
X423000Y473454D01*
Y475046D01*
X422391Y476516D01*
X421266Y477641D01*
X419796Y478250D01*
D02*
G37*
G36*
X360796Y477750D02*
X359204D01*
X357734Y477141D01*
X356609Y476016D01*
X356000Y474546D01*
Y472954D01*
X356609Y471484D01*
X357734Y470359D01*
X359204Y469750D01*
X360796D01*
X362266Y470359D01*
X363391Y471484D01*
X364000Y472954D01*
Y474546D01*
X363391Y476016D01*
X362266Y477141D01*
X360796Y477750D01*
D02*
G37*
G36*
X495396Y476700D02*
X493804D01*
X492334Y476091D01*
X491209Y474966D01*
X490600Y473496D01*
Y471904D01*
X491209Y470434D01*
X492334Y469309D01*
X493804Y468700D01*
X495396D01*
X496866Y469309D01*
X497991Y470434D01*
X498600Y471904D01*
Y473496D01*
X497991Y474966D01*
X496866Y476091D01*
X495396Y476700D01*
D02*
G37*
G36*
X390796Y464000D02*
X389204D01*
X387734Y463391D01*
X386609Y462266D01*
X386000Y460796D01*
Y459204D01*
X386609Y457734D01*
X387734Y456609D01*
X389204Y456000D01*
X390796D01*
X392266Y456609D01*
X393391Y457734D01*
X394000Y459204D01*
Y460796D01*
X393391Y462266D01*
X392266Y463391D01*
X390796Y464000D01*
D02*
G37*
G36*
X240796Y405500D02*
X239204D01*
X237734Y404891D01*
X236609Y403766D01*
X236000Y402296D01*
Y400704D01*
X236609Y399234D01*
X237734Y398109D01*
X239204Y397500D01*
X240796D01*
X242266Y398109D01*
X243391Y399234D01*
X244000Y400704D01*
Y402296D01*
X243391Y403766D01*
X242266Y404891D01*
X240796Y405500D01*
D02*
G37*
G36*
X150796D02*
X149204D01*
X147734Y404891D01*
X146609Y403766D01*
X146000Y402296D01*
Y400704D01*
X146609Y399234D01*
X147734Y398109D01*
X149204Y397500D01*
X150796D01*
X152266Y398109D01*
X153391Y399234D01*
X154000Y400704D01*
Y402296D01*
X153391Y403766D01*
X152266Y404891D01*
X150796Y405500D01*
D02*
G37*
G36*
X140796D02*
X139204D01*
X137734Y404891D01*
X136609Y403766D01*
X136000Y402296D01*
Y400704D01*
X136609Y399234D01*
X137734Y398109D01*
X139204Y397500D01*
X140796D01*
X142266Y398109D01*
X143391Y399234D01*
X144000Y400704D01*
Y402296D01*
X143391Y403766D01*
X142266Y404891D01*
X140796Y405500D01*
D02*
G37*
G36*
X223796Y379000D02*
X222204D01*
X220734Y378391D01*
X219609Y377266D01*
X219000Y375796D01*
Y374204D01*
X219609Y372734D01*
X220734Y371609D01*
X222204Y371000D01*
X223796D01*
X225266Y371609D01*
X226391Y372734D01*
X227000Y374204D01*
Y375796D01*
X226391Y377266D01*
X225266Y378391D01*
X223796Y379000D01*
D02*
G37*
G36*
X508296Y370000D02*
X506704D01*
X505234Y369391D01*
X504109Y368266D01*
X503500Y366796D01*
Y365204D01*
X504109Y363734D01*
X505234Y362609D01*
X506704Y362000D01*
X508296D01*
X509766Y362609D01*
X510891Y363734D01*
X511500Y365204D01*
Y366796D01*
X510891Y368266D01*
X509766Y369391D01*
X508296Y370000D01*
D02*
G37*
G36*
X483296D02*
X481704D01*
X480234Y369391D01*
X479109Y368266D01*
X478500Y366796D01*
Y365204D01*
X479109Y363734D01*
X480234Y362609D01*
X481704Y362000D01*
X483296D01*
X484766Y362609D01*
X485891Y363734D01*
X486500Y365204D01*
Y366796D01*
X485891Y368266D01*
X484766Y369391D01*
X483296Y370000D01*
D02*
G37*
G36*
X602796Y378500D02*
X601204D01*
X599734Y377891D01*
X598609Y376766D01*
X598000Y375296D01*
Y373704D01*
X598609Y372234D01*
X599734Y371109D01*
X600786Y370673D01*
Y369327D01*
X599734Y368891D01*
X598609Y367766D01*
X598000Y366296D01*
Y364704D01*
X598609Y363234D01*
X599734Y362109D01*
X601204Y361500D01*
X602796D01*
X604266Y362109D01*
X605391Y363234D01*
X606000Y364704D01*
Y366296D01*
X605391Y367766D01*
X604266Y368891D01*
X603214Y369327D01*
Y370673D01*
X604266Y371109D01*
X605391Y372234D01*
X606000Y373704D01*
Y375296D01*
X605391Y376766D01*
X604266Y377891D01*
X602796Y378500D01*
D02*
G37*
G36*
X130796Y354000D02*
X129204D01*
X127734Y353391D01*
X126609Y352266D01*
X126000Y350796D01*
Y349204D01*
X126609Y347734D01*
X127734Y346609D01*
X129204Y346000D01*
X130796D01*
X132266Y346609D01*
X133391Y347734D01*
X134000Y349204D01*
Y350796D01*
X133391Y352266D01*
X132266Y353391D01*
X130796Y354000D01*
D02*
G37*
G36*
X570046Y349000D02*
X568454D01*
X566984Y348391D01*
X565859Y347266D01*
X565250Y345796D01*
Y344204D01*
X565859Y342734D01*
X566984Y341609D01*
X568454Y341000D01*
X570046D01*
X571516Y341609D01*
X572641Y342734D01*
X573250Y344204D01*
Y345796D01*
X572641Y347266D01*
X571516Y348391D01*
X570046Y349000D01*
D02*
G37*
G36*
X130796Y344000D02*
X129204D01*
X127734Y343391D01*
X126609Y342266D01*
X126000Y340796D01*
Y339204D01*
X126609Y337734D01*
X127734Y336609D01*
X129204Y336000D01*
X130796D01*
X132266Y336609D01*
X133391Y337734D01*
X134000Y339204D01*
Y340796D01*
X133391Y342266D01*
X132266Y343391D01*
X130796Y344000D01*
D02*
G37*
G36*
X410796Y341500D02*
X409204D01*
X407734Y340891D01*
X406609Y339766D01*
X406000Y338296D01*
Y336704D01*
X406609Y335234D01*
X407734Y334109D01*
X409204Y333500D01*
X410796D01*
X412266Y334109D01*
X413391Y335234D01*
X414000Y336704D01*
Y338296D01*
X413391Y339766D01*
X412266Y340891D01*
X410796Y341500D01*
D02*
G37*
G36*
X570046Y339000D02*
X568454D01*
X566984Y338391D01*
X565859Y337266D01*
X565250Y335796D01*
Y334204D01*
X565859Y332734D01*
X566984Y331609D01*
X568454Y331000D01*
X570046D01*
X571516Y331609D01*
X572641Y332734D01*
X573250Y334204D01*
Y335796D01*
X572641Y337266D01*
X571516Y338391D01*
X570046Y339000D01*
D02*
G37*
G36*
X589296Y330750D02*
X587704D01*
X586234Y330141D01*
X585109Y329016D01*
X584500Y327546D01*
Y325954D01*
X585109Y324484D01*
X586234Y323359D01*
X587704Y322750D01*
X589296D01*
X590766Y323359D01*
X591891Y324484D01*
X592500Y325954D01*
Y327546D01*
X591891Y329016D01*
X590766Y330141D01*
X589296Y330750D01*
D02*
G37*
G36*
X365046Y324000D02*
X363454D01*
X361984Y323391D01*
X360859Y322266D01*
X360250Y320796D01*
Y319204D01*
X360859Y317734D01*
X361984Y316609D01*
X363454Y316000D01*
X365046D01*
X366516Y316609D01*
X367641Y317734D01*
X368250Y319204D01*
Y320796D01*
X367641Y322266D01*
X366516Y323391D01*
X365046Y324000D01*
D02*
G37*
G36*
X602796Y328500D02*
X601204D01*
X599734Y327891D01*
X598609Y326766D01*
X598000Y325296D01*
Y323704D01*
X598609Y322234D01*
X599734Y321109D01*
X600786Y320673D01*
Y319327D01*
X599734Y318891D01*
X598609Y317766D01*
X598000Y316296D01*
Y314704D01*
X598609Y313234D01*
X599734Y312109D01*
X601204Y311500D01*
X602796D01*
X604266Y312109D01*
X605391Y313234D01*
X606000Y314704D01*
Y316296D01*
X605391Y317766D01*
X604266Y318891D01*
X603214Y319327D01*
Y320673D01*
X604266Y321109D01*
X605391Y322234D01*
X606000Y323704D01*
Y325296D01*
X605391Y326766D01*
X604266Y327891D01*
X602796Y328500D01*
D02*
G37*
G36*
X244296Y317666D02*
X242704D01*
X241234Y317057D01*
X240109Y315931D01*
X239500Y314461D01*
Y312870D01*
X240109Y311400D01*
X241234Y310275D01*
X242704Y309666D01*
X244296D01*
X245766Y310275D01*
X246891Y311400D01*
X247500Y312870D01*
Y314461D01*
X246891Y315931D01*
X245766Y317057D01*
X244296Y317666D01*
D02*
G37*
G36*
X230796D02*
X229204D01*
X227734Y317057D01*
X226609Y315931D01*
X226000Y314461D01*
Y312870D01*
X226609Y311400D01*
X227734Y310275D01*
X229204Y309666D01*
X230796D01*
X232266Y310275D01*
X233391Y311400D01*
X234000Y312870D01*
Y314461D01*
X233391Y315931D01*
X232266Y317057D01*
X230796Y317666D01*
D02*
G37*
G36*
X589296Y317250D02*
X587704D01*
X586234Y316641D01*
X585109Y315516D01*
X584500Y314046D01*
Y312454D01*
X585109Y310984D01*
X586234Y309859D01*
X587704Y309250D01*
X589296D01*
X590766Y309859D01*
X591891Y310984D01*
X592500Y312454D01*
Y314046D01*
X591891Y315516D01*
X590766Y316641D01*
X589296Y317250D01*
D02*
G37*
G36*
X365046Y314000D02*
X363454D01*
X361984Y313391D01*
X360859Y312266D01*
X360250Y310796D01*
Y309204D01*
X360859Y307734D01*
X361984Y306609D01*
X363454Y306000D01*
X365046D01*
X366516Y306609D01*
X367641Y307734D01*
X368250Y309204D01*
Y310796D01*
X367641Y312266D01*
X366516Y313391D01*
X365046Y314000D01*
D02*
G37*
G36*
X422046Y306500D02*
X420454D01*
X418984Y305891D01*
X417859Y304766D01*
X417250Y303296D01*
Y301704D01*
X417859Y300234D01*
X418984Y299109D01*
X420454Y298500D01*
X422046D01*
X423516Y299109D01*
X424641Y300234D01*
X425250Y301704D01*
Y303296D01*
X424641Y304766D01*
X423516Y305891D01*
X422046Y306500D01*
D02*
G37*
G36*
X407046Y300000D02*
X405454D01*
X403984Y299391D01*
X402859Y298266D01*
X402250Y296796D01*
Y295204D01*
X402859Y293734D01*
X403984Y292609D01*
X405454Y292000D01*
X407046D01*
X408516Y292609D01*
X409641Y293734D01*
X410250Y295204D01*
Y296796D01*
X409641Y298266D01*
X408516Y299391D01*
X407046Y300000D01*
D02*
G37*
G36*
X70796Y274000D02*
X69204D01*
X67734Y273391D01*
X66609Y272266D01*
X66000Y270796D01*
Y269204D01*
X66609Y267734D01*
X67734Y266609D01*
X69204Y266000D01*
X70796D01*
X72266Y266609D01*
X73391Y267734D01*
X74000Y269204D01*
Y270796D01*
X73391Y272266D01*
X72266Y273391D01*
X70796Y274000D01*
D02*
G37*
G36*
Y254000D02*
X69204D01*
X67734Y253391D01*
X66609Y252266D01*
X66000Y250796D01*
Y249204D01*
X66609Y247734D01*
X67734Y246609D01*
X69204Y246000D01*
X70796D01*
X72266Y246609D01*
X73391Y247734D01*
X74000Y249204D01*
Y250796D01*
X73391Y252266D01*
X72266Y253391D01*
X70796Y254000D01*
D02*
G37*
G36*
X130796Y249000D02*
X129204D01*
X127734Y248391D01*
X126609Y247266D01*
X126000Y245796D01*
Y244204D01*
X126609Y242734D01*
X127734Y241609D01*
X129204Y241000D01*
X130796D01*
X132266Y241609D01*
X133391Y242734D01*
X134000Y244204D01*
Y245796D01*
X133391Y247266D01*
X132266Y248391D01*
X130796Y249000D01*
D02*
G37*
G36*
Y234000D02*
X129204D01*
X127734Y233391D01*
X126609Y232266D01*
X126000Y230796D01*
Y229204D01*
X126609Y227734D01*
X127734Y226609D01*
X129204Y226000D01*
X130796D01*
X132266Y226609D01*
X133391Y227734D01*
X134000Y229204D01*
Y230796D01*
X133391Y232266D01*
X132266Y233391D01*
X130796Y234000D01*
D02*
G37*
G36*
X455796Y232500D02*
X454204D01*
X452734Y231891D01*
X451609Y230766D01*
X451000Y229296D01*
Y227704D01*
X451609Y226234D01*
X452734Y225109D01*
X454204Y224500D01*
X455796D01*
X457266Y225109D01*
X458391Y226234D01*
X459000Y227704D01*
Y229296D01*
X458391Y230766D01*
X457266Y231891D01*
X455796Y232500D01*
D02*
G37*
G36*
X415796D02*
X414204D01*
X412734Y231891D01*
X411609Y230766D01*
X411000Y229296D01*
Y227704D01*
X411609Y226234D01*
X412734Y225109D01*
X414204Y224500D01*
X415796D01*
X417266Y225109D01*
X418391Y226234D01*
X419000Y227704D01*
Y229296D01*
X418391Y230766D01*
X417266Y231891D01*
X415796Y232500D01*
D02*
G37*
G36*
X395796D02*
X394204D01*
X392734Y231891D01*
X391609Y230766D01*
X391000Y229296D01*
Y227704D01*
X391609Y226234D01*
X392734Y225109D01*
X394204Y224500D01*
X395796D01*
X397266Y225109D01*
X398391Y226234D01*
X399000Y227704D01*
Y229296D01*
X398391Y230766D01*
X397266Y231891D01*
X395796Y232500D01*
D02*
G37*
G36*
X230796Y224000D02*
X229204D01*
X227734Y223391D01*
X226609Y222266D01*
X226000Y220796D01*
Y219204D01*
X226609Y217734D01*
X227734Y216609D01*
X229204Y216000D01*
X230796D01*
X232266Y216609D01*
X233391Y217734D01*
X234000Y219204D01*
Y220796D01*
X233391Y222266D01*
X232266Y223391D01*
X230796Y224000D01*
D02*
G37*
G36*
Y214000D02*
X229204D01*
X227734Y213391D01*
X226609Y212266D01*
X226000Y210796D01*
Y209204D01*
X226609Y207734D01*
X227734Y206609D01*
X229204Y206000D01*
X230796D01*
X232266Y206609D01*
X233391Y207734D01*
X234000Y209204D01*
Y210796D01*
X233391Y212266D01*
X232266Y213391D01*
X230796Y214000D01*
D02*
G37*
G36*
X170796D02*
X169204D01*
X167734Y213391D01*
X166609Y212266D01*
X166000Y210796D01*
Y209204D01*
X166609Y207734D01*
X167734Y206609D01*
X169204Y206000D01*
X170796D01*
X172266Y206609D01*
X173391Y207734D01*
X174000Y209204D01*
Y210796D01*
X173391Y212266D01*
X172266Y213391D01*
X170796Y214000D01*
D02*
G37*
G36*
X230796Y204000D02*
X229204D01*
X227734Y203391D01*
X226609Y202266D01*
X226000Y200796D01*
Y199204D01*
X226609Y197734D01*
X227734Y196609D01*
X229204Y196000D01*
X230796D01*
X232266Y196609D01*
X233391Y197734D01*
X234000Y199204D01*
Y200796D01*
X233391Y202266D01*
X232266Y203391D01*
X230796Y204000D01*
D02*
G37*
G36*
X170796D02*
X169204D01*
X167734Y203391D01*
X166609Y202266D01*
X166000Y200796D01*
Y199204D01*
X166609Y197734D01*
X167734Y196609D01*
X169204Y196000D01*
X170796D01*
X172266Y196609D01*
X173391Y197734D01*
X174000Y199204D01*
Y200796D01*
X173391Y202266D01*
X172266Y203391D01*
X170796Y204000D01*
D02*
G37*
G36*
X207546Y190334D02*
X205954D01*
X204484Y189725D01*
X203359Y188600D01*
X202750Y187130D01*
Y185539D01*
X203359Y184069D01*
X204484Y182943D01*
X205954Y182334D01*
X207546D01*
X209016Y182943D01*
X210141Y184069D01*
X210750Y185539D01*
Y187130D01*
X210141Y188600D01*
X209016Y189725D01*
X207546Y190334D01*
D02*
G37*
G36*
X330796Y184000D02*
X329204D01*
X327734Y183391D01*
X326609Y182266D01*
X326000Y180796D01*
Y179204D01*
X326609Y177734D01*
X327734Y176609D01*
X329204Y176000D01*
X330796D01*
X332266Y176609D01*
X333391Y177734D01*
X334000Y179204D01*
Y180796D01*
X333391Y182266D01*
X332266Y183391D01*
X330796Y184000D01*
D02*
G37*
G36*
X461796Y173742D02*
X460204D01*
X458734Y173133D01*
X457609Y172008D01*
X457000Y170538D01*
Y168946D01*
X457609Y167476D01*
X458734Y166351D01*
X460204Y165742D01*
X461796D01*
X463266Y166351D01*
X464391Y167476D01*
X465000Y168946D01*
Y170538D01*
X464391Y172008D01*
X463266Y173133D01*
X461796Y173742D01*
D02*
G37*
G36*
X200796Y154000D02*
X199204D01*
X197734Y153391D01*
X196609Y152266D01*
X196000Y150796D01*
Y149204D01*
X196609Y147734D01*
X197734Y146609D01*
X199204Y146000D01*
X200796D01*
X202266Y146609D01*
X203391Y147734D01*
X204000Y149204D01*
Y150796D01*
X203391Y152266D01*
X202266Y153391D01*
X200796Y154000D01*
D02*
G37*
G36*
X331546Y144000D02*
X329954D01*
X328484Y143391D01*
X327359Y142266D01*
X326750Y140796D01*
Y139204D01*
X327359Y137734D01*
X328484Y136609D01*
X329954Y136000D01*
X331546D01*
X333016Y136609D01*
X334141Y137734D01*
X334750Y139204D01*
Y140796D01*
X334141Y142266D01*
X333016Y143391D01*
X331546Y144000D01*
D02*
G37*
G36*
X227206Y109116D02*
X225907D01*
Y95909D01*
X239116D01*
Y97206D01*
X238181Y100694D01*
X236376Y103822D01*
X233822Y106376D01*
X230694Y108181D01*
X227206Y109116D01*
D02*
G37*
G36*
X176406D02*
X175107D01*
Y95909D01*
X188316D01*
Y97206D01*
X187381Y100694D01*
X185576Y103822D01*
X183022Y106376D01*
X179894Y108181D01*
X176406Y109116D01*
D02*
G37*
G36*
X224891D02*
X223594D01*
X220106Y108181D01*
X216978Y106376D01*
X214424Y103822D01*
X212619Y100694D01*
X211684Y97206D01*
Y95909D01*
X224891D01*
Y109116D01*
D02*
G37*
G36*
X174091D02*
X172794D01*
X169306Y108181D01*
X166178Y106376D01*
X163624Y103822D01*
X161819Y100694D01*
X160884Y97206D01*
Y95909D01*
X174091D01*
Y109116D01*
D02*
G37*
G36*
X239116Y94893D02*
X225907D01*
Y81684D01*
X227206D01*
X230694Y82619D01*
X233822Y84424D01*
X236376Y86978D01*
X238181Y90106D01*
X239116Y93594D01*
Y94893D01*
D02*
G37*
G36*
X224891D02*
X211684D01*
Y93594D01*
X212619Y90106D01*
X214424Y86978D01*
X216978Y84424D01*
X220106Y82619D01*
X223594Y81684D01*
X224891D01*
Y94893D01*
D02*
G37*
G36*
X188316D02*
X175107D01*
Y81684D01*
X176406D01*
X179894Y82619D01*
X183022Y84424D01*
X185576Y86978D01*
X187381Y90106D01*
X188316Y93594D01*
Y94893D01*
D02*
G37*
G36*
X174091D02*
X160884D01*
Y93594D01*
X161819Y90106D01*
X163624Y86978D01*
X166178Y84424D01*
X169306Y82619D01*
X172794Y81684D01*
X174091D01*
Y94893D01*
D02*
G37*
G36*
X201451Y81025D02*
X198549D01*
X195745Y80274D01*
X193231Y78822D01*
X191178Y76769D01*
X189726Y74255D01*
X188975Y71451D01*
Y68548D01*
X189726Y65745D01*
X191178Y63231D01*
X193231Y61178D01*
X195745Y59726D01*
X198549Y58975D01*
X201451D01*
X204256Y59726D01*
X206770Y61178D01*
X208822Y63231D01*
X210274Y65745D01*
X211025Y68548D01*
Y71451D01*
X210274Y74255D01*
X208822Y76769D01*
X206770Y78822D01*
X204256Y80274D01*
X201451Y81025D01*
D02*
G37*
G36*
X363796Y64000D02*
X362204D01*
X360734Y63391D01*
X359609Y62266D01*
X359000Y60796D01*
Y59204D01*
X359609Y57734D01*
X360734Y56609D01*
X362204Y56000D01*
X363796D01*
X365266Y56609D01*
X366391Y57734D01*
X367000Y59204D01*
Y60796D01*
X366391Y62266D01*
X365266Y63391D01*
X363796Y64000D01*
D02*
G37*
G36*
X227206Y58316D02*
X225907D01*
Y45109D01*
X239116D01*
Y46406D01*
X238181Y49894D01*
X236376Y53022D01*
X233822Y55575D01*
X230694Y57381D01*
X227206Y58316D01*
D02*
G37*
G36*
X176406D02*
X175107D01*
Y45109D01*
X188316D01*
Y46406D01*
X187381Y49894D01*
X185576Y53022D01*
X183022Y55575D01*
X179894Y57381D01*
X176406Y58316D01*
D02*
G37*
G36*
X224891D02*
X223594D01*
X220106Y57381D01*
X216978Y55575D01*
X214424Y53022D01*
X212619Y49894D01*
X211684Y46406D01*
Y45109D01*
X224891D01*
Y58316D01*
D02*
G37*
G36*
X174091D02*
X172794D01*
X169306Y57381D01*
X166178Y55575D01*
X163624Y53022D01*
X161819Y49894D01*
X160884Y46406D01*
Y45109D01*
X174091D01*
Y58316D01*
D02*
G37*
G36*
X239116Y44093D02*
X225907D01*
Y30884D01*
X227206D01*
X230694Y31819D01*
X233822Y33624D01*
X236376Y36178D01*
X238181Y39306D01*
X239116Y42794D01*
Y44093D01*
D02*
G37*
G36*
X224891D02*
X211684D01*
Y42794D01*
X212619Y39306D01*
X214424Y36178D01*
X216978Y33624D01*
X220106Y31819D01*
X223594Y30884D01*
X224891D01*
Y44093D01*
D02*
G37*
G36*
X188316D02*
X175107D01*
Y30884D01*
X176406D01*
X179894Y31819D01*
X183022Y33624D01*
X185576Y36178D01*
X187381Y39306D01*
X188316Y42794D01*
Y44093D01*
D02*
G37*
G36*
X174091D02*
X160884D01*
Y42794D01*
X161819Y39306D01*
X163624Y36178D01*
X166178Y33624D01*
X169306Y31819D01*
X172794Y30884D01*
X174091D01*
Y44093D01*
D02*
G37*
%LPD*%
D79*
X390000Y430000D02*
X400000Y440000D01*
Y480750D01*
X394500Y486250D02*
X400000Y480750D01*
X592500Y345000D02*
X618000D01*
X570000Y367500D02*
X592500Y345000D01*
D80*
X415550Y507300D02*
X545400D01*
X394500Y486250D02*
X415550Y507300D01*
X360000Y506250D02*
X380000Y486250D01*
X394500D01*
X459500Y420000D02*
X465000Y425500D01*
X480000D02*
X485500Y420000D01*
X465000Y425500D02*
X480000D01*
X435000Y228500D02*
Y246500D01*
D83*
X438258Y408258D02*
X450000Y420000D01*
X438258Y400000D02*
Y408258D01*
X450000Y420000D02*
X459500D01*
X405758Y367500D02*
X447500D01*
X396250D02*
X405758D01*
X548500Y246500D02*
X553713D01*
X485000Y310000D02*
X548500Y246500D01*
X485000Y310000D02*
Y330000D01*
X447500Y367500D02*
X485000Y330000D01*
X405758Y367500D02*
X438258Y400000D01*
X390000Y373750D02*
X396250Y367500D01*
X390000Y373750D02*
Y430000D01*
X290250Y280000D02*
X300250D01*
X137000D02*
X290250D01*
Y347500D01*
X300250Y280000D02*
X321750D01*
X300250Y262000D02*
Y280000D01*
X321750D02*
X355250Y246500D01*
X117000Y300000D02*
X137000Y280000D01*
X137000D01*
Y263000D02*
Y280000D01*
Y263000D02*
X140000Y260000D01*
X117000Y245000D02*
Y260000D01*
X137000Y280000D01*
X117000Y230000D02*
Y245000D01*
X70000Y210000D02*
X97000D01*
X117000Y230000D01*
D84*
X618000Y345000D02*
Y365500D01*
Y324500D02*
Y345000D01*
X553713Y246500D02*
X560750D01*
X585750Y271500D01*
X604250D01*
X618000Y285250D01*
Y315500D01*
Y365500D02*
Y374500D01*
Y315500D02*
Y324500D01*
X495786Y225750D02*
Y245362D01*
X494648Y246500D02*
X495786Y245362D01*
D85*
X225400Y95400D02*
D03*
X174600D02*
D03*
Y44600D02*
D03*
X225400D02*
D03*
D86*
X200000Y70000D02*
D03*
D87*
X244996Y289997D02*
D03*
X274996D02*
D03*
X424996D02*
D03*
X454996D02*
D03*
X394996D02*
D03*
X364996D02*
D03*
X334996D02*
D03*
X439996Y499997D02*
D03*
X469996D02*
D03*
Y319997D02*
D03*
X499996D02*
D03*
X319996Y379997D02*
D03*
X79996Y199997D02*
D03*
X619996Y259997D02*
D03*
X424996Y229997D02*
D03*
X544996D02*
D03*
X406250Y296000D02*
D03*
X135000Y407500D02*
D03*
X155000D02*
D03*
X228500Y322500D02*
D03*
X245000D02*
D03*
X223000Y375000D02*
D03*
X240000Y401500D02*
D03*
X70000Y250000D02*
D03*
Y270000D02*
D03*
X419000Y487250D02*
D03*
X390000Y460000D02*
D03*
Y430000D02*
D03*
X454996Y469997D02*
D03*
X634996D02*
D03*
X619996Y439997D02*
D03*
X634996Y409997D02*
D03*
Y349997D02*
D03*
Y289997D02*
D03*
Y229997D02*
D03*
X619996Y199997D02*
D03*
X634996Y169997D02*
D03*
X619996Y139997D02*
D03*
X634996Y109997D02*
D03*
X619996Y79997D02*
D03*
X604996Y469997D02*
D03*
X589996Y439997D02*
D03*
X604996Y409997D02*
D03*
Y289997D02*
D03*
X589996Y259997D02*
D03*
X604996Y109997D02*
D03*
X589996Y79997D02*
D03*
X574996Y529997D02*
D03*
X559996Y439997D02*
D03*
X574996Y409997D02*
D03*
X559996Y379997D02*
D03*
X574996Y289997D02*
D03*
X559996Y259997D02*
D03*
X574996Y169997D02*
D03*
X559996Y139997D02*
D03*
Y79997D02*
D03*
X574996Y49997D02*
D03*
X559996Y19997D02*
D03*
X544996Y529997D02*
D03*
Y409997D02*
D03*
X529996Y379997D02*
D03*
X544996Y349997D02*
D03*
Y289997D02*
D03*
X529996Y199997D02*
D03*
Y139997D02*
D03*
Y79997D02*
D03*
X544996Y49997D02*
D03*
X529996Y19997D02*
D03*
X514996Y349997D02*
D03*
Y229997D02*
D03*
X499996Y139997D02*
D03*
X514996Y109997D02*
D03*
X499996Y79997D02*
D03*
X514996Y49997D02*
D03*
X499996Y19997D02*
D03*
X469996Y439997D02*
D03*
X484996Y409997D02*
D03*
Y229997D02*
D03*
X469996Y139997D02*
D03*
X484996Y109997D02*
D03*
X469996Y79997D02*
D03*
Y19997D02*
D03*
X439996Y439997D02*
D03*
Y379997D02*
D03*
Y199997D02*
D03*
Y139997D02*
D03*
X454996Y109997D02*
D03*
X439996Y79997D02*
D03*
Y19997D02*
D03*
X424996Y529997D02*
D03*
X409996Y439997D02*
D03*
X424996Y169997D02*
D03*
X409996Y139997D02*
D03*
Y19997D02*
D03*
X394996Y529997D02*
D03*
X379996Y499997D02*
D03*
Y439997D02*
D03*
Y379997D02*
D03*
X394996Y169997D02*
D03*
Y109997D02*
D03*
X379996Y79997D02*
D03*
Y19997D02*
D03*
X364996Y529997D02*
D03*
X349996Y439997D02*
D03*
Y379997D02*
D03*
X364996Y169997D02*
D03*
Y109997D02*
D03*
X349996Y19997D02*
D03*
X334996Y529997D02*
D03*
X319996Y499997D02*
D03*
X334996Y349997D02*
D03*
X289996Y499997D02*
D03*
X304996Y469997D02*
D03*
X289996Y439997D02*
D03*
X304996Y349997D02*
D03*
X289996Y19997D02*
D03*
X274996Y109997D02*
D03*
Y49997D02*
D03*
X229996Y139997D02*
D03*
X199996Y19997D02*
D03*
X169996Y139997D02*
D03*
X139996Y379997D02*
D03*
X154996Y349997D02*
D03*
X139996Y139997D02*
D03*
Y79997D02*
D03*
Y19997D02*
D03*
X109996Y499997D02*
D03*
Y439997D02*
D03*
Y379997D02*
D03*
Y319997D02*
D03*
Y139997D02*
D03*
X124996Y109997D02*
D03*
X109996Y19997D02*
D03*
X79996Y499997D02*
D03*
X94996Y469997D02*
D03*
X79996Y439997D02*
D03*
X94996Y409997D02*
D03*
Y349997D02*
D03*
X79996Y319997D02*
D03*
Y259997D02*
D03*
X94996Y169997D02*
D03*
X79996Y19997D02*
D03*
X64996Y469997D02*
D03*
X49996Y439997D02*
D03*
X64996Y409997D02*
D03*
Y349997D02*
D03*
X49996Y319997D02*
D03*
Y259997D02*
D03*
Y199997D02*
D03*
X64996Y169997D02*
D03*
X34996Y469997D02*
D03*
X19996Y439997D02*
D03*
X34996Y409997D02*
D03*
X19996Y379997D02*
D03*
X34996Y349997D02*
D03*
X19996Y319997D02*
D03*
Y259997D02*
D03*
Y199997D02*
D03*
X34996Y169997D02*
D03*
X19996Y139997D02*
D03*
X34996Y109997D02*
D03*
X19996Y79997D02*
D03*
X137000Y280000D02*
D03*
X117000Y230000D02*
D03*
Y245000D02*
D03*
X140000Y260000D02*
D03*
X421742Y400000D02*
D03*
X438258D02*
D03*
X455000Y228500D02*
D03*
X415000D02*
D03*
X435000D02*
D03*
X395000D02*
D03*
X588500Y313250D02*
D03*
Y326750D02*
D03*
X360000Y506250D02*
D03*
X394500Y486250D02*
D03*
X117000Y300000D02*
D03*
X290250Y347500D02*
D03*
X130000Y350000D02*
D03*
X421250Y302500D02*
D03*
X618000Y315500D02*
D03*
Y324500D02*
D03*
Y365500D02*
D03*
Y374500D02*
D03*
X330750Y140000D02*
D03*
X330000Y180000D02*
D03*
X301750Y163000D02*
D03*
X300250Y262000D02*
D03*
X130000Y230000D02*
D03*
Y245000D02*
D03*
X364250Y310000D02*
D03*
Y320000D02*
D03*
X482500Y366000D02*
D03*
X507500D02*
D03*
X569250Y335000D02*
D03*
Y345000D02*
D03*
X70000Y210000D02*
D03*
X410000Y337500D02*
D03*
X545400Y507300D02*
D03*
X230000Y313666D02*
D03*
X243500D02*
D03*
X140000Y401500D02*
D03*
X150000D02*
D03*
X602000Y315500D02*
D03*
Y324500D02*
D03*
Y365500D02*
D03*
Y374500D02*
D03*
X363000Y60000D02*
D03*
X477500Y420000D02*
D03*
X494600Y472700D02*
D03*
X495786Y225750D02*
D03*
X530786Y246500D02*
D03*
X570000Y367500D02*
D03*
X459500Y420000D02*
D03*
X485500D02*
D03*
X396250Y367500D02*
D03*
X360000Y473750D02*
D03*
X419000Y474250D02*
D03*
X461000Y169742D02*
D03*
X130000Y340000D02*
D03*
Y300000D02*
D03*
X170000Y200000D02*
D03*
Y210000D02*
D03*
X211000Y239000D02*
D03*
X200000D02*
D03*
X189000D02*
D03*
X211000Y250000D02*
D03*
X200000D02*
D03*
X189000D02*
D03*
X211000Y261000D02*
D03*
X200000D02*
D03*
X189000D02*
D03*
X200000Y150000D02*
D03*
X206750Y186334D02*
D03*
X230000Y220000D02*
D03*
Y210000D02*
D03*
Y200000D02*
D03*
D88*
X598500Y178000D02*
D03*
D89*
X40000Y510000D02*
D03*
X610000D02*
D03*
Y40000D02*
D03*
X40000D02*
D03*
D90*
X530786Y246500D02*
X548500D01*
X494648D02*
X530786D01*
X435000D02*
X494648D01*
X355250D02*
X435000D01*
X301750Y163000D02*
Y193000D01*
X355250Y246500D01*
X553713D02*
X562500Y237713D01*
Y214000D02*
X598500Y178000D01*
X562500Y214000D02*
Y237713D01*
M02*
