M48
;Layer_Color=9474304
;FILE_FORMAT=4:4
METRIC,LZ
;TYPE=PLATED
T01F00S00C0.2000
T02F00S00C0.3000
T03F00S00C0.7500
T04F00S00C1.1684
T05F00S00C1.7018
T06F00S00C2.5000
%
T01
X00189Y00239
X002
X00211
Y0025
X002
X00189
Y00261
X002
X00211
T02
X00079996Y00019997
X00109996
X00139996
Y00079997
X00124996Y00109997
X00139996Y00139997
X00169996
X00109996
X00094996Y00169997
X00064996
X00034996
X00049996Y00199997
X00079996
X0007Y0021
X0007Y0025
X00079996Y00259997
X0007Y0027
X00049996Y00259997
X00019996
Y00319997
X00049996
X00079996
X00109996
X00117Y003
X0013
X00137Y0028
X0014Y0026
X0013Y00245
X00117
Y0023
X0013
X0017Y0021
Y002
X00019996Y00199997
Y00139997
X00034996Y00109997
X00019996Y00079997
X00034996Y00349997
X00064996
X00094996
X0013Y0035
Y0034
X00154996Y00349997
X00139996Y00379997
X00109996
X00019996
X00223Y00375
X002285Y003225
X0023Y00313666
X002435
X00245Y003225
X00244996Y00289997
X00274996
X0030025Y00262
X00334996Y00289997
X00364996
X0036425Y0031
Y0032
X00334996Y00349997
X00304996
X0029025Y003475
X00319996Y00379997
X00349996
X00379996
X0039625Y003675
X0041Y003375
X0040625Y00296
X00394996Y00289997
X00424996
X0042125Y003025
X00454996Y00289997
X00469996Y00319997
X00499996
X00514996Y00349997
X005075Y00366
X004825
X00439996Y00379997
X00529996
X00559996
X0057Y003675
X0056925Y00345
Y00335
X00544996Y00349997
Y00289997
X00574996
X00559996Y00259997
X00530786Y002465
X00544996Y00229997
X00514996
X00495786Y0022575
X00484996Y00229997
X00455Y002285
X00435
X00424996Y00229997
X00415Y002285
X00395
X00394996Y00169997
X00424996
X00461Y00169742
X00469996Y00139997
X00499996
X00529996
X00559996
X00574996Y00169997
X00529996Y00199997
X00439996
Y00139997
X00409996
X00394996Y00109997
X00364996
X00379996Y00079997
X00363Y0006
X00349996Y00019997
X00379996
X00409996
X00439996
X00469996
X00499996
X00529996
X00559996
X00574996Y00049997
X00544996
X00514996
X00529996Y00079997
X00559996
X00499996
X00469996
X00439996
X00454996Y00109997
X00484996
X00514996
X00364996Y00169997
X0033Y0018
X0033075Y0014
X0030175Y00163
X00274996Y00109997
Y00049997
X00289996Y00019997
X00199996
X002Y0015
X00229996Y00139997
X0023Y002
Y0021
Y0022
X0020675Y00186334
X00619996Y00199997
X00634996Y00229997
X00619996Y00259997
X00589996
X00604996Y00289997
X00602Y003155
Y003245
X005885Y0032675
Y0031325
X00618Y003155
Y003245
Y003655
Y003745
X00602
Y003655
X00634996Y00349997
Y00289997
Y00169997
X00619996Y00139997
X00634996Y00109997
X00604996
X00619996Y00079997
X00589996
X00604996Y00409997
X00634996
X00619996Y00439997
X00589996
X00604996Y00469997
X00634996
X00559996Y00439997
X00574996Y00409997
X00544996
X00484996
X004855Y0042
X004775
X004595
X00469996Y00439997
X00439996
X00409996
X0039Y0043
X00379996Y00439997
X00349996
X0036Y0047375
Y0050625
X00379996Y00499997
X003945Y0048625
X00419Y0048725
Y0047425
X00454996Y00469997
X004946Y004727
X00469996Y00499997
X00439996
X00424996Y00529997
X00394996
X00364996
X00334996
X00319996Y00499997
X00289996
X00304996Y00469997
X00289996Y00439997
X0024Y004015
X00421742Y004
X00438258
X0039Y0046
X005454Y005073
X00544996Y00529997
X00574996
X00109996Y00499997
X00079996
X00094996Y00469997
X00064996
X00034996
X00049996Y00439997
X00079996
X00109996
X00094996Y00409997
X00064996
X00034996
X00019996Y00439997
X00135Y004075
X0014Y004015
X0015
X00155Y004075
T03
X005985Y00178
T04
X002Y0007
T05
X001746Y000446
Y000954
X002254
Y000446
T06
X0004Y0004
X0061
Y0051
X0004
M30
