M48
METRIC,TZ
T01C.2
T02C.23
T03C.5
T04C.64
T05C.65
T06C.7
T07C.9
T08C1.02
T09C1.1
T10C1.6
T11C2.75
T12C3.8
T13C.556
T14C.586
T15C.8
T16C.856
T17C.996
T18C1.006
T19C1.056
T20C1.1
T21C1.256
T22C1.376
T23C1.456
T24C1.6
T25C1.956
T26C2.75
T27C3.
T28C3.106
T29C3.3
T30C4.156
;LEADER: 12 
;HEADER: 
;CODE  : ASCII 
;FILE  : ncdrill-1-6.tap for  ... layers TOP and BOTTOM
;DESIGN: 142-13509-1000-A01.brd
;T01 Holesize 1. = 0.200000 Tolerance = +0.075000/-0.075000 PLATED MM Quantity = 1802
;T02 Holesize 2. = 0.230000 Tolerance = +0.075000/-0.075000 PLATED MM Quantity = 26
;T03 Holesize 3. = 0.500000 Tolerance = +0.080000/-0.080000 PLATED MM Quantity = 20
;T04 Holesize 4. = 0.640000 Tolerance = +0.080000/-0.080000 PLATED MM Quantity = 4
;T05 Holesize 5. = 0.650000 Tolerance = +0.080000/-0.080000 PLATED MM Quantity = 19
;T06 Holesize 6. = 0.700000 Tolerance = +0.080000/-0.080000 PLATED MM Quantity = 36
;T07 Holesize 7. = 0.900000 Tolerance = +0.080000/-0.080000 PLATED MM Quantity = 14
;T08 Holesize 8. = 1.020000 Tolerance = +0.080000/-0.080000 PLATED MM Quantity = 10
;T09 Holesize 9. = 1.100000 Tolerance = +0.080000/-0.080000 PLATED MM Quantity = 56
;T10 Holesize 10. = 1.600000 Tolerance = +0.080000/-0.080000 PLATED MM Quantity = 2
;T11 Holesize 11. = 2.750000 Tolerance = +0.100000/-0.100000 PLATED MM Quantity = 2
;T12 Holesize 12. = 3.800000 Tolerance = +0.130000/-0.130000 PLATED MM Quantity = 2
;T15 Holesize 13. = 0.800000 Tolerance = +0.050000/-0.050000 NON_PLATED MM Quantity = 2
;T20 Holesize 14. = 1.100000 Tolerance = +0.050000/-0.050000 NON_PLATED MM Quantity = 3
;T24 Holesize 15. = 1.600000 Tolerance = +0.050000/-0.050000 NON_PLATED MM Quantity = 3
;T26 Holesize 16. = 2.750000 Tolerance = +0.050000/-0.050000 NON_PLATED MM Quantity = 6
;T27 Holesize 17. = 3.000000 Tolerance = +0.050000/-0.050000 NON_PLATED MM Quantity = 4
;T29 Holesize 18. = 3.300000 Tolerance = +0.050000/-0.050000 NON_PLATED MM Quantity = 2
%
G90
T01
X715000Y504500
X531500Y9140
X538500
X516500Y9000
X523500
X348000
X342000
X357500
X363500
X566500
X573500
X585500Y9140
X592500
X433000Y9000
X427000
X412000
X418000
X415500Y402000
X453000Y417000
X690000Y300000
X698000
X662000Y396000
X692000Y103000
X706000Y300000
R02X8000
X116300Y72710
X259000Y66000
X230100Y55550
X242500Y38500
X240000Y66000
X132000Y257500
X124500
X64500Y535500
X56500
X60500Y531500
X43500Y-36000
Y-59000
X20000Y-62000
X60500Y539860
X68500Y531500
Y539500
X489000Y28000
Y5000
X504500Y55500
X496000
X489000Y-500
X458500Y28000
X462500Y55500
X468000
X458000Y5000
Y-1000
X411000Y-90500
Y-102000
X471000
Y-78000
X471500Y-47500
Y-21000
X285000Y445500
Y437500
Y380520
X298000Y326000
X277500Y404000
X411000Y345000
X446000Y398500
X372500Y350500
X483000Y87500
X596500Y374000
X413500Y430000
X301000Y366000
X506500Y87500
X591000Y374000
X413500Y422000
X301000Y358000
X432500Y87500
X591000Y366000
X315000Y362000
X399000Y426000
X456000Y87500
X596500Y366000
X399000Y418000
X315000Y354000
X383000Y350500
X317000Y460500
X266000Y448500
X391000Y350500
X379500Y433500
X363000Y350500
X339000
X343000Y433500
X387000Y335500
X172000Y459500
X156500Y376010
X631000Y550000
X110500Y493000
X124500Y498000
X134500Y321500
Y316000
X139500Y324000
Y318500
X134500Y310000
X119000Y498000
X139500Y313000
Y307500
X113500Y498000
X121500Y493000
X116000
X709000Y448030
X716690Y417280
X707500Y136500
X85660Y80000
X634500Y357000
X193000Y486500
X213000Y400270
X715000Y514500
X750000Y536500
X714500Y472500
X185500Y483000
X665000Y545000
X179000Y419000
X755500Y88500
R02X-5500
X631000Y70000
X635000Y66000
X639000Y62000
X935500Y-50500
X192500Y499000
X160500Y294500
X233000Y431000
X227500
Y445500
X233000
Y416000
X227500
X434000Y499500
X254500Y499000
Y470000
X682000Y527000
X669000Y523650
X818000Y553000
X805500Y476000
X708000Y475500
X689140Y473960
X805000Y91500
X769000
X764000Y219000
X773500
X438000Y58000
X442000Y62000
X486500Y55500
X478000
X805000Y85000
X845000Y83000
X769000Y100000
X805000
X845000Y98000
X369280Y476790
X544780Y242000
X376730Y476790
X537720Y242000
X360730Y476790
X559910Y167250
X353280Y476790
X552850Y167250
X133960Y341040
Y384040
X135000Y364500
X102500Y460500
Y410500
X101500Y437000
X734600Y490370
X124680Y73580
X210000Y257500
X226650Y73130
X230000Y50000
X218500Y58000
R02X-21000
X157000
X137000
X100000Y-11000
X107500Y-50000
X235000Y274000
X83500Y-79000
X568910Y273000
X561850
X417410Y180000
X410330
X437260Y143000
X430230
X858500Y418500
X857500Y274500
X852500Y255500
Y187000
X712000Y268000
X133500Y165500
X126500Y171500
X700000Y268000
X772500Y331500
X596000Y337000
X761000Y331500
X590500Y332000
X269800Y90100
X205500Y92000
X261780Y90100
X218500Y92000
X212830Y150720
X174020Y92000
X212830Y143090
X166000Y92000
X187000Y231500
X348750Y193750
X210000Y231500
X349000Y186000
X663000Y111000
X126500Y161500
X330500Y83500
X298180Y175670
X330540Y91500
X291120Y175670
X758500Y528000
X773000Y531500
X656910Y523450
X715040Y496250
X347000Y499500
X741500Y439000
X696620Y502220
X182500Y346500
X72950Y49370
X193000Y480500
X208500Y416000
X266000Y439500
X764500Y480500
X240500Y548000
X672500Y586500
X683700Y594700
X740500Y537000
X701000Y547500
X758000Y516500
X773000Y511500
X715000Y529500
X701000Y539500
X237000Y484500
X690000Y281000
X684000Y111000
X698000Y281000
X681000Y143500
X671250Y111000
X706000Y281000
X694500Y143500
X714000Y281000
X697500Y111000
X722000Y281000
X611500Y478500
X614500Y397000
X420500Y106500
X525000Y495500
X773000Y304000
X710750Y240000
X761000Y304000
X701250Y240250
X133000Y498000
X470500Y488500
X503250Y269250
X158500Y478500
X148000Y524000
X166000Y325000
X89180Y232000
X148000Y498000
X85950Y226460
X166000Y319000
X68000Y473500
X141500Y524000
X68000Y465000
X141500Y498000
X651500Y435500
X646500Y427500
X827250Y204250
X695000Y174500
X701500Y169500
X827000Y196000
X693000Y219000
X836000Y276500
X674000Y164000
X836000Y196000
X695000Y164500
X535500Y401000
X549000Y432000
X549500Y326500
X372000Y153000
X562000Y326500
X372000Y145000
X562000Y318500
X372000Y136500
X226500Y499000
X734500Y407000
X721250Y145000
X846500Y239000
X388000Y177000
X819000Y204500
X393000Y171000
X836000Y227000
X388000Y185500
X397500Y177000
X827000Y213000
X592040Y165260
X584590
X466080Y164580
Y172030
X451380Y164880
Y172330
X428650Y163500
X421590
X477500Y150500
X470050
X502450
X495000
X409910Y163500
X402460
X482340Y170120
X489790
X635000Y427500
X640500Y435500
X699000Y410000
X837000Y452500
X659500Y89500
X707000Y410000
X831000Y447500
X652500Y94000
X706000Y418500
X853500Y469000
X652500Y102500
X707000Y402000
X837000Y442500
X659500Y98000
X824000Y-113000
X608750Y229750
X824500Y-92000
X608750Y218750
X264050Y146500
X318000Y64500
X257150Y146500
X326000Y64500
X237200Y106360
X277000Y64500
X230300Y106360
X269000Y64500
X301500
X233500Y139510
X309500Y64500
X233500Y146410
X207200Y105660
X293500Y64500
X200300Y105660
X285500Y64500
X196500Y191250
X133000Y155910
X196500Y184190
X133000Y148850
X168500Y164660
X113500Y146410
X168500Y157600
X113500Y139350
X179790Y188370
X148500Y190910
X172730Y188370
X148500Y183850
X80820Y410840
X80930Y381410
X73760Y410840
X73850Y381410
X196500Y390500
X418290Y255710
X75500Y444000
X205000Y390500
X422500Y251000
X75500Y452000
X108500Y42500
X192500Y257500
X479500Y479500
X618830Y469540
X202000Y292000
X624140Y392980
X563000Y242000
X674000Y77000
X893500Y-50500
X743000Y304000
X635000Y256500
X824500Y-100000
X824000Y-121000
X600500Y9000
X607500
X401000
X395000
X558500Y9140
X551500
X386000Y9000
X380000
X328810Y301270
X543000Y80000
X328810Y308720
X551000Y80000
X314000Y318960
X566500Y56500
X314000Y326410
X573530Y56500
X456960Y285500
X601490Y63520
X464410Y285500
X608520Y63520
X352000Y295090
X527000Y80000
X352000Y302540
X534910Y80000
X585480Y58000
X339500Y323960
X592510Y58000
X339500Y331410
X435500Y282500
X558000Y56500
X430230Y277230
X550970Y56500
X348910Y72000
X287000Y238590
X341880Y72000
X287000Y246040
X340950Y259410
X418410Y81500
X340950Y251960
X411380Y81500
X346410Y229500
X396620Y81500
X338960Y229500
X389590Y81500
X299720Y240860
X357880Y72000
X307170Y240860
X364910Y72000
X400380Y69000
X289460Y259000
X296910
X407410Y69000
X327040Y241000
X383410Y69000
X319590Y241000
X376380Y69000
X311000Y75000
X723650Y420150
X298880Y83610
X716250Y103000
X723500Y472500
X599000Y137000
X865500Y126500
X599000Y143000
X865500Y136500
X590500Y352000
X581250Y143500
X570500Y228000
X571190Y150640
X563740
X674500Y414500
X546250Y449250
X917000Y-50500
X596000Y347000
X590500Y342000
X90000Y-123000
X153250Y257750
X55240Y9120
X59640Y5810
X167500Y555500
X177500
X182500Y549000
X172500
X162000
X766500Y465000
X788000Y528000
X794500
X774500Y465000
X572500Y555500
R02X-8500
X524000Y417500
X590000Y470500
Y478500
X590500Y304000
Y295000
X592500Y399500
X430500Y433500
X547000Y555500
X865000Y359500
X867500Y253500
X876500Y317500
X865000Y334000
X876000Y469000
X867500Y176000
X876500Y46000
X142500Y478500
X141000Y543500
X130000Y511000
X68500Y340500
X63000
X65500Y345500
X69000Y366500
X227500Y330000
X233000
X178000Y325000
X284000Y358000
X292000Y350000
X227500Y345000
X233000
Y359500
X227500
X63500Y217500
X63000Y235000
Y76500
Y69000
X109550Y72750
X62000Y485000
X71000Y345500
X60000
X309000Y453000
X478590Y316500
X375540Y226500
X412480Y106460
X486040Y316500
X368090Y226500
X405030Y106460
X369040Y258990
X397410Y143300
X361590Y258990
X389960Y143300
X884000Y-89500
X691990Y87410
X876550Y-89500
X692000Y79500
X562000Y310500
X372000Y161000
X899000Y162000
X666500Y439500
X448000Y484500
X674500Y423000
X448000Y476500
X867500Y244500
X896500Y235500
Y241750
X397500Y185500
X836000Y213000
X890500Y317500
Y301000
Y309500
X-7500Y530500
X612500Y550000
X711250Y144000
X134000Y92500
X593500Y93500
X117000Y92500
X585000Y101500
X125000Y92500
X593500Y101500
X573750Y193500
X651000Y327000
X664000Y225500
X828500Y281500
X609000Y239000
X865000Y342000
X595000Y149500
X609000Y247500
X865000Y351500
X587000Y149500
X867500Y469000
X231000Y171000
X145000Y92000
X231000Y163940
X153020Y92000
X188000Y-2000
X182000
X198000
X204000
X169500
X163000
X147500
X154000
X181000Y257500
X77000Y-134000
X200500Y257500
X85000Y-107000
X720600Y384000
X831000Y427500
X663750Y218500
X725000Y394500
X837000Y432500
X674000Y193500
X635070Y188590
X627440
X632060Y173090
X624430
X619070Y153220
X611440
X605070Y177220
X597440
X605000Y402500
X477500Y129500
X606500Y393000
X469000Y129500
X167000Y483000
X157000Y524000
X662500Y143500
X650000Y388500
X385500Y452000
X156750Y498250
X656250Y137000
X640000Y393000
X393500Y452000
X561500Y432000
X715500Y394500
X831000Y437500
X651000Y111500
X836000Y286500
X635000Y226000
X319000Y173500
X108500Y54500
X562500Y386500
X730500Y388000
X837000Y422500
X133500Y187000
X403750Y224500
X124000Y187000
X412500Y224500
X177000Y483000
X783000Y478310
X858000Y315500
X326500Y145000
X836000Y314500
X326250Y137000
X836000Y306500
X319500Y149000
X828500Y291500
X319500Y157000
X836000Y296500
X326500Y153000
X788500Y542500
X778000Y415500
X772000Y410000
X776000Y241500
X724000Y103000
X743500Y241500
X722500Y260500
X749500Y293560
X823500Y311500
X831000Y457500
X651000Y347000
X627500
X241000Y267000
X470500Y476770
X627500Y528500
X207000Y499000
X698750Y225500
X730500Y341000
X651000Y444500
X620000Y398500
X609000Y398000
X292090Y272150
X413910Y136570
X447810Y77530
X644880Y547800
X160440Y-149750
X138490Y-149550
X202080Y-149850
X180130Y-149650
X248320Y-149850
X226370Y-149650
X151920Y-138480
X129970Y-138280
X201690Y-127610
X179740Y-127410
X248130Y-127810
X226180Y-127610
X235100Y-138880
X213150Y-138680
X883240Y-23260
X877070Y-40700
X852580Y-40800
X836420Y-48440
X842050Y-50110
X840530Y-88320
X635100Y-78000
X642840Y-95770
X635790Y-102630
X642750Y-102730
X629510Y-11100
X619610Y18580
X625590Y18680
X631470Y18580
X38830Y-5890
X-8810Y55330
X12500Y241100
X61010Y224160
X66730Y191710
X62890Y84190
X622060Y555360
X595310
X28900Y289450
X28600Y267680
X40730Y250040
X91680Y239680
X88800Y202490
X103870Y190670
X19870Y181720
X820Y87960
X55800Y95110
X66370Y125600
X66310Y155320
X20420Y159670
X691450Y500270
X562500Y377000
X90000Y-155000
X73000Y-148000
X82000Y-129000
X107000Y-121000
X188500Y346500
X187000Y442500
X187500Y419000
X108500Y399000
X151000Y330500
X102500Y379000
X756500Y437500
X735500Y433000
X758500Y403500
X148000
X193750Y467500
X204500Y376000
X61500Y469500
X84520Y6050
X79500Y3500
X633000Y167000
X110000Y302500
X115500
X891000Y113500
X229000Y485000
X137500Y174000
X861000Y131500
Y346500
X222500Y-90500
X726000Y73000
X726500Y90500
X571000Y267500
X573000Y218500
X368000Y-33000
X567000Y-18500
X126810Y6280
X-12000Y34000
X-8700Y49440
X32120Y4440
X12500Y168500
Y211500
X39110Y79660
X-14630Y99780
X-13500Y130000
Y123190
X12500Y151500
X-13500Y145000
Y160000
X12500Y181500
Y201500
Y231500
X-13500Y190000
Y220000
X-31000Y-147000
Y-134000
Y-114000
R32Y20000
X209500Y302500
X166500Y294500
X181500Y274000
X87500Y508000
X67180Y49240
X74500Y518000
X260000Y273000
X79650Y9000
X142410Y7770
X209380Y8710
X175520Y8790
X480000Y163500
X435000
X423500Y180000
X459000Y163500
X413500Y69000
X79500Y317000
X369500Y290500
X415500Y163500
X356000Y-27500
X416500Y-28000
X356000Y-50500
X416000Y-51000
X526000Y-28000
Y-51000
X586000
Y-28500
X693000Y225500
X167000Y489500
X378000Y153000
Y145000
X369500Y166000
X664000Y94000
X767000Y304000
X438500Y287500
X135000Y524000
X890500Y295000
X895500Y313500
X732000Y517000
Y507000
X551500Y152000
X900000Y366500
X939000Y315500
X900000Y341000
X304000Y99000
X667000Y358500
X664000Y234000
X893500Y166500
X890000Y424500
X942500Y418000
X939000Y214000
X408000Y229000
X69000Y501500
X-7500Y537500
X2500Y552500
X-18000Y559000
X21000Y597500
X27500Y576500
X19500Y560500
X66000Y560000
X106500Y551000
X94000Y560000
X85500Y576500
X86000Y597000
X159500Y589000
X154000Y565500
X85000Y257500
X85900Y220930
X169000Y219000
X184000
X706000Y394000
X730000Y348000
X753500Y333500
X779000Y337000
X817000Y306500
X791500Y262000
X628500Y256500
X614000Y253500
X634500Y234500
X614000
X621500Y167000
X678500Y183500
X674000Y179500
Y187500
X741000Y163000
X702000Y187000
X708500
Y193500
X738500Y185000
X743000Y189000
X734000
X799000Y138500
X708500Y180500
X702500Y158500
X736000Y144000
X746000
X736000Y158000
X746000
Y168000
X730000Y103000
X698500
X704500Y111000
X614000Y224500
X634000Y218500
X106000Y272500
X60000Y263000
X132500Y252000
X205500Y274000
X226000
X241000
X371500Y231000
X313000Y175500
X231500Y193000
R03X15000
X154500Y184500
X143500Y108000
X114000Y107000
X55780Y125490
X63000Y95000
X19810Y188410
X56000Y220660
X193000Y-8030
X844500Y469000
X831500Y506000
X720500Y390000
X702500Y347000
X688500Y396000
X658000Y427500
X632500Y435500
X646000Y393000
X651000Y357000
X641000Y416500
X556000Y274000
X625000Y322500
X636500Y273500
X620000Y276000
X636500Y289500
X646000Y322500
X636500Y314500
X620000Y300000
X590500Y322500
X640000Y374500
X626500Y388000
X653000Y477000
X620500
X596500Y360000
X600500Y370000
X599500Y342000
X510000Y269000
X562000Y304500
X537000Y384500
Y469500
X517000Y470000
X594760Y443000
X674500Y431500
X623000Y435500
X467000Y291000
X450000Y251000
X315500Y259000
X349500Y259500
X205500Y399000
X271000Y432500
X164000Y272500
X251000Y295500
X289000Y295000
X305500Y305500
X294500Y317000
X276500Y341500
X426000Y328000
X472000Y339500
X453000Y398500
X421500Y433500
X436500Y438500
X394000Y399500
X349500
X379500
X366500Y392000
X379500Y409000
Y392000
X364500Y409000
X349500Y391500
X334500Y399500
X315500Y404000
X316000Y388000
X364500Y399500
X398000Y368000
Y392000
X398500Y409000
X346500Y457000
X401500Y449500
X385500Y460500
X320500Y351000
X380000Y335500
X346500Y351000
X332000
X356500
X612500Y58500
X511500Y34000
X545500
X579000
X670000Y72500
X636500Y32000
X-13500Y175000
X82000Y439500
X87000Y386500
X69000Y384500
X68000Y414500
X86500Y405500
X350000Y322500
X356500Y290500
X323000Y297000
X308000Y322500
X315500Y332500
X702000Y310500
X718000Y274500
X667000Y391000
X692500Y274500
X703500
X710000Y305500
X694000
X718000
X779500Y459000
X758500Y465000
X740250Y412750
X717000Y448030
X730500Y381000
X558000Y76500
X368500Y91500
X354000
X538500Y84500
X529000Y54000
X595500Y68500
X579000Y63000
X562000
X625500Y45500
X827500Y1000
X835140Y-25420
X783500Y-114000
X705000Y-89000
X697000Y-80000
X716000Y-99500
X730500Y-114000
X759500Y-114500
X732000Y90500
X897000Y30000
Y-22500
X893500Y-43500
X925500Y-50500
X834500Y-88000
X864500Y-124000
X875500
X902500Y-95500
X928500Y-69500
X920500Y-96000
X934500Y-84000
X870500Y-89500
X890000Y-70000
X889500Y-85500
X835000Y-103500
X618500Y-131000
X329500Y97500
X410000Y87500
X406500Y53000
X438500Y14000
X336000Y53500
X371500Y64000
X406500Y33000
X390500Y53000
X370000
Y33500
Y9000
X126990Y58710
X112740Y58660
X130750Y72860
X189840Y-138580
X167890Y-138380
X195500Y52500
X157500Y51500
X140000Y49000
X266500Y-3000
X320000Y-11000
X331000Y45500
X313500
X297500
X281500
X269000Y-14500
X239500Y-5000
X98000Y-129000
X85000Y-101000
X145500Y-62000
X123500Y-91500
X133500Y-111000
X131000Y-98500
X143000Y-125500
X158000Y-115500
X244000Y-114500
X199000Y-112500
X253000Y-105500
X322000Y-52500
X270500Y-80500
X297500Y-52500
X308000Y-29000
X303500Y-78500
Y-130500
X322500
X340000Y-110500
X352000Y-123500
X378000
X408000
X431000
X449500Y-130500
X483000
X570000Y-110000
X596000Y-90500
X134000Y478500
X133000Y549000
X700000Y77000
X682000
X160000Y511000
X629000Y13000
X623000Y-3500
Y-9500
Y13000
X634980Y-83500
X827000Y-146500
X802000Y-161000
X840500Y-73500
Y-61500
Y-67500
Y-55500
X715500Y60500
X613500Y32000
X712000Y-35000
X742500
X720500Y-10000
X697500
X675000
X769000Y-35000
X787500Y-1500
X774000Y-10000
X749000
X731000Y-3000
X784500Y32000
X759500
X675500Y60500
X868500Y37500
X876500Y30000
X910000
X936000
X863000Y63000
X859500Y83000
X840000Y37000
Y62500
X827500Y17500
Y-18000
X841800Y-32470
X860500Y-50500
X854000Y-115500
X833000Y-144000
X912000Y-131000
X834500Y-124000
X843000Y-127500
X848500Y-132500
X894000Y-123500
X906500Y-109500
X925500Y-103500
Y-124500
X911500Y-142500
X926500
X919000Y-139000
X831500Y-152000
X675500Y-141000
X620000Y-51000
X613000Y-19000
X627000Y-18500
X485500
X485000Y-48500
X547500Y-60500
X565000
X628000Y-102500
X612000
X570000Y-90500
X549000Y-123000
X522000
X458000Y-102000
X313500Y-19000
X314000Y-47500
X313500Y-78500
X313000Y-103000
X330500
X272000Y-150500
X288500
Y-126500
X272000
X177500Y-72000
X207500
X192500
X229500Y-51000
X222500Y-59500
X20000Y-70000
X56000Y-79000
X-4500Y-100500
Y-119500
X44000
Y-100500
X59000Y-55500
X77500Y-101000
X78000Y-52500
X258000Y-92500
X247000Y-81000
X105500Y-7500
X115000Y-1000
X176500Y-50000
X105500Y-152000
X124000
Y-125000
X114000Y-111000
X154000Y-86500
X144500Y-114500
X176000Y-115500
X220000Y-114500
X207500Y-103500
X283500Y-67500
X300000Y-41000
Y-16000
X275000Y-35500
X252500Y-32500
X234500Y-36000
X212500Y-32500
X221000Y-47500
X257000Y-71000
X268000Y71000
X297500Y68500
X700000Y90500
X657000Y111500
X710500Y103000
X683500Y90500
X593500Y111000
X638500Y193500
X702000
X701500Y180500
X711500Y158500
X705500Y144000
X676000Y137000
X469500Y136500
X404000Y180000
X218500Y158000
X63030Y183830
X119000Y149000
X161000
X184000Y184000
X167500Y186000
X245500Y175500
X321000Y143500
X314000Y160000
X224500Y163500
X174500Y161000
X237500Y163500
X270500Y148500
X396500Y163500
X285000Y175500
X193000Y44000
X158500Y43500
X218500Y51500
X175500Y43500
X123500Y-1000
X142500Y1500
X131280Y-5270
X136350Y4840
X137000Y82500
X158320Y111500
X161090Y99930
X224900Y93250
X199000Y92000
X108500Y-97750
Y-88250
Y-68250
X345500Y477000
X384500
X901000Y-64000
X104000Y-19500
X706000Y53500
X731500Y73000
X769000
X805000
X521250Y111750
X566250Y136750
X216500Y193000
X358750Y218250
X488750Y218500
X230000Y232000
X213000Y483000
X290000Y326000
X141000Y252000
X193000Y306500
X300250Y473750
X299500Y442000
X458000Y-78500
X629250Y-78000
Y-130750
X635000Y-95500
X38770Y-15000
X219000Y390500
Y379000
X237500Y380500
X226000Y379000
X238000Y392000
X243500Y410000
X239000Y465000
X247000
X229000Y306000
X235000
X215000Y318500
X222000
X232000Y311000
X238000
X226000
X379500Y414500
X349500
X528000Y401000
X608500Y171500
Y159500
X622500Y148000
X563500Y172500
X569000Y163500
X595000Y156500
X594500Y171500
X577000Y148000
X546000Y299000
X549500Y239000
X248000Y265000
X591000Y382000
X428500Y245500
X261000Y393000
X224500Y406500
X309000Y460500
X150500Y478500
X101000Y453000
X127500Y399000
X115000
X121000Y302500
X129500
X84000Y-87000
X648000Y-141500
X810750Y-146750
X840500Y-79500
X126500Y272500
X644820Y531710
X163500Y257500
X590500Y288000
Y281500
X559000Y469500
X565500Y479000
X489000Y487500
X525000Y486000
X504230Y514270
X843500Y252500
X867500Y265500
X888500Y359750
X715000Y523000
X803500Y234000
X669000Y504000
X677000
X726650Y464300
X708250Y492430
X708280Y501050
X692640Y527820
X676500Y545000
X674500Y439500
X680750Y586750
X734500Y550500
X774000Y279500
X750000Y283500
X751000Y323500
X839500Y542500
X812000Y457500
X819000Y418500
X882500Y485000
X758000Y508500
X868500Y411500
X867500Y187000
X531500Y247000
X462950Y463450
X327000Y470000
X314500Y499000
X431000Y464000
X448000Y492500
X403000Y499500
X370500
X243000Y470500
X243750Y498750
X207500Y489500
X185750Y506000
X852000Y46000
X868500
X87500Y472500
X890250Y333250
X899500Y137500
X219000Y385000
X127750Y404500
X114750
X108250Y393500
X121250
X87500Y499500
X92000Y-73000
Y-93000
X486250Y77750
X475000Y5000
Y34500
Y47000
X506500Y77500
X425500Y87500
X278250Y465250
X379500Y369500
X334500
X364500
X426500Y344500
X439000Y33500
X475000Y25000
X472500Y-9500
X490000Y-14500
Y-53000
X482750Y-78000
X482500Y-103500
X504000Y-104500
X442000Y-102000
X49500Y405000
X48000Y375000
Y345000
X155500Y162500
X142000Y148500
X202500Y188000
X153500Y193500
X109550Y92450
X12500Y247500
X509000Y-130500
X338000Y-161000
X927500
X848500
X390500Y4500
X422500
X436500Y398500
X360000Y-161000
X166250Y136500
X168750Y193500
X183750
X321500Y193000
X291250Y192750
X301500Y219000
X271500
X256500
X196500
X226500
X241500
X123750Y193500
X138750
X153750Y218500
X108750Y220440
X123750Y219000
X138750Y218500
X776000Y261500
X759500Y241000
X718500Y240000
X693500
X640500Y347000
X544500Y334230
Y346230
X474500Y324500
X339000Y301500
X314000Y309000
X278500Y374000
X277750Y410750
X333500Y226000
X342500Y235000
X323000Y246500
X294000Y246000
X747000Y136500
R02X-5750
X730000
X726250Y111500
X742000Y219000
X738750Y193750
X728750Y193500
X374000Y327000
X359000Y253000
X432500Y269000
X399500Y286500
X413500Y326500
X415250Y301250
X303000Y259000
X330500Y259500
X491000Y464500
Y479500
X386250Y136500
X401250
X416250Y111750
X515000Y399500
R03Y-15000
X488000Y340000
Y324500
X487500Y309500
X515000Y294500
X85690Y92500
X701250Y136750
X59800Y242500
X62050Y195640
X860500Y-69000
X869000
X883500Y-50500
X840000Y-97500
X893250Y-103500
X866750
X700500Y418500
X692000Y410000
X715500Y402000
X626250Y111000
X281500Y3500
X209500Y1500
X175500
X138240Y96790
X183300Y99960
X336500Y80500
X394500Y69000
X386500Y87500
X372000Y77500
X353500
X330500Y69500
X313500
X281000
X274500Y86000
X255760Y86630
X311500Y3500
X225000Y2500
X158500Y-7890
X559000Y437000
X292000Y342000
X181250Y136500
X327000Y335500
X666250Y137000
X894500Y611000
X878000
X838000
X858000
X802000
X818000
X786000
X730000
X713000
X698000
X678000
X638000
X658000
X598000
X618000
X578000
X558000
X587500Y609000
X568500
X538000Y611000
X498000
X518000
X458000
X478000
X438000
X418000
X378000
X398000
X338000
X358000
X298000
X318000
X278000
X258000
X218000
X238000
X198000
X178000
X163500
X78000
X38000
X18000
X-2000
X-21000
X149000
X95000
X-31000Y586000
Y600500
Y546000
Y566000
X951000Y508000
Y528000
Y477000
X68000Y457000
X62000Y493500
X951000Y428000
Y448000
X316500Y422000
X68000Y441000
Y427000
X48500Y435000
X951000Y388000
Y408000
X68000Y405000
X951000Y344000
Y366000
X69000Y353000
Y373500
X951000Y308000
Y325500
X351000Y335500
X951000Y268000
Y288000
Y228000
Y248000
X-12500Y242500
X951000Y208000
X751000Y219000
X733750
X623750Y193500
X563750Y218250
X533750Y193750
X548750Y218250
X503750Y193500
X518750
X463750
X448750Y193750
X433750
X951000Y188000
Y168000
X56010Y155410
X12500Y138500
X951000Y148000
Y128000
X551250Y136750
X536250
X491250
X456250
X467000Y122000
X477500Y136500
X441250
X426250
X301250Y137000
X250000Y148500
X240000Y149000
X228000
X151250Y137000
X121250
X136250
X56110Y84490
X951000Y85000
Y104000
X506250Y136500
Y111750
X401250
R02X-15000
X316250Y137000
Y111750
X286250Y137000
Y111500
X271250Y136500
Y111500
X256250
X241250Y136500
Y111500
X226250Y136500
Y111500
X211250Y136500
Y111500
X196250
X106250Y137000
X39140Y88430
X-14500Y107500
X951000Y46000
Y63000
X-8900Y73370
Y67500
X-8710Y61190
X951000Y28000
Y8000
X596500Y34000
R02X-34000
X422500Y33500
X390500
X353000Y33400
X951000Y-32000
Y-12000
X596500Y4000
X613000
X562500
X567000Y-28500
X580000Y4000
X527500
X545000
X510000
X406500Y4500
X375500
X338000Y5000
X353000
X951000Y-72000
Y-52000
X600000Y-65000
X627000Y-51000
X608000Y-77000
X573000Y-46000
X538000Y-65000
X543500Y-48500
X556000Y-42500
X411500Y-46000
Y-33000
X376000Y-59500
X368500Y-45500
X386000Y-76000
Y-43000
X951000Y-99000
X550000Y-80000
X951000Y-117000
Y-140000
X911500Y-161000
X951000
X915500Y-82500
X929000Y-151500
X832500Y-161000
X818000
X793000Y-155500
R04X-20000
X673000
X693000
X637000Y-161000
X656500
X598000
X618000
X558000
X577500
X538000
X498000
X518000
X458000
X478000
X438000
X418000
R02X-20000
X298000
X318000
X278000
X258000
X218000
X238000
X178000
X198000
X138000
X158000
X118000
X63000
X98000
X78000
X25000
X48000
X-13000
X6000
X-31000
X209000Y193000
X204000Y219000
X224000Y193000
X219000Y219000
X239000Y193000
X234000Y219000
X254000Y193000
X249000Y219000
X269000Y193000
X264000Y219000
X284000Y193000
X279000Y219000
X314000Y193000
X309000Y219000
X298500Y193000
X294000Y219000
X120500Y111000
X107500
X150000
X137000
X130000Y99500
X114000
X167500Y144500
X154500
X196500
Y157500
X181500Y144500
Y157500
T02
X817000Y187000
X896000Y223000
X896500Y247500
X831500Y233500
X841000Y190000
X812500Y209000
X842000Y270500
X828500Y299500
X865000Y294000
Y304000
X855000Y284000
R02Y10000
X865000Y284000
X866000Y440000
Y450000
X856000Y430000
R02Y10000
X866000Y430000
X865000Y215500
Y225500
X855000Y205500
R02Y10000
X865000Y205500
T03
X259500Y-27250
X254500Y-41250
X245500Y-27250
X241500Y-41250
X232500Y-27250
X227500Y-41250
X219500Y-27250
X214500Y-41250
X205500Y-27250
X201500Y-41250
X192500Y-27250
X187500Y-41250
X179500Y-27250
X174500Y-41250
X166500Y-27250
X161500Y-41250
X152500Y-27250
X148500Y-41250
X139500Y-27250
X135500Y-41250
T04
X856500Y517500
R03X-12500
T05
X245000Y-66250
X237500Y-81250
X230000Y-66250
Y-96250
X222500Y-81250
X215000Y-96250
Y-66250
X207500Y-81250
X200000Y-66250
Y-96250
X192500Y-81250
X185000Y-96250
Y-66250
X177500Y-81250
X170000Y-66250
Y-96250
X162500Y-81250
X155000Y-96250
Y-66250
T06
X351000Y-70500
X376000
X396000
X421000
X426000Y-55500
R04X-20000
X351000Y-38500
X376000
X396000
X421000
X426000Y-23500
R04X-20000
X521000Y-70500
X546000
X566000
X591000
X596000Y-55500
R04X-20000
X521000Y-38500
X546000
X566000
X591000
X596000Y-23500
R04X-20000
T07
X672350Y11400
X685050Y-14000
X697750Y11400
X710450Y-14000
X723150Y11400
X735850Y-14000
X748550Y11400
X761250Y-14000
X773950Y11400
X786650Y-14000
X672350Y-39200
X697750Y-51900
X761250
X786650Y-39200
T08
X663100Y-118100
X688500
X770500
X795900
X94500Y48700
X119900
X729500
R03X25400
T09
X932700Y48700
X907300
X932700Y74100
X907300
X932700Y99500
X907300
X932700Y124900
X907300
X932700Y150300
X907300
X932700Y175700
X907300
X932700Y201100
X907300
X932700Y226500
X907300
X932700Y251900
X907300
X932700Y277300
X907300
X932700Y302700
X907300
X932700Y328100
X907300
X932700Y353500
X907300
X932700Y378900
X907300
X932700Y404300
X907300
X932700Y429700
X907300
X932700Y455100
X907300
X932700Y480500
X907300
X932700Y505900
X907300
X932700Y531300
X907300
X456800Y517500
R11X-25400
X609200
R03X-25400
T10
X808000Y-47000
X651000
T11
X122000Y585000
X758000
T12
X834200Y387000
Y155000
T15
X855000Y-124500
X905000
T20
X784000Y165000
X554960Y487000
X51350Y255000
T24
X96000Y165000
X554960Y287000
X51350Y55000
T26
X920000Y0
X0Y0
X920000Y580000
X0
X860000
Y0
T27
X-90000Y1380000
X1010000
Y-79200
X-90000Y-119200
T29
X672350Y-77500
X786650
M30
