M48
;Layer_Color=9474304
;FILE_FORMAT=4:4
METRIC,LZ
;TYPE=PLATED
T01F00S00C0.3000
T02F00S00C2.5000
%
T01
X0006Y0003
X0011
X0016
X0021
X0026
X0001Y0013
Y0023
X0008Y0024
Y0025
X00085Y0028
X00135
X001425Y002525
X0017Y0027
X00215Y002625
X002225Y00275
X00235Y0028
X00285
X0026Y00235
Y0022
Y0021
X00260139Y00202361
X00285Y0018
X0026Y0013
X002075Y00145
X002025Y0015
Y001575
X002075Y001625
X0017
X00175Y001575
Y0015
X0017Y00145
X00185Y00205
X00195
X001925Y0024
X0026Y0033
X0006
T02
X0031Y0003
X0003
Y0035
X0031
M30
