M48
;Layer_Color=9474304
;FILE_FORMAT=4:4
METRIC,LZ
;TYPE=PLATED
T01F00S00C0.3000
T02F00S00C0.5000
T03F00S00C0.7112
T04F00S00C1.0000
T05F00S00C1.8000
T06F00S00C1.8034
T07F00S00C2.5000
;TYPE=NON_PLATED
T08F00S00C2.9972
T09F00S00C3.0000
%
T01
X0002Y00016
X0005
X0008
X0011
X0014
X00125Y00046
X00095
X00065
X00035
X0002Y00076
X0008
X0011
X0014
X00155Y00046
X00185
X00215
X00245
X00275
X00305
X00335
X00365
X00395
X00425
X00455
X00485
X00515
X0053Y00016
X005
X0047
X0044
X0041
X0038
X0035
X0032
X0029
X0026
X0023
X002
X0017
X002Y00076
X0023
X0026
X00245Y00106
X00215
X0023Y00136
X0032Y00076
X0035
X0038
X0044
X0047
X00485Y00106
X00455
X0047Y00136
X0056Y00076
X0059
X0062
X00635Y00046
X00665
X00695
X0071Y00016
X0074
X0077
X008
X0083
X0086
X0089
X00905Y00106
X00935
X0092Y00136
X0089
X0086
X0083
X008
X0077
X0074
X0071
X00725Y00106
X00755
X00785
X00815
X00845
X00875
X00695
X0068Y00076
Y00016
X0065
X0062
X0059
X0056
X00575Y00046
X00605
X00545
X00965Y00106
X0098Y00136
X0095
X00965Y00166
X0098Y00196
X0095
X00965Y00226
X0098Y00256
X0095
X00965Y00286
X0098Y00316
X0095
X00965Y00346
X0098Y00376
X0095
X00965Y00406
X0098Y00436
X0095
Y00496
X0098
X0092
X00935Y00526
X00905
Y00466
X0092Y00436
X0089
X00905Y00406
X00935
X0092Y00376
X0089
X0086
X0083
X008
X00815Y00406
X00845
X00875
Y00346
X00905
X00935
X00845
X00815
X00785
X00755
X00725
X0074Y00376
X00755Y00406
X00785
X00725
X0067375Y004035
Y003945
X0065775
Y004035
X0065775Y0036575
Y0035675
X0067375
Y0036575
X0068Y00316
X0071
X00695Y00286
X006715Y002711
X006425Y0025525
X00625Y0025525
X0060675
X00634Y0027925
X00642Y00318
X0059Y00316
X0056425Y003605
X00549Y003935
X0054875Y004175
Y0043425
X0054875Y00464
X005995
X0059955Y0043425
Y004175
X0059475Y003955
X006245Y003735
X0062Y00496
X0065
X0068
X0071
X0070475Y00465
X00665Y00466
X00749861Y00448496
X0077Y00496
X00605Y00526
X0055425Y0025525
X0062Y00196
X0068
X0071
X0074
X0077
X008
X0083
X0086
X0089
X0092
X00935Y00226
X00905
X00875
X00845
X00815
X00785
X00755
X00725
X00695
X006595Y0022425
X0071Y00256
X008
X0083
X0086
X00845Y00286
X00815
X0083Y00316
X0086
X008
X00815Y00166
X00845
X00875
X00905
X00935
X00785
X00755
X00725
X00695
X00536Y0025535
X0051875Y00255359
X0052725Y0027875
X0049Y002721
X0047Y00256
X00455Y00286
X004395Y002711
X004105Y0025525
X00393Y0025525
X0037475
X00402Y0027925
X0041Y00318
X0042575Y0035675
Y0036575
X0044175
Y0035675
X0044175Y00394499
Y004035
X0042575
Y003945
X003925Y003735
X0036275Y003955
X0036755Y004175
Y0043425
X003675Y00464
X0031675
X0031675Y0043425
Y004175
X00317Y003935
X0027075Y003945
Y004035
X0025475
X0025475Y003945
X0025475Y00365751
X0025475Y0035675
X00270751
Y0036575
X002955Y003605
X0033225Y003605
X0035Y00316
X002885Y003181
X0029525Y0027875
X0028675Y00255358
X00304Y0025535
X0032225Y0025525
X00258Y002721
X0023Y00256
X0020625Y002711
X0017725Y0025525
X0015975Y0025525
X0016875Y0027925
X0017675Y00318
X001925Y0035675
Y0036575
X002085
Y0035675
X002085Y003945
Y004035
X001925
Y003945
X0015925Y003735
X00185Y00466
X00215
X00275
X0028525Y0053
X0028025Y00535
X0034525
X0035025Y0053
X00425Y00526
X00455
X00485
X005Y00496
X0053
X0047
X0044
X0041
X00425Y00466
X00455
X00485
X005Y00436
X0050275Y004035
Y003945
X0048675
X0048675Y004035
X0048675Y0036575
X0048675Y0035675
X0050275
Y0036575
X005275Y003605
X00519001Y003181
X0047Y00316
X00455Y00226
X004275Y0022425
X0044Y00196
X0047
X0035
X0026
X0023
X0019425Y0022425
X0023Y00316
X0011
X00099Y003605
X0006225Y003605
X000375Y0035675
Y0036575
X000215
Y0035675
X000215Y003945
Y004035
X000375
Y003945
X0008375Y003935
X000835Y004175
Y0043425
X000835Y00464
X0013425
X001343Y0043425
Y004175
X001295Y003955
X00125Y00526
X0005375Y003181
X00062Y0027875
X000535Y00255359
X0007075Y0025535
X00089Y0025525
X001415
X0002475Y002721
X0002Y00196
Y00556
X0005
X00035Y00586
X0005Y00616
X0008
X0002
X00035Y00646
X0005Y00676
X00065Y00706
X00035
X0004Y00746
Y00755
X00056
Y00746
X00056Y0078525
Y0079425
X0004
Y0078525
X0004Y008255
Y008345
X00056
Y008255
X001039Y00785
X00095526Y0074925
X001123
X0012175Y00882853
X001215Y008955
X00109
X0015825Y0089625
Y0086375
X00153948Y00815001
X00185Y0081725
Y0082775
X0018975Y00801
X00215448Y00803751
Y00816501
X002235Y0081025
Y00795
X00233Y007585
X00226375Y0074375
X00218125
X002115Y007585
X0018825Y00755166
X0017075
Y00732167
X0018825
X00215Y00706
X002615Y0069575
X00261059Y0067525
X0026135Y00647
Y00632
X00260963Y00604959
X002611Y005955
X0026525Y0057825
X0027025Y00545
X0027525Y0054
X0033525Y00545
X0034025Y0054
X003665Y0057825
X00379
X00415Y00577
X0042Y00582
X00425Y00587
X0043Y00592
X0047Y00556
X00355Y00647
X00335
X0033Y006405
X0034Y006535
X003695Y0067125
X0036025Y0069575
X00396Y0071675
X00421Y0071625
X0033Y0073375
X003115Y0073225
X0029025Y0075
X00305Y00826
X00275
X00254Y00829
X0026Y00856
X0028625Y0086
X0029895
X0031165
X0032435
X0033705
Y009003
X0032435
X0031165
X0029895
X0028625
X00245Y00886
X002075Y008837
X002075Y0089625
X0023Y00916
X0038
X0041
X0044
X0047
X005
X0053
Y00856
X005
X0047
X0044
X0041
X00395Y00886
X00485
X00355Y00815
Y0080375
X0031275Y006779
X002951Y005965
X00219Y00622
Y0063275
X002Y00556
X0017
X00555Y006
X0060075Y006515
X00664Y0064125
X00683Y006665
X007Y006865
X006831Y0070625
X0065575Y00686
X0070163Y0063327
X0071863
X0074Y00616
X0077
Y00556
X0071425Y005575
X00696937Y0057725
X00691Y006025
X00678
X0067Y0055725
X0089Y00556
X0092
X00905Y00586
X00875
X0089Y00616
X00905Y00646
X00935
X00905Y00706
X0092Y00736
X0089
X00905Y00766
X00935
X00875
X0089Y00796
X0086
X00875Y00826
X0086Y00856
X0083
X008
X0077
X0074
X0071
X0068
X0065
X0062
X0059
X0056
X00545Y00886
X0056Y00916
X0059
X0062
X0065
X0068
X0071
X0074
X0077
X008
X0083
X00845Y00886
X00875
X0089Y00916
X00785Y00886
X00695
X00635
X0098Y00856
X00965Y00826
X0098Y00796
Y00736
X0095
Y00676
X0098
Y00616
X0095
Y00556
X0098
T02
X0063765Y0043425
X0052335
X0040565Y0043425
X0029135
X001724Y0043425
X000581
X0009075Y0056025
X00325Y0058125
X00506Y00644
X0053325Y00668
X00564674Y00714289
X00589174
X00605981Y006245
T03
X0058075Y00343
X0065513Y0034325
X00642437Y005375
X0050275Y0034325
X004245Y0034325
X0034875Y00343
X00270751Y0034325
X001915
X001155Y00343
X000375Y0034325
X00642437Y0057725
X0062865Y006665
Y0070625
T04
X00765Y0028
X00915
T05
X005595Y001445
Y001865
X006015
X006435
Y001445
X006015
X00813Y00477
Y00519
X00855
Y00477
X005175Y001865
Y001445
X004115Y001445
Y001865
X003695
X003275
X002855
Y001445
X003275
X003695
X0017825Y001445
Y001865
X0013625
Y001445
X0009425
Y001865
X0005225
Y001445
X00145Y0058325
Y0062525
Y0066725
X00187
Y0062525
Y0058325
X00438Y00763
X0048
X00522
Y00805
X0048
X00438
X00588Y00805
Y00763
X0063
X00672
Y00805
X0063
X00738Y00805
Y00763
X0078
Y00805
X00822
Y00763
X00813Y00603
Y00561
X00855
Y00603
T06
X00799444Y00669045
Y00710955
X00854562
Y00669045
T07
X0095Y0005
X0005Y005
Y009
X0095
T08
X0092746Y0069
T09
X0005225Y000715
X0017825
X002855Y000715
X004115
X005175Y000715
X006435
X00928Y00477
X00072Y0058325
Y0066725
X00438Y00878
X00522
X00588Y00878
X00672
X00738Y00878
X00822
X00928Y00603
M30
