M48
;Layer_Color=9474304
;FILE_FORMAT=4:4
METRIC,LZ
;TYPE=PLATED
T01F00S00C0.3000
T02F00S00C0.6000
T03F00S00C0.7100
T04F00S00C0.9000
T05F00S00C2.5000
;TYPE=NON_PLATED
%
T01
X00474999Y00119999
Y00179999
Y00239999
Y00299999
X00458Y00305
Y00315
Y00275
Y00265
Y00255
Y00245
X0042325Y0023
X00407Y00225
Y00245
X00397Y00235
Y00255
X00385Y00258
Y00268
X00397Y00275
X00407Y00285
X0042025Y002885
X004425Y002885
X0042025Y002645
X00407Y00265
X00397Y00295
X00385Y002995
X00374Y0028375
X00361Y002835
X0034675Y0029825
X00361Y003185
X00374Y0031875
X00402Y00315
X00374Y0024875
X00361Y002485
X0034675Y0026325
X00313Y002615
X003Y0026125
Y0022625
X00313Y002265
X0032725Y0024675
Y0028175
X00313Y002965
X003Y0029625
Y0033125
X00313Y003315
X00219999Y00329999
X001835Y00291
X00141Y003065
X0013Y003275
X001225
X00115
X00069999Y00329999
Y00209999
X00084999Y00179999
X00109Y00141
X001425Y00135
Y00125
Y00115
Y00105
X0015Y00100032
Y00110032
Y00120032
Y0013
X00142Y00158
X00166
X0017Y00193
X0016
X00165Y002
X00175
X00185
X00195
X00205
X002Y00193
X0021
X0019
X0018
X00191Y00231
X0015275
X00126032Y0023875
X0011Y002405
X00227Y00217
Y00207
X00234Y00189
X00242
X00266Y00188
X0028Y0018675
X002865Y00197
X00281Y00208
X00258036Y00211964
X00252Y00221
X00258Y00227
X00258Y00158
X00258Y00145
Y0011
Y00095
X00257964Y00084036
X00258Y00077
Y0007
X00258Y00042
X00234
X00226
X00208Y00042
X0019Y00042
X00166
X00142
X00142Y0007
X0011
Y0008
Y0009
X0007Y0004425
X002Y00085
X002075
X00215
X00233822Y00122056
X00289Y00124
Y00113
Y00105
Y00097
X00289035Y00083965
X00313Y000865
X0032725Y0007175
Y0010675
X00313Y001215
X00298Y00132
X0029Y00135
X0032725Y00142
X00313Y001565
X0032725Y0017675
X00313Y001915
X0034675Y0019325
X00361Y001785
X00374Y0017875
X00385Y001595
X00397Y00155
Y00135
X00385Y00128
Y00118
X00397Y00115
X00407Y00125
X0042025Y001245
X00407Y00145
X0042025Y001595
X00402Y00175
X00458
Y00165
Y00155
Y00145
Y00135
Y00125
Y00115
Y00105
Y00095
Y00085
X0042825Y00094
X0041Y0004625
Y000335
Y0001375
X0036
Y000335
Y000465
X00361Y000735
X00374Y0007375
X00374Y0010875
X00361Y001085
X0034675Y00124968
X00361Y001435
X00374Y0014375
X0034675Y0015825
X00352Y00167
X00361Y002135
X00374Y0021375
X0034675Y0008825
X0030625Y000395
X0032375Y000165
X00258Y00012
X0025
X00242
X00063Y000605
Y000695
Y000805
Y000895
X00047
X00039999Y00209999
X00009999
X00024999Y00239999
X00054999
X00039999Y00269999
X00009999
X00024999Y00299999
X00054999
X0008Y0037325
X0013Y0037325
X001765Y0035
X00192Y00382
X00354999Y00359999
T02
X00142Y00286006
X00256Y0029275
X00274Y00379
T03
X0004Y001096
X000527
Y001223
X0004
Y00135
X000527
Y001477
X0004
Y001604
X000527
T04
X00089Y002225
Y002475
Y002725
Y002975
T05
X0047Y0003
X0003
Y0037
X0047
M30
