M48
;Layer_Color=9474304
;FILE_FORMAT=4:4
METRIC,LZ
;TYPE=PLATED
T01F00S00C0.3000
T02F00S00C0.6000
T03F00S00C0.7100
T04F00S00C0.9000
T05F00S00C2.5000
;TYPE=NON_PLATED
%
T01
X00474999Y00119999
Y00179999
Y00239999
Y00299999
X00458Y00305
Y00315
Y00275
Y00265
Y00255
Y00245
X0042325Y0023
X00407Y00225
Y00245
X00397Y00235
Y00255
X00385Y00258
Y00268
X00397Y00275
X00407Y00285
X0042025Y002885
X004425Y002885
X0042025Y002645
X00407Y00265
X00397Y00295
X00385Y002995
X00374Y0028375
X00361Y002835
X0034675Y0029825
X00361Y003185
X00374Y0031875
X00402Y00315
X00374Y0024875
X00361Y002485
X0034675Y0026325
X00313Y002615
X003Y0026125
Y0022625
X00313Y002265
X0032725Y0024675
Y0028175
X00313Y002965
X003Y0029625
Y0033125
X00313Y003315
X00219999Y00329999
X001835Y00291
X00141Y003065
X00126Y0023875
X0011015Y002405
X0015275Y00231
X00191
X00195Y002
X00185
X00175
X00165
X0016Y00193
X0017
X0018
X0019
X002
X0021
X00205Y002
X00227Y00207
Y00217
X00252Y00221
X00258Y00227
X00258036Y00211964
X00281Y00208
X002865Y00197
X0028Y0018675
X00266Y00188
X00242Y00189
X00234
X00258Y00158
X00258Y00145
Y0011
Y00095
X00257964Y00084036
X00258Y00077
Y0007
X00258Y00042
X00234
X00226
X00208Y00042
X0019Y00042
X00166
X00142
X00142Y0007
X0011
Y0008
Y0009
X001425Y00105
Y00115
Y00125
Y00135
X0015Y0013
Y0012
Y0011
Y001
X00142Y00158
X00166
X00109Y00141
X00084999Y00179999
X00069999Y00209999
Y00329999
X0007Y0004425
X00242Y00012
X0025
X00258
X0032375Y000165
X0036Y0001375
Y000335
Y000465
X00361Y000735
X00374Y0007375
X00374Y0010875
X00361Y001085
X0034675Y00124968
X00361Y001435
X00374Y0014375
X00385Y00128
Y00118
X00397Y00115
Y00135
X00407Y00125
X0042025Y001245
X00407Y00145
X00397Y00155
X00385Y001595
X00374Y0017875
X00361Y001785
X00352Y00167
X0034675Y0015825
Y0019325
X00361Y002135
X00374Y0021375
X00402Y00175
X0042025Y001595
X00458Y00155
Y00165
Y00175
Y00145
Y00135
Y00125
Y00115
Y00105
Y00095
Y00085
X0042825Y00094
X0041Y0004625
Y000335
Y0001375
X0030625Y000395
X0032725Y0007175
X00313Y000865
X00289035Y00083965
X00289Y00097
Y00105
Y00113
Y00124
X0029Y00135
X00298Y00132
X00313Y001215
X0032725Y0010675
Y00142
X00313Y001565
X0032725Y0017675
X00313Y001915
X0034675Y0008825
X00233822Y00122056
X00063Y000895
Y000805
Y000695
Y000605
X00047Y000895
X00039999Y00209999
X00009999
X00024999Y00239999
X00054999
X00039999Y00269999
X00009999
X00024999Y00299999
X00054999
X001765Y0035
X00354999Y00359999
T02
X00142Y00286006
X00256Y0029275
X00274Y00379
T03
X0004Y001096
X000527
Y001223
X0004
Y00135
X000527
Y001477
X0004
Y001604
X000527
T04
X00089Y002225
Y002475
Y002725
Y002975
T05
X0047Y0003
X0003
Y0037
X0047
M30
