M48
;Layer_Color=9474304
;FILE_FORMAT=4:4
METRIC,LZ
;TYPE=PLATED
T01F00S00C0.3000
T02F00S00C3.0000
%
T01
X00024997Y00049998
X0005725Y0003175
X00065Y00075
Y0012
X00099997Y00139998
X00129997
X00159997
X00174997Y00109998
X00159997Y00079998
X00129997
X00114997Y00109998
X00084997Y00169998
X00054997
X0003725Y0016425
X00009997Y00199998
X00024997Y00229998
X00039997Y00259998
X0008Y0027
X00092121Y00271868
X00098132Y00277879
X00084997Y00229998
X00099997Y00199998
X00069997
X0018425Y0020275
Y0021725
X0017575
X0020775Y0026075
Y0026925
X0022225
X0024Y00261
X00279997Y00199998
Y00139998
X0027725Y0012425
X0026275
Y0011575
X00279997Y00079998
X00249997Y00019998
X00219997
X00189997
X00159997
X00129997
X00219997Y00139998
X00309997
X00339997
X003675Y00155
Y00165
Y00175
Y00185
X0035575Y0020275
X00339997Y00199998
X00309997
X0035Y002425
X00368Y00245
Y00235
X00339997Y00259998
X004325Y00225
Y00215
Y00205
Y00195
Y00185
Y00175
X00432639Y00164861
X004325Y00155
X00444997Y00109998
X00429997Y00079998
X00399997
X00369997
X00339997
X00309997
X00354997Y00049998
X003075Y002875
X002975Y003025
X0032
X00339997Y00319998
X00369997
X00399997
X00429997
X00444997Y00289998
X00354997Y00349998
X00324997
X0027725Y0030425
Y0029575
X0026275
Y0030425
X00204997Y00289998
X00174997
X00122929Y00291716
X00095705Y00311868
T02
X0033Y0028
M30
